<?xml version="1.0" encoding="utf-8"?>
<!-- Generator: Adobe Illustrator 26.0.3, SVG Export Plug-In . SVG Version: 6.00 Build 0)  -->
<svg version="1.1" id="Layer_1" xmlns="http://www.w3.org/2000/svg" xmlns:xlink="http://www.w3.org/1999/xlink" x="0px" y="0px"
	 viewBox="0 0 910 262" style="enable-background:new 0 0 910 262;" xml:space="preserve">
<style type="text/css">
	.st0{fill:#164C28;}
	.st1{fill:#FFFFFF;}
	.st2{fill:#414BF9;}
	.st3{fill:#FD01FB;}
</style>
<path class="st0" d="M118.3,221.7c-23.7,0-44-10.6-57.2-29.7c-3.7-5.4-3.9-12.4-0.6-18c5-8.1,10.4-15.9,16.1-23.4
	c-9-7.8-16.3-18.7-16.7-34.5c-0.7-21.8,14.1-44.9,43.7-47c1.6-0.1,3.2-0.2,4.7-0.2c24.7,0,46.2,14.3,57.6,38.2
	c3.9,8.2,0.6,17.9-7.5,22c-2.8,1.4-5.4,2.8-7.8,4.2c12.9,9.6,20.2,22.5,20.5,37.4c0,0,0,0.1,0,0.1c0.2,13.7-4.5,25.9-13.6,35.1
	C147.7,216,133.4,221.7,118.3,221.7z"/>
<path class="st0" d="M188.6,221c-18.2,0-39.6-10-45.1-38.1c-3.7-19.1,0.1-39.2,10.3-53.7c7.3-10.4,17.5-17.1,28.6-18.8
	c2.4-0.4,4.8-0.6,7.2-0.6c20.6,0,37.9,14.8,43.1,36.8c0.9,3.9,0.4,8-1.5,11.6c4.5,3.2,7.2,8.5,7,14c-0.9,27.9-18.2,46.5-45.1,48.6
	C191.6,220.9,190.1,221,188.6,221z"/>
<path class="st0" d="M226.1,221.9c-9.2,0-16.6-7.4-16.6-16.6c0-0.4,0-0.7,0-1.1c2.3-35.2,1-94.2-2.9-128.8
	c-1-8.5,4.7-16.3,13.1-18.1c13.9-3,28.6-5.7,29.2-5.8c1-0.2,2-0.3,3-0.3c9.2,0,16.6,7.4,16.6,16.6c0,0.7,0,1.4-0.1,2.1
	c-1.3,10.2-2.5,25.3-3.3,41.5c1.9,0,3.9,0.2,5.8,0.5h0.2c10.5,1.6,19.9,7.6,25.7,16.4c11.3,16.7,12.9,43.8,4.6,80.6
	c-1.7,7.6-8.4,13-16.2,13c-1.3,0-2.6-0.2-3.9-0.5c-7.7-1.8-15.4-3-23.3-3.7c-2.5,1.5-5.4,2.3-8.4,2.2c-7.1,0.1-14.1,0.7-21.1,1.7
	C227.8,221.8,227,221.9,226.1,221.9z"/>
<path class="st0" d="M325,221.8c-17.2,0-39.4-10.1-45.3-38.6c-4.2-20,0.6-42.3,12.2-56.7c8.4-10.4,19.9-16.2,32.4-16.3h0.4
	c25.3,0,45,23,46.8,54.7s-16,54.9-43.5,56.9C327,221.7,326,221.8,325,221.8z"/>
<path class="st0" d="M389.5,221.8c-17.2,0-39.4-10.1-45.3-38.6c-4.2-20,0.6-42.3,12.2-56.7c8.4-10.4,19.9-16.2,32.4-16.3h0.4
	c25.3,0,45,23,46.8,54.7s-16,54.9-43.5,56.9C391.5,221.7,390.5,221.8,389.5,221.8z"/>
<path class="st0" d="M424.1,222.4c-9.2,0-16.6-7.4-16.6-16.6c0-0.9,0.1-1.8,0.2-2.8c6-35.2,4.1-96.4-1.5-127.6
	c-1.6-9,4.3-17.7,13.4-19.3c0.5-0.1,1-0.2,1.5-0.2c0.1,0,14-1.3,24.2-4.3c8.8-2.6,18,2.5,20.6,11.3c0.6,2,0.8,4.1,0.6,6.1
	c-2.9,31.8-1,100.7,3.7,131.8c1.3,9.1-4.9,17.5-14,18.9c-0.4,0.1-0.8,0.1-1.2,0.1c-14.1,1-29.2,2.4-29.3,2.4
	C425.1,222.4,424.6,222.4,424.1,222.4z"/>
<path class="st1" d="M109.4,209.5c-23.7,0-44-10.6-57.2-29.7c-3.7-5.4-3.9-12.4-0.6-17.9c5-8.1,10.4-15.9,16.1-23.4
	c-9-7.8-16.3-18.7-16.7-34.5c-0.7-21.8,14.1-44.9,43.7-47c1.6-0.1,3.2-0.2,4.7-0.2c24.7,0,46.2,14.3,57.6,38.2
	c3.9,8.2,0.6,17.9-7.5,22c-2.8,1.4-5.4,2.8-7.8,4.2c12.9,9.6,20.2,22.5,20.5,37.4v0.1c0.2,13.7-4.5,25.9-13.6,35.1
	C138.8,203.8,124.5,209.5,109.4,209.5z"/>
<path class="st1" d="M179.6,208.8c-18.2,0-39.6-10-45.1-38.1c-3.7-19.1,0.1-39.2,10.3-53.7c7.3-10.4,17.5-17.1,28.6-18.8
	c2.4-0.4,4.8-0.6,7.2-0.6c20.6,0,37.9,14.8,43.1,36.8c0.9,3.9,0.4,8-1.5,11.6c4.5,3.2,7.2,8.5,7,14c-0.9,27.9-18.1,46.5-45.1,48.6
	C182.6,208.7,181.1,208.8,179.6,208.8z"/>
<path class="st1" d="M217.2,209.7c-9.2,0-16.6-7.4-16.6-16.6c0-0.4,0-0.7,0-1.1c2.3-35.2,1-94.2-2.9-128.8
	c-0.9-8.5,4.7-16.3,13.1-18.1c13.9-3,28.6-5.7,29.2-5.8c1-0.2,2-0.3,3-0.3c9.2,0,16.6,7.5,16.6,16.6c0,0.7,0,1.4-0.1,2.1
	c-1.2,10.2-2.4,25.3-3.3,41.5c1.9,0,3.9,0.2,5.8,0.5h0.2c10.5,1.6,19.9,7.6,25.7,16.4c11.3,16.7,12.9,43.8,4.6,80.6
	c-1.7,7.6-8.4,13-16.2,13c-1.3,0-2.6-0.2-3.9-0.5c-7.7-1.8-15.4-3-23.3-3.7c-2.5,1.5-5.4,2.3-8.4,2.2c-7.1,0.1-14.1,0.7-21.1,1.7
	C218.8,209.6,218,209.7,217.2,209.7z"/>
<path class="st1" d="M316.1,209.6c-17.2,0-39.4-10.1-45.3-38.6c-4.2-20,0.6-42.3,12.2-56.7c8.4-10.4,19.9-16.2,32.4-16.3h0.4
	c25.3,0,45,23,46.8,54.7s-16,55-43.5,56.9C318,209.5,317,209.6,316.1,209.6z"/>
<path class="st1" d="M380.5,209.6c-17.2,0-39.4-10.1-45.3-38.6c-4.2-20,0.6-42.3,12.2-56.7c8.4-10.4,19.9-16.2,32.4-16.3h0.4
	c25.3,0,45,23,46.8,54.7s-16,55-43.5,56.9C382.5,209.5,381.5,209.6,380.5,209.6z"/>
<path class="st1" d="M415.1,210.2c-9.2,0-16.6-7.4-16.6-16.6c0-0.9,0.1-1.9,0.2-2.8c6-35.2,4.1-96.4-1.5-127.6
	c-1.6-9,4.4-17.7,13.4-19.3c0.5-0.1,1-0.2,1.5-0.2c0.1,0,14-1.3,24.2-4.3c8.8-2.6,18,2.5,20.6,11.3c0.6,2,0.8,4.1,0.6,6.1
	c-2.9,31.8-1,100.7,3.7,131.8c1.3,9.1-4.9,17.5-14,18.9c-0.4,0.1-0.8,0.1-1.2,0.1c-14.1,1-29.2,2.4-29.3,2.4
	C416.1,210.2,415.6,210.2,415.1,210.2z"/>
<path d="M113.6,198.1c-17.3,0-32.8-6.9-43.5-22.5c5.3-8.6,11.1-16.8,17.3-24.8c8,15.4,27,22.7,33.4,15.4c5.2-5.7,0-14.9-16.6-22.5
	c-15.8-7.3-31.9-15.8-32.4-35c-0.3-11.1,6.2-28.4,28.2-30s38,11.4,46.1,28.6c-8.5,4.4-16.7,9.4-24.4,15.1c-2.6-7.4-9.2-13-15.2-13
	c-4.9,0-7.3,3.5-6.8,7.4c0.7,7.5,8,10.1,20.5,14.7c18.6,6.6,29.3,18.2,29.6,32.6C150.1,187,131.1,198.1,113.6,198.1z"/>
<path d="M186.9,197.2c-11.8,1-27.7-3.6-31.9-24.6c-4.9-24.8,7.1-50.1,25.1-52.9c17.5-2.8,28.4,10.2,31.5,23.6c0,0-13.2,2.4-22.9,6.8
	c-0.3-4.7-2.2-9.5-6.8-8.8s-8.8,9-8.5,18.9c0.4,10.9,4.7,17.3,10.1,17c4.5-0.4,7.6-4.3,7.8-10.6c0,0,12.3-1.6,25.3-1.9
	C216,186.7,202.3,196,186.9,197.2z"/>
<path d="M254,194.1c9.2-26,5.7-49.8-1.4-51.8c-3.8-1-7.1,1-10,5c0,18.9,0.7,36.4,2.4,49.1c-7.9,0.1-15.8,0.8-23.6,1.9
	c2.4-37.4,0.9-97.4-3-131.7c13.9-2.9,28.8-5.7,28.8-5.7c-1.9,15.1-3.6,40.6-4.3,66.4c5.8-5,13.5-7.1,21-5.9
	c21,3.3,26.7,32.4,16.6,77C271.8,196.3,262.9,194.9,254,194.1z"/>
<path d="M322.1,198.1c-10.2,0.7-26.5-4.3-30.9-25.3c-5-24.1,6.8-52.9,28.4-53c15.6-0.2,29.1,15.1,30.5,39
	C351.4,179.6,341.7,196.7,322.1,198.1z M319.3,145.4c-7.5,0.7-12,12.8-10,23.8c1.4,9.2,6.2,13,10.9,12.5c6.9-0.7,10.6-9.7,9.9-18.9
	C329.2,151.8,324.5,145.1,319.3,145.4L319.3,145.4z"/>
<path d="M386.6,198.1c-10.2,0.7-26.5-4.3-30.9-25.3c-5-24.1,6.8-52.9,28.4-53c15.6-0.2,29.1,15.1,30.5,39
	C415.9,179.6,406.1,196.7,386.6,198.1z M383.8,145.4c-7.5,0.7-12,12.8-10,23.8c1.4,9.2,6.2,13,10.9,12.5c6.9-0.7,10.6-9.7,9.9-18.9
	C393.7,151.8,389,145.1,383.8,145.4L383.8,145.4z"/>
<path d="M419.3,198.8c6.6-38.8,4.2-101.8-1.6-133.3c0,0,15.4-1.4,27.4-4.8c-2.9,32.4-1,103.3,3.8,135.7
	C434.6,197.4,419.3,198.8,419.3,198.8z"/>
<path class="st2" d="M109.4,192.9c-17.4,0-32.8-6.9-43.5-22.5c5.3-8.6,11.1-16.8,17.3-24.8c8,15.4,27,22.7,33.5,15.4
	c5.2-5.7,0-14.9-16.6-22.5c-15.8-7.3-31.9-15.8-32.4-35c-0.3-11.1,6.2-28.4,28.3-30s38,11.4,46.1,28.6c-8.5,4.4-16.7,9.4-24.4,15.1
	c-2.6-7.4-9.2-13-15.3-13c-4.8,0-7.3,3.5-6.8,7.5c0.7,7.4,8,10,20.5,14.7c18.5,6.6,29.3,18.2,29.6,32.6
	C145.9,181.8,126.9,192.9,109.4,192.9z"/>
<path class="st2" d="M182.7,192c-11.8,1-27.7-3.6-31.9-24.6c-4.9-24.8,7.1-50.1,25.1-52.9c17.5-2.8,28.4,10.2,31.6,23.6
	c0,0-13.2,2.4-22.9,6.8c-0.4-4.7-2.2-9.5-6.8-8.8s-8.8,9-8.5,18.9c0.3,10.9,4.7,17.3,10,17c4.5-0.4,7.6-4.3,7.8-10.6
	c0,0,12.3-1.6,25.3-1.9C211.8,181.4,198.1,190.8,182.7,192z"/>
<path class="st2" d="M249.8,188.9c9.2-26,5.7-49.8-1.4-51.8c-3.8-1-7.1,1-10.1,5c0,18.9,0.7,36.4,2.4,49.1
	c-7.9,0.1-15.8,0.8-23.6,1.9c2.4-37.4,0.9-97.4-3-131.7c13.9-2.9,28.8-5.7,28.8-5.7c-1.9,15.1-3.6,40.6-4.3,66.4
	c5.8-5,13.5-7.1,21-5.9c21,3.3,26.7,32.4,16.6,77C267.6,191.1,258.7,189.7,249.8,188.9z"/>
<path class="st2" d="M317.9,192.9c-10.2,0.7-26.5-4.3-30.9-25.3c-5-24.1,6.8-52.9,28.4-53.1c15.6-0.2,29.1,15.1,30.5,39
	C347.2,174.3,337.5,191.5,317.9,192.9z M315.1,140.2c-7.5,0.7-12,12.8-10,23.8c1.4,9.2,6.2,13,10.9,12.5c6.9-0.7,10.6-9.7,9.9-18.9
	C325,146.6,320.3,139.8,315.1,140.2L315.1,140.2z"/>
<path class="st2" d="M382.4,192.9c-10.2,0.7-26.5-4.3-30.9-25.3c-5-24.1,6.8-52.9,28.4-53.1c15.6-0.2,29.1,15.1,30.5,39
	C411.7,174.3,402,191.5,382.4,192.9z M379.6,140.2c-7.5,0.7-12,12.8-10.1,23.8c1.4,9.2,6.2,13,10.9,12.5c6.9-0.7,10.6-9.7,9.9-18.9
	C389.5,146.6,384.8,139.8,379.6,140.2z"/>
<path class="st2" d="M415.1,193.6c6.6-38.8,4.2-101.8-1.6-133.3c0,0,15.4-1.4,27.4-4.9c-3,32.4-1,103.3,3.8,135.7
	C430.4,192.2,415.1,193.6,415.1,193.6z"/>
<path class="st0" d="M573.2,225.8c-3.2,0-6.3-0.9-9-2.6c-2-1.3-3.6-2.9-4.9-4.9c-14.5,0.8-27.4,2.8-27.5,2.8
	c-0.9,0.1-1.7,0.2-2.6,0.2c-9.2,0-16.6-7.5-16.6-16.6c0-0.9,0.1-1.8,0.2-2.7c4.7-29.1,4.3-80.3-3.8-110c-2.4-8.9,2.8-18,11.6-20.4
	c0,0,0.1,0,0.1,0c13.9-3.7,26.7-5.5,38.2-5.5c31.3,0,51.9,14.9,56.4,41c2.8,16.2-2.8,31.9-14.9,43.8c10.3,13.4,16.7,29.4,18.6,46.2
	c1,8.8-5,16.8-13.8,18.3c-11.5,1.9-24.5,8.5-24.6,8.6C578.4,225.2,575.8,225.8,573.2,225.8z"/>
<path class="st0" d="M644.9,218.6c-3.2,0-6.3-0.9-9-2.6c-2.6,0.5-5.3,0.7-8,0.7c-2.2,0-4.3-0.1-6.5-0.4
	c-10.9-1.4-20.6-7.7-26.3-17.2c-11.1-17.7-11.2-47-0.3-80.6c2.6-7.9,10.6-12.7,18.8-11.2c6.7,1.2,13.7,2.5,18.4,3.4
	c2.7-1.8,5.9-2.8,9.2-2.8h0.6c0.1,0,0.9,0,2.2,0c6.7,0,12.9-0.6,16.7-1.7c1.5-0.4,3-0.6,4.5-0.6c9.2,0,16.6,7.5,16.6,16.6
	c0,0.5,0,1.1-0.1,1.6c-2.5,25.1-2.1,52,1.1,73.6c1.3,9.1-5,17.5-14,18.9c-0.8,0.1-1.6,0.2-2.4,0.2h-0.6c-5.8,0-11.7,0.6-17.4,1.7
	C647.3,218.4,646.1,218.5,644.9,218.6z"/>
<path class="st0" d="M680.7,219.8c-9.2,0-16.6-7.4-16.6-16.6c0-0.9,0.1-1.9,0.2-2.8c6-35.2,4.1-96.4-1.5-127.6
	c-1.6-9,4.4-17.7,13.4-19.3c0.5-0.1,1-0.2,1.5-0.2c0.1,0,14-1.3,24.2-4.3c8.8-2.6,18,2.5,20.6,11.3c0.6,2,0.8,4.1,0.6,6.2
	c-2.9,31.8-1,100.7,3.7,131.8c1.3,9.1-4.9,17.5-14,18.9c-0.4,0.1-0.8,0.1-1.2,0.1c-14.1,1-29.2,2.4-29.3,2.4
	C681.7,219.7,681.2,219.8,680.7,219.8z"/>
<path class="st0" d="M739.9,218.1c-24,0-43.7-16.4-50.1-41.8c-4.9-19.5-1.3-40.3,9.4-54.2c8.3-11,21.3-17.5,35.1-17.6h0.9
	c16,0,29.1,6.3,37.9,18.3c6.2,8.5,10,19.3,11.3,32.4c2.8,3.1,4.4,7.1,4.3,11.3c-0.1,20.1-8.2,32-14.8,38.4
	c-8.3,7.8-19.1,12.4-30.5,13C742.3,218.1,741.1,218.1,739.9,218.1z"/>
<path class="st0" d="M815.2,219.1c-18.9-0.3-34.2-8.1-45.5-23.3c-4.2-5.7-4.4-13.4-0.4-19.3c2.5-3.7,5.3-7.2,8.2-10.6
	c-4.1-5.7-6.5-12.6-6.7-19.6c-0.5-9.8,2.8-19.3,9.3-26.6c5-5.5,14.2-12.3,29.9-13c0.9,0,1.7-0.1,2.6-0.1c22.6,0,39.9,13.7,47.4,37.7
	c1.5,4.8,0.8,10-2,14.1c-0.9,1.4-2,2.6-3.2,3.6c4.3,5.9,6.5,13.2,6.2,20.6c-0.6,21.5-19,36.5-44.8,36.5L815.2,219.1z"/>
<path class="st1" d="M564.2,213.6c-5.6,0-10.8-2.8-13.9-7.5c-14.5,0.8-27.4,2.8-27.5,2.8c-0.9,0.1-1.7,0.2-2.6,0.2
	c-9.2,0-16.6-7.4-16.6-16.6c0-0.9,0.1-1.8,0.2-2.7c4.7-29.1,4.3-80.3-3.8-110c-2.4-8.9,2.8-18,11.7-20.4c0,0,0.1,0,0.1,0
	c13.9-3.7,26.7-5.5,38.2-5.5c31.3,0,51.9,14.9,56.4,41c2.8,16.2-2.8,31.9-14.8,43.9c10.3,13.4,16.7,29.4,18.6,46.2
	c1,8.8-5,16.8-13.8,18.3c-11.5,1.9-24.5,8.6-24.6,8.6C569.4,213,566.8,213.6,564.2,213.6z"/>
<path class="st1" d="M636,206.4c-3.2,0-6.3-0.9-9-2.6c-2.6,0.5-5.3,0.7-8,0.7c-2.2,0-4.3-0.1-6.5-0.4c-10.9-1.4-20.6-7.8-26.3-17.2
	c-11.1-17.7-11.2-47-0.3-80.6c2.6-7.9,10.6-12.7,18.8-11.2c6.7,1.2,13.7,2.5,18.5,3.4c2.7-1.8,5.9-2.8,9.2-2.8h0.6
	c0.1,0,0.9,0,2.1,0c6.7,0,12.9-0.6,16.7-1.7c1.5-0.4,3-0.6,4.5-0.6c9.2,0,16.6,7.4,16.6,16.6c0,0.6,0,1.1-0.1,1.7
	c-2.5,25.1-2.1,52,1.1,73.6c1.3,9.1-4.9,17.5-14,18.9c-0.8,0.1-1.6,0.2-2.4,0.2h-0.6c-5.9,0-11.7,0.6-17.4,1.8
	C638.3,206.2,637.2,206.4,636,206.4z"/>
<path class="st1" d="M671.7,207.6c-9.2,0-16.6-7.4-16.6-16.6c0-0.9,0.1-1.9,0.2-2.8c6-35.2,4.1-96.4-1.5-127.6
	c-1.6-9,4.4-17.7,13.4-19.3c0.5-0.1,1-0.2,1.5-0.2c0.1,0,14-1.3,24.2-4.3c8.8-2.6,18,2.5,20.6,11.3c0.6,2,0.8,4.1,0.6,6.2
	c-2.9,31.8-1,100.7,3.7,131.8c1.3,9.1-4.9,17.5-14,18.9c-0.4,0.1-0.8,0.1-1.2,0.1c-14.1,1-29.2,2.4-29.3,2.4
	C672.7,207.6,672.2,207.6,671.7,207.6z"/>
<path class="st1" d="M730.9,205.9c-24,0-43.7-16.4-50.1-41.8c-4.9-19.5-1.3-40.3,9.4-54.2c8.3-11,21.3-17.5,35.1-17.6h0.9
	c16,0,29.1,6.3,37.9,18.3c6.2,8.4,10,19.3,11.3,32.4c2.8,3.1,4.4,7.1,4.3,11.3c-0.1,20.1-8.2,32-14.8,38.4
	c-8.3,7.8-19.1,12.4-30.5,13C733.3,205.9,732.1,205.9,730.9,205.9z"/>
<path class="st1" d="M806.2,206.9c-18.9-0.3-34.2-8.1-45.6-23.3c-4.2-5.7-4.4-13.4-0.4-19.3c2.5-3.7,5.3-7.2,8.2-10.6
	c-4.1-5.7-6.5-12.6-6.7-19.6c-0.5-9.8,2.8-19.3,9.3-26.6c5-5.5,14.2-12.3,29.9-13c0.9,0,1.7-0.1,2.6-0.1c22.6,0,39.9,13.7,47.4,37.7
	c1.5,4.8,0.8,10-2,14.1c-0.9,1.4-2,2.6-3.2,3.6c4.3,5.9,6.5,13.2,6.2,20.6c-0.6,21.5-19,36.5-44.8,36.5L806.2,206.9z"/>
<path d="M576.9,202.2c1-23.2-5.5-43.2-18-51.3c1.3,14.7,3.3,29.2,6.1,43.7c-10.7,0.5-21.4,1.5-32.1,3.1c5.2-32.1,4.5-85.3-4.2-117
	c26.2-6.9,68.1-11.8,74,22.2c2.4,13.9-5,30-24.6,39c13.7,9,25.7,27.6,28.3,50.1C592,194.4,576.9,202.2,576.9,202.2z M557.3,105.7
	c-0.2,6.6-0.2,14.9,0.2,24.3c10.2-1,18.9-6.9,20.3-14.4C579.4,105.9,569.3,102.7,557.3,105.7L557.3,105.7z"/>
<path d="M648.7,195c0.2-2.6,0.3-5.4,0.3-8c-6.1,4.9-14,6.9-21.7,5.7c-21.1-2.8-26.3-35.2-13-76.1c12.1,2.2,24.8,4.5,24.8,4.5
	c-8.5,24.3-8.5,49.9-0.2,51.3c3.6,0.7,7.1-0.7,10-4.5c-0.5-17.3-2.1-35.4-4-50.4c0,0,14,0.5,23.9-2.3c-2.6,26.2-2.3,54.3,1.2,77.7
	C662.9,192.9,655.7,193.6,648.7,195z"/>
<path d="M675.9,196.2c6.6-38.8,4.2-101.8-1.6-133.3c0,0,15.4-1.4,27.4-4.8c-2.9,32.4-1,103.3,3.8,135.7
	C691.2,194.8,675.9,196.2,675.9,196.2z"/>
<path d="M746.1,194.4c-14.4,1-30.9-7.1-36.4-29.1c-6.1-24.1,4.5-50.8,28.6-51.1c23-0.3,32.6,17.3,33.6,39.7c0,0-22.9,0.4-42.5,4
	c0.9,10.9,4.8,19.6,10.6,19.1c5.4-0.5,6.4-7.8,5.2-14.4c0,0,15.8-2.1,30.7-3.1C775.8,184.6,760,193.6,746.1,194.4z M738,131.9
	c-4.2,0.7-7.1,6.2-8.3,14c6.1-0.2,12.2-0.8,18.2-1.7C746.8,136.7,743.3,131.2,738,131.9z"/>
<path d="M810.6,195.5c-12.3-0.2-23.2-4.3-32.4-16.6c4.6-6.5,9.8-12.5,15.6-18c5.9,12,16.5,14.9,19.1,11.8c2.1-2.6,0.7-7.1-10.6-12
	c-10.2-4.3-19.2-10.8-19.8-22.2c-0.5-9.2,5.2-21.3,23.4-22.2c19.6-0.9,29.1,12.7,33.3,26c-7.8,0.9-15.3,3.1-22.4,6.6
	c-5.2-13.5-13.7-13-13-7.6c2.1,14.6,36.1,11.6,35.5,34C839,188.6,826.2,195.7,810.6,195.5z"/>
<path class="st3" d="M572.7,197c1-23.2-5.5-43.2-18-51.3c1.3,14.7,3.3,29.2,6.1,43.7c-10.7,0.5-21.4,1.5-32.1,3.1
	c5.2-32.1,4.5-85.3-4.2-117c26.2-6.9,68.1-11.8,74,22.2c2.4,13.9-5,30-24.6,39c13.7,9,25.7,27.6,28.3,50.1
	C587.8,189.2,572.7,197,572.7,197z M553.1,100.4c-0.2,6.6-0.2,14.9,0.2,24.3c10.2-1,18.9-6.9,20.3-14.4
	C575.2,100.7,565.1,97.5,553.1,100.4L553.1,100.4z"/>
<path class="st3" d="M644.5,189.8c0.2-2.6,0.3-5.4,0.3-8c-6.1,4.9-14,6.9-21.7,5.7c-21.2-2.8-26.3-35.2-13-76.1
	c12.1,2.3,24.8,4.5,24.8,4.5c-8.5,24.3-8.5,49.9-0.2,51.3c3.6,0.7,7.1-0.7,10.1-4.5c-0.5-17.3-2.1-35.4-4-50.4c0,0,14,0.5,23.9-2.2
	c-2.6,26.2-2.2,54.2,1.2,77.7C658.8,187.6,651.6,188.3,644.5,189.8z"/>
<path class="st3" d="M671.7,191c6.6-38.8,4.2-101.8-1.6-133.3c0,0,15.4-1.4,27.4-4.9c-3,32.4-1,103.3,3.8,135.7
	C687,189.6,671.7,191,671.7,191z"/>
<path class="st3" d="M741.9,189.2c-14.4,1-30.9-7.1-36.4-29.1c-6.1-24.1,4.5-50.8,28.6-51.1c23-0.3,32.6,17.3,33.6,39.7
	c0,0-22.9,0.4-42.5,4c0.9,10.9,4.9,19.6,10.6,19.1c5.4-0.5,6.4-7.8,5.2-14.4c0,0,15.8-2.1,30.7-3.1
	C771.6,179.4,755.8,188.4,741.9,189.2z M733.8,126.6c-4.2,0.7-7.1,6.2-8.3,14c6.1-0.2,12.2-0.8,18.2-1.7
	C742.6,131.5,739.1,126,733.8,126.6L733.8,126.6z"/>
<path class="st3" d="M806.4,190.3c-12.3-0.2-23.2-4.3-32.4-16.6c4.6-6.5,9.8-12.5,15.6-18c5.9,12,16.5,14.9,19.1,11.8
	c2.1-2.6,0.7-7.1-10.6-12c-10.2-4.3-19.2-10.7-19.8-22.2c-0.5-9.2,5.2-21.3,23.4-22.2c19.6-0.9,29.1,12.7,33.3,26
	c-7.8,0.9-15.3,3.1-22.4,6.6c-5.2-13.5-13.7-13-13-7.6c2.1,14.6,36,11.6,35.5,34C834.8,183.3,822,190.4,806.4,190.3z"/>
</svg>
