<?xml version="1.0" encoding="utf-8"?>
<!-- Generator: Adobe Illustrator 26.0.3, SVG Export Plug-In . SVG Version: 6.00 Build 0)  -->
<svg version="1.1" id="Layer_1" xmlns="http://www.w3.org/2000/svg" xmlns:xlink="http://www.w3.org/1999/xlink" x="0px" y="0px"
	 viewBox="0 0 624 147" style="enable-background:new 0 0 624 147;" xml:space="preserve">
<style type="text/css">
	.st0{fill:#252626;}
	.st1{fill:#F7F9F9;}
</style>
<path class="st0" d="M49,115.5V28.1h19.9v72.6h38.2v14.8L49,115.5z"/>
<path class="st0" d="M119.4,103.6h9.6V40h-9.9V28.1h38.8V40h-9.3v63.6h9.5v11.9h-38.8V103.6z"/>
<path class="st0" d="M241.3,91.6c0,7.9-3.3,13.8-10,17.9c-6.7,4-17.1,6.1-31.2,6.1c-1.4,0-3.2,0-5.4-0.1s-4.5-0.2-7-0.3
	s-4.9-0.3-7.4-0.6s-4.6-0.5-6.6-0.8V28.1h24.9c5.2,0,10.4,0.3,15.6,1.2c4,0.6,7.9,1.9,11.5,3.8c2.9,1.6,5.4,3.9,7.1,6.7
	c1.7,3,2.5,6.4,2.4,9.8c0.1,4-1,7.9-3,11.4c-2,3.3-5.7,5.9-11,7.6c6.5,1.5,11.5,4.1,14.8,7.9S241.2,85.4,241.3,91.6z M215.4,52.4
	c0.2-3.3-1.8-6.4-4.9-7.6c-3.2-1.4-7.7-2.1-13.4-1.9l-3.6,0.1v19.4l4.9,0.1c6,0.2,10.3-0.6,13-2.3C214.1,58.6,215.4,56,215.4,52.4z
	 M219.7,89.6c0-8.4-6.5-12.5-19.5-12.2c-0.8,0.1-1.7,0.1-2.5,0.1h-4.1V100c1.4,0.2,2.9,0.3,4.4,0.4s2.7,0.1,3.6,0.1
	c6.3,0,10.8-0.9,13.8-2.7C218.2,96.1,219.9,92.9,219.7,89.6z"/>
<path class="st0" d="M305.3,115.5l-27.9-35v35h-19.9V28.1h27c13.7,0,23.7,2.1,29.8,6.4s9.2,10.5,9.2,18.8c0,3.1-0.6,6.2-1.9,9.1
	c-1.3,2.7-3.1,5.1-5.4,7c-2.5,2.1-5.5,3.6-8.6,4.6c-3.7,1.1-7.5,1.7-11.4,1.7l32.9,39.8L305.3,115.5z M302.1,54.3
	c0.2-3.4-1.5-6.6-4.3-8.5c-2.9-1.9-7.5-2.9-13.9-2.9h-2.8c-1.2,0-2.5,0.1-3.7,0.2v21.7l3,0.2c0.9,0.1,1.6,0.2,2.4,0.2
	s1.3,0.1,1.7,0.1c5.4,0,9.7-1,12.8-2.9C300.3,60.7,302.1,57.6,302.1,54.3z"/>
<path class="st0" d="M400.4,115.5l-9.1-24h-29.5l-9.4,24h-19.4l34.8-87.4h19.8l33.9,87.4H400.4z M376.4,49.7l-9.7,27h19.8
	L376.4,49.7z"/>
<path class="st0" d="M480.9,115.5l-27.9-35v35h-20V28.1h27c13.7,0,23.7,2.1,29.8,6.4c6.2,4.3,9.2,10.5,9.2,18.8
	c0,3.1-0.6,6.2-1.9,9.1c-1.3,2.7-3.1,5.1-5.4,7c-2.5,2.1-5.5,3.6-8.6,4.6c-3.7,1.1-7.5,1.7-11.4,1.7l32.9,39.8L480.9,115.5z
	 M477.6,54.3c0.2-3.4-1.5-6.6-4.3-8.5c-2.9-1.9-7.5-2.9-13.9-2.9h-2.8c-1.2,0-2.5,0.1-3.7,0.2v21.7l3,0.2c0.9,0.1,1.6,0.2,2.4,0.2
	s1.3,0.1,1.6,0.1c5.4,0,9.7-1,12.8-2.9C475.9,60.7,477.7,57.6,477.6,54.3z"/>
<path class="st0" d="M552.1,74.7v40.8h-19.9V75.6l-29.3-47.5h21.2l18,32.9l18.4-32.9H582L552.1,74.7z"/>
<path class="st1" d="M43.2,115.3V27.9h19.9v72.6h38.2v14.8H43.2z"/>
<path class="st1" d="M113.6,103.4h9.6V39.8h-9.9V27.9h38.8v11.9h-9.3v63.6h9.5v11.9h-38.8V103.4z"/>
<path class="st1" d="M235.5,91.4c0,7.8-3.3,13.8-10,17.8c-6.7,4.1-17.1,6.1-31.2,6.1c-1.4,0-3.2,0-5.4-0.1s-4.5-0.2-6.9-0.3
	s-4.9-0.3-7.4-0.6s-4.6-0.5-6.6-0.8V27.9H193c5.2-0.1,10.4,0.3,15.6,1.2c4,0.6,7.9,1.9,11.4,3.8c2.9,1.6,5.4,3.9,7.1,6.7
	c1.7,3,2.5,6.4,2.4,9.8c0.1,4-1,7.9-3,11.4c-2,3.3-5.7,5.9-11,7.7c6.5,1.5,11.5,4.1,14.8,7.9S235.5,85.2,235.5,91.4z M209.7,52.1
	c0.2-3.3-1.8-6.4-4.9-7.5c-3.2-1.4-7.7-2.1-13.4-1.9l-3.6,0.1v19.4l4.9,0.1c6,0.2,10.3-0.6,13-2.3C208.3,58.4,209.6,55.7,209.7,52.1
	z M213.9,89.4c0-8.4-6.5-12.5-19.5-12.2c-0.8,0.1-1.7,0.1-2.5,0.1h-4.1v22.6c1.4,0.2,2.9,0.3,4.4,0.4s2.7,0.1,3.6,0.1
	c6.3,0,10.8-0.9,13.8-2.7C212.4,95.9,214.1,92.7,213.9,89.4z"/>
<path class="st1" d="M299.6,115.3l-27.9-35v35h-19.9V27.9h27c13.7,0,23.7,2.1,29.8,6.4c6.2,4.3,9.2,10.5,9.2,18.8
	c0,3.1-0.6,6.2-1.9,9c-1.3,2.7-3.1,5.1-5.4,7c-2.5,2.1-5.5,3.6-8.6,4.6c-3.7,1.1-7.5,1.7-11.4,1.8l32.9,39.8H299.6z M296.3,54.1
	c0.2-3.4-1.5-6.7-4.3-8.5c-2.9-1.9-7.5-2.9-13.9-2.9h-2.8c-1.2,0-2.5,0.1-3.7,0.2v21.7c1.1,0.1,2.1,0.2,3,0.2s1.6,0.1,2.4,0.2
	s1.3,0.1,1.6,0.1c5.4,0,9.7-1,12.8-3C294.5,60.5,296.3,57.4,296.3,54.1z"/>
<path class="st1" d="M394.6,115.3l-9.1-24h-29.5l-9.4,24h-19.4l34.8-87.4h19.8l33.9,87.4H394.6z M370.6,49.4l-9.6,27h19.7
	L370.6,49.4z"/>
<path class="st1" d="M475.1,115.3l-27.9-35v35h-19.9V27.9h27.1c13.7,0,23.7,2.1,29.8,6.4c6.2,4.3,9.2,10.5,9.2,18.8
	c0,3.1-0.6,6.2-1.9,9c-1.3,2.7-3.1,5.1-5.4,7c-2.5,2.1-5.5,3.6-8.6,4.6c-3.7,1.1-7.5,1.7-11.4,1.8l32.9,39.8H475.1z M471.9,54.1
	c0.2-3.4-1.5-6.7-4.3-8.5c-2.9-1.9-7.5-2.9-13.9-2.9h-2.8c-1.2,0-2.5,0.1-3.7,0.2v21.7l3.1,0.2c0.8,0.1,1.6,0.1,2.4,0.2
	s1.3,0.1,1.6,0.1c5.4,0,9.7-1,12.9-3C470.1,60.5,471.9,57.4,471.9,54.1z"/>
<path class="st1" d="M546.4,74.5v40.8h-19.9V75.4l-29.3-47.5h21.2l18,32.9l18.4-32.9h21.5L546.4,74.5z"/>
</svg>
