<?xml version="1.0" encoding="utf-8"?>
<!-- Generator: Adobe Illustrator 25.0.0, SVG Export Plug-In . SVG Version: 6.00 Build 0)  -->
<svg version="1.1" id="Layer_1" xmlns="http://www.w3.org/2000/svg" xmlns:xlink="http://www.w3.org/1999/xlink" x="0px" y="0px"
	 viewBox="0 0 1192 877" style="enable-background:new 0 0 1192 877;" xml:space="preserve">
<style type="text/css">
	.st0{fill:#753B0C;}
	.st1{fill:#AA6826;}
	.st2{fill:#D1893B;}
	.st3{fill:#F9B462;}
	.st4{opacity:0.21;fill:#FFF5DB;enable-background:new    ;}
	.st5{fill:#7A5432;}
	.st6{fill:#A76F43;}
	.st7{fill:#342517;}
	.st8{fill:#DF71E2;stroke:#453323;stroke-width:0.5;stroke-miterlimit:10;}
	.st9{fill:#E16FAA;stroke:#323232;stroke-width:0.5;stroke-miterlimit:10;}
	.st10{fill:#2D1708;}
	.st11{fill:#F8E1DB;}
	.st12{fill:#61435B;}
	.st13{fill:#FBD3C7;stroke:#453323;stroke-width:0.5;stroke-miterlimit:10;}
	.st14{fill:#DD9F8F;}
	.st15{fill:#342516;}
	.st16{fill:#F9DAD2;stroke:#4C2606;stroke-width:0.5;stroke-miterlimit:10;}
	.st17{fill:#B26B51;}
	.st18{fill:#F9DAD2;stroke:#4C2606;stroke-width:0.75;stroke-miterlimit:10;}
	.st19{opacity:0.5;fill:#EAA698;enable-background:new    ;}
	.st20{fill:#8C3D35;}
	.st21{fill:#EF4B3B;}
	.st22{fill:#E7D760;stroke:#BAA73B;stroke-width:0.5;stroke-miterlimit:10;}
	.st23{fill:#EF8E89;}
	.st24{fill:#F9988F;}
	.st25{fill:#FFFFFF;}
	.st26{fill:#DBDBDB;}
	.st27{fill:#9DD4F9;}
	.st28{fill:#8D60EF;}
	.st29{fill:#324156;}
	.st30{fill:#7252CC;}
	.st31{fill:#311415;stroke:#211E1F;stroke-width:0.5;stroke-miterlimit:10;}
	.st32{fill:#DF71E2;stroke:#710E7C;stroke-width:0.75;stroke-linejoin:round;}
	.st33{fill:#E8C0B8;}
	.st34{fill:#282828;}
	.st35{fill:#232323;}
	.st36{fill:#FBD3C7;stroke:#453323;stroke-width:0.75;stroke-miterlimit:10;}
	.st37{fill:#302F2F;}
	.st38{fill:#D81220;}
	.st39{fill:#61435B;stroke:#453323;stroke-width:0.25;stroke-miterlimit:10;}
	.st40{fill:#077477;stroke:#0C7777;stroke-width:0.5;stroke-miterlimit:10;}
	.st41{opacity:0.63;fill:#DB9D8E;enable-background:new    ;}
	.st42{fill:none;}
	.st43{fill:#0C7777;}
	.st44{opacity:0.22;fill:#0A2C2D;enable-background:new    ;}
	.st45{fill:#FF603B;}
	.st46{fill:#C44931;}
</style>
<g id="table">
	<path class="st0" d="M81.1,822.3c0,0,526.6-2.2,1013.9,10.3l-13.2-321.3l-918.8,41L81.1,822.3z"/>
	<path class="st1" d="M88.6,479.4l-1.1,324.2h92.7c0,0,43.8-175.4,170.3-164.3s147.9,180.4,147.9,180.4l303.8-16.1
		c0,0,86-358.6,235.2-9.3l50.1-1.9V480.6C1087.4,480.6,99.5,363.2,88.6,479.4z"/>
	<path class="st2" d="M1079.9,446.7c-67.7-26-261-44.7-488.9-44.7s-421.2,18.8-488.9,44.7H76.3v20.4c0,36,230.4,65.2,514.7,65.2
		s514.7-29.2,514.7-65.2v-20.4L1079.9,446.7L1079.9,446.7z"/>
	<path class="st3" d="M1105.8,446.7c0,36-230.4,65.2-514.7,65.2c-10.2,0-20.2,0-30.2-0.1c-78.5-0.6-152.3-3.4-217.5-7.9l0,0
		c-15-1-29.6-2.2-43.6-3.4c-20.7-1.8-40.4-3.8-58.8-6c-101.3-11.9-164.6-28.9-164.6-47.7c0-36,230.4-65.2,514.7-65.2
		c20.4,0,40.6,0.1,60.4,0.4c21.4,0.3,42.4,0.8,63,1.5c15.3,0.5,30.3,1,45,1.7l0,0c62.1,2.7,118.8,6.9,167.5,12.2
		C1036.5,409.2,1105.8,426.9,1105.8,446.7z"/>
	<path class="st4" d="M927,397.3L560.8,511.7c-78.5-0.6-152.3-3.4-217.5-7.9c138.7-39.6,277.5-79.1,416.2-118.7l0,0
		C821.6,387.8,878.3,392,927,397.3z"/>
	<path class="st4" d="M714.5,383.4l-414.8,117c-20.7-1.8-40.4-3.8-58.8-6l410.5-112.5C672.9,382.3,693.9,382.7,714.5,383.4z"/>
</g>
<rect x="810.4" y="282.5" class="st5" width="124.9" height="106.5"/>
<path class="st6" d="M811.4,390.8V278.9h-8.1c-6.7,0-12.1,5.5-12.1,12.1l0,0v99.7L811.4,390.8L811.4,390.8z"/>
<path class="st6" d="M934.1,390.8V278.9h8.1c6.7,0,12.1,5.5,12.1,12.1l0,0v99.7L934.1,390.8L934.1,390.8z"/>
<path class="st7" d="M942.2,110.3c0,0,19.9,58.7,14.6,92.5s14.8,38.6-6.9,57.4s-46.5,10.4-85,13.5c0,0-12,3.5-40.5-1.4
	s-49.9-18.8-41.6-46.6s4.9-64.9,6.4-86.8s28.4-47.3,84.1-31.1S942.2,110.3,942.2,110.3z"/>
<path class="st8" d="M968.6,352.3c0,0-9.3,11.9-40.2,14.8c0,0,3.2,24.4-4.2,49c0,0-11.2,8.3-54.4,7c-52-1.5-42.9-8-42.9-8
	s-9-29.1-12.2-49.1c0,0-27.8-6.5-37.6-24.9c0,0,10.9-15.9,19.7-29c5-7.4,11.8-13.4,19.8-17.4c11.8-6,30.2-14.3,48.8-18.4
	c3.2-0.7,6.5-0.5,9.5,0.6l19.4,6.2c0,0,36.6,6,45,16.6S968.6,352.3,968.6,352.3z"/>
<path class="st9" d="M812.6,366.1c0,0-3.2-12.3-2-34.5"/>
<path class="st10" d="M850.6,389.5c0.3,1,0.5,2,0.8,3l0,0c8.6,30.9,23.1,46.5,23.1,46.5c4.4-6.2,8.3-12.7,11.8-19.4
	c1.7-3.3,3-6.2,4-8.7c3-7.3,3.3-11.1,3.3-11.1c-0.1-3.8-0.3-7.5-0.5-11.1c-0.2-3.3-0.4-6.5-0.7-9.6c-0.8-8.8-1.9-16.6-3.1-23.5
	c-0.6-3.5-1.2-6.7-1.9-9.7c-4.2-19.2-8.9-28.6-8.7-30c0.6-3.9-13.1-2.7-13.1-2.7c-0.3,6.6-1.1,13.2-2.3,19.7
	c-0.4,2.2-0.8,4.5-1.2,6.7c-1.2,6.5-2.6,13.2-4.1,19.4c-0.5,2.2-1,4.3-1.5,6.4c-1.8,7.6-3.5,14.1-4.7,18.5
	C851.2,387.5,850.6,389.5,850.6,389.5z"/>
<path class="st10" d="M882.2,300.1c-1.5-0.7-6.9-5.6-18.1-1.2s2.5,19.7,2.5,19.7l12.2,0.2C878.8,318.8,895.2,306.3,882.2,300.1z"/>
<path class="st11" d="M862.3,339.7c12.6,4.7,21.1,11.5,26.3,15.8c-0.6-3.5-1.3-7.1-2-10c-7.1-5.2-14.9-9.4-23.1-12.5
	C863.2,335.2,862.8,337.5,862.3,339.7z"/>
<path class="st11" d="M857.5,366.1c9.8,4.9,25.9,13.9,34.9,22.6c-0.2-3.3-0.5-7.1-0.8-10.2c-9.9-7.9-20.9-14.3-32.7-19
	C858.5,361.6,857.9,364,857.5,366.1z"/>
<path class="st11" d="M851.4,389.5c0.3,1,0.5,2.3,0.8,3.3l0,0c9.6,5.5,24.5,14.9,33.6,26.1c1.7-3.3,2.9-6.1,3.9-8.6
	c-5.5-5-17.1-15-37-26.1C851.9,387.7,851.4,389.5,851.4,389.5z"/>
<path class="st12" d="M905.8,285.6c0,0-0.8,25.1,2,40.9c2.1,12-13.8,9.3-32.5,10.8c-18.2,1.5-36.2,1.9-36.9-7.2
	c-1.2-15-3.5-43.4-3.5-43.4c-9.1,4-18.7,6.6-23.4,10.9c0,0-8.8,36.1,6.7,96c0,0,7.3-1.4,57.9-0.7s54.4-3.9,54.4-3.9
	c-1.7-62.2,1.9-95.6-2.9-97.1"/>
<path class="st8" d="M889.6,270.1c1.1,1.6,10.5,8.9,13.5,20.4c1.7,6.4-18.4,34-18.4,34l-14.3-32.2c0,0,10.3-0.7,17.8-7.7
	C892.2,280.6,888.4,274.4,889.6,270.1L889.6,270.1z"/>
<path class="st13" d="M853.5,281.4c3.8,6.7,14,10.8,19.2,10.8s14.9-4.7,16.9-12.3c-0.3-0.9-0.5-1.7-0.6-2.6
	c-0.3-2.5-0.5-4.9-0.6-7.4c-0.2-6.5,0-14.8,0.4-21.5c-3.8-3.3-9.8-5.7-16.3-5.9c-1.2,0-2.3,0-3.5,0.2c-5.3,0.6-10.2,2.9-13.9,6.7
	c0.1,7.1,0.1,13.8-0.1,19.2c-0.1,2.9-0.3,5.4-0.5,7.5C854.4,277.9,854,279.7,853.5,281.4z"/>
<path class="st14" d="M855,268.6c0.2-5.5,0.2-12.1,0.1-19.2c3.6-3.8,8.4-6.1,13.6-6.7c1.1-0.1,2.3-0.2,3.4-0.2
	c5.8,0,11.5,2.1,15.9,5.9c-0.4,6.7-0.1,15.1,0.1,21.6c0,2.4,0.2,4.7,0.5,7.1c-9.7,4.2-21.8,5.5-33.5-0.7
	C855.2,274.3,854.9,271.5,855,268.6z"/>
<path class="st15" d="M785.1,163.2c-0.7,50.4,37.5,83,85.7,83.6s87.6-39.7,88.3-90.1s-24-93.5-87.4-94.3
	C805.1,61.5,785.7,112.8,785.1,163.2z"/>
<path class="st16" d="M937.9,205.4c3.5-4.8,8.1-9.3,13.4-8.4s7.9,6.1,6.7,15s-3.1,13.5-9.7,18.7s-10.1,7.9-17,3
	C930.3,223.9,936.2,208.6,937.9,205.4z"/>
<path class="st17" d="M933.2,230.8c0.9,0.2,1.8,0.2,2.6-0.2c0.9-0.3,1.7-0.7,2.5-1.1c1.6-0.9,2.9-2.4,3.7-4.1
	c0.7-1.8,0.9-3.7,0.4-5.6c-0.3-1-0.8-2-1.4-2.9c0.4-0.6,0.8-1.2,1.2-1.8c1.1-1.6,2.3-3.1,3.5-4.5s2.5-3,4.2-3.6
	c0.8-0.3,1.7-0.3,2.5,0.1c0.9,0.4,1.5,1.2,1.5,2.1c0.1-1-0.4-2-1.3-2.5c-0.9-0.6-2-0.7-3-0.4c-2,0.6-3.3,2.2-4.6,3.6
	c-1.3,1.5-2.4,3.1-3.4,4.8c-0.3,0.6-0.7,1.2-1,1.8c-0.1,0.1-0.1,0.2-0.2,0.3c0.1,0.2,0.2,0.3,0.3,0.5c0.5,0.8,0.8,1.7,1,2.7
	c0.3,1.7,0.2,3.5-0.5,5.1s-1.8,3-3.2,3.9c-0.7,0.5-1.5,0.9-2.2,1.3C934.9,230.6,934.1,230.8,933.2,230.8z M947.2,225.4
	c-1.6,1.1-3.2,2.1-4.9,3.1c1.9-0.6,3.6-1.5,5.3-2.5c1.7-1.1,3.2-2.6,4.2-4.3c0.9-1.9,1.2-4,0.9-6c-0.2-2-0.7-3.9-1.4-5.8
	c0.4,1.9,0.6,3.9,0.8,5.9c0.1,1.9-0.2,3.8-1.1,5.5C950,222.9,948.7,224.3,947.2,225.4z"/>
<path class="st16" d="M805.8,203.9c-3.4-4.9-7.9-9.7-13.4-8.8s-8.1,6-7.2,15.1s2.8,13.7,9.4,19.2s10,8.2,17.1,3.5
	C813.1,222.9,807.5,207.2,805.8,203.9z"/>
<path class="st17" d="M807.4,229.1c-0.8-0.4-1.5-0.9-2.2-1.4c-3.8-2.7-4.9-7.9-2.5-11.9c0.1-0.2,0.2-0.3,0.3-0.5
	c0-0.1-0.1-0.2-0.2-0.3c-0.3-0.6-0.6-1.2-0.9-1.8c-1-1.7-2.1-3.4-3.3-4.9c-1.3-1.5-2.6-3.2-4.6-3.8c-1-0.3-2.1-0.2-3,0.3
	s-1.5,1.5-1.4,2.5c0.1-1,0.7-1.8,1.6-2.1c0.8-0.4,1.8-0.4,2.6,0c1.7,0.7,2.9,2.3,4.1,3.8c1.2,1.5,2.4,3.1,3.5,4.7
	c0.4,0.6,0.8,1.2,1.2,1.9c-0.7,0.8-1.2,1.8-1.5,2.8c-0.5,1.9-0.5,3.9,0.2,5.7s2,3.3,3.6,4.3c0.8,0.5,1.6,0.9,2.5,1.2
	c0.8,0.4,1.8,0.5,2.7,0.3C809.1,229.8,808.2,229.6,807.4,229.1z M792.2,219.6c-0.8-1.8-1.1-3.7-0.9-5.6c0.2-2,0.5-4,0.9-5.9
	c-0.8,1.9-1.3,3.8-1.6,5.9c-0.3,2.1,0,4.2,0.8,6.1c0.9,1.8,2.4,3.4,4.1,4.5c1.7,1.1,3.4,2,5.3,2.6c-1.7-1-3.3-2.1-4.9-3.2
	C794.3,222.8,793.1,221.4,792.2,219.6L792.2,219.6z"/>
<path class="st18" d="M802.1,177.1c0.1,0.6-6.2,1.2-6.2,1.9c2.2,21.6,5.8,42.2,8.5,52.9c1,4,2.5,7.8,4.6,11.4
	c3.3,5.4,7.7,10.1,12.9,13.8c7.3,5.1,15,9.5,23,13.2c3.8,1.8,7.7,3.4,11.7,4.8c4.1,1.5,8.4,2.5,12.8,2.7c4.9-0.1,9.8-1,14.5-2.6
	c11.2-3.4,23.1-9.5,29.5-12.9c9.4-4.9,20.9-15.5,23.7-26.9s7.4-30.6,10.7-53.4c1-7.2-5-10.1-10.5-31.7c-7.4-28.9-17.9-40.4-62-41
	C798.5,108.3,800,154.8,802.1,177.1z"/>
<path class="st19" d="M942.8,210.7c0,0-6.6-48.7-22.1-62.1S903,126.8,903,126.8s-4.5,24.5-31.6,34.7l1.4-14.8
	c-3.7,6.4-9.4,11.5-16.2,14.6l2.8-18.6c-14,5.4-27.6,11.9-40.5,19.5c-19.7,11.8-19.4,51.5-19.4,51.5l8.9-82.3l67.1-27.6l42.5-1.2
	l28.2,41.2l-4.9,31.7L942.8,210.7z"/>
<path class="st20" d="M881.5,217.7c-3.6,6.8-13.2,8.5-17.5,1.5C868.8,225.6,877.3,223.8,881.5,217.7z"/>
<path class="st15" d="M790.8,189c1.8,4.7,4,9.3,6.6,13.7c0.4,0.8,3.7,5.2,3.6,6.1c0,0-5.1-38.1,21.6-51.7
	c10.4-5.3,21.2-9.5,31.7-14.4s21-9.9,31.1-15.9c5.3-3.1,11.1-6.4,15.8-10.9c17.1,30.8,39.3,31.8,40.6,83c0.1,2.7,0.3,5.4,0.4,8.2
	l0.5,3.6c0,0,4.4-3.9,12.3-28c8.6-25.3-11-44.1-22.8-65.6c-18.8-34.1-40.8-30.3-49-31.3c-14.4-1.7-14.6,9-28.8,11.8
	c-31.2,6.3-42.8,0.7-49.9,36.6C800.2,155.7,783.2,169.3,790.8,189z"/>
<path class="st15" d="M875.2,125c3.1,9.9,3,20.5-0.4,30.2c25.1-17.4,27.3-44.9,27.3-44.9"/>
<path class="st15" d="M882.7,121.9c0,0-0.6,11-23.5,33.9c0,0,8.6-15.2,4-31"/>
<path class="st21" d="M949.1,199.9c3.2-20.5,2.3-41.5-2.8-61.6c-7.3-27.8-27.5-47.9-55.5-54.8c-26.5-6.3-56.7,1.1-75.7,20.9
	c-4.8,4.9-8.1,10.9-10.9,17.2c-5.6,12.6-8.3,26.2-9.3,39.9c-1.1,13.8-0.2,27.7,2.6,41.2c-1.8-6.7-3.1-13.6-3.7-20.5
	c-2.3-20.8,0.1-42.3,8.6-61.5c2.8-6.4,6.3-12.7,11.3-17.7c19.5-20.3,50.5-28,77.7-21.5C946.1,95.5,959.4,150,949.1,199.9z"/>
<path class="st22" d="M940.1,230.5c0,0-5.9,12.2,1.1,14.4s5-11.6,5-11.6s-2,11.5-4.1,4.4L940.1,230.5z"/>
<path class="st22" d="M801.7,229.4c0,0,5.6,12.3-1.5,14.3s-4.7-11.7-4.7-11.7s1.7,11.6,4,4.5L801.7,229.4z"/>
<path class="st23" d="M851.7,236.4c3.1,1.2,6.2,2.2,9.3,3.1c1.6,0.4,3.1,0.8,4.7,1.1c1.6,0.3,3.2,0.6,4.8,0.7
	c3.2,0.3,6.4,0.1,9.5-0.6c1.6-0.4,3.1-1,4.5-1.7c1.5-0.7,2.9-1.6,4.2-2.6c-1,1.4-2.1,2.6-3.5,3.6s-3,1.9-4.6,2.5
	c-3.4,1.2-7,1.6-10.5,1.2c-3.4-0.3-6.8-1.2-10-2.5C857.2,240.1,854.3,238.5,851.7,236.4z"/>
<path class="st24" d="M886.7,232.8c3.7,0.5,5.3,3.5,2.7,6.5c-0.9,1-1,1-0.2-0.1C891.3,236.1,889.8,234,886.7,232.8z"/>
<path class="st24" d="M852.3,232.2c-1.9,2.6-2.3,5.2,0.7,7.2c-0.3-0.1-0.7-0.3-1-0.5C849.3,237.3,850.1,233.9,852.3,232.2
	L852.3,232.2z"/>
<path class="st24" d="M865.7,245.4c2.8,5,7.5,5.2,10.7,0.5c-0.5,1.1-1.3,2-2.1,2.8C871,251.2,866.9,249,865.7,245.4z"/>
<path class="st8" d="M871.9,294.1c1.1,0.4-15.3,30.1-15.3,30.1c-5.4-9.6-9.7-19.9-12.8-30.5c-0.8-2.7-0.2-5.5,1.5-7.7l8.6-10.8
	c0.1-0.2,0.3-0.2,0.5-0.1c0.1,0.1,0.2,0.2,0.1,0.3C854.4,278.6,855.4,287.7,871.9,294.1z"/>
<path class="st25" d="M794.2,424.2c-9.3-14.8-4.4-28.2-14.6-42.5c-2.6-3.6-6.3-33.5-9.3-50.4c22.7-5.3,72.1-2.9,98,37.9
	c0,0.4-12.8,53-14,58.5c-8.7-4.2-18.2-6.7-27.8-7.5C815.6,419.4,804.5,420.7,794.2,424.2z"/>
<path class="st26" d="M854.4,428.1l-0.1-0.1c-18.8-9-40.4-10.2-60.1-3.6c-4.5-7.2-5.8-14.1-7-20.8c-1.3-7.4-2.5-14.4-7.8-21.7
	c-1.8-2.5-4.2-17.6-6.4-32.2c-1-6.7-3-18.4-3-18.4h0.2c10.9-2.5,29.1-3.5,47.8,1.7c21.6,5.9,39,18.5,50.3,36.3c0,0.2-0.8,3.8-5.2,22
	C859.6,406.2,854.4,428.1,854.4,428.1z M819.3,419.9c2.4,0,4.8,0.1,7.3,0.3c9.6,0.8,19,3.3,27.7,7.5c0.8-3.6,13.7-57.2,13.9-58.2
	c-24.7-38.7-71.9-43.8-97.7-37.8c0.9,5.2,1.9,11.4,2.9,18c2.2,14.5,4.5,29.6,6.3,32c5.3,7.4,6.6,14.8,7.8,21.9
	c1.2,6.6,2.3,13.5,6.7,20.5C802.3,421.2,810.7,419.8,819.3,419.9z"/>
<path class="st25" d="M780.1,394.8c-0.5-1-12.9-44.3-14.8-52.4c22.1-11.3,73.3-9.6,103,27c0,0.4-12.8,53-14,58.5
	C846.1,423.9,791.5,401.4,780.1,394.8z"/>
<path class="st26" d="M854.4,428.1l-0.1-0.1c-2.8-1.4-10.9-4.8-21.1-9.2c-19.2-8.3-45.7-19.6-53.2-23.9
	c-0.4-0.9-12.9-43.9-14.8-52.5v-0.2l0.1-0.1c12-6.1,30.6-7.8,48.7-4.5c15.5,2.9,37.5,10.7,54.4,31.5c0,0.2-0.8,3.8-5.2,22
	C859.6,406.2,854.4,428.1,854.4,428.1z M780.2,394.6c7.6,4.4,33.9,15.6,53.2,23.9c10,4.3,18,7.7,20.9,9.1
	c0.8-3.6,13.7-57.1,13.9-58.2c-16.8-20.6-38.8-28.4-54.2-31.3c-18-3.3-36.5-1.7-48.4,4.4C767.5,351.4,779.5,392.8,780.2,394.6z"/>
<path class="st27" d="M763.1,356.4c0.8-0.9,1-1.1,2-2c37.1-9.4,69.3-0.7,90.1,14.9c0.8,6,4.2,68.2,2.9,76
	C828.5,436.5,789.5,350.7,763.1,356.4z"/>
<path class="st28" d="M785.4,440.3c-5.9-23.9-16.2-58-22.4-83.9c31.2-9.8,65.2-4.4,91.8,14.6c0.8,5.8,5.6,66.8,4.2,74.3
	C829.5,436.9,811.9,434.7,785.4,440.3z"/>
<path class="st25" d="M951.9,424c2.7-10.8,2-86,4.4-102.9c-20.5-4.8-78.6,7.9-88.1,48.7c0,0.4,16.8,52.5,18.1,58
	C894.5,423.7,942.1,420.7,951.9,424z"/>
<path class="st26" d="M886.3,428v-0.2c-0.8-3.5-8.3-27-13.2-42.4c-4.2-13.3-4.9-15.5-4.9-15.6c2.4-9.8,7.6-18.7,14.9-25.6
	c7.3-6.8,15.8-12.3,25.1-16c18.6-7.8,38.3-9.6,48.2-7.3h0.1v0.2c-1.2,8.1-1.6,30-2.1,51.2c-0.5,23.7-1,46.1-2.3,51.7v0.2H952
	c-9.4-3.2-57.1-0.4-65.5,3.7L886.3,428z M868.4,369.8c0.1,0.4,17,53.6,18,57.7c4.5-2.1,19.2-3.8,32-4.6c12-0.7,27.8-0.9,33.3,0.9
	c1.3-5.9,1.8-29,2.3-51.5c0.4-21,0.9-42.8,2-51.1c-9.9-2.2-29.5-0.5-47.9,7.3C886.7,337.6,872.5,352.2,868.4,369.8z"/>
<path class="st25" d="M951.9,424c2.7-10.8,10.7-76.9,13.2-93.8c-22.9-5.1-75.6-0.6-96.8,39.6c0,0.4,16.8,52.5,18.1,58
	C894.5,423.7,942.1,420.7,951.9,424z"/>
<path class="st26" d="M886.3,428v-0.2c-0.8-3.5-8.3-27-13.2-42.4c-4.2-13.3-4.9-15.5-4.9-15.6c11.8-22.3,32.6-32.5,47.9-37
	c19.6-5.8,38.7-5.1,49.1-2.8h0.2c0,0-2.1,15.2-3.6,26.7c-3.3,25.3-7.8,59.9-9.7,67.4v0.2H952c-9.4-3.2-57.1-0.4-65.5,3.7L886.3,428z
	 M868.4,369.8c0.2,0.6,17,53.6,18,57.7c4.5-2.1,19.2-3.8,32-4.6c12-0.7,27.8-0.9,33.3,0.9c1.9-7.8,6.3-42.1,9.6-67.2
	c1.5-11.3,2.7-21,3.5-26.3C943.7,325.6,890.1,329,868.4,369.8z"/>
<path class="st25" d="M966.7,392.3c0.4-1,3.5-43.3,4.3-51.1c-21.1-9.3-75.1-5.9-103.1,29.1c0,0.4,17.2,51.9,18.5,57.5
	C894.5,423.7,955.4,399,966.7,392.3z"/>
<path class="st26" d="M886.3,428v-0.2c-0.9-3.6-8.6-27.2-13.7-42.8c-4.1-12.6-4.8-14.5-4.8-14.7c12.3-15.4,31.6-26.6,54.2-31.3
	c18.3-3.8,37.5-3,49,2c0,0-1,13.4-1.8,23.8c-1.3,16.8-2.1,27-2.4,27.6c-7.2,4.3-35.3,16.2-55.8,24.9c-11.6,4.9-21.7,9.2-24.6,10.6
	L886.3,428z M868,370.4c0.2,0.7,17.3,52.9,18.4,57.1c3.1-1.5,12.6-5.5,24.5-10.6c20.4-8.6,48.4-20.5,55.6-24.8
	c0.3-1.1,1.3-15.1,2.3-27.4c0.8-10.2,1.6-19.9,1.9-23.4c-11.4-5-30.6-5.8-48.8-2C899.5,344,880.3,355,868,370.4z"/>
<path class="st29" d="M884,371c0,1.2-6.1,3.6-14.3,3.6s-15-2.4-14.8-3.5c0.1-0.8,6.5-2.9,14.8-2.9S884,370.3,884,371z"/>
<path class="st27" d="M855.2,378.7c-0.1-3.7-0.3-7.2-0.3-9.7c10.9,2.7,19.2,2.9,29.2,0.2c0.2,1.6-0.7,8.7-0.5,10.7
	C876.4,383,861.1,384.1,855.2,378.7z"/>
<path class="st30" d="M859.1,445.4c-0.9-20.3-3.2-49.7-4.2-74.3c10.8,2,19.2,2.6,29.1-0.1c0.8,5.3,3.6,66.8,4.5,74.5
	C881.4,448.5,865,450.6,859.1,445.4z"/>
<path class="st27" d="M975.8,352.8c-0.2-0.6-0.4-1.3-0.6-1.9c-30-6.4-70.9,2.5-91.1,18.2c-0.5,5.5,1.4,11.4,2.2,19.3
	C921.5,381,965.8,352.5,975.8,352.8z"/>
<path class="st28" d="M960.9,443.4c4.5-26.5,10.6-64.6,14.8-90.6c-29.9-6.2-71.5,2.9-91.8,18.1c0.3,5.3-1.6,68.5-0.8,76.2
	C918.5,439.9,951.1,440.1,960.9,443.4z"/>
<path class="st13" d="M783.4,410.1c0,0,5.9,3.4,3.3,8.3c-2,3.9-16-1.6-20.4-6.1c-2.4-2.4-6.4-7.7-4.5-12.6c0,0-3.5-6.5,0.2-9.9
	c0,0-4.8-9.2,4.8-13.4l1.3-0.3L783.4,410.1z"/>
<path class="st13" d="M765.1,406c0,0,5,6.9,17.6,5.1s7.5-9,7.5-9l-20.4-4"/>
<path class="st13" d="M770.4,390c0,0,26.1-0.4,25,8c-0.9,6.2-20.9,6.7-28.3,2.5"/>
<path class="st13" d="M767.3,391c5.1,2.3,10.7,3.3,16.3,2.9c9-0.7,10.5-5.3,6.6-7.8s-22.3-4.2-22.3-4.2"/>
<path class="st13" d="M963.9,408.7c-1.2,2.6-2.5,5.1-4,7.6c-1.7,2.6,1,5.8,5.6,3.2s8.8-9.3,6.1-13.6S963.9,408.7,963.9,408.7z"/>
<path class="st13" d="M974.8,398c0,0,3,4-3.2,9.4s-26.2,2.9-16-5.8S974.8,398,974.8,398z"/>
<path class="st13" d="M976.1,388.3c0,0,2.8,6.3-2.2,10.6s-16.3,5.1-21.7,1.9s-0.7-8.3,3.4-8.5S976.1,388.3,976.1,388.3z"/>
<path class="st13" d="M970.4,384.1c0,0-14-1.5-16.1,4.4s15.2,8.1,21,1s-3.1-14.1-3.1-14.1L970.4,384.1z"/>
<rect x="235.2" y="254.3" class="st5" width="136.9" height="116.8"/>
<path class="st6" d="M236.4,372.9V250.3h-8.9c-7.3,0-13.3,6-13.2,13.3v109.3L236.4,372.9L236.4,372.9z"/>
<path class="st6" d="M370.8,372.9V250.3h8.9c7.3,0,13.3,6,13.2,13.3l0,0v109.3L370.8,372.9L370.8,372.9z"/>
<path class="st31" d="M236.9,120.1c0,0-8.1,51.4,2,82.7c8.6,26.9-19.1,34.8-5.4,58.2c14.6,25.2,69.3,28,87.7,10.5
	c0,0,10.9,11.5,40.3,7.2s58.7-22,44.7-52.2c-18.5-39.6,7.3-68.7-9.4-85.6c-14.6-14.7-24.8-43.6-82.2-28.8S236.9,120.1,236.9,120.1z"
	/>
<path class="st32" d="M396,325.5c0,0-7.3,9.8-32.2,12.5c0,0,2.8,19.9-2.8,40c0,0-8.9,6.9-43.7,6.3c-41.8-0.7-39.2-6.4-39.2-6.4
	s-5-23.5-7.8-39.7c0,0-20.4-4.7-28.4-19.6c0,0,8.6-13.1,15.5-23.8c3.9-6.1,9.3-11,15.6-14.4c9.4-5,24.1-12,39-15.6
	c2.5-0.6,5.2-0.5,7.7,0.4l15.8,4.9c0,0,29.5,4.5,36.4,13S396,325.5,396,325.5z"/>
<path class="st9" d="M271,341.6c0,0-2.7-10-2-28.1"/>
<path class="st13" d="M320.1,285.5c-28-1-21.5-14.9-21.5-14.9c0-1.1-0.6-2.1-0.7-3c-0.1-5.2,0.4-7.9,2.3-10.7
	c2.2-3.3,7.2-6.7,14-7.1c4-0.3,8,0.2,11.8,1.6c4.5,1.8,7.3,6.1,7.1,10.9c-0.1,2.1,1,4.7,1.2,6c0.6,5,1.6,4.1,1.6,4.1
	C337.7,284.2,320.1,285.5,320.1,285.5z"/>
<path class="st33" d="M333.1,267.9c-4.8,2.1-9.9,3.5-15.1,4.1c-7,0.6-14.8-2.2-19-4.1c-0.1-5.2-0.2-8,1.7-10.8
	c2.2-3.3,7.2-6.7,14-7.1c4-0.3,8,0.3,11.7,1.7c4.5,1.8,6.5,6.2,6.3,10.9C332.7,264.4,332.8,266.2,333.1,267.9z"/>
<path class="st15" d="M403.2,160.5c0,47.8-39.2,78.2-88,78.2s-88.4-38.8-88.4-86.6s25.6-88.4,89.9-88.4
	C384.2,63.8,403.2,112.7,403.2,160.5z"/>
<path class="st13" d="M246.1,198.6c-3.5-4.6-8.1-8.9-13.6-8.1s-8.1,5.7-7.1,14.2s3,12.8,9.7,17.9s10.2,7.6,17.3,3
	C253.7,216.3,247.8,201.7,246.1,198.6z"/>
<path class="st34" d="M248.1,222.1c-0.8-0.4-1.6-0.8-2.3-1.3c-1.4-0.9-2.6-2.2-3.2-3.8c-0.7-1.5-0.9-3.2-0.5-4.8
	c0.2-0.9,0.5-1.8,1-2.5c0.1-0.2,0.2-0.3,0.3-0.5c-0.1-0.1-0.1-0.2-0.2-0.3c-0.3-0.6-0.6-1.1-1-1.7c-1-1.6-2.2-3.1-3.4-4.6
	c-1.3-1.4-2.7-2.9-4.7-3.5c-1-0.3-2.1-0.2-3,0.3c-0.9,0.4-1.5,1.4-1.4,2.4c0.1-0.9,0.7-1.7,1.6-2c0.8-0.4,1.8-0.4,2.6-0.1
	c1.7,0.6,3,2.1,4.2,3.4c1.3,1.4,2.4,2.8,3.6,4.3c0.4,0.6,0.8,1.1,1.2,1.7c-0.7,0.8-1.2,1.7-1.5,2.7c-0.5,1.7-0.4,3.6,0.3,5.3
	c0.8,1.7,2.1,3.1,3.7,4c0.8,0.4,1.6,0.8,2.5,1.1c0.9,0.4,1.8,0.5,2.7,0.2C249.7,222.8,248.8,222.6,248.1,222.1z M232.5,213.5
	c-0.8-1.6-1.2-3.5-1-5.3c0.1-1.9,0.4-3.7,0.8-5.6c-0.8,1.8-1.3,3.6-1.6,5.5c-0.3,2,0,4,0.9,5.7c1,1.7,2.5,3.2,4.2,4.2
	s3.5,1.8,5.4,2.4c-1.7-0.9-3.4-1.9-5-3C234.8,216.5,233.5,215.1,232.5,213.5L232.5,213.5z"/>
<path class="st13" d="M381.8,203.1c3.6-4.6,8.2-9.1,13.8-8.2s8.2,5.8,7.2,14.4s-3,13-9.9,18.1s-10.4,7.7-17.6,3.1
	C374.1,221.1,380,206.2,381.8,203.1z"/>
<path class="st35" d="M377.2,227.6c0.9,0.2,1.9,0.1,2.7-0.3c0.9-0.3,1.7-0.7,2.5-1.1c1.7-0.9,3-2.3,3.8-4c1.2-2.7,0.7-5.9-1.2-8.1
	c0.4-0.6,0.8-1.2,1.2-1.8c1.1-1.5,2.3-3,3.6-4.4c1.3-1.4,2.5-2.9,4.3-3.5c0.9-0.3,1.8-0.3,2.6,0.1c0.9,0.3,1.5,1.1,1.6,2.1
	c0.1-1-0.5-2-1.4-2.4c-0.9-0.5-2-0.6-3.1-0.3c-2.1,0.6-3.5,2.2-4.8,3.6c-1.3,1.4-2.5,3-3.5,4.6c-0.3,0.6-0.7,1.1-1,1.7l-0.2,0.3
	c0.1,0.1,0.2,0.3,0.3,0.5c0.5,0.8,0.8,1.7,1,2.6c0.4,1.6,0.2,3.3-0.5,4.9c-0.7,1.6-1.8,2.9-3.3,3.8c-0.7,0.5-1.5,0.9-2.3,1.3
	C379,227.4,378.1,227.6,377.2,227.6z M391.7,222.2c-1.6,1.1-3.3,2.1-5.1,3c1.9-0.6,3.7-1.4,5.5-2.4s3.2-2.5,4.3-4.2
	c0.9-1.8,1.2-3.8,0.9-5.8c-0.3-1.9-0.8-3.8-1.6-5.6c0.4,1.9,0.7,3.7,0.9,5.6c0.2,1.8-0.2,3.7-1,5.4
	C394.6,219.8,393.3,221.2,391.7,222.2L391.7,222.2z"/>
<path class="st36" d="M385.3,173.7c-0.1,0.6,6.1,1.2,6.1,1.9c-2.4,20.5-6.2,40.1-9,50.3c-1,3.8-2.6,7.4-4.7,10.8
	c-3.3,5.2-7.7,9.6-12.9,13c-7.3,4.8-14.9,8.9-22.9,12.3c-3.8,1.7-7.7,3.2-11.6,4.5c-4.1,1.4-8.3,2.2-12.6,2.4
	c-4.9-0.2-9.7-1.1-14.3-2.6c-11-3.4-22.7-9.4-29-12.7c-9.2-4.8-20.4-15-23.1-26s-6.3-31.2-9.3-53c-0.9-6.9,4.4-7.6,10.1-28
	c7.6-27.4,18.2-38.3,61.7-38.3C389.7,108.2,387.7,152.6,385.3,173.7z"/>
<path class="st19" d="M241.1,203.6c0,0,7.4-46.1,23.5-58.6s18.4-20.5,18.4-20.5s4.3,23.3,31.9,33.3l-1.2-14
	c3.9,6.3,9.6,11.2,16.4,14l-2.7-17.7c14.2,5.3,28,11.6,41.2,19c20,11.4,19.2,49.2,19.2,49.2l-8-78.2l-68.4-27l-43.5-1.6l-29.5,38.7
	l4.5,30.1L241.1,203.6z"/>
<path class="st37" d="M303.8,211.1c4.2,5.9,13,7.6,17.9,1.7C317.2,219.3,307.4,217.6,303.8,211.1z"/>
<path class="st15" d="M383.8,132.9c-6.8-34.2-18.7-28.9-50.6-35.3c-14.5-2.9-14.6-13-29.4-11.6c-8.4,0.8-31-3.1-50.6,29.1
	c-12.4,20.2-32.7,37.9-24.3,62c7.8,23,17.9,26.4,17.9,26.4l-5.1-3.1c0.2-2.6,5.7,5.9,5.8,3.3c2-48.6,19.5-60.3,37.4-89.3
	c4.8,4.2,10.6,7.5,16,10.5c10.3,5.8,20.9,10.7,31.7,15.5s21.7,8.9,32.3,14.1c27.2,13.2,22.1,55,21.1,53.8c-0.2-0.9,3.7-9.5,4.1-10.2
	c2.7-4.1,5-8.4,6.9-12.9C405.1,166.4,387.8,153.2,383.8,132.9z"/>
<path class="st15" d="M311.4,123.2c-3.3,9.3-3.3,19.4,0,28.7c-25.4-16.8-27.4-43-27.4-43"/>
<path class="st15" d="M303.8,120.1c0,0,0.5,10.4,23.6,32.5c0,0-8.6-14.6-3.7-29.4"/>
<path class="st38" d="M236,191.5c-7.8-32.3-3.1-71.7,24.5-93.5c16-12.8,36.8-19.1,57.2-18.2c23.5,1.1,48.3,10.3,62.6,29.8
	c9.3,14.2,14,31.3,14.8,48.2c0.5,13.5-1.2,27.1-5.1,40.1c1.6-6.5,2.6-13.2,3.1-19.9c1.6-23.1-1.6-47.6-14.5-67.3
	c-13.9-18.9-38.2-27.8-61.1-28.9c-26.4-1.1-54.2,10.2-69.4,32.3C233.6,136.1,231.7,165.9,236,191.5L236,191.5z"/>
<path class="st22" d="M243.5,222.4c0,0,5.9,11.6-1.4,13.6s-5-11-5-11s1.9,11,4.1,4.2L243.5,222.4z"/>
<path class="st22" d="M385.6,227.3c0,0-5.9,11.7,1.4,13.7s5-11,5-11s-1.9,11-4.1,4.2L385.6,227.3z"/>
<path class="st10" d="M301.8,360.3c0.2,0.8,0.4,1.6,0.7,2.5l0,0c7.2,25.1,19,37.6,19,37.6c3.5-5.1,6.6-10.5,9.3-16
	c1.3-2.7,2.4-5.1,3.1-7.1c1.2-2.9,2.1-6,2.5-9.1c-0.1-3.1-0.3-6.1-0.5-9c-0.2-2.7-0.4-5.3-0.7-7.8c-0.7-7.2-1.7-13.5-2.7-19.1
	c-0.5-2.8-1.1-5.4-1.6-7.9c-3.6-15.6-7.4-23.2-7.3-24.3c0.4-3.2-10.5-2.1-10.5-2.1c-0.2,5.4-0.8,10.8-1.6,16.1
	c-0.3,1.8-0.6,3.6-0.9,5.5c-0.9,5.4-2,10.8-3.1,15.9c-0.4,1.8-0.8,3.5-1.1,5.2c-1.4,6.2-2.7,11.5-3.5,15.1
	C302.2,358.6,301.8,360.3,301.8,360.3z"/>
<path class="st10" d="M326.2,287.1c-1.2-0.6-5.6-4.5-14.5-0.8s2.2,16,2.2,16h9.8C323.7,302.4,336.8,292,326.2,287.1z"/>
<path class="st11" d="M310.7,319.6c7.8,2.9,15,7.2,21.3,12.6c-0.5-2.8-1.1-5.7-1.7-8.2c-5.8-4.1-12-7.5-18.7-9.9
	C311.3,315.9,311,317.8,310.7,319.6z"/>
<path class="st11" d="M307,341.2c7.9,3.9,20.9,11,28.3,18c-0.2-2.7-0.5-5.8-0.7-8.3c-8-6.3-16.9-11.4-26.4-15.1
	C307.8,337.5,307.4,339.5,307,341.2z"/>
<path class="st11" d="M302.4,360.3c0.2,0.8,0.4,1.9,0.7,2.7l0,0c7.8,4.4,19.8,11.9,27.2,20.9c1.3-2.7,2.3-5,3.1-7.1
	c-4.5-4-13.9-12-30-20.8C302.7,358.9,302.4,360.3,302.4,360.3z"/>
<path class="st39" d="M362.6,276.9c-2-0.6-2.6-1.5-6.8-2.7s-5.3-1.9-9.5-2.1c0,0-0.5,19.2,1.9,32.1c1.8,9.7-11,7.7-26,9.2
	c-14.6,1.4-29,1.9-29.7-5.5c-1.1-12.2-3.2-35.4-3.2-35.4c-7.2,3.4-15,5.6-18.7,9.2c0,0,4.4,15,9.8,67.1c0,0,2.4,9.8,43,9.8
	s49.4-12.5,49.4-12.5C360.2,295.6,366.5,278.1,362.6,276.9z"/>
<path class="st40" d="M249.5,349c0,0,0.8,8.8-7.4-2.8s-15-28.6-15-28.6s-2.7-5.9,2.5-4S249.5,349,249.5,349z"/>
<path class="st41" d="M231.1,313.2l0.2-0.1c1.1,1.1,18.4,17.8,20,28.1c-2.7,2.2-5.4,4.2-8.3,6.1c-4.9-13.2-13.7-25.6-17.1-30.2
	L231.1,313.2z"/>
<line class="st42" x1="263.8" y1="340.8" x2="265.2" y2="314"/>
<polygon class="st43" points="263.5,340.8 265.2,314 264,340.8 "/>
<line class="st42" x1="382.4" y1="359.1" x2="382" y2="323.2"/>
<polygon class="st43" points="382.1,359.1 382,323.2 382.6,359.1 "/>
<path class="st44" d="M382.5,353.2l-0.1,8.9l-0.1-16.3c0,0,23.5-13.5,29.3-22.4l5.7,7.8C417.2,331.2,405.6,342,382.5,353.2z"/>
<path class="st44" d="M255.2,344.7l-6.2,6.4c-5.3-25-21.6-37.5-21.6-37.5s2.6-2.3,6.3-5.6C238.9,312.8,254.7,328.9,255.2,344.7z"/>
<path class="st25" d="M233.2,418.8c-10.6-17.9-5-34.1-16.8-51.2c-3-4.4-7.2-40.4-10.6-60.8c26-6.4,82.4-3.5,112.2,45.7
	c0,0.5-14.7,64-16,70.6c-9.9-5-20.7-8.1-31.8-9.1C257.7,412.9,245,414.5,233.2,418.8z"/>
<path class="st26" d="M302.2,423.5l-0.2-0.1c-21.4-10.8-46.2-12.4-68.8-4.4c-5.1-8.7-6.7-17.1-8-25.1c-1.5-8.9-2.9-17.3-8.9-26.2
	c-2.1-3.1-4.8-21.3-7.3-38.9c-1.2-8.1-3.4-22.2-3.4-22.2h0.2c12.4-3.1,33.3-4.2,54.7,2c24.7,7.1,44.6,22.2,57.6,43.8
	c0,0.2-0.9,4.6-5.9,26.6C308.1,397,302.2,423.5,302.2,423.5z M261.9,413.5c2.8,0,5.6,0.1,8.3,0.4c11,0.9,21.8,4,31.7,9
	c0.9-4.4,15.6-69,15.9-70.3C289.6,306,235.6,299.8,206,307c1.1,6.3,2.1,13.8,3.3,21.8c2.6,17.5,5.2,35.7,7.2,38.6
	c6.1,8.9,7.6,17.8,9,26.4c1.3,8,2.7,16.2,7.7,24.7C242.4,415.2,252.1,413.5,261.9,413.5L261.9,413.5z"/>
<path class="st25" d="M217.1,383.2c-0.5-1.1-14.8-53.4-16.9-63.2c25.3-13.6,83.8-11.5,117.8,32.5c0,0.5-14.7,64-16,70.6
	C292.6,418.3,230.2,391.2,217.1,383.2z"/>
<path class="st26" d="M302.2,423.5l-0.2-0.1c-3.2-1.6-12.4-5.8-24.1-11.1c-22.1-10-52.3-23.6-60.9-28.9c-0.5-1-14.7-53-17-63.4v-0.2
	l0.1-0.1c13.7-7.4,35-9.4,55.7-5.4c17.7,3.5,42.9,12.9,62.2,38c0,0.2-0.9,4.6-5.9,26.6C308.1,397,302.2,423.5,302.2,423.5z
	 M217.2,383.1c8.7,5.3,38.8,18.9,60.8,28.8c11.5,5.2,20.6,9.3,23.9,11c0.9-4.4,15.6-68.9,15.9-70.3c-19.2-24.9-44.3-34.3-62-37.7
	c-20.6-4-41.8-2-55.4,5.3C202.8,330.9,216.4,380.9,217.2,383.1L217.2,383.1z"/>
<path class="st27" d="M197.6,337c0.9-1,1.2-1.3,2.3-2.4c42.4-11.4,79.3-0.9,103.1,17.9c0.9,7.2,4.8,82.3,3.3,91.7
	C272.4,433.6,227.9,330,197.6,337z"/>
<path class="st45" d="M223.2,438.2c-6.8-28.8-18.5-70-25.6-101.2c35.8-11.8,75-5.2,105,17.6c0.9,7,6.4,80.6,4.8,89.7
	C273.6,434,253.5,431.4,223.2,438.2z"/>
<path class="st25" d="M413.7,418.5c3.1-13,2.2-103.7,5-124.1c-23.4-5.8-89.9,9.5-100.7,58.7c0,0.5,19.2,63.3,20.7,69.9
	C348,418.1,402.4,414.5,413.7,418.5z"/>
<path class="st26" d="M338.6,423.3v-0.2c-1-4.3-9.5-32.5-15.1-51.2c-4.8-16-5.6-18.6-5.6-18.8c2.6-11.7,8.6-22.4,17.1-30.9
	c8.3-8.2,18-14.7,28.7-19.3c21.3-9.4,43.9-11.5,55.2-8.8h0.2v0.2c-1.4,9.8-1.9,36.2-2.4,61.8c-0.6,28.6-1.1,55.6-2.7,62.4v0.2
	l-0.1-0.1c-10.7-3.8-65.3-0.5-74.9,4.5L338.6,423.3z M318.2,353.1c0.1,0.5,19.4,64.6,20.6,69.6c5.1-2.5,22-4.6,36.6-5.5
	c13.7-0.9,31.8-1.1,38.1,1c1.5-7.1,2.1-35,2.6-62.1c0.5-25.4,1-51.6,2.3-61.6c-11.3-2.7-33.7-0.6-54.8,8.8
	C339,314.2,322.9,331.9,318.2,353.1z"/>
<path class="st25" d="M413.7,418.5c3.1-13,12.3-92.7,15.1-113.2c-26.1-6.2-86.4-0.7-110.8,47.8c0,0.5,19.2,63.3,20.7,69.9
	C348,418.1,402.4,414.5,413.7,418.5z"/>
<path class="st26" d="M338.6,423.3v-0.2c-1-4.3-9.5-32.5-15.1-51.2c-4.8-16-5.6-18.6-5.6-18.8c13.5-26.9,37.3-39.1,54.8-44.6
	c22.5-7,44.3-6.2,56.1-3.4h0.2c0,0-2.4,18.4-4.1,32.2c-3.8,30.5-8.9,72.2-11.1,81.3v0.2l-0.1-0.1c-10.7-3.8-65.3-0.5-74.9,4.5
	L338.6,423.3z M318.2,353.1c0.2,0.8,19.4,64.6,20.6,69.6c5.1-2.5,22-4.6,36.6-5.5c13.7-0.9,31.8-1.1,38.1,1c2.1-9.4,7.3-50.8,11-81
	c1.7-13.6,3.1-25.4,4-31.7C404.2,299.8,342.9,303.9,318.2,353.1z"/>
<path class="st25" d="M430.5,380.2c0.5-1.1,4-52.3,4.9-61.6c-24.1-11.2-85.9-7.1-117.9,35.1c0,0.5,19.7,62.7,21.1,69.3
	C348,418.1,417.7,388.3,430.5,380.2z"/>
<path class="st26" d="M338.6,423.3v-0.2c-1-4.4-9.9-32.8-15.7-51.7c-4.7-15.2-5.5-17.5-5.5-17.7c14.1-18.6,36.2-32.1,62-37.8
	c20.9-4.6,43-3.6,56.1,2.5c0,0-1.2,16.2-2.1,28.7c-1.5,20.3-2.4,32.6-2.7,33.3c-8.2,5.2-40.4,19.6-63.8,30
	c-13.3,5.9-24.8,11-28.1,12.8L338.6,423.3z M317.7,353.8c0.2,0.9,19.8,63.9,21.1,68.9c3.5-1.8,14.4-6.7,28-12.8
	c23.4-10.4,55.3-24.7,63.6-29.9c0.3-1.4,1.5-18.2,2.6-33c0.9-12.3,1.8-24,2.2-28.3c-13.1-6-35-6.9-55.8-2.4
	C353.7,322,331.8,335.3,317.7,353.8L317.7,353.8z"/>
<path class="st29" d="M336,354.5c0,1.4-7,4.3-16.4,4.4s-17.1-2.9-16.9-4.3c0.2-1,7.5-3.5,16.9-3.5S335.9,353.7,336,354.5z"/>
<path class="st27" d="M303,363.9c-0.1-4.5-0.4-8.7-0.4-11.7c12.5,3.3,22,3.5,33.3,0.2c0.2,2-0.8,10.5-0.5,12.9
	C327.3,369.1,309.8,370.4,303,363.9z"/>
<path class="st46" d="M307.5,444.3c-1-24.5-3.7-60-4.8-89.7c12.4,2.5,22,3.1,33.3-0.1c0.9,6.4,4.1,80.6,5.2,89.9
	C333,448.1,314.3,450.6,307.5,444.3z"/>
<path class="st27" d="M440.9,332.6c-0.2-0.8-0.4-1.5-0.7-2.2c-34.3-7.7-81.1,3-104.3,22c-0.6,6.7,1.6,13.7,2.5,23.2
	C378.8,366.6,429.5,332.2,440.9,332.6z"/>
<path class="st45" d="M424,441.9c5.1-31.9,12.1-78,17-109.3c-34.3-7.5-81.8,3.5-105,21.9c0.3,6.4-1.8,82.6-0.9,91.9
	C375.4,437.7,412.7,437.9,424,441.9z"/>
<path class="st13" d="M210.2,391.4c0,0,5.6,4.9,1.9,9.6c-3,3.8-16.8-5.1-20.7-10.8c-2.1-3-5.3-9.6-2.2-14.5c0,0-2.4-7.7,2.2-10.6
	c0,0-3.2-10.9,7.9-13.5h1.5L210.2,391.4z"/>
<path class="st13" d="M191.3,383.2c0,0,3.9,8.4,17.9,9.1s10-8.2,10-8.2l-21.1-8.5"/>
<path class="st13" d="M200.4,367.1c0,0,28.2,5,25.2,13.8c-2.2,6.5-23.9,2.9-31-3.2"/>
<path class="st13" d="M196.8,367.6c5,3.5,10.8,5.7,16.9,6.4c9.9,1.1,12.4-3.5,8.7-7s-23.1-9.1-23.1-9.1"/>
<path class="st13" d="M429.5,386.7c-1.3,2.9-2.8,5.6-4.5,8.3c-1.9,2.8,1.1,6.4,6.1,3.5s9.6-10.2,6.7-15S429.5,386.7,429.5,386.7z"/>
<path class="st13" d="M441.5,375c0,0,3.3,4.4-3.5,10.3s-28.7,3.2-17.5-6.4S441.5,375,441.5,375z"/>
<path class="st13" d="M442.9,364.4c0,0,3.1,6.9-2.5,11.6s-17.8,5.6-23.8,2.1s-0.7-9.1,3.8-9.4S442.9,364.4,442.9,364.4z"/>
<path class="st13" d="M436.7,359.8c0,0-15.3-1.7-17.7,4.8s16.6,8.9,23,1.1s-3.4-15.4-3.4-15.4L436.7,359.8z"/>
<path class="st32" d="M318.6,285.1c0.9,0.3-12,24.7-12,24.7S295,296.3,290.7,280l7.5-11C298.2,268.9,302.1,278.9,318.6,285.1z"/>
<path class="st32" d="M337.3,273.6c0.9,1.3,0.7,0,5.8,7.7c3,4.5-12.2,29.2-12.2,29.2l-12.5-25c0,0,8.3-0.7,14.2-6.5
	c3.3-3.2,1.3-5.7,2.2-9.2L337.3,273.6z"/>
<path class="st23" d="M297.9,230.7c3.1,1.1,6.1,2.1,9.2,2.9c1.5,0.4,3.1,0.7,4.6,1s3.1,0.4,4.7,0.5c3.1,0.2,6.2-0.2,9.2-1.1
	c1.5-0.5,2.9-1.2,4.3-2c1.4-0.9,2.7-1.9,4-3c-0.9,1.5-2,2.8-3.2,4c-1.3,1.2-2.8,2.1-4.4,2.9c-3.2,1.4-6.6,2.1-10.1,1.9
	c-3.3-0.2-6.6-0.9-9.8-2.1C303.3,234.4,300.4,232.7,297.9,230.7z"/>
<path class="st24" d="M310.4,239.4c1.4,0.6,2.8,1.2,4.1,1.7c0.7,0.2,1.3,0.5,2,0.6c0.6,0.2,1.3,0.3,2,0.4c1.2,0.2,2.4,0.1,3.5-0.4
	c0.5-0.2,1-0.5,1.4-0.9s0.8-0.9,1.1-1.4c-0.1,0.7-0.4,1.4-0.7,2c-0.3,0.6-0.8,1-1.3,1.4c-1.1,0.7-2.5,0.9-3.8,0.7
	c-1.5-0.2-2.9-0.7-4.2-1.3C313,241.4,311.6,240.5,310.4,239.4z"/>
<path class="st24" d="M331.6,225.1c4,0.1,5.5,3.8,3,6.8c-1,1.1-1,1.1-0.4-0.2C335.7,228.4,334.8,226.5,331.6,225.1z"/>
<path class="st24" d="M298.2,226.2c-1.4,2.9-1.8,5.4,1,7.6C295.4,232.9,295.5,228.4,298.2,226.2z"/>
</svg>
