<svg id="Layer_1" data-name="Layer 1" xmlns="http://www.w3.org/2000/svg" viewBox="0 0 1156.67 169.53"><defs><style>.cls-1{fill:#3172c2;stroke:#fff;stroke-miterlimit:10;stroke-width:2px;}.cls-2{fill:#fff;}</style></defs><rect class="cls-1" x="174.1" y="45.69" width="808.47" height="78.15" rx="39.07"/><path class="cls-2" d="M242.91,98.52,231.48,84V98.52h-7.15V67.11h7.15V80.88L242,67.11h8.19L238.45,81.82,252,98.52Z"/><path class="cls-2" d="M270.94,84.16a5.12,5.12,0,0,1-.79,2.79,6.85,6.85,0,0,1-2.26,2.14,12.54,12.54,0,0,1-3.51,1.37,19.47,19.47,0,0,1-4.58.5l-.55,0-.73,0a4.2,4.2,0,0,0,1.35,2.68,4.34,4.34,0,0,0,2.92,1,13.36,13.36,0,0,0,6.63-2v4.73a12.73,12.73,0,0,1-3.27,1.41,13.39,13.39,0,0,1-3.53.43,11.62,11.62,0,0,1-4.07-.67,8.22,8.22,0,0,1-3.08-2,8.69,8.69,0,0,1-1.94-3.06,11.32,11.32,0,0,1-.67-4,12.58,12.58,0,0,1,.78-4.52,10.47,10.47,0,0,1,2.21-3.53,9.7,9.7,0,0,1,3.4-2.3,11.4,11.4,0,0,1,4.36-.81,8.21,8.21,0,0,1,5.33,1.62A5.26,5.26,0,0,1,270.94,84.16Zm-6,.45a1.59,1.59,0,0,0-.62-1.24,2.35,2.35,0,0,0-1.55-.51,3.58,3.58,0,0,0-2.57,1,5.11,5.11,0,0,0-1.38,2.91,3.78,3.78,0,0,0,.72.09h.66Q265,86.91,265,84.61Z"/><path class="cls-2" d="M293,84.16a5.13,5.13,0,0,1-.8,2.79A6.75,6.75,0,0,1,290,89.09a12.59,12.59,0,0,1-3.5,1.37,19.62,19.62,0,0,1-4.59.5l-.54,0-.73,0A4.2,4.2,0,0,0,282,93.59a4.3,4.3,0,0,0,2.91,1,13.36,13.36,0,0,0,6.63-2v4.73a12.82,12.82,0,0,1-3.26,1.41,13.5,13.5,0,0,1-3.53.43,11.68,11.68,0,0,1-4.08-.67,8.38,8.38,0,0,1-3.08-2,9,9,0,0,1-1.94-3.06,11.54,11.54,0,0,1-.67-4,12.36,12.36,0,0,1,.79-4.52,10.45,10.45,0,0,1,2.2-3.53,9.79,9.79,0,0,1,3.4-2.3,11.4,11.4,0,0,1,4.36-.81A8.24,8.24,0,0,1,291,79.84,5.29,5.29,0,0,1,293,84.16Zm-6,.45a1.59,1.59,0,0,0-.62-1.24,2.36,2.36,0,0,0-1.56-.51,3.56,3.56,0,0,0-2.56,1,5,5,0,0,0-1.38,2.91,3.69,3.69,0,0,0,.71.09h.67Q287.06,86.91,287.06,84.61Z"/><path class="cls-2" d="M317.57,87.45a15.2,15.2,0,0,1-.63,4.5,10.79,10.79,0,0,1-1.78,3.5,8.22,8.22,0,0,1-2.73,2.27,7.69,7.69,0,0,1-3.49.8,7.43,7.43,0,0,1-2.36-.32,6.56,6.56,0,0,1-2-1.16v14.89h-6.3V84.65a10.32,10.32,0,0,0-.07-1.15c0-.44-.1-.91-.18-1.39s-.16-1-.27-1.46a9.39,9.39,0,0,0-.38-1.35h6.1a4.25,4.25,0,0,1,.33.88c.06.25.12.67.19,1.24a9.59,9.59,0,0,1,2.71-2.07,7.15,7.15,0,0,1,3.1-.63,7.93,7.93,0,0,1,3.17.62,7,7,0,0,1,2.46,1.78A8.11,8.11,0,0,1,317,83.88,10.69,10.69,0,0,1,317.57,87.45Zm-6,1a4.33,4.33,0,0,0-.89-2.9,3.13,3.13,0,0,0-2.47-1,3.53,3.53,0,0,0-2.9,1.32,5.48,5.48,0,0,0-1.07,3.56V92a4.74,4.74,0,0,0,3.18,1.2,3.84,3.84,0,0,0,3-1.27A5.09,5.09,0,0,0,311.58,88.45Z"/><path class="cls-2" d="M357.61,87.18a13.24,13.24,0,0,1-.77,4.66,10.15,10.15,0,0,1-2.23,3.58,10,10,0,0,1-3.47,2.28,11.86,11.86,0,0,1-4.52.82,23.24,23.24,0,0,1-4.49-.47,20.84,20.84,0,0,1-4.23-1.28V67.65h6V81a7.17,7.17,0,0,1,2.56-1.73,9,9,0,0,1,3.27-.57,8.62,8.62,0,0,1,3.22.59,6.78,6.78,0,0,1,2.5,1.72A7.76,7.76,0,0,1,357,83.7,10.08,10.08,0,0,1,357.61,87.18Zm-6,1.09a3.9,3.9,0,0,0-.91-2.75,3.23,3.23,0,0,0-2.54-1A4.2,4.2,0,0,0,345,85.88a4.36,4.36,0,0,0-.86,1.45,5.2,5.2,0,0,0-.28,1.71v3.42a5.08,5.08,0,0,0,1.41.53,8.82,8.82,0,0,0,1.64.13,4.63,4.63,0,0,0,3.47-1.29A4.85,4.85,0,0,0,351.63,88.27Z"/><path class="cls-2" d="M382.9,88.55a11.25,11.25,0,0,1-.74,4.26,8.51,8.51,0,0,1-2.1,3.12,9.06,9.06,0,0,1-3.27,1.93,13.92,13.92,0,0,1-8.47,0,9.06,9.06,0,0,1-3.27-1.93,8.83,8.83,0,0,1-2.13-3.12,11.05,11.05,0,0,1-.76-4.26,10.82,10.82,0,0,1,.74-4.15A8.73,8.73,0,0,1,365,81.3a8.9,8.9,0,0,1,3.27-1.93,14.57,14.57,0,0,1,8.54,0,9,9,0,0,1,3.27,1.89,8.24,8.24,0,0,1,2.1,3.09A11.15,11.15,0,0,1,382.9,88.55Zm-6,0a4.46,4.46,0,0,0-1.21-3.34A4.4,4.4,0,0,0,372.46,84a4.14,4.14,0,0,0-3.2,1.19,4.71,4.71,0,0,0-1.12,3.34A5,5,0,0,0,369.23,92a4.13,4.13,0,0,0,3.23,1.22,4.4,4.4,0,0,0,3.3-1.2A4.75,4.75,0,0,0,376.92,88.56Z"/><path class="cls-2" d="M408.33,88.55a11.45,11.45,0,0,1-.74,4.26,8.54,8.54,0,0,1-2.11,3.12,9.06,9.06,0,0,1-3.27,1.93,13.92,13.92,0,0,1-8.47,0,9.06,9.06,0,0,1-3.27-1.93,8.68,8.68,0,0,1-2.12-3.12,12.09,12.09,0,0,1,0-8.41,8.55,8.55,0,0,1,5.36-5,14.53,14.53,0,0,1,8.53,0,9,9,0,0,1,3.27,1.89,8.26,8.26,0,0,1,2.11,3.09A11.35,11.35,0,0,1,408.33,88.55Zm-6,0a4.49,4.49,0,0,0-1.2-3.34A4.41,4.41,0,0,0,397.89,84a4.17,4.17,0,0,0-3.21,1.19,4.71,4.71,0,0,0-1.11,3.34A4.92,4.92,0,0,0,394.66,92a4.12,4.12,0,0,0,3.23,1.22,4.36,4.36,0,0,0,3.29-1.2A4.71,4.71,0,0,0,402.34,88.56Z"/><path class="cls-2" d="M425.92,86.82l9.59,11.7h-7.92l-7.47-9.77v9.77h-6V67.15h6V85.24l7.29-6.52H436Z"/><path class="cls-2" d="M454.9,93a5.67,5.67,0,0,1-1.9,4.5,8,8,0,0,1-5.37,1.66,22.46,22.46,0,0,1-4.56-.45,13.4,13.4,0,0,1-3.6-1.21l.76-4.59a15.34,15.34,0,0,0,6.84,2,2,2,0,0,0,1.42-.43,1.33,1.33,0,0,0,.43-1,1.73,1.73,0,0,0-.34-1.11,5.17,5.17,0,0,0-1.64-1,26.44,26.44,0,0,1-3.17-1.62,10.4,10.4,0,0,1-2.16-1.69,5.63,5.63,0,0,1-1.22-1.87A6.1,6.1,0,0,1,440,84a5.08,5.08,0,0,1,2.17-4.39A9.62,9.62,0,0,1,447.87,78a17.87,17.87,0,0,1,3.35.29,15.77,15.77,0,0,1,3.36,1.15L453.86,84a10.53,10.53,0,0,0-3.09-1.24,13.59,13.59,0,0,0-3-.34,2.06,2.06,0,0,0-1.43.38,1.38,1.38,0,0,0-.39,1,1.47,1.47,0,0,0,.62,1.23,12.29,12.29,0,0,0,2.4,1.24,28.56,28.56,0,0,1,2.73,1.55,10.15,10.15,0,0,1,1.84,1.53,4.77,4.77,0,0,1,1,1.67A6,6,0,0,1,454.9,93Z"/><path class="cls-2" d="M494.5,87.18a13.24,13.24,0,0,1-.78,4.66A9.7,9.7,0,0,1,488,97.7a11.89,11.89,0,0,1-4.52.82,23.24,23.24,0,0,1-4.49-.47,20.84,20.84,0,0,1-4.23-1.28V67.65h6V81a7.08,7.08,0,0,1,2.56-1.73,9,9,0,0,1,3.27-.57,8.62,8.62,0,0,1,3.22.59,6.86,6.86,0,0,1,2.5,1.72,7.76,7.76,0,0,1,1.6,2.67A10.08,10.08,0,0,1,494.5,87.18Zm-6,1.09a4,4,0,0,0-.91-2.75,3.25,3.25,0,0,0-2.54-1,4.23,4.23,0,0,0-1.82.37,4.12,4.12,0,0,0-1.37,1,4.36,4.36,0,0,0-.86,1.45,5.2,5.2,0,0,0-.29,1.71v3.42a5.13,5.13,0,0,0,1.42.53,8.78,8.78,0,0,0,1.63.13,4.66,4.66,0,0,0,3.48-1.29A4.85,4.85,0,0,0,488.52,88.27Z"/><path class="cls-2" d="M514,98.52c0-.21,0-.47,0-.77a8.53,8.53,0,0,1-.08-.85c0-.33,0-.68-.07-1a7.08,7.08,0,0,1-2.93,2.32A9.55,9.55,0,0,1,507,99a7.11,7.11,0,0,1-5.75-2.43q-2.05-2.43-2-6.93,0-5.44,3.3-8.4T512,78.27c.67,0,1.28,0,1.83,0s1.09.08,1.64.16,1.11.17,1.69.29,1.22.29,1.92.5V92c0,.69,0,1.41,0,2.18s.08,1.46.14,2.09.12,1.48.18,2.21ZM513,83.85a9.25,9.25,0,0,0-1.42-.23c-.43,0-.82,0-1.19,0a4.82,4.82,0,0,0-3.85,1.59,6.64,6.64,0,0,0-1.37,4.44,4.45,4.45,0,0,0,.82,2.88,2.88,2.88,0,0,0,2.34,1,4.17,4.17,0,0,0,1.81-.41,4.56,4.56,0,0,0,1.49-1.15,5.58,5.58,0,0,0,1-1.75A6.76,6.76,0,0,0,513,87.9Z"/><path class="cls-2" d="M537.86,98.15a13.87,13.87,0,0,1-3.22.37,10.77,10.77,0,0,1-4-.71,9.94,9.94,0,0,1-3.13-2,8.37,8.37,0,0,1-2-3,10.09,10.09,0,0,1-.73-3.91,12.46,12.46,0,0,1,.66-4.13,8.39,8.39,0,0,1,2-3.24,9.07,9.07,0,0,1,3.28-2.1,12.76,12.76,0,0,1,4.57-.75,10.3,10.3,0,0,1,3.44.47,12.06,12.06,0,0,1,2.23,1l-1,5.18c-.46-.21-.84-.4-1.15-.57a8.37,8.37,0,0,0-.9-.4,4.41,4.41,0,0,0-1-.23,10.86,10.86,0,0,0-1.23-.06,4.7,4.7,0,0,0-3.47,1.22A4.52,4.52,0,0,0,531,88.66,4.4,4.4,0,0,0,532.26,92a5.08,5.08,0,0,0,3.64,1.21,10,10,0,0,0,2.34-.28,12.79,12.79,0,0,0,2.38-.86L541,97A15.72,15.72,0,0,1,537.86,98.15Z"/><path class="cls-2" d="M557.68,86.82l9.59,11.7h-7.92l-7.48-9.77v9.77h-6V67.15h6V85.24l7.29-6.52h8.6Z"/><path class="cls-2" d="M606.05,88.55a11.45,11.45,0,0,1-.73,4.26,8.66,8.66,0,0,1-2.11,3.12,9.06,9.06,0,0,1-3.27,1.93,13.92,13.92,0,0,1-8.47,0,9.06,9.06,0,0,1-3.27-1.93,8.83,8.83,0,0,1-2.13-3.12,12.16,12.16,0,0,1,0-8.41,8.73,8.73,0,0,1,2.08-3.1,8.9,8.9,0,0,1,3.27-1.93,14.57,14.57,0,0,1,8.54,0,9,9,0,0,1,3.27,1.89,8.37,8.37,0,0,1,2.11,3.09A11.35,11.35,0,0,1,606.05,88.55Zm-6,0a4.46,4.46,0,0,0-1.21-3.34A4.4,4.4,0,0,0,595.61,84a4.14,4.14,0,0,0-3.2,1.19,4.71,4.71,0,0,0-1.12,3.34A5,5,0,0,0,592.38,92a4.13,4.13,0,0,0,3.23,1.22,4.38,4.38,0,0,0,3.3-1.2A4.75,4.75,0,0,0,600.07,88.56Z"/><path class="cls-2" d="M624.59,98.52V87.28a4.46,4.46,0,0,0-.29-1.82,2.52,2.52,0,0,0-.7-1,1.69,1.69,0,0,0-.85-.39A6,6,0,0,0,622,84a4.14,4.14,0,0,0-.94.17,3.29,3.29,0,0,0-1.37.82,5.59,5.59,0,0,0-1.24,1.91,8.77,8.77,0,0,0-.54,3.39v8.2h-6V85.43a22.48,22.48,0,0,0-.27-3.42,11.11,11.11,0,0,0-.72-2.75h6a7.73,7.73,0,0,1,.38,1,11.57,11.57,0,0,1,.25,1.17,9.39,9.39,0,0,1,3.08-2.07,9,9,0,0,1,3.36-.67,6.52,6.52,0,0,1,2.62.52,6.09,6.09,0,0,1,2.09,1.47A6.77,6.77,0,0,1,630.07,83a8.86,8.86,0,0,1,.51,3.09v12.4Z"/><path class="cls-2" d="M653.3,98.52V83h-4V78.72h4v-5h5.9v5h5.08V83H659.2V98.52Z"/><path class="cls-2" d="M680.48,98.52V87.32a6.17,6.17,0,0,0-.2-1.73,2.24,2.24,0,0,0-.58-1,1.85,1.85,0,0,0-.83-.46,4.22,4.22,0,0,0-1-.1,2.73,2.73,0,0,0-1.49.45,4.66,4.66,0,0,0-1.27,1.24,6.7,6.7,0,0,0-.89,1.84,7.22,7.22,0,0,0-.35,2.23v8.73h-6V67.69h5.94V81a6.94,6.94,0,0,1,2.48-1.74,8.39,8.39,0,0,1,3-.51,9.36,9.36,0,0,1,2.59.35,6.5,6.5,0,0,1,2.27,1.11,5.73,5.73,0,0,1,1.62,2,7.09,7.09,0,0,1,.62,3.11V98.52Z"/><path class="cls-2" d="M710.9,84.16a5.13,5.13,0,0,1-.8,2.79,6.66,6.66,0,0,1-2.26,2.14,12.59,12.59,0,0,1-3.5,1.37,19.62,19.62,0,0,1-4.59.5l-.54,0-.73,0a4.2,4.2,0,0,0,1.35,2.68,4.3,4.3,0,0,0,2.91,1,13.3,13.3,0,0,0,6.63-2v4.73a12.82,12.82,0,0,1-3.26,1.41,13.44,13.44,0,0,1-3.53.43,11.72,11.72,0,0,1-4.08-.67,8.38,8.38,0,0,1-3.08-2,8.81,8.81,0,0,1-1.93-3.06,11.31,11.31,0,0,1-.68-4,12.36,12.36,0,0,1,.79-4.52,10.45,10.45,0,0,1,2.2-3.53,9.79,9.79,0,0,1,3.4-2.3,11.45,11.45,0,0,1,4.37-.81,8.23,8.23,0,0,1,5.33,1.62A5.29,5.29,0,0,1,710.9,84.16Zm-6,.45a1.59,1.59,0,0,0-.62-1.24,2.36,2.36,0,0,0-1.56-.51,3.56,3.56,0,0,0-2.56,1,5,5,0,0,0-1.38,2.91,3.69,3.69,0,0,0,.71.09h.67Q704.92,86.91,704.92,84.61Z"/><path class="cls-2" d="M749.69,87.18a13.24,13.24,0,0,1-.78,4.66,9.7,9.7,0,0,1-5.69,5.86,11.89,11.89,0,0,1-4.52.82,23.24,23.24,0,0,1-4.49-.47A20.84,20.84,0,0,1,730,96.77V67.65h6V81a7.08,7.08,0,0,1,2.56-1.73,9,9,0,0,1,3.27-.57,8.62,8.62,0,0,1,3.22.59,6.86,6.86,0,0,1,2.5,1.72,7.76,7.76,0,0,1,1.6,2.67A10.08,10.08,0,0,1,749.69,87.18Zm-6,1.09a4,4,0,0,0-.91-2.75,3.25,3.25,0,0,0-2.54-1,4.23,4.23,0,0,0-1.82.37,4.12,4.12,0,0,0-1.37,1,4.36,4.36,0,0,0-.86,1.45,5.2,5.2,0,0,0-.29,1.71v3.42a5.13,5.13,0,0,0,1.42.53,8.78,8.78,0,0,0,1.63.13,4.64,4.64,0,0,0,3.48-1.29A4.85,4.85,0,0,0,743.71,88.27Z"/><path class="cls-2" d="M775,88.55a11.45,11.45,0,0,1-.74,4.26,8.51,8.51,0,0,1-2.1,3.12,9.19,9.19,0,0,1-3.28,1.93,13.89,13.89,0,0,1-8.46,0,9.06,9.06,0,0,1-3.27-1.93A8.71,8.71,0,0,1,755,92.81a11.05,11.05,0,0,1-.76-4.26A10.82,10.82,0,0,1,755,84.4a8.6,8.6,0,0,1,2.08-3.1,8.74,8.74,0,0,1,3.27-1.93,14.53,14.53,0,0,1,8.53,0,9.11,9.11,0,0,1,3.28,1.89,8.24,8.24,0,0,1,2.1,3.09A11.35,11.35,0,0,1,775,88.55Zm-6,0a4.5,4.5,0,0,0-1.21-3.34A4.41,4.41,0,0,0,764.54,84a4.14,4.14,0,0,0-3.2,1.19,4.67,4.67,0,0,0-1.12,3.34A4.92,4.92,0,0,0,761.31,92a4.12,4.12,0,0,0,3.23,1.22,4.4,4.4,0,0,0,3.3-1.2A4.75,4.75,0,0,0,769,88.56Z"/><path class="cls-2" d="M800.4,88.55a11.45,11.45,0,0,1-.73,4.26,8.66,8.66,0,0,1-2.11,3.12,9.06,9.06,0,0,1-3.27,1.93,13.92,13.92,0,0,1-8.47,0,9.06,9.06,0,0,1-3.27-1.93,8.83,8.83,0,0,1-2.13-3.12,12.16,12.16,0,0,1,0-8.41,8.73,8.73,0,0,1,2.08-3.1,8.9,8.9,0,0,1,3.27-1.93,14.57,14.57,0,0,1,8.54,0,9,9,0,0,1,3.27,1.89,8.37,8.37,0,0,1,2.11,3.09A11.35,11.35,0,0,1,800.4,88.55Zm-6,0a4.46,4.46,0,0,0-1.21-3.34A4.4,4.4,0,0,0,790,84a4.14,4.14,0,0,0-3.2,1.19,4.71,4.71,0,0,0-1.11,3.34A5,5,0,0,0,786.73,92,4.13,4.13,0,0,0,790,93.21a4.38,4.38,0,0,0,3.3-1.2A4.75,4.75,0,0,0,794.42,88.56Z"/><path class="cls-2" d="M818,86.82l9.58,11.7h-7.92l-7.47-9.77v9.77h-6V67.15h6V85.24l7.29-6.52h8.6Z"/><path class="cls-2" d="M847,93a5.68,5.68,0,0,1-1.91,4.5,7.92,7.92,0,0,1-5.36,1.66,22.32,22.32,0,0,1-4.56-.45,13.6,13.6,0,0,1-3.61-1.21l.77-4.59a15.34,15.34,0,0,0,6.84,2,2,2,0,0,0,1.42-.43,1.32,1.32,0,0,0,.42-1,1.79,1.79,0,0,0-.33-1.11,5.39,5.39,0,0,0-1.65-1,27.22,27.22,0,0,1-3.17-1.62,11,11,0,0,1-2.16-1.69,5.75,5.75,0,0,1-1.21-1.87,6.1,6.1,0,0,1-.39-2.25,5.09,5.09,0,0,1,2.18-4.39A9.61,9.61,0,0,1,839.94,78a17.9,17.9,0,0,1,3.36.29,15.77,15.77,0,0,1,3.36,1.15L845.94,84a10.53,10.53,0,0,0-3.09-1.24,13.66,13.66,0,0,0-3-.34,2,2,0,0,0-1.43.38,1.38,1.38,0,0,0-.39,1,1.45,1.45,0,0,0,.62,1.23,12.43,12.43,0,0,0,2.39,1.24,30.15,30.15,0,0,1,2.74,1.55,10.15,10.15,0,0,1,1.84,1.53,5.08,5.08,0,0,1,1,1.67A6,6,0,0,1,847,93Z"/><path class="cls-2" d="M865.29,98.52V87.32a5.82,5.82,0,0,0-.2-1.73,2.24,2.24,0,0,0-.58-1,1.87,1.87,0,0,0-.82-.46,4.37,4.37,0,0,0-1-.1,2.73,2.73,0,0,0-1.49.45A4.66,4.66,0,0,0,860,85.72a7,7,0,0,0-.89,1.84,7.22,7.22,0,0,0-.35,2.23v8.73h-6V67.69h5.94V81a7,7,0,0,1,2.48-1.74,8.43,8.43,0,0,1,3-.51,9.48,9.48,0,0,1,2.6.35A6.54,6.54,0,0,1,869,80.18a5.73,5.73,0,0,1,1.62,2,7.09,7.09,0,0,1,.62,3.11V98.52Z"/><path class="cls-2" d="M895.71,84.16a5,5,0,0,1-.8,2.79,6.66,6.66,0,0,1-2.26,2.14,12.59,12.59,0,0,1-3.5,1.37,19.5,19.5,0,0,1-4.59.5l-.54,0-.73,0a4.2,4.2,0,0,0,1.35,2.68,4.31,4.31,0,0,0,2.91,1,13.3,13.3,0,0,0,6.63-2v4.73a12.82,12.82,0,0,1-3.26,1.41,13.39,13.39,0,0,1-3.53.43,11.62,11.62,0,0,1-4.07-.67,8.34,8.34,0,0,1-3.09-2,8.81,8.81,0,0,1-1.93-3.06,11.31,11.31,0,0,1-.68-4,12.58,12.58,0,0,1,.79-4.52,10.47,10.47,0,0,1,2.21-3.53A9.66,9.66,0,0,1,884,79a11.45,11.45,0,0,1,4.37-.81,8.21,8.21,0,0,1,5.33,1.62A5.26,5.26,0,0,1,895.71,84.16Zm-6,.45a1.59,1.59,0,0,0-.62-1.24,2.35,2.35,0,0,0-1.55-.51,3.57,3.57,0,0,0-2.57,1,5.11,5.11,0,0,0-1.38,2.91,3.69,3.69,0,0,0,.71.09H885Q889.73,86.91,889.73,84.61Z"/><path class="cls-2" d="M900.66,98.52V67.15h6V98.52Z"/><path class="cls-2" d="M927.71,72.69a8,8,0,0,0-1.62-.61,6.3,6.3,0,0,0-1.49-.16,4.1,4.1,0,0,0-1.84.36,2.52,2.52,0,0,0-1.13,1.15,6.35,6.35,0,0,0-.56,2.09,26.27,26.27,0,0,0-.16,3.2h4.77v4.36H921V98.52h-6V83h-3.73V78.72h3.64a26.14,26.14,0,0,1,.5-5.56,9,9,0,0,1,1.51-3.56,5.62,5.62,0,0,1,2.51-1.89,10.1,10.1,0,0,1,3.49-.56,15.58,15.58,0,0,1,5.36.9Z"/><path class="cls-2" d="M934,95.75a2.42,2.42,0,0,1-1,2,4,4,0,0,1-2.49.8,3.83,3.83,0,0,1-2.5-.86,2.6,2.6,0,0,1-.07-4.12,3.58,3.58,0,0,1,2.39-.83,4,4,0,0,1,2.62.89A2.7,2.7,0,0,1,934,95.75Z"/></svg>