<svg id="Layer_1" data-name="Layer 1" xmlns="http://www.w3.org/2000/svg" viewBox="0 0 1156.67 169.53"><defs><style>.cls-1{fill:#3172c2;stroke:#fff;stroke-miterlimit:10;stroke-width:2px;}.cls-2{fill:#fff;}</style></defs><rect class="cls-1" x="83.25" y="44.5" width="945.15" height="78.15" rx="39.07"/><path class="cls-2" d="M165.37,90.2a9.18,9.18,0,0,1-6.91,6.49,25,25,0,0,1-5.94.64,24.59,24.59,0,0,1-5.85-.64,9.38,9.38,0,0,1-7-6.47,20.15,20.15,0,0,1-.93-6.61V65.92h7.16V83.46q0,4.42,1.7,6.33a7.07,7.07,0,0,0,9.73-.06q1.75-2,1.75-6.58V65.92h7.16V83.47A21.71,21.71,0,0,1,165.37,90.2Z"/><path class="cls-2" d="M187.85,91.84a5.68,5.68,0,0,1-1.91,4.5A7.89,7.89,0,0,1,180.58,98a22.49,22.49,0,0,1-4.57-.45,13.65,13.65,0,0,1-3.6-1.21l.77-4.59a15.34,15.34,0,0,0,6.84,2,2,2,0,0,0,1.42-.43,1.32,1.32,0,0,0,.42-1,1.73,1.73,0,0,0-.34-1.11,5.17,5.17,0,0,0-1.64-1,26.44,26.44,0,0,1-3.17-1.62,10.68,10.68,0,0,1-2.16-1.69A5.59,5.59,0,0,1,173.34,85a6.1,6.1,0,0,1-.39-2.25,5.09,5.09,0,0,1,2.18-4.39,9.59,9.59,0,0,1,5.68-1.55,17.79,17.79,0,0,1,3.35.29,15.65,15.65,0,0,1,3.37,1.15l-.72,4.55a10.59,10.59,0,0,0-3.1-1.24,13.5,13.5,0,0,0-3-.34,2.09,2.09,0,0,0-1.44.38,1.41,1.41,0,0,0-.38,1,1.46,1.46,0,0,0,.61,1.23,12.94,12.94,0,0,0,2.4,1.24,28.56,28.56,0,0,1,2.73,1.55,10.24,10.24,0,0,1,1.85,1.53,4.89,4.89,0,0,1,1,1.67A5.76,5.76,0,0,1,187.85,91.84Z"/><path class="cls-2" d="M210.75,83a5.13,5.13,0,0,1-.8,2.79,6.66,6.66,0,0,1-2.26,2.14,12.59,12.59,0,0,1-3.5,1.37,19.5,19.5,0,0,1-4.59.5l-.54,0-.73,0a4.2,4.2,0,0,0,1.35,2.68,4.3,4.3,0,0,0,2.91,1,13.3,13.3,0,0,0,6.63-2v4.73A12.82,12.82,0,0,1,206,97.48a13.44,13.44,0,0,1-3.53.43,11.72,11.72,0,0,1-4.08-.67,8.38,8.38,0,0,1-3.08-2,8.81,8.81,0,0,1-1.93-3.06,11.31,11.31,0,0,1-.68-4,12.36,12.36,0,0,1,.79-4.52,10.45,10.45,0,0,1,2.2-3.53,9.79,9.79,0,0,1,3.4-2.3,11.45,11.45,0,0,1,4.37-.81,8.23,8.23,0,0,1,5.33,1.62A5.29,5.29,0,0,1,210.75,83Zm-6,.45a1.59,1.59,0,0,0-.62-1.24,2.35,2.35,0,0,0-1.55-.51,3.57,3.57,0,0,0-2.57,1,5,5,0,0,0-1.38,2.91,3.69,3.69,0,0,0,.71.09H200Q204.77,85.72,204.77,83.42Z"/><path class="cls-2" d="M254.72,95.13a3.43,3.43,0,0,1-1.2,1.69,3.54,3.54,0,0,1-2,.51,3.4,3.4,0,0,1-2.07-.55A3.87,3.87,0,0,1,248.24,95l-3.83-11.67-4,11.9a2.88,2.88,0,0,1-1.15,1.64,3.92,3.92,0,0,1-2.14.51,7,7,0,0,1-.94-.07,2.43,2.43,0,0,1-.86-.29,2.35,2.35,0,0,1-.76-.7,4.55,4.55,0,0,1-.63-1.27l-6.3-17.47h6.07l2.61,8c.09.29.19.63.29,1s.22.78.34,1.16.26.91.41,1.41a8.37,8.37,0,0,1,.27-1.1c.09-.32.18-.67.29-1s.2-.71.29-1l2.52-8.42H248l2.7,8.82a7.84,7.84,0,0,0,.25.86c.1.3.2.6.29.9a5.56,5.56,0,0,1,.27,1c.09-.3.18-.6.27-.92.15-.59.32-1.15.5-1.67l2.65-9h6.3Z"/><path class="cls-2" d="M278.43,97.33V86.13a5.77,5.77,0,0,0-.21-1.73,2.24,2.24,0,0,0-.57-1,1.79,1.79,0,0,0-.83-.45,3.77,3.77,0,0,0-1-.11,2.79,2.79,0,0,0-1.5.45,4.78,4.78,0,0,0-1.26,1.24,6.43,6.43,0,0,0-.89,1.84,7.24,7.24,0,0,0-.35,2.24v8.72h-6V66.5h5.94V79.78A6.94,6.94,0,0,1,274.3,78a8.39,8.39,0,0,1,3-.51,9.36,9.36,0,0,1,2.59.35A6.45,6.45,0,0,1,282.17,79a5.52,5.52,0,0,1,1.62,2,7,7,0,0,1,.63,3.11V97.33Z"/><path class="cls-2" d="M298.64,72.09a2.46,2.46,0,0,1-1,2,4.14,4.14,0,0,1-5,0A2.65,2.65,0,0,1,291.53,72a2.41,2.41,0,0,1,1-2.06,4.27,4.27,0,0,1,3.93-.61,3.45,3.45,0,0,1,1.13.63,3.23,3.23,0,0,1,.76,1A2.36,2.36,0,0,1,298.64,72.09Zm-6.75,25.24V77.53h6v19.8Z"/><path class="cls-2" d="M318.93,91.84a5.68,5.68,0,0,1-1.91,4.5A7.87,7.87,0,0,1,311.66,98a22.39,22.39,0,0,1-4.56-.45,13.6,13.6,0,0,1-3.61-1.21l.77-4.59a15.34,15.34,0,0,0,6.84,2,2,2,0,0,0,1.42-.43,1.32,1.32,0,0,0,.42-1,1.79,1.79,0,0,0-.33-1.11,5.39,5.39,0,0,0-1.65-1,27.22,27.22,0,0,1-3.17-1.62,11,11,0,0,1-2.16-1.69A5.75,5.75,0,0,1,304.42,85a6.1,6.1,0,0,1-.39-2.25,5.09,5.09,0,0,1,2.18-4.39,9.61,9.61,0,0,1,5.68-1.55,17.9,17.9,0,0,1,3.36.29,15.77,15.77,0,0,1,3.36,1.15l-.72,4.55a10.53,10.53,0,0,0-3.09-1.24,13.66,13.66,0,0,0-3-.34,2,2,0,0,0-1.43.38,1.38,1.38,0,0,0-.39,1,1.47,1.47,0,0,0,.62,1.23A12.43,12.43,0,0,0,313,85.13a30.15,30.15,0,0,1,2.74,1.55,10.15,10.15,0,0,1,1.84,1.53,5.08,5.08,0,0,1,1,1.67A6,6,0,0,1,318.93,91.84Z"/><path class="cls-2" d="M344.26,86.26a15.54,15.54,0,0,1-.62,4.5,11,11,0,0,1-1.78,3.5,8.22,8.22,0,0,1-2.73,2.27,7.69,7.69,0,0,1-3.49.8,7.54,7.54,0,0,1-2.37-.32,6.64,6.64,0,0,1-2-1.16v14.89H325V83.46a10.32,10.32,0,0,0-.07-1.15c0-.44-.1-.9-.18-1.39s-.16-1-.27-1.46a9.39,9.39,0,0,0-.38-1.35h6.1a4.91,4.91,0,0,1,.33.88,11,11,0,0,1,.18,1.24,9.62,9.62,0,0,1,2.72-2.07,7.15,7.15,0,0,1,3.1-.63,7.93,7.93,0,0,1,3.17.62,6.91,6.91,0,0,1,2.45,1.78,8.13,8.13,0,0,1,1.59,2.76A10.7,10.7,0,0,1,344.26,86.26Zm-6,1a4.24,4.24,0,0,0-.9-2.89,3.08,3.08,0,0,0-2.46-1A3.55,3.55,0,0,0,332,84.65a5.53,5.53,0,0,0-1.07,3.56v2.61a4.78,4.78,0,0,0,3.19,1.2,3.84,3.84,0,0,0,3-1.27A5.09,5.09,0,0,0,338.28,87.26Z"/><path class="cls-2" d="M367.62,83a5.13,5.13,0,0,1-.8,2.79,6.75,6.75,0,0,1-2.26,2.14,12.59,12.59,0,0,1-3.5,1.37,19.62,19.62,0,0,1-4.59.5l-.54,0-.73,0a4.2,4.2,0,0,0,1.35,2.68,4.3,4.3,0,0,0,2.91,1,13.36,13.36,0,0,0,6.63-2v4.73a12.82,12.82,0,0,1-3.26,1.41,13.52,13.52,0,0,1-3.54.43,11.66,11.66,0,0,1-4.07-.67,8.38,8.38,0,0,1-3.08-2,8.83,8.83,0,0,1-1.94-3.06,11.32,11.32,0,0,1-.67-4,12.36,12.36,0,0,1,.79-4.52,10.45,10.45,0,0,1,2.2-3.53,9.79,9.79,0,0,1,3.4-2.3,11.4,11.4,0,0,1,4.36-.81,8.26,8.26,0,0,1,5.34,1.62A5.29,5.29,0,0,1,367.62,83Zm-6,.45a1.57,1.57,0,0,0-.61-1.24,2.36,2.36,0,0,0-1.56-.51,3.54,3.54,0,0,0-2.56,1,5.05,5.05,0,0,0-1.39,2.91,3.87,3.87,0,0,0,.72.09h.67Q361.63,85.72,361.63,83.42Z"/><path class="cls-2" d="M386.07,83.06q-.63-.14-1-.18a6.65,6.65,0,0,0-.81,0,4.56,4.56,0,0,0-3.89,1.75,8.58,8.58,0,0,0-1.33,5.23v7.51h-6v-13c0-.73,0-1.37,0-1.92a14.09,14.09,0,0,0-.11-1.52,12.44,12.44,0,0,0-.25-1.38c-.1-.46-.25-1-.43-1.57h5.68c.1.37.18.69.26,1a4.49,4.49,0,0,1,.16.74c0,.23.06.47.1.74a8.46,8.46,0,0,1,0,.94,10.28,10.28,0,0,1,2.56-2.93,4.92,4.92,0,0,1,2.86-.85,4.06,4.06,0,0,1,1.06.11,12.43,12.43,0,0,1,1.19.44Z"/><path class="cls-2" d="M404.07,91.84a5.68,5.68,0,0,1-1.91,4.5A7.89,7.89,0,0,1,396.8,98a22.32,22.32,0,0,1-4.56-.45,13.6,13.6,0,0,1-3.61-1.21l.77-4.59a15.34,15.34,0,0,0,6.84,2,2,2,0,0,0,1.42-.43,1.32,1.32,0,0,0,.42-1,1.79,1.79,0,0,0-.33-1.11,5.39,5.39,0,0,0-1.65-1,27.22,27.22,0,0,1-3.17-1.62,11,11,0,0,1-2.16-1.69A5.75,5.75,0,0,1,389.56,85a6.1,6.1,0,0,1-.39-2.25,5.09,5.09,0,0,1,2.18-4.39A9.59,9.59,0,0,1,397,76.85a18,18,0,0,1,3.36.29,15.77,15.77,0,0,1,3.36,1.15L403,82.84a10.48,10.48,0,0,0-3.1-1.24,13.5,13.5,0,0,0-2.95-.34,2,2,0,0,0-1.43.38,1.38,1.38,0,0,0-.39,1,1.45,1.45,0,0,0,.62,1.23,12.43,12.43,0,0,0,2.39,1.24,28.56,28.56,0,0,1,2.73,1.55,9.91,9.91,0,0,1,1.85,1.53,5.08,5.08,0,0,1,1,1.67A6,6,0,0,1,404.07,91.84Z"/><path class="cls-2" d="M437.63,97.33c0-.21,0-.47,0-.77s-.06-.52-.07-.85,0-.68-.07-1A7.17,7.17,0,0,1,434.51,97a9.55,9.55,0,0,1-3.83.79,7.11,7.11,0,0,1-5.75-2.43q-2.06-2.43-2.05-6.93,0-5.44,3.31-8.4t9.42-2.94c.66,0,1.27,0,1.82,0s1.1.08,1.64.16,1.11.17,1.69.29,1.22.29,1.92.5V90.85c0,.69,0,1.41,0,2.18s.08,1.46.14,2.09.12,1.49.18,2.21Zm-.94-14.67a9.25,9.25,0,0,0-1.42-.23c-.42,0-.82,0-1.19,0A4.79,4.79,0,0,0,430.24,84a6.59,6.59,0,0,0-1.38,4.44,4.4,4.4,0,0,0,.83,2.88,2.86,2.86,0,0,0,2.33,1,4.14,4.14,0,0,0,1.81-.41,4.46,4.46,0,0,0,1.49-1.15,5.58,5.58,0,0,0,1-1.75,6.76,6.76,0,0,0,.36-2.27Z"/><path class="cls-2" d="M462.07,97.33V86.09a4.63,4.63,0,0,0-.29-1.82,2.63,2.63,0,0,0-.7-1,1.77,1.77,0,0,0-.85-.39,6,6,0,0,0-.77-.06,4.14,4.14,0,0,0-.94.17,3.38,3.38,0,0,0-1.38.82,5.73,5.73,0,0,0-1.23,1.91,8.77,8.77,0,0,0-.54,3.39v8.2h-6V84.24a22.48,22.48,0,0,0-.27-3.42,11.11,11.11,0,0,0-.72-2.75h6a9.46,9.46,0,0,1,.38,1c.07.27.16.66.25,1.17a9.39,9.39,0,0,1,3.08-2.07,8.93,8.93,0,0,1,3.35-.67,6.57,6.57,0,0,1,2.63.52,6.19,6.19,0,0,1,2.09,1.47,6.77,6.77,0,0,1,1.39,2.32,8.86,8.86,0,0,1,.51,3.09v12.4Z"/><path class="cls-2" d="M489.93,97.33q0-.27-.09-.63c0-.21-.07-.45-.1-.72s-.06-.6-.09-1a8.17,8.17,0,0,1-3,2.22,9.15,9.15,0,0,1-3.56.66,9,9,0,0,1-3.59-.7,7.9,7.9,0,0,1-2.73-1.94,8.77,8.77,0,0,1-1.76-3,11.5,11.5,0,0,1-.63-3.91,13.53,13.53,0,0,1,.74-4.55,11.18,11.18,0,0,1,2.07-3.58,9.45,9.45,0,0,1,3.18-2.34,9.81,9.81,0,0,1,4.05-.83,14,14,0,0,1,2,.14,11.49,11.49,0,0,1,2.2.58V66h6V90.49c0,.51,0,1.15.06,1.93s.1,1.53.16,2.25.14,1.73.23,2.66Zm-1.31-14.45a6.36,6.36,0,0,0-1.66-.45,13.83,13.83,0,0,0-1.61-.09,4.55,4.55,0,0,0-3.63,1.55,6.34,6.34,0,0,0-1.33,4.26,4.64,4.64,0,0,0,.93,3.08,3.22,3.22,0,0,0,2.58,1.1,5.31,5.31,0,0,0,1.84-.31,3.44,3.44,0,0,0,1.5-1.08,5.73,5.73,0,0,0,1-2,10.76,10.76,0,0,0,.37-3.08Z"/><path class="cls-2" d="M527.1,85.63l9.58,11.7h-7.92l-7.47-9.77v9.77h-6V66h6V84.05l7.29-6.52h8.6Z"/><path class="cls-2" d="M556.89,83a5.13,5.13,0,0,1-.8,2.79,6.85,6.85,0,0,1-2.26,2.14,12.54,12.54,0,0,1-3.51,1.37,19.47,19.47,0,0,1-4.58.5l-.55,0-.72,0a4.1,4.1,0,0,0,1.35,2.68,4.3,4.3,0,0,0,2.91,1,13.36,13.36,0,0,0,6.63-2v4.73a12.73,12.73,0,0,1-3.27,1.41,13.39,13.39,0,0,1-3.53.43,11.62,11.62,0,0,1-4.07-.67,8.3,8.3,0,0,1-3.08-2,8.83,8.83,0,0,1-1.94-3.06,11.32,11.32,0,0,1-.67-4,12.58,12.58,0,0,1,.78-4.52,10.47,10.47,0,0,1,2.21-3.53,9.7,9.7,0,0,1,3.4-2.3,11.4,11.4,0,0,1,4.36-.81,8.21,8.21,0,0,1,5.33,1.62A5.27,5.27,0,0,1,556.89,83Zm-6,.45a1.59,1.59,0,0,0-.62-1.24,2.35,2.35,0,0,0-1.55-.51,3.58,3.58,0,0,0-2.57,1,5.11,5.11,0,0,0-1.38,2.91,3.87,3.87,0,0,0,.72.09h.66Q550.9,85.72,550.9,83.42Z"/><path class="cls-2" d="M579,83a5.13,5.13,0,0,1-.8,2.79,6.75,6.75,0,0,1-2.26,2.14,12.59,12.59,0,0,1-3.5,1.37,19.62,19.62,0,0,1-4.59.5l-.54,0-.73,0a4.2,4.2,0,0,0,1.35,2.68,4.3,4.3,0,0,0,2.91,1,13.3,13.3,0,0,0,6.63-2v4.73a12.82,12.82,0,0,1-3.26,1.41,13.44,13.44,0,0,1-3.53.43,11.72,11.72,0,0,1-4.08-.67,8.38,8.38,0,0,1-3.08-2,8.81,8.81,0,0,1-1.93-3.06,11.31,11.31,0,0,1-.68-4,12.36,12.36,0,0,1,.79-4.52,10.45,10.45,0,0,1,2.2-3.53,9.79,9.79,0,0,1,3.4-2.3,11.45,11.45,0,0,1,4.37-.81A8.23,8.23,0,0,1,577,78.65,5.29,5.29,0,0,1,579,83Zm-6,.45a1.59,1.59,0,0,0-.62-1.24,2.36,2.36,0,0,0-1.56-.51,3.56,3.56,0,0,0-2.56,1,5,5,0,0,0-1.38,2.91,3.69,3.69,0,0,0,.71.09h.67Q573,85.72,573,83.42Z"/><path class="cls-2" d="M603.51,86.26a15.2,15.2,0,0,1-.63,4.5,10.79,10.79,0,0,1-1.78,3.5,8.22,8.22,0,0,1-2.73,2.27,7.69,7.69,0,0,1-3.49.8,7.43,7.43,0,0,1-2.36-.32,6.56,6.56,0,0,1-2-1.16v14.89h-6.3V83.46a10.32,10.32,0,0,0-.07-1.15c0-.44-.1-.9-.18-1.39s-.16-1-.27-1.46a9.39,9.39,0,0,0-.38-1.35h6.1a4.25,4.25,0,0,1,.33.88c.06.25.12.67.19,1.24a9.59,9.59,0,0,1,2.71-2.07,7.15,7.15,0,0,1,3.1-.63,7.93,7.93,0,0,1,3.17.62,7,7,0,0,1,2.46,1.78,8.11,8.11,0,0,1,1.58,2.76A10.69,10.69,0,0,1,603.51,86.26Zm-6,1a4.29,4.29,0,0,0-.89-2.89,3.1,3.1,0,0,0-2.47-1,3.56,3.56,0,0,0-2.91,1.32,5.53,5.53,0,0,0-1.06,3.56v2.61a4.74,4.74,0,0,0,3.18,1.2,3.84,3.84,0,0,0,3-1.27A5.09,5.09,0,0,0,597.52,87.26Z"/><path class="cls-2" d="M636.13,110.74V94.86a8.51,8.51,0,0,1-2.59,1.87,7.07,7.07,0,0,1-2.95.6,8.3,8.3,0,0,1-3.28-.63A7.22,7.22,0,0,1,624.77,95a7.86,7.86,0,0,1-1.64-2.7,9.61,9.61,0,0,1-.59-3.45,13.07,13.07,0,0,1,.8-4.67,9.14,9.14,0,0,1,2.39-3.56,11,11,0,0,1,4.06-2.25,18.81,18.81,0,0,1,5.75-.79,26.94,26.94,0,0,1,3.86.26,28.05,28.05,0,0,1,3,.62v32.33Zm.36-27.48a8.74,8.74,0,0,0-1.18-.2,9.57,9.57,0,0,0-1,0,6.52,6.52,0,0,0-4.26,1.26,4.35,4.35,0,0,0-1.53,3.55,3.67,3.67,0,0,0,1,2.69,3.61,3.61,0,0,0,2.69,1,3.9,3.9,0,0,0,3.11-1.24,5.4,5.4,0,0,0,1.14-3.53Z"/><path class="cls-2" d="M662.27,96.79a9.5,9.5,0,0,1-.38-1c-.07-.27-.16-.66-.25-1.17a8.81,8.81,0,0,1-6.34,2.75,6.66,6.66,0,0,1-2.68-.55,7,7,0,0,1-2.16-1.51A6.74,6.74,0,0,1,649,93a8.84,8.84,0,0,1-.49-3c0-1.22,0-2.36.09-3.41s.1-2.06.13-3,0-1.92,0-2.89-.1-2-.22-3.06h6c.09,1,.15,1.93.16,2.84s0,1.81,0,2.71,0,1.81-.09,2.73-.07,1.91-.07,3a4.87,4.87,0,0,0,.29,1.85A2,2,0,0,0,656.46,92a6.53,6.53,0,0,0,.79.07,4.35,4.35,0,0,0,1-.18,3,3,0,0,0,1.36-.82,5.55,5.55,0,0,0,1.2-1.91,9.23,9.23,0,0,0,.51-3.39V77.53h6V90.61a22.48,22.48,0,0,0,.27,3.42,11.08,11.08,0,0,0,.72,2.76Z"/><path class="cls-2" d="M681.62,72.09a2.45,2.45,0,0,1-1,2,4.16,4.16,0,0,1-5,0A2.71,2.71,0,0,1,674.51,72a2.44,2.44,0,0,1,1-2.06,4.3,4.3,0,0,1,3.94-.61,3.45,3.45,0,0,1,1.13.63,3.23,3.23,0,0,1,.76,1A2.35,2.35,0,0,1,681.62,72.09Zm-6.75,25.24V77.53h6v19.8Z"/><path class="cls-2" d="M704.84,83a5,5,0,0,1-.8,2.79,6.72,6.72,0,0,1-2.25,2.14,12.79,12.79,0,0,1-3.51,1.37,19.5,19.5,0,0,1-4.59.5l-.54,0-.73,0a4.2,4.2,0,0,0,1.35,2.68,4.31,4.31,0,0,0,2.91,1,13.3,13.3,0,0,0,6.63-2v4.73a12.68,12.68,0,0,1-3.26,1.41,13.39,13.39,0,0,1-3.53.43,11.62,11.62,0,0,1-4.07-.67,8.34,8.34,0,0,1-3.09-2,8.81,8.81,0,0,1-1.93-3.06,11.31,11.31,0,0,1-.68-4,12.58,12.58,0,0,1,.79-4.52,10.47,10.47,0,0,1,2.21-3.53,9.66,9.66,0,0,1,3.39-2.3,11.45,11.45,0,0,1,4.37-.81,8.21,8.21,0,0,1,5.33,1.62A5.26,5.26,0,0,1,704.84,83Zm-6,.45a1.59,1.59,0,0,0-.62-1.24,2.35,2.35,0,0,0-1.55-.51,3.57,3.57,0,0,0-2.57,1,5.11,5.11,0,0,0-1.38,2.91,3.69,3.69,0,0,0,.71.09h.67Q698.86,85.72,698.86,83.42Z"/><path class="cls-2" d="M710.33,97.33V81.8h-4V77.53h4v-5h5.9v5h5.08V81.8h-5.08V97.33Z"/><path class="cls-2" d="M745.88,72.09a2.45,2.45,0,0,1-1,2,4.16,4.16,0,0,1-5,0A2.71,2.71,0,0,1,738.77,72a2.44,2.44,0,0,1,1-2.06,4.3,4.3,0,0,1,3.94-.61,3.55,3.55,0,0,1,1.13.63,3.23,3.23,0,0,1,.76,1A2.35,2.35,0,0,1,745.88,72.09Zm-6.75,25.24V77.53h6v19.8Z"/><path class="cls-2" d="M764.69,97.33V86.09a4.63,4.63,0,0,0-.29-1.82,2.63,2.63,0,0,0-.7-1,1.77,1.77,0,0,0-.85-.39,6,6,0,0,0-.77-.06,4.14,4.14,0,0,0-.94.17,3.38,3.38,0,0,0-1.38.82,5.73,5.73,0,0,0-1.23,1.91,8.77,8.77,0,0,0-.54,3.39v8.2h-6V84.24a22.48,22.48,0,0,0-.27-3.42,11.11,11.11,0,0,0-.72-2.75h6a9.46,9.46,0,0,1,.38,1c.07.27.16.66.25,1.17a9.39,9.39,0,0,1,3.08-2.07,8.93,8.93,0,0,1,3.35-.67,6.57,6.57,0,0,1,2.63.52,6.19,6.19,0,0,1,2.09,1.47,6.77,6.77,0,0,1,1.39,2.32,8.86,8.86,0,0,1,.51,3.09v12.4Z"/><path class="cls-2" d="M805.77,97.33c0-.21,0-.47,0-.77s-.06-.52-.07-.85,0-.68-.07-1A7.17,7.17,0,0,1,802.65,97a9.55,9.55,0,0,1-3.83.79,7.11,7.11,0,0,1-5.75-2.43Q791,92.92,791,88.42q0-5.44,3.3-8.4t9.43-2.94c.66,0,1.27,0,1.82,0s1.1.08,1.64.16,1.11.17,1.69.29,1.22.29,1.92.5V90.85c0,.69,0,1.41,0,2.18s.08,1.46.14,2.09.12,1.49.18,2.21Zm-.94-14.67a9.25,9.25,0,0,0-1.42-.23c-.42,0-.82,0-1.19,0A4.79,4.79,0,0,0,798.38,84,6.59,6.59,0,0,0,797,88.42a4.4,4.4,0,0,0,.83,2.88,2.86,2.86,0,0,0,2.33,1,4.14,4.14,0,0,0,1.81-.41,4.46,4.46,0,0,0,1.49-1.15,5.58,5.58,0,0,0,1-1.75,6.76,6.76,0,0,0,.36-2.27Z"/><path class="cls-2" d="M831.47,97.33V66h6V97.33Z"/><path class="cls-2" d="M851.4,72.09a2.45,2.45,0,0,1-1,2,3.87,3.87,0,0,1-2.48.83,3.82,3.82,0,0,1-2.51-.84A2.65,2.65,0,0,1,844.3,72a2.39,2.39,0,0,1,1-2.06,4,4,0,0,1,2.6-.84,4,4,0,0,1,1.33.23,3.45,3.45,0,0,1,1.13.63,3.23,3.23,0,0,1,.76,1A2.35,2.35,0,0,1,851.4,72.09Zm-6.75,25.24V77.53h6v19.8Z"/><path class="cls-2" d="M877.32,86a13.48,13.48,0,0,1-.77,4.66,9.75,9.75,0,0,1-5.7,5.86,11.84,11.84,0,0,1-4.51.82,23.26,23.26,0,0,1-4.5-.47,20.84,20.84,0,0,1-4.23-1.28V66.46h6V79.83a7.12,7.12,0,0,1,2.57-1.73,8.89,8.89,0,0,1,3.26-.57,8.62,8.62,0,0,1,3.22.59,6.78,6.78,0,0,1,2.5,1.72,7.61,7.61,0,0,1,1.6,2.67A10.08,10.08,0,0,1,877.32,86Zm-6,1.09a3.9,3.9,0,0,0-.91-2.75,3.23,3.23,0,0,0-2.54-1,4.2,4.2,0,0,0-4,2.81,5.2,5.2,0,0,0-.29,1.71v3.42a5.37,5.37,0,0,0,1.42.53,8.82,8.82,0,0,0,1.64.13,4.63,4.63,0,0,0,3.47-1.29A4.85,4.85,0,0,0,871.34,87.08Z"/><path class="cls-2" d="M896.49,83.06q-.63-.14-1-.18a6.65,6.65,0,0,0-.81,0,4.58,4.58,0,0,0-3.89,1.75,8.65,8.65,0,0,0-1.33,5.23v7.51h-6v-13c0-.73,0-1.37,0-1.92s-.06-1-.12-1.52-.14-.93-.24-1.38-.25-1-.43-1.57h5.68c.09.37.18.69.25,1a4.57,4.57,0,0,1,.17.74c0,.23.06.47.09.74a8.2,8.2,0,0,1,0,.94,10.13,10.13,0,0,1,2.56-2.93,4.87,4.87,0,0,1,2.85-.85,4,4,0,0,1,1.06.11,11.51,11.51,0,0,1,1.19.44Z"/><path class="cls-2" d="M913.1,97.33c0-.21,0-.47-.05-.77S913,96,913,95.71s0-.68-.07-1A7.17,7.17,0,0,1,910,97a9.55,9.55,0,0,1-3.83.79,7.12,7.12,0,0,1-5.75-2.43q-2.05-2.43-2-6.93,0-5.44,3.31-8.4t9.42-2.94c.67,0,1.27,0,1.82,0s1.1.08,1.64.16,1.11.17,1.69.29,1.22.29,1.92.5V90.85c0,.69,0,1.41,0,2.18s.08,1.46.14,2.09.12,1.49.18,2.21Zm-1-14.67a9.25,9.25,0,0,0-1.42-.23c-.42,0-.82,0-1.19,0A4.79,4.79,0,0,0,905.7,84a6.59,6.59,0,0,0-1.38,4.44,4.4,4.4,0,0,0,.83,2.88,2.86,2.86,0,0,0,2.33,1,4.14,4.14,0,0,0,1.81-.41,4.46,4.46,0,0,0,1.49-1.15,5.58,5.58,0,0,0,1-1.75,6.76,6.76,0,0,0,.36-2.27Z"/><path class="cls-2" d="M938.3,83.06q-.63-.14-1-.18a6.65,6.65,0,0,0-.81,0,4.56,4.56,0,0,0-3.89,1.75,8.58,8.58,0,0,0-1.33,5.23v7.51h-6v-13c0-.73,0-1.37,0-1.92s0-1-.11-1.52a12.44,12.44,0,0,0-.25-1.38c-.11-.46-.25-1-.43-1.57h5.68c.1.37.18.69.26,1a4.49,4.49,0,0,1,.16.74c0,.23.06.47.09.74a6.41,6.41,0,0,1,.05.94,10.28,10.28,0,0,1,2.56-2.93,4.92,4.92,0,0,1,2.86-.85,4.06,4.06,0,0,1,1.06.11,12.43,12.43,0,0,1,1.19.44Z"/><path class="cls-2" d="M959.8,103.8a9.74,9.74,0,0,1-2,4.14,7.06,7.06,0,0,1-3.42,2.17,17.22,17.22,0,0,1-5,.63,14.18,14.18,0,0,1-2.89-.3,28.22,28.22,0,0,1-3-.78v-4.5c1,.08,1.93.14,2.82.19s1.77.08,2.64.08a6.35,6.35,0,0,0,2.42-.42,3.72,3.72,0,0,0,1.67-1.36,6.53,6.53,0,0,0,.94-2.5,20.53,20.53,0,0,0,.3-3.82V94.9a7.73,7.73,0,0,1-5.63,2.43,6.51,6.51,0,0,1-2.58-.53A6,6,0,0,1,944,95.28a7.53,7.53,0,0,1-1.44-2.38,8.58,8.58,0,0,1-.54-3.14c0-1.06,0-2.07,0-3s.05-1.93.05-2.9,0-2,0-3-.07-2.13-.16-3.3h6c.09,1.19.15,2.29.16,3.31s0,2,0,2.88,0,1.77,0,2.6,0,1.65,0,2.47a3.67,3.67,0,0,0,.67,2.46,2.39,2.39,0,0,0,1.91.77,3.61,3.61,0,0,0,2.75-1.25,4.71,4.71,0,0,0,1.15-3.34v-9.9h6v19.8A27.4,27.4,0,0,1,959.8,103.8Z"/><path class="cls-2" d="M974.34,94.56a2.42,2.42,0,0,1-1,2,4,4,0,0,1-2.49.8,3.81,3.81,0,0,1-2.5-.86,2.59,2.59,0,0,1-1.05-2.07,2.56,2.56,0,0,1,1-2,3.54,3.54,0,0,1,2.39-.84,4,4,0,0,1,2.62.89A2.7,2.7,0,0,1,974.34,94.56Z"/></svg>