<svg xmlns="http://www.w3.org/2000/svg" xmlns:xlink="http://www.w3.org/1999/xlink" viewBox="0 0 550 400"><defs><style>.cls-1{fill:none;}.cls-2{isolation:isolate;}.cls-3{clip-path:url(#clip-path);}.cls-4{fill:#dde541;stroke:#1a2668;stroke-miterlimit:10;}.cls-5{opacity:0.3;}.cls-6{fill:#331b39;}.cls-7{fill:#3f2949;}.cls-8{fill:#2c1533;}.cls-9{fill:#341c3b;}.cls-10{fill:#4b3757;}.cls-11{fill:#c2b5c1;}.cls-12{fill:#a897a8;}.cls-13{fill:#958194;}.cls-14{fill:#e2dfe5;}.cls-15{fill:#5c4b6c;}.cls-16{fill:#eeecf1;}.cls-17{fill:#b2a1b0;}.cls-18{fill:#998698;}.cls-19{fill:#c51a30;}.cls-20,.cls-42{fill:#de3848;}.cls-21{fill:#d8d8d8;}.cls-22{fill:#e5e5e5;}.cls-23{fill:#fcfcfc;}.cls-24{fill:#b8abb9;}.cls-25{fill:#c6bbc6;}.cls-26{fill:#5084b6;}.cls-27{fill:#4174a8;}.cls-28{fill:#b6a7b5;}.cls-29{fill:#e0e0e0;}.cls-30{fill:#e8e8e8;}.cls-31{opacity:0.7;}.cls-32{fill:#65859e;}.cls-33{fill:#759cb1;}.cls-34{fill:#eeecf0;}.cls-35{fill:#f1f0f2;}.cls-35,.cls-36{mix-blend-mode:multiply;}.cls-36{fill:#ded4db;}.cls-37{fill:#3c284a;}.cls-38{fill:#f48d2b;}.cls-39{fill:#ba192f;}.cls-40{fill:#ff952c;}.cls-41{fill:#c7b8c3;}.cls-42{font-size:17.84px;font-family:SassoonSansUSRg, Sassoon Sans US;}.cls-43{fill:#281535;}</style><clipPath id="clip-path"><rect class="cls-1" x="18" y="-479" width="476" height="458"/></clipPath></defs><g class="cls-2"><g id="Layer_1" data-name="Layer 1"><g class="cls-3"><path class="cls-4" d="M366.86-198.55s53.27,97,70.6,119.54-99.18,97-99.18,97L323.55-13.18l57.6-61.5-38.11-55Z"/><path class="cls-4" d="M368.16-196.82a225.85,225.85,0,0,0-32.05-20.35c-5.8-3-30.81-6.67-37.68-10.83l-9.09,3.9-1.46,0c-23.25.55-15.93-8.7-66.54,17.51h0v16.89s-14.29,44.5-19.81,113-10.4,68.21-10.4,68.21,115,19.17,139-1.62c0,0,12.88-56.85,22.41-98.86l1.15-7.69"/></g><ellipse class="cls-5" cx="273.48" cy="311" rx="262.5" ry="18.5"/><path class="cls-6" d="M473.57,233.75c-15.18,0-27.5,17.41-27.5,38.89s12.32,38.89,27.5,38.89,27.5-17.41,27.5-38.89S488.76,233.75,473.57,233.75Z"/><path class="cls-7" d="M473.57,311.53h24.07c15.18,0,27.49-17.41,27.49-38.89s-12.31-38.89-27.49-38.89H473.57c15.19,0,27.5,17.41,27.5,38.89S488.76,311.53,473.57,311.53Z"/><path class="cls-6" d="M233.31,233.75c-15.19,0-27.5,17.41-27.5,38.89s12.31,38.89,27.5,38.89,27.5-17.41,27.5-38.89S248.5,233.75,233.31,233.75Z"/><path class="cls-7" d="M233.31,311.53h24.07c15.18,0,27.49-17.41,27.49-38.89s-12.31-38.89-27.49-38.89H233.31c15.19,0,27.5,17.41,27.5,38.89S248.5,311.53,233.31,311.53Z"/><path class="cls-8" d="M514.26,282.86H412.35V272.64H517.26v7.23A3,3,0,0,1,514.26,282.86Z"/><path class="cls-9" d="M412.35,282.86H380.07V272.64h35.27v7.23A3,3,0,0,1,412.35,282.86Z"/><path class="cls-9" d="M71.74,272.64c0-22.75,15.5-41.2,34.63-41.2S141,249.89,141,272.64h0v10.22H71.74V272.64Z"/><rect class="cls-7" x="71.74" y="272.64" width="69.25" height="10.22"/><path class="cls-10" d="M106.26,233.75c-15.19,0-27.5,17.41-27.5,38.89s12.31,38.89,27.5,38.89,27.5-17.41,27.5-38.89S121.44,233.75,106.26,233.75Z"/><path class="cls-7" d="M106.26,311.53h24.06c15.19,0,27.5-17.41,27.5-38.89s-12.31-38.89-27.5-38.89H106.26c15.18,0,27.5,17.41,27.5,38.89S121.44,311.53,106.26,311.53Z"/><path class="cls-11" d="M105.19,251.15c-8.39,0-15.19,9.62-15.19,21.49s6.8,21.49,15.19,21.49,15.2-9.62,15.2-21.49S113.58,251.15,105.19,251.15Z"/><path class="cls-12" d="M105.19,252.94c-7.69,0-13.93,8.82-13.93,19.7s6.24,19.7,13.93,19.7,13.93-8.82,13.93-19.7S112.88,252.94,105.19,252.94Z"/><path class="cls-11" d="M104.48,258.1c-5.68,0-10.28,6.51-10.28,14.54s4.6,14.54,10.28,14.54,10.28-6.51,10.28-14.54S110.16,258.1,104.48,258.1Z"/><path class="cls-12" d="M104.13,262.11c-4.12,0-7.45,4.72-7.45,10.53s3.33,10.53,7.45,10.53,7.44-4.71,7.44-10.53S108.24,262.11,104.13,262.11Z"/><path class="cls-9" d="M312,272.64c2.35-20.34,18.73-44.25,38-44.25,15.61,0,26.13,15.38,30.1,31.72a64.79,64.79,0,0,1,.93,12.53h0v10.22H312V272.64Z"/><rect class="cls-7" x="312" y="272.64" width="29.94" height="10.22"/><path class="cls-10" d="M346.52,233.75c-15.19,0-27.5,17.41-27.5,38.89s12.31,38.89,27.5,38.89S374,294.12,374,272.64,361.71,233.75,346.52,233.75Z"/><path class="cls-7" d="M346.52,311.53h24.07c15.18,0,27.49-17.41,27.49-38.89s-12.31-38.89-27.49-38.89H346.52c15.19,0,27.5,17.41,27.5,38.89S361.71,311.53,346.52,311.53Z"/><path class="cls-11" d="M345.45,251.15c-8.39,0-15.19,9.62-15.19,21.49s6.8,21.49,15.19,21.49,15.2-9.62,15.2-21.49S353.85,251.15,345.45,251.15Z"/><path class="cls-12" d="M345.45,252.94c-7.69,0-13.93,8.82-13.93,19.7s6.24,19.7,13.93,19.7,13.93-8.82,13.93-19.7S353.15,252.94,345.45,252.94Z"/><path class="cls-11" d="M344.74,258.1c-5.68,0-10.28,6.51-10.28,14.54s4.6,14.54,10.28,14.54S355,280.67,355,272.64,350.42,258.1,344.74,258.1Z"/><path class="cls-12" d="M344.39,262.11c-4.11,0-7.45,4.72-7.45,10.53s3.34,10.53,7.45,10.53,7.44-4.71,7.44-10.53S348.5,262.11,344.39,262.11Z"/><path class="cls-7" d="M479.58,193.68a1.78,1.78,0,0,1-1.78-1.77V179.83c0-.58.36-1.06.79-1.06h2v14.91Z"/><path class="cls-10" d="M482.54,193.68h-2V178.77h3.74v13.14A1.78,1.78,0,0,1,482.54,193.68Z"/><path class="cls-13" d="M483.61,171.57c-2.81,0-5.09,3.22-5.09,7.2s2.28,7.2,5.09,7.2,5.09-3.23,5.09-7.2S486.42,171.57,483.61,171.57Z"/><path class="cls-13" d="M483.61,171.57h-2.38c-2.81,0-5.09,3.22-5.09,7.2s2.28,7.2,5.09,7.2h2.38c-2.81,0-5.09-3.23-5.09-7.2S480.8,171.57,483.61,171.57Z"/><path class="cls-14" d="M483.76,185.26c2.33,0,4.23-2.91,4.23-6.49s-1.9-6.49-4.23-6.49-4.24,2.91-4.24,6.49S481.42,185.26,483.76,185.26Z"/><rect class="cls-15" x="457.13" y="166.7" width="17.24" height="17.24" rx="3.19"/><path class="cls-14" d="M536.48,208.46l-8.26-11.85a6,6,0,0,0-4.2-2.74l-44.5-4.59a2.54,2.54,0,0,1-1.91-1.57l-46.46-74.59a4.76,4.76,0,0,0-4.09-3.08H174.35a14.22,14.22,0,0,0-4.14,8l-12,65.84a58.8,58.8,0,0,0-.95,10.55v41.57a49.92,49.92,0,0,0,.95,9.73l1.63,8.18,6.75,14.41c1.25,2.67,3.37,4.27,5.63,4.27H312c2.35-20.34,18.73-44.25,38-44.25,15.61,0,26.13,15.38,30.1,31.72a64.79,64.79,0,0,1,.93,12.53H524.44c7.63,0,13.8-8.72,13.8-19.47V214.52A10.68,10.68,0,0,0,536.48,208.46ZM438.69,181H396.22c-1.13,0-2.22-1.27-2.44-2.84l-7.59-54c-.22-1.57.51-2.85,1.64-2.85h35.58c3.51,0,5.61,4.3,6,5.94l10.32,51.85C439.9,180.15,439.44,181,438.69,181Zm4.81,0c-.66,0-1.31-.71-1.5-1.63l-9.49-47.85c-.07-.38.26-.55.45-.23l24.17,38.84v10.59c0,.1,0,.19,0,.28Z"/><path class="cls-16" d="M375.44,193.87l-44.5-4.59a2,2,0,0,1-1-.43H478.5a2,2,0,0,0,1,.43l44.5,4.59a5.25,5.25,0,0,1,2.81,1.23H378.25A5.25,5.25,0,0,0,375.44,193.87Z"/><path class="cls-12" d="M381.84,275.49H539.11a3.56,3.56,0,0,0,3.55-3.56v-8.26a3.56,3.56,0,0,0-3.55-3.56h-159v13.6A1.78,1.78,0,0,0,381.84,275.49Z"/><path class="cls-17" d="M452,275.49a3.56,3.56,0,0,0,3.55-3.56v-8.26a3.56,3.56,0,0,0-3.55-3.56h23.57v15.38Z"/><path class="cls-18" d="M475.55,260.11a3.56,3.56,0,0,1,3.56,3.56v8.26a3.56,3.56,0,0,1-3.56,3.56Z"/><path class="cls-19" d="M427.06,110H163l.08-5.92a1.49,1.49,0,0,1,1.62-1.63H414.63a5.35,5.35,0,0,1,3.07,1Z"/><path class="cls-20" d="M35.84,110H299.92l-.08-5.92a1.49,1.49,0,0,0-1.63-1.63H47.4Z"/><path class="cls-14" d="M367.88,77.83H166.57c-1.08,0-1.86,1-1.93,2.44l-1,22.22H380.1l-9.38-22.22A3.53,3.53,0,0,0,367.88,77.83Z"/><path class="cls-21" d="M164.64,77.83H340.58V73.49a3,3,0,0,0-3-3h-170a3,3,0,0,0-3,3Z"/><path class="cls-21" d="M85,77.83H261V73.49a3,3,0,0,0-3-3H88a3,3,0,0,0-3,3Z"/><path class="cls-22" d="M59.53,77.83h201.3c1.09,0,1.87,1,1.94,2.44l1.05,22.22H47.31l9.37-22.22A3.54,3.54,0,0,1,59.53,77.83Z"/><path class="cls-20" d="M231.74,98.81h8a4.39,4.39,0,0,0,4.13-3.48L245.82,85A2.81,2.81,0,0,0,243,81.51h-8A4.39,4.39,0,0,0,230.85,85l-1.93,10.34A2.8,2.8,0,0,0,231.74,98.81Z"/><path class="cls-23" d="M199.71,98.81h8a4.39,4.39,0,0,0,4.13-3.48L213.79,85A2.81,2.81,0,0,0,211,81.51h-8A4.39,4.39,0,0,0,198.82,85l-1.93,10.34A2.8,2.8,0,0,0,199.71,98.81Z"/><path class="cls-23" d="M102.64,98.81h8a4.39,4.39,0,0,0,4.13-3.48L116.72,85a2.81,2.81,0,0,0-2.83-3.48h-8A4.39,4.39,0,0,0,101.75,85L99.81,95.33A2.81,2.81,0,0,0,102.64,98.81Z"/><path class="cls-20" d="M70.61,98.81h8a4.39,4.39,0,0,0,4.13-3.48L84.69,85a2.81,2.81,0,0,0-2.83-3.48h-8A4.39,4.39,0,0,0,69.72,85L67.79,95.33A2.8,2.8,0,0,0,70.61,98.81Z"/><path class="cls-24" d="M272.15,94.91v2.73c0,1,.55,1.83,1.23,1.83h18.49c.68,0,1.23-.82,1.23-1.83V94.91Z"/><path class="cls-25" d="M293.1,97.64V94.91H406.48v2.73c0,1-.54,1.83-1.22,1.83H291.87C292.55,99.47,293.1,98.65,293.1,97.64Z"/><path class="cls-26" d="M401.38,76.69c.52,0,1,.5,1.16,1.23l3.94,17H370.3l-3.95-17c-.17-.73-.63-1.23-1.16-1.23Z"/><path class="cls-14" d="M354.46,76.69c-.52,0-1,.5-1.16,1.23l-3.95,17H370.3l-3.95-17c-.17-.73-.63-1.23-1.16-1.23Z"/><path class="cls-11" d="M362.78,76.69c.52,0,1,.5,1.16,1.23l3.94,17H331.7l-3.95-17c-.17-.73-.63-1.23-1.16-1.23Z"/><path class="cls-14" d="M315.51,76.69c-.52,0-1,.5-1.16,1.23l-4,17h21.3l-3.95-17c-.17-.73-.63-1.23-1.16-1.23Z"/><path class="cls-26" d="M324.18,76.69c.52,0,1,.5,1.16,1.23l3.94,17H293.1l-4-17c-.17-.73-.63-1.23-1.16-1.23Z"/><path class="cls-27" d="M277.26,76.69c-.52,0-1,.5-1.16,1.23l-4,17h21l-4-17c-.17-.73-.63-1.23-1.16-1.23Z"/><polygon class="cls-12" points="286.38 99.47 282.57 99.47 279.33 102.49 283.15 102.49 286.38 99.47"/><polygon class="cls-28" points="291.13 99.47 286.38 99.47 283.15 102.49 287.89 102.49 291.13 99.47"/><polygon class="cls-12" points="391.45 99.47 396.1 99.47 399.34 102.49 394.69 102.49 391.45 99.47"/><polygon class="cls-28" points="387.55 99.47 391.45 99.47 394.69 102.49 390.78 102.49 387.55 99.47"/><path class="cls-10" d="M469.86,181.41l-38.09-61a5.52,5.52,0,0,0-4.69-2.6H313.64a3.38,3.38,0,0,0-3.2,4.47l19.84,58.59a5.53,5.53,0,0,0,5.23,3.76H468.1A2.08,2.08,0,0,0,469.86,181.41ZM438.69,181H396.22c-1.13,0-2.22-1.27-2.44-2.84l-7.59-54c-.22-1.57.51-2.85,1.64-2.85h35.58c3.51,0,5.61,4.3,6,5.94l10.32,51.85C439.9,180.15,439.44,181,438.69,181Zm4.81,0c-.66,0-1.31-.71-1.5-1.63l-9.49-47.85c-.07-.38.26-.55.45-.23l24.17,38.84v10.59c0,.1,0,.19,0,.28Z"/><path class="cls-11" d="M28.9,253.84H10.23a2.89,2.89,0,0,0-2.89,2.89v15.91H28.9Z"/><path class="cls-11" d="M71.74,282.86H10.23A2.89,2.89,0,0,1,7.34,280v-7.33h64.4Z"/><path class="cls-29" d="M10.55,183.93l21.07-65.84c1.29-4.09,2.85-7,4.22-8H299.39c1.64,0,3.17,1.15,4.09,3.08L329,187.71a2.52,2.52,0,0,0,1.91,1.57l44.5,4.59a6,6,0,0,1,4.2,2.74l8.26,11.85a10.68,10.68,0,0,1,1.76,6.06v38.65c0,8.19-3.59,15.21-8.67,18.08a59.49,59.49,0,0,0-.92-11.14c-4-16.34-14.49-31.72-30.1-31.72-19.24,0-35.62,23.91-38,44.25H141c0-22.75-15.5-41.2-34.62-41.2s-34.63,18.45-34.63,41.2H23.62c-2.27,0-4.38-1.6-5.63-4.27L11.23,254l-1.62-8.18a49.92,49.92,0,0,1-.95-9.73V194.48A35.07,35.07,0,0,1,10.55,183.93Z"/><path class="cls-20" d="M267.13,252.66a1.37,1.37,0,0,1,.29-1.49l4-3.22a.46.46,0,0,0,0-.64l-4-3.22a1.37,1.37,0,0,1-.29-1.49l2.53-6.18c.21-.52.69-.7,1-.4l4,3.23a.19.19,0,0,0,.26,0,.43.43,0,0,0,.13-.32v-6.45c0-.6.34-1.09.77-1.09h5.05c.43,0,.77.49.77,1.09v6.45a.43.43,0,0,0,.13.32.19.19,0,0,0,.26,0l4-3.23c.37-.3.84-.12,1.06.4l2.52,6.18a1.35,1.35,0,0,1-.28,1.49l-4,3.22a.46.46,0,0,0,0,.64l4,3.22a1.35,1.35,0,0,1,.28,1.49l-2.52,6.18c-.22.52-.69.7-1.06.4l-4-3.23a.19.19,0,0,0-.26,0,.43.43,0,0,0-.13.32v6.45c0,.6-.34,1.09-.77,1.09h-5.05c-.43,0-.77-.49-.77-1.09v-6.45a.43.43,0,0,0-.13-.32.19.19,0,0,0-.26,0l-4,3.23c-.36.3-.84.12-1-.4Z"/><path class="cls-30" d="M31.27,119.19H293.92c2.51,0,4.63,1.77,5.65,4.71l18.57,53.73c.81,2.36-.8,5.54-2.82,5.54H10.79Z"/><path class="cls-10" d="M250.44,183.17h64.88c2,0,3.63-3.18,2.82-5.54L299.57,123.9c-1-2.94-3.14-4.71-5.65-4.71h-35.1c-1.94,0-3.81,2.23-4.17,5l-7.08,54C247.21,180.94,248.5,183.17,250.44,183.17Z"/><g class="cls-31"><path class="cls-32" d="M300.83,130.48c-.11-.32-.48-.15-.51.23L296.78,179c-.07.92.39,1.63,1,1.63h18.23a1.24,1.24,0,0,0,1-.75,2,2,0,0,0,.14-1.46Z"/><path class="cls-32" d="M294.09,120.87H259c-1.11,0-2.18,1.28-2.38,2.85l-7.08,54c-.21,1.57.53,2.84,1.64,2.84h41.9c.73,0,1.43-.88,1.51-1.92l3.8-51.85C298.66,122.83,296.55,120.87,294.09,120.87Z"/><path class="cls-33" d="M312.44,164.51,297,180a1,1,0,0,0,.85.59h14.65l4.07-4.07Z"/><path class="cls-33" d="M249.57,177.4l48.67-48.66.14-1.93c.28-4-1.83-5.94-4.29-5.94H277.73l-23.88,23.89Z"/></g><path class="cls-19" d="M171.2,222.62V195.1H526.83a7.22,7.22,0,0,1,1.39,1.51l8.26,11.85a10.68,10.68,0,0,1,1.76,6.06v8.1Z"/><path class="cls-14" d="M507.3,209.61a.9.9,0,0,0,.38.5,1.13,1.13,0,0,0,.64.25h1.05c.21,0,.33-.12.29-.3l-.33-1.58h3.89l1.91,1.58a1.22,1.22,0,0,0,.71.3h1c.19,0,.3-.09.3-.25a.8.8,0,0,0-.33-.5l-9-7.42a1.22,1.22,0,0,0-.71-.3h-1c-.22,0-.33.12-.29.3Zm1.65-3-.41-2,2.44,2Z"/><path class="cls-14" d="M489,201.89h1.18a1.22,1.22,0,0,1,.68.28l5.76,4.49-.59-4.5c0-.16.09-.27.29-.27h1.2a1.34,1.34,0,0,1,.92.52l5.25,7.43c.2.28.12.52-.18.52h-.92a1.32,1.32,0,0,1-.92-.52l-2.87-4.06.48,3.52c0,.17-.09.27-.3.27h-.57a1.15,1.15,0,0,1-.68-.27l-4.53-3.53,2.87,4.07c.2.28.12.52-.19.52H495a1.32,1.32,0,0,1-.92-.52l-5.25-7.43C488.58,202.13,488.67,201.89,489,201.89Z"/><path class="cls-14" d="M479.94,207.82a6.56,6.56,0,0,0,5.37,2.54h3.61c.31,0,.39-.24.19-.52l-5.26-7.43a1.3,1.3,0,0,0-.92-.52h-3.55c-2,0-2.62.91-1.59,2.38a5.41,5.41,0,0,0,1.85,1.6C479.25,206.3,479.34,207,479.94,207.82Zm2.79-4.07.95,1.34h-2a2,2,0,0,1-1.73-.68c-.38-.54.21-.66.78-.66Zm3.37,4.76h-2a2.73,2.73,0,0,1-2.18-.81c-.48-.68.59-.76,1.08-.76h2Z"/><path class="cls-14" d="M463.89,201.89h1a1.3,1.3,0,0,1,.92.52l3.1,4.37a3.83,3.83,0,0,0,3.25,1.76c.76,0,1.87-.23.79-1.76l-3.1-4.37c-.2-.28-.12-.52.19-.52h1a1.3,1.3,0,0,1,.92.52l3.09,4.37c1.58,2.23,1,3.62-1.54,3.62a8.36,8.36,0,0,1-6.63-3.62l-3.09-4.37C463.5,202.13,463.58,201.89,463.89,201.89Z"/><path class="cls-14" d="M458,208.51h3.14l-4.32-6.1c-.2-.28-.12-.52.19-.52h1a1.3,1.3,0,0,1,.92.52l5.25,7.43c.21.28.13.52-.18.52h-4.65a1.34,1.34,0,0,1-.93-.52l-.57-.81C457.62,208.74,457.7,208.51,458,208.51Z"/><path class="cls-14" d="M445.36,209.61a.92.92,0,0,0,.39.5,1.13,1.13,0,0,0,.64.25h1.05c.21,0,.32-.12.28-.3l-.32-1.58h3.89l1.9,1.58a1.25,1.25,0,0,0,.71.3h1c.19,0,.3-.09.29-.25a.77.77,0,0,0-.32-.5l-9-7.42a1.25,1.25,0,0,0-.71-.3h-1c-.21,0-.32.12-.29.3Zm1.65-3-.41-2,2.44,2Z"/><path class="cls-14" d="M428.55,201.89h.95a1.34,1.34,0,0,1,.93.52l3.16,4.48.67-4.8c0-.13.12-.2.29-.2h1a1.3,1.3,0,0,1,.92.52l5.26,7.43c.2.28.12.52-.19.52h-1a1.3,1.3,0,0,1-.92-.52l-3.17-4.47-.67,4.79c0,.13-.12.2-.29.2h-1a1.32,1.32,0,0,1-.92-.52l-5.25-7.43C428.16,202.13,428.25,201.89,428.55,201.89Z"/><path class="cls-14" d="M420.05,207.79c.06-.2.39-.22.75,0a6.11,6.11,0,0,0,2.66.76c1.58,0,2.11-1.08,1.17-2.41a6.27,6.27,0,0,0-4.58-2.4,1.55,1.55,0,0,0-1.55.79c0,.1-.15.15-.31.14a1.2,1.2,0,0,1-.52-.18l-1-.65c-.34-.22-.55-.54-.45-.73a2.7,2.7,0,0,1,2.58-1.21,10.83,10.83,0,0,1,7.95,4.24c1.7,2.41.88,4.29-1.87,4.29a10,10,0,0,1-4.4-1.28,1.35,1.35,0,0,1-.45-.36.51.51,0,0,1-.12-.39Z"/><path class="cls-14" d="M409.32,208.51h4.36l-1.07-1.5h-3.69a1.32,1.32,0,0,1-.92-.52l-.58-.82c-.2-.29-.12-.52.19-.52h3.69l-1-1.4h-4.2a1.31,1.31,0,0,1-.92-.52l-.58-.82c-.2-.28-.12-.52.19-.52h5.71a1.32,1.32,0,0,1,.92.52l5.25,7.43c.21.28.13.52-.18.52h-5.87a1.32,1.32,0,0,1-.92-.52l-.57-.81C408.94,208.74,409,208.51,409.32,208.51Z"/><path class="cls-20" d="M8.66,222.62V195.1H378.25a7.22,7.22,0,0,1,1.39,1.51l8.26,11.85a10.68,10.68,0,0,1,1.76,6.06v8.1Z"/><path class="cls-34" d="M83.67,200.78a.77.77,0,0,0-.68-.6H81.63a.78.78,0,0,0-.69.6L75.78,216a1.46,1.46,0,0,0,0,1,.75.75,0,0,0,.64.5h1.4a.8.8,0,0,0,.69-.61l1.07-3.23h5.32L86,216.88a.79.79,0,0,0,.68.61h1.44a.75.75,0,0,0,.64-.5,1.51,1.51,0,0,0,0-1Zm-2.78,9.07,1.38-4.13,1.4,4.13Z"/><path class="cls-34" d="M104.31,200.18H102.7a.76.76,0,0,0-.67.56l-3.53,9.19L95,200.74a.76.76,0,0,0-.66-.56H92.67c-.42,0-.76.48-.76,1.06v15.18c0,.59.34,1.07.76,1.07h1.25c.42,0,.76-.48.76-1.07v-8.28l2.75,7.19a.77.77,0,0,0,.66.56h.79a.77.77,0,0,0,.67-.56l2.77-7.22v8.32c0,.59.34,1.06.76,1.06h1.22c.42,0,.75-.48.75-1.07V201.24C105.06,200.66,104.73,200.18,104.31,200.18Z"/><path class="cls-34" d="M118.82,208.32a5.37,5.37,0,0,0,1-3.28c0-3-1.72-4.86-4.48-4.86h-4.85c-.41,0-.75.48-.75,1.06v15.18c0,.59.34,1.07.75,1.07h4.94c3,0,4.89-2,4.89-5.19A5.31,5.31,0,0,0,118.82,208.32ZM115.26,204c.77,0,1.69.23,1.69,1.34,0,.93-.57,1.41-1.69,1.41h-2.71V204Zm-2.71,6.53h2.71c.66,0,2.2.15,2.2,1.56s-1.38,1.64-2.2,1.64h-2.71Z"/><path class="cls-34" d="M134.41,200.18H133.1c-.42,0-.76.48-.76,1.06v8.94c0,3-1.49,3.59-2.74,3.59-1,0-2.78-.46-2.78-3.59v-8.94c0-.58-.34-1.06-.76-1.06h-1.31c-.42,0-.76.48-.76,1.06v8.94c0,4.56,2.15,7.4,5.61,7.4s5.57-2.84,5.57-7.4v-8.94C135.17,200.66,134.83,200.18,134.41,200.18Z"/><path class="cls-34" d="M146.76,213.71h-4.29V201.24c0-.58-.34-1.06-.76-1.06H140.4c-.42,0-.76.48-.76,1.06v15.18c0,.59.34,1.07.76,1.07h6.36c.42,0,.76-.48.76-1.07v-1.64C147.52,214.19,147.18,213.71,146.76,213.71Z"/><path class="cls-34" d="M157.88,200.78a.78.78,0,0,0-.68-.6h-1.37a.78.78,0,0,0-.68.6L150,216a1.46,1.46,0,0,0,0,1,.75.75,0,0,0,.64.5h1.4a.78.78,0,0,0,.68-.61l1.08-3.23h5.32l1.08,3.23a.78.78,0,0,0,.68.61h1.43a.75.75,0,0,0,.64-.5,1.41,1.41,0,0,0,0-1Zm-2.78,9.07,1.38-4.13,1.39,4.13Z"/><path class="cls-34" d="M176.44,200.18h-1.3c-.41,0-.75.48-.75,1.06v9.16l-5.56-9.82a.7.7,0,0,0-.59-.4h-1.36c-.42,0-.76.48-.76,1.06v15.18c0,.59.34,1.07.76,1.07h1.31c.42,0,.76-.48.76-1.07v-9.14l5.55,9.81a.71.71,0,0,0,.6.4h1.34c.42,0,.76-.48.76-1.07V201.24C177.2,200.66,176.86,200.18,176.44,200.18Z"/><path class="cls-34" d="M191.68,212.24a.61.61,0,0,0-1.05-.06,3.83,3.83,0,0,1-2.9,1.55c-2.17,0-3.93-2.21-3.93-4.92s1.73-4.91,3.93-4.91a3.71,3.71,0,0,1,2.88,1.61.63.63,0,0,0,.56.29.68.68,0,0,0,.54-.38l.79-1.32a1.4,1.4,0,0,0-.08-1.49,6.2,6.2,0,0,0-4.71-2.48c-3.79,0-6.75,3.82-6.75,8.68s2.94,8.77,6.7,8.77a6.35,6.35,0,0,0,4.78-2.61,1.4,1.4,0,0,0,0-1.54Z"/><path class="cls-34" d="M205,213.71H199v-3.07h5c.42,0,.76-.48.76-1.07V207.9c0-.59-.34-1.07-.76-1.07h-5V204h5.73c.42,0,.76-.48.76-1.07v-1.67c0-.58-.34-1.06-.76-1.06h-7.81c-.41,0-.75.48-.75,1.06v15.18c0,.59.34,1.07.75,1.07h8c.41,0,.75-.48.75-1.07v-1.64C205.7,214.19,205.36,213.71,205,213.71Z"/><rect class="cls-35" x="20.61" y="204.59" width="357.68" height="8.53" rx="3.58"/><rect class="cls-11" x="140.99" y="272.64" width="171.01" height="10.22"/><path class="cls-11" d="M380.07,273.71v-13.6h10a2.06,2.06,0,0,1,2.06,2.06v11.26a2.06,2.06,0,0,1-2.06,2.06h-8.25A1.78,1.78,0,0,1,380.07,273.71Z"/><rect class="cls-15" x="283.21" y="166.7" width="21.44" height="17.24" rx="3.55"/><path class="cls-10" d="M293.2,186.4h3.58v-4.34a1.8,1.8,0,0,0-1.79-1.8h0a1.8,1.8,0,0,0-1.79,1.8Z"/><path class="cls-13" d="M302.73,208.69a1.43,1.43,0,0,0,1.11-2.32l-11.95-14.84a2.15,2.15,0,0,1,2-3.46l8.73,1.41a1.44,1.44,0,0,0,1.63-1.18,1.42,1.42,0,0,0-1.18-1.63l-8.73-1.41a5,5,0,0,0-4.68,8.06l11.95,14.84A1.41,1.41,0,0,0,302.73,208.69Z"/><path class="cls-36" d="M328.77,204.59V186.94l.26.77a2.92,2.92,0,0,0,1.16,1.32v15.56h.92v8.53h-.92V237h0c-.48.43-1,.88-1.42,1.34V213.12h.91v-8.53Z"/><polygon class="cls-36" points="252.9 110.04 242.04 188.13 242.04 204.59 242.96 204.59 242.96 213.12 242.04 213.12 242.04 282.86 240.62 282.86 240.62 213.12 241.54 213.12 241.54 204.59 240.62 204.59 240.62 188.03 251.47 110.04 252.9 110.04"/><polygon class="cls-36" points="160.32 110.04 149.46 188.13 149.46 204.59 150.38 204.59 150.38 213.12 149.46 213.12 149.46 282.86 148.04 282.86 148.04 213.12 148.96 213.12 148.96 204.59 148.04 204.59 148.04 188.03 158.88 110.04 160.32 110.04"/><rect class="cls-12" x="391.08" y="213.73" width="145.36" height="37.85" rx="1.78"/><rect class="cls-37" x="392.1" y="215.51" width="143.32" height="34.3" rx="1.78"/><rect class="cls-38" x="516.75" y="240.87" width="16.98" height="6.84" rx="1.78"/><rect class="cls-14" x="516.75" y="217.76" width="16.98" height="19.93" rx="1.78"/><rect class="cls-38" x="393.84" y="240.87" width="16.98" height="6.84" rx="1.78"/><rect class="cls-14" x="393.84" y="217.76" width="16.98" height="19.93" rx="1.78"/><rect class="cls-15" x="489.92" y="217.76" width="24.5" height="8.63" rx="1.78"/><rect class="cls-15" x="489.92" y="239.07" width="24.5" height="8.63" rx="1.78"/><rect class="cls-15" x="489.92" y="228.42" width="24.5" height="8.63" rx="1.78"/><rect class="cls-15" x="464.33" y="217.76" width="24.5" height="8.63" rx="1.78"/><rect class="cls-15" x="464.33" y="239.07" width="24.5" height="8.63" rx="1.78"/><rect class="cls-15" x="464.33" y="228.42" width="24.5" height="8.63" rx="1.78"/><rect class="cls-15" x="438.74" y="217.76" width="24.5" height="8.63" rx="1.78"/><rect class="cls-15" x="438.74" y="239.07" width="24.5" height="8.63" rx="1.78"/><rect class="cls-15" x="438.74" y="228.42" width="24.5" height="8.63" rx="1.78"/><rect class="cls-15" x="413.15" y="217.76" width="24.5" height="8.63" rx="1.78"/><rect class="cls-15" x="413.15" y="239.07" width="24.5" height="8.63" rx="1.78"/><rect class="cls-15" x="413.15" y="228.42" width="24.5" height="8.63" rx="1.78"/><path class="cls-39" d="M415.28,195.1H489.9l-1.95,2a4.91,4.91,0,0,1-3.48,1.46H422.24a4.85,4.85,0,0,1-2.57-.73Z"/><rect class="cls-40" x="22.3" y="205.89" width="17.69" height="5.92" rx="0.89"/><rect class="cls-40" x="361.1" y="205.89" width="15.9" height="5.92" rx="0.89"/><path class="cls-15" d="M249.05,197.77c0,.79.45,1.43,1,1.43h12.4c.56,0,1-.64,1-1.43v-1.42h-14.4Z"/><path class="cls-41" d="M262.45,190.6h-12.4c-.55,0-1,.64-1,1.43v4.32h14.4V192C263.45,191.24,263,190.6,262.45,190.6Z"/><path class="cls-15" d="M219.22,197.77c0,.79.45,1.43,1,1.43h12.4c.56,0,1-.64,1-1.43v-1.42h-14.4Z"/><path class="cls-41" d="M232.62,190.6h-12.4c-.55,0-1,.64-1,1.43v4.32h14.4V192C233.62,191.24,233.18,190.6,232.62,190.6Z"/><path class="cls-26" d="M82.66,178.57H74.77c-1.46,0-2.41-1.67-2.13-3.74l1-7.53-5.14,3.77a2.37,2.37,0,0,1-1.39.5,2.22,2.22,0,0,1-2-1.87l-2.61-9.64a5,5,0,0,1,.13-2.84,4.6,4.6,0,0,1,1.55-2.28l5.14-3.76-4.1-3.77a3.27,3.27,0,0,1-.92-2.27A5.38,5.38,0,0,1,65,142.3l5.27-9.64a3.18,3.18,0,0,1,2.56-1.87,1.8,1.8,0,0,1,1.25.5l4.1,3.77,1-7.53c.29-2.07,1.71-3.75,3.17-3.75h7.89c1.46,0,2.42,1.68,2.13,3.75l-1,7.53,5.14-3.77a2.37,2.37,0,0,1,1.39-.5,2.22,2.22,0,0,1,2,1.87l2.61,9.64a5,5,0,0,1-.12,2.84,4.57,4.57,0,0,1-1.55,2.27l-5.14,3.77,4.09,3.76a3.26,3.26,0,0,1,.93,2.28,5.48,5.48,0,0,1-.66,2.84l-5.28,9.64a3.18,3.18,0,0,1-2.55,1.87,1.83,1.83,0,0,1-1.26-.5l-4.1-3.77-1,7.53C85.54,176.9,84.12,178.57,82.66,178.57ZM73.89,166.4a.36.36,0,0,1,.24.09.75.75,0,0,1,.16.61l-1.07,7.73c-.22,1.62.52,2.93,1.67,2.93h7.88c1.15,0,2.26-1.31,2.48-2.93l1.07-7.73a1,1,0,0,1,.33-.61.39.39,0,0,1,.5,0l4.21,3.87a1.42,1.42,0,0,0,1,.39,2.5,2.5,0,0,0,2-1.46l5.27-9.64a4.25,4.25,0,0,0,.52-2.22,2.58,2.58,0,0,0-.72-1.78l-4.21-3.87a.68.68,0,0,1-.17-.6,1,1,0,0,1,.33-.61l5.28-3.86a3.54,3.54,0,0,0,1.22-1.78,4,4,0,0,0,.1-2.22l-2.61-9.64a1.75,1.75,0,0,0-1.6-1.46,1.84,1.84,0,0,0-1.09.39l-5.28,3.87a.38.38,0,0,1-.49,0,.71.71,0,0,1-.17-.61l1.07-7.73c.23-1.62-.52-2.93-1.66-2.93H82.24c-1.14,0-2.25,1.31-2.48,2.93l-1.07,7.73a.92.92,0,0,1-.33.61.38.38,0,0,1-.49,0L73.66,132a1.42,1.42,0,0,0-1-.39,2.48,2.48,0,0,0-2,1.46l-5.28,9.64a4.24,4.24,0,0,0-.51,2.22,2.54,2.54,0,0,0,.72,1.78l4.21,3.86a.75.75,0,0,1,.16.61.88.88,0,0,1-.33.6l-5.28,3.87a3.59,3.59,0,0,0-1.21,1.78,3.85,3.85,0,0,0-.1,2.22l2.61,9.64a1.73,1.73,0,0,0,1.59,1.46,1.84,1.84,0,0,0,1.09-.39l5.28-3.87A.48.48,0,0,1,73.89,166.4Z"/><path class="cls-26" d="M99,159a2,2,0,0,0-.12-2.33l-5.49-5a.56.56,0,0,1-.13-.49.8.8,0,0,1,.27-.5l6.88-5a2.33,2.33,0,0,0,.76-2.33l-2.61-9.64a1,1,0,0,0-1.56-.62l-6.88,5a.3.3,0,0,1-.4,0,.58.58,0,0,1-.14-.5l1.4-10.07c.13-.94-.31-1.7-1-1.7H82.07c-.67,0-1.31.76-1.44,1.7L79.24,137.6a.82.82,0,0,1-.27.5.32.32,0,0,1-.41,0l-5.48-5c-.52-.47-1.29-.19-1.74.62l-5.27,9.64a2,2,0,0,0,.12,2.33l5.48,5a.63.63,0,0,1,.14.5.76.76,0,0,1-.28.49l-6.87,5a2.34,2.34,0,0,0-.77,2.33l2.61,9.64a1,1,0,0,0,1.56.62l6.88-5a.32.32,0,0,1,.41,0,.57.57,0,0,1,.13.5l-1.39,10.07c-.13.94.3,1.7,1,1.7h7.88c.67,0,1.31-.76,1.44-1.7l1.4-10.07a.75.75,0,0,1,.27-.5.3.3,0,0,1,.4,0l5.49,5c.51.47,1.28.19,1.73-.62Z"/><path class="cls-20" d="M182.85,134.54h-1.3c-.12,0-.23.13-.26.3l-.69,5.1c0,.17.05.31.17.31h1.3c.12,0,.23-.14.25-.31l0-.23c0-.17-.06-.3-.18-.3h-.92l.22-1.6h.76c.12,0,.23-.14.26-.31l0-.23c0-.17-.06-.3-.18-.3h-.75l.21-1.59h.92c.12,0,.24-.14.26-.31l0-.23C183,134.67,183,134.54,182.85,134.54Z"/><path class="cls-20" d="M185.38,134.54h-.18a.31.31,0,0,0-.24.23l-.94,3.42v-3.42c0-.12-.08-.23-.17-.23h-.18c-.12,0-.23.13-.26.3l-.69,5.1c0,.17,0,.31.17.31h.17c.11,0,.24-.14.26-.31l.25-1.84L183.5,140c0,.13.09.24.18.24h.13c.09,0,.2-.11.24-.25l.46-1.88-.25,1.82c0,.17.05.31.17.31h.17c.12,0,.23-.14.26-.31l.69-5.1C185.58,134.67,185.5,134.54,185.38,134.54Z"/><path class="cls-20" d="M187.62,134.54h-1.29a.31.31,0,0,0-.26.3l-.7,5.1c0,.17.06.31.18.31h1.29c.12,0,.24-.14.26-.31l0-.23c0-.17,0-.3-.17-.3H186l.22-1.6H187c.12,0,.24-.14.26-.31l0-.23c0-.17-.05-.3-.17-.3h-.76l.22-1.59h.92c.12,0,.23-.14.26-.31l0-.23C187.82,134.67,187.74,134.54,187.62,134.54Z"/><path class="cls-20" d="M190,136.19c.16-1.14,0-1.66-.77-1.66h-.75a.31.31,0,0,0-.26.3l-.7,5.1c0,.17.06.31.18.31h.17c.11,0,.23-.14.25-.31l.28-2.07h.27c.3,0,.43.24.37.66l-.19,1.41c0,.17.06.31.18.31h.16c.12,0,.24-.14.26-.31l.19-1.41a1.73,1.73,0,0,0-.11-1.05l.06-.07A2.42,2.42,0,0,0,190,136.19Zm-1.21.81h-.27l.22-1.62h.38c.31,0,.37.23.29.81S189.1,137,188.77,137Z"/><path class="cls-20" d="M191.61,134.54c-.66,0-1.06.56-1.21,1.64l-.33,2.42c-.15,1.06.1,1.65.76,1.65s1.07-.58,1.21-1.65l.13-.91c0-.17-.06-.31-.17-.31h-.6c-.36,0-.45.85-.12.85h.21l-.05.37c-.07.55-.23.81-.49.81s-.36-.26-.28-.81c0-.23.15-1.07.33-2.42a1.21,1.21,0,0,1,.23-.69.31.31,0,0,1,.27-.11.25.25,0,0,1,.24.11,1.09,1.09,0,0,1,0,.69v.12c0,.17.05.3.17.3h.18c.11,0,.22-.13.25-.3v-.12C192.52,135.1,192.27,134.54,191.61,134.54Z"/><path class="cls-20" d="M194.54,134.54h-1.29a.31.31,0,0,0-.26.3l-.7,5.1c0,.17.06.31.18.31h1.29c.12,0,.24-.14.26-.31l0-.23c0-.17-.05-.3-.17-.3H193l.22-1.6h.75c.12,0,.24-.14.26-.31l0-.23c0-.17-.05-.3-.17-.3h-.76l.22-1.59h.92c.12,0,.23-.14.25-.31l0-.23C194.74,134.67,194.66,134.54,194.54,134.54Z"/><path class="cls-20" d="M196.92,134.54h-.16a.31.31,0,0,0-.26.3l-.38,2.8-.44-2.92a.2.2,0,0,0-.17-.18h-.15c-.11,0-.23.13-.25.3l-.7,5.1c0,.17.06.31.17.31h.18c.11,0,.23-.14.26-.31l.38-2.79.43,2.91c0,.09.1.19.18.19h.13c.12,0,.24-.14.26-.31l.7-5.1C197.12,134.67,197,134.54,196.92,134.54Z"/><path class="cls-20" d="M198.59,134.54a.9.9,0,0,0-.71.33,2.34,2.34,0,0,0-.5,1.32l-.33,2.4a2,2,0,0,0,.14,1.32.66.66,0,0,0,.62.34.93.93,0,0,0,.72-.34,2.47,2.47,0,0,0,.49-1.32v-.12c0-.17-.05-.31-.16-.31h-.18c-.12,0-.23.14-.26.31v.12a1.72,1.72,0,0,1-.2.67.4.4,0,0,1-.29.15c-.26,0-.35-.26-.27-.82l.32-2.4c.08-.57.25-.81.5-.81s.34.24.26.81v.12c0,.17.05.3.17.3h.18c.11,0,.23-.13.25-.3v-.12a2.07,2.07,0,0,0-.13-1.32A.69.69,0,0,0,198.59,134.54Z"/><path class="cls-20" d="M201.84,134.54h-.2a.33.33,0,0,0-.22.17l-.69,1.56-.28-1.56a.21.21,0,0,0-.17-.17h-.19c-.17,0-.3.21-.26.42.14.85.29,1.69.44,2.53l-.34,2.45c0,.17.06.31.17.31h.17c.12,0,.23-.14.25-.31l.34-2.44L202,135C202.07,134.75,202,134.54,201.84,134.54Z"/><path class="cls-20" d="M204.65,134.54a.9.9,0,0,0-.71.33,2.42,2.42,0,0,0-.5,1.32l-.33,2.4a2,2,0,0,0,.14,1.32.67.67,0,0,0,.62.34.93.93,0,0,0,.72-.34,2.47,2.47,0,0,0,.49-1.32v-.12c0-.17-.05-.31-.16-.31h-.18c-.12,0-.23.14-.26.31v.12a1.74,1.74,0,0,1-.19.67.44.44,0,0,1-.3.15c-.26,0-.35-.26-.27-.82l.32-2.4c.08-.57.25-.81.5-.81s.34.24.27.81l0,.12c0,.17.05.3.17.3h.18c.11,0,.23-.13.25-.3l0-.12a2.06,2.06,0,0,0-.14-1.32A.69.69,0,0,0,204.65,134.54Z"/><path class="cls-20" d="M207.41,134.77c0-.12-.09-.23-.18-.23h-.13a.34.34,0,0,0-.25.23l-1,3.32-.53,1.79c0,.2,0,.37.16.37h.18c.09,0,.2-.11.24-.24l.39-1.32h.61l0,1.32c0,.13.09.24.18.24h.18c.14,0,.26-.18.26-.37Zm-.87,3.08.35-1.36c0,.72,0,.95,0,1.36Z"/><path class="cls-20" d="M209.48,139.41h-.9l.63-4.57c0-.17-.06-.3-.17-.3h-.17a.31.31,0,0,0-.26.3l-.7,5.1c0,.17.06.31.18.31h1.27c.12,0,.24-.14.26-.31l0-.23C209.68,139.54,209.6,139.41,209.48,139.41Z"/><path class="cls-20" d="M211.49,139.41h-.89l.62-4.57c0-.17-.06-.3-.17-.3h-.17a.31.31,0,0,0-.26.3l-.7,5.1c0,.17.06.31.18.31h1.27c.12,0,.24-.14.26-.31l0-.23C211.69,139.54,211.61,139.41,211.49,139.41Z"/><path class="cls-20" d="M212.63,137.83h-.17c-.12,0-.23.14-.26.31l-.08.57c0,.16.06.3.18.3h.17c.11,0,.23-.14.25-.3l.08-.57C212.83,138,212.74,137.83,212.63,137.83Z"/><path class="cls-20" d="M212.91,135.75h-.17c-.12,0-.23.13-.25.3l-.08.58c0,.16.05.3.17.3h.17c.12,0,.24-.14.26-.3l.08-.58C213.11,135.88,213,135.75,212.91,135.75Z"/><text class="cls-42" transform="translate(180.15 156.55)">108</text><path class="cls-43" d="M357.28,181.15a1.49,1.49,0,0,1,0-1.17,1.13,1.13,0,0,0,.06-.87c-.13-.36-.53-.78-1.64-.78a9.28,9.28,0,0,0-5.36,2.14c-1.07.93-1,1.61-.9,1.93a1.17,1.17,0,0,0,.86.68,1.5,1.5,0,0,1,1,.84l.26.6h7.21Z"/><path class="cls-43" d="M339.43,184.52a17.61,17.61,0,0,1,2.26-2.34c6.21-5.49,17.37-10,24.87-10,3.09,0,4.48.78,4.73,1.45s-.19,2.63-3.52,5.58a38.42,38.42,0,0,1-8.07,5.27h7.65a33.3,33.3,0,0,0,3-2.34c5.43-4.8,5.21-8.26,4.59-9.89-.69-1.82-2.7-4-8.39-4-8.46,0-20.52,4.81-27.46,10.94a16.08,16.08,0,0,0-4.23,5.27Z"/><g class="cls-31"><path class="cls-32" d="M428.86,120.35a3.38,3.38,0,0,0-2.88-1.6H312.54a1.2,1.2,0,0,0-1,.53,1.22,1.22,0,0,0-.17,1.13L331.2,179a3.4,3.4,0,0,0,3.21,2.31H466a.51.51,0,0,0,.44-.78Z"/><polygon class="cls-33" points="355.95 118.75 322.22 152.48 326.29 164.51 372.05 118.75 355.95 118.75"/><path class="cls-33" d="M432.58,126.31l-3.72-6a3.38,3.38,0,0,0-2.88-1.6h-25.8l-62.55,62.56h40Z"/><polygon class="cls-33" points="450.59 155.18 439.69 137.71 396.1 181.31 424.47 181.31 450.59 155.18"/></g><path class="cls-7" d="M341.1,193.68a1.77,1.77,0,0,1-1.77-1.77V179.83c0-.58.35-1.06.78-1.06h2v14.91Z"/><path class="cls-10" d="M344.06,193.68h-2V178.77h3.74v13.14A1.77,1.77,0,0,1,344.06,193.68Z"/><path class="cls-13" d="M345.13,171.57c-2.81,0-5.09,3.22-5.09,7.2s2.28,7.2,5.09,7.2,5.09-3.23,5.09-7.2S347.94,171.57,345.13,171.57Z"/><path class="cls-13" d="M345.13,171.57h-2.38c-2.81,0-5.09,3.22-5.09,7.2s2.28,7.2,5.09,7.2h2.38c-2.81,0-5.09-3.23-5.09-7.2S342.32,171.57,345.13,171.57Z"/><path class="cls-14" d="M345.28,185.26c2.33,0,4.23-2.91,4.23-6.49s-1.9-6.49-4.23-6.49-4.24,2.91-4.24,6.49S342.94,185.26,345.28,185.26Z"/></g></g></svg>