<svg id="Layer_1" data-name="Layer 1" xmlns="http://www.w3.org/2000/svg" viewBox="0 0 512 400"><defs><style>.cls-1{fill:#ffd100;}.cls-2{fill:#421418;}.cls-14,.cls-16,.cls-2,.cls-21,.cls-3,.cls-7,.cls-9{stroke:#492c02;}.cls-14,.cls-15,.cls-16,.cls-2,.cls-21,.cls-3,.cls-7,.cls-9{stroke-miterlimit:10;}.cls-3{fill:#fff;}.cls-4{fill:#89939d;}.cls-5{fill:#d8a957;}.cls-6{fill:#89939c;}.cls-7{fill:#cc9a48;}.cls-8{fill:#976935;}.cls-9{fill:#683e15;}.cls-10{fill:#141414;}.cls-11{fill:#fffffe;}.cls-12{fill:#261503;}.cls-13{fill:#492c02;}.cls-14,.cls-15,.cls-16{fill:none;}.cls-14{stroke-width:1.27px;}.cls-15{stroke:#000;}.cls-17{fill:#e9f8ff;}.cls-18{fill:#f7d3b2;}.cls-19{fill:#791515;}.cls-20{fill:#3a0303;}.cls-21{fill:#ec1412;}</style></defs><polygon class="cls-1" points="119.47 147.67 156.52 184.92 120.97 166.31 101.45 184.99 80.99 151.26 71.84 175.84 20.89 151.93 31.21 114.32 71.81 149.5 75.04 124.04 111.79 166.92 119.47 147.67"/><polygon class="cls-1" points="114.03 183.66 154.73 196 122.25 196.37 115.51 217.17 87.98 200.99 90.89 222.02 45.4 224.53 38.32 193.76 80.76 203.25 73.28 183.87 115.94 200.32 114.03 183.66"/><path class="cls-2" d="M238.61,167.15s19.77,6,3.81,26.86c0,0,39.3,1.73,29.72-24.46C272.14,169.55,261.68,150,238.61,167.15Z"/><path class="cls-3" d="M190.51,164.43s4.91,18,9.35,16c0,0,.58-3.9,2.21-3.76l20.2.13s6.45,7.17,7.34,7.17c0,0,2.66-.89,2.65-8,0,0,8.22,1.5,11,.38l6-5.33,5.77,3.88,6.1-5.34.38,4.57s10.14-3.12,8.87-6.6c0,0-2.39-17.74-55.54,2.53C214.83,170,192.29,166.79,190.51,164.43Z"/><path class="cls-3" d="M208.27,188.36s5.18-15.69,10.54-2.53l14.06,3.69s10.83-14.08,11.77,2.65L250,188s19,0,21.24-3.28c0,0,2,23.23-63.1,4.07"/><path class="cls-4" d="M214.88,170.85s33.92-15.07,53.91-7.39c0,0,6.08,6.21-6.87,10.19,0,0-.26-8.77-5.46-8.62C256.46,165,224.35,168,214.88,170.85Z"/><path class="cls-4" d="M260.66,115.73s-.29,3.44-1.54,4.12c0,0,9.57,1.38,10.3,2.31a9.72,9.72,0,0,0,3.37-3S276.39,117.32,260.66,115.73Z"/><path class="cls-4" d="M218.6,114.35s-1.84,2.92-3,3.17c0,0,5.81,3.81,5.87,4.82a9.69,9.69,0,0,0,3.71-1.7S228.49,120,218.6,114.35Z"/><path class="cls-5" d="M303.1,115.63s-2.77,4.44-6.55,6"/><path d="M303.94,116.16a7.41,7.41,0,0,1-1.29,2,12.07,12.07,0,0,1-1.73,1.62,9.42,9.42,0,0,1-4.3,2l-.13-.3a19.89,19.89,0,0,0,3.06-3.1l1.32-1.68a17.82,17.82,0,0,1,1.38-1.6Z"/><path class="cls-6" d="M249.9,188.61s-4.43,4.15-5.57,4.18,16.23,1.92,20.88-2.12l3.53-4.12s-16.31,2.52-18,2"/><path class="cls-7" d="M216.33,169.94s-37.73,7.32-25.78-26.22c0,0-3.89-6.62,6-7.69,0,0,4.88-1,6.44-2.4a49.43,49.43,0,0,1,3.22-5.69l-.06-3.35a11.22,11.22,0,0,1,3.28-.44,18.28,18.28,0,0,1,6.36-15.54s-2.92-6.53,7.62-13c0,0,6.11-.23,6.44,2.88,0,0-7.58-33.82,11-53.61,0,0,21.57-4,32.06,48.82,0,0,16.62-1.36,30,22.16,0,0,39-26.24,40.82-27.58,0,0,18.9,25.73-38.54,78.64,0,0-7.15,14.43-4.49,18.43l3.26-3.71s7.12,12.87,9.34,16.27c0,0,21.33,16.11,41.74.55,0,0,20.47-17.29,26.35-22.84,0,0,11.49-13.62,29.69-12.46,0,0,38.38-10.46,42.61-40.3C456.49,103.17,456,63.73,417.4,52c0,0,17.52-15.12,41.76,17.27,0,0,4.06-5.79-5.73-19.54l3.11-2.82s18.81,14.93,16,39.06c0,0,5.3-7.61,2.32-19.37L478,62.83s10.94,19.73-4.73,41.36c0,0,6.07.44,16.7-20.89,0,0,3.87,15.39-13.58,33.77,0,0,5.78-1,12.57-15.12,0,0,5.64,12.87-19,39.55,0,0,9.47-3.86,11.09-5.79,0,0-.87,8-11.67,14.37,0,0-1.62,6.52-17.31,12,0,0,11.91-.19,12.57-1.67,0,0,.9,9.25-34.17,14.47,0,0,23,18.69,13.49,56.89,0,0,12-11.34,15.31-2.24,0,0,9.43,15.24,10.69,76.23,0,0,3.84,21.18-7.26,24,0,0-7.65,8-18.91,2,0,0-6.47,10.58-18.25-.06,0,0-16.29,2.37-12.16-15.1,0,0,5.17-11.1,21.3-12.45a62,62,0,0,0,.35-35.1s-17.07,18.78-29.21-9.4c0,0-3.85,5.52-4.41,6.41,0,0,6.33-1.11,5,6.33s-5.73,45.49-22,55.27c0,0-2.05,2.24-7.31.39,0,0-5.84,5.86-14.06-.5,0,0-8.9,5.28-15-5.59,0,0-3.23-14,16.74-17,0,0,5.68-3.36,5.66-17,0,0-6.11,2.17-6.88,2.17a19.3,19.3,0,0,1-7.88,8.77s-14.84,25.49-43.39,40.92c0,0-9.51,25.59-34.17,10.52,0,0-4.34,7.09-11.89,0,0,0-11,3.78-9.89-9.65a19.26,19.26,0,0,1,16.85-13.9s15.54-.46,20.31-5.46c0,0,14.46-20.93,18.74-33.82,0,0-1.77,3.71-15.09,1.65a93.77,93.77,0,0,1-35.34,35.12s4,7.84-28.84,19.28c0,0-4.59,1.93-11.54-.58,0,0-5,2.72-13-1.38,0,0-10.43,2-11-9.31,0,0,2.54-13.21,19.75-12.9,0,0,10.21-1.12,11.32-.23,0,0,1.21-7.89,10.42-13.34,0,0,1.77-5.22,8.42-10.11,0,0,7.09-13.66,7.54-14.33,0,0-5.34-8.76-6.24-16,0,0-1.81-25.3-.37-29.41,0,0,.88-5.56,3.44-7.33,0,0-7-10.2,2.31-14.09,0,0-2.22-6.44-3.22-7.22S217,211.74,205.91,197.1c0,0-5.64-17.57,26.79-4.29,0,0,35.31,7.73,41.5-13.59,0,0-4.2-3.78-.65-8,0,0-1.35-12.23-26.51-9.53A134.15,134.15,0,0,0,216.33,169.94Z"/><path class="cls-8" d="M343.75,88.74s-15.66,36.28-57.48,44c0,0-16.53,3.35-10.88,30.13,0,0,28.44,46-60.61,35.74,0,0-5.38,3.66,7.26,6.17,0,0,8.54,3.93,29,2.12a66.24,66.24,0,0,1,3.61,7.82s30.2-5.42,49.71,5.85c0,0,73.64,14.65,72.58-40.19,0,0-9.72,8.5-19.85,17s-24.26,12-42.89,1.29c0,0-12.84-9.83-14.55-16.31,0,0,1-9.83,6.64-17.12C306.26,165.26,359.4,117.53,343.75,88.74Z"/><path class="cls-8" d="M241.6,46.21S261.59,42,272.7,94c0,0-15.4-2.51-23.16-.21C249.54,93.81,250.39,55.78,241.6,46.21Z"/><ellipse class="cls-9" cx="255.99" cy="63.73" rx="6.88" ry="12.66" transform="translate(-1.93 119.12) rotate(-26.1)"/><path class="cls-10" d="M216.23,108.08s8,7.59,9.71,8.75c0,0,2.22-2.49,3.76-3,0,0-3.09,3.95-2.13,7,0,0-6.78,13.94-18,4.31C209.58,125.15,206.06,120.35,216.23,108.08Z"/><path class="cls-11" d="M214.75,111.8c2.7-2.11,11.84,6.79,8.16,12.91-1.63,2.7-8.69,5.11-12.47.12A11.79,11.79,0,0,1,214.75,111.8Z"/><path class="cls-12" d="M189.6,139.6s7.06,6.67,7.7,10.61c0,0,21.54-3.66,23.32-2.49,0,0,5.27-4.78-4.32-9.49C216.3,138.23,197.2,131,189.6,139.6Z"/><path class="cls-8" d="M460.3,69.88s36.73,64.81-22.88,97.49c0,0-2.38,4.58,7.34,4.57,0,0,16.53-3.79,20-11.4L452,161.72S468.79,156,469.8,149.5c0,0,9.91-6.2,11.18-13.47l-11.09,5.23s14.7-16.71,18-25.54c0,0,3.07-12.44,1.68-14.55,0,0-7.49,14.06-12.72,15.31,0,0,17.76-19.54,13.6-33.52,0,0-7.75,17-15.66,20.52,0,0,14.09-22.45,3.66-41.23l-2.84,3.93s2.68,13.09-2.79,19.46c0,0,3.38-23.39-16.18-39l-2.51,2.74s10.35,15.5,5.55,19.5"/><path class="cls-13" d="M230.2,97.16a88.17,88.17,0,0,1,19.9-4.64,74.29,74.29,0,0,1,20.47.42,49.45,49.45,0,0,1,19.06,7.38,45.47,45.47,0,0,1,13.9,14.88l-.3.19A46.58,46.58,0,0,0,289.18,101a49.84,49.84,0,0,0-18.77-7.11,76.83,76.83,0,0,0-20.21-.49,94.67,94.67,0,0,0-10,1.53,85.09,85.09,0,0,0-9.84,2.55Z"/><path class="cls-12" d="M222.41,127.9q-5.25,2.13-10.54,4.16c-1.76.69-3.5,1.43-5.3,2a53.33,53.33,0,0,1-5.48,1.49l0-.09a52.07,52.07,0,0,1,5.18-2.34c1.76-.7,3.57-1.23,5.37-1.82q5.37-1.78,10.78-3.5Z"/><path class="cls-12" d="M231.36,129.72c-2.09,1.75-4.2,3.49-6.33,5.2-1.06.86-2.09,1.77-3.22,2.54a27.26,27.26,0,0,1-3.54,2.1l-.06-.08a29.55,29.55,0,0,1,3-2.82c1-.87,2.21-1.6,3.34-2.38q3.34-2.35,6.75-4.64Z"/><path class="cls-14" d="M331.88,102.48s4.89-1.56,4.89,2.88"/><path class="cls-15" d="M319.34,247.21s-17.58,26.9-6.69,39.79"/><path class="cls-13" d="M405.76,259.7a3.23,3.23,0,0,1-.46-1.19c-.11-.41-.19-.82-.27-1.23-.17-.82-.3-1.65-.41-2.48s-.19-1.66-.22-2.49-.07-1.67,0-2.51a45.94,45.94,0,0,1,1.29-9.91c.46-1.6.86-3.22,1.47-4.77.29-.78.53-1.58.87-2.34l1-2.27a23.14,23.14,0,0,1,1.11-2.23l1.18-2.19c.84-1.43,1.77-2.8,2.65-4.2l.15.1c-.79,1.45-1.63,2.87-2.39,4.33l-1.07,2.22a21.65,21.65,0,0,0-1,2.25c-.62,1.52-1.24,3-1.72,4.6s-.92,3.14-1.34,4.72a49.7,49.7,0,0,0-1.21,9.71c0,.81,0,1.63,0,2.44s.08,1.63.15,2.44.19,1.62.33,2.42c.07.4.14.8.24,1.2a4.36,4.36,0,0,1,.2,1.19Z"/><path class="cls-14" d="M335.44,102.49s-15.29,24-37.05,28l13.32.71-12.13,5.63,12.14-1.49L304.9,141"/><path class="cls-13" d="M221.4,342.71a7,7,0,0,1-1-4,6.89,6.89,0,0,1,1.4-3.9,9.5,9.5,0,0,1,3.11-2.55c.6-.27,1.19-.55,1.8-.78s1.25-.36,1.87-.5l.06.16c-.55.34-1.11.63-1.66.93s-1.05.68-1.56,1a11,11,0,0,0-2.51,2.53,6.64,6.64,0,0,0-1.11,3.17,8.28,8.28,0,0,0,.51,3.41Z"/><path class="cls-13" d="M208.82,341.54a7,7,0,0,1-1-4,6.78,6.78,0,0,1,1.45-3.85,9.52,9.52,0,0,1,3.08-2.55c.6-.26,1.18-.56,1.79-.78s1.23-.39,1.85-.55l.06.16c-.56.32-1.13.6-1.68.89l-1.58,1a10.52,10.52,0,0,0-2.53,2.54,6.67,6.67,0,0,0-1.07,3.21,8.11,8.11,0,0,0,.53,3.41Z"/><path class="cls-9" d="M311.23,262.42s-1.48-13.49,13.14-22.4c0,0-9.54,14.78-7.56,15.75,0,0,9.78-6.74,13.64-5.43,0,0,5.21.88,3,9.69,0,0-2.31,7.59,4.57,11.7,0,0,7.82,5.32.13,17.47,0,0-12.21,15.49-23.66,8.74,0,0-3.24-3.29-2-4.87,0,0,3-3.49.77-5.08,0,0-5.63-6.16-3.09-19C310.17,269,307,264.1,311.23,262.42Z"/><path class="cls-9" d="M434,179.93s20.92,23.56,6.58,44.23c0,0-13.58,5.29-19.65-16.2C420.9,208,415.55,184.44,434,179.93Z"/><path class="cls-9" d="M438.74,287.79s11.9-18.28,16.75-2.8c0,0-1.88,31.48-16.41,20.14C439.08,305.13,433.22,301,438.74,287.79Z"/><path class="cls-9" d="M228.38,319.13s17.28-29,29.94-26.63c0,0,18.45,17.38-19.94,29.41,0,0-8.59,1.88-10-2.58"/><path class="cls-8" d="M249.29,257.77s4.42,25.36,48,31.24a88.22,88.22,0,0,1-34.66,34.48s2.08,10.41-30.66,19.88c0,0-9.44-3.76.44-9,0,0,16.65-4.67,24.41-14,0,0,32.63-34.61-6.44-30.71l4.6-8.44S245.43,266.53,249.29,257.77Z"/><path class="cls-8" d="M362.75,256.63s13.78,22.63-6.91,42.12c0,0-17.87,29.63-43.39,40.91,0,0-8.21,16.18-22.53,14.22,0,0-6.29-8.88,4.66-11.86,0,0,58.28-31.74,58.52-78.22l8.77-8.71Z"/><path class="cls-8" d="M283.07,339.44s-5.6,1.18-4.12,9.92c0,0-3.2,5.38-8.64,2.17C270.31,351.53,270.78,340.18,283.07,339.44Z"/><path class="cls-8" d="M380.88,316.7s-5.6,1.18-4.12,9.92c0,0-3.19,5.38-8.64,2.16C368.12,328.78,368.59,317.44,380.88,316.7Z"/><path class="cls-8" d="M367.28,316.21s-5.54,2-4.06,10.69a10,10,0,0,1-10.1-.21S355,317,367.28,316.21Z"/><path class="cls-8" d="M431,320.73s-5.75,1.24-5.4,10.09a10,10,0,0,1-10-1.5S418.75,319.89,431,320.73Z"/><path class="cls-8" d="M446.38,321s-5.15,2.83-2.27,11.21c0,0-5.71,5.32-11.61,3C432.5,335.28,434.38,323.75,446.38,321Z"/><path class="cls-8" d="M272.62,338.66s-5.22,1.35-5.71,10a6.43,6.43,0,0,1-8.35-1.5S262.13,336.36,272.62,338.66Z"/><path class="cls-13" d="M267.39,351.36l-.25-.26-.17-.23c-.11-.16-.19-.32-.29-.47a6,6,0,0,1-.48-1,8.07,8.07,0,0,1-.52-2.14,5.85,5.85,0,0,1,1.26-4.24,9,9,0,0,1,3.5-2.47c.67-.22,1.32-.45,2-.62s1.36-.25,2-.34v0c-.63.26-1.27.49-1.89.74s-1.21.57-1.8.87a9.53,9.53,0,0,0-2.88,2.48,5.27,5.27,0,0,0-.87,3.43,6.74,6.74,0,0,0,.35,1.82,9.44,9.44,0,0,0,.32.89c.07.13.13.29.2.42l.17.33Z"/><path class="cls-13" d="M278.49,350.89s0,0,0,0l-.07-.21-.14-.46a9.67,9.67,0,0,1-.27-1,9,9,0,0,1-.26-2,6.7,6.7,0,0,1,1.13-4,7.58,7.58,0,0,1,3.11-2.57,15.79,15.79,0,0,1,1.84-.7c.64-.14,1.28-.28,1.91-.4l0,.1-1.79.7c-.56.32-1.15.54-1.67.89a7.62,7.62,0,0,0-2.55,2.53,6.45,6.45,0,0,0-.77,3.4,11.12,11.12,0,0,0,.19,1.8l.18.92.1.48.05.26a3.08,3.08,0,0,1,0,.43Z"/><path class="cls-8" d="M365,304.77s20.66.53,24.22,13.63c0,0-12.08,0-7.07,8.44l.11.17s12.17,4.47,21.65-41.91c0,0,6.18-20.27-2.1-19.11,0,0-13.88,14.88-31.6,22.07C370.16,288.06,372.08,298.12,365,304.77Z"/><path class="cls-13" d="M376.85,328.45a6.57,6.57,0,0,1-1.14-4,6.82,6.82,0,0,1,1.47-3.91,9.55,9.55,0,0,1,3.14-2.54c.6-.26,1.19-.55,1.8-.76s1.25-.37,1.87-.51l.06.16c-.55.33-1.11.62-1.66.92l-1.56,1a17.72,17.72,0,0,0-1.37,1.19l-.61.65-.5.71a6.66,6.66,0,0,0-1,3.15,9.71,9.71,0,0,0,.41,3.41Z"/><path class="cls-13" d="M363,327.86a6.81,6.81,0,0,1,.31-7.9,9.36,9.36,0,0,1,3.15-2.54c.6-.27,1.21-.52,1.82-.73s1.26-.33,1.89-.45c-.54.36-1.1.67-1.64,1l-1.54,1a11,11,0,0,0-2.46,2.55,6.74,6.74,0,0,0-1.1,3.14,8.79,8.79,0,0,0,.44,3.4Z"/><path class="cls-13" d="M425.67,332.18a7.14,7.14,0,0,1-1-4,6.8,6.8,0,0,1,1.44-3.85l.67-.77.76-.66a11.86,11.86,0,0,1,1.66-1.09c.6-.26,1.19-.55,1.79-.77s1.24-.36,1.86-.51c-.56.33-1.12.61-1.67.92l-1.58,1a10.73,10.73,0,0,0-2.52,2.56,6.75,6.75,0,0,0-1.08,3.23,8.29,8.29,0,0,0,.55,3.41Z"/><path class="cls-13" d="M444.09,332.45a8.79,8.79,0,0,1-1-4,6.69,6.69,0,0,1,1.22-3.92,9.94,9.94,0,0,1,3.05-2.63c.59-.29,1.19-.56,1.79-.82s1.24-.39,1.87-.56l-1.72.89c-.54.34-1.08.68-1.6,1a9.82,9.82,0,0,0-2.53,2.66,7,7,0,0,0-1,3.37A7.15,7.15,0,0,0,445,332Z"/><path class="cls-8" d="M433.42,268a30.77,30.77,0,0,0,5.8-9.26s21.47-15.31,19.92-29.4c0,0,10.34,14.27,10.41,75.12,0,0,3.89,21.73-7.5,25,0,0-17.14,8.21-9.12-8a29.48,29.48,0,0,1,5.29-4.73s11.37-20.56-1.55-60.71c0,0-8.87,6-14.69,5.11C442,261.16,436.44,267.66,433.42,268Z"/><path class="cls-16" d="M462.87,329.56s-4.84-9.29,8-14.75c0,0,1.12,12-7.76,15.11"/><path class="cls-13" d="M363.69,289.49a33.84,33.84,0,0,0,1.42-4.48c.39-1.52.7-3.05.95-4.6a42.53,42.53,0,0,0,.42-9.36c-.08-.78-.09-1.57-.23-2.33l-.37-2.32c-.14-.76-.38-1.51-.56-2.27L365,263l-.4-1.09c-.28-.73-.51-1.48-.81-2.21l-1-2.11c-.18-.35-.33-.72-.53-1.06l-.62-1-1.23-2,.2-.15a30.7,30.7,0,0,1,4.81,8.25l.45,1.12.33,1.16c.2.78.46,1.54.62,2.33l.43,2.37c.14.79.15,1.6.24,2.4a40.21,40.21,0,0,1-3.23,18.76Z"/><path class="cls-16" d="M248,256.52s7.86,26.76,50,32.88"/><path class="cls-13" d="M307.37,165.63a30.36,30.36,0,0,1-3,2.69,12.5,12.5,0,0,1-3.47,2l-.07-.19a11.83,11.83,0,0,0,3.05-2.36,28.06,28.06,0,0,0,2.52-3Z"/><ellipse class="cls-10" cx="217.04" cy="119.55" rx="7.13" ry="4.22" transform="translate(-6.52 226.41) rotate(-54.39)"/><ellipse class="cls-17" cx="216.55" cy="116.1" rx="0.66" ry="0.39" transform="translate(0.75 233.57) rotate(-56.76)"/><path class="cls-16" d="M401.89,265.19s-19.48,19.53-32.38,23.18"/><ellipse class="cls-9" cx="284.8" cy="105.4" rx="6.88" ry="12.66" transform="translate(59.85 309.41) rotate(-62.52)"/><path class="cls-10" d="M255.38,111.51s-4.29,6.41-3,8.65c0,0,15.05-5.5,24.17-.29,0,0,.89,19.7-17.34,20.72,0,0-18.52,0-8.24-17.73l-1.79-.09S248,117.3,255.38,111.51Z"/><ellipse class="cls-11" cx="262.17" cy="129.99" rx="12.56" ry="8.97" transform="translate(-30.35 137.96) rotate(-27.93)"/><ellipse class="cls-10" cx="260.06" cy="127.8" rx="9.05" ry="5.36" transform="translate(4.74 264.83) rotate(-54.39)"/><ellipse class="cls-17" cx="259.44" cy="123.41" rx="0.84" ry="0.49" transform="translate(14 272.75) rotate(-56.76)"/><ellipse class="cls-18" cx="205.93" cy="137.5" rx="1.23" ry="3.92" transform="matrix(0.16, -0.99, 0.99, 0.16, 37.56, 319.05)"/><ellipse class="cls-19" cx="266.08" cy="248.38" rx="8.23" ry="10.54" transform="translate(-46.96 62.64) rotate(-12.35)"/><path class="cls-20" d="M300.26,183.85a18.39,18.39,0,0,0,3,4.59S304.67,182.4,300.26,183.85Z"/><path class="cls-20" d="M251.58,211.6l.83-.08.76,2.81-.51.38S251.29,212.93,251.58,211.6Z"/><path class="cls-21" d="M251.42,212s-5.67,3.25-4.49,13.82c.55,4.9,5.94,10.31,10.06,11.26,15.73,3.63,47.51,0,60.62-35.42,0,0,1.77-4.28-.12-7.81,0,0-.55-3.28-10.73-11.58a3.72,3.72,0,0,0-5.45.8l-.12.18s6.23,1.09.14,11c0,0-18.9,28.37-46.95,21.43A3.09,3.09,0,0,1,251.42,212Z"/><path class="cls-19" d="M302.07,182.87a3.15,3.15,0,0,1,4.05-.37S318,191,317.79,197.06c0,0,2.24,5.65-11.36,23.21a69.89,69.89,0,0,1-8.21,7.26S294.8,214.06,285,210.45c0,0,17.8-11.94,19.51-22.65A4.6,4.6,0,0,0,302.07,182.87Z"/><ellipse class="cls-21" cx="264.12" cy="248.71" rx="8.23" ry="10.54" transform="translate(-47.07 62.23) rotate(-12.35)"/></svg>