<svg id="Layer_1" data-name="Layer 1" xmlns="http://www.w3.org/2000/svg" viewBox="0 0 1156.67 169.53"><defs><style>.cls-1{fill:#3172c2;stroke:#fff;stroke-miterlimit:10;stroke-width:2px;}.cls-2{fill:#fff;}</style></defs><rect class="cls-1" x="215.9" y="54.07" width="731.11" height="78.15" rx="39.07"/><path class="cls-2" d="M370.83,80.79v26.1h-7.06V80.75H355.4V75.48h23.71v5.31Z"/><path class="cls-2" d="M391.76,92.62c-.42-.08-.75-.14-1-.17a6.51,6.51,0,0,0-.81,0,4.57,4.57,0,0,0-3.89,1.76,8.55,8.55,0,0,0-1.33,5.22v7.51h-6v-13c0-.73,0-1.37,0-1.91a13.9,13.9,0,0,0-.11-1.52,12.61,12.61,0,0,0-.25-1.39c-.1-.46-.25-1-.43-1.56h5.69c.09.37.17.68.25.94a4.49,4.49,0,0,1,.16.74c0,.23.06.48.1.74a8.65,8.65,0,0,1,0,.95,10.2,10.2,0,0,1,2.56-2.94,4.92,4.92,0,0,1,2.86-.85,4,4,0,0,1,1.06.12,9.74,9.74,0,0,1,1.19.43Z"/><path class="cls-2" d="M411.69,92.54a5,5,0,0,1-.8,2.79,6.6,6.6,0,0,1-2.25,2.13,12.19,12.19,0,0,1-3.51,1.37,19,19,0,0,1-4.59.5l-.54,0c-.2,0-.44,0-.73,0a4.15,4.15,0,0,0,1.35,2.67,4.29,4.29,0,0,0,2.92,1,13.28,13.28,0,0,0,6.62-2v4.72a13.08,13.08,0,0,1-3.26,1.42,13.82,13.82,0,0,1-3.53.43,11.62,11.62,0,0,1-4.07-.68,8.22,8.22,0,0,1-3.09-2,8.63,8.63,0,0,1-1.93-3.06,11.22,11.22,0,0,1-.68-4,12.67,12.67,0,0,1,.79-4.53,10.57,10.57,0,0,1,2.21-3.53A9.64,9.64,0,0,1,400,87.41a11.45,11.45,0,0,1,4.37-.81,8.21,8.21,0,0,1,5.33,1.62A5.25,5.25,0,0,1,411.69,92.54Zm-6,.45a1.57,1.57,0,0,0-.62-1.24,2.31,2.31,0,0,0-1.55-.52A3.54,3.54,0,0,0,401,92.29a5,5,0,0,0-1.38,2.9,3.78,3.78,0,0,0,.72.09H401Q405.71,95.28,405.71,93Z"/><path class="cls-2" d="M430.46,106.89c0-.21,0-.46,0-.77s-.06-.52-.07-.85,0-.67-.07-1a7,7,0,0,1-2.93,2.31,9.43,9.43,0,0,1-3.84.79,7.12,7.12,0,0,1-5.75-2.43q-2.06-2.43-2.05-6.93,0-5.45,3.31-8.39t9.42-3c.67,0,1.27,0,1.82,0s1.1.08,1.65.15,1.11.18,1.68.3,1.22.28,1.92.49v12.78c0,.69,0,1.42,0,2.18s.08,1.47.14,2.1.12,1.48.18,2.2Zm-.95-14.67a9.15,9.15,0,0,0-1.42-.22c-.42,0-.82,0-1.19,0a4.78,4.78,0,0,0-3.84,1.6A6.55,6.55,0,0,0,421.68,98a4.4,4.4,0,0,0,.83,2.88,2.87,2.87,0,0,0,2.33,1,4.13,4.13,0,0,0,1.81-.4,4.6,4.6,0,0,0,1.49-1.15,5.63,5.63,0,0,0,1-1.76,6.72,6.72,0,0,0,.36-2.27Z"/><path class="cls-2" d="M443.15,106.89V91.37h-4V87.09h4v-5H449v5h5.09v4.28H449v15.52Z"/><path class="cls-2" d="M488.91,92.54a5,5,0,0,1-.8,2.79,6.6,6.6,0,0,1-2.25,2.13,12.19,12.19,0,0,1-3.51,1.37,19,19,0,0,1-4.59.5l-.54,0c-.2,0-.45,0-.73,0a4.15,4.15,0,0,0,1.35,2.67,4.26,4.26,0,0,0,2.91,1,13.28,13.28,0,0,0,6.63-2v4.72a13.24,13.24,0,0,1-3.26,1.42,13.82,13.82,0,0,1-3.53.43,11.62,11.62,0,0,1-4.07-.68,8.22,8.22,0,0,1-3.09-2,8.63,8.63,0,0,1-1.93-3.06,11.22,11.22,0,0,1-.68-4,12.46,12.46,0,0,1,.79-4.53,10.57,10.57,0,0,1,2.21-3.53,9.64,9.64,0,0,1,3.39-2.29,11.45,11.45,0,0,1,4.37-.81,8.23,8.23,0,0,1,5.33,1.62A5.27,5.27,0,0,1,488.91,92.54Zm-6,.45a1.57,1.57,0,0,0-.62-1.24,2.31,2.31,0,0,0-1.55-.52,3.54,3.54,0,0,0-2.57,1.06,5,5,0,0,0-1.38,2.9,3.69,3.69,0,0,0,.71.09h.67Q482.93,95.28,482.93,93Z"/><path class="cls-2" d="M505.47,104c-.24.52-.46,1-.67,1.35a3.27,3.27,0,0,1-.72.92,2.49,2.49,0,0,1-.93.51,4.63,4.63,0,0,1-1.28.15,3.5,3.5,0,0,1-2.09-.57,4.81,4.81,0,0,1-1.42-2.15L491.3,87.09h6.21l3.33,9.11c.24.64.46,1.26.65,1.84a14.24,14.24,0,0,1,.43,1.49c.15-.41.34-.91.58-1.51s.48-1.19.72-1.77l3.56-9.16h6.16Z"/><path class="cls-2" d="M533.78,92.54a5.13,5.13,0,0,1-.8,2.79,6.72,6.72,0,0,1-2.26,2.13,12,12,0,0,1-3.51,1.37,19,19,0,0,1-4.58.5l-.54,0c-.21,0-.45,0-.73,0a4.15,4.15,0,0,0,1.35,2.67,4.25,4.25,0,0,0,2.91,1,13.34,13.34,0,0,0,6.63-2v4.72a13.14,13.14,0,0,1-3.27,1.42,13.82,13.82,0,0,1-3.53.43,11.62,11.62,0,0,1-4.07-.68,8.18,8.18,0,0,1-3.08-2,8.65,8.65,0,0,1-1.94-3.06,11.22,11.22,0,0,1-.67-4,12.46,12.46,0,0,1,.79-4.53,10.39,10.39,0,0,1,2.2-3.53,9.77,9.77,0,0,1,3.4-2.29,11.4,11.4,0,0,1,4.36-.81,8.21,8.21,0,0,1,5.33,1.62A5.25,5.25,0,0,1,533.78,92.54Zm-6,.45a1.56,1.56,0,0,0-.61-1.24,2.33,2.33,0,0,0-1.56-.52,3.55,3.55,0,0,0-2.57,1.06,5,5,0,0,0-1.38,2.9,3.87,3.87,0,0,0,.72.09h.66Q527.79,95.28,527.79,93Z"/><path class="cls-2" d="M552.23,92.62c-.42-.08-.75-.14-1-.17a6.51,6.51,0,0,0-.81,0,4.57,4.57,0,0,0-3.89,1.76,8.55,8.55,0,0,0-1.33,5.22v7.51h-6v-13c0-.73,0-1.37,0-1.91s-.05-1-.11-1.52-.15-.94-.25-1.39-.25-1-.43-1.56h5.68c.1.37.18.68.26.94a4.49,4.49,0,0,1,.16.74c0,.23.06.48.09.74a6.56,6.56,0,0,1,0,.95,10.2,10.2,0,0,1,2.56-2.94,4.9,4.9,0,0,1,2.86-.85,4,4,0,0,1,1.06.12,9.74,9.74,0,0,1,1.19.43Z"/><path class="cls-2" d="M573.73,113.36a9.74,9.74,0,0,1-2,4.14,7.15,7.15,0,0,1-3.42,2.18,17.6,17.6,0,0,1-5,.62,14.91,14.91,0,0,1-2.89-.29,31,31,0,0,1-3-.79v-4.49c1,.08,1.93.14,2.82.19s1.77.07,2.64.07a6.46,6.46,0,0,0,2.41-.41,3.72,3.72,0,0,0,1.68-1.37,6.47,6.47,0,0,0,.94-2.5,20.45,20.45,0,0,0,.3-3.82v-2.43a7.73,7.73,0,0,1-5.63,2.43,6.59,6.59,0,0,1-2.59-.53,6.08,6.08,0,0,1-2.13-1.52,7.6,7.6,0,0,1-1.44-2.37,8.63,8.63,0,0,1-.54-3.15c0-1,0-2.07,0-3s0-1.94,0-2.91,0-2,0-3-.06-2.13-.15-3.3h6c.09,1.19.14,2.3.16,3.32s0,2,0,2.88,0,1.77-.05,2.59,0,1.66,0,2.47a3.69,3.69,0,0,0,.67,2.47,2.39,2.39,0,0,0,1.91.76,3.6,3.6,0,0,0,2.75-1.24A4.72,4.72,0,0,0,568.38,97V87.09h6v19.8A27.29,27.29,0,0,1,573.73,113.36Z"/><path class="cls-2" d="M600.92,96.93a11.45,11.45,0,0,1-.74,4.26,8.54,8.54,0,0,1-2.11,3.11,8.92,8.92,0,0,1-3.27,1.93,13.92,13.92,0,0,1-8.47,0,8.92,8.92,0,0,1-3.27-1.93,8.71,8.71,0,0,1-2.13-3.11,11.24,11.24,0,0,1-.76-4.26,11.06,11.06,0,0,1,.74-4.16A8.69,8.69,0,0,1,583,89.68a8.86,8.86,0,0,1,3.28-1.93,14.32,14.32,0,0,1,8.53,0,9,9,0,0,1,3.27,1.88,8.5,8.5,0,0,1,2.11,3.1A11.31,11.31,0,0,1,600.92,96.93Zm-6,0a4.51,4.51,0,0,0-1.2-3.34,4.45,4.45,0,0,0-3.25-1.19,4.19,4.19,0,0,0-3.21,1.19,4.73,4.73,0,0,0-1.11,3.34,5,5,0,0,0,1.09,3.44,4.11,4.11,0,0,0,3.23,1.21,4.39,4.39,0,0,0,3.29-1.19A4.75,4.75,0,0,0,594.93,96.93Z"/><path class="cls-2" d="M619.46,106.89V95.65a4.47,4.47,0,0,0-.3-1.82,2.57,2.57,0,0,0-.69-1,1.72,1.72,0,0,0-.86-.39,4.64,4.64,0,0,0-.76-.07,4.87,4.87,0,0,0-1,.17,3.22,3.22,0,0,0-1.37.83,5.49,5.49,0,0,0-1.24,1.91,8.71,8.71,0,0,0-.54,3.38v8.2h-6V93.8a22.35,22.35,0,0,0-.27-3.41,11.53,11.53,0,0,0-.72-2.76h6a7.31,7.31,0,0,1,.38,1c.08.27.16.66.25,1.16a9.45,9.45,0,0,1,3.09-2.06,8.68,8.68,0,0,1,3.35-.68,6.53,6.53,0,0,1,2.62.53,6.34,6.34,0,0,1,2.1,1.46,6.8,6.8,0,0,1,1.38,2.33,8.77,8.77,0,0,1,.51,3.08v12.4Z"/><path class="cls-2" d="M649.88,92.54a5.05,5.05,0,0,1-.81,2.79,6.6,6.6,0,0,1-2.25,2.13,12,12,0,0,1-3.51,1.37,19,19,0,0,1-4.58.5l-.55,0c-.2,0-.44,0-.72,0a4.06,4.06,0,0,0,1.35,2.67,4.25,4.25,0,0,0,2.91,1,13.34,13.34,0,0,0,6.63-2v4.72a13.3,13.3,0,0,1-3.27,1.42,13.82,13.82,0,0,1-3.53.43,11.62,11.62,0,0,1-4.07-.68,8.1,8.1,0,0,1-3.08-2,8.65,8.65,0,0,1-1.94-3.06,11.22,11.22,0,0,1-.67-4,12.67,12.67,0,0,1,.78-4.53,10.57,10.57,0,0,1,2.21-3.53,9.68,9.68,0,0,1,3.4-2.29,11.36,11.36,0,0,1,4.36-.81,8.21,8.21,0,0,1,5.33,1.62A5.25,5.25,0,0,1,649.88,92.54Zm-6,.45a1.57,1.57,0,0,0-.62-1.24,2.31,2.31,0,0,0-1.55-.52,3.55,3.55,0,0,0-2.57,1.06,5,5,0,0,0-1.38,2.9,3.87,3.87,0,0,0,.72.09h.66Q643.89,95.28,643.89,93Z"/><path class="cls-2" d="M680.61,95.19l9.59,11.7h-7.92l-7.47-9.77v9.77h-6V75.52h6v18.1l7.29-6.53h8.59Z"/><path class="cls-2" d="M702.3,81.65a2.48,2.48,0,0,1-1,2,4.18,4.18,0,0,1-5,0,2.7,2.7,0,0,1-1.08-2.06,2.43,2.43,0,0,1,1-2.06,4,4,0,0,1,2.61-.84,4.08,4.08,0,0,1,1.33.22,3.79,3.79,0,0,1,1.12.63,3.26,3.26,0,0,1,.77,1A2.52,2.52,0,0,1,702.3,81.65Zm-6.75,25.24V87.09h6v19.8Z"/><path class="cls-2" d="M721.11,106.89V95.65a4.67,4.67,0,0,0-.29-1.82,2.59,2.59,0,0,0-.7-1,1.72,1.72,0,0,0-.86-.39,4.64,4.64,0,0,0-.76-.07,4.87,4.87,0,0,0-1,.17,3.27,3.27,0,0,0-1.37.83,5.64,5.64,0,0,0-1.24,1.91,8.71,8.71,0,0,0-.54,3.38v8.2h-6V93.8a22.35,22.35,0,0,0-.27-3.41,11.08,11.08,0,0,0-.72-2.76h6a9.14,9.14,0,0,1,.39,1c.07.27.15.66.24,1.16a9.45,9.45,0,0,1,3.09-2.06,8.72,8.72,0,0,1,3.35-.68,6.49,6.49,0,0,1,2.62.53,6.34,6.34,0,0,1,2.1,1.46,6.82,6.82,0,0,1,1.39,2.33,9,9,0,0,1,.5,3.08v12.4Z"/><path class="cls-2" d="M749,106.89c0-.18-.07-.39-.09-.63s-.07-.45-.1-.72-.06-.6-.09-1a8.41,8.41,0,0,1-3,2.23,9.33,9.33,0,0,1-3.56.65,8.81,8.81,0,0,1-3.59-.7,7.87,7.87,0,0,1-2.73-1.93,8.86,8.86,0,0,1-1.76-3,11.55,11.55,0,0,1-.63-3.92,13.47,13.47,0,0,1,.74-4.54,11.07,11.07,0,0,1,2.07-3.58,9.15,9.15,0,0,1,3.17-2.34,9.65,9.65,0,0,1,4.05-.83,14,14,0,0,1,2,.13,12.36,12.36,0,0,1,2.21.58V75.52h6v24.53c0,.51,0,1.16.07,1.94s.1,1.53.16,2.25.13,1.72.22,2.65Zm-1.31-14.44A6.46,6.46,0,0,0,746,92a14.13,14.13,0,0,0-1.62-.09,4.51,4.51,0,0,0-3.62,1.55,6.29,6.29,0,0,0-1.34,4.25,4.57,4.57,0,0,0,.94,3.08,3.17,3.17,0,0,0,2.57,1.1,5.36,5.36,0,0,0,1.85-.31,3.44,3.44,0,0,0,1.5-1.08,5.76,5.76,0,0,0,1-2,10.78,10.78,0,0,0,.38-3.08Z"/><path class="cls-2" d="M760.35,106.89V75.52h6v31.37Z"/><path class="cls-2" d="M790.94,113.36a9.74,9.74,0,0,1-2,4.14,7.16,7.16,0,0,1-3.41,2.18,17.72,17.72,0,0,1-5,.62,14.91,14.91,0,0,1-2.89-.29,31,31,0,0,1-3-.79v-4.49c1,.08,1.93.14,2.82.19s1.77.07,2.64.07a6.55,6.55,0,0,0,2.42-.41,3.74,3.74,0,0,0,1.67-1.37,6.47,6.47,0,0,0,.94-2.5,20.45,20.45,0,0,0,.3-3.82v-2.43a7.73,7.73,0,0,1-5.63,2.43,6.59,6.59,0,0,1-2.59-.53,6.08,6.08,0,0,1-2.13-1.52,7.6,7.6,0,0,1-1.44-2.37,8.63,8.63,0,0,1-.54-3.15c0-1,0-2.07,0-3s.05-1.94.05-2.91,0-2,0-3-.07-2.13-.16-3.3h6c.09,1.19.14,2.3.16,3.32s0,2,0,2.88,0,1.77,0,2.59,0,1.66,0,2.47a3.69,3.69,0,0,0,.67,2.47,2.39,2.39,0,0,0,1.91.76,3.6,3.6,0,0,0,2.75-1.24A4.72,4.72,0,0,0,785.59,97V87.09h6v19.8A27.29,27.29,0,0,1,790.94,113.36Z"/><path class="cls-2" d="M805.48,104.12a2.4,2.4,0,0,1-1,2,4,4,0,0,1-2.49.8,3.81,3.81,0,0,1-2.5-.85,2.6,2.6,0,0,1-.07-4.12,3.54,3.54,0,0,1,2.39-.84,3.93,3.93,0,0,1,2.62.9A2.68,2.68,0,0,1,805.48,104.12Z"/></svg>