<svg id="Layer_1" data-name="Layer 1" xmlns="http://www.w3.org/2000/svg" xmlns:xlink="http://www.w3.org/1999/xlink" viewBox="0 0 256 400"><defs><style>.cls-1{opacity:0.2;}.cls-18,.cls-2{fill:#fbd3c7;}.cls-2,.cls-3{stroke:#b7774b;}.cls-15,.cls-16,.cls-17,.cls-18,.cls-2,.cls-3,.cls-4,.cls-5,.cls-6,.cls-7{stroke-miterlimit:10;}.cls-3{fill:none;}.cls-4,.cls-9{fill:#f9d1c6;}.cls-4{stroke:#897f33;}.cls-5{fill:#4d6fdb;stroke:#562f15;}.cls-6{fill:#dd36a1;}.cls-6,.cls-7{stroke:#54351f;}.cls-7{fill:#aa0f82;}.cls-8{fill:#d3978c;}.cls-10{fill:#897f33;}.cls-11{fill:#4cb9d6;}.cls-12{fill:#54351f;}.cls-13{fill:#ef852e;}.cls-14{fill:#60561a;}.cls-15{fill:#195954;}.cls-15,.cls-16{stroke:#231811;}.cls-16{fill:#0f4441;}.cls-17{fill:#4cb3e0;stroke:#3e74b5;}.cls-18{stroke:#9e673f;}.cls-19{fill:#bc7757;}.cls-20{fill:#fff;}.cls-21{fill:#4f3317;}.cls-22{fill:#26170d;}.cls-23{fill:#824212;}.cls-24{fill:#f5968e;}.cls-25{fill:#951c27;}.cls-26{fill:#d26653;}.cls-27{fill:#db9d8e;}.cls-28{fill:url(#linear-gradient);}</style><linearGradient id="linear-gradient" x1="362.29" y1="414.5" x2="362.6" y2="421.82" gradientTransform="matrix(1.42, 0.01, -0.01, 1.65, -388.78, -589.29)" gradientUnits="userSpaceOnUse"><stop offset="0" stop-color="#e8d9d7"/><stop offset="0.4" stop-color="#efe5e4"/><stop offset="1" stop-color="#fff"/></linearGradient></defs><g class="cls-1"><ellipse cx="100.37" cy="366" rx="83.5" ry="22.5"/></g><path class="cls-2" d="M198.44,126s2.46-8.56,2.18-15.15,8.24-7.93,9.08-13.09c0,0,3.31-4,4.76,4.12,0,0,.52,2.4-3.91,6.66l-.4,2.83a24.85,24.85,0,0,0,11.36-.34l.43-.36a76.22,76.22,0,0,1,8.55-6.14s4.31-2,3.31,1c0,0,3.46-3.37,4.73-1.47,0,0,1.09.94-2.44,3.88,0,0,2.89-2.48,3,.43S233.6,115,233.6,115s2.56,1-1.4,5.47-11.87,9-22.43,6.48"/><path class="cls-3" d="M221.94,110.7a24,24,0,0,1,2.49,10.6"/><path class="cls-3" d="M234,115.56s-1.63-2.62-5.27,2-8.06,3.64-8.06,3.64-3.71-3.3-10-1.14"/><polyline class="cls-2" points="237.22 107.01 229.64 113.57 224.35 116.77"/><path class="cls-2" d="M234.82,104.51s-3.48,4.92-11.42,8.51"/><path class="cls-3" d="M210.12,110.51s3.7,4.91-1.69,7.81"/><path class="cls-2" d="M199,122.92a52.26,52.26,0,0,1-10.37,16.89s-4,5.74-6.91,9.61l-12.29-5.12s-1.51,8.37-10.35,19.12c0,0,16.83,11,33.22,9.48,0,0,18.44-17.4,19.75-44.9,0,0-1-.56,4.23-.56"/><path class="cls-2" d="M181.74,149.42s-1.75,3.31,1.46,10"/><path class="cls-4" d="M83.81,321s.33,5.8-4.46,22.27c0,0,1.91,7.17-6.68,8.36S63,337.89,63,337.89l8.84-26.65S85.21,309.21,83.81,321Z"/><path class="cls-4" d="M140.73,325.34l-3.29,20.45s-1.73,10.89-11.76,6.19-3.79-14.3-3.79-14.3l1-13.36S132.34,310.93,140.73,325.34Z"/><path class="cls-5" d="M157,230.38s1.17,30.33-5.18,58.06S141,329.57,141,329.57s-6.34,5.64-20.45-.23c0,0,.47-54.3-2.11-66,0,0,.7-15-28.91,63,0,0-6.35,5.64-14.81,3.76a17.45,17.45,0,0,1-11.63-8.36s12.8-66.85,19.39-94.74C88.91,199.5,156.48,216.52,157,230.38Z"/><path class="cls-6" d="M169.17,169.74l-4.4-1.91L161,166.22l-6-2.59c1.17,16.1,1.76,33.21,2.06,46.28s.29,22.12.29,22.12c-33.73,28.07-70.75,5.41-76.16.24s-3.05-6.82.95-19.51,1.4-42.08,1.4-42.08l-7.75,14.57C65.52,184.32,53.06,173,53.06,173c2.58-7.51,17.63-29.14,17.63-29.14a47.17,47.17,0,0,1,20-10.34c12.46-3.06,38.55-4.24,38.55-4.24s9.14-.71,20.93,4.24c6.82,2.87,15.24,6.53,21.09,9.09l1.46.64,5.65,2.49C180.46,160.81,169.17,169.74,169.17,169.74Z"/><path class="cls-7" d="M169.17,169.74l-4.4-1.91c5.75-9,7.43-19.1,7.92-24.55l5.65,2.49C180.46,160.81,169.17,169.74,169.17,169.74Z"/><path class="cls-7" d="M98.89,134.6c0,4.48,6,8.82,16,8.82s20.22-4.34,20.22-8.82-8.11-8.11-18.1-8.11S98.89,130.12,98.89,134.6Z"/><path class="cls-4" d="M103.39,126.31c.45,3.88-1.21,4.65-1.21,4.65s0,8.93,13.87,8.23,14.8-8.23,14.8-8.23a16.29,16.29,0,0,1-1.34-5.46,9.4,9.4,0,0,1,.64-4.41c-3.53-10.11-31.5-8.93-28.21-.24A23,23,0,0,1,103.39,126.31Z"/><path class="cls-8" d="M102.75,126.18a24.07,24.07,0,0,1,1.41,5.46c10.57,3.57,20.72.84,25.29-.82a9.75,9.75,0,0,1,.62-4.41C126.65,116.31,99.57,117.48,102.75,126.18Z"/><path class="cls-4" d="M123.18,210.33S120.36,218,111,211.74c0,0-8.46-3.92-17.7,3.91,0,0,.51,2.14-2.31,7.62a35.51,35.51,0,0,1-9-7.77s-24.14-3.45-34.48-16.61c0,0-3.6-5.49,6.9-25.7,0,0,.94,2.82,20.37,11.28l-1.26,4.7s1.73,3.29,10.35,9.56,11.28,8.15,16.61,7.05,7.83-4.7,15,.79Z"/><path class="cls-9" d="M73.5,189.17s-6.42-3.29-15,3.29"/><path class="cls-10" d="M73.28,189.62a10.05,10.05,0,0,0-3.71-.88,14.35,14.35,0,0,0-3.91.34,18.21,18.21,0,0,0-3.75,1.33c-.6.28-1.17.63-1.77,1l-1.68,1.1,1.62-1.21c.57-.35,1.12-.74,1.72-1.06a19,19,0,0,1,3.73-1.6,15.06,15.06,0,0,1,4.07-.6,10.71,10.71,0,0,1,4.13.74Z"/><path class="cls-7" d="M55.88,167.51,53.06,173C52.82,177.5,75.85,186,75.85,186l2.83-5.88S64.57,176,55.88,167.51Z"/><path class="cls-11" d="M155.89,172.92a184,184,0,0,0-2.82-25.39"/><path class="cls-12" d="M155.39,172.93q-.15-6.36-.71-12.73c-.36-4.24-.87-8.47-1.61-12.67.9,4.17,1.58,8.38,2.11,12.61s.94,8.48,1.21,12.76Z"/><line class="cls-13" x1="83.96" y1="172.33" x2="82.67" y2="156.7"/><polygon class="cls-14" points="83.47 172.37 82.67 156.7 84.46 172.29 83.47 172.37"/><path class="cls-7" d="M84.24,179.22c.14,8,15.79,12.62,36,12.62s36.12-4.8,36.12-12.77c0-1.41-.39-3.76-.51-6.15-3.7,6.43-18.72,11.65-36.17,11.65-16.67,0-30.74-4.38-35.2-10.38C83.69,172.55,84.21,177.83,84.24,179.22Z"/><path class="cls-15" d="M80.06,342s1.22,5.67-7.61,8.25c0,0,1.63-7.07-4.86-9.57s-8.52,2.61-9.64,5.48A35.65,35.65,0,0,1,46.76,354c-7.17,3.25-13.87,10.51-11,19.37s20.65,8.13,29.41-3.14,9.33-9.46,14.52-15.94C79.71,354.24,84.28,342.31,80.06,342Z"/><path class="cls-16" d="M80.25,339s1.22,5.67-7.6,8.25c0,0,1.62-7.06-4.86-9.57s-8.52,2.62-9.65,5.48A35.45,35.45,0,0,1,47,351c-7.18,3.25-13.88,10.5-11,19.37s20.65,8.13,29.4-3.14,9.33-9.46,14.52-15.95C79.9,351.26,84.47,339.34,80.25,339Z"/><path class="cls-15" d="M68.59,350.86s-6.45-8.18-14-5.76l-1.37,2.2s11.65,1.55,12.68,4.82Z"/><path class="cls-15" d="M64.09,352.85c.49.62-5.17-8.59-14-5.76l-1.37,2.2s11.65,1.55,12.69,4.82Z"/><path class="cls-15" d="M145,351.53s0-8.36-7.52-6.53-6.43,6.53-7.37,8.05-7-4.41-8-7.44.31-3.19.31-3.19-2.5-1.52-3.44,3.19-1.73,12.61-1.73,12.61.36,3,11.13,7a88.65,88.65,0,0,1,15,10.48c6.58,5.93,24,7,27.74-.3s1.21-13.61-8.66-18.32A60.18,60.18,0,0,0,145,351.53Z"/><path class="cls-17" d="M145,351.53a9.92,9.92,0,0,0-8.31,5.47"/><path class="cls-16" d="M145,347.28s0-8.62-7.52-6.74-6.43,6.74-7.37,8.31-7-4.55-8-7.68c-.58-1.94-.32-2.74,0-3.07a.27.27,0,0,0-.15-.42c-.78-.17-2.27,0-2.94,3.49-.94,4.86-1.73,13-1.73,13s-1.72,1.1,11.13,7.21a88.71,88.71,0,0,1,15,10.82c6.58,6.11,24,7.2,27.74-.32s-2-13-11.91-17.86S145,347.28,145,347.28Z"/><path class="cls-15" d="M148.72,348.22s-5-.78-8.62,5.48l2.66,1.42s3.92-6.59,10.66-4.71C153.42,350.41,153.58,347.91,148.72,348.22Z"/><path class="cls-15" d="M152.48,350.73s-5-.79-8.62,5.48l2.67,1.41s3.91-6.58,10.65-4.7C157.18,352.92,157.34,350.41,152.48,350.73Z"/><path class="cls-5" d="M126,259.84s-3.76,3.45-18.18,2.2"/><path class="cls-4" d="M110.06,208.7s-3.85,4.67,4,11.32,11.07,7.12,11.07,7.12,1,3.65-6.6,2c0,0,1.12,2.68-5.44,1.77,0,0-.78,2.74-7,.83,0,0-10.44,2.75-18.78-8.89-6-8.3-6.11-8.61-6.11-8.61"/><path class="cls-4" d="M118.57,229.09s-7.89-3.62-12.9-9.58"/><path class="cls-4" d="M113.13,230.86s-5.58-1.63-10.91-8.21"/><path class="cls-4" d="M106.12,231.69s-7.34-2.93-10.16-6.85"/><path class="cls-18" d="M148.13,77s5.41-7,11.07-5.6,3.91,19.65-3.88,24.33-11.75.71-11.75.71"/><path class="cls-19" d="M159.18,79.23s-7.18-.91-11.29,6.53C147.89,85.76,152.41,74.81,159.18,79.23Z"/><path class="cls-19" d="M152.77,79.8s2.92,9-5.12,11.14C147.65,90.94,158.06,89.94,152.77,79.8Z"/><path class="cls-18" d="M75.43,90.19l2.18,14.19s14.67,32,52,22.86c8.59-2.09,23.05-16.55,22.88-30.46s.71-29.38.71-29.38,5.55-32.75-30-35.87-59.27,15.87-56.73,36S75.43,90.19,75.43,90.19Z"/><ellipse class="cls-20" cx="104.35" cy="82.7" rx="8.95" ry="9.14" transform="translate(-26.9 105.11) rotate(-48.09)"/><path class="cls-21" d="M108.18,91a9.69,9.69,0,0,1-12.44-4.42,9.37,9.37,0,0,1,4.43-13,9.9,9.9,0,0,1,7.56,0A9.79,9.79,0,0,1,113,78.81,9.47,9.47,0,0,1,113,86,8.85,8.85,0,0,1,108.18,91Zm0-.09a8.71,8.71,0,0,0,4.67-5,9,9,0,0,0-.35-6.86,9.16,9.16,0,0,0-5-4.67,9,9,0,0,0-6.84.15,8.66,8.66,0,0,0-4.67,5,9,9,0,0,0,.33,6.85,9.16,9.16,0,0,0,5,4.69A9,9,0,0,0,108.14,90.92Z"/><ellipse class="cls-22" cx="103.25" cy="82.12" rx="5.14" ry="5.25" transform="translate(-26.83 104.11) rotate(-48.09)"/><ellipse class="cls-20" cx="106.28" cy="79.57" rx="1.5" ry="1.53" transform="translate(-23.93 105.51) rotate(-48.09)"/><ellipse class="cls-20" cx="137.25" cy="79.76" rx="8.57" ry="8.04" transform="translate(46.21 209.81) rotate(-85.17)"/><path class="cls-21" d="M137,88.38a7.86,7.86,0,0,1-5.82-2.72,9.23,9.23,0,0,1-2.4-6.17,9.43,9.43,0,0,1,2.4-6.4,8.71,8.71,0,0,1,6.43-2.79,8.58,8.58,0,0,1,6.26,3.18,9.4,9.4,0,0,1-.9,12.53A8,8,0,0,1,137,88.38Zm0-.1a7.82,7.82,0,0,0,5.81-2.43A8.91,8.91,0,0,0,145.22,80a8.71,8.71,0,0,0-2.05-6,7.64,7.64,0,0,0-5.62-2.74,7.76,7.76,0,0,0-5.79,2.4,8.84,8.84,0,0,0-2.47,5.81,8.74,8.74,0,0,0,2,6A7.71,7.71,0,0,0,137,88.28Z"/><ellipse class="cls-22" cx="137.07" cy="79.2" rx="4.79" ry="4.62" transform="translate(41.38 205.32) rotate(-82.83)"/><ellipse class="cls-20" cx="140.13" cy="77.41" rx="1.52" ry="1.35" transform="translate(54.6 212.75) rotate(-86.62)"/><path class="cls-23" d="M128.38,85.69a13,13,0,0,0,2,4.58,10.11,10.11,0,0,0,.77,1c.27.33.55.52.88.91a2.71,2.71,0,0,1,.7,1.34,2.05,2.05,0,0,1,0,.78l-.05.39a3.65,3.65,0,0,1-.14.35,4.67,4.67,0,0,1-4.69,2.53,6.79,6.79,0,0,1-4.6-2.35,7.89,7.89,0,0,0,4.62,1.57,4.12,4.12,0,0,0,3.75-2.12,1.71,1.71,0,0,0-.32-1.87c-.19-.28-.6-.62-.84-1a8.28,8.28,0,0,1-.76-1.1A9.9,9.9,0,0,1,128.38,85.69Z"/><path class="cls-22" d="M105.93,64.91S95.39,61.5,91,71.55c0,0-1-6.62,7.17-11.93S105.93,64.91,105.93,64.91Z"/><path class="cls-22" d="M131.5,62.58s8.35-4.72,13.13,4.69c0,0,.09-6.7-7.28-10.93S131.5,62.58,131.5,62.58Z"/><path class="cls-22" d="M82.87,51.72s-12.32,17.9-4.26,35.82l-9.53,4.81S54.13,77.86,51.53,62,63.64,38.78,63.64,38.78l-9.45.8s.48-5,11-6.56c0,0-2.77-7.89,8.88-12.91,0,0,.83,1.67-1.57,8.8,0,0,9.22-14.38,35.23-17.18s51.42,21.13,54,36.92c2.68,16.7-9.15,28.83-9.15,28.83l-.75-12.26-1.22-9.56s.92-3.94-6.09-6.59-27.13-7.41-27.13-7.41,9.64-.58,17.51,12.23c0,0-13.48-8.16-34.33-6.36L115,55.18S88.89,49.51,82.87,51.72Z"/><path class="cls-18" d="M78,88.24s-5.2-7.48-12.18-6.61-8.07,19.24.37,24.63S80,108.06,80,108.06"/><path class="cls-19" d="M64.51,89.45S73.2,89.21,76.78,97C76.78,97,73.33,85.68,64.51,89.45Z"/><path class="cls-19" d="M72,90.61s-5,8.68,4.14,11.59C76.16,102.2,64,100.24,72,90.61Z"/><path class="cls-24" d="M109.38,102.64S120,104,123.71,104s15-.35,15-.35-3.5,13.35-14.23,12.84C111.38,115.85,109.38,102.64,109.38,102.64Z"/><path class="cls-25" d="M124.43,104.11c-3.88-.24-15-1.89-15-1.89s3.31,11.1,14.76,11.71c9.68.51,15.32-11.2,15.32-11.2S128.3,104.35,124.43,104.11Z"/><path class="cls-26" d="M129.58,109.29a20,20,0,0,0-3.34-.29,3.4,3.4,0,0,0-1.86.43,10,10,0,0,0-5.22-.54c-2.82.52-4,1.1-3.93,1.46,1.54,2.09,6.43,3.29,8.93,3.58a11.5,11.5,0,0,0,8.18-2C133,111.55,131.88,109.73,129.58,109.29Z"/><path class="cls-27" d="M139,100.32s-.12,4,1.47,4.49,0-1.32-.34-2C139.92,102.39,139,100.32,139,100.32Z"/><path class="cls-27" d="M110.3,99.78s0,4-1.66,4.39-.13-1.31.42-1.92A22.65,22.65,0,0,0,110.3,99.78Z"/><path class="cls-28" d="M112.8,102.86s.61,5.66,11.52,5.88,11.16-5.33,11.16-5.33a49.62,49.62,0,0,1-11.18.91C120.76,104.22,116.76,102.62,112.8,102.86Z"/><path class="cls-24" d="M109.4,102.22s7.62,3.53,14.4,3.39c14.4-.3,15.68-2.88,15.68-2.88s-11.4,1.16-15.61.84C120.07,103.27,109.4,102.22,109.4,102.22Z"/></svg>