<svg id="Layer_1" data-name="Layer 1" xmlns="http://www.w3.org/2000/svg" viewBox="0 0 128 128"><defs><style>.cls-1{fill:#fff;stroke:#26231e;stroke-miterlimit:10;stroke-width:3px;}</style></defs><path class="cls-1" d="M54.76,28.15c5.09,5.27,4.53,11.88,3.09,18.51L82.28,23.09c3.55-3.41,7.1-8.84,12-10.44s10,2.28,10.62,7.22c.74,5.75-5.23,10.27-9,13.72-4.59,4.26-9.29,8.39-13.8,12.73,6.23-.27,9.91,9.22,6.11,13.7,7.63-.31,8.21,8.89,4.67,13.35,2.59-.1,4,5.18,4,7-.09,3.61-2.33,6.89-4.61,9.52C87.69,95.23,81.51,99.16,76,103.45s-11.52,8.68-18.11,11.26-11.93,0-17.14-4.3A64.83,64.83,0,0,1,25.38,92.16C20.64,83.82,24,76.61,28.24,68.78A193.89,193.89,0,0,0,40.55,42.5c2-5.59,5.25-23.64,14.21-14.35"/></svg>