<?xml version="1.0" encoding="utf-8"?>
<!-- Generator: Adobe Illustrator 25.2.3, SVG Export Plug-In . SVG Version: 6.00 Build 0)  -->
<svg version="1.1" id="Layer_1" xmlns="http://www.w3.org/2000/svg" xmlns:xlink="http://www.w3.org/1999/xlink" x="0px" y="0px"
	 viewBox="0 0 256 256" style="enable-background:new 0 0 256 256;" xml:space="preserve">
<style type="text/css">
	.st0{fill:#B0C2ED;}
	.st1{clip-path:url(#SVGID_2_);}
	.st2{fill:#FFBF7E;}
	.st3{opacity:0.9;fill:#F59B76;enable-background:new    ;}
	.st4{fill:#3D4356;}
	.st5{fill:#FCB072;}
	.st6{opacity:0.5;fill:#383D4D;enable-background:new    ;}
	.st7{fill:#FFBF7E;stroke:#A06937;stroke-miterlimit:10;}
	.st8{fill:#2A3244;}
	.st9{fill:#FFFFFF;}
	.st10{fill:#4A4F64;}
	.st11{fill:#00C1A7;stroke:#32845B;stroke-miterlimit:10;}
	.st12{opacity:0.47;fill:#3B7D76;enable-background:new    ;}
	.st13{opacity:0.36;fill:#00C1A7;enable-background:new    ;}
	.st14{fill:#E8906B;}
	.st15{fill:#F7F9B3;}
	.st16{clip-path:url(#SVGID_4_);}
	.st17{fill:#350B02;}
	.st18{opacity:0.23;fill:#3B2127;enable-background:new    ;}
	.st19{clip-path:url(#SVGID_6_);}
	.st20{fill:#F3AE6A;}
	.st21{fill:#5F3441;}
	.st22{fill:#3B7D76;}
	.st23{fill:#3F4458;}
	.st24{fill:#383D4D;}
	.st25{fill:#AEE0FF;}
	.st26{fill:#6CC4FF;}
	.st27{fill:#F5968E;}
	.st28{fill:#951C27;}
	.st29{fill:#D26653;}
	.st30{fill:#DB9D8E;}
	.st31{fill:url(#SVGID_7_);}
	.st32{fill:#49442E;}
	.st33{fill:none;stroke:#0C4196;stroke-width:5;stroke-miterlimit:10;}
</style>
<circle class="st0" cx="128" cy="128" r="124.9"/>
<g>
	<defs>
		<circle id="SVGID_1_" cx="128" cy="128" r="124.9"/>
	</defs>
	<clipPath id="SVGID_2_">
		<use xlink:href="#SVGID_1_"  style="overflow:visible;"/>
	</clipPath>
	<g class="st1">
		<path class="st2" d="M38.2,255.6c0,0-2.8-0.8-7.3-1.9c-4.8-1.1-10.7-2.4-10.8-1.1s4.8,2.5,4.8,2.5c-1.3,0.3-2.6,0.4-3.9,0.3
			c-2.4-0.1-5.3-0.4-5.4,0.8s6.4,2.4,6.4,2.4s-0.5,0.8-3.3,1.1c-2.1,0.2-5-0.7-5.2,0.1c-0.4,1.4,1.8,2.3,5.8,3.2
			c1.4,0.3,2.8,0.6,4.1,0.7c0,0-1.5,0.6-3.3,1s-4.3-0.3-4.3,0.8c0,0.8,3.2,2.2,6,2.2c3.1,0,6-1.1,6.3,0.6s-4.5,3.8-3.7,4.9
			c1.4,1.8,6.6-0.6,10.4-3.9c2.3-2,4.1-4.5,5.2-7.3L38.2,255.6z"/>
		<path class="st3" d="M39.9,262.3c-0.2,0.5-0.5,0.9-0.8,1.4c-1.7-0.3-3.1-1.4-3.6-3.1c-0.6-2,0.1-4.1,1.7-5.3l1.1,0.3
			C38.3,255.5,40,261.8,39.9,262.3z"/>
		<path class="st4" d="M43.1,103.1c-1.6,2.6-2.4,5.7-2.2,8.8c0.4,8.3,4.8,11.9,4.8,11.9l11.4,3.2l7.3-23.2L43.1,103.1z"/>
		<path class="st5" d="M56.9,125c0,0-5.8-5.9-12.4-2c-4.1,2.4-6.8,9.7-2.9,14.3c2.1,2.7,5.5,4.2,9,3.9L56.9,125z"/>
		<path class="st6" d="M59.3,109.7c-2.7,1.3-5.7,1.7-8.6,0.9c-7.8-1.7-7.7-7.3-7.7-7.3l17.1,0.4L59.3,109.7z"/>
		<path class="st7" d="M60.1,104.3c0,0-1.3,12.9-3.3,20.7c-1.7,6.6-17.7,28,0.7,49.6c22.6,26.6,64.8,27.5,89.8,18.1
			c20.5-7.6,23.3-29.8,23.3-29.8s15.6,0,16.5-13.3c1.2-17.3-15.6-15.3-15.6-15.3S152.1,89,124,80.8S60.1,104.3,60.1,104.3z"/>
		<path class="st3" d="M59.8,106.5l-0.5,3.2c2.3,0.4,4.7,0.3,7.1-0.1c2.2-0.6,4.3-1.6,6.1-3c0,0,2.3,3.9,11,6.4
			c13.6,3.9,24.3-4.3,24.3-4.3c1.9,4.8,6,8.4,11,9.7c17.3,4.8,26.8-4.9,26.8-4.9c1.4,4.2,4,7.9,7.4,10.6c5.6,4.2,14.8,6.4,14.8,6.4
			s46.4-14.5-10.4-40.7S59.8,106.5,59.8,106.5z"/>
		<path class="st8" d="M151.8,101.6c0,0-20.5,8.2-31,6.8s-11-9.3-11-9.3s-15.4,9.9-26.3,6c-8-2.9-7.7-7.7-7.7-7.7
			s-12.4,13.4-26.1,9.7c-11.6-3.2-23.6-24.3-4-47.1C59,44.3,81.1,46.5,81.1,46.5s-11.9-10-4.9-18.9c16.4-20.4,46.3,6.5,46.3,6.5
			s0.3-9.7,10.1-8.2c26.2,4,35.3,32.5,35.3,32.5s0.3-7.3,4.4-9.3c3.5-1.7,12.2,0.9,14.3,12.2c1.3,7.2-3.7,15-3.7,15
			s7.4-2.6,11.8-0.9c4.8,1.8,6.7,6.8,5.4,10.3C199,88.9,194,90,194,90s6.1,7,7.4,20.2c1.6,16.8-14.6,32.4-14.6,32.4
			s-0.6-3.4-6.1-5.8c-3.7-1.7-8.8-0.9-8.8-0.9s-10.8-6.1-15.8-14.6S151.8,101.6,151.8,101.6z"/>
		<path class="st6" d="M95.1,53c-4.3,2.8-9.3,4.3-14.5,4.2c-6.2-0.1-11.7-3.8-14-9.5c0,0,3.1-0.6,6.7-1s7.4-0.3,7.4-0.3
			c1.7,1.2,3.4,2.3,5.3,3.3C88.8,51.1,91.9,52.2,95.1,53z"/>
		<path class="st6" d="M122.4,34.1c0,0-1.6-1.5-3.2-2.7c-1-0.8-2.1-1.5-3.1-2.1c0,0-2.5,5.2,0.3,10c4.5,7.8,11.3,8.6,11.3,8.6
			S124,44,123,39.6C122.5,37.8,122.3,36,122.4,34.1z"/>
		<path class="st6" d="M115.2,89.3c0,0-4.9-0.2-8.5,2.7c-7.1,5.8-4.4,10.8-4.4,10.8s1.9-0.9,3.8-1.8c1.3-0.6,2.5-1.3,3.7-2
			c-0.1-1.8,0.2-3.5,0.9-5.1C111.6,91.9,113.2,90.3,115.2,89.3z"/>
		<path class="st6" d="M166.4,54.8c0,0-3.9,3.4-0.9,9c1,1.7,2.6,2.9,4.5,3.4c-0.7-1.4-1.2-2.8-1.6-4.3c-0.3-1.4-0.5-2.9-0.4-4.4
			L166.4,54.8z"/>
		<path class="st6" d="M87.3,80.5c0,0-12.1,0.7-17.1,7.6c-6.8,9.3,1.2,13,1.2,13l2.1-1.8l2-2c0,0-0.5-3.1,1.6-7.8
			C79.9,83.6,87.3,80.5,87.3,80.5z"/>
		<path class="st6" d="M141.2,70.2c-3.5-3.2-13.9-1.5-17.3,0.8c-1.6,1-3.7,3.6-2.9,5.7c0.8,1.5,2.2,2.7,3.8,3.2
			c3.5,0.9,13.2,0.7,16.1-2.2C142.8,75.8,143.5,72.4,141.2,70.2z"/>
		<path class="st6" d="M149.1,84.8c-2.5-2.3-7.1,0.1-9.4,1.7c-1.1,0.8-2.6,2.7-1.6,4.2c2,3,8.1,0,10-2
			C149.2,87.8,150.4,86.1,149.1,84.8z"/>
		<path class="st6" d="M78.6,68.5c-3.8-2.7-13.6,1.3-17.4,3.9c-2.6,1.9-4.8,5.4-1.5,7.8c4.2,3.1,14.6-1.3,18.5-4.1
			C79.1,75.5,82.8,71.5,78.6,68.5z"/>
		<path class="st9" d="M124.7,143.7c-0.8-3.1,2-11.4,9.2-14.4c11-4.5,20.3,3.3,20.4,5.6s-1.8,11.2-10.3,14.1
			C132.6,152.8,125.4,146.6,124.7,143.7z"/>
		<path class="st9" d="M81.6,141.4c1.1-1.8,0.7-12.5-8.3-16.1c-8-3.2-15.5,5.6-15.5,7.9c0.1,4.3,2.5,8.2,6.3,10.2
			C73.1,148.6,80.6,142.9,81.6,141.4z"/>
		<path class="st10" d="M74.7,113.3c-2-3.9-10.3,1.9-8.8,4.9c0.5,1,1.7,0.4,2.4,0.2C69.6,117.9,75.7,115.2,74.7,113.3z"/>
		<path class="st10" d="M142.4,120.1c0.4-1.1-1-2.1-1.8-2.6c-1.4-0.9-6.6-3.3-7.5-0.5c-0.4,1.2,0.9,1.9,1.7,2.5
			C136.6,120.7,141.1,123.2,142.4,120.1z"/>
		<path class="st3" d="M175.2,143.4c-0.9,0.6-0.4,2.5-0.5,3.4c-0.1,2-0.8,5.4,2.3,4.8c2.5-0.4,3.9-4.2,3.1-6.3
			C179.6,143.6,176.8,142.3,175.2,143.4z"/>
		<path class="st3" d="M50.6,128.7c-2-3-6.9,1.5-5.5,4.4C47.7,138.1,52.9,132.1,50.6,128.7z"/>
		<path class="st7" d="M175.7,161.8c3,2.1,6.8,2.9,10.4,2c6.7-1.8,10.6-14.3,10.6-14.3s3.9-7.4,3.2-8.6c-0.9-1.4-5,3.7-5,3.7
			c0.3-1.4,0.7-2.8,1.2-4.2c0.7-2,1.6-4.2,1.3-5.1c-0.6-1.8-2.8,0-4.5,2.2c-1.1,1.5-2.1,3.1-2.9,4.7c0,0,0.9-3.4,1.5-4.9
			c1.1-2.7,2.1-5.3,1.2-6.1c-1.4-1.4-3.5,1-4.9,3.2c-0.9,1.5-1.6,3-2.1,4.7c0-1.4,0.1-2.7,0.3-4.1c0.3-1.7,1.1-3.9,0.7-4.5
			c-0.9-1.4-3,0.5-4.5,2.8s-1.1,3.5-1.1,3.5c4.2,3.5,6.3,8.9,5.3,14.3C185.2,158.7,175.7,161.8,175.7,161.8z"/>
		<path class="st9" d="M119,198.5c8.5,0.2,18.9,3.1,18.9,3.1l1.8,72.7c0,0-12.9,2.9-24.3,2.1c-7.3-0.6-14.5-2.4-21.2-5.4l9.6-70.2
			C108.7,199.2,113.8,198.4,119,198.5z"/>
		<path class="st11" d="M129.7,199.9c0,0-3.6,10.5-4.8,35c-1,20.3,0.7,44.5,14.8,43.6c8.8-0.5,13-12.3,13.6-17.1
			c1.6-12.7-1.7-32.8-1.7-32.8s17-3.1,26.1-16.5c13.8-20.3,14.3-37.1,12.2-43.9c-1.7-5.4-6-6.6-8.4-6.4c-4.1,0.4-6.2,3.4-7.4,10.3
			c-1.8,9.6-4.4,16.9-12,22.4c-7.3,5.3-16,4.1-23.8,3.8C132,198.2,129.7,199.9,129.7,199.9z"/>
		<path class="st11" d="M108.8,199.3c0,0-4.4-0.6-7.6,0.8c-5.8,2.4-18.2,17.2-29.5,27.4c-14.3,12.8-19.2,16.6-27.1,21.2
			c-3.4,1.9-9.6,5.5-7.6,10.5c1,2.7,3.6,6.6,12.7,6.1c18.9-1,32.7-13.7,32.7-13.7s-2.1,8.3-1,14.6c0.8,4.9,5,9.7,9.8,9.5
			c3.9-0.1,8.1-3.4,9.2-10c1.9-11.1,4.8-32.6,4.8-32.6L108.8,199.3z"/>
		<path class="st12" d="M145.4,229c-0.4,2.5,0.4,4.9,2.1,6.7c2.9,2.7,5.3,2.2,5.3,2.2s-0.2-3.3-0.6-5.6s-0.6-3.6-0.6-3.6
			c-1,0.2-2,0.4-3.1,0.4C147.5,229.1,146.4,229.1,145.4,229z"/>
		<path class="st13" d="M116.7,198.4c-3.1-0.1-6.2,0.4-9.1,1.4c0,0,1.7,5.8,9.7,6.6c10.6,1,11.3-6.9,11.3-6.9
			C124.7,198.8,120.7,198.5,116.7,198.4z"/>
		<path class="st14" d="M127.2,199.4c0,0-3.6,3.9-8.6,3.9s-9.8-4.3-9.8-4.3l-0.2-1.8h18.7L127.2,199.4z"/>
		<path class="st12" d="M86.3,237.8c0,0-6.6,2.6-8.7,9.3c-2,6.1,1.8,6.9,1.8,6.9s0.7-0.6,1.5-1.2l1.6-1.2c0,0,0.6-2.6,1.5-6
			S86.3,237.8,86.3,237.8z"/>
		<path class="st15" d="M164.8,213.4h-0.1c-0.2,0-0.3-0.2-0.3-0.4c0,0,0-0.1,0-0.1l2.1-6.6c0-0.2,0.2-0.4,0.4-0.3c0,0,0.1,0,0.1,0
			c0.2,0.1,0.3,0.2,0.3,0.4c0,0,0,0.1,0,0.1l-2.1,6.6C165.2,213.3,165,213.4,164.8,213.4z"/>
		<path class="st15" d="M182.9,199.7L182.9,199.7l-5.6-1.3c-0.2-0.1-0.3-0.3-0.3-0.5c0-0.2,0.3-0.3,0.5-0.3c0,0,0,0,0,0l5.6,1.3
			c0.2,0,0.4,0.2,0.3,0.4S183.1,199.7,182.9,199.7L182.9,199.7L182.9,199.7z"/>
		<path class="st15" d="M170.4,190.9c-0.2,0-0.3-0.1-0.4-0.3l-1-3.6c-0.1-0.2,0-0.4,0.2-0.5c0.2-0.1,0.4,0,0.5,0.2c0,0,0,0.1,0,0.1
			l1,3.6c0.1,0.2-0.1,0.4-0.3,0.5L170.4,190.9z"/>
		<path class="st15" d="M184.3,179.3c-0.2,0-0.3-0.1-0.3-0.3c-0.1-0.2,0-0.4,0.2-0.5l6.2-2.5c0.2-0.1,0.4,0,0.5,0.2
			c0.1,0.2,0,0.4-0.2,0.5c0,0,0,0,0,0l-6.2,2.5L184.3,179.3z"/>
		<path class="st15" d="M182.1,172c-0.1,0-0.2-0.1-0.3-0.1l-2.8-3.4c-0.1-0.2-0.1-0.4,0.1-0.6c0.2-0.1,0.4-0.1,0.5,0.1l2.8,3.4
			c0.2,0.2,0.2,0.4,0,0.6C182.3,172,182.2,172,182.1,172z"/>
		<path class="st15" d="M129.1,237c-0.1,0-0.2,0-0.3-0.1c-0.2-0.1-0.2-0.4,0-0.6c0,0,0,0,0,0l3.6-3.1c0.2-0.1,0.4-0.1,0.6,0.1
			c0.1,0.1,0.1,0.3,0,0.5l-3.6,3.1C129.3,237,129.2,237,129.1,237z"/>
		<path class="st15" d="M135.8,210.4c-0.2,0-0.4-0.2-0.4-0.4c0-0.2,0.2-0.4,0.4-0.4l5-0.6c0.2,0,0.4,0.2,0.4,0.4
			c0,0.2-0.1,0.4-0.3,0.4l-5,0.6H135.8z"/>
		<path class="st15" d="M149.1,248c-0.2,0-0.3-0.1-0.4-0.2c-0.1-0.2,0-0.4,0.2-0.5c0,0,0,0,0,0l4.4-2c0.2-0.1,0.4,0.1,0.5,0.3
			c0.1,0.2,0,0.4-0.2,0.5l-4.4,2C149.2,248,149.2,248,149.1,248z"/>
		<path class="st15" d="M141.3,251.5h-0.1l-6.3-2c-0.2-0.1-0.3-0.3-0.3-0.5c0.1-0.2,0.3-0.3,0.5-0.3c0,0,0,0,0,0l6.4,2
			c0.2,0.1,0.3,0.3,0.3,0.5c0,0,0,0,0,0C141.6,251.4,141.4,251.5,141.3,251.5z"/>
		<path class="st15" d="M151.2,205.2c-0.2,0-0.4-0.2-0.4-0.4L150,199c0-0.2,0.1-0.4,0.4-0.4c0.2,0,0.4,0.1,0.4,0.3l0.7,5.8
			C151.6,204.9,151.4,205.1,151.2,205.2C151.2,205.2,151.2,205.2,151.2,205.2L151.2,205.2z"/>
		<path class="st15" d="M62.5,242.5h-0.1l-5.5-1.6c-0.2-0.1-0.3-0.3-0.3-0.5c0.1-0.2,0.3-0.3,0.5-0.3c0,0,0,0,0,0l5.5,1.6
			c0.2,0,0.3,0.3,0.3,0.5C62.8,242.4,62.6,242.5,62.5,242.5L62.5,242.5z"/>
		<path class="st15" d="M50,254.4c-0.1,0-0.1,0-0.2,0c-0.2-0.1-0.3-0.3-0.2-0.5c0,0,0,0,0,0l2.3-4.6c0.1-0.2,0.4-0.2,0.6-0.1
			c0.2,0.1,0.2,0.3,0.2,0.5l-2.4,4.6C50.3,254.3,50.1,254.4,50,254.4z"/>
		<path class="st15" d="M74.4,238.4c0,0-0.1,0-0.1,0c-0.2-0.1-0.3-0.3-0.2-0.5c0,0,0,0,0,0l2.1-5.6c0.1-0.2,0.3-0.3,0.5-0.2
			c0.2,0.1,0.3,0.3,0.2,0.5l0,0l-2.1,5.6C74.8,238.3,74.6,238.4,74.4,238.4z"/>
		<path class="st15" d="M93.9,247.8c-0.2,0-0.3-0.1-0.4-0.3l-1.5-4c-0.1-0.2,0-0.4,0.2-0.5c0.2-0.1,0.4,0,0.5,0.2c0,0,0,0,0,0l1.5,4
			c0.1,0.2,0,0.4-0.2,0.5L93.9,247.8z"/>
		<path class="st15" d="M101.9,228.2c-0.1,0-0.2-0.1-0.3-0.1c-0.1-0.2-0.1-0.4,0.1-0.6l3.8-3.1c0.2-0.1,0.4-0.1,0.6,0.1
			c0.1,0.2,0.1,0.4-0.1,0.5l-3.8,3.1C102.1,228.1,102,228.2,101.9,228.2z"/>
		<path class="st15" d="M90.7,218.5c-0.1,0-0.2,0-0.3-0.1l-3.2-3.1c-0.2-0.2-0.2-0.4,0-0.6c0.1-0.2,0.4-0.2,0.6,0c0,0,0,0,0,0
			l3.2,3.1c0.2,0.2,0.2,0.4,0,0.6C90.9,218.5,90.8,218.5,90.7,218.5z"/>
		<path class="st15" d="M103.7,209.4h-0.1l-3.2-1.2c-0.2-0.1-0.3-0.3-0.2-0.5c0.1-0.2,0.3-0.3,0.5-0.2l0,0l3.2,1.2
			c0.2,0.1,0.3,0.3,0.2,0.5C104,209.3,103.9,209.4,103.7,209.4L103.7,209.4z"/>
		<path class="st15" d="M158.6,222.2c-0.1,0-0.2,0-0.3-0.1l-3.8-3.1c-0.2-0.1-0.2-0.4-0.1-0.6c0.1-0.2,0.4-0.2,0.6-0.1l3.8,3.1
			c0.2,0.1,0.2,0.4,0.1,0.6C158.9,222.1,158.8,222.2,158.6,222.2z"/>
		<g>
			<defs>
				<path id="SVGID_3_" d="M124.7,143.7c-0.8-3.1,2-11.4,9.2-14.4c11-4.5,20.3,3.3,20.4,5.6c-0.2,6.4-4.3,12-10.3,14.1
					C132.8,153.2,125.4,146.6,124.7,143.7z"/>
			</defs>
			<clipPath id="SVGID_4_">
				<use xlink:href="#SVGID_3_"  style="overflow:visible;"/>
			</clipPath>
			<g class="st16">
				<path class="st17" d="M155.4,139.2c0,5.6-4.6,10.2-10.2,10.2s-10.2-4.6-10.2-10.2c0-5.6,4.6-10.2,10.2-10.2c0,0,0,0,0,0
					C150.8,129,155.3,133.6,155.4,139.2z"/>
				<path class="st18" d="M124.6,143.6c0,0,1.4-5,8.4-8.4c6.7-3.5,14.6-3.6,21.4-0.4c0,0-1.5-3.1-6.8-5.4c-4.6-2-9.7-1.9-14.2,0.2
					C124.2,133.8,124.6,143.6,124.6,143.6z"/>
				<path class="st9" d="M139.2,140.9c0,1.7-1.4,3.1-3.1,3.1s-3.1-1.4-3.1-3.1s1.4-3.1,3.1-3.1S139.2,139.2,139.2,140.9L139.2,140.9
					z"/>
			</g>
		</g>
		<g>
			<defs>
				<path id="SVGID_5_" d="M81.6,141.4c1.1-1.8,0.7-12.5-8.3-16.1c-8-3.2-15.5,5.6-15.5,7.9c0.1,4.3,2.5,8.2,6.3,10.2
					C73.1,148.6,80.6,142.9,81.6,141.4z"/>
			</defs>
			<clipPath id="SVGID_6_">
				<use xlink:href="#SVGID_5_"  style="overflow:visible;"/>
			</clipPath>
			<g class="st19">
				<circle class="st17" cx="74.8" cy="135.7" r="10.2"/>
				<path class="st18" d="M81.7,141.1c0,0-0.8-8.1-10.2-12.1c-6.8-2.9-13.7,3.8-13.7,3.8s5.2-10,14.2-7.8
					C83.7,127.8,81.7,141.1,81.7,141.1z"/>
				<path class="st9" d="M68.8,136.6c0,1.7-1.4,3.1-3.1,3.1c-1.7,0-3.1-1.4-3.1-3.1s1.4-3.1,3.1-3.1S68.8,134.9,68.8,136.6
					L68.8,136.6z"/>
			</g>
		</g>
		<path class="st20" d="M137.1,150.8c-2.8,0-5.6-0.7-8.1-2c-2.8-1.5-4.5-3.6-4.9-5c-0.9-3.4,2-12,9.5-15c5.6-2.3,11.9-1.8,17,1.5
			c2.4,1.5,4.2,3.4,4.2,4.6c0.2,2.8-2.2,11.8-10.7,14.7C141.9,150.4,139.5,150.8,137.1,150.8z M125.2,143.6c0.3,1.1,1.8,2.8,4.3,4.2
			c2.3,1.3,7.3,3,14.2,0.7c8.5-2.8,10-11.9,9.9-13.5c0-0.5-1.1-2.1-3.7-3.7c-4.8-3-10.7-3.5-16-1.4
			C127,132.8,124.4,140.8,125.2,143.6L125.2,143.6z"/>
		<path class="st21" d="M124.3,143.6c-0.1-0.9-0.1-1.9,0-2.8c0.2-2.9,1.3-5.6,3-7.9c0.6-0.8,1.3-1.5,2-2.1c0.7-0.6,1.5-1.2,2.4-1.6
			c0.4-0.3,0.9-0.4,1.3-0.7s0.9-0.4,1.3-0.5s0.9-0.3,1.3-0.5s0.9-0.3,1.4-0.4c3.8-1,7.8-0.6,11.3,1.1c1.7,0.8,3.3,1.9,4.7,3.2
			c0.4,0.3,0.7,0.7,1,1l0.4,0.5c0.1,0.1,0.2,0.2,0.3,0.3c0.2,0.2,0.5,0.3,0.8,0.4c0.4,0.1,0.8,0.2,1.2,0.3l0,0
			c0.3,0.1,0.5,0.4,0.5,0.7c0,0.2-0.2,0.3-0.3,0.4c-0.5,0.2-1,0.3-1.5,0.4c-0.6,0-1.2-0.1-1.8-0.4c-0.3-0.2-0.5-0.3-0.7-0.6
			l-0.5-0.5c-0.3-0.3-0.6-0.6-0.9-0.9c-1.3-1.1-2.7-2-4.2-2.7c-1.5-0.7-3.1-1.1-4.8-1.3c-0.8-0.1-1.7-0.1-2.5,0
			c-0.8,0-1.7,0.2-2.5,0.3c-0.4,0.1-0.8,0.2-1.2,0.3s-0.8,0.3-1.2,0.4s-0.8,0.3-1.2,0.4s-0.8,0.3-1.1,0.5c-0.7,0.4-1.4,0.8-2.1,1.3
			c-0.7,0.5-1.3,1.1-1.8,1.7c-1.1,1.3-2,2.7-2.5,4.3c-0.3,0.8-0.5,1.6-0.7,2.5c-0.2,0.8-0.2,1.7-0.2,2.5l0,0c0,0.3-0.3,0.6-0.6,0.6
			c0,0,0,0,0,0C124.6,144,124.4,143.8,124.3,143.6z"/>
		<path class="st20" d="M71.6,146.1c-2.8,0-5.6-0.8-8-2.2c-3.9-2.1-6.4-6.2-6.5-10.7c0-1.4,2.2-4.6,5.4-6.7c3.6-2.5,7.5-3.1,11-1.7
			c4,1.6,7,4.9,8.3,9c1.1,3.4,1,6.7,0.3,7.9C81.2,143.1,77.1,146.1,71.6,146.1z M69.7,125.3c-2.3,0.1-4.6,0.8-6.5,2.2
			c-3.1,2.1-4.9,4.9-4.9,5.7c0.1,4.1,2.4,7.8,5.9,9.7c9.1,5.2,16.2-0.8,16.8-1.8c0.4-0.7,0.7-3.6-0.4-6.9c-1.1-3.8-3.9-6.8-7.6-8.3
			C72,125.5,70.8,125.3,69.7,125.3z"/>
		<path class="st21" d="M81.2,140.3c0-1.5-0.1-3-0.4-4.4c-0.3-1.4-0.8-2.8-1.5-4.1c-0.3-0.6-0.7-1.2-1.2-1.8c-0.4-0.5-0.9-1-1.5-1.5
			c-0.5-0.4-1.1-0.8-1.7-1.2c-0.6-0.3-1.3-0.6-2-0.8c-2.7-0.9-5.6-0.6-8.1,0.7c-1.3,0.7-2.4,1.5-3.5,2.5c-0.5,0.5-1,1-1.5,1.5
			c-0.2,0.3-0.5,0.6-0.7,0.8s-0.5,0.6-0.6,0.8l-0.1,0.1c-0.1,0.1-0.2,0.2-0.3,0.3l-0.2,0.2c-0.5,0.3-1,0.5-1.6,0.6
			c-0.4,0-0.7,0-1.1-0.2c-0.3-0.1-0.6-0.3-0.8-0.5c-0.2-0.2-0.2-0.6,0-0.8c0,0,0,0,0,0c0.1-0.1,0.2-0.2,0.4-0.2h0.1
			c0.2,0,0.4,0,0.6-0.1c0.2,0,0.3-0.1,0.5-0.2c0.1-0.1,0.2-0.1,0.3-0.2l0.2-0.1l0.1-0.1c0,0,0-0.1,0,0l-0.1,0.1
			c0.2-0.4,0.5-0.7,0.7-1.1s0.5-0.7,0.7-1c0.5-0.6,1.1-1.3,1.6-1.8c1.2-1.2,2.5-2.1,4-2.9c3.1-1.6,6.7-1.8,9.9-0.6
			c0.8,0.3,1.6,0.6,2.3,1c0.7,0.4,1.4,0.9,2,1.5c0.6,0.6,1.2,1.2,1.7,1.9c0.5,0.7,1,1.4,1.4,2.2c0.7,1.5,1.1,3.1,1.3,4.7
			c0.2,1.6,0.2,3.2,0,4.8c0,0.3-0.3,0.5-0.6,0.5C81.4,140.9,81.2,140.7,81.2,140.3L81.2,140.3z"/>
		<path class="st22" d="M147.6,229.6c-1.2,0-2.5-0.1-3.7-0.3c-0.3-0.1-0.5-0.4-0.5-0.7c0.1-0.3,0.4-0.5,0.7-0.5
			c2.7,0.5,5.5,0.4,8.2-0.2c0.3-0.1,0.6,0.1,0.7,0.4c0.1,0.3-0.1,0.6-0.4,0.7c0,0,0,0,0,0C151,229.4,149.3,229.6,147.6,229.6z"/>
		<path class="st22" d="M82.4,252.1h-0.1c-0.3-0.1-0.5-0.4-0.4-0.7c0,0,0,0,0,0c0-0.1,3.1-13.4,6.6-21.5c0.1-0.3,0.5-0.4,0.8-0.3
			s0.4,0.5,0.3,0.8l0,0c-3.5,8-6.5,21.2-6.6,21.3C82.9,251.9,82.7,252.1,82.4,252.1z"/>
		<path class="st23" d="M170.7,135.9c-3-1.8-5.8-3.8-8.4-6.2c-1.3-1.2-2.5-2.4-3.6-3.7c-3.5-4-5.8-8.9-6.7-14.1
			c-0.3-1.7-0.6-3.4-0.8-5.2c-0.2-1.7-0.2-3.5-0.1-5.2l1.1,0.8c-3.7,1.5-7.5,2.7-11.3,3.9c-3.8,1.2-7.7,2.1-11.7,2.7
			c-2,0.3-4,0.4-6,0.4c-1.1,0-2.1-0.1-3.2-0.3l-0.8-0.2c-0.3,0-0.5-0.1-0.8-0.2c-0.5-0.2-1-0.3-1.5-0.4c-2-0.7-3.8-1.9-5.3-3.4
			c-0.4-0.4-0.7-0.8-1-1.2c-0.3-0.4-0.6-0.9-0.8-1.4c-0.1-0.2-0.2-0.5-0.3-0.7c-0.1-0.2-0.2-0.5-0.3-0.8c-0.1-0.3-0.2-0.5-0.2-0.8
			s-0.1-0.5-0.2-0.8l1.2,0.6c-1.4,0.9-2.9,1.7-4.4,2.4s-3,1.4-4.6,2c-3.1,1.2-6.4,2.1-9.7,2.4c-1.7,0.2-3.4,0.2-5.1,0
			c-0.9-0.1-1.7-0.3-2.5-0.5c-0.4-0.1-0.8-0.3-1.2-0.4c-0.4-0.2-0.8-0.3-1.2-0.5c-1.6-0.7-3.1-1.7-4.3-2.9c-0.6-0.6-1.2-1.4-1.6-2.2
			c-0.2-0.4-0.4-0.8-0.5-1.3c0-0.2-0.1-0.5-0.2-0.7c0-0.1,0-0.2,0-0.4c0-0.1,0-0.1,0-0.2c0-0.1,0-0.2,0-0.2l1.4,0.6
			c-1.1,1.1-2.3,2.2-3.5,3.1c-1.2,1-2.5,1.9-3.8,2.7c-2.7,1.7-5.5,2.9-8.6,3.8c-3.1,0.8-6.3,0.9-9.4,0.3c-0.8-0.2-1.5-0.4-2.3-0.6
			c-0.7-0.3-1.5-0.6-2.2-1c-1.4-0.8-2.6-1.7-3.8-2.8c-0.1-0.1-0.1-0.3,0-0.5c0.1-0.1,0.3-0.1,0.5,0c2.2,2.1,5,3.5,8,4
			c3,0.5,6,0.3,8.9-0.6c2.9-0.9,5.6-2.1,8.2-3.8c1.3-0.8,2.5-1.7,3.6-2.7c1.2-1,2.3-2,3.3-3.1c0.3-0.3,0.8-0.3,1.1,0
			c0.1,0.1,0.2,0.3,0.2,0.5v0.2c0,0,0,0.1,0,0.1c0,0.1,0,0.2,0,0.3c0,0.2,0.1,0.3,0.1,0.5c0.1,0.3,0.2,0.7,0.4,1
			c0.3,0.7,0.8,1.3,1.3,1.8c1.1,1.1,2.4,1.9,3.8,2.6c0.4,0.2,0.7,0.3,1.1,0.4c0.4,0.1,0.7,0.3,1.1,0.4c0.7,0.2,1.5,0.4,2.3,0.5
			c1.6,0.2,3.2,0.2,4.7,0c3.2-0.4,6.3-1.2,9.3-2.4c1.5-0.6,3-1.2,4.4-1.9c1.4-0.7,2.9-1.5,4.2-2.3c0.4-0.2,0.9-0.1,1.1,0.3
			c0,0,0,0,0,0c0.1,0.1,0.1,0.2,0.1,0.3c0,0.2,0.1,0.4,0.1,0.6s0.1,0.4,0.2,0.7c0.1,0.2,0.1,0.4,0.2,0.6c0.1,0.2,0.2,0.4,0.3,0.6
			c0.2,0.4,0.4,0.8,0.7,1.2c0.3,0.4,0.5,0.7,0.9,1.1c1.3,1.4,2.9,2.4,4.6,3c0.4,0.2,0.9,0.3,1.3,0.4c0.2,0.1,0.5,0.1,0.7,0.2
			l0.7,0.1c0.9,0.2,1.9,0.3,2.8,0.3c1.9,0,3.9-0.1,5.8-0.4c3.9-0.6,7.7-1.5,11.5-2.6c3.8-1.1,7.5-2.4,11.2-3.8
			c0.4-0.1,0.8,0.1,1,0.4c0,0.1,0.1,0.2,0.1,0.3c-0.1,1.7,0,3.3,0.1,5c0.1,1.7,0.4,3.3,0.7,5c0.6,3.3,1.8,6.4,3.4,9.3
			c0.9,1.4,1.8,2.7,2.9,4c1.1,1.3,2.3,2.5,3.5,3.6c2.5,2.3,5.2,4.3,8.1,5.9l0,0c0.4,0.2,0.5,0.7,0.3,1.1
			C171.5,136,171.1,136.1,170.7,135.9L170.7,135.9L170.7,135.9z"/>
		<path class="st24" d="M108.7,55c-7.3,0-19.8-1.1-28.2-8c-0.3-0.3-0.4-0.7-0.1-1c0.3-0.3,0.8-0.4,1.1-0.1c11.7,9.6,32.8,7.4,33,7.3
			c0.4,0,0.8,0.3,0.9,0.7c0,0.4-0.3,0.8-0.7,0.9C112.7,55,110.7,55.1,108.7,55z"/>
		<path class="st24" d="M132.8,53.2c-0.2,0-0.3-0.1-0.5-0.2c-12.7-9.8-10.8-18.7-10.7-19c0.1-0.4,0.5-0.7,0.9-0.6
			c0.4,0.1,0.7,0.5,0.6,1c0,0.1-1.7,8.3,10.1,17.5c0.3,0.3,0.4,0.8,0.1,1.1C133.3,53.1,133,53.2,132.8,53.2L132.8,53.2z"/>
		<path class="st24" d="M172.7,71.1c-0.2,0-0.4-0.1-0.5-0.2c-3.4-3.4-5.2-8.1-4.9-12.9c0.1-0.4,0.4-0.7,0.9-0.7
			c0.4,0,0.8,0.4,0.7,0.9c0,0.1-0.6,6.9,4.4,11.6c0.3,0.3,0.3,0.8,0,1.1C173.1,71,172.9,71.1,172.7,71.1z"/>
		<path class="st24" d="M109.9,99.9c-0.4,0-0.7-0.3-0.8-0.7c-0.3-2.7,0.5-5.5,2.2-7.7c2.1-2.6,5.4-4.1,9.9-4.6
			c0.4-0.1,0.8,0.2,0.9,0.7c0.1,0.4-0.2,0.8-0.7,0.9c0,0-0.1,0-0.1,0c-4,0.4-7,1.7-8.8,4c-1.4,1.8-2.1,4.1-1.8,6.5
			c0.1,0.4-0.2,0.8-0.7,0.9c0,0,0,0,0,0L109.9,99.9z"/>
		<path class="st24" d="M75.7,98.6c-0.4,0-0.7-0.3-0.8-0.7c-0.5-4.5,1-9,4-12.4c5-5.8,13.7-8.7,25.8-8.5c0.4,0,0.8,0.4,0.8,0.8
			s-0.4,0.8-0.8,0.8c-11.4-0.2-20,2.6-24.6,8c-2.7,3-4,7-3.7,11.1c0.1,0.4-0.2,0.8-0.7,0.9L75.7,98.6z"/>
		<path class="st24" d="M192.9,90.8c-2.2,0-4.4-0.8-6.2-2.1c-0.4-0.3-0.4-0.8-0.2-1.1c0.3-0.3,0.7-0.4,1.1-0.2
			c1.8,1.4,4.1,2,6.4,1.7c0.4-0.1,0.9,0.1,1,0.6s-0.1,0.9-0.6,1c0,0-0.1,0-0.1,0C193.8,90.8,193.3,90.8,192.9,90.8z"/>
		<path class="st24" d="M179.4,78.5c-0.4,0-0.8-0.3-0.8-0.8c0-0.3,0.2-0.6,0.4-0.7c1.2-0.6,2.5-1.1,3.8-1.5c0.4-0.1,0.9,0.1,1,0.5
			c0,0,0,0,0,0c0.1,0.4-0.1,0.9-0.5,1c0,0,0,0,0,0c-1.2,0.4-2.4,0.9-3.5,1.4C179.6,78.5,179.5,78.5,179.4,78.5z"/>
		<path class="st24" d="M96.9,69.7c-0.2,0-0.4-0.1-0.6-0.3c-0.3-0.3-0.3-0.8,0.1-1.1c0,0,0,0,0,0c2-1.6,4.7-2.3,7.3-1.7
			c0.4,0.1,0.7,0.5,0.6,1c-0.1,0.4-0.5,0.7-1,0.6l0,0c-2.1-0.5-4.2,0-5.8,1.3C97.3,69.6,97.1,69.7,96.9,69.7z"/>
		<path class="st24" d="M180.7,118.7c-0.1,0-0.2,0-0.3,0c-0.4-0.1-0.6-0.6-0.5-1c0,0,0,0,0,0c0-0.1,2.1-6,0.6-9.8
			c-0.2-0.4,0-0.9,0.4-1s0.9,0,1,0.4c1.7,4.3-0.5,10.6-0.6,10.9C181.3,118.5,181,118.7,180.7,118.7z"/>
		<path class="st24" d="M168.6,107.4L168.6,107.4c-0.5,0-0.8-0.4-0.8-0.9c0,0,0,0,0,0c0.1-1.1,0.2-4.3-0.9-5.6
			c-0.3-0.3-0.2-0.8,0.1-1.1s0.8-0.2,1.1,0.1c1.7,2.2,1.3,6.6,1.2,6.8C169.4,107.1,169.1,107.4,168.6,107.4z"/>
		<path class="st24" d="M154.4,64.4c-0.3,0-0.6-0.2-0.7-0.5c0,0-1.5-3.7-3.9-4.8c-0.4-0.2-0.6-0.6-0.4-1c0.2-0.4,0.6-0.6,1-0.4
			c3.1,1.4,4.7,5.5,4.8,5.7c0.1,0.4-0.1,0.8-0.4,1C154.6,64.3,154.6,64.4,154.4,64.4z"/>
		<path class="st24" d="M102.4,41.2c-0.2,0-0.3-0.1-0.5-0.2c-1.5-1.2-3.4-1.8-5.3-1.7c-0.4,0.1-0.8-0.3-0.9-0.7
			c-0.1-0.4,0.3-0.8,0.7-0.9l0,0c2.3-0.2,4.7,0.6,6.5,2c0.3,0.3,0.4,0.8,0.1,1.1C102.8,41.1,102.6,41.2,102.4,41.2z"/>
		<path class="st24" d="M49,74.8c-0.1,0-0.2,0-0.3,0c-0.4-0.1-0.6-0.6-0.5-1c1-2.7,3.1-4.8,5.8-5.8c0.4-0.2,0.9,0,1,0.5
			c0.2,0.4,0,0.9-0.5,1c0,0,0,0-0.1,0c-2.2,0.8-3.9,2.6-4.8,4.8C49.6,74.6,49.3,74.8,49,74.8z"/>
		<path class="st25" d="M214.3,133.3c-0.1,0-0.2,0-0.4,0c-0.8-0.2-1.4-1-1.2-1.9c0.8-3.6,2.9-6.8,6-8.9c4.2-2.6,9.3-2.3,13.9-2
			l1.2,0.1c3,0.2,6,0.1,8-1.6c0.7-0.7,1.3-1.4,1.9-2.2c0.3-0.3,0.5-0.7,0.8-1c3.1-3.9,7.5-6.5,12.4-7.3c0.9-0.1,1.7,0.4,1.8,1.3
			c0.1,0.9-0.4,1.7-1.3,1.8c-4.1,0.7-7.9,2.9-10.5,6.2c-0.2,0.3-0.5,0.6-0.7,0.9c-0.7,1-1.5,1.9-2.4,2.8c-2.9,2.4-6.8,2.5-10.2,2.3
			l-1.2-0.1c-4.3-0.3-8.7-0.5-12,1.5c-2.4,1.6-4.1,4.1-4.6,6.9C215.6,132.8,215,133.3,214.3,133.3z"/>
		<path class="st26" d="M223.1,150.4c-0.6,0-1.1-0.3-1.4-0.9c-0.4-0.8-0.1-1.7,0.7-2.1c3.2-1.6,6.7-2.5,10.2-2.4
			c0.7,0,1.4,0,2.1,0.1c3.6,0.5,7.3-0.6,10.1-2.9c0.6-0.4,1.2-0.8,1.9-1.1c9.1-5.1,20.1-5.9,29.8-2.2c0.8,0.3,1.2,1.2,0.9,2
			c-0.3,0.8-1.2,1.2-2,0.9c-8.9-3.4-18.9-2.7-27.2,2c-0.6,0.3-1.2,0.7-1.8,1.1c-2.2,1.5-4.7,2.6-7.3,3.2c-1.5,0.2-3.1,0.2-4.6,0.1
			c-0.7,0-1.3-0.1-1.9-0.1c-3,0-6.1,0.7-8.8,2.1C223.6,150.3,223.4,150.4,223.1,150.4z"/>
		<path class="st25" d="M263.7,176.7c-0.4,0-0.8-0.2-1.1-0.5c-1.9-2-5.1-2.2-6.9-2.1c-1.5,0.1-2.9,0.3-4.4,0.6
			c-1.4,0.3-2.9,0.5-4.3,0.6c-3.6,0.2-7.2-0.3-10.5-1.7c-1.6-0.7-3.1-1.5-4.6-2.4c-1.3-0.8-2.7-1.5-4.1-2.1
			c-1.8-0.8-5.3-1.9-8.1-0.4c-0.8,0.4-1.7,0-2.1-0.8c-0.3-0.7-0.1-1.5,0.6-2c2.9-1.6,6.8-1.5,10.9,0.3c1.5,0.7,3,1.5,4.4,2.3
			c1.4,0.8,2.8,1.5,4.3,2.2c2.8,1.2,5.9,1.7,9,1.5c1.3-0.1,2.6-0.3,4-0.5c1.6-0.3,3.1-0.5,4.7-0.6c3.9-0.2,7.3,0.9,9.3,3.1
			c0.6,0.6,0.5,1.6-0.1,2.2C264.4,176.6,264.1,176.7,263.7,176.7L263.7,176.7z"/>
		<path class="st27" d="M82.8,169.8c0,0,15.8,0.1,21.6-0.3s23.6-2,23.6-2s-8.8,14.1-20.8,15.5C96,184.3,82.8,169.8,82.8,169.8z"/>
		<path class="st28" d="M105.6,169.5c-6.2,0.1-23.9-0.5-23.9-0.5s15.4,11.4,24.8,11.2s22.7-13.8,22.7-13.8S111.7,169.4,105.6,169.5z
			"/>
		<path class="st29" d="M114.3,174.6c-1.8-0.1-3.5-0.1-5.3,0c-1,0-2,0.3-2.9,0.7c-2.7-0.5-5.6-0.5-8.3,0c-4.4,0.9-3.9,1.1-3.7,1.5
			c3.8,1.8,8.3,3.6,12.3,3.5c3.2-0.2,6.3-1.3,8.9-3c1-0.5,1.9-1,2.8-1.6C119.1,175.2,118,174.9,114.3,174.6z"/>
		<path class="st30" d="M128,163.8c0,0,0.3,4.3,2.9,4.7s-0.1-1.4-0.8-2.2C129.8,166,128,163.8,128,163.8z"/>
		<path class="st30" d="M82.7,166.3c0,0,0.4,4.3-2,5s-0.4-1.4,0.4-2.1C81.7,168.2,82.2,167.3,82.7,166.3z"/>
		
			<linearGradient id="SVGID_7_" gradientUnits="userSpaceOnUse" x1="-624.8009" y1="-244.757" x2="-624.421" y2="-253.7069" gradientTransform="matrix(1.42 -0.12 -0.14 -1.64 956.65 -318.29)">
			<stop  offset="0" style="stop-color:#E8D9D7"/>
			<stop  offset="0.4" style="stop-color:#EFE5E4"/>
			<stop  offset="1" style="stop-color:#FFFFFF"/>
		</linearGradient>
		<path class="st31" d="M87.1,169.4c0,0,1.7,6.1,18.9,5.2s16.9-7,16.9-7c-5.8,1.2-11.6,1.9-17.5,2.2C99.8,170,93.3,168.7,87.1,169.4
			z"/>
		<path class="st27" d="M81.6,169c0,0,12.5,3,23.2,2.2c22.7-1.9,24.3-4.8,24.3-4.8s-17.8,2.5-24.5,2.6C98.6,169.1,81.6,169,81.6,169
			z"/>
		<path class="st32" d="M94.3,153.4c1.4,0.7,2.9,1.3,4.4,1.9c0.7,0.2,1.4,0.5,2.2,0.6c0.4,0.1,0.7,0.1,1.1,0.2c0.2,0,0.3,0,0.5,0
			h0.5c1.4-0.3,2.8-0.8,4.1-1.5c1.4-0.7,2.7-1.6,4.2-2.4c-0.9,1.4-2,2.7-3.3,3.7c-1.3,1.1-3,1.9-4.7,2.2h-0.7c-0.2,0-0.5,0-0.7-0.1
			c-0.2,0-0.5-0.1-0.7-0.1c-0.2-0.1-0.4-0.1-0.6-0.2c-0.8-0.2-1.6-0.6-2.3-1C96.5,155.8,95.2,154.7,94.3,153.4z"/>
		<path class="st7" d="M170.1,157.4c0.5,4,0.1,8.1-1.1,12"/>
	</g>
</g>
<circle class="st33" cx="128" cy="128" r="124.9"/>
</svg>
