<svg id="Layer_1" data-name="Layer 1" xmlns="http://www.w3.org/2000/svg" viewBox="0 0 579.29 287.7"><defs><style>.cls-1{fill:#3d0e00;stroke:#fffdf0;stroke-width:4px;}.cls-1,.cls-2{stroke-miterlimit:10;}.cls-2{fill:#ff6b31;stroke:#f9f9f9;stroke-width:2px;}.cls-3{fill:#fffde9;}</style></defs><path class="cls-1" d="M160.57,108.36s-9.18-84.28,45.94-97.79c49.68-12.17,68.05,40.64,68.05,40.64l29.64,2.11v-5.1l35.32-4.49v9.59l29.58-5.1v5.1S426.05,34.11,425,105.69L425,119l-45.73,5.88,3.51,30.83s32.59-14.8,60.9,9.77c0,0,59.29-33.12,85.46,28.84l4.28,17.09-10,1.66s18.84,42.42-20.48,57.64c-33.12,12.81-58.76-11.32-58.76-11.32s-6.08,14.73-38.86,12.92c-19.36-1.07-26.85-11.52-26.85-11.52a64.88,64.88,0,0,1-41.39,11.52c-19.23-1.34-25.64-7.75-25.64-7.75l-2.4,11.49L272,269.41l-2.19,6.68-41.13-1.87-.54-5.88s-36.32,16.83-62.49-5.61c0,0-32.05,31.52-78.53,6.68S61,217.06,61,217.06l9.88-14.95s-40.41-27.3-7.48-71.31c27.78-37.13,78.26-14.16,95.08.53l13.36,10.15S161.14,121.45,160.57,108.36Z"/><path class="cls-2" d="M121.41,257.73c-18.55,0-35-7.42-46.55-24.11a297.91,297.91,0,0,1,18.55-26.51c8.53,16.5,28.92,24.29,35.78,16.5,5.57-6.12,0-16-17.8-24.1-16.87-7.79-34.12-16.88-34.67-37.46-.37-11.87,6.67-30.41,30.22-32.08s40.61,12.24,49.33,30.6a191.42,191.42,0,0,0-26.15,16.13c-2.78-8-9.83-13.91-16.32-13.91-5.19,0-7.78,3.71-7.23,8,.74,8,8.53,10.76,21.88,15.77,19.84,7,31.34,19.46,31.71,34.86C160.53,245.86,140.13,257.73,121.41,257.73Z"/><path class="cls-2" d="M204.48,256.62c-15.39,1.11-33-7.61-38.94-31.16-6.49-25.77,4.82-54.32,30.59-54.7,24.66-.37,34.86,18.55,36,42.47,0,0-24.47.37-45.42,4.26.92,11.68,5.19,20.95,11.31,20.4,5.74-.56,6.86-8.35,5.56-15.39,0,0,16.87-2.23,32.82-3.34C236.18,246.05,219.31,255.69,204.48,256.62Zm-8.72-66.94c-4.45.74-7.6,6.67-8.9,15a152.21,152.21,0,0,0,19.47-1.86C205.22,194.87,201.51,188.94,195.76,189.68Z"/><path class="cls-2" d="M274.19,253.46c9.09-26,6.68-54.7-1.11-56.92-3.71-1.11-7.23.37-10.38,4.63.74,21.14,2.22,43.76,3.71,58.41,0,0-13.35-.92-26-.55a485.89,485.89,0,0,0-.74-82.15s13.16-.55,22.8-4.08V181a26.86,26.86,0,0,1,22.07-6.49c22.44,3.53,28,35.42,17.24,83.26C288.66,255.32,274.19,253.46,274.19,253.46Z"/><path class="cls-2" d="M345.21,257.73c-13.17-.19-24.85-4.64-34.67-17.8a128,128,0,0,1,16.68-19.29c6.31,12.8,17.62,16,20.4,12.61,2.23-2.78.74-7.6-11.31-12.79-10.94-4.64-20.58-11.5-21.14-23.74-.56-9.82,5.56-22.8,25-23.73,21-.93,31.16,13.54,35.61,27.81a73.46,73.46,0,0,0-23.92,7c-5.57-14.46-14.65-13.91-13.91-8.16,2.22,15.58,38.57,12.42,38,36.34C375.62,250.31,361.9,257.91,345.21,257.73Z"/><path class="cls-2" d="M421.23,256.62c-15.39,1.11-33-7.61-38.94-31.16-6.49-25.77,4.83-54.32,30.6-54.7,24.66-.37,34.86,18.55,36,42.47,0,0-24.47.37-45.43,4.26.93,11.68,5.19,20.95,11.31,20.4,5.75-.56,6.86-8.35,5.57-15.39,0,0,16.87-2.23,32.82-3.34C452.94,246.05,436.07,255.69,421.23,256.62Zm-8.71-66.94c-4.45.74-7.6,6.67-8.9,15a152.21,152.21,0,0,0,19.47-1.86C422,194.87,418.27,188.94,412.52,189.68Z"/><path class="cls-2" d="M490.21,257.73c-13.16-.19-24.85-4.64-34.67-17.8a127.71,127.71,0,0,1,16.69-19.29c6.3,12.8,17.61,16,20.39,12.61,2.23-2.78.74-7.6-11.31-12.79-10.94-4.64-20.58-11.5-21.14-23.74-.55-9.82,5.57-22.8,25-23.73,21-.93,31.16,13.54,35.61,27.81a73.46,73.46,0,0,0-23.92,7c-5.57-14.46-14.65-13.91-13.91-8.16,2.22,15.58,38.57,12.42,38,36.34C520.62,250.31,506.9,257.91,490.21,257.73Z"/><path class="cls-2" d="M222,152c-21.7,0-43.76-20.77-42.28-64,1.48-40.24,19.66-61.56,40-62.3,15.21-.56,36.35,13.9,41.91,59.7C267.39,131,243.84,152,222,152Zm-3-90.86c-7.42,1.12-13.91,16.51-14.28,33-.37,18.91,5.94,35.79,17.43,35.6S238.65,114,235.86,92.08C233.64,75.58,227,59.63,219,61.11Z"/><path class="cls-2" d="M312.63,151c.18-2.78.37-5.74.37-8.53a29.81,29.81,0,0,1-23.18,6.12c-22.62-3-28.18-37.64-13.91-81.4,13,2.41,26.52,4.82,26.52,4.82-9.09,26-9.09,53.41-.19,54.89,3.9.74,7.61-.74,10.76-4.82-.56-18.54-2.23-37.83-4.26-54,0,0,15,.56,25.58-2.41-2.78,28-2.41,58,1.3,83.07A116,116,0,0,0,312.63,151Z"/><path class="cls-2" d="M378.08,108.58c.37-10.38-2-17.06-5.56-17.8-3.15-.56-6.49.56-9.27,5.38.74,19.1,2.6,39.86,4.82,53.4,0,0-13.91-.56-26.52,3.52,1.86-25.58,3.16-58.4-.55-83.62,0,0,13.16-.37,22.25-3.9-.19,3-.37,6.31-.37,9.83,7-6.49,16.87-9.08,24.29-7.79,12.24,2,18.54,14.1,18.17,34.86C392.92,103.58,378.08,108.58,378.08,108.58Z"/><path class="cls-3" d="M17.65,162.26a5.15,5.15,0,0,0-1,3,2.86,2.86,0,0,0,.92,2,32.51,32.51,0,0,0,3.81,2.81c1.39,1,2.74,2.09,4,3.19.72.63,1.42,1.26,2.1,1.91.45.43.72,1,1.39,1.19,1,.23,2.83-.28,5.31-3.28a1.43,1.43,0,0,0,.15-.18,2,2,0,0,0,.12-.17,4.66,4.66,0,0,0,1-3.31,4.1,4.1,0,0,0-.89-2.17,21.28,21.28,0,0,0-3.34-3.6,48.69,48.69,0,0,0-4-2.95c-.68-.46-1.35-.92-2-1.4s-1.06-1.08-1.9-1.27c-.53-.12-1.44.06-2.84,1.15A13.53,13.53,0,0,0,17.65,162.26Z"/><path class="cls-3" d="M17.62,221.76A4.52,4.52,0,0,0,20,224.1a3.54,3.54,0,0,0,2.61,0,26.5,26.5,0,0,0,4.67-2.67c1.62-1,3.15-1.89,4.65-2.62a26.6,26.6,0,0,1,2.51-1.07c.28-.09.59-.13.88-.21a1.35,1.35,0,0,0,.76-.42,3.24,3.24,0,0,0,.61-2,11.83,11.83,0,0,0-.8-4.26c0-.07,0-.14-.07-.22l-.09-.19A4.21,4.21,0,0,0,33.18,208a4.76,4.76,0,0,0-2.65-.13c-.48.09-1,.22-1.44.35s-.93.28-1.38.44a22.47,22.47,0,0,0-2.53,1.12c-1.65.87-3.11,1.85-4.49,2.74-.68.44-1.36.88-2,1.25a10.43,10.43,0,0,1-1,.43,2.34,2.34,0,0,0-.87.65c-.33.4-.57,1.25-.36,3A12.51,12.51,0,0,0,17.62,221.76Z"/><path class="cls-3" d="M2.88,194.06a4.73,4.73,0,0,0,1.8,3.15,5.88,5.88,0,0,0,3.2,1.14,54.71,54.71,0,0,0,7.48-.16c2.73-.1,5.42-.2,8.07-.2h2.3c.4,0,.79,0,1.17,0l1.17,0a8.83,8.83,0,0,0,3-.19c1.44-.54,3.1-2.27,2.61-6.14a1,1,0,0,0,0-.23.53.53,0,0,0-.06-.21,4.54,4.54,0,0,0-2.39-3,7.58,7.58,0,0,0-3.17-.86c-.62-.06-1.24-.11-1.85-.14s-1.18-.12-1.8-.15q-1.93-.14-3.84-.12c-2.63,0-5.21.2-7.76.32-1.28.07-2.54.11-3.8.13a13.47,13.47,0,0,0-3.53.06A3.56,3.56,0,0,0,3.23,190,8.69,8.69,0,0,0,2.88,194.06Z"/><path class="cls-3" d="M561.9,221.09a5.15,5.15,0,0,0,1-3,2.81,2.81,0,0,0-.9-2,31.16,31.16,0,0,0-3.75-2.76c-1.37-1-2.69-2.06-3.95-3.14-.71-.61-1.4-1.24-2.06-1.88-.44-.42-.71-1-1.37-1.17-.94-.22-2.77.28-5.22,3.23-.05.05-.09.11-.14.17a.69.69,0,0,0-.12.18,4.53,4.53,0,0,0-1,3.24,4,4,0,0,0,.87,2.13,20.56,20.56,0,0,0,3.28,3.54c1.25,1.06,2.59,2,3.92,2.9.66.45,1.32.91,2,1.37s1,1.07,1.87,1.26c.52.11,1.41-.07,2.79-1.14A13.26,13.26,0,0,0,561.9,221.09Z"/><path class="cls-3" d="M561.94,162.64a4.42,4.42,0,0,0-2.31-2.31,3.53,3.53,0,0,0-2.57,0,26,26,0,0,0-4.59,2.63c-1.59,1-3.09,1.86-4.57,2.57a23.27,23.27,0,0,1-2.46,1.05c-.28.09-.58.13-.86.2a1.38,1.38,0,0,0-.75.42,3.17,3.17,0,0,0-.6,2,11.57,11.57,0,0,0,.78,4.18.9.9,0,0,0,.08.21.67.67,0,0,0,.09.19,4.11,4.11,0,0,0,2.47,2.38,4.58,4.58,0,0,0,2.6.12,13.77,13.77,0,0,0,1.41-.34c.47-.13.91-.28,1.36-.43a20.14,20.14,0,0,0,2.49-1.1c1.62-.85,3-1.82,4.4-2.69.68-.43,1.35-.86,2-1.23.31-.17.65-.28,1-.43a2.15,2.15,0,0,0,.86-.63c.32-.4.56-1.22.35-3A12.08,12.08,0,0,0,561.94,162.64Z"/><path class="cls-3" d="M576.41,189.85a4.67,4.67,0,0,0-1.76-3.1,5.77,5.77,0,0,0-3.14-1.12,54.38,54.38,0,0,0-7.35.16c-2.69.1-5.33.19-7.93.2h-1.1L554,186c-.4,0-.78,0-1.16,0l-1.14,0a8.79,8.79,0,0,0-3,.19c-1.41.53-3.05,2.23-2.56,6a1,1,0,0,0,0,.22.93.93,0,0,0,.05.21,4.5,4.5,0,0,0,2.35,2.93,7.49,7.49,0,0,0,3.12.85c.61.05,1.21.1,1.81.13s1.17.12,1.78.15c1.26.09,2.52.13,3.76.12,2.59,0,5.13-.2,7.63-.32,1.25-.06,2.49-.1,3.73-.12a13.45,13.45,0,0,0,3.47-.06,3.51,3.51,0,0,0,2.21-2.51A8.53,8.53,0,0,0,576.41,189.85Z"/></svg>