<svg id="Layer_1" data-name="Layer 1" xmlns="http://www.w3.org/2000/svg" xmlns:xlink="http://www.w3.org/1999/xlink" viewBox="0 0 256 256"><defs><style>.cls-1,.cls-2{fill:#b0c2ed;}.cls-1,.cls-29{stroke:#0c4196;stroke-width:5px;}.cls-1,.cls-29,.cls-6,.cls-9{stroke-miterlimit:10;}.cls-3{clip-path:url(#clip-path);}.cls-4{fill:#ffc48e;}.cls-5{fill:#fda470;}.cls-6{fill:#75d271;stroke:#689941;}.cls-7{fill:#68c060;}.cls-8{fill:#3d4356;}.cls-9{fill:#ffbf7e;stroke:#a06937;}.cls-10,.cls-23,.cls-25{fill:#f59b76;}.cls-10{opacity:0.9;}.cls-11,.cls-21{fill:#383d4d;}.cls-11{opacity:0.5;}.cls-12{fill:#2a3244;}.cls-13{fill:#995760;}.cls-14{fill:#4a4f64;}.cls-15{fill:#64b85a;}.cls-16{fill:#e8906b;}.cls-17{fill:#e0dac2;}.cls-18{fill:#c6bfa3;}.cls-19{fill:#79e0db;}.cls-20{fill:#aee0ff;}.cls-22,.cls-26{fill:#fff;}.cls-22{opacity:0.17;}.cls-23{opacity:0.39;}.cls-24{fill:#58a44c;}.cls-27{fill:#ffd7b6;}.cls-28{fill:#3f4458;}.cls-29{fill:none;}</style><clipPath id="clip-path"><circle class="cls-1" cx="128" cy="128" r="124.77"/></clipPath></defs><circle class="cls-2" cx="128" cy="128" r="124.77"/><g class="cls-3"><path class="cls-4" d="M190.21,193a12,12,0,0,1-1.33-3,18.67,18.67,0,0,1-.43-4.39s-3.27-6.27-1.78-8,4,5.06,6.75,4.48c3.88-.81,6.81-9.82,8.93-9.48,2.33.37-1.14,7.76-.34,8.31.5.34,7.36-7.22,8.73-6.26s-4.1,8.82-3.63,9.19c.7.55,6.36-4.78,7.35-3.87,1.53,1.44-5.09,8-5.09,8s6.13-3,6.44-1.92-5.2,6.06-5.2,6.06-2.66,4.23-6,6.12a10.57,10.57,0,0,1-10.61-.46A11.84,11.84,0,0,1,190.21,193Z"/><path class="cls-5" d="M196.48,192.8a.47.47,0,0,1-.22-.07.4.4,0,0,1-.09-.54c.14-.2,3.46-5-.15-8.26a.39.39,0,0,1,0-.55.37.37,0,0,1,.54,0c4.12,3.76.3,9.22.26,9.28A.42.42,0,0,1,196.48,192.8Z"/><path class="cls-6" d="M139.62,201.24c10.35,2.18,15,8.68,27,7.94s14.48-4.7,19.67-10.8c3.44-4,5.55-5.22,8.89-3.72,3.07,1.38,4.42,2.86,3.36,9.26-1.24,7.56-6.89,20.17-16.1,26.66a33.53,33.53,0,0,1-31.74,4.1s8.09,19,5.79,27.85c-3.18,12.29-53.82,13.57-60.81-1.24-3.09-6.53,1.65-24.94,1.65-24.94s3-20.87,9-30.48C110.4,199.42,129.28,199.06,139.62,201.24Z"/><path class="cls-7" d="M123.67,199.93a32,32,0,0,0-12,2.27s2.34,6,13.32,5.6c11.95-.38,10.79-7.22,10.79-7.22A108.15,108.15,0,0,0,123.67,199.93Z"/><path class="cls-8" d="M54.25,104.53a24.58,24.58,0,0,0-1.78,8.68c-.24,8.27,3.92,11.66,3.92,11.66l-.06,14a17.53,17.53,0,0,0-2.14,10.41,14.69,14.69,0,0,0,11.18,13.56l4.76-31.76,2.38-24.26Z"/><path class="cls-9" d="M68.88,122s-11.3-3-14.09,5.49c-4.75,14.36,9,22.41,9,22.41l5.37-15.69Z"/><path class="cls-10" d="M66.71,128.42c-4.78-2.9-8.64,4.5-3.93,7.06C66.92,137.73,70.36,130.63,66.71,128.42Z"/><path class="cls-11" d="M70,109l-.52,3.64a11.74,11.74,0,0,1-8.2.51c-7.28-1.89-7.88-6.1-7.88-6.1a15.39,15.39,0,0,1,.79-2.51C58.26,103.46,70,109,70,109Z"/><path class="cls-9" d="M70.3,107.27a229.37,229.37,0,0,1-2.94,23.17c-1.46,8.42-9.67,18.31-1.57,40.17,12,32.42,80,45.23,107.16,8,10.46-14.3,6.34-28.54,6.12-32.78-.5-10-1.06-23.05-1.06-23.05s-16.19-39.75-56-46.28C83.62,70.24,70.3,107.27,70.3,107.27Z"/><path class="cls-10" d="M70.15,108.58l-.46,4.13a12.81,12.81,0,0,0,6.84,1.68,14.3,14.3,0,0,0,6.88-2.32s3.79,4.91,12.3,5.47c9.77.64,20.17-4.87,20.17-4.87a23.35,23.35,0,0,0,13.93,6c16.85,1.21,21.94-10.1,21.94-10.1s1.48,6.29,10.66,11.25c8.22,4.45,11,.4,11,.4s5.08-37-42.34-37C105.82,83.31,70.15,108.58,70.15,108.58Z"/><path class="cls-12" d="M177.61,124.25s-6,.92-12.16-6.58c-5.29-6.43-9.51-18.29-9.51-18.29a44.69,44.69,0,0,1-15.34,7.67c-17.84,5-23-3.32-23-3.32s-13,5.62-21,5.87-10.46-4.54-10.46-4.54S56,119.58,46,95.39C42.63,87.31,44.41,78,55.53,69.11a39.83,39.83,0,0,1,20-8.06s-23-11.23-10.14-24.84c15.37-16.31,43.78,4.64,43.78,4.64a11.44,11.44,0,0,1,10.54-8.65c17.11-1.16,30.57,19.1,30.57,19.1a8.31,8.31,0,0,1,7.71-5.65c12.66-.27,13.4,17.54,13.4,17.54s12.84-8.92,17.85-.56c2.71,4.51-3.94,8.29-3.94,8.29a39.67,39.67,0,0,1,18.53,27.29c4.52,25.42-5.64,35.36-5.64,35.36s1.16,14.42-4.12,26c-7.75,16.94-21,19.44-21,19.44a87.28,87.28,0,0,0,5.9-20.42c1.42-8.81-1.1-12.9-1.53-17.07a52.36,52.36,0,0,1-.12-9.24C177.48,127.83,177.61,124.25,177.61,124.25Z"/><path class="cls-9" d="M177.43,131.22s8.1-4,10.67,3.93c5.08,15.64-9.49,19.74-9.49,19.74s-.13-3-.52-6.7c-.26-2.5-.73-5.08-.82-7.5-.13-3.5.07-7.71.14-9.05C177.42,131.37,177.43,131.22,177.43,131.22Z"/><path class="cls-11" d="M183.24,116.7a11.37,11.37,0,0,1,2,7.6c-.45,4.41-3.26,5.93-3.26,5.93a12.7,12.7,0,0,0-2.43.22c-1.12.24-2.15.57-2.15.57l.1-3.75.16-2.9a6.61,6.61,0,0,0,3.77-1.7C183.32,121,183.24,116.7,183.24,116.7Z"/><path class="cls-11" d="M86.62,64.34s-2.54,2.86-8.78,3.57C68.41,69,66.68,63.1,66.68,63.1A43.86,43.86,0,0,1,71,61.79c2.23-.52,4.56-.79,4.56-.79s2.28,1,5,1.85A53.54,53.54,0,0,0,86.62,64.34Z"/><path class="cls-11" d="M120.56,58.42s-13,3-18.09-7.9c-4.42-9.4,5.16-10.71,5.16-10.71l1.5.93a13.59,13.59,0,0,0,.4,8.49C111.89,55.72,120.56,58.42,120.56,58.42Z"/><path class="cls-11" d="M125.17,92.43s-10.2-.5-12.29,5.6c-1.71,5,2.78,6.58,2.78,6.58l2-.87s-2.43-2.85.4-7.1A10.2,10.2,0,0,1,125.17,92.43Z"/><path class="cls-11" d="M83.12,106.29s-6.39-.84-5.66-7.28c1.25-11.05,18-13.34,18-13.34s-6.77,4-9.21,9.12c-2.93,6.14-.17,10.34-.17,10.34Z"/><path class="cls-11" d="M150.21,51.24l-1.45-1.89a6.66,6.66,0,0,0-3,7.7c2.05,8,11.66,8.81,11.66,8.81a17.49,17.49,0,0,1-6.63-7.47A10.6,10.6,0,0,1,150.21,51.24Z"/><path class="cls-11" d="M146.11,70.39c-3.12-2.85-11.91-.8-14.7,2-1.85,1.82-2.92,5.46,0,7,3.81,1.93,10.13-1.09,13.17-3.33C146.17,74.79,148,72.07,146.11,70.39Z"/><path class="cls-11" d="M152.14,86.75c-2.43-1-5.2,0-7.11,1.88-1,1-1,3.22.49,3.75C148.39,93.42,156.54,88.47,152.14,86.75Z"/><path class="cls-11" d="M75.29,75.76C70.12,73.31,62.67,78.45,60.4,81c-3,3.42-2.78,9.9,2.77,10.44,5.11.5,11.14-3.72,14-7.76C78.72,81.43,78.34,77.2,75.29,75.76Z"/><path d="M97.27,95.69a.15.15,0,0,1-.11,0,.18.18,0,0,1,0-.27,12.93,12.93,0,0,1,7-4.45.21.21,0,0,1,.23.15.2.2,0,0,1-.15.23,12.49,12.49,0,0,0-6.76,4.3A.18.18,0,0,1,97.27,95.69Z"/><path class="cls-13" d="M139,142.81a42.45,42.45,0,0,1,5.83-4.69,32.29,32.29,0,0,1,3.28-2,16.92,16.92,0,0,1,1.83-.82l.48-.19.52-.16.52-.15.58-.1.6-.09c.23,0,.46,0,.68,0a4.32,4.32,0,0,1,.64.07,3.54,3.54,0,0,1,.6.12,10.06,10.06,0,0,1,2,.79,35.75,35.75,0,0,1,3.23,2,12.49,12.49,0,0,0,1.36.77,2.32,2.32,0,0,0,.5.19l.08,0h.12a1.47,1.47,0,0,0,.28,0,9.35,9.35,0,0,0,2.93-1.15l.06,0a.94.94,0,0,1,1.12,1.47,10,10,0,0,1-1.52,1.32,7.34,7.34,0,0,1-1.93,1,5.12,5.12,0,0,1-.62.15l-.34,0h-.37a5.29,5.29,0,0,1-1.28-.2,12.75,12.75,0,0,1-1.95-.79c-1.15-.56-2.19-1.16-3.17-1.58a7.36,7.36,0,0,0-1.38-.48l-.16,0-.14,0a1.27,1.27,0,0,0-.27,0h-.24l-.3.05c-.11,0-.2,0-.31.06l-.36.1-.36.11-.37.14c-.5.17-1,.42-1.53.64-1,.48-2.06,1-3.11,1.61-2.06,1.16-4.13,2.41-6.21,3.61l0,0a1.13,1.13,0,0,1-1.35-1.79Z"/><path class="cls-13" d="M99.44,141.48c-2-1.13-4.07-2.4-6-3.44-.25-.12-.5-.26-.74-.36s-.47-.23-.7-.32a6.27,6.27,0,0,0-.63-.23c-.09,0-.13,0-.19,0a1.76,1.76,0,0,0-.27,0,7.7,7.7,0,0,0-2.8.49,30.68,30.68,0,0,0-3.12,1.28c-1.07.49-2.16,1-3.37,1.49a10.46,10.46,0,0,1-2.09.58,3.12,3.12,0,0,1-.62.05,4.14,4.14,0,0,1-.62,0,9.13,9.13,0,0,1-1.11-.2,10.78,10.78,0,0,1-1.91-.71,14.87,14.87,0,0,1-1.73-1,1.24,1.24,0,0,1,1.16-2.18l.08,0a12.83,12.83,0,0,0,3,.92,4,4,0,0,0,.67,0,2.16,2.16,0,0,0,.28,0,1.32,1.32,0,0,0,.26,0,8.13,8.13,0,0,0,1.33-.52c1-.47,2-1.06,3.1-1.62a30.65,30.65,0,0,1,3.46-1.58,11.13,11.13,0,0,1,4.21-.76,3.7,3.7,0,0,1,.63.06,6.78,6.78,0,0,1,.68.15,9.69,9.69,0,0,1,1,.39,14.67,14.67,0,0,1,1.77.92A29.88,29.88,0,0,1,98.26,137a30.53,30.53,0,0,1,2.79,2.43,1.33,1.33,0,0,1-1.58,2.11Z"/><path class="cls-14" d="M155.23,120.09c-2-2.46-5.33.74-6.76,2.57-.46.59-1.44,2.43-.52,3C150.52,127.28,157.28,122.61,155.23,120.09Z"/><path class="cls-14" d="M95.21,126.68c1-.9-.88-2.77-1.46-3.45-1.47-1.7-5.2-4.28-7.15-1.75-1.09,1.42.31,2.84,1.29,3.73C89.76,126.9,93.14,128.52,95.21,126.68Z"/><path class="cls-6" d="M108.84,203.5s-11.89,6.24-15.34.09c-5.46-9.73,8.2-29.42,8.2-29.42l-6.54-8.45s-37.83,23.47-29,51.21c6.33,20,31,20.18,31,20.18s1.89-10.79,4.29-19.14C105.1,205.29,108.84,203.5,108.84,203.5Z"/><path class="cls-15" d="M99.14,226.79A10.66,10.66,0,0,0,93.82,231a13.12,13.12,0,0,0-2.16,5.49,22.87,22.87,0,0,0,2.5.46c1.36.17,2.93.22,2.93.22l.84-4.63Z"/><path class="cls-15" d="M147.51,227.14a15.62,15.62,0,0,1,6.72,3.48,13.06,13.06,0,0,1,3.59,5.9s-2.29-.35-3.74-.7a16.37,16.37,0,0,1-3.33-1.19s-.53-1.4-1.32-3.3S147.51,227.14,147.51,227.14Z"/><path class="cls-16" d="M115.9,201s1.79,4,8.48,4.33c6.31.31,8.56-4.33,8.56-4.33h-17Z"/><path class="cls-10" d="M177.45,141.19a34,34,0,0,1-.22-3.91c2.49-1.87,5.2.86,5.33,3.29s-2.65,3.57-4.69,3.57C177.87,144.14,177.62,142.9,177.45,141.19Z"/><path class="cls-17" d="M309,237.39s5.71-13.95-12.26-22.22c-19.14-8.82-31.33,9.5-31.33,9.5s-2.7-11.14-14.7-4-5.36,15-5.36,15-23.69,1.27-17.93,22.05C232.26,275.3,263,270.25,263,270.25s8.27,14.79,31.18,6.52c19.11-6.91,19.92-27.11,19.92-27.11l17.34-5.87a1.14,1.14,0,0,0-.15-2.2Z"/><path class="cls-18" d="M254.32,239.2a.8.8,0,0,1-.57-.24,10.83,10.83,0,0,0-8.8-2.53.8.8,0,0,1-.24-1.59,12.38,12.38,0,0,1,10.17,3,.81.81,0,0,1-.56,1.38Z"/><path class="cls-17" d="M270.25,105.75s2.23-23.56-15.79-21.47c-20.59,2.39-15.56,19.57-15.56,19.57s-11.48-3.91-14.65,7.85,13.87,11.18,13.87,11.18-4.4,8.45,5.12,10c9.3,1.54,12.68-4.64,12.68-4.64s3,2.91,8.62-1.26c4.83-3.56,3.8-9.41,3.8-9.41l15.22-6.44a1.14,1.14,0,0,0-.17-2.16Z"/><path class="cls-18" d="M242.35,109.74a.77.77,0,0,1-.49-.17,10.73,10.73,0,0,1-3.67-5.74.81.81,0,0,1,1.58-.31,9.14,9.14,0,0,0,3.08,4.78.81.81,0,0,1-.5,1.44Z"/><path class="cls-18" d="M241.51,119.94a.8.8,0,0,1-.8-.76c0-.21-.27-5.16,2.55-6.92a8.8,8.8,0,0,1,10.6.67.8.8,0,0,1-1.1,1.17,7.09,7.09,0,0,0-8.65-.47c-1.67,1-1.86,4.29-1.8,5.46a.8.8,0,0,1-.75.85Z"/><path class="cls-19" d="M213.26,204.53a1,1,0,0,1-.54-1.85,28.29,28.29,0,0,0,11.56-20.76,1,1,0,0,1,2,.14,29.76,29.76,0,0,1-12.49,22.31A1,1,0,0,1,213.26,204.53Z"/><path class="cls-20" d="M218.18,208.22a.8.8,0,0,1-.77-.58.82.82,0,0,1,.55-1s4.95-1.47,6.59-5.27a.8.8,0,0,1,1-.42A.82.82,0,0,1,226,202c-1.94,4.5-7.39,6.12-7.62,6.18A.91.91,0,0,1,218.18,208.22Z"/><path class="cls-20" d="M182.07,188.24a.81.81,0,0,1-.77-.57,16.12,16.12,0,0,1,.47-9.79.81.81,0,0,1,1-.44.82.82,0,0,1,.45,1.05,14.71,14.71,0,0,0-.43,8.72.8.8,0,0,1-.54,1A.85.85,0,0,1,182.07,188.24Z"/><path class="cls-21" d="M177.72,125.14h-.15a.8.8,0,0,1,.11-1.6c.17,0,3.93.17,4.64-4.64A21,21,0,0,0,179.54,106a.81.81,0,0,1,1.36-.87,22.3,22.3,0,0,1,3,14C183.07,124.85,178.6,125.14,177.72,125.14Z"/><path class="cls-21" d="M198.11,134.71a.8.8,0,0,1-.8-.72,11.82,11.82,0,0,0-2.64-6,.82.82,0,0,1,0-1.14.81.81,0,0,1,1.14,0,13.38,13.38,0,0,1,3.06,6.94.8.8,0,0,1-.72.89Z"/><path class="cls-21" d="M159.59,68a.77.77,0,0,1-.36-.09c-.13-.07-12.76-6.58-9.61-17.13a.8.8,0,1,1,1.54.46c-2.76,9.28,8.68,15.17,8.79,15.23a.8.8,0,0,1,.36,1.08A.82.82,0,0,1,159.59,68Z"/><path class="cls-21" d="M168.38,67.12A.72.72,0,0,1,168,67a.79.79,0,0,1-.37-1.07,10.94,10.94,0,0,1,3.5-3.64.8.8,0,0,1,.93,1.31,10,10,0,0,0-3,3A.8.8,0,0,1,168.38,67.12Z"/><path class="cls-21" d="M182.18,72.8a.8.8,0,0,1-.11-1.6,9.68,9.68,0,0,0,3-1.11.8.8,0,0,1,1.1.3.79.79,0,0,1-.3,1.09,11.24,11.24,0,0,1-3.61,1.31Z"/><path class="cls-21" d="M90.68,65.53c-7.54,0-16.06-4.1-16.48-4.3a.81.81,0,0,1,.71-1.45c.11,0,11.24,5.4,18.8,3.85A.81.81,0,0,1,94,65.21,16.87,16.87,0,0,1,90.68,65.53Z"/><path class="cls-21" d="M86,105.91a.81.81,0,0,1-.73-.46c0-.07-3.75-8,3.6-15.5C99.12,79.43,111,79.67,111.5,79.68a.79.79,0,0,1,.78.83.81.81,0,0,1-.83.78A31.53,31.53,0,0,0,90,91.08c-6.53,6.71-3.43,13.39-3.3,13.67a.8.8,0,0,1-.37,1.07A.79.79,0,0,1,86,105.91Z"/><path class="cls-21" d="M117.65,104.47a.81.81,0,0,1-.57-.24c-1.38-1.4-1.55-4.25-.42-6.79.87-1.93,3.79-6.37,12.36-6a.81.81,0,1,1-.07,1.61c-7.58-.36-10.09,3.39-10.82,5-.93,2.08-.67,4.22.1,5a.81.81,0,0,1,0,1.14A.78.78,0,0,1,117.65,104.47Z"/><path class="cls-21" d="M124,60.21l-.15,0c-.38-.07-9.4-1.9-13.69-8.43a14.14,14.14,0,0,1-1.75-11.17.8.8,0,1,1,1.57.35,12.59,12.59,0,0,0,1.52,9.93c3.91,6,12.57,7.72,12.66,7.74a.81.81,0,0,1-.16,1.6Z"/><path class="cls-21" d="M154.84,101a.82.82,0,0,1-.66-.34.8.8,0,0,1,.2-1.12s4.51-3.18,5.92-5.08a.81.81,0,0,1,1.13-.16.8.8,0,0,1,.16,1.13c-1.57,2.09-6.09,5.29-6.29,5.43A.78.78,0,0,1,154.84,101Z"/><path class="cls-21" d="M170.28,99.55a.81.81,0,0,1-.79-.65,9.74,9.74,0,0,0-2.39-4.57.81.81,0,0,1,1.11-1.18,11.46,11.46,0,0,1,2.86,5.43.81.81,0,0,1-.63,1Z"/><path class="cls-21" d="M97.37,73.23a.81.81,0,0,1-.46-1.47,12.86,12.86,0,0,1,7.42-2,.81.81,0,0,1-.11,1.61,11.32,11.32,0,0,0-6.39,1.74A.86.86,0,0,1,97.37,73.23Z"/><path class="cls-21" d="M86.23,45a.94.94,0,0,1-.36-.08,9.2,9.2,0,0,0-5.56-.65.81.81,0,0,1-1-.61.8.8,0,0,1,.6-1,10.75,10.75,0,0,1,6.65.78A.8.8,0,0,1,86.23,45Z"/><path class="cls-21" d="M135.15,51.08a.81.81,0,0,1-.62-.29,9.36,9.36,0,0,0-4.48-2.89.81.81,0,1,1,.37-1.57,10.91,10.91,0,0,1,5.34,3.43.8.8,0,0,1-.1,1.13A.77.77,0,0,1,135.15,51.08Z"/><path class="cls-21" d="M192.12,98.09a.81.81,0,0,1-.78-.62s-1.16-4.86-3.24-7.08a.81.81,0,1,1,1.18-1.1c2.37,2.54,3.58,7.6,3.63,7.81a.82.82,0,0,1-.6,1Z"/><path class="cls-22" d="M116.06,152.49a1.43,1.43,0,0,1-1.9.47c-.83-.33-1.31-1.06-1.09-1.64s1.08-.79,1.91-.47S116.29,151.91,116.06,152.49Z"/><path class="cls-23" d="M93.74,166.65s-2-1.1-1.56-4.78,4.24-4.69,4.24-4.69-3.25-5.75,2.38-9.32c7.92-5,12.08,1.74,12.08,1.74s-4.12,6.13,0,7.49,9.09-4.85,9.09-4.85a5.64,5.64,0,0,1,5.92,2.25c2.66,3.71-.56,7.38-.56,7.38a2.52,2.52,0,0,1,2.85,2.8c0,3.15-3.48,4.3-3.48,4.3s1,1.3,0,4.83c-2.6,6.63-10.23,4-10.23,4s-11.74,3.83-16.69-.9A12.27,12.27,0,0,1,93.74,166.65Z"/><path class="cls-24" d="M97.14,237.62H97a.6.6,0,0,1-.49-.7c0-.31,1.37-7.79,2.25-11.18a.6.6,0,0,1,1.17.3c-.87,3.35-2.22,11-2.24,11.09A.59.59,0,0,1,97.14,237.62Z"/><path class="cls-24" d="M150.8,235.51a.6.6,0,0,1-.56-.39,93.94,93.94,0,0,0-4.11-9.24.61.61,0,0,1,.22-.83.59.59,0,0,1,.82.22,91.3,91.3,0,0,1,4.19,9.41.61.61,0,0,1-.34.79A.85.85,0,0,1,150.8,235.51Z"/><path class="cls-4" d="M95,163.75c.45-3.12,4.12-5.93,4.12-5.93s-.62-5.85,3.75-9c6-4.38,10.08,0,9.55,1.26-1.1,2.54-3.59.56-5.6,2.59a4.45,4.45,0,0,0,1.14,6.79,7.27,7.27,0,0,0,8.9-.7c2.78-2.35,1.41-4.62,2.24-6,1-1.55,3.45-.4,4.51,1.58,1.26,2.33.2,6,.2,6a2.4,2.4,0,0,1,2.39,1c1.61,2.25-.87,5.29-.87,5.29a2.28,2.28,0,0,1,1.39,2.48c-.31,2.5-4.11,3.44-4.11,3.44a1.74,1.74,0,0,1,.29,1.41c-.1,1.05-1.84,2.66-4.3,2.89a8.27,8.27,0,0,1-4.06-.75,25.32,25.32,0,0,1-7.61.35C99.43,175.61,94.34,168.59,95,163.75Z"/><path class="cls-25" d="M117,166.07a.41.41,0,0,1,0-.81,8.07,8.07,0,0,0,6.6-5,.4.4,0,0,1,.53-.21.4.4,0,0,1,.21.53,8.91,8.91,0,0,1-7.3,5.51Z"/><path class="cls-25" d="M118.2,170.19a3.39,3.39,0,0,1-.56,0,.4.4,0,0,1,.08-.8,9.61,9.61,0,0,0,7.33-3,.4.4,0,0,1,.57,0,.41.41,0,0,1,0,.57A10.42,10.42,0,0,1,118.2,170.19Z"/><path class="cls-25" d="M119.17,173.79a6.21,6.21,0,0,1-2-.31.4.4,0,1,1,.26-.76,7.7,7.7,0,0,0,5.33-.62.4.4,0,0,1,.54.16.41.41,0,0,1-.16.55A9.26,9.26,0,0,1,119.17,173.79Z"/><path class="cls-25" d="M118,177.21a8.9,8.9,0,0,1-3.48-.76,25.86,25.86,0,0,1-7.61.32,14.45,14.45,0,0,1-9.76-5.53,10.52,10.52,0,0,1-2.47-7.54c.42-2.89,3.39-5.46,4.11-6-.08-1.07-.18-6.18,3.9-9.16,4.75-3.47,8-1.45,8.85-.75s1.49,1.79,1.21,2.43c-.66,1.54-1.82,1.62-3,1.7a3.78,3.78,0,0,0-2.72,1,3.72,3.72,0,0,0-1,3.09,4.29,4.29,0,0,0,2.06,3.16,6.93,6.93,0,0,0,8.49-.66,4.68,4.68,0,0,0,1.79-4,3.8,3.8,0,0,1,.39-1.89,1.79,1.79,0,0,1,1.67-.88,4.55,4.55,0,0,1,3.44,2.48c1,1.94.58,4.69.34,5.79a2.68,2.68,0,0,1,2.22,1.17c1.43,2,0,4.47-.63,5.37a2.62,2.62,0,0,1,1.21,2.64c-.27,2.21-2.89,3.27-3.94,3.61a2.82,2.82,0,0,1,.13,1.24c-.13,1.31-2.13,3-4.62,3.2Zm-3.44-1.47a.28.28,0,0,1,.15,0,8.16,8.16,0,0,0,3.88.71c2.27-.21,3.91-1.7,4-2.58a1.57,1.57,0,0,0-.19-1.14.35.35,0,0,1-.08-.34.34.34,0,0,1,.24-.24s3.57-.91,3.85-3.15a1.92,1.92,0,0,0-1.17-2.1.36.36,0,0,1-.21-.24.35.35,0,0,1,.06-.31s2.3-2.86.86-4.87a2.09,2.09,0,0,0-2-.86.32.32,0,0,1-.32-.1.31.31,0,0,1-.08-.33s1-3.57-.17-5.75a3.9,3.9,0,0,0-2.85-2.12,1.13,1.13,0,0,0-1.06.56,3.18,3.18,0,0,0-.29,1.56,5.36,5.36,0,0,1-2,4.5,7.59,7.59,0,0,1-9.3.73,5,5,0,0,1-2.38-3.67,4.14,4.14,0,0,1,4.34-4.84c1.08-.08,1.86-.14,2.36-1.29.11-.25-.19-1-1-1.62s-3.66-2.41-8,.77c-4.16,3-3.62,8.66-3.61,8.72a.34.34,0,0,1-.14.31s-3.57,2.77-4,5.71a9.82,9.82,0,0,0,2.34,7,13.69,13.69,0,0,0,9.28,5.28,25.13,25.13,0,0,0,7.5-.34Z"/><path class="cls-26" d="M194.57,215.36a.61.61,0,0,1-.6-.51c0-.11-1.72-10.67-9.24-13.71a.6.6,0,0,1-.33-.78.61.61,0,0,1,.79-.34c8.16,3.3,9.91,14.19,10,14.65a.61.61,0,0,1-.51.69Z"/><path class="cls-26" d="M183.08,229.35a.57.57,0,0,1-.18,0,.59.59,0,0,1-.39-.76c0-.13,4.34-13.87-4.1-20.86a.6.6,0,0,1,.77-.93c9.07,7.52,4.67,21.57,4.48,22.17A.61.61,0,0,1,183.08,229.35Z"/><path class="cls-26" d="M167.81,235a.66.66,0,0,1-.33-.09.62.62,0,0,1-.19-.84c.08-.11,7.32-11.91,1.55-23.14a.61.61,0,0,1,1.08-.55c6.08,11.84-1.53,24.21-1.6,24.34A.61.61,0,0,1,167.81,235Z"/><path class="cls-26" d="M153.15,235.92a.61.61,0,0,1-.4-.14.6.6,0,0,1-.06-.85c.1-.12,9.92-11.8,7.63-25.11a.6.6,0,0,1,.49-.7.62.62,0,0,1,.7.5c2.39,13.88-7.8,26-7.91,26.09A.57.57,0,0,1,153.15,235.92Z"/><path class="cls-26" d="M147.08,221.72a.63.63,0,0,1-.42-.17.6.6,0,0,1,0-.85c.06-.07,6-6.41,5.83-12.66a.6.6,0,0,1,.58-.63.62.62,0,0,1,.63.59c.22,6.76-5.9,13.26-6.16,13.53A.63.63,0,0,1,147.08,221.72Z"/><path class="cls-26" d="M127,215.82c-5.13,0-11.56-1.31-19.42-5.13a.61.61,0,0,1-.28-.81.61.61,0,0,1,.81-.28c11.05,5.38,20.9,6.45,28.48,3.12a18.74,18.74,0,0,0,8.22-6.72.6.6,0,0,1,1,.6,19.64,19.64,0,0,1-8.71,7.19A24.73,24.73,0,0,1,127,215.82Z"/><path class="cls-26" d="M127.78,227.52c-.92,0-1.86,0-2.79-.08-5.54-.3-15.8-1.79-22.39-8.39a.61.61,0,0,1,0-.85.6.6,0,0,1,.86,0c6.3,6.31,16.23,7.74,21.59,8,7.45.41,14.82-.93,17.52-3.18a.6.6,0,1,1,.77.93C140.74,226.16,134.58,227.52,127.78,227.52Z"/><path class="cls-26" d="M125.64,239.44c-8.33,0-17.61-1.92-25.29-7.11a.6.6,0,0,1-.17-.83.61.61,0,0,1,.84-.17c15.43,10.42,37.42,7.35,44.25,2.21a.6.6,0,0,1,.84.12.61.61,0,0,1-.12.85C142.34,237.26,134.53,239.44,125.64,239.44Z"/><path class="cls-26" d="M124.3,252.23a53.37,53.37,0,0,1-27-7,.61.61,0,0,1-.22-.83.6.6,0,0,1,.82-.22c25,14.52,53,1.25,53.31,1.12a.6.6,0,1,1,.53,1.08,68.1,68.1,0,0,1-17.53,5.06A66.5,66.5,0,0,1,124.3,252.23Z"/><path class="cls-26" d="M125.67,264.5c-8.07,0-19.26-1.65-29.13-9a.6.6,0,0,1,.72-1c20.88,15.47,51.08,6.8,56,.54a.61.61,0,0,1,.85-.1.59.59,0,0,1,.1.84c-2.5,3.2-11.28,7.21-22.6,8.36C129.92,264.37,127.92,264.5,125.67,264.5Z"/><path class="cls-26" d="M75.14,227.54a15,15,0,0,1-3.26-.36.6.6,0,0,1-.46-.72.61.61,0,0,1,.72-.46c14.37,3.17,24.14-17.39,24.23-17.6a.61.61,0,0,1,1.1.51,47.57,47.57,0,0,1-6.92,10.36C85.7,224.73,80.43,227.54,75.14,227.54Z"/><path class="cls-26" d="M76.82,209.4c-7.31,0-10.85-3.94-11-4.12a.61.61,0,0,1,.06-.86.6.6,0,0,1,.85.06s3.85,4.25,11.62,3.65c8.82-.67,12.56-4.76,12.6-4.8a.6.6,0,1,1,.9.8c-.16.19-4.06,4.5-13.41,5.21C77.87,209.38,77.34,209.4,76.82,209.4Z"/><path class="cls-26" d="M89.11,194.64c-3.67,0-12.13-.68-16.45-6.55a.6.6,0,0,1,1-.71c5.1,6.92,17,6,17.14,6a.61.61,0,1,1,.11,1.21C90.76,194.59,90.12,194.64,89.11,194.64Z"/><path class="cls-26" d="M96.42,182.9a14.26,14.26,0,0,1-12.7-7.14.6.6,0,1,1,1.07-.54,13.11,13.11,0,0,0,11.64,6.47.61.61,0,0,1,.6.61A.6.6,0,0,1,96.42,182.9Z"/><path class="cls-4" d="M95,163.75c.45-3.12,4.12-5.93,4.12-5.93s-.62-5.85,3.75-9c6-4.38,10.08,0,9.55,1.26-1.1,2.54-3.59.56-5.6,2.59a4.45,4.45,0,0,0,1.14,6.79,7.27,7.27,0,0,0,8.9-.7c2.78-2.35,1.41-4.62,2.24-6,1-1.55,3.45-.4,4.51,1.58,1.26,2.33.2,6,.2,6a2.4,2.4,0,0,1,2.39,1c1.61,2.25-.87,5.29-.87,5.29a2.28,2.28,0,0,1,1.39,2.48c-.31,2.5-4.11,3.44-4.11,3.44a1.74,1.74,0,0,1,.29,1.41c-.1,1.05-1.84,2.66-4.3,2.89a8.27,8.27,0,0,1-4.06-.75,25.32,25.32,0,0,1-7.61.35C99.43,175.61,94.34,168.59,95,163.75Z"/><path class="cls-25" d="M117,166.07a.41.41,0,0,1,0-.81,8.07,8.07,0,0,0,6.6-5,.4.4,0,0,1,.53-.21.4.4,0,0,1,.21.53,8.91,8.91,0,0,1-7.3,5.51Z"/><path class="cls-25" d="M118.2,170.19a3.39,3.39,0,0,1-.56,0,.4.4,0,0,1,.08-.8,9.61,9.61,0,0,0,7.33-3,.4.4,0,0,1,.57,0,.41.41,0,0,1,0,.57A10.42,10.42,0,0,1,118.2,170.19Z"/><path class="cls-25" d="M119.17,173.79a6.21,6.21,0,0,1-2-.31.4.4,0,1,1,.26-.76,7.7,7.7,0,0,0,5.33-.62.4.4,0,0,1,.54.16.41.41,0,0,1-.16.55A9.26,9.26,0,0,1,119.17,173.79Z"/><path class="cls-25" d="M118,177.21a8.9,8.9,0,0,1-3.48-.76,25.86,25.86,0,0,1-7.61.32,14.45,14.45,0,0,1-9.76-5.53,10.52,10.52,0,0,1-2.47-7.54c.42-2.89,3.39-5.46,4.11-6-.08-1.07-.18-6.18,3.9-9.16,4.75-3.47,8-1.45,8.85-.75s1.49,1.79,1.21,2.43c-.66,1.54-1.82,1.62-3,1.7a3.78,3.78,0,0,0-2.72,1,3.72,3.72,0,0,0-1,3.09,4.29,4.29,0,0,0,2.06,3.16,6.93,6.93,0,0,0,8.49-.66,4.68,4.68,0,0,0,1.79-4,3.8,3.8,0,0,1,.39-1.89,1.79,1.79,0,0,1,1.67-.88,4.55,4.55,0,0,1,3.44,2.48c1,1.94.58,4.69.34,5.79a2.68,2.68,0,0,1,2.22,1.17c1.43,2,0,4.47-.63,5.37a2.62,2.62,0,0,1,1.21,2.64c-.27,2.21-2.89,3.27-3.94,3.61a2.82,2.82,0,0,1,.13,1.24c-.13,1.31-2.13,3-4.62,3.2Zm-3.44-1.47a.28.28,0,0,1,.15,0,8.16,8.16,0,0,0,3.88.71c2.27-.21,3.91-1.7,4-2.58a1.57,1.57,0,0,0-.19-1.14.35.35,0,0,1-.08-.34.34.34,0,0,1,.24-.24s3.57-.91,3.85-3.15a1.92,1.92,0,0,0-1.17-2.1.36.36,0,0,1-.21-.24.35.35,0,0,1,.06-.31s2.3-2.86.86-4.87a2.09,2.09,0,0,0-2-.86.32.32,0,0,1-.32-.1.31.31,0,0,1-.08-.33s1-3.57-.17-5.75a3.9,3.9,0,0,0-2.85-2.12,1.13,1.13,0,0,0-1.06.56,3.18,3.18,0,0,0-.29,1.56,5.36,5.36,0,0,1-2,4.5,7.59,7.59,0,0,1-9.3.73,5,5,0,0,1-2.38-3.67,4.14,4.14,0,0,1,4.34-4.84c1.08-.08,1.86-.14,2.36-1.29.11-.25-.19-1-1-1.62s-3.66-2.41-8,.77c-4.16,3-3.62,8.66-3.61,8.72a.34.34,0,0,1-.14.31s-3.57,2.77-4,5.71a9.82,9.82,0,0,0,2.34,7,13.69,13.69,0,0,0,9.28,5.28,25.13,25.13,0,0,0,7.5-.34Z"/><path class="cls-27" d="M117.68,169.54a.39.39,0,0,1-.4-.39.4.4,0,0,1,.39-.42,9.54,9.54,0,0,0,6.74-2.89,4.38,4.38,0,0,0,1.27-3.33.4.4,0,0,1,.37-.43.38.38,0,0,1,.43.36,5.12,5.12,0,0,1-1.47,3.93,10.36,10.36,0,0,1-7.32,3.17Z"/><path class="cls-27" d="M116.61,165.45a.4.4,0,0,1-.4-.34.41.41,0,0,1,.35-.46,7.54,7.54,0,0,0,6.62-6.54,5.47,5.47,0,0,0-1.13-4.34,2.3,2.3,0,0,0-1.62-.82.41.41,0,1,1,0-.81,3.06,3.06,0,0,1,2.21,1.08,6.28,6.28,0,0,1,1.35,5,8.36,8.36,0,0,1-7.32,7.27Z"/><path class="cls-27" d="M118,172.9a3.32,3.32,0,0,1-.71-.06.41.41,0,0,1-.27-.5.41.41,0,0,1,.5-.27c.48.14,5.07-.09,7.26-1.87a2.46,2.46,0,0,0,1-2.17.4.4,0,1,1,.8-.06,3.25,3.25,0,0,1-1.36,2.87C123.3,172.42,119.62,172.9,118,172.9Z"/><path class="cls-13" d="M115.85,148.5a4.81,4.81,0,0,1-1,.66c-.36.18-.74.31-1.06.49a2.45,2.45,0,0,0-.81.69,1.89,1.89,0,0,0-.44.91,2.23,2.23,0,0,0,.47,1.89,2.61,2.61,0,0,0,1.75.94,2.92,2.92,0,0,0,1.95-.55,6.3,6.3,0,0,0,1.54-1.59,11.16,11.16,0,0,0,1.1-2,8.56,8.56,0,0,0,.62-2.24,6.77,6.77,0,0,1-.28,2.36,9.2,9.2,0,0,1-.94,2.22,6.33,6.33,0,0,1-1.61,1.86,3.53,3.53,0,0,1-2.47.74,3.31,3.31,0,0,1-2.28-1.24,2.8,2.8,0,0,1,1.21-4.39c.39-.15.78-.23,1.14-.35a7.15,7.15,0,0,0,1.08-.43,0,0,0,0,1,0,0A0,0,0,0,1,115.85,148.5Z"/><path class="cls-28" d="M176.93,125.1c-1.91,0-7-.67-12.1-6.92-4.46-5.42-8.1-14.43-9.27-17.49a46.44,46.44,0,0,1-14.75,7.13c-15.66,4.37-21.89-1.23-23.46-3.11-2.66,1.11-13.57,5.47-20.68,5.7-6.62.21-9.73-2.94-10.77-4.34-3.56,1.58-20.57,8.37-32.5.18a.8.8,0,0,1-.2-1.12.79.79,0,0,1,1.11-.2c12.32,8.46,31.34-.51,31.53-.6a.8.8,0,0,1,1.06.35c.09.17,2.45,4.36,9.72,4.12,7.67-.25,20.54-5.75,20.67-5.81a.82.82,0,0,1,1,.31c0,.08,5.13,7.69,22.08,3a44.35,44.35,0,0,0,15-7.51.81.81,0,0,1,.73-.16.82.82,0,0,1,.55.51c0,.11,4.23,11.8,9.37,18,5.76,7,11.19,6.33,11.42,6.3a.8.8,0,0,1,.24,1.59A5,5,0,0,1,176.93,125.1Z"/></g><circle class="cls-29" cx="128" cy="128" r="124.77"/></svg>