<svg xmlns="http://www.w3.org/2000/svg" xmlns:xlink="http://www.w3.org/1999/xlink" viewBox="0 0 512 400"><defs><style>.cls-1{isolation:isolate;}.cls-2,.cls-3{stroke:#f9cb08;stroke-miterlimit:10;stroke-width:0.75px;}.cls-2{fill:url(#radial-gradient);}.cls-3,.cls-5{fill:#fdab1e;}.cls-4{fill:#ffb522;opacity:0.15;mix-blend-mode:screen;}.cls-5{opacity:0.2;mix-blend-mode:multiply;}</style><radialGradient id="radial-gradient" cx="266.09" cy="-1.77" r="177.75" gradientTransform="translate(-9.6 183.81) rotate(3.87)" gradientUnits="userSpaceOnUse"><stop offset="0" stop-color="#fd931b"/><stop offset="0.53" stop-color="#fd931b"/><stop offset="0.58" stop-color="#fd931b"/><stop offset="0.59" stop-color="#fda61d"/><stop offset="0.62" stop-color="#fdbd20"/><stop offset="0.65" stop-color="#fdce22"/><stop offset="0.68" stop-color="#fddb24"/><stop offset="0.73" stop-color="#fde225"/><stop offset="0.84" stop-color="#fde425"/><stop offset="0.85" stop-color="#fde429"/><stop offset="0.86" stop-color="#fde73a"/><stop offset="0.89" stop-color="#fde845"/><stop offset="0.92" stop-color="#fde94c"/><stop offset="1" stop-color="#fde94e"/></radialGradient></defs><g class="cls-1"><g id="Layer_1" data-name="Layer 1"><path class="cls-2" d="M373.09,197.09c7.83-6.81,11.24-6.87,16.3-8.35,5.78-1.69,15.59.67,15.59.67s-2.67-6.33-15.42-10.11c-9.22-2.73-15-5.33-20.43-10.7,4.57-.11,9.47-.23,14.67-.64,19.22-1.5,34.77-18.39,34-41.75-8.42,22.19-31.82,20.89-62,12.68,3.13-8.46,6-10.25,9.39-13.85,4.16-4.36,13.84-7.22,13.84-7.22s-5.47-4.13-18.41-1c-9.85,2.36-16.32,3-24.24.63,4.45-2.73,9.29-5.62,14.3-9.06C366.55,97.44,371.57,75,359.2,55.2c3.84,23.67-17.55,34.22-48.26,42.23-1.14-7.94.3-10.85,1.42-15.45,1.42-5.86,8.37-13.18,8.37-13.18s-6.8-.84-16.47,8.31c-7.37,7-12.69,10.75-20.75,12.68,2.67-5,5.74-10.4,8.64-16.49C300.46,55.91,293.61,34,273,23c15.39,18.87,1.5,39-21.74,61.74-4.64-6-4.85-9.2-6.16-13.64-1.7-5.78.67-15.6.67-15.6s-6.32,2.68-10.1,15.42a73.36,73.36,0,0,1-4.26,11.44c.11-3.74.2-7.67.13-11.82-.38-19.27-16.33-35.78-39.7-36.36,22.32,10,18.8,34.45,8.1,65.38-.74,2.13-1.32,4.18-1.8,6.14-11-3.56-12.77-6.6-16.74-10.39-4.35-4.16-7.23-13.84-7.23-13.84s-4.13,5.48-1,18.4c2.08,8.68,2.78,14.73,1.34,21.45-3-4.9-6.23-10.33-10.11-16C153.45,89.45,131,84.42,111.2,96.8c24.16-3.92,34.65,18.44,42.72,50.15.21.85.44,1.66.68,2.46-8.59,1.4-11.52-.13-16.28-1.28-5.85-1.42-13.18-8.37-13.18-8.37s-.84,6.8,8.31,16.46c5.38,5.68,8.84,10.14,11,15.58-4.64-2.51-9.63-5.29-15.2-8C111.9,155.54,90,162.39,79,183c19-15.47,39.22-1.36,62.07,22.08.77.78,1.54,1.53,2.31,2.24-7.58,6.5-11,6.59-16,8.05-5.76,1.7-15.58-.66-15.58-.66s2.67,6.32,15.41,10.11c6.48,1.92,11.27,3.77,15.42,6.55-4.52.12-9.34.24-14.46.64-19.21,1.51-34.78,18.39-34,41.76,8.67-22.87,33.27-20.79,64.78-11.91,1,.28,2,.52,2.92.75-3.52,10.75-6.53,12.53-10.3,16.46-4.15,4.36-13.84,7.24-13.84,7.24s5.48,4.13,18.42,1c5.87-1.41,10.54-2.19,15-2.09-3.19,2-6.51,4-9.92,6.37-15.88,10.91-20.92,33.31-8.54,53.15-3.92-24.15,18.43-34.64,50.15-42.72.67-.16,1.31-.35,2-.53,2.72,12.09.9,15.13-.44,20.62-1.41,5.86-8.37,13.18-8.37,13.18s6.81.83,16.47-8.31c4.34-4.12,8-7.11,11.85-9.26-1.51,2.81-3,5.78-4.56,8.93C211.54,344.1,218.4,366,239,377c-15.48-19-1.36-39.22,22.07-62.06.11-.11.22-.24.35-.35,8.74,9.39,8.68,13,10.3,18.46,1.69,5.78-.67,15.6-.67,15.6s6.32-2.67,10.1-15.42c1.88-6.33,3.68-11,6.37-15.12.1,3.1.24,6.33.5,9.7,1.5,19.21,18.38,34.76,41.76,34-22.61-8.58-20.83-32.72-12.23-63.69,12,3.71,13.75,6.83,17.88,10.75,4.35,4.15,7.21,13.84,7.21,13.84s4.13-5.48,1-18.41c-1.79-7.42-2.55-12.92-1.84-18.56,1.79,2.89,3.68,5.89,5.79,9,10.91,15.89,33.3,20.92,53.15,8.54-23.56,3.82-34.12-17.34-42.11-47.79,11.4-2.45,14.45-.69,19.8.61,5.86,1.42,13.18,8.37,13.18,8.37s.85-6.8-8.31-16.46c-6-6.34-9.61-11.15-11.74-17.5,3.47,1.88,7.11,3.84,11.09,5.72C400.11,244.46,422,237.62,433,217,414.64,232,395.05,219.2,373.09,197.09Z"/><path class="cls-3" d="M329.31,130.76a100.24,100.24,0,1,1-141.39-10.39A100.25,100.25,0,0,1,329.31,130.76Z"/><path class="cls-4" d="M272.09,105.5a76.6,76.6,0,0,0-9.2-9A100.17,100.17,0,0,0,153.32,201.26c1,1.35,2.07,2.69,3.2,4A76.33,76.33,0,1,0,272.09,105.5Z"/><path class="cls-5" d="M303.16,253.9a100.22,100.22,0,0,1-132.93-1.76,98.5,98.5,0,0,0,7.3,9.61,100.24,100.24,0,1,0,151.78-131,102.87,102.87,0,0,0-8.44-8.63A100.25,100.25,0,0,1,303.16,253.9Z"/></g></g></svg>