<?xml version="1.0" encoding="utf-8"?>
<!-- Generator: Adobe Illustrator 25.2.3, SVG Export Plug-In . SVG Version: 6.00 Build 0)  -->
<svg version="1.1" id="Layer_1" xmlns="http://www.w3.org/2000/svg" xmlns:xlink="http://www.w3.org/1999/xlink" x="0px" y="0px"
	 viewBox="0 0 256 256" style="enable-background:new 0 0 256 256;" xml:space="preserve">
<style type="text/css">
	.st0{fill:#B0C2ED;}
	.st1{clip-path:url(#SVGID_2_);}
	.st2{fill:#5EC6FF;}
	.st3{fill:#48B5D3;}
	.st4{opacity:0.28;fill:#3C78AA;enable-background:new    ;}
	.st5{fill:#912E3B;}
	.st6{fill:#FFCB41;stroke:#937435;stroke-width:0.75;stroke-miterlimit:10;}
	.st7{fill:#00C9CB;stroke:#358E74;stroke-miterlimit:10;}
	.st8{opacity:0.51;fill:#00A7C1;enable-background:new    ;}
	.st9{fill:#B53A47;}
	.st10{fill:#E8906B;}
	.st11{opacity:0.47;fill:#FFB100;enable-background:new    ;}
	.st12{fill:#3D4356;}
	.st13{opacity:0.5;fill:#383D4D;enable-background:new    ;}
	.st14{fill:#FCB072;}
	.st15{opacity:0.9;fill:#F59B76;enable-background:new    ;}
	.st16{fill:#4A4F64;}
	.st17{fill:#FFBF7E;stroke:#A06937;stroke-miterlimit:10;}
	.st18{fill:#2A3244;}
	.st19{fill:#FFFFFF;}
	.st20{opacity:0.32;fill:#EE547D;enable-background:new    ;}
	.st21{opacity:0.61;fill:#B53A47;enable-background:new    ;}
	.st22{fill:#FFBF7E;}
	.st23{fill:#F59B76;}
	.st24{fill:#E7C764;}
	.st25{fill:#87633C;}
	.st26{opacity:0.5;fill:#3C78AA;enable-background:new    ;}
	.st27{fill:#3F4458;}
	.st28{fill:#383D4D;}
	.st29{clip-path:url(#SVGID_4_);}
	.st30{opacity:0.23;fill:#3B2127;enable-background:new    ;}
	.st31{fill:#350B02;}
	.st32{opacity:0.12;fill:#FFFFFF;enable-background:new    ;}
	.st33{clip-path:url(#SVGID_6_);}
	.st34{fill:#F3AE6A;}
	.st35{fill:#5F3441;}
	.st36{fill:#BF5557;}
	.st37{fill:#FF8E00;}
	.st38{fill:#F6F6B0;}
	.st39{fill:#F5A622;}
	.st40{fill:#00A7C1;}
	.st41{fill:#D0EFFF;}
	.st42{fill:#FF9AAB;}
	.st43{opacity:0.58;fill:#FFE4E9;enable-background:new    ;}
	.st44{clip-path:url(#SVGID_8_);}
	.st45{fill:#FF6162;}
	.st46{fill:#49442E;}
	.st47{fill:none;stroke:#0C4196;stroke-width:5;stroke-miterlimit:10;}
</style>
<circle class="st0" cx="128" cy="128" r="123.2"/>
<g>
	<defs>
		<circle id="SVGID_1_" cx="128" cy="128" r="123.2"/>
	</defs>
	<clipPath id="SVGID_2_">
		<use xlink:href="#SVGID_1_"  style="overflow:visible;"/>
	</clipPath>
	<g class="st1">
		<path class="st2" d="M135.7,176.9c0,0,65.1-0.2,107.3,3.2c19,1.6,54.8,7.6,56.6,26.4c1,10.8-39.9,9.4-44.9,15.4
			c-2.3,2.8,3.8,8.4-24.7,12.3s-42,7.9-89.1,3.1c-32.4-3.3-22-7.6-31-10.7c-29.2-9.9-103.1-1.8-104.7-20.3
			c-1.7-19.6,36.6-19.9,64.4-23.1c17.5-2,15.7-10.2,32.2-11.7S135.7,176.9,135.7,176.9z"/>
		<path class="st3" d="M135.7,173.5c0,0,65.1-0.2,107.3,3.2c19,1.5,54.8,7.6,56.6,26.4c1,10.8-39.9,9.4-44.9,15.4
			c-2.3,2.8,3.8,8.4-24.7,12.3s-42,7.9-89.1,3.1c-32.4-3.3-22-7.6-31-10.7c-29.2-9.9-103.1-1.8-104.7-20.3
			c-1.7-19.6,36.6-19.9,64.4-23.1c17.5-2,15.7-10.2,32.2-11.8S135.7,173.5,135.7,173.5z"/>
		<path class="st4" d="M75.6,187.1c11.5-1.7,11.9-5.5,26.3-6.3c16.5-0.9,33.8,3.2,33.8,3.2s22.5,0,49.6,0.3l-0.2,0.2
			c0,0,12,0.8,19.4,2.9c10.4,2.8,6.8,10.3-6.3,11.6c-9,0.9-12.1-1.2-32.9-1.3s-22.3,1-38.8,0.7s-16-0.9-31.2-2.2s-29,1.5-28.5-3.7
			s7.9-5.4,7.9-5.4L75.6,187.1z"/>
		<path class="st5" d="M186.4,169.7c0,0-1.4-3.3-9-3.6c-4.6-0.1-9.8,2.6-9.8,2.6c3.4,1.3,6.9,2.1,10.5,2.5
			C181,171.4,183.8,170.9,186.4,169.7z"/>
		<path class="st6" d="M103.2,91.2c0,0-5.3-1.8-15.8,10.9s-20.2,26.7-23.8,34.2c-4.7,9.7-6.4,23.4,7.6,26.9
			c6.2,1.5,13.7-3.2,13.7-3.2l25-12.2c0,0,5.7,3.7,17.9,4.6c9.4,0.7,24.3-2.1,24.3-2.1l20.4-0.7c0,0,3.6-9.9,3-30
			c-0.4-14.7-5.7-29-5.7-29L103.2,91.2z"/>
		<path class="st7" d="M84.8,114.5c0,0,7.1-0.9,16.2,14c3.5,5.9,6.6,12.1,9.3,18.4c0,0,9.3,4.6,18.8,4.9c11.6,0.3,18.4-1.5,18.4-1.5
			s3.9-7.7,13.3-19.5c8.6-10.7,22.7-17.9,30.9-16.2c10.6,2.1,13.1,10.9,3.8,31.6c-4.3,9.2-9.3,18.1-14.8,26.7l-11.6-3.3
			c0,0-18.3,4.5-33.9,4.8c-19.4,0.4-28.3-4.4-28.3-4.4L84.8,114.5z"/>
		<path class="st8" d="M188.9,124.6c0,0,2.9,17.5-2.8,30.3c-11.4,26-26.3,22.9-26.3,22.9L188.9,124.6z"/>
		<path class="st9" d="M167.8,168.9c3.2,0.8,6.6,1.3,9.9,1.6c2.9,0.1,5.9-0.2,8.8-0.8l-10.3,17.3c0,0,5.8,0,7.7,1.7
			c3.3,3-1.1,6.2-1.1,6.2l-20.7-0.7c-1.5,0-2.6-1.3-2.5-2.7c0-0.2,0-0.4,0.1-0.5c0.5-2,1.2-4.9,2.4-8.7
			C163.5,177.6,165.5,173.1,167.8,168.9z"/>
		<path class="st5" d="M90.2,170.3c0,0,0.7-1.4,8.8-2.2c3.1-0.2,6.3-0.1,9.4,0.4c0,0-3.1,5-7.7,5.6
			C92.7,175.1,90.2,170.3,90.2,170.3z"/>
		<path class="st10" d="M120.5,91.1c0,0,2.2,5.4,9.6,5.5c7.4,0.1,9.8-5.1,9.8-5.1L120.5,91.1z"/>
		<path class="st8" d="M100.1,137.9c3.2,6.1,6.1,12.3,8.4,18.8c1.7,4.8,2.8,9.9,3.1,15c0,0-1.3-0.3-2.1-0.6
			c-0.6-0.3-1.3-0.6-1.9-0.9c0,0-1.4-7.8-3.3-16S100.1,137.9,100.1,137.9z"/>
		<path class="st11" d="M102.2,87c-0.8,0.2-1.5,0.4-2.2,0.7c-0.8,0.3-1.5,0.7-2.2,1.1c3.6,1.7,7.4,2.9,11.3,3.5
			c8.3,1.2,12.1-1.1,12.1-1.1L102.2,87z"/>
		<path class="st11" d="M140,92.7l-1.6-0.1c5,2,10.4,2.7,15.8,2.1c8.4-1.2,14.9-7,14.9-7L140,92.7z"/>
		<path class="st12" d="M51.8,0.3c-0.2,3.5,0,7,0.5,10.5c0.5,2.4,1.5,4.8,2.8,6.9l1.1,22.6c0,0-1.2,8.7,1,14
			c3.9,9.7,10.9,8.1,10.9,8.1L77,3.8L51.8,0.3z"/>
		<path class="st13" d="M51.8,3.5v2c1.9,4.6,6,7.8,10.9,8.6c5.5,0.9,8-1.8,8-1.8l0.7-3.4L51.8,3.5z"/>
		<path class="st14" d="M69.5,17.3c0,0-15.8-5.7-19.6,7.1c-5.6,18.9,13.8,19.2,13.8,19.2s5.3-6.6,6.7-13.2
			C71.2,26.1,70.9,21.6,69.5,17.3z"/>
		<path class="st15" d="M63,24.2c-5-2.8-9.5,5.7-5,8.8C63.1,36.7,67.6,26.7,63,24.2z"/>
		<path class="st16" d="M206.9,45.6c1.2,4.9,1,10-0.8,14.8c-5.3,13.7-15.7,13-15.7,13l6.4-27.9L206.9,45.6z"/>
		<path class="st14" d="M193.4,24.4c0,0,16-9.2,20.1,4c3.3,10.6-2.7,16.1-7.2,17.5c-2.7,0.9-5.5,1.2-8.3,1.1c0,0-4.1-8.5-4.9-13
			C192.7,30.8,192.8,27.6,193.4,24.4z"/>
		<path class="st15" d="M198.1,30.6c3-4.2,9.9,1.2,7.2,5.6C201.2,42.9,195.4,34.4,198.1,30.6z"/>
		<path class="st17" d="M72.3,4.3c0,0-1.2,7.2-3,17.6C68.1,28.7,61,36,63,50.4c6.9,49.5,65.1,58.9,109.8,40.2
			C211.4,74.5,194,36,193.5,29.2c-0.7-8.5-1-20.4-1-20.4s-27.6-36.7-58-36.7S72.3,4.3,72.3,4.3z"/>
		<path class="st15" d="M71.3,9.2l-0.5,3.4c0,0,2.5,3.5,9.1,3.4c6.2-0.1,12.2-1.9,17.5-5c0,0,5.2,6.1,13.3,6.3
			c7.3,0.2,14.3-2.8,19.1-8.3c0,0,3.2,5.4,12.2,4.3c12.7-1.6,23.5-11.1,23.5-11.1c1.6,3.8,4.4,7,8,9.1c13,7.6,18.4,0.8,18.4,0.8
			S179.3-30.4,132-30.4C81.8-30.3,71.3,9.2,71.3,9.2z"/>
		<path class="st18" d="M89.9-1.5c0,0-15.5,18.5-35,7.4c-12.2-6.9-12.2-23.5-5.4-33.8c5-7.5,13.6-11.7,13.6-11.7
			c-3.1-1-5.9-2.9-8.2-5.3c-4-4.5-6.8-12.3-1.1-20c13.1-17.6,46.6-3.6,46.6-3.6s-0.3-9.7,13-11c20.5-2.1,39.6,18.3,39.6,18.3
			s1.4-7.9,10.3-5c11.1,3.5,13.6,19.1,13.6,19.1s12.3-11.2,19.6-0.5c4,5.9-5.6,9.9-5.6,9.9s16.8,3.7,22.5,24.6
			c3.3,12.1,2.2,25-3.1,36.4c0,0-1.7-1.7-6.6-1.8c-3.9-0.1-10.6,3.1-10.6,3.1l-0.5-12.4c0,0-4.5,1.7-11.3-3
			c-12.7-8.7-11.2-18.8-11.2-18.8S156.8,1.1,142.1,1.5s-12.4-7.9-12.4-7.9S119.4,4.3,107.8,4.9C92.4,5.7,89.9-1.5,89.9-1.5z"/>
		<path class="st13" d="M194.5-8.8c0,0,14.8,10.4,8.4,21.6c-3.2,5.7-9.9,4.7-9.9,4.7l-0.3-5.1c0,0,5.3-1.6,6.6-6.7
			C201.3-2,194.5-8.8,194.5-8.8z"/>
		<path class="st13" d="M98.1-20.5c0,0-10.9-0.5-16.6,7.3c-8.8,12,0.1,18.5,0.1,18.5c1.6-0.8,3.1-1.8,4.4-2.9c1.4-1.2,2.7-2.5,4-3.8
			c0,0-2.1-3.4,0.1-9.2C92-15.6,98.1-20.5,98.1-20.5z"/>
		<path class="st19" d="M147.5,48c-1.5-2.3,0.8-13.7,7.5-17.2c9.2-4.8,19.8-0.3,20.6,1.5c0.8,1.8,1,12.1-8.7,17.5
			C160.1,53.7,149.4,50.9,147.5,48z"/>
		<path class="st19" d="M105.6,48.3c2-2.8,1.8-14.4-7.6-19.2c-10-5.2-18.6,0.4-19.6,3c-0.8,2,0.8,10,10.1,15.9
			C96.4,52.9,103.8,50.9,105.6,48.3z"/>
		<path class="st16" d="M164.6,13.3c-3.7-2-8.4-0.9-11.6,1.6c-1.9,1.5-3.6,4.6-0.5,5.9c0.9,0.3,1.8,0.3,2.6-0.2
			c1.4-0.8,2.4-2,3.9-2.7c1.7-0.8,3.8-0.5,5.4-1.5C165.6,15.6,165.9,14,164.6,13.3z"/>
		<path class="st16" d="M106.5,16c-0.4-2.2-2.3-3.7-4.3-4.7c-1.3-0.6-2.7-1-4.1-1c-1.6-0.1-6.4,1.9-4,3.9c1.5,1.2,3.5,0.6,5.2,1
			s2.7,2.3,4.6,2.5C105.2,17.9,106.7,17.3,106.5,16z"/>
		<path class="st20" d="M84.7,56.8c-0.8-3.4-5.4-6.4-8.8-6.8c-1.4-0.1-3.8,1.1-4,3.2c-0.2,2.6,3.5,6.1,7,7
			C81.3,60.8,85.6,60.1,84.7,56.8z"/>
		<path class="st21" d="M132.3,111.6c0.1,1.3,0.1,2.6,0.2,4s0,2.6,0,4c0,2.6-0.1,5.3-0.2,7.9s-0.3,5.3-0.5,7.9l-0.4,3.9
			c-0.1,1.3-0.3,2.6-0.4,3.9c-0.1,0.4-0.5,0.7-0.9,0.7c-0.4-0.1-0.7-0.4-0.7-0.8c0-1.3,0.1-2.6,0.1-3.9l0.1-3.9
			c0.1-2.6,0.2-5.2,0.4-7.9l0.4-7.8c0.1-1.3,0.1-2.6,0.2-3.9l0.1-2c0-0.7,0.1-1.3,0.1-1.9c0-0.4,0.4-0.8,0.9-0.7
			C132,111,132.3,111.3,132.3,111.6L132.3,111.6z"/>
		<path class="st7" d="M108.1,171.9c0,0-8-44.2-17.5-54.8s-23-4-20,10.6c3.5,17.3,23,45.1,23,45.1L108.1,171.9z"/>
		<path class="st8" d="M93.3,172.8l-3-4.8c0,0,1.7,1.6,8.2,0.4c6.8-1.2,7.8-4.9,7.8-4.9l1.8,8.4L93.3,172.8z"/>
		<path class="st22" d="M65.3,149.2c-1.3-9.3,7.3-14.4,7.3-14.4l2,4.9l4.8-1.4c0,0,3.3-0.6,4.7,0s0.6,2.3,0.6,2.3s2-0.1,2.6,1
			s-0.8,3.3-0.8,3.3s1.9,0.3,1.9,1.7c0.1,1.7-2.2,3.9-2.2,3.9c0.7,0.2,1.1,0.9,0.9,1.7c0,0.2-0.1,0.3-0.2,0.5
			c-2.3,3.2-5.8,5.1-9.7,5.4C71.7,158.5,66.1,154.8,65.3,149.2z"/>
		<path class="st23" d="M75.7,145.6c-0.3,0-0.5-0.2-0.5-0.4c0-0.2,0.1-0.3,0.2-0.4c2.9-1.8,5.9-3.3,9-4.6c0.2-0.1,0.5,0,0.6,0.3
			c0.1,0.2,0,0.5-0.3,0.6c-3,1.3-6,2.8-8.8,4.5C75.9,145.6,75.8,145.6,75.7,145.6z"/>
		<path class="st23" d="M79.4,149.7c-0.3,0-0.5-0.2-0.4-0.5c0-0.2,0.1-0.3,0.3-0.4c0,0,5.2-2.4,6.9-4.3c0.2-0.2,0.5-0.2,0.7,0
			c0.2,0.2,0.2,0.4,0,0.6c-1.8,2-7,4.4-7.2,4.5C79.5,149.7,79.4,149.7,79.4,149.7z"/>
		<path class="st23" d="M82.4,153.5c-0.2,0-0.3-0.1-0.4-0.3c-0.1-0.2,0-0.5,0.2-0.6c0,0,0,0,0,0c1.3-0.7,2.6-1.6,3.8-2.5
			c0.2-0.2,0.5-0.1,0.6,0.1c0,0,0,0,0,0c0.2,0.2,0.1,0.5-0.1,0.7c0,0,0,0,0,0c-1.2,0.9-2.5,1.8-3.9,2.6
			C82.5,153.5,82.5,153.5,82.4,153.5z"/>
		<path class="st24" d="M177.6,174.9c-4,0.1-7.9-1-11.4-2.9c-0.2-0.1-0.3-0.4-0.1-0.6c0.1-0.2,0.4-0.3,0.6-0.1c0,0,0,0,0,0
			c5.3,2.9,11.5,3.6,17.3,2c0.2-0.1,0.5,0,0.6,0.3c0.1,0.2,0,0.5-0.3,0.6c0,0-0.1,0-0.1,0C182.1,174.7,179.8,175,177.6,174.9z"/>
		<path class="st17" d="M140.4,179.7c0,0-7.7,1.2-11.2,6.5c-2.1,2.9-2.4,6.7-0.9,9.9c-1.2,1.3-2.1,2.8-2.8,4.4
			c-1.8,4.4-1.2,6.2,0.2,6.6c2.2,0.6,4.5-4.4,4.5-4.4c0,1.3,0.9,2.4,2.2,2.6c1,0,1.9-0.4,2.6-1.1c0,0-0.1,1.3,1.9,1.8
			c1.7,0.4,3.1-1.2,3.1-1.2c3.1-0.4,5.9-2.2,7.6-4.8c2.9-4.3,3.7-9.8,2.1-14.7L140.4,179.7z"/>
		<path class="st25" d="M130.5,201.8c-0.1,0-0.2,0-0.2-0.1c-0.2-0.1-0.3-0.4-0.2-0.6c1-1.9,2.3-3.6,3.7-5.2c0.2-0.2,0.5-0.2,0.7,0
			c0.2,0.2,0.2,0.5,0,0.7c0,0,0,0,0,0c-1.4,1.5-2.5,3.2-3.5,5C130.8,201.7,130.7,201.8,130.5,201.8z"/>
		<path class="st25" d="M129.2,196c-0.1,0-0.2,0-0.3-0.1c-0.2-0.1-0.3-0.4-0.1-0.6c0.6-0.8,1.3-1.6,2.1-2.3c0.2-0.2,0.5-0.2,0.7,0
			s0.2,0.5,0,0.7c-0.7,0.7-1.3,1.4-1.9,2.2C129.5,195.9,129.4,196,129.2,196z"/>
		<path class="st25" d="M134.7,205.2c-0.1,0-0.2,0-0.2-0.1c-0.2-0.1-0.3-0.4-0.2-0.6c0,0,0,0,0,0c0.9-1.6,2-3.2,3.2-4.7
			c0.2-0.2,0.5-0.2,0.7,0s0.2,0.5,0,0.7c-1.1,1.4-2.2,2.9-3.1,4.5C135,205.1,134.9,205.2,134.7,205.2z"/>
		<path class="st25" d="M139.3,205.8c-0.1,0-0.3-0.1-0.4-0.2c-0.2-0.2-0.1-0.5,0-0.6c0,0,0,0,0,0c1-0.8,1.9-1.9,2.5-3.1
			c0.1-0.2,0.4-0.3,0.6-0.2c0.2,0.1,0.3,0.4,0.2,0.6c-0.7,1.3-1.7,2.5-2.8,3.4C139.5,205.7,139.4,205.8,139.3,205.8z"/>
		<path class="st15" d="M140,179.5c0,0-3,4.4,3.6,7.3c2.2,1.1,4.9,0.5,6.5-1.4L140,179.5z"/>
		<path class="st26" d="M130.3,212.4l-28.1-1.2c-0.9,0.1-1.8,0.3-2.6,0.6c-6.9,2.7,1,6.5,4.6,6.8c4,0.3,8-1.1,12-0.9
			c5.2,0.4,10.3,2.4,15.5,3.1c4.2,0.6,8.3-0.8,12.4-0.9c3.8-0.1,7.5,0.9,11.3,1.2c1.1,0.1,2.1,0.1,3.2,0c3.4-0.3,9.1-1.5,7.8-6
			c-0.8-2.7-6.5-3.4-9.1-3.4L130.3,212.4z"/>
		<path class="st26" d="M243.8,208.3c-0.6,0-9.9,1.2-5.8,2.4c1.9,0.4,3.9,0.3,5.8-0.2C245.8,209.7,246.2,208.4,243.8,208.3z"/>
		<path class="st26" d="M251.6,196.5c-2.6-2.3-7.6-0.4-10.7-0.1c-1,0.1-4.2,0.1-2.8,1.8c0.6,0.7,2.8,0.3,3.4,0.3
			c2.6-0.1,5.3-0.1,7.9-0.2C250.3,198.2,252.6,197.4,251.6,196.5z"/>
		<path class="st26" d="M51,203.2c-0.1-0.1-1.7-0.8-2-0.9c-1-0.2-7.8-0.8-8.1,0.8c-0.2,1.3,2,1.7,2.8,1.9c2,0.5,4.2,0.6,6.2,0.2
			C51,205,52.6,204,51,203.2z"/>
		<path class="st26" d="M75.2,204.4c-0.5-1.1-5.9-0.4-5.5,0.8C69.9,205.6,76.5,207.1,75.2,204.4z"/>
		<path class="st26" d="M221.4,213.2c-0.9-1-2.9-0.9-4.1-0.8c-3.4,0.3-6.9,0.4-10.2,0.4c-0.8,0-3.6-0.2-3.8,1.1
			c-0.2,1.8,3.6,1.7,4.6,1.8c3.7,0.3,7.5,0.2,11.2-0.1C220.2,215.4,222.8,214.9,221.4,213.2z"/>
		<path class="st27" d="M190.4,13.5c-2.1,0-5.5-0.6-9.6-3.4C171,3.3,169.4-4.1,169.2-7.7c-4,2.8-15,9.8-27.1,10.1
			c-6,0.2-10.1-1.1-12.1-3.7c-0.7-0.9-1.1-1.9-1.3-3c-3.4,3.1-11.7,9.5-20.9,10C95.8,6.5,91.2,2.3,89.7,0.1
			c-2.8,2.8-5.9,5.1-9.4,6.8c-8.1,4.2-17.8,3.9-25.6-0.8c-0.4-0.3-0.6-0.8-0.4-1.3c0.3-0.4,0.8-0.6,1.3-0.4
			C74.2,15.1,89-1.9,89.2-2.1c0.2-0.2,0.5-0.4,0.8-0.3c0.3,0.1,0.6,0.3,0.7,0.6c0,0,2.6,6.5,17,5.7C118.8,3.4,128.9-6.9,129-7
			c0.3-0.3,0.8-0.4,1.1-0.2c0.3,0.2,0.5,0.6,0.4,1c-0.3,1.3,0.1,2.7,0.9,3.8c1.6,2.1,5.3,3.1,10.6,3c14.2-0.4,27.4-10.8,27.5-10.9
			c0.3-0.2,0.7-0.2,1.1-0.1c0.3,0.2,0.5,0.6,0.4,0.9c0,0.4-1.3,9.6,10.8,17.9c6.2,4.3,10.3,2.9,10.5,2.8c0.5-0.2,1,0.1,1.2,0.6
			c0.2,0.5-0.1,1-0.5,1.2c0,0,0,0,0,0C192.1,13.4,191.2,13.5,190.4,13.5z"/>
		<path class="st28" d="M192.6,13c-0.5,0-0.9-0.4-1-0.9c0-0.5,0.3-0.9,0.8-0.9c2.7-0.6,5-2.6,5.9-5.3c1.1-3.3,0.6-9.1-7.9-17.9
			c-0.4-0.4-0.4-1,0-1.3c0.4-0.4,1-0.4,1.3,0c9.1,9.5,9.5,16,8.3,19.8c-1.1,3.3-3.9,5.8-7.3,6.6H192.6z"/>
		<g>
			<defs>
				<path id="SVGID_3_" d="M147.5,48c-1.5-2.3,0.8-13.7,7.5-17.2c9.2-4.8,19.8-0.3,20.6,1.5c0.8,1.8,1,12.1-8.7,17.5
					C160.1,53.7,149.4,50.9,147.5,48z"/>
			</defs>
			<clipPath id="SVGID_4_">
				<use xlink:href="#SVGID_3_"  style="overflow:visible;"/>
			</clipPath>
			<g class="st29">
				<path class="st30" d="M147.3,47.6c0,0,1.9-8.3,8.9-12.3c5.9-3.4,12.8-4.5,19.5-3.1c0,0-9.4-7.6-22-0.5c-2.7,1.5-5.3,6.3-6,9.6
					C147.2,43.4,147.1,45.5,147.3,47.6z"/>
				<circle class="st31" cx="159.9" cy="48.1" r="9.1"/>
				<path class="st19" d="M158.4,40.3c0,1.4-1.1,2.5-2.5,2.5c-1.4,0-2.5-1.1-2.5-2.5s1.1-2.5,2.5-2.5c0,0,0,0,0,0
					C157.4,37.8,158.5,38.9,158.4,40.3z"/>
				<path class="st32" d="M169.5,36c0,2.4-1.9,4.3-4.3,4.3c-2.4,0-4.3-1.9-4.3-4.3c0-2.4,1.9-4.3,4.3-4.3c0,0,0,0,0,0
					C167.6,31.7,169.5,33.6,169.5,36C169.5,36,169.5,36,169.5,36z"/>
			</g>
		</g>
		<g>
			<defs>
				<path id="SVGID_5_" d="M105.6,48.3c2-2.8,1.8-14.4-7.6-19.2c-10-5.2-18.6,0.4-19.6,3c-0.8,2,0.8,10,10.1,15.9
					C96.4,52.9,103.8,50.9,105.6,48.3z"/>
			</defs>
			<clipPath id="SVGID_6_">
				<use xlink:href="#SVGID_5_"  style="overflow:visible;"/>
			</clipPath>
			<g class="st33">
				<path class="st30" d="M105.6,48.1c0,0,0.6-7.6-9.1-14.4c-5.2-3.7-12-4.6-17.9-2.3c0,0,8.5-8.9,19.8-2.4
					C110.4,35.8,105.6,48.1,105.6,48.1z"/>
				<circle class="st31" cx="93.4" cy="46.8" r="9.1"/>
				<path class="st19" d="M93.1,38.7c0,1.3-1.1,2.4-2.4,2.4c-1.3,0-2.4-1.1-2.4-2.4c0-1.3,1.1-2.4,2.4-2.4c0,0,0,0,0,0
					C92,36.3,93.1,37.3,93.1,38.7z"/>
				<path class="st32" d="M91.7,34.3c0,2.3-1.9,4.3-4.3,4.3s-4.3-1.9-4.3-4.3s1.9-4.3,4.3-4.3l0,0C89.8,30.1,91.7,32,91.7,34.3z"/>
			</g>
		</g>
		<path class="st34" d="M159,52.4c-5.5,0-10.7-2-12-4c-0.9-1.4-0.5-4.7,0.1-7c0.5-2,2.6-8.5,7.7-11.2c7-3.7,14.1-1.9,16.9-1
			c1.9,0.6,4.2,1.7,4.7,2.8c0.9,1.8,1.2,12.8-9,18.4C164.8,51.8,161.9,52.5,159,52.4z M148.1,47.7c1.6,2.4,11.8,5.3,18.5,1.6
			c9.4-5.2,9.1-15.2,8.4-16.6c-0.2-0.3-1.5-1.3-3.9-2.1c-2-0.7-9.1-2.6-15.8,0.9c-4.6,2.4-6.5,8.5-7,10.3c-0.8,2.9-0.7,5.2-0.3,5.9
			L148.1,47.7z"/>
		<path class="st34" d="M98.3,51.7c-3.6-0.1-7.1-1.2-10.1-3.2c-9.5-6-11.3-14.4-10.4-16.7c0.6-1.5,3-3.4,5.7-4.4
			c4.9-1.8,10.3-1.4,14.8,1.1c4.2,2.2,7.3,6.2,8.4,10.8c1,4.1,0.5,7.8-0.6,9.3S102.1,51.7,98.3,51.7z M89.7,27.7
			c-1.9,0-3.8,0.3-5.6,1c-2.7,1-4.5,2.6-4.9,3.6c-0.6,1.4,0.6,9.2,9.8,15c7.5,4.8,14.4,2.8,16.1,0.5c0.9-1.3,1.3-4.7,0.4-8.2
			c-1-4.3-3.8-7.9-7.7-9.9C95.3,28.4,92.5,27.7,89.7,27.7L89.7,27.7z"/>
		<path class="st35" d="M178.9,33.3c-1.1,0.4-2.2,0.4-3.3,0.1c-0.5-0.2-1-0.4-1.4-0.6l-0.6-0.3c-0.2-0.1-0.4-0.2-0.6-0.3
			c-1.6-0.7-3.2-1.3-4.9-1.6c-3.3-0.7-6.8-0.5-10,0.6l-1.2,0.5c-0.4,0.2-0.8,0.3-1.1,0.6c-0.8,0.3-1.5,0.8-2.1,1.3
			c-1.3,1-2.4,2.3-3.2,3.8c-0.8,1.5-1.5,3.1-1.9,4.8c-0.2,0.8-0.4,1.7-0.5,2.6c-0.1,0.9-0.2,1.7-0.3,2.6l0,0c0,0.4-0.4,0.8-0.9,0.7
			c-0.4,0-0.7-0.3-0.7-0.7c-0.1-1-0.1-1.9,0-2.9c0.1-1,0.2-1.9,0.3-2.8c0.3-1.9,0.9-3.8,1.7-5.5c0.9-1.8,2.1-3.4,3.6-4.8
			c0.8-0.6,1.6-1.2,2.5-1.7c0.4-0.2,0.9-0.5,1.3-0.7l1.4-0.6c3.7-1.4,7.8-1.7,11.6-0.8c1.9,0.4,3.7,1.1,5.5,2
			c0.2,0.1,0.4,0.2,0.6,0.4s0.4,0.3,0.6,0.4c0.3,0.2,0.7,0.4,1,0.6c0.7,0.4,1.4,0.6,2.1,0.7h0.1c0.4,0.1,0.8,0.5,0.7,0.9
			c0,0,0,0,0,0C179.4,32.9,179.2,33.2,178.9,33.3z"/>
		<path class="st35" d="M105.5,47.4c0.2-0.9,0.3-1.9,0.3-2.8c0-0.9,0-1.9-0.1-2.8c-0.2-1.9-0.7-3.7-1.5-5.3
			c-0.8-1.6-1.9-3.1-3.2-4.3c-0.7-0.6-1.4-1.1-2.2-1.6c-0.8-0.5-1.6-0.9-2.4-1.2c-1.7-0.7-3.5-1.1-5.3-1.1c-1.8,0-3.6,0.2-5.3,0.8
			c-0.9,0.3-1.7,0.6-2.6,1c-0.4,0.2-0.8,0.4-1.2,0.6l-0.3,0.2l-0.3,0.2c-0.3,0.2-0.5,0.3-0.8,0.4c-1,0.5-2.2,0.8-3.4,0.8
			c-0.6,0-1.2-0.1-1.8-0.3c-0.6-0.2-1.1-0.6-1.5-1c-0.3-0.3-0.3-0.8,0-1.1c0,0,0,0,0.1-0.1c0.2-0.2,0.5-0.2,0.8-0.1h0.1
			c0.7,0.3,1.5,0.4,2.3,0.2c0.8-0.2,1.6-0.5,2.3-0.9c0.2-0.1,0.4-0.2,0.5-0.3l0.1-0.1l0.2-0.1l0.3-0.2c0.5-0.3,0.9-0.5,1.4-0.8
			c0.9-0.5,1.9-0.9,2.9-1.2c2-0.6,4.2-0.9,6.3-0.8c2.1,0.1,4.2,0.6,6.2,1.5c1,0.4,1.9,0.9,2.8,1.5c0.9,0.6,1.7,1.3,2.5,2
			c1.5,1.5,2.8,3.2,3.6,5.2c0.8,1.9,1.2,4,1.3,6.1c0.1,1,0,2-0.1,3.1c-0.1,1-0.3,2-0.5,3c-0.1,0.4-0.5,0.6-0.9,0.5c0,0,0,0,0,0
			C105.7,48.1,105.5,47.8,105.5,47.4L105.5,47.4z"/>
		<path class="st23" d="M63.1,43.4L63.1,43.4c-0.3,0-0.4-0.2-0.4-0.5c0,0,0,0,0,0c0.4-5.7,1.8-11.3,4.1-16.6
			c0.9-2.2,1.6-4.4,2.2-6.7l0.3-1.6c0-0.3,0.3-0.4,0.5-0.4s0.4,0.3,0.4,0.5l-0.3,1.6c-0.5,2.4-1.3,4.7-2.2,6.9
			c-2.2,5.2-3.6,10.7-4,16.4C63.6,43.2,63.4,43.4,63.1,43.4z"/>
		<path class="st23" d="M197.6,46.8c-0.2,0-0.4-0.2-0.5-0.4c-0.5-4.7-1.5-9.4-2.7-14c-0.7-2.5-1.2-5-1.6-7.5c0-0.3,0.2-0.5,0.5-0.4
			c0.2,0,0.4,0.2,0.4,0.4c0.3,2.5,0.8,4.9,1.5,7.4c1.3,4.6,2.2,9.3,2.8,14.1C198.1,46.5,197.9,46.7,197.6,46.8L197.6,46.8z"/>
		<path class="st6" d="M170.2,91.8c12.3,8,19.5,22,18.8,36.7c-0.9,30.7-25.4,49.1-31.1,53.3c-4.6,3.4-9.8,5.1-14.3,2.3
			c-3.8-2.4-4.9-5.6-2-11.6c4.5-9.1,9.9-14.4,15.3-25.6c2.3-4.7,4-9.7,5.2-14.8c0.4-1.9,0.8-3.8,0.9-5.8c0,0-1.4-11,0.4-19.6
			C164.7,101.4,167,96.3,170.2,91.8z"/>
		<path class="st11" d="M98.2,95.3c0,0-2.6,6.7,11.2,10.4c9,2.4,19.5-2.6,19.5-2.6s-7.5,2.8-18.5,0C99.7,100.4,98.2,95.3,98.2,95.3z
			"/>
		<path class="st11" d="M138.8,105.6c0,0,5.6,5.8,16.5,1.9c10.6-3.9,11.3-13.3,11.3-13.3s-3,6-12.6,9.8S138.8,105.6,138.8,105.6z"/>
		<path class="st9" d="M147.2,100.6c-0.1-0.9,0.7-1.8,1.6-1.8c0.9-0.1,1.8,0.7,1.8,1.6s-0.7,1.8-1.6,1.8c0,0-0.1,0-0.1,0
			C148,102.2,147.2,101.5,147.2,100.6z"/>
		<path class="st9" d="M108.5,99.9c0-1,0.8-1.9,1.8-2c1,0,1.9,0.8,2,1.8s-0.8,1.9-1.8,2c0,0-0.1,0-0.1,0
			C109.4,101.8,108.5,100.9,108.5,99.9C108.5,99.9,108.5,99.9,108.5,99.9z"/>
		<path class="st36" d="M141.1,124.5c-0.1-1.7,1.2-3.1,2.8-3.2s3.1,1.2,3.2,2.8c0.1,1.7-1.2,3.1-2.8,3.2c-0.1,0-0.1,0-0.2,0
			C142.5,127.4,141.2,126.1,141.1,124.5C141.1,124.5,141.1,124.5,141.1,124.5z"/>
		<path class="st36" d="M111.3,121.2c0.1-1.7,1.5-3.1,3.2-3c1.7,0.1,3.1,1.5,3,3.2c-0.1,1.7-1.5,3.1-3.2,3
			C112.6,124.4,111.2,122.9,111.3,121.2z"/>
		<path class="st37" d="M156.8,170.8c-0.1,0-0.1,0-0.2,0l-6.2-2.3c-0.3-0.1-0.4-0.3-0.3-0.6c0.1-0.3,0.3-0.4,0.6-0.3
			c0,0,0.1,0,0.1,0l6.2,2.3c0.2,0.1,0.4,0.4,0.3,0.6C157.1,170.7,156.9,170.8,156.8,170.8L156.8,170.8z"/>
		<path class="st37" d="M168.4,132.5c-0.2,0-0.4-0.1-0.4-0.3c-0.1-0.2,0-0.5,0.2-0.6c0,0,0,0,0,0l6.1-2.4c0.2-0.1,0.5,0,0.6,0.3
			c0.1,0.2,0,0.5-0.3,0.6l-6.1,2.4C168.6,132.5,168.5,132.5,168.4,132.5z"/>
		<path class="st37" d="M171.4,107.6c-0.1,0-0.2,0-0.2-0.1l-4.7-2.6c-0.2-0.1-0.3-0.4-0.2-0.6c0.1-0.2,0.4-0.3,0.6-0.2l4.7,2.6
			c0.2,0.1,0.3,0.4,0.2,0.6c0,0,0,0,0,0C171.7,107.6,171.5,107.6,171.4,107.6z"/>
		<path class="st37" d="M100.2,120.7L100.2,120.7c-0.3,0-0.4-0.3-0.4-0.5l0.5-5.3c0-0.3,0.2-0.5,0.5-0.4c0,0,0,0,0,0
			c0.3,0,0.4,0.3,0.4,0.5l-0.5,5.3C100.6,120.6,100.4,120.8,100.2,120.7z"/>
		<path class="st37" d="M116,135.4c-0.2,0-0.3-0.1-0.4-0.3c-0.1-0.2,0-0.5,0.2-0.6c0,0,0,0,0,0l5.3-2.7c0.2-0.1,0.5,0,0.6,0.3
			c0.1,0.2,0,0.4-0.2,0.5l-5.3,2.7C116.1,135.4,116.1,135.4,116,135.4z"/>
		<path class="st38" d="M166.2,157.2c0,0-0.1,0-0.1,0c-0.1,0-0.1-0.1-0.1-0.2l0.5-10.7c0-0.1,0-0.2,0.1-0.2c0.1,0,0.2,0,0.2,0
			l8.9,5.4c0.1,0,0.1,0.1,0.1,0.2c0,0.1,0,0.2-0.1,0.2l-9.4,5.3C166.2,157.2,166.2,157.2,166.2,157.2z M166.9,146.6l-0.5,9.9
			l8.7-4.9L166.9,146.6z"/>
		<path class="st38" d="M186.1,143.2c-0.1,0-0.2,0-0.2-0.1l-3.9-8.1c0-0.1,0-0.2,0-0.2c0-0.1,0.1-0.1,0.2-0.1l6-0.3
			c0.1,0,0.2,0.1,0.2,0.2c0,0,0,0,0,0c0,0.1-0.1,0.2-0.2,0.3l-5.6,0.3l3.8,7.8c0.1,0.1,0,0.3-0.1,0.3c0,0,0,0,0,0L186.1,143.2z"/>
		<path class="st38" d="M136.8,143.7c0,0-0.1,0-0.1,0c-0.1,0-0.1-0.1-0.1-0.2v-11.3c0-0.1,0.1-0.2,0.2-0.2c0.1,0,0.1,0,0.1,0
			l9.8,7.1c0.1,0,0.1,0.1,0.1,0.2c0,0.1-0.1,0.2-0.1,0.2L136.8,143.7C136.8,143.7,136.8,143.7,136.8,143.7z M137,132.6v10.5l9.1-3.9
			L137,132.6z"/>
		<path class="st38" d="M155.5,124.3c-0.1,0-0.2-0.1-0.2-0.1l-4.4-10.2c0-0.1,0-0.2,0-0.2c0.1-0.1,0.1-0.1,0.2-0.1l9.7,2.4
			c0.1,0,0.1,0.1,0.2,0.2c0,0.1,0,0.1,0,0.2l-5.4,7.8C155.6,124.3,155.6,124.3,155.5,124.3z M151.5,114.3l4,9.4l4.9-7.1L151.5,114.3
			z"/>
		<path class="st39" d="M119.7,104.6c-5.3,0-10.5-0.9-15.4-2.7c-7.5-2.7-7.1-6-7-6.1s0.4-0.5,0.9-0.4s0.8,0.3,0.7,0.5
			s-0.3,2.8,6.3,5.2c7.4,2.6,15.5,3.2,23.2,1.7c0.4-0.1,0.7,0,1,0.3c0.2,0.2,0,0.5-0.4,0.6C125.9,104.3,122.8,104.6,119.7,104.6z"/>
		<path class="st39" d="M143.3,106.3c-4.4,0-6.5-1.2-6.6-1.3c-0.2-0.1-0.4-0.4-0.2-0.7c0-0.1,0.1-0.1,0.1-0.1c0.3-0.3,0.7-0.3,1-0.1
			c0.1,0,3.5,2,11.1,0.5c14.7-2.8,18.3-11.1,18.3-11.2c0.2-0.3,0.6-0.5,0.9-0.4c0.3,0,0.5,0.3,0.5,0.6c0,0,0,0.1,0,0.1
			c-0.1,0.4-3.9,9-19.4,12C147.1,106.1,145.2,106.3,143.3,106.3z"/>
		<path class="st19" d="M144.3,123.3c-0.1,0-0.2,0-0.3-0.1c-0.3-0.2-0.5-0.6-0.3-0.9c0,0,0,0,0,0c0.1-0.1,6.4-12.6,4.6-21.6
			c-0.1-0.4,0.2-0.7,0.5-0.8c0,0,0,0,0,0c0.4-0.1,0.7,0.2,0.8,0.5c1.9,9.4-4.5,21.9-4.7,22.4C144.8,123.2,144.6,123.3,144.3,123.3z"
			/>
		<path class="st19" d="M113.4,120.7c-0.2,0-0.4-0.1-0.5-0.2c-0.3-0.3-8.3-8.3-3.2-21.3c0.2-0.3,0.5-0.5,0.9-0.4
			c0.3,0.1,0.5,0.4,0.5,0.7c0,0,0,0,0,0.1c-4.8,12.3,2.8,19.9,2.9,20c0.2,0.2,0.3,0.6,0.1,0.8c0,0,0,0.1-0.1,0.1
			C113.8,120.6,113.6,120.7,113.4,120.7z"/>
		<path class="st9" d="M90.3,170.5c2.9,0.6,5.8,0.9,8.8,0.9c7.2-0.1,9.3-2.8,9.3-2.8l2.4,18.6c0.2,1.5-0.8,2.8-2.3,3
			c-0.1,0-0.1,0-0.2,0l-19.9,1c0,0-4.9-1.9-3.2-5.1c2.1-3.9,10.2-4.2,10.2-4.2L90.3,170.5z"/>
		<path class="st24" d="M98.8,174.9c-2.7,0-5.3-0.6-7.7-1.7c-0.2-0.1-0.3-0.4-0.1-0.7c0.1-0.2,0.3-0.3,0.5-0.2
			c8.5,4,16.1-0.4,16.8-1.2c0.2-0.2,0.5-0.2,0.7,0c0.2,0.2,0.2,0.5,0,0.7C108.1,172.7,104,174.9,98.8,174.9z"/>
		<path class="st39" d="M76.8,158.9c-2.4,0-4.8-0.6-6.8-1.8c-2.9-1.7-4.9-4.6-5.4-7.9c-1.3-9.6,6.4-15.1,6.8-15.3
			c0.4-0.2,0.9-0.1,1.1,0.2c0.2,0.4,0.2,0.9-0.2,1.1c0,0,0,0,0,0c-0.1,0.1-7.3,5.1-6.1,13.8c0.5,2.8,2.2,5.3,4.7,6.7
			c2.3,1.4,6.2,2.6,11.9,0.4c0.4-0.1,0.8,0.1,1,0.5c0.2,0.4,0,0.8-0.4,1c0,0,0,0,0,0C81.1,158.5,78.9,158.9,76.8,158.9z"/>
		<path class="st40" d="M83.7,157.2c-0.4,0-0.7-0.3-0.7-0.7c0-0.2,0.1-0.5,0.3-0.6c1.3-0.9,2.5-1.9,3.5-3.2c0.6-1-0.4-1.8-0.5-1.9
			c-0.2-0.2-0.3-0.4-0.2-0.6c0-0.2,0.2-0.4,0.4-0.6c0.1-0.1,2.1-1.2,1.9-3.1c-0.1-0.9-1.3-1.3-1.3-1.3c-0.2-0.1-0.4-0.2-0.4-0.4
			c-0.1-0.2-0.1-0.4,0-0.6c0.4-0.8,0.6-1.7,0.4-2.6c-0.4-0.5-0.9-0.9-1.6-1c-0.3,0-0.5-0.3-0.6-0.6c-0.1-0.7-0.5-1.2-1.1-1.6
			c-1.1-0.6-3.2-0.1-3.9,0.2l-4.4,1.4c-0.4,0.1-0.8,0-0.9-0.4c-0.1-0.4,0-0.8,0.4-0.9c0,0,0,0,0.1,0l4.4-1.4c0.3-0.1,3.2-1,5-0.1
			c0.8,0.5,1.5,1.2,1.7,2.1c0.9,0.2,1.7,0.8,2.1,1.6c0.4,1,0.4,2.2-0.1,3.1c0.9,0.4,1.5,1.2,1.6,2.1c0.1,1.6-0.6,3.1-1.9,4
			c0.7,0.9,0.8,2.1,0.2,3.1c-1.1,1.4-2.4,2.7-3.9,3.6C84,157.1,83.9,157.1,83.7,157.2z"/>
		<path class="st41" d="M300.1,203.1c0.1,0.9-0.1,1.8-0.5,2.6c-0.5,0.8-1,1.4-1.8,1.9c-1.4,1-2.9,1.8-4.4,2.3
			c-3.1,1.1-6.3,1.9-9.5,2.5c-6.4,1.3-12.9,2-19.2,3.3c-1.6,0.3-3.2,0.6-4.7,1.1c-0.8,0.2-1.5,0.5-2.2,0.8c-0.7,0.2-1.3,0.6-1.9,1
			c-0.2,0.2-0.5,0.4-0.6,0.7c-0.2,0.3-0.3,0.7-0.3,1c-0.1,0.9-0.3,1.7-0.7,2.5c-0.4,0.8-0.9,1.6-1.6,2.2c-0.6,0.6-1.4,1.1-2.1,1.5
			c-1.5,0.8-3,1.5-4.6,2c-1.6,0.5-3.2,0.9-4.8,1.3c-3.2,0.7-6.4,1.3-9.7,1.8l-9.6,1.4l-9.7,1.4c-6.4,0.9-12.9,1.7-19.4,2.2
			s-13.1,0.6-19.6,0.4s-13-0.5-19.5-1c-1.6-0.1-3.3-0.2-4.9-0.4l-4.9-0.5c-1.6-0.1-3.2-0.3-4.9-0.5l-2.4-0.3l-1.2-0.1l-1.2-0.2
			c-1.6-0.2-3.2-0.4-4.9-0.7l-2.4-0.4l-2.4-0.5c-0.8-0.2-1.6-0.4-2.4-0.6c-0.4-0.1-0.8-0.2-1.2-0.4l-1.2-0.4l-0.6-0.2l-0.6-0.3
			c-0.4-0.2-0.8-0.3-1.2-0.6s-0.8-0.5-1.1-0.7s-0.7-0.6-1-0.9c-0.6-0.6-1.1-1.3-1.6-1.9c-0.5-0.5-1.1-1-1.7-1.4l-0.5-0.3l-0.2-0.1
			l-0.3-0.1l-1.1-0.4c-0.8-0.3-1.5-0.5-2.3-0.7c-3.1-0.9-6.2-1.6-9.4-2.1c-6.4-1.1-12.8-1.7-19.3-2.2c-12.9-1-26-1.5-38.9-2.6
			c-6.5-0.5-13-1.4-19.4-2.8c-1.6-0.4-3.2-0.8-4.8-1.3c-1.6-0.5-3.1-1.1-4.6-1.8c-1.5-0.7-2.9-1.7-4-2.9c-0.6-0.6-1.1-1.3-1.5-2.1
			c-0.4-0.8-0.6-1.6-0.7-2.5l0.9-0.1c0.1,0.7,0.3,1.5,0.6,2.2c0.3,0.7,0.8,1.3,1.3,1.9c1.1,1.1,2.4,2,3.8,2.7c2.9,1.3,6,2.3,9.1,2.9
			c6.4,1.3,12.8,2.1,19.3,2.5c12.9,1,25.9,1.4,38.9,2.4c6.5,0.5,13,1.1,19.5,2.1c3.2,0.5,6.5,1.2,9.6,2.1c0.8,0.2,1.6,0.5,2.4,0.7
			l1.2,0.5l0.3,0.1l0.3,0.2l0.6,0.3c0.4,0.2,0.8,0.5,1.1,0.8c0.2,0.1,0.3,0.3,0.5,0.5c0.2,0.1,0.3,0.3,0.5,0.5
			c0.6,0.7,1.1,1.3,1.6,1.8c1.1,1,2.4,1.8,3.9,2.3l1.1,0.4c0.4,0.1,0.8,0.2,1.1,0.3c0.8,0.2,1.5,0.4,2.3,0.6l2.3,0.5l2.4,0.4
			c1.6,0.3,3.2,0.5,4.8,0.7l1.2,0.2l1.2,0.1l2.4,0.3c1.6,0.2,3.2,0.3,4.8,0.5l4.9,0.5c1.6,0.1,3.2,0.3,4.9,0.4
			c3.2,0.3,6.5,0.4,9.7,0.6c1.6,0.1,3.2,0.1,4.9,0.2l2.4,0.1l2.4,0.1c6.5,0.1,12.9,0,19.4-0.4c12.9-0.9,25.7-3.2,38.6-4.9
			c3.2-0.4,6.4-1,9.5-1.7c1.6-0.4,3.1-0.8,4.6-1.2c1.5-0.4,3-1,4.4-1.8c1.3-0.6,2.4-1.7,3.1-3c0.3-0.7,0.5-1.4,0.6-2.2
			c0.1-0.5,0.2-0.9,0.4-1.4c0.2-0.5,0.6-0.8,1-1.1c0.7-0.5,1.5-0.9,2.3-1.3c0.8-0.3,1.6-0.6,2.4-0.8c1.6-0.4,3.2-0.8,4.8-1.1
			c6.4-1.2,12.9-1.9,19.3-3c3.2-0.5,6.3-1.3,9.4-2.3c1.5-0.5,2.9-1.2,4.2-2.1c0.6-0.4,1.1-1,1.5-1.6c0.4-0.6,0.5-1.3,0.5-2.1
			L300.1,203.1z"/>
		<path class="st42" d="M158.5,218.2c-0.6,0-1.2-0.2-1.6-0.4c-1.8-1.1-7.5-3.8-11.9-3.5c-2,0.1-3.9,0.6-5.7,1.5
			c-2.8,1.3-5.8,2-8.9,2c-3.5,0.1-7-0.7-10.1-2.3c-1.9-1-4-1.6-6.2-1.7c-3.6,0-7.1,1-10,3c-1.4,1.1-3.5,0.9-4.6-0.5
			s-0.9-3.5,0.5-4.6c0.1,0,0.1-0.1,0.2-0.1c4.2-2.9,9.2-4.4,14.3-4.3c2.9,0.2,5.8,1,8.4,2.3c2.3,1.2,4.8,1.8,7.4,1.7
			c2.2,0,4.4-0.5,6.4-1.4c2.5-1.2,5.1-1.9,7.9-2c7.3-0.5,15.4,4.2,15.7,4.4c1.6,0.9,2.1,2.9,1.2,4.5
			C160.7,217.6,159.7,218.2,158.5,218.2L158.5,218.2z"/>
		<path class="st43" d="M158,217.7h-0.1c-0.1,0-7.4-4.3-13.7-3.9c-2.3,0.1-4.6,0.7-6.7,1.7c-2.4,1.2-5,1.8-7.7,1.7
			c-3.1,0.1-6.1-0.6-8.8-2c-2.2-1.1-4.7-1.8-7.2-2c-4.3-0.1-8.5,1.2-12,3.6c-0.1,0.1-0.2,0.1-0.3,0c0,0,0,0,0,0
			c-0.1-0.1-0.1-0.2,0-0.3c3.6-2.5,7.9-3.8,12.3-3.7c2.6,0.2,5.1,0.9,7.4,2c2.7,1.4,5.6,2.1,8.6,2c2.6,0,5.2-0.5,7.5-1.7
			c2.1-1,4.5-1.7,6.9-1.8c6.4-0.4,13.9,3.9,13.9,3.9c0.1,0.1,0.1,0.2,0.1,0.3C158.1,217.8,158.1,217.8,158,217.7z"/>
		<g>
			<defs>
				<path id="SVGID_7_" d="M158.5,218.2c-0.6,0-1.2-0.2-1.6-0.4c-1.8-1.1-7.5-3.8-11.9-3.5c-2,0.1-3.9,0.6-5.7,1.5
					c-2.8,1.3-5.8,2-8.9,2c-3.5,0.1-7-0.7-10.1-2.3c-1.9-1-4-1.6-6.2-1.7c-3.6-0.1-7.1,1-10.1,3c-1.5,1-3.5,0.7-4.5-0.8
					c-1-1.4-0.7-3.4,0.7-4.4c4.2-2.9,9.2-4.4,14.3-4.3c2.9,0.2,5.8,1,8.4,2.3c2.3,1.2,4.8,1.8,7.4,1.7c2.2,0,4.4-0.5,6.4-1.4
					c2.5-1.2,5.1-1.9,7.9-2c7.4-0.5,15.4,4.2,15.7,4.4c1.5,0.9,2.1,2.9,1.1,4.5C160.7,217.6,159.6,218.2,158.5,218.2L158.5,218.2z"
					/>
			</defs>
			<clipPath id="SVGID_8_">
				<use xlink:href="#SVGID_7_"  style="overflow:visible;"/>
			</clipPath>
			<g class="st44">
				<path class="st45" d="M109.7,215.2c-0.1,0-0.2,0-0.3,0c-0.4-0.2-0.5-0.6-0.4-0.9c0,0,1.8-4.5-1.1-6.2c-0.3-0.2-0.5-0.6-0.3-0.9
					c0.2-0.3,0.6-0.5,0.9-0.3c0,0,0,0,0.1,0c3.2,1.8,2.5,6,1.7,8C110.2,215,109.9,215.2,109.7,215.2z"/>
				<path class="st45" d="M118.7,215.4c-0.1,0-0.3,0-0.4-0.1c-0.3-0.2-0.4-0.6-0.2-0.9c0,0,0,0,0,0c0,0,2.2-3.9,0.1-6.5
					c-0.2-0.3-0.2-0.8,0.1-1c0,0,0,0,0,0c0.3-0.2,0.7-0.2,1,0.1c0,0,0,0,0,0c2.8,3.4,0.2,7.9,0.1,8.1
					C119.2,215.2,118.9,215.4,118.7,215.4z"/>
				<path class="st45" d="M127.9,218.6c-0.4,0-0.7-0.3-0.7-0.7c0-0.1,0-0.2,0.1-0.3c0,0,2-3.8,0.1-6.2c-0.2-0.3-0.1-0.8,0.2-1
					c0.3-0.2,0.6-0.1,0.9,0.1c2.6,3.2,0.2,7.6,0.1,7.8C128.4,218.5,128.2,218.7,127.9,218.6z"/>
				<path class="st45" d="M137.3,217.5c-0.1,0-0.2,0-0.3-0.1c-0.4-0.1-0.5-0.6-0.4-0.9c0,0,0,0,0,0c0.8-2.1,0.4-4.5-1-6.2
					c-0.3-0.3-0.2-0.7,0.1-1c0,0,0,0,0,0c0.3-0.3,0.7-0.2,1,0.1c0,0,0,0,0,0c1.8,2.1,2.3,5.1,1.2,7.7
					C137.9,217.4,137.6,217.5,137.3,217.5z"/>
				<path class="st45" d="M147,215.3c-0.1,0-0.2,0-0.3-0.1c-0.3-0.2-0.5-0.6-0.3-0.9c0,0,1.9-4.3-0.7-6.4c-0.3-0.2-0.3-0.7-0.1-1
					s0.7-0.3,1-0.1c3.4,2.8,1.2,7.8,1.1,8C147.5,215.1,147.3,215.3,147,215.3z"/>
			</g>
		</g>
		<path class="st46" d="M116.8,59.8c1.7,0.9,3.4,1.7,5.1,2.3c0.8,0.3,1.7,0.6,2.6,0.8c0.4,0.1,0.8,0.2,1.3,0.2c0.2,0,0.4,0,0.6,0
			h0.6c1.7-0.3,3.4-0.9,4.9-1.8c1.6-0.9,3.2-1.9,4.8-3c-1.1,1.6-2.4,3.1-4,4.3c-1.6,1.3-3.5,2.2-5.5,2.5h-0.8c-0.3,0-0.6,0-0.8-0.1
			c-0.3,0-0.5-0.1-0.8-0.2c-0.2-0.1-0.5-0.1-0.7-0.2c-1-0.3-1.9-0.7-2.8-1.2C119.5,62.6,118,61.3,116.8,59.8z"/>
		<path class="st17" d="M99.2,73.5c0,0,19.9,16.8,56.8,1.9"/>
		<path class="st17" d="M154.4,70.7c0,0,0.1,6.7,6,8.4"/>
		<path class="st17" d="M101.2,68.3c0,0-0.1,6.7-6,8.4"/>
	</g>
</g>
<circle class="st47" cx="128" cy="128" r="123.2"/>
</svg>
