<?xml version="1.0" encoding="utf-8"?>
<!-- Generator: Adobe Illustrator 25.2.3, SVG Export Plug-In . SVG Version: 6.00 Build 0)  -->
<svg version="1.1" id="Layer_1" xmlns="http://www.w3.org/2000/svg" xmlns:xlink="http://www.w3.org/1999/xlink" x="0px" y="0px"
	 viewBox="0 0 256 256" style="enable-background:new 0 0 256 256;" xml:space="preserve">
<style type="text/css">
	.st0{fill:#B0C2ED;}
	.st1{clip-path:url(#SVGID_2_);}
	.st2{fill:#B64C4F;}
	.st3{fill:#F8B75A;}
	.st4{fill:#00988B;stroke:#154F32;stroke-miterlimit:10;}
	.st5{opacity:0.4;fill:#464B5E;enable-background:new    ;}
	.st6{fill:#83CBF5;}
	.st7{fill:#FFCB41;stroke:#8C6D37;stroke-miterlimit:10;}
	.st8{opacity:0.2;fill:#7C282B;enable-background:new    ;}
	.st9{opacity:0.47;fill:#FFB100;enable-background:new    ;}
	.st10{fill:#E8906B;}
	.st11{fill:#3D4356;}
	.st12{fill:#FFBF7E;stroke:#A06937;stroke-miterlimit:10;}
	.st13{opacity:0.9;fill:#F59B76;enable-background:new    ;}
	.st14{fill:#5E95DD;}
	.st15{fill:#2A3244;}
	.st16{opacity:0.5;fill:#383D4D;enable-background:new    ;}
	.st17{fill:#383D4D;}
	.st18{fill:#BF4146;}
	.st19{fill:#FFFFFF;}
	.st20{fill:#F16467;}
	.st21{fill:#B5E6FF;stroke:#5DA09E;stroke-miterlimit:10;}
	.st22{opacity:0.4;fill:#55BCFF;enable-background:new    ;}
	.st23{fill:#FFCB41;}
	.st24{fill:#F5A622;}
	.st25{fill:#B53A47;}
	.st26{fill:#7C282B;}
	.st27{opacity:0.3;fill:#59BEFF;enable-background:new    ;}
	.st28{fill:#FFCA60;}
	.st29{fill:#3C78AA;}
	.st30{opacity:0.3;fill:#3C78AA;enable-background:new    ;}
	.st31{fill:#3EC7FB;}
	.st32{fill:#93D5F7;}
	.st33{fill:#2C94CE;}
	.st34{fill:#33B5EC;}
	.st35{opacity:0.32;fill:#FFFFFF;enable-background:new    ;}
	.st36{fill:#D6F0FF;}
	.st37{opacity:0.17;fill:#FFFFFF;enable-background:new    ;}
	.st38{fill:#EC9A6C;}
	.st39{fill:#FFBF7E;}
	.st40{fill:#F59B76;}
	.st41{fill:#A43D41;}
	.st42{fill:none;stroke:#0C4196;stroke-width:5;stroke-miterlimit:10;}
</style>
<circle class="st0" cx="128" cy="128" r="121.7"/>
<g>
	<defs>
		<circle id="SVGID_1_" cx="128" cy="128" r="121.7"/>
	</defs>
	<clipPath id="SVGID_2_">
		<use xlink:href="#SVGID_1_"  style="overflow:visible;"/>
	</clipPath>
	<g class="st1">
		<polygon class="st2" points="8.5,79.6 14,78.9 10.7,83.4 		"/>
		<path class="st3" d="M-14.4,72.1c1-2.4,3.6-3.8,6.1-3.3c6.3,0.8,10.6,11.1,10.6,11.1l-6.1,3L-14.4,72.1z"/>
		<path class="st4" d="M109.5,253.4l4.3,80.2c1.6,0.6,3.3,1,5.1,1.1c1.5,0,2.9-0.5,4-1.5l10.7-64l4-2.9l10.9,65.4c0,0,3.1,2,5.2,1.8
			s3.8-2.5,3.8-2.5l0.6-78.8L109.5,253.4z"/>
		<path class="st5" d="M117.6,256.3c-0.1,1.8-0.6,3.6-1.4,5.2c-2.2,4.5-6,3.8-6,3.8l-0.8-12.1L117.6,256.3z"/>
		<path class="st6" d="M110.6,265.7h-0.3c-0.2,0-0.4-0.2-0.3-0.4c0-0.2,0.2-0.4,0.4-0.4c0,0,0,0,0,0c2.2,0.1,4.2-1.1,5.1-3
			c0.9-1.8,1.5-3.7,1.8-5.7c0-0.2,0.3-0.3,0.5-0.3c0.2,0,0.3,0.2,0.3,0.4c-0.3,2.1-1,4.1-1.9,6C115.1,264.4,112.9,265.7,110.6,265.7
			z"/>
		<path class="st5" d="M151,256.2c0,0-0.7,4.2,2.1,6.3c2.1,1.6,4.9,0.4,4.9,0.4v-10.8L151,256.2z"/>
		<path class="st6" d="M155.6,263.7c-0.9,0-1.8-0.2-2.6-0.7c-1.7-1.1-2.5-3.4-2.5-6.7c0-0.2,0.2-0.4,0.4-0.4c0.2,0,0.4,0.2,0.4,0.4
			c0,0,0,0,0,0c0,3.1,0.7,5.1,2.2,6c1.9,1.2,4.3,0.2,4.4,0.2c0.2-0.1,0.4,0,0.5,0.2c0.1,0.2,0,0.4-0.2,0.5h0
			C157.3,263.5,156.5,263.6,155.6,263.7z"/>
		<path class="st5" d="M109.4,253l0.2,2.8c0,0,4.2,6,16.3,7c24.2,2.1,32.3-10.1,32.3-10.1L109.4,253z"/>
		<path class="st7" d="M131.8,186.2c-11.7,0.3-14.6,5.6-14.6,5.6c-7,8.5-12,18.4-14.5,29.2c-1.7,7.4-2.8,17.3,0,25
			c3.2,8.9,14.8,11.3,29.7,11.8c14.5,0.5,27.7-1,31.5-14c4-13.8-2.4-30.9-7.3-41.1c-1.4-3.1-3.2-6-5.4-8.7c-1.2-1.6-2.7-2.8-4.4-3.7
			C142.3,187.6,137.1,186.2,131.8,186.2z"/>
		<path class="st2" d="M102.3,222.7c0,0,9.5,5.8,31.3,5.8c20.7,0,30.4-5.1,30.4-5.1c0.6,2.8,1,5.6,1.2,8.4c0.2,2.7,0,5.4-0.4,8.1
			c0,0-8.8,5.1-31.8,5.7c-23.9,0.7-31.5-6.3-31.5-6.3c-0.3-2.6-0.4-5.2-0.2-7.8C101.5,228.5,101.8,225.6,102.3,222.7z"/>
		<path class="st2" d="M117.8,191.1c-2.1,2.4-4,5-5.7,7.7c-1.2,1.9-2.3,3.8-3.2,5.8c0,0,7.6,5.1,24.4,5c21.2-0.2,23.2-7.1,23.2-7.1
			c-1.4-2.9-3.1-5.6-4.9-8.3c-1.2-1.7-2.8-3-4.6-3.9c-4,2.6-8.6,4.2-13.4,4.5C126.3,194.9,117.8,191.1,117.8,191.1z"/>
		<path class="st8" d="M147.4,190.5c0,0-0.4,10.6-13.1,11.4c-14.2,0.9-16.1-10.2-16.1-10.2L147.4,190.5z"/>
		<path class="st9" d="M152,209c0,0,1.5,5.4,4.3,8c1.8,1.6,4.2,2.4,6.6,2.2l-1.6-5.4L152,209z"/>
		<path class="st9" d="M113.2,210.6c0,0-1.3,6.5-5,7.6c-1.6,0.5-3.3,0.2-4.6-0.8c0.3-1.4,0.8-2.7,1.4-4
			C106.5,210.9,113.2,210.6,113.2,210.6z"/>
		<path class="st10" d="M125.2,182.3c0,0-0.8,9.7,6.9,11.6s8-12.4,8-12.4L125.2,182.3z"/>
		<path class="st11" d="M72.4,100.1c-2.8,4.9-2.6,11.1,0.6,15.8l1.3-0.2l9.9-1.1l3-15.6C87.1,99,77.2,91.4,72.4,100.1z"/>
		<path class="st12" d="M86.6,102.5c0,0-1,4.8-1.9,10.2c-2.6,15.7-15.8,32.6,0.1,53.1c13.9,17.9,65.3,24.8,86.6,7.4
			c7.6-6.2,11.2-17.5,12.1-24.2c2.3-17-5.3-37.2-5.3-37.2s-9.6-28.9-38.7-34.1C102.8,71.2,86.6,102.5,86.6,102.5z"/>
		<path class="st13" d="M116.9,133.1c0,0,2.2,17.8-18,22c-14.8,3.1-21.3-7-21.3-7L116.9,133.1z"/>
		<path class="st13" d="M142.3,136.5c0,0-0.8,16.3,15.1,19.1c16.3,2.8,22.4-7.3,22.4-7.3L142.3,136.5z"/>
		<path class="st13" d="M86.9,101.3c-0.1-0.6-1.1,4.9-1.1,4.9c2.3,0.7,4.8,1,7.3,0.6c2.4-0.5,4.6-1.4,6.7-2.6c0,0,2.6,6.1,16.6,6.5
			c12.8,0.4,20-6,20-6s0.9,5.1,9.7,6c10,1,14.1-5.9,14.1-5.9s9.6,9,13.3,4.8s1.3-21.6,1.3-21.6s-23.2-20.1-62.2-11.4
			C90.7,81.5,87,101.8,86.9,101.3z"/>
		<path class="st13" d="M108.9,116.4c0,0,6.3-3.8,17.3-3.8c16.3,0,26.7,4.8,26.7,4.8l-5.8,18.2c0,0-7.2-2.7-18.5-2.8
			s-14.7,2.2-14.7,2.2L108.9,116.4z"/>
		<path class="st14" d="M108.3,114.4c6.4-2.3,13.1-3.6,19.9-3.6c16.3,0,24.6,4.3,24.6,4.3l-5.8,18.2c0,0-7.2-2.7-18.5-2.8
			s-14.7,2.2-14.7,2.2L108.3,114.4z"/>
		<path class="st15" d="M80.5,64.2c0,0-8.9,1.6-15.7,7.6c-7.1,6.3-11.9,17.2-5,25.2c16.1,18.6,44.2-2.5,44.2-2.5
			c1.8,4.9,6.2,8.5,11.4,9.3c13.9,2.6,24.4-8.4,24.4-8.4c0.2,3.8,2.9,6.9,6.6,7.7c10.5,2.4,20.3-8.1,20.3-8.1s-2.6,10,1.8,14.7
			c2.2,2.7,6.2,3.1,8.9,0.8l5.3,16.7l14.1-0.2c0,0,9.6-10.9,4-32.9c-3.2-12.6-16.7-17.6-16.7-17.6s10.4-4.5,6.9-10.3
			c-6.6-10.9-17.2,2.7-17.2,2.7s-0.4-10.3-6.1-15.8c-10.2-9.8-16.4-1.1-16.4-1.1S140.5,36.3,128,38c-8.4,1.2-10.1,7.4-10.1,7.4
			S91,30.5,77.5,41.8C63,54,80.5,64.2,80.5,64.2z"/>
		<path class="st16" d="M77.3,65c0,0-2.1,3.8,3,6.4c8.5,4.3,19-3.3,19-3.3c-4.3,0.2-8.6-0.2-12.7-1.4c-2.2-0.5-4.3-1.4-6.3-2.5
			l-1.6,0.4L77.3,65z"/>
		<path class="st16" d="M118,45.4l-2.7-1.3c0,0-3.1,1.6-2.5,6c1.1,8.1,12.9,8.6,12.9,8.6s-6.1-3.2-7.5-8.7
			C117.7,48.5,117.7,46.9,118,45.4z"/>
		<path class="st16" d="M151.2,52l-1.1-1.3c-1.5,0.8-2.2,2.5-1.8,4.1c0.9,5.3,8.4,6.5,8.4,6.5s-3.8-1.9-5.4-5
			C150.6,55,150.5,53.4,151.2,52z"/>
		<path class="st16" d="M110.3,81.2c0,0-6.6-0.9-11.6,6.2c-4.9,7-0.1,10.5-0.1,10.5s1.3-0.9,2.7-1.7s2.7-1.6,2.7-1.6s-1.7-4.3,0-7.6
			C105.2,84.4,107.5,82.3,110.3,81.2z"/>
		<path class="st16" d="M143.4,90.5c1,1.8,0.8,4.1-0.5,5.7c-0.7,0.9-1.7,1.4-2.8,1.4c-0.1-0.4-0.2-0.7-0.3-1.1c-0.1-0.5-0.2-1-0.2-1
			s1.1-1.2,2-2.5S143.4,90.5,143.4,90.5z"/>
		<path class="st16" d="M182.7,99.4c2.1,3.8,2.5,8.4,1.1,12.5c-1.4,4.2-4.4,4.9-4.4,4.9l-2.2-6.4c1.4-0.6,2.6-1.7,3.3-3.1
			C181.9,104.9,182.7,102.2,182.7,99.4z"/>
		<path class="st16" d="M180.5,77.4c0.7,0.8,1.6,1.4,2.6,1.6c1.4,0.4,2.8-0.1,3.6-1.3l-1.2-0.6l-1.6-0.7c-0.5,0.3-1,0.5-1.5,0.7
			C181.8,77.2,181.1,77.3,180.5,77.4z"/>
		<path class="st16" d="M145.3,73.3c-3.4-3.2-8.3-0.9-10.9,1.9c-1.1,1.3-2.9,3.4-1.6,5.1c0.9,1,2.2,1.5,3.5,1.3
			C139.9,81.3,150.3,78,145.3,73.3z"/>
		<path class="st16" d="M84.4,81.8c-2.8-0.9-8.2,2.7-9.8,4.9s-1.1,4.6,1.7,5.2c2.7,0.6,10.4-2.9,11.7-5.2
			C89.5,84,86.4,82.4,84.4,81.8z"/>
		<path class="st16" d="M162.6,83.7c-1.7-0.3-3.4,0.2-4.6,1.4c-0.7,0.6-0.8,1.7-0.2,2.4c0.3,0.3,0.6,0.5,1,0.6
			C161.6,88.8,166.5,84.7,162.6,83.7z"/>
		<path class="st17" d="M97.1,69c-10.8,0-17.5-4.1-17.8-4.3c-0.4-0.2-0.5-0.7-0.2-1.1c0.2-0.4,0.7-0.5,1.1-0.3c0,0,0,0,0,0
			c0.1,0.1,9.7,5.9,24.1,3.4c0.4-0.1,0.8,0.2,0.9,0.6s-0.2,0.8-0.6,0.9C102.1,68.8,99.6,69,97.1,69z"/>
		<path class="st17" d="M138.4,63.7c-6.7-0.2-13-3-17.7-7.8c-5.1-5.2-3.5-10-3.4-10.3c0.2-0.4,0.6-0.6,1-0.4
			c0.3,0.2,0.5,0.5,0.4,0.9c0,0.2-1.3,4.2,3.1,8.7c4.4,4.6,10.5,7.2,16.9,7.3c0.4,0,0.8,0.3,0.8,0.7c0,0.4-0.3,0.8-0.7,0.8l0,0
			L138.4,63.7z"/>
		<path class="st17" d="M159.3,62.7c-2.2,0-6.3-2.7-8.2-5.5c-1.4-2-1.5-3.9-0.5-5.5c0.2-0.4,0.7-0.5,1.1-0.3
			c0.4,0.2,0.5,0.7,0.3,1.1c-0.7,1.1-0.5,2.4,0.5,3.8c1.9,2.9,5.9,5,7,4.8c0.4-0.1,0.8,0.1,1,0.5c0.1,0.4-0.1,0.8-0.5,1
			c-0.1,0-0.1,0-0.2,0C159.5,62.7,159.4,62.7,159.3,62.7z"/>
		<path class="st17" d="M180.1,78.2c-0.3,0-0.6,0-0.9-0.1c-0.4-0.1-0.7-0.4-0.7-0.9c0,0,0,0,0,0c0.1-0.4,0.5-0.7,0.9-0.7
			c0,0,0,0,0,0c1.4,0.1,2.9-0.2,4.2-0.8c0.4-0.2,0.8,0,1,0.4c0.2,0.4,0,0.8-0.4,1C182.9,77.7,181.5,78.1,180.1,78.2z"/>
		<path class="st17" d="M139.6,96.4c-0.2,0-0.4-0.1-0.6-0.3c-0.3-0.3-0.2-0.8,0.1-1.1c1.8-1.9,3.3-4,4.4-6.3c0.1-0.4,0.6-0.6,1-0.5
			c0.4,0.1,0.6,0.6,0.5,1c0,0,0,0.1-0.1,0.1c-1.2,2.5-2.8,4.9-4.8,6.9C140,96.3,139.8,96.4,139.6,96.4z"/>
		<path class="st17" d="M177.3,111.2c-0.4,0-0.8-0.4-0.8-0.8c0-0.3,0.2-0.6,0.4-0.7c5.3-2.6,5.1-12.6,5.1-12.7
			c0-0.4,0.3-0.8,0.8-0.8c0,0,0,0,0,0c0.4,0,0.8,0.3,0.8,0.7c0,0,0,0,0,0c0,0.4,0.2,11.1-6,14.1
			C177.5,111.2,177.4,111.2,177.3,111.2z"/>
		<path class="st17" d="M103.7,95.5c-0.3,0-0.6-0.2-0.7-0.5c-1.2-3.6-0.8-6.8,1-9.5c4.5-6.8,16.7-8.1,17.2-8.2
			c0.4-0.1,0.8,0.2,0.9,0.6c0.1,0.4-0.2,0.8-0.6,0.9c0,0-0.1,0-0.1,0c-0.1,0-12,1.3-16.1,7.5c-1.5,2.3-1.8,5-0.8,8.2
			c0.1,0.4-0.1,0.8-0.5,1c0,0,0,0,0,0C103.9,95.5,103.8,95.5,103.7,95.5z"/>
		<path class="st17" d="M101,55.5c-0.1,0-0.2,0-0.2,0c-2.5-0.9-5.2-0.9-7.7-0.1c-0.4,0.2-0.9,0-1-0.4c0,0,0-0.1,0-0.1
			c-0.2-0.4,0-0.8,0.4-1c2.8-1,5.9-1,8.8,0c0.4,0.1,0.6,0.6,0.5,1C101.6,55.3,101.3,55.5,101,55.5L101,55.5z"/>
		<path class="st17" d="M135.6,53.6c-0.2,0-0.4-0.1-0.5-0.2c-1.2-1-2.6-1.6-4.1-2c-0.4-0.1-0.7-0.5-0.6-0.9c0.1-0.4,0.5-0.7,0.9-0.6
			c1.8,0.4,3.4,1.2,4.9,2.4c0.3,0.3,0.3,0.8,0.1,1.1C136,53.5,135.8,53.6,135.6,53.6L135.6,53.6z"/>
		<path class="st17" d="M108.1,72.9c-0.4,0-0.8-0.3-0.8-0.8c0-0.2,0.1-0.5,0.3-0.6c1.9-1.3,4.2-1.8,6.4-1.5c0.4,0.1,0.7,0.4,0.7,0.9
			s-0.4,0.7-0.9,0.7c-1.8-0.3-3.7,0.1-5.3,1.2C108.5,72.8,108.3,72.9,108.1,72.9z"/>
		<path class="st17" d="M117.6,92.6c-0.1,0-0.3,0-0.4-0.1c-0.4-0.2-0.5-0.7-0.3-1.1c0,0,0,0,0,0c1.2-1.7,3.1-2.9,5.2-3.1
			c0.4-0.1,0.8,0.2,0.9,0.6c0,0,0,0,0,0c0.1,0.4-0.2,0.8-0.7,0.9c-1.7,0.2-3.2,1.1-4.2,2.4C118.2,92.4,117.9,92.6,117.6,92.6z"/>
		<path class="st17" d="M161.4,79.4c-0.4,0-0.8-0.3-0.8-0.8c0-0.2,0.1-0.5,0.3-0.6c1.5-1,3.4-1.4,5.1-1.2c0.4,0,0.7,0.4,0.7,0.8
			c0,0.4-0.4,0.7-0.8,0.7c0,0,0,0,0,0c-1.4-0.2-2.8,0.1-4,0.8C161.7,79.3,161.5,79.4,161.4,79.4z"/>
		<path class="st17" d="M183.4,90.9c-0.1,0-0.1,0-0.2,0c-0.4-0.1-0.7-0.5-0.6-0.9c0,0,0.5-2.6-1.1-4c-0.3-0.3-0.3-0.8-0.1-1.1
			c0.3-0.3,0.8-0.3,1.1,0c2.3,2,1.6,5.3,1.6,5.5C184,90.7,183.7,90.9,183.4,90.9z"/>
		<path class="st17" d="M192.7,99.5h-0.1c-0.4-0.1-0.7-0.5-0.6-0.9c0.2-1.5,0-3.1-0.6-4.5c-0.2-0.4,0-0.8,0.3-1c0.4-0.2,0.9,0,1,0.3
			c0,0,0,0,0,0c0.7,1.7,1,3.6,0.7,5.4C193.4,99.3,193.1,99.5,192.7,99.5z"/>
		<path class="st18" d="M142.6,151.6c7.8,2.4,4.6,14.9-8.7,16.5c-8.1,1-20.2-6.3-15.3-12.1c2.7-3.2,6.7-0.3,12.8-1.3
			C136.1,153.9,139.4,150.6,142.6,151.6z"/>
		<path class="st19" d="M123.4,154.4c0,0,0.3,5.4,8.4,4.5c3.7-0.1,6.7-3.2,6.7-6.9c0,0-1.7,0.7-4.3,1.8c-2.1,0.7-4.3,1.1-6.5,1
			C126.1,154.8,123.4,154.4,123.4,154.4z"/>
		<path class="st20" d="M127.1,167.1c0.9-2.1,2.8-3.7,5-4.4c8.1-2.3,10.6,1.7,10.6,1.7c-2.1,1.7-4.5,2.8-7.1,3.4
			C132.8,168.4,129.8,168.2,127.1,167.1z"/>
		<path class="st21" d="M149.3,191.8c0,0-0.4,4.1,0.8,11.9c0.3,1.7,2.5,10.6,9.6,10.9c3,0.1,19.9-2.8,30-15.2
			c20.9-25.4,6.8-53.1,6.8-53.1c-1.7,1.3-3.4,2.3-5.3,3.1c-1.8,0.6-3.7,0.6-5.5,0c0,0,0,21.4-9.1,30.9S149.3,191.8,149.3,191.8z"/>
		<path class="st22" d="M171.5,190.7c-0.4,0-0.8-0.3-0.8-0.8c0-0.4,0.2-0.7,0.6-0.8c0.7-0.3,1.4-0.6,1.9-1.2
			c0.4-0.2,0.9-0.1,1.1,0.3c0.2,0.3,0.1,0.6-0.1,0.9c-0.7,0.7-1.6,1.2-2.5,1.5L171.5,190.7z"/>
		<path class="st22" d="M172.3,198.6c-0.3,0-0.6-0.2-0.7-0.5c-0.1-0.4,0.1-0.8,0.5-1c0.8-0.3,1.5-0.8,2-1.5c0.2-0.4,0.7-0.5,1.1-0.3
			c0.4,0.2,0.5,0.7,0.3,1.1c-0.7,1-1.7,1.8-2.8,2.2C172.5,198.6,172.4,198.6,172.3,198.6z"/>
		<path class="st22" d="M184.3,188.4c-0.4,0-0.8-0.3-0.8-0.8c0-0.2,0.1-0.5,0.3-0.6c0.8-0.7,1.5-1.5,2-2.4c0.2-0.4,0.6-0.5,1-0.4
			c0.4,0.2,0.5,0.6,0.4,1c-0.6,1.1-1.4,2.1-2.4,2.9C184.6,188.3,184.5,188.4,184.3,188.4z"/>
		<path class="st22" d="M181.2,200.8c-0.4,0-0.8-0.3-0.8-0.8c0-0.3,0.1-0.5,0.4-0.7c0.7-0.5,1.4-1.1,2-1.7c0.3-0.3,0.8-0.4,1.1-0.1
			c0,0,0,0,0,0c0.3,0.3,0.4,0.8,0.1,1.1c-0.7,0.8-1.5,1.5-2.4,2C181.5,200.7,181.3,200.7,181.2,200.8z"/>
		<path class="st22" d="M194.8,164.9c-0.1,0-0.1,0-0.2,0c-0.4-0.1-0.7-0.5-0.6-0.9c0,0,0,0,0-0.1c0.2-0.8,0.3-1.7,0.2-2.6
			c-0.1-0.4,0.2-0.8,0.7-0.9c0.4-0.1,0.8,0.3,0.9,0.7c0.1,1.1,0,2.1-0.2,3.1C195.5,164.7,195.1,164.9,194.8,164.9z"/>
		<path class="st21" d="M117.4,191.3c0,0-16.1-2.1-26.5-9.9c-21.8-16.4-19.2-31.8-19.2-31.8l-9.9-2.8c0,0-9.6,18.3,6.1,43.1
			c6.9,10.9,23.4,21.4,30.9,23.5c8.8,2.4,13.8-0.5,17.1-6.4S117.4,191.3,117.4,191.3z"/>
		<path class="st23" d="M125.2,183.3c0,0-9.1,1.1-7.6,7.6c1.2,5.3,14.4,10.5,16.1,7.9c1.3-2-0.6-5.9-3.3-8.5
			c-1.5-1.4-3.1-2.8-4.9-3.9c0.1-0.6,0.2-1.2,0.3-1.8C125.8,184.1,125.6,183.6,125.2,183.3z"/>
		<path class="st23" d="M139.8,183.3c0,0,8.1,0.6,7.4,6.4c-1.2,9.5-14.6,9.6-14.6,9.6l-0.7-7.1c1-1.3,2.2-2.5,3.5-3.6
			c1-0.8,2.1-1.3,3.4-1.5c-0.1-0.8-0.2-1.6-0.1-2.4C138.8,184,139.2,183.5,139.8,183.3z"/>
		<path class="st24" d="M133.3,199.9c-0.3,0-0.5-0.1-0.6-0.4c-0.2-0.3,0-0.7,0.3-0.9c0,0,0.7-0.4,0.5-1.9c-0.4-1.5-1-2.9-1.8-4.1
			c-0.2-0.3-0.1-0.7,0.2-0.9c0,0,0,0,0,0c0.3-0.2,0.7-0.1,0.9,0.2c0.9,1.4,1.6,3,2,4.7c0.4,2.5-1.1,3.3-1.2,3.3
			C133.4,199.9,133.3,199.9,133.3,199.9z"/>
		<path class="st25" d="M133.5,247.6h-0.1c-0.5-0.1-0.9-0.5-0.9-1c0-0.3,2.7-29.2,0.9-44.4c0.1-0.5,0.6-0.9,1.1-0.8
			c0.4,0.1,0.7,0.3,0.8,0.6c1.8,15.4-0.9,44.5-0.9,44.8C134.4,247.2,134,247.6,133.5,247.6z"/>
		<path class="st26" d="M115.3,232.1c-0.2,0.7-0.4,1.5-0.7,2.1c-0.3,0.7-0.7,1.3-1.1,1.9c-0.4,0.6-0.9,1.2-1.5,1.7
			c-0.6,0.5-1.2,1-1.9,1.4c-0.3,0.2-0.7,0-0.8-0.3c0,0,0,0,0,0c-0.1-0.2-0.1-0.4,0-0.6l0,0c0.4-0.6,0.8-1.2,1.2-1.7l1.2-1.7l1.2-1.7
			c0.4-0.6,0.8-1.1,1.3-1.7l0,0c0.2-0.2,0.6-0.2,0.8,0c0.1,0.1,0.2,0.3,0.2,0.5L115.3,232.1z"/>
		<path class="st26" d="M152.5,233.1c0.4,0.4,0.7,0.8,1.1,1.2s0.8,0.8,1.2,1.1s0.9,0.7,1.3,1.1c0.4,0.4,0.9,0.8,1.2,1.2l0,0
			c0.2,0.2,0.2,0.6,0,0.8c0,0,0,0,0,0c-0.2,0.1-0.4,0.2-0.6,0.1c-0.6-0.2-1.2-0.5-1.7-0.8c-0.5-0.3-1-0.7-1.5-1.1
			c-0.5-0.4-0.9-0.9-1.3-1.4c-0.4-0.5-0.7-1.1-0.9-1.7c-0.1-0.3,0.1-0.6,0.4-0.7c0,0,0,0,0,0C152.1,232.9,152.3,232.9,152.5,233.1
			L152.5,233.1z"/>
		<path class="st22" d="M94,190.4c-1.5-0.1-2.9-0.7-4-1.7c-0.3-0.3-0.3-0.8,0-1.1c0.3-0.3,0.8-0.3,1.1,0c0.8,0.8,1.8,1.2,2.9,1.3
			c0.4,0,0.8,0.3,0.8,0.8C94.8,190.1,94.5,190.4,94,190.4L94,190.4z"/>
		<path class="st22" d="M91.8,198.3L91.8,198.3c-1.2-0.1-2.2-0.6-3-1.4c-0.3-0.3-0.3-0.8,0-1.1c0.3-0.3,0.8-0.3,1.1,0c0,0,0,0,0,0
			c0.5,0.5,1.2,0.9,2,1c0.4,0,0.7,0.4,0.7,0.8C92.5,198.1,92.2,198.4,91.8,198.3z"/>
		<path class="st22" d="M72.8,180.9c-0.2,0-0.4-0.1-0.5-0.2c-0.8-0.7-1.3-1.6-1.7-2.6c-0.2-0.4,0-0.9,0.4-1s0.9,0,1,0.4
			c0,0,0,0.1,0,0.1c0.3,0.7,0.7,1.4,1.3,1.9c0.3,0.3,0.4,0.8,0.1,1.1C73.3,180.8,73,180.9,72.8,180.9z"/>
		<path class="st22" d="M73.7,169.4c-0.2,0-0.4-0.1-0.6-0.2c-0.6-0.7-1.1-1.5-1.3-2.4c-0.1-0.4,0.1-0.8,0.5-1c0.4-0.1,0.8,0.1,1,0.6
			c0.2,0.6,0.5,1.2,0.9,1.7c0.3,0.3,0.3,0.8,0,1.1C74.1,169.3,73.9,169.4,73.7,169.4z"/>
		<path class="st27" d="M61.5,146.9c0,0,1.3,6.8,6.2,6.4c3.3-0.3,4-3.7,4-3.7L61.5,146.9z"/>
		<path class="st27" d="M196.5,146c0.1,3.4-2.2,6.4-5.5,7.1c-3.9,1-5.5-3.3-5.5-3.3L196.5,146z"/>
		<path class="st28" d="M5.9,78.5c-3.6-0.1-9,3-14.4,5.7c-7.4,3.7-14.6,7.4-14.6,7.4s-9.2-0.9-10.2,1.7c-0.6,1.6,5.2,2.7,5.2,2.7
			s-3.4,0.7-2.2,2.7s3.6-0.4,3.6-0.4s-1.2,2.8,1.2,3.7s5.2-4,5.2-4s10.7,1.9,17.2,0.8C6.4,97,11.9,88,11,82.9
			C10.5,80.4,8.4,78.6,5.9,78.5z"/>
		<path class="st29" d="M3.3,83.4c0-0.9,0.7-1.5,1.6-1.5c0,0,0,0,0,0c0.8-0.1,1.6,0.4,1.7,1.3c0.1,0.8-0.4,1.6-1.3,1.7
			c-0.2,0-0.3,0-0.5,0C4.1,85,3.4,84.3,3.3,83.4z"/>
		<path class="st19" d="M-0.9,91c-0.3,0-0.5-0.2-0.6-0.5c-0.1-0.3,0.2-0.6,0.5-0.7c0.4-0.1,0.8-0.3,1.2-0.6C0.4,89,0.7,89,1,89.2
			c0,0,0,0,0,0c0.2,0.2,0.3,0.6,0.1,0.8c0,0,0,0,0,0c-0.5,0.5-1.2,0.9-1.9,1H-0.9z"/>
		<path class="st19" d="M1.9,94.1c-0.3,0-0.5-0.2-0.6-0.4c-0.1-0.3,0.1-0.6,0.4-0.7c0,0,0,0,0,0c0.4-0.1,0.7-0.3,1-0.6
			c0.2-0.2,0.6-0.3,0.8-0.1s0.3,0.6,0.1,0.8c-0.4,0.5-1,0.8-1.6,1C2,94.1,1.9,94.1,1.9,94.1z"/>
		<path d="M102.3,147.4c-0.1,0-0.2-0.1-0.2-0.2c0-0.1,0-0.1,0.1-0.2c0.1-0.1,9.3-6.4,9-16.5C110.6,111.3,93,109,92.8,109
			c-0.1,0-0.2-0.1-0.2-0.2c0-0.1,0.1-0.2,0.2-0.2c0.2,0,18.1,2.4,18.7,21.9C111.9,140.9,102.6,147.3,102.3,147.4
			C102.4,147.4,102.4,147.4,102.3,147.4z"/>
		<path class="st30" d="M121.6,130.8c-5.8,0.6-7.8,1.9-7.8,1.9l-5.5-18.2c0,0,1-0.7,7.4-2.2c3.6,1.6,6.1,5,6.6,8.8
			C123.6,127.8,121.6,130.8,121.6,130.8z"/>
		<path class="st30" d="M135.2,130.8c3,0.3,11.8,2.5,11.8,2.5l5.8-18.2c-2.7-1.2-5.5-2.1-8.5-2.7c-0.7-0.2-1.4-0.3-2.2-0.4
			c-3.8,1.7-6.6,5.2-7.4,9.3C133.5,127.2,135.2,130.8,135.2,130.8z"/>
		<path class="st31" d="M166,109.5c-5.4-1.6-11.3-0.5-15.7,3c-6.3,4.8-16.3,15.7-11.3,25.9c3.9,8.2,19.3,9.6,19.3,9.6l0.1-0.8
			L166,109.5z"/>
		<path class="st32" d="M190.4,130.1c0-11.9-10.1-21.5-22.5-21.5s-22.5,9.6-22.5,21.5s10.1,21.5,22.5,21.5S190.4,142,190.4,130.1z"
			/>
		<path class="st19" d="M187.5,136.8c-0.1,0-0.1,0-0.2,0c-0.3-0.1-0.5-0.4-0.4-0.7c0,0,0,0,0,0c0.1-0.3,0.2-0.6,0.3-0.9
			c0.5-1.6,0.7-3.4,0.7-5.1c0-4.9-2-9.7-5.5-13.1c-0.2-0.2-0.2-0.6,0-0.8c0.2-0.2,0.6-0.2,0.8,0c5.1,5,7.1,12.4,5.1,19.3
			c-0.1,0.3-0.2,0.6-0.3,0.9C187.9,136.6,187.7,136.8,187.5,136.8z"/>
		<path class="st19" d="M157.8,147.7c-0.1,0-0.2,0-0.3-0.1c-2.9-1.6-5.4-3.8-7.3-6.6c-0.2-0.3-0.1-0.6,0.2-0.8s0.6-0.1,0.8,0.2
			c1.8,2.6,4.1,4.7,6.9,6.2c0.3,0.2,0.4,0.5,0.2,0.8C158.2,147.6,158,147.7,157.8,147.7L157.8,147.7z"/>
		<path class="st19" d="M181.1,115.5c-0.1,0-0.3,0-0.4-0.1c-1.1-0.9-2.2-1.6-3.5-2.2c-0.2-0.2-0.2-0.6,0-0.8
			c0.1-0.1,0.3-0.2,0.5-0.2c1.3,0.7,2.5,1.4,3.7,2.3c0.2,0.2,0.3,0.6,0.1,0.8C181.4,115.5,181.2,115.5,181.1,115.5z"/>
		<path class="st33" d="M185.6,130.2c0-9.2-7.9-16.7-17.6-16.7s-17.6,7.5-17.6,16.7s7.9,16.7,17.6,16.7S185.6,139.4,185.6,130.2z"/>
		<path class="st29" d="M168,147.5c-10,0-18.2-7.8-18.2-17.3s8.2-17.3,18.2-17.3s18.2,7.8,18.2,17.3S178,147.5,168,147.5z
			 M168,114.1c-9.4,0-17,7.2-17,16.1s7.6,16.1,17,16.1s17-7.2,17-16.1S177.3,114.1,168,114.1z"/>
		<path class="st34" d="M151.6,146.8c-0.9-0.6-1.7-1.3-2.4-2c-0.7-0.7-1.4-1.5-2-2.4c-1.2-1.7-2.1-3.6-2.7-5.6c-0.6-2-0.9-4-0.9-6.1
			c0-2.1,0.3-4.1,0.7-6.1c0.5-2,1.3-3.9,2.3-5.7c1.1-1.8,2.4-3.4,3.9-4.7c1.5-1.4,3.2-2.5,5-3.5c1.8-0.9,3.7-1.7,5.7-2.1
			c0.2,0,0.4,0.1,0.5,0.3c0,0,0,0,0,0c0,0.2-0.1,0.4-0.3,0.5l0,0c-3.8,1-7.3,2.9-10.3,5.6c-1.4,1.3-2.7,2.9-3.6,4.6
			c-1,1.7-1.7,3.5-2.2,5.4c-0.4,1.9-0.7,3.9-0.6,5.8c0,1.9,0.3,3.9,0.9,5.8c0.6,1.9,1.4,3.6,2.5,5.2c0.6,0.8,1.2,1.5,1.9,2.3
			c0.7,0.7,1.4,1.3,2.1,1.9l0,0c0.3,0.2,0.3,0.5,0.2,0.8c0,0,0,0,0,0C152.1,146.9,151.8,146.9,151.6,146.8z"/>
		<path class="st35" d="M173.2,141.9c2.3-1.5,4.2-3.5,5.4-6c1.2-2.4,1.6-5.1,1.2-7.7c-0.2-1.3-0.6-2.6-1.2-3.8
			c-0.6-1.2-1.4-2.3-2.3-3.3c-1.9-2-4.3-3.4-7-4.1c-0.5-0.2-0.8-0.7-0.7-1.2c0.1-0.5,0.6-0.8,1.1-0.7c3.2,0.4,6.2,1.8,8.6,4
			c2.4,2.2,4,5.2,4.6,8.5c0.6,3.3,0,6.7-1.6,9.6c-1.6,2.8-4.1,5-7.1,6.3c-0.5,0.2-1.1,0-1.3-0.5
			C172.6,142.6,172.8,142.1,173.2,141.9L173.2,141.9z"/>
		<path class="st29" d="M137.1,131.5H137c-0.3,0-0.5-0.3-0.5-0.6c0,0,0,0,0,0c1.7-9.9,9.5-16.4,9.8-16.6c0.2-0.2,0.6-0.2,0.8,0.1
			c0,0,0,0,0,0c0.2,0.2,0.2,0.6-0.1,0.8c0,0,0,0,0,0c-0.1,0.1-7.8,6.4-9.4,15.9C137.6,131.2,137.4,131.4,137.1,131.5z"/>
		<path class="st29" d="M168,147.3c-9.9,0-18-7.7-18-17.1s8.1-17.1,18-17.1s18,7.7,18,17.1S177.9,147.3,168,147.3z M168,113.9
			c-9.5,0-17.2,7.3-17.2,16.3s7.7,16.3,17.2,16.3s17.2-7.3,17.2-16.3S177.4,113.9,168,113.9z"/>
		<path class="st36" d="M167.9,152c-12.6,0-22.9-9.8-22.9-21.9s10.3-21.9,22.9-21.9s22.9,9.8,22.9,21.9S180.5,152,167.9,152z
			 M167.9,108.9c-12.2,0-22.1,9.5-22.1,21.1s9.9,21.1,22.1,21.1s22.1-9.5,22.1-21.2S180.1,108.9,167.9,108.9L167.9,108.9z"/>
		<path class="st31" d="M90.7,109.3c5.4-1.6,11.3-0.5,15.7,3c6.3,4.8,16.3,15.7,11.3,25.9c-3.9,8.2-19.3,9.6-19.3,9.6l-0.2-0.8
			L90.7,109.3z"/>
		<path class="st32" d="M66.3,129.9c0-11.9,10.1-21.5,22.5-21.5s22.5,9.7,22.5,21.5s-10.1,21.5-22.5,21.5S66.3,141.8,66.3,129.9z"/>
		<path class="st19" d="M69.2,136.6c-0.2,0-0.5-0.2-0.6-0.4c-0.1-0.3-0.2-0.6-0.3-0.9c-0.5-1.8-0.8-3.6-0.8-5.4
			c0-5.3,2.1-10.3,5.8-14c0.2-0.2,0.6-0.2,0.8,0c0.2,0.2,0.2,0.6,0,0.8c-4.8,4.7-6.7,11.8-4.8,18.3c0.1,0.3,0.2,0.6,0.3,0.9
			c0.1,0.3-0.1,0.6-0.4,0.7C69.3,136.6,69.2,136.6,69.2,136.6z"/>
		<path class="st19" d="M98.9,147.6c-0.2,0-0.4-0.1-0.5-0.3c-0.2-0.3,0-0.6,0.2-0.8c0,0,0,0,0,0c2.8-1.5,5.1-3.6,6.9-6.2
			c0.2-0.3,0.5-0.3,0.8-0.2c0,0,0,0,0,0c0.3,0.2,0.3,0.5,0.2,0.8c0,0,0,0,0,0c-1.9,2.7-4.4,5-7.3,6.6C99,147.5,99,147.6,98.9,147.6z
			"/>
		<path class="st19" d="M75.6,115.4c-0.2,0-0.3-0.1-0.5-0.2c-0.2-0.3-0.2-0.6,0.1-0.8c1.1-0.9,2.4-1.7,3.7-2.3
			c0.3-0.1,0.6,0.2,0.7,0.5c0,0.2,0,0.4-0.2,0.5c-1.2,0.6-2.4,1.4-3.5,2.2C75.8,115.3,75.7,115.4,75.6,115.4z"/>
		<path class="st33" d="M71.1,130c0-9.2,7.9-16.7,17.6-16.7s17.6,7.5,17.6,16.7s-7.9,16.7-17.6,16.7S71.1,139.3,71.1,130z"/>
		<path class="st29" d="M88.7,147.3c-10,0-18.2-7.8-18.2-17.3s8.2-17.3,18.2-17.3s18.2,7.8,18.2,17.3S98.7,147.3,88.7,147.3z
			 M88.7,113.9c-9.4,0-17,7.2-17,16.1s7.6,16.1,17,16.1s17-7.2,17-16.1S98.1,113.9,88.7,113.9z"/>
		<path class="st34" d="M104.3,145.7c0.8-0.6,1.5-1.2,2.2-1.9c0.7-0.7,1.3-1.5,1.9-2.3c2.3-3.2,3.5-7.1,3.4-11c0-2-0.3-3.9-0.7-5.9
			c-0.4-1.9-1.1-3.8-2-5.5c-0.9-1.7-2.1-3.3-3.5-4.7c-1.4-1.4-3.1-2.5-4.8-3.4c-1.7-0.9-3.6-1.5-5.6-1.9l0,0c-0.2,0-0.4-0.2-0.3-0.4
			c0,0,0,0,0,0c0-0.2,0.2-0.4,0.4-0.3c0,0,0,0,0,0c6.2,0.9,11.7,4.7,14.7,10.2c1,1.8,1.7,3.7,2.2,5.8c0.5,2,0.7,4,0.8,6.1
			c0.1,2.1-0.2,4.2-0.8,6.1c-0.6,2-1.5,3.9-2.8,5.6c-0.6,0.8-1.3,1.6-2,2.4c-0.7,0.8-1.5,1.4-2.4,2.1c-0.3,0.2-0.6,0.1-0.8-0.1
			c0,0,0,0,0,0C104.1,146.2,104.1,145.9,104.3,145.7C104.4,145.7,104.4,145.7,104.3,145.7L104.3,145.7z"/>
		<path class="st35" d="M82.6,143.5c-3-1.3-5.5-3.5-7.1-6.3c-1.6-2.9-2.2-6.3-1.7-9.6c0.6-3.3,2.2-6.2,4.6-8.5
			c2.4-2.2,5.4-3.6,8.6-4c0.6,0,1,0.5,1,1c0,0.4-0.2,0.7-0.6,0.9l0,0c-2.7,0.7-5.1,2.1-7,4.1c-0.9,1-1.7,2-2.4,3.2
			c-0.6,1.2-1,2.4-1.2,3.7c-0.4,2.6,0,5.3,1.2,7.7c1.2,2.4,3.1,4.5,5.4,5.9c0.4,0.4,0.5,1,0.1,1.4C83.3,143.4,82.9,143.6,82.6,143.5
			L82.6,143.5z"/>
		<path class="st29" d="M119.5,131.3c-0.3,0-0.5-0.2-0.6-0.5c-1.6-9.5-9.3-15.9-9.4-15.9c-0.2-0.2-0.3-0.6-0.1-0.8
			c0.2-0.2,0.6-0.3,0.8-0.1c0.3,0.3,8.1,6.7,9.8,16.6c0.1,0.3-0.1,0.6-0.5,0.7c0,0,0,0,0,0L119.5,131.3z"/>
		<path class="st29" d="M88.7,147.1c-9.9,0-18-7.7-18-17.1s8.1-17,18-17s18,7.7,18,17.1S98.6,147.1,88.7,147.1z M88.7,113.7
			c-9.5,0-17.2,7.3-17.2,16.3s7.7,16.3,17.2,16.3s17.2-7.3,17.2-16.3S98.2,113.7,88.7,113.7z"/>
		<path class="st36" d="M88.8,151.8c-12.6,0-22.9-9.8-22.9-21.9S76.2,108,88.8,108s22.9,9.8,22.9,21.9S101.4,151.8,88.8,151.8z
			 M88.8,108.8c-12.2,0-22.2,9.5-22.2,21.1S76.6,151,88.8,151s22.2-9.5,22.2-21.1S101,108.8,88.8,108.8z"/>
		<path class="st37" d="M124.4,140.7c0,0.4-0.7,0.8-1.4,0.7s-1.3-0.5-1.3-1s0.7-0.8,1.4-0.7S124.4,140.2,124.4,140.7z"/>
		<path class="st38" d="M132.4,168.5c-5.6,0-12.5-3.3-14.6-7.2c-1.1-1.8-0.9-4,0.5-5.5c1.7-2,3.9-1.8,6.6-1.5
			c2.1,0.3,4.3,0.3,6.4,0.1c1.9-0.4,3.7-1,5.4-1.8c2.2-1,4.1-1.8,6-1.2c2.9,0.8,4.8,3.6,4.4,6.5c-0.4,4.5-5.1,9.6-13.2,10.6
			C133.4,168.4,132.9,168.5,132.4,168.5z M122.2,154.7c-1.3-0.1-2.6,0.4-3.4,1.4c-1.2,1.3-1.4,3.3-0.4,4.8c2.2,4.1,9.9,7.4,15.5,6.8
			c7.8-0.9,12.2-5.7,12.6-10c0.4-2.7-1.3-5.2-3.9-5.8c-1.7-0.5-3.4,0.3-5.5,1.2c-1.8,0.9-3.6,1.5-5.6,1.9c-2.2,0.3-4.4,0.3-6.6-0.1
			C123.9,154.8,123.1,154.7,122.2,154.7z"/>
		<path class="st39" d="M66.3,131.8c0.1-1.8,0.5-3.5,1.2-5.2c0.7-1.6,2-2.8,2.1-4.3c0.1-0.8-0.4-1.6-1.2-1.7l1.1-2
			c0.6-0.9,0.4-2.1-0.5-2.7c-0.7-0.6-5.5-1.2-9.3,4.4c-1.4,2.2-2.3,4.7-2.5,7.3c0,0-3.9,17.6,8.4,22.3c6.2,2.4,9.3-1.8,5.7-6.4
			S66.3,131.8,66.3,131.8z"/>
		<path class="st40" d="M61,123.7c-0.1,0-0.2,0-0.3-0.1c-0.3-0.2-0.4-0.5-0.2-0.8c0,0,0,0,0,0c3.6-6.6,8.7-7.1,8.9-7.1
			c0.3,0,0.6,0.2,0.6,0.5c0,0.3-0.2,0.6-0.5,0.6c-0.2,0-4.6,0.5-8,6.5C61.4,123.5,61.2,123.6,61,123.7z"/>
		<path class="st40" d="M62.9,127.9c-0.1,0-0.2,0-0.2-0.1c-0.3-0.1-0.4-0.5-0.3-0.8c0,0,0,0,0,0c2.4-5.4,5.7-7,5.8-7.1
			c0.3-0.1,0.6,0.1,0.7,0.4c0,0.2,0,0.4-0.2,0.6c-0.1,0-3,1.5-5.3,6.5C63.3,127.7,63.1,127.9,62.9,127.9z"/>
		<path class="st40" d="M132,192.5c-0.1,0-0.2,0-0.3-0.1c-0.5-0.6-1-1.1-1.6-1.6c-1.5-1.3-3.1-2.5-4.8-3.6c-0.1-0.1-0.2-0.2-0.2-0.4
			c0.1-0.5,0.2-1,0.3-1.6c0-0.4,0-0.9,0-1.3c0-0.2,0.1-0.4,0.3-0.4c0,0,0,0,0,0c0.2,0,0.4,0.1,0.4,0.3c0,0.5,0,1,0,1.5
			c0,0.5-0.1,1-0.2,1.4c1.7,1,3.2,2.2,4.7,3.5c0.5,0.4,0.9,0.9,1.4,1.4c1-1.1,2-2.1,3.2-3c0.9-0.7,2-1.2,3.2-1.4
			c-0.1-0.6-0.1-1.3-0.1-1.9c0-0.6,0.2-1.2,0.4-1.8c0.1-0.2,0.3-0.3,0.5-0.2c0.2,0,0.3,0.2,0.3,0.4c0,0,0,0,0,0
			c-0.2,0.5-0.3,1-0.3,1.6c0,0.7,0,1.4,0.1,2.1c0,0.1,0,0.2-0.1,0.3c-0.1,0.1-0.2,0.1-0.3,0.1c-1.1,0.2-2.2,0.6-3.2,1.3
			c-1.2,0.9-2.4,2-3.4,3.2C132.2,192.4,132.1,192.5,132,192.5z"/>
		<path class="st41" d="M131.5,200.2c-4,0-11.6-3.1-14.3-8.4c-0.1-0.2,0-0.4,0.2-0.5c0.2-0.1,0.4,0,0.5,0.2c0,0,0,0,0,0
			c2.9,5.7,12.1,8.9,15,7.8h0.1c2-0.1,12.2-0.9,13.9-8.2c0-0.2,0.3-0.3,0.5-0.3c0,0,0,0,0,0c0.2,0,0.3,0.3,0.3,0.5c0,0,0,0,0,0
			c-1.8,7.6-11.5,8.6-14.5,8.8C132.6,200.1,132.1,200.2,131.5,200.2z"/>
		<path class="st24" d="M159.9,215.1h-0.2c-3,0-5.8-1.5-7.6-4c-0.2-0.3-0.1-0.6,0.1-0.8c0,0,0,0,0,0c0.3-0.2,0.6-0.1,0.8,0.1
			c1.5,2.2,4,3.4,6.6,3.5c0.4,0,0.9,0,1.3-0.1c0.3,0,0.6,0.2,0.6,0.5c0,0,0,0,0,0c0,0.3-0.2,0.6-0.5,0.6c0,0,0,0,0,0
			C160.7,215.1,160.3,215.1,159.9,215.1z"/>
		<path class="st24" d="M104.7,214.7c-0.3,0-0.6-0.2-0.6-0.6c0-0.3,0.2-0.6,0.6-0.6c3.5-0.1,6.8-1.7,9-4.4c0.2-0.3,0.6-0.3,0.8-0.1
			c0.3,0.2,0.3,0.6,0.1,0.8c0,0,0,0,0,0C112.2,212.9,108.5,214.6,104.7,214.7L104.7,214.7z"/>
		<path class="st39" d="M190,132.3c0.1-1.8-0.1-3.7-0.7-5.4c-0.7-1.6-2-2.8-2.1-4.3c-0.1-0.8,0.4-1.6,1.2-1.7l-1.1-2
			c-0.6-0.9-0.4-2.1,0.5-2.7c0.6-0.6,5.5-1.2,9.3,4.4c1.4,2.2,2.3,4.7,2.5,7.3c0,0,3.9,17.6-8.4,22.3c-6.2,2.4-9.3-1.8-5.7-6.3
			S190,132.3,190,132.3z"/>
		<path class="st40" d="M195.7,123.9c-0.2,0-0.4-0.1-0.5-0.3c-3.3-6.1-7.2-6.5-7.2-6.5c-0.3,0-0.6-0.3-0.5-0.6
			c0-0.3,0.3-0.6,0.6-0.5c0,0,0,0,0,0c0.2,0,4.5,0.5,8.1,7.1c0.2,0.3,0,0.6-0.2,0.8C195.9,123.9,195.8,123.9,195.7,123.9z"/>
		<path class="st40" d="M193.9,128.1c-0.2,0-0.4-0.1-0.5-0.3c-2.3-5-5.2-6.5-5.3-6.5c-0.3-0.1-0.4-0.5-0.3-0.8c0,0,0,0,0,0
			c0.1-0.3,0.5-0.4,0.8-0.3c0.1,0.1,3.4,1.7,5.8,7.1c0.1,0.3,0,0.6-0.3,0.8C194.1,128.1,194,128.1,193.9,128.1z"/>
	</g>
</g>
<circle class="st42" cx="128" cy="128" r="121.7"/>
</svg>
