<svg id="Layer_1" data-name="Layer 1" xmlns="http://www.w3.org/2000/svg" viewBox="0 0 1156.67 169.53"><defs><style>.cls-1{fill:#3172c2;}.cls-2{fill:none;stroke:#fff;stroke-miterlimit:10;stroke-width:2px;}.cls-3{fill:#fcf8f5;}</style></defs><rect class="cls-1" x="330.27" y="47.83" width="505.57" height="78.15" rx="39.07"/><rect class="cls-2" x="330.27" y="47.83" width="505.57" height="78.15" rx="39.07"/><path class="cls-3" d="M413.16,101.69V59.19h9.68V94.51h18.57v7.18Z"/><path class="cls-3" d="M458.64,67.54a3.37,3.37,0,0,1-1.4,2.72,5.64,5.64,0,0,1-6.76,0A3.67,3.67,0,0,1,449,67.44a3.32,3.32,0,0,1,1.34-2.79,5.4,5.4,0,0,1,3.53-1.14,5.58,5.58,0,0,1,1.8.31,4.7,4.7,0,0,1,1.52.86,4.35,4.35,0,0,1,1,1.29A3.35,3.35,0,0,1,458.64,67.54Zm-9.13,34.15V74.9h8.1v26.79Z"/><path class="cls-3" d="M493.71,86.36a18,18,0,0,1-1,6.3,13.18,13.18,0,0,1-7.71,7.93,16.3,16.3,0,0,1-6.11,1.1,31.49,31.49,0,0,1-6.08-.63A28.74,28.74,0,0,1,467,99.33V59.93h8.1V78a9.6,9.6,0,0,1,3.47-2.34A12,12,0,0,1,483,74.9a11.4,11.4,0,0,1,4.36.81A9.38,9.38,0,0,1,490.78,78a10.73,10.73,0,0,1,2.16,3.62A13.78,13.78,0,0,1,493.71,86.36Zm-8.1,1.47a5.3,5.3,0,0,0-1.22-3.72A4.39,4.39,0,0,0,481,82.75a5.84,5.84,0,0,0-2.46.5,5.72,5.72,0,0,0-3,3.31,6.83,6.83,0,0,0-.39,2.31V93.5a7.46,7.46,0,0,0,1.92.72,11.84,11.84,0,0,0,2.21.16,6.29,6.29,0,0,0,4.7-1.73A6.58,6.58,0,0,0,485.61,87.83Z"/><path class="cls-3" d="M519.65,82.39c-.57-.12-1-.2-1.34-.24a8.85,8.85,0,0,0-1.1-.07A6.19,6.19,0,0,0,512,84.46q-1.8,2.39-1.8,7.08v10.15h-8.1V84.11c0-1,0-1.86,0-2.6s-.07-1.42-.15-2.06a16.63,16.63,0,0,0-.34-1.87c-.14-.62-.33-1.32-.57-2.12h7.68c.13.5.24.93.35,1.28a7.3,7.3,0,0,1,.22,1c0,.31.08.65.12,1A9.46,9.46,0,0,1,509.4,80a13.65,13.65,0,0,1,3.46-4,6.67,6.67,0,0,1,3.87-1.16,5.37,5.37,0,0,1,1.43.16,13.34,13.34,0,0,1,1.61.59Z"/><path class="cls-3" d="M542.11,101.69c0-.28,0-.63-.06-1S542,100,542,99.5s-.05-.92-.09-1.4a9.59,9.59,0,0,1-4,3.13,12.82,12.82,0,0,1-5.19,1.07A9.65,9.65,0,0,1,524.92,99q-2.77-3.29-2.77-9.38,0-7.36,4.47-11.35c3-2.66,7.23-4,12.75-4,.9,0,1.73,0,2.47.06s1.48.11,2.22.21,1.5.24,2.29.4,1.64.39,2.59.67V92.92c0,.94,0,1.92.06,3s.1,2,.18,2.83c.08,1,.16,2,.24,3Zm-1.27-19.85a12.57,12.57,0,0,0-1.92-.3c-.58,0-1.12-.06-1.61-.06a6.51,6.51,0,0,0-5.21,2.16,8.89,8.89,0,0,0-1.86,6,6,6,0,0,0,1.12,3.9,3.89,3.89,0,0,0,3.16,1.34,5.56,5.56,0,0,0,2.45-.55,6.11,6.11,0,0,0,2-1.55,7.46,7.46,0,0,0,1.36-2.37,9,9,0,0,0,.5-3.08Z"/><path class="cls-3" d="M576.22,82.39c-.57-.12-1-.2-1.34-.24a9,9,0,0,0-1.1-.07,6.22,6.22,0,0,0-5.27,2.38q-1.78,2.39-1.79,7.08v10.15h-8.1V84.11c0-1,0-1.86,0-2.6s-.07-1.42-.15-2.06-.2-1.26-.34-1.87-.33-1.32-.58-2.12h7.69c.12.5.24.93.35,1.28a9.16,9.16,0,0,1,.22,1c0,.31.08.65.12,1A11.7,11.7,0,0,1,566,80a13.81,13.81,0,0,1,3.47-4,6.62,6.62,0,0,1,3.86-1.16,5.27,5.27,0,0,1,1.43.16,12.78,12.78,0,0,1,1.62.59Z"/><path class="cls-3" d="M605.32,110.45a13.42,13.42,0,0,1-2.66,5.6A9.6,9.6,0,0,1,598,119a23.73,23.73,0,0,1-6.73.84,20,20,0,0,1-3.92-.39,42.17,42.17,0,0,1-4.1-1.06V112.3c1.35.1,2.62.19,3.82.25s2.39.1,3.57.1a8.7,8.7,0,0,0,3.27-.56,5,5,0,0,0,2.26-1.84,8.8,8.8,0,0,0,1.28-3.39,27.9,27.9,0,0,0,.4-5.17V98.4a10.46,10.46,0,0,1-7.61,3.29,8.94,8.94,0,0,1-3.5-.71,8.14,8.14,0,0,1-2.89-2.06,10.11,10.11,0,0,1-1.95-3.21,11.6,11.6,0,0,1-.73-4.26q0-2.15.06-4.11t.06-3.93c0-1.31,0-2.66,0-4s-.09-2.88-.21-4.47h8.09c.13,1.61.2,3.11.22,4.49s0,2.68,0,3.9,0,2.39-.06,3.51,0,2.23,0,3.34a5,5,0,0,0,.9,3.33,3.24,3.24,0,0,0,2.58,1,4.89,4.89,0,0,0,3.73-1.69,6.38,6.38,0,0,0,1.55-4.52V74.9h8.1v26.79A37.8,37.8,0,0,1,605.32,110.45Z"/><path class="cls-3" d="M658.53,101.69,645,84.69v17h-9.68V59.19h13.15q10,0,14.51,3.13a10.42,10.42,0,0,1,4.48,9.13,10.24,10.24,0,0,1-.92,4.41,9.66,9.66,0,0,1-2.64,3.4,12.33,12.33,0,0,1-4.18,2.21,19.16,19.16,0,0,1-5.53.85l16,19.37ZM657,71.92a4.65,4.65,0,0,0-2.1-4.14q-2.1-1.41-6.74-1.41h-1.36a15.07,15.07,0,0,0-1.79.13V77l1.48.12,1.18.09.8,0a11.62,11.62,0,0,0,6.24-1.43A4.4,4.4,0,0,0,657,71.92Z"/><path class="cls-3" d="M691.78,101a12.61,12.61,0,0,1-.52-1.4c-.1-.37-.21-.89-.33-1.58a12,12,0,0,1-8.59,3.71,8.91,8.91,0,0,1-3.62-.74,9.13,9.13,0,0,1-2.92-2,8.82,8.82,0,0,1-1.92-3.14,11.74,11.74,0,0,1-.67-4.09q0-2.49.12-4.62c.08-1.42.14-2.79.18-4.09s0-2.61,0-3.91-.14-2.69-.3-4.15h8.1c.12,1.33.19,2.61.21,3.85s0,2.45,0,3.66-.06,2.45-.12,3.7-.09,2.58-.09,4a6.53,6.53,0,0,0,.38,2.5,2.94,2.94,0,0,0,1,1.32,3,3,0,0,0,1.24.5,7.81,7.81,0,0,0,1.08.09,6.16,6.16,0,0,0,1.3-.24,4.38,4.38,0,0,0,1.84-1.11,7.43,7.43,0,0,0,1.61-2.59,12.2,12.2,0,0,0,.7-4.58V74.9h8.1V92.61a29.53,29.53,0,0,0,.37,4.62,14.72,14.72,0,0,0,1,3.73Z"/><path class="cls-3" d="M708.59,101.69V59.25h8.09v42.44Z"/><path class="cls-3" d="M749.38,82.27A6.88,6.88,0,0,1,748.3,86a9,9,0,0,1-3.06,2.89,16.57,16.57,0,0,1-4.74,1.86,26.33,26.33,0,0,1-6.21.67l-.73,0c-.28,0-.6,0-1,0A5.67,5.67,0,0,0,734.4,95a5.75,5.75,0,0,0,3.94,1.31,18,18,0,0,0,9-2.74V100a17.39,17.39,0,0,1-4.41,1.91,18.36,18.36,0,0,1-4.78.58,15.69,15.69,0,0,1-5.51-.91,11.2,11.2,0,0,1-4.18-2.65,11.82,11.82,0,0,1-2.61-4.14,15.23,15.23,0,0,1-.92-5.45A17,17,0,0,1,726,83.21a14.17,14.17,0,0,1,3-4.78,13.12,13.12,0,0,1,4.6-3.1,15.23,15.23,0,0,1,5.9-1.1,11.15,11.15,0,0,1,7.22,2.19A7.13,7.13,0,0,1,749.38,82.27Zm-8.1.61a2.15,2.15,0,0,0-.83-1.68,3.21,3.21,0,0,0-2.11-.7,4.83,4.83,0,0,0-3.47,1.43A6.86,6.86,0,0,0,733,85.86a5.16,5.16,0,0,0,1,.12h.9Q741.28,86,741.28,82.88Z"/><path class="cls-3" d="M775.32,94.26a7.67,7.67,0,0,1-2.58,6.09q-2.58,2.25-7.26,2.25a30.75,30.75,0,0,1-6.17-.6,18.41,18.41,0,0,1-4.88-1.65l1-6.21a20.71,20.71,0,0,0,9.25,2.74,2.61,2.61,0,0,0,1.92-.58,1.78,1.78,0,0,0,.58-1.31,2.31,2.31,0,0,0-.46-1.49,7,7,0,0,0-2.22-1.43,36.86,36.86,0,0,1-4.29-2.19,13.8,13.8,0,0,1-2.92-2.29,7.67,7.67,0,0,1-1.65-2.52,8.51,8.51,0,0,1-.52-3,6.87,6.87,0,0,1,3-5.93A12.93,12.93,0,0,1,765.8,74a23.9,23.9,0,0,1,4.53.39,21.13,21.13,0,0,1,4.55,1.55l-1,6.15a14.39,14.39,0,0,0-4.19-1.67,19,19,0,0,0-4-.46,2.75,2.75,0,0,0-1.93.52,1.85,1.85,0,0,0-.53,1.37,2,2,0,0,0,.84,1.67,17.14,17.14,0,0,0,3.24,1.68,37.53,37.53,0,0,1,3.7,2.1,13.4,13.4,0,0,1,2.49,2.07,6.72,6.72,0,0,1,1.38,2.25A8.23,8.23,0,0,1,775.32,94.26Z"/></svg>