<svg id="Layer_1" data-name="Layer 1" xmlns="http://www.w3.org/2000/svg" viewBox="0 0 1156.67 169.53"><defs><style>.cls-1{fill:#3172c2;stroke:#fff;stroke-miterlimit:10;stroke-width:2px;}.cls-2{fill:#fff;}</style></defs><rect class="cls-1" x="194" y="44.58" width="731.11" height="78.15" rx="39.07"/><path class="cls-2" d="M249.73,88.7a9.31,9.31,0,0,1-.61,3.44,7.17,7.17,0,0,1-1.88,2.72A8.89,8.89,0,0,1,244,96.68a16,16,0,0,1-4.87.72,21.23,21.23,0,0,1-2.54-.16,22.68,22.68,0,0,1-2.86-.54,23.51,23.51,0,0,1-3-1A16.91,16.91,0,0,1,228,94.37l1.71-5.43a23,23,0,0,0,5.42,2.55,13.72,13.72,0,0,0,3.94.6,4.11,4.11,0,0,0,2.57-.82,2.51,2.51,0,0,0,.9-2.12,3.09,3.09,0,0,0-.81-2,9.49,9.49,0,0,0-2.66-1.86,49.47,49.47,0,0,1-4.52-2.7,17,17,0,0,1-3-2.57,9.12,9.12,0,0,1-1.71-2.64,8.32,8.32,0,0,1-.58-2.9,7.31,7.31,0,0,1,2.67-6.2q2.76-2.22,7.83-2.31c1,0,1.81,0,2.58.07a12.64,12.64,0,0,1,2.29.33,15.35,15.35,0,0,1,2.34.74q1.2.48,2.67,1.23l-1.26,5.33c-.78-.44-1.5-.8-2.16-1.09a16.3,16.3,0,0,0-1.89-.69,11.6,11.6,0,0,0-1.78-.39,12.25,12.25,0,0,0-1.86-.13,5.54,5.54,0,0,0-3.18.79,2.6,2.6,0,0,0-1.1,2.39,2.85,2.85,0,0,0,1.08,2,19.71,19.71,0,0,0,3.41,2.22q2.32,1.31,4,2.41a16.19,16.19,0,0,1,2.76,2.24,7.47,7.47,0,0,1,1.57,2.4A7.66,7.66,0,0,1,249.73,88.7Z"/><path class="cls-2" d="M267.82,97.4V86.21a5.89,5.89,0,0,0-.21-1.74,2.25,2.25,0,0,0-.57-1,1.81,1.81,0,0,0-.83-.46,4.21,4.21,0,0,0-1-.11,2.72,2.72,0,0,0-1.5.46,4.49,4.49,0,0,0-1.26,1.24,6.3,6.3,0,0,0-.89,1.84,7.18,7.18,0,0,0-.35,2.23V97.4h-6V66.58h5.94V79.85a6.78,6.78,0,0,1,2.48-1.73,8.38,8.38,0,0,1,3-.52,9.75,9.75,0,0,1,2.59.35,6.7,6.7,0,0,1,2.27,1.12,5.6,5.6,0,0,1,1.61,2,6.92,6.92,0,0,1,.63,3.11V97.4Z"/><path class="cls-2" d="M294.91,97.4c0-.21,0-.46-.05-.76s-.06-.53-.07-.86,0-.67-.07-1a7,7,0,0,1-2.93,2.31,9.43,9.43,0,0,1-3.84.79,7.12,7.12,0,0,1-5.75-2.43q-2.06-2.43-2.05-6.93,0-5.44,3.31-8.39t9.42-2.95c.67,0,1.28,0,1.82,0s1.1.08,1.65.16,1.11.17,1.68.29,1.22.28,1.92.49V90.92c0,.69,0,1.42,0,2.19s.08,1.46.14,2.09.12,1.48.18,2.2Zm-1-14.67a9,9,0,0,0-1.41-.22c-.43,0-.83-.05-1.19-.05a4.78,4.78,0,0,0-3.85,1.6,6.55,6.55,0,0,0-1.38,4.43,4.4,4.4,0,0,0,.83,2.88,2.87,2.87,0,0,0,2.33,1,4.1,4.1,0,0,0,1.81-.4,4.6,4.6,0,0,0,1.49-1.15,5.63,5.63,0,0,0,1-1.76,6.72,6.72,0,0,0,.36-2.27Z"/><path class="cls-2" d="M320.11,83.14q-.63-.14-1-.18a6.51,6.51,0,0,0-.81,0,4.57,4.57,0,0,0-3.89,1.76,8.56,8.56,0,0,0-1.33,5.23v7.5h-6v-13c0-.74,0-1.38,0-1.92A14.09,14.09,0,0,0,307,81a13.05,13.05,0,0,0-.25-1.39c-.1-.45-.25-1-.43-1.56H312c.09.37.17.68.25.94a4.72,4.72,0,0,1,.16.74c0,.23.07.48.1.74a8.65,8.65,0,0,1,0,1,10.14,10.14,0,0,1,2.56-2.93A4.93,4.93,0,0,1,318,77.6a4,4,0,0,1,1.06.12,8.6,8.6,0,0,1,1.19.44Z"/><path class="cls-2" d="M340,83.05a5,5,0,0,1-.8,2.79A6.6,6.6,0,0,1,337,88a12.36,12.36,0,0,1-3.51,1.38,19.49,19.49,0,0,1-4.58.49c-.16,0-.34,0-.55,0s-.44,0-.73,0A4.15,4.15,0,0,0,329,92.47a4.29,4.29,0,0,0,2.92,1,13.28,13.28,0,0,0,6.62-2v4.72a12.72,12.72,0,0,1-3.26,1.42,13.82,13.82,0,0,1-3.53.43,11.62,11.62,0,0,1-4.07-.68,8.32,8.32,0,0,1-3.09-2,8.76,8.76,0,0,1-1.93-3.07,11.22,11.22,0,0,1-.68-4,12.67,12.67,0,0,1,.79-4.53A10.57,10.57,0,0,1,325,80.21a9.64,9.64,0,0,1,3.39-2.29,11.45,11.45,0,0,1,4.37-.81A8.21,8.21,0,0,1,338,78.73,5.26,5.26,0,0,1,340,83.05Zm-6,.45a1.59,1.59,0,0,0-.62-1.24,2.36,2.36,0,0,0-1.55-.52,3.59,3.59,0,0,0-2.57,1.06,5,5,0,0,0-1.38,2.9,3.78,3.78,0,0,0,.72.09h.66Q334.06,85.79,334.06,83.5Z"/><path class="cls-2" d="M378.83,86.07a13.28,13.28,0,0,1-.78,4.66,9.77,9.77,0,0,1-5.69,5.86,12.09,12.09,0,0,1-4.52.81,22.48,22.48,0,0,1-4.49-.47,20.84,20.84,0,0,1-4.23-1.27V66.54h6V79.91a7,7,0,0,1,2.56-1.73,8.77,8.77,0,0,1,3.27-.58,8.43,8.43,0,0,1,3.22.6,6.88,6.88,0,0,1,2.5,1.71,7.76,7.76,0,0,1,1.6,2.67A10.14,10.14,0,0,1,378.83,86.07Zm-6,1.08a3.89,3.89,0,0,0-.91-2.74,3.23,3.23,0,0,0-2.54-1,4.11,4.11,0,0,0-3.19,1.36,4.26,4.26,0,0,0-.86,1.45,5.12,5.12,0,0,0-.29,1.71v3.42a5.61,5.61,0,0,0,1.42.53,9,9,0,0,0,1.64.12,4.67,4.67,0,0,0,3.47-1.28A4.88,4.88,0,0,0,372.85,87.15Z"/><path class="cls-2" d="M404.12,87.44a11.25,11.25,0,0,1-.74,4.26,8.51,8.51,0,0,1-2.1,3.12A9.21,9.21,0,0,1,398,96.75a14.12,14.12,0,0,1-8.47,0,9.21,9.21,0,0,1-3.27-1.93,8.83,8.83,0,0,1-2.13-3.12,11.05,11.05,0,0,1-.76-4.26,10.87,10.87,0,0,1,.74-4.16,8.65,8.65,0,0,1,2.08-3.09,8.9,8.9,0,0,1,3.27-1.93,14.35,14.35,0,0,1,8.54,0,9,9,0,0,1,3.27,1.88,8.35,8.35,0,0,1,2.1,3.1A11.15,11.15,0,0,1,404.12,87.44Zm-6,0a4.16,4.16,0,0,0-4.46-4.53,4.15,4.15,0,0,0-3.2,1.2,4.64,4.64,0,0,0-1.12,3.33,5,5,0,0,0,1.09,3.44,4.13,4.13,0,0,0,3.23,1.21A4.39,4.39,0,0,0,397,90.9,4.77,4.77,0,0,0,398.14,87.44Z"/><path class="cls-2" d="M429.55,87.44a11.45,11.45,0,0,1-.74,4.26,8.54,8.54,0,0,1-2.11,3.12,9.21,9.21,0,0,1-3.27,1.93,14.12,14.12,0,0,1-8.47,0,9.21,9.21,0,0,1-3.27-1.93,8.83,8.83,0,0,1-2.13-3.12,11.24,11.24,0,0,1-.76-4.26,11.06,11.06,0,0,1,.74-4.16,8.57,8.57,0,0,1,5.36-5,14.32,14.32,0,0,1,8.53,0,9,9,0,0,1,3.27,1.88,8.38,8.38,0,0,1,2.11,3.1A11.35,11.35,0,0,1,429.55,87.44Zm-6,0a4.47,4.47,0,0,0-1.2-3.33,4.42,4.42,0,0,0-3.25-1.2,4.16,4.16,0,0,0-3.21,1.2,4.68,4.68,0,0,0-1.11,3.33,5,5,0,0,0,1.09,3.44,4.11,4.11,0,0,0,3.23,1.21,4.35,4.35,0,0,0,3.29-1.19A4.73,4.73,0,0,0,423.56,87.44Z"/><path class="cls-2" d="M447.14,85.7l9.59,11.7h-7.92l-7.47-9.76V97.4h-6V66h6V84.13l7.29-6.53h8.59Z"/><path class="cls-2" d="M476.12,91.91a5.67,5.67,0,0,1-1.9,4.5,7.9,7.9,0,0,1-5.37,1.67,22.46,22.46,0,0,1-4.56-.45,13.38,13.38,0,0,1-3.6-1.22l.76-4.59a15.37,15.37,0,0,0,6.84,2,2,2,0,0,0,1.42-.43,1.37,1.37,0,0,0,.43-1,1.74,1.74,0,0,0-.34-1.1,5.09,5.09,0,0,0-1.64-1.06A27.43,27.43,0,0,1,465,88.67,10.6,10.6,0,0,1,462.82,87a5.61,5.61,0,0,1-1.21-1.86,6.1,6.1,0,0,1-.38-2.25,5.07,5.07,0,0,1,2.17-4.39,9.62,9.62,0,0,1,5.69-1.55,17.87,17.87,0,0,1,3.35.29,15.77,15.77,0,0,1,3.36,1.15l-.72,4.54A10.82,10.82,0,0,0,472,81.67a14.2,14.2,0,0,0-3-.33,2,2,0,0,0-1.43.38,1.34,1.34,0,0,0-.39,1,1.5,1.5,0,0,0,.62,1.24,12.29,12.29,0,0,0,2.4,1.24A26.55,26.55,0,0,1,473,86.76a9.76,9.76,0,0,1,1.84,1.53,4.73,4.73,0,0,1,1,1.66A6.06,6.06,0,0,1,476.12,91.91Z"/><path class="cls-2" d="M520.9,95.2a3.47,3.47,0,0,1-1.2,1.7,3.62,3.62,0,0,1-2,.5,3.34,3.34,0,0,1-2.07-.55A3.82,3.82,0,0,1,514.42,95l-3.83-11.67-4,11.9a2.94,2.94,0,0,1-1.15,1.65,4,4,0,0,1-2.14.5,7.07,7.07,0,0,1-.94-.06,2.65,2.65,0,0,1-.86-.29,2.35,2.35,0,0,1-.76-.7,4.69,4.69,0,0,1-.63-1.27l-6.3-17.48h6.07l2.61,8c.09.29.19.64.29,1s.22.79.34,1.17.26.91.41,1.4a8.24,8.24,0,0,1,.27-1.09c.09-.33.18-.67.29-1l.29-1,2.52-8.43h7.29l2.7,8.83a7.13,7.13,0,0,0,.25.85c.1.31.2.61.29.9a5.56,5.56,0,0,1,.27,1c.09-.29.18-.6.27-.92.15-.58.32-1.14.5-1.67l2.65-9h6.3Z"/><path class="cls-2" d="M539,72.17a2.49,2.49,0,0,1-1,2,3.83,3.83,0,0,1-2.47.82,3.87,3.87,0,0,1-2.52-.84,2.64,2.64,0,0,1-1.08-2.06,2.41,2.41,0,0,1,1-2.06,4,4,0,0,1,2.61-.84,3.75,3.75,0,0,1,1.32.23,3.45,3.45,0,0,1,1.13.63,3.07,3.07,0,0,1,.76,1A2.43,2.43,0,0,1,539,72.17ZM532.24,97.4V77.6h6V97.4Z"/><path class="cls-2" d="M546.5,97.4V81.88h-4V77.6h4v-5h5.89v5h5.09v4.28h-5.09V97.4Z"/><path class="cls-2" d="M573.68,97.4V86.21a5.89,5.89,0,0,0-.21-1.74,2.35,2.35,0,0,0-.57-1,1.81,1.81,0,0,0-.83-.46,4.35,4.35,0,0,0-1-.11,2.7,2.7,0,0,0-1.5.46,4.49,4.49,0,0,0-1.26,1.24,6.57,6.57,0,0,0-.9,1.84,7.17,7.17,0,0,0-.34,2.23V97.4h-6V66.58h6V79.85a6.7,6.7,0,0,1,2.48-1.73,8.38,8.38,0,0,1,3-.52,9.8,9.8,0,0,1,2.59.35,6.65,6.65,0,0,1,2.26,1.12,5.52,5.52,0,0,1,1.62,2,6.92,6.92,0,0,1,.62,3.11V97.4Z"/><path class="cls-2" d="M620.57,87.44a11.45,11.45,0,0,1-.74,4.26,8.54,8.54,0,0,1-2.11,3.12,9.21,9.21,0,0,1-3.27,1.93,14.12,14.12,0,0,1-8.47,0,9.21,9.21,0,0,1-3.27-1.93,8.83,8.83,0,0,1-2.13-3.12,11.24,11.24,0,0,1-.76-4.26,11.06,11.06,0,0,1,.74-4.16,8.57,8.57,0,0,1,5.36-5,14.32,14.32,0,0,1,8.53,0,9,9,0,0,1,3.27,1.88,8.38,8.38,0,0,1,2.11,3.1A11.35,11.35,0,0,1,620.57,87.44Zm-6,0a4.47,4.47,0,0,0-1.2-3.33,4.42,4.42,0,0,0-3.25-1.2,4.16,4.16,0,0,0-3.21,1.2,4.68,4.68,0,0,0-1.11,3.33,5,5,0,0,0,1.09,3.44,4.11,4.11,0,0,0,3.23,1.21,4.35,4.35,0,0,0,3.29-1.19A4.73,4.73,0,0,0,614.58,87.44Z"/><path class="cls-2" d="M626.46,97.4V81.88h-4V77.6h4v-5h5.9v5h5.08v4.28h-5.08V97.4Z"/><path class="cls-2" d="M653.64,97.4V86.21a6.3,6.3,0,0,0-.2-1.74,2.26,2.26,0,0,0-.58-1A1.76,1.76,0,0,0,652,83a4.21,4.21,0,0,0-1-.11,2.66,2.66,0,0,0-1.49.46,4.39,4.39,0,0,0-1.27,1.24,6.56,6.56,0,0,0-.89,1.84,7.18,7.18,0,0,0-.35,2.23V97.4h-6V66.58H647V79.85a6.78,6.78,0,0,1,2.48-1.73,8.38,8.38,0,0,1,3-.52,9.75,9.75,0,0,1,2.59.35,6.7,6.7,0,0,1,2.27,1.12,5.73,5.73,0,0,1,1.62,2,7.06,7.06,0,0,1,.62,3.11V97.4Z"/><path class="cls-2" d="M684.06,83.05a5.13,5.13,0,0,1-.8,2.79A6.54,6.54,0,0,1,681,88a12.29,12.29,0,0,1-3.5,1.38,19.58,19.58,0,0,1-4.59.49,5.25,5.25,0,0,1-.54,0c-.2,0-.45,0-.73,0A4.15,4.15,0,0,0,673,92.47a4.25,4.25,0,0,0,2.91,1,13.28,13.28,0,0,0,6.63-2v4.72a12.87,12.87,0,0,1-3.26,1.42,13.88,13.88,0,0,1-3.53.43,11.72,11.72,0,0,1-4.08-.68,8.36,8.36,0,0,1-3.08-2,8.76,8.76,0,0,1-1.93-3.07,11.22,11.22,0,0,1-.68-4,12.46,12.46,0,0,1,.79-4.53,10.55,10.55,0,0,1,2.2-3.53,9.77,9.77,0,0,1,3.4-2.29,11.45,11.45,0,0,1,4.37-.81,8.23,8.23,0,0,1,5.33,1.62A5.29,5.29,0,0,1,684.06,83.05Zm-6,.45a1.59,1.59,0,0,0-.62-1.24,2.37,2.37,0,0,0-1.56-.52,3.57,3.57,0,0,0-2.56,1.06A4.93,4.93,0,0,0,672,85.7a3.69,3.69,0,0,0,.71.09h.67Q678.08,85.79,678.08,83.5Z"/><path class="cls-2" d="M702.51,83.14q-.63-.14-1-.18a6.51,6.51,0,0,0-.81,0,4.57,4.57,0,0,0-3.89,1.76,8.56,8.56,0,0,0-1.33,5.23v7.5h-6v-13q0-1.11,0-1.92a14.09,14.09,0,0,0-.11-1.52,13.05,13.05,0,0,0-.25-1.39q-.15-.67-.42-1.56h5.68c.09.37.18.68.25.94a4.83,4.83,0,0,1,.17.74c0,.23.06.48.09.74a8.39,8.39,0,0,1,.05,1,10.13,10.13,0,0,1,2.55-2.93,4.93,4.93,0,0,1,2.86-.86,4,4,0,0,1,1.06.12,8.6,8.6,0,0,1,1.19.44Z"/><path class="cls-2" d="M732.59,97a13.73,13.73,0,0,1-3.21.36,10.57,10.57,0,0,1-4-.71,9.63,9.63,0,0,1-3.13-2,8.35,8.35,0,0,1-2-3,10.2,10.2,0,0,1-.72-3.91,12.71,12.71,0,0,1,.65-4.12,8.64,8.64,0,0,1,2-3.24,9.27,9.27,0,0,1,3.29-2.11A12.73,12.73,0,0,1,730,77.6a10.6,10.6,0,0,1,3.44.47,13.07,13.07,0,0,1,2.23,1l-1,5.17c-.45-.21-.83-.39-1.15-.56a8.76,8.76,0,0,0-.9-.41,5,5,0,0,0-.94-.22,10.82,10.82,0,0,0-1.24-.07A4.64,4.64,0,0,0,727,84.23a4.51,4.51,0,0,0-1.22,3.32A4.42,4.42,0,0,0,727,90.89a5.1,5.1,0,0,0,3.65,1.2,10,10,0,0,0,2.34-.27,13.55,13.55,0,0,0,2.38-.86l.41,4.9A16.19,16.19,0,0,1,732.59,97Z"/><path class="cls-2" d="M753.18,97.4V86.21a5.89,5.89,0,0,0-.21-1.74,2.25,2.25,0,0,0-.57-1,1.81,1.81,0,0,0-.83-.46,4.28,4.28,0,0,0-1-.11,2.72,2.72,0,0,0-1.5.46,4.49,4.49,0,0,0-1.26,1.24,6.3,6.3,0,0,0-.89,1.84,7.18,7.18,0,0,0-.35,2.23V97.4h-6V66.58h5.94V79.85a6.7,6.7,0,0,1,2.48-1.73,8.38,8.38,0,0,1,3-.52,9.8,9.8,0,0,1,2.59.35,6.56,6.56,0,0,1,2.26,1.12,5.52,5.52,0,0,1,1.62,2,6.92,6.92,0,0,1,.63,3.11V97.4Z"/><path class="cls-2" d="M773.39,72.17a2.49,2.49,0,0,1-1,2,3.83,3.83,0,0,1-2.47.82,3.87,3.87,0,0,1-2.52-.84,2.7,2.7,0,0,1-1.08-2.06,2.41,2.41,0,0,1,1-2.06,4,4,0,0,1,2.61-.84,3.75,3.75,0,0,1,1.32.23,3.45,3.45,0,0,1,1.13.63,3.07,3.07,0,0,1,.76,1A2.43,2.43,0,0,1,773.39,72.17ZM766.64,97.4V77.6h6V97.4Z"/><path class="cls-2" d="M779.46,97.4V66h6V97.4Z"/><path class="cls-2" d="M807.05,97.4c0-.18-.07-.39-.1-.63s-.06-.45-.09-.72-.06-.6-.09-1a8.29,8.29,0,0,1-3,2.23,9.33,9.33,0,0,1-3.56.65,8.81,8.81,0,0,1-3.59-.7,7.87,7.87,0,0,1-2.73-1.93,8.86,8.86,0,0,1-1.76-3,11.55,11.55,0,0,1-.63-3.92,13.47,13.47,0,0,1,.74-4.54,11.18,11.18,0,0,1,2.07-3.58,9.28,9.28,0,0,1,3.17-2.34,9.65,9.65,0,0,1,4-.83,14,14,0,0,1,2,.13,11.67,11.67,0,0,1,2.21.59V66h6V90.56c0,.51,0,1.16.07,1.94s.1,1.53.16,2.25.13,1.72.22,2.65ZM805.74,83a6.46,6.46,0,0,0-1.66-.45,14.13,14.13,0,0,0-1.62-.09A4.55,4.55,0,0,0,798.84,84a6.29,6.29,0,0,0-1.34,4.25,4.63,4.63,0,0,0,.94,3.08A3.18,3.18,0,0,0,801,92.41a5.37,5.37,0,0,0,1.85-.32,3.44,3.44,0,0,0,1.5-1.08,5.67,5.67,0,0,0,1-2,10.73,10.73,0,0,0,.38-3.08Z"/><path class="cls-2" d="M831.93,83.14q-.63-.14-1-.18a6.51,6.51,0,0,0-.81,0,4.57,4.57,0,0,0-3.89,1.76,8.56,8.56,0,0,0-1.33,5.23v7.5h-6v-13c0-.74,0-1.38,0-1.92a14.09,14.09,0,0,0-.11-1.52,13.05,13.05,0,0,0-.25-1.39c-.1-.45-.25-1-.43-1.56h5.68c.1.37.18.68.26.94a4.72,4.72,0,0,1,.16.74c0,.23.06.48.1.74a8.65,8.65,0,0,1,0,1,10.14,10.14,0,0,1,2.56-2.93,4.93,4.93,0,0,1,2.86-.86,4,4,0,0,1,1.06.12,8.6,8.6,0,0,1,1.19.44Z"/><path class="cls-2" d="M851.86,83.05a5,5,0,0,1-.8,2.79A6.6,6.6,0,0,1,848.81,88a12.48,12.48,0,0,1-3.51,1.38,19.52,19.52,0,0,1-4.59.49c-.15,0-.33,0-.54,0s-.44,0-.73,0a4.15,4.15,0,0,0,1.35,2.67,4.26,4.26,0,0,0,2.91,1,13.28,13.28,0,0,0,6.63-2v4.72a12.72,12.72,0,0,1-3.26,1.42,13.82,13.82,0,0,1-3.53.43,11.62,11.62,0,0,1-4.07-.68,8.32,8.32,0,0,1-3.09-2,8.76,8.76,0,0,1-1.93-3.07,11.22,11.22,0,0,1-.68-4,12.67,12.67,0,0,1,.79-4.53,10.57,10.57,0,0,1,2.21-3.53,9.64,9.64,0,0,1,3.39-2.29,11.45,11.45,0,0,1,4.37-.81,8.21,8.21,0,0,1,5.33,1.62A5.26,5.26,0,0,1,851.86,83.05Zm-6,.45a1.59,1.59,0,0,0-.62-1.24,2.36,2.36,0,0,0-1.55-.52,3.58,3.58,0,0,0-2.57,1.06,5,5,0,0,0-1.38,2.9,3.69,3.69,0,0,0,.71.09h.67Q845.88,85.79,845.88,83.5Z"/><path class="cls-2" d="M869.55,97.4V86.17a4.72,4.72,0,0,0-.29-1.83,2.67,2.67,0,0,0-.7-1,1.72,1.72,0,0,0-.86-.39,4.64,4.64,0,0,0-.76-.07,4.39,4.39,0,0,0-1,.18,3.24,3.24,0,0,0-1.37.82,5.49,5.49,0,0,0-1.24,1.91,8.75,8.75,0,0,0-.54,3.38v8.2h-6V84.31a22.35,22.35,0,0,0-.27-3.41,11.08,11.08,0,0,0-.72-2.76h6a9.91,9.91,0,0,1,.39,1q.1.41.24,1.17a9.33,9.33,0,0,1,3.09-2.07,8.91,8.91,0,0,1,3.35-.68,6.53,6.53,0,0,1,2.62.53,6.23,6.23,0,0,1,2.1,1.47A6.67,6.67,0,0,1,875,81.92a9.1,9.1,0,0,1,.5,3.09V97.4Z"/><path class="cls-2" d="M889.8,94.63a2.42,2.42,0,0,1-1,2,3.92,3.92,0,0,1-2.48.79,3.85,3.85,0,0,1-2.51-.85,2.6,2.6,0,0,1-.07-4.12,3.61,3.61,0,0,1,2.4-.83,3.94,3.94,0,0,1,2.62.89A2.71,2.71,0,0,1,889.8,94.63Z"/></svg>