<svg id="Layer_1" data-name="Layer 1" xmlns="http://www.w3.org/2000/svg" viewBox="0 0 1156.67 169.53"><defs><style>.cls-1{fill:#3172c2;stroke:#fff;stroke-miterlimit:10;stroke-width:2px;}.cls-2{fill:#fff;}</style></defs><rect class="cls-1" x="199.8" y="45.69" width="757.06" height="78.15" rx="39.07"/><path class="cls-2" d="M262.4,89.92a7,7,0,0,1-3.6,6.41q-3.6,2.19-11.19,2.19c-.52,0-1.16,0-1.94,0l-2.49-.11c-.89,0-1.77-.11-2.66-.2s-1.67-.18-2.36-.27V67.11h8.94a33.34,33.34,0,0,1,5.59.42,13.1,13.1,0,0,1,4.13,1.36,6.7,6.7,0,0,1,2.56,2.41,6.85,6.85,0,0,1,.88,3.53,7.84,7.84,0,0,1-1.08,4.09,6.75,6.75,0,0,1-3.93,2.75,9.8,9.8,0,0,1,5.33,2.84A7.82,7.82,0,0,1,262.4,89.92Zm-9.3-14.1a2.76,2.76,0,0,0-1.74-2.72,11.53,11.53,0,0,0-4.84-.68l-1.29,0v7l1.74,0a8.65,8.65,0,0,0,4.68-.82A3.09,3.09,0,0,0,253.1,75.82Zm1.53,13.37q0-4.53-7-4.4c-.3,0-.6,0-.9,0h-1.48v8.1c.51.06,1,.1,1.57.13s1,.05,1.31.05a9.82,9.82,0,0,0,4.95-1A3.23,3.23,0,0,0,254.63,89.19Z"/><path class="cls-2" d="M284.78,84.16A5,5,0,0,1,284,87a6.66,6.66,0,0,1-2.26,2.14,12.59,12.59,0,0,1-3.5,1.37,19.5,19.5,0,0,1-4.59.5l-.54,0-.73,0a4.2,4.2,0,0,0,1.35,2.68,4.3,4.3,0,0,0,2.91,1,13.3,13.3,0,0,0,6.63-2v4.73A12.82,12.82,0,0,1,280,98.67a13.44,13.44,0,0,1-3.53.43,11.72,11.72,0,0,1-4.08-.67,8.38,8.38,0,0,1-3.08-2,8.81,8.81,0,0,1-1.93-3.06,11.31,11.31,0,0,1-.68-4,12.36,12.36,0,0,1,.79-4.52,10.45,10.45,0,0,1,2.2-3.53,9.79,9.79,0,0,1,3.4-2.3,11.45,11.45,0,0,1,4.37-.81,8.23,8.23,0,0,1,5.33,1.62A5.29,5.29,0,0,1,284.78,84.16Zm-6,.45a1.59,1.59,0,0,0-.62-1.24,2.35,2.35,0,0,0-1.55-.51,3.57,3.57,0,0,0-2.57,1,5,5,0,0,0-1.38,2.91,3.69,3.69,0,0,0,.71.09h.67Q278.8,86.91,278.8,84.61Z"/><path class="cls-2" d="M318,93a5.68,5.68,0,0,1-1.91,4.5,7.94,7.94,0,0,1-5.36,1.66,22.49,22.49,0,0,1-4.57-.45,13.4,13.4,0,0,1-3.6-1.21l.77-4.59a15.34,15.34,0,0,0,6.84,2,1.9,1.9,0,0,0,1.41-.43,1.29,1.29,0,0,0,.43-1,1.73,1.73,0,0,0-.34-1.11,5.17,5.17,0,0,0-1.64-1,26.44,26.44,0,0,1-3.17-1.62,10.4,10.4,0,0,1-2.16-1.69,5.79,5.79,0,0,1-1.22-1.87,6.32,6.32,0,0,1-.38-2.25,5.09,5.09,0,0,1,2.18-4.39A9.59,9.59,0,0,1,310.91,78a17.87,17.87,0,0,1,3.35.29,15.83,15.83,0,0,1,3.37,1.15L316.91,84a10.7,10.7,0,0,0-3.1-1.24,13.5,13.5,0,0,0-2.95-.34,2.09,2.09,0,0,0-1.44.38,1.41,1.41,0,0,0-.38,1,1.46,1.46,0,0,0,.61,1.23,12.61,12.61,0,0,0,2.4,1.24,28.56,28.56,0,0,1,2.73,1.55,10.24,10.24,0,0,1,1.85,1.53,4.89,4.89,0,0,1,1,1.67A5.76,5.76,0,0,1,318,93Z"/><path class="cls-2" d="M340.85,84.16a5.13,5.13,0,0,1-.8,2.79,6.66,6.66,0,0,1-2.26,2.14,12.59,12.59,0,0,1-3.5,1.37,19.56,19.56,0,0,1-4.59.5l-.54,0-.73,0a4.2,4.2,0,0,0,1.35,2.68,4.3,4.3,0,0,0,2.91,1,13.3,13.3,0,0,0,6.63-2v4.73a12.82,12.82,0,0,1-3.26,1.41,13.44,13.44,0,0,1-3.53.43,11.72,11.72,0,0,1-4.08-.67,8.38,8.38,0,0,1-3.08-2,8.81,8.81,0,0,1-1.93-3.06,11.31,11.31,0,0,1-.68-4,12.36,12.36,0,0,1,.79-4.52,10.45,10.45,0,0,1,2.2-3.53,9.79,9.79,0,0,1,3.4-2.3,11.45,11.45,0,0,1,4.37-.81,8.23,8.23,0,0,1,5.33,1.62A5.29,5.29,0,0,1,340.85,84.16Zm-6,.45a1.59,1.59,0,0,0-.62-1.24,2.36,2.36,0,0,0-1.56-.51,3.56,3.56,0,0,0-2.56,1,5,5,0,0,0-1.38,2.91,3.69,3.69,0,0,0,.71.09h.67Q334.87,86.91,334.87,84.61Z"/><path class="cls-2" d="M359.61,98.52c0-.21,0-.47,0-.77a6.47,6.47,0,0,1-.07-.85c0-.33,0-.68-.08-1a7.14,7.14,0,0,1-2.93,2.32,9.55,9.55,0,0,1-3.83.79,7.11,7.11,0,0,1-5.75-2.43q-2.06-2.43-2.05-6.93,0-5.44,3.3-8.4t9.42-2.94c.67,0,1.28,0,1.83,0s1.09.08,1.64.16,1.11.17,1.69.29,1.22.29,1.92.5V92c0,.69,0,1.41,0,2.18s.08,1.46.14,2.09.12,1.48.18,2.21Zm-.94-14.67a9.25,9.25,0,0,0-1.42-.23c-.43,0-.82,0-1.19,0a4.82,4.82,0,0,0-3.85,1.59,6.64,6.64,0,0,0-1.37,4.44,4.4,4.4,0,0,0,.83,2.88,2.84,2.84,0,0,0,2.33,1,4.17,4.17,0,0,0,1.81-.41,4.56,4.56,0,0,0,1.49-1.15,5.56,5.56,0,0,0,1-1.75,6.51,6.51,0,0,0,.37-2.27Z"/><path class="cls-2" d="M372.31,98.52V83h-4V78.72h4v-5h5.89v5h5.09V83H378.2V98.52Z"/><path class="cls-2" d="M402.73,84.16a5.05,5.05,0,0,1-.81,2.79,6.72,6.72,0,0,1-2.25,2.14,12.66,12.66,0,0,1-3.51,1.37,19.47,19.47,0,0,1-4.58.5l-.55,0-.72,0a4.14,4.14,0,0,0,1.34,2.68,4.34,4.34,0,0,0,2.92,1,13.36,13.36,0,0,0,6.63-2v4.73a12.73,12.73,0,0,1-3.27,1.41,13.39,13.39,0,0,1-3.53.43,11.62,11.62,0,0,1-4.07-.67,8.22,8.22,0,0,1-3.08-2,8.69,8.69,0,0,1-1.94-3.06,11.32,11.32,0,0,1-.67-4,12.58,12.58,0,0,1,.78-4.52,10.47,10.47,0,0,1,2.21-3.53A9.61,9.61,0,0,1,391,79a11.36,11.36,0,0,1,4.36-.81,8.21,8.21,0,0,1,5.33,1.62A5.27,5.27,0,0,1,402.73,84.16Zm-6,.45a1.59,1.59,0,0,0-.62-1.24,2.35,2.35,0,0,0-1.55-.51,3.58,3.58,0,0,0-2.57,1,5.11,5.11,0,0,0-1.38,2.91,3.78,3.78,0,0,0,.72.09H392Q396.74,86.91,396.74,84.61Z"/><path class="cls-2" d="M422.26,98.52q0-.27-.09-.63c0-.21-.07-.45-.1-.72s-.06-.6-.09-1a8.17,8.17,0,0,1-3,2.22,9.15,9.15,0,0,1-3.56.66,9,9,0,0,1-3.59-.7,7.9,7.9,0,0,1-2.73-1.94,8.77,8.77,0,0,1-1.76-3,11.5,11.5,0,0,1-.63-3.91,13.53,13.53,0,0,1,.74-4.55,11.18,11.18,0,0,1,2.07-3.58,9.41,9.41,0,0,1,3.17-2.34,9.81,9.81,0,0,1,4.05-.83,14.23,14.23,0,0,1,2,.14,11.49,11.49,0,0,1,2.2.58V67.15h6V91.68c0,.51,0,1.15.06,1.93s.1,1.53.16,2.25.13,1.73.22,2.66ZM421,84.07a6.46,6.46,0,0,0-1.66-.45,14,14,0,0,0-1.62-.09,4.55,4.55,0,0,0-3.62,1.55,6.34,6.34,0,0,0-1.34,4.26,4.65,4.65,0,0,0,.94,3.08,3.2,3.2,0,0,0,2.57,1.1,5.36,5.36,0,0,0,1.85-.31,3.44,3.44,0,0,0,1.5-1.08,5.73,5.73,0,0,0,1-2A11.13,11.13,0,0,0,421,87Z"/><path class="cls-2" d="M461.45,98.52c0-.21,0-.47-.05-.77s-.06-.52-.07-.85,0-.68-.07-1a7.14,7.14,0,0,1-2.93,2.32,9.6,9.6,0,0,1-3.84.79,7.12,7.12,0,0,1-5.75-2.43q-2.06-2.43-2.05-6.93,0-5.44,3.31-8.4t9.42-2.94c.67,0,1.27,0,1.82,0s1.1.08,1.65.16,1.11.17,1.68.29,1.22.29,1.92.5V92c0,.69,0,1.41,0,2.18s.08,1.46.14,2.09.12,1.48.18,2.21Zm-.95-14.67a9.14,9.14,0,0,0-1.41-.23c-.43,0-.83,0-1.2,0a4.8,4.8,0,0,0-3.84,1.59,6.59,6.59,0,0,0-1.38,4.44,4.4,4.4,0,0,0,.83,2.88,2.87,2.87,0,0,0,2.33,1,4.14,4.14,0,0,0,1.81-.41,4.46,4.46,0,0,0,1.49-1.15,5.58,5.58,0,0,0,1-1.75,6.76,6.76,0,0,0,.36-2.27Z"/><path class="cls-2" d="M485.88,98.52V87.28a4.46,4.46,0,0,0-.29-1.82,2.52,2.52,0,0,0-.7-1,1.69,1.69,0,0,0-.85-.39,6,6,0,0,0-.77-.06,4.14,4.14,0,0,0-.94.17A3.29,3.29,0,0,0,481,85a5.59,5.59,0,0,0-1.24,1.91,8.77,8.77,0,0,0-.54,3.39v8.2h-6V85.43a22.48,22.48,0,0,0-.27-3.42,11.11,11.11,0,0,0-.72-2.75h6a7.73,7.73,0,0,1,.38,1,11.57,11.57,0,0,1,.25,1.17,9.39,9.39,0,0,1,3.08-2.07,9,9,0,0,1,3.36-.67,6.52,6.52,0,0,1,2.62.52A6.09,6.09,0,0,1,490,80.71,6.77,6.77,0,0,1,491.36,83a8.86,8.86,0,0,1,.51,3.09v12.4Z"/><path class="cls-2" d="M513.74,98.52q0-.27-.09-.63c0-.21-.06-.45-.1-.72s-.06-.6-.09-1a8.09,8.09,0,0,1-3,2.22,9.15,9.15,0,0,1-3.56.66,9,9,0,0,1-3.59-.7,8.09,8.09,0,0,1-2.73-1.94,8.93,8.93,0,0,1-1.76-3,11.5,11.5,0,0,1-.63-3.91A13.28,13.28,0,0,1,499,85,10.82,10.82,0,0,1,501,81.39a9.32,9.32,0,0,1,3.17-2.34,9.81,9.81,0,0,1,4.05-.83,14,14,0,0,1,2,.14,11.49,11.49,0,0,1,2.2.58V67.15h6V91.68c0,.51,0,1.15.07,1.93s.09,1.53.15,2.25.14,1.73.23,2.66Zm-1.31-14.45a6.36,6.36,0,0,0-1.66-.45,13.83,13.83,0,0,0-1.61-.09,4.55,4.55,0,0,0-3.63,1.55,6.34,6.34,0,0,0-1.33,4.26,4.64,4.64,0,0,0,.93,3.08,3.23,3.23,0,0,0,2.58,1.1,5.4,5.4,0,0,0,1.85-.31,3.47,3.47,0,0,0,1.49-1.08,5.73,5.73,0,0,0,1-2,10.76,10.76,0,0,0,.37-3.08Z"/><path class="cls-2" d="M553.7,98.52q0-.27-.09-.63c0-.21-.06-.45-.1-.72s-.06-.6-.09-1a8.09,8.09,0,0,1-3,2.22,9.15,9.15,0,0,1-3.56.66,9,9,0,0,1-3.59-.7,8.09,8.09,0,0,1-2.73-1.94,8.93,8.93,0,0,1-1.76-3,11.5,11.5,0,0,1-.63-3.91,13.28,13.28,0,0,1,.75-4.55A10.82,10.82,0,0,1,541,81.39a9.32,9.32,0,0,1,3.17-2.34,9.81,9.81,0,0,1,4.05-.83,14,14,0,0,1,2,.14,11.49,11.49,0,0,1,2.2.58V67.15h6V91.68c0,.51,0,1.15.07,1.93s.09,1.53.15,2.25.14,1.73.23,2.66Zm-1.31-14.45a6.36,6.36,0,0,0-1.66-.45,13.83,13.83,0,0,0-1.61-.09,4.55,4.55,0,0,0-3.63,1.55,6.34,6.34,0,0,0-1.33,4.26,4.64,4.64,0,0,0,.93,3.08,3.23,3.23,0,0,0,2.58,1.1,5.31,5.31,0,0,0,1.84-.31,3.44,3.44,0,0,0,1.5-1.08,5.73,5.73,0,0,0,1-2,10.76,10.76,0,0,0,.37-3.08Z"/><path class="cls-2" d="M584.7,88.55a11.25,11.25,0,0,1-.74,4.26,8.51,8.51,0,0,1-2.1,3.12,9.06,9.06,0,0,1-3.27,1.93,13.92,13.92,0,0,1-8.47,0,9.06,9.06,0,0,1-3.27-1.93,8.83,8.83,0,0,1-2.13-3.12,11.05,11.05,0,0,1-.76-4.26,10.82,10.82,0,0,1,.74-4.15,8.6,8.6,0,0,1,2.08-3.1,8.9,8.9,0,0,1,3.27-1.93,14.57,14.57,0,0,1,8.54,0,9,9,0,0,1,3.27,1.89,8.24,8.24,0,0,1,2.1,3.09A11.15,11.15,0,0,1,584.7,88.55Zm-6,0a4.46,4.46,0,0,0-1.21-3.34A4.4,4.4,0,0,0,574.26,84a4.14,4.14,0,0,0-3.2,1.19,4.67,4.67,0,0,0-1.12,3.34A5,5,0,0,0,571,92a4.13,4.13,0,0,0,3.23,1.22,4.4,4.4,0,0,0,3.3-1.2A4.75,4.75,0,0,0,578.72,88.56Z"/><path class="cls-2" d="M617.24,98.52V87.28a4.44,4.44,0,0,0-.3-1.82,2.51,2.51,0,0,0-.69-1,1.72,1.72,0,0,0-.86-.39,5.86,5.86,0,0,0-.76-.06,4.2,4.2,0,0,0-1,.17,3.29,3.29,0,0,0-1.37.82,5.59,5.59,0,0,0-1.24,1.91,8.77,8.77,0,0,0-.54,3.39v8.2h-6V85.43a22.48,22.48,0,0,0-.27-3.42,11.11,11.11,0,0,0-.72-2.75h6a7.73,7.73,0,0,1,.38,1,11.57,11.57,0,0,1,.25,1.17,9.33,9.33,0,0,1,3.09-2.07,8.86,8.86,0,0,1,3.35-.67,6.52,6.52,0,0,1,2.62.52,6.23,6.23,0,0,1,2.1,1.47A6.75,6.75,0,0,1,622.71,83a8.86,8.86,0,0,1,.51,3.09v12.4Z"/><path class="cls-2" d="M650.13,88.55a11.45,11.45,0,0,1-.74,4.26,8.51,8.51,0,0,1-2.1,3.12A9.23,9.23,0,0,1,644,97.86a13.92,13.92,0,0,1-8.47,0,9.06,9.06,0,0,1-3.27-1.93,8.71,8.71,0,0,1-2.13-3.12,11.05,11.05,0,0,1-.76-4.26,10.82,10.82,0,0,1,.74-4.15,8.6,8.6,0,0,1,2.08-3.1,8.74,8.74,0,0,1,3.27-1.93,14.57,14.57,0,0,1,8.54,0,9.15,9.15,0,0,1,3.27,1.89,8.24,8.24,0,0,1,2.1,3.09A11.35,11.35,0,0,1,650.13,88.55Zm-6,0a4.5,4.5,0,0,0-1.21-3.34A4.41,4.41,0,0,0,639.69,84a4.14,4.14,0,0,0-3.2,1.19,4.67,4.67,0,0,0-1.12,3.34A4.92,4.92,0,0,0,636.46,92a4.13,4.13,0,0,0,3.23,1.22A4.4,4.4,0,0,0,643,92,4.75,4.75,0,0,0,644.15,88.56Z"/><path class="cls-2" d="M656,98.52V83h-4V78.72h4v-5h5.89v5H667V83h-5.09V98.52Z"/><path class="cls-2" d="M698.14,84.25q-.63-.14-1-.18a6.65,6.65,0,0,0-.81,0,4.58,4.58,0,0,0-3.89,1.75A8.65,8.65,0,0,0,691.12,91v7.51h-6v-13c0-.73,0-1.37,0-1.92s-.06-1-.12-1.52-.14-.93-.24-1.38-.25-1-.43-1.57H690c.09.37.18.69.26,1a5.83,5.83,0,0,1,.16.74c0,.23.06.47.09.74a8.2,8.2,0,0,1,.05.94,10.13,10.13,0,0,1,2.56-2.93,4.87,4.87,0,0,1,2.85-.85,4,4,0,0,1,1.06.11,9.54,9.54,0,0,1,1.19.44Z"/><path class="cls-2" d="M715.47,98a7.78,7.78,0,0,1-.38-1,11.57,11.57,0,0,1-.25-1.17,8.83,8.83,0,0,1-6.35,2.75,6.57,6.57,0,0,1-2.67-.55,6.73,6.73,0,0,1-2.16-1.51,6.55,6.55,0,0,1-1.42-2.33,8.73,8.73,0,0,1-.5-3c0-1.22,0-2.36.09-3.41s.11-2.06.14-3,0-1.92,0-2.89-.11-2-.23-3.06h6c.09,1,.14,1.93.16,2.84s0,1.81,0,2.71,0,1.81-.09,2.73-.07,1.91-.07,3A4.89,4.89,0,0,0,708,91.8a2.15,2.15,0,0,0,.73,1,2.09,2.09,0,0,0,.91.37,6.67,6.67,0,0,0,.8.07,4.35,4.35,0,0,0,1-.18,3.1,3.1,0,0,0,1.36-.82A5.55,5.55,0,0,0,714,90.3a9,9,0,0,0,.52-3.39V78.72h6V91.8a22.48,22.48,0,0,0,.27,3.42,11.33,11.33,0,0,0,.72,2.76Z"/><path class="cls-2" d="M740.62,98.52V87.28a4.46,4.46,0,0,0-.29-1.82,2.52,2.52,0,0,0-.7-1,1.69,1.69,0,0,0-.85-.39A6,6,0,0,0,738,84a4.14,4.14,0,0,0-.94.17,3.29,3.29,0,0,0-1.37.82,5.59,5.59,0,0,0-1.24,1.91,8.77,8.77,0,0,0-.54,3.39v8.2h-6V85.43a22.48,22.48,0,0,0-.27-3.42,11.11,11.11,0,0,0-.72-2.75h6a7.73,7.73,0,0,1,.38,1,11.57,11.57,0,0,1,.25,1.17,9.33,9.33,0,0,1,3.09-2.07,8.86,8.86,0,0,1,3.35-.67,6.52,6.52,0,0,1,2.62.52,6.09,6.09,0,0,1,2.09,1.47A6.77,6.77,0,0,1,746.1,83a8.86,8.86,0,0,1,.51,3.09v12.4Z"/><path class="cls-2" d="M781.71,98.52c0-.21,0-.47-.05-.77s-.06-.52-.07-.85,0-.68-.07-1a7.17,7.17,0,0,1-2.94,2.32,9.55,9.55,0,0,1-3.83.79A7.12,7.12,0,0,1,769,96.54q-2.06-2.43-2-6.93,0-5.44,3.31-8.4t9.42-2.94c.67,0,1.27,0,1.82,0s1.1.08,1.64.16,1.11.17,1.69.29,1.22.29,1.92.5V92c0,.69,0,1.41,0,2.18s.08,1.46.14,2.09.12,1.48.18,2.21Zm-1-14.67a9.25,9.25,0,0,0-1.42-.23c-.42,0-.82,0-1.19,0a4.79,4.79,0,0,0-3.84,1.59,6.59,6.59,0,0,0-1.38,4.44,4.4,4.4,0,0,0,.83,2.88,2.86,2.86,0,0,0,2.33,1,4.14,4.14,0,0,0,1.81-.41,4.46,4.46,0,0,0,1.49-1.15,5.58,5.58,0,0,0,1-1.75,6.76,6.76,0,0,0,.36-2.27Z"/><path class="cls-2" d="M806.91,84.25q-.63-.14-1-.18a6.65,6.65,0,0,0-.81,0,4.6,4.6,0,0,0-3.9,1.75A8.65,8.65,0,0,0,799.89,91v7.51h-6v-13c0-.73,0-1.37,0-1.92s0-1-.11-1.52-.15-.93-.25-1.38-.25-1-.43-1.57h5.68c.1.37.18.69.26,1a4.49,4.49,0,0,1,.16.74c0,.23.06.47.09.74a6.41,6.41,0,0,1,.05.94,10.13,10.13,0,0,1,2.56-2.93,4.9,4.9,0,0,1,2.86-.85,3.93,3.93,0,0,1,1,.11,9.57,9.57,0,0,1,1.2.44Z"/><path class="cls-2" d="M829.32,88.55a11.45,11.45,0,0,1-.74,4.26,8.66,8.66,0,0,1-2.11,3.12,9.06,9.06,0,0,1-3.27,1.93,13.92,13.92,0,0,1-8.47,0,9.06,9.06,0,0,1-3.27-1.93,8.83,8.83,0,0,1-2.13-3.12,11.24,11.24,0,0,1-.76-4.26,11,11,0,0,1,.74-4.15,8.73,8.73,0,0,1,2.08-3.1,8.86,8.86,0,0,1,3.28-1.93,14.53,14.53,0,0,1,8.53,0,9,9,0,0,1,3.27,1.89,8.37,8.37,0,0,1,2.11,3.09A11.35,11.35,0,0,1,829.32,88.55Zm-6,0a4.46,4.46,0,0,0-1.21-3.34A4.38,4.38,0,0,0,818.87,84a4.14,4.14,0,0,0-3.2,1.19,4.71,4.71,0,0,0-1.11,3.34A4.92,4.92,0,0,0,815.65,92a4.1,4.1,0,0,0,3.22,1.22,4.37,4.37,0,0,0,3.3-1.2A4.75,4.75,0,0,0,823.33,88.56Z"/><path class="cls-2" d="M848.53,98a7.78,7.78,0,0,1-.38-1,11.57,11.57,0,0,1-.25-1.17,8.81,8.81,0,0,1-6.34,2.75,6.62,6.62,0,0,1-2.68-.55,6.73,6.73,0,0,1-2.16-1.51,6.55,6.55,0,0,1-1.42-2.33,8.74,8.74,0,0,1-.49-3c0-1.22,0-2.36.09-3.41s.1-2.06.13-3,0-1.92,0-2.89-.1-2-.22-3.06h6c.09,1,.14,1.93.16,2.84s0,1.81,0,2.71-.05,1.81-.09,2.73-.07,1.91-.07,3a5.1,5.1,0,0,0,.28,1.85,2.06,2.06,0,0,0,1.64,1.34,6.85,6.85,0,0,0,.8.07,4.35,4.35,0,0,0,1-.18,3.1,3.1,0,0,0,1.36-.82A5.71,5.71,0,0,0,847,90.3a9.23,9.23,0,0,0,.51-3.39V78.72h6V91.8a22.48,22.48,0,0,0,.27,3.42,11.33,11.33,0,0,0,.72,2.76Z"/><path class="cls-2" d="M873.69,98.52V87.28a4.44,4.44,0,0,0-.3-1.82,2.51,2.51,0,0,0-.69-1,1.72,1.72,0,0,0-.86-.39,5.86,5.86,0,0,0-.76-.06,4.2,4.2,0,0,0-1,.17,3.29,3.29,0,0,0-1.37.82,5.59,5.59,0,0,0-1.24,1.91,8.77,8.77,0,0,0-.54,3.39v8.2h-6V85.43a22.48,22.48,0,0,0-.27-3.42,11.11,11.11,0,0,0-.72-2.75h6a7.73,7.73,0,0,1,.38,1,11.57,11.57,0,0,1,.25,1.17,9.33,9.33,0,0,1,3.09-2.07,8.86,8.86,0,0,1,3.35-.67,6.52,6.52,0,0,1,2.62.52,6.09,6.09,0,0,1,2.09,1.47A6.62,6.62,0,0,1,879.16,83a8.86,8.86,0,0,1,.51,3.09v12.4Z"/><path class="cls-2" d="M901.54,98.52q0-.27-.09-.63t-.09-.72c0-.27-.06-.6-.1-1a8.14,8.14,0,0,1-3,2.22,9.2,9.2,0,0,1-3.57.66,8.93,8.93,0,0,1-3.58-.7,7.9,7.9,0,0,1-2.73-1.94,8.61,8.61,0,0,1-1.76-3,11.5,11.5,0,0,1-.63-3.91,13.28,13.28,0,0,1,.74-4.55,10.82,10.82,0,0,1,2.07-3.58A9.32,9.32,0,0,1,892,79.05a9.81,9.81,0,0,1,4-.83,14,14,0,0,1,2,.14,11.56,11.56,0,0,1,2.21.58V67.15h6V91.68c0,.51,0,1.15.07,1.93s.1,1.53.16,2.25.13,1.73.22,2.66Zm-1.3-14.45a6.53,6.53,0,0,0-1.67-.45,13.83,13.83,0,0,0-1.61-.09,4.55,4.55,0,0,0-3.63,1.55A6.34,6.34,0,0,0,892,89.34a4.59,4.59,0,0,0,.94,3.08,3.2,3.2,0,0,0,2.57,1.1,5.4,5.4,0,0,0,1.85-.31,3.5,3.5,0,0,0,1.5-1.08,5.73,5.73,0,0,0,1-2,10.73,10.73,0,0,0,.38-3.08Z"/><path class="cls-2" d="M919.9,95.75a2.4,2.4,0,0,1-1,2,3.92,3.92,0,0,1-2.48.8,3.86,3.86,0,0,1-2.51-.86,2.61,2.61,0,0,1-.06-4.12,3.58,3.58,0,0,1,2.39-.83,4,4,0,0,1,2.62.89A2.73,2.73,0,0,1,919.9,95.75Z"/></svg>