<svg id="Layer_1" data-name="Layer 1" xmlns="http://www.w3.org/2000/svg" viewBox="0 0 1156.67 169.53"><defs><style>.cls-1{fill:#3172c2;stroke:#fff;stroke-miterlimit:10;stroke-width:2px;}.cls-2{fill:#fff;}</style></defs><rect class="cls-1" x="219.71" y="60.56" width="731.11" height="78.15" rx="39.07"/><path class="cls-2" d="M329.26,87.29v26.1H322.2V87.24h-8.37V82h23.71v5.31Z"/><path class="cls-2" d="M349.6,113.39c0-.21,0-.47-.05-.77s-.05-.52-.07-.85,0-.68-.07-1a7.06,7.06,0,0,1-2.93,2.32,9.55,9.55,0,0,1-3.83.79,7.1,7.1,0,0,1-5.75-2.43q-2.06-2.43-2.06-6.93c0-3.63,1.11-6.43,3.31-8.4s5.35-2.94,9.42-2.94c.67,0,1.28,0,1.83,0s1.09.09,1.64.16,1.11.17,1.69.29,1.21.29,1.91.5v12.78c0,.69,0,1.41.05,2.18s.07,1.46.13,2.09.12,1.49.18,2.21Zm-.94-14.67a9.25,9.25,0,0,0-1.42-.23c-.43,0-.83,0-1.19,0A4.82,4.82,0,0,0,342.2,100a6.64,6.64,0,0,0-1.37,4.44,4.4,4.4,0,0,0,.82,2.88,2.88,2.88,0,0,0,2.34,1,4.17,4.17,0,0,0,1.81-.41,4.43,4.43,0,0,0,1.48-1.15,5.39,5.39,0,0,0,1-1.75,6.51,6.51,0,0,0,.37-2.27Z"/><path class="cls-2" d="M373.09,101.69l9.59,11.7h-7.92l-7.47-9.77v9.77h-6V82h6v18.09l7.29-6.52h8.59Z"/><path class="cls-2" d="M402.88,99a5.13,5.13,0,0,1-.8,2.79,6.66,6.66,0,0,1-2.26,2.14,12.59,12.59,0,0,1-3.5,1.37,19.5,19.5,0,0,1-4.59.5l-.54,0-.73,0a4.2,4.2,0,0,0,1.35,2.68,4.3,4.3,0,0,0,2.91,1,13.3,13.3,0,0,0,6.63-2v4.73a12.82,12.82,0,0,1-3.26,1.41,13.44,13.44,0,0,1-3.53.43,11.72,11.72,0,0,1-4.08-.67,8.38,8.38,0,0,1-3.08-2,8.72,8.72,0,0,1-1.93-3.06,11.31,11.31,0,0,1-.68-4,12.4,12.4,0,0,1,.79-4.52,10.6,10.6,0,0,1,2.2-3.53,9.79,9.79,0,0,1,3.4-2.3,11.45,11.45,0,0,1,4.37-.81,8.23,8.23,0,0,1,5.33,1.62A5.29,5.29,0,0,1,402.88,99Zm-6,.45a1.59,1.59,0,0,0-.62-1.24,2.35,2.35,0,0,0-1.55-.51,3.57,3.57,0,0,0-2.57,1,5,5,0,0,0-1.38,2.91,3.69,3.69,0,0,0,.71.09h.67Q396.9,101.78,396.9,99.48Z"/><path class="cls-2" d="M434,113a13.35,13.35,0,0,1-3.22.37,10.77,10.77,0,0,1-4-.71,9.77,9.77,0,0,1-3.13-2,8.5,8.5,0,0,1-2-3,10.27,10.27,0,0,1-.72-3.91,12.4,12.4,0,0,1,.65-4.12,8.5,8.5,0,0,1,2-3.25,9.07,9.07,0,0,1,3.28-2.1,12.76,12.76,0,0,1,4.57-.75,10.3,10.3,0,0,1,3.44.47,12.06,12.06,0,0,1,2.23,1l-1,5.18c-.45-.21-.84-.4-1.15-.57s-.62-.29-.9-.4a4.41,4.41,0,0,0-.95-.23,10.74,10.74,0,0,0-1.23-.06,4.7,4.7,0,0,0-3.47,1.22,4.52,4.52,0,0,0-1.21,3.32,4.4,4.4,0,0,0,1.26,3.34,5.08,5.08,0,0,0,3.64,1.21,9.49,9.49,0,0,0,2.34-.28,12.87,12.87,0,0,0,2.39-.86l.4,4.9A15.14,15.14,0,0,1,434,113Z"/><path class="cls-2" d="M455.84,113.39c0-.21,0-.47,0-.77s-.06-.52-.07-.85,0-.68-.07-1a7.09,7.09,0,0,1-2.94,2.32,9.55,9.55,0,0,1-3.83.79,7.11,7.11,0,0,1-5.75-2.43q-2.06-2.43-2.05-6.93,0-5.45,3.3-8.4t9.43-2.94c.66,0,1.27,0,1.82,0s1.09.09,1.64.16,1.11.17,1.69.29,1.22.29,1.92.5v12.78c0,.69,0,1.41,0,2.18s.08,1.46.14,2.09.12,1.49.18,2.21Zm-.94-14.67a9.25,9.25,0,0,0-1.42-.23c-.43,0-.82,0-1.19,0a4.82,4.82,0,0,0-3.85,1.59,6.64,6.64,0,0,0-1.37,4.44,4.4,4.4,0,0,0,.83,2.88,2.84,2.84,0,0,0,2.33,1,4.17,4.17,0,0,0,1.81-.41,4.56,4.56,0,0,0,1.49-1.15,5.56,5.56,0,0,0,1-1.75,6.51,6.51,0,0,0,.37-2.27Z"/><path class="cls-2" d="M481.05,99.12q-.63-.14-1-.18a6.65,6.65,0,0,0-.81,0,4.6,4.6,0,0,0-3.9,1.75,8.67,8.67,0,0,0-1.32,5.23v7.51h-6v-13c0-.73,0-1.37,0-1.92s0-1-.11-1.52-.15-.93-.25-1.38-.25-1-.43-1.57h5.68c.1.37.18.69.26,1a5.83,5.83,0,0,1,.16.74c0,.23.06.48.09.74a8.2,8.2,0,0,1,.05.94A10.13,10.13,0,0,1,476,94.44a4.9,4.9,0,0,1,2.86-.85,4.39,4.39,0,0,1,1.05.11,11.51,11.51,0,0,1,1.2.44Z"/><path class="cls-2" d="M501,99a5.13,5.13,0,0,1-.8,2.79,6.75,6.75,0,0,1-2.26,2.14,12.59,12.59,0,0,1-3.5,1.37,19.62,19.62,0,0,1-4.59.5l-.54,0-.73,0a4.2,4.2,0,0,0,1.35,2.68,4.3,4.3,0,0,0,2.91,1,13.36,13.36,0,0,0,6.63-2v4.73a12.82,12.82,0,0,1-3.26,1.41,13.5,13.5,0,0,1-3.53.43,11.72,11.72,0,0,1-4.08-.67,8.38,8.38,0,0,1-3.08-2,8.72,8.72,0,0,1-1.93-3.06,11.31,11.31,0,0,1-.68-4,12.4,12.4,0,0,1,.79-4.52,10.45,10.45,0,0,1,2.2-3.53,9.79,9.79,0,0,1,3.4-2.3,11.45,11.45,0,0,1,4.37-.81A8.25,8.25,0,0,1,499,94.71,5.29,5.29,0,0,1,501,99Zm-6,.45a1.59,1.59,0,0,0-.62-1.24,2.36,2.36,0,0,0-1.56-.51,3.56,3.56,0,0,0-2.56,1,5,5,0,0,0-1.38,2.91,3.69,3.69,0,0,0,.71.09h.67Q495,101.78,495,99.48Z"/><path class="cls-2" d="M539.55,103.42a11.38,11.38,0,0,1-.74,4.26,8.66,8.66,0,0,1-2.11,3.12,9.06,9.06,0,0,1-3.27,1.93,13.92,13.92,0,0,1-8.47,0,9.06,9.06,0,0,1-3.27-1.93,8.83,8.83,0,0,1-2.13-3.12,12.16,12.16,0,0,1,0-8.41,8.73,8.73,0,0,1,2.08-3.1,9,9,0,0,1,3.27-1.93,14.57,14.57,0,0,1,8.54,0,9.13,9.13,0,0,1,3.27,1.89,8.46,8.46,0,0,1,2.11,3.09A11.35,11.35,0,0,1,539.55,103.42Zm-6,0a4.15,4.15,0,0,0-4.46-4.53,4.18,4.18,0,0,0-3.2,1.19,4.71,4.71,0,0,0-1.12,3.34,5,5,0,0,0,1.1,3.44,4.13,4.13,0,0,0,3.22,1.21,4.4,4.4,0,0,0,3.3-1.19A4.79,4.79,0,0,0,533.56,103.43Z"/><path class="cls-2" d="M559.39,87.56a8.66,8.66,0,0,0-1.62-.61,6.3,6.3,0,0,0-1.49-.16,4.1,4.1,0,0,0-1.84.36,2.57,2.57,0,0,0-1.13,1.15,6.35,6.35,0,0,0-.56,2.09,28.74,28.74,0,0,0-.15,3.2h4.76V98h-4.72v15.44h-6V97.86h-3.73V93.59h3.64a26.14,26.14,0,0,1,.5-5.56,9,9,0,0,1,1.51-3.56,5.59,5.59,0,0,1,2.52-1.89,10,10,0,0,1,3.48-.56,15.58,15.58,0,0,1,5.36.9Z"/><path class="cls-2" d="M574.91,113.39V82h6v31.37Z"/><path class="cls-2" d="M594.85,88.15a2.49,2.49,0,0,1-1,2,4.17,4.17,0,0,1-5,0,2.71,2.71,0,0,1-1.08-2.07,2.44,2.44,0,0,1,1-2.06,4,4,0,0,1,2.61-.84,4.09,4.09,0,0,1,1.33.23,3.4,3.4,0,0,1,1.12.63,3.26,3.26,0,0,1,.77,1A2.49,2.49,0,0,1,594.85,88.15Zm-6.75,25.24V93.59h6v19.8Z"/><path class="cls-2" d="M620.77,102.06a13.28,13.28,0,0,1-.78,4.66,10.18,10.18,0,0,1-2.22,3.57,10.29,10.29,0,0,1-3.48,2.29,12,12,0,0,1-4.51.81,23.42,23.42,0,0,1-4.5-.47,20.54,20.54,0,0,1-4.22-1.28V82.53h6V95.89a7.12,7.12,0,0,1,2.57-1.73,9,9,0,0,1,3.26-.57,8.48,8.48,0,0,1,3.23.6,7,7,0,0,1,2.5,1.71,7.92,7.92,0,0,1,1.6,2.67A10.1,10.1,0,0,1,620.77,102.06Zm-6,1.08a4,4,0,0,0-.9-2.75,3.31,3.31,0,0,0-2.55-1,4.16,4.16,0,0,0-3.18,1.37,4.41,4.41,0,0,0-.87,1.44,5.2,5.2,0,0,0-.28,1.71v3.43a5.49,5.49,0,0,0,1.41.52,8.1,8.1,0,0,0,1.64.13,4.63,4.63,0,0,0,3.47-1.29A4.85,4.85,0,0,0,614.78,103.14Z"/><path class="cls-2" d="M639.94,99.12q-.63-.14-1-.18a6.65,6.65,0,0,0-.81,0,4.6,4.6,0,0,0-3.9,1.75,8.67,8.67,0,0,0-1.32,5.23v7.51h-6v-13c0-.73,0-1.37,0-1.92s0-1-.11-1.52-.15-.93-.25-1.38-.25-1-.43-1.57h5.68c.1.37.18.69.26,1a4.49,4.49,0,0,1,.16.74c0,.23.06.48.09.74a6.41,6.41,0,0,1,.05.94,10.13,10.13,0,0,1,2.56-2.93,4.9,4.9,0,0,1,2.86-.85,4.39,4.39,0,0,1,1.05.11,11.51,11.51,0,0,1,1.2.44Z"/><path class="cls-2" d="M656.54,113.39c0-.21,0-.47,0-.77s0-.52-.07-.85,0-.68-.07-1a7.06,7.06,0,0,1-2.93,2.32,9.58,9.58,0,0,1-3.83.79,7.13,7.13,0,0,1-5.76-2.43c-1.36-1.62-2.05-3.93-2.05-6.93q0-5.45,3.31-8.4c2.2-2,5.35-2.94,9.42-2.94.67,0,1.28,0,1.83,0s1.09.09,1.64.16,1.11.17,1.69.29,1.21.29,1.91.5v12.78c0,.69,0,1.41,0,2.18s.07,1.46.13,2.09.12,1.49.18,2.21Zm-.94-14.67a9.25,9.25,0,0,0-1.42-.23c-.43,0-.83,0-1.19,0a4.82,4.82,0,0,0-3.85,1.59,6.59,6.59,0,0,0-1.37,4.44,4.4,4.4,0,0,0,.82,2.88,2.88,2.88,0,0,0,2.34,1,4.17,4.17,0,0,0,1.81-.41,4.53,4.53,0,0,0,1.48-1.15,5.39,5.39,0,0,0,1-1.75,6.75,6.75,0,0,0,.37-2.27Z"/><path class="cls-2" d="M681.74,99.12q-.63-.14-1-.18a6.65,6.65,0,0,0-.81,0,4.56,4.56,0,0,0-3.89,1.75,8.6,8.6,0,0,0-1.33,5.23v7.51h-6v-13q0-1.1,0-1.92A14.09,14.09,0,0,0,668.6,97a12.44,12.44,0,0,0-.25-1.38c-.1-.46-.24-1-.42-1.57h5.68c.09.37.17.69.25,1a4.49,4.49,0,0,1,.16.74c0,.23.07.48.1.74a8.46,8.46,0,0,1,0,.94,10.43,10.43,0,0,1,2.56-2.93,4.92,4.92,0,0,1,2.86-.85,4.54,4.54,0,0,1,1.06.11,12.43,12.43,0,0,1,1.19.44Z"/><path class="cls-2" d="M703.25,119.86a9.75,9.75,0,0,1-2,4.14,7,7,0,0,1-3.41,2.17,17.34,17.34,0,0,1-5,.63,15,15,0,0,1-2.89-.29c-1-.2-2-.46-3-.79v-4.49c1,.07,1.94.14,2.82.18s1.77.08,2.65.08a6.3,6.3,0,0,0,2.41-.42,3.67,3.67,0,0,0,1.67-1.36,6.7,6.7,0,0,0,1-2.5,21.53,21.53,0,0,0,.29-3.82V111a7.71,7.71,0,0,1-5.62,2.43,6.56,6.56,0,0,1-2.59-.53,6,6,0,0,1-2.14-1.52A7.6,7.6,0,0,1,686,109a8.67,8.67,0,0,1-.54-3.15c0-1.06,0-2.07.05-3s0-1.93,0-2.9,0-2,0-3-.07-2.13-.16-3.3h6c.09,1.19.14,2.3.15,3.31s0,2,0,2.89,0,1.76,0,2.59,0,1.65,0,2.47a3.73,3.73,0,0,0,.66,2.46,2.41,2.41,0,0,0,1.91.77,3.64,3.64,0,0,0,2.76-1.25,4.75,4.75,0,0,0,1.15-3.34v-9.9h6v19.8A27.94,27.94,0,0,1,703.25,119.86Z"/><path class="cls-2" d="M744.65,102.06a13.28,13.28,0,0,1-.78,4.66,10.18,10.18,0,0,1-2.22,3.57,10.34,10.34,0,0,1-3.47,2.29,12.09,12.09,0,0,1-4.52.81,23.24,23.24,0,0,1-4.49-.47,20.64,20.64,0,0,1-4.23-1.28V82.53h6V95.89a7.08,7.08,0,0,1,2.56-1.73,9,9,0,0,1,3.27-.57,8.43,8.43,0,0,1,3.22.6,7,7,0,0,1,2.5,1.71,7.76,7.76,0,0,1,1.6,2.67A10.1,10.1,0,0,1,744.65,102.06Zm-6,1.08a4,4,0,0,0-.91-2.75,3.29,3.29,0,0,0-2.55-1,4.21,4.21,0,0,0-1.81.37,4.14,4.14,0,0,0-1.37,1,4.22,4.22,0,0,0-.86,1.44,5.2,5.2,0,0,0-.29,1.71v3.43a5.49,5.49,0,0,0,1.41.52,8.1,8.1,0,0,0,1.64.13,4.62,4.62,0,0,0,3.47-1.29A4.86,4.86,0,0,0,738.67,103.14Z"/><path class="cls-2" d="M769.94,103.42a11.38,11.38,0,0,1-.74,4.26,8.41,8.41,0,0,1-2.11,3.12,9.06,9.06,0,0,1-3.27,1.93,13.89,13.89,0,0,1-8.46,0,9.19,9.19,0,0,1-3.28-1.93,8.68,8.68,0,0,1-2.12-3.12,12.09,12.09,0,0,1,0-8.41,8.75,8.75,0,0,1,2.09-3.1,8.87,8.87,0,0,1,3.27-1.93,14.53,14.53,0,0,1,8.53,0,9.13,9.13,0,0,1,3.27,1.89,8.22,8.22,0,0,1,2.11,3.09A11.35,11.35,0,0,1,769.94,103.42Zm-6,0a4.14,4.14,0,0,0-4.45-4.53,4.22,4.22,0,0,0-3.21,1.19,4.71,4.71,0,0,0-1.11,3.34,5,5,0,0,0,1.09,3.44,4.15,4.15,0,0,0,3.23,1.21,4.39,4.39,0,0,0,3.29-1.19A4.75,4.75,0,0,0,764,103.43Z"/><path class="cls-2" d="M795.36,103.42a11.18,11.18,0,0,1-.74,4.26,8.51,8.51,0,0,1-2.1,3.12,9.06,9.06,0,0,1-3.27,1.93,13.92,13.92,0,0,1-8.47,0,9.06,9.06,0,0,1-3.27-1.93,8.83,8.83,0,0,1-2.13-3.12,11,11,0,0,1-.76-4.26,10.82,10.82,0,0,1,.74-4.15,8.73,8.73,0,0,1,2.08-3.1,9,9,0,0,1,3.27-1.93,14.57,14.57,0,0,1,8.54,0,9.13,9.13,0,0,1,3.27,1.89,8.32,8.32,0,0,1,2.1,3.09A11.15,11.15,0,0,1,795.36,103.42Zm-6,0a4.15,4.15,0,0,0-4.46-4.53,4.18,4.18,0,0,0-3.2,1.19,4.71,4.71,0,0,0-1.11,3.34,5,5,0,0,0,1.08,3.44,4.16,4.16,0,0,0,3.23,1.21,4.42,4.42,0,0,0,3.3-1.19A4.79,4.79,0,0,0,789.38,103.43Z"/><path class="cls-2" d="M813,101.69l9.58,11.7h-7.92l-7.47-9.77v9.77h-6V82h6v18.09l7.29-6.52H823Z"/><path class="cls-2" d="M841.94,107.9a5.68,5.68,0,0,1-1.91,4.5,7.89,7.89,0,0,1-5.36,1.66,22.32,22.32,0,0,1-4.56-.45,13.6,13.6,0,0,1-3.61-1.21l.77-4.59a15.34,15.34,0,0,0,6.84,2,1.9,1.9,0,0,0,1.41-.43,1.29,1.29,0,0,0,.43-1,1.73,1.73,0,0,0-.34-1.11,5.17,5.17,0,0,0-1.64-1,27.22,27.22,0,0,1-3.17-1.62,10.68,10.68,0,0,1-2.16-1.69,5.75,5.75,0,0,1-1.21-1.87,6.1,6.1,0,0,1-.39-2.25,5.09,5.09,0,0,1,2.18-4.39,9.59,9.59,0,0,1,5.68-1.55,18,18,0,0,1,3.36.29,15.77,15.77,0,0,1,3.36,1.15l-.72,4.55a10.59,10.59,0,0,0-3.1-1.24,13.5,13.5,0,0,0-2.95-.34,2,2,0,0,0-1.43.38,1.38,1.38,0,0,0-.39,1,1.45,1.45,0,0,0,.62,1.23,12.43,12.43,0,0,0,2.39,1.24,28.56,28.56,0,0,1,2.73,1.55,10.24,10.24,0,0,1,1.85,1.53,4.89,4.89,0,0,1,1,1.67A5.76,5.76,0,0,1,841.94,107.9Z"/><path class="cls-2" d="M854.67,110.62a2.42,2.42,0,0,1-1,2,4,4,0,0,1-2.49.8,3.83,3.83,0,0,1-2.5-.86,2.59,2.59,0,0,1-.07-4.11,3.54,3.54,0,0,1,2.39-.84,4,4,0,0,1,2.62.89A2.7,2.7,0,0,1,854.67,110.62Z"/></svg>