<svg xmlns="http://www.w3.org/2000/svg" xmlns:xlink="http://www.w3.org/1999/xlink" width="619.88" height="562.43" viewBox="0 0 619.88 562.43">
  <defs>
    <style>
      .cls-1, .cls-31, .cls-45 {
        fill: none;
      }

      .cls-2 {
        isolation: isolate;
      }

      .cls-3 {
        fill: #fff;
      }

      .cls-4 {
        clip-path: url(#clip-path);
      }

      .cls-5 {
        clip-path: url(#clip-path-2);
      }

      .cls-6 {
        clip-path: url(#clip-path-3);
      }

      .cls-7 {
        fill: #f8e2b9;
      }

      .cls-8 {
        fill: #c3b6a2;
      }

      .cls-9 {
        fill: #88d1d1;
      }

      .cls-10 {
        fill: #a19687;
      }

      .cls-11 {
        fill: #cca96a;
      }

      .cls-12 {
        fill: #ecc8a9;
        opacity: 0.5;
      }

      .cls-12, .cls-15 {
        mix-blend-mode: multiply;
      }

      .cls-13 {
        fill: #583513;
      }

      .cls-14 {
        fill: url(#Áåçûìÿííûé_ãðàäèåíò_2);
      }

      .cls-15 {
        fill: #dfd4c2;
        opacity: 0.9;
      }

      .cls-16 {
        fill: #74461c;
      }

      .cls-17, .cls-22 {
        stroke: #6f287a;
      }

      .cls-17, .cls-22, .cls-23, .cls-25, .cls-26, .cls-28 {
        stroke-linejoin: round;
      }

      .cls-17, .cls-18, .cls-19, .cls-20, .cls-22, .cls-23, .cls-24, .cls-25, .cls-26, .cls-28, .cls-29, .cls-31, .cls-32, .cls-34, .cls-36, .cls-37, .cls-46, .cls-54, .cls-56, .cls-66 {
        stroke-width: 0.5px;
      }

      .cls-17 {
        opacity: 0.3;
      }

      .cls-18 {
        fill: #c49ac6;
      }

      .cls-18, .cls-29, .cls-31, .cls-40 {
        stroke: #453423;
      }

      .cls-18, .cls-19, .cls-20, .cls-24, .cls-29, .cls-31, .cls-32, .cls-34, .cls-36, .cls-37, .cls-40, .cls-42, .cls-45, .cls-46, .cls-54, .cls-56, .cls-66 {
        stroke-miterlimit: 10;
      }

      .cls-19 {
        fill: #3295d1;
        stroke: #2b3780;
      }

      .cls-20 {
        fill: #d7b1a7;
      }

      .cls-20, .cls-32, .cls-36 {
        stroke: #323232;
      }

      .cls-21 {
        fill: #b78d86;
      }

      .cls-22 {
        fill: #bf79b2;
      }

      .cls-23 {
        fill: #999398;
        stroke: #423a33;
      }

      .cls-24 {
        fill: #61435b;
        stroke: #1c101a;
      }

      .cls-25 {
        fill: #686c71;
        stroke: #211f1c;
      }

      .cls-26, .cls-27 {
        fill: #301616;
      }

      .cls-26 {
        stroke: #1c0e0a;
      }

      .cls-28, .cls-53 {
        fill: #df71e2;
      }

      .cls-28 {
        stroke: #710e7c;
      }

      .cls-29, .cls-44 {
        fill: #f8d0c5;
      }

      .cls-30 {
        fill: #da9c8d;
      }

      .cls-32, .cls-59 {
        fill: #f6cfc4;
      }

      .cls-33 {
        fill: #e3b0a4;
      }

      .cls-34 {
        fill: #2e1617;
        stroke: #201d1e;
      }

      .cls-35 {
        fill: #be8574;
      }

      .cls-36 {
        fill: #fac7b3;
      }

      .cls-37 {
        fill: #891733;
        stroke: #cc5254;
      }

      .cls-38 {
        fill: #d31e49;
      }

      .cls-39 {
        fill: #bc224a;
      }

      .cls-40 {
        fill: #fefefe;
      }

      .cls-40, .cls-42, .cls-45 {
        stroke-width: 0.25px;
      }

      .cls-41 {
        fill: #2d1618;
      }

      .cls-42 {
        fill: #d6aba5;
      }

      .cls-42, .cls-45 {
        stroke: #7f451d;
      }

      .cls-43 {
        fill: #2f1718;
      }

      .cls-46, .cls-56 {
        fill: #f4cec4;
      }

      .cls-46 {
        stroke: #73381b;
      }

      .cls-47 {
        fill: #44b09c;
      }

      .cls-48 {
        fill: #278c7b;
      }

      .cls-49 {
        fill: #dedbc7;
      }

      .cls-50 {
        fill: #e8e5db;
      }

      .cls-51 {
        fill: #344f5e;
      }

      .cls-52 {
        fill: #ee3d59;
      }

      .cls-54 {
        fill: #62445b;
        stroke: #1d111b;
      }

      .cls-55 {
        fill: #f6e0d9;
      }

      .cls-56 {
        stroke: #6d3922;
      }

      .cls-57 {
        fill: #342517;
      }

      .cls-58 {
        fill: #da9b8d;
      }

      .cls-60 {
        fill: #323232;
      }

      .cls-61 {
        fill: #ec5d80;
      }

      .cls-62 {
        fill: #f8f5f0;
      }

      .cls-63 {
        fill: #fdcc2e;
      }

      .cls-64 {
        fill: #8f4f38;
      }

      .cls-65 {
        fill: #2d1708;
      }

      .cls-66 {
        fill: #864b31;
        stroke: #68331e;
      }

      .cls-67 {
        fill: #c8e9f1;
      }
    </style>
    <clipPath id="clip-path">
      <rect class="cls-1" x="40.05" y="56.3" width="539.79" height="449.82" rx="116.93"/>
    </clipPath>
    <clipPath id="clip-path-2">
      <rect class="cls-1" x="-132.57" y="40.65" width="855.33" height="481.13"/>
    </clipPath>
    <clipPath id="clip-path-3">
      <polygon class="cls-1" points="625.86 593.94 -102.28 593.94 133.09 -127.96 618.77 -97.1 625.86 593.94"/>
    </clipPath>
    <linearGradient id="Áåçûìÿííûé_ãðàäèåíò_2" data-name="Áåçûìÿííûé ãðàäèåíò 2" x1="216.33" y1="156.11" x2="526.14" y2="156.11" gradientUnits="userSpaceOnUse">
      <stop offset="0" stop-color="#6c9861"/>
      <stop offset="1" stop-color="#78aa6a"/>
    </linearGradient>
  </defs>
  <g class="cls-2">
    <g id="Layer_1" data-name="Layer 1">
      <g>
        <rect class="cls-3" x="30.65" y="47.2" width="558.58" height="468.03" rx="124.49"/>
        <g class="cls-4">
          <g class="cls-5">
            <g>
              <g class="cls-6">
                <g>
                  <path class="cls-7" d="M-179,391.33c-1.14,22.54-2.3,45.21,1.18,67.67a24.14,24.14,0,0,1,1.45,7.13H794.67c-.38-7.11-.66-14.22-.89-21.35-.4-12.6-.75-25.2-1.55-37.79l-109-51.74H-92l-86.49,25.26C-178.67,384.12-178.83,387.72-179,391.33Z"/>
                  <path class="cls-8" d="M857.66,645.72c-.52-44.26-1-88.53-2.12-132.74-1-38.17-2.3-76.27-3.08-114.44l-35.41-45.31-1061.47-.1-27.7,129.19,14.81,227.59h1116Q858,677.86,857.66,645.72Z"/>
                  <polygon class="cls-9" points="-160.18 -19.8 -160.69 366.2 713.89 364.95 715.9 -19.57 -160.18 -19.8"/>
                  <path class="cls-10" d="M-216.27,427.58H773l-1.71-1.08-987.56-.3C-216.24,426.66-216.26,427.12-216.27,427.58Z"/>
                  <path class="cls-10" d="M-215.53,474.08h989.3l-1.7-1.09-987.56-.3C-215.5,473.16-215.52,473.62-215.53,474.08Z"/>
                  <path class="cls-10" d="M-215.53,532.38h989.3l-1.7-1.09L-215.49,531C-215.5,531.46-215.52,531.92-215.53,532.38Z"/>
                  <path class="cls-10" d="M-215,386.85H715.12l-1.74-1L-215,385.46Z"/>
                  <path class="cls-10" d="M-66.17,629.16,62.54,378.89l-1.47-1.2-131,251.44Z"/>
                  <path class="cls-10" d="M102.67,636.66l76.08-273.59-1.42-.48L99.92,636.7Z"/>
                  <path class="cls-10" d="M272.58,770l5.48-419.19-2,1.19-6.86,418.27Z"/>
                  <path class="cls-10" d="M471.25,769.09,390.67,352.57l-1.6,2.59L467.58,769.1Z"/>
                  <path class="cls-10" d="M690.58,761.78,493,363.25l-1,3.91L685.13,761.83Z"/>
                  <path class="cls-10" d="M834.11,657.26,608,352.73l-.61,4.18L834.23,666.72Z"/>
                  <polygon class="cls-11" points="-165.12 366.5 711.28 365.03 711.29 350.34 -165.12 351.82 -165.12 366.5"/>
                  <rect class="cls-1" x="-155.94" y="-14.21" width="853.86" height="480.29"/>
                  <rect class="cls-1" x="-158.37" y="-11.63" width="853.86" height="480.29"/>
                </g>
              </g>
              <g>
                <g>
                  <rect class="cls-12" x="197.56" y="267.1" width="347.35" height="7.82" rx="1.78"/>
                  <rect class="cls-13" x="197.56" y="263.3" width="347.35" height="7.82" rx="1.78"/>
                  <g>
                    <rect class="cls-14" x="216.33" y="56" width="309.81" height="200.23"/>
                    <path class="cls-15" d="M216.33,56V256.22H526.14V56ZM522.66,252.68H219.81V59.54H522.66Z"/>
                    <path class="cls-16" d="M209.37,48.92l7,7.08H526.14l7-7.08Z"/>
                    <polygon class="cls-16" points="533.1 263.3 209.37 263.3 216.33 256.22 526.14 256.22 533.1 263.3"/>
                    <polygon class="cls-16" points="216.33 56 216.33 256.22 209.37 263.3 209.37 48.92 216.33 56"/>
                    <polygon class="cls-16" points="533.1 48.92 533.1 263.3 526.14 256.22 526.14 56 533.1 48.92"/>
                  </g>
                </g>
                <rect class="cls-3" x="280.65" y="259.49" width="27.8" height="3.81" rx="1.09"/>
              </g>
            </g>
          </g>
          <g>
            <g>
              <ellipse class="cls-17" cx="192.33" cy="463.08" rx="65.15" ry="25.92"/>
              <ellipse class="cls-17" cx="402.48" cy="463.08" rx="65.15" ry="25.92"/>
              <path class="cls-18" d="M236.33,356.65s2.79.24.08-7.6"/>
              <path class="cls-19" d="M387.49,395.51a89.33,89.33,0,0,0,13.65,2.63,87.61,87.61,0,0,0,12.13.54l-1.86,7.42s-23-2.12-25.07-3.71A52.76,52.76,0,0,0,387.49,395.51Z"/>
              <g>
                <g>
                  <g>
                    <path class="cls-20" d="M228.65,380c.14,1.82.19,3.89.16,6.27-.05,4-.23,8-.51,11.76a224.88,224.88,0,0,1-9.1,49.41l-14.38,6.75L202,399.87l-.65-12.55,5.82-5.43,4.5-4.2S226.87,356.07,228.65,380Z"/>
                    <path class="cls-21" d="M229,385.29c.14,1.82.19,3.89.17,6.27-.06,4-1.43,7.66-1.71,11.46-4.5,1-7.85,2.08-12.44,2.58-3.13.34-8.67.91-12.64-.42l-.65-12.56,5.82-5.43a36.52,36.52,0,0,1,9.33-2.23A41.37,41.37,0,0,1,229,385.29Z"/>
                    <path class="cls-22" d="M203.22,413.19s14.85,5,23.64-4.78c0,0-3.37,26.93-6.6,30s-15.84-.14-15.84-.14Z"/>
                    <path class="cls-23" d="M201.85,412.5a.39.39,0,0,0,.08.21c.53.61,3.89,3.87,14.64,2.14,11.84-1.92,12.28-7.3,12.28-7.3l.19-2.61a.34.34,0,0,0-.52-.32c-2.86,1.85-15.78,9.51-26.34,4a.34.34,0,0,0-.5.32Z"/>
                  </g>
                  <g>
                    <path class="cls-24" d="M234.11,361.28c.53,10.57-1.41,24-.88,34.56l-34.41,1.08-.09-4.05-.21-10.45L198.15,365l-.48-22.22C209,349.9,222.78,354.16,234.11,361.28Z"/>
                    <path class="cls-24" d="M199.16,395.2c4.55.21,25.69,1,33.39-2.51.58-.26,1.37-.06,1.34.35l-.36,5.9c0,.2-.23.39-.55.47-3.3.83-21.27,5-35.18,1.15-.3-.08-.47-.27-.43-.46l.82-4.43C198.24,395.39,198.68,395.18,199.16,395.2Z"/>
                  </g>
                </g>
                <g>
                  <path class="cls-25" d="M203.87,452.53a6.08,6.08,0,0,0-.56,4.87c.92,2.49,7,4.25,7,4.25s4.49,10.42,20,9.13c17.73-1.47,10.65-14.86,10.65-14.86Z"/>
                  <path class="cls-26" d="M211.06,457.68s-1.15,11.95,18.89,11.18c18.87-.72,17.3-21.13-6.39-20.27S211.06,457.68,211.06,457.68Z"/>
                  <path class="cls-26" d="M204.74,449.7c-.09-1.34-.23-3.41-.46-6-.26-3-.37-3.67.1-4.22,1.22-1.46,3.94.45,8.5.24,5.45-.25,8.07-3.12,9.3-2,.68.63.85,2.44-2,8Z"/>
                  <path class="cls-27" d="M220.19,445.73a62.94,62.94,0,0,1,7.85,3s-8.6-.76-16.53,11.73l-6.87-3.9s-3.27-2.65.1-7.59"/>
                </g>
                <g>
                  <g>
                    <path class="cls-20" d="M192.07,396.74c-.86,2.29-1.68,4.53-2.48,6.75C179,432.57,173,455.6,173,455.6l-11.5-3c-4-18.47-.71-43.05,1.37-55,.78-4.44,1.39-7.14,1.39-7.14S204.15,364.55,192.07,396.74Z"/>
                    <path class="cls-21" d="M190.31,400.74c-.86,2.28-2.36,5.43-3.16,7.65a32.47,32.47,0,0,1-6.23.15,44.48,44.48,0,0,1-13.69-3,24.51,24.51,0,0,1-4.85-2.61c.78-4.45,1-7.42,1-7.42S202.39,368.54,190.31,400.74Z"/>
                    <path class="cls-22" d="M161.49,411.08s7.82,9.35,23.18,5.06c0,0-7.83,23.79-11.31,34.89l-8.43,4.84-4.8-18.78S159.45,420.08,161.49,411.08Z"/>
                    <path class="cls-23" d="M159.47,413.11a.35.35,0,0,0,0,.22c.43.85,3.68,6.53,12.6,8,8.76,1.4,12.9-.93,13.58-1.37a.28.28,0,0,0,.14-.18l1.28-3.62a.34.34,0,0,0-.4-.45c-3.07.72-17,3.33-26.11-6.13a.34.34,0,0,0-.58.18Z"/>
                  </g>
                  <g>
                    <path class="cls-25" d="M168.29,465.46c-.27,5.1-3.8,11.59-20.1,10.72-7-.38-11.76-4.75-11.49-9.85s11.28-11,18.31-10.65S168.56,460.37,168.29,465.46Z"/>
                    <path class="cls-25" d="M172.37,453.44c2.13,6.2,3,17.5-11.66,14-6.85-1.64-12.86-3.1-12.6-8.2s8-8.31,15-7.94S171.09,449.72,172.37,453.44Z"/>
                    <path class="cls-26" d="M167.87,453.76H168a6.51,6.51,0,0,0,6.08-2.6h0s1.83,11.19-5.78,14.29-20.77-4.54-20.77-4.54l-3.58-2.3c6.29-3.5,8.62-6.74,11.93-8.42h0L166,448.38"/>
                    <path class="cls-27" d="M169.4,465.32c-.81,5.47-13.48,11.42-26.08,7.31-7-2.28-7.86-5.51-5.31-10.43,3.33-6.43,9.86-8,15.6-6.65C160.78,457.22,170.21,459.86,169.4,465.32Z"/>
                    <path class="cls-26" d="M154.47,451.08a11.69,11.69,0,0,0,3.43-2.95,9.09,9.09,0,0,0,1.95-3.71c.55-2.41-.38-3.93.26-4.32s1.42.73,3.36,1.85a14.36,14.36,0,0,0,7.06,2.12c2.53,0,4-1,4.77-.18.39.43.39,1,.36,2.11a12.79,12.79,0,0,1-.72,3.91,65.79,65.79,0,0,0-2.12,7.23"/>
                  </g>
                  <g>
                    <path class="cls-24" d="M211.45,358.37l-3.83,23.74c-2.86,1.54-5.21-1.75-7,.34l-3,4.82-2.85,11a54.16,54.16,0,0,1-35.63-7.73q1.57-12.94,3.14-25.89L164,351l34.66,11.13Z"/>
                    <path class="cls-24" d="M160.24,390c5.08,2,20.19,7.31,33.22,7.11,1.08,0,2,.67,1.71,1.3l-2,4.61a1.27,1.27,0,0,1-1.16.58c-4.25.14-22.29.21-34.56-8.37a.79.79,0,0,1-.41-.86l1.1-3.87C158.29,389.86,159.34,389.61,160.24,390Z"/>
                  </g>
                </g>
                <path class="cls-28" d="M247.62,287.78c-16.79,1-16.71,23.62-36.59,23.14s-35.74-11.64-35.41-24.9c.24-10,9.58-18.32,22.67-21.62a51.64,51.64,0,0,1,13.91-1.51,50.08,50.08,0,0,1,18.11,3.73C240.87,271.05,247.83,279,247.62,287.78Z"/>
                <g>
                  <g>
                    <g>
                      <g>
                        <path class="cls-29" d="M259.52,310.35s-6.54,6.43-17.16-2.25a48.36,48.36,0,0,1-8.46-9.36c-6.84-9.51,14.11-15.5,14.11-15.5l7.74,6.17,8.39,8.12S271.79,308.36,259.52,310.35Z"/>
                        <path class="cls-30" d="M255.67,289.63c-1.74,4.41-5.33,11.11-13.2,18.26a46.37,46.37,0,0,1-8.57-9.15c-6.84-9.51,14.11-15.5,14.11-15.5Z"/>
                      </g>
                      <path class="cls-29" d="M246.94,310.81c13.7,6.6,31.9,8.43,53.45-.53l-.4-8.17c-.9-.69-31.3-3.42-36.95-5.5"/>
                    </g>
                    <g>
                      <path class="cls-29" d="M302.28,291.46s7.16-9.68,13.77-6.26c4.34,2.26,3.12,3,.61,6.19,0,0,4.95,3.13,1.73,6.66,0,0,4.52,3.65.75,5.5,0,0,2.13,1.84-1.17,3.45s-18.15,4.3-20.49,3.7-5.87-5.17-4.2-11.54,9-7.7,9-7.7"/>
                      <path class="cls-29" d="M292.86,301.82s-1-5.5,4.11-11.27c4.83-5.45,7.29-2.31,9.71-1.77s6.88,1.07,1.69,3.65-4.81-.78-5.89,5.18-1.31,3.26-2.25,5.18"/>
                      <path class="cls-29" d="M316.66,291.39c-.92,1.15-8.57,3-8.57,3"/>
                      <path class="cls-31" d="M318.39,298.05s-6.29,2.6-9,1.28-4.31-4.83-1.33-4.9"/>
                      <path class="cls-31" d="M319.33,303.17s-6.3,2.6-9,1.28-4.31-4.83-1.34-4.89"/>
                      <path class="cls-31" d="M319.1,306.75s-6.29,2.6-9,1.29-4.31-4.83-1.34-4.9"/>
                    </g>
                  </g>
                  <path class="cls-28" d="M230.61,266c1.12-.45,28.94,23.11,28.89,24.2,0,0-5.4,13.09-17.68,19.61L215.7,288.14"/>
                </g>
                <path class="cls-28" d="M242.78,290.72c-.8,20-3.71,41.61-6.17,57.06-.07.43-.14.85-.2,1.27-2,12.11-3,17.19-3,17.19l-.83-3.89C192.91,367.11,164,351,164,351c.91-4.77.76-7.76,1.71-12,9-40.2,19.28-58.08,19.28-58.08"/>
                <g>
                  <path class="cls-29" d="M231.19,269.79s-.93,6.19-12.2,5.59c-8.64-.46-14.88-10.17-14.88-10.17a12.78,12.78,0,0,0,.63-1.36c2.54-6.39-.26-13.67-.26-13.67S236,239.8,232,250.85c-2.73,7.51-1.45,7.91-.28,9.86C232.23,261.63,231.19,269.79,231.19,269.79Z"/>
                  <path class="cls-30" d="M231.55,264.69A33.9,33.9,0,0,1,205,264c2.53-6.38-.5-13.78-.5-13.78S236,239.8,232,250.85C229.23,258.36,230.37,262.73,231.55,264.69Z"/>
                  <g>
                    <path class="cls-32" d="M276.29,232.85c-3,4.81-8.36,6.78-11.38,5.32s-2.13-5.86.19-10.66,6.67-7.51,9.68-6C278.89,223.48,279.08,228.33,276.29,232.85Z"/>
                    <path class="cls-30" d="M271.78,223.24a2.48,2.48,0,0,1,2.86.11,2.6,2.6,0,0,1,.71,2,10.7,10.7,0,0,1-1.85,5.57c-1.24,2.06-3,4.12-5.58,4.48a1.16,1.16,0,0,1-.69-.07c-.49-.25-.43-.88-.29-1.35l.57-1.93a2.18,2.18,0,0,1,.6-1.14,3.14,3.14,0,0,1,1.26-.47,3.09,3.09,0,0,0,2-1.21,1.48,1.48,0,0,0-.17-1.68c-.4-.44-1.45-.36-1.69-.84C269.09,225.89,271.12,223.65,271.78,223.24Z"/>
                  </g>
                  <path class="cls-29" d="M264.71,237.19c-6.41,23.72-38.82,29.47-47.45,27.14-11-3-40.6-10.8-38.76-54a7.64,7.64,0,0,1,.21-1.08v0c3.08-16.53-.55-32.6,2.07-38.78,9.06-21.38,11.69-12.06,38.42-10.37,25,1.58,35.49,3.18,48.64,18.26,1.16,1.32,5.41,3.31,4.84,7.31-1,6.83-1.61,12-2.12,16.06C268.81,215.88,269.8,218.37,264.71,237.19Z"/>
                  <path class="cls-33" d="M271.33,201c-5.43-10.12-13.27-15.42-23.27-18.76-12.88,6.43-25.9,9.34-39.39,4.32,18.89-11.6,6-8.69,9.73-11.59-.58,3.63-8.37,7.83-15.05,3.79A47.19,47.19,0,0,1,188,192.35c-2.12,1.16-6.93,11.72-7.55,13.18-.36.86-.61,2-1,3,3.07-16.53-.55-32.6,2.07-38.78,9.06-21.38,11.68-12.06,38.41-10.37,25,1.58,35.5,3.18,48.64,18.26,1.16,1.33,5.42,3.31,4.85,7.31C272.48,191.75,271.83,196.87,271.33,201Z"/>
                  <path class="cls-34" d="M246.43,179.76s-8.6,10.56-37.6,5.77c0,0,14.1-8.65,7.54-11.42,0,0-5.72,7-14.88,1.69,0,0,4.49,1.64-15.23,15.22,0,0-5.77,4.87-7,18.58-.08.92-6.57-2.16-5.38-11.75,0,0-10.49-11.86,1.31-23.08,0,0-7.58-19.75,11.43-23,0,0,4.8-17.53,19-16.24,0,0,18.35-19.49,37-1,0,0,20.33-6,27.75,13.64,0,0,13.67,7.65,9.51,20.65,0,0,17.78,12.14,3.57,24.27,0,0,3.52,11.52-8.35,22.41l-6.95,11.9,0-5.06c1.56-10.56,3.94-13.94.71-24.12C268.92,198.31,266.84,182.4,246.43,179.76Z"/>
                  <path class="cls-35" d="M226.93,227s.1,3.23,4.75,4.09,6.07-2.37,6.07-2.37S232.27,232.7,226.93,227Z"/>
                  <g>
                    <path class="cls-36" d="M164.06,214.74c1.08,8.2,7,14.53,11.76,14.83s6.17-5.92,5.91-13.64-4.33-14.24-9.1-14.52C166.1,201,163.05,207,164.06,214.74Z"/>
                    <path class="cls-30" d="M176.19,206.65a5,5,0,0,0-4.56-1.93,3.59,3.59,0,0,0-2.41,2c-1.35,2.59-1.23,5.63-.74,8.58.6,3.58,2,7.52,5.83,9.87a2.48,2.48,0,0,0,1.14.43c.92,0,1.24-.84,1.33-1.55l.37-2.92a3,3,0,0,0-.2-1.92,6,6,0,0,0-1.67-1.53,5.36,5.36,0,0,1-2.33-3,1.89,1.89,0,0,1,1.37-2.05c.92-.28,2.51.58,3.21.15C178.68,212.06,177,207.67,176.19,206.65Z"/>
                  </g>
                  <g>
                    <path class="cls-37" d="M219.34,235.83c7.65,3.47,13.14,5.2,19.16,3.07,3.46-1.23,7.79,7.94,3.34,13.1-15.56,18-32.47,1-32.56-5.28C209.25,244.17,211.7,232.37,219.34,235.83Z"/>
                    <path class="cls-3" d="M219.34,235.83c7.65,3.47,13.14,5.2,19.16,3.07,1.73-.62,3.27,1.56,4.23,4.35s-32.59-1.12-30.93-4C213.37,236.54,215.63,234.15,219.34,235.83Z"/>
                    <path class="cls-38" d="M218.89,244.07a24.44,24.44,0,0,0,6.22,2.9c2.77.66,6.81-2.85,9.66.87s3.19,5.56,1.74,6.26a11.39,11.39,0,0,1-7,.49c-5-1.54-6,4.51-7.35,4.46-1.6-.06-10.17-4.57-11.8-10.08C210.37,249,210.8,242.4,218.89,244.07Z"/>
                    <path class="cls-39" d="M216.5,246.18c4.52,1.66,1.51,4.6,10.54,8.15-2.87.64-3.8,4.76-4.87,4.72-1.6-.06-9.32-3.51-10.94-9C211.23,250,212,244.53,216.5,246.18Z"/>
                    <path class="cls-3" d="M238.26,255.54c-10.54,8.7-21.06,3.11-26-2.8C210.38,250.54,221,257.22,238.26,255.54Z"/>
                  </g>
                </g>
                <g>
                  <circle class="cls-40" cx="214.5" cy="214.85" r="8.79"/>
                  <path class="cls-41" d="M210.14,221c-.88-2,1.07-5.16,3.7-6.23a6.51,6.51,0,0,1,6.59,1.27c.12.12,1.8,1.88,1.23,3.68a4.18,4.18,0,0,1-2,2.11,7.14,7.14,0,0,1-2.64,1C215.24,223.22,211.13,223.3,210.14,221Z"/>
                  <circle class="cls-3" cx="215.5" cy="214.57" r="1.68"/>
                  <path class="cls-42" d="M205.88,216.57a10.48,10.48,0,0,1,7.93-7.28c4.44-.7,8.9,2.74,9.08,3l0,0a7.62,7.62,0,0,0-1.34-2.63,9.32,9.32,0,0,0-6.62-3.51,9,9,0,0,0-8.3,4.73,9.7,9.7,0,0,0-.78,2.68A11,11,0,0,0,205.88,216.57Z"/>
                </g>
                <path class="cls-40" d="M257,221.34c-1,5.61-10.07,8.76-14.58,5.31a8.1,8.1,0,0,1-2.64-7.79,8.93,8.93,0,0,1,10-7.14C254.83,212.55,257.72,217.58,257,221.34Z"/>
                <path class="cls-41" d="M245.15,225.91c-1.36-4.31,1.16-8.16,3.71-8.63s6.26,2.23,6.53,6.73A7.15,7.15,0,0,1,251,227.2,7.23,7.23,0,0,1,245.15,225.91Z"/>
                <circle class="cls-3" cx="247.65" cy="218.44" r="1.68"/>
                <g>
                  <path class="cls-43" d="M240.14,211.46a146.38,146.38,0,0,0,14.59-2.85c4.59-1.37,6.88-.81,8.72,1-.69-4.18-6.57-4.47-9.87-3.72C246.69,207.24,241.16,207.43,240.14,211.46Z"/>
                  <path class="cls-44" d="M238.93,224.56a24.69,24.69,0,0,0,4.55,1.09c2.38.34,8,1.13,12.51-2a12.28,12.28,0,0,0,1.55-1.28c0,1,.08,8.15-5.23,12.06-.93.69-3.33,2.46-6.07,2C242.43,235.77,239.17,231,238.93,224.56Z"/>
                  <path class="cls-44" d="M205.56,216.62a7.36,7.36,0,0,0,1.65,2.35,9.54,9.54,0,0,0,4,2.1,13.5,13.5,0,0,0,4.31,1,10.59,10.59,0,0,0,7.06-3,6.46,6.46,0,0,1-.76,4.54c-2.17,3.4-8.05,3.58-11.77,1.57a9.61,9.61,0,0,1-2.88-2.39C206.61,220.68,206.08,218.65,205.56,216.62Z"/>
                  <path class="cls-34" d="M222.87,205s-7.39-5.55-7.89-5.89-5.72.29-7.77,1.54c4.47-5,6.8-3.89,9-3.11s9.79,6,9.79,6S227,208.07,222.87,205Z"/>
                  <path class="cls-42" d="M239.84,222.15c.21-.64,1.3-5.75,5.93-7.72s9.26.8,9.86,1.1a8.55,8.55,0,0,0-5.12-3.89,8.66,8.66,0,0,0-7.18,1.56,9.87,9.87,0,0,0-2.6,3,8.83,8.83,0,0,0-.89,5.92Z"/>
                </g>
                <path class="cls-45" d="M241,225a10.3,10.3,0,0,0,5,1c2.57,0,8.14,0,10.75-3.28"/>
                <path class="cls-45" d="M206.21,217.79a13.22,13.22,0,0,0,2.26,1.94,12.59,12.59,0,0,0,4.23,1.86,9.89,9.89,0,0,0,5.83-.09,9.34,9.34,0,0,0,4.11-3"/>
              </g>
              <path class="cls-46" d="M338.56,316.77s16.47-4.53,32.18-21.4l9.94,20.69s-14.34,14.29-36,12.83Z"/>
              <g>
                <g>
                  <path class="cls-47" d="M344.47,341.72l-44.3,2.54V281.81l44.06-2.52a1.78,1.78,0,0,1,2,1.62V340.1A1.74,1.74,0,0,1,344.47,341.72Z"/>
                  <path class="cls-47" d="M248.1,341.72l44.3,2.54V281.81l-44-2.52a1.78,1.78,0,0,0-2,1.62V340.1A1.73,1.73,0,0,0,248.1,341.72Z"/>
                  <path class="cls-47" d="M292.4,344.26a7.53,7.53,0,0,0,7.77,0V281.81H292.4Z"/>
                </g>
                <path class="cls-48" d="M344.23,277.85l-44.06,2.52H292.4l-44-2.52a1.78,1.78,0,0,0-2,1.63v59.18a1.73,1.73,0,0,0,1.75,1.62l44.3,2.54h0a7.53,7.53,0,0,0,7.77,0h0l44.3-2.54a1.74,1.74,0,0,0,1.76-1.62V279.48A1.79,1.79,0,0,0,344.23,277.85Z"/>
                <g>
                  <polygon class="cls-49" points="296.29 342.82 250.35 338.98 250.35 277.96 252.01 274.05 252.01 336.55 274.15 329.04 296.29 342.82"/>
                  <path class="cls-50" d="M296.29,342.82V280.35a135.37,135.37,0,0,0-44.28-6.3v62.5C265.44,336.59,280.4,339,296.29,342.82Z"/>
                  <path class="cls-49" d="M296.29,342.82V280.35c-13.38-4.56-27.5-8.94-40.69-8.46v62.5C267.69,334.43,282,339,296.29,342.82Z"/>
                  <path class="cls-50" d="M296.29,280.35v62.47C282,339,271,331.55,258.91,331.52V269A38.34,38.34,0,0,1,270,270.33q2.07.54,4.11,1.23C281.31,274,288.35,277.65,296.29,280.35Z"/>
                  <polygon class="cls-49" points="296.29 342.82 342.22 338.98 342.22 277.96 340.56 274.05 340.56 336.55 318.43 329.04 296.29 342.82"/>
                  <path class="cls-50" d="M296.29,342.82V280.35a135.27,135.27,0,0,1,44.27-6.3v62.5C327.14,336.59,312.17,339,296.29,342.82Z"/>
                  <path class="cls-49" d="M296.29,342.82V280.35c13.38-4.56,27.5-8.94,40.68-8.46v62.5C324.89,334.43,310.59,339,296.29,342.82Z"/>
                  <path class="cls-50" d="M296.29,342.82V280.35c13.38-4.56,24.18-11.81,37.37-11.34v62.51C321.58,331.55,310.59,339,296.29,342.82Z"/>
                  <path class="cls-49" d="M296.29,342.82V280.35c13.38-4.56,19.77-14.69,33-14.21v62.5C317.16,328.68,310.59,339,296.29,342.82Z"/>
                </g>
                <path class="cls-51" d="M292.4,342.82h7.77s-.27-2.92-3.88-2.92S292.4,342.82,292.4,342.82Z"/>
                <path class="cls-52" d="M274.15,271.56v20.8l-1.9-3.44L270,292.36v-22Q272.11,270.87,274.15,271.56Z"/>
              </g>
              <g>
                <g>
                  <path class="cls-28" d="M416.86,281.71s-5.85,6.45-16.15,17.39A72.67,72.67,0,0,1,387.78,310a45.58,45.58,0,0,1-7.2,4,27.25,27.25,0,0,1-10-19.16,78.39,78.39,0,0,0,6.94-6.58c7.74-8.11,15.64-18.38,15.64-18.38Z"/>
                  <path class="cls-53" d="M387.87,309.11a34.5,34.5,0,0,1-7.74,3.51c-9.89-7.68-9-17.76-9-17.76a65.56,65.56,0,0,0,6.12-5.72C377.16,293.5,378.77,301.43,387.87,309.11Z"/>
                </g>
                <g>
                  <g>
                    <path class="cls-20" d="M393.52,403.23l-2.38,26s6.54,2.14,4.48,9.09c2.6,4.62,10.34-1.2,10.34-1.2s9-24.54,5.78-33.73C398.09,403.54,393.52,403.23,393.52,403.23Z"/>
                    <path class="cls-22" d="M393.54,411.75s14.83,3.68,19.28,2c-2.37,11.11-6,22.79-6,22.79s-6.59,5.74-10.81,2.29c.59-5.6-1.47-9.48-4-10.18l.7-16.4Z"/>
                    <path class="cls-23" d="M391.92,408.58l20.94,2.28-.89,3.47s.59,1.75-20.13-1.5Z"/>
                  </g>
                  <g>
                    <path class="cls-25" d="M382.48,442.78l12.79-1s10.19,2.68,12.62-3.24c0,0,1.13,8.08-.3,11.48s-5.4,4.63-12.58,6.92c-6.84,2.18-13.89,10.25-28.35,5.32a6.2,6.2,0,0,1-3.75-8.32,11,11,0,0,1,2.74-3.57C372.34,444.23,376.61,444.18,382.48,442.78Z"/>
                    <path class="cls-26" d="M382.59,439.1l12.79-1s10.18,2.68,12.62-3.24c0,0,1.12,8.08-.31,11.48s-5.39,4.63-12.58,6.92c-6.84,2.18-13.88,10.25-28.34,5.32a6.19,6.19,0,0,1-3.75-8.32,11,11,0,0,1,2.73-3.57C372.45,440.55,376.71,440.5,382.59,439.1Z"/>
                    <path class="cls-27" d="M408.07,431.25s-6.55,4.06-8.91,3.88c1.24-2.82,2.06-4.37-.59-5.07a57,57,0,0,0-7.68-1.07s-4.4,6.79-5,7.71-6.1,3-6.1,3,18.76,1.19,21.54.08,6.81-2.28,6.63-5A12.18,12.18,0,0,1,408.07,431.25Z"/>
                  </g>
                </g>
                <path class="cls-54" d="M386.69,402.68c1.18.34,2.17.6,2.9.78,1.19.29,15.62,4.75,25,1.87.49-2.65.78-4.41,1.45-9.58,2-15.47,2.94-23.36.23-30.92-1.64-4.59-5.54-12.22-5.54-12.22h0L388,355.67q-.36,10.08-.67,20.3Q386.93,389.44,386.69,402.68Z"/>
                <g>
                  <path class="cls-20" d="M423.94,401.19l4.72,41.57s9,.65,5.84,10.42c4.75,3.38,9-5.18,9-5.18s6.12-33,3.81-45.93C431,402.28,423.94,401.19,423.94,401.19Z"/>
                  <path class="cls-22" d="M425.93,418.75l21.68-2.13-3.43,30.45s-3.66,9.41-9.68,6.11c2.55-4.82-1.64-10.48-5.84-10.42Z"/>
                  <path class="cls-23" d="M425.44,414.38l22.39-2.63s1.18,3.63-.22,4.87l-21.68,2.13S423.22,416.66,425.44,414.38Z"/>
                  <g>
                    <path class="cls-25" d="M421.51,451.16s-1.81-5.45,5.37-9.48c0,0,10.16-2.09,9.27,10.36,0,0,5.43.55,8.15-6.77,0,0,1.44-4.9,2.19,4.38s.86,9.77-3.29,13.22-8.34,11.61-19.7,10.8-16.94-3.87-15.19-10.79S421.51,451.16,421.51,451.16Z"/>
                    <path class="cls-26" d="M421.82,446.8c.69-1.22,1.47-2.5,2.35-3.82a57.39,57.39,0,0,1,4-5.19c1.27.28,3.27.69,5.77,1.13,2.77.49,3.63.56,4.2,1.27,1.44,1.77-.55,5.57-1.26,6.83a14.47,14.47,0,0,0,3.54-1.72,14.85,14.85,0,0,0,4.23-4.38s1.44-4.91,2.19,4.38.86,9.76-3.29,13.21-8.34,11.61-19.7,10.8c-8.19-.58-13.37-2.33-15-5.85a7.58,7.58,0,0,1-.22-4.93C410.34,450.5,420.66,447.15,421.82,446.8Z"/>
                  </g>
                </g>
                <path class="cls-54" d="M415.79,386.18l3.87,21.93c21.95,3.06,29.9-4.28,31.32-4.75.44-17.2-.25-41.8-1.09-51.06-1.22-13.31-45,4.76-45,4.76l2,10.56,3.16,14.91Z"/>
                <path class="cls-28" d="M385.4,288.26c5.87,17,4.82,29.16,2.74,37.15,0,0-6.44,24.77-2.86,27.9l2.71,2.36h0s27.55,21.76,61.05-1.76c6.54.7-3.11-57.82-11.1-76.22,0,0-8.05-21.46-28-20-11.34.83-14.16,3.88-14.6,6.2a4.41,4.41,0,0,0,.47,2.76"/>
                <g>
                  <path class="cls-54" d="M387.74,283.9s0-6.18,2.83-6.87,7.84,5.7,1.46,9.65Z"/>
                  <path class="cls-54" d="M391.4,287.37q-.27,5.11-.55,10.25c-.11,2-5.08,5.28-5.19,7.33l4.61,3.51s-1.52,28.24-1.52,28.32l-5.42,4.34-3.7-4.76c-1.62,0-1.31-34.91,8.11-52.46C392,286.68,391.4,287.37,391.4,287.37Z"/>
                  <path class="cls-55" d="M383.27,293.45c0-.15,7.55,4.8,7.55,4.8L388.67,301l-6.59-4.2Z"/>
                  <path class="cls-55" d="M380.07,327.58c0-.14,8.16,5.2,8.16,5.2v4.16l-9.35-6Z"/>
                </g>
                <ellipse class="cls-18" cx="403.74" cy="267.32" rx="15.61" ry="7.09" transform="translate(-75.93 333.56) rotate(-41.37)"/>
                <path class="cls-55" d="M416.83,258.58a22.35,22.35,0,0,1-9.22,14.76c-.57.4-16.18,10.74-14.65,6.15.71-2.12,2.88-12.83,2.88-12.83,2.89-.92,5.87-1.94,8.94-3.09C409.07,262,413.09,260.28,416.83,258.58Z"/>
                <path class="cls-54" d="M436,362.19s-5.63,12,8.4,12.79"/>
                <path class="cls-56" d="M385.66,305s-4.06,10.77-17.41,11.79c-15.92,2.57-36.94,7.69-39,7.69s-7.18,2.57-16.41-3.07c-8.21-5.13-18-7.18-14.87-2.05s9.74,9.23,3.59,15.38C296.44,339.82,290.8,345,290.8,345s6.15,3.07,9.74,0c-1,4.61,4.62,3.33,6.41,2.3-2.18,4.49,4.1,2.22,5,1,.13,2.61,4.36-.08,5.51-1.23s4.23-4.49,4.23-4.49,56.54-3.72,62.95-6.15,16.66-6.8,23.2-13.34A228.19,228.19,0,0,1,385.66,305Z"/>
                <path class="cls-28" d="M401.42,284.47,385.66,305,407.84,323s16.71-20.45,20.64-28.77"/>
                <path class="cls-30" d="M395.84,266.66l-.72,3.49s21.74,0,20.45-7.51l1.1-4.23S406.77,265.91,395.84,266.66Z"/>
                <g>
                  <path class="cls-32" d="M355.23,224.3c.33,8.28,6.14,14.72,11.35,15.07s7.39-5.9,7.91-13.7-3.27-14.41-8.48-14.74C358.89,210.48,354.92,216.51,355.23,224.3Z"/>
                  <path class="cls-57" d="M356.64,198.19c-2.85,31.75,16.86,47.92,46.26,50.56s52.24-9.7,55.1-41.45S440,166.23,410.55,163.59,359.5,166.43,356.64,198.19Z"/>
                  <path class="cls-32" d="M362,239.67c1.41,13.8,16.72,25.34,29.41,26.31,1.49.12,3,.18,4.47.2,25.35.32,51.39-13.3,54.55-48.44,3.35-37.21-15.71-39.91-41.82-42.26-17.44-1.57-32-2.53-40.26,8.35C363.24,190.54,361.1,231.19,362,239.67Z"/>
                  <path class="cls-3" d="M379.69,219.2a1.81,1.81,0,0,1-1.1,2.14,1.46,1.46,0,0,1-1.85-1.18,1.81,1.81,0,0,1,1.1-2.14A1.47,1.47,0,0,1,379.69,219.2Z"/>
                  <path class="cls-3" d="M417.41,222a1.73,1.73,0,1,1-2.13-1.21A1.74,1.74,0,0,1,417.41,222Z"/>
                  <path class="cls-57" d="M436.18,208.73c-1,15.62,3.91,26.06,10.53,26.63s13.16-17.71,14.52-33.31c1.56-17.86-7.24-25.86-13.79-27.52S437.3,191,436.18,208.73Z"/>
                  <path class="cls-32" d="M456.09,239.28c-2.92,7.17-10.75,10.87-16.07,9.42s-1.76-23.39,8.27-24C456.64,224.16,458.82,232.55,456.09,239.28Z"/>
                  <path class="cls-58" d="M450.1,238.18c-.83,3.08-4.69,5.26-7.23,4-1-.47,2.18-11.17,3.83-11C449.49,231.64,450.94,235.1,450.1,238.18Z"/>
                  <path class="cls-57" d="M411.72,202.33c2.83-1.1,13.14-2.23,16.36,3.72,0,0-8.53-2.23-15.47-.44C412.61,205.61,410.28,202.88,411.72,202.33Z"/>
                  <path class="cls-57" d="M388.5,201.25c-2.32-2-11.75-6.29-16.88-1.13,0,0,8.9.29,14.91,4.24C386.53,204.36,389.68,202.26,388.5,201.25Z"/>
                  <path class="cls-58" d="M433.25,184.55a51.38,51.38,0,0,1-9.58,5.19A55.59,55.59,0,0,1,395,193.16l.93-3.81s-6.46,1.81-23.23,4.6l-9.52,15.82q.72-5.07,1.74-10.42a234.94,234.94,0,0,1,5.92-24.13l60.62-4.48,8.92,9.48-.88,11.42s0,27.29-1.32,35l-1.95-6.92q-.89-7.57-1.59-15.55Q433.72,194.11,433.25,184.55Z"/>
                  <path class="cls-57" d="M368.67,150.39a61.39,61.39,0,0,0-10.35,4.11s13.14-20.69,40.09-21.4c14.09-.37,34.36,2.64,40.47,16.17,0,0,12.92-5.6,20.12,15.19,0,0-5.21-7.15-11.36-7.21,0,0,8.85,2.76,11.93,22.6,2.63,17-1.45,27.16-7.23,38.64h0a32.47,32.47,0,0,1-1.23.33,2.32,2.32,0,0,0-.87,0l-.12,0c-.8-5.24-2.69-16.11-5.63-24.47,0,0-3.36,7.38-5.46,0-1-3.67-2-9.24-2.33-17.69a3.93,3.93,0,0,1-.21.86c-1.14,3-7.68,9.38-42.31,10.77,0,0,1.2-.52,5.44-10.95-5.5,12.85-22.27,12.08-31,14.64l1.57-12.3L360,218a132.31,132.31,0,0,1-4.41-13.84s-1.77-12.62.64-21.46a14.93,14.93,0,0,0-3.36,6.73S350,166,368.67,150.39Z"/>
                  <path class="cls-59" d="M431.45,252.37a8.25,8.25,0,0,0,.26,1.57,12.6,12.6,0,0,1,1.24-1.18.81.81,0,0,1,.22-.3l.23-.17h0l.21-.15c.42-.32.84-.64,1.28-.95l.15-.11c.35-.27.71-.56,1.06-.85.2-.18.41-.34.62-.51a2.11,2.11,0,0,1,.23-.19c1.46-6.24,3-16.76,3.38-18.55,0,0-4-1.9-4.89-1.5,0,0-2.59,7.41-2.11,10.11S431.12,248.18,431.45,252.37Z"/>
                  <g>
                    <path class="cls-59" d="M393,234.26c-1.22-5.45-8-4.41-7.93.16"/>
                    <path class="cls-60" d="M393,234.26a5.66,5.66,0,0,0-1.55-2.46,3.9,3.9,0,0,0-2.6-1,3.85,3.85,0,0,0-2.58,1,4,4,0,0,0-1.2,2.6,3.61,3.61,0,0,1,.92-2.87,4,4,0,0,1,5.72,0A4.8,4.8,0,0,1,393,234.26Z"/>
                  </g>
                  <path class="cls-57" d="M436.63,173.64l-1,8.56a85.39,85.39,0,0,0,2.51,44.48c7.93-10.23,8.22-34,6.05-37.66s0-.87,0-.87Z"/>
                  <path class="cls-37" d="M388.26,242.74c3.84-.46,10.22-.2,11.82,9.45,1.6,6.62-10.18,6.22-12.07,3.12C386.72,250.28,384.43,243.19,388.26,242.74Z"/>
                  <path class="cls-61" d="M388.6,252.89a8.73,8.73,0,0,1,4-1.56,9.53,9.53,0,0,1,7.05,2.28,15.36,15.36,0,0,1-2.61.9c-3.9,1-8.56.56-8.84-.71C388.18,253.6,388.22,253.31,388.6,252.89Z"/>
                  <path class="cls-62" d="M386.67,246.58l11,.25A9,9,0,0,0,391.5,243C388.73,243.05,386.39,242.33,386.67,246.58Z"/>
                  <path class="cls-62" d="M388.1,253.78s7.63,1.31,11.57-.17c0,1.48-1.4,3.66-7.07,3.34,0,0-3.29-.19-4.15-1.86Z"/>
                </g>
                <g>
                  <circle class="cls-40" cx="375.58" cy="222.86" r="8.53"/>
                  <path class="cls-41" d="M367.4,224.15a2.55,2.55,0,0,1,1-1.57c1.26-1.07,4-1.17,5.87.32a5.48,5.48,0,0,1,1.11,6.9,4.57,4.57,0,0,1-1.43,1.43,11.45,11.45,0,0,1-1.79-.73,9.69,9.69,0,0,1-2.28-1.57,9.39,9.39,0,0,1-1.45-1.78,7.21,7.21,0,0,1-.8-1.76A2.81,2.81,0,0,1,367.4,224.15Z"/>
                  <path class="cls-3" d="M377.21,223.41a1.63,1.63,0,1,1-1.63-1.63A1.63,1.63,0,0,1,377.21,223.41Z"/>
                  <path class="cls-42" d="M368.84,217.69c2.24-1.1,5.56-2.25,8.73-1.1,4.17,1.52,6.32,5.93,6.32,5.93s-.22-4.53-3.45-6.77a8.31,8.31,0,0,0-7-1.09,10.16,10.16,0,0,0-3.52,1.93A9.5,9.5,0,0,0,368.84,217.69Z"/>
                </g>
                <g>
                  <circle class="cls-40" cx="411.82" cy="223.27" r="8.53"/>
                  <path class="cls-41" d="M403.55,224c2.92-3.12,7.49-2.66,9.24-.32,1.5,2,1.1,5.69-1.62,8A8.38,8.38,0,0,1,406,229.3,8.47,8.47,0,0,1,403.55,224Z"/>
                  <path class="cls-42" d="M405,218.29a12.23,12.23,0,0,1,9.54-.25,11.92,11.92,0,0,1,5.77,5.23,9.32,9.32,0,0,0-5.83-8,8.35,8.35,0,0,0-6.53.41A8,8,0,0,0,405,218.29Z"/>
                  <circle class="cls-3" cx="412.33" cy="223.26" r="1.63"/>
                </g>
              </g>
              <g>
                <polygon class="cls-63" points="269.73 231.42 322.61 211.38 322.88 216.51 269.73 231.42"/>
                <polygon class="cls-63" points="265.78 240.72 321.16 242.19 320.62 247.07 265.78 240.72"/>
                <polygon class="cls-63" points="258.71 245.88 307.09 275.14 302.29 279.76 258.71 245.88"/>
              </g>
              <path class="cls-26" d="M388,355.67a88.66,88.66,0,0,0,13.1,3.73c13,2.72,33.12,4.15,47.62-7.57L449,359a35.64,35.64,0,0,1-5.7,3.8c-6.24,3.35-12,4-20.22,4.9a62.6,62.6,0,0,1-11.08.55A49.18,49.18,0,0,1,398,365.47a45.33,45.33,0,0,1-8.59-4.18Z"/>
              <polygon class="cls-54" points="395.54 357.83 395.54 365.02 399.4 365.31 399.4 358.63 395.54 357.83"/>
              <polygon class="cls-54" points="421.11 361.08 421.11 367.68 424.67 367.68 424.67 360.95 421.11 361.08"/>
              <polygon class="cls-54" points="443.34 355.45 443.34 362.75 440.37 363.84 440.37 356.65 443.34 355.45"/>
              <path class="cls-28" d="M415.49,263.42a146.6,146.6,0,0,1-22.36,15,65.53,65.53,0,0,0-.33,14.83c-.69,1.24,41.24-29.78,29.28-32.39Z"/>
              <path class="cls-28" d="M393.13,278.46s.62-5.67,1.68-12l-5.13,7.77-3.34,11.13Z"/>
              <g>
                <path class="cls-54" d="M210.49,312.88c.13.43.25.84.38,1.25h0c4.08,12.73,10.78,19.1,10.78,19.1a70.59,70.59,0,0,0,5.27-8.1c.75-1.38,1.33-2.59,1.77-3.62a17.39,17.39,0,0,0,1.44-4.62c-.07-1.58-.17-3.11-.29-4.58s-.24-2.69-.38-4c-.42-3.63-.94-6.86-1.53-9.68-.29-1.43-.6-2.76-.91-4-2-7.93-4.2-11.77-4.11-12.34.25-1.62-6-1.05-6-1.05a59.33,59.33,0,0,1-.91,8.16c-.16.92-.33,1.86-.51,2.8-.52,2.71-1.12,5.47-1.74,8.06-.22.9-.43,1.79-.64,2.64-.78,3.14-1.51,5.86-2,7.66C210.74,312,210.49,312.88,210.49,312.88Z"/>
                <path class="cls-55" d="M215.53,292.23a41.25,41.25,0,0,1,12,6.39c-.29-1.43-.65-2.92-1-4.15a47.22,47.22,0,0,0-10.57-5C215.88,290.35,215.71,291.29,215.53,292.23Z"/>
                <path class="cls-55" d="M213.47,303.15c4.47,2,11.85,5.61,16,9.16-.11-1.37-.26-2.95-.4-4.22a60.12,60.12,0,0,0-15-7.69C213.9,301.31,213.67,302.3,213.47,303.15Z"/>
                <path class="cls-55" d="M210.86,312.88c.12.43.25.95.38,1.35h0c4.4,2.24,11.21,6,15.43,10.63.75-1.38,1.29-2.54,1.73-3.58a88.5,88.5,0,0,0-17-10.58C211,312.14,210.86,312.88,210.86,312.88Z"/>
              </g>
              <path class="cls-64" d="M261.9,315.55s-6.52,1.45-11.26.84"/>
              <g>
                <g>
                  <g>
                    <path class="cls-29" d="M187.3,333.52s9.39,6.75,39.08-6.61l12.38-5.56-3.32-10.12s-29.26-2.76-46.27,8.82S187.3,333.52,187.3,333.52Z"/>
                    <polyline class="cls-29" points="181.82 329.72 175.81 313 173.25 305.88 192.22 292.92 196.49 305.9 201.34 316.93"/>
                  </g>
                  <path class="cls-29" d="M236.83,322.47v0c-.92,0-1.18-.2,0,0a27.68,27.68,0,0,0,4.55.3,19.47,19.47,0,0,1,5.36,1.21c2.93.94,5.91.17,8.9,0,1.22-.06,6.28,1.43,6.27-1.15,0-1.68-1.71-2.47-3.26-2.69.62-.26,1.25-.53,1.9-.73a15.86,15.86,0,0,0,2.87-1c1.18-.64.93-1.81-.08-2.4a6,6,0,0,0-1.44-.55c1.14-.11,4.89-.63,4-2.45-1.15-2.3-5.11-2.15-7.2-2-1.79.15-3.56.49-5.35.63-1.06.07-2.18-.15-3.23,0a19.41,19.41,0,0,1,4.32-2.33,38.08,38.08,0,0,1,3.81-1.16c1.56-.43,4.83-1,5.32-2.9.23-.89-.75-1.57-1.39-1.93-1.62-.91-3.89-.55-5.61-.27-3.68.62-7.72,2.5-11.54,2,.21-1.14,1-2.33,1.31-3.41a8.49,8.49,0,0,0,.18-4.19c-.47-2.14-3.32-3.39-5-1.78-2.64,2.48-.39,6.85-2.61,9.66a11.24,11.24,0,0,0-1.54,2c-.33.69-1.16,3.63-3.23,3.86"/>
                </g>
                <path class="cls-28" d="M195.69,286.4l4.72,26.2a101.67,101.67,0,0,1-23.22,9c-.28-1-7.26-19.47-6.23-25.77,2.26-13.77,8.51-20.57,8.51-20.57"/>
              </g>
              <path class="cls-22" d="M219,275.38s-10.87,2-11.93-.62-2.82-9.47-2.82-9.47Z"/>
              <path class="cls-28" d="M204.34,262.2a62.19,62.19,0,0,0,10.95,10.6c1.25.94,2.49,1.8,3.7,2.58-1.34,1.95-3.78,6.26-5.12,8.22l-4.78,4.49c-.27-.92-.69-2.33-1.18-4.06-1.37-4.74-1.36-4.83-1.63-5.58-.91-2.6-1.66-3.33-3.88-7.24-.88-1.55-2.16-3.91-3.58-6.91.66-.3,1.35-.6,2.08-.89C202.1,262.93,203.25,262.53,204.34,262.2Z"/>
              <path class="cls-28" d="M232.13,265.85c-.72,1.84-1.59,2.7-4.35,5.29a38.15,38.15,0,0,1-5.26,3.76c1.26,1.46,3.18,3.94,4.73,5.48,1.3,1.3,4.93,5.92,6.18,7,1-5.14,1.18-12.95.82-18.84C233.37,267.65,233,266.75,232.13,265.85Z"/>
              <path class="cls-65" d="M165.05,345.37c-4.22,1.87,57.93,24,70,11.74,2.26-2.28-1.27,4.85-1.27,4.85-.58.19-1.45.48-2.52.78-5.93,1.69-16.17,3.54-37.69-1.13a184.89,184.89,0,0,1-29.81-9.17Z"/>
              <path class="cls-54" d="M224.34,275.73c-.71-.3-3.19-2.3-8.23-.39s1.26,8.12,1.26,8.12h5.54S230.29,278.21,224.34,275.73Z"/>
              <polyline class="cls-54" points="213.47 360.28 212.47 364.51 215.77 364.51 216.95 360.28 213.47 360.28"/>
              <path class="cls-53" d="M236,347.78s2.51,8.07.78,8.7-4.23,1.59-4.23,1.59Z"/>
              <path class="cls-22" d="M165.26,340.73s-3,3.16-.21,4.64l2.52,1.49"/>
              <polyline class="cls-54" points="228.61 359.17 227.06 364.44 230.18 363.4 231.92 358.31 228.61 359.17"/>
              <polyline class="cls-54" points="196.23 356.65 195.83 361.38 192.97 360.28 192.97 356.27 196.23 356.65"/>
              <polyline class="cls-54" points="176.09 351.07 174.57 356.27 170.81 354.86 172.22 349.05 176.09 351.07"/>
              <ellipse class="cls-54" cx="216.39" cy="344.46" rx="1.68" ry="2.55"/>
              <path class="cls-64" d="M258.65,320.19s-7.5.69-9.14,0"/>
              <ellipse class="cls-66" cx="389.58" cy="340.42" rx="1.35" ry="3.47"/>
              <circle class="cls-54" cx="216.39" cy="344.46" r="2.79"/>
            </g>
            <g>
              <polygon class="cls-67" points="405.13 360.09 405.13 368.09 418.78 369.5 418.78 361.85 405.13 360.09"/>
              <polygon class="cls-67" points="204.06 358.9 203.22 363.6 213.3 364.89 214.68 360.72 204.06 358.9"/>
            </g>
          </g>
        </g>
      </g>
    </g>
  </g>
</svg>
