<svg id="Layer_1" data-name="Layer 1" xmlns="http://www.w3.org/2000/svg" xmlns:xlink="http://www.w3.org/1999/xlink" width="619.88" height="562.43" viewBox="0 0 619.88 562.43">
  <defs>
    <style>
      .cls-1, .cls-8 {
        fill: none;
      }

      .cls-2 {
        fill: #fff;
      }

      .cls-3 {
        clip-path: url(#clip-path);
      }

      .cls-4 {
        fill: #c3b6a2;
      }

      .cls-5 {
        fill: #cca96a;
      }

      .cls-6 {
        fill: #9db765;
      }

      .cls-7 {
        opacity: 0.25;
      }

      .cls-8 {
        stroke: #feffeb;
      }

      .cls-27, .cls-28, .cls-40, .cls-42, .cls-8 {
        stroke-miterlimit: 10;
      }

      .cls-9 {
        fill: #426e72;
      }

      .cls-10 {
        fill: #264547;
      }

      .cls-11 {
        fill: #e5d2c1;
      }

      .cls-12 {
        fill: #e8d75d;
      }

      .cls-13 {
        fill: #dbdad9;
      }

      .cls-14 {
        fill: #c6b663;
      }

      .cls-15 {
        fill: #ea3b48;
        opacity: 0.15;
      }

      .cls-16 {
        fill: #bdeeff;
      }

      .cls-17 {
        fill: #e9eae5;
      }

      .cls-18 {
        fill: #4d8184;
      }

      .cls-19 {
        fill: #99aaa9;
      }

      .cls-20 {
        fill: #caccc0;
      }

      .cls-21 {
        fill: #828e93;
      }

      .cls-22 {
        opacity: 0.22;
      }

      .cls-23 {
        fill: #cfcedd;
      }

      .cls-24 {
        fill: #dbd9ed;
      }

      .cls-25 {
        fill: #eef;
      }

      .cls-26 {
        fill: #b6b5c9;
      }

      .cls-27 {
        fill: #ffd3ca;
        stroke: #d17d74;
      }

      .cls-28 {
        fill: #61435b;
        stroke: #1c101a;
        stroke-width: 0.5px;
      }

      .cls-29 {
        fill: #d17d74;
      }

      .cls-30 {
        fill: #df71e2;
        stroke: #710e7c;
        stroke-linejoin: round;
      }

      .cls-30, .cls-40 {
        stroke-width: 0.75px;
      }

      .cls-31 {
        fill: #6b1808;
        opacity: 0.18;
      }

      .cls-32 {
        fill: #f8e1db;
      }

      .cls-33 {
        fill: #db9d8e;
      }

      .cls-34 {
        fill: #342517;
      }

      .cls-35 {
        fill: #323232;
      }

      .cls-36 {
        fill: #342516;
      }

      .cls-37 {
        fill: #661e1b;
      }

      .cls-38 {
        fill: #d26653;
      }

      .cls-39 {
        fill: #f9988f;
      }

      .cls-40 {
        fill: #f9f8f7;
        stroke: #7f430d;
      }

      .cls-41 {
        fill: #fdefec;
      }

      .cls-42 {
        fill: #d6aba5;
        stroke: #7f451d;
        stroke-width: 0.25px;
      }

      .cls-43 {
        fill: #2d1708;
      }

      .cls-44 {
        fill: #c8e9f1;
      }
    </style>
    <clipPath id="clip-path">
      <rect class="cls-1" x="40.41" y="56.6" width="539.07" height="449.22" rx="116.93"/>
    </clipPath>
  </defs>
  <g>
    <rect class="cls-2" x="31.02" y="47.51" width="557.84" height="467.41" rx="124.29"/>
    <g class="cls-3">
      <g>
        <path class="cls-4" d="M1263.18,807.41c-.91-44.82-1.68-89.65-3.7-134.43-1.74-38.65-4-77.23-5.38-115.88l-61.79-45.89L-660,511.12l-48.34,130.82,25.85,230.47h1947.4Q1263.8,840,1263.18,807.41Z"/>
        <polygon class="cls-5" points="-521.65 548.59 1007.73 544.92 1007.75 508.29 -521.65 511.97 -521.65 548.59"/>
        <g>
          <path class="cls-6" d="M-14.6-51.08c.67,220,9,352.62,9.62,572.6l737.67-1.74L720-40.89C502.76-41.88,202.68-50.08-14.6-51.08Z"/>
          <g class="cls-7">
            <polyline class="cls-8" points="-357.22 -35.37 74.42 62.56 1261.44 60.94"/>
            <polyline class="cls-8" points="-362.67 135.48 57.2 180.16 1187.55 174.48"/>
            <polyline class="cls-8" points="-363.57 265.84 68.07 276.95 1135.82 276.95"/>
            <polyline class="cls-8" points="-359.66 393.03 -359.66 409.14 62.26 377.37 1165.1 376.61"/>
            <polyline class="cls-8" points="-356.85 547.59 74.79 483.9 1110.8 483.9"/>
            <polyline class="cls-8" points="198.02 -43.83 198.02 585.97 -154.02 733.33"/>
            <polyline class="cls-8" points="358.86 -43.83 352.52 590.95 136.02 754.78"/>
            <polyline class="cls-8" points="517.72 -43.83 515.02 593.66 408.94 811.1"/>
          </g>
          <g>
            <g>
              <ellipse class="cls-9" cx="469.41" cy="122.19" rx="17.93" ry="17.56"/>
              <ellipse class="cls-10" cx="469.41" cy="122.19" rx="12.41" ry="12.15"/>
              <rect class="cls-11" x="466.95" y="115.24" width="188.84" height="13.14"/>
            </g>
            <g>
              <path class="cls-12" d="M493.27,116.25v97.88c-1.55,16.36-3.1,19.06,21.15,18.47s94.94.07,94.94.07,16.58,8.61,16.28-18.54c-.29-26.61-8.54-90.8-3.9-97.88,1-6.06,3.9,0,3.9,0l-2.87-6.06H495.33A12.65,12.65,0,0,0,493.27,116.25Z"/>
              <path class="cls-13" d="M493.27,210.18s-10.81,28.61,19.25,22.42c30.07-.25,95.41.06,95.41.06s20.55,8.27,17.72-22.48c-7.6,0-32.75,4.81-38.89,3.3s-33.25-2.7-39.17.61-26.17-.68-28.93-2S498.25,217.09,493.27,210.18Z"/>
              <path class="cls-14" d="M545.32,110.19s-55.21,18-52.05,46.18V116.25l2.06-6.06Z"/>
              <ellipse class="cls-15" cx="509.61" cy="156.89" rx="9.05" ry="8.23"/>
              <ellipse class="cls-15" cx="596" cy="125.81" rx="9.28" ry="8.45"/>
              <ellipse class="cls-15" cx="542.31" cy="175.81" rx="7.97" ry="7.25"/>
              <ellipse class="cls-15" cx="592.87" cy="164.14" rx="7.97" ry="7.25"/>
              <ellipse class="cls-15" cx="561.37" cy="148.87" rx="7.97" ry="7.25"/>
              <ellipse class="cls-15" cx="540.32" cy="125.81" rx="7.97" ry="7.25"/>
              <ellipse class="cls-15" cx="561.37" cy="197.52" rx="7.97" ry="7.25"/>
              <ellipse class="cls-15" cx="608.8" cy="201.27" rx="7.97" ry="7.25"/>
              <ellipse class="cls-15" cx="511.26" cy="197.52" rx="7.97" ry="7.25"/>
            </g>
          </g>
        </g>
        <g>
          <path class="cls-16" d="M353.85,321.53s-1.28,7.7,3.21,7.06c6.35-.91,1.29,5.77,3.85,6.74s6.57.7,6.42-14.44"/>
          <g>
            <path class="cls-17" d="M390.27,290l-3.15-3.57s5.07-12,6.52-16.19-23-3.46-23.76-3.47-3.56,1.7-1.12,6.59c1.72,6.63,3,13.7,3,13.7l-2.22,1.51s8.72,5-.25,14.31c10.07,9.2,17.51,1.88,18.72.3S392.65,298.15,390.27,290Z"/>
            <g>
              <path class="cls-17" d="M407.75,288.17H388.5s4.82,9.14-.24,14.87l14.82-.31-.46,39.34,15.4,1.28s0-34.65-1.29-46.2C416.06,291.08,415.45,289.45,407.75,288.17Z"/>
              <path class="cls-17" d="M370.54,288.17s-18.31-3.86-18.08,14.87l.23,15s8.7,2.65,14.79,0l-.33-11.89s1.09-1.57,2.39-3.08C371,301.3,378.89,293.45,370.54,288.17Z"/>
              <path class="cls-9" d="M394.19,269.93h-28C364.4,262.84,398,263.05,394.19,269.93Z"/>
              <path class="cls-18" d="M365.77,270s-.53-3.16,4.55-4.07L382,270Z"/>
              <path class="cls-19" d="M367.48,318s-4.11,2.86-14.79,0a6.82,6.82,0,0,1,0,2.75s10.66,3.31,14.79,0Z"/>
              <path class="cls-17" d="M367.15,306.12s-7.52,11.26-14.46,11.89c5.95,1.18,9.52,2.11,14.79,0Z"/>
              <polygon class="cls-20" points="365.77 270.2 371.82 286.88 375.67 286.88 369.13 270.2 365.77 270.2"/>
              <path class="cls-17" d="M388.26,287.56s6.71,4.61,1.2,13.85c-4.34,8.28-15.15,7.55-19.92,1.63,0,0,12.67,2.11,13.74-15.48Z"/>
            </g>
          </g>
          <path class="cls-21" d="M413.53,301.64c-1.83.29-3.67.48-5.5.67s-3.68.35-5.52.43c1.82-.29,3.66-.48,5.49-.67S411.68,301.72,413.53,301.64Z"/>
          <path class="cls-21" d="M387.22,286.88c-2,.08-3.9.06-5.85,0s-3.89-.07-5.84-.21c2-.07,3.9,0,5.85,0S385.27,286.75,387.22,286.88Z"/>
        </g>
        <g>
          <ellipse class="cls-22" cx="178.74" cy="579.66" rx="101.3" ry="19.32"/>
          <g>
            <g>
              <g>
                <path class="cls-23" d="M428.28,588.64H333.47l0-134.44s32.3.69,43.07.59c14.68-.13,51.38-1.59,51.38-1.59Z"/>
                <path class="cls-24" d="M438.75,377.51H213.93c0,.85-.12,1.67-.17,2.52-4.37,66.05,89.29,94.55,204.44,78.47a69.26,69.26,0,0,0,20.55-5.84Z"/>
                <path class="cls-24" d="M282.41,377.51H507.24c0,.85.12,1.67.17,2.52,4.37,66.05-89.29,94.55-204.44,78.47a69.42,69.42,0,0,1-20.56-5.84Z"/>
              </g>
              <g>
                <ellipse class="cls-25" cx="360.58" cy="375.83" rx="146.93" ry="35.26"/>
                <path class="cls-26" d="M230.13,375c0,14.76,57.34,26.72,128.06,26.72s128.07-12,128.07-26.72S428.92,348.3,358.19,348.3,230.13,360.26,230.13,375Z"/>
              </g>
            </g>
            <g>
              <path class="cls-27" d="M239.82,536.83A60.27,60.27,0,0,1,221.69,538c-1-13.78-9-36.47-11.34-55.53-.86-7.06,1.36-30,1.14-23.8-.12,3.11-21.13,56.24-21.53,79.33-9.65,1.63-10.37,1.58-19.27,0,0,0-11.66-127.42-9.61-146,16.82-.91,69.95,2.37,87.8,5.51C250.84,416.91,240.63,508.86,239.82,536.83Z"/>
              <path class="cls-28" d="M211.94,495.31s-1.08-8.71-1.59-12.87c-.86-7.06,1.36-30,1.14-23.8-.07,1.73-7,37.81-7,37.81l-42.06-2.81s-2.63-90.38-1.38-101.7c16.82-.91,69.95,2.37,87.8,5.51,1.33,13.24,2.86,97,2.86,97Z"/>
              <path class="cls-27" d="M319.39,331.07l-46.74,15.55-13.81-30.5s25.07-5.58,41-9.33c6.78-1.59,14.33,2,15.91,8.82Z"/>
              <path class="cls-27" d="M302.14,306.79s59.8-30.9,60.92-31.1l-3.22,17.85L318,331.5"/>
              <g>
                <path class="cls-27" d="M354.48,291.79c3,3.53,7.79,8.64,8.3,8.87.71.33,10.15.3,3.73-9.57L365,288.6s22.12,4.41,28.68.5c3.49-2.08-4.17-4.91-4.17-4.91s4.27,1.62-.63-7.9-19.72-11.86-19.72-11.86-15.87,7.36-18.24,17.43"/>
                <path class="cls-29" d="M393.17,286.09a12,12,0,0,0-2.78-1.21c-.95-.32-1.93-.56-2.91-.83-2-.48-3.94-.9-5.92-1.31-4-.81-8-1.55-11.95-2.45a74.12,74.12,0,0,1,12.15,1.47,55.75,55.75,0,0,1,5.94,1.55A15.57,15.57,0,0,1,393.17,286.09Z"/>
                <path class="cls-29" d="M374.66,290.08a23.7,23.7,0,0,1-7.55-.7,32.08,32.08,0,0,1-7.13-2.54c2.51.41,4.93,1,7.36,1.57S372.18,289.54,374.66,290.08Z"/>
                <path class="cls-29" d="M390.72,280.6a17.65,17.65,0,0,0-4.63-3.51,33,33,0,0,0-5.33-2.29c-1.83-.66-3.71-1.18-5.61-1.67s-3.8-.93-5.74-1.32a34.48,34.48,0,0,1,5.91.56,37.59,37.59,0,0,1,5.77,1.48,25.23,25.23,0,0,1,5.4,2.57A13.3,13.3,0,0,1,390.72,280.6Z"/>
              </g>
              <path class="cls-30" d="M289.1,344.37s-25.08,5.18-35.7,4.75c-13.49-12.48-16.54-34.42-15.2-34.55,17.75-1.8,36.1-3.49,41.24-4C281.82,314.78,289.1,344.37,289.1,344.37Z"/>
              <path class="cls-30" d="M257.05,336.72c-8.85,84.8-6.9,53.95-7,84.52-27.2,4.54-62.33,10.2-89.53-6.8,0,0,2.32-3.11,0-5.66-6.44-7.1-.65-8.8-.42-15.45.58-16.56,3.32-40.79,12.89-65,7-14.66,22-21.41,37.23-23.52,14.46-2,17-.9,33.1,3.14"/>
              <g>
                <path class="cls-27" d="M247.26,296.14,242,318.44c-1.13,4.8-9.62,6.9-19,4.7s-16-7.88-14.85-12.68l5.27-22.3Z"/>
                <path class="cls-31" d="M246.18,299.5c-11.13-2.07-23.58-3.95-33.48-4.73a11.73,11.73,0,0,0-.64,1.61c-2.05,10,7.08,20.31,20.4,23a31.84,31.84,0,0,0,8.9.53Z"/>
              </g>
              <g>
                <g>
                  <path class="cls-28" d="M234.88,322c-1-.46-4.46-3.54-11.62-.71s1.59,12.38,1.59,12.38l7.84.09S243.25,325.89,234.88,322Z"/>
                  <g>
                    <path class="cls-28" d="M214.45,378.4c.17.64.33,1.27.51,1.89v0c5.48,19.45,14.8,29.25,14.8,29.25a108.09,108.09,0,0,0,7.64-12.26c1.09-2.09,1.94-3.91,2.58-5.48a28.32,28.32,0,0,0,2.15-7q-.1-3.62-.31-7-.18-3.13-.44-6.05c-.5-5.55-1.18-10.46-1.94-14.78q-.57-3.27-1.2-6.1c-2.67-12.11-5.66-18-5.53-18.86.39-2.47-8.4-1.7-8.4-1.7a98.83,98.83,0,0,1-1.48,12.43c-.24,1.39-.5,2.81-.78,4.24-.8,4.12-1.72,8.32-2.64,12.26-.34,1.37-.66,2.71-1,4-1.17,4.77-2.28,8.9-3,11.64C214.82,377.1,214.45,378.4,214.45,378.4Z"/>
                    <path class="cls-32" d="M222.05,347a57.39,57.39,0,0,1,16.88,9.92c-.38-2.18-.85-4.44-1.26-6.33a64.3,64.3,0,0,0-14.84-7.83C222.59,344.16,222.33,345.58,222.05,347Z"/>
                    <path class="cls-32" d="M218.88,363.62c6.28,3.1,16.64,8.73,22.45,14.21-.12-2.09-.3-4.51-.47-6.45a82.72,82.72,0,0,0-21-11.93C219.53,360.82,219.19,362.33,218.88,363.62Z"/>
                    <path class="cls-32" d="M215,378.4c.17.65.33,1.44.51,2.07h0c6.16,3.47,15.71,9.37,21.57,16.42,1.09-2.09,1.88-3.85,2.53-5.43a124.07,124.07,0,0,0-23.74-16.37C215.24,377.27,215,378.4,215,378.4Z"/>
                  </g>
                </g>
                <g>
                  <path class="cls-30" d="M229.4,319.67c.71.28-10.65,13.91-10.65,13.91s-11.38-8-14.06-25.66l5.66-6.8S215.67,314.31,229.4,319.67Z"/>
                  <path class="cls-30" d="M233.32,319.72c-.7.32,5.69,15.49,5.69,15.49s5.49-.56,8.71-18.14l-2.51-7S245.15,314.24,233.32,319.72Z"/>
                </g>
              </g>
              <g>
                <g>
                  <path class="cls-27" d="M254.45,408.82c1.36.19,1.66-17.56,0-18.23-16.94-6.81-30.9-12.84-47.82-22.12-2.93-1.6,2.75-21.56.52-21.6-7,4.38-14,4.71-22.45,11.36-4.36,13.08,1.42,28.65,5.83,31.07C198.63,393.74,233,405.7,254.45,408.82Z"/>
                  <g>
                    <path class="cls-27" d="M245.65,386.9l8.29,2.76a47.69,47.69,0,0,1,10.36-8.74c5.52-3.17,7.17-1.89,11.59-4.71s.72,4.05.25,5c0,0,6.38-.36,8.81.78s4.48,1.17,6,13.17c0,0,2.72,7.36-.95,6.88a.83.83,0,0,0-.13.3c-.45,1.77,2,6.95-4,5.19,1.81.37-11.9-6.5-11.9-6.5s-5.29,5-20.64,8.54l-20.68-5.48"/>
                    <path class="cls-29" d="M289.7,402.61a9.32,9.32,0,0,0-2.82-2.94,36.12,36.12,0,0,0-3.46-2.19c-2.4-1.35-4.89-2.55-7.37-3.87a28.51,28.51,0,0,1,7.86,3,19,19,0,0,1,3.47,2.47A7,7,0,0,1,289.7,402.61Z"/>
                    <path class="cls-29" d="M290.6,395.36a9.21,9.21,0,0,0-2.83-2.93,34.25,34.25,0,0,0-3.46-2.19c-2.4-1.35-4.88-2.56-7.37-3.87a27.89,27.89,0,0,1,7.86,3,19.49,19.49,0,0,1,3.47,2.46A7,7,0,0,1,290.6,395.36Z"/>
                  </g>
                </g>
                <path class="cls-30" d="M209.57,330.43c3.7,19.2,8.6,35.51,9.25,38.48-8.63,3.26-28.71,7.28-39.52,9.18a318.43,318.43,0,0,1-6.72-32.33,39.85,39.85,0,0,1,1.13-17.49"/>
              </g>
              <g>
                <g>
                  <path class="cls-27" d="M288.15,281.51c-5.53,7.11-14.29,8.82-20.21,4.62s-2.57-8.1,3-15.2,5.52-6.17,12.66-7.93C299.19,259.15,293.69,274.41,288.15,281.51Z"/>
                  <path class="cls-33" d="M285.29,266.83a3.61,3.61,0,0,1,3,.85c1,1,.81,2.62.42,4a22.85,22.85,0,0,1-8.84,11.66,5.93,5.93,0,0,1-2.18,1.11,2,2,0,0,1-2.29-3.17c1-2,3.39-3.07,5.38-4.3a4.34,4.34,0,0,0,1.42-1.23,1.64,1.64,0,0,0,.13-1.75,2.38,2.38,0,0,0-1.21-.83,13.44,13.44,0,0,0-3-.58c-.13-1.51,1.38-2.64,2.45-3.48A9.51,9.51,0,0,1,285.29,266.83Z"/>
                </g>
                <path class="cls-27" d="M281.66,227.8c-23-19.67,15-32.35-19.48-38.28-33.5-5.75-56.09,7.48-62.27,36.37-2.86,13.36-1.16,28.23-1.37,28.94-9.78,33.39,15.38,55.58,35.69,59,8.87,1.52,18.79-1.08,27.77-5.82,11-5.78,20.5-15.87,24.93-39.72C287.07,267.61,300.84,244.21,281.66,227.8Z"/>
                <path class="cls-33" d="M223.27,215.73s5.33,11.2,42.92,17.73l-.12-5.15s1,7.34,22.1,15l-1.48,27.18L303,216.09l-78.08-20.35-14.42,10.1-2.15,15s-13.07,28.41-13.64,38.73l1.56-1.44A55.87,55.87,0,0,0,210,238.55h0S217,243.05,223.27,215.73Z"/>
                <path class="cls-34" d="M221.63,207.79s-6,10.92,43.75,22.65c0,0-1.19-.82-3.41-13.23,3,15.35,16,18.06,25,22.75l6.8-13.91-7.09,44.42s7.14-12,9.45-17.23c0,0,7.44-14.38,6.87-24.65a51.68,51.68,0,0,1,1.24,10s13-22.27-14.88-47.64A22.66,22.66,0,0,1,303,195.69s-11.23-18.89-40.66-25.4c-15.39-3.41-27-6.06-36.89,7.57,0,0-15.87-16.17-28.66,5.23,0,0,14.44-4.27,17.15,1.71,0,0-15.83-.83-23.86,20.41-7.58,20.06-5,36,3.15,53.56,0,0,14.07-10.42,15.06-29.39l2.94,7.81S220.58,233.1,221.63,207.79Z"/>
                <g>
                  <path class="cls-27" d="M197.05,273c-8.45,5.11-15.43-1.7-17-10.18s.11-24.47,10.77-15.53a15.84,15.84,0,0,1,7.08,11.65"/>
                  <path class="cls-33" d="M188,250.22a2.74,2.74,0,0,0-2.67-.25c-1.17.61-1.66,2.15-1.87,3.53a23.42,23.42,0,0,0,2.34,13.81,5,5,0,0,0,1.26,1.78,1.77,1.77,0,0,0,2,.19,2.74,2.74,0,0,0,1-2.34c0-2.24-1.44-4-2.5-5.82a4,4,0,0,1-.64-1.62,1.93,1.93,0,0,1,.59-1.67,2,2,0,0,1,1.26-.35,9.6,9.6,0,0,1,2.57.5c.7-1.35-.05-2.91-.55-4.06A7.8,7.8,0,0,0,188,250.22Z"/>
                </g>
                <path class="cls-35" d="M246.78,276a11.17,11.17,0,0,0,3,2.41,7.19,7.19,0,0,0,3.64.86,6.85,6.85,0,0,0,3.52-1.15,4.73,4.73,0,0,0,2.16-2.76v0a8.06,8.06,0,0,0-1.05-4.23,27.83,27.83,0,0,1-2.17-4.14,10.26,10.26,0,0,1-.44-4.75,17.64,17.64,0,0,1,1.3-4.5l.1,0a26.11,26.11,0,0,0-.67,4.52,10.41,10.41,0,0,0,.66,4.34c.52,1.37,1.37,2.63,2.06,4.07a9.18,9.18,0,0,1,1,4.69v0h0a5.33,5.33,0,0,1-2.57,3.17,7.35,7.35,0,0,1-3.84,1.1,7.51,7.51,0,0,1-3.79-1.08,11.39,11.39,0,0,1-2.93-2.6Z"/>
                <path class="cls-36" d="M244.12,236.34c-.19-7.37-15.8-1.47-16.33,3.13C227.79,239.47,237.82,233.82,244.12,236.34Z"/>
                <path class="cls-36" d="M261.69,241c2.43-5.46,12.4,1.34,12,5.68C273.68,246.65,266.8,240.65,261.69,241Z"/>
                <g>
                  <path class="cls-37" d="M227.21,281.06c1.07,4,4.66,16.69,13.66,20.08,9.6,2.64,14-8.06,21.54-11.36,0,0-9.37,2.83-32.54-8.48-.74-.44-2.3-1.36-3-1.78C226.83,279.52,227,280.1,227.21,281.06Z"/>
                  <path class="cls-38" d="M250.39,297.79c-1.28-1.84-7.53-4.86-14.46-3.26C235.93,294.53,242.46,301.56,250.39,297.79Z"/>
                  <path class="cls-2" d="M227.25,279.76c8.68,12.53,18.82,15.14,24.8,14.79,2.57-.15,3.48-4.37,7.44-3.62a12.33,12.33,0,0,0,2.92-1.15C261.79,290.43,248,291.27,227.25,279.76Z"/>
                  <path class="cls-39" d="M227.21,281.06c1.63,9.27,12.87,30.12,26.36,15.47C242.71,302.05,235.49,298.17,227.21,281.06Z"/>
                  <path class="cls-39" d="M228,280.2c16.28,13.3,28.35,11.76,33.12,10.29.47-.2.85-.53,1.29-.71,0,0-9.37,2.83-32.54-8.48Z"/>
                  <path class="cls-38" d="M228.47,278.22s-3.07-.3-2.54,3.17C225.93,281.39,225,276.8,228.47,278.22Z"/>
                  <path class="cls-38" d="M262.1,288.58s1.66.92-.09,3.09C262,291.67,264.65,289.72,262.1,288.58Z"/>
                </g>
                <g>
                  <path class="cls-40" d="M227.44,252.85C225.85,265,243,267,244.3,254.86A8.52,8.52,0,1,0,227.44,252.85Z"/>
                  <path class="cls-36" d="M235.17,255.15c-.89,6.74,7.77,7.77,8.49,1C244.54,249.41,235.89,248.38,235.17,255.15Z"/>
                  <path class="cls-41" d="M237,251.16a.93.93,0,0,0,1.84.22A.93.93,0,0,0,237,251.16Z"/>
                  <path class="cls-42" d="M227.37,254.32c1.72-2.39,4.21-4.87,7.67-5.66,4.42-1,8.41,1.22,7.94.48s-2.63-4.44-7-4.49a8.66,8.66,0,0,0-5.39,1.87A9.31,9.31,0,0,0,227.37,254.32Z"/>
                </g>
                <g>
                  <path class="cls-40" d="M257.69,257.56c-1.59,12.13,14.1,14,15.41,1.83C274.68,247.26,259,245.39,257.69,257.56Z"/>
                  <g>
                    <path class="cls-36" d="M263.85,260.33c-.85,6.52,8,7.57,8.65,1C273.36,254.84,264.55,253.8,263.85,260.33Z"/>
                    <path class="cls-41" d="M265.25,256.7a.82.82,0,1,0,1.63.19A.82.82,0,1,0,265.25,256.7Z"/>
                  </g>
                  <path class="cls-42" d="M257.84,260.17a10.77,10.77,0,0,1,4.74-6.32,9.54,9.54,0,0,1,5.18-1.37c2.82.12,4.06,2.16,4.37,1.77s-1.16-2.61-3.1-3.69a7.52,7.52,0,0,0-5.35-.59,7.7,7.7,0,0,0-4.32,3.37,9.45,9.45,0,0,0-1.52,4.16A10.67,10.67,0,0,0,257.84,260.17Z"/>
                </g>
              </g>
              <g>
                <path class="cls-43" d="M160.49,420.11l-.42-12.43S190,428,250,413.31v11.57S200.15,440.51,160.49,420.11Z"/>
                <path class="cls-28" d="M181.82,427.76s.2,13.88-12.26,13.88"/>
                <path class="cls-28" d="M218.85,454.67s.14,7.37-8.5,7.37"/>
                <path class="cls-28" d="M221.12,429.74s2.41,19.83-6.23,19.83"/>
                <polyline class="cls-28" points="193.85 434.7 195.06 417.99 189.45 417.29 187.46 434.7"/>
                <polyline class="cls-28" points="243.22 432.01 243.22 414.44 237.05 416.15 237.55 433.71"/>
              </g>
              <polygon class="cls-44" points="204.27 418.85 204.8 431.11 228.51 429.42 227.99 417.13 204.27 418.85"/>
            </g>
          </g>
        </g>
      </g>
    </g>
  </g>
</svg>
