<svg xmlns="http://www.w3.org/2000/svg" xmlns:xlink="http://www.w3.org/1999/xlink" viewBox="0 0 512 400"><defs><style>.cls-1{isolation:isolate;}.cls-2,.cls-4{fill:#649d35;}.cls-2{stroke:#31680e;}.cls-2,.cls-22,.cls-23,.cls-5{stroke-miterlimit:10;}.cls-12,.cls-13,.cls-3,.cls-6{mix-blend-mode:multiply;}.cls-5{fill:#4bb524;stroke:#39821a;}.cls-20,.cls-6{opacity:0.36;}.cls-7{fill:#f77d0f;}.cls-15,.cls-16,.cls-18,.cls-26,.cls-27,.cls-7{stroke:#ef538a;stroke-width:0.22px;}.cls-8{opacity:0.54;}.cls-9{fill:#f95006;}.cls-10{fill:#f9973e;}.cls-11{fill:#f9c4a0;}.cls-12,.cls-14,.cls-17,.cls-21{fill:#ef538a;}.cls-12,.cls-13,.cls-14{opacity:0.32;}.cls-15{fill:url(#radial-gradient);}.cls-16,.cls-19{fill:#fc8f24;}.cls-18{fill:url(#radial-gradient-2);}.cls-21,.cls-25{opacity:0.6;}.cls-22{fill:#a5c63e;stroke:#8fa826;stroke-width:0.5px;}.cls-23{fill:#f6861f;stroke:#d35e0d;stroke-width:0.25px;}.cls-24{fill:#fbae3b;}.cls-25{fill:#ff6c08;}.cls-26{fill:url(#radial-gradient-3);}.cls-27{fill:url(#radial-gradient-4);}</style><radialGradient id="radial-gradient" cx="7979.85" cy="-8308.75" fx="7948.902136836562" fy="-8323.611378470785" r="51.94" gradientTransform="matrix(-0.66, 0.7, 0.64, 0.55, 10709.47, -839.01)" gradientUnits="userSpaceOnUse"><stop offset="0.41" stop-color="#f7b4c5"/><stop offset="0.47" stop-color="#f6acc0"/><stop offset="0.55" stop-color="#f597b3"/><stop offset="0.66" stop-color="#f2749e"/><stop offset="0.75" stop-color="#ef538a"/><stop offset="1" stop-color="#d11349"/></radialGradient><radialGradient id="radial-gradient-2" cx="2042.47" cy="-19541.39" fx="2005.417662303965" fy="-19521.967185527566" r="44.34" gradientTransform="matrix(-0.1, -0.95, 0.75, -0.07, 14952.92, 742.24)" xlink:href="#radial-gradient"/><radialGradient id="radial-gradient-3" cx="3219.7" cy="-2182.43" fx="3188.7560718359723" fy="-2197.2979203778787" r="51.94" gradientTransform="matrix(0.66, 0.72, -0.63, 0.52, -3182.1, -1130.56)" xlink:href="#radial-gradient"/><radialGradient id="radial-gradient-4" cx="1272.08" cy="-10216.79" fx="1235.0295468289028" fy="-10197.360859057871" r="44.34" gradientTransform="matrix(0.09, -0.94, -0.75, -0.11, -7410.95, 272.87)" xlink:href="#radial-gradient"/></defs><g class="cls-1"><g id="Layer_1" data-name="Layer 1"><path class="cls-2" d="M300.55,130.75S271,177,264.07,367.42l6.83.14s.29-155.51,35.09-235.3Z"/><g class="cls-3"><path class="cls-4" d="M300.55,130.75s-3.81,6-9,22.46c.39,3,.05,9.2-2.84,21.7-1.48,6.4-3.39,15.91-4.79,26.34C269,278.86,268.79,367,268.79,367l-4.7-.1c0,.17,0,.33,0,.5l6.83.14s.29-155.51,35.09-235.3Z"/></g><path class="cls-5" d="M277.1,239.18s-8.19-62.69-81.77-70.23C195.33,169,232.36,220.23,277.1,239.18Z"/><g class="cls-6"><path class="cls-4" d="M277.1,239.18s-3.7-28.32-28.46-49.17c2.52,2.88,9.78,11.78,10.1,18.94.39,8.68-15.15-18.32-53.06-36.45,0,0,32.32,20.35,45.71,37.63s-7.39,9.27-34.93-16.26C231.49,209.7,253.19,229.05,277.1,239.18Z"/></g><path class="cls-5" d="M239.37,319.2s-15.6-61.58,51.09-90C290.46,229.19,274.58,288.35,239.37,319.2Z"/><g class="cls-6"><path class="cls-4" d="M239.37,319.2s-7.05-27.81,8.57-54.68c-1.3,3.45-4.84,14-2.48,20.82,2.86,8.3,7.49-21.69,36.54-49.8,0,0-22.95,28.58-29.16,48.78s10.44,6.62,26.94-25.47C271.48,278.15,258.18,302.72,239.37,319.2Z"/></g><path class="cls-5" d="M234.8,306.29s.28-60.48-69.09-76.27C165.71,230,194.47,283.05,234.8,306.29Z"/><g class="cls-6"><path class="cls-4" d="M234.8,306.29s.12-27.32-20.85-50c2,3,7.82,12.32,7.2,19.17-.74,8.28-12.11-19.17-46-40.83,0,0,28.27,23.1,38.84,41.08s-8.28,7.94-31.3-19.53C195,273,213.25,293.87,234.8,306.29Z"/></g><path class="cls-2" d="M211.93,235.07c15.4,35.17,24.48,84.25,29.82,128.62,2,.4,4,.83,5.95,1.27-12.21-102.43-30.34-131.17-30.34-131.17Z"/><g class="cls-3"><path class="cls-4" d="M229.65,278.45c-3-12.62-3.41-18.8-3.05-21.82-5.37-16.7-9.24-22.84-9.24-22.84l-5.43,1.28c15.4,35.17,24.48,84.25,29.82,128.62l2.21.45c-2.31-19.31-5.32-39.54-9.26-59.14C233.2,294.51,231.19,284.92,229.65,278.45Z"/></g><path class="cls-7" d="M167.22,198.48a34,34,0,0,0-22.5-4.36c-12.79,2.1-15.37,8.28-14.85,17.62s.67,14.68,3,21.24,6,16,12.17,17.69-4.3-4.77,7.42-14.5,20.69-3.9,30.47-11.85S184.9,207.48,167.22,198.48Z"/><g class="cls-8"><path class="cls-9" d="M145.29,239.57c3.31-10,23.78-12.19,16.74-20.63s-28.54-.48-28.54-.48c12.12-9.81,25.41-7.63,20.93-15.29-3.83-6.54-11.85-7.81-14.12-8a34.57,34.57,0,0,1,4.42-1,34,34,0,0,1,22.5,4.36c17.68,9,25.52,17.9,15.74,25.84s-18.75,2.12-30.47,11.85-1.3,16.14-7.42,14.5c-2.86-.78-5.19-3.27-7.11-6.37C140,246.61,142.66,247.55,145.29,239.57Z"/></g><path class="cls-10" d="M171.84,213.79s-24.63-7.13-40.2,5.34a8.94,8.94,0,0,0-.25,4.3S144.57,212.94,171.84,213.79Z"/><path class="cls-11" d="M151.76,212.81s-14.14.75-20.41,8.19A52.54,52.54,0,0,1,151.76,212.81Z"/><path class="cls-12" d="M165.57,215c-1.5.19-2.58,1.21-2.4,2.26s1.54,1.76,3,1.57,2.58-1.2,2.41-2.26S167.07,214.76,165.57,215Z"/><path class="cls-12" d="M156.52,205.93c-1.5.2-2.58,1.21-2.4,2.27s1.54,1.76,3,1.57,2.58-1.21,2.4-2.27S158,205.74,156.52,205.93Z"/><path class="cls-12" d="M166.57,220.93c-.83.11-1.42.67-1.32,1.25s.85,1,1.68.86,1.42-.66,1.32-1.24S167.4,220.83,166.57,220.93Z"/><path class="cls-12" d="M146.83,206.13c-.82.1-1.41.66-1.32,1.24s.85,1,1.68.87,1.42-.67,1.32-1.25S147.66,206,146.83,206.13Z"/><path class="cls-12" d="M174.94,215.71c-.83.11-1.42.67-1.32,1.25s.85,1,1.68.86,1.41-.66,1.32-1.24S175.77,215.61,174.94,215.71Z"/><path class="cls-12" d="M156.88,217.47c-1.5.19-2.62.94-2.5,1.68s1.44,1.18,3,1,2.62-.95,2.5-1.68S158.38,217.28,156.88,217.47Z"/><path class="cls-12" d="M150.93,198.93c-1.51.19-2.62.95-2.5,1.68s1.44,1.18,2.95,1,2.62-.94,2.5-1.68S152.43,198.74,150.93,198.93Z"/><g class="cls-13"><path class="cls-14" d="M139.53,221.81c-1,.45-1.52,1.24-1.24,1.77s1.29.61,2.25.16,1.53-1.23,1.25-1.76S140.49,221.37,139.53,221.81Z"/><path class="cls-14" d="M139.43,200.3c-1,.44-1.52,1.24-1.24,1.77s1.29.6,2.26.16,1.52-1.23,1.24-1.77S140.4,199.86,139.43,200.3Z"/><path class="cls-14" d="M137.23,210.07c-1,.44-1.52,1.23-1.24,1.76s1.29.61,2.26.16,1.52-1.23,1.24-1.76S138.2,209.62,137.23,210.07Z"/><path class="cls-14" d="M147.54,217.52c-.86.14-1.48.63-1.38,1.11s.87.74,1.74.59,1.48-.63,1.38-1.11S148.4,217.37,147.54,217.52Z"/><path class="cls-14" d="M146.85,223.83c-.68.11-1.17.5-1.09.87s.69.58,1.36.47,1.17-.5,1.09-.87S147.52,223.72,146.85,223.83Z"/></g><path class="cls-15" d="M186.42,212.48s-4.78,3.26-14.91-.62c-14-5.34-21.94-24.33-22-37.29-.05-11.94,6.9-24.47,17.42-31.11,13.3-8.39,30.4-5.73,44.15-5.65,0,0,5.84.44.11,3-4.95,2.23-21.45,14-18.34,33.82C195.66,192.56,202.47,204.54,186.42,212.48Z"/><path class="cls-16" d="M186.42,212.48s-4.78,3.26-14.91-.62c-14-5.34-21.94-24.33-22-37.29-.05-11.94,6.9-24.47,17.42-31.11,13.3-8.39,30.4-5.73,44.15-5.65,0,0,5.84.44.11,3-4.95,2.23-21.45,14-18.34,33.82C195.66,192.56,202.47,204.54,186.42,212.48Z"/><path class="cls-17" d="M180.27,214a26.54,26.54,0,0,1-8.85-1.92c-13.62-5.2-22.11-23.53-22.17-37.53,0-12.08,7-24.66,17.54-31.31,9.1-5.74,19.85-6.33,30.1-6.12,2.14.05,4.27.13,6.33.21,2.76.1,5.34.2,7.86.22.46,0,2.67.25,2.88,1.22.15.67-.69,1.4-2.64,2.27a36.08,36.08,0,0,0-12.1,10.23,30.13,30.13,0,0,0-6.1,23.34c.54,3.46,1.22,6.65,1.88,9.73,2.7,12.7,4.66,21.87-8.45,28.35-.05,0-2.09,1.4-6.28,1.31Zm16.63-76.38c-10.18-.21-20.83.37-29.81,6-10.4,6.56-17.36,19-17.31,30.9.06,13.83,8.42,31.94,21.82,37.06a26.21,26.21,0,0,0,8.66,1.88c4,.08,6-1.22,6-1.23,12.8-6.34,10.87-15.36,8.21-27.84-.66-3.09-1.34-6.29-1.88-9.76-3.07-19.65,12.72-31.48,18.49-34.08,2.31-1,2.39-1.59,2.36-1.73-.1-.44-1.48-.75-2.38-.81l-2,0c-1.91,0-3.83-.11-5.87-.19s-4.18-.16-6.31-.21Z"/><g class="cls-8"><path class="cls-9" d="M149.52,174.57a35.61,35.61,0,0,1,3.76-15.66c-8.7,20.5,10,39.24,9.32,19.85-.72-21.08,21.54-32.8,18.94-29.72s-8.88,2.54-9,23.64c-.06,12.09,6.19,17.07,10.49,12.15s5.73-7.56,7.06-16.57,8.45-16.7,8.45-16.7h.14a30,30,0,0,0-5.84,23.08c2.8,17.91,9.61,29.89-6.44,37.83,0,0-4.78,3.26-14.91-.62C157.53,206.52,149.57,187.53,149.52,174.57Z"/></g><path class="cls-10" d="M186.29,146.27s-22.17,11-16.42,42.76c4.06,22.41,25.65,18.36,16.55,23.45s-23.37-11.26-22.58-35C164.84,147.67,196,139.86,186.29,146.27Z"/><path class="cls-11" d="M175.5,152.1s-19.12,28.23.88,55.16C176.38,207.26,151.88,180.22,175.5,152.1Z"/><path class="cls-12" d="M175.84,170c0,1.45.62,2.66,1.49,2.71s1.62-1.08,1.66-2.53-.61-2.66-1.48-2.71S175.89,168.57,175.84,170Z"/><path class="cls-12" d="M175.29,160c-.37,1.11-.12,2.19.55,2.41s1.52-.5,1.89-1.62.13-2.19-.54-2.41S175.66,158.9,175.29,160Z"/><path class="cls-12" d="M158.09,161.12c-.37,1.11-.13,2.19.55,2.41s1.52-.5,1.89-1.62.13-2.19-.54-2.41S158.46,160,158.09,161.12Z"/><path class="cls-12" d="M182.29,157.56c-.29.87-.1,1.72.43,1.89s1.2-.39,1.49-1.27.1-1.72-.43-1.89S182.59,156.69,182.29,157.56Z"/><path class="cls-12" d="M183,165.3c-.29.88-.1,1.72.43,1.89s1.19-.39,1.48-1.26.1-1.72-.43-1.89S183.31,164.43,183,165.3Z"/><path class="cls-12" d="M166.75,154.46c-.51.76-.55,1.62-.08,1.92s1.27-.1,1.78-.87.55-1.63.09-1.92S167.27,153.69,166.75,154.46Z"/><path class="cls-12" d="M159.32,170c-.22.9,0,1.73.58,1.86s1.15-.49,1.37-1.38,0-1.73-.58-1.86S159.54,169.11,159.32,170Z"/><path class="cls-12" d="M174.27,193.26c.27,1.43,1.18,2.5,2,2.37s1.34-1.38,1.07-2.82-1.17-2.5-2-2.37S174,191.82,174.27,193.26Z"/><path class="cls-12" d="M160,193.35c.27,1.43,1.18,2.5,2,2.37s1.34-1.38,1.08-2.82-1.18-2.49-2-2.37S159.77,191.92,160,193.35Z"/><path class="cls-12" d="M180.16,190.79c.14.79.65,1.38,1.12,1.31s.73-.76.59-1.55-.65-1.38-1.12-1.31S180,190,180.16,190.79Z"/><path class="cls-12" d="M171.9,184.08c.15.78.65,1.37,1.12,1.3s.74-.76.59-1.55-.65-1.37-1.12-1.31S171.76,183.29,171.9,184.08Z"/><path class="cls-12" d="M159.4,182.62c.15.79.65,1.38,1.12,1.31s.74-.76.59-1.55-.65-1.38-1.12-1.31S159.25,181.83,159.4,182.62Z"/><path class="cls-12" d="M155.38,189.74c.15.79.65,1.38,1.12,1.31s.74-.76.59-1.55-.64-1.38-1.12-1.31S155.24,189,155.38,189.74Z"/><path class="cls-12" d="M179.52,179.38c-.29.88-.1,1.72.43,1.89s1.19-.39,1.48-1.27.1-1.72-.43-1.89S179.81,178.51,179.52,179.38Z"/><path class="cls-18" d="M185.37,219.37s-3.93-2.47-11.17,1.44c-10,5.4-14.06,22-12.79,33,1.17,10.13,7.68,20.35,16.28,25.35,10.86,6.31,23.47,3,33.81,2.09,0,0,4.36-.74-.21-2.58-4-1.58-17.57-10.54-17.24-27.6C194.34,235.73,198.25,225.13,185.37,219.37Z"/><path class="cls-19" d="M185.37,219.37s-3.93-2.47-11.17,1.44c-10,5.4-14.06,22-12.79,33,1.17,10.13,7.68,20.35,16.28,25.35,10.86,6.31,23.47,3,33.81,2.09,0,0,4.36-.74-.21-2.58-4-1.58-17.57-10.54-17.24-27.6C194.34,235.73,198.25,225.13,185.37,219.37Z"/><path class="cls-17" d="M192.41,283.21h0a30.14,30.14,0,0,1-14.86-3.8c-8.62-5-15.21-15.27-16.4-25.54-1.37-11.9,3.17-28,12.92-33.28a16.31,16.31,0,0,1,8-2.24,7.28,7.28,0,0,1,3.49.81c10.53,4.7,10,12.62,9.23,23.58-.19,2.66-.38,5.41-.43,8.38-.32,16.61,12.54,25.55,17.08,27.36,1.59.64,2.3,1.22,2.25,1.82-.08.85-1.75,1.17-2.08,1.23-1.92.17-3.86.41-5.91.67a91.57,91.57,0,0,1-13.24,1ZM182,218.85a15.77,15.77,0,0,0-7.69,2.18c-9.56,5.17-14,21.05-12.66,32.8,1.17,10.11,7.66,20.23,16.15,25.16a29.65,29.65,0,0,0,14.59,3.72,90.55,90.55,0,0,0,13.15-1c2.06-.26,4-.51,5.91-.67.63-.11,1.61-.44,1.64-.8,0-.12-.09-.56-1.92-1.29-4.62-1.86-17.73-11-17.41-27.85.06-3,.25-5.74.43-8.4.74-10.76,1.28-18.53-9-23.1a6.8,6.8,0,0,0-3.24-.75Z"/><g class="cls-20"><path class="cls-9" d="M161.41,253.85a34.55,34.55,0,0,0,4.42,13.06c-8.63-16.87,3.54-33.94,5-17.44,1.59,18,19.54,26.55,17.27,24.09S181.17,272,179,254c-1.27-10.27,2.93-14.89,6.67-11s5.08,6.07,7,13.65,8.06,13.67,8.06,13.67l.1,0a28.93,28.93,0,0,1-6.73-19.25c.29-15.38,4.2-26-8.68-31.74,0,0-3.93-2.47-11.17,1.44C164.21,226.21,160.14,242.83,161.41,253.85Z"/></g><path class="cls-10" d="M192,275.62s-17.81-8-16.7-35.31c.8-19.29,17.46-17.17,10.1-20.94s-16.47,11-13.46,31.12C175.68,275.74,200,280.47,192,275.62Z"/><path class="cls-11" d="M183.26,271.33s-17.26-22.8-4.93-46.9C178.33,224.43,162.62,248.9,183.26,271.33Z"/><path class="cls-21" d="M181.7,256.1c-.18-1.23.2-2.3.85-2.4s1.32.83,1.51,2.05-.2,2.3-.85,2.4S181.88,257.32,181.7,256.1Z"/><path class="cls-21" d="M182.3,264.63c-.39-.92-.32-1.86.17-2.09s1.19.34,1.59,1.26.31,1.86-.17,2.09S182.69,265.55,182.3,264.63Z"/><path class="cls-21" d="M169.23,264.74c-.39-.92-.32-1.85.17-2.08s1.2.34,1.59,1.25.32,1.86-.17,2.09S169.62,265.67,169.23,264.74Z"/><path class="cls-21" d="M187.82,266.28c-.31-.73-.25-1.46.13-1.64s.94.27,1.25,1,.25,1.45-.13,1.63S188.13,267,187.82,266.28Z"/><path class="cls-21" d="M187.58,259.65c-.31-.72-.25-1.45.13-1.63s.94.27,1.25,1,.25,1.45-.13,1.63S187.89,260.38,187.58,259.65Z"/><path class="cls-21" d="M176.43,269.87c-.46-.62-.58-1.35-.25-1.63s1,0,1.42.63.58,1.35.26,1.63S176.9,270.49,176.43,269.87Z"/><path class="cls-21" d="M169.25,257.12c-.25-.74-.14-1.47.26-1.61s.92.34,1.17,1.08.14,1.47-.25,1.62S169.51,257.87,169.25,257.12Z"/><path class="cls-12" d="M178.16,236.45c.06-1.24.63-2.2,1.29-2.15s1.15,1.1,1.1,2.34-.64,2.19-1.3,2.14S178.11,237.68,178.16,236.45Z"/><path class="cls-12" d="M167.44,237.24c.05-1.23.63-2.19,1.29-2.14s1.14,1.1,1.09,2.33-.63,2.2-1.29,2.14S167.38,238.48,167.44,237.24Z"/><path class="cls-12" d="M182.85,238.18c0-.68.34-1.21.71-1.18s.63.6.6,1.28-.35,1.21-.71,1.18S182.82,238.86,182.85,238.18Z"/><path class="cls-12" d="M177.31,244.39c0-.68.35-1.2.71-1.18s.63.61.6,1.28-.35,1.21-.71,1.19S177.28,245.07,177.31,244.39Z"/><path class="cls-12" d="M168,246.4c0-.69.35-1.21.71-1.18s.63.6.6,1.28-.35,1.21-.71,1.17S168,247.07,168,246.4Z"/><path class="cls-12" d="M164.29,240.59c0-.67.35-1.2.71-1.17s.64.6.6,1.28-.34,1.2-.7,1.18S164.26,241.27,164.29,240.59Z"/><path class="cls-21" d="M183.52,247.91c-.31-.72-.25-1.45.13-1.63s.94.26,1.25,1,.25,1.45-.14,1.63S183.83,248.63,183.52,247.91Z"/><path class="cls-16" d="M184,202.62c-.07-.29-.14-.57-.2-.86-1.63-7.76,3.33-16.76,8.35-22.41,9.74-10.95,27-15.36,52.79-11.72,0,0,6.89,3,.63,5s-19.86,9.57-25.31,18.87c-4.22,7.21-10.35,16.69-18.64,20.15C193.84,214.89,186,210,184,202.62Z"/><g class="cls-6"><path class="cls-17" d="M192.14,179.35A33.25,33.25,0,0,1,200,172.9c-3.57,2.72-9.43,7.71-8.36,10.33,1.53,3.73,8.4-7.29,15.85-9.63s11.91-3.08,3.85,2.68-16.94,20.47-2.68,17.86c10.57-1.93,16.26-11.26,27.3-17-5.91,3.52-12.36,8.6-15.71,14.32-4.22,7.21-10.35,16.69-18.64,20.15-7.77,3.24-15.59-1.69-17.62-9-.07-.29-.14-.57-.2-.86C182.16,194,187.12,185,192.14,179.35Z"/></g><path class="cls-12" d="M197.91,192.6c-1,1.08-1.26,2.4-.6,3s2,.14,3-.94,1.26-2.4.6-3S198.9,191.52,197.91,192.6Z"/><path class="cls-12" d="M187.59,187c-.67,1.28-.68,2.59,0,2.92s1.76-.43,2.44-1.71.68-2.59,0-2.93S188.27,185.68,187.59,187Z"/><path class="cls-12" d="M186.4,192.64c-.45.86-.45,1.74,0,2s1.18-.29,1.64-1.15.46-1.75,0-2S186.86,191.78,186.4,192.64Z"/><path class="cls-12" d="M204,194.07c-.55.59-.69,1.32-.33,1.63s1.1.07,1.65-.52.69-1.32.33-1.63S204.52,193.48,204,194.07Z"/><path class="cls-12" d="M210.92,179.14c-1.14.45-1.83,1.32-1.54,2s1.44.77,2.58.31,1.83-1.32,1.54-2S212.05,178.69,210.92,179.14Z"/><path class="cls-12" d="M203,171.87c-1.05.61-1.7,1.41-1.45,1.78s1.29.18,2.34-.43,1.7-1.41,1.46-1.78S204,171.26,203,171.87Z"/><path class="cls-12" d="M220.2,176.42c-1.14.46-1.82,1.33-1.53,2s1.44.77,2.58.32,1.82-1.33,1.53-1.95S221.34,176,220.2,176.42Z"/><path class="cls-12" d="M209.23,187.1c-.64.42-.95,1.05-.69,1.41s1,.31,1.64-.11,1-1.05.7-1.41S209.88,186.69,209.23,187.1Z"/><path class="cls-12" d="M217.09,184.5c-.45.29-.67.74-.48,1s.69.21,1.14-.08.67-.73.49-1S217.54,184.21,217.09,184.5Z"/><path class="cls-12" d="M196.38,178.3c-.46.29-.67.73-.49,1s.69.22,1.15-.08.67-.73.48-1S196.83,178,196.38,178.3Z"/><path class="cls-10" d="M228.73,170.71s-19.47-2.54-33.62,23.58c-9.54,17.62,6,23.41-2.78,22.69s-9.19-18.85,4.42-35C213.83,161.6,238.68,170.82,228.73,170.71Z"/><path class="cls-11" d="M219.8,170.16s-28.24,8-29.9,36.22C189.9,206.38,187.42,177.57,219.8,170.16Z"/><path class="cls-22" d="M183.79,213.79s-16,.83-27.6,5.49,9.88-2.25,28.29-3.55S183.79,213.79,183.79,213.79Z"/><path class="cls-23" d="M152.46,218.66s-4.45,3.9-3.46,7.76S158.85,213.06,152.46,218.66Z"/><path class="cls-24" d="M152.34,219.37s-3.34,3.79-2.93,5.39S155,217.05,152.34,219.37Z"/><path class="cls-22" d="M187.74,210.43s-17.88-5.12-32.57-4.49,11.77,1.31,32.51,6.85S187.74,210.43,187.74,210.43Z"/><path class="cls-23" d="M151.26,204.74s-6.52,2.5-7,7S160.6,201.16,151.26,204.74Z"/><path class="cls-24" d="M150.82,205.46s-5.25,2.8-5.47,4.68S154.7,204,150.82,205.46Z"/><path class="cls-22" d="M180.37,211.36s-17.34-6.67-28.6-16,10.87,7.44,30.91,14.77S180.37,211.36,180.37,211.36Z"/><path class="cls-23" d="M147.47,192.72s5.45-4.18,9.94-2.46S139.66,198.73,147.47,192.72Z"/><path class="cls-24" d="M148.35,192.71s5.13-3,7-2.28S145.11,195.2,148.35,192.71Z"/><path class="cls-16" d="M187,202.44s2.39-8.94,32.69-2.9c26.74,5.32,29.84,10.77,38.47,23.43,9.95,14.62,9.5,19.64,4.9,19.38s-1.09-.24-24.6.18-54.5,5.59-56.6-11.08C180,216.17,184.93,205.32,187,202.44Z"/><g class="cls-20"><path class="cls-9" d="M187,202.44s2-7.57,26-4.07l-.46.29s-16.54-2.89-18.7,5c0,0-1.34,6.17,8.51,9s26.68,8,37.48,12.79,6.8,3.76-18.47,1.3-24.86.87-25.93,6.34,7.61,7.38,21.34,7.5,28.58.82,34.66,1.62l.43.07-13.4.25c-23.5.41-54.5,5.59-56.6-11.08C180,216.17,184.93,205.32,187,202.44Z"/></g><path class="cls-10" d="M182.25,214.79s-1.89,4.54-1.2,7.16A235.39,235.39,0,0,1,214.49,225c16.54,2.89,31.52,4.58,38.24,7.68s5.25-.14-10.23-5.81a195.63,195.63,0,0,0-41.74-10.39A183.5,183.5,0,0,0,182.25,214.79Z"/><path class="cls-11" d="M206.35,217.87s23,2.85,40.57,11.38c0,0-27.44-7.63-45.5-9.71S193,216.36,206.35,217.87Z"/><path class="cls-25" d="M218.21,207c-1.18-.4-2.32-.21-2.54.42s.55,1.49,1.73,1.89,2.32.21,2.55-.43S219.39,207.38,218.21,207Z"/><path class="cls-25" d="M227.17,211c-1.18-.4-2.32-.21-2.55.42s.56,1.48,1.74,1.88,2.32.22,2.54-.42S228.35,211.37,227.17,211Z"/><path class="cls-25" d="M211.31,211.65c-.79-.11-1.47.15-1.52.57s.53.86,1.32,1,1.47-.15,1.52-.57S212.09,211.77,211.31,211.65Z"/><path class="cls-25" d="M210.57,200.76c-.78-.11-1.46.15-1.52.57s.54.87,1.32,1,1.47-.15,1.53-.58S211.36,200.87,210.57,200.76Z"/><path class="cls-25" d="M228.64,204.54c-.78-.12-1.47.14-1.52.56s.53.87,1.32,1,1.47-.15,1.52-.57S229.43,204.65,228.64,204.54Z"/><path class="cls-25" d="M219.1,214.81c-.55-.08-1,.1-1.06.4s.37.6.92.68,1-.1,1.07-.4S219.65,214.89,219.1,214.81Z"/><path class="cls-25" d="M215.37,232.16c-1.23-.24-2.32.1-2.44.76s.76,1.4,2,1.64,2.32-.11,2.44-.77S216.59,232.4,215.37,232.16Z"/><path class="cls-25" d="M224.8,234.9c-1.23-.24-2.32.1-2.45.77s.77,1.39,2,1.63,2.32-.11,2.44-.77S226,235.14,224.8,234.9Z"/><path class="cls-25" d="M209.26,237.74c-.79,0-1.42.34-1.41.77s.66.79,1.45.79,1.42-.34,1.41-.77S210.06,237.74,209.26,237.74Z"/><path class="cls-25" d="M237.8,233.58c-.79,0-1.43.34-1.42.77s.66.78,1.45.79,1.43-.34,1.42-.78S238.59,233.58,237.8,233.58Z"/><path class="cls-25" d="M206.91,227c-.79,0-1.43.34-1.42.77s.66.78,1.45.79,1.43-.34,1.42-.77S207.7,227,206.91,227Z"/><path class="cls-25" d="M225.28,228.31c-.79,0-1.42.34-1.41.77s.66.78,1.45.79,1.42-.35,1.41-.78S226.08,228.31,225.28,228.31Z"/><path class="cls-25" d="M217.42,239.82c-.55,0-1,.23-1,.54s.46.54,1,.55,1-.24,1-.54S218,239.82,217.42,239.82Z"/><path class="cls-12" d="M189.57,224.91c-1.51.19-2.57,1.31-2.37,2.49a2.64,2.64,0,0,0,3.08,1.78c1.51-.19,2.57-1.3,2.37-2.48A2.63,2.63,0,0,0,189.57,224.91Z"/><path class="cls-12" d="M193.69,232c-.83.11-1.41.72-1.31,1.37a1.44,1.44,0,0,0,1.7,1c.83-.1,1.41-.72,1.3-1.36A1.44,1.44,0,0,0,193.69,232Z"/><path class="cls-12" d="M201.29,201.36c-.83.1-1.41.71-1.3,1.36a1.43,1.43,0,0,0,1.69,1c.83-.1,1.41-.71,1.31-1.36A1.44,1.44,0,0,0,201.29,201.36Z"/><path class="cls-12" d="M190.81,203.4c-1.5.19-2.56,1.3-2.36,2.48a2.63,2.63,0,0,0,3.08,1.79c1.5-.2,2.56-1.31,2.36-2.48A2.6,2.6,0,0,0,190.81,203.4Z"/><path class="cls-12" d="M194.93,210.5c-.83.1-1.41.71-1.3,1.36a1.44,1.44,0,0,0,1.7,1c.83-.1,1.41-.71,1.3-1.36A1.44,1.44,0,0,0,194.93,210.5Z"/><path class="cls-12" d="M199.29,224.94c-1.5.19-2.61,1-2.47,1.84s1.47,1.33,3,1.14,2.62-1,2.48-1.83S200.8,224.75,199.29,224.94Z"/><path class="cls-7" d="M344.66,95.21a33,33,0,0,1,22.47-3.41c12.8,2.63,15.45,8.92,15,18.24s-.52,14.66-2.82,21.12-5.9,15.79-12,17.18,4.25-4.59-7.57-14.81S339,128.76,329.17,120.4,327.07,103.47,344.66,95.21Z"/><g class="cls-8"><path class="cls-9" d="M367,137.23c-3.41-10.17-23.91-13.19-16.95-21.33s28.55.71,28.55.71c-12.23-10.32-25.49-8.7-21.09-16.17,3.76-6.38,11.78-7.32,14.05-7.45a35.7,35.7,0,0,0-4.43-1.19,33,33,0,0,0-22.47,3.41c-17.59,8.26-25.35,16.84-15.49,25.19s18.77,2.9,30.59,13.13,1.46,16.2,7.57,14.81c2.85-.65,5.16-3.05,7-6.07C372.34,144.49,369.71,145.32,367,137.23Z"/></g><path class="cls-10" d="M340.19,110.33s24.57-6.09,40.26,7a9,9,0,0,1,.3,4.31S367.46,110.63,340.19,110.33Z"/><path class="cls-11" d="M360.26,110.19s14.16,1.35,20.5,9.06A55.63,55.63,0,0,0,360.26,110.19Z"/><path class="cls-12" d="M346.47,111.75c1.51.26,2.59,1.32,2.43,2.37s-1.53,1.7-3,1.44-2.59-1.31-2.43-2.36S345,111.5,346.47,111.75Z"/><path class="cls-12" d="M355.43,103.12c1.51.25,2.6,1.31,2.43,2.36s-1.53,1.7-3,1.44-2.59-1.31-2.43-2.36S353.93,102.86,355.43,103.12Z"/><path class="cls-12" d="M345.53,117.7c.83.14,1.42.72,1.33,1.3s-.84.93-1.66.8-1.43-.73-1.34-1.31S344.7,117.56,345.53,117.7Z"/><path class="cls-12" d="M365.13,103.72c.83.14,1.42.72,1.33,1.3s-.84.93-1.67.79-1.42-.72-1.33-1.3S364.3,103.58,365.13,103.72Z"/><path class="cls-12" d="M337.11,112.13c.83.14,1.42.72,1.33,1.3s-.84.93-1.67.79-1.42-.72-1.33-1.3S336.28,112,337.11,112.13Z"/><path class="cls-12" d="M355.19,114.64c1.51.25,2.63,1,2.52,1.79s-1.44,1.12-2.94.86-2.64-1.05-2.52-1.78S353.68,114.38,355.19,114.64Z"/><path class="cls-12" d="M361,96.35c1.51.25,2.63,1.06,2.52,1.79s-1.43,1.12-2.94.86-2.63-1-2.52-1.79S359.46,96.09,361,96.35Z"/><g class="cls-13"><path class="cls-14" d="M372.59,119.71c1,.49,1.53,1.3,1.25,1.82s-1.28.56-2.25.07-1.53-1.29-1.26-1.82S371.62,119.23,372.59,119.71Z"/><path class="cls-14" d="M372.48,98.2c1,.49,1.53,1.3,1.25,1.82s-1.28.55-2.25.07-1.54-1.3-1.26-1.82S371.51,97.72,372.48,98.2Z"/><path class="cls-14" d="M374.77,108.06c1,.48,1.54,1.3,1.26,1.82s-1.29.55-2.26.06-1.53-1.29-1.26-1.81S373.8,107.58,374.77,108.06Z"/><path class="cls-14" d="M364.53,115.08c.86.18,1.49.7,1.4,1.17s-.87.7-1.74.52-1.49-.7-1.39-1.17S363.67,114.9,364.53,115.08Z"/><path class="cls-14" d="M365.29,121.42c.67.14,1.16.55,1.09.92s-.68.55-1.36.41-1.17-.55-1.09-.92S364.61,121.28,365.29,121.42Z"/></g><path class="cls-26" d="M325.59,108.41s4.82,3.46,14.91,0C354.43,103.66,362.21,85,362.13,72,362.07,60.1,355,47.28,344.4,40.19c-13.38-8.94-30.46-7-44.21-7.5,0,0-5.83.2-.09,3,5,2.44,21.6,14.87,18.69,34.61C316.16,88.1,309.47,99.8,325.59,108.41Z"/><path class="cls-16" d="M325.59,108.41s4.82,3.46,14.91,0C354.43,103.66,362.21,85,362.13,72,362.07,60.1,355,47.28,344.4,40.19c-13.38-8.94-30.46-7-44.21-7.5,0,0-5.83.2-.09,3,5,2.44,21.6,14.87,18.69,34.61C316.16,88.1,309.47,99.8,325.59,108.41Z"/><path class="cls-17" d="M331.76,110.2c-4.19-.09-6.24-1.53-6.29-1.57-13.18-7-11.31-16.13-8.73-28.71.63-3.06,1.28-6.22,1.79-9.66a31.34,31.34,0,0,0-6.34-23.6A39,39,0,0,0,300,35.92c-2-1-2.81-1.71-2.67-2.38.2-1,2.42-1.09,2.88-1.1,2.52.09,5.1.1,7.85.11,2.06,0,4.2,0,6.33.06,10.26.21,21,1.26,30.17,7.38,10.6,7.09,17.78,20,17.85,32.05.08,14-8.24,32-21.81,36.61a25.76,25.76,0,0,1-8.83,1.55ZM314.38,33.11c-2.13,0-4.26,0-6.31-.06s-4,0-5.87-.06l-2-.05c-.9,0-2.28.28-2.37.71,0,.14.05.69,2.38,1.83,5.8,2.84,21.7,15.34,18.83,34.87-.51,3.45-1.16,6.61-1.79,9.67-2.54,12.38-4.38,21.32,8.49,28.2a11.63,11.63,0,0,0,6,1.48,25.48,25.48,0,0,0,8.65-1.52C353.77,103.62,362,85.86,361.87,72c-.07-11.92-7.15-24.63-17.62-31.64-9-6-19.69-7.07-29.87-7.28Z"/><g class="cls-8"><path class="cls-9" d="M362.13,72a36.86,36.86,0,0,0-3.91-15.82c8.9,20.87-9.6,38.83-9.13,19.47.52-21.06-21.86-33.72-19.23-30.52s8.9,2.9,9.21,24c.18,12.1-6,16.82-10.38,11.72s-5.8-7.8-7.22-16.88-8.61-17-8.61-17h-.14a31.21,31.21,0,0,1,6.07,23.34c-2.63,17.79-9.32,29.49,6.8,38.1,0,0,4.82,3.46,14.91,0C354.43,103.66,362.21,85,362.13,72Z"/></g><path class="cls-10" d="M325.08,42.19s22.28,12,16.84,43.46c-3.84,22.25-25.47,17.28-16.33,22.76s23.27-10.28,22.24-34.06C346.55,44.5,315.27,35.37,325.08,42.19Z"/><path class="cls-11" d="M335.92,48.47s19.41,29-.34,55.14C335.58,103.61,359.82,77.6,335.92,48.47Z"/><path class="cls-12" d="M335.76,66.38c.06,1.45-.59,2.63-1.46,2.65s-1.63-1.16-1.69-2.61.59-2.63,1.46-2.64S335.69,64.93,335.76,66.38Z"/><path class="cls-12" d="M336.21,56.4c.38,1.12.15,2.19-.52,2.39s-1.53-.57-1.91-1.7-.15-2.2.52-2.39S335.83,55.27,336.21,56.4Z"/><path class="cls-12" d="M353.43,58.23c.38,1.13.15,2.2-.53,2.39s-1.52-.57-1.91-1.7-.15-2.2.53-2.39S353,57.1,353.43,58.23Z"/><path class="cls-12" d="M329.18,53.65c.3.89.12,1.73-.41,1.88s-1.19-.45-1.49-1.33-.12-1.73.41-1.88S328.88,52.77,329.18,53.65Z"/><path class="cls-12" d="M328.53,61.37c.31.88.12,1.72-.41,1.87s-1.19-.45-1.49-1.33-.12-1.72.41-1.87S328.23,60.48,328.53,61.37Z"/><path class="cls-12" d="M344.7,51.2c.52.79.56,1.65.1,1.92s-1.27-.14-1.79-.94-.57-1.65-.1-1.92S344.17,50.41,344.7,51.2Z"/><path class="cls-12" d="M352.29,67.06c.22.9,0,1.73-.57,1.83s-1.16-.53-1.38-1.43,0-1.73.56-1.83S352.06,66.16,352.29,67.06Z"/><path class="cls-12" d="M337.56,89.69c-.25,1.43-1.15,2.45-2,2.29s-1.35-1.44-1.1-2.86,1.15-2.45,2-2.29S337.81,88.27,337.56,89.69Z"/><path class="cls-12" d="M351.79,90.38c-.25,1.43-1.15,2.45-2,2.29s-1.35-1.44-1.1-2.86,1.15-2.45,2-2.29S352,89,351.79,90.38Z"/><path class="cls-12" d="M331.65,87c-.14.79-.64,1.35-1.11,1.26s-.74-.79-.6-1.57.63-1.35,1.1-1.26S331.78,86.2,331.65,87Z"/><path class="cls-12" d="M339.84,80.61c-.14.78-.64,1.35-1.11,1.26s-.74-.8-.6-1.58.63-1.34,1.1-1.26S340,79.83,339.84,80.61Z"/><path class="cls-12" d="M352.33,79.68c-.14.79-.64,1.35-1.11,1.26s-.74-.79-.6-1.58.63-1.34,1.1-1.26S352.47,78.9,352.33,79.68Z"/><path class="cls-12" d="M356.41,87c-.13.78-.63,1.35-1.1,1.26s-.75-.79-.61-1.58.64-1.34,1.11-1.26S356.55,86.19,356.41,87Z"/><path class="cls-12" d="M332.17,75.6c.31.88.12,1.72-.4,1.87s-1.2-.45-1.5-1.33-.12-1.73.41-1.88S331.88,74.71,332.17,75.6Z"/><path class="cls-27" d="M326.72,115.35s3.9-2.31,11.18,1.91c10,5.82,14.28,22.61,13.11,33.58-1.07,10.08-7.47,20-16,24.67-10.8,5.85-23.45,2-33.8.67,0,0-4.36-.92.19-2.57,3.94-1.42,17.47-9.8,17-26.89C317.9,131.33,313.88,120.56,326.72,115.35Z"/><path class="cls-19" d="M326.72,115.35s3.9-2.31,11.18,1.91c10,5.82,14.28,22.61,13.11,33.58-1.07,10.08-7.47,20-16,24.67-10.8,5.85-23.45,2-33.8.67,0,0-4.36-.92.19-2.57,3.94-1.42,17.47-9.8,17-26.89C317.9,131.33,313.88,120.56,326.72,115.35Z"/><path class="cls-17" d="M320.3,178.9a91.53,91.53,0,0,1-13.25-1.56c-2.06-.34-4-.67-5.92-.92-.34-.07-2-.46-2.09-1.32-.07-.6.64-1.15,2.23-1.72,4.51-1.63,17.29-10,16.81-26.65-.08-3-.3-5.73-.51-8.4-.86-11-1.48-18.94,9-23.2a7,7,0,0,1,3.48-.66,17,17,0,0,1,8,2.57c9.8,5.68,14.5,22,13.24,33.83-1.08,10.22-7.58,20.21-16.15,24.86a29.21,29.21,0,0,1-14.82,3.17ZM330.05,115a6.7,6.7,0,0,0-3.23.61c-10.18,4.14-9.57,11.93-8.72,22.73.21,2.67.42,5.43.51,8.42.49,16.91-12.54,25.46-17.14,27.12-1.82.66-1.92,1.1-1.91,1.22,0,.35,1,.73,1.65.86,1.9.25,3.85.57,5.91.92a91.06,91.06,0,0,0,13.18,1.55,28.6,28.6,0,0,0,14.55-3.11c8.44-4.57,14.83-14.41,15.9-24.49,1.24-11.68-3.37-27.75-13-33.33a16.42,16.42,0,0,0-7.72-2.5Z"/><g class="cls-20"><path class="cls-9" d="M351,150.84a33,33,0,0,1-4.29,12.88c8.47-16.52-3.88-34.1-5.18-17.66-1.42,17.9-19.29,25.74-17,23.37s6.93-1.32,9-19.14c1.17-10.22-3.08-15-6.79-11.26s-5,5.86-6.86,13.36-7.92,13.33-7.92,13.33l-.1,0a27.56,27.56,0,0,0,6.55-19c-.45-15.39-4.47-26.16,8.37-31.37,0,0,3.9-2.31,11.18,1.91C347.94,123.08,352.18,139.87,351,150.84Z"/></g><path class="cls-10" d="M320.66,171.33s17.74-7.27,16.35-34.62c-1-19.32-17.62-17.9-10.29-21.36S343.29,127,340.48,147C337,172.14,312.72,175.84,320.66,171.33Z"/><path class="cls-11" d="M329.33,167.41s17.05-22.08,4.47-46.71C333.8,120.7,349.76,145.83,329.33,167.41Z"/><path class="cls-21" d="M330.74,152.23c.17-1.22-.22-2.3-.87-2.43s-1.32.77-1.49,2,.22,2.31.87,2.43S330.57,153.45,330.74,152.23Z"/><path class="cls-21" d="M330.23,160.74c.38-.9.3-1.84-.19-2.09s-1.2.28-1.58,1.19-.3,1.85.19,2.09S329.84,161.65,330.23,160.74Z"/><path class="cls-21" d="M343.3,161.4c.38-.9.3-1.84-.19-2.09s-1.2.29-1.58,1.19-.3,1.85.19,2.1S342.91,162.31,343.3,161.4Z"/><path class="cls-21" d="M324.72,162.16c.3-.71.23-1.45-.15-1.64s-.93.22-1.23.93-.24,1.45.14,1.64S324.42,162.87,324.72,162.16Z"/><path class="cls-21" d="M324.89,155.55c.3-.71.24-1.45-.14-1.64s-.94.22-1.24.93-.23,1.45.15,1.64S324.59,156.26,324.89,155.55Z"/><path class="cls-21" d="M336.15,166.23c.46-.6.56-1.32.24-1.62s-1,0-1.43.57-.56,1.32-.24,1.62S335.69,166.83,336.15,166.23Z"/><path class="cls-21" d="M343.2,153.78c.25-.73.13-1.46-.27-1.62s-.91.3-1.16,1-.13,1.47.27,1.63S343,154.52,343.2,153.78Z"/><path class="cls-12" d="M334.09,132.73c-.07-1.24-.66-2.22-1.31-2.2s-1.14,1.05-1.07,2.29S332.36,135,333,135,334.16,134,334.09,132.73Z"/><path class="cls-12" d="M344.82,134c-.06-1.23-.65-2.21-1.31-2.19s-1.13,1.05-1.07,2.28.66,2.23,1.32,2.2S344.89,135.21,344.82,134Z"/><path class="cls-12" d="M329.42,134.27c0-.69-.36-1.23-.72-1.21s-.63.57-.59,1.25.36,1.22.72,1.21S329.46,134.94,329.42,134.27Z"/><path class="cls-12" d="M335,140.71c0-.68-.36-1.22-.72-1.21s-.63.58-.59,1.26.36,1.22.72,1.21S335.06,141.39,335,140.71Z"/><path class="cls-12" d="M344.31,143.1c0-.68-.36-1.22-.72-1.2s-.63.57-.59,1.25.36,1.22.72,1.21S344.35,143.78,344.31,143.1Z"/><path class="cls-12" d="M348,137.46c0-.68-.36-1.22-.72-1.21s-.63.58-.59,1.26.36,1.22.72,1.21S348,138.14,348,137.46Z"/><path class="cls-21" d="M328.84,144c.3-.71.24-1.44-.14-1.64s-.94.23-1.24.94-.24,1.44.15,1.63S328.54,144.68,328.84,144Z"/><path class="cls-16" d="M327.92,98.65c.08-.28.14-.56.2-.85,1.55-7.69-3.5-16.9-8.57-22.76-9.85-11.37-27.13-16.5-52.91-14,0,0-6.87,2.75-.59,5S286,76.48,291.55,86c4.29,7.39,10.52,17.13,18.84,20.93A12.5,12.5,0,0,0,327.92,98.65Z"/><g class="cls-6"><path class="cls-17" d="M319.55,75a35.88,35.88,0,0,0-7.92-6.79c3.59,2.87,9.5,8.11,8.45,10.69-1.48,3.66-8.47-7.65-15.94-10.31s-11.95-3.57-3.82,2.52,17.14,21.2,2.85,18C292.58,86.75,286.8,77.18,275.69,71c6,3.77,12.45,9.12,15.86,15,4.29,7.39,10.52,17.13,18.84,20.93a12.5,12.5,0,0,0,17.53-8.29c.08-.28.14-.56.2-.85C329.67,90.11,324.62,80.9,319.55,75Z"/></g><path class="cls-12" d="M313.91,88.05c1,1.11,1.28,2.45.63,3s-2,0-3-1.06-1.29-2.46-.63-3S312.91,86.93,313.91,88.05Z"/><path class="cls-12" d="M324.17,82.84c.69,1.31.71,2.61,0,2.92s-1.77-.51-2.46-1.82-.7-2.62,0-2.92S323.48,81.53,324.17,82.84Z"/><path class="cls-12" d="M325.42,88.57c.46.88.47,1.76,0,2s-1.19-.35-1.65-1.23-.48-1.76,0-2S325,87.69,325.42,88.57Z"/><path class="cls-12" d="M307.85,89.26c.55.61.71,1.35.35,1.64s-1.1,0-1.66-.59-.7-1.35-.34-1.64S307.3,88.64,307.85,89.26Z"/><path class="cls-12" d="M300.77,74c1.14.5,1.83,1.41,1.55,2s-1.43.71-2.58.21-1.84-1.4-1.55-2S299.63,73.53,300.77,74Z"/><path class="cls-12" d="M308.65,67.1c1.06.66,1.72,1.48,1.47,1.84s-1.29.13-2.34-.53-1.72-1.48-1.48-1.84S307.6,66.45,308.65,67.1Z"/><path class="cls-12" d="M291.45,70.93c1.15.5,1.84,1.4,1.56,2s-1.44.71-2.58.21-1.84-1.4-1.55-2S290.31,70.43,291.45,70.93Z"/><path class="cls-12" d="M302.53,82.07c.65.45,1,1.09.71,1.44s-1,.27-1.65-.18-1-1.09-.71-1.44S301.88,81.63,302.53,82.07Z"/><path class="cls-12" d="M294.64,79.14c.46.31.68.76.5,1s-.7.19-1.15-.12-.68-.76-.5-1S294.19,78.83,294.64,79.14Z"/><path class="cls-12" d="M315.3,73.8c.46.32.68.76.5,1s-.69.18-1.15-.13-.68-.76-.5-1S314.85,73.49,315.3,73.8Z"/><path class="cls-10" d="M282.86,64.86s19.45-1.72,33.86,25c9.72,18-5.78,23.17,3,22.82s9-18.48-4.76-35.25C297.68,56.37,272.92,64.55,282.86,64.86Z"/><path class="cls-11" d="M291.79,64.68s28.33,9.2,30.27,37.48C322.06,102.16,324.25,73.45,291.79,64.68Z"/><path class="cls-22" d="M328.24,109.83s16,1.5,27.66,6.65-9.9-2.66-28.33-4.73S328.24,109.83,328.24,109.83Z"/><path class="cls-23" d="M359.62,116s4.49,4.1,3.54,7.92S353.18,110.15,359.62,116Z"/><path class="cls-24" d="M359.75,116.73s3.38,3.93,3,5.52S357.08,114.3,359.75,116.73Z"/><path class="cls-22" d="M324.26,106.31s17.82-4.38,32.52-3.13-11.75.81-32.45,5.48S324.26,106.31,324.26,106.31Z"/><path class="cls-23" d="M360.69,102.14s6.54,2.78,7.12,7.32S351.31,98.17,360.69,102.14Z"/><path class="cls-24" d="M361.13,102.88s5.28,3,5.52,4.91S357.23,101.23,361.13,102.88Z"/><path class="cls-22" d="M331.63,107.54s17.28-5.94,28.45-14.8-10.8,7-30.77,13.48S331.63,107.54,331.63,107.54Z"/><path class="cls-23" d="M364.36,90.29s-5.49-4.41-10-2.89S372.23,96.62,364.36,90.29Z"/><path class="cls-24" d="M363.48,90.23s-5.16-3.21-7-2.57S366.74,92.86,363.48,90.23Z"/><path class="cls-16" d="M324.89,98.35s-2.48-9-32.73-4.29c-26.7,4.21-29.74,9.53-38.24,21.83-9.82,14.21-9.32,19.25-4.71,19.18s1.08-.19,24.6,1.21,54.56,7.88,56.5-8.71C332.08,112.37,327,101.31,324.89,98.35Z"/><g class="cls-20"><path class="cls-9" d="M324.89,98.35s-2.11-7.67-26.05-5.17l.46.31s16.51-2.2,18.76,5.81c0,0,1.4,6.22-8.43,8.62s-26.61,6.92-37.36,11.22-6.76,3.47,18.49,2.08,24.87,1.91,26,7.42-7.54,7.07-21.27,6.61-28.59-.38-34.66.16l-.43.06,13.41.81c23.51,1.4,54.56,7.88,56.5-8.71C332.08,112.37,327,101.31,324.89,98.35Z"/></g><path class="cls-10" d="M329.78,110.9s1.94,4.61,1.28,7.21a233.69,233.69,0,0,0-33.42,1.66c-16.51,2.2-31.48,3.26-38.17,6.08s-5.26-.36,10.17-5.38a189.28,189.28,0,0,1,41.66-8.64A180.54,180.54,0,0,1,329.78,110.9Z"/><path class="cls-11" d="M305.71,113s-23,1.88-40.47,9.67c0,0,27.37-6.48,45.42-7.8S319.07,112,305.71,113Z"/><path class="cls-25" d="M293.74,101.57c1.18-.35,2.32-.11,2.55.54s-.54,1.45-1.72,1.8-2.31.12-2.54-.53S292.57,101.93,293.74,101.57Z"/><path class="cls-25" d="M284.82,105.19c1.18-.35,2.32-.12,2.55.53s-.54,1.46-1.71,1.81-2.32.11-2.55-.53S283.65,105.54,284.82,105.19Z"/><path class="cls-25" d="M300.69,106.54c.79-.08,1.47.2,1.53.63s-.53.84-1.31.92-1.47-.2-1.53-.63S299.91,106.62,300.69,106.54Z"/><path class="cls-25" d="M301.32,95.68c.78-.08,1.47.2,1.53.63s-.53.84-1.31.92-1.47-.21-1.53-.64S300.54,95.76,301.32,95.68Z"/><path class="cls-25" d="M283.29,98.69c.78-.08,1.47.2,1.53.63s-.53.84-1.32.92S282,100,282,99.61,282.5,98.77,283.29,98.69Z"/><path class="cls-25" d="M292.93,109.37c.55-.05,1,.14,1.07.44s-.37.59-.92.64-1-.14-1.07-.44S292.38,109.42,292.93,109.37Z"/><path class="cls-25" d="M296.83,126.88c1.23-.19,2.32.2,2.45.87s-.75,1.36-2,1.55-2.32-.21-2.46-.87S295.61,127.07,296.83,126.88Z"/><path class="cls-25" d="M287.43,129.22c1.22-.18,2.32.21,2.45.87s-.75,1.37-2,1.55-2.32-.2-2.45-.86S286.21,129.41,287.43,129.22Z"/><path class="cls-25" d="M303,132.72c.79,0,1.43.4,1.43.83s-.66.75-1.45.72-1.43-.4-1.42-.83S302.2,132.69,303,132.72Z"/><path class="cls-25" d="M274.41,127.36c.79,0,1.43.4,1.43.83s-.66.75-1.45.72-1.43-.4-1.42-.83S273.62,127.33,274.41,127.36Z"/><path class="cls-25" d="M305.25,122.09c.79,0,1.43.41,1.42.83s-.65.76-1.44.73-1.43-.4-1.43-.83S304.46,122.06,305.25,122.09Z"/><path class="cls-25" d="M286.88,122.61c.79,0,1.43.4,1.42.83s-.65.76-1.44.73-1.43-.4-1.43-.84S286.09,122.58,286.88,122.61Z"/><path class="cls-25" d="M294.85,134.45c.56,0,1,.28,1,.58s-.46.53-1,.51-1-.28-1-.58S294.3,134.43,294.85,134.45Z"/><path class="cls-12" d="M322.57,120.71c1.51.26,2.58,1.42,2.39,2.59s-1.56,1.91-3.07,1.66-2.57-1.42-2.38-2.59S321.06,120.46,322.57,120.71Z"/><path class="cls-12" d="M318.52,127.64c.83.14,1.42.78,1.31,1.42a1.35,1.35,0,0,1-1.68.91,1.4,1.4,0,0,1-1.32-1.42A1.37,1.37,0,0,1,318.52,127.64Z"/><path class="cls-12" d="M310.61,96.66a1.4,1.4,0,0,1,1.32,1.42,1.37,1.37,0,0,1-1.69.91,1.39,1.39,0,0,1-1.31-1.42A1.36,1.36,0,0,1,310.61,96.66Z"/><path class="cls-12" d="M321.11,99.14c1.51.26,2.58,1.41,2.39,2.58s-1.56,1.91-3.06,1.66-2.58-1.41-2.39-2.58S319.61,98.88,321.11,99.14Z"/><path class="cls-12" d="M317.06,106.07a1.4,1.4,0,0,1,1.32,1.42,1.38,1.38,0,0,1-1.69.91,1.41,1.41,0,0,1-1.32-1.42A1.37,1.37,0,0,1,317.06,106.07Z"/><path class="cls-12" d="M312.84,120.34c1.51.25,2.62,1.12,2.49,1.94s-1.45,1.27-3,1-2.62-1.12-2.49-1.94S311.33,120.08,312.84,120.34Z"/></g></g></svg>