<svg id="Layer_1" data-name="Layer 1" xmlns="http://www.w3.org/2000/svg" xmlns:xlink="http://www.w3.org/1999/xlink" viewBox="0 0 512 400"><defs><style>.cls-1{opacity:0.3;}.cls-2{fill:#f4f2ea;}.cls-3,.cls-36{fill:#bc5917;}.cls-4{fill:#aa5013;}.cls-5{fill:#8e420e;}.cls-6{fill:#f4ecce;}.cls-7{fill:#a6ba54;}.cls-8{fill:#cebf97;}.cls-9{fill:#823f12;}.cls-10{fill:#98a54a;}.cls-11{fill:#858c41;}.cls-12{fill:#d3dd8a;}.cls-13{fill:#d87736;}.cls-14{fill:#c11c06;}.cls-15{fill:#4c2205;}.cls-16{fill:url(#linear-gradient);}.cls-17{fill:url(#linear-gradient-2);}.cls-18{fill:url(#linear-gradient-3);}.cls-19{fill:url(#linear-gradient-4);}.cls-20{fill:url(#linear-gradient-5);}.cls-21{fill:url(#linear-gradient-6);}.cls-22{fill:url(#linear-gradient-7);}.cls-23{fill:url(#linear-gradient-8);}.cls-24{fill:url(#linear-gradient-9);}.cls-25{fill:url(#linear-gradient-10);}.cls-26{fill:url(#linear-gradient-11);}.cls-27{fill:url(#linear-gradient-12);}.cls-28{fill:url(#linear-gradient-13);}.cls-29{fill:url(#linear-gradient-14);}.cls-30{fill:url(#linear-gradient-15);}.cls-31{fill:url(#linear-gradient-16);}.cls-32{fill:url(#linear-gradient-17);}.cls-33{fill:url(#linear-gradient-18);}.cls-34{fill:#e0d5ce;}.cls-35{fill:#8e481a;}.cls-36{stroke:#a0461f;stroke-miterlimit:10;stroke-width:2px;}.cls-37{fill:#f7f7d2;}.cls-38{fill:#f2de7c;}.cls-39{fill:#ead063;}.cls-40{fill:#f2efc2;}.cls-41{fill:#f7edaa;}.cls-42{fill:#f7e892;}.cls-43{fill:#eae4b0;}.cls-44{fill:#f9f8c7;}.cls-45{fill:#fffee6;}.cls-46{fill:#fcf8cd;}.cls-47{fill:#fff;}.cls-48{fill:#f9f3bb;}.cls-49{fill:#fcfbdb;}.cls-50{fill:#fcf8c8;}.cls-51{fill:#f9f6d4;}</style><linearGradient id="linear-gradient" x1="149.18" y1="116.69" x2="156.57" y2="116.69" gradientUnits="userSpaceOnUse"><stop offset="0" stop-color="#565656"/><stop offset="0.13" stop-color="#5c5c5c"/><stop offset="0.65" stop-color="#70706f"/><stop offset="1" stop-color="#777776"/></linearGradient><linearGradient id="linear-gradient-2" x1="153.12" y1="130.4" x2="156.97" y2="130.4" gradientUnits="userSpaceOnUse"><stop offset="0"/><stop offset="0.1" stop-color="#040404"/><stop offset="0.63" stop-color="#181818"/><stop offset="1" stop-color="#1f1f1f"/></linearGradient><linearGradient id="linear-gradient-3" x1="153.16" y1="131.15" x2="156.97" y2="131.15" gradientUnits="userSpaceOnUse"><stop offset="0" stop-color="#b70000"/><stop offset="0.13" stop-color="#c40c00"/><stop offset="0.49" stop-color="#e42a00"/><stop offset="0.79" stop-color="#f83c00"/><stop offset="1" stop-color="#ff4300"/></linearGradient><linearGradient id="linear-gradient-4" x1="2125.62" y1="-227.02" x2="2129.12" y2="-227.02" gradientTransform="translate(-1892.53 2.88) rotate(9.13)" xlink:href="#linear-gradient"/><linearGradient id="linear-gradient-5" x1="2125.52" y1="-213.05" x2="2129.28" y2="-213.05" gradientTransform="translate(-1892.53 2.88) rotate(9.13)" xlink:href="#linear-gradient-2"/><linearGradient id="linear-gradient-6" x1="2125.52" y1="-212.18" x2="2129.28" y2="-212.18" gradientTransform="translate(-1892.53 2.88) rotate(9.13)" xlink:href="#linear-gradient-3"/><linearGradient id="linear-gradient-7" x1="1894.03" y1="-87.08" x2="1897.52" y2="-87.08" gradientTransform="translate(-1689.77 170.32) rotate(0.94)" xlink:href="#linear-gradient"/><linearGradient id="linear-gradient-8" x1="1893.92" y1="-73.11" x2="1897.68" y2="-73.11" gradientTransform="translate(-1689.77 170.32) rotate(0.94)" xlink:href="#linear-gradient-2"/><linearGradient id="linear-gradient-9" x1="1893.92" y1="-72.24" x2="1897.68" y2="-72.24" gradientTransform="translate(-1689.77 170.32) rotate(0.94)" xlink:href="#linear-gradient-3"/><linearGradient id="linear-gradient-10" x1="223.39" y1="122.12" x2="226.88" y2="122.12" gradientTransform="matrix(-1, 0.05, 0.05, 1, 411.3, 3.74)" xlink:href="#linear-gradient"/><linearGradient id="linear-gradient-11" x1="223.28" y1="136.09" x2="227.04" y2="136.09" gradientTransform="matrix(-1, 0.05, 0.05, 1, 411.3, 3.74)" xlink:href="#linear-gradient-2"/><linearGradient id="linear-gradient-12" x1="223.28" y1="136.95" x2="227.04" y2="136.95" gradientTransform="matrix(-1, 0.05, 0.05, 1, 411.3, 3.74)" xlink:href="#linear-gradient-3"/><linearGradient id="linear-gradient-13" x1="384.75" y1="183.61" x2="388.25" y2="183.61" gradientTransform="matrix(-0.99, 0.12, 0.12, 0.99, 532.53, -93.36)" xlink:href="#linear-gradient"/><linearGradient id="linear-gradient-14" x1="384.65" y1="197.58" x2="388.41" y2="197.58" gradientTransform="matrix(-0.99, 0.12, 0.12, 0.99, 532.53, -93.36)" xlink:href="#linear-gradient-2"/><linearGradient id="linear-gradient-15" x1="384.65" y1="198.45" x2="388.41" y2="198.45" gradientTransform="matrix(-0.99, 0.12, 0.12, 0.99, 532.53, -93.36)" xlink:href="#linear-gradient-3"/><linearGradient id="linear-gradient-16" x1="-393.26" y1="161.17" x2="-389.78" y2="161.17" gradientTransform="translate(616.82 3.74) rotate(2.65)" xlink:href="#linear-gradient"/><linearGradient id="linear-gradient-17" x1="-393.39" y1="174.32" x2="-389.63" y2="174.32" gradientTransform="translate(616.82 3.74) rotate(2.65)" gradientUnits="userSpaceOnUse"><stop offset="0" stop-color="#1f1f1f"/><stop offset="0.37" stop-color="#181818"/><stop offset="0.9" stop-color="#040404"/><stop offset="1"/></linearGradient><linearGradient id="linear-gradient-18" x1="-393.39" y1="175.13" x2="-389.63" y2="175.13" gradientTransform="translate(616.82 3.74) rotate(2.65)" xlink:href="#linear-gradient-3"/></defs><ellipse class="cls-1" cx="195.69" cy="365.26" rx="46.25" ry="9.8"/><path class="cls-2" d="M201.9,365.08h0l1,0-1,0Z"/><path class="cls-2" d="M173.2,366.44h0a32.07,32.07,0,0,1-7.1-3.45,32.07,32.07,0,0,0,7.1,3.45,54.76,54.76,0,0,0,9.42,2.33,54.76,54.76,0,0,1-9.42-2.33Z"/><path class="cls-2" d="M171.74,364.85c-.15-.18-.29-.37-.42-.56a13.2,13.2,0,0,1-1.48-2.77,13.2,13.2,0,0,0,1.48,2.77C171.45,364.48,171.59,364.67,171.74,364.85Z"/><path class="cls-2" d="M173.2,366.44c-.27-.25-.53-.51-.77-.77.24.26.5.52.77.77Z"/><path class="cls-2" d="M196.57,365.15Z"/><path class="cls-3" d="M225.29,323.56s31.41,36.91-8.47,45.6c-12.47,2.22-63.91,6.4-58.61-24.85,3.07-10.42,8-19.3,11.19-20.76C169.4,323.55,192.05,329.76,225.29,323.56Z"/><path class="cls-4" d="M226.28,325.55c-.22-1.19,33.1,39.46-19.27,44.67a65.73,65.73,0,0,1-40.44-5.14C177.59,363.64,224,356.45,226.28,325.55Z"/><path class="cls-5" d="M232.89,336.67q.5,1.18.93,2.37a35.42,35.42,0,0,1,1.61,5.94c.07.39.13.79.18,1.18a10,10,0,0,0,.49-4.84c-.2-.67-.41-1.34-.63-2A14.75,14.75,0,0,0,232.89,336.67Z"/><path class="cls-5" d="M162.46,362.57s4.24,5.16,18.09,7.68a16.72,16.72,0,0,1-7.35-3.81,32.07,32.07,0,0,1-7.1-3.45,20.9,20.9,0,0,1-2.32-1.78c-.36-.31-.71-.64-1-1a15.68,15.68,0,0,1-4.34-13.79,11,11,0,0,1-.38-2.14c0-.27,0-.54,0-.79a11.07,11.07,0,0,1,.37-2.84,31.3,31.3,0,0,0-1.48,9.17,16.41,16.41,0,0,0,3.45,10.49A18.05,18.05,0,0,0,162.46,362.57Z"/><path class="cls-5" d="M235.61,346.16a22.58,22.58,0,0,1,.2,2.94,15.75,15.75,0,0,1-4.51,11.68,18.34,18.34,0,0,1-3.19,2.51c-.48.3-1,.6-1.54.88a26.67,26.67,0,0,1-2.63,1.18q-1,.42-2.07.81c-1.11.39-2.33.76-3.65,1.11a91.91,91.91,0,0,1-22.79,2.53c-1.23,0-2.46,0-3.69-.1s-2.24-.13-3.35-.22l-.31,0c-1.64-.14-3.26-.34-4.85-.58l-.61-.1a54.76,54.76,0,0,1-9.42-2.33,16.72,16.72,0,0,0,7.35,3.81,93.06,93.06,0,0,0,16.58,1.35c17.8,0,27.26-4,31.68-6.71a14.46,14.46,0,0,0,3.28-2.58,16.18,16.18,0,0,0,5.3-12.46,30.76,30.76,0,0,0-1.29-8.53A10,10,0,0,1,235.61,346.16Z"/><path class="cls-5" d="M169.21,323.55l-1.41-.35c-.3.39-.61.8-.92,1.24l1.39.35Z"/><path class="cls-5" d="M226.09,324.87l.81-.21.55-.15-1-1.29c-.46.13-.92.24-1.39.34Z"/><path class="cls-6" d="M217.84,324.82h0Z"/><path class="cls-5" d="M187.31,325.8a187.78,187.78,0,0,0,20.41-.05h.07c2.85-.17,5.7-.41,8.54-.74l.43-.05h0l.12,0,.38-.05-.12-1.34c-4.31.54-9.25.92-14.57,1.07a192.23,192.23,0,0,1-25.91-1.12c-2.41-.31-4.62-.68-6.57-1.09-.5-.1-1-.21-1.45-.32-1.32-.31-2.5-.65-3.52-1q-.06.63-.09,1.32l.5.16h0c.75.23,1.5.44,2.26.64l1.41.35A110.16,110.16,0,0,0,187.31,325.8Zm-13.1-1.29.25,0-.25,0Z"/><path class="cls-5" d="M162.72,306.87l.25.06c.14-.77.29-1.51.46-2.22-.7-.45-1.08-.93-1.08-1.41a1,1,0,0,1,.07-.34l0-.09s0-.09,0-.13a18.82,18.82,0,0,0-1,3.93l.25,0A6.83,6.83,0,0,1,162.72,306.87Z"/><path class="cls-3" d="M173.14,309l1.41.17c1,.11,2,.22,3,.32,3.1.29,6.5.52,10.13.66q1.82.07,3.69.12c1.88,0,3.81.07,5.77.07,2.47,0,4.88,0,7.21-.11l1.73-.06c1.72-.06,3.39-.15,5-.25a11.84,11.84,0,0,0-2.08-1.3l-1.4.08-1.79.08-.64,0h0c-1,0-2,.07-3.1.09h0l-2.5,0h-4.28l-.84,0-1.53,0h-.69l-2-.06h-.06l-1.69-.06-.85,0-2.43-.13c-1.07-.06-2.12-.14-3.14-.22s-2.15-.18-3.18-.28h-.07c-.74-.08-1.46-.15-2.15-.24h-.14l-2-.26-.13,0c-.65-.09-1.28-.19-1.88-.29a10.36,10.36,0,0,0-2,1.34C171.34,308.77,172.22,308.9,173.14,309Z"/><path class="cls-5" d="M232,303.3a.89.89,0,0,1,0,.22,1.19,1.19,0,0,1-.2.43,2.87,2.87,0,0,1-.66.63c-.2.14-.42.27-.67.41.23.67.43,1.34.62,2l.64-.16a10.25,10.25,0,0,1,1.07-.16,23.16,23.16,0,0,0-.78-3.44h0A.13.13,0,0,1,232,303.3Z"/><path class="cls-3" d="M170.5,308.64a10.36,10.36,0,0,1,2-1.34l-1.57-.27-1.45-.29c-.69-.15-1.35-.3-1.95-.46a15.3,15.3,0,0,1-4.09-1.57c-.17.71-.32,1.45-.46,2.22.23.06.47.12.69.2A46.23,46.23,0,0,0,170.5,308.64Z"/><path class="cls-3" d="M211.61,308.47h0l-2,.14h0l-.57,0a11.84,11.84,0,0,1,2.08,1.3c8.63-.53,15.63-1.54,19.54-2.81l.46-.14h0c-.19-.66-.39-1.33-.62-2l-.32.15c-.22.11-.46.21-.72.31s-.53.21-.82.31l-1.17.36-1.33.35-1.65.36-.23.05-1.2.23-1.38.23-.72.11-1.39.2-.21,0c-1.74.24-3.63.44-5.63.62l-1,.08Z"/><path class="cls-5" d="M165.15,321.09l-.48-.18-.76-.3a11,11,0,0,1-1.28-.61c-.18-.1-.36-.2-.52-.31s-.31-.21-.45-.32c0,.45,0,.89-.06,1.31a12.17,12.17,0,0,0,3.46,1.73q0-.69.09-1.32Z"/><path class="cls-5" d="M231.83,319.88c-.25.15-.52.3-.83.45s-.41.19-.64.28l-.25.1a30.55,30.55,0,0,1-3.82,1.21l-.69.17-.93.21-.48.1c-1.82.39-3.85.73-6.06,1l-1,.12.12,1.34.48-.06h.07c2.43-.33,4.87-.71,7.26-1.26.47-.1.93-.21,1.39-.34,1.15-.3,2.28-.65,3.4-1.06a11.41,11.41,0,0,0,2.57-1.33c0-.41,0-.88.07-1.4A5.65,5.65,0,0,1,231.83,319.88Z"/><path class="cls-4" d="M216.63,320.14A77,77,0,0,1,202,321.9l-1.38,0c-.94,0-1.9,0-2.89,0-2.35,0-4.55-.06-6.6-.16s-4-.27-5.77-.47c-.9-.1-1.76-.21-2.59-.33s-1.64-.25-2.41-.39c-1.54-.28-3-.59-4.27-.93s-2.3-.65-3.32-1l-1-.37-.95-.38a25.29,25.29,0,0,1-4.6-2.44c-.12.4-.24.81-.35,1.23a26.46,26.46,0,0,0-.58,3.17c-.05.39-.1.78-.13,1.19,1,.35,2.2.69,3.52,1,.47.11,1,.22,1.45.32,1.95.41,4.16.78,6.57,1.09a192.23,192.23,0,0,0,25.91,1.12c5.32-.15,10.26-.53,14.57-1.07-.11-1-.26-2-.43-2.87C216.7,320.5,216.67,320.32,216.63,320.14Z"/><path class="cls-5" d="M161.66,319.37c.12-2.26.3-4.93.61-7.62a10.51,10.51,0,0,1-1-1.84l-.14-.33c-.23,2.14-.4,4.85-.44,8.25A2.32,2.32,0,0,0,161.66,319.37Z"/><path class="cls-5" d="M232.52,316.79c0,.33,0,.64,0,.94,0,.61,0,1.18,0,1.7a2.37,2.37,0,0,0,1.09-1.6,83.24,83.24,0,0,0-.5-8.74,10.82,10.82,0,0,1-1.11,2.25c.23,1.49.38,2.9.45,4.2C232.49,316,232.51,316.39,232.52,316.79Z"/><polygon class="cls-7" points="232.01 311.34 232.01 311.34 232.01 311.34 232.01 311.34 232.01 311.34"/><path class="cls-3" d="M211.07,309.94h0c2,1.61,3.94,4.22,5.13,8.42.11.4.21.8.31,1.23l.12.55c.61-.14,1.19-.29,1.75-.44.86-.23,1.68-.48,2.45-.74l.75-.27c5.87-2.12,8.88-4.94,10.43-7.35a39.62,39.62,0,0,0-.94-4.35l-.46.14C226.7,308.4,219.7,309.41,211.07,309.94Z"/><path class="cls-3" d="M164.92,314.55c.2.15.4.32.62.48l.67.47a18,18,0,0,1,1.16-2.84c.17-.33.35-.65.53-.94a11.18,11.18,0,0,1,.63-1,11.76,11.76,0,0,1,2-2.13,46.23,46.23,0,0,1-6.84-1.51c-.22-.08-.46-.14-.69-.2-.14.77-.27,1.57-.39,2.38s-.22,1.62-.31,2.44q.15.22.33.45A14.54,14.54,0,0,0,164.92,314.55Z"/><path class="cls-4" d="M158,344.31a11,11,0,0,0,.38,2.14h0c0-.22.06-.44.1-.66l.12-.68c.07-.34.14-.69.22-1a29.81,29.81,0,0,1,1-3.27c.46-1.44,1-2.84,1.56-4.19.19-.45.39-.9.6-1.34a59.25,59.25,0,0,1,6.29-10.48h0l-1.39-.35a56.88,56.88,0,0,0-8.52,16.24,11.07,11.07,0,0,0-.37,2.84C158,343.77,158,344,158,344.31Z"/><path class="cls-5" d="M226.09,324.87a60.67,60.67,0,0,1,6.8,11.8,14.75,14.75,0,0,1,2.58,2.66,58.92,58.92,0,0,0-8-14.82l-.55.15Z"/><path class="cls-3" d="M216.2,318.36c-1.19-4.2-3.09-6.81-5.13-8.42h0c-1.61.1-3.28.19-5,.25l-1.73.06c-2.33.07-4.74.11-7.21.11-2,0-3.89,0-5.77-.07q-1.87,0-3.69-.12c-3.63-.14-7-.37-10.13-.66-1-.1-2-.21-3-.32l-1.41-.17c-.92-.12-1.8-.25-2.64-.38a11.76,11.76,0,0,0-2,2.13,11.18,11.18,0,0,0-.63,1c-.18.29-.36.61-.53.94a18,18,0,0,0-1.16,2.84h0a25.29,25.29,0,0,0,4.6,2.44l.95.38,1,.37c1,.35,2.13.69,3.32,1s2.73.65,4.27.93c.77.14,1.57.27,2.41.39s1.69.23,2.59.33q2.69.3,5.77.47c2.05.1,4.25.16,6.6.16,1,0,2,0,2.89,0l1.38,0a77,77,0,0,0,14.63-1.76l-.12-.55C216.41,319.16,216.31,318.76,216.2,318.36Z"/><path class="cls-5" d="M162.27,311.75c.09-.82.19-1.63.31-2.44s.25-1.61.39-2.38l-.25-.06a6.83,6.83,0,0,0-1-.17l-.25,0c-.13.82-.27,1.79-.39,2.91l.14.33A10.51,10.51,0,0,0,162.27,311.75Z"/><path class="cls-5" d="M231.07,307a39.62,39.62,0,0,1,.94,4.35h0a10.82,10.82,0,0,0,1.11-2.25c-.11-.91-.22-1.72-.34-2.42a10.25,10.25,0,0,0-1.07.16l-.64.16Z"/><path class="cls-4" d="M224.19,322.4l.48-.1.93-.21.69-.17a30.55,30.55,0,0,0,3.82-1.21l.25-.1c.23-.09.44-.19.64-.28s.58-.3.83-.45a5.65,5.65,0,0,0,.7-.45c0-.52,0-1.09,0-1.7,0-.3,0-.61,0-.94s0-.82-.06-1.25c-.07-1.3-.22-2.71-.45-4.2h0c-1.55,2.41-4.56,5.23-10.43,7.35l-.75.27c-.77.26-1.59.51-2.45.74-.56.15-1.14.3-1.75.44,0,.18.07.36.11.54.17.9.32,1.85.43,2.87l1-.12C220.34,323.13,222.37,322.79,224.19,322.4Z"/><path class="cls-4" d="M165.86,316.73c.11-.42.23-.83.35-1.23l-.67-.47c-.22-.16-.42-.33-.62-.48a14.54,14.54,0,0,1-2.32-2.35q-.18-.22-.33-.45c-.31,2.69-.49,5.36-.61,7.62h0c.14.11.29.21.45.32s.34.21.52.31a11,11,0,0,0,1.28.61l.76.3.48.18c0-.41.08-.8.13-1.19A26.46,26.46,0,0,1,165.86,316.73Z"/><path class="cls-5" d="M232.53,319.43c0,.52,0,1-.07,1.4a2.3,2.3,0,0,0,1.16-1.74v-1.26A2.37,2.37,0,0,1,232.53,319.43Z"/><path class="cls-5" d="M161.66,319.37a2.32,2.32,0,0,1-1-1.54c0,.41,0,.83,0,1.26a2.18,2.18,0,0,0,1,1.59c0-.42,0-.86.06-1.31Z"/><path class="cls-8" d="M174.21,324.51h0l.25,0Z"/><path class="cls-9" d="M188.6,305.75h.2l-.14-1.37q-1,.38-2.07.78l.14.5.9,0Z"/><path class="cls-9" d="M215.05,305.18l.77-.07.46-.05.79-.08.34,0,1-.12.35-.05.7-.09.35-.05.75-.11.2,0,.86-.15.27,0,.58-.11.26-.05.66-.14.08,0,.66-.17.18-.05a4.38,4.38,0,0,0,.43-.13l.17-.05.51-.18c.86-.33,1.32-.69,1.32-1.06v0a.14.14,0,0,0,0-.06,31.66,31.66,0,0,0-3.11-.61,78.42,78.42,0,0,0-9.07-.7l-1.08,4.4,1.12-.1Z"/><path class="cls-10" d="M200.18,301.64l-.05.59.1-.59Z"/><path class="cls-9" d="M208.31,301l-1.8.08-.82,4.73,1.45-.06Z"/><path class="cls-9" d="M177.57,299.65h0l-1.05.11h0l-1,.12h0c-1.68.22-3.13.46-4.32.73l-.07,0-.57.13-.15,0-.44.12-.17.05-.36.11-.17.06-.29.11-.15.07-.24.1-.14.07-.19.11-.11.07-.16.12-.07.06a1.19,1.19,0,0,0-.15.18.47.47,0,0,0-.08.27c0,.31.32.6.91.89a29.52,29.52,0,0,0,7.7,1.63l1,.12.88.09h.12l2.13.2-1.62-5.73h0Z"/><path class="cls-9" d="M226.75,302.23a.52.52,0,0,0-.09-.2l-.06-.06a.49.49,0,0,0-.12-.13l-.09-.07-.18-.13-.12-.07-.24-.12-.13-.06a2.83,2.83,0,0,0-.35-.14l-.1,0a9.48,9.48,0,0,0-1.16-.36l-.12,0-.58-.14-.16,0-.62-.13-.17,0-.72-.13-.12,0c-1.21-.21-2.61-.41-4.16-.58h-.08l-1.12-.12h-.1l-1.23-.12-.36,1.45a78.42,78.42,0,0,1,9.07.7A31.66,31.66,0,0,1,226.75,302.23Z"/><path class="cls-11" d="M200.73,298.78h-.28l-.27,2.87h0Z"/><path class="cls-9" d="M208.78,299l-1.91-.09h0l-.36,2.08,1.8-.08Z"/><path class="cls-9" d="M188.17,299.55l-.31-.62-1.48.07h0l-1.45.07h0l1.71,6.1q1-.41,2.07-.78Z"/><path class="cls-12" d="M194.42,298h-.23l.19.39Z"/><path class="cls-13" d="M206.76,307.27l.38-1.57-1.45.06-.27,1.56Z"/><path class="cls-13" d="M180.31,305.27l-2.13-.2h-.12l-.88-.09-1-.12a29.52,29.52,0,0,1-7.7-1.63c-.59-.29-.91-.58-.91-.89a.47.47,0,0,1,.08-.27,1.19,1.19,0,0,1,.15-.18l.07-.06.16-.12.11-.07.19-.11.14-.07.24-.1.15-.07.29-.11.17-.06.36-.11.17-.05.44-.12.15,0,.57-.13.07,0c1.19-.27,2.64-.51,4.32-.73h0l1-.12h0l1.05-.11h0l1.12-.11h0l-.21-.77c-8.48.78-14.28,2.09-15.09,3.59a.81.81,0,0,0-.1.36c0,.41.37.8,1.06,1.18,1.51.83,4.61,1.58,8.81,2.17,2.24.31,4.8.58,7.6.8Z"/><path class="cls-12" d="M200.86,298h-.34l-.07.77h.28Z"/><path class="cls-13" d="M208.78,299l.18-.77-2-.09-.13.77h0Z"/><path class="cls-13" d="M229.55,304.13c1-.45,1.52-.92,1.52-1.41a.43.43,0,0,0,0-.05c-.13-1.68-6.47-3.14-15.94-4l-.19.77,1.23.12h.1l1.12.12h.08c1.55.17,2.95.37,4.16.58l.12,0,.72.13.17,0,.62.13.16,0,.58.14.12,0a9.48,9.48,0,0,1,1.16.36l.1,0a2.83,2.83,0,0,1,.35.14l.13.06.24.12.12.07.18.13.09.07a.49.49,0,0,1,.12.13l.06.06a.52.52,0,0,1,.09.2.14.14,0,0,1,0,.06v0c0,.37-.46.73-1.32,1.06l-.51.18-.17.05a4.38,4.38,0,0,1-.43.13l-.18.05-.66.17-.08,0-.66.14-.26.05-.58.11-.27,0-.86.15-.2,0-.75.11-.35.05-.7.09-.35.05-1,.12-.34,0-.79.08-.46.05-.77.07-.44,0-1.12.1-.39,1.59C220.9,306.33,226.88,305.33,229.55,304.13Z"/><path class="cls-5" d="M206.76,307.27l-1.34.05-.26,1.51.64,0,.59,0Z"/><path class="cls-5" d="M231.06,302.67a.43.43,0,0,1,0,.05c0,.49-.54,1-1.52,1.41-2.67,1.2-8.65,2.2-16.45,2.78l-.36,1.47.94-.08c2-.18,3.89-.38,5.63-.62l.21,0,1.39-.2.72-.11,1.38-.23,1.2-.23.23-.05,1.65-.36,1.33-.35,1.17-.36c.29-.1.56-.2.82-.31s.5-.2.72-.31l.32-.15c.25-.14.47-.27.67-.41a2.87,2.87,0,0,0,.66-.63,1.19,1.19,0,0,0,.2-.43.89.89,0,0,0,0-.22.13.13,0,0,0,0-.06h0c-.14-2-6.84-3.81-16.82-4.79l-.06.26C224.59,299.53,230.93,301,231.06,302.67Z"/><path class="cls-5" d="M163.43,304.71a15.3,15.3,0,0,0,4.09,1.57c.6.16,1.26.31,1.95.46l1.45.29,1.57.27c.6.1,1.23.2,1.88.29l.13,0,2,.26h.14c.69.09,1.41.16,2.15.24h.07l2.32.21-.41-1.47c-2.8-.22-5.36-.49-7.6-.8-4.2-.59-7.3-1.34-8.81-2.17-.69-.38-1.06-.77-1.06-1.18a.81.81,0,0,1,.1-.36c.81-1.5,6.61-2.81,15.09-3.59l-.07-.26c-9,.94-15.11,2.53-16,4.36l0,.09a1,1,0,0,0-.07.34C162.35,303.78,162.73,304.26,163.43,304.71Z"/><path class="cls-13" d="M186.34,299h0l1.48-.07-.38-.76-2.82.14.22.76h0Z"/><path class="cls-13" d="M189,307.32l-.16-1.56h-.2l-1,0-.9,0,.45,1.57Z"/><path class="cls-5" d="M189,307.32l-1.78-.07.42,1.51.85,0,.66,0Z"/><path class="cls-13" d="M202.32,307.41l.27-1.56-2.8,0-.14,1.56Z"/><path class="cls-5" d="M202.32,307.41l-2.67,0-.14,1.51h0l2.5,0h0Z"/><path class="cls-13" d="M205.42,307.32l.27-1.56-1.11,0-.27,1.57Z"/><path class="cls-5" d="M205.42,307.32l-1.11,0-.26,1.5,1.11,0h0Z"/><path class="cls-13" d="M204.82,307.55l.34-2-2.5.07-.34,1.95C203.16,307.6,204,307.57,204.82,307.55Z"/><path class="cls-5" d="M204.31,307.36l-2,.05-.26,1.51h0l2-.06Z"/><path class="cls-13" d="M196.6,307.46l.14-1.55h-1.82l.16,1.56Z"/><path class="cls-5" d="M196.6,307.46h-1.52l.16,1.51h1.22Z"/><path class="cls-13" d="M199.65,307.45l.14-1.56h-1.08l-.15,1.56Z"/><path class="cls-5" d="M199.65,307.45h-1.09l-.14,1.51h1.09Z"/><path class="cls-13" d="M197.18,307.46h1.38l.15-1.56h-2l-.14,1.55Z"/><path class="cls-5" d="M198.56,307.46h-2l-.14,1.51h2Z"/><path class="cls-13" d="M187.18,307.25l-.45-1.57-1.22-.06-2-.12.44,1.59C185,307.15,186.08,307.21,187.18,307.25Z"/><path class="cls-5" d="M187.18,307.25c-1.1,0-2.17-.1-3.21-.16l.42,1.49.78.05,2.43.13Z"/><path class="cls-13" d="M181.45,305.36l-1.14-.09.45,1.6,1.14.08Z"/><path class="cls-5" d="M182.32,308.43,181.9,307l-1.14-.08.41,1.47.86.07Z"/><path class="cls-13" d="M184,307.09l-.44-1.59-2.08-.14.45,1.59Z"/><path class="cls-5" d="M184,307.09,181.9,307l.42,1.48c.68.06,1.37.1,2.07.15Z"/><path class="cls-13" d="M208.67,307.19l1.25-.07.39-1.58-3.1.16h-.07l-.38,1.57Z"/><path class="cls-5" d="M209.92,307.12l-1.25.07-1.91.08-.37,1.5,1.2,0,1.4-.08.57,0Z"/><path class="cls-13" d="M213.1,306.91l.39-1.59-1.13.08L212,307Z"/><path class="cls-5" d="M211.61,308.47l1.1-.09h0l.36-1.47L212,307Z"/><path class="cls-13" d="M212,307l.39-1.59-2.05.14-.39,1.58Z"/><path class="cls-5" d="M209.56,308.61h0l2-.14h0L212,307l-2.05.13Z"/><path class="cls-13" d="M195.08,307.46l-.16-1.56-3.06,0,.16,1.56Z"/><path class="cls-5" d="M195.08,307.46l-3.06,0,.16,1.51h.69l1.53,0,.84,0Z"/><path class="cls-13" d="M190.05,307.36l-.16-1.56-1.09,0,.16,1.56Z"/><path class="cls-5" d="M190.05,307.36l-1.09,0,.15,1.5,1,0h.06Z"/><path class="cls-13" d="M210.07,298.07c-.95-.07-1.92-.15-2.88-.14s-1.88-.11-2.79,0a.93.93,0,0,1-.45-.08c-10.4,0-23.95.63-23.95.63l-1.59.06.07.26.21.77c23.33-.84,36.22.1,36.22.1l.26-1.14C213.47,298.31,211.77,298.21,210.07,298.07Z"/><path class="cls-13" d="M192,307.41l-.16-1.56-2-.05.16,1.56Z"/><path class="cls-5" d="M178.6,298.51s29.49-1.49,37.14.1c0,0-9.6-1.28-37.28.18Z"/><path class="cls-5" d="M192,307.41l-2-.05.15,1.5,2,.06Z"/><path class="cls-5" d="M207.72,326.92h0c3.38-.21,6.76-.49,10.12-.93h0c2.68-.42,5.52-.78,8.25-1.46-.33-.45-.66-.88-1-1.31-2.39.55-4.83.93-7.26,1.26h-.07l-.48.06-.38,0h-.15l-.43.05q-4.26.48-8.54.74h-.07a185.28,185.28,0,0,1-20.41,0,109.07,109.07,0,0,1-18.1-2.24l-.94,1.24h0C181.1,327.55,194.6,327.44,207.72,326.92Z"/><path class="cls-9" d="M178.69,299.54a363.34,363.34,0,0,1,37.57.06c5.36.71-1.21,5.58-1.21,5.58-11.86,1.69-34,.36-35.57,0C178.21,304.88,178.69,299.54,178.69,299.54Z"/><path class="cls-14" d="M182.49,305.45l.23,0c.42,0,.84,0,1.27,0a6.16,6.16,0,0,1,.75.05l-7.49-45c-.05-.29-.6-.59-1.23-.66s-1.1.1-1.05.39l7.52,45.22Z"/><path class="cls-15" d="M175.65,261.13a1.87,1.87,0,0,1-1.85-1.58l-20.57-128a1.88,1.88,0,0,1,3.71-.6l20.57,128a1.89,1.89,0,0,1-1.56,2.16Z"/><path class="cls-16" d="M153.17,130.18l3.4-.75s-2.3-15.06-4.41-25.85c-.15-.74-3.15-.26-3,.47C150.62,110,153.17,130.18,153.17,130.18Z"/><path class="cls-17" d="M153.26,131.76l3.71-.6s-.36-2.51-.71-2.07-2.26.22-3,.47C152.93,129.69,153.26,131.76,153.26,131.76Z"/><path class="cls-18" d="M153.26,131.76a7.93,7.93,0,0,0,3.71-.6l-.1-.65s-.84,1.28-3.71.6Z"/><path class="cls-14" d="M214.12,305.23l-.23,0c-.43,0-.85,0-1.27,0a6.16,6.16,0,0,0-.75.05l7.49-45c0-.29.6-.59,1.23-.66s1.1.1,1,.39l-7.52,45.22Z"/><path class="cls-15" d="M221,260.91a1.88,1.88,0,0,0,1.85-1.58l20.57-128a1.88,1.88,0,0,0-3.71-.6l-20.57,128a1.89,1.89,0,0,0,1.56,2.16Z"/><path class="cls-19" d="M243.44,130l-3.4-.75s2.29-15.06,4.41-25.86c.14-.73,3.14-.25,3,.48C246,109.79,243.44,130,243.44,130Z"/><path class="cls-20" d="M243.35,131.54l-3.71-.6s.35-2.51.71-2.07,2.26.22,3,.47C243.68,129.47,243.35,131.54,243.35,131.54Z"/><path class="cls-21" d="M243.35,131.54a7.92,7.92,0,0,1-3.71-.6l.1-.65s.84,1.28,3.71.6Z"/><path class="cls-14" d="M204.61,305.48l-.22.07c-.42.05-.84.12-1.25.19a6.22,6.22,0,0,0-.75.15l1-45.64c0-.3.51-.67,1.12-.84s1.11-.05,1.1.24l-1,45.83Z"/><path class="cls-15" d="M205.07,260.64a1.89,1.89,0,0,0,1.61-1.83l2.11-129.6a1.88,1.88,0,0,0-3.76-.06l-2.11,129.6a1.87,1.87,0,0,0,1.85,1.91A1.51,1.51,0,0,0,205.07,260.64Z"/><path class="cls-22" d="M208.65,127.82l-3.47-.26s.13-15.23.68-26.21c0-.75,3.08-.7,3,.05C208.3,107.49,208.65,127.82,208.65,127.82Z"/><path class="cls-23" d="M208.79,129.4l-3.76-.06s0-2.54.41-2.16,2.27-.1,3,0C208.82,127.31,208.79,129.4,208.79,129.4Z"/><path class="cls-24" d="M208.79,129.4a8.08,8.08,0,0,1-3.76-.06v-.66s1,1.14,3.76.06Z"/><path class="cls-14" d="M199.17,305.91a11.1,11.1,0,0,1,1.29,0h.43a.15.15,0,0,0,0-.12l-1.83-35.92c0-.23-.44-.43-1-.44s-.93.15-.92.38l1.84,35.92A.24.24,0,0,0,199.17,305.91Z"/><path class="cls-15" d="M198.74,282.37a1.88,1.88,0,0,1-1.88-1.79l-6-129.48a1.88,1.88,0,1,1,3.75-.18l6,129.48a1.88,1.88,0,0,1-1.79,2Z"/><path class="cls-25" d="M191,149.7l3.46-.36s-.58-15.22-1.46-26.18c-.06-.75-3.1-.61-3,.14C190.7,129.38,191,149.7,191,149.7Z"/><path class="cls-26" d="M190.87,151.28l3.75-.17s-.07-2.53-.48-2.14-2.27,0-3,.14C190.77,149.2,190.87,151.28,190.87,151.28Z"/><path class="cls-27" d="M190.87,151.28a7.94,7.94,0,0,0,3.75-.17l0-.66s-1,1.18-3.75.18Z"/><path class="cls-14" d="M192.39,305.7a9.34,9.34,0,0,1,1.29-.1l.42,0a.19.19,0,0,0,0-.12l-4.66-35.67c0-.22-.47-.39-1-.36s-.92.22-.89.45l4.66,35.66A.28.28,0,0,0,192.39,305.7Z"/><path class="cls-15" d="M190.11,282.26a1.87,1.87,0,0,1-2-1.64L171.92,152a1.88,1.88,0,0,1,3.73-.46l16.18,128.61a1.88,1.88,0,0,1-1.63,2.09Z"/><path class="cls-28" d="M171.91,150.62l3.42-.63s-1.78-15.13-3.52-26c-.12-.74-3.13-.36-3,.37C170.06,130.37,171.91,150.62,171.91,150.62Z"/><path class="cls-29" d="M172,152.2l3.73-.47s-.27-2.52-.65-2.1-2.26.15-3,.38C171.69,150.13,172,152.2,172,152.2Z"/><path class="cls-30" d="M172,152.2a8,8,0,0,0,3.73-.47l-.09-.65s-.88,1.25-3.72.47Z"/><path class="cls-14" d="M209.82,305.61h0l.56,0h.1a.09.09,0,0,0,0-.07l2.19-29c0-.18-.39-.31-.91-.29s-.95.18-1,.37l-2.2,29a.14.14,0,0,0,0,.06A8.77,8.77,0,0,1,209.82,305.61Z"/><path class="cls-15" d="M211.62,284.1h-.08a1.82,1.82,0,0,1-1.79-1.85l6-121.75a1.84,1.84,0,0,1,2-1.68,1.82,1.82,0,0,1,1.79,1.85l-6,121.74A1.84,1.84,0,0,1,211.62,284.1Z"/><path class="cls-31" d="M219.41,159.36,216,159s.58-14.31,1.47-24.62c.06-.7,3.09-.57,3,.13C219.67,140.25,219.41,159.36,219.41,159.36Z"/><path class="cls-32" d="M219.5,160.85l-3.76-.17s.08-2.38.48-2,2.27,0,3,.13C219.6,158.88,219.5,160.85,219.5,160.85Z"/><path class="cls-33" d="M219.5,160.85a8.55,8.55,0,0,1-3.76-.17l0-.62s1,1.11,3.76.17Z"/><path class="cls-34" d="M244.85,8.68s-17.39,16.7,5.58,33.82-5.76,60.71-5.76,60.71c12.18-34.95,10.61-48.21,6.48-53.62-2.57-3.37-6.48-4.15-10.71-11.31-2.09-3.56-6.2-10.53-4.53-18.24A16.91,16.91,0,0,1,244.85,8.68Z"/><path class="cls-34" d="M219.21,68.89s-16.42,12,5.27,24.4S219,137.08,219,137.08c11.5-25.21,10-34.77,6.12-38.67-2.43-2.43-6.12-3-10.11-8.16-2-2.57-5.86-7.6-4.28-13.16S218.21,69.27,219.21,68.89Z"/><path class="cls-34" d="M189.94,123.3S178,82.43,184.74,67s-2.87-42-2.87-42c4.5,9.52,9.23,23.72,6.68,40.29-.48,3.12-1,5-1.5,7.11C184.61,83,183.47,99.28,189.94,123.3Z"/><path class="cls-34" d="M207,105.1S195,64.23,201.75,48.83s-2.87-42-2.87-42c4.49,9.52,9.22,23.73,6.67,40.3-.48,3.12-1,5-1.5,7.11C201.61,64.82,200.47,81.08,207,105.1Z"/><path class="cls-34" d="M149.19,104.05s-28-12.62-18.59-33.1c14.57-26.79,0-54-8.66-56.32a36.1,36.1,0,0,1,12.22,10.83c13.73,19.67.73,46.08,0,47.6a30.22,30.22,0,0,0,15.08,31Z"/><path class="cls-34" d="M167.73,127.14s21.4-22.08,5.05-37.63C149.36,70,152.87,39.37,160.05,34a36,36,0,0,0-7.36,14.58c-5.5,23.35,16.33,43.1,17.62,44.23a30.19,30.19,0,0,1-2.58,34.36Z"/><ellipse class="cls-35" cx="299.26" cy="379.75" rx="76.84" ry="13.46"/><ellipse class="cls-36" cx="308.94" cy="375.77" rx="76.84" ry="13.46"/><ellipse class="cls-4" cx="307.03" cy="374.74" rx="53.5" ry="9.37"/><path class="cls-2" d="M281.06,366.49l.1-.12Z"/><path class="cls-2" d="M280.26,367.44h0l0,0Z"/><path class="cls-2" d="M278.92,366.66c-.2.18-.41.35-.62.51C278.51,367,278.72,366.84,278.92,366.66Z"/><path class="cls-2" d="M281.48,366l.08-.1Z"/><path class="cls-2" d="M281.68,365.7l.06-.08Z"/><path class="cls-2" d="M280.4,367.28l.1-.12Z"/><path class="cls-2" d="M280.84,366.76l.1-.12Z"/><path class="cls-2" d="M280.62,367l.1-.11Z"/><path class="cls-2" d="M274.62,367h0l-.19-.12Z"/><path class="cls-2" d="M272.5,365.38h0l.15.16-.15-.16Z"/><path class="cls-2" d="M281.28,366.22l.09-.11Z"/><path class="cls-2" d="M280.47,364.24a5.85,5.85,0,0,1-.07.72l.2-.29.21-.33c.51-.78,1-1.57,1.56-2.31a7.2,7.2,0,0,0-1.58-.83c-.28-.11-.57-.21-.87-.31a9.62,9.62,0,0,1,.47,1.75A7.77,7.77,0,0,1,280.47,364.24Z"/><path class="cls-2" d="M266.59,365.36h0a10.19,10.19,0,0,1,1.19-.2,7,7,0,0,1,.91,0,6.7,6.7,0,0,1,1.67.15,8.16,8.16,0,0,1-.36-.8c-.12-.35-.27-.75-.41-1.17l-.51,0h0a35,35,0,0,0-3.59.42,12.08,12.08,0,0,0-3.32.94l-.2.13a.3.3,0,0,0-.11.38,2.08,2.08,0,0,0,1.18.65,10.47,10.47,0,0,0,1.3.29,12.87,12.87,0,0,1,2.26-.78Z"/><path class="cls-2" d="M293,361.72a1.14,1.14,0,0,1,0,.28,3.78,3.78,0,0,1-.22,1.26,7.46,7.46,0,0,1-.28.77,7.21,7.21,0,0,0,1.36-.46,5.86,5.86,0,0,0,1.41-.84c.17-.16.22-.28.21-.36a.19.19,0,0,0,0-.08h0a.25.25,0,0,0-.13-.09,1.67,1.67,0,0,0-.71-.36l-.34-.09a12,12,0,0,0-1.38-.25.71.71,0,0,1,.07.22Z"/><path class="cls-2" d="M286,362l-.07.06L286,362Z"/><path class="cls-2" d="M290.51,367.35a22.33,22.33,0,0,0,4.93-.32,12.21,12.21,0,0,0,1.45-.36l.19-.06.16-.06h0c.64-.26.43-.61-.19-.87A14.5,14.5,0,0,0,294,365l-.37-.05c-.46-.06-.94-.11-1.43-.15-.21.42-.47.9-.79,1.44A7,7,0,0,1,290.51,367.35Z"/><path class="cls-37" d="M292.49,361.56A3,3,0,0,0,290,360.5a6.57,6.57,0,0,0-2.73.6l0,0-.27.16-.12.08-.25.17-.13.1-.22.17-.18.16L286,362l-.07.06-.33.31.14.08a1.65,1.65,0,0,1,.49.53c1.38-1.24,3-1.95,4.91-1a13.23,13.23,0,0,1-3.27,3.93l.09.13a2.41,2.41,0,0,1,.34,1.4,3.87,3.87,0,0,0,.34-.21,13.11,13.11,0,0,0,2.61-2.48,16.84,16.84,0,0,1-2.21,3.12c-.42.39-.86.78-1.32,1.13a9.64,9.64,0,0,1-.84.58l.51-.18a8,8,0,0,0,3.14-2.06,7,7,0,0,0,.85-1.13c.32-.54.58-1,.79-1.44.13-.27.25-.52.34-.75a7.46,7.46,0,0,0,.28-.77A2.3,2.3,0,0,0,292.49,361.56Z"/><path class="cls-38" d="M277.66,370.74a.55.55,0,0,0-.33-.07v0l0,.08v0a.17.17,0,0,0,0,.05,10.19,10.19,0,0,1-1.43,1.76c-.32.34-.65.66-1,1v0a3.86,3.86,0,0,0-.16.48,21.24,21.24,0,0,0,2.75-2.77s1,.77,2.18,4.72a2.17,2.17,0,0,1,.07.24,3.53,3.53,0,0,0,.23-1.07c-.12-.41-.25-.81-.39-1.21a10.11,10.11,0,0,0-.8-1.92c-.05-.1-.11-.2-.17-.3l-.05-.08c-.06-.09-.12-.19-.19-.28h0l-.1-.14A2.3,2.3,0,0,0,277.66,370.74Z"/><path class="cls-38" d="M281.13,368.58c-.35-.16-.65-.37-.44-.7.46-.74,1.34-2.12,2.43-3.61a2.8,2.8,0,0,0-.64.27l-.58.86-.16.22-.06.08-.12.16-.08.1-.11.15-.09.11-.12.15-.1.12-.12.15-.1.12-.12.14-.1.11-.12.15-.1.12-.12.13,0,0c-1.05,1.36-.94,1.49-.28,1.78h0l.19.08a21.64,21.64,0,0,0,2.42.79h0l.6.05h0c.2,0,.41,0,.61,0a3.88,3.88,0,0,0,.56-.23,17.37,17.37,0,0,1-2.15-.26,10,10,0,0,0,2.43.11,3.36,3.36,0,0,0,.49-.35A7.13,7.13,0,0,1,281.13,368.58Z"/><path class="cls-38" d="M279.42,371s.07.11.11.17l.15.24c.09.14.18.28.26.43a21.31,21.31,0,0,1,1.23,2.49c.09.25.18.5.25.74a4.17,4.17,0,0,0,.53.41c0-.24,0-.33.21-.16a8.34,8.34,0,0,0,.74.57,1.35,1.35,0,0,0,.29.05,14.38,14.38,0,0,1-2.4-3.54c-.54-1-.92-1.43-.46-1.34s1.41.35,2.68.51c.68.08,1.43.14,2.13.18a1.44,1.44,0,0,0-.15-.41,11.47,11.47,0,0,1-2.73-.4h-.06l-.09,0h0l-.08,0H282l-.11,0h0l-.15,0h0l-.18,0h0l-.18-.05h0l-.41-.11h0l-.17-.05-.08,0-.16,0-.09,0-.15,0-.1,0-.15,0-.1,0-.15,0-.1,0-.14,0h0C279.23,370.38,279.28,370.68,279.42,371Z"/><path class="cls-38" d="M275.43,370.1a1.26,1.26,0,0,0-.56-.72l-.25-.11-.09,0-.22-.1-.12-.06-.24-.14-.09-.05-.33-.2-.1-.06-.27-.19-.1-.07-.37-.28a6.36,6.36,0,0,0-.66-.18c2.39,2.43,3.5,1.46,1.46,4.19a7.16,7.16,0,0,1-1.46,1.45,5,5,0,0,0,.67-.16,7,7,0,0,0,.69-.26l.23-.19.64-.6c.11-.13.21-.25.3-.38C274.93,371.45,275.57,370.77,275.43,370.1Z"/><path class="cls-38" d="M279.38,365.34c-1.41,2.1-2.28,2.28-3.13,2a7.74,7.74,0,0,1-3.26-2.14,3.56,3.56,0,0,0,.38,1,5,5,0,0,0,.66.48l.3.18.1.06.19.12.27.11c.36.17.71.34,1.07.49a2.22,2.22,0,0,0,2.29-.41l.05-.05c.21-.16.42-.33.62-.51l.11-.2A3.18,3.18,0,0,0,279.38,365.34Z"/><path class="cls-39" d="M276.15,370.16h0a1.11,1.11,0,0,1,.28-.34.5.5,0,0,1,.5-.09l0,0,.12.08a.76.76,0,0,1,.24.83h0a.55.55,0,0,1,.33.07,2.3,2.3,0,0,1,.55.53h0l-.1-.14-.05-.07-.21-.28h0l-.09-.12h0a.47.47,0,0,1,.44-.75.9.9,0,0,1,.54.24,6.75,6.75,0,0,1,.69.83h0c-.14-.29-.19-.59,0-.79h0l-.41-.12a.71.71,0,0,1-.45-.4.23.23,0,0,1,0-.11c0-.31.32-.49.75-.33a14.19,14.19,0,0,0,3.31.88,21.64,21.64,0,0,1-2.42-.79l-.19-.08h0c-.66-.29-.77-.42.28-1.78h0c-.53.61-1,1.08-1,1.08l-.45.44a1.72,1.72,0,0,1-.82.31h-.23a.52.52,0,0,1-.16-.06.76.76,0,0,1-.23-.18.85.85,0,0,1-.21-.36c-.1-.45.31-.86.71-1.17l.06,0,0,0h0l.26-.2a2.22,2.22,0,0,1-2.29.41c-.36-.15-.71-.32-1.07-.49l-.27-.11h0l.11.06.09,0,.54.31h0l.26.14.05,0,.29.17a6.49,6.49,0,0,1,.55.36h0l0,0c.21.17.68.63.43,1a1,1,0,0,1-.47.41h0l-.06,0h-.06a1.82,1.82,0,0,1-.91-.07c-.19-.06-.4-.14-.64-.24h0a1.26,1.26,0,0,1,.56.72c.14.67-.5,1.35-.87,1.84-.09.13-.19.25-.3.38.26-.25.52-.51.76-.78l.16-.17h0l.16-.17h0l.16-.17h0a6.52,6.52,0,0,0,.64-.85h0Z"/><path class="cls-40" d="M278.64,360a2.37,2.37,0,0,1,.73.36,5.7,5.7,0,0,0-1.1-1.31l.11.27,0,.08a1.34,1.34,0,0,1,.07.18l0,.09.06.17,0,.09,0,.07Z"/><path class="cls-40" d="M274,353.83l-.06,0-.06,0h0l-.13,0h0l-.08,0-.13,0h0l-.13,0h0c-2,0-3.74,2.53-2.76,6.74a11.57,11.57,0,0,0,1,2.71,2.42,2.42,0,0,1,.29-1.85c-.12-.36-.22-.74-.32-1.14-.37-1.64-.3-4.48,1.43-5.42,2-1.09,4.27,1.77,5.38,3.23a13.63,13.63,0,0,0-4.28-4h0Z"/><path class="cls-41" d="M278.64,360l0,.1,0,.07a2.25,2.25,0,0,1,.08.24v0l.06.2,0,.07a.94.94,0,0,1,0,.16l0,.08,0,.15,0,.07c0,.06,0,.12,0,.18v0c0,.07,0,.14,0,.21v.05a.78.78,0,0,1,0,.16v.06a.68.68,0,0,1,0,.14v.07s0,.09,0,.13v.06c0,.13,0,.25,0,.37v.24a.49.49,0,0,1,0,.12v.22a1,1,0,0,0,0,.17h0c0,.06,0,.11,0,.15v.05s0,.07,0,.11v0a.52.52,0,0,0,0,.11v0s0,.08,0,.12a2,2,0,0,1,.18.36,2.05,2.05,0,0,1,.11,1h0a3.84,3.84,0,0,0,.11-4,.33.33,0,0,0-.06-.1.25.25,0,0,0,0-.07l0,.07a.44.44,0,0,1,.06.1,7.53,7.53,0,0,1,1,2.94,7.77,7.77,0,0,0-.08-1.6,8.29,8.29,0,0,0-1-2.3,2.37,2.37,0,0,0-.73-.36Z"/><path class="cls-41" d="M273,365.19a2.53,2.53,0,0,1-.05-.91,3.37,3.37,0,0,1,.12-.48,10.4,10.4,0,0,1-1.24-2.58,2.42,2.42,0,0,0-.29,1.85A9.15,9.15,0,0,0,273,365.19Z"/><path class="cls-42" d="M276.25,367.33c.85.29,1.72.11,3.13-2a2.05,2.05,0,0,0-.11-1,2,2,0,0,0-.18-.36h0l0,.15h0l0,.12v0l0,.1,0,0,0,.09v0l-.09.24v0l0,.09v0a.56.56,0,0,0,0,.08v0l0,.08v0l-.12.19v0l0,.07v0l-.05.07v0l-.06.08h0l-.12.16h0l-.05.06h0l-.05.06h0l-.13.13h0l-.06.05h0l-.05.05h0l-.06,0h0l-.12.09h0l-.05,0h0l0,0h0l-.14.09h0a1.07,1.07,0,0,1-.78.13l-.06,0a6.66,6.66,0,0,1-2.81-1.93q-.36-.45-.66-.9a3.37,3.37,0,0,0-.12.48,2.53,2.53,0,0,0,.05.91A7.74,7.74,0,0,0,276.25,367.33Z"/><path class="cls-43" d="M279.44,361.2l0-.07A.25.25,0,0,1,279.44,361.2Z"/><path class="cls-43" d="M271.34,354.11h0l-.13.11,0,0-.11.11,0,0a.47.47,0,0,0-.1.1l-.05.05-.08.09-.05.07-.08.09-.05.07-.07.09-.06.09-.05.08-.06.1-.05.07-.06.11,0,.07a1.3,1.3,0,0,0-.08.17,7.22,7.22,0,0,0-.33,3.8c0,.16.05.31.08.47l0,.12c0,.15.05.29.07.43v0a9.87,9.87,0,0,0,2.26,4.63h0l.23.25h0a9,9,0,0,1-.77-1.6,4.89,4.89,0,0,1-.21-.72,11.57,11.57,0,0,1-1-2.71c-1-4.21.8-6.74,2.76-6.74h0l-.13,0h0l-.13,0h-.44l-.16,0-.1,0h0A3,3,0,0,0,271.34,354.11Z"/><path class="cls-42" d="M271.74,363.79a9,9,0,0,0,.77,1.6l.15.16c.23.22.46.44.71.64a3.56,3.56,0,0,1-.38-1,9.15,9.15,0,0,1-1.46-2.12A4.89,4.89,0,0,0,271.74,363.79Z"/><path class="cls-42" d="M279.39,365.33h0a3.18,3.18,0,0,1-.35,1.12l-.11.2,0,0A9.73,9.73,0,0,0,280.4,365a5.85,5.85,0,0,0,.07-.72,7.53,7.53,0,0,0-1-2.94A3.84,3.84,0,0,1,279.39,365.33Z"/><path class="cls-42" d="M279.5,361.3a.44.44,0,0,0-.06-.1A.33.33,0,0,1,279.5,361.3Z"/><path class="cls-44" d="M281.42,375c-.07-.24-.16-.49-.25-.74a21.31,21.31,0,0,0-1.23-2.49c-.08-.15-.17-.29-.26-.43l-.15-.24-.11-.17a6.75,6.75,0,0,0-.69-.83.9.9,0,0,0-.54-.24.47.47,0,0,0-.44.75h0l.09.12h0c.18-.32.58-.35,1.16.55a11.85,11.85,0,0,1,1,1.83c.07.16.14.32.2.5a11.1,11.1,0,0,1-1.21,10.2c-1.35,2.12-2.66,3.29-3.58,3.49l-.21,0a2.62,2.62,0,0,0,2.11-.86,11.66,11.66,0,0,0,1-1.21c.51-.66,1-1.32,1.47-2a10.52,10.52,0,0,0,1.89-7,7.89,7.89,0,0,0-.22-1.16A.14.14,0,0,1,281.42,375Z"/><path class="cls-45" d="M279,383.86a11.1,11.1,0,0,0,1.21-10.2c-.06-.18-.13-.34-.2-.5a11.85,11.85,0,0,0-1-1.83c-.58-.9-1-.87-1.16-.55h0l.21.28.05.07.1.14.1.14h0c.07.09.13.19.19.28l.05.08c.06.1.12.2.17.3a10.11,10.11,0,0,1,.8,1.92c.14.4.27.8.39,1.21a7.76,7.76,0,0,1,.35,2.5c0,.1,0,.21,0,.31a15.22,15.22,0,0,1-3,7.28,5.79,5.79,0,0,1-1.69,1.76l-.1.05h0l-.08,0H275l-.09,0h0l-.06,0,0,0-.06,0-.09,0h0l-.07,0h0l-.12-.07-.05,0-.05,0h0a1.73,1.73,0,0,1-.21-.17h0l-.09-.08h0l-.09-.09,0,0h0a2.35,2.35,0,0,1-.16-.21h0a3,3,0,0,0,1.4,1.11.64.64,0,0,0,.18.06l.21,0C276.3,387.15,277.61,386,279,383.86Z"/><path class="cls-46" d="M270.36,365.27a6.32,6.32,0,0,0,.65,1.05l.06.09.54.62c.28.29.59.6.91.89l.17.15.37.28.1.07.27.19.1.06.33.2.09.05.24.14.12.06.22.1.09,0,.24.1c.24.1.45.18.64.24a1.82,1.82,0,0,0,.91.07h.06l.06,0h0a1,1,0,0,0,.47-.41c.25-.38-.22-.84-.43-1l0,0h0a6.49,6.49,0,0,0-.55-.36l-.29-.17-.05,0-.26-.14h0c.53.31,1.62,1,1.21,1.6-.14.2-.56.18-1.14-.05a7.47,7.47,0,0,1-1.56-.87l-.38-.28a9.72,9.72,0,0,1-3.44-4.7c-1-3-1.07-6.19.05-8a3,3,0,0,1,2.24-1.54h0l.1,0,.16,0h.44l.13,0h0l.13,0h0l.13,0h0l.13,0,.08,0h0l.13,0h0l.06,0a3.22,3.22,0,0,0-.67-.27l-.3-.08a2.79,2.79,0,0,0-1.51.15,3.2,3.2,0,0,0-1.11.71,5.71,5.71,0,0,0-1.51,3.52,13.42,13.42,0,0,0,.3,3.84,14.5,14.5,0,0,0,.46,1.62c.14.42.29.82.41,1.17A8.16,8.16,0,0,0,270.36,365.27Z"/><path class="cls-46" d="M276.43,369.82a1.09,1.09,0,0,0,.54-.06l0,0A.5.5,0,0,0,276.43,369.82Z"/><path class="cls-45" d="M273.87,353.78l0,0,.06,0,0,0h0l-.11-.05-.06,0Z"/><path class="cls-45" d="M274.84,367.15l-.09,0-.11-.06h0l-.19-.12-.1-.06-.3-.18a5,5,0,0,1-.66-.48c-.25-.2-.48-.42-.71-.64l-.15-.16h0l-.23-.25h0A9.87,9.87,0,0,1,270,360.5h0v0c0-.14-.05-.28-.07-.43l0-.12c0-.16-.05-.31-.08-.47a7.22,7.22,0,0,1,.33-3.8,1.3,1.3,0,0,1,.08-.17l0-.07.06-.11.05-.07.06-.1.05-.08.06-.09.07-.09.05-.07.08-.09.05-.07.08-.09.05-.05a.47.47,0,0,1,.1-.1l0,0,.11-.11,0,0,.13-.11h0a3,3,0,0,1,1-.52h0a3,3,0,0,0-2.24,1.54c-1.12,1.85-1,5.06-.05,8a9.72,9.72,0,0,0,3.44,4.7l.38.28a7.47,7.47,0,0,0,1.56.87c.58.23,1,.25,1.14.05.41-.55-.68-1.29-1.21-1.6h0Z"/><path class="cls-45" d="M277.91,369.26h0Z"/><path class="cls-47" d="M277.91,369.26H278a1.72,1.72,0,0,0,.82-.31l.45-.44s.43-.47,1-1.08l0,0,.12-.13.1-.12.12-.15.1-.11.12-.14.1-.12.12-.15.1-.12.12-.15.09-.11.11-.15.08-.1.12-.16.06-.08.16-.22.58-.86a16.68,16.68,0,0,1,1.94-2.43,9.29,9.29,0,0,1,2.41-1.72l.27-.12.08,0,.18-.07.1,0,.15-.06.11,0,.15,0,.1,0,.15,0,.1,0,.14,0,.11,0,.14,0h.1l.13,0h1.34l.11,0,.09,0,.11,0,.09,0,.11,0,.08,0,.11,0,.07,0,.11,0,.07,0,.11,0,.06,0,.11.05,0,0,.11.05.05,0,.11.06,0,0,.11.06,0,0,.1.07h0l.11.08,0,0,.1.08h0l.1.09h0l.09.09h0l.09.1h0l.08.1h0l.08.1c-1.16-2.27-3.73-2.52-6.09-1.51a10.76,10.76,0,0,0-4.25,3.58l-.21.29-.16.24c-.55.77-1,1.37-1.38,1.85a18.89,18.89,0,0,1-2.66,2.67,3.06,3.06,0,0,0-.26.29c-.25.33-.21.5-.09.58a.52.52,0,0,0,.16.06Z"/><path class="cls-44" d="M283.27,370.16h0l-.6-.05h0a14.19,14.19,0,0,1-3.31-.88c-.43-.16-.77,0-.75.33.09-.08.27-.12.61,0a29,29,0,0,0,4,1.15,4.46,4.46,0,0,0,.63,0c.24,0,.46,0,.67,0,1,0,1.7-.12,2.37-.13a6.62,6.62,0,0,1,1.69.14,11,11,0,0,1,3.57,1.37c4,2.29,2.83,4.41,2.69,4.65a2.76,2.76,0,0,0-.19-3.08,8,8,0,0,0-3.11-2.42l-.37-.18a10.28,10.28,0,0,0-4.25-1h-.19c-.51,0-1,0-1.53,0a5.7,5.7,0,0,1-1.25.16C283.68,370.18,283.47,370.17,283.27,370.16Z"/><path class="cls-45" d="M292.08,372a11,11,0,0,0-3.57-1.37,6.62,6.62,0,0,0-1.69-.14c-.67,0-1.39.08-2.37.13-.21,0-.43,0-.67,0a4.46,4.46,0,0,1-.63,0,29,29,0,0,1-4-1.15c-.34-.09-.52,0-.61,0a.23.23,0,0,0,0,.11.71.71,0,0,0,.45.4l.41.12h0l.14,0,.1,0,.15,0,.1,0,.15,0,.1,0,.15,0,.09,0,.16,0,.08,0,.17.05h0l.41.11h0l.18.05h0l.18,0h0l.15,0h0l.11,0H282l.08,0h0l.09,0h.06a11.47,11.47,0,0,0,2.73.4h.5a19.08,19.08,0,0,1,2-.05h.09a10.29,10.29,0,0,1,1.83.31,12.63,12.63,0,0,1,3.53,1.6,3.94,3.94,0,0,1,1.61,1.6,3.57,3.57,0,0,1,.31,1.19v.15a.19.19,0,0,1,0,.08v0a.64.64,0,0,0,0,.07v0s0,.05,0,.07v0s0,0,0,.07h0l-.08.22h0l0,.07a.47.47,0,0,1-.06.1h0a1.56,1.56,0,0,0,.16-.2h0l0,0C294.91,376.44,296.08,374.32,292.08,372Z"/><path class="cls-45" d="M259.37,372s1.2,4.14,7.27,4.34a10.16,10.16,0,0,0,4.68-.93,12.91,12.91,0,0,0,2.68-1.68,19.81,19.81,0,0,0,1.77-1.59,6.26,6.26,0,0,0,1-1.3l0-.1a.64.64,0,0,0,0-.43.4.4,0,0,0-.7-.1h0a6.52,6.52,0,0,1-.64.85h0l-.16.17h0l-.16.17h0l-.16.17c-.24.27-.5.53-.76.78l-.64.6-.23.19a11.21,11.21,0,0,1-3.23,1.91l-.34.11a9.62,9.62,0,0,1-3.74.34,11.25,11.25,0,0,1-4.34-1.09,4.39,4.39,0,0,1-2-2,3.69,3.69,0,0,1-.26-1,.38.38,0,0,1,0-.1v-.51h0v-.06h0v-.08h0v0h0A2.73,2.73,0,0,0,259.37,372Z"/><path class="cls-44" d="M273.39,374.76c.17-.12.34-.24.5-.37a12.11,12.11,0,0,0,1-.81c.34-.31.67-.63,1-1a10.19,10.19,0,0,0,1.43-1.76.17.17,0,0,1,0-.05v0l0-.08v0a.76.76,0,0,0-.24-.83l-.12-.08a1.09,1.09,0,0,1-.54.06,1.11,1.11,0,0,0-.28.34h0a.4.4,0,0,1,.7.1.64.64,0,0,1,0,.43l0,.1a6.26,6.26,0,0,1-1,1.3,19.81,19.81,0,0,1-1.77,1.59,12.91,12.91,0,0,1-2.68,1.68,10.16,10.16,0,0,1-4.68.93c-6.07-.2-7.27-4.34-7.27-4.34a4.35,4.35,0,0,0,1.18,2.3,8.36,8.36,0,0,0,4.39,2.13,10.92,10.92,0,0,0,4.76.07,10.34,10.34,0,0,0,2.29-.85l.33-.18A10.67,10.67,0,0,0,273.39,374.76Z"/><path class="cls-37" d="M274.2,386.25c1.05.38,1.8-.92,2.26-1.65a14.45,14.45,0,0,0,1.87-5.14c-.2,0-.4,0-.6,0a1.31,1.31,0,0,0-.81.42l-.32.27c0,.15-.07.3-.11.44a12.44,12.44,0,0,1-1.13,3.07c-.22.41-.75,1.59-1.2,1.74-.65.2-1.53-1.7-1.72-2.17a9.23,9.23,0,0,1-.69-3.15,4.1,4.1,0,0,1,1-2,5.29,5.29,0,0,1,.05-1.38,4.86,4.86,0,0,0-1.17,1.48,5.73,5.73,0,0,0-.49,1.61,10.62,10.62,0,0,0,1.15,4.45,12.2,12.2,0,0,0,.72,1.05A2.83,2.83,0,0,0,274.2,386.25Z"/><path class="cls-48" d="M274.76,376.29a3.68,3.68,0,0,1-.2-1.08l-.69.56c-.37.29-.73.58-1.07.89a5.29,5.29,0,0,0-.05,1.38A13,13,0,0,1,274.76,376.29Z"/><path class="cls-48" d="M278.54,377.25l-.63.26a5.31,5.31,0,0,1-1,.37,10.91,10.91,0,0,1-.33,2.26l.32-.27a1.31,1.31,0,0,1,.81-.42c.2,0,.4,0,.6,0,.05-.33.11-.65.15-1A6.42,6.42,0,0,0,278.54,377.25Z"/><path class="cls-41" d="M276.43,373.84c-.44.07-.85.54-1.18.81l-.69.56a3.68,3.68,0,0,0,.2,1.08c.34-.26.67-.52,1-.79s.46-.16.71.3a4.17,4.17,0,0,1,.43,1.29,5.16,5.16,0,0,1,.05.79,5.31,5.31,0,0,0,1-.37l.63-.26a5,5,0,0,0-.35-1.68C277.92,374.91,277.31,373.69,276.43,373.84Z"/><path class="cls-37" d="M260.2,371.94a4.71,4.71,0,0,0,2.83,1.79,12.41,12.41,0,0,0,5.29,0c-.28-.35-.56-.7-.86-1a12.12,12.12,0,0,1-2,.22,9.2,9.2,0,0,1-3-.37,3.41,3.41,0,0,1-1.49-.92c-.34-.39-.52-.69-.29-1.14a6.55,6.55,0,0,1,2.55-2.26,5.91,5.91,0,0,1,2.71-.64,7.5,7.5,0,0,1,.82,0,3.53,3.53,0,0,1,2.79-1.13,8.1,8.1,0,0,0-3.9-.52,6.78,6.78,0,0,0-2.62.82,8.87,8.87,0,0,0-3.33,3.31A2.59,2.59,0,0,0,260.2,371.94Z"/><path class="cls-48" d="M269.1,368.45a1.29,1.29,0,0,1,.33-.33,2.79,2.79,0,0,1,1.92-.35,5.51,5.51,0,0,0-1.83-1.21,3.53,3.53,0,0,0-2.79,1.13,5.51,5.51,0,0,1,2.37.76Z"/><path class="cls-48" d="M270.31,373.2a2,2,0,0,1-.82-1.05l-.69.25a10.61,10.61,0,0,1-1.34.36c.3.32.58.67.86,1l.84-.2A11.9,11.9,0,0,0,270.31,373.2Z"/><path class="cls-41" d="M273.07,369.92a2.53,2.53,0,0,0-.79-1.12,9.37,9.37,0,0,1-.79-.88h0l-.14-.15a2.79,2.79,0,0,0-1.92.35,1.29,1.29,0,0,0-.33.33,6.27,6.27,0,0,1,1.29,1.23,4.17,4.17,0,0,1,.81.87c.14.68-.91,1.26-1.71,1.6a2,2,0,0,0,.82,1.05,6.38,6.38,0,0,0,1.77-1A2.35,2.35,0,0,0,273.07,369.92Z"/><path class="cls-37" d="M272.93,354.66c-1.73.94-1.8,3.78-1.43,5.42.1.4.2.78.32,1.14A1.77,1.77,0,0,1,272,361a3.25,3.25,0,0,1,.35-.39,5.62,5.62,0,0,1-.15-.55c-.26-1.15-.28-5,1.83-4,1.54.74,2,2.12,2.57,3.56a4.07,4.07,0,0,1,.18.44,2,2,0,0,0,.42-.05,2.74,2.74,0,0,1,1.45,0l0-.07,0-.09-.06-.17,0-.09a1.34,1.34,0,0,0-.07-.18l0-.08-.11-.27a5.7,5.7,0,0,1,1.1,1.31,8.29,8.29,0,0,1,1,2.3,9.62,9.62,0,0,0-.47-1.75s0-.05,0-.07a13.35,13.35,0,0,0-1.59-2.93C277.2,356.43,274.94,353.57,272.93,354.66Z"/><path class="cls-48" d="M277.44,362.68a4.93,4.93,0,0,1,0,.55,1,1,0,0,1,.25,0,1.64,1.64,0,0,1,1.37.78s0-.08,0-.12v0a.52.52,0,0,1,0-.11v0s0-.08,0-.11v-.05s0-.09,0-.15h0a1,1,0,0,1,0-.17V363a.49.49,0,0,0,0-.12v-.24c0-.12,0-.24,0-.37v-.06s0-.09,0-.13V362a.68.68,0,0,0,0-.14v-.06a.78.78,0,0,0,0-.16v-.05c0-.07,0-.14,0-.21v0c0-.06,0-.12,0-.18l0-.07,0-.15,0-.08a.94.94,0,0,0,0-.16l0-.07-.06-.2v0a2.25,2.25,0,0,0-.08-.24l0-.07a.42.42,0,0,0,0-.1,2.74,2.74,0,0,0-1.45,0,2,2,0,0,1-.42.05A8.82,8.82,0,0,1,277.44,362.68Z"/><path class="cls-48" d="M273.06,363.8a2,2,0,0,1,.37-.64,9.94,9.94,0,0,1-1.1-2.55,3.25,3.25,0,0,0-.35.39,1.77,1.77,0,0,0-.16.22A10.4,10.4,0,0,0,273.06,363.8Z"/><path class="cls-41" d="M276.53,366.63l.06,0a1.07,1.07,0,0,0,.78-.13h0l.14-.09h0l0,0h0l.05,0h0l.12-.09h0l.06,0h0l.05-.05h0l.06-.05h0l.13-.13h0l.05-.06h0l.05-.06h0l.12-.16h0l.06-.08v0l.05-.07v0l0-.07v0l.12-.19v0l0-.08v0a.56.56,0,0,1,0-.08v0l0-.09v0l.09-.24v0l0-.09,0,0,0-.1v0l0-.12h0l0-.15h0a1.64,1.64,0,0,0-1.37-.78,1,1,0,0,0-.25,0,4.07,4.07,0,0,1-.14,1c-.11.42-.45,1.25-.93,1.4-.88.28-2.24-1.38-2.69-2l-.28-.42a2,2,0,0,0-.37.64q.3.45.66.9A6.66,6.66,0,0,0,276.53,366.63Z"/><path class="cls-37" d="M294.16,376.09a3.38,3.38,0,0,0-1.74-2.22,10.68,10.68,0,0,0-4.16-1.32c0,.11.07.21.1.31a1.94,1.94,0,0,1,0,1,12.44,12.44,0,0,1,1.46.39,4.81,4.81,0,0,1,2.51,1.55c.14.2.45.73.24,1s-.56.2-.71.25a6.5,6.5,0,0,1-4.31.5c-.35-.11-.69-.23-1-.37a2.32,2.32,0,0,1-.73.29l.36.18c2.19,1,3.48,1.2,5.4.51,0,0-2.59,1.89-6.64-.34-.26-.14-.51-.3-.75-.46a4.26,4.26,0,0,1-1.1-.61,8,8,0,0,0,1.36,1.3c.3.23.61.45.92.66a7.43,7.43,0,0,0,7.58-.35A2.76,2.76,0,0,0,294.16,376.09Z"/><path class="cls-48" d="M283.1,376.77a4.26,4.26,0,0,0,1.1.61,15.36,15.36,0,0,1-1.64-1.38A7.06,7.06,0,0,0,283.1,376.77Z"/><path class="cls-48" d="M284.28,375.71a1.45,1.45,0,0,1-.22.09,1.67,1.67,0,0,1-.3.08,10.66,10.66,0,0,0,2.07,1.61,2.32,2.32,0,0,0,.73-.29,8.61,8.61,0,0,1-2.18-1.4Z"/><path class="cls-48" d="M285.2,372.42a1.64,1.64,0,0,1,0,.22,9,9,0,0,1-.24.89.13.13,0,0,1,0,.06,17.27,17.27,0,0,1,3.46.31,1.94,1.94,0,0,0,0-1c0-.1-.07-.2-.1-.31-.49-.06-1-.1-1.45-.12S285.74,372.4,285.2,372.42Z"/><path class="cls-41" d="M282,373.31c-.07.91.88,1.78,1.5,2.33l.27.24a1.67,1.67,0,0,0,.3-.08,1.45,1.45,0,0,0,.22-.09c-.6-.51-1.57-1.19-1.77-1.94a18.86,18.86,0,0,1,2.42-.18.13.13,0,0,0,0-.06,9,9,0,0,0,.24-.89,1.64,1.64,0,0,0,0-.22l-1.32.05C283.2,372.51,282.07,372.38,282,373.31Z"/><path class="cls-40" d="M272.8,376.66c0-.14,0-.27.07-.4a6.87,6.87,0,0,1,.27-.88l-.22.18a6.36,6.36,0,0,0-1.53,1.73,9.52,9.52,0,0,0-.25,2.46,5.73,5.73,0,0,1,.49-1.61A4.86,4.86,0,0,1,272.8,376.66Z"/><path class="cls-40" d="M273.61,386.23a2.35,2.35,0,0,0,.16.21h0l0,0,.09.09h0l.09.08h0a1.73,1.73,0,0,0,.21.17h0a1.21,1.21,0,0,0,1.28-.07,15.48,15.48,0,0,0,4.2-7.92l0,0a1.91,1.91,0,0,1-1.06.55,1.51,1.51,0,0,1-.3,0,14.45,14.45,0,0,1-1.87,5.14c-.46.73-1.21,2-2.26,1.65a2.83,2.83,0,0,1-1.19-1,12.2,12.2,0,0,1-.72-1.05c.07.15.15.29.23.43s.71,1.09.81,1.23l.26.36h0Z"/><path class="cls-41" d="M274.56,375.21a3.81,3.81,0,0,1,.12-1.12c-.45.4-1,.83-1.54,1.29a6.87,6.87,0,0,0-.27.88c0,.13-.05.26-.07.4.34-.31.7-.6,1.07-.89Z"/><path class="cls-41" d="M279.68,376.28a.61.61,0,0,1-.07.14,2,2,0,0,1-1.07.83,6.42,6.42,0,0,1-.06,1.23c0,.33-.1.65-.15,1a1.51,1.51,0,0,0,.3,0,1.91,1.91,0,0,0,1.06-.55l0,0A6.7,6.7,0,0,0,279.68,376.28Z"/><path class="cls-42" d="M275.25,374.65c.33-.27.74-.74,1.18-.81.88-.15,1.49,1.07,1.76,1.73a5,5,0,0,1,.35,1.68,2,2,0,0,0,1.07-.83.61.61,0,0,0,.07-.14,2.17,2.17,0,0,0-.07-.24c-1.17-4-2.18-4.72-2.18-4.72a21.24,21.24,0,0,1-2.75,2.77,3.81,3.81,0,0,0-.12,1.12Z"/><path class="cls-43" d="M272.92,375.56l.22-.18c.08-.21.16-.42.25-.62a10.67,10.67,0,0,1-1.07.67l-.33.18a8,8,0,0,0-.6,1.68A6.36,6.36,0,0,1,272.92,375.56Z"/><path class="cls-43" d="M275.53,386.77a1.21,1.21,0,0,1-1.28.07h0l.05,0,.05,0,.12.07h0l.07,0h0l.09,0,.06,0,0,0,.06,0h0l.09,0h.38l.08,0h0l.1-.05a5.79,5.79,0,0,0,1.69-1.76,15.22,15.22,0,0,0,3-7.28,2.62,2.62,0,0,1-.51.83A15.48,15.48,0,0,1,275.53,386.77Z"/><path class="cls-42" d="M279.73,378.85a2.62,2.62,0,0,0,.51-.83c0-.1,0-.21,0-.31a7.76,7.76,0,0,0-.35-2.5,3.53,3.53,0,0,1-.23,1.07A6.7,6.7,0,0,1,279.73,378.85Z"/><path class="cls-42" d="M274.84,373.61v0a12.11,12.11,0,0,1-1,.81c-.16.13-.33.25-.5.37s-.17.41-.25.62c.58-.46,1.09-.89,1.54-1.29A3.86,3.86,0,0,1,274.84,373.61Z"/><polygon class="cls-42" points="277.85 370.78 277.85 370.78 277.85 370.78 277.85 370.78 277.85 370.78"/><path class="cls-40" d="M283.1,376.77a8.59,8.59,0,0,1-1.05-1,7.76,7.76,0,0,0,.54,1.19,15,15,0,0,0,2.79,1.73c-.31-.21-.62-.43-.92-.66A8,8,0,0,1,283.1,376.77Z"/><path class="cls-40" d="M294,374.58c-1.3-2-4.3-2.75-6.11-2.86a6.94,6.94,0,0,1,.39.83,10.68,10.68,0,0,1,4.16,1.32,3.38,3.38,0,0,1,1.74,2.22,2.76,2.76,0,0,1-1.2,2.29,7.9,7.9,0,0,0,1.45-1.26A2.67,2.67,0,0,0,294,374.58Z"/><path class="cls-40" d="M284.9,377.54a3.38,3.38,0,0,1-.7-.16c.24.16.49.32.75.46,4.05,2.23,6.64.34,6.64.34-1.92.69-3.21.46-5.4-.51l-.36-.18A2.91,2.91,0,0,1,284.9,377.54Z"/><path class="cls-41" d="M283.19,375.91a7.5,7.5,0,0,0,1,.8s-.65-.41-1.26-.85a2.86,2.86,0,0,1-.95-.41,2.54,2.54,0,0,0,.1.36,8.59,8.59,0,0,0,1.05,1,7.06,7.06,0,0,1-.54-.77,15.36,15.36,0,0,0,1.64,1.38,3.38,3.38,0,0,0,.7.16,2.91,2.91,0,0,0,.93-.05,10.66,10.66,0,0,1-2.07-1.61A1.84,1.84,0,0,1,283.19,375.91Z"/><path class="cls-41" d="M287,371.72c-.43,0-1.13,0-1.9,0a2.69,2.69,0,0,1,.06.7c.54,0,1.07,0,1.61,0s1,.06,1.45.12a6.94,6.94,0,0,0-.39-.83A5.71,5.71,0,0,0,287,371.72Z"/><path class="cls-42" d="M282.16,375.29c-.19-.17-.25-.08-.21.16a2.86,2.86,0,0,0,.95.41A8.34,8.34,0,0,1,282.16,375.29Z"/><path class="cls-42" d="M283.76,375.88l-.27-.24c-.62-.55-1.57-1.42-1.5-2.33s1.21-.8,1.89-.84l1.32-.05a2.69,2.69,0,0,0-.06-.7c-.7,0-1.45-.1-2.13-.18-1.27-.16-2.21-.42-2.68-.51s-.08.32.46,1.34a14.38,14.38,0,0,0,2.4,3.54A1.84,1.84,0,0,0,283.76,375.88Z"/><path class="cls-43" d="M281.44,375.11a7.89,7.89,0,0,1,.22,1.16l.1.05c.28.24.55.47.83.68a7.76,7.76,0,0,1-.54-1.19C281.84,375.58,281.63,375.34,281.44,375.11Z"/><path class="cls-43" d="M294.65,376.8l0-.07h0l.08-.22h0s0-.05,0-.07v0s0,0,0-.07v0a.64.64,0,0,1,0-.07v0a.19.19,0,0,0,0-.08V376a3.57,3.57,0,0,0-.31-1.19,3.94,3.94,0,0,0-1.61-1.6,12.63,12.63,0,0,0-3.53-1.6,10.29,10.29,0,0,0-1.83-.31,5.16,5.16,0,0,1,.29.46c1.81.11,4.81.89,6.11,2.86a2.67,2.67,0,0,1,.43,2.54l.18-.22h0A.47.47,0,0,0,294.65,376.8Z"/><path class="cls-42" d="M281.42,375a.14.14,0,0,0,0,.07c.19.23.4.47.61.7a2.54,2.54,0,0,1-.1-.36A4.17,4.17,0,0,1,281.42,375Z"/><path class="cls-42" d="M287,371.72a5.71,5.71,0,0,1,.83,0,5.16,5.16,0,0,0-.29-.46h-.09a19.08,19.08,0,0,0-2,.05H285a1.44,1.44,0,0,1,.15.41C285.91,371.75,286.61,371.75,287,371.72Z"/><path class="cls-42" d="M283.19,375.91a1.35,1.35,0,0,1-.29-.05c.61.44,1.26.85,1.26.85A7.5,7.5,0,0,1,283.19,375.91Z"/><path class="cls-40" d="M292.82,361.37h0a3.54,3.54,0,0,0-2.38-1.26h0c-2.06-.45-4,.68-5.5,2a1.72,1.72,0,0,1,.65.25l.33-.31L286,362l.09-.07.18-.16.22-.17.13-.1.25-.17.12-.08.27-.16,0,0a6.57,6.57,0,0,1,2.73-.6,3,3,0,0,1,2.48,1.06,2.3,2.3,0,0,1,.28,1.7A3.78,3.78,0,0,0,293,362a1.14,1.14,0,0,0,0-.28h0a.71.71,0,0,0-.07-.22.33.33,0,0,0-.06-.11h0Z"/><path class="cls-41" d="M288.25,367.71l-.1.08.1-.08a1.15,1.15,0,0,0,0-.26,9.72,9.72,0,0,1-2.32,1s0,.07,0,.11a4,4,0,0,1-.27.44,3.27,3.27,0,0,1-.44.47,5.66,5.66,0,0,0,2.53-1,4.91,4.91,0,0,1-2.49,1.31l-.53.08-.28.15a7.73,7.73,0,0,0,.84,0,11,11,0,0,0,1.58-.37,9.64,9.64,0,0,0,.84-.58A3.05,3.05,0,0,0,288.25,367.71Z"/><path class="cls-41" d="M283.48,363.78a5.6,5.6,0,0,0-.36.49l.07,0a2.52,2.52,0,0,1,.91-.07A13.89,13.89,0,0,1,285,363c.18-.21.38-.42.58-.62a1.72,1.72,0,0,0-.65-.25A11.8,11.8,0,0,0,283.48,363.78Z"/><path class="cls-42" d="M282.29,369.68a17.37,17.37,0,0,0,2.15.26l.28-.15A10,10,0,0,1,282.29,369.68Z"/><path class="cls-43" d="M292.66,361.1l-.08-.1h0l-.09-.1h0l-.09-.09h0l-.1-.09h0l-.1-.08,0,0-.11-.08h0l-.1-.07,0,0-.11-.06,0,0-.11-.06-.05,0-.11-.05,0,0-.11-.05-.06,0-.11,0-.07,0-.11,0-.07,0-.11,0-.08,0-.11,0-.09,0-.11,0-.09,0-.11,0h-1.34l-.13,0h-.1l-.14,0-.11,0-.14,0-.1,0-.15,0-.1,0-.15,0-.11,0-.15.06-.1,0-.18.07-.08,0-.27.12a9.29,9.29,0,0,0-2.41,1.72,2.19,2.19,0,0,1,.51,0c1.47-1.37,3.44-2.5,5.5-2h0a3.54,3.54,0,0,1,2.38,1.26v0l0,0h0l0-.07-.08-.1Z"/><polygon class="cls-43" points="292.83 361.38 292.82 361.37 292.82 361.36 292.82 361.37 292.83 361.38"/><path class="cls-42" d="M282.48,364.54a2.8,2.8,0,0,1,.64-.27,5.6,5.6,0,0,1,.36-.49,11.8,11.8,0,0,1,1.45-1.63,2.19,2.19,0,0,0-.51,0A16.68,16.68,0,0,0,282.48,364.54Z"/><path class="cls-42" d="M285.25,369.71a4.91,4.91,0,0,0,2.49-1.31,5.66,5.66,0,0,1-2.53,1,3.36,3.36,0,0,1-.49.35Z"/><path class="cls-42" d="M283.88,370.17a5.7,5.7,0,0,0,1.25-.16l.15-.05a7.73,7.73,0,0,1-.84,0A3.88,3.88,0,0,1,283.88,370.17Z"/><path class="cls-48" d="M284.1,364.18a2.28,2.28,0,0,1,.79.25,12.68,12.68,0,0,1,1.32-1.42,1.65,1.65,0,0,0-.49-.53l-.14-.08c-.2.2-.4.41-.58.62A13.89,13.89,0,0,0,284.1,364.18Z"/><path class="cls-48" d="M286,367.08a1.43,1.43,0,0,1,.14.51,1.82,1.82,0,0,1-.14.83,9.72,9.72,0,0,0,2.32-1,2.41,2.41,0,0,0-.34-1.4l-.09-.13A9.23,9.23,0,0,1,286,367.08Z"/><path class="cls-41" d="M286.1,367.59a1.43,1.43,0,0,0-.14-.51,6.66,6.66,0,0,1-3.19.63,9.25,9.25,0,0,1,.51-1,25.16,25.16,0,0,1,1.61-2.29,2.28,2.28,0,0,0-.79-.25c-.41.58-.8,1.18-1.18,1.77-.08.16-.17.31-.25.46a2.12,2.12,0,0,1-.11.21v0a.47.47,0,0,1-.05.1h0a3.66,3.66,0,0,0-.25.62c-.05.38.07,1,1.37,1.25a5.34,5.34,0,0,0,2.34-.2A1.82,1.82,0,0,0,286.1,367.59Z"/><path class="cls-49" d="M274.57,380.56a3,3,0,0,1-.57-.27,2.62,2.62,0,0,1-1.08-1.46,4.11,4.11,0,0,1-.17-.79,4.1,4.1,0,0,0-1,2,9.23,9.23,0,0,0,.69,3.15c.19.47,1.07,2.37,1.72,2.17.45-.15,1-1.33,1.2-1.74a12.44,12.44,0,0,0,1.13-3.07c0-.14.08-.29.11-.44a3.06,3.06,0,0,1-.52.33A2,2,0,0,1,274.57,380.56Z"/><path class="cls-50" d="M276.21,377.85a2.08,2.08,0,0,1-1.2-1,3.1,3.1,0,0,1-.25-.56,13,13,0,0,0-2,1.75,4.11,4.11,0,0,0,.17.79,2.62,2.62,0,0,0,1.08,1.46,3,3,0,0,0,.57.27,2,2,0,0,0,1.51-.09,3.06,3.06,0,0,0,.52-.33,10.91,10.91,0,0,0,.33-2.26A1.48,1.48,0,0,1,276.21,377.85Z"/><path class="cls-48" d="M276.45,375.8c-.25-.46-.29-.65-.71-.3s-.64.53-1,.79a3.1,3.1,0,0,0,.25.56,2.08,2.08,0,0,0,1.2,1,1.48,1.48,0,0,0,.72,0,5.16,5.16,0,0,0-.05-.79A4.17,4.17,0,0,0,276.45,375.8Z"/><path class="cls-49" d="M266.19,371.13a3.57,3.57,0,0,1-.16-.46,3.36,3.36,0,0,1,.09-2,1.42,1.42,0,0,1,.08-.18,3.24,3.24,0,0,1,.53-.84,7.5,7.5,0,0,0-.82,0,5.91,5.91,0,0,0-2.71.64,6.55,6.55,0,0,0-2.55,2.26c-.23.45,0,.75.29,1.14a3.41,3.41,0,0,0,1.49.92,9.2,9.2,0,0,0,3,.37,12.12,12.12,0,0,0,2-.22l-.18-.18A4.62,4.62,0,0,1,266.19,371.13Z"/><path class="cls-50" d="M269.49,372.15c0-.1-.05-.19-.07-.29-.05-.34,0-.69,0-1a2.55,2.55,0,0,0-.27-.89,1.48,1.48,0,0,1,0-1.48h0a5.51,5.51,0,0,0-2.37-.76,3.24,3.24,0,0,0-.53.84,1.42,1.42,0,0,0-.08.18,3.36,3.36,0,0,0-.09,2,3.57,3.57,0,0,0,.16.46,4.62,4.62,0,0,0,1.09,1.45l.18.18a10.61,10.61,0,0,0,1.34-.36Z"/><path class="cls-48" d="M271.2,370.55a4.17,4.17,0,0,0-.81-.87,6.27,6.27,0,0,0-1.29-1.23,1.48,1.48,0,0,0,0,1.48,2.55,2.55,0,0,1,.27.89c0,.35,0,.7,0,1,0,.1,0,.19.07.29C270.29,371.81,271.34,371.23,271.2,370.55Z"/><path class="cls-49" d="M272.92,360.12a2.61,2.61,0,0,1,1.63-.48l.17,0a12.29,12.29,0,0,1,1.19.32,3.08,3.08,0,0,0,.85.09,4.07,4.07,0,0,0-.18-.44c-.61-1.44-1-2.82-2.57-3.56-2.11-1-2.09,2.84-1.83,4a5.62,5.62,0,0,0,.15.55A3.94,3.94,0,0,1,272.92,360.12Z"/><path class="cls-50" d="M274.13,362.63h0a2.1,2.1,0,0,1,1.4,0,2.91,2.91,0,0,1,.51.22c.26.14.52.42.83.44a5.78,5.78,0,0,0,.58,0,4.93,4.93,0,0,0,0-.55,8.82,8.82,0,0,0-.68-2.61,3.08,3.08,0,0,1-.85-.09,12.29,12.29,0,0,0-1.19-.32l-.17,0a2.61,2.61,0,0,0-1.63.48,3.94,3.94,0,0,0-.59.49,9.94,9.94,0,0,0,1.1,2.55A1.92,1.92,0,0,1,274.13,362.63Z"/><path class="cls-48" d="M276.4,365.61c.48-.15.82-1,.93-1.4a4.07,4.07,0,0,0,.14-1,5.78,5.78,0,0,1-.58,0c-.31,0-.57-.3-.83-.44a2.91,2.91,0,0,0-.51-.22,2.1,2.1,0,0,0-1.4,0h0a1.92,1.92,0,0,0-.7.53l.28.42C274.16,364.23,275.52,365.89,276.4,365.61Z"/><path class="cls-49" d="M287.89,375v0a8.35,8.35,0,0,1-.64,1.53,1.83,1.83,0,0,1-.38.46,1.7,1.7,0,0,1-.3.23c.33.14.67.26,1,.37a6.5,6.5,0,0,0,4.31-.5c.15-.05.6-.12.71-.25s-.1-.78-.24-1a4.81,4.81,0,0,0-2.51-1.55,12.44,12.44,0,0,0-1.46-.39c0,.05,0,.1-.05.15C288.22,374.36,288,374.64,287.89,375Z"/><path class="cls-50" d="M285.11,374.28a1.43,1.43,0,0,1-.24.89,1.7,1.7,0,0,1-.59.54l.1.09a8.61,8.61,0,0,0,2.18,1.4,1.7,1.7,0,0,0,.3-.23,1.83,1.83,0,0,0,.38-.46,8.35,8.35,0,0,0,.64-1.53v0c.13-.32.33-.6.45-.91,0-.05,0-.1.05-.15a17.27,17.27,0,0,0-3.46-.31C284.92,373.82,285.08,374,285.11,374.28Z"/><path class="cls-48" d="M284.28,375.71a1.7,1.7,0,0,0,.59-.54,1.43,1.43,0,0,0,.24-.89c0-.24-.19-.46-.18-.69a18.86,18.86,0,0,0-2.42.18C282.71,374.52,283.68,375.2,284.28,375.71Z"/><path class="cls-49" d="M286.42,363.57a3.2,3.2,0,0,0,.11,1,1.35,1.35,0,0,0,.26.33l.42.36a3.7,3.7,0,0,1,.64.67,13.23,13.23,0,0,0,3.27-3.93c-1.87-.93-3.53-.22-4.91,1a1.65,1.65,0,0,1,.18.41Z"/><path class="cls-50" d="M284.89,364.43a2,2,0,0,1,.37.28l.06.05a1.41,1.41,0,0,1,.42.85.67.67,0,0,1,0,.2c0,.28-.13.49,0,.76s.16.34.23.51a9.23,9.23,0,0,0,1.89-1.16,3.7,3.7,0,0,0-.64-.67l-.42-.36a1.35,1.35,0,0,1-.26-.33,3.2,3.2,0,0,1-.11-1l0-.15a1.65,1.65,0,0,0-.18-.41A12.68,12.68,0,0,0,284.89,364.43Z"/><path class="cls-48" d="M282.77,367.71a6.66,6.66,0,0,0,3.19-.63c-.07-.17-.16-.33-.23-.51s0-.48,0-.76a.67.67,0,0,0,0-.2,1.41,1.41,0,0,0-.42-.85l-.06-.05a2,2,0,0,0-.37-.28,25.16,25.16,0,0,0-1.61,2.29A9.25,9.25,0,0,0,282.77,367.71Z"/><path class="cls-40" d="M288.25,367.71a3.05,3.05,0,0,1-.55,1.3c.46-.35.9-.74,1.32-1.13a16.84,16.84,0,0,0,2.21-3.12,13.11,13.11,0,0,1-2.61,2.48,3.87,3.87,0,0,1-.34.21,1.15,1.15,0,0,1,0,.26Z"/><path class="cls-42" d="M283.62,368.62c-1.3-.25-1.42-.87-1.37-1.25a3.66,3.66,0,0,1,.25-.62h0a.47.47,0,0,0,.05-.1v0a2.12,2.12,0,0,0,.11-.21c.08-.15.17-.3.25-.46.38-.59.77-1.19,1.18-1.77a2.52,2.52,0,0,0-.91.07l-.07,0c-1.09,1.49-2,2.87-2.43,3.61-.21.33.09.54.44.7a7.13,7.13,0,0,0,4.08.86,3.27,3.27,0,0,0,.44-.47,4,4,0,0,0,.27-.44s0-.07,0-.11A5.34,5.34,0,0,1,283.62,368.62Z"/><path class="cls-40" d="M265.62,366a8.1,8.1,0,0,1,3.9.52l.41,0a8.66,8.66,0,0,1,1.12.26,5.79,5.79,0,0,0-3.27-1.69,10.19,10.19,0,0,0-1.19.2h0a12.87,12.87,0,0,0-2.26.78,12.11,12.11,0,0,0-1.33.72A6.78,6.78,0,0,1,265.62,366Z"/><path class="cls-40" d="M259.48,370.63h0v0h0v.08h0c0,.49,0,2.7,3.69,3.79a11.68,11.68,0,0,0,6.14.27,6.72,6.72,0,0,1-1-1,12.41,12.41,0,0,1-5.29,0,4.71,4.71,0,0,1-2.83-1.79,2.59,2.59,0,0,1-.53-1.77c-.07.16-.14.31-.19.46Z"/><path class="cls-41" d="M271.41,367.78l.62.11c-.15-.15-.3-.31-.46-.5s-.35-.38-.52-.54a8.66,8.66,0,0,0-1.12-.26l-.41,0a5.51,5.51,0,0,1,1.83,1.21Z"/><path class="cls-41" d="M270.67,373.39a3,3,0,0,1-.36-.19,11.9,11.9,0,0,1-1.15.38l-.84.2a6.72,6.72,0,0,0,1,1,7.67,7.67,0,0,0,2.73-1.26A2.63,2.63,0,0,1,270.67,373.39Z"/><path class="cls-42" d="M271.35,367.77l.14.15h0a9.37,9.37,0,0,0,.79.88,2.53,2.53,0,0,1,.79,1.12,2.35,2.35,0,0,1-1,2.26,6.38,6.38,0,0,1-1.77,1,3,3,0,0,0,.36.19,2.63,2.63,0,0,0,1.36.14,7.16,7.16,0,0,0,1.46-1.45c2-2.73.93-1.76-1.46-4.19l-.62-.11Z"/><path class="cls-43" d="M263.16,374.52c-3.65-1.09-3.72-3.3-3.69-3.79h0v.06h0v.51a.38.38,0,0,0,0,.1,3.69,3.69,0,0,0,.26,1,4.39,4.39,0,0,0,2,2,11.25,11.25,0,0,0,4.34,1.09,9.62,9.62,0,0,0,3.74-.34,3.31,3.31,0,0,1-.52-.34A11.68,11.68,0,0,1,263.16,374.52Z"/><path class="cls-43" d="M271.07,366.41l-.06-.09a6.32,6.32,0,0,1-.65-1.05,6.7,6.7,0,0,0-1.67-.15,7,7,0,0,0-.91,0,5.79,5.79,0,0,1,3.27,1.69c.19.06.38.11.56.18Z"/><path class="cls-42" d="M272,373.53a7.67,7.67,0,0,1-2.73,1.26,3.31,3.31,0,0,0,.52.34l.34-.11a11.21,11.21,0,0,0,3.23-1.91,7,7,0,0,1-.69.26A5,5,0,0,1,272,373.53Z"/><path class="cls-42" d="M272,367.89a6.36,6.36,0,0,1,.66.18l-.17-.15c-.32-.29-.63-.6-.91-.89-.18-.07-.37-.12-.56-.18.17.16.35.35.52.54S271.88,367.74,272,367.89Z"/><path class="cls-43" d="M276.14,370.16a6.52,6.52,0,0,1-.64.85A6.52,6.52,0,0,0,276.14,370.16Z"/><polygon class="cls-43" points="276.15 370.16 276.15 370.16 276.15 370.16 276.15 370.16 276.15 370.16"/><path class="cls-45" d="M285.38,359.64c-3.32,1.86-3.73,4.85-5.82,6.68-1.65,1.45-2.23,2-2.36,2.33a.85.85,0,0,0,.21.36.76.76,0,0,0,.23.18c-.12-.08-.16-.25.09-.58a3.06,3.06,0,0,1,.26-.29,18.89,18.89,0,0,0,2.66-2.67c.38-.48.83-1.08,1.38-1.85l.16-.24.21-.29a10.76,10.76,0,0,1,4.25-3.58c2.36-1,4.93-.76,6.09,1.51l0,.07h0l0,0v0h0a3.27,3.27,0,0,0-.7-1.25l-.34-.34A5.91,5.91,0,0,0,285.38,359.64Z"/><path class="cls-51" d="M280.6,364.67l-.2.29a9.73,9.73,0,0,1-1.46,1.68l0,0c-.2.18-.41.35-.62.51l-.05.05-.26.2h0l0,0-.06,0c-.4.31-.81.72-.71,1.17.13-.37.71-.88,2.36-2.33,2.09-1.83,2.5-4.82,5.82-6.68a5.91,5.91,0,0,1,6.41.16,5.2,5.2,0,0,0-1.5-.93,5.86,5.86,0,0,0-3.68,0,8.42,8.42,0,0,0-3.44,2.25,11.57,11.57,0,0,0-.8.93c-.56.74-1.05,1.53-1.56,2.31Z"/><path class="cls-2" d="M329.77,365.85l.09-.12Z"/><path class="cls-2" d="M329,366.75h0l0,0Z"/><path class="cls-2" d="M327.74,366l-.59.49Z"/><path class="cls-2" d="M330.17,365.34l.08-.09Z"/><path class="cls-2" d="M330.36,365.1l.06-.08Z"/><path class="cls-2" d="M329.14,366.6l.09-.11Z"/><path class="cls-2" d="M329.56,366.1l.09-.11Z"/><path class="cls-2" d="M329.35,366.35l.09-.11Z"/><path class="cls-2" d="M323.65,366.36h0l-.19-.11Z"/><path class="cls-2" d="M321.63,364.79h0a1.85,1.85,0,0,1,.14.14l-.14-.15Z"/><path class="cls-2" d="M330,365.59l.09-.1Z"/><path class="cls-2" d="M329.21,363.71a5.23,5.23,0,0,1-.07.68l.19-.27c.07-.11.14-.21.2-.32.49-.74,1-1.49,1.49-2.19a7.18,7.18,0,0,0-1.5-.79c-.27-.1-.55-.21-.84-.3a8.87,8.87,0,0,1,.45,1.66A7.14,7.14,0,0,1,329.21,363.71Z"/><path class="cls-2" d="M316,364.77h0a9.19,9.19,0,0,1,1.13-.19,8.44,8.44,0,0,1,.87,0,6.47,6.47,0,0,1,1.58.15,5.63,5.63,0,0,1-.33-.76l-.4-1.11-.48,0h0c-1.18.08-2.37.22-3.42.4a11.52,11.52,0,0,0-3.16.9l-.18.12c-.14.12-.17.24-.11.36a2,2,0,0,0,1.12.62,11.48,11.48,0,0,0,1.24.28,11.44,11.44,0,0,1,2.15-.75Z"/><path class="cls-2" d="M341.09,361.31a2.13,2.13,0,0,1,0,.27,3.89,3.89,0,0,1-.2,1.2c-.07.22-.16.46-.27.73a6.71,6.71,0,0,0,1.29-.44,5.55,5.55,0,0,0,1.34-.8c.17-.15.21-.26.2-.34a.14.14,0,0,0,0-.07h0a.21.21,0,0,0-.12-.09,1.68,1.68,0,0,0-.68-.34l-.32-.09a10.84,10.84,0,0,0-1.31-.24,1.27,1.27,0,0,1,.07.21Z"/><path class="cls-2" d="M334.45,361.61a.18.18,0,0,0-.07.05.18.18,0,0,1,.07-.05Z"/><path class="cls-2" d="M338.76,366.67a21.49,21.49,0,0,0,4.68-.31,12.24,12.24,0,0,0,1.38-.34L345,366l.15-.06h0c.61-.25.42-.59-.17-.83a14.26,14.26,0,0,0-3-.66l-.36-.05c-.44-.06-.89-.1-1.35-.14-.2.41-.45.86-.76,1.37A6.87,6.87,0,0,1,338.76,366.67Z"/><path class="cls-37" d="M340.64,361.16a2.89,2.89,0,0,0-2.37-1,6.34,6.34,0,0,0-2.59.57l0,0-.26.15-.11.08-.24.16-.13.1-.21.16-.17.15a.27.27,0,0,0-.08.07.18.18,0,0,0-.07.05l-.31.3.13.08a1.6,1.6,0,0,1,.47.5c1.31-1.18,2.88-1.85,4.66-1a12.61,12.61,0,0,1-3.1,3.73l.08.13a2.33,2.33,0,0,1,.33,1.33l.32-.19a13.39,13.39,0,0,0,2.48-2.37,15.78,15.78,0,0,1-2.11,3,14.36,14.36,0,0,1-1.25,1.07,7.1,7.1,0,0,1-.8.55c.16-.05.32-.1.49-.17a7.79,7.79,0,0,0,3-1.95,6.87,6.87,0,0,0,.8-1.08c.31-.51.56-1,.76-1.37s.23-.49.32-.71.2-.51.27-.73A2.22,2.22,0,0,0,340.64,361.16Z"/><path class="cls-38" d="M326.54,369.89a.52.52,0,0,0-.32-.07v0l0,.08v0s0,.05,0,.06a9.87,9.87,0,0,1-1.35,1.67c-.31.32-.62.63-.95.92v0a3.53,3.53,0,0,0-.15.46,20.06,20.06,0,0,0,2.62-2.64s.95.74,2.07,4.49a1.55,1.55,0,0,1,.07.23,3.5,3.5,0,0,0,.21-1c-.11-.39-.24-.77-.37-1.15a10.05,10.05,0,0,0-.75-1.83l-.17-.28-.05-.07a2.61,2.61,0,0,0-.17-.28h0l-.09-.13A2.1,2.1,0,0,0,326.54,369.89Z"/><path class="cls-38" d="M329.83,367.84c-.33-.16-.61-.36-.42-.67.44-.71,1.28-2,2.31-3.44a3.24,3.24,0,0,0-.6.27c-.19.26-.37.54-.55.81l-.15.21-.06.08-.11.15-.08.09-.11.15-.09.1a.76.76,0,0,1-.11.14l-.09.12-.12.14-.09.11-.12.14-.09.11-.12.14-.09.11-.11.12,0,0c-1,1.3-.88,1.42-.25,1.69h0l.18.08a21,21,0,0,0,2.3.75h0l.57,0h0a5.61,5.61,0,0,0,.58,0,4.93,4.93,0,0,0,.53-.22,16.85,16.85,0,0,1-2-.25,10,10,0,0,0,2.3.11,3.33,3.33,0,0,0,.47-.34A6.86,6.86,0,0,1,329.83,367.84Z"/><path class="cls-38" d="M328.21,370.11c0,.05.07.1.1.16l.15.22.24.41a19.43,19.43,0,0,1,1.17,2.38c.09.23.17.47.24.7a4.91,4.91,0,0,0,.51.39c-.05-.23,0-.31.2-.15s.44.36.69.54l.29.05a13.88,13.88,0,0,1-2.29-3.37c-.51-1-.87-1.36-.44-1.28a25.34,25.34,0,0,0,2.55.49c.64.08,1.37.14,2,.17a2.24,2.24,0,0,0-.14-.39,10.89,10.89,0,0,1-2.6-.38h-.06l-.08,0h-.14l-.11,0h0l-.14,0h0l-.17-.05h0l-.17-.05h0l-.4-.1h0l-.16-.05-.08,0-.15,0-.09,0-.14,0-.1,0-.14,0-.09,0-.15,0-.09,0-.13,0h0C328,369.55,328.08,369.83,328.21,370.11Z"/><path class="cls-38" d="M324.41,369.28a1.22,1.22,0,0,0-.53-.69l-.24-.1-.08,0-.21-.1-.11-.06-.24-.13a.2.2,0,0,0-.08,0l-.32-.2-.08-.06-.26-.18-.1-.07-.35-.26a6.29,6.29,0,0,0-.62-.17c2.26,2.31,3.32,1.38,1.38,4a6.49,6.49,0,0,1-1.39,1.38,3.5,3.5,0,0,0,.64-.15c.22-.07.44-.16.65-.25l.22-.18c.21-.18.41-.37.61-.57l.29-.35C323.94,370.57,324.55,369.92,324.41,369.28Z"/><path class="cls-38" d="M328.17,364.76c-1.34,2-2.17,2.16-3,1.89a7.42,7.42,0,0,1-3.1-2,3.86,3.86,0,0,0,.36,1,5.55,5.55,0,0,0,.63.45l.29.17.09.06.19.11.25.11c.34.16.67.32,1,.46a2.11,2.11,0,0,0,2.18-.39l0,0,.59-.49a1.74,1.74,0,0,1,.1-.19A3,3,0,0,0,328.17,364.76Z"/><path class="cls-39" d="M325.1,369.33h0a1,1,0,0,1,.27-.31.44.44,0,0,1,.47-.09l0,0,.11.08a.72.72,0,0,1,.23.79h0a.52.52,0,0,1,.32.07,2.1,2.1,0,0,1,.52.51h0a.71.71,0,0,0-.1-.14l0-.07-.2-.26h0l-.09-.12h0a.45.45,0,0,1,.42-.71.9.9,0,0,1,.51.23,5.53,5.53,0,0,1,.66.79h0c-.13-.28-.19-.56,0-.75h0l-.39-.11a.71.71,0,0,1-.43-.39.36.36,0,0,1,0-.11c0-.28.3-.46.72-.31a13.11,13.11,0,0,0,3.14.84,21,21,0,0,1-2.3-.75l-.18-.08h0c-.63-.27-.74-.39.25-1.69h0l-.9,1-.43.42a1.72,1.72,0,0,1-.78.29h-.22a.52.52,0,0,1-.16-.06.78.78,0,0,1-.21-.16.85.85,0,0,1-.2-.35c-.1-.42.29-.81.67-1.11l.06,0,0,0h0a2.43,2.43,0,0,1,.25-.2,2.11,2.11,0,0,1-2.18.39c-.35-.14-.68-.3-1-.46l-.25-.11h0l.11.06.08.05.52.29h0l.24.14.06,0,.26.16a4.86,4.86,0,0,1,.53.35h0l0,0c.2.16.65.59.41.95a1,1,0,0,1-.45.4h0l-.06,0h0l0,0a1.9,1.9,0,0,1-.87-.07l-.6-.23h0a1.22,1.22,0,0,1,.53.69c.14.64-.47,1.29-.82,1.76l-.29.35c.25-.24.49-.49.73-.74l.14-.16h0l.15-.16h0l.15-.17h0a6.86,6.86,0,0,0,.61-.81h0Z"/><path class="cls-40" d="M327.47,359.66a2.22,2.22,0,0,1,.69.34,5.36,5.36,0,0,0-1.05-1.24c0,.08.07.16.11.25l0,.08c0,.05,0,.11.07.17l0,.08.06.16,0,.09,0,.06Z"/><path class="cls-40" d="M323,353.81l-.06,0-.06,0h0l-.12-.05h0l-.08,0-.12,0h0l-.12,0h0c-1.87,0-3.56,2.4-2.63,6.4a11.16,11.16,0,0,0,.92,2.59,2.32,2.32,0,0,1,.27-1.76c-.11-.35-.21-.71-.3-1.09-.36-1.55-.29-4.26,1.36-5.15,1.91-1,4.06,1.69,5.11,3.07a13,13,0,0,0-4.06-3.83h0Z"/><path class="cls-41" d="M327.46,359.65s0,.07,0,.11l0,.06c0,.08.05.15.07.23v0l.06.18,0,.08s0,.09,0,.14l0,.08,0,.14,0,.07c0,.06,0,.11,0,.17v0a1.77,1.77,0,0,0,0,.2v.05l0,.14v.07a.69.69,0,0,0,0,.13v.06c0,.05,0,.09,0,.13v.06c0,.12,0,.24,0,.35v.23a.4.4,0,0,1,0,.11v.21s0,.11,0,.16h0s0,.09,0,.14v0s0,.07,0,.1v.05s0,.07,0,.1v0a.43.43,0,0,1,0,.11,1.35,1.35,0,0,1,.17.34,1.9,1.9,0,0,1,.11.94h0a3.65,3.65,0,0,0,.1-3.84.41.41,0,0,0,0-.09.25.25,0,0,0,0-.07l0,.07a.36.36,0,0,1,0,.09,7.19,7.19,0,0,1,.93,2.8,7.14,7.14,0,0,0-.08-1.53,8.13,8.13,0,0,0-1-2.18,2.22,2.22,0,0,0-.69-.34Z"/><path class="cls-41" d="M322.09,364.61a2.53,2.53,0,0,1,0-.87,2.28,2.28,0,0,1,.11-.45,10.25,10.25,0,0,1-1.18-2.45,2.32,2.32,0,0,0-.27,1.76A8.62,8.62,0,0,0,322.09,364.61Z"/><path class="cls-42" d="M325.19,366.65c.81.27,1.64.1,3-1.89a1.9,1.9,0,0,0-.11-.94,1.35,1.35,0,0,0-.17-.34h0l0,.14h0l0,.12v0a.29.29,0,0,1,0,.09v0a.42.42,0,0,1,0,.1v0l-.09.23v0l0,.08v0a.3.3,0,0,0,0,.08v0l-.05.09h0l-.11.19h0l0,.07,0,0,0,.07h0a.35.35,0,0,1-.05.08h0l-.13.15h0l-.05.06h0l-.05.05h0a.68.68,0,0,1-.12.12h0l-.05,0h0l-.05,0h0l-.05,0h0l-.11.09h0l-.05,0h0l0,0h0l-.13.09h0a1,1,0,0,1-.74.12h-.06a6.42,6.42,0,0,1-2.67-1.84c-.23-.29-.43-.58-.63-.86a2.28,2.28,0,0,0-.11.45,2.53,2.53,0,0,0,0,.87A7.42,7.42,0,0,0,325.19,366.65Z"/><path class="cls-43" d="M328.23,360.82l0-.07A.25.25,0,0,1,328.23,360.82Z"/><path class="cls-43" d="M320.53,354.07h0l-.12.1,0,0-.1.1,0,0-.1.09,0,.05-.08.1-.05.05-.07.09-.05.07-.07.09,0,.08a.22.22,0,0,0-.05.08l-.06.09,0,.07-.06.11,0,.06-.08.16a6.85,6.85,0,0,0-.31,3.62c0,.14.05.29.07.44l0,.12c0,.13.05.27.08.41v0a9.47,9.47,0,0,0,2.15,4.4h0l.22.23h0a7.91,7.91,0,0,1-.74-1.52,4.64,4.64,0,0,1-.19-.68,11.16,11.16,0,0,1-.92-2.59c-.93-4,.76-6.4,2.63-6.4h0l-.13,0h0l-.12,0h-.42l-.15,0-.09,0h0A2.6,2.6,0,0,0,320.53,354.07Z"/><path class="cls-42" d="M320.9,363.28a7.91,7.91,0,0,0,.74,1.52l.14.15c.22.21.44.42.67.62a3.86,3.86,0,0,1-.36-1,8.62,8.62,0,0,1-1.38-2A4.64,4.64,0,0,0,320.9,363.28Z"/><path class="cls-42" d="M328.18,364.75h0a3,3,0,0,1-.33,1.06,1.74,1.74,0,0,0-.1.19v0a8.83,8.83,0,0,0,1.39-1.6,5.23,5.23,0,0,0,.07-.68,7.19,7.19,0,0,0-.93-2.8A3.65,3.65,0,0,1,328.18,364.75Z"/><path class="cls-42" d="M328.28,360.91a.36.36,0,0,0,0-.09A.41.41,0,0,1,328.28,360.91Z"/><path class="cls-44" d="M330.11,374c-.07-.23-.15-.47-.24-.7a19.43,19.43,0,0,0-1.17-2.38l-.24-.41-.15-.22-.1-.16a5.53,5.53,0,0,0-.66-.79.9.9,0,0,0-.51-.23.45.45,0,0,0-.42.71h0l.09.12h0c.17-.31.55-.33,1.1.52a11.51,11.51,0,0,1,.92,1.74l.18.47a10.57,10.57,0,0,1-1.15,9.71c-1.28,2-2.53,3.12-3.4,3.32l-.2,0a2.45,2.45,0,0,0,2-.82,10.54,10.54,0,0,0,1-1.15c.49-.63,1-1.25,1.4-1.91a10,10,0,0,0,1.8-6.69,6.89,6.89,0,0,0-.21-1.1Z"/><path class="cls-45" d="M327.77,382.37a10.57,10.57,0,0,0,1.15-9.71l-.18-.47a11.51,11.51,0,0,0-.92-1.74c-.55-.85-.93-.83-1.1-.52h0l.2.26,0,.07a.71.71,0,0,1,.1.14l.09.13h0a2.61,2.61,0,0,1,.17.28l.05.07.17.28a10.05,10.05,0,0,1,.75,1.83c.13.38.26.76.37,1.15a7.3,7.3,0,0,1,.34,2.38l0,.29a14.29,14.29,0,0,1-2.85,6.93,5.54,5.54,0,0,1-1.6,1.67l-.09,0h0l-.07,0h0l-.09,0H324l-.09,0h-.09l-.05,0-.05,0-.09,0h0l-.06,0h0l-.11-.06-.05,0a.1.1,0,0,0,0,0h0a1.16,1.16,0,0,1-.21-.16h0L323,385h0l-.09-.08,0,0h0l-.16-.2h0a2.82,2.82,0,0,0,1.32,1.06l.18.05.2,0C325.24,385.49,326.49,384.38,327.77,382.37Z"/><path class="cls-46" d="M319.59,364.69a6.92,6.92,0,0,0,.62,1l.06.08c.16.19.33.39.52.59s.55.57.86.85l.16.14.35.26.1.07.26.18.08.06.32.2a.2.2,0,0,1,.08,0l.24.13.11.06.21.1.08,0,.24.1.6.23a1.9,1.9,0,0,0,.87.07l0,0h0l.06,0h0a1,1,0,0,0,.45-.4c.24-.36-.21-.79-.41-.95l0,0h0a4.86,4.86,0,0,0-.53-.35l-.26-.16-.06,0-.24-.14h0c.5.3,1.53,1,1.15,1.52-.14.19-.53.17-1.09,0a8.16,8.16,0,0,1-1.48-.84l-.36-.26a9.19,9.19,0,0,1-3.27-4.47c-.93-2.83-1-5.88.05-7.65a2.77,2.77,0,0,1,2.13-1.45h0l.09,0,.15,0h.42l.12,0h0l.13,0h0l.12,0h0l.12,0,.08,0h0l.12.05h0l.06,0a3.58,3.58,0,0,0-.64-.26l-.28-.07a2.73,2.73,0,0,0-1.44.14,3,3,0,0,0-1.06.68,5.48,5.48,0,0,0-1.44,3.34,13.55,13.55,0,0,0,.29,3.65,14.85,14.85,0,0,0,.44,1.55l.4,1.11A5.63,5.63,0,0,0,319.59,364.69Z"/><path class="cls-46" d="M325.37,369a.88.88,0,0,0,.51-.07l0,0A.44.44,0,0,0,325.37,369Z"/><path class="cls-45" d="M322.93,353.77h0l.06,0,.05,0h0l-.1,0-.06,0Z"/><path class="cls-45" d="M323.85,366.48l-.08-.05-.11-.06h0l-.19-.11-.09-.06-.29-.17a5.55,5.55,0,0,1-.63-.45c-.23-.2-.45-.41-.67-.62a1.85,1.85,0,0,0-.14-.14h0l-.22-.23h0a9.47,9.47,0,0,1-2.15-4.4h0v0c0-.14-.06-.28-.08-.41l0-.12c0-.15-.05-.3-.07-.44a6.85,6.85,0,0,1,.31-3.62l.08-.16,0-.06.06-.11,0-.07.06-.09a.22.22,0,0,1,.05-.08l0-.08.07-.09.05-.07.07-.09.05-.05.08-.1,0-.05.1-.09,0,0,.1-.1,0,0,.12-.1h0a2.6,2.6,0,0,1,1-.48h0a2.77,2.77,0,0,0-2.13,1.45c-1.07,1.77-1,4.82-.05,7.65a9.19,9.19,0,0,0,3.27,4.47l.36.26a8.16,8.16,0,0,0,1.48.84c.56.21.95.23,1.09,0,.38-.52-.65-1.22-1.15-1.52h0Z"/><path class="cls-45" d="M326.78,368.48h0Z"/><path class="cls-47" d="M326.78,368.48h.11a1.72,1.72,0,0,0,.78-.29l.43-.42.9-1,0,0,.11-.12.09-.11.12-.14.09-.11.12-.14.09-.11.12-.14.09-.12a.76.76,0,0,0,.11-.14l.09-.1.11-.15.08-.09.11-.15.06-.08.15-.21c.18-.27.36-.55.55-.81a15.17,15.17,0,0,1,1.84-2.31,8.62,8.62,0,0,1,2.3-1.64l.25-.12.08,0,.16-.07.1,0,.15-.05.1,0,.14,0,.1,0,.14,0,.1,0,.13,0,.11,0,.12,0h.11l.12,0h1.27l.1,0h.09l.1,0h.09l.1,0,.08,0,.1,0,.08,0,.1,0,.06,0,.11,0,.06,0,.1,0,.05,0,.1.05.05,0,.1.06,0,0,.1.06,0,0,.11.07,0,0,.1.07h0l.09.08h0l.09.08h0l.09.09h0l.08.09h0l.08.09h0l.07.1c-1.1-2.16-3.54-2.4-5.79-1.44a10.27,10.27,0,0,0-4,3.41l-.19.27-.16.23c-.52.73-.95,1.3-1.31,1.76a18.1,18.1,0,0,1-2.54,2.54,2.38,2.38,0,0,0-.23.27c-.24.32-.21.48-.1.55a.52.52,0,0,0,.16.06Z"/><path class="cls-44" d="M331.87,369.34h0l-.57,0h0a13.11,13.11,0,0,1-3.14-.84c-.42-.15-.74,0-.72.31.09-.07.26-.11.58,0a28,28,0,0,0,3.79,1.1h.61l.63,0c.93-.05,1.62-.12,2.25-.13a6.37,6.37,0,0,1,1.61.13,10.47,10.47,0,0,1,3.4,1.31c3.8,2.17,2.69,4.19,2.55,4.41a2.6,2.6,0,0,0-.18-2.92,7.48,7.48,0,0,0-3-2.3l-.35-.17a9.74,9.74,0,0,0-4-1h-.19c-.48,0-1,0-1.45,0a5.17,5.17,0,0,1-1.19.16A5.61,5.61,0,0,1,331.87,369.34Z"/><path class="cls-45" d="M340.25,371.12a10.47,10.47,0,0,0-3.4-1.31,6.37,6.37,0,0,0-1.61-.13c-.63,0-1.32.08-2.25.13l-.63,0h-.61a28,28,0,0,1-3.79-1.1c-.32-.09-.49-.05-.58,0a.36.36,0,0,0,0,.11.71.71,0,0,0,.43.39l.39.11h0l.13,0,.09,0,.15,0,.09,0,.14,0,.1,0,.14,0,.09,0,.15,0,.08,0,.16.05h0l.4.1h0l.17.05h0l.17.05h0l.14,0h0l.11,0h.14l.08,0h.06a10.89,10.89,0,0,0,2.6.38H334c.64,0,1.27-.09,1.91-.05H336a9.35,9.35,0,0,1,1.73.3,11.85,11.85,0,0,1,3.36,1.52,3.68,3.68,0,0,1,1.53,1.52,3.07,3.07,0,0,1,.3,1.13V375a.17.17,0,0,1,0,.07v0a.13.13,0,0,0,0,.06v0s0,0,0,.06v0s0,0,0,.06v0l-.08.21h0a.25.25,0,0,0,0,.07l-.05.09h0c.06-.06.11-.13.16-.19h0v0C342.94,375.31,344.05,373.29,340.25,371.12Z"/><path class="cls-45" d="M309.14,371.05s1.14,3.93,6.92,4.12a9.64,9.64,0,0,0,4.45-.88,11.86,11.86,0,0,0,2.54-1.6,16.63,16.63,0,0,0,1.69-1.51,6.07,6.07,0,0,0,1-1.23,1,1,0,0,1,0-.1.64.64,0,0,0,0-.41.39.39,0,0,0-.67-.1h0a6.86,6.86,0,0,1-.61.81h0l-.15.17h0l-.15.16h0l-.14.16c-.24.25-.48.5-.73.74s-.4.39-.61.57l-.22.18a10.53,10.53,0,0,1-3.06,1.81l-.33.11a9.28,9.28,0,0,1-3.56.33,10.71,10.71,0,0,1-4.12-1,4.18,4.18,0,0,1-1.94-1.91,3.41,3.41,0,0,1-.24-.92.28.28,0,0,1,0-.09v-.28h0v-.2h0v-.05h0v-.08h0A2.58,2.58,0,0,0,309.14,371.05Z"/><path class="cls-44" d="M322.48,373.71l.47-.35a11.21,11.21,0,0,0,.91-.77c.33-.29.64-.6.95-.92a9.87,9.87,0,0,0,1.35-1.67s0,0,0-.06v0l0-.08v0A.72.72,0,0,0,326,369l-.11-.08a.88.88,0,0,1-.51.07,1,1,0,0,0-.27.31h0a.39.39,0,0,1,.67.1.64.64,0,0,1,0,.41,1,1,0,0,0,0,.1,6.07,6.07,0,0,1-1,1.23,16.63,16.63,0,0,1-1.69,1.51,11.86,11.86,0,0,1-2.54,1.6,9.64,9.64,0,0,1-4.45.88c-5.78-.19-6.92-4.12-6.92-4.12a4.16,4.16,0,0,0,1.12,2.18,7.91,7.91,0,0,0,4.18,2,10.34,10.34,0,0,0,4.53.07,9.3,9.3,0,0,0,2.17-.81l.32-.17A10.87,10.87,0,0,0,322.48,373.71Z"/><path class="cls-37" d="M323.25,384.63c1,.36,1.71-.87,2.15-1.57a13.64,13.64,0,0,0,1.77-4.88c-.19,0-.38,0-.57,0a1.31,1.31,0,0,0-.77.4l-.3.25c0,.15-.07.29-.1.43a12.65,12.65,0,0,1-1.08,2.92c-.21.38-.71,1.51-1.14,1.65-.62.19-1.46-1.61-1.64-2.07a8.81,8.81,0,0,1-.65-3,3.83,3.83,0,0,1,.95-1.93,4.77,4.77,0,0,1,0-1.31,4.54,4.54,0,0,0-1.11,1.41,5.38,5.38,0,0,0-.46,1.53,9.91,9.91,0,0,0,1.09,4.23,11.53,11.53,0,0,0,.68,1A2.57,2.57,0,0,0,323.25,384.63Z"/><path class="cls-48" d="M323.77,375.16a3.91,3.91,0,0,1-.19-1l-.65.53c-.35.28-.7.55-1,.85a4.77,4.77,0,0,0,0,1.31A12.69,12.69,0,0,1,323.77,375.16Z"/><path class="cls-48" d="M327.37,376.08l-.59.25a5.07,5.07,0,0,1-.94.34,10.33,10.33,0,0,1-.31,2.15l.3-.25a1.31,1.31,0,0,1,.77-.4c.19,0,.38,0,.57,0,.05-.31.1-.62.14-.93A5.81,5.81,0,0,0,327.37,376.08Z"/><path class="cls-41" d="M325.36,372.84c-.41.06-.8.51-1.11.76l-.67.54a3.91,3.91,0,0,0,.19,1c.33-.24.65-.49.94-.74s.44-.16.67.28a3.82,3.82,0,0,1,.41,1.22,4.73,4.73,0,0,1,0,.75,5.07,5.07,0,0,0,.94-.34l.59-.25a4.71,4.71,0,0,0-.33-1.6C326.78,373.85,326.2,372.7,325.36,372.84Z"/><path class="cls-37" d="M309.93,371a4.43,4.43,0,0,0,2.69,1.7,11.85,11.85,0,0,0,5,0c-.26-.33-.53-.67-.82-1A11.89,11.89,0,0,1,315,372a8.63,8.63,0,0,1-2.9-.36,3.17,3.17,0,0,1-1.41-.86c-.33-.38-.5-.66-.28-1.09a6.27,6.27,0,0,1,2.42-2.15,5.66,5.66,0,0,1,2.58-.61,6.79,6.79,0,0,1,.78,0,3.39,3.39,0,0,1,2.65-1.08,7.77,7.77,0,0,0-3.71-.49,6.6,6.6,0,0,0-2.49.78,8.43,8.43,0,0,0-3.16,3.15A2.46,2.46,0,0,0,309.93,371Z"/><path class="cls-48" d="M318.39,367.71a1.61,1.61,0,0,1,.32-.32,2.63,2.63,0,0,1,1.82-.32,5.31,5.31,0,0,0-1.74-1.16,3.39,3.39,0,0,0-2.65,1.08,5.23,5.23,0,0,1,2.25.72Z"/><path class="cls-48" d="M319.54,372.23a1.93,1.93,0,0,1-.78-1c-.26.11-.5.19-.65.24a11,11,0,0,1-1.28.34c.29.3.56.64.82,1l.8-.19A9.93,9.93,0,0,0,319.54,372.23Z"/><path class="cls-41" d="M322.17,369.11a2.4,2.4,0,0,0-.75-1.06,10.1,10.1,0,0,1-.76-.84h0l-.13-.14a2.63,2.63,0,0,0-1.82.32,1.61,1.61,0,0,0-.32.32,6,6,0,0,1,1.23,1.17,4,4,0,0,1,.77.83c.14.65-.86,1.2-1.63,1.52a1.93,1.93,0,0,0,.78,1,6,6,0,0,0,1.69-1A2.22,2.22,0,0,0,322.17,369.11Z"/><path class="cls-37" d="M322,354.6c-1.65.89-1.72,3.6-1.36,5.15.09.38.19.74.3,1.09l.15-.22q.15-.18.33-.36c0-.18-.09-.35-.13-.53-.26-1.09-.27-4.76,1.74-3.79,1.45.71,1.86,2,2.44,3.39.06.14.12.28.17.42a2.6,2.6,0,0,0,.39-.05,2.63,2.63,0,0,1,1.39-.05l0-.06,0-.09-.06-.16,0-.08c0-.06-.05-.12-.07-.17l0-.08c0-.09-.07-.17-.11-.25a5.36,5.36,0,0,1,1.05,1.24,8.13,8.13,0,0,1,1,2.18,8.87,8.87,0,0,0-.45-1.66.14.14,0,0,0,0-.06,12.31,12.31,0,0,0-1.51-2.79C326.1,356.29,324,353.57,322,354.6Z"/><path class="cls-48" d="M326.33,362.22c0,.17,0,.35,0,.52h.24a1.57,1.57,0,0,1,1.3.75.43.43,0,0,0,0-.11v0s0-.07,0-.1v-.05s0-.07,0-.1v0c0-.05,0-.1,0-.14h0c0-.05,0-.11,0-.16v-.21a.4.4,0,0,0,0-.11v-.23c0-.11,0-.23,0-.35v-.06s0-.08,0-.13v-.06a.69.69,0,0,1,0-.13v-.07l0-.14v-.05a1.77,1.77,0,0,1,0-.2v0c0-.06,0-.11,0-.17l0-.07,0-.14,0-.08c0-.05,0-.1,0-.14l0-.08-.06-.18v0c0-.08,0-.15-.07-.23l0-.06s0-.07,0-.11a2.63,2.63,0,0,0-1.39.05,2.6,2.6,0,0,1-.39.05A8.43,8.43,0,0,1,326.33,362.22Z"/><path class="cls-48" d="M322.16,363.29a2.18,2.18,0,0,1,.36-.61,9.47,9.47,0,0,1-1.06-2.42q-.18.18-.33.36l-.15.22A10.25,10.25,0,0,0,322.16,363.29Z"/><path class="cls-41" d="M325.46,366h.06a1,1,0,0,0,.74-.12h0l.13-.09h0l0,0h0l.05,0h0l.11-.09h0l.05,0h0l.05,0h0l.05,0h0a.68.68,0,0,0,.12-.12h0l.05-.05h0l.05-.06h0l.13-.15h0a.35.35,0,0,0,.05-.08h0l0-.07,0,0,0-.07h0l.11-.19h0l.05-.09v0a.3.3,0,0,1,0-.08v0l0-.08v0l.09-.23v0a.42.42,0,0,0,0-.1v0a.29.29,0,0,0,0-.09v0l0-.12h0l0-.14h0a1.57,1.57,0,0,0-1.3-.75h-.24a3.73,3.73,0,0,1-.12.94c-.12.4-.44,1.19-.89,1.33-.84.26-2.13-1.31-2.56-1.93l-.26-.4a2.18,2.18,0,0,0-.36.61c.2.28.4.57.63.86A6.42,6.42,0,0,0,325.46,366Z"/><path class="cls-37" d="M342.22,375a3.18,3.18,0,0,0-1.65-2.12,10.32,10.32,0,0,0-4-1.25c0,.1.07.2.1.29a1.79,1.79,0,0,1,0,1,11.77,11.77,0,0,1,1.39.36,4.66,4.66,0,0,1,2.39,1.47c.13.2.42.7.22.94s-.53.19-.68.24a6.1,6.1,0,0,1-4.09.47,9.24,9.24,0,0,1-1-.35,2.14,2.14,0,0,1-.7.28l.35.17c2.08.92,3.3,1.14,5.13.49,0,0-2.46,1.79-6.31-.33a6.46,6.46,0,0,1-.71-.44,3.74,3.74,0,0,1-1.05-.58,7.59,7.59,0,0,0,1.29,1.24c.28.22.58.42.88.62a7,7,0,0,0,7.2-.33A2.59,2.59,0,0,0,342.22,375Z"/><path class="cls-48" d="M331.71,375.62a3.74,3.74,0,0,0,1.05.58,13,13,0,0,1-1.56-1.31A5.3,5.3,0,0,0,331.71,375.62Z"/><path class="cls-48" d="M332.83,374.61l-.21.09a1.57,1.57,0,0,1-.29.08,11.08,11.08,0,0,0,2,1.53,2.14,2.14,0,0,0,.7-.28,8,8,0,0,1-2.07-1.33Z"/><path class="cls-48" d="M333.7,371.48a1.5,1.5,0,0,1,0,.22,8,8,0,0,1-.22.84s0,0,0,.06a16.38,16.38,0,0,1,3.29.3,1.79,1.79,0,0,0,0-1c0-.09-.06-.19-.1-.29-.46-.06-.92-.09-1.38-.11S334.21,371.47,333.7,371.48Z"/><path class="cls-41" d="M330.66,372.33c-.08.86.83,1.7,1.42,2.22l.25.23a1.57,1.57,0,0,0,.29-.08l.21-.09c-.57-.48-1.49-1.13-1.69-1.84a19,19,0,0,1,2.31-.17s0,0,0-.06a8,8,0,0,0,.22-.84,1.5,1.5,0,0,0,0-.22l-1.25.06C331.8,371.57,330.73,371.45,330.66,372.33Z"/><path class="cls-40" d="M321.91,375.52c0-.13,0-.26.07-.38a8.16,8.16,0,0,1,.26-.84l-.21.17a6.39,6.39,0,0,0-1.46,1.64,9.11,9.11,0,0,0-.23,2.35,5.38,5.38,0,0,1,.46-1.53A4.54,4.54,0,0,1,321.91,375.52Z"/><path class="cls-40" d="M322.68,384.62l.16.2h0l0,0,.09.08h0l.08.08h0a1.16,1.16,0,0,0,.21.16h0a1.15,1.15,0,0,0,1.22-.07,14.67,14.67,0,0,0,4-7.53l0,0a1.83,1.83,0,0,1-1,.52,1.46,1.46,0,0,1-.29,0,13.64,13.64,0,0,1-1.77,4.88c-.44.7-1.16,1.93-2.15,1.57a2.57,2.57,0,0,1-1.14-.95,11.53,11.53,0,0,1-.68-1l.21.41c.15.26.68,1,.78,1.17l.25.34h0Z"/><path class="cls-41" d="M323.58,374.14a3.75,3.75,0,0,1,.12-1.06c-.43.37-.91.78-1.46,1.22a8.16,8.16,0,0,0-.26.84c0,.12-.05.25-.07.38.32-.3.67-.57,1-.85Z"/><path class="cls-41" d="M328.46,375.16a.83.83,0,0,1-.07.13,1.91,1.91,0,0,1-1,.79,5.81,5.81,0,0,1-.06,1.17c0,.31-.09.62-.14.93a1.46,1.46,0,0,0,.29,0,1.83,1.83,0,0,0,1-.52l0,0A6.23,6.23,0,0,0,328.46,375.16Z"/><path class="cls-42" d="M324.25,373.6c.31-.25.7-.7,1.11-.76.84-.14,1.42,1,1.68,1.64a4.71,4.71,0,0,1,.33,1.6,1.91,1.91,0,0,0,1-.79.83.83,0,0,0,.07-.13,1.55,1.55,0,0,0-.07-.23c-1.12-3.75-2.07-4.49-2.07-4.49a20.06,20.06,0,0,1-2.62,2.64,3.75,3.75,0,0,0-.12,1.06Z"/><path class="cls-43" d="M322,374.47l.21-.17c.07-.2.15-.39.24-.59a10.87,10.87,0,0,1-1,.64l-.32.17a8.59,8.59,0,0,0-.57,1.59A6.39,6.39,0,0,1,322,374.47Z"/><path class="cls-43" d="M324.51,385.13a1.15,1.15,0,0,1-1.22.07h0a.1.1,0,0,1,0,0l.05,0,.11.06h0l.06,0h0l.09,0,.05,0,.05,0h.09l.09,0h.24l.09,0h0l.07,0h0l.09,0a5.54,5.54,0,0,0,1.6-1.67,14.29,14.29,0,0,0,2.85-6.93,2.3,2.3,0,0,1-.48.79A14.67,14.67,0,0,1,324.51,385.13Z"/><path class="cls-42" d="M328.5,377.6a2.3,2.3,0,0,0,.48-.79l0-.29a7.3,7.3,0,0,0-.34-2.38,3.5,3.5,0,0,1-.21,1A6.23,6.23,0,0,1,328.5,377.6Z"/><path class="cls-42" d="M323.85,372.62v0a11.21,11.21,0,0,1-.91.77l-.47.35c-.09.2-.17.39-.24.59.55-.44,1-.85,1.46-1.22A3.53,3.53,0,0,1,323.85,372.62Z"/><polygon class="cls-42" points="326.72 369.93 326.72 369.93 326.72 369.93 326.72 369.93 326.72 369.93"/><path class="cls-40" d="M331.71,375.62a7.15,7.15,0,0,1-1-.91,9.25,9.25,0,0,0,.51,1.13,13.73,13.73,0,0,0,2.66,1.64c-.3-.2-.6-.4-.88-.62A7.59,7.59,0,0,1,331.71,375.62Z"/><path class="cls-40" d="M342.06,373.54c-1.24-1.88-4.09-2.62-5.81-2.72a6.2,6.2,0,0,1,.36.79,10.32,10.32,0,0,1,4,1.25,3.18,3.18,0,0,1,1.65,2.12,2.59,2.59,0,0,1-1.14,2.17,7.14,7.14,0,0,0,1.38-1.19A2.54,2.54,0,0,0,342.06,373.54Z"/><path class="cls-40" d="M333.42,376.35a2.88,2.88,0,0,1-.66-.15,6.46,6.46,0,0,0,.71.44c3.85,2.12,6.31.33,6.31.33-1.83.65-3,.43-5.13-.49l-.35-.17A2.61,2.61,0,0,1,333.42,376.35Z"/><path class="cls-41" d="M331.8,374.81a5.58,5.58,0,0,0,.92.75s-.62-.38-1.21-.8a2.81,2.81,0,0,1-.89-.39,1.44,1.44,0,0,0,.09.34,7.15,7.15,0,0,0,1,.91,5.3,5.3,0,0,1-.51-.73,13,13,0,0,0,1.56,1.31,2.88,2.88,0,0,0,.66.15,2.61,2.61,0,0,0,.88,0,11.08,11.08,0,0,1-2-1.53A2.39,2.39,0,0,1,331.8,374.81Z"/><path class="cls-41" d="M335.45,370.82a17.67,17.67,0,0,1-1.8,0,2.08,2.08,0,0,1,.05.66c.51,0,1,0,1.53,0s.92.05,1.38.11a6.2,6.2,0,0,0-.36-.79A5.3,5.3,0,0,0,335.45,370.82Z"/><path class="cls-42" d="M330.82,374.22c-.19-.16-.25-.08-.2.15a2.81,2.81,0,0,0,.89.39C331.26,374.58,331,374.39,330.82,374.22Z"/><path class="cls-42" d="M332.33,374.78l-.25-.23c-.59-.52-1.5-1.36-1.42-2.22s1.14-.76,1.79-.79l1.25-.06a2.08,2.08,0,0,0-.05-.66c-.66,0-1.39-.09-2-.17a25.34,25.34,0,0,1-2.55-.49c-.43-.08-.07.31.44,1.28a13.88,13.88,0,0,0,2.29,3.37A2.39,2.39,0,0,0,332.33,374.78Z"/><path class="cls-43" d="M330.13,374.05a6.89,6.89,0,0,1,.21,1.1l.09,0c.27.23.53.45.79.65a9.25,9.25,0,0,1-.51-1.13C330.51,374.49,330.31,374.27,330.13,374.05Z"/><path class="cls-43" d="M342.69,375.66a.25.25,0,0,1,0-.07h0l.08-.21v0s0,0,0-.06v0s0,0,0-.06v0a.13.13,0,0,1,0-.06v0a.17.17,0,0,0,0-.07v-.15a3.07,3.07,0,0,0-.3-1.13,3.68,3.68,0,0,0-1.53-1.52,11.85,11.85,0,0,0-3.36-1.52,9.35,9.35,0,0,0-1.73-.3c.1.14.19.29.28.44,1.72.1,4.57.84,5.81,2.72a2.54,2.54,0,0,1,.4,2.42,1.61,1.61,0,0,0,.17-.21h0Z"/><path class="cls-42" d="M330.11,374l0,.07c.18.22.38.44.58.66a1.44,1.44,0,0,1-.09-.34A4.91,4.91,0,0,1,330.11,374Z"/><path class="cls-42" d="M335.45,370.82a5.3,5.3,0,0,1,.8,0c-.09-.15-.18-.3-.28-.44h-.08c-.64,0-1.27,0-1.91.05h-.47a2.24,2.24,0,0,1,.14.39A17.67,17.67,0,0,0,335.45,370.82Z"/><path class="cls-42" d="M331.8,374.81l-.29-.05c.59.42,1.21.8,1.21.8A5.58,5.58,0,0,1,331.8,374.81Z"/><path class="cls-40" d="M341,361h0a3.33,3.33,0,0,0-2.26-1.2h0c-2-.42-3.84.65-5.23,2a1.9,1.9,0,0,1,.62.24l.31-.3a.18.18,0,0,1,.07-.05.27.27,0,0,1,.08-.07l.17-.15.21-.16.13-.1.24-.16.11-.08.26-.15,0,0a6.34,6.34,0,0,1,2.59-.57,2.89,2.89,0,0,1,2.37,1,2.22,2.22,0,0,1,.27,1.62,3.89,3.89,0,0,0,.2-1.2,2.13,2.13,0,0,0,0-.27h0a1.27,1.27,0,0,0-.07-.21.34.34,0,0,0-.06-.1h0Z"/><path class="cls-41" d="M336.61,367l-.1.07.1-.07,0-.25a9.66,9.66,0,0,1-2.21.93l0,.09a3,3,0,0,1-.26.42,2.24,2.24,0,0,1-.42.45,5.29,5.29,0,0,0,2.41-1,4.68,4.68,0,0,1-2.37,1.24l-.51.08-.26.14.8,0a9.73,9.73,0,0,0,1.5-.36,7.1,7.1,0,0,0,.8-.55A2.87,2.87,0,0,0,336.61,367Z"/><path class="cls-41" d="M332.07,363.27l-.35.46h.07a2.28,2.28,0,0,1,.86-.07c.27-.37.55-.74.86-1.1.18-.2.36-.4.56-.59a1.9,1.9,0,0,0-.62-.24A11.93,11.93,0,0,0,332.07,363.27Z"/><path class="cls-42" d="M330.94,368.88a16.85,16.85,0,0,0,2,.25l.26-.14A10,10,0,0,1,330.94,368.88Z"/><path class="cls-43" d="M340.8,360.72l-.08-.09h0l-.08-.09h0l-.09-.09h0l-.09-.08h0l-.09-.08h0l-.1-.07,0,0-.11-.07,0,0L340,360l0,0-.1-.06-.05,0-.1-.05-.05,0-.1,0-.06,0-.11,0-.06,0-.1,0-.08,0-.1,0-.08,0-.1,0h-.09l-.1,0h-.09l-.1,0h-1.27l-.12,0h-.11l-.12,0-.11,0-.13,0-.1,0-.14,0-.1,0-.14,0-.1,0-.15.05-.1,0-.16.07-.08,0-.25.12a8.62,8.62,0,0,0-2.3,1.64,2,2,0,0,1,.49,0c1.39-1.3,3.27-2.37,5.23-2h0A3.33,3.33,0,0,1,341,361v0l0,0v0h0l-.05-.07-.07-.1Z"/><polygon class="cls-43" points="340.96 360.99 340.96 360.98 340.95 360.97 340.95 360.98 340.96 360.99"/><path class="cls-42" d="M331.12,364a3.24,3.24,0,0,1,.6-.27l.35-.46a11.93,11.93,0,0,1,1.38-1.55,2,2,0,0,0-.49,0A15.17,15.17,0,0,0,331.12,364Z"/><path class="cls-42" d="M333.75,368.91a4.68,4.68,0,0,0,2.37-1.24,5.29,5.29,0,0,1-2.41,1,3.33,3.33,0,0,1-.47.34Z"/><path class="cls-42" d="M332.45,369.35a5.17,5.17,0,0,0,1.19-.16l.14,0-.8,0A4.93,4.93,0,0,1,332.45,369.35Z"/><path class="cls-48" d="M332.65,363.65a2,2,0,0,1,.76.24,11.51,11.51,0,0,1,1.26-1.35,1.6,1.6,0,0,0-.47-.5l-.13-.08c-.2.19-.38.39-.56.59C333.2,362.91,332.92,363.28,332.65,363.65Z"/><path class="cls-48" d="M334.43,366.41a1.27,1.27,0,0,1,.13.48,1.82,1.82,0,0,1-.13.8,9.66,9.66,0,0,0,2.21-.93,2.33,2.33,0,0,0-.33-1.33l-.08-.13A8.82,8.82,0,0,1,334.43,366.41Z"/><path class="cls-41" d="M334.56,366.89a1.27,1.27,0,0,0-.13-.48,6.26,6.26,0,0,1-3,.59,6.82,6.82,0,0,1,.48-.93,23.29,23.29,0,0,1,1.53-2.18,2,2,0,0,0-.76-.24c-.39.55-.75,1.12-1.11,1.69l-.24.43-.1.2v0a.31.31,0,0,0-.05.1h0a3.41,3.41,0,0,0-.24.6c0,.35.06.94,1.3,1.18a5.1,5.1,0,0,0,2.23-.18A1.82,1.82,0,0,0,334.56,366.89Z"/><path class="cls-49" d="M323.6,379.22a2.27,2.27,0,0,1-.55-.25,2.49,2.49,0,0,1-1-1.39,3.7,3.7,0,0,1-.16-.75,3.83,3.83,0,0,0-.95,1.93,8.81,8.81,0,0,0,.65,3c.18.46,1,2.26,1.64,2.07.43-.14.93-1.27,1.14-1.65a12.65,12.65,0,0,0,1.08-2.92c0-.14.06-.28.1-.43a3.74,3.74,0,0,1-.49.32A1.85,1.85,0,0,1,323.6,379.22Z"/><path class="cls-50" d="M325.15,376.65a2,2,0,0,1-1.13-.95,3.32,3.32,0,0,1-.25-.54,12.69,12.69,0,0,0-1.9,1.67,3.7,3.7,0,0,0,.16.75,2.49,2.49,0,0,0,1,1.39,2.27,2.27,0,0,0,.55.25,1.85,1.85,0,0,0,1.44-.08,3.74,3.74,0,0,0,.49-.32,10.33,10.33,0,0,0,.31-2.15A1.35,1.35,0,0,1,325.15,376.65Z"/><path class="cls-48" d="M325.38,374.7c-.23-.44-.28-.62-.67-.28s-.61.5-.94.74a3.32,3.32,0,0,0,.25.54,2,2,0,0,0,1.13.95,1.35,1.35,0,0,0,.69,0,4.73,4.73,0,0,0,0-.75A3.82,3.82,0,0,0,325.38,374.7Z"/><path class="cls-49" d="M315.63,370.26a2.84,2.84,0,0,1-.15-.44,3.11,3.11,0,0,1,.08-1.86,1.34,1.34,0,0,0,.07-.18,3.35,3.35,0,0,1,.51-.79,6.79,6.79,0,0,0-.78,0,5.66,5.66,0,0,0-2.58.61,6.27,6.27,0,0,0-2.42,2.15c-.22.43-.05.71.28,1.09a3.17,3.17,0,0,0,1.41.86,8.63,8.63,0,0,0,2.9.36,11.89,11.89,0,0,0,1.88-.21l-.16-.17A4.3,4.3,0,0,1,315.63,370.26Z"/><path class="cls-50" d="M318.76,371.23l-.06-.28c0-.32,0-.65,0-1a2.61,2.61,0,0,0-.26-.85,1.45,1.45,0,0,1,0-1.41h0a5.23,5.23,0,0,0-2.25-.72,3.35,3.35,0,0,0-.51.79,1.34,1.34,0,0,1-.07.18,3.11,3.11,0,0,0-.08,1.86,2.84,2.84,0,0,0,.15.44,4.3,4.3,0,0,0,1,1.38l.16.17a11,11,0,0,0,1.28-.34C318.26,371.42,318.5,371.34,318.76,371.23Z"/><path class="cls-48" d="M320.39,369.71a4,4,0,0,0-.77-.83,6,6,0,0,0-1.23-1.17,1.45,1.45,0,0,0,0,1.41,2.61,2.61,0,0,1,.26.85c0,.33,0,.66,0,1l.06.28C319.53,370.91,320.53,370.36,320.39,369.71Z"/><path class="cls-49" d="M322,359.79a2.57,2.57,0,0,1,1.55-.46l.16,0c.38.06.75.21,1.13.3a2.81,2.81,0,0,0,.81.1c-.05-.14-.11-.28-.17-.42-.58-1.38-1-2.68-2.44-3.39-2-1-2,2.7-1.74,3.79,0,.18.08.35.13.53A4.32,4.32,0,0,1,322,359.79Z"/><path class="cls-50" d="M323.18,362.18h0a2,2,0,0,1,1.32,0,2.21,2.21,0,0,1,.5.21c.24.13.49.39.78.41a2.54,2.54,0,0,0,.55,0c0-.17,0-.35,0-.52a8.43,8.43,0,0,0-.65-2.47,2.81,2.81,0,0,1-.81-.1c-.38-.09-.75-.24-1.13-.3l-.16,0a2.57,2.57,0,0,0-1.55.46,4.32,4.32,0,0,0-.57.47,9.47,9.47,0,0,0,1.06,2.42A1.64,1.64,0,0,1,323.18,362.18Z"/><path class="cls-48" d="M325.34,365c.45-.14.77-.93.89-1.33a3.73,3.73,0,0,0,.12-.94,2.54,2.54,0,0,1-.55,0c-.29,0-.54-.28-.78-.41a2.21,2.21,0,0,0-.5-.21,2,2,0,0,0-1.32,0h0a1.64,1.64,0,0,0-.66.5l.26.4C323.21,363.7,324.5,365.27,325.34,365Z"/><path class="cls-49" d="M336.27,373.9l0,0a8,8,0,0,1-.6,1.45,2.16,2.16,0,0,1-.37.44,1.46,1.46,0,0,1-.28.21,9.24,9.24,0,0,0,1,.35,6.1,6.1,0,0,0,4.09-.47c.15-.05.58-.12.68-.24s-.09-.74-.22-.94a4.66,4.66,0,0,0-2.39-1.47,11.77,11.77,0,0,0-1.39-.36s0,.09-.05.13C336.58,373.33,336.39,373.6,336.27,373.9Z"/><path class="cls-50" d="M333.62,373.26a1.12,1.12,0,0,1,0,.41,1.11,1.11,0,0,1-.19.43,1.45,1.45,0,0,1-.56.51l.1.09A8,8,0,0,0,335,376a1.46,1.46,0,0,0,.28-.21,2.16,2.16,0,0,0,.37-.44,8,8,0,0,0,.6-1.45l0,0c.12-.3.31-.57.42-.87,0,0,0-.09.05-.13a16.38,16.38,0,0,0-3.29-.3C333.44,372.82,333.59,373,333.62,373.26Z"/><path class="cls-48" d="M332.83,374.61a1.45,1.45,0,0,0,.56-.51,1.11,1.11,0,0,0,.19-.43,1.12,1.12,0,0,0,0-.41c0-.23-.18-.44-.17-.66a19,19,0,0,0-2.31.17C331.34,373.48,332.26,374.13,332.83,374.61Z"/><path class="cls-49" d="M334.86,363.07a2.89,2.89,0,0,0,.11.94,1.07,1.07,0,0,0,.25.31c.13.13.27.24.4.35a3.64,3.64,0,0,1,.61.63,12.61,12.61,0,0,0,3.1-3.73c-1.78-.88-3.35-.21-4.66,1a1.71,1.71,0,0,1,.17.39A.59.59,0,0,1,334.86,363.07Z"/><path class="cls-50" d="M333.41,363.89a1.77,1.77,0,0,1,.35.26l.06.06a1.36,1.36,0,0,1,.4.8.67.67,0,0,1,0,.2,1.36,1.36,0,0,0,0,.72c.08.17.16.32.23.48a8.82,8.82,0,0,0,1.8-1.11,3.64,3.64,0,0,0-.61-.63c-.13-.11-.27-.22-.4-.35A1.07,1.07,0,0,1,335,364a2.89,2.89,0,0,1-.11-.94.59.59,0,0,0,0-.14,1.71,1.71,0,0,0-.17-.39A11.51,11.51,0,0,0,333.41,363.89Z"/><path class="cls-48" d="M331.4,367a6.26,6.26,0,0,0,3-.59c-.07-.16-.15-.31-.23-.48a1.36,1.36,0,0,1,0-.72.67.67,0,0,0,0-.2,1.36,1.36,0,0,0-.4-.8l-.06-.06a1.77,1.77,0,0,0-.35-.26,23.29,23.29,0,0,0-1.53,2.18A6.82,6.82,0,0,0,331.4,367Z"/><path class="cls-40" d="M336.61,367a2.87,2.87,0,0,1-.53,1.23,14.36,14.36,0,0,0,1.25-1.07,15.78,15.78,0,0,0,2.11-3,13.39,13.39,0,0,1-2.48,2.37l-.32.19,0,.25Z"/><path class="cls-42" d="M332.2,367.87c-1.24-.24-1.35-.83-1.3-1.18a3.41,3.41,0,0,1,.24-.6h0a.31.31,0,0,1,.05-.1v0l.1-.2.24-.43c.36-.57.72-1.14,1.11-1.69a2.28,2.28,0,0,0-.86.07h-.07c-1,1.42-1.87,2.73-2.31,3.44-.19.31.09.51.42.67a6.86,6.86,0,0,0,3.88.81,2.24,2.24,0,0,0,.42-.45,3,3,0,0,0,.26-.42l0-.09A5.1,5.1,0,0,1,332.2,367.87Z"/><path class="cls-40" d="M315.08,365.42a7.77,7.77,0,0,1,3.71.49l.39,0a7.87,7.87,0,0,1,1.07.24,5.52,5.52,0,0,0-3.11-1.61,9.19,9.19,0,0,0-1.13.19h0a11.44,11.44,0,0,0-2.15.75,12.94,12.94,0,0,0-1.27.68A6.6,6.6,0,0,1,315.08,365.42Z"/><path class="cls-40" d="M309.25,369.78h0v.08h0c0,.47,0,2.57,3.51,3.6a11,11,0,0,0,5.84.26,6.58,6.58,0,0,1-.94-1,11.85,11.85,0,0,1-5,0,4.43,4.43,0,0,1-2.69-1.7,2.46,2.46,0,0,1-.5-1.68,4.07,4.07,0,0,0-.18.44Z"/><path class="cls-41" d="M320.59,367.08c.2,0,.4.06.6.1-.15-.14-.29-.3-.45-.47s-.33-.36-.49-.52a7.87,7.87,0,0,0-1.07-.24l-.39,0a5.31,5.31,0,0,1,1.74,1.16Z"/><path class="cls-41" d="M319.88,372.4a1.54,1.54,0,0,1-.34-.17,9.93,9.93,0,0,1-1.09.36l-.8.19a6.58,6.58,0,0,0,.94,1,7.4,7.4,0,0,0,2.59-1.2A2.42,2.42,0,0,1,319.88,372.4Z"/><path class="cls-42" d="M320.53,367.07l.13.14h0a10.1,10.1,0,0,0,.76.84,2.4,2.4,0,0,1,.75,1.06,2.22,2.22,0,0,1-.94,2.15,6,6,0,0,1-1.69,1,1.54,1.54,0,0,0,.34.17,2.42,2.42,0,0,0,1.3.14,6.49,6.49,0,0,0,1.39-1.38c1.94-2.6.88-1.67-1.38-4-.2,0-.4-.08-.6-.1Z"/><path class="cls-43" d="M312.75,373.48c-3.48-1-3.54-3.13-3.51-3.6h0v.05h0v.2h0v.28a.28.28,0,0,0,0,.09,3.41,3.41,0,0,0,.24.92,4.18,4.18,0,0,0,1.94,1.91,10.71,10.71,0,0,0,4.12,1,9.28,9.28,0,0,0,3.56-.33,2.58,2.58,0,0,1-.49-.32A11,11,0,0,1,312.75,373.48Z"/><path class="cls-43" d="M320.27,365.77l-.06-.08a6.92,6.92,0,0,1-.62-1,6.47,6.47,0,0,0-1.58-.15,8.44,8.44,0,0,0-.87,0,5.52,5.52,0,0,1,3.11,1.61l.54.17C320.6,366.16,320.43,366,320.27,365.77Z"/><path class="cls-42" d="M321.18,372.54a7.4,7.4,0,0,1-2.59,1.2,2.58,2.58,0,0,0,.49.32l.33-.11a10.53,10.53,0,0,0,3.06-1.81c-.21.09-.43.18-.65.25A3.5,3.5,0,0,1,321.18,372.54Z"/><path class="cls-42" d="M321.19,367.18a6.29,6.29,0,0,1,.62.17l-.16-.14c-.31-.28-.6-.57-.86-.85l-.54-.17c.16.16.33.33.49.52S321,367,321.19,367.18Z"/><path class="cls-43" d="M325.09,369.34a6.86,6.86,0,0,1-.61.81A6.86,6.86,0,0,0,325.09,369.34Z"/><polygon class="cls-43" points="325.1 369.33 325.1 369.33 325.1 369.33 325.1 369.33 325.1 369.33"/><path class="cls-45" d="M333.87,359.34c-3.15,1.76-3.54,4.61-5.52,6.35-1.57,1.38-2.13,1.86-2.25,2.21a.85.85,0,0,0,.2.35.78.78,0,0,0,.21.16c-.11-.07-.14-.23.1-.55a2.38,2.38,0,0,1,.23-.27,18.1,18.1,0,0,0,2.54-2.54c.36-.46.79-1,1.31-1.76l.16-.23.19-.27a10.27,10.27,0,0,1,4-3.41c2.25-1,4.69-.72,5.79,1.44l.05.07h0v0l0,0v0h0a3.05,3.05,0,0,0-.67-1.19l-.32-.32A5.6,5.6,0,0,0,333.87,359.34Z"/><path class="cls-51" d="M329.33,364.12l-.19.27a8.83,8.83,0,0,1-1.39,1.6v0l-.59.49,0,0a2.43,2.43,0,0,0-.25.2h0l0,0-.06,0c-.38.3-.77.69-.67,1.11.12-.35.68-.83,2.25-2.21,2-1.74,2.37-4.59,5.52-6.35a5.6,5.6,0,0,1,6.1.15,5,5,0,0,0-1.42-.89,5.59,5.59,0,0,0-3.5,0,8.13,8.13,0,0,0-3.28,2.14,9.05,9.05,0,0,0-.75.89c-.54.7-1,1.45-1.49,2.19C329.47,363.91,329.4,364,329.33,364.12Z"/></svg>