<svg id="Layer_1" data-name="Layer 1" xmlns="http://www.w3.org/2000/svg" xmlns:xlink="http://www.w3.org/1999/xlink" viewBox="0 0 512 400"><defs><style>.cls-1{fill:none;}.cls-2{clip-path:url(#clip-path);}.cls-3{fill:#040d2e;}.cls-14,.cls-4{opacity:0.3;}.cls-5{fill:#efe0e3;}.cls-6{fill:#e0ced3;}.cls-7{fill:#d1c1c6;}.cls-8{fill:#fff3f6;}.cls-9{fill:#baaeb2;}.cls-10{fill:#87727a;}.cls-11{fill:#5b4c52;}.cls-12{opacity:0.5;}.cls-13{fill:#f4b4b2;stroke:#ce9191;}.cls-13,.cls-17{stroke-miterlimit:10;stroke-width:0.75px;}.cls-15{fill:#fff;}.cls-16{opacity:0.8;}.cls-17{fill:#f9d5d5;stroke:#d39c9c;}.cls-18{fill:#d89c9c;}.cls-19{fill:#dfc5c8;}.cls-20{opacity:0.6;}.cls-21{clip-path:url(#clip-path-2);}.cls-22{fill:#fc826b;}.cls-23{fill:#fc836c;}.cls-24{fill:#fc846c;}.cls-25{fill:#fc856d;}.cls-26{fill:#fc866d;}.cls-27{fill:#fc876e;}.cls-28{fill:#fc886e;}.cls-29{fill:#fc896f;}.cls-30{fill:#fd8a6f;}.cls-31{fill:#fd8b70;}.cls-32{fill:#fd8c70;}.cls-33{fill:#fd8d71;}.cls-34{fill:#fd8e71;}.cls-35{fill:#fd8f72;}.cls-36{fill:#fd9072;}.cls-37{fill:#fd9173;}.cls-38{fill:#fd9273;}.cls-39{fill:#fd9374;}.cls-40{fill:#fd9474;}.cls-41{fill:#fd9575;}.cls-42{fill:#fd9675;}.cls-43{fill:#fd9776;}.cls-44{fill:#fd9876;}.cls-45{fill:#fe9a77;}.cls-46{fill:#fe9b78;}.cls-47{fill:#fe9c78;}.cls-48{fill:#fe9d79;}.cls-49{fill:#fe9e79;}.cls-50{fill:#fe9f7a;}.cls-51{fill:#fea07a;}.cls-52{fill:#fea17b;}.cls-53{fill:#fea27b;}.cls-54{fill:#fea37c;}.cls-55{fill:#fea47c;}.cls-56{fill:#fea57d;}.cls-57{fill:#fea67d;}.cls-58{fill:#fea77e;}.cls-59{fill:#fea87e;}.cls-60{fill:#fea97f;}.cls-61{fill:#ffaa7f;}.cls-62{fill:#ffab80;}.cls-63{fill:#ffac80;}.cls-64{fill:#ffad81;}.cls-65{fill:#ffae81;}.cls-66{fill:#ffaf82;}.cls-67{fill:#ffb082;}.cls-68{fill:#ffb183;}.cls-69{fill:#dba2a2;}.cls-70{fill:#f7dada;}.cls-71{fill:#f4a966;}.cls-72{fill:#a50202;}</style><clipPath id="clip-path"><rect class="cls-1" x="-471" y="-565" width="478" height="590" rx="58.11" transform="translate(-502 -38) rotate(90)"/></clipPath><clipPath id="clip-path-2"><path class="cls-1" d="M257.67,299.06h27.77a22.78,22.78,0,0,0,22.16-17.45l26-107.9a12.18,12.18,0,0,0-11.84-15H306.37A18.37,18.37,0,0,1,289,146.17L284.55,133H230.79l-4.32,12.85a18.77,18.77,0,0,1-17.79,12.79H192.43a11.29,11.29,0,0,0-11,13.93L207.8,281.82a22.51,22.51,0,0,0,21.89,17.24Z"/></clipPath></defs><g class="cls-2"><rect class="cls-3" x="-508.42" y="-564.47" width="551.51" height="591.33" transform="translate(-501.47 -36.15) rotate(90)"/></g><ellipse class="cls-4" cx="256" cy="332.75" rx="120" ry="14"/><rect class="cls-5" x="235.01" y="95.49" width="45.32" height="37.62"/><rect class="cls-5" x="242.71" y="63.15" width="29.92" height="32.34"/><rect class="cls-6" x="260.29" y="63.15" width="7.26" height="32.34"/><rect class="cls-6" x="258.75" y="95.49" width="9.79" height="37.62"/><rect class="cls-7" x="270.85" y="63.15" width="1.78" height="32.34"/><rect class="cls-7" x="271.74" y="95.49" width="8.59" height="37.62"/><rect class="cls-8" x="245.88" y="63.15" width="7.04" height="32.34"/><rect class="cls-8" x="254.68" y="63.15" width="1.43" height="32.34"/><rect class="cls-8" x="238.18" y="95.49" width="10.87" height="37.62"/><rect class="cls-8" x="251.38" y="95.49" width="2.31" height="37.62"/><polygon class="cls-9" points="242.72 95.49 272.63 95.49 272.63 94.39 244.01 94.39 242.72 84.71 242.72 95.49"/><circle class="cls-10" cx="263.92" cy="78.22" r="5.17"/><path class="cls-11" d="M266.4,78.22a1.93,1.93,0,1,1-1.92-1.92A1.92,1.92,0,0,1,266.4,78.22Z"/><g class="cls-12"><rect class="cls-13" x="213.23" y="53.25" width="88.88" height="79.86"/></g><g class="cls-14"><rect class="cls-15" x="223.33" y="53.25" width="25.52" height="79.86"/></g><g class="cls-16"><rect class="cls-17" x="157.07" y="133.04" width="201.21" height="201.21" rx="16.47"/></g><path class="cls-18" d="M324.72,319.22c0,2.42-30,4.39-67.05,4.39s-67-2-67-4.39,30-4.4,67-4.4S324.72,316.79,324.72,319.22Z"/><path class="cls-19" d="M258.58,133.71s-7.91,105.07,10.95,162.81l-5.11,2.54s-20.61-62.21-11.36-166.79Z"/><g class="cls-20"><g class="cls-21"><polygon class="cls-22" points="190.94 299.06 188 276.75 335.47 257.31 335.47 299.06 190.94 299.06"/><polygon class="cls-22" points="188 276.75 187.69 274.41 335.47 254.94 335.47 257.31 188 276.75"/><polygon class="cls-23" points="187.69 274.41 187.38 272.07 335.47 252.56 335.47 254.94 187.69 274.41"/><polygon class="cls-24" points="187.38 272.07 187.07 269.74 335.47 250.18 335.47 252.56 187.38 272.07"/><polygon class="cls-25" points="187.07 269.74 186.77 267.4 335.47 247.8 335.47 250.18 187.07 269.74"/><polygon class="cls-26" points="186.77 267.4 186.46 265.06 335.47 245.43 335.47 247.8 186.77 267.4"/><polygon class="cls-27" points="186.46 265.06 186.15 262.73 335.47 243.05 335.47 245.43 186.46 265.06"/><polygon class="cls-28" points="186.15 262.73 185.84 260.39 335.47 240.67 335.47 243.05 186.15 262.73"/><polygon class="cls-29" points="185.84 260.39 185.53 258.05 335.47 238.29 335.47 240.67 185.84 260.39"/><polygon class="cls-30" points="185.53 258.05 185.23 255.71 335.47 235.91 335.47 238.29 185.53 258.05"/><polygon class="cls-31" points="185.23 255.71 184.92 253.38 335.47 233.54 335.47 235.91 185.23 255.71"/><polygon class="cls-32" points="184.92 253.38 184.61 251.04 335.47 231.16 335.47 233.54 184.92 253.38"/><polygon class="cls-33" points="184.61 251.04 184.3 248.7 335.47 228.78 335.47 231.16 184.61 251.04"/><polygon class="cls-34" points="184.3 248.7 184 246.36 335.47 226.4 335.47 228.78 184.3 248.7"/><polygon class="cls-35" points="184 246.36 183.69 244.03 335.47 224.02 335.47 226.4 184 246.36"/><polygon class="cls-36" points="183.69 244.03 183.38 241.69 335.47 221.65 335.47 224.02 183.69 244.03"/><polygon class="cls-37" points="183.38 241.69 183.07 239.35 335.47 219.27 335.47 221.65 183.38 241.69"/><polygon class="cls-38" points="183.07 239.35 182.76 237.01 335.47 216.89 335.47 219.27 183.07 239.35"/><polygon class="cls-39" points="182.76 237.01 182.46 234.68 335.47 214.51 335.47 216.89 182.76 237.01"/><polygon class="cls-40" points="182.46 234.68 182.15 232.34 335.47 212.13 335.47 214.51 182.46 234.68"/><polygon class="cls-41" points="182.15 232.34 181.84 230 335.47 209.76 335.47 212.13 182.15 232.34"/><polygon class="cls-42" points="181.84 230 181.53 227.67 335.47 207.38 335.47 209.76 181.84 230"/><polygon class="cls-43" points="181.53 227.67 181.22 225.33 335.47 205 335.47 207.38 181.53 227.67"/><polygon class="cls-44" points="181.22 225.33 180.91 222.99 335.47 202.62 335.47 205 181.22 225.33"/><polygon class="cls-45" points="180.91 222.99 180.61 220.65 335.47 200.25 335.47 202.62 180.91 222.99"/><polygon class="cls-46" points="180.61 220.65 180.3 218.32 335.47 197.87 335.47 200.25 180.61 220.65"/><polygon class="cls-47" points="180.3 218.32 179.99 215.98 335.47 195.49 335.47 197.87 180.3 218.32"/><polygon class="cls-48" points="179.99 215.98 179.75 214.16 179.75 213.63 335.47 193.11 335.47 195.49 179.99 215.98"/><polygon class="cls-49" points="179.75 211.25 335.47 190.73 335.47 193.11 179.75 213.63 179.75 211.25"/><polygon class="cls-50" points="179.75 208.88 335.47 188.36 335.47 190.73 179.75 211.25 179.75 208.88"/><polygon class="cls-51" points="179.75 206.5 335.47 185.98 335.47 188.36 179.75 208.88 179.75 206.5"/><polygon class="cls-52" points="179.75 204.12 335.47 183.6 335.47 185.98 179.75 206.5 179.75 204.12"/><polygon class="cls-53" points="179.75 201.74 335.47 181.22 335.47 183.6 179.75 204.12 179.75 201.74"/><polygon class="cls-54" points="179.75 199.37 335.47 178.84 335.47 181.22 179.75 201.74 179.75 199.37"/><polygon class="cls-55" points="179.75 196.99 335.47 176.47 335.47 178.84 179.75 199.37 179.75 196.99"/><polygon class="cls-56" points="179.75 194.61 335.47 174.09 335.47 176.47 179.75 196.99 179.75 194.61"/><polygon class="cls-57" points="179.75 192.23 335.47 171.71 335.47 174.09 179.75 194.61 179.75 192.23"/><polygon class="cls-58" points="179.75 189.85 335.47 169.33 335.47 171.71 179.75 192.23 179.75 189.85"/><polygon class="cls-59" points="179.75 187.48 335.47 166.96 335.47 169.33 179.75 189.85 179.75 187.48"/><polygon class="cls-60" points="179.75 185.1 335.47 164.58 335.47 166.96 179.75 187.48 179.75 185.1"/><polygon class="cls-61" points="179.75 182.72 335.47 162.2 335.47 164.58 179.75 185.1 179.75 182.72"/><polygon class="cls-62" points="179.75 180.34 335.47 159.82 335.47 162.2 179.75 182.72 179.75 180.34"/><polygon class="cls-63" points="179.75 177.97 335.47 157.44 335.47 159.82 179.75 180.34 179.75 177.97"/><polygon class="cls-64" points="179.75 175.59 335.47 155.07 335.47 157.44 179.75 177.97 179.75 175.59"/><polygon class="cls-65" points="179.75 173.21 335.47 152.69 335.47 155.07 179.75 175.59 179.75 173.21"/><polygon class="cls-66" points="179.75 170.83 335.47 150.31 335.47 152.69 179.75 173.21 179.75 170.83"/><polygon class="cls-67" points="179.75 168.45 335.47 147.93 335.47 150.31 179.75 170.83 179.75 168.45"/><polygon class="cls-68" points="179.75 166.08 335.47 145.56 335.47 147.93 179.75 168.45 179.75 166.08"/><polygon class="cls-68" points="335.47 145.56 179.75 166.08 179.75 133.04 335.47 133.04 335.47 145.56"/></g></g><g class="cls-14"><path class="cls-15" d="M187,234.39c-.64-9.1-1.11-18.2-1-27.33.14-12.11.62-25.45,4.38-37.52a182.13,182.13,0,0,1,7.5-19c1-2.64,2-5.31,2.82-8a46.39,46.39,0,0,1,4.15-9.52h-27.5a20,20,0,0,0-20,20V315a19.29,19.29,0,0,0,19.3,19.29h19C184.87,302.06,189.38,267.57,187,234.39Z"/></g><g class="cls-12"><path class="cls-69" d="M337.62,133H303.36a74.94,74.94,0,0,1,5.89,19.87,140.9,140.9,0,0,1,1,25.56c-.67,15.24-.93,30.5-1.48,45.75-1.2,33.13-7.08,65.93-7.24,99.12a42.69,42.69,0,0,1-1.45,10.91h37.39a20.8,20.8,0,0,0,20.8-20.8V153.71A20.66,20.66,0,0,0,337.62,133Z"/></g><rect class="cls-69" x="191.8" y="188.66" width="131.74" height="49.17"/><rect class="cls-70" x="197.19" y="194.12" width="120.96" height="38.25"/><path class="cls-71" d="M319.93,234.23H195.23v-42h124.7Zm-121-3.72H316.2V196H199Z"/><path class="cls-72" d="M221.75,208.16a5.31,5.31,0,0,1-.48,2.27,5,5,0,0,1-1.44,1.75,7,7,0,0,1-2.35,1.13,12.09,12.09,0,0,1-3.22.39h-1.14l-.6,0-.76-.06v8.14h-4.42V202.35h5.35a13.31,13.31,0,0,1,6.76,1.38A4.76,4.76,0,0,1,221.75,208.16Zm-4.77-.08a2.54,2.54,0,0,0-.19-1,1.73,1.73,0,0,0-.61-.77,3.06,3.06,0,0,0-1.18-.46,9.73,9.73,0,0,0-1.87-.15h-.63a6.15,6.15,0,0,0-.74.06v4.61c.35,0,.62.06.81.06l.82,0C215.78,210.43,217,209.65,217,208.08Z"/><path class="cls-72" d="M234,212.87a3.11,3.11,0,0,1-.49,1.72,4.14,4.14,0,0,1-1.4,1.32,7.61,7.61,0,0,1-2.16.85,12.29,12.29,0,0,1-2.83.3h-.78a2.53,2.53,0,0,0,.83,1.65,2.64,2.64,0,0,0,1.8.6,8.29,8.29,0,0,0,4.09-1.25V221a8.16,8.16,0,0,1-2,.88,8.63,8.63,0,0,1-2.18.26,7.14,7.14,0,0,1-2.51-.42,5.1,5.1,0,0,1-1.9-1.2,5.45,5.45,0,0,1-1.2-1.89,7.14,7.14,0,0,1-.41-2.49,7.82,7.82,0,0,1,.48-2.79,6.65,6.65,0,0,1,1.36-2.18,6.07,6.07,0,0,1,2.1-1.41,6.93,6.93,0,0,1,2.69-.5,5,5,0,0,1,3.29,1A3.22,3.22,0,0,1,234,212.87Zm-3.69.28a1,1,0,0,0-.38-.76,1.43,1.43,0,0,0-1-.32,2.19,2.19,0,0,0-1.59.65,3.11,3.11,0,0,0-.85,1.79,2.15,2.15,0,0,0,.44.06h.41C229.33,214.57,230.31,214.09,230.31,213.15Z"/><path class="cls-72" d="M245.38,212.93a5.83,5.83,0,0,0-.61-.11,3.63,3.63,0,0,0-.5,0,2.84,2.84,0,0,0-2.4,1.08,5.38,5.38,0,0,0-.82,3.23v4.63h-3.69v-8c0-.45,0-.85,0-1.18s0-.65-.07-.94a8.15,8.15,0,0,0-.16-.86c-.06-.28-.15-.6-.26-1h3.51c0,.23.11.42.15.58a3,3,0,0,1,.1.46l.06.45a5,5,0,0,1,0,.59,6.11,6.11,0,0,1,1.58-1.81,3,3,0,0,1,1.76-.53,2.87,2.87,0,0,1,.65.07,6.63,6.63,0,0,1,.74.27Z"/><path class="cls-72" d="M257,205.79a5.06,5.06,0,0,0-1-.37,3.76,3.76,0,0,0-.92-.1,2.55,2.55,0,0,0-1.14.22,1.63,1.63,0,0,0-.69.71,3.85,3.85,0,0,0-.35,1.29,18.15,18.15,0,0,0-.09,2h2.94v2.7h-2.92v9.52h-3.69v-9.58h-2.3v-2.64h2.24a16.4,16.4,0,0,1,.31-3.43,5.53,5.53,0,0,1,.93-2.19,3.39,3.39,0,0,1,1.56-1.17,6.14,6.14,0,0,1,2.15-.34,9.6,9.6,0,0,1,3.3.55Z"/><path class="cls-72" d="M266.24,221.4c-.11-.26-.19-.48-.24-.64a6.2,6.2,0,0,1-.15-.72,5.43,5.43,0,0,1-3.92,1.69,4.09,4.09,0,0,1-3-1.27,4.15,4.15,0,0,1-.88-1.43,5.52,5.52,0,0,1-.3-1.87c0-.76,0-1.46.05-2.11s.07-1.27.09-1.86,0-1.19,0-1.79-.07-1.22-.14-1.89h3.69c.06.61.09,1.19.1,1.76s0,1.12,0,1.67,0,1.11-.06,1.69,0,1.17,0,1.82a2.87,2.87,0,0,0,.18,1.13,1.32,1.32,0,0,0,.44.61,1.3,1.3,0,0,0,.57.22,3.1,3.1,0,0,0,.49,0,2.8,2.8,0,0,0,.59-.1,2.11,2.11,0,0,0,.84-.51,3.37,3.37,0,0,0,.74-1.18,5.66,5.66,0,0,0,.32-2.09v-5.06h3.69v8.08a13.82,13.82,0,0,0,.17,2.1,7.09,7.09,0,0,0,.44,1.71Z"/><path class="cls-72" d="M289.73,221.73v-6a4,4,0,0,0-.47-2.27,1.5,1.5,0,0,0-1.27-.63,1.84,1.84,0,0,0-.83.2,2.11,2.11,0,0,0-.75.64,3.55,3.55,0,0,0-.56,1.22,7.79,7.79,0,0,0-.2,1.9v5H282v-6a4.28,4.28,0,0,0-.43-2.2,1.53,1.53,0,0,0-1.43-.7,2,2,0,0,0-1.64.94,5.15,5.15,0,0,0-.69,3v5h-3.69v-7.67q0-.67,0-1.23c0-.36-.05-.71-.1-1a7.26,7.26,0,0,0-.19-1c-.09-.3-.18-.62-.29-1h3.69c.09.28.16.5.21.64s.1.35.15.62a8.86,8.86,0,0,1,1.92-1.18,6.17,6.17,0,0,1,2.54-.46,4.41,4.41,0,0,1,1.89.4,2.84,2.84,0,0,1,1.26,1.13A4.1,4.1,0,0,1,287,209.9a7.62,7.62,0,0,1,2.39-.39,4,4,0,0,1,3,1.11,4.48,4.48,0,0,1,1.05,3.21v7.9Z"/><path class="cls-72" d="M308.42,212.87a3.12,3.12,0,0,1-.5,1.72,4.11,4.11,0,0,1-1.39,1.32,7.61,7.61,0,0,1-2.16.85,12.29,12.29,0,0,1-2.83.3h-.79a2.47,2.47,0,0,0,2.63,2.25,8.23,8.23,0,0,0,4.09-1.25V221a8,8,0,0,1-2,.88,8.69,8.69,0,0,1-2.18.26,7.11,7.11,0,0,1-2.51-.42,5.14,5.14,0,0,1-1.91-1.2,5.58,5.58,0,0,1-1.19-1.89,6.92,6.92,0,0,1-.42-2.49,7.82,7.82,0,0,1,.49-2.79,6.49,6.49,0,0,1,1.36-2.18,5.89,5.89,0,0,1,2.1-1.41,6.89,6.89,0,0,1,2.69-.5,5,5,0,0,1,3.29,1A3.22,3.22,0,0,1,308.42,212.87Zm-3.7.28a.93.93,0,0,0-.38-.76,1.39,1.39,0,0,0-1-.32,2.17,2.17,0,0,0-1.58.65,3,3,0,0,0-.85,1.79,2.15,2.15,0,0,0,.44.06h.41C303.75,214.57,304.72,214.09,304.72,213.15Z"/></svg>