<svg id="Layer_1" data-name="Layer 1" xmlns="http://www.w3.org/2000/svg" xmlns:xlink="http://www.w3.org/1999/xlink" width="619.88" height="562.43" viewBox="0 0 619.88 562.43">
  <defs>
    <style>
      .cls-1, .cls-58 {
        fill: none;
      }

      .cls-2, .cls-84 {
        opacity: 0.2;
      }

      .cls-3 {
        fill: #0fba98;
        stroke: #fff;
        stroke-width: 4.99px;
      }

      .cls-12, .cls-14, .cls-16, .cls-17, .cls-18, .cls-20, .cls-21, .cls-3, .cls-31, .cls-33, .cls-34, .cls-36, .cls-48, .cls-49, .cls-58, .cls-59, .cls-62, .cls-63, .cls-64, .cls-69, .cls-73, .cls-76, .cls-77, .cls-8, .cls-84 {
        stroke-miterlimit: 10;
      }

      .cls-4 {
        clip-path: url(#clip-path);
      }

      .cls-5 {
        fill: #cdaa6a;
      }

      .cls-6 {
        fill: #c4b7a3;
      }

      .cls-7 {
        fill: #80ddda;
      }

      .cls-8 {
        fill: #fdd3ca;
        stroke: #af8680;
      }

      .cls-10, .cls-11, .cls-12, .cls-13, .cls-14, .cls-16, .cls-17, .cls-18, .cls-20, .cls-21, .cls-34, .cls-36, .cls-48, .cls-49, .cls-58, .cls-59, .cls-63, .cls-64, .cls-73, .cls-76, .cls-8 {
        stroke-width: 0.75px;
      }

      .cls-9 {
        fill: #e3ae9f;
      }

      .cls-10 {
        fill: #df71e2;
        stroke: #710e7c;
      }

      .cls-10, .cls-11, .cls-13 {
        stroke-linejoin: round;
      }

      .cls-11, .cls-17 {
        fill: #311415;
      }

      .cls-11, .cls-13 {
        stroke: #190500;
      }

      .cls-12 {
        fill: #bcd0eb;
      }

      .cls-12, .cls-14, .cls-20 {
        stroke: #453323;
      }

      .cls-13 {
        fill: #895b5e;
      }

      .cls-14 {
        fill: #f6e982;
      }

      .cls-15 {
        fill: #b9908b;
      }

      .cls-16, .cls-62 {
        fill: #61435b;
        stroke: #1c101a;
      }

      .cls-17, .cls-58 {
        stroke: #1c0103;
      }

      .cls-18, .cls-59, .cls-65 {
        fill: #f9dad2;
      }

      .cls-18 {
        stroke: #4c2606;
      }

      .cls-19 {
        fill: #db9d8e;
      }

      .cls-20 {
        fill: #de97fc;
      }

      .cls-21, .cls-24 {
        fill: #f9d1c6;
      }

      .cls-21, .cls-64 {
        stroke: #323232;
      }

      .cls-22 {
        fill: #f8e1db;
      }

      .cls-23 {
        fill: #342517;
      }

      .cls-25 {
        fill: #323232;
      }

      .cls-26 {
        fill: #342516;
      }

      .cls-27 {
        fill: #661e1b;
      }

      .cls-28 {
        fill: #d26653;
      }

      .cls-29, .cls-77 {
        fill: #fff;
      }

      .cls-30 {
        fill: #f9988f;
      }

      .cls-31 {
        fill: #f9f8f7;
      }

      .cls-31, .cls-59 {
        stroke: #7f430d;
      }

      .cls-31, .cls-62 {
        stroke-width: 0.5px;
      }

      .cls-32 {
        fill: #fdefec;
      }

      .cls-33 {
        fill: #d6aba5;
        stroke: #7f451d;
      }

      .cls-33, .cls-77 {
        stroke-width: 0.25px;
      }

      .cls-34 {
        fill: #ff4848;
      }

      .cls-34, .cls-36 {
        stroke: #7f4444;
      }

      .cls-35 {
        fill: url(#linear-gradient);
      }

      .cls-36 {
        fill: #e54141;
      }

      .cls-37 {
        fill: #51b77d;
      }

      .cls-38 {
        fill: #7f430d;
      }

      .cls-39 {
        fill: #692e21;
      }

      .cls-39, .cls-41, .cls-42, .cls-43, .cls-44, .cls-45, .cls-46, .cls-47, .cls-48, .cls-49, .cls-53, .cls-54, .cls-55, .cls-56, .cls-57, .cls-91, .cls-92, .cls-93, .cls-94, .cls-95, .cls-96 {
        fill-rule: evenodd;
      }

      .cls-40 {
        fill: #af834c;
      }

      .cls-41 {
        fill: #306f30;
      }

      .cls-42 {
        fill: url(#GradientFill_12);
      }

      .cls-43 {
        fill: url(#GradientFill_13);
      }

      .cls-44 {
        fill: #927a63;
      }

      .cls-45 {
        fill: #ac634e;
      }

      .cls-46 {
        fill: url(#GradientFill_3);
      }

      .cls-47 {
        fill: url(#GradientFill_6);
      }

      .cls-48 {
        fill: #753232;
        stroke: #592626;
      }

      .cls-49 {
        fill: #9b5745;
        stroke: #602d2d;
      }

      .cls-50 {
        fill: url(#GradientFill_9);
      }

      .cls-51 {
        fill: url(#GradientFill_9-2);
      }

      .cls-52 {
        fill: url(#GradientFill_9-3);
      }

      .cls-53 {
        fill: #72a13f;
      }

      .cls-54 {
        fill: url(#GradientFill_10);
      }

      .cls-55 {
        fill: url(#GradientFill_11);
      }

      .cls-56 {
        fill: url(#GradientFill_3-2);
      }

      .cls-57 {
        fill: url(#GradientFill_6-2);
      }

      .cls-60 {
        fill: #eab8ad;
      }

      .cls-61 {
        fill: #2d1708;
      }

      .cls-63, .cls-66 {
        fill: #f7d8d0;
      }

      .cls-63 {
        stroke: #7f441d;
      }

      .cls-64 {
        fill: #72105d;
      }

      .cls-67 {
        fill: #7f441d;
      }

      .cls-68 {
        fill: #e9b7ac;
      }

      .cls-69 {
        fill: #e7d760;
        stroke: #baa73b;
      }

      .cls-70 {
        fill: #e6b9b0;
      }

      .cls-71, .cls-83 {
        fill: #a45926;
      }

      .cls-72 {
        fill: #ef4b3b;
      }

      .cls-73 {
        fill: #e16faa;
      }

      .cls-73, .cls-76 {
        stroke: #ae2085;
      }

      .cls-74 {
        fill: #faf079;
      }

      .cls-75 {
        fill: #c5248e;
      }

      .cls-76 {
        fill: #d35ba1;
      }

      .cls-77 {
        stroke: #3d2e17;
      }

      .cls-78 {
        fill: #3d2e17;
      }

      .cls-79 {
        fill: #8c3e36;
      }

      .cls-80 {
        fill: #f5968e;
      }

      .cls-81 {
        fill: #fff6f3;
      }

      .cls-82 {
        fill: #f48678;
      }

      .cls-83 {
        opacity: 0.47;
      }

      .cls-84 {
        fill: #020202;
        stroke: #201d1e;
        stroke-width: 1px;
      }

      .cls-85 {
        fill: #c37946;
      }

      .cls-86 {
        fill: #89513a;
      }

      .cls-87 {
        opacity: 0.12;
      }

      .cls-88 {
        fill: #d58349;
      }

      .cls-89 {
        fill: #e99c48;
      }

      .cls-90 {
        fill: #edb777;
      }

      .cls-91 {
        opacity: 0.3;
      }

      .cls-92 {
        fill: #9084a4;
      }

      .cls-93 {
        fill: #eadedd;
      }

      .cls-94 {
        fill: #f5f6f5;
      }

      .cls-95 {
        fill: #b7aec4;
      }

      .cls-96 {
        fill: #6c6383;
      }

      .cls-97 {
        fill: #029298;
      }

      .cls-98 {
        fill: #cbcbca;
      }

      .cls-99 {
        fill: #dfdfdf;
      }

      .cls-100 {
        fill: #d3d5d5;
      }

      .cls-101 {
        fill: #efeeee;
      }

      .cls-102 {
        fill: #cce9e8;
      }
    </style>
    <clipPath id="clip-path">
      <path class="cls-1" d="M302.45,517.62c-147,0-266.17-108-266.17-241.16S155.45,35.3,302.45,35.3s266.18,108,266.18,241.16S449.46,517.62,302.45,517.62Z"/>
    </clipPath>
    <linearGradient id="linear-gradient" x1="1578.2" y1="14002.81" x2="1575.07" y2="13996.77" gradientTransform="matrix(1.52, 0.01, 0, -0.34, -2203.07, 5093.72)" gradientUnits="userSpaceOnUse">
      <stop offset="0" stop-color="#dcc499"/>
      <stop offset="1" stop-color="#e5d8c0"/>
    </linearGradient>
    <linearGradient id="GradientFill_12" data-name="GradientFill 12" x1="303.57" y1="396.47" x2="325.97" y2="396.47" gradientTransform="translate(-201.91 -0.91) rotate(-2.36)" gradientUnits="userSpaceOnUse">
      <stop offset="0" stop-color="#cdb997"/>
      <stop offset="1" stop-color="#e7d4b6"/>
    </linearGradient>
    <linearGradient id="GradientFill_13" data-name="GradientFill 13" x1="303.67" y1="397.15" x2="325.91" y2="397.15" gradientTransform="translate(-201.91 -0.91) rotate(-2.36)" gradientUnits="userSpaceOnUse">
      <stop offset="0" stop-color="#b19f83"/>
      <stop offset="1" stop-color="#d1bea1"/>
    </linearGradient>
    <linearGradient id="GradientFill_3" data-name="GradientFill 3" x1="299.34" y1="415.6" x2="320.64" y2="415.6" gradientTransform="translate(-201.91 -0.91) rotate(-2.36)" gradientUnits="userSpaceOnUse">
      <stop offset="0" stop-color="#ebd7b5"/>
      <stop offset="1" stop-color="#f9efd6"/>
    </linearGradient>
    <linearGradient id="GradientFill_6" data-name="GradientFill 6" x1="299.34" y1="415.6" x2="320.64" y2="415.6" gradientTransform="translate(-201.91 -0.91) rotate(-2.36)" gradientUnits="userSpaceOnUse">
      <stop offset="0" stop-color="#cdbb9f"/>
      <stop offset="1" stop-color="#e3d4b6"/>
    </linearGradient>
    <linearGradient id="GradientFill_9" data-name="GradientFill 9" x1="356.91" y1="426.65" x2="356.91" y2="411.1" gradientTransform="translate(-201.91 -0.91) rotate(-2.36)" gradientUnits="userSpaceOnUse">
      <stop offset="0" stop-color="#ba8b51"/>
      <stop offset="1" stop-color="#f1c375"/>
    </linearGradient>
    <linearGradient id="GradientFill_9-2" x1="336.46" y1="427.94" x2="336.46" y2="412.12" xlink:href="#GradientFill_9"/>
    <linearGradient id="GradientFill_9-3" x1="374.93" y1="425.17" x2="374.93" y2="410.26" xlink:href="#GradientFill_9"/>
    <linearGradient id="GradientFill_10" data-name="GradientFill 10" x1="390.34" y1="405.14" x2="326.16" y2="405.14" gradientTransform="translate(-201.91 -0.91) rotate(-2.36)" gradientUnits="userSpaceOnUse">
      <stop offset="0" stop-color="#bca886"/>
      <stop offset="1" stop-color="#d1bea1"/>
    </linearGradient>
    <linearGradient id="GradientFill_11" data-name="GradientFill 11" x1="390.69" y1="404.04" x2="325.34" y2="404.04" gradientTransform="translate(-201.91 -0.91) rotate(-2.36)" gradientUnits="userSpaceOnUse">
      <stop offset="0" stop-color="#9c886d"/>
      <stop offset="1" stop-color="#bca88d"/>
    </linearGradient>
    <linearGradient id="GradientFill_3-2" x1="303.57" y1="401.9" x2="325.97" y2="401.9" xlink:href="#GradientFill_3"/>
    <linearGradient id="GradientFill_6-2" x1="303.67" y1="400.65" x2="325.91" y2="400.65" xlink:href="#GradientFill_6"/>
  </defs>
  <g>
    <path class="cls-2" d="M312.07,534.59c-152.13,0-274.55-113.82-274.55-254.22S160.85,27.84,313,27.84c150.36,0,273.46,112.13,273.46,252.53S464.21,534.59,312.07,534.59Z"/>
    <g>
      <path class="cls-3" d="M302.3,520.15c-148.49,0-268.87-109-268.87-243.53S153.81,33.08,302.3,33.08s268.87,109,268.87,243.54S450.79,520.15,302.3,520.15Z"/>
      <g class="cls-4">
        <g>
          <g>
            <rect class="cls-5" x="-226.78" y="450.59" width="1093.11" height="50.89"/>
            <rect class="cls-6" x="-207.56" y="498.08" width="1047.66" height="54.25"/>
            <rect class="cls-7" x="-207.56" y="-26.21" width="1047.66" height="507.76"/>
          </g>
          <g>
            <g>
              <g>
                <g>
                  <g>
                    <g>
                      <path class="cls-8" d="M171.19,469.11s-9.85,45.19-12.46,49.13-13.75,9.18-21.19,8.31c0,0,5.26-46.42,8.44-53.77S171.19,469.11,171.19,469.11Z"/>
                      <path class="cls-9" d="M170.11,472.7S161,474.83,158,475.37a42.58,42.58,0,0,1-12.69.39s.57-3.63,1.55-4.33c1.41-1,24.38-3.25,24.38-3.25Z"/>
                    </g>
                    <g>
                      <path class="cls-10" d="M163.42,502.27a32.38,32.38,0,0,1-22.57-1.87L137,526.74s17.29,1.73,20.9-3.59Z"/>
                      <path class="cls-11" d="M170.17,526.23s-.75-7.89-8.33-7.45S148.71,516.93,146,521s.28,6.32-8.91,3.89l.17-3.16s-4.67-1.43-5.68,1.58-1.29,9-2.74,12.06-1.88,4.89,0,5.6,29.79,15.18,54.4,6.26C183.21,547.18,197.88,529.07,170.17,526.23Z"/>
                      <path class="cls-11" d="M176.22,527.24s-12.46-1.57-17.39,9.63a16.29,16.29,0,0,0-1.5,6"/>
                      <path class="cls-12" d="M128.36,536.19s19.71,8.44,28,10,28.37-1.19,28.9-2.31-2.07,3.29-2.07,3.29-11,4.26-26.32,2.3a94.41,94.41,0,0,1-28.08-8.56S125.89,540.06,128.36,536.19Z"/>
                      <path class="cls-13" d="M170.17,526.23s-10.33-1.13-12.87,4.9,4.36,1.32,4.36,1.32,3.7-5.92,13-5.29C174.7,527.16,174.11,525.23,170.17,526.23Z"/>
                      <path class="cls-13" d="M169.46,523.58s-9.07-1.35-11.53,3,0,3.44,0,3.44,2.61-4.31,12.23-3.75Z"/>
                      <path class="cls-14" d="M164.31,498.91s-16.55,3.21-23.18-1.33l-.72,4.13s16.18,3.11,23,1.08Z"/>
                    </g>
                  </g>
                  <path class="cls-15" d="M173.18,459.6c-.15,2-.42,4.18-.81,6.7-.67,4.27-2.57,7.9-3.43,11.91-4.54.29-8,.82-12.52.54-3.1-.19-8.59-.56-12.26-2.68l1.31-13.48,6.5-4.75a33.25,33.25,0,0,1,9.44-.73A38.15,38.15,0,0,1,173.18,459.6Z"/>
                </g>
                <g>
                  <g>
                    <path class="cls-8" d="M137.38,474.44s-9.49,40.5-11,46.31-19,8.85-25.56,6.92c0,0,10.51-49.1,13.61-54.49S137.38,474.44,137.38,474.44Z"/>
                    <path class="cls-15" d="M135.25,481.76s-8.39-.93-11.46-1.46c-7.21-1.22-10.5-3.12-10.5-3.12a37.22,37.22,0,0,0,1.32-4.32c-.43-1.68,22.08,3.55,22.08,3.55Z"/>
                  </g>
                  <g>
                    <path class="cls-10" d="M130,505.58a35.87,35.87,0,0,1-23.77-1.88l-6.33,25.88s21.22,1.48,25-3.83Z"/>
                    <path class="cls-11" d="M134.05,529.07s-.75-7.89-8.33-7.45-13.13-1.85-15.89,2.17.28,6.31-8.91,3.88l.17-3.15s-4.67-1.43-5.68,1.58-1.29,9-2.74,12.06-1.88,4.88,0,5.6,29.79,15.18,54.4,6.25C147.09,550,161.76,531.91,134.05,529.07Z"/>
                    <path class="cls-11" d="M140.11,530.08s-12.47-1.58-17.4,9.63a16.29,16.29,0,0,0-1.5,6"/>
                    <path class="cls-12" d="M92.24,539s19.71,8.45,28,10,28.37-1.2,28.91-2.31-2.08,3.28-2.08,3.28-11,4.27-26.32,2.3a94.22,94.22,0,0,1-28.08-8.55S89.77,542.9,92.24,539Z"/>
                    <path class="cls-13" d="M134.05,529.07s-10.33-1.14-12.87,4.9,4.36,1.32,4.36,1.32,3.7-5.92,13-5.29C138.58,530,138,528.06,134.05,529.07Z"/>
                    <path class="cls-13" d="M133.34,526.42s-9.07-1.36-11.53,3,0,3.44,0,3.44,2.61-4.3,12.23-3.74Z"/>
                    <path class="cls-14" d="M130.79,502.12s-17.15,3.21-24-1.32l-1,4.12s17,3.11,24.07,1.08Z"/>
                  </g>
                </g>
                <path class="cls-16" d="M149.25,482.49s14.89,4.28,29.79-1.38c0,0,1.93-3.66,2.44-18.33s.29-32.86-.1-37.4l-6.31-10.19-64.48,4.46s-2.73,4.17-2.55,8.3"/>
                <path class="cls-16" d="M109.05,423.1a95.16,95.16,0,0,0-3.25,11.72c-1.13,5.73-2.73,31.95-4.1,36.26s8,12.32,25.32,15,24.18-3.32,24.41-5.16,3.89-31.51,3.89-31.51"/>
                <path class="cls-17" d="M176.86,409.94l5.07,2v12.43c-6.64,4-13.05,4.95-19.76,6.51-5,1.15-7.7,1.1-12.42,1.29-16.4.67-35.48-5.46-41.15-7.61l1.18-7.12c8.1,1.42,21.22.55,35-.89,10.19-1.06,20.13-2.45,27.13-3.51C175.16,412.54,177.83,410.56,176.86,409.94Z"/>
              </g>
              <path class="cls-16" d="M140.66,425.76s0,0,0,0c-.14.29-1,6.75-1.06,7.09,0,0,0,0,0,0l1.9.34a11.86,11.86,0,0,1,2-.08l.24-6.7A21.46,21.46,0,0,0,140.66,425.76Z"/>
              <path class="cls-16" d="M122.89,422.65c-.33-.1-3.69-.23-3.69-.23s-1,6.54-1,6.54l3.13.53Z"/>
              <path class="cls-16" d="M173.65,423.1s.75,5.08.75,6.11c0,0,3.32-.58,4-1.55l-1-6.36S173.53,422.25,173.65,423.1Z"/>
              <path class="cls-18" d="M234,385.38l-5.91,7.85s-13.59-3.54-24.56-5.71c-9.77-1.94-22.06-8.62-31.41-19.4-1.16-1.33-2.27-2.73-3.33-4.18-9.6-13.23,14.57-13.57,14.57-13.57l4.57,4,9,8S217.73,380.11,234,385.38Z"/>
              <path class="cls-19" d="M187.76,355.09c-3.85,7.77-11.06,11.16-15.62,13-1.16-1.33-2.27-2.73-3.33-4.18-9.6-13.23,14.57-13.57,14.57-13.57Z"/>
              <path class="cls-10" d="M158.31,320.12s13.7,5.82,28.18,30.93c0,0-4.9,9.06-18.05,17.87L154.25,358.2Z"/>
              <path class="cls-10" d="M169.42,335.26c7.26,18.58,9,30,9,30,8.12,33.7,4.7,54.64,4.7,54.64-25.93,15.22-75.47,1.54-74.63-1.95,1.91-8-1.73-16.51-3.1-25A172.66,172.66,0,0,1,103,365.7c2.1-37.3,12.14-38.85,21.53-44.14C130,318.44,150.34,309,150.34,309"/>
              <path class="cls-20" d="M160.21,326.87c-.88,4.58-7,7.58-13.44,7.31-12.63-.51-17-8.47-18.49-13.77,3.77-1.67,6.47-2.62,6.47-2.62,17.19-1.28,23.42,3.62,23.42,3.62S161.1,322.3,160.21,326.87Z"/>
              <g>
                <path class="cls-21" d="M158.15,309.11a26.26,26.26,0,0,0-1.69,3.26c-2.93,6.8-.65,10.51-.65,10.51-1.27,1.33-2.22,4-3.47,4.77-11,7-20.93-6.78-20.93-6.78l1.09-4.44,3.21-13.09c5.41-2.7,9.72-2.94,13-2.06A15.44,15.44,0,0,1,158.15,309.11Z"/>
                <path class="cls-19" d="M155.45,322.66a28.82,28.82,0,0,1-4.9,3.58c-6,.27-13.14-1.2-18.47-5.46l3.63-17.44c5.41-2.7,9.72-2.94,13-2.06a58.09,58.09,0,0,1,7.7,11.09C153.53,319.17,155.45,322.66,155.45,322.66Z"/>
              </g>
            </g>
            <g>
              <path class="cls-16" d="M152.83,329c-1-.18-4.5-1.88-10.56,1.35s3.15,8.82,3.15,8.82l7.06-1.19S160.9,330.54,152.83,329Z"/>
              <path class="cls-10" d="M145.38,329.12c.62.22-11.3,12.78-11.3,12.78s-7.21-10.15-10.33-21.22l8-4.21S133.48,325,145.38,329.12Z"/>
              <g>
                <path class="cls-16" d="M141.92,375.58c.23.45.45.89.69,1.33h0c7.21,13.6,16.78,19.58,16.78,19.58a79.53,79.53,0,0,0,5.49-10.06c.74-1.68,1.29-3.14,1.7-4.39a17.77,17.77,0,0,0,1.12-5.44c-.33-1.77-.7-3.47-1.08-5.11s-.73-3-1.11-4.4a110.33,110.33,0,0,0-3.46-10.63q-.9-2.34-1.8-4.33c-3.82-8.57-7.21-12.51-7.19-13.16.07-1.88-7.79-.13-7.79-.13a60.57,60.57,0,0,1,.1,9.35c-.05,1.06-.13,2.14-.21,3.24-.24,3.14-.59,6.35-1,9.38-.14,1.05-.28,2.09-.41,3.08-.51,3.68-1,6.87-1.38,9C142.11,374.57,141.92,375.58,141.92,375.58Z"/>
                <path class="cls-22" d="M145.16,351.44a56.15,56.15,0,0,1,16.41,5.05c-.59-1.56-1.28-3.16-1.87-4.5a64.8,64.8,0,0,0-14.33-3.79C145.32,349.26,145.24,350.34,145.16,351.44Z"/>
                <path class="cls-22" d="M144.22,364.1c6,1.44,16.06,4.2,21.95,7.47-.35-1.53-.79-3.28-1.17-4.69a81.61,81.61,0,0,0-20.38-6C144.48,361.94,144.35,363.1,144.22,364.1Z"/>
                <path class="cls-22" d="M142.39,375.52c.23.45.47,1,.71,1.45h0c6,1.73,15.3,4.8,21.41,9.21a41.27,41.27,0,0,0,1.66-4.34A118.71,118.71,0,0,0,142.8,373C142.51,374.64,142.39,375.52,142.39,375.52Z"/>
              </g>
              <path class="cls-10" d="M158.63,314.62c.76.55,7.1,5.06,7.43,8s-2.84,18.07-2.84,18.07l-13-11.84a39.46,39.46,0,0,0,7.29-10.09Z"/>
            </g>
            <g>
              <path class="cls-21" d="M190.87,283.41c-3.88,7.22-11.5,10.13-17.48,7.3s-3.58-6.84.3-14.06,4-6.38,10.17-9.07C197.35,261.69,194.75,276.2,190.87,283.41Z"/>
              <g>
                <path class="cls-19" d="M184.88,281.55s2.76-11.3,6.1-10.89A36,36,0,0,0,184.88,281.55Z"/>
                <path class="cls-19" d="M185.8,279.16s3.21.69,3.19,4.95C189,284.11,190.15,279.22,185.8,279.16Z"/>
              </g>
              <path class="cls-21" d="M176.68,236.41c-23.78-14,8.52-31.29-23.48-31.19-31.06.1-49.35,15.45-50.43,42.26-.5,12.39,4.33,23.92,4.25,24.59-3.62,31.39,21.31,47.39,40,49.9,8.47,1.14,17.82-3.34,25.52-8.5,6.87-4.6,18.43-18.13,16.38-40C188.83,272.83,196.51,248.07,176.68,236.41Z"/>
              <path class="cls-19" d="M122.23,234.74s6.54,9.18,41.41,9.14l-.92-4.58s2,6.41,23.37,10.2l2.22,24.76,5.78-51.67-73.47-6-11.41,11.29.38,13.72s-5.86,25.76-4.77,35.07l1.3.65c4.51-5.87,6.06-13,7.66-20.11h0S120.81,260.15,122.23,234.74Z"/>
              <path class="cls-23" d="M119.52,227.89s-3.71,10.7,42.92,13.42c0,0-1.2-.55-5.13-11.3,5.12,13.25,17.22,13.65,26.06,16.43l4-13.49,1,41.31s4.1-12.35,5.37-17.37c0,0,4.47-14,2.36-23.12a47.3,47.3,0,0,1,2.66,8.71s13.07-27.46-5.93-37.14c0,0-2.42-.92,2.07.12,0,0-17-16.25-44.47-17.47-14.39-.63-24.27-.06-36.82,9.64A15.72,15.72,0,0,0,99,207.3s4.14-1.84,6.47-1.67c0,0-10.86,4.64-14.79,24.89-3.72,19.12-3.45,35.72,14.83,46.81,0,0,7.37-10.93,5.32-28l3.86,6.52S122.5,250.69,119.52,227.89Z"/>
              <path class="cls-21" d="M110,285.92c-7.6,5-13.46,0-16-7.39s-1.79-17.7,7.64-15.4a14.4,14.4,0,0,1,8,9.5"/>
              <g>
                <path class="cls-19" d="M108,279.16s-6.42-10.47-10.46-9.37A41.16,41.16,0,0,1,108,279.16Z"/>
                <path class="cls-19" d="M106.07,276.73a4.39,4.39,0,0,0-2.64,5.51S100.68,277.7,106.07,276.73Z"/>
              </g>
            </g>
            <g>
              <g>
                <path class="cls-24" d="M151.31,287c6.24,6.17,12.46,1,12.62-1.78,0,0,.45-3-2.74-6s-1.54-11.3-1.54-11.3"/>
                <path class="cls-25" d="M151.33,287a11,11,0,0,0,3.2,2.16,7,7,0,0,0,3.73.54,7,7,0,0,0,3.44-1.46,4.7,4.7,0,0,0,1.92-3v0a6.79,6.79,0,0,0-1.34-4.12,13.74,13.74,0,0,0-1.47-1.71,5.47,5.47,0,0,1-1.25-2.12,12.83,12.83,0,0,1-.59-4.7,21.89,21.89,0,0,1,.64-4.64h.07a31.24,31.24,0,0,0-.24,4.63,13.88,13.88,0,0,0,.76,4.46,5.47,5.47,0,0,0,1.15,1.83,10.92,10.92,0,0,1,1.56,1.81,7.22,7.22,0,0,1,1.31,4.64v0a5.3,5.3,0,0,1-2.24,3.36,7.22,7.22,0,0,1-7.57.74,11.28,11.28,0,0,1-3.15-2.32Z"/>
              </g>
              <path class="cls-26" d="M145.09,247.67s.3-3-4.35-3.12-11.09,4.53-11.65,7.73C129.09,252.28,138.58,245.73,145.09,247.67Z"/>
              <path class="cls-26" d="M163,250.7a4.24,4.24,0,0,1,4.56-2.4c3.49.36,7.83,4.52,7.91,7C175.5,255.27,168.09,249.92,163,250.7Z"/>
              <g>
                <path class="cls-27" d="M135.49,291.36c1.74,3.77,7.44,15.67,16.91,17.48,5.71,1.09,8.82-3.46,11.74-6.72.76-.84,1.48-1.72,2.2-2.61h0c.36-.45.73-.9,1.1-1.34a28.34,28.34,0,0,1,3.1-3.27h0a10.42,10.42,0,0,1,.82-.67,2.39,2.39,0,0,1,.33-.25s-8.76,4.4-33.55-2.82l-2-.76-.81-.31-.45-.17S135.07,290.46,135.49,291.36Z"/>
                <path class="cls-28" d="M161.22,303.91a6.5,6.5,0,0,0-5.52-1.67,12.84,12.84,0,0,0-9.31.92S154,309,161.22,303.91Z"/>
                <path class="cls-29" d="M137.9,291.74c9.58,9.16,17.78,10.46,23.65,9.16,6.13-1.35,3.44-5.38,7.48-5.31a11.32,11.32,0,0,0,2.35-1.38,2.39,2.39,0,0,1,.33-.25s-8.76,4.4-33.55-2.82l-.08,0Z"/>
                <path class="cls-30" d="M135.49,291.36c1.74,3.77,7.44,15.67,16.91,17.48,5.71,1.09,8.82-3.46,11.74-6.72C154.37,309.43,146.58,306.83,135.49,291.36Z"/>
                <path class="cls-30" d="M136.12,290.38c18.33,10.35,29.78,6.93,34.23,4.68l.21-.18.1-.05c.25-.23.49-.44.72-.62a2.39,2.39,0,0,1,.33-.25s-8.76,4.4-33.55-2.82Z"/>
                <path class="cls-28" d="M137.65,288.89s-4.68-.53-3.37,3C134.28,291.9,133.74,289.09,137.65,288.89Z"/>
                <path class="cls-28" d="M170.76,292.63s1.8.62.43,3.06C171.19,295.69,173.47,293.32,170.76,292.63Z"/>
              </g>
              <ellipse class="cls-31" cx="139" cy="265.92" rx="9.08" ry="8.18" transform="translate(-130.66 397.53) rotate(-88.42)"/>
              <ellipse class="cls-26" cx="140.67" cy="269.51" rx="5.15" ry="4.78" transform="translate(-132.63 402.68) rotate(-88.41)"/>
              <circle class="cls-32" cx="138.01" cy="265.17" r="1.28" transform="translate(-131.41 394.67) rotate(-88.18)"/>
              <path class="cls-33" d="M131.51,268.75a13.85,13.85,0,0,1,3.75-7.73,8.48,8.48,0,0,1,2.35-1.69,8.92,8.92,0,0,1,6.92.13A8,8,0,0,0,138.7,257c-4.47.19-6.61,4.71-6.81,5.17A9.52,9.52,0,0,0,131.51,268.75Z"/>
              <ellipse class="cls-31" cx="167.74" cy="268.5" rx="9.08" ry="7.48" transform="translate(-105.29 428.77) rotate(-88.42)"/>
              <ellipse class="cls-26" cx="169.29" cy="272.1" rx="5.11" ry="4.4" transform="translate(-107.37 433.82) rotate(-88.42)"/>
              <ellipse class="cls-32" cx="166.57" cy="267.75" rx="1.44" ry="1.33" transform="translate(-105.68 426.85) rotate(-88.42)"/>
              <path class="cls-33" d="M160.78,270.94a10.71,10.71,0,0,1,3.14-6.72,9.39,9.39,0,0,1,3.58-2.13,9,9,0,0,1,5.31,0,6.61,6.61,0,0,0-3.74-2.28c-3.26-.63-5.72,1.77-6.16,2.2C159.46,265.41,160.7,270.64,160.78,270.94Z"/>
            </g>
            <g>
              <path class="cls-18" d="M226.39,392.78c7.35,5.19,10.68,6,17.91,6.86,7,.8,9.1,0,9.1,0l1.81-.61a1,1,0,0,0,.08-1.93c-.57-.33-1.14-.43-.88-.39,5.91.89,7.88-1.79,7.88-1.79,3.32-1.85,1.16-4.25,1.16-4.25,4.14-1.88.35-3.48.35-3.48-2.95-1.07-12.6.08-17.13-.74s-9.26-5.65-9.26-5.65-5.54-2.68-9.79,1.44"/>
              <path class="cls-18" d="M263.8,390.61a37.7,37.7,0,0,1-17.8-1.12"/>
              <path class="cls-18" d="M262.29,394.92s-6.71.45-17.42-2.42"/>
              <path class="cls-18" d="M254.41,396.71a35,35,0,0,1-10.11-1.79"/>
              <path class="cls-18" d="M245.61,386.26s1.93,5.79-4.1,11.27"/>
            </g>
            <g>
              <g>
                <path class="cls-34" d="M254.65,401.61l32.18-12.91-27.77-9.2-37.13,17.33Z"/>
                <path class="cls-35" d="M223.1,396.61l32,4.76c1.06-1.78.53-8.16,0-9.82l-32-4.9A41,41,0,0,1,223.1,396.61Z"/>
                <path class="cls-36" d="M287.76,392.16l1.19-9.6-34.08,8.94c1.61,3.49.63,9.5.38,9.87Z"/>
                <path class="cls-34" d="M222.34,386.76l32.58,4.78,32.84-9.17L257,379.07Z"/>
              </g>
              <path class="cls-37" d="M248.87,399.17l1.4-1.75,2,1.85s-.31-5.67.65-6.06c-.17,0-3.37-.63-3.53-.59C248.38,393.48,248.87,399.17,248.87,399.17Z"/>
            </g>
            <path class="cls-18" d="M225.1,384.52s4.62-6.1,11-7.29,12.37.43,16.43-1.35c0,0,3.07,5.9-7.92,5.76a26.33,26.33,0,0,0-6.89.92"/>
            <g>
              <path class="cls-18" d="M110.22,376.34s-1.65,11.4,1.56,17.27c2.56,4.68,19.72,15.74,28.75,20.44,2.23,1.16,10.67,4.16,12.41,2.36l3.93-7.08,5.39-.53-33.15-16.92-1.39-20.62S110.64,369.44,110.22,376.34Z"/>
              <path class="cls-10" d="M131.85,345.52s.42,20.41,2,30.12c0,0-2.86,3.6-16.12,4.78S105,378.48,105,378.48s-2.11-33.76,7.31-46.39"/>
            </g>
            <g>
              <path class="cls-38" d="M154.72,414.42a8.32,8.32,0,0,1-1.35-.15,9,9,0,0,1-1.28-.36,6.79,6.79,0,0,1-2.24-1.34,6.67,6.67,0,0,0,2.34,1,8,8,0,0,0,2.47.12Z"/>
              <path class="cls-18" d="M173.46,403.91c-5.17-6.11-10-1.78-10-1.78-7.13-5-13.77,0-13.77,0-6.37-6.78-11.07-2.8-11.25-.75s5.19,1.89,6,4.86c.65,2.52,2.39,7.05,2.39,7.05.54,3.66,2.57,4.36,4.83,6.52s5.87,2.2,7,.37a16.39,16.39,0,0,1,2-2.51s3.11,2.16,5,1.93,3.38-3.15,3.38-3.15,1.77,1.31,3.23.51a6.06,6.06,0,0,0,2.21-2.31"/>
              <line class="cls-18" x1="162.7" y1="413.09" x2="163.45" y2="413.82"/>
              <g>
                <g>
                  <path class="cls-39" d="M140.87,398.08c20.53-2.12,41-3.71,61.82-5.66a7,7,0,0,1,2,2.84c-9.84,1.17-46.1,4.92-55.55,6.09a26.38,26.38,0,0,0-7.76-3Z"/>
                  <g>
                    <path class="cls-40" d="M172.52,395.11a18.13,18.13,0,0,1,1.4,3.5l-3.32.36a14,14,0,0,0-1.71-3.54Z"/>
                    <path class="cls-40" d="M152,397a20.34,20.34,0,0,1,1.55,3.86l-3.31.39a16.34,16.34,0,0,0-1.85-3.9Z"/>
                    <path class="cls-40" d="M190.41,393.54a16.58,16.58,0,0,1,1.52,3.14l-3.39.36a12.71,12.71,0,0,0-1.94-3.17Z"/>
                  </g>
                </g>
                <g>
                  <path class="cls-41" d="M197.77,378.27l-24.84-4.33L118,376.52l.06.92.74,1.14,16.73,4,2.22.06Z"/>
                  <path class="cls-42" d="M118,376.7l19.74,5.9.19,5.32c-6.42-2.46-12.49-4.94-18.92-7.4C118.31,380.26,118.1,378.61,118,376.7Z"/>
                  <path class="cls-43" d="M118.26,379.14l4.7,2-3.77-.55-.19-.08c-.36-.13-.59-.65-.74-1.38Zm19.59,6.75-5.28-1.15,5.31,2.08Z"/>
                </g>
                <polygon class="cls-44" points="171.54 369.54 166.49 369.97 171.04 369.85 171.54 369.54"/>
                <g>
                  <polygon class="cls-45" points="112.99 401.23 118.15 400.86 136.78 411.3 133.01 413.27 113.31 402.55 112.99 401.23"/>
                  <path class="cls-46" d="M113.87,392.15a11.07,11.07,0,0,1,1,9.41l19.71,9.51s3-5.83-.75-10.59l-17.7-7.38Z"/>
                  <polygon class="cls-45" points="134.88 399.83 202.69 392.42 167.96 385.95 112.49 389.09 113.11 389.87 134.88 399.83"/>
                  <path class="cls-47" d="M113.87,392.15l0,.06h0l0,0,0,0h0v0l0,.05,0,.09h0l0,0,0,0h0v0l0,0,0,0,0,0,0,0v0h0l0,.07h0v0l0,0,0,0,0,0,0,0v0h0v0l0,0v0h0l0,.1,0,.11v0l0,.08v0l0,.11,0,.09v.05l0,.09h0v0l0,.1h0l0,.12h0v0l0,.1h0l0,.13,0,.14v0a2.41,2.41,0,0,1,.08.25c5.15,2.13,10.55,4.56,18,7.76a7,7,0,0,1,.87,2.38l-9.16-4.16,9.34,5.34a16.81,16.81,0,0,1,.08,2l-5.27-2.35,5.22,3.34a13.41,13.41,0,0,1-.21,1.66l.76.37h.05v0h0v0h0v0h0v0h0v-.06h0v-.06h0v-.07h0v-.09h0v-.08h0v-.17h0l0-.06v0l0-.07v0l0,0v0h0v-.08l0,0h0v-.11a10.5,10.5,0,0,0,.3-1.09v0l0-.1v-.07h0l0-.11h0v-.05l0-.12v0h0v-.21l0-.14v-.06l0-.14h0v0l0-.16v0l0-.16v-.05c0-.05,0-.11,0-.16v-.23a1,1,0,0,1,0-.17v-.44h0v-.24c0-.06,0-.11,0-.17v-.24h0c0-.06,0-.13,0-.19v-.05c0-.06,0-.12,0-.18V405c0-.06,0-.11,0-.16v0h0v0l0-.18v0l0-.2v0a1.29,1.29,0,0,0,0-.19h0c0-.06,0-.13,0-.19v0c0-.07,0-.13,0-.19v0a1.94,1.94,0,0,1,0-.2v0l-.06-.2v0l-.06-.19,0-.06-.07-.19v0c0-.06,0-.13-.08-.19v0a1.19,1.19,0,0,1-.08-.2l0,0-.1-.2v0l-.09-.18,0,0-.11-.19,0-.05-.12-.19,0,0-.12-.19h0l-.13-.2,0,0-.13-.19,0,0a2.43,2.43,0,0,0-.14-.2l-17.7-7.38-2.31-1Zm21.83,15V407s0,.11,0,.16Zm-.1-2.8,0-.19a1.29,1.29,0,0,1,0,.19Zm-20.17-7.85c0-.29-.1-.57-.16-.84l3,1.79-2.79-.95Zm.1,2.35,4.88,2.35-5-1.42C115.47,399.46,115.51,399.15,115.53,398.84Z"/>
                  <path class="cls-48" d="M134.49,398.75c22.68-2.46,45.19-4.17,68.2-6.33,3.43,2.72,4.13,10.92.91,14.26l-37.3,4.57-5.15.63-27,3.31C135.3,409.41,136.23,404.74,134.49,398.75Z"/>
                  <path class="cls-49" d="M134.16,398.57s5.54,10-.43,16.62L113,403.73l.23-2,20.05,9.91a12.66,12.66,0,0,0,.1-10.35l-20.53-9,0-2.77Z"/>
                  <g>
                    <path class="cls-50" d="M172.52,395.11a19.2,19.2,0,0,1,2.13,7.9,22.25,22.25,0,0,1-.84,7.32l-3.59.44a19.47,19.47,0,0,0,1.15-7.58,15.41,15.41,0,0,0-2.48-7.76Z"/>
                    <path class="cls-51" d="M152,397a21.53,21.53,0,0,1,2.41,9.07,20.32,20.32,0,0,1-.6,6.38l-3.54.46a17.39,17.39,0,0,0,.86-6.69,17.74,17.74,0,0,0-2.74-8.87Z"/>
                    <path class="cls-52" d="M190.41,393.54a16.69,16.69,0,0,1,2.48,7.89,18.79,18.79,0,0,1-.84,6.67l-3.65.44a15.9,15.9,0,0,0,1.21-6.92,13.12,13.12,0,0,0-3-7.74Z"/>
                  </g>
                </g>
                <g>
                  <polygon class="cls-53" points="140.16 385.91 203.95 380.03 204.5 379.44 172.93 373.94 117.46 376.54 118.78 378.58 140.16 385.91"/>
                  <polygon class="cls-54" points="139.94 383.27 138.49 385.24 138.84 396.6 140.8 398.85 205.38 393 204.5 379.44 139.94 383.27"/>
                  <path class="cls-55" d="M204.64,381.69,196,382.76l8.68-.08-.07-1Zm-64.37,10.87,16.5-.69-16.72,2.2.22-1.51Zm-.36-6.17,23.51-.69-23.71,2.06.2-1.37Zm65-1.16-46.62,4L205,387l-.12-1.74Zm.31,4.71-26.8,2.9,26.87-1.71Z"/>
                  <polygon class="cls-56" points="139.94 383.27 140.63 395.67 140.8 398.85 118.53 389.67 117.46 376.54 139.94 383.27"/>
                  <path class="cls-57" d="M117.65,378.88l5.31,2.27-5.19-.76-.12-1.51ZM140.53,394l-12.29-4.73,12.21,3.29.08,1.44Zm-22.1-5.64,9.1,3.12-9.2-4.26.1,1.14Zm-.47-5.75,12.43,4.82-12.3-3.13-.13-1.69Zm22.16,3.77-7.55-1.64,7.62,3Z"/>
                </g>
              </g>
              <g>
                <path class="cls-18" d="M174.4,414.67a4.49,4.49,0,0,0,4.18-1.53c.73-.84,3.47-5.7.64-8.5-2-2-3.14-.83-3.14-.83"/>
                <path class="cls-18" d="M154,416.76s2.58-9.49,6.76-10.28c4.39-.82,2.11,6.09-.08,11.2,0,0-2.22,4-5.46,3.83"/>
                <path class="cls-18" d="M171.29,406.61s2.4-4.1,4.2-4.47,4.06.39,3.15,4a24.68,24.68,0,0,1-5,9.68"/>
                <path class="cls-18" d="M167.09,418.74s4.6-5.78,5.85-9.22c1-2.79-2-3.18-4.05-2.64-3.14.83-6.22,8.74-6.22,8.74"/>
              </g>
            </g>
            <path class="cls-58" d="M154,460.1s7.15-2.36,8.71-12.9"/>
            <path class="cls-58" d="M118.33,427.92s-8.48,31.21-8.53,52.72"/>
            <path class="cls-58" d="M114.51,444.12s8.7-1.81,15.53-13.69"/>
            <g>
              <g>
                <g>
                  <g>
                    <path class="cls-59" d="M386.58,393.54s8.91-2.88,21.46-5.6c1.65-.36,7-4.42,10.88-11.18a34.72,34.72,0,0,0,2.06-4.19l.7.69a66.06,66.06,0,0,0,11,8.63l1.68,1.06s-.44.87-1.18,2.26c-2.69,5-9.26,16.53-12.9,17.17a96.48,96.48,0,0,1-34.56-.36"/>
                    <path class="cls-60" d="M434.42,382.49a25,25,0,0,0-1.77,2.75c-6.73-.3-10.9-5-13.55-8.41a33.83,33.83,0,0,0,2-4.18l.71.69a65.66,65.66,0,0,0,11,8.63Z"/>
                  </g>
                  <g>
                    <path class="cls-59" d="M389,392.86a24.87,24.87,0,0,1-7.74-6.92,47.42,47.42,0,0,0-5.23-6.27s-8-4.39-17.37,3.31c0,0,.12,3,4.24,1.89,0,0-7,4.4-5.26,9.31,0,0,1,1.33,2.56-.07,0,0-1.58,2.56.19,3.5s5.37-4,9-4.65a5.52,5.52,0,0,1,.78,1,10.53,10.53,0,0,0-5.26,5c-1.67,3.57,1.15,2.91,2.18,1.88s4.5-3.46,4.5-3.46A8.22,8.22,0,0,1,376,399c2,1.56,3.8,6.17,11.14,2.94"/>
                    <path class="cls-59" d="M360.34,394a11.79,11.79,0,0,1,7.75-5.76"/>
                    <path class="cls-59" d="M361.45,386a9.09,9.09,0,0,1,7.21-2.17"/>
                    <path class="cls-59" d="M369.27,382.93s-3.41,6.52,1.09,11.35"/>
                    <path class="cls-59" d="M382.9,389.35s-4,.51-7.51-3.84l-3.32-3.6a.74.74,0,0,0-.92-.15c-.51.35-1,1.42.2,4.65,0,0,2,4.53,5.24,5,0,0-1.28,2.33,1.15,5.15s3,3,5,2.2"/>
                  </g>
                </g>
                <path class="cls-10" d="M430.63,348.55s-15.23,19.07-16.84,25.95c0,0-1,4.9,11,11.05,0,0,3.62,2.52,7.52,1.92l7.36-17"/>
                <path class="cls-10" d="M444.24,341s-10.54,14.07-12.14,21c0,0-1,4.91,11,11,0,0,23.63-4.37,27.53-5l-4.58-21.74"/>
              </g>
              <g>
                <path class="cls-61" d="M449.13,347.12c.68-.35,3-2.54,8.15-1s-.6,8.2-.6,8.2l-5.52.44S443.4,350.07,449.13,347.12Z"/>
                <path class="cls-61" d="M465.86,383.09c-.09.43-.18.85-.28,1.27h0c-3.05,13-9.2,19.9-9.2,19.9a67.9,67.9,0,0,1-5.89-7.67,39.85,39.85,0,0,1-2.05-3.47,17.15,17.15,0,0,1-1.8-4.48c-.06-1.59-.08-3.12-.07-4.59s0-2.71.06-4c.12-3.66.39-6.91.74-9.78.18-1.45.38-2.8.6-4.06,1.37-8.07,3.23-12.07,3.1-12.63-.38-1.6,5.85-1.53,5.85-1.53a61.94,61.94,0,0,0,1.55,8.08c.23.9.48,1.82.73,2.74.73,2.67,1.56,5.37,2.37,7.91.29.88.58,1.74.85,2.58,1,3.07,2,5.73,2.61,7.48C465.54,382.26,465.86,383.09,465.86,383.09Z"/>
              </g>
              <path class="cls-62" d="M429.49,349.69c3.63-5.46,5.23-4.34,12.45-7.06-2.16,4.77-2.16,18.5-1,21.94s8,8,24-2.29c2.29-4.58,1.6-25.18,1.6-25.18,28.51,7.06,30.46,24.26,34.15,36s6.59,40.7,6.59,40.7c-31.89,20.25-60.11,9.15-60.11,9.15-10.84,11.45-10.49-23-16.38-42.79C427.2,368,427.2,353.12,429.49,349.69Z"/>
              <g>
                <path class="cls-23" d="M505,281.05c-3.1,24.27,13.39,39.21-8.31,53.62-6.22,4.14-13,4.41-19.13,3.81-3.39-.33-6.56-.92-9.3-1.27-16.2-2.07-18.64-30.95-15.69-54.1s12.54-54,28.74-51.94S508.27,255.5,505,281.05Z"/>
                <path class="cls-23" d="M456.93,318.75c.68,8.36-4.2,22.55-17.4,23.38-16.93,1.08-30.92-4.56-28.67-22.16.61-4.82,4-15.26,2.26-24.25-2.8-14.76,11.28-20.23,20.8-19C447,278.38,455.48,301.07,456.93,318.75Z"/>
              </g>
              <path class="cls-63" d="M462.24,331.5c2.1,5.44,1.37,11-1.88,14a11.59,11.59,0,0,1-6.41,2.56c-1.56.19-5.21.62-7.78-1.41-4.64-3.66-3.73-13.75-3.75-13.75h0Z"/>
              <g>
                <path class="cls-10" d="M455.47,347.81c-.49.22,5.5,6.11,5.5,6.11s6.4-3.43,7.56-15.13l-4.44-3.61S464.92,343.62,455.47,347.81Z"/>
                <path class="cls-10" d="M450.15,347.92c.5.17-3.38,8.05-3.38,8.05s-3.89-.1-6.89-11.46l2.05-4.65S441.59,344.9,450.15,347.92Z"/>
              </g>
              <g>
                <path class="cls-64" d="M485.24,392.92c2.18-.5-1.6-9.42-8-12.82s-13.16-5.66-14.23-3.65,2.33,8.21,8.71,11.61S481.43,393.8,485.24,392.92Z"/>
                <path class="cls-59" d="M413,369.3c4.2,6,11.73,14.5,11.73,14.5,7.53,9.28,28.28,13.54,28.28,13.54L464.57,380l2.53-3.8c14.41,1.73,17.12,11,17.12,11-1.22,2.27-2.45,4.39-3.67,6.38-11.09,18.09-21.57,25.1-21.57,25.1-13.39-1.2-31.85-17.67-37.54-22.31s-8.08-8.43-13-8.26"/>
                <g>
                  <path class="cls-65" d="M452.17,397.1s4.46,1.64,5.88,10.18"/>
                  <path class="cls-38" d="M452.3,396.75a7.55,7.55,0,0,1,2.46,2,12.18,12.18,0,0,1,1.64,2.63,18.36,18.36,0,0,1,1.05,2.88l.35,1.49.25,1.5-.34-1.48-.44-1.46a17,17,0,0,0-1.21-2.76,11.6,11.6,0,0,0-1.72-2.43,7.27,7.27,0,0,0-2.3-1.7Z"/>
                </g>
                <path class="cls-60" d="M484.28,386.87c-1.22,2.27-2.41,4.22-3.63,6.21-2.65-6.39-11.57-11-15.74-13l2.53-3.8C481.85,378,484.28,386.87,484.28,386.87Z"/>
                <path class="cls-10" d="M498,373.23,486.1,393a.16.16,0,0,1-.27,0c-10-14.4-23.07-16.72-23.07-16.72s7-10.21,10.25-16.67c0,0,1.24-7.65,6.14-11.42,0,0,6.4-4.25,12.13,2.62S500.1,368.15,498,373.23Z"/>
                <g>
                  <g>
                    <line class="cls-59" x1="403.55" y1="373.43" x2="404.93" y2="373.07"/>
                    <g>
                      <path class="cls-65" d="M393.69,373.53s1.64-.93,4.24,1.26"/>
                      <path class="cls-38" d="M393.69,373.53a1.79,1.79,0,0,1,1.15-.48,3,3,0,0,1,1.24.18,4,4,0,0,1,1.07.62,3.38,3.38,0,0,1,.78.94c-.78-.27-1.43-.61-2.11-.85a7.34,7.34,0,0,0-1-.31A4.45,4.45,0,0,0,393.69,373.53Z"/>
                    </g>
                    <path class="cls-38" d="M396.3,374.48a13.91,13.91,0,0,0,2.88.14,13.21,13.21,0,0,0,2.82-.38,16.14,16.14,0,0,0,2.58-1,24,24,0,0,0,2.47-1.4l.08.06a5.73,5.73,0,0,1-2.07,2.22,7.54,7.54,0,0,1-2.9.93,13.43,13.43,0,0,1-5.89-.45Z"/>
                    <path class="cls-59" d="M419.4,394.72c-4.38-3.64-5.42-4-5.42-4-1.32,1.92-9.64,2.55-13.68.49-3.73-1.92-2.93-4.2-2.93-4.2-4.08-3.21-1.82-5-1.82-5-3.93-3.09-1.16-5.34-1.16-5.34-1.72-1.46-2-4-.3-5.27s7.43,1,7.43,1l.83.2s1.58-7.23,7.23-5.43a14.19,14.19,0,0,1,7.42,5.1s5.16,10.54,10.7,14.28"/>
                    <path class="cls-59" d="M393.63,376a8.75,8.75,0,0,0,6.44,2.18"/>
                    <path class="cls-59" d="M395.12,381.44s1.22,1.79,6.09,1.76"/>
                    <path class="cls-59" d="M396.85,386.54s1.45,1.49,5.74,1.26"/>
                  </g>
                  <path class="cls-59" d="M408.45,372.52a52.18,52.18,0,0,0-6.1,0"/>
                </g>
              </g>
              <g>
                <g>
                  <g>
                    <g>
                      <path class="cls-66" d="M422.83,309c-2,.93-7.19-.07-10.61-4.11-10.88-12.87-3.63-18.29-.23-18.15,1.49.07,9.29,1.26,10.93,9.26"/>
                      <path class="cls-67" d="M422.83,309a5.67,5.67,0,0,1-3.11.35,10.94,10.94,0,0,1-3.06-.83,12.71,12.71,0,0,1-5.05-3.83,33.49,33.49,0,0,1-3.61-5.2,14.38,14.38,0,0,1-1.89-6.09,7.87,7.87,0,0,1,.54-3.21,6.3,6.3,0,0,1,2-2.59,5.48,5.48,0,0,1,3.07-1.17,11.35,11.35,0,0,1,3.16.61,12.34,12.34,0,0,1,5.35,3.34,10.94,10.94,0,0,1,2.69,5.62,11.11,11.11,0,0,0-2.93-5.39,12.2,12.2,0,0,0-5.27-3.06,10.74,10.74,0,0,0-3-.49,5,5,0,0,0-2.69,1.06,5.63,5.63,0,0,0-1.76,2.33,6.9,6.9,0,0,0-.47,2.92,14.14,14.14,0,0,0,1.83,5.77,33.2,33.2,0,0,0,3.49,5.11,13.58,13.58,0,0,0,4.72,3.82,12.34,12.34,0,0,0,2.91,1A6,6,0,0,0,422.83,309Z"/>
                    </g>
                    <path class="cls-68" d="M420.08,299s-.94-8.24-7.51-8.62-.91,12.75,5.53,15.15c0,0,2.38.58-.41-3.91S420.08,299,420.08,299Z"/>
                  </g>
                  <path class="cls-69" d="M419.05,306.47s4.53,7.29.51,9.1-3.4-6.75-3.37-7.24h0c.11.39,1.78,6.08,2.31,2.18Z"/>
                </g>
                <path class="cls-63" d="M485.49,306.54c-2.63,11.6-9,21-19.07,26.74A43.21,43.21,0,0,1,445,339.2c-4.62,0-8-3.09-13.51-6.93-7.86-5.47-14.38-15.35-14.27-36.51.06-12.34-6.8-19.79-1.14-29.67,7.24-12.63,27.15-24.39,39-22.87C476.22,245.92,490.41,284.88,485.49,306.54Z"/>
                <path class="cls-70" d="M481.47,300.59a19.55,19.55,0,0,0-8-22.45c-13-9-8.63-18.68-8.63-18.68s-8.12,11.47-20.4,9.64l1.59-3.22s-9.3,6.84-20.84,4.45c0,0,4.3-3.8,4.86-7.67,0,0-16.6,9.6-16.83,25,0,0-5.94-11.43,2.91-23.86s30.54-20.85,51-13.23,26.66,32.91,26.66,32.91Z"/>
              </g>
              <path class="cls-68" d="M462.76,335.68s-11.47,5-19.69,3.81c0-.29.63,2.77.63,2.77S451,343.38,463,336.9C463,335.82,462.76,335.68,462.76,335.68Z"/>
              <g>
                <path class="cls-23" d="M467.06,252.51s-4.12,13.69-20.55,15.54c0,0,4.55-5.73,5.15-10.4,0,0-4.56,11.93-24.69,11.86,0,0,5.78-4,4.94-9.77a64.87,64.87,0,0,0-12.45,9.6c-7.06,7.2-2.54,16.42-2.4,23.07,0,0-14.57-13.66-12.86-30.16s11.89-29.15,40.95-36.1,51,10.87,57.1,24.56,1.31,37.53,1.31,37.53L482,302s3.38-13.26-5.55-22.72C467,269.23,464.89,269.48,467.06,252.51Z"/>
                <path class="cls-23" d="M455.83,277.66h0a4.44,4.44,0,0,0,4.06,3c2.44.09,5.85.6,8.14,2.5C468,283.17,468.44,277.89,455.83,277.66Z"/>
                <path class="cls-23" d="M430.69,276.57h0a4.16,4.16,0,0,1-3.47,3.58c-2.47.4-5.86,1.33-7.87,3.53C419.35,283.68,418.23,278.51,430.69,276.57Z"/>
                <g>
                  <path class="cls-66" d="M437.93,297.18s1,4.54-1.79,7.86,1.7,8.37,7.64,4.12"/>
                  <path class="cls-71" d="M437.93,297.18a9.82,9.82,0,0,1-.09,5.4,7.53,7.53,0,0,1-1.27,2.47c-.15.2-.25.37-.37.53a1.93,1.93,0,0,0-.28.53,1.72,1.72,0,0,0-.18.57,1.64,1.64,0,0,0-.06.58,3,3,0,0,0,.93,2.13,4,4,0,0,0,2.19,1.07,8,8,0,0,0,5-1.3,7.16,7.16,0,0,1-5,1.87,4.38,4.38,0,0,1-2.61-1.13,3.68,3.68,0,0,1-1.19-2.63,4.15,4.15,0,0,1,1.09-2.65,8.09,8.09,0,0,0,1.28-2.23A11.7,11.7,0,0,0,437.93,297.18Z"/>
                </g>
                <g>
                  <path class="cls-72" d="M406.65,252s20.36-29.38,61.93-15.12c0,0,29.23,10.86,26.31,53.05,0,0,2.31,1.88,2.9-1.68,0,0,3.7-39-26.16-52.45-29.26-13.13-60,2.7-65,16.2"/>
                  <g>
                    <g>
                      <g>
                        <path class="cls-73" d="M492.42,250.88c-2.36,4-1.82,9-7.14,5.22S479.92,242,479.92,242s8.58-4.19,13.89-.4S494.78,246.86,492.42,250.88Z"/>
                        <path class="cls-73" d="M467.21,232.9c-2.35,4-6.7,5.52-1.39,9.31s13.89-.4,13.89-.4,0-10.34-5.36-14.13S469.57,228.88,467.21,232.9Z"/>
                      </g>
                      <ellipse class="cls-74" cx="473.51" cy="231.26" rx="0.95" ry="1.04" transform="translate(-25.72 62.54) rotate(-7.36)"/>
                      <ellipse class="cls-74" cx="475.95" cy="234.94" rx="0.95" ry="1.04" transform="translate(-26.17 62.88) rotate(-7.36)"/>
                      <ellipse class="cls-74" cx="470.47" cy="236.44" rx="0.95" ry="1.04" transform="translate(-26.4 62.19) rotate(-7.36)"/>
                      <path class="cls-74" d="M473.47,241a.9.9,0,0,1-1.31.29,1.12,1.12,0,0,1-.3-1.44.89.89,0,0,1,1.31-.29A1.11,1.11,0,0,1,473.47,241Z"/>
                      <ellipse class="cls-74" cx="468.44" cy="239.9" rx="0.95" ry="1.04" transform="translate(-26.86 61.96) rotate(-7.36)"/>
                      <path class="cls-74" d="M478.12,237a1.11,1.11,0,0,0,.3,1.44.91.91,0,0,0,.74.14c-.08-.62-.19-1.31-.34-2A.89.89,0,0,0,478.12,237Z"/>
                      <path class="cls-74" d="M477.23,232.69a1,1,0,0,0,.5.17,14.39,14.39,0,0,0-.77-1.64l0,0A1.1,1.1,0,0,0,477.23,232.69Z"/>
                      <path class="cls-74" d="M469.83,243.35h0a11.43,11.43,0,0,0,1.65.11.94.94,0,0,0-.33-.41A.9.9,0,0,0,469.83,243.35Z"/>
                      <path class="cls-74" d="M476.39,241.89a.9.9,0,0,0-1.31.29,1.13,1.13,0,0,0-.1.88c.66-.15,1.28-.32,1.83-.49A1.07,1.07,0,0,0,476.39,241.89Z"/>
                      <path class="cls-74" d="M470.08,231.27a1.11,1.11,0,0,0-.29-1.44.88.88,0,0,0-.81-.12c-.17.45-.35.93-.55,1.43a1.15,1.15,0,0,0,.34.42A.9.9,0,0,0,470.08,231.27Z"/>
                      <path class="cls-74" d="M470.8,228.1a.89.89,0,0,0,1.31-.29,1.13,1.13,0,0,0,.11-.84,1.83,1.83,0,0,0-1.86.24A1.08,1.08,0,0,0,470.8,228.1Z"/>
                      <path class="cls-74" d="M465.73,236.74a.89.89,0,0,0,1.31-.29,1.11,1.11,0,0,0-.3-1.44.91.91,0,0,0-.49-.17c-.32.4-.65.78-.95,1.13A1.08,1.08,0,0,0,465.73,236.74Z"/>
                      <path class="cls-74" d="M465,239.91a1.11,1.11,0,0,0-.29-1.44.89.89,0,0,0-.91-.08,2.3,2.3,0,0,0,.58,2A.86.86,0,0,0,465,239.91Z"/>
                      <ellipse class="cls-74" cx="491.19" cy="243.87" rx="0.95" ry="1.04" transform="translate(-27.19 64.91) rotate(-7.36)"/>
                      <ellipse class="cls-74" cx="486.96" cy="243.31" rx="0.95" ry="1.04" transform="translate(-27.15 64.36) rotate(-7.36)"/>
                      <ellipse class="cls-74" cx="488.15" cy="249.06" rx="0.95" ry="1.04" transform="translate(-27.87 64.56) rotate(-7.36)"/>
                      <path class="cls-74" d="M483.11,247.92a1.1,1.1,0,0,0,.3,1.43.89.89,0,0,0,1.31-.29,1.09,1.09,0,0,0-.3-1.43A.89.89,0,0,0,483.11,247.92Z"/>
                      <ellipse class="cls-74" cx="486.12" cy="252.51" rx="0.95" ry="1.04" transform="translate(-28.33 64.33) rotate(-7.36)"/>
                      <path class="cls-74" d="M484.55,241.59a.9.9,0,0,1-1.31.29,1.11,1.11,0,0,1-.43-.7c.55-.17,1.17-.34,1.83-.49A1.13,1.13,0,0,1,484.55,241.59Z"/>
                      <path class="cls-74" d="M488.48,240.71a1,1,0,0,1-.34-.43,11.81,11.81,0,0,1,1.67.11l0,0A.89.89,0,0,1,488.48,240.71Z"/>
                      <path class="cls-74" d="M482.69,252.52h0a15,15,0,0,1-.77-1.62,1,1,0,0,1,.49.17A1.11,1.11,0,0,1,482.69,252.52Z"/>
                      <path class="cls-74" d="M481.21,245.33a1.12,1.12,0,0,1,.3,1.44.91.91,0,0,1-.69.45c-.15-.72-.26-1.41-.34-2A.89.89,0,0,1,481.21,245.33Z"/>
                      <path class="cls-74" d="M492.59,247.32a.89.89,0,0,1,1.31-.29,1.06,1.06,0,0,1,.43.76c-.31.36-.63.73-1,1.14a.91.91,0,0,1-.49-.17A1.11,1.11,0,0,1,492.59,247.32Z"/>
                      <path class="cls-74" d="M494.91,245.3a1.12,1.12,0,0,1-.3-1.44,1,1,0,0,1,.65-.45,2.3,2.3,0,0,1,.57,2A.88.88,0,0,1,494.91,245.3Z"/>
                      <path class="cls-74" d="M489.84,253.94a1.12,1.12,0,0,1-.3-1.44.9.9,0,0,1,1.31-.29,1,1,0,0,1,.34.43l-.54,1.42A.88.88,0,0,1,489.84,253.94Z"/>
                      <path class="cls-74" d="M487.51,256a.89.89,0,0,1,1.31-.29,1.1,1.1,0,0,1,.45.88,1.85,1.85,0,0,1-1.87.22A1.15,1.15,0,0,1,487.51,256Z"/>
                    </g>
                    <g>
                      <g>
                        <g>
                          <path class="cls-75" d="M472.33,234.1c-1.24,1.31,4.46,5,4.46,5S473.56,232.79,472.33,234.1Z"/>
                          <path class="cls-75" d="M471.37,238.56c-.33,1.22,5,1.75,5,1.75S471.71,237.34,471.37,238.56Z"/>
                        </g>
                        <g>
                          <path class="cls-75" d="M489.32,246.23c-.58,1.77-6-2.44-6-2.44S489.9,244.45,489.32,246.23Z"/>
                          <path class="cls-75" d="M486,249c-.87.83-3.51-4.35-3.51-4.35S486.89,248.18,486,249Z"/>
                        </g>
                      </g>
                      <path class="cls-76" d="M476.79,241.21a2,2,0,0,0,.52,2.56l2,1.4a1.59,1.59,0,0,0,2.33-.52l1.24-2.11a2,2,0,0,0-.53-2.56l-2-1.4a1.59,1.59,0,0,0-2.33.52Z"/>
                    </g>
                  </g>
                </g>
                <g>
                  <g>
                    <g>
                      <path class="cls-66" d="M484.31,310.27c2,.77,7.16-.62,10.26-4.91,9.88-13.65,2.24-18.51-1.14-18.11-1.48.18-9.17,2-10.2,10.06"/>
                      <path class="cls-67" d="M484.31,310.27a6,6,0,0,0,3.05-.18,12,12,0,0,0,2.83-1.2,13.63,13.63,0,0,0,4.41-4.17,32.58,32.58,0,0,0,3.1-5.36,14,14,0,0,0,1.38-5.89,6.92,6.92,0,0,0-.68-2.88,5.61,5.61,0,0,0-1.94-2.19,4.93,4.93,0,0,0-2.76-.85,10.78,10.78,0,0,0-2.94.71,12.37,12.37,0,0,0-5,3.45,11.23,11.23,0,0,0-2.51,5.6,11.07,11.07,0,0,1,2.25-5.81,12.43,12.43,0,0,1,5.09-3.73,11,11,0,0,1,3.1-.85,5.54,5.54,0,0,1,3.15.93,6.32,6.32,0,0,1,2.19,2.43,7.63,7.63,0,0,1,.78,3.16,14.25,14.25,0,0,1-1.42,6.22,33,33,0,0,1-3.2,5.45,12.68,12.68,0,0,1-4.75,4.21,10.88,10.88,0,0,1-3,1.06A5.6,5.6,0,0,1,484.31,310.27Z"/>
                    </g>
                    <path class="cls-68" d="M486.29,300.11s.32-8.28,6.84-9.16,1.87,12.65-4.36,15.53c0,0-2.33.76.11-3.93S486.29,300.11,486.29,300.11Z"/>
                  </g>
                  <path class="cls-69" d="M487.88,307.45s-4,7.62.19,9.12,2.88-7,2.81-7.47c0,0,0,0,0,0-.08.39-1.32,6.19-2.14,2.34Z"/>
                </g>
                <ellipse class="cls-77" cx="457.96" cy="295.76" rx="7.35" ry="8.08"/>
                <g>
                  <ellipse class="cls-78" cx="455.88" cy="298.64" rx="4.37" ry="4.83"/>
                  <ellipse class="cls-29" cx="459.64" cy="296.05" rx="1.12" ry="1.27"/>
                </g>
                <ellipse class="cls-77" cx="427.34" cy="296.05" rx="6.46" ry="7.42"/>
                <g>
                  <path class="cls-78" d="M430.69,299.69a4.19,4.19,0,0,1-2.47,3.48,4.39,4.39,0,0,1-3.32-.25,4.9,4.9,0,0,1-3-2.89,3.35,3.35,0,0,1-.13-1.09,4.4,4.4,0,0,1,1.05-2.7,4.51,4.51,0,0,1,4.06-1.53A4.73,4.73,0,0,1,430.69,299.69Z"/>
                  <ellipse class="cls-29" cx="429.92" cy="296.27" rx="1.06" ry="1.15" transform="translate(-53.8 99.75) rotate(-12.46)"/>
                </g>
                <g>
                  <path class="cls-79" d="M456.39,314.34c-.13.28-1.07,2.23-1.4,2.75-1.51,2.41-4.57,8.19-8.62,10a11.76,11.76,0,0,1-8.92.54c-3.58-1.36-4-4.71-6-8.68-.48-1-1.94-2.91-1.67-2.86,2.05.41,6.36,2.94,14.64,2.11,6.36-.63,7.68-2.26,9-2.9a11.8,11.8,0,0,1,2-.66C455.45,314.7,456.41,314.29,456.39,314.34Z"/>
                  <path class="cls-28" d="M441.93,326.05c-2.63-.16-6.4-1-7.64-1.89,2.2-1.5,6-2,7.68-1.08.06,0,.12.12.19.11a9.4,9.4,0,0,1,7.41,2C448,326.05,445.58,326.28,441.93,326.05Z"/>
                  <path class="cls-80" d="M456.43,314.16c-1.51,2.89-4.32,11.19-8.67,13.11-3,1.33-8.93,2-11.67.13-3.94-2.73-5.73-9.36-6.17-11,2.44,2.48,3,9.09,11.44,9.22C451.52,325.77,454.78,316.31,456.43,314.16Z"/>
                  <path class="cls-81" d="M431.73,317c.14.06,8.24,3.45,19.57-.35,0,0-2.42,4.18-9.14,4.58C434.47,321.7,431.73,317,431.73,317Z"/>
                  <path class="cls-68" d="M429.92,314.16s-3.2,1.56-1,4.1"/>
                  <path class="cls-68" d="M455.47,312.43s4.26.33,2.36,3.81C457.83,316.24,458.39,314,455.47,312.43Z"/>
                  <path class="cls-82" d="M457,314.19a33.42,33.42,0,0,1-15.12,4.33c-7.77.33-11-1.64-12.31-2.54.63,1.54-.27-.06,0,0a42.07,42.07,0,0,0,15.42.56c6.54-.85,10.7-1.94,12.06-2.66C457.24,313.79,457,314.07,457,314.19Z"/>
                </g>
                <path class="cls-83" d="M444.33,329.87s-3.45-2.33-5.57,0"/>
                <path class="cls-33" d="M422.69,290.91a9.36,9.36,0,0,1,5.62.41,9.84,9.84,0,0,1,5.41,5.84,7.67,7.67,0,0,0-4.29-8.08,6.06,6.06,0,0,0-6.74,1.83Z"/>
                <path class="cls-33" d="M452.92,289.88a11.85,11.85,0,0,1,6.57,1.26,12.18,12.18,0,0,1,5.64,6.35,8.62,8.62,0,0,0-.83-5.69,7.45,7.45,0,0,0-3.64-3.48,7.2,7.2,0,0,0-5-.18A7,7,0,0,0,452.92,289.88Z"/>
              </g>
            </g>
            <g>
              <polygon class="cls-84" points="311.08 546.99 267.35 605.36 607.25 605.36 550.41 549.9 311.08 546.99"/>
              <path class="cls-85" d="M284,605.36c-3.58,0-6.47-3.26-6.47-7.29V477.54c0-4,2.89-7.29,6.47-7.29s6.48,3.26,6.48,7.29V598.07C290.5,602.1,287.6,605.36,284,605.36Z"/>
              <path class="cls-86" d="M317.56,573.62c-3.58,0-6.48-3.25-6.48-7.28V445.8c0-4,2.9-7.28,6.48-7.28s6.48,3.25,6.48,7.28V566.34C324,570.37,321.14,573.62,317.56,573.62Z"/>
              <rect class="cls-87" x="277.55" y="493.88" width="12.95" height="26.73"/>
              <path class="cls-85" d="M578.58,605.36c3.58,0,6.48-3.26,6.48-7.29V477.54c0-4-2.9-7.29-6.48-7.29s-6.47,3.26-6.47,7.29V598.07C572.11,602.1,575,605.36,578.58,605.36Z"/>
              <path class="cls-86" d="M545,573.62c3.58,0,6.48-3.25,6.48-7.28V445.8c0-4-2.9-7.28-6.48-7.28s-6.47,3.25-6.47,7.28V566.34C538.57,570.37,541.47,573.62,545,573.62Z"/>
              <rect class="cls-87" x="572.11" y="493.88" width="12.95" height="24.3"/>
              <path class="cls-88" d="M268.53,457.07H597.16a0,0,0,0,1,0,0v56.73a.55.55,0,0,1-.55.55H269.08a.55.55,0,0,1-.55-.55V457.07A0,0,0,0,1,268.53,457.07Z"/>
              <polygon class="cls-87" points="268.54 470.05 597.16 466.84 597.16 457.06 268.54 457.06 268.54 470.05"/>
              <path class="cls-89" d="M614,452.43H251.73v10a2.21,2.21,0,0,0,2.2,2.2H611.77a2.2,2.2,0,0,0,2.19-2.2Z"/>
              <path class="cls-90" d="M610.54,455.66H255.15a3.42,3.42,0,0,1-3.06-4.94l25.46-35.83A3.4,3.4,0,0,1,280.6,413H587.39a3.43,3.43,0,0,1,3.06,1.88l23.15,35.84A3.42,3.42,0,0,1,610.54,455.66Z"/>
            </g>
            <g>
              <path class="cls-91" d="M290.33,429.18l-3.07,1.53,45.21,15.35,23.2-14s.77-1.6-3.25-2.39S292.28,426.45,290.33,429.18Z"/>
              <g>
                <path class="cls-92" d="M352.69,421.61,332.47,434l-43.31-14,21.92-10.89Zm-20.22,21.51-43.31-14.33,2-1c-.09.23-.18.46-.29.69l41.62,13.65,18.95-11a8.84,8.84,0,0,0,.25-7.65l.68-.43q2.43,4.11-.52,8.83Z"/>
                <path class="cls-93" d="M332.47,435.55l19.2-12.06a8.84,8.84,0,0,1-.25,7.65l-18.95,11A8.53,8.53,0,0,0,332.47,435.55Z"/>
                <path class="cls-94" d="M290.85,422l41.62,13.54a8.53,8.53,0,0,1,0,6.59l-41.62-13.65c.11-.23.2-.46.29-.69A7.23,7.23,0,0,0,290.85,422Z"/>
                <path class="cls-95" d="M289.16,420l43.31,14v1.56L290.85,422l-1.69-.55Zm0,8.81,43.31,14.33v1.42L289.16,430Z"/>
                <path class="cls-96" d="M332.47,434l20.22-12.38q3.66,3.72,0,10.92l-20.22,12v-1.42l19.36-11.23q3-4.72.52-8.83l-.68.43-19.2,12.06Z"/>
              </g>
            </g>
            <g>
              <path class="cls-91" d="M359.79,440.08l-4.06,5.05s37.44-3.77,56.78-1.38c0,0,33.88-.81,56.58,1.11,0,0-.46-1.84-4.16-5.7C464.93,439.16,378.22,430.19,359.79,440.08Z"/>
              <path class="cls-97" d="M412.75,441.94c16.29-3.39,37.36-2.55,53.13,1.33a6,6,0,0,0,.33-.62l-18-26.63c-8.48-5.5-27.53-4.39-35.48.16Z"/>
              <path class="cls-98" d="M412.75,440.33c16.29-3.4,36.2-3.08,52,.8.26-.35,1.6-2.38,1.68-2.64L448.23,414c-8.48-5.5-27.53-4.4-35.48.16Z"/>
              <g>
                <path class="cls-99" d="M412.75,438.21c15.57-5.15,38.13-4.35,53.65.28L448.23,414c-8.48-5.5-27.53-4.4-35.48.16Z"/>
                <path class="cls-100" d="M466.41,438.68l-.09,0c-16.57-4.93-39-5.06-53.45-.28a.33.33,0,0,1-.22,0c-.07,0-.14-.1-.14-.16v-24a.16.16,0,0,1,.08-.15c8.18-4.69,27.37-5.62,35.79-.16l.05.05,18.17,24.47a.16.16,0,0,1,0,.22A.33.33,0,0,1,466.41,438.68Zm-29.05-4.17a105.9,105.9,0,0,1,28.51,3.62l-17.81-24c-8.27-5.33-27-4.43-35.09.12v23.65C420.26,435.56,428.84,434.55,437.36,434.51Z"/>
              </g>
              <g>
                <path class="cls-101" d="M412.75,438.21c15-6.18,37.67-6.69,53.95-1.69L448.23,414c-8.48-5.5-27.53-4.4-35.48.16Z"/>
                <path class="cls-100" d="M412.76,438.4l-.11,0c-.07,0-.14-.1-.14-.16v-24a.16.16,0,0,1,.08-.15c8.18-4.69,27.37-5.62,35.79-.16l.05.05,18.47,22.5a.16.16,0,0,1,0,.22.27.27,0,0,1-.26.06c-16.51-5.08-39.11-4.37-53.75,1.68Zm.21-24.13v23.65c14.56-5.88,36.72-6.62,53.15-1.77l-18.06-22C439.79,408.81,421.07,409.71,413,414.27Z"/>
              </g>
              <g>
                <path class="cls-29" d="M412.75,438.21c15.59-8.52,37.32-9.31,54.1-4.42l-18.43-20.2c-8.47-5.5-27.72-4-35.67.59Z"/>
                <path class="cls-100" d="M412.76,438.4l-.11,0c-.08,0-.14-.1-.14-.16v-24a.16.16,0,0,1,.08-.15c8.37-4.8,27.69-6,36-.59L467,433.68a.16.16,0,0,1,0,.22.26.26,0,0,1-.27.07c-18.17-5.29-39.33-3.56-53.9,4.41A.22.22,0,0,1,412.76,438.4Zm.21-24.13v23.59c14.48-7.76,35.25-9.49,53.25-4.45l-18-19.69C440.12,408.47,421.26,409.6,413,414.27Z"/>
              </g>
              <path class="cls-97" d="M412.75,441.94c-16.3-3.25-37.33-2.21-53.09,1.81-.07-.12-.27-.47-.33-.62l17.89-26.79c8.46-5.57,27.56-4.64,35.53-.16Z"/>
              <path class="cls-98" d="M412.75,440.33c-16.3-3.25-36.18-2.76-51.93,1.26-.26-.34-1.62-2.36-1.71-2.62L381.43,415c8.47-5.57,23.35-5.33,31.32-.85Z"/>
              <g>
                <path class="cls-99" d="M412.75,438.21c-15.59-5-38.13-4-53.64.76L382,415c8.46-5.58,22.77-5.33,30.74-.85Z"/>
                <path class="cls-100" d="M359.12,439.16a.24.24,0,0,1-.19-.08.16.16,0,0,1,0-.22l22.9-23.94c8.83-5.82,23.46-5.16,31-.9.06,0,.12.1.12.16v24a.2.2,0,0,1-.11.17.33.33,0,0,1-.22,0c-14.43-4.65-36.9-4.32-53.45.76Zm23.06-24-22.39,23.41c14.24-4.19,36.58-5.73,52.72-.64V414.28C405.05,410.14,390.81,409.49,382.18,415.16Z"/>
              </g>
              <g>
                <path class="cls-101" d="M412.75,438.21c-15-6-37.94-6.91-54.21-1.76L379,414.5c8.47-5.58,25.82-4.8,33.79-.32Z"/>
                <path class="cls-100" d="M412.76,438.4l-.11,0c-15.18-6.13-37.89-6.86-54-1.75a.29.29,0,0,1-.27-.06.17.17,0,0,1,0-.23l20.43-21.95c8.59-5.66,25.94-4.95,34.08-.37.06,0,.12.1.12.16v24a.2.2,0,0,1-.11.17Zm-30.39-5.53c10.74-.05,21.59,1.67,30.14,5.06V414.28c-7.88-4.37-25.11-5.08-33.38.35L359.2,436.05A83,83,0,0,1,382.37,432.87Z"/>
              </g>
              <g>
                <path class="cls-29" d="M412.75,438.21c-15.31-8.72-39.13-9.52-54.22-5l18.8-19.27c8.46-5.58,27.45-4.21,35.42.27Z"/>
                <path class="cls-100" d="M412.76,438.4a.2.2,0,0,1-.11,0c-15.78-9-39.63-9.31-54-5a.26.26,0,0,1-.26-.06.16.16,0,0,1,0-.23l18.8-19.27c3.89-2.57,10.5-3.93,18.07-3.71,6.93.21,13.69,1.72,17.64,3.94.06,0,.12.1.12.16v24a.18.18,0,0,1-.11.17Zm-34.06-8.09c11.61-.05,24.15,2.16,33.81,7.54V414.28c-8.24-4.56-27-5.52-35-.24l-18.29,18.74A75.64,75.64,0,0,1,378.7,430.31Z"/>
              </g>
              <path class="cls-102" d="M446.36,415a.25.25,0,0,0-.22-.32c-10.61-2.31-21-1.62-29.26,1.95a.23.23,0,0,0-.13.35.31.31,0,0,0,.28.13.4.4,0,0,0,.15,0c8.12-3.5,18.34-4.18,28.79-1.9A.33.33,0,0,0,446.36,415Zm2.5,2.44a.26.26,0,0,0-.24-.31c-11.45-2.12-21.53-1.23-31.72,2.8a.24.24,0,0,0-.15.35.31.31,0,0,0,.29.14.36.36,0,0,0,.14,0c10.05-4,20-4.86,31.3-2.76A.33.33,0,0,0,448.86,417.39ZM451.4,420a.26.26,0,0,0-.25-.3c-13.6-2.12-20.84-1.84-34.42,3.93a.24.24,0,0,0-.14.35.34.34,0,0,0,.29.13.4.4,0,0,0,.15,0c13.41-5.69,20.56-6,34-3.87A.33.33,0,0,0,451.4,420ZM417,427.59a.34.34,0,0,0,.28.14.32.32,0,0,0,.16,0c15-6.84,23.2-6.22,35.61-4.67a.33.33,0,0,0,.37-.22c0-.14-.09-.27-.27-.3-12.54-1.56-20.88-2.19-36,4.74A.23.23,0,0,0,417,427.59Zm0,3.93a.31.31,0,0,0,.28.14l.15,0c14.24-6.29,25.05-6.81,38.78-5a.32.32,0,0,0,.37-.22.26.26,0,0,0-.26-.29c-13.87-1.85-24.79-1.32-39.19,5A.23.23,0,0,0,417,431.52Z"/>
              <path class="cls-102" d="M380.69,415.13c10.45-2.28,20.67-1.6,28.79,1.9a.33.33,0,0,0,.15,0,.31.31,0,0,0,.28-.13.24.24,0,0,0-.13-.35c-8.26-3.57-18.66-4.26-29.26-1.95a.25.25,0,0,0-.22.32A.32.32,0,0,0,380.69,415.13Zm-2.51,2.46c11.3-2.1,21.25-1.22,31.3,2.76a.34.34,0,0,0,.14,0,.32.32,0,0,0,.29-.14.24.24,0,0,0-.15-.35c-10.19-4-20.27-4.92-31.73-2.8a.26.26,0,0,0-.23.31A.33.33,0,0,0,378.18,417.59Zm-2.55,2.63c13.44-2.09,20.59-1.82,34,3.87a.4.4,0,0,0,.15,0,.33.33,0,0,0,.28-.13.24.24,0,0,0-.13-.35c-13.58-5.77-20.83-6.05-34.42-3.93a.26.26,0,0,0-.26.3A.35.35,0,0,0,375.63,420.22Zm33.92,7c-15.14-6.93-23.48-6.3-36-4.74-.17,0-.29.16-.26.3a.32.32,0,0,0,.36.22c12.41-1.55,20.65-2.17,35.62,4.67a.29.29,0,0,0,.16,0,.34.34,0,0,0,.28-.14A.24.24,0,0,0,409.55,427.24Zm0,3.93c-14.4-6.36-25.33-6.89-39.19-5a.26.26,0,0,0-.26.29.32.32,0,0,0,.37.22c13.72-1.82,24.54-1.3,38.78,5l.15,0a.34.34,0,0,0,.28-.14A.23.23,0,0,0,409.53,431.17Z"/>
            </g>
          </g>
        </g>
      </g>
    </g>
  </g>
</svg>
