<?xml version="1.0" encoding="utf-8"?>
<!-- Generator: Adobe Illustrator 25.2.3, SVG Export Plug-In . SVG Version: 6.00 Build 0)  -->
<svg version="1.1" id="a" xmlns="http://www.w3.org/2000/svg" xmlns:xlink="http://www.w3.org/1999/xlink" x="0px" y="0px"
	 viewBox="0 0 614.8 580.3" style="enable-background:new 0 0 614.8 580.3;" xml:space="preserve">
<style type="text/css">
	.st0{opacity:0.2;fill:#010101;enable-background:new    ;}
	.st1{fill:#1DB897;stroke:#FFFFFF;stroke-width:5;}
	.st2{clip-path:url(#SVGID_2_);}
	.st3{fill:#8BD2D3;}
	.st4{fill:#834021;}
	.st5{fill:#C68133;}
	.st6{fill:#1A8AB5;}
	.st7{fill:#874B31;stroke:#69331E;}
	.st8{fill:#2B3880;}
	.st9{fill:#E26FAB;stroke:#AF2086;stroke-width:0.75;}
	.st10{fill:#FBF179;}
	.st11{fill:#C6268F;}
	.st12{fill:#D45BA2;stroke:#AF2086;stroke-width:0.75;}
	.st13{fill:#1B1715;stroke:#301E11;}
	.st14{fill:#FCD3CA;stroke:#AF8681;}
	.st15{fill:#E3AE9F;}
	.st16{fill:#F4DFDB;stroke:#4B2911;}
	.st17{fill:#342618;}
	.st18{fill:#E95042;stroke:#874C48;stroke-width:0.25;}
	.st19{fill:#F8D9D1;stroke:#4B2911;}
	.st20{fill:#B26B52;}
	.st21{fill:#E8D861;stroke:#BBA73D;}
	.st22{fill:#F9F6F2;stroke:#333232;}
	.st23{fill:#3E2E18;stroke:#3E2E18;}
	.st24{fill:#F9F6F2;}
	.st25{fill:#3E2E18;}
	.st26{fill:#F58878;}
	.st27{fill:#7B302C;}
	.st28{fill:#C59BC7;stroke:#463424;}
	.st29{fill:#ED7BAD;}
	.st30{fill:#643A55;}
	.st31{fill:#F3C4A3;}
	.st32{opacity:0.38;fill:#6E6F71;enable-background:new    ;}
	.st33{fill-rule:evenodd;clip-rule:evenodd;fill:#AACCEB;}
	.st34{fill-rule:evenodd;clip-rule:evenodd;fill:#FFFFFF;}
	.st35{fill-rule:evenodd;clip-rule:evenodd;fill:#CFECF7;}
	.st36{fill:#FFFFFF;stroke:#B6C8E8;}
	.st37{fill:#DC9E8F;}
	.st38{fill:#C59BC7;stroke:#463424;stroke-width:0.5;}
	.st39{fill:#FFFFFF;}
	.st40{fill:#3A4D61;}
	.st41{fill:#7C7D7D;}
	.st42{fill:#E35434;}
	.st43{fill:#9ACD67;}
	.st44{fill:#F7F8F8;stroke:#7F7D74;}
	.st45{opacity:0.52;}
	.st46{fill:#7F7D74;}
	.st47{fill:#ADDFE3;}
	.st48{fill:#2756A3;stroke:#2E2E79;}
	.st49{fill:#F7E1DA;}
	.st50{fill:#C59BC7;}
	.st51{fill:#463424;}
</style>
<g>
	<path class="st0" d="M309.7,568.6c-152.1,0-274.5-113.8-274.5-254.2S158.4,61.8,310.6,61.8S584,173.9,584,314.4
		S461.8,568.6,309.7,568.6L309.7,568.6z"/>
	<g>
		<path class="st1" d="M299.9,554.1c-148.7,0-269.2-109-269.2-243.4S151.2,67.4,299.9,67.4s269.2,109,269.2,243.4
			S448.6,554.1,299.9,554.1L299.9,554.1z"/>
		<g>
			<defs>
				<path id="SVGID_1_" d="M299.9,551.8c-147.2,0-266.5-107.9-266.5-241s119.3-241,266.5-241s266.5,107.9,266.5,241
					S447.1,551.8,299.9,551.8L299.9,551.8z"/>
			</defs>
			<clipPath id="SVGID_2_">
				<use xlink:href="#SVGID_1_"  style="overflow:visible;"/>
			</clipPath>
			<g class="st2">
				<path class="st0" d="M321.3,557.1c-152.1,0-274.5-113.8-274.5-254.2S170.1,50.3,322.2,50.3s273.5,112.1,273.5,252.5
					S473.5,557.1,321.3,557.1L321.3,557.1z"/>
				<path class="st1" d="M311.5,542.6c-148.7,0-269.2-109-269.2-243.4S162.9,55.9,311.5,55.9s269.2,109,269.2,243.4
					S460.2,542.6,311.5,542.6L311.5,542.6z"/>
				<ellipse class="st3" cx="290.3" cy="293.2" rx="314.5" ry="273"/>
				<g>
					<path class="st4" d="M100,280.9l26.2,153.8l114.1-10.4l-6.8-172C233.6,252.3,110.5,224,100,280.9L100,280.9z"/>
					<path class="st5" d="M113,280.3l26.2,153.8l114.1-10.4l-6.8-172C246.6,251.7,123.5,223.4,113,280.3L113,280.3z"/>
				</g>
				<g>
					<path class="st4" d="M360.9,264l26.2,153.8l114.1-10.4l-6.8-172C494.4,235.3,371.3,207,360.9,264L360.9,264z"/>
					<path class="st5" d="M373.9,263.4l26.2,153.8l114.1-10.4l-4.1-153.3c-0.4-9.1-9.1-20.1-18-21.6
						C458.6,226.4,382.1,219,373.9,263.4L373.9,263.4z"/>
				</g>
				<g>
					<path class="st6" d="M183.4,411.3l96.2-6.5c4.3,7.6,42.6,85.6,37.6,93.7c-4.6,7.5-64.1,22-121.9,16.3
						c-57.7-5.7-53.1-18.4-53.1-18.4s37.2-85,35.3-87.1"/>
					<path class="st7" d="M273.3,391.7v10.8c0,0-13.3,20.1-46.3,19.3c-33.1-0.8-50.4-8.8-50.4-8.8l1.7-7.7L273.3,391.7z"/>
					<path class="st6" d="M215.8,407.8C215.8,407.8,215.7,407.8,215.8,407.8c-0.2,0.5-0.7,11.7-0.7,12.3c0,0,0,0,0,0l4.5,1.2
						c0,0,0,0,0.1,0l0.7-12.8C220.6,408.2,216.1,407.8,215.8,407.8L215.8,407.8z"/>
					<path d="M255.4,407.3c-0.6,0-4,1-4,1c-0.2,0,0,13.6,0,13.6l5.1-1.1L255.4,407.3L255.4,407.3z"/>
					<path class="st8" d="M192.1,437.9c-0.6,0.1-1.3,0.1-1.9,0.2l0.1-0.1c-1.2,8.2-7.6,16.1-16.1,17.4c2-0.7,3.8-1.6,5.5-2.8
						c5-3.5,8.6-8.9,10.3-14.7l0-0.1C190.7,437.8,191.4,437.8,192.1,437.9L192.1,437.9z"/>
					<g>
						<path d="M265.5,426.4c0,0-1.9-4.8-0.9-2.4c1,2.4,24.3,97,24.3,97"/>
						<path class="st8" d="M265.3,426.5c-0.4-1-0.8-2-1.2-3.1c0.1,0.2-0.3-0.3,0.4-0.2c0,0.1,0.1,0.1,0.1,0.2
							c0.8,1.9,1.9,7.2,2.5,9.2c5.8,22.8,16.1,65.1,21.8,88.4c-5.9-23.4-16.3-65.3-22.2-88.3c-0.6-2-1.8-7.3-2.5-9.2l0-0.1
							c0,0,0,0,0,0c0.8,0.1,0.3-0.4,0.4-0.2c0.4,1,0.8,2,1.2,3L265.3,426.5L265.3,426.5L265.3,426.5z"/>
					</g>
					<g>
						<path d="M241.3,429.3c0,0-1.1-5-0.5-2.5c0.6,2.5,9.4,99.6,9.4,99.6"/>
						<path class="st8" d="M241.1,429.4c-0.2-1.1-0.5-2.1-0.7-3.2c0.2,0.1-0.4-0.2,0.5-0.2c0,0.1,0,0.1,0.1,0.2
							c0.5,2,0.8,7.4,1.1,9.5c2.3,23.5,6.1,66.9,8.3,90.7c-2.3-24.1-6.3-67.1-8.7-90.7c-0.3-2.1-0.7-7.5-1.1-9.4l0-0.1c0,0,0,0,0,0
							c0.9,0,0.3-0.2,0.4-0.1c0.2,1,0.5,2.1,0.7,3.2L241.1,429.4L241.1,429.4L241.1,429.4z"/>
					</g>
					<g>
						<path d="M208.5,429.4c0,0-0.1-5.2,0-2.6S198,526.4,198,526.4"/>
						<path class="st8" d="M208.2,429.5c0-1.1-0.1-2.2,0-3.3c0.1-0.1-0.3,0.1,0.3-0.2c0.3,0.4,0.1,0.1,0.2,0.2c0,0.1,0,0.3,0,0.4
							c-2.4,27.8-7.8,71.8-10.7,99.9c2.9-28.3,7.9-71.9,10.3-99.9v-0.2l0-0.1v0c0.1,0.1-0.1-0.2,0.1,0.2c0.6-0.3,0.2-0.1,0.3-0.2
							c0,1.1,0,2.2,0.1,3.3L208.2,429.5L208.2,429.5z"/>
					</g>
				</g>
				<g>
					<g>
						<g>
							<path class="st9" d="M305.3,137.5c3.4-6,10.7-9.2,0.8-13c-9.9-3.7-24.1,4.2-24.1,4.2s1.9,14,11.8,17.7
								C303.6,150.2,301.9,143.5,305.3,137.5L305.3,137.5z"/>
							<path class="st9" d="M258.2,119.7c3.4-6,1.6-12.7,11.5-8.9c9.9,3.7,11.8,17.7,11.8,17.7s-14.2,7.9-24.1,4.2
								C247.5,129,254.8,125.8,258.2,119.7L258.2,119.7z"/>
						</g>
						
							<ellipse transform="matrix(0.9911 -0.1329 0.1329 0.9911 -14.813 35.9173)" class="st10" cx="261.6" cy="128.9" rx="1.7" ry="1.4"/>
						
							<ellipse transform="matrix(0.9911 -0.1329 0.1329 0.9911 -14.7779 36.8784)" class="st10" cx="268.8" cy="129.1" rx="1.7" ry="1.4"/>
						
							<ellipse transform="matrix(0.9911 -0.1329 0.1329 0.9911 -13.7346 36.4345)" class="st10" cx="266" cy="121.1" rx="1.7" ry="1.4"/>
						<path class="st10" d="M274.9,121.3c0.4-0.7,0.1-1.6-0.8-1.9s-1.8,0-2.2,0.7c-0.4,0.7-0.1,1.6,0.8,1.9
							C273.5,122.3,274.5,122,274.9,121.3z"/>
						
							<ellipse transform="matrix(0.9911 -0.1329 0.1329 0.9911 -13.0179 36.7783)" class="st10" cx="268.9" cy="115.9" rx="1.7" ry="1.4"/>
						<path class="st10" d="M273.5,130.3c0.4-0.7,1.4-1.1,2.2-0.7c0.4,0.2,0.7,0.5,0.9,0.8c-0.9,0.4-2,0.8-3.1,1.1
							C273.3,131.1,273.3,130.7,273.5,130.3L273.5,130.3z"/>
						<path class="st10" d="M266.8,132.4c0.3,0.1,0.5,0.3,0.7,0.5c-1,0.1-2,0.3-2.9,0.3c0,0,0,0,0-0.1
							C265,132.5,266,132.1,266.8,132.4L266.8,132.4z"/>
						<path class="st10" d="M274.9,115L274.9,115c0.6,0.6,1.1,1.3,1.6,2c-0.3,0-0.6,0-0.9-0.1C274.8,116.5,274.5,115.7,274.9,115
							L274.9,115z"/>
						<path class="st10" d="M278.7,124.3c-0.8-0.3-1.2-1.2-0.8-1.9c0.2-0.4,0.6-0.7,1.1-0.8c0.4,0.9,0.7,1.8,1,2.7
							C279.6,124.5,279.1,124.5,278.7,124.3L278.7,124.3z"/>
						<path class="st10" d="M258.5,124.6c-0.4,0.7-1.4,1.1-2.2,0.7c-0.5-0.2-0.8-0.5-0.9-0.9c0.5-0.6,1-1.2,1.5-1.8
							c0.3,0,0.6,0,0.9,0.1C258.6,123,258.9,123.9,258.5,124.6L258.5,124.6z"/>
						<path class="st10" d="M254.8,127.9c0.8,0.3,1.2,1.1,0.8,1.9c-0.2,0.4-0.6,0.7-1.1,0.8c-1.1-0.8-1.4-1.6-1.3-2.5
							C253.7,127.8,254.3,127.7,254.8,127.9L254.8,127.9z"/>
						<path class="st10" d="M262.2,114.9c0.8,0.3,1.2,1.2,0.8,1.9c-0.4,0.7-1.4,1.1-2.2,0.7c-0.3-0.1-0.5-0.3-0.7-0.5
							c0.3-0.7,0.5-1.4,0.7-2.1C261.2,114.8,261.7,114.7,262.2,114.9z"/>
						<path class="st10" d="M265.9,111.6c-0.4,0.7-1.4,1.1-2.2,0.7c-0.5-0.2-0.9-0.6-0.9-1.1c0.7-0.6,1.7-0.9,3.2-0.8
							C266.1,110.8,266.1,111.2,265.9,111.6z"/>
						
							<ellipse transform="matrix(0.9911 -0.1329 0.1329 0.9911 -16.1739 40.4166)" class="st10" cx="294.6" cy="141.3" rx="1.7" ry="1.4"/>
						
							<ellipse transform="matrix(0.9911 -0.1329 0.1329 0.9911 -15.5677 39.7689)" class="st10" cx="290" cy="136.5" rx="1.7" ry="1.4"/>
						
							<ellipse transform="matrix(0.9911 -0.1329 0.1329 0.9911 -15.0972 40.9313)" class="st10" cx="299" cy="133.5" rx="1.7" ry="1.4"/>
						<path class="st10" d="M292.9,128.1c0.4-0.7,1.4-1.1,2.2-0.7c0.8,0.3,1.2,1.2,0.8,1.9s-1.4,1.1-2.2,0.7
							S292.5,128.8,292.9,128.1z"/>
						
							<ellipse transform="matrix(0.9911 -0.1329 0.1329 0.9911 -14.3791 41.2763)" class="st10" cx="301.9" cy="128.3" rx="1.7" ry="1.4"/>
						<path class="st10" d="M285.5,134.8c0.4-0.7,0.1-1.6-0.8-1.9c-0.4-0.2-0.9-0.1-1.3,0c0.3,0.8,0.6,1.7,1,2.7
							C284.9,135.5,285.3,135.2,285.5,134.8L285.5,134.8z"/>
						<path class="st10" d="M287.8,140.4c-0.3-0.1-0.6-0.1-0.9-0.1c0.5,0.7,1,1.4,1.6,2c0,0,0,0,0-0.1
							C289,141.5,288.7,140.7,287.8,140.4L287.8,140.4z"/>
						<path class="st10" d="M298.9,124L298.9,124c-1,0-1.9,0.1-2.9,0.3c0.2,0.2,0.4,0.4,0.7,0.5C297.5,125.1,298.5,124.7,298.9,124
							L298.9,124z"/>
						<path class="st10" d="M287.7,127.7c0.8,0.3,1.8,0,2.2-0.7c0.2-0.4,0.2-0.8,0-1.2c-1.1,0.4-2.2,0.8-3.1,1.1
							C287,127.2,287.3,127.5,287.7,127.7z"/>
						<path class="st10" d="M300.5,140.4c-0.4,0.7-0.1,1.6,0.8,1.9c0.5,0.2,1,0.1,1.4-0.1c0.2-0.7,0.4-1.4,0.7-2.1
							c-0.2-0.2-0.4-0.4-0.7-0.5C301.9,139.4,300.9,139.7,300.5,140.4L300.5,140.4z"/>
						<path class="st10" d="M299.8,144.9c-0.8-0.3-1.8,0-2.2,0.7c-0.2,0.4-0.2,0.8,0,1.2c1.5,0.1,2.5-0.2,3.2-0.8
							C300.7,145.5,300.4,145.1,299.8,144.9z"/>
						<path class="st10" d="M307.2,131.9c-0.8-0.3-1.8,0-2.2,0.7s-0.1,1.6,0.8,1.9c0.3,0.1,0.6,0.1,0.9,0.1c0.5-0.6,1-1.2,1.5-1.8
							C308,132.4,307.6,132.1,307.2,131.9z"/>
						<path class="st10" d="M307.9,127.4c-0.4,0.7-0.1,1.5,0.8,1.9c0.5,0.2,1.1,0.1,1.6-0.1c0.1-0.9-0.3-1.7-1.4-2.5
							C308.5,126.8,308.1,127.1,307.9,127.4L307.9,127.4z"/>
					</g>
					<g>
						<g>
							<g>
								<path class="st11" d="M264.4,125.2c0.7-2.6,10.9,1.7,10.9,1.7S263.7,127.8,264.4,125.2z"/>
								<path class="st11" d="M269.7,120.6c1.4-1.3,6.9,5,6.9,5S268.3,121.9,269.7,120.6z"/>
							</g>
							<g>
								<path class="st11" d="M296.1,137.2c1.9-2.1-8.7-5.6-8.7-5.6S294.2,139.3,296.1,137.2z"/>
								<path class="st11" d="M297,130.9c0.4-1.7-9.1-1.1-9.1-1.1S296.7,132.6,297,130.9z"/>
							</g>
						</g>
						<path class="st12" d="M278.1,125.3c0.7-1.3,2.5-1.9,4-1.3l3.7,1.4c1.5,0.6,2.1,2,1.4,3.3l-1.8,3.2c-0.7,1.3-2.5,1.9-4,1.3
							l-3.7-1.4c-1.5-0.6-2.1-2-1.4-3.3L278.1,125.3z"/>
					</g>
				</g>
				<g>
					<path class="st13" d="M282.3,276.1c0,0,4.3,31.9-16.4,35.6c-8.1,1.5-23-7.8-22.7-12.5s-3.3-16.6-1.3-20
						C243.8,275.8,282.3,276.1,282.3,276.1L282.3,276.1z"/>
					<g id="f">
						<path class="st14" d="M248,282.9l-0.6,18.1l-1.5,10.1c0,0-27-4.2-30.2-21.5l4.5-23.5L248,282.9L248,282.9z"/>
						<path class="st15" d="M247.2,295.2c0,0-24.2-8.7-25.9-14.1l1.1-7.3l25.7,10.8L247.2,295.2L247.2,295.2z"/>
						<path class="st16" d="M285.3,164.9c12.3,9.6,18.9,24.8,17.9,40.3c-0.2,2.6-1.5,7-1,9.8c3.6,20.2,6.7,48.5-28.3,71.5
							c-22.3,14.6-48.2,0.3-63.7-11.4c-19.3-14.5-17.9-35.5-17.9-35.5s-22.9-4.1-10.7-8.9c12.2-4.8,3.9,2.5,3.9,2.5l1.3-4.2
							c0,0,23-16.8,39.4-51.5c0,0,20.6-24.2,23.1-32.3c0,0,13.3,1.9,24.7,11.1C277.6,159.1,281.5,161.9,285.3,164.9L285.3,164.9z"/>
					</g>
					<g>
						<g>
							<path class="st15" d="M269.5,157.2c0,0,4.8,37.2-44.7,27.9c0,0,37.2-6.5,41.8-29.3"/>
							<path class="st17" d="M247.8,139.8c0,0,9.9,1.4-15.3,30.1l-6.2,7.5c0,0-5.4,11.3-10.2,18.4c-4.9,7.1-18.2,25.8-29.2,33.1
								l-1.3,4.2c0,0-3.7-13-9.5-4.4c-1.6,2.3,1.4-0.3,5.7,9.6c3.2,7.2-2.5,11.1,12.4,14.6c0,0,8.5,18.7,20.1,24.7l1.7,1.9l0.7,6.6
								c0,0-2.8,10.5-17.4,21.3c0,0-27.6,23.8-54.8-19c-3.7-5.8-6.3-166.5,60.5-166.4c0,0,27.9-5.6,50.6,3.9s35.2,0.9,52.4,31.3
								c0,0,15.1,35.9-3.8,57.7l-2.7-26.9c0,0-6.5-18.2-30.6-34.3c0,0-15.4-8.6-21.2-8.6C249.4,145.1,250.5,140.6,247.8,139.8
								L247.8,139.8z"/>
						</g>
						<path class="st17" d="M266.1,151.3c0,0,5.7,46.9-50.6,31c0,0,27.2-6.2,33.9-37.2c0,0,6.8,1.6,9.3,2.7"/>
						<path class="st18" d="M254.8,125.7c0,0-32.8-7.5-50.4,7.7c-18.3,15.8-23.5,35.6-28.2,91l-5.3,3c0,0-10.8-107.6,57.5-106.9
							C228.4,120.5,241.6,121.1,254.8,125.7L254.8,125.7z"/>
					</g>
					<g>
						<g>
							<g>
								<path class="st19" d="M190.6,225.4c-4.6-6.8-9.6-7.9-13.9-7c-5.6,1.2-8.1,6.6-6.6,15.8c1.6,9.1,3.8,13.8,11.1,18.9
									c7.2,5.1,11.1,7.7,18.1,2.4"/>
								<path class="st20" d="M194.6,251.9c-0.8-0.4-1.7-0.8-2.4-1.3c-1.6-0.9-2.8-2.3-3.6-3.9c-0.8-1.6-1.1-3.4-0.8-5.2
									c0.2-1,0.5-1.9,0.9-2.8c0.1-0.2,0.2-0.4,0.3-0.5c-0.1-0.1-0.1-0.2-0.2-0.3c-0.4-0.6-0.7-1.2-1.1-1.8
									c-1.1-1.7-2.4-3.3-3.8-4.8c-1.4-1.4-2.9-3-5.1-3.6c-1-0.3-2.3-0.1-3.1,0.5c-0.9,0.6-1.5,1.6-1.3,2.7c0-1,0.7-1.9,1.6-2.3
									s1.8-0.5,2.7-0.2c1.8,0.6,3.2,2.1,4.6,3.5s2.7,2.9,3.9,4.5c0.5,0.6,0.9,1.2,1.3,1.8c-0.7,0.9-1.1,1.9-1.4,3
									c-0.5,1.9-0.2,4,0.6,5.7c0.8,1.8,2.3,3.3,4.1,4.1c0.9,0.4,1.7,0.8,2.7,1.1c0.9,0.3,1.9,0.5,2.8,0.1
									C196.3,252.6,195.4,252.3,194.6,251.9L194.6,251.9z M178,243.3c-1-1.7-1.3-3.7-1.3-5.7c0-2,0.3-4,0.6-6.1
									c-0.6,1.9-1.2,3.9-1.3,6c-0.1,2.1,0.2,4.3,1.2,6.2c1.1,1.9,2.8,3.3,4.6,4.3c1.8,1,3.8,1.8,5.7,2.4c-1.8-0.9-3.7-1.9-5.3-3
									C180.5,246.4,179,245,178,243.3L178,243.3z"/>
							</g>
							<path class="st21" d="M188.6,252.6c0,0,6.6,12.2-0.7,14.6c-7.3,2.5-5.7-11.6-5.7-11.6s2.5,11.6,4.4,4.3L188.6,252.6
								L188.6,252.6z"/>
						</g>
						<g>
							
								<ellipse transform="matrix(0.3004 -0.9538 0.9538 0.3004 -4.7851 421.2632)" class="st22" cx="284.8" cy="213.9" rx="13.1" ry="12"/>
							<path class="st15" d="M295.8,217.3c-13.1-14.3-24.3-0.1-22.2-6.8c2.1-6.7,8.7-10.6,14.9-8.8
								C294.5,203.6,297.8,210.6,295.8,217.3L295.8,217.3z"/>
							
								<ellipse transform="matrix(0.3163 -0.9487 0.9487 0.3163 -13.9588 420.9759)" class="st23" cx="285.1" cy="220.2" rx="6.5" ry="6.4"/>
							
								<ellipse transform="matrix(0.3163 -0.9487 0.9487 0.3163 -7.9418 420.3033)" class="st24" cx="287.6" cy="215.7" rx="1.5" ry="1.5"/>
							<path class="st25" d="M279.5,188.6c0,0,10.7-3.2,17.2,7.2c0,0,1.6-5.3-7.5-10.4C289.3,185.4,282.5,182.6,279.5,188.6
								L279.5,188.6z"/>
						</g>
						<g>
							
								<ellipse transform="matrix(0.3163 -0.9487 0.9487 0.3163 -41.9285 375.0543)" class="st22" cx="239.2" cy="216.6" rx="13.1" ry="12.8"/>
							<path class="st15" d="M251.5,215.7c-18.6-7.2-24.2,8.6-24.7,1.6c-0.4-6.9,4.7-12.9,11.5-13.4S251,208.7,251.5,215.7
								L251.5,215.7z"/>
							
								<ellipse transform="matrix(0.3163 -0.9487 0.9487 0.3163 -45.7566 380.4204)" class="st23" cx="241" cy="222" rx="7" ry="6.9"/>
							
								<ellipse transform="matrix(0.3163 -0.9487 0.9487 0.3163 -38.941 379.507)" class="st24" cx="243.8" cy="216.8" rx="1.5" ry="1.5"/>
							<path class="st25" d="M241.9,190.9c0,0-10.6-3.7-16.9,6.9c0,0-1.6-5.6,7.3-10.6C232.3,187.3,238.9,184.5,241.9,190.9
								L241.9,190.9z"/>
						</g>
						<path class="st19" d="M269.1,220.1c0,0-1.1,6,5.6,12s0.1,15.4-11,8.6"/>
						<g>
							<g>
								<g>
									<path class="st26" d="M242.7,251.2c0,0,9.6,18,22,19.5c16.9,1.9,18.4-20.8,18.4-20.8l-17.5,4.7L242.7,251.2L242.7,251.2z"
										/>
									<path class="st27" d="M242.7,251.2c0,0,11.3,15.5,25,15.1c9.9-0.3,15.5-17.4,15.5-17.4S266.8,259,242.7,251.2L242.7,251.2z
										"/>
									<path class="st24" d="M279.1,251.1L279.1,251.1c-0.4,4.3-3.2,8.6-11,9.2c-6.4,0.5-17.8-1.2-22.4-7.3
										c-1.4-1.8,1.2-0.3,1.2-0.3s23,3.8,31.2-1.4"/>
									<path class="st26" d="M243.8,251.9c0,0,28.9,4.6,42.6-5.7C286.4,246.1,275,263.1,243.8,251.9L243.8,251.9z"/>
								</g>
								<path class="st15" d="M243,248.1c0,0-6.2-0.1-3.2,6.2C239.8,254.3,238.6,250.6,243,248.1z"/>
								<path class="st15" d="M284.6,243.9c0,0,2.8,1.8,0.1,6.6C284.7,250.5,289.8,246.2,284.6,243.9z"/>
							</g>
							<path class="st15" d="M257.3,263.7c0,0,2.3-2.8,8.4-1.3c0,0,3.6-2.5,9.1,0.3C274.7,262.7,270,270,257.3,263.7L257.3,263.7z"
								/>
						</g>
					</g>
				</g>
				<path class="st28" d="M270,322.4l2.6,24.2c0,0,2.1,15.2,0.4,59.5c0,0-30.5,14.3-94.8-0.7c0,0,0.9-32.1,1.4-40.3
					c0.5-8.2-2.9-51.9,7.8-65.7c10.2-13.2,27.7-13.8,27.7-13.8s-4.7,14,15.8,20c18.6,5.5,15.8-10,15.8-10l-0.1,1.1l0.1-1.1"/>
				<g>
					<path class="st29" d="M264.5,424.8c0,0-28.6-2.8-54.3,1.1"/>
					<path class="st30" d="M264.5,424.8c-18.1-0.8-36.2-0.8-54.3,1.1C228.1,422.7,246.5,422.7,264.5,424.8L264.5,424.8z"/>
				</g>
				<g>
					<path class="st29" d="M306.4,432.5c0,0-21.3-7.7-41.9-7.2"/>
					<path class="st30" d="M306.4,432.5c-11.9-3.4-24.2-6-36.5-6.9c-1.8-0.2-3.5-0.2-5.3-0.3C278.8,424.4,293.2,427.3,306.4,432.5
						L306.4,432.5L306.4,432.5z"/>
				</g>
				<polygon class="st31" points="-188,468.5 575,369.7 502.4,519 250.4,580.3 				"/>
				<g>
					<path class="st32" d="M504.3,427.5c-1.2,3.6-11.6,6.3-23.3,5.9c-11.7-0.3-20.3-3.5-19.1-7.1c1.2-3.6,11.6-6.3,23.3-5.9
						C496.9,420.7,505.4,423.9,504.3,427.5L504.3,427.5z"/>
					<g>
						<g>
							<path class="st33" d="M465.3,347.2h37.2c2.3,0,4.1,2,3.8,4.2l-7.4,73.8c-0.2,2-1.9,3.5-3.8,3.5h-22.5c-2,0-3.6-1.5-3.8-3.5
								l-7.4-73.8C461.2,349.1,463,347.2,465.3,347.2L465.3,347.2z"/>
							<path class="st34" d="M465.3,351h37.2l-7.4,73.8h-22.5L465.3,351L465.3,351z"/>
							<path class="st35" d="M479.7,370.5c7.1,0,9.3,4.2,16.1,4.2c1.5,0,3-0.2,4.5-0.6l-5.1,50.7h-22.5l-4.9-48.9
								C470.5,372.7,474.8,370.5,479.7,370.5L479.7,370.5z"/>
						</g>
						<path class="st34" d="M491.5,387.4c2.4,0,4.3-1.9,4.3-4.3s-1.9-4.3-4.3-4.3s-4.3,1.9-4.3,4.3S489.2,387.4,491.5,387.4z"/>
						<path class="st34" d="M491,406c1.5,0,2.8-1.3,2.8-2.8s-1.3-2.8-2.8-2.8s-2.8,1.3-2.8,2.8S489.4,406,491,406z"/>
						<ellipse class="st36" cx="483.9" cy="347.2" rx="22.8" ry="8.7"/>
					</g>
				</g>
				<g>
					<path class="st16" d="M350.1,351.3l-4.5,11.1c0,0-16.2-0.4-29.1,0.1c-11.5,0.5-27.1-4.1-40.5-14.4c-1.7-1.3-3.3-2.6-4.9-4.1
						c-14.3-13.2,12.8-20.5,12.8-20.5l6.2,3.5l12.3,7C302.4,334.1,330.4,349.6,350.1,351.3L350.1,351.3z"/>
					<path class="st37" d="M290.1,328c-2.3,10.5-9.5,16.6-14.1,20.1c-1.7-1.3-3.3-2.6-4.9-4.1c-14.3-13.2,12.8-20.5,12.8-20.5
						L290.1,328L290.1,328z"/>
					<path class="st38" d="M247.7,294.3c0,0,16.9,3.1,39.9,29.2c0,0-3.1,12.3-15.5,26.7l-18.8-8.9L247.7,294.3L247.7,294.3z"/>
					<g>
						<path class="st19" d="M343.5,361.9c9.6,4.1,13.6,4.2,22,3.1c8.1-1,10.2-2.6,10.2-2.6l1.9-1.3c1-0.9,0.6-2-0.4-2.4
							c-0.7-0.2-1.4-0.2-1.1-0.2c6.9-0.6,8.4-4.4,8.4-4.4c3.2-3.2,0.2-5.4,0.2-5.4c4.1-3.4-0.5-4.3-0.5-4.3
							c-3.6-0.5-14.1,3.7-19.4,4s-11.9-4.2-11.9-4.2s-6.9-1.6-10.6,4.5"/>
						<path class="st19" d="M384.9,348.6c0,0-9.2,4.7-20.3,3.7"/>
						<path class="st19" d="M384.4,354.2c0,0-7.4,2.5-20.2,2"/>
						<path class="st19" d="M376,358.6c0,0-6.1,1.5-11.8,0.7"/>
						<path class="st19" d="M363.3,348.5c0,0,3.7,6.4-1.6,14.7"/>
					</g>
					<g>
						<g>
							<path class="st39" d="M385.7,374.6c-27.6,1.5-48.4-5.8-46.6-16.1c1.9-10.4,25.7-19.9,53.3-21.4s48.4,5.8,46.6,16.1
								C437.2,363.6,413.3,373.2,385.7,374.6z"/>
							<path class="st40" d="M385.7,372.2c-8.4,0.4-17,0.1-25.2-1.7c-3.1-0.7-6.2-1.6-9.1-2.9c-2.1-1-4.3-2.2-5.9-4
								c-1.2-1.3-2.1-3-2.1-4.9c0-2,0.9-3.8,2.1-5.3c1.7-2.1,4-3.8,6.3-5.1c3.1-1.8,6.6-3.2,10-4.3c8.2-2.8,16.9-4.3,25.5-5
								c8.7-0.7,17.5-0.6,26.1,0.9c3.3,0.6,6.6,1.4,9.8,2.6c2.4,0.9,4.8,2.1,6.7,3.8c1.4,1.2,2.7,2.8,3.1,4.7s-0.1,3.7-1.1,5.3
								c-1.3,2.1-3.1,3.7-5.1,5.1c-2.9,2-6.2,3.5-9.5,4.8c-7.9,3-16.3,4.7-24.7,5.6C390.3,371.9,388,372.1,385.7,372.2
								c-0.3,0-0.6,0.5-0.9,0.5c9.2-0.5,18.4-1.9,27.2-4.7c3.5-1.1,7-2.4,10.2-4.1c2.5-1.3,5-2.7,7.2-4.6c3.1-2.6,6-6.6,3.8-10.7
								c-1-2-2.8-3.4-4.7-4.5c-2.6-1.6-5.5-2.6-8.4-3.4c-8-2.3-16.6-2.8-24.9-2.6c-9.4,0.2-18.8,1.4-27.8,3.9
								c-6.6,1.8-13.2,4.3-18.8,8.3c-3.3,2.4-7.3,6.2-5.9,10.7c0.6,2,2.1,3.6,3.7,4.8c2.2,1.7,4.8,2.8,7.5,3.7
								c7.6,2.6,15.8,3.3,23.8,3.4c2.4,0,4.7,0,7-0.2C385.1,372.7,385.4,372.3,385.7,372.2L385.7,372.2z"/>
							<path class="st41" d="M407.8,354.9c-0.9,4.2-10.6,8-21.7,8.5c-11.1,0.5-19.3-2.6-18.4-6.8c0.9-4.2,10.6-8,21.7-8.5
								S408.7,350.7,407.8,354.9L407.8,354.9z"/>
						</g>
						<g>
							<polyline class="st42" points="400.4,349 401.6,345.5 405.8,345.5 407.3,348.5 404.2,352.5 400.6,350.2 							"/>
							<polyline class="st42" points="408.7,350.1 409.8,346.6 414,346.7 415.5,349.6 412.5,353.6 408.8,351.4 							"/>
							<polyline class="st42" points="388.3,350.2 389.4,346.7 393.7,346.8 395.2,349.7 392.1,353.7 388.4,351.4 							"/>
							<polyline class="st42" points="386.8,348.6 387.9,345.1 392.2,345.2 393.7,348.1 390.6,352.1 386.9,349.9 							"/>
							<polyline class="st42" points="394.6,349.6 395.7,346 400,346.1 401.4,349.1 398.4,353 394.7,350.8 							"/>
							<polyline class="st42" points="363.9,362.8 365,359.3 369.3,359.3 370.8,362.3 367.7,366.3 364,364 							"/>
							<polyline class="st42" points="379.3,363.6 380.4,360.1 384.7,360.2 386.2,363.1 383.1,367.1 379.4,364.8 							"/>
							<polyline class="st43" points="399.8,361.9 400.9,358.4 405.2,358.4 406.7,361.4 403.6,365.4 399.9,363.1 							"/>
							<polyline class="st43" points="402.7,348.6 403.9,345.1 408.1,345.2 409.6,348.1 406.5,352.1 402.8,349.8 							"/>
							<polyline class="st43" points="389.1,347.3 390.7,348.7 394.9,348 396,346.4 392.4,345 389.1,346.7 							"/>
							<polyline class="st43" points="361.1,353.4 362.7,354.8 366.9,354.1 368,352.5 364.4,351.1 361.1,352.8 							"/>
						</g>
					</g>
					<path class="st16" d="M339.8,352.3c0,0,3.6-8.7,10.4-11.9s14-3,18.1-6.3c0,0,5,6.2-7.4,9.2c0,0-4.9,1.2-7.5,3.1"/>
				</g>
				<g>
					<path class="st44" d="M249.9,431.9c0,0-12.8,16.6-4.5,30c8.3,13.5,3.2,21.6,3.2,21.6s11.9,3.1,17.1-3.3
						c5.1-6.4,15.9-4.5,19.6-1.9c3.7,2.6,8.6,9.5,12.5,1.1s6.4-14.4,13.5-10.7c7.1,3.7,16-40.6-16.1-60c-13.2-8-21.9-11.2-32.3-1.5
						C256.6,413.1,249.9,431.9,249.9,431.9L249.9,431.9z"/>
					<g class="st45">
						<path class="st46" d="M304.2,468.7c-1.1-17.6-5.3-35.7-15.6-50.2c-0.6-0.9-1.6-2.2-2.3-3l-2.5-2.9
							C298.1,427.3,303.6,448.6,304.2,468.7L304.2,468.7L304.2,468.7z"/>
					</g>
					<g class="st45">
						<path class="st46" d="M282,475c-1.8-19.1-3.9-39-6.4-58C278.8,436.2,280.8,455.6,282,475L282,475z"/>
					</g>
					<g class="st45">
						<path class="st46" d="M263.2,484.7c4.8-22.7,9.2-45.9,8-69.2l-0.5-4.6c1.9,12.3,0.9,24.9-0.6,37.2
							C268.5,460.4,266.2,472.6,263.2,484.7L263.2,484.7L263.2,484.7z"/>
					</g>
				</g>
				<g>
					<path class="st16" d="M258.1,412.4l-11.7,5.4c0,0-14-11.5-25.6-20c-10.4-7.6-20.9-21.9-25.5-39c-0.6-2.1-1.1-4.3-1.4-6.5
						c-3.4-20,25.4-6.8,25.4-6.8l3,7l5.9,13.8C228.1,366.3,242,397.4,258.1,412.4L258.1,412.4z"/>
					<g>
						<path class="st16" d="M244.9,415.9c5.6,9.8,9,12.6,17.1,17.6c7.8,4.8,10.8,5.1,10.8,5.1l2.5,0.3c1.5,0.1,1.9-1.1,1.3-2.1
							c-0.5-0.7-1.1-1.1-0.8-0.9c6.5,4.3,10.4,2.4,10.4,2.4c5-0.2,3.9-4,3.9-4c6,0.2,2.5-3.6,2.5-3.6c-2.9-2.8-15-7-19.8-10.4
							s-7.6-11.4-7.6-11.4s-5-6.1-12.4-3.9"/>
						<path class="st19" d="M290.5,434.4c0,0-11.4-2.8-20.4-11.2"/>
						<path class="st19" d="M286.1,438.3c0,0-8.2-3.3-19.1-12.4"/>
						<path class="st19" d="M275.7,435.9c0,0-6.4-3.1-10.9-7.6"/>
					</g>
					<path class="st16" d="M248.3,406c0,0,9.1-4.1,17.4-1.9c8.2,2.2,14.4,7.4,20.3,7.7c0,0,0.1,8.2-12.8,1.9c0,0-5.1-2.4-8.7-2.9"/>
				</g>
				<polyline class="st42" points="317.5,437.7 319,434.3 323.6,434.8 324.9,437.8 321.3,441.5 317.6,438.9 				"/>
				<polyline class="st43" points="309.7,412.2 311.2,408.8 315.7,409.2 317,412.3 313.4,416 309.7,413.4 				"/>
				<polyline class="st43" points="342.4,429.8 344,431.4 348.5,431.1 349.8,429.6 346,427.9 342.4,429.2 				"/>
				<circle class="st47" cx="337.6" cy="416.6" r="2"/>
				<ellipse class="st47" cx="364.6" cy="408.3" rx="5.9" ry="1.5"/>
				<g>
					<path class="st48" d="M250.6,304.2c-1-0.4-4.4-3.5-11.3-0.6c-6.9,2.9,1.7,12.2,1.7,12.2h7.6C248.6,315.9,258.8,308,250.6,304.2
						L250.6,304.2z"/>
					<g>
						<path class="st48" d="M232.4,360.7c0.2,0.6,0.3,1.3,0.5,1.9l0,0c5.6,19.2,14.8,28.7,14.8,28.7c3.2-4.7,5.6-8.8,7.3-12.2
							c1-2.1,1.8-3.9,2.4-5.5c1.8-4.6,2-6.9,2-6.9c-0.1-2.4-0.2-4.7-0.4-6.9c-0.1-2.1-0.3-4-0.5-6c-0.6-5.5-1.3-10.3-2.1-14.6
							c-0.4-2.1-0.8-4.1-1.3-6c-2.8-11.9-5.8-17.7-5.7-18.6c0.3-2.4-8.2-1.6-8.2-1.6c-0.1,3.5-0.6,7.7-1.3,12.3
							c-0.2,1.4-0.4,2.8-0.7,4.2c-0.7,4.1-1.6,8.2-2.4,12.1c-0.3,1.4-0.6,2.7-0.9,4c-1.1,4.7-2.1,8.8-2.8,11.5
							C232.8,359.5,232.5,360.7,232.4,360.7L232.4,360.7z"/>
						<path class="st49" d="M239.4,329.7c7.9,2.8,13.3,7,16.6,9.6c-0.4-2.1-0.9-4.4-1.3-6.2c-5.4-3.9-10.9-6.2-14.6-7.6
							C239.9,326.9,239.6,328.3,239.4,329.7z"/>
						<path class="st49" d="M236.6,346.1c6.2,3,16.3,8.4,22.1,13.8c-0.1-2.1-0.4-4.4-0.5-6.4c-3.8-2.9-10.6-7.7-20.6-11.5
							C237.2,343.3,236.8,344.8,236.6,346.1L236.6,346.1z"/>
						<path class="st49" d="M233,360.7c0.2,0.6,0.4,1.4,0.5,2l0,0c6.1,3.4,15.4,9.1,21.3,16c1-2.1,1.8-3.8,2.4-5.4
							c-3.5-3.1-10.9-9.2-23.4-15.9C233.2,359.6,233,360.7,233,360.7L233,360.7z"/>
					</g>
					<path class="st28" d="M241.6,300.4c0.6,0.5-9.8,19.4-9.8,19.4s-13-19-19.5-32.8l3.9-7.3C216.3,279.6,217.2,282.4,241.6,300.4
						L241.6,300.4z"/>
				</g>
				<path class="st37" d="M220.5,349.6c-7.7,7.7-17.8,9-24,9.4c-0.9-2-1.7-4.1-2.5-6.2c-6.7-19.2,23-10.5,23-10.5L220.5,349.6
					L220.5,349.6z"/>
				<g>
					<path class="st50" d="M217.5,306.6l6.6,42.1c0,0-5.9-4.5-18.7,1S194,359.9,194,359.9L182.3,324"/>
					<path class="st51" d="M217.5,306.6c2.5,14.3,4.9,28.7,7.2,43.1c-7.4-5.1-18.5-0.4-25.4,3.8c-2.1,1.5-4.9,3.5-5,6.3l-0.8,0.3
						c-3.8-12-7.6-24-11.2-36.1c4.1,11.9,8.1,23.8,12.1,35.8l-0.8,0.3c-0.3-5.5,9-9.5,13.3-11.3c5.5-2.1,12.2-3.5,17.6-0.3l-0.7,0.4
						C221.5,334.8,219.4,320.7,217.5,306.6L217.5,306.6L217.5,306.6z"/>
				</g>
				<polygon class="st28" points="246.5,300.9 256.2,318 254.4,296.2 246.5,292.7 				"/>
			</g>
		</g>
	</g>
</g>
</svg>
