<svg xmlns="http://www.w3.org/2000/svg" xmlns:xlink="http://www.w3.org/1999/xlink" width="619.88" height="562.43" viewBox="0 0 619.88 562.43">
  <defs>
    <style>
      .cls-1, .cls-19, .cls-99 {
        fill: none;
      }

      .cls-2 {
        isolation: isolate;
      }

      .cls-22, .cls-3 {
        opacity: 0.2;
      }

      .cls-4 {
        fill: #0fba98;
        stroke: #fff;
        stroke-width: 5px;
      }

      .cls-104, .cls-14, .cls-15, .cls-16, .cls-17, .cls-18, .cls-19, .cls-22, .cls-25, .cls-27, .cls-4, .cls-66, .cls-69, .cls-89, .cls-91, .cls-94, .cls-99 {
        stroke-miterlimit: 10;
      }

      .cls-5 {
        clip-path: url(#clip-path);
      }

      .cls-6 {
        fill: #fff;
      }

      .cls-7 {
        fill: #c4b7a3;
      }

      .cls-8 {
        fill: #80ddda;
      }

      .cls-9 {
        fill: #f0b081;
      }

      .cls-10 {
        fill: #794d3b;
      }

      .cls-11 {
        fill: #5c3829;
      }

      .cls-12, .cls-17 {
        fill: #818dbd;
      }

      .cls-13 {
        fill: #d46255;
        fill-rule: evenodd;
      }

      .cls-14 {
        font-size: 65.43px;
      }

      .cls-14, .cls-15, .cls-18 {
        fill: #34a2a2;
      }

      .cls-14, .cls-15, .cls-16, .cls-18 {
        stroke: #f9f9f9;
      }

      .cls-14, .cls-15, .cls-16, .cls-17, .cls-18 {
        font-family: CoopHeavy;
      }

      .cls-15 {
        font-size: 54.62px;
      }

      .cls-16 {
        font-size: 55.61px;
        fill: #da717c;
      }

      .cls-17 {
        font-size: 53.72px;
        stroke: #f9f7f8;
      }

      .cls-18 {
        font-size: 50.16px;
      }

      .cls-19 {
        stroke: #826f6f;
        stroke-width: 3px;
      }

      .cls-20 {
        fill: #2d3c42;
      }

      .cls-21 {
        opacity: 0.3;
      }

      .cls-22 {
        fill: #020202;
      }

      .cls-22, .cls-94 {
        stroke: #211e1f;
      }

      .cls-23 {
        fill: #8d653d;
      }

      .cls-24 {
        fill: #a76f43;
      }

      .cls-25, .cls-70, .cls-89 {
        fill: #fbd3c7;
      }

      .cls-25, .cls-27, .cls-89, .cls-99 {
        stroke: #453323;
      }

      .cls-25, .cls-27, .cls-66, .cls-99 {
        stroke-width: 0.5px;
      }

      .cls-26, .cls-72 {
        fill: #df71e2;
      }

      .cls-26 {
        stroke: #710e7c;
      }

      .cls-26, .cls-28 {
        stroke-linejoin: round;
      }

      .cls-26, .cls-28, .cls-69, .cls-89, .cls-91 {
        stroke-width: 0.75px;
      }

      .cls-27 {
        fill: #bcd0eb;
      }

      .cls-28, .cls-94 {
        fill: #311415;
      }

      .cls-28 {
        stroke: #190500;
      }

      .cls-29 {
        fill: #93696c;
      }

      .cls-30 {
        fill: #75502e;
      }

      .cls-31 {
        fill: #c47947;
      }

      .cls-32 {
        fill: #89513a;
      }

      .cls-33 {
        opacity: 0.12;
      }

      .cls-34 {
        fill: #d68549;
      }

      .cls-35 {
        fill: #ea9c47;
      }

      .cls-36 {
        fill: #f9c273;
      }

      .cls-37 {
        fill: #2f6b7f;
      }

      .cls-38 {
        fill: #295368;
      }

      .cls-39 {
        fill: #1c3d51;
      }

      .cls-40 {
        fill: #7fb5d3;
      }

      .cls-41 {
        fill: #b2b2b2;
      }

      .cls-42 {
        fill: #d6d6d6;
      }

      .cls-43 {
        fill: #5c9bb7;
      }

      .cls-44 {
        fill: #98cbe2;
      }

      .cls-45 {
        fill: #3a7893;
      }

      .cls-46 {
        fill: #f9f9f9;
      }

      .cls-47 {
        fill: #adadad;
      }

      .cls-48 {
        fill: #d86532;
      }

      .cls-49 {
        fill: #ebe9df;
      }

      .cls-50 {
        fill: #e0ddc9;
      }

      .cls-51 {
        fill: #f78e59;
      }

      .cls-52 {
        fill: #334e5c;
      }

      .cls-53 {
        fill: #22343d;
      }

      .cls-54 {
        fill: #efca58;
      }

      .cls-55 {
        fill: #ee3a59;
      }

      .cls-56 {
        fill: #46b29e;
      }

      .cls-57 {
        fill: #d1a730;
      }

      .cls-58 {
        fill: #dedede;
        mix-blend-mode: multiply;
      }

      .cls-59 {
        fill: #2b8e7b;
      }

      .cls-60 {
        fill: #d35c20;
      }

      .cls-61 {
        fill: #f4743b;
      }

      .cls-62 {
        fill: #cc8527;
      }

      .cls-63 {
        fill: #ffc776;
      }

      .cls-64 {
        fill: #aa4518;
      }

      .cls-65 {
        fill: #ffecae;
      }

      .cls-66 {
        fill: #61435b;
        stroke: #1c101a;
      }

      .cls-67 {
        fill: #f8e1db;
      }

      .cls-68 {
        fill: #dadada;
      }

      .cls-69 {
        fill: #f9d1c6;
      }

      .cls-104, .cls-69, .cls-91 {
        stroke: #323232;
      }

      .cls-71 {
        fill: #ebb283;
      }

      .cls-73 {
        fill: #2d3452;
      }

      .cls-74 {
        fill: #ddb186;
      }

      .cls-75 {
        fill: #604e3a;
      }

      .cls-76 {
        fill: #376e6c;
      }

      .cls-77 {
        fill: #ff3636;
      }

      .cls-78 {
        fill: url(#linear-gradient);
      }

      .cls-79 {
        fill: #ff4848;
      }

      .cls-80 {
        opacity: 0.27;
      }

      .cls-81 {
        fill: #6b28a0;
      }

      .cls-82 {
        fill: url(#linear-gradient-2);
      }

      .cls-83 {
        fill: #9a4ccc;
      }

      .cls-84 {
        fill: #ffb000;
      }

      .cls-85 {
        fill: #e5d8c0;
      }

      .cls-86 {
        fill: url(#linear-gradient-3);
      }

      .cls-87 {
        fill: #ffc826;
      }

      .cls-88 {
        fill: #51b77d;
      }

      .cls-90 {
        fill: #dd9f8f;
      }

      .cls-91 {
        fill: #fad2c6;
      }

      .cls-92 {
        fill: #e7b4a7;
      }

      .cls-93 {
        fill: #561211;
      }

      .cls-95 {
        fill: #c28974;
      }

      .cls-96 {
        fill: #e8194e;
      }

      .cls-97 {
        fill: #bc7757;
      }

      .cls-98 {
        fill: #453323;
      }

      .cls-100 {
        fill: #f0e7e0;
      }

      .cls-101 {
        fill: #4f341a;
      }

      .cls-102 {
        fill: #431f17;
      }

      .cls-103 {
        fill: #441f17;
      }

      .cls-104 {
        fill: #db9d8e;
        stroke-width: 0.25px;
      }
    </style>
    <clipPath id="clip-path">
      <path class="cls-1" d="M302.47,517.27C155.28,517.27,36,409.34,36,276.21s119.31-241,266.5-241S569,143.08,569,276.21,449.65,517.27,302.47,517.27Z"/>
    </clipPath>
    <linearGradient id="linear-gradient" x1="2950.18" y1="14019.1" x2="2946.75" y2="14012.48" gradientTransform="matrix(1.52, 0.01, 0, -0.34, -4114.14, 5042.85)" gradientUnits="userSpaceOnUse">
      <stop offset="0" stop-color="#dcc499"/>
      <stop offset="1" stop-color="#e5d8c0"/>
    </linearGradient>
    <linearGradient id="linear-gradient-2" x1="555.27" y1="14894.15" x2="551.45" y2="14886.77" gradientTransform="matrix(-1.09, 0.03, -0.01, -0.3, 1184.36, 4724.12)" xlink:href="#linear-gradient"/>
    <linearGradient id="linear-gradient-3" x1="305.75" y1="7958.27" x2="306.27" y2="7957.36" gradientTransform="matrix(-0.95, 0.05, -0.04, -0.74, 1018.38, 6231.38)" xlink:href="#linear-gradient"/>
  </defs>
  <g class="cls-2">
    <g id="Layer_1" data-name="Layer 1">
      <g>
        <path class="cls-3" d="M312.24,534.59c-152.14,0-274.56-113.82-274.56-254.22S161,27.84,313.15,27.84c150.37,0,273.47,112.13,273.47,252.53S464.37,534.59,312.24,534.59Z"/>
        <path class="cls-4" d="M302.47,520.15c-148.68,0-269.2-109.17-269.2-243.83S153.79,32.49,302.47,32.49s269.2,109.16,269.2,243.83S451.14,520.15,302.47,520.15Z"/>
        <g class="cls-5">
          <g>
            <g>
              <rect class="cls-6" x="-220.47" y="389.91" width="931.81" height="43.38"/>
              <rect class="cls-7" x="-204.09" y="427.88" width="893.07" height="92.78"/>
              <rect class="cls-8" x="-204.09" y="-16.53" width="893.07" height="436.52"/>
            </g>
            <g>
              <g>
                <rect class="cls-9" x="45.37" y="41.58" width="150.74" height="181.56"/>
                <rect class="cls-10" x="56.06" y="54.46" width="129.35" height="155.79"/>
                <polygon class="cls-11" points="182.6 54.46 182.6 206.81 56.06 206.81 56.06 210.25 185.41 210.25 185.41 54.46 182.6 54.46"/>
                <g>
                  <path class="cls-6" d="M105,123.94l.1-.93a17.44,17.44,0,0,1,2.21-6.93,43.73,43.73,0,0,1,7.06-8.44,45.09,45.09,0,0,0,5-5.5,6.74,6.74,0,0,0,1.14-3.57,4,4,0,0,0-.88-2.81,3.24,3.24,0,0,0-2.5-.94,3.18,3.18,0,0,0-2.51,1,5.88,5.88,0,0,0-1.1,3.61l0,.86-7.73-.83.09-.83c.39-3.86,1.65-6.68,3.74-8.4a11.8,11.8,0,0,1,7.71-2.55,10.8,10.8,0,0,1,8,3,10.23,10.23,0,0,1,3,7.45,13.61,13.61,0,0,1-.83,4.73,19.52,19.52,0,0,1-2.58,4.62,42.33,42.33,0,0,1-4.12,4.49c-1.92,1.9-3.15,3.16-3.64,3.75l-.35.44h11.52v7.81Z"/>
                  <path class="cls-12" d="M127.5,117v6.13H105.91a16.66,16.66,0,0,1,2.11-6.59,42.42,42.42,0,0,1,6.92-8.26,45.73,45.73,0,0,0,5.11-5.64,7.61,7.61,0,0,0,1.27-4,4.78,4.78,0,0,0-1.11-3.4,4.45,4.45,0,0,0-6.12.06,6.7,6.7,0,0,0-1.32,4.13l-6.14-.65q.56-5.46,3.45-7.83a11,11,0,0,1,7.23-2.37,10,10,0,0,1,7.47,2.75,9.3,9.3,0,0,1,2.72,6.84,12.67,12.67,0,0,1-.78,4.43,18.42,18.42,0,0,1-2.46,4.4,41.54,41.54,0,0,1-4,4.4q-2.92,2.86-3.7,3.8a11.2,11.2,0,0,0-1.26,1.84Z"/>
                  <polygon class="cls-13" points="116.09 83.95 116.47 83.95 116.66 83.96 116.69 84.27 116.73 84.8 116.78 84.3 116.82 83.97 117.04 83.99 117.39 83.97 117.44 84.5 117.51 84 118.21 84.04 118.21 84.18 118.25 84.7 118.3 84.2 118.33 84.04 118.97 84.06 118.77 90.19 117.82 90.16 117.8 89.84 117.74 89.35 117.7 89.85 117.63 90.14 116.97 90.11 116.92 89.48 116.84 90.11 116.3 90.11 116.28 89.63 116.23 89.14 116.18 89.64 116.11 90.1 115.89 90.08 116.09 83.95"/>
                </g>
                <text class="cls-14" transform="translate(71.31 115.46) scale(0.93 1)">1</text>
                <polygon class="cls-13" points="79.43 69.92 79.82 69.91 80 69.92 80.03 70.24 80.08 70.76 80.12 70.26 80.16 69.93 80.38 69.95 80.73 69.94 80.78 70.46 80.86 69.97 81.55 70.01 81.55 70.14 81.59 70.67 81.64 70.17 81.68 70 82.31 70.03 82.11 76.15 81.16 76.12 81.14 75.81 81.08 75.31 81.04 75.81 80.98 76.11 80.31 76.08 80.26 75.45 80.19 76.08 79.64 76.08 79.62 75.59 79.57 75.1 79.52 75.6 79.45 76.06 79.24 76.04 79.43 69.92"/>
                <text class="cls-15" transform="translate(147.8 110.5) scale(0.92 1)">3</text>
                <text class="cls-16" transform="translate(64.99 191.29) scale(0.93 1)">4</text>
                <polygon class="cls-13" points="158.73 70.48 159.11 70.47 159.3 70.49 159.33 70.8 159.37 71.32 159.42 70.82 159.46 70.49 159.68 70.51 160.03 70.5 160.08 71.02 160.15 70.53 160.84 70.57 160.85 70.71 160.89 71.23 160.94 70.73 160.97 70.57 161.6 70.59 161.41 76.72 160.46 76.68 160.43 76.37 160.38 75.88 160.34 76.38 160.27 76.67 159.61 76.64 159.56 76.01 159.48 76.64 158.94 76.64 158.92 76.16 158.87 75.67 158.82 76.17 158.75 76.63 158.53 76.61 158.73 70.48"/>
                <polygon class="cls-13" points="81.18 150.49 81.56 150.48 81.75 150.5 81.78 150.81 81.82 151.33 81.87 150.83 81.91 150.5 82.13 150.52 82.48 150.51 82.53 151.03 82.6 150.54 83.3 150.58 83.3 150.72 83.34 151.24 83.39 150.74 83.42 150.58 84.06 150.6 83.86 156.73 82.91 156.69 82.88 156.38 82.83 155.89 82.79 156.39 82.72 156.68 82.06 156.65 82.01 156.02 81.93 156.65 81.39 156.65 81.37 156.17 81.32 155.68 81.27 156.18 81.2 156.64 80.98 156.62 81.18 150.49"/>
                <g>
                  <text class="cls-17" transform="translate(148.46 191.31) scale(0.93 1)">6</text>
                  <polygon class="cls-13" points="162.91 151.83 163.29 151.83 163.48 151.84 163.51 152.16 163.55 152.68 163.6 152.18 163.64 151.85 163.86 151.87 164.21 151.85 164.25 152.38 164.33 151.88 165.02 151.92 165.03 152.06 165.07 152.58 165.12 152.08 165.15 151.92 165.78 151.94 165.59 158.07 164.64 158.04 164.61 157.72 164.56 157.23 164.51 157.73 164.45 158.02 163.79 157.99 163.74 157.37 163.66 158 163.12 158 163.1 157.51 163.05 157.02 163 157.52 162.93 157.98 162.71 157.96 162.91 151.83"/>
                </g>
                <g>
                  <text class="cls-18" transform="translate(113.69 171.98) scale(0.93 1)">5</text>
                  <polygon class="cls-13" points="124.04 134.54 124.42 134.54 124.61 134.55 124.64 134.87 124.68 135.39 124.73 134.89 124.77 134.56 124.99 134.58 125.34 134.57 125.38 135.09 125.46 134.6 126.15 134.63 126.16 134.77 126.2 135.29 126.25 134.79 126.28 134.63 126.91 134.66 126.72 140.78 125.77 140.75 125.74 140.43 125.69 139.94 125.64 140.44 125.58 140.73 124.92 140.7 124.86 140.08 124.79 140.71 124.25 140.71 124.23 140.22 124.17 139.73 124.13 140.23 124.06 140.69 123.84 140.67 124.04 134.54"/>
                </g>
              </g>
              <path class="cls-19" d="M73.49,40.52s38.62-46.42,80.15,0"/>
              <circle class="cls-20" cx="114.44" cy="24.99" r="6.08"/>
            </g>
          </g>
          <ellipse class="cls-21" cx="348.11" cy="476.57" rx="59.63" ry="9.83"/>
          <polygon class="cls-22" points="193.56 470.85 152.31 517.27 472.92 517.27 419.3 473.17 193.56 470.85"/>
          <g>
            <g>
              <rect class="cls-23" x="309.22" y="276.43" width="80.35" height="68.2"/>
              <path class="cls-24" d="M309.9,345.72V274.1h-5.21a7.78,7.78,0,0,0-7.78,7.78v63.84Z"/>
              <path class="cls-24" d="M388.8,345.72V274.1H394a7.77,7.77,0,0,1,7.77,7.78v63.84Z"/>
            </g>
            <g>
              <g>
                <g>
                  <path class="cls-25" d="M355.68,408c1.59,17.27,3.06,33.05,3.95,43.61h15.82c.44-10.72,1.35-26.6,2.32-43.59a11.15,11.15,0,0,0-11-11.94H366A10.7,10.7,0,0,0,355.68,408Z"/>
                  <g>
                    <path class="cls-26" d="M358.4,454.5c0,.32,18.24.66,18.29.27.37-3.44,1-10.78,1.19-12.77H357.62C357.88,445.72,358.24,452.14,358.4,454.5Z"/>
                    <path class="cls-27" d="M388,480.61c4.8,0,8.85-1.33,9.86-3.8a14.83,14.83,0,0,0,.07-4.46c-.13-1.32-2.31-4.17-3.34-4.67-1.05,3.18-5.9,9.59-14.84,7.05-8.33-2.36-22.05-10.18-22.85-11,0,0,0,4,.5,4.29,6.37,4,18.74,10.22,18.91,10.28A32.45,32.45,0,0,0,388,480.61Z"/>
                    <path class="cls-28" d="M358,450.91c.6.19,2.49,2.64,9.26,3.43.57.07,0-3,.54-3.37,1-.57,11.12-.91,11.73-.61s.71,1,1.2,3.75c.53,1.52,16.07,13.37,16.91,17.78.46,2.4-1.54,4.37-5.71,5a27.82,27.82,0,0,1-14.46-1.68c-2.12-.8-19.56-10.21-20.63-11.3s.21-10.15.29-12.65C357.17,450.92,357.67,450.81,358,450.91Z"/>
                    <path class="cls-29" d="M385,457.65a.5.5,0,0,0-.16-.73c-1.41-.78-3.87-.83-6.44-.13l-.25.07a9.86,9.86,0,0,0-5.57,3.59.51.51,0,0,0,.18.73.64.64,0,0,0,.43,0,.71.71,0,0,0,.35-.26,8.78,8.78,0,0,1,4.87-3.09l.22-.06c2.25-.61,4.43-.59,5.58,0A.64.64,0,0,0,385,457.65Z"/>
                    <path class="cls-29" d="M387.94,460.24a.49.49,0,0,0-.12-.73c-1.39-.83-3.85-1-6.44-.37l-.25.06a9.86,9.86,0,0,0-5.69,3.38.5.5,0,0,0,.14.73.62.62,0,0,0,.44.06.7.7,0,0,0,.36-.25,8.77,8.77,0,0,1,5-2.9l.23-.05c2.26-.53,4.45-.43,5.57.25A.62.62,0,0,0,387.94,460.24Z"/>
                    <path class="cls-29" d="M390.89,462.69a.49.49,0,0,0-.11-.73c-1.37-.86-3.83-1-6.43-.49l-.25.06a9.82,9.82,0,0,0-5.75,3.28.5.5,0,0,0,.13.73.63.63,0,0,0,.8-.18,8.85,8.85,0,0,1,5-2.81l.23,0c2.27-.49,4.46-.35,5.57.35A.62.62,0,0,0,390.89,462.69Z"/>
                  </g>
                </g>
                <g>
                  <path class="cls-25" d="M341.64,408c-1.58,17.27-3.06,33.05-3.94,43.61H321.88c-.45-10.72-1.36-26.6-2.33-43.59a11.16,11.16,0,0,1,11-11.94h.79A10.69,10.69,0,0,1,341.64,408Z"/>
                  <g>
                    <path class="cls-26" d="M338.92,454.5c0,.32-18.24.66-18.28.27-.38-3.44-1-10.78-1.2-12.77H339.7C339.44,445.72,339.09,452.14,338.92,454.5Z"/>
                    <path class="cls-27" d="M309.31,480.61c-4.8,0-8.85-1.33-9.86-3.8a14.83,14.83,0,0,1-.07-4.46c.13-1.32,2.31-4.17,3.34-4.67,1,3.18,5.91,9.59,14.85,7.05,8.32-2.36,22-10.18,22.84-11,0,0,0,4-.5,4.29-6.37,4-18.74,10.22-18.91,10.28A32.45,32.45,0,0,1,309.31,480.61Z"/>
                    <path class="cls-28" d="M339.29,450.91c-.6.19-2.48,2.64-9.25,3.43-.57.07,0-3-.55-3.37-1-.57-11.12-.91-11.73-.61s-.71,1-1.2,3.75c-.53,1.52-16.07,13.37-16.91,17.78-.46,2.4,1.54,4.37,5.71,5a27.82,27.82,0,0,0,14.46-1.68c2.12-.8,19.56-10.21,20.63-11.3s-.2-10.15-.29-12.65C340.15,450.92,339.65,450.81,339.29,450.91Z"/>
                    <path class="cls-29" d="M312.32,457.65a.5.5,0,0,1,.16-.73c1.41-.78,3.88-.83,6.44-.13l.25.07a9.86,9.86,0,0,1,5.57,3.59.5.5,0,0,1-.17.73.67.67,0,0,1-.44,0,.71.71,0,0,1-.35-.26,8.78,8.78,0,0,0-4.87-3.09l-.22-.06c-2.24-.61-4.43-.59-5.58,0A.64.64,0,0,1,312.32,457.65Z"/>
                    <path class="cls-29" d="M309.38,460.24a.48.48,0,0,1,.13-.73c1.38-.83,3.84-1,6.43-.37l.25.06a9.89,9.89,0,0,1,5.7,3.38.5.5,0,0,1-.15.73.59.59,0,0,1-.43.06.68.68,0,0,1-.37-.25,8.77,8.77,0,0,0-5-2.9l-.22-.05c-2.27-.53-4.45-.43-5.58.25A.62.62,0,0,1,309.38,460.24Z"/>
                    <path class="cls-29" d="M306.43,462.69a.49.49,0,0,1,.11-.73c1.37-.86,3.83-1,6.43-.49l.26.06a9.79,9.79,0,0,1,5.74,3.28.48.48,0,0,1-.13.73.64.64,0,0,1-.43.06.65.65,0,0,1-.37-.24,8.78,8.78,0,0,0-5-2.81l-.23,0c-2.27-.49-4.45-.35-5.56.35A.63.63,0,0,1,306.43,462.69Z"/>
                  </g>
                </g>
              </g>
              <g>
                <path class="cls-30" d="M391.41,452.48c-3.68,0-6.46.31-6.46-3.17V344.93a6.66,6.66,0,0,1,13.31,0V449.31C398.26,452.79,395.08,452.48,391.41,452.48Z"/>
                <path class="cls-30" d="M302.1,452.48c-3.68,0-6.45.31-6.45-3.17V344.93a6.66,6.66,0,0,1,13.31,0V449.31C309,452.79,305.78,452.48,302.1,452.48Z"/>
                <path class="cls-31" d="M457.06,510.17a6.48,6.48,0,0,0,6.65-6.31V399.48a6.66,6.66,0,0,0-13.31,0V503.86A6.49,6.49,0,0,0,457.06,510.17Z"/>
                <path class="cls-32" d="M422.59,482.69a6.49,6.49,0,0,0,6.66-6.31V372a6.66,6.66,0,0,0-13.31,0V476.38A6.48,6.48,0,0,0,422.59,482.69Z"/>
                <path class="cls-31" d="M154.35,510.17a6.49,6.49,0,0,1-6.66-6.31V399.48a6.66,6.66,0,0,1,13.31,0V503.86A6.48,6.48,0,0,1,154.35,510.17Z"/>
                <path class="cls-32" d="M188.81,482.69a6.49,6.49,0,0,1-6.65-6.31V372a6.66,6.66,0,0,1,13.31,0V476.38A6.49,6.49,0,0,1,188.81,482.69Z"/>
                <rect class="cls-33" x="450.4" y="413.64" width="13.31" height="21.04"/>
                <rect class="cls-33" x="147.69" y="413.64" width="13.31" height="23.15"/>
                <path class="cls-34" d="M138.43,381.75H476.15a0,0,0,0,1,0,0V430.8a.55.55,0,0,1-.55.55H139a.55.55,0,0,1-.55-.55V381.75A0,0,0,0,1,138.43,381.75Z"/>
                <polygon class="cls-33" points="138.43 393 476.15 390.22 476.15 381.75 138.43 381.75 138.43 393"/>
                <path class="cls-35" d="M493.41,377.74H121.17v8.66a2.1,2.1,0,0,0,2.25,1.9H491.16a2.1,2.1,0,0,0,2.25-1.9Z"/>
                <path class="cls-36" d="M489.9,380.54H124.67c-2.6,0-4.3-2.31-3.14-4.28l26.16-31a3.64,3.64,0,0,1,3.14-1.64H466.11a3.64,3.64,0,0,1,3.14,1.64l23.79,31C494.21,378.22,492.51,380.54,489.9,380.54Z"/>
              </g>
              <g>
                <path class="cls-21" d="M156.56,358.25s-16.67,1.49-9.77,5.2,26.41,14.85,38.63,14.29,49.81-.57,47.28-5.43S161.56,357.8,156.56,358.25Z"/>
                <g>
                  <g>
                    <path class="cls-37" d="M198,368.7c.2-.78,3.19-12.15,6-26,2.69-13.2,5.76-31.43,5.16-43.31-.47-9.45-2.94-16.54-7.34-21.07a16.14,16.14,0,0,0-11.63-5.08,14.45,14.45,0,0,0-1.5.08c-3,.34-7.95.9-12.41,5.27-5.21,5.09-8.55,14.24-9.92,27.2a231.43,231.43,0,0,0-.19,41.27c.87,10.89,2.12,18.36,2.19,18.76l2.72,2.9Z"/>
                    <path class="cls-38" d="M202.11,316.57s-7,11.09-16.88,7.31-12.89-19.17-12.55-26.57.56-7.81.56-7.81L170,364.29Z"/>
                    <g>
                      <path class="cls-38" d="M204.75,305.7a27.77,27.77,0,0,0,6.74-1.36c3.13-1.1,6.91-3.29,7.17-7.55,0-.07,0-8.07-4.17-14.32-3.89-5.83-9.49-7.67-12.49-8.66l-.73-.24a5.9,5.9,0,0,0-1.93-.27,23.27,23.27,0,0,0-6.15,1.14,12.36,12.36,0,0,1,4.41,2.46c2.2,1.85,5,5.39,6,11.76C205.27,300.07,204.82,305.08,204.75,305.7Z"/>
                      <path class="cls-39" d="M200.4,280s2.68,3.41,3.46,10.66.89,15,.89,15a22.22,22.22,0,0,0,8.11-1.9c4.22-1.9,5.15-3.69,5.8-6.44s-1.14-9.8-4.17-14.89-9.39-7.53-9.39-7.53,6.46,3.3,8.09,9.14-3,7.68-5.25,6.24S200.4,280,200.4,280Z"/>
                    </g>
                    <path class="cls-39" d="M147.57,328.1a17.38,17.38,0,0,0-.64,6.81,1,1,0,0,0,.71.82l.37-3.2A39.2,39.2,0,0,1,147.57,328.1Z"/>
                    <path class="cls-40" d="M197.59,272.34s.65-9.77-1.58-11.38-8.48-1.44-9.32-.81-.79,10.94-.79,10.94Z"/>
                    <path class="cls-41" d="M148,332.53s-2.23,19.3-2.18,19.65,3.21,1,3.56.63,2.51-19.63,2.51-19.63Z"/>
                    <path class="cls-42" d="M156.85,356.13c-.06-2.47-1.1-5.63-1.79-5.53s-1.53,7.6-3.5,8.09-4.38-3.85-4-14.14.83-17.29.83-17.29l6-.36s-1.88,24.1-1.58,24.93,1.18-1.23,1.92-3.65,2.47-.84,2.47-.84Z"/>
                    <path class="cls-43" d="M156.22,265.49c-3.66,3.69-9.45,56.44-8.56,64.93s6.22,8,7.3,2.76,5.13-52,7.11-58.75,3.48-10.62,3.48-10.62S158.61,263.07,156.22,265.49Z"/>
                    <path class="cls-40" d="M174.88,274.32s-1.86-6.19-4.89-9.25-8.22-2.32-8.22-2.32-3.74,1-5.55,2.74a7,7,0,0,1,5.77,3.4c1.89,3.4,5,11.34,5.27,13.59S174.88,274.32,174.88,274.32Z"/>
                    <path class="cls-37" d="M187.05,271.28c1.76,0,2.8-.29,3-.82-.19-.36-2.59-5-4.37-5.3h-.77a.63.63,0,0,1,.45.18c.36.47.37,4.63-.2,5.85A17.85,17.85,0,0,0,187.05,271.28Z"/>
                    <path class="cls-38" d="M185.69,265.16s-.27-.25-3.38.08a15.82,15.82,0,0,0-5.39,1.6l2.78-.09s5-2,7.21-.85A1.71,1.71,0,0,0,185.69,265.16Z"/>
                    <path class="cls-40" d="M171,368.67c.12-2.4,2.68-55.59,3.19-65.6.52-10.47,1.47-17.34,10.19-24.54a20.55,20.55,0,0,1,13.46-4.64,26.55,26.55,0,0,1,6.66.86c-3.09-1.16-10.11-3.69-13.64-4.17a12.34,12.34,0,0,0-1.68-.1c-4.77,0-11.61,2.06-14.31,3.84-2.94,1.93-10,7.93-12.74,21.86-2.64,13.63-5.41,56.24-5.57,60.48-.15,3.77.48,5.06,1.69,6.11S170,368.25,171,368.67Z"/>
                    <path class="cls-40" d="M178.48,272.51c-.38-2.52.3-5.69,2.33-6.63a10.18,10.18,0,0,1,3.31-.77c-3,.07-6.42,1-7.44,1.93s-3.46,7.65-3.83,8.7Z"/>
                    <path class="cls-43" d="M172.68,334.1l-1,23.53-.53,11.09s-11.19-4.65-12.86-6-1.84-3.25-1.69-6.11.77-13.2,1.48-22,2-22.06,3.25-34.12,6.32-19.08,9-22.22c0,0-6.71,6.46-7.75,22s-2.56,40.93,2.77,43.52S172.68,334.1,172.68,334.1Z"/>
                    <path class="cls-44" d="M204.51,274.75s-8.86-3.41-13.4-4.14-10.69,1-14.65,2.69-8,6.82-9.31,9.63-3.7,13.15.54,14.58,4.72-5,10.8-12.56S189.72,272.41,204.51,274.75Z"/>
                    <path class="cls-42" d="M205.1,274.94l-3.1-1.13s-7.89-1.8-14.51,1.72-10.67,8.33-12.74,14.93-3,44.5-3,44.5l-1.29,33.5.62.26,1.72-37.91s1.13-24,1.54-30.88,2.14-12.31,4.71-15.85,7.62-7.84,12.91-9.29S205.1,274.94,205.1,274.94Z"/>
                    <path class="cls-41" d="M218.66,294.61A29.61,29.61,0,0,0,214.19,282,17.59,17.59,0,0,0,204,274.73l-2.26-.3a20.45,20.45,0,0,1,10.06,6.15c4.37,5,5.47,14.12,5.47,14.12Z"/>
                    <path class="cls-45" d="M170.92,357.61l-.42,10.85s-10-4.44-11.86-5.42-2.2-1.93-2-7.06S159,323.31,159,323.31s-1.14,22.65-.55,29.36,7.9,9.63,10,9.63,3-17.47,3-17.47Z"/>
                    <path class="cls-46" d="M200.26,274.3a24.57,24.57,0,0,0-11.69,1.82,21.57,21.57,0,0,0-12.18,13.24c-1.34,4.15-2.15,11.91-2.15,11.91s-1-.29-.53-4.29.74-12,9-18.33,14.14-5.31,17.1-5.17,3.74,1.11,3.74,1.11Z"/>
                    <path class="cls-47" d="M155.25,350.65c-.29-.3-.58.79-.88,2.15s-1.48,6-3.16,5.93-2.47-2.88-2.47-2.88,1,1.63,2,.23a20,20,0,0,0,2-4.25s0,.45.27.25,1.86-5.24,2.64-5.19a2.78,2.78,0,0,0-1.08,2.18C154.42,350.75,155.25,350.65,155.25,350.65Z"/>
                    <path class="cls-38" d="M172.68,335.86l-1.56,32.86,45.52-2.13L217.72,300a27.17,27.17,0,0,1-13,5.73s-.15,9.57-5.87,14.8-11.58,4-11.58,4Z"/>
                    <path class="cls-37" d="M163.08,271.06a12.09,12.09,0,0,0-2.46-3.88c-1.37-1.12-3.83-1.94-4.4-1.69s-1.62,3.65-2.26,6.79-.9,4.55-.9,4.55,1.92-4.1,5.4-4.1,3.41,2.48,3.41,2.48Z"/>
                  </g>
                  <g>
                    <g>
                      <g>
                        <path class="cls-48" d="M201.78,278.2a.39.39,0,0,0-.54-.4l-22.86,10a1.17,1.17,0,0,0-.23,2h0a4.46,4.46,0,0,0,4.44.5l18.75-8.2Z"/>
                        <path class="cls-49" d="M204.85,281.39,181.43,292,180,291l-.5-.34-.47-.32-.13-.1a1.56,1.56,0,0,1-.32-.42,1.47,1.47,0,0,1-.12-.58,1.29,1.29,0,0,1,.17-.63,1.27,1.27,0,0,1,.61-.55l21.88-9.54c.05.08.1.17.16.25s.2.28.32.42a4.28,4.28,0,0,0,.41.45l.41.38a6.9,6.9,0,0,0,.59.43c.17.11.34.22.53.32A8.53,8.53,0,0,0,204.85,281.39Z"/>
                        <g>
                          <path class="cls-50" d="M201.62,279.22l-23.14,10a1.29,1.29,0,0,1,.17-.63l22.65-9.84C201.4,278.94,201.5,279.08,201.62,279.22Z"/>
                          <path class="cls-50" d="M202.44,280.05l-23.52,10.22a1.56,1.56,0,0,1-.32-.42L202,279.67Z"/>
                          <path class="cls-50" d="M203.56,280.8,180,291l-.5-.34L203,280.48C203.2,280.59,203.37,280.7,203.56,280.8Z"/>
                        </g>
                        <path class="cls-51" d="M205,280.54l-24.72,10.8-4.35,38.88a1.36,1.36,0,0,0,1.9,1.4l22.71-9.93a.85.85,0,0,0,.51-.7l4.49-40.05A.39.39,0,0,0,205,280.54Z"/>
                        <polygon class="cls-52" points="201.84 313.53 201.33 318.12 176.68 328.98 177.21 324.3 201.84 313.53"/>
                        <polygon class="cls-52" points="205.19 283.61 205.02 285.17 180.37 296.03 180.56 294.38 205.19 283.61"/>
                        <path class="cls-48" d="M182.59,290.31,178,331.53a4.46,4.46,0,0,1-4.44-.5,1.14,1.14,0,0,1-.47-1.07s4.5-39.54,4.61-41.17a1.15,1.15,0,0,0,.47,1,4.44,4.44,0,0,0,4.44.5Z"/>
                        <path class="cls-53" d="M176.58,323.9a4.46,4.46,0,0,1-2.15-.85,1.13,1.13,0,0,1-.47-1c0,.32-.22,2.12-.51,4.8a1.17,1.17,0,0,0,.46.83,4.38,4.38,0,0,0,2.16.84,4.43,4.43,0,0,0,2.29-.34l.51-4.61A4.53,4.53,0,0,1,176.58,323.9Z"/>
                        <path class="cls-53" d="M179.94,294a4.49,4.49,0,0,1-2.16-.85,1.13,1.13,0,0,1-.47-1c0,.18-.08.81-.18,1.8a1.11,1.11,0,0,0,.47.86,4.46,4.46,0,0,0,2.15.85,4.53,4.53,0,0,0,2.29-.35l.18-1.64A4.51,4.51,0,0,1,179.94,294Z"/>
                        <polygon class="cls-52" points="202.14 310.85 201.97 312.4 177.32 323.27 177.51 321.62 202.14 310.85"/>
                        <path class="cls-53" d="M176.89,321.2a4.48,4.48,0,0,1-2.16-.84,1.15,1.15,0,0,1-.47-1c0,.18-.08.82-.18,1.8a1.15,1.15,0,0,0,.47.87,4.5,4.5,0,0,0,4.44.5l.18-1.64A4.4,4.4,0,0,1,176.89,321.2Z"/>
                      </g>
                      <polygon class="cls-54" points="196.42 310.84 186.68 315.19 189.01 294.38 198.75 290.03 196.42 310.84"/>
                    </g>
                    <polygon class="cls-55" points="185.1 287.02 188.75 285.44 189.1 282.25 185.45 283.87 185.1 287.02"/>
                    <polygon class="cls-56" points="197.73 282.78 199.81 281.87 200.03 279.9 197.95 280.81 197.73 282.78"/>
                  </g>
                  <g>
                    <path class="cls-54" d="M210.35,291,203.29,294l-13.76,5.72-2.81,38.2-13.55,5.57a.78.78,0,0,1-1.06-.82l5.62-43.15a1.94,1.94,0,0,1,1.18-1.54L190,293.34l14.14-5.88,1-.44a5.68,5.68,0,0,1,5.6.73,1.9,1.9,0,0,1,.75,1.53A1.93,1.93,0,0,1,210.35,291Z"/>
                    <path class="cls-57" d="M210.35,291,203.29,294l.85-6.51,1-.44a5.68,5.68,0,0,1,5.6.73,1.9,1.9,0,0,1,.75,1.53A1.93,1.93,0,0,1,210.35,291Z"/>
                    <path class="cls-49" d="M210.53,290.11a2,2,0,0,1-1.15,1.14h0l-.86.46-20.2,10.73-9.13,44.37a9.64,9.64,0,0,0-1.35-1.36c-.22-.18-.44-.35-.67-.51s-.46-.32-.7-.46-.45-.27-.68-.39-.58-.3-.87-.43l-.69-.29-.59-.22,5.77-44.21,25.8-10.79a5.75,5.75,0,0,1,1.45-.38,5.42,5.42,0,0,1,1.45,0h0l.29,0,.58.14.33.11.16.06a2.4,2.4,0,0,1,.59.46,2.19,2.19,0,0,1,.4.62A1.36,1.36,0,0,1,210.53,290.11Z"/>
                    <g>
                      <path class="cls-50" d="M209.32,288.06l-28.66,11.58-5.73,44-.69-.29L180,299.13l28.12-11.36h0l.29,0,.58.14Z"/>
                      <path class="cls-50" d="M210.47,289.2l-28.28,11.43-5.71,43.85c-.23-.14-.45-.27-.68-.39l5.72-44,28.55-11.54A2.19,2.19,0,0,1,210.47,289.2Z"/>
                      <path class="cls-50" d="M209.38,291.25h0l-.86.46-25,10.1-5.68,43.64c-.22-.18-.44-.35-.67-.51l5.69-43.64,27.66-11.19A2,2,0,0,1,209.38,291.25Z"/>
                    </g>
                    <path class="cls-58" d="M185.42,303.06l-6.22,43.75a9.64,9.64,0,0,0-1.35-1.36c-.22-.18-.44-.35-.67-.51s-.46-.32-.7-.46-.45-.27-.68-.39-.58-.3-.87-.43l-.69-.29-.59-.22,5.77-44.21A15.46,15.46,0,0,1,185.42,303.06Z"/>
                    <path class="cls-54" d="M211.51,289.52l-5.94,45.58a1.9,1.9,0,0,1-1.16,1.52l-1.94.81-24.08,10a.78.78,0,0,1-1.06-.82L183,303.35a1.73,1.73,0,0,1,1-1.36l24.4-10.14,1.95-.81A1.93,1.93,0,0,0,211.51,289.52Z"/>
                    <path class="cls-57" d="M211.51,289.52l-5.94,45.58a1.9,1.9,0,0,1-1.16,1.52l-1.94.81,5.93-45.58,1.95-.81A1.93,1.93,0,0,0,211.51,289.52Z"/>
                  </g>
                  <g>
                    <g>
                      <g>
                        <path class="cls-48" d="M211.3,293.25a.55.55,0,0,0-.78-.55l-32.16,15.15a1.67,1.67,0,0,0-.24,2.88h0a6.37,6.37,0,0,0,6.35.53l26.37-12.43Z"/>
                        <path class="cls-49" d="M215.8,297.66l-32.92,16-2-1.31-.72-.46-.69-.44-.19-.14a1.85,1.85,0,0,1-.45-2.3,1.77,1.77,0,0,1,.85-.81l30.78-14.48a2.71,2.71,0,0,0,.24.35,6.26,6.26,0,0,0,.46.59,7.23,7.23,0,0,0,.61.63c.19.17.39.35.6.51a8.56,8.56,0,0,0,.85.59c.25.16.5.3.77.44A13.16,13.16,0,0,0,215.8,297.66Z"/>
                        <g>
                          <path class="cls-50" d="M211.11,294.7,178.56,310a1.9,1.9,0,0,1,.22-.9l31.87-14.94A6.26,6.26,0,0,0,211.11,294.7Z"/>
                          <path class="cls-50" d="M212.32,295.84l-33.09,15.51a1.89,1.89,0,0,1-.47-.59l33-15.43C211.91,295.5,212.11,295.68,212.32,295.84Z"/>
                          <path class="cls-50" d="M213.94,296.87l-33.11,15.52-.72-.46,33.06-15.5C213.42,296.59,213.67,296.73,213.94,296.87Z"/>
                        </g>
                        <path class="cls-51" d="M215.91,296.44l-34.77,16.39-4.63,55.54a1.94,1.94,0,0,0,2.77,1.92l31.94-15.06a1.24,1.24,0,0,0,.71-1L216.7,297A.56.56,0,0,0,215.91,296.44Z"/>
                        <polygon class="cls-56" points="215.97 305.71 214.46 323.8 179.8 340.26 181.32 322.04 215.97 305.71"/>
                        <path class="cls-48" d="M184.47,311.26l-4.92,58.9a6.35,6.35,0,0,1-6.34-.53,1.64,1.64,0,0,1-.71-1.51s4.81-56.5,4.91-58.83a1.63,1.63,0,0,0,.71,1.44,6.34,6.34,0,0,0,6.35.53Z"/>
                        <path class="cls-59" d="M180.42,321.49a6.24,6.24,0,0,1-3.1-1.12,1.6,1.6,0,0,1-.71-1.43c0,.46-1.19,14.56-1.5,18.39a1.61,1.61,0,0,0,.7,1.16,6.41,6.41,0,0,0,3.1,1.12,6.33,6.33,0,0,0,3.24-.59l1.51-18.12A6.33,6.33,0,0,1,180.42,321.49Z"/>
                      </g>
                      <polygon class="cls-52" points="212.08 309.8 189.28 320.6 189.15 322.16 211.95 311.36 212.08 309.8"/>
                      <polygon class="cls-52" points="211.79 313.26 188.99 324.07 188.86 325.63 211.66 314.83 211.79 313.26"/>
                      <polygon class="cls-52" points="211.49 316.89 188.69 327.69 188.56 329.25 211.36 318.45 211.49 316.89"/>
                    </g>
                    <path class="cls-55" d="M208.36,317.25l1.28-15.37a2,2,0,0,0-1.09-1.94l-1.48-.72L203.33,301l1.48.73a2,2,0,0,1,1.1,1.93l-1.29,15.38c0-.23,2.34-6.22,2.34-6.22Z"/>
                  </g>
                  <g>
                    <path class="cls-43" d="M181.53,372.77a11.72,11.72,0,0,0,1.31-.1c1.92-.22,45.08-2,46.73-2.11.14-.89,2.23-14.27,5.17-27.85a184.59,184.59,0,0,1,5.5-19.29,23.61,23.61,0,0,0,1.27-8.3,9.71,9.71,0,0,0-2.94-6.28c-2.74-2.55-7.64-5.6-15.41-5.6a44.46,44.46,0,0,0-25.67,9.1,31.19,31.19,0,0,0-8.1,10.22c-3.81,7.55-4.89,16.31-5.93,24.78l-.1.79c-2.09,16.94-2.2,24.52-2.2,24.59h0A.87.87,0,0,0,181.53,372.77Z"/>
                    <path class="cls-40" d="M181.07,372.67c0-.15.14-.92.27-2,.7-5.6,2.83-22.62,8-37.16,6.23-17.51,18.83-28.39,32.89-28.39h.56a27.18,27.18,0,0,1,15.42,4.72,7.26,7.26,0,0,1,3.3,5.23,28.69,28.69,0,0,0-4-12.34,17.4,17.4,0,0,0-6.75-5.65,25.42,25.42,0,0,0-11.44-2.52,37,37,0,0,0-9,1.18c-12.07,3-21.62,11.95-28.37,26.45-5.76,12.36-9.7,31.17-10.3,35.39l-.53,11.09C174.37,370.08,180.52,372.61,181.07,372.67Z"/>
                    <path class="cls-45" d="M185.4,375c3.68,0,22.34-1.06,34.68-1.75,5.64-.32,10.09-.58,11-.61,3.82-.13,5.89-4.62,6.33-13.72.5-10.18-2.55-15.19-2.79-15.57-1.4-.06-3-.1-4.68-.1-16.7,0-43.15,3.19-44.31,3.33-2.38,8.74-4.39,25.3-4.49,26.09.23.21,2.27,2,3.64,2.31.08,0,.28,0,.6,0Z"/>
                    <path class="cls-39" d="M184.45,375c.19-.39,1.53-3.43,2.52-12.71,1-9.06-.87-15.06-1.22-16.11a120.71,120.71,0,0,0-2.88,14.36c-1.24,8.53-1.66,11.82-1.71,12.14A11.82,11.82,0,0,0,184.45,375Z"/>
                    <path class="cls-43" d="M196.63,319.57a67.1,67.1,0,0,0-8.09,16.32c-3.31,9.75-6.17,26.34-6.56,30s-.82,6.78-.82,6.78l-10-4,.72-11.83s4-21.59,9.79-34S192.82,306,192.82,306a60.67,60.67,0,0,0-11.66,19.13c-4.57,11.92-6.29,26.57-3.33,29.16s5.78-7.1,9.92-18.43S196.63,319.57,196.63,319.57Z"/>
                    <path class="cls-44" d="M241.44,314.62a30.64,30.64,0,0,0-3.95-11.84c-3.33-5.32-10.13-8-18.83-8.17s-22.1,5.44-26.91,17.06,3,7.33,9.91,1.18,19.28-9,27.39-7.15C236.9,307.53,240.37,311.08,241.44,314.62Z"/>
                    <path class="cls-42" d="M171.7,355.93s1.76-8.23,5.26-20.28c3.57-12.29,8.08-24.08,19.67-33.49s26-8.4,33.4-5.44,9,9,9,9-2.62-8.39-15.79-9.8-21.55,3.56-26.65,7.92-8.14,7.92-13.69,18.43-11,38.49-11.55,43.08Z"/>
                    <path class="cls-45" d="M184.61,351s-2,13.09-2.61,16.89-.84,4.78-.84,4.78l-10-4,.29-4.78,3.65-16.9s-2.53,13.48-1.94,17,5.23,4.79,6.91,2.47S184.61,351,184.61,351Z"/>
                    <path class="cls-39" d="M237.28,352.44s.22,4.56.2,5.23-1.07,1.38-1.62,1.49-19,1-19,1a6.22,6.22,0,0,1-1.1.82c-.25.08-.07,7.31-.07,7.31l-1.63-.42-1.26.61s-1,.05-1-.24.18-7,.18-7a6.63,6.63,0,0,1-2.18-1.45s-13.46.33-15.43.13-6.84-1.92-7.26-6.6c0-.21-.37-4.83-1.33-7Z"/>
                    <path class="cls-60" d="M193.62,357.36c.62,0,23.46-.25,41.79-1.72a1.64,1.64,0,0,0,1.3-1c1.07-1.93.74-6.77-2-11.93a10.79,10.79,0,0,0-2.76-.14c-3.46,0-9.5.23-18,.67-21.82,1.15-27.85,2.48-28.27,2.78,0,0,0,0,0,.2a20.53,20.53,0,0,0,2.57,5.54C189.36,353.49,191.43,356.45,193.62,357.36Z"/>
                    <path class="cls-61" d="M212.8,368.46c.29-.31,1.09-1.1,1.38-1.1a5.15,5.15,0,0,1,1.51.91l.59-11h-3Z"/>
                    <path class="cls-62" d="M214.44,360.53a4,4,0,1,0-4.05-4A4,4,0,0,0,214.44,360.53Z"/>
                    <path class="cls-63" d="M215.12,360.53a4,4,0,1,0-4.05-4A4,4,0,0,0,215.12,360.53Z"/>
                    <path class="cls-45" d="M234.75,342.75s.51-.17-9.89,0-30,1.82-32.78,2.19-6,.77-6.31,1.09c0,0,.9-4.18,3-10.83s5.68-12.05,6.64-13.94a18.84,18.84,0,0,1,2.88-3.84,91.45,91.45,0,0,0-5.88,10.43c-2.81,5.88-2.56,12.83,13.9,12.61s24.94-2,27.3-2.48,3.87-5.88,3.87-5.88Z"/>
                    <path class="cls-61" d="M233.66,343.32c.52.15,2.15,2.77,2.57,6.39s-1,5.09-1.28,5.16-13.7,1-13.89.81-1.08-5.56-7-5.34-5.61,2-15.43,2.1-10.83-5.93-10.83-5.93,5.39-.94,23.1-2.37S233.66,343.32,233.66,343.32Z"/>
                    <path class="cls-43" d="M236,360.82c0,1.14-1.05,6.58-2.42,8.47a6,6,0,0,1-4.25,2.33l-28.09,1.48s14.32-2.26,15.17-3.18,3-7.85,3.07-8.07S236,360.82,236,360.82Z"/>
                    <path class="cls-45" d="M241.33,319a12.4,12.4,0,0,0,0-4.54c-.41-2.69-4.41-9.27-17.59-9.35s-21.83,5.85-28.79,17a71,71,0,0,0-8.95,22.44l37.2-5s-13.95,1.42-17.33-7.83c-1-2.7-2.21-12.78,10.33-17.32,15-5.44,22.67-.84,24.07,1.68S241.33,319,241.33,319Z"/>
                    <path class="cls-64" d="M213.6,352.53a4.13,4.13,0,0,0-3.21,4.44l-16.35.39,13.82-1.66S209,353.13,213.6,352.53Z"/>
                    <path class="cls-38" d="M234.75,342.75a225.86,225.86,0,0,0-23.24.53c-11.41,1-24.16,1.42-25.74,2.78,0,0,.88-7.13,7.5-21.24s19.27-20.63,33.12-19.74,15.08,9.68,15.12,10.4c0,0-1.36-8-14.38-9.14a29.33,29.33,0,0,0-30.5,19.39c-4.66,13.18-1,15.34,9.68,16.11s27.33-.12,28.07-.56S236,338,236,338Z"/>
                    <path class="cls-65" d="M219.16,356.62l-6.27-3.5s2.4-1.46,4.35-.08A4,4,0,0,1,219.16,356.62Z"/>
                    <path class="cls-65" d="M218.85,358.05l-7.08-3.82a4.74,4.74,0,0,0-.69,2.55l6,3.23A3.88,3.88,0,0,0,218.85,358.05Z"/>
                    <path class="cls-46" d="M231,297.12c-3.62-1.63-8.25-3.46-18-2.08s-17.16,7.85-17.16,7.85-.46,1.53,2.18-.36,6.3-5.19,16.39-6.4S231.17,298,231.17,298a28.46,28.46,0,0,0,3.33,1.59C234.64,299.44,233.22,298.14,231,297.12Z"/>
                  </g>
                </g>
              </g>
              <g>
                <path class="cls-26" d="M375.68,310.25l1.22,31.19-54.07,2.23L322.75,333l-.16-22.77L302,312.6c3-17,11.72-24,19.5-26.75a64.32,64.32,0,0,1,14.4-3.26l19.59.22c31.91-1.91,36.73,21.76,36.73,21.76Z"/>
                <g>
                  <path class="cls-66" d="M342.09,293.11c.72-.26,3.2-2,8.25-.34s-1.26,7.16-1.26,7.16h-5.55S336.12,295.3,342.09,293.11Z"/>
                  <path class="cls-26" d="M348.85,292.46c-.47.17,8.77,9.92,8.77,9.92a57.51,57.51,0,0,0,7.32-15.55l-4.15-6.31A20,20,0,0,1,348.85,292.46Z"/>
                  <g>
                    <path class="cls-66" d="M356,325.85c-.13.38-.25.74-.38,1.1h0c-4.1,11.22-10.81,16.83-10.81,16.83a60.92,60.92,0,0,1-5.29-7.14,35.13,35.13,0,0,1-1.77-3.2,14.2,14.2,0,0,1-1.45-4.06c.07-1.4.17-2.74.3-4s.23-2.37.38-3.5a82.53,82.53,0,0,1,1.53-8.53c.29-1.26.6-2.44.91-3.52,2-7,3.7-10.6,4.12-10.88,1.29-.85,6-.32,6-.32a40.72,40.72,0,0,0,.9,6.59c.15.81.32,1.63.5,2.46.53,2.39,1.13,4.82,1.75,7.11.22.79.44,1.57.64,2.32.78,2.77,1.52,5.17,2,6.76C355.73,325.1,356,325.85,356,325.85Z"/>
                    <path class="cls-67" d="M350.92,307.65a44,44,0,0,0-12.07,5.63c.29-1.26.65-2.57,1-3.65a49.79,49.79,0,0,1,10.61-4.44C350.57,306,350.74,306.82,350.92,307.65Z"/>
                    <path class="cls-67" d="M353,317.28c-4.49,1.75-11.9,4.94-16.08,8.07.11-1.21.26-2.6.41-3.72a63.27,63.27,0,0,1,15-6.77C352.56,315.65,352.79,316.53,353,317.28Z"/>
                    <path class="cls-67" d="M355.61,325.86c-.12.37-.25.83-.38,1.19h0c-4.41,2-11.25,5.32-15.48,9.36a33.61,33.61,0,0,1-1.73-3.16,91.58,91.58,0,0,1,17-9.32C355.43,325.2,355.61,325.86,355.61,325.86Z"/>
                  </g>
                  <path class="cls-26" d="M338.05,280.48c-.59.42-4.37,4.1-4.63,6.39s1.6,14.57,1.6,14.57l10.1-9.17s-5-4-6.9-8.17Z"/>
                </g>
                <path class="cls-68" d="M256.73,371.29l-1.35.61.1.7H397.24l.08-.7s-43.1-5.67-43.51-5.75-28.11,1.05-28.11,1.05S263.1,364.36,256.73,371.29Z"/>
                <path class="cls-6" d="M397.32,371.9S370,369,361,369c-9.32,0-36.94,2.92-36.94,2.92s-28.16-2.72-37.92-2.59c-7.49.09-30.78,2.59-30.78,2.59l18.37-31.58A175.66,175.66,0,0,1,302,338.48c5.44.18,21.86,1.84,21.86,1.84s21.94-1.52,29.26-1.52c7,0,27.88.4,27.88.4Z"/>
                <path class="cls-69" d="M401.69,333.5c.36,7.9-27.7,19-27.7,19l-7.3-9.24c5.34-3.74,9.95-6.74,13-8.69,2.51-1.6,4-2.49,4-2.49l-3.85-12.52,0-.12,3.22-1.21,13.15-4.95s.62,2.06,1.36,5.27C398.49,322.62,401.42,327.49,401.69,333.5Z"/>
                <path class="cls-25" d="M370.1,343.22s-11.18-3.89-15.56-1.94l-4,2s1.81,9.28,9.59,13.17l3.05-.88c-.79,0,12.13,1.68,13.73-4.6Z"/>
                <path class="cls-70" d="M354.54,341.28l-9,4.28-6.81,5.4s.47,6.48,10.35-.58l7-2.07S357.09,343.94,354.54,341.28Z"/>
                <path class="cls-70" d="M356.16,345l-7.92,3.78-6,4.77s.42,5.73,9.15-.51l6.17-1.82S358.41,347.32,356.16,345Z"/>
                <path class="cls-70" d="M358.84,347.54l-7.57,3.62-5.75,4.56s.39,5.48,8.74-.49l5.9-1.75S361,349.79,358.84,347.54Z"/>
                <path class="cls-70" d="M362.45,349.55l-7.56,3.61-5.76,4.56s.4,5.48,8.74-.49l5.91-1.74S364.6,351.8,362.45,349.55Z"/>
                <path class="cls-71" d="M391.76,333.12a61.06,61.06,0,0,0-11.67,1.78,39.54,39.54,0,0,0,4.11-3l-4.34-12.42,3.18-1.33,13.15-4.95a44.09,44.09,0,0,0,.94,5.57l-14.19,6.12,2.37,7.56A12.91,12.91,0,0,1,391.76,333.12Z"/>
                <path class="cls-69" d="M318.69,319l-4.89,16.92C312.75,348.5,283.06,349,283.06,349A7.21,7.21,0,0,1,278,347.8a19,19,0,0,1-5.63-6.55c.5-.38,1-.74,1.49-1.1a87.92,87.92,0,0,1,16.38-9.86,21.61,21.61,0,0,1,5-1.68c.28-.08.56-.14.84-.2a75.6,75.6,0,0,1,4.1-9.94c2.12-4.3,4-7.34,4-7.34Z"/>
                <path class="cls-72" d="M304.52,304.17l-4.09,11.37,18.14,7.26,5.35-15.07A45.94,45.94,0,0,0,304.52,304.17Z"/>
                <path class="cls-72" d="M390.62,299.93l5.73,12.81-17.64,7.19-4.39-12.2A19.5,19.5,0,0,1,390.62,299.93Z"/>
                <path class="cls-73" d="M281.83,319.16l11.38,34.3a3.73,3.73,0,0,0,3.45-1.12l-11.42-34S283.47,316.54,281.83,319.16Z"/>
                <path class="cls-69" d="M287.94,349l-.05,0c-15,8.17-18.63-2.56-18.63-2.56a7.3,7.3,0,0,1-.88-2.35c-1.48-7.87,12.46-13.64,12.46-13.64,8.58-4.69,12.43,13.76,12.43,13.76C295.5,352,288.55,349.27,287.94,349Z"/>
                <path class="cls-74" d="M293.21,353.46l2.58,3,.94-.44-.07-3.65S293.8,349.57,293.21,353.46Z"/>
                <path class="cls-75" d="M295.79,356.43l1,1.09-.09-1.53S295.92,355.43,295.79,356.43Z"/>
                <polygon class="cls-68" points="323.86 340.32 323.34 371.9 324.26 371.9 323.98 340.32 323.86 340.32"/>
                <rect class="cls-76" x="254.68" y="372.6" width="143.4" height="1.97"/>
                <g>
                  <g>
                    <path class="cls-77" d="M433.22,365.19,468.51,351,438.06,341l-40.71,19Z"/>
                    <path class="cls-78" d="M398.63,359.71l35.07,5.22c1.17-1.95.59-8.95,0-10.77l-35.07-5.37C399,350.53,399.09,358.14,398.63,359.71Z"/>
                    <path class="cls-77" d="M469.53,354.84l.13-10.74-36.19,10c1.76,3.82.68,10.4-.29,11.08Z"/>
                    <path class="cls-79" d="M397.8,348.91l35.72,5.24,36-10-33.71-3.62Z"/>
                  </g>
                  <polygon class="cls-80" points="415.42 336.98 440.87 349.21 441.53 352.17 465 342.31 426.49 333.03 415.42 336.98"/>
                  <g>
                    <path class="cls-81" d="M438.45,355.59l-31.06-14.43,26.4-8.31,35.8,16.45Z"/>
                    <path class="cls-82" d="M468.46,349.07,438,355.32c-1.06-2.06-1.62-8.24-.14-10.31l30.45-6.42A47.53,47.53,0,0,0,468.46,349.07Z"/>
                    <path class="cls-81" d="M406.24,347.51,406,337.18l32.36,7.66c-2,1.45-.73,10,.13,10.75Z"/>
                    <path class="cls-83" d="M469.18,338.67l-31,6.29-32.06-7.65,29.44-4.64Z"/>
                  </g>
                  <g>
                    <path class="cls-84" d="M408.86,339.91l21.68,5.37,2-1-21.47-5.06Z"/>
                    <path class="cls-85" d="M466.05,336l-35.58,8.92-21.56-13,33.63-6.26,23.11,5Z"/>
                    <path class="cls-86" d="M430.41,339l-21.5-7,.87,7.89,20.69,5.07Z"/>
                    <path class="cls-84" d="M466.65,330.64c.25.54-.29,1.36-.34,2.7-.05,1.71.38,2.46,0,2.74l-35.94,9.21a15.39,15.39,0,0,0,.23-3.59,24,24,0,0,0,.25-2.9c-8-3-13.62-4.68-21.63-7.71l33.26-6.59C451.35,327,457.8,328.14,466.65,330.64Z"/>
                    <path class="cls-87" d="M466.65,330.64,431,338.81l-21.71-7.72,33.39-6.62Z"/>
                  </g>
                  <path class="cls-88" d="M426.89,362.52l1.53-1.92,2.24,2s-.34-6.22.71-6.65c-.18,0-3.69-.69-3.87-.64C426.34,356.28,426.89,362.52,426.89,362.52Z"/>
                </g>
                <path class="cls-71" d="M301.65,316.86s-1.72,1.14-2.72,5.14c7.84,2.72,14.28,5.71,14.28,5.71l-3.6,9.56a23.18,23.18,0,0,0-7.28-2.61c5.27,1.8,6.37,4.59,6.37,4.59-1.92,4.14-8.21,5.62-11.32,6.11.06.23-2.47,1.63-2.41,1.87,12-2,17.07-6.22,17.91-9.49l4.18-15.11Z"/>
                <path class="cls-89" d="M356.87,286.41s-4.85,5.73-9.26,5.73c-5.49,0-9.06-8.6-9.06-8.6.17-.34-.5-1-.38-1.34,1.77-4.78-.21-6.16-.21-6.16s23.19-8.27,20.42,0c-1.89,5.63-1.18,6.65-.27,8.09C358.53,284.8,356.87,286.41,356.87,286.41Z"/>
                <path class="cls-90" d="M357.64,284.75c-3,1.32-5.09,2.54-8.68,2.24-6.07-.51-6.56-1.36-9.57-2.71A8.32,8.32,0,0,0,338,276s23.19-8.27,20.42,0C356.49,281.67,356.73,283.32,357.64,284.75Z"/>
                <path class="cls-91" d="M299.61,249.19c1.51,5.07,5.87,8.47,8.91,8.17s3.3-4.35,2.36-9.2-4.16-8.55-7.2-8.25C299.52,240.33,298.2,244.43,299.61,249.19Z"/>
                <path class="cls-91" d="M397.38,249.56c-2,4.71-6.49,7.23-9.39,6.36s-2.73-4.93-1.34-9.54,4.87-7.64,7.77-6.76C398.38,240.83,399.23,245.13,397.38,249.56Z"/>
                <path class="cls-69" d="M388.26,254.34c-2.36,22.06-30.45,31.8-38.48,31-10.25-1.09-37.76-3.87-42.26-42.69a8.36,8.36,0,0,1,0-1v0c.4-15.18-5.12-29-3.66-34.89,5.05-20.35,8.71-12.41,32.8-14.7,22.52-2.14,32.11-2.21,46,9.38,1.23,1,5.3,2.18,5.36,5.84.11,6.22.26,10.88.39,14.62C388.89,234.74,390.12,236.82,388.26,254.34Z"/>
                <path class="cls-92" d="M388.43,221.83c-6.28-8.26-14-11.87-23.41-13.43-10.59,7.56-21.79,12-34.54,9.45,15.21-13,4.11-8.61,7-11.72,0,3.31-6.35,8.17-12.89,5.51A42.41,42.41,0,0,1,312.86,226c-1.73,1.34-4.51,11.44-4.86,12.84-.2.82-.27,1.84-.44,2.78.4-15.18-5.12-29-3.66-34.89,5.05-20.35,8.71-12.41,32.8-14.7,22.52-2.14,32.11-2.21,46,9.38,1.23,1,5.3,2.18,5.36,5.84C388.15,213.43,388.3,218.09,388.43,221.83Z"/>
                <path class="cls-93" d="M337.37,224.93l-.74-.93a6.2,6.2,0,0,0-5.7-2.57,10.19,10.19,0,0,0-7.19,5.23c-.24.43-.43.59-.06.3C326.21,224.94,332.69,222.41,337.37,224.93Z"/>
                <path class="cls-94" d="M363.2,206.43s-6.17,10.65-32.72,10.5c0,0,11.36-9.72,5.11-11.27,0,0-4.12,7-13,3.62,0,0,4.23.83-11.43,15.75,0,0-4.46,5.16-3.6,17.57.05.83-6.18-1-6.47-9.73,0,0-11.05-9.08-2.12-20.77,0,0-9.56-16.54,6.95-22.1,0,0,1.78-16.32,14.65-17.19,0,0,13.6-20,32.87-6.1,0,0,17.28-8.28,26.69,8.23,0,0,13.28,4.87,11.41,17.07,0,0,17.59,8.3,6.64,21.14,0,0,4.78,9.78-4.27,21.17l-4.51,11.61-.67-4.52c-.11-9.64,1.53-13-2.8-21.62C385.9,219.79,381.79,205.89,363.2,206.43Z"/>
                <path class="cls-95" d="M344.5,251.18s.54,2.87,4.81,3,5.08-3,5.08-3S350.06,255.49,344.5,251.18Z"/>
                <path class="cls-93" d="M360.93,223.79l.74-.93a6.2,6.2,0,0,1,5.71-2.58,10.18,10.18,0,0,1,7.19,5.24c.24.42.43.59.06.3C372.1,223.79,365.62,221.26,360.93,223.79Z"/>
                <path class="cls-90" d="M336.2,259.84c0,1.26-.13,2.08-1.39,2.08s-4.26-2.67-4.57-3.9c-.57-2.28,1.09-2.86,2.29-2.28S336.2,258.58,336.2,259.84Z"/>
                <path class="cls-90" d="M364.85,260.52c0,1.26.13,2.09,1.39,2.09s4.26-2.68,4.57-3.9c.57-2.28-1.09-2.86-2.29-2.28S364.85,259.26,364.85,260.52Z"/>
                <g>
                  <g>
                    <path class="cls-93" d="M349.9,272.59c12,0,22.22-16.24,19.9-15.48-3.55,1.16-3.24,2-12.76,2.47-1.87.1-5.76.24-8.62.12a95.23,95.23,0,0,1-12.64-1.43c-1.74-.33-3.17-1.3-4.2-1.19C328.94,257.36,339.37,272.59,349.9,272.59Z"/>
                    <path class="cls-96" d="M349.9,272.59a12.6,12.6,0,0,1-6.73-2,8.05,8.05,0,0,1,5.17-3.27c3.16-.6,8,.12,9.77,2.56C356.34,271.69,352.13,272.54,349.9,272.59Z"/>
                    <path class="cls-6" d="M333.48,257.64a58.67,58.67,0,0,0,32.59.63c-1.89,2.8-7.77,6.85-15.31,7C342.59,265.5,336.64,261,333.48,257.64Z"/>
                  </g>
                  <path class="cls-97" d="M331.65,257s-.07.05,0,.07a49.13,49.13,0,0,0,38.18,0S354.41,262.43,331.65,257Z"/>
                  <path class="cls-97" d="M345.08,273.08a8.31,8.31,0,0,0,8.33.39A5.66,5.66,0,0,1,345.08,273.08Z"/>
                </g>
                <path class="cls-25" d="M287.89,349s-1.29-7.77-4.81-11.81"/>
                <path class="cls-25" d="M283.88,350.56s-3-9-4.66-10.73"/>
                <g>
                  <path class="cls-70" d="M363.36,349.55s-5.3,2.08-7.66,3.23-6.81,5.21-6.81,5.21"/>
                  <path class="cls-98" d="M363.36,349.55c-2.17,1.12-5.41,2.51-7.67,3.51a56,56,0,0,0-6.8,4.93,30.82,30.82,0,0,1,6.57-5.37c2.61-1.1,5.23-2.16,7.9-3.07Z"/>
                </g>
                <g>
                  <path class="cls-70" d="M365.06,351.63c-1-3-10.37-10.19-10.37-10.19s-7.54,2.9-9.33,4.3c-1.59.79-6.59,5.26-6.59,5.26s.79,3.13,3.29,2.63c0,0,4.47-6,14.23-8.5"/>
                  <path class="cls-98" d="M365.06,351.63c-1.06-2.2-3.09-3.76-4.84-5.4s-3.72-3.15-5.66-4.63l.2,0c-3.78,1.57-7.73,3-11,5.49-1.67,1.29-3.27,2.66-4.85,4.05l.07-.23a4.41,4.41,0,0,0,1.07,1.91,2.12,2.12,0,0,0,2,.57l-.13.09a19,19,0,0,1,3.05-3,29,29,0,0,1,11.35-5.42,32.65,32.65,0,0,0-4,1.4,26.39,26.39,0,0,0-10.09,7.23l-.06.07a2.59,2.59,0,0,1-2.42-.66,4.85,4.85,0,0,1-1.25-2.24c1.61-1.44,3.24-2.87,4.95-4.2,3.27-2.51,7.35-4,11.26-5.52,1.95,1.55,3.85,3.15,5.67,4.83s3.68,3.35,4.67,5.59Z"/>
                </g>
                <g>
                  <path class="cls-70" d="M342.06,353.63s1.09,3.08,3.3,2.29c0,0,5.62-4.44,7.16-5.36s6.82-3.08,6.82-3.08"/>
                  <path class="cls-98" d="M342.06,353.63c.55,1.24,1.74,2.75,3.24,2.14.82-.73,2.15-1.75,3.16-2.55a30.62,30.62,0,0,1,10.88-5.74l-3.71,1.76c-3.82,1.62-6.83,4.43-10.17,6.81-1.64.68-3-1-3.4-2.42Z"/>
                </g>
                <path class="cls-99" d="M345.52,355.92s.18,2.61,3.61,1.91c.43,2.3,2.72,3.74,8.58-.48l6.22-1.76"/>
                <path class="cls-70" d="M369.71,341.73l-1.65.9,8.24,8.87s.12-.24,1.44-1.05S369.71,341.73,369.71,341.73Z"/>
                <polyline class="cls-26" points="390.16 298.69 395.71 311.3 396.35 312.74 397.45 315.41 396.94 316.01 397.55 318.51"/>
                <polyline class="cls-26" points="375.11 309.92 377.87 318.81 378.64 321.42 379.91 326.22 381.19 325.88 398.32 317.32 394.4 308.75"/>
                <polyline class="cls-26" points="304.48 303.56 301.45 312.01 300.44 314.78 299.63 316.64 300.43 316.96"/>
                <polyline class="cls-26" points="324 308.63 320.04 319.48 317.53 326.48 298.27 319.59 301.55 311.72"/>
                <g>
                  <path class="cls-70" d="M280.58,351.2s-4.84-7.08-6.57-7.94"/>
                  <path class="cls-98" d="M280.58,351.2c-2.25-2.46-4.19-5.7-6.57-7.94,2.93,1.83,4.82,5,6.57,7.94Z"/>
                </g>
                <g>
                  <path class="cls-90" d="M389.2,249.59s1.75-4.56,5.35-5.23C394.55,244.36,389.3,248.6,389.2,249.59Z"/>
                  <path class="cls-90" d="M389.71,248.71a3.52,3.52,0,0,1,1.73,3.86S392.44,249.19,389.71,248.71Z"/>
                </g>
                <g>
                  <path class="cls-90" d="M308.69,252.1s-2.15-5-5.75-5.71C302.94,246.39,308.6,251.11,308.69,252.1Z"/>
                  <path class="cls-90" d="M307.78,250.74a3.5,3.5,0,0,0-1.73,3.86S305,251.22,307.78,250.74Z"/>
                </g>
                <g>
                  <g>
                    <path class="cls-100" d="M374.69,239.16a8.15,8.15,0,0,1-9.32,6.82,8.24,8.24,0,0,1-7.32-9,8.15,8.15,0,0,1,9.32-6.82A8.24,8.24,0,0,1,374.69,239.16Z"/>
                    <path class="cls-101" d="M374.71,239.16c-.86,7.19-10.59,9.37-15,3.91a8,8,0,0,1,1.43-11.63c5.79-4.24,14.53.46,13.56,7.72Zm0,0c.89-6.9-7.86-11.3-13.22-7.31a7.52,7.52,0,0,0-1.47,11c4.25,5.36,13.81,3.36,14.69-3.7Z"/>
                  </g>
                  <g>
                    <path class="cls-102" d="M364.91,238.27a4.27,4.27,0,0,0-2.35,5.57,6.14,6.14,0,0,0,1.14,1.76.78.78,0,0,1,.21,0l.17.07.28.07.29.1h.05a3.83,3.83,0,0,0,.58.07.7.7,0,0,1,.29,0l.32,0,.46,0a.72.72,0,0,1,.26,0c.13,0,.25,0,.37,0,.32,0,.63-.1.94-.17l.18,0,.09,0c.15,0,.3-.09.45-.13l.12,0c.19-.07.39-.13.57-.21l.25-.2a4.23,4.23,0,0,0,.89-4.52A4.28,4.28,0,0,0,364.91,238.27Z"/>
                    <path class="cls-6" d="M369.21,237.57a1.12,1.12,0,0,1-.38,1.53,1.1,1.1,0,0,1-1.51-.42,1.12,1.12,0,0,1,.38-1.53A1.1,1.1,0,0,1,369.21,237.57Z"/>
                  </g>
                  <g>
                    <g>
                      <path class="cls-100" d="M323.74,237.81a8.43,8.43,0,0,0,8.45,8.15,8,8,0,0,0,8.47-7.77A8.45,8.45,0,0,0,332.2,230,8,8,0,0,0,323.74,237.81Z"/>
                      <path class="cls-101" d="M323.76,237.81c-.05,7,9.18,10.55,14.18,5.94a7.47,7.47,0,0,0,0-11.12c-4.7-4.71-14.17-1.92-14.19,5.18Zm-.05,0c0-7.47,9.5-10.56,14.58-5.54a7.89,7.89,0,0,1-.14,11.72c-5.16,4.69-14.52.94-14.44-6.18Z"/>
                    </g>
                    <g>
                      <path class="cls-103" d="M329,245l0,0a6.84,6.84,0,0,0,6.61.18,4.57,4.57,0,0,0,.58-1.17,4,4,0,1,0-7.64-2.42,4.44,4.44,0,0,0,.21,3.22Z"/>
                      <path class="cls-6" d="M330.11,237.75a1.29,1.29,0,0,0,.34,1.8,1.27,1.27,0,0,0,1.77-.38,1.3,1.3,0,0,0-.34-1.8A1.27,1.27,0,0,0,330.11,237.75Z"/>
                    </g>
                  </g>
                  <path class="cls-104" d="M324,237.83l0,0a8.73,8.73,0,0,1,2.57-5.62,9.2,9.2,0,0,1,4.12-2.05,8.88,8.88,0,0,1,6,1,8.21,8.21,0,0,1,3.68,4.83,10.06,10.06,0,0,0-5-2.91,9.78,9.78,0,0,0-7.44,1.28A27.69,27.69,0,0,0,324,237.83Z"/>
                  <path class="cls-104" d="M358.28,237a8.12,8.12,0,0,1,10.63-6.47,9.46,9.46,0,0,1,5.84,5.87c-1.56-.74-6.12-4.6-12.09-2.69C360.48,234.41,359.45,236.08,358.28,237Z"/>
                </g>
              </g>
            </g>
          </g>
        </g>
      </g>
    </g>
  </g>
</svg>
