<svg id="Layer_1" data-name="Layer 1" xmlns="http://www.w3.org/2000/svg" viewBox="0 0 872.93 169.53"><defs><style>.cls-1{fill:#3172c2;stroke:#fff;stroke-miterlimit:10;stroke-width:2px;}.cls-2{fill:#fff;}</style></defs><rect class="cls-1" x="48.11" y="45.69" width="776.72" height="78.15" rx="39.07"/><path class="cls-2" d="M110,101,98.61,86.42V101H91.46V69.55h7.15V83.32L109.1,69.55h8.19l-11.7,14.71,13.5,16.7Z"/><path class="cls-2" d="M138.08,86.6a5.13,5.13,0,0,1-.8,2.79A6.66,6.66,0,0,1,135,91.53a12.29,12.29,0,0,1-3.5,1.37,19.62,19.62,0,0,1-4.59.5l-.54,0c-.21,0-.45,0-.73,0A4.17,4.17,0,0,0,127,96a4.25,4.25,0,0,0,2.91,1,13.36,13.36,0,0,0,6.63-2V99.7a13.24,13.24,0,0,1-3.26,1.42,14,14,0,0,1-3.54.42,11.66,11.66,0,0,1-4.07-.67,8.26,8.26,0,0,1-3.08-2,8.65,8.65,0,0,1-1.94-3.06,11.28,11.28,0,0,1-.67-4,12.4,12.4,0,0,1,.79-4.52,10.55,10.55,0,0,1,2.2-3.53,9.79,9.79,0,0,1,3.4-2.3,11.4,11.4,0,0,1,4.36-.81,8.26,8.26,0,0,1,5.34,1.62A5.29,5.29,0,0,1,138.08,86.6Zm-6,.45a1.54,1.54,0,0,0-.61-1.23,2.33,2.33,0,0,0-1.56-.52,3.51,3.51,0,0,0-2.56,1.06,5,5,0,0,0-1.39,2.9,3.87,3.87,0,0,0,.72.09h.67Q132.08,89.35,132.09,87.05Z"/><path class="cls-2" d="M160.17,86.6a5,5,0,0,1-.8,2.79,6.62,6.62,0,0,1-2.25,2.14,12.48,12.48,0,0,1-3.51,1.37,19.5,19.5,0,0,1-4.59.5l-.54,0c-.2,0-.44,0-.73,0A4.17,4.17,0,0,0,149.1,96,4.25,4.25,0,0,0,152,97a13.3,13.3,0,0,0,6.63-2V99.7a13.08,13.08,0,0,1-3.26,1.42,13.89,13.89,0,0,1-3.53.42,11.62,11.62,0,0,1-4.07-.67,8.22,8.22,0,0,1-3.09-2,8.63,8.63,0,0,1-1.93-3.06,11.28,11.28,0,0,1-.68-4,12.62,12.62,0,0,1,.79-4.52,10.41,10.41,0,0,1,2.21-3.53,9.66,9.66,0,0,1,3.39-2.3,11.45,11.45,0,0,1,4.37-.81,8.21,8.21,0,0,1,5.33,1.62A5.29,5.29,0,0,1,160.17,86.6Zm-6,.45a1.55,1.55,0,0,0-.62-1.23A2.31,2.31,0,0,0,152,85.3a3.54,3.54,0,0,0-2.57,1.06,4.93,4.93,0,0,0-1.38,2.9,3.69,3.69,0,0,0,.71.09h.67Q154.19,89.35,154.19,87.05Z"/><path class="cls-2" d="M184.7,89.89a15.2,15.2,0,0,1-.63,4.5,10.79,10.79,0,0,1-1.78,3.5,7.91,7.91,0,0,1-2.73,2.27,7.66,7.66,0,0,1-3.49.8,7.8,7.8,0,0,1-2.36-.31,7.26,7.26,0,0,1-2-1.16v14.88h-6.3V87.09c0-.32,0-.7-.06-1.15s-.11-.9-.18-1.39-.17-1-.27-1.46a12,12,0,0,0-.39-1.35h6.1a4.47,4.47,0,0,1,.33.88,10.81,10.81,0,0,1,.19,1.24,9.59,9.59,0,0,1,2.71-2.07,7.19,7.19,0,0,1,3.11-.63,7.83,7.83,0,0,1,3.17.63,6.85,6.85,0,0,1,2.45,1.77,7.91,7.91,0,0,1,1.58,2.77A10.63,10.63,0,0,1,184.7,89.89Zm-6,1a4.31,4.31,0,0,0-.89-2.89,3.1,3.1,0,0,0-2.47-1,3.54,3.54,0,0,0-2.9,1.33,5.43,5.43,0,0,0-1.07,3.55v2.61a4.75,4.75,0,0,0,3.19,1.2,3.83,3.83,0,0,0,3-1.26A5.12,5.12,0,0,0,178.71,90.89Z"/><path class="cls-2" d="M206.34,101V85.43h-4V81.16h4v-5h5.9v5h5.08v4.27h-5.08V101Z"/><path class="cls-2" d="M233.52,101V89.77a6.2,6.2,0,0,0-.2-1.74,2.3,2.3,0,0,0-.58-1,1.74,1.74,0,0,0-.83-.45,3.72,3.72,0,0,0-1-.11,2.73,2.73,0,0,0-1.49.45,4.66,4.66,0,0,0-1.27,1.24A6.84,6.84,0,0,0,227.3,90a7.24,7.24,0,0,0-.35,2.24V101h-6V70.13h5.94V83.41a6.78,6.78,0,0,1,2.48-1.73,8.21,8.21,0,0,1,3-.52,9.75,9.75,0,0,1,2.59.35,6.52,6.52,0,0,1,2.27,1.12,5.78,5.78,0,0,1,1.62,2,7.12,7.12,0,0,1,.62,3.11V101Z"/><path class="cls-2" d="M263.94,86.6a5.13,5.13,0,0,1-.8,2.79,6.57,6.57,0,0,1-2.26,2.14,12.29,12.29,0,0,1-3.5,1.37,19.5,19.5,0,0,1-4.59.5l-.54,0c-.2,0-.45,0-.73,0A4.17,4.17,0,0,0,252.87,96a4.25,4.25,0,0,0,2.91,1,13.3,13.3,0,0,0,6.63-2V99.7a13.24,13.24,0,0,1-3.26,1.42,13.89,13.89,0,0,1-3.53.42,11.62,11.62,0,0,1-4.07-.67,8.22,8.22,0,0,1-3.09-2,8.63,8.63,0,0,1-1.93-3.06,11.28,11.28,0,0,1-.68-4,12.4,12.4,0,0,1,.79-4.52,10.55,10.55,0,0,1,2.2-3.53,9.79,9.79,0,0,1,3.4-2.3,11.45,11.45,0,0,1,4.37-.81,8.23,8.23,0,0,1,5.33,1.62A5.29,5.29,0,0,1,263.94,86.6Zm-6,.45a1.55,1.55,0,0,0-.62-1.23,2.31,2.31,0,0,0-1.55-.52,3.54,3.54,0,0,0-2.57,1.06,4.93,4.93,0,0,0-1.38,2.9,3.69,3.69,0,0,0,.71.09h.67Q258,89.35,258,87.05Z"/><path class="cls-2" d="M295.06,100.59a13.35,13.35,0,0,1-3.22.37,10.77,10.77,0,0,1-4-.71,9.74,9.74,0,0,1-3.13-2,8.54,8.54,0,0,1-2-3,10.27,10.27,0,0,1-.72-3.91,12.4,12.4,0,0,1,.65-4.12,8.5,8.5,0,0,1,2-3.25,9.07,9.07,0,0,1,3.28-2.1,12.76,12.76,0,0,1,4.57-.75,10.56,10.56,0,0,1,3.44.47,12.75,12.75,0,0,1,2.23,1l-1,5.18L296,87.26a8.56,8.56,0,0,0-.9-.41,4.41,4.41,0,0,0-.95-.22,8.69,8.69,0,0,0-1.23-.07,4.67,4.67,0,0,0-3.47,1.23,4.48,4.48,0,0,0-1.21,3.31,4.39,4.39,0,0,0,1.26,3.34,5,5,0,0,0,3.64,1.21,9.49,9.49,0,0,0,2.34-.28,13.55,13.55,0,0,0,2.39-.85l.4,4.89A15.14,15.14,0,0,1,295.06,100.59Z"/><path class="cls-2" d="M303.09,101V69.59h6V101Z"/><path class="cls-2" d="M329.91,101c0-.21,0-.47-.05-.77s-.06-.52-.07-.85,0-.68-.07-1a7.06,7.06,0,0,1-2.93,2.32,9.43,9.43,0,0,1-3.84.79A7.12,7.12,0,0,1,317.2,99q-2.06-2.43-2.05-6.93,0-5.44,3.31-8.39t9.42-3c.67,0,1.28,0,1.82,0s1.1.09,1.65.16,1.11.17,1.68.29,1.22.29,1.92.5V94.48c0,.69,0,1.42,0,2.18s.08,1.46.14,2.09.12,1.49.18,2.21Zm-1-14.67a9.14,9.14,0,0,0-1.41-.23c-.43,0-.83,0-1.19,0a4.78,4.78,0,0,0-3.85,1.6,6.55,6.55,0,0,0-1.38,4.43,4.4,4.4,0,0,0,.83,2.88,2.87,2.87,0,0,0,2.33,1,4.11,4.11,0,0,0,1.81-.41,4.56,4.56,0,0,0,1.49-1.14,5.63,5.63,0,0,0,1-1.76,6.72,6.72,0,0,0,.36-2.27Z"/><path class="cls-2" d="M355.83,95.47a5.68,5.68,0,0,1-1.91,4.5,7.87,7.87,0,0,1-5.36,1.66,22.32,22.32,0,0,1-4.56-.45,13.6,13.6,0,0,1-3.61-1.21l.77-4.59a15.34,15.34,0,0,0,6.84,2,2,2,0,0,0,1.42-.42,1.36,1.36,0,0,0,.42-1,1.74,1.74,0,0,0-.33-1.1,5.18,5.18,0,0,0-1.65-1.06,27.22,27.22,0,0,1-3.17-1.62,10.6,10.6,0,0,1-2.16-1.69,5.65,5.65,0,0,1-1.21-1.87,6.1,6.1,0,0,1-.39-2.25A5.06,5.06,0,0,1,343.11,82a9.54,9.54,0,0,1,5.68-1.56,17.05,17.05,0,0,1,3.36.3,15.15,15.15,0,0,1,3.36,1.14l-.72,4.55a10.82,10.82,0,0,0-3.09-1.24,14.31,14.31,0,0,0-3-.34,2,2,0,0,0-1.43.39,1.34,1.34,0,0,0-.39,1,1.5,1.5,0,0,0,.62,1.24,13.19,13.19,0,0,0,2.39,1.23,27.83,27.83,0,0,1,2.74,1.56,9.39,9.39,0,0,1,1.84,1.53,5,5,0,0,1,1,1.66A6.06,6.06,0,0,1,355.83,95.47Z"/><path class="cls-2" d="M375.81,95.47a5.68,5.68,0,0,1-1.91,4.5,7.89,7.89,0,0,1-5.36,1.66,22.39,22.39,0,0,1-4.56-.45,13.6,13.6,0,0,1-3.61-1.21l.77-4.59a15.34,15.34,0,0,0,6.84,2A2,2,0,0,0,369.4,97a1.36,1.36,0,0,0,.42-1,1.74,1.74,0,0,0-.33-1.1,5.18,5.18,0,0,0-1.65-1.06,27.22,27.22,0,0,1-3.17-1.62,10.6,10.6,0,0,1-2.16-1.69,5.65,5.65,0,0,1-1.21-1.87,6.1,6.1,0,0,1-.39-2.25A5.06,5.06,0,0,1,363.09,82a9.54,9.54,0,0,1,5.68-1.56,17.13,17.13,0,0,1,3.36.3,15.15,15.15,0,0,1,3.36,1.14l-.72,4.55a10.76,10.76,0,0,0-3.1-1.24,14.14,14.14,0,0,0-2.95-.34,2,2,0,0,0-1.43.39,1.34,1.34,0,0,0-.39,1,1.48,1.48,0,0,0,.62,1.24,13.19,13.19,0,0,0,2.39,1.23,26.46,26.46,0,0,1,2.73,1.56,9.19,9.19,0,0,1,1.85,1.53,5,5,0,0,1,1,1.66A6.06,6.06,0,0,1,375.81,95.47Z"/><path class="cls-2" d="M395.07,86.69q-.63-.14-1-.18a6.65,6.65,0,0,0-.81,0,4.54,4.54,0,0,0-3.89,1.76,8.55,8.55,0,0,0-1.33,5.22V101h-6V88c0-.73,0-1.37,0-1.91a13.9,13.9,0,0,0-.11-1.52,12.61,12.61,0,0,0-.25-1.39c-.1-.46-.25-1-.43-1.57h5.68c.1.37.18.69.26,1a4.49,4.49,0,0,1,.16.74c0,.23.06.48.1.74a8.57,8.57,0,0,1,0,.94A10.13,10.13,0,0,1,390.05,82a4.92,4.92,0,0,1,2.86-.85,4.39,4.39,0,0,1,1,.11,11.51,11.51,0,0,1,1.2.44Z"/><path class="cls-2" d="M417.48,91a11.45,11.45,0,0,1-.74,4.26,8.5,8.5,0,0,1-2.11,3.11,9.06,9.06,0,0,1-3.27,1.93,13.92,13.92,0,0,1-8.47,0,9.06,9.06,0,0,1-3.27-1.93,8.79,8.79,0,0,1-2.13-3.11,11.24,11.24,0,0,1-.76-4.26,11.06,11.06,0,0,1,.74-4.16,8.73,8.73,0,0,1,2.08-3.1,8.84,8.84,0,0,1,3.28-1.92,13.2,13.2,0,0,1,4.3-.66,13.42,13.42,0,0,1,4.23.63,9.13,9.13,0,0,1,3.27,1.89,8.38,8.38,0,0,1,2.11,3.1A11.31,11.31,0,0,1,417.48,91Zm-6,0a4.51,4.51,0,0,0-1.2-3.34A4.45,4.45,0,0,0,407,86.47a4.19,4.19,0,0,0-3.21,1.19A4.73,4.73,0,0,0,402.72,91a5,5,0,0,0,1.09,3.44A4.11,4.11,0,0,0,407,95.65a4.39,4.39,0,0,0,3.29-1.19A4.75,4.75,0,0,0,411.49,91Z"/><path class="cls-2" d="M442.9,91a11.25,11.25,0,0,1-.74,4.26,8.47,8.47,0,0,1-2.1,3.11,9.06,9.06,0,0,1-3.27,1.93,13.92,13.92,0,0,1-8.47,0,9.06,9.06,0,0,1-3.27-1.93,8.79,8.79,0,0,1-2.13-3.11,11.05,11.05,0,0,1-.76-4.26,10.87,10.87,0,0,1,.74-4.16,8.6,8.6,0,0,1,2.08-3.1,8.88,8.88,0,0,1,3.27-1.92,13.24,13.24,0,0,1,4.3-.66,13.44,13.44,0,0,1,4.24.63,9.13,9.13,0,0,1,3.27,1.89,8.35,8.35,0,0,1,2.1,3.1A11.11,11.11,0,0,1,442.9,91Zm-6,0a4.51,4.51,0,0,0-1.21-3.34,4.45,4.45,0,0,0-3.25-1.19,4.18,4.18,0,0,0-3.2,1.19A4.69,4.69,0,0,0,428.14,91a5,5,0,0,0,1.09,3.44,4.13,4.13,0,0,0,3.23,1.21,4.43,4.43,0,0,0,3.3-1.19A4.79,4.79,0,0,0,436.92,91Z"/><path class="cls-2" d="M474.36,101V91.17a6.55,6.55,0,0,0-.76-3.68,2.43,2.43,0,0,0-2.06-1,3.13,3.13,0,0,0-1.34.32,3.33,3.33,0,0,0-1.23,1,5.58,5.58,0,0,0-.89,2,11.75,11.75,0,0,0-.34,3.08V101h-6V91.17a7.1,7.1,0,0,0-.7-3.57,2.53,2.53,0,0,0-2.32-1.13A3.23,3.23,0,0,0,456.09,88,8.31,8.31,0,0,0,455,92.88V101h-6V88.53c0-.73,0-1.39-.05-2a16.54,16.54,0,0,0-.16-1.68,13,13,0,0,0-.31-1.53c-.14-.49-.29-1-.47-1.57h6c.15.47.26.82.34,1s.16.57.25,1a14.06,14.06,0,0,1,3.11-1.91,10.2,10.2,0,0,1,4.11-.74,7.06,7.06,0,0,1,3.07.65,4.52,4.52,0,0,1,2,1.82,6.72,6.72,0,0,1,3-1.84,12.44,12.44,0,0,1,3.87-.63A6.42,6.42,0,0,1,478.63,83a7.26,7.26,0,0,1,1.71,5.2V101Z"/><path class="cls-2" d="M514.23,101V89.72a4.44,4.44,0,0,0-.3-1.82,2.59,2.59,0,0,0-.69-1,1.91,1.91,0,0,0-.86-.39,5.86,5.86,0,0,0-.76-.06,4.87,4.87,0,0,0-.95.17,3.22,3.22,0,0,0-1.37.83,5.49,5.49,0,0,0-1.24,1.91,8.68,8.68,0,0,0-.54,3.38V101h-6V87.87a22.25,22.25,0,0,0-.27-3.41,11.08,11.08,0,0,0-.72-2.76h6a7.73,7.73,0,0,1,.38,1,11.57,11.57,0,0,1,.25,1.17,9.33,9.33,0,0,1,3.09-2.07,8.86,8.86,0,0,1,3.35-.67,6.52,6.52,0,0,1,2.62.52,6.23,6.23,0,0,1,2.1,1.47,6.75,6.75,0,0,1,1.38,2.32,8.86,8.86,0,0,1,.51,3.09V101Z"/><path class="cls-2" d="M544.65,86.6a5.13,5.13,0,0,1-.8,2.79,6.75,6.75,0,0,1-2.26,2.14,12.24,12.24,0,0,1-3.51,1.37,19.47,19.47,0,0,1-4.58.5l-.54,0c-.21,0-.45,0-.73,0A4.08,4.08,0,0,0,533.58,96a4.25,4.25,0,0,0,2.91,1,13.36,13.36,0,0,0,6.63-2V99.7a13.14,13.14,0,0,1-3.27,1.42,13.84,13.84,0,0,1-3.53.42,11.62,11.62,0,0,1-4.07-.67,8.18,8.18,0,0,1-3.08-2,8.65,8.65,0,0,1-1.94-3.06,11.28,11.28,0,0,1-.67-4,12.62,12.62,0,0,1,.78-4.52,10.57,10.57,0,0,1,2.21-3.53,9.7,9.7,0,0,1,3.4-2.3,11.4,11.4,0,0,1,4.36-.81,8.21,8.21,0,0,1,5.33,1.62A5.27,5.27,0,0,1,544.65,86.6Zm-6,.45a1.52,1.52,0,0,0-.62-1.23,2.31,2.31,0,0,0-1.55-.52,3.55,3.55,0,0,0-2.57,1.06,5,5,0,0,0-1.38,2.9,3.87,3.87,0,0,0,.72.09h.66Q538.66,89.35,538.66,87.05Z"/><path class="cls-2" d="M563.41,101c0-.21,0-.47,0-.77s-.05-.52-.07-.85,0-.68-.07-1a7.06,7.06,0,0,1-2.93,2.32,9.43,9.43,0,0,1-3.84.79A7.12,7.12,0,0,1,550.7,99c-1.36-1.62-2.05-3.93-2.05-6.93q0-5.44,3.31-8.39t9.42-3c.67,0,1.28,0,1.82,0s1.1.09,1.65.16,1.11.17,1.69.29,1.21.29,1.91.5V94.48c0,.69,0,1.42,0,2.18s.07,1.46.13,2.09.12,1.49.18,2.21Zm-.94-14.67a9.45,9.45,0,0,0-1.42-.23c-.43,0-.83,0-1.19,0a4.78,4.78,0,0,0-3.85,1.6,6.54,6.54,0,0,0-1.37,4.43,4.4,4.4,0,0,0,.82,2.88,2.88,2.88,0,0,0,2.34,1,4.09,4.09,0,0,0,1.8-.41,4.56,4.56,0,0,0,1.49-1.14,5.63,5.63,0,0,0,1-1.76,6.71,6.71,0,0,0,.37-2.27Z"/><path class="cls-2" d="M576.1,101V85.43h-4V81.16h4v-5H582v5h5.08v4.27H582V101Z"/><path class="cls-2" d="M618.53,101c0-.21,0-.47,0-.77a8.53,8.53,0,0,1-.08-.85c0-.33,0-.68-.07-1a7.06,7.06,0,0,1-2.93,2.32,9.38,9.38,0,0,1-3.83.79A7.11,7.11,0,0,1,605.83,99q-2.05-2.43-2.06-6.93c0-3.63,1.11-6.43,3.31-8.39s5.35-3,9.42-3c.67,0,1.28,0,1.83,0s1.09.09,1.64.16,1.11.17,1.69.29,1.22.29,1.92.5V94.48c0,.69,0,1.42,0,2.18s.07,1.46.13,2.09.12,1.49.18,2.21Zm-.94-14.67a9.25,9.25,0,0,0-1.42-.23c-.43,0-.82,0-1.19,0a4.8,4.8,0,0,0-3.85,1.6,6.6,6.6,0,0,0-1.37,4.43,4.4,4.4,0,0,0,.82,2.88,2.88,2.88,0,0,0,2.34,1,4.17,4.17,0,0,0,1.81-.41,4.67,4.67,0,0,0,1.49-1.14,5.61,5.61,0,0,0,1-1.76,6.47,6.47,0,0,0,.37-2.27Z"/><path class="cls-2" d="M643,101V89.72a4.63,4.63,0,0,0-.29-1.82,2.72,2.72,0,0,0-.7-1,1.91,1.91,0,0,0-.86-.39,5.86,5.86,0,0,0-.76-.06,4.87,4.87,0,0,0-1,.17,3.27,3.27,0,0,0-1.37.83,5.64,5.64,0,0,0-1.24,1.91,8.68,8.68,0,0,0-.54,3.38V101h-6V87.87a22.25,22.25,0,0,0-.27-3.41,11.08,11.08,0,0,0-.72-2.76h6a9.87,9.87,0,0,1,.39,1q.11.4.24,1.17A9.33,9.33,0,0,1,639,81.83a8.9,8.9,0,0,1,3.35-.67,6.52,6.52,0,0,1,2.62.52,6.23,6.23,0,0,1,2.1,1.47,6.77,6.77,0,0,1,1.39,2.32,9.1,9.1,0,0,1,.5,3.09V101Z"/><path class="cls-2" d="M670.83,101c0-.18-.07-.39-.1-.63s-.06-.45-.09-.72-.06-.6-.09-1a8.41,8.41,0,0,1-3,2.23,9.35,9.35,0,0,1-3.57.65,8.8,8.8,0,0,1-3.58-.7,7.87,7.87,0,0,1-2.73-1.93,8.91,8.91,0,0,1-1.76-3A11.5,11.5,0,0,1,655.3,92a13.53,13.53,0,0,1,.74-4.55,11,11,0,0,1,2.07-3.57,9.15,9.15,0,0,1,3.17-2.34,9.66,9.66,0,0,1,4.05-.84,14,14,0,0,1,2,.14,11.56,11.56,0,0,1,2.21.58V69.59h6V94.12c0,.51,0,1.15.07,1.93s.1,1.53.16,2.25.13,1.73.22,2.66Zm-1.31-14.45a6.46,6.46,0,0,0-1.66-.45,14.13,14.13,0,0,0-1.62-.09,4.49,4.49,0,0,0-3.62,1.56,6.29,6.29,0,0,0-1.34,4.25,4.57,4.57,0,0,0,.94,3.08,3.17,3.17,0,0,0,2.57,1.1,5.36,5.36,0,0,0,1.85-.31,3.44,3.44,0,0,0,1.5-1.08,5.76,5.76,0,0,0,1-2,10.85,10.85,0,0,0,.38-3.09Z"/><path class="cls-2" d="M697.64,101V85.43h-4V81.16h4v-5h5.9v5h5.08v4.27h-5.08V101Z"/><path class="cls-2" d="M719.2,75.72a2.49,2.49,0,0,1-1,2,4.17,4.17,0,0,1-5,0,2.7,2.7,0,0,1-1.08-2.06,2.45,2.45,0,0,1,1-2.07,4,4,0,0,1,2.61-.84A4.09,4.09,0,0,1,717,73a3.79,3.79,0,0,1,1.12.63,3.26,3.26,0,0,1,.77,1A2.52,2.52,0,0,1,719.2,75.72ZM712.45,101V81.16h6V101Z"/><path class="cls-2" d="M739.86,101c0-.18-.07-.39-.1-.63s-.06-.45-.09-.72-.06-.6-.09-1a8.41,8.41,0,0,1-3,2.23,9.35,9.35,0,0,1-3.57.65,8.76,8.76,0,0,1-3.58-.7,7.87,7.87,0,0,1-2.73-1.93,8.91,8.91,0,0,1-1.76-3,11.5,11.5,0,0,1-.63-3.91,13.28,13.28,0,0,1,.74-4.55,10.67,10.67,0,0,1,2.07-3.57,9.06,9.06,0,0,1,3.17-2.34,9.66,9.66,0,0,1,4.05-.84,14,14,0,0,1,2,.14,11.56,11.56,0,0,1,2.21.58V69.59h6V94.12c0,.51,0,1.15.07,1.93s.1,1.53.16,2.25.13,1.73.22,2.66Zm-1.31-14.45a6.57,6.57,0,0,0-1.66-.45,14.13,14.13,0,0,0-1.62-.09,4.53,4.53,0,0,0-3.63,1.56,6.34,6.34,0,0,0-1.33,4.25,4.57,4.57,0,0,0,.94,3.08,3.17,3.17,0,0,0,2.57,1.1,5.36,5.36,0,0,0,1.85-.31,3.44,3.44,0,0,0,1.5-1.08,5.76,5.76,0,0,0,1-2,10.85,10.85,0,0,0,.38-3.09Z"/><path class="cls-2" d="M768.56,107.43a9.75,9.75,0,0,1-2,4.14,7,7,0,0,1-3.41,2.17,17.31,17.31,0,0,1-5,.63,15,15,0,0,1-2.9-.29c-1-.2-2-.46-3-.79V108.8l2.82.19c.89,0,1.77.07,2.65.07a6.5,6.5,0,0,0,2.41-.41,3.76,3.76,0,0,0,1.67-1.37,6.53,6.53,0,0,0,.95-2.5,21.53,21.53,0,0,0,.29-3.82V98.53a7.71,7.71,0,0,1-5.62,2.43,6.56,6.56,0,0,1-2.59-.53,6,6,0,0,1-2.14-1.52,7.6,7.6,0,0,1-1.44-2.37,8.67,8.67,0,0,1-.54-3.15c0-1.06,0-2.07,0-3s0-1.93,0-2.9,0-2,0-3-.07-2.13-.16-3.3h6c.09,1.19.14,2.3.15,3.32s0,2,0,2.88,0,1.76,0,2.59,0,1.66,0,2.47a3.71,3.71,0,0,0,.66,2.46,2.41,2.41,0,0,0,1.91.77,3.64,3.64,0,0,0,2.76-1.25,4.73,4.73,0,0,0,1.15-3.33V81.16h6V101A27.88,27.88,0,0,1,768.56,107.43Z"/><path class="cls-2" d="M783.1,98.19a2.43,2.43,0,0,1-1,2,4.19,4.19,0,0,1-5,0A2.6,2.6,0,0,1,777,96a3.54,3.54,0,0,1,2.39-.84A4,4,0,0,1,782,96,2.71,2.71,0,0,1,783.1,98.19Z"/></svg>