<svg id="Layer_1" data-name="Layer 1" xmlns="http://www.w3.org/2000/svg" xmlns:xlink="http://www.w3.org/1999/xlink" viewBox="0 0 600 500"><defs><style>.cls-1{opacity:0.3;}.cls-2{fill:#beb5a6;}.cls-3{fill:#7f7f7e;stroke:url(#Fading_Sky);}.cls-3,.cls-6{stroke-miterlimit:10;stroke-width:0.25px;}.cls-4{fill:#918f8d;}.cls-11,.cls-4{opacity:0.39;}.cls-5{fill:url(#linear-gradient);}.cls-17,.cls-6{fill:#f1f5f4;}.cls-6{stroke:#c2b59b;}.cls-7{opacity:0.36;}.cls-8{fill:#ded8d0;}.cls-9{opacity:0.31;}.cls-10{opacity:0.29;}.cls-11{fill:#7d7a75;}.cls-12{opacity:0.6;}.cls-13{fill:#aaa9a9;}.cls-14{fill:#cbcfce;}.cls-15{fill:#d7dbda;}.cls-16{fill:#e4e8e7;}</style><linearGradient id="Fading_Sky" x1="175.6" y1="197.8" x2="301.95" y2="197.8" gradientUnits="userSpaceOnUse"><stop offset="0" stop-color="#2484c6"/><stop offset="1" stop-color="#2484c6" stop-opacity="0"/></linearGradient><linearGradient id="linear-gradient" x1="731.72" y1="476.55" x2="793.18" y2="282.7" gradientTransform="translate(-375.54 -474.06) rotate(20.14)" gradientUnits="userSpaceOnUse"><stop offset="0" stop-color="#c4bfb8"/><stop offset="0.3" stop-color="#b2ada6"/><stop offset="0.91" stop-color="#847f79"/><stop offset="1" stop-color="#7d7872"/></linearGradient></defs><g class="cls-1"><path d="M369,123.88s-34.69-6-60.21-7.16h0a131.15,131.15,0,0,0-14.87,0h-3.84c1.66-4.66,3.05-14.48-8-25.75C270.72,79.38,225.8,75.74,203,74.63a26.27,26.27,0,0,0-21.72,9.72c-22.82,28.17-85.56,105.78-94,117.49A69,69,0,0,0,78,219.24l-.08.21a42.26,42.26,0,0,0-1.55,5.61,51,51,0,0,0-4.77,11.31c-.79,2.88,4.1,10.19,4.1,10.19-2,5.33,3.41,18.75,8.18,19.49,2.79.44,10.37,3,16.16,5,4.07,1.42,7.24,2.59,7.24,2.59s21.87,9,40.84,15c16.09,5,33.58,4.47,42.9,3.94l21.51.18c8.47.18,16.95.48,22.73,1,2.81.25,6.08.62,9.67,1.06l22.5,3.27c12.36,2,25.5,4.37,36.63,6.67,17.9,3.69,19.86,5.56,19.93,6.16,2-5.53,44.31-125.47,47.08-147.29A109.11,109.11,0,0,0,369,123.88Z"/><path d="M534.46,305.4c.14-1.7-.39-1.59-1.13-2.91s-2.39,2-1.86-2.38-1.53-6.34-1.53-6.34l-2.77-1.72s-1.84-.53-2.75.13-1.41-1.64-3-.45-1.43-1.36-3.43.09-1.43-1.36-3.43.09-3.82-1.5-4.3.18l-2.23,0s-1.27-1.21-2-.68-3.25,0-3.25,0-1.61-1.23-2.5-.86-5.46-.3-5.46-.3-2.17-2.69-3-1.31-4.46,0-4.46,0l-2.82,1s-4,1.05-6,3.78c-.8,1.13-1.91,2.49-2.91,3.75-.19-.45-.62-.79-1.82-.79-3.44,0,0-2.82-3.44-2.82s-2.2-5-4.39-3.44l-2.19-1.88s0-2.51-1.26-2.51-3.13-2.82-3.13-2.82-.32-2.82-1.57-3.13-5-5-5-5,.62-5-1.57-4.07-4.39-3.76-4.39-3.76L443.13,266s-5-2.19-9.71-.62-12.54,3.13-12.85,4.38-4.07-.94-4.7,1.57-1.57,1.57-2.19,2.82-1.26-.63-1.88,1.25A6.87,6.87,0,0,1,409,278.5l-1.39,1.85a6.1,6.1,0,0,0-2.8-2.1l-3.25-.2s-1.87.41-2.36,1.42-2-.77-2.89,1-1.91-.52-3,1.71-1.9-.52-3,1.71-4.07.5-3.7,2.21l-1.95,1.07s-1.69-.46-2.08.35-2.88,1.51-2.88,1.51-2-.31-2.6.44-4.95,2.32-4.95,2.32-3.18-1.32-3.23.27-3.91,2.15-3.91,2.15l-2,2.2s-3,2.84-3.45,6.16-1.78,8.68-1,9.11-1.9,2.46-.4,3.32.57,1.3,1.22,1.94c.44.43-.09.59-.14.89l-.43.39s-2.21-.31-2.36.8-2.87,2.42-2.87,2.42-2.52-.07-2.95,1-5,3.81-5,3.81-4.34-1.16-3.78.89S338,330.6,338,330.6l-1.56,3.16s-2.54,4.15-1.73,8.48,1.24,11.43,2.3,11.85-1.32,3.48.81,4.34S339,360,340,360.7s-.7,1,.88,1.81a6.13,6.13,0,0,1,2.42,2.86l2,2s-2.56.21.64,1.5-.58,2.17,3.09,4.08,3.52,3,3.52,3a3,3,0,0,0,2.15,2.82c2.17.58,1.94,2.24,3.59,2.47s-.41,3,2.35,3.42a2.91,2.91,0,0,1,1.64.78,1.23,1.23,0,0,0,.05.72c.43,1.24-2.45.36-1.74,2.44s-2,2.26,1.05,5.07,4.1,3.09,5,4.47-1.45,3.92,2.53,4.64,7.09,1.56,8.39,3.33,4.53-1.11,4.28,1.54,1.38,2,3.2,3.88,3.75,1.4,4.64,1.92.82-1,3,.44,5-.32,5.76.45,2.91-1.74,3.94-1.46,3.74-3.39,5-1.83-.2-1.93,2.83-1.29.68-.75,4.15-.84,1.36-2.16,3.59-2.49.45-.72,2.38-1.22-2.57-1.36,1.29-2.37-.22-.62,3.65-2.29,1.29-2.37,2.19-3.81a4.07,4.07,0,0,0,.4-.76,3.5,3.5,0,0,1,.56.13c2.4.87,3.08-4.75,4.77-1.7s2.6,1,5.54,1.65a5.88,5.88,0,0,0,1,.11c-.84,2.13-1.52,4-1.13,4.34.65.57-2.35,2-1.05,3.18s.3,1.38.82,2.13-.94.53,0,1.47a3.67,3.67,0,0,1,.74,2.59l.76,1.86s-2-.52-.09,1.19-1.27,1.34.79,3.61,1.53,3,1.53,3a1.86,1.86,0,0,0,.55,2.49c1.44,1,.62,2,1.8,2.63s-1.49,2,.47,2.95.15,3,4.31,2.88,5.09-.67,6.73-.35,1.71,3.82,5.06,1.53,6.14-3.85,8.31-3.51,2.45-4,4.13-1.9,2.36.44,5,.52,3.66-1.63,4.66-1.88-.11-1.29,2.4-1.76,3.37-3.75,4.43-3.72.85-3.28,1.78-3.8.3-5,2.27-4.8-1.49-1.24,1.11-2.9,0-1,2.38-3.51-.55-2.5.8-4.29a3.5,3.5,0,0,0,.56-.92,5.45,5.45,0,0,1,1.28-.33c2-.29,4.24,3.95,6.5-.24s4.38-7.27,7-7.76.24-5.87,3.37-4,2.87-.45,5.82-1.45,3-3.52,4-4.23-.92-1.54,1.56-3.17,1.38-6,2.56-6.4-1.08-4.37-.38-5.39-2.79-6.3-.47-6.82-2.41-.89-.57-4-.68-1.22.45-5.28-2.15-2.83-1.77-5.59-.71-.94-.65-3.47-2.55,2.19-2.41-2.86-.83-.11-1.49-5.55c-.42-3.46-1.29-3.68-2.23-3.86.51-1,1.11-1.73,2-1.35,1.81.81-1.07-1.62,1.91-2.45s.25-1,3.3-2.65.21-2.55,2-3.87.07-.85,1.55-2.18-2.91,0,.06-2.7-.48-.45,2.19-3.71S534.32,307.09,534.46,305.4ZM469,381.58s-1.57-.79-2.11-.07-3.12.92-3.12.92-1.9-.7-2.64-.08-5.3,1.31-5.3,1.31a7.42,7.42,0,0,0-.88-.5c.58-1.73.68-5.72,2.47-5.14,2.19.7-1.56-1.92,1.49-3.61s0-1.34,3-4.16a6.88,6.88,0,0,0,.61-.69.7.7,0,0,0,.24.22c1.06.42-1.33,3.47.81,4.33s1.19,1.57,2.21,2.27-.7,1,.88,1.81a6.13,6.13,0,0,1,2.42,2.87l.39.38Zm-59.06-48.87a4.54,4.54,0,0,0-.48,2.19c-.36-.06-.59-.12-.59-.12L406,336.64a13.5,13.5,0,0,0-1.67,1.13c-.13-.65-1-.72-.24-3.42,1-3.47-1.26-3.09-1.71-4.61l.36-.07a4.93,4.93,0,0,0,1.88-.72,3.52,3.52,0,0,1,.27.63C405.84,332.4,411.48,329,409.92,332.71Zm61.42-.94c.32-.08.6-.17.87-.25.23.53.8,1,2.44,1.47,4,1.08,5.06.85,6.54,1.65a1.51,1.51,0,0,1,.64.72,9.2,9.2,0,0,1-2.56,1.81s-2.52-.07-2.95,1-5,3.81-5,3.81-4.34-1.16-3.78.89c.45,1.62-2.22,2.81-3.35,3.24-.3-1.47-.84-1.46-1.83-2.84-1.14-1.59-2.12,3.11-2.61-2.75-.06-.68-.15-1.3-.25-1.88,2.11-.13.5-.94,3.08-1.23,2.82-.31-2.82-2.51,2.82-3.13S465.38,333.34,471.34,331.77Z"/></g><path class="cls-2" d="M175.81,285.48s36.52-.17,52.47,1.24,46.46,6.39,68.8,11,19.85,6.38,19.85,6.38,44.33-125.17,47.16-147.51A109.11,109.11,0,0,0,362,116.88s-57.8-9.93-79.08-6.74-56.38,65.24-56.38,65.24-15.95,46.1-19.5,50.71S172.26,278,175.81,285.48Z"/><polygon class="cls-3" points="301.76 109.72 224.87 285.89 175.81 285.48 272.23 109.72 301.76 109.72"/><path class="cls-4" d="M327.52,112a33.81,33.81,0,0,1,7.53,16.87c1.41,11.33-4.22,20.49-6.7,24.59C306.25,190,295.21,208.24,292,225.07c-5.21,27.52,8.43,42.21-3,55.59-7.37,8.65-19.69,10.28-28.57,10.39l-35.58-5.16s39-103.9,45.38-111.25,29.5-64.92,29.5-64.92Z"/><path class="cls-5" d="M174.27,77.35A26.27,26.27,0,0,1,196,67.63c22.81,1.11,67.73,4.75,79.07,16.34,15.39,15.72,6.63,28.62,6.63,28.62s-31.64,47.82-45.55,83-37.24,85-42.65,86.08-124.4-61.74-124.4-61.74.92-10.74,11.22-25.09C88.71,183.13,151.45,105.52,174.27,77.35Z"/><path class="cls-6" d="M68.72,239.56s-4.89-7.31-4.1-10.19a51.6,51.6,0,0,1,5.77-13s-.62-9.29,8-8.14,15.36-3.43,18.91-2.13,38.53,2,46.52,5,34,3.41,35.92,9.15,11.22,5.12,15.63,17.81,12,19.51,6.15,24.42-7.61,4.26-7.78,10.24,1.65,12.21-5.54,12.6-28.11,2.25-47.08-3.7-40.84-15-40.84-15-3.17-1.17-7.24-2.59c-5.79-2-13.37-4.55-16.16-5C72.13,258.31,66.77,244.89,68.72,239.56Z"/><g class="cls-7"><path class="cls-8" d="M192.83,73.62c-11.35,5-31.21,32.62-41.14,46.8s-20.56,29.08-33.33,39.72-42.55,33.33-31.91,38.29,46.8-2.13,59.57,2.13,35.46,9.93,39,15.6,9.22,24.11,17.73,13.48,25.53-35.46,27.66-58.16-4.25-29.07,2.84-46.8S204.17,68.65,192.83,73.62Z"/></g><g class="cls-9"><path class="cls-2" d="M253.82,77.87a33,33,0,0,1,18.08,7.45c8.51,7.09,10.64,14.89,9.93,19.5s-7.8,19.86-16,31.2-11.7,20.22-19.15,33.34-8.51,18.08-14.89,32.26-21.63,52.48-24.11,53.9-5.32-2.84-6.74-7.8-1.77-3.19-4.61-11.35S186.09,225,186.09,222.9s-.71-8.87,8.86-17.38,21.28-23.75,33.69-39,16.67-27.66,21.63-41.84S223.32,69.72,253.82,77.87Z"/></g><g class="cls-10"><path class="cls-2" d="M253.82,77.87a33,33,0,0,1,18.08,7.45c8.51,7.09,10.64,14.89,9.93,19.5s-7.8,19.86-16,31.2-11.7,20.22-19.15,33.34-8.51,18.08-14.89,32.26-21.63,52.48-24.11,53.9-5.32-2.84-6.74-7.8-1.77-3.19-4.61-11.35S186.09,225,186.09,222.9s-.71-8.87,8.86-17.38,21.28-23.75,33.69-39,16.67-27.66,21.63-41.84S223.32,69.72,253.82,77.87Z"/></g><path class="cls-11" d="M280.41,99c4.61,10.65-4.61,24.35-6,28.53S257,154.11,253.82,162.1,229,221.83,225.45,229.44,215,254.93,210.1,253s-10.54-16.74-5.57-23.21,24.82-35,28.36-40.33,13.16-22.22,20.06-41.35C255.37,141.42,263.11,59,280.41,99Z"/><g class="cls-12"><path class="cls-13" d="M128.78,236.8a90.83,90.83,0,0,0-9.9-2.12,42.56,42.56,0,0,0-5-.49,10.91,10.91,0,0,0-4.92.72,2,2,0,0,0-1.18,1.94,5.16,5.16,0,0,0,.83,2.3,16.47,16.47,0,0,0,3.24,3.82,35.2,35.2,0,0,0,8.6,5.21,84.64,84.64,0,0,0,19.35,5.74,86.85,86.85,0,0,0,10,1.2,45,45,0,0,0,10.05-.43,15.33,15.33,0,0,0,4.71-1.54,4.66,4.66,0,0,0,2.68-3.72,6,6,0,0,0-1.88-4.32,21.1,21.1,0,0,0-3.82-3.22,52.12,52.12,0,0,0-8.9-4.69,86.82,86.82,0,0,0-9.52-3.38,99.08,99.08,0,0,0-19.82-3.77,66.52,66.52,0,0,0-10.08-.08,36,36,0,0,0-9.81,2,15.87,15.87,0,0,0-7.85,5.79,6.2,6.2,0,0,0-1.12,4.55,9.37,9.37,0,0,0,2.16,4.31,29.62,29.62,0,0,0,7.81,6.18,70.75,70.75,0,0,0,9.06,4.4,120.24,120.24,0,0,0,19.31,5.9,113.45,113.45,0,0,0,20,2.64,63.75,63.75,0,0,0,10.06-.38,29.35,29.35,0,0,0,9.57-2.64,12.51,12.51,0,0,0,3.86-3,8.76,8.76,0,0,0,2-4.32c.54-3.23-.67-6.51-2.53-9.21a32.63,32.63,0,0,0-7-7.12,62.71,62.71,0,0,0-8.42-5.49,103.39,103.39,0,0,0-18.57-7.81,107.16,107.16,0,0,0-19.7-4.28,64.13,64.13,0,0,0-20,.45,28.89,28.89,0,0,0-9.29,3.52,16.72,16.72,0,0,0-6.55,7.21,13.85,13.85,0,0,0-.88,9.6,21.1,21.1,0,0,0,5,8.5c4.54,4.92,10.34,8.55,16.32,11.59a113.92,113.92,0,0,0,18.81,7.31,129.48,129.48,0,0,0,19.77,4.2,87,87,0,0,0,20.14.51,42,42,0,0,0,9.81-2.13,18.31,18.31,0,0,0,8.21-5.43,11.54,11.54,0,0,0,2.22-4.37,13.14,13.14,0,0,0,.26-4.92,24,24,0,0,0-3.54-9.29,59.79,59.79,0,0,0-13.62-14.77,97.6,97.6,0,0,0-17-10.85,95.69,95.69,0,0,0-18.87-7.19,73.14,73.14,0,0,0-20-2.51,50.59,50.59,0,0,0-19.66,4.22,44.37,44.37,0,0,0-16,12.19,44.45,44.45,0,0,1,15.91-12.3,50.85,50.85,0,0,1,19.71-4.35,73.4,73.4,0,0,1,20.11,2.4,98.36,98.36,0,0,1,36.14,18A60.21,60.21,0,0,1,182.78,248a24.63,24.63,0,0,1,3.64,9.51,13.75,13.75,0,0,1-.27,5.15,12.32,12.32,0,0,1-2.32,4.61,19,19,0,0,1-8.47,5.64,42.52,42.52,0,0,1-10,2.18,87.81,87.81,0,0,1-20.3-.47,129.36,129.36,0,0,1-19.88-4.18,114.49,114.49,0,0,1-19-7.33c-6-3-11.91-6.7-16.58-11.73a21.93,21.93,0,0,1-5.18-8.83,14.67,14.67,0,0,1,.91-10.18,17.6,17.6,0,0,1,6.87-7.6,29.78,29.78,0,0,1,9.57-3.65,65.11,65.11,0,0,1,20.33-.51,109,109,0,0,1,19.89,4.28,100.72,100.72,0,0,1,18.74,7.9,63.27,63.27,0,0,1,8.54,5.58,33.42,33.42,0,0,1,7.14,7.35,17,17,0,0,1,2.28,4.67,11.62,11.62,0,0,1,.38,5.21,9.74,9.74,0,0,1-2.2,4.77,13.39,13.39,0,0,1-4.14,3.16,29.81,29.81,0,0,1-9.88,2.72,65.44,65.44,0,0,1-10.19.36,112.87,112.87,0,0,1-20.14-2.7,121.14,121.14,0,0,1-19.43-6,71,71,0,0,1-9.15-4.47,30.3,30.3,0,0,1-8-6.36,10.17,10.17,0,0,1-2.3-4.67,6.86,6.86,0,0,1,1.24-5,16.62,16.62,0,0,1,8.2-6.05,36.88,36.88,0,0,1,10-2,66.53,66.53,0,0,1,10.18.1,100.08,100.08,0,0,1,19.94,3.83,90.19,90.19,0,0,1,9.58,3.42,53,53,0,0,1,9,4.77,21.3,21.3,0,0,1,3.91,3.31,9.67,9.67,0,0,1,1.48,2.15,4.81,4.81,0,0,1,.54,2.59,4.36,4.36,0,0,1-.95,2.47,6.53,6.53,0,0,1-2,1.68,15.7,15.7,0,0,1-4.88,1.59,45,45,0,0,1-10.17.41,81.37,81.37,0,0,1-10.08-1.24,84.8,84.8,0,0,1-19.41-5.88,35.94,35.94,0,0,1-8.65-5.31,16.51,16.51,0,0,1-3.26-3.91,5.37,5.37,0,0,1-.85-2.43,2.1,2.1,0,0,1,.33-1.26,2.49,2.49,0,0,1,1-.86,11,11,0,0,1,5-.69,44.86,44.86,0,0,1,5,.54A92.39,92.39,0,0,1,128.78,236.8Z"/></g><path class="cls-14" d="M464.1,373.91l-2.12.67s-1.57-.79-2.11-.07-3.12.92-3.12.92-1.9-.7-2.64-.08-5.3,1.31-5.3,1.31-2.87-1.92-3.23-.37-4.25,1.34-4.25,1.34l-2.4,1.76s-3.54,2.19-4.59,5.37-3.45,8.16-2.8,8.73-2.35,2-1.05,3.18.3,1.38.82,2.13-.94.53,0,1.47a3.67,3.67,0,0,1,.74,2.59l.76,1.86s-2-.52-.09,1.19-1.27,1.34.79,3.61,1.53,3,1.53,3a1.86,1.86,0,0,0,.55,2.49c1.44,1,.62,2,1.8,2.63s-1.49,2,.47,2.95.15,3,4.31,2.88,5.09-.67,6.73-.35,1.71,3.82,5.06,1.53,6.14-3.85,8.31-3.51,2.45-4,4.13-1.9,2.36.44,5,.52,3.66-1.63,4.66-1.88-.11-1.29,2.4-1.76,3.37-3.75,4.43-3.72.85-3.28,1.78-3.8.3-5,2.27-4.8-1.49-1.24,1.11-2.9,0-1,2.38-3.51-.55-2.5.8-4.29-.18-.83.84-2.55-2.79.84-.74-2.59-.59-.29,1-4.19-.75-2.59-1.11-4.26-.83-1.4-1.94-2.44-1.69,2.61-2.47-1.73-3.33-5.61-3.33-5.61l-3.15-.82s-1.92,0-2.59.93-1.83-1.16-3,.46-1.76-.88-3.25,1.09-1.77-.88-3.25,1.1S464.07,372.16,464.1,373.91Z"/><path class="cls-15" d="M437.56,381.92c.19.41-1.89.54-1.51,1.1s-1.58,1.56-1.06,2.31-1.13.42-.8,1.95-1.21,1.61-.67,2.5-1.14,1.16-.9,2.27-1.3.83-.56,1.82-.6.44.27,1.61-.56,1.46.26,2-1.54,1-.33,1.33,0,.87.84,1-.59.07.28.88-.16,1.65.4,1.8-1.08,1.07,0,1.61-.18.77.71,1.21-.69,1.64.23,1.85-.87.43.17,1.19-1.38,1.66.3,1.76-.65,1,.73,1.35-1.09,1.8.17,1.93,0,1.38.4,1.44.53,1.62,1.26,1.37.64,1.3.64,1.3-1.18,1,0,1,.28,1.25,1.38.69,1.2.72,2.24-.12.55.52,1.79-.22,1.44.59,2.38-.3,1,.63,1.55-.09.24,1.48,1.21.36,1.8,1,2.11.43.52.38,1.53-.6,1-.1,1.66-.77.64,1.3,1.86-.31,2.34-.07,2.58-.57,1.86,1.3,1.92-.4,0,1.1.71-.76.91-1,1.28-1.34,1.52,1.38,1.41.46-.13-.19.27-.73-.67.9.41-.54,1.81.29,1.92-.4.79,0,.87-.43.82.16,1.39-.42.24,1.11,1.61.19,1.78.51,1.76-.36,1.09,1.41,1.61.18l.52-1.22s1.07,2.88,1.56,1.15,2,.61,2.19-.76a1.22,1.22,0,0,1,1.41-1.15s2-.49,1.44-1,1.42-.28.8-.71.85-1.31.56-1.46,1.68.1.86-.43,1.86-.68,1.14-.79,2.12-.3.62-1.18-.17-1.56-.17-1.56.91-1,.52-1.22.41-.91-.08-1.15.38-1.05-.11-1.29.43-1.64.43-1.64,1.59-.69.51-1.23,1.48-1.24.3-1.82,1.43-.65-.06-1.89.65-1.4-.17-1.93.61-.44-.3-1.38.91-1,.1-1.93,1.65-1.65.54-2.32,2.62-.8.86-1.67-.43,0-1.77-.88-.3-1.76-.3-1.76,2.07-1.31.63-1.54-.18-1.2-.94-1.08-.07-1.52-.47-1.35,1.49-.37-.15-.69-.24-1.48-.6-1.53-.06-.65-1-.49,1.6-1.05-.38-.93.37-.68-1.34-.55.32-1.68-1.48-.73-1.25-1.73-1.9-.7-.2-1.7-1.47-.36-1.13,0-1.94,1.13-.3-1.75-1.12-.31,0-1.83-1.72.5-.51-.75-2.31,1.81-1.07-1.27-2,0-2.25.11-2.5,1-1.87-.56-2.81.69-2.45-1.22-2.83-.54-.55-.52-1.34,1.06-1.67-.83-2.12.31-1.79-1.39-2.11.3-1.14-.82-1.93.77,0-1.38-1.6.68-1.48-2-2.31-.16-.95,0-1.6,1.06-1.16.28-1.53,1-1.9-1.07-1.88-.2-2.49-1-2.52.48S437.05,380.8,437.56,381.92Z"/><path class="cls-16" d="M439.64,415.67c1.6-.11.16,1.93,1.61.55s-.23,1.37,2.38-.66,3.2.23,3.06-1.2,1.62.19,1.64-.91,2.44,0,1.63-.91,3.13.32,2.65-.66,1,.49,1.14-.79,1.44.59,1.14-1.16,2.58-.2,2-1,1.26,1,1.59-.68.73.11,1.42-1.52.91.58,1.89-.91,1.22.36,1.93-.4,1,1.5,2.14-.16,1.44,1,2.32-.21.66,1.44,1.58.05,1,2,2.37.07,2.24.62,2.69-.88,4.25-1.34,3.6-1.91,1.85.05,1.27-1,.8-1.94.28-2.33,2.44-2,1.92-2.37,1.06,0-.28-.88,2.58-3.78,1.63-4.13.11-.68-.9-1.31-.29-.52-.84-1,1.39-2,.51-2.46.12-1.42-.86-1.91,1.08-1.07-.54-1.25,2.39-3.88,1.13-4,.36-1.18-1.66-1.19,1.06-1.58-.86-1.54,2.1-.81-1.76-1.25-2.86-3.9-4.45-2-1.22-1.6-2.24.12-1.3-1.14-2.23.62-1.06-1.27-2.65,1-3.63-1.81-4.07.56-2.65-1.31-3.35.68-2.84.19-3.36,1.78-1.13-3.15-2.69.89-3.82,1.31-3.9,2.13-3.93-1.59-4.06.2-3.15.78-2.48,1.85-2.69-.72-2.95.88-3.1,1.42-2.82,2.67-1.85,5.13-1.76,5.54a13.19,13.19,0,0,0,.81,2.5c.54,1.26-.09,1.56.48,3s-1.11.93-.38,2.65.54,2.86,1.25,3.7-.3.23.62,2.41.43,3.18,1,5.31S436.8,415.86,439.64,415.67Z"/><path class="cls-17" d="M476.64,397.6s-1.08.29.39-.79-1.64-2.14-.34-2.15.84-1.39.84-1.39-1.54-.27-.59-.95.84-1.4.84-1.4l-.59-.94s-2.09.76-.74-1-.22-2.58.05-2.94-1.4-1-.86-1.74-1-.16-.29-1.63-.85-1.74-1-2.46-1.69-.34-1.42-1.85-1.6-1.62-.83-2.06-2.53,1-1.58,1.52-.41,1.11.11,1.86-2.16.57-.81,2.23-1.62,1-.54,1.87-.91,0-.59,2.5-1.6,1.84-1.13,3.23-.88.88-.77,1.59c.08.52-.79.48-1.18.85-.25-.44-.4-1,1-1.39,2.62-.7-3.13-2.11.74-2.72s-2.46-1.95-1.3-2.1-2.28-1.14-1.6-1.35.31-1,.31-1c-.94-1.19-1.85.71-3-.58s-1.47.91-3.86-.1-.91,1.91-4,1.83,0,0-1.85.71-.4.53-2,.26-1.18.87-2,.62-1,.6-2.66,2.13.67.51-1.67,1.53.16,1.17-3.21,1.13.26,1.39-.81,1.41.24,2.12.24,2.12.45,1.49-.8,1.41.82,2.05.33,2.35,1.3,2.1-.15,2.28,1.2,1.88,0,2,1,.83.07,1.3,1.59,2.06,1.59,2.06,1.8,1.44,1,1.78,1.8,1.08,1.4,1.61,2,1.18.74,1.46,2.16,2.35,1.39,2.33a4.11,4.11,0,0,0-.22,1.24c0,.72,2.56-2.36,2.63-1.05s1-1.68,3.88-1-.32-3.06,3.15-2.79-.82-2,3.52-2.24-.53-2.08,1.5-2c1.19.06.39-1-.12-1.9a.55.55,0,0,0,.47-.3c1.2.43.72-1,1.76-.6a1.72,1.72,0,0,0,.78.05c.77.09,1.05-.05,1.07-.29a1,1,0,0,1,.85.1c.7.51.77-1.59,1.65-.17s1.37.19,1.37.19.5-1.23,1.19-.72S469,400,470.85,401s-1.12-1.38,1.2-.72-.45-.55,2-.65-.38-.35,1.69-.8S476.64,397.6,476.64,397.6Z"/><path class="cls-14" d="M459,283.41l-2.19-1.88s0-2.51-1.26-2.51-3.13-2.82-3.13-2.82-.32-2.82-1.57-3.13-5-5-5-5,.62-5-1.57-4.07-4.39-3.76-4.39-3.76L436.13,259s-5-2.19-9.71-.62-12.54,3.13-12.85,4.38-4.07-.94-4.7,1.57-1.57,1.57-2.19,2.82-1.26-.63-1.88,1.26A6.88,6.88,0,0,1,402,271.5L400.1,274s-.63-2.82-1.57.94-2.51-.32-4.07,4.07-2.82,4.39-2.82,4.39a3.31,3.31,0,0,0-2.82,2.82c-.32,2.5-2.2,2.5-2.2,4.38s-3.45,0-3.45,3.14-3.76,2.82-.94,7.52,4.08,5.33,4.71,7.52-3.77,5.33,1.25,7.21,8.77,3.76,9.71,6.58,6.58-.63,5,3.13.94,3.13,2.5,6.27,4.39,2.82,5.33,3.76,1.57-1.26,3.76,1.25,6.9.63,7.52,1.88,4.7-1.88,6-1.25,6.58-4.08,7.52-1.57.62-2.82,4.38-1.25,1.26-.94,6-.32,2.82-2.82,5.95-2.82.94-.94,3.76-1.25-2.82-2.51,2.82-3.13,0-.94,6-2.51,2.82-3.13,4.7-5,1.25-2.2,1.88-4.39-4.39.31.62-4.39,5-8.77,5-8.77l-.94-4.39s-1.26-2.19-2.82-2.19.31-3.14-2.51-3.14,0-2.82-3.45-2.82,0-2.82-3.44-2.82S461.2,281.84,459,283.41Z"/><path class="cls-15" d="M432.06,259.59c-.4.58-1.88-1.72-2.35-.78s-3-.47-3.6.78-1.26-.94-3,.78-2.82,0-3.61,1.41-2.19-.31-3.44.94-1.88-.78-2.67.94-.94-.31-1.88,1.73-2.19.62-2.35,2-2.19-.95-1.88.78-1.09.78-.78,1.88-.47-.63-.94,1.1-2.19,1.25-2,2-2-.31-2,1.41-1.1.47-1.1,1.88-2.51.63-2.19,1.88-1.1-.62-1.41,1.26-3-.16-2,1.88-1.72.15-1.25,2-3,.32-2.35,1.88-1.73,1.26-1.57,1.73-1.72,2-.94,2.66-1.25,1.88-1.25,1.88-2-.47-1.26.94-1.41,1.41,0,2.19-.15,2,1.57,2.51-.31,1.1,1.41,1.88.16,2.2,1.88,2.51-.16,1.72,1.1,1.72-1.73,1.57.31,1.73-.16,3,.78,2.82-.15.94,1.73,1.25.78,1.1,2,1.25-1.25,1.88,1.57,1.88,1.57,2.67,2.35,2.51-.47,3.29,1.72,1.88-1.41.94,1.41.16,1.88.15,2.51.31-.78,3,.31,2,.16-.32,1.1-.32h.94c2.51,0,.78,2.35,1.72,1.88s.47.94,1.1.63.31,1.1,1.41,1.25-1.25,1.26.78,2,.47,2.51,1.57,1.72-1.1,2.51.78,2l1.88-.47s-3,3.76-.47,2.82.47,2.82,2.36,1.88,2.35.63,2.35.63,1.88,1.88,2.19.78,1.25,1.41,1.41.31,2.19-.15,2.19-.62.94,2,1.1.62,2,1.57,1.72.63,1.73,2.2,1.88-.31,1.88-1.57,1.88-1.57,1.88.16,1.88-.47,1.41-.31,1.41-1.1,1.57-.47,1.57-1.25,2.35-.94,2.35-.94,1.88,1.25,1.88-.47,2.51.63,2.51-1.25,1.72,1.09,2.35-1.73,2.19-.47,2.35-1.88.94.32,1.56-1.56,1.88.15,2.51-1.57,3.14.47,3.29-1.41,2.67,2.35,2.67-.47-.32-.47,0-2.82,2-1.88,2-1.88,3,1.25,2.35-.63,1.41-1.25.79-2,1.88-1.41,1.41-1.73,1.41,1.41.78-.78,1.72-1.57,1.57-2,.78-.62,0-1.56,2.35.94.94-1.26,1.09-.15-.16-2,2.35-1.1,0-2.36,1.41-3-.31-2.82,2-1.72-.47-2-.79-1.26-2.67-1.26,2-1.88-.31-1.56,2.35-1.57-1.72-1.57.62-1.25-3.76-1.1.94-2.35-1.26-2.35-1.56-2.5-2.82-2-.47-2.67-2.66-2.67,0-3.91-1.1-3.76.31-1.09-2.19-.62,0-2.67-1.73-2.2.63-3.29-1.72-2.19.31-2-2.19-1.57S447.57,271,444,271s1.56-3.45-1.26-2.82-.62-1.1-2.35-.94-1.09-1.1-2.19-.94.16-3.14-.94-2.35-.31-3.76-2.19-2.51S433.16,258,432.06,259.59Z"/><path class="cls-16" d="M390.54,291.55c1.14,1.77-2.35,1.88.31,2.35s-1.88.94,2.35,2.2,1.73,3.91,3.45,2.5.78,2,2.19,1.1,1.57,2.82,2.2,1.1,1.56,3.92,2.5,2.51,0,1.56,1.73.62.15,2.2,2.19.32,1.88,2.82,2.51,1.41-.47,2.35,1.88,1.25.31.94,2.82.31-.16,1.57,2.35,1.41.31,1.73,1.72,1.88-1.25,2.51,1.57,2.35-.31,2.51,1.72,2.51-1.41,2,.94,1.88-1.88,3,1.41,2.82.63,3.13,2.82,2.35,4.39,3.76,4.7,2.51,1.1,2.19,2,.62,3-.78,3.13-1.72,4.08,1.1,4.23.16.63,1.25.94-1.1,6.43-.31,6.27-1.72.94-.47,1.1-2.2.47-.78.78-1.88,3.45-.15,3.45-1.56,1.88-1.1,1.88-2.67,2,.32,1.25-1.72,6.43-.63,5.8-2.19,1.72-.63.47-3,2.66-.16,1.41-2.35,2.35,1.72.47-3.14,3.13-6.73-.31-6.89,1.25-2.82-1.57-2.51.63-2.5-2.19-2,.94-2.35-3-2.2,0-5.79-3.29-4.23,0-4.23-3-3.29-2-3.13-4.39-2.35,3.29-4.07-2.82-2.35-4.07-3.29-5.17-2.66-.47-6-2.82-4.54-3-3-3.91-1.26-.79-3.76-3-2.66-3.76-2.35-5.17-.94-7.68,2.35-8.15,2.82a24.34,24.34,0,0,0-2.66,3.13c-1.26,1.73-2,1.26-3.45,3.14s-1.88-.47-3.6,1.88-3.29,3.13-3.92,4.7-.47-.16-2.66,2.82-3.76,3.29-6.11,5.79S388.5,288.42,390.54,291.55Z"/><path class="cls-17" d="M419.52,302.1c.43,1.15-.42-.75-.63,1s.84,1.51.84,1.51c.21,1.76,1.67,0,1.88,1.51s2.09,1.76,1.88,3,2.5-.5,1.25,1.76.63,1.77.63,1.77,1.88-.51,1.67.75,1.88-1.51,1.88,1.51,1-2.52,1.67.76.42-1,2.09,1.76.21-.76,2.09,1.26,2.09,0,2.09,0-1.05-1,1.25-.25,1.67-3.78,2.51-2.27,2.3-.25,2.3-.25-.63-2,.83-1.51a2.35,2.35,0,0,0,2.3-.25l.83-1.51s-2.29-1.77.84-1.77,3.13-2.51,3.76-2.51.42-2.52,1.67-2.52-.42-1.26,1.88-1.76,1.67-2.52,2.51-3.27-.63-2.27,1.46-3.28,1.05-3.27,2.09-2.77-2.92-2-2.92-.5-1.68.5-2.3,1.76-2.09-2-3.35,1-2.29-1-2.71,1-.63-1-3.55,1.51-3.34-.25-4.81,1.51-1.67-.25-2.5.5-1.47-1.51-2.72-.25,0-1.76-2.09,0-3.76-2.77-4.18-.5-1-1-2.92,0-3.14-.51-3.76-.26-2.09-2-2.09-1.25S418.26,298.83,419.52,302.1Z"/><path class="cls-17" d="M398,288.79c.42.62.84-3.35,1.88-2.51s.42-1.46,1.25-1.46.21-2.51,1.05-2.09,1.46-1.88,1.46-1.88.42-2.93,1.46-2.51.63-1.67,1.46-.83,1.26-2.3,2.3-1.26,2.09-1.46,2.72-1.25,1.88-2.72,2.51-1.67,2.08-.21,2.08-.21,1.68-2.3,2.3-1.46.21-2.93,2.09-.21.63.62,3.14,1.88,0,0,2.71.42,3.76,0,4,.83,1.25-.21,1.88,1.25-.42.42,1.46,1.47.21-1.47,1.88,1,4.18-.42,4.39,2.09,2.92,1.46,2.09,3.13,1.88,1.26,1,2.72c0,0-.72.78-1.34.36s.21,2.92-.63,2.09,1.25,5-1.67,2.3-1.25,2.71-3.55,1-2.3,1.25-2.93.42-2.5,1.67-2.5,1.67l-2.51.42s-1.25,2.3-2.09.63.42,1.46-1-.84-1.05,1-1.88.42-1.68,4-2.93,1.46-.21-1.25-1.25-2.51-2.51,3.55-3.55,1.88-.42,3.35-3.14,0-2.92,1.47-4.59-1.46-4.18,1.88-5-.84-4.8-1.67-3.34-2.5-3.55-1.05-2.72-1.46A7.15,7.15,0,0,1,398,288.79Z"/><path class="cls-14" d="M427.57,327.28l-2.43.47s-1.68-1.33-2.35-.49-3.56.61-3.56.61-2.05-1.29-2.93-.62-6,.7-6,.7-3-3.08-3.56-1.11-4.86,1-4.86,1L399,329.64s-4.13,2.2-5.58,6.19-4.55,10.07-3.88,10.95-2.8,2.23-1.45,4,.22,1.89.73,3-1.09.5-.16,1.92a5.91,5.91,0,0,1,.61,3.56l.68,2.59s-2.23-1.07-.2,1.55-1.54,1.52.57,4.9,1.44,4.22,1.44,4.22a2.85,2.85,0,0,0,.4,3.4c1.51,1.54.51,2.8,1.78,3.8s-1.84,2.31.27,4-.11,4,4.54,4.62,5.74.1,7.55.84,1.57,5.36,5.5,3,7.18-3.89,9.58-3,3.07-4.75,4.76-1.7,2.6,1,5.54,1.65,4.22-1.45,5.35-1.58,0-1.72,2.84-1.86,4.08-4.29,5.26-4,1.23-4.16,2.32-4.66.76-6.58,2.94-5.88-1.56-1.92,1.49-3.61,0-1.34,3-4.16-.4-3.39,1.27-5.5-.13-1.13,1.15-3.19-3.18.56-.6-3.55-.63-.5,1.48-5.33-.6-3.56-.87-5.82-.8-2-1.94-3.59-2.12,3.11-2.61-2.75-3.22-8-3.22-8l-3.45-1.7s-2.14-.32-3,.73-1.93-1.87-3.43,0-1.89-1.5-3.73.81-1.89-1.5-3.72.82S427.68,325,427.57,327.28Z"/><path class="cls-15" d="M397.27,332.71c.17.57-2.16.34-1.77,1.16s-1.9,1.75-1.39,2.83-1.3.34-1.06,2.42-1.5,1.89-1,3.16-1.37,1.31-1.2,2.82-1.52.84-.78,2.28-.71.47.15,2.18-.74,1.81.12,2.66-1.79,1-.47,1.68-.06,1.15.84,1.52-.67,0,.24,1.22-.32,2.13.29,2.44-1.3,1.2-.14,2.12-.27,1,.68,1.73-.91,2,.09,2.48-1,.4.1,1.61-1.69,1.91.18,2.36-.81,1.24.7,1.93-1.37,2.16,0,2.57-.07,1.82.32,2,.46,2.24,1.29,2,.6,1.84.6,1.84-1.4,1.12,0,1.35.2,1.69,1.47,1.16,1.29,1.19,2.52.28.57.79,2,.05,1.55,1.06,2.68.07,1.07,1,1.74.18.13,2,1.32.71,1.92,1.69,2.31,1,.55.61,1.76-.49,1.15.06,1.92-.7.6,1.84,2.09-.05,2.62.36,2.94-.25,1.95,2.07,2.17-.15-.12,1.44.86-.87,1.1-1.18,1.54-1.51,1.58,2.1,1.53.87-.12-.27.37-.9l.5-.63c1.34-1.69,2,.72,2.18-.16s.88.18,1-.4.91.37,1.59-.28.18,1.5,1.79.55,1.93,1,2-.13,1.1,2.06,1.78.55l.68-1.51s.94,4,1.65,1.82,2.14,1.18,2.51-.58,1.66-1.25,1.66-1.25,2.27-.26,1.7-1.05,1.61-.09,1-.78,1.06-1.56.74-1.81,1.87.45,1-.4,2.14-.53,1.34-.82,2.39,0,.79-1.43,0-2.1,0-2.1,1.1-1.17.68-1.51.54-1.11,0-1.53.52-1.3,0-1.71.62-2.08.62-2.08,1.84-.59.69-1.51,1.75-1.35.49-2.35,1.65-.57.09-2.49.85-1.72,0-2.58.7-.46-.22-1.88,1.1-1.18.28-2.51,2-1.86.8-3,3-.54,1.1-2-.48,0-1.89-1.5-.18-2.36-.18-2.36,2.42-1.33.82-1.91-.09-1.61-.95-1.61.06-2-.4-1.86,1.69-.2-.11-.94-.14-2-.54-2.14,0-.86-1.05-.83,1.88-1.08-.34-1.3.48-.82-1.45-1,.51-2.16-1.58-1.25-1.24-2.53-2.06-1.29-.07-2.28-1.61-.77S440,326,439,327.28s-.18-2.36-1.22-.62.2-2.41-2,.33-.51-1.09-2.74,1.94-1.07-1.88-2.24-.41-2.51-.28-2.86.81-2-1.1-3.21.37-2.62-2.08-3.1-1.26-.57-.79-1.59,1.14-1.79-1.42-2.39,0-1.87-2.17-2.38,0-1.2-1.29-2.22.64.07-1.82-1.84.6-1.48-2.89-2.56-.66-1.07-.16-1.88,1.08-1.32.15-1.79,1-2-1.77-2.08-.62-2.69-1.79-2.85.14S396.8,331.14,397.27,332.71Z"/><path class="cls-16" d="M396.66,377.55c1.79.17,0,2.57,1.74,1s-.37,1.76,2.72-.41,3.54.92,3.51-1,1.79.56,1.91-.88,2.72.44,1.9-.89,3.46,1,3-.35,1.05.83,1.34-.83,1.55,1.06,1.37-1.3,2.89.23,2.28-.94,1.33,1.57,1.84-.59.8.29,1.71-1.73,1,.94,2.19-.82,1.33.7,2.18-.16,1,2.17,2.41.2,1.52,1.54,2.6.17.62,2,1.76.37,1,2.84,2.64.55,2.44,1.25,3.08-.64,4.85-1,4.18-1.82,2.05.42,1.5-1,1.05-2.41.51-3,2.9-2.15,2.35-2.75,1.17.24-.24-1.22,3.21-4.47,2.18-5.12.18-.88-.89-1.9-.28-.73-.85-1.52,1.73-2.4.78-3.15.26-1.84-.79-2.67,1.3-1.2-.49-1.76,3-4.64,1.61-5.06.5-1.49-1.75-1.89,1.31-1.87-.82-2.2,2.4-.66-1.86-2-2.85-5.68-4.79-3.45-1.23-2.34-2.51-.28-1.35-1.75-2.54.39-1.07-1.88-3.05.83-3.89-3.08-4.59,0S422,327.45,421,330s-3.18-.3-3.9,1.7-1-4.38-3.08.64-4.37,1-4.53,2-4.25-2.84-4.55-.52-3.58.42-2.92,2-2.94-1.47-3.37.59-3.58,1.27-3.38,3-2.5,6.4-2.43,7a19.83,19.83,0,0,0,.68,3.45c.49,1.76-.24,2,.27,4s-1.31,1-.65,3.42.36,3.87,1.07,5.12-.35.24.48,3.29.21,4.27.64,7.18S393.47,377.25,396.66,377.55Z"/><path class="cls-17" d="M419.13,363.71c1,.31-.73-.12.34,1s1.46.24,1.46.24c1.29.79.89-1.12,2-.46s2.3-.47,3,.34,1-2,1.85.1,1.51.51,1.51.51.66-1.53,1.4-.72,0-2.06,2-.46-1.13-2,1.39-.72-.45-.81,2.3-.46-.4-.54,1.95-.74,1.11-1.4,1.11-1.4-1.23.17.5-1-1.65-3.13-.19-2.89,1.05-1.67,1.05-1.67-1.68-.65-.57-1.37a2,2,0,0,0,1.05-1.67l-.57-1.37s-2.4.61-.73-1.49,0-3.44.31-3.86-1.47-1.62-.81-2.46-1.06-.39-.18-2.2-.8-2.46-.86-3.42-1.86-.78-1.42-2.72-1.64-2.44-.75-2.87-2.9.89-1.89,1.69-.55,1.39,0,2.48-2.46.33-1.1,2.78-1.9,1-.77,2.36-1-.12-.87,3.18-1.95,2.11-1.54,4-1.06,1-1,2-1.79.18-1.62,1.69-1.18-.94-1.11,1.4-3.85,1.05-2.55,2.53-1.23.17-1.56,2-2,1.83-2.16,2.39-2.46.33-2,.73S416.27,362.81,419.13,363.71Z"/><path class="cls-17" d="M398.76,371.07c.65.06-1.79-2.33-.68-2.59s-.76-1.06-.31-1.62-1.58-1.47-.85-1.81-.49-2-.49-2-1.74-1.83-.9-2.31-.79-1.31.22-1.43-.88-2.06.37-2.21.13-2.17.61-2.48-.83-2.71.21-2.57,1-1.52,1-1.52-.66-2.34.24-2.32-1.85-1.69,1-1.51.75-.09,2.92-1.1,0,0,1.73-1.6,2-2.52,2.67-2.22.52-.95,1.84-.6.05.51,1.75-.2-.87-.92,1.7-.71,1.94-3,3.74-1.83,2.53-1.19,3.21.26,1.84-.59,2.38.74c0,0,.13.9-.48,1.1s2.07,1.41,1.07,1.53,4,1.82.65,2.34,1.16,2.29-1.18,2.94-.38,2.21-1.28,2.18-.21,2.57-.21,2.57L418.58,354s.88,2.06-.69,1.73,1.21.5-1.11.26.14,1.25-.72,1.48,1.77,3.23-.57,2.74-1-.52-2.35-.49,1.05,3.57-.63,3.38,2,2.06-1.66,2.11-.57,2.74-3.42,2.3-1,3.8-3.23,2.92-3.67,2.34-3.46.91-2.58,1.83-2.42,1.05A6.22,6.22,0,0,1,398.76,371.07Z"/><path class="cls-14" d="M479.42,325.24,477.5,327s-2.21-.3-2.36.8-2.87,2.42-2.87,2.42-2.52-.07-2.95,1-5,3.81-5,3.81-4.34-1.16-3.78.89-3.84,3.41-3.84,3.41l-1.56,3.16s-2.54,4.15-1.73,8.48,1.24,11.43,2.31,11.86-1.33,3.47.81,4.33,1.19,1.57,2.21,2.27-.7,1,.88,1.81a6.13,6.13,0,0,1,2.42,2.87l2,2s-2.56.21.64,1.49-.58,2.17,3.09,4.08,3.53,3,3.53,3a3,3,0,0,0,2.14,2.83c2.17.58,1.94,2.23,3.6,2.46s-.42,3,2.34,3.42,2,3.65,6.51,1.74,5.19-2.95,7.19-3.23,4.24,3.95,6.5-.24,4.38-7.27,7-7.76.24-5.87,3.37-4,2.87-.45,5.82-1.45,3-3.52,4-4.23-.92-1.54,1.56-3.17,1.38-6,2.56-6.4-1.08-4.37-.38-5.39-2.79-6.3-.47-6.82-2.41-.89-.57-4-.68-1.22.45-5.28-2.15-2.83-1.77-5.59-.71-.94-.65-3.47-2.55,2.19-2.41-2.86-.83-.11-1.49-5.55-2.42-2.86-3.85-4.75-1.78-1.37-3.63-2.19-.26,3.91-3.79-1.08-7.12-5.48-7.12-5.48l-4,.3s-2.09.83-2.28,2.21-2.72-.65-3.06,1.83-2.48-.34-2.9,2.7-2.49-.34-2.9,2.7S478.3,323.12,479.42,325.24Z"/><path class="cls-15" d="M455.18,346.11c.45.42-1.75,1.44-1,2s-.77,2.57.25,3.27-1,1,.33,2.72-.34,2.48.81,3.35-.54,1.89.41,3.15-.92,1.56.5,2.46-.39.79,1.29,1.86.29,2,1.51,2.32-1.09,1.82.47,1.75.55,1.06,1.56.92-.61.34.85,1,.84,2.09,1.55,2-.53,1.76,1,2,.28,1,1.53,1.19.24,2.29,1.39,2.16-.69.89.93,1.4-.5,2.6,1.41,2-.07,1.54,1.64,1.35-.08,2.66,1.37,2.3.9,1.67,1.33,1.59,1.59,1.77,2.23,1.15,1.51,1.33,1.51,1.33-.66,1.74.67,1.22,1.07,1.42,1.94.27,1.77.38,2.39-1.08.93.41,1.83-1,1.95.12,2.44-1.36,1.5.35,1.65-.76,1.17,1.71,1.55-.06,2.61.5,2.58-.35.81.25,1.32-1.37,1.06-.56,1.35-1.64,1.5,1.33,1.84-1.15,2.54-1.06,2.5-1.77,2.84.81,1.86-1.29.66,1.35.31-1.23.37-1.63.58-2.17,2.53,1.05,1.83,0-.26-.17-.14-1-.19,1.38.11-.83,2.17-.4,1.87-1.29.88-.3.68-.89,1-.14,1.28-1.09.95,1.26,1.89-.44,2.26-.12,1.7-1.18,2.08,1.27,1.89-.44l-.18-1.71s3,3.07,2.42.75,2.55-.07,1.95-1.84.83-2,.83-2,1.89-1.43,1-1.83,1.39-.94.44-1.21.13-1.95-.28-2,1.91-.58.68-.89,1.63-1.6.76-1.44,2.15-1.25,0-1.7-1.16-1.84-1.16-1.84.37-1.64-.18-1.72-.11-1.28-.8-1.37-.22-1.44-.91-1.53-.55-2.19-.55-2.19,1.34-1.5-.18-1.71.85-2.13-.8-2.36,1.17-1.39-1.24-2.28-.14-2-1.37-2.3.39-.79-1.19-1.57.37-1.64-1.07-2.4.79-2.7-.85-3.07,2.4-2.06-.09-2.4-.45.21-2.48-.35-1.41-2-1.41-2,1.46-2.47-.27-2.15-.93-1.39-1.7-.93-1-1.83-1.35-1.45,1.42-1.08-.59-.79-1.17-1.71-1.6-1.63-.46-.76-1.38-.19,1.11-1.95-1-1,0-1-1.82-.1-.68-2.21-2.07-.29-2.45-1.6-2.52-.06-1.27-2-1.85.16-1.2.54-1.43,2.2-1.41-2-1.42.08-1.09-2.26-1.59,1.33-1-.7-1.42,3.18-1.95-1.11-2.22.82-2.4,1.08-2.14,2.24-2.4.09-2.66,2-3.45-.48-3.45.51-.93-.41-.82,1.85-2.34-.32-2.14,1.26-2.82-.95-2.14,1.25-1.76-.52-1.64,1.74-.9-1.67-1.34,1.51-2.84-1.8-2.63.76-1,.42-1.12,2-1.09.83-1.09,1.82-2.74-.52-2.18.54-3.35-.18-2.48,1.63S453.93,345,455.18,346.11Z"/><path class="cls-16" d="M478.3,386.56c1.69-.79,1.37,2.3,2.11,0s.6,1.77,2.21-1.8,3.66-1,2.63-2.74,1.89-.44,1.23-1.8,2.68-1,1.23-1.8,3.64-.9,2.52-1.9,1.38.19.76-1.45,1.95.13.54-1.89,2.71-1.32,1.54-2,2,.7,1.34-1.5.86-.17.61-2.45,1.36.33,1.53-1.9,1.56-.07,1.87-1.29,2.05,1.41,2.26-1.1,2.17.58,2.41-1.21,1.63,1.49,1.77-.6,2.4,2,2.66-.9,2.83-.18,2.41-2.2,3.84-3.41,2.78-3.84,2.06-.7.8-1.72-.33-2.72-1.14-3,1.46-3.46.65-3.71,1.18-.4-.85-1,.5-5.7-.76-5.73-.3-.89-1.8-1.23-.63-.51-1.56-.92.28-3.06-1-3.23-.73-1.79-2.11-2,.52-1.76-1.37-1.31.23-5.74-1.23-5.38-.34-1.59-2.57-.77.19-2.37-1.89-1.53,1.8-1.86-2.71-.79-5.55-3.58-6.11-.56-2.33-1.45-2.4,1.08-2.13-.86-2.06,1.68-1.95-1.11-2.29,2.36-5.11-.7-4.12,2.39-3.73-.52-3.26,2.22-3,1.42-2.6,3.58-3.19-3.39-2.42,2.2-3.39,3.19-3,4.24-5.3-.31-4.34,1.93-3,2.26-1.58,3.3-3.41.24-2.71,2.3-2.52,3-1.45,4.44,1.14,7.05,1.49,7.52a21.52,21.52,0,0,0,2.44,2.73c1.37,1.31.86,2,2.34,3.42s-.64,1.6,1.22,3.4,2.36,3.28,3.67,4-.2.4,2.16,2.69,2.44,3.71,4.37,6.09S475.29,388,478.3,386.56Z"/><path class="cls-17" d="M507.84,349s-1,.8-.07-1.13-3.13-1.93-1.69-2.49.05-2.05.05-2.05-1.85.3-1.23-.92a2.09,2.09,0,0,0,.06-2.06l-1.23-.92s-1.83,1.81-1.45-1-1.84-3.06-1.76-3.62-2.17-.67-2-1.77-1.15.21-1.32-1.87-2-1.78-2.58-2.61-2.07.28-2.7-1.68-2.76-1.32-2.19-2.18-2.13,2.33-.8,2.52.24,1.53,1.28,2.23-2,1.6.48,3.07-1.17,1.9.56,2.52-1,.43.9,3.31-.63,2.91.74,4.42-.42,1.44.14,2.27c.41.6-.57.91-.77,1.52-.55-.43-1.06-1.07.28-2.13,2.45-1.94-4.74-1.27-.87-3.63s-3.91-1.37-2.72-2-3.22-.44-2.6-1-.28-1.38-.28-1.38c-1.77-1.07-1.6,1.65-3.63.54s-1.05,1.72-4.3,1.48.17,2.71-3.27,3.9,0,0-1.59,1.64-.11.81-2.07,1.16-.76,1.56-1.86,1.61-.71,1.15-1.61,3.71,1,.36-.89,2.57.9,1.37-2.84,2.72,1.15,1.61,0,2.07,1.57,2.49,1.57,2.49,1.41,1.64,0,2.07,2.16,2.16,1.81,2.73,2.73,2,1.25,2.86,2.48,1.8,1.3,2.46,1.55.63.87,1.57,3,1.86,3,1.86,2.86,1,2.21,1.76,2.66.57,2.54,1.38,2.93.61,1.71,1.48,3.83,2,3,2.27a6.18,6.18,0,0,0,.52,1.62c.43.88,1.36-4,2.24-2.39s.07-2.47,3.67-2.81-2.24-3.62,1.74-4.73-2.16-2.16,2.49-4.21-1.87-2.32.42-3c1.35-.43-.18-1.4-1.3-2.28a.6.6,0,0,0,.34-.56c1.57,0,.2-1.48,1.55-1.48a1.61,1.61,0,0,0,.89-.26c.91-.21,1.13-.49,1-.79a1.07,1.07,0,0,1,1-.24c1.09.34-.14-2.27,1.71-.89s1.62-.34,1.62-.34-.21-1.71.87-1.38-1.1-1.84,1.56-1.47-2.09-1.23.87-1.38-.84-.49,1.8-1.63-.64-.28,1.36-1.69S507.84,349,507.84,349Z"/><path class="cls-14" d="M503.21,285.09l-2.23,0s-1.27-1.21-2-.68-3.25,0-3.25,0-1.61-1.23-2.5-.86-5.46-.3-5.46-.3-2.17-2.69-3-1.31-4.46,0-4.46,0l-2.82,1s-4,1.05-6,3.78-5.69,6.79-5.24,7.52-2.85,1.26-1.94,2.73-.12,1.42.15,2.29-1,.22-.45,1.39a3.7,3.7,0,0,1,0,2.7l.17,2s-1.79-1.1-.43,1.11-1.62.9-.3,3.67.58,3.31.58,3.31a1.85,1.85,0,0,0-.21,2.54c1.09,1.34,0,2.13.95,3s-2,1.45-.42,3-.75,2.94,3.27,4,5.06.85,6.54,1.65.51,4.15,4.38,2.94,7-1.87,9-.91,3.5-3.07,4.5-.6,2.13,1.12,4.63,2,4-.49,5-.43.28-1.26,2.82-1,4.33-2.59,5.33-2.25,1.77-2.89,2.82-3.11,1.76-4.73,3.58-3.92-1.07-1.62,1.91-2.45.25-1,3.3-2.65.21-2.55,2-3.87.07-.84,1.55-2.18-2.91,0,.06-2.7-.48-.45,2.19-3.71.05-2.7.19-4.39-.39-1.59-1.13-2.91-2.39,2-1.86-2.38-1.53-6.34-1.53-6.34l-2.77-1.71s-1.84-.54-2.75.12-1.41-1.64-3-.45-1.43-1.36-3.43.09-1.43-1.36-3.43.09S503.69,283.41,503.21,285.09Z"/><path class="cls-15" d="M475.48,285c.06.44-2,0-1.76.61s-2,1-1.7,1.89-1.2.07-1.33,1.63-1.64,1.19-1.38,2.19-1.43.78-1.53,1.91-1.48.41-1.07,1.57-.7.24-.22,1.62-.95,1.23-.33,2-1.75.47-.7,1.17-.24.84.5,1.24-.59-.11,0,.92-.64,1.53-.15,1.84-1.34.7-.47,1.53-.4.69.32,1.37-1.14,1.36-.33,1.83-.95.16-.18,1.2-1.81,1.17-.23,1.76-.92.8.3,1.51-1.57,1.4-.41,1.89-.37,1.33,0,1.49,0,1.71.8,1.68.23,1.44.23,1.44-1.42.63-.25,1-.11,1.27,1.11,1.05.94,1.05,2.18.55.37.66,1.77.32,1.2,1,2.36.41.79.9,1.51.37-.2,1.48,1.06.7,1.42,1.5,1.88,1,.39.52,1.64-.12,1,.2,1.82-.25.22,1.43,1.86.25,2.26.62,2.64.22,1.39,1.78,1.95.18-.34,1.05.9-.52,1.17-.71,1.62-.9,1.05,1.76,1.21.85-.07-.22.48-.61-.91.65.55-.4,1.64.8,1.95.18.75.26.95-.16.74.4,1.46,0-.09,1.14,1.49.66,1.54,1,1.78.17.63,1.67,1.49.65l.85-1s.18,3.07,1.16,1.56,1.7,1.16,2.32-.08a1.21,1.21,0,0,1,1.68-.69s2,.12,1.67-.54,1.44.15,1-.44,1.19-1,1-1.23,1.57.59,1-.16,2-.1,1.32-.42,2.11.33.93-.94.3-1.55.3-1.55,1.18-.71.86-1,.66-.74.26-1.12.67-.88.28-1.26.89-1.44.89-1.44,1.72-.19.85-1,1.78-.75.82-1.66,1.56-.19.5-1.82,1-1.15.41-1.89.7-.25.11-1.42,1.18-.71.67-1.81,2.06-1.09,1.2-2.06,2.73,0,1.31-1.35-.43-.09-1.43-1.36.23-1.76.23-1.76,2.36-.65,1.05-1.29.18-1.2-.58-1.31.38-1.47,0-1.42,1.53.08,0-.71.21-1.48-.12-1.64.14-.63-.79-.76,1.84-.53-.09-1,.56-.53-1.12-.91.81-1.52-1.19-1.13-.69-2-1.62-1.23.32-1.69-1.3-.79-1.09-.27-2.18.52.23-1.76-1-.62.57-1.75-1.79,0-.28-.87-2.75,1.05-.64-1.53-1.91-.61-2.19-.55-2.68.21-1.62-1.09-2.89-.17-2-1.89-2.55-1.35-.37-.66-1.59.62-1.35-1.28-2.11-.33-1.3-1.85-2.11-.33-.85-1.12-2.07.16.36-1.32-1.73.19-.84-2.32-2.16-.83-.92-.27-1.84.53-1.19-.06-1.75.47-1.5-1.57-1.74-.73-2.09-1.69-2.54-.29S475.33,283.73,475.48,285Z"/><path class="cls-16" d="M467.55,317.81c1.56.37-.41,1.9,1.37,1s-.61,1.25,2.48.07,3,1.17,3.27-.24,1.49.65,1.83-.39,2.34.7,1.83-.4,2.9,1.23,2.73.16.8.75,1.32-.42,1.2,1,1.43-.78,2.53.57,2.18-.37.91,1.33,1.72-.19.66.32,1.8-1,.7.82,2.08-.31,1.06.7,2,.18.55,1.74,2.11.48,1.08,1.34,2.27.48.21,1.57,1.5.51.41,2.23,2.25.77,1.95,1.24,2.82-.06,4.46,0,4-.77,1.75.6,1.5-.55,1.33-1.63.95-2.15,2.92-1.18,2.53-1.7,1,.34,0-.93,3.58-2.85,2.77-3.46.31-.62-.47-1.52-.12-.58-.5-1.24,1.93-1.52,1.21-2.2.54-1.32-.26-2.08,1.35-.7-.14-1.35,3.41-3,2.26-3.5.68-1-1.24-1.63,1.47-1.2-.37-1.73,2.24-.16-1.31-1.71-1.6-4.56-3.68-3.19-.7-1.88-2.18-.55-.91-1.47-2.31-.06-.64-1.52-2.84.2-2.94-2.8-4.05-.66-2.15-2-3.4-.33-2.77-.65-3.74.71-.15-3.35-2.83.05-4,.13-4.35.89-3.29-2.67-4-1-3.23-.18-2.91,1-2.36-1.48-3.08,0-3.37.45-3.48,1.72-3.27,4.36-3.3,4.79a12.22,12.22,0,0,0,0,2.63c.14,1.36-.55,1.46-.42,3s-1.33.56-1.14,2.42-.33,2.9.1,3.91-.35.13-.11,2.48-.52,3.17-.62,5.37S464.78,317.16,467.55,317.81Z"/><path class="cls-17" d="M508.23,311.43s-1.12-.05.6-.65-.94-2.52.31-2.15,1.21-1.08,1.21-1.08-1.39-.71-.28-1.08,1.21-1.09,1.21-1.09L511,304.3s-2.23.12-.41-1.2.54-2.53.91-2.8-1-1.39-.31-1.91-.88-.43.2-1.64-.3-1.92-.2-2.63-1.51-.83-.8-2.2-1.06-2-.19-2.21-2.72.26-2,1-.71.94-.44,1.81-2.24-.09-1.43,1.89-1.85.49-1.07,1.63-.88-.22-1.3,2.22-2.07,1.29-2,2.75-1.1.58-1.2,1.3c-.07.52-.9.22-1.37.46-.12-.49-.09-1.08,1.39-1,2.71.1-2.37-2.93,1.51-2.38s-1.78-2.59-.63-2.39-1.85-1.76-1.14-1.76.6-.88.6-.88c-.54-1.42-2,.14-2.68-1.42s-1.66.43-3.65-1.23-1.43,1.55-4.35.57,0,0-2,.13-.54.39-2-.34-1.38.48-2.13,0-1.11.29-3.16,1.25.48.69-2.05,1-.19,1.17-3.4.14-.17,1.41-1.19,1.11-.39,2.1-.39,2.1,0,1.55-1.19,1.11.18,2.2-.37,2.34.62,2.39-.82,2.14.61,2.15-.55,1.95.66,1.07-.32,1.26.91,2.44.91,2.44,1.3,1.91.45,2,1.41,1.57.88,2,1.56,1.71.27,1.61,1.38,2.88.65,2.64a4,4,0,0,0-.58,1.12c-.23.68,3.14-1.5,2.82-.24s1.45-1.31,4,.21.6-3,3.83-1.74-.18-2.19,4-1.1.1-2.15,2-1.46c1.12.41.67-.84.44-1.84a.55.55,0,0,0,.54-.15c1,.76,1-.71,1.86-.07a1.5,1.5,0,0,0,.73.28c.71.32,1,.27,1.11.05a1,1,0,0,1,.78.34c.52.69,1.21-1.3,1.62.32s1.26.59,1.26.59.84-1,1.36-.34.32-1.52,1.85-.06-.67-1.66,1.36-.34-.27-.66,2.1,0-.26-.45,1.86-.27S508.23,311.43,508.23,311.43Z"/><path class="cls-14" d="M405,366.74l-2-1s-.57-1.66-1.46-1.53-2.86-1.53-2.86-1.53-.86-1.83-1.83-1.91-4.69-2.79-4.69-2.79-.7-3.38-2-2.52-4-2-4-2l-2.95-.43s-4.06-.92-7,.61-8.18,3.39-8.12,4.26-3.1-.2-3,1.53-.75,1.2-.91,2.09-1-.28-1.05,1a3.71,3.71,0,0,1-1.29,2.37l-.76,1.86s-1.09-1.8-.9.78-1.85.06-2,3.13-1,3.19-1,3.19a1.87,1.87,0,0,0-1.35,2.17c.34,1.69-1,1.89-.56,3.13s-2.45.36-1.74,2.44-2,2.26,1.05,5.07,4.1,3.09,5.05,4.47-1.46,3.92,2.52,4.64,7.09,1.56,8.39,3.33,4.53-1.11,4.28,1.54,1.38,2,3.2,3.88,3.75,1.4,4.64,1.92.82-1,3,.44,5-.32,5.76.45,2.91-1.74,3.94-1.46,3.74-3.39,5-1.83-.2-1.93,2.83-1.29.68-.75,4.15-.84,1.36-2.16,3.59-2.49.45-.72,2.38-1.22-2.57-1.36,1.29-2.37-.22-.62,3.65-2.29,1.29-2.37,2.2-3.81.39-1.58.33-3.1-3,.67-.55-3,1.56-6.33,1.56-6.33l-1.67-2.8s-1.39-1.32-2.5-1.15-.49-2.11-2.49-1.81-.64-1.86-3.09-1.5-.64-1.87-3.08-1.5S406.24,365.47,405,366.74Z"/><path class="cls-15" d="M380.5,353.83c-.16.43-1.73-.94-1.85-.27s-2.22,0-2.38.9-1.1-.49-1.93.83-2,.3-2.24,1.32-1.62,0-2.23,1-1.51-.32-1.67.9-.74-.1-.95,1.34-1.41.65-1.2,1.6-1.77-.39-1.16.71-.6.64-.12,1.33-.48-.37-.42.82-1.27,1.06-1,1.56-1.52,0-1.13,1.15-.67.43-.35,1.36-1.63.68-1.13,1.48-.92-.3-.71,1-2.15.21-1,1.46-1.19.29-.43,1.48-2,.52-1.24,1.49-.93,1-.72,1.31-.75,1.52-.06,1.86-.46,1.37-.46,1.37-1.55-.09-.67.76-.68,1.08.5,1.45.35,1.36,1.68,1.49,0,.76,1.43,1.09.61,1.44,1.9,1.46.28,1.16,1.17,1-.86,1.21.62,1.1.56,2,1.19,1.79.11.63,1.51.64.81.65,1.73.62-.46,1.37,1.54,1.08,1.72,1.59,2.24,1.41.41,2.22,1.65,1.06-.79.77,1-.05,1.37-.09,1.85-.06.12,2.06.68,1.32,0-.23.71-.32l.67-.1c1.78-.27,1.09,1.47,1.65,1.06s.54.57.92.3.47.69,1.28.68-.6,1,1,1.26.91,1.61,1.51,1-.21,1.77,1,1.26l1.22-.51s-1.25,2.8.31,1.92,1,1.81,2.1,1a1.21,1.21,0,0,1,1.81.17s1.76,1,1.73.28,1.21.8,1.07.06,1.52-.33,1.42-.64,1.13,1.24.92.3,1.8.82,1.36.23,1.73,1.27,1.27-.41,1-1.23,1-1.23,1.37-.1,1.23-.51.93-.36.75-.87,1-.48.83-1,1.45-.87,1.45-.87,1.62.63,1.23-.51,1.92.15,1.49-1.09,1.48.54,1.28-1.39,1.45-.54,1.24-1.49.74.11.75-1.2,1.37-.09,1.43-1.3,2.33,0,2-1.28,2.42,1.27,1.78-.59-.33-.28-.64-1.87,1-1.45,1-1.45,2.4.51,1.52-.67.72-1,.1-1.43,1-1.13.6-1.28,1.33.78.38-.61.87-1.21.65-1.51.41-.49-.36-1,1.88.37.39-.93.74-.22-.58-1.33,1.42-1-.53-1.56.32-2.11-.87-1.83,1-1.35-.8-1.3-.84-.74-2.17-.54,1-1.46-.58-1,1.31-1.28-1.58-.85.16-.9-2.92-.33.14-1.65-1.42-1.42-1.68-1.49-2.47-1.05-.93-1.71-2.49-1.48-.89-2.59-1.64-2.37,0-.76-1.69-.19-.61-1.76-1.73-1.26-.3-2.25-1.72-1.27-.24-1.38-1.91-.81.94-1-1.62-.63.33-2.44-1.53-1.73-.7-.66-1.88-.37-1-.61-1.77-.4-.61-2.08-1.21-1.45-1.07-2.45-2.12-1.43S380.92,352.68,380.5,353.83Z"/><path class="cls-16" d="M358.31,379.35c1.21,1-1.24,1.49.76,1.52s-1.12.82,2.16,1.2,2.12,2.41,3,1.3,1,1.26,1.81.49,1.75,1.7,1.8.49,2,2.43,2.35,1.4.36,1,1.37.23.61,1.43,1.62,0,2,1.66,2.1.66.21,1.61,1.62.63.44.59,2.08-.09.24,1.06,2,.69.62,1.11,1.66,1.06-.32,1.79,1.64,1.39.35,1.69,1.8,1.48-.54,1.49,1.09,1.14-.66,2.17,1.64,1.72,1.16,2,2.54,1.25,4,2,3.9,1.16,1.28,1.34,1.59.2,1.94-.83,1.83-1.47,3.14.3,3-.34.73.76.42-.82,4.48-.89,4.05-1.8.56-.41.28-1.57.16-.57.13-1.33,2.41-.46,2.09-1.39,1.08-.93.73-2,1.51,0,.49-1.28,4.42-1.09,3.62-2.06,1.08-.59-.35-2,1.86-.38.47-1.7,2.06.89-.38-2.12.69-4.79-1.79-4.53.25-2-1.68-1.49-.13-1.72-2-1.11.13-1.66-2.61-1.14-1.32-3.83-3.3-2.45-1-2.8-2.86-1.86-2.16-1.86-3.65-1.09,1.41-3.05-2.54-1.26-3.63-1.75-4.27-1.22-1.69-3.88-3-2.7-2.79-1.66-3.06-.42-1.41-2.4-2.72-1.45-3.2-1.16-3.88-.07-4.91,2.36-5.14,2.72a12.85,12.85,0,0,0-1.18,2.35c-.49,1.27-1.16,1.05-1.73,2.44s-1.44-.11-2.13,1.62-1.62,2.42-1.71,3.52-.37-.05-1.25,2.15-1.92,2.57-3,4.48S356.15,377.49,358.31,379.35Z"/><path class="cls-17" d="M397.36,392.43s-1-.56.83-.3.32-2.68,1.26-1.77S401,390,401,390s-.9-1.27.25-1.09a1.58,1.58,0,0,0,1.58-.41l.25-1.09s-2-.92.19-1.25,1.65-2,2.09-2.06-.27-1.71.62-1.84-.59-.79.93-1.36.61-1.84,1-2.43-1-1.43.3-2.32,0-2.27.85-2.05-2.53-1-2.19,0-1.07.51-1.23,1.41-1.94-1.11-2.14,1-1.86-.42-1.7,1-.67-.6-2.18,1.37-2.43.19-3.06,1.51-1.25,0-1.67.6c-.3.43-.9-.22-1.43-.22.13-.5.42-1,1.71-.27,2.35,1.34-.76-3.7,2.43-1.42s-.38-3.12.55-2.41-.83-2.42-.2-2.09.93-.5.93-.5c.17-1.51-1.81-.79-1.71-2.49s-1.68-.39-2.68-2.78-2,.72-4.13-1.5,0,0-1.82-.79-.65.1-1.63-1.24-1.44-.21-1.88-1-1.13-.25-3.39-.34.11.83-2.27-.09-.7.95-3.07-1.44-.8,1.17-1.57.44-1.31,1.68-1.31,1.68-.73,1.37-1.57.44-.85,2-1.41,1.9-.55,2.41-1.71,1.53-.45,2.18-1.39,1.47.09,1.26-.86,1-.32,2.58-.32,2.58.27,2.29-.52,2,.53,2-.13,2.14.6,2.24-.49,1.55-.11,3.19-.64,2.64a3.91,3.91,0,0,0-1,.73c-.52.5,3.48.11,2.61,1.09s1.89-.49,3.45,2,1.92-2.41,4.2.22.85-2,4.08.87,1.09-1.85,2.46-.36c.81.87,1-.44,1.25-1.44a.55.55,0,0,0,.54.12c.55,1.14,1.19-.17,1.68.8a1.62,1.62,0,0,0,.52.58c.49.61.78.71,1,.55a1,1,0,0,1,.54.67c.14.86,1.67-.6,1.29,1s.85,1.1.85,1.1,1.22-.53,1.36.33,1-1.2,1.67.8.17-1.78,1.36.32.07-.71,1.88.94,0-.52,1.77.62S397.36,392.43,397.36,392.43Z"/><path class="cls-14" d="M379.64,279.15l-1.95,1.07s-1.69-.46-2.08.35-2.88,1.51-2.88,1.51-2-.31-2.6.44-4.95,2.32-4.95,2.32-3.18-1.32-3.23.27-3.91,2.15-3.91,2.15l-2,2.2s-3,2.84-3.45,6.16-1.78,8.68-1,9.11-1.9,2.46-.4,3.32.57,1.3,1.22,1.94-.81.69.26,1.44a3.74,3.74,0,0,1,1.24,2.4l1.1,1.67s-2.09-.11.15,1.19-1,1.56,1.48,3.37,2.09,2.63,2.09,2.63a1.86,1.86,0,0,0,1,2.34c1.6.66,1,1.88,2.28,2.22s-1.07,2.23,1,2.8.74,2.95,4.79,2,4.86-1.66,6.54-1.67,2.42,3.41,5.25.51,5.27-5,7.46-5.07,1.63-4.37,3.68-2.67,2.41,0,5-.47,3.27-2.32,4.2-2.75-.36-1.25,2-2.21,2.57-4.34,3.61-4.51.2-3.38,1-4.08-.7-5,1.28-5.15-1.71-.92.52-3.06-.24-1,1.64-3.91-1-2.34,0-4.36-.34-.78.33-2.66-2.57,1.36-1.24-2.4-.64-.17.16-4.31-1.24-2.39-1.92-3.95-1.09-1.21-2.38-2-1.15,2.89-2.76-1.21-4.37-4.84-4.37-4.84l-3.25-.2s-1.87.41-2.36,1.42-2-.77-2.89,1-1.91-.52-3,1.71-1.9-.52-3,1.71S379.27,277.44,379.64,279.15Z"/><path class="cls-15" d="M355.18,292.2c.27.37-1.75.9-1.26,1.38s-1.24,1.84-.59,2.47-1,.64-.4,2.07-.88,1.82-.17,2.59-.89,1.36-.44,2.4-1.11,1.07-.19,1.89-.5.55.58,1.53-.26,1.53.64,1.89-1.32,1.25-.05,1.36.18.85,1,.85-.57.19.45.81.16,1.65.74,1.69-.85,1.26.32,1.57,0,.8.92,1.06-.35,1.73.59,1.76-.76.59.41,1.14-1,1.9.63,1.66-.43,1.14,1,1.18-.72,2,.54,1.87.31,1.34.67,1.33.84,1.48,1.51,1.09.88,1.15.88,1.15-1,1.23.24,1,.51,1.17,1.48.4,1.33.47,2.18-.56.64.41,1.71-.56,1.53.3,2.27-.76,1.12.42,1.51-.39.52,1.4,1.26.11,2,.65,2.15,0,.58.27,1.38-.88,1-.31,1.48-1.09.88,1.15,1.76-.67,2.28-.52,2.42-1.06,2.07.91,1.8-.77.2,1.08.55-.88.69-1.19,1-1.56,1.77,1.05,1.47.17-.16-.16.13-.77-.48,1,.3-.61,1.83-.07,1.8-.77.78-.13.77-.59.83,0,1.28-.68.46,1,1.62-.14,1.84.16,1.65-.69,1.35,1.16,1.62-.14l.27-1.3s1.61,2.61,1.75.82,2.05.21,2-1.17A1.22,1.22,0,0,1,402,312s1.85-.87,1.21-1.27,1.34-.55.65-.86.58-1.44.26-1.53,1.67-.23.76-.59,1.69-1,1-1,2-.71.38-1.28-.48-1.5-.48-1.5.69-1.18.27-1.3.23-1-.3-1.11.17-1.1-.36-1.24.1-1.69.1-1.69,1.43-1,.27-1.3,1.2-1.51-.07-1.85,1.28-.92-.43-1.84.36-1.5-.54-1.86.51-.55-.57-1.3.69-1.19-.28-1.91,1.3-1.94.08-2.38,2.41-1.29.51-1.81-.42.12-1.91-.52-.63-1.66-.63-1.66,1.77-1.69.31-1.63-.41-1.14-1.13-.88-.37-1.47-.73-1.23,1.39-.65-.28-.65-.52-1.4-.89-1.38-.18-.62-1.06-.29,1.37-1.35-.55-.84.24-.73-1.42-.27,0-1.72-1.59-.43-1.57-1.46-2-.31-.53-1.63-1.52-.07-1.09.28-1.68,1.49-.63-1.66-1.15-.08-.33-1.81-1.6.82-.65-.63-1.91,2.23-1.29-1-2,.38-2.18.56-2.26,1.45-1.94-.18-2.62,1.24-2.65-.72-2.88,0-.64-.41-1.11,1.3-1.79-.49-2,.71-2-1-2,.72-1.28-.58-1.74,1.13-.31-1.35-1.43,1-1.84-1.64-2.3.3-.93.2-1.36,1.34-1.08.51-1.32,1.25-2.06-.68-1.88.18-2.63-.49-2.37.95S354.47,291.21,355.18,292.2Z"/><path class="cls-16" d="M363.83,324.89c1.55-.42.54,1.86,1.69.23s.05,1.39,2.21-1.12,3.18-.4,2.76-1.77,1.62-.13,1.43-1.22,2.39-.49,1.42-1.21,3.13-.3,2.47-1.16,1.06.28,1-1,1.53.3.9-1.36,2.48-.7,1.73-1.37,1.44.74,1.43-1,.73,0,1.09-1.77,1,.39,1.68-1.26,1.26.12,1.81-.77,1.3,1.27,2.07-.58,1.6.66,2.23-.65.93,1.28,1.56-.27,1.42,1.76,2.34-.39,2.31.17,2.47-1.4,3.9-2.14,3.15-2.57,1.82-.31,1.06-1.21.4-2.06-.19-2.34,2-2.43,1.42-2.7,1-.18-.44-.81,1.78-4.21.78-4.37,0-.69-1.14-1.11-.38-.44-1-.85,1-2.25,0-2.51-.15-1.42-1.21-1.71.85-1.25-.77-1.12,1.57-4.27.32-4.15.11-1.23-1.86-.85.72-1.75-1.15-1.34,1.9-1.2-2-.88-3.57-3.26-4.75-1.06-1.51-1.32-2.18.56-1.5-.87-2.06,1-1.29-1-2.4,1.52-3.92-1.06-3.88,1.36-2.86-.78-3.15,1.32-2.75.74-2.95,2.4-1.73-2.87-2.46,1.4-3.49,2-3.41,2.85-4.17-.79-3.95,1-2.93,1.38-2.06,2.3-2.78-.18-2.72,1.44-2.76,2-2.25,3.17-.8,5.39-.63,5.78a12.69,12.69,0,0,0,1.29,2.3c.77,1.12.21,1.54,1,2.8s-.9,1.13.15,2.67,1.09,2.7,1.95,3.39-.25.28,1.07,2.24,1,3,2,5S361.09,325.63,363.83,324.89Z"/><path class="cls-17" d="M396.58,299.93s-1,.49.22-.86-2-1.77-.75-2,.55-1.54.55-1.54-1.56,0-.76-.81a1.58,1.58,0,0,0,.54-1.53l-.75-.82s-1.91,1.16-.93-.86-.73-2.49-.53-2.89-1.57-.73-1.18-1.54-1,0-.61-1.54-1.17-1.54-1.42-2.22-1.73,0-1.76-1.55-1.88-1.27-1.22-1.85-2.27,1.52-1.25,1.8-.18,1.17.48,1.8-2,1-.36,2.35-1.4,1.3-.17,1.94-.87.22-.08,2.57-1.21,2.11-.48,3.38-.69,1-.44,1.71c.18.5-.68.63-1,1.06-.33-.38-.59-.91.74-1.56,2.43-1.19-3.48-1.45.19-2.81s-2.79-1.43-1.68-1.81-2.47-.66-1.84-1,.11-1.06.11-1.06c-1.16-1-1.68,1.07-3,0s-1.27,1.18-3.8.66-.53,2.05-3.56,2.57,0,0-1.68,1.06-.28.6-1.94.66-1,1.08-1.88,1-.84.79-2.18,2.61.75.37-1.35,1.83.4,1.11-2.92,1.73.52,1.32-.51,1.55.65,2,.65,2,.73,1.37-.52,1.54,1.21,1.85.79,2.24,1.68,1.8.3,2.27,1.55,1.6.44,2,1.09.63.32,1.27,2,1.71,2,1.71,2.05,1.06,1.35,1.55,2,.7,1.69,1.3,2.19.76,1,1.28,2.58,1.88,1.82,2a3.89,3.89,0,0,0,0,1.26c.12.71,2.05-2.81,2.37-1.54s.65-1.85,3.61-1.72-.91-2.94,2.54-3.35-1.2-1.85,3-2.89-.92-1.94,1.08-2.24c1.18-.17.19-1.06-.49-1.83a.59.59,0,0,0,.41-.39c1.25.19.52-1.08,1.6-.94a1.52,1.52,0,0,0,.77-.1c.78-.07,1-.25,1-.49a1,1,0,0,1,.86-.07c.78.36.44-1.71,1.57-.49s1.39-.08,1.39-.08.24-1.31,1-.94-.44-1.5,1.6-.94-1.37-1.14,1-.95-.55-.45,1.84-1-.44-.28,1.5-1.12S396.58,299.93,396.58,299.93Z"/><path class="cls-14" d="M353.71,309.56l-1.92,1.71s-2.21-.31-2.36.8-2.87,2.42-2.87,2.42-2.52-.07-2.95,1-5,3.81-5,3.81-4.34-1.16-3.78.89S331,323.6,331,323.6l-1.56,3.16s-2.54,4.15-1.73,8.48,1.24,11.43,2.3,11.85-1.32,3.48.81,4.34S332,353,333,353.7s-.7,1,.88,1.81a6.13,6.13,0,0,1,2.42,2.86l2,2s-2.56.21.64,1.5-.58,2.17,3.09,4.08,3.52,3,3.52,3a3,3,0,0,0,2.15,2.82c2.17.58,1.94,2.24,3.59,2.47s-.41,3,2.35,3.42,2,3.65,6.51,1.74,5.18-2.95,7.19-3.24,4.24,4,6.5-.23,4.38-7.27,7-7.76.24-5.87,3.36-4,2.88-.45,5.83-1.45,3-3.52,4-4.24-.92-1.53,1.56-3.16,1.38-6,2.56-6.4-1.08-4.37-.38-5.4-2.79-6.29-.47-6.81-2.41-.9-.57-4-.68-1.22.44-5.28-2.14-2.83-1.76-5.59-.71-.94-.65-3.47-2.55,2.18-2.42-2.86-.82-.12-1.48-5.55-2.42-2.87-3.85-4.75-1.78-1.37-3.64-2.19-.25,3.9-3.78-1.08-7.12-5.48-7.12-5.48l-4,.29s-2.09.84-2.28,2.22-2.72-.65-3.06,1.83-2.49-.34-2.9,2.7-2.49-.34-2.9,2.69S352.59,307.44,353.71,309.56Z"/><path class="cls-15" d="M329.46,330.42c.46.43-1.74,1.45-1,2s-.78,2.57.25,3.27-1,1,.33,2.72-.34,2.48.81,3.34-.54,1.9.41,3.16-.92,1.56.5,2.46-.39.79,1.29,1.86.29,2,1.51,2.32-1.09,1.82.47,1.75.55,1.06,1.56.92-.61.34.85,1,.84,2.09,1.55,2-.53,1.76,1,2,.28,1,1.52,1.19.25,2.29,1.39,2.16-.68.89.94,1.4-.5,2.6,1.41,2-.07,1.54,1.64,1.35-.09,2.66,1.37,2.3.9,1.67,1.33,1.59,1.58,1.76,2.23,1.15,1.51,1.33,1.51,1.33-.66,1.74.67,1.22,1.07,1.41,1.93.27,1.78.38,2.4-1.08.93.41,1.83-1,1.95.13,2.44-1.35,1.49.35,1.65-.76,1.17,1.71,1.55-.06,2.61.49,2.58-.35.81.25,1.31-1.37,1.07-.56,1.36-1.64,1.5,1.33,1.84-1.16,2.54-1.05,2.49-1.76,2.85.81,1.87-1.29.66,1.35.31-1.23.36-1.64.58-2.17,2.53,1,1.83,0-.26-.17-.14-1-.19,1.38.11-.83,2.17-.41,1.87-1.29.88-.3.68-.89,1-.15,1.28-1.09.95,1.25,1.88-.45,2.27-.11,1.71-1.17,2.08,1.27,1.89-.44l-.18-1.72s3,3.08,2.42.76,2.54-.07,1.94-1.84.84-2,.84-2,1.88-1.43,1-1.84,1.39-.93.44-1.2.13-1.95-.28-2,1.91-.58.68-.89,1.63-1.6.76-1.44,2.14-1.26-.05-1.7-1.15-1.84-1.15-1.84.37-1.64-.18-1.72-.11-1.28-.8-1.37-.22-1.44-.91-1.54-.55-2.18-.55-2.18,1.34-1.51-.18-1.71.85-2.14-.8-2.36,1.17-1.39-1.24-2.28-.14-2-1.37-2.3.39-.79-1.19-1.57.37-1.64-1.07-2.4.79-2.71-.85-3.07,2.4-2.06-.09-2.41-.45.22-2.48-.34-1.41-2-1.41-2,1.46-2.47-.27-2.15-.93-1.39-1.7-.93-1-1.83-1.35-1.46,1.42-1.07-.59-.78-1.17-1.71-1.61-1.63-.45-.76-1.38-.19,1.12-1.95-1-1,0-1-1.81-.11-.68-2.2-2.07-.28-2.45-1.6-2.52-.07-1.27-2-1.85.17-1.2.54-1.43,2.2-1.41-2-1.42.08-1.09-2.26-1.59,1.33-1-.7-1.42,3.18-1.95-1.11-2.22.82-2.4,1.08-2.14,2.24-2.4.09-2.67,2-3.45-.47-3.44.52-.93-.41-.82,1.85-2.34-.32-2.14,1.26-2.82-1-2.14,1.25-1.76-.52-1.65,1.74-.89-1.67-1.33,1.51-2.84-1.8-2.63.76-1.05.42-1.12,2-1.1.83-1.09,1.82-2.74-.52-2.18.54-3.36-.18-2.48,1.63S328.22,329.27,329.46,330.42Z"/><path class="cls-16" d="M352.59,370.88c1.69-.79,1.37,2.3,2.11,0s.6,1.77,2.21-1.81,3.66-1,2.63-2.73,1.89-.44,1.23-1.8,2.67-1,1.23-1.8,3.64-.91,2.51-1.9,1.38.19.77-1.45,2,.13.54-1.89,2.71-1.32,1.54-2,2,.7,1.33-1.51.87-.16.62-2.44,1.36.33,1.53-1.9,1.56-.07,1.86-1.29,2.06,1.4,2.26-1.1,2.17.58,2.42-1.21,1.62,1.48,1.77-.6,2.4,2,2.66-.91,2.83-.17,2.41-2.2,3.84-3.41,2.78-3.83,2.06-.71.79-1.72-.32-2.72-1.13-3,1.46-3.46.65-3.71,1.18-.4-.86-1,.51-5.7-.75-5.73-.3-.89-1.8-1.24-.64-.51-1.56-.91.28-3.06-1-3.23-.74-1.79-2.12-2,.53-1.76-1.36-1.31.22-5.74-1.23-5.38-.34-1.59-2.57-.77.19-2.37-1.9-1.53,1.81-1.86-2.7-.79-5.55-3.58-6.11-.56-2.33-1.45-2.4,1.07-2.13-.85-2.06,1.69-1.95-1.11-2.29,2.36-5.11-.7-4.13,2.38-3.72-.51-3.25,2.23-3,1.41-2.61,3.58-3.19-3.39-2.41,2.2-3.39,3.19-3,4.23-5.3-.3-4.34,1.94-3,2.26-1.58,3.3-3.41.23-2.71,2.3-2.53,3-1.45,4.44,1.14,7,1.49,7.52a21.52,21.52,0,0,0,2.44,2.73c1.37,1.31.86,1.95,2.34,3.42s-.64,1.6,1.22,3.4,2.36,3.28,3.67,4-.2.39,2.16,2.69,2.44,3.71,4.36,6.08S349.58,372.3,352.59,370.88Z"/><path class="cls-17" d="M382.13,333.36s-1,.8-.07-1.14-3.13-1.93-1.7-2.48.06-2.06.06-2.06-1.85.31-1.23-.91a2.09,2.09,0,0,0,.06-2.06l-1.23-.92s-1.83,1.81-1.45-1-1.84-3.07-1.76-3.62-2.17-.67-2-1.78-1.16.22-1.32-1.87-2-1.77-2.58-2.6-2.07.28-2.7-1.69-2.76-1.31-2.19-2.17-2.13,2.33-.8,2.51.24,1.54,1.28,2.24-2,1.6.48,3.07-1.17,1.9.55,2.52-1,.43.9,3.31-.62,2.91.75,4.41-.42,1.45.14,2.27c.41.61-.57.92-.77,1.53-.55-.43-1.07-1.07.28-2.13,2.45-1.94-4.75-1.27-.87-3.64s-3.91-1.36-2.73-2-3.21-.44-2.59-1-.28-1.37-.28-1.37c-1.77-1.07-1.6,1.65-3.63.54s-1.06,1.72-4.3,1.48.17,2.71-3.27,3.89,0,0-1.59,1.65-.11.81-2.07,1.16-.76,1.55-1.86,1.61-.71,1.15-1.61,3.71,1.05.35-.9,2.57.91,1.37-2.83,2.72,1.15,1.6,0,2.07,1.57,2.49,1.57,2.49,1.41,1.64,0,2.07,2.16,2.16,1.81,2.73,2.72,2,1.24,2.86,2.49,1.79,1.31,2.46,1.55.63.87,1.57,3,1.86,3,1.86,2.87,1,2.22,1.76,2.65.57,2.54,1.38,2.92.61,1.71,1.48,3.83,2,3,2.27a6.06,6.06,0,0,0,.52,1.61c.42.89,1.36-3.95,2.24-2.38s.07-2.48,3.66-2.81-2.23-3.62,1.75-4.73-2.16-2.16,2.49-4.21-1.87-2.33.42-3.05c1.35-.42-.18-1.39-1.3-2.27a.58.58,0,0,0,.33-.56c1.58,0,.21-1.48,1.56-1.48a1.7,1.7,0,0,0,.89-.26c.91-.21,1.13-.49,1-.79a1.07,1.07,0,0,1,1-.24c1.08.34-.14-2.27,1.7-.89s1.63-.34,1.63-.34-.21-1.72.87-1.38-1.1-1.84,1.56-1.47-2.09-1.23.87-1.39-.84-.49,1.8-1.62-.64-.28,1.36-1.69S382.13,333.36,382.13,333.36Z"/></svg>