<svg id="Layer_1" data-name="Layer 1" xmlns="http://www.w3.org/2000/svg" xmlns:xlink="http://www.w3.org/1999/xlink" viewBox="0 0 512 400"><defs><style>.cls-1,.cls-50{fill:#fff;}.cls-2{clip-path:url(#clip-path);}.cls-3{fill:url(#radial-gradient);}.cls-4{fill:#a58159;}.cls-5{fill:#d8b888;stroke:#72572a;stroke-miterlimit:10;stroke-width:2px;}.cls-6{fill:#d1af82;}.cls-7{fill:#c6a379;}.cls-8{fill:#3dbbd8;}.cls-9{fill:#29b7ce;}.cls-10{fill:#45c7dd;}.cls-11{fill:#00a4bf;}.cls-12{fill:#06b7c9;}.cls-13{fill:#202435;}.cls-14{fill:#2d3344;}.cls-15{fill:#0299b2;}.cls-16{fill:#9ac644;}.cls-17{fill:#93bc2e;}.cls-18{fill:#aace51;}.cls-19{fill:#79aa1a;}.cls-20{fill:#88b222;}.cls-21{fill:#76a00e;}.cls-22{fill:#edc20f;}.cls-23{fill:#e2ad05;}.cls-24{fill:#f7cd1c;}.cls-25{fill:#e5a403;}.cls-26{fill:#f2b711;}.cls-27{fill:#db9803;}.cls-28{fill:#e57b07;}.cls-29{fill:#d86d03;}.cls-30{fill:#ef8114;}.cls-31{fill:#d65e05;}.cls-32{fill:#e2620c;}.cls-33{fill:#c65305;}.cls-34{fill:#1767aa;}.cls-35{fill:#075f9b;}.cls-36{fill:#1d76b2;}.cls-37{fill:#034d84;}.cls-38{fill:#065c91;}.cls-39{fill:#034872;}.cls-40{fill:#e04c58;}.cls-41{fill:#d64355;}.cls-42{fill:#e55768;}.cls-43{fill:#cc1b31;}.cls-44{fill:#d82341;}.cls-45{fill:#bf1331;}.cls-46{fill:#423b32;opacity:0.31;}.cls-47{fill:#ddbd92;}.cls-48{fill:#f8d63a;}.cls-49{fill:#baa02a;}.cls-50{opacity:0.5;}.cls-51{opacity:0.1;}.cls-52{fill:#212121;}.cls-53{fill:#b7ce63;}.cls-54{fill:#899a4b;}.cls-55{fill:#3fa9e0;}.cls-56{fill:#2d80a8;}.cls-57{fill:#9186b5;}.cls-58{fill:#6d6587;}.cls-59{fill:#e55f76;}.cls-60{fill:#ac4758;}.cls-61{fill:#f7883c;}.cls-62{fill:#81991d;}.cls-63{fill:#4d13bc;}.cls-64{fill:#dfdcef;}</style><clipPath id="clip-path"><circle class="cls-1" cx="396" cy="-220" r="196.51"/></clipPath><radialGradient id="radial-gradient" cx="399.04" cy="-8.01" r="311.91" gradientTransform="translate(0 -199.79) scale(1 1.09)" gradientUnits="userSpaceOnUse"><stop offset="0" stop-color="#d0f2fe"/><stop offset="0.18" stop-color="#8fe0fc"/><stop offset="0.44" stop-color="#60bef8"/><stop offset="0.75" stop-color="#39a3ee"/><stop offset="1" stop-color="#1f93e8"/></radialGradient></defs><circle class="cls-1" cx="396" cy="-220" r="196.51"/><g class="cls-2"><rect class="cls-3" x="153.05" y="-433.52" width="493.79" height="452.82"/></g><rect class="cls-4" x="104.44" y="125.28" width="302.99" height="222.19"/><path class="cls-5" d="M104.44,43.77v81.51H407.27V43.77c0-3.66-2.45-6.63-6.11-6.63H111.08A6.64,6.64,0,0,0,104.44,43.77Zm186.77,40H221.26a11.48,11.48,0,0,1-11.56-11A11.33,11.33,0,0,1,221,61.15H242c0-.11,0-.21,0-.32a14.16,14.16,0,0,1,28.32,0c0,.11,0,.21,0,.32H291a11.48,11.48,0,0,1,11.56,11A11.33,11.33,0,0,1,291.21,83.78Z"/><rect class="cls-6" x="104.96" y="96.63" width="301.79" height="28.65"/><rect class="cls-7" x="104.96" y="121.24" width="301.79" height="4.04"/><rect class="cls-8" x="197.61" y="199.2" width="231.96" height="43.25" transform="translate(81.71 526.33) rotate(-87.95)"/><rect class="cls-9" x="217.96" y="220.3" width="231.96" height="2.51" transform="translate(100.61 547.37) rotate(-87.95)"/><rect class="cls-9" x="179.65" y="216.53" width="231.96" height="7.32" transform="translate(65.03 507.77) rotate(-87.95)"/><rect class="cls-10" x="202.63" y="217.4" width="231.96" height="7.21" transform="translate(86.37 531.52) rotate(-87.95)"/><path class="cls-11" d="M335.53,97l-35-1.25a.51.51,0,0,0-.53.49l-.28,8,36,1.28.29-8A.51.51,0,0,0,335.53,97Z"/><path class="cls-11" d="M316.44,54.86,302,95.84,334,97,322.27,55C320.9,50.89,317.47,51.2,316.44,54.86Z"/><path class="cls-12" d="M318.29,55.53q-1.73,20.39-3.43,40.77l11.79.42q-2.88-20.55-5.75-41.1a1.33,1.33,0,0,0-2.61-.09Z"/><rect class="cls-13" x="295.46" y="119.98" width="43.25" height="5.9" transform="translate(4.59 -11.24) rotate(2.05)"/><rect class="cls-13" x="295.04" y="131.77" width="43.25" height="5.9" transform="translate(5.01 -11.22) rotate(2.05)"/><rect class="cls-13" x="289.31" y="292.2" width="43.25" height="5.9" transform="translate(10.73 -10.91) rotate(2.05)"/><rect class="cls-13" x="288.89" y="303.99" width="43.25" height="5.9" transform="translate(11.15 -10.89) rotate(2.05)"/><rect class="cls-14" x="319.15" y="119.5" width="5.9" height="7.21" transform="translate(187.57 440.61) rotate(-87.95)"/><rect class="cls-14" x="318.73" y="131.29" width="5.9" height="7.21" transform="translate(175.39 451.56) rotate(-87.95)"/><rect class="cls-14" x="313" y="291.72" width="5.9" height="7.21" transform="translate(9.53 600.54) rotate(-87.95)"/><rect class="cls-14" x="312.58" y="303.51" width="5.9" height="7.21" transform="translate(-2.65 611.48) rotate(-87.95)"/><polygon class="cls-15" points="335.86 102.63 299.7 101.39 299.72 104.28 335.73 105.56 335.86 102.63"/><rect class="cls-16" x="243.58" y="117.38" width="43.25" height="231.96"/><rect class="cls-17" x="284.32" y="117.38" width="2.51" height="231.96"/><rect class="cls-17" x="243.58" y="117.38" width="7.32" height="231.96"/><rect class="cls-18" x="266.62" y="117.38" width="7.21" height="231.96"/><path class="cls-19" d="M248.16,108.87h34.09a1,1,0,0,1,1,1v7.54a0,0,0,0,1,0,0h-36a0,0,0,0,1,0,0v-7.54A1,1,0,0,1,248.16,108.87Z"/><path class="cls-19" d="M262.44,67.34l-13.25,41.53h32L268.28,67.34C267,63.9,263.23,63.9,262.44,67.34Z"/><path class="cls-20" d="M264,68q-1,20.43-2,40.87h11.79q-3.6-20.45-7.21-40.87a1.41,1.41,0,0,0-1.42-1.08A1.43,1.43,0,0,0,264,68Z"/><rect class="cls-13" x="243.58" y="132.45" width="43.25" height="5.9"/><rect class="cls-13" x="243.58" y="144.25" width="43.25" height="5.9"/><rect class="cls-13" x="243.58" y="304.78" width="43.25" height="5.9"/><rect class="cls-13" x="243.58" y="316.58" width="43.25" height="5.9"/><rect class="cls-14" x="266.62" y="132.45" width="7.21" height="5.9"/><rect class="cls-14" x="266.62" y="144.25" width="7.21" height="5.9"/><rect class="cls-14" x="266.62" y="304.78" width="7.21" height="5.9"/><rect class="cls-14" x="266.62" y="316.58" width="7.21" height="5.9"/><rect class="cls-21" x="247.18" y="116.07" width="36.04" height="1.31"/><rect class="cls-22" x="200.24" y="116.86" width="43.25" height="231.96"/><rect class="cls-23" x="240.98" y="116.86" width="2.51" height="231.96"/><rect class="cls-23" x="200.24" y="116.86" width="7.32" height="231.96"/><rect class="cls-24" x="223.29" y="116.86" width="7.21" height="231.96"/><path class="cls-25" d="M204.82,108.34h34.09a1,1,0,0,1,1,1v7.54a0,0,0,0,1,0,0h-36a0,0,0,0,1,0,0v-7.54A1,1,0,0,1,204.82,108.34Z"/><path class="cls-25" d="M219.1,66.82l-13.25,41.52h32L224.63,66.82C222.39,61.81,220.21,63.37,219.1,66.82Z"/><path class="cls-26" d="M220.67,67.48q-1,20.43-2,40.86h11.79l-7.2-40.86a1.33,1.33,0,0,0-2.62,0Z"/><rect class="cls-13" x="200.24" y="131.93" width="43.25" height="5.9"/><rect class="cls-13" x="200.24" y="143.73" width="43.25" height="5.9"/><rect class="cls-13" x="200.24" y="304.26" width="43.25" height="5.9"/><rect class="cls-13" x="200.24" y="316.06" width="43.25" height="5.9"/><rect class="cls-14" x="223.29" y="131.93" width="7.21" height="5.9"/><rect class="cls-14" x="223.29" y="143.73" width="7.21" height="5.9"/><rect class="cls-14" x="223.29" y="304.26" width="7.21" height="5.9"/><rect class="cls-14" x="223.29" y="316.06" width="7.21" height="5.9"/><rect class="cls-27" x="203.85" y="115.55" width="36.04" height="1.31"/><rect class="cls-28" x="154.7" y="105.23" width="43.25" height="231.96"/><rect class="cls-29" x="195.44" y="105.23" width="2.51" height="231.96"/><rect class="cls-29" x="154.7" y="105.23" width="7.32" height="231.96"/><rect class="cls-30" x="177.75" y="105.23" width="7.21" height="231.96"/><path class="cls-31" d="M159.28,96.71h34.09a1,1,0,0,1,1,1v7.54a0,0,0,0,1,0,0h-36a0,0,0,0,1,0,0V97.69A1,1,0,0,1,159.28,96.71Z"/><path class="cls-31" d="M173.76,55.25,160.31,96.71h32l-13.9-41.46C176.88,51.51,174.7,52.13,173.76,55.25Z"/><path class="cls-32" d="M175.13,55.85q-1,20.43-2,40.86H185l-7.2-40.86a1.33,1.33,0,0,0-2.62,0Z"/><rect class="cls-13" x="154.7" y="120.3" width="43.25" height="5.9"/><rect class="cls-13" x="154.7" y="132.1" width="43.25" height="5.9"/><rect class="cls-13" x="154.7" y="292.63" width="43.25" height="5.9"/><rect class="cls-13" x="154.7" y="304.43" width="43.25" height="5.9"/><rect class="cls-14" x="177.75" y="120.3" width="7.21" height="5.9"/><rect class="cls-14" x="177.75" y="132.1" width="7.21" height="5.9"/><rect class="cls-14" x="177.75" y="292.63" width="7.21" height="5.9"/><rect class="cls-14" x="177.75" y="304.43" width="7.21" height="5.9"/><rect class="cls-33" x="158.31" y="100.18" width="36.04" height="5.05"/><rect class="cls-34" x="247.88" y="169.73" width="231.96" height="43.25" transform="translate(139.59 535.9) rotate(-84.68)"/><rect class="cls-35" x="268.16" y="191.99" width="231.96" height="2.51" transform="matrix(0.09, -1, 1, 0.09, 156.11, 557.81)"/><rect class="cls-35" x="229.99" y="186.03" width="231.96" height="7.32" transform="translate(125.02 516.58) rotate(-84.68)"/><rect class="cls-36" x="252.88" y="188.21" width="231.96" height="7.21" transform="translate(143.67 541.31) rotate(-84.68)"/><path class="cls-37" d="M392.83,69,358,65.77a.51.51,0,0,0-.55.46l-.74,8,35.88,3.34.74-8A.5.5,0,0,0,392.83,69Z"/><path class="cls-37" d="M376.7,26l-17.25,40,31.9,3-9.66-42.62C380.75,21.89,378,22.21,376.7,26Z"/><path class="cls-38" d="M378,26.59q-2.87,20.25-5.74,40.51L384,68.19,380.6,26.83a1.41,1.41,0,0,0-1.31-1.2A1.43,1.43,0,0,0,378,26.59Z"/><rect class="cls-13" x="351.32" y="90.87" width="43.25" height="5.9" transform="translate(10.3 -34.17) rotate(5.32)"/><rect class="cls-13" x="350.22" y="102.61" width="43.25" height="5.9" transform="translate(11.39 -34.02) rotate(5.32)"/><rect class="cls-13" x="335.34" y="262.45" width="43.25" height="5.9" transform="translate(26.14 -31.95) rotate(5.32)"/><rect class="cls-13" x="334.24" y="274.2" width="43.25" height="5.9" transform="translate(27.23 -31.8) rotate(5.32)"/><rect class="cls-14" x="374.99" y="90.68" width="5.9" height="7.21" transform="translate(249.02 461.85) rotate(-84.68)"/><rect class="cls-14" x="373.9" y="102.42" width="5.9" height="7.21" transform="matrix(0.09, -1, 1, 0.09, 236.34, 471.42)"/><rect class="cls-14" x="359.01" y="262.27" width="5.9" height="7.21" transform="translate(63.68 601.62) rotate(-84.68)"/><rect class="cls-14" x="357.92" y="274.01" width="5.9" height="7.21" transform="translate(51 611.19) rotate(-84.68)"/><polygon class="cls-39" points="392.91 74.27 357.06 71.46 356.67 74.2 392.55 77.55 392.91 74.27"/><rect class="cls-40" x="109.98" y="73.25" width="43.25" height="231.96" transform="matrix(1, -0.05, 0.05, 1, -9, 6.59)"/><rect class="cls-41" x="150.69" y="72.26" width="2.51" height="231.96" transform="translate(-8.93 7.57) rotate(-2.77)"/><rect class="cls-41" x="110" y="74.12" width="7.32" height="231.96" transform="translate(-9.07 5.72) rotate(-2.77)"/><rect class="cls-42" x="133.01" y="73.01" width="7.21" height="231.96" transform="translate(-8.99 6.83) rotate(-2.77)"/><path class="cls-43" d="M108.73,64.87h34.09a1,1,0,0,1,1,1v7.54a0,0,0,0,1,0,0h-36a0,0,0,0,1,0,0V65.85A1,1,0,0,1,108.73,64.87Z" transform="translate(-3.2 6.17) rotate(-2.77)"/><path class="cls-43" d="M120.14,26c-2.49,10-10.56,39.7-10.56,39.7l32-1.55L127,25.64C124.82,19.71,121.39,21,120.14,26Z"/><path class="cls-44" d="M122.4,24.12q0,20.46,0,40.91l11.78-.57L125,24a1.33,1.33,0,0,0-2.61.13Z"/><rect class="cls-13" x="105.23" y="88.44" width="43.25" height="5.9" transform="translate(-4.27 6.25) rotate(-2.77)"/><rect class="cls-13" x="105.81" y="100.22" width="43.25" height="5.9" transform="translate(-4.84 6.29) rotate(-2.77)"/><rect class="cls-13" x="113.57" y="260.56" width="43.25" height="5.9" transform="translate(-12.59 6.85) rotate(-2.77)"/><rect class="cls-13" x="114.15" y="272.34" width="43.25" height="5.9" transform="translate(-13.16 6.89) rotate(-2.77)"/><rect class="cls-14" x="128.27" y="88.19" width="7.21" height="5.9" transform="translate(-4.26 6.49) rotate(-2.77)"/><rect class="cls-14" x="128.84" y="99.97" width="7.21" height="5.9" transform="matrix(1, -0.05, 0.05, 1, -4.83, 6.53)"/><rect class="cls-14" x="136.61" y="260.32" width="7.21" height="5.9" transform="translate(-12.58 7.09) rotate(-2.77)"/><rect class="cls-14" x="137.18" y="272.1" width="7.21" height="5.9" transform="translate(-13.15 7.14) rotate(-2.77)"/><polygon class="cls-45" points="143.92 68.09 107.92 69.83 107.99 74.26 143.98 72.51 143.92 68.09"/><path class="cls-5" d="M104.32,125.28V366a12.37,12.37,0,0,0,12.38,12.37H395.3A12.37,12.37,0,0,0,407.68,366V125.28ZM256,216.79c-48.58,0-88-14.35-88-32s39.38-32.05,88-32.05,88,14.35,88,32.05S304.58,216.79,256,216.79Z"/><path class="cls-46" d="M339.07,174.2a12.89,12.89,0,0,1,1.57,6c0,17.71-39.38,32.06-88,32.06-38.44,0-71.12-9-83.09-21.52,7.76,14.82,43.49,26,86.4,26,48.57,0,87.95-14.35,87.95-32C343.94,181.05,342.22,177.5,339.07,174.2Z"/><path class="cls-6" d="M403.28,125.8c.07,2.32.11,4.12.11,6.46,0,125.15-101.45,226.6-226.6,226.6A223.15,223.15,0,0,1,105,347.06V366c0,6.83,5,11.33,11.86,11.33h278.6c6.84,0,11.85-4.5,11.85-11.33V125.8Z"/><path class="cls-7" d="M105.17,370.12a12.37,12.37,0,0,0,11.65,8.2h278.6a12.37,12.37,0,0,0,11.65-8.2c-48.6,3.4-100.63,5.38-155.72,5.26C199.81,375.27,151,373.32,105.17,370.12Z"/><path class="cls-47" d="M393.54,137.4c4.74,0,8.93,0,13.62.1l-.53-11.7H104.84v72C145.76,162.67,259.27,137.4,393.54,137.4Z"/><path class="cls-48" d="M138.05,261.88v5.63h-22.7v-5.63c5.3-14.48,8.25-21.83,11.2-22S132.57,247,138.05,261.88Z"/><path class="cls-49" d="M138.05,267.51h-22.7v-5.63a48.13,48.13,0,0,1,22.7,0Z"/><polygon class="cls-50" points="125.55 242.53 123.56 259.6 119.66 260.05 125.55 242.53"/><path class="cls-51" d="M138.05,261.88a50.26,50.26,0,0,0-6.1-1.06l-5.4-20.95C129.56,239.68,132.57,247,138.05,261.88Z"/><path class="cls-49" d="M115.35,364.07h22.7v4.49a1.42,1.42,0,0,1-1.11,1.39,48.11,48.11,0,0,1-20.48,0,1.42,1.42,0,0,1-1.11-1.39Z"/><path class="cls-48" d="M139.87,265.15V366.6a51.53,51.53,0,0,1-6.71,1.37,47.81,47.81,0,0,1-11.15.2c-1.14-.1-2.28-.26-3.42-.45-1.68-.29-3.37-.66-5-1.12V265.15c1.68-.46,3.37-.83,5-1.12q1.71-.28,3.42-.45a47.81,47.81,0,0,1,11.15.2A51.53,51.53,0,0,1,139.87,265.15Z"/><path class="cls-52" d="M122,361.52c-1.14-.11-2.28-.26-3.42-.46a50.79,50.79,0,0,1-5-1.12v3.36c1.68.46,3.37.83,5,1.12,1.14.19,2.28.35,3.42.45a47.81,47.81,0,0,0,11.15-.2,51.53,51.53,0,0,0,6.71-1.37v-3.36a49.92,49.92,0,0,1-6.71,1.37A47.81,47.81,0,0,1,122,361.52Z"/><path class="cls-52" d="M122,355.32c-1.14-.11-2.28-.26-3.42-.46a50.79,50.79,0,0,1-5-1.12v4.4c1.68.46,3.37.83,5,1.12,1.14.19,2.28.35,3.42.45a47.81,47.81,0,0,0,11.15-.2,51.53,51.53,0,0,0,6.71-1.37v-4.4a49.92,49.92,0,0,1-6.71,1.37A48.36,48.36,0,0,1,122,355.32Z"/><path class="cls-52" d="M133.16,272.58a47.81,47.81,0,0,0-11.15-.21c-1.14.11-2.28.26-3.42.46a50.72,50.72,0,0,0-5,1.11V278a50.79,50.79,0,0,1,5-1.12c1.14-.2,2.28-.35,3.42-.46a47.81,47.81,0,0,1,11.15.21,51.53,51.53,0,0,1,6.71,1.37v-4.05A49.88,49.88,0,0,0,133.16,272.58Z"/><path class="cls-52" d="M133.16,279.19A47.81,47.81,0,0,0,122,279c-1.14.1-2.28.26-3.42.45a50.79,50.79,0,0,0-5,1.12v2.65c1.68-.46,3.37-.83,5-1.12q1.71-.29,3.42-.45a47.81,47.81,0,0,1,11.15.2,51.53,51.53,0,0,1,6.71,1.37v-2.65A51.53,51.53,0,0,0,133.16,279.19Z"/><path class="cls-51" d="M139.87,265.15V366.6a51.53,51.53,0,0,1-6.71,1.37V263.78A51.53,51.53,0,0,1,139.87,265.15Z"/><path class="cls-50" d="M122,263.58V368.17c-1.14-.1-2.28-.26-3.42-.45V264Q120.3,263.75,122,263.58Z"/><path class="cls-53" d="M167.1,261.88v5.63H144.4v-5.63c5.3-14.48,8.25-21.83,11.2-22S161.62,247,167.1,261.88Z"/><path class="cls-54" d="M167.1,267.51H144.4v-5.63a48.13,48.13,0,0,1,22.7,0Z"/><polygon class="cls-50" points="154.59 242.53 152.61 259.6 148.71 260.05 154.59 242.53"/><path class="cls-51" d="M167.1,261.88a50.09,50.09,0,0,0-6.11-1.06l-5.39-20.95C158.61,239.68,161.62,247,167.1,261.88Z"/><path class="cls-54" d="M144.4,364.07h22.7v4.49A1.42,1.42,0,0,1,166,370a48.11,48.11,0,0,1-20.48,0,1.42,1.42,0,0,1-1.11-1.39Z"/><path class="cls-53" d="M168.91,265.15V366.6a51,51,0,0,1-6.7,1.37,47.82,47.82,0,0,1-11.15.2c-1.14-.1-2.28-.26-3.42-.45q-2.52-.44-5.06-1.12V265.15q2.53-.69,5.06-1.12,1.71-.28,3.42-.45a47.82,47.82,0,0,1,11.15.2A51,51,0,0,1,168.91,265.15Z"/><path class="cls-52" d="M151.06,361.52c-1.14-.11-2.28-.26-3.42-.46a51.61,51.61,0,0,1-5.06-1.12v3.36q2.53.69,5.06,1.12c1.14.19,2.28.35,3.42.45a47.82,47.82,0,0,0,11.15-.2,51,51,0,0,0,6.7-1.37v-3.36a49.47,49.47,0,0,1-6.7,1.37A47.82,47.82,0,0,1,151.06,361.52Z"/><path class="cls-52" d="M151.06,355.32c-1.14-.11-2.28-.26-3.42-.46a51.61,51.61,0,0,1-5.06-1.12v4.4q2.53.69,5.06,1.12c1.14.19,2.28.35,3.42.45a47.82,47.82,0,0,0,11.15-.2,51,51,0,0,0,6.7-1.37v-4.4a49.47,49.47,0,0,1-6.7,1.37A48.37,48.37,0,0,1,151.06,355.32Z"/><path class="cls-52" d="M162.21,272.58a47.82,47.82,0,0,0-11.15-.21c-1.14.11-2.28.26-3.42.46a51.54,51.54,0,0,0-5.06,1.11V278a51.61,51.61,0,0,1,5.06-1.12c1.14-.2,2.28-.35,3.42-.46a47.82,47.82,0,0,1,11.15.21,51,51,0,0,1,6.7,1.37v-4.05A49.42,49.42,0,0,0,162.21,272.58Z"/><path class="cls-52" d="M162.21,279.19a47.82,47.82,0,0,0-11.15-.2c-1.14.1-2.28.26-3.42.45a51.61,51.61,0,0,0-5.06,1.12v2.65q2.53-.69,5.06-1.12,1.71-.29,3.42-.45a47.82,47.82,0,0,1,11.15.2,51,51,0,0,1,6.7,1.37v-2.65A51,51,0,0,0,162.21,279.19Z"/><path class="cls-51" d="M168.91,265.15V366.6a51,51,0,0,1-6.7,1.37V263.78A51,51,0,0,1,168.91,265.15Z"/><path class="cls-50" d="M151.06,263.58V368.17c-1.14-.1-2.28-.26-3.42-.45V264Q149.35,263.75,151.06,263.58Z"/><path class="cls-55" d="M196.15,261.88v5.63h-22.7v-5.63c5.29-14.48,8.25-21.83,11.2-22S190.66,247,196.15,261.88Z"/><path class="cls-56" d="M196.14,267.51H173.45v-5.63a48.09,48.09,0,0,1,22.69,0Z"/><polygon class="cls-50" points="183.64 242.53 181.66 259.6 177.76 260.05 183.64 242.53"/><path class="cls-51" d="M196.15,261.88a50.09,50.09,0,0,0-6.11-1.06l-5.39-20.95C187.66,239.68,190.66,247,196.15,261.88Z"/><path class="cls-56" d="M173.45,364.07h22.69v4.49A1.41,1.41,0,0,1,195,370a48.11,48.11,0,0,1-20.48,0,1.42,1.42,0,0,1-1.11-1.39Z"/><path class="cls-55" d="M198,265.15V366.6a51.38,51.38,0,0,1-6.7,1.37,47.83,47.83,0,0,1-11.15.2c-1.14-.1-2.28-.26-3.42-.45q-2.52-.44-5.06-1.12V265.15q2.53-.69,5.06-1.12,1.71-.28,3.42-.45a47.83,47.83,0,0,1,11.15.2A51.38,51.38,0,0,1,198,265.15Z"/><path class="cls-52" d="M180.11,361.52c-1.14-.11-2.28-.26-3.42-.46a51.61,51.61,0,0,1-5.06-1.12v3.36q2.53.69,5.06,1.12c1.14.19,2.28.35,3.42.45a47.83,47.83,0,0,0,11.15-.2,51.38,51.38,0,0,0,6.7-1.37v-3.36a49.78,49.78,0,0,1-6.7,1.37A47.83,47.83,0,0,1,180.11,361.52Z"/><path class="cls-52" d="M180.11,355.32c-1.14-.11-2.28-.26-3.42-.46a51.61,51.61,0,0,1-5.06-1.12v4.4q2.53.69,5.06,1.12c1.14.19,2.28.35,3.42.45a47.83,47.83,0,0,0,11.15-.2,51.38,51.38,0,0,0,6.7-1.37v-4.4a49.78,49.78,0,0,1-6.7,1.37A48.38,48.38,0,0,1,180.11,355.32Z"/><path class="cls-52" d="M191.26,272.58a47.83,47.83,0,0,0-11.15-.21c-1.14.11-2.28.26-3.42.46a51.54,51.54,0,0,0-5.06,1.11V278a51.61,51.61,0,0,1,5.06-1.12c1.14-.2,2.28-.35,3.42-.46a47.83,47.83,0,0,1,11.15.21A51.38,51.38,0,0,1,198,278v-4.05A49.74,49.74,0,0,0,191.26,272.58Z"/><path class="cls-52" d="M191.26,279.19a47.83,47.83,0,0,0-11.15-.2c-1.14.1-2.28.26-3.42.45a51.61,51.61,0,0,0-5.06,1.12v2.65q2.53-.69,5.06-1.12,1.71-.29,3.42-.45a47.83,47.83,0,0,1,11.15.2,51.38,51.38,0,0,1,6.7,1.37v-2.65A51.38,51.38,0,0,0,191.26,279.19Z"/><path class="cls-51" d="M198,265.15V366.6a51.38,51.38,0,0,1-6.7,1.37V263.78A51.38,51.38,0,0,1,198,265.15Z"/><path class="cls-50" d="M180.11,263.58V368.17c-1.14-.1-2.28-.26-3.42-.45V264Q178.4,263.75,180.11,263.58Z"/><path class="cls-57" d="M225.19,261.88v5.63H202.5v-5.63c5.29-14.48,8.25-21.83,11.19-22S219.71,247,225.19,261.88Z"/><path class="cls-58" d="M225.19,267.51H202.5v-5.63a48.09,48.09,0,0,1,22.69,0Z"/><polygon class="cls-50" points="212.69 242.53 210.71 259.6 206.81 260.05 212.69 242.53"/><path class="cls-51" d="M225.19,261.88a49.6,49.6,0,0,0-6.1-1.06l-5.4-20.95C216.71,239.68,219.71,247,225.19,261.88Z"/><path class="cls-58" d="M202.5,364.07h22.69v4.49a1.42,1.42,0,0,1-1.11,1.39,48.06,48.06,0,0,1-20.47,0,1.42,1.42,0,0,1-1.11-1.39Z"/><path class="cls-57" d="M227,265.15V366.6a51.38,51.38,0,0,1-6.7,1.37,47.9,47.9,0,0,1-11.16.2c-1.14-.1-2.28-.26-3.41-.45-1.69-.29-3.37-.66-5.06-1.12V265.15c1.69-.46,3.37-.83,5.06-1.12,1.13-.19,2.27-.34,3.41-.45a47.9,47.9,0,0,1,11.16.2A51.38,51.38,0,0,1,227,265.15Z"/><path class="cls-52" d="M209.15,361.52c-1.14-.11-2.28-.26-3.41-.46a51,51,0,0,1-5.06-1.12v3.36c1.69.46,3.37.83,5.06,1.12,1.13.19,2.27.35,3.41.45a47.9,47.9,0,0,0,11.16-.2,51.38,51.38,0,0,0,6.7-1.37v-3.36a49.78,49.78,0,0,1-6.7,1.37A47.91,47.91,0,0,1,209.15,361.52Z"/><path class="cls-52" d="M209.15,355.32c-1.14-.11-2.28-.26-3.41-.46a51,51,0,0,1-5.06-1.12v4.4c1.69.46,3.37.83,5.06,1.12,1.13.19,2.27.35,3.41.45a47.9,47.9,0,0,0,11.16-.2,51.38,51.38,0,0,0,6.7-1.37v-4.4a49.78,49.78,0,0,1-6.7,1.37A48.46,48.46,0,0,1,209.15,355.32Z"/><path class="cls-52" d="M220.31,272.58a47.91,47.91,0,0,0-11.16-.21c-1.14.11-2.28.26-3.41.46a50.91,50.91,0,0,0-5.06,1.11V278a51,51,0,0,1,5.06-1.12c1.13-.2,2.27-.35,3.41-.46a47.91,47.91,0,0,1,11.16.21A51.38,51.38,0,0,1,227,278v-4.05A49.74,49.74,0,0,0,220.31,272.58Z"/><path class="cls-52" d="M220.31,279.19a47.9,47.9,0,0,0-11.16-.2c-1.14.1-2.28.26-3.41.45a51,51,0,0,0-5.06,1.12v2.65c1.69-.46,3.37-.83,5.06-1.12,1.13-.19,2.27-.34,3.41-.45a47.9,47.9,0,0,1,11.16.2,51.38,51.38,0,0,1,6.7,1.37v-2.65A51.38,51.38,0,0,0,220.31,279.19Z"/><path class="cls-51" d="M227,265.15V366.6a51.38,51.38,0,0,1-6.7,1.37V263.78A51.38,51.38,0,0,1,227,265.15Z"/><path class="cls-50" d="M209.15,263.58V368.17c-1.14-.1-2.28-.26-3.41-.45V264C206.87,263.84,208,263.69,209.15,263.58Z"/><path class="cls-59" d="M253.72,261.88v5.63H231v-5.63c5.3-14.48,8.25-21.83,11.2-22S248.24,247,253.72,261.88Z"/><path class="cls-60" d="M253.72,267.51H231v-5.63a48.13,48.13,0,0,1,22.7,0Z"/><polygon class="cls-50" points="241.22 242.53 239.23 259.6 235.33 260.05 241.22 242.53"/><path class="cls-51" d="M253.72,261.88a50.26,50.26,0,0,0-6.1-1.06l-5.4-20.95C245.23,239.68,248.24,247,253.72,261.88Z"/><path class="cls-60" d="M231,364.07h22.7v4.49a1.42,1.42,0,0,1-1.11,1.39,48.11,48.11,0,0,1-20.48,0,1.42,1.42,0,0,1-1.11-1.39Z"/><path class="cls-59" d="M255.54,265.15V366.6a51.53,51.53,0,0,1-6.71,1.37,47.81,47.81,0,0,1-11.15.2c-1.14-.1-2.28-.26-3.42-.45-1.68-.29-3.37-.66-5-1.12V265.15c1.68-.46,3.37-.83,5-1.12q1.71-.28,3.42-.45a47.81,47.81,0,0,1,11.15.2A51.53,51.53,0,0,1,255.54,265.15Z"/><path class="cls-52" d="M237.68,361.52c-1.14-.11-2.28-.26-3.42-.46a50.79,50.79,0,0,1-5-1.12v3.36c1.68.46,3.37.83,5,1.12,1.14.19,2.28.35,3.42.45a47.81,47.81,0,0,0,11.15-.2,51.53,51.53,0,0,0,6.71-1.37v-3.36a49.92,49.92,0,0,1-6.71,1.37A47.81,47.81,0,0,1,237.68,361.52Z"/><path class="cls-52" d="M237.68,355.32c-1.14-.11-2.28-.26-3.42-.46a50.79,50.79,0,0,1-5-1.12v4.4c1.68.46,3.37.83,5,1.12,1.14.19,2.28.35,3.42.45a47.81,47.81,0,0,0,11.15-.2,51.53,51.53,0,0,0,6.71-1.37v-4.4a49.92,49.92,0,0,1-6.71,1.37A48.36,48.36,0,0,1,237.68,355.32Z"/><path class="cls-52" d="M248.83,272.58a47.81,47.81,0,0,0-11.15-.21c-1.14.11-2.28.26-3.42.46a50.72,50.72,0,0,0-5,1.11V278a50.79,50.79,0,0,1,5-1.12c1.14-.2,2.28-.35,3.42-.46a47.81,47.81,0,0,1,11.15.21,51.53,51.53,0,0,1,6.71,1.37v-4.05A49.88,49.88,0,0,0,248.83,272.58Z"/><path class="cls-52" d="M248.83,279.19a47.81,47.81,0,0,0-11.15-.2c-1.14.1-2.28.26-3.42.45a50.79,50.79,0,0,0-5,1.12v2.65c1.68-.46,3.37-.83,5-1.12q1.71-.29,3.42-.45a47.81,47.81,0,0,1,11.15.2,51.53,51.53,0,0,1,6.71,1.37v-2.65A51.53,51.53,0,0,0,248.83,279.19Z"/><path class="cls-51" d="M255.54,265.15V366.6a51.53,51.53,0,0,1-6.71,1.37V263.78A51.53,51.53,0,0,1,255.54,265.15Z"/><path class="cls-50" d="M237.68,263.58V368.17c-1.14-.1-2.28-.26-3.42-.45V264Q236,263.75,237.68,263.58Z"/><path class="cls-61" d="M282,261.93v5.62H259.34v-5.62c5.29-14.49,8.25-21.84,11.19-22S276.55,247.06,282,261.93Z"/><path class="cls-51" d="M282,267.55H259.34v-5.62a48.09,48.09,0,0,1,22.69,0Z"/><polygon class="cls-50" points="269.53 242.57 267.55 259.64 263.64 260.09 269.53 242.57"/><path class="cls-51" d="M282,261.93a48.12,48.12,0,0,0-6.1-1.07l-5.4-20.94C273.54,239.73,276.55,247.06,282,261.93Z"/><path class="cls-49" d="M259.34,364.12H282v4.48a1.41,1.41,0,0,1-1.11,1.39,47.74,47.74,0,0,1-20.47,0,1.41,1.41,0,0,1-1.11-1.39Z"/><path class="cls-61" d="M283.85,265.2V366.64a50.1,50.1,0,0,1-6.7,1.37,48.46,48.46,0,0,1-11.16.21c-1.14-.11-2.28-.26-3.41-.46a50.35,50.35,0,0,1-5.06-1.12V265.2a47.74,47.74,0,0,1,5.06-1.12c1.13-.2,2.27-.35,3.41-.46a47.91,47.91,0,0,1,11.16.21A50.1,50.1,0,0,1,283.85,265.2Z"/><path class="cls-52" d="M266,361.57c-1.14-.11-2.28-.27-3.41-.46a50.35,50.35,0,0,1-5.06-1.12v3.35a50.35,50.35,0,0,0,5.06,1.12c1.13.2,2.27.35,3.41.46a48.46,48.46,0,0,0,11.16-.21,50.1,50.1,0,0,0,6.7-1.37V360a51.72,51.72,0,0,1-6.7,1.37A48.46,48.46,0,0,1,266,361.57Z"/><path class="cls-52" d="M266,355.36c-1.14-.11-2.28-.26-3.41-.45q-2.54-.44-5.06-1.12v4.39a50.35,50.35,0,0,0,5.06,1.12c1.13.2,2.27.35,3.41.46a48.46,48.46,0,0,0,11.16-.21,50.1,50.1,0,0,0,6.7-1.37v-4.39a51.72,51.72,0,0,1-6.7,1.37A47.9,47.9,0,0,1,266,355.36Z"/><path class="cls-52" d="M277.15,272.62a47.9,47.9,0,0,0-11.16-.2c-1.14.1-2.28.26-3.41.45q-2.54.44-5.06,1.12v4q2.52-.69,5.06-1.12c1.13-.19,2.27-.34,3.41-.45a47.9,47.9,0,0,1,11.16.2,51.72,51.72,0,0,1,6.7,1.37v-4A51.72,51.72,0,0,0,277.15,272.62Z"/><path class="cls-52" d="M277.15,279.24A47.91,47.91,0,0,0,266,279c-1.14.11-2.28.26-3.41.46a50.3,50.3,0,0,0-5.06,1.11v2.66a47.74,47.74,0,0,1,5.06-1.12c1.13-.2,2.27-.35,3.41-.46a47.91,47.91,0,0,1,11.16.21,51.72,51.72,0,0,1,6.7,1.37V280.6A50.05,50.05,0,0,0,277.15,279.24Z"/><path class="cls-51" d="M283.85,265.2V366.64a50.1,50.1,0,0,1-6.7,1.37V263.83A50.1,50.1,0,0,1,283.85,265.2Z"/><path class="cls-50" d="M266,263.62v104.6c-1.14-.11-2.28-.26-3.41-.46V264.08C263.71,263.88,264.85,263.73,266,263.62Z"/><path class="cls-62" d="M311.08,261.93v5.62h-22.7v-5.62c5.3-14.49,8.25-21.84,11.2-22S305.6,247.06,311.08,261.93Z"/><path class="cls-51" d="M311.08,267.55h-22.7v-5.62a48.13,48.13,0,0,1,22.7,0Z"/><polygon class="cls-50" points="298.58 242.57 296.59 259.64 292.69 260.09 298.58 242.57"/><path class="cls-51" d="M311.08,261.93a48.44,48.44,0,0,0-6.1-1.07l-5.4-20.94C302.59,239.73,305.6,247.06,311.08,261.93Z"/><path class="cls-54" d="M288.38,364.12h22.7v4.48A1.41,1.41,0,0,1,310,370a47.79,47.79,0,0,1-20.48,0,1.41,1.41,0,0,1-1.11-1.39Z"/><path class="cls-62" d="M312.9,265.2V366.64a50.1,50.1,0,0,1-6.7,1.37,48.46,48.46,0,0,1-11.16.21c-1.14-.11-2.28-.26-3.41-.46a50.35,50.35,0,0,1-5.06-1.12V265.2a47.74,47.74,0,0,1,5.06-1.12c1.13-.2,2.27-.35,3.41-.46a47.91,47.91,0,0,1,11.16.21A50.1,50.1,0,0,1,312.9,265.2Z"/><path class="cls-52" d="M295,361.57c-1.14-.11-2.28-.27-3.41-.46a50.35,50.35,0,0,1-5.06-1.12v3.35a50.35,50.35,0,0,0,5.06,1.12c1.13.2,2.27.35,3.41.46a48.46,48.46,0,0,0,11.16-.21,50.1,50.1,0,0,0,6.7-1.37V360a51.72,51.72,0,0,1-6.7,1.37A48.46,48.46,0,0,1,295,361.57Z"/><path class="cls-52" d="M295,355.36c-1.14-.11-2.28-.26-3.41-.45q-2.53-.44-5.06-1.12v4.39a50.35,50.35,0,0,0,5.06,1.12c1.13.2,2.27.35,3.41.46a48.46,48.46,0,0,0,11.16-.21,50.1,50.1,0,0,0,6.7-1.37v-4.39a51.72,51.72,0,0,1-6.7,1.37A47.9,47.9,0,0,1,295,355.36Z"/><path class="cls-52" d="M306.2,272.62a47.9,47.9,0,0,0-11.16-.2c-1.14.1-2.28.26-3.41.45q-2.53.44-5.06,1.12v4q2.52-.69,5.06-1.12c1.13-.19,2.27-.34,3.41-.45a47.9,47.9,0,0,1,11.16.2,51.72,51.72,0,0,1,6.7,1.37v-4A51.72,51.72,0,0,0,306.2,272.62Z"/><path class="cls-52" d="M306.2,279.24A47.91,47.91,0,0,0,295,279c-1.14.11-2.28.26-3.41.46a50.3,50.3,0,0,0-5.06,1.11v2.66a47.74,47.74,0,0,1,5.06-1.12c1.13-.2,2.27-.35,3.41-.46a47.91,47.91,0,0,1,11.16.21,51.72,51.72,0,0,1,6.7,1.37V280.6A50.05,50.05,0,0,0,306.2,279.24Z"/><path class="cls-51" d="M312.9,265.2V366.64a50.1,50.1,0,0,1-6.7,1.37V263.83A50.1,50.1,0,0,1,312.9,265.2Z"/><path class="cls-50" d="M295,263.62v104.6c-1.14-.11-2.28-.26-3.41-.46V264.08C292.76,263.88,293.9,263.73,295,263.62Z"/><path class="cls-63" d="M340.13,261.93v5.62h-22.7v-5.62c5.3-14.49,8.25-21.84,11.2-22S334.65,247.06,340.13,261.93Z"/><path class="cls-51" d="M340.13,267.55h-22.7v-5.62a48.13,48.13,0,0,1,22.7,0Z"/><polygon class="cls-50" points="327.63 242.57 325.64 259.64 321.74 260.09 327.63 242.57"/><path class="cls-51" d="M340.13,261.93a48.27,48.27,0,0,0-6.11-1.07l-5.39-20.94C331.64,239.73,334.65,247.06,340.13,261.93Z"/><path class="cls-56" d="M317.43,364.12h22.7v4.48A1.41,1.41,0,0,1,339,370a47.79,47.79,0,0,1-20.48,0,1.41,1.41,0,0,1-1.11-1.39Z"/><path class="cls-63" d="M341.94,265.2V366.64a49.47,49.47,0,0,1-6.7,1.37,48.36,48.36,0,0,1-11.15.21c-1.14-.11-2.28-.26-3.42-.46a50.79,50.79,0,0,1-5.05-1.12V265.2a48.12,48.12,0,0,1,5.05-1.12c1.14-.2,2.28-.35,3.42-.46a47.81,47.81,0,0,1,11.15.21A49.47,49.47,0,0,1,341.94,265.2Z"/><path class="cls-52" d="M324.09,361.57c-1.14-.11-2.28-.27-3.42-.46a50.79,50.79,0,0,1-5.05-1.12v3.35a50.79,50.79,0,0,0,5.05,1.12c1.14.2,2.28.35,3.42.46a48.36,48.36,0,0,0,11.15-.21,49.47,49.47,0,0,0,6.7-1.37V360a51,51,0,0,1-6.7,1.37A48.36,48.36,0,0,1,324.09,361.57Z"/><path class="cls-52" d="M324.09,355.36q-1.71-.17-3.42-.45c-1.68-.29-3.37-.66-5.05-1.12v4.39a50.79,50.79,0,0,0,5.05,1.12c1.14.2,2.28.35,3.42.46a48.36,48.36,0,0,0,11.15-.21,49.47,49.47,0,0,0,6.7-1.37v-4.39a51,51,0,0,1-6.7,1.37A47.81,47.81,0,0,1,324.09,355.36Z"/><path class="cls-52" d="M335.24,272.62a47.81,47.81,0,0,0-11.15-.2c-1.14.1-2.28.26-3.42.45-1.68.29-3.37.66-5.05,1.12v4c1.68-.46,3.37-.83,5.05-1.12q1.71-.29,3.42-.45a47.81,47.81,0,0,1,11.15.2,51,51,0,0,1,6.7,1.37v-4A51,51,0,0,0,335.24,272.62Z"/><path class="cls-52" d="M335.24,279.24a47.81,47.81,0,0,0-11.15-.21c-1.14.11-2.28.26-3.42.46a50.72,50.72,0,0,0-5.05,1.11v2.66a48.12,48.12,0,0,1,5.05-1.12c1.14-.2,2.28-.35,3.42-.46a47.81,47.81,0,0,1,11.15.21,51,51,0,0,1,6.7,1.37V280.6A49.42,49.42,0,0,0,335.24,279.24Z"/><path class="cls-51" d="M341.94,265.2V366.64a49.47,49.47,0,0,1-6.7,1.37V263.83A49.47,49.47,0,0,1,341.94,265.2Z"/><path class="cls-50" d="M324.09,263.62v104.6c-1.14-.11-2.28-.26-3.42-.46V264.08C321.81,263.88,323,263.73,324.09,263.62Z"/><path class="cls-64" d="M369.18,261.93v5.62h-22.7v-5.62c5.29-14.49,8.25-21.84,11.2-22S363.69,247.06,369.18,261.93Z"/><path class="cls-51" d="M369.18,267.55h-22.7v-5.62a48.13,48.13,0,0,1,22.7,0Z"/><polygon class="cls-50" points="356.67 242.57 354.69 259.64 350.79 260.09 356.67 242.57"/><path class="cls-51" d="M369.18,261.93a48.27,48.27,0,0,0-6.11-1.07l-5.39-20.94C360.69,239.73,363.69,247.06,369.18,261.93Z"/><path class="cls-58" d="M346.48,364.12h22.7v4.48a1.41,1.41,0,0,1-1.11,1.39,47.79,47.79,0,0,1-20.48,0,1.41,1.41,0,0,1-1.11-1.39Z"/><path class="cls-64" d="M371,265.2V366.64a49.47,49.47,0,0,1-6.7,1.37,48.38,48.38,0,0,1-11.15.21c-1.14-.11-2.28-.26-3.42-.46a51.61,51.61,0,0,1-5.06-1.12V265.2a48.86,48.86,0,0,1,5.06-1.12c1.14-.2,2.28-.35,3.42-.46a47.83,47.83,0,0,1,11.15.21A49.47,49.47,0,0,1,371,265.2Z"/><path class="cls-52" d="M353.14,361.57c-1.14-.11-2.28-.27-3.42-.46a51.61,51.61,0,0,1-5.06-1.12v3.35a51.61,51.61,0,0,0,5.06,1.12c1.14.2,2.28.35,3.42.46a48.38,48.38,0,0,0,11.15-.21,49.47,49.47,0,0,0,6.7-1.37V360a51,51,0,0,1-6.7,1.37A48.38,48.38,0,0,1,353.14,361.57Z"/><path class="cls-52" d="M353.14,355.36q-1.71-.17-3.42-.45-2.52-.44-5.06-1.12v4.39a51.61,51.61,0,0,0,5.06,1.12c1.14.2,2.28.35,3.42.46a48.38,48.38,0,0,0,11.15-.21,49.47,49.47,0,0,0,6.7-1.37v-4.39a51,51,0,0,1-6.7,1.37A47.83,47.83,0,0,1,353.14,355.36Z"/><path class="cls-52" d="M364.29,272.62a47.83,47.83,0,0,0-11.15-.2c-1.14.1-2.28.26-3.42.45q-2.52.44-5.06,1.12v4q2.54-.69,5.06-1.12,1.71-.29,3.42-.45a47.83,47.83,0,0,1,11.15.2A51,51,0,0,1,371,278v-4A51,51,0,0,0,364.29,272.62Z"/><path class="cls-52" d="M364.29,279.24a47.83,47.83,0,0,0-11.15-.21c-1.14.11-2.28.26-3.42.46a51.54,51.54,0,0,0-5.06,1.11v2.66a48.86,48.86,0,0,1,5.06-1.12c1.14-.2,2.28-.35,3.42-.46a47.83,47.83,0,0,1,11.15.21,51,51,0,0,1,6.7,1.37V280.6A49.42,49.42,0,0,0,364.29,279.24Z"/><path class="cls-51" d="M371,265.2V366.64a49.47,49.47,0,0,1-6.7,1.37V263.83A49.47,49.47,0,0,1,371,265.2Z"/><path class="cls-50" d="M353.14,263.62v104.6c-1.14-.11-2.28-.26-3.42-.46V264.08C350.86,263.88,352,263.73,353.14,263.62Z"/><path class="cls-59" d="M397.7,261.93v5.62H375v-5.62c5.29-14.49,8.25-21.84,11.19-22S392.22,247.06,397.7,261.93Z"/><path class="cls-60" d="M397.7,267.55H375v-5.62a48.09,48.09,0,0,1,22.69,0Z"/><polygon class="cls-50" points="385.2 242.57 383.22 259.64 379.32 260.09 385.2 242.57"/><path class="cls-51" d="M397.7,261.93a48.12,48.12,0,0,0-6.1-1.07l-5.4-20.94C389.21,239.73,392.22,247.06,397.7,261.93Z"/><path class="cls-60" d="M375,364.12H397.7v4.48a1.41,1.41,0,0,1-1.11,1.39,47.74,47.74,0,0,1-20.47,0A1.41,1.41,0,0,1,375,368.6Z"/><path class="cls-59" d="M399.52,265.2V366.64a50.1,50.1,0,0,1-6.7,1.37,48.46,48.46,0,0,1-11.16.21c-1.14-.11-2.28-.26-3.41-.46a50.35,50.35,0,0,1-5.06-1.12V265.2a47.74,47.74,0,0,1,5.06-1.12c1.13-.2,2.27-.35,3.41-.46a47.91,47.91,0,0,1,11.16.21A50.1,50.1,0,0,1,399.52,265.2Z"/><path class="cls-52" d="M381.66,361.57c-1.14-.11-2.28-.27-3.41-.46a50.35,50.35,0,0,1-5.06-1.12v3.35a50.35,50.35,0,0,0,5.06,1.12c1.13.2,2.27.35,3.41.46a48.46,48.46,0,0,0,11.16-.21,50.1,50.1,0,0,0,6.7-1.37V360a51.72,51.72,0,0,1-6.7,1.37A48.46,48.46,0,0,1,381.66,361.57Z"/><path class="cls-52" d="M381.66,355.36c-1.14-.11-2.28-.26-3.41-.45q-2.53-.44-5.06-1.12v4.39a50.35,50.35,0,0,0,5.06,1.12c1.13.2,2.27.35,3.41.46a48.46,48.46,0,0,0,11.16-.21,50.1,50.1,0,0,0,6.7-1.37v-4.39a51.72,51.72,0,0,1-6.7,1.37A47.9,47.9,0,0,1,381.66,355.36Z"/><path class="cls-52" d="M392.82,272.62a47.9,47.9,0,0,0-11.16-.2c-1.14.1-2.28.26-3.41.45q-2.53.44-5.06,1.12v4q2.52-.69,5.06-1.12c1.13-.19,2.27-.34,3.41-.45a47.9,47.9,0,0,1,11.16.2,51.72,51.72,0,0,1,6.7,1.37v-4A51.72,51.72,0,0,0,392.82,272.62Z"/><path class="cls-52" d="M392.82,279.24a47.91,47.91,0,0,0-11.16-.21c-1.14.11-2.28.26-3.41.46a50.3,50.3,0,0,0-5.06,1.11v2.66a47.74,47.74,0,0,1,5.06-1.12c1.13-.2,2.27-.35,3.41-.46a47.91,47.91,0,0,1,11.16.21,51.72,51.72,0,0,1,6.7,1.37V280.6A50.05,50.05,0,0,0,392.82,279.24Z"/><path class="cls-51" d="M399.52,265.2V366.64a50.1,50.1,0,0,1-6.7,1.37V263.83A50.1,50.1,0,0,1,399.52,265.2Z"/><path class="cls-50" d="M381.66,263.62v104.6c-1.14-.11-2.28-.26-3.41-.46V264.08C379.38,263.88,380.52,263.73,381.66,263.62Z"/></svg>