<svg xmlns="http://www.w3.org/2000/svg" xmlns:xlink="http://www.w3.org/1999/xlink" viewBox="0 0 512 400"><defs><style>.cls-1{mask:url(#mask);}.cls-18,.cls-2,.cls-22,.cls-4,.cls-6,.cls-8{mix-blend-mode:multiply;}.cls-2{fill:url(#radial-gradient);}.cls-3{mask:url(#mask-2);}.cls-4{fill:url(#radial-gradient-2);}.cls-5{mask:url(#mask-3);}.cls-6{fill:url(#linear-gradient);}.cls-7{mask:url(#mask-4);}.cls-8{fill:url(#linear-gradient-2);}.cls-9{fill:url(#linear-gradient-3);}.cls-10{isolation:isolate;}.cls-11{opacity:0.3;}.cls-12{fill:#966f4e;}.cls-13{clip-path:url(#clip-path);}.cls-14{fill:url(#linear-gradient-5);}.cls-15{mask:url(#mask-5);}.cls-16{mix-blend-mode:color-dodge;fill:url(#radial-gradient-3);}.cls-17{mask:url(#mask-6);}.cls-18{fill:url(#radial-gradient-4);}.cls-19{mask:url(#mask-7);}.cls-20{mix-blend-mode:color;fill:url(#linear-gradient-6);}.cls-21{mask:url(#mask-8);}.cls-22{fill:url(#linear-gradient-7);}.cls-23{filter:url(#luminosity-noclip-4);}.cls-24{filter:url(#luminosity-noclip-3);}.cls-25{filter:url(#luminosity-noclip-2);}.cls-26{filter:url(#luminosity-noclip);}</style><filter id="luminosity-noclip" x="163.82" y="-6911" width="156.52" height="32766" filterUnits="userSpaceOnUse" color-interpolation-filters="sRGB"><feFlood flood-color="#fff" result="bg"/><feBlend in="SourceGraphic" in2="bg"/></filter><mask id="mask" x="163.82" y="-6911" width="156.52" height="32766" maskUnits="userSpaceOnUse"><g class="cls-26"/></mask><radialGradient id="radial-gradient" cx="-2253.89" cy="2125.58" r="181.96" gradientTransform="matrix(-0.99, 0.15, 0.15, 0.99, -2260.21, -1723.43)" gradientUnits="userSpaceOnUse"><stop offset="0" stop-color="gray"/><stop offset="0.06" stop-color="#696969"/><stop offset="0.19" stop-color="#434343"/><stop offset="0.31" stop-color="#262626"/><stop offset="0.43" stop-color="#111"/><stop offset="0.54" stop-color="#040404"/><stop offset="0.65"/></radialGradient><filter id="luminosity-noclip-2" x="131.44" y="-6911" width="266.8" height="32766" filterUnits="userSpaceOnUse" color-interpolation-filters="sRGB"><feFlood flood-color="#fff" result="bg"/><feBlend in="SourceGraphic" in2="bg"/></filter><mask id="mask-2" x="131.44" y="-6911" width="266.8" height="32766" maskUnits="userSpaceOnUse"><g class="cls-25"/></mask><radialGradient id="radial-gradient-2" cx="-630.65" cy="2384.41" r="408.97" gradientTransform="matrix(-0.81, 0.59, 0.59, 0.81, -1424.35, -1519)" gradientUnits="userSpaceOnUse"><stop offset="0.64"/><stop offset="0.67" stop-color="#3b3b3b"/><stop offset="0.71" stop-color="#767676"/><stop offset="0.75" stop-color="#a7a7a7"/><stop offset="0.78" stop-color="#cdcdcd"/><stop offset="0.81" stop-color="#e9e9e9"/><stop offset="0.84" stop-color="#f9f9f9"/><stop offset="0.86" stop-color="#fff"/></radialGradient><filter id="luminosity-noclip-3" x="140.97" y="-6911" width="227.47" height="32766" filterUnits="userSpaceOnUse" color-interpolation-filters="sRGB"><feFlood flood-color="#fff" result="bg"/><feBlend in="SourceGraphic" in2="bg"/></filter><mask id="mask-3" x="140.97" y="-6911" width="227.47" height="32766" maskUnits="userSpaceOnUse"><g class="cls-24"/></mask><linearGradient id="linear-gradient" x1="-2445.54" y1="2390.29" x2="-2416.44" y2="2178.88" gradientTransform="matrix(-1, 0.08, 0.08, 1, -2356.9, -1778.12)" gradientUnits="userSpaceOnUse"><stop offset="0" stop-color="#fff"/><stop offset="0.12" stop-color="#fbfbfb"/><stop offset="0.25" stop-color="#efefef"/><stop offset="0.38" stop-color="#dbdbdb"/><stop offset="0.5" stop-color="#bebebe"/><stop offset="0.63" stop-color="#9a9a9a"/><stop offset="0.76" stop-color="#6d6d6d"/><stop offset="0.88" stop-color="#393939"/><stop offset="1"/></linearGradient><filter id="luminosity-noclip-4" x="237.11" y="-6911" width="40.48" height="32766" filterUnits="userSpaceOnUse" color-interpolation-filters="sRGB"><feFlood flood-color="#fff" result="bg"/><feBlend in="SourceGraphic" in2="bg"/></filter><mask id="mask-4" x="237.11" y="-6911" width="40.48" height="32766" maskUnits="userSpaceOnUse"><g class="cls-23"/></mask><linearGradient id="linear-gradient-2" x1="-484.25" y1="2405.3" x2="-386.87" y2="2427.77" gradientTransform="translate(-15.33 -2219.66) rotate(-16.65)" gradientUnits="userSpaceOnUse"><stop offset="0.33"/><stop offset="0.35" stop-color="#141414"/><stop offset="0.39" stop-color="#515151"/><stop offset="0.43" stop-color="#868686"/><stop offset="0.47" stop-color="#b2b2b2"/><stop offset="0.51" stop-color="#d3d3d3"/><stop offset="0.55" stop-color="#ebebeb"/><stop offset="0.58" stop-color="#fafafa"/><stop offset="0.61" stop-color="#fff"/></linearGradient><linearGradient id="linear-gradient-3" x1="-2141.92" y1="2323.07" x2="-2298.93" y2="2107.33" gradientTransform="matrix(-0.99, 0.15, 0.15, 0.99, -2260.21, -1723.43)" gradientUnits="userSpaceOnUse"><stop offset="0.01" stop-color="#7cb3ff"/><stop offset="0.05" stop-color="#85b3f9"/><stop offset="0.22" stop-color="#a4b1e2"/><stop offset="0.35" stop-color="#b7b0d4"/><stop offset="0.45" stop-color="#beb0cf"/><stop offset="0.74" stop-color="#ece0d3"/><stop offset="0.89" stop-color="#fff3d4"/></linearGradient><clipPath id="clip-path"><path class="cls-9" d="M187.15,88.55c17.37,41.83,27.75,97.71,37,144.08,3.09,3.59,6.49,7,9.82,10.25,7.73,7.65,15.73,16.19,18.54,26.47-4.52-8-12.18-13.88-19.33-19.76-2.31-1.89-4.64-3.91-6.84-6,3.31,16.21,6.48,30.89,9.88,43,5.41,4.76,11.71,8.43,17.17,13.12a35.31,35.31,0,0,1,9.14,11.57c-2.12-3.32-5.82-5.74-9.34-7.58-4.35-2.3-9.08-3.79-13.38-6.12,7,14.82,22.83,14.68,27.55,36.49,9.71-80.84,1.81-158.61-27.6-247.85a550.72,550.72,0,0,1,38.68,248.46c.89-5,4.74-9.5,8.78-12.68,4.77-3.76,10.36-6.29,15.18-9.94a35.66,35.66,0,0,0,4.85-4.37,49.85,49.85,0,0,1-9.09,2.84c-3.49.78-7.27,1.42-10.38,3a32,32,0,0,1,9.35-8c5.24-3.13,11-5.37,16.15-8.65.61-.39,1.22-.79,1.8-1.23a68.41,68.41,0,0,0,4.68-16.27,29,29,0,0,1-9.86,8.51c-4.25,2.19-9,3.33-13.41,5.17a26.15,26.15,0,0,0-7,4.14,20,20,0,0,1,5.27-7.08c3.79-3.35,8.39-5.68,12.49-8.64a47.85,47.85,0,0,0,14.19-16.3v0c.25-2.89.4-5.79.53-8.66a296.94,296.94,0,0,0-3.83-62.16,37.57,37.57,0,0,1-1.71,4c-3.6,7.36-8.83,13.74-13.42,20.49-3.46,5.14-6.61,10.66-8.24,16.57A61.53,61.53,0,0,1,300,210.88c3.55-7.93,8.76-15,12.52-22.86a49.72,49.72,0,0,0,3-7.81v0c-2.88-14.65-6.57-29.14-10.77-43.44-9.3-31.67-21.33-63.32-42.29-88.83-13.66-16.61-31.68-30.37-51.72-37.72a16.82,16.82,0,0,0-21.66,10.68C181.11,45.18,180.9,73.45,187.15,88.55Z"/></clipPath><linearGradient id="linear-gradient-5" x1="-2275.82" y1="2208.17" x2="-2135.75" y2="2068.09" gradientTransform="matrix(-0.99, 0.15, 0.15, 0.99, -2260.21, -1723.43)" gradientUnits="userSpaceOnUse"><stop offset="0.23" stop-color="#d8ecf4"/><stop offset="0.57" stop-color="#d7dff7"/><stop offset="1" stop-color="#d7d2f9"/></linearGradient><mask id="mask-5" x="163.82" y="-18.27" width="156.52" height="257.29" maskUnits="userSpaceOnUse"><g class="cls-1"><path class="cls-2" d="M254.15,239c-77.33-3.32-96-97.9-88.94-159.61,1.53-13.39,4.11-27.2,8.93-39.84,10-26.15,30.9-58.8,62.62-57.76,37.48,1.23,55.37,46.09,67,75.5,15.45,38.91,19.14,80.54,14.92,122-3.26,32.06-24.11,57.36-57.92,59.66A59,59,0,0,1,254.15,239Z"/></g></mask><radialGradient id="radial-gradient-3" cx="-2253.89" cy="2125.58" r="181.96" gradientTransform="matrix(-0.99, 0.15, 0.15, 0.99, -2260.21, -1723.43)" gradientUnits="userSpaceOnUse"><stop offset="0" stop-color="#fd7ba4"/><stop offset="0.07" stop-color="#fd96b7"/><stop offset="0.19" stop-color="#febcd1"/><stop offset="0.31" stop-color="#fed9e5"/><stop offset="0.43" stop-color="#ffeef3"/><stop offset="0.55" stop-color="#fffbfc"/><stop offset="0.65" stop-color="#fff"/></radialGradient><mask id="mask-6" x="131.44" y="-43.65" width="266.8" height="397.87" maskUnits="userSpaceOnUse"><g class="cls-3"><path class="cls-4" d="M260.3,146.87C289,203.77,332.62,251.41,380.63,292.7c8.34,7.16,17.52,15.62,17.61,26.61.21,26.48-41.54,32.93-60.75,34.44-98.3,7.74-170.38-80.3-193-167.6C133,141.73,126,92.24,136.85,47c6.86-28.64,22.47-58.34,46.51-76.16,10.78-8,28.89-17.09,42.88-13.76,16.79,4,10,22.75,7.95,34.68C224.44,47.08,236.31,99.35,260.3,146.87Z"/></g></mask><radialGradient id="radial-gradient-4" cx="-630.65" cy="2384.41" r="408.97" gradientTransform="matrix(-0.81, 0.59, 0.59, 0.81, -1424.35, -1519)" gradientUnits="userSpaceOnUse"><stop offset="0.64" stop-color="#fff"/><stop offset="0.69" stop-color="#fed2e0"/><stop offset="0.74" stop-color="#feadc6"/><stop offset="0.79" stop-color="#fd91b3"/><stop offset="0.83" stop-color="#fd81a8"/><stop offset="0.86" stop-color="#fd7ba4"/></radialGradient><mask id="mask-7" x="140.97" y="185.36" width="227.47" height="210.06" maskUnits="userSpaceOnUse"><g class="cls-5"><path class="cls-6" d="M251.24,185.37c-45.21.49-90.71,14.65-106.07,61.42C132,287,151.38,330.46,182.27,356.86c21.64,18.49,48.79,29.78,76.69,35.4,23.7,4.76,50.51,5.34,72.24-6.75,20.88-11.61,32.35-34.63,35.76-57.6,4.25-28.62-.91-58.14-11.89-84.73-10.69-25.89-23.43-47.92-52.87-53.25A273.44,273.44,0,0,0,251.24,185.37Z"/></g></mask><linearGradient id="linear-gradient-6" x1="-2445.54" y1="2390.29" x2="-2416.44" y2="2178.88" gradientTransform="matrix(-1, 0.08, 0.08, 1, -2356.9, -1778.12)" gradientUnits="userSpaceOnUse"><stop offset="0" stop-color="#00a1ac"/><stop offset="0.12" stop-color="#04a2ad"/><stop offset="0.25" stop-color="#10a7b1"/><stop offset="0.38" stop-color="#24aeb8"/><stop offset="0.5" stop-color="#41b9c1"/><stop offset="0.63" stop-color="#65c6cd"/><stop offset="0.76" stop-color="#92d7db"/><stop offset="0.88" stop-color="#c6eaec"/><stop offset="1" stop-color="#fff"/></linearGradient><mask id="mask-8" x="237.11" y="88.19" width="40.48" height="266.26" maskUnits="userSpaceOnUse"><g class="cls-7"><path class="cls-8" d="M255.66,353.2c-5.76,2.47-12.22,1.52-14.29-4.92-2-6.22-.47-13.91-.4-20.35.89-72.33-8.92-156.44-.27-235.48.2-1.86-1.61-2.8-.52-4.26,17.17,49.08,33.57,109.14,37.38,223.35C278.14,329.12,271.68,346.34,255.66,353.2Z"/></g></mask><linearGradient id="linear-gradient-7" x1="-484.25" y1="2405.3" x2="-386.87" y2="2427.77" gradientTransform="translate(-15.33 -2219.66) rotate(-16.65)" gradientUnits="userSpaceOnUse"><stop offset="0.33" stop-color="#fff"/><stop offset="0.38" stop-color="#e7e3fc"/><stop offset="0.44" stop-color="#ccc2f9"/><stop offset="0.51" stop-color="#b7aaf7"/><stop offset="0.57" stop-color="#ab9bf5"/><stop offset="0.61" stop-color="#a796f5"/></linearGradient></defs><g class="cls-10"><g id="Layer_1" data-name="Layer 1"><path class="cls-11" d="M325.09,194.27a37.57,37.57,0,0,1-1.71,4c-3.6,7.36-8.83,13.74-13.42,20.49-3.46,5.14-6.61,10.66-8.24,16.57A61.53,61.53,0,0,1,307,210.88c3.55-7.93,8.76-15,12.52-22.86a49.72,49.72,0,0,0,3-7.81v0c-2.88-14.65-6.57-29.14-10.77-43.44-9.3-31.67-21.33-63.32-42.29-88.83-13.66-16.61-31.68-30.37-51.72-37.72a16.82,16.82,0,0,0-21.66,10.68c-8,24.3-8.22,52.57-2,67.67,17.37,41.83,27.75,97.71,37,144.08,3.09,3.59,6.49,7,9.82,10.25,7.73,7.65,15.73,16.19,18.54,26.47-4.52-8-12.18-13.88-19.33-19.76-2.31-1.89-4.64-3.91-6.84-6,3.31,16.21,6.48,30.89,9.88,43,5.41,4.76,11.71,8.43,17.17,13.12a35.31,35.31,0,0,1,9.14,11.57c-2.12-3.32-5.82-5.74-9.34-7.58-4.35-2.3-9.08-3.79-13.38-6.12,7,14.82,22.83,14.68,27.55,36.49v0q-2.61,22-7,44.38a3.45,3.45,0,0,0,.47,2.41c1.61,2.61,3.13,5.3,4.5,8.06a3.41,3.41,0,0,0,6.41-.94q4.47-25.38,6.49-51.09c.09-.74.12-1.5.19-2.24.89-5,4.74-9.5,8.78-12.68,4.77-3.76,10.36-6.29,15.18-9.94a35.66,35.66,0,0,0,4.85-4.37,49.85,49.85,0,0,1-9.09,2.84c-3.49.78-7.27,1.42-10.38,3a32,32,0,0,1,9.35-8c5.24-3.13,11-5.37,16.15-8.65.61-.39,1.22-.79,1.8-1.23a68.41,68.41,0,0,0,4.68-16.27,29,29,0,0,1-9.86,8.51c-4.25,2.19-9,3.33-13.41,5.17a26.15,26.15,0,0,0-7,4.14,20,20,0,0,1,5.27-7.08c3.79-3.35,8.39-5.68,12.49-8.64a47.85,47.85,0,0,0,14.19-16.3v0c.25-2.89.4-5.79.53-8.66A296.94,296.94,0,0,0,325.09,194.27Z"/><path class="cls-12" d="M260.85,380.85c1.61,2.61,3.13,5.3,4.5,8.06a3.41,3.41,0,0,0,6.41-.94q4.47-25.39,6.49-51.09c.09-.74.12-1.5.19-2.24A550.72,550.72,0,0,0,239.76,86.18c29.41,89.24,37.31,167,27.6,247.85v0q-2.61,22-7,44.38A3.45,3.45,0,0,0,260.85,380.85Z"/><path class="cls-9" d="M187.15,88.55c17.37,41.83,27.75,97.71,37,144.08,3.09,3.59,6.49,7,9.82,10.25,7.73,7.65,15.73,16.19,18.54,26.47-4.52-8-12.18-13.88-19.33-19.76-2.31-1.89-4.64-3.91-6.84-6,3.31,16.21,6.48,30.89,9.88,43,5.41,4.76,11.71,8.43,17.17,13.12a35.31,35.31,0,0,1,9.14,11.57c-2.12-3.32-5.82-5.74-9.34-7.58-4.35-2.3-9.08-3.79-13.38-6.12,7,14.82,22.83,14.68,27.55,36.49,9.71-80.84,1.81-158.61-27.6-247.85a550.72,550.72,0,0,1,38.68,248.46c.89-5,4.74-9.5,8.78-12.68,4.77-3.76,10.36-6.29,15.18-9.94a35.66,35.66,0,0,0,4.85-4.37,49.85,49.85,0,0,1-9.09,2.84c-3.49.78-7.27,1.42-10.38,3a32,32,0,0,1,9.35-8c5.24-3.13,11-5.37,16.15-8.65.61-.39,1.22-.79,1.8-1.23a68.41,68.41,0,0,0,4.68-16.27,29,29,0,0,1-9.86,8.51c-4.25,2.19-9,3.33-13.41,5.17a26.15,26.15,0,0,0-7,4.14,20,20,0,0,1,5.27-7.08c3.79-3.35,8.39-5.68,12.49-8.64a47.85,47.85,0,0,0,14.19-16.3v0c.25-2.89.4-5.79.53-8.66a296.94,296.94,0,0,0-3.83-62.16,37.57,37.57,0,0,1-1.71,4c-3.6,7.36-8.83,13.74-13.42,20.49-3.46,5.14-6.61,10.66-8.24,16.57A61.53,61.53,0,0,1,300,210.88c3.55-7.93,8.76-15,12.52-22.86a49.72,49.72,0,0,0,3-7.81v0c-2.88-14.65-6.57-29.14-10.77-43.44-9.3-31.67-21.33-63.32-42.29-88.83-13.66-16.61-31.68-30.37-51.72-37.72a16.82,16.82,0,0,0-21.66,10.68C181.11,45.18,180.9,73.45,187.15,88.55Z"/><g class="cls-13"><path class="cls-14" d="M291.56,85.11c4.51,9.76,1.85,23.08.44,30.93s-2.08,24.35-2.08,24.35-4.51-13.29-4.29-22.24l.23-9s-3.91,16.26-5.22,23.86a163.25,163.25,0,0,0-1.9,22.05s-4.61-5.8-5.33-16.54c-.69-10.26-.2-14.17-.2-14.17s-6.08,24.24-6.23,39.4c-.16,16.7.6,27.14.6,27.14s-10-35.35-17.85-44.65c-5.39-6.36-9.79-7.26-9.79-7.26a49.64,49.64,0,0,1,8,13.88A75.45,75.45,0,0,1,252.18,170s-7.71-15.29-16.3-24.87S220.6,132,220.6,132a68.89,68.89,0,0,1,9.63,14.32,55.67,55.67,0,0,1,5.24,17,184.19,184.19,0,0,0-13.53-19.91c-5.06-6.38-16-15.46-16-15.46a68.24,68.24,0,0,1,10,16.8,37.51,37.51,0,0,1,2.84,14.68s-7.44-14-13.1-21.24c-9.59-12.2-19-12.19-19-12.19L146.26,53.2,179-21.92l96.25,27.5Z"/><g class="cls-15"><path class="cls-16" d="M254.15,239c-77.33-3.32-96-97.9-88.94-159.61,1.53-13.39,4.11-27.2,8.93-39.84,10-26.15,30.9-58.8,62.62-57.76,37.48,1.23,55.37,46.09,67,75.5,15.45,38.91,19.14,80.54,14.92,122-3.26,32.06-24.11,57.36-57.92,59.66A59,59,0,0,1,254.15,239Z"/></g><g class="cls-17"><path class="cls-18" d="M260.3,146.87C289,203.77,332.62,251.41,380.63,292.7c8.34,7.16,17.52,15.62,17.61,26.61.21,26.48-41.54,32.93-60.75,34.44-98.3,7.74-170.38-80.3-193-167.6C133,141.73,126,92.24,136.85,47c6.86-28.64,22.47-58.34,46.51-76.16,10.78-8,28.89-17.09,42.88-13.76,16.79,4,10,22.75,7.95,34.68C224.44,47.08,236.31,99.35,260.3,146.87Z"/></g><g class="cls-19"><path class="cls-20" d="M251.24,185.37c-45.21.49-90.71,14.65-106.07,61.42C132,287,151.38,330.46,182.27,356.86c21.64,18.49,48.79,29.78,76.69,35.4,23.7,4.76,50.51,5.34,72.24-6.75,20.88-11.61,32.35-34.63,35.76-57.6,4.25-28.62-.91-58.14-11.89-84.73-10.69-25.89-23.43-47.92-52.87-53.25A273.44,273.44,0,0,0,251.24,185.37Z"/></g><g class="cls-21"><path class="cls-22" d="M255.66,353.2c-5.76,2.47-12.22,1.52-14.29-4.92-2-6.22-.47-13.91-.4-20.35.89-72.33-8.92-156.44-.27-235.48.2-1.86-1.61-2.8-.52-4.26,17.17,49.08,33.57,109.14,37.38,223.35C278.14,329.12,271.68,346.34,255.66,353.2Z"/></g></g></g></g></svg>