<svg xmlns="http://www.w3.org/2000/svg" xmlns:xlink="http://www.w3.org/1999/xlink" viewBox="0 0 512 400"><defs><style>.cls-1{isolation:isolate;}.cls-2{opacity:0.3;}.cls-3{fill:#323334;}.cls-4,.cls-6{fill:#fff;}.cls-5{fill:#979797;}.cls-5,.cls-6,.cls-9{mix-blend-mode:screen;}.cls-7{fill:url(#linear-gradient);}.cls-8{fill:#cfd1d2;mix-blend-mode:multiply;}.cls-9{fill:#4a4b4c;}</style><linearGradient id="linear-gradient" x1="310.43" y1="188.85" x2="356.2" y2="159.5" gradientTransform="matrix(1, 0, 0, 1, 2.92, 1.12)" gradientUnits="userSpaceOnUse"><stop offset="0.29" stop-color="#9e9e9e"/><stop offset="0.38" stop-color="#aaa"/><stop offset="0.56" stop-color="#cacaca"/><stop offset="0.69" stop-color="#e6e6e6"/><stop offset="0.74" stop-color="#ececec"/><stop offset="0.87" stop-color="#f9f9f9"/><stop offset="1" stop-color="#fdfdfd"/></linearGradient></defs><g class="cls-1"><g id="Layer_1" data-name="Layer 1"><ellipse class="cls-2" cx="255.34" cy="311.23" rx="123" ry="21"/><path class="cls-3" d="M379.73,191.28A123.73,123.73,0,1,1,255.79,67.77,123.74,123.74,0,0,1,379.73,191.28Z"/><path class="cls-4" d="M153,180.76a133.92,133.92,0,0,0-10.43,32.76c-1.76,9.38-1.28,13,6,23.33,13.87,19.74,19,25.12,23.77,24.32s27.08-5.65,33.6-7.25c4.95-1.21,4.94-2.4,6.91-11s5.1-20.57,5.88-27.16-.21-6.39-6-13.56-19.42-25.51-22.19-28.9-4.16-2.39-10.68-1.38-16.41,3.62-21.15,4.83S154,179.16,153,180.76Z"/><path class="cls-4" d="M162.5,113.63A200.73,200.73,0,0,0,151,131.29c-3,5.55-2.11,13.56-.26,29s3.39,15.4,9.18,14.15,22-4.65,26.24-5.58,7.61-8.34,11.57-14.81,19.76-26.91,22.94-30.14c3-2.69,2.13-5.39,1.23-12.55s-3.06-22-5-22.58-17.05-.53-22.73-.87S174,99.13,162.5,113.63Z"/><path class="cls-4" d="M220.57,216.41s-5.94,24-7.93,33.27c-1,5.44-1.18,6.65,10,14.09s16.79,11.86,20.39,13.87,6.79,2,17.17-.43,20.66-4.63,25-6.5,10.75-16.34,13.72-26,5.36-17.55,1.16-21-9.2-8.65-16-13.27S271.46,199.8,268.86,201s-29.4,7.94-39.77,10.72C224.16,213.14,220.94,214.33,220.57,216.41Z"/><path class="cls-4" d="M241.57,311.4s4.88-20.49,5.66-25.47,2.55-5.17,9.64-6.38,26-6.8,29.34-8,5.35-1.82,11.07,2.54S315.79,288,320.13,291c3.15,2.18-11.46,12.76-30.5,17.95C267.57,314.93,241.37,314.77,241.57,311.4Z"/><path class="cls-4" d="M224.55,118.46s-2.63-14.82-3.6-22.95,0-7.18,10.65-11.75,36-10.35,41.46-10.84S284.91,74.1,298.67,81s17.32,9.3,18,13.37,2.41,22.72,2.66,31.34c-.23,6-2.28,5.28-12.41,9.45-10.39,4.28-20.31,8.45-22.74,9.86-3.3,1.41-8.85-1.89-18-7.81-8.11-5.26-24.77-12.45-31.9-14.54S225.37,122,224.55,118.46Z"/><path class="cls-4" d="M282.12,151.72s-5.09,23.15-7.5,35c-2.43,11.33-1.69,13.05,5.15,18.21s14.66,12.53,18.81,15.73,6.85,6.9,20,3.16c16.58-4.7,21-6,26.09-7.68s6.09-3.7,8-13.06,3.37-23.4,4.34-31-.51-8.86-6.62-15-17.59-16-22-20.39-7.57-4.92-12.94-2.94-20,7.43-25.35,10.39S282.84,147.28,282.12,151.72Z"/><path class="cls-4" d="M371.09,160.51s-8,2.64-10.4,3.79-2.1,9-3.06,17.08a271.13,271.13,0,0,1-5.8,30.38c-1.13,3.28,3.41,6,7.17,12.14,5.88,9.51,9,14.76,10.28,12.95s9.72-20.38,9.34-51.07C377.62,172,375.16,158.2,371.09,160.51Z"/><path class="cls-4" d="M138.94,228.61s1.16-3.38,2.18-1.62,12.69,21,22.16,31.23c3.35,3.23,4.23,4.11,4.68,10.13s-.28,7.48-3.78,4S143.78,247.54,138.94,228.61Z"/><path class="cls-4" d="M281.23,70.56s-1.75-.58-2.47.16,3.35,1.9,10.48,5,18.2,8.63,22.86,11.85c3.2,1.9,4.51,2.34,7.27,1.16s3.63-1.62.43-3.37S296.21,72.74,281.23,70.56Z"/><path class="cls-5" d="M278.18,275.16s-15.42,3.8-25.31,6c-6.51.83-5.69,11.77-8.54,23.85,0,0,3.92-14,5.89-19S260.24,282.5,278.18,275.16Z"/><path class="cls-6" d="M168.65,108.5s14-14.76,19.78-17.93,27.37-1,27.37-1-15.19.5-22.33.91S168.65,108.5,168.65,108.5Z"/><path class="cls-4" d="M246.22,80.48s21.81-6.33,28.61-6.63,20.41,5.4,35.44,14C293.54,80.4,281.06,75.56,276,75.57S246.22,80.48,246.22,80.48Z"/><path class="cls-4" d="M164.57,177.29s19.51-5,22.44-4.47,25.91,32,25.91,32-20-24.59-25.9-27.53S164.57,177.29,164.57,177.29Z"/><path class="cls-7" d="M336,144.79s13.31,12.47,17.22,16.4,3.67,4.15.28,32.83c1.57-18.27,2.48-25.9-1-30.52S336,144.79,336,144.79Z"/><path class="cls-6" d="M215.74,227.71s-3.15,14.29-4.87,20.72-7.8,5.55-23.4,8.79c16.47-5,20.52-5.58,21.95-10S215.74,227.71,215.74,227.71Z"/><path class="cls-6" d="M216,237.69s3.39-14,4.6-19.71c1.7-5.42,12.43-6.18,23.65-9.15,0,0-10.48,3.47-17.31,6.18S220.12,226.85,216,237.69Z"/><path class="cls-4" d="M222.51,262.62s12.3,8.76,17.7,12.38,8.41,3.92,22.49.87,18-4.57,18-4.57-19.78,4.27-30,4.59S222.51,262.62,222.51,262.62Z"/><path class="cls-6" d="M275.26,190.4s5.56-30.41,7.32-37.57S297,141.78,310.3,136.39c0,0-15,7.78-20.94,11.66S284.06,156.41,275.26,190.4Z"/><path class="cls-6" d="M287.59,214.88s8.92,7.28,11.82,10,2.9,9.48-6,30.89c3.83-14.35,9.1-26.52,3.8-31.37S287.59,214.88,287.59,214.88Z"/><path class="cls-6" d="M150.06,242.34s7.12,9.71,12.08,15.21c4.32,4.47,5.21,5.24,5.23,14.33-.65-5.89-1.43-8.76-4.22-11.69S150.06,242.34,150.06,242.34Z"/><path class="cls-8" d="M255.79,67.77A123.73,123.73,0,1,0,379.73,191.28,123.73,123.73,0,0,0,255.79,67.77Zm-1,221.82c-62.36.11-113-47.86-113.1-107.14S192.06,75,254.42,74.92s113,47.86,113.1,107.14S317.16,289.48,254.8,289.59Z"/><path class="cls-9" d="M236.8,131.27c3.45,4.08,2.07,10.92-3.07,15.28s-12.12,4.58-15.57.51-2.08-10.92,3.07-15.27S233.35,127.2,236.8,131.27Z"/><path class="cls-9" d="M214.42,153.47c1.53,1.81.92,4.84-1.36,6.77s-5.37,2-6.9.22-.92-4.83,1.36-6.76S212.89,151.67,214.42,153.47Z"/></g></g></svg>