<svg xmlns="http://www.w3.org/2000/svg" xmlns:xlink="http://www.w3.org/1999/xlink" viewBox="0 0 512 400"><defs><style>.cls-1{mask:url(#mask);filter:url(#luminosity-noclip-2);}.cls-12,.cls-13,.cls-14,.cls-15,.cls-2,.cls-7,.cls-9{mix-blend-mode:multiply;}.cls-2{fill:url(#linear-gradient);}.cls-3{isolation:isolate;}.cls-4{opacity:0.3;}.cls-5{fill:#dfe9ef;stroke:#98aeb9;stroke-miterlimit:10;}.cls-6{fill:none;}.cls-14,.cls-7{fill:#c5dbe6;}.cls-12,.cls-7{opacity:0.6;}.cls-8{fill:#4c4c4c;opacity:0.5;}.cls-10,.cls-9{opacity:0.7;}.cls-10,.cls-11{fill:#00abdb;}.cls-12,.cls-13{fill:#d9f1fd;}.cls-13{opacity:0.4;}.cls-14{opacity:0.8;}.cls-15{fill:#eceef0;}.cls-16{mask:url(#mask-2);}.cls-17{mix-blend-mode:screen;fill:url(#linear-gradient-2);}.cls-18{filter:url(#luminosity-noclip);}</style><filter id="luminosity-noclip" x="134.74" y="-7911" width="49.93" height="32766" filterUnits="userSpaceOnUse" color-interpolation-filters="sRGB"><feFlood flood-color="#fff" result="bg"/><feBlend in="SourceGraphic" in2="bg"/></filter><mask id="mask" x="134.74" y="-7911" width="49.93" height="32766" maskUnits="userSpaceOnUse"><g class="cls-18"/></mask><linearGradient id="linear-gradient" x1="134.72" y1="194.3" x2="164.32" y2="204.75" gradientUnits="userSpaceOnUse"><stop offset="0" stop-color="#fff"/><stop offset="1"/></linearGradient><filter id="luminosity-noclip-2" x="134.74" y="88.19" width="49.93" height="236.68" filterUnits="userSpaceOnUse" color-interpolation-filters="sRGB"><feFlood flood-color="#fff" result="bg"/><feBlend in="SourceGraphic" in2="bg"/></filter><mask id="mask-2" x="134.74" y="88.19" width="49.93" height="236.68" maskUnits="userSpaceOnUse"><g class="cls-1"><path class="cls-2" d="M163.66,88.19s11.32,25.08,0,51.2-33.25,55.73-28.16,106.67,35.12,78.81,35.12,78.81-28.73-60.93-20.89-98,37-79.61,34.83-103.38-8.16-32.42-8.16-32.42Z"/></g></mask><linearGradient id="linear-gradient-2" x1="134.72" y1="194.3" x2="164.32" y2="204.75" gradientUnits="userSpaceOnUse"><stop offset="0" stop-color="#fff"/><stop offset="1" stop-color="#fff"/></linearGradient></defs><g class="cls-3"><g id="Layer_1" data-name="Layer 1"><ellipse class="cls-4" cx="227.32" cy="344" rx="95" ry="19.5"/><path class="cls-5" d="M406.26,173.29C399.17,123,374.74,107.56,355.85,101s-35.51-.52-38.48-6.35a9.79,9.79,0,0,1-.81-3.49l-.09.11s1.89,28.93,10.87,52.14c0-8.8,2.06-18.87,10.79-20.88,16.09-3.71,45.73,12.7,46.25,67.06.48,50.75-33.69,75.82-43.71,61.5-1.4,6.2-3.16,12.68-5.37,19.47-6,16.57-13,34.78-14,37.5,9-14.3,20.74-22,35.11-31.22C389.24,255.68,413.34,223.54,406.26,173.29Z"/><path class="cls-5" d="M328.2,145.53c-9.72-23.54-11.73-54.3-11.73-54.3l.09-.11c-.88-9.18,3-29.05,5.3-31.49,2.71-1.46,5.22-6.22-2.07-9.86-1-.44-2.1-.84-3.19-1.21-17.79-5.08-54.18,9-84.19,11.25-31.93,2.34-65.8-5.31-82.82-12.29-8.29-3.39-16.38-6.23-22.51-8.26a115,115,0,0,0-19.63-2.76c-6.28,1.25-1.52,3.9,4.88,7s33.84,12.24,39.21,46.66c4.74,30.37-9.4,58.55-19.73,86.07-15,40-18,85.25,1.68,124.27,4.92,9.77,10.64,19.64,17.54,28.17,7.86,9.72,15.8,19.38,34.16,23.44,11,2.43,29.34,1.45,49.92,1.55,33.75.15,45.13-1,60.1-11.18,8.31-5.66,25.7-33.88,26.05-34.44,1.05-2.72,8.06-20.93,14-37.5C356.3,205.9,337.92,169.07,328.2,145.53Z"/><path class="cls-6" d="M316.6,48.56c1.09.37,2.16.77,3.19,1.21A18.64,18.64,0,0,0,316.6,48.56Z"/><path class="cls-5" d="M232.41,59.81c30-2.2,66.4-16.33,84.19-11.25-16.92-5.78-41.41-2.3-67.35,1.74-31.33,4.88-87,1.27-104.36-5.66a120.41,120.41,0,0,0-17.81-5.38c6.13,2,14.22,4.87,22.51,8.26C166.61,54.5,200.48,62.15,232.41,59.81Z"/><path class="cls-7" d="M232.41,59.81c30-2.2,66.4-16.33,84.19-11.25-16.92-5.78-41.41-2.3-67.35,1.74-31.33,4.88-87,1.27-104.36-5.66a120.41,120.41,0,0,0-17.81-5.38c6.13,2,14.22,4.87,22.51,8.26C166.61,54.5,200.48,62.15,232.41,59.81Z"/><path class="cls-5" d="M276.73,57.69C308,50.28,314.35,51.1,322,59.57c2.67-1.52,5-6.21-2.17-9.8-1-.44-2.1-.84-3.19-1.21-17.79-5.08-54.18,9-84.19,11.25-31.93,2.34-65.8-5.31-82.82-12.29-8.29-3.39-16.38-6.23-22.51-8.26a115,115,0,0,0-19.63-2.76c-3,.6-3.49,1.52-2.45,2.65a86.13,86.13,0,0,1,35.27,9.48C169.45,63.29,215,77,276.73,57.69Z"/><path class="cls-8" d="M200.52,66.45s1.9.23,5.25.44,8.13.35,13.86.23c2.87-.07,6-.2,9.25-.45s6.73-.58,10.29-1,7.22-1,10.91-1.68c1.85-.38,3.72-.7,5.58-1.12l5.57-1.3c7.4-1.92,14.75-4.09,21.73-5.87a95.94,95.94,0,0,1,19.39-3.26,32.9,32.9,0,0,1,7.86.56,21,21,0,0,1,5.72,2,20.55,20.55,0,0,1,1.92,1.17c.5.41.95.74,1.29,1l1,.94-1-.9c-.34-.28-.8-.59-1.32-1a19.15,19.15,0,0,0-1.93-1.11,21.2,21.2,0,0,0-5.71-1.82,34.38,34.38,0,0,0-7.77-.37,66.27,66.27,0,0,0-9.15,1.19c-3.22.63-6.59,1.43-10.06,2.33-7,1.8-14.28,4-21.7,6l-5.61,1.27c-1.87.41-3.76.73-5.61,1.09-3.72.67-7.4,1.22-11,1.64s-7,.72-10.34.89-6.41.28-9.29.3c-5.76,0-10.55-.28-13.89-.57S200.52,66.45,200.52,66.45Z"/><g class="cls-9"><path class="cls-10" d="M330.54,151.12h0c-.39,1.77-42.53,3.19-94.46,3.19-50.43,0-91.62-1.34-94.33-3l-.2,0c-3.17,8.41-6.61,16.72-9.7,25-15,40-18,85.25,1.68,124.27,4.92,9.77,10.64,19.64,17.54,28.17,7.86,9.72,15.8,19.38,34.16,23.44,11,2.43,29.34,1.45,49.92,1.55,33.75.15,45.13-1,60.1-11.18,8.31-5.66,25.7-33.88,26.05-34.44,1.05-2.72,8.06-20.93,14-37.5C354.7,210.8,340.49,174.82,330.54,151.12Z"/><path class="cls-11" d="M236,147.89c-52.18,0-94.48,1.44-94.48,3.22s42.3,3.21,94.48,3.21,94.47-1.44,94.47-3.21S288.22,147.89,236,147.89Z"/></g><path class="cls-12" d="M328.2,145.53c-9.72-23.54-11.73-54.3-11.73-54.3l.09-.11c-.88-9.18,3-29.05,5.3-31.49,2.71-1.46,5.22-6.22-2.07-9.86-1-.44-2.1-.84-3.19-1.21-17.79-5.08-54.18,9-84.19,11.25-31.93,2.34-65.8-5.31-82.82-12.29-8.29-3.39-16.38-6.23-22.51-8.26a115,115,0,0,0-19.63-2.76c-6.28,1.25-1.52,3.9,4.88,7s33.84,12.24,39.21,46.66c4.74,30.37-9.4,58.55-19.73,86.07-15,40-18,85.25,1.68,124.27,4.92,9.77,10.64,19.64,17.54,28.17,7.86,9.72,15.8,19.38,34.16,23.44,11,2.43,29.34,1.45,49.92,1.55,33.75.15,45.13-1,60.1-11.18,8.31-5.66,25.7-33.88,26.05-34.44,1.05-2.72,8.06-20.93,14-37.5C356.3,205.9,337.92,169.07,328.2,145.53Zm-120.57,192c-10,3.92-30.91-3.92-30.91-3.92-11.76-3.92-42.23-37.88-47.46-77.5s7.4-72.28,25.26-111,0-71.53,0-71.53,35.28,2.66,54.86,23.2c15.35,16.11,2.17,43.54-2.18,97.31s17.85,100.36,17.53,121.7S207.63,337.5,207.63,337.5Z"/><path class="cls-13" d="M406.26,173.29C399.17,123,374.74,107.56,355.85,101s-35.51-.52-38.48-6.35a9.79,9.79,0,0,1-.81-3.49l-.09.11s1.89,28.93,10.87,52.14c0-8.8,2.06-18.87,10.79-20.88,16.09-3.71,45.73,12.7,46.25,67.06.48,50.75-33.69,75.82-43.71,61.5-1.4,6.2-3.16,12.68-5.37,19.47-6,16.57-13,34.78-14,37.5,9-14.3,20.74-22,35.11-31.22C389.24,255.68,413.34,223.54,406.26,173.29ZM386.8,244.1c-10,13.72-14.88,15.32-14.88,15.32-2.75,1-.58-3.05-.58-3.05,5.23-8.27,11.33-20.32,11.33-20.32,5.95-14.66,13.78-47.31,4.06-82.72s-40.5-39.63-40.5-39.63c-7-.87-15.09-2.75-16.68-7s1.59-5.52,1.59-5.52c8.13-2.25,37.48,4.38,48.91,17.49,15.8,18.11,22.86,42.67,24.17,66S396.81,230.39,386.8,244.1Z"/><path class="cls-14" d="M338.13,122.49c12.11-2.79,31.91,5.83,41.18,33.46a82.75,82.75,0,0,0-8.21-19.77c-5.56-9.53-16.12-14.17-26.42-16.71-6.42-1.59-17.18-2-19.5-9.74-1.13-3.79-.79-8.46,1.53-11.76.13-.18.29-.33.43-.5-5-.08-8.55-.47-9.77-2.86a9.79,9.79,0,0,1-.81-3.49l-.09.11s1.89,28.93,10.87,52.14C327.37,134.57,329.4,124.5,338.13,122.49Z"/><path class="cls-14" d="M344.78,274.57c-1.16-3.55.69-7.09,2.87-9.83a54.89,54.89,0,0,1,9.79-9.16A53.53,53.53,0,0,0,375.12,232c-10.76,20.85-27.85,28.53-34.45,19.09-1.4,6.2-3.16,12.68-5.37,19.47-6,16.57-13,34.78-14,37.5,8-12.71,18.16-20.19,30.41-28.18C348.59,279.37,345.87,277.92,344.78,274.57Z"/><path class="cls-6" d="M139.36,311.39a73.74,73.74,0,0,0,5.9,9.42c-2.08-3.06-4.06-6.22-5.91-9.44Z"/><path class="cls-6" d="M176.72,333.58s20.9,7.84,30.91,3.92c0,0,16.77-.44,17.1-21.77S202.84,247.81,207.2,194s17.53-81.2,2.18-97.31c-19.58-20.54-54.86-23.2-54.86-23.2s17.85,32.78,0,71.53-30.48,71.41-25.26,111S165,329.66,176.72,333.58Z"/><path class="cls-7" d="M328.2,145.53c-9.72-23.54-11.73-54.3-11.73-54.3l.09-.11c-.88-9.18,3-29.05,5.3-31.49,2.71-1.46,5.22-6.22-2.07-9.86-1-.44-2.1-.84-3.19-1.21-8.15-2.33-20.19-.63-33.73,2.11a8.28,8.28,0,0,1-2.53,4.71s-29.77,10.18-45.24,11c0,0,1.71,1.39,16.51,1.3s30.91-3.31,26.56,15.72-11.76,42.53-3.92,69.09,27.43,75.17,17,123.8-18.65,66.25-56.13,70.28c-34.08,3.67-68.72,2.94-89.84-25.72,1.83,2.7,3.74,5.33,5.77,7.84,7.86,9.72,15.8,19.38,34.16,23.44,11,2.43,29.34,1.45,49.92,1.55,33.75.15,45.13-1,60.1-11.18,8.31-5.66,25.7-33.88,26.05-34.44,1.05-2.72,8.06-20.93,14-37.5C356.3,205.9,337.92,169.07,328.2,145.53Z"/><path class="cls-15" d="M139.35,311.37c-1.33-2.49-2.61-4.81-3.85-7C136.73,306.72,138,309.06,139.35,311.37Z"/><g class="cls-16"><path class="cls-17" d="M163.66,88.19s11.32,25.08,0,51.2-33.25,55.73-28.16,106.67,35.12,78.81,35.12,78.81-28.73-60.93-20.89-98,37-79.61,34.83-103.38-8.16-32.42-8.16-32.42Z"/></g></g></g></svg>