<svg id="Layer_1" data-name="Layer 1" xmlns="http://www.w3.org/2000/svg" xmlns:xlink="http://www.w3.org/1999/xlink" viewBox="0 0 512 400"><defs><style>.cls-1{opacity:0.3;}.cls-2{fill:url(#linear-gradient);}.cls-3{fill:#454545;}.cls-4{fill:#2776d5;}.cls-5{fill:#468ddf;}.cls-6{fill:#1a61b8;}.cls-7{fill:#1a619e;}.cls-8{fill:url(#linear-gradient-2);}.cls-9{fill:url(#linear-gradient-3);}.cls-10{fill:url(#linear-gradient-4);}.cls-11{fill:url(#linear-gradient-5);}.cls-12{fill:url(#linear-gradient-6);}.cls-13{fill:url(#linear-gradient-7);}.cls-14{fill:url(#linear-gradient-8);}.cls-15{fill:url(#linear-gradient-9);}</style><linearGradient id="linear-gradient" x1="3865.33" y1="260.32" x2="3880.47" y2="274.4" gradientTransform="translate(1462.49 -3604.29) rotate(106.24)" gradientUnits="userSpaceOnUse"><stop offset="0" stop-color="#f4dab5"/><stop offset="0.5" stop-color="#e3c59f"/><stop offset="1" stop-color="#d0b087"/></linearGradient><linearGradient id="linear-gradient-2" x1="2300.28" y1="2146.67" x2="2300.27" y2="2177.18" gradientTransform="matrix(0.63, 0.78, -0.78, 0.63, 617.8, -2769.11)" gradientUnits="userSpaceOnUse"><stop offset="0" stop-color="#f2569b"/><stop offset="0.65" stop-color="#f580b4"/><stop offset="1" stop-color="#f2569b"/></linearGradient><linearGradient id="linear-gradient-3" x1="2281.45" y1="2145.76" x2="2281.25" y2="2176.2" gradientTransform="translate(2530.57 -1928.41) rotate(89.61)" gradientUnits="userSpaceOnUse"><stop offset="0" stop-color="#dadada"/><stop offset="0.4" stop-color="#dadada"/><stop offset="0.65" stop-color="#f2f2f2"/><stop offset="0.9" stop-color="#dadada"/><stop offset="1" stop-color="#dadada"/></linearGradient><linearGradient id="linear-gradient-4" x1="3977.32" y1="4131.05" x2="3976.64" y2="4181.76" gradientTransform="matrix(0, 0.3, -0.6, 0, 2868.56, -834.92)" gradientUnits="userSpaceOnUse"><stop offset="0" stop-color="#999"/><stop offset="0.4" stop-color="#999"/><stop offset="0.65" stop-color="#e6e6e6"/><stop offset="0.9" stop-color="#999"/><stop offset="1" stop-color="#999"/></linearGradient><linearGradient id="linear-gradient-5" x1="3980.55" y1="4131.07" x2="3979.87" y2="4181.77" gradientTransform="matrix(0, 0.3, -0.6, 0, 2868.2, -837.13)" xlink:href="#linear-gradient-4"/><linearGradient id="linear-gradient-6" x1="3983.99" y1="4131.08" x2="3983.3" y2="4181.78" gradientTransform="matrix(0, 0.3, -0.6, 0, 2869.33, -836.33)" xlink:href="#linear-gradient-4"/><linearGradient id="linear-gradient-7" x1="4011.91" y1="4131.18" x2="4011.23" y2="4181.88" gradientTransform="matrix(0, 0.3, -0.6, 0, 2873.85, -839.55)" xlink:href="#linear-gradient-4"/><linearGradient id="linear-gradient-8" x1="4015.14" y1="4131.19" x2="4014.46" y2="4181.89" gradientTransform="matrix(0, 0.3, -0.6, 0, 2875.91, -836.76)" xlink:href="#linear-gradient-4"/><linearGradient id="linear-gradient-9" x1="4018.57" y1="4131.2" x2="4017.89" y2="4181.9" gradientTransform="matrix(0, 0.3, -0.6, 0, 2876.18, -837.73)" xlink:href="#linear-gradient-4"/></defs><path class="cls-1" d="M417,373.64l-6.65-8.26-.13-.14h0l-2.18-2.7h0l-.28-.35h0l-.36-.44h0l-.28-.35h0l-.32-.4h0l-.28-.35h0l-4.91-6.1h0l-.29-.35h0l-.4-.51-.23-.29h0l-.32-.39h0l-.29-.35h0l-2-2.54h0L156.85,50.65h0L153,45.81,114.7,15.37S101.34,4.84,101.33,4.82c-.51.17-.5.18-.77.62,0,0,7.35,15.36,7.35,15.36l21.33,44.1,0,0h0l.05.06,245,304.22h0l12.18,15.12h0l.12.15,6.76,8.4a6.44,6.44,0,0,0,9.12.79l13.61-11A6.38,6.38,0,0,0,417,373.64Zm-25.74-18.06-.44-.55.44.55ZM139.93,64.28l.45.55-.45-.55Zm41.3,51.27C162.3,92.06,147.55,73.74,140.53,65ZM390.45,354.63l-.85-1.05Zm-.9-1.11-2-2.48Zm-3.47-4.31-1.16-1.45Zm-1.64-2-1.24-1.54Zm-4.7,14.89,1.35,1.67h0ZM181.38,115.74l6.85,8.51Zm7,8.72L295.24,257.13Zm109.84,136.4,18.95,23.52C311.09,276.82,304.75,268.94,298.24,260.86Zm19.34,24,8.75,10.86Zm10.82,13.44,3.47,4.3Zm8.51,10.57,3.8,4.71Zm4.54,5.63,8,9.9Zm14.51,18,9,11.15Zm10.44,13,1.46,1.81Zm4.7,5.83,8.1,10.05C377.41,359.17,374.67,355.76,371.1,351.33Z"/><polygon class="cls-2" points="132.91 64.29 132.91 64.29 143.06 56.12 149.85 50.66 145.95 45.81 107.7 15.37 106 16.73 102.61 19.44 100.91 20.8 122.24 64.9 126.14 69.74 132.91 64.29"/><path class="cls-3" d="M106,18.63a4.45,4.45,0,0,0,1.67-3.26S94.34,4.84,94.33,4.82c-.51.17-.5.18-.77.62,0,0,7.35,15.36,7.35,15.36A16.24,16.24,0,0,0,106,18.63Z"/><path class="cls-4" d="M384.7,356.19,139.17,51.3a16.52,16.52,0,0,1-4.5,5.07c-3.4,2.74-5.62,3.08-5.62,3.08L374.58,364.34Z"/><path class="cls-5" d="M139.17,51.3a15.37,15.37,0,0,0,3.75-2.11,18,18,0,0,0,3-3.36L391.49,350.72l-6.79,5.47Z"/><path class="cls-6" d="M122.26,64.92A15.59,15.59,0,0,0,126,62.77a17.31,17.31,0,0,0,3-3.32L374.58,364.34l-6.79,5.47Z"/><path class="cls-7" d="M129.05,59.46l.11.13Z"/><path class="cls-7" d="M129.2,59.64h0s2.22-.34,5.63-3.09a16.33,16.33,0,0,0,4.49-5.06l-.15-.19a16.38,16.38,0,0,1-4.49,5.07c-3.41,2.75-5.63,3.09-5.63,3.09l.11.13Z"/><path class="cls-7" d="M139.32,51.48a15,15,0,0,0,3.75-2.11,17.42,17.42,0,0,0,3-3.35l-.15-.19a18,18,0,0,1-3,3.36,15,15,0,0,1-3.75,2.11l.15.19Z"/><path class="cls-7" d="M139.32,51.49l-.15-.19.15.19Z"/><path class="cls-7" d="M122.41,65.11A15.76,15.76,0,0,0,126.2,63a16.79,16.79,0,0,0,3-3.32l0,0-.11-.13a17.31,17.31,0,0,1-3,3.32,15.37,15.37,0,0,1-3.78,2.14Z"/><path class="cls-7" d="M129.16,59.59l0,0h0Z"/><path class="cls-8" d="M395.47,393.66a6.44,6.44,0,0,1-9.12-.79l-6.76-8.4a6.47,6.47,0,0,1,1-9.13l13.54-11a6.58,6.58,0,0,1,9.21,1.07l6.65,8.26a6.38,6.38,0,0,1-.87,9.06Z"/><rect class="cls-9" x="370.01" y="357.51" width="30.44" height="19.41" transform="translate(-145.13 322.85) rotate(-38.85)"/><rect class="cls-10" x="366.11" y="362.14" width="30.44" height="0.45" transform="translate(-142.94 319.16) rotate(-38.83)"/><rect class="cls-11" x="366.71" y="362.89" width="30.44" height="0.45" transform="translate(-143.24 319.28) rotate(-38.78)"/><rect class="cls-12" x="367.35" y="363.68" width="30.44" height="0.45" transform="translate(-143.61 320.07) rotate(-38.81)"/><rect class="cls-13" x="372.55" y="370.14" width="30.44" height="0.45" transform="translate(-146.48 324.46) rotate(-38.77)"/><rect class="cls-14" x="373.15" y="370.89" width="30.44" height="0.45" transform="translate(-146.87 325.64) rotate(-38.84)"/><rect class="cls-15" x="373.79" y="371.68" width="30.44" height="0.45" transform="translate(-147.22 326.06) rotate(-38.83)"/></svg>