<svg id="Layer_1" data-name="Layer 1" xmlns="http://www.w3.org/2000/svg" viewBox="0 0 512 400"><defs><style>.cls-1{opacity:0.3;}.cls-2{fill:#ff974f;}.cls-3{fill:#fa8a43;}.cls-4{fill:#f88043;}.cls-5{fill:#f36f43;}.cls-6{fill:#ef6f43;}.cls-7{fill:#ffe3bf;}.cls-8{fill:#ffd2ae;}.cls-9{fill:#fdcaa5;}.cls-10{fill:#ffbd99;}.cls-11{fill:#fdb58c;}.cls-12{fill:#bf664a;}.cls-13{fill:#b35f45;}.cls-14{fill:#ab5343;}.cls-15{fill:#9d4539;}.cls-16{fill:#a65336;}.cls-17{fill:#fd6a72;}.cls-18{fill:#f35461;}.cls-19{fill:#e44a52;}.cls-20{fill:#ff7882;}.cls-21{fill:#ff8287;}.cls-22{fill:#dc414f;}.cls-23{fill:#a47ab9;}.cls-24{fill:#8d759b;}.cls-25{fill:#9d71b2;}.cls-26{fill:#836091;}.cls-27{fill:#ac8cbf;}.cls-28{fill:#b29dc1;}</style></defs><path class="cls-1" d="M445.07,279.37l-.08,0a9,9,0,0,0-1.15-.24c9.4-2.42,10.22-4,0-6S230.73,256.67,204.4,255.64c-23.11-.91-94.53,4-111.62,5.25h0l-3.71.27c-11.91.34-22.67,6.37-26.49,10.46-6.37,6.82-8.51,15.23-4.07,21.26l.24.33.36.43.29.33.39.41.38.36.69.6.42.35.46.33.48.33.46.3c.25.15.5.3.76.44l.56.3c.24.13.49.25.75.37l.49.23.76.31.49.2c.38.14.77.28,1.18.41L68,299l1.17.34.51.13,1.07.25.5.11c.53.11,1.06.21,1.62.3,3.1.5,16.68,2.83,35.46,6l1.94.32,1,.16,3.18.53h0c53.28,8.88,140.24,22.92,158.9,22.68,26.33-.35,159.21-14.49,174.25-20.7C462.06,303.15,455.09,282.21,445.07,279.37Z"/><path class="cls-2" d="M89.07,254.16c-11.91.34-22.67,6.37-26.49,10.46-10,10.69-9.61,25.3,10.3,28.53,11.75,1.9,174.14,30,200.47,29.67s159.21-14.49,174.25-20.7,6.9-28.64-3.76-30c9.4-2.42,10.22-4,0-6S230.73,249.67,204.4,248.64,89.07,254.16,89.07,254.16Z"/><path class="cls-3" d="M381.78,282.52s-62.89,8-74.92,10.25c-14.06,2.65-21.12,7.56-15.18,17.14s62.79,1,84.6-1.76c45.1-5.63,67.84-7.73,60.75-16.72-7.66-9.7-70.87,2.52-88.58,2.69S361.3,285.88,381.78,282.52Z"/><path class="cls-4" d="M264.79,307.12c0-23.42,19.72-25.14,19.72-25.14L92.77,253.89l-3.7.27c-11.91.34-22.67,6.37-26.49,10.46-10,10.69-9.61,25.3,10.3,28.53,11.54,1.87,168.26,29,198.82,29.64C267.73,319.55,264.79,314.63,264.79,307.12Z"/><path class="cls-5" d="M305.77,294.85c42.64-6.77,129.68-19,142.58-20.81a10,10,0,0,0-4.51-1.94c.56-.14,1-.27,1.47-.41-17.76,2.49-99.84,14.06-140.9,20.58-11.48,1.82-18.26,9.09-17.39,14.74.74,4.76,6.63,7.94,15.76,8.5,1.18.07,2.59.1,4.2.1,28.69,0,121.39-11,131.59-15.89,3.8-1.82,4.79-4.69,2.66-7.67-2.31-3.22-8.62-6.59-15.54-6.44-9.81.17-91.67,9.46-108.06,13-4.53,1-7,3.19-6,5.38s5.44,4,13.07,3.48c11.56-.84,95.33-10.58,98.9-11,1.32-.15,2.16-.87,1.88-1.59s-1.59-1.18-2.9-1c-.86.1-87.14,10.14-98.52,11-4.67.34-7.25-.49-7.7-1.47s.81-1.74,3-2.22c16.16-3.46,96.78-12.7,106.44-12.79h.2c4,0,8.74,2.1,10.63,4.75.8,1.12,1.69,3.21-1.32,4.66-8.42,4.06-109.77,16.5-132,15.13-9.23-.56-11.13-4-11.44-6.05C291.19,302.29,296.72,296.28,305.77,294.85Z"/><path class="cls-6" d="M58.2,285.46c2.45,3.63,7.17,6.47,14.68,7.69,11.54,1.87,168.26,29,198.82,29.64a17.92,17.92,0,0,1-5.61-7.88C229.51,310.3,99.43,293.86,78,290.3A115.22,115.22,0,0,1,58.2,285.46Z"/><path class="cls-7" d="M88.21,217.1c-11.6.33-22.08,6-25.8,9.83-9.72,10.06-9.36,23.79,10,26.83,11.45,1.79,169.63,28.22,195.27,27.9S422.79,268,437.44,262.19s6.72-26.92-3.66-28.22c9.16-2.27,10-3.8,0-5.62s-207.59-15.47-233.23-16.44S88.21,217.1,88.21,217.1Z"/><path class="cls-8" d="M367,241.12s-54.38,4.77-67.82,8.15-21.12,7.29-15.19,16.54,62.66,2.65,84.33-.27,63.9-4.32,58.22-18.38c-4-10-68.07,3.24-85.77,3.41S346.55,244.35,367,241.12Z"/><path class="cls-9" d="M282.65,241.4,96.42,216.54c-5.15.34-8.21.56-8.21.56-11.6.33-22.08,6-25.8,9.83-9.72,10.06-9.36,23.79,10,26.83,11.45,1.79,169.63,28.22,195.27,27.9l2.38-.06c-5-3.62-9.8-8.85-10.64-16C257.59,249.89,282.65,241.4,282.65,241.4Z"/><path class="cls-10" d="M295.1,251.47c29.68-6.49,127.07-15,142.07-16.32a9.41,9.41,0,0,0-3.39-1.18c2.24-.55-108,8-140.54,15.1-8.85,1.93-14.35,7.86-12.78,13.78,1.44,5.42,8.31,9,18.4,9.6,1.11.07,2.41.1,3.89.1,26.82,0,112.1-10.27,122.3-15,5.61-2.6,5.91-7.51,3.31-11-2.26-3.05-6.43-4.89-11.1-4.74C407.47,242,316,251.67,299.77,255c-3.49.73-5.09,2.36-4.18,4.26,1.55,3.19,9.81,6.31,18.52,5.7,11.6-.82,95-11.89,98.57-12.36,1.31-.17,2.1-.88,1.78-1.57s-1.68-1.12-3-.95c-.86.12-86.69,11.51-98,12.31-6.63.47-12.27-2-13.15-3.78-.3-.62,0-.94,1.23-1.19,16-3.32,106.22-12.9,115.87-13.06a8.31,8.31,0,0,1,6.4,3.09c1.92,2.59,1.88,6.31-2,8.11-8.91,4.14-100.69,15.57-122.43,14.28-11.15-.66-13.58-5.39-14.11-7.39C284.21,258.36,287.57,253.11,295.1,251.47Z"/><path class="cls-11" d="M57.12,244.69c1.9,4.28,6.74,7.73,15.32,9.07,11.45,1.79,169.63,28.22,195.27,27.9l2.38-.06a28.39,28.39,0,0,1-8.38-9.06C222,267.71,97.09,252.46,76.13,249.1A121.73,121.73,0,0,1,57.12,244.69Z"/><path class="cls-12" d="M89.42,170.41s-12.92,1.65-20.75,6.17c-10.7,6.16-21.78,29.23,0,35.28,7.77,2.16,177.66,26,197.81,26.72s142.58-13.71,155.28-16.1c17.56-3.31,24.43-25.12,6.52-28.77,7.84-.69,12.45-8.75,2.44-8.91S241.45,168,209.09,168,102.17,168.63,89.42,170.41Z"/><path class="cls-13" d="M364.05,200.69s-44.53,4.05-58,7.61-26.53,7-20.6,16.75,58.44,1.88,80.11-1.2,61-8.6,58-16.78c-3.85-10.56-68.07,3.42-85.78,3.59S343.58,204.11,364.05,200.69Z"/><path class="cls-14" d="M89.42,170.41s-12.92,1.65-20.75,6.17c-10.7,6.16-21.78,29.23,0,35.28,7.77,2.16,177.66,26,197.81,26.72,1.55,0,3.76,0,6.41-.11-5-2.88-9.37-7.64-9.37-15.53,0-18.73,24.4-25.58,24.4-25.58L93.61,170C91.88,170.14,90.44,170.27,89.42,170.41Z"/><path class="cls-15" d="M56.51,200.69c1,4.83,4.54,9.05,12.16,11.17s177.66,26,197.81,26.72c1.55,0,3.76,0,6.41-.11a19.2,19.2,0,0,1-6.87-6.41c-32.57-2.14-149-18.36-180.77-22.6C69.67,207.38,61.18,203.88,56.51,200.69Z"/><path class="cls-16" d="M298.23,211.24c27.54-6.35,111.06-13.86,134.62-15.89a16.79,16.79,0,0,0-4.57-1.64c1.49-.14-103.43,8.43-131.91,15-9.53,2.2-16.14,8.56-14.73,14.18,1.15,4.59,7.2,7.56,16.61,8.15,1.21.07,2.59.1,4.14.1,28,0,109.52-11.67,119.24-16.44,4.48-2.2,5.93-5.69,3.68-8.89-2.09-3-6.84-4.87-12.08-4.74-9.76.18-88.12,8.52-105.21,12.25-4.08.9-6.15,3-5.13,5.2,1.22,2.67,6.66,5.07,14.88,4.46,11.62-.86,87.44-12.06,90.66-12.54,1.31-.19,2.09-.94,1.74-1.67s-1.69-1.17-3-1c-.78.12-78.74,11.64-90.06,12.47-5.26.39-8.85-1-9.52-2.42-.39-.87.38-1.57,2.18-2,16.63-3.63,94.88-11.91,103.6-12.07,3.84,0,6.32,1.51,7.38,3,1.18,1.67,1.18,4.08-2.35,5.81-9.41,4.62-98,17-119.62,15.68-7.12-.44-11.5-2.5-12.33-5.81C285.38,218.12,290.76,213,298.23,211.24Z"/><path class="cls-17" d="M75.74,167.23c-14-2.42-21-8.92-19.33-20.18,2.44-16.05,10.78-19,29.71-22.9S250.35,112.9,250.35,112.9s160.7,24.71,165.46,27.94c6.11,4.14,4.27,7.25-3.05,8.28,13.28-1,22.59,24.58,2.44,29.5s-136.76,19.28-152,17.73S102.6,171.89,75.74,167.23Z"/><path class="cls-18" d="M287.22,167.85c-10.83,5.47-7.22,18.09,5.58,19.73s86.89-8.67,109-13.86c11.82-2.77,15.55-9.45,10-14.45s-31,.67-57,4.94-41.9,6-42.31,4c0,0,10.37-5.16,39-10.06C320.39,160.29,290.32,166.28,287.22,167.85Z"/><path class="cls-18" d="M86.12,124.15C67.19,128,58.85,131,56.41,147.05c-1.72,11.26,5.33,17.76,19.33,20.18,26.86,4.66,172.17,27.56,187.43,29.12.39,0,.89.05,1.41.07-9.77-14.81-5.93-28.19,5.3-40.1Z"/><path class="cls-19" d="M56.36,147.82c-1.26,10.77,5.71,17,19.38,19.41,26.86,4.66,172.17,27.56,187.43,29.12.39,0,.89.05,1.41.07a34.45,34.45,0,0,1-4.52-9.63C189.07,176.68,63.44,163,56.36,147.82Z"/><path class="cls-20" d="M68.57,129.1c6.41,1.65,15.35,3.77,27.93,6.43,38.46,8.16,166.06,22.52,171,23.68,4.31,1,120.39-12.76,146.7-19-17.33-4.83-163.8-27.36-163.8-27.36S105,120.27,86.12,124.15C78.75,125.66,73,127,68.57,129.1Z"/><path class="cls-21" d="M250.35,112.9s-33.82,1.71-70.94,3.92c62.17,1.88,137.62,3.62,180,32.15,23.69-3.19,45.21-6.45,54.79-8.71C396.82,135.43,250.35,112.9,250.35,112.9Z"/><path class="cls-22" d="M416.14,160.51c-2.07-3.33-6.25-5.39-11.29-5.22-5.48.11-103,11.89-108.81,17.58-1.72,1.68-3.8,4.14-1.9,6.06,1.73,1.74,5.71,2.22,13.36,1.58,11.59-1,87.75-12.74,91-13.24,1.31-.2,2.11-1,1.79-1.87s-1.62-1.34-2.95-1.14c-.79.12-79.14,12.22-90.47,13.17-7.45.62-8.57-.15-8.57-.15s-.31-.61,1.8-2.68c5.17-3.74,92.66-16,104.92-16.21a7.69,7.69,0,0,1,6.58,3.25c1.43,2.31,1.27,5.73-2.47,7.81-9.14,5.09-93.24,17.66-115,16.12-7.5-.53-12.08-2.63-12.89-5.9-1-4,3.89-8.72,11.08-10.77,20.09-5.73,103.39-16.29,125.23-19a10.27,10.27,0,0,0-4.74-.77c3.3-.46-100.77,10.75-122.49,16.94-9.25,2.64-15.23,8.69-13.9,14.09,1.16,4.71,7.42,7.81,17.17,8.51,1.21.08,2.63.12,4.23.12,26.64,0,104.27-11.27,114.57-17C417.88,168.7,418.24,163.9,416.14,160.51Z"/><path class="cls-23" d="M75.74,124.52c-14-2.43-21-8.92-19.33-20.18,2.44-16,10.78-19,29.71-22.91S250.35,70.18,250.35,70.18s160.7,24.71,165.46,27.94c6.11,4.14,4.27,7.25-3.05,8.28,13.28-1,22.59,24.58,2.44,29.5s-136.76,19.28-152,17.73S102.6,129.17,75.74,124.52Z"/><path class="cls-24" d="M287.22,125.13c-10.83,5.47-7.22,18.1,5.58,19.73s86.89-8.67,109-13.85c11.82-2.78,15.55-9.46,10-14.46s-31,.67-57,4.94-41.9,6-42.31,4c0,0,10.37-5.16,39-10.06C320.39,117.57,290.32,123.56,287.22,125.13Z"/><path class="cls-25" d="M86.12,81.43c-18.93,3.88-27.27,6.86-29.71,22.91-1.72,11.26,5.33,17.75,19.33,20.18,26.86,4.65,172.17,27.56,187.43,29.11l1.41.08c-9.77-14.82-5.93-28.19,5.3-40.11Z"/><path class="cls-26" d="M56.36,105.1c-1.26,10.77,5.71,17.05,19.38,19.42,26.86,4.65,172.17,27.56,187.43,29.11l1.41.08a34.63,34.63,0,0,1-4.52-9.64C189.07,134,63.44,120.27,56.36,105.1Z"/><path class="cls-27" d="M68.57,86.38C75,88,83.92,90.15,96.5,92.82c38.46,8.15,166.06,22.51,171,23.67,4.31,1,120.39-12.76,146.7-18.94-17.33-4.84-163.8-27.37-163.8-27.37S105,77.55,86.12,81.43C78.75,82.94,73,84.33,68.57,86.38Z"/><path class="cls-28" d="M250.35,70.18s-33.82,1.71-70.94,3.93c62.17,1.87,137.62,3.61,180,32.14,23.69-3.19,45.21-6.45,54.79-8.7C396.82,92.71,250.35,70.18,250.35,70.18Z"/><path class="cls-26" d="M416.14,117.79c-2.07-3.32-6.25-5.39-11.29-5.22-5.48.11-103,11.89-108.81,17.59-1.72,1.68-3.8,4.13-1.9,6.05,1.73,1.75,5.71,2.22,13.36,1.58,11.59-1,87.75-12.73,91-13.24,1.31-.2,2.11-1,1.79-1.87s-1.62-1.34-2.95-1.14c-.79.12-79.14,12.22-90.47,13.17-7.45.62-8.57-.14-8.57-.14s-.31-.62,1.8-2.68c5.17-3.75,92.66-16,104.92-16.22a7.72,7.72,0,0,1,6.58,3.26c1.43,2.3,1.27,5.72-2.47,7.8-9.14,5.09-93.24,17.66-115,16.12-7.5-.53-12.08-2.62-12.89-5.89-1-4,3.89-8.73,11.08-10.78,20.09-5.73,103.39-16.29,125.23-19a10.27,10.27,0,0,0-4.74-.77c3.3-.46-100.77,10.75-122.49,16.95C281,126,275,132,276.37,137.43c1.16,4.72,7.42,7.82,17.17,8.51,1.21.08,2.63.12,4.23.12,26.64,0,104.27-11.26,114.57-17C417.88,126,418.24,121.18,416.14,117.79Z"/></svg>