<svg id="Layer_1" data-name="Layer 1" xmlns="http://www.w3.org/2000/svg" xmlns:xlink="http://www.w3.org/1999/xlink" viewBox="0 0 512 400"><defs><style>.cls-1{fill:#426a96;}.cls-2{fill:url(#Áåçûìÿííûé_ãðàäèåíò_71);}.cls-3{fill:url(#Áåçûìÿííûé_ãðàäèåíò_71-2);}.cls-4{fill:url(#Áåçûìÿííûé_ãðàäèåíò_69);}.cls-5{fill:url(#Áåçûìÿííûé_ãðàäèåíò_71-3);}.cls-6{fill:#29476e;}.cls-7{fill:url(#Áåçûìÿííûé_ãðàäèåíò_71-4);}.cls-8{fill:url(#Áåçûìÿííûé_ãðàäèåíò_71-5);}.cls-9{fill:url(#Áåçûìÿííûé_ãðàäèåíò_71-6);}.cls-10{fill:url(#Áåçûìÿííûé_ãðàäèåíò_71-7);}.cls-11{fill:url(#Áåçûìÿííûé_ãðàäèåíò_71-8);}.cls-12{fill:url(#Áåçûìÿííûé_ãðàäèåíò_80);}.cls-13{fill:url(#Áåçûìÿííûé_ãðàäèåíò_71-9);}.cls-14{fill:url(#Áåçûìÿííûé_ãðàäèåíò_73);}.cls-15{fill:url(#Áåçûìÿííûé_ãðàäèåíò_80-2);}.cls-16{fill:url(#Áåçûìÿííûé_ãðàäèåíò_73-2);}.cls-17{fill:url(#Áåçûìÿííûé_ãðàäèåíò_69-2);}.cls-18{fill:url(#Áåçûìÿííûé_ãðàäèåíò_58);}.cls-19{fill:url(#Áåçûìÿííûé_ãðàäèåíò_58-2);}.cls-20{fill:url(#Áåçûìÿííûé_ãðàäèåíò_69-3);}.cls-21{fill:url(#Áåçûìÿííûé_ãðàäèåíò_58-3);}.cls-22{fill:url(#Áåçûìÿííûé_ãðàäèåíò_58-4);}.cls-23{fill:url(#Áåçûìÿííûé_ãðàäèåíò_73-3);}.cls-24{fill:url(#Áåçûìÿííûé_ãðàäèåíò_69-4);}.cls-25{fill:url(#Áåçûìÿííûé_ãðàäèåíò_69-5);}.cls-26{fill:url(#Áåçûìÿííûé_ãðàäèåíò_78);}.cls-27{fill:url(#Áåçûìÿííûé_ãðàäèåíò_78-2);}.cls-28{fill:url(#Áåçûìÿííûé_ãðàäèåíò_71-10);}.cls-29{fill:url(#Áåçûìÿííûé_ãðàäèåíò_74);}.cls-30{fill:url(#Áåçûìÿííûé_ãðàäèåíò_74-2);}.cls-31{fill:url(#Áåçûìÿííûé_ãðàäèåíò_71-11);}.cls-32{fill:url(#Áåçûìÿííûé_ãðàäèåíò_71-12);}.cls-33{fill:url(#Áåçûìÿííûé_ãðàäèåíò_74-3);}.cls-34{fill:url(#Áåçûìÿííûé_ãðàäèåíò_74-4);}.cls-35{fill:url(#Áåçûìÿííûé_ãðàäèåíò_74-5);}.cls-36{fill:url(#Áåçûìÿííûé_ãðàäèåíò_71-13);}.cls-37{fill:url(#Áåçûìÿííûé_ãðàäèåíò_71-14);}.cls-38{fill:url(#Áåçûìÿííûé_ãðàäèåíò_71-15);}.cls-39{fill:url(#Áåçûìÿííûé_ãðàäèåíò_74-6);}.cls-40{fill:url(#Áåçûìÿííûé_ãðàäèåíò_73-4);}.cls-41{fill:url(#Áåçûìÿííûé_ãðàäèåíò_73-5);}.cls-42{fill:url(#Áåçûìÿííûé_ãðàäèåíò_71-16);}.cls-43{fill:url(#Áåçûìÿííûé_ãðàäèåíò_71-17);}.cls-44{fill:url(#Áåçûìÿííûé_ãðàäèåíò_69-6);}.cls-45{fill:url(#Áåçûìÿííûé_ãðàäèåíò_58-5);}.cls-46{fill:url(#Áåçûìÿííûé_ãðàäèåíò_58-6);}.cls-47{fill:url(#Áåçûìÿííûé_ãðàäèåíò_69-7);}.cls-48{fill:url(#Áåçûìÿííûé_ãðàäèåíò_58-7);}.cls-49{fill:url(#Áåçûìÿííûé_ãðàäèåíò_71-18);}.cls-50{fill:url(#Áåçûìÿííûé_ãðàäèåíò_80-3);}.cls-51{fill:url(#Áåçûìÿííûé_ãðàäèåíò_71-19);}.cls-52{fill:url(#Áåçûìÿííûé_ãðàäèåíò_80-4);}.cls-53{fill:#335b7f;}</style><linearGradient id="Áåçûìÿííûé_ãðàäèåíò_71" x1="292.96" y1="112.65" x2="365.17" y2="450.51" gradientUnits="userSpaceOnUse"><stop offset="0" stop-color="#29476e"/><stop offset="0.04" stop-color="#2a4970"/><stop offset="1" stop-color="#426a96"/></linearGradient><linearGradient id="Áåçûìÿííûé_ãðàäèåíò_71-2" x1="134.37" y1="98.62" x2="213.63" y2="469.44" xlink:href="#Áåçûìÿííûé_ãðàäèåíò_71"/><linearGradient id="Áåçûìÿííûé_ãðàäèåíò_69" x1="252.6" y1="152.92" x2="280.78" y2="-152.25" gradientUnits="userSpaceOnUse"><stop offset="0" stop-color="#426a96"/><stop offset="0.81" stop-color="#638ebc"/><stop offset="1" stop-color="#6c97c6"/></linearGradient><linearGradient id="Áåçûìÿííûé_ãðàäèåíò_71-3" x1="252.24" y1="98.6" x2="258.35" y2="106.58" xlink:href="#Áåçûìÿííûé_ãðàäèåíò_71"/><linearGradient id="Áåçûìÿííûé_ãðàäèåíò_71-4" x1="255.12" y1="150.22" x2="261.23" y2="158.2" xlink:href="#Áåçûìÿííûé_ãðàäèåíò_71"/><linearGradient id="Áåçûìÿííûé_ãðàäèåíò_71-5" x1="257.01" y1="201.83" x2="263.12" y2="209.81" xlink:href="#Áåçûìÿííûé_ãðàäèåíò_71"/><linearGradient id="Áåçûìÿííûé_ãðàäèåíò_71-6" x1="257.89" y1="253.45" x2="264" y2="261.43" xlink:href="#Áåçûìÿííûé_ãðàäèåíò_71"/><linearGradient id="Áåçûìÿííûé_ãðàäèåíò_71-7" x1="258.78" y1="305.06" x2="264.89" y2="313.04" xlink:href="#Áåçûìÿííûé_ãðàäèåíò_71"/><linearGradient id="Áåçûìÿííûé_ãðàäèåíò_71-8" x1="259.7" y1="353.54" x2="265.81" y2="361.52" xlink:href="#Áåçûìÿííûé_ãðàäèåíò_71"/><linearGradient id="Áåçûìÿííûé_ãðàäèåíò_80" x1="268.71" y1="154.52" x2="417.31" y2="42.49" gradientUnits="userSpaceOnUse"><stop offset="0" stop-color="#7299c7"/><stop offset="0.3" stop-color="#6f96c3"/><stop offset="0.57" stop-color="#648bb9"/><stop offset="0.83" stop-color="#527aa6"/><stop offset="1" stop-color="#426a96"/></linearGradient><linearGradient id="Áåçûìÿííûé_ãðàäèåíò_71-9" x1="2807.87" y1="99.21" x2="2827.58" y2="99.21" gradientTransform="matrix(-1, 0, 0, 1, 2960.54, 0)" xlink:href="#Áåçûìÿííûé_ãðàäèåíò_71"/><linearGradient id="Áåçûìÿííûé_ãðàäèåíò_73" x1="353.33" y1="52.73" x2="396.71" y2="449.75" gradientUnits="userSpaceOnUse"><stop offset="0" stop-color="#426a96"/><stop offset="0.96" stop-color="#2a4970"/><stop offset="1" stop-color="#29476e"/></linearGradient><linearGradient id="Áåçûìÿííûé_ãðàäèåíò_80-2" x1="2761.78" y1="155.73" x2="2913.11" y2="41.64" gradientTransform="matrix(-1, 0, 0, 1, 3003.97, 0)" xlink:href="#Áåçûìÿííûé_ãðàäèåíò_80"/><linearGradient id="Áåçûìÿííûé_ãðàäèåíò_73-2" x1="121.18" y1="57.28" x2="163.81" y2="447.35" xlink:href="#Áåçûìÿííûé_ãðàäèåíò_73"/><linearGradient id="Áåçûìÿííûé_ãðàäèåíò_69-2" x1="630.54" y1="219.89" x2="630.54" y2="268.77" gradientTransform="matrix(-1, -0.05, -0.05, 1, 952.53, -22.57)" xlink:href="#Áåçûìÿííûé_ãðàäèåíò_69"/><linearGradient id="Áåçûìÿííûé_ãðàäèåíò_58" x1="631.03" y1="121.9" x2="628.51" y2="276.81" gradientTransform="matrix(-1, -0.05, -0.05, 1, 952.53, -22.57)" xlink:href="#Áåçûìÿííûé_ãðàäèåíò_73"/><linearGradient id="Áåçûìÿííûé_ãðàäèåíò_58-2" x1="395.39" y1="161.87" x2="393.14" y2="215.77" gradientTransform="translate(-69.2 -72.67) rotate(2.77)" xlink:href="#Áåçûìÿííûé_ãðàäèåíò_73"/><linearGradient id="Áåçûìÿííûé_ãðàäèåíò_69-3" x1="394.85" y1="172.48" x2="394.85" y2="180.93" gradientTransform="translate(-69.2 -72.67) rotate(2.77)" xlink:href="#Áåçûìÿííûé_ãðàäèåíò_69"/><linearGradient id="Áåçûìÿííûé_ãðàäèåíò_58-3" x1="392.28" y1="165.28" x2="393.88" y2="213.35" gradientTransform="translate(-69.2 -72.67) rotate(2.77)" xlink:href="#Áåçûìÿííûé_ãðàäèåíò_73"/><linearGradient id="Áåçûìÿííûé_ãðàäèåíò_58-4" x1="278.3" y1="82.89" x2="277.14" y2="49.48" xlink:href="#Áåçûìÿííûé_ãðàäèåíò_73"/><linearGradient id="Áåçûìÿííûé_ãðàäèåíò_73-3" x1="228.46" y1="84.63" x2="227.29" y2="51.22" xlink:href="#Áåçûìÿííûé_ãðàäèåíò_73"/><linearGradient id="Áåçûìÿííûé_ãðàäèåíò_69-4" x1="229.74" y1="-4.99" x2="228.74" y2="97.74" xlink:href="#Áåçûìÿííûé_ãðàäèåíò_69"/><linearGradient id="Áåçûìÿííûé_ãðàäèåíò_69-5" x1="280.25" y1="-4.5" x2="279.26" y2="98.23" xlink:href="#Áåçûìÿííûé_ãðàäèåíò_69"/><linearGradient id="Áåçûìÿííûé_ãðàäèåíò_78" x1="284.1" y1="66.64" x2="284.1" y2="-5.17" gradientUnits="userSpaceOnUse"><stop offset="0" stop-color="#426a96"/><stop offset="0.31" stop-color="#3f6691"/><stop offset="0.64" stop-color="#375a84"/><stop offset="1" stop-color="#29476e"/><stop offset="1" stop-color="#29476e"/></linearGradient><linearGradient id="Áåçûìÿííûé_ãðàäèåíò_78-2" x1="226.33" y1="66.64" x2="226.33" y2="-5.17" xlink:href="#Áåçûìÿííûé_ãðàäèåíò_78"/><linearGradient id="Áåçûìÿííûé_ãðàäèåíò_71-10" x1="238.98" y1="-107.71" x2="260.24" y2="390.65" xlink:href="#Áåçûìÿííûé_ãðàäèåíò_71"/><linearGradient id="Áåçûìÿííûé_ãðàäèåíò_74" x1="303.07" y1="-3.27" x2="301.71" y2="88.34" gradientUnits="userSpaceOnUse"><stop offset="0" stop-color="#426a96"/><stop offset="0.79" stop-color="#678fbc"/><stop offset="1" stop-color="#7299c7"/></linearGradient><linearGradient id="Áåçûìÿííûé_ãðàäèåíò_74-2" x1="209.6" y1="21.76" x2="208.66" y2="85.41" xlink:href="#Áåçûìÿííûé_ãðàäèåíò_74"/><linearGradient id="Áåçûìÿííûé_ãðàäèåíò_71-11" x1="263.78" y1="-64.78" x2="272.76" y2="352.85" xlink:href="#Áåçûìÿííûé_ãðàäèåíò_71"/><linearGradient id="Áåçûìÿííûé_ãðàäèåíò_71-12" x1="236.52" y1="51.06" x2="237.57" y2="99.75" xlink:href="#Áåçûìÿííûé_ãðàäèåíò_71"/><linearGradient id="Áåçûìÿííûé_ãðàäèåíò_74-3" x1="249.7" y1="33.21" x2="254.42" y2="252.96" xlink:href="#Áåçûìÿííûé_ãðàäèåíò_74"/><linearGradient id="Áåçûìÿííûé_ãðàäèåíò_74-4" x1="290.3" y1="-7.18" x2="283.98" y2="51.17" xlink:href="#Áåçûìÿííûé_ãðàäèåíò_74"/><linearGradient id="Áåçûìÿííûé_ãðàäèåíò_74-5" x1="229.35" y1="-8.59" x2="223.08" y2="49.3" xlink:href="#Áåçûìÿííûé_ãðàäèåíò_74"/><linearGradient id="Áåçûìÿííûé_ãðàäèåíò_71-13" x1="247.27" y1="335.16" x2="260.07" y2="395.06" xlink:href="#Áåçûìÿííûé_ãðàäèåíò_71"/><linearGradient id="Áåçûìÿííûé_ãðàäèåíò_71-14" x1="271.07" y1="292.29" x2="275.69" y2="400.48" xlink:href="#Áåçûìÿííûé_ãðàäèåíò_71"/><linearGradient id="Áåçûìÿííûé_ãðàäèåíò_71-15" x1="241.03" y1="307.25" x2="244.85" y2="396.8" xlink:href="#Áåçûìÿííûé_ãðàäèåíò_71"/><linearGradient id="Áåçûìÿííûé_ãðàäèåíò_74-6" x1="283.72" y1="310.2" x2="237.69" y2="525.01" xlink:href="#Áåçûìÿííûé_ãðàäèåíò_74"/><linearGradient id="Áåçûìÿííûé_ãðàäèåíò_73-4" x1="349.56" y1="32.16" x2="379.23" y2="303.75" xlink:href="#Áåçûìÿííûé_ãðàäèåíò_73"/><linearGradient id="Áåçûìÿííûé_ãðàäèåíò_73-5" x1="2870.84" y1="32.99" x2="2900.47" y2="304.12" gradientTransform="matrix(-1, 0, 0, 1, 3029.94, 0)" xlink:href="#Áåçûìÿííûé_ãðàäèåíò_73"/><linearGradient id="Áåçûìÿííûé_ãðàäèåíò_71-16" x1="353.43" y1="107.41" x2="375.55" y2="107.41" xlink:href="#Áåçûìÿííûé_ãðàäèåíò_71"/><linearGradient id="Áåçûìÿííûé_ãðàäèåíò_71-17" x1="2848.62" y1="107.49" x2="2871.03" y2="107.49" gradientTransform="matrix(-1, 0, 0, 1, 3003.97, 0)" xlink:href="#Áåçûìÿííûé_ãðàäèåíò_71"/><linearGradient id="Áåçûìÿííûé_ãðàäèåíò_69-6" x1="-1788.34" y1="91.34" x2="-1788.34" y2="140.21" gradientTransform="translate(1979.44 -38.28) rotate(-3.71)" xlink:href="#Áåçûìÿííûé_ãðàäèåíò_69"/><linearGradient id="Áåçûìÿííûé_ãðàäèåíò_58-5" x1="-1787.85" y1="-6.66" x2="-1790.38" y2="148.25" gradientTransform="translate(1979.44 -38.28) rotate(-3.71)" xlink:href="#Áåçûìÿííûé_ãðàäèåíò_73"/><linearGradient id="Áåçûìÿííûé_ãðàäèåíò_58-6" x1="2813.65" y1="35.75" x2="2811.41" y2="89.63" gradientTransform="matrix(-1, 0.06, 0.06, 1, 2999.74, -104.97)" xlink:href="#Áåçûìÿííûé_ãðàäèåíò_73"/><linearGradient id="Áåçûìÿííûé_ãðàäèåíò_69-7" x1="2813.23" y1="43.78" x2="2813.23" y2="52.22" gradientTransform="matrix(-1, 0.06, 0.06, 1, 2999.74, -104.97)" xlink:href="#Áåçûìÿííûé_ãðàäèåíò_69"/><linearGradient id="Áåçûìÿííûé_ãðàäèåíò_58-7" x1="2810.66" y1="36.58" x2="2812.25" y2="84.64" gradientTransform="matrix(-1, 0.06, 0.06, 1, 2999.74, -104.97)" xlink:href="#Áåçûìÿííûé_ãðàäèåíò_73"/><linearGradient id="Áåçûìÿííûé_ãðàäèåíò_71-18" x1="-3091.58" y1="355.37" x2="-2927.67" y2="25.72" gradientTransform="matrix(-1, 0, 0, 1, -2661.68, 0)" xlink:href="#Áåçûìÿííûé_ãðàäèåíò_71"/><linearGradient id="Áåçûìÿííûé_ãðàäèåíò_80-3" x1="340.33" y1="362.3" x2="503.82" y2="33.5" xlink:href="#Áåçûìÿííûé_ãðàäèåíò_80"/><linearGradient id="Áåçûìÿííûé_ãðàäèåíò_71-19" x1="-2834.92" y1="359.8" x2="-2669.3" y2="26.7" gradientTransform="matrix(-1, 0, 0, 1, -2661.68, 0)" xlink:href="#Áåçûìÿííûé_ãðàäèåíò_71"/><linearGradient id="Áåçûìÿííûé_ãðàäèåíò_80-4" x1="-2834.95" y1="367.87" x2="-2669.32" y2="34.77" gradientTransform="matrix(-1, 0, 0, 1, -2661.68, 0)" xlink:href="#Áåçûìÿííûé_ãðàäèåíò_80"/></defs><path class="cls-1" d="M375.55,55.35C373.64,54.55,293.6,25,293.6,25l-8.88,27.76S263.58,64.56,255.26,85C248,63.31,226,52.43,226,52.43L216.08,25C202.17,29.4,133,55.35,133,55.35l22.11,104s-11,173.28-2.77,205c41,25.69,93.77,35.49,93.77,35.49s4.73-15.37,10.45-28.5c6.77,18.36,11.28,30.15,11.28,30.15s24.32.26,88.4-42.42c39.32-26.2-2.31-200.91-2.31-200.91Z"/><path class="cls-2" d="M353.43,159.48l-4.33,71.7s0,.43-.1,1.21c-4.35,14.29-16.62,52-29.86,69.28-14.2,18.52,11.4,2.87,26.17-26.86-.38,4.31-.64,7.2-.67,7.37-.44,2.54-8.65,60.21-10.09,67.57-1,5.16-21.93,22.28-21.93,22.28l-10.75,18.43L333,377.56s4.73-17.23,4.81-17.37c6.84-12.06,18.52-82,18.52-82l4.49-56.06Z"/><path class="cls-3" d="M174,349.66c-1.09-5.57-6-39.87-8.6-57.39,1.78,2.71,4,6.18,6.93,10.64,13.17,20.32,44.9,31.53,28,18.15-11.24-8.9-30.73-41.2-37.68-53.07-1.32-15.1-3.2-36.9-3.2-36.9l-4-71.38L147.69,222l4.48,56.06s9.59,63.8,18.53,82c.32.67,3,18,3,18L208.4,389.8l-12.52-17S175,354.82,174,349.66Z"/><path class="cls-4" d="M160.91,151.05s-6.78-49.48,10.82-57.24,155.69-14.47,166.92-2.48,9.72,59.72,9.72,59.72Z"/><path class="cls-5" d="M257.84,100.73a3.1,3.1,0,0,1,0,4.46,3.22,3.22,0,0,1-4.53,0,3.12,3.12,0,0,1,0-4.46A3.24,3.24,0,0,1,257.84,100.73Z"/><path class="cls-6" d="M257.78,102.59a2.71,2.71,0,1,1-2.7-2.67A2.68,2.68,0,0,1,257.78,102.59Z"/><path class="cls-7" d="M260.73,152.35a3.12,3.12,0,0,1,0,4.46,3.25,3.25,0,0,1-4.54,0,3.12,3.12,0,0,1,0-4.46A3.24,3.24,0,0,1,260.73,152.35Z"/><path class="cls-6" d="M260.66,154.2a2.7,2.7,0,1,1-2.7-2.66A2.68,2.68,0,0,1,260.66,154.2Z"/><path class="cls-8" d="M262.61,204a3.12,3.12,0,0,1,0,4.46,3.22,3.22,0,0,1-4.53,0,3.12,3.12,0,0,1,0-4.46A3.24,3.24,0,0,1,262.61,204Z"/><path class="cls-6" d="M262.55,205.82a2.71,2.71,0,1,1-2.71-2.67A2.68,2.68,0,0,1,262.55,205.82Z"/><path class="cls-9" d="M263.5,255.58a3.12,3.12,0,0,1,0,4.46,3.25,3.25,0,0,1-4.54,0,3.12,3.12,0,0,1,0-4.46A3.24,3.24,0,0,1,263.5,255.58Z"/><path class="cls-6" d="M263.43,257.43a2.7,2.7,0,1,1-2.7-2.66A2.68,2.68,0,0,1,263.43,257.43Z"/><path class="cls-10" d="M264.38,307.19a3.12,3.12,0,0,1,0,4.46,3.22,3.22,0,0,1-4.53,0,3.12,3.12,0,0,1,0-4.46A3.24,3.24,0,0,1,264.38,307.19Z"/><path class="cls-6" d="M264.32,309.05a2.71,2.71,0,1,1-2.7-2.67A2.68,2.68,0,0,1,264.32,309.05Z"/><path class="cls-11" d="M265.31,355.67a3.12,3.12,0,0,1,0,4.46,3.25,3.25,0,0,1-4.54,0,3.12,3.12,0,0,1,0-4.46A3.25,3.25,0,0,1,265.31,355.67Z"/><path class="cls-6" d="M265.24,357.52a2.71,2.71,0,1,1-2.7-2.66A2.69,2.69,0,0,1,265.24,357.52Z"/><path class="cls-1" d="M375.55,55.35s11.52,5.5,16.84,33.95,18.63,132.2,19,141.49,4,39,0,55.28L355,274.88s3.21-52.09,4.36-55.15-3-77.19-3-77.19Z"/><path class="cls-12" d="M311.3,31.54s56.06,19.92,64.25,23.81,17.5,14.36,25.31,90.41c0,0-14.18-76-26.75-83.86S311.3,31.54,311.3,31.54Z"/><path class="cls-13" d="M133,55.44s16.57,81.86,19.23,87.18-6.65-51.19-8-54.52S133,55.44,133,55.44Z"/><path class="cls-14" d="M368.7,217c-.19-1.9-.78-5.92-1.61-11.16,3.63-14.54,9.12-35.17,13-43.52,4.57-10-8,8.6-16,25-3.52-20.91-7.73-44.74-7.73-44.74l-2.89,16.94,3.46,61.59L355,274.88l12.81,1.25s.28-26.37.58-43.6a38,38,0,0,1,19.37-16.81C404.15,209.47,380.85,210.26,368.7,217Z"/><path class="cls-1" d="M132.94,55.26s-11.52,5.5-16.84,33.95S97.48,221.41,97.15,230.7s-1,42,3,58.23l53.31-14.14s-3.2-52.09-4.35-55.15,3-77.19,3-77.19Z"/><path class="cls-15" d="M198.26,31.23s-57.13,20.14-65.32,24-17.49,14.36-25.31,90.41c0,0,14.19-76,26.76-83.86S198.26,31.23,198.26,31.23Z"/><path class="cls-16" d="M155.07,159.38l-2.9-16.93s-4.21,23.86-7.73,44.78c-8-16.21-20.1-34-15.6-24.22,3.72,8.12,9,27.81,12.63,42.26-1,6.1-1.62,10.62-1.72,12.2-12.27-6.49-34.83-7.18-18.61-1a37.93,37.93,0,0,1,19,16.18c.3,17.23.58,43.39.58,43.39l12.8-1.25L151.61,221Z"/><path class="cls-17" d="M345.21,190.82c-1.18.43-31.34,10.71-32.57,10.65S277.86,188.18,277.08,187s1.78-22.8,1.78-22.8S280.94,182.78,282,184s28.58,12.66,30.82,12.93S346.4,190.39,345.21,190.82Z"/><path class="cls-18" d="M280.21,116.77s-2.09,67.39-1.65,68.72,31.7,13.63,34.15,14.4,32.13-10.18,32.13-10.18L353.28,125s-3.8,65-5.24,67.2-34.61,10.06-35.47,10.67-38.74-14.95-38.74-14.95Z"/><path class="cls-19" d="M280.21,116.77s35.07,4,73.07,8.18C353.28,125,309.57,123.7,280.21,116.77Z"/><path class="cls-20" d="M280.21,116.77s22.23,10.9,73.07,8.18C353.28,125,314.3,124.31,280.21,116.77Z"/><path class="cls-21" d="M282.21,135.89s31.26,12,64,7.2C346.19,143.09,323,145.55,282.21,135.89Z"/><path class="cls-22" d="M250.07,104.23s3.77-9.77,8.93-16.56,8.73-11.8,8.73-11.8l15-4.25L307.07,77l-4-32.63L264.11,68.08,253.9,89.3Z"/><polygon class="cls-23" points="253.39 88.13 249.43 68.91 226 52.43 203.38 77.06 228.62 71.33 244.54 73.71 253.39 88.13"/><path class="cls-24" d="M252.73,66.85c-1-2.34-18.2-10.29-19.86-14.06s-11.31-21.33-11-49.45a26.24,26.24,0,0,0-7.7,7.53C209.33,18.66,202,29.55,202,29.55V78.18l24.93-19.57,22.06,12.85,5,17.84c.77-1.2,1.56-2.51,2.41-3.78C254.86,80.61,253.63,69,252.73,66.85Z"/><path class="cls-25" d="M287.64,3.34a51.24,51.24,0,0,1,8.21,8.56c3.23,4.48,12.73,19.17,12.73,19.17V78.18L283.65,58.61l-18.2,12L255.34,88.56l-5.27,15.67s1.33-11.71,3-15.34,6.4-19,7.4-21.38,15.54-11,17.2-14.72S288,31.46,287.64,3.34Z"/><path class="cls-26" d="M277,53.79c1.3-2.47,10.28-21.18,10.65-47.24L289,5s4.57,4.52.36,20.47S279.7,51,277,53.79Z"/><path class="cls-27" d="M233.57,53.79c-3.37-5-12.14-31.33-11.68-48.76l-1.42-.26a15.34,15.34,0,0,0-1.36,7.45C219.52,25,223.6,42.24,233.57,53.79Z"/><path class="cls-28" d="M251.8,93.28l-1.73,11,6.45,267.15s-1-5.12-1.87-13.52-6.87-247.95-6.54-254Z"/><path class="cls-29" d="M295.3,67.75l13.28,10.43V54.76S307,70.18,305.29,70.28,295.3,67.75,295.3,67.75Z"/><path class="cls-30" d="M201.86,61.9,202,78.18l14.13-11.09s-10.19,4.62-11.18,4.29S201.86,61.9,201.86,61.9Z"/><path class="cls-31" d="M271.72,70S265.11,100.64,264,103s3.81,253.4,3.81,253.4-2.47-250-1.56-253.4C266.7,101.27,271.72,70,271.72,70Z"/><path class="cls-32" d="M248.11,99.92s-9.18-23.55-9.43-24.18S226.33,67,226.33,67s13.47,8,14.34,8.35S248.11,99.92,248.11,99.92Z"/><path class="cls-33" d="M250.07,104.23l3.63,150.54S257,195.54,250.07,104.23Z"/><path class="cls-34" d="M290.51,20.52c-1,5.91-7.19,25.48-13.49,33.27,0,0,8.85-5.69,16.58-33.27,3.55-12.64-4.2-15-4.2-15A30.25,30.25,0,0,1,290.51,20.52Z"/><path class="cls-35" d="M233.57,53.79S222.49,41.46,219.77,20c-1.92-15.09,2.72-16.67,2.72-16.67a11.17,11.17,0,0,0-6.41,10.07C216.12,20.91,220.11,44.17,233.57,53.79Z"/><path class="cls-1" d="M255.34,88.56l10.11-17.93,18.2-12-2.83-2.07s-16.83,11.34-17.58,12S255.34,88.56,255.34,88.56Z"/><path class="cls-1" d="M226.88,58.61l3-2.07s19.66,11.34,20.24,12,3.32,18.88,3.32,18.88l-4.45-16Z"/><polygon class="cls-36" points="251.38 383.88 256.52 371.38 255.46 344 251.38 383.88"/><path class="cls-37" d="M281.77,396s-10.95-27.1-11.54-30.75S268,336.18,268,336.18s-.35,28.24,0,29.24S281.77,396,281.77,396Z"/><path class="cls-38" d="M235,393.73,252.31,343s-7.18,26.43-8.67,30.59S235,393.73,235,393.73Z"/><path class="cls-39" d="M268.72,399s-10.53-28.91-10.53-30.63S255.57,332,255.57,332s.48,38.09.95,39.36,7.31,22.29,10.42,28.66a3.94,3.94,0,0,0,.86,1.49c2.92,1.13,18.81-4,21-5.52C288.81,396,270.05,399.83,268.72,399Z"/><polygon class="cls-40" points="354.89 185.48 367.5 91.86 353.43 159.47 354.89 185.48"/><polygon class="cls-41" points="153.57 186.03 141.38 92.61 155.45 160.22 153.57 186.03"/><path class="cls-42" d="M375.55,55.35s-19.46,98.81-22.12,104.13C354.81,144.62,363,91.35,364.3,88S375.55,55.35,375.55,55.35Z"/><path class="cls-43" d="M132.94,55.26s19.75,99.14,22.41,104.45c-1.38-14.85-9.83-68.46-11.16-71.78S132.94,55.26,132.94,55.26Z"/><path class="cls-44" d="M168.07,193.34c1.19.41,31.52,10.19,32.75,10.11s34.56-13.86,35.31-15S234,165.63,234,165.63s-1.77,18.61-2.86,19.82-28.36,13.13-30.59,13.44S166.88,192.92,168.07,193.34Z"/><path class="cls-45" d="M231.86,118.22s3.18,67.35,2.77,68.69-31.47,14.14-33.91,15-32.29-9.65-32.29-9.65l-9.5-64.62s4.86,64.92,6.34,67.11S200,204.2,200.91,204.8s38.49-15.58,38.49-15.58Z"/><path class="cls-46" d="M231.86,118.22s-35,4.54-72.93,9.38C158.93,127.6,202.61,125.64,231.86,118.22Z"/><path class="cls-47" d="M231.86,118.22s-22.05,11.27-72.93,9.38C158.93,127.6,197.89,126.32,231.86,118.22Z"/><path class="cls-48" d="M230.16,137.38s-31,12.5-63.85,8.24C166.31,145.62,189.52,147.7,230.16,137.38Z"/><path class="cls-49" d="M414.48,250.2H355v28.64l59.85.3Q414.65,264.68,414.48,250.2Z"/><path class="cls-50" d="M355.6,257.43h59.5v28.64H355Q355.28,271.76,355.6,257.43Z"/><path class="cls-51" d="M156.4,253.85H96.9q1,14.32,2.06,28.65h59.62Q157.48,268.17,156.4,253.85Z"/><path class="cls-52" d="M156.64,261.81H97.13l1.53,28.64h60.15Z"/><path class="cls-53" d="M230.35.57a120.06,120.06,0,0,1,42.24-.72,117.35,117.35,0,0,1,15.05,3.49A40.79,40.79,0,0,1,287,17.53q-9.83-.27-19.89-.38-22.83-.24-44.52.38a35.59,35.59,0,0,1-.89-5,35.85,35.85,0,0,1,.2-9.2"/><path class="cls-53" d="M222.59,17.53A133.86,133.86,0,0,1,245.05,14,135.77,135.77,0,0,1,287,17.53a77.06,77.06,0,0,1-1.87,15.19A78,78,0,0,1,277,53.79c-4.13,3.81-13.8,11.17-16.56,13.72,0,0-4.63,13.75-4.88,14.51-1.73-9.78-2.85-15.17-2.85-15.17.4.29-15-9.51-19.16-13.06a74.74,74.74,0,0,1-11-36.26Z"/></svg>