<?xml version="1.0" encoding="utf-8"?>
<!-- Generator: Adobe Illustrator 25.2.3, SVG Export Plug-In . SVG Version: 6.00 Build 0)  -->
<svg version="1.1" id="Layer_1" xmlns="http://www.w3.org/2000/svg" xmlns:xlink="http://www.w3.org/1999/xlink" x="0px" y="0px"
	 viewBox="0 0 400 400" style="enable-background:new 0 0 400 400;" xml:space="preserve">
<style type="text/css">
	.st0{fill:#FFFFFF;}
	.st1{clip-path:url(#SVGID_2_);}
	.st2{fill:#D58147;}
	.st3{fill:#E79657;}
	.st4{fill:#F7AF71;}
	.st5{fill:#C66A38;}
	.st6{fill:#D48245;}
	.st7{fill:#D48247;}
	.st8{fill:#F9AF71;}
	.st9{fill:#EA955B;}
	.st10{fill:#BA1A5C;}
	.st11{fill:#FD181B;}
	.st12{fill:#D8804A;}
	.st13{fill:#F8AF73;}
	.st14{fill:#754C2F;}
	.st15{fill:none;stroke:#754C2F;stroke-miterlimit:10;}
	.st16{opacity:0.1;fill:#FFFFFF;enable-background:new    ;}
	.st17{fill:#65442A;stroke:#683D1F;stroke-miterlimit:10;}
	.st18{fill:#995E36;}
	.st19{fill:#D7844E;}
</style>
<circle class="st0" cx="200" cy="200" r="196.5"/>
<g>
	<defs>
		<circle id="SVGID_1_" cx="200" cy="200" r="196.5"/>
	</defs>
	<clipPath id="SVGID_2_">
		<use xlink:href="#SVGID_1_"  style="overflow:visible;"/>
	</clipPath>
	<g class="st1">
		
			<ellipse transform="matrix(0.4037 -0.9149 0.9149 0.4037 -114.3751 416.8109)" class="st2" cx="262.6" cy="296.1" rx="45.6" ry="27.9"/>
		<path class="st2" d="M333.8,297.2c0-3.7-0.7-17.9-16.2-23.1c-10.1-3.4-23.4,5.2-26.6,9.3s-19.4,24.3-27.9,34.3s-23.8,17-23.8,17
			s23.5,24.4,58.5,15.5C330.7,341.7,333.8,309.9,333.8,297.2z"/>
		<path class="st3" d="M285.9,305.1c-8.5,18.1-5.9,37.1,5.7,42.5s27.9-4.8,36.3-22.9s8.2-39.4-3.4-44.8S294.4,287,285.9,305.1z"/>
		
			<ellipse transform="matrix(0.4239 -0.9057 0.9057 0.4239 -115.7574 462.8148)" class="st4" cx="305.9" cy="322.4" rx="28.9" ry="18.3"/>
		<path class="st5" d="M281.9,254.6c0,0,7.9,54.4-49.5,66.3c0,0,0.2,7.8,6.1,12.7C238.4,333.6,303.3,306.3,281.9,254.6z"/>
		
			<ellipse transform="matrix(0.9149 -0.4037 0.4037 0.9149 -107.4177 83.907)" class="st2" cx="145.3" cy="296.7" rx="27.9" ry="45.6"/>
		<path class="st5" d="M143.6,186c0,0-52.4,9.8-60.9,54.8c0,0-1.3,25.4,13.9,28.1s21.3-14.2,23.7-20.6s10.1-38.5,26.4-45
			S159.1,182.3,143.6,186z"/>
		<path class="st6" d="M140.7,189.5c-17.1,4-46.1,19.6-52.3,47c-1.3,5.9-2.2,20.4,9.4,22.8s16.7-9.5,19.2-16.2
			c1.8-4.9,9.7-32.7,25.7-40.3C154.7,197,152.6,186.7,140.7,189.5z"/>
		<path class="st5" d="M265.3,186c0,0,52.4,9.8,60.9,54.8c0,0,1.4,25.4-13.9,28.1s-21.3-14.2-23.7-20.6s-10.1-38.5-26.4-45
			S249.7,182.3,265.3,186z"/>
		<path class="st6" d="M268.1,189.5c17.1,4,46.1,19.6,52.3,47c1.3,5.9,2.2,20.4-9.4,22.8s-16.7-9.5-19.2-16.2
			c-1.8-4.9-9.7-32.7-25.7-40.3C254.1,197,256.2,186.7,268.1,189.5z"/>
		<path class="st7" d="M150.6,185.8c0,0-40.6,61.5-17.6,106.8s120.9,37.6,138.6,8.8c10.8-17.6,21.6-50-12.2-116.3
			C259.5,185.2,200,142.5,150.6,185.8z"/>
		<path class="st8" d="M172.1,198.4c0,0-24.5,48.1-10.6,75.5s73.1,22.7,83.8,5.3c6.5-10.6,15.1-43.2-5.3-83.2
			C240,196,202,172.2,172.1,198.4z"/>
		<path class="st9" d="M165,214.2c0,0,23.1,25.1,79.9,21.3c0,0,10.1-1.4,14.5-6c8.4-8.8-8.6-19.6-8.6-19.6s-19.1,12-42.4,12
			S172.2,217.6,165,214.2z"/>
		<path class="st2" d="M74.1,297.7c0-3.7,0.7-17.9,16.2-23.1c10.1-3.4,23.4,5.2,26.6,9.2s19.4,24.3,28,34.3s23.8,17,23.8,17
			s-23.6,24.4-58.5,15.5C77.2,342.2,74.1,310.4,74.1,297.7z"/>
		<path class="st3" d="M122,305.6c8.4,18.1,5.9,37.1-5.7,42.5s-27.9-4.8-36.3-22.9s-8.2-39.4,3.4-44.9S113.5,287.5,122,305.6z"/>
		
			<ellipse transform="matrix(0.9057 -0.4239 0.4239 0.9057 -127.2576 73.6624)" class="st4" cx="102" cy="322.9" rx="18.3" ry="28.9"/>
		<path class="st5" d="M126,255.1c0,0-7.9,54.4,49.5,66.3c0,0-0.2,7.8-6.1,12.7C169.5,334.1,104.6,306.8,126,255.1z"/>
		<path class="st10" d="M139.3,187.8c0,0-1.4,6.3,0,9s25.6,25.7,66.2,25s58.3-22,61.3-24.3s1.4-11.4,1.3-11.3
			c-4,4-25.1,26.4-61.6,27.6C168.6,214.9,139.3,187.8,139.3,187.8z"/>
		<path class="st11" d="M145.7,182.4c0,0-7.8,4-6.4,6.8s25.6,25.7,66.2,25s58.3-22,61.3-24.4s0.7-10.1-4-7.1S243,205,206.4,206.1
			C168.6,207.3,145.7,182.4,145.7,182.4z"/>
		<path class="st11" d="M236.8,202.1c0,0,8-4.3,9,8.6s-2.1,40.4-5.6,46.1s9.2,5.6,19.4,2.2s15.9-12.1,17.9-14c0,0,4-28.3-19.6-51.6
			L236.8,202.1z"/>
		<ellipse class="st12" cx="204.7" cy="131.9" rx="80.9" ry="74.2"/>
		<path class="st5" d="M285.6,131.9c0,41-36.2,74.2-80.9,74.2s-80.9-33.2-80.9-74.2c0,0,33.9-5.1,79,18.2
			C244.5,171.6,285.6,131.9,285.6,131.9z"/>
		<ellipse class="st13" cx="204" cy="155" rx="38.3" ry="28.6"/>
		<path class="st14" d="M220.3,144.2c0,3.5-7,6.3-15.7,6.3s-15.7-2.8-15.7-6.3s7-10,15.7-10S220.3,140.7,220.3,144.2z"/>
		<path class="st15" d="M204.6,146.6v13.2c0,0-2.5,4.1-9.1,4.1c-4.5,0-8.2-3.3-8.6-7.8"/>
		<path class="st15" d="M204.6,146.6v13.2c0,0,2.5,4.1,9.1,4.1c4.5,0,8.2-3.3,8.6-7.8"/>
		<path class="st16" d="M216.5,141.8c0,2.6-5.3,4.8-11.9,4.8s-11.9-2.1-11.9-4.8s5.3-7.6,11.9-7.6S216.5,139.1,216.5,141.8z"/>
		<circle class="st17" cx="171.4" cy="118" r="10.4"/>
		<circle class="st18" cx="175.3" cy="113.7" r="3.5"/>
		<circle class="st17" cx="238" cy="118" r="10.4"/>
		<circle class="st18" cx="241.8" cy="113.7" r="3.5"/>
		<path class="st19" d="M132.9,100.1c0,0-8.1,0.9-14.8-2.2s-17-13.2-16.5-19.6s4.1-15.5,10.8-22s23.2-20.3,31.8-14.1
			s16,13.4,16.3,24.2S132.9,100.1,132.9,100.1z"/>
		<path class="st13" d="M134.4,87.8c-2.2,0.9-7.4,1.8-11.6-0.1s-10.6-8.2-10.3-12.3c0.6-5.2,3-10.1,6.7-13.8
			c4.2-4,14.5-12.7,19.9-8.8s10,8.4,10.2,15.1S140.7,85.1,134.4,87.8z"/>
		<path class="st19" d="M277.2,100.1c0,0,8.1,0.9,14.8-2.2s17-13.2,16.5-19.6s-4.1-15.5-10.8-22S274.6,36,266,42.2
			s-16,13.4-16.3,24.2S277.2,100.1,277.2,100.1z"/>
		<path class="st13" d="M275.7,87.8c2.1,0.9,7.4,1.8,11.6-0.1s10.6-8.2,10.3-12.3c-0.6-5.2-3-10.1-6.7-13.8
			c-4.2-4-14.5-12.7-19.9-8.8s-10,8.4-10.2,15.1S269.4,85.1,275.7,87.8z"/>
	</g>
</g>
</svg>
