<?xml version="1.0" encoding="UTF-8"?><svg id="Layer_1" xmlns="http://www.w3.org/2000/svg" xmlns:xlink="http://www.w3.org/1999/xlink" viewBox="0 0 1920 900"><defs><style>.cls-1{fill:#f8e2b9;}.cls-2{fill:#c4b7a3;}.cls-3{fill:#cdaa6a;}.cls-4{clip-path:url(#clippath);}.cls-5{fill:none;}.cls-6{fill:#a39889;}</style><clipPath id="clippath"><rect class="cls-5" width="1920" height="900"/></clipPath></defs><g id="Layer_1-2"><g class="cls-4"><g><path class="cls-1" d="M121.32,755.1c-2.13,42.23-4.31,84.72,2.22,126.8,1.57,4.29,2.49,8.8,2.72,13.36H1945.87c-.72-13.32-1.25-26.65-1.67-40-.75-23.61-1.41-47.22-2.91-70.82l-204.21-96.94H284.3l-162.07,47.33c-.26,6.78-.56,13.54-.91,20.27Z"/><path class="cls-2" d="M2005.22,878.89c-1-29.55-1.76-59.11-3.86-88.64-1.81-25.48-4.19-50.92-5.61-76.41l-64.44-30.26-1931.89-.06-50.42,86.26,27,152H2007c-.76-14.28-1.35-28.58-1.78-42.89Z"/><path class="cls-6" d="M-44.17,823H2001l-3.53-2-2041.55-.56-.09,2.56Z"/><path class="cls-6" d="M-41.56,746.7H2007l-3.83-1.84-2044.66-.76c-.02,.9-.04,1.74-.07,2.6Z"/><path class="cls-6" d="M14.4,955l406.6-260.75-3.14-2.76L14,946.71c.12,2.76,.26,5.53,.4,8.29Z"/><path class="cls-6" d="M399,922.34l221-218.61-2.53-1-224.92,219.58,6.45,.03Z"/><path class="cls-6" d="M688.84,928.89l130.59-239-2.45-.43-132.86,239.46,4.72-.03Z"/><path class="cls-6" d="M980.48,1045.39l9.4-366.15-3.37,1-11.76,365.34,5.73-.19Z"/><path class="cls-6" d="M1321.47,1044.56l-138.31-363.82-2.74,2.26,134.76,361.57h6.29Z"/><path class="cls-6" d="M1700.05,1043.54l-339.13-348.1-1.73,3.41,331.51,344.73,9.35-.04Z"/><path class="cls-6" d="M1944.31,946.88l-388.18-266-1.05,3.66,389.42,270.6c-.07-2.75-.13-5.51-.19-8.26Z"/><polygon class="cls-3" points="-31 708.58 1964.97 705.82 1965 678.29 -31 681.05 -31 708.58"/><rect class="cls-5" width="1920" height="900"/></g></g></g></svg>