<?xml version="1.0" encoding="UTF-8"?><svg id="Layer_1" xmlns="http://www.w3.org/2000/svg" viewBox="0 0 226.08 253.96"><defs><style>.cls-1{fill:#f0b081;}.cls-2{fill:#fff;}.cls-3,.cls-4,.cls-5,.cls-6,.cls-7,.cls-8,.cls-9,.cls-10,.cls-11,.cls-12{font-family:CoopHeavy, CoopHeavy;isolation:isolate;}.cls-3,.cls-4,.cls-6,.cls-9,.cls-11{fill:none;stroke-miterlimit:10;}.cls-3,.cls-6,.cls-9,.cls-11{stroke:#f9f9f9;}.cls-3,.cls-7{font-size:89.5px;}.cls-4{stroke:#f9f7f8;}.cls-4,.cls-5{font-size:73.49px;}.cls-5{fill:#3865f4;}.cls-13{fill:#5c3829;}.cls-6,.cls-10{font-size:74.72px;}.cls-7{fill:#14f4ee;}.cls-8{fill:#00b2ad;}.cls-8,.cls-9{font-size:68.62px;}.cls-14{fill:#794d3b;}.cls-15{fill:#d46255;fill-rule:evenodd;}.cls-16{fill:#1c51f9;}.cls-10{fill:#069cf9;}.cls-11,.cls-12{font-size:76.07px;}.cls-12{fill:#fc425d;}</style></defs><rect class="cls-1" x="2.49" y="2.8" width="221.1" height="248.37"/><rect class="cls-14" x="18.18" y="20.43" width="189.72" height="213.12"/><polygon class="cls-13" points="203.77 20.43 203.77 228.83 18.18 228.83 18.18 233.55 207.9 233.55 207.9 20.43 203.77 20.43"/><path class="cls-2" d="M90.04,115.47l.14-1.27c.37-3.36,1.48-6.6,3.24-9.48,1.79-3,5.18-6.74,10.36-11.55,2.64-2.31,5.09-4.82,7.33-7.52,1.03-1.43,1.61-3.13,1.67-4.89,.11-1.4-.36-2.79-1.29-3.84-1-.92-2.33-1.38-3.68-1.29-1.36-.08-2.7,.41-3.68,1.36-.92,.93-1.46,2.59-1.61,4.94l-.08,1.18-11.33-1.14,.13-1.14c.57-5.27,2.41-9.14,5.49-11.49,3.27-2.39,7.25-3.62,11.3-3.48,4.94,0,8.89,1.37,11.75,4.07,2.84,2.61,4.42,6.32,4.35,10.18,.01,2.22-.41,4.43-1.23,6.49-.95,2.27-2.23,4.4-3.78,6.31-1.84,2.2-3.85,4.25-6,6.15-2.82,2.59-4.61,4.31-5.33,5.12-.18,.21-.36,.41-.52,.61h16.9v10.68h-34.13Z"/><path class="cls-16" d="M122.96,105.93v8.39h-31.67c.36-3.19,1.42-6.26,3.09-9,1.72-2.84,5.11-6.61,10.16-11.31,4.07-3.79,6.57-6.36,7.49-7.71,1.16-1.61,1.82-3.54,1.87-5.53,.11-1.71-.48-3.39-1.63-4.65-2.61-2.2-6.43-2.17-9,.08-1.12,1.14-1.76,3.03-1.93,5.66l-9-.9c.54-4.97,2.21-8.54,5-10.71,3.1-2.24,6.87-3.37,10.7-3.2,4.67,0,8.33,1.25,11,3.76,2.62,2.39,4.08,5.8,4,9.35,.01,2.07-.38,4.13-1.14,6.06-.91,2.16-2.13,4.19-3.62,6-1.82,2.14-3.8,4.15-5.91,6-2.85,2.61-4.66,4.35-5.42,5.2-.7,.77-1.32,1.61-1.85,2.51h17.86Z"/><polygon class="cls-15" points="106.23 60.77 106.79 60.76 107.07 60.78 107.11 61.21 107.17 61.92 107.24 61.24 107.3 60.79 107.62 60.81 108.14 60.8 108.2 61.51 108.31 60.84 109.33 60.89 109.33 61.08 109.4 61.79 109.46 61.11 109.52 60.89 110.44 60.92 110.16 69.3 108.77 69.25 108.73 68.82 108.65 68.15 108.58 68.84 108.49 69.24 107.52 69.19 107.44 68.33 107.33 69.2 106.54 69.2 106.5 68.54 106.43 67.86 106.36 68.55 106.26 69.18 105.94 69.15 106.23 60.77"/><text class="cls-7" transform="translate(40.54 103.88)"><tspan x="0" y="0">1</tspan></text><text class="cls-3" transform="translate(40.54 103.88)"><tspan x="0" y="0">1</tspan></text><polygon class="cls-15" points="52.46 41.57 53.02 41.56 53.3 41.58 53.34 42.01 53.4 42.72 53.47 42.04 53.53 41.58 53.85 41.61 54.37 41.59 54.43 42.31 54.55 41.64 55.56 41.69 55.56 41.88 55.63 42.59 55.7 41.91 55.75 41.69 56.68 41.72 56.39 50.1 55 50.05 54.96 49.62 54.88 48.95 54.82 49.64 54.72 50.03 53.75 49.99 53.67 49.13 53.56 49.99 52.77 49.99 52.74 49.33 52.66 48.66 52.59 49.35 52.49 49.98 52.17 49.95 52.46 41.57"/><text class="cls-10" transform="translate(152.73 97.08) scale(.98 1)"><tspan x="0" y="0">3</tspan></text><text class="cls-6" transform="translate(152.73 97.08) scale(.98 1)"><tspan x="0" y="0">3</tspan></text><text class="cls-12" transform="translate(31.27 207.61)"><tspan x="0" y="0">4</tspan></text><text class="cls-11" transform="translate(31.27 207.61)"><tspan x="0" y="0">4</tspan></text><polygon class="cls-15" points="168.77 42.34 169.33 42.33 169.61 42.35 169.65 42.78 169.71 43.49 169.78 42.81 169.84 42.36 170.16 42.38 170.68 42.37 170.74 43.08 170.85 42.41 171.87 42.46 171.87 42.65 171.94 43.36 172 42.68 172.06 42.46 172.98 42.49 172.7 50.87 171.31 50.82 171.27 50.39 171.19 49.72 171.12 50.41 171.03 50.8 170.06 50.76 169.98 49.9 169.87 50.77 169.08 50.77 169.04 50.11 168.97 49.43 168.9 50.12 168.8 50.75 168.48 50.72 168.77 42.34"/><polygon class="cls-15" points="55.02 151.79 55.58 151.78 55.86 151.8 55.9 152.23 55.96 152.94 56.03 152.26 56.09 151.81 56.41 151.84 56.93 151.82 57 152.53 57.11 151.86 58.12 151.91 58.13 152.1 58.19 152.81 58.26 152.13 58.31 151.91 59.24 151.94 58.95 160.32 57.56 160.27 57.52 159.84 57.44 159.17 57.38 159.86 57.28 160.26 56.31 160.21 56.23 159.36 56.12 160.22 55.33 160.22 55.3 159.56 55.22 158.88 55.16 159.57 55.05 160.2 54.73 160.17 55.02 151.79"/><text class="cls-5" transform="translate(153.7 207.64)"><tspan x="0" y="0">6</tspan></text><text class="cls-4" transform="translate(153.7 207.64)"><tspan x="0" y="0">6</tspan></text><polygon class="cls-15" points="174.9 153.63 175.46 153.62 175.73 153.64 175.77 154.07 175.84 154.78 175.91 154.1 175.97 153.65 176.29 153.68 176.81 153.66 176.87 154.37 176.98 153.7 178 153.75 178 153.94 178.07 154.65 178.13 153.97 178.19 153.75 179.11 153.78 178.83 162.16 177.43 162.11 177.4 161.68 177.32 161.01 177.25 161.7 177.16 162.1 176.19 162.05 176.11 161.19 176 162.06 175.2 162.06 175.17 161.4 175.1 160.72 175.03 161.41 174.93 162.04 174.61 162.01 174.9 153.63"/><text class="cls-8" transform="translate(102.71 181.19)"><tspan x="0" y="0">5</tspan></text><text class="cls-9" transform="translate(102.71 181.19)"><tspan x="0" y="0">5</tspan></text><polygon class="cls-15" points="117.88 129.98 118.44 129.97 118.72 129.99 118.76 130.42 118.83 131.13 118.89 130.45 118.95 129.99 119.27 130.02 119.79 130.01 119.86 130.72 119.97 130.05 120.98 130.1 120.99 130.29 121.05 131 121.12 130.32 121.17 130.1 122.1 130.13 121.81 138.51 120.42 138.46 120.38 138.03 120.31 137.36 120.24 138.05 120.15 138.44 119.17 138.4 119.1 137.54 118.99 138.41 118.19 138.41 118.16 137.74 118.08 137.07 118.02 137.76 117.92 138.39 117.6 138.36 117.88 129.98"/></svg>