<?xml version="1.0" encoding="UTF-8"?><svg id="Layer_1" xmlns="http://www.w3.org/2000/svg" xmlns:xlink="http://www.w3.org/1999/xlink" viewBox="0 0 618.77 451.03"><defs><style>.cls-1{fill:url(#linear-gradient-2);}.cls-2,.cls-3{fill:#fff;}.cls-4{fill:#edb985;}.cls-5{fill:#e8ae79;}.cls-6{fill:url(#linear-gradient-4);}.cls-6,.cls-7,.cls-8,.cls-9,.cls-10,.cls-3,.cls-11{isolation:isolate;}.cls-6,.cls-10{opacity:.1;}.cls-12{fill:#d8bb9c;}.cls-13{fill:url(#linear-gradient-6);}.cls-7{opacity:.5;}.cls-7,.cls-14{fill:#c17931;}.cls-15{fill:#bc8158;}.cls-8{fill:url(#linear-gradient-10);}.cls-8,.cls-9,.cls-3{opacity:.2;}.cls-16{fill:url(#linear-gradient-11);}.cls-17{fill:#b17839;}.cls-18{fill:#6d3504;}.cls-9{fill:#432918;}.cls-19{fill:#d08b4a;}.cls-20{fill:#9e6946;}.cls-10{fill:url(#linear-gradient-8);}.cls-21{fill:url(#linear-gradient-5);}.cls-22{fill:#89573b;}.cls-23{fill:url(#linear-gradient-7);}.cls-24{fill:#ab6a35;}.cls-25{fill:url(#linear-gradient-9);}.cls-26{fill:url(#linear-gradient-3);}.cls-27{fill:#e8a264;}.cls-28{fill:#227376;}.cls-29{fill:url(#linear-gradient);}.cls-30{fill:#745a5d;}.cls-31{fill:#c6c6c6;}.cls-11{fill:#9b8174;opacity:.4;}</style><linearGradient id="linear-gradient" x1="167.2" y1="-2736.41" x2="303.91" y2="-2736.41" gradientTransform="translate(0 -2633.31) scale(1 -1)" gradientUnits="userSpaceOnUse"><stop offset="0" stop-color="#a35c15"/><stop offset=".27" stop-color="#aa641d"/><stop offset=".69" stop-color="#be7835"/><stop offset="1" stop-color="#d08b4a"/></linearGradient><linearGradient id="linear-gradient-2" x1="173.47" y1="-2736.41" x2="297.64" y2="-2736.41" gradientTransform="translate(0 -2633.31) scale(1 -1)" gradientUnits="userSpaceOnUse"><stop offset="0" stop-color="#c88b4d"/><stop offset=".43" stop-color="#cf9255"/><stop offset="1" stop-color="#dfa268"/></linearGradient><linearGradient id="linear-gradient-3" x1="235.53" y1="-2794.51" x2="235.53" y2="-2811.75" gradientTransform="translate(0 -2633.31) scale(1 -1)" gradientUnits="userSpaceOnUse"><stop offset=".02" stop-color="#9d5607"/><stop offset=".42" stop-color="#9b5507"/><stop offset=".66" stop-color="#925006"/><stop offset=".85" stop-color="#844806"/><stop offset="1" stop-color="#733f05"/></linearGradient><linearGradient id="linear-gradient-4" x1="172.71" y1="-2803.15" x2="298.36" y2="-2803.15" gradientTransform="translate(0 -2633.31) scale(1 -1)" gradientUnits="userSpaceOnUse"><stop offset="0" stop-color="#000"/><stop offset=".49" stop-color="#fff"/><stop offset="1" stop-color="#000"/></linearGradient><linearGradient id="linear-gradient-5" x1="172.71" y1="-2803.15" x2="298.36" y2="-2803.15" xlink:href="#linear-gradient"/><linearGradient id="linear-gradient-6" x1="235.68" y1="-2639.86" x2="235.68" y2="-2679.81" gradientTransform="translate(0 -2633.31) scale(1 -1)" gradientUnits="userSpaceOnUse"><stop offset="0" stop-color="#b17839"/><stop offset="0" stop-color="#b17839"/><stop offset=".11" stop-color="#a86923"/><stop offset=".22" stop-color="#a25e13"/><stop offset=".35" stop-color="#9e580a"/><stop offset=".54" stop-color="#9d5607"/><stop offset=".73" stop-color="#9b5507"/><stop offset=".84" stop-color="#925006"/><stop offset=".93" stop-color="#844806"/><stop offset="1" stop-color="#733f05"/></linearGradient><linearGradient id="linear-gradient-7" x1="235.68" y1="-2650.23" x2="235.68" y2="-2679.83" gradientTransform="translate(0 -2633.31) scale(1 -1)" gradientUnits="userSpaceOnUse"><stop offset="0" stop-color="#b17839"/><stop offset=".26" stop-color="#a96a24"/><stop offset=".61" stop-color="#a05b0f"/><stop offset=".83" stop-color="#9d5607"/><stop offset=".9" stop-color="#9b5507"/><stop offset=".94" stop-color="#925006"/><stop offset=".97" stop-color="#844806"/><stop offset="1" stop-color="#733f05"/></linearGradient><linearGradient id="linear-gradient-8" x1="159.78" y1="-2659.84" x2="311.58" y2="-2659.84" xlink:href="#linear-gradient-4"/><linearGradient id="linear-gradient-9" x1="159.78" y1="-2659.84" x2="311.58" y2="-2659.84" xlink:href="#linear-gradient"/><linearGradient id="linear-gradient-10" x1="235.53" y1="-2641.06" x2="235.53" y2="-2669.97" gradientTransform="translate(0 -2633.31) scale(1 -1)" gradientUnits="userSpaceOnUse"><stop offset="0" stop-color="#fff"/><stop offset="1" stop-color="#1d1d1b"/></linearGradient><linearGradient id="linear-gradient-11" x1="236.12" y1="-2920.7" x2="236.12" y2="-2902" gradientTransform="translate(0 -2633.31) scale(1 -1)" gradientUnits="userSpaceOnUse"><stop offset="0" stop-color="#733f05"/><stop offset=".02" stop-color="#814706"/><stop offset=".06" stop-color="#914f06"/><stop offset=".11" stop-color="#9a5407"/><stop offset=".17" stop-color="#9d5607"/><stop offset=".5" stop-color="#9b5507"/><stop offset=".69" stop-color="#925006"/><stop offset=".84" stop-color="#844806"/><stop offset=".96" stop-color="#733f05"/></linearGradient></defs><rect class="cls-11" x="37" y="416.79" width="498.05" height="28.73"/><path class="cls-11" d="M161,361.13l-19.53,43c-2.25,5,1.57,10.51,7.21,10.48l176.35-1.13c4.14,.12,7.59-3.15,7.71-7.29,.04-1.25-.24-2.49-.81-3.6l-21.57-40.66c-1.38-2.52-4.01-4.08-6.88-4.09l-135.22-1.2c-3.09-.07-5.94,1.69-7.26,4.49Z"/><path class="cls-29" d="M174.45,166.65c-.51-43.49-2.74-90.47-7.25-123.14,45.42-5.3,91.29-5.3,136.71,0-4.51,32.67-6.74,79.65-7.25,123.14-40.64-3.97-81.57-3.97-122.21,0Z"/><path class="cls-1" d="M180.05,160.82c-.46-39.5-2.48-82.17-6.58-111.84,41.25-4.81,82.92-4.81,124.17,0-4.1,29.67-6.12,72.34-6.58,111.84-36.92-3.61-74.09-3.61-111.01,0Z"/><path class="cls-4" d="M185.66,154.99c-.41-35.51-2.23-73.87-5.91-100.55,37.08-4.3,74.53-4.29,111.61,.04-3.68,26.68-5.5,65-5.91,100.55-33.18-3.26-66.6-3.28-99.79-.04Z"/><path class="cls-26" d="M298.36,178.48c-42.09-3.91-84-4.38-125.65,0v-14c41.77-4.38,83.88-4.38,125.65,0v14Z"/><path class="cls-18" d="M172.72,178.48v.72c41.6-4.38,83.56-3.91,125.65,0v-.72c-42.09-3.94-84.01-4.41-125.65,0Z"/><path class="cls-17" d="M172.72,163.8v.68c41.77-4.37,83.87-4.37,125.64,0v-.69c-41.77-4.37-83.87-4.37-125.64,.01Z"/><path class="cls-6" d="M298.36,178.48c-42.09-3.91-84-4.38-125.65,0v-14c41.77-4.38,83.88-4.38,125.65,0v14Z"/><path class="cls-18" d="M172.72,178.48v.72c41.6-4.38,83.56-3.91,125.65,0v-.72c-42.09-3.94-84.01-4.41-125.65,0Z"/><path class="cls-17" d="M172.72,163.8v.68c41.77-4.37,83.87-4.37,125.64,0v-.69c-41.77-4.37-83.87-4.37-125.64,.01Z"/><path class="cls-6" d="M298.36,178.48c-42.09-3.91-84-4.38-125.65,0v-14c41.77-4.38,83.88-4.38,125.65,0v14Z"/><path class="cls-21" d="M298.36,178.48c-42.09-3.91-84-4.38-125.65,0v-14c41.77-4.38,83.88-4.38,125.65,0v14Z"/><path class="cls-13" d="M305.69,46.48c-46.15-5.76-92.84-5.82-139-.17-6.63,.81-9.4-19-4.2-20.49,24.29-7,48.39-19.31,73-19.27,24.16,0,48.84,12.33,73,19.27,5.32,1.49,3.38,21.42-2.8,20.66Z"/><path class="cls-12" d="M162.52,25.81c24.29-7,48.39-19.31,73-19.27,24.16,0,48.84,12.33,73,19.27,2,.59,3,4,3,7.83,0-4.1-.93-7.75-3-8.37-24.19-7.12-48.87-19.74-73-19.77-24.63,0-48.73,12.62-73,19.78-1.9,.56-2.74,3.63-2.71,7.26,.03-3.38,.87-6.2,2.71-6.73Z"/><path class="cls-18" d="M305.69,46.48c-46.15-5.76-92.84-5.82-139-.17-4.17,.51-6.81-7.12-6.91-13.24-.09,6.37,2.59,14.82,6.91,14.28,46.16-5.8,92.86-5.75,139,.16,3.8,.49,6-7,5.91-13.27-.09,5.91-2.24,12.68-5.91,12.24Z"/><path class="cls-23" d="M305.69,46.48c-46.15-5.76-92.84-5.82-139-.17-6.63,.81-9.4-8.62-4.2-10.12,24.29-7,48.39-19.31,73-19.27,24.16,0,48.84,12.33,73,19.27,5.32,1.49,3.38,11.05-2.8,10.29Z"/><path class="cls-10" d="M305.69,46.48c-46.15-5.76-92.84-5.82-139-.17-6.63,.81-9.4-19-4.2-20.49,24.29-7,48.39-19.31,73-19.27,24.16,0,48.84,12.33,73,19.27,5.32,1.49,3.38,21.42-2.8,20.66Z"/><path class="cls-25" d="M305.69,46.48c-46.15-5.76-92.84-5.82-139-.17-6.63,.81-9.4-19-4.2-20.49,24.29-7,48.39-19.31,73-19.27,24.16,0,48.84,12.33,73,19.27,5.32,1.49,3.38,21.42-2.8,20.66Z"/><path class="cls-8" d="M162.36,30.13c24.29-7,48.39-19.31,73-19.27,24.16,0,48.84,12.33,73,19.27,1.81,.52,2.76,3.23,3,6.53,.28-4.57-.62-9-3-9.64-24.19-6.94-48.87-19.24-73-19.27-24.63,0-48.73,12.3-73,19.27-2.15,.62-2.94,4.38-2.65,8.51,.23-2.77,1.07-4.94,2.65-5.4Z"/><path class="cls-15" d="M164.8,216.84h11.82c1.53-60.17-1.07-152.6-10.43-192.12-.8-3.82-20.52,.22-19.31,4.35,9.3,39.25,17.29,128.47,17.92,187.77Z"/><path class="cls-9" d="M166.19,24.72c-.23-1.06-1.91-1.52-4.2-1.53,.78,.25,1.3,.64,1.41,1.19,9.38,39.58,13.18,132.19,11.65,192.46h1.57c1.53-60.17-1.07-152.6-10.43-192.12Z"/><path class="cls-3" d="M150.8,25.4c-2.57,1.05-4.31,2.35-3.92,3.67,9.3,39.25,17.29,128.47,17.92,187.77h1.78c-.63-59.7-7.87-149.51-17.24-189-.24-.86,.35-1.68,1.46-2.44Z"/><path class="cls-15" d="M306.36,216.84h-11.87c-1.53-60.17,1.07-152.6,10.44-192.12,.79-3.82,20.51,.22,19.3,4.35-9.3,39.25-17.29,128.47-17.87,187.77Z"/><path class="cls-9" d="M304.93,24.72c.22-1.06,1.9-1.52,4.19-1.53-.78,.25-1.3,.64-1.41,1.19-9.35,39.58-13.18,132.19-11.65,192.46h-1.57c-1.53-60.17,1.07-152.6,10.44-192.12Z"/><path class="cls-3" d="M320.36,25.4c2.57,1.05,4.31,2.35,3.92,3.67-9.3,39.25-17.29,128.47-17.92,187.77h-1.78c.63-59.7,7.87-149.51,17.24-189,.19-.86-.4-1.68-1.46-2.44Z"/><path class="cls-22" d="M304.95,365.38c-4.45-40-7.22-84.25-6-107.58,.36-3.35-14.64-3.78-14.73-.71-1.27,23.26,3.77,67.87,10.07,108.29h10.66Z"/><path class="cls-9" d="M295.68,365.38c-6.07-40.63-10.69-85.57-9.41-108.94,0-.44,.34-.81,.88-1.11-1.68,.32-2.86,.91-2.88,1.76-1.27,23.26,3.77,67.87,10.07,108.29h1.34Z"/><path class="cls-3" d="M297.03,257.17c-1.28,23.48,1.83,67.92,6.48,108.21h1.44c-4.45-40-7.22-84.25-6-107.58,.12-1.06-1.33-1.83-3.35-2.29,.96,.43,1.5,.97,1.43,1.66Z"/><path class="cls-22" d="M168.18,365.38c4.44-40,7.22-84.25,5.94-107.58-.35-3.35,14.65-3.78,14.74-.71,1.27,23.26-3.78,67.87-10.07,108.29h-10.61Z"/><path class="cls-9" d="M177.45,365.38c6.07-40.63,10.68-85.57,9.41-108.94,0-.44-.34-.81-.88-1.11,1.68,.32,2.85,.91,2.88,1.76,1.27,23.26-3.78,67.87-10.07,108.29h-1.34Z"/><path class="cls-3" d="M176.1,257.17c1.28,23.48-1.83,67.92-6.48,108.21h-1.44c4.44-40,7.22-84.25,5.94-107.58-.11-1.06,1.34-1.83,3.36-2.29-.91,.43-1.45,.97-1.38,1.66Z"/><rect class="cls-16" x="169.63" y="268.69" width="132.98" height="18.7"/><rect class="cls-20" x="169.63" y="268.17" width="132.98" height="19.22"/><path class="cls-24" d="M327.9,411.16c-6-53.74-9.69-113-8-144.33,.47-4.51-19.65-5.08-19.77-1-1.7,31.21,5.07,91.05,13.51,145.29l14.26,.04Z"/><path class="cls-9" d="M315.47,411.16c-8.16-54.51-14.34-114.81-12.63-146.16,0-.6,.45-1.09,1.18-1.5-2.25,.44-3.83,1.22-3.87,2.37-1.7,31.21,5.07,91.05,13.51,145.29h1.81Z"/><path class="cls-3" d="M317.28,265.97c-1.72,31.51,2.45,91.13,8.68,145.19h1.94c-6-53.74-9.69-113-8-144.33,.15-1.44-1.79-2.47-4.5-3.08,1.24,.58,1.96,1.32,1.88,2.22Z"/><path class="cls-24" d="M144.36,411.16c6-53.74,9.69-113,8-144.33-.47-4.51,19.65-5.08,19.77-1,1.7,31.21-5.07,91.05-13.51,145.29l-14.26,.04Z"/><path class="cls-9" d="M156.84,411.16c8.15-54.51,14.34-114.81,12.63-146.16,0-.6-.46-1.09-1.19-1.5,2.26,.44,3.84,1.22,3.87,2.37,1.7,31.21-5.07,91.05-13.51,145.29h-1.8Z"/><path class="cls-3" d="M155.03,265.97c1.71,31.51-2.46,91.13-8.69,145.19h-1.98c6-53.74,9.69-113,8-144.33-.15-1.44,1.79-2.47,4.5-3.08-1.2,.58-1.93,1.32-1.83,2.22Z"/><path class="cls-14" d="M145.68,249.03l179.18,.1v11.78s-.13,7.13-6.22,7.78H151.89s-5.88-.07-6.23-7.78c-.22-3.96-.22-7.92,.02-11.88Z"/><path class="cls-5" d="M145.68,249.03s153.44,.86,179.18,.1c0,0-12.09-26.53-18.55-32.29H163.5s-4.14-1.23-17.82,32.19Z"/><polygon class="cls-14" points="60.35 131.83 60.35 155.51 60.34 444.64 31.22 444.64 31.23 155.51 31.23 131.83 60.35 131.83"/><rect class="cls-14" x="389.77" y="138.92" width="197.75" height="305.72"/><rect class="cls-7" x="389.62" y="138.94" width="197.91" height="16.62"/><rect class="cls-19" x="7.55" y="124.46" width="603.67" height="14.46"/><rect class="cls-27" x="7.55" y="119.74" width="603.67" height="4.73"/><rect class="cls-7" x="31.23" y="138.93" width="29.11" height="16.45"/><rect class="cls-2" x="467.7" y="105.25" width="86.72" height="11.68"/><path class="cls-30" d="M465.26,107.11c-.57,0-1-.28-1-.63v-3.09c0-.31,.41-.56,.91-.56h91.27c2,0,3.52,1,3.52,2.17v12.56c0,1.19-1.57,2.17-3.52,2.17h-91.27c-.5,0-.91-.25-.91-.57v-3.08c0-.35,.47-.63,1-.63h88.1v-8.28l-88.1-.06Z"/><polygon class="cls-31" points="467.71 107.11 553.32 107.11 553.32 107.79 553.32 108.74 553.32 115.39 552.27 115.39 552.27 108.74 467.71 108.74 467.71 107.11"/><rect class="cls-2" x="467.7" y="84.7" width="86.72" height="15.33"/><path class="cls-28" d="M465.26,86.56c-.57,0-1-.28-1-.63v-3.08c0-.31,.41-.57,.91-.57h91.27c2,0,3.52,1,3.52,2.16v16.21c0,1.2-1.57,2.17-3.52,2.17h-91.27c-.5,0-.91-.26-.91-.57v-3.08c0-.35,.47-.64,1-.64h88.1v-11.97h-88.1Z"/><polygon class="cls-31" points="467.71 86.56 553.32 86.56 553.32 87.25 553.32 88.19 553.32 98.49 552.27 98.49 552.27 88.19 467.71 88.19 467.71 86.56"/></svg>