<?xml version="1.0" encoding="UTF-8"?><svg id="Layer_1" xmlns="http://www.w3.org/2000/svg" viewBox="0 0 228.44 256.61"><defs><style>.cls-1,.cls-2,.cls-3,.cls-4,.cls-5,.cls-6,.cls-7{font-family:CoopHeavy, CoopHeavy;isolation:isolate;}.cls-1,.cls-2,.cls-7{fill:none;stroke:#f9f9f9;stroke-miterlimit:10;}.cls-1,.cls-6{font-size:57.01px;}.cls-8{fill:#f0b081;}.cls-9{fill:#fbfeb7;}.cls-9,.cls-10,.cls-11{fill-rule:evenodd;}.cls-2,.cls-3,.cls-4{font-size:59.01px;}.cls-3{fill:#f92b5c;}.cls-12{fill:#5c3829;}.cls-4{fill:#fc4006;}.cls-10{fill:#ffa745;}.cls-5{fill:#1a4ee2;}.cls-5,.cls-7{font-size:57.97px;}.cls-13{fill:#794d3b;}.cls-6{fill:#8c06f4;}.cls-11{fill:#d46255;}</style></defs><rect class="cls-8" x="3.67" y="4.12" width="221.1" height="248.37"/><rect class="cls-13" x="19.36" y="21.75" width="189.72" height="213.12"/><polygon class="cls-12" points="204.95 21.75 204.95 230.15 19.36 230.15 19.36 234.87 209.08 234.87 209.08 21.75 204.95 21.75"/><polygon class="cls-9" points="27.84 47.37 94.09 47.36 94.13 108.2 27.92 108.23 27.84 47.37"/><polygon class="cls-10" points="32.18 50.5 89.71 50.5 89.79 97.77 32.25 97.8 32.18 50.5"/><polygon class="cls-11" points="58.35 39.53 59.02 39.48 59.35 39.48 59.43 39.99 59.56 40.85 59.59 40.02 59.63 39.48 60.02 39.49 60.64 39.43 60.76 40.29 60.85 39.47 62.07 39.47 62.09 39.69 62.21 40.54 62.25 39.72 62.3 39.45 63.41 39.43 63.62 49.47 61.96 49.51 61.88 49 61.74 48.2 61.71 49.02 61.62 49.51 60.46 49.52 60.31 48.5 60.23 49.54 59.28 49.59 59.2 48.8 59.07 48 59.03 48.83 58.95 49.59 58.57 49.57 58.35 39.53"/><polygon class="cls-9" points="131.68 63.61 197.93 63.59 197.97 124.44 131.75 124.47 131.68 63.61"/><polygon class="cls-10" points="136.02 66.73 193.55 66.74 193.62 114.01 136.08 114.04 136.02 66.73"/><polygon class="cls-11" points="162.19 55.76 162.86 55.71 163.19 55.72 163.27 56.23 163.39 57.08 163.43 56.26 163.47 55.71 163.85 55.72 164.47 55.67 164.6 56.52 164.69 55.71 165.91 55.7 165.92 55.92 166.05 56.78 166.08 55.95 166.13 55.68 167.24 55.66 167.46 65.71 165.79 65.74 165.72 65.23 165.58 64.43 165.55 65.26 165.46 65.74 164.3 65.75 164.14 64.73 164.07 65.77 163.12 65.83 163.04 65.04 162.9 64.24 162.87 65.06 162.79 65.82 162.4 65.81 162.19 55.76"/><polygon class="cls-9" points="48.27 132.65 114.52 132.63 114.56 193.48 48.35 193.51 48.27 132.65"/><polygon class="cls-9" points="131.2 156.27 197.45 156.25 197.5 217.1 131.28 217.13 131.2 156.27"/><polygon class="cls-10" points="52.61 135.78 110.14 135.78 110.22 183.05 52.67 183.08 52.61 135.78"/><polygon class="cls-11" points="78.78 124.81 79.45 124.76 79.78 124.76 79.86 125.27 79.99 126.12 80.02 125.3 80.06 124.75 80.45 124.77 81.06 124.71 81.19 125.56 81.28 124.75 82.5 124.74 82.51 124.97 82.64 125.82 82.67 125 82.72 124.73 83.83 124.7 84.05 134.75 82.38 134.79 82.31 134.28 82.17 133.48 82.14 134.3 82.05 134.78 80.89 134.8 80.74 133.78 80.66 134.81 79.71 134.87 79.63 134.08 79.49 133.28 79.46 134.11 79.38 134.87 78.99 134.85 78.78 124.81"/><polygon class="cls-10" points="135.26 159.75 192.79 159.75 192.86 207.02 135.32 207.06 135.26 159.75"/><polygon class="cls-11" points="161.42 151.03 162.1 150.98 162.43 150.98 162.5 151.5 162.63 152.35 162.67 151.52 162.71 150.98 163.09 150.99 163.71 150.93 163.84 151.79 163.93 150.97 165.15 150.97 165.16 151.19 165.29 152.04 165.32 151.22 165.37 150.95 166.48 150.93 166.7 160.97 165.03 161.01 164.96 160.5 164.82 159.7 164.78 160.52 164.7 161.01 163.53 161.02 163.38 160 163.31 161.04 162.36 161.09 162.28 160.3 162.14 159.5 162.11 160.33 162.03 161.09 161.64 161.07 161.42 151.03"/><text class="cls-6" transform="translate(45.46 92.06)"><tspan x="0" y="0">A</tspan></text><text class="cls-1" transform="translate(45.46 92.06)"><tspan x="0" y="0">A</tspan></text><text class="cls-4" transform="translate(154.25 108.75)"><tspan x="0" y="0">B</tspan></text><text class="cls-2" transform="translate(154.25 108.75)"><tspan x="0" y="0">B</tspan></text><text class="cls-5" transform="translate(65.52 178.44) scale(.98 1)"><tspan x="0" y="0">C</tspan></text><text class="cls-7" transform="translate(65.52 178.44) scale(.98 1)"><tspan x="0" y="0">C</tspan></text><text class="cls-3" transform="translate(154.43 203.37)"><tspan x="0" y="0">D</tspan></text><text class="cls-2" transform="translate(154.43 203.37)"><tspan x="0" y="0">D</tspan></text></svg>