<?xml version="1.0" encoding="UTF-8"?><svg id="Layer_1" xmlns="http://www.w3.org/2000/svg" xmlns:xlink="http://www.w3.org/1999/xlink" viewBox="0 0 1920 900"><defs><style>.cls-1{fill:#fff;}.cls-2{fill:#b21414;}.cls-3{opacity:.5;}.cls-4{fill:#cc2727;}.cls-5{fill:#0c0c0d;}.cls-6,.cls-7{fill:#959595;}.cls-8{opacity:.2;}.cls-9{fill:#5aa846;}.cls-10{fill:#b0d80b;}.cls-11{fill:#569b44;}.cls-12{fill:#d77d4f;}.cls-13{fill:#231f20;}.cls-13,.cls-14{opacity:.3;}.cls-13,.cls-7{isolation:isolate;}.cls-15{fill:#f26d6d;}.cls-16{fill:#8b421f;}.cls-17{fill:#787878;}.cls-18{fill:#cea852;}.cls-19{fill:#cd8751;}.cls-20{clip-path:url(#clippath);}.cls-21{fill:#fffafc;}.cls-22{fill:#adadad;}.cls-23{fill:none;}.cls-7{opacity:.24;}.cls-24{fill:#d83535;}.cls-25{fill:#ffe876;}.cls-26{fill:#25893d;}.cls-27{fill:#70b644;}.cls-28{fill:#252528;}.cls-29{fill:#5c9942;}.cls-30{fill:#579943;}.cls-31{fill:#ffdb45;}.cls-32{fill:url(#linear-gradient);}.cls-33{fill:#c7d9f9;}.cls-34{fill:#519b44;}.cls-35{fill:#98c948;}.cls-36{opacity:.15;}.cls-37{fill:#87c444;}.cls-38{fill:#dbd9d8;}.cls-39{opacity:.3;}.cls-40{fill:#5cc1ff;}.cls-41{fill:#54883e;}.cls-42{fill:#58595b;}</style><clipPath id="clippath"><rect class="cls-23" width="1920" height="900"/></clipPath><linearGradient id="linear-gradient" x1="303.9" y1="1582.02" x2="586.87" y2="1582.02" gradientTransform="translate(-27.85 2236.56) rotate(1.66) scale(1 -1)" gradientUnits="userSpaceOnUse"><stop offset=".08" stop-color="#29b473"/><stop offset=".17" stop-color="#24b06d"/><stop offset=".64" stop-color="#0a9b50"/><stop offset=".9" stop-color="#009345"/></linearGradient></defs><g class="cls-20"><g><rect class="cls-5" x="433.18" y="697.02" width="131.96" height="17.21"/><rect class="cls-5" x="714.84" y="697.02" width="153.86" height="17.21"/><rect class="cls-38" x="565.14" y="697.02" width="149.7" height="17.21"/><rect class="cls-38" x="868.7" y="697.02" width="166.47" height="17.21"/><rect class="cls-38" x="1204.44" y="697.02" width="166.47" height="17.21"/><rect class="cls-5" x="1035.17" y="697.02" width="171.33" height="17.21"/><rect class="cls-5" x="1350.07" y="697.02" width="171.33" height="17.21"/><polygon class="cls-28" points="433.18 697.02 443.03 690.68 573.57 690.68 565.15 697.02 433.18 697.02"/><path class="cls-21" d="M565.14,697.02l8.43-6.34,146.28,.48-5.16,5.86h-149.55Z"/><path class="cls-28" d="M715.47,697.02c1.56-1.85,3.13-3.69,4.7-5.54l150.65-.8-2.12,6.34h-153.23Z"/><polygon class="cls-21" points="868.7 697.02 870.82 690.68 1033.42 690.68 1035.17 697.02 868.7 697.02"/><polygon class="cls-28" points="1033.42 690.68 1196.1 690.68 1206.5 697.02 1035.17 697.02 1033.42 690.68"/><polygon class="cls-21" points="1196.1 690.68 1338.23 690.68 1350.07 697.02 1204.44 697.02 1196.1 690.68"/><polygon class="cls-28" points="1350.07 697.02 1459.31 697.02 1453.82 690.68 1338.23 690.68 1350.07 697.02"/><polygon class="cls-21" points="385.34 697.02 433.18 697.02 443.03 690.68 385.34 690.68 385.34 697.02"/><rect class="cls-11" x="696.69" y="796.11" width="1074.21" height="71.98"/><rect class="cls-42" x="396.08" y="714.23" width="1075.77" height="81.89"/><rect class="cls-27" x="-35.95" y="662.61" width="2160.62" height="190.3"/><path class="cls-32" d="M325.8,674.29s-1.88-19.16,13.95-12.7c16.41-13.53,42.13-11.2,49.39,6.23,15.2-23.36,26.89-27,46.36-17.45,25.54-18.28,48.14,4.53,48.82,20.22,16.58-14.32,41.15-16,55.79,1.62,25.39-16.07,51.07-11.84,64.22,9.32-137.28,13.78-283.28,6.54-283.28,6.54l4.75-13.78Z"/><polygon class="cls-12" points="396.08 714.23 615.34 714.23 721.65 796.11 396.08 796.11 396.08 714.23"/><path class="cls-30" d="M537.21,642.72s-63.25,18.1-52.69,39c15.95,15.74,30.46,27.52,15,30.8s-70.36,1.38-65.34,29.06c-14,23.14-2.53,108.69-29.47,111.32-85.8,8.37-433.51,159.85-439.34,36.53-1.5-31.65-.66-173.41-.66-246.65l572.5-.06Z"/><path class="cls-9" d="M573.47,713.54s-77,3-91.85-15c-1.31-1.47-2.1-3.33-2.24-5.3-.44-11.35-1.27-3.74-2.61-7.64-.68-2,19.61-16.14,10.14-16.07-6.52,0-43.12,.77-47.34-10.87-.79-2.18-1-6.29,5-13.69l176.29-3.42,16.59,2.73c-3.18,2.76-6.35,5.6-9.52,8.51-20.06,18.45-38.3,38.8-54.46,60.75Z"/><path class="cls-37" d="M987.52,713.54s158,3,188.36-14.76c27.51-16-79-26.55-36.45-29.5s133.68-8.86,66.84-17.71l-316-8.85-6.08,3s0,8.85,6.08,8.85,97.25,58.97,97.25,58.97Z"/><path class="cls-11" d="M847.05,630.91s-5.9-4.67-5.9-8.85c0-2.95,2.95-5.9,5.9-2.95,0,0,2.95-14.75,8.85-5.9,0,0,0-8.85,5.9,3,0,0,12.28-16.49,8.85,3,0,0,12.74-14.58,11.81,5.9,0,0,23.61-20.13,17.7,8.86,0,0,26.56-5.91,17.71,14.75,0,0,32.46,0,26.56,14.75,0,0,11.95-6.83,14.75-5.9,8.85,3-3,11.81-3,11.81,0,0,12.89,.3,14.75,5.9,3,8.85-8.85,11.8-8.85,11.8,0,0,143.16,8.14,168.2,20.66,41.31,20.65-56.07,47.21-56.07,47.21-37.59-3.39-65.8-7.29-85.06-10.33-10.76-1.7-32-5.22-63.46-9.64-14.61-2.05-13.6-1.79-22.14-3.05-64.23-9.48-70.68-16.59-72.83-22-1.3-3.28-.68-8.88,1.52-19.9,2.07-10.34,8.77-32.46,8.77-32.46,0,0-5.82-5.9-5.82-8.85s5.91-5.9,5.91-5.9c0,0-8.94-2.95-8.94-5.9s8.94,0,8.94,0c0,0-9-2.24-9.4-6.72-.12-.75,.04-1.51,.46-2.14,2.49-3.21,13.83,2.34,14.89,2.85Z"/><path class="cls-37" d="M849.98,642.72s-5.93-4.68-5.93-8.81c0-3,3-5.91,5.9-3,0,0,3-14.75,8.85-5.9,0,0,0-8.85,5.9,2.95,0,0,12.28-16.49,8.86,3,0,0,12.74-14.58,11.8,5.91,0,0,17.7-17.19,11.8,11.8,0,0,20.66-3,11.81,11.8,0,0,20.65-5.9,17.7,8.86,0,0,12-.94,14.76,0,8.85,3,5.9,17.7,5.9,17.7,0,0,0,5.9-8.86,8.85-.19,.07-.29,.13-.29,.2,0,3,186.93,.35,189.15,20.46,.86,7.77-24,17.67-41.5,21.58-22.54,5.05-36,.87-64.71-3-33.5-4.53-118-12.74-135.68-14.47-10.16-1.36-19.87-5.08-28.34-10.85,0,0-16.83-11.4-20.52-27.58-.62-2.75-.69-5.59-.19-8.36,.23-1.07,.57-2.11,1-3.12-1.34-5.36-.37-8.44,.74-10.25,1.74-2.84,5.9-5.9,5.9-5.9h0s-8.94-3-8.94-5.9,8.94,0,8.94,0c0,0-11.89-3-8.94-8.85s14.89,2.88,14.89,2.88Z"/><path class="cls-11" d="M705.39,638.13l2.95-7.72s5.9-15.44-5.9-11.58c0,0-5.91-15.44-11.81-3.86,0,0-3-15.44-8.85,0,0,0-18.66-20-15.23,5.45,0,0-16.15-16.58-15.22,10.21,0,0-22.67-18.16-16.76,19.76,0,0-17.71-27.7-27.26,14.76,0,0-37.66-34.74-34.71,15.44,0,0-34-24.91-20,8.77,0,0-21.36-8.77-15.45,10.53,0,0-8.86,3.86-8.86,7.72,0,16.38,14.76,7.72,14.76,7.72,0,0-11.81,15.44,2.95,7.72-11.8,23.16,11.8,19.3,11.8,19.3,0,0-41.31,3.86-67.87,15.44s-17.7,30.88-5.9,27c-47.58,4.37-81.73,34.85-85.57,69.48-4.37,39.29,31.45,73.36,37.25,78.88,45.89,43.64,78,8.39,198.82,12.17,87.51,2.74,142.69,20.65,221-20,3.14-1.64,6.2-3.44,9.16-5.4l118-65.62c-35.41,7.72-253.87-10.17-286.24-61.76-24-38.21,13.33-74.25,14.76-84.92,1.82-13.58-5.9-27-5.9-27,0,0,5.9-15.44,5.9-19.3s-5.9-7.72-5.9-7.72c0,0,8.85,3.86,8.85,0s-8.85-3.86-8.85-3.86c0,0,11.8,0,8.85-7.72s-8.77-3.89-8.77-3.89Z"/><path class="cls-35" d="M698.35,635.69l1.94-4.18s3.88-8.36-3.88-6.27c0,0-3.88-8.36-7.77-2.09,0,0-1.94-8.36-5.82,0,0,0-12.28-10.81-10,3,0,0-10.63-9-10,5.53,0,0-14.92-9.83-11,10.69,0,0-11.65-15-17.93,8,0,0-24.78-18.8-22.84,8.36,0,0-22.39-13.48-13.14,4.75,0,0-14-4.75-10.16,5.69,0,0-5.82,2.09-5.82,4.18,0,8.87,9.7,4.18,9.7,4.18,0,0-7.76,8.36,2,4.18-7.77,12.53,100.9-9,99-6.27s5.82-16.71,5.82-16.71c0,0,3.88-8.36,3.88-10.45s-3.88-4.18-3.88-4.18c0,0,5.82,2.09,5.82,0s-5.92-2.19-5.92-2.19c0,0,7.77,0,5.82-4.18-.84-2.1-3.22-3.12-5.31-2.28-.17,.07-.34,.15-.51,.24Z"/><path class="cls-27" d="M844.73,653.39l-1.94-4.18s-3.89-8.35,3.88-6.27c0,0,3.88-8.35,7.77-2.08,0,0,1.94-8.36,5.82,0,0,0,12.27-10.82,10,2.94,0,0,10.63-9,10,5.53,0,0,14.91-9.83,11,10.7,0,0,5.49-13.74,11.77,9.25,0,0,23.61-3,20.66,11.8,0,0,23.61,0,11.8,8.85,0,0,3,5.9-3,5.9,0,0-81.56-14.55-79.67-11.8s-8.2-7.66-8.2-7.66c0,0-3.77-8.36-3.77-10.46s3.88-4.18,3.88-4.18c0,0-5.83,2.09-5.83,0s5.83-2.09,5.83-2.09c0,0-7.77,0-5.83-4.18,.83-2.11,3.21-3.14,5.32-2.31,.18,.07,.35,.15,.51,.24Z"/><path class="cls-37" d="M693.51,654.19l2.35-5.12s4.7-10.25-4.69-7.69c0,0-4.7-10.25-9.4-2.56,0,0-2.35-10.25-7.05,0,0,0-14.85-13.26-12.12,3.61,0,0-12.85-11-12.11,6.79,0,0-18-12.06-13.35,13.11,0,0-14.09-18.39-21.69,9.79,0,0-30-23.05-27.63,10.25,0,0-27.08-16.53-15.89,5.83,0,0-17-5.83-12.29,7,0,0-9.58,5-7,5.12,55.41,2.34-9.45,25.59-30.59,33.29s-14.1,20.5-4.7,17.93c0,0-65.59,4.82-68.12,46.12-2.34,38.43,54,59.41,187.9,60.43,138.58,1.05,205.85-4.61,224.64-14.86l109.18-41.87c-63-2.06-108-2.36-139.07-2.19-16.27,.15-32.53-.9-48.64-3.16-24.3-3.39-51.27-7.44-78-25.27-13.79-9.18-30.86-20.55-33.26-38.89-1.68-12.86,4-28.21,5.76-33.07,2.23-6.07,5.07-11.9,8.46-17.4,8.31-2,12.83-7.7,12-11.82-.57-2.95-3.79-4.66-4.7-5.12,0,0,7,2.56,7,0s-7-2.56-7-2.56c0,0,6.39,0,7.32-2.87,.19-.76,.1-1.57-.27-2.26-.95-2-3.76-3.05-7.04-2.56Z"/><path class="cls-29" d="M680.71,667.5l2.21-3.27s4.41-6.55-4.41-4.91c0,0-4.41-6.54-8.82-1.64,0,0-2.2-6.54-6.61,0,0,0-13.94-8.46-11.38,2.31,0,0-12.06-7-11.36,4.33,0,0-16.93-7.7-12.53,8.37,0,0-49.49,4.74-52.26,14.29l112.13-3s-2.56-5.09-2.56-6.72-4.41-3.27-4.41-3.27c0,0,6.62,1.63,6.62,0s-6.62-1.64-6.62-1.64c0,0,8.82,0,6.62-3.27s-6.62-1.58-6.62-1.58Z"/><path class="cls-29" d="M858.96,668.48l-.95-3.83s-1.91-7.66,5.82-3.1c0,0,6.38-4.64,8.84,1.47,0,0,4.31-5.39,6.22,2.27,0,0,16-3.19,9.9,6.06,0,0,13.74-2.48,9.2,7.95,0,0,18.54-1.44,8.9,12.15l-60.13-9.82s4.14-3.9,4.7-5.44,5.26-1.57,5.26-1.57c0,0-6.77-.72-6.21-2.26s6.77,.73,6.77,.73c0,0-8.28-3-5.09-5.34s6.77,.73,6.77,.73Z"/><polygon class="cls-37" points="1117.27 725.47 1688.88 728.09 1684.9 792.36 1078.58 792.36 1029.43 758.91 1117.27 725.47"/><path class="cls-18" d="M1185.72,682.2s-103.06,18.3-68.67,23.71,1007,10.12,1007,10.12l.62-53.42-938.95,19.59Z"/><path class="cls-18" d="M462.68,704.83c33.09,0,70.9,2.54,73.8,15.39,.31,1.37,1.39,8-14.42,19.87-38.94,29.14-90.14,22.15-136,20.63-25.63-.85,12.14,2.06-138.93,11.15,0,0-133.42,8-283.95,12.12h0l.88-113.57c382.8-10.71,574.82-7.51,576.06,9.6,.47,6.36-25.35,14.63-77.44,24.81Z"/><polygon class="cls-22" points="701.69 647.08 696.25 655.25 840.45 655.25 835.01 647.08 701.69 647.08"/><rect class="cls-17" x="696.24" y="655.25" width="144.21" height="8.16"/><polygon class="cls-22" points="710.43 636.33 705.7 643.43 831 643.43 826.27 636.33 710.43 636.33"/><rect class="cls-17" x="705.7" y="643.43" width="125.29" height="7.09"/><rect class="cls-16" x="1563.47" y="677.41" width="8.64" height="46.53"/><path class="cls-34" d="M1602.94,598.09c6.19,61.32,18.61,109.17-34.28,99.41-56.5,4.39-44.15-34.52-37-101.59,6.22-58.3,22.9-132.29,39.09-125.21,14.99,6.56,26.3,69.06,32.19,127.39Z"/><path class="cls-35" d="M1602.94,598.09c6.19,61.32,18.61,109.17-34.28,99.41,27.9-23.17,27.12-32.33,20.93-93.65-5.89-58.33-9.35-98-18.83-133.15,14.98,6.56,26.29,69.06,32.18,127.39Z"/><path class="cls-41" d="M1568.66,697.5c-56.5,4.39-44.15-34.52-37-101.59,6.22-58.3,22.9-132.29,39.09-125.21-25.7,44.67-45.81,240.21-2.09,226.8Z"/><rect class="cls-16" x="1493.07" y="684.88" width="6.83" height="36.09"/><path class="cls-34" d="M1523.16,627.75c4.89,47.56,14.7,84.67-27.07,77.1-44.62,3.41-34.87-26.77-29.21-78.79,4.91-45.21,18.08-102.6,30.87-97.1,11.83,5.08,20.76,53.56,25.41,98.79Z"/><path class="cls-35" d="M1523.16,627.75c4.89,47.56,14.7,84.67-27.07,77.1,22-18,21.42-25.08,16.53-72.63-4.65-45.24-7.38-76-14.87-103.26,11.83,5.08,20.76,53.56,25.41,98.79Z"/><path class="cls-41" d="M1496.05,704.85c-44.62,3.41-34.87-26.77-29.21-78.79,4.91-45.21,18.08-102.6,30.87-97.1-20.26,34.64-36.15,186.32-1.66,175.89Z"/><rect class="cls-16" x="1658.93" y="692.35" width="46.53" height="8.64" transform="translate(982.88 2377.77) rotate(-89.91)"/><path class="cls-34" d="M1716.11,599.91c6.09,61.33,18.44,109.2-34.43,99.35-56.51,4.31-44.1-34.58-36.83-101.65,6.32-58.28,23.11-132.25,39.29-125.14,14.97,6.53,26.17,69.05,31.97,127.44Z"/><path class="cls-35" d="M1716.11,599.91c6.09,61.33,18.44,109.2-34.43,99.35,27.94-23.12,27.16-32.28,21.07-93.61-5.8-58.34-9.18-98-18.61-133.18,14.97,6.53,26.17,69.05,31.97,127.44Z"/><path class="cls-41" d="M1681.68,699.21c-56.51,4.31-44.1-34.58-36.83-101.65,6.32-58.28,23.11-132.25,39.29-125.14-25.77,44.63-46.21,240.17-2.46,226.79Z"/><rect class="cls-16" x="1771.87" y="699.43" width="46.53" height="8.64" transform="translate(1088.56 2497.77) rotate(-89.91)"/><path class="cls-34" d="M1830.4,601.29c6.1,61.33,18.44,109.2-34.43,99.35-56.51,4.31-44.09-34.58-36.83-101.65,6.32-58.28,23.12-132.25,39.29-125.14,14.97,6.58,26.18,69.06,31.97,127.44Z"/><path class="cls-35" d="M1830.4,601.29c6.1,61.33,18.44,109.2-34.43,99.35,27.94-23.12,27.17-32.28,21.07-93.61-5.79-58.34-9.18-98-18.61-133.18,14.97,6.58,26.18,69.06,31.97,127.44Z"/><path class="cls-41" d="M1795.97,700.64c-56.51,4.31-44.09-34.58-36.83-101.65,6.32-58.28,23.12-132.25,39.29-125.14-25.77,44.63-46.2,240.17-2.46,226.79Z"/><polygon class="cls-6" points="1030.03 748.54 1486.39 739.87 1486.23 795.84 948.35 795.84 1030.03 748.54"/><path class="cls-29" d="M1383.73,713.8l-1-2.55s-2.05-5.12,3.73-2.7c0,0,4-3.82,6.26,.18,0,0,2.47-4.14,4.51,1,0,0,10.76-3.73,7.43,3.25,0,0,9.27-3,7.12,4.63,0,0,12.69-2.76,7.31,7.56l-42.53-1.08s2.5-3.09,2.74-4.21,3.49-1.58,3.49-1.58c0,0-4.76,.14-4.52-1s4.76-.15,4.76-.15c0,0-6-1.3-4-3.2s4.7-.15,4.7-.15Z"/><path class="cls-29" d="M1491.7,722.74l-1-2.56s-2.05-5.11,3.73-2.7c0,0,4-3.82,6.26,.18,0,0,2.47-4.14,4.51,1,0,0,10.76-3.73,7.43,3.25,0,0,9.27-3,7.12,4.62,0,0,12.69-2.76,7.32,7.56l-42.54-1.07s2.5-3.1,2.74-4.21,3.49-1.59,3.49-1.59c0,0-4.75,.15-4.51-1s4.75-.14,4.75-.14c0,0-6-1.3-4-3.21s4.7-.13,4.7-.13Z"/><path class="cls-29" d="M1559.82,724.15l-1-2.56s-2-5.11,3.73-2.7c0,0,4-3.82,6.26,.18,0,0,2.47-4.14,4.51,1,0,0,10.76-3.73,7.43,3.25,0,0,9.27-3,7.12,4.63,0,0,12.69-2.76,7.31,7.55l-42.53-1.07s2.5-3.1,2.74-4.21,3.49-1.59,3.49-1.59c0,0-4.76,.15-4.52-1s4.76-.14,4.76-.14c0,0-6-1.3-4-3.21s4.7-.13,4.7-.13Z"/><path class="cls-29" d="M1677.1,718.69l-1-2.55s-2-5.12,3.73-2.7c0,0,4-3.82,6.26,.18,0,0,2.47-4.14,4.52,1,0,0,10.76-3.73,7.42,3.25,0,0,9.27-3,7.12,4.63,0,0,12.69-2.76,7.32,7.56l-42.56-1.15s2.49-3.09,2.73-4.21,3.49-1.58,3.49-1.58c0,0-4.75,.14-4.51-1s4.75-.14,4.75-.14c0,0-6-1.3-4-3.2s4.73-.09,4.73-.09Z"/><path class="cls-29" d="M1577.57,716.14s.72-2.88,4.06-1.3c4.16-2.24,6.19-.33,6.25,1,3.17-2.47,6.3,.14,6.22,1.37,3.1-3.59,5.34-2.72,7.24-1,4.49-2.24,6.77-.57,6.8,1.15,4.49-2.86,5.73,4.66,5.73,4.66h-37.91l1.61-5.88Z"/><path class="cls-29" d="M1509.05,718.18s2.57-6.24,6.69-1c-.16,6-.16,7.88-.16,7.88l-6.76-.07,.23-6.81Z"/><path class="cls-29" d="M1573.85,716.85s2.68-2.09,5,0c1.88,.44,3.78,.78,5.69,1l-21.48,.76v-6.5s1.85-2.64,4.36,0c1.95,2.79,1.11,2.93,1.11,2.93,1.1-.88,2.66-.88,3.76,0l1.53,1.81"/><path class="cls-29" d="M1379.77,719.23s-5.07-.09-4.81,2.52c-2.49-1.7-4.06,1.57-4.06,1.57-1.57-1.44-4.57,0-4.57,0l-5.76,.66,17.79,.13,1.41-4.88Z"/><path class="cls-29" d="M1418.78,718s2.08-3,4.57,0c2.48-.43,5.86,1,5.15,2.53,3.48-1.26,5,1.14,5,1.14,0,0,3.4-.44,4.19,1.65,2.61-1.31,4.57-1.31,5.1,0,3.92-.39,9.94,.79,9.94,.79l-33.71,1-.24-7.11Z"/><polygon class="cls-11" points="1091.74 740.35 1674.69 736.2 1674.69 745.29 1064.31 747.94 1091.74 740.35"/><polygon class="cls-37" points="-139.95 1002.55 2124.05 941.61 2108.02 791.58 179.44 795.56 -139.95 1002.55"/><path class="cls-7" d="M836.74,668.38s-86.53,80.21,425.09,71.53l444.83-2.65,4.42,76h0s-149.3-1.2-262.37-1.79c-295.75-1.55-350,1.06-470.72-7.74-66.94-4.82-121.06-10.82-154.09-14.77-92.23,.39-152.29-35.5-157.51-72.18-2.14-15,6.09-33,30.45-54.17,139.21-1.33,139.9,5.77,139.9,5.77Z"/><path class="cls-6" d="M840.45,663.41s-98.59,91.57,427.6,76.5c819-2.1,856-3.75,856-3.75l.62,77.06-1265.73-2.65s-289.48-23.66-161.76-147.96c147.55-.86,143.27,.8,143.27,.8Z"/><path class="cls-11" d="M1234.64,726.01s929.4-11,903.52,10.19c-20.06,1.28-1100.51,6.67-1127.34,1.65s-100.72-6.85-117.32-15.07c-17-3.88-52.71-14.69-62.5-33.07,0,0-4.14-13.09,5.74-21.33,4.79,.29-18.46,31.16,66.15,47.1s199.26,19,204.8,15.77c5.54-3.23,55,3,54.61-3.41,7.17-2.33,72.34-1.83,72.34-1.83Z"/><path class="cls-23" d="M1092.93,633.91c3.18,1.62,27.9,20.65,27.9,20.65h-180.07c-6.44-5.16-14.78-7.31-22.91-5.9l3.56-4.91,167.64,1.57,3.88-11.41Z"/><path class="cls-13" d="M1092.93,633.91l27.9,20.65h-180.07s-6.94-8.19-22.91-5.9l3.56-4.91,167.64,1.57,3.88-11.41Z"/><path class="cls-13" d="M421.84,652.35l185.47-.78s-2.2-2.11,5.39-12.18c-105.45,2.27-168.12,5.58-168.12,5.58l-1.35-11.87h-15l-6.39,19.25Z"/><path class="cls-37" d="M-35.33,767.85c15-2.14,31.72,10.2,121.87,0s176.82-11.93,214.58-13,196.71-5.47,213.46-6.92,8.68,16.79-33.57,28.24-43.48,34.16-9.75,42.26,207.16,33.59,129.91,34.48-636.5,0-636.5,0l-1.5-52.33"/><path class="cls-19" d="M395.32,732.75c-32.67,11.88-12.85,26.2,16.41,25.75s46.17-6.5,42.84-1.86,8.49,6.16,24.51,3.76,23-7.58,27.71-11.79c3.37-3,9.78-12.75-10.37-14.13s-13.09-6.63-12.89-9.79c.41-6.72-33.09-8.81-53.77-3.31-11.71,3.04-23.22,6.84-34.44,11.37Z"/><path class="cls-27" d="M999.19,713.24c24.69,14.62,101,9.75,112.23,7.31,4.41-.95,22.45-9.75-9-17.06-19.75-4.59-13.46,1-13.46-2.43,0-7.31-33.67-9.75-58.37-7.31-21.29,2.1-57.1,4.28-31.4,19.49Z"/><ellipse class="cls-19" cx="543.85" cy="799.43" rx="78.56" ry="31.43"/><ellipse class="cls-19" cx="669.61" cy="833.59" rx="15.71" ry="4.49"/><ellipse class="cls-18" cx="990.6" cy="707.73" rx="15.71" ry="4.49"/><ellipse class="cls-18" cx="446.42" cy="729.06" rx="7.86" ry="3.37"/><path class="cls-18" d="M-36.87,798.46h0c41.33-.87,162.79-3.62,215.8-6.88,64.41-4,201.46-21.42,224.22-8.83s-19.44,39.65-42.05,40.26,12.47,2.49,56.64,5.41,42.47,24.49,42.47,24.49H-35.33"/><ellipse class="cls-19" cx="322.27" cy="737.28" rx="21.76" ry="7.25"/><ellipse class="cls-19" cx="1292.61" cy="696.3" rx="44.01" ry="9.32"/><ellipse class="cls-18" cx="1212.34" cy="699.05" rx="23.59" ry="4.2"/><ellipse class="cls-19" cx="1216.01" cy="694.51" rx="19.91" ry="4.54"/><g class="cls-36"><ellipse cx="358.86" cy="707.05" rx="73.48" ry="16.22"/></g><ellipse class="cls-2" cx="358.86" cy="702.04" rx="71.82" ry="15.85"/><path class="cls-4" d="M431.5,698.97c0,21.12-145.29,21.12-145.29,0s145.29-21.06,145.29,0Z"/><g class="cls-8"><path class="cls-1" d="M374.68,683.97l50.37,20.42c2.72-1.67,4.25-3.55,4.25-5.65,0-8.63-25.52-13.55-54.62-14.77Z"/></g><g class="cls-39"><path class="cls-1" d="M298.81,690.32c-6.55,2.19-10.51,5-10.51,8.29,0,10.16,36.72,15,71.59,14.48l-61.08-22.77Z"/></g><path class="cls-40" d="M401.66,652.48c-1.45-1.27-3.38-1.84-5.29-1.57l-37.58,5.29v1.71l37.82-5.33c2.71-.37,5.2,1.53,5.57,4.23,.03,.22,.05,.45,.05,.68v29.73c.67,.43,1,.28,1.71,0v-29.7c0-1.93-.83-3.77-2.28-5.04Z"/><path class="cls-33" d="M403.94,687.25v-29.73c0-.44-.05-.87-.13-1.3l-1.58,3.69v27.37c.67,.4,1.04,.25,1.71-.03Z"/><polygon class="cls-33" points="359.03 657.9 386.59 654.02 376.45 653.71 359.01 656.17 359.03 657.9"/><path class="cls-33" d="M413.36,707.91l-49.85-9.07c.08-.1,.12-.22,.13-.35,0-.29-.26-.56-.69-.79l41-10.43h-1.71l-40.06,10.11c-1.08-.3-2.19-.45-3.31-.43-1.22-.03-2.43,.15-3.59,.52l-49.67-7.62-.85,.75,49.57,7.41c-.14,.12-.23,.29-.24,.48,0,.27,.21,.52,.58,.74l-42,10.12,1.28,.28,41.51-10.07c1.12,.33,2.28,.49,3.44,.47,1.32,.04,2.64-.18,3.88-.64l49.87,8.84,.71-.32Z"/><path class="cls-31" d="M413.36,707.91c-.69,.79-1.11,.49-1.71,0v-38c-.02-2.47-1.83-4.55-4.27-4.91l-96-13.3c-1.41-.2-2.85,.23-3.92,1.17-1.07,.95-1.69,2.31-1.69,3.74v33.75c-.51,.38-1.2,.38-1.71,0v-33.71c-.01-3.68,2.96-6.67,6.64-6.68,.31,0,.62,.02,.92,.06l96,13.31c3.29,.47,5.73,3.29,5.74,6.61v37.96Z"/><polygon class="cls-25" points="323.47 653.41 358.44 658.26 358.29 656.5 336.99 653.55 323.47 653.41"/><path class="cls-10" d="M356.74,696.82l-.74-41c-.07-3.87,5.78-3.92,5.72,0l-.61,41c-.08,1.21-1.13,2.12-2.33,2.04-1.09-.07-1.96-.94-2.04-2.04Z"/><path class="cls-33" d="M358.86,653.38c-.72-.02-1.43,.12-2.09,.41-.23,.23-.42,.5-.54,.8,.19,.5,1.29,.89,2.63,.89s2.46-.4,2.63-.91c-.12-.29-.29-.55-.51-.77-.67-.3-1.39-.44-2.12-.42Z"/><g class="cls-14"><polygon class="cls-1" points="356.56 659.54 357.29 697.44 358.46 698.26 358.73 660.54 356.56 659.54"/></g><polygon class="cls-33" points="356.2 657.91 361.51 670.16 361.55 667.43 357.72 657.34 356.2 657.91"/><path class="cls-31" d="M360.55,657.8c0,.43,.32,.79,.74,.85l5.07,.7c.46,.09,.91-.21,.99-.68v-.03c.09-.47-.23-.91-.69-1h-.03l-5.07-.7c-.47-.08-.91,.23-1,.7,0,.05-.01,.11-.01,.16Z"/><path class="cls-24" d="M363.57,649.83c0,6.25-9.42,6.26-9.42,0s9.42-6.26,9.42,0Z"/><path class="cls-15" d="M363.57,649.83c0-.28-.03-.56-.07-.84l-8.8,3.17c.41,.78,1.06,1.42,1.85,1.81l6.88-2.9c.09-.41,.14-.82,.14-1.24Z"/><path class="cls-15" d="M354.15,649.83c-.02,.24-.02,.48,0,.72l8.7-3.27c-.35-.59-.85-1.09-1.44-1.43l-7.17,2.74c-.08,.41-.11,.82-.09,1.24Z"/><g class="cls-3"><path class="cls-1" d="M354.53,649.7c0,.48,.08,.96,.23,1.42,1.46-3.11,4.7-4.06,8.08-3.17-1.56-3.91-8.31-3.33-8.31,1.75Z"/></g><path class="cls-33" d="M360.96,646c0,.37-.94,.68-2.1,.68s-2.11-.31-2.11-.68,.94-.68,2.11-.68,2.1,.3,2.1,.68Z"/><path class="cls-31" d="M361.28,643.66c0,1.34-1.09,2.42-2.42,2.42-1.33,0-2.42-1.08-2.42-2.42,0-1.34,1.09-2.42,2.42-2.42,1.33,0,2.42,1.08,2.42,2.42Z"/><path class="cls-40" d="M356.74,656.49l-1.78,.25-36.6,5.17c-3.29,.48-5.73,3.3-5.73,6.62v40.82c.48,.45,1.23,.45,1.71,0v-40.84c.02-2.46,1.82-4.54,4.25-4.91l38.11-5.37h.28c.47-.04,.83-.45,.79-.93s-.45-.83-.93-.79c-.03,0-.07,0-.1,.01v-.04Z"/><path class="cls-33" d="M356.7,658.23h.28c.42-.06,.74-.42,.74-.85,0-.1-.03-.2-.07-.29l-29.43,5.19,28.48-4.05Z"/><g class="cls-14"><path class="cls-1" d="M356.66,643.58c0,.21,.03,.42,.08,.62,.52-1.56,2.18-2.44,3.77-2-.79-.92-2.17-1.02-3.09-.23-.47,.41-.75,.99-.76,1.61Z"/></g><g class="cls-14"><path class="cls-1" d="M361.05,643.91c-.74,1.05-1.92,1.69-3.2,1.75,1.01,.6,2.31,.26,2.9-.74,.18-.31,.28-.65,.3-1.01Z"/></g><g class="cls-14"><path class="cls-1" d="M363.05,650.72c-2.13,2.27-3.87,2.58-6.46,2.67,1.73,1.37,4.25,1.08,5.62-.65,.46-.58,.75-1.28,.84-2.02Z"/></g><path class="cls-25" d="M397.44,663.66l9.94,1.38c2.42,.36,4.23,2.42,4.27,4.87v38c.6,.49,1,.79,1.71,0v-38c0-3.32-2.45-6.14-5.74-6.61l-10.49-1.39,.31,1.75Z"/><path class="cls-26" d="M258.33,842.09c-33.65-19.36-69.92-5.44-69.92-5.44,16.82-7.13,4.73-38.7-38.91-35.65,2-16.78-15.63-30.8-54.38-19.48-.44,.89-5.62,2.96-6.29,3.68-1.53,1.61-3.48,2.84-5.1,4.37-.77,.76-25.17-14.84-48.72-14.37s-47.11,17.02-48.2,17.17l3.03,70.43,402.57-.68c-20.51-12.57-100.43-37.01-134.08-20.03Z"/><path class="cls-26" d="M1960.05,800.35c-1.2-.71-2.2-1.65-3.36-2.4-.55-.35-1.45-.47-.32-.37-2.01-.15-3.9-.97-5.39-2.33-30.63-9.14-48.22,.87-46.65,14-34-2.39-43.46,22.24-30.34,27.8,0,0-28.29-10.86-54.53,4.23-26.24-13.24-88.56,5.83-104.55,15.62l242.81,.53,2.46-57.07h-.13Z"/><path class="cls-26" d="M1725.68,839.74c-26.24-15.09-54.53-4.24-54.53-4.24,13.12-5.56,3.69-30.18-30.34-27.8,1.56-13.08-15.79-23-46-14.22-.34,.69-.78,1.33-1.3,1.9-1.2,1.26-2.71,2.22-4,3.41-1.21,1.19-2.77,1.96-4.45,2.18l2.37,54.92,242.81-.53c-16-9.8-78.32-28.86-104.56-15.62Z"/><path class="cls-26" d="M1598.4,798.75c-1.21-.7-2.2-1.64-3.37-2.39-.54-.35-1.44-.47-.32-.37-2.01-.15-3.9-.97-5.39-2.33-30.62-9.14-48.21,.87-46.64,14-34-2.38-43.46,22.24-30.34,27.8,0,0-28.29-10.85-54.53,4.24-26.24-13.24-88.56,5.82-104.55,15.62l242.79,.59,2.47-57.07-.12-.09Z"/><path class="cls-26" d="M617.19,840.62c-26.24-15.09-54.53-4.24-54.53-4.24,13.12-5.56,3.69-30.18-30.34-27.8,1.56-13.08-15.79-23-46-14.22-.33,.7-.77,1.34-1.3,1.9-1.19,1.26-2.71,2.22-4,3.41-1.21,1.19-2.77,1.96-4.45,2.18l2.37,54.92,242.81-.53c-16-9.8-78.32-28.86-104.56-15.62Z"/><path class="cls-26" d="M490.73,797.55c-1.2-.74-2.2-1.72-3.36-2.5-.55-.37-1.45-.49-.32-.39-2.02-.17-3.92-1.03-5.39-2.43-30.63-9.56-48.22,.9-46.65,14.67-34-2.49-43.46,23.24-30.34,29,0,0-28.29-11.34-54.53,4.43-26.24-13.84-88.56,6.08-104.55,16.32l242.81,.56,2.46-59.64-.13-.02Z"/></g><rect class="cls-23" x="45.81" y="343.15" width="1920" height="900"/></g></svg>