<?xml version="1.0" encoding="UTF-8"?><svg id="Layer_1" xmlns="http://www.w3.org/2000/svg" xmlns:xlink="http://www.w3.org/1999/xlink" viewBox="0 0 1920 900"><defs><style>.cls-1{fill:url(#linear-gradient-2);}.cls-2{fill:url(#linear-gradient-6);}.cls-3{opacity:.41;}.cls-4{fill:url(#linear-gradient-5);}.cls-5{clip-path:url(#clippath);}.cls-6{fill:none;}.cls-7{fill:url(#linear-gradient-3);}.cls-8{fill:url(#linear-gradient);}.cls-9{fill:url(#linear-gradient-4);}.cls-10{fill:#666;}</style><clipPath id="clippath"><rect class="cls-6" width="1920" height="900"/></clipPath><linearGradient id="linear-gradient" x1="776.31" y1="1934.71" x2="1045.22" y2="3264.07" gradientTransform="translate(0 3086.58) scale(1 -1)" gradientUnits="userSpaceOnUse"><stop offset=".2" stop-color="#c5f7fd"/><stop offset=".34" stop-color="#b3f0fd"/><stop offset=".66" stop-color="#8ee1fd"/><stop offset=".83" stop-color="#80dbfd"/></linearGradient><linearGradient id="linear-gradient-2" x1="1153.58" y1="2899.91" x2="1305.88" y2="3052.31" gradientTransform="translate(0 3086.58) scale(1 -1)" gradientUnits="userSpaceOnUse"><stop offset=".17" stop-color="#83dcfd"/><stop offset=".9" stop-color="#d7eef4"/></linearGradient><linearGradient id="linear-gradient-3" x1="32.01" y1="2881.46" x2="1686.53" y2="2881.46" gradientTransform="translate(61.29 2953.16) scale(.98 -.91)" gradientUnits="userSpaceOnUse"><stop offset=".2" stop-color="#68c1dd"/><stop offset=".83" stop-color="#68c1dd"/></linearGradient><linearGradient id="linear-gradient-4" x1="1730.61" y1="2775.19" x2="3385.08" y2="2775.19" gradientTransform="translate(0 3086.58) scale(1 -1)" xlink:href="#linear-gradient-3"/><linearGradient id="linear-gradient-5" x1="1383.96" y1="2900.88" x2="1480.56" y2="2969.92" gradientTransform="translate(0 3086.58) scale(1 -1)" gradientUnits="userSpaceOnUse"><stop offset="0" stop-color="#91d5e3" stop-opacity=".44"/><stop offset=".17" stop-color="#a4dce8" stop-opacity=".61"/><stop offset=".37" stop-color="#b6e3ed" stop-opacity=".78"/><stop offset=".55" stop-color="#c4e8f1" stop-opacity=".9"/><stop offset=".7" stop-color="#ccebf3" stop-opacity=".97"/><stop offset=".81" stop-color="#cfecf4"/></linearGradient><linearGradient id="linear-gradient-6" x1="901.77" y1="2914.58" x2="1069.92" y2="2972.73" xlink:href="#linear-gradient-5"/></defs><g class="cls-5"><g><rect class="cls-8" x="-120.71" y="-40.15" width="2160.71" height="571.39"/><path class="cls-1" d="M1151.94,150.72s1.3-8.5,17.68-14.32,30.19-9,44.41-2.24,11.21,21.94,8.2,23.73c-5.86,3.47-18.49,8-52.18,3.58-20.26-2.69-18.11-10.75-18.11-10.75Z"/><path class="cls-7" d="M1497.84,371l.1,162.09-1618.56,.82-.08-132.65,10.23,.29,.62,12.44h9.19l-.31-19.4,54.16,1.44v16.1l63.39,.33,2.62-216.74,14.06-1.1,17,3.46v-2h-2.43v-2.18h2v-5.68h1.06v6.23h3.67v-5.13h1.37v5.31l3.07,1.09-.3,1.65h-.78v1.47l2.91,.36v11l10.55-1.11v-2h.62v1.65h2.28v-19l12.4-.55v-2.2h1.23v-5.32h-1.06v-2h3.67v8h.92v2.75h7.79v-4.21h3.06v2.74h-1l.15,2.38,15.6,2-.13,28.37,9.5,1.27v3.31l1.68,2-1.91,152.86,10.42-.74,6.43,.18,.61-17.76,6.87-.73v-9.71l29.24-.38v-4l22.19-.21v-4h2.47v-23.43l1.6-1.92v-12.22h6.66v-9.33h2.74v.91h3.37v-14.8l.77,.73v2.94l1.84,.36v1.09h2.3l.15-1.83,1.23-.36v1.83l3.2,.18,.46-1.65,1.85-.19,.45,1.66,3.68,.18-.16-1.47,1.69,.19v1.09h3.05v-2.2l.78-.36,.14-2.93h1.38l.32,5.49,3.82,.18,.16-4.21,.92,.18,.45,4,2.76,.91,.15-4.94h.61l.16,5.12,2.9,.56,.61-1.47v-2l1.53,.18,.15,3.85-.6,1.1,.15,8.6,5,.36,.92,8.61,.78,.18,.62,1.46,2.74-.17,.14-15.57,1.39,.19,.43,16.13,13.63,.72-1.33,75h1.85v1.65l.62,.56-.15,2.18-.92,.38-.3,15.93,1.84,.54v2h-1.23l-.15,5.86s9.44-.17,9.8-.19c-.46,0,.31,2.2,.31,2.2l5.33,.17-.76,2.18-.93,.56h-1.37l.62,10.81,1.23,.91v11.9h2.29l1-140.95,15.31-3.13v-8.41l17.6-3.13v-1.29h4.6l.61,.92,41.78,2v9.34l16.85,1.46-.31-16.47,5.8-2.2,2.44-29.85,51.28,.71,3.38,31.49,9.49,.17-.16-3.47,1.69,.17,1.66-25.26,6.9-1.1-.34-50,20.36,.17,13,1.66v-71.78l9.34-3.11h5.2v-2.9h.91v2.6l13.94-.56v-3.3h.91v2.86l8.27-.55v1.84h1.69v-1.65h10.41l12.7,5.13,17.45-1.48,4.44,2.56-1.59,151.21,12.4,2,.44-22.16,6.59,.19v-18.46l17.14-2.2-.48-24.72,2.14-1.47,8.74-1.1v-24.35l1.68-1.09s7.81-1.48,7.34-1.48,22.64-20.87,22.64-20.87h4.6l22.81,20.48,1.09,.37,.3,1.1,7.2,1.45-.15,25.09,11,1.64-.17,41.19,22,.54,.62-7h1.07l.3,4.57h1.08l-.15,2.4,39.48,1.07,.16,6.59,12.27-1.46,.43-12.64,8.72-.37,3.37-10.25,.3-4.77h2l.77,3.85h3.36v-.91h3.83v1.09l20.82-2.94v-1.44h-1.07v-3.1h6.57v4.76l5.36,.19v-2l2.29-2.75,2,.18v2.72l-1.23,.19,.62,2,1.23,.18,.46,3.85-.15,1.46,1.08-.17v3.49h.91v2.56h9.5l-.72,77.62h-6.28l-.13,24.88,3.66,.38v30.2l3.23,.17v-18.11l1.84-.37,.16-5.86,16.07,1.1v-1.84h16.22v1.64h7.05l.08-97.38,1.06-.92,2-.18,.15-.93,1.53-.35,.44-.74,4.75-.18,.16-1.1,3.37-.19v-10.8l5.34-3.11,32.93,1.26v-1.27h3.66v1.09l15.3-.19,.48,15,13.77,.17-.51,178.85,2.47-.2,.07-121.91,1.08-.18,.15-2.74,9,.17v2.38h2.62v-1.47h8.88v1.29h1.54l-.35-63.53,12.55-6.23-.16-10.61,11.32-6.42,34.3,.55v4.92l2.29-.17,2.9-1.28v-1.64h1.23l.76,.91,8-.2v-1.82h-.77l-1.76-2.11,1.38-1.64,1.91-2.3h2.31v-5.67h1.67v6l19.29-.39v-1.64h1.7v2.38l2.6,1.28,.15,2-2,3.66,.31,8.23,1.54,1.11h3.82l-.16,.73,1.39,.18v12.08h8v-1.64l1.37-1.65,2.15,1.83,.35,60.78,2.3,.72v13.74l6.57,.54-.14,14.46,2.91,.54,.31,7.52,1.68,.72,.16,28,1.08,.18-.1,67.73,.59-.18,.48-1.82h5v1.45c0,.73,.47,.73,.47,.73l.15,1.84,9.65-.19-.47-10.07s-1.69-2-2.6-2.19l-.3-1.28h3.66v-1.28l3.52,.18v.54l1.22,.74,.16,.55h3.06l.31-.93c.46-.5,1.04-.87,1.68-1.09,1.08-.36,1.67,1.47,1.67,1.47h3.47l-.46-11.17,1.84-.37-.19-43,2.92-3.11h9.79l.24-107.83,3.22-.18v-9.88l2.12,.18,.16,2,1.37-.36-.15-1.83,14.53,.17,6.29-21.6,.3-3.67,.61-.72,.75-5.87,.92,5.86,.93,1.1,.47,3.3,5.52,22.5,34.58,.91,4.6,.18,4.43,4.21,.33,22.51,1.38,.37,.62,1.82,1.38,.2-.11,79.62h10.71l6.89,5.48-.14,11.54,3.21,.54-.15,11.17,5.68,.18v33.31h2.74v-4.58l16.23-1.28v-7.87l1.39-1.65h2.13l.3-17,5.81-4.59h2.91v-1.65h-1.54v-14.1l7.66-4.94,34.15,.53v14.82l-1.71,1.84,.17,2.92h9.33l.16,7.15-.91,.73,.6,1.27,10.88,10.44,6.28,.17v16.3h7.34v40.27h12.56l-.07-107.82h12.39v-1.83h1.69v2h2.12v-1.65h1.39v1.65h3.82v-3.11h.92v2.93l14.39,.72v-2.38l1.23-.55,.46,.55,.29,1.47h2.3v-3.67h3.36v3.29h2.3v-2h3.67v1.83l.62-.18,2.15-2.21v3.12l19.74,.44Z"/><path class="cls-9" d="M3167.1,355.2l.11,177.36-1654.38,.83-.09-145.15,10.46,.32,.64,13.62h9.39l-.32-21.22,55.36,1.58v17.61l64.79,.37,2.64-237.2,14.37-1.2,17.38,3.79v-2.2h-2.5v-2.39h2v-6.22h1.09v6.81h3.79v-5.59h1.4v5.81l3.14,1.19-.3,1.81h-.8v1.61l3,.39v12l10.79-1.22v-2.2h.64v1.8h2.33v-20.79l12.67-.6v-2.4h1.26v-5.81h-1.13v-2.19h3.76v8.81h1v3h8v-4.61h3.13v3h-1.08l.15,2.6,15.95,2.21-.13,31.05,9.71,1.39v3.61l1.72,2.19-2,167.26,10.66-.81,6.57,.2,.62-19.44,7-.8v-10.64l29.88-.42v-4.39l22.68-.23v-4.38h2.52v-25.65l1.63-2.11v-13.32h6.81v-10.21h2.8v1h3.45v-16.23l.78,.8v3.21l1.88,.4v1.19h2.35l.15-2,1.26-.4v2l3.27,.2,.48-1.81,1.88-.2,.46,1.81,3.76,.2-.16-1.61,1.73,.21v1.2h3.12v-2.41l.8-.4,.15-3.2h1.41l.32,6,3.9,.19,.17-4.61,1,.2,.45,4.41,2.82,1,.15-5.41h.63l.16,5.61,3,.61,.63-1.61v-2.21l1.56,.2,.16,4.21-.62,1.2,.15,9.42,5.17,.39,.94,9.42,.8,.2,.63,1.59,2.81-.19,.13-17,1.42,.2,.48,17.63,13.93,.79-1.52,82.09h1.89v1.81l.64,.61-.15,2.39-1,.41-.3,17.43,1.88,.6v2.19h-1.26l-.15,6.41,10-.2c-.48,0,.31,2.4,.31,2.4l5.47,.2-.78,2.39-.94,.61h-1.4l.63,11.83,1.26,1v13h2.33l1-154.22,15.65-3.43v-9.2l18-3.43v-1.4h4.7l.63,1,42.7,2.19v10.21l17.23,1.6-.32-18,5.92-2.41,2.5-32.65,52.42,.77,3.45,34.45,9.71,.2-.17-3.8,1.73,.18,1.69-27.64,7-1.2-.35-54.69,20.82,.19,13.29,1.81-.05-78.53,9.54-3.4h5.33v-3.2h.93v2.8l14.25-.6v-3.61h.94v3.21l8.45-.61v2h1.72v-1.81h10.64l13,5.61,17.83-1.62,4.54,2.8-1.62,165.45,12.68,2.2,.45-24.24,6.73,.21v-20.27l17.52-2.42-.49-27,2.19-1.61,8.93-1.2v-26.65l1.72-1.19s8-1.62,7.5-1.61,23.14-22.84,23.14-22.84h4.7l23.32,22.41,1.11,.4,.31,1.21,7.35,1.59-.15,27.44,11.28,1.8-.13,45.07,22.52,.59,.63-7.61h1.09l.31,5h1.11l-.16,2.62,40.36,1.17,.16,7.22,12.54-1.6,.44-13.83,8.92-.4,3.44-11.22,.31-5.22h2l.8,4.21h3.43v-1h3.99v1.2l21.28-3.21v-1.61h-1.09v-3.4h6.71v5.21l5.48,.21v-2.22l2.34-3,2,.2v3l-1.25,.21,.63,2.19,1.25,.2,.48,4.21-.16,1.6,1.11-.19v3.8h.92v2.8h9.69l-.73,84.93h-6.41l-.14,27.23,3.75,.41v33.05l3.29,.18v-19.84l1.88-.4,.16-6.41,16.43,1.2v-2h16.57v1.8h7.21l.08-106.54,1.09-1,2-.2,.15-1,1.57-.39,.45-.81,4.85-.2,.16-1.2,3.45-.21v-11.86l5.47-3.4,33.66,1.37v-1.39h3.75v1.15l15.64-.2,.48,16.43,14.09,.19-.52,195.69,2.52-.21,.07-133.39,1.11-.2,.15-3,9.22,.2v2.6h2.65v-1.61h9.07v1.41h1.58l-.37-69.52,12.84-6.82-.17-11.61,11.57-7,35.06,.6v5.44l2.34-.19,3-1.41v-1.79h1.26l.78,1,8.14-.21v-2h-.78l-1.8-2.31,1.41-1.79,2-2.52h2.36v-6.2h1.7v6.62l19.71-.42v-1.8h1.81v2.61l2.66,1.4,.16,2.2-2,4,.33,9,1.56,1.21h3.91l-.16,.8,1.42,.2v13.21h8.12v-1.79l1.41-1.81,2.19,2,.36,66.5,2.35,.8v15l6.72,.59-.14,15.83,3,.59,.32,8.22,1.72,.8,.07,30.66,1.1,.19-.1,74.11,.61-.2,.48-2h5.16v1.59c0,.8,.48,.8,.48,.8l.15,2,9.87-.21-.49-11s-1.72-2.21-2.65-2.4l-.31-1.4h3.7v-1.41l3.6,.2v.6l1.25,.81,.16,.59h3.13l.32-1c.46-.54,1.05-.95,1.72-1.19,1.1-.4,1.71,1.6,1.71,1.6h3.6l-.47-12.22,1.88-.4-.19-47.08,3-3.4h10l.24-118,3.29-.2v-10.83l2.18,.2,.16,2.2,1.4-.4-.15-2,14.85,.19,6.42-23.64,.31-4,.63-.8,.76-6.41,.94,6.41,.95,1.2,.48,3.61,5.65,24.63,35.34,1,4.7,.2,4.54,4.6,.33,24.63,1.41,.41,.63,2,1.41,.22-.1,87.12h10.92l7,6-.15,12.62,3.29,.59-.16,12.22,5.81,.2v36.45h2.8v-5l16.58-1.4v-8.6l1.42-1.81h2.18l.31-18.62,5.93-5h3v-1.87h-1.58v-15.42l7.83-5.41,34.91,.58v16.22l-1.74,2,.16,3.2h9.55l.16,7.82-.93,.8,.61,1.4,11.12,11.41,6.42,.2v17.83h7.5v44.06h12.98l-.07-118h12.66v-2h1.73v2.21h2.17v-1.81h1.42v1.81h3.9v-3.41h.94v3.21l14.71,.78v-2.6l1.26-.6,.47,.6,.3,1.61h2.21v-4h3.44v3.62h2.35v-2.21h3.75v2l.64-.19,2.12-2.41v3.41l20.27,.47Z"/><g class="cls-3"><path class="cls-10" d="M2508.35,463.05h-10.45v-4.67c.92-.49,1.5-1.44,1.51-2.48,0-1.66-1.34-3-3-3s-3,1.34-3,3c0,1.04,.59,1.99,1.51,2.48v4.67h-87.79v-4.67c.92-.49,1.5-1.44,1.51-2.48,0-1.67-1.36-3.03-3.03-3.03s-3.03,1.36-3.03,3.03h0c.01,1.04,.6,2,1.52,2.48v4.67h-87.79v-4.67c.92-.49,1.5-1.44,1.51-2.48,0-1.67-1.36-3.03-3.03-3.03s-3.03,1.36-3.03,3.03h0c.01,1.04,.6,2,1.52,2.48v4.67h-87.79v-4.67c.92-.49,1.5-1.44,1.51-2.48,0-1.67-1.36-3.03-3.03-3.03s-3.03,1.36-3.03,3.03h0c.01,1.04,.6,2,1.52,2.48v4.67h-87.79v-4.67c.92-.49,1.5-1.44,1.51-2.48,0-1.67-1.36-3.03-3.03-3.03s-3.03,1.36-3.03,3.03h0c.01,1.04,.6,2,1.52,2.48v4.67h-87.84v-4.67c.92-.49,1.5-1.44,1.51-2.48,0-1.67-1.36-3.03-3.03-3.03s-3.03,1.36-3.03,3.03h0c.01,1.04,.6,2,1.52,2.48v4.67h-87.77v-4.67c.92-.49,1.5-1.44,1.51-2.48,0-1.67-1.36-3.03-3.03-3.03s-3.03,1.36-3.03,3.03h0c.01,1.04,.6,2,1.52,2.48v4.67h-59v4.29h59v18.6h3v-18.6h87.79v18.6h3v-18.6h87.79v18.6h3v-18.6h87.79v18.6h3v-18.6h87.79v18.6h3v-18.6h87.79v18.6h3v-18.6h87.79v18.6h3v-18.6h10.45l.19-4.29Z"/></g><path class="cls-4" d="M1396.47,153.48c.74-2.32,18.86-12.53,37.25-8.6,19.09,5.94,27,17.69,8.61,19-12.67,.87-25.4,.31-37.94-1.67-4.39-.65-10.24-1.38-7.92-8.73Z"/><path class="cls-2" d="M903,154.26s33.21-19.85,69.18-11.19c36.69,8.84,14,25.75-20,24.27-35.85-1.49-49.18-2.34-49.18-2.34,0,0-22.95-2.84,0-10.74Z"/><rect class="cls-6" x="79.72" y="88.01" width="1608" height="913"/></g></g></svg>