<svg id="Layer_1" data-name="Layer 1" xmlns="http://www.w3.org/2000/svg" viewBox="0 0 634.21 550.22"><defs><style>.cls-1{fill:red;}</style></defs><path class="cls-1" d="M465.87,25.68H168.34C87.9,25.68,22.45,91.12,22.45,171.57V378.66c0,80.44,65.45,145.89,145.89,145.89H465.87c80.44,0,145.89-65.45,145.89-145.89V171.57C611.76,91.12,546.31,25.68,465.87,25.68Zm130.18,353A130.19,130.19,0,0,1,465.87,508.84H168.34A130.18,130.18,0,0,1,38.17,378.66V171.57A130.17,130.17,0,0,1,168.34,41.39H465.87A130.18,130.18,0,0,1,596.05,171.57Z"/></svg>