<svg id="Layer_1" data-name="Layer 1" xmlns="http://www.w3.org/2000/svg" viewBox="0 0 1156.67 169.53"><defs><style>.cls-1{fill:#3172c2;stroke:#fff;stroke-miterlimit:10;stroke-width:2px;}.cls-2{fill:#fcf8f5;}</style></defs><rect class="cls-1" x="279.54" y="45.69" width="505.57" height="78.15" rx="39.07"/><path class="cls-2" d="M339.43,101.72a22.12,22.12,0,0,1-8.91,1.78,21.14,21.14,0,0,1-7.92-1.4A15.67,15.67,0,0,1,316.74,98a18.28,18.28,0,0,1-3.66-6.53,27.28,27.28,0,0,1-1.28-8.69A27.65,27.65,0,0,1,313.11,74a18.4,18.4,0,0,1,3.78-6.68,16.59,16.59,0,0,1,6-4.2A21,21,0,0,1,331,61.62a23.78,23.78,0,0,1,8.91,1.62,13.21,13.21,0,0,1,6.33,5.06l-4.38,6.1a16.63,16.63,0,0,0-4.59-3.78,11.39,11.39,0,0,0-5.43-1.26A9.49,9.49,0,0,0,324,72.82q-2.76,3.45-2.76,9.74,0,6.47,2.67,9.83t7.77,3.37a12.89,12.89,0,0,0,5.43-1.14,19.55,19.55,0,0,0,5.31-3.94l3.84,5.86A17.35,17.35,0,0,1,339.43,101.72Z"/><path class="cls-2" d="M352.06,103.5V61.68h8V103.5Z"/><path class="cls-2" d="M387.81,103.5c0-.27,0-.62-.06-1s-.08-.69-.1-1.14,0-.9-.09-1.38a9.39,9.39,0,0,1-3.91,3.09,12.63,12.63,0,0,1-5.11,1,9.5,9.5,0,0,1-7.67-3.24q-2.73-3.24-2.73-9.24c0-4.83,1.47-8.57,4.41-11.19s7.12-3.93,12.56-3.93c.89,0,1.7,0,2.43.06s1.46.11,2.19.21,1.48.24,2.25.39,1.62.39,2.56.66v17c0,.93,0,1.89.06,2.91s.09,2,.18,2.79c.07,1,.15,2,.24,2.94Zm-1.25-19.56a13.93,13.93,0,0,0-1.9-.3c-.57,0-1.1-.06-1.58-.06A6.43,6.43,0,0,0,378,85.71a8.78,8.78,0,0,0-1.83,5.91,5.86,5.86,0,0,0,1.09,3.84,3.84,3.84,0,0,0,3.12,1.32,5.52,5.52,0,0,0,2.41-.54,6.07,6.07,0,0,0,2-1.53,7.48,7.48,0,0,0,1.35-2.34,9,9,0,0,0,.49-3Z"/><path class="cls-2" d="M422.37,96.18a7.53,7.53,0,0,1-2.54,6q-2.54,2.22-7.15,2.22a29.92,29.92,0,0,1-6.08-.6,17.55,17.55,0,0,1-4.81-1.62l1-6.12a20.48,20.48,0,0,0,9.12,2.7,2.56,2.56,0,0,0,1.89-.57,1.76,1.76,0,0,0,.57-1.29,2.32,2.32,0,0,0-.45-1.47A7,7,0,0,0,411.75,94a35.83,35.83,0,0,1-4.23-2.16,14,14,0,0,1-2.88-2.25A7.51,7.51,0,0,1,403,87.12a8.24,8.24,0,0,1-.51-3,6.77,6.77,0,0,1,2.9-5.85A12.8,12.8,0,0,1,413,76.2a23.25,23.25,0,0,1,4.47.39A21.7,21.7,0,0,1,422,78.12l-1,6.06a14.27,14.27,0,0,0-4.13-1.65,18.47,18.47,0,0,0-3.94-.45,2.77,2.77,0,0,0-1.91.51,1.83,1.83,0,0,0-.52,1.35,2,2,0,0,0,.83,1.65,16.38,16.38,0,0,0,3.19,1.65,37.71,37.71,0,0,1,3.65,2.07,12.67,12.67,0,0,1,2.45,2A6.38,6.38,0,0,1,422,93.57,7.94,7.94,0,0,1,422.37,96.18Z"/><path class="cls-2" d="M449,96.18a7.53,7.53,0,0,1-2.54,6c-1.69,1.48-4.08,2.22-7.15,2.22a29.85,29.85,0,0,1-6.08-.6,17.55,17.55,0,0,1-4.81-1.62l1-6.12a20.48,20.48,0,0,0,9.12,2.7,2.56,2.56,0,0,0,1.89-.57A1.76,1.76,0,0,0,441,96.9a2.32,2.32,0,0,0-.45-1.47A7,7,0,0,0,438.39,94a35.83,35.83,0,0,1-4.23-2.16,14,14,0,0,1-2.88-2.25,7.51,7.51,0,0,1-1.62-2.49,8.24,8.24,0,0,1-.51-3,6.77,6.77,0,0,1,2.9-5.85,12.78,12.78,0,0,1,7.58-2.07,23.25,23.25,0,0,1,4.47.39,21.9,21.9,0,0,1,4.49,1.53l-1,6.06a14.27,14.27,0,0,0-4.13-1.65,18.47,18.47,0,0,0-3.94-.45,2.77,2.77,0,0,0-1.91.51,1.79,1.79,0,0,0-.52,1.35,2,2,0,0,0,.83,1.65,16.38,16.38,0,0,0,3.19,1.65,36.28,36.28,0,0,1,3.64,2.07,12.46,12.46,0,0,1,2.46,2,6.38,6.38,0,0,1,1.36,2.22A7.94,7.94,0,0,1,449,96.18Z"/><path class="cls-2" d="M474.69,84.48q-.84-.18-1.32-.24c-.32,0-.68-.06-1.08-.06a6.11,6.11,0,0,0-5.19,2.35q-1.77,2.34-1.77,7v10h-8V86.18c0-1,0-1.83,0-2.56s-.07-1.4-.15-2-.19-1.24-.33-1.85-.33-1.3-.57-2.08h7.58c.12.49.23.91.34,1.26a6.77,6.77,0,0,1,.21,1c.05.3.09.63.13,1a11.31,11.31,0,0,1,.06,1.26A13.57,13.57,0,0,1,468,78.24a6.54,6.54,0,0,1,3.81-1.14,5.59,5.59,0,0,1,1.41.16,14.08,14.08,0,0,1,1.59.58Z"/><path class="cls-2" d="M504.57,90.22a15.33,15.33,0,0,1-1,5.68,11.47,11.47,0,0,1-2.81,4.16,12.11,12.11,0,0,1-4.36,2.57,18.75,18.75,0,0,1-11.29,0,12,12,0,0,1-4.36-2.57,11.54,11.54,0,0,1-2.84-4.16,16.16,16.16,0,0,1,0-11.22,11.58,11.58,0,0,1,2.78-4.13A11.76,11.76,0,0,1,485,78a17.76,17.76,0,0,1,5.73-.88,18,18,0,0,1,5.65.85,12.16,12.16,0,0,1,4.36,2.52,11.19,11.19,0,0,1,2.81,4.13A15.15,15.15,0,0,1,504.57,90.22Zm-8,0a5.53,5.53,0,0,0-5.94-6,5.59,5.59,0,0,0-4.27,1.59,6.28,6.28,0,0,0-1.49,4.45,6.64,6.64,0,0,0,1.46,4.59,5.47,5.47,0,0,0,4.3,1.61,5.91,5.91,0,0,0,4.4-1.58A6.37,6.37,0,0,0,496.59,90.22Z"/><path class="cls-2" d="M538.47,90.22a15.33,15.33,0,0,1-1,5.68,11.47,11.47,0,0,1-2.81,4.16,12.11,12.11,0,0,1-4.36,2.57,18.75,18.75,0,0,1-11.29,0,12.07,12.07,0,0,1-4.37-2.57,11.64,11.64,0,0,1-2.83-4.16,16.16,16.16,0,0,1,0-11.22,11.45,11.45,0,0,1,2.78-4.13A11.76,11.76,0,0,1,518.94,78a17.76,17.76,0,0,1,5.73-.88,18,18,0,0,1,5.65.85,12.16,12.16,0,0,1,4.36,2.52,11.19,11.19,0,0,1,2.81,4.13A15.15,15.15,0,0,1,538.47,90.22Zm-8,0a6,6,0,0,0-1.61-4.45,5.93,5.93,0,0,0-4.33-1.59,5.59,5.59,0,0,0-4.27,1.59,6.28,6.28,0,0,0-1.49,4.45,6.64,6.64,0,0,0,1.46,4.59,5.47,5.47,0,0,0,4.3,1.61,5.87,5.87,0,0,0,4.39-1.58A6.33,6.33,0,0,0,530.49,90.22Z"/><path class="cls-2" d="M580.41,103.5v-13c0-2.35-.34-4-1-4.9a3.25,3.25,0,0,0-2.74-1.37,4.2,4.2,0,0,0-1.79.43,4.63,4.63,0,0,0-1.64,1.4A7.43,7.43,0,0,0,572,88.63a15.87,15.87,0,0,0-.45,4.1V103.5h-8v-13a9.32,9.32,0,0,0-.93-4.75,3.34,3.34,0,0,0-3.09-1.52,4.35,4.35,0,0,0-3.54,2q-1.5,2-1.5,6.52V103.5h-8V86.93c0-1,0-1.85-.06-2.65s-.11-1.54-.21-2.24a16.59,16.59,0,0,0-.42-2q-.27-1-.63-2.1h8l.45,1.4c.1.31.21.76.33,1.33a18.54,18.54,0,0,1,4.15-2.55,13.49,13.49,0,0,1,5.48-1,9.27,9.27,0,0,1,4.09.87,6,6,0,0,1,2.71,2.43,8.94,8.94,0,0,1,4-2.46,16.65,16.65,0,0,1,5.17-.84,8.54,8.54,0,0,1,6.48,2.39q2.28,2.4,2.28,6.94V103.5Z"/><path class="cls-2" d="M640.29,103.5,626.91,86.75V103.5h-9.54V61.62h13q9.88,0,14.3,3.09a10.26,10.26,0,0,1,4.42,9,10.07,10.07,0,0,1-.91,4.34,9.58,9.58,0,0,1-2.6,3.35,12.25,12.25,0,0,1-4.12,2.18,19,19,0,0,1-5.45.84l15.78,19.08Zm-1.56-29.34a4.6,4.6,0,0,0-2.07-4.08c-1.38-.92-3.6-1.38-6.64-1.38h-1.34a14.6,14.6,0,0,0-1.77.12V79.2l1.46.12,1.16.09c.37,0,.63,0,.79,0A11.58,11.58,0,0,0,636.48,78,4.34,4.34,0,0,0,638.73,74.16Z"/><path class="cls-2" d="M673.05,102.78a11.48,11.48,0,0,1-.51-1.38c-.1-.36-.21-.87-.33-1.56a11.75,11.75,0,0,1-8.46,3.66,8.67,8.67,0,0,1-3.57-.73,8.69,8.69,0,0,1-4.77-5.11,11.67,11.67,0,0,1-.66-4c0-1.63,0-3.15.12-4.55s.14-2.75.18-4,0-2.57,0-3.86-.14-2.64-.3-4.09h8c.12,1.32.19,2.58.21,3.79s0,2.42,0,3.62-.06,2.41-.12,3.64-.09,2.55-.09,3.94a6.54,6.54,0,0,0,.38,2.46,2.84,2.84,0,0,0,1,1.3,2.93,2.93,0,0,0,1.22.49,7.49,7.49,0,0,0,1.07.08,5.74,5.74,0,0,0,1.28-.23,4.11,4.11,0,0,0,1.81-1.1A7.3,7.3,0,0,0,671,92.55a12.1,12.1,0,0,0,.69-4.51V77.1h8V94.56a30,30,0,0,0,.36,4.55,14.76,14.76,0,0,0,1,3.67Z"/><path class="cls-2" d="M689.61,103.5V61.68h8V103.5Z"/><path class="cls-2" d="M729.81,84.36a6.79,6.79,0,0,1-1.07,3.72,8.89,8.89,0,0,1-3,2.85,16.49,16.49,0,0,1-4.67,1.83,25.57,25.57,0,0,1-6.12.66,6.28,6.28,0,0,1-.72,0c-.27,0-.59,0-1,0a5.51,5.51,0,0,0,1.8,3.57,5.65,5.65,0,0,0,3.88,1.29,17.75,17.75,0,0,0,8.84-2.7v6.3a17.3,17.3,0,0,1-4.35,1.89,18.2,18.2,0,0,1-4.71.57,15.54,15.54,0,0,1-5.43-.9,11,11,0,0,1-4.11-2.61,11.55,11.55,0,0,1-2.58-4.08,15,15,0,0,1-.9-5.37,16.75,16.75,0,0,1,1-6,14,14,0,0,1,2.94-4.71,13,13,0,0,1,4.53-3.06A15.23,15.23,0,0,1,720,76.44a11,11,0,0,1,7.11,2.16A7,7,0,0,1,729.81,84.36Zm-8,.6a2.14,2.14,0,0,0-.82-1.65,3.18,3.18,0,0,0-2.08-.69A4.8,4.8,0,0,0,715.51,84a6.72,6.72,0,0,0-1.84,3.87,4.28,4.28,0,0,0,1,.12h.89Q721.83,88,721.83,85Z"/><path class="cls-2" d="M755.37,96.18a7.56,7.56,0,0,1-2.54,6q-2.55,2.22-7.15,2.22a30,30,0,0,1-6.09-.6,17.59,17.59,0,0,1-4.8-1.62l1-6.12a20.48,20.48,0,0,0,9.12,2.7,2.56,2.56,0,0,0,1.89-.57,1.76,1.76,0,0,0,.57-1.29,2.32,2.32,0,0,0-.45-1.47A7,7,0,0,0,744.75,94a35.83,35.83,0,0,1-4.23-2.16,14,14,0,0,1-2.88-2.25A7.51,7.51,0,0,1,736,87.12a8.24,8.24,0,0,1-.51-3,6.77,6.77,0,0,1,2.9-5.85A12.75,12.75,0,0,1,746,76.2a23.25,23.25,0,0,1,4.47.39,21.64,21.64,0,0,1,4.48,1.53l-1,6.06a14.22,14.22,0,0,0-4.12-1.65,18.54,18.54,0,0,0-3.94-.45,2.77,2.77,0,0,0-1.91.51,1.79,1.79,0,0,0-.52,1.35,2,2,0,0,0,.82,1.65,16.55,16.55,0,0,0,3.2,1.65,37.44,37.44,0,0,1,3.64,2.07,13.07,13.07,0,0,1,2.46,2A6.5,6.5,0,0,1,755,93.57,7.94,7.94,0,0,1,755.37,96.18Z"/></svg>