<?xml version="1.0" encoding="UTF-8"?><svg id="Layer_1" xmlns="http://www.w3.org/2000/svg" xmlns:xlink="http://www.w3.org/1999/xlink" viewBox="0 0 1920 900"><defs><style>.cls-1{fill:#b67656;stroke:#a44a24;stroke-width:3.24px;}.cls-1,.cls-2,.cls-3{stroke-miterlimit:10;}.cls-4{fill:url(#linear-gradient-2);}.cls-5{fill:#7b7b7a;}.cls-2{fill:url(#linear-gradient-11);}.cls-2,.cls-3{stroke:#64bb4f;stroke-width:.49px;}.cls-3{fill:url(#linear-gradient-4);}.cls-6{fill:#c19867;}.cls-7{fill:#70bbdd;}.cls-7,.cls-8{opacity:.75;}.cls-7,.cls-8,.cls-9{isolation:isolate;}.cls-10{fill:#d18c5e;}.cls-8{fill:#75bee7;}.cls-11{fill:#7a5d2a;}.cls-12{fill:#e7ad8d;}.cls-13{fill:url(#linear-gradient-6);}.cls-14{fill:#d09d7c;}.cls-15{fill:#868686;}.cls-16{fill:#ac9060;}.cls-17{opacity:.41;}.cls-18{fill:#8c5b48;}.cls-19{fill:url(#linear-gradient-10);}.cls-20{fill:#e6e6e6;}.cls-21{fill:#ac8841;}.cls-22{fill:#f3d3a2;}.cls-23{fill:#aa895b;}.cls-24{opacity:.6;}.cls-25{fill:#6f8289;}.cls-26{fill:#cea852;}.cls-27{fill:#67c192;}.cls-28{fill:url(#linear-gradient-5);}.cls-29{fill:#f4f7f0;}.cls-30{clip-path:url(#clippath);}.cls-31{fill:#951a1d;}.cls-32{fill:#704e18;}.cls-33{fill:none;}.cls-34{fill:url(#linear-gradient-7);}.cls-35{fill:#d7b777;}.cls-36{fill:#7d1416;}.cls-37{fill:#a81e22;}.cls-38{fill:url(#linear-gradient-9);}.cls-39{fill:url(#linear-gradient-3);}.cls-40{fill:#1a1a1a;}.cls-9{fill:#212120;opacity:.37;}.cls-41{fill:url(#linear-gradient);}.cls-42{fill:#6d6d6d;}.cls-43{fill:#723b17;}.cls-44{fill:#e8c991;}.cls-45{fill:#666;}.cls-46{fill:url(#linear-gradient-8);}.cls-47{fill:#a2a2a3;}.cls-48{fill:url(#linear-gradient-12);}.cls-49{fill:#58595b;}</style><clipPath id="clippath"><rect class="cls-33" width="1920" height="900"/></clipPath><linearGradient id="linear-gradient" x1="369.77" y1="-491.44" x2="625.17" y2="-837.82" gradientTransform="translate(0 -229.36) scale(1 -1)" gradientUnits="userSpaceOnUse"><stop offset=".08" stop-color="#acc6df"/><stop offset=".76" stop-color="#81bbe1"/></linearGradient><linearGradient id="linear-gradient-2" x1="297.02" y1="-720.86" x2="1105.81" y2="-720.86" xlink:href="#linear-gradient"/><linearGradient id="linear-gradient-3" x1="413.45" y1="-385.82" x2="741.48" y2="-830.72" xlink:href="#linear-gradient"/><linearGradient id="linear-gradient-4" x1="543.31" y1="-622.23" x2="389.7" y2="-839.64" gradientTransform="translate(0 -229.36) scale(1 -1)" gradientUnits="userSpaceOnUse"><stop offset=".09" stop-color="#57bd89"/><stop offset=".24" stop-color="#59b484"/><stop offset=".5" stop-color="#5ca97f"/></linearGradient><linearGradient id="linear-gradient-5" x1="523.07" y1="-747.85" x2="404.72" y2="-934.67" gradientTransform="translate(0 -229.36) scale(1 -1)" gradientUnits="userSpaceOnUse"><stop offset=".08" stop-color="#29b473"/><stop offset=".14" stop-color="#24b06d"/><stop offset=".46" stop-color="#0a9b50"/><stop offset=".64" stop-color="#009345"/></linearGradient><linearGradient id="linear-gradient-6" x1="809.68" y1="-412.98" x2="919.64" y2="-302.95" gradientTransform="translate(0 -229.36) scale(1 -1)" gradientUnits="userSpaceOnUse"><stop offset=".11" stop-color="#85ddfd"/><stop offset=".84" stop-color="#d7eef4"/></linearGradient><linearGradient id="linear-gradient-7" x1="298.76" y1="-421.64" x2="403.73" y2="-316.6" gradientTransform="translate(0 -229.36) scale(1 -1)" gradientUnits="userSpaceOnUse"><stop offset=".17" stop-color="#83dcfd"/><stop offset=".61" stop-color="#d7eef4"/></linearGradient><linearGradient id="linear-gradient-8" x1="1065.3" y1="-718.37" x2="1042.86" y2="-765.2" gradientTransform="translate(0 -229.36) scale(1 -1)" gradientUnits="userSpaceOnUse"><stop offset="0" stop-color="#5abd89"/><stop offset=".1" stop-color="#5abd89"/><stop offset="1" stop-color="#5abd89"/></linearGradient><linearGradient id="linear-gradient-9" x1="1025.9" y1="-660.67" x2="1028.65" y2="-957.45" gradientTransform="translate(0 -229.36) scale(1 -1)" gradientUnits="userSpaceOnUse"><stop offset=".29" stop-color="#609351"/><stop offset=".73" stop-color="#6bb25e"/><stop offset="1" stop-color="#70bf64"/></linearGradient><linearGradient id="linear-gradient-10" x1="483.83" y1="-758.19" x2="678.56" y2="-758.19" gradientTransform="translate(0 -229.36) scale(1 -1)" gradientUnits="userSpaceOnUse"><stop offset=".08" stop-color="#29b473"/><stop offset=".17" stop-color="#24b06d"/><stop offset=".64" stop-color="#0a9b50"/><stop offset=".9" stop-color="#009345"/></linearGradient><linearGradient id="linear-gradient-11" x1="386.47" y1="-606" x2="232.85" y2="-823.42" xlink:href="#linear-gradient-4"/><linearGradient id="linear-gradient-12" x1="1627.5" y1="-502.19" x2="1690.67" y2="-457.04" gradientTransform="translate(0 -229.36) scale(1 -1)" gradientUnits="userSpaceOnUse"><stop offset="0" stop-color="#91d5e3" stop-opacity=".44"/><stop offset=".17" stop-color="#a4dce8" stop-opacity=".61"/><stop offset=".37" stop-color="#b6e3ed" stop-opacity=".78"/><stop offset=".55" stop-color="#c4e8f1" stop-opacity=".9"/><stop offset=".7" stop-color="#ccebf3" stop-opacity=".97"/><stop offset=".81" stop-color="#cfecf4"/></linearGradient></defs><g class="cls-30"><g><rect class="cls-33" x="378.09" y="547.97" width="1113.01" height="142.48"/><path class="cls-41" d="M368.38,478.67c1.3-.18,175.84-88.95,397.69,44.71-9.82,0-405.94,1.78-405.94,1.78l8.25-46.48Z"/><path class="cls-4" d="M313.45,476.58c2.59-.3,350.27-152.33,792.36,76.56-19.65,0-808.79,3.04-808.79,3.04l16.43-79.6Z"/><path class="cls-39" d="M454.31,403.2c17.55,14.06,38.2,23.72,60.24,28.19,11.47,2.3,34.81,6.71,61.09-1.39,34.24-10.56,37.97-31.43,61.26-35.9,31.18-5.98,58.6,24.87,81.02,43.96,32.94,28.04,88.76,59.33,187.62,66.47l-468.34,3.49c5.7-34.94,11.4-69.88,17.1-104.81Z"/><path class="cls-27" d="M356.53,527.5s9.19-17.93,23.68-9.06c0,0,16.41-8.71,32.91,0,4.86-10.06,30.88,.52,34.87,7.31,11.15-16.47,39.18-14.73,44.4-4.85,14.17-12.51,38.08-6.67,42.24-.44,14.17-8.43,16.62,5.29,16.62,5.29l-194.73,1.75Z"/><path class="cls-3" d="M444.32,609.49s-17.01-100.15,0-179.4c17.01-79.25,30.89-55.99,37.43-11.01,6.53,44.98,12.67,154.66-2.19,190.42s-35.24,0-35.24,0Z"/><path class="cls-28" d="M450.09,666.17s-17.77-64.74,0-115.97c17.77-51.24,32.26-36.22,39.09-7.12,6.83,29.1,13.23,100.02-2.3,123.1-15.53,23.07-36.79,0-36.79,0Z"/><path class="cls-8" d="M1188.96,545.23c-.96-2.73-1.67-5.53-2.14-8.38-.78-5.16-.85-10.39-.21-15.57,.76-8.33,2.36-12.44,3.06-14.09,1.18-2.76,2.28-5.26,3.93-5.34,2.78-.16,5.08,7.11,5.79,9.34,1.67,5.28,1.79,9.6,1.89,14.73,.26,12.65-2.1,17.42-3.23,19.3-.88,1.39-1.83,2.5-9.09,0Z"/><path class="cls-8" d="M1397.91,548.94c-.97-2.73-1.69-5.53-2.15-8.39-.78-5.16-.84-10.4-.2-15.57,.75-8.33,2.36-12.44,3.06-14.09,1.18-2.76,2.28-5.26,3.87-5.34,2.79-.15,5.09,7.12,5.79,9.34,1.67,5.29,1.79,9.6,1.9,14.73,.25,12.66-2.1,17.42-3.24,19.31-.84,1.39-1.77,2.5-9.03,0Z"/><path class="cls-8" d="M1486.34,548.94c-.96-2.73-1.67-5.54-2.14-8.39-.78-5.16-.85-10.39-.21-15.57,.76-8.33,2.36-12.44,3.06-14.09,1.18-2.76,2.28-5.26,3.88-5.34,2.78-.15,5.08,7.12,5.79,9.34,1.67,5.29,1.79,9.6,1.89,14.73,.26,12.66-2.1,17.42-3.23,19.31-.83,1.39-1.78,2.5-9.04,0Z"/><path class="cls-8" d="M1256.83,548.94c-.96-2.73-1.68-5.54-2.15-8.39-.77-5.16-.84-10.4-.2-15.57,.76-8.33,2.36-12.44,3.06-14.09,1.18-2.76,2.28-5.26,3.93-5.34,2.78-.15,5.08,7.12,5.79,9.34,1.67,5.29,1.79,9.6,1.89,14.73,.26,12.66-2.1,17.42-3.23,19.31-.88,1.39-1.83,2.5-9.09,0Z"/><path class="cls-8" d="M1302.53,546.33c-.97-2.72-1.69-5.53-2.15-8.38-.78-5.16-.85-10.4-.2-15.57,.75-8.33,2.36-12.44,3.06-14.09,1.19-2.76,2.29-5.26,3.93-5.34,2.79-.16,5.08,7.11,5.79,9.34,1.67,5.29,1.79,9.6,1.89,14.73,.26,12.66-2.1,17.42-3.23,19.31-.88,1.39-1.83,2.5-9.08,0Z"/><path class="cls-8" d="M1152.93,552.98c-.5-2.21-.87-4.44-1.1-6.69-.4-4.13-.43-8.28-.11-12.42,.13-3.79,.65-7.56,1.57-11.24,.61-2.2,1.18-4.19,1.96-4.26,1.42-.13,2.6,5.67,2.95,7.45,.72,3.89,1.05,7.84,.98,11.79,.13,10.1-1.08,13.9-1.66,15.41-.39,1.07-.87,1.95-4.6-.04Z"/><path class="cls-13" d="M809.16,158.68s.87-6.6,11.97-11.12,20.44-6.94,30.08-1.73,7.59,17.01,5.55,18.4c-3.93,2.7-12.51,6.24-35.36,2.78-13.69-2.08-12.24-8.33-12.24-8.33Z"/><path class="cls-34" d="M297.65,167.69s.88-5.83,12.09-9.82c11.21-4,20.63-6.13,30.39-1.53,9.76,4.6,7.67,15.01,5.6,16.24-4.01,2.38-12.64,5.5-35.69,2.45-13.87-1.82-12.4-7.33-12.4-7.33Z"/><path class="cls-8" d="M1211.37,542.1c-.5-2.21-.87-4.44-1.11-6.69-.4-4.13-.43-8.28-.1-12.42,.12-3.79,.64-7.56,1.57-11.24,.61-2.2,1.17-4.19,1.96-4.26,1.42-.13,2.6,5.67,2.95,7.45,.72,3.89,1.05,7.84,.98,11.79,.14,10.1-1.07,13.9-1.66,15.41-.39,1.07-.87,1.95-4.6-.04Z"/><path class="cls-46" d="M1055.43,520.09c-.5-2.21-.87-4.44-1.1-6.69-.4-4.13-.43-8.28-.11-12.42,.13-3.79,.65-7.56,1.57-11.24,.61-2.21,1.18-4.19,1.96-4.27,1.42-.12,2.6,5.68,2.95,7.46,.72,3.89,1.05,7.84,.98,11.79,.13,10.1-1.08,13.9-1.66,15.4-.39,1.08-.87,1.96-4.6-.03Z"/><rect class="cls-38" x="-32.9" y="554.17" width="2121.22" height="146.5"/><path class="cls-7" d="M1101.71,560.43s9.2-17.93,23.69-9.05c0,0,16.41-8.72,32.9,0,4.91-10.06,30.89,.52,34.88,7.31,11.14-16.47,39.18-14.73,44.4-4.85,14.17-12.51,38.08-6.67,42.24-.44,14.18-8.43,16.61,5.29,16.61,5.29l-194.73,1.74Z"/><path class="cls-7" d="M1054.84,556.41s9.2-17.94,23.65-9.1c0,0,16.41-8.71,32.9,0,4.91-10.06,30.88,.52,34.88,7.32,11.14-16.48,39.18-14.73,44.4-4.91,14.17-12.51,38.08-6.67,42.24-.44,14.18-8.42,16.61,5.3,16.61,5.3l-194.69,1.83Z"/><path class="cls-7" d="M1273.61,558.27s9.2-17.92,23.69-9.05c0,0,16.4-8.72,32.9,0,4.91-10.06,30.88,.52,34.87,7.31,11.15-16.47,39.19-14.73,44.4-4.85,14.18-12.51,38.09-6.67,42.24-.44,14.18-8.43,16.62,5.29,16.62,5.29l-194.73,1.74Z"/><path class="cls-7" d="M1464.93,559.69s9.2-17.93,23.69-9.06c0,0,16.41-8.71,32.91,0,4.85-10.06,30.88,.52,34.87,7.32,11.15-16.48,39.18-14.73,44.4-4.91,14.17-12.51,38.08-6.67,42.24-.44,14.18-8.42,16.61,5.3,16.61,5.3l-194.73,1.79Z"/><polygon class="cls-23" points="-34.37 532.61 -34.37 594.07 713.9 594.07 713.9 535.79 -34.37 532.61"/><rect class="cls-10" x="-34.37" y="525.2" width="748.26" height="6.91"/><rect class="cls-6" x="-34.37" y="518.36" width="748.26" height="13.74"/><g class="cls-24"><rect class="cls-11" x="265.45" y="569.23" width="13.99" height="7.67"/><rect class="cls-11" x="272.44" y="578.77" width="13.99" height="7.67"/></g><g class="cls-24"><rect class="cls-11" x="405.17" y="540.34" width="13.99" height="7.67"/><rect class="cls-11" x="412.17" y="549.88" width="13.99" height="7.67"/></g><g class="cls-24"><rect class="cls-11" x="545.68" y="544.17" width="13.99" height="7.67"/><rect class="cls-11" x="552.67" y="553.71" width="13.99" height="7.67"/></g><g class="cls-24"><rect class="cls-11" x="464.74" y="560.62" width="13.99" height="7.67"/><rect class="cls-11" x="471.74" y="570.17" width="13.99" height="7.67"/></g><g class="cls-24"><rect class="cls-11" x="679.57" y="544.17" width="13.99" height="7.67"/><rect class="cls-11" x="686.56" y="553.71" width="13.99" height="7.67"/></g><polygon class="cls-23" points="2088.33 530.27 2088.33 596.48 702.01 594.08 702.01 533.57 2088.33 530.27"/><rect class="cls-18" x="-48.24" y="530.27" width="2136.56" height="7.98"/><rect class="cls-6" x="713.91" y="520.77" width="1391.11" height="11.3"/><g class="cls-24"><rect class="cls-32" x="1261.83" y="547.44" width="16.01" height="7.52"/><rect class="cls-32" x="1253.83" y="556.81" width="16.01" height="7.52"/><rect class="cls-32" x="1210.42" y="566.9" width="16.01" height="7.52"/><rect class="cls-32" x="1202.41" y="576.26" width="16.01" height="7.52"/><rect class="cls-32" x="1050.53" y="538.54" width="16.01" height="7.52"/><rect class="cls-32" x="1042.52" y="547.91" width="16.01" height="7.52"/><rect class="cls-32" x="1027.26" y="547.21" width="16.01" height="7.52"/><rect class="cls-32" x="1019.26" y="556.58" width="16.01" height="7.52"/><rect class="cls-32" x="1119.88" y="563.36" width="16.01" height="7.52"/><rect class="cls-32" x="1111.87" y="572.72" width="16.01" height="7.52"/><rect class="cls-32" x="736.53" y="557.03" width="16.01" height="7.52"/><rect class="cls-32" x="728.53" y="566.41" width="16.01" height="7.52"/><rect class="cls-32" x="1296.95" y="580.71" width="16.01" height="7.52"/><rect class="cls-32" x="1421.69" y="551.9" width="16.01" height="7.52"/><rect class="cls-32" x="1386.03" y="576.49" width="16.01" height="7.52"/><rect class="cls-32" x="1378.02" y="585.86" width="16.01" height="7.52"/><rect class="cls-32" x="1539.93" y="547.21" width="16.01" height="7.52"/><rect class="cls-32" x="1531.92" y="556.58" width="16.01" height="7.52"/></g><g class="cls-24"><rect class="cls-43" x="1909.34" y="547.08" width="16.01" height="7.52"/><rect class="cls-43" x="1901.33" y="556.46" width="16.01" height="7.52"/><rect class="cls-43" x="1857.92" y="566.54" width="16.01" height="7.52"/><rect class="cls-43" x="1849.91" y="575.91" width="16.01" height="7.52"/><rect class="cls-43" x="1698.03" y="538.18" width="16.01" height="7.52"/><rect class="cls-43" x="1690.02" y="547.56" width="16.01" height="7.52"/><rect class="cls-43" x="1674.77" y="546.86" width="16.01" height="7.52"/><rect class="cls-43" x="1666.77" y="556.23" width="16.01" height="7.52"/><rect class="cls-43" x="1767.39" y="563.01" width="16.01" height="7.52"/><rect class="cls-43" x="1759.38" y="572.38" width="16.01" height="7.52"/><rect class="cls-43" x="1384.04" y="556.68" width="16.01" height="7.52"/><rect class="cls-43" x="1376.03" y="566.05" width="16.01" height="7.52"/></g><g class="cls-17"><path class="cls-45" d="M1345.27,495.25h-10.27v-4.59c.9-.48,1.47-1.41,1.48-2.44,0-1.64-1.33-2.98-2.98-2.98s-2.98,1.33-2.98,2.98c.01,1.02,.59,1.96,1.49,2.44v4.59h-86.24v-4.59c.9-.48,1.47-1.41,1.48-2.44,0-1.64-1.33-2.98-2.98-2.98s-2.98,1.33-2.98,2.98c.01,1.02,.59,1.96,1.49,2.44v4.59h-86.24v-4.59c.9-.48,1.47-1.41,1.48-2.44,0-1.64-1.33-2.98-2.98-2.98s-2.98,1.33-2.98,2.98c.01,1.02,.59,1.96,1.49,2.44v4.59h-86.24v-4.59c.9-.48,1.47-1.41,1.48-2.44,0-1.64-1.33-2.98-2.98-2.98s-2.98,1.33-2.98,2.98c.01,1.02,.59,1.96,1.49,2.44v4.59h-86.24v-4.59c.9-.48,1.47-1.41,1.48-2.44,0-1.64-1.33-2.98-2.98-2.98s-2.98,1.33-2.98,2.98c.01,1.02,.59,1.96,1.49,2.44v4.59h-86.27v-4.59c.9-.48,1.47-1.41,1.48-2.44,0-1.64-1.33-2.98-2.98-2.98s-2.98,1.33-2.98,2.98c.01,1.02,.59,1.96,1.49,2.44v4.59h-86.21v-4.59c.9-.48,1.47-1.41,1.48-2.44,0-1.64-1.33-2.98-2.98-2.98s-2.98,1.33-2.98,2.98c.01,1.02,.59,1.96,1.49,2.44v4.59h-57.96v4.21h57.96v18.27h2.95v-18.27h86.27v18.27h2.95v-18.27h86.24v18.27h2.95v-18.27h86.24v18.27h2.95v-18.27h86.24v18.27h2.95v-18.27h86.24v18.27h2.95v-18.27h86.24v21.36h2.95v-21.36h10.27l.18-4.21Z"/><path class="cls-20" d="M974.64,488.46c1.3,1.09,3.58-.98,2.34-2.15-1.41-1.34-3.6,1.08-2.34,2.15Z"/><path class="cls-20" d="M1063.86,488.46c1.3,1.09,3.58-.98,2.34-2.15-1.45-1.34-3.63,1.08-2.34,2.15Z"/><path class="cls-20" d="M1153.07,488.43c1.3,1.09,3.58-.98,2.34-2.15-1.41-1.34-3.63,1.11-2.34,2.15Z"/><path class="cls-20" d="M885.43,488.43c1.3,1.09,3.58-.98,2.34-2.15-1.41-1.34-3.63,1.11-2.34,2.15Z"/><path class="cls-40" d="M801.2,495.25h-1.48v-4.59c1.35-.69,1.87-2.35,1.18-3.69-.31-.59-.82-1.06-1.44-1.3,.17,.36,.26,.75,.27,1.15-.07,1.57-1.37,2.81-2.95,2.81-.42,0-.84-.08-1.23-.25,.51,1.03,1.56,1.68,2.71,1.65,.2,0,.4-.02,.6-.06v26.76h.89v-18.27h86.21v-1.37h-84.76v-2.85Z"/><path class="cls-40" d="M979.63,498.09v-2.85h-1.48v-4.52c1.35-.69,1.87-2.35,1.18-3.69-.31-.59-.82-1.06-1.44-1.3,.17,.36,.26,.75,.27,1.15-.07,1.57-1.37,2.81-2.95,2.81-.42,0-.84-.08-1.23-.25,.51,1.03,1.56,1.68,2.71,1.65,.2,.01,.4,.01,.6,0v26.74h.89v-18.34h86.24v-1.4h-84.78Z"/><path class="cls-40" d="M1068.85,498.09v-2.85h-1.48v-4.52c1.35-.69,1.87-2.35,1.18-3.69-.31-.59-.82-1.06-1.44-1.3,.17,.36,.26,.75,.27,1.15-.07,1.57-1.37,2.81-2.95,2.81-.42,0-.84-.08-1.23-.25,.51,1.03,1.56,1.68,2.71,1.65,.2,.01,.4,.01,.6,0v26.74h.89v-18.34h86.24v-1.4h-84.78Z"/><path class="cls-40" d="M1158.06,498.09v-2.85h-1.48v-4.59c1.34-.69,1.87-2.35,1.18-3.69-.31-.59-.82-1.06-1.44-1.3,.17,.36,.26,.75,.27,1.15-.07,1.57-1.37,2.81-2.95,2.81-.42,0-.84-.08-1.23-.25,.5,1.03,1.56,1.68,2.71,1.65,.2,0,.4-.02,.6-.06v26.76h.89v-18.27h86.24v-1.37h-84.78Z"/><path class="cls-40" d="M1247.28,495.25h-1.48v-4.59c1.34-.69,1.87-2.35,1.18-3.69-.31-.59-.82-1.06-1.44-1.3,.17,.36,.26,.75,.27,1.15-.07,1.57-1.37,2.81-2.95,2.81-.42,0-.84-.08-1.23-.25,.5,1.03,1.56,1.68,2.71,1.65,.2,0,.4-.02,.6-.06v26.76h.89v-18.27h86.24v-1.37h-84.76l-.03-2.85Z"/><path class="cls-40" d="M890.42,498.09v-2.85h-1.51v-4.59c1.35-.69,1.87-2.35,1.18-3.69-.31-.59-.82-1.06-1.44-1.3,.17,.36,.26,.75,.27,1.15-.07,1.57-1.37,2.81-2.95,2.81-.42,0-.84-.08-1.23-.25,.51,1.03,1.56,1.68,2.71,1.65,.2,0,.4-.02,.6-.06v26.76h.86v-18.27h86.24v-1.37h-84.73Z"/></g><g class="cls-17"><path class="cls-45" d="M1937.41,495.15h-10.27v-4.59c.9-.48,1.47-1.41,1.48-2.44,0-1.63-1.32-2.95-2.95-2.95s-2.95,1.32-2.95,2.95c.01,1.02,.58,1.96,1.48,2.44v4.59h-86.29v-4.59c.9-.48,1.47-1.41,1.48-2.44,0-1.63-1.32-2.95-2.95-2.95s-2.95,1.32-2.95,2.95c.01,1.02,.58,1.96,1.48,2.44v4.59h-86.24v-4.59c.9-.48,1.47-1.41,1.48-2.44,0-1.63-1.32-2.95-2.95-2.95s-2.95,1.32-2.95,2.95c.01,1.02,.58,1.96,1.48,2.44v4.59h-86.24v-4.59c.9-.48,1.47-1.41,1.48-2.44,0-1.63-1.32-2.95-2.95-2.95s-2.95,1.32-2.95,2.95c.01,1.02,.58,1.96,1.48,2.44v4.59h-86.24v-4.59c.9-.48,1.47-1.41,1.48-2.44,0-1.64-1.33-2.97-2.97-2.97s-2.97,1.33-2.97,2.97c.01,1.02,.58,1.96,1.48,2.44v4.59h-86.24v-4.59c.9-.48,1.47-1.41,1.48-2.44,0-1.63-1.32-2.95-2.95-2.95s-2.95,1.32-2.95,2.95c.01,1.02,.58,1.96,1.48,2.44v4.59h-86.43v-4.59c.9-.48,1.47-1.41,1.48-2.44,0-1.63-1.32-2.95-2.95-2.95s-2.95,1.32-2.95,2.95c.01,1.02,.58,1.96,1.48,2.44v4.59h-57.96v4.22h57.96v21.43h2.95v-21.43h86.24v21.43h2.95v-21.43h86.24v21.45h2.95v-21.45h86.24v18.26h2.95v-18.26h86.24v18.26h2.95v-18.26h86.24v21.43h2.95v-21.43h86.24v18.26h2.95v-18.26h10.27l.16-4.22Z"/><path class="cls-20" d="M1566.78,488.37c1.3,1.09,3.58-.98,2.34-2.14-1.42-1.39-3.63,1.01-2.34,2.14Z"/><path class="cls-20" d="M1655.99,488.37c1.3,1.09,3.58-.98,2.34-2.14-1.41-1.39-3.63,1.01-2.34,2.14Z"/><path class="cls-20" d="M1745.21,488.29c1.3,1.09,3.58-.98,2.34-2.15-1.41-1.34-3.63,1.07-2.34,2.15Z"/><path class="cls-20" d="M1477.56,488.29c1.3,1.09,3.58-.98,2.34-2.15-1.41-1.34-3.63,1.07-2.34,2.15Z"/><path class="cls-40" d="M1393.34,495.15h-1.48v-4.59c1.34-.69,1.87-2.35,1.18-3.69-.31-.59-.82-1.06-1.44-1.3,.17,.36,.26,.75,.27,1.15-.07,1.57-1.37,2.81-2.95,2.81-.42,0-.83-.08-1.22-.25,.5,1.03,1.56,1.67,2.7,1.65,.2,0,.4-.02,.6-.05v29.89h.89v-21.4h86.24v-1.4h-84.76l-.03-2.82Z"/><path class="cls-40" d="M1571.77,497.97v-2.82h-1.48v-4.56c1.34-.69,1.87-2.35,1.18-3.69-.31-.59-.82-1.06-1.44-1.3,.17,.36,.26,.75,.27,1.15-.07,1.57-1.37,2.81-2.95,2.81-.42,0-.83-.08-1.22-.25,.5,1.03,1.56,1.67,2.7,1.65,.2,0,.4-.02,.6-.05v29.88h.89v-21.43h86.24v-1.4h-84.78Z"/><path class="cls-40" d="M1661.01,497.97v-2.82h-1.48v-4.56c1.34-.69,1.87-2.35,1.18-3.69-.31-.59-.82-1.06-1.44-1.3,.17,.36,.26,.75,.27,1.15-.07,1.57-1.37,2.81-2.95,2.81-.42,0-.83-.08-1.22-.25,.5,1.03,1.56,1.67,2.7,1.65,.2,0,.4-.02,.6-.05v26.75h.89v-18.29h86.24v-1.4h-84.78Z"/><path class="cls-40" d="M1750.2,497.97v-2.82h-1.48v-4.59c1.34-.69,1.87-2.35,1.18-3.69-.31-.59-.82-1.06-1.44-1.3,.17,.36,.26,.75,.27,1.15-.07,1.57-1.37,2.81-2.95,2.81-.42,0-.83-.08-1.22-.25,.5,1.03,1.56,1.67,2.7,1.65,.2,0,.4-.02,.6-.05v26.75h.89v-18.26h86.24v-1.4h-84.78Z"/><path class="cls-40" d="M1839.41,495.15h-1.48v-4.59c1.34-.69,1.87-2.35,1.18-3.69-.31-.59-.82-1.06-1.44-1.3,.17,.36,.26,.75,.27,1.15-.07,1.57-1.37,2.81-2.95,2.81-.42,0-.83-.08-1.22-.25,.5,1.03,1.56,1.67,2.7,1.65,.2,0,.4-.02,.6-.05v29.91h.89v-21.43h86.24v-1.4h-84.76l-.03-2.82Z"/><path class="cls-40" d="M1482.55,497.97v-2.82h-1.48v-4.59c1.34-.69,1.87-2.35,1.18-3.69-.31-.59-.82-1.06-1.44-1.3,.17,.36,.26,.75,.27,1.15-.07,1.57-1.37,2.81-2.95,2.81-.42,0-.83-.08-1.22-.25,.5,1.03,1.56,1.67,2.7,1.65,.2,0,.4-.02,.6-.05v29.91h.89v-21.43h86.24v-1.4h-84.78Z"/></g><g class="cls-17"><path class="cls-45" d="M456.3,496.57h-10.28v-4.59c.9-.48,1.47-1.41,1.48-2.44,0-1.64-1.33-2.97-2.97-2.97s-2.97,1.33-2.97,2.97c.01,1.02,.58,1.96,1.48,2.44v4.59h-86.24v-4.59c.9-.48,1.47-1.41,1.48-2.44,0-1.64-1.33-2.97-2.97-2.97s-2.97,1.33-2.97,2.97c.01,1.02,.58,1.96,1.48,2.44v4.59h-86.24v-4.59c.89-.49,1.45-1.42,1.45-2.44,0-1.64-1.33-2.97-2.97-2.97s-2.97,1.33-2.97,2.97c.01,1.02,.58,1.96,1.48,2.44v4.59h-86.21v-4.59c.9-.48,1.47-1.41,1.48-2.44,0-1.63-1.32-2.95-2.95-2.95s-2.95,1.32-2.95,2.95c.01,1.02,.58,1.96,1.48,2.44v4.59H89.17v-4.59c.9-.48,1.47-1.41,1.48-2.44-.04-1.59-1.36-2.84-2.95-2.81-1.59-.03-2.9,1.22-2.95,2.81,.01,1.02,.58,1.96,1.48,2.44v4.59H-.05v-4.59c.9-.48,1.47-1.41,1.48-2.44-.04-1.59-1.36-2.84-2.95-2.81-1.59-.03-2.9,1.22-2.95,2.81,0,1.01,.53,1.94,1.4,2.44v4.59H-89.29v-4.59c.9-.48,1.47-1.41,1.48-2.44-.04-1.59-1.36-2.84-2.95-2.81-1.59-.03-2.9,1.22-2.95,2.81,.01,1.02,.58,1.96,1.48,2.44v4.59h-57.96v4.21h57.96v18.27h2.95v-18.27H-3.05v18.27H-.1v-18.27H86.19v18.27h2.95v-18.27h86.27v18.27h2.95v-18.27h86.24v18.27h2.95v-18.27h86.24v18.27h2.95v-18.27h86.24v18.27h2.95v-18.27h10.28l.12-4.21Z"/><path class="cls-20" d="M85.67,489.75c1.3,1.09,3.57-.98,2.34-2.15-1.42-1.34-3.63,1.07-2.34,2.15Z"/><path class="cls-20" d="M174.89,489.75c1.3,1.09,3.57-.98,2.34-2.15-1.42-1.34-3.64,1.07-2.34,2.15Z"/><path class="cls-20" d="M264.14,489.72c1.3,1.09,3.57-.98,2.34-2.15-1.46-1.34-3.68,1.07-2.34,2.15Z"/><path class="cls-40" d="M90.65,499.38v-2.81h-1.48v-4.56c1.34-.69,1.87-2.35,1.18-3.69-.31-.59-.82-1.06-1.44-1.3,.17,.36,.26,.75,.27,1.15-.07,1.57-1.37,2.81-2.95,2.81-.42,0-.83-.08-1.22-.25,.51,1.03,1.56,1.68,2.71,1.65,.2,.01,.39,.01,.59,0v26.75h.89v-18.35h86.21v-1.4H90.65Z"/><path class="cls-40" d="M179.87,499.38v-2.81h-1.48v-4.56c1.34-.69,1.87-2.35,1.18-3.69-.31-.59-.82-1.06-1.44-1.3,.17,.36,.26,.75,.27,1.15-.07,1.57-1.37,2.81-2.95,2.81-.42,0-.83-.08-1.22-.25,.51,1.03,1.56,1.68,2.71,1.65,.2,.01,.39,.01,.59,0v26.75h.89v-18.35h86.24v-1.4h-84.78Z"/><path class="cls-40" d="M269.05,499.38v-2.81h-1.48v-4.59c1.35-.7,1.87-2.36,1.17-3.71-.31-.59-.82-1.05-1.43-1.29,.17,.36,.26,.76,.27,1.16-.07,1.57-1.37,2.81-2.95,2.81-.42,0-.83-.08-1.22-.25,.51,1.03,1.56,1.68,2.71,1.65,.2,0,.4-.02,.59-.06v26.76h.89v-18.27h86.24v-1.4h-84.78Z"/><path class="cls-40" d="M358.3,496.57h-1.48v-4.59c1.35-.7,1.87-2.36,1.17-3.71-.31-.59-.82-1.05-1.43-1.29,.17,.36,.26,.76,.27,1.16-.07,1.57-1.37,2.81-2.95,2.81-.42,0-.83-.08-1.22-.25,.51,1.03,1.56,1.68,2.71,1.65,.2,0,.4-.02,.59-.06v26.76h.89v-18.27h86.24v-1.4h-84.78v-2.81Z"/><path class="cls-40" d="M1.44,499.38v-2.81H-.05v-4.59c.9-.48,1.47-1.41,1.48-2.44-.02-1.13-.7-2.14-1.75-2.56,.17,.36,.26,.76,.27,1.16-.07,1.57-1.37,2.81-2.95,2.81-.42,0-.83-.08-1.22-.25,.51,1.03,1.56,1.68,2.71,1.65,.2,0,.4-.02,.59-.06v26.76H-.02v-18.27H86.19v-1.4H1.44Z"/></g><g class="cls-17"><path class="cls-45" d="M1052.95,496.57h-10.32v-4.59c.9-.48,1.47-1.41,1.48-2.44,0-1.64-1.33-2.98-2.98-2.98s-2.98,1.33-2.98,2.98c.01,1.02,.59,1.96,1.49,2.44v4.59h-86.25v-4.59c.91-.48,1.48-1.41,1.49-2.44,0-1.64-1.33-2.98-2.98-2.98s-2.98,1.33-2.98,2.98c.01,1.02,.59,1.96,1.49,2.44v4.59h-86.25v-4.59c.91-.48,1.48-1.41,1.49-2.44,0-1.64-1.33-2.98-2.98-2.98s-2.98,1.33-2.98,2.98c.01,1.02,.59,1.96,1.49,2.44v4.59h-86.27v-4.59c.91-.48,1.48-1.41,1.49-2.44,0-1.64-1.33-2.98-2.98-2.98s-2.98,1.33-2.98,2.98c.01,1.02,.59,1.96,1.49,2.44v4.59h-86.25v-4.59c.91-.48,1.48-1.41,1.49-2.44,0-1.64-1.33-2.98-2.98-2.98s-2.98,1.33-2.98,2.98c.01,1.02,.59,1.96,1.49,2.44v4.59h-86.25v-4.59c.91-.48,1.48-1.41,1.49-2.44,0-1.64-1.33-2.98-2.98-2.98s-2.98,1.33-2.98,2.98c.01,1.02,.59,1.96,1.49,2.44v4.59h-86.25v-4.59c.91-.48,1.48-1.41,1.49-2.44,0-1.64-1.33-2.98-2.98-2.98s-2.98,1.33-2.98,2.98c.01,1.02,.58,1.96,1.48,2.44v4.59h-57.96v4.21h57.96v18.27h2.95v-18.27h86.25v18.27h2.95v-18.27h86.25v18.27h2.95v-18.27h86.34v18.27h2.95v-18.27h86.25v18.27h2.95v-18.27h86.25v18.27h2.95v-18.27h86.25v18.27h2.95v-18.27h10.41v-4.21Z"/><path class="cls-20" d="M682.27,489.75c1.3,1.09,3.57-.98,2.34-2.15-1.41-1.34-3.63,1.07-2.34,2.15Z"/><path class="cls-20" d="M771.48,489.75c1.3,1.09,3.57-.98,2.34-2.15-1.41-1.34-3.63,1.07-2.34,2.15Z"/><path class="cls-20" d="M860.7,489.72c1.3,1.09,3.57-.98,2.34-2.15-1.41-1.34-3.61,1.07-2.34,2.15Z"/><path class="cls-20" d="M593.05,489.72c1.3,1.09,3.57-.98,2.34-2.15-1.41-1.34-3.63,1.07-2.34,2.15Z"/><path class="cls-40" d="M508.83,496.57h-1.49v-4.59c.91-.48,1.48-1.41,1.49-2.44-.02-1.13-.71-2.14-1.76-2.56,.17,.36,.26,.76,.27,1.16-.04,1.59-1.36,2.84-2.95,2.81-.42,0-.84-.08-1.23-.25,.51,1.03,1.56,1.68,2.71,1.65,.2,0,.4-.02,.59-.06v26.76h.89v-18.27h86.25v-1.4h-84.77v-2.81Z"/><path class="cls-40" d="M687.26,499.38v-2.81h-1.49v-4.56c1.35-.68,1.88-2.32,1.2-3.67-.31-.61-.83-1.08-1.47-1.32,.17,.36,.26,.75,.27,1.15-.04,1.59-1.36,2.84-2.95,2.81-.42,0-.84-.08-1.23-.25,.51,1.03,1.56,1.68,2.71,1.65,.2,.02,.39,.02,.59,0v26.75h.89v-18.35h86.22v-1.4h-84.75Z"/><path class="cls-40" d="M776.47,499.38v-2.81h-1.52v-4.56c1.35-.68,1.88-2.32,1.2-3.67-.31-.61-.83-1.08-1.47-1.32,.17,.36,.26,.75,.27,1.15-.04,1.59-1.36,2.84-2.95,2.81-.42,0-.84-.08-1.23-.25,.51,1.03,1.56,1.68,2.71,1.65,.2,.02,.39,.02,.59,0v26.75h.87v-18.35h86.25v-1.4h-84.73Z"/><path class="cls-40" d="M865.69,499.38v-2.81h-1.49v-4.59c.91-.48,1.48-1.41,1.49-2.44-.02-1.13-.71-2.14-1.76-2.56,.17,.36,.26,.76,.27,1.16-.04,1.59-1.36,2.84-2.95,2.81-.42,0-.84-.08-1.23-.25,.51,1.03,1.56,1.68,2.71,1.65,.2,0,.4-.02,.59-.06v26.76h.89v-18.27h86.25v-1.4h-84.77Z"/><path class="cls-40" d="M954.91,496.57h-1.49v-4.59c.91-.48,1.48-1.41,1.49-2.44-.02-1.13-.71-2.14-1.76-2.56,.17,.36,.26,.76,.27,1.16-.04,1.59-1.36,2.84-2.95,2.81-.42,0-.84-.08-1.23-.25,.51,1.03,1.56,1.68,2.71,1.65,.2,0,.4-.02,.59-.06v26.76h.89v-18.27h86.25v-1.4h-84.77v-2.81Z"/><path class="cls-40" d="M598.04,499.38v-2.81h-1.49v-4.59c.91-.48,1.48-1.41,1.49-2.44-.02-1.13-.71-2.14-1.76-2.56,.17,.36,.26,.76,.27,1.16-.04,1.59-1.36,2.84-2.95,2.81-.42,0-.84-.08-1.23-.25,.51,1.03,1.56,1.68,2.71,1.65,.2,0,.4-.02,.59-.06v26.76h.89v-18.27h86.25v-1.4h-84.77Z"/></g><path class="cls-19" d="M483.83,535.87s9.19-17.93,23.69-9.05c0,0,16.4-8.72,32.9,0,4.86-10.06,30.88,.52,34.87,7.31,11.15-16.47,39.19-14.73,44.4-4.86,14.17-12.51,38.08-6.66,42.24-.44,14.17-8.42,16.62,5.3,16.62,5.3l-194.73,1.74Z"/><path class="cls-2" d="M287.48,593.26s-17.01-100.15,0-179.4c17.01-79.25,30.89-55.99,37.43-11.01s12.66,154.66-2.2,190.41c-14.86,35.76-35.23,0-35.23,0Z"/><path class="cls-31" d="M224.85,457.36l21.14-28,308.6-32c9.82,78.42,19.62,156.84,29.4,235.26l-329.54,4.75c-9.91-60-19.77-120-29.6-180.01Z"/><path class="cls-36" d="M224.85,457.36l21.14-28,308.6-32,4.23,72,29.59,152.01h-46.51c-7.94-48.79-15.88-97.58-23.82-146.37l-287.96,20.04-5.27-37.68Z"/><path class="cls-36" d="M303.64,564.33l-6.22-52.32,4.57-7.81c18.16,17.79,37.21,34.64,57.07,50.5l-4.57,7.86-50.86,1.77Z"/><path class="cls-12" d="M301.82,508.2l.84-3.93s26.1-22.91,58.65-1.5l-2.25,51.96-57.24-46.52Z"/><path class="cls-14" d="M308.35,560.97l-6.56-52.77s26.37-22.89,59.29-1.45l-2.23,51.96-50.5,2.27Z"/><polygon class="cls-25" points="308.54 514.16 313.65 538.04 330.55 537.55 328.6 511.7 308.54 514.16"/><polygon class="cls-25" points="354.31 512.3 352.42 536.56 335.59 537.96 334.07 512.08 354.31 512.3"/><polygon class="cls-25" points="313.8 542.03 330.69 541.54 331.16 554.02 314.24 554.03 313.8 542.03"/><polygon class="cls-25" points="351.82 540.94 334.92 541.43 335.38 553.89 352.27 552.94 351.82 540.94"/><path class="cls-36" d="M429.67,561.26l-3.51-52.56,4.97-7.55c17.21,18.7,35.36,36.51,54.38,53.37l-4.96,7.53-50.88-.79Z"/><path class="cls-12" d="M430.75,505.07l1.05-3.93s27.25-21.53,58.65,1.53l-4.91,51.76-54.78-49.36Z"/><path class="cls-14" d="M434.59,558.12l-3.83-53.05s27.51-21.49,59.3,1.61l-4.91,51.77-50.56-.33Z"/><polygon class="cls-25" points="437.16 511.41 441.04 535.51 457.94 535.9 457.32 509.99 437.16 511.41"/><polygon class="cls-25" points="482.97 511.92 479.83 536.04 462.95 536.56 462.77 510.65 482.97 511.92"/><polygon class="cls-25" points="440.98 539.51 457.88 539.9 457.69 552.38 440.8 551.51 440.98 539.51"/><polygon class="cls-25" points="479.01 540.39 462.1 540 461.91 552.48 478.83 552.39 479.01 540.39"/><polygon class="cls-36" points="584.29 598.04 249.84 607.99 249.98 603.99 249.98 603.99 255.66 603.31 584.54 590.97 584.29 598.04"/><polygon class="cls-14" points="578.64 596.22 247.23 603.78 245.85 597.22 247.89 597.17 249.97 597.12 578.98 589.17 578.64 596.22"/><polygon class="cls-9" points="481.29 336.05 483.4 348.11 481.29 452.08 492.31 458.99 550.35 452.71 543.39 330.77 537.67 329.35 481.29 336.05"/><path class="cls-31" d="M1302.85,457.36l-21.14-28-308.61-32c-15.11,78.68-30.22,157.35-45.34,236.01l345.49,4c9.86-60,19.73-120,29.6-180.01Z"/><path class="cls-36" d="M1302.85,457.36l-21.14-28-308.61-32-36.09,80.55,66.8,3.87,291.52,10.34c2.5-11.6,5.01-23.19,7.52-34.76Z"/><path class="cls-36" d="M1165.75,563.59l-3.5-47.87,3.34-12.28s19.88,30.54,54.68,52.16l-7.86,8.6-46.66-.61Z"/><path class="cls-12" d="M1225.2,507.1l-.98-3.93s-26.77-22.11-58.66,.26l3.8,51.87,55.85-48.19Z"/><path class="cls-14" d="M1220.22,560.08l4.98-52.96s-27.04-22.08-59.31,.32l3.78,51.87,50.55,.77Z"/><polygon class="cls-25" points="1218.66 513.26 1214.27 537.28 1197.36 537.3 1198.54 511.41 1218.66 513.26"/><polygon class="cls-25" points="1172.86 512.78 1175.47 536.97 1192.33 537.86 1193.08 511.96 1172.86 512.78"/><polygon class="cls-25" points="1214.24 541.28 1197.33 541.31 1197.25 553.78 1214.16 553.28 1214.24 541.28"/><polygon class="cls-25" points="1176.2 541.34 1193.11 541.31 1193.02 553.78 1176.13 553.34 1176.2 541.34"/><path class="cls-36" d="M1029.42,563.33l-3.5-47.87,3.34-12.28s19.88,30.54,54.68,52.16l-7.86,8.6-46.66-.61Z"/><path class="cls-12" d="M1088.88,506.85l-.98-3.93s-26.78-22.11-58.67,.26l3.81,51.87,55.85-48.19Z"/><path class="cls-14" d="M1083.89,559.8l4.99-52.96s-27.05-22.08-59.32,.32l3.78,51.87,50.55,.77Z"/><polygon class="cls-25" points="1082.34 513.01 1077.94 537.02 1061.04 537.04 1062.21 511.15 1082.34 513.01"/><polygon class="cls-25" points="1036.54 512.52 1039.14 536.71 1056.02 537.6 1056.76 511.7 1036.54 512.52"/><polygon class="cls-25" points="1077.91 541.02 1061.02 541.05 1060.93 553.53 1077.83 553.03 1077.91 541.02"/><polygon class="cls-25" points="1039.89 541.07 1056.78 541.05 1056.7 553.53 1039.8 553.09 1039.89 541.07"/><path class="cls-15" d="M1373.04,459.88c-.79,5.24-1.58,10.48-2.37,15.72l-406.53-17.21,13.16-21.03,395.73,22.52Z"/><path class="cls-42" d="M1272.65,344.11l21.74,29.25,78.66,86.52-407.16-16.4,15.72-114.13,291.04,14.75Z"/><path class="cls-15" d="M163.6,455.82c.79,5.24,1.58,10.48,2.37,15.72l406.52-17.25-13.17-21.03-395.71,22.56Z"/><path class="cls-42" d="M263.99,340.04l-21.74,29.24-78.66,86.53,407.16-16.44-15.67-114.13-291.09,14.79Z"/><polygon class="cls-36" points="943.38 598.53 1277.87 607.49 1277.72 603.49 1277.72 603.49 1272.03 602.83 943.13 591.48 943.38 598.53"/><polygon class="cls-14" points="949.01 596.67 1280.54 603.33 1281.85 596.78 1279.81 596.73 1277.74 596.69 948.62 589.62 949.01 596.67"/><path class="cls-37" d="M584.17,633.37s-59.19-319.18-71.87-360.63c0,0,169.1-190.67,257.87-211.4,35.7,17.8,69.52,39.15,100.93,63.73,19.98,15.63,30.66,26.07,54.85,47.42,24.19,21.35,59.92,51.83,106.32,87.81-12.07,57.61-24.83,115.1-37.52,172.55-19.56,88.61-40.69,181.87-47.03,200.52h-363.56Z"/><path class="cls-49" d="M524.46,331.26c-40.13,.45-80.98,1.32-122.56,2.62-47.54,1.49-94.12,3.51-139.73,6.06l2.62-17.94,255.93-8.05c1.25,5.77,2.5,11.54,3.73,17.3Z"/><path class="cls-49" d="M1015.38,336.74c40.4,.44,81.53,1.31,123.4,2.62,47.86,1.51,94.75,3.53,140.66,6.06-.88-5.97-1.76-11.95-2.64-17.94l-257.69-8.07c-1.24,5.78-2.48,11.56-3.72,17.33Z"/><path class="cls-31" d="M521.11,326.94s-11.33-52.72-14.16-61.96c0,0,172.69-194.74,263.36-215.91,33.5,23.05,67.46,47.3,101.89,72.76,59.06,43.74,108.58,85.96,160.12,128.99l-13.22,68.58-253.1-188.61-244.89,196.14Z"/><ellipse class="cls-31" cx="763.38" cy="208.08" rx="33.98" ry="32.15"/><ellipse class="cls-16" cx="767.5" cy="198.34" rx="33.98" ry="32.15"/><ellipse class="cls-35" cx="767.5" cy="202.23" rx="33.98" ry="32.15"/><ellipse class="cls-44" cx="767.5" cy="202.23" rx="27.8" ry="26.31"/><ellipse class="cls-22" cx="767.5" cy="201.25" rx="27.8" ry="25.33"/><polygon class="cls-42" points="767.12 204.9 761.3 204.97 751.65 195.97 764.52 199.96 767.12 204.9"/><polygon class="cls-42" points="768.53 205.45 770.58 199.07 768.53 182.07 766.47 199.07 768.53 205.45"/><path class="cls-31" d="M689.86,633.37l-25.36-200.01c12.55-16.42,28.38-30.05,46.49-40,16.92-24,42.32-32.42,59.19-20l-63.41,260.01h-16.91Z"/><path class="cls-12" d="M677.18,441.36l-2.43-20.32s81.2-95.89,179.9-3.67v12l-177.48,11.99Z"/><path class="cls-14" d="M698.33,637.37l-22.19-205.56s81.36-94.45,178.59-2.45l-16.91,208.01h-139.49Z"/><polygon class="cls-1" points="689.86 437.36 757.5 427.95 757.5 546.75 702.54 546.75 689.86 437.36"/><polygon class="cls-1" points="842.05 437.36 774.41 427.95 774.41 546.75 829.36 546.75 842.05 437.36"/><ellipse class="cls-12" cx="768.07" cy="379.36" rx="23.25" ry="22"/><ellipse class="cls-14" cx="768.07" cy="391.36" rx="23.25" ry="22"/><polygon class="cls-31" points="567.26 453.36 592.63 573.36 643.36 569.36 643.36 561.37 575.72 445.36 567.26 453.36"/><polygon class="cls-12" points="573.76 445.53 574.92 453.06 647.58 557.37 643.36 441.36 573.76 445.53"/><polygon class="cls-14" points="574.57 449.83 596.86 565.36 647.58 561.37 643.36 445.36 574.57 449.83"/><polygon class="cls-25" points="584.28 462.56 593.11 509.24 613.33 507.37 609.59 460.43 584.28 462.56"/><polygon class="cls-25" points="594.27 515.68 602.29 558.44 617.71 557.05 613.63 513.12 594.27 515.68"/><polygon class="cls-25" points="636.64 456.28 638.6 503.62 619.73 505.66 613.08 459.04 636.64 456.28"/><polygon class="cls-25" points="637.76 509.88 639.14 553.31 623.75 555.1 618.27 511.35 637.76 509.88"/><path class="cls-31" d="M566.57,408.57l-11.79-76.31,8.22-6.88s42.98,43.91,76.09,68.01l-4.22,8-68.3,7.18Z"/><path class="cls-12" d="M561.06,330.92l.91-5.38s33.93-32.47,79.16-5.43v70.32l-80.07-59.51Z"/><path class="cls-14" d="M573,401.86l-11.94-70.93s34.3-32.42,80.04-5.41v70.33l-68.1,6.01Z"/><polygon class="cls-25" points="570.49 338.58 578.78 370.55 601.58 368.91 597.45 334.1 570.49 338.58"/><polygon class="cls-25" points="632.22 333.42 631.09 366.31 608.42 369.16 604.86 334.3 632.22 333.42"/><polygon class="cls-25" points="579.21 375.94 602.01 374.3 603.36 391.12 580.51 392.12 579.21 375.94"/><polygon class="cls-25" points="630.52 372.26 607.72 373.9 609.07 390.72 631.82 388.45 630.52 372.26"/><polygon class="cls-31" points="878.25 445.36 873.93 567.92 930.06 572.01 934.37 555.66 886.89 437.19 878.25 445.36"/><polygon class="cls-12" points="958.2 441.45 957.03 449.15 882.81 555.66 887.12 437.19 958.2 441.45"/><polygon class="cls-14" points="957.38 445.84 934.62 563.83 882.81 559.75 887.12 441.28 957.38 445.84"/><polygon class="cls-25" points="947.46 458.85 938.43 506.52 917.79 504.6 921.61 456.67 947.46 458.85"/><polygon class="cls-25" points="937.25 513.09 929.07 556.76 913.32 555.35 917.48 510.48 937.25 513.09"/><polygon class="cls-25" points="893.99 452.43 892 500.78 911.25 502.85 918.05 455.25 893.99 452.43"/><polygon class="cls-25" points="892.84 507.17 891.45 551.52 907.14 553.35 912.74 508.67 892.84 507.17"/><path class="cls-31" d="M882.57,396.34v-77.6l6.5-5.44s33.07,54.38,66.9,78.98l-4.32,8.17-69.08-4.11Z"/><path class="cls-12" d="M971.17,324.4l-.98-5.49s-34.66-33.16-80.84-5.55v71.82l81.82-60.78Z"/><path class="cls-14" d="M958.98,396.84l12.19-72.44s-35.03-33.14-81.74-5.52v71.83l69.55,6.13Z"/><polygon class="cls-25" points="961.55 332.23 953.08 364.86 929.79 363.2 934.01 327.65 961.55 332.23"/><polygon class="cls-25" points="898.5 326.94 899.66 360.54 922.81 363.46 926.44 327.85 898.5 326.94"/><polygon class="cls-25" points="952.64 370.37 929.34 368.71 927.97 385.88 951.31 386.91 952.64 370.37"/><polygon class="cls-25" points="900.24 366.62 923.53 368.29 922.15 385.47 898.91 383.15 900.24 366.62"/><polygon class="cls-5" points="771.7 34.02 769.74 76.63 481.88 290.64 469.55 271.19 771.7 34.02"/><path class="cls-5" d="M770.04,33.71c.65,14.2-.98,28.71-.29,42.92,95.93,71.34,194.16,142.37,290.08,213.71l12.34-19.46L770.04,33.71Z"/><polygon class="cls-47" points="770.4 19.01 1079.12 260.25 1072.19 270.87 770.03 33.71 770.4 19.01"/><polygon class="cls-47" points="770.4 19.01 462.98 260.12 469.92 270.74 772.07 33.58 770.4 19.01"/><path class="cls-48" d="M1635.68,251.75c.48-1.51,12.34-8.19,24.36-5.63,12.49,3.93,17.68,11.57,5.63,12.45-8.29,.56-16.61,.2-24.81-1.09-2.89-.44-6.7-.93-5.18-5.73Z"/><rect class="cls-26" x="662.65" y="255.19" width="215.87" height="64.99"/><rect class="cls-21" x="671.93" y="260.7" width="198.72" height="54.65"/><path class="cls-29" d="M703.51,308.53c-6.17,0-11.67-2.35-15.49-7.62,1.9-2.91,3.96-5.7,6.17-8.38,2.84,5.22,9.63,7.68,11.92,5.22,1.85-1.96,0-5.04-5.89-7.62-5.62-2.47-11.37-5.33-11.54-11.85-.13-3.74,2.22-9.61,10.06-10.14s13.52,3.87,16.41,9.68c-3.03,1.47-5.94,3.18-8.7,5.1-.92-2.52-3.27-4.4-5.43-4.4-1.2-.14-2.28,.71-2.42,1.91-.02,.2-.02,.41,.01,.61,.25,2.52,2.84,3.4,7.29,4.98,6.6,2.23,10.42,6.16,10.55,11.02,.1,7.74-6.7,11.49-12.93,11.49Z"/><path class="cls-29" d="M739.19,306.25c-3.77,2.88-9.51,2.58-12.77,.98-4.51-2.29-8.33-6.68-9.14-17.18-.86-10.81,3.4-17.23,8.08-19.65,3.89-2.2,8.61-2.38,12.65-.47,5,2.35,6.05,7.33,6.05,13.75-3.3,.08-6.59,.47-9.82,1.17-.25-4.22-1.36-6.45-3.34-6.34s-5.25,3.63-5.12,11.02c.13,7.86,2.71,10.38,4.44,10.81,2.23,.46,4.26-1.59,4.26-4.81,3.44-.48,6.9-.7,10.37-.64,.24,4.52-1.92,8.83-5.68,11.36Z"/><path class="cls-29" d="M762.27,308.24c.8-5.26,1.3-10.57,1.48-15.88-2.77-.22-5.56-.28-8.34-.18,.25,6.56,.86,12.9,1.96,17.18-4.02-.32-8.06-.42-12.09-.29,2.35-9.56,2.22-31.54,.49-40.1,0,0,5.25-.18,10.68,.12-.75,5.71-1.12,11.47-1.11,17.23,1.96-.06,5.13-.29,8.52-.64,.11-6.38-.18-12.77-.86-19.12,3.55,.36,7.11,.53,10.68,.53-2.22,10.81-2.41,30.19,.49,40.45-5.91,.18-11.9,.7-11.9,.7Z"/><path class="cls-29" d="M789,308.65c-7.23,0-14.57-6.56-14.08-20.23,.49-12.77,6.54-19.46,13.33-19.7,5.06-.18,12.1,4.39,13.95,18.88,1.85,14.49-5.92,21.04-13.2,21.04Zm-.98-28.72c-2.47,.34-4.63,5.22-4.75,10.43-.12,5.98,1.96,11.32,5.81,11.26s5.49-4.98,4.57-11.91c-.76-5.22-2.97-10.26-5.63-9.78h0Z"/><path class="cls-29" d="M818.38,308.65c-7.23,0-14.57-6.56-14.08-20.23,.49-12.77,6.54-19.46,13.33-19.7,5.06-.18,12.1,4.39,13.95,18.88,1.85,14.49-5.92,21.04-13.2,21.04Zm-.98-28.72c-2.47,.34-4.63,5.22-4.75,10.43-.12,5.98,1.96,11.32,5.81,11.26s5.49-4.98,4.57-11.91c-.76-5.22-2.98-10.26-5.63-9.78h0Z"/><path class="cls-29" d="M832.58,309.48c2.16-8.84,1.6-30.85-.43-39.64,3.62-.23,7.2-.99,10.61-2.23-.92,8.39-1.23,22.69-.12,30.96,3.79-1.53,7.8-2.46,11.89-2.74-.21,3.27-.19,6.55,.07,9.82-7.45,.52-14.83,1.8-22.01,3.82Z"/><polygon class="cls-1" points="706.84 571.96 758.18 573.09 757.25 634.43 712 634 706.84 571.96"/><polygon class="cls-1" points="828.79 571.96 777.44 573.09 778.39 634.43 823.63 634 828.79 571.96"/></g><rect class="cls-33" x="45.81" y="343.15" width="1920" height="900"/></g></svg>