<svg id="Layer_1" data-name="Layer 1" xmlns="http://www.w3.org/2000/svg" xmlns:xlink="http://www.w3.org/1999/xlink" viewBox="0 0 128 128"><defs><style>.cls-1{stroke:#574266;stroke-width:3px;opacity:0.8;fill:url(#linear-gradient);}.cls-1,.cls-2,.cls-3{stroke-miterlimit:10;}.cls-2{stroke:#3d0054;stroke-width:0.5px;fill:url(#linear-gradient-2);}.cls-3{fill:#a038ba;stroke:url(#linear-gradient-3);}.cls-4{fill:#fff;}</style><linearGradient id="linear-gradient" x1="64" y1="10.96" x2="64" y2="113.72" gradientUnits="userSpaceOnUse"><stop offset="0" stop-color="#d3badd"/><stop offset="1" stop-color="#75577c"/></linearGradient><linearGradient id="linear-gradient-2" x1="64" y1="17.59" x2="64" y2="109.86" gradientUnits="userSpaceOnUse"><stop offset="0.01" stop-color="#eb99ff"/><stop offset="0.73" stop-color="#542060"/></linearGradient><linearGradient id="linear-gradient-3" x1="544.31" y1="287" x2="625.69" y2="287" gradientTransform="translate(351 -521) rotate(90)" gradientUnits="userSpaceOnUse"><stop offset="0" stop-color="#fff"/><stop offset="0.04" stop-color="#f3eff4"/><stop offset="0.18" stop-color="#c9b9cd"/><stop offset="0.32" stop-color="#a58aac"/><stop offset="0.46" stop-color="#886490"/><stop offset="0.6" stop-color="#71467b"/><stop offset="0.74" stop-color="#61316c"/><stop offset="0.87" stop-color="#572463"/><stop offset="1" stop-color="#542060"/></linearGradient></defs><circle class="cls-1" cx="64" cy="64" r="51.38"/><circle class="cls-2" cx="64" cy="64" r="46.13"/><circle class="cls-3" cx="64" cy="64" r="40.19"/><path class="cls-4" d="M65.14,86.92c0,1.25-.77,1.6-1.7.77L49.75,75.59a7,7,0,0,0-4-1.5H38.71a2.27,2.27,0,0,1-2.27-2.26l0-15.91a2.29,2.29,0,0,1,2.28-2.26h6.7a7.18,7.18,0,0,0,4-1.48l13.95-11.9c1-.81,1.73-.45,1.73.8Z"/><path class="cls-4" d="M71.74,75.88a1.24,1.24,0,0,1-.5-1.58,24.61,24.61,0,0,0,2.12-8.77,24.12,24.12,0,0,0-1.49-8.66,1.39,1.39,0,0,1,.55-1.64s2-1.18,2.38-1.44a1,1,0,0,1,1.33.51,22.15,22.15,0,0,1,2.36,11.17,23.44,23.44,0,0,1-3,11.22,1.14,1.14,0,0,1-1.48.45Z"/><path class="cls-4" d="M83.26,80.57a1.41,1.41,0,0,1-.54-1.65s3.23-8,3.12-14.74-3.32-14.45-3.32-14.45A1.41,1.41,0,0,1,83,48.07s2.49-1.56,2.86-1.83.95,0,1.27.49A36.69,36.69,0,0,1,91.55,64a36.73,36.73,0,0,1-4.16,17.81,1.09,1.09,0,0,1-1.53.36Z"/></svg>