<svg id="Layer_1" data-name="Layer 1" xmlns="http://www.w3.org/2000/svg" xmlns:xlink="http://www.w3.org/1999/xlink" viewBox="0 0 821 377"><defs><style>.cls-1{fill:none;}.cls-2{clip-path:url(#clip-path);}.cls-3{clip-path:url(#clip-path-2);}.cls-4{fill:url(#linear-gradient);}.cls-5{fill:#164c28;}.cls-6{fill:#fff;}.cls-7{fill:#8081ff;}.cls-8{fill:#fd01fb;}</style><clipPath id="clip-path"><rect class="cls-1" x="-2084" y="377" width="1920" height="900"/></clipPath><clipPath id="clip-path-2"><rect class="cls-1" x="-2095" y="351.65" width="1931" height="981.6"/></clipPath><linearGradient id="linear-gradient" x1="7459.54" y1="1710.8" x2="7768.79" y2="181.97" gradientTransform="matrix(1, 0, 0, -1, -8930.17, 1336.96)" gradientUnits="userSpaceOnUse"><stop offset="0.2" stop-color="#c5f7fd"/><stop offset="0.34" stop-color="#b3f0fd"/><stop offset="0.66" stop-color="#8ee1fd"/><stop offset="0.83" stop-color="#80dbfd"/></linearGradient></defs><g class="cls-2"><g class="cls-3"><rect class="cls-4" x="-2563.64" y="352.33" width="2607.7" height="632.3" transform="translate(-2519.58 1336.96) rotate(-180)"/></g></g><path class="cls-5" d="M183.46,190.51a46.29,46.29,0,0,1-21.25-5c-18.57-9.93-28.57-28.54-30.64-56.93C129.3,98.51,139.66,74,159.3,63.11a49.64,49.64,0,0,1,24.42-6.6,47,47,0,0,1,21.17,5c23.44,11.58,23.44,38.13,23.44,49.46a15.64,15.64,0,0,1-8.74,14,15.65,15.65,0,0,1,10.54,14.24c.61,17.27-6,31.48-19.63,42.24A43.32,43.32,0,0,1,183.46,190.51Z"/><path class="cls-5" d="M217.51,191.41a15.63,15.63,0,0,1-15.42-18.26c5.19-30.55,3.58-83.63-1.32-110.67a15.63,15.63,0,0,1,14-18.37c.11,0,12.1-1.12,20.89-3.67a15.84,15.84,0,0,1,4.36-.62,15.66,15.66,0,0,1,15.58,17.06c-2.46,27-.75,88,3.21,114.46a15.65,15.65,0,0,1-14.35,17.92c-12.23.88-25.39,2.08-25.52,2.09C218.46,191.39,218,191.41,217.51,191.41Z"/><path class="cls-5" d="M267.91,191.07c-18.18,0-38.09-13.22-38.56-34.58a35.67,35.67,0,0,1,5.2-19.8c-.14-.47-.26-.94-.36-1.43-2.53-12.41.33-24.8,7.84-34A36.11,36.11,0,0,1,270.57,88,48.62,48.62,0,0,1,289,91.86c9.15,3.71,21,12.29,25.05,32,2.32,11.15,1.69,22.91,1.13,33.28-.31,5.85-.64,11.9-.16,15.26a15.66,15.66,0,0,1-15.49,17.84h-.54c-.91,0-1.84,0-2.75,0-6.63,0-13,.71-13.08.71a14.5,14.5,0,0,1-1.74.1,15.68,15.68,0,0,1-5.19-.89c-1.35.3-2.74.55-4.15.74l-.35.05A33.23,33.23,0,0,1,267.91,191.07Z"/><path class="cls-5" d="M330.7,190.81c-16.83-.24-30.47-7.23-40.59-20.78a15.64,15.64,0,0,1-.4-18.14,99,99,0,0,1,6.62-8.63,32.29,32.29,0,0,1-5.53-17,33.42,33.42,0,0,1,8.41-24c4.48-5,12.78-11,26.85-11.72.8,0,1.55,0,2.28,0,20.26,0,35.71,12.27,42.38,33.66a15.66,15.66,0,0,1-1.89,13.29,16.05,16.05,0,0,1-2.28,2.71,29.19,29.19,0,0,1,5,17.7c-.5,19.41-17,32.94-40.21,32.94Z"/><path class="cls-5" d="M386.25,190.81c-16.83-.24-30.47-7.23-40.59-20.78a15.64,15.64,0,0,1-.4-18.14,101,101,0,0,1,6.62-8.63,32.29,32.29,0,0,1-5.53-17,33.42,33.42,0,0,1,8.41-24c4.48-5,12.78-11,26.85-11.72.81,0,1.55,0,2.28,0,20.26,0,35.71,12.27,42.38,33.66a15.61,15.61,0,0,1-4.17,16,29.19,29.19,0,0,1,5,17.7c-.5,19.41-17,32.94-40.21,32.94Z"/><path class="cls-5" d="M415.26,192a15.66,15.66,0,0,1-15.6-16.78c2-27.75,1.9-49.51-.33-64.67a15.64,15.64,0,0,1,15-17.91c3.36-.11,9.6-.84,12.9-2.12a15.64,15.64,0,0,1,13.79,1.22,38.87,38.87,0,0,1,8.18-.88,33.46,33.46,0,0,1,5.8.49c8.62,1.45,28.43,8.67,27.79,44.08a15.64,15.64,0,0,1-14.24,15.3c-6.5.58-15.14,3.09-18.31,4.13.59,6.1,1.28,11.66,2,16.09a15.65,15.65,0,0,1-15.44,18.18h-1.43a54.77,54.77,0,0,0-15.34,2.13A15.59,15.59,0,0,1,415.26,192Z"/><path class="cls-5" d="M497,190.86c-15.43,0-35.33-9.05-40.6-34.57-3.71-17.77.56-37.55,10.88-50.35,7.54-9.35,17.87-14.55,29.07-14.64h.36c22.67,0,40.31,20.49,41.95,48.71s-14.38,49-39,50.77C498.77,190.83,497.88,190.86,497,190.86Z"/><path class="cls-5" d="M553.14,190.86c-15.43,0-35.32-9.05-40.6-34.57-3.7-17.77.56-37.55,10.88-50.35,7.54-9.35,17.87-14.55,29.07-14.64h.36c22.67,0,40.32,20.49,41.95,48.71s-14.38,49-39,50.77C554.92,190.83,554,190.86,553.14,190.86Z"/><path class="cls-5" d="M584.77,192.62a15.65,15.65,0,0,1-15.58-17.07c2.21-24.15,2.08-48.44-.35-65a15.65,15.65,0,0,1,15-17.91c3.16-.1,9.62-.79,13.39-2.19a15.61,15.61,0,0,1,13.15,1,32.53,32.53,0,0,1,3.56-.19,32,32,0,0,1,5.86.54,29.43,29.43,0,0,1,8.38,2.8,32.27,32.27,0,0,1,20.53-2.76c8.94,1.75,16.4,7,21.6,15.31,9.74,15.49,10.86,41.58,3.07,71.59a15.63,15.63,0,0,1-18.51,11.35A116.11,116.11,0,0,0,640.32,188a18.54,18.54,0,0,1-1.51,1.13,15.71,15.71,0,0,1-8.61,2.58,15.45,15.45,0,0,1-3.24-.35,138.25,138.25,0,0,0-15.13-2.18,15.84,15.84,0,0,1-5.12,1.15,192.62,192.62,0,0,0-19.25,2A16.38,16.38,0,0,1,584.77,192.62Z"/><path class="cls-6" d="M177,183.65a46.23,46.23,0,0,1-21.25-5c-18.57-9.92-28.57-28.53-30.63-56.92-2.28-30.1,8.08-54.59,27.72-65.5a49.79,49.79,0,0,1,24.42-6.59,46.92,46.92,0,0,1,21.18,5c23.44,11.57,23.44,38.12,23.44,49.46a15.65,15.65,0,0,1-8.74,14,15.65,15.65,0,0,1,10.54,14.24c.61,17.26-6,31.47-19.64,42.23A43.22,43.22,0,0,1,177,183.65Z"/><path class="cls-6" d="M211,184.55a15.64,15.64,0,0,1-15.42-18.26c5.18-30.56,3.57-83.63-1.33-110.67a15.64,15.64,0,0,1,14-18.37c.11,0,12.11-1.12,20.9-3.67A15.45,15.45,0,0,1,233.5,33,15.63,15.63,0,0,1,249.08,50c-2.46,27-.74,88,3.21,114.46A15.63,15.63,0,0,1,238,182.4c-12.23.88-25.39,2.07-25.52,2.09C212,184.53,211.48,184.55,211,184.55Z"/><path class="cls-6" d="M261.41,184.21c-18.18,0-38.09-13.22-38.56-34.58A35.78,35.78,0,0,1,228,129.82c-.14-.46-.26-.94-.36-1.42-2.52-12.41.34-24.8,7.85-34a36.12,36.12,0,0,1,28.54-13.25A48.6,48.6,0,0,1,282.45,85c9.14,3.72,21,12.29,25.05,32,2.32,11.14,1.69,22.9,1.13,33.28-.32,5.85-.64,11.9-.17,15.25A15.63,15.63,0,0,1,293,183.34h-.54c-.92,0-1.84,0-2.76,0-6.62,0-13,.7-13.07.71a16.91,16.91,0,0,1-1.74.1,15.78,15.78,0,0,1-5.2-.89c-1.35.3-2.73.54-4.14.74l-.36,0A33,33,0,0,1,261.41,184.21Z"/><path class="cls-6" d="M324.2,183.94c-16.83-.23-30.48-7.22-40.59-20.77A15.64,15.64,0,0,1,283.2,145a99.07,99.07,0,0,1,6.63-8.63,32.35,32.35,0,0,1-5.53-17,33.34,33.34,0,0,1,8.4-24c4.49-5,12.79-11.06,26.85-11.73.81,0,1.56,0,2.29,0,20.26,0,35.71,12.27,42.37,33.67a15.64,15.64,0,0,1-4.16,16,29.17,29.17,0,0,1,5,17.7c-.51,19.41-17,32.94-40.21,32.94Z"/><path class="cls-6" d="M379.75,183.94c-16.83-.23-30.47-7.22-40.59-20.77a15.64,15.64,0,0,1-.41-18.14,101.07,101.07,0,0,1,6.63-8.63,32.35,32.35,0,0,1-5.53-17,33.34,33.34,0,0,1,8.4-24c4.49-5,12.79-11.06,26.85-11.73.81,0,1.56,0,2.29,0,20.26,0,35.71,12.27,42.37,33.67a15.64,15.64,0,0,1-4.16,16,29.17,29.17,0,0,1,5,17.7c-.5,19.41-17,32.94-40.21,32.94Z"/><path class="cls-6" d="M408.76,185.15a15.64,15.64,0,0,1-15.61-16.77c2-27.76,1.91-49.52-.32-64.67a15.64,15.64,0,0,1,15-17.91c3.35-.11,9.6-.84,12.9-2.12a15.64,15.64,0,0,1,13.79,1.22,38.8,38.8,0,0,1,8.18-.88,34.45,34.45,0,0,1,5.79.48c8.63,1.46,28.43,8.67,27.8,44.08a15.63,15.63,0,0,1-14.24,15.3c-6.5.58-15.14,3.09-18.31,4.13.59,6.1,1.28,11.67,2,16.09a15.65,15.65,0,0,1-15.44,18.18H428.9a55.14,55.14,0,0,0-15.33,2.13A15.59,15.59,0,0,1,408.76,185.15Z"/><path class="cls-6" d="M490.49,184c-15.44,0-35.33-9.06-40.6-34.57-3.71-17.78.56-37.55,10.88-50.35,7.54-9.36,17.86-14.56,29.07-14.65h.35c22.68,0,40.32,20.48,42,48.7s-14.38,49-39,50.78C492.27,184,491.37,184,490.49,184Z"/><path class="cls-6" d="M546.64,184c-15.43,0-35.33-9.06-40.6-34.57-3.71-17.78.56-37.55,10.88-50.35,7.54-9.36,17.87-14.56,29.07-14.65h.35c22.68,0,40.32,20.48,42,48.7s-14.38,49-39,50.78C548.42,184,547.53,184,546.64,184Z"/><path class="cls-6" d="M578.27,185.76a15.63,15.63,0,0,1-15.58-17.07c2.21-24.16,2.08-48.45-.35-65a15.64,15.64,0,0,1,15-17.91c3.16-.11,9.63-.79,13.4-2.2a15.67,15.67,0,0,1,13.15,1,32.39,32.39,0,0,1,3.56-.19,32.92,32.92,0,0,1,5.86.53,29.75,29.75,0,0,1,8.38,2.8,32.31,32.31,0,0,1,14.34-3.36,33,33,0,0,1,6.18.6c8.94,1.76,16.4,7,21.6,15.32,9.74,15.48,10.86,41.58,3.08,71.59a15.63,15.63,0,0,1-18.51,11.35,118.16,118.16,0,0,0-14.6-2.14,12.91,12.91,0,0,1-1.51,1.13,15.59,15.59,0,0,1-8.6,2.58,15.44,15.44,0,0,1-3.24-.34,133.62,133.62,0,0,0-15.14-2.18,15.51,15.51,0,0,1-5.11,1.14c-.1,0-10.83.58-19.25,2.05A15.37,15.37,0,0,1,578.27,185.76Z"/><path d="M198.29,166.16c-9.21,7.39-23.25,6.64-31.25,2.41-11-5.89-20.38-17.21-22.34-44.23C142.59,96.42,153,80,164.47,73.63c9.82-5.59,21-6.19,30.95-1.21,12.22,6,14.79,18.87,14.79,35.47a120.82,120.82,0,0,0-24.15,3c-.6-10.87-3.32-16.6-8.15-16.3-4.68.15-12.83,9.36-12.53,28.37.3,20.23,6.64,26.72,10.87,27.78,5.43,1.21,10.41-4.08,10.41-12.38A154.75,154.75,0,0,1,212,136.72C212.48,149.55,207.49,158.91,198.29,166.16Z"/><path d="M215,172.65c5.74-33.82,3.62-88.61-1.36-116.08,0,0,13.44-1.21,23.85-4.23-2.56,28.23-.9,90,3.32,118.19C228.32,171.44,215,172.65,215,172.65Z"/><path d="M278.89,172.19c.3-1.51.6-2.86.76-4.37a29.1,29.1,0,0,1-12.23,4.37c-9.21,1.06-24.61-5.58-24.91-19.17-.3-15.09,13.14-22.34,25.06-22.64a25.35,25.35,0,0,1,13.28,3.47c-2.56-22.94-13.28-18.56-11.92-7.54C258.51,126,247,129,247,129c-3.62-17.81,10.27-35.32,33.51-25.81,25.66,10.42,13.89,50.12,16.45,68.23A144,144,0,0,0,278.89,172.19Zm-9.21-27.62c-3.92,1.36-7.85,5.28-6.19,9.36s6.95,4.38,10.27,3.17c4.68-1.81,7.85-6.79,6.49-9.81C278.59,143.82,273.31,143.21,269.68,144.57Z"/><path d="M328.4,172c-10.72-.15-20.23-3.77-28.23-14.49a104.82,104.82,0,0,1,13.59-15.7c5.13,10.42,14.34,13,16.6,10.27,1.82-2.27.61-6.19-9.2-10.42-8.91-3.77-16.76-9.36-17.21-19.32-.45-8,4.53-18.57,20.38-19.32,17.05-.75,25.35,11,29,22.64a59.78,59.78,0,0,0-19.47,5.74c-4.53-11.78-11.93-11.32-11.33-6.64,1.82,12.68,31.4,10.11,30.95,29.58C353.16,166,342,172.19,328.4,172Z"/><path d="M384,172c-10.72-.15-20.22-3.77-28.22-14.49a104.43,104.43,0,0,1,13.58-15.7c5.13,10.42,14.34,13,16.6,10.27,1.82-2.27.61-6.19-9.2-10.42-8.91-3.77-16.76-9.36-17.21-19.32-.45-8,4.53-18.57,20.38-19.32,17.05-.75,25.36,11,29,22.64a59.78,59.78,0,0,0-19.47,5.74c-4.53-11.78-11.93-11.32-11.32-6.64,1.81,12.68,31.39,10.11,30.94,29.58C408.71,166,397.54,172.19,384,172Z"/><path d="M442.52,137c.3-8.45-1.66-13.88-4.53-14.49-2.56-.45-5.28.45-7.55,4.38a394.18,394.18,0,0,0,3.93,43.47s-11.32-.45-21.59,2.87c1.51-20.83,2.57-47.55-.45-68.08,0,0,10.72-.3,18.11-3.17-.15,2.42-.3,5.14-.3,8,5.74-5.28,13.74-7.39,19.78-6.34,10,1.66,15.09,11.48,14.79,28.38C454.6,133,442.52,137,442.52,137Z"/><path d="M496.11,172c-8.91.61-23.1-3.77-26.87-22-4.38-21,5.88-46,24.75-46.19,13.59-.15,25.36,13.14,26.57,34C521.62,155.89,513.16,170.84,496.11,172Zm-2.42-45.89c-6.49.61-10.42,11.17-8.75,20.68,1.2,8,5.43,11.33,9.51,10.87,6-.6,9.2-8.45,8.6-16.45C502.29,131.74,498.22,125.85,493.69,126.15Z"/><path d="M552.26,172c-8.91.61-23.1-3.77-26.87-22-4.38-21,5.89-46,24.75-46.19,13.59-.15,25.36,13.14,26.57,34C577.77,155.89,569.31,170.84,552.26,172Zm-2.42-45.89c-6.49.61-10.41,11.17-8.75,20.68,1.2,8,5.43,11.33,9.51,10.87,6-.6,9.2-8.45,8.6-16.45C558.45,131.74,554.37,125.85,549.84,126.15Z"/><path d="M635.28,169c6.94-20.68,6.94-44.53.15-46.94a5.76,5.76,0,0,0-5.89,1.21c2.72,12.22,2.27,29.28-1.81,49.66a156.69,156.69,0,0,0-20.23-2.72c6.8-22.49,4.83-46.19-.9-48a6.47,6.47,0,0,0-6.34,1.66c.6,18.11,2,37.74,3.17,47.7a208.49,208.49,0,0,0-21.14,2.26c2-21.43,2.57-48.15-.45-68.68,0,0,10.72-.3,18.42-3.17-.15,2-.15,3.93-.15,6a17.67,17.67,0,0,1,14.49-3.92c4.37.75,7.85,3.32,10.56,7.69,5.29-6.64,11.93-8.9,18.12-7.69,16.9,3.32,21.88,31.54,12.53,67.62A137.48,137.48,0,0,0,635.28,169Z"/><path class="cls-7" d="M194.26,162.42c-9.21,7.39-23.25,6.64-31.25,2.41-11-5.89-20.38-17.21-22.34-44.23-2.11-27.92,8.3-44.38,19.78-50.71,9.81-5.59,21-6.19,30.94-1.21,12.23,6,14.79,18.87,14.79,35.47a120.82,120.82,0,0,0-24.15,3c-.6-10.87-3.32-16.6-8.15-16.3-4.68.15-12.83,9.36-12.53,28.37.3,20.23,6.64,26.72,10.87,27.78,5.43,1.21,10.42-4.08,10.42-12.38A154.56,154.56,0,0,1,208,133C208.45,145.81,203.47,155.17,194.26,162.42Z"/><path class="cls-7" d="M211,168.91c5.74-33.82,3.62-88.61-1.36-116.08,0,0,13.44-1.21,23.85-4.23-2.56,28.23-.9,90,3.32,118.19C224.3,167.7,211,168.91,211,168.91Z"/><path class="cls-7" d="M274.86,168.45c.3-1.51.61-2.86.76-4.37a29.1,29.1,0,0,1-12.23,4.37c-9.21,1.06-24.6-5.58-24.91-19.17-.3-15.09,13.14-22.34,25.06-22.64a25.41,25.41,0,0,1,13.29,3.47c-2.57-22.94-13.29-18.56-11.93-7.54-10.42-.31-21.89,2.71-21.89,2.71-3.62-17.81,10.27-35.32,33.51-25.81,25.66,10.42,13.89,50.12,16.46,68.23A144.13,144.13,0,0,0,274.86,168.45Zm-9.21-27.62c-3.92,1.36-7.84,5.28-6.18,9.36s6.94,4.38,10.26,3.17c4.68-1.81,7.85-6.79,6.49-9.81C274.56,140.08,269.28,139.47,265.65,140.83Z"/><path class="cls-7" d="M324.37,168.3c-10.71-.15-20.22-3.77-28.22-14.49a104.43,104.43,0,0,1,13.58-15.7c5.13,10.42,14.34,13,16.61,10.27,1.81-2.27.6-6.19-9.21-10.42-8.91-3.77-16.76-9.36-17.21-19.32-.45-8,4.53-18.57,20.38-19.32,17.05-.75,25.36,11,29,22.64a59.78,59.78,0,0,0-19.47,5.74c-4.53-11.78-11.93-11.32-11.32-6.64,1.81,12.68,31.39,10.11,30.94,29.58C349.13,162.27,338,168.45,324.37,168.3Z"/><path class="cls-7" d="M379.92,168.3c-10.71-.15-20.22-3.77-28.22-14.49a104.43,104.43,0,0,1,13.58-15.7c5.13,10.42,14.34,13,16.61,10.27,1.81-2.27.6-6.19-9.21-10.42-8.91-3.77-16.76-9.36-17.21-19.32-.45-8,4.53-18.57,20.38-19.32,17.06-.75,25.36,11,29,22.64a59.78,59.78,0,0,0-19.47,5.74c-4.53-11.78-11.93-11.32-11.32-6.64,1.81,12.68,31.39,10.11,30.94,29.58C404.68,162.27,393.51,168.45,379.92,168.3Z"/><path class="cls-7" d="M438.49,133.28c.3-8.45-1.66-13.88-4.53-14.49-2.56-.45-5.28.45-7.54,4.38a392,392,0,0,0,3.92,43.47s-11.32-.45-21.58,2.87c1.5-20.83,2.56-47.55-.46-68.08,0,0,10.72-.3,18.12-3.17-.15,2.42-.31,5.14-.31,8,5.74-5.28,13.74-7.39,19.78-6.34,10,1.66,15.09,11.48,14.79,28.38C450.57,129.21,438.49,133.28,438.49,133.28Z"/><path class="cls-7" d="M492.08,168.3c-8.91.61-23.1-3.77-26.87-22-4.38-21,5.89-46,24.75-46.19,13.59-.15,25.36,13.14,26.57,34C517.59,152.15,509.13,167.1,492.08,168.3Zm-2.42-45.89c-6.49.61-10.41,11.17-8.75,20.68,1.21,8,5.43,11.33,9.51,10.87,6-.6,9.2-8.45,8.6-16.45C498.27,128,494.19,122.11,489.66,122.41Z"/><path class="cls-7" d="M548.23,168.3c-8.91.61-23.1-3.77-26.87-22-4.38-21,5.89-46,24.76-46.19,13.58-.15,25.35,13.14,26.56,34C573.74,152.15,565.29,167.1,548.23,168.3Zm-2.42-45.89c-6.49.61-10.41,11.17-8.75,20.68,1.21,8,5.43,11.33,9.51,10.87,6-.6,9.21-8.45,8.6-16.45C554.42,128,550.34,122.11,545.81,122.41Z"/><path class="cls-7" d="M631.25,165.28c6.94-20.68,6.94-44.53.15-46.94a5.76,5.76,0,0,0-5.89,1.21c2.72,12.22,2.27,29.28-1.81,49.66a156.69,156.69,0,0,0-20.23-2.72c6.8-22.49,4.83-46.19-.9-48a6.47,6.47,0,0,0-6.34,1.66c.6,18.11,2,37.74,3.17,47.7a208.43,208.43,0,0,0-21.13,2.26c2-21.43,2.56-48.15-.46-68.68,0,0,10.72-.3,18.42-3.17-.15,2-.15,3.93-.15,6a17.68,17.68,0,0,1,14.49-3.92c4.38.75,7.85,3.32,10.56,7.69,5.29-6.64,11.93-8.9,18.12-7.69,16.9,3.32,21.89,31.54,12.53,67.62A137.48,137.48,0,0,0,631.25,165.28Z"/><path class="cls-5" d="M340.39,319.16a14.31,14.31,0,0,1-7.75-2.27,14.59,14.59,0,0,1-2.54-2.08c-7.47.51-13.68,1.48-13.75,1.49a14.27,14.27,0,0,1-12.39-4,14.34,14.34,0,0,1-4-12.4c2.75-16.92,2.53-46.57-2.16-63.74A14.32,14.32,0,0,1,308,218.5,94.12,94.12,0,0,1,331.88,215c29.92,0,36.55,19.65,38,28.09a33.16,33.16,0,0,1-7.53,27.27,60.47,60.47,0,0,1,9.82,26.7,14.34,14.34,0,0,1-11.85,15.77,56.13,56.13,0,0,0-13.41,4.71A14.27,14.27,0,0,1,340.39,319.16Z"/><path class="cls-5" d="M383.2,314.83a14.33,14.33,0,0,1-6.21-1.42,31.9,31.9,0,0,1-3.93.24,33.54,33.54,0,0,1-4.44-.29,26.06,26.06,0,0,1-18.87-12.27c-7.46-11.82-7.69-30.21-.65-51.78a14.32,14.32,0,0,1,13.61-9.88,14.59,14.59,0,0,1,2.62.24c3.34.62,6.73,1.24,9.42,1.72A14.37,14.37,0,0,1,381,240h1.66a37.81,37.81,0,0,0,8.75-.84,14.56,14.56,0,0,1,3.87-.53,14.33,14.33,0,0,1,14.25,15.74,183.38,183.38,0,0,0,.64,42.82A14.34,14.34,0,0,1,396,313.59h-.33a49.53,49.53,0,0,0-9.46.92A14.2,14.2,0,0,1,383.2,314.83Z"/><path class="cls-5" d="M399.43,315.55a14.32,14.32,0,0,1-14.12-16.72c3.49-20.58,2.41-56.35-.9-74.58a14.33,14.33,0,0,1,12.81-16.83A88.3,88.3,0,0,0,410.86,205a14.31,14.31,0,0,1,18.25,15.05c-1.66,18.33-.5,59.65,2.18,77.57a14.32,14.32,0,0,1-13.14,16.41c-8.35.6-17.33,1.41-17.42,1.42C400.3,315.53,399.87,315.55,399.43,315.55Z"/><path class="cls-5" d="M439.88,314.57c-16.43,0-29.84-11.09-34.17-28.25-3.3-13.11-.91-26.61,6.39-36.12A30.7,30.7,0,0,1,436.46,238h.61c18.56,0,31.14,12.47,33.6,32.86a14.28,14.28,0,0,1,2.77,8.56c-.16,22.87-15.75,34.09-31.15,35.08C441.49,314.54,440.68,314.57,439.88,314.57Z"/><path class="cls-5" d="M479.64,315.14c-12.72-.18-23-5.46-30.66-15.69a14.32,14.32,0,0,1-.37-16.61c1-1.48,2.08-2.91,3.14-4.24a26.14,26.14,0,0,1-3-11.09,26.53,26.53,0,0,1,6.68-19c3.54-3.92,10-8.7,20.91-9.22.62,0,1.18,0,1.74,0,15.34,0,27.48,9.57,32.47,25.6A14.3,14.3,0,0,1,508.81,277l-.14.21A23.9,23.9,0,0,1,511.29,289c-.4,15.38-13.21,26.1-31.15,26.1Z"/><path class="cls-6" d="M335.1,312.56a14.28,14.28,0,0,1-7.74-2.27,13.88,13.88,0,0,1-2.54-2.08c-7.48.51-13.69,1.48-13.76,1.49a14.1,14.1,0,0,1-2.24.18,14.33,14.33,0,0,1-14.14-16.62c2.74-16.92,2.53-46.57-2.16-63.74a14.32,14.32,0,0,1,10.15-17.63,94.52,94.52,0,0,1,23.93-3.45c29.91,0,36.55,19.65,38,28.09a33.2,33.2,0,0,1-7.52,27.27,60.46,60.46,0,0,1,9.81,26.7,14.33,14.33,0,0,1-11.85,15.77A55.42,55.42,0,0,0,341.64,311,14.39,14.39,0,0,1,335.1,312.56Z"/><path class="cls-6" d="M377.91,308.22a14.32,14.32,0,0,1-6.21-1.41,31.86,31.86,0,0,1-3.92.24,35.2,35.2,0,0,1-4.44-.29,26.05,26.05,0,0,1-18.88-12.27c-7.45-11.82-7.68-30.21-.65-51.78a14.34,14.34,0,0,1,13.61-9.89,13.85,13.85,0,0,1,2.63.25c3.33.62,6.73,1.24,9.41,1.72a14.39,14.39,0,0,1,6.28-1.45h.53c.07,0,.48,0,1.12,0a37.81,37.81,0,0,0,8.75-.84,14.35,14.35,0,0,1,13.08,2.82,14.36,14.36,0,0,1,5,12.39,182.87,182.87,0,0,0,.63,42.82A14.31,14.31,0,0,1,390.74,307h-.34a49.53,49.53,0,0,0-9.46.92A14.12,14.12,0,0,1,377.91,308.22Z"/><path class="cls-6" d="M394.15,309A14.33,14.33,0,0,1,380,292.23c3.49-20.58,2.4-56.35-.91-74.59a14.33,14.33,0,0,1,12.82-16.82,87.45,87.45,0,0,0,13.63-2.39,14.34,14.34,0,0,1,18.26,15.06c-1.67,18.33-.51,59.65,2.17,77.57a14.31,14.31,0,0,1-13.13,16.4c-8.36.61-17.33,1.42-17.42,1.43C395,308.93,394.58,309,394.15,309Z"/><path class="cls-6" d="M434.59,308c-16.43,0-29.84-11.09-34.16-28.26-3.3-13.11-.92-26.6,6.38-36.11a30.72,30.72,0,0,1,24.37-12.22h.6c18.56,0,31.14,12.46,33.61,32.86a14.34,14.34,0,0,1,2.76,8.56C468,295.66,452.4,306.89,437,307.88,436.2,307.94,435.39,308,434.59,308Z"/><path class="cls-6" d="M474.36,308.53c-12.73-.17-23-5.45-30.66-15.68a14.3,14.3,0,0,1-.38-16.61c1-1.49,2.08-2.91,3.14-4.24a26.78,26.78,0,0,1,3.68-30.14c3.53-3.92,10-8.71,20.9-9.22.62,0,1.19,0,1.74,0,15.34,0,27.48,9.57,32.48,25.6a14.33,14.33,0,0,1-1.73,12.16l-.14.21A24,24,0,0,1,506,282.44c-.4,15.38-13.22,26.1-31.16,26.1Z"/><path d="M337.76,300.75c.62-13.86-3.31-25.75-10.75-30.61a248,248,0,0,0,3.62,26.06,185.56,185.56,0,0,0-19.14,1.86c3.11-19.13,2.69-50.88-2.48-69.81,15.62-4.14,40.65-7,44.16,13.24,1.45,8.27-3,17.89-14.68,23.27,8.17,5.38,15.3,16.44,16.86,29.89C346.76,296.1,337.76,300.75,337.76,300.75Zm-11.68-57.61c-.11,3.93-.11,8.9.1,14.48,6.1-.62,11.27-4.14,12.1-8.58C339.21,243.25,333.21,241.38,326.08,243.14Z"/><path d="M380.59,296.41c.1-1.55.2-3.21.2-4.76a16.64,16.64,0,0,1-12.93,3.41c-12.61-1.65-15.72-21-7.75-45.4,7.24,1.34,14.79,2.69,14.79,2.69-5.07,14.48-5.07,29.78-.11,30.61,2.18.42,4.24-.41,6-2.69-.31-10.34-1.24-21.1-2.38-30.1,0,0,8.38.32,14.28-1.34a197,197,0,0,0,.72,46.34A64.26,64.26,0,0,0,380.59,296.41Z"/><path d="M396.83,297.13c3.92-23.17,2.48-60.71-.94-79.54a102.81,102.81,0,0,0,16.35-2.89c-1.76,19.34-.62,61.64,2.27,81C405.93,296.3,396.83,297.13,396.83,297.13Z"/><path d="M438.71,296.1c-8.58.62-18.41-4.24-21.72-17.38-3.62-14.38,2.69-30.3,17.07-30.51,13.75-.21,19.44,10.34,20.06,23.69a177.14,177.14,0,0,0-25.34,2.37c.52,6.52,2.9,11.69,6.31,11.38,3.21-.31,3.83-4.65,3.11-8.58,0,0,9.41-1.24,18.3-1.87C456.4,290.2,447,295.58,438.71,296.1Zm-4.86-37.34c-2.48.41-4.24,3.72-5,8.38a86.73,86.73,0,0,0,10.86-1C439.13,261.66,437.06,258.35,433.85,258.76Z"/><path d="M477.19,296.72c-7.34-.11-13.86-2.59-19.34-9.93A71.76,71.76,0,0,1,467.16,276c3.52,7.14,9.83,8.9,11.38,7,1.24-1.55.41-4.24-6.31-7.13-6.11-2.59-11.48-6.41-11.79-13.24-.31-5.48,3.1-12.72,14-13.24,11.69-.52,17.38,7.55,19.86,15.52a41,41,0,0,0-13.35,3.93c-3.1-8.07-8.17-7.76-7.75-4.56,1.24,8.69,21.51,6.93,21.2,20.28C494.15,292.58,486.5,296.82,477.19,296.72Z"/><path class="cls-8" d="M335.09,298.24c.62-13.85-3.31-25.75-10.76-30.61A250.66,250.66,0,0,0,328,293.69a187.15,187.15,0,0,0-19.13,1.87c3.1-19.14,2.69-50.89-2.49-69.82C322,221.6,347,218.71,350.5,239c1.45,8.27-3,17.89-14.69,23.27,8.17,5.38,15.31,16.45,16.86,29.89C344.09,293.59,335.09,298.24,335.09,298.24Zm-11.69-57.6c-.1,3.93-.1,8.89.1,14.48,6.11-.63,11.28-4.14,12.1-8.59C336.54,240.74,330.54,238.88,323.4,240.64Z"/><path class="cls-8" d="M377.91,293.9c.1-1.55.21-3.21.21-4.76a16.65,16.65,0,0,1-12.93,3.42c-12.62-1.66-15.72-21-7.76-45.41,7.24,1.35,14.79,2.69,14.79,2.69-5.07,14.48-5.07,29.79-.1,30.62,2.17.41,4.24-.42,6-2.69-.31-10.35-1.24-21.1-2.38-30.1,0,0,8.38.31,14.27-1.35a197.5,197.5,0,0,0,.72,46.34A65.18,65.18,0,0,0,377.91,293.9Z"/><path class="cls-8" d="M394.15,294.62c3.93-23.16,2.48-60.71-.93-79.53a103.36,103.36,0,0,0,16.34-2.9c-1.76,19.34-.62,61.65,2.27,81C403.25,293.8,394.15,294.62,394.15,294.62Z"/><path class="cls-8" d="M436,293.59c-8.59.62-18.41-4.24-21.72-17.38-3.62-14.37,2.69-30.3,17.06-30.51,13.76-.2,19.45,10.35,20.07,23.69a176.28,176.28,0,0,0-25.34,2.38c.52,6.51,2.89,11.68,6.31,11.37,3.2-.31,3.82-4.65,3.1-8.58,0,0,9.41-1.24,18.31-1.86C453.72,287.7,444.31,293.07,436,293.59Zm-4.86-37.34c-2.49.42-4.24,3.73-5,8.38a84.45,84.45,0,0,0,10.86-1C436.45,259.15,434.38,255.84,431.18,256.25Z"/><path class="cls-8" d="M474.52,294.21c-7.35-.1-13.86-2.58-19.35-9.93a71.39,71.39,0,0,1,9.31-10.75c3.52,7.13,9.83,8.89,11.38,7,1.24-1.55.41-4.24-6.31-7.14-6.1-2.58-11.48-6.41-11.79-13.24-.31-5.48,3.1-12.72,14-13.24,11.69-.51,17.38,7.55,19.86,15.52a40.84,40.84,0,0,0-13.34,3.93c-3.1-8.07-8.17-7.76-7.76-4.55,1.24,8.69,21.52,6.93,21.2,20.27C491.48,290.07,483.82,294.31,474.52,294.21Z"/></svg>