<svg xmlns="http://www.w3.org/2000/svg" xmlns:xlink="http://www.w3.org/1999/xlink" viewBox="0 0 1920 900"><defs><style>.cls-1{fill:none;}.cls-2{isolation:isolate;}.cls-3{clip-path:url(#clip-path);}.cls-4{fill:#f8e2b9;}.cls-5{fill:url(#linear-gradient);}.cls-6{fill:#ccfcd0;}.cls-7{fill:url(#Áåçûìÿííûé_ãðàäèåíò_335);}.cls-8{fill:#d1a78e;}.cls-9{fill:#b88b7d;}.cls-10{fill:#fef1e0;}.cls-11{fill:url(#Áåçûìÿííûé_ãðàäèåíò_201);}.cls-12{fill:#bfa884;}.cls-13{mix-blend-mode:screen;fill:url(#Áåçûìÿííûé_ãðàäèåíò_3);}.cls-14{fill:#ebd4ab;}.cls-15{clip-path:url(#clip-path-2);}.cls-16{fill:#8b421f;}.cls-17{fill:#519b44;}.cls-18{fill:#98c948;}.cls-19{fill:#54883e;}.cls-20{fill:#29abe2;}.cls-21{fill:#454647;}.cls-22{opacity:0.15;}.cls-23{fill:#8293a3;}.cls-24{fill:#8a9dad;}.cls-25{fill:#bf9e4b;}.cls-26{opacity:0.13;}.cls-27{opacity:0.18;}.cls-28{opacity:0.24;}.cls-29{fill:#a08340;}.cls-30,.cls-38,.cls-41{fill:#fff;}.cls-31{fill:#162e42;}.cls-32,.cls-34{fill:#79b721;}.cls-32{opacity:0.57;}.cls-33{fill:#bc5611;}.cls-35{fill:url(#linear-gradient-2);}.cls-36{fill:#cbe8ef;}.cls-37{fill:#f7f8f9;opacity:0.5;}.cls-38{opacity:0.17;}.cls-39{fill:#cac373;}.cls-40,.cls-41{opacity:0.25;}.cls-42{fill:#7f6532;}.cls-43,.cls-44{fill:#5b4724;}.cls-43{opacity:0.65;}.cls-45{fill:#951a1d;}.cls-46{fill:#7d1416;}.cls-47{fill:#e7ad8d;}.cls-48{fill:#d09d7c;}.cls-49{fill:#6f8289;}.cls-50{fill:#212120;opacity:0.37;}.cls-51{fill:#868686;}.cls-52{fill:#6d6d6d;}.cls-53{fill:#a81e22;}.cls-54{fill:#58595b;}.cls-55{fill:#ac9060;}.cls-56{fill:#d7b777;}.cls-57{fill:#e8c991;}.cls-58{fill:#f3d3a2;}.cls-59{fill:#b67656;stroke:#a44a24;stroke-miterlimit:10;stroke-width:3.24px;}.cls-60{fill:#7b7b7a;}.cls-61{fill:#a2a2a3;}.cls-62{fill:#cea852;}.cls-63{fill:#ac8841;}.cls-64{font-size:18.92px;fill:#f4f7f0;font-family:CoopHeavy;}.cls-65{fill:#565555;}.cls-66{fill:url(#linear-gradient-3);}.cls-67{fill:#727171;}.cls-68{fill:url(#linear-gradient-4);}.cls-69{fill:url(#linear-gradient-5);}.cls-70{fill:url(#linear-gradient-6);}.cls-71{opacity:0.08;}.cls-72{fill:url(#linear-gradient-7);}.cls-73{fill:url(#linear-gradient-8);}.cls-74{fill:url(#linear-gradient-9);}.cls-75{fill:url(#linear-gradient-10);}.cls-76{fill:url(#linear-gradient-11);}.cls-77{fill:url(#linear-gradient-12);}.cls-78{fill:url(#linear-gradient-13);}.cls-79{fill:url(#linear-gradient-14);}.cls-80{fill:url(#linear-gradient-15);}.cls-81{fill:url(#linear-gradient-16);}.cls-82{fill:url(#linear-gradient-17);}.cls-83{fill:url(#linear-gradient-18);}.cls-84{fill:url(#linear-gradient-19);}.cls-85{fill:url(#linear-gradient-20);}.cls-86{fill:url(#linear-gradient-21);}.cls-87{fill:url(#linear-gradient-22);}.cls-88{fill:url(#linear-gradient-23);}.cls-89{fill:url(#linear-gradient-24);}.cls-90{fill:url(#linear-gradient-25);}.cls-91{fill:url(#linear-gradient-26);}.cls-92{fill:url(#linear-gradient-27);}.cls-93{fill:url(#linear-gradient-28);}.cls-94{fill:url(#linear-gradient-29);}.cls-95{fill:url(#linear-gradient-30);}.cls-96{fill:url(#linear-gradient-31);}.cls-97{fill:url(#linear-gradient-32);}.cls-98{fill:url(#linear-gradient-33);}.cls-99{fill:url(#linear-gradient-34);}.cls-100{fill:url(#linear-gradient-35);}.cls-101{fill:url(#linear-gradient-36);}.cls-102{fill:url(#linear-gradient-37);}.cls-103{fill:url(#linear-gradient-38);}.cls-104{fill:url(#linear-gradient-39);}.cls-105{fill:url(#linear-gradient-40);}.cls-106{fill:url(#linear-gradient-41);}.cls-107{fill:url(#linear-gradient-42);}.cls-108{fill:url(#linear-gradient-43);}.cls-109{fill:url(#linear-gradient-44);}.cls-110{fill:url(#linear-gradient-45);}.cls-111{fill:url(#linear-gradient-46);}</style><clipPath id="clip-path"><rect class="cls-1" x="-1963.56" y="-63.08" width="1920" height="900"/></clipPath><linearGradient id="linear-gradient" x1="-899.24" y1="912.98" x2="-898.76" y2="668.43" gradientUnits="userSpaceOnUse"><stop offset="0" stop-color="#edc39c"/><stop offset="0.5" stop-color="#ebc29c"/><stop offset="0.7" stop-color="#e4c09c"/><stop offset="0.85" stop-color="#d8bc9c"/><stop offset="0.98" stop-color="#c6b69b"/><stop offset="1" stop-color="#c2b59b"/></linearGradient><linearGradient id="Áåçûìÿííûé_ãðàäèåíò_335" x1="-884.57" y1="62.26" x2="-884.57" y2="-159.69" gradientUnits="userSpaceOnUse"><stop offset="0" stop-color="#f8e2b9"/><stop offset="0.25" stop-color="#f6ddb4"/><stop offset="0.56" stop-color="#f1cea7"/><stop offset="0.89" stop-color="#e8b591"/><stop offset="1" stop-color="#e5ab89"/></linearGradient><linearGradient id="Áåçûìÿííûé_ãðàäèåíò_201" x1="161.54" y1="542.03" x2="156.15" y2="81.85" gradientUnits="userSpaceOnUse"><stop offset="0" stop-color="#bce8cf"/><stop offset="1" stop-color="#7bd1bc"/></linearGradient><linearGradient id="Áåçûìÿííûé_ãðàäèåíò_3" x1="123.54" y1="13.22" x2="226.38" y2="558.55" gradientUnits="userSpaceOnUse"><stop offset="0" stop-color="#ebe9cc"/><stop offset="0.58" stop-color="#656457"/><stop offset="1"/></linearGradient><clipPath id="clip-path-2"><rect class="cls-1" width="1920" height="900"/></clipPath><linearGradient id="linear-gradient-2" x1="903.75" y1="410.68" x2="1036.96" y2="410.68" gradientUnits="userSpaceOnUse"><stop offset="0" stop-color="#e6e6e6"/><stop offset="1" stop-color="#ccc"/></linearGradient><linearGradient id="linear-gradient-3" x1="524.76" y1="114.82" x2="803.45" y2="114.82" xlink:href="#linear-gradient-2"/><linearGradient id="linear-gradient-4" x1="539.94" y1="36.07" x2="569.47" y2="36.07" gradientUnits="userSpaceOnUse"><stop offset="0" stop-color="#fff"/><stop offset="1" stop-color="#e6e6e6"/></linearGradient><linearGradient id="linear-gradient-5" x1="569.47" y1="37.16" x2="576.98" y2="37.16" xlink:href="#linear-gradient-2"/><linearGradient id="linear-gradient-6" x1="539.94" y1="59.17" x2="576.98" y2="59.17" xlink:href="#linear-gradient-2"/><linearGradient id="linear-gradient-7" x1="524.05" y1="115.96" x2="590.87" y2="115.96" xlink:href="#linear-gradient-4"/><linearGradient id="linear-gradient-8" x1="531.53" y1="118.44" x2="563.87" y2="118.44" xlink:href="#linear-gradient-2"/><linearGradient id="linear-gradient-9" x1="558.45" y1="115.96" x2="590.73" y2="115.96" xlink:href="#linear-gradient-2"/><linearGradient id="linear-gradient-10" x1="570.26" y1="96.39" x2="589.33" y2="96.39" xlink:href="#linear-gradient-4"/><linearGradient id="linear-gradient-11" x1="616.71" y1="94.04" x2="642.27" y2="94.04" xlink:href="#linear-gradient-4"/><linearGradient id="linear-gradient-12" x1="642.27" y1="94.85" x2="648.77" y2="94.85" xlink:href="#linear-gradient-2"/><linearGradient id="linear-gradient-13" x1="616.71" y1="111.11" x2="648.77" y2="111.11" xlink:href="#linear-gradient-2"/><linearGradient id="linear-gradient-14" x1="602.97" y1="153.07" x2="660.8" y2="153.07" xlink:href="#linear-gradient-4"/><linearGradient id="linear-gradient-15" x1="609.44" y1="154.91" x2="637.43" y2="154.91" xlink:href="#linear-gradient-2"/><linearGradient id="linear-gradient-16" x1="632.74" y1="153.07" x2="660.67" y2="153.07" xlink:href="#linear-gradient-2"/><linearGradient id="linear-gradient-17" x1="642.96" y1="138.61" x2="659.46" y2="138.61" xlink:href="#linear-gradient-4"/><linearGradient id="linear-gradient-18" x1="719.25" y1="176.6" x2="737.13" y2="176.6" xlink:href="#linear-gradient-4"/><linearGradient id="linear-gradient-19" x1="737.13" y1="177.1" x2="741.68" y2="177.1" xlink:href="#linear-gradient-2"/><linearGradient id="linear-gradient-20" x1="719.25" y1="187.25" x2="741.68" y2="187.25" xlink:href="#linear-gradient-2"/><linearGradient id="linear-gradient-21" x1="709.63" y1="213.45" x2="750.1" y2="213.45" xlink:href="#linear-gradient-4"/><linearGradient id="linear-gradient-22" x1="714.15" y1="214.6" x2="733.74" y2="214.6" xlink:href="#linear-gradient-2"/><linearGradient id="linear-gradient-23" x1="730.46" y1="213.45" x2="750.01" y2="213.45" xlink:href="#linear-gradient-2"/><linearGradient id="linear-gradient-24" x1="737.61" y1="204.42" x2="749.16" y2="204.42" xlink:href="#linear-gradient-4"/><linearGradient id="linear-gradient-25" x1="-10251.83" y1="124.17" x2="-9973.14" y2="124.17" gradientTransform="matrix(-1, 0, 0, 1, -8933, 0)" xlink:href="#linear-gradient-2"/><linearGradient id="linear-gradient-26" x1="-10236.65" y1="45.43" x2="-10207.12" y2="45.43" gradientTransform="matrix(-1, 0, 0, 1, -8933, 0)" xlink:href="#linear-gradient-4"/><linearGradient id="linear-gradient-27" x1="-10207.12" y1="46.51" x2="-10199.61" y2="46.51" gradientTransform="matrix(-1, 0, 0, 1, -8933, 0)" xlink:href="#linear-gradient-2"/><linearGradient id="linear-gradient-28" x1="-10236.65" y1="68.52" x2="-10199.61" y2="68.52" gradientTransform="matrix(-1, 0, 0, 1, -8933, 0)" xlink:href="#linear-gradient-2"/><linearGradient id="linear-gradient-29" x1="-10252.53" y1="125.31" x2="-10185.71" y2="125.31" gradientTransform="matrix(-1, 0, 0, 1, -8933, 0)" xlink:href="#linear-gradient-4"/><linearGradient id="linear-gradient-30" x1="-10245.06" y1="127.79" x2="-10212.71" y2="127.79" gradientTransform="matrix(-1, 0, 0, 1, -8933, 0)" xlink:href="#linear-gradient-2"/><linearGradient id="linear-gradient-31" x1="-10218.13" y1="125.31" x2="-10185.86" y2="125.31" gradientTransform="matrix(-1, 0, 0, 1, -8933, 0)" xlink:href="#linear-gradient-2"/><linearGradient id="linear-gradient-32" x1="-10206.32" y1="105.74" x2="-10187.26" y2="105.74" gradientTransform="matrix(-1, 0, 0, 1, -8933, 0)" xlink:href="#linear-gradient-4"/><linearGradient id="linear-gradient-33" x1="-10106.09" y1="147.76" x2="-10085.57" y2="147.76" gradientTransform="matrix(-1, 0, 0, 1, -8933, 0)" xlink:href="#linear-gradient-4"/><linearGradient id="linear-gradient-34" x1="-10085.57" y1="148.38" x2="-10080.35" y2="148.38" gradientTransform="matrix(-1, 0, 0, 1, -8933, 0)" xlink:href="#linear-gradient-2"/><linearGradient id="linear-gradient-35" x1="-10106.09" y1="160.88" x2="-10080.35" y2="160.88" gradientTransform="matrix(-1, 0, 0, 1, -8933, 0)" xlink:href="#linear-gradient-2"/><linearGradient id="linear-gradient-36" x1="-10117.13" y1="193.13" x2="-10070.69" y2="193.13" gradientTransform="matrix(-1, 0, 0, 1, -8933, 0)" xlink:href="#linear-gradient-4"/><linearGradient id="linear-gradient-37" x1="-10111.93" y1="194.54" x2="-10089.45" y2="194.54" gradientTransform="matrix(-1, 0, 0, 1, -8933, 0)" xlink:href="#linear-gradient-2"/><linearGradient id="linear-gradient-38" x1="-10093.22" y1="193.13" x2="-10070.79" y2="193.13" gradientTransform="matrix(-1, 0, 0, 1, -8933, 0)" xlink:href="#linear-gradient-2"/><linearGradient id="linear-gradient-39" x1="-10085.01" y1="182.01" x2="-10071.76" y2="182.01" gradientTransform="matrix(-1, 0, 0, 1, -8933, 0)" xlink:href="#linear-gradient-4"/><linearGradient id="linear-gradient-40" x1="-10057.34" y1="185.95" x2="-10039.45" y2="185.95" gradientTransform="matrix(-1, 0, 0, 1, -8933, 0)" xlink:href="#linear-gradient-4"/><linearGradient id="linear-gradient-41" x1="-10039.45" y1="186.45" x2="-10034.91" y2="186.45" gradientTransform="matrix(-1, 0, 0, 1, -8933, 0)" xlink:href="#linear-gradient-2"/><linearGradient id="linear-gradient-42" x1="-10057.34" y1="196.6" x2="-10034.91" y2="196.6" gradientTransform="matrix(-1, 0, 0, 1, -8933, 0)" xlink:href="#linear-gradient-2"/><linearGradient id="linear-gradient-43" x1="-10066.96" y1="222.8" x2="-10026.49" y2="222.8" gradientTransform="matrix(-1, 0, 0, 1, -8933, 0)" xlink:href="#linear-gradient-4"/><linearGradient id="linear-gradient-44" x1="-10062.43" y1="223.95" x2="-10042.84" y2="223.95" gradientTransform="matrix(-1, 0, 0, 1, -8933, 0)" xlink:href="#linear-gradient-2"/><linearGradient id="linear-gradient-45" x1="-10046.12" y1="222.8" x2="-10026.58" y2="222.8" gradientTransform="matrix(-1, 0, 0, 1, -8933, 0)" xlink:href="#linear-gradient-2"/><linearGradient id="linear-gradient-46" x1="-10038.97" y1="213.77" x2="-10027.42" y2="213.77" gradientTransform="matrix(-1, 0, 0, 1, -8933, 0)" xlink:href="#linear-gradient-4"/></defs><g class="cls-2"><g id="Layer_1" data-name="Layer 1"><g class="cls-3"><rect class="cls-1" x="-1943.59" y="-56.92" width="2099.75" height="900"/><rect class="cls-1" x="-1938.07" y="-58.75" width="2099.75" height="900"/><path class="cls-4" d="M-1973.28,681.7c-2.86,61.38-5.79,123.39,5.89,184.26H202.94c-2.44-48.52-2.63-97.16-5.46-145.69L-46.09,592.82h-1732.8l-193.31,62.23Q-1972.66,668.36-1973.28,681.7Z"/><path class="cls-5" d="M184.19,826.08c-.92-63.16-5.81-126.21-9.74-189.28l-66.32-34.7H-1624.66L-1984,695l.3,178.42L186,875.24Q184.86,850.69,184.19,826.08Z"/><path class="cls-6" d="M190.39,605.24C188.73,412.65,207.62,134.91,201-60.61L-52.42,17.11l-20,575L196.81,709.3C194.56,674.6,191.54,640,190.39,605.24Z"/><path class="cls-7" d="M-1963.62-82.13c-1.77,24.88-4.74,75-6.49,100.49L-49.66,17.28,201-60.61V-82.13Z"/><path class="cls-8" d="M215.29-36.61c.74-8.66,2.18-24,1.56-32.82L-50.1,16.48l1.89,17.29L215.22-20.67Q215.28-28.65,215.29-36.61Z"/><path class="cls-9" d="M197,711.72q-.65-10.19-1.38-20.36L-52,584.75l0,24.12L197.2,715.61C197.13,714.31,197.06,713,197,711.72Z"/><path class="cls-8" d="M214,40.18,64.4,64.27V667.5l9.33,4.15,3.57-593L213.34,60Q213.72,50.1,214,40.18Z"/><path class="cls-10" d="M197,711.72c-20.79-217.55,7.79-435.12,16.41-652.59L76.17,78.1,72.63,671.33l125.43,59.73C197.74,724.61,197.39,718.17,197,711.72Z"/><path class="cls-11" d="M193.7,391.31C198.93,290.18,207.62,189.18,212.18,88L105,98.11V494.9l84.54,17.71C190.07,472.17,191.61,431.72,193.7,391.31Z"/><path class="cls-12" d="M189.58,510.8,107.2,493.54V99.67L212.1,89.8c.06-1.18.11-2.36.17-3.55L102.85,96.55V496.26l86.69,18.16C189.55,513.21,189.56,512,189.58,510.8Z"/><path class="cls-13" d="M193.7,391.31c7.67-62.41,2.71-230.25.7-295.14l-76.84,7.17,42.16,394.55,29.94,7.66C190.26,467.46,191.73,429.37,193.7,391.31Z"/><path class="cls-9" d="M213.38,59.13,76.17,78.1,72.63,671.33l5.24,2.35L88,80,213.2,63.63Z"/><path class="cls-9" d="M197.93,728.39l-120-57.14-5.24-.13,125.43,60.56C198,730.58,198,729.49,197.93,728.39Z"/><path class="cls-1" d="M-1964.77-65.43c-5,76.2-5.78,152.51-5.89,228.79.46,79.49-7.93,158.7,4.43,238,1.52,53.54,31.81,145.11-5,189.7,1.25,73.76-8,147.78-3,221.57H173.64v-878Z"/><rect class="cls-1" x="-1938.07" y="-58.75" width="2099.75" height="900"/><path class="cls-14" d="M-1975.74,776.68H199.87c0-.77-.05-1.53-.07-2.29H-1975.77Z"/><path class="cls-14" d="M-1974.58,711.53H156.33l-3.68-1.78-2127.14-.49Z"/><path class="cls-14" d="M-1971.86,644.68H31.58c-1.31-4.74-2000.37-.64-2003.38-2.28Z"/><path class="cls-14" d="M201.15,820-245.06,587l-1.21,3.2,447.64,237Q201.25,823.62,201.15,820Z"/><path class="cls-12" d="M195.83,694.77l-88.63-33V511.56l82.21,18.72c0-1.22,0-2.43,0-3.64l-86.57-19.71V664l93.26,34.73C196,697.42,195.93,696.1,195.83,694.77Z"/><rect class="cls-1" x="-1938.07" y="-58.75" width="2099.75" height="900"/><rect class="cls-1" x="-1938.64" y="-63.08" width="2099.75" height="900"/><rect class="cls-1" x="-1938.64" y="-63.08" width="2099.75" height="900"/></g><g class="cls-15"><rect class="cls-16" x="157.31" y="819.74" width="7.23" height="37.67" transform="translate(321.85 1677.15) rotate(180)"/><path class="cls-17" d="M132.68,760.11c-5.18,49.63-15.56,88.38,28.65,80.47,47.24,3.56,36.92-27.94,30.93-82.24-5.2-47.19-19.15-107.09-32.68-101.36C147.06,662.29,137.61,712.89,132.68,760.11Z"/><path class="cls-18" d="M132.68,760.11c-5.18,49.63-15.56,88.38,28.65,80.47-23.32-18.75-22.66-26.17-17.49-75.81,4.93-47.22,7.81-79.3,15.74-107.79C147.06,662.29,137.61,712.89,132.68,760.11Z"/><path class="cls-19" d="M161.33,840.58c47.24,3.56,36.92-27.94,30.93-82.24-5.2-47.19-19.15-107.09-32.68-101.36C181.07,693.15,197.89,851.47,161.33,840.58Z"/><path class="cls-20" d="M187.18,157.64v468.6c0,18.94-7.52,36.38-19.64,45.55l-5.35,4-9.82,7.44L96.52,725.49V79.12l17.89,8.07h0l1.22.55h0L161,108.21C176.64,115.25,187.18,135.18,187.18,157.64Z"/><rect class="cls-21" x="167.96" y="334.47" width="14.49" height="83"/><path class="cls-22" d="M1372.16,811.56S1361.9,883.29,1326.82,963H535.25c53.81-156,278.19-256.76,278.19-256.76S785.25,800.73,847.06,866c13.62,14.37,31.61,27.32,55.24,37.53,20.62,8.91,45.53,15.73,75.59,19.58a472.37,472.37,0,0,0,87.24,3C1242.66,915.85,1372.16,811.56,1372.16,811.56Z"/><rect class="cls-23" x="98.97" y="407.67" width="1723.43" height="555.23"/><polygon class="cls-23" points="907.78 407.67 849.51 786.35 822.34 962.9 98.97 962.9 98.97 407.67 907.78 407.67"/><polygon class="cls-24" points="1074.85 962.9 895.5 962.9 904.74 854.62 942.88 407.67 1014.76 407.67 1067.58 895.66 1074.85 962.9"/><polygon class="cls-25" points="1814.76 -6.24 1138.34 235.66 767.75 235.66 91.33 -6.24 1814.76 -6.24"/><path class="cls-26" d="M1820-5.22l-676.42,241.9H772.94L96.52-5.22H346.43C430.11,33.65,704.16,154.44,927.18,179c218.76,24,463.57-128.58,544.43-184.17Z"/><path class="cls-27" d="M1692.31-5.22S1182,228.4,1086.51,229.33s-128.27-7-128.27-7-32.83,7.87-128.28,7S224.16-5.22,224.16-5.22H96.52l676.42,241.9h370.59L1820-5.22Z"/><polygon class="cls-26" points="1510.19 -5.22 1120.5 229.33 1143.41 229.33 1604.39 -5.22 1510.19 -5.22"/><polygon class="cls-28" points="1510.19 -5.22 1495.74 -5.22 1119.56 224.27 1120.5 229.33 1510.19 -5.22"/><polygon class="cls-26" points="406.28 -5.22 795.98 229.33 773.06 229.33 312.08 -5.22 406.28 -5.22"/><polygon class="cls-28" points="406.28 -5.22 424.14 -5.22 796.82 225.57 795.98 229.33 406.28 -5.22"/><path class="cls-25" d="M772.94,236.68V414.45l-70.71,69.22h0l-.05.05L212.56,963-24,950-12-47Z"/><path class="cls-21" d="M249.87,612.81V137.19c0-22.77,23.88-38.87,47.07-31.73l212.14,65.29c14.68,4.52,24.6,17.31,24.6,31.73V503.3c0,12.16-7.08,23.35-18.48,29.24L303.06,642.05C279.18,654.37,249.87,638.27,249.87,612.81Z"/><path class="cls-20" d="M526.16,209V493.62A31.36,31.36,0,0,1,509,521.26l-4.67,2.45-8.6,4.52L325,617.73l-13.53,7.1a34.52,34.52,0,0,1-43.65-9.69,30,30,0,0,1-5-10.61,30.38,30.38,0,0,1-.89-7.35V147.38c0-21.53,22.23-36.75,43.82-30L372,138.08l23.75,7.43,23.07,7.21,12.77,4,30.88,9.65h0l1.06.33h0l1.82.57,35.4,11.06,2.5.78C516.88,183.38,526.09,195.41,526.16,209Z"/><path class="cls-21" d="M195.77,146.68V642.2c0,20-8.08,38.46-21.1,48.16L-16,804-9,28,167.68,94.42C184.44,101.86,195.77,122.93,195.77,146.68Z"/><path class="cls-21" d="M575.08,471.52v-255c0-12.2,12.57-20.84,24.78-17l111.67,35a18,18,0,0,1,13,17V412.81a17.81,17.81,0,0,1-9.73,15.68L603.08,487.2C590.51,493.81,575.08,485.17,575.08,471.52Z"/><path class="cls-20" d="M720.53,255.09V407.62a16.85,16.85,0,0,1-9.06,14.82L709,423.75l-4.53,2.43-56.91,30.38L629,466.5,607.49,478c-10.46,5.58-23-.35-25.61-10.89a16.87,16.87,0,0,1-.46-3.94V222c0-11.54,11.7-19.71,23.07-16.09l46,14.64,21.26,6.77,11.88,3.78,3.37,1.07h0l.56.18h0L708.47,239A17,17,0,0,1,720.53,255.09Z"/><polygon class="cls-29" points="-24 922 773 407 773 417 96.52 963 -24 922"/><path class="cls-25" d="M1138.94,235.47l-.1,199.45,71.2,47.54h0l0,0,492.26,479.27L1939,974,1959-61Z"/><path class="cls-21" d="M1666.6,612.81V137.19c0-22.77-23.88-38.87-47.06-31.73L1407.4,170.75c-14.69,4.52-24.61,17.31-24.61,31.73V503.3c0,12.16,7.08,23.35,18.48,29.24l212.14,109.51C1637.3,654.37,1666.6,638.27,1666.6,612.81Z"/><path class="cls-20" d="M1654.56,147.38v449.8a30.38,30.38,0,0,1-.89,7.35c-4.85,19.66-28.76,30.71-48.63,20.3l-65.88-34.54-52-27.28-66.34-34.78-7.91-4.15-.7-.37-4.67-2.45a32.37,32.37,0,0,1-13.72-13.57,30.19,30.19,0,0,1-3.49-14.07V209.13c0-13.64,9.24-25.73,22.91-30l4.31-1.34,33.59-10.5,1.81-.57h0l1.06-.33h0l3.09-1,84.23-26.34,11-3.42,28.61-8.95,26.56-8.29,3.26-1C1632.33,110.63,1654.56,125.85,1654.56,147.38Z"/><path class="cls-21" d="M1720.7,146.68V642.2c0,20,8.09,38.46,21.1,48.16L1959,805,1939,20,1748.8,94.42C1732,101.86,1720.7,122.93,1720.7,146.68Z"/><path class="cls-20" d="M1729.29,157.64v468.6c0,18.94,7.53,36.38,19.65,45.55l5.34,4,9.82,7.44L1959,803,1947,26,1802.06,87.19h0l-1.21.55h0l-45.35,20.45C1739.84,115.25,1729.29,135.18,1729.29,157.64Z"/><path class="cls-21" d="M1341.39,471.52v-255c0-12.2-12.57-20.84-24.77-17l-111.68,35a18,18,0,0,0-13,17V412.81a17.79,17.79,0,0,0,9.73,15.68l111.67,58.71C1326,493.81,1341.39,485.17,1341.39,471.52Z"/><path class="cls-20" d="M1335.05,222V463.14a16.87,16.87,0,0,1-.46,3.94C1332,477.62,1319.45,483.55,1309,478l-63-33.64-22.56-12L1212,426.18l-4.53-2.43-2.46-1.31a17.4,17.4,0,0,1-5.24-4.28,16.56,16.56,0,0,1-3.81-10.54V255.09A17,17,0,0,1,1208,239l20.91-6.66h0l.56-.18h0l4-1.27,9.52-3,21.4-6.81,1.59-.51,22.81-7.27L1312,205.9a17.71,17.71,0,0,1,22.19,10.79A16.23,16.23,0,0,1,1335.05,222Z"/><path class="cls-30" d="M1595.49,619.82s-27.1-12.25-82.38-41.25-90.33-49.31-90.33-49.31Z"/><polygon class="cls-29" points="1983.29 930 1119 411.53 1119 420.46 1839.24 972 1983.29 930"/><rect class="cls-31" x="1684.81" y="290.88" width="15.02" height="65.35" transform="translate(3384.63 647.11) rotate(180)"/><rect class="cls-31" x="1355.82" y="295.85" width="5.84" height="39.79" transform="translate(2717.48 631.5) rotate(180)"/><path class="cls-32" d="M613.64,389.3s67.94-4.37,107.11-3c0,0,2.77,24.16-3,33.27L526.53,523.14-10,795l3-134-7-270Z"/><rect class="cls-33" x="636.37" y="364.71" width="7.94" height="23.24"/><path class="cls-34" d="M633.56,373s-17.91,1.68-1.23-69.55c0,0,6.09-20,17-.05,0,0,12.4,54.8.37,69.3C649.71,372.67,640.57,375,633.56,373Z"/><path class="cls-21" d="M249.62,588.47l.25,24.34s-.91,17.89,15.26,27.62a37,37,0,0,0,34.61,3.39l26.47-13.54-3.29-7.62s-27.9,15.51-51.07-2.82c0,0-9.86-8.91-9.94-22.66l-.17-8.71Z"/><path class="cls-21" d="M526.21,474.45l-.08,22.5s-2.25,16.1-17.18,24.31l6.25,11.28s19.79-8.15,18.48-29.24l-.12-28.85Z"/><polygon class="cls-21" points="508.95 521.26 300.32 630.31 326.21 630.27 517.21 531.87 508.95 521.26"/><path class="cls-21" d="M581,464.64s6.92,20.58,26.49,13.33L714.63,420.3s5.16-3.7,6.06-14.55V384.4l3.61-.09s-.27,34.16-3.79,36.29L595.51,489s-16.83,3.07-20.36-16Z"/><rect class="cls-35" x="903.75" y="407.33" width="133.21" height="6.69"/><path class="cls-36" d="M841.18,251.46s9.56,90.32,137.19,99.26S1129,315,1120.9,270.32,841.18,251.46,841.18,251.46Z"/><rect class="cls-21" x="771.62" y="233.62" width="371.17" height="191.38"/><path class="cls-20" d="M1120.9,410.78H795.31c-8.62,0-15.61-10.75-15.61-24V266.41c0-13.26,7-24,15.61-24H1120.9c8.62,0,15.61,10.74,15.61,24V386.77C1136.51,400,1129.52,410.78,1120.9,410.78Z"/><path class="cls-34" d="M779.49,350s9.56-26.45,37.59-19.6c0,0,4.75-5.14,7.66,1,0,0,3.91-15.83,15.43-9.46,0,0,6.48-2.62,9,6.83,0,0,8.91-17.94,23.08,1.35,0,0,2.5-13.12,12.91-7.14,0,0,13.43-32.24,27.12-.47,0,0,10.4-3.05,13.13,14,0,0,3.7-5.28,6.52,1.22,0,0-2-12.86,7.92-10.43,0,0-3.16-14.52,8.21-10.09,0,0,20.74-17,35.84,19.8,0,0,12.35-5.43,17.06,11.76,0,0,5.29-16.59,20.78.6,0,0,13.93-23.52,27.06-6.94,0,0,13.34-19,24.91,2.42,0,0,5.09-15.38,15.09-.61,0,0,7.65-27.14,20.79-7.23,0,0,20.39-20.21,26.67,7.23l.36,44.07s-.69,21-15.7,22.46l-83.71.2-228.93.13s-14.64.17-15.57-.6c0,0-12.73-1.82-13-23.74Z"/><path class="cls-37" d="M1120.9,410.78H795.31c-8.62,0-15.61-10.75-15.61-24V266.41c0-13.26,7-24,15.61-24H1120.9c8.62,0,15.61,10.74,15.61,24V386.77C1136.51,400,1129.52,410.78,1120.9,410.78Z"/><polygon class="cls-38" points="907.76 242.44 805.86 410.84 794.22 410.71 892.42 242.25 907.76 242.44"/><polyline class="cls-38" points="821.13 410.83 924.76 242.41 936.47 242.51 831.01 410.64"/><polygon class="cls-38" points="1073.18 242.56 971.28 410.96 959.64 410.83 1057.84 242.36 1073.18 242.56"/><polyline class="cls-38" points="986.55 410.95 1090.18 242.52 1101.89 242.63 996.43 410.76"/><path class="cls-39" d="M1195.8,340.5s-8.27,76.05,4.67,85.08L1551,600l406,194,7-433S1324.56,315.75,1195.8,340.5Z"/><path class="cls-34" d="M1196.07,292.11s20.94-32.57,82.9-24.47c0,0,10.45-6.37,16.92,1.2,0,0,8.54-19.47,34-11.78,0,0,14.29-3.29,19.88,8.28,0,0,19.56-22.11,51,1.4,0,0,5.45-16.12,28.48-8.9,0,0,29.46-39.73,59.88-.87,0,0,23-3.87,29.11,17,0,0,8.13-6.52,14.4,1.43,0,0-4.56-15.77,17.44-12.89,0,0-7.09-17.79,18.06-12.49,0,0,45.71-21.08,79.29,23.91,0,0,27.25-6.8,37.76,14.25,0,0,11.59-20.42,45.91.51,0,0,30.6-29,59.73-8.82,0,0,29.33-23.46,55,2.69,0,0,11.16-18.93,33.34-.91,0,0,16.72-33.4,45.87-9.11,0,0,44.91-25,59,8.58l1.07,54.08S1983.7,361,1950.57,363l-184.92,1.18L1260,366.86s-32.33.37-34.38-.57c0,0-28.13-2.08-28.85-29Z"/><rect class="cls-25" x="1341.2" y="250.96" width="41.52" height="273.85"/><rect class="cls-25" x="1667.19" y="260.76" width="52.91" height="450.45"/><rect class="cls-21" x="1335.02" y="248.5" width="6.2" height="220.72"/><rect class="cls-21" x="1192.04" y="251.78" width="3.84" height="155.2"/><rect class="cls-21" x="1382.8" y="251.67" width="7.15" height="250.68"/><rect class="cls-21" x="1654.71" y="271.57" width="11.76" height="328.61"/><rect class="cls-21" x="1720.51" y="269.86" width="8.73" height="370.26"/><path class="cls-21" d="M1195.88,407s.21,8.89,6.94,14.19L1309,478s20.86,6.85,26-13.07l4.64-.17,1.58,4.49s3,17.94-17.14,20.13c0,0-125.76-62.39-128-66.08C1196.1,423.27,1189,401.48,1195.88,407Z"/><path class="cls-21" d="M1389.29,492.91a43.69,43.69,0,0,0,14.64,26.43l208.86,108.82s32.26,5.62,41.92-28l7.62-3.83,4.14,3.83s9.63,49.65-40.78,45.89L1389.16,523.53s-7.63-6.79-6.47-27.06Z"/><path class="cls-21" d="M1728.24,628.42s4,29.05,22.6,45.13L1959,779v26l-122-64-97.32-51.65s-21.19-15.51-19.17-49.22Z"/><path class="cls-25" d="M1325.15,489.33s13.46-1.49,16-14.21l11.79,12.33-8.44,19.16Z"/><path class="cls-25" d="M1626.28,646.29s35.52.21,41.21-33.46l11,58.9-29.74-5.64Z"/><path class="cls-25" d="M1720.7,642.2s-3,28.84,19,47.15L1816.84,746l-104-47.63Z"/><path class="cls-37" d="M1654.56,147.38v449.8a30.38,30.38,0,0,1-.89,7.35c-4.85,19.66-28.76,30.71-48.63,20.3l-65.88-34.54-52-27.28-66.34-34.78-7.91-4.15-.7-.37-4.67-2.45a32.37,32.37,0,0,1-13.72-13.57,30.19,30.19,0,0,1-3.49-14.07V209.13c0-13.64,9.24-25.73,22.91-30l4.31-1.34,33.59-10.5,1.81-.57h0l1.06-.33h0l3.09-1,84.23-26.34,11-3.42,28.61-8.95,26.56-8.29,3.26-1C1632.33,110.63,1654.56,125.85,1654.56,147.38Z"/><path class="cls-37" d="M1728.29,153.64v468.6c0,18.94,7.53,36.38,19.65,45.55l5.34,4,9.82,7.44L1954,776l-8-748L1801.06,83.19h0l-1.21.55h0l-45.35,20.45C1738.84,111.25,1728.29,131.18,1728.29,153.64Z"/><path class="cls-37" d="M1335.05,222V463.14a16.87,16.87,0,0,1-.46,3.94C1332,477.62,1319.45,483.55,1309,478l-63-33.64-22.56-12L1212,426.18l-4.53-2.43-2.46-1.31a17.4,17.4,0,0,1-5.24-4.28,16.56,16.56,0,0,1-3.81-10.54V255.09A17,17,0,0,1,1208,239l20.91-6.66h0l.56-.18h0l4-1.27,9.52-3,21.4-6.81,1.59-.51,22.81-7.27L1312,205.9a17.71,17.71,0,0,1,22.19,10.79A16.23,16.23,0,0,1,1335.05,222Z"/><g class="cls-40"><path class="cls-30" d="M1456.72,166.74,1389.9,299.48V236.1l27.22-57,33.59-10.5,1.81-.57h0l1.06-.33h0Z"/><polygon class="cls-30" points="1551.9 136.98 1389.9 457.8 1389.9 440.34 1540.95 140.4 1551.9 136.98"/><path class="cls-30" d="M1607.07,119.73,1412.48,525.42l-.69-.37-4.68-2.45A32.4,32.4,0,0,1,1393.39,509l187.12-381Z"/><polygon class="cls-30" points="1654.15 266.05 1654.15 386.86 1538.76 591.63 1486.74 564.35 1654.15 266.05"/></g><polygon class="cls-41" points="1242.62 229.2 1195.54 345.64 1195.54 325.31 1233.09 232.23 1242.62 229.2"/><path class="cls-41" d="M1288.42,214.61,1199.35,419.5a16.56,16.56,0,0,1-3.81-10.54V384.77L1264,222.39l1.59-.51Z"/><path class="cls-41" d="M1334.64,223.33v59l-89.05,163.38L1223,433.62,1333.77,218A16.23,16.23,0,0,1,1334.64,223.33Z"/><path class="cls-25" d="M156.11,704.17l19.42-14.25s20.86-15.39,20.24-47.72l9.7,1.69S220.36,701.77,156.11,704.17Z"/><path class="cls-25" d="M249.06,607.42S252,645,291,646l-41,19s-8.48-25.19-8.48-26.38S249.06,607.42,249.06,607.42Z"/><path class="cls-25" d="M568.71,454.43s-1.36,32.09,30.28,38.63L568.86,509.4s-7.69-22.58-7.69-23.77S568.71,454.43,568.71,454.43Z"/><path class="cls-25" d="M506.23,538.4s33.49-12.49,27.9-44l28.51,20.39s-20.21,16.63-21.43,17.14S506.23,538.4,506.23,538.4Z"/><path class="cls-25" d="M1382.52,504.39s0,12.35,10.88,22.85c0,0-22.15-3.48-22.69-6.18S1382.52,504.39,1382.52,504.39Z"/><rect class="cls-21" x="1504.56" y="142.93" width="11.48" height="440.16"/><rect class="cls-21" x="653.99" y="218.34" width="6.85" height="237.85"/><rect class="cls-21" x="1252.53" y="221.37" width="6.85" height="232.48"/><rect class="cls-21" x="517.61" y="341.08" width="6.63" height="36.7"/><rect class="cls-21" x="264.19" y="339.69" width="9.68" height="53.55"/><rect class="cls-21" x="584.06" y="343.89" width="4.92" height="27.23"/><rect class="cls-21" x="716.03" y="336.59" width="3.26" height="18.06"/><rect class="cls-21" x="1393.14" y="350.19" width="6.63" height="36.7" transform="translate(2792.91 737.09) rotate(-180)"/><rect class="cls-21" x="1643.52" y="348.81" width="9.68" height="53.55" transform="translate(3296.71 751.16) rotate(-180)"/><rect class="cls-21" x="1328.39" y="353" width="4.92" height="27.23" transform="translate(2661.71 733.24) rotate(-180)"/><rect class="cls-21" x="1198.09" y="345.7" width="3.26" height="18.06" transform="translate(2399.44 709.47) rotate(-180)"/><rect class="cls-21" x="1733.45" y="329.81" width="14.49" height="83"/><polygon class="cls-42" points="1153.8 364.07 1150.85 372.99 1926 657 1933 622 1712.4 548.9 1372.84 436.54 1153.8 364.07"/><path class="cls-43" d="M1153.8,364.07l-3,8.92L1926,654l7-32c-14.47-.89-132.63-26.42-146.79-30.37-55.86-15.56-73.81-42.73-73.81-42.73s-66.9-6-153.35-36-141.33-46.84-162.79-57.85-23.42-18.53-23.42-18.53-26.56-.83-120.75-32.55S1153.8,364.07,1153.8,364.07Z"/><rect class="cls-44" x="1357.99" y="417.72" width="8.72" height="52.86"/><rect class="cls-44" x="1687.48" y="529.9" width="10.72" height="64.02"/><path class="cls-45" d="M565.67,338.23l-6.84-8.94L458.9,319.07q-4.75,37.56-9.52,75.13l106.71,1.51Q560.89,367,565.67,338.23Z"/><path class="cls-46" d="M565.67,338.23l-6.84-8.94L458.9,319.07l-1.37,23L448,390.6H463l7.71-46.74L564,350.27Z"/><path class="cls-46" d="M540.16,372.39l2-16.7-1.48-2.5a242.59,242.59,0,0,1-18.48,16.13l1.48,2.49Z"/><path class="cls-47" d="M540.75,354.47l-.28-1.26a15.91,15.91,0,0,0-19-.48l.73,16.59Z"/><path class="cls-48" d="M538.62,371.32l2.13-16.85s-8.54-7.31-19.2-.47l.72,16.59Z"/><polygon class="cls-49" points="538.57 356.37 536.92 363.99 531.45 363.84 532.08 355.59 538.57 356.37"/><polygon class="cls-49" points="523.75 355.78 524.36 363.52 529.81 363.97 530.3 355.71 523.75 355.78"/><polygon class="cls-49" points="536.87 365.27 531.4 365.12 531.25 369.1 536.73 369.1 536.87 365.27"/><polygon class="cls-49" points="524.56 364.92 530.03 365.08 529.88 369.06 524.41 368.75 524.56 364.92"/><path class="cls-46" d="M499.35,371.41l1.13-16.79-1.6-2.41a240.18,240.18,0,0,1-17.62,17l1.61,2.42Z"/><path class="cls-47" d="M499,353.48l-.34-1.24a15.92,15.92,0,0,0-19,.48l1.59,16.53Z"/><path class="cls-48" d="M497.76,370.42,499,353.48a16.24,16.24,0,0,0-19.2.51l1.59,16.53Z"/><polygon class="cls-49" points="496.92 355.49 495.67 363.19 490.2 363.31 490.39 355.04 496.92 355.49"/><polygon class="cls-49" points="482.09 355.65 483.11 363.36 488.57 363.52 488.63 355.25 482.09 355.65"/><polygon class="cls-49" points="495.69 364.47 490.22 364.59 490.27 368.57 495.75 368.3 495.69 364.47"/><polygon class="cls-49" points="483.38 364.75 488.85 364.62 488.91 368.61 483.43 368.58 483.38 364.75"/><polygon class="cls-46" points="449.28 383.15 557.58 386.33 557.54 385.05 557.54 385.05 555.7 384.84 449.2 380.9 449.28 383.15"/><polygon class="cls-48" points="451.11 382.57 558.43 384.99 558.87 382.89 558.21 382.88 557.54 382.86 451 380.32 451.11 382.57"/><polygon class="cls-50" points="482.64 299.5 481.95 303.35 482.64 336.55 479.07 338.75 460.27 336.75 462.53 297.81 464.38 297.36 482.64 299.5"/><path class="cls-45" d="M216.61,338.23l6.84-8.94,99.93-10.22q7.35,37.68,14.69,75.37l-111.88,1.27Q221.41,367,216.61,338.23Z"/><path class="cls-46" d="M216.61,338.23l6.84-8.94,99.93-10.22,11.69,25.71L313.44,346l-94.39,3.3Z"/><path class="cls-46" d="M261,372.15l1.13-15.28L261.05,353a62.23,62.23,0,0,1-17.7,16.65l2.54,2.75Z"/><path class="cls-47" d="M241.75,354.12l.31-1.25a15.92,15.92,0,0,1,19,.08l-1.23,16.56Z"/><path class="cls-48" d="M243.36,371l-1.61-16.91s8.76-7.06,19.21.1l-1.23,16.56Z"/><polygon class="cls-49" points="243.87 356.08 245.29 363.75 250.76 363.76 250.38 355.49 243.87 356.08"/><polygon class="cls-49" points="258.7 355.93 257.86 363.65 252.39 363.94 252.15 355.67 258.7 355.93"/><polygon class="cls-49" points="245.3 365.03 250.77 365.04 250.8 369.02 245.33 368.86 245.3 365.03"/><polygon class="cls-49" points="257.62 365.05 252.14 365.04 252.17 369.02 257.64 368.88 257.62 365.05"/><path class="cls-46" d="M305.14,372.07l1.14-15.28-1.09-3.92a62.07,62.07,0,0,1-17.7,16.65l2.54,2.75Z"/><path class="cls-47" d="M285.89,354l.31-1.25a15.92,15.92,0,0,1,19,.08L304,369.43Z"/><path class="cls-48" d="M287.51,370.94,285.89,354s8.76-7.06,19.21.1l-1.23,16.56Z"/><polygon class="cls-49" points="288.01 356 289.43 363.67 294.91 363.68 294.53 355.41 288.01 356"/><polygon class="cls-49" points="302.84 355.85 302 363.57 296.54 363.86 296.29 355.58 302.84 355.85"/><polygon class="cls-49" points="289.44 364.95 294.92 364.96 294.94 368.94 289.47 368.78 289.44 364.95"/><polygon class="cls-49" points="301.76 364.96 296.29 364.96 296.31 368.94 301.79 368.8 301.76 364.96"/><path class="cls-51" d="M193.88,339.05l.77,5,131.63-5.5L322,331.85Z"/><path class="cls-52" d="M226.39,302.07l-7,9.34-25.47,27.64,131.84-5.25-5.07-36.44Z"/><path class="cls-51" d="M585.5,337.74l-.76,5-131.64-5.5,4.27-6.72Z"/><path class="cls-52" d="M553,300.76l7,9.34,25.46,27.64-131.83-5.25,5.07-36.44Z"/><polygon class="cls-46" points="333.01 383.31 224.7 386.17 224.75 384.89 224.75 384.89 226.59 384.68 333.09 381.06 333.01 383.31"/><polygon class="cls-48" points="331.18 382.72 223.83 384.85 223.41 382.75 224.07 382.74 224.74 382.72 331.31 380.46 331.18 382.72"/><path class="cls-53" d="M449.32,394.44s19.16-101.92,23.27-115.16c0,0-54.75-60.88-83.5-67.5a193.34,193.34,0,0,0-32.68,20.35c-6.47,5-9.93,8.32-17.76,15.14s-19.4,16.55-34.43,28c3.91,18.4,8,36.74,12.15,55.1,6.33,28.29,13.17,58.07,15.23,64Z"/><path class="cls-54" d="M468.66,298q19.48.23,39.68.84,23.09.74,45.24,1.94c-.28-1.91-.57-3.82-.85-5.73l-82.87-2.57Z"/><path class="cls-54" d="M309.69,299.72q-19.62.21-39.95.83-23.25.74-45.55,1.94c.29-1.91.57-3.82.86-5.73l83.44-2.57Z"/><path class="cls-45" d="M469.74,296.59s3.67-16.83,4.58-19.79c0,0-55.92-62.18-85.27-68.94q-16.28,11.05-33,23.24c-19.13,14-35.16,27.45-51.85,41.19l4.27,21.9L390.44,234Z"/><ellipse class="cls-45" cx="391.29" cy="258.63" rx="11" ry="10.27"/><ellipse class="cls-55" cx="389.96" cy="255.52" rx="11" ry="10.27"/><ellipse class="cls-56" cx="389.96" cy="256.77" rx="11" ry="10.27"/><ellipse class="cls-57" cx="389.96" cy="256.77" rx="9" ry="8.4"/><ellipse class="cls-58" cx="389.96" cy="256.46" rx="9" ry="8.09"/><polygon class="cls-52" points="390.08 257.62 391.97 257.64 395.09 254.77 390.92 256.04 390.08 257.62"/><polygon class="cls-52" points="389.63 257.79 388.96 255.76 389.63 250.33 390.29 255.76 389.63 257.79"/><path class="cls-45" d="M415.1,394.44l8.21-63.87a47.81,47.81,0,0,0-15.06-12.77c-5.47-7.67-13.7-10.36-19.16-6.39l20.53,83Z"/><path class="cls-47" d="M419.2,333.12l.78-6.49s-26.29-30.61-58.26-1.17v3.83Z"/><path class="cls-48" d="M412.36,394.44l7.18-64.37s-26.34-30.16-57.83-.78l5.48,65.15Z"/><polygon class="cls-59" points="415.1 331.85 393.2 328.84 393.2 366.78 410.99 366.78 415.1 331.85"/><polygon class="cls-59" points="410.2 370.65 393.58 371.01 393.88 390.6 408.53 390.46 410.2 370.65"/><polygon class="cls-59" points="365.82 331.85 387.72 328.84 387.72 366.78 369.93 366.78 365.82 331.85"/><polygon class="cls-59" points="370.71 370.65 387.34 371.01 387.04 390.6 372.38 390.46 370.71 370.65"/><ellipse class="cls-47" cx="389.77" cy="313.33" rx="7.53" ry="7.03"/><ellipse class="cls-48" cx="389.77" cy="317.16" rx="7.53" ry="7.03"/><polygon class="cls-45" points="454.8 336.96 446.58 375.28 430.16 374 430.16 371.44 452.06 334.4 454.8 336.96"/><polygon class="cls-47" points="452.69 334.46 452.32 336.86 428.79 370.17 430.16 333.12 452.69 334.46"/><polygon class="cls-48" points="452.43 335.83 445.21 372.72 428.79 371.44 430.16 334.4 452.43 335.83"/><polygon class="cls-49" points="449.28 339.9 446.42 354.8 439.88 354.2 441.09 339.21 449.28 339.9"/><polygon class="cls-49" points="446.05 356.85 443.45 370.51 438.46 370.07 439.78 356.04 446.05 356.85"/><polygon class="cls-49" points="432.33 337.89 431.7 353 437.8 353.65 439.96 338.77 432.33 337.89"/><polygon class="cls-49" points="431.97 355.01 431.52 368.87 436.5 369.44 438.28 355.47 431.97 355.01"/><path class="cls-45" d="M455,322.65l3.81-24.36-2.67-2.21s-13.91,14-24.64,21.72l1.37,2.55Z"/><path class="cls-47" d="M456.8,297.86l-.29-1.72s-11-10.37-25.63-1.73v22.45Z"/><path class="cls-48" d="M452.94,320.51l3.86-22.65s-11.1-10.36-25.91-1.73v22.46Z"/><polygon class="cls-49" points="453.75 300.31 451.07 310.51 443.68 309.99 445.02 298.88 453.75 300.31"/><polygon class="cls-49" points="433.76 298.65 434.13 309.16 441.47 310.07 442.62 298.94 433.76 298.65"/><polygon class="cls-49" points="450.93 312.23 443.54 311.71 443.11 317.08 450.51 317.4 450.93 312.23"/><polygon class="cls-49" points="434.31 311.06 441.7 311.58 441.26 316.95 433.89 316.23 434.31 311.06"/><polygon class="cls-45" points="354.1 334.4 355.49 373.54 337.32 374.84 335.92 369.62 351.3 331.79 354.1 334.4"/><polygon class="cls-47" points="328.21 333.15 328.59 335.61 352.62 369.62 351.22 331.79 328.21 333.15"/><polygon class="cls-48" points="328.47 334.56 335.84 372.23 352.62 370.93 351.22 333.1 328.47 334.56"/><polygon class="cls-49" points="331.69 338.71 334.61 353.93 341.29 353.32 340.05 338.01 331.69 338.71"/><polygon class="cls-49" points="334.99 356.03 337.64 369.97 342.74 369.52 341.39 355.2 334.99 356.03"/><polygon class="cls-49" points="349 336.66 349.65 352.1 343.41 352.76 341.21 337.56 349 336.66"/><polygon class="cls-49" points="349.37 354.14 349.82 368.3 344.74 368.89 342.93 354.62 349.37 354.14"/><path class="cls-45" d="M352.7,318.75V294l-2.11-1.74s-10.7,17.37-21.66,25.22l1.4,2.61Z"/><path class="cls-47" d="M324,295.78l.3-1.76s11.22-10.59,26.17-1.77v22.93Z"/><path class="cls-48" d="M328,318.91,324,295.78s11.34-10.59,26.47-1.77V317Z"/><polygon class="cls-49" points="327.13 298.28 329.87 308.7 337.41 308.17 336.04 296.81 327.13 298.28"/><polygon class="cls-49" points="347.54 296.59 347.16 307.32 339.67 308.25 338.49 296.88 347.54 296.59"/><polygon class="cls-49" points="330.01 310.46 337.55 309.93 338 315.41 330.44 315.74 330.01 310.46"/><polygon class="cls-49" points="346.98 309.26 339.44 309.79 339.88 315.28 347.4 314.54 346.98 309.26"/><polygon class="cls-60" points="388.6 203.05 389.23 216.66 482.44 285 486.44 278.78 388.6 203.05"/><path class="cls-60" d="M389.14,203c-.21,4.53.31,9.16.09,13.7-31.07,22.78-62.87,45.46-93.94,68.24l-4-6.22Z"/><polygon class="cls-61" points="389.02 198.26 289.05 275.29 291.3 278.69 389.14 202.96 389.02 198.26"/><polygon class="cls-61" points="389.02 198.26 488.56 275.25 486.32 278.64 388.48 202.91 389.02 198.26"/><rect class="cls-62" x="354.01" y="274.62" width="69.9" height="20.75"/><rect class="cls-63" x="357.01" y="276.38" width="64.34" height="17.45"/><text class="cls-64" transform="translate(360.98 291.54) scale(1.07 1)">SCHOOL</text><polygon class="cls-39" points="412.36 394.44 -10 732 -8 503 363 393.85 412.36 394.44"/><polygon class="cls-25" points="249.48 712.64 196.25 712.64 196.25 283.45 249.48 283.45 249.48 603.86 249.48 712.64"/><rect class="cls-21" x="249.62" y="287.87" width="12.13" height="300.6"/><rect class="cls-21" x="187.39" y="289.6" width="8.34" height="300.6"/><polygon class="cls-25" points="575.46 501.81 533.78 522.19 533.78 252.71 574.68 252.71 575.46 501.81"/><rect class="cls-21" x="526.21" y="278.65" width="7.35" height="195.8"/><rect class="cls-21" x="400.18" y="141.56" width="11.48" height="440.16"/><rect class="cls-21" x="575.15" y="283.99" width="6.28" height="188.98"/><polygon class="cls-41" points="396.73 146.74 262.92 408.96 262.92 360.51 372.99 139.33 396.73 146.74"/><path class="cls-41" d="M432.58,157.91,269,476.11q-3.13-.83-6.1-1.68V459.79L419.8,153.93Z"/><path class="cls-30" d="M269,476.11,262.92,488V474.43Q265.89,475.29,269,476.11Z"/><polygon class="cls-41" points="684.63 232.08 583.34 461.25 583.13 428.73 672.75 228.31 684.63 232.08"/><polygon class="cls-41" points="721.54 278.74 721.54 305.85 648.59 456.91 629.97 466.82 721.54 278.74"/><path class="cls-37" d="M525.35,209.34V494a31.36,31.36,0,0,1-17.21,27.64l-4.67,2.45-8.6,4.52-170.72,89.5-13.53,7.09A34.51,34.51,0,0,1,267,615.5a30,30,0,0,1-5-10.61,30.51,30.51,0,0,1-.89-7.35V147.74c0-21.53,22.23-36.75,43.82-30l66.24,20.71,23.75,7.43L418,153.08l12.77,4,30.88,9.65h0l1.06.33h0l1.82.57L500,178.7l2.5.78C516.07,183.74,525.28,195.77,525.35,209.34Z"/><path class="cls-37" d="M718.72,256.45V409a16.85,16.85,0,0,1-9.06,14.82l-2.46,1.31-4.53,2.42-56.91,30.39-18.61,9.94-21.47,11.46c-10.46,5.59-23-.34-25.61-10.88a16.87,16.87,0,0,1-.46-3.94V223.35c0-11.55,11.7-19.71,23.07-16.09l46,14.64,21.26,6.77,11.88,3.78,3.37,1.07h0l.56.18h0l20.91,6.66A17,17,0,0,1,718.72,256.45Z"/><polygon class="cls-65" points="801.91 214.3 801.91 226.35 555.55 -1.24 601.43 -1.24 608.11 5.94 799.32 211.52 801.91 214.3"/><polygon class="cls-66" points="794.24 228.62 524.76 1.02 557.08 1.02 803.45 228.62 794.24 228.62"/><path class="cls-67" d="M803.45,216.57v12.05L557.09,1H603l6.68,7.18c-4.76,2.77-7.45,8.39-5.26,18.85C611.44,60.7,785,209.74,794.24,213.16a15.65,15.65,0,0,0,6.62.63Z"/><polygon class="cls-28" points="534.61 1.02 797.64 228.62 800.17 228.62 545.58 1.02 534.61 1.02"/><rect class="cls-68" x="539.94" y="12.98" width="29.53" height="46.19"/><polygon class="cls-69" points="576.98 19.4 576.98 61.34 573.22 60.25 569.47 59.17 569.47 12.98 576.98 19.4"/><polygon class="cls-70" points="576.98 60.25 547.28 60.25 543.61 59.17 539.94 58.08 569.47 58.08 576.98 60.25"/><path class="cls-71" d="M577,47.63V61.34l-3.76-1.09H547.28l-3.67-1.08h-3.67V32.53c2.56,5,6.28,10,11.67,13.15,7.3,4.24,12.93,5.6,17.86,4.85A19.66,19.66,0,0,0,577,47.63Z"/><path class="cls-72" d="M581.66,89.76c-2.56-7.05-5.36-14-8.35-20.91-.28-.65-3.13-8.6-3.84-8.6H547.28s-28,66.8-22.52,88.07c2.83,11,11,19,22.87,21.72a61.28,61.28,0,0,0,11.52,1.58c7.1.27,14.28-.93,20-4.85,9.1-6.3,11.1-18.56,11.63-28.64,0-.72.07-1.44.09-2.13C591.39,119.92,587.16,104.91,581.66,89.76ZM551.5,162.84a18.54,18.54,0,0,1-13.86-14.25c-.95-4-.43-8.41.3-12.55h0c.18-1,.38-2,.57-3a189,189,0,0,1,5.14-19.92c4.67-15.24,10-30.29,14.37-45.6,0,1.8,1.18,4.1,1.67,5.82q1.59,5.51,3.17,11c2.54,8.8,6.09,17.3,9.09,25.92,3.4,9.77,6.08,19.67,5.73,30.28-.23,6.84-1.19,15.75-7.11,20.18a15.84,15.84,0,0,1-6.69,2.83h0A29.91,29.91,0,0,1,551.5,162.84Z"/><path class="cls-73" d="M563.87,163.52c-.49.2-16.88,6.59-29.26-7.58C522,141.55,552.06,65.78,551.83,72.13s-14,49.92-13.89,63.91h0c-.73,4.14-1.25,8.53-.3,12.55a18.54,18.54,0,0,0,13.86,14.25A29.91,29.91,0,0,0,563.87,163.52Z"/><path class="cls-74" d="M590.73,138.13c-.53,10.08-2.53,22.34-11.63,28.64-5.67,3.92-12.85,5.12-20,4.85,17.27-4.28,23.55-17.54,23.17-33.25-.45-19-23.87-78.12-23.87-78.12h11s-3.07,2.57-3.11,5.11S577.32,88,581,100.7C582.84,107.29,587.8,123,590.73,138.13Z"/><path class="cls-75" d="M570.26,67.48s14.79,37.67,18,53.54-1.2-16.68-5.49-28.2S570.26,67.48,570.26,67.48Z"/><rect class="cls-76" x="616.71" y="76.98" width="25.56" height="34.13"/><polygon class="cls-77" points="648.77 81.72 648.77 112.71 645.52 111.91 642.27 111.11 642.27 76.98 648.77 81.72"/><polygon class="cls-78" points="648.77 111.91 623.07 111.91 619.9 111.11 616.72 110.31 642.27 110.31 648.77 111.91"/><path class="cls-71" d="M648.77,102.58v10.13l-3.25-.8H623.07l-3.17-.8h-3.19V91.42a24.62,24.62,0,0,0,10.11,9.72c6.31,3.14,11.19,4.14,15.45,3.59A18.73,18.73,0,0,0,648.77,102.58Z"/><path class="cls-79" d="M652.82,133.71c-2.21-5.2-4.64-10.35-7.22-15.45-.24-.48-2.71-6.35-3.33-6.35h-19.2S598.85,161.27,603.58,177c2.45,8.14,9.53,14,19.79,16a62.38,62.38,0,0,0,10,1.17c6.14.19,12.35-.69,17.26-3.59,7.88-4.66,9.6-13.71,10.06-21.16,0-.54.06-1.06.08-1.58C661.25,156,657.58,144.91,652.82,133.71Zm-26.1,54c-6.21-1.32-10.51-5.19-12-10.53-.82-3-.38-6.21.26-9.27h0c.15-.76.32-1.51.49-2.24a124.43,124.43,0,0,1,4.45-14.73c4-11.26,8.61-22.37,12.43-33.69,0,1.33,1,3,1.45,4.3.92,2.72,1.83,5.43,2.75,8.14,2.19,6.5,5.27,12.78,7.86,19.15,2.94,7.22,5.26,14.54,5,22.37-.2,5.06-1,11.64-6.15,14.92a15.08,15.08,0,0,1-5.79,2.09h0A30,30,0,0,1,626.72,187.72Z"/><path class="cls-80" d="M637.43,188.22c-.43.15-14.61,4.87-25.33-5.6C601.22,172,627.21,116,627,120.69s-12.11,36.88-12,47.22h0c-.64,3.06-1.08,6.3-.26,9.27,1.48,5.34,5.78,9.21,12,10.53A30,30,0,0,0,637.43,188.22Z"/><path class="cls-81" d="M660.67,169.46c-.46,7.45-2.18,16.5-10.06,21.16-4.91,2.9-11.12,3.78-17.26,3.59,14.94-3.17,20.37-13,20-24.57-.4-14.08-20.66-57.73-20.66-57.73h9.53s-2.66,1.9-2.69,3.77,9.48,16.74,12.64,26.12C653.85,146.67,658.14,158.24,660.67,169.46Z"/><path class="cls-82" d="M643,117.25s12.8,27.83,15.56,39.56-1-12.32-4.75-20.84S643,117.25,643,117.25Z"/><rect class="cls-83" x="719.25" y="165.95" width="17.89" height="21.31"/><polygon class="cls-84" points="741.68 168.91 741.68 188.25 739.41 187.75 737.13 187.25 737.13 165.94 741.68 168.91"/><polygon class="cls-85" points="741.68 187.75 723.7 187.75 721.47 187.25 719.25 186.75 737.13 186.75 741.68 187.75"/><path class="cls-71" d="M741.68,181.93v6.32l-2.27-.5H723.7l-2.23-.5h-2.22V175a16.4,16.4,0,0,0,7.07,6.07c4.42,2,7.83,2.58,10.81,2.24A14.39,14.39,0,0,0,741.68,181.93Z"/><path class="cls-86" d="M744.52,201.36q-2.34-4.87-5.06-9.64c-.17-.3-1.9-4-2.33-4H723.7s-17,30.82-13.64,40.63c1.71,5.08,6.67,8.77,13.84,10a48.61,48.61,0,0,0,7,.73c4.29.12,8.64-.43,12.07-2.24,5.52-2.91,6.73-8.56,7-13.21,0-.33,0-.66,0-1C750.41,215.28,747.84,208.36,744.52,201.36Zm-18.27,33.72c-4.35-.82-7.35-3.24-8.39-6.58a11,11,0,0,1,.18-5.78h0c.11-.48.23-.95.34-1.41a71.57,71.57,0,0,1,3.12-9.19c2.83-7,6-14,8.7-21a9.28,9.28,0,0,0,1,2.69l1.92,5.08c1.54,4.06,3.69,8,5.5,12,2.06,4.5,3.69,9.07,3.48,14-.14,3.15-.73,7.26-4.31,9.31a11.54,11.54,0,0,1-4,1.3h0A23.43,23.43,0,0,1,726.25,235.08Z"/><path class="cls-87" d="M733.74,235.39c-.3.1-10.22,3-17.72-3.49s10.57-41.6,10.43-38.67-8.47,23-8.41,29.49h0a11,11,0,0,0-.18,5.78c1,3.34,4,5.76,8.39,6.58A23.43,23.43,0,0,0,733.74,235.39Z"/><path class="cls-88" d="M750,223.68c-.32,4.65-1.53,10.3-7,13.21-3.43,1.81-7.78,2.36-12.07,2.24,10.45-2,14.26-8.09,14-15.34-.28-8.78-14.46-36-14.46-36h6.67s-1.86,1.19-1.88,2.36,6.64,10.45,8.84,16.3A157.33,157.33,0,0,1,750,223.68Z"/><path class="cls-89" d="M737.61,191.08s9,17.38,10.89,24.71-.72-7.7-3.32-13A82.84,82.84,0,0,0,737.61,191.08Z"/><polygon class="cls-67" points="1040.14 223.96 1040.14 236.01 1286.5 8.42 1240.62 8.42 1233.94 15.6 1042.73 221.18 1040.14 223.96"/><polygon class="cls-90" points="1049.35 237.97 1318.83 10.38 1286.5 10.38 1040.14 237.97 1049.35 237.97"/><path class="cls-28" d="M1040.14,225.92V238L1286.5,10.38h-45.88l-6.68,7.18c4.75,2.76,7.45,8.38,5.25,18.85-7,33.65-180.63,182.68-189.84,186.1a15.49,15.49,0,0,1-6.62.63Z"/><polygon class="cls-28" points="1308.98 10.38 1045.94 237.97 1043.42 237.97 1298.01 10.38 1308.98 10.38"/><rect class="cls-91" x="1274.12" y="22.33" width="29.53" height="46.19"/><polygon class="cls-92" points="1266.61 28.75 1266.61 70.69 1270.37 69.61 1274.12 68.52 1274.12 22.33 1266.61 28.75"/><polygon class="cls-93" points="1266.61 69.61 1296.3 69.61 1299.97 68.52 1303.65 67.43 1274.12 67.43 1266.61 69.61"/><path class="cls-71" d="M1266.61,57V70.69l3.76-1.09h25.93l3.67-1.08h3.68V41.88c-2.56,5-6.29,10-11.67,13.15-7.3,4.25-12.94,5.6-17.86,4.85A19.5,19.5,0,0,1,1266.61,57Z"/><path class="cls-94" d="M1252.77,145.35q0,1.05.09,2.13c.53,10.08,2.52,22.34,11.63,28.64,5.67,3.92,12.84,5.12,19.94,4.86a62.1,62.1,0,0,0,11.53-1.59c11.85-2.71,20-10.7,22.87-21.72,5.46-21.27-22.53-88.07-22.53-88.07h-22.18c-.71,0-3.57,8-3.85,8.6-3,6.9-5.78,13.86-8.34,20.91C1256.43,114.26,1252.19,129.27,1252.77,145.35Zm26.94,27.52h0A15.89,15.89,0,0,1,1273,170c-5.91-4.43-6.88-13.34-7.1-20.18-.35-10.61,2.33-20.51,5.73-30.28,3-8.61,6.55-17.12,9.08-25.92q1.59-5.5,3.17-11c.5-1.73,1.68-4,1.68-5.83,4.41,15.31,9.69,30.36,14.37,45.6a191.52,191.52,0,0,1,5.14,19.92c.19,1,.39,2,.57,3h0c.73,4.14,1.24,8.52.29,12.54a18.5,18.5,0,0,1-13.85,14.25A29.79,29.79,0,0,1,1279.71,172.87Z"/><path class="cls-95" d="M1279.71,172.87c.5.2,16.89,6.59,29.27-7.58,12.58-14.39-17.46-90.16-17.23-83.81s14,49.92,13.9,63.91h0c.73,4.14,1.24,8.52.29,12.54a18.5,18.5,0,0,1-13.85,14.25A29.79,29.79,0,0,1,1279.71,172.87Z"/><path class="cls-96" d="M1252.86,147.48c.53,10.08,2.52,22.34,11.63,28.64,5.67,3.92,12.84,5.12,19.94,4.86-17.27-4.29-23.54-17.55-23.17-33.25.46-19,23.87-78.13,23.87-78.13h-11s3.07,2.57,3.1,5.11-11,22.65-14.59,35.34C1260.74,116.64,1255.79,132.3,1252.86,147.48Z"/><path class="cls-97" d="M1273.32,76.83s-14.79,37.67-18,53.54,1.19-16.68,5.49-28.2S1273.32,76.83,1273.32,76.83Z"/><rect class="cls-98" x="1152.57" y="134.65" width="20.52" height="26.23"/><polygon class="cls-99" points="1147.35 138.29 1147.35 162.11 1149.96 161.49 1152.57 160.88 1152.57 134.65 1147.35 138.29"/><polygon class="cls-100" points="1147.35 161.49 1167.98 161.49 1170.53 160.88 1173.09 160.26 1152.57 160.26 1147.35 161.49"/><path class="cls-71" d="M1147.35,154.32v7.79l2.61-.62h18l2.55-.61h2.56V145.75a19.45,19.45,0,0,1-8.11,7.47c-5.08,2.41-9,3.18-12.41,2.75A15.31,15.31,0,0,1,1147.35,154.32Z"/><path class="cls-101" d="M1137.73,204.51c0,.39,0,.8.06,1.21.37,5.72,1.76,12.68,8.08,16.26,4,2.23,8.93,2.91,13.86,2.76a51.24,51.24,0,0,0,8-.9c8.24-1.54,13.93-6.08,15.89-12.33,3.8-12.08-15.65-50-15.65-50h-15.41c-.5,0-2.48,4.52-2.68,4.88-2.07,3.92-4,7.88-5.8,11.88C1140.27,186.85,1137.33,195.38,1137.73,204.51Zm18.72,15.63h0a12.43,12.43,0,0,1-4.65-1.61c-4.11-2.52-4.78-7.57-4.94-11.46-.24-6,1.62-11.65,4-17.2,2.08-4.89,4.56-9.72,6.32-14.71q1.1-3.14,2.2-6.25c.34-1,1.16-2.29,1.16-3.31,3.07,8.69,6.74,17.24,10,25.89a93.29,93.29,0,0,1,3.57,11.32c.13.56.27,1.14.4,1.72h0a14.74,14.74,0,0,1,.2,7.13c-1.19,4.1-4.64,7.08-9.63,8.09A25.23,25.23,0,0,1,1156.45,220.14Z"/><path class="cls-102" d="M1156.45,220.14c.35.11,11.74,3.74,20.34-4.31s-12.13-51.2-12-47.59,9.72,28.35,9.66,36.29h0a14.74,14.74,0,0,1,.2,7.13c-1.19,4.1-4.64,7.08-9.63,8.09A25.23,25.23,0,0,1,1156.45,220.14Z"/><path class="cls-103" d="M1137.79,205.72c.37,5.72,1.76,12.68,8.08,16.26,4,2.23,8.93,2.91,13.86,2.76-12-2.43-16.36-10-16.1-18.88.32-10.82,16.59-44.37,16.59-44.37h-7.65s2.13,1.46,2.15,2.9-7.61,12.86-10.14,20.07C1143.27,188.21,1139.83,197.1,1137.79,205.72Z"/><path class="cls-104" d="M1152,165.6S1141.74,187,1139.52,196s.83-9.47,3.82-16A102.27,102.27,0,0,1,1152,165.6Z"/><rect class="cls-105" x="1106.45" y="175.3" width="17.89" height="21.31"/><polygon class="cls-106" points="1101.91 178.26 1101.91 197.6 1104.18 197.1 1106.45 196.6 1106.45 175.3 1101.91 178.26"/><polygon class="cls-107" points="1101.91 197.1 1119.89 197.1 1122.11 196.6 1124.34 196.1 1106.45 196.1 1101.91 197.1"/><path class="cls-71" d="M1101.91,191.28v6.33l2.27-.51h15.71l2.22-.5h2.23V184.31a16.46,16.46,0,0,1-7.07,6.07c-4.42,2-7.83,2.58-10.82,2.24A14.08,14.08,0,0,1,1101.91,191.28Z"/><path class="cls-108" d="M1093.52,232.05c0,.32,0,.65.06,1,.32,4.65,1.53,10.31,7,13.21,3.44,1.81,7.78,2.36,12.08,2.24a47.09,47.09,0,0,0,7-.73c7.18-1.25,12.14-4.94,13.85-10,3.31-9.81-13.64-40.63-13.64-40.63h-13.44c-.43,0-2.16,3.67-2.33,4-1.8,3.18-3.5,6.4-5,9.65C1095.74,217.71,1093.17,224.63,1093.52,232.05Zm16.32,12.7h0a11.26,11.26,0,0,1-4.06-1.3c-3.58-2.05-4.16-6.15-4.3-9.31-.21-4.89,1.41-9.46,3.47-14,1.82-4,4-7.9,5.5-12l1.92-5.08a9.36,9.36,0,0,0,1-2.68c2.67,7.06,5.87,14,8.7,21a71.19,71.19,0,0,1,3.12,9.2c.11.45.23.92.34,1.4h0a11.28,11.28,0,0,1,.18,5.79c-1,3.33-4,5.75-8.39,6.57A23.79,23.79,0,0,1,1109.84,244.75Z"/><path class="cls-109" d="M1109.84,244.75c.3.09,10.23,3,17.73-3.5s-10.57-41.59-10.44-38.67,8.48,23,8.42,29.49h0a11.28,11.28,0,0,1,.18,5.79c-1,3.33-4,5.75-8.39,6.57A23.79,23.79,0,0,1,1109.84,244.75Z"/><path class="cls-110" d="M1093.58,233c.32,4.65,1.53,10.31,7,13.21,3.44,1.81,7.78,2.36,12.08,2.24-10.46-2-14.26-8.09-14-15.34.28-8.78,14.45-36,14.45-36h-6.67s1.86,1.19,1.89,2.36-6.64,10.45-8.85,16.3A158.51,158.51,0,0,0,1093.58,233Z"/><path class="cls-111" d="M1106,200.44s-9,17.38-10.88,24.7.72-7.7,3.32-13A82.52,82.52,0,0,1,1106,200.44Z"/><rect class="cls-1" x="111.43" y="12.68" width="1693.6" height="937.11"/><rect class="cls-1" x="111.43" y="12.68" width="1693.6" height="937.11"/><rect class="cls-1" x="111.43" y="12.68" width="1693.6" height="937.11"/><polygon class="cls-1" points="1805.04 938.28 121 946.28 121 9.17 1805.04 1.17 1805.04 938.28"/><path class="cls-20" d="M188.63,394.46,186,170s15-51-69-72L-1,57-5,395Z"/><path class="cls-37" d="M186.3,167V635.6c0,18.94-7.53,36.38-19.65,45.55l-5.34,4-9.82,7.44L-16,804-6,54,113.53,96.55h0l1.21.55h0l45.35,20.45C175.75,124.61,186.3,144.54,186.3,167Z"/><polygon class="cls-42" points="762.54 362.81 765.48 371.86 -7 661 -5 617 205.75 550.36 544.21 436.35 762.54 362.81"/><path class="cls-43" d="M762.54,362.81l2.94,9.05L-3,660l-2-43c14.42-.9,123.06-19.28,137.17-23.28,55.69-15.79,73.58-43.36,73.58-43.36s66.69-6.06,152.86-36.51,140.87-47.53,162.25-58.7,23.35-18.8,23.35-18.8,26.47-.85,120.36-33S762.54,362.81,762.54,362.81Z"/><rect class="cls-44" x="550.76" y="414.84" width="8.69" height="53.64" transform="translate(1110.2 883.32) rotate(-180)"/><rect class="cls-44" x="217.46" y="529.99" width="10.68" height="64.96" transform="translate(-25.07 10.59) rotate(-2.58)"/><path class="cls-21" d="M195.74,590.19l0,52s2,32.17-21.1,48.16L-16,804V777L168.65,671.07s18.18-12.83,18.53-44.83l.21-36Z"/><path class="cls-25" d="M174.67,690.36,50.72,764.23S140,778,142,776s92-53,92-59S174.67,690.36,174.67,690.36Z"/></g></g></g></svg>