<svg id="Layer_1" data-name="Layer 1" xmlns="http://www.w3.org/2000/svg" xmlns:xlink="http://www.w3.org/1999/xlink" viewBox="0 0 1920 900"><defs><style>.cls-1{fill:none;}.cls-2{clip-path:url(#clip-path);}.cls-3{fill:#8c5b48;}.cls-4{opacity:0.41;}.cls-5{fill:#666;}.cls-6{fill:#1a1a1a;}.cls-7{clip-path:url(#clip-path-2);}.cls-8{fill:#f8e2b9;}.cls-9{fill:url(#linear-gradient);}.cls-10{fill:#ebd4ab;}.cls-11{fill:#cdaa6a;}.cls-12{fill:#b88b7d;}.cls-13{fill:#a56032;}.cls-14{fill:#4f3825;}.cls-15{fill:#cf9b72;}.cls-16{fill:#f5eeee;}.cls-17{fill:#a3c4cf;}.cls-18{fill:#689aab;}.cls-168,.cls-19{fill:#fff9f7;}.cls-101,.cls-105,.cls-112,.cls-113,.cls-115,.cls-116,.cls-119,.cls-120,.cls-121,.cls-125,.cls-128,.cls-132,.cls-137,.cls-146,.cls-150,.cls-153,.cls-159,.cls-160,.cls-165,.cls-167,.cls-175,.cls-180,.cls-184,.cls-188,.cls-19,.cls-192,.cls-20,.cls-34,.cls-41,.cls-44,.cls-47,.cls-48,.cls-49,.cls-58,.cls-66,.cls-67,.cls-71,.cls-72,.cls-76,.cls-77,.cls-81,.cls-82,.cls-86,.cls-87,.cls-97{opacity:0.18;}.cls-20{fill:#c7dce0;}.cls-21{fill:#9ca5b5;}.cls-22{fill:#6f84a6;}.cls-23{fill:#cfb5ac;}.cls-24{fill:#bd968a;}.cls-25{fill:#bdcfac;}.cls-26{fill:#97ad81;}.cls-27{fill:#fae4b4;}.cls-28{fill:#e3c47f;}.cls-29{fill:#b8cfc3;}.cls-30{fill:#e6cbc3;}.cls-31{fill:#bfaec4;}.cls-32{fill:#b8cbcf;}.cls-33{fill:#fff;}.cls-100,.cls-104,.cls-118,.cls-164,.cls-179,.cls-183,.cls-187,.cls-191,.cls-33,.cls-96{opacity:0.16;}.cls-34{fill:#5d818a;}.cls-35{fill:#9fc7cf;}.cls-36{fill:#ebb684;}.cls-37{fill:#ded7d7;}.cls-38{fill:#bf685e;}.cls-39{fill:#a63b2e;}.cls-40{fill:#bd7964;}.cls-187,.cls-41{fill:#edd4cb;}.cls-42{fill:#9e6959;}.cls-42,.cls-50{opacity:0.2;}.cls-43{fill:#93b398;}.cls-44{fill:#cbedde;}.cls-45{fill:#668a7b;}.cls-108,.cls-45,.cls-52,.cls-93{opacity:0.1;}.cls-46{fill:#4b778a;}.cls-47{fill:#cbe3ed;}.cls-48{fill:#588fa6;}.cls-49{fill:#cbe8ed;}.cls-50{fill:#598a9e;}.cls-51{fill:#5e5191;}.cls-52{fill:#dde4f2;}.cls-53{fill:#161a21;}.cls-109,.cls-126,.cls-129,.cls-133,.cls-141,.cls-143,.cls-147,.cls-151,.cls-162,.cls-176,.cls-53,.cls-55,.cls-59,.cls-90,.cls-94{opacity:0.12;}.cls-54{fill:#85391b;}.cls-55{fill:#36170d;}.cls-56{fill:#d6a6a3;}.cls-57{fill:#e0cac8;}.cls-58{fill:#edcccb;}.cls-59{fill:#a14444;}.cls-60{fill:#cfc2d1;}.cls-61{fill:#d0d1c2;}.cls-62{fill:#d1bab6;}.cls-63{fill:#eba58b;}.cls-64{fill:#f5cabb;}.cls-65{fill:#d1896f;}.cls-66{fill:#edded8;}.cls-67{fill:#c27e65;}.cls-68{fill:#ebcc8b;}.cls-69{fill:#fae7be;}.cls-70{fill:#d9ac4e;}.cls-71{fill:#ede6d8;}.cls-72{fill:#c2a165;}.cls-73{fill:#a8d19d;}.cls-74{fill:#cee6c7;}.cls-75{fill:#84b576;}.cls-76{fill:#ddedd8;}.cls-77{fill:#799970;}.cls-78{fill:#9dd1c9;}.cls-79{fill:#bee3dd;}.cls-80{fill:#76b5ab;}.cls-81{fill:#d8edea;}.cls-82{fill:#698f8a;}.cls-83{fill:#ebc594;}.cls-84{fill:#ebd1b0;}.cls-85{fill:#deb076;}.cls-86{fill:#ede4d8;}.cls-87{fill:#ad9a7f;}.cls-88{fill:#a49dad;}.cls-89{fill:#c7c1cf;}.cls-90{fill:#58476b;}.cls-91{fill:#e3b198;}.cls-92{fill:#edcbb9;}.cls-93{fill:#f2e8e3;}.cls-94{fill:#917261;}.cls-95{fill:#93b3a2;}.cls-96{fill:#cbeaed;}.cls-97{fill:#527a65;}.cls-98{fill:#d9b6b4;}.cls-99{fill:#d69b98;}.cls-100,.cls-128{fill:#edd0cb;}.cls-101{fill:#bd7f7f;}.cls-102{fill:#d9d8b6;}.cls-103{fill:#bdbb92;}.cls-104{fill:#ededdf;}.cls-105{fill:#b3ae70;}.cls-106{fill:#507d6b;}.cls-107{fill:#bababa;}.cls-108{fill:#d6d6d6;}.cls-109{fill:#454545;}.cls-110{fill:#851b1b;}.cls-111{fill:#dbba7b;}.cls-112{fill:#ede2cb;}.cls-113{fill:#a68d58;}.cls-114{fill:#edc6b2;}.cls-115{fill:#edd6cb;}.cls-116{fill:#a67258;}.cls-117{fill:#debe95;}.cls-118{fill:#f7ecdc;}.cls-119{fill:#c7a173;}.cls-120{fill:#cbedd8;}.cls-121{fill:#84a390;}.cls-122{fill:#bed4c8;}.cls-123{fill:#ebe4dd;}.cls-124{fill:#a4bdb0;}.cls-125{fill:#cbeddc;}.cls-126{fill:#678273;}.cls-127{fill:#c4a8a3;}.cls-129{fill:#826b67;}.cls-130{fill:#f2e3c9;}.cls-131{fill:#f2d39d;}.cls-132,.cls-164{fill:#ededed;}.cls-133{fill:#ab997b;}.cls-134{fill:#d6938f;}.cls-135{fill:#d1bcba;}.cls-136{fill:#6fb0a6;}.cls-137{fill:#52777a;}.cls-138{fill:#deba8c;}.cls-139{fill:#c7a093;}.cls-140{fill:#7b9e95;}.cls-141{fill:#85811f;}.cls-142{fill:#f5c0ae;}.cls-143{fill:#85381f;}.cls-144{fill:#ebde8b;}.cls-145{fill:#f0e7af;}.cls-146{fill:#ede8cb;}.cls-147{fill:#85741f;}.cls-148{fill:#bea9c4;}.cls-149{fill:#d2c5d6;}.cls-150{fill:#e6cbed;}.cls-151{fill:#774685;}.cls-152{fill:#80a6ad;}.cls-153{fill:#839c69;}.cls-154{fill:#228c94;}.cls-155{fill:#68aeb3;}.cls-156{fill:#74b3b8;}.cls-157{fill:#95b4ba;}.cls-158{fill:#cc9174;}.cls-159{fill:#eddfd8;}.cls-160{fill:#bf9d8c;}.cls-161{fill:#b0abb8;}.cls-162{fill:#786091;}.cls-163{fill:#efe7f0;}.cls-165{fill:#ca9dd4;}.cls-166{fill:#ebd5c1;}.cls-169{fill:#cfa37e;}.cls-170{fill:#c5dedd;}.cls-171{fill:#7bb5b1;}.cls-172{fill:#a8bdbb;}.cls-173{fill:#94af90;}.cls-174{fill:#cbd9b2;}.cls-175{fill:#d0edcb;}.cls-176{fill:#2e851f;}.cls-177{fill:#e6cda0;}.cls-178{fill:#93aeb3;}.cls-179{fill:#cbe6ed;}.cls-180{fill:#52727a;}.cls-181{fill:#777594;}.cls-182{fill:#908fab;}.cls-183{fill:#cccbed;}.cls-184{fill:#53527a;}.cls-185{fill:#ebb19b;}.cls-186{fill:#edc1af;}.cls-188{fill:#b88d7c;}.cls-189{fill:#ebce9b;}.cls-190{fill:#ebd6b0;}.cls-191{fill:#ede0cb;}.cls-192{fill:#b8a27c;}.cls-193{fill:#abbfc4;}.cls-194{fill:#ebaa92;}</style><clipPath id="clip-path"><rect class="cls-1" x="-1940" width="1920" height="900"/></clipPath><clipPath id="clip-path-2"><rect class="cls-1" width="1920" height="900"/></clipPath><linearGradient id="linear-gradient" x1="855.27" y1="955.59" x2="855.97" y2="601.4" gradientUnits="userSpaceOnUse"><stop offset="0" stop-color="#edc39c"/><stop offset="0.5" stop-color="#ebc29c"/><stop offset="0.7" stop-color="#e4c09c"/><stop offset="0.85" stop-color="#d8bc9c"/><stop offset="0.98" stop-color="#c6b69b"/><stop offset="1" stop-color="#c2b59b"/></linearGradient></defs><g class="cls-2"><rect class="cls-3" x="-2168.31" y="548.77" width="2175" height="8.12"/><g class="cls-4"><path class="cls-5" d="M-506.93,514.47h10.46v-4.68a2.82,2.82,0,0,1-1.51-2.47,2.94,2.94,0,0,1,3-2.86,2.94,2.94,0,0,1,3,2.86,2.82,2.82,0,0,1-1.51,2.47v4.68h87.79v-4.68a2.82,2.82,0,0,1-1.51-2.47,2.94,2.94,0,0,1,3-2.86,2.94,2.94,0,0,1,3,2.86,2.82,2.82,0,0,1-1.51,2.47v4.68h87.79v-4.68a2.82,2.82,0,0,1-1.51-2.47,2.94,2.94,0,0,1,3-2.86,2.94,2.94,0,0,1,3,2.86,2.82,2.82,0,0,1-1.51,2.47v4.68H-224v-4.68a2.82,2.82,0,0,1-1.51-2.47,2.94,2.94,0,0,1,3-2.86,2.94,2.94,0,0,1,3,2.86,2.82,2.82,0,0,1-1.51,2.47v4.68h87.79v-4.68a2.82,2.82,0,0,1-1.51-2.47,2.94,2.94,0,0,1,3-2.86,2.94,2.94,0,0,1,3,2.86,2.82,2.82,0,0,1-1.51,2.47v4.68h87.79v-4.68a2.82,2.82,0,0,1-1.51-2.47,2.94,2.94,0,0,1,3-2.86,2.94,2.94,0,0,1,3,2.86,2.82,2.82,0,0,1-1.51,2.47v4.68H48.45v-4.68a2.82,2.82,0,0,1-1.51-2.47,3,3,0,0,1,6.05,0,2.82,2.82,0,0,1-1.51,2.47v4.68h59v4.29h-59v18.6h-3v-18.6H-39.34v18.6h-3v-18.6h-87.79v18.6h-3v-18.6H-221v18.6h-3v-18.6H-311.8v18.6h-3v-18.6h-87.79v18.6h-3v-18.6h-87.79v18.6h-3v-18.6h-10.46Z"/><path class="cls-6" d="M46.94,514.47h1.51v-4.68a2.82,2.82,0,0,1-1.51-2.47,2.86,2.86,0,0,1,1.78-2.61,2.76,2.76,0,0,0-.27,1.18,3,3,0,0,0,3,2.86,3.19,3.19,0,0,0,1.24-.25A3,3,0,0,1,50,510.18a3,3,0,0,1-.6-.06v27.24h-.91v-18.6H-39.34v-1.43H46.94Z"/></g></g><g class="cls-7"><path class="cls-8" d="M-22.94,620.38c-2.81,89.18-5.69,179.29,5.79,267.73H2114c-2.4-70.51-2.59-141.18-5.36-211.68L1869.46,491.24H167.94L-21.88,581.65Q-22.33,601-22.94,620.38Z"/><path class="cls-9" d="M2095.29,830.17c-1.06-91.78-6.65-183.39-11.15-275l-75.92-50.42H24.42l-351.6,143.64L-386.63,899l2484,2.64Q2096.06,865.92,2095.29,830.17Z"/><path class="cls-10" d="M-50.84,819.73H2111c0-.76,0-1.52-.07-2.28H-50.87Z"/><path class="cls-10" d="M-63.08,724.43H2029.37l-3.61-1.78L-63,722.16Z"/><path class="cls-10" d="M-41.77,647.68H2050.68l-3.61-1.78-2088.75-.49Z"/><path class="cls-10" d="M-21.55,566.59H1945.73c-1.29-6.88-1964.26-.93-1967.21-3.31C-21.5,564.38-21.53,565.49-21.55,566.59Z"/><path class="cls-10" d="M252,955.19,621,499.11l-4.24-2.18-375.6,458.2Q246.53,955.18,252,955.19Z"/><path class="cls-10" d="M-119.89,912.85,340.82,510.13l-3.71-2.7-467.66,404C-127,911.9-123.44,912.39-119.89,912.85Z"/><path class="cls-10" d="M625.32,948.53,852.45,479.87,848.2,479,617.1,948.6Z"/><path class="cls-10" d="M1016.48,946.46l26.32-465.19-3.84,1.16L1010,946.48Z"/><path class="cls-10" d="M1409.23,945.66l-156.12-463-3.1,2.88,152.11,460.15Z"/><path class="cls-10" d="M1774.18,983.29,1452.71,509.41l-3.7,3.1,312.46,468Z"/><path class="cls-10" d="M2068.46,900.72l-407.94-398.1-2.75,3.76L2065.6,909.9Q2067,905.31,2068.46,900.72Z"/><polygon class="cls-11" points="-17.8 518.07 1863.64 514.56 1863.66 479.52 -17.8 483.04 -17.8 518.07"/><polygon class="cls-12" points="1867.35 77.82 -1.94 78.8 -1.94 59.86 1867.62 57.74 1867.35 77.82"/><rect class="cls-13" x="-23.72" y="-358.33" width="1992.85" height="938.66"/><rect class="cls-14" x="12.47" y="-326.04" width="1917.14" height="881.36"/><rect class="cls-15" x="12.09" y="549.21" width="1917.52" height="6.77"/><rect class="cls-13" x="12.15" y="331.98" width="1315.28" height="21.06"/><rect class="cls-15" x="12.15" y="331.98" width="1315.28" height="6.77"/><rect class="cls-13" x="1328.76" y="277" width="604.03" height="21.06"/><rect class="cls-15" x="1326.11" y="277" width="604.03" height="6.77"/><rect class="cls-13" x="1305.04" y="115.77" width="33.4" height="433.67"/><rect class="cls-13" x="850.61" y="-336.02" width="33.4" height="440.71"/><rect class="cls-13" x="337.78" y="-332.36" width="33.4" height="440.71"/><rect class="cls-13" x="899.83" y="340.15" width="33.4" height="209.28"/><polygon class="cls-16" points="1892.26 276.66 1929.45 270.88 1859.53 67.09 1822.34 72.87 1892.26 276.66"/><polygon class="cls-17" points="1870.36 212.27 1907.55 206.49 1882.73 134.15 1845.53 139.92 1870.36 212.27"/><polygon class="cls-18" points="1843.32 133.48 1880.52 127.7 1882.73 134.15 1845.53 139.92 1843.32 133.48"/><polygon class="cls-18" points="1869.42 209.55 1906.62 203.78 1908.83 210.21 1871.63 215.99 1869.42 209.55"/><polygon class="cls-19" points="1919.9 272.36 1926.39 271.35 1856.47 67.57 1849.98 68.58 1919.9 272.36"/><polygon class="cls-20" points="1895.33 276.18 1905.55 274.59 1835.63 70.81 1825.41 72.39 1895.33 276.18"/><polygon class="cls-16" points="1850.08 276.66 1887.28 270.88 1817.35 67.09 1780.16 72.87 1850.08 276.66"/><polygon class="cls-21" points="1828.18 212.26 1865.37 206.49 1840.55 134.14 1803.36 139.92 1828.18 212.26"/><polygon class="cls-22" points="1801.15 133.48 1838.34 127.7 1840.55 134.14 1803.36 139.92 1801.15 133.48"/><polygon class="cls-22" points="1827.25 209.55 1864.44 203.77 1866.65 210.21 1829.46 215.99 1827.25 209.55"/><polygon class="cls-19" points="1877.72 272.36 1884.21 271.35 1814.29 67.57 1807.8 68.58 1877.72 272.36"/><polygon class="cls-20" points="1853.15 276.17 1863.37 274.59 1793.45 70.81 1783.23 72.39 1853.15 276.17"/><polygon class="cls-16" points="1808.16 276.66 1845.03 270.93 1775.11 67.14 1738.24 72.87 1808.16 276.66"/><polygon class="cls-23" points="1786.25 212.27 1823.12 206.54 1798.3 134.19 1761.43 139.92 1786.25 212.27"/><polygon class="cls-24" points="1759.22 133.48 1796.09 127.75 1798.3 134.19 1761.43 139.92 1759.22 133.48"/><polygon class="cls-24" points="1785.32 209.55 1822.19 203.82 1824.4 210.26 1787.53 215.99 1785.32 209.55"/><polygon class="cls-19" points="1835.56 272.4 1841.99 271.4 1772.07 67.61 1765.64 68.61 1835.56 272.4"/><polygon class="cls-20" points="1811.2 276.18 1821.33 274.61 1751.41 70.83 1741.28 72.4 1811.2 276.18"/><polygon class="cls-16" points="1765.75 276.66 1802.62 270.93 1732.7 67.14 1695.83 72.87 1765.75 276.66"/><polygon class="cls-25" points="1743.84 212.27 1780.71 206.54 1755.89 134.19 1719.01 139.92 1743.84 212.27"/><polygon class="cls-26" points="1716.8 133.48 1753.68 127.75 1755.89 134.19 1719.01 139.92 1716.8 133.48"/><polygon class="cls-26" points="1742.9 209.55 1779.78 203.82 1781.98 210.26 1745.11 215.99 1742.9 209.55"/><polygon class="cls-19" points="1793.14 272.39 1799.57 271.4 1729.65 67.61 1723.22 68.61 1793.14 272.39"/><polygon class="cls-20" points="1768.78 276.18 1778.91 274.61 1708.99 70.82 1698.87 72.4 1768.78 276.18"/><polygon class="cls-16" points="1723.78 276.66 1760.65 270.93 1690.73 67.14 1653.86 72.87 1723.78 276.66"/><polygon class="cls-27" points="1701.87 212.27 1738.74 206.54 1713.92 134.19 1677.05 139.92 1701.87 212.27"/><polygon class="cls-28" points="1674.84 133.48 1711.71 127.75 1713.92 134.19 1677.05 139.92 1674.84 133.48"/><polygon class="cls-28" points="1700.94 209.55 1737.81 203.82 1740.02 210.26 1703.15 215.99 1700.94 209.55"/><polygon class="cls-19" points="1751.17 272.4 1757.61 271.4 1687.69 67.61 1681.26 68.61 1751.17 272.4"/><polygon class="cls-20" points="1726.83 276.18 1736.95 274.61 1667.03 70.82 1656.91 72.4 1726.83 276.18"/><rect class="cls-16" x="1259.83" y="152.02" width="44.07" height="179.61"/><rect class="cls-29" x="1260.04" y="168.49" width="44.07" height="69.48"/><rect class="cls-19" x="1292.58" y="152.02" width="7.69" height="179.61"/><rect class="cls-20" x="1263.46" y="152.02" width="12.1" height="179.61"/><rect class="cls-16" x="1212.82" y="152.02" width="44.07" height="179.61"/><rect class="cls-29" x="1213.02" y="168.49" width="44.07" height="69.48"/><rect class="cls-19" x="1245.56" y="152.02" width="7.69" height="179.61"/><rect class="cls-20" x="1216.45" y="152.02" width="12.1" height="179.61"/><rect class="cls-16" x="1166.23" y="152.02" width="44.07" height="179.61"/><rect class="cls-30" x="1166.43" y="168.49" width="44.07" height="69.48"/><rect class="cls-19" x="1198.98" y="152.02" width="7.69" height="179.61"/><rect class="cls-20" x="1169.86" y="152.02" width="12.11" height="179.61"/><rect class="cls-16" x="1119.63" y="152.02" width="44.07" height="179.61"/><rect class="cls-31" x="1119.84" y="168.49" width="44.07" height="69.48"/><text/><rect class="cls-20" x="1123.27" y="152.02" width="12.1" height="179.61"/><rect class="cls-32" x="1083.05" y="158.83" width="33.16" height="172.8"/><rect class="cls-33" x="1107.39" y="158.83" width="5.78" height="172.8"/><rect class="cls-34" x="1085.49" y="158.83" width="9.11" height="172.8"/><rect class="cls-32" x="1046.5" y="158.83" width="33.16" height="172.8"/><rect class="cls-33" x="1070.85" y="158.83" width="5.78" height="172.8"/><rect class="cls-34" x="1048.94" y="158.83" width="9.11" height="172.8"/><rect class="cls-35" x="372.83" y="-50.49" width="46.16" height="147.11"/><rect class="cls-36" x="372.83" y="64.66" width="46.16" height="4.19"/><rect class="cls-36" x="372.83" y="78.16" width="46.16" height="4.19"/><rect class="cls-33" x="406.72" y="-50.49" width="8.05" height="147.11"/><rect class="cls-34" x="376.22" y="-50.49" width="12.68" height="147.11"/><rect class="cls-35" x="422.38" y="-50.49" width="46.16" height="147.11"/><rect class="cls-36" x="422.38" y="64.66" width="46.16" height="4.19"/><rect class="cls-36" x="422.38" y="78.16" width="46.16" height="4.19"/><rect class="cls-33" x="456.26" y="-50.49" width="8.05" height="147.11"/><rect class="cls-34" x="425.77" y="-50.49" width="12.69" height="147.11"/><rect class="cls-37" x="953.44" y="437.33" width="259.07" height="29.38"/><rect class="cls-38" x="1136.14" y="437.33" width="91.98" height="29.38"/><rect class="cls-39" x="1127.95" y="437.33" width="8.18" height="29.38"/><rect class="cls-19" x="953.44" y="439.89" width="274.67" height="5.12"/><rect class="cls-20" x="953.73" y="456.36" width="274.38" height="8.06"/><rect class="cls-40" x="943.92" y="525.96" width="317.56" height="23.6"/><rect class="cls-36" x="943.92" y="525.96" width="37.7" height="23.6"/><rect class="cls-36" x="1228.42" y="525.96" width="10.15" height="23.6"/><rect class="cls-36" x="1204.5" y="525.96" width="10.15" height="23.6"/><rect class="cls-41" x="943.92" y="527.79" width="317.56" height="4.12"/><rect class="cls-42" x="943.92" y="541.01" width="317.56" height="6.48"/><rect class="cls-43" x="967.84" y="502.37" width="317.56" height="23.59"/><rect class="cls-36" x="967.84" y="502.37" width="37.7" height="23.59"/><rect class="cls-36" x="1252.34" y="502.37" width="10.15" height="23.59"/><rect class="cls-36" x="1228.42" y="502.37" width="10.15" height="23.59"/><rect class="cls-44" x="967.84" y="504.2" width="317.56" height="4.12"/><rect class="cls-45" x="967.84" y="517.42" width="317.56" height="6.48"/><rect class="cls-46" x="943.92" y="465.13" width="294.77" height="37.27"/><rect class="cls-47" x="943.92" y="468.54" width="294.77" height="6.5"/><rect class="cls-48" x="943.92" y="489.42" width="294.77" height="10.24"/><rect class="cls-46" x="806.26" y="-56.46" width="43.4" height="153.07"/><rect class="cls-36" x="806.26" y="79.17" width="43.4" height="11.14"/><rect class="cls-49" x="838.71" y="-56.46" width="7.56" height="153.07"/><rect class="cls-50" x="810.05" y="-56.46" width="11.92" height="153.07"/><rect class="cls-36" x="823.9" y="0.81" width="8.1" height="39.41"/><rect class="cls-46" x="760.03" y="-56.46" width="43.39" height="153.07"/><rect class="cls-36" x="760.03" y="79.17" width="43.39" height="11.14"/><rect class="cls-49" x="792.48" y="-56.46" width="7.56" height="153.07"/><rect class="cls-50" x="763.81" y="-56.46" width="11.92" height="153.07"/><rect class="cls-36" x="777.67" y="0.81" width="8.1" height="39.41"/><rect class="cls-51" x="626.22" y="-48.36" width="46.96" height="144.97"/><rect class="cls-52" x="660.9" y="-48.36" width="8.19" height="144.97"/><rect class="cls-53" x="629.87" y="-48.36" width="12.9" height="144.97"/><rect class="cls-51" x="575.44" y="-48.36" width="46.96" height="144.97"/><rect class="cls-52" x="610.11" y="-48.36" width="8.19" height="144.97"/><rect class="cls-53" x="579.09" y="-48.36" width="12.9" height="144.97"/><rect class="cls-54" x="718.8" y="-59.55" width="38.22" height="156.16"/><rect class="cls-36" x="718.8" y="72.61" width="38.22" height="6.42"/><rect class="cls-41" x="747.02" y="-59.55" width="6.67" height="156.16"/><rect class="cls-55" x="721.77" y="-59.55" width="10.5" height="156.16"/><rect class="cls-54" x="676.57" y="-59.55" width="38.22" height="156.16"/><rect class="cls-36" x="676.57" y="72.61" width="38.22" height="6.42"/><rect class="cls-41" x="704.79" y="-59.55" width="6.67" height="156.16"/><rect class="cls-55" x="679.54" y="-59.55" width="10.5" height="156.16"/><rect class="cls-56" x="808.01" y="384.42" width="44.16" height="164.69"/><rect class="cls-57" x="808.01" y="397.95" width="44.16" height="4.76"/><rect class="cls-57" x="808.01" y="529.92" width="44.16" height="4.76"/><rect class="cls-57" x="813.57" y="442.95" width="33.03" height="55.27"/><rect class="cls-58" x="840.43" y="384.42" width="7.7" height="164.69"/><rect class="cls-59" x="811.26" y="384.42" width="12.13" height="164.69"/><rect class="cls-56" x="855.14" y="384.42" width="44.16" height="164.69"/><rect class="cls-57" x="855.14" y="397.95" width="44.16" height="4.76"/><rect class="cls-57" x="855.14" y="529.92" width="44.16" height="4.76"/><rect class="cls-57" x="860.7" y="442.95" width="33.02" height="55.27"/><rect class="cls-58" x="887.56" y="384.42" width="7.7" height="164.69"/><rect class="cls-59" x="858.39" y="384.42" width="12.13" height="164.69"/><rect class="cls-32" x="885.52" y="-53.28" width="42.51" height="149.9"/><rect class="cls-33" x="916.74" y="-53.28" width="7.41" height="149.9"/><rect class="cls-34" x="888.65" y="-53.28" width="11.68" height="149.9"/><rect class="cls-16" x="1400.86" y="-71.24" width="28.62" height="167.85"/><rect class="cls-60" x="1401" y="40.35" width="28.62" height="45.07"/><rect class="cls-19" x="1422.13" y="-71.23" width="4.99" height="167.85"/><rect class="cls-20" x="1403.22" y="-71.23" width="7.86" height="167.85"/><rect class="cls-16" x="1368.95" y="-71.24" width="28.62" height="167.85"/><rect class="cls-61" x="1369.08" y="40.35" width="28.62" height="45.07"/><rect class="cls-19" x="1390.22" y="-71.23" width="4.99" height="167.85"/><rect class="cls-20" x="1371.31" y="-71.23" width="7.86" height="167.85"/><rect class="cls-16" x="1337.03" y="-71.24" width="28.62" height="167.85"/><rect class="cls-62" x="1337.17" y="40.35" width="28.62" height="45.07"/><rect class="cls-19" x="1358.3" y="-71.23" width="4.99" height="167.85"/><rect class="cls-20" x="1339.39" y="-71.23" width="7.86" height="167.85"/><rect class="cls-63" x="1432.53" y="-62.97" width="44.16" height="159.59"/><path class="cls-64" d="M1447.1,20.1c8.38-.41,23.15,2.43,22.54-7.19V-48.25c.62-9.55-14.17-6.87-22.54-7.19a7.36,7.36,0,0,0-7.52,7.19V12.91A7.36,7.36,0,0,0,1447.1,20.1Z"/><path class="cls-65" d="M1438.47,12.91V-48.25c-.5-10,14.54-7.76,23.66-7.92,4.76,0,8.63,3.55,8.63,7.92V12.91c0,4.37-3.87,7.92-8.63,7.92C1453,20.58,1438,23,1438.47,12.91Zm8.63-67.62c-13.08-1.83-3.76,63.8-6.41,67.62-.74,9,13.85,6,21.44,6.46a6.44,6.44,0,0,0,6.4-6.46V-48.25C1469.28-57.26,1454.69-54.24,1447.1-54.71Z"/><rect class="cls-66" x="1465.42" y="-62.97" width="7.7" height="159.59"/><rect class="cls-67" x="1436.25" y="-62.97" width="12.13" height="159.59"/><rect class="cls-68" x="1479.47" y="-62.97" width="44.16" height="159.59"/><path class="cls-69" d="M1494.05,20.1c8.38-.41,23.15,2.43,22.54-7.19V-48.25c.61-9.55-14.17-6.87-22.55-7.19a7.35,7.35,0,0,0-7.51,7.19V12.91A7.36,7.36,0,0,0,1494.05,20.1Z"/><path class="cls-70" d="M1485.42,12.91V-48.25c-.51-10,14.53-7.76,23.66-7.92,4.75,0,8.62,3.55,8.62,7.92V12.91c0,4.37-3.87,7.92-8.63,7.92C1499.94,20.58,1484.92,23,1485.42,12.91Zm8.63-67.62c-13.08-1.83-3.76,63.8-6.41,67.62-.75,9,13.85,6,21.44,6.46a6.44,6.44,0,0,0,6.4-6.46V-48.25C1516.22-57.26,1501.64-54.24,1494.05-54.71Z"/><rect class="cls-71" x="1512.36" y="-62.97" width="7.7" height="159.59"/><rect class="cls-72" x="1483.19" y="-62.97" width="12.13" height="159.59"/><rect class="cls-73" x="1526.57" y="-62.97" width="44.16" height="159.59"/><path class="cls-74" d="M1541.14,20.1c8.38-.41,23.15,2.43,22.54-7.19V-48.25c.62-9.55-14.17-6.87-22.54-7.19a7.36,7.36,0,0,0-7.52,7.19V12.91A7.36,7.36,0,0,0,1541.14,20.1Z"/><path class="cls-75" d="M1532.51,12.91V-48.25c-.5-10,14.54-7.76,23.66-7.92,4.76,0,8.63,3.55,8.63,7.92V12.91c0,4.37-3.87,7.92-8.63,7.92C1547,20.58,1532,23,1532.51,12.91Zm8.63-67.62c-13.08-1.83-3.76,63.8-6.41,67.62-.74,9,13.85,6,21.44,6.46a6.44,6.44,0,0,0,6.4-6.46V-48.25C1563.32-57.26,1548.73-54.24,1541.14-54.71Z"/><rect class="cls-76" x="1559.46" y="-62.97" width="7.7" height="159.59"/><rect class="cls-77" x="1530.28" y="-62.97" width="12.13" height="159.59"/><rect class="cls-78" x="1573.88" y="-62.97" width="44.16" height="159.59"/><path class="cls-79" d="M1588.45,20.1c8.39-.41,23.15,2.43,22.54-7.19V-48.25c.61-9.55-14.18-6.87-22.55-7.19a7.35,7.35,0,0,0-7.51,7.19V12.91A7.35,7.35,0,0,0,1588.45,20.1Z"/><path class="cls-80" d="M1579.82,12.91V-48.25c-.5-10,14.54-7.76,23.66-7.92,4.76,0,8.63,3.55,8.63,7.92V12.91c0,4.37-3.87,7.92-8.63,7.92C1594.35,20.58,1579.32,23,1579.82,12.91Zm8.63-67.62c-13.08-1.83-3.76,63.8-6.4,67.62-.75,9,13.84,6,21.43,6.46a6.44,6.44,0,0,0,6.4-6.46V-48.25C1610.63-57.26,1596-54.24,1588.45-54.71Z"/><rect class="cls-81" x="1606.77" y="-62.97" width="7.7" height="159.59"/><rect class="cls-82" x="1577.6" y="-62.97" width="12.13" height="159.59"/><rect class="cls-78" x="1197.42" y="-59.72" width="44.16" height="156.34"/><rect class="cls-79" x="1197.42" y="23.78" width="44.16" height="63.33"/><rect class="cls-80" x="1197.42" y="19.52" width="44.16" height="5"/><rect class="cls-80" x="1197.42" y="86.62" width="44.16" height="5"/><rect class="cls-81" x="1230.31" y="-59.72" width="7.7" height="156.34"/><rect class="cls-82" x="1201.13" y="-59.72" width="12.13" height="156.34"/><rect class="cls-78" x="1150.66" y="-59.72" width="44.16" height="156.34"/><rect class="cls-79" x="1150.66" y="23.78" width="44.16" height="63.33"/><rect class="cls-80" x="1150.66" y="19.52" width="44.16" height="5"/><rect class="cls-80" x="1150.66" y="86.62" width="44.16" height="5"/><rect class="cls-81" x="1183.55" y="-59.72" width="7.7" height="156.34"/><rect class="cls-82" x="1154.37" y="-59.72" width="12.13" height="156.34"/><rect class="cls-83" x="1290.38" y="-59.72" width="44.16" height="156.34"/><rect class="cls-84" x="1290.38" y="23.77" width="44.16" height="63.32"/><rect class="cls-85" x="1290.38" y="19.52" width="44.16" height="5"/><rect class="cls-85" x="1290.38" y="86.62" width="44.16" height="5"/><rect class="cls-86" x="1323.27" y="-59.72" width="7.7" height="156.34"/><rect class="cls-87" x="1294.1" y="-59.72" width="12.13" height="156.34"/><rect class="cls-83" x="1243.99" y="-59.72" width="44.16" height="156.34"/><rect class="cls-84" x="1243.99" y="23.77" width="44.16" height="63.32"/><rect class="cls-85" x="1243.99" y="19.52" width="44.16" height="5"/><rect class="cls-85" x="1243.99" y="86.62" width="44.16" height="5"/><rect class="cls-86" x="1276.88" y="-59.72" width="7.7" height="156.34"/><rect class="cls-87" x="1247.71" y="-59.72" width="12.13" height="156.34"/><rect class="cls-88" x="1099.13" y="-49.03" width="48.49" height="145.65"/><rect class="cls-89" x="1099.13" y="87.85" width="48.49" height="8.65"/><rect class="cls-89" x="1099.13" y="21.8" width="48.49" height="3.99"/><rect class="cls-89" x="1099.13" y="55.08" width="48.49" height="3.99"/><rect class="cls-52" x="1134.93" y="-49.03" width="8.46" height="145.65"/><rect class="cls-90" x="1102.9" y="-49.03" width="13.32" height="145.65"/><rect class="cls-88" x="1047.78" y="-49.03" width="48.49" height="145.65"/><rect class="cls-89" x="1047.78" y="87.85" width="48.49" height="8.65"/><rect class="cls-89" x="1047.78" y="21.8" width="48.49" height="3.99"/><rect class="cls-89" x="1047.78" y="55.08" width="48.49" height="3.99"/><rect class="cls-52" x="1083.59" y="-49.03" width="8.46" height="145.65"/><rect class="cls-90" x="1051.55" y="-49.03" width="13.32" height="145.65"/><rect class="cls-91" x="997.09" y="-49.03" width="48.49" height="145.65"/><rect class="cls-92" x="997.09" y="87.85" width="48.49" height="8.65"/><rect class="cls-92" x="997.09" y="21.8" width="48.49" height="3.99"/><rect class="cls-92" x="997.09" y="55.08" width="48.49" height="3.99"/><rect class="cls-93" x="1032.9" y="-49.03" width="8.46" height="145.65"/><rect class="cls-94" x="1000.86" y="-49.04" width="13.32" height="145.65"/><rect class="cls-29" x="963.91" y="-57.66" width="30.1" height="154.49"/><rect class="cls-95" x="964.06" y="-13.33" width="30.1" height="65.83"/><rect class="cls-96" x="986.28" y="-57.66" width="5.25" height="154.49"/><rect class="cls-97" x="966.4" y="-57.66" width="8.27" height="154.49"/><rect class="cls-29" x="930.51" y="-57.66" width="30.1" height="154.49"/><rect class="cls-95" x="930.66" y="-13.33" width="30.1" height="65.83"/><rect class="cls-96" x="952.88" y="-57.66" width="5.25" height="154.49"/><rect class="cls-97" x="933" y="-57.66" width="8.27" height="154.49"/><rect class="cls-98" x="471.77" y="-58.81" width="32.31" height="155.42"/><rect class="cls-99" x="471.77" y="-14.21" width="32.31" height="66.23"/><rect class="cls-100" x="495.78" y="-58.81" width="5.63" height="155.42"/><rect class="cls-101" x="474.44" y="-58.81" width="8.88" height="155.42"/><rect class="cls-98" x="506.18" y="-58.81" width="32.31" height="155.42"/><rect class="cls-99" x="506.18" y="-14.21" width="32.3" height="66.23"/><rect class="cls-100" x="530.19" y="-58.81" width="5.63" height="155.42"/><rect class="cls-101" x="508.84" y="-58.81" width="8.88" height="155.42"/><rect class="cls-102" x="540.67" y="-58.81" width="32.31" height="155.42"/><rect class="cls-103" x="540.67" y="-14.21" width="32.31" height="66.23"/><rect class="cls-104" x="564.68" y="-58.81" width="5.64" height="155.42"/><rect class="cls-105" x="543.34" y="-58.81" width="8.88" height="155.42"/><rect class="cls-106" x="506.85" y="158.29" width="52.26" height="173.34"/><rect class="cls-107" x="506.85" y="311.05" width="52.26" height="20.58"/><rect class="cls-108" x="545.44" y="158.29" width="9.11" height="173.34"/><rect class="cls-109" x="510.92" y="158.29" width="14.36" height="173.34"/><polygon class="cls-107" points="506.85 174.38 559.11 187.39 559.11 194.17 506.85 181.16 506.85 174.38"/><polygon class="cls-107" points="506.85 188.36 559.11 201.38 559.11 208.16 506.85 195.14 506.85 188.36"/><polygon class="cls-107" points="559.11 216.54 559.11 223.32 506.85 210.31 506.85 203.53 559.11 216.54"/><rect class="cls-110" x="447.71" y="158.29" width="54.66" height="173.34"/><rect class="cls-36" x="447.97" y="304.98" width="54.66" height="7.12"/><path class="cls-36" d="M456.31,233.88c.11,33.84,37.36,33.83,37.48,0C493.67,200,456.42,200,456.31,233.88Z"/><rect class="cls-41" x="488.33" y="158.29" width="9.54" height="173.34"/><rect class="cls-55" x="452.22" y="158.29" width="15.02" height="173.34"/><rect class="cls-110" x="388.05" y="158.29" width="54.66" height="173.34"/><rect class="cls-36" x="388.31" y="304.98" width="54.66" height="7.12"/><path class="cls-36" d="M396.64,233.88c.12,33.83,37.36,33.83,37.48,0C434,200,396.76,200,396.64,233.88Z"/><rect class="cls-41" x="428.67" y="158.29" width="9.53" height="173.34"/><rect class="cls-55" x="392.56" y="158.29" width="15.02" height="173.34"/><rect class="cls-111" x="327.61" y="173.17" width="56.31" height="158.46"/><rect class="cls-112" x="368.95" y="173.17" width="9.82" height="158.46"/><rect class="cls-113" x="331.75" y="173.17" width="15.47" height="158.46"/><rect class="cls-114" x="105.63" y="159.19" width="41.72" height="172.44"/><polygon class="cls-91" points="147.35 251.75 147.35 331.63 105.63 331.63 105.63 280.19 147.35 251.75"/><rect class="cls-115" x="136.26" y="159.19" width="7.28" height="172.44"/><rect class="cls-116" x="108.7" y="159.19" width="11.46" height="172.44"/><rect class="cls-114" x="59.45" y="159.19" width="41.72" height="172.44"/><polygon class="cls-91" points="101.17 251.75 101.17 331.63 59.45 331.63 59.45 280.19 101.17 251.75"/><rect class="cls-115" x="90.08" y="159.19" width="7.28" height="172.44"/><rect class="cls-116" x="62.52" y="159.19" width="11.46" height="172.44"/><rect class="cls-84" x="13.27" y="159.19" width="41.72" height="172.44"/><polygon class="cls-117" points="54.99 251.75 54.99 331.63 13.27 331.63 13.27 280.19 54.99 251.75"/><rect class="cls-118" x="43.9" y="159.19" width="7.28" height="172.44"/><rect class="cls-119" x="16.34" y="159.19" width="11.46" height="172.44"/><rect class="cls-111" x="266.45" y="173.17" width="56.3" height="158.46"/><rect class="cls-112" x="307.79" y="173.17" width="9.82" height="158.46"/><rect class="cls-113" x="270.59" y="173.17" width="15.47" height="158.46"/><rect class="cls-29" x="227.56" y="150.75" width="33.22" height="180.88"/><rect class="cls-95" x="227.56" y="162.09" width="33.22" height="12.63"/><rect class="cls-95" x="227.56" y="180.61" width="33.22" height="4.31"/><rect class="cls-95" x="227.56" y="316.47" width="33.22" height="4.31"/><rect class="cls-120" x="251.95" y="150.75" width="5.79" height="180.88"/><rect class="cls-121" x="230" y="150.75" width="9.13" height="180.88"/><rect class="cls-29" x="189.58" y="150.75" width="33.21" height="180.88"/><rect class="cls-95" x="189.58" y="162.09" width="33.21" height="12.63"/><rect class="cls-95" x="189.58" y="180.61" width="33.21" height="4.31"/><rect class="cls-95" x="189.58" y="316.47" width="33.21" height="4.31"/><rect class="cls-120" x="213.97" y="150.75" width="5.79" height="180.88"/><rect class="cls-121" x="192.02" y="150.75" width="9.13" height="180.88"/><rect class="cls-29" x="151.61" y="150.75" width="33.21" height="180.88"/><rect class="cls-95" x="151.61" y="162.09" width="33.21" height="12.63"/><rect class="cls-95" x="151.61" y="180.61" width="33.21" height="4.31"/><rect class="cls-95" x="151.61" y="316.47" width="33.21" height="4.31"/><rect class="cls-120" x="175.99" y="150.75" width="5.79" height="180.88"/><rect class="cls-121" x="154.05" y="150.75" width="9.12" height="180.88"/><path class="cls-122" d="M910.58,164.62v167H870v-167Z"/><rect class="cls-123" x="873.43" y="180.77" width="33.07" height="6.87"/><path class="cls-124" d="M910.58,266.44v65.19H870V287.78C887.12,284.47,901.59,276.73,910.58,266.44Z"/><rect class="cls-125" x="899.96" y="164.62" width="7.08" height="167.01"/><rect class="cls-126" x="873.12" y="164.62" width="11.16" height="167.01"/><path class="cls-122" d="M954.74,164.62v167H914.11v-167Z"/><rect class="cls-123" x="917.58" y="180.77" width="33.07" height="6.87"/><path class="cls-124" d="M954.74,266.44v65.19H914.11V287.78C931.28,284.47,945.74,276.73,954.74,266.44Z"/><rect class="cls-125" x="944.11" y="164.62" width="7.09" height="167.01"/><rect class="cls-126" x="917.27" y="164.62" width="11.16" height="167.01"/><path class="cls-62" d="M998.89,164.62v167H958.27v-167Z"/><rect class="cls-123" x="961.73" y="180.77" width="33.07" height="6.87"/><path class="cls-127" d="M998.89,266.44v65.19H958.27V287.78C975.43,284.47,989.89,276.73,998.89,266.44Z"/><rect class="cls-128" x="988.26" y="164.62" width="7.08" height="167.01"/><rect class="cls-129" x="961.43" y="164.62" width="11.16" height="167.01"/><path class="cls-130" d="M1043,164.62v167h-40.62v-167Z"/><rect class="cls-123" x="1005.88" y="180.77" width="33.07" height="6.87"/><path class="cls-131" d="M1043,266.44v65.19h-40.62V287.78C1019.58,284.47,1034.05,276.73,1043,266.44Z"/><rect class="cls-132" x="1032.41" y="164.62" width="7.09" height="167.01"/><rect class="cls-133" x="1005.58" y="164.62" width="11.16" height="167.01"/><rect class="cls-134" x="596.49" y="158.29" width="48.2" height="173.34"/><rect class="cls-135" x="596.49" y="172.54" width="48.2" height="5.01"/><rect class="cls-135" x="596.49" y="311.44" width="48.2" height="5.02"/><rect class="cls-135" x="602.57" y="230.45" width="36.05" height="47.62"/><rect class="cls-135" x="602.57" y="218.38" width="36.05" height="6.06"/><rect class="cls-58" x="631.88" y="158.29" width="8.41" height="173.34"/><rect class="cls-59" x="600.04" y="158.29" width="13.24" height="173.34"/><rect class="cls-134" x="649.05" y="158.29" width="48.2" height="173.34"/><rect class="cls-135" x="649.05" y="172.54" width="48.2" height="5.01"/><rect class="cls-135" x="649.05" y="311.44" width="48.2" height="5.02"/><rect class="cls-135" x="655.13" y="230.45" width="36.05" height="47.62"/><rect class="cls-135" x="655.13" y="218.38" width="36.05" height="6.06"/><rect class="cls-58" x="684.44" y="158.29" width="8.41" height="173.34"/><rect class="cls-59" x="652.6" y="158.29" width="13.24" height="173.34"/><rect class="cls-78" x="701.39" y="163.84" width="52.21" height="167.79"/><rect class="cls-136" x="701.39" y="184.51" width="52.21" height="49.34"/><rect class="cls-96" x="740.19" y="163.84" width="9.1" height="167.79"/><rect class="cls-137" x="705.71" y="163.84" width="14.34" height="167.79"/><rect class="cls-78" x="757.29" y="163.84" width="52.21" height="167.79"/><rect class="cls-136" x="757.29" y="184.51" width="52.21" height="49.34"/><rect class="cls-96" x="796.1" y="163.84" width="9.1" height="167.79"/><rect class="cls-137" x="761.6" y="163.84" width="14.34" height="167.79"/><rect class="cls-84" x="813.8" y="163.84" width="52.21" height="167.79"/><rect class="cls-138" x="813.8" y="184.51" width="52.21" height="49.34"/><rect class="cls-118" x="852.6" y="163.84" width="9.1" height="167.79"/><rect class="cls-119" x="818.11" y="163.84" width="14.34" height="167.79"/><rect class="cls-16" x="336.95" y="389.85" width="33.81" height="159.25"/><rect class="cls-61" x="336.95" y="417.59" width="33.81" height="107.06"/><rect class="cls-19" x="361.99" y="389.85" width="5.9" height="159.25"/><rect class="cls-20" x="339.66" y="389.85" width="9.28" height="159.25"/><rect class="cls-16" x="300.31" y="389.85" width="33.81" height="159.25"/><rect class="cls-62" x="300.47" y="417.85" width="33.81" height="107.06"/><rect class="cls-19" x="325.43" y="389.85" width="5.9" height="159.25"/><rect class="cls-20" x="303.1" y="389.85" width="9.28" height="159.25"/><polygon class="cls-16" points="609.13 533.77 649.44 540.21 705.31 396.91 664.99 390.49 609.13 533.77"/><polygon class="cls-30" points="605.77 542.4 646.08 548.83 665.91 497.96 625.6 491.53 605.77 542.4"/><polygon class="cls-139" points="627.36 487.01 667.67 493.44 665.91 497.96 625.6 491.53 627.36 487.01"/><polygon class="cls-19" points="635.53 547.15 642.56 548.27 701.79 396.35 694.76 395.23 635.53 547.15"/><polygon class="cls-20" points="608.9 542.9 619.97 544.67 679.14 392.91 668.06 391.14 608.9 542.9"/><rect class="cls-140" x="215.76" y="397.93" width="39.82" height="151.18"/><rect class="cls-124" x="215.76" y="397.93" width="39.82" height="8.97"/><rect class="cls-124" x="215.76" y="467.99" width="39.82" height="11.04"/><rect class="cls-124" x="215.76" y="540.13" width="39.82" height="8.97"/><rect class="cls-41" x="245.16" y="397.93" width="6.94" height="151.18"/><rect class="cls-141" x="218.85" y="397.93" width="10.93" height="151.18"/><rect class="cls-138" x="258.22" y="397.93" width="39.81" height="151.18"/><rect class="cls-84" x="258.22" y="397.93" width="39.81" height="8.97"/><rect class="cls-84" x="258.22" y="467.99" width="39.81" height="11.04"/><rect class="cls-84" x="258.22" y="540.13" width="39.81" height="8.97"/><rect class="cls-41" x="287.62" y="397.93" width="6.95" height="151.18"/><rect class="cls-141" x="261.32" y="397.93" width="10.94" height="151.18"/><rect class="cls-63" x="13.27" y="391.49" width="47.36" height="157.49"/><rect class="cls-142" x="13.27" y="436.4" width="47.36" height="49.1"/><rect class="cls-142" x="13.27" y="544.49" width="47.36" height="4.61"/><rect class="cls-142" x="13.27" y="391.49" width="47.36" height="4.61"/><rect class="cls-142" x="13.27" y="529.94" width="47.36" height="4.61"/><rect class="cls-142" x="13.27" y="515.39" width="47.36" height="4.61"/><rect class="cls-41" x="48.24" y="391.49" width="8.26" height="157.49"/><rect class="cls-143" x="16.95" y="391.49" width="13.01" height="157.49"/><rect class="cls-124" x="63.91" y="391.49" width="47.36" height="157.49"/><rect class="cls-122" x="63.91" y="436.4" width="47.36" height="49.1"/><rect class="cls-122" x="63.91" y="544.49" width="47.36" height="4.61"/><rect class="cls-122" x="63.91" y="391.49" width="47.36" height="4.61"/><rect class="cls-122" x="63.91" y="529.94" width="47.36" height="4.62"/><rect class="cls-122" x="63.91" y="515.39" width="47.36" height="4.61"/><rect class="cls-125" x="98.87" y="391.49" width="8.26" height="157.49"/><rect class="cls-126" x="67.59" y="391.49" width="13.01" height="157.49"/><rect class="cls-144" x="114.08" y="391.49" width="47.36" height="157.49"/><rect class="cls-145" x="114.08" y="436.4" width="47.36" height="49.1"/><rect class="cls-145" x="114.08" y="544.49" width="47.36" height="4.61"/><rect class="cls-145" x="114.08" y="391.49" width="47.36" height="4.61"/><rect class="cls-145" x="114.08" y="529.94" width="47.36" height="4.61"/><rect class="cls-145" x="114.08" y="515.39" width="47.36" height="4.61"/><rect class="cls-146" x="149.06" y="391.49" width="8.26" height="157.49"/><rect class="cls-147" x="117.77" y="391.49" width="13.01" height="157.49"/><rect class="cls-148" x="164.56" y="391.49" width="47.36" height="157.49"/><rect class="cls-149" x="164.56" y="436.4" width="47.36" height="49.1"/><rect class="cls-149" x="164.56" y="544.49" width="47.36" height="4.61"/><rect class="cls-149" x="164.56" y="391.49" width="47.36" height="4.61"/><rect class="cls-149" x="164.56" y="529.94" width="47.36" height="4.61"/><rect class="cls-149" x="164.56" y="515.39" width="47.36" height="4.61"/><rect class="cls-150" x="199.53" y="391.49" width="8.26" height="157.49"/><rect class="cls-151" x="168.25" y="391.49" width="13.01" height="157.49"/><rect class="cls-32" x="575.53" y="395.82" width="29.96" height="153.28"/><rect class="cls-152" x="575.53" y="407.47" width="29.96" height="7.29"/><rect class="cls-33" x="597.52" y="395.82" width="5.23" height="153.28"/><rect class="cls-34" x="577.74" y="395.82" width="8.23" height="153.28"/><rect class="cls-32" x="542.54" y="395.82" width="29.95" height="153.28"/><rect class="cls-152" x="542.54" y="407.47" width="29.95" height="7.29"/><rect class="cls-33" x="564.53" y="395.82" width="5.22" height="153.28"/><rect class="cls-34" x="544.74" y="395.82" width="8.23" height="153.28"/><rect class="cls-25" x="509.55" y="395.82" width="29.96" height="153.28"/><rect class="cls-26" x="509.55" y="407.47" width="29.96" height="7.29"/><rect class="cls-33" x="531.54" y="395.82" width="5.23" height="153.28"/><rect class="cls-153" x="511.76" y="395.82" width="8.23" height="153.28"/><rect class="cls-25" x="476.19" y="395.82" width="29.96" height="153.28"/><rect class="cls-26" x="476.19" y="407.47" width="29.96" height="7.29"/><rect class="cls-33" x="498.18" y="395.82" width="5.23" height="153.28"/><rect class="cls-153" x="478.39" y="395.82" width="8.23" height="153.28"/><rect class="cls-154" x="757.19" y="394.88" width="48.86" height="154.22"/><rect class="cls-155" x="757.19" y="501.19" width="48.87" height="38.56"/><rect class="cls-96" x="793.51" y="394.88" width="8.51" height="154.22"/><rect class="cls-137" x="761.23" y="394.88" width="13.42" height="154.22"/><path class="cls-156" d="M763.24,408.61c-.55,6.67,36.86,6.67,36.31,0C800.1,401.94,762.69,401.94,763.24,408.61Z"/><rect class="cls-157" x="424.28" y="422.04" width="48.87" height="127.06"/><rect class="cls-46" x="424.28" y="437.15" width="48.87" height="6.65"/><rect class="cls-46" x="424.28" y="482.25" width="48.87" height="6.65"/><rect class="cls-46" x="424.28" y="527.33" width="48.87" height="6.65"/><rect class="cls-96" x="460.61" y="422.04" width="8.52" height="127.06"/><rect class="cls-137" x="428.32" y="422.04" width="13.42" height="127.06"/><rect class="cls-154" x="705.72" y="394.88" width="48.87" height="154.22"/><rect class="cls-155" x="705.72" y="501.19" width="48.87" height="38.56"/><rect class="cls-96" x="742.04" y="394.88" width="8.52" height="154.22"/><rect class="cls-137" x="709.75" y="394.88" width="13.42" height="154.22"/><path class="cls-156" d="M711.77,408.61c-.55,6.67,36.86,6.67,36.31,0C748.63,401.94,711.22,401.94,711.77,408.61Z"/><rect class="cls-91" x="211.95" y="-68.07" width="44.16" height="164.69"/><path class="cls-114" d="M225.74,85.63c6.07-.59,24.83,2.26,24.87-4.5V42.88c0-6.72-18.81-4-24.87-4.49-4.58,0-8.3,2-8.3,4.49V81.13C217.44,83.61,221.16,85.63,225.74,85.63Z"/><path class="cls-158" d="M216.22,81.13V42.88c0-2.73,4.27-5,9.52-5,6.65.49,26-2.17,26.1,5V81.13c-.08,7.08-19.46,4.51-26.1,5C220.49,86.08,216.22,83.86,216.22,81.13Zm9.52-42.29c-3.9,0-7.06,1.82-7.06,4V81.13c0,2.23,3.16,4,7.06,4,5.47-.68,23.68,2.32,23.65-4V42.88C249.44,36.56,231.19,39.46,225.74,38.84Z"/><rect class="cls-159" x="244.83" y="-68.07" width="7.7" height="164.69"/><rect class="cls-160" x="215.66" y="-68.07" width="12.13" height="164.69"/><rect class="cls-91" x="165.19" y="-68.07" width="44.16" height="164.69"/><path class="cls-114" d="M179,85.63c6.08-.59,24.83,2.26,24.87-4.5V42.88c0-6.72-18.81-4-24.87-4.49-4.58,0-8.3,2-8.3,4.49V81.13C170.68,83.61,174.4,85.63,179,85.63Z"/><path class="cls-158" d="M169.45,81.13V42.88c0-2.73,4.28-5,9.53-5,6.65.49,26-2.17,26.1,5V81.13c-.08,7.08-19.46,4.51-26.1,5C173.73,86.08,169.45,83.86,169.45,81.13ZM179,38.84c-3.9,0-7.06,1.82-7.06,4V81.13c0,2.23,3.16,4,7.06,4,5.47-.68,23.68,2.32,23.65-4V42.88C202.68,36.56,184.43,39.46,179,38.84Z"/><rect class="cls-159" x="198.07" y="-68.07" width="7.7" height="164.69"/><rect class="cls-160" x="168.9" y="-68.07" width="12.13" height="164.69"/><rect class="cls-122" x="115.13" y="-62.81" width="47.83" height="159.42"/><rect class="cls-124" x="115.13" y="80.17" width="47.83" height="6.77"/><rect class="cls-124" x="115.13" y="-50.18" width="47.83" height="50.88"/><rect class="cls-125" x="150.68" y="-62.81" width="8.33" height="159.42"/><rect class="cls-126" x="119.08" y="-62.81" width="13.14" height="159.42"/><rect class="cls-122" x="63.92" y="-62.81" width="47.83" height="159.42"/><rect class="cls-124" x="63.92" y="80.17" width="47.83" height="6.77"/><rect class="cls-124" x="63.92" y="-50.18" width="47.83" height="50.88"/><rect class="cls-125" x="99.46" y="-62.81" width="8.34" height="159.42"/><rect class="cls-126" x="67.87" y="-62.81" width="13.14" height="159.42"/><rect class="cls-89" x="13.27" y="-62.81" width="47.83" height="159.42"/><rect class="cls-161" x="13.27" y="80.17" width="47.83" height="6.77"/><rect class="cls-161" x="13.27" y="-50.18" width="47.83" height="50.88"/><rect class="cls-52" x="48.82" y="-62.81" width="8.33" height="159.42"/><rect class="cls-162" x="17.22" y="-62.81" width="13.14" height="159.42"/><polygon class="cls-60" points="309.94 96.82 336.88 92.62 283.8 -62.71 256.85 -58.51 309.94 96.82"/><polygon class="cls-163" points="306.85 87.37 333.79 83.17 320.52 44.34 293.57 48.54 306.85 87.37"/><polygon class="cls-164" points="329.96 93.7 334.66 92.97 281.57 -62.37 276.88 -61.64 329.96 93.7"/><polygon class="cls-165" points="312.17 96.48 319.56 95.32 266.48 -60.01 259.08 -58.86 312.17 96.48"/><rect class="cls-25" x="1389.34" y="202.9" width="223.44" height="24.34"/><rect class="cls-26" x="1406.31" y="202.9" width="10.64" height="24.34"/><rect class="cls-33" x="1389.34" y="205.12" width="223.44" height="4.24"/><rect class="cls-153" x="1389.34" y="218.76" width="223.44" height="6.69"/><rect class="cls-166" x="1368.12" y="251.85" width="241.43" height="25.08"/><rect class="cls-36" x="1388.94" y="251.85" width="16.13" height="25.08"/><rect class="cls-36" x="1480.25" y="251.85" width="16.13" height="25.08"/><rect class="cls-36" x="1571.56" y="251.85" width="16.13" height="25.08"/><g class="cls-167"><rect class="cls-168" x="1368.12" y="254.04" width="241.43" height="4.38"/></g><g class="cls-167"><rect class="cls-169" x="1368.12" y="268.1" width="241.43" height="6.89"/></g><rect class="cls-170" x="1345.15" y="226.8" width="241.43" height="25.08"/><rect class="cls-171" x="1365.96" y="226.8" width="16.13" height="25.08"/><rect class="cls-171" x="1457.28" y="226.8" width="16.13" height="25.08"/><rect class="cls-171" x="1548.59" y="226.8" width="16.13" height="25.08"/><g class="cls-167"><rect class="cls-168" x="1345.15" y="228.99" width="241.43" height="4.38"/></g><g class="cls-167"><rect class="cls-172" x="1345.15" y="243.04" width="241.43" height="6.89"/></g><rect class="cls-173" x="1886.43" y="384.81" width="42.32" height="164.75"/><rect class="cls-174" x="1886.43" y="398.35" width="42.32" height="4.76"/><rect class="cls-174" x="1891.77" y="451.13" width="31.65" height="54.66"/><rect class="cls-175" x="1917.5" y="384.81" width="7.38" height="164.75"/><rect class="cls-176" x="1889.55" y="384.81" width="11.62" height="164.75"/><rect class="cls-173" x="1840.92" y="384.81" width="42.32" height="164.75"/><rect class="cls-174" x="1840.92" y="398.35" width="42.32" height="4.76"/><rect class="cls-174" x="1846.25" y="451.13" width="31.65" height="54.66"/><rect class="cls-175" x="1871.98" y="384.81" width="7.38" height="164.75"/><rect class="cls-176" x="1844.03" y="384.81" width="11.62" height="164.75"/><rect class="cls-16" x="1341.8" y="387.46" width="38.96" height="152.71"/><rect class="cls-30" x="1341.8" y="495.15" width="38.96" height="54.22"/><rect class="cls-139" x="1341.8" y="490.33" width="38.96" height="4.82"/><rect class="cls-19" x="1370.58" y="387.46" width="6.8" height="161.91"/><rect class="cls-20" x="1344.83" y="387.63" width="10.7" height="161.74"/><rect class="cls-16" x="1383.05" y="387.46" width="38.97" height="152.71"/><rect class="cls-25" x="1383.05" y="495.15" width="38.97" height="54.22"/><rect class="cls-26" x="1383.05" y="490.33" width="38.97" height="4.82"/><rect class="cls-19" x="1411.83" y="387.46" width="6.8" height="161.91"/><rect class="cls-20" x="1386.08" y="387.63" width="10.7" height="161.74"/><rect class="cls-29" x="1566.57" y="389.89" width="45.83" height="159.49"/><rect class="cls-95" x="1566.79" y="435.65" width="45.83" height="67.95"/><rect class="cls-96" x="1600.63" y="389.89" width="7.99" height="159.49"/><rect class="cls-97" x="1570.35" y="389.89" width="12.59" height="159.49"/><rect class="cls-177" x="1518.56" y="389.89" width="45.83" height="159.49"/><rect class="cls-111" x="1518.78" y="435.65" width="45.83" height="67.95"/><rect class="cls-112" x="1552.62" y="389.89" width="7.99" height="159.49"/><rect class="cls-113" x="1522.35" y="389.89" width="12.59" height="159.49"/><polygon class="cls-32" points="1473.26 549.11 1517.92 541.84 1467.04 386.44 1422.39 393.71 1473.26 549.11"/><polygon class="cls-178" points="1458.88 504.48 1503.54 497.21 1481.86 431 1437.2 438.26 1458.88 504.48"/><polygon class="cls-179" points="1506.45 543.7 1514.24 542.43 1463.36 387.04 1455.58 388.31 1506.45 543.7"/><polygon class="cls-180" points="1476.95 548.51 1489.22 546.51 1438.34 391.12 1426.08 393.11 1476.95 548.51"/><rect class="cls-181" x="1792.32" y="389.89" width="45.83" height="159.49"/><rect class="cls-182" x="1792.54" y="499.82" width="45.83" height="39.87"/><rect class="cls-182" x="1792.54" y="397.51" width="45.83" height="19.81"/><rect class="cls-183" x="1826.38" y="389.89" width="7.99" height="159.49"/><rect class="cls-184" x="1796.1" y="389.89" width="12.59" height="159.49"/><rect class="cls-185" x="1744.04" y="389.89" width="45.83" height="159.49"/><rect class="cls-186" x="1744.26" y="499.82" width="45.84" height="39.87"/><rect class="cls-186" x="1744.26" y="397.51" width="45.84" height="19.81"/><rect class="cls-187" x="1778.1" y="389.89" width="7.99" height="159.49"/><rect class="cls-188" x="1747.83" y="389.89" width="12.59" height="159.49"/><rect class="cls-189" x="1695.68" y="389.89" width="45.83" height="159.49"/><rect class="cls-190" x="1695.9" y="499.82" width="45.83" height="39.87"/><rect class="cls-190" x="1695.9" y="397.51" width="45.83" height="19.81"/><rect class="cls-191" x="1729.74" y="389.89" width="7.99" height="159.49"/><rect class="cls-192" x="1699.46" y="389.89" width="12.59" height="159.49"/><rect class="cls-16" x="1616.57" y="385.96" width="37.34" height="163.41"/><rect class="cls-193" x="1616.57" y="512.9" width="37.34" height="29.5"/><rect class="cls-19" x="1644.14" y="385.96" width="6.52" height="163.41"/><rect class="cls-20" x="1619.47" y="385.96" width="10.26" height="163.41"/><rect class="cls-193" x="1616.57" y="396.92" width="37.34" height="12.2"/><rect class="cls-16" x="1656.22" y="385.96" width="37.34" height="163.41"/><rect class="cls-194" x="1656.22" y="512.9" width="37.34" height="29.5"/><rect class="cls-194" x="1656.22" y="396.92" width="37.34" height="12.2"/><rect class="cls-19" x="1683.79" y="385.96" width="6.51" height="163.41"/><rect class="cls-20" x="1659.12" y="385.96" width="10.26" height="163.41"/><rect class="cls-13" x="12.15" y="96.84" width="1610.53" height="21.06"/><rect class="cls-15" x="12.15" y="96.84" width="1610.53" height="6.77"/><rect class="cls-13" x="1619.93" y="-336.02" width="33.4" height="613.04"/><rect class="cls-1" x="62.45" width="1821.69" height="900"/></g></svg>