<svg id="Layer_1" data-name="Layer 1" xmlns="http://www.w3.org/2000/svg" xmlns:xlink="http://www.w3.org/1999/xlink" viewBox="0 0 256 256"><defs><style>.cls-1,.cls-3{fill:#b0c2ed;}.cls-1,.cls-55{stroke:#0c4196;stroke-width:5px;}.cls-1,.cls-15,.cls-5,.cls-55,.cls-7{stroke-miterlimit:10;}.cls-2,.cls-55{fill:none;}.cls-4{clip-path:url(#clip-path);}.cls-5{fill:#ffdbcf;stroke:#bfad88;}.cls-6{fill:#d0343c;opacity:0.3;}.cls-7{fill:#ff6162;stroke:#7f5a50;}.cls-8{fill:#d3bdb8;}.cls-39,.cls-40,.cls-9{fill:#fff;}.cls-10{fill:#f6a175;}.cls-11{fill:#e8906b;}.cls-12{fill:#3d4356;}.cls-13{fill:#fcb072;}.cls-14,.cls-26{fill:#383d4d;}.cls-14{opacity:0.5;}.cls-15,.cls-53{fill:#ffbf7e;}.cls-15{stroke:#a06937;}.cls-16,.cls-54{fill:#f59b76;}.cls-16{opacity:0.9;}.cls-17{fill:#2a3244;}.cls-18{fill:#4a4f64;}.cls-19{clip-path:url(#clip-path-2);}.cls-20{fill:#350b02;}.cls-21{fill:#3b2127;opacity:0.23;}.cls-22{clip-path:url(#clip-path-3);}.cls-23{fill:#f3ae6a;}.cls-24{fill:#5f3441;}.cls-25{fill:#3f4458;}.cls-27{fill:#f5968e;}.cls-28{fill:#951c27;}.cls-29{fill:#d26653;}.cls-30{fill:#db9d8e;}.cls-31{fill:url(#linear-gradient);}.cls-32{fill:#49442e;}.cls-33{fill:#ec9a6c;}.cls-34{fill:url(#Áåçûìÿííûé_ãðàäèåíò_15);}.cls-35,.cls-36{fill:#682124;}.cls-35,.cls-40{opacity:0.32;}.cls-36{opacity:0.15;}.cls-37{fill:#ae4c4f;}.cls-38{fill:#c86366;}.cls-39{opacity:0.24;}.cls-41{fill:#492112;}.cls-42{fill:#ff94cd;}.cls-43{fill:#ffc791;}.cls-44{fill:#ae95d6;}.cls-45{fill:#ffe270;}.cls-46{fill:url(#Áåçûìÿííûé_ãðàäèåíò_26);}.cls-47{fill:#958edf;}.cls-48{fill:#84e5e0;}.cls-49{fill:url(#Áåçûìÿííûé_ãðàäèåíò_26-2);}.cls-50{fill:#aee0ff;}.cls-51{fill:#bd5556;}.cls-52{fill:#86272b;opacity:0.58;}</style><clipPath id="clip-path"><circle class="cls-1" cx="128" cy="128" r="124.33"/></clipPath><clipPath id="clip-path-2"><path class="cls-2" d="M140.81,142.88c-.84-3.12,2-11.35,9.12-14.31,10.94-4.52,20.22,3.31,20.35,5.58a15.31,15.31,0,0,1-10.26,14C148.89,152.32,141.57,145.68,140.81,142.88Z"/></clipPath><clipPath id="clip-path-3"><path class="cls-2" d="M97.83,140.57c1.14-1.82.71-12.44-8.26-16-8-3.16-15.47,5.55-15.47,7.82a11.93,11.93,0,0,0,6.2,10.17C89.42,147.75,96.9,142.05,97.83,140.57Z"/></clipPath><linearGradient id="linear-gradient" x1="-790.46" y1="485.45" x2="-790.07" y2="494.37" gradientTransform="matrix(1.42, -0.12, 0.14, 1.64, 1174.36, -733.5)" gradientUnits="userSpaceOnUse"><stop offset="0" stop-color="#e8d9d7"/><stop offset="0.4" stop-color="#efe5e4"/><stop offset="1" stop-color="#fff"/></linearGradient><linearGradient id="Áåçûìÿííûé_ãðàäèåíò_15" x1="-205.53" y1="537.97" x2="-183.4" y2="565.1" gradientTransform="matrix(0.98, 0.22, -0.22, 0.98, 415.56, -308.19)" gradientUnits="userSpaceOnUse"><stop offset="0" stop-color="#bd5556"/><stop offset="0.25" stop-color="#ac4a4c"/><stop offset="0.69" stop-color="#91383b"/></linearGradient><linearGradient id="Áåçûìÿííûé_ãðàäèåíò_26" x1="-193.78" y1="564.6" x2="-193.4" y2="564.6" gradientTransform="matrix(0.98, 0.22, -0.22, 0.98, 415.56, -308.19)" gradientUnits="userSpaceOnUse"><stop offset="0.29" stop-color="#ffdbdc"/><stop offset="0.66" stop-color="#ffd6d7"/><stop offset="0.84" stop-color="#ffd1d2"/></linearGradient><linearGradient id="Áåçûìÿííûé_ãðàäèåíò_26-2" x1="-178.59" y1="540.61" x2="-178.22" y2="540.61" xlink:href="#Áåçûìÿííûé_ãðàäèåíò_26"/></defs><circle class="cls-3" cx="128" cy="128" r="124.33"/><g class="cls-4"><path class="cls-5" d="M120.8,202.68c-9.32-.36-12.64,12.26-18,12.22-7.62-.06-12.45-13.31-12.45-13.31A10,10,0,0,1,86,203a13,13,0,0,1-4.84-1s-5,15.64,7.5,30.4C99,244.49,111.26,242.8,111.26,242.8S128.31,203,120.8,202.68Z"/><path class="cls-6" d="M90.25,201.76a3,3,0,0,1-3,2.87,6.42,6.42,0,0,1-6-2.62Z"/><path class="cls-7" d="M134.65,197.24A21.14,21.14,0,0,1,152,203.53c4.86,4.78,19.07,46.48,14.25,62.09-1.9,6.15-11.54,10.21-25.89,11-18.87,1-27.67-3.12-29.54-9.27-3.24-10.65,1.28-43.3,5.4-56.9S134.65,197.24,134.65,197.24Z"/><path class="cls-8" d="M113.83,221s-5.69,4.06-8.14,14.31a11.51,11.51,0,0,0,.9,7.31s1,.16,1.93.21,2,0,2,0,.19-2.82.62-6.21S113.83,221,113.83,221Z"/><path class="cls-6" d="M152.88,241.06s-5,20.33-19.37,17.38c-17.3-3.54-15.37-34.73-15.37-34.73Z"/><path class="cls-9" d="M134.68,197.29a23.74,23.74,0,0,1,11.65,2.1S144,205.54,134.5,206s-11.82-4.85-11.82-4.85S125.32,198.3,134.68,197.29Z"/><path class="cls-10" d="M140.94,188.37a17.72,17.72,0,0,0-.72,5.8,12.47,12.47,0,0,0,1.55,5.71,16.32,16.32,0,0,1-6.88,2.43,25.5,25.5,0,0,1-8.65-1,25.77,25.77,0,0,0,.25-6,14.94,14.94,0,0,0-1.46-4.88Z"/><path class="cls-11" d="M139.71,188.59s-3.05,4.79-7.77,5.59a8.2,8.2,0,0,1-5.81-1l-1.23-2.88Z"/><path class="cls-5" d="M151.65,202.4c-4.14-.31-9,6.41-11.73,10.61a36.87,36.87,0,0,0-4.71,10.52s-3.82-4.86-7.2-8.56a84.88,84.88,0,0,0-6.29-6.24,6.31,6.31,0,0,1-3.16.94c-3.52.16-4.74-1.15-4.74-1.15s-2.88,10.26,4,25.54c3.74,8.31,10.6,18.36,20.71,18.56,9.18.18,17.19-14,20.47-26.83C162.48,212.1,156.55,202.75,151.65,202.4Z"/><path class="cls-6" d="M115,209.22a4.89,4.89,0,0,0,4.92,2.12,2.16,2.16,0,0,0,1.79-2.57,9.09,9.09,0,0,1-3,.91A7.13,7.13,0,0,1,115,209.22Z"/><path class="cls-12" d="M59.52,102.35a15.08,15.08,0,0,0-2.24,8.77c.42,8.32,4.8,11.86,4.8,11.86l11.34,3.21,7.28-23.1Z"/><path class="cls-13" d="M73.25,124.22s-5.81-5.9-12.34-2c-4.06,2.42-6.75,9.66-2.91,14.24a10.19,10.19,0,0,0,9,3.87Z"/><path class="cls-14" d="M75.62,108.92a12.26,12.26,0,0,1-8.56.9c-7.79-1.71-7.62-7.3-7.62-7.3l17,.39Z"/><path class="cls-15" d="M76.48,103.61s-1.25,12.82-3.26,20.58c-1.71,6.58-17.59,27.9.65,49.45,22.48,26.55,64.59,27.38,89.52,18.09,20.38-7.6,23.26-29.7,23.26-29.7s15.6,0,16.49-13.29c1.15-17.23-15.53-15.27-15.53-15.27s-19.49-45.15-47.48-53.34S76.48,103.61,76.48,103.61Z"/><path class="cls-16" d="M76.15,105.71,75.7,109a20.48,20.48,0,0,0,7-.12,17.91,17.91,0,0,0,6.07-3s2.26,3.86,11,6.4c13.56,3.93,24.28-4.25,24.28-4.25a15.92,15.92,0,0,0,11,9.63c17.24,4.78,26.72-4.85,26.72-4.85a22.87,22.87,0,0,0,7.39,10.57c5.54,4.24,14.77,6.37,14.77,6.37s46.2-14.49-10.5-40.62S76.15,105.71,76.15,105.71Z"/><path class="cls-17" d="M167.89,100.85s-20.39,8.21-30.87,6.72-11-9.28-11-9.28-15.39,9.82-26.23,5.92c-8-2.87-7.66-7.66-7.66-7.66s-12.33,13.43-26,9.69c-11.55-3.15-23.56-24.21-4-47C75.37,43.74,97.35,46,97.35,46s-11.9-10-4.87-18.81c16.31-20.37,46.13,6.47,46.13,6.47s.25-9.71,10.11-8.22c26.1,4,35.18,32.41,35.18,32.41s.3-7.28,4.37-9.29c3.5-1.73,12.14.9,14.24,12.14,1.34,7.14-3.65,14.92-3.65,14.92s7.36-2.56,11.74-.91c4.76,1.79,6.66,6.74,5.44,10.22-1.16,3.29-6.08,4.35-6.08,4.35s6.09,7,7.39,20.14c1.65,16.8-14.58,32.29-14.58,32.29s-.64-3.39-6-5.79C193,134.22,188,135,188,135s-10.73-6-15.74-14.53S167.89,100.85,167.89,100.85Z"/><path class="cls-14" d="M111.33,52.38a25.52,25.52,0,0,1-14.41,4.21A15.21,15.21,0,0,1,83,47.13s3.13-.63,6.63-1S97,45.84,97,45.84a44,44,0,0,0,5.25,3.24A45.57,45.57,0,0,0,111.33,52.38Z"/><path class="cls-14" d="M138.59,33.6s-1.6-1.47-3.17-2.67a35.69,35.69,0,0,0-3.11-2.11s-2.46,5.21.26,10c4.48,7.79,11.28,8.61,11.28,8.61s-3.72-3.93-4.71-8.31A17.09,17.09,0,0,1,138.59,33.6Z"/><path class="cls-14" d="M131.36,88.65s-4.92-.23-8.44,2.66c-7.07,5.79-4.41,10.81-4.41,10.81l3.81-1.79a38.39,38.39,0,0,0,3.7-2,10,10,0,0,1,.91-5.11A9.29,9.29,0,0,1,131.36,88.65Z"/><path class="cls-14" d="M182.43,54.19s-3.91,3.39-.94,9A6.74,6.74,0,0,0,186,66.5a25.83,25.83,0,0,1-1.62-4.32A16.08,16.08,0,0,1,184,57.8Z"/><path class="cls-14" d="M103.57,79.82s-12,.7-17,7.57c-6.79,9.28,1.21,13,1.21,13l2.11-1.75,2-2s-.49-3.06,1.61-7.77C96.14,82.9,103.57,79.82,103.57,79.82Z"/><path class="cls-14" d="M157.26,69.61c-3.51-3.22-13.81-1.49-17.24.79-1.55,1-3.67,3.63-2.87,5.65a6.22,6.22,0,0,0,3.79,3.18c3.46.9,13.14.67,16-2.21C158.87,75.1,159.63,71.78,157.26,69.61Z"/><path class="cls-14" d="M165.21,84.18c-2.46-2.35-7.07.09-9.34,1.72-1.14.82-2.61,2.71-1.59,4.21,2,3,8,0,10-2C165.3,87.15,166.51,85.42,165.21,84.18Z"/><path class="cls-14" d="M94.92,67.87c-3.75-2.73-13.59,1.25-17.33,3.91-2.61,1.87-4.78,5.38-1.49,7.81,4.17,3.1,14.51-1.29,18.43-4.1C95.43,74.85,99,70.86,94.92,67.87Z"/><path class="cls-9" d="M140.81,142.88c-.84-3.12,2-11.35,9.12-14.31,10.94-4.52,20.22,3.31,20.35,5.58s-1.75,11.2-10.26,14C148.74,151.91,141.57,145.68,140.81,142.88Z"/><path class="cls-9" d="M97.83,140.57c1.14-1.82.71-12.44-8.26-16-8-3.16-15.47,5.55-15.47,7.82a11.93,11.93,0,0,0,6.2,10.17C89.42,147.75,96.9,142.05,97.83,140.57Z"/><path class="cls-18" d="M91,112.49c-2-3.9-10.23,1.91-8.76,4.92.5,1,1.64.44,2.41.15C85.87,117.09,92,114.44,91,112.49Z"/><path class="cls-18" d="M158.46,119.26c.43-1.05-1-2.1-1.74-2.58-1.35-.9-6.53-3.24-7.47-.51-.39,1.15.89,1.92,1.66,2.47C152.73,119.94,157.2,122.38,158.46,119.26Z"/><path class="cls-16" d="M191.2,142.55c-.88.61-.44,2.5-.49,3.35-.11,2-.84,5.37,2.29,4.83,2.53-.44,3.84-4.16,3.13-6.29C195.55,142.71,192.8,141.45,191.2,142.55Z"/><path class="cls-16" d="M67,127.86c-2-3-6.84,1.52-5.43,4.39C64.06,137.29,69.25,131.25,67,127.86Z"/><g class="cls-19"><path class="cls-20" d="M171.4,138.35a10.19,10.19,0,1,1-10.18-10.18A10.18,10.18,0,0,1,171.4,138.35Z"/><path class="cls-21" d="M140.75,142.79s1.4-5,8.34-8.4a24.14,24.14,0,0,1,21.34-.4s-1.52-3.11-6.77-5.44a17.29,17.29,0,0,0-14.16.24C140.35,133,140.75,142.79,140.75,142.79Z"/><path class="cls-9" d="M155.32,139.07a3.07,3.07,0,1,1-3.07-3.07A3.08,3.08,0,0,1,155.32,139.07Z"/></g><g class="cls-22"><circle class="cls-20" cx="91.08" cy="134.82" r="10.18"/><path class="cls-21" d="M98,140.27s-.83-8.11-10.15-12.11c-6.78-2.92-13.62,3.75-13.62,3.75s5.22-10,14.13-7.79C100,127,98,140.27,98,140.27Z"/><path class="cls-9" d="M85,134.67a3.07,3.07,0,1,1-2.41-2.41A3.08,3.08,0,0,1,85,134.67Z"/></g><path class="cls-23" d="M153.22,149.92a17.08,17.08,0,0,1-8.13-2c-2.84-1.53-4.49-3.58-4.85-4.93-.92-3.42,2-11.93,9.47-15a18.38,18.38,0,0,1,16.94,1.45c2.42,1.51,4.15,3.42,4.22,4.63.17,2.79-2.15,11.8-10.67,14.62A22.15,22.15,0,0,1,153.22,149.92Zm-11.84-7.19c.29,1.06,1.75,2.83,4.27,4.19,2.31,1.25,7.23,3,14.18.69,8.52-2.82,9.95-11.88,9.87-13.43,0-.51-1.14-2.11-3.68-3.7a17.24,17.24,0,0,0-15.86-1.36c-7,2.88-9.52,10.86-8.78,13.61Z"/><path class="cls-24" d="M140.49,142.7a12.69,12.69,0,0,1,0-2.82,15.53,15.53,0,0,1,.47-2.78,14.6,14.6,0,0,1,2.53-5.1,14.62,14.62,0,0,1,4.37-3.71c.41-.25.85-.44,1.27-.66s.87-.39,1.32-.55.88-.32,1.34-.45.9-.26,1.37-.37a17,17,0,0,1,11.26,1.06,18.21,18.21,0,0,1,4.71,3.22c.34.33.68.67,1,1l.43.49.32.31a2.07,2.07,0,0,0,.76.4,10.89,10.89,0,0,0,1.16.29h0a.63.63,0,0,1,.47.74.68.68,0,0,1-.34.43,4,4,0,0,1-1.51.37,3.23,3.23,0,0,1-1.76-.43,4,4,0,0,1-.71-.54c-.21-.2-.33-.34-.49-.49a12.48,12.48,0,0,0-.92-.86,17.12,17.12,0,0,0-4.19-2.67,15.12,15.12,0,0,0-4.75-1.26,14.56,14.56,0,0,0-2.47,0,15.77,15.77,0,0,0-2.47.33c-.41.09-.82.18-1.23.3s-.8.25-1.21.38-.78.3-1.17.45-.77.33-1.13.53a13.61,13.61,0,0,0-2.08,1.33,11.09,11.09,0,0,0-1.8,1.69,12.78,12.78,0,0,0-2.49,4.29,14.85,14.85,0,0,0-.65,2.46,14.58,14.58,0,0,0-.23,2.52v0a.59.59,0,0,1-1.17.08Z"/><path class="cls-23" d="M87.94,145.28A16,16,0,0,1,80,143.09a12.5,12.5,0,0,1-6.5-10.69c0-1.44,2.2-4.54,5.36-6.68,3.6-2.45,7.48-3,10.92-1.69a14.07,14.07,0,0,1,8.26,9c1.1,3.37,1,6.7.28,7.86C97.5,142.2,93.44,145.28,87.94,145.28ZM86,124.48a11.76,11.76,0,0,0-6.48,2.21c-3.13,2.13-4.84,4.89-4.84,5.71a11.31,11.31,0,0,0,5.9,9.66c9.08,5.15,16.12-.81,16.74-1.8.43-.69.67-3.58-.4-6.86a12.91,12.91,0,0,0-7.58-8.27A8.92,8.92,0,0,0,86,124.48Z"/><path class="cls-24" d="M97.51,139.49a19.42,19.42,0,0,0-.42-4.42A15.58,15.58,0,0,0,95.63,131a11.89,11.89,0,0,0-1.17-1.78A11.51,11.51,0,0,0,93,127.69a11.27,11.27,0,0,0-1.74-1.17,12.75,12.75,0,0,0-1.94-.8,10.32,10.32,0,0,0-8,.69,15.82,15.82,0,0,0-3.45,2.45,18.41,18.41,0,0,0-1.51,1.55c-.25.27-.48.54-.7.83s-.45.59-.62.83l-.09.13a1.46,1.46,0,0,1-.24.25l-.22.17a3.4,3.4,0,0,1-.48.29,2.91,2.91,0,0,1-1.08.27,2.66,2.66,0,0,1-1.06-.18,2.34,2.34,0,0,1-.82-.54.57.57,0,0,1,0-.8.54.54,0,0,1,.37-.16h.11a5,5,0,0,0,.62-.06,1.57,1.57,0,0,0,.45-.16,1.67,1.67,0,0,0,.35-.24l.15-.14.07-.07,0,0-.09.13c.23-.41.44-.72.68-1.07s.47-.66.73-1A18.82,18.82,0,0,1,76.11,127a15.59,15.59,0,0,1,4-2.89A12.25,12.25,0,0,1,90,123.6a14.11,14.11,0,0,1,2.27,1.05,13.59,13.59,0,0,1,2,1.49A12.41,12.41,0,0,1,96,128a15.88,15.88,0,0,1,1.23,2.15,16.24,16.24,0,0,1,1.31,4.66,18.65,18.65,0,0,1,0,4.78.54.54,0,0,1-.61.47.52.52,0,0,1-.47-.54Z"/><path class="cls-25" d="M186.71,135.05a50.05,50.05,0,0,1-8.38-6.13,41.26,41.26,0,0,1-3.63-3.73,32.92,32.92,0,0,1-3.07-4.24,32.23,32.23,0,0,1-3.62-9.79,47.18,47.18,0,0,1-.76-5.14,45.18,45.18,0,0,1-.15-5.22l1.08.78c-3.71,1.45-7.46,2.72-11.27,3.85a86.52,86.52,0,0,1-11.64,2.67,37.72,37.72,0,0,1-6,.43,17.54,17.54,0,0,1-3.06-.31l-.75-.15a4.79,4.79,0,0,1-.75-.17c-.5-.15-1-.28-1.49-.45a12.87,12.87,0,0,1-5.24-3.39,11.83,11.83,0,0,1-1-1.23,11.23,11.23,0,0,1-.8-1.38c-.13-.23-.22-.48-.33-.73s-.19-.49-.27-.75-.14-.51-.22-.77-.11-.52-.14-.84l1.21.6c-1.44.88-2.88,1.66-4.37,2.39s-3,1.39-4.55,2a37.94,37.94,0,0,1-9.67,2.45,22,22,0,0,1-5.06-.05,17.8,17.8,0,0,1-2.51-.54,11.52,11.52,0,0,1-1.21-.43c-.4-.16-.79-.3-1.18-.48a13.68,13.68,0,0,1-4.28-2.88A8.26,8.26,0,0,1,92,99.25,7.12,7.12,0,0,1,91.5,98c0-.23-.11-.45-.14-.69s0-.24,0-.36,0-.13,0-.19V96.5l1.37.58a35.77,35.77,0,0,1-3.52,3.14,39.06,39.06,0,0,1-3.82,2.68,31.17,31.17,0,0,1-8.56,3.76,20.62,20.62,0,0,1-9.34.35,18.74,18.74,0,0,1-2.28-.61,14.3,14.3,0,0,1-2.15-1,18.66,18.66,0,0,1-3.78-2.75.34.34,0,0,1,0-.48.35.35,0,0,1,.48,0,15.45,15.45,0,0,0,7.92,4,19.58,19.58,0,0,0,8.87-.55,30,30,0,0,0,8.13-3.81,39.48,39.48,0,0,0,3.63-2.68A35.41,35.41,0,0,0,91.51,96a.78.78,0,0,1,1.11,0,.76.76,0,0,1,.25.55v.27l0,.24a4.64,4.64,0,0,0,.11.51,6,6,0,0,0,.39,1,6.8,6.8,0,0,0,1.3,1.77,12.2,12.2,0,0,0,3.8,2.55c.35.17.73.29,1.09.44a11.07,11.07,0,0,0,1.1.39,15.81,15.81,0,0,0,2.27.49,20.51,20.51,0,0,0,4.7,0,36.32,36.32,0,0,0,9.26-2.35q2.25-.87,4.42-1.93c1.43-.71,2.87-1.48,4.21-2.31a.79.79,0,0,1,1.09.26.66.66,0,0,1,.12.33c0,.17.07.41.11.62s.1.44.18.65a4.44,4.44,0,0,0,.24.64,3.91,3.91,0,0,0,.28.63,11.61,11.61,0,0,0,.68,1.18,9.71,9.71,0,0,0,.86,1.06,11.23,11.23,0,0,0,4.61,3c.44.15.9.27,1.34.4a4.3,4.3,0,0,0,.69.16l.7.14a15.67,15.67,0,0,0,2.82.28,35.16,35.16,0,0,0,5.77-.41,85.72,85.72,0,0,0,11.42-2.62c3.75-1.11,7.49-2.38,11.12-3.8a.8.8,0,0,1,1,.44.91.91,0,0,1,.06.32,39.87,39.87,0,0,0,.14,5,43.27,43.27,0,0,0,.73,5,31,31,0,0,0,3.43,9.3,31.77,31.77,0,0,0,2.92,4,39.29,39.29,0,0,0,3.49,3.58,47.87,47.87,0,0,0,8.08,5.92l0,0a.79.79,0,1,1-.79,1.36Z"/><path class="cls-26" d="M124.87,54.47c-7.32,0-19.76-1.13-28.1-7.94a.79.79,0,0,1,1-1.22c11.69,9.55,32.68,7.34,32.89,7.32a.79.79,0,0,1,.18,1.57A59.27,59.27,0,0,1,124.87,54.47Z"/><path class="cls-26" d="M148.91,52.61a.77.77,0,0,1-.48-.16c-12.66-9.76-10.77-18.63-10.68-19a.78.78,0,0,1,1.53.35c0,.11-1.67,8.32,10.11,17.4a.79.79,0,0,1-.48,1.41Z"/><path class="cls-26" d="M188.69,70.47a.8.8,0,0,1-.54-.21,16.58,16.58,0,0,1-4.92-12.84.8.8,0,0,1,.87-.71.79.79,0,0,1,.7.86c0,.07-.59,6.84,4.43,11.54a.79.79,0,0,1-.54,1.36Z"/><path class="cls-26" d="M126.1,99.15a.78.78,0,0,1-.78-.68,10.77,10.77,0,0,1,2.16-7.64c2.06-2.59,5.37-4.12,9.83-4.53a.79.79,0,1,1,.15,1.57c-4,.37-7,1.7-8.74,3.94a9.24,9.24,0,0,0-1.84,6.44.79.79,0,0,1-.67.89Z"/><path class="cls-26" d="M92,97.93a.79.79,0,0,1-.78-.67,16.15,16.15,0,0,1,4-12.32c5-5.81,13.66-8.66,25.71-8.51A.79.79,0,0,1,121,78c-11.41-.17-19.88,2.6-24.51,8a14.53,14.53,0,0,0-3.66,11,.79.79,0,0,1-.65.91Z"/><path class="cls-26" d="M208.78,90.11A10.59,10.59,0,0,1,202.62,88a.79.79,0,0,1,.93-1.27,8.53,8.53,0,0,0,6.33,1.67.79.79,0,1,1,.29,1.55A7.42,7.42,0,0,1,208.78,90.11Z"/><path class="cls-26" d="M195.33,77.85a.79.79,0,0,1-.35-1.49,24.42,24.42,0,0,1,3.77-1.53.79.79,0,1,1,.43,1.51,24.51,24.51,0,0,0-3.5,1.42A.73.73,0,0,1,195.33,77.85Z"/><path class="cls-26" d="M113.16,69.08a.8.8,0,0,1-.6-.27.79.79,0,0,1,.08-1.11A8.55,8.55,0,0,1,119.89,66a.78.78,0,0,1,.57.95.79.79,0,0,1-1,.58,7,7,0,0,0-5.83,1.33A.81.81,0,0,1,113.16,69.08Z"/><path class="cls-26" d="M196.67,117.93a.8.8,0,0,1-.26-.05.78.78,0,0,1-.48-1c0-.06,2.08-6,.57-9.73a.79.79,0,0,1,.44-1,.78.78,0,0,1,1,.44c1.73,4.26-.45,10.57-.55,10.84A.78.78,0,0,1,196.67,117.93Z"/><path class="cls-26" d="M184.66,106.62h-.08a.79.79,0,0,1-.71-.86c.12-1.1.17-4.24-.91-5.63a.79.79,0,0,1,1.25-1c1.68,2.17,1.25,6.56,1.23,6.75A.78.78,0,0,1,184.66,106.62Z"/><path class="cls-26" d="M170.5,63.76a.8.8,0,0,1-.73-.51s-1.46-3.72-3.93-4.8a.79.79,0,0,1-.41-1,.78.78,0,0,1,1-.4c3.08,1.34,4.7,5.5,4.77,5.68a.78.78,0,0,1-.45,1A.75.75,0,0,1,170.5,63.76Z"/><path class="cls-26" d="M118.58,40.64a.77.77,0,0,1-.49-.17,7.83,7.83,0,0,0-5.32-1.71.79.79,0,0,1-.2-1.56,9.32,9.32,0,0,1,6.49,2,.77.77,0,0,1,.14,1.1A.79.79,0,0,1,118.58,40.64Z"/><path class="cls-26" d="M65.36,74.13a.73.73,0,0,1-.25,0,.79.79,0,0,1-.49-1,9.75,9.75,0,0,1,5.76-5.75.79.79,0,0,1,.49,1.5,8.18,8.18,0,0,0-4.76,4.76A.78.78,0,0,1,65.36,74.13Z"/><path class="cls-27" d="M99,168.83s15.79.07,21.57-.35,23.47-2,23.47-2-8.72,14-20.7,15.47C112.23,183.32,99,168.83,99,168.83Z"/><path class="cls-28" d="M121.75,168.55c-6.12.15-23.86-.47-23.86-.47s15.39,11.35,24.72,11.19,22.63-13.8,22.63-13.8S127.88,168.41,121.75,168.55Z"/><path class="cls-29" d="M130.53,173.65a45,45,0,0,0-5.3,0,7.59,7.59,0,0,0-2.86.66,22.48,22.48,0,0,0-8.27,0c-4.37.86-3.89,1.06-3.72,1.45,3.79,1.79,8.26,3.6,12.23,3.5a19.08,19.08,0,0,0,8.92-3,28,28,0,0,0,2.77-1.57C135.29,174.2,134.21,173.89,130.53,173.65Z"/><path class="cls-30" d="M144.14,162.91s.33,4.31,2.9,4.72-.16-1.44-.8-2.17C145.88,165.06,144.14,162.91,144.14,162.91Z"/><path class="cls-30" d="M99,165.34s.45,4.31-2,4.94-.37-1.4.4-2.12A21.17,21.17,0,0,0,99,165.34Z"/><path class="cls-31" d="M103.32,168.42s1.69,6.1,18.87,5.18,16.85-7,16.85-7a110.68,110.68,0,0,1-17.46,2.17C116,169.06,109.51,167.74,103.32,168.42Z"/><path class="cls-27" d="M97.89,168.08s12.43,3,23.08,2.17c22.59-1.84,24.27-4.78,24.27-4.78s-17.77,2.47-24.43,2.56C114.8,168.11,97.89,168.08,97.89,168.08Z"/><path class="cls-32" d="M110.49,152.5a44.69,44.69,0,0,0,4.38,1.85,20,20,0,0,0,2.19.62,7.48,7.48,0,0,0,1.06.17,3.44,3.44,0,0,0,.46,0l.49,0a12.85,12.85,0,0,0,4.08-1.5c1.37-.73,2.72-1.56,4.15-2.39a13.78,13.78,0,0,1-3.29,3.69,9.79,9.79,0,0,1-4.71,2.19l-.71,0a6,6,0,0,1-.73-.06,3.79,3.79,0,0,1-.67-.13,6.52,6.52,0,0,1-.63-.18,12.14,12.14,0,0,1-2.33-1A11.63,11.63,0,0,1,110.49,152.5Z"/><path class="cls-15" d="M186.14,156.53A26.94,26.94,0,0,1,185,168.46"/><path class="cls-33" d="M112.25,170.33c-11.53-2.41-22.93,4.44-25.47,15.3s4.76,21.6,16.28,24,22.93-4.44,25.47-15.3S123.77,172.73,112.25,170.33ZM107,195.06a5.66,5.66,0,0,1-4.54-6.74,6,6,0,0,1,7.12-4.3,5.65,5.65,0,0,1,4.54,6.73A6,6,0,0,1,107,195.06Z"/><path class="cls-34" d="M127.93,193.28c-.44-1.26-1.82-2.17-2.08-3.29-.47-2,1.45-3.87.94-5.94-.46-1.88-2.54-2.44-3.6-3.85s-.59-3.88-1.86-5.51a10.32,10.32,0,0,0-2-1.5l-.34-.26a22.14,22.14,0,0,0-6.75-2.6c-.64-.14-1.29-.24-1.93-.32l-.43-.06c-1.1.18-1.71,1.25-2.74,1.55a8.28,8.28,0,0,1-5.72-.73l-.54.09a20.87,20.87,0,0,0-12.54,10.46,2.37,2.37,0,0,1,.07,1.48,10.92,10.92,0,0,0-.06,4.86c.37,1.2,1.75,2.55,1.72,3.82-.07,2.84-1.91,5.18,0,8.22a7.27,7.27,0,0,0,2.45,2.42c.87.5,2,.64,2.76,1.38s1.67,4.06,3.21,4.68l.66.29a22.93,22.93,0,0,0,3.85,1.17c10.72,2.24,21.32-3.52,24.8-13.06A4.89,4.89,0,0,0,127.93,193.28Zm-21,1.78a5.66,5.66,0,0,1-4.54-6.74,6,6,0,0,1,7.12-4.3,5.65,5.65,0,0,1,4.54,6.73A6,6,0,0,1,107,195.06Z"/><path class="cls-35" d="M109.05,181.15a7.85,7.85,0,0,0-9.36,5.62,7.43,7.43,0,0,0,6,8.83A7.86,7.86,0,0,0,115,190,7.42,7.42,0,0,0,109.05,181.15ZM107,195.06a5.66,5.66,0,0,1-4.54-6.74,6,6,0,0,1,7.12-4.3,5.65,5.65,0,0,1,4.54,6.73A6,6,0,0,1,107,195.06Z"/><path class="cls-36" d="M86.29,189.38c-.3,9.48,6.58,18.13,16.77,20.26,11.53,2.41,22.93-4.44,25.47-15.3a19.15,19.15,0,0,0-2.59-14.76l.55,1.38a24.17,24.17,0,0,1,1.13,7.4c-.1,7-3.33,15.78-15.23,18.42s-19.06-3.16-22.76-8.7a21.7,21.7,0,0,1-3.35-8.26Z"/><path class="cls-37" d="M107.37,195.93a8.54,8.54,0,0,1-1.73-.18,8,8,0,0,1-5.15-3.49,7.21,7.21,0,0,1-1-5.53,8,8,0,0,1,9.55-5.74,8,8,0,0,1,5.15,3.49,7.21,7.21,0,0,1,1,5.53A7.92,7.92,0,0,1,107.37,195.93Zm0-14.8a7.59,7.59,0,0,0-7.5,5.68,6.85,6.85,0,0,0,.91,5.28,7.88,7.88,0,0,0,14.12-2.15,6.88,6.88,0,0,0-.92-5.28A7.65,7.65,0,0,0,109,181.3,8.5,8.5,0,0,0,107.35,181.13Z"/><path class="cls-38" d="M107.71,210.44A23,23,0,0,1,103,210a23.54,23.54,0,0,1-3.91-1.18l-.67-.29c-1.09-.44-1.82-1.94-2.46-3.25a7,7,0,0,0-.85-1.51,4.08,4.08,0,0,0-1.56-.83,8,8,0,0,1-1.13-.49,7.62,7.62,0,0,1-2.56-2.53c-1.4-2.17-1-4-.53-5.83a12.78,12.78,0,0,0,.43-2.57,4.65,4.65,0,0,0-.89-2.14,7.46,7.46,0,0,1-.82-1.58,11.05,11.05,0,0,1,0-4.89l0-.11a2.27,2.27,0,0,0,0-1.27.34.34,0,0,1,0-.31,21.34,21.34,0,0,1,12.74-10.62h0l.54-.09a.34.34,0,0,1,.2,0,8,8,0,0,0,5.48.71,3.63,3.63,0,0,0,1.15-.69,3.67,3.67,0,0,1,1.63-.87h.1l.43.06c.64.08,1.3.19,1.94.32a22.33,22.33,0,0,1,6.86,2.65l0,0,.32.24a10.27,10.27,0,0,1,2.06,1.58,6.15,6.15,0,0,1,1,3,5.69,5.69,0,0,0,.82,2.52,7.3,7.3,0,0,0,1.48,1.32A4.81,4.81,0,0,1,127.1,184a5.35,5.35,0,0,1-.48,3.21,4.91,4.91,0,0,0-.46,2.74,4.19,4.19,0,0,0,.94,1.49,5.87,5.87,0,0,1,1.13,1.77,5.13,5.13,0,0,1-.08,3.53C125.1,205.07,116.78,210.44,107.71,210.44Zm-19-29.11a3.26,3.26,0,0,1,0,1.52V183a10.36,10.36,0,0,0,0,4.6,6.58,6.58,0,0,0,.74,1.44,4.82,4.82,0,0,1,1,2.49,13.72,13.72,0,0,1-.44,2.7c-.42,1.75-.81,3.39.44,5.33a6.81,6.81,0,0,0,2.34,2.32,6,6,0,0,0,1,.44,4.51,4.51,0,0,1,1.8,1,7.33,7.33,0,0,1,1,1.66c.56,1.16,1.26,2.59,2.13,2.94l.67.29a22.14,22.14,0,0,0,3.79,1.15c10.45,2.19,21-3.34,24.43-12.85a4.7,4.7,0,0,0,.07-3.08,5.53,5.53,0,0,0-1-1.57,4.58,4.58,0,0,1-1.06-1.75A5.36,5.36,0,0,1,126,187a4.84,4.84,0,0,0,.46-2.83,4.26,4.26,0,0,0-1.94-2.28,7.69,7.69,0,0,1-1.61-1.46,6.06,6.06,0,0,1-.94-2.8,5.65,5.65,0,0,0-.92-2.7,10.11,10.11,0,0,0-1.88-1.41l0,0-.33-.25a22,22,0,0,0-6.64-2.56c-.62-.13-1.26-.23-1.89-.31l-.39-.05a3.17,3.17,0,0,0-1.3.72,4,4,0,0,1-1.37.81,8.43,8.43,0,0,1-5.85-.71l-.41.07A20.72,20.72,0,0,0,88.7,181.33Z"/><path class="cls-39" d="M93.12,195.25a18.35,18.35,0,0,0,7.47,6.63,16.74,16.74,0,0,0,2.33.86,14.37,14.37,0,0,0,2.42.47,17.5,17.5,0,0,0,5-.17,19.31,19.31,0,0,0,4.77-1.41,13.49,13.49,0,0,0,4-2.71,12.46,12.46,0,0,0,2.69-4,13.61,13.61,0,0,0,.76-2.34c.1-.41.17-.81.23-1.22a10.41,10.41,0,0,0,.1-1.19v0a.75.75,0,0,1,.77-.74.77.77,0,0,1,.74.71,11.3,11.3,0,0,1,0,1.43c0,.46-.08.93-.15,1.38a14.91,14.91,0,0,1-.71,2.7,13.48,13.48,0,0,1-3,4.76,14.6,14.6,0,0,1-4.6,3.2,20.51,20.51,0,0,1-5.31,1.53,19,19,0,0,1-5.53,0,16.28,16.28,0,0,1-5.26-1.73,17.72,17.72,0,0,1-4.34-3.33A20.31,20.31,0,0,1,93.77,198a14.74,14.74,0,0,1-1.37-2.35.4.4,0,0,1,.2-.53.4.4,0,0,1,.5.15Z"/><path class="cls-40" d="M100.71,175.18a7.38,7.38,0,0,1,1-.68,11.6,11.6,0,0,1,1.07-.51,9.94,9.94,0,0,1,2.29-.62,11.93,11.93,0,0,1,1.19-.1h.61a3.8,3.8,0,0,1,.59.06,7.43,7.43,0,0,1,2.31.64.7.7,0,0,1,.36.92.72.72,0,0,1-.72.42h-.07a15.28,15.28,0,0,0-2-.17,11,11,0,0,0-2,.14,14.92,14.92,0,0,0-2,.43c-.32.11-.65.2-1,.32l-.93.35-.08,0a.71.71,0,0,1-.7-1.23Z"/><path class="cls-41" d="M107.69,210.44A22.79,22.79,0,0,1,103,210a21.47,21.47,0,0,1-13.93-9.45,19.41,19.41,0,0,1-2.6-14.95c2.57-11,14.17-18,25.84-15.54a21.54,21.54,0,0,1,13.93,9.45,19.38,19.38,0,0,1,2.6,14.95C126.62,203.94,117.64,210.44,107.69,210.44Zm-.07-40.27c-9.66,0-18.37,6.3-20.52,15.53a18.77,18.77,0,0,0,2.51,14.46,20.87,20.87,0,0,0,13.52,9.16c11.34,2.37,22.59-4.38,25.08-15a18.76,18.76,0,0,0-2.51-14.46,20.88,20.88,0,0,0-13.52-9.17A22.28,22.28,0,0,0,107.62,170.17Z"/><path class="cls-42" d="M99.45,176.28a4.54,4.54,0,0,1-.67,1.36,5.3,5.3,0,0,1-.46.6,3.09,3.09,0,0,1-.56.52.34.34,0,0,1-.48-.08.32.32,0,0,1,0-.28,3,3,0,0,1,.28-.72,5.14,5.14,0,0,1,.38-.64,5,5,0,0,1,1-1.12.34.34,0,0,1,.48.06A.36.36,0,0,1,99.45,176.28Z"/><path class="cls-43" d="M111.49,175.37,114,177Z"/><path class="cls-44" d="M111.67,175.1a2.53,2.53,0,0,1,.74.21,4.17,4.17,0,0,1,.66.35,3.55,3.55,0,0,1,.58.46,2.49,2.49,0,0,1,.48.61.37.37,0,0,1-.15.49.31.31,0,0,1-.21,0,2.44,2.44,0,0,1-.74-.2,3.39,3.39,0,0,1-.65-.36,3.66,3.66,0,0,1-.58-.46,3.21,3.21,0,0,1-.49-.6.36.36,0,0,1,.14-.5A.41.41,0,0,1,111.67,175.1Z"/><path class="cls-45" d="M119.08,187.46a3.33,3.33,0,0,1,.55.42c.15.16.3.33.44.5a2.7,2.7,0,0,1,.34.56,1.58,1.58,0,0,1,.14.71.39.39,0,0,1-.41.38l-.12,0a1.66,1.66,0,0,1-.6-.4,2.27,2.27,0,0,1-.39-.53,6.54,6.54,0,0,1-.3-.59,3.47,3.47,0,0,1-.19-.67.36.36,0,0,1,.54-.36Z"/><path class="cls-45" d="M94.12,182.25a3.33,3.33,0,0,1,.55.42,5.08,5.08,0,0,1,.44.5,3.27,3.27,0,0,1,.35.56,1.73,1.73,0,0,1,.14.71.4.4,0,0,1-.41.38l-.13,0a1.71,1.71,0,0,1-.59-.4,2.63,2.63,0,0,1-.4-.53,4.6,4.6,0,0,1-.29-.59,2.88,2.88,0,0,1-.19-.67.36.36,0,0,1,.3-.41A.37.37,0,0,1,94.12,182.25Z"/><path class="cls-46" d="M105,199.82l-.31,3.16Z"/><path class="cls-47" d="M105.27,199.85a4.83,4.83,0,0,1,.08,1.6,5.19,5.19,0,0,1-.12.79,3.75,3.75,0,0,1-.28.77.34.34,0,0,1-.46.15.32.32,0,0,1-.17-.21,3.38,3.38,0,0,1-.12-.81,5.35,5.35,0,0,1,0-.8,4.86,4.86,0,0,1,.4-1.55.34.34,0,0,1,.45-.16A.34.34,0,0,1,105.27,199.85Z"/><path class="cls-48" d="M111.28,193.33a5.29,5.29,0,0,1,1.32,0,4.27,4.27,0,0,1,1.28.34.36.36,0,0,1,.15.46.34.34,0,0,1-.24.18,4.17,4.17,0,0,1-1.32,0,4.58,4.58,0,0,1-1.28-.34.33.33,0,0,1-.17-.44A.35.35,0,0,1,111.28,193.33Z"/><path class="cls-42" d="M127.15,195.85a3.41,3.41,0,0,1,1.1-.3,3,3,0,0,1,1.14.08.29.29,0,0,1,.19.36.28.28,0,0,1-.13.17,3,3,0,0,1-1.11.3,3.17,3.17,0,0,1-1.14-.08.29.29,0,0,1-.2-.35A.34.34,0,0,1,127.15,195.85Z"/><path class="cls-42" d="M109.81,207.72a3,3,0,0,1,.45-1,2.75,2.75,0,0,1,.77-.79.28.28,0,0,1,.4.09.31.31,0,0,1,0,.21,2.68,2.68,0,0,1-.45,1,3,3,0,0,1-.77.79.27.27,0,0,1-.39-.08A.28.28,0,0,1,109.81,207.72Z"/><path class="cls-42" d="M93.88,194.43a3.4,3.4,0,0,1,1.11-.3,2.78,2.78,0,0,1,1.14.08.3.3,0,0,1,.19.36.39.39,0,0,1-.14.17,3,3,0,0,1-1.1.3,3.14,3.14,0,0,1-1.14-.08.29.29,0,0,1-.06-.53Z"/><path class="cls-49" d="M125,179.67l-.31,3.16Z"/><path class="cls-50" d="M125.27,179.71a4.81,4.81,0,0,1,.09,1.6,5.29,5.29,0,0,1-.13.78,3.21,3.21,0,0,1-.27.77.35.35,0,0,1-.47.15.33.33,0,0,1-.17-.21,3.24,3.24,0,0,1-.12-.81,7,7,0,0,1,0-.79,4.85,4.85,0,0,1,.4-1.56.34.34,0,0,1,.64.07Z"/><path class="cls-51" d="M108.27,195.51a6.88,6.88,0,0,1-1.35-.14,6.22,6.22,0,0,1-4-2.74,5.7,5.7,0,0,1-.76-4.38,6.41,6.41,0,0,1,11.52-1.81,5.72,5.72,0,0,1,.76,4.39A6.24,6.24,0,0,1,108.27,195.51Zm0-11.31a5.6,5.6,0,0,0-5.52,4.19,5.08,5.08,0,0,0,.68,3.9,5.78,5.78,0,0,0,10.36-1.61,5,5,0,0,0-.68-3.89,5.82,5.82,0,0,0-4.84-2.59Z"/><path class="cls-52" d="M121,198.8s-7.55.72-9.11,4.18,2.21,5.79,2.21,5.79Z"/><path class="cls-53" d="M113.87,208.45a4.57,4.57,0,0,1,.07-3,5.71,5.71,0,0,1,3.19-3.12,2.7,2.7,0,0,0,0-2.28c-.53-1.37-1.65-2.6-1.36-4a1.88,1.88,0,0,1,1.8-1.59,4.07,4.07,0,0,1,.2-2.26,1.91,1.91,0,0,1,2-.86,2,2,0,0,1,.59-2.29c1.67-1.48,4.07.19,4.07.19s.42-1.63,1.91-1.24,2.81,2.06,3.2,6.09c1,9.69-7.64,14.75-7.64,14.75a10.24,10.24,0,0,1-4,1C115,209.69,113.87,208.45,113.87,208.45Z"/><path class="cls-54" d="M121.19,201.86a.36.36,0,0,1-.24-.09.36.36,0,0,1,0-.51c.35-.4.16-2.12-.61-3.83s-1.78-2.68-2.72-2.68a.36.36,0,0,1,0-.72c1.24,0,2.47,1.13,3.37,3.11.75,1.64,1.18,3.82.5,4.59A.39.39,0,0,1,121.19,201.86Z"/><path class="cls-54" d="M124.29,199.92h-.08a.37.37,0,0,1-.27-.43,8.44,8.44,0,0,0-1.39-5.62,4.79,4.79,0,0,0-2.89-2.25.35.35,0,0,1-.28-.42.35.35,0,0,1,.41-.28,5.35,5.35,0,0,1,3.36,2.56,9.21,9.21,0,0,1,1.49,6.17A.36.36,0,0,1,124.29,199.92Z"/><path class="cls-54" d="M127.43,198.1h-.05a.36.36,0,0,1-.31-.4c0-.06.73-5.58-2.76-8.19a.36.36,0,0,1,.43-.57c3.82,2.86,3.08,8.61,3,8.85A.36.36,0,0,1,127.43,198.1Z"/><path class="cls-52" d="M90.25,190.75s3.52,2.8,2.78,7-2.61,3.91-2.61,3.91L86.78,196Z"/><path class="cls-53" d="M81.21,202a12,12,0,0,1-3.41-9.51c1-9.18,6.65-14.14,9-13.44a1.36,1.36,0,0,1,1,1.43s2.1-.74,2.75,1.13-1.37,3.2-1.37,3.2,1.56-.36,2.1.91c.7,1.64-1.09,3.32-1.09,3.32s.74.21.8,1.81c.06,2.11-2.43,5-2.43,5a5.58,5.58,0,0,1,1.84,2.71,6.61,6.61,0,0,1,0,3.08,9.89,9.89,0,0,1-4.58,1.62A8.92,8.92,0,0,1,81.21,202Z"/><path class="cls-54" d="M85.08,193.88H85a.36.36,0,0,1-.24-.45s1.58-5.12,5.55-4.68a.36.36,0,0,1,.31.4.34.34,0,0,1-.39.31c-3.38-.37-4.78,4.13-4.79,4.18A.36.36,0,0,1,85.08,193.88Z"/><path class="cls-54" d="M82.79,190.55H82.7a.35.35,0,0,1-.26-.43c1.16-4.77,6.7-5.64,6.75-5.65a.36.36,0,0,1,.11.71s-5.12.81-6.17,5.11A.35.35,0,0,1,82.79,190.55Z"/><path class="cls-54" d="M81.08,186.86a.35.35,0,0,1-.17,0,.36.36,0,0,1-.15-.48A12.84,12.84,0,0,1,87.89,180a.35.35,0,0,1,.44.24.36.36,0,0,1-.24.45,12.32,12.32,0,0,0-6.69,6A.37.37,0,0,1,81.08,186.86Z"/></g><circle class="cls-55" cx="128" cy="128" r="124.33"/></svg>