<svg xmlns="http://www.w3.org/2000/svg" xmlns:xlink="http://www.w3.org/1999/xlink" viewBox="0 0 1600 900"><defs><style>.cls-1{fill:none;}.cls-2{isolation:isolate;}.cls-3{clip-path:url(#clip-path);}.cls-4{fill:#04002e;}.cls-5{fill:#111149;opacity:0.2;}.cls-6{fill:#0a0942;opacity:0.4;}.cls-10,.cls-11,.cls-41,.cls-7,.cls-8,.cls-9{fill-rule:evenodd;}.cls-7{fill:url(#radial-gradient);}.cls-8{mix-blend-mode:multiply;fill:url(#radial-gradient-2);}.cls-10,.cls-9{mix-blend-mode:screen;}.cls-9{fill:url(#radial-gradient-3);}.cls-10{fill:url(#radial-gradient-4);}.cls-11{fill:#ef7418;}.cls-12{fill:#7ac943;}.cls-13{fill:#a62ca2;}.cls-14{fill:#ec008c;}.cls-15{fill:#f400f4;}.cls-16{fill:#29abe2;}.cls-17{fill:#ff9cc2;}.cls-18{fill:#fbbe00;}.cls-19{fill:#581600;}.cls-20{fill:#f8af00;}.cls-21{fill:#ffcd00;}.cls-22{fill:#4e3f87;}.cls-23{fill:#312782;}.cls-24{fill:#89d1f5;}.cls-25{fill:#fbae17;}.cls-26{fill:#240000;}.cls-27{fill:#ffca05;}.cls-28{fill:#d62629;}.cls-29{fill:#8098cd;}.cls-30{fill:#fcb900;}.cls-31{fill:#ffb600;}.cls-32{fill:#fc9000;}.cls-33,.cls-41{fill:#fc7900;}.cls-34{fill:#fcb700;}.cls-35{fill:#fc8800;}.cls-36{fill:#f7dcbf;opacity:0.68;}.cls-37{fill:#edd8c3;opacity:0.57;}.cls-38{fill:url(#linear-gradient);}.cls-39{opacity:0.1;}.cls-40{fill:#e83136;}.cls-42{fill:#231f20;}.cls-43{fill:#f2e9dd;}</style><clipPath id="clip-path"><rect class="cls-1" width="1600" height="900"/></clipPath><radialGradient id="radial-gradient" cx="662.31" cy="266.81" r="610.1" gradientUnits="userSpaceOnUse"><stop offset="0" stop-color="#fcf800"/><stop offset="1" stop-color="#fc9700"/></radialGradient><radialGradient id="radial-gradient-2" cx="679.38" cy="242.79" r="635.2" gradientUnits="userSpaceOnUse"><stop offset="0" stop-color="#fff"/><stop offset="0.1" stop-color="#fffdf9"/><stop offset="0.22" stop-color="#fff7e9"/><stop offset="0.36" stop-color="#ffeccf"/><stop offset="0.51" stop-color="#ffdeaa"/><stop offset="0.67" stop-color="#ffcc7a"/><stop offset="0.84" stop-color="#ffb641"/><stop offset="1" stop-color="#ff9d00"/></radialGradient><radialGradient id="radial-gradient-3" cx="588.51" cy="153.81" r="540.22" gradientUnits="userSpaceOnUse"><stop offset="0" stop-color="#fff261"/><stop offset="0.11" stop-color="#faee5f"/><stop offset="0.23" stop-color="#ede15a"/><stop offset="0.36" stop-color="#d6cb52"/><stop offset="0.5" stop-color="#b7ad46"/><stop offset="0.64" stop-color="#8e8736"/><stop offset="0.78" stop-color="#5c5823"/><stop offset="0.92" stop-color="#23210d"/><stop offset="1"/></radialGradient><radialGradient id="radial-gradient-4" cx="675.95" cy="217.35" r="320.76" gradientUnits="userSpaceOnUse"><stop offset="0" stop-color="#fffacf"/><stop offset="1"/></radialGradient><linearGradient id="linear-gradient" x1="1008.65" y1="410.7" x2="1111.13" y2="410.7" gradientUnits="userSpaceOnUse"><stop offset="0" stop-color="#fcbe00"/><stop offset="1" stop-color="#fcb600"/></linearGradient></defs><g class="cls-2"><g id="Layer_1" data-name="Layer 1"><g class="cls-3"><rect class="cls-4" x="-2.17" y="-5.33" width="1604.33" height="910.66"/><ellipse class="cls-5" cx="492.3" cy="495.7" rx="467.84" ry="423.86"/><ellipse class="cls-5" cx="1127.35" cy="495.7" rx="467.84" ry="423.86"/><ellipse class="cls-6" cx="825" cy="511.48" rx="467.84" ry="423.86"/><path class="cls-7" d="M981.35,751.27a21.73,21.73,0,0,0,27-19.59c4.06-58.86-28.62-173.35-20-199.79S1090.61,432,1121.92,382a21.73,21.73,0,0,0-10.3-31.69c-54.72-22.05-173.7-26.35-196.2-42.69S852.06,179.46,814.18,134.23a21.73,21.73,0,0,0-33.32,0C743,179.46,702.13,291.29,679.63,307.64s-141.48,20.64-196.21,42.69A21.73,21.73,0,0,0,473.13,382c31.31,50,125,123.42,133.64,149.87s-24.09,140.94-20,199.79a21.74,21.74,0,0,0,27,19.59c57.23-14.33,156-80.79,183.83-80.79s126.59,66.46,183.82,80.79Z"/><path class="cls-8" d="M1101.88,382.27c-66.15,47.45-103.39,75.83-161.17,113.93-7.78,5.13-15.24,16.1-12.5,25,16.94,55,65.31,143.07,68.78,198,2,32.33-25.55,22.51-41.79,15.53-56-24.08-93.67-58.06-147.35-85.52-20.18-10.33-35.1-7.29-52.85,4.36-32.28,21.18-90,72.85-138,87.86-13.55,4.24-22.06,3.24-27.45-3a21.8,21.8,0,0,0,26.4,15.86C673.16,740,772,673.5,799.76,673.5S926.36,740,983.59,754.29a21.74,21.74,0,0,0,26.95-19.59c4.07-58.86-28.61-173.35-20-199.8S1092.85,435,1124.16,385a21.73,21.73,0,0,0-10.3-31.69C1059.14,331.3,940.15,327,917.65,310.66S854.3,182.47,816.42,137.25a21.73,21.73,0,0,0-33.32,0,219.41,219.41,0,0,0-17.86,25.41c16.54-17.35,33.71-28.06,49-4.09,28.44,44.47,40.82,92.21,56.16,137.09,9.61,28.12,15.34,39.61,70.58,43.45,63.29,4.38,115.88,8.66,153.57,15C1115.33,357.63,1115.85,372.26,1101.88,382.27Z"/><path class="cls-9" d="M759.53,174.68c-17.94,33.28-33.6,69.64-50.37,103.51-14.29,28.88-19.53,46-55.23,52.11-44.13,7.58-89.17,8.84-133.38,16-47.85,7.72-59.1,18.58-24.31,57C516.85,426,611,511.31,617.21,532.18c5.48,18.43-4.8,52.26-5.65,73.56-.41,10.09,3.44,25.06,20.14,6.61,130-143.6,163.12-170.4,352.21-233.42,20.37-6.79,41.19-11.79,61.84-18.07,5.74-1.74,13.48-7.42-3.48-9.72-59.14-8-106.47-1.63-157.69-6.26-22.81-2.05-37.42-29.53-44.47-48.62-14.89-40.35-22.63-83.06-36.82-123.66-11.13-31.84-31.75-20.21-43.76,2.08Z"/><path class="cls-10" d="M608.25,361.73c-12.16-2.4-9.14-15.08,2.09-17.71,18.15-4.26,37.1-5.07,55.23-9.38,18.49-4.4,29.72-10.44,40.64-33C725.63,261.5,745.3,210,766,174.51c7.46-12.83,15.87-10.86,13.89,3.47-6.3,45.52-17,88.9-29.87,134.08-6.48,22.83-13.81,47.28-45.16,51.06-23,2.77-72.62,3.34-96.57-1.39Zm-44.62-14.59c-14.29,1-42.88,4.5-60.38,10.59-19,6.63-15.08,10.81,2.2,11.75a432.1,432.1,0,0,0,55.4-.46c25.94-1.92,22.43-23.28,2.78-21.88Z"/><path class="cls-11" d="M603.44,574.85c3.14-21.78,4.62-39.25,1.87-47.72C596.72,500.69,503,427.27,471.67,377.27a21.15,21.15,0,0,1-3.37-11.4c-2.21,9.65-3.49,22.87,1.87,36.05a54.54,54.54,0,0,0,15.4,20.84C499.58,435,532.24,474.91,603.44,574.85Z"/><path class="cls-12" d="M576.44,657.15c4.52,0,9-3.58,9.18-8.25S581.48,641,577,641s-9,3.58-9.18,8.25,4.14,7.9,8.58,7.9Z"/><path class="cls-12" d="M1156.51,293.4c-4.48.56-8.49,4.67-8.08,9.33s5.09,7.32,9.5,6.76,8.49-4.67,8.08-9.32-5.09-7.32-9.5-6.77Z"/><path class="cls-12" d="M411.48,150a4.19,4.19,0,0,0,1-5.56,3.68,3.68,0,0,0-5.31-.41,4.18,4.18,0,0,0-1,5.55,3.68,3.68,0,0,0,5.31.42Z"/><path class="cls-13" d="M1129.19,140.78a5.35,5.35,0,0,0,7-1.87c1.36-2.44-.07-5.21-2.38-6.39a5.36,5.36,0,0,0-7,1.87c-1.36,2.45.07,5.21,2.38,6.39Z"/><path class="cls-12" d="M1160.81,192.66a4.18,4.18,0,0,0,4.19-3.77,3.68,3.68,0,0,0-3.92-3.61,4.18,4.18,0,0,0-4.19,3.77,3.69,3.69,0,0,0,3.92,3.61Z"/><path class="cls-14" d="M367.15,71.48c1.1-4.93,1.37-9.05,2.72-13.77,1,3,3.85,13.44,3.85,13.44s10.74.91,13.75,1.27c-4.68,2.08-14.15,4.27-14.15,4.27s-1.23,6.86-2.88,12.89A97.69,97.69,0,0,1,367.7,77s-9.05-.82-14.53-2.47C357.83,73.4,361.67,72.58,367.15,71.48Z"/><path class="cls-12" d="M524.78,131.62c1.09-4.94,1.37-9.05,2.72-13.78,1,3,3.84,13.45,3.84,13.45s10.75.9,13.75,1.27c-4.68,2.08-14.14,4.27-14.14,4.27s-1.24,6.86-2.88,12.89a98.73,98.73,0,0,1-2.75-12.62s-9.05-.82-14.53-2.46C515.45,133.54,519.29,132.72,524.78,131.62Z"/><path class="cls-12" d="M1421,573.93c.82-3.7,1-6.78,2-10.32.77,2.27,2.88,10.07,2.88,10.07s8,.68,10.3,1a79.73,79.73,0,0,1-10.6,3.2s-.92,5.14-2.15,9.66a73.66,73.66,0,0,1-2.06-9.45,71,71,0,0,1-10.88-1.85C1414,575.37,1416.87,574.75,1421,573.93Z"/><path class="cls-12" d="M279.56,303.15c1.67-7.52,2.09-13.78,4.14-21,1.57,4.61,5.85,20.48,5.85,20.48s16.36,1.38,20.94,1.93c-7.13,3.16-21.54,6.5-21.54,6.5s-1.87,10.44-4.38,19.63a150.31,150.31,0,0,1-4.18-19.21s-13.78-1.25-22.13-3.76C265.36,306.07,271.21,304.82,279.56,303.15Z"/><path class="cls-15" d="M557.4,266.57a5,5,0,0,0,1.77-3.31l.2-5.86c0-1.14.59-1.36,1.32-.48l3.86,4.66a3.58,3.58,0,0,0,3.35,1l5.93-1.45c1.1-.27,1.41.22.68,1.1l-3.37,4.15a2.17,2.17,0,0,0,.14,3l4.46,4.29c.82.79.57,1.3-.56,1.13l-6.3-1a3.34,3.34,0,0,0-3.09,1.51l-3.47,5.55c-.6,1-1.09.83-1.09-.31l-.15-6.67a2.19,2.19,0,0,0-2.07-2.16l-6-.29c-1.14,0-1.31-.62-.38-1.28Z"/><path class="cls-15" d="M177.61,521.42c10.8,3.64,24.08.57,31.14-8.65a19.16,19.16,0,0,0,3.56-15.39A21.48,21.48,0,0,0,204,485c-8.46-6.32-22.22-7.62-28.9,2a16.08,16.08,0,0,0-1.46,15A16.48,16.48,0,0,0,187,511.86a13,13,0,0,0,9.46-2.77,8.94,8.94,0,0,0,2.53-9.45,9.44,9.44,0,0,0-8.57-6.63,7.71,7.71,0,0,0-8,5.92c-.62,2.19,4.07,4.17,4.79,1.62a4.48,4.48,0,0,1,4.77-3.48,2.32,2.32,0,0,1,1.67,1,5.49,5.49,0,0,1,.94,3.51c-.12,4.78-5.84,7.09-9.7,6.11-4.64-1.17-7.6-5.73-7.66-10.43a13,13,0,0,1,7.34-12A15,15,0,0,1,191.5,484a18.39,18.39,0,0,1,6.38,1.51,17.14,17.14,0,0,1,9.09,9.31c1.9,4.75.74,10.13-1.93,14.32-3,4.64-8,7.53-13.25,8.93a24,24,0,0,1-13.65-.35c-1-.32-2.48-.22-2.66,1s1.08,2.3,2.13,2.65Z"/><path class="cls-14" d="M345.61,467.81a5.4,5.4,0,0,0-5.41.22,5.06,5.06,0,0,0-1,.83,6.21,6.21,0,0,1-1-1.51,5.72,5.72,0,0,1-.45-3.48,3,3,0,0,1,.13-.45,7.59,7.59,0,0,0,4.56,1.56c1.86,0,4.67-1,3.88-3.39-.64-2-3.38-2.11-5.06-1.86a9.11,9.11,0,0,0-3.06,1,7.28,7.28,0,0,1-.76-1.68,7,7,0,0,1-.25-2.95c.41.2.82.39,1.23.55,2.41,1,5.42,1.12,7.57-.56,1.48-1.14,2-3.19.53-4.59-1.79-1.72-5-1.65-7.16-.81a6.39,6.39,0,0,0-3.16,2.56,6.87,6.87,0,0,1-1.9-2.43c-.37-.86-2.44-.25-2.09.56a8.89,8.89,0,0,0,3.17,3.66,8.32,8.32,0,0,0,.81,6.48c.12.19.24.37.38.55a4.18,4.18,0,0,0-.71,1.25,6.65,6.65,0,0,0,1.72,6.76c.17.17.34.32.52.47-1.3,3.32.46,8.08,2.44,10.59.54.69,2.54-.1,1.93-.89a12.4,12.4,0,0,1-2.64-7.66,6.59,6.59,0,0,1,.11-1.08,6.89,6.89,0,0,0,4.89-.51,2.71,2.71,0,0,0,1.67-1.7A1.54,1.54,0,0,0,345.61,467.81Zm-7.4-14.49a4.64,4.64,0,0,1,5.27-1.51c1.59.49,2.38,2.19,1.19,3.39a3.42,3.42,0,0,1-2.51.77,9.39,9.39,0,0,1-3.74-1.2c-.25-.13-.51-.28-.77-.44A6.65,6.65,0,0,1,338.21,453.32Zm1,8.46c1.24-.7,3.48-1.24,4.63-.14a1.46,1.46,0,0,1,.44.88,1.36,1.36,0,0,1,0,.49.46.46,0,0,1-.18.29c.13-.14-.07.05-.09.06l0,0-.09,0,0,0-.07,0-.21.06a4.44,4.44,0,0,1-1.45,0,5.38,5.38,0,0,1-3-1.61Zm4.86,8a3.2,3.2,0,0,1-.55.26,3.49,3.49,0,0,1-3-.12,3.92,3.92,0,0,1,.57-.72,2.34,2.34,0,0,1,.83-.49,2.42,2.42,0,0,1,1-.11,1.73,1.73,0,0,1,1.43.72c0-.07,0,.14,0,.1a.44.44,0,0,1,0,.1c0,.05-.07.12,0,0C344.22,469.77,344.28,469.68,344.09,469.81Z"/><path class="cls-16" d="M881.77,89.84c-8.09-2-22.57-4.6-24.6-14-2.31-11.23,11.07-15.59,17.39-6.69,0-10.13,11.3-17,16.75-6.5C895.6,70.9,886,81.85,881.77,89.84Z"/><path class="cls-16" d="M964.56,129.08c-1.85-5.08-5.62-13.86-1.28-18.32,5.24-5.29,12.41.39,9.86,7,5.49-3.63,13.23,0,9.53,6.73C979.77,129.76,970.4,128.49,964.56,129.08Z"/><path class="cls-16" d="M414.91,417.47c-9.43-.64-26.07-.87-30.12-11-4.72-12.14,9.45-19.56,18.22-10.79-1.91-11.36,9.45-21.14,17.55-10.46C426.92,393.63,418.13,407.72,414.91,417.47Z"/><path class="cls-17" d="M414.91,417.47c-8.13-1.82-21.22-3.34-24.33-11.1-3.62-9.31,8.32-12.32,15-5.6-1.47-8.7,4.87-16,10.44-12.95C424.27,392.3,417.07,408.9,414.91,417.47Z"/><path class="cls-16" d="M1389.79,495.65c-9.42-.65-26.06-.87-30.11-11-4.72-12.14,9.45-19.56,18.22-10.79-1.91-11.36,9.44-21.14,17.54-10.46C1401.81,471.8,1393,485.89,1389.79,495.65Z"/><path class="cls-17" d="M1389.79,495.65c-8.13-1.83-21.22-3.35-24.32-11.11-3.62-9.31,8.31-12.32,15-5.59-1.47-8.71,4.87-16,10.43-13C1399.15,470.47,1392,487.07,1389.79,495.65Z"/><path class="cls-16" d="M1373.29,292.59c-9.43-.65-26.07-.87-30.12-11-4.72-12.15,9.45-19.57,18.22-10.8-1.91-11.36,9.45-21.14,17.55-10.46C1385.3,268.74,1376.51,282.83,1373.29,292.59Z"/><path class="cls-17" d="M1373.29,292.59c-8.13-1.83-21.22-3.35-24.33-11.1-3.62-9.31,8.31-12.33,15-5.6-1.47-8.71,4.87-16,10.44-13C1382.65,267.41,1375.45,284,1373.29,292.59Z"/><path class="cls-12" d="M1006.59,259.17c.88-8.46,1.6-23.4,10.82-26.72,11.06-3.87,17.29,9.09,9.13,16.7,10.27-1.36,18.71,9.15,8.86,16.1C1027.65,270.71,1015.26,262.37,1006.59,259.17Z"/><path class="cls-17" d="M1006.59,259.17c1.9-7.25,3.67-19,10.74-21.52,8.48-3,10.81,7.86,4.56,13.69,7.87-1.05,14.22,4.87,11.32,9.78C1028.93,268.36,1014.23,261.37,1006.59,259.17Z"/><path class="cls-12" d="M99.23,190.78c.88-8.45,1.6-23.4,10.82-26.72,11.06-3.87,17.29,9.1,9.13,16.71,10.27-1.37,18.71,9.14,8.85,16.09C120.29,202.32,107.9,194,99.23,190.78Z"/><path class="cls-17" d="M99.23,190.78c1.89-7.25,3.67-19,10.74-21.51,8.47-3,10.81,7.85,4.56,13.68,7.87-1,14.22,4.88,11.32,9.78C121.57,200,106.87,193,99.23,190.78Z"/><path class="cls-14" d="M1150.26,131c-3.93-5.4-10.31-8.91-16.72-10.4-11.5-2.67-23.56.71-31.36,8.84a4.66,4.66,0,0,0-3.25,2.24,37.58,37.58,0,0,0-1.61,4.53,30.91,30.91,0,0,0-1.64,3.71c-.27.75-.52,1.5-.75,2.26-.31,1,.29,1.64,1.13,2a25.92,25.92,0,0,0,2.39,11.84,29.72,29.72,0,0,0,16.27,14.8,30.15,30.15,0,0,0,23.09-.63c8-3.59,13.61-11.08,16-19.42A23,23,0,0,0,1150.26,131Zm-9.46,29.11a23.73,23.73,0,0,1-2.91,3.1,24.11,24.11,0,0,1-2.63,1.82,13.69,13.69,0,0,1-6.1,1.86,19.82,19.82,0,0,1-6.57-.6,23.35,23.35,0,0,1-7.21-3.26c-9.14-5.95-12.23-16.7-9.59-26.7a23.4,23.4,0,0,1,3.23-4.56,18.21,18.21,0,0,1,7.41-5l.09,0,.3-.09c.38-.13.77-.23,1.15-.34s.78-.2,1.16-.29l.67-.13q1-.15,2.1-.24c.39,0,.79,0,1.18-.06h.88a23.65,23.65,0,0,1,9,1.91,21.09,21.09,0,0,1,12,12.15C1147.29,146.53,1145.15,154.54,1140.8,160.15Z"/><path class="cls-12" d="M685.44,149.17a9,9,0,0,0-11.19.14,1.76,1.76,0,0,0-.51.7,8.15,8.15,0,0,0,1.92,11c4,2.9,9.15,1.54,12-2.33C689.93,155.46,688.39,151.27,685.44,149.17Zm-1.67,7.22a4.59,4.59,0,0,1-2.6,1.77,6.15,6.15,0,0,0-.64.05,1.54,1.54,0,0,0-.23,0l-.34-.06c-.15,0-.3-.07-.45-.12.18.08.14.06-.11,0s-.87-.48-.72-.37a3.87,3.87,0,0,1-1.65-2.46,5.49,5.49,0,0,1,0-1.3,4.81,4.81,0,0,1,.63-1.63L678,152l.19-.1a2.67,2.67,0,0,1,.26-.09c.08,0,.67-.15.59-.15.25,0,.49,0,.73,0h.2l.29,0a6.45,6.45,0,0,1,.84.21l.1,0,.38.16a8.62,8.62,0,0,1,.94.52c-.32-.2.32.27.38.32a5.39,5.39,0,0,1,.54.53c-.16-.16.25.36.3.43s.25.51.26.49a4.84,4.84,0,0,1,.14.51c-.07-.31,0,.34,0,.46A2.76,2.76,0,0,1,683.77,156.39Z"/><path class="cls-16" d="M428.62,248.12c-5.32,11-22.75,4.89-17.46-6.91S433.94,236.42,428.62,248.12Zm-23.27-2.81c-4.67,2.33-10.5,8.16-6.22,13.61,3.89,4.66,10.11,1.16,14.39-1.56-1,4.67-.78,12.83,5.44,12.06,5.83-.39,7.78-8,7-12.84,10.11,13.23,18.27-6.61,7.39-9.33,11.66,3.5,11.66-13.61.39-10.89,10.88-3.5,1.16-19.44-10.11-7.38-1.17-4.28-1.56-10.5-8.17-9.34-6.22,1.17-6.42,7.78-3.31,12.06C400.29,224.89,391.35,241.22,405.35,245.31Z"/><path class="cls-13" d="M1087.49,641.39c-4.76,9.85-20.38,4.38-15.64-6.19S1092.26,630.91,1087.49,641.39Zm-20.85-2.52c-4.18,2.09-9.4,7.32-5.57,12.19,3.48,4.18,9.06,1.05,12.89-1.39-.87,4.18-.7,11.5,4.88,10.8,5.22-.35,7-7.14,6.27-11.5,9.06,11.85,16.38-5.92,6.62-8.36,10.45,3.14,10.45-12.19.35-9.76,9.75-3.13,1-17.42-9.06-6.62-1-3.83-1.39-9.4-7.32-8.36-5.57,1-5.75,7-3,10.8C1062.11,620.58,1054.1,635.21,1066.64,638.87Z"/><path class="cls-14" d="M1422.27,872.53c1.76-7.89,2.2-14.47,4.35-22,1.65,4.84,6.14,21.5,6.14,21.5s17.18,1.45,22,2c-7.48,3.32-22.6,6.82-22.6,6.82s-2,11-4.61,20.61a158,158,0,0,1-4.38-20.17s-14.46-1.31-23.23-3.94C1407.37,875.59,1413.51,874.28,1422.27,872.53Z"/><path class="cls-14" d="M1265,361.76c1.76-7.89,2.19-14.46,4.35-22,1.65,4.84,6.14,21.5,6.14,21.5s17.18,1.44,22,2c-7.48,3.32-22.61,6.82-22.61,6.82s-2,11-4.6,20.6a156,156,0,0,1-4.38-20.16s-14.47-1.31-23.23-3.94C1250.05,364.83,1256.19,363.52,1265,361.76Z"/><path class="cls-13" d="M104.78,746.3c-8.82,4.46-15,14.55-13.61,24.53a16.66,16.66,0,0,0,7.36,11.57,18.63,18.63,0,0,0,12.73,2.38c9.06-1.38,18.24-9.1,16.38-19.07a14,14,0,0,0-8.36-10A14.33,14.33,0,0,0,105,757.9a11.3,11.3,0,0,0-4,7.54,7.76,7.76,0,0,0,4.31,7.32,8.18,8.18,0,0,0,9.31-1.26,6.69,6.69,0,0,0,1.2-8.55c-1-1.71-5.06,0-3.92,2a3.88,3.88,0,0,1-.74,5.07,2.06,2.06,0,0,1-1.64.43,4.79,4.79,0,0,1-2.75-1.56c-2.88-3-.82-7.93,2.13-9.72,3.54-2.16,8.17-1.22,11.12,1.6a11.32,11.32,0,0,1,2.93,11.84,12.87,12.87,0,0,1-3.43,5.07,16.19,16.19,0,0,1-4.82,3,14.89,14.89,0,0,1-11.3-.05c-4.1-1.71-6.72-5.7-7.68-9.91-1.06-4.67.23-9.56,2.54-13.64a20.8,20.8,0,0,1,8.53-8.23c.78-.39,1.64-1.4,1-2.28s-2.08-.73-2.94-.29Z"/><path class="cls-14" d="M352.65,725c-2.18-4.45-6.46-12.12-2.92-16.61,4.28-5.33,11.37-.84,9.68,5.45,4.66-3.84,12.09-1.25,9.35,5.23C366.62,724.17,357.93,723.91,352.65,725Z"/><path class="cls-14" d="M179.89,669.32c-2.18-4.45-6.46-12.12-2.92-16.61,4.28-5.33,11.37-.83,9.68,5.45,4.66-3.84,12.08-1.25,9.35,5.23C193.85,668.49,185.17,668.23,179.89,669.32Z"/><path class="cls-14" d="M1324.87,790.9a6.1,6.1,0,0,0,2.16-4l.25-7.17c0-1.39.72-1.65,1.62-.58l4.71,5.7a4.4,4.4,0,0,0,4.09,1.27l7.26-1.77c1.35-.34,1.72.26.83,1.33l-4.11,5.08a2.65,2.65,0,0,0,.17,3.64l5.44,5.24c1,1,.7,1.59-.67,1.38l-7.71-1.19a4.11,4.11,0,0,0-3.78,1.86l-4.25,6.78c-.73,1.18-1.33,1-1.32-.38l-.19-8.15a2.68,2.68,0,0,0-2.53-2.64l-7.28-.35c-1.39-.06-1.6-.77-.47-1.58Z"/><path class="cls-16" d="M1477.45,749.51c-8.09-1.94-22.57-4.59-24.6-14-2.31-11.23,11.07-15.59,17.39-6.69,0-10.13,11.3-17,16.75-6.5C1491.28,730.58,1481.67,741.52,1477.45,749.51Z"/><path class="cls-16" d="M1429.39,221.74c-8.08-1.94-22.56-4.59-24.59-14-2.31-11.23,11.06-15.59,17.39-6.69,0-10.14,11.29-17,16.75-6.5C1443.23,202.81,1433.62,213.75,1429.39,221.74Z"/><path class="cls-12" d="M1267.19,882.49a9,9,0,0,0-11.2.14,1.81,1.81,0,0,0-.5.7,8.13,8.13,0,0,0,1.91,10.95c4,2.9,9.15,1.54,12-2.33C1271.67,888.78,1270.14,884.59,1267.19,882.49Zm-1.67,7.22a4.68,4.68,0,0,1-2.6,1.78c.15,0-.54,0-.64,0H1262l-.34-.06a3.74,3.74,0,0,1-.45-.12l-.1,0c-.18-.07-.87-.48-.72-.37a3.8,3.8,0,0,1-1.65-2.46,5.48,5.48,0,0,1,0-1.3,4.8,4.8,0,0,1,.62-1.63l.39-.26.19-.1.25-.09c.08,0,.67-.14.6-.15.24,0,.48,0,.72,0h.21l.28,0a8.11,8.11,0,0,1,.85.21l.1,0,.37.16a6.67,6.67,0,0,1,.94.53c-.32-.21.32.26.38.31s.37.35.54.53c-.16-.16.26.36.3.43s.26.51.26.5a4.13,4.13,0,0,1,.15.5c-.08-.31,0,.34,0,.46A3.06,3.06,0,0,1,1265.52,889.71Z"/><path class="cls-18" d="M292.82,156.18s-1.52,14.84-1.61,18.26c0,0-9.21,1.5-13,2.4a114.91,114.91,0,0,0,11.95,7.36s-1.51,11.44-1.68,14.46a51,51,0,0,0,10.62-12.24s9.95,3.82,13.58,5.27c0,0-4.19-9.79-4.72-11.83,0,0,5.3-6.2,8-10.27,0,0-10.85,1.19-13.88,1.76C302.07,171.35,293.15,156.53,292.82,156.18Z"/><path class="cls-19" d="M299.54,175.23c.15.71-.05,1.36-.46,1.45s-.87-.42-1-1.13.05-1.37.46-1.46S299.38,174.51,299.54,175.23Z"/><path class="cls-19" d="M296.21,175.88c.16.72,0,1.37-.46,1.45s-.86-.41-1-1.13.05-1.36.46-1.45S296.06,175.17,296.21,175.88Z"/><path class="cls-19" d="M292.64,178.71c.87,1.44,3.29,2.13,4.86,1.91,2-.28,4.13-1.43,4.62-3.54,0-.17-.2-.31-.29-.14a5.58,5.58,0,0,1-4.1,3.13c-2,.41-3.39-.69-5.06-1.39,0,0,0,0,0,0Z"/><path class="cls-20" d="M280,565.64v21.47a.37.37,0,0,1-.73,0V565.64a.37.37,0,0,1,.73,0Z"/><path class="cls-20" d="M289.56,577c-7,0-14-.37-20.95.62-.46.06-.66-.64-.19-.7,7-1,14.08-.67,21.14-.65a.37.37,0,0,1,0,.73Z"/><path class="cls-20" d="M273.91,569.75c1.93,5.06,8,7.4,11.49,11.21.32.34-.2.86-.52.51-3.61-3.92-9.67-6.29-11.67-11.52-.17-.44.54-.63.7-.2Z"/><path class="cls-20" d="M286,570.38c-2.31,1.36-4.07,3.88-5.71,6-1.86,2.34-3.6,4.78-5.37,7.19-.27.38-.9,0-.62-.36,1.8-2.47,3.59-4.94,5.48-7.35,1.66-2.13,3.48-4.66,5.85-6.06a.37.37,0,0,1,.37.63Z"/><path class="cls-20" d="M1319.36,100.67v21.47a.37.37,0,0,1-.73,0V100.67a.37.37,0,0,1,.73,0Z"/><path class="cls-20" d="M1328.89,112c-7,0-14-.37-21,.61-.46.06-.66-.63-.19-.7,7-1,14.08-.67,21.14-.64a.37.37,0,0,1,0,.73Z"/><path class="cls-20" d="M1313.24,104.79c1.93,5.06,8,7.39,11.49,11.2.32.35-.2.86-.52.52-3.61-3.92-9.67-6.29-11.67-11.53-.17-.44.54-.63.7-.19Z"/><path class="cls-20" d="M1325.29,105.41c-2.31,1.37-4.07,3.89-5.71,6-1.86,2.34-3.6,4.78-5.37,7.2-.27.38-.9,0-.62-.37,1.8-2.47,3.59-4.94,5.48-7.34,1.66-2.13,3.48-4.67,5.85-6.07a.37.37,0,0,1,.37.63Z"/><path class="cls-21" d="M502,688.46c.29,3.49.51,7.34.51,11.13l.43-.07c1.9-3.06,4.37-5.39,6.48-8.3a.55.55,0,0,1,.58.22c-1.38,3.06-4.44,5.6-5.89,8.36-.5.73-1.31,1.31-1.6,2,4.29.07,9.17-.44,13-.36-.36,1.31-1.82,1.09-2.91,1.23-3.05-.07-5.6.44-8.81.3l-.14.14c3,3.57,7.5,5.89,9.17,10.11a.53.53,0,0,1-.51.22c-2.91-3.64-6.4-6.18-9.6-9.45-.29,5.16.58,10.18-.15,15.56a2.76,2.76,0,0,1-.94-1.74c0-5-.29-9.6-.43-14.55l-.95,1c-2.4,2.91-3.79,7.13-7.35,8.94l-.22-.07c.15-1.17,1.6-1.74,2-2.91l4.73-6.77c-1.1-.43-2.33,0-3.64,0-2.33-.29-4.73.22-7.06-.43-.21-.22-.65-.44-.43-.8,1.45-.51,3,.22,4.79.07,2.33-.14,4.74-.07,7.28-.37a116.63,116.63,0,0,1-8.73-9.16c.36-.65,1.1-.07,1.45.22,2.63,2.69,5.1,5.38,8,7.86l.14-.29c-.29-4.66-.14-9.75-.43-14.11C502.42,685.77,501.47,688,502,688.46Z"/><path class="cls-21" d="M1285.19,201.31v23.54a.4.4,0,0,1-.8,0V201.31a.4.4,0,0,1,.8,0Z"/><path class="cls-21" d="M1295.64,213.71c-7.67,0-15.35-.4-23,.68-.5.07-.72-.7-.21-.77,7.7-1.09,15.45-.73,23.19-.71a.4.4,0,0,1,0,.8Z"/><path class="cls-21" d="M1278.48,205.82c2.12,5.55,8.75,8.11,12.6,12.29.34.38-.22.94-.57.56-4-4.3-10.61-6.89-12.8-12.64-.19-.48.59-.68.77-.21Z"/><path class="cls-21" d="M1291.69,206.5c-2.53,1.5-4.45,4.26-6.26,6.53-2,2.57-4,5.24-5.88,7.89-.31.41-1,0-.69-.4,2-2.71,3.94-5.42,6-8.06,1.83-2.33,3.81-5.11,6.41-6.65a.4.4,0,0,1,.41.69Z"/><path class="cls-22" d="M1013.07,655.64c2.66-1.5,7.8-2.66,8.91.38,1.33,3.62-4.57,4.65-7.86,3.22,1.7.94,5.1,4.37,3.53,6.4-2.28,3-6.18-1.26-7-3.8-.69,3.57-5.42,10.23-7.52,4.46-.86-2.36.68-4.9,4.95-7.71-4.25-1.65-7.64-5.21-5.2-7.89,1.63-1.79,6,1.25,7.35,4.13-.61-2.53.57-11.72,5-9.28C1019,647.66,1013.07,655.64,1013.07,655.64Z"/><path class="cls-23" d="M1130.11,659.16c.33,2.54.61,5.35.74,8.13l.32-.07c1.28-2.3,3-4.09,4.46-6.29a.42.42,0,0,1,.43.14c-.91,2.29-3.06,4.25-4,6.32a9.33,9.33,0,0,0-1.11,1.55c3.14-.09,6.69-.63,9.52-.7-.23,1-1.29.86-2.09,1-2.24,0-4.09.5-6.43.5l-.1.11c2.3,2.51,5.68,4.07,7,7.1a.43.43,0,0,1-.37.18c-2.25-2.57-4.88-4.32-7.34-6.61,0,3.79.77,7.44.41,11.4a2,2,0,0,1-.75-1.25c-.16-3.62-.53-7-.79-10.63l-.66.78c-1.67,2.21-2.54,5.34-5.09,6.79l-.16-.05c.07-.86,1.12-1.33,1.39-2.19l3.24-5.11c-.81-.29-1.7.07-2.66.12-1.71-.14-3.45.32-5.18-.09-.16-.16-.49-.3-.34-.57,1-.42,2.19.06,3.51-.1,1.7-.19,3.46-.21,5.31-.51a86,86,0,0,1-6.69-6.42c.25-.49.8-.09,1.08.11,2,1.88,3.9,3.78,6.11,5.49l.1-.22c-.37-3.4-.43-7.13-.79-10.31C1130.34,657.17,1129.72,658.86,1130.11,659.16Z"/><path class="cls-24" d="M1240.32,650.56c.24,2.79.41,5.88.41,8.92l.35-.06c1.52-2.45,3.5-4.31,5.19-6.65a.48.48,0,0,1,.47.18c-1.11,2.45-3.56,4.49-4.72,6.7a10.39,10.39,0,0,0-1.29,1.64c3.44.05,7.34-.36,10.43-.3-.29,1.06-1.45.88-2.33,1-2.44-.06-4.49.35-7,.24l-.11.11c2.39,2.86,6,4.72,7.33,8.11a.42.42,0,0,1-.4.17c-2.33-2.91-5.12-5-7.69-7.58-.23,4.14.47,8.16-.12,12.48a2.27,2.27,0,0,1-.76-1.41c0-4-.22-7.69-.34-11.65l-.76.81c-1.92,2.34-3,5.72-5.89,7.18l-.17-.07c.11-.93,1.28-1.39,1.63-2.33l3.79-5.42c-.87-.35-1.87,0-2.92,0-1.86-.23-3.79.18-5.66-.35-.17-.18-.52-.35-.34-.64,1.17-.41,2.39.18,3.84.06,1.87-.11,3.8-.06,5.83-.29a95.37,95.37,0,0,1-7-7.34c.29-.53.88-.06,1.16.17,2.11,2.16,4.08,4.31,6.42,6.3l.11-.23c-.23-3.74-.11-7.82-.35-11.31C1240.68,648.4,1239.92,650.21,1240.32,650.56Z"/><path class="cls-24" d="M241.11,405.57c.23,2.79.41,5.88.41,8.91l.35-.05c1.52-2.46,3.5-4.32,5.18-6.65a.45.45,0,0,1,.47.17c-1.1,2.45-3.55,4.49-4.72,6.7-.4.59-1.05,1.06-1.28,1.64,3.44.06,7.34-.35,10.43-.29-.29,1.05-1.46.87-2.33,1-2.45-.06-4.49.35-7.05.23l-.12.12c2.39,2.85,6,4.72,7.34,8.1a.43.43,0,0,1-.4.17c-2.34-2.91-5.13-4.95-7.69-7.57-.24,4.13.46,8.16-.12,12.47a2.22,2.22,0,0,1-.76-1.4c0-4-.23-7.69-.35-11.65l-.75.81c-1.93,2.33-3,5.71-5.89,7.17l-.18-.06c.12-.93,1.29-1.4,1.63-2.33l3.79-5.42c-.87-.35-1.86,0-2.91,0-1.87-.24-3.79.17-5.66-.35-.17-.18-.52-.35-.34-.65,1.16-.4,2.39.18,3.84.07,1.87-.12,3.79-.07,5.83-.3a91.77,91.77,0,0,1-7-7.34c.29-.52.87-.05,1.16.18,2.1,2.15,4.08,4.31,6.41,6.29l.12-.23c-.24-3.73-.12-7.81-.35-11.3C241.46,403.41,240.7,405.22,241.11,405.57Z"/><path class="cls-24" d="M99.31,311.25c.24,2.8.41,5.89.41,8.92l.35-.05c1.52-2.46,3.5-4.32,5.19-6.65a.46.46,0,0,1,.47.17c-1.11,2.45-3.56,4.49-4.73,6.7A10.92,10.92,0,0,0,99.72,322c3.44,0,7.34-.35,10.43-.29-.29,1.05-1.45.87-2.33,1-2.44-.06-4.49.34-7,.23l-.11.11c2.38,2.86,6,4.73,7.33,8.11a.42.42,0,0,1-.4.17c-2.33-2.91-5.13-4.95-7.69-7.58-.23,4.14.46,8.17-.12,12.48a2.25,2.25,0,0,1-.76-1.4c0-4-.23-7.69-.34-11.66l-.76.82c-1.93,2.33-3,5.71-5.89,7.17l-.18-.07c.12-.93,1.29-1.39,1.64-2.32l3.78-5.43c-.87-.34-1.86,0-2.91,0-1.86-.23-3.79.18-5.66-.34-.17-.18-.52-.35-.34-.65,1.17-.4,2.39.18,3.84.06,1.87-.11,3.79-.06,5.83-.29a93.49,93.49,0,0,1-7-7.34c.29-.52.88-.06,1.16.17,2.11,2.16,4.08,4.32,6.41,6.3l.12-.23c-.23-3.73-.12-7.81-.35-11.31C99.67,309.1,98.9,310.91,99.31,311.25Z"/><path class="cls-24" d="M57.27,534.65c.23,2.79.41,5.88.41,8.91l.35,0c1.51-2.45,3.49-4.32,5.18-6.65a.45.45,0,0,1,.47.17c-1.11,2.45-3.56,4.49-4.72,6.7-.41.59-1.05,1.06-1.28,1.64,3.44.06,7.34-.35,10.43-.29-.29,1-1.46.87-2.33,1-2.45-.06-4.49.35-7.06.23l-.11.12c2.39,2.85,6,4.72,7.34,8.1a.43.43,0,0,1-.4.17c-2.34-2.91-5.13-5-7.7-7.57-.23,4.13.47,8.16-.12,12.47a2.21,2.21,0,0,1-.75-1.4c0-4-.23-7.69-.35-11.65l-.76.81c-1.92,2.33-3,5.71-5.88,7.17l-.18-.06c.12-.93,1.28-1.4,1.63-2.33l3.79-5.42c-.87-.35-1.86,0-2.91,0-1.87-.23-3.79.18-5.66-.35-.17-.18-.52-.35-.35-.64,1.17-.41,2.4.18,3.85.06,1.86-.12,3.79-.06,5.83-.3a91.74,91.74,0,0,1-7-7.33c.3-.53.88-.06,1.17.17,2.1,2.16,4.08,4.31,6.41,6.29l.12-.23c-.24-3.73-.12-7.81-.35-11.3C57.62,532.49,56.86,534.3,57.27,534.65Z"/><path class="cls-25" d="M631.46,84.66A257.77,257.77,0,0,0,608.9,107c-9.68-5.52-13.46-7.29-22.12-9.78,2.37,8.73,6.73,13.19,12.64,19.46-5.39,4.68-15.32,11.75-17.85,17.81,5.61,2,25.17-6,25.17-6s3.9,18,6.23,22.57c2.1-3.83,7.79-18.59,7.79-18.59s18.63,1.42,24.38.37c-5.23-4.42-18-14.36-18-14.36Z"/><path class="cls-26" d="M609.19,116.23c-.83,2.76-2.13,10.94,3.08,10,1.79-.33,3.41-1.83,4.69-3a11.88,11.88,0,0,0,3.29-4.26.36.36,0,0,0-.57-.39c-2,1.94-3.72,4.22-6.17,5.71-5,3-3.71-5.4-4-8a.14.14,0,0,0-.27,0Z"/><path class="cls-26" d="M612.42,109a6.09,6.09,0,0,0-2,4.57c0,.37.48.42.72.25,1.25-.9,1.78-3.11,1.76-4.57a.3.3,0,0,0-.49-.25Z"/><path class="cls-26" d="M620.5,112.13a7.07,7.07,0,0,0-2.18,3.55.37.37,0,0,0,.59.4,4.43,4.43,0,0,0,2.09-3.7.31.31,0,0,0-.5-.25Z"/><path class="cls-15" d="M180.66,80c4.51,0,9-3.58,9.18-8.25s-4.14-7.9-8.58-7.9-9,3.58-9.18,8.25,4.14,7.9,8.58,7.9Z"/><path class="cls-27" d="M241.19,109.05c-1.05,2.26,3.14,7.7,7.2,3.77S244.33,102.33,241.19,109.05Z"/><path class="cls-24" d="M1407.07,379c.24,2.79.41,5.89.41,8.92l.35-.05c1.52-2.46,3.5-4.32,5.19-6.66a.48.48,0,0,1,.47.18c-1.11,2.45-3.56,4.49-4.72,6.7a10.39,10.39,0,0,0-1.29,1.64c3.44.05,7.34-.36,10.43-.29-.29,1-1.45.87-2.33,1-2.44-.05-4.49.35-7,.24l-.11.11c2.39,2.86,6,4.73,7.33,8.11a.42.42,0,0,1-.4.17c-2.33-2.91-5.12-5-7.69-7.58-.23,4.14.47,8.16-.12,12.48a2.24,2.24,0,0,1-.76-1.41c0-4-.22-7.69-.34-11.65l-.76.82c-1.92,2.33-3,5.71-5.89,7.17l-.17-.07c.11-.93,1.28-1.39,1.63-2.32L1405,391c-.87-.35-1.87,0-2.92,0-1.86-.23-3.79.18-5.66-.35-.17-.17-.52-.34-.34-.64,1.17-.4,2.39.18,3.84.06,1.87-.11,3.8-.06,5.83-.29a95.37,95.37,0,0,1-7-7.34c.29-.53.88-.06,1.16.17,2.11,2.16,4.08,4.32,6.42,6.3l.11-.23c-.23-3.73-.11-7.82-.35-11.31C1407.43,376.81,1406.67,378.62,1407.07,379Z"/><path class="cls-20" d="M1235,55.6V77.07a.37.37,0,0,1-.73,0V55.6a.37.37,0,0,1,.73,0Z"/><path class="cls-20" d="M1244.48,66.91c-7,0-14-.37-21,.62-.46.06-.65-.64-.19-.7,7-1,14.09-.67,21.15-.65a.37.37,0,0,1,0,.73Z"/><path class="cls-20" d="M1228.83,59.71c1.93,5.06,8,7.4,11.49,11.21.31.35-.2.86-.52.51-3.61-3.91-9.67-6.29-11.67-11.52-.17-.44.54-.63.7-.2Z"/><path class="cls-20" d="M1240.88,60.34c-2.31,1.36-4.07,3.88-5.71,6-1.86,2.34-3.6,4.78-5.37,7.19-.27.38-.91,0-.63-.36,1.8-2.47,3.6-4.94,5.49-7.35,1.66-2.13,3.48-4.66,5.84-6.06a.37.37,0,0,1,.38.63Z"/><path class="cls-28" d="M605.26,602.38c-.74,12.84-10.47,24.25-24.2,27.06-40.23,8.21-80.56,18.32-119.85,30a32.51,32.51,0,0,1-9.22,1.35,30.94,30.94,0,0,1-23.13-10.18,27.21,27.21,0,0,1-4.09-30.84c5.1-10,10.4-20.14,15.77-30.08a8.3,8.3,0,0,0-3.6-11.72c-10.19-5.3-20.63-10.55-31-15.63-10.75-5.17-16.86-15.41-15.91-26.7,1-12.2,10.09-22.61,23.09-26.5q31.22-9.29,63-17.34c30.86-7.81,62-14.7,93.13-20.6l9.86-1.87,25.68,126.07A27,27,0,0,1,605.26,602.38Z"/><path class="cls-28" d="M1182.82,552.39c-10.6,5-21.31,10.29-31.8,15.61a8.18,8.18,0,0,0-3.69,11.7c5.5,9.92,10.94,20,16.16,30a26.67,26.67,0,0,1-4.17,30.88,32.16,32.16,0,0,1-23.75,10.18,34,34,0,0,1-9.48-1.36c-40.34-11.69-81.74-21.8-123-30-14.11-2.82-24.12-14.24-24.86-27.06a26.18,26.18,0,0,1,.5-6.92l26.38-126.11,10.12,1.87c39.39,7.27,78.81,16,117.67,26.2q21.44,5.58,42.63,11.73c13.37,3.9,22.67,14.31,23.73,26.51C1200.18,537,1193.9,547.19,1182.82,552.39Z"/><path class="cls-29" d="M1086,77.6,1043,77.11a.73.73,0,0,1,0-1.46l42.94.49a.73.73,0,0,1,0,1.46Z"/><path class="cls-29" d="M1063.13,96.4c.21-14,1.06-28-.76-41.93-.11-.91,1.29-1.29,1.41-.36,1.83,14.06,1,28.18.81,42.31a.73.73,0,0,1-1.46,0Z"/><path class="cls-29" d="M1077.88,65.27c-10.16,3.75-15,15.78-22.67,22.71-.7.63-1.72-.41-1-1,7.93-7.14,12.8-19.21,23.32-23.09.88-.32,1.24,1.09.37,1.41Z"/><path class="cls-29" d="M1076.36,89.34c-2.68-4.65-7.68-8.21-11.77-11.54-4.64-3.78-9.48-7.31-14.27-10.9-.75-.56,0-1.82.75-1.25,4.89,3.66,9.8,7.3,14.56,11.13,4.23,3.39,9.25,7.07,12,11.84a.73.73,0,0,1-1.27.72Z"/><path class="cls-12" d="M1127.4,808c1.42-6.37,1.77-11.68,3.51-17.79,1.33,3.91,5,17.36,5,17.36s13.87,1.17,17.76,1.64c-6.05,2.68-18.26,5.52-18.26,5.52s-1.6,8.85-3.72,16.63a126,126,0,0,1-3.54-16.28s-11.69-1.06-18.77-3.19C1115.36,810.44,1120.32,809.37,1127.4,808Z"/><path class="cls-12" d="M415.81,838.33c1.41-6.37,1.77-11.68,3.51-17.78,1.33,3.9,5,17.36,5,17.36s13.87,1.17,17.75,1.64c-6,2.68-18.26,5.51-18.26,5.51s-1.59,8.85-3.72,16.64a128.39,128.39,0,0,1-3.54-16.28s-11.68-1.07-18.76-3.19C403.77,840.81,408.73,839.75,415.81,838.33Z"/><path class="cls-12" d="M230.22,790.59c1.74-7.84,2.17-14.37,4.31-21.88,1.65,4.81,6.11,21.36,6.11,21.36s17.06,1.43,21.84,2c-7.44,3.3-22.46,6.78-22.46,6.78s-2,10.89-4.58,20.47a154.81,154.81,0,0,1-4.35-20S216.71,798,208,795.38C215.41,793.64,221.5,792.33,230.22,790.59Z"/><path class="cls-18" d="M1260.47,492.53s-1.52,14.84-1.6,18.26c0,0-9.22,1.49-13,2.39a115.5,115.5,0,0,0,12,7.37s-1.5,11.44-1.68,14.46a50.9,50.9,0,0,0,10.62-12.25s10,3.82,13.58,5.28c0,0-4.19-9.79-4.71-11.84,0,0,5.29-6.2,8-10.26,0,0-10.86,1.18-13.89,1.76C1269.72,507.7,1260.8,492.87,1260.47,492.53Z"/><path class="cls-19" d="M1267.19,511.57c.15.72,0,1.37-.46,1.46s-.87-.42-1-1.14,0-1.36.46-1.45S1267,510.86,1267.19,511.57Z"/><path class="cls-19" d="M1263.87,512.23c.15.71-.06,1.36-.46,1.45s-.87-.42-1-1.13,0-1.37.46-1.46S1263.71,511.51,1263.87,512.23Z"/><path class="cls-19" d="M1260.29,515.06c.87,1.44,3.29,2.12,4.86,1.9,2-.27,4.13-1.43,4.62-3.53,0-.17-.2-.32-.29-.14a5.58,5.58,0,0,1-4.1,3.13c-2,.41-3.39-.69-5.06-1.39a0,0,0,0,0,0,0Z"/><path class="cls-30" d="M601.62,605.61s-200.34,303.74,110.27,78.5c34.34-40.35-100.33-78.37-100.33-78.37"/><path class="cls-31" d="M870.06,686.35s3.69,4.78,85.14,48.38,63.19-9.86,30.18-67.42c-17.29-46-36.08-61.7-36.08-61.7S850.17,606.38,870.06,686.35Z"/><path class="cls-32" d="M593.19,767.13a144.88,144.88,0,0,1-47.58-1.64,267.09,267.09,0,0,0,70-19.84c18.28-8.06,45.89-25.76,48.9-27.6,8-4.87,16.72-8.59,23.94-14.5s13.59-12.86,18.55-10.94c2.4.93,2.33,3.12,6.18,5.59,5,3.25,9.08,1.84,9.73,3.37,1.57,3.69-19.75,16.09-23.08,18-29.67,17.13-44.5,25.69-48.07,27.34C628.33,757.72,613.93,764.36,593.19,767.13Z"/><path class="cls-33" d="M912.73,725s75.76,42.57,97.62,29.08l1.07-9s-10.82,23.18-78.18-22.16C909.48,721.63,912.73,725,912.73,725Z"/><path class="cls-34" d="M962,596.68s59.15,72.23,52.52,142.63C1008.65,746.92,925.57,637.61,962,596.68Z"/><path class="cls-30" d="M965.51,598.44s-134.67,38-100.33,78.37c155.94,113.08,183.09,92.83,171.47,44.63-11.53-47.82-61.2-123.13-61.2-123.13l16.4,3.65"/><path class="cls-33" d="M940.37,738.25a338.24,338.24,0,0,0,33.48,17.09c29.89,13.21,40.84,12.82,49,10.06a36,36,0,0,0,8.28-4.08c4.8-4.26,6.25-7.46,6.64-9.65l.75-4.75h0s-4.53,32.44-77.21-7.23Z"/><path class="cls-35" d="M991.85,602s45.24,88,45.56,118.86c-11.22-15.1-43.5-101.15-61.49-121.79,15.93,2.93,19.59,3.64,19.59,3.64"/><path class="cls-36" d="M580.29,665.12s-44.73,77.56-17.7,81.8a130.58,130.58,0,0,0,38-12.78L621.19,725l-40.9,9.14c-4.76,1-10.89,1.45-14.18-2-4.35-4.53-1.3-13.34,3.89-30.67C572.53,693,576.15,680.59,580.29,665.12Z"/><path class="cls-37" d="M979.13,641,1015,715.52s16.61,53.08-62.24-9.49L932,692.2s94.15,60.86,66.26,7.61l-19.6-52.21"/><path class="cls-36" d="M983.92,354.39l89.69,4.22s45.52,3,6.06,24.33c-30.1,16-43,18.55-43,18.55l41.1-23.55s24.17-13-25-12.69C1002.15,358.23,983.92,354.39,983.92,354.39Z"/><path class="cls-38" d="M1111.13,370.09s-49.12,64.73-74.48,81.22l-28-5.59Z"/><path class="cls-33" d="M711.89,712.15s69.82-38.43,84.79-38.42c7.69.24,6.69-1.46,18.62,3.35s102.21,50.29,102.21,50.29V719L791.93,654.54,705.09,706,655,741.39"/><path class="cls-39" d="M579.84,615.42a32.18,32.18,0,0,1,.41,7Q558.89,627,537.7,632.6a35.55,35.55,0,0,1-9,1.17c-18.2,0-33.89-13.85-38.15-33.68l-18.74-88.27c25.9-7.81,52-14.7,78.16-20.6l8.28-1.87Z"/><path class="cls-39" d="M1141,517.42l-19.84,87.88c-4.46,19.5-20.08,33.1-38,33.1a35,35,0,0,1-9.52-1.32l-.65-.18q-29-8.13-58.4-14.52a32.34,32.34,0,0,1,.41-6.92l21.56-126.11,8.27,1.87C1077,498.49,1109.23,507.27,1141,517.42Z"/><path class="cls-40" d="M1127.12,484a29.3,29.3,0,0,0-17.88-14.83,1149.67,1149.67,0,0,0-605-5.06,29.07,29.07,0,0,0-18.05,14.53,30.64,30.64,0,0,0-3,20.88l20.57,96.85c3.28,15.25,17.18,24.72,31,21.09A1030.11,1030.11,0,0,1,1076.8,622h0a23.57,23.57,0,0,0,6.33.88c11.5,0,22-8.59,24.94-21.48L1129.85,505A30.77,30.77,0,0,0,1127.12,484Z"/><path class="cls-41" d="M1122,359s20.09,18.76-20,55.05c-32.47,34.35-40.91,42.75-40.91,42.75l-6-1.4,43.9-49.3s17.53-16.74,19.52-28.69S1122,359,1122,359Z"/><path class="cls-42" d="M627.65,556.68l-12,.8q-6.44-21.06-13-42.1c-.34-.93-.68-2-1-3.21s-.69-2.36-1-3.42-.7-2.45-1-3.73c-.15,1.45-.31,2.81-.48,4.05s-.34,2.36-.49,3.53-.32,2.25-.5,3.23q-3.83,21.74-7.5,43.5l-11.19.91q-11-35-22.45-70c5.33-.52,8-.78,13.34-1.28q5.68,20.24,11.27,40.51c.24.94.5,1.91.77,2.91s.52,2,.76,2.91.58,2.1.83,3.11c.19-1.45.36-2.61.5-3.48s.24-1.61.32-2.23.18-1.23.29-1.82.25-1.37.44-2.35q3.64-20.8,7.42-41.58c4.8-.41,7.19-.61,12-1q6.15,20.16,12.2,40.33c.28.94.63,2.08,1,3.43s.79,2.62,1.15,3.83c.41,1.41.86,2.85,1.34,4.33.15-1.52.27-3,.4-4.45.1-1.23.25-2.53.4-3.84s.32-2.46.52-3.43q3.18-21,6.45-42c5.38-.38,8.07-.56,13.45-.92Q634.54,519.94,627.65,556.68Z"/><path class="cls-42" d="M653.1,555.18l-4.2-72.35q17.11-1.05,34.25-1.94l.55,12.5c-8.6.42-12.89.64-21.49,1.13.35,6.69.53,10,.89,16.72,7.61-.42,11.42-.61,19-1,.22,4.92.33,7.38.56,12.29-7.58.35-11.37.53-19,.93.39,7.52.59,11.28,1,18.8,8.47-.43,12.7-.62,21.18-1,.21,4.92.32,7.38.54,12.29Q669.78,554.32,653.1,555.18Z"/><path class="cls-42" d="M697,553.2q-1.47-36.42-2.93-72.83c5.12-.24,7.69-.35,12.82-.55l2.13,60.62c9.61-.32,14.41-.45,24-.68.13,5,.19,7.43.32,12.38Q715.22,552.53,697,553.2Z"/><path class="cls-42" d="M745.31,551.91l-1.53-73.33c5.13-.13,7.7-.19,12.83-.3l1,61c9.61-.13,14.42-.18,24-.22,0,5,0,7.48.08,12.46Q763.48,551.6,745.31,551.91Z"/><path class="cls-42" d="M865.9,515.39a56.42,56.42,0,0,1-2.12,15.55,28.43,28.43,0,0,1-6.06,11.58,26.06,26.06,0,0,1-11,7.12Q840,552.07,830,551.89c-1.35,0-2.51-.06-3.49-.11s-1.92-.12-2.82-.2-1.84-.18-2.82-.3-2.12-.29-3.41-.52q.3-36.27.58-72.53c2.26-.14,4.48-.42,6.37-.51,1.62-.07,3.39,0,5,0l3.59,0c11.54.1,20,3.31,25.4,9.48C865.2,495.08,865.78,506.07,865.9,515.39Zm-13.68.16q.25-12.1-4.33-18.51c-3.06-4.26-7.62-6.44-13.66-6.5-.49,0-1,0-1.46,0l-2.1.14q-.31,24.06-.62,48.11a16.82,16.82,0,0,0,1.78.29c.45,0,.91.07,1.39.07,6.08.1,10.71-1.83,13.92-5.84S852.05,523.41,852.22,515.55Z"/><path class="cls-42" d="M929.51,517.48c-.77,9.27-2,19.6-7.85,27.7q-6.9,9.54-20.33,8.92c-8.46-.39-14.82-3.93-19.14-10.61-4.91-7.58-6.42-19.61-5.94-28.16a65.4,65.4,0,0,1,2.27-15.05,35,35,0,0,1,5.67-11.45,24.12,24.12,0,0,1,8.87-7.22,25.11,25.11,0,0,1,11.75-2.24,24.42,24.42,0,0,1,11.57,3.09,22.54,22.54,0,0,1,7.93,7.81,34.58,34.58,0,0,1,4.35,11.89A57.79,57.79,0,0,1,929.51,517.48Zm-13.66-.79q.49-10.83-2.7-17.06t-9.23-6.46a9.53,9.53,0,0,0-5.52,1.44,13.66,13.66,0,0,0-4.3,4.49,25.07,25.07,0,0,0-2.91,7.15,45.18,45.18,0,0,0-1.26,9.39,51,51,0,0,0,.58,10.33,30.48,30.48,0,0,0,2.36,7.95,14.23,14.23,0,0,0,3.87,5.16,8.79,8.79,0,0,0,5.2,2,8.56,8.56,0,0,0,5.35-1.55,14.28,14.28,0,0,0,4.25-4.88,30.75,30.75,0,0,0,2.93-7.74A54.11,54.11,0,0,0,915.85,516.69Z"/><path class="cls-42" d="M977.39,558.69l-8.79-21c-1.11-2.61-2.21-5.17-3.28-7.7s-2-4.77-2.86-6.73-1.77-4.17-2.81-6.62c-.5-1-1-2.26-1.56-3.66s-1.08-2.74-1.55-4c-.55-1.44-1.09-3-1.68-4.52-.06,1.87-.1,3.74-.1,5.61,0,1.65,0,3.44-.09,5.34s-.14,3.68-.25,5.33l-2.22,36.17c-4.91-.32-7.37-.47-12.28-.77q2.12-37.53,4.24-75.05c5.29.27,7.93.42,13.22.72q9.07,21.12,17.91,42.35,1.32,3.24,2.46,5.81t2.1,5.36q0-2.6.12-4.44c.06-1.22.13-2.38.21-3.45s.15-2.16.23-3.24.17-2.34.27-3.78q1.32-18.51,2.65-37c5.06.34,7.59.52,12.65.88q-2.88,37.71-5.77,75.41C985.08,559.28,982.52,559.08,977.39,558.69Z"/><path class="cls-42" d="M1002.64,560.73q3.08-37.76,6.14-75.5,17.12,1.33,34.21,2.84c-.49,5.21-.74,7.81-1.23,13-8.58-.78-12.87-1.16-21.46-1.87l-1.5,17.43c7.6.65,11.41,1,19,1.69l-1.2,12.8c-7.56-.71-11.35-1-18.91-1.71-.68,7.84-1,11.76-1.69,19.6,8.45.76,12.67,1.15,21.12,2-.49,5.12-.73,7.68-1.22,12.8Q1019.29,562.19,1002.64,560.73Z"/><path class="cls-43" d="M627.65,552.62l-12,.8q-6.44-21.06-13-42.09c-.33-.94-.68-2-1-3.22s-.69-2.36-1-3.42-.7-2.45-1-3.73c-.15,1.45-.31,2.81-.48,4.05s-.34,2.36-.49,3.53-.31,2.25-.5,3.23q-3.83,21.74-7.5,43.5l-11.19.91q-11-35-22.45-69.95c5.33-.53,8-.79,13.34-1.29q5.68,20.24,11.27,40.51c.24.94.5,1.91.77,2.91s.52,2,.76,2.91.58,2.11.83,3.11c.19-1.45.36-2.61.5-3.48s.24-1.61.32-2.23.18-1.23.29-1.82.25-1.37.44-2.34q3.64-20.81,7.42-41.59c4.8-.41,7.19-.61,12-1q6.15,20.15,12.2,40.32c.28.94.63,2.09,1,3.43s.8,2.62,1.15,3.83c.41,1.41.86,2.85,1.34,4.33.15-1.52.27-3,.4-4.45.1-1.23.26-2.52.4-3.84s.32-2.46.52-3.43q3.18-21,6.45-42c5.38-.39,8.07-.57,13.45-.93Q634.54,515.88,627.65,552.62Z"/><path class="cls-43" d="M653.1,551.12l-4.2-72.35q17.11-1,34.25-1.94l.55,12.5c-8.6.42-12.89.64-21.49,1.13.35,6.69.53,10,.89,16.72,7.61-.41,11.42-.61,19-1,.22,4.92.33,7.38.56,12.29-7.58.35-11.37.53-19,.94.39,7.52.59,11.27,1,18.79,8.47-.42,12.71-.62,21.18-1,.21,4.92.32,7.38.54,12.29Q669.78,550.26,653.1,551.12Z"/><path class="cls-43" d="M697,549.14q-1.47-36.42-2.93-72.83c5.13-.23,7.69-.34,12.82-.55l2.13,60.62c9.61-.31,14.41-.45,24-.67.13,4.95.19,7.42.32,12.37Q715.22,548.49,697,549.14Z"/><path class="cls-43" d="M745.31,547.85l-1.53-73.32c5.13-.14,7.7-.2,12.83-.31q.48,30.51,1,61c9.6-.13,14.41-.17,24-.21,0,5,0,7.47.08,12.45Q763.48,547.54,745.31,547.85Z"/><path class="cls-43" d="M865.9,511.34a56.4,56.4,0,0,1-2.12,15.54,28.36,28.36,0,0,1-6.06,11.58,26.06,26.06,0,0,1-11,7.12Q840,548,830,547.83c-1.35,0-2.51-.06-3.49-.11s-1.92-.11-2.82-.2-1.84-.18-2.82-.3-2.12-.29-3.41-.52q.3-36.27.58-72.53c2.26-.13,4.48-.41,6.37-.51,1.62-.07,3.39,0,5,0l3.59,0c11.54.1,20,3.31,25.4,9.48C865.2,491,865.78,502,865.9,511.34Zm-13.68.15c.17-8.07-1.26-14.25-4.33-18.51s-7.62-6.44-13.66-6.5c-.49,0-1,0-1.46,0l-2.1.14q-.31,24.06-.62,48.11a17.24,17.24,0,0,0,1.78.29c.45,0,.91.07,1.39.08q9.12.15,13.92-5.85T852.22,511.49Z"/><path class="cls-43" d="M929.51,513.42c-.77,9.27-2,19.6-7.85,27.7q-6.9,9.54-20.33,8.92c-8.46-.38-14.82-3.93-19.14-10.61-4.91-7.58-6.42-19.61-5.94-28.16a65.4,65.4,0,0,1,2.27-15,35,35,0,0,1,5.67-11.45,24.12,24.12,0,0,1,8.87-7.22,25.13,25.13,0,0,1,11.75-2.24,24.54,24.54,0,0,1,11.57,3.09,22.65,22.65,0,0,1,7.94,7.81,34.78,34.78,0,0,1,4.34,11.89A57.79,57.79,0,0,1,929.51,513.42Zm-13.66-.79q.49-10.83-2.7-17.06t-9.23-6.46a9.55,9.55,0,0,0-5.52,1.44,13.66,13.66,0,0,0-4.3,4.49,25.07,25.07,0,0,0-2.91,7.15,44.52,44.52,0,0,0-1.26,9.39,51,51,0,0,0,.58,10.33,30.48,30.48,0,0,0,2.36,8,14.23,14.23,0,0,0,3.87,5.16,8.79,8.79,0,0,0,5.2,2,8.56,8.56,0,0,0,5.35-1.55,14.28,14.28,0,0,0,4.25-4.88,30.75,30.75,0,0,0,2.93-7.74A53.3,53.3,0,0,0,915.85,512.63Z"/><path class="cls-43" d="M977.39,554.63l-8.79-21c-1.11-2.61-2.21-5.17-3.28-7.7s-2-4.77-2.86-6.73-1.77-4.17-2.81-6.62q-.75-1.56-1.56-3.66c-.54-1.4-1.08-2.74-1.55-4-.55-1.45-1.09-3-1.68-4.53-.06,1.87-.1,3.74-.1,5.61,0,1.65,0,3.44-.09,5.34s-.14,3.68-.25,5.33l-2.22,36.17c-4.91-.32-7.37-.47-12.28-.77Q942,514.55,944.16,477c5.29.28,7.93.42,13.22.72q9.07,21.12,17.91,42.35,1.32,3.24,2.46,5.81t2.1,5.36q0-2.6.12-4.44t.21-3.45l.23-3.24q.12-1.62.27-3.78,1.32-18.51,2.65-37c5.06.34,7.59.52,12.65.88q-2.88,37.71-5.77,75.41C985.09,555.22,982.52,555,977.39,554.63Z"/><path class="cls-43" d="M1002.64,556.67q3.08-37.75,6.14-75.5,17.12,1.35,34.21,2.84c-.49,5.21-.74,7.81-1.23,13-8.58-.78-12.87-1.16-21.46-1.87l-1.5,17.44c7.6.64,11.41,1,19,1.69l-1.2,12.8c-7.56-.72-11.35-1.06-18.91-1.72-.68,7.84-1,11.76-1.69,19.6,8.45.76,12.67,1.15,21.12,2-.49,5.12-.73,7.68-1.22,12.8Q1019.29,558.13,1002.64,556.67Z"/></g></g></g></svg>