<svg id="Layer_1" data-name="Layer 1" xmlns="http://www.w3.org/2000/svg" xmlns:xlink="http://www.w3.org/1999/xlink" viewBox="0 0 360 360"><defs><style>.cls-1{fill:#fff;}.cls-2{fill:#fcfcfc;stroke:#25256d;stroke-miterlimit:10;stroke-width:12px;}.cls-3{clip-path:url(#clip-path);}.cls-4{fill:url(#linear-gradient);}.cls-5{fill:#66351a;}.cls-6{fill:#af544a;}.cls-10,.cls-7{opacity:0.17;}.cls-7{fill:url(#linear-gradient-2);}.cls-8{fill:#6b3c22;opacity:0.21;}.cls-9{opacity:0.14;fill:url(#linear-gradient-3);}.cls-10{fill:url(#linear-gradient-4);}.cls-11,.cls-12,.cls-13{opacity:0.25;}.cls-11{fill:url(#linear-gradient-5);}.cls-12{fill:url(#linear-gradient-6);}.cls-13{fill:url(#linear-gradient-7);}</style><clipPath id="clip-path"><circle class="cls-1" cx="179.7" cy="181.32" r="164.38"/></clipPath><linearGradient id="linear-gradient" x1="89.91" y1="182.96" x2="271.66" y2="182.96" gradientUnits="userSpaceOnUse"><stop offset="0" stop-color="#ffc7b8"/><stop offset="0.09" stop-color="#fec3b4"/></linearGradient><linearGradient id="linear-gradient-2" x1="111.64" y1="167.43" x2="246.78" y2="167.43" gradientUnits="userSpaceOnUse"><stop offset="0" stop-color="#8f4638"/><stop offset="0.99" stop-color="#8f4638"/></linearGradient><linearGradient id="linear-gradient-3" x1="136.22" y1="155.64" x2="247.8" y2="155.64" xlink:href="#linear-gradient-2"/><linearGradient id="linear-gradient-4" x1="194.15" y1="104.47" x2="247.64" y2="104.47" xlink:href="#linear-gradient-2"/><linearGradient id="linear-gradient-5" x1="147.98" y1="289.66" x2="266.45" y2="289.66" xlink:href="#linear-gradient-2"/><linearGradient id="linear-gradient-6" x1="235.76" y1="124.23" x2="271.36" y2="124.23" xlink:href="#linear-gradient-2"/><linearGradient id="linear-gradient-7" x1="189.74" y1="218.24" x2="244.74" y2="218.24" xlink:href="#linear-gradient-2"/></defs><circle class="cls-2" cx="180" cy="180" r="170"/><circle class="cls-1" cx="179.7" cy="181.32" r="164.38"/><g class="cls-3"><path class="cls-4" d="M246.57,190.82s-.46-9.43,12.09-28.19,20.24-55.89,2.9-77.23S218.32,34.3,154.39,51.53,88.12,142.7,90.47,155.61,97,228.45,128.38,251.3s-.35.55-.35.55,23,23.09,35.56,28.57,28.21,21.13,28.21,21.13,20.92,32.08,58.38,10.56c0,0,20.21-11.92,16.34-40.3C263,246,244.41,233.1,246.57,216.64,248.38,202.79,247.63,191.64,246.57,190.82Z"/><path class="cls-5" d="M237.18,194.91s-1.46-5.15-5.65-6-9.44,1.51-10.11,9.78c-.25,3-1.09,6.52.06,12.59a60,60,0,0,0,4.18,13.39c4.94,8.78,10,3.69,9.64,3.13a22.18,22.18,0,0,1-3.44-12.42C232.08,211.94,237,197.65,237.18,194.91Z"/><path class="cls-6" d="M185.51,184.3s.44,0,1.28-.11,2.08-.26,3.68-.58A56.31,56.31,0,0,0,203.86,179c1.37-.68,2.81-1.42,4.26-2.29.74-.42,1.46-.89,2.22-1.36l1.11-.74c.38-.25.76-.51,1.13-.78l1.14-.82,1.14-.86c.77-.58,1.51-1.22,2.29-1.85,1.51-1.3,3-2.68,4.54-4.22s3-3.16,4.45-4.88,2.92-3.56,4.36-5.48A107.61,107.61,0,0,0,238.67,143a81.86,81.86,0,0,0,6.48-15.11,58.26,58.26,0,0,0,1.94-8.49,47.2,47.2,0,0,0,.51-9,39.54,39.54,0,0,0-1.46-9.2,37.55,37.55,0,0,0-3.77-8.79,41.39,41.39,0,0,0-5.93-7.75,53,53,0,0,0-7.55-6.43,71.38,71.38,0,0,0-8.59-5.17l-1.13-.56-.57-.28-.3-.15L218,72c-.76-.35-1.51-.7-2.31-1l-1.18-.5-1.2-.46c-.79-.33-1.6-.59-2.4-.88a69.45,69.45,0,0,0-10-2.55,71.84,71.84,0,0,0-10.37-1,75.22,75.22,0,0,0-10.49.52,77.26,77.26,0,0,0-20.39,5.43c-1.64.67-3.24,1.43-4.83,2.21s-3.14,1.63-4.66,2.54A76.23,76.23,0,0,0,133.6,89.37a73.36,73.36,0,0,0-12.18,17.11c-.41.77-.77,1.56-1.16,2.35s-.71,1.59-1.06,2.38c-.67,1.6-1.31,3.22-1.86,4.86a74.31,74.31,0,0,0-2.66,10,166.74,166.74,0,0,0-2.6,19.86,142.46,142.46,0,0,0,2.16,37.8,123.76,123.76,0,0,0,4.64,16.95,110,110,0,0,0,6.62,15A102.89,102.89,0,0,0,159.24,253a109.42,109.42,0,0,0,12.25,7.13l1.94.95,1.43.66,1.16.54-1.15-.57-1.4-.71-1.91-1a118.07,118.07,0,0,1-12-7.44c-2.49-1.76-5.16-3.81-7.93-6.2a100.81,100.81,0,0,1-8.53-8.21c-1.45-1.54-2.87-3.2-4.29-4.93s-2.82-3.57-4.19-5.51-2.7-4-4-6.07-2.53-4.34-3.72-6.65A115,115,0,0,1,120.6,200a122.36,122.36,0,0,1-4.36-16.74,143.23,143.23,0,0,1-1.81-37.24,175.53,175.53,0,0,1,2.68-19.56,72.75,72.75,0,0,1,2.59-9.62c.53-1.58,1.15-3.14,1.8-4.69.34-.76.67-1.54,1-2.3s.71-1.52,1.11-2.26a71,71,0,0,1,11.8-16.5A71.81,71.81,0,0,1,143,84.24a73.31,73.31,0,0,1,8.46-5.82c1.47-.88,3-1.69,4.5-2.47s3.09-1.5,4.67-2.15a74,74,0,0,1,9.7-3.33,76.3,76.3,0,0,1,10-2,69.28,69.28,0,0,1,20.14.43,67.2,67.2,0,0,1,9.66,2.41c.77.28,1.56.52,2.33.83l1.15.44,1.13.47c.74.3,1.5.65,2.26,1l.28.13.27.12.55.27,1.1.54a69.26,69.26,0,0,1,8.35,4.95,51.12,51.12,0,0,1,7.27,6.11,40.14,40.14,0,0,1,5.7,7.3,35.16,35.16,0,0,1,3.65,8.27,37.54,37.54,0,0,1,1.48,8.73,51.37,51.37,0,0,1-2.18,16.92,80.09,80.09,0,0,1-6.14,14.91A108.79,108.79,0,0,1,229.5,155c-1.38,1.93-2.79,3.76-4.21,5.5s-2.84,3.38-4.3,4.91-2.94,2.93-4.4,4.25c-.76.64-1.48,1.29-2.23,1.87l-1.1.88-1.11.83c-.36.28-.73.54-1.1.79l-1.09.77c-.73.47-1.44,1-2.16,1.39-1.42.9-2.82,1.66-4.16,2.37a57.57,57.57,0,0,1-13.19,4.93c-1.59.37-2.83.58-3.67.69S185.51,184.3,185.51,184.3Z"/><path class="cls-6" d="M245.26,124.31s-.82,1-2.44,2.71-4,4.27-7.27,7.33-7.24,6.68-12.09,10.52c-2.44,1.92-5,3.94-7.93,5.84s-6.05,3.75-9.39,5.58-6.86,3.66-10.51,5.56-7.42,3.88-11.2,6.1a73.27,73.27,0,0,0-11.07,7.75,36.61,36.61,0,0,0-4.83,5.11,24.62,24.62,0,0,0-3.52,6.28,22.23,22.23,0,0,0-1,3.53l-.16.9c-.05.31-.07.61-.11.92s-.06.61-.09.91,0,.62,0,.93a30.09,30.09,0,0,0,.65,7.38,36.79,36.79,0,0,0,6.12,13.69,39.35,39.35,0,0,0,11.07,10.47,37.47,37.47,0,0,0,6.93,3.41c.61.22,1.2.43,1.84.62l.46.13.49.12c.33.09.65.13,1,.2a15.45,15.45,0,0,0,4,.1c2.63-.24,5.09-1,7.53-1.31a17.21,17.21,0,0,1,3.65-.11,14,14,0,0,1,3.52.76,11.35,11.35,0,0,1,3,1.83c.95.77,1.86,1.62,2.74,2.49,1.77,1.75,3.45,3.62,5.15,5.46s3.42,3.68,5.28,5.39a36.15,36.15,0,0,0,2.92,2.43,16.87,16.87,0,0,0,3.32,2,8.84,8.84,0,0,0,3.9.82,7.35,7.35,0,0,0,2-.37,7.46,7.46,0,0,0,1.8-.92c.28-.18.53-.39.79-.59l.37-.33.19-.17.16-.16c.11-.11.21-.2.32-.33l.34-.35c.21-.25.42-.49.62-.75a8.22,8.22,0,0,0,1.67-3.58,7.33,7.33,0,0,0-.46-3.95,14.66,14.66,0,0,0-1.85-3.27c-1.44-2-3.07-3.65-4.57-5.35a30.38,30.38,0,0,1-3.95-5.26,11.11,11.11,0,0,1-1.14-2.84l-.08-.36-.06-.37c0-.22-.07-.54-.1-.79,0-.5-.08-1-.09-1.55a23.2,23.2,0,0,1,.14-3.12c.1-1,.27-2.06.47-3.08.41-2,1-4,1.6-6s1.23-3.89,1.72-5.86a21.53,21.53,0,0,0,.54-3,12.46,12.46,0,0,0,0-3.05,7.78,7.78,0,0,0-1-2.86,8.26,8.26,0,0,0-2-2.19,11.61,11.61,0,0,0-1.17-.81,13.07,13.07,0,0,0-1.23-.65,8.27,8.27,0,0,0-2.66-.74,15.79,15.79,0,0,0-5.17.38,29.68,29.68,0,0,0-4.62,1.46,47.86,47.86,0,0,0-7.74,4,56.85,56.85,0,0,0-6,4.36,41.29,41.29,0,0,0-7.14,7.48,25.67,25.67,0,0,0-1.46,2.31l-.33.63-.1.21a.09.09,0,0,0,0,.13.11.11,0,0,0,.13,0h0a2.09,2.09,0,0,0,.11-.2c.07-.14.18-.35.33-.61a21.36,21.36,0,0,1,1.49-2.27,41.18,41.18,0,0,1,7.2-7.31,59,59,0,0,1,6-4.23A48.2,48.2,0,0,1,220,190a29.1,29.1,0,0,1,4.53-1.37,15.33,15.33,0,0,1,4.93-.29,7.47,7.47,0,0,1,2.39.7,9.09,9.09,0,0,1,1.11.67,8.79,8.79,0,0,1,1,.79,7.23,7.23,0,0,1,1.63,2,6.62,6.62,0,0,1,.75,2.48,15.41,15.41,0,0,1-.75,5.5c-.53,1.87-1.22,3.76-1.89,5.72s-1.3,4-1.79,6.1a27.35,27.35,0,0,0-.75,6.63c0,.57,0,1.14.09,1.73,0,.3.06.53.1.85l.07.45.09.45a13.44,13.44,0,0,0,1.32,3.36,30.78,30.78,0,0,0,4.25,5.58c1.55,1.72,3.18,3.36,4.54,5.16a13,13,0,0,1,1.69,2.81,5.7,5.7,0,0,1,.42,3,6.45,6.45,0,0,1-1.3,2.88c-.16.22-.34.44-.52.65l-.28.31-.3.32a9.12,9.12,0,0,1-1.27,1.07,6.23,6.23,0,0,1-1.43.73,5.58,5.58,0,0,1-1.56.29,7.41,7.41,0,0,1-3.22-.68,16.12,16.12,0,0,1-3-1.78,35.58,35.58,0,0,1-2.79-2.31c-1.8-1.65-3.5-3.46-5.2-5.29s-3.39-3.7-5.2-5.49a34,34,0,0,0-2.88-2.59,13,13,0,0,0-3.45-2.07,15.43,15.43,0,0,0-3.91-.79,18.59,18.59,0,0,0-4,.18c-2.59.38-5,1.16-7.47,1.42a14.3,14.3,0,0,1-3.64,0c-.3-.05-.61-.09-.89-.16l-.44-.1-.46-.13c-.58-.16-1.19-.37-1.77-.58a35.76,35.76,0,0,1-6.73-3.27,38.37,38.37,0,0,1-10.81-10.12,35.68,35.68,0,0,1-6-13.27,29.28,29.28,0,0,1-.67-7.15c0-.3,0-.59,0-.88s0-.6.08-.89.06-.59.11-.88l.14-.87a19.8,19.8,0,0,1,.94-3.39,24.08,24.08,0,0,1,3.36-6.06,34.85,34.85,0,0,1,4.7-5,71.34,71.34,0,0,1,10.91-7.71c3.75-2.22,7.5-4.21,11.14-6.13s7.17-3.75,10.51-5.61,6.5-3.71,9.4-5.65c1.45-1,2.85-2,4.15-3s2.58-2,3.77-3c4.83-3.92,8.81-7.59,12-10.7s5.59-5.66,7.19-7.43,2.42-2.75,2.42-2.75a.09.09,0,0,0,0-.13A.1.1,0,0,0,245.26,124.31Z"/><path class="cls-6" d="M234.84,227.3l-.44.46-.12.12-.12.11-.28.23a2,2,0,0,1-.35.26,2.36,2.36,0,0,1-.41.25,2.71,2.71,0,0,1-.49.22l-.26.09a2.47,2.47,0,0,1-.29.06,3.83,3.83,0,0,1-.6.05c-.11,0-.22,0-.33,0a1.28,1.28,0,0,1-.33-.06,5.81,5.81,0,0,1-2.72-1.83,16.58,16.58,0,0,1-2.33-3.46,32.87,32.87,0,0,1-1.88-4.36,50,50,0,0,1-2.35-10.12,40.13,40.13,0,0,1-.07-10.38,20.65,20.65,0,0,1,1.16-4.63,12.12,12.12,0,0,1,1-2c.17-.31.4-.58.59-.86l.34-.39.17-.19.18-.17.35-.33.38-.3a7.33,7.33,0,0,1,.78-.5c.27-.13.53-.26.8-.36a6.14,6.14,0,0,1,.8-.25,8,8,0,0,1,2.78-.16,7.84,7.84,0,0,1,1,.16,4.71,4.71,0,0,1,.75.17l.62.16-.61-.18c-.2-.06-.45-.13-.75-.19a8.19,8.19,0,0,0-1-.17,7.78,7.78,0,0,0-2.81.1,6.76,6.76,0,0,0-.82.23c-.27.1-.55.22-.82.35a6.79,6.79,0,0,0-.81.5l-.4.29-.37.34-.19.17-.18.19-.35.39a8.06,8.06,0,0,0-.63.87,11.41,11.41,0,0,0-1.06,2,20.63,20.63,0,0,0-1.29,4.68,40,40,0,0,0-.16,10.51,50.34,50.34,0,0,0,2.15,10.33,32.44,32.44,0,0,0,1.83,4.53,17.83,17.83,0,0,0,2.4,3.73,9.36,9.36,0,0,0,1.51,1.39,5.22,5.22,0,0,0,1.72.85,2.34,2.34,0,0,0,.46.09,3.32,3.32,0,0,0,.44.06,3.89,3.89,0,0,0,.85-.05l.4-.07.36-.11a3.53,3.53,0,0,0,.65-.28,3.34,3.34,0,0,0,.53-.3,4.38,4.38,0,0,0,.45-.31l.37-.3.16-.14.11-.12.46-.45Z"/><path class="cls-6" d="M216.79,72.79l-2.59.09c-1.69.08-4.17.23-7.3.62a83.4,83.4,0,0,0-11.18,2.15,75.79,75.79,0,0,0-13.85,5.14,72.48,72.48,0,0,0-14.65,9.54A77,77,0,0,0,154,104.67,88.12,88.12,0,0,0,144,123a103.64,103.64,0,0,0-5.91,20.73,111.24,111.24,0,0,0-1.69,21.49A109.68,109.68,0,0,0,138.79,186a93.7,93.7,0,0,0,6,18.59,79,79,0,0,0,4.16,8.05,68.55,68.55,0,0,0,4.76,7,65.21,65.21,0,0,0,5.14,5.86,56.07,56.07,0,0,0,5.26,4.65,51.75,51.75,0,0,0,9.71,6,49.53,49.53,0,0,0,6.86,2.63c.81.25,1.44.41,1.87.53l.64.16a.15.15,0,0,0,.19-.11.16.16,0,0,0-.11-.19h0l-.63-.18c-.42-.11-1-.27-1.85-.53a47.75,47.75,0,0,1-6.8-2.65,50.86,50.86,0,0,1-9.6-6,55.65,55.65,0,0,1-5.2-4.65,62.94,62.94,0,0,1-5.07-5.83,73.59,73.59,0,0,1-4.69-7,80,80,0,0,1-4.11-8,92.33,92.33,0,0,1-5.94-18.48,107.9,107.9,0,0,1-2.32-20.64,112.36,112.36,0,0,1,1.65-21.37,103.88,103.88,0,0,1,5.84-20.63A88.93,88.93,0,0,1,154.42,105a76.84,76.84,0,0,1,13.07-14.33A72.08,72.08,0,0,1,182,81.09a75.6,75.6,0,0,1,13.75-5.24,83.28,83.28,0,0,1,11.14-2.26c3.13-.42,5.6-.59,7.29-.69Z"/><path class="cls-6" d="M210.26,185.11l.47-.34c.31-.22.78-.54,1.41-1a36.63,36.63,0,0,1,5.85-3.09,33,33,0,0,1,4.6-1.54,28.82,28.82,0,0,1,5.75-.87A22.72,22.72,0,0,1,235,179a17.93,17.93,0,0,1,3.48,1.25,14.47,14.47,0,0,1,3.25,2.16,11.74,11.74,0,0,1,2.53,3.2,11,11,0,0,1,.81,2c.2.69.39,1.42.59,2.14a45.22,45.22,0,0,1,1.33,9.25,81.47,81.47,0,0,1-.53,10.18c-.15,1.77-.26,3.58-.25,5.43a41.3,41.3,0,0,0,.4,5.62,52.85,52.85,0,0,0,1.19,5.69l.42,1.42.21.72.24.71.48,1.42c.17.47.35.94.52,1.42a105.34,105.34,0,0,0,5.16,11.34c.48.95,1,1.89,1.52,2.84l1.54,2.86c1,1.92,2,3.88,2.86,5.92s1.73,4.12,2.47,6.26a68.52,68.52,0,0,1,1.89,6.6,50.36,50.36,0,0,1,1.29,14,40.88,40.88,0,0,1-1.07,7.16,36.23,36.23,0,0,1-1.05,3.51c-.19.58-.43,1.15-.65,1.73l-.37.85c-.12.28-.24.56-.38.84A38.68,38.68,0,0,1,254,307.53a45.5,45.5,0,0,1-13.09,8.34,44.83,44.83,0,0,1-7.57,2.43l-1,.2-1,.18-1,.15c-.34.06-.66.08-1,.13a38.38,38.38,0,0,1-4,.23,32.07,32.07,0,0,1-8-1,36.52,36.52,0,0,1-7.64-3,70,70,0,0,1-13.63-9.83c-4.28-3.76-8.44-7.79-12.92-11.58a85,85,0,0,0-7-5.37c-.62-.41-1.25-.81-1.88-1.2l-1.87-1.17-1.89-1.17-1.86-1.19c-5-3.18-9.88-6.54-14.69-10.1s-9.52-7.29-14-11.29a169.32,169.32,0,0,1-13-12.68c-2.07-2.23-4-4.56-6-6.92s-3.75-4.82-5.51-7.32-3.4-5.09-5-7.74-3-5.36-4.3-8.12-2.5-5.61-3.56-8.49c-.26-.73-.53-1.45-.77-2.17l-.72-2.19-.69-2.22-.65-2.22q-2.59-8.91-4.44-18a181,181,0,0,1-3.68-36.79,130.93,130.93,0,0,1,5.12-36.16,94.24,94.24,0,0,1,16.2-31.8A81.07,81.07,0,0,1,125.23,67a83.82,83.82,0,0,1,14.51-9.46,92.13,92.13,0,0,1,15.85-6.34A110.69,110.69,0,0,1,172,47.62q4.13-.55,8.24-.86c2.74-.2,5.47-.31,8.16-.28a86.34,86.34,0,0,1,15.9,1.64,93.52,93.52,0,0,1,28.64,10.82,88.81,88.81,0,0,1,22.23,18,70.81,70.81,0,0,1,7.92,10.91,51.69,51.69,0,0,1,5.09,11.75c.16.5.27,1,.4,1.51s.23,1,.35,1.51.19,1,.27,1.5.17,1,.25,1.54.15,1,.21,1.52.15,1,.2,1.5c.11,1,.24,2,.31,3a82.47,82.47,0,0,1,.26,11.6,73.82,73.82,0,0,1-3.94,20.6,98.77,98.77,0,0,1-7.44,16.28c-2.65,4.74-5.23,8.86-7.29,12.56-1,1.85-1.95,3.59-2.7,5.22a38.1,38.1,0,0,0-1.79,4.57,23.34,23.34,0,0,0-1.14,6.59c0,.38,0,.72,0,1s0,.53,0,.72c0,.38,0,.58,0,.58a.13.13,0,1,0,.26,0h0s0-.19,0-.57c0-.19,0-.42,0-.71s0-.61,0-1a22.66,22.66,0,0,1,1.26-6.46,54.45,54.45,0,0,1,4.62-9.61c2.12-3.64,4.77-7.72,7.52-12.43a99,99,0,0,0,7.8-16.33,75.05,75.05,0,0,0,4.3-20.91,83.75,83.75,0,0,0-.12-11.83c-.06-1-.18-2-.28-3-.05-.52-.12-1-.18-1.55s-.13-1-.21-1.54-.15-1-.23-1.54-.18-1.06-.27-1.59-.22-1-.34-1.58-.25-1-.4-1.57a53.67,53.67,0,0,0-5.15-12.23,71.28,71.28,0,0,0-8.05-11.29A91.22,91.22,0,0,0,234.09,57a95.69,95.69,0,0,0-29.3-11.26,90.34,90.34,0,0,0-16.36-1.78c-2.8,0-5.58.06-8.37.26s-5.61.47-8.42.85a113.55,113.55,0,0,0-16.82,3.57,94.77,94.77,0,0,0-16.3,6.52,83.53,83.53,0,0,0-15,9.78,84.51,84.51,0,0,0-12.7,12.94,90,90,0,0,0-9.8,15.49,102.49,102.49,0,0,0-6.7,17.23,133.55,133.55,0,0,0-5,36.83,183.38,183.38,0,0,0,3.88,37.22c1.26,6.12,2.79,12.19,4.55,18.17l.68,2.25.7,2.23.74,2.23c.25.74.53,1.47.79,2.21,1.1,2.93,2.32,5.82,3.67,8.64s2.84,5.57,4.41,8.26,3.29,5.29,5.06,7.84,3.66,5,5.62,7.41,4,4.73,6.08,7a169.14,169.14,0,0,0,13.21,12.77c4.59,4,9.35,7.76,14.21,11.32s9.8,6.92,14.82,10.1l1.88,1.2,1.88,1.16,1.89,1.16q.93.57,1.83,1.17a78.35,78.35,0,0,1,6.94,5.24c4.44,3.72,8.61,7.73,12.94,11.51a71.65,71.65,0,0,0,14,10,37.32,37.32,0,0,0,7.94,3.05,33.33,33.33,0,0,0,8.35,1,36.18,36.18,0,0,0,4.17-.25c.35-.05.7-.08,1-.14l1-.16,1-.18,1-.22a45,45,0,0,0,7.77-2.53,46.75,46.75,0,0,0,13.41-8.62A39.92,39.92,0,0,0,263.93,296l.39-.88.37-.87c.22-.6.47-1.18.66-1.79.43-1.19.76-2.4,1.07-3.62a42,42,0,0,0,1.07-7.35,51,51,0,0,0-1.38-14.31,68.86,68.86,0,0,0-1.95-6.69c-.76-2.17-1.61-4.28-2.52-6.33s-1.9-4-2.92-6l-1.56-2.85c-.51-.95-1-1.87-1.53-2.81a103.76,103.76,0,0,1-5.18-11.22l-.54-1.4-.48-1.41-.24-.7L249,227l-.42-1.4a49.47,49.47,0,0,1-1.21-5.59,40.09,40.09,0,0,1-.43-5.53c0-1.82.07-3.61.21-5.37a81.64,81.64,0,0,0,.46-10.25,45,45,0,0,0-1.41-9.37c-.2-.72-.39-1.43-.6-2.15a11.24,11.24,0,0,0-.86-2,12,12,0,0,0-2.66-3.31,14.34,14.34,0,0,0-3.36-2.21,17.88,17.88,0,0,0-3.56-1.27,23.27,23.27,0,0,0-6.82-.59,29.34,29.34,0,0,0-5.82.91,34.63,34.63,0,0,0-4.63,1.58,37.68,37.68,0,0,0-5.88,3.15c-.63.42-1.1.75-1.41,1l-.47.34a.13.13,0,0,0,.15.21Z"/><path class="cls-7" d="M213.7,173.22c19.59-15.54,40.85-45,30.26-73.14a41.57,41.57,0,0,0-16.85-20.3c-16.48-10.46-53.61-26-92,12.45-51.64,51.65-1.8,137-1.8,137s21.75,25,41.7,34.36c16.59,7.81,38.73,5.87,14.09-35.21C178.09,210.1,197,186.46,213.7,173.22Z"/><path class="cls-8" d="M232.48,188.48s-.41-.68-3.33-.72c-14.44-.19-23.8,15.34-17.26,28.22,5.67,11.18,13.86,23.17,21.78,19.86a5.07,5.07,0,0,0,2.26-7.4c-2.37-3.73-5.36-9.57-3.45-13C232.48,215.47,240.7,192,232.48,188.48Z"/><path class="cls-9" d="M217.22,72.28s-42.39-2.72-65.79,36.2-15.19,85.86-5.8,96.43c0,0,14.08,31.69,36.38,34s-55.16-42.25,9.78-75.07c54.78-22.34,56.9-48.86,55.84-52S250.09,87.54,217.22,72.28Z"/><path class="cls-10" d="M224.27,77s-21.82,2.41-28.52,21.74,9.74,31.07,10.91,31.07,17.41,10.22,41-13.67C247.64,116.12,246.57,86.37,224.27,77Z"/><path class="cls-11" d="M148,270.63c5.34,1.07,36.66,23.22,47,35.21,22.29,21.13,45.32,13.28,58.68,3.52,10.39-7.58,16.38-32.94,10.56-46.94-.45-1.1-.32-1.67-1.17-2.35,1.5-.21-4.41,36.87-23.48,45.77-21.12,10.57-35.21-1.17-35.21-1.17C187.17,290.55,170.28,278.85,148,270.63Z"/><path class="cls-12" d="M235.76,60s57.75,40.47.24,119.11c0,0,8.22,0,10.57,9.39C240.7,176.74,312.29,113.36,235.76,60Z"/><path class="cls-13" d="M232.21,216.06a3.81,3.81,0,0,0-.18.62c-.46,2.11-.86,9.51,12.05,20.15,0,0,2.49,6.81-2.21,9.16,0,0-3.52,3.52-5.87,3.52s-9.39-4.7-12.91-10.57-14.41-11.8-16.59-10a45.09,45.09,0,0,0-11.44,1.4c-6,1.57-10.38-10.54,6.82-28.26,18.84-19.43,31.52-17.48,35.3-8.84C240.06,199.8,231.45,213.36,232.21,216.06Z"/></g></svg>