<?xml version="1.0" encoding="utf-8"?>
<!-- Generator: Adobe Illustrator 25.2.3, SVG Export Plug-In . SVG Version: 6.00 Build 0)  -->
<svg version="1.1" id="Layer_1" xmlns="http://www.w3.org/2000/svg" xmlns:xlink="http://www.w3.org/1999/xlink" x="0px" y="0px"
	 viewBox="0 0 360 360" style="enable-background:new 0 0 360 360;" xml:space="preserve">
<style type="text/css">
	.st0{fill:#FCFCFC;stroke:#25256D;stroke-width:12;stroke-miterlimit:10;}
	.st1{fill:#FFFFFF;}
	.st2{clip-path:url(#SVGID_2_);}
	.st3{opacity:0.29;fill:url(#SVGID_3_);enable-background:new    ;}
	.st4{fill:url(#SVGID_4_);}
	.st5{fill:#AF544A;}
	.st6{fill:#3F2A1C;}
	.st7{opacity:0.17;fill:#3F2A1C;enable-background:new    ;}
	.st8{opacity:0.29;fill:url(#SVGID_5_);enable-background:new    ;}
	.st9{fill:#B26E59;}
	.st10{fill:#5B382D;}
	.st11{fill:#563029;}
	.st12{fill:#212121;}
	.st13{opacity:0.8;fill:#FCD7CD;enable-background:new    ;}
	.st14{fill:#49251F;}
	.st15{fill:#FCDBDB;}
	.st16{opacity:0.14;fill:#212121;enable-background:new    ;}
</style>
<circle class="st0" cx="180" cy="180" r="170"/>
<circle class="st1" cx="180.7" cy="179.5" r="164.4"/>
<g>
	<defs>
		<circle id="SVGID_1_" cx="180.7" cy="179.5" r="164.4"/>
	</defs>
	<clipPath id="SVGID_2_">
		<use xlink:href="#SVGID_1_"  style="overflow:visible;"/>
	</clipPath>
	<g class="st2">
		
			<linearGradient id="SVGID_3_" gradientUnits="userSpaceOnUse" x1="177.8498" y1="237.2509" x2="177.8498" y2="77.9714" gradientTransform="matrix(1 0 0 -1 0 362)">
			<stop  offset="0" style="stop-color:#F1B39F"/>
			<stop  offset="0.46" style="stop-color:#ED6855"/>
			<stop  offset="1" style="stop-color:#8F4638"/>
		</linearGradient>
		<path class="st3" d="M238.6,128c-31.1-6.5-63.3-3.1-93,8.9c-34.1,13.7-91.7,41.9-94.7,76.4c-2,22.8,16.3,39.9,36.5,51.5
			c25.8,14.9,55.6,21.4,85.2,18.6c43.4-4,112.3-18.9,128.7-72.4C316.6,161.2,279.7,136.6,238.6,128z"/>
		
			<linearGradient id="SVGID_4_" gradientUnits="userSpaceOnUse" x1="177.8498" y1="237.2509" x2="177.8498" y2="77.9714" gradientTransform="matrix(1 0 0 -1 0 362)">
			<stop  offset="0" style="stop-color:#FFC7B8"/>
			<stop  offset="1" style="stop-color:#F09B88"/>
		</linearGradient>
		<path class="st4" d="M238.6,128c-31.1-6.5-63.3-3.1-93,8.9c-34.1,13.7-91.7,41.9-94.7,76.4c-2,22.8,16.3,39.9,36.5,51.5
			c25.8,14.9,55.6,21.4,85.2,18.6c43.4-4,112.3-18.9,128.7-72.4C316.6,161.2,279.7,136.6,238.6,128z"/>
		<path class="st5" d="M80.7,202.7c0,0,2.2-2.2,6.5-5.7c2.1-1.8,4.8-3.8,7.9-6.1s6.7-4.7,10.8-7.1s8.5-5,13.4-7.4
			c1.2-0.6,2.5-1.2,3.7-1.8s2.6-1.1,3.9-1.7c2.6-1.1,5.3-2.1,8.1-3.1c5.7-2,11.6-3.7,17.5-5c6.1-1.4,12.3-2.3,18.6-2.7
			c1.6-0.1,3.1-0.2,4.7-0.3c0.8,0,1.6,0,2.4,0s1.6,0,2.4,0c3.1,0.1,6.3,0.2,9.4,0.5c6.1,0.6,12.1,1.7,18,3.3
			c5.5,1.5,10.9,3.4,16,5.7c4.7,2.1,9.2,4.4,13.6,7.1c2,1.3,3.9,2.4,5.7,3.7c0.9,0.6,1.8,1.2,2.6,1.8l2.4,1.8c1.6,1.1,3,2.3,4.3,3.3
			c0.6,0.5,1.3,1,1.9,1.5l1.7,1.4c1,0.9,2,1.7,2.8,2.4l2,1.8l1.7,1.5v0.1l-1.7-1.5l-2.1-1.8c-0.8-0.7-1.8-1.4-2.8-2.3l-1.7-1.4
			c-0.6-0.5-1.2-1-1.9-1.4c-1.3-1-2.7-2.1-4.3-3.2l-2.4-1.7l-2.6-1.7c-1.8-1.2-3.7-2.4-5.7-3.6c-4.4-2.6-8.9-4.9-13.6-7
			c-5.2-2.3-10.5-4.2-16-5.7c-5.8-1.6-11.8-2.7-17.8-3.4c-3.1-0.4-6.2-0.5-9.3-0.6c-0.8,0-1.6,0-2.4,0s-1.6,0-2.4,0
			c-1.6,0-3.1,0.1-4.7,0.2c-0.8,0.1-1.6,0.1-2.4,0.1l-2.3,0.2l-1.2,0.1l-1.2,0.1l-2.3,0.3c-3.1,0.5-6.2,1-9.2,1.7
			c-5.9,1.3-11.7,3-17.4,5.2c-5.5,2.1-10.7,4.4-15.6,6.8s-9.3,4.9-13.3,7.3s-7.7,4.8-10.8,7s-5.8,4.2-8,5.9s-3.8,3.1-5,4
			S80.7,202.7,80.7,202.7L80.7,202.7z"/>
		<path class="st5" d="M90.3,243.5l1.9,0.7c1.3,0.5,3.1,1.2,5.4,2s5.2,1.9,8.6,2.9s7.1,2.2,11.2,3.3s8.7,2.2,13.5,3.2
			c4.8,1,9.9,2,15.2,2.7s10.8,1.3,16.5,1.5c5.7,0.2,11.4,0.2,17.1-0.2c2.9-0.2,5.7-0.5,8.5-0.8s5.6-0.8,8.4-1.3
			c1.4-0.2,2.8-0.5,4.1-0.8s2.7-0.6,4.1-0.9c2.7-0.7,5.3-1.4,7.9-2.1c4.9-1.5,9.8-3.3,14.5-5.3c4.2-1.8,8.4-3.9,12.4-6.1
			c0.9-0.5,1.8-1.1,2.7-1.6s1.7-1,2.6-1.6l2.4-1.5l2.2-1.5c0.7-0.5,1.4-1,2.1-1.4l1.9-1.4l3.3-2.5l2.6-2.1c0.8-0.6,1.4-1.2,1.9-1.6
			l1.6-1.3l0.1,0.1c0,0-0.5,0.5-1.5,1.4c-0.5,0.4-1.1,1-1.8,1.6s-1.6,1.4-2.5,2.2s-2.1,1.6-3.3,2.6l-1.9,1.4c-0.6,0.5-1.3,1-2,1.5
			l-2.2,1.6c-0.8,0.5-1.6,1-2.4,1.6s-1.7,1.1-2.6,1.6s-1.8,1.1-2.7,1.6c-4,2.3-8.1,4.4-12.4,6.3c-4.7,2.1-9.6,3.9-14.6,5.3
			c-5.3,1.6-10.7,2.8-16.2,3.7c-2.8,0.5-5.6,0.8-8.5,1.2s-5.7,0.5-8.6,0.7c-1.4,0.1-2.9,0.1-4.3,0.2s-2.9,0.1-4.3,0
			c-2.9,0-5.7-0.1-8.5-0.2c-5.6-0.2-11.2-0.7-16.5-1.4c-1.3-0.1-2.7-0.3-4-0.5s-2.6-0.4-3.9-0.6c-2.6-0.4-5.1-0.9-7.5-1.4
			s-4.8-1-7-1.6s-4.4-1.1-6.5-1.7c-4.2-1.1-7.9-2.3-11.2-3.4s-6.2-2.2-8.5-3.1s-4.2-1.7-5.4-2.2L90.3,243.5L90.3,243.5z"/>
		<path class="st6" d="M310,139c0.5,1.6-1.9,2.5-2.9,1.1c-10.5-15-35.6-41.4-77.8-32.2c-38.2,7.9-53.4,21.5-103.1,23.6
			c-32.3,1.4-63.3,16.8-72.2,22.7c-0.8,0.6-2,0.4-2.6-0.4c-0.1-0.2-0.3-0.4-0.3-0.7c-0.9-8.2-2.2-32.2,10.2-48.3
			c-3.8,7.4-9.9,27.3-7.1,33.1c0.1-8.9,8.9-29.3,15.1-34.6c-4.4,5.4-11.1,18.3-8,26c3-7.9,10.8-21.5,16.9-26
			c-4.3,4.8-9.4,11.2-8,16.5c3.4-6.7,9.2-13.2,14.5-16.2l1.3-0.5c34.3-8.3,62.7-10.9,101.6-24.2c0,0,84.5-19.7,111.1,33.1
			C303.1,120.6,306.9,129.7,310,139z"/>
		<path class="st7" d="M310.1,143.5c0.5,1.6-1.9,2.5-2.9,1.1c-10.5-15-35.5-41.4-77.6-32.2c-38.1,7.9-53.2,21.5-102.8,23.6
			c-32.2,1.4-63.1,16.8-71.9,22.6c-0.8,0.6-2,0.4-2.6-0.4c-0.1-0.2-0.3-0.4-0.3-0.7c-0.9-8.2-2.2-32.2,10.1-48.3
			c-3.8,7.4-9.9,27.3-7.1,33.1c0.1-8.9,8.8-29.3,15.1-34.6c-4.3,5.4-11.1,18.3-8,26c3-7.9,10.8-21.5,16.8-26
			c-4.3,4.8-9.4,11.2-8,16.5c3.4-6.7,9.2-13.2,14.5-16.2l1.3-0.5c34.3-8.3,62.5-10.9,101.3-24.2c0,0,84.2-19.7,110.8,33.1
			C303.3,125.1,307.1,134.2,310.1,143.5z"/>
		
			<linearGradient id="SVGID_5_" gradientUnits="userSpaceOnUse" x1="177.2134" y1="199.8958" x2="177.2134" y2="131.16" gradientTransform="matrix(1 0 0 -1 0 362)">
			<stop  offset="0" style="stop-color:#F1B39F"/>
			<stop  offset="0.32" style="stop-color:#ED6855"/>
			<stop  offset="0.9" style="stop-color:#8F4638"/>
		</linearGradient>
		<path class="st8" d="M76.3,207.7c0,0,35.1-40.8,95.8-45.3s96.3,41.8,96.3,41.8s6.2,5.3,13.3,2.7c0,0-31.6,22.6-86.9,2.9
			S84.3,230.8,84.3,230.8S64.8,225.5,76.3,207.7z"/>
		<path class="st1" d="M84.3,230.8c18.7-32.9,88.9-77.4,169.6-15.6C182.2,270.9,141.3,248.6,84.3,230.8z"/>
		<path class="st9" d="M201.3,189.2c-0.8-1-1.8-1.9-2.9-2.7c-0.1,0-0.2,0-0.3-0.1c-5.5-1-11.1-2.2-16.8-2.9c-1.7,0-3.5,0-5.3-0.1
			c-2.2-0.1-4.4-0.4-6.4-0.7c-1.8-0.1-3.6-0.2-5.4-0.3c-3.3-0.1-6.6,0.7-10,0.9c-0.2,0-0.5,0-0.7,0c-0.8,0.4-1.5,0.9-2.2,1.5
			c-14.6,12.6-16.2,34.7-3.6,49.3s34.7,16.2,49.3,3.6C211.3,225.4,213.2,203.9,201.3,189.2L201.3,189.2z"/>
		<path class="st10" d="M208.7,215.1L187,212l21.9-0.2c0.2,0,0.3-0.2,0.3-0.4c0-0.2-0.2-0.3-0.3-0.3l-21.9-0.6l21.7-2.7
			c0.2,0,0.3-0.2,0.3-0.4c0-0.2-0.2-0.4-0.4-0.3c0,0,0,0,0,0l-21.8,2l21.3-5.2c0.2,0,0.3-0.2,0.3-0.4c0,0,0,0,0,0
			c0-0.2-0.2-0.3-0.4-0.3c0,0,0,0,0,0l-21.4,4.5l20.5-7.7c0.2-0.1,0.3-0.3,0.2-0.5c-0.1-0.2-0.3-0.3-0.5-0.2c0,0,0,0,0,0l-20.8,7
			l19.5-10c0.2-0.1,0.1-0.3,0.1-0.5s-0.2-0.3-0.4-0.2l-19.8,9.3l18.2-12.2c0.2-0.1,0.1-0.2,0-0.4s-0.2-0.3-0.4-0.2l-18.6,11.6
			l16.7-14.2c0.1-0.1,0.1-0.4,0-0.5c-0.1-0.1-0.4-0.1-0.5,0l-17.1,13.6l14.7-15.9h-0.2l-0.7-0.1l-14.9,15l11.6-15.8l-0.9-0.2
			l-11.8,14.9l8.8-15.5l-0.9-0.2l-9.1,14.9l6.5-15.4l-1-0.2l-6.9,14.9l4.4-15.3l-1-0.1l-4.9,14.9l2.6-15.2l-1-0.1l-3.1,15l0.8-15.2
			h-0.7h-0.3l-1.3,15.2l-1-15.3l-1-0.1l0.5,15.4l-2.9-15.6l-1-0.1l2.4,15.9l-5-16h-1l4.7,16.4l-7.3-16.5l-0.9,0.1l6.8,17l-9.8-16.7
			l-0.9,0.1l9.4,17.3l-12.9-17c-0.3,0-0.7,0-1-0.1c0,0,0,0.1,0,0.1l12.6,17.9l-15.2-15.8c-0.1-0.1-0.4-0.1-0.5,0
			c-0.1,0.1-0.1,0.4,0,0.5l14.6,16.3L148,188.3c-0.2-0.1-0.4-0.1-0.5,0.1c-0.1,0.2-0.1,0.4,0,0.5l16.4,14.5l-18.4-11.9
			c-0.2-0.1-0.4-0.1-0.5,0.1c-0.1,0.2-0.1,0.4,0.1,0.5l18,12.5l-19.7-9.6c-0.2-0.1-0.4,0-0.5,0.2c-0.1,0.2,0,0.4,0.2,0.5l19.3,10.3
			l-20.6-7.3c-0.2-0.1-0.4,0-0.5,0.2s0,0.4,0.2,0.5l0,0l20.4,8l-21.4-4.9c-0.2-0.1-0.4,0.1-0.4,0.3c0,0,0,0,0,0
			c-0.1,0.2,0.1,0.4,0.3,0.5l21.2,5.6l-21.8-2.4c-0.2,0-0.4,0.2-0.4,0.4c0,0.2,0.1,0.3,0.3,0.4l21.7,3.1l-21.9,0.2
			c-0.2,0-0.4,0.1-0.4,0.3c0,0.2,0.1,0.4,0.3,0.4c0,0,0.1,0,0.1,0l21.9,0.6l-21.7,2.7c-0.2,0-0.3,0.2-0.3,0.4c0,0.2,0.2,0.4,0.4,0.3
			l21.8-2l-21.3,5.2c-0.2,0-0.3,0.2-0.3,0.4c0,0.2,0.2,0.3,0.4,0.3l21.4-4.5l-20.5,7.7c-0.2,0.1-0.3,0.3-0.2,0.5
			c0.1,0.2,0.3,0.3,0.5,0.2l20.8-7l-19.5,10c-0.2,0.1-0.3,0.3-0.2,0.5s0.3,0.3,0.5,0.2l19.8-9.3l-18.2,12.2
			c-0.2,0.1-0.2,0.3-0.1,0.5c0.1,0.2,0.3,0.2,0.5,0.1l0,0l18.6-11.6L147.1,233c-0.1,0.1-0.1,0.4,0,0.5c0.1,0.1,0.4,0.1,0.5,0
			l17.1-13.6L149.8,236c-0.1,0.2-0.1,0.4,0.1,0.5c0.1,0.1,0.3,0.1,0.5,0l15.4-15.6l-12.9,17.7c-0.1,0.2-0.1,0.4,0.1,0.5
			c0.2,0.1,0.4,0.1,0.5-0.1c0,0,0,0,0,0l13.6-17.3l-10.8,19.1c-0.1,0.2,0,0.4,0.2,0.5c0.2,0.1,0.3,0,0.4-0.1l11.4-18.7l-8.5,20.2
			c-0.1,0.2,0,0.4,0.2,0.5c0,0,0,0,0,0c0.2,0.1,0.4,0,0.5-0.2c0,0,0,0,0,0l9.2-19.9l-6.1,21c0,0.2,0.1,0.4,0.3,0.5
			c0.2,0.1,0.4,0,0.5-0.2l6.8-20.8l-3.6,21.6c0,0.2,0.1,0.4,0.3,0.4c0.2,0,0.4-0.1,0.4-0.3l4.4-21.5l-1.1,21.9
			c0,0.2,0.1,0.4,0.3,0.4c0,0,0,0,0,0l0,0c0.2,0,0.4-0.1,0.4-0.3c0,0,0,0,0,0L174,224l1.5,21.9c0,0.2,0.2,0.4,0.4,0.4
			c0.2,0,0.4-0.2,0.4-0.4c0,0,0,0,0,0l-0.7-21.9l4,21.5c0,0.2,0.2,0.3,0.4,0.3c0.2,0,0.3-0.2,0.3-0.4l-3.3-21.7l6.5,20.9
			c0.1,0.2,0.3,0.3,0.5,0.2c0.2-0.1,0.3-0.3,0.3-0.5l-5.8-21.1l8.9,20c0.1,0.2,0.3,0.3,0.5,0.2s0.3-0.3,0.2-0.5l-8.2-20.3l11.1,18.9
			c0.1,0.2,0.4,0.2,0.5,0.1c0.2-0.1,0.2-0.3,0.1-0.5L181.1,222l13.2,17.4c0.1,0.2,0.4,0.2,0.5,0.1c0.2-0.1,0.2-0.3,0.1-0.5
			c0,0,0,0,0,0l-12.6-17.9l15.2,15.8c0.1,0.1,0.4,0.1,0.5,0c0.1-0.1,0.1-0.4,0-0.5l-14.6-16.3l16.9,13.9c0.2,0.1,0.4,0.1,0.5-0.1
			c0.1-0.1,0.1-0.3,0-0.5l-16.4-14.5l18.4,11.9c0.2,0.1,0.4,0.1,0.5-0.1c0.1-0.2,0.1-0.4-0.1-0.5l0,0l-18-12.5l19.7,9.7
			c0.2,0.1,0.4,0,0.5-0.2s0-0.4-0.2-0.5l-19.3-10.3l20.6,7.3c0.2,0.1,0.4,0,0.5-0.2c0.1-0.2,0-0.4-0.2-0.5l-20.4-8l21.4,4.9
			c0.2,0,0.4-0.1,0.4-0.3c0-0.2-0.1-0.4-0.3-0.4l-21.2-5.6l21.8,2.4c0.2,0,0.4-0.2,0.4-0.4C209,215.3,208.8,215.2,208.7,215.1
			L208.7,215.1z"/>
		<path class="st11" d="M200.8,188.7l-1.1-1.1c0,0-0.1-0.1-0.1-0.1l-0.1-0.1l-0.3-0.2l-0.6-0.5l0,0c-0.6-0.1-1.2-0.2-1.8-0.3
			L195,186l-3.5-0.6c-1.2-0.2-2.4-0.4-3.5-0.5l-3.5-0.5h0.1l-2.4,0.2c-0.8,0-1.6,0.1-2.5,0.1h-1.2c-0.4,0-0.8,0-1.3,0h-1.6h-0.3
			h-0.6l-1.2-0.1c-0.4,0-0.8-0.1-1.2-0.1c-0.8-0.1-1.7-0.2-2.5-0.3l-4.9-0.8h-1.3c-0.2,0-0.5,0-0.7,0h-0.7c-0.4,0-0.9,0.1-1.4,0.1
			s-0.9,0.1-1.4,0.2l-2.8,0.3l-0.7,0.1l-0.7,0.1l-0.7,0.1H154l-0.5-0.1l0.5-0.1l-1,0.6l-1,0.7H152l0,0l0,0l-0.1,0.1l-0.2,0.2
			l-0.5,0.4c-0.3,0.3-0.6,0.6-0.9,0.9c-0.6,0.6-1.2,1.2-1.8,1.8s-1.1,1.3-1.6,2s-1,1.4-1.5,2.1s-0.9,1.4-1.3,2.2s-0.8,1.5-1.2,2.3
			s-0.7,1.6-1,2.4c-1.2,3.2-1.9,6.6-2.1,10.1c-0.2,3.5,0.2,6.9,1.1,10.3c0.4,1.7,1,3.3,1.7,4.9c0.7,1.6,1.5,3.1,2.5,4.5
			c0.5,0.7,1,1.4,1.5,2.1s1.1,1.4,1.6,2c1.1,1.3,2.4,2.5,3.7,3.6c3.9,3.3,8.6,5.7,13.5,7c0.4,0.1,0.8,0.2,1.2,0.3l0.6,0.1l0.6,0.1
			c0.4,0.1,0.8,0.2,1.3,0.2l1.3,0.1c0.4,0.1,0.9,0.1,1.3,0.1l0.6,0.1h0.6h1.3h1.3c1.7-0.1,3.4-0.3,5-0.6c5-1,9.7-3,13.8-6
			c1.4-1,2.7-2.1,3.9-3.3c1.2-1.2,2.3-2.5,3.3-3.8c1-1.4,1.9-2.8,2.8-4.3c0.8-1.5,1.5-3,2.1-4.6c0.6-1.6,1.1-3.2,1.4-4.9
			c0.4-1.7,0.6-3.4,0.7-5.1l0.1-1.3v-1.3c0-0.4,0-0.9,0-1.3s0-0.9-0.1-1.3c-0.1-1.7-0.4-3.4-0.8-5.1c-0.4-1.7-0.9-3.3-1.6-4.9
			c-0.7-1.6-1.4-3.2-2.3-4.6C202.9,191.4,201.9,190,200.8,188.7L200.8,188.7z M200.9,188.6c2.3,2.7,4.2,5.6,5.6,8.8
			c0.4,0.8,0.7,1.6,1,2.4s0.6,1.6,0.8,2.5c0.5,1.7,0.9,3.4,1.1,5.2c0.1,0.4,0.1,0.9,0.1,1.3s0.1,0.9,0.1,1.3l0.1,1.3v1.3
			c0,1.8-0.2,3.5-0.5,5.3c-0.6,3.5-1.7,6.9-3.4,10.1c-1.7,3.2-3.8,6.1-6.3,8.6c-1.3,1.3-2.6,2.4-4.1,3.5c-1.4,1-3,2-4.6,2.8
			c-4.8,2.5-10.1,3.9-15.5,4h-1.4l-1.3-0.1h-0.7l-0.7-0.1c-0.4,0-0.9-0.1-1.3-0.1c-7.1-0.9-13.8-3.9-19.1-8.8
			c-1.3-1.2-2.5-2.5-3.7-3.8c-0.6-0.7-1.1-1.4-1.6-2.1s-1-1.4-1.4-2.2c-3.7-6-5.5-13-5.3-20.1c0-1.8,0.2-3.5,0.5-5.2
			c0.1-0.9,0.3-1.7,0.5-2.6s0.4-1.7,0.7-2.5s0.6-1.7,0.9-2.5s0.7-1.6,1.1-2.4s0.8-1.6,1.3-2.3s0.9-1.5,1.5-2.2s1.1-1.4,1.6-2.1
			s1.1-1.4,1.8-2c0.3-0.3,0.6-0.6,0.9-0.9l0.5-0.4l0.2-0.2l0.1-0.1l0,0h0.1h0.1l1.1-0.9l1.2-0.7l0.2-0.1h0.4h0.2h0.3h0.7l0.7-0.1
			l0.7-0.1c0.9-0.1,1.9-0.2,2.8-0.3l1.4-0.1c0.5,0,1-0.1,1.4-0.1h0.7c0.3,0,0.5,0,0.7,0h0.7h0.7h0.1l4.8,1l1.2,0.2l1.2,0.2
			c0.4,0.1,0.8,0.1,1.2,0.2l1.2,0.1l0.6,0.1h0.3h0.3l1.2,0.1c0.4,0,0.8,0.1,1.2,0.1h1.2c0.8,0,1.6,0,2.4,0h2.4h0.1l7,1.4l3.5,0.7
			l1.8,0.4c0.6,0.1,1.2,0.2,1.8,0.3l0,0l0.6,0.5l0.3,0.2l0.1,0.1l0.1,0.1L200.9,188.6L200.9,188.6z"/>
		<path class="st12" d="M187.8,212c-0.4,7.5-6.8,13.2-14.3,12.8c-7.5-0.4-13.2-6.8-12.8-14.3c0.4-7.5,6.8-13.2,14.3-12.8
			c0,0,0,0,0,0C182.5,198.1,188.2,204.5,187.8,212z"/>
		<path class="st13" d="M198.2,208.1c-2.3,3.6-7.3,5.2-12.1,3.3c-5.9-2.4-9.1-9.1-5.7-14.5s10.9-5.4,15.6-1.1
			C199.8,199.3,200.5,204.5,198.2,208.1z"/>
		<path class="st14" d="M84.9,230.9l2.5,0.5l2.8,0.6l2.8,0.6c0.9,0.2,1.9,0.4,2.8,0.6l5.5,1.4l2.8,0.7l2.7,0.8l5.5,1.6l1.4,0.4
			l0.7,0.2l0.3,0.1h0.2l0.2,0.1l1.3,0.5l1.4,0.5c1.8,0.7,3.6,1.4,5.3,2c0.9,0.3,1.8,0.6,2.7,1s1.8,0.6,2.6,0.9
			c3.5,1.2,7.1,2.3,10.7,3.1c3.6,0.9,7.3,1.6,10.9,2.1l2.8,0.4c0.9,0.1,1.9,0.2,2.8,0.3c1.9,0.2,3.7,0.3,5.6,0.4
			c0.9,0,1.9,0,2.8,0.1h1.4h0.7h0.7l2.8-0.1c0.5,0,0.9,0,1.4,0l1.4-0.1l2.8-0.2c0.5,0,0.9-0.1,1.4-0.1l1.4-0.1l2.8-0.3l2.8-0.4
			c0.9-0.1,1.9-0.3,2.8-0.4l2.8-0.5l1.4-0.3c0.5-0.1,0.9-0.2,1.4-0.3l2.7-0.6c0.9-0.2,1.8-0.4,2.7-0.7l2.7-0.8l2.7-0.8l2.7-0.9
			l2.7-0.9c0.4-0.1,0.9-0.3,1.3-0.5l1.3-0.5l2.6-1.1l1.3-0.5l1.3-0.6c1.7-0.8,3.4-1.6,5.1-2.4s3.3-1.7,5-2.6l1.3-0.7l1.2-0.7
			l2.4-1.4l2.4-1.4c0.8-0.5,1.6-1,2.4-1.5c1.6-1,3.2-2.1,4.7-3.1l4.6-3.3c0.8-0.6,1.5-1.1,2.3-1.7l2.2-1.8l4.4-3.5v1.7l-5-3.3
			c-1.7-1.1-3.4-2.1-5.1-3.2s-3.5-2-5.2-3s-3.5-1.9-5.3-2.9l-5.3-2.8l-2.7-1.3c-0.9-0.4-1.8-0.9-2.7-1.3l-2.7-1.2l-1.4-0.6l-1.4-0.6
			l-2.8-1.2c-0.9-0.4-1.9-0.7-2.8-1.1c-3.7-1.5-7.5-2.7-11.3-3.8l-2.9-0.8c-0.5-0.1-1-0.3-1.4-0.4l-1.4-0.3c-1-0.2-1.9-0.5-2.9-0.7
			l-2.9-0.6c-1-0.2-2-0.3-2.9-0.5s-1.9-0.3-2.9-0.4l-3-0.4l-2.9-0.3c-3.9-0.3-7.9-0.4-11.9-0.3c-3.9,0.2-7.9,0.6-11.8,1.2
			c-7.8,1.3-15.4,3.5-22.7,6.7c-3.6,1.6-7.2,3.4-10.6,5.4c-1.7,1-3.4,2.1-5.1,3.2l-1.2,0.8l-1.2,0.9c-0.8,0.6-1.6,1.2-2.4,1.8
			c-3.2,2.4-6.3,5-9.2,7.7c-1.5,1.4-2.9,2.8-4.3,4.2s-2.8,2.9-4.1,4.4C89.5,224.7,87.1,227.7,84.9,230.9z M84.3,230.9
			c2-3.6,4.2-6.9,6.7-10.2c2.5-3.2,5.2-6.4,8-9.3c1.4-1.5,2.9-2.9,4.4-4.3c0.8-0.7,1.5-1.4,2.3-2.1s1.6-1.4,2.3-2s1.6-1.3,2.4-1.9
			l1.2-1l1.2-0.9c1.7-1.2,3.4-2.4,5.1-3.5c6.9-4.5,14.5-8.1,22.3-10.6c4-1.3,8-2.3,12.1-3c4.1-0.7,8.2-1.2,12.4-1.4
			c4.1-0.2,8.3-0.1,12.4,0.3l3.1,0.3l3.1,0.4c1,0.1,2,0.3,3.1,0.5s2,0.3,3,0.6l3,0.6c1,0.2,2,0.5,3,0.7c2,0.5,4,1.1,6,1.7
			c3.9,1.3,7.8,2.6,11.6,4.2c0.9,0.4,1.9,0.8,2.9,1.2l2.8,1.3l1.4,0.6l1.4,0.7l2.8,1.3c1.8,0.9,3.6,1.9,5.4,2.9l5.3,3
			c1.7,1.1,3.5,2.1,5.2,3.2s3.4,2.2,5.1,3.4s3.4,2.3,5,3.5l4.9,3.6l1.2,0.9l-1.2,0.9l-4.6,3.3l-2.3,1.7c-0.8,0.5-1.6,1.1-2.4,1.6
			l-4.7,3.2c-1.6,1-3.2,2-4.8,3c-0.8,0.5-1.6,1-2.4,1.5l-2.5,1.4l-2.5,1.5l-1.2,0.7l-1.3,0.7c-1.7,0.9-3.3,1.8-5,2.7l-5.1,2.5
			c-0.4,0.2-0.9,0.4-1.3,0.6l-1.3,0.6l-2.6,1.2l-1.3,0.6c-0.4,0.2-0.9,0.4-1.3,0.6l-2.6,1.1l-2.7,1.1l-2.7,1l-2.7,1
			c-0.9,0.3-1.8,0.6-2.7,0.9l-2.8,0.8c-0.4,0.1-0.9,0.3-1.4,0.4l-1.4,0.4l-2.8,0.7c-0.9,0.2-1.9,0.4-2.8,0.6l-2.8,0.6l-2.9,0.4
			c-1,0.1-1.9,0.3-2.9,0.4l-2.9,0.3l-1.4,0.1c-0.5,0-1,0-1.4,0.1l-2.9,0.1H166h-2.2c-1,0-1.9,0-2.9,0l-2.9-0.1c-0.5,0-1,0-1.4-0.1
			l-1.4-0.1c-1-0.1-1.9-0.2-2.9-0.3l-2.9-0.4c-1-0.1-1.9-0.3-2.9-0.5s-1.9-0.3-2.8-0.5l-2.8-0.6c-0.9-0.2-1.9-0.5-2.8-0.7
			c-3.7-1-7.4-2.2-11-3.6s-7.1-2.9-10.6-4.4l-1.3-0.5L114,241l-2.6-0.9l-5.4-1.8c-0.9-0.3-1.8-0.6-2.7-0.9l-2.7-0.9l-5.4-1.8
			c-1.8-0.6-3.6-1.1-5.4-1.7l-2.7-0.9l-3-0.9L84.3,230.9z"/>
		<path class="st15" d="M109.7,205.6c-3.9,3.5-11.7,24.8,8.3,33.8c0,0-7.5-2.5-18.1-5.1s-15-3.4-15-3.4
			C91.5,218.8,109.7,205.6,109.7,205.6z"/>
		<path class="st16" d="M85.2,230.8c0,0,64.4-61.2,165.6-13.7l3.1-1.9c0,0-47.9-35.5-90.9-30.4S90.6,218.4,85.2,230.8z"/>
	</g>
</g>
</svg>
