<svg id="Layer_1" data-name="Layer 1" xmlns="http://www.w3.org/2000/svg" xmlns:xlink="http://www.w3.org/1999/xlink" viewBox="0 0 360 360"><defs><style>.cls-1,.cls-9{fill:#fff;}.cls-2{fill:#fcfcfc;stroke:#25256d;stroke-miterlimit:10;stroke-width:12px;}.cls-3{clip-path:url(#clip-path);}.cls-4{fill:url(#linear-gradient);}.cls-5,.cls-7{fill:#af544a;}.cls-6{fill:#66351a;}.cls-7{opacity:0.72;}.cls-10,.cls-8{opacity:0.14;}.cls-8{fill:url(#linear-gradient-2);}.cls-9{opacity:0.44;}.cls-10{fill:url(#linear-gradient-3);}</style><clipPath id="clip-path"><circle class="cls-1" cx="180.7" cy="179.54" r="164.38"/></clipPath><linearGradient id="linear-gradient" x1="184.01" y1="38.97" x2="184.01" y2="320.24" gradientUnits="userSpaceOnUse"><stop offset="0" stop-color="#ffc7b8"/><stop offset="1" stop-color="#f09b88"/></linearGradient><linearGradient id="linear-gradient-2" x1="105.95" y1="254.83" x2="192.42" y2="254.83" gradientUnits="userSpaceOnUse"><stop offset="0" stop-color="#8f4638"/><stop offset="0.99" stop-color="#8f4638"/></linearGradient><linearGradient id="linear-gradient-3" x1="202.5" y1="275.13" x2="289.11" y2="275.13" xlink:href="#linear-gradient-2"/></defs><circle class="cls-2" cx="180" cy="180" r="170"/><circle class="cls-1" cx="180.7" cy="179.54" r="164.38"/><g class="cls-3"><path class="cls-4" d="M174.41,319.25c10.88-1,30.57-7.07,36.89-16,4.2-5.91,12.39-11.2,28.14-12,38-2,54.76-37,50-50s-65.9-68.67-71.46-86.35-37.59-59.71-40.59-65.71-22-73-63-42c-15.93,12-15.89,44.24-8,51C128.39,141.17-8.32,335.72,174.41,319.25Z"/><path class="cls-5" d="M177.85,89.58l2.08,2.87c1.33,1.89,3.22,4.68,5.57,8.28s5.11,8,8.2,13.15,6.61,10.89,10.32,17.25,7.82,13.21,12.08,20.51l6.61,11.2c.3.49.59,1,.88,1.48l.9,1.42c.3.47.59.95.89,1.43l1,1.45,1,1.47,1,1.42c.68,1,1.35,1.91,2,2.84,2.8,3.76,5.77,7.45,8.85,11.12s6.26,7.32,9.54,10.91,6.62,7.2,10,10.75,6.89,7.08,10.35,10.55a76.45,76.45,0,0,1,9.16,10.79,36.13,36.13,0,0,1,5.51,12.27,30.57,30.57,0,0,1,0,13.09c-.1.54-.24,1.07-.37,1.61s-.29,1.07-.44,1.6l-.11.39,0,.1s0,.1,0,.07l-.07.21-.27.84c-.18.58-.37,1.05-.55,1.57a44.44,44.44,0,0,1-2.67,6,35.27,35.27,0,0,1-7.84,9.89,41.74,41.74,0,0,1-10.43,6.52,72.76,72.76,0,0,1-11.3,3.91c-3.79,1-7.55,1.79-11.15,2.62s-7.08,1.7-10.34,2.72a49.85,49.85,0,0,0-9,3.72,27.08,27.08,0,0,0-3.76,2.46,22.85,22.85,0,0,0-3.05,2.9,20.32,20.32,0,0,0-3.72,6.31,25,25,0,0,0-1.31,5.69,36.62,36.62,0,0,0-.2,4.27c0,1.16.09,2,.14,2.64s.08.9.08.9v-.9c0-.6,0-1.48.09-2.63a28.15,28.15,0,0,1,2.2-9.56,18.87,18.87,0,0,1,3.87-5.66,23.92,23.92,0,0,1,6.63-4.56,46.71,46.71,0,0,1,8.79-3c3.21-.82,6.65-1.46,10.26-2.13s7.41-1.31,11.37-2.14a70.4,70.4,0,0,0,12.12-3.59,46.68,46.68,0,0,0,11.8-6.82,39,39,0,0,0,9.31-11,48.2,48.2,0,0,0,3.18-6.64c.21-.58.46-1.2.65-1.74l.29-.83.07-.21.09-.25.13-.45a37,37,0,0,0,1-3.65,36,36,0,0,0,.18-15.47,41.52,41.52,0,0,0-6.23-14.32,77.83,77.83,0,0,0-9.78-11.73c-6.92-7-13.7-14-20.21-21.12S240.51,178.11,235,170.88c-.71-.89-1.36-1.8-2-2.7l-1-1.36-.94-1.34-.93-1.34c-.31-.47-.62-.94-.92-1.41l-.92-1.41-.86-1.37-7-11c-4.56-7.13-8.92-13.84-13-20s-8-11.73-11.47-16.61-6.65-9.08-9.33-12.47c-1.36-1.68-2.54-3.2-3.63-4.48s-2-2.37-2.79-3.22Z"/><path class="cls-5" d="M169.58,288.34s-.35.29-1.06.78a21.34,21.34,0,0,1-3.21,1.82,28.32,28.32,0,0,1-5.38,1.86,34.9,34.9,0,0,1-7.29.93,33.49,33.49,0,0,1-8.54-.92,23.64,23.64,0,0,1-8.52-3.9,17,17,0,0,1-4.86-5.47,20.16,20.16,0,0,1-1.07-2.24,24.15,24.15,0,0,1-1.79-10.06,26.7,26.7,0,0,1,2.23-10,26.06,26.06,0,0,1,2.47-4.45l.74-1c.26-.32.52-.65.79-1a24.3,24.3,0,0,1,1.67-1.84,28.33,28.33,0,0,1,3.71-3.16,38.45,38.45,0,0,1,4-2.46c2.74-1.46,5.47-2.63,8-3.81a52.93,52.93,0,0,0,6.69-3.56,15.11,15.11,0,0,0,4.29-4,8.89,8.89,0,0,0,1.39-3.49,8.21,8.21,0,0,0,.1-1c0-.22,0-.34,0-.34s0,.12-.05.34a8.32,8.32,0,0,1-.2,1,8.65,8.65,0,0,1-1.63,3.25,14.43,14.43,0,0,1-4.39,3.52,54.39,54.39,0,0,1-6.76,3.06c-2.56,1-5.35,2.07-8.25,3.44a35.27,35.27,0,0,0-8.56,5.52,27.41,27.41,0,0,0-6.62,8.83,27.78,27.78,0,0,0-2.65,11.14A26.77,26.77,0,0,0,127,282.35l.3.65.33.64c.21.43.47.86.72,1.28a20.2,20.2,0,0,0,5.74,6.09,25.3,25.3,0,0,0,9.56,3.91,32.34,32.34,0,0,0,9.1.45,32.69,32.69,0,0,0,7.5-1.52,27.15,27.15,0,0,0,5.35-2.4,20.06,20.06,0,0,0,3-2.2c.33-.28.57-.52.72-.67Z"/><path class="cls-6" d="M234.44,271.23c-2.17-.54-47-17-67,12,0,0-3.54,7.87,12-1,3.58-2,9.37-2.81,13.49-2.72a20.52,20.52,0,0,1,11.52,3.72C214.43,290.24,246.44,274.23,234.44,271.23Z"/><path class="cls-7" d="M166.93,283.83a.52.52,0,0,0,.62-.19v0l.21-.32c.14-.21.36-.52.67-.92a25.65,25.65,0,0,1,3-3.16,32,32,0,0,1,5.43-3.95,38.91,38.91,0,0,1,7.9-3.47,43.14,43.14,0,0,1,4.77-1.21c.82-.17,1.71-.3,2.53-.44.44-.07.94-.16,1.35-.21s.86-.11,1.31-.15a74.45,74.45,0,0,1,11.47-.3,90.38,90.38,0,0,1,12.2,1.32,61.77,61.77,0,0,1,6.06,1.36c1.09.3,2.16.63,3.2,1,6.68,5.68-13.82,11.42-22.86,5.46-.38-.09-.86-.23-1.3-.35-1.77-.49-3.57-.92-5.33-1.23a37.88,37.88,0,0,0-5.15-.6,29,29,0,0,0-4.72.17,22.19,22.19,0,0,0-7.35,2.13,19,19,0,0,0-4,2.65c-.42.34-.71.64-.91.83l-.3.3a.5.5,0,0,0,0,.72.51.51,0,0,0,.55.12h0l.38-.15c.26-.09.61-.25,1.1-.4a22.23,22.23,0,0,1,10.54-1,35.63,35.63,0,0,1,8,2.18c1.43.57,2.92,1.22,4.5,1.94l1.25.57a12.2,12.2,0,0,0,2.1.63,21.43,21.43,0,0,0,3.57.4,43.49,43.49,0,0,0,6.51-.37c2.12-.27,4.24-.63,6.35-1.11s4.23-1,6.34-1.71a65.82,65.82,0,0,0,6.39-2.38c.56-.24,1.11-.47,1.78-.81l.27-.14.38-.21.11-.07.05,0,0,0,.14-.09.09-.07.55-.35c.46-.28,1-.59,1.78-1.13a8.85,8.85,0,0,0,1.41-1.2,6.53,6.53,0,0,0,.93-1.26,5.89,5.89,0,0,0,.71-2.18,5.52,5.52,0,0,0-.27-2.41,5.9,5.9,0,0,0-.8-1.54A6.78,6.78,0,0,0,239,269a12.48,12.48,0,0,0-2.14-1.3c-.65-.31-1.23-.55-1.85-.8l-.87-.32c-.29-.11-.59-.22-.88-.31a52.7,52.7,0,0,0-7-1.84c-2.3-.46-4.59-.78-6.85-1a92.63,92.63,0,0,0-13.24-.43,80.11,80.11,0,0,0-12.32,1.42c-.48.09-1,.21-1.48.32s-.92.22-1.38.33c-1,.28-1.86.52-2.76.84a48.1,48.1,0,0,0-5,2,39.36,39.36,0,0,0-8.06,4.94,32.75,32.75,0,0,0-5.16,5.06,26.73,26.73,0,0,0-2.61,3.83c-.26.47-.44.84-.56,1.09l-.13.3a.55.55,0,0,0,0,.1A.5.5,0,0,0,166.93,283.83Z"/><path class="cls-8" d="M158.4,205.2s18,17,0,34c0,0-31,10-31,21,0,0-9.29,24,11.54,33.34,26.48,8.68,34.87-15.87,53.49-11.33-15.72.72-34,35-67,17-24-17-19-42-19-42-1.56-1,4.66-23.51,28-31C156.15,219.21,159.4,212.2,158.4,205.2Z"/><path class="cls-9" d="M245.71,204.59c3.57-.07,29,22.34,22.92,26.08C267.11,231.6,250.45,204.81,245.71,204.59Z"/><path class="cls-10" d="M279.91,231s3.55,39.23-45.47,49.23-27,39-27,39-5.78-27.74,34.12-27.38S302.38,243.8,279.91,231Z"/></g></svg>