<svg id="Layer_1" data-name="Layer 1" xmlns="http://www.w3.org/2000/svg" xmlns:xlink="http://www.w3.org/1999/xlink" viewBox="0 0 360 360"><defs><style>.cls-1{fill:#fff;}.cls-2{fill:#fcfcfc;stroke:#25256d;stroke-width:12px;}.cls-2,.cls-9{stroke-miterlimit:10;}.cls-3{clip-path:url(#clip-path);}.cls-4{fill:#842f2f;}.cls-4,.cls-5,.cls-7{stroke:#000;}.cls-4,.cls-5,.cls-6,.cls-7,.cls-8{stroke-linecap:round;stroke-linejoin:round;}.cls-5{fill:#fcf9f0;stroke-width:0.5px;}.cls-6{fill:#e28888;stroke:url(#linear-gradient);}.cls-7{opacity:0.24;}.cls-8{fill:#d1718f;}.cls-8,.cls-9{stroke:#891d39;}.cls-10{opacity:0.11;}</style><clipPath id="clip-path"><circle class="cls-1" cx="180.7" cy="179.6" r="164.38"/></clipPath><linearGradient id="linear-gradient" x1="72.63" y1="130.17" x2="286.12" y2="130.17" gradientUnits="userSpaceOnUse"><stop offset="0" stop-color="#8f4638"/><stop offset="0.99" stop-color="#a32929"/></linearGradient></defs><circle class="cls-2" cx="180" cy="180" r="170"/><circle class="cls-1" cx="180.7" cy="179.6" r="164.38"/><g class="cls-3"><path class="cls-4" d="M273.9,119.39c-1.39-30.89-42.2-56.14-94.42-56.86h-.21c-52.23.72-93,26-94.43,56.86-3.34,74.23,2.78,106,87.6,107.49q3.48.06,6.83.06h.21c2.23,0,4.5,0,6.83-.06C271.13,225.38,277.24,193.62,273.9,119.39Z"/><path class="cls-5" d="M219.16,61.68c4.29-1.9,24.53,8.12,25,17.51,0,.38,0,.76-.07,1.13-1.12,15.43-22.61,10.58-24.71,1.39C219.33,81.71,214.44,63.77,219.16,61.68Z"/><path class="cls-5" d="M249.32,65.77c4.67-.53,21,15,18.6,24.15-.13.35-.26.72-.4,1.06-5.67,14.4-24.73,3.36-24-6C243.52,84.94,244.19,66.36,249.32,65.77Z"/><path class="cls-5" d="M181,84.45c-1-2.68-7.25-39.49,16.37-40,24.85-.56,22.53,35.23,21.33,39.89S182.76,89.31,181,84.45Z"/><path class="cls-5" d="M139.58,61.68c-4.29-1.9-24.52,8.12-24.94,17.51,0,.38,0,.76.06,1.13,1.13,15.43,22.61,10.58,24.71,1.39C139.41,81.71,144.31,63.77,139.58,61.68Z"/><path class="cls-5" d="M109.42,65.77c-4.66-.53-21,15-18.6,24.15.13.35.26.72.4,1.06,5.67,14.39,24.74,3.36,24-6C115.22,84.94,114.55,66.36,109.42,65.77Z"/><path class="cls-5" d="M177.79,84.45c1-2.68,7.24-39.49-16.38-40-24.85-.56-22.53,35.23-21.33,39.89S176,89.31,177.79,84.45Z"/><path class="cls-6" d="M252.3,219c51.79-67.73,45.77-157-36.21-175.87-20.7-4.76-24.12,1.12-36.27,1.59h-.25v0h-.4v0h-.24c-12.16-.47-15.57-6.35-36.27-1.59C60.67,62,54.66,151.3,106.44,219c-7.22-15.44-12.66-30.71-15.62-43.19C76.69,116.2,90.43,66.57,178.93,65.92h.89c88.49.65,102.23,50.28,88.1,109.92C265,188.32,259.52,203.59,252.3,219Z"/><path class="cls-7" d="M258.13,157.85c-1.4,37-35.35,67.09-79,67.09s-75.27-30.22-79-67.09c-4-40.27,26.25-68.54,79.48-44.38C236.72,91.2,259.61,118.73,258.13,157.85Z"/><path class="cls-7" d="M236.92,161.44c-1,30.21-25.77,54.73-57.56,54.73s-54.88-24.65-57.57-54.73c-2.94-32.85,19.14-55.91,57.94-36.2C221.31,107.08,238,129.53,236.92,161.44Z"/><path class="cls-8" d="M248.75,132.86c-24-10.79-63.4-1.27-68.48,5.09-.31.39-.61.79-.9,1.18-.28-.39-.59-.79-.9-1.18-5.08-6.36-44.47-15.88-68.48-5.09-32,14.38-22.67,85.44,5,135,17.61,34.22,36.32,59.3,64.27,60.43h.21c27.94-1.13,46.65-26.21,64.26-60.43C271.43,218.3,280.75,147.24,248.75,132.86Z"/><path class="cls-9" d="M179.77,139.19l-.4,146.19L179,139.19l.39.27.4-.28Z"/><path class="cls-10" d="M248.84,133.08s26.35,85.86-49.78,190c0,0,34.15-11.91,64.16-104.06C263.22,219,280.84,147.53,248.84,133.08Z"/><path class="cls-10" d="M109.9,133.08s-26.36,85.86,49.78,190c0,0-34.15-11.91-64.16-104.06C95.52,219,77.9,147.53,109.9,133.08Z"/></g></svg>