<svg id="Layer_1" data-name="Layer 1" xmlns="http://www.w3.org/2000/svg" xmlns:xlink="http://www.w3.org/1999/xlink" width="619.88" height="562.43" viewBox="0 0 619.88 562.43">
  <defs>
    <style>
      .cls-1, .cls-43 {
        fill: none;
      }

      .cls-2 {
        opacity: 0.2;
      }

      .cls-3 {
        clip-path: url(#clip-path);
      }

      .cls-4 {
        fill: #ebe6ac;
        opacity: 0.38;
      }

      .cls-5 {
        fill: #c4b7a4;
      }

      .cls-6 {
        fill: #81ddda;
      }

      .cls-7 {
        fill: #d8ca64;
      }

      .cls-8 {
        fill: #020202;
        opacity: 0.3;
      }

      .cls-9 {
        fill: #6cd357;
      }

      .cls-10 {
        fill: #45913a;
      }

      .cls-11 {
        fill: #55a547;
      }

      .cls-12 {
        fill: #50a341;
      }

      .cls-13 {
        fill: #fff;
      }

      .cls-14 {
        opacity: 0.26;
      }

      .cls-15 {
        fill: #342516;
      }

      .cls-16, .cls-21, .cls-28, .cls-31 {
        fill: #f9dad2;
      }

      .cls-16, .cls-21, .cls-31, .cls-38 {
        stroke: #7f430d;
      }

      .cls-16, .cls-19, .cls-20, .cls-21, .cls-22, .cls-23, .cls-36 {
        stroke-linejoin: round;
      }

      .cls-16, .cls-24 {
        stroke-width: 0.5px;
      }

      .cls-17, .cls-20 {
        fill: #df71e2;
      }

      .cls-18 {
        fill: #501c54;
      }

      .cls-19 {
        fill: #686c70;
        stroke: #211f1c;
      }

      .cls-19, .cls-20, .cls-21, .cls-22, .cls-23, .cls-31, .cls-36, .cls-38 {
        stroke-width: 0.75px;
      }

      .cls-20 {
        stroke: #710e7c;
      }

      .cls-22 {
        fill: #9b959a;
        stroke: #423a33;
      }

      .cls-23 {
        fill: #311415;
        stroke: #190500;
      }

      .cls-24, .cls-26 {
        fill: #61435b;
      }

      .cls-24 {
        stroke: #1c101a;
      }

      .cls-24, .cls-31, .cls-37, .cls-38, .cls-43 {
        stroke-miterlimit: 10;
      }

      .cls-25 {
        fill: #2d1708;
      }

      .cls-27 {
        fill: #1c101a;
      }

      .cls-29 {
        fill: #7f430d;
      }

      .cls-30 {
        fill: #eab8ad;
      }

      .cls-32 {
        fill: #8c3d35;
      }

      .cls-33 {
        fill: #d26653;
      }

      .cls-34 {
        fill: #f9988f;
      }

      .cls-35 {
        fill: #e5beb7;
      }

      .cls-36 {
        fill: #e00e0e;
        stroke: #541b08;
      }

      .cls-37 {
        fill: #e8d860;
        stroke: #baa83a;
      }

      .cls-38 {
        fill: #f9f8f7;
      }

      .cls-39 {
        fill: #fdefec;
      }

      .cls-40 {
        fill: #221b23;
      }

      .cls-41 {
        fill: #f7f7f7;
      }

      .cls-42 {
        fill: #9b9087;
      }

      .cls-43 {
        stroke: #fff;
        stroke-width: 5px;
      }
    </style>
    <clipPath id="clip-path">
      <ellipse class="cls-1" cx="302.3" cy="276.62" rx="268.87" ry="243.53"/>
    </clipPath>
  </defs>
  <g>
    <path class="cls-2" d="M312.07,534.59c-152.13,0-274.55-113.82-274.55-254.22S160.85,27.84,313,27.84c150.36,0,273.46,112.13,273.46,252.53S464.21,534.59,312.07,534.59Z"/>
    <g>
      <g class="cls-3">
        <g>
          <polygon class="cls-4" points="55.84 29.64 533.09 29.64 527.98 34.94 61.8 34.94 55.84 29.64"/>
          <polygon class="cls-4" points="55.84 317.25 531.06 317.25 525.95 311.94 61.8 311.94 55.84 317.25"/>
          <polygon class="cls-4" points="56.12 39.66 50.44 34.77 50.44 314.6 56.12 307.74 56.12 39.66"/>
          <polygon class="cls-4" points="531.47 39.66 537.16 34.77 537.16 314.6 531.47 307.74 531.47 39.66"/>
        </g>
        <g>
          <polygon class="cls-5" points="72.63 412.7 -166.93 596.44 864.13 610.3 659.27 416.31 72.63 412.7"/>
          <g>
            <rect class="cls-6" x="-152.2" y="-114.5" width="1103.91" height="550.08"/>
            <rect class="cls-7" x="-158.3" y="407.31" width="1103.91" height="28.97"/>
          </g>
          <ellipse class="cls-8" cx="191.96" cy="479.68" rx="54.81" ry="10.96"/>
          <g>
            <polygon class="cls-4" points="61.43 365.79 533.87 365.79 528.79 360.52 67.36 360.52 61.43 365.79"/>
            <polygon class="cls-4" points="61.71 89.82 56.06 84.96 56.06 363.15 61.71 356.33 61.71 89.82"/>
            <polygon class="cls-4" points="534.28 89.82 539.93 84.96 539.93 363.15 534.28 356.33 534.28 89.82"/>
          </g>
          <g>
            <path class="cls-9" d="M122,326.27H240.34L230.74,474s-2.62,11.11-12.87,11.11H122Z"/>
            <path class="cls-10" d="M132.3,432.87a44.13,44.13,0,0,0-11,1.39v50.43h41.45a29.27,29.27,0,0,0,7.58-19.42C170.31,447.38,153.29,432.87,132.3,432.87Z"/>
            <path class="cls-11" d="M245.74,327H101.66c-3.62,0-6.56-2.51-6.56-5.59s2.94-5.6,6.56-5.6H245.74c3.63,0,6.56,2.51,6.56,5.6S249.37,327,245.74,327Z"/>
            <g>
              <path class="cls-12" d="M119.73,304l-8.16.57s-12.68-.3-15.65-14.06c-4.33-20.09,3.79-87.25,3.79-87.25s.25-7.11,7.51-7.28l3.19-.22S119.13,303.41,119.73,304Z"/>
              <path class="cls-9" d="M245.74,316H119c-3.62,0-6.56-2.5-6.56-5.59s2.94-5.59,6.56-5.59H245.74c3.63,0,6.56,2.5,6.56,5.59S249.37,316,245.74,316Z"/>
            </g>
            <g>
              <g>
                <path class="cls-13" d="M156.71,402.32H177.6v11.06H159.45S151.52,410.92,156.71,402.32Z"/>
                <path class="cls-13" d="M166.9,393.79l-4.56-2.24-5.89,8.7s-3.18,4.39-3.2,6.86l-5.58-8.2a6.49,6.49,0,0,1-.17-7.39l3.7-5.46-4.56-2.24L161,382.57Z"/>
              </g>
              <g>
                <path class="cls-13" d="M179.9,364.88,169.45,380.3l-11.22-5.53,9.07-13.4S173.76,356.75,179.9,364.88Z"/>
                <path class="cls-13" d="M183.47,376.66l4.56-2.24-5.89-8.7s-2.87-4.54-5.38-5.79l11.13,0s5-.25,7.59,3.57l3.69,5.46,4.56-2.25-5.91,11.22Z"/>
              </g>
              <g>
                <path class="cls-13" d="M206.35,400.72,195.9,385.3l11.23-5.53,9.08,13.4S217.67,400.25,206.35,400.72Z"/>
                <path class="cls-13" d="M192.59,397.46V402h11.78s6,.15,8.57-1.07l-5.55,8.22a8.73,8.73,0,0,1-7.41,3.82h-7.39v4.49l-8.45-10Z"/>
              </g>
            </g>
          </g>
          <g>
            <ellipse class="cls-14" cx="376.99" cy="478" rx="57.25" ry="13.15"/>
            <g>
              <path class="cls-15" d="M428.18,168.72c-.17,1.5.93,12.86,3.89,18.29s15.3,16.29,10,32.32c0,0-4.37,7.66-6.28,7.33.2-.14,1.6-14.35-7.6-16.84,1,.15,6.87,14.18-.15,20l-4.78,2.86s0-10.56-2.86-12l-2.88,14.95-15.79,1.76s-64,8.65-57.28-11.69"/>
              <g>
                <path class="cls-16" d="M312.26,266.09l13.82-8.84s21.08,8.85,6.06,20.53c-10.52,8.19-16.37,9.36-16.37,9.36"/>
                <path class="cls-16" d="M315.77,267.26s-23.38-7-36.24-15.2c-4.93-3.14-9.35,4.68-4.68,9.36s22.22,21,41.51,25.67"/>
                <g>
                  <path class="cls-17" d="M334.32,286.16c-7-5.82-13.82-25-14.11-25.83l-.06-.17.15-.11A243.41,243.41,0,0,1,353.07,239l.4-.21,0,.45c-.14,1.58-3.56,38.74-7.65,41.1s-11.12,5.84-11.19,5.87l-.15.07Z"/>
                  <path class="cls-18" d="M353.18,239.2s-3.5,38.58-7.53,40.9S334.48,286,334.48,286c-7-5.85-14-25.72-14-25.72a240.57,240.57,0,0,1,32.73-21.05m.59-.86-.81.42a243.72,243.72,0,0,0-32.82,21.09l-.28.22.12.34c.29.82,7.14,20.08,14.18,25.94l.25.21.29-.14c.07,0,7.21-3.59,11.2-5.89s7.42-37.31,7.78-41.28l.09-.91Z"/>
                </g>
              </g>
              <g>
                <g>
                  <path class="cls-16" d="M419.83,281.29l9.35,7s23.38,2.33,10.52-16.37c-8.63-12.56-12.86-10.52-12.86-10.52"/>
                  <path class="cls-16" d="M426.12,286c-.45,0,15.92,21,21.77,37.41,3.73,10.45,14,2.34,11.69-4.68s-10.53-33.9-18.71-44.42"/>
                  <g>
                    <path class="cls-16" d="M447.89,323.38c0,1.17-1.17,4.68-1.17,7v12.68c0,1.34,3.5.18,4.67-4.5s1.17-3.51,1.17-3.51,10,11.82,10.52,12.86c1.17,2.34,5.85,3.51,3.51-1.17l-2.34-4.67s5.85,5.84,8.19,4.67c1.17-1.17-3.51-7-3.51-7s8.18,8.18,5.85,1.17c-.83-2.48-4.68-7-4.68-7s4.68,5.85,5.85,4.68-4.68-8.18-7-10.52-4.68-7-9.35-9.36"/>
                    <line class="cls-16" x1="460.75" y1="336.24" x2="464.4" y2="342.38"/>
                    <line class="cls-16" x1="464.25" y1="333.9" x2="469.07" y2="340.04"/>
                    <line class="cls-16" x1="467.76" y1="331.56" x2="472.44" y2="336.24"/>
                  </g>
                </g>
                <g>
                  <path class="cls-17" d="M410.64,280.29c-.78-1.16-17.9-27.23-5-36.61a9,9,0,0,1,5.08-2.1,2.92,2.92,0,0,1,2,.67c7.71,4.3,23.45,21.16,23.61,21.33l.14.15L419,287.5Z"/>
                  <path class="cls-18" d="M410.73,241.83a2.62,2.62,0,0,1,1.86.6c7.82,4.37,23.6,21.32,23.6,21.32L419,287.14l-8.19-7s-17.87-26.87-5-36.22c2.22-1.62,3.83-2,4.93-2m0-.5h0a9.38,9.38,0,0,0-5.23,2.14c-13.1,9.53,4.15,35.79,4.89,36.91l0,.05.05.05,8.2,7,.4.35.32-.44,17.2-23.38.24-.33-.28-.31c-.65-.69-15.86-17-23.67-21.39a3.21,3.21,0,0,0-2.16-.69Z"/>
                </g>
              </g>
              <g>
                <path class="cls-19" d="M387.09,462.51l-1.17,5.84s-1.85,6.34,0,8.19c2.34,2.34,7.09,6.37,25.72,3.51,15.2-2.34,4.68-17.54,4.68-17.54"/>
                <path class="cls-20" d="M389.43,398.21c0,1.16,3.51,37.41,2.34,47.93s2.33,21.05,12.86,21.05,8.9-7.06,8.18-12.87c-1.34-10.86-1.4-47.64,0-58.45"/>
                <path class="cls-21" d="M389.43,398.21c0,.62,1.75,22.6,1.75,22.6l20.62-.45s.4-19.8,1-24.49"/>
                <path class="cls-22" d="M392.1,420.42h19.21a1.5,1.5,0,0,1,1.5,1.5v1a1,1,0,0,1-1,1H391.6a1,1,0,0,1-1-1v-1a1.5,1.5,0,0,1,1.5-1.5Z"/>
                <path class="cls-23" d="M391.77,447.89s-8.19,15.27-5.85,22.39c.72,2.19,3.46,5.09,17.54,5.09,12.86,0,15.2-3.05,15.2-4.07,0,0,0-17-5.85-23.41,0,0,0,8.15-3.51,11.2-2.33,2-11.69,3.05-14,0A18.2,18.2,0,0,1,391.77,447.89Z"/>
              </g>
              <g>
                <path class="cls-20" d="M349,397.71c-.05,1.17,2.38,35.65.64,46.09-1.17,7-28.06,12.86-12.86,21.05,9.26,5,33.81-4.3,33.33-10.12-.91-10.91.51-47.67,2.35-58.41"/>
                <path class="cls-21" d="M349,397.71c0,.63.84,22.66.84,22.66l20.62.38s3.73-17.87,2-24.43"/>
                <path class="cls-22" d="M350.73,420.4h19.21a1.5,1.5,0,0,1,1.5,1.5v.51a1.5,1.5,0,0,1-1.5,1.5H350.23a1,1,0,0,1-1-1v-1a1.5,1.5,0,0,1,1.5-1.5Z" transform="translate(17.27 -14.15) rotate(2.3)"/>
                <path class="cls-19" d="M324.21,468.42s-3.26,2.09,0,5.69,35.94-.13,40.67-1.08a71.31,71.31,0,0,1,8.08-1.31s2.44-2.2.1-5.7"/>
                <path class="cls-23" d="M338,453.16a4.15,4.15,0,0,0,2.33,3.5c2.34,1.17,19,0,22.94-1.75a29.05,29.05,0,0,0,7.46-5.26s4.68,3.51,2.34,17.54c0,0-19.88,3.5-22.21,3.5s-21.59,3-25.72-1.17c-3.51-3.5-2.34-8.18,5.84-12.86S338,453.16,338,453.16Z"/>
              </g>
              <g>
                <g>
                  <path class="cls-17" d="M374.49,279.18c-7.28,0-13.28-1.84-16.47-5a9.26,9.26,0,0,1-2.79-6.81,144.37,144.37,0,0,1,2.39-24.67c.22-.42,4.93-8.41,8.88-8.41,1.41,0,2.54,1,3.35,2.95a2.35,2.35,0,0,1,.07.26c1.08,4.38,3.42,6.69,6.77,6.69a12.41,12.41,0,0,0,5.61-1.66c10.59-5.61,9.24-13.68,9.22-13.76l-.06-.31h.31c.09,0,9,.44,9.89,13.82.09,1.45.21,2.91.33,4.37,1,12.15,1.94,23.62-10.12,29.05A43.84,43.84,0,0,1,374.49,279.18Z"/>
                  <path class="cls-18" d="M391.77,228.68s8.76.27,9.64,13.58,3.71,27.17-9.64,33.19a43.77,43.77,0,0,1-17.28,3.48c-10,0-19-3.5-19-11.6a143.84,143.84,0,0,1,2.38-24.62s4.79-8.21,8.64-8.21c1.19,0,2.28.77,3.12,2.79.13.32,1.24,7.11,7.07,7.11a12.44,12.44,0,0,0,5.72-1.69c10.9-5.76,9.36-14,9.36-14m-.61-.52.11.61h0c.06.32,1.33,8-9.09,13.5a12.14,12.14,0,0,1-5.49,1.63c-4.08,0-5.8-3.53-6.52-6.5a2,2,0,0,0-.09-.3c-.85-2.06-2.06-3.1-3.58-3.1-4.09,0-8.87,8.11-9.07,8.46l0,.07,0,.08A146.23,146.23,0,0,0,355,267.33a9.53,9.53,0,0,0,2.86,7c3.24,3.25,9.31,5.11,16.65,5.11A44.16,44.16,0,0,0,392,275.9c12.22-5.5,11.23-17.6,10.27-29.3-.11-1.44-.24-2.92-.33-4.37-.9-13.6-10-14-10.13-14l-.62,0Z"/>
                </g>
                <path class="cls-24" d="M373.64,251.48s-5.19,17.64-4.67,26.89c.4,7.12,10.52,3.51,11.69,1.17s-1.9-27-2.34-28.06C376,245.63,373.64,251.48,373.64,251.48Z"/>
                <path class="cls-24" d="M363.12,233.94s-4.67,24.55-1.75,28.54c0,0,23.38,1.27,29.23.1,0,0,3.5-16.36,4.67-24.55,1-6.94-1.75-8.77-1.75-8.77-.45-.33,17.54,8.19,22.14,14.06.34.44-3.34-.22-5.77,4.65-2.34,4.68-3.51,23.38,1.17,31.57.82,1.43,3.5,3.5,5.84,5.84l5.26,34.49s16.9,67.32,15.2,70.15c-3.5,5.85-28.06,10.52-40.92,11.69s-65.47,0-70.15-10.52c-2.33-8.18,15.2-71.32,15.2-78.33,0,0,2.15-66.64,5.26-71.9A35.29,35.29,0,0,1,363.12,233.94Z"/>
                <g>
                  <path class="cls-25" d="M342.1,309.85s3.37,4.69,13.59,8.22c9.92,3.42,59.54.94,65.37-4l1.68,9.94s-21.6,4.63-40.93,4.59c0,0-34.8.83-40.89-10.6Z"/>
                  <polygon class="cls-26" points="401.16 315.89 401.63 332.33 406.82 331.18 405.81 314.66 401.16 315.89"/>
                  <polygon class="cls-26" points="354.58 313.61 352.62 329.93 357.92 329.6 359.35 313.12 354.58 313.61"/>
                  <g>
                    <path class="cls-26" d="M360,312.81c.23.59-1.5,10.52-2.08,18.12"/>
                    <path class="cls-27" d="M360,312.81a23.45,23.45,0,0,1-.09,4.59c-.13,1.51-.31,3-.5,4.53-.41,3-.86,6-1.49,9a52.54,52.54,0,0,1,.5-9.13c.21-1.51.43-3,.72-4.51l.44-2.24A21,21,0,0,0,360,312.81Z"/>
                  </g>
                  <g>
                    <path class="cls-26" d="M400.56,315.19c.32.54.26,10.63.94,18.22"/>
                    <path class="cls-27" d="M400.56,315.19a24,24,0,0,1,.67,4.54c.12,1.51.19,3,.26,4.55.09,3,.14,6.06,0,9.13a51.63,51.63,0,0,1-1-9.09c-.05-1.53-.07-3.05,0-4.57l.06-2.28A17.36,17.36,0,0,0,400.56,315.19Z"/>
                  </g>
                  <g>
                    <path class="cls-26" d="M405.15,314.07c.32.54,1.36,10.59,2,18.18"/>
                    <path class="cls-27" d="M405.15,314.07a24.08,24.08,0,0,1,1.05,4.48c.26,1.51.44,3,.61,4.54a66.65,66.65,0,0,1,.38,9.16,79.9,79.9,0,0,1-1.37-9.06c-.15-1.51-.29-3-.39-4.55l-.13-2.28C405.27,315.59,405.25,314.83,405.15,314.07Z"/>
                  </g>
                  <g>
                    <path class="cls-26" d="M354.33,312.8c.24.59-1.49,10.52-2.07,18.12"/>
                    <path class="cls-27" d="M354.33,312.8a22.58,22.58,0,0,1-.09,4.58c-.12,1.52-.31,3-.49,4.54-.41,3-.86,6-1.49,9a51.53,51.53,0,0,1,.5-9.13c.2-1.51.43-3,.71-4.51l.44-2.24A17,17,0,0,0,354.33,312.8Z"/>
                  </g>
                </g>
                <path class="cls-24" d="M374.42,251.46l.74,0c2.72.09,6.13-.54,6.67-3.52.76-4.21-9.35-2.34-9.35-2.34S369.69,251.18,374.42,251.46Z"/>
                <g>
                  <path class="cls-17" d="M368.61,252.37a.72.72,0,0,1-.34-.09c-10-5.29-5.44-21.75-5.39-21.92l0-.1.1,0c.2-.1,4.92-2.61,6.61-2.61.51,0,.69.23.75.42a5.17,5.17,0,0,1-.14,1.85c-.54,3.49-1.67,10.73,4.71,14.38l.82.46h-.95c-2.66,0-3.78,3-4.6,5.22-.53,1.42-.91,2.44-1.6,2.44Z"/>
                  <path class="cls-18" d="M369.62,227.85c.28,0,.46.07.52.24.39,1.19-3.51,11.7,4.67,16.37-4.45,0-4.77,7.66-6.2,7.66a.53.53,0,0,1-.23-.06c-9.93-5.26-5.26-21.63-5.26-21.63s4.86-2.58,6.5-2.58m0-.5c-1.72,0-6.22,2.37-6.73,2.64l-.19.1-.06.21c-.19.68-4.67,16.82,5.51,22.2a1,1,0,0,0,.46.12c.87,0,1.27-1.09,1.83-2.6.8-2.14,1.88-5.06,4.37-5.06h1.89l-1.64-.93c-6.23-3.56-5.12-10.69-4.58-14.12a5.23,5.23,0,0,0,.13-2c-.07-.22-.29-.59-1-.59Z"/>
                </g>
                <g>
                  <path class="cls-17" d="M385.19,251.89a3.3,3.3,0,0,1-1.1-.18c-1.82-.6-3-2.62-4-4.4-.74-1.26-1.43-2.45-2.14-2.69q-.36.06-.75.09l-1.31.12,1-.5-.13,0,.28-.05h0a1.32,1.32,0,0,1,.91-.13c11.74-1.78,13-18.2,13-18.37l0-.41.35.21c.06,0,6,3.66,6,10.74C397.28,242.7,390.16,251.89,385.19,251.89Z"/>
                  <path class="cls-18" d="M391.18,225.76s5.85,3.5,5.85,10.52c0,6.52-7.15,15.36-11.84,15.36a3.11,3.11,0,0,1-1-.16c-3.09-1-4.37-6.6-6.23-7.11,12.12-1.8,13.24-18.61,13.24-18.61m-13.51,18.57a.84.84,0,0,1,.27,0c-.26,0-.52.07-.79.09a1.14,1.14,0,0,1,.52-.13m13.07-19.42-.06.81c0,.17-1.23,16.35-12.72,18.14a1.43,1.43,0,0,0-.29,0h0a1.68,1.68,0,0,0-.74.18l-1.42.21.65.18-1.6.8,2.64-.24.69-.08c.61.25,1.29,1.42,1.95,2.55,1.06,1.82,2.27,3.89,4.17,4.52a3.84,3.84,0,0,0,1.18.19c5.08,0,12.34-9.34,12.34-15.86a13.32,13.32,0,0,0-6.09-10.95l-.7-.42Z"/>
                </g>
              </g>
              <g>
                <g>
                  <g>
                    <path class="cls-28" d="M378.9,247.68a9.05,9.05,0,0,1-5.48-1.75c-4.75-3.56-3.85-18.53-3.66-19.12a.41.41,0,0,1,.3-.26l19-8.78a.41.41,0,0,1,.16,0,.34.34,0,0,1,.19,0,.37.37,0,0,1,.18.3c0,.15.76,14.74.76,20.53C390.39,243.19,384.7,247.68,378.9,247.68Z"/>
                    <path class="cls-29" d="M389.26,218.11s.75,14.66.75,20.51c0,4.43-5.69,8.68-11.11,8.68a8.64,8.64,0,0,1-5.26-1.67c-4.6-3.45-3.68-18.72-3.51-18.72a0,0,0,0,1,0,0l19.12-8.82m0-.75a.71.71,0,0,0-.32.07l-19,8.76a.8.8,0,0,0-.53.5c-.21.62-1.23,15.78,3.78,19.54a9.44,9.44,0,0,0,5.71,1.82c6,0,11.86-4.67,11.86-9.43,0-5.8-.75-20.4-.75-20.55a.75.75,0,0,0-.37-.6.73.73,0,0,0-.38-.11Z"/>
                  </g>
                  <path class="cls-30" d="M370.14,225.47a31.57,31.57,0,0,0,.27,9.06c.49,2.8,19.73-3.72,19.6-6.44-.22-4.92-.54-10-.54-10Z"/>
                </g>
                <g>
                  <path class="cls-31" d="M322.28,171.46s4.28,14.24,4.9,25.86c.55,10.24,2.73,24.85,23.66,33.33,7,2.84,8.61,4.33,16.08,3.19,11.12-1.71,31-11.15,38.34-30.46,0,0,1.61-32.35-8.18-48.62,0,0,4.21-22.63-38.31-23.87S322.28,171.46,322.28,171.46Z"/>
                  <g>
                    <g>
                      <path class="cls-28" d="M356.65,199.73c-4.79,6.31-11.7,1.9-11.68-.21,0,0-.9-1.26,2.09-5.37,2.36-3.25-.38-7.23-.38-7.23"/>
                      <path class="cls-29" d="M356.68,199.75a9.17,9.17,0,0,1-2.59,2.45,6.76,6.76,0,0,1-3.45,1,7.58,7.58,0,0,1-3.52-.87,6.58,6.58,0,0,1-1.51-1.07,2.72,2.72,0,0,1-.95-1.72l.06.18a1.8,1.8,0,0,1-.19-1,4.47,4.47,0,0,1,.17-.9,8.48,8.48,0,0,1,.66-1.65,15.92,15.92,0,0,1,.9-1.49l.5-.71a5.72,5.72,0,0,0,.41-.67,5.12,5.12,0,0,0,.5-3.12,9.7,9.7,0,0,0-1-3.18l.06,0a7.9,7.9,0,0,1,1.46,3.13,5.58,5.58,0,0,1-.33,3.53,5.73,5.73,0,0,1-.46.8l-.48.69c-.3.47-.61.93-.88,1.42a9.34,9.34,0,0,0-.67,1.48,3.55,3.55,0,0,0-.17.77,1.48,1.48,0,0,0,0,.63l.06.13v.05a2.14,2.14,0,0,0,.72,1.32,6.15,6.15,0,0,0,1.35,1,7.06,7.06,0,0,0,3.29.93A6.42,6.42,0,0,0,354,202a8.79,8.79,0,0,0,2.64-2.3Z"/>
                    </g>
                    <path class="cls-15" d="M361.1,169.75s-.52-3.07,4.29-3.55,11.82,4,12.61,7.25C378,173.45,367.71,167.28,361.1,169.75Z"/>
                    <path class="cls-15" d="M337.56,172.33a4,4,0,0,0-4-2.65c-3.27,0-7.66,3.52-8,5.8C325.59,175.48,332.94,171.15,337.56,172.33Z"/>
                    <g>
                      <path class="cls-32" d="M371,208.55c-1.45,3-6.2,12.68-13.89,14-4.64.83-7.11-2.92-9.45-5.6-.61-.69-1.18-1.42-1.76-2.16h0c-.29-.37-.58-.74-.88-1.1a22.07,22.07,0,0,0-2.48-2.7h0c-.21-.2-.43-.38-.65-.56l-.27-.2s7.06,3.68,27.23-1.93l1.66-.6.66-.24.37-.13S371.36,207.82,371,208.55Z"/>
                      <path class="cls-33" d="M350,218.49a5.24,5.24,0,0,1,4.49-1.3,10.38,10.38,0,0,1,7.54.85S355.79,222.7,350,218.49Z"/>
                      <path class="cls-13" d="M371.17,207.5c-8.79,8.75-17.27,9.32-22,8.14-2-.5-2.13-4-5.4-4a9.13,9.13,0,0,1-1.89-1.16l-.27-.2s7.06,3.68,27.23-1.93l1.66-.6Z"/>
                      <path class="cls-34" d="M371,208.55c-1.45,3-6.2,12.68-13.89,14-4.64.83-7.11-2.92-9.45-5.6C355.52,223.06,361.86,221,371,208.55Z"/>
                      <path class="cls-34" d="M370.51,207.74c-15,8.23-24.38,5.17-28,3.3h0l-.08,0c-.2-.19-.39-.37-.57-.52l-.27-.2s7.06,3.68,27.23-1.93Z"/>
                      <path class="cls-33" d="M370.42,206.09s2.5.21,1.56,2.92C372,209,373.43,205.48,370.42,206.09Z"/>
                      <path class="cls-33" d="M342,209.36s-1.46.48-.38,2.48C341.66,211.84,339.84,209.89,342,209.36Z"/>
                    </g>
                    <g>
                      <path class="cls-35" d="M374.89,143.34a24.17,24.17,0,0,1-5.55,11.38c-5.3,6.4-13.7,11.46-23.28,10.34l.43-3.65s-6.34,7.74-11.6,1.34l3-5.33s-2,7.16-11.22,10.43,3.25-21.06,3.25-21.06l22.7-11.92,27.2-.34,13.62,8.8,14.53,25.78-2.43,15.36.92,11.85s-3.61-3.56-5.36-16.56S382.69,164.79,374.89,143.34Z"/>
                      <path class="cls-15" d="M377.19,140.72s.49,1.65-9.84,13.71c-8.74,10.2-21.48,7.85-21.48,7.85s5.45-6.23,4.81-12.38c0,0-4.58,14.83-13.95,13.58,0,0,3.8-6.89,2.12-11.63,0,0-3.64,9.05-9.42,11.19s-5.66,12.14-5.66,12.14-20.53-12.69,2.29-44.69c.13-.18,10-16.7,36.65-21.7,34.87-6.54,50.3,10.48,61.76,34.33,11.69,24.31,7.08,59.73,7.08,59.73S418.45,221.24,407,201l-1-4.15s-3.12-2.34-4-17.18S377,156.41,377.19,140.72Z"/>
                    </g>
                    <path class="cls-36" d="M342.08,118.19c14-4.88,33.85-1.11,47.93,11.7,12.86,11.69,22.22,29.23,24.55,49.1,0,0-.48,4.72-3.5,3.51s-3.51-26.89-24.55-45.6c-17.29-15.36-48.3-16.33-62-2.34l-5.43,7.68S318.69,126.38,342.08,118.19Z"/>
                    <g>
                      <g>
                        <g>
                          <path class="cls-28" d="M401.3,205.93c2.35,1,10.09.6,13.87-4.3,12-15.57,2.11-22.73-4.68-21.4-1.71.34-7.74,2.26-9.24,11.67"/>
                          <path class="cls-29" d="M401.3,205.93a10.08,10.08,0,0,0,3.75.27,18.43,18.43,0,0,0,3.68-.72,12.43,12.43,0,0,0,6.11-4,34.31,34.31,0,0,0,4-6.38,15.24,15.24,0,0,0,1.61-7.16,7.76,7.76,0,0,0-3.45-6.11,8.79,8.79,0,0,0-7-1.17,10.67,10.67,0,0,0-5.89,4.27,17.74,17.74,0,0,0-2.81,7,17.32,17.32,0,0,1,2.49-7.17,11.21,11.21,0,0,1,6.05-4.63,9.32,9.32,0,0,1,7.55,1.19,8.47,8.47,0,0,1,3.8,6.62,15.35,15.35,0,0,1-1.67,7.52,34.12,34.12,0,0,1-4.09,6.49,11.08,11.08,0,0,1-2.95,2.55,14.61,14.61,0,0,1-3.57,1.47,15.77,15.77,0,0,1-3.8.54A9.22,9.22,0,0,1,401.3,205.93Z"/>
                        </g>
                        <path class="cls-30" d="M404.73,195.28s-.29-10.84,7.34-10c6.64.74,2.68,14.37-4.69,17.51,0,0-2.75.8.27-4.58S404.73,195.28,404.73,195.28Z"/>
                      </g>
                      <path class="cls-37" d="M404.6,203.93s-4.9,8.74-.12,10.64,3.62-8,3.55-8.62h0c-.1.46-1.76,7.18-2.58,2.66Z"/>
                    </g>
                    <g>
                      <ellipse class="cls-38" cx="368.94" cy="185.09" rx="7.92" ry="8.83" transform="translate(-15.74 35.43) rotate(-5.38)"/>
                      <path class="cls-30" d="M376.82,184.35c-9.11-4.4-14.07-1.2-15.77,1.49-.45-4.86,2.71-9.13,7.06-9.54S376.37,179.49,376.82,184.35Z"/>
                      <ellipse class="cls-15" cx="368.17" cy="188.12" rx="4.99" ry="4.96" transform="translate(-16.03 35.37) rotate(-5.38)"/>
                      <ellipse class="cls-39" cx="370.73" cy="184.46" rx="0.95" ry="0.96" transform="translate(-15.67 35.6) rotate(-5.38)"/>
                      <path class="cls-40" d="M360.74,186a8.75,8.75,0,0,1,3.31-3.19,9.75,9.75,0,0,1,4.52-1.18,12,12,0,0,1,4.64.78,22.58,22.58,0,0,1,2.09,1c.64.44,1.28.88,1.88,1.36l-.05.09c-.75-.24-1.45-.53-2.14-.82s-1.42-.48-2.12-.73a18.21,18.21,0,0,0-4.3-.91,9.12,9.12,0,0,0-4.3.81,8.58,8.58,0,0,0-3.44,2.8Z"/>
                    </g>
                    <g>
                      <ellipse class="cls-38" cx="336.49" cy="188.1" rx="7.24" ry="8.83" transform="translate(-16.16 32.4) rotate(-5.38)"/>
                      <path class="cls-30" d="M343.7,187.42c-7.47-2.58-13.64-1.49-14.41,1.36-.46-4.86,2.39-9.1,6.37-9.48S343.24,182.56,343.7,187.42Z"/>
                      <ellipse class="cls-15" cx="335.96" cy="191.82" rx="4.62" ry="4.71" transform="translate(-16.52 32.37) rotate(-5.38)"/>
                      <ellipse class="cls-39" cx="338.47" cy="187.86" rx="0.88" ry="0.96" transform="translate(-16.13 32.59) rotate(-5.38)"/>
                      <path class="cls-40" d="M343.81,187.8a24.79,24.79,0,0,0-3.78-1,17.4,17.4,0,0,0-3.85-.38,12.8,12.8,0,0,0-3.69.63,9.2,9.2,0,0,0-3.23,1.92l-.08-.06a5.78,5.78,0,0,1,2.95-2.79,8.59,8.59,0,0,1,4.06-.5,21,21,0,0,1,7.66,2.1Z"/>
                    </g>
                  </g>
                </g>
              </g>
              <g>
                <path class="cls-16" d="M260.82,236.86c-.88.81-6.55-2.41,0-3.5,7-1.17,11.69,4.67,12.86,7s2.82,5.1,3.75,7.23"/>
                <g>
                  <path class="cls-41" d="M250.71,272.47c-3,0-3-2.68-3-6.38,0-1,.07-2,.12-2.76a5.73,5.73,0,0,0,0-2.12h0c-.29,0-.95.52-2,1.55a3.08,3.08,0,0,1-2.13,1.06c-2.43,0-3.93-4.09-4.11-4.61a1.77,1.77,0,0,1-.41-1.18,2.65,2.65,0,0,1,1-1.86c.29-.25.59-.47.89-.69,1.46-1.08,2.62-1.93.5-5.83-1.59-2.92-1.61-4.45-1.34-5.21a1.38,1.38,0,0,1,.56-.75c.42-.63,4.16-6,7.49-6a3,3,0,0,1,.91.14,5.74,5.74,0,0,0,1.9.32,10.93,10.93,0,0,0,3.4-.71,13,13,0,0,1,4-.79h8.36a.26.26,0,0,1,.22.13c1.62,2.75,9.7,16.57,9.19,18.2a.38.38,0,0,1-.23.26c-1,.45-3.55,4.73-4.46,6.34l-1.14,8.09a.27.27,0,0,1-.08.16c-.09.07-2,1.68-3.67,1.68h0a1.84,1.84,0,0,1-1.35-.52,5.08,5.08,0,0,0-3.57-1.72,5,5,0,0,0-4.21,2.82.24.24,0,0,1-.23.14h-.05a.28.28,0,0,1-.2-.24h0s-.14-.27-1.13-.27a14.27,14.27,0,0,0-3.23.51A8.58,8.58,0,0,1,250.71,272.47Z"/>
                  <path class="cls-42" d="M266.84,236.86s10.35,17.54,9.08,18.11-4.58,6.45-4.58,6.45l-1.16,8.18s-1.95,1.62-3.51,1.62a1.57,1.57,0,0,1-1.17-.45,5.31,5.31,0,0,0-3.75-1.79,5.25,5.25,0,0,0-4.44,3s0-.52-1.38-.52a14.24,14.24,0,0,0-3.29.52,8.13,8.13,0,0,1-1.93.28c-2.75,0-2.75-2.41-2.75-6.13,0-3,.53-5.14-.2-5.14-.35,0-1,.5-2.14,1.63a2.77,2.77,0,0,1-2,1c-2.4,0-3.89-4.49-3.89-4.49s-1.17-1.17.59-2.72,4.08-2,1.44-6.83-.83-5.65-.83-5.65,4-6,7.32-6a2.62,2.62,0,0,1,.83.13,6,6,0,0,0,2,.33c2.51,0,4.57-1.5,7.37-1.5h8.36m0-.5h-8.36a12.72,12.72,0,0,0-4,.81,11.24,11.24,0,0,1-3.33.69,5.74,5.74,0,0,1-1.82-.3,3,3,0,0,0-1-.16c-3.39,0-7.12,5.29-7.67,6.11a1.59,1.59,0,0,0-.61.85c-.42,1.18,0,3,1.35,5.41,2,3.71,1,4.42-.43,5.51a11.16,11.16,0,0,0-.9.71,2.83,2.83,0,0,0-1.14,2,2,2,0,0,0,.44,1.31c.25.7,1.79,4.74,4.33,4.74a3.31,3.31,0,0,0,2.31-1.13,8.82,8.82,0,0,1,1.65-1.44,11.84,11.84,0,0,1,0,1.81c-.05.77-.12,1.73-.12,2.78,0,3.7,0,6.63,3.25,6.63a8.58,8.58,0,0,0,2-.3,14.31,14.31,0,0,1,3.17-.5,1.72,1.72,0,0,1,.9.15.5.5,0,0,0,.37.35l.11,0a.5.5,0,0,0,.45-.28,4.79,4.79,0,0,1,4-2.68,4.85,4.85,0,0,1,3.4,1.64,2,2,0,0,0,1.52.6c1.73,0,3.74-1.67,3.83-1.74a.53.53,0,0,0,.17-.31l1.16-8.09c1.34-2.38,3.53-5.8,4.29-6.15a.66.66,0,0,0,.36-.42c.52-1.64-6.27-13.41-9.21-18.4a.5.5,0,0,0-.43-.25Z"/>
                </g>
                <path class="cls-42" d="M243.28,245.05a3.4,3.4,0,0,0,1.23,1.38c.49.39,1,.75,1.53,1.1,1,.71,2.12,1.37,3.2,2a.21.21,0,0,1,.1.22,17.4,17.4,0,0,1-1.27,4.16,8,8,0,0,1-1.21,1.86,3.58,3.58,0,0,1-2,1.13c-.41,0-.74.06-1.06.11a1.17,1.17,0,0,0-.75.47,1.88,1.88,0,0,0,.3,1.82,4.67,4.67,0,0,0,3.49,2.11,4.56,4.56,0,0,1-3.74-1.94,3.09,3.09,0,0,1-.48-1,1.39,1.39,0,0,1,1.08-1.86c.39-.07.78-.08,1.08-.13a3,3,0,0,0,1.68-1,8.79,8.79,0,0,0,1.11-1.75,16.72,16.72,0,0,0,1.3-4l.1.22c-1.08-.68-2.12-1.39-3.14-2.15a16.86,16.86,0,0,1-1.47-1.21A3.21,3.21,0,0,1,243.28,245.05Z"/>
                <path class="cls-42" d="M249.13,261.42a.4.4,0,0,1,.28-.4,1.45,1.45,0,0,1,.51,0,5,5,0,0,1,1,.19,16.41,16.41,0,0,1,1.93.69c1.26.54,2.48,1.16,3.68,1.81s2.37,1.37,3.56,2a9.31,9.31,0,0,0,.9.44.91.91,0,0,0,.21.05s.05,0,0,0,0,.05,0,0a1.43,1.43,0,0,0-.16-.4c-.33-.57-.72-1.14-1.09-1.71a46.58,46.58,0,0,1-4-7.19c-.28-.64-.54-1.27-.76-1.93-.1-.33-.2-.67-.27-1a2.6,2.6,0,0,1,0-.57.68.68,0,0,1,.36-.63.85.85,0,0,1,.68,0,3.75,3.75,0,0,1,.49.25c.3.2.57.41.84.63.54.44,1,.91,1.53,1.39,1,1,1.91,2,2.82,3l.69.76.33.38,0,0,0,0a.29.29,0,0,0-.21,0,.27.27,0,0,0-.12.2c0,.07,0,0,0,0l-.09-.24a8.74,8.74,0,0,1-.58-2,6.83,6.83,0,0,1,.65-4.12,5.22,5.22,0,0,1,1.28-1.7,1.78,1.78,0,0,1,1.07-.37,2.07,2.07,0,0,1,1.07.32,8.46,8.46,0,0,1,2.57,3.26,25.21,25.21,0,0,1,1.54,3.82,26.1,26.1,0,0,1,.89,4,9.47,9.47,0,0,1-.17,4.07,9.22,9.22,0,0,0,0-4.05,25.51,25.51,0,0,0-1-4,24.09,24.09,0,0,0-1.58-3.74,8.11,8.11,0,0,0-2.49-3.07,1.41,1.41,0,0,0-1.69,0,4.77,4.77,0,0,0-1.14,1.56,6.17,6.17,0,0,0-.58,3.85,8.16,8.16,0,0,0,.55,1.91l.1.24a1,1,0,0,1,.05.2s0,.18-.12.22-.24,0-.24,0-.05,0-.07,0l-.06-.05-.35-.39-.69-.76c-.92-1-1.85-2-2.82-2.95-.48-.48-1-.94-1.49-1.37a7.47,7.47,0,0,0-.79-.6c-.25-.17-.62-.33-.72-.28s-.12.4-.05.69a8.32,8.32,0,0,0,.25,1c.21.64.46,1.27.73,1.9a49.54,49.54,0,0,0,3.88,7.16c.36.58.74,1.14,1.07,1.76a1.53,1.53,0,0,1,.2.56.29.29,0,0,1-.15.25.31.31,0,0,1-.22,0,1.23,1.23,0,0,1-.29-.07c-.33-.14-.63-.31-.93-.47l-3.53-2.09c-1.18-.68-2.37-1.34-3.61-1.91a18.28,18.28,0,0,0-1.9-.75,5.74,5.74,0,0,0-1-.21,1.21,1.21,0,0,0-.5,0A.38.38,0,0,0,249.13,261.42Z"/>
                <path class="cls-42" d="M249.13,266.13a10.69,10.69,0,0,1,2.82.15,8.44,8.44,0,0,1,2.69.93,5.5,5.5,0,0,1,2.1,2,4.83,4.83,0,0,1,.57,2.77,5.89,5.89,0,0,0-.89-2.56,6.16,6.16,0,0,0-2-1.74,11,11,0,0,0-2.54-1A22.3,22.3,0,0,0,249.13,266.13Z"/>
                <path class="cls-42" d="M250,240.4a26.6,26.6,0,0,0-3.07,2,7.77,7.77,0,0,0-1.33,1.23,1.52,1.52,0,0,0-.37.79.71.71,0,0,0,.47.64,6.38,6.38,0,0,0,1.79-.1c.6-.08,1.2-.18,1.8-.28l3.59-.63a27.49,27.49,0,0,1,3.63-.46,3.93,3.93,0,0,1,.48,0l.25.06a.35.35,0,0,1,.22.25,2.59,2.59,0,0,1,0,1,6.7,6.7,0,0,1-.59,1.77c-.51,1.11-1.17,2.15-1.78,3.19-.15.26-.3.53-.42.79a.89.89,0,0,0-.11.33.17.17,0,0,0,0-.06s0,0,0,0l.16,0a10.21,10.21,0,0,0,1.52-.89,12.09,12.09,0,0,0,2.52-2.53c.19-.23.38-.48.6-.71a1.21,1.21,0,0,1,1-.51,1.42,1.42,0,0,1,.85.65,6.89,6.89,0,0,1,.49.8,6.76,6.76,0,0,0,1,1.42c.4.41.92.65,1.33.35a2,2,0,0,0,.54-.6,6,6,0,0,1,.5-.79c.39-.48.8-.92,1.14-1.41.69-.92,1.22-2.15.57-3.14a6,6,0,0,0-2.88-1.95,15.92,15.92,0,0,1-3.2-1.78,7.24,7.24,0,0,1-1.35-1.24,3.11,3.11,0,0,1-.82-1.61,3.09,3.09,0,0,0,.88,1.56,7.65,7.65,0,0,0,1.38,1.16,18.81,18.81,0,0,0,3.22,1.65,6.28,6.28,0,0,1,3.1,2,2.36,2.36,0,0,1,.3,1.9,5.1,5.1,0,0,1-.84,1.7c-.36.5-.77,1-1.14,1.43s-.53,1.11-1.14,1.5a1.23,1.23,0,0,1-1.07.16,2.2,2.2,0,0,1-.85-.55,7,7,0,0,1-1.12-1.52c-.16-.27-.29-.52-.46-.76s-.37-.45-.52-.46-.37.14-.56.35-.38.45-.57.69a12.92,12.92,0,0,1-2.64,2.58,9.3,9.3,0,0,1-1.63.93,1,1,0,0,1-.28.06.32.32,0,0,1-.37-.3,1.19,1.19,0,0,1,.15-.53,9,9,0,0,1,.46-.81c.63-1,1.3-2.05,1.82-3.14a6.53,6.53,0,0,0,.59-1.67,2.08,2.08,0,0,0,0-.86c0-.05-.11-.09-.25-.11a3.15,3.15,0,0,0-.44,0,29.61,29.61,0,0,0-3.6.41l-3.6.58c-.6.1-1.2.19-1.8.26a6.66,6.66,0,0,1-1.84.07.8.8,0,0,1-.53-.75,1.7,1.7,0,0,1,.4-.83,7.16,7.16,0,0,1,1.36-1.22A25.37,25.37,0,0,1,250,240.4Z"/>
                <path class="cls-16" d="M280.7,254.4s-4.68-14-9.36-17.54-12.86-4.67-10.52,0c1.17,1.17,5.85,0,9.36,8.19-.1-.21-3.51-3.51-4.68-1.17,0,0-1.17,1.17,1.17,4.67,3.24,4.87,2.34,2.34,3.51,5.85s2.33,4.68,4.67,7"/>
                <g>
                  <path class="cls-28" d="M273.68,248.55,269,243.88"/>
                  <path class="cls-29" d="M273.67,248.57c-.84-.73-1.66-1.46-2.47-2.21a14.33,14.33,0,0,1-1.2-1.14,9.4,9.4,0,0,1-1-1.32l0,0a9.5,9.5,0,0,1,1.33,1,16.06,16.06,0,0,1,1.14,1.2c.74.82,1.48,1.64,2.21,2.47Z"/>
                </g>
              </g>
            </g>
          </g>
        </g>
      </g>
      <path class="cls-43" d="M302.3,520.15c-148.49,0-268.87-109-268.87-243.53S153.81,33.08,302.3,33.08s268.87,109,268.87,243.54S450.79,520.15,302.3,520.15Z"/>
    </g>
  </g>
</svg>
