<svg id="Layer_1" data-name="Layer 1" xmlns="http://www.w3.org/2000/svg" viewBox="0 0 872.93 169.53"><defs><style>.cls-1{fill:#3172c2;stroke:#fff;stroke-miterlimit:10;stroke-width:2px;}.cls-2{fill:#fff;}</style></defs><rect class="cls-1" x="70.91" y="45.69" width="731.11" height="78.15" rx="39.07"/><path class="cls-2" d="M224.86,89.82a9.3,9.3,0,0,1-.61,3.43A7.09,7.09,0,0,1,222.37,96a9,9,0,0,1-3.26,1.83,16.09,16.09,0,0,1-4.87.72,21.36,21.36,0,0,1-2.54-.17,22.59,22.59,0,0,1-2.86-.53,23.57,23.57,0,0,1-3-1,16.88,16.88,0,0,1-2.72-1.37l1.71-5.43a22.92,22.92,0,0,0,5.42,2.54,13.78,13.78,0,0,0,3.94.61,4.14,4.14,0,0,0,2.56-.82,2.49,2.49,0,0,0,.9-2.12,3.12,3.12,0,0,0-.81-2,9.41,9.41,0,0,0-2.65-1.86,49.47,49.47,0,0,1-4.52-2.7,17,17,0,0,1-3-2.57A8.86,8.86,0,0,1,205,78.51a8.27,8.27,0,0,1-.59-2.89,7.29,7.29,0,0,1,2.67-6.2c1.84-1.49,4.46-2.26,7.84-2.31q1.43,0,2.58.06a14.87,14.87,0,0,1,2.29.33,15.35,15.35,0,0,1,2.34.74q1.2.48,2.67,1.23l-1.26,5.33a24.09,24.09,0,0,0-2.16-1.08,16.44,16.44,0,0,0-1.89-.7,11.6,11.6,0,0,0-1.78-.39,13.78,13.78,0,0,0-1.87-.12,5.59,5.59,0,0,0-3.17.78,2.61,2.61,0,0,0-1.1,2.39,2.87,2.87,0,0,0,1.08,2,20.23,20.23,0,0,0,3.4,2.21q2.34,1.31,4,2.42a15.73,15.73,0,0,1,2.76,2.24A7.49,7.49,0,0,1,224.37,87,7.67,7.67,0,0,1,224.86,89.82Z"/><path class="cls-2" d="M237.32,73.28a2.45,2.45,0,0,1-1,2,4.16,4.16,0,0,1-5,0,2.71,2.71,0,0,1-1.08-2.07,2.44,2.44,0,0,1,1-2.06,4.3,4.3,0,0,1,3.94-.61,3.45,3.45,0,0,1,1.13.63,3.32,3.32,0,0,1,.76,1A2.42,2.42,0,0,1,237.32,73.28Zm-6.75,25.24V78.72h6v19.8Z"/><path class="cls-2" d="M244.84,98.52V83h-4V78.72h4v-5h5.89v5h5.09V83h-5.09V98.52Z"/><path class="cls-2" d="M286.87,98a9.91,9.91,0,0,1-.39-1q-.11-.41-.24-1.17a8.83,8.83,0,0,1-6.35,2.75,6.66,6.66,0,0,1-2.68-.55,7,7,0,0,1-2.16-1.51,6.72,6.72,0,0,1-1.41-2.32,8.83,8.83,0,0,1-.5-3c0-1.22,0-2.36.09-3.41s.11-2.06.14-3,0-1.92,0-2.89-.11-2-.23-3.06h6c.09,1,.14,1.93.16,2.84s0,1.81,0,2.71-.05,1.81-.09,2.73-.07,1.91-.07,3a4.89,4.89,0,0,0,.28,1.85,2.21,2.21,0,0,0,.72,1,2.18,2.18,0,0,0,.92.37,6.67,6.67,0,0,0,.8.07,4.56,4.56,0,0,0,1-.18,3.16,3.16,0,0,0,1.36-.82,5.55,5.55,0,0,0,1.19-1.91,9,9,0,0,0,.52-3.39V78.72h6V91.8a22.48,22.48,0,0,0,.27,3.42,11.2,11.2,0,0,0,.72,2.76Z"/><path class="cls-2" d="M318.86,87.45a15.08,15.08,0,0,1-.63,4.49,10.93,10.93,0,0,1-1.77,3.51,8.15,8.15,0,0,1-2.74,2.27,7.61,7.61,0,0,1-3.48.8,7.5,7.5,0,0,1-2.37-.32,6.64,6.64,0,0,1-2-1.16v14.89h-6.3V84.65a10.32,10.32,0,0,0-.07-1.15c0-.44-.11-.91-.18-1.39s-.17-1-.27-1.46a10.89,10.89,0,0,0-.38-1.35h6.1a4.8,4.8,0,0,1,.32.88,8.68,8.68,0,0,1,.19,1.24A9.62,9.62,0,0,1,308,79.35a7.12,7.12,0,0,1,3.1-.63,8,8,0,0,1,3.17.62,7,7,0,0,1,2.45,1.78,8.13,8.13,0,0,1,1.59,2.76A11,11,0,0,1,318.86,87.45Zm-6,1a4.28,4.28,0,0,0-.9-2.9,3.12,3.12,0,0,0-2.46-1,3.54,3.54,0,0,0-2.91,1.32,5.53,5.53,0,0,0-1.07,3.56V92a4.77,4.77,0,0,0,3.19,1.2,3.81,3.81,0,0,0,3-1.27A5,5,0,0,0,312.88,88.45Z"/><path class="cls-2" d="M353.29,93a5.68,5.68,0,0,1-1.91,4.5A7.94,7.94,0,0,1,346,99.19a22.49,22.49,0,0,1-4.57-.45,13.4,13.4,0,0,1-3.6-1.21l.77-4.59a15.34,15.34,0,0,0,6.84,2,1.9,1.9,0,0,0,1.41-.43,1.29,1.29,0,0,0,.43-1,1.73,1.73,0,0,0-.34-1.11,5.17,5.17,0,0,0-1.64-1,26.44,26.44,0,0,1-3.17-1.62A10.4,10.4,0,0,1,340,88.1a5.79,5.79,0,0,1-1.22-1.87,6.32,6.32,0,0,1-.38-2.25,5.09,5.09,0,0,1,2.18-4.39A9.59,9.59,0,0,1,346.25,78a17.87,17.87,0,0,1,3.35.29A15.83,15.83,0,0,1,353,79.48L352.25,84a10.7,10.7,0,0,0-3.1-1.24,13.5,13.5,0,0,0-2.95-.34,2.09,2.09,0,0,0-1.44.38,1.41,1.41,0,0,0-.38,1,1.46,1.46,0,0,0,.61,1.23,12.94,12.94,0,0,0,2.4,1.24,28.56,28.56,0,0,1,2.73,1.55A9.82,9.82,0,0,1,352,89.4a4.77,4.77,0,0,1,1,1.67A5.76,5.76,0,0,1,353.29,93Z"/><path class="cls-2" d="M360,98.52V83h-4V78.72h4v-5h5.89v5H371V83h-5.09V98.52Z"/><path class="cls-2" d="M388.16,84.25q-.63-.14-1-.18a6.65,6.65,0,0,0-.81,0,4.56,4.56,0,0,0-3.89,1.75A8.58,8.58,0,0,0,381.14,91v7.51h-6v-13q0-1.09,0-1.92a14.09,14.09,0,0,0-.11-1.52,13.05,13.05,0,0,0-.25-1.39q-.15-.68-.42-1.56H380c.09.37.18.69.25,1a6,6,0,0,1,.17.74c0,.23.06.47.09.74a8.46,8.46,0,0,1,0,.94,10.28,10.28,0,0,1,2.56-2.93,4.92,4.92,0,0,1,2.86-.85,4.06,4.06,0,0,1,1.06.11,10.17,10.17,0,0,1,1.19.44Z"/><path class="cls-2" d="M404.76,98.52c0-.21,0-.47,0-.77a8.53,8.53,0,0,1-.08-.85c0-.33,0-.68-.07-1a7.14,7.14,0,0,1-2.93,2.32,9.55,9.55,0,0,1-3.83.79,7.11,7.11,0,0,1-5.75-2.43Q390,94.11,390,89.61q0-5.44,3.3-8.4t9.42-2.94c.67,0,1.28,0,1.83,0s1.09.08,1.64.16,1.11.17,1.69.29,1.22.29,1.92.5V92c0,.69,0,1.41,0,2.18s.08,1.46.14,2.09.12,1.49.18,2.21Zm-.94-14.67a9.25,9.25,0,0,0-1.42-.23c-.43,0-.82,0-1.19,0a4.82,4.82,0,0,0-3.85,1.59A6.64,6.64,0,0,0,396,89.61a4.45,4.45,0,0,0,.82,2.88,2.88,2.88,0,0,0,2.34,1,4.17,4.17,0,0,0,1.81-.41,4.56,4.56,0,0,0,1.49-1.15,5.58,5.58,0,0,0,1-1.75,6.76,6.76,0,0,0,.36-2.27Z"/><path class="cls-2" d="M423.4,73.28a2.46,2.46,0,0,1-1,2,4.15,4.15,0,0,1-5,0,2.65,2.65,0,0,1-1.08-2.07,2.44,2.44,0,0,1,1-2.06,4.28,4.28,0,0,1,3.93-.61,3.45,3.45,0,0,1,1.13.63,3.32,3.32,0,0,1,.76,1A2.43,2.43,0,0,1,423.4,73.28Zm-6.75,25.24V78.72h6v19.8Z"/><path class="cls-2" d="M448.33,99.15a21,21,0,0,1-.76,6.09,10.7,10.7,0,0,1-2.07,3.94,7.51,7.51,0,0,1-3.1,2.14,11.4,11.4,0,0,1-3.9.65,32.37,32.37,0,0,1-4-.25,14.34,14.34,0,0,1-3.79-1v-4.55a25.7,25.7,0,0,0,3.45,1,15.32,15.32,0,0,0,2.9.34,5.08,5.08,0,0,0,2.15-.45,4.25,4.25,0,0,0,1.68-1.44A7.52,7.52,0,0,0,442,103a17.63,17.63,0,0,0,.38-3.92v-2a6.91,6.91,0,0,1-2.56,1.51A10.73,10.73,0,0,1,437,99a8.82,8.82,0,0,1-3.51-.68,7.54,7.54,0,0,1-2.67-1.89,8.33,8.33,0,0,1-1.71-3,12.32,12.32,0,0,1,.33-8.55,10.07,10.07,0,0,1,2.66-3.57,12.13,12.13,0,0,1,4.2-2.28,18.42,18.42,0,0,1,5.57-.78c.64,0,1.2,0,1.69,0a13.55,13.55,0,0,1,1.43.11c.47.06,1,.14,1.51.25s1.15.25,1.85.43Zm-6-15-1.18-.18a9.35,9.35,0,0,0-1,0A5.72,5.72,0,0,0,436,85.35a5.38,5.38,0,0,0-1.51,4,3.85,3.85,0,0,0,1,2.84,3.37,3.37,0,0,0,2.48,1,7.25,7.25,0,0,0,1.62-.18,2.81,2.81,0,0,0,1.41-.81,4.4,4.4,0,0,0,1-1.83,11,11,0,0,0,.37-3.21Z"/><path class="cls-2" d="M467.4,98.52V87.32a5.82,5.82,0,0,0-.2-1.73,2.24,2.24,0,0,0-.58-1,1.87,1.87,0,0,0-.82-.46,4.37,4.37,0,0,0-1-.1,2.73,2.73,0,0,0-1.49.45,4.66,4.66,0,0,0-1.27,1.24,7,7,0,0,0-.89,1.84,7.24,7.24,0,0,0-.35,2.24v8.72h-6V67.69h5.94V81a7,7,0,0,1,2.48-1.74,8.43,8.43,0,0,1,3-.51,9.48,9.48,0,0,1,2.6.35,6.54,6.54,0,0,1,2.26,1.11,5.73,5.73,0,0,1,1.62,2,7.09,7.09,0,0,1,.62,3.11V98.52Z"/><path class="cls-2" d="M481.22,98.52V83h-4V78.72h4v-5h5.9v5h5.08V83h-5.08V98.52Z"/><path class="cls-2" d="M516.77,73.28a2.46,2.46,0,0,1-1,2,4.14,4.14,0,0,1-5,0,2.71,2.71,0,0,1-1.08-2.07,2.44,2.44,0,0,1,1-2.06,4,4,0,0,1,2.61-.84,4.09,4.09,0,0,1,1.33.23,3.4,3.4,0,0,1,1.12.63,3.35,3.35,0,0,1,.77,1A2.53,2.53,0,0,1,516.77,73.28ZM510,98.52V78.72h6v19.8Z"/><path class="cls-2" d="M535.58,98.52V87.28a4.63,4.63,0,0,0-.29-1.82,2.63,2.63,0,0,0-.7-1,1.72,1.72,0,0,0-.86-.39A5.86,5.86,0,0,0,533,84a4.2,4.2,0,0,0-1,.17,3.35,3.35,0,0,0-1.37.82,5.74,5.74,0,0,0-1.24,1.91,8.77,8.77,0,0,0-.54,3.39v8.2h-6V85.43a22.48,22.48,0,0,0-.27-3.42,11.11,11.11,0,0,0-.72-2.75h6a9.87,9.87,0,0,1,.39,1q.11.4.24,1.17a9.33,9.33,0,0,1,3.09-2.07,8.9,8.9,0,0,1,3.35-.67,6.52,6.52,0,0,1,2.62.52,6.23,6.23,0,0,1,2.1,1.47A6.77,6.77,0,0,1,541.06,83a9.1,9.1,0,0,1,.5,3.09v12.4Z"/><path class="cls-2" d="M575,98.15a13.87,13.87,0,0,1-3.22.37,10.77,10.77,0,0,1-4-.71,9.94,9.94,0,0,1-3.13-2,8.5,8.5,0,0,1-2-3,10.27,10.27,0,0,1-.72-3.91,12.46,12.46,0,0,1,.65-4.13,8.64,8.64,0,0,1,2-3.24,9,9,0,0,1,3.29-2.1,12.67,12.67,0,0,1,4.56-.75,10.4,10.4,0,0,1,3.45.47,12.25,12.25,0,0,1,2.22,1l-1,5.18c-.45-.21-.84-.4-1.15-.57a7.58,7.58,0,0,0-.9-.4,4.41,4.41,0,0,0-.95-.23,10.74,10.74,0,0,0-1.23-.06,4.66,4.66,0,0,0-3.47,1.22,4.52,4.52,0,0,0-1.21,3.32A4.42,4.42,0,0,0,569.42,92a5.08,5.08,0,0,0,3.64,1.21,10,10,0,0,0,2.34-.28,12.87,12.87,0,0,0,2.39-.86l.4,4.9A15.5,15.5,0,0,1,575,98.15Z"/><path class="cls-2" d="M583.05,98.52V67.15h6V98.52Z"/><path class="cls-2" d="M609.87,98.52c0-.21,0-.47,0-.77s-.05-.52-.07-.85,0-.68-.07-1a7.14,7.14,0,0,1-2.93,2.32,9.56,9.56,0,0,1-3.84.79,7.12,7.12,0,0,1-5.75-2.43c-1.36-1.62-2-3.93-2-6.93q0-5.44,3.31-8.4t9.42-2.94c.67,0,1.28,0,1.82,0s1.1.08,1.65.16,1.11.17,1.69.29,1.21.29,1.91.5V92c0,.69,0,1.41.05,2.18s.07,1.46.13,2.09.12,1.49.18,2.21Zm-.94-14.67a9.45,9.45,0,0,0-1.42-.23c-.43,0-.83,0-1.19,0a4.81,4.81,0,0,0-3.85,1.59,6.59,6.59,0,0,0-1.37,4.44,4.4,4.4,0,0,0,.82,2.88,2.88,2.88,0,0,0,2.34,1,4.09,4.09,0,0,0,1.8-.41,4.37,4.37,0,0,0,1.49-1.15,5.58,5.58,0,0,0,1-1.75,6.75,6.75,0,0,0,.37-2.27Z"/><path class="cls-2" d="M635.79,93a5.68,5.68,0,0,1-1.91,4.5,7.92,7.92,0,0,1-5.36,1.66,22.39,22.39,0,0,1-4.56-.45,13.4,13.4,0,0,1-3.6-1.21l.76-4.59A15.34,15.34,0,0,0,628,95a2,2,0,0,0,1.42-.43,1.32,1.32,0,0,0,.42-1,1.79,1.79,0,0,0-.33-1.11,5.26,5.26,0,0,0-1.65-1,27.22,27.22,0,0,1-3.17-1.62,11,11,0,0,1-2.16-1.69,5.75,5.75,0,0,1-1.21-1.87,6.1,6.1,0,0,1-.39-2.25,5.09,5.09,0,0,1,2.18-4.39A9.61,9.61,0,0,1,628.75,78a17.9,17.9,0,0,1,3.36.29,15.77,15.77,0,0,1,3.36,1.15L634.75,84a10.53,10.53,0,0,0-3.09-1.24,13.59,13.59,0,0,0-3-.34,2,2,0,0,0-1.43.38,1.38,1.38,0,0,0-.39,1,1.47,1.47,0,0,0,.62,1.23,12.43,12.43,0,0,0,2.39,1.24,28.84,28.84,0,0,1,2.74,1.55,10.15,10.15,0,0,1,1.84,1.53,4.92,4.92,0,0,1,1,1.67A6,6,0,0,1,635.79,93Z"/><path class="cls-2" d="M655.77,93a5.68,5.68,0,0,1-1.91,4.5,7.94,7.94,0,0,1-5.36,1.66,22.32,22.32,0,0,1-4.56-.45,13.6,13.6,0,0,1-3.61-1.21l.77-4.59a15.34,15.34,0,0,0,6.84,2,2,2,0,0,0,1.42-.43,1.33,1.33,0,0,0,.43-1,1.79,1.79,0,0,0-.34-1.11,5.39,5.39,0,0,0-1.65-1,27.22,27.22,0,0,1-3.17-1.62,11,11,0,0,1-2.16-1.69,5.75,5.75,0,0,1-1.21-1.87,6.1,6.1,0,0,1-.38-2.25,5.08,5.08,0,0,1,2.17-4.39A9.59,9.59,0,0,1,648.73,78a17.9,17.9,0,0,1,3.36.29,15.77,15.77,0,0,1,3.36,1.15L654.73,84a10.48,10.48,0,0,0-3.1-1.24,13.5,13.5,0,0,0-3-.34,2,2,0,0,0-1.43.38,1.38,1.38,0,0,0-.39,1,1.45,1.45,0,0,0,.62,1.23,12.29,12.29,0,0,0,2.4,1.24,31.27,31.27,0,0,1,2.73,1.55,10.15,10.15,0,0,1,1.84,1.53,4.89,4.89,0,0,1,1,1.67A5.76,5.76,0,0,1,655.77,93Z"/><path class="cls-2" d="M668.5,95.75a2.42,2.42,0,0,1-1,2,3.93,3.93,0,0,1-2.49.8,3.83,3.83,0,0,1-2.5-.86,2.59,2.59,0,0,1-.07-4.11,3.54,3.54,0,0,1,2.39-.84,4,4,0,0,1,2.62.89A2.7,2.7,0,0,1,668.5,95.75Z"/></svg>