<?xml version="1.0" encoding="utf-8"?>
<!-- Generator: Adobe Illustrator 25.0.0, SVG Export Plug-In . SVG Version: 6.00 Build 0)  -->
<svg version="1.1" id="Layer_1" xmlns="http://www.w3.org/2000/svg" xmlns:xlink="http://www.w3.org/1999/xlink" x="0px" y="0px"
	 viewBox="0 0 550 400" style="enable-background:new 0 0 550 400;" xml:space="preserve">
<style type="text/css">
	.st0{fill:#FFFFFF;}
	.st1{clip-path:url(#SVGID_2_);}
	.st2{clip-path:url(#SVGID_4_);}
	.st3{fill:#95C6E3;}
	.st4{opacity:0.1;}
	.st5{fill:#B9E5FA;}
	.st6{fill:#7BD3F7;}
	.st7{fill:#00B1E8;}
	.st8{fill:url(#SVGID_5_);}
	.st9{fill:#0088C0;}
	.st10{fill:none;}
	.st11{fill:#00A9D3;}
	.st12{fill:#73CBE5;}
	.st13{fill:#D9F1FD;}
	.st14{fill:#D1E9F2;}
	.st15{fill:#00A2E5;}
	.st16{fill:url(#SVGID_6_);}
	.st17{fill:url(#SVGID_7_);}
	.st18{fill:url(#SVGID_8_);}
</style>
<g id="Layer_1_1_">
	<circle class="st0" cx="-570" cy="-220" r="196.5"/>
	<g>
		<defs>
			<circle id="SVGID_1_" cx="-570" cy="-220" r="196.5"/>
		</defs>
		<clipPath id="SVGID_2_">
			<use xlink:href="#SVGID_1_"  style="overflow:visible;"/>
		</clipPath>
		<g class="st1">
			<g>
				<defs>
					<rect id="SVGID_3_" x="-957" y="-440.1" width="781.8" height="436.9"/>
				</defs>
				<clipPath id="SVGID_4_">
					<use xlink:href="#SVGID_3_"  style="overflow:visible;"/>
				</clipPath>
				<g class="st2">
					<rect x="56.2" y="-65.5" class="st3" width="19.7" height="67.2"/>
					<polygon class="st3" points="115.2,2 115.2,-48.9 111.3,-48.9 111.3,-51.4 100.1,-51.4 100.1,-48.9 96.2,-48.9 96.2,2 					"/>
					<rect x="-21.2" y="-80.3" class="st3" width="30.8" height="82.3"/>
					<rect x="85.4" y="-64.6" class="st3" width="18.4" height="66.6"/>
					<rect x="46.3" y="-57.1" class="st3" width="23" height="59.1"/>
					<rect x="8.8" y="-87.8" class="st3" width="48.3" height="89.8"/>
					<rect x="11.1" y="-88.8" class="st3" width="44" height="90.8"/>
					<g class="st4">
						<rect x="56.2" y="-65.5" class="st3" width="19.7" height="67.2"/>
						<polygon class="st3" points="115.2,2 115.2,-48.9 111.3,-48.9 111.3,-51.4 100.1,-51.4 100.1,-48.9 96.2,-48.9 96.2,2 						
							"/>
						<rect x="-21.2" y="-80.3" class="st3" width="30.8" height="82.3"/>
						<rect x="85.4" y="-64.6" class="st3" width="18.4" height="66.6"/>
						<rect x="46.3" y="-57.1" class="st3" width="23" height="59.1"/>
						<rect x="8.8" y="-87.8" class="st3" width="48.3" height="89.8"/>
						<rect x="11.1" y="-88.8" class="st3" width="44" height="90.8"/>
					</g>
				</g>
			</g>
		</g>
	</g>
	<path class="st5" d="M437.4,323.9c0,0,1.6,18.7,41.5,19c26,0.2,39-9.5,28.9-19H437.4z"/>
	<path class="st6" d="M429.7,319.9c0,0-1.3-21.5-42.7-5.6c0,0,0.7,17.2-8.9,27.2c0,0-15.2,14.2-41.7,2l72.5-29.5
		c0,0,13.2-4.6,23.2-4.6S429.7,319.9,429.7,319.9z"/>
	<path class="st7" d="M10.9,330.2c0,0,5.4,25.6,81.4,26c17.9,0.1,57-31.5,91.7-17.1C184,339,134.6,300.4,10.9,330.2z"/>
	<path class="st7" d="M4.3,278.9c0,0-6.2,4,1.7,4.7s52.4,4.7,49.7,8.7c0,0-0.2,4-11.4,10.2c0,0,16.2-2.2,16.9-3.7s4.5-5.5,0.7-8.5
		s-10.7-6.2-14.4-7.5c-3.6-1-7.4-1.5-11.2-1.5C33.9,281.4,4.3,278.9,4.3,278.9z"/>
	
		<linearGradient id="SVGID_5_" gradientUnits="userSpaceOnUse" x1="444.8297" y1="85.896" x2="43.4097" y2="111.8259" gradientTransform="matrix(1 0 0 -1 0 402)">
		<stop  offset="0" style="stop-color:#D9F1FD"/>
		<stop  offset="1" style="stop-color:#7BD3F7"/>
	</linearGradient>
	<path class="st8" d="M42.1,265.2c0,0-26.8,1-35.8,9.9s-1,8,18.9,9.9S69.7,289.5,50,299c-8.3,4-19.3,1.1-31.2,10.1
		S7,336.6,22.2,341.7c34.6,11.7,56.7,16.9,82.5,6s47.7-14.9,62.6-13.9s20.4,12.1,28.1,19.1c13.1,11.8,20.6,6.8,42.5-3.2
		s22.9-13.9,42.7-13.9s17.4,1.9,40.8,7c25.9,5.6,38.1,14.1,67.9-6.1c17.8-12.1,31.2-9.8,37.1-7.1c20.7,9.2,13.2,6.3,34.1,10.3
		s79.5-5.1,33.8-22.9c-51.3-20-68.5-28.8-46.9-18.7c20.3,9.5,38.8,13.6,31.8,0.9c-8.8-16.1-58.6-42.8-79.9-42.3
		c-16.8,0.4,20.6-5.4-25.3-5.9c-51.3-0.5-39.8,6.2-88.5,12.2s25,3.7-20.1-17.6c-15.9-7.5-25.7-2.7-80.3,7.7
		c-65.6,12.5-76.5,19.9-108.3,11.9S68.9,267.2,42.1,265.2z"/>
	<path class="st9" d="M326.6,323.5c0,0,11.9,5.3,19.5,3s27.5-11.6,29.8-11.9s16.2-5.3,19.9-7.6s19.2-3.3,25.8-10.3
		s-22.2-2.3-22.2-2.3s-47.7,9.3-51.7,10.3S326.6,323.5,326.6,323.5z"/>
	<path class="st6" d="M129.2,301c0,0,29.8-1,39.4,2.3s19.2,7.3,25.8,1.3s2-9.6,15.9-6.6s27.8,2,22.2,6.6s-14.9,10.6,4.3,9.3
		s14.9,5.6,32.8,7s36.8,1.3,21.9-6s-16-11-32.9-24.2s-9.2-12.9-48.4-9.4s-22,4.5-51.1,8.4S129.2,301,129.2,301z"/>
	<path class="st9" d="M242.3,300.8c0,0-3.5,12.4,7.8,14.9c6.9,1.6,13.8,2.7,20.9,3.1c1.5,0,38.4,2.1,44,4.1c0,0-0.6-24.8-9.8-25.8
		S242.3,300.8,242.3,300.8z"/>
	<path class="st9" d="M129.5,301.2c0,0,28.1-1.5,32.5-1s17.9-1.2,20.1-2.5s19.9-3,23.6-2.7s12.7-0.5,12.7-6S129.5,301.2,129.5,301.2
		z"/>
	<path class="st9" d="M42.1,265.5c0,0-3.7,7,1,11.7s5,3.7,8.2,3.7s11.4,2.7,13.4,5c2,2.3,37.3,18.1,46.4,17.4L42.1,265.5z"/>
	<path class="st10" d="M108.2,302.7L46,276.2c-2.3-1.1-3.8-3.4-3.7-6l62.2,26.5C104.3,299.3,105.8,301.7,108.2,302.7z"/>
	<path class="st5" d="M153.6,148.1c-0.9-0.4-2-0.6-3-0.5l-100.7,9.6l62.2,26.5l100.7-9.6c1-0.1,2.1,0.1,3,0.5L153.6,148.1z"/>
	<path class="st6" d="M49.9,157.2c-0.2,0-0.4,0.1-0.6,0.1h-0.2l-0.5,0.1l-0.2,0.1l-0.5,0.2l-0.1,0.1l0,0c-0.2,0.1-0.3,0.1-0.5,0.2
		l-0.1,0.1l-0.5,0.3l-0.1,0.1l-0.4,0.3l-0.1,0.1l-0.1,0.1c-0.1,0.1-0.3,0.2-0.4,0.3l-0.1,0.1c-0.1,0.1-0.3,0.3-0.4,0.4l-0.1,0.1
		l-0.2,0.2c0,0-0.1,0.1-0.1,0.1l-0.2,0.2l-0.2,0.3c-0.1,0.1-0.1,0.2-0.2,0.2l-0.2,0.3l-0.1,0.3l-0.2,0.4c0,0.1-0.1,0.2-0.1,0.3
		s-0.1,0.2-0.1,0.4c0,0.1-0.1,0.2-0.1,0.3c0,0.1-0.1,0.3-0.1,0.4c0,0.1,0,0.2-0.1,0.3c0,0.1,0,0.3-0.1,0.5s0,0.2,0,0.2s0,0.5,0,0.7
		l-0.8,105.3c0,0.7,0.1,1.5,0.3,2.1c0.2,0.6,0.4,1.1,0.8,1.6c0.3,0.5,0.7,0.9,1.2,1.3c0.5,0.4,1,0.7,1.5,0.9l62.2,26.5
		c-0.6-0.2-1.1-0.6-1.5-0.9c-0.4-0.4-0.8-0.8-1.2-1.3c-0.3-0.5-0.6-1-0.8-1.6c-0.2-0.7-0.3-1.4-0.3-2.1l0.8-105.3c0-0.2,0-0.5,0-0.7
		c0-0.1,0-0.2,0-0.2c0-0.2,0-0.3,0.1-0.5c0-0.1,0-0.2,0.1-0.3c0-0.1,0.1-0.3,0.1-0.4l0.1-0.3c0-0.1,0.1-0.2,0.1-0.4
		c0-0.1,0.1-0.2,0.1-0.3c0-0.1,0.1-0.2,0.2-0.4l0.1-0.3c0.1-0.1,0.1-0.2,0.2-0.3l0.2-0.3l0.2-0.3l0.2-0.2l0.3-0.4l0.1-0.1
		c0.1-0.1,0.3-0.3,0.4-0.4l0.1-0.1l0.4-0.3l0.1-0.1c0.2-0.1,0.3-0.2,0.5-0.4l0.1-0.1c0.2-0.1,0.3-0.2,0.4-0.3l0.1-0.1l0.6-0.3
		c0,0,0.1,0,0.1-0.1l0.5-0.2l0.2-0.1l0.4-0.1h0.2c0.2,0,0.4-0.1,0.6-0.1L49.9,157.2z"/>
	<path class="st5" d="M212.8,174.1c3.4-0.3,6.4,2.2,6.7,5.6c0,0.3,0,0.6,0,0.9l-0.8,105.3c0,3.9-3,7.2-6.9,7.8l-100.7,9.5
		c-3.4,0.3-6.4-2.1-6.7-5.5c0-0.3,0-0.6,0-0.9l0.8-105.3c0-3.9,2.9-7.2,6.8-7.8L212.8,174.1z"/>
	<path class="st5" d="M49.4,162.6c0,0-4.1-0.3-4.6,6.6s1.8,27.4,0.8,31.9s-2.8,52-1.3,58.3c1.1,4.2,2.8,8.2,5.1,11.9
		c0,0-4.6-6.3-5.6-9.4c-0.2,1.1-0.3,2.1-0.3,3.2c-0.1,2.9,0.3,7,2.6,9.5c3.8,4.1,16,4.8,19.3,7.6s37,19.5,37.3,16s0.5-12.7-3.6-20
		s-14.2-20.5-16-35.5l18.3,27.4c0,0,4.8-2.5-6.8-48.2c0,0,3.8-5,6.6-19.8c0,0,5.8-3,0.3-17.2c0,0-2.8-4.8-15.5-3.8
		s-17.2-3.6-23.1-10.4S50.9,162.9,49.4,162.6z"/>
	<path class="st6" d="M91.5,270.9c0,0-25.9,1.3-29.4,1.5s-14.5-2.3-14.5-0.8s2.5,3,6.1,3.3c2.1,0.1,3.9,1.4,4.8,3.3
		c0,0,1.5-2,5.3-1.3c3.8,0.7,1.8-0.3,4.1,3.5s1.3,0.5,9.9,4.3s8.4,5.1,14.2,7.9s10.1,5.8,10.1,0.5s-7.3-18-10.1-21.8"/>
	<path class="st11" d="M67.1,169.2c0,0,5.3,7.4,17,7.4s19.3,6.3,19.8,10.9s0.5,15,1.3,18s-1,8.1-1,16.7s-2.3,19.8-0.8,34.2
		c1.5,14.5,1.3,40.3-0.5,42.6s8.4,5.1,12.2,3.6c0,0-9.1-2-8.9-11.4s-1.3-33.5-1.5-38.8s0.5-23.3,1.5-27.6s1-26.4,0-31.4
		s4.6-9.9,10.2-9.4s13.2,4.6,28.9,3.8c0,0-17.5-1.3-20-5.1s27.1-2,30.7-1.8s37.5-1.5,47.4-4.8s16,1,16,3.8c0,0,3.3-3.8-12.9-9.4
		s-25.6-12.7-34.7-15c0,0,13.7,6.1,16.7,8.6s15.2,8.6,21,9.1s-38,4.3-46.2,4.1s-33.5-1-50.2,2c0,0-4.6,1.5-11.7-1.3
		s-10.9-2.8-16.7-3.3S75.5,174.5,67.1,169.2z"/>
	<path class="st11" d="M46,276.2c0,0,20.3,9.1,23.4,10.6s29.4,14.5,38,15.5l-2.7-7.3c0,0-3,6.3-14-0.8s-17.7-8.4-22-9.1
		s-13.5-4.5-13.5-7.5c2.4,1.4,4.7,3,6.9,4.7C62.1,282.3,50.3,277.2,46,276.2z"/>
	<path class="st12" d="M214,289.1c0,0-54.8-12-60.5-21.7c0,0-6.3-4.6-16-1.1s-30.2,4-30.2,4s-2.8,28,8.6,30.8s18.3-6.9,57.6-5.1
		C173.5,296,210,293.1,214,289.1z"/>
	<path class="st12" d="M210.1,176.1c0,0,7.6-1,7.9,7.9s-7.6,25.9-8.1,39.3s-8.1,21.8-21.6,18.3c0,0,21,8.9,23.3-16.7
		s4.6,5.1,4.8,9.6s-1.8,13.2-2.8,22.1c-1,8.9-2,15,0.2,19s5.8,15-4.1,18.5c0,0,12.4,1.5,8.6-17.8s-1.5-26.6,0.2-31.4
		s3.3-11.2,1-36.8s5.3-33.7-9.9-32.4"/>
	<path class="st12" d="M220.6,237.4c0,0-2.3,24.9-1.5,30.4C219,267.9,216.2,249.4,220.6,237.4z"/>
	<path class="st0" d="M130.3,181.4c0,0,16.5-1.3,23.3,0.5s42.6-2.3,45.4-3.8s8.9-1.8,10.9-0.2s3,8.9-9.1,5.3s-25.4,2.3-30.9,3
		s-13.2,0.2-20.5-1.5s-8.9,1.5-13.9,0S124.7,183.4,130.3,181.4z"/>
	<path class="st0" d="M213.7,220.2c0,0,2.3,26.1-2.5,40.3s-1,14.2,1.5,18.5s4.6,8.1-0.8,7.6s-7.9,0.2-7.6-6.3s4.8,4.3,5.8,1
		s-3.3-4.3-4.1-8.4s2-6.9,2.8-12.9S213.4,250.6,213.7,220.2z"/>
	<path class="st13" d="M143.2,186.2c0,0,5.6-1.8,5.6,9.6s-0.8,7.4,0.2,18.8s1.3,16.5,2.3,22.8s-2,21.8-6.1,13.7c0,0-1,5.6,1.3,5.6
		s4.8,6.3,0.8,5.8s-9.6-6.1-11.1-0.5s-2.8,5.1-9.9,5.3c-4.6,0-9.2,0.6-13.7,1.5c0,0,12.4-1,15,0.2s9.4,0,11.4-2.5s3-0.8,6.6-1.3
		s8.9,0.8,10.6,3.5s28.6,17.2,55.5,19.8c0,0-41.1-9.6-47.4-18.3s-1.5-5.3-7.6-8.4s-1.8-13.2-1.8-16.2c-0.3-6.9-1.2-13.8-2.5-20.5
		c-1.5-7.4,6.6-14.3,12.6-19.6s12.4-8.3,12.4-11.9c-4,4.6-8.8,8.4-14.1,11.5c-9.1,5.3-12.4,6.1-12.4-3.8S149.3,184.7,143.2,186.2z"
		/>
	<path class="st7" d="M108.6,272.5c0,0-4.9,21.3,9.5,27.8c0,0,3.4,2.7,15.6-3s12.9-1.9,12.9-1.9s-3.4-6.9-21.7,3.4
		C125,298.8,109.7,306.4,108.6,272.5z"/>
	<path class="st7" d="M143.2,265.6c0,0,8.4-3.8,12.9,4.3C156.1,269.9,153.6,265.1,143.2,265.6z"/>
	<path class="st7" d="M163.2,273.4c0,0,30.4,16,51.5,15.7C214.7,289.2,184.3,289.4,163.2,273.4z"/>
	<path class="st7" d="M219.5,187.7c0,0-0.2,14.7,1,32C218.3,209.2,217.9,198.4,219.5,187.7z"/>
	<path class="st7" d="M63.1,155.8c0,0-15.1-0.4-17.4,3.4s-0.8,10.8-0.6,15.4s1.3,16.7,1.3,22.1s-4,33-3,40.3s1.5,22.6,5.1,26.9
		c0,0-5.1-22.1-2-42.4s3.3-3.6,8.1,8.9s11.7,18.3,18.2,21c0,0-19.3-6.1-25.3-59.3c0,0-3.8-42.6,15-28.1c0,0-4.8-6.6-14.5-4
		C47.9,159.8,46.1,156.5,63.1,155.8z"/>
	<path class="st0" d="M107.4,202.7c0,0-6.1-23.8,16-16.7C123.4,186,105.9,179.1,107.4,202.7z"/>
	<path class="st6" d="M67.6,155.5c0,0,58.1-7.1,72.3-7.1s5.6-4.1,20.8,2.5s14,7.9,19.5,9.6s-23.8-9.9-26.6-10.9s-6.1,0.5-4.3,3.6
		c0,0-3.8-4.3-14.4-1.3s-20.5,10.6-25.4,9.4c0,0,24.6-7.6,12.9-10.1S85.9,158.6,67.6,155.5z"/>
	<path class="st13" d="M49.7,221.2c-2-8.9-1.7,14.3,0,23.4s4,12,3.4,19.4s0,10.8,4.6,5.1s0.6-5.7,4.6-8.6s13.7,3.4,5.7-5.1
		s-4.6,3.4-8-8.6S52.5,233.8,49.7,221.2z"/>
	<path class="st7" d="M59,271.9c0,0,24.1,0.8,28.2-0.5s4.6,0,6.3,0s-2.3-2.5-8.6-0.5S66.6,269.9,59,271.9z"/>
	<path class="st7" d="M218.8,271.9c0,0,8.1,25.6-13.7,22.6C205.1,294.5,223.8,296.5,218.8,271.9z"/>
	<path class="st0" d="M217,197.4c0,0-1.8,9.1,1.3,24.1C218.3,221.4,212.9,212.6,217,197.4z"/>
	<path class="st0" d="M109.7,163.6c0,0,14.7-3.8,22.6-9.9s14.5,1.8,14.5,1.8s-7.1-2-9.9,0.5S125.2,164.4,109.7,163.6z"/>
	<path class="st0" d="M51.9,165.9c0,0-11.9,20.8,7.4,67.4C59.3,233.4,44.8,190.5,51.9,165.9z"/>
	<path class="st11" d="M104.7,200.1c0,0-7.6,25.6-14.2,22.3s-18.2-7.9-20.3-0.5c0,0,5.3-7.4,22.1,3.3c0,0,6.8,4.3,9.4-9.6
		s2.5,14.7,2.5,14.7S107.4,208.3,104.7,200.1z"/>
	<path class="st6" d="M175.2,189.8c0,0,15-7.6,22.3-2.3s15.2,1.5,16.7,0.5s1.8,0.5-0.5,8.1s-5.8,14.2-5.3,23.3s-3.6,26.6-19.8,19.3
		s-10.6,6.3-18,10.9s-15.5-2.3-10.4-13.2s10.9-12.2,7.1-17.2s-4.8-3.6,3.3-8.9S168.1,195.1,175.2,189.8z"/>
	<path class="st13" d="M116.1,186.7c0,0-8.6,1.8-7.6,17.5s1.8,19.3,1.3,24.9s-1,11.4-1,17.2s-0.5,9.9,3.3,13.7s6.1,7.1,6.6,0
		s-1.3-5.1-1.8-13.2s-2.8-6.8,2.3-11.7s9.9,1.5,6.8-13.4s-10.9-16-4.3-20.5s8.6-8.4,12.7-5.1s9.9-4.3-4.6-7.9
		S116.1,186.7,116.1,186.7z"/>
	<path class="st13" d="M58.3,157.6c1.1,0.6,9.9,3.3,16,6.6s9.9,4.1,13.4,6.3s3.3,2.8,7.6,2.3s8.9,0,3.8-4.1s-8.4-2.5-8.6-5.3
		s5.8-4.6,9.4-4.6s5.6,2,5.8,0s-2.8-6.1-9.1-3.6s-5.3,2.8-12.2,3.6s-10.4-0.2-15.2-1.3S55.2,156,58.3,157.6z"/>
	<path class="st5" d="M98.3,178.6c0,0,6.3,8.1,12.4,4.6c3.7-2.1,7.9-3.4,12.2-3.6c0,0-4.3-1-15,2.8
		C108,182.4,104.4,182.7,98.3,178.6z"/>
	<path class="st6" d="M148,190.5c0,0,0.2,17,1.3,25.9s5.6,36-1.5,37.5c0,0,5.3,0,0-36c0,0-1.5-16,0.3-27.9"/>
	<path class="st0" d="M177.3,193.8l-55.9,53.6C121.4,247.4,167.1,206.3,177.3,193.8z"/>
	<path class="st0" d="M204.7,224.6l-58.2,50.2C146.5,274.8,196.7,232.6,204.7,224.6z"/>
	<path class="st0" d="M188.7,212l-22.8,18.3C165.9,230.3,171.6,228,188.7,212z"/>
	<path class="st12" d="M331.7,172.1h-0.2h-0.1c-0.2,0-0.3,0-0.5,0h-0.1h-0.1h-0.3h-0.2h-0.2H330c-27.2,6.3-54.4,10-81.6,16.3
		l0.3-0.1h0.2h0.2h0.1h0.1c0.2,0,0.3,0,0.5,0c0.1,0,0.2,0,0.3,0l91.2,11.2l81.7-19L331.7,172.1z"/>
	<path class="st5" d="M428.9,188.4c0-0.1,0-0.2,0-0.3l0,0c0,0,0-0.1,0-0.1c0-0.2,0-0.4-0.1-0.7c0,0,0-0.1,0-0.1c0-0.1,0-0.2-0.1-0.3
		l-0.1-0.3c0-0.1-0.1-0.3-0.1-0.4l-0.1-0.3c0,0,0,0,0-0.1c-0.1-0.2-0.1-0.4-0.2-0.5c0,0,0-0.1,0-0.1l-0.2-0.5l-0.1-0.2
		c-0.1-0.2-0.2-0.3-0.3-0.5V184l0,0c-0.1-0.1-0.1-0.2-0.2-0.3l-0.2-0.3c-0.1-0.1-0.2-0.2-0.2-0.3c-0.1-0.1-0.1-0.1-0.2-0.2l0,0l0,0
		c-0.2-0.2-0.3-0.3-0.5-0.5l-0.1-0.1l-0.2-0.1l-0.3-0.2l-0.1-0.1l-0.2-0.1l-0.2-0.2l-0.1-0.1l-0.3-0.1l-0.2-0.1l0,0l-0.5-0.2l0,0h0
		c-0.1,0-0.3-0.1-0.4-0.1h-0.1l-0.2-0.1l-0.3-0.1h-0.2l-81.7,19l0.5,0.1h0.2l0.5,0.2l0,0c0.2,0.1,0.4,0.2,0.5,0.2l0.2,0.1l0.3,0.2
		l0.2,0.1l0.3,0.2l0.3,0.2l0.2,0.2c0.2,0.2,0.3,0.3,0.5,0.5l0,0.1c0.1,0.1,0.1,0.2,0.2,0.2l0.2,0.3c0.1,0.1,0.1,0.2,0.2,0.3l0.2,0.3
		c0,0,0,0.1,0,0.1l0.3,0.5l0.1,0.2c0.1,0.1,0.1,0.3,0.2,0.5s0,0.1,0,0.1s0.1,0.4,0.2,0.6s0.1,0.2,0.1,0.3s0.1,0.2,0.1,0.4
		s0,0.2,0.1,0.3s0,0.2,0.1,0.4s0.1,0.5,0.1,0.7c0,0.1,0,0.1,0,0.1c0,0.1,0,0.3,0,0.4c0,0.1,0,0.2,0,0.4v111c0,0.2,0,0.4,0,0.6
		s0,0.3,0,0.4s-0.1,0.5-0.1,0.8c0,0.2-0.1,0.4-0.1,0.5v0.1l-0.1,0.5l-0.1,0.1l-0.2,0.4l-0.1,0.2l-0.2,0.4l-0.1,0.2l-0.1,0.1
		c-0.1,0.1-0.1,0.2-0.2,0.3l-0.1,0.1c-0.1,0.1-0.2,0.2-0.3,0.4l-0.1,0.1c-0.1,0.1-0.2,0.2-0.3,0.3l-0.1,0.1l-0.2,0.2l-0.1,0.1
		l-0.2,0.2l-0.1,0.1l-0.3,0.1l-0.1,0.1l-0.3,0.1l-0.1,0c-0.1,0.1-0.3,0.1-0.4,0.1c27.2-6.3,51-22.2,78.2-28.5l0.4-0.1l0.1,0l0.3-0.1
		l0.2-0.1l0.2-0.1l0.2-0.1l0.2-0.1l0.2-0.1l0.2-0.2l0.1-0.1l0.3-0.3l0.1-0.1l0.3-0.3l0,0L424,295c0.1-0.1,0.2-0.2,0.2-0.3
		c0,0,0.1-0.1,0.1-0.1l0.1-0.1c0,0,0-0.1,0-0.1s0.1-0.3,0.2-0.4l0.1-0.1v0c0.1-0.1,0.1-0.3,0.2-0.4c0,0,0-0.1,0-0.1l0,0
		c0-0.1,0.1-0.3,0.1-0.5v-0.1l0,0l0.1-0.3c0-0.1,0-0.2,0.1-0.3s0.1-0.4,0.1-0.6c0,0,0-0.1,0-0.1s0-0.3,0-0.5l0,0c0-0.2,0-0.4,0-0.6
		l3.4-101.4v-0.1C428.9,188.6,428.9,188.5,428.9,188.4z"/>
	<path class="st6" d="M341.3,199.6c3.3,0.5,6,4.2,6,8.2v111c0,4.1-2.8,7.2-6.1,6.7l-91.3-11.2c-3.3-0.5-6-4.2-6-8.2v-111
		c0-4.1,2.8-7.2,6.1-6.7L341.3,199.6z"/>
	<path class="st5" d="M251.4,311.1c0,0,19.8-9.6,26.4-16.2s18.5-8.4,23.3-9.4s22.1-16.7,25.1-19.8s17.2-2.5,18.5,1.8
		s1.3,5.6,1.3,12.4s0.3,9.9,0.3,15s-1.5,10.4-1.3,16s3,6.9,0.2,10.4s-3.5,3.3-11.9,1s-20.3-2.8-24.4-5.1s-11.7-3.8-18.8-3
		s-8.9,2.5-16.7,1.3S245.4,316.4,251.4,311.1z"/>
	<path class="st14" d="M321.3,205.6c0,0-3.1,3.8-1.6,13.7c1,6.5,1.5,13.1,1.5,19.8c0,3,1.1,9.1,1.1,15.6c0,6.5,9.1,5.3-1.9,13.3
		s-13.7,11.8-20.9,14.5s-13.3,3.8-21.3,10.3s-28.1,16.4-28.1,16.4s-5.6-30-6.2-47.9c-0.9-26.7,0-29.9,0-40.6s0.7-11.2-0.3-22.6
		c-0.9-10.8,2.7-8.7,17.9-5.7s15.6,3,27.8,3.4s15.2,0,20.5,0.4s14.5-1.1,14.8,2.7S321.3,205.6,321.3,205.6z"/>
	<path class="st6" d="M318.5,219.2c0,0,1.9,16.4,1.9,25.2s0.5,12.3,0.4,16.7c-0.1,3.8,2.3,0.4-2.7,4.6s-15.9,13.2-29.4,19.5
		C281.8,288.5,258,305,258,305s1.4,0,9-10.3s18.4-15.2,25.3-23.6s12.1-8.5,15.9-16.9s6-20.1,7.5-23.5s-3.7-12.4,2.4-19.6
		S318.1,207.8,318.5,219.2z"/>
	<path class="st7" d="M329.9,200.3c0,0,13.3-1.7,15.4,11.2s-1.1,14.3-1,19.8s1.1,15.8-2.7,23.2c-3.8,7.4-5.5,16.9-21.5,24.3
		s-18.4,12.7-20,17.5c0,0,12.4-14.5,28.5-17.9s11.2-10.3,13.3-15.2s3.2-1.5,3.2,2.1s-1,12.4-0.2,15.8s0.8,6.3,1.1,11.6
		s1.7,22.4,1,27.8s3-25.5,1.1-40.5s0-25.9,0.8-35s-0.2-19.6,0.2-23.6s-2.9-21.7,5.5-23.2s14.1-1.3,24.1-3.8s12.5-2.3,16.5-4.8
		s28.8-11.3,32.4-5c0,0-1.6-5.7-12-4.7s-21.7-2.5-27.4-2.5c10.3,2.1,20.7,3.2,31.2,3.4c0,0-15.7,2.3-23,5.7
		c-5.5,2.6-7.4,2.7-18.5,5.1c-8,1.8-24.7,6.8-40.5,6.3s-45.3-6.8-55-6.8c-7.2-0.1-14.4-0.6-21.5-1.5c7.4,1.9,15,2.9,22.6,3
		c11.2,0,32.5,4.4,33.1,6.3s-5.1,10.3-15.8,11.6s-12.6,0.4-16,7.8c0,0,4.2-7,15.2-5.3s10.5-2.7,15.4-5.3S320,200.3,329.9,200.3z"/>
	<path class="st7" d="M347.2,320.5c0,0-0.6,7.4-11.9,4.6s-17.9-1.1-20.4-2s-16.1-3-29.9-4.2s-33-0.8-38.3-6s-2.5-32.8-0.9-35
		c0,0-4.9,26.9,0.4,28.8c0,0,5.9,3-2.1-35.8c0,0,8.6,24,4,38.8c0,0-4,4,12.6,5.1s40.5,0.6,44.5,3.4S345.9,326.2,347.2,320.5z"/>
	<path class="st6" d="M361.8,263.4c0,0,24.8,0.4,30.8,0.4s17.2-1.6,19.6,1.6s3.2,5.6,5.2,7.2s5.6-0.8,3.2,8.4s-6,10.4-18.8,14.4
		s-18.4,4.4-22,7.6s-11.6,11.6-17.2,6.8s-8-26-8.4-33.2S355.8,262.6,361.8,263.4z"/>
	<path class="st7" d="M426.9,183.6c0,0,6.5,2.5,0.8,35.2c0,0,4-35.9-8.5-36.5C419.1,182.2,422.4,179.9,426.9,183.6z"/>
	<path class="st13" d="M380.5,195.3c-4.5,0.3-19.4,4.6-24.3,4.6s-5.5,2.1-5.5,9.1s0,4.4,1.3,13.1s2.9,4.6,1.1,12.4
		c-1.3,5-1.8,10.1-1.7,15.2c0,5,0.3,40,1.6,44.9c1.2,3.7,2.8,7.2,5,10.4c0,0-3.5-49-1.2-57.2s5.3-15.4,3-22.4s-4.9-4.4-1.7-11
		s1.1-8.2,8-9.3s8,0,13.1-3.6S391.5,194.6,380.5,195.3z"/>
	<path class="st7" d="M346.5,324.5c0,0,21.8-6.6,25.1-8.9s6.1-3,8.4-3s6.9-3,10.4-4.8s10.1-5.6,14.2-6.1s22.1-2.5,21-12.4
		s2.5-42.9,1.5-55.5c0,0-0.8,21.3-2.3,31.4c-1.5,10.1-7.1,5.6-8.9-2.8c0,0-0.8,6.1,6.3,13.7c0,0,5.1,9.9-0.2,15.7s-7.1,5.6-11.9,5.8
		s-8.4,2.3-11.7,3.5s-4.8,4.1-9.9,5.3s-4.8,4.3-9.9,4.3S359,320.5,346.5,324.5z"/>
	<path class="st6" d="M397.8,190.9c0,0,22.6-11.4,25.1-4.8s3.5,13.9,3.5,33.7s-2,29.9-5.8,26.1s-3.8-2-3-16s4.8-16.5,1.8-23.3
		s-1.8-9.6-6.1-11.6s-6.6,7.6-13.4,4.1S392.7,193.2,397.8,190.9z"/>
	<path class="st0" d="M348.3,262.7c0,0,2,23.1,2.3,31.9s0,19.5-0.8,23.1s3,3.3,4.1,2.3s3-4.3,6.3-5.6s-2.8-1.3-5.3-8.9
		s-3-6.1-3-14.2S350.3,269,348.3,262.7z"/>
	<path class="st0" d="M248.6,301.1c0.1,3.8,0.7,11.4,4.5,11.8c3.8,0.4,25.9,0,30.4,1.1s26.8,4.1,36.1,5.7c6.6,1,13.2,1.3,19.9,0.9
		c-6.3-2.1-12.8-3.6-19.4-4.6c-8.8-1.3-21.8-1.8-35.5-4.1c-11.6-1.9-10.4,1.3-23-2.9s-11.6-29.4-11.6-29.4S248.2,282.8,248.6,301.1z
		"/>
	<path class="st0" d="M344.4,265c0,0-0.8,11.8,0.8,32s-4.4,24.2-4.4,24.2s4.8-10.5,2.1-29.9S342.1,271,344.4,265z"/>
	<path class="st9" d="M352,199.1c0,0-4.2,7.2-2.3,28.1c0,0,0.8,14.8-1.1,26.6c0,0,0-24-1.1-37.3S352,199.1,352,199.1z"/>
	<path class="st9" d="M348.2,324.3c0,0,20.2-5.3,25.8-10.6C374,313.6,356.9,321.6,348.2,324.3z"/>
	<path class="st9" d="M418.2,179.8c0,0,14.5-2.3,11.8,19.4C430,199.1,430.7,181.3,418.2,179.8z"/>
	<path class="st9" d="M426.7,255.8c0,0-1.3,22.4-1.1,30c0,0,2.3,9.7-8.4,13.3c0,0,9.5-3,7.6-15.8S426.3,267,426.7,255.8z"/>
	<path class="st9" d="M319.6,195.7c0,0,24.4,5.5,43.4-1.3C363,194.4,345.5,203.1,319.6,195.7z"/>
	<path class="st9" d="M342.1,263.2c0,0,3,16.5-15.2,15.4C326.9,278.6,342.1,277.1,342.1,263.2z"/>
	<path class="st15" d="M277.8,182.6c0,0,24.5-6.1,28.7-6.3s20.7-4.2,23-4.8s3.4-0.4,15.4,1.3s46.3,3.1,58.6,6c0,0-56-4.6-69.7-6.3
		s-7.4,12-3,12.4c0,0-11-1.3-6.6-10.8C324.2,174,299.1,178,277.8,182.6z"/>
	<path class="st5" d="M297.6,191.9c0,0,21.6,2,26.1,3s13.7,1.3,17.5,1.8s14.5-0.8,23.3-4.8s0.7-2.7,0.7-2.7s-17.5,4.4-26.1,3.2
		s-39-6.2-44.6-3.6S294.5,191.7,297.6,191.9z"/>
	<path class="st5" d="M330.3,173.4c0,0-7.1,4.3,0.8,9.6s15.3-0.8,11.7-2c-20.5-7.2,2-4.1,7.9-2.5s11.1,0,3.8-1.3
		S334.1,172.1,330.3,173.4z"/>
	<path class="st0" d="M368,192.1c0,0,8.7-1,11.5-1.2s10.8-2.7,16.7-5.3c4.6-1.9,9.3-3.3,14.2-4.3c0.8,0-7.6,0.6-11.1,0.9
		s-9.9,5.5-13.5,5.2S368,192.1,368,192.1z"/>
	<path class="st7" d="M263.6,304.2c-0.6,2.5,2.3-2.3,7.6-5.1s8.1-7.1,11.2-8.4s8.1-2,14.2-4.1s19-9.6,22.1-13.7s5.3-7.6,8.1-8.6
		c0,0-6.3,4.1-8.9,6.8s-5.3,5.1-7.9,6.1s-6.1,5.3-12.4,6.6s-19.5,6.6-22.8,10.6S264.4,301,263.6,304.2z"/>
	<path class="st0" d="M253.5,194c2.4,0.1,19.7,1.1,27.4,2.9s32.9,3.3,32.9,3.3s-25.6-0.3-32.9-0.3c-8.2-0.2-16.3-1-24.4-2.3
		c-4.4-0.7-6.2,0.8-8,6.1s-0.8,9.6-2.3,12.9s-1.4-18.6,0.6-20.6S249,193.7,253.5,194z"/>
	<path class="st7" d="M275.1,182.8c0,0-20.5,4.6-25.1,4.9s-11,3.1-6.5,18.6c0,0,1.5,14.1,0,22.1c0,0,2.7-7.6,0-30.4
		c0,0,4.2-11,13.3-6.5c0,0,8.4,0.4,11,0.8c0,0-10.6-1.2-14.4-3.5C253.5,188.8,263.7,185.8,275.1,182.8z"/>
	<path class="st0" d="M362.6,309.9c3.2,0.2,6.5-0.2,9.6-1.2c5.2-1.6,4-0.8,10-4s6.4-4,10.8-5.6s23.6-1.6,24.8-4.8s4.8-1.6,3.2-9.2
		s-6.4-16-6.8-8.4s6.8,3.6-0.4,10.4s-0.8,6.8-9.6,6.8s-13.6-2-18,3.6S353.8,305.1,362.6,309.9z"/>
	<path class="st0" d="M394.2,205.2l-35.4,84.4C358.8,289.6,381.6,237.1,394.2,205.2z"/>
	<path class="st0" d="M412.2,210.2L395.7,252C395.7,252,411.4,215.8,412.2,210.2z"/>
	<path class="st0" d="M408.9,259.4L398,285.5C398,285.5,408.1,262.9,408.9,259.4z"/>
	<path class="st0" d="M295.1,201.1l-33.2,49.4C261.8,250.5,294,204.1,295.1,201.1z"/>
	<path class="st0" d="M334.6,206.4l-28.9,52.7C305.7,259.1,333.1,212,334.6,206.4z"/>
	<path class="st0" d="M315.9,265.5L283.6,305C283.6,305,313.1,269.5,315.9,265.5z"/>
	<path class="st7" d="M250.2,186.9c0,0,29.4-7.4,34.2-7.1s16,2.5,19,2.8s-4,2.5-13.7,2.8s-25.1,2-32,2.3S243.8,189.6,250.2,186.9z"
		/>
	<path class="st9" d="M243.5,206c0,0-1.8-11.1,1.1-12s24.7-2.7,24.7-2.7s39-2.5,44.5-4.2l-47.3,2.4l-21,1.5l-3.2,2.3
		C242.4,193.4,240.3,198.4,243.5,206z"/>
	<path class="st9" d="M248.4,187.2c0,0,29.5-8,36.3-7.7c6.3,0.4,12.5,1.3,18.6,2.7c1.4,0.4,6.1,0.6,4.8,0.8s-15.3-2.5-17.9-2.5
		s-2.7-0.2-6.2-0.1S253.4,187.1,248.4,187.2z"/>
	<path class="st10" d="M208.6,195.9l-62.2-26.5c-2.4-1.1-3.8-3.4-3.7-6l62.2,26.5C204.7,192.4,206.2,194.8,208.6,195.9z"/>
	<path class="st5" d="M254,41.2c-0.9-0.4-2-0.5-3-0.5l-100.7,9.6l62.2,26.5l100.7-9.6c1-0.1,2.1,0.1,3,0.4L254,41.2z"/>
	<path class="st6" d="M150.3,50.3l-0.6,0.1h-0.2c-0.1,0-0.3,0.1-0.4,0.1l-0.2,0l-0.4,0.2l-0.1,0.1l0,0l-0.5,0.2l-0.1,0.1l-0.4,0.3
		l-0.1,0.1l-0.4,0.3l-0.1,0.1l-0.1,0.1l-0.4,0.3l-0.1,0.1c-0.1,0.1-0.3,0.3-0.4,0.4l-0.1,0.1l-0.2,0.2l-0.1,0.1l-0.2,0.2
		c-0.1,0.1-0.2,0.2-0.2,0.3l-0.2,0.2c-0.1,0.1-0.1,0.2-0.2,0.3l-0.1,0.3c-0.1,0.1-0.1,0.2-0.2,0.3l-0.1,0.3
		c-0.1,0.1-0.1,0.2-0.1,0.4l-0.1,0.3c0,0.1-0.1,0.3-0.1,0.4l-0.1,0.3c0,0.2-0.1,0.3-0.1,0.5v0.2c0,0.2,0,0.5,0,0.7l-0.8,105.3
		c0.2,1.3,0.5,2.6,1.1,3.8c0.8,0.9,1.7,1.6,2.7,2.3l62.2,26.5c-0.6-0.2-1.1-0.6-1.5-0.9c-0.4-0.4-0.8-0.8-1.2-1.3
		c-0.3-0.5-0.6-1-0.8-1.6c-0.2-0.7-0.3-1.4-0.3-2.1l0.8-105.3c0-0.2,0-0.5,0-0.7v-0.2c0-0.2,0-0.3,0.1-0.5l0.1-0.3
		c0-0.1,0.1-0.3,0.1-0.4l0.1-0.3c0.1-0.1,0.1-0.3,0.1-0.4l0.1-0.3c0-0.1,0.1-0.2,0.2-0.3c0-0.1,0.1-0.2,0.1-0.3l0.2-0.3
		c0.1-0.1,0.1-0.2,0.2-0.2c0.1-0.1,0.1-0.2,0.2-0.3l0.2-0.2l0.3-0.4l0.1-0.1c0.1-0.2,0.3-0.3,0.4-0.4l0.1-0.1
		c0.1-0.1,0.2-0.2,0.4-0.3l0.1-0.1c0.2-0.1,0.3-0.2,0.5-0.4l0.1-0.1l0.4-0.3l0.1-0.1c0.2-0.1,0.4-0.2,0.6-0.3l0.1-0.1l0.4-0.2
		l0.2-0.1c0.1,0,0.3-0.1,0.4-0.1l0.2-0.1c0.2,0,0.4-0.1,0.6-0.1L150.3,50.3z"/>
	<path class="st5" d="M313.1,67.2c3.4-0.3,6.4,2.2,6.7,5.6c0,0.3,0,0.6,0,0.9L319.1,179c0,3.9-2.9,7.2-6.9,7.8l-100.7,9.5
		c-3.4,0.3-6.4-2.2-6.7-5.6c0-0.3,0-0.6,0-0.9l0.8-105.3c0-3.9,3-7.2,6.9-7.8L313.1,67.2z"/>
	<path class="st5" d="M149.8,55.8c0,0-4-0.2-4.6,6.6s1.8,27.4,0.8,32s-2.8,52-1.3,58.3c1.1,4.2,2.8,8.2,5.1,11.9
		c0,0-4.6-6.3-5.6-9.4c0,0-1.5,8.6,2.3,12.7s16,4.8,19.3,7.6s37,19.5,37.3,16s0.5-12.7-3.6-20s-14.2-20.5-16-35.5
		c0,0,6.8,26.1,18.2,27.4c0,0,4.3,1-7.4-44.6c0,0-2.5-19.3,7.1-23.3c0,0,5.8-3,0.2-17.2c0,0-2.8-4.8-15.5-3.8s-17.2-3.7-23-10.5
		S151.3,56,149.8,55.8z"/>
	<path class="st6" d="M193.9,164.5c0,0-27.9,0.8-31.4,1s-14.4-2.3-14.4-0.7s-0.1,2.7,2.9,4.6c2.7,1.5,5.7,2.4,8.7,2.7v-4
		c2.6,1,4.8,2.9,6.3,5.2c2.3,3.8,5.2,2.6,13.8,6.4s6.8,3.4,12.7,6.2s10.1,5.8,10.1,0.5S196.7,168.3,193.9,164.5"/>
	<path class="st11" d="M167.5,62.3c0,0,5.3,7.4,17,7.4s19.3,6.3,19.8,10.9s0.5,15,1.3,18s-1,8.1-1,16.7s-2.3,19.8-0.8,34.2
		s1.3,40.3-0.5,42.6s8.4,5.1,12.2,3.6c0,0-9.1-2-8.9-11.4s-1.3-33.5-1.5-38.8s0.5-23.3,1.5-27.6s1-26.4,0-31.4s4.6-9.9,10.1-9.4
		s13.2,4.6,28.9,3.8c0,0-17.5-1.3-20-5.1s27.1-2,30.7-1.8c3.6,0.2,37.5-1.5,47.4-4.8s16,1,16,3.8c0,0,3.3-3.8-12.9-9.4
		s-25.6-12.7-34.7-15c0,0,13.7,6.1,16.7,8.6s15.2,8.6,21,9.1s-38,4.3-46.1,4.1s-33.5-1-50.2,2c0,0-4.6,1.5-11.7-1.3
		s-10.9-2.8-16.7-3.3S175.9,67.7,167.5,62.3z"/>
	<path class="st11" d="M146.4,169.4c0,0,20.3,9.1,23.4,10.6s29.4,14.4,38,15.5l-2.8-7.4c0,0-3,6.3-13.9-0.8s-17.7-8.3-22.1-9.1
		s-8.4-6.3-8.4-9.4c0,0-1,4.3,1.8,6.6C162.4,175.4,150.7,170.4,146.4,169.4z"/>
	<path class="st13" d="M213.2,80.1c0,0-4.3,2.3-3.3,14.5s1,21-0.2,28.4c-1.2,7.4-2.5,11.1-1.5,19.8s2.5,18.3,2.5,18.3
		s0.8-15.8,2.3-24.1s3.2-17.5,9.6-22.3s20.2,0.8,22.6-10.1c2.6-11.6,1.4-5.4,1.4-15.4c0-9.1-2.4-5.6-12-5.6S222.8,76.8,213.2,80.1z"
		/>
	<path class="st12" d="M314.4,182.2c0,0-54.8-12-60.5-21.7c0,0-6.3-4.6-16-1.1s-30.2,4-30.2,4s-2.9,28,8.6,30.8s18.2-6.9,57.6-5.1
		C273.9,189.1,310.4,186.2,314.4,182.2z"/>
	<path class="st12" d="M310.5,69.2c0,0,7.6-1,7.9,7.9s-7.6,25.9-8.1,39.3s-8.1,21.8-21.5,18.3c0,0,21,8.9,23.3-16.7s4.6,5.1,4.8,9.6
		c0.2,4.6-1.8,13.2-2.8,22.1s-2,15,0.2,19s5.8,15-4.1,18.5c0,0,12.4,1.5,8.6-17.8s-1.5-26.6,0.3-31.4s3.3-11.2,1-36.8
		s5.3-33.7-9.9-32.5"/>
	<path class="st12" d="M320.9,130.6c0,0-2.3,24.9-1.5,30.4C319.4,161,316.6,142.5,320.9,130.6z"/>
	<path class="st0" d="M230.6,74.5c0,0,16.5-1.3,23.3,0.5c6.9,1.8,42.6-2.3,45.4-3.8s8.9-1.8,10.9-0.2s3,8.9-9.1,5.3
		s-25.4,2.3-30.9,3c-6.9,0.7-13.8,0.2-20.5-1.5c-7.4-1.8-8.9,1.5-13.9,0S225.1,76.5,230.6,74.5z"/>
	<path class="st0" d="M314.1,113.3c0,0,2.3,26.1-2.5,40.3s-1,14.2,1.5,18.5s4.6,8.1-0.8,7.6s-7.9,0.2-7.6-6.3s4.8,4.3,5.8,1
		s-3.3-4.3-4.1-8.4s2-6.8,2.8-12.9S313.8,143.7,314.1,113.3z"/>
	<path class="st13" d="M243.6,79.3c0,0,5.6-1.8,5.6,9.6s-0.8,7.3,0.2,18.8s1.3,16.5,2.3,22.8s-2,21.8-6.1,13.7c0,0-1,5.6,1.3,5.6
		s4.8,6.3,0.8,5.8s-15.6-6.1-17.1-0.5s-2.8,5.1-9.9,5.3s-4.2,0.8-7.7,1.5c0,0,6.5-1,9,0.2s9.4,0,11.4-2.5s9-0.8,12.6-1.3
		s8.9,0.8,10.7,3.6s28.6,17.2,55.5,19.8c0,0-41.1-9.6-47.4-18.2s-1.5-5.3-7.6-8.4s-1.8-13.2-1.8-16.2c-0.3-6.9-1.2-13.8-2.5-20.5
		c-1.5-7.3,8.4-15,14.5-20.3s4.3-7.1,4.3-10.7c0,0,1.3,5.6-7.9,10.9s-12.4,6.1-12.4-3.8S249.7,77.8,243.6,79.3z"/>
	<path class="st7" d="M209,165.7c0,0-5,21.3,9.5,27.8c0,0,3.4,2.7,15.6-3s12.9-1.9,12.9-1.9s-3.4-6.8-21.7,3.4
		C225.3,191.9,210.1,199.5,209,165.7z"/>
	<path class="st7" d="M243.6,158.7c0,0,8.4-3.8,12.9,4.3C256.5,163,254,158.2,243.6,158.7z"/>
	<path class="st7" d="M263.6,166.6c0,0,30.4,16,51.5,15.7C315.1,182.3,284.7,182.5,263.6,166.6z"/>
	<path class="st7" d="M319.9,80.8c0,0-0.3,14.7,1,32C318.6,102.3,318.3,91.5,319.9,80.8z"/>
	<path class="st7" d="M163.4,48.9c0,0-15.1-0.4-17.4,3.3s-0.8,10.8-0.6,15.4s1.3,16.7,1.3,22.1s-4.1,33-3,40.3s1.5,22.6,5.1,26.9
		c0,0-5.1-22.1-2-42.3s3.3-3.6,8.1,8.9s11.7,18.2,18.3,21c0,0-19.3-6.1-25.4-59.3c0,0-3.8-42.6,15-28.2c0,0-4.8-6.6-14.4-4.1
		C148.2,53,146.5,49.7,163.4,48.9z"/>
	<path class="st13" d="M176.9,76.6c0,0,16,0.2,19,0.5s4.1,2,4.3,8.4s3.6,5.8-2,10.7s-5.6,11.7-5.4,16c0.1,4.7,0.6,9.3,1.6,13.9
		c1.3,5.6,7,30.5,7,30.5s-5.9-14.3-7.1-19.1s-4.8-15.3-4.1-21.4s2.7-6.3-0.1-11.3s-2.8-6.6,1.2-11.1s9.7-9.7,5.1-12.4
		S176.9,76.6,176.9,76.6z"/>
	<path class="st13" d="M160.2,52.7c0,0,9.8,7.1,15.4,8.3s7.7,2.8,12.2,4.3s14.7,2.5,16,4.6s8.9,1.8,15.2,0s30.5-2.8,30.5-2.8
		s-23.2-2.8-31-2.3s-23.3-4.1-34-4.6S155.3,45.9,160.2,52.7z"/>
	<path class="st0" d="M207.8,95.8c0,0-6.1-23.8,16-16.7C223.8,79.1,206.3,72.2,207.8,95.8z"/>
	<path class="st6" d="M168,48.7c0,0,58.1-7.1,72.3-7.1s5.6-4.1,20.8,2.5s13.9,7.9,19.5,9.6s-23.8-9.9-26.6-10.9s-6.1,0.5-4.3,3.5
		c0,0-3.8-4.3-14.5-1.3s-20.5,10.7-25.4,9.4c0,0,24.6-7.6,12.9-10.1S186.3,51.7,168,48.7z"/>
	<path class="st6" d="M285.2,56.8c0,0,8.6,5.8,13.7,7.4s0.8,1.8-10.4,2.8s-17.7,0.2-27.1,2s-9.9,0-7.9-2.5s2.8,0.2,6.6,0.5
		s0.3,0.5,8.9-0.8s19.3,0.5,15.5-3s-4.1-1.5-8.4-3.5s-6.6-3.8-5.6-4.6s3.3-1.5,6.9,1S288,60.3,285.2,56.8z"/>
	<path class="st13" d="M150.1,106.7c-2-8.9-4.1,13.4-4.3,22.4c-0.2,9.3,3.6,20.4,3,27.8s1.7,8.9,4.6,6.1c5.2-5.1,2.2-10.4-1.3-22.3
		S152.9,119.2,150.1,106.7z"/>
	<path class="st7" d="M159.4,165c0,0,24,0.3,28.1-0.5s5.6,1.1,7.4,1.1s-3.3-3.6-9.7-1.6S167,163,159.4,165z"/>
	<path class="st7" d="M319.1,165c0,0,8.1,25.6-13.7,22.6C305.5,187.6,324.2,189.6,319.1,165z"/>
	<path class="st0" d="M317.4,90.5c0,0-1.8,9.1,1.3,24.1C318.6,114.6,313.3,105.7,317.4,90.5z"/>
	<path class="st0" d="M210.1,56.8c0,0,14.7-3.8,22.6-9.9s14.4,1.8,14.4,1.8s-7.1-2-9.9,0.5S225.6,57.5,210.1,56.8z"/>
	<path class="st0" d="M152.3,59c0,0-11.9,20.8,7.4,67.4C159.6,126.5,145.2,83.7,152.3,59z"/>
	<path class="st0" d="M273.2,92.3l-56.3,51C217,143.3,264.1,102.9,273.2,92.3z"/>
	<path class="st0" d="M302.9,143.2l-41.8,32C261.1,175.2,289.2,156.2,302.9,143.2z"/>
	<path class="st0" d="M302.9,96.8l-52.5,51.7C250.4,148.6,295.3,106.7,302.9,96.8z"/>
	<path class="st9" d="M146.4,169.4l23.4,10.6C169.8,180,155,177.2,146.4,169.4z"/>
	<path class="st12" d="M494.4,199.9l0.1,0.1h0.1l0.3,0.2h0.1l0,0l0.1,0.1l0.2,0.1l0.1,0.1l0.1,0.1l0.1,0.1
		c16.4,15.4,33.8,28.9,50.2,44.2l-0.2-0.2l-0.1-0.1l-0.2-0.1l-0.1-0.1h-0.1l-0.3-0.2l-0.2-0.1l-68-28.9l-49.2-46.1L494.4,199.9z"/>
	<path class="st5" d="M420.2,172.2l0.1-0.2l0,0l0.1-0.1c0.1-0.1,0.2-0.3,0.3-0.4v-0.1l0.2-0.2l0.2-0.2l0.2-0.2l0.2-0.2l0,0l0.4-0.3
		l0.1-0.1l0.4-0.2l0.1-0.1l0.4-0.2h0.1l0,0l0.3-0.1l0.2-0.1l0.3-0.1l0.2-0.1h0.2l0.5-0.2h0.1c0.1,0,0.1,0,0.2,0h0.3h0.1h0.2h0.2h0.4
		h0.4l0,0l0.4,0.1h0h0.2l0.2,0.1l0.1,0.1l49.2,45.9l-0.4-0.1h-0.2l-0.5-0.1l0,0h-0.5h-0.5h-0.2h-0.3h-0.3l-0.2,0.1l-0.5,0.2h-0.1
		c-0.1,0-0.2,0.1-0.2,0.1c-0.1,0-0.2,0.1-0.3,0.1l-0.2,0.1c-0.1,0-0.2,0.1-0.3,0.1H472l-0.4,0.2l-0.1,0.1c-0.1,0.1-0.2,0.1-0.3,0.2
		l-0.1,0.1l-0.4,0.3l-0.2,0.2l-0.2,0.2c-0.1,0.1-0.1,0.1-0.2,0.2l-0.2,0.2c-0.1,0.1-0.2,0.3-0.3,0.4l-0.1,0.1l-0.2,0.3l-0.2,0.2
		l-44.6,77.2c-0.1,0.1-0.2,0.3-0.2,0.4c0,0.1-0.1,0.2-0.1,0.3s-0.2,0.4-0.2,0.6s-0.1,0.3-0.1,0.4s0,0,0,0.1s-0.1,0.3-0.1,0.4
		s0,0.1,0,0.1s0,0.2,0,0.4v0.1c0,0.1,0,0.2,0,0.4v0.2c0,0,0,0.1,0,0.1v0.3c0,0,0,0.1,0,0.1s0,0.3,0.1,0.4c0,0,0,0,0,0.1l0.1,0.3
		c0,0,0,0.1,0,0.1l0.1,0.2l0.1,0.1l0.1,0.2c0,0,0,0.1,0.1,0.1l0.1,0.2c0,0,0.1,0.1,0.1,0.1l0.2,0.2l0.1,0.1l0.3,0.3
		c-16.4-15.4-26.6-36-43-51.3l-0.3-0.3l-0.1-0.1l-0.1-0.2c0,0-0.1-0.1-0.1-0.1l-0.1-0.2l-0.1-0.1l-0.1-0.2l-0.1-0.1l-0.1-0.2
		c0,0,0-0.1,0-0.1c0-0.1-0.1-0.2-0.1-0.3c0,0,0,0,0-0.1c0-0.1,0-0.2-0.1-0.4l0,0c0,0,0-0.1,0-0.1V248c0,0,0-0.1,0-0.1s0-0.1,0-0.1
		v-0.1c0-0.1,0-0.2,0-0.4c0,0,0-0.1,0-0.1l0,0c0-0.1,0-0.2,0-0.4s0-0.1,0-0.1l0,0c0-0.1,0-0.3,0.1-0.4s0-0.1,0-0.1l0,0
		c0-0.1,0-0.1,0.1-0.2l0.1-0.2c0-0.1,0.1-0.3,0.2-0.4l0-0.1c0-0.1,0.1-0.2,0.2-0.4l0,0c0.1-0.1,0.1-0.3,0.2-0.4l38.5-71.9l0,0
		C420,172.3,420.1,172.2,420.2,172.2z"/>
	<path class="st6" d="M476.6,215.2c-2.5-1-5.8,0.5-7.5,3.3l-44.6,77.2c-1.7,2.9-1,6.1,1.6,7.2l68,28.9c2.5,1,5.8-0.5,7.5-3.3
		l44.7-77.2c1.7-2.9,1-6.1-1.6-7.2L476.6,215.2z"/>
	<path class="st6" d="M542,243c0,0,9.4,0.1,0.6,14.9c-9.4,15.7-8.8,14.3-10.9,18.4c-2.8,5.4-7.2,12.4-9.2,15.8s-17.5,45-29.2,39.6
		l-9.7-7L542,243z"/>
	<path class="st5" d="M494.2,328.9c0,0-9.9-14.7-11.8-21.9s-9.5-13.3-12.4-15.9s-8.6-20.5-9.5-23.9s-11-8.7-13.6-6.2
		s-3.1,3.4-5.9,8.1s-4.1,6.8-6.2,10.3s-3.1,7.9-5.5,11.6s-4.9,3.5-4.4,7.1s1.1,3.7,7.9,5.5s15.2,6.2,19,6.3s9.6,2,14.3,5.4
		s5.2,5.3,11.1,7.6S496.3,335.1,494.2,328.9z"/>
	<path class="st5" d="M468.1,220.1c0,0-0.9,4.8-6.3,10.8s-4.8,6.8-6,8.9s-1.3,7-3.9,11.5s-9.7,10-2.4,21.6s3.7,3.1,9.5,9
		s11.1,10,16.1,18.8s20.1,26.8,20.1,26.8s15-18.4,22.3-31.1c6.9-12,9.8-17,14.1-24.4s4.3-7.4,6.8-15.1c2.8-8.6,8.5-10.6-7.1-16.8
		s-16-6.4-27.7-12.9s-12.9-5.1-18.1-7.7s-12.8-10.1-14.6-7.7S468.1,220.1,468.1,220.1z"/>
	<path class="st7" d="M484.2,220.3c0,0-8.6-6.6-15.2,1.6s-5,10.4-7.3,14.1s-7.1,10.5-7.5,17.2c-0.3,6.7-3,14,5.1,25.6
		s7.7,16.3,6.9,20.2c0,0-2.8-15-12.6-23.9s-3.7-11.6-3.1-15.9s-1.6-2.4-3.1,0.2s-4.3,9-6.2,11.1s-3.1,4-5.5,7.6
		s-10.2,14.9-11.8,18.9s8.2-18.9,15.5-28.6s10.4-18,13.5-24.6s8-13.5,9.4-16.5s10.7-13.9,5.5-18.4s-9.2-6.6-15.3-12.4
		s-7.8-6.6-9.6-10S427.4,167,422.3,170c0,0,3.4-3.3,10.3,1.6s16.1,7,20,9.3c-8-2.7-15.7-6.1-23.1-10.2c0,0,8.9,8.9,13.7,13.2
		c6.3,5.7,6.5,7.4,10.8,11c5,4.2,14.4,14.7,25.6,20.7s34.2,13.4,41,17.4c5,2.8,10.2,5.4,15.6,7.6c-5.9-1.7-11.6-4-17-7
		c-7.8-4.5-24.4-10-25.5-8.9s-0.6,9.2,6.3,14.4s9.9,11.7,9.3,18.2c0,0,0.2-12.2-8.1-15.4s-8.2-2.3-11.2-8.9
		C488.1,228.7,491.1,224.2,484.2,220.3z"/>
	<path class="st7" d="M423.8,296.9c0,0-2.6,5.3,6.4,7.9s12.9,6.4,15,6.8s12.4,4.4,22.5,9.1s23.2,12.7,29,11.3s21.5-28.3,21.3-30.4
		c0,0-13.9,27.1-18.4,26.3c0,0,2.6-12,21-36.8c0,0-20.7,26-23.5,38.2c0,0,1.2,4.4-10.8-1.5s-28.4-15.9-32.3-15.5
		S422.5,301.4,423.8,296.9z"/>
	<path class="st7" d="M423.5,169.6c0,0-5.5-0.9-14.7,24.2c0,0,11.7-26.6,20.6-22C429.4,171.8,428.1,168.9,423.5,169.6z"/>
	<path class="st7" d="M422.7,300c0,0-12.5-13.4-13.9-16.3c-0.9-2.3-2.5-4.2-4.6-5.5c-1.6-0.9-3.5-4.9-5.3-7.5s-4.8-8-7.4-10
		s-14.3-10.6-9.6-17.1s15.5-30.8,21.3-39.2c0,0-8,15.1-11.1,22.8s2.7,6.7,7.3,1.6c0,0-1.9,4.5-9.9,7c0,0-7.5,4.8-6.1,11
		s2.7,6.7,5.9,8.9c3.2,2.1,4.9,5,6.7,7.2s1.7,4.8,4.7,7.7s1.6,4.9,5.1,7S415.6,292.2,422.7,300z"/>
	<path class="st0" d="M446.3,256.2c0,0-10.7,15.2-14.4,21.3s-6.9,16.1-7.8,18.9s-0.5,2-4.7-2.6c-0.8-0.9-6.1-7.2-7.9-9.4
		s8.2,3.2,13-1.1s4.6-3,7.8-8.6S442.4,259.8,446.3,256.2z"/>
	<path class="st0" d="M499.8,321.1c-1.6,2.6-1.8,10.9-4.6,9.6s-3.5-2.4-10.6-6.1s-7-3.7-10.2-5.5c-3.4-1.7-6.8-3.3-10.4-4.6
		c0,0-6.6-5.2-10-5.4s-7.8-0.2-13.8-3.8c-3.5-2-6.5-4.8-8.7-8.2c0,0,0.1,2.8,10.5,6.4c6.8,2.3,17.8,3.7,26,8.4s4.7,6.6,15.1,8.7
		s37.9-35.3,38.2-33.4S507.4,308.6,499.8,321.1z"/>
	<path class="st0" d="M448.1,259.4c-4,7.6-8.5,14.9-13.4,21.9c-9.2,13.4-6.6,17-6.6,17s0.9-7.6,10.5-20S447.3,264.6,448.1,259.4z"/>
	<path class="st9" d="M469.3,210.6c0,0,0,6.7-9.7,20.5c0,0-6.5,10-9.9,19c0,0,9.6-16.7,15.8-25.5S469.3,210.6,469.3,210.6z"/>
	<path class="st9" d="M424.3,301.4c0,0-14.6-14.1-16.4-20.1C407.9,281.4,419.3,296.1,424.3,301.4z"/>
	<path class="st9" d="M431.1,170.5c0,0-9.1-7.4-16,8.8C415.1,179.2,421.8,166.5,431.1,170.5z"/>
	<path class="st9" d="M394.5,219.9c0,0-8.1,16.1-11.3,21.4c0,0-5.5,5.8,0.5,12.6c0,0-5.4-5.9,1.1-14S390.3,227.9,394.5,219.9z"/>
	<path class="st9" d="M493.2,221.2c0,0-19.1-6-29.6-18.4C463.6,202.8,472.2,216,493.2,221.2z"/>
	<path class="st9" d="M450.4,259.1c0,0-8.8,10.3,4.4,16.8C454.8,276,444.8,268.8,450.4,259.1z"/>
	<path class="st15" d="M527.6,228.9c0,0-14.6-14.1-17.5-15.9s-12.7-11.2-14.1-12.6s-2.2-1.6-11.2-5.3s-33.4-16.5-43.2-19.4
		c0,0,40.8,19.3,51,23.6s0.3,11.3-2.9,9.8c0,0,8.2,3.5,9-4.9C498.7,204.3,514.6,217.2,527.6,228.9z"/>
	<path class="st0" d="M466.9,206.1c0,0-7.9-8.7-9.7-10s-11.9-8.5-13.2-12.8s-7.6-8.4-8.1-8.7c3.1,1.3,6.2,2.9,9.1,4.6
		c2.4,1.6,3,8.3,5.5,9.6S466.9,206.1,466.9,206.1z"/>
	<path class="st0" d="M539,240.7c0,0-7.5-7.9-11-9.9s-4.7-4.1-8-7s-14-13.3-16.3-14.6s-4.9,0.7-2.1,2.8s9,4.5,11.3,7.3
		s1,5.5,5.7,9.2c2.6,2,5.3,3.9,8.1,5.6C529.3,235.8,532.1,238.8,539,240.7z"/>
	<path class="st0" d="M542.4,245.6c-1.7-0.9-3.7-1.4-7.5-3.4s-2.7-2.7-8.7-4.6s-7.7-3-12-5.3s-7.3-3.3-9.5-2.7s-1.7-1.2,7.3,3.7
		c8.9,4.9,8.6,4.7,13.7,7.7s7.9,6.2,11.5,6.2s7.3-0.5,6.4,4s-3.3,7-3.6,9.9s6.5-10.1,6-12.3S545.6,247.3,542.4,245.6z"/>
	<path class="st7" d="M529.3,230.1c0,0,12.5,11.4,15.5,13.5s6.5,6.6-3,15.6c0,0-9.1,12.8-11.2,18.9c0,0,4.8-8.3,14.6-24.8
		c0,0,1.5-9.4-6.7-9.9c0,0-6-3.1-8-3.9c0,0,7.9,3.4,11.4,3.4C542,243,536.1,236.8,529.3,230.1z"/>
	<path class="st0" d="M421.4,288.4c-2.7-0.1-5.2-1.2-7-3.1c-3.1-3.3-5.9-6.9-8.3-10.8c-1.6-2.8-3.5-5.5-5.7-8
		c-2.4-2.9-14.1-13.8-15.1-16.3c-2.1-5.4,5.3-13.5,5.3-13.5s-7.5,5.3-4.2,12.6c2.9,6.4,2.4,3.2,7.7,7.9c7.2,6.4,6.4,5.9,9.6,10.7
		C411,278.9,422.9,287.1,421.4,288.4z"/>
	<path class="st0" d="M437.5,197.8l-9.4,73C428.2,270.8,433.4,225.1,437.5,197.8z"/>
	<path class="st0" d="M423,194l-5.4,35.7C417.6,229.7,421.3,198.2,423,194z"/>
	<path class="st0" d="M405.5,229.6l-2.9,22.6C402.6,252.1,404.6,232.4,405.5,229.6z"/>
	<path class="st0" d="M508.2,234.8l3.2,47.8C511.4,282.6,507.6,237.3,508.2,234.8z"/>
	<path class="st0" d="M478.5,222.6l-1.1,48.3C477.4,270.9,477.3,227.1,478.5,222.6z"/>
	<path class="st0" d="M467.8,271.2l6.5,40.5C474.3,311.7,468.1,275.2,467.8,271.2z"/>
	<path class="st7" d="M43.5,265.2c0,0-39.2,1-40.7,16.1C2.8,281.4,8.4,267.3,43.5,265.2z"/>
	<path class="st5" d="M4.6,281.1c0,0,6.5,2.7,35,4C39.6,285.1,14.2,281.6,4.6,281.1z"/>
	<path class="st5" d="M49.5,286.8c0,0,16.7,2.7,5,11.2C54.5,298,71.6,288.8,49.5,286.8z"/>
	<path class="st5" d="M16.3,335.3c0,0,47,29.1,93.9,6.7C110.2,342,69.2,358.4,16.3,335.3z"/>
	<path class="st0" d="M45.4,305.5c0,0-42.5,16.4-13.4,30.6C32,336.1,11.1,321.2,45.4,305.5z"/>
	<path class="st5" d="M116.6,339.3c0,0,60.1-23.9,75.5,5s56.6-4.5,56.6-4.5s33.3-24.4-76.5-22.4S151.9,322.9,116.6,339.3z"/>
	<path class="st0" d="M192.5,338.8c0,0,10.9,21.2,31.5,11.6C224,350.4,202.8,353,192.5,338.8z"/>
	<path class="st6" d="M254,332.4c0,0,28.2-8.6,42.4,2.3C296.4,334.7,286.8,319.4,254,332.4z"/>
	<path class="st13" d="M322.3,339.8c7,0.3,13.9,1.6,20.5,3.6c13.3,4.4,27.9,0.6,37.4-9.6c11.9-12.6,25.8-17.2,15.2-20.9
		s-9.9,19.5-29.8,19.2s-26.5-5.3-40.8-2.6S296.8,339.8,322.3,339.8z"/>
	<path class="st0" d="M505.7,327.6c0,0,2.4,10-28.3,13C477.4,340.6,515.5,336.6,505.7,327.6z"/>
	<path class="st6" d="M394.5,317.9c0,0,31.8-3.6,45.4,14.2C439.9,332.2,432,312.3,394.5,317.9z"/>
	<path class="st9" d="M413.4,234.2c1.2,1.2,0.3,4-1.9,6.2s-5,3.1-6.2,1.9s-0.3-3.9,1.9-6.2S412.2,233,413.4,234.2z"/>
	<path class="st15" d="M413.3,234c1.2,1.2,0.3,3.9-1.9,6.2s-5,3.1-6.2,2s-0.3-4,1.9-6.2S412.1,232.8,413.3,234z"/>
	<path class="st15" d="M412.7,233.9c0,0,2.3,1.1-0.9,5.4C411.8,239.3,414.2,235.6,412.7,233.9z"/>
	<path class="st13" d="M405,241.5c0,0-1-2,2.6-5.9C407.6,235.6,404.5,239,405,241.5z"/>
	<path class="st0" d="M406.8,238.1c0.1,0.1,0,0.4-0.4,0.8s-0.6,0.5-0.8,0.4s0-0.4,0.4-0.8S406.7,238,406.8,238.1z"/>
	<path class="st0" d="M407.3,237.1c0.1,0.1,0,0.2-0.1,0.3s-0.3,0.2-0.3,0.1s0-0.2,0.1-0.3S407.2,237.1,407.3,237.1z"/>
	<path class="st9" d="M139.8,312.9c0,1.9-2.9,3.4-6.4,3.4s-6.4-1.5-6.4-3.4s2.9-3.4,6.4-3.4S139.8,311,139.8,312.9z"/>
	<path class="st6" d="M139.9,312.6c0,1.9-2.9,3.4-6.4,3.4s-6.4-1.5-6.4-3.4s2.9-3.4,6.4-3.4S139.9,310.8,139.9,312.6z"/>
	<path class="st15" d="M139.4,312.1c0,0,0.9,2.7-5,3.6C134.4,315.7,139.3,314.6,139.4,312.1z"/>
	<path class="st13" d="M127.4,312c0,0,0.8-2.4,6.7-2.6C134.1,309.4,128.9,309.6,127.4,312z"/>
	<path class="st0" d="M131.5,310.8c0,0.2-0.4,0.3-0.9,0.3s-0.9-0.1-0.9-0.3s0.4-0.3,0.9-0.3S131.5,310.6,131.5,310.8z"/>
	<path class="st0" d="M132.6,310.4c0,0.1-0.2,0.2-0.4,0.2s-0.4-0.1-0.4-0.2s0.2-0.2,0.4-0.2S132.6,310.3,132.6,310.4z"/>
	<path class="st9" d="M83.1,243.3c-0.4,0.9-1.4,1.3-2.2,0.9c-0.9-0.4-1.3-1.4-0.9-2.2c0.4-0.9,1.4-1.3,2.2-0.9c0,0,0,0,0,0
		C83,241.5,83.4,242.5,83.1,243.3z"/>
	
		<radialGradient id="SVGID_6_" cx="-716.8499" cy="127.223" r="2.02" gradientTransform="matrix(0.91 0.41 0.77 -1.72 637.82 749.42)" gradientUnits="userSpaceOnUse">
		<stop  offset="0" style="stop-color:#D9F1FD"/>
		<stop  offset="0.63" style="stop-color:#7BD3F7"/>
		<stop  offset="1" style="stop-color:#00B1E8"/>
	</radialGradient>
	<path class="st16" d="M83.1,243.2c-0.4,0.9-1.4,1.3-2.3,0.9c-0.9-0.4-1.3-1.4-0.9-2.3c0.4-0.9,1.4-1.2,2.2-0.9
		S83.5,242.4,83.1,243.2L83.1,243.2z"/>
	<path class="st15" d="M83.1,242.9c-0.3,0.8-1.1,1.3-1.9,1.1C82,244,82.7,243.6,83.1,242.9z"/>
	<path class="st13" d="M80.2,241.6c0.5-0.6,1.4-0.8,2.2-0.5C81.6,240.9,80.8,241.1,80.2,241.6z"/>
	<path class="st0" d="M81.5,241.5c0,0.1-0.2,0.1-0.3,0.1s-0.2-0.2-0.2-0.2s0.2-0.1,0.3,0C81.4,241.3,81.5,241.4,81.5,241.5z"/>
	<path class="st0" d="M81.8,241.4c0,0-0.1,0-0.1,0c0,0,0-0.1,0-0.1c0,0,0.1,0,0.1,0C81.9,241.4,81.9,241.4,81.8,241.4z"/>
	<path class="st9" d="M189.4,270.2c-0.4,0.9-1.4,1.3-2.2,0.9c-0.9-0.4-1.3-1.4-0.9-2.2c0.4-0.9,1.4-1.3,2.2-0.9c0,0,0,0,0,0
		C189.4,268.3,189.8,269.3,189.4,270.2C189.4,270.1,189.4,270.2,189.4,270.2z"/>
	
		<radialGradient id="SVGID_7_" cx="-665.9" cy="-105.59" r="2.02" gradientTransform="matrix(1 0 0 -1 0 402)" gradientUnits="userSpaceOnUse">
		<stop  offset="0" style="stop-color:#D9F1FD"/>
		<stop  offset="0.63" style="stop-color:#7BD3F7"/>
		<stop  offset="1" style="stop-color:#00B1E8"/>
	</radialGradient>
	<path class="st17" d="M189.5,270.1c-0.4,0.9-1.4,1.3-2.2,0.9c-0.9-0.4-1.3-1.4-0.9-2.2c0.4-0.9,1.4-1.3,2.2-0.9c0,0,0,0,0,0
		C189.5,268.2,189.8,269.2,189.5,270.1z"/>
	<path class="st15" d="M189.5,269.8c-0.2,0.8-1.1,1.3-1.9,1.1C188.3,270.9,189.1,270.5,189.5,269.8z"/>
	<path class="st13" d="M186.6,268.4c0.5-0.6,1.4-0.8,2.1-0.5C188,267.7,187.1,267.9,186.6,268.4z"/>
	<path class="st0" d="M187.8,268.3c0,0.1-0.2,0.1-0.3,0s-0.2-0.2-0.1-0.2s0.2-0.1,0.3,0S187.9,268.2,187.8,268.3z"/>
	<path class="st0" d="M188.2,268.3c0,0-0.1,0-0.1,0c0,0,0,0,0,0c0,0-0.1-0.1-0.1-0.1c0,0,0.1-0.1,0.1,0
		C188.2,268.1,188.2,268.2,188.2,268.3L188.2,268.3L188.2,268.3z"/>
	<path class="st9" d="M264.9,227.4c-0.4,0.9-1.4,1.3-2.2,0.9c-0.9-0.4-1.3-1.4-0.9-2.2c0.4-0.9,1.4-1.3,2.2-0.9c0,0,0,0,0,0
		C264.9,225.6,265.3,226.6,264.9,227.4z"/>
	<path class="st0" d="M265,227.3c-0.4,0.9-1.4,1.3-2.2,0.9c-0.9-0.4-1.3-1.4-0.9-2.2c0.4-0.9,1.4-1.3,2.2-0.9c0,0,0,0,0,0
		C265,225.5,265.4,226.5,265,227.3z"/>
	<path class="st15" d="M265,227c-0.3,0.8-1.1,1.3-1.9,1.1C263.9,228.1,264.6,227.7,265,227z"/>
	<path class="st13" d="M262.1,225.7c0.5-0.6,1.4-0.8,2.1-0.5C263.5,225,262.7,225.2,262.1,225.7z"/>
	<path class="st0" d="M263.4,225.6c0,0.1-0.2,0.1-0.3,0s-0.2-0.2-0.1-0.2s0.2-0.1,0.3,0S263.4,225.5,263.4,225.6z"/>
	<path class="st0" d="M263.7,225.5c0,0-0.1,0-0.1,0c0,0,0-0.1,0-0.1c0,0,0.1,0,0.1,0C263.7,225.5,263.7,225.5,263.7,225.5z"/>
	<path class="st9" d="M380.5,270.8c-0.7,1.6-2.5,2.3-4.1,1.6c-1.6-0.7-2.3-2.5-1.6-4.1c0.7-1.6,2.5-2.3,4.1-1.6c0,0,0,0,0,0
		C380.5,267.4,381.2,269.2,380.5,270.8z"/>
	<path class="st15" d="M380.6,270.6c-0.7,1.6-2.5,2.3-4.1,1.6s-2.3-2.5-1.6-4.1s2.5-2.3,4.1-1.6c0,0,0,0,0,0
		C380.6,267.2,381.3,269.1,380.6,270.6C380.6,270.6,380.6,270.6,380.6,270.6z"/>
	<path class="st15" d="M380.6,270c-0.5,1.5-2,2.4-3.5,2C378.5,272.1,379.9,271.3,380.6,270z"/>
	<path class="st13" d="M375.3,267.6c0.9-1.2,2.6-1.5,3.9-0.9C377.9,266.3,376.4,266.6,375.3,267.6z"/>
	<path class="st0" d="M377.6,267.4c-0.1,0.1-0.3,0.2-0.5,0.1s-0.3-0.3-0.3-0.4s0.3-0.2,0.5-0.1S377.7,267.2,377.6,267.4z"/>
	<path class="st0" d="M378.2,267.3c0,0.1-0.1,0.1-0.2,0.1c0,0,0,0,0,0c-0.1,0-0.1-0.1-0.1-0.2c0,0,0,0,0,0c0-0.1,0.1-0.1,0.2-0.1
		c0,0,0,0,0,0C378.2,267.1,378.3,267.2,378.2,267.3z"/>
	<path class="st9" d="M286.1,110.8c-0.7,1.6-2.5,2.3-4.1,1.6c-1.6-0.7-2.3-2.5-1.6-4.1c0.7-1.6,2.5-2.3,4.1-1.6c0,0,0,0,0,0
		C286,107.4,286.8,109.2,286.1,110.8z"/>
	<path class="st6" d="M286.2,110.6c-0.7,1.6-2.5,2.3-4.1,1.6s-2.3-2.5-1.6-4.1c0.7-1.6,2.5-2.3,4.1-1.6c0,0,0,0,0,0
		C286.2,107.2,286.9,109,286.2,110.6C286.2,110.6,286.2,110.6,286.2,110.6z"/>
	<path class="st15" d="M286.2,110c-0.4,1.5-2,2.4-3.5,2C284.1,112,285.5,111.3,286.2,110z"/>
	<path class="st13" d="M280.9,107.6c0.9-1.2,2.6-1.5,3.9-0.8C283.5,106.3,281.9,106.6,280.9,107.6z"/>
	<path class="st0" d="M283.2,107.4c-0.1,0.2-0.3,0.2-0.5,0.1s-0.3-0.3-0.3-0.4s0.3-0.2,0.5-0.1S283.3,107.2,283.2,107.4z"/>
	<path class="st0" d="M283.8,107.3c0,0.1-0.1,0.1-0.2,0.1c0,0,0,0,0,0c-0.1,0-0.1-0.1-0.1-0.2c0,0,0,0,0,0c0-0.1,0.1-0.1,0.2-0.1
		S283.9,107.2,283.8,107.3L283.8,107.3z"/>
	<path class="st9" d="M53.5,270.8c-0.7,1.6-2.5,2.3-4.1,1.6c-1.6-0.7-2.3-2.5-1.6-4.1c0.7-1.6,2.5-2.3,4.1-1.6c0,0,0,0,0,0
		C53.5,267.4,54.2,269.2,53.5,270.8z"/>
	<path class="st6" d="M53.6,270.6c-0.7,1.6-2.5,2.3-4.1,1.6c-1.6-0.7-2.3-2.5-1.6-4.1c0.7-1.6,2.5-2.3,4.1-1.6c0,0,0,0,0,0
		C53.6,267.2,54.3,269,53.6,270.6C53.6,270.6,53.6,270.6,53.6,270.6z"/>
	<path class="st15" d="M53.6,270c-0.5,1.5-2,2.4-3.5,2C51.5,272.1,52.9,271.3,53.6,270z"/>
	<path class="st13" d="M48.3,267.6c0,0,1.2-1.9,3.9-0.9C50.9,266.3,49.4,266.6,48.3,267.6z"/>
	<path class="st0" d="M50.6,267.4c-0.1,0.1-0.3,0.2-0.5,0.1s-0.3-0.3-0.3-0.4s0.3-0.2,0.5-0.1S50.7,267.2,50.6,267.4z"/>
	<path class="st0" d="M51.3,267.3c0,0.1-0.1,0.1-0.2,0.1c0,0,0,0,0,0c-0.1,0-0.1-0.1-0.1-0.2c0,0,0,0,0,0c0-0.1,0.1-0.1,0.2-0.1
		c0,0,0,0,0,0C51.3,267.1,51.3,267.2,51.3,267.3z"/>
	<path class="st9" d="M356.6,184c0.1,0.6-0.7,1.3-1.9,1.6s-2.3,0-2.4-0.6s0.7-1.3,1.9-1.6S356.5,183.4,356.6,184z"/>
	
		<radialGradient id="SVGID_8_" cx="0.5658" cy="-430.2596" r="2.66" gradientTransform="matrix(0.97 -0.22 -0.22 -0.94 261.47 -218.98)" gradientUnits="userSpaceOnUse">
		<stop  offset="0" style="stop-color:#D9F1FD"/>
		<stop  offset="0.63" style="stop-color:#7BD3F7"/>
		<stop  offset="1" style="stop-color:#00B1E8"/>
	</radialGradient>
	<path class="st18" d="M356.6,183.9c0.1,0.6-0.7,1.3-1.9,1.6s-2.3,0-2.4-0.6s0.7-1.3,1.9-1.6S356.5,183.3,356.6,183.9z"/>
	<path class="st15" d="M356.4,183.8c0,0,0.5,0.8-1.4,1.6C355,185.3,356.6,184.6,356.4,183.8z"/>
	<path class="st13" d="M352.3,184.7c0,0,0.1-0.9,2.1-1.4C354.4,183.3,352.7,183.8,352.3,184.7z"/>
	<path class="st0" d="M353.6,184c0,0.1-0.1,0.1-0.3,0.2s-0.3,0-0.3,0s0.1-0.1,0.3-0.2S353.6,183.9,353.6,184z"/>
	<path class="st0" d="M354,183.8c0,0,0,0.1-0.1,0.1s-0.1,0-0.1,0s0-0.1,0.1-0.1S354,183.7,354,183.8z"/>
	<path class="st13" d="M303.8,150c0.8,0.1,1.2,1.1,1,2.2s-1,1.9-1.8,1.7s-1.2-1.1-1-2.2S303,149.8,303.8,150z"/>
	<path class="st13" d="M303.7,149.9c0.8,0.1,1.2,1.1,1,2.2s-1,1.9-1.8,1.7s-1.2-1.2-1-2.3S303,149.8,303.7,149.9z"/>
	<path class="st13" d="M303.5,150c0,0,1.1-0.1,1.2,1.8C304.6,151.8,304.5,150.2,303.5,150z"/>
	<path class="st13" d="M302.7,153.7c0,0-0.9-0.4-0.7-2.3C302.1,151.5,301.8,153.1,302.7,153.7z"/>
	<path class="st13" d="M302.5,152.4c0.1,0,0.1,0.1,0.1,0.3s-0.1,0.3-0.2,0.2s-0.1-0.1-0.1-0.3S302.4,152.3,302.5,152.4z"/>
	<path class="st13" d="M302.4,152c0,0,0.1,0.1,0.1,0.1c0,0.1-0.1,0.1-0.1,0.1S302.3,152.2,302.4,152C302.3,152,302.3,152,302.4,152z
		"/>
	<path class="st7" d="M319.8,88.6c0,0,2,8.5,2.9,10.7s5.1,11.6,1.4,14.3s-3.2-2.8-3.2-2.8S319.3,93.2,319.8,88.6z"/>
	<path class="st13" d="M320,90.6c0,0,0.2,21.1,2.1,22.9s3.5-2.7,3.1-4.6S319.8,93.8,320,90.6z"/>
	<path class="st9" d="M319.5,89.1c0,0,0.7,21.1,1.6,23.8C319.7,105.1,319.2,97.1,319.5,89.1z"/>
	<path class="st0" d="M324.7,108.2c0,0,0.8,5.3-2,5.3C322.7,113.5,324.8,113,324.7,108.2z"/>
	<path class="st6" d="M320.5,94.8c0,0,0.2,13.9,1.9,17.2C322.4,112,321.4,107.5,320.5,94.8z"/>
</g>
</svg>
