<svg id="Layer_1" data-name="Layer 1" xmlns="http://www.w3.org/2000/svg" viewBox="0 0 512 400"><defs><style>.cls-1{opacity:0.3;}.cls-2,.cls-7{fill:#ddd;}.cls-2{stroke:#cfd1d1;stroke-width:0.75px;}.cls-2,.cls-3{stroke-miterlimit:10;}.cls-3{fill:#fcfff3;stroke:#afafae;stroke-width:0.5px;}.cls-4,.cls-5{fill:#8e8e8e;}.cls-5{font-size:35.38px;font-family:SassoonSansUSBold, Sassoon Sans US;}.cls-6{letter-spacing:-0.06em;}.cls-8{fill:#e8e8e8;}</style></defs><rect class="cls-1" x="73.19" y="68.3" width="370.61" height="268.4" transform="translate(-10.55 14.24) rotate(-3.09)"/><rect class="cls-2" x="68.19" y="63.3" width="370.61" height="268.4" transform="translate(-10.28 13.96) rotate(-3.09)"/><rect class="cls-1" x="79.46" y="75.61" width="370.61" height="269.37"/><rect class="cls-3" x="75.46" y="71.61" width="370.61" height="269.37"/><rect class="cls-4" x="94.58" y="95.53" width="332.37" height="2.09"/><rect class="cls-4" x="94.58" y="138.64" width="332.37" height="2.09"/><rect class="cls-4" x="93.26" y="241.38" width="197.13" height="2.09" transform="translate(434.24 50.6) rotate(90)"/><rect class="cls-4" x="95.11" y="147.68" width="45.74" height="2.81" transform="translate(235.96 298.17) rotate(180)"/><rect class="cls-4" x="95.11" y="152.75" width="15.76" height="2.42" transform="translate(205.97 307.91) rotate(180)"/><rect class="cls-4" x="112.83" y="152.74" width="22.65" height="2.42" transform="translate(248.32 307.91) rotate(180)"/><rect class="cls-4" x="137.46" y="152.74" width="10.83" height="2.42" transform="translate(285.75 307.91) rotate(180)"/><rect class="cls-4" x="150.26" y="152.74" width="27.58" height="2.42" transform="translate(328.1 307.9) rotate(180)"/><rect class="cls-4" x="95.11" y="172.22" width="15.76" height="2.42" transform="translate(205.97 346.86) rotate(180)"/><rect class="cls-4" x="112.83" y="172.22" width="22.65" height="2.42" transform="translate(248.32 346.86) rotate(180)"/><rect class="cls-4" x="137.46" y="172.22" width="10.83" height="2.42" transform="translate(285.75 346.85) rotate(180)"/><rect class="cls-4" x="151.24" y="172.22" width="26.59" height="2.42" transform="translate(329.08 346.85) rotate(180)"/><rect class="cls-4" x="95.11" y="167.35" width="45.03" height="2.42" transform="translate(235.25 337.12) rotate(180)"/><rect class="cls-4" x="143.28" y="167.35" width="7.33" height="2.42" transform="translate(293.89 337.12) rotate(180)"/><rect class="cls-4" x="153.75" y="167.35" width="24.09" height="2.42" transform="translate(331.59 337.12) rotate(180)"/><rect class="cls-4" x="95.11" y="162.48" width="12.3" height="2.42" transform="translate(202.51 327.38) rotate(180)"/><rect class="cls-4" x="110.76" y="162.48" width="29.07" height="2.42" transform="translate(250.59 327.38) rotate(180)"/><rect class="cls-4" x="143.18" y="162.48" width="19.01" height="2.42" transform="translate(305.37 327.38) rotate(180)"/><rect class="cls-4" x="166.66" y="162.48" width="11.18" height="2.42" transform="translate(344.5 327.38) rotate(180)"/><rect class="cls-4" x="95.11" y="157.61" width="25.61" height="2.42" transform="translate(215.82 317.64) rotate(180)"/><rect class="cls-4" x="123.67" y="157.61" width="19.7" height="2.42" transform="matrix(-1, 0, 0, -1, 267.04, 317.64)"/><rect class="cls-4" x="146.32" y="157.61" width="31.52" height="2.42" transform="translate(324.16 317.64) rotate(180)"/><rect class="cls-4" x="95.11" y="177.09" width="6.98" height="2.42" transform="translate(197.19 356.59) rotate(180)"/><rect class="cls-4" x="105.07" y="177.09" width="22.93" height="2.42" transform="translate(233.08 356.59) rotate(180)"/><rect class="cls-4" x="133.18" y="177.09" width="44.66" height="2.42" transform="translate(311.02 356.59) rotate(180)"/><rect class="cls-4" x="95.11" y="294.01" width="15.76" height="2.42" transform="translate(205.98 590.45) rotate(180)"/><rect class="cls-4" x="112.84" y="294.01" width="22.65" height="2.42" transform="translate(248.33 590.45) rotate(180)"/><rect class="cls-4" x="137.46" y="294.01" width="10.83" height="2.42" transform="translate(285.75 590.44) rotate(180)"/><rect class="cls-4" x="151.24" y="294.01" width="26.59" height="2.42" transform="translate(329.09 590.44) rotate(180)"/><rect class="cls-4" x="95.11" y="289.14" width="45.03" height="2.42" transform="translate(235.25 580.7) rotate(180)"/><rect class="cls-4" x="143.28" y="289.14" width="7.33" height="2.42" transform="translate(293.89 580.7) rotate(180)"/><rect class="cls-4" x="153.75" y="289.14" width="24.09" height="2.42" transform="translate(331.59 580.7) rotate(180)"/><rect class="cls-4" x="95.11" y="298.89" width="6.98" height="2.42" transform="translate(197.2 600.2) rotate(180)"/><rect class="cls-4" x="105.08" y="298.89" width="22.92" height="2.42" transform="translate(233.08 600.19) rotate(180)"/><rect class="cls-4" x="130.99" y="298.89" width="15.95" height="2.42" transform="translate(277.93 600.19) rotate(180)"/><rect class="cls-4" x="149.93" y="298.89" width="27.91" height="2.42" transform="translate(327.77 600.19) rotate(180)"/><rect class="cls-4" x="95.11" y="196.56" width="15.57" height="2.42" transform="translate(205.79 395.54) rotate(180)"/><rect class="cls-4" x="112.63" y="196.56" width="36.98" height="2.42" transform="translate(262.24 395.54) rotate(180)"/><rect class="cls-4" x="156.06" y="196.56" width="21.84" height="2.42" transform="translate(333.97 395.54) rotate(180)"/><rect class="cls-4" x="95.11" y="191.69" width="43.92" height="2.42" transform="translate(234.14 385.8) rotate(180)"/><rect class="cls-4" x="142.09" y="191.69" width="8.17" height="2.42" transform="translate(292.35 385.8) rotate(180)"/><rect class="cls-4" x="154.35" y="191.69" width="23.49" height="2.42" transform="translate(332.18 385.8) rotate(180)"/><rect class="cls-4" x="95.11" y="186.83" width="10.71" height="2.42" transform="translate(200.92 376.07) rotate(180)"/><rect class="cls-4" x="108.73" y="186.83" width="25.31" height="2.42" transform="translate(242.77 376.07) rotate(180)"/><rect class="cls-4" x="136.96" y="186.82" width="40.88" height="2.42" transform="translate(314.8 376.07) rotate(180)"/><rect class="cls-4" x="118.74" y="181.89" width="7.52" height="2.42" transform="matrix(-1, 0, 0, -1, 245.01, 366.2)"/><rect class="cls-4" x="95.11" y="182.02" width="20.41" height="2.42" transform="translate(210.63 366.46) rotate(180)"/><rect class="cls-4" x="130.56" y="182.02" width="17.19" height="2.42" transform="translate(278.32 366.46) rotate(180)"/><rect class="cls-4" x="150.98" y="182.02" width="26.86" height="2.42" transform="translate(328.82 366.45) rotate(180)"/><rect class="cls-4" x="95.11" y="211.17" width="15.76" height="2.42" transform="translate(205.98 424.75) rotate(180)"/><rect class="cls-4" x="112.84" y="211.17" width="22.65" height="2.42" transform="translate(248.33 424.75) rotate(180)"/><rect class="cls-4" x="138.44" y="211.17" width="9.85" height="2.42" transform="translate(286.73 424.75) rotate(180)"/><rect class="cls-4" x="151.24" y="211.17" width="26.59" height="2.42" transform="translate(329.08 424.75) rotate(180)"/><rect class="cls-4" x="95.11" y="206.3" width="35.6" height="2.42" transform="translate(225.82 415.02) rotate(180)"/><rect class="cls-4" x="135.95" y="206.3" width="14.66" height="2.42" transform="translate(286.56 415.02) rotate(180)"/><rect class="cls-4" x="153.75" y="206.3" width="24.09" height="2.42" transform="translate(331.59 415.01) rotate(180)"/><rect class="cls-4" x="108.73" y="201.43" width="29.94" height="2.42" transform="translate(247.41 405.28) rotate(180)"/><rect class="cls-4" x="143.28" y="201.43" width="18.43" height="2.42" transform="translate(305 405.28) rotate(180)"/><rect class="cls-4" x="166.32" y="201.43" width="11.52" height="2.42" transform="translate(344.16 405.28) rotate(180)"/><rect class="cls-4" x="307.58" y="178.38" width="22.39" height="2.42" transform="translate(637.56 359.18) rotate(180)"/><rect class="cls-4" x="332.78" y="178.38" width="32.19" height="2.42" transform="translate(697.75 359.18) rotate(180)"/><rect class="cls-4" x="367.77" y="178.38" width="15.4" height="2.42" transform="translate(750.93 359.18) rotate(180)"/><rect class="cls-4" x="387.36" y="178.38" width="39.7" height="2.42" transform="translate(814.43 359.17) rotate(180)"/><rect class="cls-4" x="307.58" y="173.31" width="60.19" height="2.42" transform="translate(675.35 349.03) rotate(180)"/><rect class="cls-4" x="371.97" y="173.31" width="9.8" height="2.42" transform="translate(753.73 349.02) rotate(180)"/><rect class="cls-4" x="385.96" y="173.31" width="41.1" height="2.42" transform="translate(813.03 349.03) rotate(180)"/><rect class="cls-4" x="307.58" y="168.23" width="15.4" height="2.42" transform="translate(630.56 338.88) rotate(180)"/><rect class="cls-4" x="327.18" y="168.23" width="36.39" height="2.42" transform="translate(690.75 338.88) rotate(180)"/><rect class="cls-4" x="367.77" y="168.23" width="23.79" height="2.42" transform="translate(759.33 338.87) rotate(180)"/><rect class="cls-4" x="397.16" y="168.23" width="10.36" height="2.42" transform="translate(804.69 338.87) rotate(180)"/><rect class="cls-4" x="413" y="168.23" width="14.07" height="2.42" transform="translate(840.06 338.87) rotate(180)"/><rect class="cls-4" x="307.58" y="163.16" width="36.39" height="2.42" transform="translate(651.56 328.73) rotate(180)"/><rect class="cls-4" x="348.17" y="163.16" width="27.99" height="2.42" transform="translate(724.34 328.72) rotate(180)"/><rect class="cls-4" x="380.36" y="163.15" width="46.7" height="2.42" transform="translate(807.43 328.72) rotate(180)"/><rect class="cls-4" x="307.58" y="183.46" width="9.8" height="2.42" transform="translate(624.97 369.33) rotate(180)"/><rect class="cls-4" x="321.58" y="183.46" width="32.19" height="2.42" transform="translate(675.35 369.33) rotate(180)"/><rect class="cls-4" x="357.97" y="183.46" width="22.39" height="2.42" transform="translate(738.34 369.33) rotate(180)"/><rect class="cls-4" x="384.56" y="183.46" width="42.5" height="2.42" transform="translate(811.63 369.33) rotate(180)"/><rect class="cls-4" x="307.58" y="203.76" width="22.39" height="2.42" transform="translate(637.56 409.93) rotate(180)"/><rect class="cls-4" x="332.78" y="203.76" width="53.19" height="2.42" transform="translate(718.74 409.93) rotate(180)"/><rect class="cls-4" x="391.3" y="203.76" width="35.78" height="2.42" transform="translate(818.39 409.93) rotate(180)"/><rect class="cls-4" x="307.58" y="198.77" width="60.19" height="2.42" transform="translate(675.93 398.97) rotate(179.83)"/><rect class="cls-4" x="371.97" y="198.65" width="11.2" height="2.42" transform="translate(755.71 398.62) rotate(179.83)"/><rect class="cls-4" x="388.76" y="198.57" width="38.3" height="2.42" transform="translate(816.41 398.36) rotate(179.83)"/><rect class="cls-4" x="307.58" y="193.61" width="15.4" height="2.42" transform="translate(630.56 389.63) rotate(180)"/><rect class="cls-4" x="327.18" y="193.61" width="36.39" height="2.42" transform="translate(690.75 389.63) rotate(180)"/><rect class="cls-4" x="367.77" y="193.61" width="59.3" height="2.42" transform="translate(794.83 389.63) rotate(180)"/><rect class="cls-4" x="338.38" y="188.47" width="9.8" height="2.42" transform="translate(686.55 379.35) rotate(180)"/><rect class="cls-4" x="307.58" y="188.6" width="26.59" height="2.42" transform="translate(641.76 379.6) rotate(180)"/><rect class="cls-4" x="353.77" y="188.59" width="22.4" height="2.42" transform="translate(729.94 379.6) rotate(180)"/><rect class="cls-4" x="380.37" y="188.6" width="46.7" height="2.42" transform="matrix(-1, 0, 0, -1, 807.43, 379.61)"/><rect class="cls-4" x="307.58" y="218.99" width="22.39" height="2.42" transform="translate(637.56 440.38) rotate(180)"/><rect class="cls-4" x="332.78" y="218.98" width="32.19" height="2.42" transform="translate(697.75 440.38) rotate(180)"/><rect class="cls-4" x="369.17" y="218.98" width="14" height="2.42" transform="translate(752.34 440.38) rotate(180)"/><rect class="cls-4" x="387.36" y="218.98" width="39.7" height="2.42" transform="translate(814.43 440.38) rotate(180)"/><rect class="cls-4" x="307.58" y="213.91" width="47.59" height="2.42" transform="translate(662.76 430.23) rotate(180)"/><rect class="cls-4" x="362.17" y="213.91" width="27.35" height="2.42" transform="translate(751.69 430.23) rotate(180)"/><rect class="cls-4" x="394.9" y="213.91" width="32.19" height="2.42" transform="translate(822 430.23) rotate(180)"/><rect class="cls-4" x="327.18" y="208.84" width="36.39" height="2.42" transform="translate(690.75 420.08) rotate(180)"/><rect class="cls-4" x="307.51" y="208.84" width="17.38" height="2.42" transform="translate(632.4 420.08) rotate(180)"/><rect class="cls-4" x="369.17" y="208.84" width="25.46" height="2.42" transform="translate(763.79 420.09) rotate(180)"/><rect class="cls-4" x="418.38" y="208.83" width="8.74" height="2.42" transform="translate(845.5 420.07) rotate(180)"/><rect class="cls-4" x="398.33" y="208.83" width="8.36" height="2.42" transform="translate(805.02 420.07) rotate(180)"/><rect class="cls-4" x="206" y="147.91" width="95.27" height="2.42" transform="translate(507.27 298.24) rotate(180)"/><rect class="cls-4" x="341.81" y="158.09" width="15.55" height="2.42" transform="translate(699.18 318.6) rotate(180)"/><rect class="cls-4" x="361.61" y="158.09" width="36.76" height="2.42" transform="translate(759.97 318.6) rotate(180)"/><rect class="cls-4" x="404.02" y="158.09" width="23.04" height="2.42" transform="translate(831.08 318.6) rotate(180)"/><rect class="cls-4" x="206" y="158.07" width="56.77" height="2.42" transform="translate(468.77 318.55) rotate(180)"/><rect class="cls-4" x="271.11" y="158.07" width="23.38" height="2.42" transform="translate(565.61 318.55) rotate(180)"/><rect class="cls-4" x="299.5" y="158.07" width="38.4" height="2.42" transform="translate(637.41 318.54) rotate(180)"/><rect class="cls-4" x="334.97" y="152.95" width="22.62" height="2.42" transform="translate(692.57 308.31) rotate(180)"/><rect class="cls-4" x="360.42" y="152.95" width="53.73" height="2.42" transform="translate(774.57 308.31) rotate(180)"/><rect class="cls-4" x="418.46" y="152.94" width="8.6" height="2.42" transform="translate(845.52 308.3) rotate(180)"/><rect class="cls-4" x="206" y="153.06" width="18.37" height="2.42" transform="translate(430.36 308.55) rotate(180)"/><rect class="cls-4" x="229.37" y="153.06" width="43.41" height="2.42" transform="translate(502.16 308.54) rotate(180)"/><rect class="cls-4" x="279.46" y="153.06" width="26.72" height="2.42" transform="translate(585.64 308.54) rotate(180)"/><rect class="cls-4" x="312.86" y="153.06" width="16.7" height="2.42" transform="translate(642.41 308.54) rotate(180)"/><rect class="cls-4" x="95.11" y="318.39" width="15.57" height="2.42" transform="translate(205.79 639.19) rotate(180)"/><rect class="cls-4" x="157.17" y="318.39" width="20.63" height="2.42" transform="translate(334.99 639.19) rotate(180)"/><rect class="cls-4" x="144.69" y="318.39" width="8.04" height="2.42" transform="translate(297.43 639.19) rotate(180)"/><rect class="cls-4" x="112.63" y="318.38" width="28.59" height="2.42" transform="translate(253.85 639.19) rotate(180)"/><rect class="cls-4" x="95.11" y="328.13" width="35.6" height="2.42" transform="translate(225.83 658.69) rotate(180)"/><rect class="cls-4" x="135.95" y="328.13" width="14.66" height="2.42" transform="translate(286.56 658.69) rotate(180)"/><rect class="cls-4" x="153.75" y="328.13" width="24.09" height="2.42" transform="translate(331.59 658.68) rotate(180)"/><rect class="cls-4" x="95.11" y="323.26" width="12.3" height="2.42" transform="translate(202.52 648.94) rotate(180)"/><rect class="cls-4" x="110.76" y="323.26" width="29.07" height="2.42" transform="translate(250.59 648.94) rotate(180)"/><rect class="cls-4" x="144.3" y="323.26" width="17.89" height="2.42" transform="translate(306.49 648.94) rotate(180)"/><rect class="cls-4" x="166.66" y="323.26" width="11.18" height="2.42" transform="translate(344.5 648.94) rotate(180)"/><rect class="cls-4" x="95.11" y="240.38" width="6.98" height="2.42" transform="translate(197.2 483.18) rotate(180)"/><rect class="cls-4" x="105.08" y="240.38" width="22.92" height="2.42" transform="translate(233.08 483.18) rotate(180)"/><rect class="cls-4" x="130.99" y="240.38" width="15.95" height="2.42" transform="translate(277.93 483.18) rotate(180)"/><rect class="cls-4" x="149.93" y="240.38" width="27.91" height="2.42" transform="translate(327.77 483.18) rotate(180)"/><rect class="cls-4" x="95.11" y="254.99" width="43.92" height="2.42" transform="matrix(-1, 0, 0, -1, 234.14, 512.39)"/><rect class="cls-4" x="142.09" y="254.99" width="19.4" height="2.42" transform="translate(303.59 512.39) rotate(180)"/><rect class="cls-4" x="165.58" y="254.99" width="12.26" height="2.42" transform="translate(343.42 512.39) rotate(180)"/><rect class="cls-4" x="95.11" y="250.12" width="10.71" height="2.42" transform="translate(200.93 502.65) rotate(180)"/><rect class="cls-4" x="108.73" y="250.12" width="25.31" height="2.42" transform="translate(242.78 502.65) rotate(180)"/><rect class="cls-4" x="136.96" y="250.12" width="40.88" height="2.42" transform="translate(314.8 502.65) rotate(180)"/><rect class="cls-4" x="95.11" y="245.25" width="27.93" height="2.42" transform="translate(218.15 492.92) rotate(180)"/><rect class="cls-4" x="126.27" y="245.25" width="21.49" height="2.42" transform="translate(274.02 492.91) rotate(180)"/><rect class="cls-4" x="150.98" y="245.25" width="26.86" height="2.42" transform="translate(328.82 492.91) rotate(180)"/><rect class="cls-4" x="95.11" y="269.64" width="41.85" height="2.42" transform="translate(232.07 541.7) rotate(180)"/><rect class="cls-4" x="104.84" y="216.04" width="23" height="2.42" transform="translate(232.68 434.49) rotate(180)"/><rect class="cls-4" x="130.84" y="216.04" width="16" height="2.42" transform="translate(277.68 434.49) rotate(180)"/><rect class="cls-4" x="149.84" y="216.04" width="28" height="2.42" transform="translate(327.68 434.49) rotate(180)"/><rect class="cls-4" x="95.11" y="235.51" width="17.42" height="2.42" transform="translate(207.64 473.44) rotate(180)"/><rect class="cls-4" x="114.7" y="235.51" width="23.95" height="2.42" transform="translate(253.35 473.44) rotate(180)"/><rect class="cls-4" x="141.92" y="235.51" width="9.8" height="2.42" transform="translate(293.63 473.44) rotate(180)"/><rect class="cls-4" x="156.07" y="235.51" width="21.77" height="2.42" transform="translate(333.91 473.44) rotate(180)"/><rect class="cls-4" x="307.52" y="229.14" width="6.1" height="2.42" transform="translate(621.15 460.69) rotate(180)"/><rect class="cls-4" x="316.27" y="229.14" width="20.27" height="2.42" transform="translate(652.81 460.69) rotate(180)"/><rect class="cls-4" x="339.18" y="229.14" width="14.1" height="2.42" transform="translate(692.47 460.69) rotate(180)"/><rect class="cls-4" x="355.92" y="229.14" width="24.68" height="2.42" transform="translate(736.53 460.68) rotate(180)"/><rect class="cls-4" x="385.17" y="229.13" width="17.63" height="2.42" transform="translate(787.97 460.68) rotate(180)"/><rect class="cls-4" x="307.52" y="224.06" width="14.04" height="2.42" transform="translate(629.08 450.53) rotate(180)"/><rect class="cls-4" x="323.32" y="224.06" width="19.39" height="2.42" transform="translate(666.03 450.53) rotate(180)"/><rect class="cls-4" x="345.35" y="224.06" width="7.93" height="2.42" transform="translate(698.63 450.53) rotate(180)"/><rect class="cls-4" x="356.81" y="224.06" width="17.63" height="2.42" transform="translate(731.24 450.53) rotate(180)"/><rect class="cls-4" x="376.86" y="224.06" width="27.47" height="2.42" transform="matrix(-1, 0, 0, -1, 781.19, 450.53)"/><rect class="cls-4" x="95.11" y="303.76" width="17.42" height="2.42" transform="translate(207.64 609.94) rotate(180)"/><rect class="cls-4" x="114.7" y="303.76" width="23.95" height="2.42" transform="translate(253.36 609.94) rotate(180)"/><rect class="cls-4" x="141.92" y="303.76" width="9.8" height="2.42" transform="matrix(-1, 0, 0, -1, 293.63, 609.94)"/><rect class="cls-4" x="156.07" y="303.76" width="21.77" height="2.42" transform="translate(333.91 609.94) rotate(180)"/><rect class="cls-4" x="95.11" y="230.64" width="41.85" height="2.42" transform="translate(232.07 463.7) rotate(180)"/><rect class="cls-4" x="143.86" y="230.64" width="34.01" height="2.42" transform="translate(321.73 463.7) rotate(180)"/><rect class="cls-4" x="95.11" y="225.77" width="10.71" height="2.42" transform="translate(200.92 453.97) rotate(180)"/><rect class="cls-4" x="108.73" y="225.77" width="25.31" height="2.42" transform="translate(242.78 453.96) rotate(180)"/><rect class="cls-4" x="138.17" y="225.77" width="11.47" height="2.42" transform="translate(287.81 453.97) rotate(180)"/><rect class="cls-4" x="152.56" y="225.77" width="25.31" height="2.42" transform="translate(330.43 453.96) rotate(180)"/><rect class="cls-4" x="95.11" y="220.91" width="25.31" height="2.42" transform="translate(215.52 444.23) rotate(180)"/><rect class="cls-4" x="125.48" y="220.91" width="25.31" height="2.42" transform="translate(276.27 444.23) rotate(180)"/><rect class="cls-4" x="157.73" y="220.91" width="20.1" height="2.42" transform="translate(335.56 444.23) rotate(180)"/><rect class="cls-4" x="95.8" y="127.56" width="14.91" height="2.42" transform="translate(206.52 257.53) rotate(180)"/><rect class="cls-4" x="114.78" y="127.56" width="35.25" height="2.42" transform="translate(264.82 257.53) rotate(180)"/><rect class="cls-4" x="95.8" y="122.72" width="35.25" height="2.42" transform="translate(226.86 247.86) rotate(180)"/><rect class="cls-4" x="95.11" y="313.51" width="10.71" height="2.42" transform="translate(200.93 629.44) rotate(180)"/><rect class="cls-4" x="108.73" y="313.51" width="25.31" height="2.42" transform="translate(242.78 629.44) rotate(180)"/><rect class="cls-4" x="138.93" y="313.51" width="10.71" height="2.42" transform="translate(288.58 629.44) rotate(180)"/><rect class="cls-4" x="152.56" y="313.51" width="25.31" height="2.42" transform="translate(330.43 629.44) rotate(180)"/><rect class="cls-4" x="95.11" y="308.64" width="25.31" height="2.42" transform="translate(215.53 619.69) rotate(180)"/><rect class="cls-4" x="124.37" y="308.64" width="25.31" height="2.42" transform="translate(274.05 619.69) rotate(180)"/><rect class="cls-4" x="153.43" y="308.64" width="24.4" height="2.42" transform="translate(331.26 619.69) rotate(180)"/><rect class="cls-4" x="95.11" y="274.52" width="6.98" height="2.42" transform="translate(197.2 551.45) rotate(180)"/><rect class="cls-4" x="105.08" y="274.52" width="22.92" height="2.42" transform="translate(233.08 551.45) rotate(180)"/><rect class="cls-4" x="130.99" y="274.52" width="15.95" height="2.42" transform="translate(277.93 551.45) rotate(180)"/><rect class="cls-4" x="149.93" y="274.52" width="27.91" height="2.42" transform="translate(327.77 551.45) rotate(180)"/><rect class="cls-4" x="95.11" y="284.27" width="10.71" height="2.42" transform="matrix(-1, 0, 0, -1, 200.93, 570.95)"/><rect class="cls-4" x="108.73" y="284.27" width="25.31" height="2.42" transform="translate(242.78 570.95) rotate(180)"/><rect class="cls-4" x="138.59" y="284.27" width="10.8" height="2.42" transform="translate(287.98 570.95) rotate(180)"/><rect class="cls-4" x="152.33" y="284.27" width="25.53" height="2.42" transform="translate(330.2 570.95) rotate(180)"/><rect class="cls-4" x="95.11" y="279.39" width="25.31" height="2.42" transform="translate(215.53 561.2) rotate(180)"/><rect class="cls-4" x="125.62" y="279.39" width="27.95" height="2.42" transform="translate(279.19 561.2) rotate(180)"/><rect class="cls-4" x="157.73" y="279.39" width="20.1" height="2.42" transform="matrix(-1, 0, 0, -1, 335.56, 561.2)"/><rect class="cls-4" x="383.09" y="102.12" width="15.24" height="2.42" transform="translate(781.43 206.66) rotate(180)"/><rect class="cls-4" x="399.66" y="102.12" width="7.29" height="2.42" transform="translate(806.61 206.66) rotate(180)"/><rect class="cls-4" x="408.94" y="102.12" width="17.89" height="2.42" transform="translate(835.76 206.66) rotate(180)"/><rect class="cls-4" x="378.49" y="106.81" width="15.24" height="2.42" transform="translate(772.22 216.02) rotate(180)"/><rect class="cls-4" x="395.72" y="106.8" width="10.6" height="2.42" transform="translate(802.03 216.02) rotate(180)"/><rect class="cls-4" x="408.31" y="106.8" width="18.55" height="2.42" transform="translate(835.17 216.02) rotate(180)"/><rect class="cls-4" x="206" y="251.82" width="23.87" height="2.44" transform="translate(435.87 506.09) rotate(180)"/><rect class="cls-4" x="232.85" y="251.82" width="56.69" height="2.44" transform="translate(522.4 506.09) rotate(180)"/><rect class="cls-4" x="327.35" y="262.01" width="13.9" height="2.44" transform="translate(668.6 526.46) rotate(180)"/><rect class="cls-4" x="345.04" y="262.01" width="32.85" height="2.44" transform="translate(722.92 526.46) rotate(180)"/><rect class="cls-4" x="382.94" y="262.01" width="32.61" height="2.44" transform="matrix(-1, 0, 0, -1, 798.49, 526.46)"/><rect class="cls-4" x="206" y="261.98" width="50.72" height="2.44" transform="translate(462.72 526.4) rotate(180)"/><rect class="cls-4" x="264.18" y="261.98" width="20.89" height="2.44" transform="translate(549.25 526.4) rotate(180)"/><rect class="cls-4" x="289.54" y="261.98" width="34.31" height="2.44" transform="translate(613.41 526.4) rotate(180)"/><rect class="cls-4" x="325.49" y="256.85" width="20.96" height="2.44" transform="translate(671.94 516.14) rotate(180)"/><rect class="cls-4" x="349.07" y="256.85" width="49.78" height="2.44" transform="translate(747.91 516.14) rotate(180)"/><rect class="cls-4" x="402.04" y="256.88" width="18.5" height="2.44" transform="translate(822.58 516.2) rotate(180)"/><rect class="cls-4" x="206" y="256.97" width="17.02" height="2.44" transform="translate(429.01 516.38) rotate(180)"/><rect class="cls-4" x="227.65" y="256.97" width="40.22" height="2.44" transform="translate(495.53 516.38) rotate(180)"/><rect class="cls-4" x="274.06" y="256.97" width="24.75" height="2.44" transform="translate(572.88 516.38) rotate(180)"/><rect class="cls-4" x="305" y="256.97" width="15.47" height="2.44" transform="translate(625.47 516.38) rotate(180)"/><rect class="cls-4" x="206" y="282.34" width="22.12" height="2.44" transform="translate(434.12 567.12) rotate(180)"/><rect class="cls-4" x="230.88" y="282.34" width="52.53" height="2.44" transform="translate(514.29 567.12) rotate(180)"/><rect class="cls-4" x="310.76" y="282.34" width="42.79" height="2.44" transform="translate(664.32 567.12) rotate(180)"/><rect class="cls-4" x="358.33" y="282.34" width="53.75" height="2.44" transform="translate(770.42 567.12) rotate(180)"/><rect class="cls-4" x="287.88" y="282.34" width="17.69" height="2.44" transform="translate(593.45 567.12) rotate(180)"/><rect class="cls-4" x="206" y="302.68" width="15.28" height="2.44" transform="translate(427.29 607.81) rotate(180)"/><rect class="cls-4" x="223.19" y="302.68" width="21.02" height="2.44" transform="translate(467.41 607.81) rotate(180)"/><rect class="cls-4" x="247.08" y="302.68" width="8.6" height="2.44" transform="translate(502.75 607.81) rotate(180)"/><rect class="cls-4" x="259.49" y="302.68" width="19.11" height="2.44" transform="translate(538.1 607.81) rotate(180)"/><rect class="cls-4" x="284.63" y="302.69" width="28.83" height="2.44" transform="translate(598.1 607.81) rotate(180)"/><rect class="cls-4" x="317.39" y="302.68" width="11.79" height="2.44" transform="translate(646.58 607.81) rotate(180)"/><rect class="cls-4" x="365.79" y="302.68" width="11.79" height="2.44" transform="translate(743.38 607.81) rotate(180)"/><rect class="cls-4" x="334.42" y="302.68" width="26.21" height="2.44" transform="translate(695.05 607.81) rotate(180)"/><rect class="cls-4" x="382.83" y="302.68" width="44.37" height="2.44" transform="translate(810.03 607.81) rotate(180)"/><rect class="cls-4" x="249.65" y="297.6" width="18.01" height="2.44" transform="translate(517.32 597.64) rotate(180)"/><rect class="cls-4" x="269.91" y="297.6" width="24.77" height="2.44" transform="translate(564.6 597.64) rotate(180)"/><rect class="cls-4" x="298.06" y="297.6" width="10.13" height="2.44" transform="translate(606.25 597.64) rotate(180)"/><rect class="cls-4" x="312.69" y="297.6" width="36.56" height="2.44" transform="translate(661.95 597.64) rotate(180)"/><rect class="cls-4" x="355.63" y="297.6" width="38.28" height="2.44" transform="translate(749.55 597.63) rotate(180)"/><rect class="cls-4" x="399.93" y="297.6" width="27.27" height="2.44" transform="translate(827.13 597.63) rotate(180)"/><rect class="cls-4" x="206" y="297.6" width="41.08" height="2.44" transform="translate(453.08 597.64) rotate(180)"/><rect class="cls-4" x="247.95" y="292.48" width="8.6" height="2.44" transform="translate(504.5 587.4) rotate(180)"/><rect class="cls-4" x="260.37" y="292.48" width="19.11" height="2.44" transform="translate(539.84 587.4) rotate(180)"/><rect class="cls-4" x="206" y="292.54" width="10.51" height="2.44" transform="translate(422.51 587.53) rotate(180)"/><rect class="cls-4" x="219.37" y="292.54" width="24.84" height="2.44" transform="translate(463.59 587.53) rotate(180)"/><rect class="cls-4" x="325.75" y="292.48" width="8.6" height="2.44" transform="translate(660.1 587.4) rotate(180)"/><rect class="cls-4" x="338.17" y="292.48" width="39.1" height="2.44" transform="translate(715.44 587.4) rotate(180)"/><rect class="cls-4" x="385.04" y="292.48" width="37.98" height="2.44" transform="translate(808.05 587.4) rotate(180)"/><rect class="cls-4" x="283.8" y="292.54" width="10.51" height="2.44" transform="translate(578.12 587.53) rotate(180)"/><rect class="cls-4" x="297.18" y="292.54" width="24.84" height="2.44" transform="translate(619.19 587.53) rotate(180)"/><rect class="cls-4" x="206" y="277.25" width="54.32" height="2.44" transform="translate(466.32 556.95) rotate(180)"/><rect class="cls-4" x="264.11" y="277.25" width="10.11" height="2.44" transform="translate(538.33 556.95) rotate(180)"/><rect class="cls-4" x="279.27" y="277.25" width="29.06" height="2.44" transform="translate(587.6 556.95) rotate(180)"/><rect class="cls-4" x="315.7" y="277.25" width="54.32" height="2.44" transform="translate(685.73 556.95) rotate(180)"/><rect class="cls-4" x="373.81" y="277.25" width="10.11" height="2.44" transform="translate(757.74 556.95) rotate(180)"/><rect class="cls-4" x="388.97" y="277.25" width="29.06" height="2.44" transform="translate(807.01 556.95) rotate(180)"/><rect class="cls-4" x="206" y="287.45" width="15.21" height="2.44" transform="translate(427.21 577.34) rotate(180)"/><rect class="cls-4" x="225.35" y="287.45" width="35.94" height="2.44" transform="translate(486.65 577.34) rotate(180)"/><rect class="cls-4" x="266.82" y="287.45" width="22.12" height="2.44" transform="translate(555.76 577.33) rotate(180)"/><rect class="cls-4" x="293.3" y="287.41" width="14.06" height="2.44" transform="translate(600.67 577.25) rotate(180)"/><rect class="cls-4" x="311.2" y="287.4" width="33.24" height="2.44" transform="translate(655.64 577.25) rotate(180)"/><rect class="cls-4" x="348.27" y="287.4" width="21.73" height="2.44" transform="translate(718.28 577.25) rotate(180)"/><rect class="cls-4" x="375.12" y="287.4" width="45.42" height="2.44" transform="translate(795.66 577.25) rotate(180)"/><rect class="cls-4" x="206" y="267.19" width="20.45" height="2.44" transform="translate(432.45 536.82) rotate(180)"/><rect class="cls-4" x="229.01" y="267.19" width="29.4" height="2.44" transform="translate(487.42 536.82) rotate(180)"/><rect class="cls-4" x="260.97" y="267.19" width="14.06" height="2.44" transform="translate(536 536.82) rotate(180)"/><rect class="cls-4" x="278.87" y="267.19" width="34.52" height="2.44" transform="translate(592.25 536.82) rotate(180)"/><rect class="cls-4" x="318.62" y="266.98" width="54.97" height="2.44" transform="translate(692.21 536.39) rotate(180)"/><rect class="cls-4" x="377.43" y="266.97" width="8.95" height="2.44" transform="translate(763.8 536.39) rotate(180)"/><rect class="cls-4" x="390.21" y="266.97" width="29.4" height="2.44" transform="translate(809.82 536.39) rotate(180)"/><rect class="cls-4" x="206" y="272.22" width="13.9" height="2.44" transform="translate(425.9 546.89) rotate(180)"/><rect class="cls-4" x="223.69" y="272.22" width="32.85" height="2.44" transform="translate(480.22 546.89) rotate(180)"/><rect class="cls-4" x="260.32" y="272.22" width="63.54" height="2.44" transform="translate(584.18 546.89) rotate(180)"/><rect class="cls-4" x="327.91" y="272.11" width="29.4" height="2.44" transform="translate(685.23 546.66) rotate(180)"/><rect class="cls-4" x="361.15" y="272.11" width="20.45" height="2.44" transform="translate(742.76 546.66) rotate(180)"/><rect class="cls-4" x="385.44" y="272.11" width="35.79" height="2.44" transform="translate(806.67 546.66) rotate(180)"/><rect class="cls-4" x="334.18" y="312.87" width="14.68" height="2.44" transform="translate(683.04 628.18) rotate(180)"/><rect class="cls-4" x="352.86" y="312.87" width="34.69" height="2.44" transform="translate(740.42 628.18) rotate(180)"/><rect class="cls-4" x="392.89" y="312.87" width="34.45" height="2.44" transform="translate(820.23 628.18) rotate(180)"/><rect class="cls-4" x="206" y="312.84" width="53.58" height="2.44" transform="translate(465.58 628.12) rotate(180)"/><rect class="cls-4" x="267.46" y="312.84" width="22.06" height="2.44" transform="translate(556.98 628.12) rotate(180)"/><rect class="cls-4" x="294.25" y="312.84" width="36.24" height="2.44" transform="translate(624.74 628.12) rotate(180)"/><rect class="cls-4" x="206" y="328.11" width="56.71" height="2.44" transform="translate(468.71 658.67) rotate(180)"/><rect class="cls-4" x="266.66" y="328.11" width="10.55" height="2.44" transform="matrix(-1, 0, 0, -1, 543.88, 658.67)"/><rect class="cls-4" x="282.49" y="328.11" width="30.33" height="2.44" transform="translate(595.31 658.67) rotate(180)"/><rect class="cls-4" x="320.52" y="328.11" width="56.71" height="2.44" transform="translate(697.74 658.67) rotate(180)"/><rect class="cls-4" x="381.18" y="328.11" width="10.55" height="2.44" transform="matrix(-1, 0, 0, -1, 772.91, 658.67)"/><rect class="cls-4" x="397" y="328.11" width="30.33" height="2.44" transform="translate(824.34 658.67) rotate(180)"/><rect class="cls-4" x="206" y="318.05" width="21.19" height="2.44" transform="translate(433.19 638.54) rotate(180)"/><rect class="cls-4" x="229.84" y="318.05" width="30.47" height="2.44" transform="translate(490.15 638.54) rotate(180)"/><rect class="cls-4" x="262.96" y="318.05" width="14.57" height="2.44" transform="translate(540.49 638.54) rotate(180)"/><rect class="cls-4" x="281.5" y="318.05" width="35.76" height="2.44" transform="translate(598.77 638.54) rotate(180)"/><rect class="cls-4" x="322.69" y="317.84" width="56.96" height="2.44" transform="translate(702.35 638.11) rotate(180)"/><rect class="cls-4" x="383.62" y="317.83" width="9.27" height="2.44" transform="translate(776.52 638.11) rotate(180)"/><rect class="cls-4" x="396.87" y="317.83" width="30.47" height="2.44" transform="translate(824.21 638.11) rotate(180)"/><rect class="cls-4" x="206" y="323.08" width="14.29" height="2.44" transform="translate(426.29 648.61) rotate(180)"/><rect class="cls-4" x="224.19" y="323.08" width="33.78" height="2.44" transform="translate(482.16 648.61) rotate(180)"/><rect class="cls-4" x="261.86" y="323.08" width="65.34" height="2.44" transform="translate(589.07 648.61) rotate(180)"/><rect class="cls-4" x="331.37" y="322.97" width="30.24" height="2.44" transform="translate(692.98 648.38) rotate(180)"/><rect class="cls-4" x="365.55" y="322.97" width="21.03" height="2.44" transform="translate(752.14 648.38) rotate(180)"/><rect class="cls-4" x="390.53" y="322.97" width="36.81" height="2.44" transform="translate(817.87 648.38) rotate(180)"/><rect class="cls-4" x="321.24" y="307.71" width="20.21" height="2.44" transform="translate(662.7 617.86) rotate(180)"/><rect class="cls-4" x="343.98" y="307.71" width="48.01" height="2.44" transform="translate(735.97 617.86) rotate(180)"/><rect class="cls-4" x="395.07" y="307.74" width="14.35" height="2.44" transform="translate(804.49 617.92) rotate(180)"/><rect class="cls-4" x="412.68" y="307.74" width="14.35" height="2.44" transform="translate(839.72 617.92) rotate(180)"/><rect class="cls-4" x="206" y="307.83" width="16.41" height="2.44" transform="translate(428.41 618.1) rotate(180)"/><rect class="cls-4" x="226.89" y="307.83" width="38.79" height="2.44" transform="translate(492.56 618.1) rotate(180)"/><rect class="cls-4" x="271.64" y="307.83" width="23.87" height="2.44" transform="translate(567.16 618.1) rotate(180)"/><rect class="cls-4" x="301.48" y="307.83" width="14.92" height="2.44" transform="matrix(-1, 0, 0, -1, 617.88, 618.1)"/><text class="cls-5" transform="translate(154.95 132.2)">NEWS<tspan class="cls-6" x="105.75" y="0">P</tspan><tspan x="126.33" y="0">APER</tspan></text><rect class="cls-7" x="206" y="167.47" width="92.91" height="76.83"/><path class="cls-4" d="M281.18,200.76s0-.06,0-.09a.34.34,0,0,1,0-.1h0a5.62,5.62,0,0,0-.48-1.64c-.24-.42-.47-1.06-1.07-1.27a1.49,1.49,0,0,0-1.23.19,1.21,1.21,0,0,0-.56.9c0,.46.25,1.08-.52,1.29-.34.1-.69.18-1,.25a14.23,14.23,0,0,1-3.79.24c-.45,0-.89-.09-1.33-.16a19.12,19.12,0,0,0-1.85-4.93,11.23,11.23,0,0,1,1.33-.81c.27-.14.55-.27.82-.39.63-.26.77.3,1,.58a1,1,0,0,0,.84.31,1.27,1.27,0,0,0,.92-.53,1.94,1.94,0,0,0,0-1.4,11,11,0,0,0-.55-1.34.16.16,0,0,1,0-.07.21.21,0,0,1,0-.06h0a5,5,0,0,0-.88-1.16c-.31-.27-.69-.71-1.22-.69a1.26,1.26,0,0,0-.93.51,1,1,0,0,0-.17.87c.12.38.53.79,0,1.18q-.36.27-.75.51a13,13,0,0,1-1.43.75,20.18,20.18,0,0,0-1.83-2.29c.13-.3.28-.61.44-.91a13.94,13.94,0,0,1,2.19-3.08c.25-.26.5-.51.76-.75.59-.53,1,0,1.38.25a1.25,1.25,0,0,0,1.07,0A1.51,1.51,0,0,0,273,186a2.24,2.24,0,0,0-.53-1.57,12.15,12.15,0,0,0-1.15-1.28l-.07-.06-.07-.06h0a5.37,5.37,0,0,0-1.43-.94,2.29,2.29,0,0,0-1.64-.3,1.53,1.53,0,0,0-.83.93,1.24,1.24,0,0,0,.16,1.05c.27.37.89.66.44,1.32-.2.29-.41.58-.63.86a14.46,14.46,0,0,1-2.76,2.6c-.25.17-.51.35-.77.51a19.72,19.72,0,0,0-4.24-2.42,11.55,11.55,0,0,1,.57-1.72,8.67,8.67,0,0,1,.38-.82c.3-.6.77-.26,1.16-.22a1,1,0,0,0,.85-.31,1.21,1.21,0,0,0,.36-1c-.08-.53-.57-.83-.89-1.09a11,11,0,0,0-1.29-.67l-.08,0-.07,0h0a5.05,5.05,0,0,0-1.42-.33,1.93,1.93,0,0,0-1.39.25,1.22,1.22,0,0,0-.37,1,1,1,0,0,0,.43.78c.33.22.91.27.75.92-.07.29-.16.58-.25.86a11.51,11.51,0,0,1-.71,1.7,19,19,0,0,0-3.63-.71c-.06-.25-.13-.5-.18-.76a13.87,13.87,0,0,1-.32-3.76c0-.35.05-.7.1-1.05.1-.79.76-.6,1.22-.7a1.2,1.2,0,0,0,.81-.68,1.43,1.43,0,0,0,0-1.23c-.29-.56-1-.7-1.42-.87a12.11,12.11,0,0,0-1.71-.24h-.18a5.51,5.51,0,0,0-1.72.19c-.46.15-1.14.27-1.44.82a1.45,1.45,0,0,0,0,1.24,1.22,1.22,0,0,0,.8.7c.45.11,1.11-.06,1.19.73,0,.35.06.71.07,1.06a14.2,14.2,0,0,1-.43,3.75c-.06.25-.14.5-.21.74a20.37,20.37,0,0,0-4.08.72,11.65,11.65,0,0,1-.69-1.72,6.46,6.46,0,0,1-.24-.86c-.16-.66.42-.7.75-.91a1,1,0,0,0,.45-.78,1.22,1.22,0,0,0-.37-1,1.91,1.91,0,0,0-1.38-.27,10.27,10.27,0,0,0-1.43.31l-.07,0-.07,0h0a4.51,4.51,0,0,0-1.3.65c-.32.26-.83.55-.91,1.08a1.28,1.28,0,0,0,.35,1,1,1,0,0,0,.84.32c.39,0,.87-.38,1.17.22.13.27.26.55.37.83a11.84,11.84,0,0,1,.55,1.75,19,19,0,0,0-3.91,2.14l-.74-.53a13.83,13.83,0,0,1-2.67-2.68c-.22-.28-.42-.57-.62-.87-.43-.67.2-1,.48-1.31a1.16,1.16,0,0,0,.19-1,1.49,1.49,0,0,0-.79-1,2.31,2.31,0,0,0-1.65.25,12.21,12.21,0,0,0-1.46.9l-.08.06-.07.06h0a5.85,5.85,0,0,0-1.19,1.24,2.32,2.32,0,0,0-.58,1.55,1.5,1.5,0,0,0,.79,1,1.24,1.24,0,0,0,1.06,0c.42-.21.82-.76,1.39-.21.25.25.5.51.74.78a13.9,13.9,0,0,1,2.1,3.14c.14.3.28.6.4.9a19.58,19.58,0,0,0-2.14,2.57,12.13,12.13,0,0,1-1.46-.79q-.39-.24-.75-.51c-.54-.41-.13-.81,0-1.18a1,1,0,0,0-.16-.88,1.26,1.26,0,0,0-.92-.52c-.53,0-.91.41-1.23.68a10.3,10.3,0,0,0-.89,1.14,264063816284.14,264063816284.14,0,0,0-.08.14h0a4.66,4.66,0,0,0-.57,1.33,1.88,1.88,0,0,0,0,1.4,1.29,1.29,0,0,0,.91.54,1.07,1.07,0,0,0,.85-.29c.27-.29.42-.84,1-.57q.4.18.81.39a11.22,11.22,0,0,1,1.37.85,19.21,19.21,0,0,0-1.8,4.53c-.43.06-.87.1-1.31.12a14.64,14.64,0,0,1-3.78-.35c-.35-.08-.7-.17-1-.28-.76-.24-.46-.85-.48-1.31a1.19,1.19,0,0,0-.53-.92,1.52,1.52,0,0,0-1.22-.22c-.61.19-.86.82-1.11,1.24a11.69,11.69,0,0,0-.53,1.63.29.29,0,0,0,0,.09s0,.06,0,.09h0a5.75,5.75,0,0,0-.11,1.7,2.24,2.24,0,0,0,.57,1.56,1.5,1.5,0,0,0,1.22.25,1.21,1.21,0,0,0,.83-.66c.19-.42.14-1.1.94-1a9.55,9.55,0,0,1,1.06.12,14.19,14.19,0,0,1,3.65,1.06c.44.21.88.43,1.3.66,0,.28,0,.55,0,.83a20,20,0,0,0,.08,2.06q-.65.15-1.29.24c-.3,0-.6.07-.9.08-.68,0-.62-.53-.77-.89a1,1,0,0,0-.69-.57,1.29,1.29,0,0,0-1,.18,1.93,1.93,0,0,0-.5,1.31,10.74,10.74,0,0,0,.06,1.44s0,.06,0,.08a.22.22,0,0,0,0,.08h0a4.84,4.84,0,0,0,.42,1.38c.2.36.41.9.92,1.07a1.25,1.25,0,0,0,1-.17,1,1,0,0,0,.46-.76c0-.39-.22-.91.43-1.1a8.7,8.7,0,0,1,.88-.22c.41-.08.82-.15,1.24-.19a18.84,18.84,0,0,0,1.47,4.52,15.44,15.44,0,0,1-1.27,1.29,13.85,13.85,0,0,1-3.12,2.15c-.32.16-.65.31-1,.45-.74.3-.91-.36-1.22-.7a1.22,1.22,0,0,0-1-.36,1.5,1.5,0,0,0-1.09.61,2.25,2.25,0,0,0,0,1.65,13,13,0,0,0,.64,1.59.35.35,0,0,1,0,.08l.05.08h0a5.66,5.66,0,0,0,1,1.38c.36.32.81.84,1.44.83a1.45,1.45,0,0,0,1.09-.59,1.2,1.2,0,0,0,.22-1c-.13-.44-.61-.93,0-1.39.29-.21.59-.4.89-.59a14.18,14.18,0,0,1,3.49-1.51c.59-.16,1.2-.29,1.8-.39l.11,0a19.3,19.3,0,0,0,2,2.24,7.24,7.24,0,0,1-.62.73c-.2.22-.41.44-.63.64-.5.46-.83,0-1.17-.19a1,1,0,0,0-.9,0,1.25,1.25,0,0,0-.68.81,1.88,1.88,0,0,0,.46,1.32,10.64,10.64,0,0,0,1,1.07l.06.05.06,0h0a4.87,4.87,0,0,0,1.22.79,2,2,0,0,0,1.4.24,1.24,1.24,0,0,0,.68-.8,1,1,0,0,0-.14-.88c-.23-.31-.76-.56-.38-1.12.17-.24.34-.49.53-.72s.39-.48.6-.7a19.41,19.41,0,0,0,3.52,2.23c0,.16,0,.29,0,.33a16.41,16.41,0,0,1-.13,1.83,13.88,13.88,0,0,1-1,3.64c-.14.32-.3.64-.46,1-.37.7-.92.3-1.38.24a1.22,1.22,0,0,0-1,.36,1.46,1.46,0,0,0-.44,1.16c.08.62.67,1,1,1.29a12.79,12.79,0,0,0,1.52.81l.09,0,.08,0h0a5.4,5.4,0,0,0,1.68.4,2.24,2.24,0,0,0,1.64-.27,1.52,1.52,0,0,0,.46-1.16,1.24,1.24,0,0,0-.51-.93c-.39-.25-1.07-.32-.87-1.09q.13-.51.3-1a14.25,14.25,0,0,1,1.69-3.38c.36-.51.74-1,1.13-1.45l.24-.3a20.43,20.43,0,0,0,3.6.53c0,.26,0,.52,0,.78s0,.6-.07.9c-.08.67-.64.51-1,.6a1,1,0,0,0-.69.58,1.22,1.22,0,0,0,0,1c.25.47.82.58,1.21.72a9.92,9.92,0,0,0,1.45.19h.16a4.82,4.82,0,0,0,1.44-.17c.39-.13,1-.24,1.22-.71a1.19,1.19,0,0,0,0-1,1,1,0,0,0-.68-.59c-.38-.09-.94.06-1-.61,0-.3-.06-.6-.07-.9s0-.52,0-.78a19.19,19.19,0,0,0,3.32-.41l.24.31a16,16,0,0,1,1.08,1.48A13.73,13.73,0,0,1,259,229a9.17,9.17,0,0,1,.27,1c.18.77-.51.82-.9,1.07a1.18,1.18,0,0,0-.53.91,1.44,1.44,0,0,0,.41,1.16,2.27,2.27,0,0,0,1.64.33,12.56,12.56,0,0,0,1.69-.35l.08,0,.09,0h0a5.55,5.55,0,0,0,1.54-.76c.39-.3,1-.64,1.08-1.26a1.46,1.46,0,0,0-.4-1.18,1.21,1.21,0,0,0-1-.38c-.46,0-1,.43-1.37-.29a10.57,10.57,0,0,1-.43-1,13.86,13.86,0,0,1-.89-3.67,16.11,16.11,0,0,1-.08-1.83s0-.18,0-.34a19.38,19.38,0,0,0,3.82-2.3c.2.21.39.44.57.67s.35.48.52.73c.37.57-.16.8-.4,1.12a1,1,0,0,0-.15.87,1.26,1.26,0,0,0,.68.81,2,2,0,0,0,1.4-.22,11.06,11.06,0,0,0,1.23-.78l.06-.05.06,0h0a4.68,4.68,0,0,0,1-1.06,1.92,1.92,0,0,0,.48-1.31,1.25,1.25,0,0,0-.67-.82,1.05,1.05,0,0,0-.9,0c-.35.17-.68.65-1.17.18-.22-.21-.43-.42-.63-.65s-.4-.46-.59-.7a19.17,19.17,0,0,0,1.84-2l.12,0c.6.12,1.2.27,1.79.45a14,14,0,0,1,3.44,1.61c.3.19.59.4.88.61.63.49.14,1,0,1.4a1.18,1.18,0,0,0,.18,1,1.49,1.49,0,0,0,1.07.63c.63,0,1.09-.49,1.47-.8a11.21,11.21,0,0,0,1.06-1.34l.05-.08a.35.35,0,0,1,0-.08h0a5.86,5.86,0,0,0,.69-1.57,2.24,2.24,0,0,0,0-1.65,1.48,1.48,0,0,0-1.06-.65,1.23,1.23,0,0,0-1,.34c-.32.33-.51,1-1.24.66-.32-.14-.64-.3-1-.47a14.51,14.51,0,0,1-3.06-2.24,15.61,15.61,0,0,1-1.23-1.35,19.57,19.57,0,0,0,1.67-4.81c.4,0,.79.12,1.18.2s.58.14.87.23c.65.19.4.71.42,1.1a1,1,0,0,0,.45.77,1.25,1.25,0,0,0,1,.18c.51-.16.72-.7.93-1.06a11.18,11.18,0,0,0,.44-1.37s0,0,0-.08,0-.05,0-.08h0a4.47,4.47,0,0,0,.08-1.44,1.89,1.89,0,0,0-.49-1.32,1.24,1.24,0,0,0-1-.19,1,1,0,0,0-.7.56c-.16.36-.11.93-.78.89-.3,0-.61,0-.91-.09s-.81-.14-1.22-.24a16.37,16.37,0,0,0,.1-1.72c0-.27,0-.55,0-.82.43-.23.88-.44,1.34-.63a14.35,14.35,0,0,1,3.68-1c.35,0,.71-.07,1.07-.09.8,0,.72.65.9,1.07a1.2,1.2,0,0,0,.81.68,1.51,1.51,0,0,0,1.23-.2c.5-.38.52-1.07.61-1.54A11.48,11.48,0,0,0,281.18,200.76Z"/><path class="cls-8" d="M239.81,205.74v0a1.51,1.51,0,0,1-.49,1.2,1.89,1.89,0,0,1-1.35.46,1.82,1.82,0,0,1-1.4-.58,2.08,2.08,0,0,1-.53-1.48v-.93a2.08,2.08,0,0,1,.53-1.48,1.76,1.76,0,0,1,1.38-.58,2,2,0,0,1,1.37.44,1.47,1.47,0,0,1,.49,1.21v0H239a1,1,0,0,0-.27-.75A1.07,1.07,0,0,0,238,203a1,1,0,0,0-.8.4,1.67,1.67,0,0,0-.29,1v.94a1.64,1.64,0,0,0,.3,1,1,1,0,0,0,.81.39.93.93,0,0,0,1-1Z"/><path class="cls-8" d="M244.5,205.33a2.09,2.09,0,0,1-.57,1.5,2,2,0,0,1-1.48.59,1.9,1.9,0,0,1-1.44-.59,2.08,2.08,0,0,1-.56-1.5v-.88A2.1,2.1,0,0,1,241,203a1.9,1.9,0,0,1,1.45-.59,1.94,1.94,0,0,1,1.48.59,2.07,2.07,0,0,1,.57,1.49Zm-.83-.89a1.49,1.49,0,0,0-.33-1,1.08,1.08,0,0,0-.89-.4,1,1,0,0,0-.86.4,1.54,1.54,0,0,0-.32,1v.89a1.58,1.58,0,0,0,.32,1,1.06,1.06,0,0,0,.86.4,1.1,1.1,0,0,0,.9-.4,1.58,1.58,0,0,0,.32-1Z"/><path class="cls-8" d="M246.89,206l.09.36h0l.09-.35,1.18-3.58h.88l-1.77,4.91h-.78l-1.77-4.91h.88Z"/><path class="cls-8" d="M250.61,207.35h-.82v-4.91h.82Z"/><path class="cls-8" d="M251.72,207.35v-4.91h1.63a2.11,2.11,0,0,1,1.54.58,2,2,0,0,1,.58,1.5v.75a2,2,0,0,1-.58,1.5,2.15,2.15,0,0,1-1.54.58Zm.83-4.26v3.6h.8a1.18,1.18,0,0,0,1-.4,1.5,1.5,0,0,0,.35-1v-.76a1.52,1.52,0,0,0-.35-1,1.21,1.21,0,0,0-1-.4Z"/><path class="cls-8" d="M258.4,205.59h-2v-.66h2Z"/><path class="cls-8" d="M261.51,207.35h-.83v-4.16h-1.05v-.65l1.88-.17Z"/><path class="cls-8" d="M264.66,206.76a.87.87,0,0,0,.69-.3,1.21,1.21,0,0,0,.27-.84v-.35a1.09,1.09,0,0,1-.4.34,1.19,1.19,0,0,1-.51.11,1.42,1.42,0,0,1-1.1-.44,2,2,0,0,1,.05-2.44,1.49,1.49,0,0,1,1.12-.47,1.6,1.6,0,0,1,1.21.48,1.9,1.9,0,0,1,.46,1.35v1.39a1.7,1.7,0,0,1-1.79,1.83,2.55,2.55,0,0,1-.54-.06,2.16,2.16,0,0,1-.51-.16l.14-.62a1.8,1.8,0,0,0,.43.14A2.33,2.33,0,0,0,264.66,206.76Zm.13-1.68a1,1,0,0,0,.51-.12.82.82,0,0,0,.32-.32v-.58a1.18,1.18,0,0,0-.22-.77.73.73,0,0,0-.6-.27.65.65,0,0,0-.55.3,1.41,1.41,0,0,0,0,1.48A.64.64,0,0,0,264.79,205.08Z"/></svg>