<svg id="Layer_1" data-name="Layer 1" xmlns="http://www.w3.org/2000/svg" viewBox="0 0 512 400"><defs><style>.cls-1{opacity:0.3;}.cls-13,.cls-2{fill:#c7c2b5;}.cls-18,.cls-19,.cls-2,.cls-3,.cls-4,.cls-5{stroke:#333;stroke-miterlimit:10;}.cls-18,.cls-2,.cls-3,.cls-4,.cls-5{stroke-width:0.87px;}.cls-3,.cls-7{fill:#f4f0df;}.cls-4,.cls-8{fill:#df771f;}.cls-5,.cls-6{fill:#ff912a;}.cls-9{fill:#2c1f21;}.cls-10{fill:#2e1e20;}.cls-11{fill:#ffdd7c;}.cls-12{fill:#ceb062;}.cls-14{fill:#613e40;}.cls-15{fill:#4a9544;}.cls-16{fill:#347230;}.cls-17{fill:#fff;}.cls-18,.cls-19{fill:none;}.cls-19{stroke-width:0.85px;}</style></defs><ellipse class="cls-1" cx="244.39" cy="356.75" rx="133" ry="25"/><path class="cls-2" d="M136.45,359c.56-8.08,4.42-17.95,10.46-20.32l.91-.36-1-.11a17.36,17.36,0,0,0-2-.12,16,16,0,0,0-2.79.24c-6.27,1.14-10.82,11.24-11.43,19.94-.22,3.13.64,5.57,2.57,7.26a11.41,11.41,0,0,0,7.35,2.68l.16-.46a8.45,8.45,0,0,1-1.52-1.07C137.13,364.84,136.22,362.26,136.45,359Z"/><path class="cls-2" d="M145.32,363.5c-1.19-3.68,2.74-14.58,4.66-17.7a12,12,0,0,1,7.15-5l.61-.15-.54-.31a15.29,15.29,0,0,0-7.36-1.94,14.23,14.23,0,0,0-2.83.29c-5.78,1.16-10,11.43-10.52,20.29-.21,3.18.59,5.66,2.37,7.38,2.34,2.27,6,2.74,8.58,2.74h.88l.2.1.26-.42A10.3,10.3,0,0,1,145.32,363.5Z"/><path class="cls-3" d="M139.34,142s1.48,13-2.35,32.78,19.64,53.55,19.64,53.55l49.22-6.67,9-89.11L196.5,118.38,163.16,120Z"/><path class="cls-4" d="M200.1,262.33l0,.18c-.5,3.11-3,19.12-3.51,29.87,0,.23,0,.47,0,.71-.07,2.14-.14,4.6-.22,7.25-.32,12.64-.42,29.44-.26,34,.11,3.22-1,5.84-2.29,8.88a41.41,41.41,0,0,0-2.76,8.07,36.86,36.86,0,0,0-.61,5.68c-.22,4.39-.42,8.15-4.66,10.64l-.17.1a25.07,25.07,0,0,0-1.49-6.6c-.15-.4-.3-.78-.46-1.17s-.43-1-.67-1.53a10.37,10.37,0,0,0-.49-.95l-.14-.26c-.08-.12-.18-.31-.22-.37-.31-.58-.63-1.13-1-1.69-4.12-7-11-13.49-19.41-14.61a12.61,12.61,0,0,0-1.74-.11h-1.05l.25-.39a3.31,3.31,0,0,0,.4-.95l0-.14.14,0a18.4,18.4,0,0,1,5.25-.74c.59,0,1.16,0,1.69.07a18.65,18.65,0,0,0-2.8-.2,19.25,19.25,0,0,0-3.87.39l-.33.08,0-.35c.19-1.72.42-4.09.62-6.67.11-1.26.2-2.55.27-3.85.15-2.28.22-4.55.2-6.52,0-.64-.05-1.31-.12-2a48.12,48.12,0,0,0-1-6.09c-.7-3.21-1.71-7-2.93-11.52-1.43-5.35-3.18-11.86-5.11-19.89l-1.33-5.74c-.67-3-1.25-5.8-1.76-8.45-.13-.64-.25-1.26-.37-1.89h0c-1-5.56-1.79-10.36-2.38-14.51-.27-1.89-.51-3.64-.72-5.27,0-.2-.06-.41-.09-.6-.54-4.06-1-7.23-1.5-9.56S142,230,140.9,226.06c-.94-3.34-2-7-2.93-10.7a128.42,128.42,0,0,1-2.86-13.22l-.06-.47c-1-7.62-.11-18.51,2.6-32.36.25-1.27.5-2.48.73-3.61l.49.06c-.93,21.78,7.59,40.38,15.11,54.16l.06.12c2,3.58,7.47,13.52,12.12,20.26l.15.2a40.72,40.72,0,0,0,3.92,5c5.27,5.35,9.6,8.62,20,12.7,3.14,1.25,6.42,2.62,9.74,4.07Z"/><path class="cls-5" d="M135.11,202.14a126.8,126.8,0,0,0,2.68,12.52c.63-.82-.79-8-.79-8s12.63,7.54,15.75,10.76c-6.71-13.14-14.7-32.42-13.88-51.62l-.49-.06c-.23,1.13-.48,2.34-.73,3.61-2.71,13.85-3.57,24.74-2.6,32.36Z"/><path class="cls-6" d="M179.78,353.07a57.61,57.61,0,0,0,.49-14.52c-.55-5.68-1.74-12.26-4.23-17.47-1.85-3.85-5.18-7.31-9.89-6.2a11.26,11.26,0,0,0-5.57,3.44c0,.28.07.57.1.84.07.69.11,1.36.12,2,0,2-.05,4.24-.2,6.52-.07,1.3-.16,2.59-.27,3.85-.2,2.58-.43,5-.62,6.67l0,.35-.08.44,0,.14a3.31,3.31,0,0,1-.4.95l-.25.39H160a12.61,12.61,0,0,1,1.74.11C169.24,341.57,175.58,346.91,179.78,353.07Z"/><path class="cls-2" d="M182.7,356.33a36.18,36.18,0,0,0-4.65-6.71c-5.48-6.38-12.05-9.88-18.5-9.88-.29,0-.58,0-.87,0a11.42,11.42,0,0,0-8.89,5.34c-1.94,3.17-5.92,14.49-4.79,18,1.37,4.24,3.85,6.4,8.28,7.23a75.76,75.76,0,0,0,12.1.85h0c5.29,0,12.78-.42,18.47-2.44a17.29,17.29,0,0,0,2.17-1l.09,0a25.36,25.36,0,0,0-3.18-11A2.57,2.57,0,0,1,182.7,356.33Z"/><path class="cls-7" d="M145.71,338.66a13.24,13.24,0,0,0-1.76-.12,12.87,12.87,0,0,0-2.57.25c-4.44.87-7.93,7-9.57,13.79a4.73,4.73,0,0,0,4.45,1C137.78,346.87,140.48,339.59,145.71,338.66Z"/><path class="cls-7" d="M157.21,340.13a18.17,18.17,0,0,0-7.37-1.77,14.23,14.23,0,0,0-2.83.29c-4.54.91-8.08,7.44-9.67,14.5a11.28,11.28,0,0,0,8.06,2.17C146.73,347.79,150.41,339.67,157.21,340.13Z"/><path class="cls-7" d="M179.66,352.85c-.48-.64-1.52-1.84-2-2.47-5.29-6.14-11.63-9.53-17.85-9.53l-.84,0a11,11,0,0,0-8.57,5.15,45.9,45.9,0,0,0-3.62,9.23C150.43,360,176.32,362,179.66,352.85Z"/><path class="cls-2" d="M250.75,352.29c-1.34-4.49-4.55-7.06-8.78-7.06-3.72,0-6.15,1.46-7.44,4.47-1.38,3.24-1.72,23.14,0,26.5.74,1.47,3.2,2.66,6.1,3a13.87,13.87,0,0,0,1.47.08c3.32,0,6.15-1.13,7.76-3.09C253.67,371.52,252,356.44,250.75,352.29Z"/><path class="cls-5" d="M362.94,289.63c-.94-4.59-1.26-6.75-2.83-17.15l-.55-3.72c-.25-1.62-.47-3.54-.67-5.74v-.24c-1.15-13.14-.91-32.82-.2-45.55.26-4.78,1-11.85,1.84-19.39,1.25-11.51,2.66-24.57,2.37-30.9a27.18,27.18,0,0,0-1.46-6.71s0,0,0,0c-.18-.6-.4-1.22-.64-1.85a84.9,84.9,0,0,0-4.29-9.69h0c-.48-1-1-1.95-1.56-2.94-4.57-8.33-10.45-16.58-15.79-21-.41-.34-.82-.66-1.22-.94-.64-.46-1.27-.9-1.91-1.29a33.15,33.15,0,0,0-12.61-5.07c-1.3-.25-2.66-.43-4.1-.56-1.79-.16-3.69-.23-5.74-.23-1.45,0-3,0-4.49.1h0c-1.1,0-2.19.1-3.28.14l-4.52.3a104.82,104.82,0,0,0-11.51,1.49c-1.69.31-3.35.64-5,1-2.54.54-5,1.14-7.39,1.75l-1.18.31c-3.69,1-7.06,1.94-9.87,2.76l-2.53.77c-.89.26-1.71.52-2.45.73l-2,.58a12.94,12.94,0,0,1-3.14.35,33.45,33.45,0,0,1-9.61-1.77l-.25.4c.6.58,1.19,1.18,1.75,1.74l1.23,1.24c-.42-.39-.87-.78-1.31-1.19-1.9-1.7-4-3.5-6-5.12-1.34-1.09-2.63-2.1-3.8-2.94a19.38,19.38,0,0,0-3.51-2.11,27.2,27.2,0,0,0-4.16-1.21c-1.45-.32-3-.6-4.58-.85-3.91-.62-7.64-1-8.8-1.1l-1.07,0,.1,1.37c.74,3.86.63,6.71,2,10.6-.39-3.33-1-7.87-2-12.37-.35-1.61-.75-3.23-1.2-4.78-.51-1.78-1.07-3.49-1.66-5.13a104,104,0,0,0-6-13.51L206.51,89c0,.73.18,3,.13,8,0,0-.25.17-.44-.62l-.69-2.15,0,6.23c-.56,5.33-.79,11.72-6.09,17,4.05-6.17,1.63-3.47,2-4.72l-1.66,2.75a22.65,22.65,0,0,1-5.82,5.69l-.16.11.07.18a104.69,104.69,0,0,1,4.66,14.2c.3,1.17.57,2.4.83,3.67a85.23,85.23,0,0,1,1.64,17.8c0,2-.11,4.14-.28,6.31,0,.14,0,.28,0,.42-.19,2.13-.45,4.33-.82,6.58a104.19,104.19,0,0,1-5,19.45c-5.51,15.3-.15,33.89,7.68,43.59l.51.62s-.17-2.15-.25-3.06c.26,2.22.55,4.65.85,7.17h0c.42,3.43.88,7,1.36,10.37.65,4.5,1.33,8.61,2,11.44,1.58,6.8,3.39,16.1,4.81,25.44.44,2.9.85,5.8,1.19,8.62.44,3.5.78,6.91,1,10.05.05.62.09,1.25.15,1.89.15,1.89.31,3.85.49,5.86,0,.53.09,1.07.14,1.61l0,.2c.25,2.84.51,5.76.74,8.69,0,.56.08,1.11.13,1.67.07,1.15.16,2.28.22,3.43h0c.08,1.36.16,2.71.22,4a82.29,82.29,0,0,1-.6,16.64l0,.32.32,0c.23,0,.48,0,.71,0a11,11,0,0,1,4.54,1.13l.16.07.12-.12a7.8,7.8,0,0,1,6.07-2.38c3.21,0,5.45,1,6.66,2.89l.22.33.21-.35c1.37-2.4,3.74-3.62,7-3.62a8.49,8.49,0,0,1,6.3,2.63l.16.17.18-.15a8.72,8.72,0,0,1,5-1.49c.23,0,.47,0,.69,0l.48,0-.25-.41c-3-5-3.25-8.44-3.25-15.57,0-.52,0-1.1,0-1.75,0-.49,0-1,.06-1.6.19-3.89.66-9.35,1.34-15.55.06-.7.15-1.4.23-2.11.52-4.66,1.15-9.67,1.86-14.69l.12-.81c.44-3,.9-6,1.39-9,.29-1.77.59-3.61.89-5.48q.21-1.49.45-3c.46-3.08.9-6.25,1.31-9.43v0c.2-1.45.38-2.88.55-4.34.42-3.4,2.45-6.25,2.77-9.53,0-.4-.78-1.8-.73-2.21.78-8.24,1.69-13.67,1.53-19.19,0-.52-.24-2.59-.28-3.16-.08-1.91-.4-4.15-.64-6.45-.74-7.29-4.78-28.37-4.87-30.19,1,6,3.25,19.54,4.32,30,.16,1.63.4,4.27.53,6.37,0,.6.06,1.17.07,1.72.08,2.38,0,5.24-.11,8.51V240l.21,0a6.29,6.29,0,0,0,1.32.13,17.17,17.17,0,0,0,6.3-1.71c6.67-2.79,12.33-4.66,18.23-4.66h.26A20.75,20.75,0,0,1,301.79,239l.36-.32-.46-.71a70.38,70.38,0,0,1,5.13,6.76c5.56,8.73,12.83,20.84,15.87,28.94,6.93,18.48,6.22,39.49,4.88,48a45.06,45.06,0,0,1-7,17.4l-.17.27.31.09a8.82,8.82,0,0,1,2.27,1.09l.13.09.15-.09a8.18,8.18,0,0,1,4.11-1.55l.78,0c4.91,0,7.18,2.4,7.92,3.44l.1.12.15,0a15.28,15.28,0,0,1,2.25-.17,10.88,10.88,0,0,1,6.16,1.68,10.73,10.73,0,0,1,2.15,2.16c.16.17.29.37.44.55l.1.15.48.68c.22.34.43.68.63,1h0a.55.55,0,0,1,.11.17,1.42,1.42,0,0,1,.11.18,17.56,17.56,0,0,1,2.13,5.37s.07.32.18.84a.11.11,0,0,0,0,.05c0,.1,0,.21.06.32.1.38.17.78.24,1.19s.13.74.19,1.13a29.54,29.54,0,0,1,.42,3l.06.78.4-.68c1.44-2.48,1.63-6,1.9-10.83.12-2.39.27-5.09.59-8.15a216.78,216.78,0,0,1,4.83-27c.37-1.65.76-3.34,1.15-5.12C363.46,298.24,364,294.67,362.94,289.63Zm-127.51,52a56.14,56.14,0,0,0-8.65.69,42.21,42.21,0,0,1,8.51-.86,43.13,43.13,0,0,1,7.54.66A56.3,56.3,0,0,0,235.43,341.63Zm92.2-5.45h-.95a23.57,23.57,0,0,1,2.81-.16,25.41,25.41,0,0,1,9,1.62A41.62,41.62,0,0,0,327.63,336.18Z"/><path class="cls-2" d="M151.21,152.34c9.84,4,21.65,2.47,30.59-3.07,6.26-3.87,11.79-10,15.95-16.5a113.5,113.5,0,0,0-3.86-11.19l-.11-.28-.25.16a23.54,23.54,0,0,1-7.95,3.26c.33-.18,3.66-1.73,4-2l-.43-.54c-3.71,1.27-11,3.63-16.23,4.2-7.08.77-14.33,4.84-17.93,8-2,3.31-4.24,7.84-9.13,9.43a22,22,0,0,1-6.32,1h-.24A49,49,0,0,0,151.21,152.34Z"/><path class="cls-2" d="M203.26,237.07c0-1-.19-2.19-.23-2.66v-.08l-.06-.06a44.9,44.9,0,0,1-8.44-16.55c-13.65,10.25-33.84,10.32-41.78-.34l1.28,2.39c.11.19,9.83,20.73,14.48,26.71,8.83,11.37,39.66,19,39.66,19S203.9,244.14,203.26,237.07Z"/><path class="cls-8" d="M362.41,289.63c-.94-4.59-1.26-6.75-2.83-17.15l-.55-3.72c-.25-1.62-.47-3.54-.67-5.74v-.24c-.26-3-.45-6.33-.58-9.85a35.28,35.28,0,0,1-4.18,7.47c-6.42,8.58-14.74,5-21.42-1.52-12.43-12-19.09-35.8-39.69-34.18-5.29.42-20.41,3.49-29,.39A152.63,152.63,0,0,0,257,196.65a0,0,0,1,0,0,0q1.83,13.59,3.94,27.19l-.25-.16c.15,1.63.36,4,.48,5.88,0,.6.06,1.17.07,1.72.08,2.38,0,5.24-.11,8.51V240l.21,0a6.29,6.29,0,0,0,1.32.13,17.17,17.17,0,0,0,6.3-1.71c6.67-2.79,12.33-4.66,18.23-4.66h.26A20.7,20.7,0,0,1,301.25,239l.37-.32-.46-.71a70.38,70.38,0,0,1,5.13,6.76c5.56,8.73,12.83,20.84,15.87,28.94a98.94,98.94,0,0,1,5.68,30.72c1.22-3.76,3.11-7.25,6.62-8.93,4.74-2.28,8.7.48,10.89,4.74,6.84,13.25,4,30.52.89,45.78l.14.18c.15.17.29.37.44.55a.65.65,0,0,0,.1.15l.48.68c.22.34.43.68.63,1h0a.82.82,0,0,1,.11.17,1.42,1.42,0,0,1,.11.18,17.56,17.56,0,0,1,2.13,5.37s.06.32.18.84a.11.11,0,0,0,0,.05,2,2,0,0,0,.06.32,10.9,10.9,0,0,1,.23,1.19c.07.35.14.74.2,1.13a29.54,29.54,0,0,1,.42,3l.06.78.4-.68c1.44-2.48,1.62-6,1.9-10.83.12-2.39.27-5.09.59-8.15a216.78,216.78,0,0,1,4.83-27l1.15-5.12C362.92,298.24,363.43,294.67,362.41,289.63Z"/><path class="cls-8" d="M261.71,228.52c0-.52,0-1.07-.08-1.64-.08-1.89-.39-8.21-.39-8.21S251,249.42,234.08,235.82c-6.33-5.1-22.69-32.65-28.49-30.24-5.1,2.11-5.1,6.54-10.56,9.28a45.9,45.9,0,0,0,7.87,15.84l.5.62s.55,3.6.61,4.11h0c.42,3.43.87,7,1.36,10.37.65,4.5,1.33,8.61,2,11.44,1.58,6.8,3.39,16.09,4.81,25.44.45,2.9.85,5.8,1.2,8.62.43,3.5.78,6.91,1,10.05,0,.62.08,1.25.15,1.89L216,323.68c1.09-14,13.94-16.54,22.21-12.71,10,4.63,6.09,23.6,13.58,33.95a9.34,9.34,0,0,1,1.7-.16q.36,0,.69,0l.48,0-.24-.41c-3-5-3.26-8.44-3.26-15.57,0-.52,0-1.1,0-1.75,0-.49,0-1,.06-1.6.19-3.89.65-9.35,1.33-15.55.06-.7.15-1.4.24-2.11.51-4.66,1.14-9.67,1.86-14.69,0-.27.07-.54.11-.81.44-3,.9-6,1.39-9,.3-1.77.6-3.61.89-5.48.15-1,.3-2,.46-3,.45-3.08.9-6.25,1.3-9.43v0c.2-1.45.39-2.88.56-4.34.42-3.4.79-6.78,1.11-10.06,0-.41.07-.81.12-1.22A186.56,186.56,0,0,0,261.71,228.52Z"/><path class="cls-5" d="M420.4,285.89a5,5,0,0,0-3.95-1.51,9,9,0,0,0-5.54,1.91,49,49,0,0,1-9.61,6,14.59,14.59,0,0,1-6.4,1.75c-3.49,0-6.83-1.88-11.18-6.27-6.64-6.73-8.51-18.23-11.62-37.28l-.3-1.81c-2.33-14.28-2.57-28.35-2.78-40.76-.09-5.23-.18-10.16-.42-14.56a91.11,91.11,0,0,0-4.76-23.87l-.48.07c-.08,6.82-1.26,17.7-2.41,28.32-.81,7.48-1.57,14.55-1.84,19.33-.71,12.75-.95,32.44.2,45.55,3.52,29.12,17,42.07,24.38,45.13a33.1,33.1,0,0,0,12.18,2.33h0A28.25,28.25,0,0,0,416,302.11C423.28,295.13,422.93,289,420.4,285.89Z"/><path class="cls-8" d="M419.38,285.08c-5.13,7.24-11.94,13.7-20.39,15.57-11.84,2.61-24.65-6.52-28.91-17.29-2.69-6.83-6-25.08-6.23-51.93-.1-9.52,0-19.06,0-28.58,0-5.23.24-18.43-.68-29.8-.45,4.93-1.67,19.53-2.25,24.88-.81,7.48-1.57,14.55-1.84,19.33-.71,12.75-.95,32.44.2,45.55,3.52,29.12,17,42.07,24.38,45.13a33.1,33.1,0,0,0,12.18,2.33h0A28.25,28.25,0,0,0,416,302.11c7.3-7,6.95-13.1,4.42-16.22A3.62,3.62,0,0,0,419.38,285.08Z"/><path class="cls-9" d="M367.75,185.46c-.28-1.86-.61-3.65-1-5.32a36,36,0,0,0-4.15,1.37c-.17,1.9-.37,3.91-.57,5.94C363.94,186.74,365.85,186.08,367.75,185.46Z"/><path class="cls-9" d="M369.61,213.89c0-1.12-.29-3.49-.31-4.59a66.71,66.71,0,0,0-9.84,1.35c-.12,1.46-.22,3.86-.3,5.09C362.21,214.65,366.17,214.26,369.61,213.89Z"/><path class="cls-9" d="M369.61,227.36q-.18-3.24-.28-6.39a66.79,66.79,0,0,0-10.54,3.5c-.06,1.74-.11,3.56-.16,5.4A89.34,89.34,0,0,1,369.61,227.36Z"/><path class="cls-9" d="M370.64,237.85c-.08-1.28-.14-2.8-.22-4.07-4,.26-8.23.63-11.91,2.87,0,1,0,3.4,0,4.44A22.24,22.24,0,0,1,370.64,237.85Z"/><path class="cls-9" d="M359.48,264c.34,2.62.77,5.1,1.27,7.46a43.53,43.53,0,0,1,13.72-7.06c-.35-1.86-.84-4.64-1.19-6.71C373.1,257.72,363.69,261.71,359.48,264Z"/><path class="cls-9" d="M377.15,275.65c-.4-1.28-.77-2.6-1.12-4a117.33,117.33,0,0,0-14.12,4.68,76,76,0,0,0,2.53,7.68A60.88,60.88,0,0,1,377.15,275.65Z"/><path class="cls-9" d="M372.3,251.77c-.07-.41-.13-.81-.2-1.23l-.3-1.81c-.22-1.35-.39-2.7-.58-4a39.65,39.65,0,0,0-12.6,4.36c.07,3,.18,5.94.34,8.7A50.57,50.57,0,0,1,372.3,251.77Z"/><path class="cls-9" d="M368.88,201c0-1.67-.09-3.31-.15-4.89-2.74.6-5.67.43-8.21,1.72-.14,1.35,0,3.93-.12,5.23C363.18,202.26,366,201.64,368.88,201Z"/><path class="cls-2" d="M257.75,347.7a8.41,8.41,0,0,0-4.64-1.26,10.17,10.17,0,0,0-5.44,1.45l-.22.16.18.2a11.51,11.51,0,0,1,2.17,3.91c1.09,3.31,3.15,17-.21,23l-.08.14.11.13a6.54,6.54,0,0,0,4.23,1.66c.2,0,.45,0,.73,0h0a10.39,10.39,0,0,0,7.72-3.4c1.78-1.94,2.38-6.1,1.64-11.42C263,355.8,260.32,349.37,257.75,347.7Z"/><path class="cls-2" d="M234.93,349.48l.06-.13-.08-.12c-1.58-2.21-4.82-3.21-7.25-3.21-4.57,0-7.85,1.77-10.12,10.38-2.2,8.38-2.21,15.51,0,19.07,1,1.65,3.59,2.88,6.56,3.15.38,0,.75.05,1.13.05a13.15,13.15,0,0,0,9.13-3.64l.1-.09,0-.14C233.17,369,233.5,352.69,234.93,349.48Z"/><path class="cls-2" d="M306.33,240.61l-.15-.22c-3.36-5-9.81-8.19-16.83-8.25h-.24c-6.21,0-12.14,2-19.14,5a17.85,17.85,0,0,1-6.67,1.84,8,8,0,0,1-1.31-.11l-.29-.05v.29c-.29,6.09-.9,13.27-1.8,21.35l-.05.4.38-.12c14.8-4.95,31.56-10.56,45.89-19.95Z"/><path class="cls-2" d="M282.62,348.19l0-.29c1.69-10.55,5.58-13.27,8.55-13.69a14,14,0,0,1,1.45-.1v-.25h0l0-.27a35.89,35.89,0,0,0-8.08-2.13,7,7,0,0,0-1-.08,6,6,0,0,0-3.56,1.16c-3.52,2.52-6.11,10.2-6.56,14.54a7.48,7.48,0,0,0,3,7.34,9.75,9.75,0,0,0,5.86,1.59,18,18,0,0,0,3.51-.36l.61-.12-.49-.31A6.69,6.69,0,0,1,282.62,348.19Z"/><path class="cls-4" d="M323.4,271.82C320,263,311.81,249,306.33,240.71l-.33-.59-7.93,5.2A127.49,127.49,0,0,1,275,255.67l-.24.08.09.24a105.2,105.2,0,0,0,13.26,21.12c.82,1,1.63,2,2.43,3l.1.13c5.38,6.59,10,12.28,10.85,17.58.95,6.15-1.28,20.2-3.64,26.2a35.31,35.31,0,0,1-3.81,7.74l-.26.35.44,0a9,9,0,0,1,3.73,1.3,13.66,13.66,0,0,0-4.12-1.24l-.14,0-.09.11a4.83,4.83,0,0,1-2.06,1.53l-.69.23.69.24a13,13,0,0,1,3.91,2.36s0,0,0,0a23.63,23.63,0,0,1,2.09,2,30.73,30.73,0,0,1,5.82,9.94s.28-.6.28-.6a12.93,12.93,0,0,1,9-7.27,8.32,8.32,0,0,1,4.87-2.08h.72a12.52,12.52,0,0,1,2.57.25l.18,0,.09-.14a45.39,45.39,0,0,0,7.42-17.94C329.92,312.15,330.65,290.69,323.4,271.82Z"/><path class="cls-2" d="M295.68,335.46l-.46-.34a8,8,0,0,0-5.82-2.3,8.84,8.84,0,0,0-1.83.2c-4.28.94-6.11,8.46-6.9,14.61a7.9,7.9,0,0,0,5.55,8.59,21.48,21.48,0,0,0,5.69.51h0c3.43,0,7.25-.27,9.23-.43h.2l0-.43c0-.33.06-.66.11-1a30.84,30.84,0,0,1,1.76-6.67,21.37,21.37,0,0,0-.89-2.47A29.31,29.31,0,0,0,295.68,335.46Z"/><path class="cls-2" d="M217.76,356.29a20.17,20.17,0,0,1,3.35-7.47l.21-.26-.32-.13a12.37,12.37,0,0,0-4.69-1.08,7.72,7.72,0,0,0-1.39.13c-3.16.61-7.6,2.52-9.69,12.08-2,9.32-1.15,12.61.82,14.69,1.28,1.36,4.38,1.84,6.64,1.84h0a10.35,10.35,0,0,0,4.55-.85l.22-.12-.11-.21C215.48,371,215.62,364.22,217.76,356.29Z"/><path class="cls-7" d="M251,365.74a58,58,0,0,0-1.31-12.08c-1.34-4.49-4.08-6.81-8.31-6.81-3.73,0-5,1.14-6.3,4.15-.74,1.73-1.35,8.53-1,14.66C241.3,369.78,245.52,369.13,251,365.74Z"/><path class="cls-7" d="M263.94,362.79c-.9-6.54-3.62-13-6.19-14.65a8.48,8.48,0,0,0-4.64-1.25,10.5,10.5,0,0,0-5.17,1.28c4.26,3.63,5,11.57,4.83,16.95a12.5,12.5,0,0,0,11.36-.66C264.08,363.92,264,363.36,263.94,362.79Z"/><path class="cls-7" d="M234.62,349.06a9.69,9.69,0,0,0-6.8-2.69c-4.57,0-7.86,1.76-10.12,10.38a51.17,51.17,0,0,0-1.45,7.69,17.88,17.88,0,0,0,16.55.45C232.6,362.05,232.39,353.34,234.62,349.06Z"/><path class="cls-7" d="M220.94,348.72a12.29,12.29,0,0,0-4.57-1,7.62,7.62,0,0,0-1.38.12c-3.16.61-7.6,2.53-9.7,12.08-.37,1.73-.65,3.25-.84,4.6a11.47,11.47,0,0,0,10.8.42C215.85,358.53,217.33,352.14,220.94,348.72Z"/><path class="cls-2" d="M273.49,347c.56-5,3.54-12,7.09-14.63l.48-.35-.65-.07a10.23,10.23,0,0,0-1-.06,8.25,8.25,0,0,0-5.81,2.29c-3.83,3.69-6.84,10.3-5.17,15.81a5.78,5.78,0,0,0,3.08,3.74,8,8,0,0,0,3.39.7c.36,0,.68,0,.93,0l.6-.06L276,354A7.38,7.38,0,0,1,273.49,347Z"/><path class="cls-10" d="M220.25,344.05a55.71,55.71,0,0,1,29.48-.37A42.29,42.29,0,0,0,220.25,344.05Z"/><path class="cls-10" d="M323.1,336.71a41.18,41.18,0,0,1,19.15,2.35A25,25,0,0,0,323.1,336.71Z"/><path class="cls-9" d="M230.55,116v0c-1.41,11.49-4.36,22.7-11,32-2.79,3.9-13.73,15.11-19.74,22.43l-.12.15a38.58,38.58,0,0,0-3.38,4.64c-5.73,10.3-10.6,16.89-14.34,32-.11-10.75,3.92-21.75,9.06-30.66a73,73,0,0,1,8.67-12.18c-7.61,3.33-21.83,16.24-22.46,16.9a78.08,78.08,0,0,1,15.58-18,85.06,85.06,0,0,1,8.07-6.07s0,0,.06-.05a81.38,81.38,0,0,0,10.31-8c8.36-8.06,11.86-21.66,14.64-34,1.55.25,3.13.53,4.58.85C230.53,116,230.55,116,230.55,116Z"/><path class="cls-9" d="M238.8,191.19c-.9,10.9-4.71,20.31-16.13,31.59-7.16,7.06-14.42,13.85-17.56,25.81-.49-3.36-.94-6.94-1.36-10.37h0a44.51,44.51,0,0,1,11.43-15.84C225.66,213.48,234.41,205.5,238.8,191.19Z"/><path class="cls-9" d="M166.78,240.66l-.47-.16c-10.2-3.32-18.41-9.15-26.75-22.58L138,215.36a128.42,128.42,0,0,1-2.86-13.22l-.06-.47a42,42,0,0,1,6.56,9c6.25,12,12,22.16,24.55,29.59Z"/><path class="cls-9" d="M261.81,229.57a3.12,3.12,0,0,0-.44.09c-27.84,2.9-49.74,22-50.31,22.49.48-.65,15.85-27.14,49.81-28.87l.41-.08C261.52,225.5,261.71,227.67,261.81,229.57Z"/><path class="cls-9" d="M246.8,253.87a65.73,65.73,0,0,0-9.76,7,42.12,42.12,0,0,1,14.6-1.78,19.17,19.17,0,0,1,7.7,2.4c-.17,1.65-.36,3.27-.57,4.92a18.06,18.06,0,0,0-8.87-3c-6.85-.36-26.93,8.86-39.66.9,11.95,1,19.71-3.79,30.3-10.23,6.61-4,13.14-5.17,20.07-5.37-.05.46-.09.92-.13,1.38C255.83,250.64,251.21,251.5,246.8,253.87Z"/><path class="cls-9" d="M215.09,289.16c17.14-4.18,32.24,2,39.49,6,0,.27-.07.54-.11.81-7.92-2.94-24.73-7.56-41.36-1.84-.35-2.82-.75-5.72-1.2-8.62,13.85-8.78,29.9-12,45.41-7.79-.16,1-.31,2-.46,3C242.33,278.9,227.94,281.42,215.09,289.16Z"/><path class="cls-9" d="M214.26,306c14.57-5,29-.2,38.35,4.59-.09.71-.18,1.41-.24,2.11-9.79-3.31-24.61-6.34-37.62-.84Z"/><path class="cls-9" d="M248.9,128a3.54,3.54,0,0,1-.83-.7h0l-.08,0c-3.29,1.53-9.11,5.55-11,15.11.07-.89-1.65-11.31,5-20.23l-3.8-2.94c-7.09,13.13-6.87,30-6.24,38.07.77,9.62-.83,28.37-13,43.67,25.16-20.89,18.22-50.11,23.09-61.64a22.08,22.08,0,0,1,8.45-9.86A11.16,11.16,0,0,0,248.9,128Z"/><path class="cls-9" d="M264.1,203.17c-4.11-22.8,5.15-31.94,5.27-47.35.16-20.07-7.55-30.21-7.55-30.21l2.43-.73,2.51-.76S275,134.46,274,153.9C273,175.17,263,182,264.1,203.17Z"/><path class="cls-9" d="M274.7,122c2.94,9.2,15.44,28.53,16,42.63.4,10.14-5.55,23.34-11.8,37.71,9-13.84,16.74-27.27,17.37-39,.64-11.89-8.06-25.35-6.52-44.68-1.69.31-3.35.64-5,1,.49,8.62,1.81,19.87,5.69,29.62-4.21-8.31-9.91-20-13.08-27.87Z"/><path class="cls-9" d="M317.55,131.3c-3.05,10.3-2,20.91-1.15,31.62.91,11.36,6.52,28.66-5,41.56-5.78,6.47-11.11,10-16.7,21.38,2.51-17.43,12.84-18.64,18.39-35.59,3.67-11.24-6.34-38.14-7.5-45.56a84.9,84.9,0,0,1,.18-27.79c1.09,0,2.18-.11,3.28-.14-1,12.19.17,24.4,2.5,37.21.07.37.12.73.18,1.1-.14-2-.24-4.06-.29-6-.23-11.9,3-22.31,7.85-32.14,1.44.13,2.8.31,4.1.56A74.07,74.07,0,0,0,317.55,131.3Z"/><path class="cls-9" d="M345.8,135.05c-13.07,17.16-4.21,52.58-12.61,71.94-6.46,14.85-10.22,24.41-33,24.32,22.45-3.7,31-20.39,31.52-42.27C332,174,328.72,151.24,345.8,135.05Z"/><path class="cls-9" d="M360.89,158.08c0,.1-.07.19-.1.29-1.39,4.08-3.15,8-4.93,12a126.83,126.83,0,0,0,.64-21.71h0l-1.56-2.94c.31,19-5.46,49.36-17.56,66.12,20.28-18.23,22.61-42.55,24.06-51.62,0,0,0,0,0,0,.05-.27.09-.53.13-.78A3.68,3.68,0,0,1,360.89,158.08Z"/><path class="cls-9" d="M306.33,244.56a4.77,4.77,0,0,1,.32.64l.41.64c.32.54.76,1,1.06,1.6A50,50,0,0,0,328.21,242c-3.73,3.81-9.91,10.06-14.95,13.68a17.46,17.46,0,0,1,1.05,2c7.1-3.86,32.48-18.13,41.83-53.8C342.94,234.83,319.76,242.6,306.33,244.56Z"/><path class="cls-9" d="M319.24,266.09c.16.82,1.72,3.78,1.89,4.59,13.18.49,27-5.56,36.52-18.55C346.33,261.91,332.55,267.34,319.24,266.09Z"/><path class="cls-9" d="M361.09,275.8a60,60,0,0,1-35.46,7.56c.4,2.31.94,4.47,1.14,6.87,7.2-.32,22-1.91,34.33-12.27A17.3,17.3,0,0,1,361.09,275.8Z"/><path class="cls-9" d="M328.28,302.41c0,.53,0,1.06,0,1.59l.17,2.09c15.62,7.45,33.75-6.62,33.75-6.62S337.94,305.26,328.28,302.41Z"/><path class="cls-9" d="M328,316.14c-.05.88-.27,2.91-.43,3.79,13.87,5.94,30.87-2.32,30.87-2.32S340.19,321.92,328,316.14Z"/><path class="cls-9" d="M188.52,261.41c-1-.65-17.41-11.25-26.89-11.85-5.12-.32-10.8-.29-15.86,1.5-.27-1.89-.51-3.64-.72-5.27,6.59-2.95,11-2.89,19-1C173,246.89,187.62,260.55,188.52,261.41Z"/><path class="cls-9" d="M151.61,281.66c11.22-3.36,43.42-5,43.42-5s-25.4-17.47-46.88-11.09h0c.12.63.24,1.25.37,1.89,11.72-1.11,24.34,3.91,24.34,3.91s-15.32,2.13-22.58,4.54Z"/><path class="cls-9" d="M196.52,293.09c-.07,2.14-.14,4.6-.22,7.25-16.23-6.42-38.08-1.31-38.93-1.12C158.09,298.87,179.23,288.31,196.52,293.09Z"/><path class="cls-9" d="M195.51,317.83c-1-.22-21-4.36-34.83,1.33a48.12,48.12,0,0,0-1-6.09C175.72,308.36,194.49,317.32,195.51,317.83Z"/><path class="cls-9" d="M262.33,239.37c9.12-8.53,12.86-33.4,8.93-51.74C272,202.25,265.88,232.44,262.33,239.37Z"/><path class="cls-9" d="M328.18,304.5c-6.41.55-19.07-2.06-26.88-1.8a20,20,0,0,1-.27,4.21c9,2.82,20.78,1.51,27.18-1.55A6.13,6.13,0,0,1,328.18,304.5Z"/><path class="cls-9" d="M324.73,279.45c-.08-.48-.21-.94-.29-1.41-.05-.13-.12-.26-.18-.39-7,4.38-18.3,10.12-28.9,9.82.48.72.86,1.5,1.34,2.22.62,1,1.3,1.86,1.89,2.84,11.12-.43,20.39-7.09,26.17-12.56Z"/><path class="cls-9" d="M318.62,265.14c-11.82,5.76-26.91,5.62-35.84,5.29A8.07,8.07,0,0,1,284.2,273a.29.29,0,0,1,0,.16,52.93,52.93,0,0,0,37.21-2.21C320.25,269.14,319.76,266.91,318.62,265.14Z"/><path class="cls-9" d="M308.12,247.44a138.19,138.19,0,0,1-25,5.64,23.25,23.25,0,0,1-6.92,2.38c.51,1.81,1.14,3.61,1.79,5.39,16.54,4.29,32.76-3.84,32.76-3.84s-20.7,4.47-29.22,0C294.08,256,308.12,247.44,308.12,247.44Z"/><path class="cls-9" d="M251,328.28c0,.56,0,1.11-.06,1.6-10-2-23.89-3.15-34.76,1.66-.07-1.33-.14-2.68-.22-4h0c8.91-4.26,18.85-3.39,28.57-.65-9.29-5.58-19.24-5.41-28.8-2.78-.05-.56-.08-1.11-.12-1.67C227.45,317.86,239.7,318.34,251,328.28Z"/><path class="cls-9" d="M190.51,335.34s-17.21-5.13-30.18-3.81c.11-1.26.2-2.55.27-3.85C177.35,326.29,190.51,335.34,190.51,335.34Z"/><path class="cls-9" d="M303.9,184.29c-19.61,15-12.25,32-25,49.89C293.51,225.86,292.27,199,303.9,184.29Z"/><path class="cls-9" d="M339.14,124.77c-6.48,7.31-9.62,13.7-12.52,31.85-1.31-12.49,1.38-25.71,9.39-34.08.64.39,1.27.83,1.91,1.29C338.32,124.11,338.73,124.43,339.14,124.77Z"/><path class="cls-9" d="M358.71,225.52a107.4,107.4,0,0,0-5.48,10.37C346.71,249.89,333,256,333,256s12.84-3,21.17-14.16a38.7,38.7,0,0,0,4.29-8A55.72,55.72,0,0,1,358.71,225.52Z"/><path class="cls-9" d="M216.18,113.63c-1.7,6.86-6,16.54-16.82,25.7,0,0,0,0,0,0a79.77,79.77,0,0,1-15.27,10,76.88,76.88,0,0,0,14.44-13.64l0,0a66.07,66.07,0,0,0,14.33-34.13l.46,2.19c.59,1.64,1.15,3.35,1.66,5.13C215.43,110.4,215.83,112,216.18,113.63Z"/><path class="cls-9" d="M138.21,167A96.52,96.52,0,0,1,156,179.58a69.67,69.67,0,0,0-15.79-16c-.5-.37-1-.72-1.51-1.07A30.44,30.44,0,0,1,138.21,167Z"/><path class="cls-9" d="M137.55,170c-.38,1.42-.82,2.81-1.31,4.15.23.31.44.6.61.86,5.83,9.3,10.77,15.19,14.66,29.07,0-10-4.13-20.1-9.36-28.14A49.74,49.74,0,0,0,137.55,170Z"/><path class="cls-9" d="M140.45,144.59l-.3.08c-.25,0-.74-.07-.82.32a2,2,0,0,0,.1.39,7.61,7.61,0,0,1,.11,1.18c2.46,3.31,10.3,8.58,10.3,8.58S142.25,148,140.45,144.59Z"/><path class="cls-9" d="M200,192.56c-5.58,9.27-7.25,23.95-6.52,34.71,2.2-11.46,6.14-23.56,12.13-33.71,4.64-7.87,15-22.91,15-22.91S205.68,183.08,200,192.56Z"/><path class="cls-9" d="M250.51,176.57c-4.54,9.83-5.95,24.61-4,35.23.92-11.63,3.51-24.09,8.35-34.84,3.75-8.33,9-22.37,1.58-39.53C260.61,153.69,255.15,166.52,250.51,176.57Z"/><path class="cls-9" d="M134.79,192.9a19.12,19.12,0,0,1-.21,2.82,65.88,65.88,0,0,1,8.7,7,152.75,152.75,0,0,1,17.56,22.11c-3.73-9.1-11.39-22.15-17.41-28A14.84,14.84,0,0,0,134.79,192.9Z"/><path class="cls-9" d="M300.08,315.93a19.53,19.53,0,0,1-.65,4.11c7.93,7,19.63,4.87,26.05,2.85C316.27,324.41,306.67,322.17,300.08,315.93Z"/><path class="cls-2" d="M330.15,359.26c0-3.59,2.65-15.76,8.8-17.79l.38-.12-.26-.29c-1.09-1.16-3.69-3.1-8.78-3.1h-.84c-7.76.32-14.45,11.41-14.48,20.26,0,2.87.78,5,2.34,6.41a11.17,11.17,0,0,0,7.46,2.82h.75a9.33,9.33,0,0,0,6.53-2.31l.37-.18-.31-.25C330.74,363.66,330.15,362,330.15,359.26Z"/><path class="cls-2" d="M317.83,365c-1.6-1.47-2.4-3.74-2.39-6.73,0-8.32,4.43-15.27,8.79-18.47l.31-.23-.34-.19a11.55,11.55,0,0,0-5.8-1.38h-.76c-7,.32-13,11.41-13.07,20.26,0,2.95.74,5.15,2.24,6.53a10,10,0,0,0,6.75,2.27h.83a27.66,27.66,0,0,0,4.82-.76l-.83-.86A6,6,0,0,1,317.83,365Z"/><path class="cls-2" d="M352.08,353.63a21.11,21.11,0,0,0-1.08-3.06c-.28-.65-.65-1.56-1.12-2.63a14.87,14.87,0,0,0-4.27-5.07,10.57,10.57,0,0,0-5.87-1.43,17.94,17.94,0,0,0-2.84.23c-5.3.88-8.16,12.88-8.16,17.59s1.25,5.66,5.56,6.9a15.78,15.78,0,0,0,4.34.55,24.48,24.48,0,0,0,12.29-3.4,7.53,7.53,0,0,0,2.18-1.9l.06-.07v-.1A34.65,34.65,0,0,0,352.08,353.63Z"/><path class="cls-2" d="M304.34,358.23a26.78,26.78,0,0,1,6.47-17.05l-.33-.4c-3.5,1.55-8,5.19-9.33,13.65-.63,3.91-.07,6.93,1.66,9a4.65,4.65,0,0,0,3,1.4l.67.11-.4-.51A9.81,9.81,0,0,1,304.34,358.23Z"/><path class="cls-7" d="M337,340.66c-1.12-1.16-3.35-2.7-7.33-2.7H329c-6.4.3-11.95,10-12.61,18.58,2.72,1.73,7.44,2.17,11.9.18C330.38,344.5,334.86,341,337,340.66Z"/><path class="cls-7" d="M323.09,339.93a10,10,0,0,0-5-1.25h-.7c-6,.3-11.28,10.13-11.9,18.66,3.21,1.28,6.27,1.71,9,.52C315.86,345.82,321,340.9,323.09,339.93Z"/><path class="cls-7" d="M348.28,345.48c-.4-.38-1.83-1.72-2.27-2a10.59,10.59,0,0,0-5.87-1.43,16.86,16.86,0,0,0-2.85.23c-4.31.71-7,8.76-7.86,14.28C335.36,359.87,347.21,358.56,348.28,345.48Z"/><path class="cls-7" d="M309.94,341.34l-.08-.09c-3.28,1.55-7.45,5.18-8.72,13.65-.1.66-.16,1.29-.2,1.91a3.15,3.15,0,0,0,2.56.84C303.31,352.29,305.72,345,309.94,341.34Z"/><path class="cls-5" d="M212.71,42.91c-.62-4.07-2.48-7.33-5.22-9.18-2.09-1.42-5.18-2-8.92-1.84a31.16,31.16,0,0,0-12.36,3.44c-1.47.82-3.16,1.69-5,2.59a19,19,0,0,1-4,1.39l.15-.06L176.9,39a20.53,20.53,0,0,0-8.36-2.89,48.45,48.45,0,0,0-7.22,0l-4.56.29a27.21,27.21,0,0,1-4.89,0l-1.12-.18a48.6,48.6,0,0,0-10.88-.88,21,21,0,0,0-9.26,2.53c-8.3,4.64-14.68,12.73-17.74,17.14-1.3,1.87-2.29,3.54-3.24,5.15a42,42,0,0,1-8.73,11.09c-.67.62-1.28,1.25-1.81,1.83A12,12,0,0,0,98,74.94l-.55.12a38.63,38.63,0,0,0-7.45,15l.51.14.41-1c-.54,3.18-1.07,8.67.43,13.3l.52-.1a13.56,13.56,0,0,1-.15-1.61v-1.4l.47,1.33a93.06,93.06,0,0,0,5.11,11.5l.5-.18L97,109.94l.75.76c.36.36,8.76,8.93,11.21,13.61l.27.5.22-.51a7.45,7.45,0,0,1,1.24-2l.12-.13-.09-.15c-1.19-1.84-7.1-11.23-6.44-15.78s5.62-10.62,6.61-11.8l0,0v-.07a4.12,4.12,0,0,0-.77-2.91l-.17-.22a13.83,13.83,0,0,1,5.41-2.82l.28-.41a16.88,16.88,0,0,1,3.76-4.44c.44-.33.9-.65,1.42-1a18.8,18.8,0,0,0,4.89-4.44l.18-.25s5.53-5.45,3.41-6.37-10.25,2.13-10.25,2.13-3.53-3-2.71-6.29,4.71-5.44,7.18-5.59c.2,0,.58,2.09.74,2.11,1.41.25,2.49-.68,2.94.68h.4c.75,2.24,2.3,4,1.11,8.93s-5,6.38-7.47,8.8a19.37,19.37,0,0,1-1.84,1.32,20.25,20.25,0,0,0-5,5.86l.24,1.34-.24-.15a20.64,20.64,0,0,1,1.82,2c2.06,2.7,5.5,7.22,10.32,7.66a19.52,19.52,0,0,0,2.88,0c4.6-.26,10.17-1.75,14.27-2.84a32.86,32.86,0,0,1,4.66-1.08,1.58,1.58,0,0,1,.4,0,1.8,1.8,0,0,1,1,1.1l.34.82.17-.87a22.51,22.51,0,0,0,.32-2.29v.24h.25c3.58.1,6.65,2.14,8.59,3.84a30.58,30.58,0,0,1,4.58,5.48,10.61,10.61,0,0,1,.91,2.65c.13,1.09.29,2.17.42,3.24a12.69,12.69,0,0,1-1.1,5.7c-1.33,2.5-6.62,6.7-13.15,9.39a17.27,17.27,0,0,1-5.6,1.31,14.89,14.89,0,0,1-10.63-3.51,33.69,33.69,0,0,0-8.63-4.88H126a35.23,35.23,0,0,0-3.85,0c-4.14.24-7.5,1.23-10,3a7.49,7.49,0,0,0-3,5.68,16.84,16.84,0,0,0,1.06,7.37l.51-.12-.1-.61a34,34,0,0,0,2,4.12,20.94,20.94,0,0,0,5.62,6.58l.36-.36-1.07-1.12A40.63,40.63,0,0,0,127.51,147l.22-.44-1.81-1.24,1.39.43a30,30,0,0,0,9.48,1,24.66,24.66,0,0,0,7.05-1.4c5.88-2.12,8.09-6.2,9.87-9.47a25.81,25.81,0,0,1,2.57-4L155.19,134l.43.29c3.61-3,9.4-6.86,16.48-8,8.58-1.36,13.35-2.89,15.84-3.93A20.8,20.8,0,0,0,192,120a16.84,16.84,0,0,1-2.3,2.16l.3.41c7.73-3.84,10.85-9.15,12-12.06-.08,1.2-.18,2.37-.24,2.66l.51.14c3.41-8.07,3-19,3-19.08L205.23,93l.51,1.18a8,8,0,0,1,.41,1.25l.53-.07c-.54-12.51-4.8-20.36-8.29-24.74-1.21-1.52-2.8-3.35-4.19-4.94l-.4.23c-.43-.77-.88-1.53-1.37-2.24l-.27-.3c-3.54-4-6.88-7.78-7.71-9.47-1.27-2.56-.92-7.57,4.24-13.28a18.6,18.6,0,0,1,11.93-6h.29a10.06,10.06,0,0,1,7.47,2.7,15.07,15.07,0,0,1,4,8l.53,0A19.37,19.37,0,0,0,212.71,42.91Z"/><path class="cls-8" d="M110.93,94.47l0,0v-.07a4.13,4.13,0,0,0-.77-2.91l-.17-.22a10.16,10.16,0,0,1,4.7-2.46l1-.77c.22-.35,1-2.11,1.19-2.43A8.89,8.89,0,0,1,112.61,88a13,13,0,0,0-5.11,2.65c-3.78,3.56-3.42,10-3.42,10S106,96,109.94,95.7C110.38,95.13,110.74,94.71,110.93,94.47Z"/><path class="cls-8" d="M150.12,88.38s-.13,5.87-2.36,8.12a1.46,1.46,0,0,1,2.05,1l.34.82.69-2.92c0-1.11-.12-2.57-.19-3.7S150.12,88.38,150.12,88.38Z"/><path class="cls-8" d="M176.52,102c1.72.59,4.09,5.56,4.09,5.56s-.9-6.93-2-8.87c-1.51-2.66-4.09-3-8.86-2.89A10.78,10.78,0,0,1,162,92.37a9,9,0,0,0,4.64,5.53c1.65.94,2.73.77,2,2.92-.51,1.56-2.77,3.9-4.18,5a62.8,62.8,0,0,1,.85,6.27C167.07,109.72,173.83,101.08,176.52,102Z"/><path class="cls-7" d="M155,83.66c3.29,1.27,13.62.47,20.17-2.86,4.09-2.08,1.5-5.37-.4-8.3-2.5-3.86-9.52-5.34-16-2.73C150.8,72.27,151.84,82.46,155,83.66Z"/><path class="cls-11" d="M171.54,75.14A6.58,6.58,0,0,0,170,69.52a6.15,6.15,0,0,0-3.2-2.12,8.65,8.65,0,0,0-3.7,0,10.18,10.18,0,0,0-5.27,4.22c-1.92,2.82-3.54,7.24,1,8.24,4.27.93,11-.13,12.65-4.35C171.45,75.54,171.54,75.16,171.54,75.14Z"/><path class="cls-12" d="M166.53,68.8a8.27,8.27,0,0,1,5.09,4.51A8.44,8.44,0,0,0,170,69.8a6.28,6.28,0,0,0-3.21-2.36,7.64,7.64,0,0,0-3.71,0A9,9,0,0,0,159.33,70,8.47,8.47,0,0,1,166.53,68.8Z"/><path class="cls-12" d="M158.94,78.5c-2.29-1.5-2.39-4.17-1.9-6.52-1.41,3-2,6.6,1.92,7.57a14,14,0,0,0,3.9.35A9,9,0,0,1,158.94,78.5Z"/><path class="cls-7" d="M194.28,65.67l-.4.23c3.17,4.82,5.7,13.86,6.72,21.36-.47-1.49-1-2.68-1.31-3.51A41.16,41.16,0,0,1,199,93a38.81,38.81,0,0,1-.19,9.12s-.38-3.07-.5-4.11c-.59,4.51-2.63,9.51-6.84,12.34-.13.09,1.43-2.11,1.82-2.85-2.89,2.32-8.9,6.71-12.87,4.93a1.1,1.1,0,0,1-.63-.74c-.77-1.37-.61-3.09-.91-4.61-.56-2.82-1.34-7.59-4.69-9-4.47,2.53-7.08,7.36-8.89,11.8,0,.26.06.52.1.78a12.81,12.81,0,0,1-1.11,5.69c-1.33,2.5-6.61,6.7-13.15,9.4a17.41,17.41,0,0,1-5.6,1.31,14.9,14.9,0,0,1-10.63-3.51,33.48,33.48,0,0,0-8.62-4.89H126a37.94,37.94,0,0,0-3.85,0,19.26,19.26,0,0,0-10,3c-1.74,1.21-2.48,3.12-2.75,5.68a16.5,16.5,0,0,0,.78,7.37l.52-.11-.11-.62a36.91,36.91,0,0,0,2.11,4,20.21,20.21,0,0,0,5.51,6.49l.32-.17-1.07-1.12a40.52,40.52,0,0,0,9.9,3.6l.17-.34L126,145.3l1.39.43a35.52,35.52,0,0,0,9.65.78,23.62,23.62,0,0,0,6.81-1.41c5.88-2.13,8.17-6,9.94-9.28a25.81,25.81,0,0,1,2.57-4L155.26,134l.43.29c3.61-3,9.4-6.85,16.48-8,8.58-1.36,13.35-2.88,15.85-3.93A22,22,0,0,0,192.1,120a17.5,17.5,0,0,1-2.31,2.15l.3.41c7.73-3.84,10.86-9.15,12-12-.09,1.2-.19,2.37-.25,2.65l.51.14c3.41-8.07,3-19,3-19.08L205.31,93l.51,1.18a8.05,8.05,0,0,1,.4,1.25l.53-.07c-.54-12.51-4.8-20.36-8.28-24.74C197.25,69.09,195.67,67.26,194.28,65.67Z"/><path class="cls-13" d="M202.83,78.11c1.75,4.25,2.38,10.71,2.62,11.46A20.5,20.5,0,0,0,203.89,86c1,5.27.85,12.16,0,19.49,0,0-.59-3.12-.82-5.44-.27,4.67.35,11.27-6.76,16.82.86-1.08,2.7-3.63,3.42-4.78-9.4,9.65-29.4,7.72-37.28,8.84a10.39,10.39,0,0,0,3.48-3.93,8.26,8.26,0,0,0,.58-2.77,16.8,16.8,0,0,1,5.43-10.93c2.71-2.24,4.26-1.89,6-.37-.68-2.05-1.76-4-3.7-4.86-4.47,2.53-7.08,7.36-8.89,11.8,0,.26,0,2.23-.05,3-.07,1.79-1.21,4.41-4.65,7.36a39.5,39.5,0,0,1-6.08,3.75c-5.12,2.79-9,3.44-14.24,2.32,1.83,1.45,6,1.87,10.08,1.17,1.71,2.93-2.57,7.83-5.71,9.93a16.35,16.35,0,0,0,3.67-1.9c-6.82,6.8-19.48,8.44-28.51,3.17a11.24,11.24,0,0,0,2.78,2.76s-6-2.51-8.16-6.12a10.79,10.79,0,0,0,1.49,3.16,20.11,20.11,0,0,1-6.26-12.5,14,14,0,0,0-.24,1.49,15.76,15.76,0,0,0,.82,7.19l.52-.11-.11-.62a36.91,36.91,0,0,0,2.11,4,20.21,20.21,0,0,0,5.51,6.49l.32-.17-1.07-1.12a40.52,40.52,0,0,0,9.9,3.6l.17-.34L126,145.3l1.39.43a35.52,35.52,0,0,0,9.65.78,23.62,23.62,0,0,0,6.81-1.41c5.88-2.13,8.17-6,9.94-9.28a25.81,25.81,0,0,1,2.57-4L155.26,134l.43.29c3.61-3,9.4-6.85,16.48-8,8.58-1.36,13.35-2.88,15.85-3.93A22,22,0,0,0,192.1,120a17.5,17.5,0,0,1-2.31,2.15l.3.41c7.73-3.84,10.86-9.15,12-12-.09,1.2-.19,2.37-.25,2.65l.51.14c3.41-8.07,3-19,3-19.08L205.31,93l.51,1.18a8.05,8.05,0,0,1,.4,1.25l.53-.07C206.55,90.69,206.12,81.82,202.83,78.11Z"/><path class="cls-7" d="M110.38,91.15l-.23.17c-.52.42-1.48,1.31-1.47,1.28-1.62,2.1-2.13,4.57-3.07,7.17-.29.83-.78,2.53-1.88,2.22-1.64-.67-3.34-3-4.13-4.37a12.23,12.23,0,0,1-1.95-5.81c-.1.6-.23,1.2-.3,1.82,0,.23-.43.16-.4-.08l0-.1s0,0,0,0a8.66,8.66,0,0,1,0-4.08c-.23.65-.8,2.43-.8,2.43S96,90.73,96,90.68a27.77,27.77,0,0,1,.87-6.89,7.1,7.1,0,0,1,.45-1.11,15.2,15.2,0,0,0-1.56,2.09,40.45,40.45,0,0,1,2.9-10.19l-.86.4a38.63,38.63,0,0,0-7.45,15l.51.14.41-1c-.54,3.17-1.07,8.67.43,13.3l.25-.18a7.7,7.7,0,0,1,.12-1.54v-1.4l.47,1.33a93.58,93.58,0,0,0,5.11,11.51l.5-.19-.78-2.14.75.76c.36.37,8.76,8.93,11.21,13.61l.27.5.22-.51a7.45,7.45,0,0,1,1.24-2l.12-.13-.09-.15c-1.19-1.84-7.1-11.23-6.44-15.78s5.62-10.62,6.61-11.8l0-.05v-.07a4.12,4.12,0,0,0-.77-2.91Z"/><path class="cls-13" d="M111.1,122c-.48-.74-1.73-2.71-3-5.09A106.17,106.17,0,0,0,100,109a17.63,17.63,0,0,1-4.59-6.44c.21,1.13,1.18,4.31,1.18,4.31a66,66,0,0,1-4.47-9.53c.24,5.36,3.67,11.43,5.55,14.86l.5-.19-.78-2.14.75.76c.36.37,8.76,8.93,11.21,13.61l.27.5.22-.51a7.45,7.45,0,0,1,1.24-2l.12-.13Z"/><path class="cls-13" d="M109.79,95.9c.51-.66.92-1.17,1.14-1.43l0,0v-.07a4.13,4.13,0,0,0-.77-2.91l-.17-.22-.22.18c-.52.41-1.48,1.3-1.47,1.27-1.62,2.1-2.14,4.57-3.08,7.18l-.22.64A9.87,9.87,0,0,1,109.79,95.9Z"/><path class="cls-13" d="M201,35h-.24a18.07,18.07,0,0,0-11.63,5.9c-4.71,5.2-5.49,10.19-4.18,12.83.81,1.64,4.28,5.57,7.65,9.37,1.06,1.2,2.14,2.42,3.16,3.59l.12.15.19-.07c1.4-.54,8.6-3.5,13.15-8.93A16,16,0,0,0,212,52.5c1.22-5.26-.45-11.69-3.9-15A9.44,9.44,0,0,0,201,35Z"/><path class="cls-7" d="M208.11,37.55A9.44,9.44,0,0,0,201,35h-.24a17.3,17.3,0,0,0-8.62,3.26c5.21-1.58,11.48.15,13.46,5.46,2.92,7.8-1.92,17.32-8.82,22.76,2.32-1,8.41-3.84,12.44-8.64A16,16,0,0,0,212,52.5C213.23,47.24,211.56,40.81,208.11,37.55Z"/><path class="cls-7" d="M104.79,106.33c-.61,4.15,4.62,12.74,6.23,15.28l.17.26.24-.21c.17-.13.33-.27.51-.39,2.54-1.78,6-2.8,10.23-3,1.13-.06,2.32-.07,3.54,0h.34l-.07-.3a28,28,0,0,1-.26-4.69V113l-.21,0c-3-.67-5.93-3.72-7.87-6.17-3.19-4-5.74-8.94-6.37-11.36l-.13-.52-.34.43C109.17,97.38,105.34,102.5,104.79,106.33Z"/><path class="cls-13" d="M125.72,113l-.21,0c-3-.67-5.93-3.72-7.87-6.17a45.53,45.53,0,0,1-4.71-7.37c2.49,11.48,11.75,13.25,11.93,16.18s-7.71.8-15,4c.61,1,.85,1.41,1.21,2l.17.26.24-.21c.17-.13.33-.27.51-.39,2.54-1.78,6-2.8,10.23-3,1.13-.06,2.32-.07,3.54,0h.34l-.07-.3a28,28,0,0,1-.26-4.69Z"/><path class="cls-13" d="M115.88,50.05l.2.1.14-.17a64.26,64.26,0,0,1,6.44-6.77l.18-.16-.16-.17c-3.49-3.85-3.52-9.29-3.55-14.08v-.45c0-4.2,0-8.16-3-8.8a3.91,3.91,0,0,0-1-.08c-2.9.17-4.8,3.72-5.31,4.81C108.37,27.36,101.82,43.07,115.88,50.05Z"/><path class="cls-7" d="M113,31.94c.93-2.42,3-6.23,6.1-4.86,0-3.7-.32-7-3-7.53a3.91,3.91,0,0,0-1-.08c-2.9.17-4.8,3.72-5.31,4.81-1.41,3-7.58,17.77,4.72,25C112.21,43.73,110.92,37.47,113,31.94Z"/><path class="cls-6" d="M116.36,19.15c3.2,1.09,3.22,5.06,3.24,9.65s.06,10,3.39,13.74l.18.21.21-.18a43.46,43.46,0,0,1,7.06-5,19.92,19.92,0,0,1,4.89-1.91l.56-.13-.48-.3a54.71,54.71,0,0,1-5.72-4,68.11,68.11,0,0,1-6.29-7.35c-1.58-2-3.08-3.9-3.92-4.75a2.94,2.94,0,0,0-2.33-.76,3.42,3.42,0,0,0-.45,0,7.27,7.27,0,0,0-.92.23l0,.47A5.23,5.23,0,0,1,116.36,19.15Z"/><path class="cls-7" d="M126.47,113.13h-.28v.25a19.59,19.59,0,0,0,.35,4.81l0,.09.1,0a34.73,34.73,0,0,1,8.56,4.92,14.48,14.48,0,0,0,10.29,3.39h0a16.85,16.85,0,0,0,5.42-1.28c7.1-2.92,11.84-7.13,12.93-9.19a14.06,14.06,0,0,0-.23-11.22c-.18-.35-4.49-8.56-12.68-9.38l-.31,0v.29a12.69,12.69,0,0,1-.59,4.7,3.48,3.48,0,0,1-.89,1.94c-1.09,1.07-14.21,10.25-21.71,10.69A8.47,8.47,0,0,1,126.47,113.13Z"/><path class="cls-13" d="M136.63,121.71c-4.84-2.77-8.51-2.85-8.77-5.75s14.26-3.12,21.69-14a2.16,2.16,0,0,1-.36.47c-1.09,1.07-14.21,10.25-21.71,10.69a8.47,8.47,0,0,1-1,0h-.28v.25a19.59,19.59,0,0,0,.35,4.81l0,.09.1,0a34.73,34.73,0,0,1,8.56,4.92c2.72,2.37,7.7,5.18,15.71,2.11,7.19-2.74,11.84-7.13,12.93-9.19a10.53,10.53,0,0,0,1-3.75c-1.39,5.75-10,11.17-18,11.94A17.35,17.35,0,0,1,136.63,121.71Z"/><path class="cls-8" d="M115.37,88.58l-.63.18A14.09,14.09,0,0,0,110.32,91l-.2.15.16.19A3.48,3.48,0,0,1,111,93l.13.83.38-.76a6.51,6.51,0,0,1,2.59-2.59l.22-.11,0-.07c.16-.32.39-.74.66-1.21Z"/><path class="cls-14" d="M149,96.75c-.06,0-.76-.39-.85-.38-.67,0-2.25,1-4.18,1.5l.34-.31c-4.09,1.09-9.91,2.66-14.6,2.93a20.42,20.42,0,0,1-3.15-.18c-5-.45-8.41-5.16-10.53-7.94a15.12,15.12,0,0,0-1.36-1.62l-.24-.15-.32-.1c-.64.4-2.66,1.58-3,3.35-.26,1.46,2.6,8.65,6.21,13.21,2.9,3.65,6,5.82,8.34,6.16a12.21,12.21,0,0,0,1.94.52l1-.4c7-.4,19.58-10,20.93-11.36.9-.88,1-3,.65-4.34A1.42,1.42,0,0,0,149,96.75Z"/><path class="cls-10" d="M184.43,59.74c4.92,8.65,9.61,25.13,8.84,35.36-.4,5.29-1.44,9.28-11.69,16.51,9-3.13,14.18-8.57,15-14.1C198.39,84.67,190.56,67.7,184.43,59.74Z"/><path class="cls-10" d="M182.17,70.69s8.39,12.17,3.68,23.44c-3.55-3.18-7.69-4.47-13.21-4.82,9.71,2.3,12.16,6.72,14.43,12.07C194.92,82.89,182.17,70.69,182.17,70.69Z"/><path class="cls-10" d="M159.42,84.35s16.52.09,18-7.76C180.43,89,159.42,84.35,159.42,84.35Z"/><path class="cls-10" d="M100.08,83a45.81,45.81,0,0,1,3.73-14.53l-.59.53c-.49.44-1,.91-1.48,1.34-2.4,4.06-4.35,8.37-4.25,13a29.23,29.23,0,0,0,4.7,14.94A41.91,41.91,0,0,1,100.08,83Z"/><path class="cls-10" d="M116.18,81.73S108,82.79,104.9,85c-3.07-11.1,4.84-22.91,4.84-22.91s-11.61,12.76-6.72,29C105.81,84.49,116.18,81.73,116.18,81.73Z"/><path class="cls-10" d="M126.06,112a23.66,23.66,0,0,1-.34-9.44A11.34,11.34,0,0,0,126.06,112Z"/><path class="cls-7" d="M144,105.65c-.68-.07-5.71-1.61-9.3.21-3.84,2-2.34,6.39-2.34,6.39A70.44,70.44,0,0,0,144,105.65Z"/><path class="cls-10" d="M144.38,106.07c-.68-.07-5.71-1.61-9.3.22-3.84,1.94-2.76,6.14-2.76,6.14S137.16,110.91,144.38,106.07Z"/><path class="cls-7" d="M118.67,103.27c-1.16-1.42-2.1-1.53-3.71-1.48.62,2.41,5.84,8.14,5.84,8.14A11.2,11.2,0,0,0,118.67,103.27Z"/><path class="cls-10" d="M118.55,103.29c-1-1.54-2.6-1.55-4.21-1.49.61,2.4,5.84,8.14,5.84,8.14A13.14,13.14,0,0,0,118.55,103.29Z"/><path class="cls-10" d="M129.42,78.1a27.49,27.49,0,0,1,12.43.71A17.9,17.9,0,0,0,129.42,78.1Z"/><path class="cls-10" d="M151.37,38.52C143.05,44.28,140.26,58,140.26,58S136.67,43.79,151.37,38.52Z"/><path class="cls-10" d="M175.29,48.09s-10.74-9.7-20.42-4.15C164.81,33.16,175.29,48.09,175.29,48.09Z"/><path class="cls-10" d="M122.84,45.89s10.28-9.27,18.6-3.37C133.23,31.38,122.84,45.89,122.84,45.89Z"/><path class="cls-10" d="M159.83,80.34c-1.47-.1-5.07.21-5.74-.45s1.11-2,1.49-3.41a15.94,15.94,0,0,1,4.95-8.23,5.22,5.22,0,0,1,3.2-1.38s-.16,1.1-2,1.24c5.81-1.06,8.28.17,9.38,2.33s2.91,4,2.1,5a12,12,0,0,1-3,2.58C167.3,80.21,163.84,80.63,159.83,80.34Zm3.78-12.72c-3.31.4-6.65,4.81-7.08,9-.2,1.92,2.73,2.87,3.83,3.08,3.8.71,8.83-.35,10.5-3.12a6,6,0,0,0-.58-6.21A6.68,6.68,0,0,0,163.61,67.62Z"/><path class="cls-10" d="M121.49,79.4S107.84,74,112.18,65.79C102,78.45,121.49,79.4,121.49,79.4Z"/><path class="cls-10" d="M128.16,46.06c7.3-1.65,13.16,5.85,13.16,5.85s11.85-6.94,20.45-4.19c-9.62-4.13-19.48.85-19.48.85A13,13,0,0,0,128.16,46.06Z"/><path class="cls-9" d="M138.21,146.75a1.5,1.5,0,0,1-.32.1c-.27,0-.8,0-.86.37a1.56,1.56,0,0,0,.13.38,7.4,7.4,0,0,1,.2,1.16c2.9,3.13,11.77,7.86,11.77,7.86S140.4,150,138.21,146.75Z"/><path class="cls-15" d="M165.5,77.27a4.64,4.64,0,0,1-5.94-1.93,3.92,3.92,0,0,1,2.12-5.42,4.63,4.63,0,0,1,5.93,1.93A3.92,3.92,0,0,1,165.5,77.27Z"/><path class="cls-16" d="M167.29,71.36a4.68,4.68,0,0,0-5.61-1.44,4.16,4.16,0,0,0-2.28,2.29A6.3,6.3,0,0,0,167.29,71.36Z"/><path class="cls-10" d="M163.88,77.81a4.87,4.87,0,0,1-1.85-.24,4.5,4.5,0,0,1-2.62-2.16,4.08,4.08,0,0,1,2.2-5.63,4.94,4.94,0,0,1,3.53-.16,4.45,4.45,0,0,1,2.63,2.16,4.09,4.09,0,0,1-2.2,5.63A4.75,4.75,0,0,1,163.88,77.81Zm-.56-8.13a4.74,4.74,0,0,0-1.57.37,4,4,0,0,0-2.2,2.23,3.56,3.56,0,0,0,.16,3,4.18,4.18,0,0,0,2.44,2,4.66,4.66,0,0,0,3.27-.15,4.06,4.06,0,0,0,2.21-2.23,3.6,3.6,0,0,0-.17-3,4.16,4.16,0,0,0-2.43-2A4.77,4.77,0,0,0,163.32,69.68Z"/><path class="cls-10" d="M164.86,76.05a3.09,3.09,0,0,1-4-1.29,2.61,2.61,0,0,1,1.41-3.62,3.1,3.1,0,0,1,4,1.29A2.62,2.62,0,0,1,164.86,76.05Z"/><path class="cls-17" d="M161.42,73.16a.78.78,0,0,1-.76.79.8.8,0,0,1-.86-.69.77.77,0,0,1,.76-.79A.79.79,0,0,1,161.42,73.16Z"/><path class="cls-17" d="M165.51,75.5a.44.44,0,0,1-.43.45.47.47,0,0,1-.5-.4.45.45,0,0,1,.44-.45A.46.46,0,0,1,165.51,75.5Z"/><path class="cls-17" d="M126.67,73.3a.46.46,0,0,1-.57.28.42.42,0,0,1-.32-.52.48.48,0,0,1,.58-.29A.41.41,0,0,1,126.67,73.3Z"/><path class="cls-7" d="M117,95.5s4.07,5.53,9.41,6,15.69-2.14,15.69-2.14-11.17,3.64-16.28,2.81C120,101.22,117,95.5,117,95.5Z"/><path class="cls-10" d="M136.55,113.12c8.27,1.18,16.69,1.1,23.25-4.22C155.85,110.81,151.12,113.49,136.55,113.12Z"/><path class="cls-10" d="M149.53,117.28a46.23,46.23,0,0,1-13.95-1.57s6.74,3.43,13.78,2.91a16.59,16.59,0,0,0,10.95-5.28A23.73,23.73,0,0,1,149.53,117.28Z"/><path class="cls-10" d="M139.07,119.9c6.54,3.85,15.05.51,15.05.51S146.63,126,139.07,119.9Z"/><path class="cls-10" d="M105.41,110.28v0s0,.09,0,.14.1.32.14.48a11.29,11.29,0,0,0,8.93-1.22s-5,1.61-9.12.45Z"/><path class="cls-10" d="M107.19,115.39a21.69,21.69,0,0,0,9.73-3.14s-6,2.52-10.48,1.26C106.63,114,107,114.93,107.19,115.39Z"/><path class="cls-10" d="M114.34,116a22.12,22.12,0,0,1-5.62,1.82c.16.24.31.49.46.73A14.48,14.48,0,0,0,114.34,116Z"/><path class="cls-7" d="M116.52,62.09s-4.53,2.48-4.84,4.35S110.1,72.17,116.92,77,129.15,75,129.55,73.6s-.75-.17-.75-.17l-6.4-11Z"/><path class="cls-7" d="M129.64,65.45A6,6,0,0,0,131.82,61c0-2.87-7.63-5.77-15.64-2.13a7.89,7.89,0,0,0-4.64,8.38l6.14-4.83,9.17,1.55Z"/><path class="cls-7" d="M130.21,72.78A19.75,19.75,0,0,0,131.82,61c-1.29-6.2-3.48,6.38-3.48,6.38l.63,2.1Z"/><path class="cls-11" d="M130.1,72.06l0-.16a12.35,12.35,0,0,0-.95-2.5,17.72,17.72,0,0,0-7.31-7.47,3.39,3.39,0,0,0-3.63,0c-.17.14-.34.27-.49.42a6.19,6.19,0,0,0-2,4.62,8.34,8.34,0,0,0,3.12,6.54,7,7,0,0,0,2,1,15.39,15.39,0,0,0,3.26.28,8.35,8.35,0,0,0,1.71-.34,12.33,12.33,0,0,0,4.1-2.34Z"/><path class="cls-12" d="M122.4,62.44c-.37-.23-.65-.38-.8-.46A3.42,3.42,0,0,0,118,62c-.17.13-.33.27-.48.41A6,6,0,0,0,115.6,67a8.5,8.5,0,0,0,.43,2.48C115.6,65.51,118.88,61.25,122.4,62.44Z"/><path class="cls-15" d="M125.68,64.51a5,5,0,0,0-4.29,2.7,3.73,3.73,0,0,0,1.85,5.39,4.89,4.89,0,0,0,5.9-2.44,3.56,3.56,0,0,0,.25-.61A31.45,31.45,0,0,0,125.68,64.51Z"/><path class="cls-16" d="M125.53,64.7a4.77,4.77,0,0,0-4.21,2.57,4,4,0,0,0-.24,3.13c3-.59,4.71-2.28,5.29-4.73C126.1,65.34,125.82,65,125.53,64.7Z"/><path class="cls-10" d="M129.14,69.52a3.88,3.88,0,0,1-.28.71,4.52,4.52,0,0,1-2.39,2.18,4.27,4.27,0,0,1-3.16,0,3.52,3.52,0,0,1-2.07-2.1,3.79,3.79,0,0,1,.23-3,4.54,4.54,0,0,1,1-1.27,4.76,4.76,0,0,1,1.44-.91,4.34,4.34,0,0,1,1.79-.31l-.27-.32a4.89,4.89,0,0,0-1.62.34,5,5,0,0,0-2.58,2.35,3.91,3.91,0,0,0,2,5.54,4.6,4.6,0,0,0,3.4,0,5.18,5.18,0,0,0,1.56-1,4.85,4.85,0,0,0,1-1.36,4.94,4.94,0,0,0,.19-.49Z"/><path class="cls-10" d="M127.79,67.48c-.19-.27-.39-.54-.6-.8a2.73,2.73,0,0,0-.74-.46,3.15,3.15,0,0,0-3.85,1.55,2.52,2.52,0,0,0,1.28,3.57,3.14,3.14,0,0,0,3.85-1.55A2.58,2.58,0,0,0,127.79,67.48Z"/><path class="cls-17" d="M123.62,66.54a.82.82,0,0,1-.39,1.08.76.76,0,0,1-1-.42.84.84,0,0,1,.38-1.09A.78.78,0,0,1,123.62,66.54Z"/><path class="cls-17" d="M126.66,70.63a.45.45,0,0,1-.21.58.42.42,0,0,1-.55-.23.44.44,0,0,1,.21-.58A.43.43,0,0,1,126.66,70.63Z"/><path class="cls-10" d="M130.08,72s-2-5.62-5.73-8.11c-3.39-2.24-5.14-3.66-7.71-.29s.34,9.13,2.53,10.2,6.39,1.65,10.87-2.12l.07.47.1.68a12.38,12.38,0,0,1-1.41.65c-.23,0-2.8,2.11-6.07,2-2.74-.06-3.85-.55-6-2.45s-1.8-6.08-1.57-6.81a8.23,8.23,0,0,1,1.62-3.45c1.15-1.29.8-.72.8-.72a2.78,2.78,0,0,0-1.11.06,3.52,3.52,0,0,1,2.76-1,9.31,9.31,0,0,1,4.88,1.85C125.52,64,129.73,68.13,130.08,72Z"/><path class="cls-7" d="M153.42,68.53s-3,5.06-.28,12.84c.3.87.2-5.48,2.84-8.62,2.92-3.46,8.6-3.8,8.6-3.8s6.35-.26,8.86,2.56a23.12,23.12,0,0,1,3.76,5.79,11.58,11.58,0,0,0-2.69-10.47c-2.91-3.23-6.47-4.25-11.93-3.56C162.58,63.27,155.22,64.7,153.42,68.53Z"/><path class="cls-10" d="M166.51,66.46c-3.56-.27-9.95,3.87-10.78,4.33s-2.18-.06-2.21-2.73a6.85,6.85,0,0,0,.48,4.82,2.89,2.89,0,0,1-1.14-1.76c0,1.34.68,4.27,2.78,4.11,1.23-.1,4.58-4,8-5.13a10.71,10.71,0,0,1,11.13,2.77S171.88,66.86,166.51,66.46Z"/><path class="cls-18" d="M114.36,90.39s-2.9,1.16-3.09,4,6.57,16.39,14.45,18.63,21.73-9.23,24-11.65c1.81-1.94.38-5.87-1.94-4.88s-17.07,4.72-21.17,3.81S119.33,96.16,114.36,90.39Z"/><path class="cls-10" d="M120.43,59.36c3.68-.26,8,4,8.79,4.48s2.25-.05,2.6-2.87a7.76,7.76,0,0,1-1.08,5.08,3.61,3.61,0,0,0,1.39-1.85c-.19,1.43-1.23,4.51-3.36,4.32-1.24-.1-2.49-4.08-5.84-5.3-6.62-2.4-11.73,2.86-11.73,2.86S114.89,59.75,120.43,59.36Z"/><path class="cls-18" d="M110.93,94.47s-5.59,6.76-6.32,12.43,5.76,13.47,6.82,14.76a24.51,24.51,0,0,1,14.87-3s4.93,1.27,11.7,6.78,21.25-4.21,21.25-4.21a12.61,12.61,0,0,0,5.26-15.42,15.3,15.3,0,0,0-13.66-10.56l-.45,1.84"/><path class="cls-18" d="M165.26,108.9s4.42-7.46,6.36-9l2.58-1.88s3.2,1,4.09,6.2a39.76,39.76,0,0,0,2.14,8.19s2.2,2.15,10.24-3l2.63-2-1.82,2.85s5-3.92,6.14-9,.7-3.34.7-3.34.62,4.77.07,6.23c0,0,.58-7.59.9-10.9.27-2.64,0-9.62,0-9.62l1.31,3.51s-3-15.8-6.72-21.36-1.38-2.23-1.38-2.23,1.9,3.34,4.28,2.8,13.46-5.93,15.63-15.57c0,0,.79-4.3.05-5.62"/><path class="cls-18" d="M191.37,62.38s8.38,8,12.65,16.72a30.27,30.27,0,0,1,2.62,17.28"/><path class="cls-5" d="M126.19,113.37a23.23,23.23,0,0,0,.11,5.28"/><path class="cls-19" d="M136.52,35.38s-6.87-3.68-9.05-6.84l-5.53-6.74c-.55-.67-2.48-5-6.53-3.07l-.35.17a9.64,9.64,0,0,0-1.48,1c-5.31,4.35-7.07,12.56-6.41,19.34,0,0,1.16,8,8.91,10.89l2.65-2.39,4.36-4.34s-3.1-4.54-3.52-9.22-.06-9.34-.73-11.91a5.57,5.57,0,0,0-3.46-3.49"/><path class="cls-18" d="M117,85.88l-2.26,2.88s-4.24,1-6.39,3.91a15.78,15.78,0,0,0-3.08,7.43c-.42,2.34-1.54,1.89-1.54,1.89s-5.48-3.46-6.07-10a5.92,5.92,0,0,0-.17,2.91A8.9,8.9,0,0,1,97,89.36a10.61,10.61,0,0,0-1.06,4c0,1.89-.52-7.58,1.44-10.68a8.06,8.06,0,0,0-1.94,3.59c-.55,2.22,1.13-10,4-13.4"/><path class="cls-10" d="M154.83,73.54s-1.67,5.22-.5,6,3.46,1.67,11.81,1a9.09,9.09,0,0,0,8.62-7.61s-1.62-3-3.07-3.28l-2.12-1.39S173,73.42,172.64,74s-1.79,3.42-1.79,3.42a12.79,12.79,0,0,1-9.43,2.8c-5.76-.59-5.06-2.29-5.06-2.29l.23-2.94.65-2Z"/><path class="cls-10" d="M115.37,62.78s-2.44,3.72-1,7.48,4.53,5.48,8.88,5.69a8.28,8.28,0,0,0,6.63-2.64l-.3-1.1-4.69,2.54-4,.2-3-1.56-1.7-1.92-.79-3.1-.18-2.17S116.63,62.84,118,62Z"/><path class="cls-10" d="M154.87,62.38s7.4-6.68,19.89-1c0,0,5.18,3.89,6.06,7a15,15,0,0,0-10.64-10.78C161.32,55.35,154.31,60.64,154.87,62.38Z"/><path class="cls-10" d="M113.9,57.1s6.34-7.63,18.23-2.72A3,3,0,0,1,134.36,58s2.66-7.45-7.07-7.31-14.46,5.46-13.58,6.67"/><path class="cls-10" d="M159.8,51.91s12.27.51,16.37,5.19C176.17,57.1,172.92,49.69,159.8,51.91Z"/><path class="cls-18" d="M129,68.26s3.22,4.21-2.1,9.41-11.54,7.49-12.31,12.72"/></svg>