<svg id="Layer_1" data-name="Layer 1" xmlns="http://www.w3.org/2000/svg" viewBox="0 0 128 50"><defs><style>.cls-1{fill:#fffdeb;}</style></defs><path class="cls-1" d="M22.72,45.16V30.24a8.05,8.05,0,0,0-.27-2.32,3.1,3.1,0,0,0-.77-1.33,2.35,2.35,0,0,0-1.1-.6,5.43,5.43,0,0,0-1.29-.15,3.6,3.6,0,0,0-2,.61,6,6,0,0,0-1.69,1.65,9.16,9.16,0,0,0-1.19,2.45,9.53,9.53,0,0,0-.46,3V45.16H6V4.06H13.9v17.7a9.23,9.23,0,0,1,3.31-2.31,11.09,11.09,0,0,1,4-.69,13,13,0,0,1,3.46.47,8.66,8.66,0,0,1,3,1.49,7.42,7.42,0,0,1,2.16,2.71,9.41,9.41,0,0,1,.83,4.15V45.16Z"/><path class="cls-1" d="M63.28,26a6.81,6.81,0,0,1-1.07,3.72,8.89,8.89,0,0,1-3,2.85,16.49,16.49,0,0,1-4.67,1.83,26.09,26.09,0,0,1-6.12.66l-.72,0c-.27,0-.59,0-1,0a5.54,5.54,0,0,0,1.8,3.57,5.7,5.7,0,0,0,3.88,1.29,17.75,17.75,0,0,0,8.84-2.7v6.3a17.3,17.3,0,0,1-4.35,1.89,18.2,18.2,0,0,1-4.71.57,15.54,15.54,0,0,1-5.43-.9,11,11,0,0,1-4.11-2.61,11.64,11.64,0,0,1-2.58-4.08,15,15,0,0,1-.9-5.37,16.67,16.67,0,0,1,1.05-6,14,14,0,0,1,2.94-4.71,13,13,0,0,1,4.53-3.06A15.23,15.23,0,0,1,53.5,18.1a11,11,0,0,1,7.11,2.16A7,7,0,0,1,63.28,26Zm-8,.6A2.08,2.08,0,0,0,54.48,25a3.13,3.13,0,0,0-2.08-.69A4.75,4.75,0,0,0,49,25.69a6.72,6.72,0,0,0-1.84,3.87,5,5,0,0,0,1,.12H49Q55.3,29.68,55.3,26.62Z"/><path class="cls-1" d="M88.3,45.16c0-.28,0-.62-.07-1s-.07-.7-.09-1.14,0-.9-.09-1.38a9.53,9.53,0,0,1-3.91,3.09,12.68,12.68,0,0,1-5.12,1,9.48,9.48,0,0,1-7.66-3.24q-2.74-3.24-2.74-9.24Q68.62,26,73,22.09t12.56-3.93q1.34,0,2.43.06t2.19.21c.73.1,1.48.23,2.26.39s1.62.38,2.55.66v17q0,1.38.06,2.91t.18,2.79q.12,1.5.24,2.94ZM87,25.6a12.23,12.23,0,0,0-1.89-.3q-.86-.06-1.59-.06a6.4,6.4,0,0,0-5.13,2.13,8.78,8.78,0,0,0-1.83,5.91,5.88,5.88,0,0,0,1.1,3.84,3.82,3.82,0,0,0,3.11,1.32,5.49,5.49,0,0,0,2.41-.54,6,6,0,0,0,2-1.53A7.27,7.27,0,0,0,86.55,34,8.76,8.76,0,0,0,87,31Z"/><path class="cls-1" d="M121.9,26.14q-.84-.18-1.32-.24a8.77,8.77,0,0,0-1.08-.06,6.1,6.1,0,0,0-5.19,2.34c-1.18,1.56-1.77,3.89-1.77,7v10h-8V27.83q0-1.47,0-2.55c0-.73-.07-1.4-.15-2s-.19-1.24-.33-1.85-.33-1.3-.57-2.09h7.57c.13.5.24.92.34,1.27a5.45,5.45,0,0,1,.22,1q.06.47.12,1a9.15,9.15,0,0,1,.07,1.26,13.43,13.43,0,0,1,3.41-3.91A6.54,6.54,0,0,1,119,18.76a5.63,5.63,0,0,1,1.41.15,14.56,14.56,0,0,1,1.59.59Z"/></svg>