<svg id="Layer_1" data-name="Layer 1" xmlns="http://www.w3.org/2000/svg" viewBox="0 0 150 50"><defs><style>.cls-1{fill:#fffdeb;}</style></defs><path class="cls-1" d="M8.79,45.55V24.85H3.51v-5.7H8.79V12.49h7.86v6.66h6.78v5.7H16.65v20.7Z"/><path class="cls-1" d="M52.65,32.27a15.16,15.16,0,0,1-1,5.68,11.28,11.28,0,0,1-2.8,4.15,12.11,12.11,0,0,1-4.36,2.57,17.13,17.13,0,0,1-5.65.88,17,17,0,0,1-5.64-.88,12.07,12.07,0,0,1-4.37-2.57A11.6,11.6,0,0,1,26,38a14.76,14.76,0,0,1-1-5.68,14.56,14.56,0,0,1,1-5.54,11.56,11.56,0,0,1,2.77-4.13A11.74,11.74,0,0,1,33.12,20a17.49,17.49,0,0,1,5.73-.88A17.68,17.68,0,0,1,44.5,20a12,12,0,0,1,4.36,2.51,11.13,11.13,0,0,1,2.8,4.13A15,15,0,0,1,52.65,32.27Zm-8,0a6,6,0,0,0-1.61-4.45,5.89,5.89,0,0,0-4.33-1.59,5.55,5.55,0,0,0-4.27,1.59A6.27,6.27,0,0,0,33,32.27a6.64,6.64,0,0,0,1.45,4.58,5.5,5.5,0,0,0,4.31,1.62,5.84,5.84,0,0,0,4.39-1.59A6.36,6.36,0,0,0,44.67,32.27Z"/><path class="cls-1" d="M78.27,44.83a11.48,11.48,0,0,1-.51-1.38q-.15-.54-.33-1.56A11.75,11.75,0,0,1,69,45.55a8.67,8.67,0,0,1-3.57-.73,9,9,0,0,1-2.88-2,8.63,8.63,0,0,1-1.89-3.09,11.71,11.71,0,0,1-.66-4c0-1.64,0-3.15.12-4.56s.14-2.74.18-4,0-2.57,0-3.85-.14-2.65-.3-4.09h8c.12,1.31.19,2.57.21,3.79s0,2.42,0,3.61S68.1,29,68,30.2,68,32.74,68,34.13a6.34,6.34,0,0,0,.38,2.46,2.69,2.69,0,0,0,2.18,1.79,7.68,7.68,0,0,0,1.07.09,6.53,6.53,0,0,0,1.28-.23,4.27,4.27,0,0,0,1.81-1.1,7.45,7.45,0,0,0,1.59-2.55A12.07,12.07,0,0,0,77,30.08V19.15h8V36.6a29.75,29.75,0,0,0,.36,4.55,14.73,14.73,0,0,0,1,3.68Z"/><path class="cls-1" d="M111.06,45.06a17.9,17.9,0,0,1-4.29.49,14.29,14.29,0,0,1-5.28-.94A12.93,12.93,0,0,1,97.32,42a11.25,11.25,0,0,1-2.73-4,13.62,13.62,0,0,1-1-5.21,16.74,16.74,0,0,1,.87-5.5A11.35,11.35,0,0,1,97.14,23a12.19,12.19,0,0,1,4.38-2.81,16.9,16.9,0,0,1,6.09-1,13.94,13.94,0,0,1,4.59.63,16.69,16.69,0,0,1,3,1.35L113.79,28q-.9-.42-1.53-.75a10.2,10.2,0,0,0-1.2-.54,5.81,5.81,0,0,0-1.26-.3,13,13,0,0,0-1.65-.09A6.22,6.22,0,0,0,103.53,28a6,6,0,0,0-1.62,4.42,5.86,5.86,0,0,0,1.68,4.45,6.77,6.77,0,0,0,4.86,1.61,12.82,12.82,0,0,0,3.12-.37A17.06,17.06,0,0,0,114.75,37l.54,6.53A20.82,20.82,0,0,1,111.06,45.06Z"/><path class="cls-1" d="M138.51,45.55V30.63a7.67,7.67,0,0,0-.28-2.32,3.09,3.09,0,0,0-.76-1.33,2.33,2.33,0,0,0-1.11-.6,5.28,5.28,0,0,0-1.28-.15,3.58,3.58,0,0,0-2,.61,5.88,5.88,0,0,0-1.69,1.65A8.8,8.8,0,0,0,130.21,31a9.42,9.42,0,0,0-.46,3V45.55h-8V4.45h7.92v17.7A9.15,9.15,0,0,1,133,19.84a11.08,11.08,0,0,1,4-.69,13,13,0,0,1,3.47.47,8.75,8.75,0,0,1,3,1.49,7.42,7.42,0,0,1,2.16,2.71,9.41,9.41,0,0,1,.83,4.15V45.55Z"/></svg>