<svg id="Layer_1" data-name="Layer 1" xmlns="http://www.w3.org/2000/svg" viewBox="0 0 128 50"><defs><style>.cls-1{fill:#fffdeb;}</style></defs><path class="cls-1" d="M44.29,30.88a7.57,7.57,0,0,1-2.54,6Q39.2,39.1,34.6,39.1a30,30,0,0,1-6.09-.6,17.94,17.94,0,0,1-4.8-1.62l1-6.12a20.48,20.48,0,0,0,9.12,2.7,2.6,2.6,0,0,0,1.89-.57,1.78,1.78,0,0,0,.57-1.29,2.3,2.3,0,0,0-.45-1.47,6.86,6.86,0,0,0-2.19-1.41,35.83,35.83,0,0,1-4.23-2.16,14,14,0,0,1-2.88-2.25,7.61,7.61,0,0,1-1.62-2.49,8.28,8.28,0,0,1-.51-3A6.77,6.77,0,0,1,27.33,13a12.78,12.78,0,0,1,7.58-2.07,23.25,23.25,0,0,1,4.47.39,20.51,20.51,0,0,1,4.48,1.53l-1,6.06a14.22,14.22,0,0,0-4.12-1.65,18.54,18.54,0,0,0-3.94-.45,2.72,2.72,0,0,0-1.91.51,1.79,1.79,0,0,0-.52,1.35,2,2,0,0,0,.82,1.65,17.15,17.15,0,0,0,3.2,1.65A36.28,36.28,0,0,1,40.07,24a13.07,13.07,0,0,1,2.46,2,6.54,6.54,0,0,1,1.36,2.22A7.94,7.94,0,0,1,44.29,30.88Z"/><path class="cls-1" d="M74.83,19.06a6.81,6.81,0,0,1-1.07,3.72,8.89,8.89,0,0,1-3,2.85,16.49,16.49,0,0,1-4.67,1.83,26.09,26.09,0,0,1-6.12.66l-.72,0c-.27,0-.59,0-1,0a5.54,5.54,0,0,0,1.8,3.57A5.7,5.7,0,0,0,64,32.92a17.75,17.75,0,0,0,8.84-2.7v6.3a17.3,17.3,0,0,1-4.35,1.89,18.2,18.2,0,0,1-4.71.57,15.54,15.54,0,0,1-5.43-.9,11,11,0,0,1-4.11-2.61,11.64,11.64,0,0,1-2.58-4.08,15,15,0,0,1-.9-5.37,16.67,16.67,0,0,1,1-6,14,14,0,0,1,2.94-4.71,13,13,0,0,1,4.53-3.06,15.23,15.23,0,0,1,5.82-1.08,11,11,0,0,1,7.11,2.16A7,7,0,0,1,74.83,19.06Zm-8,.6A2.08,2.08,0,0,0,66,18,3.13,3.13,0,0,0,64,17.32a4.75,4.75,0,0,0-3.42,1.41,6.72,6.72,0,0,0-1.84,3.87,5,5,0,0,0,1,.12h.89Q66.85,22.72,66.85,19.66Z"/><path class="cls-1" d="M104.29,19.06a6.81,6.81,0,0,1-1.07,3.72,8.89,8.89,0,0,1-3,2.85,16.49,16.49,0,0,1-4.67,1.83,26.09,26.09,0,0,1-6.12.66l-.72,0c-.27,0-.59,0-1,0a5.54,5.54,0,0,0,1.8,3.57,5.7,5.7,0,0,0,3.88,1.29,17.75,17.75,0,0,0,8.84-2.7v6.3a17.3,17.3,0,0,1-4.35,1.89,18.2,18.2,0,0,1-4.71.57,15.54,15.54,0,0,1-5.43-.9,11,11,0,0,1-4.11-2.61,11.64,11.64,0,0,1-2.58-4.08,15,15,0,0,1-.9-5.37,16.67,16.67,0,0,1,1-6,14,14,0,0,1,2.94-4.71,13,13,0,0,1,4.53-3.06,15.23,15.23,0,0,1,5.82-1.08,11,11,0,0,1,7.11,2.16A7,7,0,0,1,104.29,19.06Zm-8,.6A2.08,2.08,0,0,0,95.49,18a3.13,3.13,0,0,0-2.08-.69A4.75,4.75,0,0,0,90,18.73a6.72,6.72,0,0,0-1.84,3.87,5,5,0,0,0,.95.12H90Q96.31,22.72,96.31,19.66Z"/></svg>