<svg id="Layer_1" data-name="Layer 1" xmlns="http://www.w3.org/2000/svg" viewBox="0 0 150 50"><defs><style>.cls-1{fill:#fffdeb;}</style></defs><path class="cls-1" d="M28.2,38.14a7.57,7.57,0,0,1-2.54,6q-2.55,2.22-7.15,2.22a30,30,0,0,1-6.09-.6,17.94,17.94,0,0,1-4.8-1.62l1-6.12a20.48,20.48,0,0,0,9.12,2.7,2.6,2.6,0,0,0,1.89-.57,1.78,1.78,0,0,0,.57-1.29,2.3,2.3,0,0,0-.45-1.47A6.86,6.86,0,0,0,17.58,36a35.83,35.83,0,0,1-4.23-2.16,14,14,0,0,1-2.88-2.25,7.61,7.61,0,0,1-1.62-2.49,8.28,8.28,0,0,1-.51-3,6.77,6.77,0,0,1,2.9-5.85,12.78,12.78,0,0,1,7.58-2.07,23.25,23.25,0,0,1,4.47.39,20.51,20.51,0,0,1,4.48,1.53l-1,6.06a14.22,14.22,0,0,0-4.12-1.65A18.54,18.54,0,0,0,18.75,24a2.72,2.72,0,0,0-1.91.51,1.79,1.79,0,0,0-.52,1.35,2,2,0,0,0,.82,1.65,17.15,17.15,0,0,0,3.2,1.65A36.28,36.28,0,0,1,24,31.27a13.07,13.07,0,0,1,2.46,2,6.54,6.54,0,0,1,1.36,2.22A7.94,7.94,0,0,1,28.2,38.14Z"/><path class="cls-1" d="M70.08,45.46V32.41c0-2.36-.34-4-1-4.9a3.25,3.25,0,0,0-2.74-1.37,4,4,0,0,0-1.79.43A4.59,4.59,0,0,0,62.9,28a7.48,7.48,0,0,0-1.19,2.63,15.87,15.87,0,0,0-.45,4.1V45.46h-8V32.41a9.37,9.37,0,0,0-.93-4.76,3.34,3.34,0,0,0-3.09-1.51,4.34,4.34,0,0,0-3.54,2q-1.5,2-1.5,6.53V45.46h-8V28.88q0-1.45-.06-2.64c0-.8-.11-1.54-.21-2.24a16.75,16.75,0,0,0-.42-2c-.18-.66-.39-1.36-.63-2.09h8l.45,1.4a13.44,13.44,0,0,1,.33,1.33,18.54,18.54,0,0,1,4.15-2.55,13.49,13.49,0,0,1,5.48-1,9.3,9.3,0,0,1,4.09.87,6,6,0,0,1,2.71,2.42,9,9,0,0,1,4-2.45,16.6,16.6,0,0,1,5.17-.84,8.54,8.54,0,0,1,6.48,2.39q2.28,2.39,2.28,6.93V45.46Z"/><path class="cls-1" d="M110.46,26.32A6.81,6.81,0,0,1,109.39,30a8.89,8.89,0,0,1-3,2.85,16.49,16.49,0,0,1-4.67,1.83,26.09,26.09,0,0,1-6.12.66l-.72,0c-.27,0-.59,0-1,0a5.54,5.54,0,0,0,1.8,3.57,5.7,5.7,0,0,0,3.88,1.29,17.75,17.75,0,0,0,8.84-2.7v6.3a17.3,17.3,0,0,1-4.35,1.89,18.2,18.2,0,0,1-4.71.57,15.54,15.54,0,0,1-5.43-.9,11,11,0,0,1-4.11-2.61,11.64,11.64,0,0,1-2.58-4.08,15,15,0,0,1-.9-5.37,16.67,16.67,0,0,1,1-6,14,14,0,0,1,2.94-4.71,13,13,0,0,1,4.53-3.06,15.23,15.23,0,0,1,5.82-1.08,11,11,0,0,1,7.11,2.16A7,7,0,0,1,110.46,26.32Zm-8,.6a2.08,2.08,0,0,0-.82-1.65,3.13,3.13,0,0,0-2.08-.69A4.75,4.75,0,0,0,96.16,26a6.72,6.72,0,0,0-1.84,3.87,5,5,0,0,0,1,.12h.89Q102.48,30,102.48,26.92Z"/><path class="cls-1" d="M117.06,45.46V3.64h8V45.46Z"/><path class="cls-1" d="M134.4,45.46V3.64h8V45.46Z"/></svg>