<svg id="Layer_1" data-name="Layer 1" xmlns="http://www.w3.org/2000/svg" viewBox="0 0 128 50"><defs><style>.cls-1{fill:#fffdeb;}</style></defs><path class="cls-1" d="M6.22,41.08V20.38H.94v-5.7H6.22V8h7.86v6.66h6.78v5.7H14.08v20.7Z"/><path class="cls-1" d="M42.94,41.08a8.3,8.3,0,0,0-.07-1q-.06-.48-.09-1.14t-.09-1.38a9.53,9.53,0,0,1-3.91,3.09,12.67,12.67,0,0,1-5.11,1A9.48,9.48,0,0,1,26,38.44q-2.74-3.24-2.74-9.24,0-7.26,4.41-11.19t12.56-3.93c.89,0,1.71,0,2.44.06s1.46.11,2.19.21,1.48.23,2.25.39,1.62.38,2.55.66v17q0,1.38.06,2.91t.18,2.79q.12,1.5.24,2.94ZM41.68,21.52a12.23,12.23,0,0,0-1.89-.3q-.85-.06-1.59-.06a6.4,6.4,0,0,0-5.13,2.13,8.78,8.78,0,0,0-1.83,5.91A5.88,5.88,0,0,0,32.34,33a3.82,3.82,0,0,0,3.11,1.32,5.56,5.56,0,0,0,2.42-.54,6.07,6.07,0,0,0,2-1.53A7.27,7.27,0,0,0,41.19,30a8.76,8.76,0,0,0,.49-3Z"/><path class="cls-1" d="M77.5,33.76a7.57,7.57,0,0,1-2.54,6Q72.41,42,67.81,42a30,30,0,0,1-6.09-.6,17.94,17.94,0,0,1-4.8-1.62l1-6.12a20.48,20.48,0,0,0,9.12,2.7A2.6,2.6,0,0,0,69,35.77a1.78,1.78,0,0,0,.57-1.29A2.3,2.3,0,0,0,69.07,33a6.86,6.86,0,0,0-2.19-1.41,35.83,35.83,0,0,1-4.23-2.16,14,14,0,0,1-2.88-2.25,7.61,7.61,0,0,1-1.62-2.49,8.28,8.28,0,0,1-.51-3,6.77,6.77,0,0,1,2.9-5.85,12.75,12.75,0,0,1,7.58-2.07,23.25,23.25,0,0,1,4.47.39,20.51,20.51,0,0,1,4.48,1.53l-1,6.06A14.22,14.22,0,0,0,72,20.11a18.54,18.54,0,0,0-3.94-.45,2.72,2.72,0,0,0-1.91.51,1.79,1.79,0,0,0-.52,1.35,2,2,0,0,0,.82,1.65,17.15,17.15,0,0,0,3.2,1.65,37.44,37.44,0,0,1,3.64,2.07,13.07,13.07,0,0,1,2.46,2,6.54,6.54,0,0,1,1.36,2.22A8.22,8.22,0,0,1,77.5,33.76Z"/><path class="cls-1" d="M86.5,41.08V20.38H81.22v-5.7H86.5V8h7.86v6.66h6.78v5.7H94.36v20.7Z"/><path class="cls-1" d="M127.06,21.94A6.81,6.81,0,0,1,126,25.66a8.89,8.89,0,0,1-3,2.85,16.49,16.49,0,0,1-4.67,1.83,26.09,26.09,0,0,1-6.12.66l-.72,0c-.27,0-.59,0-1,0a5.54,5.54,0,0,0,1.8,3.57,5.7,5.7,0,0,0,3.88,1.29A17.78,17.78,0,0,0,125,33.1v6.3a17.3,17.3,0,0,1-4.35,1.89,18.2,18.2,0,0,1-4.71.57,15.54,15.54,0,0,1-5.43-.9,11,11,0,0,1-4.11-2.61,11.64,11.64,0,0,1-2.58-4.08,15,15,0,0,1-.9-5.37,16.67,16.67,0,0,1,1-6,14,14,0,0,1,2.94-4.71,13,13,0,0,1,4.53-3.06A15.23,15.23,0,0,1,117.28,14a11,11,0,0,1,7.11,2.16A7,7,0,0,1,127.06,21.94Zm-8,.6a2.11,2.11,0,0,0-.82-1.65,3.13,3.13,0,0,0-2.08-.69,4.75,4.75,0,0,0-3.42,1.41,6.72,6.72,0,0,0-1.84,3.87,5,5,0,0,0,1,.12h.89Q119.07,25.6,119.08,22.54Z"/></svg>