<svg id="Layer_1" data-name="Layer 1" xmlns="http://www.w3.org/2000/svg" viewBox="0 0 512 450"><defs><style>.cls-1{opacity:0.3;}.cls-11,.cls-2{fill:#ffd4a0;}.cls-2{stroke:#483e33;stroke-miterlimit:10;}.cls-3,.cls-4{fill:#dc9c5e;}.cls-3{opacity:0.61;}.cls-5{fill:#a47b57;}.cls-6{fill:#4a2c14;}.cls-7{fill:#392008;}.cls-15,.cls-8{fill:#fbffea;}.cls-8{opacity:0.89;}.cls-9{fill:#946024;}.cls-10{fill:#5b381b;}.cls-12{fill:#f4e9df;}.cls-13,.cls-14{fill:#82807f;}.cls-13{opacity:0.2;}.cls-14{opacity:0.25;}</style></defs><ellipse class="cls-1" cx="279.96" cy="433" rx="95" ry="19.5"/><path class="cls-2" d="M246,437.37c22.56,5.27,45.78,5.31,68.74,2.22C348.85,435,365,395,374.13,365.41c3.55-11.48,18.1-125,11.08-133.43-6.82-8.19-32.72,4.37-43.26,5.28a481.41,481.41,0,0,1-50.68,1.22c-39.69-.8-78.14-6.37-117.35-1.44-3.35,37.09,6.21,112.57,20.68,146.67,10.23,20.46,22.68,44.26,46.1,52.18Q243.25,436.75,246,437.37Z"/><path class="cls-3" d="M319.32,426.62c-23,3.09-46.17,3.05-68.74-2.22q-2.7-.63-5.25-1.49c-23.42-7.92-35.86-31.72-46.09-52.18-13-30.6-22.67-94.56-22.09-134.16-1.34.15-1.89.3-3.23.47-3.35,37.09,6.21,112.57,20.68,146.67,10.23,20.46,22.68,43.46,46.1,51.38q2.55.86,5.25,1.48a174.14,174.14,0,0,0,68.74,2.23c35.13-5.95,45-36.83,55.37-68.79C360,395.82,347,422.9,319.32,426.62Z"/><path class="cls-4" d="M323.4,429.35c-24.19,3.19-48.66,3.15-72.45-2.3-1.89-.43-3.74-.94-5.53-1.54-45.88-15.21-57-73.58-64.33-114.46a485.52,485.52,0,0,1-7.73-72.35,217.76,217.76,0,0,0-.79,29c-10.49-4.29-23.12-.55-31.33,7.27-27.31,26-17.23,68.19,7,92.44a75.12,75.12,0,0,0,20.79,14.86,62.66,62.66,0,0,0,12.34,4.37c3.12.73,9-.84,11.42.59,7,4.19,16.28,21.38,21.83,28.18,7.35,9,14.91,15.91,26,19.67q2.55.86,5.25,1.48c22.56,5.28,45.78,5.31,68.74,2.23,14.9-2,26.52-13.43,35.65-25.1C342.72,420.05,333.82,428,323.4,429.35ZM185.11,355.56c0,1.1,0,2.19-.08,3.26-.38,6.35,0,7.54-7.17,7.68-4.33.08-8.73-1.86-12.34-4-15.24-9.21-26-32.18-24.34-49.79,1.48-15.37,13.23-32,30.45-28.79,5.47,1,5.35,24.92,5.93,29.09C179.39,326.29,185,341.85,185.11,355.56Z"/><ellipse class="cls-5" cx="280.21" cy="235.73" rx="106.89" ry="37.89"/><path class="cls-4" d="M379.24,235.91c0,15.22-44,27.56-98.27,27.56s-98.26-12.34-98.26-27.56,43.37-30.69,97.64-30.69S379.24,220.69,379.24,235.91Z"/><path class="cls-6" d="M193.49,248.47c22.53,15,84.49,15.76,100.88,15,21.26-1,48.09-2.87,67.48-11.79l0,0a39.26,39.26,0,0,0,5.29-2.95C341.84,234.85,225.38,223.75,193.49,248.47Z"/><path class="cls-7" d="M262.49,236.13c38.85,1.69,75.39,9.09,91.27,18.7a75.86,75.86,0,0,0,8.09-3.15l0,0a39.26,39.26,0,0,0,5.29-2.95C352.36,240.6,305.34,234.69,262.49,236.13Z"/><path class="cls-8" d="M363.78,252.55c-1.11,1-10.5,4.28-12.46,4.92-6.47,2.1-13,4.37-19.74,5.51-8.73,1.48-19.51,2-28.34,2.7-4.55.33-23.7.84-25.55-.07a.12.12,0,0,0-.17.07C275.9,270.8,346.6,267.55,363.78,252.55Z"/><path class="cls-9" d="M296.14,235c-5.59-.29-11.19-.54-16.79-.67-10.8-.26-21.6.49-32.4.94-32.07,1.31-50.7,13.45-49.77,13,11.37-5.36,18.17-4.73,30.16-7.4a1.4,1.4,0,0,0-.6,1.18,1.53,1.53,0,0,0,1.51,1.5,1.52,1.52,0,0,0,1.5-1.5,1.56,1.56,0,0,0-1.13-1.46l.42-.08a1.34,1.34,0,0,0,1.64.82c.34-.13,1.24-1.05,1.22-1.39q8.41-1.63,17.12-2.46a281.69,281.69,0,0,1,30.33-.95c5.35.09,10.69.28,16,.54s24,2.67,29.22,2C325.22,239,301.21,235.25,296.14,235Z"/><path class="cls-9" d="M333.28,248.72c-9.44-2.85-20.28-2.91-30.06-3.42-10.51-.54-21.05-.58-31.56-.13q-14.79.63-29.46,2.65c-8.21,1.14-17.39,2.25-23.74,8.09-.35.32.1.87.5.65,8.31-4.67,17.13-6.09,26.49-7.17,9.7-1.13,19.45-1.89,29.21-2.22q14.28-.48,28.56.26c9.91.51,20,2.54,29.91,2.4A.57.57,0,0,0,333.28,248.72Z"/><path class="cls-9" d="M306.85,258.89c-1.33-2.76-7-2.46-9.47-2.75-10.36-1.18-21.84-1.67-32.05.76a.28.28,0,0,0,.07.55c6.32-.13,12.57-.81,18.9-.63,2.91.08,5.83.26,8.73.54q2.79.27,5.56.66l2.88.44a3.38,3.38,0,0,1,3.22,2,.93.93,0,0,0,0,1.86A2.33,2.33,0,0,0,306.85,258.89Z"/><path class="cls-9" d="M341.69,249.39c-1-.27-4-.07-3.18,2.33.14.39,1.26.59,1.45.6a3.15,3.15,0,0,0,.93,0c.95-.14,1.53-.31,1.86-1.06A1.46,1.46,0,0,0,341.69,249.39Z"/><path class="cls-10" d="M338.2,242.62a1.54,1.54,0,0,0-1.28.74,1.51,1.51,0,0,0,.23,1.8,2.42,2.42,0,0,0,.44.35l.05.05a.83.83,0,0,0,1.12,0l0-.05a2.18,2.18,0,0,0,.45-.35A1.5,1.5,0,0,0,338.2,242.62Z"/><path class="cls-10" d="M352.91,248.24a.77.77,0,0,0-1.54,0l0,.39a.81.81,0,0,0,1.62,0Z"/><path class="cls-9" d="M240.33,239.15a1.37,1.37,0,0,0-1.9,1.26v.05a1.23,1.23,0,0,0,.17.64,1.37,1.37,0,1,0,1.71-1.95Z"/><path class="cls-9" d="M247.31,254.47a2,2,0,0,0-1.51-.51,1.51,1.51,0,1,0,0,3,2,2,0,0,0,1.51-.51A1.44,1.44,0,0,0,247.31,254.47Z"/><path class="cls-9" d="M255.08,251a2.52,2.52,0,0,0-1.13-.34.58.58,0,0,0-.26,0c-.25,0-.26,0,0,0l-.37.05a2.8,2.8,0,0,0-.43.19,1.38,1.38,0,0,0-.66,1.38,1.43,1.43,0,0,0,1,1.14c.15.07.14.06,0,0a2.09,2.09,0,0,0,.41.17l.38.12a1.5,1.5,0,0,0,1.15-2.73Z"/><path class="cls-9" d="M258.24,256.25l-.15-.16a.59.59,0,0,0-.83,0l-.16.16c-.33.3-.42.54-.37.73s.48.49.92.48h0c.45,0,.89-.15.93-.49S258.57,256.55,258.24,256.25Z"/><path class="cls-9" d="M263.35,252.22a.67.67,0,0,0,0,1.33A.67.67,0,0,0,263.35,252.22Z"/><path class="cls-4" d="M362.42,215c-9.39-3.17-14.82-5.9-28.63-8.41a184.08,184.08,0,0,0-29.58-3.43c-.38,0,20,3.29,29.47,5.23C344.87,210.62,363.69,215.4,362.42,215Z"/><path class="cls-11" d="M167,269.79c-12.33-2.17-24.48,5.47-31.33,15.31-7.23,10.36-11,27.06-4.71,38.71.54,1,1.84.42,1.94-.53.61-5.5.3-11.16.86-16.69a40.68,40.68,0,0,1,5.7-17.26c6-9.69,16-14.89,27.09-16.21C168.23,272.91,169,270.15,167,269.79Z"/><path class="cls-12" d="M185.68,250c-6.11-4.5-12.43-12.51-5.32-21.23.29-.35-7.76,21.23,30.83,30.74C214.49,260.32,196.27,257.81,185.68,250Z"/><path class="cls-13" d="M307.41,61a106.58,106.58,0,0,0,11-4c5-2.14,10.3-5.4,11.35-10.72,1.25-6.32-4.44-12.18-10.59-14.07S306.38,31.1,300,30.68s-13.46-2.6-16.56-8.25c-1.09-2-1.57-4.51-.47-6.48a8.77,8.77,0,0,1,4.24-3.26,52.85,52.85,0,0,1,15.49-4.36c-9.61,1.17-17.27-.61-26.58,4.11-5.16,2.62-16.28,11-8.29,17.21,2.56,2,6.08,2,9.24,2.74s6.57,3.2,6.1,6.41c-.28,1.91-1.86,3.34-3.46,4.42-8.54,5.8-19.47,6.32-29.78,7C224.17,52,198,56.36,175.49,68.88c-9.15,5.09-17.77,11.66-23.32,20.54-2.79,4.46-4.79,9.78-3.75,14.94,1.91,9.46,12.52,14,21.75,16.83,18.59,5.69,37.5,10.63,56.84,12.59,14.73,1.5,30.76,1.66,42.4,10.81,4.36,3.42,8,8.42,7.93,14,0,5.24-3.35,10-7.57,13.11s-9.29,4.77-14.28,6.36q-16.89,5.34-34,9.88c-9.65,2.56-21.13,6.7-23,16.51-1,5.51,1.66,11.25,5.81,15s9.57,5.85,15,7.26c7.32,1.89,14.87,2.71,22.34,3.92,3.78.61,7.65,1.37,10.87,3.45s5.66,5.79,5.14,9.58-4.82,6.93-8.32,5.39c4.09,2.72,10.21-.66,11.29-5.45s-1.78-9.79-5.75-12.68-8.87-4.14-13.64-5.32l-21.17-5.24c-3.9-1-7.91-2-11.14-4.37s-5.52-6.54-4.52-10.43c.92-3.6,4.26-6,7.52-7.79A63.21,63.21,0,0,1,235,190.37c-2.2,4.09-.78,9.4,2.3,12.86s7.5,5.42,11.9,6.91A85,85,0,0,0,270,214.38c5.15.39,11,.58,14.4,4.42,3.93,4.38,2.67,11.43-.45,16.42s-7.73,8.93-10.66,14c6.05-4,11.76-8.95,14.77-15.53s2.76-15.06-2.15-20.39c-7.85-8.5-21.82-5.12-32.92-8.4-4.58-1.35-9.35-5-8.93-9.72s5.43-7.37,9.85-9C281.45,176,311.51,172.87,338,160.14c6.2-3,13.09-8.39,11.61-15.1-.7-3.19-3.21-5.64-5.8-7.63-14.94-11.49-35-13.28-53.78-14.24s-38.69-1.82-54.54-12c-6.78-4.35-13-12.08-10.66-19.79,1.48-4.82,5.93-8.08,10.34-10.53C257.1,68.69,283.47,68.27,307.41,61Zm-7,76.62a2.63,2.63,0,0,1,1.59-1.34,8.19,8.19,0,0,1,.81-.23c7.22-1.58,20.76,3.47,20.35,12.34-.27,6.13-6.7,9.89-12.41,12.15-14,5.56-4.33-4.78,1.8-9.45a4.4,4.4,0,0,0,1.86-2.22c.6-2.37-2.53-3.73-4.88-4.41a27,27,0,0,1-6.93-3.07C301.22,140.53,299.78,139.06,300.38,137.59Zm-67.24-15.38c-6.57,2-17.26,1.45-27.47-1.2-11.76-3.05-22.88-9-26.35-17.18-5.79-13.76,6.18-29.31,20.08-30.19a12.72,12.72,0,0,1,5.11.37,4.35,4.35,0,0,1,3.05,3.76,5.34,5.34,0,0,1-1.21,3c-4.65,6.4-16.39,10.79-13.61,20.41C196.16,113.11,223.1,119.81,233.14,122.21Z"/><path class="cls-14" d="M302.2,116.32a296.53,296.53,0,0,1,39.13,7.16c6.69,1.7,13.83,4,17.88,9.56,3.56,4.9,4,11.61,2.14,17.37s-5.72,10.7-10.11,14.88c10.91-4.93,22.93-12.6,23.63-24.55.54-9.06-6.2-17.29-14.33-21.34S343.1,114.62,334,114l-50.23-3.67c-2-.15-3.47-.58-5.45-.16C284.46,115.14,294.35,115.42,302.2,116.32Z"/><path class="cls-14" d="M327.07,193.39c-5.62-3.23-14-.18-19.41,2.26-6,2.66-13.25,8.38-12.46,15.63.83,7.61,9.44,10.24,15.36,12.93,4.57,2.07,8.11,7.36,5.32,12.24-2.65,4.64-8.19,5.41-12.91,6.69a1.36,1.36,0,0,0,.37,2.66c7.32-.31,16.1-3,21.16-8.66,2.37-2.64,3.69-6.54,2.32-9.81-1-2.38-3.19-4-5.28-5.53-3.82-2.76-15.75-6.12-18.05-9.37-8.47-12,16.29-19,24.18-18.66C327.48,193.64,327.28,193.51,327.07,193.39Z"/><path class="cls-15" d="M378,268.83c-1-14-1.75-10.74-1.95,0-.23,12.16.89,25.95-.36,38s-3,29.07-5.58,41.05c-2.52,11.65-10.08,32.47-13.54,39.65-4.2,8.71-22.73,26.8-22.73,26.8s15.32-6.25,24.92-24.59c6.3-12,10.53-27.75,13.79-41.1s4.51-28.13,6-41.67S379,282.43,378,268.83Z"/></svg>