<svg id="Layer_1" data-name="Layer 1" xmlns="http://www.w3.org/2000/svg" xmlns:xlink="http://www.w3.org/1999/xlink" viewBox="0 0 512 400"><defs><style>.cls-1{fill:none;}.cls-2{clip-path:url(#clip-path);}.cls-3{fill:#040d2e;}.cls-4{opacity:0.3;}.cls-5{fill:#f2dce9;}.cls-6{fill:#eed1e4;}.cls-7{fill:#eecfe1;}.cls-8{fill:#ffebf7;}.cls-9{fill:#e6bfd9;}.cls-10{fill:#cf99bd;}.cls-11{fill:#eed8e5;}.cls-12{fill:#fff;}.cls-13{fill:#769e37;}.cls-14{fill:#8bb44b;}.cls-15{fill:#9ccc50;}</style><clipPath id="clip-path"><rect class="cls-1" x="61" y="-565" width="478" height="590" rx="58.11" transform="translate(30 -570) rotate(90)"/></clipPath></defs><g class="cls-2"><rect class="cls-3" x="23.58" y="-564.47" width="551.51" height="591.33" transform="translate(30.53 -568.15) rotate(90)"/></g><path class="cls-4" d="M296.78,188.85c.21-.24.43-.48.64-.73s.45-.54.67-.82.43-.52.63-.79.42-.56.62-.84.41-.56.61-.85.38-.58.57-.87.39-.6.58-.91.35-.59.52-.89.37-.64.54-1l.48-.92c.16-.34.33-.67.49-1s.29-.63.43-1,.3-.7.44-1.06.26-.65.38-1,.26-.73.39-1.11.22-.68.32-1,.23-.77.33-1.15.19-.71.27-1.06.19-.8.27-1.2.15-.73.21-1.09.14-.83.2-1.25.11-.74.15-1.12.09-.86.13-1.29.07-.77.09-1.16,0-.89.06-1.33,0-.79,0-1.19,0-.92,0-1.39,0-.8,0-1.2-.07-1-.11-1.44-.07-.82-.11-1.24-.13-1-.2-1.49-.11-.83-.18-1.25-.2-1-.3-1.57-.16-.83-.25-1.24-.27-1.11-.41-1.66-.2-.82-.31-1.24c-.16-.58-.35-1.18-.54-1.77-.12-.4-.23-.79-.36-1.19-.22-.66-.47-1.33-.72-2-.12-.35-.23-.68-.37-1-.39-1-.81-2.06-1.27-3.1-15.18-34.59-53-37-72.12-52.77-.62-.51-1.21-1-1.79-1.55-.2-.18-.38-.37-.57-.56-.37-.34-.74-.69-1.09-1s-.42-.45-.64-.68-.61-.64-.9-1l-.64-.75c-.26-.31-.53-.62-.78-.93l-.62-.81c-.23-.3-.47-.6-.69-.91l-.59-.85c-.2-.3-.41-.59-.61-.9s-.37-.59-.55-.88-.37-.6-.54-.9-.35-.61-.52-.92l-.48-.89c-.16-.31-.32-.63-.47-.94s-.29-.59-.43-.89l-.43-1c-.13-.3-.26-.59-.38-.88s-.26-.68-.39-1-.23-.58-.33-.87-.24-.68-.35-1-.2-.57-.29-.86-.21-.7-.32-1l-.24-.85c-.1-.36-.19-.72-.28-1.08l-.21-.83-.24-1.09c-.06-.28-.12-.56-.17-.84s-.14-.73-.21-1.09C211.8,48,212.84,37,213.49,28.24c2.38-7.31-40-17.74-41-5.7-.25,10.83-2.58,30-5.77,44.08a41.64,41.64,0,0,1-6,13.88,48.37,48.37,0,0,1-3.95,5.17l-.37.42c-.71.8-1.44,1.58-2.2,2.34l-.3.29c-.72.72-1.47,1.42-2.23,2.11l-.27.24c-.81.73-1.64,1.43-2.49,2.12l-.44.36c-1.73,1.4-3.53,2.73-5.37,4l-.45.32c-.91.63-1.83,1.25-2.75,1.86l-.33.21q-1.34.89-2.7,1.74l-.27.17c-1,.6-1.92,1.2-2.88,1.78l-.46.29c-2.08,1.26-4.16,2.5-6.22,3.72l-2.65,1.58-.54.33L121.47,111l-.51.32c-.87.53-1.73,1.07-2.58,1.61l-.56.36c-.88.56-1.75,1.13-2.59,1.7-21.13,14.26-37.81,36.41-31,68.35.33,1.53.72,3,1.17,4.48.15.49.33,1,.49,1.43.33,1,.65,1.93,1,2.86.22.56.47,1.09.71,1.64.36.83.73,1.66,1.13,2.47.27.56.57,1.1.86,1.65.41.76.82,1.51,1.25,2.25.33.54.66,1.08,1,1.61.45.7.91,1.4,1.38,2.08.36.52.72,1,1.09,1.53.49.66,1,1.31,1.51,1.95.39.48.77,1,1.17,1.43.53.62,1.08,1.23,1.63,1.83.41.43.8.87,1.21,1.29.59.61,1.19,1.18,1.79,1.75.4.38.79.77,1.19,1.13.67.61,1.35,1.17,2,1.74.36.29.7.6,1.06.89,1,.79,2,1.54,3,2.26l.38.26c1,.66,2,1.3,2.93,1.89.39.23.78.43,1.17.65.68.39,1.36.78,2,1.13h0l0,0,.12.05c.34.18.68.32,1,.49l.42.19c.42.2.83.41,1.24.59l.45.18c.42.18.84.33,1.25.49l.25.09,1,.39c.2.07.4.11.6.18.44.15.86.27,1.29.4s.63.2.94.28l0,0h0c.25.07.5.1.75.16.42.1.84.2,1.26.28l.63.14-.08-.05c.64.11,1.29.24,1.91.31,1,.1,1.95.14,2.91.15h.88c.37,0,.73,0,1.09-.05l.59,0,.26,0c.63-.05,1.25-.12,1.86-.22h0v0c.56.6,1.13,1.18,1.73,1.74.2.2.42.37.62.56.41.37.82.73,1.24,1.08l.78.6c.4.31.79.62,1.2.91l.88.59,1.21.79.94.55c.41.24.82.48,1.24.7l1,.51c.42.21.85.42,1.29.62l.53.26.49.2,1.34.55.63.26.42.14,1.39.49,1.06.35,1.48.43c.26.07.52.16.79.22l.24.06c.53.14,1.07.26,1.61.38l.95.22c.67.14,1.34.26,2,.37l.59.11c.87.14,1.75.26,2.62.36h.09c.28,0,.56.05.84.08.58.06,1.16.12,1.74.16l1.14.07,1.54.08,1.23,0h1.89l.84,0,1.42-.05,1.3-.07,1.39-.11c.44,0,.87-.07,1.31-.12l1.37-.15,1.3-.17,1.35-.21,1.31-.22,1.31-.26c.43-.09.87-.17,1.3-.27s.85-.2,1.28-.3l1.29-.32c.42-.11.84-.24,1.25-.36s.85-.23,1.27-.36l1.41-.46,1-.35,1.16-.44,1.12-.43c.42-.16.83-.34,1.24-.52l1.07-.46,1.2-.57,1-.51,1.14-.61,1-.56,1.1-.65c.31-.2.63-.39.94-.6s.7-.46,1-.69.6-.42.9-.64l1-.74.34-.25h0c.39-.31.78-.61,1.16-.93a33.9,33.9,0,0,0,3.3-3.26c13.67,9.38,34.05,9.09,48.28-.68h0a.05.05,0,0,1,0,0c.77-.54,1.53-1.1,2.26-1.69l.27-.22q.93-.76,1.83-1.59l.17-.15v0a37.07,37.07,0,0,0,11-19.75l1.21-.41.45-.18c.28-.11.55-.21.84-.34l.11,0h0l1-.43.24-.09,1-.4.66-.29,1-.45.65-.32,1-.5.64-.36,1-.56.61-.38c.34-.2.67-.41,1-.63l.57-.38,1-.71.46-.34a42.71,42.71,0,0,0,3.62-3c.14-.13.29-.25.42-.38.28-.27.54-.54.8-.81l.63-.63Z"/><path class="cls-5" d="M171.78,15c11.23,2,38.49,3.91,41.05,5.7-1.25,16.87-4,42,16,58.44,19.15,15.78,53.55,18,69.89,52.29,18.25,38.34-10.43,58.7-22.22,62.34-6.32,30.19-42.91,38.46-63.82,24.12-16,18.27-58.58,22.5-77.19,2.15a30,30,0,0,1-7.6.16c-15.7-1.61-38.95-19-44.35-44.4-6.79-31.94,9.89-54.1,31-68.35,18.82-12.7,45.68-22.94,51.46-48.38C169.21,45,171.54,25.83,171.78,15Z"/><path class="cls-6" d="M119.3,217c-8.65-5.8-16.48-13.27-21.59-22.43-9.07-16.23-7.49-37.4,1.16-53.48a118.71,118.71,0,0,1,19.94-26.49,98.87,98.87,0,0,1,11.94-10.65c4.25-3.15,8.69-6.07,12.72-9.5a66.05,66.05,0,0,0,16.76-21.73c-10.44,16-30.62,24.6-45.67,34.76-21.13,14.25-37.81,36.41-31,68.35,4.91,23.12,24.56,39.56,39.89,43.58A38.26,38.26,0,0,1,119.3,217Z"/><path class="cls-7" d="M301,131.91c-15.18-34.6-53-37-72.12-52.77-20-16.49-17.25-41.57-16-58.44-.89-.62-4.76-1.26-9.9-1.91-.88-.11-4.08,23.58-2.21,33.17,1.81,9.31,4.76,18.74,10.45,26.46,6.47,8.8,15.31,15.43,23.29,22.76A175.47,175.47,0,0,1,257,126.13c6.59,8.94,12.4,18.35,16.44,28.73,3,7.79,6.2,24.81,4.16,38.35C295.64,187.84,315.94,166.06,301,131.91Z"/><path class="cls-8" d="M301,131.91c-15.18-34.6-53-37-72.12-52.77-9.75-8-14.09-18.14-15.84-28.32a62.42,62.42,0,0,0,2.07,12.6,40.41,40.41,0,0,0,12.62,20.24A60.29,60.29,0,0,0,241,91.5c4.81,2.25,9.58,4.52,14.23,7.07a138.56,138.56,0,0,1,14.66,9.14,141.28,141.28,0,0,1,11.26,8.7c6.9,6.15,12.91,13.45,16.38,22.1a44,44,0,0,1,3,13.45A43.55,43.55,0,0,1,298,168.54a46.67,46.67,0,0,1-6.28,13.12,40.65,40.65,0,0,1-8.75,8.67c-1,.74-2.07,1.45-3.13,2.12C297.26,186,315.32,164.64,301,131.91Z"/><path class="cls-7" d="M191.22,103.41c.2-26.61.66-54.6-4.38-87.07-5.27-.58-4.61.13-9.18-.47-.64,5.54-.13,11.24-.14,16.78,0,6.83-1.13,13.68-2,20.44s-1.92,13.65-4.2,20.14-5.81,12.63-9.44,18.49c-3.81,6.16-8,12.11-12.3,17.93a152.84,152.84,0,0,1-11.76,14.25c-4.32,4.57-8.83,9-12.8,13.88a45,45,0,0,0-9,16.73,57.86,57.86,0,0,0-1.89,20.7,64.57,64.57,0,0,0,5.36,20c1.46,3.27,3.29,6.34,4.86,9.55s2.82,6.37,4.06,9.63c.77,2,1.53,4,2.4,6a30.11,30.11,0,0,0,4.69-.33c18.61,20.35,61.18,16.12,77.19-2.15C192.27,184.34,191.11,117.76,191.22,103.41Z"/><path class="cls-9" d="M175.86,225.73c-7.48-.6-15.24-2.06-22-5.41a36,36,0,0,1-16.63-16.67c-3.46-7.21-4.73-15.29-4.66-23.23a76.66,76.66,0,0,1,5.07-26.87c7.49-19.51,20.91-35.93,29.54-54.87,4.65-10.2,12.48-28.89,12.67-49.46.55-11,.65-22.06.85-33.09a24.29,24.29,0,0,1-3-.26c-.64,5.54-.13,11.24-.14,16.78,0,6.83-1.13,13.68-2,20.44s-1.92,13.65-4.2,20.14-5.81,12.63-9.44,18.49c-3.81,6.16-8,12.11-12.3,17.93a152.84,152.84,0,0,1-11.76,14.25c-4.32,4.57-8.83,9-12.8,13.88a45,45,0,0,0-9,16.73,57.86,57.86,0,0,0-1.89,20.7,64.57,64.57,0,0,0,5.36,20c1.46,3.27,3.29,6.34,4.86,9.55s2.82,6.37,4.06,9.63c.77,2,1.53,4,2.4,6a30.11,30.11,0,0,0,4.69-.33c17.09,18.69,54.39,16.64,72.77,2A81.94,81.94,0,0,1,175.86,225.73Z"/><path class="cls-10" d="M276.5,193.77a26.12,26.12,0,0,0,2.61-1c3.19-15.67,3.41-29.25,2-36.32A73.86,73.86,0,0,0,275.81,140a92.15,92.15,0,0,0-18.05-25.53c-7.35-7.54-15.5-14.23-23.59-20.94C230,90.06,225.86,86.61,221.82,83a57,57,0,0,1-10.9-12c-9.8-15.46-9-34.33-6.35-52-1.34-.18-1.22-.41-2.75-.59-2.63,15.25-7,40.58,8.74,60.59,10,12.71,33.28,31,41.26,40.81C259.53,129.24,275.73,148.38,276.5,193.77Z"/><path class="cls-10" d="M180.17,16.19c-1.48-.18-2.9-.36-4.21-.54a223.8,223.8,0,0,1-3.4,43.75,62.75,62.75,0,0,1-6.65,19.29,123.07,123.07,0,0,1-11.12,16.43c-4,5.09-8.38,9.95-12.86,14.66-4.34,4.56-8.89,8.92-13.22,13.5-7.23,7.67-13.68,16.16-17.26,26.17a71.42,71.42,0,0,0-3.38,33.75c1.41,9.72,7.68,24.54,23.58,37.16a28.41,28.41,0,0,0,3.84-.32c-16.9-19-20.28-52.19-4.11-80.4,5.15-9,31.93-44.75,37.72-54.36C182.31,63.33,179.77,35,180.17,16.19Z"/><path class="cls-8" d="M103.44,197.65a62.44,62.44,0,0,1-5.87-49,71.35,71.35,0,0,1,11-22.24,80.87,80.87,0,0,1,15.69-15.67c11.46-9,24.46-16.41,34.17-27.45,8.13-9.25,12.94-20.93,15.4-32.88a109.29,109.29,0,0,0,2.07-18.56,108.79,108.79,0,0,0-.42-16.24l-1-.14c0,3.08.12,6.14.1,9.22q-.06,5.94-.61,11.86a100.32,100.32,0,0,1-4.72,23.2A62.8,62.8,0,0,1,158.16,79.9a94.12,94.12,0,0,1-16,14.41c-11.69,8.72-24.55,16.34-33.81,27.85-10.52,13.07-16.73,29.7-16.2,46.57A65.61,65.61,0,0,0,106,206.83a62.74,62.74,0,0,0,8.87,9.2A40.21,40.21,0,0,0,126.05,220a68.41,68.41,0,0,1-7.52-5.09A61.09,61.09,0,0,1,103.44,197.65Z"/><path class="cls-8" d="M264.07,161.32c-8.61-25.68-27.27-46.67-45.22-66.36-3.09-3.38-6.21-6.75-9.13-10.29a51.4,51.4,0,0,1-8.54-15c-4.92-13.31-5.51-28.15-4.11-42.14q.48-4.68,1.29-9.32l-.84-.1A116.64,116.64,0,0,0,195.3,47C195.92,60,199,73.47,207,84c6,7.88,13.08,14.92,19.56,22.37,9,10.39,17.47,21.3,24.35,33.27,7.27,12.65,12.72,26.18,14.07,40.82a99.53,99.53,0,0,1-.85,25.22,52.68,52.68,0,0,1-3.19,11.5,38.25,38.25,0,0,0,4.57-3.67c.52-1.78.94-3.59,1.29-5.44C269.71,192.77,269.05,176.16,264.07,161.32Z"/><path class="cls-8" d="M171.78,15c1-12,43.43-1.62,41.05,5.7C210.15,28.91,171,24.55,171.78,15Z"/><path class="cls-11" d="M174.45,14.9c1.35-8.64,37.35-.5,35.42,5.43C207.7,27,173.25,22.57,174.45,14.9Z"/><path class="cls-7" d="M178.19,15.42c1.07-6.81,29.47-.39,27.95,4.29C204.43,25,177.24,21.48,178.19,15.42Z"/><path class="cls-8" d="M181.57,15.9c.81-5.17,22.35-.3,21.2,3.24C201.47,23.12,180.86,20.49,181.57,15.9Z"/><path class="cls-6" d="M185.31,16.42c.53-3.35,14.47-.19,13.73,2.1C198.2,21.1,184.85,19.39,185.31,16.42Z"/><path class="cls-5" d="M142,189.36c3.16,11.74,16.1,24.78,28,25.72,25,2,21.22-22.85,18.94-36.35-3.11-18.38-6.75-35.26-5.6-54.08.57-9.39,3-42.15-1.35-42.31-4.07-.15-11.43,26.68-21.53,44.37C149.65,145.59,135.93,167,142,189.36Z"/><path class="cls-8" d="M222.24,200.62c-20.59-8.55-19.44-46-23.38-64.68-2.32-11-3.09-23.53-3.28-34.89-.23-14.24,8.26-6.23,13.6-.93,16.46,16.35,31.09,31.46,38.4,53.69C254,173.33,253.16,213.46,222.24,200.62Z"/><path class="cls-12" d="M207.54,110.14c8.78-5,21,17.81,12.81,21.09C210.34,135.26,200.57,114.11,207.54,110.14Z"/><path class="cls-12" d="M222.57,135.33c5.82-1.61,11.89,10.67,4.94,11.67S216.76,136.93,222.57,135.33Z"/><path class="cls-4" d="M429,175.09c.07-.83.16-1.66.21-2.47,0-.21,0-.42,0-.62,0-.57,0-1.13,0-1.68s.06-1.25.06-1.86c0-.31,0-.61,0-.92,0-.57,0-1.13,0-1.69s0-1,0-1.44-.06-.8-.08-1.2c0-.55-.07-1.1-.12-1.64,0-.36,0-.73-.08-1.08-.05-.52-.12-1-.18-1.52l-.18-1.53c0-.25-.07-.52-.1-.77-.08-.53-.18-1-.27-1.58l-.06-.34c-.08-.43-.14-.86-.22-1.29l-.09-.49c-.11-.52-.23-1-.34-1.53s-.2-.92-.31-1.36c0-.15-.06-.31-.1-.45l-.06-.24c-.12-.5-.27-1-.4-1.49-.18-.66-.35-1.32-.55-2,0-.06,0-.11,0-.17h0c-.13-.42-.28-.84-.41-1.26-.21-.64-.41-1.28-.63-1.91-.16-.46-.34-.91-.51-1.37-.23-.62-.46-1.24-.7-1.85-.18-.45-.38-.88-.56-1.32-.25-.6-.5-1.19-.76-1.77s-.41-.86-.61-1.28c-.27-.57-.54-1.14-.82-1.69s-.43-.82-.65-1.23-.57-1.09-.86-1.62-.46-.79-.68-1.18-.6-1-.9-1.54-.49-.76-.73-1.15-.61-1-.92-1.44l-.75-1.09c-.32-.46-.63-.92-.95-1.37s-.51-.7-.77-1.05-.64-.86-1-1.27-.53-.68-.8-1l-.95-1.18-.82-1-.95-1.09-.84-.93c-.31-.33-.61-.67-.92-1l-.86-.89-.89-.9-.86-.84-.87-.82-.86-.78c-.27-.25-.55-.5-.82-.73l-.87-.74-.76-.63-.87-.69-.7-.55-.86-.63-.63-.46-.84-.56-.57-.38-.8-.5-.51-.31-.75-.42c-.15-.08-.3-.17-.45-.24l-.68-.33-.39-.18-.25-.11-.8-.47.15.22-.21-.08c-.13.18-.26.33-.39.49-3.23-7.48-8.87-14.11-16.68-17.33a42.76,42.76,0,0,1,2.19,4.22c.08.17.15.33.22.5l.42,1,.25.6c.12.29.24.59.35.88.05.14.11.27.16.41a21.24,21.24,0,0,0-3.55-1.43A26.83,26.83,0,0,1,380,106.65l-.91-.18a19.78,19.78,0,0,1-.4,3.79c-.11.63-.24,1.32-.4,2.06l0,.15c-.16.73-.34,1.51-.54,2.33,0,.12-.05.24-.08.36-.2.82-.42,1.68-.66,2.57l-.11.41q-.37,1.39-.81,2.91s0,.09,0,.14c-.29,1-.61,2.06-.94,3.14,0,.11-.06.22-.1.33-.33,1.07-.67,2.18-1,3.31-.06.19-.12.38-.19.58-.36,1.12-.75,2.28-1.15,3.46l-.18.55q-.63,1.84-1.32,3.78l0,.13c-.45,1.27-.93,2.56-1.41,3.87-.06.18-.13.35-.19.53-.48,1.29-1,2.6-1.49,3.92-.09.25-.19.49-.28.74-.51,1.32-1,2.66-1.58,4l-.27.65q-.85,2.13-1.75,4.29a.54.54,0,0,0-.05.11q-.9,2.13-1.83,4.29l-.28.64q-.92,2.1-1.88,4.22l-.36.8q-1,2.11-2,4.25c-.1.22-.21.45-.32.67q-1,2.23-2.16,4.47c-.75,1.53-1.51,3-2.26,4.41l-.39.72q-1.08,2-2.18,3.9l-.42.72c-.74,1.27-1.48,2.5-2.22,3.68l-.19.3c-.72,1.14-1.43,2.22-2.15,3.28l-.33.49c-.72,1.06-1.45,2.08-2.17,3.07l-.43.59c-.72,1-1.44,1.92-2.15,2.82l-.31.38c-.69.87-1.38,1.71-2.06,2.51l-.22.27c-.72.83-1.42,1.62-2.12,2.38l-.4.45c-.69.73-1.37,1.45-2,2.13l-.36.35c-.68.69-1.35,1.35-2,2l0,0q-1,1-2,1.83l-.34.31c-.63.56-1.25,1.09-1.85,1.59l-.35.29c-.62.51-1.23,1-1.82,1.47l-.1.08-1.74,1.33-.22.17-1.65,1.2-.27.2-1.56,1.1c-1.6,1.11-3,2.07-4.25,2.94-1.59,3.1-1.14,7.58.62,11.52h0l0,.06c.14.31.3.6.45.9s.19.39.29.57.26.43.39.65h0c.08.15.18.28.28.43l.2.31a1.43,1.43,0,0,0,.14.2c.19.28.39.54.6.81.08.09.14.19.22.29l.07.08c.3.36.61.7.94,1l.06.06.27.25c.24.22.49.44.74.64.05,0,.09.09.15.13l.27.19.28.21h0l0,0c.14.09.28.18.43.26a2.07,2.07,0,0,0,.24.17l.2.1.6.31.28.13.23.11.11,0a8.44,8.44,0,0,0,1.27.39l.42.13.13,0a126.08,126.08,0,0,0,25.36,5.69h0l.69.07,1.4.14.82.06,1.47.11.38,0c1,.06,2.07.11,3.12.13l1.1,0h2.41l1.18,0,1.25,0,1.17-.07,1.27-.09,1.16-.11,1.3-.14,1.15-.15,1.31-.19,1.14-.19,1.33-.25,1.11-.24c.45-.09.9-.2,1.34-.31l1.09-.27,1.37-.39,1-.31,1.42-.49,1-.33c.53-.2,1.05-.41,1.57-.63l.78-.31c.78-.34,1.56-.7,2.32-1.08,1.26-.63,2.6-1.31,4-2.08a73,73,0,0,0,13.42-9.35l1.53-1.41c1-1,2-2,3-3.08a69.19,69.19,0,0,0,11.17-16.39q1.24-2.51,2.37-5.26a102.88,102.88,0,0,0,6.21-22.72q.36-2.22.6-4.38c0-.1,0-.21,0-.31C428.92,176.07,429,175.58,429,175.09Z"/><path class="cls-13" d="M380.46,102.41c.85-4.33-1-11.79-5.17-17.27,6.95,2,12.06,7.3,15.4,13.44C391,105.05,381.62,102.64,380.46,102.41Z"/><path class="cls-14" d="M382.38,101.53C382.48,97,379.47,86,375.26,79c8,3.29,13.73,10.15,16.92,17.86C391.75,104.59,383.72,101.94,382.38,101.53Z"/><path class="cls-15" d="M383.23,92.9a40.11,40.11,0,0,0-5.36-9.67c-.35-.48-.71-.94-1.08-1.4,3.39,6.86,5.67,15.71,5.59,19.7.31.09,1,.31,1.84.49C385.17,99.09,384.3,95.71,383.23,92.9Z"/><path class="cls-5" d="M315.27,214.58c8.09-5.73,25-15.34,40.62-47,14.77-29.91,24-60.74,23.85-67.46,4.69,1,8.69,1.18,12.58-4.31,9,2.84,44.28,31.62,36.59,79.1-6.5,40.14-28.27,53.59-41.73,60.29-25.36,12.63-58.91.27-62.55-.78C317.17,232.78,312.06,220.87,315.27,214.58Z"/><path class="cls-8" d="M320.29,214.79a5.45,5.45,0,0,0,4.12,1.61c4.54.19,9.2-1.44,13.38-3a93.58,93.58,0,0,0,11.95-5.4c2.1-1.14,4.07-2.52,6.09-3.81,3.47-2.22,6.95-4.42,10.31-6.79,6.73-4.76,13.09-10.32,17.24-17.55,2.58-4.49,6.58-15.07,6.87-20.23.71-13-.11-33.63-3.92-43.85-1.68-4.49-2.86-9.41-7-11.88-1.9,10.89-10.58,37.65-23.46,63.73-13.27,26.85-27.46,37.84-36.39,44A4.37,4.37,0,0,0,320.29,214.79Z"/><path class="cls-8" d="M394.39,105.78c6,32.1,9.58,54.61-1.6,81.25-6.73,16-14.6,20.32-31.91,26.69-14.39,5.3-31.07,5.92-45,12.39,1.8,4,5,7.49,8.74,8.34,3.64,1.05,37.19,13.41,62.55.78,13.46-6.7,35.23-20.15,41.73-60.29,7.62-47-26.93-75.71-36.32-79C393.34,99.17,393.77,102.48,394.39,105.78Z"/><path class="cls-9" d="M390.13,98.35c1.51,3.12,2.95,6.27,4.27,9.48a110.63,110.63,0,0,1,7.42,27,120.3,120.3,0,0,1,.68,27.15c-.83,9.07-2.74,18.23-6.65,26.5A47.66,47.66,0,0,1,389,199.21a52.84,52.84,0,0,1-9.26,8.35,75.83,75.83,0,0,1-21.53,10.33c-13.52,4.26-27.7,6.11-41.2,10.4,1.86,3.05,4.53,5.47,7.6,6.16,3.64,1.05,37.19,13.41,62.55.78,13.46-6.7,35.23-20.15,41.73-60.29,7.69-47.48-27.58-76.26-36.59-79.1A14.32,14.32,0,0,1,390.13,98.35Z"/><path class="cls-10" d="M427.48,144.76a94.14,94.14,0,0,1-8.74,51.86,87.53,87.53,0,0,1-16.38,23.15A63.55,63.55,0,0,1,381.2,234.3c-9.77,3.93-20.18,5.46-30.67,6,11.46,1.25,24.92.76,36.65-5.08,13.46-6.7,35.23-20.15,41.73-60.29a78.14,78.14,0,0,0-2.18-35.51Q427.17,142.08,427.48,144.76Z"/><path class="cls-10" d="M327.29,235.29a150.62,150.62,0,0,0,28.56-5.08c10.12-2.66,20.28-6.18,29.3-11.7,9.59-5.86,17.24-15.69,22.66-25.57,5.18-9.43,7.67-20,8.25-30.73.62-11.47-.82-21.29-3.94-32.31-4.33-15.32-13-27.58-15.95-31.9-1.32-.9-2.69-1.66-3.78-2.3,8.81,12.81,17,30.15,20.16,48.31,1.68,9.79.64,20-1.6,29.69-2.18,9.44-5.48,19-11.39,26.72-6.16,8.05-14.55,15.33-27.18,21.05-16.81,7.6-33.93,10.26-38.8,11.2-3.55.68-8.45,1.22-12.33.25a9.71,9.71,0,0,0,3.38,1.53C325.09,234.58,326,234.88,327.29,235.29Z"/><path class="cls-4" d="M336.26,320.64a48.53,48.53,0,0,1-4.55,2.87l-.56.3-1,.56-.66.34-1,.48-.44.21a24.86,24.86,0,0,0,1.28-4.14c-5,4.43-11.7,7.12-16.65,7.47,0-.34.07-.69.12-1a26.68,26.68,0,0,1-5.26-.19l-.73-.08-.9-.11-.69-.1-.87-.12-.77-.11-.9-.14-.82-.14-1-.16-.85-.15-1.06-.2-.87-.16-1.25-.24-.77-.15-2.07-.42-.68-.15-1.53-.33-.94-.21-1.36-.3-1-.24-1.38-.32-1.05-.25-1.46-.35-1-.25-1.59-.4-1-.25-2-.51-.65-.17-2.67-.72-.83-.22L273,320l-1.06-.29-1.76-.5-1.14-.34-1.74-.5-1.15-.35-1.81-.54-1.13-.35-1.92-.59-1.05-.33-2.54-.81-.44-.14-3-1-.92-.31-2.11-.71-1.18-.41-1.91-.66-1.22-.43-1.89-.67-1.23-.45-1.93-.71-1.19-.44-2.07-.78-1.05-.4-3.1-1.2c-1.78-.71-3.5-1.42-5.18-2.14l-.85-.37q-2.38-1-4.6-2.09l-.87-.41c-1.49-.72-2.95-1.44-4.35-2.16l-.37-.19c-1.34-.71-2.64-1.41-3.9-2.12l-.58-.32c-1.27-.72-2.49-1.44-3.67-2.16l-.71-.44q-1.76-1.08-3.39-2.16l-.45-.31c-1.05-.7-2.06-1.4-3-2.09l-.32-.23c-1-.72-2-1.44-2.89-2.16l-.54-.42c-.9-.7-1.77-1.4-2.6-2.09l-.43-.36c-.84-.71-1.65-1.41-2.42-2.1l-.06,0c-.78-.71-1.53-1.41-2.25-2.09l-.38-.36c-.69-.66-1.34-1.31-2-1.95l-.34-.36c-.64-.65-1.25-1.29-1.84-1.91l-.11-.12c-.57-.62-1.12-1.23-1.64-1.82l-.23-.25-1.51-1.74-.25-.3c-.48-.56-.94-1.11-1.38-1.64-1.4-1.7-2.62-3.23-3.72-4.53-3.66-1.5-8.67-.57-12.95,1.79h0l-.06,0c-.34.18-.66.39-1,.59l-.6.38c-.24.16-.47.33-.7.5v0l-.46.36-.34.26-.21.18c-.29.24-.57.49-.85.75l-.31.28-.08.08c-.38.38-.74.76-1.08,1.16l-.06.07c-.09.11-.16.23-.25.34-.23.29-.45.58-.66.88,0,.07-.09.12-.13.19s-.12.22-.19.32-.15.23-.21.34h0l0,.05-.21.41a.61.61,0,0,0-.07.14L157,275a.59.59,0,0,0,0,.08c0,.09-.07.18-.11.26s-.13.3-.19.45l-.21.58a1.15,1.15,0,0,0-.06.17.61.61,0,0,0,0,.13l-.09.28a9.64,9.64,0,0,0-.24,1.19c-.08.38-.24,1.06-.46,2v.05c-.06.26-.13.56-.19.86a1,1,0,0,0,0,.18h0a138.37,138.37,0,0,0-3.48,26.72v0c0,.27,0,.55,0,.83,0,.51,0,1,0,1.53,0,.34,0,.68,0,1,0,.53,0,1.05,0,1.59,0,.25,0,.5,0,.75,0,1,.08,2.09.14,3.15,0,.44,0,.87.07,1.32l.12,1.33c0,.46.07.92.12,1.38s.1.88.15,1.32.11.95.17,1.42.12.86.19,1.29.14,1,.22,1.46.15.85.23,1.28.19,1,.29,1.47.17.85.27,1.27.22,1,.34,1.47.21.84.32,1.26.27,1,.41,1.49l.36,1.22c.16.5.32,1,.49,1.5s.27.79.41,1.19.37,1,.57,1.52.29.76.44,1.13c.22.53.45,1.05.69,1.57.15.35.3.7.46,1,.27.57.56,1.13.85,1.7l.44.87c.45.84.93,1.68,1.43,2.51.82,1.36,1.73,2.81,2.72,4.3a89.32,89.32,0,0,0,5.79,7.82c.9,1.07,1.84,2.15,2.85,3.22A75.29,75.29,0,0,0,197.74,382q1.41.61,2.88,1.2,2.94,1.15,6.16,2.18A101.73,101.73,0,0,0,217.09,388c2.45.5,5,.94,7.64,1.31s5.41.67,8.28.9c1.69.13,3.36.21,5,.26h2c.94,0,1.89,0,2.81,0l.7,0c.64,0,1.27-.06,1.9-.09s1.42-.06,2.1-.11l1-.11c.65-.05,1.28-.12,1.92-.19s1.08-.1,1.61-.17.9-.14,1.36-.21l1.84-.28,1.21-.19,1.68-.35c.58-.12,1.16-.23,1.72-.36l.87-.18c.59-.14,1.16-.3,1.74-.45l.39-.1,1.43-.37.55-.15c.58-.17,1.13-.35,1.7-.53l1.49-.46.52-.16.26-.09c.56-.19,1.1-.4,1.65-.6.72-.27,1.45-.52,2.16-.8l.19-.07h0c.48-.19.94-.4,1.4-.6.7-.29,1.4-.57,2.08-.87l1.53-.72c.67-.32,1.34-.63,2-1,.49-.24,1-.5,1.44-.76.65-.34,1.3-.67,1.93-1,.47-.26.92-.53,1.38-.8.62-.36,1.24-.71,1.84-1.08l1.34-.86c.58-.37,1.16-.73,1.73-1.11l1.28-.9c.55-.38,1.1-.76,1.64-1.15s.81-.61,1.21-.92,1.05-.78,1.56-1.18l1.17-.95c.48-.4,1-.79,1.44-1.19l1.13-1,1.34-1.19,1.06-1,1.25-1.19,1-1c.38-.39.77-.77,1.14-1.16l1-1.05,1-1.12.92-1.06.93-1.09c.3-.35.58-.7.86-1.05s.58-.7.85-1.05l.81-1.06c.24-.33.5-.66.73-1s.51-.71.76-1.07l.64-.9.7-1.05c.18-.29.37-.57.55-.84s.42-.69.62-1l.47-.76c.2-.34.38-.67.56-1s.26-.46.37-.68.33-.64.49-.95l.3-.6c.15-.31.28-.6.4-.89s.16-.35.23-.52.22-.55.32-.81l.16-.45c0-.1.07-.2.1-.29l.45-.95c-.07.06-.16.12-.23.19l.07-.25c-.22-.13-.39-.26-.6-.39C326.41,336.75,333.36,329.76,336.26,320.64Z"/><path class="cls-13" d="M311.66,319.4c5,.55,13.2-2.28,19-7.46-1.64,8-7.12,14.3-13.73,18.64C309.66,331.57,311.51,320.73,311.66,319.4Z"/><path class="cls-14" d="M312.83,321.48c5.16-.32,17.21-4.74,24.76-10.16-3,9.34-10.17,16.47-18.57,20.79C310.25,332.35,312.49,323,312.83,321.48Z"/><path class="cls-15" d="M322.65,321.63a45.87,45.87,0,0,0,10.42-6.95l1.48-1.36c-7.44,4.47-17.21,7.88-21.72,8.16a21.08,21.08,0,0,0-.38,2.12C315.84,324.4,319.58,323.1,322.65,321.63Z"/><path class="cls-5" d="M178.9,256.36c7.23,8.59,19.67,26.77,56.85,41.43,35.15,13.87,70.82,21.42,78.39,20.58-.68,5.39-.51,9.93,6.05,13.8-2.37,10.43-31.53,52.95-85.85,48.74-45.93-3.57-63.15-26.87-72-41.44-16.64-27.44-5.85-66.47-5-70.67C158.54,260.22,171.5,253.33,178.9,256.36Z"/><path class="cls-8" d="M179.14,262.05a6.18,6.18,0,0,0-1.43,4.8c.21,5.14,2.49,10.25,4.66,14.82a106.69,106.69,0,0,0,7.21,13c1.5,2.27,3.24,4.36,4.88,6.52,2.83,3.7,5.64,7.42,8.64,11,6,7.16,12.87,13.81,21.42,17.82,5.32,2.49,17.63,6,23.48,5.85,14.73-.41,38-3.28,49.14-8.55,4.91-2.32,10.35-4.12,12.76-9-12.47-1.11-43.51-8.4-74.15-20.49-31.57-12.45-45.3-27.43-53.15-36.93A5,5,0,0,0,179.14,262.05Z"/><path class="cls-8" d="M309.17,335.43c-35.68,9.75-60.76,16-91.88,5.84-18.72-6.08-24.3-14.57-33.12-33.5-7.34-15.75-9.61-34.53-18.22-49.63-4.38,2.41-8,6.32-8.59,10.66-.85,4.2-11.64,43.23,5,70.67,8.83,14.57,26,37.87,72,41.44,53.81,4.18,82.93-37.51,85.77-48.43C316.53,333.64,312.83,334.43,309.17,335.43Z"/><path class="cls-9" d="M317.14,329.93c-3.37,2-6.8,3.92-10.29,5.71a124.76,124.76,0,0,1-29.74,10.91,135.61,135.61,0,0,1-30.58,3.33c-10.32-.09-20.83-1.38-30.54-5a54.09,54.09,0,0,1-12.8-6.71,60.09,60.09,0,0,1-10.3-9.67,85.87,85.87,0,0,1-13.68-23.33c-6.08-14.86-9.51-30.69-15.61-45.52-3.27,2.38-5.75,5.63-6.24,9.16-.85,4.2-11.64,43.23,5,70.67,8.83,14.57,26,37.87,72,41.44,54.32,4.21,83.48-38.31,85.85-48.74A16.86,16.86,0,0,1,317.14,329.93Z"/><path class="cls-10" d="M268.27,376.45a106.51,106.51,0,0,1-59.36-5,98.72,98.72,0,0,1-27.67-16.3,72,72,0,0,1-18.39-22.52c-5.36-10.66-8.06-22.27-9.67-34.06-.34,13.05,1.49,28.21,9.18,40.89,8.83,14.57,26,37.87,72,41.44a88.58,88.58,0,0,0,39.88-5.8Q271.27,375.86,268.27,376.45Z"/><path class="cls-10" d="M156.66,271.88a171,171,0,0,0,8.41,31.75c4,11.18,8.9,22.32,16,32,7.52,10.28,19.33,18,31,23.18,11.14,5,23.34,6.76,35.47,6.41,13-.37,23.95-2.93,36.1-7.48,16.89-6.32,29.91-17.31,34.51-21,.9-1.57,1.63-3.19,2.25-4.48-13.64,11.15-32.44,22.07-52.64,27.31-10.9,2.82-22.5,2.6-33.67,1-10.86-1.58-22-4.4-31.23-10.34-9.67-6.2-18.68-15-26.32-28.7-10.16-18.27-14.77-37.34-16.29-42.75-1.1-3.94-2.18-9.43-1.44-13.89a10.77,10.77,0,0,0-1.41,4C157.25,269.32,157,270.38,156.66,271.88Z"/></svg>