<?xml version="1.0" encoding="utf-8"?>
<!-- Generator: Adobe Illustrator 25.2.0, SVG Export Plug-In . SVG Version: 6.00 Build 0)  -->
<svg version="1.1" id="Layer_1" xmlns="http://www.w3.org/2000/svg" xmlns:xlink="http://www.w3.org/1999/xlink" x="0px" y="0px"
	 viewBox="0 0 512 400" style="enable-background:new 0 0 512 400;" xml:space="preserve">
<style type="text/css">
	.st0{opacity:0.3;enable-background:new    ;}
	.st1{fill:#F8CA23;}
	.st2{fill:#F8D123;}
	.st3{fill:#F8BF23;}
	.st4{fill:#F8A305;}
	.st5{fill:#F8911B;}
	.st6{fill:#F8DB57;}
	.st7{opacity:0.7;fill:#F8B123;enable-background:new    ;}
	.st8{fill:#3E8208;}
	.st9{fill:#65A825;}
	.st10{opacity:0.45;}
	.st11{fill:#41870C;}
	.st12{opacity:0.15;}
	.st13{fill:#73BF2A;}
	.st14{fill:#75C42C;}
	.st15{fill:#635E00;}
	.st16{fill:#F8B123;}
	.st17{fill:#8B490D;}
	.st18{fill:#B56926;}
	.st19{fill:#7D420C;}
	.st20{fill:#F8A01B;}
	.st21{opacity:0.25;fill:#F88939;enable-background:new    ;}
	.st22{fill:#F8AB1B;}
	.st23{fill:#FEC714;}
	.st24{fill:#FECD2E;}
	.st25{fill:#FECA24;}
</style>
<g>
	<path class="st0" d="M428,122.8c-0.4-0.3-0.8-0.7-1.2-1s-0.8-0.8-1.2-1.2l0,0c-3.7-4-7.2-8.2-10.5-12.6l0,0c1-1.1,2-2.2,3.2-3.1
		c0.2-0.1,0.4-0.3,0.6-0.5l0.1-0.2c0-0.1,0.1-0.2,0.1-0.2c0,0,0-0.1,0-0.1c0,0,0,0,0-0.1c0,0,0-0.1,0-0.2s0-0.1,0-0.2
		c0-0.1,0-0.1,0-0.2c0,0,0,0,0-0.1V103c0-0.1,0-0.2,0-0.3c0-0.1,0-0.2,0-0.2c0-0.1,0-0.2,0-0.2l-0.1-0.2l0,0c0,0,0-0.2-0.1-0.2
		l-0.1-0.3c-0.1-0.3-0.2-0.5-0.4-0.8c-1.1-2.1-2.7-3.9-4.7-5.3c-0.9-0.7-1.8-0.2-2.6-0.7c-1.4-1-3.2-0.6-3.2,1.6c0,0.3,0,0.7,0,1.1
		c-1-2.7-1.9-4.7-1.9-4.7l0,0c0-0.1-0.1-0.2-0.1-0.2l-0.1-0.2c-0.2-0.5-0.5-1-0.8-1.6l0,0l-0.2-0.5l-0.3-0.7c0-0.1-0.1-0.2-0.1-0.2
		l0-0.1l-0.3-0.5l-0.3-0.5l-0.2-0.4l-0.5-0.9l-0.3-0.5c-0.3-0.5-0.6-0.9-0.9-1.4l-0.1-0.1l-0.7-1.2l-0.3-0.4l0,0
		c-0.1-0.1-0.1-0.2-0.2-0.3c-0.2-0.3-0.4-0.6-0.6-0.9l-0.4-0.6c-0.4-0.6-0.8-1.2-1.3-1.8l-0.2-0.3l-0.4-0.5
		c-0.3-0.4-0.6-0.8-0.9-1.2l-0.1-0.2l-0.2-0.2c-0.5-0.7-1-1.4-1.6-2.1c-0.2-0.3-0.5-0.7-0.8-1l-0.1-0.1c-0.3-0.4-0.6-0.7-1-1.1
		l-0.1-0.1c-1.1-1.2-2.4-2.7-4-4.2l-0.1-0.1c-0.5-0.5-1-1-1.6-1.5l-0.1-0.1c-1.1-1.1-2.3-2.2-3.6-3.3l-0.1-0.1
		c-0.6-0.5-1.3-1.1-2-1.7l-0.2-0.2c-0.7-0.6-1.4-1.2-2.1-1.7l-0.1-0.1c-0.7-0.6-1.5-1.2-2.2-1.8l-0.1-0.1c-0.8-0.6-1.5-1.2-2.3-1.8
		l-0.4-0.3c-0.8-0.6-1.6-1.1-2.4-1.7l-0.4-0.2c-0.8-0.6-1.7-1.2-2.6-1.8h0l-2.6-1.7l-0.4-0.3c-0.9-0.5-1.8-1.1-2.6-1.7l-0.6-0.3
		c-0.9-0.5-1.8-1.1-2.7-1.6l-0.5-0.3c-0.9-0.5-1.8-1-2.7-1.5l-0.4-0.2c-0.7-0.4-1.4-0.8-2.1-1.1l0,0l-0.6-0.3l-1.4-0.7l-1.9-0.9
		l-1.4-0.7c-0.7-0.3-1.4-0.7-2.1-1l-1.1-0.7c-1.1-0.5-2.3-1-3.4-1.5l-0.4-0.2c-1-0.4-2.1-0.8-3.1-1.2l-1.2-0.5l-2.4-0.9l-1.4-0.5
		l-2.4-0.8l-1.4-0.5l-2.6-0.8l-1.2-0.3c-1.3-0.4-2.6-0.7-3.9-1h-0.1c-1.3-0.3-2.6-0.6-3.9-0.8l-1.3-0.2l-2.8-0.5l-1.5-0.2
		c-0.9-0.1-1.8-0.3-2.7-0.4l-1.6-0.2c-1-0.1-1.9-0.2-2.9-0.3l-1.4-0.1c-1.4-0.1-2.8-0.2-4.2-0.3h-0.1c-5.6-0.2-11.2,0-16.8,0.6
		c-4.5,0.5-8.9,1.2-13.3,2.2l0,0c-18.6,4-36.1,11.9-48.2,20.8l0,0c-0.4,0.3-0.8,0.6-1.2,0.9l-0.1,0.1l-1.1,0.8l-0.1,0.1l-1.1,0.9
		l-0.5,0.5l-0.6,0.5l-0.6,0.6l-0.4,0.4c-0.3,0.3-0.7,0.6-1,0.9l-0.1,0.1c-5.1,4.9-8.5,10-9.3,14.8l0,0l0,0V72
		c0.1-0.2,0.2-0.4,0.3-0.5c1.3-2,7.1-9.1,24.2-9.7c12.3-0.5,36.3,7.1,59.5,13.6l-0.3,0.1l-0.2,0.1l-1.4,0.6H287h-0.1l-0.6,0.3
		L285,77c-0.5,0.2-0.9,0.4-1.4,0.7l-0.1,0.1l-0.2,0.1l-0.2,0.1l-0.9,0.4l-0.2,0.1l-1.1,0.5c-0.3,0.1-0.5,0.2-0.8,0.4l-1.4,0.8
		l-0.9,0.5l-0.9,0.5l-0.3,0.2l-1,0.6l-0.3,0.2l-0.3,0.2h0h-0.1c-0.4,0.2-0.7,0.4-1.1,0.6l-0.1,0.1c-0.5,0.3-0.9,0.6-1.4,0.8
		l-0.4,0.2c-0.2,0.2-0.5,0.3-0.8,0.5l-0.3,0.2l-0.1,0.1l-0.4,0.3l-0.1,0.1l-0.6,0.4l-0.1,0.1l0,0l-0.5,0.3l-0.8,0.6l-0.1,0.1
		l-0.6,0.4l0,0l-0.1,0.1l-0.7,0.5l-0.7,0.5l-0.2,0.2l0,0l-1,0.8c-0.5,0.4-1,0.7-1.5,1.1s-1,0.7-1.4,1.1c-0.3,0.2-0.6,0.4-0.9,0.7
		c-32.9,28.5-43.4,48.2-51.9,67.7c-1.5,3.6-2.8,7.3-3.9,11c-7.3,23-8.6,43.2-8,61.8c0.4,12.7,1.6,24.6,2.3,36.1
		c0.2,3.3,0.4,6.4,0.7,9.5c0.2,2.5,0.4,5,0.6,7.4c0.1,1.5,0.3,2.9,0.5,4.3c-0.2-0.2-0.5-0.5-0.8-0.8c-1.7-1.9-6.6,0.5-6.9-1
		c-0.4-2.2-1.8,0.2-11.2-3.9c-1.9-0.8-8.5-0.2-10-0.6l-0.8-0.2c-0.2-1-0.4-0.8-0.7-0.1c-6.2-1.3-8.4-0.6-10.8-3.1
		c-1.3-1.4-3,0.2-4.5-1.1c-3.1-2.9-4-1.9-4.9-2.3c-1.8-0.9-4.6,1.3-7.2-2.2c-1.6-2.1-2.8-0.8-4.5-2.5c-4.5-4.6-2.7-6.1-8.2-5.7
		c-0.1-0.5-0.3-0.9-0.5-1.3c-0.2-0.4-0.9-0.2-1.7,0.3c-1.9-1.5-4.1-3.9-5.2-2.9c-0.6,0.6-1.4,0.8-2.2,0.6c-0.3-0.9-0.6-1.8-1-2.7
		c-0.3-0.8-0.8-1.6-1.4-2.3c-0.9-0.8-2.2-1.1-3.4-0.8c-0.5,0.1-1,0.2-1.4,0.3l0,0c-0.6-0.4-1.3-0.8-2-0.9c0-1.5-0.7-3-0.8-1.2
		c0,0.3-0.1,0.6-0.3,0.9c-0.9-0.2-1.8-0.6-2.6-1c0.1-1.3,0.4-3.3-1-1.3c-0.1,0.1-0.2,0.2-0.3,0.3c-0.7-0.8-1.2-1.9-1.4-3
		c-0.1-0.6-1.9-1.3-4.1-2.1c-0.2-0.3-0.4-0.5-0.6-0.8c-0.7-0.6-1.6-1.1-2.5-1.4h-0.1l-2.3-0.4c-3.9-0.4-6.8-2.6-9.7-4.6l-1.2-0.8
		l0,0l0,0l-1.6-0.6c0,0-3.2,20.9-4,31.7c-0.1,1.6-0.3,3.2-0.3,4.9c-0.2,11,0.8,52,22.1,78.2l0,0l0,0c1.2,1.5,2.5,2.9,3.8,4.2
		c7.5,8.3,16.2,15.7,38.3,19.8c12.4,2.2,25,3.2,37.6,3.2c17.9,0,34.1-1.9,43.2-4.3c13.5-3.7,21.9-10.7,27.2-18.4
		c21.7,7.8,45.8,2.2,68.9-9.5l0,0c44.2-22.3,84.4-66.6,94.9-80.9c5.7-8.1,10.4-16.8,14-26c0.4-1,0.8-2,1.2-3l0,0
		C446,199.1,448.8,143.1,428,122.8z M401.9,91.5l-0.2-0.2c-0.9-0.9-1.7-1.8-2.6-2.6c2.3,0.7,4.3,2.1,5.8,4c0.7,1.5,1.3,2.9,1.9,4.5
		C405.2,95.2,403.5,93.2,401.9,91.5L401.9,91.5z"/>
	<path class="st1" d="M420.3,230.2L420.3,230.2c-4.2,11.1-9.3,21.1-15.2,29c-10.5,14.3-50.6,58.6-94.9,80.9l0,0
		c-27.6,13.9-56.8,19.2-81.4,3.3l-0.9-0.6c-0.8-0.5-1.5-1-2.2-1.5l-1.1-0.8l-1.1-0.8l-0.6-0.5c-0.3-0.2-0.5-0.4-0.8-0.6
		c-1.7-1.3-3.4-2.6-5-4l-0.8-0.7c-0.5-0.4-1-0.9-1.5-1.3l-0.9-0.8l-0.9-0.8l-1.6-1.5v-0.1c-9.3-9.6-14.4-20.2-17.4-32.3l0,0
		c-1.7-7.2-2.9-14.4-3.5-21.8c-0.5-5.3-0.9-11-1.3-16.9c-0.8-11.5-2-23.4-2.3-36.1c-0.5-18.6,0.8-38.8,8-61.8
		c1.1-3.7,2.4-7.4,3.9-11c8.5-19.6,19-39.3,51.9-67.7c0.3-0.2,0.6-0.4,0.9-0.7c0.5-0.4,1-0.8,1.4-1.1s1-0.7,1.5-1.1
		c0.9-0.7,1.8-1.3,2.8-2l0.6-0.4c0.5-0.3,1-0.7,1.6-1l0.6-0.4l0.1-0.1l0.4-0.3c1.4-0.9,2.8-1.8,4.3-2.6l0.5-0.3
		c0.8-0.5,1.7-1,2.5-1.4l0.8-0.4c0.7-0.4,1.4-0.8,2.2-1.1l1.1-0.5l0.1-0.1l1-0.5l2-0.9l1.3-0.6l0.8-0.3l1.4-0.6l0.2-0.1l1.3-0.5
		c1-0.4,2-0.8,3-1.2l1.3-0.5h0.1c0.4-0.1,0.7-0.3,1.1-0.4l0.6-0.2l0.8-0.3c0.3-0.1,0.7-0.2,1-0.3s0.9-0.3,1.3-0.4l0.5-0.2l1.5-0.4
		l1.6-0.5l0.7-0.2l1.3-0.3l1.3-0.4l0.8-0.2l0.8-0.2l1.6-0.3l0.4-0.1l1-0.2c1.5-0.3,3.1-0.6,4.6-0.8l0.8-0.1c0.9-0.1,1.8-0.3,2.8-0.4
		l0.7-0.1c1.1-0.1,2.3-0.3,3.4-0.4l1.6-0.1c0.8-0.1,1.5-0.1,2.3-0.2l1.4-0.1c1.1,0,2.2-0.1,3.3-0.1h2c0.8,0,1.6,0,2.4,0h1.5
		c0.9,0,1.8,0.1,2.6,0.1h0.6h0.6l0.9,0.1c1.1,0.1,2.3,0.2,3.4,0.3h0.4c0.7,0.1,1.4,0.2,2.1,0.3l1,0.1h0.1l0.8,0.1c1,0.2,2,0.3,3,0.5
		l0.7,0.1c0.8,0.2,1.6,0.3,2.4,0.5l1.2,0.3l0.9,0.2l0.6,0.2l1.7,0.4c0.3,0.1,0.6,0.1,0.9,0.2h0.1l0.7,0.2c0.7,0.2,1.3,0.4,2,0.6
		l1.6,0.5c1.7,0.5,3.4,1.1,5.1,1.7l1.8,0.7c7.7,3.3,15.2,7.2,22.3,11.6h0.1h0.1l0.5,0.3l0.1,0.1c2.2,1.6,4.2,3.5,6.1,5.5l0.2,0.2
		c8,8.6,16.2,21.5,23.7,29c0.8,0.8,1.6,1.6,2.4,2.3C438.8,133.1,436,189.1,420.3,230.2z"/>
	<path class="st2" d="M391.9,81.5c8.6,43.4-23,112.2-83.9,146.8c-59.8,33.9-108.6-2-113-67.6c1.1-3.7,2.4-7.4,3.9-11
		c8.5-19.6,19-39.3,51.9-67.7c0.3-0.2,0.6-0.4,0.9-0.7c0.5-0.4,1-0.8,1.4-1.1s1-0.7,1.5-1.1c0.9-0.7,1.8-1.3,2.8-2l0.6-0.4
		c0.5-0.3,1-0.7,1.6-1l0.6-0.4l0.1-0.1l0.4-0.3c1.4-0.9,2.8-1.8,4.3-2.6l0.5-0.3c0.8-0.5,1.7-1,2.5-1.4l0.8-0.4
		c0.7-0.4,1.4-0.8,2.2-1.1l1.1-0.5l0.1-0.1l1-0.5l2-0.9l1.3-0.6l0.8-0.3l1.4-0.6l0.2-0.1l1.3-0.5c1-0.4,2-0.8,3-1.2l1.3-0.5h0.1
		c0.4-0.1,0.7-0.3,1.1-0.4l0.6-0.2l0.8-0.3c0.3-0.1,0.7-0.2,1-0.3s0.9-0.3,1.3-0.4l0.5-0.2L291,61l1.6-0.5l0.7-0.2l1.3-0.3l1.4-0.4
		l0.8-0.2l0.8-0.2l1.6-0.3l0.4-0.1l1-0.2c1.5-0.3,3.1-0.6,4.6-0.8l0.8-0.1c0.9-0.1,1.8-0.3,2.8-0.4l0.7-0.1c1.1-0.1,2.3-0.3,3.4-0.4
		l1.6-0.1c0.8-0.1,1.5-0.1,2.3-0.2l1.4-0.1c1.1,0,2.2-0.1,3.3-0.1h2c0.8,0,1.6,0,2.4,0h1.5c0.9,0,1.8,0.1,2.6,0.1h0.6h0.6l0.9,0.1
		c1.1,0.1,2.3,0.2,3.4,0.3h0.4c0.7,0.1,1.4,0.2,2.1,0.3l1,0.1h0.1l0.8,0.1c1,0.2,2,0.3,3,0.5l0.7,0.1c0.8,0.2,1.6,0.3,2.4,0.5
		l1.2,0.3l0.9,0.2l0.6,0.2l1.7,0.4c0.3,0.1,0.6,0.1,0.9,0.2h0.1l0.7,0.2c0.7,0.2,1.3,0.4,2,0.6l1.6,0.5c1.7,0.5,3.4,1.1,5.1,1.7
		l1.8,0.7c7.8,3,15.3,6.9,22.3,11.6h0.1h0.1l0.5,0.3l0.1,0.1c2.2,1.6,4.2,3.5,6.1,5.5L391.9,81.5z"/>
	<path class="st3" d="M420.3,230.2L420.3,230.2c-4.2,11.1-9.3,21.1-15.2,29c-10.5,14.3-50.6,58.6-94.9,80.9l0,0
		c-27.6,13.9-56.8,19.2-81.4,3.3c-0.3-0.2-0.6-0.4-0.9-0.6c-0.8-0.5-1.5-1-2.2-1.5c-0.4-0.3-0.7-0.5-1.1-0.8l-1.1-0.8l-0.6-0.5
		c-0.3-0.2-0.5-0.4-0.8-0.6c-1.7-1.3-3.4-2.7-5-4l-0.8-0.7c-0.5-0.4-1-0.9-1.5-1.3l-0.9-0.8l-0.9-0.8l-1.6-1.5l0,0
		c-9.3-9.7-14.4-20.2-17.4-32.4l0,0c-1.7-7.2-2.9-14.4-3.5-21.8c-0.5-5.3-0.9-11-1.3-16.9c-0.8-11.5-2-23.4-2.3-36.1
		c8,23.2,27.8,61.1,71.7,56.9c47.4-4.5,85-39.4,107.5-65.4c20.2-23.5,58.8-83,49.4-103.5c0.8,0.8,1.6,1.6,2.4,2.3
		C438.8,133.1,436,189.1,420.3,230.2z"/>
	<path class="st4" d="M420.3,230.3c-4.2,11.1-9.3,21.1-15.2,29c-10.5,14.3-50.6,58.6-94.9,80.9l0,0c-27.6,13.9-56.8,19.2-81.4,3.3
		c-0.3-0.2-0.6-0.4-0.9-0.6c-0.8-0.5-1.5-1-2.2-1.5c-0.4-0.3-0.7-0.5-1.1-0.8l-1.1-0.8l-0.6-0.5c-0.3-0.2-0.5-0.4-0.8-0.6
		c-1.7-1.3-3.4-2.7-5-4l-0.8-0.7c-0.5-0.4-1-0.9-1.5-1.3l-0.9-0.8l-0.9-0.8l-1.6-1.5l0,0c-9.3-9.7-14.4-20.2-17.4-32.4l0,0
		c-1.7-7.2-2.9-14.4-3.5-21.8c9.1,12.3,23,24.1,45.6,37.2C286.7,341.9,375.6,296.4,420.3,230.3z"/>
	<path class="st5" d="M310.3,340.1c-27.6,13.9-56.8,19.2-81.4,3.3c-0.3-0.2-0.6-0.4-0.9-0.6c-0.8-0.5-1.5-1-2.2-1.5
		c-0.4-0.3-0.7-0.5-1.1-0.8l-1.1-0.8l-0.6-0.5c-0.3-0.2-0.5-0.4-0.8-0.6c-1.7-1.3-3.4-2.7-5-4l-0.8-0.7c-0.5-0.4-1-0.9-1.5-1.3
		l-0.9-0.8l-0.9-0.8l-1.6-1.5l0,0c-9.3-9.7-14.4-20.2-17.4-32.4c7.2,11.2,15.8,21.3,23.9,28.5c31.1,27.4,70.4,20.5,90.3,15
		L310.3,340.1z"/>
	<path class="st6" d="M249.6,134.8c8.7-26,39.7-46.8,16.6-43.4c-30.5,4.5-68.2,49.9-58.5,81.8C210.7,183.3,234.8,179.2,249.6,134.8z
		"/>
	<path class="st7" d="M391.7,81.3c-30,1.5-77.4,2.8-97.4-1.9c-18.6-4.4-31.4-2.9-38.7-1.1l0,0l0.2-0.2l0.7-0.5l0.7-0.5l0.7-0.5
		c0.3-0.2,0.6-0.4,0.9-0.6l0.5-0.3l0.9-0.6c0.3-0.2,0.6-0.4,0.9-0.5s0.5-0.3,0.8-0.5l0.4-0.2c0.5-0.3,0.9-0.6,1.4-0.8l0.1-0.1
		c0.4-0.2,0.7-0.4,1.1-0.6l0.7-0.4l1-0.6l0.3-0.2l0.9-0.5l0.9-0.5l1.4-0.8c0.3-0.1,0.5-0.3,0.8-0.4l1.1-0.5c0.5-0.3,1-0.5,1.5-0.7
		l0.2-0.1l1.4-0.6c0.7-0.3,1.4-0.6,2-0.9c2-0.9,4-1.7,6-2.4l2.8-1l2-0.7c0.4-0.2,0.9-0.3,1.3-0.4l0.5-0.2L291,61l1.6-0.5l1.4-0.4
		l0.5-0.1l1.5-0.4l1.7-0.4l1.6-0.3h0.2l1.3-0.3l0.6-0.1c0.5-0.1,0.9-0.2,1.4-0.3l1.7-0.3l1.6-0.3l0.4-0.1l1.2-0.2l0.5-0.1l1.4-0.2
		l1.6-0.2h0.4l1.4-0.1c1.1-0.1,2.2-0.2,3.3-0.2h0.7c1-0.1,1.9-0.1,2.9-0.1c2.6-0.1,5.1-0.1,7.7,0l1.1,0l1.5,0.1l1.2,0.1l0.9,0.1h0.4
		l1.3,0.1l0.7,0.1l1,0.1c0.3,0,0.6,0.1,0.9,0.1l0.9,0.1l0.7,0.1l1.1,0.2l0.8,0.1l0.8,0.1l1.3,0.2h0.2l1.4,0.2l1.5,0.3l0.9,0.2
		l1.2,0.3h0.1c0.5,0.1,1,0.2,1.5,0.3l0.6,0.2c0.3,0.1,0.6,0.2,1,0.2l1,0.3l1.4,0.4l1.1,0.3c2.3,0.7,4.6,1.4,6.9,2.3l1.8,0.7
		c7.8,3,15.3,6.9,22.3,11.6h0.1h0.1l0.5,0.3l0.1,0.1C387.8,77.4,389.9,79.2,391.7,81.3z"/>
	<path class="st8" d="M398,87.8c-1.2-5-3.5-10.4-12.9-22.8c-8.3-10.9-45.7-45.1-95.7-47.2c-42.3-1.8-91,23.9-94.6,44.2
		c0,0,4.6-9.5,24.5-10.3c19.5-0.7,68.3,18.8,97,21.9c36.4,4,56.6,2.7,65.9,3.8c8.9,1,12.9,3.4,15.2,10.8
		C397.7,88.6,398.2,88.3,398,87.8z"/>
	<path class="st9" d="M378.5,67.5c-1.2-2.3-2.5-4.5-4-6.6c-1.5-2.2-3.1-4.3-4.8-6.3c-1.7-2.1-3.5-4.1-5.5-5.9
		c-2-1.9-4.1-3.7-6.3-5.3c1,0.9,2.1,1.8,3,2.7c0.5,0.5,1,0.9,1.5,1.4l1.4,1.4c0.2,0.2,0.5,0.5,0.7,0.7l0.7,0.7
		c0.5,0.5,0.9,1,1.4,1.5l1.3,1.5l1.3,1.5c1.7,2,3.3,4.1,4.9,6.2c0.8,1.1,1.5,2.1,2.3,3.2C377.1,65.4,377.8,66.4,378.5,67.5z"/>
	<path class="st9" d="M363.7,59.7c-1.7-2.6-3.6-5.2-5.6-7.6c-1-1.2-2.1-2.4-3.2-3.6s-2.2-2.3-3.4-3.5s-2.4-2.2-3.6-3.3
		s-2.6-2.1-3.9-3.1s-2.8-1.9-4.2-2.8s-2.9-1.7-4.5-2.4c1.5,0.8,2.9,1.7,4.3,2.6s2.7,1.9,4,2.9c2.6,2,5.1,4.1,7.5,6.4
		c2.3,2.2,4.5,4.6,6.7,7c1.1,1.2,2.1,2.4,3.1,3.6C361.8,57.2,362.8,58.4,363.7,59.7z"/>
	<path class="st9" d="M343.5,52.1c-2-2.9-4.2-5.6-6.6-8.2c-2.4-2.7-5-5.2-7.7-7.6c-2.7-2.4-5.7-4.7-8.7-6.7c-1.5-1-3.1-2-4.7-2.9
		l-1.2-0.7c-0.4-0.2-0.8-0.4-1.2-0.6c-0.8-0.4-1.7-0.8-2.5-1.2c3.3,1.7,6.4,3.6,9.5,5.8c1.5,1.1,3,2.1,4.4,3.3s2.8,2.3,4.2,3.5
		c2.7,2.4,5.3,4.9,7.7,7.4c1.2,1.3,2.4,2.6,3.6,3.9C341.3,49.4,342.5,50.7,343.5,52.1z"/>
	<path class="st9" d="M323.1,46.5c-2.9-2.9-5.9-5.6-9.1-8.1c-3.3-2.5-6.7-4.9-10.2-7c-1.8-1.1-3.6-2.1-5.5-3.1s-3.7-1.9-5.7-2.7
		c-3.8-1.7-7.8-3.1-11.8-4.2c2,0.7,4,1.4,5.9,2.2c1,0.4,1.9,0.8,2.9,1.2s1.9,0.8,2.9,1.3c3.8,1.8,7.4,3.7,11,5.9
		c3.5,2.1,6.9,4.4,10.2,6.9c1.6,1.2,3.3,2.5,4.8,3.8S321.6,45.2,323.1,46.5z"/>
	<path class="st9" d="M295,41.3c-1.3-1.2-2.7-2.2-4.2-3.2c-0.4-0.2-0.8-0.5-1.1-0.7l-1.2-0.7l-0.6-0.3l-0.6-0.3l-1.2-0.6
		c-3.2-1.6-6.6-3-10-4.1l-2.6-0.8c-0.4-0.1-0.9-0.2-1.3-0.4l-1.3-0.3c-1.7-0.5-3.5-0.8-5.2-1.2c-0.9-0.2-1.8-0.3-2.6-0.5l-2.6-0.4
		c-0.9-0.1-1.8-0.2-2.6-0.3l-2.6-0.3c1.8,0.3,3.5,0.5,5.3,0.8l2.6,0.5c0.9,0.2,1.8,0.3,2.6,0.5c1.7,0.4,3.5,0.8,5.2,1.3
		c0.9,0.2,1.7,0.5,2.6,0.7l2.5,0.8c3.4,1.1,6.7,2.5,9.9,4c0.8,0.4,1.6,0.8,2.4,1.2l1.2,0.6l1.1,0.7C292.2,39.2,293.7,40.2,295,41.3z
		"/>
	<path class="st9" d="M260.6,38.5c-1.2-0.7-2.6-1.4-3.9-1.9c-0.3-0.1-0.7-0.3-1-0.4l-1-0.3c-0.7-0.2-1.4-0.4-2.1-0.6
		c-2.8-0.7-5.7-1.2-8.6-1.4l-2.1-0.1c-0.4,0-0.7,0-1.1,0h-1.1c-1.4,0-2.8,0.1-4.2,0.2c-0.7,0-1.4,0.1-2.1,0.2l-2,0.2
		c-0.7,0.1-1.3,0.2-2,0.4l-2,0.4c1.4-0.1,2.7-0.3,4.1-0.4l2.1-0.2c0.7,0,1.4-0.1,2.1-0.1c1.4,0,2.8-0.1,4.2,0c0.7,0,1.4,0,2.1,0
		l2.1,0.1c2.8,0.2,5.6,0.6,8.4,1.3c0.7,0.2,1.4,0.3,2.1,0.5l1,0.3c0.3,0.1,0.7,0.2,1,0.3C257.9,37.3,259.3,37.9,260.6,38.5z"/>
	<path class="st9" d="M230.3,41.2c-1.3-0.3-2.5-0.5-3.8-0.6c-1.3-0.1-2.6-0.2-3.8-0.2s-2.5,0-3.8,0.1c-1.2,0.1-2.5,0.2-3.7,0.5
		c1.3,0,2.5,0,3.8,0s2.5,0,3.8,0s2.5,0,3.8,0.1L230.3,41.2z"/>
	<path class="st9" d="M381.3,69.4c-1.2-0.1-2.4-0.1-3.6,0.1c-1.1,0.1-2.3,0.4-3.4,0.7c-1.1,0.3-2.1,0.7-3.1,1.2
		c-0.5,0.2-1,0.5-1.5,0.7s-0.9,0.6-1.4,0.8c0.5-0.2,1-0.4,1.5-0.6l0.8-0.3c0.2-0.1,0.5-0.2,0.8-0.3l0.8-0.3c0.2-0.1,0.5-0.2,0.8-0.3
		c0.5-0.2,1.1-0.3,1.6-0.5c1.1-0.3,2.1-0.6,3.2-0.8C379.1,69.6,380.2,69.5,381.3,69.4z"/>
	<path class="st9" d="M368.2,61.8c-0.5-0.1-1.1-0.2-1.7-0.2c-0.6,0-1.1,0-1.7,0c-0.5,0-1.1,0.1-1.6,0.2l-0.8,0.1l-0.8,0.2
		c-2,0.5-4,1.2-5.8,2.1c-0.5,0.2-0.9,0.4-1.4,0.7s-0.9,0.4-1.3,0.7l-1.3,0.8c-0.4,0.3-0.9,0.5-1.3,0.8c-0.8,0.6-1.6,1.1-2.4,1.7
		s-1.5,1.2-2.3,1.8c0.9-0.5,1.7-1,2.5-1.6c0.4-0.3,0.9-0.5,1.3-0.8l1.3-0.8c0.9-0.5,1.7-1,2.6-1.4l1.3-0.7c0.5-0.2,0.9-0.5,1.4-0.7
		l1.4-0.6c0.5-0.2,0.9-0.4,1.4-0.6l0.7-0.3l0.7-0.2l0.7-0.2l0.7-0.2l0.7-0.2c0.2-0.1,0.5-0.1,0.8-0.2c0.5-0.1,1-0.2,1.5-0.3
		C366,61.7,367.1,61.7,368.2,61.8z"/>
	<path class="st9" d="M347.8,53.5c-0.8-0.2-1.6-0.3-2.4-0.3c-0.2,0-0.4,0-0.6,0h-0.6h-0.6c-0.2,0-0.4,0-0.6,0.1l-1.2,0.2l-1.1,0.2
		l-0.6,0.1c-0.2,0-0.4,0.1-0.6,0.2l-1.1,0.3c-2.8,0.9-5.6,2-8.3,3.3c-0.6,0.3-1.3,0.7-1.9,1l-1,0.5c-0.3,0.2-0.6,0.4-0.9,0.5
		l-1.8,1.1l-0.9,0.6c-0.3,0.2-0.6,0.4-0.9,0.6l-1.7,1.2c-0.6,0.4-1.2,0.8-1.7,1.2c-1.1,0.9-2.2,1.7-3.3,2.6c1.2-0.8,2.4-1.6,3.5-2.4
		c0.6-0.4,1.2-0.8,1.8-1.2l1.8-1.2c0.6-0.4,1.2-0.8,1.8-1.1l1.9-1.1c0.6-0.4,1.2-0.7,1.9-1s1.3-0.7,1.9-1c1.3-0.6,2.6-1.3,4-1.8
		c0.7-0.3,1.3-0.6,2-0.8l1-0.4l0.5-0.2l0.5-0.2c0.7-0.2,1.4-0.5,2.2-0.6l1.1-0.3l1.1-0.2c0.2,0,0.4-0.1,0.6-0.1l0.6-0.1l0.6-0.1
		c0.2,0,0.4,0,0.6,0h0.6h0.6C346.9,53.3,347.4,53.4,347.8,53.5z"/>
	<path class="st9" d="M325.8,47.5c-0.4,0-0.7,0-1.1,0s-0.7,0.1-1.1,0.1s-0.7,0.1-1,0.2l-1,0.2c-1.3,0.3-2.7,0.8-3.9,1.3
		c-2.5,1-4.9,2.2-7.1,3.7l-0.8,0.5L309,54l-1.6,1.1c-0.5,0.4-1,0.8-1.5,1.2s-1,0.8-1.5,1.2c-1,0.8-1.9,1.7-2.8,2.5s-1.8,1.8-2.6,2.7
		c1-0.8,1.9-1.7,2.9-2.5s2-1.6,3-2.4s2-1.6,3.1-2.3l1.6-1.1l0.8-0.5l0.8-0.5l1.6-1l1.7-1l0.4-0.2l0.4-0.2l0.9-0.5
		c0.6-0.3,1.2-0.6,1.8-0.8c0.3-0.1,0.6-0.3,0.9-0.4l0.9-0.4l0.5-0.2l0.5-0.2l1-0.3l1-0.3c0.3-0.1,0.7-0.2,1-0.2
		C324.5,47.6,325.2,47.5,325.8,47.5z"/>
	<path class="st9" d="M301.4,42.4c-0.3,0-0.7,0-1,0c-0.3,0-0.7,0.1-1,0.1s-0.6,0.1-1,0.2l-1,0.2c-1.2,0.3-2.4,0.7-3.5,1.2
		c-2.2,0.9-4.4,2.1-6.4,3.5l-0.7,0.5l-0.7,0.5l-1.4,1.1c-0.5,0.4-0.9,0.8-1.3,1.1s-0.9,0.7-1.3,1.1c-0.8,0.8-1.7,1.6-2.5,2.4
		s-1.6,1.7-2.3,2.5c0.9-0.8,1.7-1.5,2.6-2.3s1.8-1.5,2.6-2.3s1.8-1.5,2.7-2.2l1.4-1l0.7-0.5l0.7-0.5l1.5-1l1.5-0.9
		c0.2-0.2,0.5-0.3,0.8-0.4l0.8-0.4c0.5-0.3,1.1-0.5,1.6-0.8c1.1-0.5,2.2-1,3.4-1.4C298.9,42.8,300.2,42.5,301.4,42.4z"/>
	<path class="st9" d="M273.3,39c-1.2-0.1-2.4,0-3.6,0.2c-1.2,0.2-2.3,0.4-3.5,0.7c-2.2,0.6-4.4,1.3-6.4,2.3l-1.5,0.7l-1.5,0.8
		c-0.5,0.3-1,0.5-1.4,0.8l-1.4,0.9c-0.9,0.6-1.7,1.2-2.6,1.9s-1.6,1.4-2.4,2c0.9-0.6,1.8-1.2,2.7-1.8l1.4-0.9
		c0.5-0.3,0.9-0.6,1.4-0.8c0.9-0.5,1.8-1.1,2.8-1.6l1.5-0.8l1.5-0.7c2-0.9,4.1-1.7,6.3-2.4c1.1-0.3,2.2-0.6,3.3-0.8
		C271,39.2,272.1,39,273.3,39z"/>
	<path class="st9" d="M237.5,39.9c-1.5,0.2-2.9,0.6-4.3,1.1c-1.3,0.5-2.6,1.1-3.9,1.8c-1.2,0.7-2.3,1.4-3.4,2.3
		c-0.6,0.4-1,0.9-1.5,1.3s-0.9,0.9-1.4,1.4c0.6-0.4,1.1-0.8,1.6-1.2s1.1-0.8,1.7-1.2l0.9-0.6l0.9-0.5l0.4-0.3l0.4-0.3
		c0.3-0.2,0.6-0.3,0.9-0.5c1.2-0.7,2.4-1.3,3.7-1.9C234.8,40.9,236.1,40.4,237.5,39.9z"/>
	<path class="st9" d="M394.9,82.1c-0.6-0.9-1.2-1.8-1.9-2.7c-0.7-0.9-1.5-1.7-2.2-2.5c-1.6-1.6-3.3-3.2-5.1-4.6
		c-3.7-2.9-7.6-5.5-11.7-7.8c-8.3-4.6-17-8.5-26-11.5c-9-3.1-18.1-5.6-27.4-7.7c-9.2-2.1-18.5-3.7-27.8-5c-0.6-0.1-1.2-0.2-1.7-0.2
		l-1.7-0.2l-3.5-0.4l-3.5-0.4c-1.2-0.1-2.3-0.2-3.5-0.3l-3.5-0.3c-1.2-0.1-2.3-0.1-3.5-0.2c-2.3-0.2-4.6-0.2-6.9-0.3
		c-4.6-0.1-9.2-0.1-13.8,0.1s-9.1,0.6-13.5,1.3c-8.7,1.1-17.1,3.5-25.1,7c-0.5,0.2-1,0.4-1.4,0.7l-1.4,0.7c-0.9,0.5-1.8,1-2.7,1.5
		c-0.4,0.3-0.9,0.6-1.3,0.8l-1.3,0.9l-1.2,0.9l-0.6,0.5l-0.6,0.5l-1.1,1c-0.4,0.3-0.7,0.7-1.1,1l-0.5,0.5c-0.2,0.2-0.3,0.4-0.5,0.5
		l-1,1.1c-1.2,1.5-2.2,3.1-3.1,4.9c0.9-1.7,2.1-3.3,3.3-4.7l1-1.1c0.2-0.2,0.3-0.4,0.5-0.5l0.6-0.5c0.4-0.3,0.7-0.7,1.1-1l1.2-1
		l0.6-0.5l0.6-0.4l1.2-0.9l1.3-0.8c0.4-0.3,0.9-0.6,1.3-0.8c0.9-0.5,1.8-1,2.7-1.5l1.4-0.7c0.5-0.2,1-0.4,1.4-0.6
		c3.9-1.7,8-3.1,12.1-4.1c4.3-1.1,8.6-1.9,12.9-2.4c9-1.1,18-1.5,27.1-1.1c9.2,0.3,18.5,1.1,27.6,2.4c9.2,1.3,18.4,2.9,27.6,4.9
		l3.4,0.8l3.4,0.8l1.7,0.4l1.7,0.4l3.4,0.9c4.5,1.3,9.1,2.5,13.5,4.1s8.9,3.1,13.2,4.9c4.4,1.8,8.6,3.9,12.8,6.1
		c4.1,2.2,8,4.7,11.8,7.5c1.8,1.4,3.6,2.9,5.2,4.5c0.8,0.8,1.6,1.6,2.3,2.4C393.7,80.3,394.3,81.1,394.9,82.1z"/>
	<g class="st10">
		<path class="st11" d="M195,61.8c9.1-17.5,45.5-31.4,116-17.8c10.8,2,21.5,4.7,32,7.9c7.5,2.3,14.9,5.1,22,8.4l1.5,0.7l1.2,0.6
			c3.5,1.7,6.9,3.6,10.3,5.6l0,0l1.2,0.8c0.4,0.2,0.8,0.5,1.1,0.8l0.6,0.4c0.9,0.6,1.8,1.2,2.6,1.8c3.3,2.3,6.3,5,9,8l0.3,0.3
			c0.4,0.4,0.7,0.8,0.9,1.2c0.4,0.5,0.8,1.1,1.2,1.7v0.1l0,0l0.8,1.8c0.8,1.3,1.4,2.7,1.8,4.1c0.2,0.6,0.7,0.2,0.5-0.3
			c-0.3-1.3-0.7-2.6-1.2-3.9l0,0c-0.1-0.4-0.3-0.8-0.5-1.2l-0.2-0.4c-0.2-0.6-0.5-1.2-0.8-1.8l-0.2-0.5c-0.2-0.3-0.3-0.6-0.5-1
			l-0.3-0.5c-0.8-1.5-1.8-3.1-3-5c-0.1-0.2-0.3-0.5-0.5-0.7s-0.4-0.6-0.6-0.9l-0.4-0.6c-0.6-0.8-1.2-1.7-1.8-2.6
			c-0.3-0.4-0.6-0.8-0.9-1.2l-1.9-2.5c-4.8-6.3-19.5-20.6-40.9-31.8l0,0c-15.3-8-34-14.5-54.9-15.4c-42.3-1.8-91,23.9-94.6,44.2
			L195,61.8z"/>
	</g>
	<g class="st10">
		<path class="st11" d="M314,26.3c-2,1.9-2.4,5-1,7.4c3.8,7.2,13.6,13.1,28.1,17.1c8.6,2.4,20.3,7.9,23.9,9.4c0.5,0.2,1,0.4,1.4,0.7
			l0,0c0.2,0.2,0.7,0.3,1.2,0.6c2.4,1.1,6.3,3.3,10.3,5.7l0,0l1.2,0.8c0.4,0.2,0.8,0.5,1.1,0.8l0.6,0.4c0.9,0.6,1.8,1.2,2.6,1.8
			c3.3,2.3,6.3,5,9,8l0.3,0.3c0.4,0.4,0.7,0.8,0.9,1.2c0.4,0.5,0.8,1.1,1.2,1.7v0.1l0,0l1.9,1.7c-0.1-0.4-0.3-0.8-0.5-1.2l-0.2-0.4
			c-0.2-0.6-0.5-1.2-0.8-1.8l-0.2-0.5c-0.2-0.3-0.3-0.6-0.5-1l-0.3-0.5c-0.8-1.5-1.8-3.1-3-5c-0.2-0.2-0.3-0.5-0.5-0.7
			s-0.4-0.6-0.6-0.9l-0.4-0.6c-0.6-0.8-1.2-1.7-1.8-2.6c-0.3-0.4-0.6-0.8-0.9-1.2l-1.9-2.4c-4.8-6.3-19.5-20.6-40.9-31.8l0,0
			C329.5,26,316.9,23.6,314,26.3z"/>
	</g>
	<g class="st12">
		<path class="st11" d="M314,26.3c-2,1.9-2.4,5-1,7.4c3.8,7.2,13.6,13.1,28.1,17.1c8.6,2.4,20.3,7.9,23.9,9.4c0.5,0.2,1,0.4,1.4,0.7
			l0,0c0.2,0.2,0.7,0.3,1.2,0.6c2.4,1.1,6.3,3.3,10.3,5.7l0,0l1.2,0.8c0.4,0.2,0.8,0.5,1.1,0.8l0.6,0.4c0.9,0.6,1.8,1.2,2.6,1.8
			c3.3,2.3,6.3,5,9,8l0.3,0.3c0.4,0.4,0.7,0.8,0.9,1.2c0.4,0.5,0.8,1.1,1.2,1.7v0.1l0,0l1.9,1.7c-0.1-0.4-0.3-0.8-0.5-1.2l-0.2-0.4
			c-0.2-0.6-0.5-1.2-0.8-1.8l-0.2-0.5c-0.2-0.3-0.3-0.6-0.5-1l-0.3-0.5c-0.8-1.5-1.8-3.1-3-5c-0.2-0.2-0.3-0.5-0.5-0.7
			s-0.4-0.6-0.6-0.9l-0.4-0.6c-0.6-0.8-1.2-1.7-1.8-2.6c-0.3-0.4-0.6-0.8-0.9-1.2l-1.9-2.4c-4.8-6.3-19.5-20.6-40.9-31.8l0,0
			C329.5,26,316.9,23.6,314,26.3z"/>
	</g>
	<path class="st8" d="M398,87.8c-1.2-5-3.5-10.4-12.9-22.8c-8.3-10.9-45.7-45.1-95.7-47.2c-42.3-1.8-91,23.9-94.6,44.2
		c0,0,4.6-9.5,24.5-10.3c19.5-0.7,68.3,18.8,97,21.9c36.4,4,56.6,2.7,65.9,3.8c8.9,1,12.9,3.4,15.2,10.8
		C397.7,88.6,398.2,88.3,398,87.8z"/>
	<path class="st13" d="M378.5,67.5c-1.2-2.3-2.5-4.5-4-6.6c-1.5-2.2-3.1-4.3-4.8-6.3c-1.7-2.1-3.5-4.1-5.5-5.9
		c-2-1.9-4.1-3.7-6.3-5.3c1,0.9,2.1,1.8,3,2.7c0.5,0.5,1,0.9,1.5,1.4l1.4,1.4c0.2,0.2,0.5,0.5,0.7,0.7l0.7,0.7
		c0.5,0.5,0.9,1,1.4,1.5l1.3,1.5l1.3,1.5c1.7,2,3.3,4.1,4.9,6.2c0.8,1.1,1.5,2.1,2.3,3.2C377.1,65.4,377.8,66.4,378.5,67.5z"/>
	<path class="st13" d="M363.7,59.7c-1.7-2.6-3.6-5.2-5.6-7.6c-1-1.2-2.1-2.4-3.2-3.6s-2.2-2.3-3.4-3.5s-2.4-2.2-3.6-3.3
		s-2.6-2.1-3.9-3.1s-2.8-1.9-4.2-2.8s-2.9-1.7-4.5-2.4c1.5,0.8,2.9,1.7,4.3,2.6s2.7,1.9,4,2.9c2.6,2,5.1,4.1,7.5,6.4
		c2.3,2.2,4.5,4.6,6.7,7c1.1,1.2,2.1,2.4,3.1,3.6C361.8,57.2,362.8,58.4,363.7,59.7z"/>
	<path class="st13" d="M343.5,52.1c-2-2.9-4.2-5.6-6.6-8.2c-2.4-2.7-5-5.2-7.7-7.6c-2.7-2.4-5.7-4.7-8.7-6.7c-1.5-1-3.1-2-4.7-2.9
		l-1.2-0.7c-0.4-0.2-0.8-0.4-1.2-0.6c-0.8-0.4-1.7-0.8-2.5-1.2c3.3,1.7,6.4,3.6,9.5,5.8c1.5,1.1,3,2.1,4.4,3.3s2.8,2.3,4.2,3.5
		c2.7,2.4,5.3,4.9,7.7,7.4c1.2,1.3,2.4,2.6,3.6,3.9C341.3,49.4,342.5,50.7,343.5,52.1z"/>
	<path class="st13" d="M323.1,46.5c-2.9-2.9-5.9-5.6-9.1-8.1c-3.3-2.5-6.7-4.9-10.2-7c-1.8-1.1-3.6-2.1-5.5-3.1s-3.7-1.9-5.7-2.7
		c-3.8-1.7-7.8-3.1-11.8-4.2c2,0.7,4,1.4,5.9,2.2c1,0.4,1.9,0.8,2.9,1.2s1.9,0.8,2.9,1.3c3.8,1.8,7.4,3.7,11,5.9
		c3.5,2.1,6.9,4.4,10.2,6.9c1.6,1.2,3.3,2.5,4.8,3.8S321.6,45.2,323.1,46.5z"/>
	<path class="st13" d="M295,41.3c-1.3-1.2-2.7-2.2-4.2-3.2c-0.4-0.2-0.8-0.5-1.1-0.7l-1.2-0.7l-0.6-0.3l-0.6-0.3l-1.2-0.6
		c-3.2-1.6-6.6-3-10-4.1l-2.6-0.8c-0.4-0.1-0.9-0.2-1.3-0.4l-1.3-0.3c-1.7-0.5-3.5-0.8-5.2-1.2c-0.9-0.2-1.8-0.3-2.6-0.5l-2.6-0.4
		c-0.9-0.1-1.8-0.2-2.6-0.3l-2.6-0.3c1.8,0.3,3.5,0.5,5.3,0.8l2.6,0.5c0.9,0.2,1.8,0.3,2.6,0.5c1.7,0.4,3.5,0.8,5.2,1.3
		c0.9,0.2,1.7,0.5,2.6,0.7l2.5,0.8c3.4,1.1,6.7,2.5,9.9,4c0.8,0.4,1.6,0.8,2.4,1.2l1.2,0.6l1.1,0.7C292.2,39.2,293.7,40.2,295,41.3z
		"/>
	<path class="st13" d="M260.6,38.5c-1.2-0.7-2.6-1.4-3.9-1.9c-0.3-0.1-0.7-0.3-1-0.4l-1-0.3c-0.7-0.2-1.4-0.4-2.1-0.6
		c-2.8-0.7-5.7-1.2-8.6-1.4l-2.1-0.1c-0.4,0-0.7,0-1.1,0h-1.1c-1.4,0-2.8,0.1-4.2,0.2c-0.7,0-1.4,0.1-2.1,0.2l-2,0.2
		c-0.7,0.1-1.3,0.2-2,0.4l-2,0.4c1.4-0.1,2.7-0.3,4.1-0.4l2.1-0.2c0.7,0,1.4-0.1,2.1-0.1c1.4,0,2.8-0.1,4.2,0c0.7,0,1.4,0,2.1,0
		l2.1,0.1c2.8,0.2,5.6,0.6,8.4,1.3c0.7,0.2,1.4,0.3,2.1,0.5l1,0.3c0.3,0.1,0.7,0.2,1,0.3C257.9,37.3,259.3,37.9,260.6,38.5z"/>
	<path class="st13" d="M230.3,41.2c-1.3-0.3-2.5-0.5-3.8-0.6c-1.3-0.1-2.6-0.2-3.8-0.2s-2.5,0-3.8,0.1c-1.2,0.1-2.5,0.2-3.7,0.5
		c1.3,0,2.5,0,3.8,0s2.5,0,3.8,0s2.5,0,3.8,0.1L230.3,41.2z"/>
	<path class="st13" d="M381.3,69.4c-1.2-0.1-2.4-0.1-3.6,0.1c-1.1,0.1-2.3,0.4-3.4,0.7c-1.1,0.3-2.1,0.7-3.1,1.2
		c-0.5,0.2-1,0.5-1.5,0.7s-0.9,0.6-1.4,0.8c0.5-0.2,1-0.4,1.5-0.6l0.8-0.3c0.2-0.1,0.5-0.2,0.8-0.3l0.8-0.3c0.2-0.1,0.5-0.2,0.8-0.3
		c0.5-0.2,1.1-0.3,1.6-0.5c1.1-0.3,2.1-0.6,3.2-0.8C379.1,69.6,380.2,69.5,381.3,69.4z"/>
	<path class="st13" d="M368.2,61.8c-0.5-0.1-1.1-0.2-1.7-0.2c-0.6,0-1.1,0-1.7,0c-0.5,0-1.1,0.1-1.6,0.2l-0.8,0.1l-0.8,0.2
		c-2,0.5-4,1.2-5.8,2.1c-0.5,0.2-0.9,0.4-1.4,0.7s-0.9,0.4-1.3,0.7l-1.3,0.8c-0.4,0.3-0.9,0.5-1.3,0.8c-0.8,0.6-1.6,1.1-2.4,1.7
		s-1.5,1.2-2.3,1.8c0.9-0.5,1.7-1,2.5-1.6c0.4-0.3,0.9-0.5,1.3-0.8l1.3-0.8c0.9-0.5,1.7-1,2.6-1.4l1.3-0.7c0.5-0.2,0.9-0.5,1.4-0.7
		l1.4-0.6c0.5-0.2,0.9-0.4,1.4-0.6l0.7-0.3l0.7-0.2l0.7-0.2l0.7-0.2l0.7-0.2c0.2-0.1,0.5-0.1,0.8-0.2c0.5-0.1,1-0.2,1.5-0.3
		C366,61.7,367.1,61.7,368.2,61.8z"/>
	<path class="st13" d="M347.8,53.5c-0.8-0.2-1.6-0.3-2.4-0.3c-0.2,0-0.4,0-0.6,0h-0.6h-0.6c-0.2,0-0.4,0-0.6,0.1l-1.2,0.2l-1.1,0.2
		l-0.6,0.1c-0.2,0-0.4,0.1-0.6,0.2l-1.1,0.3c-2.8,0.9-5.6,2-8.3,3.3c-0.6,0.3-1.3,0.7-1.9,1l-1,0.5c-0.3,0.2-0.6,0.4-0.9,0.5
		l-1.8,1.1l-0.9,0.6c-0.3,0.2-0.6,0.4-0.9,0.6l-1.7,1.2c-0.6,0.4-1.2,0.8-1.7,1.2c-1.1,0.9-2.2,1.7-3.3,2.6c1.2-0.8,2.4-1.6,3.5-2.4
		c0.6-0.4,1.2-0.8,1.8-1.2l1.8-1.2c0.6-0.4,1.2-0.8,1.8-1.1l1.9-1.1c0.6-0.4,1.2-0.7,1.9-1s1.3-0.7,1.9-1c1.3-0.6,2.6-1.3,4-1.8
		c0.7-0.3,1.3-0.6,2-0.8l1-0.4l0.5-0.2l0.5-0.2c0.7-0.2,1.4-0.5,2.2-0.6l1.1-0.3l1.1-0.2c0.2,0,0.4-0.1,0.6-0.1l0.6-0.1l0.6-0.1
		c0.2,0,0.4,0,0.6,0h0.6h0.6C346.9,53.3,347.4,53.4,347.8,53.5z"/>
	<path class="st13" d="M325.8,47.5c-0.4,0-0.7,0-1.1,0s-0.7,0.1-1.1,0.1s-0.7,0.1-1,0.2l-1,0.2c-1.3,0.3-2.7,0.8-3.9,1.3
		c-2.5,1-4.9,2.2-7.1,3.7l-0.8,0.5L309,54l-1.6,1.1c-0.5,0.4-1,0.8-1.5,1.2s-1,0.8-1.5,1.2c-1,0.8-1.9,1.7-2.8,2.5s-1.8,1.8-2.6,2.7
		c1-0.8,1.9-1.7,2.9-2.5s2-1.6,3-2.4s2-1.6,3.1-2.3l1.6-1.1l0.8-0.5l0.8-0.5l1.6-1l1.7-1l0.4-0.2l0.4-0.2l0.9-0.5
		c0.6-0.3,1.2-0.6,1.8-0.8c0.3-0.1,0.6-0.3,0.9-0.4l0.9-0.4l0.5-0.2l0.5-0.2l1-0.3l1-0.3c0.3-0.1,0.7-0.2,1-0.2
		C324.5,47.6,325.2,47.5,325.8,47.5z"/>
	<path class="st13" d="M301.4,42.4c-0.3,0-0.7,0-1,0c-0.3,0-0.7,0.1-1,0.1s-0.6,0.1-1,0.2l-1,0.2c-1.2,0.3-2.4,0.7-3.5,1.2
		c-2.2,0.9-4.4,2.1-6.4,3.5l-0.7,0.5l-0.7,0.5l-1.4,1.1c-0.5,0.4-0.9,0.8-1.3,1.1s-0.9,0.7-1.3,1.1c-0.8,0.8-1.7,1.6-2.5,2.4
		s-1.6,1.7-2.3,2.5c0.9-0.8,1.7-1.5,2.6-2.3s1.8-1.5,2.6-2.3s1.8-1.5,2.7-2.2l1.4-1l0.7-0.5l0.7-0.5l1.5-1l1.5-0.9
		c0.2-0.2,0.5-0.3,0.8-0.4l0.8-0.4c0.5-0.3,1.1-0.5,1.6-0.8c1.1-0.5,2.2-1,3.4-1.4C298.9,42.8,300.2,42.5,301.4,42.4z"/>
	<path class="st13" d="M273.3,39c-1.2-0.1-2.4,0-3.6,0.2c-1.2,0.2-2.3,0.4-3.5,0.7c-2.2,0.6-4.4,1.3-6.4,2.3l-1.5,0.7l-1.5,0.8
		c-0.5,0.3-1,0.5-1.4,0.8l-1.4,0.9c-0.9,0.6-1.7,1.2-2.6,1.9s-1.6,1.4-2.4,2c0.9-0.6,1.8-1.2,2.7-1.8l1.4-0.9
		c0.5-0.3,0.9-0.6,1.4-0.8c0.9-0.5,1.8-1.1,2.8-1.6l1.5-0.8l1.5-0.7c2-0.9,4.1-1.7,6.3-2.4c1.1-0.3,2.2-0.6,3.3-0.8
		C271,39.2,272.1,39,273.3,39z"/>
	<path class="st13" d="M237.5,39.9c-1.5,0.2-2.9,0.6-4.3,1.1c-1.3,0.5-2.6,1.1-3.9,1.8c-1.2,0.7-2.3,1.4-3.4,2.3
		c-0.6,0.4-1,0.9-1.5,1.3s-0.9,0.9-1.4,1.4c0.6-0.4,1.1-0.8,1.6-1.2s1.1-0.8,1.7-1.2l0.9-0.6l0.9-0.5l0.4-0.3l0.4-0.3
		c0.3-0.2,0.6-0.3,0.9-0.5c1.2-0.7,2.4-1.3,3.7-1.9C234.8,40.9,236.1,40.4,237.5,39.9z"/>
	<g class="st10">
		<path class="st11" d="M195,61.8c9.1-17.5,45.5-31.4,116-17.8c10.8,2,21.5,4.7,32,7.9c7.5,2.3,14.9,5.1,22,8.4l1.5,0.7l1.2,0.6
			c3.5,1.7,6.9,3.6,10.3,5.6l0,0l1.2,0.8c0.4,0.2,0.8,0.5,1.1,0.8l0.6,0.4c0.9,0.6,1.8,1.2,2.6,1.8c3.3,2.3,6.3,5,9,8l0.3,0.3
			c0.4,0.4,0.7,0.8,0.9,1.2c0.4,0.5,0.8,1.1,1.2,1.7v0.1l0,0l0.8,1.8c0.8,1.3,1.4,2.7,1.8,4.1c0.2,0.6,0.7,0.2,0.5-0.3
			c-0.3-1.3-0.7-2.6-1.2-3.9l0,0c-0.1-0.4-0.3-0.8-0.5-1.2l-0.2-0.4c-0.2-0.6-0.5-1.2-0.8-1.8l-0.2-0.5c-0.2-0.3-0.3-0.6-0.5-1
			l-0.3-0.5c-0.8-1.5-1.8-3.1-3-5c-0.1-0.2-0.3-0.5-0.5-0.7s-0.4-0.6-0.6-0.9l-0.4-0.6c-0.6-0.8-1.2-1.7-1.8-2.6
			c-0.3-0.4-0.6-0.8-0.9-1.2l-1.9-2.5c-4.8-6.3-19.5-20.6-40.9-31.8l0,0c-15.3-8-34-14.5-54.9-15.4c-42.3-1.8-91,23.9-94.6,44.2
			L195,61.8z"/>
	</g>
	<path class="st14" d="M394.9,82.1c-0.6-0.9-1.2-1.8-1.9-2.7c-0.7-0.9-1.5-1.7-2.2-2.5c-1.6-1.6-3.3-3.2-5.1-4.6
		c-3.7-2.9-7.6-5.5-11.7-7.8c-8.3-4.6-17-8.5-26-11.5c-9-3.1-18.1-5.6-27.4-7.7c-9.2-2.1-18.5-3.7-27.8-5c-0.6-0.1-1.2-0.2-1.7-0.2
		l-1.7-0.2l-3.5-0.4l-3.5-0.4c-1.2-0.1-2.3-0.2-3.5-0.3l-3.5-0.3c-1.2-0.1-2.3-0.1-3.5-0.2c-2.3-0.2-4.6-0.2-6.9-0.3
		c-4.6-0.1-9.2-0.1-13.8,0.1s-9.1,0.6-13.5,1.3c-8.7,1.1-17.1,3.5-25.1,7c-0.5,0.2-1,0.4-1.4,0.7l-1.4,0.7c-0.9,0.5-1.8,1-2.7,1.5
		c-0.4,0.3-0.9,0.6-1.3,0.8l-1.3,0.9l-1.2,0.9l-0.6,0.5l-0.6,0.5l-1.1,1c-0.4,0.3-0.7,0.7-1.1,1l-0.5,0.5c-0.2,0.2-0.3,0.4-0.5,0.5
		l-1,1.1c-1.2,1.5-2.2,3.1-3.1,4.9c0.9-1.7,2.1-3.3,3.3-4.7l1-1.1c0.2-0.2,0.3-0.4,0.5-0.5l0.6-0.5c0.4-0.3,0.7-0.7,1.1-1l1.2-1
		l0.6-0.5l0.6-0.4l1.2-0.9l1.3-0.8c0.4-0.3,0.9-0.6,1.3-0.8c0.9-0.5,1.8-1,2.7-1.5l1.4-0.7c0.5-0.2,1-0.4,1.4-0.6
		c3.9-1.7,8-3.1,12.1-4.1c4.3-1.1,8.6-1.9,12.9-2.4c9-1.1,18-1.5,27.1-1.1c9.2,0.3,18.5,1.1,27.6,2.4c9.2,1.3,18.4,2.9,27.6,4.9
		c1.1,0.3,2.3,0.5,3.4,0.8l3.4,0.8l1.7,0.4l1.7,0.4l3.4,0.9c4.5,1.3,9.1,2.5,13.5,4.1s8.9,3.1,13.2,4.9c4.4,1.8,8.6,3.9,12.8,6.1
		c4.1,2.2,8,4.7,11.8,7.5c1.8,1.4,3.6,2.9,5.2,4.5c0.8,0.8,1.6,1.6,2.3,2.4C393.7,80.3,394.3,81.1,394.9,82.1z"/>
	<g class="st10">
		<path class="st11" d="M314,26.3c-2,1.9-2.4,5-1,7.4c3.8,7.2,13.6,13.1,28.1,17.1c8.6,2.4,20.3,7.9,23.9,9.4c0.5,0.2,1,0.4,1.4,0.7
			l0,0c0.2,0.2,0.7,0.3,1.2,0.6c2.4,1.1,6.3,3.3,10.3,5.7l0,0l1.2,0.8c0.4,0.2,0.8,0.5,1.1,0.8l0.6,0.4c0.9,0.6,1.8,1.2,2.6,1.8
			c3.3,2.3,6.3,5,9,8l0.3,0.3c0.4,0.4,0.7,0.8,0.9,1.2c0.6,0.7,0.9,1.2,1.1,1.5c0.1,0.1,0.1,0.3,0.2,0.4l0.2,0.4
			c0.5,0.4,1.1,0.8,1.7,1.2c-0.1-0.4-0.3-0.8-0.5-1.2l-0.2-0.4c-0.2-0.6-0.5-1.2-0.8-1.8l-0.2-0.5c-0.2-0.3-0.3-0.6-0.5-1l-0.3-0.5
			c-0.8-1.5-1.8-3.1-3-5c-0.2-0.2-0.3-0.5-0.5-0.7s-0.4-0.6-0.6-0.9l-0.4-0.6c-0.6-0.8-1.2-1.7-1.8-2.6c-0.3-0.4-0.6-0.8-0.9-1.2
			l-1.9-2.4c-4.8-6.3-19.5-20.6-40.9-31.8l0,0C329.5,26,316.9,23.6,314,26.3z"/>
	</g>
	<path class="st15" d="M394.9,82.7l1.4-0.3c1.6,3.6,2.9,7.3,3.7,11.1c0.1,0.5-0.4,0.9-1,0.8l0,0c-0.5,0-0.9-0.5-0.9-1
		C398.2,92.1,397.9,88.9,394.9,82.7z"/>
	<path class="st16" d="M413.9,119.9c0,0-5.8-8-12.9-12.6l-2.5-1.6c-1.5-1-3.1-2-4.6-2.9l-2.7-1.6c-3.2-2.1-6.3-4.5-9.1-7.1
		c-7.8-7.9-9.1-13.7-3.7-14.1c6.8-0.5,12.6,0.9,16.7,9.9c2,4.2,1.9,8.4,3.3,9.2C405.5,103.1,413.7,113.8,413.9,119.9z"/>
	<path class="st17" d="M408.9,94.3c-0.2,0.2-0.4,0.4-0.6,0.5c-1.2,0.9-2.2,1.9-3.2,3.1l-1.1,1.2c-2.1,2.4-4.4,5.1-5.6,6.6
		c-1.5-1-3.1-2-4.6-2.9l-2.5-1.5l-0.2-0.1c2.3-3,4.3-6.1,6-9.4c0.2-0.4,0.3-0.8,0.5-1.1c0.5-1.4,0.7-3,0.6-4.5
		c0-2.2,1.7-2.6,3.2-1.6c0.7,0.5,1.6,0,2.6,0.7c1.9,1.4,3.5,3.2,4.7,5.3c0.1,0.3,0.3,0.5,0.4,0.8l0.1,0.3c0,0.1,0.1,0.2,0.1,0.2l0,0
		l0.1,0.2c0,0.1,0,0.2,0,0.2c0,0.1,0,0.2,0,0.2c0,0.1,0,0.2,0,0.3v0.2c0,0,0,0,0,0.1c0,0.1,0,0.1,0,0.2c0,0.1,0,0.1,0,0.2
		s0,0.1,0,0.2c0,0,0,0,0,0.1c0,0,0,0.1,0,0.1c0,0.1-0.1,0.2-0.1,0.2L408.9,94.3z"/>
	<path class="st18" d="M408.6,91.9c-0.3-0.9-0.8-1.8-1.3-2.6c-0.9-1.4-2.1-2.6-3.5-3.5c-0.9-0.5-2-0.2-2.8-0.7
		c-1.3-0.8-2.8-0.5-1.6,1.3l0,0c2.3,2.7,5.4,5.4,8.4,6.4C408.3,92.8,409.1,93,408.6,91.9L408.6,91.9z"/>
	<path class="st19" d="M409.1,93.9c0,0,0-0.1,0-0.1c0,0,0,0,0-0.1c0,0,0-0.1,0-0.2s0-0.1,0-0.2c0-0.1,0-0.1,0-0.2c0,0,0,0,0-0.1
		v-0.2c0,0,0,0,0-0.1c-0.3,0.6-1,0.9-1.6,0.7c-2.6-1.2-4.9-2.9-6.9-5c0.5,0.9,1,1.7,1.6,2.5c1.7,2.3,1.5,5.5-0.6,7.5
		c-1,1-2,2.1-3,3.2c-0.8,0.9-1.5,1.9-2.2,2.9l1.8,1.2c1.2-1.5,3.5-4.2,5.6-6.6l1.1-1.2c1-1.1,2-2.2,3.2-3.1c0.2-0.1,0.4-0.3,0.6-0.5
		l0.1-0.2C409,94.1,409,94,409.1,93.9z"/>
	<path class="st20" d="M91.3,345c8.8,9.9,16.2,19.3,42.1,24.1c30,5.6,65.5,3,80.7-1.1c22.8-6.2,31.1-22,34.1-34.4
		c0.4-1.8,0.7-3.6,0.9-5.4l0,0c1.6-17.9-9.7-33.4-9.7-33.4l-139.4,47.2L91.3,345z"/>
	<path class="st21" d="M91.4,345c8.8,9.9,16.2,19.3,42.1,24.1c30,5.6,65.5,3,80.7-1.1c22.8-6.2,31.1-22,34.1-34.4
		c0.4-1.8,0.7-3.6,0.9-5.4c-11.2,31-68.7,42.6-41.2,13.9c2.1-2.2,6.6-7.4,8.9-12.6c0,0-59.4,27.8-64.8,28.6c-0.4,0.1-0.8,0-1.1-0.2
		l-50.8-15.9L91.4,345z"/>
	<path class="st22" d="M239.5,294.8c0,0-33.8,78.2-104.7,72.6c-63.7-5-65.8-84.5-65.6-100.6c0-1.6,0.2-3.2,0.3-4.9
		c0.7-10.9,4-31.7,4-31.7l1.6,0.6l7.4,5.6c0,0,12.7,3.2,13,4.7c0.8,5.5,6.5,4.4,8.3,6.1c2.6,2.4,6.9,7.3,9.3,4.9
		c1.5-1.5,5.3,4.1,7.4,4c5.5-0.4,3.7,1.1,8.2,5.7c1.7,1.7,2.9,0.4,4.5,2.5c2.6,3.5,5.4,1.3,7.2,2.2c0.9,0.5,1.9-0.5,4.9,2.3
		c1.4,1.3,3.1-0.3,4.5,1.1c2.5,2.7,4.9,1.7,12.3,3.5c1.6,0.4,8.2-0.2,10,0.6c9.4,4.1,10.8,1.7,11.2,3.9c0.3,1.5,5.2-0.9,6.9,1
		c4.2,4.5,4.2,1,5.8,3c1.2,1.5,5.3,1.8,7.4,1.5c2.5-0.4,1.6,1.7,8,3.5c3.6,0.9,7.3,1.4,11,1.3L239.5,294.8z"/>
	<path class="st23" d="M75.1,230.8v0.5C75,231.2,75,231,75.1,230.8z"/>
	<path class="st23" d="M136.5,361.5c39.2,3.2,66.1-23,81.2-44.2c4.5-6.3,8.5-12.8,12.1-19.7c1.8-3.5,2.7-5.6,2.7-5.6l-10-3.9
		c-1.4,1.2-3.4,4.2-5.3,2.6c-1.9-1.6-4.5-2-6.9-1.1c-1.6,0.7-3,0.3-3.9-1.6s-3.7-0.5-3.9-2.2s-8.9-0.3-7.7-4.4
		c0.5-1.7-6.3,1.8-5.6-1.8c0.3-1.3-2.9,3.1-5.9,2.3s-1.5-6.5-3.1-3.1c-1.7,3.6-3.8-3.9-4.5-1.6s-3.4-0.5-4.2,2.2s-2-3-2.5-4.4
		s-2.7,1.8-3.2,5.3s-1.1-1.9-1.3-4.4s-0.5-1.1-1,0.1s-1.5,0.7-2-2.5s-1.2,3.3-3.1,2.9s-3.8,0.4-4.6-1.5s-1.1,1.4-1.9,0.6
		s-0.6-1.3-2.7-0.2s-2-6.3-2.1-5.6s-3.6,1.5-5.1-0.6s-0.8-0.4-4.8,4.7s-2-5-4.6-8.1s-3.3-1.2-4.5-2.9s-1.7-1.6-4-1.8s-3.3-5-4-6.1
		s-4.6,2.8-6.7,2.3c-1.6-0.3-2-4.2-3.3-7.1c-0.3-0.8-0.8-1.6-1.4-2.3c-0.9-0.8-2.2-1.1-3.4-0.8c-2.1,0.3-3.9,1.4-3.6,0.4
		c0.5-1.7-0.5-4.3-0.6-2.1s-2.8,1.4-2.9,0.7s0.8-4.7-1-2.1s-5.5-2.6-5.5-4c0-0.1,0-0.1,0-0.2c-0.1-0.5-0.4-1-0.9-1.3
		c-0.7-0.6-1.6-1.1-2.5-1.4h-0.1l-2.2-0.7c-3.9-0.4-6.8-2.6-9.7-4.6l-1.2-0.8l0,0v0.5v0.6l-0.1,2.9l-1.3,28.9
		C73.7,263.8,71.7,356.2,136.5,361.5z"/>
	<path class="st24" d="M73.5,230.2l1.6,0.6v0.5l-1.3,32.4c0,0-2,92.4,62.8,97.7c39.2,3.2,66.1-23,81.2-44.2
		c5.7-8,10.6-16.4,14.8-25.3l4.5,1.7c0,0-33.2,76.4-101.4,71.1c-58.4-4.6-64.7-75.1-64.7-95C70.9,260.6,73.5,230.2,73.5,230.2z"/>
	<path class="st25" d="M96.6,273.5c25.5,30.8,46.3,40.6,81.9,38.4c19-1.2,50.8-21,50.8-21l-6.9-2.7c-1.4,1.2-3.4,4.2-5.3,2.6
		c-1.9-1.6-4.5-2-6.9-1.1c-1.6,0.7-3,0.3-3.9-1.6s-3.7-0.5-3.9-2.2s-8.9-0.3-7.7-4.4c0.5-1.7-6.3,1.8-5.6-1.8
		c0.3-1.3-2.9,3.1-5.9,2.3s-1.5-6.5-3.1-3.1c-1.7,3.6-3.8-3.9-4.5-1.6s-3.4-0.5-4.2,2.2s-2-3-2.5-4.4s-2.7,1.8-3.2,5.3
		s-1.1-1.9-1.3-4.4s-0.5-1.1-1,0.1s-1.5,0.7-2-2.5s-1.2,3.3-3.1,2.9s-3.8,0.4-4.6-1.5s-1.1,1.4-1.9,0.6s-0.6-1.3-2.7-0.2
		s-2-6.3-2.1-5.6s-3.6,1.5-5.1-0.6s-0.8-0.4-4.8,4.7s-2-5-4.6-8.1s-3.3-1.2-4.5-2.9s-1.7-1.6-4-1.8s-3.3-5-4-6.1s-4.6,2.8-6.7,2.3
		c-1.6-0.3-2-4.2-3.3-7.1c-1.5,0.2-2.9-0.4-3.9-1.5c-0.4-0.5-0.7-1-0.9-1.6c-2.1,0.3-3.9,1.4-3.6,0.4c0.5-1.7-0.5-4.3-0.6-2.1
		s-2.8,1.4-2.9,0.7s0.8-4.7-1-2.1s-5.5-2.6-5.5-4c0-0.1,0-0.1,0-0.2l0,0c-1.4-0.4-2.7-1.4-3.4-2.7h-0.1l-2.2-0.7
		c-3.9-0.4-6.8-2.6-9.7-4.6c0.4,1.5,0.9,2.4,1.4,4.1C78.6,239.2,89.2,264.5,96.6,273.5z"/>
</g>
</svg>
