<svg id="Layer_1" data-name="Layer 1" xmlns="http://www.w3.org/2000/svg" xmlns:xlink="http://www.w3.org/1999/xlink" viewBox="0 0 512 400"><defs><style>.cls-1{opacity:0.3;}.cls-2{fill:#e5d8d9;}.cls-3{fill:#a51919;}.cls-4{fill:#931616;}.cls-5{fill:#911919;}.cls-6{fill:#fff;}.cls-7{fill:#92acb2;opacity:0.6;}.cls-8{fill:url(#radial-gradient);}.cls-9{fill:#9f642a;}.cls-10{fill:#77461a;}.cls-11{fill:#ede6ba;}.cls-12{fill:#e2d489;}.cls-13{fill:#cdaf73;}</style><radialGradient id="radial-gradient" cx="252.25" cy="23473.6" r="101.4" gradientTransform="translate(0 -6702.39) scale(1 0.29)" gradientUnits="userSpaceOnUse"><stop offset="0" stop-color="#7f949c"/><stop offset="0.22" stop-color="#82979e"/><stop offset="0.39" stop-color="#8c9fa6"/><stop offset="0.55" stop-color="#9dadb3"/><stop offset="0.7" stop-color="#b5c1c6"/><stop offset="0.84" stop-color="#d3dbdd"/><stop offset="0.98" stop-color="#f8f9fa"/><stop offset="1" stop-color="#fff"/></radialGradient></defs><ellipse class="cls-1" cx="254.11" cy="346.6" rx="77.25" ry="29.75"/><path class="cls-2" d="M322.42,344.07c0,13-30.9,23.5-69,23.5s-69-10.52-69-23.5L166.09,157.52H342.77Z"/><path class="cls-3" d="M178.78,157.52H166.09l18.27,186.55c0,4.69,4,9.05,11,12.72Z"/><path class="cls-3" d="M210,362.35a141.54,141.54,0,0,0,20.26,3.87l-7.19-208.7h-26Z"/><path class="cls-3" d="M253.39,367.57c3.76,0,7.44-.11,11-.3l3-209.75h-26l3,209.85C247.37,367.49,250.35,367.57,253.39,367.57Z"/><path class="cls-4" d="M278.57,366a132.84,132.84,0,0,0,20.29-4.21l12.88-204.22h-26Z"/><path class="cls-3" d="M330.08,157.52l-16.49,198c5.61-3.4,8.83-7.32,8.83-11.49l20.35-186.55Z"/><path class="cls-5" d="M166.6,162.84A66.28,66.28,0,0,0,180,172.06c6.91,3.59,14.29,5.86,28.79,7.77a255.68,255.68,0,0,0,34.4,2.18c29.1-.16,46.52-.25,68.18-7a153.17,153.17,0,0,0,30.9-13.59Q341.12,172.22,340,183a259.88,259.88,0,0,1-51,12.68c-49.22,7-86.59-2.25-96-4.74a225,225,0,0,1-25-8.26Z"/><path class="cls-6" d="M347.12,155.2c0,15.62-41.5,28.29-92.69,28.29s-92.7-12.67-92.7-28.29,41.5-28.29,92.7-28.29S347.12,139.58,347.12,155.2Z"/><path class="cls-7" d="M254.43,178.85c-48.64,0-88.51-11.43-92.38-26a8.77,8.77,0,0,0-.32,2.32c0,15.62,41.5,28.29,92.7,28.29s92.69-12.67,92.69-28.29a9.19,9.19,0,0,0-.31-2.32C342.94,167.42,303.06,178.85,254.43,178.85Z"/><path class="cls-8" d="M341.46,152.59c0,13-39,23.5-87,23.5s-87-10.52-87-23.5,39-23.5,87-23.5S341.46,139.61,341.46,152.59Z"/><path class="cls-9" d="M275.68,99.44l-16.83,2.47s-5.7-5.45-10.87-5.23-18.14,5.16-22.09,4.43-14.4-.86-16.14,2.69-3.3,16.24-7.32,15.64-9.87,4.31-13.28,6.4S179,128,176.88,135.56s.1,12.3.16,14.44-1,3.61-1.4,6.81-1.27,9.9,8.15,9,24.92-5.5,26-5.42,12.77.72,14.63,2.84S236,173.91,238,174.57s9.43,2.5,20.77-.3,28.15-1.36,28.15-1.36,16.22,1.17,23.5-3.19S328,143.84,328,143.84s8.82-3.35,4.19-10.64-2.75-15-12.25-18.53S293.55,95.46,275.68,99.44Z"/><path class="cls-9" d="M177.43,131.78s3,4.71,6.11,2.82,6.38-3.79,7-1.18-1.39,4.9,0,5.66.61.51,2,1.79,7.44.88,5.06,5.53S181,145.19,181,145.19l-5.35-10.59Z"/><path class="cls-10" d="M176.88,137.05l4.11,8.14s14.26,5.86,16.64,1.21-3.65-4.26-5.06-5.53c-.2-.18-.35-.33-.47-.45a4.13,4.13,0,0,1-1.55,1.72c-2,1.27-2.18,0-3.64-1s.44-3.56-1.59-6.52a2.38,2.38,0,0,0-.69-.66l-1.09.66a3,3,0,0,1-2.82.17,13.71,13.71,0,0,0-2,1.7Z"/><path class="cls-11" d="M175.73,128.9s2.29-4.08,3.82-2.55.51,3.22,1.28,3.9,2.29,2.37,2,3.18-3.56,2.09-2.29,3.62,4.33-1,5.35,1.52-.77,5.81,1.27,6,8.66.78,10.44,1.87,2.72,2.61,4.29,1.59,2.84-4.12,4.37-3.46,3.63.53,3,1.87-4.49,2.1-4,3.89,1.27,1,2.54,2.8,5.1,0,5.61,2-1.79,3.06-2.55,5.35.51,3.06.25,5.09.59,3.82-1.87,5.35.09,4.84-5.25,5.86-10.44-7.13-13.5-7.64-8.66,2-9.93-1.28,2-7.89-.25-8.14-2.8,1.27-4.59-1.53c0,0-9.42-1.78-6.36-9.17,0,0-3.51-3.64-.61-7.29s1.88-4.16,2.13-6.71S172.93,128.64,175.73,128.9Z"/><path class="cls-12" d="M209.25,170.91c2.46-1.53,1.62-3.31,1.87-5.35s-1-2.8-.25-5.09,3-3.31,2.55-5.35c-.29-1.13-1.59-1.08-2.91-1.12-5.86.4-1.51,1.63-1.77,2.4s-1.78,2.8-2.58,4.83-2.25,2-4,3.57-4.08,1-5.86,0,.25-2.55.51-4.57,2-1.8,5.85-3.58a5.1,5.1,0,0,0,3.27-5.22h0a2.24,2.24,0,0,1-.63-1.14c-.51-1.79,3.31-2.55,4-3.89s-1.44-1.21-3-1.87-2.8,2.45-4.37,3.46c-1.1.72-1.89.18-2.87-.58,0,0-2,1.86-3,2.62s0,3.31,0,5.09-4.33,5.35-7.13,5.1-.25-2.3-2-4.59-4.14,1.79-6.17,1.28-.51-2.8.76-5.48,2.8-5.47,0-7-4.07,2.8-5.86,3.76-2.54-3.25-3.56-4.78.76-3.31,3.56-5.09,0-3.72,1.24-7.13a9.72,9.72,0,0,1,3.17-4.2,3.49,3.49,0,0,0-.5-.64c-1.53-1.53-3.82,2.55-3.82,2.55-2.8-.26-4.58,3.56-4.84,6.11s.77,3.05-2.13,6.71.61,7.29.61,7.29c-3.06,7.39,6.36,9.17,6.36,9.17,1.79,2.8,2.29,1.27,4.59,1.53s-1,4.84.25,8.14,6.88.77,9.93,1.28,8.15,8.65,13.5,7.64S206.8,172.44,209.25,170.91Z"/><path class="cls-13" d="M211.34,159.45a4.8,4.8,0,0,0-2.6,2.29c-1,2-.76,3.31-2.58,6.37s-4,1.27-8,1.88-2.68-1.63-3.69-3.15-2-3.57-3.94-3.31-.9,3.56-3.82,5.79h0a13.83,13.83,0,0,1,3.77-.19c3.06.51,8.15,8.65,13.5,7.64s2.8-4.33,5.25-5.86,1.62-3.31,1.87-5.35-1-2.8-.25-5.09A5.59,5.59,0,0,1,211.34,159.45Z"/><path class="cls-13" d="M180.32,159.71c2.29.25-1,4.84.25,8.14.59,1.54,2.11,1.81,3.86,1.72-.63-.83-.64-2.68-.64-3.75,0-1.78,1.78-5.09,1.28-7.13s-4.33-1.78-4.33-1.78a27.3,27.3,0,0,1-5.1-.77c-1.27-.51-2.8-2.29-4.07-4.71a4,4,0,0,0-2.42-1.83c-2.33,6.89,6.58,8.58,6.58,8.58C177.52,161,178,159.45,180.32,159.71Z"/><path class="cls-9" d="M282.89,88.37s4.61,3.19,6.72.29,4.47-5.94,6-3.76.57,5.06,2.15,5.24.76.24,2.54.89,7.23-2,6.79,3.19-15.85,5.2-15.85,5.2l-9-7.76Z"/><path class="cls-10" d="M284.38,93.45l6.9,6s15.41,0,15.85-5.2-5-2.55-6.79-3.19c-.25-.09-.44-.17-.6-.24A4,4,0,0,1,299,93c-1.38,1.94-2,.83-3.75.44s-.94-3.47-3.95-5.43a2.43,2.43,0,0,0-.89-.35l-.76,1a2.93,2.93,0,0,1-2.54,1.22,13.43,13.43,0,0,0-1.22,2.34Z"/><path class="cls-11" d="M280.23,86.34s.57-4.64,2.56-3.8,1.7,2.78,2.66,3.12,3,1.32,3.09,2.17-2.5,3.29-.74,4.22,3.61-2.59,5.52-.62,1.5,5.66,3.44,5,8.31-2.56,10.37-2.24,3.51,1.39,4.57-.15,1.07-4.89,2.73-4.86,3.56-.89,3.45.6-3.36,3.66-2.21,5.11,1.57.46,3.42,1.63,4.71-1.94,6-.24-.49,3.5-.33,5.91,1.63,2.63,2.17,4.61,2,3.32.29,5.66,1.92,4.44-2.64,7.41-12.36-2.63-15.38-1.94-7.24,5.17-9.67,2.59-1.11-8.08-3.33-7.44-2.11,2.24-4.82.32c0,0-9.39,1.93-9.37-6.06,0,0-4.63-2-3.33-6.52s.16-4.56-.57-7S277.54,87.17,280.23,86.34Z"/><path class="cls-12" d="M327.18,112.49c1.69-2.34.25-3.67-.29-5.66s-2-2.2-2.17-4.61,1.57-4.22.33-5.91c-.69-.94-1.88-.41-3.12.06-5.27,2.6-.78,2.08-.72,2.89s-.59,3.26-.56,5.45-1.31,2.74-2.38,4.83-3.38,2.49-5.42,2.22-.73-2.45-1.26-4.42,1.2-2.43,4.06-5.53a5.09,5.09,0,0,0,1-6.07h0a2.21,2.21,0,0,1-1-.82c-1.15-1.45,2.1-3.61,2.21-5.11s-1.79-.57-3.45-.6-1.66,3.33-2.73,4.86c-.75,1.08-1.68.88-2.88.56,0,0-1.16,2.48-1.81,3.57s1.26,3.06,1.94,4.71-2,6.59-4.67,7.42-1.1-2-3.56-3.49-3.16,3.22-5.23,3.52S294,108,294.12,105s.51-6.13-2.66-6.48-2.71,4.14-4,5.71-3.59-2-5.11-3.07-.55-3.35,1.36-6.07-1.41-3.43-1.56-7.06a9.78,9.78,0,0,1,1.34-5.09,3,3,0,0,0-.71-.4c-2-.84-2.56,3.8-2.56,3.8-2.69.83-2.89,5-2.16,7.49s1.87,2.54.57,7,3.33,6.52,3.33,6.52c0,8,9.37,6.06,9.37,6.06,2.71,1.92,2.6.31,4.82-.32s.89,4.86,3.33,7.44,6.65-1.9,9.67-2.59,10.82,4.92,15.38,1.94S325.49,114.84,327.18,112.49Z"/><path class="cls-13" d="M324.77,101.1a4.71,4.71,0,0,0-1.53,3.1c-.17,2.27.55,3.36,0,6.87s-3.25,2.71-6.67,4.77-3.09-.49-4.61-1.51-3.24-2.53-4.9-1.57.52,3.64-1.34,6.81h0a14.05,14.05,0,0,1,3.42-1.61c3-.69,10.82,4.92,15.38,1.94s.95-5.06,2.64-7.41.25-3.67-.29-5.66-2-2.2-2.17-4.61A5.17,5.17,0,0,1,324.77,101.1Z"/><path class="cls-13" d="M296.16,113.11c2.22-.64.89,4.86,3.33,7.44,1.13,1.19,2.63.87,4.22.12-.9-.52-1.61-2.24-2-3.23-.68-1.65-.29-5.39-1.53-7.08s-4.68,0-4.68,0a27,27,0,0,1-5,1.22c-1.37,0-3.46-1-5.55-2.81A3.92,3.92,0,0,0,282,108c.47,7.25,9.35,5.43,9.35,5.43C294.05,115.35,293.94,113.74,296.16,113.11Z"/><path class="cls-9" d="M300.51,159.89s5.27-1.94,4.1-5.33-2.28-7.07.4-7.1,4.47,2.44,5.52,1.25.64-.48,2.19-1.57,2.51-7.07,6.52-3.72-4.86,16-4.86,16l-11.51,2.87Z"/><path class="cls-10" d="M305.52,161.59l8.86-2.2s8.87-12.61,4.86-16-5,2.62-6.52,3.72l-.54.36a4,4,0,0,1,1.34,1.89c.79,2.25-.48,2.12-1.8,3.32s-3.38-1.22-6.71.11a2.14,2.14,0,0,0-.8.52c.13.41.27.81.4,1.22a2.91,2.91,0,0,1-.46,2.78,14.83,14.83,0,0,0,1.21,2.35Z"/><path class="cls-11" d="M297.32,160.91s-3.46-3.14-1.63-4.29,3.24.21,4.08-.38,2.81-1.71,3.55-1.28,1.25,3.93,3,3,0-4.45,2.67-4.88,5.5,2,6.1.08,2.67-8.27,4.13-9.77,3.15-2.07,2.5-3.82-3.39-3.69-2.41-5,1.32-3.43,2.48-2.48,1.06,4.85,2.91,4.75,1.27-1,3.29-1.87,1.13-5,3.23-5,2.58,2.41,4.65,3.67,3.09.18,5,.88,3.86.28,4.8,3,4.74,1,4.55,6.43-9.26,8.6-10.43,11.47.07,8.89-3.44,9.4-7.25-3.73-8-1.56.62,3-2.5,4.14c0,0-3.82,8.79-10.35,4.17,0,0-4.33,2.62-7.25-1s-3.64-2.76-6.07-3.57S296.46,163.58,297.32,160.91Z"/><path class="cls-12" d="M345.71,137.51c-.94-2.72-2.87-2.31-4.8-3s-3,.37-5-.88-2.55-3.72-4.65-3.67c-1.16,0-1.41,1.3-1.74,2.58-.91,5.81,1.26,1.84,1.95,2.26s2.33,2.36,4.14,3.59,1.49,2.65,2.59,4.72.09,4.2-1.3,5.71-2.43-.81-4.34-1.5-1.3-2.39-2.2-6.51a5.09,5.09,0,0,0-4.36-4.34h0a2.21,2.21,0,0,1-1.26.37c-1.85.1-1.75-3.8-2.91-4.75s-1.49,1.14-2.48,2.48,1.77,3.27,2.41,5c.45,1.23-.24,1.88-1.2,2.67,0,0,1.36,2.37,1.88,3.53s3.23.74,5,1.13,4.25,5.41,3.39,8.08-2.29-.26-4.91.91.82,4.43-.13,6.3-2.84-.12-5.16-1.95-4.72-3.94-6.83-1.55,1.83,4.59,2.37,6.54-3.74,1.77-5.45,2.42-3.06-1.48-4.18-4.6-3.62-.82-6.68-2.78a9.88,9.88,0,0,1-3.39-4,2.8,2.8,0,0,0-.73.34c-1.83,1.15,1.63,4.29,1.63,4.29-.86,2.67,2.47,5.26,4.89,6.07s3.15-.07,6.07,3.57,7.25,1,7.25,1c6.53,4.62,10.35-4.17,10.35-4.17,3.12-1.12,1.75-2,2.5-4.14s4.5,2.07,8,1.56,2.26-6.53,3.44-9.4,10.24-6,10.43-11.47S346.66,140.25,345.71,137.51Z"/><path class="cls-13" d="M335,132.94a4.77,4.77,0,0,0,1.66,3c1.76,1.45,3.06,1.48,5.64,3.93s.34,4.22.07,8.2-2.18,2.25-3.9,2.9-3.93,1.2-4.1,3.11,3.28,1.67,4.81,5h0a13.79,13.79,0,0,1,.65-3.72c1.17-2.87,10.24-6,10.43-11.47s-3.6-3.69-4.55-6.43-2.87-2.31-4.8-3-3,.37-5-.88A6.19,6.19,0,0,1,335,132.94Z"/><path class="cls-13" d="M328.38,163.25c.76-2.17,4.5,2.07,8,1.56,1.62-.24,2.23-1.65,2.52-3.39-.94.44-2.75,0-3.8-.2-1.74-.4-4.57-2.87-6.67-2.82s-2.7,3.82-2.7,3.82a27,27,0,0,1-1.87,4.8c-.77,1.13-2.85,2.23-5.49,2.93a4,4,0,0,0-2.32,2c6.2,3.79,9.82-4.52,9.82-4.52C329,166.27,327.63,165.43,328.38,163.25Z"/><path class="cls-11" d="M192.2,137.73a3.46,3.46,0,0,1,3.05,1.39c1.53,1.69,3.06,2.9,5.77.77s3.23-3.45,3.06-5.85,2.6-3.92,0-5.11-4.67.34-5.41-1.19-1.75-8-3.79-8.65-2.21.51-4.24,1.53-4.92,2.2-4.76,4.41c0,0-5.77-.68-6.11,3.56s2.89,3.06,3.74,4.59,1.87,3.84,3.05,4.55c0,0,1.87,1.33,2.55,0C189.14,137.73,191.35,139.4,192.2,137.73Z"/><path class="cls-12" d="M204.08,134c-.17-2.39,2.6-3.92,0-5.11a5.83,5.83,0,0,0-.73-.26c-.26,1-1.52,1.83-2.7,2.3-1.69.68.17,2,0,3.26s-3.22.64-3.9-.19-.34-5.28-1.36-5.91-.68,1.31-1.36,1.83a3.83,3.83,0,0,1-3.22.84c-1.36-.34-2.89,2.71-3.91,2s.17-3.74-1.18-4.93-2.38.85-3.91,0c-.69-.38-.65-1.22-.37-2.09a3.4,3.4,0,0,0-1.67,2.77c-.34,4.25,2.89,3.06,3.74,4.59s1.87,3.84,3.05,4.55c0,0,1.87,1.33,2.55,0,0,0,2.21,1.67,3.06,0a3.46,3.46,0,0,1,3.05,1.39c1.53,1.69,3.06,2.9,5.77.77S204.25,136.44,204.08,134Z"/><path class="cls-11" d="M197.83,117.45a3.49,3.49,0,0,1,2.55-2.18c2.18-.67,3.92-1.54,3.14-4.91s-1.77-4.38-4-5.23-2.45-4-4.62-2.19-1.66,4.38-3.36,4.4-8-1.78-9.45-.22-.46,2.22-.4,4.5-.08,5.39,2,6.17c0,0-3.06,4.94.65,7s4-1.32,5.73-1.45,4.27-.07,5.42-.85c0,0,2-1.13,1.07-2.31C196.54,120.22,199,118.93,197.83,117.45Z"/><path class="cls-12" d="M199.5,105.13c-2.24-.86-2.45-4-4.62-2.19a5.58,5.58,0,0,0-.54.55c.75.64,1,2.15.94,3.42-.1,1.82,1.92.7,3,1.37s-.78,3.2-1.82,3.46-4.93-1.92-5.93-1.26.9,1.17,1.08,2a3.83,3.83,0,0,1-.59,3.28c-.89,1.09,1.24,3.76.19,4.4s-3.31-1.73-5-1-.23,2.51-1.65,3.54c-.64.46-1.38.07-2.05-.55a3.38,3.38,0,0,0,1.81,2.68c3.7,2.1,4-1.32,5.73-1.45s4.27-.07,5.42-.85c0,0,2-1.13,1.07-2.31,0,0,2.45-1.29,1.29-2.77a3.49,3.49,0,0,1,2.55-2.18c2.18-.67,3.92-1.54,3.14-4.91S201.75,106,199.5,105.13Z"/><path class="cls-11" d="M170.88,122.55a3.49,3.49,0,0,1-.15,3.35c-1,2-1.56,3.92,1.43,5.65s4.4,1.7,6.56.65,4.61,1,4.76-1.87-2.06-4.21-.91-5.46,6.75-4.6,6.62-6.75-1.3-1.85-3-3.36-3.88-3.75-5.87-2.77c0,0-1.51-5.61-5.58-4.34s-1.76,3.81-2.86,5.17-2.87,3.16-3.09,4.53c0,0-.54,2.23,1,2.36C169.74,119.71,169,122.38,170.88,122.55Z"/><path class="cls-12" d="M178.72,132.2c2.16-1,4.61,1,4.76-1.87a4.94,4.94,0,0,0,0-.78c-1,.12-2.26-.72-3.14-1.64-1.26-1.32-1.83.91-3,1.21s-1.8-2.75-1.29-3.69,4.78-2.28,5-3.46-1.46-.15-2.2-.58a3.88,3.88,0,0,1-2-2.68c-.19-1.39-3.59-1.67-3.34-2.87s3.53-1.23,4.12-2.93-1.67-1.89-1.45-3.63c.1-.78.89-1.06,1.8-1.12a3.36,3.36,0,0,0-3.19-.51c-4.07,1.26-1.76,3.81-2.86,5.17s-2.87,3.16-3.09,4.53c0,0-.54,2.23,1,2.36,0,0-.73,2.67,1.14,2.84a3.49,3.49,0,0,1-.15,3.35c-1,2-1.56,3.92,1.43,5.65S176.56,133.25,178.72,132.2Z"/><path class="cls-11" d="M245.55,89.75a3.48,3.48,0,0,1,3.14-1.19c2.28.11,4.22-.12,4.62-3.55s-.18-4.72-2-6.29-.95-4.61-3.61-3.62-3.05,3.55-4.65,3-6.89-4.38-8.81-3.41-1.2,1.92-1.91,4.09-1.91,5-.22,6.48c0,0-4.55,3.61-1.78,6.84s4.2.11,5.88.59,4,1.38,5.38,1c0,0,2.26-.39,1.8-1.81C243.4,91.91,246.14,91.52,245.55,89.75Z"/><path class="cls-12" d="M251.32,78.72c-1.82-1.56-.95-4.61-3.61-3.62a6.44,6.44,0,0,0-.7.32c.49.86.23,2.37-.27,3.54-.71,1.69,1.57,1.32,2.31,2.3s-1.81,2.74-2.88,2.64-4-3.48-5.15-3.21.45,1.41.34,2.26a3.87,3.87,0,0,1-1.68,2.88c-1.2.72-.11,4-1.31,4.2s-2.52-2.75-4.33-2.63-1.07,2.29-2.75,2.77c-.76.22-1.32-.4-1.74-1.21a3.37,3.37,0,0,0,.79,3.13c2.77,3.24,4.2.11,5.88.59s4,1.38,5.38,1c0,0,2.26-.39,1.8-1.81,0,0,2.74-.39,2.15-2.16a3.48,3.48,0,0,1,3.14-1.19c2.28.11,4.22-.12,4.62-3.55S253.13,80.29,251.32,78.72Z"/><path class="cls-11" d="M214.76,77.28a2.24,2.24,0,0,1,1.63-1.4c1.4-.43,2.52-1,2-3.15s-1.14-2.8-2.58-3.35-1.57-2.57-3-1.4-1.06,2.8-2.15,2.82-5.11-1.14-6.05-.14-.3,1.42-.26,2.88,0,3.45,1.28,3.95c0,0-2,3.17.42,4.51s2.55-.85,3.67-.93,2.74,0,3.47-.54c0,0,1.27-.73.69-1.48C213.94,79.05,215.5,78.22,214.76,77.28Z"/><path class="cls-12" d="M215.83,69.38c-1.43-.55-1.57-2.57-3-1.4a3.85,3.85,0,0,0-.35.35,2.89,2.89,0,0,1,.61,2.19c-.06,1.17,1.23.45,1.89.88s-.49,2-1.16,2.22-3.16-1.23-3.8-.81.58.75.69,1.28a2.44,2.44,0,0,1-.38,2.1c-.56.7.8,2.41.13,2.82s-2.12-1.11-3.18-.64-.15,1.61-1.06,2.27c-.41.3-.88,0-1.31-.36A2.15,2.15,0,0,0,206.11,82c2.37,1.35,2.55-.85,3.67-.93s2.74,0,3.47-.54c0,0,1.27-.73.69-1.48,0,0,1.56-.83.82-1.77a2.24,2.24,0,0,1,1.63-1.4c1.4-.43,2.52-1,2-3.15S217.27,69.93,215.83,69.38Z"/><path class="cls-11" d="M214.61,130a3.46,3.46,0,0,1,2.73,2c1.17,2,2.43,3.44,5.51,1.88s3.83-2.76,4.13-5.15,3.32-3.34,1-5-4.64-.58-5.06-2.22-.17-8.17-2-9.23-2.26.07-4.46.67-5.26,1.21-5.52,3.41c0,0-5.53-1.79-6.69,2.31s2.24,3.55,2.77,5.22,1.09,4.13,2.12,5.06c0,0,1.57,1.66,2.49.49C211.61,129.39,213.45,131.46,214.61,130Z"/><path class="cls-12" d="M227,128.68c.3-2.38,3.32-3.34,1-5a5.82,5.82,0,0,0-.65-.41c-.45.89-1.85,1.51-3.1,1.74-1.8.33-.23,2-.63,3.19s-3.29,0-3.8-.94.7-5.24-.18-6.06-.92,1.15-1.69,1.53a3.85,3.85,0,0,1-3.32.2c-1.27-.6-3.36,2.1-4.23,1.24s.89-3.63-.21-5.06-2.49.37-3.83-.76c-.6-.52-.4-1.33,0-2.13a3.41,3.41,0,0,0-2.18,2.4c-1.16,4.09,2.24,3.55,2.77,5.22s1.09,4.13,2.12,5.06c0,0,1.57,1.66,2.49.49,0,0,1.84,2.07,3,.6a3.46,3.46,0,0,1,2.73,2c1.17,2,2.43,3.44,5.51,1.88S226.68,131.07,227,128.68Z"/><path class="cls-11" d="M232.49,164.61s-1-1.53,1-3.05,4.24-1.7,3.06-4.76-3.23-3.39-6.28-2.2c0,0-4.76-2.46-9.34-.64s-7.47,2.67-8.66,2.33-4.21,1.07-5.58,2.66c0,0,.66-6-2.22-7.07a29.89,29.89,0,0,1-6-2.62c-.84-.6-4.07-.6-3.39,2.62s1.36,4.07,1.36,7,.51,7.3,3.22,8,6.49.68,7,1.7-2.19,3,0,4.75,7.95.17,9.65,1.36,3.4,4.24,7.14,2.2,3.73-5.26,6.79-5.77,3.85-.85,4.81-2.88S234.36,164.61,232.49,164.61Z"/><path class="cls-12" d="M235.1,168.18c1-2-.74-3.57-2.61-3.57,0,0-1-1.53,1-3.05s4.24-1.7,3.06-4.76a4.45,4.45,0,0,0-1.89-2.45c.56.25-1.51,3-2.85,4.49s-3.07,1.53-4.09,4.39,2.38,1.21,3.73,3.59-1.52,1.19-3.39,1.87-2.72,3.39-3.73,3.22,0-2.38.17-3.73a23.39,23.39,0,0,1,1.21-6.29c1.05-2.88,1.16-3.73,0-6.11s-3.25-1-4.95-.33,0,2.54,1.4,4.58-.89,6.45-2.25,7.13-1.86,2-4,2.54-2.5-1.52-3.18-2.2,1-2,0-3.57-2,1-3.05.78.17-1.29-1.53-2.65-4.41,2-5.1,2.55-3.22-1.19-3.73-2.2-.34-5.61-1.18-7.13,1.35-3.57,3.56-3.4.17,7.3,3,8.15c1.21.35,2-.54,2.51-1.7a6,6,0,0,0-.62.62s.66-6-2.22-7.07a29.89,29.89,0,0,1-6-2.62c-.84-.6-4.07-.6-3.39,2.62s1.36,4.07,1.36,7,.51,7.3,3.22,8,6.49.68,7,1.7-2.19,3,0,4.75,7.95.17,9.65,1.36,3.4,4.24,7.14,2.2,3.73-5.26,6.79-5.77S234.14,170.21,235.1,168.18Z"/><path class="cls-11" d="M241.87,136.53s1.59-.91,3,1.22,1.4,4.36,4.53,3.38,3.61-3,2.64-6.11c0,0,2.78-4.57,1.28-9.27s-2.14-7.63-1.72-8.8-.77-4.27-2.26-5.75c0,0,6,1.08,7.21-1.73a30.5,30.5,0,0,1,3-5.74c.67-.81.89-4-2.37-3.57s-4.16,1.07-7,.87-7.32,0-8.18,2.66-1.13,6.42-2.18,6.84-2.9-2.39-4.75-.33-.72,7.92-2,9.53-4.47,3.1-2.7,7,5,4.09,5.28,7.17.58,3.91,2.55,5S241.74,138.39,241.87,136.53Z"/><path class="cls-12" d="M238.13,138.88c2,1.1,3.61-.49,3.74-2.35,0,0,1.59-.91,3,1.22s1.4,4.36,4.53,3.38a4.46,4.46,0,0,0,2.58-1.7c-.29.53-2.85-1.72-4.28-3.17s-1.31-3.16-4.1-4.38-1.37,2.29-3.83,3.47-1.09-1.6-1.63-3.51-3.2-3-3-4,2.37.16,3.71.43a22.78,22.78,0,0,1,6.19,1.65c2.8,1.24,3.64,1.42,6.09.43s1.24-3.18.69-4.92-2.55-.18-4.68,1.07-6.37-1.33-7-2.73-1.9-2-2.26-4.12,1.69-2.39,2.42-3,2,1.16,3.55.25-.87-2.1-.55-3.1,1.26.26,2.74-1.34-1.73-4.55-2.19-5.27,1.41-3.12,2.46-3.56,5.61,0,7.2-.69,3.46,1.6,3.14,3.79-7.3-.34-8.34,2.48c-.44,1.18.39,2,1.51,2.62a5.31,5.31,0,0,0-.57-.66s6,1.08,7.21-1.73a30.5,30.5,0,0,1,3-5.74c.67-.81.89-4-2.37-3.57s-4.16,1.07-7,.87-7.32,0-8.18,2.66-1.13,6.42-2.18,6.84-2.9-2.39-4.75-.33-.72,7.92-2,9.53-4.47,3.1-2.7,7,5,4.09,5.28,7.17S236.16,137.78,238.13,138.88Z"/><path class="cls-11" d="M279.21,134.53s-.18-1.82,2.34-2.21,4.54.5,4.93-2.75-1.24-4.52-4.49-4.91c0,0-3-4.41-7.94-5s-7.84-1.17-8.73-2-4.22-1-6.18-.29c0,0,3.44-5,1.38-7.28a30.4,30.4,0,0,1-4-5.12c-.46-.93-3.3-2.45-4.23.71s-.72,4.23-2.08,6.78-3,6.67-.92,8.55,5.4,3.66,5.35,4.79-3.37,1.66-2.24,4.19,6.93,3.9,7.87,5.75,1,5.35,5.25,5.32,5.78-2.88,8.71-1.89,3.8,1.07,5.61-.27S280.86,135.41,279.21,134.53Z"/><path class="cls-12" d="M279.83,138.91c1.8-1.35,1-3.5-.62-4.38,0,0-.18-1.82,2.34-2.21s4.54.5,4.93-2.75a4.47,4.47,0,0,0-.5-3c.37.47-2.73,1.9-4.64,2.61s-3.42-.1-5.67,2,1.52,2.18,1.6,4.92-1.91.32-3.88,0-4,1.72-4.81,1.08,1.12-2.09,1.91-3.21a23.15,23.15,0,0,1,4-5c2.28-2,2.78-2.75,2.88-5.39s-2.39-2.43-4.21-2.63-1.2,2.24-.93,4.69-3.82,5.27-5.34,5.23-2.61.92-4.69.38-1.48-2.52-1.76-3.44,1.86-1.32,1.69-3.14-2.28-.07-3.06-.76.75-1.06-.1-3-4.86-.29-5.7-.16-2.28-2.57-2.25-3.71,2.34-5.1,2.32-6.84,2.88-2.51,4.74-1.32-3.29,6.52-1.15,8.63c.9.88,2,.47,3-.31a6.38,6.38,0,0,0-.84.25s3.44-5,1.38-7.28a30.4,30.4,0,0,1-4-5.12c-.46-.93-3.3-2.45-4.23.71s-.72,4.23-2.08,6.78-3,6.67-.92,8.55,5.4,3.66,5.35,4.79-3.37,1.66-2.24,4.19,6.93,3.9,7.87,5.75,1,5.35,5.25,5.32,5.78-2.88,8.71-1.89S278,140.25,279.83,138.91Z"/><path class="cls-11" d="M269.05,88.1s-1.51-1-.19-3.22,3.3-3.15,1.06-5.54-4.26-2-6.65.29c0,0-5.33-.51-8.9,2.89s-5.93,5.26-7.16,5.39-3.51,2.56-4.19,4.55c0,0-1.65-5.86-4.7-5.73a29.65,29.65,0,0,1-6.49-.22c-1-.25-4,1-2.18,3.7s2.78,3.27,3.86,6,3.19,6.58,6,6.2,6.28-1.79,7.11-1-.89,3.65,1.77,4.41,7.44-2.8,9.47-2.33,4.74,2.67,7.44-.62,1.5-6.27,4.15-7.88,3.26-2.23,3.39-4.48S270.79,87.4,269.05,88.1Z"/><path class="cls-12" d="M272.8,90.43c.13-2.24-2-3-3.75-2.33,0,0-1.51-1-.19-3.22s3.3-3.15,1.06-5.54a4.44,4.44,0,0,0-2.66-1.58c.6,0-.3,3.31-1,5.23s-2.27,2.56-2.15,5.6,2.65.24,4.8,1.94-1,1.67-2.45,3-1.26,4.17-2.27,4.39-.88-2.21-1.23-3.53a22.86,22.86,0,0,1-1.21-6.28c-.11-3.07-.32-3.9-2.28-5.67s-3.4.27-4.72,1.53.95,2.36,3,3.73,1.58,6.32.57,7.45-1,2.59-2.71,3.84-2.89-.49-3.77-.86.18-2.27-1.33-3.31S249,96.51,248,96.66s-.32-1.25-2.4-1.88-3.34,3.54-3.78,4.27-3.43.1-4.29-.66-2.4-5.07-3.76-6.17-.07-3.82,2.05-4.48,2.88,6.71,5.87,6.42c1.25-.12,1.65-1.24,1.69-2.5a7.66,7.66,0,0,0-.34.8s-1.65-5.86-4.7-5.73a29.65,29.65,0,0,1-6.49-.22c-1-.25-4,1-2.18,3.7s2.78,3.27,3.86,6,3.19,6.58,6,6.2,6.28-1.79,7.11-1-.89,3.65,1.77,4.41,7.44-2.8,9.47-2.33,4.74,2.67,7.44-.62,1.5-6.27,4.15-7.88S272.67,92.68,272.8,90.43Z"/><path class="cls-11" d="M222.27,88.11s-1.51-1-.19-3.21,3.3-3.16,1.06-5.55-4.26-1.95-6.65.29c0,0-5.33-.51-8.9,2.89s-5.93,5.27-7.16,5.4-3.51,2.55-4.19,4.54c0,0-1.65-5.86-4.7-5.73a29.65,29.65,0,0,1-6.49-.22c-1-.24-4,1-2.18,3.7s2.78,3.27,3.86,6,3.19,6.59,6,6.2,6.28-1.78,7.11-1-.89,3.65,1.77,4.41S209,103,211,103.42s4.73,2.67,7.44-.61,1.5-6.28,4.15-7.89,3.26-2.22,3.39-4.47S224,87.42,222.27,88.11Z"/><path class="cls-12" d="M226,90.45c.13-2.25-2-3-3.75-2.34,0,0-1.51-1-.19-3.21s3.3-3.16,1.06-5.55a4.49,4.49,0,0,0-2.66-1.58c.6,0-.3,3.32-1,5.24s-2.28,2.56-2.15,5.6,2.65.23,4.8,1.93-1,1.67-2.45,3-1.26,4.16-2.27,4.38-.88-2.2-1.23-3.52A23,23,0,0,1,215,88.11c-.11-3.06-.32-3.9-2.28-5.67s-3.4.27-4.72,1.53.95,2.37,3,3.74,1.58,6.31.57,7.45-1,2.59-2.71,3.84-2.89-.49-3.77-.87.18-2.27-1.33-3.31-1.51,1.71-2.55,1.86-.32-1.25-2.4-1.88-3.34,3.53-3.78,4.26-3.43.1-4.29-.66-2.4-5.07-3.76-6.17-.07-3.81,2.05-4.48,2.87,6.71,5.87,6.42c1.25-.12,1.65-1.24,1.69-2.5a7.66,7.66,0,0,0-.34.8s-1.65-5.86-4.7-5.73a29.65,29.65,0,0,1-6.49-.22c-1-.24-4,1-2.18,3.7s2.78,3.27,3.86,6,3.19,6.59,6,6.2,6.28-1.78,7.11-1-.89,3.65,1.77,4.41S209,103,211,103.42s4.73,2.67,7.44-.61,1.5-6.28,4.15-7.89S225.89,92.7,226,90.45Z"/><path class="cls-11" d="M316.8,141.62s-1.09-1.63,1.08-3.26,4.52-1.8,3.25-5.06-3.43-3.61-6.68-2.34c0,0-5.06-2.62-9.94-.68s-7.94,2.84-9.21,2.48-4.48,1.14-5.94,2.83c0,0,.7-6.44-2.37-7.52a32.44,32.44,0,0,1-6.32-2.79c-.9-.65-4.34-.65-3.61,2.79s1.44,4.33,1.44,7.4.54,7.77,3.43,8.49,6.9.73,7.43,1.81-2.33,3.25,0,5.06,8.46.18,10.27,1.44,3.62,4.52,7.59,2.35,4-5.6,7.23-6.14,4.11-.9,5.12-3.07S318.79,141.62,316.8,141.62Z"/><path class="cls-12" d="M319.57,145.41c1-2.17-.78-3.79-2.77-3.79,0,0-1.09-1.63,1.08-3.26s4.52-1.8,3.25-5.06a4.71,4.71,0,0,0-2-2.6c.58.26-1.61,3.15-3,4.77s-3.27,1.63-4.35,4.68,2.53,1.29,4,3.81-1.62,1.27-3.61,2-2.89,3.61-4,3.43,0-2.53.18-4a24.62,24.62,0,0,1,1.29-6.68c1.12-3.08,1.24-4,0-6.51s-3.46-1.08-5.27-.36,0,2.71,1.49,4.88-.94,6.86-2.39,7.58-2,2.17-4.21,2.71-2.65-1.62-3.38-2.34,1.09-2.17,0-3.8-2.17,1.09-3.25.83.18-1.37-1.63-2.81-4.69,2.16-5.42,2.71-3.43-1.27-4-2.35-.36-6-1.26-7.59,1.44-3.79,3.79-3.61.18,7.77,3.25,8.67c1.28.38,2.13-.57,2.67-1.8a6.78,6.78,0,0,0-.66.65s.7-6.44-2.37-7.52a32.44,32.44,0,0,1-6.32-2.79c-.9-.65-4.34-.65-3.61,2.79s1.44,4.33,1.44,7.4.54,7.77,3.43,8.49,6.9.73,7.43,1.81-2.33,3.25,0,5.06,8.46.18,10.27,1.44,3.62,4.52,7.59,2.35,4-5.6,7.23-6.14S318.56,147.58,319.57,145.41Z"/><path class="cls-11" d="M266.14,160.37s.91-1.59,3.19-.44,3.4,3,5.61.63,1.62-4.39-.8-6.61c0,0,.09-5.35-3.57-8.65s-5.71-5.51-5.93-6.72-2.82-3.31-4.85-3.84c0,0,5.71-2.08,5.35-5.12a29.45,29.45,0,0,1-.28-6.49c.16-1-1.27-3.92-3.86-1.88s-3.05,3-5.63,4.3-6.32,3.69-5.73,6.43,2.27,6.11,1.57,7-3.71-.61-4.26,2.11,3.37,7.2,3.06,9.25-2.3,4.93,1.18,7.38,6.37,1,8.18,3.53,2.47,3.08,4.73,3S267,162,266.14,160.37Z"/><path class="cls-12" d="M264.1,164.29c2.24,0,2.86-2.25,2-3.92,0,0,.91-1.59,3.19-.44s3.4,3,5.61.63a4.46,4.46,0,0,0,1.37-2.77c0,.6-3.33,0-5.29-.58s-2.73-2.07-5.75-1.71,0,2.66-1.56,4.93-1.75-.84-3.18-2.21-4.25-.93-4.55-1.92,2.13-1.05,3.43-1.5a22.91,22.91,0,0,1,6.16-1.7c3.05-.34,3.87-.61,5.48-2.7s-.53-3.37-1.89-4.59-2.28,1.13-3.49,3.28-6.17,2.06-7.38,1.15-2.65-.78-4-2.42.27-2.91.57-3.82,2.28,0,3.2-1.58-1.82-1.38-2-2.4,1.23-.42,1.69-2.54-3.78-3-4.54-3.45-.36-3.41.33-4.31,4.87-2.79,5.86-4.23,3.8-.36,4.63,1.69-6.47,3.39-5.95,6.35c.21,1.24,1.36,1.56,2.63,1.5a8.27,8.27,0,0,0-.83-.29s5.71-2.08,5.35-5.12a29.45,29.45,0,0,1-.28-6.49c.16-1-1.27-3.92-3.86-1.88s-3.05,3-5.63,4.3-6.32,3.69-5.73,6.43,2.27,6.11,1.57,7-3.71-.61-4.26,2.11,3.37,7.2,3.06,9.25-2.3,4.93,1.18,7.38,6.37,1,8.18,3.53S261.84,164.33,264.1,164.29Z"/><path class="cls-11" d="M290.7,126.56s1.16,1.42-.72,3.13-4.07,2.09-2.6,5,3.53,3.08,6.46,1.61c0,0,5,2,9.36-.25s7.18-3.36,8.39-3.14,4.1-1.46,5.31-3.17c0,0-.09,6.09,2.88,6.83a30.32,30.32,0,0,1,6.17,2c.9.52,4.11.22,3.13-2.93s-1.74-3.93-2-6.8-1.19-7.22-4-7.64-6.52-.06-7.11-1,1.89-3.25-.45-4.73-7.93.58-9.73-.44-3.79-3.91-7.31-1.53-3.23,5.59-6.22,6.39-3.76,1.21-4.52,3.33S288.84,126.73,290.7,126.56Z"/><path class="cls-12" d="M287.77,123.26c-.76,2.11,1.07,3.47,2.93,3.3,0,0,1.16,1.42-.72,3.13s-4.07,2.09-2.6,5a4.45,4.45,0,0,0,2.11,2.27c-.57-.19,1.22-3.09,2.42-4.74s2.91-1.81,3.65-4.76-2.48-1-4.05-3.22,1.41-1.32,3.2-2.17,2.39-3.64,3.41-3.57.23,2.37.19,3.74a23.06,23.06,0,0,1-.62,6.36c-.77,3-.8,3.83.57,6.09s3.34.7,5-.13-.24-2.54-1.82-4.43.27-6.51,1.56-7.31,1.66-2.2,3.69-2.91,2.63,1.29,3.37,1.9-.82,2.12.34,3.55,1.93-1.21,3-1.06,0,1.29,1.77,2.48,4.2-2.44,4.83-3,3.32.88,3.92,1.84.87,5.55,1.86,7-1,3.68-3.23,3.71-.86-7.25-3.81-7.82c-1.24-.24-1.94.72-2.34,1.92a5,5,0,0,0,.56-.67s-.09,6.09,2.88,6.83a30.32,30.32,0,0,1,6.17,2c.9.52,4.11.22,3.13-2.93s-1.74-3.93-2-6.8-1.19-7.22-4-7.64-6.52-.06-7.11-1,1.89-3.25-.45-4.73-7.93.58-9.73-.44-3.79-3.91-7.31-1.53-3.23,5.59-6.22,6.39S288.53,121.14,287.77,123.26Z"/><path class="cls-11" d="M258.05,168.48s1,1.52-1,3.06-4.23,1.73-3,4.78,3.25,3.37,6.3,2.16c0,0,4.77,2.43,9.34.58s7.45-2.72,8.64-2.39,4.2-1.1,5.57-2.69c0,0-.62,6.05,2.27,7.05a30.35,30.35,0,0,1,6,2.58c.85.6,4.07.58,3.37-2.64s-1.38-4.07-1.4-6.95-.56-7.3-3.28-8-6.49-.63-7-1.65,2.16-3.07,0-4.75-7.95-.12-9.66-1.3-3.43-4.22-7.15-2.16-3.7,5.29-6.75,5.82-3.85.87-4.8,2.91S256.18,168.5,258.05,168.48Z"/><path class="cls-12" d="M255.41,164.93c-.94,2,.77,3.57,2.64,3.55,0,0,1,1.52-1,3.06s-4.23,1.73-3,4.78a4.48,4.48,0,0,0,1.9,2.44c-.55-.24,1.5-3,2.83-4.51s3.06-1.55,4.06-4.42-2.39-1.19-3.76-3.56,1.52-1.2,3.38-1.89,2.7-3.41,3.72-3.25,0,2.38-.15,3.74a23,23,0,0,1-1.18,6.28c-1,2.9-1.13,3.75.05,6.11s3.26,1,4.95.31,0-2.54-1.43-4.57.85-6.46,2.2-7.15,1.85-2,3.94-2.57,2.51,1.51,3.19,2.19-1,2,0,3.56,2-1,3.05-.79-.16,1.28,1.55,2.63,4.4-2.07,5.08-2.58,3.22,1.17,3.74,2.18.38,5.6,1.24,7.12-1.34,3.58-3.55,3.42-.21-7.3-3.11-8.13c-1.2-.34-2,.55-2.49,1.71a6,6,0,0,0,.62-.61s-.62,6.05,2.27,7.05a30.35,30.35,0,0,1,6,2.58c.85.6,4.07.58,3.37-2.64s-1.38-4.07-1.4-6.95-.56-7.3-3.28-8-6.49-.63-7-1.65,2.16-3.07,0-4.75-7.95-.12-9.66-1.3-3.43-4.22-7.15-2.16-3.7,5.29-6.75,5.82S256.36,162.89,255.41,164.93Z"/><path class="cls-11" d="M309.45,70a2.06,2.06,0,0,1,1,2.21c-.19,1.67-1.12,2.58.91,4s3.12.84,3.94-1c0,0,3.37-.28,4.57-3.07s2.12-4.37,2.83-4.61,1.4-2.19,1.26-3.65c0,0,2.64,3.87,4.45,3.41a15.8,15.8,0,0,1,4-.63c.69,0,2.16-1.15.28-2.83s-2.59-1.94-4-3.67-3.77-4.18-5.34-3.58-3.3,2-4,1.56-.48-2.64-2.3-2.85-3.72,2.85-5.07,2.76-3.62-1.28-4.33,1.32.84,4.54-.31,6-1.35,1.94-.79,3.52A1.89,1.89,0,0,0,309.45,70Z"/><path class="cls-12" d="M306.53,68.87A1.89,1.89,0,0,0,309.45,70a2.06,2.06,0,0,1,1,2.21c-.19,1.67-1.12,2.58.91,4a3.48,3.48,0,0,0,2.05.77c-.37.06-.75-2.34-.88-3.75s.66-2-.26-4.15-1.67.16-3.45-.76.12-1.28.65-2.38-.41-3,.14-3.31,1.15,1.42,1.73,2.3a23,23,0,0,1,2.5,4.21c.92,2.12,1.28,2.67,3,3.66s2-.59,2.43-1.62S318,69.67,316.39,69s-2.73-4.19-2.44-5.1-.13-1.91.57-3,1.88,0,2.52.15.53,1.6,1.74,2.14.43-1.37,1-1.6.54.83,2,1,1-2.86,1.09-3.42,2.05-.47,2.78,0,2.87,3.23,4,3.83a2.1,2.1,0,0,1,0,3.35c-1.09.72-3.62-4.31-5.35-3.75-.73.24-.65,1.06-.33,1.94a3.85,3.85,0,0,0,0-.59s2.64,3.87,4.45,3.41a15.8,15.8,0,0,1,4-.63c.69,0,2.16-1.15.28-2.83s-2.59-1.94-4-3.67-3.77-4.18-5.34-3.58-3.3,2-4,1.56-.48-2.64-2.3-2.85-3.72,2.85-5.07,2.76-3.62-1.28-4.33,1.32.84,4.54-.31,6S306,67.29,306.53,68.87Z"/><path class="cls-11" d="M230.47,141a5.35,5.35,0,0,0-3.55,1.32c-2,1.53-2.38,4.25-3.39,4.93s-1.87,1.35-1.36,2.37,3.92.17,5,1,.42,3.23,2.29,4.42,4.24.51,4.41,1.69-1.87,1.53-2,3.23,2.72,4.72,5.27,2.95,1.69-4.82,3.22-4.14.34,2.21,2.55,2.38,9.84-2.55,10-5.09-2-2-2-3.45.85-4.7-.33-6.4c0,0,2,.85,2.38-.85s-1-9.17-6-9.17-5.09,1.87-5.09,1.87-3.15-1.19-4.38.51a3.45,3.45,0,0,0-3.6-2.38c-2.72.34-5.77.85-5.43,2A8.52,8.52,0,0,0,230.47,141Z"/><path class="cls-12" d="M252.89,156.12c.17-2.55-2-2-2-3.45s.85-4.7-.33-6.4c0,0,2,.85,2.38-.85s-1-9.17-6-9.17-5.09,1.87-5.09,1.87-3.15-1.19-4.38.51a3.45,3.45,0,0,0-3.6-2.38c-2.72.34-5.77.85-5.43,2a8.52,8.52,0,0,0,2,2.75,5.35,5.35,0,0,0-3.55,1.32c-2,1.53-2.38,4.25-3.39,4.93s-1.87,1.35-1.36,2.37,3.92.17,5,1,.42,3.23,2.29,4.42a4.2,4.2,0,0,0,1.13.5s-2-2.38-1.47-3.73,1.55-3.23.69-4.58-1.2-3.23-.78-3.91.31.34,1.56.85,2.26,3.06,3.28,2.55,1.28-2,1.87-3.06a13.12,13.12,0,0,1,2.53-2.66s-2.57-.73-1.68-1.58,2.37-.68,3.56,0,1.36,2.25,2.55,1.55,2.2-2.06,3.73-1.38,3.23,1.87,1.87,2.71-3.44.51-4,1.7-3.59,1.78-2.08,2.93,7.59,1.89,6.58,2.88-3-1.06-4.74.81-1.4,3.74.24,4.25,5.39-.51,4.62.68-2.36,4.38-4.62,3.63-1.54-1.94-3.26-3-4.33-.12-4.22,1.22.62,4.73-1.41,4.05c-1.5-.5-.71-5.88-2.41-5.48.49.12.82.31.88.72.17,1.19-1.87,1.53-2,3.23s2.72,4.72,5.27,2.95,1.69-4.82,3.22-4.14.34,2.21,2.55,2.38S252.72,158.66,252.89,156.12Z"/><path class="cls-9" d="M248.48,151.7a10.79,10.79,0,0,0-10,3.91s-.51,2.54-1.86,2.2-5.1-3.39-4.93-4.92,1.53-.24,2-1.31a9,9,0,0,0,.17-4.8c-.34-1.53-2.38-3.91-.17-4.92s5.77-1.19,6.36,0-.25,2,0,3.56,2.81,1.87,4.16,1.53,3.74-2.21,4.25-1.87S252.55,150.51,248.48,151.7Z"/><path class="cls-10" d="M241,149.87c-2.18-.65-2.92,3.19-3.56,3.36s-1.56-.68-.88-3.36-.85-4.11-.85-6.15c0-1.29,2.14-2,3.69-2.4-1.26-.56-3.94-.29-5.73.54-2.21,1-.17,3.39.17,4.92a9,9,0,0,1-.17,4.8c-.51,1.07-1.87-.22-2,1.31s3,4.06,4.52,4.77a3.62,3.62,0,0,0,1.82-.77,5.31,5.31,0,0,0,.45-1.28,10.44,10.44,0,0,1,5.83-3.72h0C244.35,150.38,243.22,150.51,241,149.87Z"/><path class="cls-11" d="M288.14,152.09a5.35,5.35,0,0,0-3.55,1.32c-2,1.53-2.37,4.25-3.39,4.93s-1.87,1.35-1.36,2.37,3.92.17,5,1,.41,3.23,2.28,4.41,4.24.51,4.41,1.7-1.86,1.53-2,3.23,2.71,4.72,5.26,3,1.7-4.82,3.22-4.14.34,2.21,2.55,2.37,9.85-2.54,10-5.09-2-2-2-3.44.85-4.71-.34-6.4c0,0,2.05.85,2.39-.85s-1-9.17-6-9.17-5.09,1.87-5.09,1.87-3.15-1.19-4.38.51a3.45,3.45,0,0,0-3.6-2.38c-2.71.34-5.77.85-5.43,2A8.52,8.52,0,0,0,288.14,152.09Z"/><path class="cls-12" d="M310.56,167.16c.17-2.54-2-2-2-3.44s.85-4.71-.34-6.4c0,0,2.05.85,2.39-.85s-1-9.17-6-9.17-5.09,1.87-5.09,1.87-3.15-1.19-4.38.51a3.45,3.45,0,0,0-3.6-2.38c-2.71.34-5.77.85-5.43,2a8.52,8.52,0,0,0,2,2.75,5.35,5.35,0,0,0-3.55,1.32c-2,1.53-2.37,4.25-3.39,4.93s-1.87,1.35-1.36,2.37,3.92.17,5,1,.41,3.23,2.28,4.41a4.23,4.23,0,0,0,1.13.51s-2-2.38-1.47-3.73,1.56-3.23.69-4.58-1.2-3.23-.77-3.91.3.34,1.55.85,2.26,3.06,3.28,2.55,1.28-2,1.87-3.06a13.08,13.08,0,0,1,2.54-2.66s-2.58-.73-1.69-1.58,2.37-.68,3.56,0,1.36,2.24,2.55,1.54,2.21-2,3.73-1.37,3.23,1.87,1.87,2.71-3.44.51-4,1.7-3.58,1.78-2.08,2.93,7.59,1.89,6.59,2.88-3-1.06-4.74.81-1.41,3.74.23,4.24,5.4-.5,4.62.68-2.35,4.39-4.62,3.64-1.53-1.94-3.26-3-4.33-.12-4.22,1.22.63,4.72-1.41,4c-1.5-.5-.7-5.87-2.41-5.47.49.12.82.31.88.72.17,1.19-1.86,1.53-2,3.23s2.71,4.72,5.26,3,1.7-4.82,3.22-4.14.34,2.21,2.55,2.37S310.4,169.71,310.56,167.16Z"/><path class="cls-9" d="M306.15,162.75a10.78,10.78,0,0,0-10,3.9s-.51,2.55-1.87,2.21-5.09-3.39-4.92-4.92,1.52-.24,2-1.31a9,9,0,0,0,.17-4.8c-.34-1.53-2.37-3.91-.17-4.93s5.77-1.18,6.37,0-.26,2,0,3.57,2.8,1.87,4.16,1.53,3.73-2.21,4.24-1.87S310.23,161.56,306.15,162.75Z"/><path class="cls-10" d="M298.71,160.92c-2.18-.65-2.91,3.19-3.56,3.36s-1.56-.68-.88-3.36-.85-4.11-.85-6.15c0-1.29,2.14-2,3.7-2.4-1.27-.56-3.95-.29-5.74.53-2.2,1-.17,3.4.17,4.93a9,9,0,0,1-.17,4.8c-.51,1.07-1.86-.22-2,1.31s2.95,4.06,4.52,4.77a3.82,3.82,0,0,0,1.82-.77,5.86,5.86,0,0,0,.45-1.29,10.4,10.4,0,0,1,5.83-3.71h0C302,161.42,300.89,161.56,298.71,160.92Z"/><path class="cls-11" d="M203,151.6A3.46,3.46,0,0,1,206,153c1.53,1.69,3.06,2.9,5.77.77s3.23-3.45,3.06-5.85,2.61-3.92,0-5.11-4.67.34-5.41-1.19-1.75-8-3.79-8.66-2.2.52-4.24,1.53-4.92,2.21-4.75,4.42c0,0-5.78-.68-6.12,3.56s2.89,3.06,3.74,4.58,1.87,3.85,3.05,4.56c0,0,1.87,1.32,2.55,0C199.91,151.6,202.12,153.26,203,151.6Z"/><path class="cls-12" d="M214.85,147.91c-.17-2.39,2.61-3.92,0-5.11a5.93,5.93,0,0,0-.73-.27c-.26,1-1.52,1.84-2.7,2.31-1.69.68.17,2,0,3.25s-3.22.65-3.9-.18-.34-5.28-1.36-5.91-.68,1.31-1.36,1.83a3.82,3.82,0,0,1-3.22.84c-1.36-.34-2.89,2.71-3.91,2s.17-3.73-1.18-4.92-2.38.85-3.91,0c-.69-.38-.65-1.22-.37-2.09a3.39,3.39,0,0,0-1.67,2.77c-.33,4.24,2.89,3.06,3.74,4.58s1.87,3.85,3.05,4.56c0,0,1.87,1.32,2.55,0,0,0,2.21,1.66,3.06,0A3.46,3.46,0,0,1,206,153c1.53,1.69,3.06,2.9,5.77.77S215,150.31,214.85,147.91Z"/><path class="cls-11" d="M207.41,46.91A2.66,2.66,0,0,1,209.76,48c1.18,1.31,2.35,2.24,4.44.6s2.47-2.65,2.34-4.49,2-3,0-3.93-3.59.26-4.16-.91-1.34-6.13-2.91-6.65-1.7.39-3.26,1.17-3.78,1.69-3.65,3.39c0,0-4.44-.52-4.7,2.74s2.22,2.35,2.87,3.52,1.44,3,2.35,3.5c0,0,1.44,1,2,0C205.07,46.91,206.76,48.19,207.41,46.91Z"/><path class="cls-12" d="M216.54,44.08c-.13-1.84,2-3,0-3.93a4.85,4.85,0,0,0-.56-.21,3.45,3.45,0,0,1-2.07,1.77c-1.31.53.12,1.57,0,2.51s-2.48.49-3-.14-.26-4.06-1.05-4.54-.52,1-1,1.4a2.93,2.93,0,0,1-2.48.64c-1-.26-2.21,2.09-3,1.57s.13-2.87-.91-3.78-1.83.65-3,0c-.53-.3-.5-.94-.28-1.61a2.63,2.63,0,0,0-1.29,2.13c-.26,3.26,2.22,2.35,2.87,3.52s1.44,3,2.35,3.5c0,0,1.44,1,2,0,0,0,1.69,1.28,2.34,0A2.66,2.66,0,0,1,209.76,48c1.18,1.31,2.35,2.24,4.44.6S216.67,45.92,216.54,44.08Z"/><path class="cls-11" d="M272.47,105.31a3.5,3.5,0,0,1,2.78,1.89c1.22,1.93,2.52,3.38,5.55,1.74s3.77-2.86,4-5.25,3.24-3.43.9-5-4.66-.46-5.13-2.09-.38-8.16-2.27-9.17-2.26.13-4.44.79-5.22,1.34-5.43,3.54c0,0-5.57-1.64-6.63,2.48s2.33,3.5,2.91,5.15,1.19,4.11,2.24,5c0,0,1.62,1.63,2.51.43C269.46,104.79,271.35,106.81,272.47,105.31Z"/><path class="cls-12" d="M284.8,103.69c.24-2.39,3.24-3.43.9-5a4.64,4.64,0,0,0-.67-.39c-.42.89-1.81,1.55-3,1.82-1.79.38-.18,2-.55,3.21s-3.29.09-3.82-.84.56-5.27-.34-6.06-.89,1.18-1.64,1.57a3.84,3.84,0,0,1-3.33.28c-1.28-.56-3.3,2.19-4.19,1.35s.8-3.65-.34-5-2.48.43-3.84-.66c-.62-.5-.44-1.32,0-2.12a3.36,3.36,0,0,0-2.12,2.44c-1.05,4.13,2.33,3.5,2.91,5.15s1.19,4.11,2.24,5c0,0,1.62,1.63,2.51.43,0,0,1.89,2,3,.52a3.5,3.5,0,0,1,2.78,1.89c1.22,1.93,2.52,3.38,5.55,1.74S284.57,106.08,284.8,103.69Z"/><path class="cls-11" d="M241.75,174.89a3.48,3.48,0,0,1,3.31-.54c2.21.57,4.16.73,5.23-2.55s.78-4.66-.69-6.56,0-4.71-2.81-4.27-3.7,2.87-5.16,2-5.87-5.67-7.95-5.1-1.55,1.64-2.68,3.62-2.88,4.56-1.52,6.31c0,0-5.18,2.63-3.11,6.35s4.1.94,5.65,1.75,3.68,2.16,5.06,2.09c0,0,2.29.07,2.12-1.41C239.2,176.58,242,176.75,241.75,174.89Z"/><path class="cls-12" d="M249.6,165.24c-1.47-1.9,0-4.71-2.81-4.27a5.49,5.49,0,0,0-.75.18c.31.94-.25,2.37-1,3.41-1,1.51,1.27,1.6,1.8,2.71s-2.32,2.33-3.35,2-3.21-4.21-4.4-4.17.16,1.47-.12,2.28a3.84,3.84,0,0,1-2.22,2.48c-1.32.47-.9,3.86-2.12,3.86s-1.93-3.2-3.72-3.44-1.51,2-3.25,2.16c-.79.07-1.22-.65-1.46-1.53a3.39,3.39,0,0,0,.14,3.23c2.07,3.72,4.1.94,5.65,1.75s3.68,2.16,5.06,2.09c0,0,2.29.07,2.12-1.41,0,0,2.76.17,2.55-1.69a3.48,3.48,0,0,1,3.31-.54c2.21.57,4.16.73,5.23-2.55S251.07,167.14,249.6,165.24Z"/><path class="cls-12" d="M242.78,153.77s-2.08-1-3.5,2-2.61,4.4-1.08,5.42,3.22,1,3.39,1.54-1.56,1-1.46,2.71l1.29,2s-2.75,2.55-1.29,3.9,2.82.34,3.84,2.38,2.54,4.24,5.43,3.39,2.21-1.69,3.9-2.88,2.55-1.7,3.74-2.55,2.37-.51,1.53-3-2.38-2.38-3.06-4.25,2.38-.69,2.21-3.23c0,0,.85-3.9-1.53-4.07s-3.39.68-3.74-.84-1.95-5.61-4.28-3.74C248.17,152.58,243.8,149.36,242.78,153.77Z"/><path class="cls-9" d="M242.78,153.77s-.22,3.73,2.61,4.24,4-.34,5.2,0,3.39-.51,3,1.36-1.36,2.72-1.69,3.74.88,3.56,1.73,4.24.3,4.24-1.06,4.58-3.51-.85-5.43.51-5.78-3.05-4.41-4.92,1.7-4,.68-5.23-3.06,0-2.72-2.41A29.74,29.74,0,0,1,242.78,153.77Z"/><path class="cls-10" d="M252,163.11c.33-1,1.35-1.87,1.69-3.74s-1.86-1-3-1.36-2.38.51-5.2,0-2.61-4.24-2.61-4.24a29.74,29.74,0,0,0-2,6.11c-.28,2,1.06,1.5,2.1,2a2,2,0,0,1,1.47-1.26c2-.7,2.44-1.89,3.08-.7s-1.66,4.31,0,4.53,2-1.24,2.86,0,2.55,2.09.85,2.6-2.49-.51-3.71,1.19-.43,3.06-1.84,3.22a3.18,3.18,0,0,0-1.16.39c.93.79,2,1.18,2.8.63,1.92-1.36,4.08-.17,5.43-.51s1.91-3.9,1.06-4.58S251.61,164.12,252,163.11Z"/><path class="cls-12" d="M199.82,115.18s-2.08-1-3.5,2-2.61,4.4-1.08,5.42,3.22,1,3.39,1.54-1.56,1-1.46,2.71l1.29,2s-2.75,2.55-1.29,3.91,2.82.33,3.84,2.37,2.54,4.25,5.43,3.4,2.21-1.7,3.9-2.89,2.55-1.7,3.74-2.55,2.38-.5,1.53-3-2.38-2.38-3.06-4.24,2.38-.7,2.21-3.24c0,0,.85-3.89-1.53-4.06s-3.39.68-3.73-.85-2-5.6-4.29-3.74C205.21,114,200.84,110.77,199.82,115.18Z"/><path class="cls-9" d="M199.82,115.18s-.22,3.74,2.61,4.25,4-.34,5.2,0,3.39-.51,3.05,1.35-1.35,2.72-1.69,3.74.88,3.56,1.73,4.24.3,4.25-1.06,4.58-3.5-.84-5.43.51-5.78-3-4.41-4.92,1.7-4,.68-5.23-3.06,0-2.72-2.41A30,30,0,0,1,199.82,115.18Z"/><path class="cls-10" d="M209,124.52c.34-1,1.35-1.87,1.69-3.74s-1.86-1-3.05-1.35-2.38.5-5.2,0-2.61-4.25-2.61-4.25a30,30,0,0,0-2,6.11c-.28,2,1.06,1.5,2.1,2a2,2,0,0,1,1.47-1.26c2-.7,2.44-1.89,3.09-.7s-1.67,4.31,0,4.53,2-1.24,2.85,0,2.55,2.09.85,2.6-2.49-.51-3.7,1.19-.44,3.06-1.85,3.23a3.17,3.17,0,0,0-1.16.38c.93.79,2,1.18,2.8.63,1.93-1.35,4.08-.17,5.43-.51s1.91-3.9,1.06-4.58S208.65,125.54,209,124.52Z"/><path class="cls-12" d="M202.43,93.14s-2.08-1-3.5,2-2.61,4.4-1.08,5.42,3.22,1,3.39,1.54-1.56,1-1.46,2.72l1.29,2s-2.75,2.55-1.29,3.91,2.82.34,3.84,2.37,2.55,4.25,5.43,3.4,2.21-1.7,3.9-2.89,2.55-1.7,3.74-2.54,2.38-.51,1.53-3.06-2.38-2.38-3.06-4.24,2.38-.69,2.21-3.24c0,0,.85-3.89-1.53-4.06s-3.4.68-3.74-.85-1.95-5.6-4.28-3.74C207.82,92,203.45,88.73,202.43,93.14Z"/><path class="cls-9" d="M202.43,93.14s-.22,3.74,2.61,4.25,4-.34,5.2,0,3.39-.51,3,1.35-1.36,2.72-1.69,3.74.88,3.56,1.73,4.24.3,4.25-1.05,4.59-3.51-.85-5.44.51-5.78-3.06-4.41-4.93,1.7-4,.68-5.23-3.06,0-2.72-2.41A30,30,0,0,1,202.43,93.14Z"/><path class="cls-10" d="M211.6,102.48c.33-1,1.35-1.87,1.69-3.74s-1.86-1-3-1.35-2.38.51-5.2,0-2.61-4.25-2.61-4.25a30,30,0,0,0-2,6.11c-.28,2,1.06,1.5,2.1,2A2.05,2.05,0,0,1,204,100c2-.7,2.44-1.88,3.08-.7s-1.66,4.32,0,4.54,2-1.24,2.86,0,2.55,2.08.85,2.59-2.49-.51-3.71,1.19-.43,3.06-1.84,3.23a3.17,3.17,0,0,0-1.16.38c.93.79,2,1.18,2.8.64,1.93-1.36,4.08-.18,5.44-.51s1.9-3.91,1.05-4.59S211.26,103.5,211.6,102.48Z"/><path class="cls-12" d="M213.12,133.19s-2.09-1-3.51,2-2.61,4.4-1.08,5.43,3.23,1,3.4,1.53-1.57,1-1.46,2.72l1.29,2s-2.75,2.55-1.29,3.91,2.81.34,3.83,2.37,2.55,4.25,5.44,3.4,2.2-1.7,3.9-2.89,2.55-1.69,3.73-2.54,2.38-.51,1.53-3.06-2.37-2.37-3.05-4.24,2.37-.69,2.2-3.23c0,0,.85-3.9-1.52-4.07s-3.4.68-3.74-.85-1.95-5.6-4.29-3.73C218.5,132,214.13,128.77,213.12,133.19Z"/><path class="cls-9" d="M213.12,133.19s-.22,3.73,2.6,4.24,4-.34,5.2,0,3.4-.51,3.06,1.36-1.36,2.71-1.7,3.73.88,3.56,1.73,4.24.31,4.25-1,4.59-3.51-.85-5.43.51-5.78-3.06-4.42-4.93,1.7-4,.68-5.23-3,0-2.71-2.4A29.74,29.74,0,0,1,213.12,133.19Z"/><path class="cls-10" d="M222.28,142.52c.34-1,1.36-1.87,1.7-3.73s-1.87-1-3.06-1.36-2.37.51-5.2,0-2.6-4.24-2.6-4.24a29.74,29.74,0,0,0-2,6.11c-.28,1.95,1,1.49,2.1,1.95a2,2,0,0,1,1.46-1.26c2-.69,2.44-1.88,3.09-.69s-1.66,4.31,0,4.53,2-1.24,2.85,0,2.55,2.09.85,2.59-2.48-.5-3.7,1.19-.44,3.06-1.84,3.23a3.29,3.29,0,0,0-1.17.38c.94.79,2,1.19,2.81.64,1.92-1.36,4.07-.17,5.43-.51s1.9-3.91,1-4.59S221.94,143.54,222.28,142.52Z"/><path class="cls-12" d="M272.71,137.55s-2.08-1-3.5,2-2.61,4.4-1.08,5.42,3.23,1,3.4,1.54-1.57,1-1.46,2.71l1.29,2s-2.75,2.55-1.29,3.9,2.81.34,3.83,2.38,2.55,4.24,5.43,3.4,2.21-1.7,3.91-2.89,2.55-1.7,3.73-2.55,2.38-.51,1.53-3-2.37-2.38-3.05-4.25,2.37-.69,2.2-3.23c0,0,.85-3.89-1.52-4.06s-3.4.67-3.74-.85-1.95-5.6-4.29-3.74C278.1,136.36,273.73,133.14,272.71,137.55Z"/><path class="cls-9" d="M272.71,137.55s-.21,3.74,2.61,4.24,4-.34,5.2,0,3.4-.51,3.06,1.36-1.36,2.72-1.7,3.74.89,3.56,1.73,4.24.31,4.24-1.05,4.58-3.51-.85-5.43.51-5.78-3.05-4.42-4.92,1.7-4,.68-5.23-3.05,0-2.71-2.41A30.18,30.18,0,0,1,272.71,137.55Z"/><path class="cls-10" d="M281.88,146.89c.34-1,1.36-1.87,1.7-3.74s-1.87-1-3.06-1.36-2.37.51-5.2,0-2.61-4.24-2.61-4.24a30.18,30.18,0,0,0-2,6.11c-.28,2,1.05,1.5,2.1,2a2,2,0,0,1,1.46-1.26c2-.7,2.44-1.89,3.09-.7s-1.67,4.31,0,4.53,2-1.24,2.85,0,2.55,2.09.85,2.6-2.48-.51-3.7,1.19-.44,3.06-1.85,3.22a3.53,3.53,0,0,0-1.16.39c.94.79,2,1.18,2.81.63,1.92-1.36,4.07-.17,5.43-.51s1.9-3.9,1.05-4.58S281.54,147.91,281.88,146.89Z"/><path class="cls-12" d="M281.51,108.24s-2.08-1-3.5,2-2.61,4.4-1.08,5.43,3.22,1,3.39,1.53-1.56,1-1.46,2.72l1.29,2s-2.75,2.55-1.29,3.91,2.82.34,3.84,2.37,2.55,4.25,5.43,3.4,2.21-1.7,3.9-2.89,2.55-1.7,3.74-2.54,2.38-.51,1.53-3.06-2.38-2.38-3.06-4.24,2.38-.69,2.21-3.23c0,0,.85-3.9-1.53-4.07s-3.39.68-3.73-.85-2-5.6-4.29-3.74C286.9,107.05,282.53,103.83,281.51,108.24Z"/><path class="cls-9" d="M281.51,108.24s-.22,3.74,2.61,4.25,4-.34,5.2,0,3.39-.51,3.05,1.35-1.36,2.72-1.69,3.74.88,3.56,1.73,4.24.3,4.25-1.05,4.59-3.51-.85-5.44.51-5.78-3.06-4.41-4.93,1.7-4,.68-5.23-3.06,0-2.72-2.41A30,30,0,0,1,281.51,108.24Z"/><path class="cls-10" d="M290.68,117.58c.33-1,1.35-1.87,1.69-3.74s-1.86-1-3.05-1.35-2.38.51-5.2,0-2.61-4.25-2.61-4.25a30,30,0,0,0-2,6.11c-.28,2,1.06,1.5,2.1,2a2.05,2.05,0,0,1,1.47-1.26c2-.7,2.44-1.88,3.09-.7s-1.67,4.32,0,4.54,2-1.24,2.85,0,2.55,2.08.85,2.59-2.48-.51-3.7,1.19-.44,3.06-1.85,3.23a3.17,3.17,0,0,0-1.16.38c.93.79,2,1.18,2.8.64,1.93-1.36,4.08-.17,5.44-.51s1.9-3.91,1.05-4.59S290.34,118.6,290.68,117.58Z"/><path class="cls-12" d="M306.73,36.37s-1.51-.73-2.53,1.47-1.88,3.17-.78,3.91,2.33.74,2.45,1.11-1.13.73-1.05,2l.93,1.47s-2,1.84-.93,2.81,2,.25,2.76,1.72,1.84,3,3.92,2.44,1.59-1.22,2.81-2.08S316.14,50,317,49.34s1.71-.37,1.1-2.2-1.71-1.72-2.2-3.06,1.71-.5,1.59-2.33c0,0,.61-2.81-1.1-2.93s-2.45.49-2.69-.61-1.41-4-3.09-2.69C310.61,35.52,307.46,33.19,306.73,36.37Z"/><path class="cls-9" d="M306.73,36.37s-.16,2.69,1.87,3.06,2.9-.24,3.75,0,2.45-.37,2.2,1-1,2-1.22,2.69.64,2.57,1.25,3.06.22,3.06-.76,3.3-2.53-.61-3.92.37-4.16-2.2-3.18-3.55,1.23-2.89.5-3.77-2.21,0-2-1.73A21.12,21.12,0,0,1,306.73,36.37Z"/><path class="cls-10" d="M313.33,43.1c.25-.73,1-1.35,1.22-2.69s-1.34-.73-2.2-1-1.71.37-3.75,0-1.87-3.06-1.87-3.06a21.12,21.12,0,0,0-1.47,4.41c-.2,1.41.76,1.08,1.51,1.41a1.46,1.46,0,0,1,1.06-.91c1.47-.5,1.76-1.36,2.22-.5s-1.2,3.1,0,3.26,1.45-.89,2.06,0,1.83,1.51.61,1.87-1.79-.36-2.67.86-.31,2.2-1.33,2.32a2.52,2.52,0,0,0-.84.28c.68.57,1.46.85,2,.46,1.39-1,2.94-.12,3.92-.37s1.37-2.81.76-3.3S313.09,43.83,313.33,43.1Z"/><path class="cls-12" d="M322,78.32s-.68.6.22,1.57,1.21,1.6,1.81,1.19.85-1,1.06-1,.13.71.77.93l.93-.17s.51,1.37,1.22,1,.54-1,1.43-1,1.92-.3,2-1.47-.3-1.05-.48-1.84-.24-1.18-.37-1.73.17-.94-.88-1-1.22.51-2,.48.09-1-.85-1.28c0,0-1.29-.88-1.7,0s-.26,1.33-.86,1.23-2.33-.12-2,1C322.34,76.19,320.52,77.3,322,78.32Z"/><path class="cls-9" d="M322,78.32s1.32.63,1.92-.32.47-1.51.77-1.89.31-1.31.94-.91.79.89,1.11,1.17a2.32,2.32,0,0,0,1.79,0c.37-.2,1.59.52,1.51,1.06s-.82,1.15-.62,2-2,1.65-2.43.88-1.21-1.21-1.8-1-.46,1.1-1.28.63A11.46,11.46,0,0,1,322,78.32Z"/><path class="cls-10" d="M326.72,76.37c-.32-.28-.48-.77-1.11-1.17s-.64.53-.94.91-.17.94-.77,1.89-1.92.32-1.92.32A11.46,11.46,0,0,0,323.89,80c.67.39.7-.16,1-.48a.77.77,0,0,1-.24-.71c.05-.85-.32-1.17.2-1.23s1.32,1.24,1.65.67-.15-.91.42-1,1.14-.62,1.07.07-.55.83-.12,1.52,1.05.61.9,1.15a1.53,1.53,0,0,0,0,.47c.42-.22.73-.56.64-.92-.2-.9.54-1.5.62-2s-1.14-1.26-1.51-1.06A2.32,2.32,0,0,1,326.72,76.37Z"/><path class="cls-12" d="M215.3,116.56s-.39,2.29,2.94,2.8,4.95,1.28,5.51-.48.08-3.38.52-3.69,1.42,1.22,3,.65l1.6-1.81s3.21,1.93,4.1.15-.46-2.8,1.21-4.35,3.37-3.63,1.75-6.16-2.25-1.65-3.86-3-2.34-2-3.49-2.87-1.15-2.14-3.36-.62-1.62,3-3.22,4.12-1.33-2.09-3.72-1.21c0,0-4,.27-3.48,2.6s1.6,3.07.23,3.82-4.84,3.44-2.39,5.16C212.66,111.72,210.78,116.82,215.3,116.56Z"/><path class="cls-9" d="M215.3,116.56s3.65-.83,3.35-3.69-1.45-3.75-1.45-5-1.44-3.12.45-3.31,3,.54,4.06.59,3.18-1.85,3.59-2.85,4-1.48,4.7-.27.16,3.61,2,5.07-1.32,6.41-3.49,5.62-4.33-.51-5.22.81.83,2.94-1.55,3.27A29.71,29.71,0,0,1,215.3,116.56Z"/><path class="cls-10" d="M221.71,105.16c-1.07,0-2.17-.79-4.06-.59s-.46,2.08-.45,3.31,1.15,2.14,1.45,5-3.35,3.69-3.35,3.69a29.71,29.71,0,0,0,6.44.25c2-.27,1.14-1.43,1.29-2.56a2,2,0,0,1-1.62-1c-1.23-1.76-2.49-1.82-1.53-2.77s4.61.39,4.35-1.27-1.75-1.58-.79-2.74,1.29-3,2.26-1.54.2,2.53,2.17,3.22,3.06-.43,3.61.88a3.2,3.2,0,0,0,.7,1c.49-1.11.56-2.27-.18-2.87-1.84-1.46-1.3-3.86-2-5.07s-4.28-.74-4.7.27S222.78,105.2,221.71,105.16Z"/><path class="cls-12" d="M223.8,116.27s-2.08-1-3.5,2-2.61,4.4-1.08,5.42,3.22,1,3.39,1.54-1.56,1-1.46,2.71l1.29,2s-2.75,2.55-1.29,3.9,2.82.34,3.84,2.38,2.55,4.24,5.43,3.4,2.21-1.7,3.9-2.89,2.55-1.7,3.74-2.55,2.38-.51,1.53-3-2.38-2.38-3.06-4.24,2.38-.7,2.21-3.24c0,0,.85-3.89-1.53-4.06s-3.39.67-3.73-.85-2-5.6-4.29-3.74C229.19,115.08,224.82,111.86,223.8,116.27Z"/><path class="cls-9" d="M223.8,116.27s-.21,3.74,2.61,4.25,4-.34,5.2,0,3.39-.51,3.06,1.35-1.36,2.72-1.7,3.74.88,3.56,1.73,4.24.3,4.25-1,4.58-3.51-.85-5.44.51-5.77-3.05-4.41-4.92,1.7-4,.68-5.23-3.06,0-2.72-2.41A30,30,0,0,1,223.8,116.27Z"/><path class="cls-10" d="M233,125.61c.34-1,1.35-1.87,1.7-3.74s-1.87-1-3.06-1.35-2.38.5-5.2,0-2.61-4.25-2.61-4.25a30,30,0,0,0-2,6.11c-.28,2,1.06,1.5,2.1,2a2,2,0,0,1,1.47-1.26c2-.7,2.44-1.89,3.09-.7s-1.67,4.31,0,4.53,2-1.23,2.85,0,2.55,2.09.85,2.6-2.48-.51-3.7,1.19-.44,3.06-1.85,3.22a3.38,3.38,0,0,0-1.16.39c.93.79,2,1.18,2.8.63,1.93-1.36,4.08-.17,5.44-.51s1.9-3.9,1-4.58S232.63,126.63,233,125.61Z"/><path class="cls-12" d="M226.28,91.25s-2.08-1-3.5,2-2.61,4.4-1.08,5.43,3.22,1,3.39,1.53-1.56,1-1.46,2.72l1.29,2s-2.75,2.54-1.29,3.9,2.82.34,3.84,2.38,2.54,4.24,5.43,3.39,2.21-1.69,3.9-2.88,2.55-1.7,3.74-2.55,2.38-.51,1.53-3-2.38-2.38-3.06-4.25,2.38-.69,2.21-3.23c0,0,.85-3.9-1.53-4.07s-3.4.68-3.73-.85-2-5.6-4.29-3.73C231.67,90.06,227.3,86.83,226.28,91.25Z"/><path class="cls-9" d="M226.28,91.25s-.22,3.73,2.61,4.24,4-.34,5.2,0,3.39-.51,3,1.36-1.35,2.71-1.7,3.73.89,3.57,1.74,4.25.3,4.24-1.06,4.58-3.5-.85-5.43.51-5.78-3.06-4.42-4.92,1.71-4,.69-5.23-3.06,0-2.72-2.41A29.74,29.74,0,0,1,226.28,91.25Z"/><path class="cls-10" d="M235.44,100.58c.35-1,1.36-1.86,1.7-3.73s-1.86-1-3-1.36-2.38.51-5.2,0-2.61-4.24-2.61-4.24a29.74,29.74,0,0,0-2,6.11c-.28,2,1.06,1.5,2.1,2a2.06,2.06,0,0,1,1.47-1.27c2-.69,2.44-1.88,3.09-.69s-1.67,4.31,0,4.53,2-1.24,2.85,0,2.54,2.09.85,2.6-2.48-.51-3.7,1.18-.44,3.06-1.85,3.23a3.18,3.18,0,0,0-1.16.39c.93.78,2,1.18,2.8.63,1.93-1.36,4.08-.17,5.43-.51s1.91-3.9,1.06-4.58S235.11,101.6,235.44,100.58Z"/><path class="cls-12" d="M342.56,128.4s2.3-.31,1.78-3.64-.26-5.11-2.1-5.11-3.25.93-3.68.6.74-1.71-.29-3.07l-2.2-1s.88-3.65-1.09-4-2.53,1.28-4.51.15-4.47-2.12-6.4.18-.9,2.64-1.65,4.57-1.18,2.82-1.7,4.18-1.7,1.74.42,3.39,3.29.67,4.89,1.85-1.59,1.89,0,3.91c0,0,1.45,3.71,3.52,2.54s2.45-2.45,3.58-1.36,4.73,3.58,5.64.73C338.73,132.37,344.15,132.64,342.56,128.4Z"/><path class="cls-9" d="M342.56,128.4s-1.89-3.23-4.53-2.09-3.15,2.5-4.33,2.88-2.54,2.3-3.29.56-.37-3-.66-4-2.71-2.48-3.79-2.57-2.6-3.37-1.66-4.4,3.39-1.24,4.24-3.43,6.5-.66,6.4,1.65.81,4.28,2.33,4.73,2.56-1.67,3.6.5A30.21,30.21,0,0,1,342.56,128.4Z"/><path class="cls-10" d="M329.75,125.7c.29,1-.09,2.31.66,4s2.12-.18,3.29-.56,1.7-1.74,4.33-2.88,4.53,2.09,4.53,2.09a30.21,30.21,0,0,0-1.69-6.22c-.85-1.78-1.71-.66-2.84-.46a2,2,0,0,1-.52,1.86c-1.31,1.7-1,2.92-2.18,2.28s-1-4.51-2.51-3.77-1,2.14-2.38,1.58-3.27-.32-2.14-1.69,2.35-1,2.42-3-1.33-2.79-.25-3.71a3.1,3.1,0,0,0,.76-1c-1.22-.14-2.35.14-2.69,1-.85,2.19-3.3,2.39-4.24,3.43s.58,4.3,1.66,4.4S329.47,124.67,329.75,125.7Z"/><path class="cls-12" d="M164.1,151.92s-2,1.09-.41,4,2,4.7,3.76,4.07,2.72-2,3.24-1.85-.1,1.86,1.34,2.77l2.4.15s.45,3.73,2.41,3.34,1.93-2.08,4.17-1.71,4.93.43,5.94-2.4-.08-2.78,0-4.86.12-3.05.13-4.51,1-2.23-1.58-3-3.32.52-5.23,0,.84-2.33-1.32-3.69c0,0-2.65-3-4.18-1.15s-1.45,3.15-2.88,2.53-5.69-1.71-5.55,1.27C166.3,146.86,161.13,148.51,164.1,151.92Z"/><path class="cls-9" d="M164.1,151.92s2.9,2.37,5,.38,2.08-3.44,3.05-4.21,1.58-3,2.9-1.67,1.4,2.69,2,3.56,3.41,1.38,4.45,1.1,3.62,2.24,3.1,3.54-2.75,2.34-2.78,4.7-5.87,2.88-6.58.68-2.25-3.73-3.83-3.62-1.82,2.45-3.55.78A30.07,30.07,0,0,1,164.1,151.92Z"/><path class="cls-10" d="M177,150c-.62-.87-.71-2.19-2-3.56s-1.92.91-2.9,1.67-1,2.23-3.05,4.21-5-.38-5-.38a30.07,30.07,0,0,0,3.75,5.24c1.42,1.38,1.84,0,2.82-.55a2,2,0,0,1-.16-1.93c.63-2.05-.09-3.08,1.25-2.9s2.51,3.88,3.67,2.66.17-2.35,1.67-2.31,3.19-.84,2.6.83-1.87,1.72-1.21,3.7,2.22,2.15,1.53,3.39a3.12,3.12,0,0,0-.37,1.17c1.19-.3,2.14-.95,2.16-1.9,0-2.36,2.25-3.4,2.78-4.7s-2.05-3.83-3.1-3.54S177.67,150.86,177,150Z"/><path class="cls-12" d="M255.13,109.62s-2,1.09-.41,4,2,4.7,3.76,4.06,2.72-2,3.23-1.85-.09,1.87,1.34,2.78l2.41.15s.45,3.73,2.4,3.34,1.93-2.08,4.18-1.71,4.93.43,5.94-2.4-.08-2.79-.05-4.86.12-3,.14-4.51,1-2.23-1.58-3-3.32.53-5.23,0,.84-2.33-1.32-3.69c0,0-2.66-3-4.19-1.15s-1.44,3.15-2.88,2.52-5.68-1.7-5.54,1.28C257.33,104.56,252.15,106.21,255.13,109.62Z"/><path class="cls-9" d="M255.13,109.62s2.9,2.37,5,.38,2.08-3.44,3-4.21,1.58-3,2.89-1.67,1.4,2.69,2,3.56,3.4,1.38,4.45,1.09,3.62,2.25,3.09,3.55-2.75,2.34-2.78,4.69-5.86,2.89-6.57.69-2.25-3.73-3.84-3.63-1.82,2.46-3.54.79A30.07,30.07,0,0,1,255.13,109.62Z"/><path class="cls-10" d="M268.07,107.68c-.63-.87-.72-2.19-2-3.56s-1.92.91-2.89,1.67-1,2.23-3,4.21-5-.38-5-.38a30.07,30.07,0,0,0,3.75,5.24c1.42,1.37,1.83,0,2.82-.55a2,2,0,0,1-.17-1.93c.64-2.06-.09-3.08,1.25-2.91s2.52,3.88,3.67,2.67.18-2.36,1.68-2.31,3.19-.84,2.6.83-1.87,1.71-1.21,3.7,2.22,2.14,1.53,3.38a3.27,3.27,0,0,0-.38,1.17c1.19-.29,2.15-1,2.16-1.9,0-2.35,2.26-3.39,2.78-4.69s-2-3.83-3.09-3.55S268.69,108.56,268.07,107.68Z"/><path class="cls-12" d="M266.25,48.68s-2.86,1.52-.57,5.62,2.83,6.54,5.23,5.66,3.8-2.8,4.51-2.58-.13,2.6,1.87,3.87l3.35.21s.62,5.19,3.35,4.65,2.69-2.9,5.82-2.38,6.86.6,8.27-3.35S298,56.5,298,53.62s.17-4.26.18-6.3,1.37-3.09-2.19-4.22-4.63.74-7.29,0,1.17-3.25-1.84-5.14c0,0-3.7-4.14-5.83-1.6s-2,4.38-4,3.52-7.91-2.38-7.72,1.78C269.31,41.64,262.1,43.93,266.25,48.68Z"/><path class="cls-9" d="M266.25,48.68s4,3.3,6.92.53,2.9-4.8,4.25-5.86,2.2-4.24,4-2.33,1.95,3.75,2.82,5,4.75,1.92,6.21,1.52,5,3.13,4.3,4.94S291,55.7,290.91,59s-8.17,4-9.16,1-3.13-5.2-5.34-5-2.53,3.42-4.94,1.09A41.7,41.7,0,0,1,266.25,48.68Z"/><path class="cls-10" d="M284.27,46c-.87-1.21-1-3-2.82-5s-2.67,1.27-4,2.33-1.37,3.1-4.25,5.86-6.92-.53-6.92-.53a41.7,41.7,0,0,0,5.22,7.3c2,1.92,2.55,0,3.93-.77a2.82,2.82,0,0,1-.23-2.68c.89-2.87-.13-4.29,1.74-4.05s3.5,5.4,5.11,3.71.25-3.28,2.34-3.22,4.44-1.17,3.62,1.17-2.6,2.38-1.69,5.14,3.1,3,2.13,4.72a4.55,4.55,0,0,0-.52,1.63c1.66-.41,3-1.32,3-2.65,0-3.28,3.14-4.73,3.87-6.54s-2.84-5.34-4.3-4.94S285.14,47.2,284.27,46Z"/></svg>