<svg xmlns="http://www.w3.org/2000/svg" viewBox="0 0 512 400"><defs><style>.cls-1{isolation:isolate;}.cls-2{fill:#207dcd;}.cls-3{fill:#a9abba;}.cls-4{fill:#eff0ef;mix-blend-mode:screen;}.cls-24,.cls-4{opacity:0.7;}.cls-5{fill:#0a4b85;}.cls-6{fill:#dee0de;}.cls-7{fill:#c2b6c6;}.cls-8{fill:#535349;}.cls-15,.cls-26,.cls-9{opacity:0.5;}.cls-15,.cls-17,.cls-9{mix-blend-mode:multiply;}.cls-10{fill:#a9aaa6;}.cls-11{fill:#a8a8a8;}.cls-12{fill:#454545;}.cls-13{fill:#666;}.cls-14{fill:#003870;}.cls-15{fill:#115896;}.cls-16{fill:#b4b0ab;}.cls-17,.cls-20{fill:#d7d1cd;}.cls-18{fill:#dad8e8;}.cls-19{fill:#908f96;}.cls-21{fill:#dcdcda;}.cls-22{fill:#bfbfbc;}.cls-23,.cls-25,.cls-26{fill:#fff;}.cls-23{opacity:0.6;}.cls-27{opacity:0.8;}</style></defs><g class="cls-1"><g id="Layer_1" data-name="Layer 1"><path class="cls-2" d="M475,147.56l-10.52-7.8-.07,0c-2.74-1-5.12-2.37-8.13-1.07-2.17.93-3.84,2.76-5.74,4.06-14.58,11.72-26.35,21.11-35.71,28.52-2.24,1.77-40.73,10.9-42.7,12.44-16.34,12.92,11.86,14.22,11,15.19-2.9,3.15,54.52,14.48,66.23,20.27l26.08-64A18.06,18.06,0,0,0,475,147.56Z"/><path class="cls-3" d="M449.82,220.42,449,220c-5.29-2.61-20.19-6.41-34.59-10.08-24.43-6.22-31.62-8.34-32.22-10.42a.19.19,0,0,0,0-.07c-.45-.11-1.06-.23-1.8-.37-1.16-.24-2.59-.52-4.09-.89-6.24-1.56-9.42-3.6-10-6.45-.55-2.61,1.21-5.47,5.36-8.75,1-.79,7-2.45,20.59-6,9.34-2.48,21-5.58,22.12-6.41C425.84,161.33,437.52,152,450,142c.7-.49,1.32-1,1.94-1.51a16.86,16.86,0,0,1,4-2.69,7.28,7.28,0,0,1,4.85-.33,19.74,19.74,0,0,1,2.62.9c.44.16.87.33,1.31.48l.32.16,10.77,8,.09.31a18.82,18.82,0,0,1,.45,7.95l0,.12ZM384.14,199.1c2.52,1.81,18.06,5.78,30.67,9,13.77,3.51,28,7.13,34.05,9.8l25.66-63a17,17,0,0,0-.31-6.75L464,140.59l-1.29-.48a20.69,20.69,0,0,0-2.4-.82,5.41,5.41,0,0,0-3.7.23,15.63,15.63,0,0,0-3.57,2.42c-.66.55-1.32,1.08-2,1.56-12.4,10-24.09,19.3-35.66,28.49-1.21,1-9.42,3.18-22.79,6.74-8.42,2.23-18.9,5-19.92,5.71-3.44,2.71-5.06,5.09-4.68,6.87.42,2,3.33,3.69,8.64,5,1.48.37,2.88.65,4,.87.79.16,1.46.29,1.93.4s1.22.31,1.41.95l.15.52Z"/><path class="cls-2" d="M465.75,142l.08,0,9.52,7.06c-.09-.5-.2-1-.34-1.5l-10.52-7.8-.07,0c-.37-.12-.72-.26-1.08-.4A5.81,5.81,0,0,0,465.75,142Z"/><path class="cls-4" d="M373.48,185.93c2-1.55,40.47-10.67,42.71-12.45,9.35-7.41,21.12-16.8,35.7-28.52,1-.67,2.15-3.27,3.35-5.73-1.68,1-3.12,2.41-4.69,3.49-14.58,11.72-26.35,21.11-35.71,28.52-2.24,1.77-40.73,10.9-42.7,12.44-5.94,4.7-6,7.85-3.69,10C368.06,191.73,369.33,189.21,373.48,185.93Z"/><path class="cls-5" d="M475,147.56l-10.52-7.8-.07,0c-2.37-.83-4.47-2-6.94-1.45a14.76,14.76,0,0,1,2.15.88c4.57,2.37,13.3,6.73,10.85,13.35-4.33,11.68-10.74,22.87-16.14,34.08-4.69,9.72-9.1,19.63-13.76,29.38a65,65,0,0,1,8.77,3.17l26.08-64A18.06,18.06,0,0,0,475,147.56Z"/><path class="cls-6" d="M53.86,139.66c54.5-29.1,64.73-23.78,102.85-13.23S302.91,169.62,343,181s81.78,24.8,85.59,26.16a286.16,286.16,0,0,1,30,16.12s7.36,4.12,10.41,6.8c2.88,2.52-1.18,11.28-7.3,14-1.44.66-17.22,5.85-17.22,5.85s-8.15,3.54-25.46,4.86c-14.89,1.14-169.46-7.28-322.4-50C53.05,192.58,26.72,163.62,29.32,153,31.82,142.73,53.86,139.66,53.86,139.66Z"/><path class="cls-7" d="M130.1,214.56c-11.41-2.84-22.74-5.83-33.67-8.88-44.52-12.45-70.72-41.79-68-53,2.52-10.35,22.94-13.64,25.15-14,43.07-23,58.76-24.78,84-18.52,4.21,1,8.8,2.33,13.66,3.69l5.75,1.61c20.8,5.75,62.31,18.05,102.45,29.94,33.76,10,65.64,19.44,83.87,24.61,39.65,11.21,81.27,24.6,85.65,26.17a285.9,285.9,0,0,1,30.19,16.2c.27.15,7.46,4.19,10.54,6.9,1.06.92,1.46,2.41,1.19,4.32A16.34,16.34,0,0,1,462.13,245c-1.47.67-16.67,5.67-17.31,5.88-.27.12-8.41,3.59-25.68,4.91C405.19,256.82,271.32,249.63,130.1,214.56Zm7-92.51c-22.9-5.69-37.66-5.66-82.82,18.44l-.29.1c-.22,0-21.46,3.1-23.77,12.59-2.5,10.26,23.94,38.73,66.69,50.69,10.92,3,22.23,6,33.63,8.86,141,35,274.54,42.21,288.46,41.15,16.92-1.3,25.09-4.76,25.17-4.79,4.46-1.47,16.06-5.32,17.2-5.84A14.48,14.48,0,0,0,469,233.4a3.13,3.13,0,0,0-.55-2.63c-2.95-2.59-10.2-6.65-10.27-6.69A289,289,0,0,0,428.25,208c-3.07-1.09-44.17-14.43-85.47-26.11-18.24-5.17-50.13-14.62-83.9-24.62-40.13-11.89-81.63-24.18-102.42-29.93l-5.75-1.61C145.86,124.38,141.29,123.1,137.1,122.05Z"/><path class="cls-8" d="M120.85,150.88a65.6,65.6,0,0,0,7.68-10.74c.79-2,.93-3.94-.66-5.43q-5.39-1.76-12-3.69c-1.25-.38-2.5-.73-3.61-1.05L89.34,148.62a149.5,149.5,0,0,0,17.34,5.61C112.63,155.65,116.36,155.79,120.85,150.88Z"/><path class="cls-8" d="M59.12,137.45s20-11.41,25.72-12.38c1.39-.25,6.17-.84,25.23,4.07L87.76,147.82C79.72,145,68.21,141.16,59.12,137.45Z"/><g class="cls-9"><path class="cls-8" d="M125.06,145.56c1.22-1.76,2.36-3.57,3.47-5.42.79-2,.93-3.94-.66-5.43q-5.39-1.76-12-3.69c-1.25-.38-2.5-.73-3.61-1.05l-9.83,8C110.05,140.24,117.57,142.83,125.06,145.56Z"/><path class="cls-8" d="M74.91,132.91c6.37-.36,12.57,1.06,18.73,2.63,2.22.56,4.43,1.17,6.64,1.8l9.79-8.2c-19.06-4.91-23.84-4.32-25.23-4.07-4.14.7-15.68,6.83-21.79,10.19A55.87,55.87,0,0,1,74.91,132.91Z"/></g><path class="cls-10" d="M163.58,190.7a7.33,7.33,0,0,1-1.24-.42l-12.84-3.65c-5.33-3.61-3-10.84-3-10.91.22-.86,5.75-21.69,7.88-26.77a5.6,5.6,0,0,1,7-3.47,5.23,5.23,0,0,1,.72.23L169.7,148l7.77,2.26h.08a3,3,0,0,1,1.92,1.49c1.55,2.8-.13,8.34-.2,8.57-.2.81-5.13,20.54-7.83,26.5A6.41,6.41,0,0,1,163.58,190.7ZM149.87,186l12.72,3.61a8.58,8.58,0,0,0,1.17.39,5.66,5.66,0,0,0,7-3.43c2.66-5.91,7.74-26.19,7.78-26.39s1.66-5.49.27-8a2.22,2.22,0,0,0-1.44-1.13l-.12,0-7.77-2.26-7.64-2.32s-.28-.11-.66-.2a4.84,4.84,0,0,0-6.11,3c-2.11,5-7.79,26.47-7.85,26.69S145.07,182.67,149.87,186Z"/><path class="cls-11" d="M199.73,173.25a1.46,1.46,0,0,1-.3-.11L196,172.3l-.07,0a2.93,2.93,0,0,1-1-3.29c0-.21,1.34-5.81,1.87-7.2a1.83,1.83,0,0,1,2.29-1.18.69.69,0,0,1,.17.05l4.09,1.06h0a1.17,1.17,0,0,1,.76.56,4,4,0,0,1,0,2.54,71.13,71.13,0,0,1-1.86,7.15A2.07,2.07,0,0,1,199.73,173.25Z"/><path class="cls-12" d="M199.7,172.52a1.35,1.35,0,0,1-.27-.09l-3-.73-.06,0a2.58,2.58,0,0,1-.91-2.88c.05-.19,1.18-5.1,1.64-6.32a1.64,1.64,0,0,1,2-1.05l.15.05,3.59.93h0a1,1,0,0,1,.67.49,3.5,3.5,0,0,1,0,2.23,64.07,64.07,0,0,1-1.64,6.27A1.79,1.79,0,0,1,199.7,172.52Z"/><path class="cls-13" d="M197.27,165.27l4.77,1.19c.11-.48.18-.81.2-.85a4.75,4.75,0,0,0,.11-2.18.64.64,0,0,0-.45-.43h0l-2.54-.68-.1,0c-.51-.12-1.18.11-1.53,1.15-.12.36-.31,1.05-.51,1.84C197.23,165.28,197.25,165.26,197.27,165.27Z"/><path class="cls-11" d="M211.68,176.21l-.32-.1-3.43-.84-.05,0a2.91,2.91,0,0,1-1-3.28c0-.21,1.33-5.81,1.87-7.2a1.84,1.84,0,0,1,2.29-1.19l.17.05,4.09,1.07h0a1.16,1.16,0,0,1,.77.56,4,4,0,0,1,.05,2.54,69,69,0,0,1-1.87,7.14A2,2,0,0,1,211.68,176.21Z"/><path class="cls-12" d="M211.64,175.49a1.66,1.66,0,0,1-.28-.09l-3-.74,0,0a2.58,2.58,0,0,1-.91-2.89c.05-.18,1.17-5.1,1.65-6.32a1.6,1.6,0,0,1,2-1l.15.05,3.58.93h0a1,1,0,0,1,.67.49,3.5,3.5,0,0,1,0,2.23,64.11,64.11,0,0,1-1.64,6.28A1.8,1.8,0,0,1,211.64,175.49Z"/><path class="cls-13" d="M209.21,168.24l4.78,1.18.19-.84a4.77,4.77,0,0,0,.11-2.18.64.64,0,0,0-.45-.43h0l-2.54-.67-.11,0c-.5-.12-1.17.12-1.52,1.16-.12.36-.31,1.05-.52,1.83C209.17,168.25,209.19,168.23,209.21,168.24Z"/><path class="cls-11" d="M223.62,179.17a1.39,1.39,0,0,1-.32-.1l-3.42-.84-.07,0a3,3,0,0,1-1-3.29c0-.21,1.35-5.81,1.87-7.2a1.86,1.86,0,0,1,2.3-1.19l.17.06,4.09,1.06h0a1.16,1.16,0,0,1,.77.56,4,4,0,0,1,.05,2.54,71.13,71.13,0,0,1-1.86,7.15A2,2,0,0,1,223.62,179.17Z"/><path class="cls-12" d="M223.57,178.45l-.27-.08-3-.74,0,0a2.56,2.56,0,0,1-.91-2.88c0-.19,1.17-5.1,1.64-6.32a1.64,1.64,0,0,1,2-1l.15,0,3.58.93h0a1,1,0,0,1,.67.49,3.58,3.58,0,0,1,0,2.23c0,.18-1,4.84-1.64,6.27A1.8,1.8,0,0,1,223.57,178.45Z"/><path class="cls-13" d="M221.15,171.2l4.78,1.19c.11-.48.18-.81.19-.85a4.75,4.75,0,0,0,.11-2.18.64.64,0,0,0-.45-.43h0l-2.54-.68-.11,0c-.51-.12-1.17.11-1.53,1.15-.12.36-.3,1-.5,1.84Z"/><path class="cls-11" d="M235.55,182.14l-.32-.1-3.42-.84-.06,0a2.94,2.94,0,0,1-1-3.28c0-.21,1.34-5.81,1.87-7.2a1.85,1.85,0,0,1,2.3-1.19l.17,0,4.08,1.07h0a1.16,1.16,0,0,1,.77.56,4,4,0,0,1,.05,2.54,71.83,71.83,0,0,1-1.86,7.15A2.06,2.06,0,0,1,235.55,182.14Z"/><path class="cls-12" d="M235.51,181.41l-.27-.08-3-.74,0,0a2.6,2.6,0,0,1-.92-2.89c0-.18,1.18-5.1,1.64-6.32a1.63,1.63,0,0,1,2-1l.16,0,3.58.94h0a1,1,0,0,1,.67.49,3.55,3.55,0,0,1,0,2.23,58.79,58.79,0,0,1-1.64,6.28A1.79,1.79,0,0,1,235.51,181.41Z"/><path class="cls-13" d="M233.09,174.17l4.77,1.18c.12-.48.18-.81.19-.85a4.41,4.41,0,0,0,.12-2.17.67.67,0,0,0-.46-.44h0l-2.53-.67-.11,0c-.51-.12-1.17.11-1.53,1.16-.12.36-.31,1-.51,1.83Z"/><path class="cls-11" d="M247.49,185.1a1.91,1.91,0,0,1-.31-.09l-3.43-.85-.06,0a2.94,2.94,0,0,1-1-3.28c.06-.21,1.34-5.81,1.87-7.2a1.84,1.84,0,0,1,2.3-1.18.69.69,0,0,1,.17,0l4.08,1.06h0a1.19,1.19,0,0,1,.77.56,4.1,4.1,0,0,1,.05,2.54,72.47,72.47,0,0,1-1.87,7.15A2,2,0,0,1,247.49,185.1Z"/><path class="cls-12" d="M247.46,184.38a2,2,0,0,1-.28-.08l-3-.75,0,0a2.57,2.57,0,0,1-.92-2.88c.05-.19,1.18-5.11,1.65-6.32a1.61,1.61,0,0,1,2-1l.15,0,3.59.94h0a1,1,0,0,1,.67.49,3.58,3.58,0,0,1,.05,2.23,64.07,64.07,0,0,1-1.64,6.27A1.8,1.8,0,0,1,247.46,184.38Z"/><path class="cls-13" d="M245,177.13l4.77,1.19c.11-.48.18-.81.19-.85a4.62,4.62,0,0,0,.11-2.18.63.63,0,0,0-.45-.43h0l-2.54-.68-.11,0c-.5-.12-1.17.11-1.53,1.15-.12.36-.31,1-.51,1.84C245,177.14,245,177.12,245,177.13Z"/><path class="cls-11" d="M259.43,188.07a2.62,2.62,0,0,1-.31-.1l-3.43-.84-.07,0a3,3,0,0,1-1-3.28c0-.2,1.34-5.8,1.88-7.19a1.82,1.82,0,0,1,2.28-1.19.92.92,0,0,1,.18.05l4.08,1.06h0a1.17,1.17,0,0,1,.76.56,4,4,0,0,1,.05,2.54,69.12,69.12,0,0,1-1.86,7.15A2,2,0,0,1,259.43,188.07Z"/><path class="cls-12" d="M259.39,187.35l-.28-.09-3-.74-.05,0a2.56,2.56,0,0,1-.91-2.89c0-.18,1.17-5.1,1.64-6.32a1.61,1.61,0,0,1,2-1l.15,0,3.59.94h0a1,1,0,0,1,.68.49,3.55,3.55,0,0,1,0,2.23,63.46,63.46,0,0,1-1.63,6.28A1.82,1.82,0,0,1,259.39,187.35Z"/><path class="cls-13" d="M257,180.1l4.77,1.18c.11-.48.18-.81.2-.85a4.74,4.74,0,0,0,.1-2.17.66.66,0,0,0-.45-.44h0l-2.54-.67-.1,0c-.5-.12-1.17.11-1.53,1.16-.12.36-.31,1-.51,1.83C256.92,180.11,256.93,180.09,257,180.1Z"/><path class="cls-11" d="M271.37,191a1.86,1.86,0,0,1-.32-.09l-3.42-.85-.06,0a2.94,2.94,0,0,1-1-3.28c.05-.21,1.34-5.81,1.87-7.2a1.85,1.85,0,0,1,2.29-1.19l.18.06L275,179.5h0a1.17,1.17,0,0,1,.76.56,4,4,0,0,1,0,2.54,66.61,66.61,0,0,1-1.86,7.15A2,2,0,0,1,271.37,191Z"/><path class="cls-12" d="M271.33,190.31l-.28-.08-3-.75-.06,0a2.58,2.58,0,0,1-.91-2.88c0-.19,1.18-5.11,1.65-6.32a1.61,1.61,0,0,1,2-1.05.36.36,0,0,1,.13.05l3.6.94h0a1,1,0,0,1,.66.49,3.5,3.5,0,0,1,.05,2.23c0,.17-1.05,4.83-1.64,6.27A1.79,1.79,0,0,1,271.33,190.31Z"/><path class="cls-13" d="M268.9,183.06l4.78,1.19c.11-.48.18-.81.19-.85a4.49,4.49,0,0,0,.11-2.18.66.66,0,0,0-.46-.43h0l-2.54-.68-.1,0c-.51-.12-1.17.11-1.53,1.15-.13.36-.31,1.05-.51,1.84C268.86,183.07,268.88,183.05,268.9,183.06Z"/><path class="cls-11" d="M283.3,194a2.07,2.07,0,0,1-.3-.1l-3.43-.84-.06,0a2.94,2.94,0,0,1-1-3.29c0-.2,1.34-5.81,1.87-7.19a1.83,1.83,0,0,1,2.29-1.19.7.7,0,0,1,.18.05l4.08,1.06h0a1.21,1.21,0,0,1,.76.57,4.12,4.12,0,0,1,.06,2.54,72.47,72.47,0,0,1-1.87,7.15A2.06,2.06,0,0,1,283.3,194Z"/><path class="cls-12" d="M283.27,193.27a2.09,2.09,0,0,1-.27-.08l-3-.74-.05,0a2.58,2.58,0,0,1-.92-2.89c0-.19,1.17-5.1,1.64-6.32a1.62,1.62,0,0,1,2-1l.15,0,3.59.94h0a1,1,0,0,1,.67.49,3.5,3.5,0,0,1,.05,2.23,61.33,61.33,0,0,1-1.64,6.28A1.79,1.79,0,0,1,283.27,193.27Z"/><path class="cls-13" d="M280.85,186l4.76,1.18c.11-.48.19-.8.2-.85a4.57,4.57,0,0,0,.11-2.17.64.64,0,0,0-.46-.44h0l-2.54-.67-.1,0c-.51-.12-1.18.11-1.53,1.16-.13.36-.31,1.05-.51,1.83Z"/><path class="cls-11" d="M295.25,197a2.62,2.62,0,0,1-.31-.1L291.5,196l-.06,0a2.92,2.92,0,0,1-1-3.28c0-.21,1.33-5.81,1.87-7.2a1.85,1.85,0,0,1,2.3-1.19l.17.06,4.09,1.06h0a1.17,1.17,0,0,1,.76.56,4,4,0,0,1,0,2.54,67.17,67.17,0,0,1-1.87,7.15A2,2,0,0,1,295.25,197Z"/><path class="cls-12" d="M295.21,196.24a1.66,1.66,0,0,1-.28-.09l-3-.74-.06,0a2.58,2.58,0,0,1-.91-2.88c.05-.19,1.18-5.11,1.65-6.32a1.62,1.62,0,0,1,2-1.05l.15.05,3.58.93h0a1,1,0,0,1,.66.49,3.6,3.6,0,0,1,.06,2.23,64.74,64.74,0,0,1-1.65,6.27A1.79,1.79,0,0,1,295.21,196.24Z"/><path class="cls-13" d="M292.79,189l4.77,1.18c.11-.48.18-.81.19-.85a4.62,4.62,0,0,0,.11-2.18.64.64,0,0,0-.46-.43h0l-2.54-.68-.1,0c-.51-.13-1.17.11-1.53,1.15-.12.36-.31,1.05-.51,1.84Z"/><path class="cls-11" d="M307.19,199.93a2,2,0,0,1-.31-.1l-3.44-.84-.05,0a2.94,2.94,0,0,1-1-3.29c0-.21,1.33-5.81,1.87-7.19a1.83,1.83,0,0,1,2.29-1.19.69.69,0,0,1,.17.05l4.09,1.07h0a1.09,1.09,0,0,1,.76.56,3.94,3.94,0,0,1,.06,2.53,68.41,68.41,0,0,1-1.87,7.15A2,2,0,0,1,307.19,199.93Z"/><path class="cls-12" d="M307.15,199.21l-.28-.09-3-.74-.05,0a2.56,2.56,0,0,1-.91-2.88c0-.19,1.17-5.1,1.64-6.32a1.62,1.62,0,0,1,2-1l.15,0,3.58.94h0a1,1,0,0,1,.67.49,3.57,3.57,0,0,1,0,2.23,64.11,64.11,0,0,1-1.64,6.28A1.81,1.81,0,0,1,307.15,199.21Z"/><path class="cls-13" d="M304.72,192l4.78,1.18c.11-.48.17-.81.19-.85a4.85,4.85,0,0,0,.11-2.17.7.7,0,0,0-.45-.44h0l-2.53-.67-.12,0c-.5-.13-1.17.11-1.53,1.15-.11.36-.3,1-.5,1.83C304.68,192,304.7,192,304.72,192Z"/><path class="cls-11" d="M319.12,202.9a1.46,1.46,0,0,1-.3-.11l-3.43-.84-.06,0a2.93,2.93,0,0,1-1.05-3.28c.05-.21,1.34-5.81,1.88-7.2a1.84,1.84,0,0,1,2.29-1.19l.17.06,4.08,1.06h0a1.16,1.16,0,0,1,.77.56,4,4,0,0,1,0,2.54,69.72,69.72,0,0,1-1.87,7.15A2.06,2.06,0,0,1,319.12,202.9Z"/><path class="cls-12" d="M319.09,202.17a2.09,2.09,0,0,1-.27-.08l-3-.75-.05,0a2.58,2.58,0,0,1-.91-2.88c.05-.19,1.17-5.11,1.64-6.33a1.64,1.64,0,0,1,2-1l.15.05,3.58.93h0a1,1,0,0,1,.67.49,3.42,3.42,0,0,1,0,2.23,58.74,58.74,0,0,1-1.64,6.27A1.78,1.78,0,0,1,319.09,202.17Z"/><path class="cls-13" d="M316.66,194.92l4.78,1.19c.1-.49.18-.81.19-.85a4.65,4.65,0,0,0,.1-2.18.63.63,0,0,0-.44-.43h0l-2.54-.68-.11,0c-.51-.13-1.17.11-1.53,1.15-.12.36-.3,1-.51,1.84C316.62,194.93,316.64,194.91,316.66,194.92Z"/><path class="cls-11" d="M331.06,205.86a2.62,2.62,0,0,1-.31-.1l-3.42-.84-.07,0a3,3,0,0,1-1-3.29c0-.21,1.34-5.81,1.87-7.19a1.85,1.85,0,0,1,2.3-1.2l.17.06,4.08,1.06h0a1.2,1.2,0,0,1,.77.57,4.07,4.07,0,0,1,.05,2.53,71.06,71.06,0,0,1-1.87,7.15A2,2,0,0,1,331.06,205.86Z"/><path class="cls-12" d="M331,205.14a1.66,1.66,0,0,1-.28-.09l-3-.74-.05,0a2.56,2.56,0,0,1-.91-2.88c0-.18,1.18-5.1,1.64-6.32a1.62,1.62,0,0,1,2-1l.15,0,3.58.94h0a1,1,0,0,1,.68.49,3.65,3.65,0,0,1,0,2.23,61.22,61.22,0,0,1-1.65,6.27A1.79,1.79,0,0,1,331,205.14Z"/><path class="cls-13" d="M328.61,197.89l4.76,1.18c.11-.48.18-.81.19-.85a4.46,4.46,0,0,0,.11-2.17.64.64,0,0,0-.45-.44h0l-2.54-.67-.11,0c-.5-.12-1.17.11-1.52,1.16-.13.36-.32,1.05-.52,1.83Z"/><path class="cls-11" d="M343,208.82a1.41,1.41,0,0,1-.31-.1l-3.43-.84-.06,0a2.94,2.94,0,0,1-1-3.28c0-.21,1.35-5.81,1.87-7.2a1.86,1.86,0,0,1,2.3-1.19l.17.06,4.09,1.06h0a1.19,1.19,0,0,1,.77.56,4.1,4.1,0,0,1,.05,2.54,69.72,69.72,0,0,1-1.87,7.15A2,2,0,0,1,343,208.82Z"/><path class="cls-12" d="M343,208.1a1.66,1.66,0,0,1-.28-.09l-3-.73-.05,0a2.56,2.56,0,0,1-.91-2.88c0-.19,1.17-5.11,1.64-6.32a1.62,1.62,0,0,1,2-1l.15,0,3.58.93h0a1,1,0,0,1,.67.49,3.49,3.49,0,0,1,0,2.23A57.59,57.59,0,0,1,345.2,207,1.8,1.8,0,0,1,343,208.1Z"/><path class="cls-13" d="M340.54,200.85l4.77,1.19.19-.85a4.72,4.72,0,0,0,.12-2.18.66.66,0,0,0-.46-.43h0l-2.53-.68-.11,0c-.51-.13-1.17.11-1.53,1.15-.12.36-.31,1-.51,1.84Z"/><path class="cls-11" d="M354.94,211.79a1.76,1.76,0,0,1-.31-.11l-3.43-.83-.06,0a3,3,0,0,1-1-3.29c0-.2,1.34-5.81,1.87-7.19a1.85,1.85,0,0,1,2.3-1.19l.17.05,4.08,1.06h0a1.17,1.17,0,0,1,.77.57,4,4,0,0,1,.05,2.53,71.76,71.76,0,0,1-1.87,7.15A2.05,2.05,0,0,1,354.94,211.79Z"/><path class="cls-12" d="M354.9,211.07l-.27-.09-3-.74-.05,0a2.55,2.55,0,0,1-.91-2.88c0-.18,1.17-5.1,1.64-6.32a1.61,1.61,0,0,1,2-1l.15,0,3.59.94h0a1.06,1.06,0,0,1,.67.49,3.56,3.56,0,0,1,0,2.23,60.63,60.63,0,0,1-1.64,6.27A1.79,1.79,0,0,1,354.9,211.07Z"/><path class="cls-13" d="M352.48,203.82l4.77,1.18c.11-.48.18-.81.19-.85a4.57,4.57,0,0,0,.11-2.17.62.62,0,0,0-.45-.44h0l-2.53-.67-.11,0c-.51-.12-1.18.11-1.53,1.15-.12.37-.31,1.06-.51,1.84Z"/><path class="cls-11" d="M366.88,214.75a1.19,1.19,0,0,1-.31-.1l-3.43-.84-.06,0a2.94,2.94,0,0,1-1-3.28c0-.21,1.34-5.81,1.87-7.2a1.85,1.85,0,0,1,2.29-1.19l.18.06,4.08,1.06h0a1.17,1.17,0,0,1,.76.56,4,4,0,0,1,.06,2.54,72.47,72.47,0,0,1-1.87,7.15A2,2,0,0,1,366.88,214.75Z"/><path class="cls-12" d="M366.84,214l-.27-.09-3-.73-.06,0a2.59,2.59,0,0,1-.91-2.89c.05-.18,1.18-5.09,1.64-6.32a1.64,1.64,0,0,1,2-1l.15.05,3.59.93h0a1,1,0,0,1,.66.5,3.5,3.5,0,0,1,0,2.23,61.29,61.29,0,0,1-1.64,6.27A1.8,1.8,0,0,1,366.84,214Z"/><path class="cls-13" d="M364.42,206.78l4.77,1.19.19-.85a4.59,4.59,0,0,0,.12-2.18.66.66,0,0,0-.46-.43h0l-2.54-.68-.1,0c-.51-.13-1.17.11-1.53,1.15-.12.36-.31,1.05-.51,1.84Z"/><path class="cls-11" d="M378.82,217.72a2,2,0,0,1-.31-.1l-3.43-.84-.06,0a2.94,2.94,0,0,1-1-3.29c0-.2,1.33-5.81,1.87-7.2a1.84,1.84,0,0,1,2.3-1.18l.17.05,4.08,1.06h0a1.1,1.1,0,0,1,.77.56,4,4,0,0,1,.05,2.54,71.79,71.79,0,0,1-1.86,7.14A2.05,2.05,0,0,1,378.82,217.72Z"/><path class="cls-12" d="M378.78,217a1.35,1.35,0,0,1-.27-.09l-3-.74-.06,0a2.58,2.58,0,0,1-.91-2.88c.05-.18,1.18-5.1,1.64-6.32a1.62,1.62,0,0,1,2-1l.15,0,3.59.94h0a1,1,0,0,1,.67.49,3.5,3.5,0,0,1,0,2.23,61.33,61.33,0,0,1-1.64,6.28A1.81,1.81,0,0,1,378.78,217Z"/><path class="cls-13" d="M376.35,209.74l4.78,1.19c.11-.48.18-.81.18-.85a4.42,4.42,0,0,0,.12-2.17.64.64,0,0,0-.45-.44h0l-2.54-.67-.1,0c-.5-.12-1.17.11-1.53,1.16-.12.35-.31,1.05-.52,1.83Z"/><path class="cls-2" d="M72.27,168.69c-24-9.6-35.24-16-40.52-19.94a9.65,9.65,0,0,0-2.43,4.2c-2.6,10.67,23.73,39.63,67.35,51.83,152.94,42.75,307.51,51.17,322.4,50,17.31-1.32,25.46-4.86,25.46-4.86s15.78-5.19,17.22-5.85a15.67,15.67,0,0,0,8-9.62C346.07,254,117.32,186.71,72.27,168.69Z"/><path class="cls-14" d="M454.71,240.78c-11.36,2.39-22.9,4-34.42,5.36-23.75,2.81-47.37,1.49-71.14-.3-24.1-1.82-48.25-2.93-72.34-4.84q-7-.56-14-1.18c83.53,12.7,147,15.7,156.28,15,17.31-1.32,25.46-4.86,25.46-4.86s15.78-5.19,17.22-5.85a15.56,15.56,0,0,0,7.37-7.93A62.26,62.26,0,0,1,454.71,240.78Z"/><path class="cls-15" d="M282.52,240.26a166.3,166.3,0,0,1-11.27-18.64c-31.65-6-62.47-13.05-90.25-20.14a136.36,136.36,0,0,0-4.15,22.82c38.23,8,74.92,14.14,107.71,18.68C283.86,242.08,283.18,241.18,282.52,240.26Z"/><path class="cls-15" d="M384.19,236.77c4.09,5.63,10.1,10.36,15.35,14.49,1.49,1.17,3,2.28,4.55,3.36,7.65.32,12.81.36,15,.19,17.31-1.32,25.46-4.86,25.46-4.86s15.78-5.19,17.22-5.85a15.67,15.67,0,0,0,8-9.62C444.71,238.41,415.4,238.8,384.19,236.77Z"/><path class="cls-14" d="M444.76,236.29l-38-5s-4.4-.31-7.31,2.11c-1.94,1.62-3.71,5.42-1.2,7.83,4.51,4.33,50.81,27.44,50.81,27.44s9.67,4.21,17.45,3.28c0,0,21.35,1.65,15.23-3.69s-27.38-27.51-27.38-27.51S449.45,236.51,444.76,236.29Z"/><path class="cls-3" d="M455.86,271.86h0a49.79,49.79,0,0,1-7.16-2.35c-1.94-1-46.53-23.25-51.1-27.63a4.86,4.86,0,0,1-1.52-3.79,7.94,7.94,0,0,1,2.78-5.45c3.16-2.62,7.76-2.33,7.95-2.32l38.06,5a10.21,10.21,0,0,1,2,.32A22.7,22.7,0,0,1,455,240c.28.29,21.37,22.25,27.38,27.51,1.26,1.1,1.69,2.15,1.29,3.12-1.26,3.11-12.44,2.6-17.19,2.22A29.82,29.82,0,0,1,455.86,271.86Zm-6.39-4.06A48.6,48.6,0,0,0,456.3,270a28.92,28.92,0,0,0,10.09.95c7.78.58,15.09.07,15.53-1.08h0s0-.3-.79-1c-6.08-5.32-26.57-26.66-27.44-27.56h0a21.16,21.16,0,0,0-7.23-3.88,9.56,9.56,0,0,0-1.75-.27l-38.08-5h0s-4-.24-6.6,1.9a6,6,0,0,0-2.1,4.07,3,3,0,0,0,.94,2.36c3.49,3.35,34.62,19.31,50.6,27.28Z"/><path class="cls-2" d="M444.76,236.29l-38-5s-12.1.21-5.84,6.2c4.51,4.33,48.22,28.9,48.22,28.9a29.72,29.72,0,0,0,10.49,3.12s28.23,4.09,22.11-1.25-27.38-27.51-27.38-27.51S449.45,236.51,444.76,236.29Z"/><path class="cls-3" d="M455.32,269.66h0a28.06,28.06,0,0,1-6.64-2.48c-1.78-1-43.86-24.67-48.41-29-1.79-1.72-2.43-3.28-1.91-4.65,1.11-2.91,7.17-3.16,8.37-3.18l38.14,5a10.21,10.21,0,0,1,2,.32A22.7,22.7,0,0,1,455,240c.28.29,21.37,22.25,27.38,27.51,1.08.93,1.43,1.84,1.06,2.68-1.35,3-15.55,1.43-23.9.22A31,31,0,0,1,455.32,269.66Zm-8.86-32.16a9.56,9.56,0,0,0-1.75-.27l-38.08-5c-2.27.05-6.07.71-6.55,2-.21.56.32,1.51,1.45,2.6,4.39,4.2,47.61,28.52,48.05,28.76a26.41,26.41,0,0,0,6.17,2.3h0a32.77,32.77,0,0,0,4,.71c9.47,1.37,20.31,2.08,21.9.92a2.2,2.2,0,0,0-.49-.53c-6.08-5.32-26.57-26.66-27.44-27.56h0A21.16,21.16,0,0,0,446.46,237.5Z"/><path class="cls-16" d="M240.58,226.16s-26.56-10.92-43.39-14.3L188,254.62l-.08.14-2,4.32a214,214,0,0,0,45.51,5.47c2.32.58,7.09-6.69,9.64-17.3S242.9,226.74,240.58,226.16Z"/><path class="cls-7" d="M185.87,260l-1.34-.34,2.56-5.44,9.39-43.49.89.18c16.73,3.34,43.31,14.24,43.55,14.34h0c3.35.83,3.31,12.41,1,22.18-2.51,10.45-7.34,18.62-10.63,18A216,216,0,0,1,185.87,260Zm12-47.07-9.08,42-.09.14-1.55,3.3a218,218,0,0,0,44.19,5.19l.21,0c1.31.33,5.88-5.61,8.52-16.61,2.74-11.41,1.36-19.66.27-20C240,226.93,214.49,216.49,197.9,213Z"/><path class="cls-17" d="M199.92,239.12c6.08,1.7,12.2,3.08,18.18,5.16,7.21,2.51,14.45,4.94,21.48,7.89.52-1.54,1-3.18,1.42-4.92,2.54-10.6,1.9-20.51-.42-21.09,0,0-26.56-10.92-43.39-14.3l-5.33,24.72C194.55,237.33,197.16,238.34,199.92,239.12Z"/><path class="cls-17" d="M211.05,260q-7.17-.94-14.35-1.86c-3.21-.4-6.3-1.34-9.44-2l-1.41,3a214,214,0,0,0,45.51,5.47c.83.21,2-.62,3.21-2.21C226.75,261.48,218.85,261,211.05,260Z"/><path class="cls-18" d="M196.22,236.64c-3.13,13-7.79,23.08-10.42,22.42s-2.21-11.75.92-24.78,7.8-23.08,10.42-22.43S199.36,223.6,196.22,236.64Z"/><path class="cls-7" d="M185.59,260c-4.47-1.12-1.81-17.45.23-25.93s7.07-24.22,11.54-23.11,1.8,17.44-.24,25.92S190.06,261.08,185.59,260Zm11.33-47.22c-1.31-.32-5.78,7.05-9.3,21.74s-2.91,23.33-1.6,23.65,5.78-7,9.31-21.73S198.23,213.09,196.92,212.76Z"/><path class="cls-19" d="M195.54,219.92c-.11-.72-.32-1.17-.63-1.25-1.39-.35-4.27,6.68-6.43,15.69s-2.79,16.59-1.4,16.94c.36.09.82-.32,1.34-1.14-.4-2.54.34-8.67,2-15.68C192.05,227.8,194,222.23,195.54,219.92Z"/><path class="cls-19" d="M195.54,219.92c-1.5,2.31-3.49,7.88-5.09,14.56-1.69,7-2.43,13.14-2,15.68,1.49-2.31,3.49-7.88,5.09-14.55C195.2,228.6,195.94,222.46,195.54,219.92Z"/><path class="cls-20" d="M254.92,211.84l-57.67-14.33S182,195,187.34,204.14,252.47,267,252.47,267a40.48,40.48,0,0,0,15.13,8s42,13.68,34.28,2.68S268.28,222,268.28,222,262.05,213.28,254.92,211.84Z"/><path class="cls-21" d="M254.92,211.84l-57.67-14.33S182,195,187.34,204.14,252.47,267,252.47,267a40.48,40.48,0,0,0,15.13,8s42,13.68,34.28,2.68S268.28,222,268.28,222,262.05,213.28,254.92,211.84Z"/><path class="cls-7" d="M282.63,280.25h0c-7.89-1.95-15.24-4.34-15.31-4.36a40.8,40.8,0,0,1-15.47-8.18c-2.44-2.18-60-54-65.31-63.09-1.41-2.44-1.63-4.43-.63-5.91,2.34-3.5,10.55-2.27,11.48-2.12l57.74,14.34.48.1c7.17,1.79,13.16,10,13.42,10.39.3.51,26,44.85,33.6,55.7,1.19,1.7,1.44,3.11.73,4.17C302.35,282.8,299.11,284.34,282.63,280.25Zm-27.46-67.39-.43-.1L197,198.43c-3-.48-8.32-.57-9.58,1.33-.57.83-.33,2.15.69,3.9,5.17,8.87,64.35,62.12,65,62.65a39.7,39.7,0,0,0,14.77,7.78c.11,0,7.39,2.39,15.22,4.34,16.31,4.05,18.49,2.22,18.76,1.81s0-1.09-.7-2c-7.69-10.91-33.39-55.32-33.64-55.77C267.48,222.44,261.69,214.48,255.17,212.86Z"/><path class="cls-22" d="M301.88,277.67c-7.75-11-33.6-55.71-33.6-55.71s-6.23-8.68-13.36-10.12l-6.78-1.69c6.74,4.59,11.6,10.93,16.5,18.09,7.08,10.33,13.81,20.91,21,31.16A143,143,0,0,1,294,272.11c1.39,2.5,3,5.16,2.12,8.08a4.15,4.15,0,0,1-.88,1.55C301,282.37,304.66,281.61,301.88,277.67Z"/><path class="cls-23" d="M205.68,201.41s-17.4-4.92-12.61,2.3,54,54.8,54,54.8,10.53,12.06,21.21,13.71c0,0-11.73-7.13-16.94-14.25s-45.23-48.6-45.23-48.6S198.05,201.93,205.68,201.41Z"/><path class="cls-4" d="M432.5,235.75l-22.17-2.64s-8.14-.67-7.08,2.91L448,263.71l-36.48-25.79s-3.09-2,.75-2.52S432.5,235.75,432.5,235.75Z"/><g class="cls-24"><path class="cls-25" d="M94.57,123.61a79.39,79.39,0,0,1,36.63-2c20.45,3.67,176.69,50.71,176.69,50.71L132.11,126.09s-8-3-13.54,2.87Z"/></g><path class="cls-26" d="M55.12,174.79a33.05,33.05,0,0,0,4.4-8.35c2.06-9.7,2.35-20.66-5.3-24.53,0,0-17.36.7-23.54,10.82,0,0-3.86,7.39,18.73,26.83A16.84,16.84,0,0,0,55.12,174.79Z"/><g class="cls-27"><path class="cls-25" d="M185.74,175S342,209.62,393.38,218.24C393.38,218.24,279.91,209.23,185.74,175Z"/></g></g></g></svg>