<svg id="Layer_1" data-name="Layer 1" xmlns="http://www.w3.org/2000/svg" xmlns:xlink="http://www.w3.org/1999/xlink" viewBox="0 0 512 400"><defs><style>.cls-1{opacity:0.3;}.cls-2{fill:url(#linear-gradient);}.cls-10,.cls-22,.cls-3,.cls-4{fill:#ffb871;}.cls-20,.cls-22,.cls-3,.cls-8{stroke:#a67c52;}.cls-10,.cls-20,.cls-22,.cls-3,.cls-8{stroke-miterlimit:10;}.cls-3{stroke-width:0.25px;}.cls-5{fill:#a67c52;}.cls-6{fill:#42210b;}.cls-7{fill:url(#linear-gradient-2);}.cls-10,.cls-20,.cls-22,.cls-8{stroke-width:0.5px;}.cls-8{fill:url(#linear-gradient-3);}.cls-9{fill:url(#linear-gradient-4);}.cls-10{stroke:#603813;}.cls-11{fill:#110a07;}.cls-12{fill:url(#linear-gradient-5);}.cls-13{fill:url(#linear-gradient-6);}.cls-14{fill:url(#linear-gradient-7);}.cls-15{fill:url(#linear-gradient-8);}.cls-16{fill:url(#linear-gradient-9);}.cls-17{fill:url(#linear-gradient-10);}.cls-18{fill:#f9f82d;}.cls-19{fill:url(#linear-gradient-11);}.cls-20{fill:url(#linear-gradient-12);}.cls-21{fill:url(#linear-gradient-13);}</style><linearGradient id="linear-gradient" x1="356.34" y1="180.48" x2="317.02" y2="449.71" gradientUnits="userSpaceOnUse"><stop offset="0.31" stop-color="#944d1b"/><stop offset="0.36" stop-color="#864618"/><stop offset="0.47" stop-color="#603212"/><stop offset="0.62" stop-color="#241307"/><stop offset="0.7"/></linearGradient><linearGradient id="linear-gradient-2" x1="336.71" y1="264.56" x2="256.54" y2="402.54" gradientUnits="userSpaceOnUse"><stop offset="0.31" stop-color="#892e15"/><stop offset="0.34" stop-color="#822c14"/><stop offset="0.39" stop-color="#6e2511"/><stop offset="0.45" stop-color="#4e1a0c"/><stop offset="0.51" stop-color="#220b05"/><stop offset="0.55"/></linearGradient><linearGradient id="linear-gradient-3" x1="343.09" y1="340.94" x2="406.97" y2="425.4" gradientUnits="userSpaceOnUse"><stop offset="0" stop-color="#ffb871"/><stop offset="0.16" stop-color="#df9254"/><stop offset="0.43" stop-color="#ac5528"/><stop offset="0.63" stop-color="#8d2f0c"/><stop offset="0.74" stop-color="#812101"/></linearGradient><linearGradient id="linear-gradient-4" x1="148.58" y1="225.13" x2="178.91" y2="335.73" gradientUnits="userSpaceOnUse"><stop offset="0.31" stop-color="#812101"/><stop offset="0.4" stop-color="#7a1f01"/><stop offset="0.54" stop-color="#671a01"/><stop offset="0.71" stop-color="#471201"/><stop offset="0.89" stop-color="#1c0700"/><stop offset="1"/></linearGradient><linearGradient id="linear-gradient-5" x1="197.85" y1="124.95" x2="192.9" y2="204.55" gradientUnits="userSpaceOnUse"><stop offset="0" stop-color="#ef913c"/><stop offset="0.35" stop-color="#ed8f3b"/><stop offset="0.51" stop-color="#e68837"/><stop offset="0.63" stop-color="#d97b30"/><stop offset="0.73" stop-color="#c76927"/><stop offset="0.82" stop-color="#b0511a"/><stop offset="0.9" stop-color="#94350b"/><stop offset="0.94" stop-color="#812101"/></linearGradient><linearGradient id="linear-gradient-6" x1="671.48" y1="404.59" x2="665.13" y2="506.65" gradientTransform="translate(-319.63 -503.59) rotate(15.37)" xlink:href="#linear-gradient-5"/><linearGradient id="linear-gradient-7" x1="254.34" y1="40.57" x2="245.78" y2="178.33" xlink:href="#linear-gradient-5"/><linearGradient id="linear-gradient-8" x1="293.38" y1="80.45" x2="285.2" y2="211.99" xlink:href="#linear-gradient-5"/><linearGradient id="linear-gradient-9" x1="246.2" y1="100.18" x2="233.97" y2="297.07" xlink:href="#linear-gradient-5"/><linearGradient id="linear-gradient-10" x1="236.38" y1="134.24" x2="244.07" y2="371.42" gradientUnits="userSpaceOnUse"><stop offset="0" stop-color="#f9f82d"/><stop offset="0.61" stop-color="#e3a32f"/><stop offset="0.94" stop-color="#d87930"/></linearGradient><linearGradient id="linear-gradient-11" x1="181.4" y1="283.04" x2="243.44" y2="336.62" gradientUnits="userSpaceOnUse"><stop offset="0.31" stop-color="#944d1b"/><stop offset="0.41" stop-color="#864618"/><stop offset="0.6" stop-color="#603212"/><stop offset="0.86" stop-color="#241307"/><stop offset="1"/></linearGradient><linearGradient id="linear-gradient-12" x1="180.4" y1="332.92" x2="191.55" y2="399.33" gradientUnits="userSpaceOnUse"><stop offset="0.14" stop-color="#ffb871"/><stop offset="0.31" stop-color="#fdb670"/><stop offset="0.4" stop-color="#f4b06c"/><stop offset="0.48" stop-color="#e7a666"/><stop offset="0.54" stop-color="#d3985d"/><stop offset="0.6" stop-color="#b98652"/><stop offset="0.66" stop-color="#9a6f44"/><stop offset="0.71" stop-color="#745433"/><stop offset="0.76" stop-color="#493420"/><stop offset="0.81" stop-color="#19120b"/><stop offset="0.83"/></linearGradient><linearGradient id="linear-gradient-13" x1="229.74" y1="310.43" x2="319.74" y2="310.43" xlink:href="#linear-gradient-11"/></defs><ellipse class="cls-1" cx="249.32" cy="297.89" rx="124.5" ry="30"/><path class="cls-2" d="M289.76,274c14.59,5.72,30,12.37,46,20.13a638.08,638.08,0,0,1,58.88,32.55c-7.69-7.07-8-16.87-3.81-21,3.82-3.72,10.68-2.1,11.44-1.91-21.17-11.79-43.77-23.56-67.8-35q-22.8-10.91-44.68-20.28S270.69,251.81,289.76,274Z"/><path class="cls-3" d="M389.68,321.2c-5.57-11.65,5.86-28.9,15.88-13.63C412.26,319.05,396.2,334.8,389.68,321.2Z"/><path class="cls-4" d="M398.79,313.55s-3.23,5.63-3.23.24,7.63-5.38,5.72,0-5.73,10.06-8.58,2.34,4.77-11.31,8.58-9.52,5.72,10.78,0,14.37-9.53,1.79-11.44-3.59"/><path class="cls-5" d="M398.79,313.55a10.72,10.72,0,0,1-1.45,2c-.29.27-.62.63-1.09.58s-.56-.67-.65-1.05a6.62,6.62,0,0,1,0-2.51,3.78,3.78,0,0,1,1.3-2.15,3.55,3.55,0,0,1,2.38-.81,2.47,2.47,0,0,1,2.14,1.3,3.44,3.44,0,0,1,.09,2.54,16.27,16.27,0,0,1-.9,2.35,10.12,10.12,0,0,1-3,4.06,2.78,2.78,0,0,1-1.23.49,2.21,2.21,0,0,1-1.31-.28,4.93,4.93,0,0,1-1.72-1.91,11.82,11.82,0,0,1-1-2.31c-.12-.41-.26-.81-.35-1.23s-.14-.84-.19-1.26a6.78,6.78,0,0,1,1.51-4.81,7.43,7.43,0,0,1,4.37-2.51,5.35,5.35,0,0,1,4.83,1.21,8.72,8.72,0,0,1,2.27,4.49,9.9,9.9,0,0,1-.2,5,7.73,7.73,0,0,1-2.91,4.05,11.92,11.92,0,0,1-4.58,2,5.48,5.48,0,0,1-4.73-1.24,9.73,9.73,0,0,1-2.58-4.21,9.8,9.8,0,0,0,2.66,4.12,5.31,5.31,0,0,0,4.6,1.09c3.13-.71,6.35-2.68,7.22-5.92a9.45,9.45,0,0,0,.15-4.84,8.39,8.39,0,0,0-2.19-4.26,4.87,4.87,0,0,0-4.45-1.06,7.08,7.08,0,0,0-4.08,2.38,6.3,6.3,0,0,0-1.43,4.46c0,.4.11.8.16,1.2s.22.79.33,1.18a12.09,12.09,0,0,0,1,2.25,4.6,4.6,0,0,0,1.55,1.77,2,2,0,0,0,2.15-.18,9.82,9.82,0,0,0,2.86-3.89,15.43,15.43,0,0,0,.9-2.3,3.15,3.15,0,0,0-.05-2.32,2.17,2.17,0,0,0-1.89-1.16,3.32,3.32,0,0,0-2.22.73,3.55,3.55,0,0,0-1.27,2,6.45,6.45,0,0,0-.08,2.44c.07.38.17.87.55,1s.74-.27,1-.54A10.37,10.37,0,0,0,398.79,313.55Z"/><path class="cls-6" d="M292.27,256.72c4.23,1.3,8.41,2.74,12.58,4.21s8.3,3.08,12.41,4.71q12.35,4.89,24.4,10.47c4,1.84,8,3.85,11.94,5.79s7.89,4,11.75,6.18c7.82,4.15,15.39,8.76,22.87,13.48l-5.7-3.41c-1.89-1.14-3.79-2.27-5.73-3.34L371,291.53c-1.93-1.08-3.89-2.1-5.83-3.16-3.88-2.13-7.85-4.07-11.78-6.1s-7.94-3.89-12-5.71q-12-5.65-24.31-10.61c-4.1-1.66-8.23-3.24-12.37-4.79S296.47,258.1,292.27,256.72Z"/><path class="cls-6" d="M298.34,268.51c7.64,2.17,15.19,4.67,22.67,7.37s14.9,5.55,22.19,8.72,14.47,6.61,21.39,10.54a118.13,118.13,0,0,1,19.67,13.41l-4.71-3.65c-1.58-1.2-3.28-2.23-4.92-3.35s-3.35-2.13-5.05-3.15-3.39-2.06-5.15-3c-6.93-3.87-14.16-7.19-21.43-10.37s-14.65-6.12-22.11-8.87c-3.72-1.38-7.47-2.69-11.23-4S302.14,269.68,298.34,268.51Z"/><path class="cls-6" d="M317.48,281c5.81,2.07,11.55,4.3,17.24,6.65s11.33,4.87,16.91,7.48,11,5.48,16.37,8.58,10.54,6.5,14.88,10.91c-1.17-1-2.29-2.07-3.49-3l-3.73-2.71-3.88-2.5c-1.3-.81-2.65-1.55-4-2.33-5.36-3-10.82-5.87-16.4-8.47s-11.18-5.15-16.84-7.57S323.22,283.19,317.48,281Z"/><path class="cls-7" d="M261.16,290a227.87,227.87,0,0,0,20.9,31.2,231.3,231.3,0,0,0,57.27,51.22c1.22-25.13,8.05-42.35,16.8-43.49,2-.25,5.48.12,10.44,5.08-20.93-13.83-35.66-17.46-80.62-70.25-3.38-4-7.63-7.72-11.89-6.92C264.83,258.54,262,281.33,261.16,290Z"/><path class="cls-8" d="M334.88,366.69c-6.1-9.36-2.77-20.25-2.23-21.92,1-3,3-9.37,9.53-13.35,2.13-1.3,9.35-5.16,17.16-1.9a18.58,18.58,0,0,1,9.53,9.53c.82,3.46,2.11,11.33-1.9,19.06-5.51,10.61-19.37,17.77-27.29,13.63C337.4,370.56,336.23,368.76,334.88,366.69Z"/><path class="cls-6" d="M275.09,261.88c2.12,3.55,4.41,7,6.77,10.42s4.77,6.77,7.29,10.05a191.06,191.06,0,0,0,16.29,18.73c2.89,3,5.94,5.77,9.09,8.44a96.9,96.9,0,0,0,9.92,7.45,70.77,70.77,0,0,0,10.87,5.95,55.57,55.57,0,0,0,11.81,3.74,60.68,60.68,0,0,1-22.86-9.41,97.64,97.64,0,0,1-10-7.41c-3.18-2.66-6.25-5.46-9.17-8.41a191.55,191.55,0,0,1-16.2-18.88A196.59,196.59,0,0,1,275.09,261.88Z"/><path class="cls-6" d="M271.63,276.25a92.16,92.16,0,0,0,4.33,8.23c.78,1.34,1.6,2.66,2.4,4l2.57,3.88a120.81,120.81,0,0,0,11.61,14.49c2.06,2.32,4.35,4.41,6.56,6.57l3.52,3c.59.5,1.17,1,1.78,1.5l1.85,1.41c1.24.92,2.45,1.89,3.72,2.78l3.89,2.54c.66.42,1.29.87,2,1.26l2,1.13,4.07,2.26a95.17,95.17,0,0,1-15.9-9.67l-1.89-1.38c-.61-.48-1.19-1-1.78-1.5l-3.55-3c-2.24-2.16-4.55-4.25-6.62-6.57a115.57,115.57,0,0,1-11.57-14.62A102.23,102.23,0,0,1,271.63,276.25Z"/><path class="cls-6" d="M277.37,308.55c1.66,2.53,3.45,5,5.3,7.36.91,1.2,1.87,2.37,2.8,3.56l2.9,3.48a163.19,163.19,0,0,0,12.53,13.1c1.11,1,2.18,2.09,3.33,3.07l3.43,2.95c1.15,1,2.37,1.88,3.55,2.82s2.37,1.87,3.62,2.72l3.69,2.63,3.84,2.42,1.91,1.21,2,1.1,4,2.19a109,109,0,0,1-15.62-9.23,128.36,128.36,0,0,1-14.06-11.52,154.09,154.09,0,0,1-12.47-13.21A133.35,133.35,0,0,1,277.37,308.55Z"/><path class="cls-6" d="M271.63,289.84a27.79,27.79,0,0,0,2,5.14,48.47,48.47,0,0,0,2.72,4.82,65,65,0,0,0,6.79,8.71l1.89,2c.65.66,1.33,1.28,2,1.93,1.3,1.31,2.76,2.45,4.13,3.69s2.89,2.29,4.33,3.45l4.51,3.25-4.65-3.05c-1.48-1.12-3-2.19-4.43-3.36s-2.88-2.35-4.2-3.65c-.67-.64-1.36-1.27-2-1.92l-1.92-2a61,61,0,0,1-6.74-8.85A35.93,35.93,0,0,1,271.63,289.84Z"/><path class="cls-4" d="M350.94,347.54s1.45,8.34-2,5-3.44-10.29,3.81-10.29-1.21,26-6,14.75c-8.46-7.76-4.43-14.77,4.43-20s9.16,12.53,9.16,12.53-6.77,18.93-14.41,14.56S331,351,340.06,340.55"/><path class="cls-5" d="M350.94,347.54a22.66,22.66,0,0,1,.32,3,9.41,9.41,0,0,1-.06,1.5c-.08.47-.16,1.06-.66,1.32s-1-.19-1.38-.49a4.51,4.51,0,0,1-.54-.53,4.46,4.46,0,0,1-.49-.57,7.22,7.22,0,0,1-1.29-2.71,6.34,6.34,0,0,1,0-3,4.45,4.45,0,0,1,1.6-2.55,6,6,0,0,1,2.78-1.18,12.82,12.82,0,0,1,1.51-.13,5.29,5.29,0,0,1,.78.08,2.44,2.44,0,0,1,.71.34,3.93,3.93,0,0,1,1.41,2.67,12.22,12.22,0,0,1,.08,3,23.13,23.13,0,0,1-1.32,5.87,19.31,19.31,0,0,1-1.24,2.75,8.66,8.66,0,0,1-1.86,2.41,3,3,0,0,1-1.4.7,2,2,0,0,1-1.54-.39,6.24,6.24,0,0,1-1.77-2.5l.05.06a18.59,18.59,0,0,1-3.55-4.34,8.83,8.83,0,0,1-1.11-5.49,10.56,10.56,0,0,1,2.4-5.08,22.21,22.21,0,0,1,4.15-3.78c.76-.55,1.55-1.05,2.34-1.53a7.36,7.36,0,0,1,2.66-1.06,4,4,0,0,1,2.82.6,6.09,6.09,0,0,1,1.88,2.16,17.89,17.89,0,0,1,1.74,5.34,37.06,37.06,0,0,1,.59,5.56v.07A44.43,44.43,0,0,1,354.4,361a16.06,16.06,0,0,1-2.26,2.33,7,7,0,0,1-2.9,1.5,4.74,4.74,0,0,1-3.22-.46,26.82,26.82,0,0,1-2.73-1.74,22.35,22.35,0,0,1-4.65-4.46,13.66,13.66,0,0,1-2.67-5.84,11.93,11.93,0,0,1,.68-6.34,20,20,0,0,1,3.41-5.43,20,20,0,0,0-3.33,5.46,11.71,11.71,0,0,0-.58,6.28,13.48,13.48,0,0,0,2.69,5.72,22.34,22.34,0,0,0,4.62,4.38,27.25,27.25,0,0,0,2.7,1.71,4.38,4.38,0,0,0,3,.41,6.72,6.72,0,0,0,2.76-1.44,14.53,14.53,0,0,0,2.2-2.3,43.51,43.51,0,0,0,6-11.27v.07a36.16,36.16,0,0,0-.6-5.49,17.52,17.52,0,0,0-1.72-5.19,5.63,5.63,0,0,0-1.74-2,3.51,3.51,0,0,0-2.49-.52,7.25,7.25,0,0,0-2.47,1c-.78.49-1.57,1-2.31,1.51a21.59,21.59,0,0,0-4.08,3.67,10.26,10.26,0,0,0-2.33,4.85,8.51,8.51,0,0,0,1,5.24,18.75,18.75,0,0,0,3.45,4.25l0,0,0,0a5.9,5.9,0,0,0,1.62,2.34,1.63,1.63,0,0,0,1.27.34A2.57,2.57,0,0,0,351,359a8.43,8.43,0,0,0,1.79-2.3A18.79,18.79,0,0,0,354,354a22.5,22.5,0,0,0,1.33-5.77,12.64,12.64,0,0,0-.06-2.95,3.65,3.65,0,0,0-1.28-2.49c-.77-.59-1.86-.35-2.81-.26a5.86,5.86,0,0,0-2.67,1.11,4.27,4.27,0,0,0-1.56,2.41,6.22,6.22,0,0,0,0,2.91,7,7,0,0,0,1.24,2.67,4.41,4.41,0,0,0,.47.58c.17.18.34.36.52.52.36.3.83.66,1.29.5s.55-.79.63-1.26a10.55,10.55,0,0,0,.08-1.49A24.66,24.66,0,0,0,350.94,347.54Z"/><path class="cls-9" d="M198.25,254.21A132.75,132.75,0,0,1,183,263.75c-6.43,3.44-19.25,10.3-36.22,13.34-14.69,2.63-31.41,2.21-36.22,7.63a16.26,16.26,0,0,0-3.81,7.62,13,13,0,0,0,0,3.82c9-6.13,12.6-4.26,13.34-3.82,4.79,2.85,4.31,15-1.91,30.51,5.66-1.72,70.72-21.56,91.51-36.23,3.54-2.49,10.33-7.42,11.44-15.25A17.14,17.14,0,0,0,217.32,258c-1.06-1.24-5.08-5.57-11.44-5.72A15.2,15.2,0,0,0,198.25,254.21Z"/><ellipse class="cls-10" cx="116.28" cy="303.78" rx="11.44" ry="19.06"/><path class="cls-5" d="M114.37,305.69a5,5,0,0,1-2.44-1.84,3.23,3.23,0,0,1-.27-3,6.25,6.25,0,0,1,4.85-3.53,3.17,3.17,0,0,1,1.55.21,5.87,5.87,0,0,1,.67.43,4.85,4.85,0,0,1,.54.57,7.44,7.44,0,0,1,1.27,2.84,9.54,9.54,0,0,1-.57,6.12,5.65,5.65,0,0,1-2.09,2.3,6,6,0,0,1-3,.78,8.2,8.2,0,0,1-5.68-2.3,8,8,0,0,1-2.11-5.75,15.71,15.71,0,0,1,1.32-6.08,15.08,15.08,0,0,1,3.67-5,7.07,7.07,0,0,1,2.72-1.54,3.52,3.52,0,0,1,1.58-.08,4.12,4.12,0,0,1,.78.14l.74.29a9.32,9.32,0,0,1,4.08,4.61,18.7,18.7,0,0,1,1.55,6A24.41,24.41,0,0,1,121.43,313a12.28,12.28,0,0,1-1.6,2.67,6,6,0,0,1-2.47,1.87,4.88,4.88,0,0,1-3.09,0,9.92,9.92,0,0,1-2.78-1.39h0a6.21,6.21,0,0,1-2.47-2.48,14.3,14.3,0,0,1-1.33-3.27,14.06,14.06,0,0,0,1.36,3.25,6,6,0,0,0,2.47,2.44h0a9.7,9.7,0,0,0,2.76,1.35,4.87,4.87,0,0,0,3-.07c2-.77,3.16-2.65,4-4.49a24.25,24.25,0,0,0,2-12.08,18,18,0,0,0-1.56-5.94,9.14,9.14,0,0,0-4-4.5l-.71-.27a3.59,3.59,0,0,0-.74-.14,3.41,3.41,0,0,0-1.49.08,6.71,6.71,0,0,0-2.62,1.51,15.08,15.08,0,0,0-3.61,4.94,15.4,15.4,0,0,0-1.32,6,7.78,7.78,0,0,0,2,5.61,7.94,7.94,0,0,0,5.54,2.26,5.87,5.87,0,0,0,2.93-.75,5.46,5.46,0,0,0,2-2.22,9.43,9.43,0,0,0,.57-6,7.23,7.23,0,0,0-1.23-2.79,4.59,4.59,0,0,0-.53-.55,4.25,4.25,0,0,0-.63-.41,3,3,0,0,0-1.49-.21,6.13,6.13,0,0,0-4.8,3.44,3.15,3.15,0,0,0,.23,2.95A5,5,0,0,0,114.37,305.69Z"/><path class="cls-11" d="M201.31,256.72a147.73,147.73,0,0,1-16.87,11.85,149.89,149.89,0,0,1-18.3,9.54,98.11,98.11,0,0,1-19.68,6.15,66.76,66.76,0,0,1-10.26,1.18,55.32,55.32,0,0,1-10.28-.72,61,61,0,0,0,20.48-.78A98.18,98.18,0,0,0,166,277.65a149.06,149.06,0,0,0,18.32-9.37q4.42-2.64,8.68-5.54C195.8,260.82,198.61,258.84,201.31,256.72Z"/><path class="cls-11" d="M132.48,299c3.29-.37,6.56-.88,9.82-1.45s6.5-1.18,9.73-1.88a176.88,176.88,0,0,0,19.09-5.3,115.49,115.49,0,0,0,18.22-7.74,68.57,68.57,0,0,0,16-11.61,58.76,58.76,0,0,1-7.43,6.58,75.6,75.6,0,0,1-8.39,5.32,115,115,0,0,1-18.22,7.92A173.83,173.83,0,0,1,152.1,296,166.89,166.89,0,0,1,132.48,299Z"/><path class="cls-11" d="M127.72,316.34c3.65-1,7.28-2.17,10.9-3.33s7.24-2.3,10.84-3.51c7.2-2.43,14.35-5,21.4-7.84s14.06-5.76,20.83-9.21c3.38-1.73,6.7-3.57,9.91-5.6a56.13,56.13,0,0,0,9-6.9c-5.4,5.39-12.08,9.27-18.8,12.79s-13.73,6.56-20.79,9.39-14.26,5.3-21.48,7.68q-5.41,1.79-10.88,3.43T127.72,316.34Z"/><path class="cls-11" d="M205.32,261.88a24.31,24.31,0,0,1-4,5c-.74.77-1.57,1.46-2.36,2.18s-1.65,1.37-2.51,2a64.36,64.36,0,0,1-11.06,6.52,98.62,98.62,0,0,1-12,4.65L167.28,284,161,285.37l6.2-1.63,6.11-1.87c2-.75,4-1.38,6-2.18s4-1.59,5.86-2.55,3.8-1.91,5.68-2.92l2.72-1.67c.9-.57,1.75-1.2,2.64-1.79s1.69-1.29,2.54-1.93,1.63-1.37,2.39-2.11A24.27,24.27,0,0,0,205.32,261.88Z"/><path class="cls-11" d="M132.48,307c0-.28.33-.41.55-.5a6.66,6.66,0,0,1,.77-.19c.51-.1,1-.16,1.55-.22l3.13-.3c2.09-.18,4.17-.38,6.24-.65A98.53,98.53,0,0,0,157,302.8a85.67,85.67,0,0,0,11.88-3.94,91.53,91.53,0,0,0,11.23-5.56,76,76,0,0,1-11.08,5.92,80.75,80.75,0,0,1-11.91,4.06,91.23,91.23,0,0,1-12.38,2.22c-2.09.22-4.18.38-6.27.51l-3.13.18c-.52,0-1.05.08-1.56.16a6.57,6.57,0,0,0-.77.16C132.82,306.59,132.51,306.7,132.48,307Z"/><path class="cls-12" d="M199.55,110.15s-14.48,29.11,0,65.36-7.42,7.16-7.42,7.16S173.63,136.52,199.55,110.15Z"/><path class="cls-13" d="M223.26,45.25s-48.08,20.61-13.38,60.47-6.08,45.57-6.08,45.57,38.51-16.22-1.58-48.63S223.26,45.25,223.26,45.25Z"/><path class="cls-14" d="M259.79,15.11S219.47,46.83,253,85.67s0,73.22,0,73.22,16.67-47.12-3.51-67.89S227.38,35.63,259.79,15.11Z"/><path class="cls-15" d="M302.11,56.36s-29.49,14.24-7.31,53.79S275,192.37,275,192.37s30-29.92,19.76-58.59S268.18,71.59,302.11,56.36Z"/><path class="cls-16" d="M201.64,261.2c-4.9-2.82-12-7.9-16.2-16.48-7.11-14.48-.53-27.68,0-44.6.38-12-2.17-29.85-17.16-52.35a28.86,28.86,0,0,1,13.85,5c12.32,8.85,12.94,26.12,15.34,25.79s-.6-17,5.13-36.64c3-10.21,6.42-14.75,9.53-21.33,5.54-11.73,10.14-30.2,4.76-59.14,5.49,11.12,14.76,33.92,12.4,63a116.6,116.6,0,0,1-7.63,33c1.57-.38,18.93-4.89,25.13-21.77a35.47,35.47,0,0,0,.17-23.09s19,10.7,16.36,59.28a136.48,136.48,0,0,1,6-33.81c3.86-12.34,10.69-27.88,13.35-27.14s.2,18,0,19.38c-3,20.25-10.86,34.2-9.54,34.9,1.12.6,5.79-9.83,17.16-19.38a67.19,67.19,0,0,1,11.44-7.76c-1.67,1.34-19.52,16.12-17.16,36.84a35.73,35.73,0,0,0,5.72,15.51,15.34,15.34,0,0,0,9.53-1.94c8.38-5.1,11.28-20.1,5.72-36.84a90,90,0,0,1,9.53,46.54c-.6,8.63-2.47,30.24-19.06,48.47a70.49,70.49,0,0,1-30.5,19.39,105.4,105.4,0,0,1-63.87-4.85Z"/><path class="cls-17" d="M210.22,252.47A32.49,32.49,0,0,1,195,237c-6-13.05-.82-25.27,0-27.14a44.54,44.54,0,0,0,0-13.57c-.81-5.18-2.44-9.35-1.49-9.85.6-.31,1.89,1,3.64,3.06A71.67,71.67,0,0,1,206.41,204,110.24,110.24,0,0,1,214,136.14a60.05,60.05,0,0,0,5.71,31,56.52,56.52,0,0,0,7.63,11.64,45.51,45.51,0,0,0,1.91-9.7,49.23,49.23,0,0,0,0-7.75c-.23-2.95-.62-4.84-1.91-11.64,0,0,15.25,19.39,11.44,40.72,6.38-5.26,8.62-10.48,9.53-13.57,2.74-9.28.43-22.7,0-25.21a4.24,4.24,0,0,1-.11-1c.89-.35,14.64,33.13,13.17,48.36a45.56,45.56,0,0,1,2.76-9.13,66.71,66.71,0,0,1,2.79-6.07,81.34,81.34,0,0,1,10-14.69A90.15,90.15,0,0,0,275,192.37,89.11,89.11,0,0,0,277,206.93c0,1.9-.22,4.83-.22,4.83s4-13.57,7.81-17.45c1.67,9,3.63,27.32-5.72,45.58-3.2,6.24-7.19,14-16,19-16.1,9.05-35.68,1.51-41.16-.6A62.15,62.15,0,0,1,210.22,252.47Z"/><path class="cls-18" d="M212.13,238.9a16.52,16.52,0,0,1-5.72-5.81c-4.5-7.84-1-17.46,0-17.45.44,0,.43,2,2.38,4.36a10.36,10.36,0,0,0,1.43,1.45,9.51,9.51,0,0,0,4.13,1.94,48,48,0,0,1-2.06-13.81c-.08-8,1.75-18.18,9.37-26.91-.83,2.6-4.24,13.89-1.91,23.27a18.72,18.72,0,0,0,3.82,7.76c2.16,2.51,5.13,4.42,5.72,3.87s-2.75-3.76-3.82-9.69a25.87,25.87,0,0,1,0-7.76,66,66,0,0,1,1.91-9.69h0c1.88,5.7,3.07,10.35,3.81,13.57.67,2.9,1,4.79,1.91,7.76a64.53,64.53,0,0,0,3.81,9.69c-.52-20.16-.33-25.19,0-25.2s1.1,6.23,3.81,15.51c1.75,6,2.71,7.71,3.82,7.75,2,.09,3.62-5.18,3.81-5.81,1.32-4.3.2-6,0-15.51v-9.7h0s11.44,19.39,5.72,38.78a36.24,36.24,0,0,0,3.81-5.82,36.87,36.87,0,0,0,3.81-11.63,25.32,25.32,0,0,1-1.9,23.27,15.73,15.73,0,0,0,5.72-5.82,16.15,16.15,0,0,0,1.9-9.7c.44.66,4.07,6.33,1.76,12.39a12.25,12.25,0,0,1-3.66,5.06l7.62-5.81A57.66,57.66,0,0,1,256,246.66c-6.93,4.5-14.95,9.71-24.79,7.75C219.52,252.09,213.4,241.26,212.13,238.9Z"/><path class="cls-19" d="M213.5,252.31a257.86,257.86,0,0,1-13.53,38,259.4,259.4,0,0,1-32.22,53.55,23.89,23.89,0,0,1,17.18-.56c8.07,3,13.88,10.54,15.23,19.62,19.06-40,49.56-87.69,49.56-87.69S234.47,244.68,213.5,252.31Z"/><path class="cls-20" d="M166.8,348.58a12.49,12.49,0,0,1,3.81-7.62c5.64-4.94,15.45-2.07,21,1.9,6.28,4.53,11.78,13.94,8.58,20-3.71,7-18.33,8.21-26.58,1.32C167.13,358.8,166.82,350.33,166.8,348.58Z"/><path class="cls-5" d="M184.59,354.13a15,15,0,0,1-.12,4.13,4.09,4.09,0,0,1-.8,1.89,1.72,1.72,0,0,1-.88.54,2.16,2.16,0,0,1-1-.06,9.32,9.32,0,0,1-3.39-2.33,10.47,10.47,0,0,1-2.44-3.34,4.37,4.37,0,0,1,.1-4,5.17,5.17,0,0,1,3.42-2.22,9.92,9.92,0,0,1,7.84,2.06,13,13,0,0,1,4.74,6.67,8.41,8.41,0,0,1,.06,4.14,6.42,6.42,0,0,1-2.18,3.51,3.91,3.91,0,0,1-2,.75,14.49,14.49,0,0,1-2.09-.09,26.89,26.89,0,0,1-4.09-.7,16.72,16.72,0,0,1-7.39-3.66A9.54,9.54,0,0,1,172,358a10,10,0,0,1-.66-4.11,17.23,17.23,0,0,1,.74-4.09A15.75,15.75,0,0,1,173.8,346a7.55,7.55,0,0,1,7.15-3.5,16.15,16.15,0,0,1,7.67,3,24.72,24.72,0,0,1,5.92,5.76,18.12,18.12,0,0,1,2.06,3.6,10.27,10.27,0,0,1,.87,4.05,7.32,7.32,0,0,1-.1,1c-.06.34-.17.67-.26,1a10.59,10.59,0,0,1-.71,1.95,8.74,8.74,0,0,1-2.61,3.18,10.82,10.82,0,0,1-7.93,1.6,10.82,10.82,0,0,0,7.9-1.64,8.9,8.9,0,0,0,2.56-3.18,10.91,10.91,0,0,0,.69-1.94c.08-.33.19-.66.25-1a8.59,8.59,0,0,0,.09-1,10.32,10.32,0,0,0-.87-4,17.62,17.62,0,0,0-2.06-3.57,24.25,24.25,0,0,0-5.9-5.71,15.78,15.78,0,0,0-7.58-3,7.63,7.63,0,0,0-4,.72,7.75,7.75,0,0,0-3,2.71,16.68,16.68,0,0,0-2.39,7.77,9.75,9.75,0,0,0,.65,4,9.17,9.17,0,0,0,2.31,3.33,16.59,16.59,0,0,0,7.28,3.63,27.91,27.91,0,0,0,4.05.71,14.17,14.17,0,0,0,2,.08,3.51,3.51,0,0,0,1.85-.7,6.26,6.26,0,0,0,2.12-3.39,8.25,8.25,0,0,0,0-4,12.85,12.85,0,0,0-4.66-6.59,9.75,9.75,0,0,0-7.71-2,5,5,0,0,0-3.34,2.14,4.24,4.24,0,0,0-.1,3.92,10.47,10.47,0,0,0,2.39,3.32,9.25,9.25,0,0,0,3.35,2.34,2,2,0,0,0,1,.07,1.67,1.67,0,0,0,.85-.52,4,4,0,0,0,.81-1.87A15.36,15.36,0,0,0,184.59,354.13Z"/><path class="cls-6" d="M215.57,258.51a214.85,214.85,0,0,1-5.8,21.45,202.7,202.7,0,0,1-7.93,20.77,114.34,114.34,0,0,1-11,19.31,62,62,0,0,1-7.3,8.39,34.87,34.87,0,0,1-9.13,6.28,34.62,34.62,0,0,0,9-6.46,62.71,62.71,0,0,0,7.2-8.4,114.7,114.7,0,0,0,10.81-19.33,200.79,200.79,0,0,0,8.06-20.66c1.17-3.51,2.25-7.05,3.27-10.61S214.73,262.12,215.57,258.51Z"/><path class="cls-6" d="M224.94,269.47a124.86,124.86,0,0,1-2.07,20.4,115.29,115.29,0,0,1-5.32,19.82,78.05,78.05,0,0,1-4.23,9.37,60.81,60.81,0,0,1-5.5,8.68,50.82,50.82,0,0,1-7,7.51,45.38,45.38,0,0,1-8.55,5.65,44.76,44.76,0,0,0,8.39-5.83,50.69,50.69,0,0,0,6.89-7.53,61.61,61.61,0,0,0,5.41-8.67,80.22,80.22,0,0,0,4.13-9.35,116.77,116.77,0,0,0,5.46-19.71c.64-3.36,1.14-6.74,1.54-10.13S224.82,272.88,224.94,269.47Z"/><path class="cls-6" d="M223,258.09l2.73-3.87.17-.24-.08.28c-1.9,6.86-4.06,13.65-6.28,20.41s-4.55,13.49-7.11,20.13-5.33,13.21-8.48,19.6a88.77,88.77,0,0,1-5.23,9.32c-2,2.92-4.14,5.94-7.31,7.65,3.13-1.78,5.21-4.82,7.12-7.78a92.84,92.84,0,0,0,5.12-9.33c3.11-6.4,5.8-13,8.33-19.63s4.95-13.33,7.23-20.07,4.42-13.53,6.51-20.32l.09,0Z"/><path class="cls-6" d="M229.74,295.64c-1.76,4.45-3.67,8.84-5.67,13.19s-4.11,8.65-6.34,12.89-4.57,8.42-7.15,12.45a87.74,87.74,0,0,1-8.52,11.55l2.22-2.82c.72-.95,1.39-1.95,2.08-2.92s1.33-2,2-3,1.3-2,1.9-3c2.51-4.07,4.82-8.26,7-12.49s4.36-8.5,6.43-12.81c1.05-2.15,2.06-4.32,3.06-6.49S228.78,297.84,229.74,295.64Z"/><path class="cls-21" d="M230.66,254.21a264.74,264.74,0,0,0,17.16,118.2c2.85-10.28,11.07-17.94,21-19.54,11.33-1.83,19.71,5.12,21,6.2-21-68.63-23.77-81.77-20.47-101.89C245.41,245.53,244,246.59,230.66,254.21Z"/><path class="cls-22" d="M247.82,366.69c1-7.57,10.58-13.43,18.82-14.95,1.59-.3,16-3,22.17,6.37,3.42,5.23,2.35,11.32,1.9,13.35a22.93,22.93,0,0,1-5.72,7.62,24.6,24.6,0,0,1-15.25,5.72c-3,.16-9.54.52-15.25-3.81a16.56,16.56,0,0,1-6.18-8.52A15.19,15.19,0,0,1,247.82,366.69Z"/><path class="cls-4" d="M271.85,366.55s-11.78,10.46-10.62,2.71,18.28-13.78,15-2.71-20.94,15.09-20.94,7,7.07-16.1,15.92-18.11,18.68,9.79,8.45,17-22.6,11.2-26.14,3.15"/><path class="cls-5" d="M271.85,366.55q-1.75,1.54-3.64,2.92a20.07,20.07,0,0,1-4,2.36,4.87,4.87,0,0,1-1.13.32,1.85,1.85,0,0,1-1.18-.13,1.48,1.48,0,0,1-.71-1,4.74,4.74,0,0,1-.09-1.19,7.7,7.7,0,0,1,1.78-4.3,14.06,14.06,0,0,1,3.53-3.08,15,15,0,0,1,4.31-1.86,8.38,8.38,0,0,1,2.34-.28,4.53,4.53,0,0,1,2.31.62,3.07,3.07,0,0,1,1.35,2,6,6,0,0,1,0,2.38,14.19,14.19,0,0,1-4.68,8,19.16,19.16,0,0,1-8.27,4.33,11.85,11.85,0,0,1-4.71.24,5.84,5.84,0,0,1-2.25-.86,3.7,3.7,0,0,1-1.48-1.93,5.92,5.92,0,0,1-.2-2.39,14.28,14.28,0,0,1,.32-2.35,18.27,18.27,0,0,1,1.66-4.42,21.66,21.66,0,0,1,14.75-10.78,11.45,11.45,0,0,1,11.6,6.56,8.18,8.18,0,0,1,.65,4.65,8.39,8.39,0,0,1-2.08,4.21,17.77,17.77,0,0,1-3.65,2.94,51.31,51.31,0,0,1-8.22,4.44,24.32,24.32,0,0,1-9.06,2.13,9.12,9.12,0,0,1-4.52-1,6.88,6.88,0,0,1-1.81-1.46,8.59,8.59,0,0,1-1.22-2,8.89,8.89,0,0,0,1.24,2A6.81,6.81,0,0,0,256.6,379a9.08,9.08,0,0,0,4.49,1,24.28,24.28,0,0,0,9-2.23,50.89,50.89,0,0,0,8.16-4.47,17,17,0,0,0,3.58-2.9,8.13,8.13,0,0,0,2-4.05,7.79,7.79,0,0,0-.64-4.46,11.06,11.06,0,0,0-11.21-6.29,21.23,21.23,0,0,0-14.39,10.61,17.88,17.88,0,0,0-1.62,4.28,13.63,13.63,0,0,0-.32,2.27,5.65,5.65,0,0,0,.16,2.22,3.31,3.31,0,0,0,1.3,1.71,5.28,5.28,0,0,0,2.08.8,11.6,11.6,0,0,0,4.54-.21,18.75,18.75,0,0,0,8.11-4.21,13.83,13.83,0,0,0,4.6-7.79,5.68,5.68,0,0,0,0-2.25,2.78,2.78,0,0,0-1.21-1.77,5.93,5.93,0,0,0-4.41-.32,14.93,14.93,0,0,0-7.72,4.81,7.39,7.39,0,0,0-1.78,4.16c-.06.73,0,1.64.68,2A1.76,1.76,0,0,0,263,372a5.36,5.36,0,0,0,1.11-.3,19.88,19.88,0,0,0,4-2.3Q270.08,368.07,271.85,366.55Z"/><path class="cls-6" d="M262.62,258.51c-.39,3.91-.5,7.83-.51,11.74,0,2,0,3.92.08,5.88s.14,3.91.29,5.87.28,3.9.49,5.85l.67,5.84.91,5.8c.27,1.94.74,3.84,1.1,5.77l.56,2.88c.21.95.46,1.9.69,2.85.47,1.9.9,3.81,1.41,5.7,1.15,3.75,2.14,7.54,3.56,11.2.68,1.83,1.27,3.7,2,5.51l2.31,5.4c.39.9.72,1.82,1.17,2.7l1.3,2.63,2.61,5.27-2.72-5.22-1.36-2.61c-.47-.86-.81-1.78-1.23-2.67l-2.35-5.4c-.77-1.8-1.38-3.67-2.08-5.5-1.44-3.66-2.47-7.45-3.64-11.2-.53-1.88-1-3.8-1.46-5.7-.23-1-.49-1.9-.71-2.86l-.58-2.88c-.34-1.94-.8-3.85-1.06-5.8l-.87-5.82-.63-5.85c-.2-2-.3-3.92-.45-5.87s-.16-3.92-.25-5.88,0-3.93,0-5.89C262,266.33,262.15,262.41,262.62,258.51Z"/><path class="cls-6" d="M234.36,258.51c-.16,4.13-.16,8.27-.1,12.4s.17,8.27.39,12.39c.43,8.25,1.2,16.49,2.4,24.66a182.06,182.06,0,0,0,5,24.25,109.25,109.25,0,0,0,9.21,23A95.56,95.56,0,0,1,245.78,344a121.39,121.39,0,0,1-4.05-11.74A181,181,0,0,1,236.56,308c-1.15-8.19-1.87-16.45-2.25-24.71A244.41,244.41,0,0,1,234.36,258.51Z"/><path class="cls-6" d="M246,252.3c-.38,2.67-.69,5.35-1,8s-.55,5.36-.75,8c-.43,5.37-.73,10.75-.76,16.13-.07,2.69,0,5.38.07,8.07l.23,4c.05,1.34.25,2.68.36,4l.19,2,.32,2,.31,2,.16,1,.23,1c.32,1.3.57,2.63.94,3.92l1.29,3.83a57.58,57.58,0,0,1-3.83-15.68A124.66,124.66,0,0,1,243,284.5q.1-8.1.88-16.16C244.4,263,245.07,257.61,246,252.3Z"/><path class="cls-6" d="M252.58,283.76c-.21,2.37-.32,4.74-.36,7.11s-.07,4.74,0,7.11a128.82,128.82,0,0,0,1.09,14.16,96.44,96.44,0,0,0,3,13.87A63.54,63.54,0,0,0,262,339a57.29,57.29,0,0,1-6.06-12.86,92.29,92.29,0,0,1-3.09-13.92,120.9,120.9,0,0,1-1-14.23A109,109,0,0,1,252.58,283.76Z"/><path class="cls-6" d="M254.58,256.72c.3.63.61,1.26,1,1.86a5.6,5.6,0,0,0,.62.83c.21.24.61.47.74.18l.18-.38,0,.42q-.66,11.4-.42,22.82c.06,3.8.3,7.6.55,11.39s.71,7.57,1.26,11.34c-.71-3.74-1.27-7.51-1.62-11.31s-.57-7.6-.67-11.41-.07-7.63,0-11.44.32-7.61.7-11.41l.15.05a.41.41,0,0,1-.55.17,1.32,1.32,0,0,1-.43-.34,5.62,5.62,0,0,1-.6-.87C255.14,258,254.86,257.36,254.58,256.72Z"/><path class="cls-4" d="M265.93,381s15.39,1.91,22-13.34"/><path class="cls-5" d="M265.93,381a20.71,20.71,0,0,0,3.43-.12c.57-.05,1.13-.16,1.69-.23l1.68-.35a21.52,21.52,0,0,0,6.28-2.56,19.68,19.68,0,0,0,5.17-4.37,27.56,27.56,0,0,0,3.74-5.71c-.5,1-.91,2.11-1.48,3.11a22.48,22.48,0,0,1-2,2.85,19.27,19.27,0,0,1-5.22,4.55,20.81,20.81,0,0,1-6.45,2.51A21.52,21.52,0,0,1,265.93,381Z"/></svg>