<svg xmlns="http://www.w3.org/2000/svg" xmlns:xlink="http://www.w3.org/1999/xlink" viewBox="0 0 550 400"><defs><style>.cls-1{fill:#fff;}.cls-2{fill:none;}.cls-3{isolation:isolate;}.cls-4{clip-path:url(#clip-path);}.cls-5{clip-path:url(#clip-path-2);}.cls-6{fill:#95c6e3;}.cls-7{opacity:0.1;mix-blend-mode:overlay;}.cls-8{fill:#b9e5fa;}.cls-9{fill:#7bd3f7;}.cls-10{fill:#00b1e8;}.cls-11{fill:url(#linear-gradient);}.cls-12{fill:#0088c0;}.cls-13{fill:#00a9d3;}.cls-14{fill:#73cbe5;}.cls-15{fill:#d9f1fd;}.cls-16{fill:#d1e9f2;}.cls-17{fill:#00a2e5;}.cls-18{fill:url(#radial-gradient);}.cls-19{fill:url(#radial-gradient-2);}.cls-20{fill:url(#radial-gradient-3);}.cls-21{clip-path:url(#clip-path-3);}.cls-22{fill:#040d2e;}</style><clipPath id="clip-path"><circle class="cls-1" cx="-570" cy="-220" r="196.51"/></clipPath><clipPath id="clip-path-2"><rect class="cls-2" x="-956.98" y="-440.15" width="781.84" height="436.93"/></clipPath><linearGradient id="linear-gradient" x1="444.83" y1="316.1" x2="43.41" y2="290.17" gradientUnits="userSpaceOnUse"><stop offset="0" stop-color="#d9f1fd"/><stop offset="1" stop-color="#7bd3f7"/></linearGradient><radialGradient id="radial-gradient" cx="-773.96" cy="517.53" r="2.02" gradientTransform="matrix(0.91, 0.41, -0.77, 1.72, 1186.25, -336.14)" gradientUnits="userSpaceOnUse"><stop offset="0" stop-color="#d9f1fd"/><stop offset="0.63" stop-color="#7bd3f7"/><stop offset="1" stop-color="#00b1e8"/></radialGradient><radialGradient id="radial-gradient-2" cx="-665.9" cy="507.59" r="2.02" xlink:href="#radial-gradient"/><radialGradient id="radial-gradient-3" cx="68.64" cy="709.66" r="2.66" gradientTransform="matrix(0.97, -0.22, 0.22, 0.94, 133.97, -466.64)" xlink:href="#radial-gradient"/><clipPath id="clip-path-3"><rect class="cls-2" x="-145" y="375" width="478" height="590" rx="58.11" transform="translate(764 576) rotate(90)"/></clipPath></defs><g class="cls-3"><g id="Layer_1" data-name="Layer 1"><circle class="cls-1" cx="-570" cy="-220" r="196.51"/><g class="cls-4"><g class="cls-5"><rect class="cls-6" x="56.22" y="-65.54" width="19.72" height="67.18"/><polygon class="cls-6" points="115.23 1.99 115.23 -48.93 111.31 -48.93 111.31 -51.43 100.11 -51.43 100.11 -48.93 96.18 -48.93 96.18 1.99 115.23 1.99"/><rect class="cls-6" x="-21.25" y="-80.33" width="30.79" height="82.32"/><rect class="cls-6" x="85.44" y="-64.64" width="18.37" height="66.63"/><rect class="cls-6" x="46.31" y="-57.1" width="22.99" height="59.09"/><rect class="cls-6" x="8.79" y="-87.8" width="48.35" height="89.79"/><rect class="cls-6" x="11.05" y="-88.85" width="43.98" height="90.84"/><g class="cls-7"><rect class="cls-6" x="56.22" y="-65.54" width="19.72" height="67.18"/><polygon class="cls-6" points="115.23 1.99 115.23 -48.93 111.31 -48.93 111.31 -51.43 100.11 -51.43 100.11 -48.93 96.18 -48.93 96.18 1.99 115.23 1.99"/><rect class="cls-6" x="-21.25" y="-80.33" width="30.79" height="82.32"/><rect class="cls-6" x="85.44" y="-64.64" width="18.37" height="66.63"/><rect class="cls-6" x="46.31" y="-57.1" width="22.99" height="59.09"/><rect class="cls-6" x="8.79" y="-87.8" width="48.35" height="89.79"/><rect class="cls-6" x="11.05" y="-88.85" width="43.98" height="90.84"/></g></g></g><path class="cls-8" d="M437.44,323.94s1.64,18.68,41.49,19c26,.23,39-9.51,28.93-19Z"/><path class="cls-9" d="M429.68,319.88s-1.33-21.55-42.74-5.65c0,0,.67,17.24-8.94,27.18,0,0-15.24,14.25-41.74,2l72.55-29.49s13.25-4.63,23.19-4.63S429.68,319.88,429.68,319.88Z"/><path class="cls-10" d="M10.92,330.23s5.36,25.64,81.4,26c17.89.07,57.05-31.47,91.68-17.15C184,339,134.65,300.41,10.92,330.23Z"/><path class="cls-10" d="M4.31,278.88s-6.21,4,1.74,4.72,52.42,4.72,49.69,8.7c0,0-.25,4-11.43,10.19,0,0,16.15-2.24,16.9-3.73s4.47-5.47.74-8.45-10.68-6.21-14.41-7.45a39.62,39.62,0,0,0-11.18-1.49C33.88,281.37,4.31,278.88,4.31,278.88Z"/><path class="cls-11" d="M42.08,265.22s-26.84,1-35.78,9.93-1,8,18.88,9.94S69.67,289.52,50,299c-8.34,4-19.26,1.11-31.18,10.06S7,336.63,22.2,341.74c34.63,11.67,56.65,16.9,82.49,6s47.7-14.91,62.61-13.92,20.35,12.14,28.07,19.06c13.11,11.75,20.63,6.78,42.5-3.16s22.85-13.91,42.73-13.91,17.42,1.88,40.75,7c25.92,5.64,38.09,14.09,67.9-6.11,17.84-12.1,31.2-9.79,37.15-7.14,20.68,9.2,13.22,6.29,34.09,10.27s79.52-5.09,33.79-22.86C443,297,425.81,288.13,447.4,298.27c20.26,9.52,38.75,13.58,31.84.91-8.81-16.13-58.56-42.81-79.89-42.28-16.83.41,20.6-5.45-25.31-5.87-51.34-.46-39.77,6.23-88.47,12.2s25,3.72-20.12-17.61c-15.89-7.5-25.7-2.68-80.26,7.67-65.6,12.45-76.53,19.88-108.33,11.93S68.91,267.21,42.08,265.22Z"/><path class="cls-12" d="M326.65,323.52s11.93,5.3,19.54,3,27.5-11.59,29.82-11.92,16.23-5.3,19.88-7.62,19.21-3.32,25.84-10.27-22.2-2.32-22.2-2.32-47.71,9.27-51.68,10.27S326.65,323.52,326.65,323.52Z"/><path class="cls-9" d="M129.2,301s29.82-1,39.43,2.32,19.21,7.28,25.84,1.32,2-9.61,15.9-6.63,27.83,2,22.2,6.63-14.91,10.6,4.3,9.28,14.91,5.63,32.8,6.95,36.77,1.33,21.86-6-16-11-32.94-24.23-9.24-12.85-48.44-9.39-22,4.47-51.13,8.44S129.2,301,129.2,301Z"/><path class="cls-12" d="M242.34,300.83s-3.48,12.42,7.78,14.91A130.16,130.16,0,0,0,271,318.88c1.49,0,38.41,2.13,44,4.13,0,0-.57-24.83-9.84-25.82S242.34,300.83,242.34,300.83Z"/><path class="cls-12" d="M129.54,301.24s28.07-1.49,32.54-1S180,299,182.21,297.77s19.88-3,23.6-2.74,12.68-.5,12.68-6S129.54,301.24,129.54,301.24Z"/><path class="cls-12" d="M42.08,265.46s-3.73,7,1,11.68,5,3.73,8.2,3.73,11.43,2.73,13.42,5S102,304,111.15,303.23Z"/><path class="cls-2" d="M108.2,302.72,46,276.22a6.32,6.32,0,0,1-3.73-6l62.16,26.5A6.32,6.32,0,0,0,108.2,302.72Z"/><path class="cls-8" d="M153.6,148.06a6.17,6.17,0,0,0-3-.46L49.93,157.16l62.16,26.5,100.66-9.56a6.13,6.13,0,0,1,3,.46Z"/><path class="cls-9" d="M49.93,157.16c-.22,0-.43.06-.64.1l-.18,0-.45.11-.19.06-.46.16-.14.06,0,0c-.17.07-.33.15-.5.24l-.12.07-.45.26-.1.07-.43.31-.07.05-.11.09c-.13.11-.26.22-.38.34l-.11.09c-.14.15-.29.3-.42.45l-.08.09-.2.24a1.13,1.13,0,0,0-.1.13l-.18.24-.21.32c-.06.08-.11.17-.16.25l-.19.34-.14.27-.16.36c0,.09-.08.18-.11.27s-.09.25-.13.38a2.29,2.29,0,0,0-.09.28c0,.13-.07.27-.1.41a2.44,2.44,0,0,0-.06.26c0,.15,0,.31-.07.46s0,.16,0,.24,0,.46,0,.7l-.76,105.29a6.86,6.86,0,0,0,.31,2.15,6.34,6.34,0,0,0,.75,1.6,6.07,6.07,0,0,0,1.15,1.32,5.94,5.94,0,0,0,1.52.94l62.16,26.5a5.84,5.84,0,0,1-1.52-.94,6.07,6.07,0,0,1-1.15-1.32,6.18,6.18,0,0,1-.75-1.6,6.86,6.86,0,0,1-.31-2.15l.77-105.29a5.37,5.37,0,0,1,0-.7,1.6,1.6,0,0,1,0-.23c0-.16,0-.31.07-.46a2.3,2.3,0,0,1,.06-.28c0-.13.06-.27.1-.4l.09-.28c0-.13.08-.25.13-.38a2.14,2.14,0,0,1,.12-.28c0-.11.1-.23.15-.35l.14-.27c.06-.11.12-.22.19-.33l.16-.26.21-.32.18-.24.3-.37.08-.09c.13-.15.28-.3.43-.45l.1-.09.39-.34.1-.09c.17-.12.33-.25.5-.36l.1-.06q.23-.15.45-.27l.12-.07.55-.26a.59.59,0,0,0,.14-.06l.46-.16.2-.06.44-.11.19,0a5.93,5.93,0,0,1,.63-.1Z"/><path class="cls-8" d="M212.75,174.1a6.17,6.17,0,0,1,6.74,6.47l-.76,105.29a7.9,7.9,0,0,1-6.86,7.76l-100.65,9.55a6.16,6.16,0,0,1-6.75-6.46l.77-105.29a7.88,7.88,0,0,1,6.85-7.76Z"/><path class="cls-8" d="M49.39,162.63s-4.06-.26-4.57,6.59,1.78,27.38.76,31.95-2.79,52-1.27,58.32a45,45,0,0,0,5.08,11.92s-4.57-6.34-5.58-9.38a23.79,23.79,0,0,0-.29,3.22c-.08,2.87.27,7,2.57,9.45,3.8,4.06,16,4.82,19.27,7.61s37,19.52,37.28,16,.5-12.67-3.55-20-14.2-20.54-16-35.5l18.26,27.39s4.85-2.54-6.81-48.18c0,0,3.77-5,6.55-19.78,0,0,5.84-3,.26-17.24,0,0-2.79-4.82-15.47-3.8s-17.24-3.55-23.07-10.4S50.91,162.88,49.39,162.63Z"/><path class="cls-9" d="M91.48,270.9s-25.86,1.27-29.41,1.52-14.46-2.28-14.46-.76,2.54,3,6.09,3.3a5.79,5.79,0,0,1,4.82,3.29s1.52-2,5.32-1.26,1.78-.26,4.06,3.54,1.26.51,9.89,4.32,8.36,5.07,14.2,7.86,10.14,5.83,10.14.5-7.35-18-10.14-21.8"/><path class="cls-13" d="M67.14,169.22s5.32,7.35,17,7.35,19.28,6.34,19.78,10.9.51,15,1.27,18-1,8.11-1,16.73-2.29,19.78-.76,34.24,1.26,40.31-.51,42.59,8.37,5.08,12.17,3.56c0,0-9.13-2-8.87-11.41s-1.27-33.47-1.53-38.8.51-23.33,1.53-27.64,1-26.37,0-31.44,4.57-9.89,10.15-9.38,13.18,4.56,28.9,3.8c0,0-17.49-1.27-20-5.07s27.13-2,30.68-1.78,37.53-1.52,47.42-4.81,16,1,16,3.8c0,0,3.29-3.8-12.94-9.38s-25.61-12.68-34.74-15c0,0,13.7,6.08,16.74,8.62s15.21,8.62,21,9.13-38,4.31-46.15,4.05-33.47-1-50.21,2c0,0-4.56,1.52-11.66-1.27s-10.91-2.79-16.74-3.29S75.5,174.54,67.14,169.22Z"/><path class="cls-13" d="M46,276.22s20.34,9.13,23.38,10.65,29.41,14.46,38,15.47L104.67,295s-3,6.34-14-.76S73,285.86,68.66,285.1s-13.48-4.45-13.48-7.49a66.8,66.8,0,0,1,6.89,4.7S50.3,277.23,46,276.22Z"/><path class="cls-14" d="M214,289.12s-54.77-12-60.47-21.67c0,0-6.28-4.57-16-1.14s-30.24,4-30.24,4-2.85,27.95,8.56,30.81,18.26-6.85,57.62-5.14C173.48,296,210,293.12,214,289.12Z"/><path class="cls-14" d="M210.15,176.06s7.61-1,7.86,7.87-7.61,25.86-8.12,39.3-8.11,21.81-21.55,18.26c0,0,21,8.87,23.33-16.74s4.57,5.07,4.82,9.63-1.78,13.19-2.79,22.07-2,15,.25,19,5.83,15-4.06,18.51c0,0,12.43,1.53,8.63-17.75s-1.52-26.62.25-31.44,3.3-11.16,1-36.77,5.33-33.72-9.89-32.45"/><path class="cls-14" d="M220.55,237.43s-2.29,24.85-1.53,30.43C219,267.86,216.24,249.35,220.55,237.43Z"/><path class="cls-1" d="M130.27,181.39s16.49-1.27,23.33.51,42.6-2.29,45.39-3.81,8.88-1.77,10.91-.25,3,8.87-9.13,5.33-25.36,2.28-30.94,3-13.18.25-20.54-1.52-8.87,1.52-13.94,0S124.7,183.42,130.27,181.39Z"/><path class="cls-1" d="M213.7,220.18s2.28,26.12-2.54,40.32-1,14.2,1.52,18.51,4.57,8.12-.76,7.61-7.86.25-7.6-6.34,4.82,4.31,5.83,1-3.3-4.3-4.06-8.36,2-6.85,2.79-12.93S213.45,250.61,213.7,220.18Z"/><path class="cls-15" d="M143.21,186.21s5.58-1.78,5.58,9.63-.77,7.36.25,18.77,1.27,16.48,2.28,22.82-2,21.81-6.08,13.69c0,0-1,5.58,1.26,5.58s4.82,6.34.76,5.83-9.63-6.08-11.15-.5-2.79,5.06-9.89,5.32a67.94,67.94,0,0,0-13.69,1.52s12.42-1,15,.25,9.38,0,11.41-2.53,3-.76,6.59-1.27,8.87.76,10.65,3.55,28.65,17.24,55.53,19.78c0,0-41.08-9.64-47.42-18.26s-1.52-5.32-7.6-8.36-1.78-13.19-1.78-16.23a141.66,141.66,0,0,0-2.53-20.54c-1.53-7.36,6.55-14.32,12.63-19.65s12.35-8.3,12.35-11.85a55.06,55.06,0,0,1-14.08,11.46c-9.13,5.33-12.43,6.09-12.43-3.8S149.29,184.69,143.21,186.21Z"/><path class="cls-10" d="M108.6,272.55s-4.95,21.3,9.5,27.76c0,0,3.43,2.67,15.6-3s12.93-1.9,12.93-1.9-3.42-6.85-21.68,3.42C125,298.79,109.74,306.4,108.6,272.55Z"/><path class="cls-10" d="M143.21,265.57s8.37-3.8,12.93,4.31C156.14,269.88,153.6,265.07,143.21,265.57Z"/><path class="cls-10" d="M163.24,273.43s30.43,16,51.47,15.73C214.71,289.16,184.29,289.41,163.24,273.43Z"/><path class="cls-10" d="M219.53,187.73s-.25,14.7,1,32A88.42,88.42,0,0,1,219.53,187.73Z"/><path class="cls-10" d="M63.08,155.78s-15.06-.39-17.42,3.36-.84,10.84-.59,15.4,1.27,16.74,1.27,22.06-4.05,33-3,40.32,1.52,22.57,5.07,26.88c0,0-5.07-22.06-2-42.35s3.3-3.55,8.12,8.88,11.66,18.26,18.25,21c0,0-19.27-6.08-25.35-59.33,0,0-3.81-42.6,15-28.15,0,0-4.82-6.59-14.46-4C47.86,159.84,46.09,156.54,63.08,155.78Z"/><path class="cls-1" d="M107.45,202.69s-6.08-23.84,16-16.74C123.43,186,105.93,179.11,107.45,202.69Z"/><path class="cls-9" d="M67.64,155.52s58.07-7.09,72.27-7.09,5.58-4.06,20.79,2.53,14,7.86,19.53,9.64-23.84-9.89-26.63-10.91-6.08.51-4.31,3.55c0,0-3.8-4.31-14.45-1.26s-20.54,10.65-25.36,9.38c0,0,24.6-7.61,12.93-10.15S85.9,158.57,67.64,155.52Z"/><path class="cls-15" d="M49.69,221.24c-2-8.91-1.72,14.26,0,23.38s4,12,3.42,19.4,0,10.84,4.56,5.14.57-5.71,4.57-8.56,13.69,3.42,5.7-5.13-4.56,3.42-8-8.56S52.54,233.79,49.69,221.24Z"/><path class="cls-10" d="M59,271.91s24.09.77,28.15-.5,4.56,0,6.34,0-2.28-2.54-8.62-.51S66.63,269.89,59,271.91Z"/><path class="cls-10" d="M218.77,271.91s8.11,25.61-13.69,22.57C205.08,294.48,223.84,296.51,218.77,271.91Z"/><path class="cls-1" d="M217,197.37s-1.78,9.12,1.26,24.08C218.26,221.45,212.94,212.58,217,197.37Z"/><path class="cls-1" d="M109.74,163.64s14.7-3.8,22.56-9.89,14.46,1.78,14.46,1.78-7.1-2-9.89.5S125.2,164.4,109.74,163.64Z"/><path class="cls-1" d="M51.92,165.92S40,186.71,59.28,233.37C59.28,233.37,44.82,190.52,51.92,165.92Z"/><path class="cls-13" d="M104.66,200.15s-7.6,25.61-14.2,22.32-18.25-7.86-20.28-.51c0,0,5.32-7.35,22.06,3.3,0,0,6.84,4.31,9.38-9.64s2.54,14.71,2.54,14.71S107.45,208.27,104.66,200.15Z"/><path class="cls-9" d="M175.16,189.76s15-7.61,22.31-2.29,15.22,1.53,16.74.51,1.77.51-.51,8.12-5.83,14.2-5.32,23.32-3.56,26.63-19.78,19.28-10.65,6.34-18,10.9-15.46-2.28-10.39-13.19,10.9-12.17,7.1-17.24-4.82-3.55,3.29-8.87S168.06,195.08,175.16,189.76Z"/><path class="cls-15" d="M116.08,186.71s-8.62,1.78-7.61,17.5,1.78,19.27,1.27,24.85-1,11.41-1,17.25-.5,9.88,3.3,13.69,6.09,7.1,6.59,0-1.26-5.07-1.77-13.19-2.79-6.84,2.28-11.66,9.89,1.52,6.85-13.44-10.91-16-4.32-20.54,8.63-8.37,12.68-5.07,9.89-4.31-4.56-7.86S116.08,186.71,116.08,186.71Z"/><path class="cls-15" d="M58.26,157.56c1.14.56,9.89,3.29,16,6.59s9.89,4.06,13.44,6.34,3.29,2.79,7.6,2.28,8.88,0,3.81-4.06-8.37-2.53-8.63-5.32,5.84-4.57,9.39-4.57,5.58,2,5.83,0-2.79-6.08-9.13-3.55-5.32,2.79-12.17,3.55-10.4-.25-15.21-1.26S55.22,156,58.26,157.56Z"/><path class="cls-8" d="M98.33,178.6s6.34,8.11,12.42,4.57a26.75,26.75,0,0,1,12.17-3.55s-4.31-1-15,2.78C108,182.4,104.41,182.66,98.33,178.6Z"/><path class="cls-9" d="M148,190.52s.25,17,1.26,25.86,5.58,36-1.52,37.53c0,0,5.33,0,0-36,0,0-1.52-16,.26-27.89"/><path class="cls-1" d="M177.32,193.76,121.41,247.4S167.05,206.32,177.32,193.76Z"/><path class="cls-1" d="M204.71,224.58l-58.2,50.21S196.73,232.56,204.71,224.58Z"/><path class="cls-1" d="M188.74,212l-22.83,18.26S171.62,228,188.74,212Z"/><path class="cls-14" d="M331.69,172.05l-.19,0h-.08a3.7,3.7,0,0,0-.47,0h-.12l-.14,0-.26,0-.16,0-.16,0-.15,0c-27.22,6.33-54.43,10-81.65,16.32l.3-.06.17,0,.25,0,.15,0h.11a3.7,3.7,0,0,1,.47,0,1.23,1.23,0,0,1,.27,0l91.24,11.21,81.66-19Z"/><path class="cls-8" d="M428.87,188.38c0-.11,0-.22,0-.33v0a.78.78,0,0,1,0-.14c0-.23,0-.45-.09-.67a.22.22,0,0,0,0-.08c0-.1,0-.2-.07-.3l-.06-.31c0-.13-.08-.26-.11-.39l-.09-.3a.11.11,0,0,1,0-.05c-.06-.18-.13-.36-.2-.54a.37.37,0,0,1-.05-.11l-.22-.48-.09-.16c-.08-.16-.17-.32-.26-.47l0-.08,0,0a3.13,3.13,0,0,0-.2-.3l-.17-.26c-.07-.1-.16-.19-.23-.3a2.11,2.11,0,0,1-.19-.23h0l0,0a5.81,5.81,0,0,0-.49-.5l-.06-.07-.16-.13-.27-.24-.09-.06-.19-.14-.23-.16-.07-.05-.26-.15-.18-.1,0,0-.49-.22h0l-.05,0c-.15,0-.29-.11-.44-.15l-.06,0-.2-.05-.27-.07-.19,0-81.66,19,.47.11.19,0,.54.19h0c.18.07.36.16.54.25l.17.1.34.21.22.15.28.21.27.23.23.2c.16.16.32.32.48.5l.05.06a2.31,2.31,0,0,1,.2.24l.22.29a2.61,2.61,0,0,1,.19.27l.2.3a.56.56,0,0,0,.05.08l.26.47.08.17c.08.15.15.3.22.46s0,.09,0,.13.15.38.22.58.06.22.1.33.07.24.1.36.05.22.07.33.05.24.08.36.07.46.09.69c0,.05,0,.09,0,.14a3,3,0,0,1,0,.42c0,.12,0,.24,0,.36v111c0,.22,0,.43,0,.63s0,.29,0,.43-.08.55-.14.81a4.56,4.56,0,0,1-.13.53l0,.09-.15.46-.06.14-.18.41-.08.16-.22.41-.15.23-.09.14a3.15,3.15,0,0,1-.22.29l-.07.09a3.65,3.65,0,0,1-.31.36l-.06.06a3.5,3.5,0,0,1-.28.27l-.13.1-.24.19-.14.11-.25.16-.15.09-.26.13-.15.07-.29.12-.14.05a3.66,3.66,0,0,1-.44.13c27.21-6.33,51-22.16,78.23-28.49l.44-.13.14-.05.29-.12.16-.07.25-.13.16-.1.23-.15.16-.11.23-.19.13-.1.28-.27.06-.06.3-.34,0,0L424,295a3.15,3.15,0,0,0,.22-.29c0-.05.06-.1.09-.14l.1-.14s0-.07.05-.1.15-.26.22-.4l.06-.11,0-.05c.07-.14.13-.28.19-.43a1,1,0,0,0,0-.1v0c.05-.15.11-.31.15-.46l0-.09h0l.08-.29c0-.09,0-.18.07-.28s.07-.39.1-.58c0,0,0-.09,0-.13s0-.32.05-.49h0q0-.32,0-.63l3.41-101.45v-.05C428.89,188.65,428.88,188.52,428.87,188.38Z"/><path class="cls-9" d="M341.27,199.58c3.31.53,6,4.16,6,8.23v111c0,4.14-2.75,7.16-6.15,6.74L249.85,314.3c-3.31-.53-6-4.17-6-8.23v-111c0-4.14,2.75-7.16,6.15-6.74Z"/><path class="cls-8" d="M251.44,311.1s19.78-9.64,26.37-16.23,18.52-8.37,23.33-9.39,22.06-16.73,25.11-19.77,17.24-2.54,18.51,1.77,1.26,5.58,1.26,12.43.26,9.89.26,15-1.52,10.39-1.27,16,3,6.85.25,10.4-3.54,3.29-11.91,1-20.29-2.79-24.35-5.07-11.66-3.8-18.76-3-8.87,2.53-16.74,1.27S245.36,316.42,251.44,311.1Z"/><path class="cls-16" d="M321.28,205.61s-3.15,3.8-1.63,13.7a123.33,123.33,0,0,1,1.52,19.77c0,3,1.14,9.13,1.14,15.6s9.13,5.32-1.9,13.31-13.69,11.79-20.91,14.45-13.32,3.8-21.31,10.27-28.14,16.36-28.14,16.36-5.59-30-6.17-47.92c-.86-26.68,0-29.92,0-40.57s.7-11.17-.3-22.58c-.94-10.78,2.67-8.74,17.88-5.7s15.59,3,27.77,3.42,15.21,0,20.53.38,14.46-1.14,14.84,2.66S321.28,205.61,321.28,205.61Z"/><path class="cls-9" d="M318.51,219.24s1.9,16.42,1.9,25.17.51,12.29.39,16.73c-.11,3.8,2.27.38-2.67,4.57s-15.87,13.23-29.41,19.52C281.78,288.45,258,305,258,305s1.36,0,9-10.28,18.44-15.2,25.28-23.57,12.14-8.52,15.94-16.89,6-20.08,7.5-23.5-3.74-12.35,2.35-19.57S318.13,207.82,318.51,219.24Z"/><path class="cls-10" d="M329.92,200.29s13.32-1.72,15.41,11.22-1.15,14.26-.95,19.77,1.14,15.79-2.67,23.21-5.51,16.92-21.49,24.34-18.44,12.74-20,17.49c0,0,12.36-14.45,28.52-17.87s11.22-10.27,13.31-15.22,3.24-1.52,3.24,2.1-.95,12.36-.19,15.78.76,6.28,1.14,11.6,1.71,22.44,1,27.77,3-25.49,1.14-40.51,0-25.86.76-35-.19-19.59.19-23.58-2.85-21.68,5.52-23.2,14.07-1.34,24.15-3.81,12.55-2.28,16.54-4.75,28.83-11.28,32.39-5c0,0-1.58-5.67-12-4.72s-21.68-2.48-27.38-2.48a177.49,177.49,0,0,0,31.18,3.43s-15.67,2.28-23,5.7c-5.51,2.57-7.43,2.67-18.45,5.14-8,1.78-24.72,6.84-40.51,6.27s-45.26-6.84-55-6.84a181.8,181.8,0,0,1-21.49-1.52,98,98,0,0,0,22.63,3c11.22,0,32.52,4.37,33.09,6.28s-5.13,10.26-15.78,11.6-12.56.38-16,7.79c0,0,4.19-7,15.22-5.32s10.45-2.66,15.4-5.33S320,200.29,329.92,200.29Z"/><path class="cls-10" d="M347.23,320.48s-.57,7.35-11.86,4.56S317.5,323.9,315,323s-16.1-3-29.92-4.18-33-.76-38.29-6-2.47-32.84-.95-35c0,0-4.88,26.89.45,28.79,0,0,5.91,3-2.08-35.79,0,0,8.56,24,4,38.79,0,0-4,4,12.55,5.13s40.51.57,44.5,3.43S345.89,326.16,347.23,320.48Z"/><path class="cls-9" d="M361.79,263.43s24.83.41,30.83.41,17.21-1.61,19.62,1.6,3.2,5.6,5.2,7.2,5.6-.8,3.21,8.41-6,10.41-18.82,14.41-18.42,4.41-22,7.61-11.61,11.61-17.21,6.81-8-26-8.41-33.23S355.79,262.64,361.79,263.43Z"/><path class="cls-10" d="M426.91,183.55s6.47,2.47.76,35.18c0,0,4-35.94-8.55-36.51C419.12,182.22,422.35,179.94,426.91,183.55Z"/><path class="cls-15" d="M380.51,195.34c-4.47.31-19.4,4.56-24.34,4.56s-5.52,2.1-5.52,9.13,0,4.38,1.33,13.13,2.86,4.56,1.14,12.36a55.58,55.58,0,0,0-1.71,15.21c0,5,.3,40,1.63,44.9A42.63,42.63,0,0,0,358,305s-3.52-49-1.24-57.18,5.32-15.4,3-22.44-4.94-4.38-1.71-11,1.14-8.18,8-9.32,8,0,13.12-3.61S391.54,194.58,380.51,195.34Z"/><path class="cls-10" d="M346.53,324.53s21.81-6.59,25.11-8.87,6.08-3,8.36-3,6.85-3.05,10.4-4.82,10.14-5.58,14.2-6.09,22.06-2.53,21-12.42,2.54-42.85,1.53-55.53c0,0-.77,21.3-2.29,31.44s-7.1,5.58-8.87-2.79c0,0-.76,6.09,6.34,13.69,0,0,5.07,9.89-.25,15.72s-7.11,5.58-11.92,5.84-8.37,2.28-11.67,3.54-4.81,4.06-9.89,5.33-4.81,4.31-9.89,4.31S359,320.48,346.53,324.53Z"/><path class="cls-9" d="M397.75,190.9s22.57-11.41,25.11-4.81,3.54,13.94,3.54,33.72-2,29.92-5.83,26.12-3.8-2-3-16,4.82-16.48,1.78-23.33S417.53,197,413.22,195s-6.59,7.61-13.44,4.06S392.68,193.19,397.75,190.9Z"/><path class="cls-1" d="M348.31,262.67s2,23.07,2.28,31.94,0,19.53-.76,23.08,3,3.29,4.06,2.28,3-4.31,6.34-5.58-2.79-1.26-5.33-8.87-3-6.09-3-14.2S350.33,269,348.31,262.67Z"/><path class="cls-1" d="M248.59,301.08c.08,3.8.7,11.41,4.5,11.79s25.87,0,30.43,1.14,26.81,4.1,36.13,5.72a99.22,99.22,0,0,0,19.89.9,113.33,113.33,0,0,0-19.38-4.6c-8.81-1.28-21.75-1.84-35.51-4.08-11.64-1.88-10.41,1.3-23-2.88s-11.58-29.35-11.58-29.35S248.21,282.82,248.59,301.08Z"/><path class="cls-1" d="M344.38,265s-.77,11.79.76,31.95-4.44,24.19-4.44,24.19,4.82-10.5,2.15-29.9S342.09,271,344.38,265Z"/><path class="cls-12" d="M352,199.14s-4.18,7.23-2.28,28.15c0,0,.76,14.83-1.14,26.63,0,0,0-24-1.14-37.28S352,199.14,352,199.14Z"/><path class="cls-12" d="M348.18,324.28S368.34,319,374,313.63C374,313.63,356.93,321.62,348.18,324.28Z"/><path class="cls-12" d="M418.16,179.75s14.46-2.29,11.8,19.39C430,199.14,430.72,181.27,418.16,179.75Z"/><path class="cls-12" d="M426.72,255.82s-1.33,22.44-1.14,30.05c0,0,2.28,9.69-8.36,13.31,0,0,9.5-3,7.6-15.79S426.34,267,426.72,255.82Z"/><path class="cls-12" d="M319.65,195.72S344,201.24,363,194.39C363,194.39,345.52,203.14,319.65,195.72Z"/><path class="cls-12" d="M342.09,263.23s3.05,16.55-15.21,15.41C326.88,278.64,342.09,277.12,342.09,263.23Z"/><path class="cls-17" d="M277.81,182.6s24.54-6.09,28.72-6.28,20.73-4.18,23-4.75,3.43-.38,15.41,1.33,46.27,3.11,58.63,6c0,0-56-4.63-69.66-6.34s-7.42,12-3.05,12.36c0,0-11-1.33-6.65-10.84C324.22,174,299.11,178,277.81,182.6Z"/><path class="cls-8" d="M297.59,191.92s21.56,2,26.12,3,13.69,1.27,17.5,1.78,14.45-.76,23.32-4.82.74-2.66.74-2.66-17.47,4.43-26.09,3.16-39-6.17-44.57-3.63S294.55,191.66,297.59,191.92Z"/><path class="cls-8" d="M330.3,173.41s-7.1,4.31.76,9.63,15.32-.75,11.67-2c-20.46-7.17,2-4.06,7.86-2.54s11.15,0,3.8-1.27S334.11,172.14,330.3,173.41Z"/><path class="cls-1" d="M368,192.11s8.69-1,11.47-1.21,10.78-2.71,16.74-5.32a79,79,0,0,1,14.2-4.31c.76,0-7.56.63-11.1.88s-9.94,5.46-13.5,5.21S368,192.11,368,192.11Z"/><path class="cls-10" d="M263.61,304.25c-.57,2.47,2.29-2.29,7.61-5.07s8.12-7.1,11.16-8.37,8.11-2,14.2-4.06,19-9.63,22.06-13.69,5.32-7.61,8.11-8.62c0,0-6.34,4.06-8.87,6.84s-5.33,5.08-7.86,6.09-6.09,5.33-12.43,6.59-19.52,6.59-22.82,10.65S264.38,301,263.61,304.25Z"/><path class="cls-1" d="M253.54,194c2.4.13,19.75,1.08,27.36,2.85s32.92,3.31,32.92,3.31-25.57-.28-32.92-.28a179.25,179.25,0,0,1-24.38-2.34c-4.39-.7-6.24.81-8,6.13s-.76,9.64-2.28,12.93-1.45-18.6.58-20.63S249,193.73,253.54,194Z"/><path class="cls-10" d="M275.15,182.79s-20.54,4.56-25.1,4.94-11,3.05-6.47,18.64c0,0,1.52,14.07,0,22.06,0,0,2.67-7.61,0-30.43,0,0,4.19-11,13.32-6.46,0,0,8.36.38,11,.76,0,0-10.6-1.24-14.42-3.47C253.5,188.83,263.74,185.83,275.15,182.79Z"/><path class="cls-1" d="M362.6,309.88a27.87,27.87,0,0,0,9.61-1.21c5.2-1.6,4-.8,10-4s6.41-4,10.81-5.61,23.62-1.6,24.82-4.8,4.81-1.6,3.2-9.21-6.4-16-6.8-8.4,6.8,3.6-.4,10.4-.8,6.81-9.61,6.81-13.61-2-18,3.6S353.79,305.07,362.6,309.88Z"/><path class="cls-1" d="M394.18,205.17l-35.37,84.45S381.63,237.13,394.18,205.17Z"/><path class="cls-1" d="M412.21,210.17,395.72,252S411.44,215.75,412.21,210.17Z"/><path class="cls-1" d="M408.91,259.37,398,285.48S408.15,262.92,408.91,259.37Z"/><path class="cls-1" d="M295.06,201.05l-33.22,49.44S294,204.09,295.06,201.05Z"/><path class="cls-1" d="M334.61,206.37l-28.9,52.74S333.09,212,334.61,206.37Z"/><path class="cls-1" d="M315.85,265.45,283.65,305S313.06,269.51,315.85,265.45Z"/><path class="cls-10" d="M250.18,186.85s29.41-7.36,34.23-7.1,16,2.53,19,2.79-4.05,2.53-13.69,2.79-25.1,2-32,2.28S243.84,189.64,250.18,186.85Z"/><path class="cls-12" d="M243.46,206s-1.78-11.15,1.14-12,24.72-2.67,24.72-2.67,39.05-2.53,44.5-4.18l-47.29,2.41-21,1.52-3.16,2.28S240.29,198.38,243.46,206Z"/><path class="cls-12" d="M248.4,187.23s29.54-8,36.26-7.74a130,130,0,0,1,18.64,2.66c1.39.39,6.08.64,4.81.76s-15.33-2.53-17.87-2.53-2.66-.25-6.21-.13S253.35,187.1,248.4,187.23Z"/><path class="cls-2" d="M208.58,195.85l-62.16-26.5a6.32,6.32,0,0,1-3.74-6l62.16,26.5A6.33,6.33,0,0,0,208.58,195.85Z"/><path class="cls-8" d="M254,41.18a6.31,6.31,0,0,0-3-.45L150.3,50.29l62.16,26.5,100.66-9.56a6.29,6.29,0,0,1,3,.45Z"/><path class="cls-9" d="M150.3,50.29l-.63.09-.19,0c-.15,0-.3.07-.44.12l-.2.05-.45.17-.15.06h0l-.5.25-.13.07-.44.26-.11.07-.43.3-.06.06-.11.09-.39.33-.1.1c-.15.14-.29.29-.43.44l-.08.1-.2.24-.1.12-.17.25a3.62,3.62,0,0,0-.22.32l-.16.25c-.06.11-.13.22-.19.34l-.13.27a3.73,3.73,0,0,0-.16.35l-.12.28c-.05.12-.09.25-.13.38l-.09.27c0,.14-.07.27-.1.41l-.06.27c0,.15-.05.31-.07.46l0,.23a5.53,5.53,0,0,0,0,.71l-.77,105.28a13.74,13.74,0,0,0,1.06,3.76,11.91,11.91,0,0,0,2.68,2.26l62.16,26.5a6.05,6.05,0,0,1-1.52-.94,6.36,6.36,0,0,1-1.16-1.32,6.78,6.78,0,0,1-.75-1.61,7.45,7.45,0,0,1-.31-2.15l.77-105.28c0-.24,0-.47,0-.71l0-.23c0-.15,0-.31.07-.46l.06-.27c0-.14.07-.27.1-.41l.09-.27c.05-.13.09-.26.13-.38l.12-.28a3.73,3.73,0,0,1,.16-.35c0-.09.09-.18.14-.27l.18-.34c.06-.08.11-.17.16-.25a3.62,3.62,0,0,1,.22-.32l.17-.24.31-.38.07-.08a6.14,6.14,0,0,1,.43-.45l.11-.1c.12-.11.25-.23.38-.33l.11-.09a5.74,5.74,0,0,1,.5-.36l.1-.07.44-.26.13-.07a5.52,5.52,0,0,1,.55-.26l.14-.06.45-.16.2-.06a3.54,3.54,0,0,1,.44-.11l.19-.05q.31-.06.63-.09Z"/><path class="cls-8" d="M313.12,67.23a6.17,6.17,0,0,1,6.75,6.47L319.1,179a7.88,7.88,0,0,1-6.85,7.76L211.59,196.3a6.18,6.18,0,0,1-6.75-6.47l.77-105.28a7.9,7.9,0,0,1,6.85-7.76Z"/><path class="cls-8" d="M149.76,55.75s-4-.25-4.56,6.59,1.77,27.39.76,32-2.79,52-1.27,58.33a44.79,44.79,0,0,0,5.07,11.91s-4.56-6.34-5.58-9.38c0,0-1.52,8.62,2.29,12.68s16,4.82,19.27,7.61,37,19.52,37.27,16,.51-12.68-3.55-20-14.2-20.54-16-35.5c0,0,6.84,26.12,18.25,27.38,0,0,4.31,1-7.35-44.62,0,0-2.54-19.27,7.1-23.33,0,0,5.83-3,.25-17.24,0,0-2.79-4.82-15.46-3.81S169,70.71,163.2,63.87,151.28,56,149.76,55.75Z"/><path class="cls-9" d="M193.88,164.53s-27.89.76-31.44,1S148,163.26,148,164.79s-.08,2.67,2.93,4.56a22.16,22.16,0,0,0,8.73,2.66v-4a13.19,13.19,0,0,1,6.26,5.2c2.29,3.81,5.17,2.56,13.79,6.37s6.83,3.44,12.66,6.23,10.14,5.83,10.14.51-5.83-18-8.62-21.81"/><path class="cls-13" d="M167.51,62.34s5.33,7.36,17,7.36S203.77,76,204.28,80.6s.5,15,1.27,18-1,8.12-1,16.74-2.28,19.78-.76,34.23,1.27,40.32-.51,42.6,8.37,5.07,12.18,3.55c0,0-9.13-2-8.88-11.41s-1.27-33.47-1.52-38.79.51-23.33,1.52-27.64,1-26.37,0-31.45,4.56-9.88,10.14-9.38,13.19,4.57,28.91,3.81c0,0-17.5-1.27-20-5.07s27.13-2,30.68-1.78,37.53-1.52,47.42-4.82,16,1,16,3.81c0,0,3.3-3.81-12.93-9.39s-25.61-12.68-34.74-15c0,0,13.69,6.09,16.74,8.62s15.21,8.63,21,9.13-38,4.31-46.15,4.06-33.47-1-50.2,2c0,0-4.57,1.52-11.67-1.27s-10.9-2.79-16.73-3.3S175.88,67.67,167.51,62.34Z"/><path class="cls-13" d="M146.42,169.35s20.33,9.13,23.37,10.65,29.42,14.45,38,15.47L205,188.12s-3,6.33-13.95-.77S173.34,179,169,178.22s-8.36-6.33-8.36-9.38c0,0-1,4.31,1.77,6.59C162.44,175.43,150.68,170.36,146.42,169.35Z"/><path class="cls-15" d="M213.16,80.09s-4.32,2.29-3.3,14.46,1,21-.25,28.4-2.54,11.15-1.53,19.77S210.62,161,210.62,161s.76-15.75,2.28-24.12,3.23-17.46,9.57-22.28,20.18.83,22.63-10.08c2.61-11.58,1.44-5.45,1.44-15.36,0-9.14-2.38-5.56-12-5.56S222.79,76.8,213.16,80.09Z"/><path class="cls-14" d="M314.36,182.25s-54.76-12-60.47-21.68c0,0-6.27-4.56-16-1.14s-30.24,4-30.24,4-2.85,28,8.56,30.81,18.25-6.85,57.62-5.13C273.86,189.1,310.37,186.25,314.36,182.25Z"/><path class="cls-14" d="M310.53,69.19s7.6-1,7.85,7.86-7.6,25.87-8.11,39.3-8.11,21.81-21.55,18.26c0,0,21,8.87,23.33-16.73s4.56,5.07,4.81,9.63-1.77,13.19-2.78,22.06-2,15,.25,19,5.83,15-4.06,18.51c0,0,12.43,1.52,8.62-17.75s-1.52-26.63.26-31.44,3.29-11.16,1-36.77,5.33-33.72-9.89-32.46"/><path class="cls-14" d="M320.92,130.55s-2.28,24.86-1.52,30.43C319.4,161,316.61,142.47,320.92,130.55Z"/><path class="cls-1" d="M230.65,74.52s16.48-1.27,23.33.5,42.6-2.28,45.39-3.8,8.87-1.78,10.9-.25,3.05,8.87-9.13,5.32-25.35,2.28-30.93,3a59,59,0,0,1-20.54-1.52c-7.35-1.77-8.88,1.52-13.95,0S225.07,76.54,230.65,74.52Z"/><path class="cls-1" d="M314.08,113.31s2.28,26.12-2.54,40.32-1,14.2,1.52,18.51,4.56,8.11-.76,7.61-7.86.25-7.61-6.34,4.82,4.31,5.84,1-3.3-4.31-4.06-8.37,2-6.84,2.79-12.93S313.82,143.74,314.08,113.31Z"/><path class="cls-15" d="M243.58,79.33s5.58-1.77,5.58,9.64-.76,7.35.25,18.76,1.27,16.49,2.29,22.82-2,21.81-6.09,13.7c0,0-1,5.58,1.27,5.58s4.82,6.34.76,5.83-15.6-6.09-17.12-.51-2.79,5.07-9.89,5.32-4.18.76-7.73,1.53c0,0,6.46-1,9,.25s9.38,0,11.41-2.54,9-.76,12.55-1.26,8.88.76,10.66,3.55,28.65,17.24,55.53,19.77c0,0-41.08-9.63-47.42-18.25s-1.52-5.33-7.61-8.37-1.77-13.19-1.77-16.23a142.3,142.3,0,0,0-2.54-20.54c-1.52-7.35,8.37-15,14.45-20.28s4.32-7.1,4.32-10.65c0,0,1.26,5.58-7.87,10.9s-12.42,6.09-12.42-3.8S249.67,77.81,243.58,79.33Z"/><path class="cls-10" d="M209,165.67S204,187,218.48,193.44c0,0,3.42,2.66,15.59-3S247,188.49,247,188.49s-3.43-6.84-21.68,3.43C225.33,191.92,210.11,199.53,209,165.67Z"/><path class="cls-10" d="M243.58,158.7s8.37-3.8,12.94,4.31C256.52,163,254,158.19,243.58,158.7Z"/><path class="cls-10" d="M263.61,166.56s30.43,16,51.48,15.72C315.09,182.28,284.66,182.54,263.61,166.56Z"/><path class="cls-10" d="M319.91,80.85s-.26,14.71,1,32A88.52,88.52,0,0,1,319.91,80.85Z"/><path class="cls-10" d="M163.45,48.91s-15.06-.39-17.42,3.35-.83,10.84-.58,15.41,1.27,16.74,1.27,22.06-4.06,33-3,40.32,1.52,22.57,5.07,26.88c0,0-5.07-22.06-2-42.35s3.29-3.55,8.11,8.88,11.67,18.25,18.26,21c0,0-19.27-6.08-25.36-59.33,0,0-3.8-42.6,15-28.15,0,0-4.81-6.59-14.45-4.06C148.24,53,146.47,49.67,163.45,48.91Z"/><path class="cls-15" d="M176.89,76.55s16,.25,19,.5,4.06,2,4.31,8.37,3.55,5.83-2,10.65-5.63,11.71-5.38,16a74.74,74.74,0,0,0,1.58,13.9c1.27,5.58,7,30.47,7,30.47s-5.85-14.26-7.12-19.08-4.82-15.35-4.06-21.44,2.66-6.27-.13-11.34S187.24,98,191.3,93.45,201,83.78,196.43,81,176.89,76.55,176.89,76.55Z"/><path class="cls-15" d="M160.16,52.71s9.81,7.07,15.39,8.34,7.68,2.81,12.25,4.34,14.7,2.53,16,4.56,8.88,1.77,15.22,0,30.53-2.75,30.53-2.75-23.18-2.83-31-2.32-23.33-4.06-34-4.56S155.34,45.86,160.16,52.71Z"/><path class="cls-1" d="M207.83,95.82s-6.09-23.84,16-16.74C223.8,79.08,206.31,72.23,207.83,95.82Z"/><path class="cls-9" d="M168,48.65s58.07-7.1,72.27-7.1,5.57-4.06,20.79,2.54S275,52,280.6,53.72,256.77,43.83,254,42.82s-6.09.51-4.31,3.55c0,0-3.81-4.31-14.46-1.27s-20.53,10.65-25.35,9.38c0,0,24.6-7.6,12.93-10.14S186.28,51.69,168,48.65Z"/><path class="cls-9" d="M285.17,56.77s8.62,5.83,13.69,7.35.76,1.77-10.4,2.79-17.74.25-27.13,2-9.89,0-7.86-2.54,2.79.25,6.59.51.26.51,8.88-.76,19.27.5,15.47-3.05-4.06-1.52-8.37-3.54-6.59-3.81-5.58-4.57,3.3-1.52,6.85,1S288,60.32,285.17,56.77Z"/><path class="cls-15" d="M150.08,106.66c-2-8.9-4.11,13.39-4.33,22.44-.23,9.28,3.57,20.41,3,27.83s1.68,8.88,4.55,6.08c5.24-5.1,2.17-10.36-1.26-22.34S152.93,119.21,150.08,106.66Z"/><path class="cls-10" d="M159.4,165s24,.3,28.14-.51,5.61,1.14,7.39,1.14S191.6,162,185.26,164,167,163,159.4,165Z"/><path class="cls-10" d="M319.15,165s8.11,25.61-13.7,22.57C305.45,187.61,324.22,189.64,319.15,165Z"/><path class="cls-1" d="M317.37,90.49s-1.78,9.13,1.27,24.09C318.64,114.58,313.32,105.71,317.37,90.49Z"/><path class="cls-1" d="M210.11,56.77s14.71-3.81,22.57-9.89,14.45,1.77,14.45,1.77-7.1-2-9.89.51S225.58,57.53,210.11,56.77Z"/><path class="cls-1" d="M152.3,59.05s-11.92,20.79,7.35,67.45C159.65,126.5,145.2,83.65,152.3,59.05Z"/><path class="cls-1" d="M273.25,92.27l-56.29,51S264.12,102.92,273.25,92.27Z"/><path class="cls-1" d="M302.92,143.23l-41.84,32S289.23,156.17,302.92,143.23Z"/><path class="cls-1" d="M302.92,96.83l-52.49,51.73S295.31,106.72,302.92,96.83Z"/><path class="cls-12" d="M146.42,169.35,169.79,180S155,177.2,146.42,169.35Z"/><path class="cls-14" d="M494.35,199.9l.14.06.06,0,.32.17.06,0h0l.09.07.17.12.1.08.1.08.09.09c16.39,15.35,33.85,28.85,50.24,44.21l-.19-.16-.11-.09-.16-.12-.11-.07-.07,0-.33-.19-.2-.09-68-28.91-49.16-46.06Z"/><path class="cls-8" d="M420.17,172.16l.15-.22v0l.07-.09a4.46,4.46,0,0,1,.33-.43l0-.05.16-.18.17-.19.24-.22.18-.18,0,0,.35-.29.08-.06.35-.24.12-.08.37-.22.07,0h0l.26-.13.22-.11.29-.11.22-.09H424l.54-.16.07,0a.9.9,0,0,0,.16,0l.29,0h.08l.19,0,.22,0H426l.43,0h0l.37.07h.05l.16,0,.21.06.15.06L476.6,215.2l-.36-.12-.16,0-.45-.09h0l-.47,0h-.48l-.22,0-.28,0-.27,0-.24.05-.54.16-.06,0a1.57,1.57,0,0,0-.23.09,1.69,1.69,0,0,0-.27.11l-.24.11a2.1,2.1,0,0,0-.26.13l-.07,0-.37.22-.13.08c-.11.08-.22.15-.33.24l-.09.06-.39.32-.19.19-.22.21a1.8,1.8,0,0,0-.19.2l-.19.22a3.79,3.79,0,0,0-.34.45l-.07.08-.18.29-.16.24-44.65,77.19a3.75,3.75,0,0,0-.24.44c-.05.11-.1.21-.14.32s-.17.41-.24.61-.08.29-.11.43,0,.05,0,.07-.06.26-.08.38,0,.09,0,.13,0,.24,0,.35v.14c0,.13,0,.25,0,.38v.22a.57.57,0,0,1,0,.13l0,.29s0,.06,0,.09,0,.26.07.38a.64.64,0,0,1,0,.07l.09.3s0,.08,0,.12l.09.23.06.13.11.21a.75.75,0,0,0,.07.12l.12.19c0,.05.06.08.08.12l.16.2.07.09.26.27c-16.39-15.36-26.57-35.95-42.95-51.3l-.26-.27-.08-.09-.15-.2a1,1,0,0,1-.08-.11l-.12-.2-.08-.12-.1-.21-.06-.13-.09-.23a.61.61,0,0,0-.05-.12c0-.1-.06-.2-.08-.3a.14.14,0,0,1,0-.07c0-.11,0-.23-.07-.35a0,0,0,0,1,0,0,.25.25,0,0,0,0-.08l0-.3s0-.08,0-.13,0-.09,0-.14v-.08c0-.12,0-.25,0-.37a.41.41,0,0,1,0-.11v0c0-.13,0-.25,0-.38s0-.06,0-.09h0c0-.13.05-.26.08-.39s0-.05,0-.07h0c0-.08.05-.15.07-.23l.06-.22c.05-.15.1-.3.16-.45l.05-.09c.05-.13.1-.25.16-.37h0c.07-.15.15-.29.23-.44L420,172.46l0,0C420.05,172.34,420.11,172.25,420.17,172.16Z"/><path class="cls-9" d="M476.6,215.2c-2.52-1-5.82.5-7.46,3.32l-44.65,77.19c-1.67,2.88-1,6.08,1.57,7.16l68,28.91c2.52,1,5.83-.49,7.46-3.32l44.66-77.18c1.66-2.88,1-6.09-1.57-7.17Z"/><path class="cls-9" d="M542,243s9.41.08.6,14.87c-9.38,15.72-8.75,14.26-10.92,18.4-2.83,5.38-7.25,12.4-9.24,15.84s-17.53,45-29.25,39.58l-9.71-7Z"/><path class="cls-8" d="M494.22,328.91s-9.89-14.66-11.82-21.9S472.89,293.74,470,291.1s-8.61-20.52-9.51-23.86-11-8.7-13.58-6.21-3.13,3.37-5.89,8.13-4.15,6.78-6.19,10.3-3.13,7.85-5.55,11.63-4.87,3.53-4.36,7.13,1.15,3.72,7.88,5.5,15.24,6.22,19,6.27,9.64,2,14.27,5.43,5.16,5.33,11.13,7.62S496.3,335.06,494.22,328.91Z"/><path class="cls-8" d="M468.07,220.1s-.86,4.8-6.28,10.84-4.78,6.77-6,8.89-1.34,7-3.94,11.49-9.68,10-2.43,21.6,3.71,3.15,9.5,9,11.1,10,16.08,18.84,20.13,26.83,20.13,26.83,15-18.39,22.34-31.11c6.86-12,9.84-17,14.12-24.42s4.29-7.41,6.82-15.12c2.84-8.62,8.54-10.6-7.12-16.84s-16-6.44-27.73-12.86-12.92-5.05-18.12-7.71-12.76-10.1-14.65-7.66S468.07,220.1,468.07,220.1Z"/><path class="cls-10" d="M484.21,220.26s-8.57-6.55-15.23,1.6S464,232.24,461.69,236s-7.15,10.52-7.49,17.21-3,14,5.15,25.58,7.71,16.29,6.85,20.21c0,0-2.78-15-12.64-23.92s-3.68-11.65-3.14-15.94-1.64-2.35-3.09.16-4.32,9-6.22,11.06-3.06,4.05-5.46,7.61-10.22,14.92-11.84,18.93S432,278,439.32,268.26s10.41-18,13.55-24.65,8-13.54,9.36-16.48,10.7-13.93,5.49-18.35-9.25-6.59-15.26-12.37-7.82-6.64-9.6-10S427.35,167,422.34,170c0,0,3.37-3.32,10.27,1.55s16.07,7,20,9.3a142.28,142.28,0,0,1-23.07-10.17s8.87,8.89,13.71,13.23c6.34,5.7,6.48,7.41,10.77,11,5,4.22,14.44,14.71,25.65,20.66s34.24,13.45,41,17.35a144.46,144.46,0,0,0,15.56,7.59,77.81,77.81,0,0,1-17-7c-7.81-4.51-24.38-10-25.55-8.95s-.56,9.21,6.31,14.42,9.94,11.7,9.34,18.24c0,0,.25-12.2-8.12-15.45s-8.19-2.32-11.25-8.94C488.13,228.7,491.09,224.24,484.21,220.26Z"/><path class="cls-10" d="M423.81,296.9s-2.56,5.34,6.41,7.94,12.89,6.4,15,6.8,12.42,4.37,22.49,9.13,23.24,12.74,29,11.27S518.2,303.72,518,301.61c0,0-13.93,27.13-18.39,26.31,0,0,2.59-12,21-36.84,0,0-20.7,26-23.5,38.16,0,0,1.18,4.38-10.79-1.48S457.87,311.85,454,312.23,422.46,301.39,423.81,296.9Z"/><path class="cls-10" d="M423.48,169.59s-5.49-.88-14.68,24.17c0,0,11.68-26.61,20.64-22C429.44,171.8,428.11,168.91,423.48,169.59Z"/><path class="cls-10" d="M422.66,300s-12.51-13.36-13.89-16.27a11.85,11.85,0,0,0-4.59-5.49c-1.59-.92-3.54-4.87-5.29-7.53s-4.81-8-7.43-9.95-14.33-10.64-9.64-17.11,15.48-30.83,21.28-39.24c0,0-8,15.12-11.06,22.79s2.69,6.74,7.29,1.63c0,0-1.92,4.54-9.92,7,0,0-7.5,4.84-6.14,11s2.69,6.74,5.94,8.85,4.9,5,6.68,7.17,1.72,4.76,4.74,7.68,1.62,4.94,5.14,7S415.65,292.18,422.66,300Z"/><path class="cls-1" d="M446.32,256.25s-10.69,15.23-14.44,21.3-6.87,16.14-7.77,18.92-.51,2-4.72-2.6c-.79-.85-6.1-7.18-7.88-9.39s8.16,3.2,13-1.08,4.56-3,7.83-8.65S442.36,259.84,446.32,256.25Z"/><path class="cls-1" d="M499.77,321.11c-1.59,2.61-1.82,10.9-4.62,9.64s-3.55-2.41-10.58-6.12-7-3.72-10.21-5.55a98.39,98.39,0,0,0-10.4-4.61s-6.59-5.23-10-5.43-7.76-.25-13.84-3.77a24.71,24.71,0,0,1-8.73-8.22s.14,2.78,10.54,6.36c6.77,2.32,17.83,3.69,26,8.43s4.66,6.58,15.08,8.72,37.94-35.32,38.23-33.39S507.38,308.56,499.77,321.11Z"/><path class="cls-1" d="M448.14,259.42a202.55,202.55,0,0,1-13.38,21.91c-9.17,13.42-6.65,17-6.65,17s.87-7.61,10.53-20S447.28,264.57,448.14,259.42Z"/><path class="cls-12" d="M469.33,210.59s0,6.71-9.74,20.49c0,0-6.5,10-9.92,19,0,0,9.64-16.67,15.79-25.47S469.33,210.59,469.33,210.59Z"/><path class="cls-12" d="M424.32,301.44s-14.58-14.09-16.41-20.09C407.91,281.35,419.31,296.07,424.32,301.44Z"/><path class="cls-12" d="M431.1,170.46s-9.14-7.4-16,8.75C415.09,179.21,421.75,166.47,431.1,170.46Z"/><path class="cls-12" d="M394.53,219.93s-8.1,16.15-11.29,21.36c0,0-5.49,5.83.46,12.63,0,0-5.39-5.94,1.06-14S390.28,227.89,394.53,219.93Z"/><path class="cls-12" d="M493.19,221.21s-19.15-6-29.62-18.37C463.57,202.84,472.22,216,493.19,221.21Z"/><path class="cls-12" d="M450.42,259.14s-8.78,10.29,4.38,16.84C454.8,276,444.83,268.8,450.42,259.14Z"/><path class="cls-17" d="M527.58,228.92S513,214.82,510.13,213s-12.74-11.25-14.1-12.57-2.22-1.64-11.25-5.27-33.44-16.46-43.18-19.45c0,0,40.79,19.31,51,23.62s.34,11.32-2.86,9.83c0,0,8.21,3.51,9-4.86C498.74,204.3,514.6,217.18,527.58,228.92Z"/><path class="cls-1" d="M466.91,206.12s-7.88-8.66-9.72-10S445.3,187.62,444,183.35s-7.62-8.41-8.15-8.72a79.23,79.23,0,0,1,9.13,4.58c2.37,1.6,3,8.3,5.54,9.55S466.91,206.12,466.91,206.12Z"/><path class="cls-1" d="M539,240.66s-7.46-7.85-11-9.89-4.68-4.12-8-7-14-13.26-16.28-14.59-4.88.71-2.09,2.79,8.95,4.47,11.34,7.27,1,5.54,5.74,9.2a80.47,80.47,0,0,0,8.06,5.61C529.34,235.78,532.08,238.78,539,240.66Z"/><path class="cls-1" d="M542.36,245.65c-1.73-.87-3.66-1.4-7.46-3.37s-2.67-2.72-8.67-4.55-7.67-3-12-5.29-7.28-3.27-9.51-2.68-1.66-1.2,7.26,3.73,8.57,4.72,13.68,7.68,7.93,6.23,11.49,6.18,7.34-.47,6.43,4-3.35,7-3.62,9.91,6.55-10.1,6-12.33S545.64,247.31,542.36,245.65Z"/><path class="cls-10" d="M529.35,230.13s12.45,11.43,15.47,13.53,6.45,6.56-3,15.57c0,0-9.07,12.76-11.23,18.93,0,0,4.82-8.32,14.6-24.75,0,0,1.53-9.36-6.66-9.85,0,0-6-3.11-8-3.91,0,0,7.88,3.4,11.44,3.39C542,243,536.06,236.83,529.35,230.13Z"/><path class="cls-1" d="M421.4,288.38a9.93,9.93,0,0,1-7-3.09,64.85,64.85,0,0,1-8.33-10.77,48.89,48.89,0,0,0-5.69-7.95c-2.42-2.89-14.14-13.76-15.15-16.32-2.11-5.37,5.32-13.52,5.32-13.52s-7.47,5.34-4.21,12.61c2.86,6.35,2.44,3.19,7.73,7.9,7.23,6.42,6.43,5.94,9.61,10.7C411,278.9,422.86,287.11,421.4,288.38Z"/><path class="cls-1" d="M437.55,197.8l-9.38,73S433.42,225.08,437.55,197.8Z"/><path class="cls-1" d="M423,194l-5.37,35.73S421.28,198.21,423,194Z"/><path class="cls-1" d="M405.5,229.57l-2.93,22.55S404.6,232.35,405.5,229.57Z"/><path class="cls-1" d="M508.16,234.82l3.21,47.76S507.64,237.34,508.16,234.82Z"/><path class="cls-1" d="M478.5,222.6l-1.11,48.32S477.31,227.09,478.5,222.6Z"/><path class="cls-1" d="M467.78,271.25l6.48,40.47S468.09,275.19,467.78,271.25Z"/><path class="cls-10" d="M43.52,265.25s-39.21,1-40.7,16.12C2.82,281.37,8.44,267.27,43.52,265.25Z"/><path class="cls-8" d="M4.56,281.12s6.46,2.73,35,4C39.59,285.09,14.25,281.62,4.56,281.12Z"/><path class="cls-8" d="M49.53,286.83s16.65,2.74,5,11.18C54.5,298,71.64,288.82,49.53,286.83Z"/><path class="cls-8" d="M16.3,335.32s47,29.07,93.91,6.7C110.21,342,69.22,358.42,16.3,335.32Z"/><path class="cls-1" d="M45.36,305.5S2.88,321.9,32,336.06C32,336.06,11.08,321.16,45.36,305.5Z"/><path class="cls-8" d="M116.61,339.26s60.13-23.85,75.54,5,56.65-4.47,56.65-4.47,33.29-24.35-76.53-22.37S151.9,322.86,116.61,339.26Z"/><path class="cls-1" d="M192.48,338.76S203.41,360,224,350.36C224,350.36,202.75,353,192.48,338.76Z"/><path class="cls-9" d="M254,332.35s28.16-8.61,42.4,2.32C296.35,334.67,286.75,319.43,254,332.35Z"/><path class="cls-15" d="M322.34,339.76a82.23,82.23,0,0,1,20.54,3.64,35.84,35.84,0,0,0,37.44-9.61c11.92-12.59,25.84-17.22,15.24-20.87s-9.94,19.55-29.82,19.22-26.5-5.3-40.75-2.65S296.83,339.76,322.34,339.76Z"/><path class="cls-1" d="M505.68,327.56s2.43,10-28.29,13C477.39,340.57,515.55,336.63,505.68,327.56Z"/><path class="cls-9" d="M394.52,317.91s31.81-3.64,45.39,14.25C439.91,332.16,432,312.28,394.52,317.91Z"/><path class="cls-12" d="M413.4,234.16c1.18,1.17.32,4-1.92,6.21s-5,3.12-6.2,1.94-.32-3.95,1.92-6.21S412.22,233,413.4,234.16Z"/><path class="cls-17" d="M413.33,234c1.18,1.17.32,3.95-1.92,6.2s-5,3.13-6.2,2-.32-4,1.92-6.21S412.15,232.78,413.33,234Z"/><path class="cls-17" d="M412.67,233.91s2.27,1.11-.88,5.43C411.79,239.34,414.18,235.6,412.67,233.91Z"/><path class="cls-15" d="M405,241.51s-1.05-2,2.59-5.9C407.6,235.61,404.45,239,405,241.51Z"/><path class="cls-1" d="M406.83,238.08c.11.11-.05.45-.36.76s-.64.47-.75.36,0-.45.35-.76S406.72,238,406.83,238.08Z"/><path class="cls-1" d="M407.31,237.15c.06.06,0,.21-.11.33s-.27.17-.33.11,0-.21.11-.33S407.25,237.09,407.31,237.15Z"/><path class="cls-12" d="M139.8,312.86c0,1.86-2.87,3.37-6.42,3.37s-6.43-1.51-6.43-3.37,2.87-3.37,6.43-3.37S139.8,311,139.8,312.86Z"/><path class="cls-9" d="M139.91,312.65c0,1.86-2.88,3.38-6.43,3.38s-6.43-1.52-6.43-3.38,2.88-3.37,6.43-3.37S139.91,310.79,139.91,312.65Z"/><path class="cls-17" d="M139.42,312.09s.91,2.67-5,3.58C134.43,315.67,139.28,314.62,139.42,312.09Z"/><path class="cls-15" d="M127.37,312s.77-2.43,6.71-2.6C134.08,309.42,128.91,309.59,127.37,312Z"/><path class="cls-1" d="M131.51,310.75c0,.18-.39.32-.88.32s-.87-.14-.87-.32.39-.31.87-.31S131.51,310.58,131.51,310.75Z"/><path class="cls-1" d="M132.64,310.4c0,.1-.16.18-.35.18s-.36-.08-.36-.18.16-.17.36-.17S132.64,310.3,132.64,310.4Z"/><path class="cls-12" d="M83.06,243.33a1.7,1.7,0,1,1-.87-2.23A1.7,1.7,0,0,1,83.06,243.33Z"/><path class="cls-18" d="M83.13,243.25A1.7,1.7,0,0,1,80,241.86a1.7,1.7,0,0,1,3.11,1.39Z"/><path class="cls-17" d="M83.13,242.94A1.62,1.62,0,0,1,81.19,244,2.17,2.17,0,0,0,83.13,242.94Z"/><path class="cls-15" d="M80.23,241.61a1.73,1.73,0,0,1,2.15-.46A2.08,2.08,0,0,0,80.23,241.61Z"/><path class="cls-1" d="M81.49,241.48c0,.08-.16.1-.28.05s-.18-.16-.15-.24.16-.1.28,0A.21.21,0,0,1,81.49,241.48Z"/><path class="cls-1" d="M81.83,241.44a.09.09,0,0,1-.12,0,.09.09,0,0,1,0-.12.09.09,0,0,1,.12,0A.09.09,0,0,1,81.83,241.44Z"/><path class="cls-12" d="M189.4,270.17a1.7,1.7,0,1,1-.86-2.23A1.67,1.67,0,0,1,189.4,270.17Z"/><path class="cls-19" d="M189.47,270.08a1.7,1.7,0,1,1-.87-2.23A1.7,1.7,0,0,1,189.47,270.08Z"/><path class="cls-17" d="M189.47,269.77a1.61,1.61,0,0,1-1.94,1.1A2.19,2.19,0,0,0,189.47,269.77Z"/><path class="cls-15" d="M186.57,268.44a1.73,1.73,0,0,1,2.15-.46A2.11,2.11,0,0,0,186.57,268.44Z"/><path class="cls-1" d="M187.83,268.31c0,.08-.16.1-.28.05s-.18-.16-.14-.24.16-.1.27-.05S187.87,268.23,187.83,268.31Z"/><path class="cls-1" d="M188.17,268.27a.08.08,0,0,1-.12,0,.09.09,0,0,1-.05-.11.09.09,0,1,1,.17.07Z"/><path class="cls-12" d="M264.94,227.43a1.7,1.7,0,1,1-.87-2.23A1.7,1.7,0,0,1,264.94,227.43Z"/><path class="cls-1" d="M265,227.34a1.7,1.7,0,1,1-.87-2.23A1.7,1.7,0,0,1,265,227.34Z"/><path class="cls-17" d="M265,227a1.61,1.61,0,0,1-1.93,1.09A2.18,2.18,0,0,0,265,227Z"/><path class="cls-15" d="M262.1,225.71a1.74,1.74,0,0,1,2.15-.47A2.1,2.1,0,0,0,262.1,225.71Z"/><path class="cls-1" d="M263.36,225.58c0,.08-.16.1-.27,0s-.19-.16-.15-.24.16-.1.27,0S263.4,225.5,263.36,225.58Z"/><path class="cls-1" d="M263.71,225.54a.1.1,0,0,1-.12,0,.09.09,0,0,1,0-.12.09.09,0,0,1,.12,0A.1.1,0,0,1,263.71,225.54Z"/><path class="cls-12" d="M380.48,270.77a3.1,3.1,0,1,1-1.58-4.07A3.09,3.09,0,0,1,380.48,270.77Z"/><path class="cls-17" d="M380.61,270.62a3.1,3.1,0,1,1-1.58-4.08A3.09,3.09,0,0,1,380.61,270.62Z"/><path class="cls-17" d="M380.6,270.05a3,3,0,0,1-3.53,2A4,4,0,0,0,380.6,270.05Z"/><path class="cls-15" d="M375.31,267.63a3.17,3.17,0,0,1,3.93-.85A3.81,3.81,0,0,0,375.31,267.63Z"/><path class="cls-1" d="M377.61,267.39c-.06.14-.29.18-.5.09s-.34-.29-.27-.43.29-.19.5-.1S377.67,267.24,377.61,267.39Z"/><path class="cls-1" d="M378.24,267.32a.16.16,0,0,1-.22.07.15.15,0,0,1-.09-.21.16.16,0,0,1,.22-.08A.18.18,0,0,1,378.24,267.32Z"/><path class="cls-12" d="M286.07,110.76a3.1,3.1,0,1,1-1.59-4.07A3.09,3.09,0,0,1,286.07,110.76Z"/><path class="cls-9" d="M286.19,110.61a3.1,3.1,0,1,1-1.58-4.07A3.08,3.08,0,0,1,286.19,110.61Z"/><path class="cls-17" d="M286.18,110a2.92,2.92,0,0,1-3.52,2A4,4,0,0,0,286.18,110Z"/><path class="cls-15" d="M280.9,107.62a3.16,3.16,0,0,1,3.92-.85A3.8,3.8,0,0,0,280.9,107.62Z"/><path class="cls-1" d="M283.19,107.38c-.06.15-.29.18-.5.09s-.33-.29-.27-.44.29-.18.51-.09S283.26,107.23,283.19,107.38Z"/><path class="cls-1" d="M283.82,107.31a.16.16,0,0,1-.22.07.16.16,0,0,1-.09-.21.17.17,0,0,1,.31.14Z"/><path class="cls-12" d="M53.51,270.77a3.1,3.1,0,1,1-1.59-4.07A3.1,3.1,0,0,1,53.51,270.77Z"/><path class="cls-9" d="M53.63,270.62a3.1,3.1,0,1,1-1.58-4.08A3.08,3.08,0,0,1,53.63,270.62Z"/><path class="cls-17" d="M53.62,270.05a3,3,0,0,1-3.53,2A4,4,0,0,0,53.62,270.05Z"/><path class="cls-15" d="M48.34,267.63s1.23-1.87,3.92-.85A3.8,3.8,0,0,0,48.34,267.63Z"/><path class="cls-1" d="M50.63,267.39c-.06.14-.29.18-.5.09s-.34-.29-.27-.43.29-.19.5-.1S50.7,267.24,50.63,267.39Z"/><path class="cls-1" d="M51.26,267.32a.16.16,0,0,1-.22.07.15.15,0,0,1-.09-.21.16.16,0,0,1,.22-.08A.17.17,0,0,1,51.26,267.32Z"/><path class="cls-12" d="M356.61,184c.14.61-.72,1.33-1.93,1.61s-2.3,0-2.44-.6.73-1.33,1.93-1.61S356.47,183.38,356.61,184Z"/><path class="cls-20" d="M356.63,183.92c.14.6-.72,1.32-1.93,1.6s-2.3,0-2.44-.6.73-1.33,1.93-1.61S356.49,183.3,356.63,183.92Z"/><path class="cls-17" d="M356.42,183.77s.51.8-1.42,1.56C355,185.33,356.57,184.61,356.42,183.77Z"/><path class="cls-15" d="M352.32,184.69s.08-.86,2.09-1.38C354.41,183.31,352.67,183.77,352.32,184.69Z"/><path class="cls-1" d="M353.64,184c0,.06-.11.14-.28.17s-.31,0-.32,0,.11-.14.28-.17S353.62,183.89,353.64,184Z"/><path class="cls-1" d="M354,183.75s0,.07-.1.08-.13,0-.14,0,0-.07.11-.08S354,183.72,354,183.75Z"/><path class="cls-15" d="M303.8,150c.75.14,1.2,1.15,1,2.25s-1,1.88-1.75,1.73-1.2-1.15-1-2.25S303,149.8,303.8,150Z"/><path class="cls-15" d="M303.72,149.9c.76.14,1.2,1.15,1,2.25s-1,1.88-1.75,1.74-1.2-1.16-1-2.26S303,149.75,303.72,149.9Z"/><path class="cls-15" d="M303.46,150s1.14-.08,1.16,1.82C304.62,151.83,304.48,150.25,303.46,150Z"/><path class="cls-15" d="M302.72,153.74s-.94-.43-.66-2.28C302.06,151.46,301.83,153.07,302.72,153.74Z"/><path class="cls-15" d="M302.45,152.35c.07,0,.11.15.08.3s-.11.26-.18.25-.11-.15-.08-.3S302.38,152.34,302.45,152.35Z"/><path class="cls-15" d="M302.37,152a.1.1,0,0,1,.06.12c0,.06-.06.11-.1.1s-.06-.06-.05-.13S302.33,152,302.37,152Z"/><path class="cls-10" d="M319.78,88.64s2,8.53,2.89,10.69,5.14,11.59,1.41,14.32-3.23-2.81-3.23-2.81S319.28,93.2,319.78,88.64Z"/><path class="cls-15" d="M320,90.55s.25,21.12,2.08,22.94,3.47-2.65,3.06-4.64S319.78,93.78,320,90.55Z"/><path class="cls-12" d="M319.53,89.14s.66,21.12,1.57,23.85A110.67,110.67,0,0,1,319.53,89.14Z"/><path class="cls-1" d="M324.66,108.19s.75,5.3-2,5.3C322.68,113.49,324.83,113,324.66,108.19Z"/><path class="cls-9" d="M320.52,94.85s.25,13.92,1.91,17.15C322.43,112,321.35,107.53,320.52,94.85Z"/><g class="cls-21"><rect class="cls-22" x="-182.42" y="375.53" width="551.51" height="591.33" transform="translate(764.53 577.85) rotate(90)"/></g></g></g></svg>