<svg xmlns="http://www.w3.org/2000/svg" xmlns:xlink="http://www.w3.org/1999/xlink" viewBox="0 0 600 500"><defs><style>.cls-1{mask:url(#mask);}.cls-116,.cls-2,.cls-77,.cls-78,.cls-79{mix-blend-mode:multiply;}.cls-2{fill:url(#radial-gradient);}.cls-3{fill:none;}.cls-4{fill:url(#linear-gradient);}.cls-5{isolation:isolate;}.cls-6{clip-path:url(#clip-path);}.cls-7{fill:url(#linear-gradient-2);}.cls-102,.cls-103,.cls-104,.cls-105,.cls-112,.cls-8,.cls-97,.cls-98{mix-blend-mode:screen;}.cls-8{fill:url(#linear-gradient-3);}.cls-9{fill:url(#linear-gradient-4);}.cls-10{fill:url(#linear-gradient-5);}.cls-11{fill:url(#linear-gradient-6);}.cls-12{fill:url(#linear-gradient-7);}.cls-13{fill:url(#linear-gradient-8);}.cls-14{fill:url(#linear-gradient-9);}.cls-15{fill:url(#linear-gradient-10);}.cls-16{fill:url(#linear-gradient-11);}.cls-17{fill:url(#linear-gradient-12);}.cls-18{fill:url(#linear-gradient-13);}.cls-19{fill:url(#linear-gradient-14);}.cls-20{fill:url(#linear-gradient-15);}.cls-21{fill:url(#linear-gradient-16);}.cls-22{fill:url(#linear-gradient-17);}.cls-23{fill:url(#linear-gradient-18);}.cls-24{fill:url(#linear-gradient-19);}.cls-25{fill:url(#linear-gradient-20);}.cls-26{fill:url(#linear-gradient-21);}.cls-27{fill:url(#linear-gradient-22);}.cls-28{fill:url(#linear-gradient-23);}.cls-29{fill:url(#linear-gradient-24);}.cls-30{fill:url(#linear-gradient-25);}.cls-31{fill:url(#linear-gradient-26);}.cls-32{fill:url(#linear-gradient-27);}.cls-33{fill:url(#linear-gradient-28);}.cls-34{fill:url(#linear-gradient-29);}.cls-35{fill:url(#linear-gradient-30);}.cls-36{fill:url(#linear-gradient-31);}.cls-37{fill:url(#linear-gradient-32);}.cls-38{fill:url(#linear-gradient-33);}.cls-39{fill:url(#linear-gradient-34);}.cls-40{fill:url(#linear-gradient-35);}.cls-41{fill:url(#linear-gradient-36);}.cls-42{fill:#65695a;}.cls-43{fill:url(#linear-gradient-37);}.cls-44{fill:url(#linear-gradient-38);}.cls-45{fill:url(#linear-gradient-39);}.cls-46{fill:url(#linear-gradient-40);}.cls-47{fill:url(#linear-gradient-41);}.cls-48{fill:url(#linear-gradient-42);}.cls-49{fill:url(#linear-gradient-43);}.cls-50{fill:url(#linear-gradient-44);}.cls-51{fill:url(#linear-gradient-45);}.cls-52{fill:url(#linear-gradient-46);}.cls-53{fill:url(#linear-gradient-47);}.cls-54{fill:url(#linear-gradient-48);}.cls-55{fill:url(#linear-gradient-49);}.cls-56{fill:url(#linear-gradient-50);}.cls-57{fill:url(#linear-gradient-51);}.cls-58{fill:url(#linear-gradient-52);}.cls-59{fill:url(#linear-gradient-53);}.cls-60{fill:url(#linear-gradient-54);}.cls-61{fill:url(#linear-gradient-55);}.cls-62{fill:url(#linear-gradient-56);}.cls-63{fill:url(#linear-gradient-57);}.cls-64{fill:url(#linear-gradient-58);}.cls-65{fill:url(#linear-gradient-59);}.cls-66{fill:#55594c;}.cls-67{fill:url(#linear-gradient-60);}.cls-68{fill:#e8eff2;}.cls-69{fill:url(#linear-gradient-61);}.cls-70{fill:url(#linear-gradient-62);}.cls-71{fill:url(#linear-gradient-63);}.cls-72{fill:url(#linear-gradient-64);}.cls-73{fill:url(#linear-gradient-65);}.cls-74{fill:url(#linear-gradient-66);}.cls-75{fill:url(#linear-gradient-67);}.cls-76{fill:url(#linear-gradient-68);}.cls-77{fill:url(#linear-gradient-69);}.cls-78{fill:url(#linear-gradient-70);}.cls-79{fill:url(#linear-gradient-71);}.cls-80{fill:url(#linear-gradient-72);}.cls-81{fill:#82b2d1;}.cls-82{fill:url(#linear-gradient-73);}.cls-83{fill:url(#linear-gradient-74);}.cls-84{fill:#7baac9;}.cls-85{fill:#7faecc;}.cls-86{fill:url(#linear-gradient-75);}.cls-87{fill:url(#linear-gradient-76);}.cls-88{fill:#6da5c9;}.cls-89{fill:url(#linear-gradient-77);}.cls-90{fill:url(#linear-gradient-78);}.cls-91{fill:url(#linear-gradient-79);}.cls-92{fill:url(#linear-gradient-80);}.cls-93{fill:url(#linear-gradient-81);}.cls-94{fill:url(#linear-gradient-82);}.cls-95{fill:url(#linear-gradient-83);}.cls-96{fill:url(#linear-gradient-84);}.cls-97{fill:url(#linear-gradient-85);}.cls-98{fill:url(#linear-gradient-86);}.cls-99{fill:url(#linear-gradient-87);}.cls-100{fill:url(#linear-gradient-88);}.cls-101{fill:#c2e2f0;}.cls-102{fill:url(#linear-gradient-89);}.cls-103{fill:url(#linear-gradient-90);}.cls-104{fill:url(#linear-gradient-91);}.cls-105{fill:url(#linear-gradient-92);}.cls-106{fill:url(#linear-gradient-93);}.cls-107{fill:url(#linear-gradient-94);}.cls-108{fill:url(#linear-gradient-95);}.cls-109{fill:url(#linear-gradient-96);}.cls-110{fill:url(#linear-gradient-97);}.cls-111{fill:url(#linear-gradient-98);}.cls-112{fill:url(#linear-gradient-99);}.cls-113{clip-path:url(#clip-path-2);}.cls-114{fill:url(#linear-gradient-101);}.cls-115{mask:url(#mask-2);}.cls-116{fill:url(#radial-gradient-2);}.cls-117{filter:url(#luminosity-noclip);}</style><filter id="luminosity-noclip" x="181.44" y="-7431" width="266.8" height="32766" filterUnits="userSpaceOnUse" color-interpolation-filters="sRGB"><feFlood flood-color="#fff" result="bg"/><feBlend in="SourceGraphic" in2="bg"/></filter><mask id="mask" x="181.44" y="-7431" width="266.8" height="32766" maskUnits="userSpaceOnUse"><g class="cls-117"/></mask><radialGradient id="radial-gradient" cx="-580.65" cy="2904.41" r="408.97" gradientTransform="matrix(-0.81, 0.59, 0.59, 0.81, -1640.38, -1448.61)" gradientUnits="userSpaceOnUse"><stop offset="0.64"/><stop offset="0.67" stop-color="#3b3b3b"/><stop offset="0.71" stop-color="#767676"/><stop offset="0.75" stop-color="#a7a7a7"/><stop offset="0.78" stop-color="#cdcdcd"/><stop offset="0.81" stop-color="#e9e9e9"/><stop offset="0.84" stop-color="#f9f9f9"/><stop offset="0.86" stop-color="#fff"/></radialGradient><linearGradient id="linear-gradient" x1="-2091.92" y1="2843.07" x2="-2248.93" y2="2627.33" gradientTransform="matrix(-0.99, 0.15, 0.15, 0.99, -2236.24, -1725.2)" gradientUnits="userSpaceOnUse"><stop offset="0.01" stop-color="#7cb3ff"/><stop offset="0.05" stop-color="#85b3f9"/><stop offset="0.22" stop-color="#a4b1e2"/><stop offset="0.35" stop-color="#b7b0d4"/><stop offset="0.45" stop-color="#beb0cf"/><stop offset="0.74" stop-color="#ece0d3"/><stop offset="0.89" stop-color="#fff3d4"/></linearGradient><clipPath id="clip-path"><rect class="cls-3" x="4" y="12" width="592" height="476" rx="56.15"/></clipPath><linearGradient id="linear-gradient-2" x1="297.98" y1="381.26" x2="284.66" y2="88.86" gradientUnits="userSpaceOnUse"><stop offset="0" stop-color="#6caeba"/><stop offset="0.17" stop-color="#69a9b7"/><stop offset="0.39" stop-color="#5f99ad"/><stop offset="0.63" stop-color="#4f7f9c"/><stop offset="0.89" stop-color="#385c85"/><stop offset="1" stop-color="#2d4a7a"/></linearGradient><linearGradient id="linear-gradient-3" x1="270.24" y1="181.24" x2="300.4" y2="274.31" gradientUnits="userSpaceOnUse"><stop offset="0" stop-color="#212b38"/><stop offset="1"/></linearGradient><linearGradient id="linear-gradient-4" x1="292" y1="2.82" x2="292" y2="339.82" gradientUnits="userSpaceOnUse"><stop offset="0" stop-color="#3769b0"/><stop offset="0.13" stop-color="#3f71b4"/><stop offset="0.34" stop-color="#5588bf"/><stop offset="0.6" stop-color="#78add2"/><stop offset="0.89" stop-color="#a9e1eb"/><stop offset="1" stop-color="#bcf5f5"/></linearGradient><linearGradient id="linear-gradient-5" x1="98.47" y1="375.53" x2="384.05" y2="130.36" gradientUnits="userSpaceOnUse"><stop offset="0" stop-color="#4881b0"/><stop offset="0.25" stop-color="#4d85b2"/><stop offset="0.57" stop-color="#5d8fb8"/><stop offset="0.92" stop-color="#77a0c1"/><stop offset="1" stop-color="#7ea5c4"/></linearGradient><linearGradient id="linear-gradient-6" x1="-21.99" y1="296.9" x2="219.45" y2="104.89" gradientUnits="userSpaceOnUse"><stop offset="0" stop-color="#cfe0fa"/><stop offset="0.07" stop-color="#d3e2f8"/><stop offset="0.67" stop-color="#f3f3e9"/><stop offset="1" stop-color="#fff9e3"/></linearGradient><linearGradient id="linear-gradient-7" x1="130.07" y1="358.67" x2="367.39" y2="169.94" xlink:href="#linear-gradient-6"/><linearGradient id="linear-gradient-8" x1="121.96" y1="566.37" x2="121.96" y2="106.26" xlink:href="#linear-gradient-5"/><linearGradient id="linear-gradient-9" x1="179.01" y1="566.37" x2="179.01" y2="106.26" xlink:href="#linear-gradient-5"/><linearGradient id="linear-gradient-10" x1="162.09" y1="566.69" x2="162.09" y2="106.19" xlink:href="#linear-gradient-5"/><linearGradient id="linear-gradient-11" x1="181.9" y1="566.37" x2="181.9" y2="106.26" xlink:href="#linear-gradient-5"/><linearGradient id="linear-gradient-12" x1="117.98" y1="566.37" x2="117.98" y2="106.26" xlink:href="#linear-gradient-5"/><linearGradient id="linear-gradient-13" x1="164.83" y1="566.38" x2="164.83" y2="106.26" xlink:href="#linear-gradient-5"/><linearGradient id="linear-gradient-14" x1="176.8" y1="566.37" x2="176.8" y2="106.26" xlink:href="#linear-gradient-5"/><linearGradient id="linear-gradient-15" x1="276.86" y1="566.37" x2="276.86" y2="106.26" xlink:href="#linear-gradient-5"/><linearGradient id="linear-gradient-16" x1="261.32" y1="566.37" x2="261.32" y2="106.26" xlink:href="#linear-gradient-5"/><linearGradient id="linear-gradient-17" x1="179.35" y1="566.37" x2="179.35" y2="106.26" xlink:href="#linear-gradient-5"/><linearGradient id="linear-gradient-18" x1="190.2" y1="566.37" x2="190.2" y2="106.26" xlink:href="#linear-gradient-5"/><linearGradient id="linear-gradient-19" x1="188.06" y1="566.37" x2="188.06" y2="106.26" xlink:href="#linear-gradient-5"/><linearGradient id="linear-gradient-20" x1="195.66" y1="566.37" x2="195.66" y2="106.26" xlink:href="#linear-gradient-5"/><linearGradient id="linear-gradient-21" x1="217.71" y1="566.37" x2="217.71" y2="106.26" xlink:href="#linear-gradient-5"/><linearGradient id="linear-gradient-22" x1="201.76" y1="566.37" x2="201.76" y2="106.26" xlink:href="#linear-gradient-5"/><linearGradient id="linear-gradient-23" x1="204.29" y1="566.37" x2="204.29" y2="106.26" xlink:href="#linear-gradient-5"/><linearGradient id="linear-gradient-24" x1="208.43" y1="587.81" x2="208.43" y2="112.86" xlink:href="#linear-gradient-5"/><linearGradient id="linear-gradient-25" x1="249.81" y1="587.81" x2="249.81" y2="112.86" xlink:href="#linear-gradient-5"/><linearGradient id="linear-gradient-26" x1="273.42" y1="587.81" x2="273.42" y2="112.86" xlink:href="#linear-gradient-5"/><linearGradient id="linear-gradient-27" x1="287.26" y1="587.2" x2="287.26" y2="113.02" xlink:href="#linear-gradient-5"/><linearGradient id="linear-gradient-28" x1="319.3" y1="586.75" x2="319.3" y2="113.23" xlink:href="#linear-gradient-5"/><linearGradient id="linear-gradient-29" x1="362.69" y1="587.5" x2="362.69" y2="113.02" xlink:href="#linear-gradient-5"/><linearGradient id="linear-gradient-30" x1="208.23" y1="366.28" x2="208.23" y2="186.46" gradientUnits="userSpaceOnUse"><stop offset="0" stop-color="#4e76a6"/><stop offset="0.4" stop-color="#537ba6"/><stop offset="0.9" stop-color="#618ba6"/><stop offset="1" stop-color="#658fa6"/></linearGradient><linearGradient id="linear-gradient-31" x1="127.92" y1="398.27" x2="127.92" y2="232.41" gradientUnits="userSpaceOnUse"><stop offset="0" stop-color="#aed2f2"/><stop offset="1" stop-color="#fff3e6"/></linearGradient><linearGradient id="linear-gradient-32" x1="133.27" y1="398.27" x2="133.27" y2="232.41" xlink:href="#linear-gradient-31"/><linearGradient id="linear-gradient-33" x1="169.02" y1="398.37" x2="169.02" y2="232.31" xlink:href="#linear-gradient-31"/><linearGradient id="linear-gradient-34" x1="230.27" y1="398.27" x2="230.27" y2="232.41" xlink:href="#linear-gradient-31"/><linearGradient id="linear-gradient-35" x1="266.43" y1="398.27" x2="266.43" y2="232.41" xlink:href="#linear-gradient-31"/><linearGradient id="linear-gradient-36" x1="277" y1="398.27" x2="277" y2="232.41" xlink:href="#linear-gradient-31"/><linearGradient id="linear-gradient-37" x1="488.55" y1="471.93" x2="488.55" y2="29.52" gradientUnits="userSpaceOnUse"><stop offset="0" stop-color="#4370a3"/><stop offset="0.13" stop-color="#4875a6"/><stop offset="0.3" stop-color="#5883b0"/><stop offset="0.49" stop-color="#729abf"/><stop offset="0.69" stop-color="#96bbd5"/><stop offset="0.9" stop-color="#c3e4f1"/><stop offset="1" stop-color="#dbf9ff"/></linearGradient><linearGradient id="linear-gradient-38" x1="470.53" y1="322.96" x2="468.69" y2="218.13" gradientUnits="userSpaceOnUse"><stop offset="0" stop-color="#6aabd4"/><stop offset="0.3" stop-color="#a0c7d9"/><stop offset="0.62" stop-color="#d3e2df"/><stop offset="0.87" stop-color="#f3f3e2"/><stop offset="1" stop-color="#fff9e3"/></linearGradient><linearGradient id="linear-gradient-39" x1="384.98" y1="326.87" x2="382.92" y2="209.63" xlink:href="#linear-gradient-38"/><linearGradient id="linear-gradient-40" x1="423.9" y1="322.36" x2="422.15" y2="222.67" xlink:href="#linear-gradient-38"/><linearGradient id="linear-gradient-41" x1="429.15" y1="322.98" x2="427.36" y2="220.67" xlink:href="#linear-gradient-38"/><linearGradient id="linear-gradient-42" x1="422.35" y1="323.1" x2="420.55" y2="220.79" xlink:href="#linear-gradient-38"/><linearGradient id="linear-gradient-43" x1="392.86" y1="323.61" x2="391.07" y2="221.32" xlink:href="#linear-gradient-38"/><linearGradient id="linear-gradient-44" x1="468.05" y1="322.32" x2="466.26" y2="219.99" xlink:href="#linear-gradient-38"/><linearGradient id="linear-gradient-45" x1="511.73" y1="321.57" x2="509.94" y2="219.27" xlink:href="#linear-gradient-38"/><linearGradient id="linear-gradient-46" x1="544.43" y1="320.94" x2="542.64" y2="218.72" xlink:href="#linear-gradient-38"/><linearGradient id="linear-gradient-47" x1="570.25" y1="320.54" x2="568.45" y2="218.24" xlink:href="#linear-gradient-38"/><linearGradient id="linear-gradient-48" x1="481.63" y1="322.05" x2="479.84" y2="219.79" xlink:href="#linear-gradient-38"/><linearGradient id="linear-gradient-49" x1="510.53" y1="321.55" x2="508.73" y2="219.3" xlink:href="#linear-gradient-38"/><linearGradient id="linear-gradient-50" x1="500.37" y1="321.74" x2="498.58" y2="219.44" xlink:href="#linear-gradient-38"/><linearGradient id="linear-gradient-51" x1="515.63" y1="321.47" x2="513.84" y2="219.19" xlink:href="#linear-gradient-38"/><linearGradient id="linear-gradient-52" x1="591.08" y1="320.17" x2="589.28" y2="217.89" xlink:href="#linear-gradient-38"/><linearGradient id="linear-gradient-53" x1="599.77" y1="320.03" x2="597.98" y2="217.73" xlink:href="#linear-gradient-38"/><linearGradient id="linear-gradient-54" x1="607.87" y1="321.76" x2="606.03" y2="216.85" xlink:href="#linear-gradient-38"/><linearGradient id="linear-gradient-55" x1="363.29" y1="324.14" x2="361.49" y2="221.74" xlink:href="#linear-gradient-38"/><linearGradient id="linear-gradient-56" x1="366.59" y1="324.09" x2="364.79" y2="221.69" xlink:href="#linear-gradient-38"/><linearGradient id="linear-gradient-57" x1="551.13" y1="336.08" x2="548.98" y2="213.91" xlink:href="#linear-gradient-38"/><linearGradient id="linear-gradient-58" x1="416.05" y1="323.2" x2="414.25" y2="220.94" xlink:href="#linear-gradient-38"/><linearGradient id="linear-gradient-59" x1="489.14" y1="321.92" x2="487.34" y2="219.66" xlink:href="#linear-gradient-38"/><linearGradient id="linear-gradient-60" x1="292" y1="497.15" x2="292" y2="168.41" gradientUnits="userSpaceOnUse"><stop offset="0" stop-color="#8eb2d9"/><stop offset="0.35" stop-color="#93b6d9"/><stop offset="0.79" stop-color="#a3c0da"/><stop offset="1" stop-color="#adc6db"/></linearGradient><linearGradient id="linear-gradient-61" x1="66.69" y1="389.08" x2="86.65" y2="218.94" gradientUnits="userSpaceOnUse"><stop offset="0" stop-color="#96b5d9"/><stop offset="0.35" stop-color="#9bb9d9"/><stop offset="0.79" stop-color="#abc3da"/><stop offset="1" stop-color="#b5cadb"/></linearGradient><linearGradient id="linear-gradient-62" x1="146.25" y1="410.7" x2="168.63" y2="219.85" xlink:href="#linear-gradient-61"/><linearGradient id="linear-gradient-63" x1="80.91" y1="390.52" x2="100.84" y2="220.51" gradientUnits="userSpaceOnUse"><stop offset="0" stop-color="#6b83ab"/><stop offset="0.34" stop-color="#6683a9"/><stop offset="0.76" stop-color="#5684a5"/><stop offset="1" stop-color="#4a85a1"/></linearGradient><linearGradient id="linear-gradient-64" x1="590.57" y1="448.81" x2="610.44" y2="279.45" xlink:href="#linear-gradient-63"/><linearGradient id="linear-gradient-65" x1="420.19" y1="420.97" x2="438.33" y2="266.28" xlink:href="#linear-gradient-63"/><linearGradient id="linear-gradient-66" x1="490.19" y1="437.95" x2="510.18" y2="267.47" xlink:href="#linear-gradient-63"/><linearGradient id="linear-gradient-67" x1="444.24" y1="432.67" x2="464.22" y2="262.25" xlink:href="#linear-gradient-63"/><linearGradient id="linear-gradient-68" x1="292" y1="630.66" x2="292" y2="264.97" xlink:href="#linear-gradient-2"/><linearGradient id="linear-gradient-69" x1="123.81" y1="463.93" x2="39.44" y2="200.59" gradientUnits="userSpaceOnUse"><stop offset="0" stop-color="#fff"/><stop offset="1" stop-color="#95b1c7"/></linearGradient><linearGradient id="linear-gradient-70" x1="455.4" y1="530.51" x2="474.95" y2="466.71" xlink:href="#linear-gradient-69"/><linearGradient id="linear-gradient-71" x1="461.15" y1="428.01" x2="497.79" y2="350.48" xlink:href="#linear-gradient-69"/><linearGradient id="linear-gradient-72" x1="-100.94" y1="382.96" x2="352.55" y2="382.96" gradientUnits="userSpaceOnUse"><stop offset="0" stop-color="#80afd9"/><stop offset="0.55" stop-color="#97c0dd"/><stop offset="1" stop-color="#a6cbe0"/></linearGradient><linearGradient id="linear-gradient-73" x1="528.35" y1="346.91" x2="528.03" y2="383.49" gradientUnits="userSpaceOnUse"><stop offset="0" stop-color="#82a6cf"/><stop offset="0.37" stop-color="#8ab0d0"/><stop offset="1" stop-color="#a1ccd4"/><stop offset="1" stop-color="#a1ccd4"/></linearGradient><linearGradient id="linear-gradient-74" x1="312.45" y1="346.34" x2="388.7" y2="346.34" xlink:href="#linear-gradient-73"/><linearGradient id="linear-gradient-75" x1="393.74" y1="361.16" x2="373.67" y2="374.94" xlink:href="#linear-gradient-73"/><linearGradient id="linear-gradient-76" x1="418.59" y1="335.49" x2="425.2" y2="382.88" xlink:href="#linear-gradient-73"/><linearGradient id="linear-gradient-77" x1="477.21" y1="370.18" x2="500.78" y2="375.34" xlink:href="#linear-gradient-73"/><linearGradient id="linear-gradient-78" x1="488.32" y1="371.18" x2="616.21" y2="371.18" xlink:href="#linear-gradient-73"/><linearGradient id="linear-gradient-79" x1="236.1" y1="507.89" x2="223.31" y2="227.22" xlink:href="#linear-gradient-2"/><linearGradient id="linear-gradient-80" x1="329.15" y1="603.5" x2="316.02" y2="315.18" gradientTransform="translate(7.95 -78.51) rotate(-2.5)" xlink:href="#linear-gradient-2"/><linearGradient id="linear-gradient-81" x1="293.52" y1="510.8" x2="280.62" y2="227.54" xlink:href="#linear-gradient-2"/><linearGradient id="linear-gradient-82" x1="222.29" y1="511.86" x2="209.17" y2="223.87" xlink:href="#linear-gradient-2"/><linearGradient id="linear-gradient-83" x1="304.53" y1="491.63" x2="291.34" y2="202.07" xlink:href="#linear-gradient-2"/><linearGradient id="linear-gradient-84" x1="306.86" y1="520.44" x2="297.17" y2="307.67" gradientTransform="matrix(1, -0.03, 0.03, 1, 6.35, -52.65)" xlink:href="#linear-gradient-2"/><linearGradient id="linear-gradient-85" x1="211.11" y1="354.36" x2="229.03" y2="409.66" xlink:href="#linear-gradient-3"/><linearGradient id="linear-gradient-86" x1="290.9" y1="346.32" x2="298.7" y2="370.38" xlink:href="#linear-gradient-3"/><linearGradient id="linear-gradient-87" x1="148.74" y1="514.96" x2="135.63" y2="227.2" xlink:href="#linear-gradient-2"/><linearGradient id="linear-gradient-88" x1="132.25" y1="501.41" x2="132.25" y2="352.95" xlink:href="#linear-gradient-2"/><linearGradient id="linear-gradient-89" x1="-3903.51" y1="231.38" x2="-3903.51" y2="224.82" gradientTransform="matrix(-1, 0, 0, 1, -3472.49, 0)" gradientUnits="userSpaceOnUse"><stop offset="0" stop-color="#596275"/><stop offset="0.77" stop-color="#3e4e59"/><stop offset="1" stop-color="#35474f"/></linearGradient><linearGradient id="linear-gradient-90" x1="493.73" y1="125.94" x2="493.73" y2="105.16" gradientTransform="matrix(1, 0, 0, 1, 0, 0)" xlink:href="#linear-gradient-89"/><linearGradient id="linear-gradient-91" x1="24.39" y1="97.46" x2="24.39" y2="70.95" gradientTransform="matrix(1, 0, 0, 1, 0, 0)" xlink:href="#linear-gradient-89"/><linearGradient id="linear-gradient-92" x1="78.31" y1="173.72" x2="78.31" y2="164.74" gradientTransform="matrix(1, 0, 0, 1, 0, 0)" xlink:href="#linear-gradient-89"/><linearGradient id="linear-gradient-93" x1="302.62" y1="316.26" x2="289.31" y2="236.41" gradientUnits="userSpaceOnUse"><stop offset="0" stop-color="#cfe0fa"/><stop offset="0.07" stop-color="#d3e2f9"/><stop offset="0.67" stop-color="#f3f1f0"/><stop offset="1" stop-color="#fff7ed"/></linearGradient><linearGradient id="linear-gradient-94" x1="244.88" y1="325.57" x2="231.59" y2="245.83" xlink:href="#linear-gradient-93"/><linearGradient id="linear-gradient-95" x1="248.08" y1="325.05" x2="234.79" y2="245.32" xlink:href="#linear-gradient-93"/><linearGradient id="linear-gradient-96" x1="261.42" y1="322.88" x2="248.12" y2="243.08" xlink:href="#linear-gradient-93"/><linearGradient id="linear-gradient-97" x1="236.16" y1="327.03" x2="222.86" y2="247.23" xlink:href="#linear-gradient-93"/><linearGradient id="linear-gradient-98" x1="225.68" y1="328.88" x2="212.39" y2="249.15" xlink:href="#linear-gradient-93"/><linearGradient id="linear-gradient-99" x1="292" y1="256.79" x2="292" y2="243.21" gradientTransform="matrix(1, 0, 0, 1, 0, 0)" xlink:href="#linear-gradient-89"/><clipPath id="clip-path-2"><path class="cls-4" d="M237.15,608.55c17.37,41.83,27.75,97.71,37,144.08,3.09,3.59,6.49,7,9.82,10.25,7.73,7.65,15.73,16.19,18.54,26.47-4.52-8-12.18-13.88-19.33-19.76-2.31-1.89-4.64-3.91-6.84-6,3.31,16.21,6.48,30.89,9.88,43,5.41,4.76,11.71,8.43,17.17,13.12a35.31,35.31,0,0,1,9.14,11.57c-2.12-3.32-5.82-5.74-9.34-7.58-4.35-2.3-9.08-3.79-13.38-6.12,7,14.82,22.83,14.68,27.55,36.49,9.71-80.84,1.81-158.61-27.6-247.85a550.72,550.72,0,0,1,38.68,248.46c.89-5,4.74-9.5,8.78-12.68,4.77-3.76,10.36-6.29,15.18-9.94a35.66,35.66,0,0,0,4.85-4.37,49.85,49.85,0,0,1-9.09,2.84c-3.49.78-7.27,1.42-10.38,3a32,32,0,0,1,9.35-8c5.24-3.13,11-5.37,16.15-8.65.61-.39,1.22-.79,1.8-1.23a68.41,68.41,0,0,0,4.68-16.27,29,29,0,0,1-9.86,8.51c-4.25,2.19-9,3.33-13.41,5.17a26.15,26.15,0,0,0-7,4.14,20,20,0,0,1,5.27-7.08c3.79-3.35,8.39-5.68,12.49-8.64a47.85,47.85,0,0,0,14.19-16.3v0c.25-2.89.4-5.79.53-8.66a296.94,296.94,0,0,0-3.83-62.16,37.57,37.57,0,0,1-1.71,4c-3.6,7.36-8.83,13.74-13.42,20.49-3.46,5.14-6.61,10.66-8.24,16.57A61.53,61.53,0,0,1,350,730.88c3.55-7.93,8.76-15,12.52-22.86a49.72,49.72,0,0,0,3-7.81v0c-2.88-14.65-6.57-29.14-10.77-43.44-9.3-31.67-21.33-63.32-42.29-88.83-13.66-16.61-31.68-30.37-51.72-37.72a16.82,16.82,0,0,0-21.66,10.68C231.11,565.18,230.9,593.45,237.15,608.55Z"/></clipPath><linearGradient id="linear-gradient-101" x1="-2225.82" y1="2728.17" x2="-2085.75" y2="2588.09" gradientTransform="matrix(-0.99, 0.15, 0.15, 0.99, -2236.24, -1725.2)" gradientUnits="userSpaceOnUse"><stop offset="0.23" stop-color="#d8ecf4"/><stop offset="0.57" stop-color="#d7dff7"/><stop offset="1" stop-color="#d7d2f9"/></linearGradient><mask id="mask-2" x="181.44" y="476.35" width="266.8" height="397.87" maskUnits="userSpaceOnUse"><g class="cls-1"><path class="cls-2" d="M310.3,666.87C339,723.77,382.62,771.41,430.63,812.7c8.34,7.16,17.52,15.62,17.61,26.61.21,26.48-41.54,32.93-60.75,34.44-98.3,7.74-170.38-80.3-193-167.6C183,661.73,176,612.24,186.85,567c6.86-28.64,22.47-58.34,46.51-76.16,10.78-8,28.89-17.09,42.88-13.76,16.79,4,10.05,22.75,7.95,34.68C274.44,567.08,286.31,619.35,310.3,666.87Z"/></g></mask><radialGradient id="radial-gradient-2" cx="-580.65" cy="2904.41" r="408.97" gradientTransform="matrix(-0.81, 0.59, 0.59, 0.81, -1640.38, -1448.61)" gradientUnits="userSpaceOnUse"><stop offset="0.64" stop-color="#fff"/><stop offset="0.69" stop-color="#fed2e0"/><stop offset="0.74" stop-color="#feadc6"/><stop offset="0.79" stop-color="#fd91b3"/><stop offset="0.83" stop-color="#fd81a8"/><stop offset="0.86" stop-color="#fd7ba4"/></radialGradient></defs><g class="cls-5"><g id="Layer_1" data-name="Layer 1"><g class="cls-6"><rect class="cls-3" x="-124.86" y="15.52" width="833.72" height="468.97"/><path class="cls-7" d="M342.67,252.34c-6.32-.43-16.31-.74-22.64-1l-19-.78q-19-.81-38-1.83c-7.22-.38-14.44-.76-21.66-1.18,0,0,0,0,0,.05q38,2.25,76,4c7.22.33,14.45.78,21.67.84C339.24,252.44,342.87,252.35,342.67,252.34Z"/><polygon class="cls-8" points="307.13 284.44 277.97 296.38 276.87 207.48 288.07 206.8 289.55 206.07 307.08 203.62 307.13 284.44"/><rect class="cls-9" x="-130.62" y="10" width="845.24" height="480"/><path class="cls-10" d="M443.64,277c-4.1-.86-7-2.73-9.83-4.56-3.66-2.36-7.37-4.63-11.44-6.76-8.13-4.26-16.7-8.19-23.35-13.27-3.13-2.4-5.91-4.93-9.32-7.2-3.66-2.44-8.44-4.1-12.39-6.34a105.17,105.17,0,0,1-10.9-6.84,73.48,73.48,0,0,0-9.72,2.63c-2.86-2.51-5.62-5.06-8.7-7.47-4.94-3.86-10.13-7.73-13.95-12-1.88-2.09-10.48-6.94-10.48-6.94a32.82,32.82,0,0,0-7.29,2.21,85.75,85.75,0,0,1-7.4-4.45c-2.76-1.94-4.56-4.38-6.69-6.57-2.5-2.57-6.65-7.17-10.36-9.47L287.24,191c-.43-.16-1.14-.39-1.85-.62-2.26-2.63-4.42-5.27-6.36-8-2.5-3.5-6.43-9.09-11.66-11.56-2.42-1.13-3.24-.36-5.66-1.56-.2-1.28-.39-2.56-.56-3.84a12.33,12.33,0,0,0-2.93-7c-1.79-2-4.53-3.8-7-5.58s-3.79-3.42-4.42-5.63c-.8-2.85-2.55-5.27-4.84-7.83-2-2.26-3.89-4.57-5.66-6.9-1.59-2.1-2.69-4.52-5.24-6.31-.44-2.19-4.6-3.87-6.78-5.56-3.56-2.76-9.7-10.15-10.49-9.88-4.73,1.6-9.73,2.92-14.44,4.53-2.56.87-5,1.93-6.44,3.4-4.83,1.88-6.78,6.25-9.25,9a155.63,155.63,0,0,1-12.76,12.1,43.78,43.78,0,0,1-6.81,4.8c-2.41,1.44-4.14,3.21-6.29,4.77-3.33,2.41-8.42,4.13-10.33,7l-.62,0c-1.29,0-3.88-.31-3.93-.31-.27-.17-1.88,2.07-2.34,3a12.41,12.41,0,0,0-.84,2.37c-.16.6-.32,1.2-.49,1.8a24.89,24.89,0,0,0-3.56,5.1q-2,3.16-3.94,6.33c-2.08,3.33-4.54,6.74-6.29,10.19-1.27,1.34-2.63,2.64-3.86,4-1.55,1.7-2.79,3.49-4.38,5.18a20.1,20.1,0,0,1-3.33,2.86c-.54.28-1.09.55-1.66.8a56.26,56.26,0,0,1-7.79,2.5c-.41,0-.83,0-1.25,0l-.17,0c-1.74-.27-3.43-.89-5.24-.79-.09,0-.12.06-.1.1s-1.88,1.88-2.78,2.76l-.65.13c-.76,0-1.5.05-2.31.09-.19,0-5,8.2-7.81,12.08a21.16,21.16,0,0,0-1.94,2.11,6.8,6.8,0,0,0-1,1.89l-.53.71c-1.54,2-3,4.09-4.65,6.09l-3.1,3.18c-1,.41-2,.79-3,1.16-2.54,1-4.9,2.11-7.36,3.13-11.2,4.67-22.16,9.29-32.32,14.71-9.74,5.2-20.54,10.19-29.1,16.06-.51.35-4.7,3.07-6.07,4.17-1,.83-57.85,11.4-4.62,45.49,3.81,2.44,36.16,30.2,45.25,33.39,8.73,3.06,108,16.53,118,18.71,10.74,2.33,53.3-17.91,64.59-19.62,11-1.65,21.41-4.84,31.77-7.44l30.46-7.63,74.33-18.62c23.55-5.9,47.25-11.71,69.36-19.27,2.81-1,5.2-2.51,6.35-4.28a53.26,53.26,0,0,0,8-3c2.42-.83,4.77-1.73,7.07-2.69C449.48,281.22,447.57,277.78,443.64,277Z"/><path class="cls-11" d="M212.28,105c-5.65,2.81-7.57,6.2-12.56,8.87a63.77,63.77,0,0,0-5.79,3.95c.85,1.06,5.09,2,6.58,2.61l.42.19a1.26,1.26,0,0,1,.69,0,20.32,20.32,0,0,0,4.24.49c1.09-.41,2.12-.87,3.1-1.35a49.6,49.6,0,0,1,6.36-4.43c.65-.52,1.34-1,2.05-1.5C215.59,112,212.59,104.87,212.28,105Z"/><path class="cls-12" d="M443.64,277c-4.1-.86-7-2.73-9.83-4.56-3.66-2.36-7.37-4.63-11.44-6.76-8.13-4.26-16.7-8.19-23.35-13.27-3.13-2.4-5.91-4.93-9.32-7.2-3.66-2.44-8.44-4.1-12.39-6.34a105.17,105.17,0,0,1-10.9-6.84,73.48,73.48,0,0,0-9.72,2.63c-2.86-2.51-5.62-5.06-8.7-7.47-4.94-3.86-10.13-7.73-13.95-12-1.88-2.09-10.48-6.94-10.48-6.94a32.82,32.82,0,0,0-7.29,2.21,85.75,85.75,0,0,1-7.4-4.45c-2.76-1.94-4.56-4.38-6.69-6.57-2.5-2.57-6.65-7.17-10.36-9.47L287.24,191c-.43-.16-1.14-.39-1.85-.62-2.26-2.63-4.42-5.27-6.36-8-2.5-3.5-6.43-9.09-11.66-11.56-2.42-1.13-3.24-.36-5.66-1.56-.2-1.28-.39-2.56-.56-3.84a12.33,12.33,0,0,0-2.93-7c-1.79-2-4.53-3.8-7-5.58s-3.79-3.42-4.42-5.63c-.8-2.85-2.55-5.27-4.84-7.83-2-2.26-3.89-4.57-5.66-6.9-1.59-2.1-2.69-4.52-5.24-6.31-.44-2.19-4.6-3.87-6.78-5.56a64.8,64.8,0,0,1-5.76-5.53c-1.72,1.23-3.46,2.46-5.35,3.6-.67.58-1.35,1.16-2,1.73s-1.52,1.27-2.35,1.88c0,.13,0,.28-.19.41-.61.39-1.24.78-1.89,1.16-1.85,1.32-3.86,2.58-5.88,3.83a.55.55,0,0,1-.26.23l-.56.28c-1.14.71-2.27,1.42-3.36,2.14l-.22.14a.23.23,0,0,1,.13.19c0,1.69,1.48,3.25,1.74,4.94s.92,3.68.82,5.49a7.42,7.42,0,0,1-.4,2c.5-.07,1.1.15.87.5-1.11,1.69-1.75,3.51-3.15,5.13a.13.13,0,0,1,.06.07c1.15,1.86,2.21,5.43-.37,7a.91.91,0,0,1-.31.12c-.2.17-.42.34-.64.5a12.7,12.7,0,0,1-2,2.64c-.48,1.06-.76,2.28-2,3.13-1.43,1.28-3.57,2.42-5.13,3.57l-1.07.79a18.92,18.92,0,0,1-4.16,3.91q.84-.3,1.71-.57c1.44-.45,2.77.28,2.78,1,1.12-.43,3-.17,2.88.81-.47,3.77-9.06,6.56-13.79,8.54l-.7.31a.27.27,0,0,1,0,.17,95.31,95.31,0,0,1,13.05-3.79c.93-.16,1.4.51.87.85.86.24,1.35.84.79,1.45l-.07.08c.18.31.09.68-.44,1l-.53.34c-.61,1.1-1.33,2.16-2,3.24s-.89,1.36-1.81,1.74v.3a.43.43,0,0,1,.19.23,7.72,7.72,0,0,1,.16,2,8.49,8.49,0,0,1,.14.88c.2.73.44,1.46.68,2.19,1.06-.56,3,.13,2.49,1,.21.23.22.52-.12.81a20.23,20.23,0,0,1-2.85,1.94,3.9,3.9,0,0,1-.28,1.18.68.68,0,0,1-.57.34,4,4,0,0,1,0,.85,4.64,4.64,0,0,1,1.2,3.4,8.79,8.79,0,0,1-1.47,4.75,2.36,2.36,0,0,1,.8-.28h.07a5.1,5.1,0,0,1,2.17.58c.05,0,6.93.84,6.93.84,1,1,2.8,1.42,4,2.31a35.65,35.65,0,0,1,4.27,3.73c.3.32.63.65,1,1,1.73-.64,5-1.19,6.65-1.81a3.65,3.65,0,0,1,1.38,1c1.47.94,2,2.1,3.19,3.29a37.39,37.39,0,0,0,6.28,5.61l.09.07c4.58-2.31,10.06-4.45,13.63-7.3.73-.58,1.9,2.33,2.57,3.09,2.39,2.72,3.43,2.9,4.77,5.82,5.43-1.88,13.53-4.52,13.53-4.52,2.69,1.58,8.56,7.6,10.4,9.55a1.57,1.57,0,0,1,.38,1.87c.52.28,1,.59,1.57.91,1.85,1,7.39.43,9.86.6,2,.14,4.65,0,8.56-.12,4.15-.14,9.61-2.27,9.61-2.27.65,2,3,7.76,2.33,9.75a70.7,70.7,0,0,1-3,7.12c-2.12,4.5-2.68,9.16-4.79,13.65s-6.73,8.2-14.15,10.52a71.82,71.82,0,0,0-11.42,4.22c-3.51,1.79-7.17,3.47-10.88,5.12A437.41,437.41,0,0,1,204.3,298c-18.19,5.64-37.29,10.49-56.3,15.14-10.11,2.47-20.6,5.35-31.42,7.26,4.56,2,9,4,13.38,6.08a199,199,0,0,0,24.9,9.73c9.43,3,19.47,5.46,29.52,7.64,10.73,2.32,22.67,3.63,34,1.92,11-1.65,21.41-4.84,31.77-7.44l30.46-7.63,74.33-18.62c23.55-5.9,47.25-11.71,69.36-19.27,2.81-1,5.2-2.51,6.35-4.28a53.26,53.26,0,0,0,8-3c2.42-.83,4.77-1.73,7.07-2.69C449.48,281.22,447.57,277.78,443.64,277Z"/><path class="cls-13" d="M106.84,203.84c-.14-.26,0-.55.43-.78,9-4.5,18.69-8.7,27.32-13.44,3.8-2.09,7-4.5,10.95-6.49l2-1h0c-4.69,2.1-9.55,4.09-14.25,6.17-5.48,2.77-10,6.09-15.73,8.76-3,1.4-6.09,2.71-9.22,4a23,23,0,0,1-1.86,1.45c-.55.28-1.1.55-1.67.8a56.26,56.26,0,0,1-7.79,2.5l-.47,0a.72.72,0,0,1-.19.62c3.24-.83,6.54-1.59,9.82-2.37A1.69,1.69,0,0,1,106.84,203.84Z"/><path class="cls-14" d="M177.18,137.35a12.34,12.34,0,0,1,1.77-1.26,20.77,20.77,0,0,0,3.73-4.55c.73-1.31,2.71-3.6,2.22-5.15l-.4.28a13.39,13.39,0,0,1-3.37,3.75,48.3,48.3,0,0,1-2.78,4.14A28.9,28.9,0,0,1,173,139.7l.83-.32C175,138.73,176.16,138.07,177.18,137.35Z"/><path class="cls-15" d="M125.32,191.07c1.86-1.11,3.73-2.21,5.7-3.24,0-.15.13-.3.41-.43,5.62-2.49,11.5-4.86,17-7.43.57-.46,1.17-.91,1.78-1.36a.63.63,0,0,1,.2-.26,65.09,65.09,0,0,1,8.88-5.78,63.64,63.64,0,0,1,9.78-8.21.24.24,0,0,1,0-.39,33.17,33.17,0,0,1,6.18-4.58l3.59-2.86c2.38-1.88,4.82-3.73,7.22-5.6a32,32,0,0,0,4.21-4.4,5.17,5.17,0,0,0,1,2.43.54.54,0,0,0,.55.14c.08.27.18.55.29.83,0,0,.07,0,.08,0l.18-.49c.59,1.64,1.17,3.28,1.66,4.94,0,0,.07,0,.07,0a33.56,33.56,0,0,0-.89-7.22,30,30,0,0,0-1.16-4.32,14.51,14.51,0,0,0-1.33-2.88c-.2-1.54-.53-3.07-.88-4.6,1.87-.88,3.68-1.8,5.43-2.72l.3-.16a13.56,13.56,0,0,0,2.17,3c1.15,1.44,2,2.95,3.15,4.38,0,.07.24,0,.21,0-.66-1.31-1.51-2.6-2.26-3.9.11-1.15-.59-2.32-1-3.44a4.57,4.57,0,0,1-.13-1.19c5.16-3.17,8.49-6.54,13.13-10l.25-.51c-1.54.85-3.21,1.84-4.57,2.78a43.61,43.61,0,0,0-7.19,3.4c-1.13-.22-2.33-.36-3.46-.59-1.37-.28-2.7-.65-4-1a21.31,21.31,0,0,1-3.08-.9c-.25-.09-1.41-.21-1.45-.24s-.12,0-.09,0c.62.8,2.91,1.3,4.12,1.67h0c-.93-.18-1.86-.35-2.82-.44a18.13,18.13,0,0,1-2.11-.67,1.9,1.9,0,0,1-.42.64c1.35,1.7-.53,4-1.46,5.67a20.4,20.4,0,0,1-1.62,2.38c.46-.07,1,.09,1,.42s-.1.64-.17.95c1.75-.69,3.16-1.57,4.9-2.33a28.88,28.88,0,0,1,4-1.26l-.37.2c-3.48,1.94-8.8,4.18-10.69,6.87a58.17,58.17,0,0,0-5.06,3c-1.9.75-3.86,1.46-5.84,2.15-.95.45-2,.88-2.93,1.23a40.48,40.48,0,0,1-4.34,3c3.68-1.44,7.32-2.91,10.72-4.56,4-1.91,7.93-3.85,11.5-6,.66-.27,1.32-.54,2-.82a.2.2,0,0,0-.06.15s0,.06,0,.1h0c0,.13,0,.25,0,.37a122.84,122.84,0,0,1-12.61,6.7c-4.91,2.33-10.18,4.36-15.45,6.4-2.46.95-4.69,2.08-7,3.16-.72.59-1.43,1.17-2.21,1.73-3.32,2.42-8.42,4.14-10.32,7l-.63,0c-1.28,0-3.88-.31-3.93-.31s-1,.87-1.62,1.81c.89.11,1.39.62,1.24,1.08a33.65,33.65,0,0,0,4.46-.94l.11,0c6.9-2.93,14.48-5.26,21.45-8.14l.19-.12a2,2,0,0,1,.48-.2c1.2-.67,2.43-1.34,3.7-2a1.08,1.08,0,0,1,.86,0,27.72,27.72,0,0,0,5.94-3.55,2.1,2.1,0,0,1,1.72-.3c1.54-.82,6.16-2.29,5.53-1.94l-1.42.79a.32.32,0,0,1-.11.33c-5.73,5.42-13.85,9.47-22.29,13.35-1.11.75-2.24,1.5-3.41,2.23-3.78,2.35-8.06,4.38-12.2,6.52-5.42,2.79-10.07,6.22-15.41,9.12-.13.21-.26.41-.38.62-2.09,3.33-4.55,6.74-6.3,10.19-1.27,1.34-2.63,2.64-3.86,4q-.57.65-1.11,1.29c3.83-1.51,7.83-2.91,11.49-4.54A1.81,1.81,0,0,1,125.32,191.07Zm67.25-64.33a.3.3,0,0,0-.14.13c-.33-.14-.67-.29-1-.42Zm2.37,1.38-.61-.25c.92.19,2,.26,3,.36l.89.17c-1.18.6-2.35,1.21-3.51,1.82.57-.41,1.14-.82,1.69-1.24C195.92,128.69,195.44,128.4,194.94,128.12Zm-.47,3.65c.52-.29,1-.59,1.52-.89v0c-.83.51-1.68,1-2.58,1.49-.43.24-.88.47-1.32.7Zm-14.57,8.08-.43.3-.4.17Z"/><path class="cls-16" d="M187.77,152.86q.45-.59.87-1.17a10.27,10.27,0,0,1-1.89,1.3c-2.82,2.47-6.67,4.51-10.22,6.69l-1.36,1.09.73-.36c2.08-1.26,4.4-2.41,6.41-3.69A34.2,34.2,0,0,0,187.77,152.86Z"/><path class="cls-17" d="M112.34,260.58l-5,1.8c3.53-1.05,7-2.17,10.26-3.1,3.68-1,7.4-2,11.1-3l-1-.19c-.5,0-1,.07-1.51.09C121.36,257.4,116.82,259,112.34,260.58Z"/><path class="cls-18" d="M164.29,156.12a1.14,1.14,0,0,1-.61.5l-.42.17-.49.3.07,0c1.39-.71,2.74-1.45,4.06-2.2Z"/><path class="cls-19" d="M153.82,250c2.65-1.79,5.23-3.63,7.79-5.46,5.2-3,10.37-6.1,15.64-9.1,3.88-2.22,7.64-4.5,11.18-6.9,2.74-1.86,6-4,7.91-6.34a19.61,19.61,0,0,0,2.86-2.6c1-.61.55-.65,1.39-1.31.25-.2,1.12-1,.81-.86-.63.27-6.32,1.58-6.65,1.81a32.34,32.34,0,0,0-3.6,2.27.48.48,0,0,0-.25.45c-5.79,3.89-11.48,7.82-16.85,11.91-2.46,1.88-5,3.75-7.45,5.62-5.42,3.18-10.71,6.49-14.44,10.28-.08.08.1.19.24.12l3.66-2.12c-.84.7-1.68,1.42-2.49,2.13C153.46,250,153.69,250.11,153.82,250Z"/><path class="cls-20" d="M275.69,246.46c-.05,0,.05.08.11,0,.77-.52,1.49-1.06,2.23-1.59.05,0,0-.06-.09,0C277.19,245.4,276.41,245.92,275.69,246.46Z"/><path class="cls-21" d="M250.62,262.21c-.13.08,0,.2.2.12A182.54,182.54,0,0,0,272,249c.07,0-.07-.11-.14-.07C265,253.46,257.73,257.78,250.62,262.21Z"/><path class="cls-22" d="M201.91,169.47a9,9,0,0,0,1.47,1.41s.13,0,.12,0a10.69,10.69,0,0,0-1.58-2.27,4.76,4.76,0,0,0-1-1.2,28.39,28.39,0,0,0-2.49-3.54c-1-1.56-2-3.14-3.08-4.69,0,0-.06,0-.06,0a15.94,15.94,0,0,0,1.91,4.54c-1.31-1.35-2.61-2.7-3.76-4.09a16.57,16.57,0,0,1-2.47-4.1c-.14-.54-.27-1.09-.44-1.63a1.21,1.21,0,0,1,0-.19.18.18,0,0,0-.14-.18,5,5,0,0,0-.2-.49c-.06-.12-.43-.13-.42,0s0,.07,0,.11a1.88,1.88,0,0,0-.59.69l-.05.11-.14.11a.8.8,0,0,0-.3.09c-.48.25-1,.51-1.42.78s-1,.53-1.48.81l.05-.17a.4.4,0,0,1,.17-.35l0-.05h0l-1.24.85c-1.47,1-3.1,1.91-4.73,2.83a.3.3,0,0,1-.16.26c-.36.24-.77.47-1.22.71.14.13.15.3-.11.43-.93.48-1.8,1-2.62,1.52a30.46,30.46,0,0,1-2.86,2.5l.54.38a25.18,25.18,0,0,0-3.1,4.33,31.52,31.52,0,0,1-6.07,7.12c-.53.37-1.09.73-1.65,1.1-.35.21-.7.42-1,.64-2.23,1.33-4.12,2.89-6.51,4.12,0,0,0,0,0,0,.94-.49,1.92-1,2.89-1.46l-1.14.95s0,0,0,0l1-.63a14.49,14.49,0,0,0,4.14-2.27c.48-.32.94-.65,1.39-1l.32-.2c2.27-1,4.28-2.26,6.34-3.34a51.85,51.85,0,0,0,6.87-4.13s0-.08-.1-.05c-2.48,1.25-4.84,2.57-7.37,3.79l-.57.27.14-.11c1.26-.77,2.52-1.53,3.74-2.33a36.67,36.67,0,0,0,5.46-4.66,28.58,28.58,0,0,0,2.65-2.77l1.2-.53a36.39,36.39,0,0,1,5.51-1.85l.19,0-1.42,1a32.89,32.89,0,0,0-3.45,2.57c-1.44,1.06-2.93,2.11-4.54,3.09,0,0,0,.05,0,0l1.48-.76,0,0h0l-.36.26.37-.25a0,0,0,0,0,0,0l.8-.47c.63-.33,1.23-.68,1.81-1h.06c.42-.16.82-.33,1.22-.51a31.07,31.07,0,0,1-2.67,2s0,0,0,0a21.25,21.25,0,0,0,3.8-2.33c.27-.21.61-.45.91-.7a.39.39,0,0,0,.1-.08,6.55,6.55,0,0,0,1.81-2.29l.41-.4.25-.21a.56.56,0,0,0,.35-.28l0,0,.07,0a1.11,1.11,0,0,0,.27-.12,16.53,16.53,0,0,0,3,1.43,1.09,1.09,0,0,0,.17.13.52.52,0,0,0,.38.11,8,8,0,0,1,1.54.84l1.12.85a6.25,6.25,0,0,1,.4.5,9.5,9.5,0,0,0,2.12,2.25c1.07.75,2.6,1.21,3.49,2.07A.44.44,0,0,0,201.91,169.47Z"/><path class="cls-23" d="M188.36,183.84a37.78,37.78,0,0,0,5,4.13l.12.06a15.58,15.58,0,0,0,3,1.17s0,0,0,0c-.44-.23-.87-.47-1.33-.7a3.5,3.5,0,0,0-1.24-1.75c-1.17-2.07-2.77-4-3.85-6.13a12.7,12.7,0,0,0-4-4.77,7.91,7.91,0,0,0-1.81-1.29c-.06,0-.17,0-.18,0l0,0a1.6,1.6,0,0,0-.12,1A8.39,8.39,0,0,0,188.36,183.84Z"/><path class="cls-24" d="M184.87,198.23c-.05-.06-.19,0-.18,0,.19,1.07,1.67,1.83,2.27,2.84s2.87,1.56,4.25,2.05c.1,0,.27,0,.19-.09a16.62,16.62,0,0,0-3.14-2.46,19.09,19.09,0,0,1-1.8-.77A13.33,13.33,0,0,1,184.87,198.23Z"/><path class="cls-25" d="M198.21,204.23c-.33-.45-1.21-.63-1.82-.94l-.1,0a.27.27,0,0,0-.08-.07.63.63,0,0,0-.22-.09,7.15,7.15,0,0,1-1.58-1c-.09-.08-.32,0-.24.07a6.89,6.89,0,0,1,.55.72h0a6.52,6.52,0,0,0-1-.39c-.7-.16-1.28.49-.59.69.41.11.81.37,1.27.48v0a9.75,9.75,0,0,0,1.5.55,8.74,8.74,0,0,0,2.64.78c.08,0,.14,0,.1-.08a2.35,2.35,0,0,0-.54-.42h0C198.23,204.45,198.28,204.33,198.21,204.23Z"/><path class="cls-26" d="M210.19,126.36c.87,2.09,2.93,4.06,4.48,6a36.45,36.45,0,0,0,5,5.66c1.73,3.16,4,6.24,5.45,9.44,0,.06.18,0,.16,0-1.79-4.62-2.85-9.66-7.05-13.82-.12-.12-.45-.07-.41.08.09.32.2.65.32,1-.74-.89-1.54-1.77-2.27-2.64-1.62-1.91-3.15-4.07-5.52-5.71C210.27,126.3,210.17,126.32,210.19,126.36Z"/><path class="cls-27" d="M202.18,144.07c-.26-.83-.57-1.65-.76-2.49,0,0-.1,0-.09,0a10.73,10.73,0,0,0,.73,2.49S202.2,144.11,202.18,144.07Z"/><path class="cls-28" d="M206.05,155.57a31.06,31.06,0,0,0-3.33-10c0-.07-.21-.05-.19,0a104,104,0,0,1,3.39,10S206.06,155.62,206.05,155.57Z"/><path class="cls-29" d="M217.54,185a8,8,0,0,0-.55-.66l0-.12c-.63-.82-1.29-1.63-2-2.42a45.77,45.77,0,0,0-5.82-2.65c-1.63-.73-3.11-1.6-4.69-2.38a4.94,4.94,0,0,0-1.15-.57h-.09l-.25-.11c-1.37-.82-2.58-1.72-3.92-2.56,0,0-.14,0-.11,0a18.72,18.72,0,0,0,2.84,2.24,7.87,7.87,0,0,1,1.44,1.78,25,25,0,0,1,2.21,3.16,27.64,27.64,0,0,0,1.79,3.21c0,.06.19,0,.19,0s0-.22,0-.34.1,0,.09-.05a8.66,8.66,0,0,1-.38-1.79,2.66,2.66,0,0,0,.29-2.12,7.56,7.56,0,0,0,1.38,1.39,26.26,26.26,0,0,0,2.8,2.34l.18.22c.14.14.48,0,.39-.1a5.37,5.37,0,0,1-.52-1.57l0,0c.36.18.79.33,1.12.47a19.56,19.56,0,0,1,2.34,1.4,20.56,20.56,0,0,1,2.64,2.08c0,.06.2,0,.19,0a2.27,2.27,0,0,0-.35-.74Z"/><path class="cls-30" d="M265.59,194.69c-.19.25-.4.5-.62.74a.09.09,0,0,0-.13,0l-.29.46a18.83,18.83,0,0,0-2,2.36c0-.19,0-.38,0-.57.09-1.52,1.5-2.9,1.5-4.46a.49.49,0,0,0-.4-.46c-4.18-1.22-7-3.7-10.68-5.38a49,49,0,0,1-12.29-7.54.71.71,0,0,0-.48-.15c-2-1.95-4-3.86-6-5.75-.07-.07-.26,0-.2.05.56.72,1.14,1.43,1.72,2.14l.09.22c-.05,0-.11,0-.09,0,.11.23.22.47.34.71a24.43,24.43,0,0,0,.48,2.47.17.17,0,0,0,0,.12l.05.06,0,.12a.26.26,0,0,0,.1.07,7.23,7.23,0,0,0,.72.75c.13.46.27.92.45,1.38.64,1.67,1.84,3.25,2,5,0,0,.09,0,.11,0a6.35,6.35,0,0,0,.31-2.66l.45.3a16.21,16.21,0,0,1,3.13,2.44,14.35,14.35,0,0,0,2.81,5.35l.28.32a11.12,11.12,0,0,1,.36,2c.05.71-.18,1.45.6,2.06.94.73,1.93,1.43,2.91,2.13l.16.36a28.31,28.31,0,0,0,3.61,6.24c.05.06.2,0,.19,0-.09-.38-.19-.76-.29-1.15a5.12,5.12,0,0,0,.52-1.56c.23.29.47.59.72.88,1.86,2.73,3.28,5.53,5.06,8.29.12.19.68.17.77,0a16.74,16.74,0,0,0,1.22-4.83c1.07-1.56,1.22-3.48,1.59-5.07a17.78,17.78,0,0,0,.6-6.43,5.59,5.59,0,0,0,.63-1S265.61,194.67,265.59,194.69Z"/><path class="cls-31" d="M277.71,213.79c0-.3-.34-.59-.9-.6a7,7,0,0,0-2.19.25c-.16-.25-.32-.49-.47-.74a22.9,22.9,0,0,0-6.23-6.58s-.17,0-.16,0a1.11,1.11,0,0,0,0,.17c-.07,0-.13,0-.13.07,0,1.22-.26,2.53-.25,3.8a7,7,0,0,1,3,2.33,10.84,10.84,0,0,1,5.37,3.66,16.81,16.81,0,0,1,2.93,1.87c.25.15.5.31.73.47-.12-.38-.33-.76-.49-1.15A9.9,9.9,0,0,1,277.71,213.79Z"/><path class="cls-32" d="M291.82,189.93a2.69,2.69,0,0,0-.87.12,3,3,0,0,0-.57.22,6.76,6.76,0,0,0-.71.16l-.07,0h-.16c-.23,0-.45,0-.67.09h0a3.13,3.13,0,0,0-1.12.28,7.66,7.66,0,0,0-2.69,1.29c-.07.06-.07.12,0,.17-.17.1-.35.19-.53.28,0,0,0,0,0,0a7.41,7.41,0,0,0,1.87-.47l.39-.11a2.17,2.17,0,0,0-.7.42c-.23.21,0,.55-.22.72a16.18,16.18,0,0,0-1.7,1.24c-.05.05,0,.12.13.09a6.73,6.73,0,0,0,1.38-.63l.21-.12-.2.16a5.08,5.08,0,0,0-.94,1h0c-.3.31-.55.75-.38,1.1l-.41-.08c-.51-.11-.07-.7,0-.9s-.19-.12-.24-.05a2,2,0,0,0-.37.58.05.05,0,0,0,0,0,1.84,1.84,0,0,0-.47,1.38c0,.13.09.23.31.27a3.18,3.18,0,0,1,1.37.61,2.65,2.65,0,0,0,.41.41,5.19,5.19,0,0,1,.36.46c.24.32.5.64.74,1-.51.7.28,1.76.56,2.42.56,1.31.63,2.62,1.06,3.93,0,.11.3.16.42.07.06.32.14.64.23,1,0,0,0,0,0,0a4.81,4.81,0,0,0,.24,1.72c0,.07.21.08.23,0a8.37,8.37,0,0,0,.27-2.9,33.47,33.47,0,0,1,.22-3.61c.27-2.26,1.34-4.61.55-6.87,0,0-.17,0-.15,0a5.56,5.56,0,0,1,0,3.08,1.4,1.4,0,0,0-.93-1.1,1.63,1.63,0,0,0-.17-.2c0-.17,0-.33,0-.5a2.89,2.89,0,0,0-.05-1.27c.08-.22.16-.44.26-.65s.43-.65.64-1c.12.33.35.62.19,1,0,0,.07.06.1,0s.24-.22.19-.42a1.36,1.36,0,0,1,.55-1.61,2.42,2.42,0,0,0,.71-1.11,1.77,1.77,0,0,0,.56-1.17S291.82,189.93,291.82,189.93Z"/><path class="cls-33" d="M318.64,209.39c-1.26.52-2.37,1-2.37,1,.08.34.8.68,1.4.7h.15a3.3,3.3,0,0,1,.88.14.44.44,0,0,0,.06.35,2.47,2.47,0,0,1,.27.42c-.36.33-.72.66-1.07,1a25.51,25.51,0,0,1-2.87,1.41c-.41.14,1.71,4.25,2.62,5.9a20.16,20.16,0,0,1,1.44,3.51,2,2,0,0,0,.32,1.33,5.66,5.66,0,0,0,.61,2.35c1.37,2.71,2.81,4.89,2.81,7.78,0,.07.18.08.19,0a11.67,11.67,0,0,0-1.14-6.66,10.54,10.54,0,0,1-1.27-3.72,6.58,6.58,0,0,0,.25-2,30.32,30.32,0,0,0,.42-3.28c0-.36-.92-.63-1.28-.25l0,0c.27-1.61,1.08-5.15.9-5.25a4.7,4.7,0,0,0-.1-2,.87.87,0,0,0-.14-.27.34.34,0,0,0,.09-.08c.24-.32.48-.63.68-1a1.82,1.82,0,0,0,.4-.32,4.73,4.73,0,0,0,.52-.85,9.8,9.8,0,0,1,1.19-1.52A15.4,15.4,0,0,0,318.64,209.39Z"/><path class="cls-34" d="M381.86,268.21a25.08,25.08,0,0,0-2.54-2.77,10.64,10.64,0,0,0-3.4-3.69,4.25,4.25,0,0,0-1.17-.78l-.71-.44c-.7-.48-1.31-1-2-1.45a.76.76,0,0,0-.62-.08l-.4-.22c-1.21-.69-2.43-1.36-3.61-2a8.27,8.27,0,0,1-1.79-1.68c-.48-.67-1.42-1-1.52-1.73a1.28,1.28,0,0,0-.68-.83c.38-.52.75-1,1.12-1.53a9.55,9.55,0,0,0,1.71-3.72,7.27,7.27,0,0,0,1.38,1.24c1.39.94,3.19,1.62,4.7,2.5s2.35,1.93,3.72,2.82c0,0,.1,0,.09,0a15.45,15.45,0,0,0-4.76-4.74c-2.08-1.48-2.49-3.77-4.44-5.23.1-.45.22-.9.37-1.36.18.21.36.42.57.63a11.14,11.14,0,0,0,2.7,1.8.2.2,0,0,0,.17,0c.51.49,1.11,1,1.63,1.43,0,0,.12,0,.09,0a19.83,19.83,0,0,0-2-2.05,10.5,10.5,0,0,0-1.51-1.75c-.4-.38-.62-.92-1.06-1.32a1.54,1.54,0,0,0-.43-.69h0s0,0-.06,0-.31-.08-.35,0l0,.08a8,8,0,0,0-3.12,1.76.92.92,0,0,0-.16-.27,12.61,12.61,0,0,0-2.57-2.24,3.26,3.26,0,0,1-.64-.55,8.59,8.59,0,0,0,.17-1.21l0-.08a.6.6,0,0,0,.3-.36,1.77,1.77,0,0,0,.05-.32c.21-.41.41-.82.65-1.21.9-1.45,4.72-4.07,4.7-4.07a8.48,8.48,0,0,0-1.76.36s-.4,0-.64.07a2.12,2.12,0,0,0-.21.11,16.91,16.91,0,0,0-2.14.41l-2.14.68a1.76,1.76,0,0,0-.66.15,2,2,0,0,0-.29.14c-.62.19-1.87.71-1.88.71-.14.92.18,2.65.09,3.56a.59.59,0,0,0,.05.23,10.5,10.5,0,0,0,.12,1.45c.11.87,1.37,1.16,1.87,1.91.62.92,1.75,1,1.92,2.09.08.53.16,1.06.25,1.58-.05.08-.1.16-.14.24a.88.88,0,0,0-.62.66,32.43,32.43,0,0,1-2.56,8.24c-.52,1.25-1.16,2.5-1.55,3.77a9.09,9.09,0,0,0-.36,2.49,1.86,1.86,0,0,1-.94.68,4,4,0,0,0-1.32.57,1.73,1.73,0,0,0-.2-.41.57.57,0,0,0-.67,0c-1,1.06-1.13,2.38-1.76,3.53a37.93,37.93,0,0,0-2.15,3.47,36.43,36.43,0,0,0-5.22,6.88c0,.06.12.11.19.05a40.47,40.47,0,0,0,5.53-6,8.22,8.22,0,0,0,1.82-1.51,18.87,18.87,0,0,0,3.92-4.23c.53-.86,1.77-1.27,2.28-2.17a4.87,4.87,0,0,0,.36-.82,13.07,13.07,0,0,0,1.55-2.12,23.63,23.63,0,0,0,1-2.16c.55-.58,1.05-1.18,1.53-1.78a4.47,4.47,0,0,0,1.7.9,16.08,16.08,0,0,1,3,1.32,4,4,0,0,0,2.6,1.77l.12,0c.3.19.61.38.93.56a.33.33,0,0,0,.22,0,5,5,0,0,0,1,.56l.08,0a6.36,6.36,0,0,0,1.53,1.36,5.3,5.3,0,0,0,2.26,1.09c.53.47,1.1.94,1.67,1.4,0,0-.05,0,0,.06a3.3,3.3,0,0,0,1.29,1.09.31.31,0,0,0,.13,0l.24.22a12,12,0,0,0,3.18,3.07C381.73,268.37,381.93,268.29,381.86,268.21Z"/><path class="cls-35" d="M281.37,291.37c-1-.48-2-.93-3.05-1.38a1.17,1.17,0,0,0-.38-.91c-1.23-1.33-3.67-2.61-6.5-3.82q-18.3-9.88-36.78-18.56a153.19,153.19,0,0,0-16.59-7.11c-4.71-1.58-10.34-2.46-15.53-3.59a73.5,73.5,0,0,0-7.21-3.48c-3.67-1.48-8-2.66-11.63-4.09-2.82-1.12-5-2.46-7.55-3.62a57.38,57.38,0,0,0-9.1-2.85c-4.37-1.09-9.11-1.63-13.49-2.33a33.87,33.87,0,0,0-8.49-2.23l-.95-.23a15.33,15.33,0,0,1-1.85-1,1.88,1.88,0,0,0-1.57,0c-4.33,3.34-10.86,6.08-16.6,9.05a16.27,16.27,0,0,0-5.25,2,12.42,12.42,0,0,0-3.13,2.33l-1.64.75c-1.71-.21-3.39-.35-4.9-.41a3.75,3.75,0,0,0-2,.38c-4.78,3.57-10.86,6.74-16.93,10-3.43,1.83-6.9,3.64-10.32,5.48-2.43,1.31-5.26,2.61-7.58,4-1.51.72-3,1.45-4.49,2.2-2.43,1.22-3.15,2.64-1.81,4.27.77.94,2.46,1.43,4.27,1.45a10.82,10.82,0,0,0,2.79.57q4.32.36,8.67.78a11,11,0,0,0,4.55.45c20.25,2.07,42.09,19,64.09,21.8,13.89,1.79,35.12,9.13,49.87,10.21,7.1.52,19,3.52,26.73,3.61,4.24.59,51.69,26.71,56.26,27,17,.93,51.1-19.75,67.72-20.56C354.65,321.29,284,292.63,281.37,291.37Z"/><path class="cls-36" d="M127.9,247.12l-.39.14a14.46,14.46,0,0,0,.82,1.33A4.26,4.26,0,0,0,127.9,247.12Z"/><path class="cls-37" d="M135,248.62a2.73,2.73,0,0,1-1.44-.21c-.54,1.08-1.05,2.16-1.57,3.23a.73.73,0,0,1-.48.27c.28.16.54.33.8.5A9.83,9.83,0,0,0,135,248.62Z"/><path class="cls-38" d="M199.54,285.74c-1.62-1-3.46-2-5.32-3.06l-.14-.2a8.76,8.76,0,0,0-3.42-3.67,5.19,5.19,0,0,0-1.72-5.18c-.12-.1-.55-.06-.57,0-.32,1.4,0,2.69-1,4.09l-.57.78-.25-.21a1.18,1.18,0,0,0-.49-.11,87.13,87.13,0,0,0-2.19-9.59c-.48-1.87-1-3.73-1.35-5.6l2.52-1.5a8.22,8.22,0,0,0,1-4.33s0-.06,0-.1c-.48-.25-.65-.59-.25-1s.62-.56.95-.85c-.41-.19-.67-.43-.66-.71,0-1.69.34-3.38-.72-5a.53.53,0,0,1,0-.47l-1.66-.62c-2.82-1.12-5-2.46-7.55-3.62a57.38,57.38,0,0,0-9.1-2.85c-4.37-1.09-9.11-1.63-13.49-2.33a33.87,33.87,0,0,0-8.49-2.23l-.95-.23-.26-.13a5.09,5.09,0,0,0-1.47-.89,2,2,0,0,0-.56-.1c1.61,2.26-.28,4.61-1.55,6.85-1.36,2.4-3.74,5-3.35,7.46-.81.95-1.8,1.95-1.82,2.86,0,.15.42.26.8.21a1.13,1.13,0,0,0,.52.44,1.34,1.34,0,0,0,.84,0l.07,0c.26.39.54.77.83,1.16s.52.66.78,1a17.24,17.24,0,0,0,1.12,2.12,35.58,35.58,0,0,1,2.86,6.09,21.84,21.84,0,0,1,.69,2.45l-.38-.46c-2.51-2.86-5-5.73-7.27-8.61-.89-1.11-1.8-2.22-2.56-3.34l-.21-.26a3.1,3.1,0,0,1-2.22-.27c-2.07-1.8-5.82-3.28-9-4.85.46-.6.45-2,.3-1.87-1.22.75-1.11,1.7-2.68,2.39a3.73,3.73,0,0,0-.78.46,1.73,1.73,0,0,0-1.23,0c-2.28,1.28-2.88,3.05-4.55,4.46a67.12,67.12,0,0,1-7.39,5.1c-.08.06.14.11.24.06,3.09-1.6,6.13-3.19,8.75-4.89a16.57,16.57,0,0,0,3.86-3,15.4,15.4,0,0,0,2.3-1,4.73,4.73,0,0,1-.5,3.72,1.42,1.42,0,0,0-.68.1c-1.83,1-2.22,2.26-3,3.42a29.69,29.69,0,0,1-3.32,3.88,41.7,41.7,0,0,1-10,7.77c-.13.07.17.14.31.07,2-1,3.92-2.08,5.73-3.15l-.7.53c-2.13,1.53-4.24,3.06-6.35,4.6a1.28,1.28,0,0,0-.51.27c-.09.09-.16.18-.23.26-1,.74-2,1.48-3,2.21-.19.14.47.25.7.12l1.52-.87c-.24.66-.37,1.32-.62,2-.61,1.59-1.28,3.17-1.73,4.76a.16.16,0,0,0,0,.15,1.8,1.8,0,0,0-.27.69c0,.09.31.15.51.08a16.86,16.86,0,0,0,5.06-2.89c1.76-1.28,3.49-2.56,5.08-3.87l.37-.3c-.21.71-.43,1.43-.68,2.13a47.14,47.14,0,0,1-2.32,5.56c14,1.71,28.15,9.44,43.06,11.37,1.22.15,2.71-5.46,3.94-5.31a40.1,40.1,0,0,0-4.44-13.87l-.92-1.15a.32.32,0,0,1,0-.44l-.33-.52.9-4.5c.17-.82.51-1.74.8-2.71.9.56,1.87,1.11,2.71,1.68a30.8,30.8,0,0,1,4.58,3.69c1.06,1.07,2,2.16,3,3.24a16.17,16.17,0,0,1,5,2.74c.56.44,1.1.88,1.61,1.32l.47.58a41.23,41.23,0,0,1,5.92,8.59c-.4-.33-.81-.65-1.08-.93-1.63-1.69-4.43-3.21-6.31-4.85-.12-.11-.65-.05-.57.06a15.6,15.6,0,0,1,1.25,2.18,56.26,56.26,0,0,1-6.49-4c-1.95-1.6-2.21-3.47-3.61-5.14a22.86,22.86,0,0,0-5.61-4.39c-.16-.1-.6,0-.46.08,4.61,3.27,5.81,6.67,8.28,10.16a19,19,0,0,0,9.15,7.43c.65.9,1.71,1.79,2.47,2.64a.58.58,0,0,1,.17.65l0,.55c1.66,1.66,1.06,4.88,1.23,4.42,6.29.66,15,10,11.42,8.11C179.87,302.17,234,314,240,314.26c-.06-.08-31.53-21.63-31.59-21.71C206.55,290.05,203.17,288,199.54,285.74Zm-18.1-.14c0,.39-.87.59-1.74.59-1.27.66-2.57,1.31-3.86,2-.69.5-1.44,1-2.22,1.48a.9.9,0,0,0-.05-1.05.77.77,0,0,0,0-1,8,8,0,0,0-.91-5.87c1.46-2.44,1.53-5.28,5.18-7.44a4.82,4.82,0,0,1,1-.42,5.44,5.44,0,0,1,1-.33c0-.08,0-.17.05-.26a9.25,9.25,0,0,1,1.18,1.15c.74,1,.8,2,2.45,2.9a1.69,1.69,0,0,0,.81.13c.31.37.64.73,1,1.1-.33.62-.11,1.28-.24,1.91,0,.2-.11.4-.17.6s-.41.55-.6.83a20.8,20.8,0,0,0-2.23,3l-.66.37Z"/><path class="cls-39" d="M228.05,289.88l-.22-.07c-6.24-2.08-11.47-4.5-17.92-6.46l-.63-.12-3.52-.75c1.3.79,2.59,1.58,3.9,2.36a37.2,37.2,0,0,1,7,5.11l.39.1c3,.87-.1,4.26,3.5,4.71,1.64.2,32.62,13.93,34.23,14.16-.26-.14-23-16.78-23.23-16.92C230.36,291.32,229.21,290.6,228.05,289.88Z"/><path class="cls-40" d="M347.19,318.58c-1-.48-100.2-46.08-112.53-51.88a153.19,153.19,0,0,0-16.59-7.11c-4.64-1.56-10.18-2.43-15.3-3.54a32.84,32.84,0,0,1-4.69,2.81l-.17.06L194.46,261c-.06-.14-.12-.28-.17-.42-.53-1.43-1.06-3.32-3.64-4.53a8.7,8.7,0,0,0-2.86-3.22c-.15-.1-.61,0-.48.08,2.8,2.17,1.81,4.62,1.78,6.93,0,2.13-.23,4.25-.36,6.38-.91,1.1-1.89,2.18-2.89,3.22l0,0c-.18.46-.33.92-.47,1.39.3-.05.63-.09,1-.12l.17.08a.53.53,0,0,0,.19,0c1.75.66,3.71,1.25,4.52,2.14a8.23,8.23,0,0,1,1.37,2.29c.56,1.18,1.4,2.44,4.5,3.05,1.82,2.1,5.34,4.18,7.91,6.12.08.06.34,0,.31,0a13.46,13.46,0,0,0-3.81-4.67,6.43,6.43,0,0,1,2.27,0,79.91,79.91,0,0,1,8.69,2.1,81.19,81.19,0,0,1,9.08,2.08,38.49,38.49,0,0,1,6.74,2.89,4.17,4.17,0,0,1,.93.2c8.32,2.76,19.28,3.65,29.17,5.49,3.57.67,27.24,9.91,30.52,10.71,3.91-.11,39.34,19.1,43.11,18.91S349.82,319.84,347.19,318.58Z"/><path class="cls-41" d="M243.43,292.07l.61.17c2.5.74,5,1.49,7.54,2.21,1.36.16,16.92,13.37,18.27,13.55,15.22,4.9,39.1,8.56,40.72,8.54-17.33-10.05-54.79-22.58-57.29-23C250,293.05,246.69,292.57,243.43,292.07Z"/><path class="cls-42" d="M98,288a3.08,3.08,0,0,1,2-4.65l6.27-27.94,4.3,19.17,2.47-11,2.8,12.5,1.37-6.13L120,282.3l2.37-10.6,3.11,13.86,2-9.11,4.29,19.13L135,281.41l.82,3.62,3.38-15.1,2.68,11.95,2.68-11.95,2,8.69,1.95-8.69,4.79,21.38,4-18,1.82,8.1,3.77-16.8,4.52,20.18L170,273.27l3.3,14.72,1.08-4.81,2.38,10.64,3.53-15.74,2.56,11.42,3.64-16.23,1.27,5.65.55-2.47,1.42,6.32,4-17.64,6.58,29.35,1.47-6.55L204,298.1l1.48-6.63,1,4.65,1.47-6.57,1.13,5.06,1.5-6.68,2.1,9.36,1.3-5.82,3.08,13.73L221,287.93l3.51,15.63,1.64-7.34,2.67,11.91,5.52-24.62L241,313.14l3.79-16.92,2.15,9.59,1.43-6.4,2.4,10.69,1.6-7.15,3,13.17L259,299.41l3.88,17.33,2.78-12.37,2,9,3.13-14,7.18,41.2c-5.66,7-10.85,8-19,7.41-4.42-.31-8.84-.09-13.26-.41a80.86,80.86,0,0,1-12-1l-5.49-.32c-6.95-.36-13.88-.49-20.78-1.6a189.5,189.5,0,0,1-20.91-5c-6.86-1.93-13.72-3.84-20.64-5.47-6.5-1.53-13.09-2.48-19.6-3.93-12.44-2.77-24.52-7.84-34.16-17.05-4.19-4-7.7-9.45-10.63-13.42C99.09,296.68,96.48,292.16,98,288Z"/><path class="cls-43" d="M713.15,230.28a29.8,29.8,0,0,0-5.82-.27,37.11,37.11,0,0,1-4.69-1.77c-4.83-2.21-10.43-2.48-16.49-3.46-5.89-1-9-3.55-10.51-3.48-5.07.21-16.88,2.36-21.22,4.06a239.48,239.48,0,0,1-25.89-5.11,21.84,21.84,0,0,0-4.83,1.24h-.14c-1.82-.29-3.56-.59-5.43-.76a10.3,10.3,0,0,1-4.53,2.07c-3.82.87-7,2-12.72,3.88l-.36.38a36,36,0,0,1-8.5-1.64c-3.79-1.23-6.43-5.38-10.63-6-1.18-.18-7.77,2.9-10.59,4.33-3.87,1.95-7.74,3.91-11.66,5.83-7.41,3.63-14.94,7.06-22.79,10.19-5.7,1.72-6.21,1.2-11.91,2.92-2.88-1.39-4.74,1.59-15.49,5.44-5.92,1.36-11.81,2.76-17.63,4.23-3.65.37-7.86,1.79-11.08.67-1.39-.49-11.21,3.42-12.75,4.28-1.19.67-3.32-2.91-19,8.59q-2.26.92-4.47,1.88a5.53,5.53,0,0,0-3.13,3l-.65.35a30.39,30.39,0,0,1-10.44,3.1c-2.2.27-4.44.14-6.59.6a20.68,20.68,0,0,0-6,2.3c-3.64,2.09-6.93,4.39-10.6,6.47s-7.66,4.11-11.69,6c-1.87.88-3.78,1.73-5.7,2.57-1,.42-1.93.83-2.91,1.24-2.08.87-3.15.19-4.74-.57a73.59,73.59,0,0,0-8.08-2.74c-2.67-.89-5.33-1.74-8.08-2.53a6.88,6.88,0,0,0-4.43.51c-6.25,3-12.66,5.87-19.05,8.75-2.82,1.27-5.63,2.54-8.36,3.86-11.74,4.24-19.19,14-27.8,17.89-13.27,6-46.74,17.15-43.05,18.13,18.44,4.91,71.67,33.57,91.07,33.43,20.12-.15,48.43-27.76,65.81-24.05,20.86,4.45,41.14.55,60.87-4.06,19.15-4.48,38.16-9,57.8-12.69,57.51-10.86,116.86,6.64,176.32.62V230.38Z"/><path class="cls-44" d="M445.26,286.15l.56-.33a184.5,184.5,0,0,1,20.75-15.07,10.17,10.17,0,0,0,.84-1.05c.08-.12,0-.22-.17-.27a28,28,0,0,1,2.85-1.85l.65-.35a9.12,9.12,0,0,0-.72,1.43c1.75-1,3.51-2,5.29-3,.15-.12.31-.23.45-.36,2.71-2,5.35-3.91,7.82-6,2.29-1.34,4.53-2.72,6.94-4,2.62-1.36,9.39-5.09,9.62-5.15,0,0-6.12,1.16-8.12,1.57-1.8.14-3.59.86-5.4,1-1.61.13-6.63.18-6.92.24,0,0,.23,0,.14.39a50.92,50.92,0,0,1-7.24,9.49c-1.48,1.34-3.16,2.58-4.8,3.84l-.13.07c-2.55,1.42-5.44,3.36-5.44,5.66a.24.24,0,0,0,.06.15c-1.17,1-2.3,2-3.48,2.88-1,.8-1.94,1.61-2.93,2.4-1.31.88-2.6,1.79-3.88,2.69-.66.42-1.3.86-1.91,1.31a.06.06,0,0,0,0,.06c-3.78,2.67-7.46,5.36-11,8.18C439,290.17,445.19,286.2,445.26,286.15Z"/><path class="cls-45" d="M364.2,302.21c4.28-.66,8.45-1.58,12.76-2.15,1.73-.43,3.41-.94,5.07-1.47l.38-.17c1-.48,2-1,3-1.49.79-.27,1.57-.55,2.37-.76h0a1.34,1.34,0,0,0,.49-.27,48,48,0,0,0,8.88-3.72.09.09,0,0,0,.11,0l.82-.4c.05,0,0-.07,0-.08l1.65-.87c.1-.05,0-.14-.13-.1-1.43.65-3,1.21-4.55,1.76a11.82,11.82,0,0,0-3.82.78l-.37.12h0c1-.54,1.93-1.1,2.8-1.63,2.19-1.33,4.07-2.79,6.37-4s4.72-2.36,6.84-3.71c0,0,3.76-2.74,3.73-2.73-5.82,3.19-12,6.25-16.08,8.25l-.63.34c-1.1.37-2,.81-3.05,1.24-1.21.07-2.4.73-3.58.86s-2.37.18-3.55.27a.28.28,0,0,0-.15-.08c-1.59-.42-3.32-.38-5-.66a39.86,39.86,0,0,1-5.38-1.56c-1.59-.51-3.11-1.35-4.92-1.77a7.51,7.51,0,0,0-3.4-.85,7,7,0,0,0-1.62.18,27.94,27.94,0,0,0,4.16,2.11l.21.08a45.32,45.32,0,0,1,4.16,2.15,23.57,23.57,0,0,0,2.88,1.11l-.41-.07c-3.35-.57-6.68-.95-9.63-2.21a10.27,10.27,0,0,0,2.13,1.32s0,0,0,.05a18,18,0,0,0,5.27,2.34,6.38,6.38,0,0,0,3.46.38l.67-.09c1.12.25,2.27.47,3.41.67a.44.44,0,0,0,.27.14l.31,0a.31.31,0,0,0,.31.13l.56,0,.29,0,.58.1-.08,0c-1.39.38-2.86.57-4.32.85-3.68.71-9.44,0-13.12-.48a49.47,49.47,0,0,0,5.72,1.26,5.93,5.93,0,0,0,3.63,1.26c-1.39.58-2.73,1.23-4,1.84-3.79.76-7.62,1.43-11.39,2.17A27.76,27.76,0,0,0,364.2,302.21Z"/><path class="cls-46" d="M410.07,292l2.29-1.32c-2.64,1.66-5.4,3.25-8.28,4.72-.26.13.09.38.34.24,6.32-3.33,12.88-6.62,18.53-10.44a24.49,24.49,0,0,0,2.1-1.58,39.74,39.74,0,0,0,4.5-3.22c1-.74,2-1.47,3-2.24,1.22-.67,2.46-1.34,3.64-2-.32.29-.64.58-1,.86-.75.66-1.67,1.25-2.34,1.93-.12.12.12.25.29.17a18.76,18.76,0,0,0,4.44-3.7.11.11,0,0,0,0-.16c2.49-1.62,4.76-6.44,4.81-6.5s-1.84,1.47-3.17,2.36c-.26.17-.54.35-.83.52-1.5.48-13.78,2.74-15.05,3.18,0,0,.15.47,1,.4a0,0,0,0,0,0,0l.79.17a4.74,4.74,0,0,0,2.84,1.5L428,277a19.39,19.39,0,0,0-2.13,2.12,29.61,29.61,0,0,1-5.5,4.6c-.05,0,0,.08.07.06a29,29,0,0,0,4-2.49,14.14,14.14,0,0,1-2.35,2.57c-.8.64-1.63,1.28-2.46,1.91-3.25,2-6.51,4.09-9.68,6.2C409.83,292,410,292.09,410.07,292Z"/><path class="cls-47" d="M427.9,284.48c.44-.55.92-1.08,1.38-1.63s.61-1.06,1-1.55l.45-.43h0l1.44-1.36c.05,0-.05-.1-.1-.06a23.15,23.15,0,0,0-2.07,1.47,15.14,15.14,0,0,0-1.39,1.15,5.06,5.06,0,0,0-1.11,1.06c-.89,1.21-2,2.35-2.81,3.58-.07.12.16.26.33.19A6.57,6.57,0,0,0,427.9,284.48Z"/><path class="cls-48" d="M420.45,291.16c.47-.36,1-.65,1.38-1a8.55,8.55,0,0,1,1.46-1.06c.45-.27-.16-.71-.63-.46a13.77,13.77,0,0,0-1.58,1,2.71,2.71,0,0,0-1,1.42C420,291.19,420.3,291.27,420.45,291.16Z"/><path class="cls-49" d="M394.76,310.23q1.51-.84,3.06-1.65l1.1-.8a.36.36,0,0,0,.14-.5c1.42-1.24,2.82-2.49,4.22-3.73,5.27-3.41,10.28-7.05,15-10.75.06-.05-.05-.11-.12-.07q-3.74,2-7.38,4.14a29.83,29.83,0,0,1-3.54,2.36c-1.58.89-3.45,2.07-5.59,2.26h-.26c-9.23,6.9-21.79,10.73-34.45,14.39-.26.07-.06.31.2.25,9.12-2.06,18.7-4.27,26.88-7.74-.75.69-1.51,1.38-2.28,2.06-2,1.3-4.28,2.31-6.3,3.57-.18.11,0,.29.24.23.5-.13,1-.27,1.49-.42-.75.42-1.54.82-2.36,1.2l-.1.08c-1.67,1.06-3.23,2.14-4.94,3.09a1,1,0,0,1,0,.1,72.86,72.86,0,0,0,10.39-4.4l1.13-.66C391.28,312,393.29,311.06,394.76,310.23Z"/><path class="cls-50" d="M467.86,310.8c-.11,0-.12.1,0,.1S468,310.8,467.86,310.8Z"/><path class="cls-51" d="M535.4,297.85c-1.25.63-2.45,1.3-3.62,2-4.11,4.21-10.91,7.52-17.91,9.42a2.41,2.41,0,0,1-.44.08l-2.7,1.24-.6.15a65.32,65.32,0,0,1-8.16,1.51,23.54,23.54,0,0,1-2.91.16c-2.28.31-5.08.73-7.7.82-1.36.25-2.72.5-4.08.71a35.27,35.27,0,0,1,3.53.39,17.67,17.67,0,0,1,3.37,1.34,7.77,7.77,0,0,0,4.9.94c.23-.05.39-.28.11-.38-1.61-.59-3.3-1-4.87-1.68l-.74-.31a18.8,18.8,0,0,0,2.39-.17.15.15,0,0,0-.05.26,4.77,4.77,0,0,0,5.28-.35c.15-.16,0-.43-.32-.42s-.62,0-.92,0c1.2-.14,2.4-.31,3.59-.5-.64.21-1.26.44-1.84.67-.3.12-.18.47.2.41l.25-.05c-.21.17-.05.46.36.42,3.3-.34,6.45-1.14,9.64-1.79a6.72,6.72,0,0,0,3.39-1.29l.3-.1c.68-.09,1.33-.19,2-.32-.75.56-1.53,1.11-2.33,1.64a42.92,42.92,0,0,1-4.73,3,67.07,67.07,0,0,1-6.37,2.54c-.19.07-.05.25.15.2a44.22,44.22,0,0,0,4.32-1.29l-.45.3h0l-.22.15a.56.56,0,0,0-.25.41l-.25.09c-1.37.44-3.28.72-4.18,1.56l-.8.17a36.1,36.1,0,0,1-7.58.35.47.47,0,0,0-.47.23l.15,0a18.47,18.47,0,0,1,5.84.73c.58.09,1.13.22,1.7.34a6.28,6.28,0,0,1,3.67,0l.32.1a20.71,20.71,0,0,0,4.39-1.22,55.05,55.05,0,0,0,7.28-3l1-.35a15.73,15.73,0,0,0,6.84-4.53s0-.08-.1-.05c-1.57.76-3.15,1.49-4.79,2.15a.82.82,0,0,0-.74-.07c-1.23.55-2.45,1.07-3.68,1.56l-.29.09-1.23.29a1.55,1.55,0,0,0-1.45-.48l-1,.21a.94.94,0,0,0-.54-.2,46.37,46.37,0,0,0,5.19-2.07,34.7,34.7,0,0,0,7.08-4.79.58.58,0,0,1,0-.18,4.73,4.73,0,0,1,1.95-3.58,2,2,0,0,0-.41-.13,115.41,115.41,0,0,0,9.87-7.27C535.7,297.88,535.52,297.79,535.4,297.85Z"/><path class="cls-52" d="M578.65,262c-5,2.05-10.21,3.87-15.41,5.7a59.58,59.58,0,0,1-9.88,1.95l0-.5a.2.2,0,0,0,0-.17c1.14-1.2,2.14-2.5,3.26-3.78.63-.72,1.85-1.21,2.52-1.95.84-.92,1.67-1.83,2.42-2.77a40.73,40.73,0,0,1,4.49-4.87c.07-.07-.07-.14-.15-.09a52.19,52.19,0,0,0-4.75,3.26,58.87,58.87,0,0,1-9.1,5.22c-2.11.91-4.52,4.05-11.61,9-1,.7-2,4.18-3.55,5.07a22,22,0,0,1-3,1.72c-1,.42-2.71.53-3.87.87-3.71,1.09-7.43,2.34-11.07,3.55a6.08,6.08,0,0,0-2.29,0,44.13,44.13,0,0,0-8.21,2.17c-.27.09,9.73.28,10.61.09A55.55,55.55,0,0,0,529.67,283c-3.58,2-11.58,5.95-11.14,5.8,5.56-1.83,10.49-4.25,16-6.19a31.41,31.41,0,0,0,7.31-3.75c1.63-1.1,3.66-2.3,4.7-3.72a.77.77,0,0,0,.35-.08,38.73,38.73,0,0,1,6.79-3.24c2.77-.89,5.63-1.47,8.31-2.53,5.73-2.25,11-4.93,16.81-7.15C578.89,262.08,578.78,261.94,578.65,262Z"/><path class="cls-53" d="M567.55,254a18.73,18.73,0,0,0,3.19-3.08c0-.06-.09-.12-.14-.06a24.85,24.85,0,0,1-3.22,3.07C567.3,254,567.47,254.06,567.55,254Z"/><path class="cls-54" d="M482.64,268.79a24.8,24.8,0,0,0-4,1.88c-1.64.77-3.36,1.46-4.94,2.3,0,0,0,.08.07.06a57.27,57.27,0,0,0,8.08-3,4.54,4.54,0,0,1,1.18-.36c.42.15.87.26,1.31.37.95.23,3.76.07,3.42-.06C485.84,269.28,484.91,268.14,482.64,268.79Z"/><path class="cls-55" d="M483.29,285.5a18.38,18.38,0,0,0,7.21-1c.39-.12.79-.24,1.19-.38.6,0,1.23-.06,1.7-.08,3-.12,2.29-.23,4.55-1.35a37.75,37.75,0,0,0,5.1-3.28c1.14-.4,2.28-.81,3.39-1.22a1.19,1.19,0,0,0,1.27.18c1.15-.45,2.31-.89,3.45-1.35l.26-.08a21.15,21.15,0,0,0,2.5-1.09,1.39,1.39,0,0,0,1.29.25c.44-.1,5.53-1.71,5.14-1.8a1.14,1.14,0,0,0-.52,0,.38.38,0,0,0-.08-.11c-.39-.33-1.29-.14-1.86-.05v0c.4-.21,0-.62-.5-.58a18.7,18.7,0,0,0-2,.29c.88-.46,1.72-.92,2.55-1.37,2.94-.74,5.85-1.53,8.69-2.43a33.94,33.94,0,0,0,9.9-4.52,23.29,23.29,0,0,0,5.28-3.15c.15-.12.08-.27-.08-.36,3.44-1.56,6.92-3.11,10.28-4.72.08,0,0-.12-.09-.09-4,1.31-8.14,2.95-11.92,4.56a70.81,70.81,0,0,0-9.9,4.75l-.86.36c-2,.6-4.17,1.1-6.25,1.66a28.81,28.81,0,0,0-4.39,1.6.85.85,0,0,0-.23,0,63.56,63.56,0,0,0-10.67,2.55,67.58,67.58,0,0,1,5.66-3.85s0-.08-.06-.06c-1,.44-2,.89-3,1.37a.22.22,0,0,0-.14,0c-2.89,1.07-5.95,1.88-8.91,2.85a29.74,29.74,0,0,0-8,4.3c-.13.1,4.28-1.74,6.48-2.53l.18,0a7.59,7.59,0,0,0,1.08-.15,9.46,9.46,0,0,0,4-.4,6.25,6.25,0,0,0,.87.07c.66,0,1.46-.22,1.67-.66a.36.36,0,0,0,0-.1c.65-.08,1.31-.18,2-.29,0,.14.16.25.41.29h0c-.28.15-.56.28-.84.41a27.79,27.79,0,0,0-6.12,3.29,17.59,17.59,0,0,0-6.08,2.66c-.27.21-.52.43-.78.64-1.41.32-2.8.67-4.22.95a55.29,55.29,0,0,1-6.06.64,7.66,7.66,0,0,0-3.27,1.39c-2,1.17-4,2.35-5.8,3.64-.07.05-.08.1-.06.14-.84.57-1.64,1.17-2.46,1.68a58.22,58.22,0,0,1-6.83,3.26s0,.06.06.05c4.63-1.4,8.11-3.8,12.36-5.56A33.46,33.46,0,0,1,483.29,285.5Z"/><path class="cls-56" d="M500.4,262.17c-.64.05-1.88,1.05-1.43.9l0,0a2.34,2.34,0,0,0-.87.8c-.17.38,1.58-.09,1.85-.34s.45-.41.41-.63a1,1,0,0,0,.08-.11C500.56,262.68,500.62,262.15,500.4,262.17Z"/><path class="cls-57" d="M515.24,256.42a19.57,19.57,0,0,0,2.75-1.88,24.93,24.93,0,0,0-4,1.92.3.3,0,0,0-.1.09,13.61,13.61,0,0,0-2.91,2.17C510.82,258.91,514.52,257.47,515.24,256.42Z"/><path class="cls-58" d="M593,265a20.83,20.83,0,0,1-3.52,1.82,7,7,0,0,0-2.39,1.56c-.12.1.09.26.26.19a7.45,7.45,0,0,0,2.65-1.37,15.59,15.59,0,0,1,3.16-2.08C593.28,265.09,593.13,265,593,265Z"/><path class="cls-59" d="M600.53,259.86a8.94,8.94,0,0,0-2.79,1.35,9.27,9.27,0,0,0-.94.78,1.45,1.45,0,0,0-.37.85c-.08.31.67.39.82.11s.28-.38.72-.58.9-.43,1.33-.68a5,5,0,0,0,1.73-1.54C601.18,260,600.79,259.78,600.53,259.86Z"/><path class="cls-60" d="M631.18,241.63c-1.49-.54-3-1.08-4.46-1.59a7.26,7.26,0,0,1-2-1.23c.26,0-.81-.76-1.67-1.12-2.78-1.16-5.94-2-8.32-3.45-1.85-.53-4-2.65-6.05-2.49-2.85-1.39-1.76-6.36,4.65-8.9.17-.06-11.6,3.26-11.84,3.25-.74,0-1.24.75-2,.74-.41-.08-1.07-.21-1.55-.26a17.52,17.52,0,0,1-5.59-1.41c-3.4-1.4-4-2.55-6.76-4.34a11.71,11.71,0,0,0-4.26-1.43,14.25,14.25,0,0,1,3.46,2.29,8.2,8.2,0,0,1,.91,1.15,8.31,8.31,0,0,1,.71.75c.31.38.55.8.86,1.16,1.34.87,4.21,2.44,3.82,2.27-2-.86-4-1.63-6.12-2.37-.79-.16-1.56-.37-2.35-.53l0,0c1.56.87,3.1,1.69,4.68,2.5-.28.07-1,.55-1.13.51a16.45,16.45,0,0,1,2.71,2c.53.47,1.08.94,1.61,1.43,2.21,2,7.25,7.34,7.73,7.65a61.87,61.87,0,0,0,5.19,3.93c3.16.79,6.1,1.89,9.18,2.93a43.76,43.76,0,0,0,5.42,1.33c-2.51-.94-7.2-4.35-7.89-4.51-1-.24-3.59-3.81-4.18-4.66s-5.8-7.16-6.67-7.67a14.39,14.39,0,0,1,3.49.83,14.83,14.83,0,0,0,3.71,2.48l.17.09a34.29,34.29,0,0,0,5.1,1.93,5.31,5.31,0,0,0,1.33.92s0,.1.07.16c2.12,1.6,6.19,2,9.17,2.66,1.4.29,2.22,1,3.53,1.42,1.75.52,3.49,1.08,5.24,1.61C631.19,241.73,631.25,241.65,631.18,241.63Z"/><path class="cls-61" d="M362.71,296.09a1.45,1.45,0,0,0,1,.12.08.08,0,0,0,0-.12c-.12-.18-.47-.21-.72-.27a11,11,0,0,1-1.16-.3c-.05,0-.12,0-.07.06A3.83,3.83,0,0,0,362.71,296.09Z"/><path class="cls-62" d="M367,294a8.68,8.68,0,0,1-1.73-.84c-.06,0-.15,0-.12.05a2.54,2.54,0,0,0,1.79.9C367,294.14,367,294.05,367,294Z"/><path class="cls-63" d="M541.28,238.76c.8-.29,1.62-.6,2.42-.93h0a45.52,45.52,0,0,0,5.22-1.46c1-.3,2.1-.54,3.15-.84-.22.24-.44.49-.64.75-.67.51-1.31,1-1.92,1.58a3.25,3.25,0,0,0-1.18,1.18c0,.07.12.13.18.06a8.55,8.55,0,0,1,1.26-1,42.12,42.12,0,0,0,3.84-2.26c.58-.38,1.22-.76,1.78-1.18a11.76,11.76,0,0,0,2.55-1.51,11,11,0,0,0,2.28-1.78.14.14,0,0,0,0-.17,14.82,14.82,0,0,0,1.84-1.35c1.23-.71,7.35-5.39,7.29-5.36-1.42.79-6.9,3.43-8.5,4.06-1.06.21-2.14,1-3.16,1.29a17.6,17.6,0,0,0-2.8,1.45l-.28.07a22,22,0,0,0-6.16,3.29c-.64.33-1.59.23-2.24.56-2.2.87-4.17,2-6.37,2.87-3.38,1.34-6.2,1.95-10.6,3.39C529.26,241.44,538.26,240,541.28,238.76Zm8.55-4.34,1.25-.63a.26.26,0,0,0,.15,0c1.91-.57,3.81-1.23,5.7-1.88l-.55.36a17.41,17.41,0,0,1-3,1.41,17.1,17.1,0,0,0-3.33.84l-.15,0s0,0,0,.05l-1.09.41h0Z"/><path class="cls-64" d="M421.72,301.59c3.19-1.49,5.15-3.7,7.71-5.53a15.76,15.76,0,0,0,4.79-3.12s-.05-.08-.1,0c-2.25,1.67-5.44,2.58-8.18,3.88a.73.73,0,0,0-.25,0,36.3,36.3,0,0,0-5.44,3.27c-2.13,1.38-4.49,1.89-7.22,2.58a24.49,24.49,0,0,0-5.51,2c-1.36.67-2.65,1.42-3.91,2.12a39.07,39.07,0,0,0-6.48,4.15s0,.07.08,0c1.61-.81,3.12-1.7,4.65-2.58a74.55,74.55,0,0,0,9.54-3.15,50.21,50.21,0,0,0,8.35-3.53,10.73,10.73,0,0,0,2.13-1l.45-.16a14.89,14.89,0,0,0,2.51-1.21,14.66,14.66,0,0,1-3.21,2.12C421.56,301.56,421.65,301.62,421.72,301.59Z"/><path class="cls-65" d="M475.44,280.88c2.64-1.1,5.27-2.23,7.89-3.37a.23.23,0,0,0,.22.05c1.43-.36,3.24-.86,5-1.49a.38.38,0,0,0,.19.07,7.2,7.2,0,0,0,2.17-.18.49.49,0,0,0,.21,0c6.62-1.21,12.13-4.21,17.75-6.64.07,0,0-.1-.08-.08-5.4,1.77-10.91,3.4-16,5.5-.49.08-1,.23-1.43.35A84.16,84.16,0,0,0,502.54,270c4.61-2.32,9.3-4.62,13.76-7.06.06,0,0-.08-.07,0-4.5,2-8.86,4.18-13.42,6.16-2.77,1.21-5.78,2.37-8.56,3.68a.86.86,0,0,1,.07-.1c6.16-2.83,12.24-5.74,18.26-8.67.09,0,0-.15-.12-.11l-3.67,1.46h-.15c-3.27.81-6.31,2-9.39,3.09a29,29,0,0,1-10.85,2.08.48.48,0,0,0-.4.18c-.12.08-.16.23,0,.29.6.21,1.15.45,1.71.7-1.23.56-2.39,1.17-3.42,1.74a75.78,75.78,0,0,0-10,6.57l-.41.22a.12.12,0,0,0-.08,0c-2.51,1.2-4.86,2.59-7.33,3.85-2.79,1.43-5.69,2.55-8.14,4.26-.08.06,0,.15.13.09a84.62,84.62,0,0,1,9.28-4.22A17.78,17.78,0,0,0,475.44,280.88Z"/><polygon class="cls-66" points="251.76 295.56 245.81 322.08 239.07 273.76 235.41 300.01 232.97 289.14 225.63 321.86 232.36 321.86 231.73 326.37 239.07 326.37 244.85 326.37 244.42 328.28 251.76 328.28 259.09 328.28 251.76 295.56"/><polygon class="cls-66" points="258.77 330.13 263.92 330.13 269.07 330.13 263.92 307.17 258.77 330.13"/><polygon class="cls-66" points="286.52 314.89 281.37 337.85 286.52 337.85 291.67 337.85 286.52 314.89"/><path class="cls-66" d="M475.34,310.8l-7.09-31.73L464,298.23l-2.47-11-2.8,12.5-1.38-6.12L454.53,306l-2.37-10.59-3.11,13.85-2-9.1-4.29,19.13-3.18-14.18-.81,3.63-3.39-15.1-2.68,11.94L430,293.59,428,302.28l-2-8.69L421.3,315l-4.05-18-1.81,8.1-3.77-16.8-4.53,20.18-2.57-11.48-3.3,14.73-1.08-4.82-2.39,10.64-3.52-15.74-2.57,11.43-3.64-16.24-1.26,5.65-.56-2.46-1.41,6.31-4-17.64-6.58,29.36-1.47-6.55-2.28,10.16-1.49-6.62-1,4.64-1.47-6.56-1.14,5.06-1.49-6.68-2.1,9.35-1.31-5.81-3.08,13.72-3.87-17.26-3.5,15.62-1.64-7.33-2.68,11.91-5.52-24.63-6.64,29.64-3.79-16.92-2.15,9.58-1.44-6.4-2.4,10.7-1.6-7.16-2.95,13.18-3.75-16.72-3.89,17.33L308.84,328l-2,9-3.13-14L299,344l-.35.13a2.89,2.89,0,0,0-1.74,2.19,10.22,10.22,0,0,0-5.44,4.83c-2.61,4.42.24,9.92,2.92,13.24,5.67,7,13,7.8,21.17,7.24,4.43-.3,8.84-.08,13.26-.4a81.12,81.12,0,0,0,12-1c1.83-.11,3.66-.22,5.48-.31,6.95-.37,13.89-.5,20.78-1.61a189.13,189.13,0,0,0,20.92-5c6.85-1.92,13.71-3.84,20.64-5.47,6.49-1.52,13.08-2.47,19.59-3.92,12.45-2.77,24.52-7.85,34.16-17.06,4.2-4,7.71-9.45,10.64-13.42C475.43,320.33,477.34,311.07,475.34,310.8Z"/><polygon class="cls-66" points="125.9 278.84 122.33 259.66 116.28 292.22 122.33 292.22 123.41 292.22 122.33 298.02 128.39 298.02 134.44 298.02 128.39 265.45 125.9 278.84"/><polygon class="cls-66" points="86.36 278.17 80.83 248.45 73.15 289.8 80.83 289.8 88.52 289.8 88.22 288.19 93.78 288.19 102.92 288.19 93.78 234.83 86.36 278.17"/><polygon class="cls-66" points="47.08 291.88 56.36 291.88 65.65 291.88 56.36 237.16 47.08 291.88"/><polygon class="cls-66" points="155.19 284.06 149.25 253 141.09 295.66 149.25 295.66 152.49 295.66 152.29 296.53 159.18 296.53 166.08 296.53 159.18 266.92 155.19 284.06"/><polygon class="cls-66" points="201.33 317.51 208.23 317.51 215.13 317.51 208.23 287.91 201.33 317.51"/><path class="cls-42" d="M497.52,343.72c-1.06-1.75,0-5,2-6.44q3.09-17.71,6.17-35.36,2.13,9.75,4.25,19.52,1.21-6.94,2.44-13.88,1.39,6.38,2.78,12.78c.45-2.57.91-5.14,1.36-7.7l2.76,12.67q1.17-6.65,2.36-13.28l3.09,14.25q1-5.7,2-11.39,2.14,9.87,4.28,19.75,1.59-8.83,3.17-17.66l.81,3.75q1.69-9.41,3.39-18.78,1.33,6.19,2.68,12.41,1.35-7.41,2.68-14.82,1,4.53,2,9.06l1.95-10.75q2.42,11.16,4.82,22.35,2-11.13,4.06-22.24l1.83,8.51q1.89-10.34,3.79-20.64,2.28,10.62,4.55,21.28,1.31-7,2.6-14.05l3.33,15.59,1.08-5.88q1.2,5.64,2.41,11.29,1.77-9.6,3.56-19.17l2.58,12.17q1.85-9.85,3.67-19.71c.43,2,.86,4,1.28,6,.19-1,.38-2,.56-3,.48,2.25,1,4.5,1.43,6.75l4-21.34q3.33,15.75,6.64,31.56c.5-2.63,1-5.26,1.49-7.89q1.14,5.47,2.29,11l1.5-8,1,5c.5-2.63,1-5.25,1.49-7.88l1.14,5.48q.76-4,1.51-8,1.07,5.07,2.12,10.15.65-3.48,1.31-7,1.54,7.45,3.1,14.92l3.9-20.59q1.75,8.52,3.52,17.05L625.9,303q1.35,6.51,2.69,13,2.77-14.6,5.54-29.16,3.33,16.28,6.66,32.61,1.89-10,3.79-19.91,1.08,5.29,2.15,10.6.72-3.76,1.43-7.51l2.4,11.85c.53-2.8,1.07-5.59,1.6-8.38l2.94,14.63q1.88-9.76,3.73-19.52,1.93,9.66,3.86,19.33l2.76-14.39q1,5,2,10.07l3.09-16.2q2.34,11.78,4.65,23.57l.35.12a2.92,2.92,0,0,1,1.71,2.37c2.17.68,4,2.55,5.36,5.2,2.56,4.92-.24,11.31-2.88,15.26-5.57,8.33-12.81,9.79-21,10.11-4.4.17-8.81,1-13.22,1.34a86.21,86.21,0,0,1-12.06,1q-2.75.33-5.51.72c-7,1-14,2.49-20.91,3-7.13.56-14.13.46-21.1.47a189,189,0,0,0-20.81,1c-6.54.73-13.17,2.34-19.7,3.53C533,370,521,370.15,511.42,364.79c-4.15-2.34-7.62-6.6-10.5-9.47C498.59,353,496,349.34,497.52,343.72Z"/><path class="cls-67" d="M684.79,306.76c-2.56-.38-5.12-.74-7.7-1.08s-5.79.43-8.09.78c-5.3.8-10.54,1.63-15.77,2.48-1.2-1.15-8.1-2.78-10-3.79-3.47-1.83-3-2.69-7.7-4.16-1.48-.46-11,3.43-14.71,4.86-1.51.58-3.19,1.11-4.88,1.64l-1.54-.34c-6.15-1.38-20.85-5.42-22.31-5-9.29,2.92-19.49,5.48-29.84,7.95-5.9,1.4-11.65,2.89-17.46,4.35-3.88,1-8,1.95-11.76,3.05-2.46-.72-5-1.41-7.52-2.05-4.43-1.12-9.11-2.1-13.83-3.06l-6.46-1.3c-1.9-.39-9.65-1.5-11.27-2,0,0-4.06.55-7.49,1.27-2.45.52-2.66.58-4.8,1.18-2.4-.1-7.35-1.78-7.35-1.78-1.95.38-7.79,3.39-9.32,4-3.15,1.21-6.57,2.35-10.06,3.44-6.69,2.11-13.93,4-21.22,5.85-7.63,1.94-14.86,3.86-24.28,4.61-6.55.52-13.51.21-20.27.26a3.91,3.91,0,0,0-.51,0c-16.19,0-75.58,8.49-92.12,9.7-17.37-8.72-76.71-27.87-80.3-28.18a50.26,50.26,0,0,1-9.7-2.25c-3.29-.92-6.48-1.89-9.62-2.87-6.17-1.94-11.95-4-17.56-6.12-9-3.43-18.57-7.05-32-8.29-7.31-.67-14-.81-19.06-2.94a64.78,64.78,0,0,0-6.93-2.58,30.12,30.12,0,0,0-4.85-1c-2-2.22-7.55-3.18-13.09-4.3-6.71-1.35-10-3.81-14.21-6A70.33,70.33,0,0,0,73,267.38c-3.29-.78-6.65-1.5-9.83-2.33a27.17,27.17,0,0,1-8.47-3.88,172.93,172.93,0,0,0-27.93-14.4c-5.33-2.19-11.21-4.19-17.37-6.1-6.77-2.09-18.72-8.18-19.85-7.66-4.37,2-9,3.91-13.76,5.8-3.31,1.33-7,2.59-10.28,3.94-5.36-1.06-11.27-2-17-2.77-1.36-.19-2.51,0-9.74,1.37-2.51.47-3.7,1.5-6.88,1.18a90.58,90.58,0,0,1-9.46-1.74c-6.41-1.32-11.76-3.06-17.55-4.66-.56-.16-8.11,2.74-11.33,4-3,1.14-6.61,2.17-10,3.18-4.48,1.33-9.4,2.45-14.19,3.63V435.8l845.24-4.95V311.1C704.79,309.57,694.7,308.21,684.79,306.76Z"/><path class="cls-68" d="M25.19,367.27c8.33-1.07,27.67,7.56,35.89,6.38,5.11-.73,118.47-28.5,184.46-3.69,29.67,11.16,87.75-17.53,87.75-17.53-26.76-16.57-108.8-43-136.41-48.56-6.31-1.28-11.95-4-17.56-6.15a164.44,164.44,0,0,0-15.84-5.39c-15.56-1.77-31.57-3.31-46.42-5.69-9.06-1.44-21.13-1.89-31.54-3.08a99.49,99.49,0,0,1-11.35-1.62A49.42,49.42,0,0,1,62,287c-4.33,1.16-8.24.81-11.8,2.19a20,20,0,0,1-7.42.89c-3.78.44-8.23.05-10.54-1.14-1.34.33-2.67.67-4.06,1a65,65,0,0,1-16,1.75c-.85,0-1.71-.08-2.54-.17a179.06,179.06,0,0,1-18,2.74,24.44,24.44,0,0,1-4.25.34h-.56c-4.58,0-7.55-1.06-8.55-2.31-3,.93-6,1.85-9.29,2.64-5.3,1.26-13.4,1.4-18.43,0-7.26-.32-6.19-1.2-13.87-1.25-.93,0-1.36-.54-2.28-.54-.11,0-4.09,3.1-5.32,3.94,3.08-.08,4-.18,4.84,1.09a2.17,2.17,0,0,1,.26.59,36.71,36.71,0,0,1,8.1.3C-50,300.18-40.23,302-37.9,305a1.77,1.77,0,0,1,.44,1.61c.74-.18,141.83,17.57,146.5,18.5C115,326.26,5.33,323-5.58,323.53c-4.91.23-1,1.21-5.78,1.64a177.44,177.44,0,0,1-23.76.58,58.9,58.9,0,0,0-10.63.1l-.76.09c-1.31,1.74-32.7,8.6-34.92,10.26-9.3,7,.33,6.56-18.8,10.05-2,.36-27,8.58-30.39,9.13v37.44C-119.78,389.13,10.45,369.15,25.19,367.27Z"/><path class="cls-68" d="M614.24,344.68l4.62,1c6.78-.39,13.62-.69,20.32-1.08,14.77-.87,29.5-1.79,44.28-2.63q15.69-1.74,31.16-3.71V323c-2.94-.76-5.83-1.53-8.72-2.31-6-1.62-27.62-2.84-37.34-4-5.59-.67,10-3.46,5-4.56-2.16-.47-4.41-1-6.82-1.25a11.83,11.83,0,0,1-3.12.34,51.42,51.42,0,0,1-13-1.82,7.3,7.3,0,0,1-1.7-.52,2.68,2.68,0,0,1-1.48-1c-2.36-1.17-11.12-2.63-13.55-3.78-3-1.2.49-1.18-2.73-2.08-3.23,1.15-8.38,2.62-10.38,3.4-1.51.59-3.19,1.12-4.88,1.64l-1.54-.34c-6.15-1.38-20.85-5.44-22.31-5-9.29,2.94-19.49,5.51-29.84,8-5.9,1.41-11.65,2.91-17.46,4.37-3.88,1-8,2-11.76,3.06q-3.69-1.08-7.52-2.06c-4.43-1.12-9.11-2.11-13.83-3.07l-6.46-1.31c-1.77-.36-8.94-1.1-11.27-1.61l-.1.09c-6.17,4.62-15.35,8.63-23.89,12.74-7.87,3.79-14.95,7.76-22.76,11.57A204.69,204.69,0,0,1,410,347.71H479.3c5-1.14,11-1.27,16.85-1.69,8.41-.6,17-1,25.44-1.56,8.92-.61,17.9-1.15,26.78-1.83,7.89-.6,15.74-1.26,23.78-1.59a149.57,149.57,0,0,1,23.73.62C602.29,342.45,608.37,343.5,614.24,344.68Z"/><path class="cls-69" d="M160.5,308.8c.49,0,.75-.19.26-.25-4.54-.57-8.61-1.5-12.74-2.37a13.53,13.53,0,0,0-3.38-1.16c-1.17-.47-4-2-5.31-2.36-1.9-.52-3.59.49-6.09.57-1.59-.65-3.42-1.25-4.9-1.92-2.46-1.13-4.27-2.47-7-3.51a9.22,9.22,0,0,0-3.38-.37c-2.32,0-5-.26-7.24-.39-3.57-.22-7.21-.48-10.84-.55l-.45-.07a8.31,8.31,0,0,0-2.86,0l-.53-.52c-2-1.95-5-3.78-7.65-5.62s-6.88-3.2-10.2-5c-6.19-3.31-1.94-3.88-5.73-3.05-4.8,1.05-8.39,2.79-12.66,4.09-1.69.51-5.21,1.86-7.58,1.88-2.81,0-5.82-.32-8.65-.39s-5.7-.14-8.53-.23a51.82,51.82,0,0,0-5.3-.27,16.36,16.36,0,0,0-4.31.9q-1.41.63-2.67,1.29a8.85,8.85,0,0,0-1.17.82l-.42-.19a29.89,29.89,0,0,0-7-2.23,4.09,4.09,0,0,0-1.46.1c-.75.18-1.54.35-2.26.55-1.21.08-2.35.2-3.15.3l-2.44.32A28.61,28.61,0,0,1,1,289.14a4.71,4.71,0,0,1-1.5-.89c-.4-.43-1-.26-1.8.24-.6.36-2.56.28-3.3.65a16.77,16.77,0,0,0-3.84,1.51,23,23,0,0,0-3.79-2.91c-.61-.34-1.45.44-2.19.75-1.87.76-3.92.76-5.56,1.58-.57.29-1.09.65-1.67,1-1.05.18-2.05.36-2.94.48a10.22,10.22,0,0,0-5.22,2.17l-.28.12c-.48.2-.95.4-1.39.61-.38-.26-1.19-.47-1.18-.73,0-1.14-2.8-1.4-2.8-1.4,0,.15-3.41,1-3.47,1.15-.23.51-2.67,2-3.47,2.4s12.29.57,12.2.05c.8-.31,1.57-.64,2.36-1s1.74-.7,2.67-1c1.3,0,2.55-.13,3.94-.2,2.54-.12,2,.52,4.17.79a55,55,0,0,0,9.57.56c3.22.34,6.58.47,10.06.62l8.9.37c1.06,0,6.5.39,3.69,1.32a1.39,1.39,0,0,0-.69.48c-.9.91,5.6,2.48,7.25,3,2.2.65,4.47,1.25,7,1.78s7.6.91,5.61,2.34c-.69.5,5.37-.09,6.8-.21,11.62-.91,19.14-.71,31.14-1.18,1.37.14,2.74.29,4.08.48,2.53.35,5.12.64,7.8.75-3.22.28-6.42.58-9.72.77-5.25.3-10.59.45-15.86.68-.13,0-.12.08,0,.08,9.64.08,19.53-.05,29.17-.25,4.81-.1,9.58-.4,14.32-.69,3.3-.19,7.68-.28,10.94-.83,3.68.14,7.11.95,10.57,1.37-1.58.23-3.11.49-4.63.75-2.3.3-4.57.62-6.84.94a81,81,0,0,0-8.93,1c-.16,0-.09.12.1.11,4.11-.17,8.87-.29,13.17-.74,1.63.15,3,.38,5,.43l-1.45.39c-1.54.26-3.1.5-4.76.73-.11,0-.05.07.06.06A121.36,121.36,0,0,0,127,308.42a36.07,36.07,0,0,1,4-.17c2.14.28,5.72.5,7.69-.05l2.34,0c1.61.21,3.23.4,4.84.59,6.56.75,50,10.44,50,10.44C195.48,319.08,157.49,308.58,160.5,308.8Z"/><path class="cls-70" d="M164.75,301.81c-1.87-.58-4-1.12-5.7-1.68a36.45,36.45,0,0,0-5.41-1.35,12.77,12.77,0,0,1-3.72-1.43,11.9,11.9,0,0,0-4.28-1.63c-.54.13-10.73,1.51-12.29,1.67-.44,0-1.17.27-1.29.27-.76,0-1.23.23-.94.47,1.26,1.07,5.09,1.38,7.91,1.81,5,.75,9.83,1.61,14.57,2.52l.78.14a55.42,55.42,0,0,1,6.59.08c2.78.27,5.38.73,8.08,1.08,1.5.19,16.3,3.21,17.78,3.41-1.11-.35-15.46-3.55-16.4-3.95C168.52,302.76,166.61,302.3,164.75,301.81Z"/><path class="cls-71" d="M87.88,331.07c-.11,0-.13.06,0,.06S88,331.07,87.88,331.07Z"/><path class="cls-72" d="M617.9,320a46.49,46.49,0,0,0-6.11-.55c-1,0-2,.11-2.95.21a7.25,7.25,0,0,0,1-1.45c0-.09-.05-.16-.2-.21a4,4,0,0,0,1.21-1.65c-3.85,1.17-7.8,2.29-11.89,3.35a15.22,15.22,0,0,1-5.8-2.84c-1.22-.95-1.78-1.62-4.95-1.87-.67,0-1.36-.07-2.06-.08,1.21-.42,2.37-.85,3.45-1.33a22.42,22.42,0,0,0,5.4-3.51s-.1-.05-.16,0a54.28,54.28,0,0,1-10.46,3.57l.39-.24c1.9-1.22,3-4.27,2.6-4.19-1.33.26-2.62.53-3.91.81.06-.26-.5-.54-1.35-.59a8.41,8.41,0,0,0-.87,0,30.19,30.19,0,0,0,7.7-4.28c1.59-.86,3.29-2.93,3.06-2.95.3-.14.71-.64.43-.57-3.33.85-6.48,1.79-9.53,2.77-9.13,1.88-17.67,4.2-26.34,6.29-5.38,1.3-10.87,2.54-16.12,3.9a75.15,75.15,0,0,0-7.26,2.27c-.24.08-.49.05-.75.14.57.25,2.14.74,2.34.83s.94-.1,1.16,0l.84.18c4.5,1,9.66,1.68,14.1,2.69l1,.09a8.64,8.64,0,0,1,2.32.49c.3.2.62.4,1,.59l.09.08c3,1.18,4.58,2.64,6.81,4l.19.07A135.74,135.74,0,0,0,577,330.86c2,.56,4.19,1.08,6.37,1.58a4.26,4.26,0,0,1,.55.34c1.55,1.09,1.49,2,5.56,2.2h.33a2.39,2.39,0,0,0,1,.28A23.89,23.89,0,0,0,594,337c4.15.76,8.38,1.48,12.59,2.19,2.77.46,5.8,1,8.73,1.65-.91-1-1.85-2.05-2.72-3.12a24.55,24.55,0,0,0-6.44-5.92,2.12,2.12,0,0,1-.6-.54c-.49-.06-1-.11-1.5-.14a8,8,0,0,1-.84-.13,8.69,8.69,0,0,0,1-.76c.13-.12.92-.92.52-.91-3,.08-5.79.2-8.69.38,0-.06,0-.12,0-.18l.1-.15c1.34-.84,2.47-1.73,3.74-2.61l.6-.42c.89-.17,1.76-.35,2.62-.54,2.08-.48,3.4-1.27,5.89-1.55,1.87-.21,4.18.76,6,.91a43.89,43.89,0,0,1,5.67.63c1.6.34,3.06.75,4.67,1.09.81.17,51.78,4.77,52.68,4.9C676.33,331.18,617,322,617.9,320Z"/><path class="cls-73" d="M464,318.49a20,20,0,0,0,2-1.37c3.87-1.75,8.32-7.32,8.32-7.32-4,.52-6.82,2.19-9.69,3.14a81,81,0,0,0-10.4,4c-.27.14-12,3.23-18.2,4.84-3.31.86-9.07,2.53-12.54,3.31s-18.51,3.15-22,3.84,2.8.79,1.29,1.89a43.29,43.29,0,0,1-8.34,3.6c-.7.23,11.14-2.05,14.57-3,1.2-.33,2.47-.63,3.75-.92a114.57,114.57,0,0,0-11.31,4q-7.86,2.29-15.67,4.63h.38c6.23-.11,13.57,1.29,36.43-4.15,9.79-2.33,18.09-6.46,26.14-10a104.83,104.83,0,0,0,13.61-5.5l-.29.23c-.16.15-7,4-10.6,5.81-.1.05.1.11.23.07,5.88-2.16,11.93-4.24,17.88-6.37,2.26-.81,4.62-1.6,7-2.4C476.83,316.67,465.28,317.9,464,318.49Z"/><path class="cls-74" d="M519.87,335.93c-8.55,2.69-17.61,5.2-26,8-3.77,1.24-7.42,2.53-11.05,3.82h12.31c2-.89,3.89-1.82,5.7-2.76,2.19-1.14,4.32-2.3,6.6-3.43,2.47-1.22,7.52-3.65,7.46-3.65,1.68-.63,3.37-1.26,5.1-1.87C520.14,336,520,335.9,519.87,335.93Z"/><path class="cls-75" d="M500,334.87a13.66,13.66,0,0,1,1.88-1.44c3.64-1.68,7.62-3.39,10.23-5.27.09-.07-.2-.13-.35-.08-.54.16-11.66,3.05-15.72,4.66-1,.38-1.94.75-2.93,1.12-3,.6-5.77,1.46-8.44,2.17-3.1.82-6.15,1.66-9.2,2.5a12.86,12.86,0,0,0-2.54-.74c-.62-.12-1.54-.34-2.36-.57,2.09-1.28,5-2.85,5.6-4.33,1.64-.68,3.32-1.35,5.09-2,.05,0,0-.05-.08,0A59.46,59.46,0,0,0,468,334.43c-1.3-.83-4-1.08-6.65-1.07a37,37,0,0,0,3-2.71c5.32-2.65,9.84-5.44,15.69-8,.16-.06-.16-.13-.31-.07-4.18,1.69-8.64,3.26-12.9,4.89,1.17-1.13,2.28-2.27,3.26-3.42a35.52,35.52,0,0,0,6.72-2.9,64.48,64.48,0,0,0,7.44-3.17c.15-.08-.16-.17-.37-.11-4.87,1.37-9.21,3-13.72,4.5a.8.8,0,0,0-.39.06l-.34.18-1.21.4c-5.45,1.77-11.33,3.44-16.5,5.31-5.21,1.55-10.43,3.1-15.62,4.66l24.66-6.28,1-.26c-2.52,1.19-5.19,2.33-8.13,3.4-6.21,2.24-12.49,4.46-18.89,6.63s-13.09,4.32-19.87,6.38c-5.12,1.56-11.73,3-16.33,4.84h81a65.57,65.57,0,0,0,13.69-7.21A64,64,0,0,0,500,334.87Z"/><path class="cls-68" d="M481.06,312l-6.78-2.18c3.51.44,14.58.13,14.58.13Z"/><polygon class="cls-76" points="-130.62 490 714.62 490 714.62 392.82 371.46 343.42 314.52 342.89 -130.62 392.82 -130.62 490"/><polygon class="cls-77" points="-129.15 432.5 -128.78 442.92 54.87 416.27 129.82 409.72 158.46 397.6 188.06 392.74 240.13 378.51 255.91 378.6 260.59 374.96 333.35 359.56 335.06 355.88 -129.15 387.11 -129.15 432.5"/><polygon class="cls-78" points="692.12 490 498.82 490 444.3 486.16 434.23 488.65 372.72 485.04 321.32 464.71 321.32 459.63 272.57 441.72 262.47 428.14 679.43 459.37 692.12 490"/><polygon class="cls-79" points="661.95 398.51 550.88 404.75 496.35 400.91 486.28 403.4 424.77 399.79 378.38 374.68 377.12 368.49 353.2 363.21 350.57 357.97 364.31 351.49 315.35 344 314.52 342.89 362.43 345.36 576.27 376.25 661.95 398.51"/><polygon class="cls-68" points="332.42 347.71 116.58 376.25 -130.62 373.22 -130.62 355.38 -88.5 347.71 238.11 339.07 332.42 347.71"/><polygon class="cls-80" points="145.09 377.44 149.61 376.81 155.45 377 157.13 375.76 175.33 373.22 201.33 372.56 228.57 364.83 249.13 362.16 262.47 363.16 266.43 360.96 333.96 351.1 332.42 347.71 263.29 352.69 262.47 353.93 249.98 352.78 238.4 353.49 203.38 360.46 175.33 357.37 148.09 359.04 69.08 353.55 61.08 357.66 -130.62 371.36 -130.62 418.21 73.15 377.62 145.09 377.44"/><polygon class="cls-81" points="455.35 460.38 262.47 428.14 272.57 415.23 449.16 432.48 547.53 433.19 714.62 461.36 714.62 490 627.85 490 547.53 461.07 455.35 460.38"/><path class="cls-68" d="M547.53,433.19l167.09,31.53V365.58s-194.55,4.6-363.51,21.19c-11,1.08-41.71,13.85-41.71,13.85l21.75,1.73-49,6.28-9.59,6.6,176.59,17.25Z"/><path class="cls-68" d="M578.24,358.16l136.38,9.95V350.47s-126.85-9.63-262.45-4.13c-24.19,1-29-4.19-32.08-4.28-8.13-.23-18.4,2.49-25.46,2.08-14.69-.84-24.89-2.26-21.51-5.15l-51.8,2.68,67.38,8.79-27.06.76-7.83,1.87,115.43,9.11Z"/><polygon class="cls-81" points="307.76 405.35 309.4 400.62 331.15 402.35 307.76 405.35"/><polygon class="cls-82" points="467.77 373.22 350.57 357.97 353.81 353.09 469.24 362.2 496.13 361.2 568.2 361.51 705.85 366.85 532.75 373.22 467.77 373.22"/><polygon class="cls-83" points="325.86 344.01 314.52 342.89 312.45 341.99 321.32 341.67 367.67 345.37 388.7 350.46 368.94 351.02 364.11 348.16 325.86 344.01"/><polygon class="cls-84" points="201.33 372.56 175.33 373.22 175.33 357.37 203.38 360.46 201.33 372.56"/><polygon class="cls-85" points="262.47 363.16 249.13 362.16 249.98 352.78 241.37 350.24 255.51 352.92 262.47 353.93 262.47 363.16"/><polygon class="cls-68" points="451.86 363.16 392.53 365.58 378.1 360.2 395.56 357.66 430.21 357.66 451.86 363.16"/><polygon class="cls-86" points="392.35 373.82 377.12 366.33 378.1 360.2 392.53 365.58 392.35 373.82"/><polygon class="cls-87" points="455.35 372.6 392.35 373.82 392.53 365.58 451.86 363.16 455.35 372.6"/><polygon class="cls-68" points="438.26 435.8 373.45 439.28 327.67 426.9 426.04 423.93 438.26 435.8"/><polygon class="cls-88" points="372.72 459.63 324.41 442.58 327.67 426.9 373.45 439.28 372.72 459.63"/><polygon class="cls-81" points="441.38 461.36 372.72 459.63 373.45 439.28 438.26 435.8 441.38 461.36"/><polygon class="cls-88" points="455.35 460.38 440.97 457.98 438.26 435.8 433.24 430.93 449.16 432.48 455.35 460.38"/><polygon class="cls-88" points="627.85 490 547.53 461.07 547.53 433.19 714.62 464.71 714.62 490 627.85 490"/><polygon class="cls-68" points="462.04 490 714.62 490 714.62 469.99 599.62 472.57 462.04 490"/><polygon class="cls-89" points="469.24 362.2 467.77 373.22 454.96 371.56 451.86 363.16 438.55 359.78 469.24 362.2"/><polygon class="cls-68" points="614 366.5 489.92 370.29 531 365.58 585.74 360.87 614 366.5"/><polygon class="cls-90" points="616.21 370.15 488.32 375.87 489.92 370.29 614 366.5 616.21 370.15"/><path class="cls-91" d="M291.65,374.54c-16,.26-32.07,1.1-48.07,2.1s-31.86,2.24-47.75,3.75q-13.52,1.29-27,2.88a0,0,0,1,0,0,.06q23.93-2.4,47.9-4.25t47.8-3.05c9-.47,14.34-.51,23.38-1C288,375.07,291.79,374.54,291.65,374.54Z"/><path class="cls-92" d="M385.8,376.25c-18-.54-36-.85-54-1.24l-15.34-.33a0,0,0,1,0,0,.06q27,.67,54,1.3C375.58,376.16,385.87,376.25,385.8,376.25Z"/><path class="cls-93" d="M335.54,381.21a423.58,423.58,0,0,0-47.24,2.46c-4.45.46-8.89,1-13.33,1.53a8.82,8.82,0,0,0-1.24.15c.79.15,2.79.41,3.59.54-12.41,1.29-24.87,2.14-37.28,3.39,0,0,0,.08,0,.07,12.73-1,25.43-2.39,38.17-3.31a13.14,13.14,0,0,0,1.36-.14c-.79-.15-2.92-.4-3.71-.54,15.33-2,30.8-3.19,46.25-3.7q6.72-.21,13.43-.32A.07.07,0,0,0,335.54,381.21Z"/><path class="cls-94" d="M290,450.8a487.15,487.15,0,0,0-53.86-6.65c-18.23-1.38-36.49-2.18-54.73-3.28-10-.6-19.92-1.34-29.87-2.16,23.94-5.21,48.24-9.1,72.53-12.34q10.62-1.41,21.26-2.61c.08,0,.08-.12,0-.11q-37.11,4.05-73.82,10.88c-7,1.3-13.88,2.73-20.81,4.11-.15,0-2.47.34-2.35.36,18,1.83,38.56,2.52,56.65,3.52s36.18,2.08,54.18,4c10.31,1.12,20.58,2.55,30.79,4.37C290.09,450.94,290.13,450.82,290,450.8Z"/><path class="cls-95" d="M396.17,469.09c-12.17-1-24.43-1.31-36.62-2s-24.11-1.51-36.15-2.39q-36.34-2.69-72.59-6.43c-13.61-1.41-27.22-2.88-40.81-4.49,0,0,0,0,0,0q36.17,4.63,72.46,8t72.68,5.63q10.14.61,20.29,1.15c6.9.36,13.83.8,20.74.83A.18.18,0,0,0,396.17,469.09Z"/><path class="cls-96" d="M358,363.78c-4.58-.17-11.81-.19-16.4-.24s-9.18-.1-13.77-.17q-13.77-.18-27.54-.51c-5.23-.13-10.46-.25-15.68-.4,0,0,0,0,0,0q27.53.83,55.08,1.29c5.22.08,10.47.26,15.69.15C355.54,363.93,358.16,363.79,358,363.78Z"/><polygon class="cls-97" points="250.49 399.32 200.44 427.72 200.44 374.68 228.86 366.43 248.9 364.68 250.49 399.32"/><polygon class="cls-98" points="332.42 362.62 262.47 385.94 262.47 365.29 266.43 361.59 333.96 351.81 332.42 362.62"/><path class="cls-99" d="M249.31,413.82a28.14,28.14,0,0,1-5.28-.53,12.28,12.28,0,0,1-1.82-.49c-5.33-.55-10.69-.88-16-1.18q-10.58-.58-21.15-.93c-14-.47-27.93-.67-41.91-.77-28-.19-55.92,0-83.87-.64q-11.69-.27-23.37-.78c-6.85-.3-13.69-.84-20.54-1.18,6.2-1.32,12.52-2.22,18.77-3.22,7.32-1.16,14.65-2.27,22-3.25,14.7-2,29.47-3.46,44.27-4.56,8.34-.62,14.36-1.35,22.72-1.67.28,0,2.61-.33,2.33-.32-14.91.32-29.75,1-44.6,2.41s-29.44,3.26-44,5.76c-8.3,1.43-20.81,3.88-29.11,5.27-.52.08,4,.25,4.41.3,7,.76,14.1,1,21.14,1.34s13.81.59,20.72.79c14,.4,28,.55,41.92.65,28,.2,55.92.1,83.86,1q11.69.38,23.36,1c5.6.31,11.2.71,16.81,1q-10.65.36-21.29,1.1-23,1.62-45.86,4.85c-8.72,1.22-17.37,2.73-26,4.35,0,0,0,0,0,0,15.22-2.64,30.6-4.77,46-6.27s30.74-2.4,46.15-2.78q6.18-.15,12.37-.19c2.47-.15,4.93-.26,7.39-.41l1.71-.11c-1.41,0-2.81,0-4.22-.08C253.86,414.22,251.58,414.08,249.31,413.82Z"/><path class="cls-100" d="M310.67,478.38c-15.09-.65-30.21-.85-45.3-1.41s-30.17-1.3-45.23-2.25q-11.91-.75-23.8-1.64c1.5-1.63,6.08-3.38,7.58-5,.34-.36-3.1-.77-3.58-.88-31-6.72-63.25-8.49-95.17-7.14-32.72,1.38-65.06,6.11-97,12C-10,475.35-28,479.12-46,482.94c-.33.07-.19.48.14.42C-14,477,17.91,470.48,50.31,466.13c31.68-4.25,63.94-6.52,96-4.74a338.63,338.63,0,0,1,52.34,6.88c-1.57,1.68-6.52,3.55-8.08,5.23-.43.47,3.56.8,4.13.85C224.79,476.7,311.14,478.4,310.67,478.38Z"/><path class="cls-68" d="M324.76,337.85c-21.21,3.82-54-1.93-54-1.93s67.36-10.79,70.42-11.82c9.74-3.27,66.69,3.68,66.69,3.68S366,330.43,324.76,337.85Z"/><path class="cls-68" d="M245.5,374.85c-7.51-.21-15-.45-22.51-.92-3.68-.23-7.35-.48-11-.77-7-.54.55-3.78.55-3.78-3.3.71-9.34,1.78-11.14,2.88,0,0-5.55-.08-7.87.05-4.62.24-15.55.8-15.3.84a101.51,101.51,0,0,0,15.3.72,12.34,12.34,0,0,1,4,.67,48.55,48.55,0,0,1,8.34-.38c1.9.18,3.82.3,5.73.41,3.74.22,7.49.32,11.24.4,7.57.16,15.15.27,22.73.14A.13.13,0,0,0,245.5,374.85Z"/><path class="cls-68" d="M276.31,364.89c-2.5-.24-4.74-.68-7.24-.92s-4.72-1.31-7.24-1.51-12-5-12.27-5l-.4,4.34c-3.68.39-6,.28-9.68,1-1.12.19-6.66,1.45-7.78,1.69-.72.15,7,.46,8.34.2,1.21-.19,2.43-.35,3.65-.48a.71.71,0,0,0,.21,0l1.68-.09a.85.85,0,0,0,.66.31c5,.17,10,.48,15,.56,2.44,0,4.87-.11,7.3-.09S276.43,364.91,276.31,364.89Z"/><path class="cls-101" d="M394.42,459.16c-1.64-.4-20.23-4.42-25-3.82.09-.18-2.82-3.83-11.93-5.17-.31,0-9.47.62-12.72-.45-3.73-1.23-11.21-3.85-11.21-3.85,3.91,1.33,7.55,4,11.35,5.64q2.79,1.2,5.66,2.3c-.64.12-1.27.23-1.9.32-2.21.31-4.42.6-6.63.83-3.81.4-7.65.7-11.48.88q-10.65-.37-21.3-.61c-7.07-.14-21.67.62-21.21.65,12.49.85,25,1.09,37.55,1.6,3.71.15,7.43.32,11.14.49a87.94,87.94,0,0,0,12.27.62q6.83.36,13.66.75c3.53.2,7.06.38,10.59.57,1.76.09,3.52.13,5.29.18S394.93,459.28,394.42,459.16Z"/><path class="cls-101" d="M566.87,462.37l-9.7-5c-3-1.56-5.94-3.49-9.5-3.19-7.38.63-14.74,1.71-22.09,2.57s-14.6,1.8-21.92,2.51c-8.28.8-6.45-.42-14.78-.79-.26,0-16.65,2-16.38,2.06,5.05.88,16.25,1.21,21.37,1.15a.17.17,0,0,0,.19.15c3.07.19,6.14.08,9.21.19s5.86.29,8.78.48c6,.38,11.93.41,17.9.6a133.07,133.07,0,0,1,17.61,1.59,157.68,157.68,0,0,1,16.92,3.9c6.27,1.77,10.22,3.6,16.69,4.62C582.37,473.38,570.17,464.09,566.87,462.37ZM550,456.64l-.4-.07c-.4-.05-.81-.09-1.21-.12A6,6,0,0,1,550,456.64Z"/><path class="cls-101" d="M272.42,428.05c-3.09-.28-6.33-.55-9.44-.57l4-5.05a25.87,25.87,0,0,1-2.9,1.85c-2.31,1-5.17,2.42-7.76,2-5.81,2.14-12.06,2.17-18.23,2.26-5.59.08-22.35.78-25.05,1.42.75-.1,11.75-.58,16.46-.42,2.34.07,4.62.65,6.95.81h.19a20.67,20.67,0,0,1,6.18-.4c2.49.1,5,.05,7.48.12a85.83,85.83,0,0,1,8.76.66l.75,0c6.13.23,12.22.94,18.3,1.69s12.38,1.51,18.57,2.26c1.2.14,9.43.79,10.63.94C304.7,435.14,279.07,430.09,272.42,428.05Z"/><path class="cls-101" d="M383.3,369.37c-1.62-.93-4.54-2.26-6.18-3.17l.33-1.92c-1,.1-4.57,1.05-5.53,1.15-2.08.24-9,1-18.48,1.29-.61,0,19.47.8,21.92.86A25,25,0,0,1,383.3,369.37Z"/><path class="cls-68" d="M321.63,352.46q-2.6.39-5.18.88c-1,.19-2,.33-3,.43a32,32,0,0,0-3.61.79c.83-.1,2.64-.06,3.47-.24a26.65,26.65,0,0,1,3-.49c1.81-.2,3.63-.39,5.44-.61a50.53,50.53,0,0,0,9.9-1.78C331.86,351.37,325.15,351.92,321.63,352.46Z"/><path class="cls-101" d="M352.84,346.6c-1.81-.17-3.61-.32-5.41-.47s-3.46-.35-5.19-.54-10.24-.95-10.11-.9c1.6.62,8,1.4,9.68,1.6s6.23.29,8,.5,1,.54,2.78.7a32.12,32.12,0,0,0,6.2.1A59.26,59.26,0,0,0,352.84,346.6Z"/><path class="cls-68" d="M294.54,357.2h-.43c1.42-.19,6.73-1.33,7.79-1.43s-8-.62-11.75.16a46.75,46.75,0,0,0-5.36,1.5c-1.82.6-7.25,1.9-7.25,1.9,2.22.05,11-.6,12.11-.61,1.63,0,7.79-.74,14.28-.82C304.2,357.91,296.16,357.16,294.54,357.2Z"/><path class="cls-102" d="M408.87,230.57h4.2a.56.56,0,0,1,.06-.39.61.61,0,0,1,.54-.3h2.16a.21.21,0,0,1,.21-.22h.87a1,1,0,0,1,1-.88h.71a1.64,1.64,0,0,1,2.5-1.23h1a1.82,1.82,0,0,1,0-1.08,1.88,1.88,0,0,1,1.61-1.27,1.81,1.81,0,0,1,1.17.3,1.87,1.87,0,0,1,3.23.68,2,2,0,0,1,1.19-.38,2.07,2.07,0,0,1,2,1.53,2,2,0,0,1,1.37-.54,2,2,0,0,1,1.89,1.4,2.29,2.29,0,0,1,1.63-.61c1.1,0,2,.64,2,1.43a1.88,1.88,0,0,1,1.19-.23,2,2,0,0,1,.95.34,1.19,1.19,0,0,1,1.18-1,1.2,1.2,0,0,1,1.15.89.89.89,0,0,1,.63-.27.87.87,0,0,1,.87.88s0,0,0,.06h8.92a.21.21,0,0,1,.21.22v0a.21.21,0,0,1-.21.22h-5.06a.55.55,0,0,1,.1.31.59.59,0,0,1-.05.23h2.17a.25.25,0,0,1,.25.25v0a.25.25,0,0,1-.25.25H436a.25.25,0,0,1-.24-.18h-7a.16.16,0,0,1,0,.1h0a.25.25,0,0,1-.25.25H414.07a.25.25,0,0,1-.25-.25h0a.16.16,0,0,1,0-.1h-5a.22.22,0,0,1-.22-.23A.22.22,0,0,1,408.87,230.57Z"/><path class="cls-103" d="M563.84,123.36H550.56a2.33,2.33,0,0,0,0-.38,1.8,1.8,0,0,0-1.8-1.79h-7v0a.67.67,0,0,0-.68-.68h-2.74a3.3,3.3,0,0,0-3.26-2.81h-2.27a5.17,5.17,0,0,0-7.89-3.88h-3.3a5.89,5.89,0,0,0-8.91-6.5,5.89,5.89,0,0,0-10.2,2.17,6.57,6.57,0,0,0-10.12,3.64,6.25,6.25,0,0,0-10.3,2.72,7.27,7.27,0,0,0-5.18-1.94c-3.48,0-6.3,2-6.32,4.53a5.93,5.93,0,0,0-3.76-.74,6.2,6.2,0,0,0-3,1.09,3.78,3.78,0,0,0-7.39-.41,2.75,2.75,0,0,0-4.73,1.91,1.5,1.5,0,0,0,0,.22H423.58a.68.68,0,0,0-.68.68v.17a.68.68,0,0,0,.68.68h16a1.75,1.75,0,0,0-.3,1,1.72,1.72,0,0,0,.17.75h-6.9a.79.79,0,0,0-.79.79v0a.79.79,0,0,0,.79.8h45.57a.79.79,0,0,0,.76-.59h22.23a.81.81,0,0,0-.06.31v.06a.79.79,0,0,0,.79.79h45.57a.79.79,0,0,0,.79-.79v-.06a.81.81,0,0,0-.06-.31h15.7a.71.71,0,1,0,0-1.42Z"/><path class="cls-104" d="M113.8,94.16H96.86a1.86,1.86,0,0,0,0-.48,2.29,2.29,0,0,0-2.29-2.29H85.75v0a.86.86,0,0,0-.87-.86H81.39a4.22,4.22,0,0,0-4.17-3.58H74.33a6.59,6.59,0,0,0-10.06-5H60.06a7.5,7.5,0,0,0-7.24-9.53,7.38,7.38,0,0,0-4.12,1.24,7.5,7.5,0,0,0-13,2.77,8.36,8.36,0,0,0-12.91,4.64A8,8,0,0,0,9.66,84.54a9.27,9.27,0,0,0-6.61-2.48c-4.44,0-8,2.58-8.06,5.78a7.61,7.61,0,0,0-4.79-1,8,8,0,0,0-3.83,1.39,4.82,4.82,0,0,0-4.77-4.1,4.83,4.83,0,0,0-4.66,3.58,3.5,3.5,0,0,0-2.52-1.07,3.51,3.51,0,0,0-3.51,3.51c0,.09,0,.18,0,.28h-36a.86.86,0,0,0-.87.86v.22a.87.87,0,0,0,.87.87h20.39A2.32,2.32,0,0,0-45,93.68a2.32,2.32,0,0,0,.21.95h-8.79a1,1,0,0,0-1,1v.07a1,1,0,0,0,1,1H4.48a1,1,0,0,0,1-.74H33.81a1,1,0,0,0-.08.4v.07a1,1,0,0,0,1,1H92.85a1,1,0,0,0,1-1v-.07a1,1,0,0,0-.08-.4h20a.91.91,0,0,0,0-1.82Z"/><path class="cls-105" d="M108.59,172.6h-5.74a.76.76,0,0,0-.76-.93h-3v0a.29.29,0,0,0-.3-.29H97.61a1.42,1.42,0,0,0-1.41-1.22h-1a2.23,2.23,0,0,0-2.22-2,2.15,2.15,0,0,0-1.18.34H90.39a2.6,2.6,0,0,0,.1-.68,2.55,2.55,0,0,0-3.95-2.13,2.54,2.54,0,0,0-4.4.94,2.78,2.78,0,0,0-1.63-.52,2.85,2.85,0,0,0-2.74,2.09,2.7,2.7,0,0,0-4.45,1.17,3.15,3.15,0,0,0-2.23-.83c-1.51,0-2.73.87-2.73,2a2.64,2.64,0,0,0-1.63-.32,2.8,2.8,0,0,0-1.29.47,1.65,1.65,0,0,0-1.62-1.39,1.63,1.63,0,0,0-1.57,1.22,1.18,1.18,0,0,0-.86-.37,1.19,1.19,0,0,0-1.19,1.19s0,.06,0,.1H48a.29.29,0,0,0-.29.29v.07a.29.29,0,0,0,.29.3h6.91a.75.75,0,0,0-.13.42.83.83,0,0,0,.07.32h-3a.35.35,0,0,0-.35.34v0a.35.35,0,0,0,.35.34H71.57a.34.34,0,0,0,.33-.25h9.6a.31.31,0,0,0,0,.13v0a.35.35,0,0,0,.35.34h19.67a.34.34,0,0,0,.34-.34v0a.59.59,0,0,0,0-.13h6.78a.31.31,0,0,0,0-.62Z"/><path class="cls-106" d="M383.55,281.78c-1.63-1.7-5.67-3.37-9-4.7a51.23,51.23,0,0,0-11.61-2.51c-5.13-.67-10.44-1.08-15.24-2-2.69-.53-5.16-1.31-7.86-1.9-.62-.24-1.26-.47-1.93-.7-3.18-1.06-6.83-1.95-10.34-2.88-3.91-1-7.08-2.22-10.63-3.36a21.17,21.17,0,0,0-4.57-.5,15.05,15.05,0,0,1-3-.55l-.49-.23c-3.79-1.85-6.75-3.9-10.95-5.64-4.47-1.86-10.06-3.44-15.15-5.09-4.22-1.37-8.43-2.73-12.86-4-2.94-1.75-5.67-3.53-8.6-5.27a99.72,99.72,0,0,0-9.5-5,48.28,48.28,0,0,0-9.19-3.3,45,45,0,0,0-8.43-4.39c-2.57-1-5.37-2-8.35-3-1.65-1.21-5.9-2.51-9.44-2.73a7.38,7.38,0,0,0-2.22-1.1c-.67-.33-1.35-.65-2-1a4,4,0,0,0-1.26-.67,6.07,6.07,0,0,0-.59-.17c-2.95-1.3-6.63-2-9.84-3.25-.46-.18,12.13,6,17.37,9.37,0,0-.06,0,0,0,.9,1.18,1.59,2.38,2.4,3.56l-2.05-.78a23.42,23.42,0,0,0,3.05,2.09,4.29,4.29,0,0,0,1,.57c3.61,2,7.26,4,10.72,6q1.9,1.13,3.77,2.26a15.22,15.22,0,0,1,1.68,1.6,16.17,16.17,0,0,1,1.66,3.07c.7,1.3,2.37,2.45,3.78,3.64-2.17-.7-4.4-1.38-6.77-2-7.11-1.88-15.05-3.37-22.45-5.13a33.11,33.11,0,0,0-3.22-1.38,4.56,4.56,0,0,0-1.67-.78c-.28-.07-.58-.14-.88-.19a17.21,17.21,0,0,0-5.3-1.21c-.39,0-.67.17-.38.26l.73.24c1,1.26,4,1.95,6.33,2.92,3.23,1.34,4.81,3.14,7.92,4.55.73.33,1.5.64,2.28,1,4,3.5,10.49,6.83,16.35,9.93l3.38,1.74-1.49-.47c-6.2-2-11.78-4.19-18-6.17-.07,0-.17,0-.11,0,4.86,2.14,10.64,4,15.34,6.21,2.66,1.24,5.7,2.38,8.71,3.51,1.87.71,3.82,1.48,6,2.1,2.95,1.49,5.82,3,8.48,4.56a1,1,0,0,0,.62.06c1.95,1.09,4.18,2.14,6.41,3.2a33.09,33.09,0,0,0,3.2,1.53c1.53.74,3,1.5,4.27,2.27s4.59.23,3.66-.62c-1.46-1.33-4.44-2.41-7.21-3.46l-2.1-.95c-2.22-1-4.44-2.06-6.88-3-.72-.44-1.46-.89-2.28-1.32-.11,0-.35,0-.27.05s.44.38.67.56c-.63-.22-1.27-.44-1.94-.64a91.53,91.53,0,0,0-11.92-6.9c.86.27,1.7.52,2.45.74a108,108,0,0,1,12.19,4.21,67.6,67.6,0,0,0,9.07,3.46l.19,0c1.82,1.06,3.62,2.12,5.63,3.14,3.25,1.65,6.27,3.69,10.72,5,.55.16,1.48-.06,1.29-.29-1.52-1.81-5.59-3.43-8.7-4.95-1.19-.59-2.47-1.14-3.78-1.69l-.66-.41,1.77.71a58.67,58.67,0,0,0,11,3.43c.59.11,1.55-.09,1.11-.33a70,70,0,0,0-8.66-3.47c-1-.38-2-.76-3-1.15,1.16.34,2.36.67,3.57,1,2,.54,3.93,1.1,6,1.59a34.4,34.4,0,0,0,6,1.51c.73.11,1.3-.19,1-.41-1.21-1-3.5-1.72-5.52-2.51-2.61-1-5.11-2.09-7.55-3.16s-4.69-2.19-6.92-3.31c-1.69-.85-3.11-1.86-5-2.68-.38-.51-.78-1-1.21-1.52a6.33,6.33,0,0,0,.91-.1c4.69,2.1,10,4,15.3,5.94s10.51,4.25,16.85,5.84c.64.16,1.5-.11,1.15-.35s-.86-.55-1.34-.82l.09,0,.34.12a4,4,0,0,0,1.94.1l7,2.85a21.44,21.44,0,0,0,8.78,2.1,3.84,3.84,0,0,0,.48,0h.12a1.38,1.38,0,0,0,.41-.07c.69-.14,1.16-.43.73-.71-2.85-1.82-6-3.6-9.06-5.38l-.16-.11h0a64.31,64.31,0,0,0,7.67,1.88c1.29.23,3-.12,2.56-.61l1.88.32c2.12,1,4.1,2.07,5.91,3.16.87.53,3.06.39,3.3-.21a1.31,1.31,0,0,0,.08-.5l1.33.7c1.07.58,3.21.3,3.24-.27,1.31.54,2.61,1.08,3.85,1.65,1.05.47,2.72.11,2.85-.36,3.1.74,6.21,1.47,9.36,2.18a119.89,119.89,0,0,0,13.84,3c1.9.29,3.34-.74,1.6-1.11l-.93-.2,1.47.16.49,0a9.51,9.51,0,0,1,3.8,1.83c.5.51,3.09.33,3-.2a1.38,1.38,0,0,0-.12-.34,38.14,38.14,0,0,0,7.56,2.93C383.16,282.25,383.76,282,383.55,281.78ZM274.76,265.84l1.3.65,1.51.76c-1.33-.41-2.62-.85-3.81-1.31A6.52,6.52,0,0,0,274.76,265.84Zm-5.3-2.91c.88.54,1.82,1.07,2.79,1.6-.65-.16-1.29-.35-1.9-.55a.37.37,0,0,0-.11-.25l-.91-.88Zm25.41-5.24a57.8,57.8,0,0,1,7.35,3.72l-2-.76-2.77-1.23-.12-.11c-.81-.57-1.68-1.12-2.62-1.66ZM280,252.45a7.72,7.72,0,0,0-.83.06l-1.66-.91Zm-8.86,2.07c-.41-.2-.83-.41-1.23-.63-1.85-1-3.62-2-5.32-3C267,252.08,269.16,253.29,271.18,254.52Zm-14.73-11.06c1,.67,2,1.41,3,2.14a68.82,68.82,0,0,1-9-4.22,45.46,45.46,0,0,1-4.89-3.18C249.24,240,253.53,241.53,256.45,243.46Zm-5.66,10.77c-2-.81-4-1.62-6-2.41.22-.1.37-.21.41-.33l.64.21a.61.61,0,0,1,.07.17c0,.15.52.24.92.22H247l.27.08c.1.12.2.24.31.35a2.09,2.09,0,0,0,1.14.44l.3.07C249.54,253.43,250.15,253.83,250.79,254.23Zm-29.55-23a.53.53,0,0,1,.09-.31,1.28,1.28,0,0,0-.05-1.44c2.2,1.47,4.36,2.95,6.5,4.43l.66.44C226.16,233.32,223.76,232.27,221.24,231.27Zm9.82,2.13c-3.16-2.16-6.21-4.34-9.62-6.45,2.93,1.1,6.13,2.14,9,3.2a42.19,42.19,0,0,1,7.79,3.84c-.07,0-.08.12,0,.17,2.7,1.06,3.05,3.09,4.51,4.44a34.24,34.24,0,0,0,6.74,4.46l.79.42-1.7-.57a4.14,4.14,0,0,0-2-.11c-.77-.41-1.51-.8-2.18-1.17C239.68,238.94,235.18,236.22,231.06,233.4Zm27.35,29.39c-1.28-.58-2.59-1.14-4-1.67-2.55-1-5.44-1.81-8.11-2.74.06-.12,0-.24-.17-.37-2.3-1.54-4.76-3-7.32-4.52h0a.83.83,0,0,0-.35-.2l-.82-.47c-.3-.21-.61-.42-1-.63a3.1,3.1,0,0,0,.45-.13,46.42,46.42,0,0,0,7.38,2.89c3.65,1.68,7.18,3.43,11.27,4.95q2.69,1.77,5.84,3.46l.54.33c.31.17.69.36,1.13.55l1.88.94.53.36C263.43,264.57,261,263.67,258.41,262.79Zm8.47-6.18a63.8,63.8,0,0,0-8.39-6.8l1.41.62c.48.31,1,.61,1.49.91,1.78,1.09,3.72,2.16,5.77,3.2a88.47,88.47,0,0,0,16,6.13c.22.06.43-.05.29-.12-2.21-1.12-4.92-2.06-6.9-3.25-.76-.45-1.59-.89-2.45-1.32,1,.09,2.1-.09,2.27-.45,1.87,1.12,4.05,2.18,6.09,3.25a69.61,69.61,0,0,0,7,3.49c2.51,1,5.42,1.86,7.83,2.92A127.24,127.24,0,0,1,266.88,256.61Zm21.19,8-1.28-.45,1.42.28C288.12,264.51,288.06,264.57,288.07,264.63Zm9.79,1.57a3.92,3.92,0,0,0-2.3,0l-2-.76q2.9.48,5.86.87a22.67,22.67,0,0,0,3.27,1.7c.46.26.93.51,1.41.76Z"/><path class="cls-107" d="M256.5,275.26l-.13,0a.39.39,0,0,0-.2-.3c-4.93-3.38-13.66-6.4-22.37-8.81l-.67-.3c-2.25-1-4.51-2-6.84-3-1.18-.65-2.32-1.31-3.47-2,.06,0,.09-.08.08-.13-.21-.62-2.05-1.2-3.1-1.7A17.92,17.92,0,0,0,216,257.5h-.18L213,255.9a46.74,46.74,0,0,0,5.84,3.76,23.42,23.42,0,0,0,7.12,4.91q2.09,1,4.29,2.08a51.54,51.54,0,0,0,5.79,3.54c2.18,1.17,4.63,2.29,7.12,3.38a45.9,45.9,0,0,0,9.4,3.32c1.3.27,3.25-.2,2.38-.72l-.39-.21.34,0,.28,0C256.31,276.08,257.4,275.59,256.5,275.26Z"/><path class="cls-108" d="M239.65,264.11a26.87,26.87,0,0,0-3.61-1.9c-.07,0-.21,0-.14,0,1.21.63,2.23,1.31,3.55,1.91C239.53,264.2,239.71,264.15,239.65,264.11Z"/><path class="cls-109" d="M253.82,269.84c-2.09-.91-4-1.85-6.07-2.77s-4.89-1.6-7.05-2.47c-.06,0-.17,0-.11,0a19.71,19.71,0,0,1,4.49,3.06,27.26,27.26,0,0,0,5.19,2.57c3.94,1.66,9.6,2.68,13.76,4.25.19.07.56,0,.42-.1C261.61,272.66,257.38,271.39,253.82,269.84Z"/><path class="cls-110" d="M221.42,266.86c-.13-.06-.41,0-.31.07,1.26.77,2.5,1.57,3.78,2.36-2.13-.77-4.13-1.59-6.59-2.25h-.05c-.37-.21-.78-.41-1.15-.62-1-.53-2-1-3.1-1.54a10.7,10.7,0,0,0,2.08,1.71A8.61,8.61,0,0,0,219,267.9a.25.25,0,0,0,.15,0,47.72,47.72,0,0,0,6,2.77c1.07.42,2.48.7,3.5,1.14a25.77,25.77,0,0,0,3.3,1.36,20.43,20.43,0,0,0,3.08,1.08.39.39,0,0,0,.15,0c1.19.41,2.46.78,3.84,1.12.21.05.42,0,.35-.1C235.71,272,227.83,269.5,221.42,266.86Z"/><path class="cls-111" d="M210.12,227.39l.46.1a14.32,14.32,0,0,1,2.51.55,15,15,0,0,0-3.71-2.35c-1.67-.9-3.64-1.82-5.55-2.67-.15-.06,2.77,1.94,4,2.93A14.14,14.14,0,0,0,210.12,227.39Z"/><path class="cls-112" d="M316.56,253.8h-3.15a1.15,1.15,0,0,0,.06-.37,1.22,1.22,0,0,0-1.21-1.22h-5.13a3.66,3.66,0,0,0-3.19-3.34,3.91,3.91,0,0,0-2.43.37c0-.14,0-.27,0-.4,0-2.5-2.46-4.52-5.49-4.52a6.33,6.33,0,0,0-2.45.48,3.56,3.56,0,0,0-4.58-.31,5.09,5.09,0,0,0-6.54-.17,4.74,4.74,0,0,0-1.58,3.64,4.12,4.12,0,0,0-3.69.92,4.17,4.17,0,0,0-1.21,1.74,2.8,2.8,0,0,0-1.56-.49,2.74,2.74,0,0,0-2.73,2.74,2.84,2.84,0,0,0,.17.93h-4.43a.76.76,0,0,0-.76.76v.07a.76.76,0,0,0,.76.76h2.89s0,.06,0,.09a1.31,1.31,0,0,0,1.31,1.31h42.24a1.31,1.31,0,0,0,1.31-1.31s0-.06,0-.09h1.39a.76.76,0,0,0,.76-.76v-.07A.76.76,0,0,0,316.56,253.8Z"/></g><path class="cls-4" d="M237.15,608.55c17.37,41.83,27.75,97.71,37,144.08,3.09,3.59,6.49,7,9.82,10.25,7.73,7.65,15.73,16.19,18.54,26.47-4.52-8-12.18-13.88-19.33-19.76-2.31-1.89-4.64-3.91-6.84-6,3.31,16.21,6.48,30.89,9.88,43,5.41,4.76,11.71,8.43,17.17,13.12a35.31,35.31,0,0,1,9.14,11.57c-2.12-3.32-5.82-5.74-9.34-7.58-4.35-2.3-9.08-3.79-13.38-6.12,7,14.82,22.83,14.68,27.55,36.49,9.71-80.84,1.81-158.61-27.6-247.85a550.72,550.72,0,0,1,38.68,248.46c.89-5,4.74-9.5,8.78-12.68,4.77-3.76,10.36-6.29,15.18-9.94a35.66,35.66,0,0,0,4.85-4.37,49.85,49.85,0,0,1-9.09,2.84c-3.49.78-7.27,1.42-10.38,3a32,32,0,0,1,9.35-8c5.24-3.13,11-5.37,16.15-8.65.61-.39,1.22-.79,1.8-1.23a68.41,68.41,0,0,0,4.68-16.27,29,29,0,0,1-9.86,8.51c-4.25,2.19-9,3.33-13.41,5.17a26.15,26.15,0,0,0-7,4.14,20,20,0,0,1,5.27-7.08c3.79-3.35,8.39-5.68,12.49-8.64a47.85,47.85,0,0,0,14.19-16.3v0c.25-2.89.4-5.79.53-8.66a296.94,296.94,0,0,0-3.83-62.16,37.57,37.57,0,0,1-1.71,4c-3.6,7.36-8.83,13.74-13.42,20.49-3.46,5.14-6.61,10.66-8.24,16.57A61.53,61.53,0,0,1,350,730.88c3.55-7.93,8.76-15,12.52-22.86a49.72,49.72,0,0,0,3-7.81v0c-2.88-14.65-6.57-29.14-10.77-43.44-9.3-31.67-21.33-63.32-42.29-88.83-13.66-16.61-31.68-30.37-51.72-37.72a16.82,16.82,0,0,0-21.66,10.68C231.11,565.18,230.9,593.45,237.15,608.55Z"/><g class="cls-113"><path class="cls-114" d="M341.56,605.11c4.51,9.76,1.85,23.08.44,30.93s-2.08,24.35-2.08,24.35-4.51-13.29-4.29-22.24l.23-8.95s-3.91,16.26-5.22,23.86a163.25,163.25,0,0,0-1.9,22.05s-4.61-5.8-5.33-16.54c-.69-10.26-.2-14.17-.2-14.17s-6.08,24.24-6.23,39.4c-.16,16.7.6,27.14.6,27.14s-10-35.35-17.85-44.65c-5.39-6.36-9.79-7.26-9.79-7.26a49.64,49.64,0,0,1,8,13.88A75.45,75.45,0,0,1,302.18,690s-7.71-15.29-16.3-24.87S270.6,652,270.6,652a68.89,68.89,0,0,1,9.63,14.32,55.67,55.67,0,0,1,5.24,17,184.19,184.19,0,0,0-13.53-19.91c-5.06-6.38-16-15.46-16-15.46a68.24,68.24,0,0,1,10,16.8,37.51,37.51,0,0,1,2.84,14.68s-7.44-14-13.1-21.24c-9.59-12.2-19-12.19-19-12.19L196.26,573.2,229,498.08l96.25,27.5Z"/><g class="cls-115"><path class="cls-116" d="M310.3,666.87C339,723.77,382.62,771.41,430.63,812.7c8.34,7.16,17.52,15.62,17.61,26.61.21,26.48-41.54,32.93-60.75,34.44-98.3,7.74-170.38-80.3-193-167.6C183,661.73,176,612.24,186.85,567c6.86-28.64,22.47-58.34,46.51-76.16,10.78-8,28.89-17.09,42.88-13.76,16.79,4,10.05,22.75,7.95,34.68C274.44,567.08,286.31,619.35,310.3,666.87Z"/></g></g></g></g></svg>