<svg id="Layer_1" data-name="Layer 1" xmlns="http://www.w3.org/2000/svg" xmlns:xlink="http://www.w3.org/1999/xlink" viewBox="0 0 512 400"><defs><style>.cls-1,.cls-31{fill:none;}.cls-2{clip-path:url(#clip-path);}.cls-3{opacity:0.3;}.cls-12,.cls-29,.cls-4,.cls-6,.cls-7{fill:#ff8a00;}.cls-29,.cls-31,.cls-4,.cls-5,.cls-6,.cls-7{stroke:#5b1b02;}.cls-16,.cls-20,.cls-21,.cls-22,.cls-23,.cls-24,.cls-25,.cls-29,.cls-31,.cls-4,.cls-5,.cls-6,.cls-7{stroke-miterlimit:10;}.cls-4{stroke-width:0.71px;}.cls-5{fill:#c66c0a;}.cls-31,.cls-5,.cls-6{stroke-width:0.75px;}.cls-7{stroke-width:0.48px;}.cls-8{fill:#ff7a75;}.cls-9{fill:#ba6304;}.cls-10{fill:#6d1f0d;}.cls-11{fill:#590e0e;}.cls-13,.cls-17{fill:#ffde8c;}.cls-14{fill:#fbffff;}.cls-15{fill:#130d14;}.cls-16{fill:#6b0a0a;stroke:#2d0901;stroke-width:0.5px;}.cls-17{opacity:0.76;}.cls-18{fill:#091204;}.cls-19{fill:#b70f0f;}.cls-20,.cls-21,.cls-23,.cls-24,.cls-25{fill:#fff;}.cls-20,.cls-21{stroke:#4f2102;}.cls-20{stroke-width:0.64px;}.cls-21{stroke-width:0.61px;}.cls-22{fill:#4f2305;stroke-width:0.35px;}.cls-22,.cls-23,.cls-24,.cls-25{stroke:#020b3f;}.cls-23{stroke-width:0.07px;}.cls-24{stroke-width:0.12px;opacity:0.1;}.cls-25{stroke-width:0.07px;}.cls-26{fill:#160b0c;}.cls-27{fill:#60110e;}.cls-28{fill:#f5a954;}.cls-29{stroke-width:0.51px;}.cls-30{fill:#ddb966;}.cls-32{fill:#471201;}</style><clipPath id="clip-path"><rect class="cls-1" x="593" y="-565" width="478" height="590" rx="58.11" transform="translate(562 -1102) rotate(90)"/></clipPath></defs><ellipse class="cls-3" cx="244.09" cy="345.99" rx="162.97" ry="20.68"/><path class="cls-4" d="M268.38,253s30.54-37.42,80.72-26.71S398.72,273,457,275.48l-1.3,4.84s-38.12,8.51-67.27-23.27c-21.39-23.34-76-36.21-110.67,8.53l-7,1.3-6.36-9.83Z"/><path class="cls-5" d="M230.15,275s6.88,28,36.31,34.88c0,0,15,3.56,19,6.65v4.75a81.87,81.87,0,0,0-8.6,2.28c-4.66,1.51-19.64.75-21.27,14.47,0,0-1,9.94,10.82,9.57,0,0,4,3.14,12.08-.76,0,0,10.32,4,21.4-7.68s11.2-20.76,11.2-20.76.76-4-4.91-7.3-9.69-20.77-4.78-28.95-2.62-15.93-2.62-15.93L265.65,260l-23.25,3.18Z"/><path class="cls-5" d="M142.3,268.56l3.43,67.64s.24,8.92-10.09,11-15.74,1.55-15.74,1.55-1.19.83-6.22,0c0,0-6.6,2.09-9.11-4.09,0,0-3.46-11.31,5.76-15.18s10.58-4,10.26-10.9-16.23-42.94-17.18-63.68Z"/><path class="cls-6" d="M85.39,220.67S84.31,250.83,116,267.86s94.28,12.92,94.28,12.92,59.08-7.59,67.91-5.33a149.13,149.13,0,0,0,34.46,9.43c18.26,2.47,35.7,10.26,41.86,21.34,0,0,4.31,10.47,0,21.13,0,0-11.86,16.27,1.91,20.73h3.46a1.81,1.81,0,0,1,.69.14,16.39,16.39,0,0,0,15.28-1.38s12.31,3.08,15.38-7.38-7-28.93-7-28.93l-13.13-31.39s1-7.8-9.65-10.46-26.26-4.31-33-17.85-5.68-23-25.85-34.27c-16.62-9.32-58.06-18.1-58.06-18.1S196,180.14,180.26,156.9C180.26,156.9,85,203.68,85.39,220.67Z"/><path class="cls-7" d="M30.64,101.41s9.79-8,14.06-15.31c0,0,1.32-12.17-9.34-15.84-8.3-2.86-16.64,5.58-16.23,12.65C19.13,82.91,19.89,99.12,30.64,101.41Z"/><path class="cls-8" d="M28.63,76.5S37,73,42.66,88.65c0,0-5.06,4.68-10.85,5.48C31.81,94.13,20.27,81.53,28.63,76.5Z"/><path class="cls-9" d="M28,76.83s8.83-2,12.06,11.76a10.47,10.47,0,0,0,1.9-1.5,66.76,66.76,0,0,0-3.42-6.77C37.43,78.57,33.25,73.18,28,76.83Z"/><path class="cls-9" d="M20.54,78.22a36.12,36.12,0,0,0,3.59,15.51l-1.52.89a29.55,29.55,0,0,1-2.25-6.13S18.14,81.25,20.54,78.22Z"/><path class="cls-10" d="M106.76,53.07s4.68-18.36,29.65-14.73c0,0,11.9,2.82,19.32,17.15a14.7,14.7,0,0,0,17,5.45s-1.95,5-10.34,4.85c0,0,11.51,8.23,12.68,20.26s6.68,41.62,12.75,56.72,7.42,57.43-27,72.73c0,0-4.88,9.68-15.09,12.14,0,0-30.36,6.64-39,20.73,0,0-1.58-6.45,2.37-9.85,0,0-5.23,4.08-16.72,5.26S69.89,256.68,72,268.05c0,0-5.89-10.81-12.53-13.87s-15.25-22.83-15-35,2.42,11.56-6.19,13.79c0,0,1.61-19.22-4-24.24s-16.43-8.14-15.62-28.16c0,0,0,9.11-5.12,11.53,0,0,2.7-10.6-2.15-20s-12.66-22.9-8.89-35.35a133.9,133.9,0,0,1,9.43-22.77s-6.47.55-8.08,0c0,0,8.88-4.15,14.27-11S30.73,75.34,35,67.54,47.35,48.6,61.26,42.75c0,0-6.13-2.23-7.13-7,0,0,10.33,4.18,17.84,0S98,30.25,106.76,53.07Z"/><path class="cls-11" d="M98,71.82S77.08,50.27,60.33,70s-9,34.11-28.13,46.67a17.05,17.05,0,0,0,11.07-3.59S23.82,124.17,37.89,164c0,0,4.18-7.78,4.18-14.06A17.91,17.91,0,0,0,49.55,164c7.78,5.68,6.89,18.85,5.09,23.34,0,0,4.19-1.5,5.69-7.48l32.61,7.48,18-1.5s-6.58,11.67-4.19,18.85c0,0,6.58-12.27,12.57-14.06s15-7.48,15-7.48-3,14.36-7.48,18.25c0,0,18.85-10.77,22.14-28.43l3.29-17.65h0a11.69,11.69,0,0,1,2.09,6.88c-.3,3.59,3-13.16-2.69-21.24a25.84,25.84,0,0,1-4.19-17.35s3.89,15.85,12.27,19.14l-1.8-5.08s10.77,12.27,18.85,13.76c0,0,.9-4.19-6.28-10.17s-15.86-13.46-16.76-24.83c0,0-1.79,8.07,2.1,14.36,0,0-10.17-10.77-10.17-23.34s3-30.22-9.28-40.39-24.23,2.39-24.23,2.39.89-3.89,4.19-5.38l-3.89.3s2.9-4.2,5.16-6.78c0,0-6,4.07-8.68,9.75,0,0,5.4-6.47,1.21-10.06,0,0-1.54,5.36-3.33,8L105,56.17s1.38,7.92-1.77,8.82c0,0-3.61-8.21-6-10,0,0,3.84,3.67,2.94,12.35a22.74,22.74,0,0,1-3.29-5.69A20.33,20.33,0,0,0,98,71.82Z"/><path class="cls-12" d="M56.76,113.25s-2.5-37.7,34-40.53a13.71,13.71,0,0,1,7.09,1.54c1.6.94,4.29,3.31,6.9,3.52A52.51,52.51,0,0,0,116.55,77s19.69-3.23,24.9,22.19c3.77,18.38-6.22,36.85-6.22,36.85s20.55,25.41-13.08,43.34c0,0-18.69,4.74-23,16l-32.17-5-4.3-13.24a13.49,13.49,0,0,0-5.88-12.91c-7.36-5.3-18.28-20.85-13.65-33.43S56.76,113.25,56.76,113.25Z"/><path class="cls-13" d="M65.22,170.38s-1,10.55,7.82,11.91,16.34,1.36,22.8-7.49,14.3-22.46,14.3-22.46-7.49,19.06-7.83,32-7.49,21.44-25.52,21.1c0,0-14.5-.91-18.24-11.8A23.2,23.2,0,0,1,61,178.16S64.74,172.59,65.22,170.38Z"/><path class="cls-14" d="M68.51,163.53s5.74,4.27,19.56,2.51,12.85-9,12.85-9H76.34l-8.79.67Z"/><path class="cls-15" d="M65,163.53,66,173.47l4.52,6.67H83l9.42-2,6.08-7.73s9.25-14.4,10.38-17.34l-4.38-.71-23.29.71S62.81,155.2,65,163.53Z"/><path class="cls-13" d="M63.33,137.15s-10.84,4.63-6.75,15.19,16.15,9.34,18.61,5.86v-4.29s-1.23,8.59,5.72,9.41,16.56-.27,28-11c0,0-3.93-9.06-17.19-7.63l-18.79-2Z"/><path class="cls-16" d="M65.64,132.6s7.76,8.45,28.55,6.17c0,0,2.23,5.87-9.17,10.33,0,0-3.84,2.49-6,3.9-5.16,3.42-7.7-.66-7.7-.66s-2.06-5.05-3.69-6.44S61.28,136.73,65.64,132.6Z"/><path class="cls-17" d="M104.48,134.43s-15.21-18.05,5.66-34.6c0,0,10.24-3.55,11.71,6.16,3.75,24.73-5.27,23.09-8.11,27.35Z"/><path class="cls-18" d="M110.14,99.83s8.93-1.68,12.29,10.65c0,0,2.8-11.21-4.48-15.41S110.14,99.83,110.14,99.83Z"/><path class="cls-17" d="M58.14,114.74a34.63,34.63,0,0,1,8.45-22.18c8.89-10,15.7.27,15.7.27s.39,23.93-8.47,28Z"/><path class="cls-13" d="M115,238s1,15.71,63.41,22,88.31,6.27,88.31,6.27l11.49,9.15a213.54,213.54,0,0,0-31.78,1.28c-19.27,2-44.51,5.25-53.8,4.48s-42.74-1.21-54.41-5.42c0,0-25.87-5.07-42-23.67,0,0-4.21-3.6-6-11l10.75-1.06Z"/><path class="cls-18" d="M82.29,92.83s1.9-4.77,0-8.13-14,0-16.19,8.13C66.1,92.83,78.31,85.82,82.29,92.83Z"/><path class="cls-19" d="M70.56,173.67s8.64-9.07,23.81-6.32c0,0,3.88.46,2.11,4.52s-16.12,7-16.12,7l-9.8-.77Z"/><path class="cls-18" d="M63,159.48s2.7,7,2.2,12.51c0,0-1.46,10.35,10.72,10.69s15.56-1.2,21-9.41,13.19-20.93,13.19-20.93h-1.22s-9.63,18.31-16.09,22.88-17.14,6.48-24.32.39a75.72,75.72,0,0,1-1.26-9.32C67.25,163.52,63,159.48,63,159.48Z"/><path class="cls-14" d="M63,159.48l4.43,9.13s2,3.44,1.62-7.94C69,160.67,65,160.64,63,159.48Z"/><path class="cls-14" d="M85.39,163.51l2.12,7.88s1.54,3.54,3.24-8.56C90.75,162.83,86.56,163.53,85.39,163.51Z"/><path class="cls-14" d="M68.51,175.61s.64-5.65,2.18-7.07,1.92,9.58,1.92,9.58S68.72,176.75,68.51,175.61Z"/><path class="cls-14" d="M84.44,178.89s.56-6.87,1-8.29,2.84,4.51,3.48,6.84A14,14,0,0,1,84.44,178.89Z"/><path class="cls-14" d="M67.86,171.87s8.89,8.69,26.51,0c0,0,2.8-2.09,3.67-4.34l.5,1.56s-3.88,6.45-9.67,8.35c-4.43,1.45-10.13,3.23-16.26.68C72.61,178.12,66,176.51,67.86,171.87Z"/><ellipse class="cls-20" cx="111.24" cy="120.07" rx="13.3" ry="10.59" transform="translate(-26.44 208.58) rotate(-79.92)"/><ellipse class="cls-21" cx="68.3" cy="110.48" rx="12.8" ry="9.88" transform="translate(-56.97 144.81) rotate(-73.6)"/><ellipse class="cls-22" cx="110.94" cy="121.68" rx="7.32" ry="5.93" transform="translate(-28.28 209.61) rotate(-79.92)"/><ellipse class="cls-18" cx="111.01" cy="122.25" rx="4.2" ry="3.56" transform="translate(-34.75 199.85) rotate(-75.79)"/><ellipse class="cls-23" cx="107.54" cy="120.34" rx="1.33" ry="1.25" transform="translate(-23.95 213.92) rotate(-83.66)"/><circle class="cls-24" cx="112.94" cy="117.8" r="2.2"/><ellipse class="cls-22" cx="69.71" cy="114.08" rx="7.05" ry="5.54" transform="translate(-59.42 148.74) rotate(-73.6)"/><ellipse class="cls-18" cx="69.93" cy="114.59" rx="4.4" ry="3.26" transform="translate(-59.74 149.31) rotate(-73.6)"/><ellipse class="cls-25" cx="67.1" cy="112.22" rx="1.27" ry="1.2" transform="translate(-51.85 166.52) rotate(-83.66)"/><circle class="cls-24" cx="71.58" cy="109.81" r="2.2"/><path class="cls-9" d="M84.79,138.84s9.41-3.39,10.63-8.89c0,0,.69,6.16-.88,8.58C94.54,138.53,86,139.13,84.79,138.84Z"/><path class="cls-9" d="M102.43,182.07a42.79,42.79,0,0,1,14.48-8c8.62-2.67,22.76-10.71,23.34-28.16,0,0,4.7,13.11-4.15,22.46s-11.68,10.17-20.21,13.13-13.92,8.51-15,11C100.93,192.51,102.87,184.45,102.43,182.07Z"/><path class="cls-9" d="M62.35,176s2.63-4,2.87-5.64-1.33-9.16-2.23-10.9c-.65-1.25-1.55.72-5.78-6.1-1-1.54-13-7.43-15.13-14.22,0,0,.09,5,3.6,11.6A47.13,47.13,0,0,0,59,166.24C63,169.23,62.35,176,62.35,176Z"/><path class="cls-13" d="M65.81,132.07s2.18-8.31,12.47-11.66C78.28,120.41,67.57,128.23,65.81,132.07Z"/><path class="cls-26" d="M101.5,135.2S114,133.94,121,133C121,133,108.16,132.28,101.5,135.2Z"/><path class="cls-26" d="M55.6,118.69s9.36,5.13,14.78,7.79C70.38,126.48,61.9,119.6,55.6,118.69Z"/><path class="cls-27" d="M4.79,113.69s11.92-2.38,16-6.81a14.28,14.28,0,0,1-9,6.81S5.63,114.57,4.79,113.69Z"/><path class="cls-11" d="M13.49,192.14s6.27-8.32,3.26-23.89c0,0,2.46,6.92,5.66,20.56s13.51,15.66,13.51,15.66,3.65,1.15,4.12,13.28S38.27,233,38.27,233s.9-14.19-1.51-20a17.56,17.56,0,0,0-8-8.36s-6.61-4.39-8.16-10a81.74,81.74,0,0,1-2-14.06S18.79,189.32,13.49,192.14Z"/><path class="cls-11" d="M30.77,191.49a24.62,24.62,0,0,0,3,13.13l2.8,3.49,1.25,9.23L38.27,233s4.83-.44,6.27-11c0,0,.6,21.74,13.94,31.66S72,268.05,72,268.05s-3.49-14.6,16.18-23.35c0,0,13.57-1.48,21-6.18,0,0-4.21,2.62-2.37,9.85,0,0,6.89-10.5,25.89-16.84s23.17-5.69,28.16-16c0,0,20.57-3.88,28-33.61,0,0-10.23,19.08-20.26,21.61,0,0,9.75-15.64,8.64-24.33,0,0-6.63,22.63-17.46,25.61,0,0,2-1.5,2.7-7.67s-1.39,14.31-15.05,19.65c0,0,2-2.79,2.27-4.72s-4.09,9-13.17,11.57-19.6,6.87-23.41,9.4c0,0,4.68-4.21,5.09-8.19,0,0-8,11-20.62,12.79s-19.08,3.94-24.58,13.47c0,0,1.59-9.14,5.87-12.55,0,0-7.59,3.95-8,10.23,0,0-1.38-12.71-7.85-16.58,0,0,4.19,9.51,2.4,17.19,0,0-10.21-4.89-15.54-17.87,0,0-5.21-11.18-4.94-14.86s-5.15-12.84-3.81-22a26.1,26.1,0,0,0-.58,15.71c0,.22.11.43.18.65C43.36,220.08,31.36,194.94,30.77,191.49Z"/><path class="cls-28" d="M58.13,154.8s10.62,5.7,16.93-.1c0,0,6.13,8.6,24.08,4.88,0,0-7,4.73-15.39,4.63-7.24-.08-7.67-2.38-8.45-6.62,0,0-.2,4.26-9.26,2.87C59.66,159.48,58.13,154.8,58.13,154.8Z"/><path class="cls-28" d="M60.88,197.89s26.39,6.12,33.49-4.18,7.83-26.15,12.69-32.51c0,0-4.1,13.81-4.47,19.25s-.09,15.93-8.22,20.84S69.28,209,60.88,197.89Z"/><path class="cls-29" d="M159,105.05s-.22,14.39,6.87,20c0,0,11.62.45,17.57-10,4.06-7.12-.83-18.77-7.76-19.12C175.67,95.93,162.05,95.1,159,105.05Z"/><path class="cls-8" d="M178.67,107.24s2.5,11.63-14.84,15.27c0,0-4.18-6.05-4.15-12.27C159.68,110.24,174.62,97.66,178.67,107.24Z"/><path class="cls-9" d="M160.76,115.83a10.9,10.9,0,0,1,5.78-3.8,5.31,5.31,0,0,0-4.71,0s11.07-11.31,16.91-5c0,0-1.32-5.81-8.69-3,0,0-8,2.79-10.31,6C159.74,110,159.57,113.91,160.76,115.83Z"/><path class="cls-9" d="M165.35,123.6c.08.19-.45.13.18.58l.59.56c3.75-.25,3.39,0,8.92-2.31,5.22-2.14,7.72-8.85,7.72-8.85C177.3,122.3,167.45,123.37,165.35,123.6Z"/><path class="cls-30" d="M91.61,244.23s22.62,21.84,68,25,113,1.19,113,1.19l5.56,5.08s-18.69.17-28.16,1.34-50.16,6.11-57.42,4.42L157.89,280s-39.07-4.14-56.11-22.29C101.78,257.73,94,251.51,91.61,244.23Z"/><path class="cls-6" d="M145,232.66s18.54,69.36,25.74,84.89c0,0,2,6.83-1.76,8.83,0,0-14,2.2-10.24,15.34,0,0,.93,4.93,10.8,5.29h6.15s15.82,2.19,20.29-6.94c0,0-3-57.49-3.16-61.87s1.11-54.4-5.59-62.79"/><path class="cls-31" d="M369.71,331.15s-4.49,14.38,10.93,16.09"/><path class="cls-31" d="M357.94,332.55s-5.75,14.41,7.57,16.88"/><path class="cls-31" d="M175.79,331.15s-10.39,7.49-.91,15.71"/><path class="cls-31" d="M169.14,330.15s-11,6.85-2.06,16.66"/><path class="cls-31" d="M122.08,333.47s-10,5.72-2.18,15.31"/><path class="cls-31" d="M116.93,330.22s-7.57,3.25-6.86,10.12c.66,6.52,3.61,8.44,3.61,8.44"/><path class="cls-31" d="M281.82,329.59s-12,4.24-3.34,17.23"/><path class="cls-31" d="M271.4,327.56s-7.45,2.88-7.31,10.65,2.31,9.37,2.31,9.37"/><path class="cls-6" d="M260.15,258.81s12.55,15.12,22.78,18.48"/><path class="cls-31" d="M91.61,244.23s2.24,14.38,33,27.61c0,0,24.38,8.37,33.32,8.18"/><path class="cls-31" d="M192.63,281.21s28.83-.26,51-3.59c24.49-3.66,34.56-2.17,34.56-2.17"/><path class="cls-32" d="M440.48,274.74s16.53-18.17,39.61-6.44c0,0,20.36,13.08,30.45,14.9,0,0-10.37,15.41-37.13,12.05S436.28,281.85,440.48,274.74Z"/><path class="cls-26" d="M439.87,276.09s5.37,10.47,32.28,14.39,38.39-7.28,38.39-7.28-6,10.88-23.09,12.1-35.71-2.94-42.53-9.2S439.26,277.43,439.87,276.09Z"/><path class="cls-26" d="M441.41,273.83s11.68,4.78,18.83,4.35c0,0-6.79,5.95-20.66-1.36A4.83,4.83,0,0,1,441.41,273.83Z"/></svg>