<svg id="Layer_1" data-name="Layer 1" xmlns="http://www.w3.org/2000/svg" xmlns:xlink="http://www.w3.org/1999/xlink" viewBox="0 0 512 400"><defs><style>.cls-1{fill:none;}.cls-2{opacity:0.3;}.cls-3{clip-path:url(#clip-path);}.cls-4{fill:#fcfff3;}.cls-5{fill:#98bad6;}.cls-6{fill:#eda6ad;}.cls-7{clip-path:url(#clip-path-2);}</style><clipPath id="clip-path"><rect class="cls-1" x="126.52" y="42.75" width="246.36" height="314.56"/></clipPath><clipPath id="clip-path-2"><rect class="cls-1" x="95.28" y="72.57" width="314.56" height="246.36" transform="translate(31.33 426.32) rotate(-83.96)"/></clipPath></defs><rect class="cls-2" x="130.45" y="45.61" width="249.34" height="318.37"/><g class="cls-3"><rect class="cls-4" x="78.62" y="31.29" width="342.16" height="342.16"/><rect class="cls-5" x="60.93" y="64.73" width="342.16" height="0.46"/><rect class="cls-5" x="60.93" y="76.4" width="342.16" height="0.46"/><rect class="cls-5" x="60.93" y="88.07" width="342.16" height="0.46"/><rect class="cls-5" x="60.93" y="99.75" width="342.16" height="0.46"/><rect class="cls-5" x="60.93" y="111.42" width="342.16" height="0.46"/><rect class="cls-5" x="60.93" y="123.09" width="342.16" height="0.46"/><rect class="cls-5" x="60.93" y="134.76" width="342.16" height="0.46"/><rect class="cls-5" x="60.93" y="146.43" width="342.16" height="0.46"/><rect class="cls-5" x="60.93" y="158.1" width="342.16" height="0.46"/><rect class="cls-5" x="60.93" y="169.77" width="342.16" height="0.46"/><rect class="cls-5" x="60.93" y="181.44" width="342.16" height="0.46"/><rect class="cls-5" x="60.93" y="193.12" width="342.16" height="0.46"/><rect class="cls-5" x="60.93" y="204.79" width="342.16" height="0.46"/><rect class="cls-5" x="60.93" y="216.46" width="342.16" height="0.46"/><rect class="cls-5" x="60.93" y="228.13" width="342.16" height="0.46"/><rect class="cls-5" x="60.93" y="239.8" width="342.16" height="0.46"/><rect class="cls-5" x="60.93" y="251.47" width="342.16" height="0.46"/><rect class="cls-5" x="60.93" y="263.14" width="342.16" height="0.46"/><rect class="cls-5" x="60.93" y="274.82" width="342.16" height="0.46"/><rect class="cls-5" x="60.93" y="286.49" width="342.16" height="0.46"/><rect class="cls-5" x="60.93" y="298.16" width="342.16" height="0.46"/><rect class="cls-5" x="60.93" y="309.83" width="342.16" height="0.46"/><rect class="cls-5" x="60.93" y="321.5" width="342.16" height="0.46"/><rect class="cls-5" x="60.93" y="333.17" width="342.16" height="0.46"/><rect class="cls-6" x="153.98" y="31.62" width="0.8" height="342.16"/></g><rect class="cls-2" x="98.16" y="77.12" width="318.81" height="249.69" transform="translate(29.63 436.85) rotate(-83.96)"/><g class="cls-7"><rect class="cls-4" x="81.23" y="26.99" width="342.16" height="342.16" transform="matrix(0.11, -0.99, 0.99, 0.11, 28.8, 428.15)"/><rect class="cls-5" x="248.95" y="-111.52" width="0.46" height="342.16" transform="translate(163.73 301.09) rotate(-83.96)"/><rect class="cls-5" x="247.72" y="-99.91" width="0.46" height="342.16" transform="translate(151.09 310.26) rotate(-83.96)"/><rect class="cls-5" x="246.49" y="-88.31" width="0.46" height="342.16" transform="translate(138.45 319.42) rotate(-83.96)"/><rect class="cls-5" x="245.26" y="-76.7" width="0.46" height="342.16" transform="translate(125.81 328.59) rotate(-83.96)"/><rect class="cls-5" x="244.04" y="-65.09" width="0.46" height="342.16" transform="translate(113.17 337.75) rotate(-83.96)"/><rect class="cls-5" x="242.81" y="-53.49" width="0.46" height="342.16" transform="translate(100.53 346.92) rotate(-83.96)"/><rect class="cls-5" x="241.58" y="-41.88" width="0.46" height="342.16" transform="translate(87.89 356.08) rotate(-83.96)"/><rect class="cls-5" x="240.35" y="-30.27" width="0.46" height="342.16" transform="translate(75.25 365.25) rotate(-83.96)"/><rect class="cls-5" x="239.13" y="-18.67" width="0.46" height="342.16" transform="translate(62.61 374.41) rotate(-83.96)"/><rect class="cls-5" x="237.9" y="-7.06" width="0.46" height="342.16" transform="translate(49.97 383.58) rotate(-83.96)"/><rect class="cls-5" x="236.67" y="4.55" width="0.46" height="342.16" transform="translate(37.33 392.74) rotate(-83.96)"/><rect class="cls-5" x="235.44" y="16.15" width="0.46" height="342.16" transform="translate(24.69 401.9) rotate(-83.96)"/><rect class="cls-5" x="234.22" y="27.76" width="0.46" height="342.16" transform="translate(12.05 411.07) rotate(-83.96)"/><rect class="cls-5" x="232.99" y="39.37" width="0.46" height="342.16" transform="translate(-0.6 420.23) rotate(-83.96)"/><rect class="cls-5" x="231.76" y="50.97" width="0.46" height="342.16" transform="translate(-13.24 429.4) rotate(-83.96)"/><rect class="cls-5" x="230.53" y="62.58" width="0.46" height="342.16" transform="matrix(0.11, -0.99, 0.99, 0.11, -25.88, 438.56)"/><rect class="cls-5" x="229.31" y="74.19" width="0.46" height="342.16" transform="translate(-38.52 447.73) rotate(-83.96)"/><rect class="cls-5" x="228.08" y="85.79" width="0.46" height="342.16" transform="translate(-51.16 456.9) rotate(-83.96)"/><rect class="cls-5" x="226.85" y="97.4" width="0.46" height="342.16" transform="translate(-63.8 466.06) rotate(-83.96)"/><rect class="cls-5" x="225.62" y="109.01" width="0.46" height="342.16" transform="translate(-76.44 475.22) rotate(-83.96)"/><rect class="cls-5" x="224.39" y="120.61" width="0.46" height="342.16" transform="translate(-89.08 484.39) rotate(-83.96)"/><rect class="cls-5" x="223.17" y="132.22" width="0.46" height="342.16" transform="translate(-101.72 493.55) rotate(-83.96)"/><rect class="cls-5" x="221.94" y="143.83" width="0.46" height="342.16" transform="matrix(0.11, -0.99, 0.99, 0.11, -114.36, 502.72)"/><rect class="cls-5" x="220.71" y="155.43" width="0.46" height="342.16" transform="translate(-127 511.88) rotate(-83.96)"/><rect class="cls-6" x="-13.6" y="187.98" width="342.16" height="0.8" transform="translate(-46.41 325.17) rotate(-83.96)"/></g></svg>