<svg id="Layer_1" data-name="Layer 1" xmlns="http://www.w3.org/2000/svg" xmlns:xlink="http://www.w3.org/1999/xlink" viewBox="0 0 512 400"><defs><style>.cls-1{opacity:0.3;}.cls-2{fill:#692e21;}.cls-10,.cls-11,.cls-12,.cls-13,.cls-14,.cls-18,.cls-19,.cls-2,.cls-20,.cls-21,.cls-22,.cls-23,.cls-24,.cls-25,.cls-26,.cls-27,.cls-28,.cls-29,.cls-30,.cls-31,.cls-32,.cls-33,.cls-34,.cls-35,.cls-36,.cls-37,.cls-38,.cls-39,.cls-4,.cls-40,.cls-41,.cls-42,.cls-43,.cls-44,.cls-45,.cls-46,.cls-47,.cls-48,.cls-49,.cls-5,.cls-50,.cls-6,.cls-7,.cls-8,.cls-9{fill-rule:evenodd;}.cls-3{fill:#af834c;}.cls-4{fill:#306f30;}.cls-5{fill:url(#GradientFill_12);}.cls-6{fill:url(#GradientFill_13);}.cls-7{fill:url(#GradientFill_18);}.cls-8{fill:#806a50;}.cls-9{fill:#927a63;}.cls-10{fill:#ac634e;}.cls-11{fill:url(#GradientFill_3);}.cls-12{fill:url(#GradientFill_6);}.cls-13{fill:url(#GradientFill_8);}.cls-14{fill:#c0765f;}.cls-15{fill:url(#GradientFill_9);}.cls-16{fill:url(#GradientFill_9-2);}.cls-17{fill:url(#GradientFill_9-3);}.cls-18{fill:#72a13f;}.cls-19{fill:url(#GradientFill_10);}.cls-20{fill:url(#GradientFill_11);}.cls-21{fill:url(#GradientFill_3-2);}.cls-22{fill:url(#GradientFill_6-2);}.cls-23{fill:#ca7aac;}.cls-24{fill:url(#GradientFill_3-3);}.cls-25{fill:url(#GradientFill_6-3);}.cls-26{fill:url(#GradientFill_14);}.cls-27{fill:#bc6fa7;}.cls-28{fill:url(#GradientFill_15);}.cls-29{fill:#b4629b;}.cls-30{fill:#a5588e;}.cls-31{fill:#e79fc5;}.cls-32{fill:#bca381;}.cls-33{fill:#8d4276;}.cls-34{fill:#763362;}.cls-35{fill:#fff584;}.cls-36{fill:url(#GradientFill_16);}.cls-37{fill:url(#GradientFill_10-2);}.cls-38{fill:url(#GradientFill_11-2);}.cls-39{fill:url(#GradientFill_17);}.cls-40{fill:url(#GradientFill_3-4);}.cls-41{fill:#00a7e4;}.cls-42{fill:url(#GradientFill_6-4);}.cls-43{fill:url(#GradientFill_19);}.cls-44{fill:url(#GradientFill_10-3);}.cls-45{fill:url(#GradientFill_11-3);}.cls-46{fill:#0063a4;}.cls-47{fill:url(#GradientFill_20);}.cls-48{fill:url(#GradientFill_10-4);}.cls-49{fill:url(#GradientFill_11-4);}.cls-50{fill:#a1550b;}</style><linearGradient id="GradientFill_12" x1="136.09" y1="246.24" x2="201.48" y2="246.24" gradientUnits="userSpaceOnUse"><stop offset="0" stop-color="#cdb997"/><stop offset="1" stop-color="#e7d4b6"/></linearGradient><linearGradient id="GradientFill_13" x1="136.36" y1="248.2" x2="201.29" y2="248.2" gradientUnits="userSpaceOnUse"><stop offset="0" stop-color="#b19f83"/><stop offset="1" stop-color="#d1bea1"/></linearGradient><linearGradient id="GradientFill_18" x1="348.38" y1="159.13" x2="277.68" y2="159.13" gradientUnits="userSpaceOnUse"><stop offset="0" stop-color="#9c886d"/><stop offset="1" stop-color="#b19d82"/></linearGradient><linearGradient id="GradientFill_3" x1="123.74" y1="302.08" x2="185.91" y2="302.08" gradientUnits="userSpaceOnUse"><stop offset="0" stop-color="#ebd7b5"/><stop offset="1" stop-color="#f9efd6"/></linearGradient><linearGradient id="GradientFill_6" x1="123.74" y1="302.08" x2="185.91" y2="302.08" gradientUnits="userSpaceOnUse"><stop offset="0" stop-color="#cdbb9f"/><stop offset="1" stop-color="#e3d4b6"/></linearGradient><linearGradient id="GradientFill_8" x1="285.35" y1="342.89" x2="285.35" y2="284.69" gradientUnits="userSpaceOnUse"><stop offset="0" stop-color="#5f281b"/><stop offset="1" stop-color="#a15641"/></linearGradient><linearGradient id="GradientFill_9" x1="291.77" y1="334.33" x2="291.77" y2="288.93" gradientUnits="userSpaceOnUse"><stop offset="0" stop-color="#ba8b51"/><stop offset="1" stop-color="#f1c375"/></linearGradient><linearGradient id="GradientFill_9-2" x1="232.09" y1="339.09" x2="232.09" y2="291.9" xlink:href="#GradientFill_9"/><linearGradient id="GradientFill_9-3" x1="344.38" y1="330.01" x2="344.38" y2="286.48" xlink:href="#GradientFill_9"/><linearGradient id="GradientFill_10" x1="389.37" y1="271.54" x2="202.01" y2="271.54" gradientUnits="userSpaceOnUse"><stop offset="0" stop-color="#bca886"/><stop offset="1" stop-color="#d1bea1"/></linearGradient><linearGradient id="GradientFill_11" x1="390.39" y1="268.33" x2="199.62" y2="268.33" gradientUnits="userSpaceOnUse"><stop offset="0" stop-color="#9c886d"/><stop offset="1" stop-color="#bca88d"/></linearGradient><linearGradient id="GradientFill_3-2" x1="136.09" y1="262.09" x2="201.48" y2="262.09" xlink:href="#GradientFill_3"/><linearGradient id="GradientFill_6-2" x1="136.37" y1="258.42" x2="201.28" y2="258.42" xlink:href="#GradientFill_6"/><linearGradient id="GradientFill_3-3" x1="129.06" y1="214.46" x2="187.02" y2="214.46" xlink:href="#GradientFill_3"/><linearGradient id="GradientFill_6-3" x1="129.12" y1="213.23" x2="187.02" y2="213.23" xlink:href="#GradientFill_6"/><linearGradient id="GradientFill_14" x1="270.34" y1="201.3" x2="270.34" y2="234.42" gradientUnits="userSpaceOnUse"><stop offset="0" stop-color="#bca683"/><stop offset="1" stop-color="#e7d0b0"/></linearGradient><linearGradient id="GradientFill_15" x1="270.35" y1="201.3" x2="270.35" y2="231.64" gradientUnits="userSpaceOnUse"><stop offset="0" stop-color="#a68d6e"/><stop offset="1" stop-color="#c0a98c"/></linearGradient><linearGradient id="GradientFill_16" x1="129.38" y1="175.76" x2="245.38" y2="175.76" gradientUnits="userSpaceOnUse"><stop offset="0" stop-color="#d6ca5c"/><stop offset="1" stop-color="#fff584"/></linearGradient><linearGradient id="GradientFill_10-2" x1="345.29" y1="175.6" x2="238.41" y2="175.6" xlink:href="#GradientFill_10"/><linearGradient id="GradientFill_11-2" x1="344.55" y1="177.3" x2="238.5" y2="177.3" xlink:href="#GradientFill_11"/><linearGradient id="GradientFill_17" x1="135.23" y1="176.95" x2="231.65" y2="176.95" gradientUnits="userSpaceOnUse"><stop offset="0" stop-color="#919f61"/><stop offset="1" stop-color="#acbb72"/></linearGradient><linearGradient id="GradientFill_3-4" x1="144.8" y1="129.1" x2="312.47" y2="129.1" xlink:href="#GradientFill_3"/><linearGradient id="GradientFill_6-4" x1="149.83" y1="124.51" x2="307.19" y2="124.51" xlink:href="#GradientFill_6"/><linearGradient id="GradientFill_19" x1="306.26" y1="127.9" x2="140.5" y2="127.9" gradientUnits="userSpaceOnUse"><stop offset="0" stop-color="#008dcf"/><stop offset="1" stop-color="#0073ad"/></linearGradient><linearGradient id="GradientFill_10-3" x1="371.86" y1="129.33" x2="302.76" y2="129.33" xlink:href="#GradientFill_10"/><linearGradient id="GradientFill_11-3" x1="371.86" y1="126.07" x2="302.76" y2="126.07" xlink:href="#GradientFill_11"/><linearGradient id="GradientFill_20" x1="177.7" y1="103.65" x2="177.7" y2="48.02" gradientUnits="userSpaceOnUse"><stop offset="0" stop-color="#cb7b32"/><stop offset="1" stop-color="#f9a64a"/></linearGradient><linearGradient id="GradientFill_10-4" x1="346.17" y1="75.44" x2="202.22" y2="75.44" xlink:href="#GradientFill_10"/><linearGradient id="GradientFill_11-4" x1="352.83" y1="74.29" x2="192.97" y2="74.29" xlink:href="#GradientFill_11"/></defs><path class="cls-1" d="M386.31,293.8l-100.53-23-162.15,2.49h0l.62,9.34,4.19,2c.32.69.63,1.44.93,2.26h0A36.16,36.16,0,0,1,131,293c.11.62.21,1.26.29,1.92a31.12,31.12,0,0,1,0,7.59c-.08.6-.18,1.2-.29,1.8a26.84,26.84,0,0,1-1.2,4.23l-6.13.19-2.18,7.16L183.7,352l46.92-3.8h0l4.32-.35,114.85-9.31,3.59-.29h0l33.86-2.74C397,326.17,396,302.17,386.31,293.8Z"/><path class="cls-2" d="M201.77,293.77c60.13-3.7,119.92-5.88,181-9.08a20.93,20.93,0,0,1,5.53,8.53c-28.86,2.24-135,8.81-162.77,11.09-9.21-6.43-22.25-9.56-22.25-9.56Z"/><path class="cls-3" d="M294.46,288.93a52.87,52.87,0,0,1,3.64,10.37l-9.73.64a41.43,41.43,0,0,0-4.54-10.52Z"/><path class="cls-3" d="M234.4,291.9a59.18,59.18,0,0,1,4.07,11.43l-9.72.72a46.85,46.85,0,0,0-4.93-11.57Z"/><path class="cls-3" d="M346.81,286.48a48,48,0,0,1,4.06,9.35l-9.92.66a37.22,37.22,0,0,0-5.29-9.48Z"/><path class="cls-4" d="M370.1,242.83l-71.93-15.61-160.57.92c0,.93,0,1.83.07,2.7l2,3.41L188,247.83l6.48.43Z"/><path class="cls-5" d="M137.61,228.68l56.88,19.59-.09,15.53c-18.45-8-35.86-15.9-54.31-23.85C138.11,239.1,137.72,234.26,137.61,228.68Z"/><path class="cls-6" d="M138.11,235.82l13.47,6.44-10.94-2.07-.55-.24c-1-.44-1.63-2-2-4.13Zm56.32,22-15.26-4,15.25,6.7Z"/><polygon class="cls-7" points="277.68 154.44 316.63 168 344.48 164.64 345.43 150.27 285.51 152.87 277.68 154.44"/><polygon class="cls-8" points="345.03 156.39 319.51 159.68 344.81 159.68 345.03 156.39"/><polygon class="cls-9" points="294.65 214.21 279.89 214.89 293.18 215.09 294.65 214.21"/><polygon class="cls-10" points="120.09 299.63 135.18 299.17 188.25 331.84 177.04 337.13 120.86 303.52 120.09 299.63"/><path class="cls-11" d="M123.74,273.26c2.57,4.36,6.93,16.18,2,27.54L182,330.91s9.34-16.65-.93-31l-50.73-23.65Z"/><polygon class="cls-10" points="184.1 298.17 382.76 284.69 282.24 261.66 120.09 264.15 121.8 266.51 184.1 298.17"/><path class="cls-12" d="M123.74,273.26l.1.15,0,0v0l.05.08,0,.09,0,0,0,.05.1.18.12.24,0,0,0,.09,0,.1v0l0,.07,0,.09,0,.1,0,.1,0,.1,0,.07v0l.1.2h0l0,0,0,.07,0,.11.05.11,0,.11,0,.11,0,.07v0l0,.12.05.12,0,0h0l.13.31.14.33v0l.1.25,0,0,.13.35.1.26,0,.09,0,.05.1.27v0l0,.09.1.28h0l.12.36v0l0,0,.09.29,0,.05.12.39.11.4,0,.05.21.76c14.75,6.82,30.22,14.55,51.51,24.77a20.7,20.7,0,0,1,2.25,7.07l-26.24-13.25,26.61,16.71a52.08,52.08,0,0,1,0,5.86l-15.08-7.48L180.66,325a45.66,45.66,0,0,1-.81,4.8l2.17,1.16h0v0h0v0h0v0l0,0v0h0v0l0,0,0,0h0l0,0,0,0,0,0h0l0,0,0,0,0,0,0,0h0l0-.05,0,0,0-.05h0l0-.05,0-.05,0-.06v0l0,0,0-.06,0-.06,0-.07h0l0-.06,0-.07,0-.07v0l0,0,0-.07,0-.08,0-.06h0l0-.08,0-.08,0-.08v0l0-.07,0-.08,0-.09,0-.08,0-.09,0-.09h0l.07-.18,0-.1.08-.19,0-.1,0-.1,0-.09h0l0-.11,0-.1,0-.11v0l0-.08,0-.11.05-.11c.33-.92.68-2,1-3.15l0-.09.07-.28,0-.19v0l.07-.3v0l0-.15.08-.35,0-.07h0l0-.11.07-.29,0-.19.08-.41,0-.17.08-.43v-.06l.08-.48v-.07l.08-.49,0-.13.06-.47V319l.06-.47v-.07c0-.16,0-.33.05-.5l0-.17,0-.47v-.13l0-.5v0c0-.17,0-.35,0-.52V316c0-.17,0-.33,0-.5v-.71c0-.18,0-.36,0-.54v-.15c0-.17,0-.35,0-.52v-.17c0-.15,0-.31,0-.46v-.09h0v-.05c0-.18,0-.36-.05-.54v-.11c0-.19,0-.38-.07-.57l0-.12c0-.19-.05-.39-.08-.58v0c0-.19-.06-.38-.1-.56l0-.13c0-.18-.07-.37-.11-.56l0-.14c0-.2-.09-.39-.13-.59l0-.05c0-.19-.09-.39-.15-.58l0-.1c0-.19-.11-.38-.17-.57l0-.16c-.06-.19-.12-.38-.19-.57l0-.09-.2-.57,0-.07c-.07-.2-.15-.4-.23-.6l0-.13c-.08-.2-.16-.4-.25-.6l0-.07c-.08-.19-.16-.37-.25-.55l-.05-.12-.28-.57-.07-.14-.31-.58-.06-.12-.32-.56,0,0,0,0c-.11-.2-.23-.4-.36-.59l-.07-.12c-.12-.19-.24-.38-.37-.57l-.09-.14-.41-.59-50.73-23.65-6.62-3Zm61.86,46.33.06-.47-.06.47Zm.05-8.17-.08-.58c0,.19.06.39.08.58ZM127.77,286.1q-.13-1.29-.36-2.49l8.39,5.6-8-3.11Zm0,6.87,13.94,7.44-14.38-4.75C127.53,294.76,127.68,293.86,127.78,293Z"/><path class="cls-13" d="M183.09,295c66.45-4.46,132.29-6.75,199.67-10.28,9.66,8.37,10.74,32.37.94,41.71L180.15,342.89C184.17,326.17,187.43,312.65,183.09,295Z"/><path class="cls-14" d="M183.27,295s14.62,25.52-3.12,47.93l-62.24-36.1,2.18-7.16L178,332.31s7.78-12.76,1.55-30.19l-58.82-28.63-.62-9.34Z"/><path class="cls-15" d="M294.46,288.93a56.17,56.17,0,0,1,5.25,23.29,65.4,65.4,0,0,1-3.33,21.25l-10.52.86a56.68,56.68,0,0,0,4.25-22,45,45,0,0,0-6.28-22.92Z"/><path class="cls-16" d="M234.4,291.9a63.07,63.07,0,0,1,5.95,26.72,66.7,66.7,0,0,1-2.85,19.62l-10.42.85a57,57,0,0,0,3.68-20.43,51.68,51.68,0,0,0-6.94-26.18Z"/><path class="cls-17" d="M346.81,286.48a48.73,48.73,0,0,1,6.29,23.32,54.81,54.81,0,0,1-3.26,19.34l-10.7.87A46.61,46.61,0,0,0,343.51,310,38.51,38.51,0,0,0,335.66,287Z"/><polygon class="cls-18" points="201.17 258.21 387.92 248.72 389.59 247.06 298.17 227.22 136.09 228.15 139.69 234.25 201.17 258.21"/><polygon class="cls-19" points="200.86 250.47 196.38 256.04 196.03 289.23 201.48 296.02 390.52 286.73 389.59 247.06 200.86 250.47"/><path class="cls-20" d="M389.75,253.65l-25.26,2.09,25.32.79-.06-2.88Zm-189.07,24,48.21,0-49,4.4.81-4.36Zm-.3-18.05,68.66.81-69.42,3.17.76-4ZM390,264l-136.45,6,136.57-.91L390,264Zm.32,13.77L311.8,283l78.59-1.78Z"/><polygon class="cls-21" points="200.86 250.47 201.35 286.73 201.48 296.02 137.64 266.58 136.09 228.15 200.86 250.47"/><path class="cls-22" d="M136.37,235l15.21,7.27-15-2.84-.17-4.43Zm64.91,46.86L166,266.58l35.24,11.05.05,4.22Zm-63.8-19.12,26.19,10.21-26.32-13.53.13,3.32Zm-.67-16.81,35.69,15.55L137,250.86l-.19-4.94ZM201,259.57l-21.81-5.69L201,263.49Z"/><polygon class="cls-23" points="361.9 233.83 355.31 230.98 137.59 206.74 136.24 191.11 124.69 198.59 127.57 224.4 185.83 240.37 359.08 236.29 361.9 233.83"/><path class="cls-24" d="M187,205.55l-50.44-11c-8.87-1.92-11.11,22.27,0,26.24,9.51,3.39,46.7,13.58,46.7,13.58l.89-1.23Z"/><path class="cls-25" d="M187,205.55l-50.44-11c-4.3-.93-7,4.27-7.46,10.32,2.61-5.95,4.72-7.15,10.51-5.32,10.7,3.4,38.66,11.26,43.2,12.59l4.19-6.64Zm-3.36,10.73-.51,3.58-46.06-16.11,46.57,12.53Zm-.68,7.33-25.24-5.71L183,226.16v-2.55Zm.25,6.47-40.36-11.59L183.49,232Z"/><path class="cls-26" d="M359.25,201.3a45.58,45.58,0,0,0-1.7,31.08l-174.27,2c-2-6.3-3.65-18.53,2.38-29.63Z"/><polygon class="cls-27" points="134.28 188.11 316.61 187.72 362.77 195.62 358.4 200.28 183.11 203 134.88 191.79 134.28 188.11"/><path class="cls-28" d="M359.25,201.3h0v0h0v.09l0,0v0h0l0,.05,0,0h0l0,0,0,0,0,0v0l0,.07,0,.06h0l0,.07,0,.07v0l0,0,0,.08,0,.05v0l0,.08,0,.09h0l0,.08,0,.1v0l0,.06,0,.1,0,.08v0l0,.11-.05.11v0l0,.09,0,.12,0,.06,0,.06-.05.12,0,.12h0l-.09.25h0v0l0,.1-.05.14,0,.09,0,0,0,.15,0,.14h0l-.05.14-.05.15,0,.07,0,.09-.05.15,0,.13v0l-.05.17-.05.16v0l-.09.29,0,.09,0,.08-.05.18,0,.15v0l0,.18,0,.19,0,0,0,.13c-.07.25-.14.51-.2.77-62.56,1.35-118.62,2.75-174.24,4.12a34.24,34.24,0,0,1,1.65-4.74h0v0l.23-.5h0v0l.48-1v0h0l.23-.45,0-.05h0l.27-.51,173.59-3.49Zm-177.8,22,120.39,0-120.25,2.5c-.07-.8-.11-1.61-.14-2.45Zm.68,6.51,68.41-.1-68,2c-.14-.6-.27-1.22-.39-1.87Zm-.19-14,37.86,2.3-38.26,1.19c.08-1.14.21-2.31.4-3.49Zm174.33-4.43-76.34,3.51,75.77,1.17c.12-1.67.32-3.24.57-4.68Zm-.29,14L304.89,227l51.59,1.29C356.28,227.26,356.11,226.3,356,225.34Z"/><polygon class="cls-29" points="182.94 236.63 361.92 233.83 365.19 241.98 183.96 246.48 181.2 243.99 181.1 238.38 182.94 236.63"/><polygon class="cls-30" points="185.49 198.59 362.77 195.62 361.11 203.93 182.78 207.76 181.08 203.34 182.93 199.66 185.49 198.59"/><path class="cls-31" d="M184,246.48l-50.78-17.32s-12.57-4.08-12.57-20.38,8.32-22.08,16.47-20.39,48.41,10.2,48.41,10.2l-2.72,9.17-47.89-12.57c-2.75-.72-8,2-8,12.57s5.61,15.28,9.35,16,46.7,12.91,46.7,12.91Z"/><polygon class="cls-32" points="249.77 210.52 250.9 207.25 303.02 208.86 303.1 209.25 279.59 223.05 249.77 210.52"/><polygon class="cls-33" points="219.06 187.93 316.61 187.72 338.23 191.41 314.81 196.43 307.7 201.07 240.57 202.11 228.48 197.73 219.06 187.93"/><path class="cls-9" d="M303.1,209.25l-53.33,1.27-10.21-4L311.61,205Z"/><polygon class="cls-34" points="228.83 197.86 314.85 196.42 301.35 205.22 252.06 206.27 228.83 197.86"/><polygon class="cls-35" points="129.38 152.87 218.44 149.18 345.29 152.56 339.17 155.9 245.38 162.08 133.37 156.25 129.38 152.87"/><polygon class="cls-36" points="129.38 152.87 130.6 190.04 238.41 198.64 243.88 193.1 245.38 162.08 239.02 157.17 129.38 152.87"/><polygon class="cls-37" points="345.29 152.56 342.83 189.12 238.41 198.64 239.02 157.17 345.29 152.56"/><path class="cls-38" d="M238.92,163.88l61.18-1.45-61.24,5.33.06-3.88ZM343.71,176l-35.08,2.75,34.92-.32.16-2.43Zm.6-8.85-12.63,2.11,12.46.41.17-2.52Zm-105.57,9.29,44.51-2.07-44.57,5.84.06-3.77Zm-.16,10.34,84.9-3.87-85,9.26Z"/><path class="cls-39" d="M231.65,156.88,230.44,198l-16.72-1.33.24-40.48,17.69.69Zm-96.42,4,.29,22.5,24.28,1.48-.59-23.09-24-.89Zm75.74-4.8-.74,40.32-3.92-.31.25-40.18Z"/><path class="cls-40" d="M144.8,147.64c6.85-16.19,6.54-30.6,0-40.11l162.1,1s12.1,15.76.63,42.19l-105.72-1.12Z"/><path class="cls-41" d="M302,106.56l-159.25-4.9-2.24-1.77,50.63-1.6c54.08.75,105.31,1.09,159.71,4.38l-24,1Z"/><path class="cls-42" d="M147.65,112.94a26.53,26.53,0,0,0-2.85-5.41l162.1,1s4,5,5.32,8l-164.57-3.5Zm1.82,17.95,67.3,3.06-68,.92c.27-1.35.49-2.67.65-4Zm159.8-3-61.45.89,61.62,3.2-.17-4.09Zm1.13,9.94L274.25,139l35.19,2.55a19,19,0,0,0,1-3.66ZM309,119.31l-21.18,1.43L309.13,122l-.16-2.7Zm-159.6.08,98.61,3.1-98.17,2.17A35.9,35.9,0,0,0,149.37,119.39Z"/><path class="cls-43" d="M304.51,145.89,142.42,143l-1.92,9.71,162.58,3.18,3.18-1.91-.4-5.1-1.35-3Zm-3-43.3-161-2.7,1.91,9.39,161.45,3.18,1.92-2.7-1.48-5.42Z"/><path class="cls-44" d="M302.76,107.53s46.65-.17,53,1.11,16.08,8.91,16.08,20.85-9.39,18.79-17.67,20.06-49.36,1.59-49.36,1.59S313.11,127.42,302.76,107.53Z"/><path class="cls-45" d="M302.76,107.53s46.65-.17,53,1.11,16.08,8.91,16.08,20.85-11.14,13.85-19.43,15.13c5.55-2.39,8.44-6.29,9.53-10.36l-34.07-.45,34.5-1.86a16.32,16.32,0,0,0-.18-4.75c-.08-.4-.17-.8-.27-1.19l-21.79-2,20.53-1.31c-2.5-4.91-7.28-8.38-11.86-8.37-13.76.06-34.24,1.37-42.66,1.93-.11-.4-.22-.79-.34-1.19h0c-.1-.31-.19-.62-.3-.93v0l0-.06c-.1-.3-.19-.59-.3-.88v0l-.33-.93h0c-.11-.3-.23-.6-.35-.9v-.07c-.25-.61-.52-1.23-.8-1.85v0c-.14-.3-.28-.61-.43-.91h0l-.47-.93Zm4.13,11.92c.17.82.31,1.64.44,2.45l41.37-2.52-41.81.07Zm.67,18.48c-.13,1.2-.28,2.33-.45,3.4L340.47,139l-32.91-1.07Zm.34-10c.06,1.36.07,2.7.05,4l17.27-2.43Z"/><path class="cls-46" d="M301.48,102.59c14.81-.58,38.77.13,46.82,0s24,3.14,26.75,20.85c3.25,20.93-12,28.42-20.7,29.14-9.56.79-51.28,3.34-51.28,3.34l1.44-10,48.4-2.39c16.67-.82,17.16-31.6-4.77-32.47-8.91-.36-44.27,1.43-44.27,1.43Z"/><path class="cls-47" d="M210.72,48c-16.15,1-32.3,1.08-48.45,2.09-24,2.91-23.2,47.47,1.09,50.17,14.64.4,45.93,2,45.93,2s-14.78-8.22-16.12-21.08S195.66,56.06,210.72,48Z"/><path class="cls-48" d="M352.83,57.79a47.84,47.84,0,0,0,1.34,37.61L209.09,97.89s-13.43-4.6-14.77-21.3S204.87,53,210.82,53,352.83,57.79,352.83,57.79Z"/><path class="cls-49" d="M352.83,57.79a38.82,38.82,0,0,0-2.28,7.77c-47.41-.87-125.76-2.36-139.28-2.43a8.63,8.63,0,0,0-6.89,3.41L241,67.77l-38.37,1.78a19.46,19.46,0,0,0-1.47,8.4l74.76.76-74.3,3a22.2,22.2,0,0,0,2.06,5.85l50.94,1.12-49.34,1.51a21.67,21.67,0,0,0,5.59,5.4s-15.16-2.3-16.5-19S204.87,53,210.82,53s142,4.8,142,4.8Zm-3,12.91L286.24,72l63.37,2.76c0-1.41.09-2.77.2-4Zm.34,11.6-28.22,1,28.92,2.63C350.56,84.7,350.33,83.49,350.15,82.3Z"/><path class="cls-50" d="M357.62,49.54,211,48c-28.91-.3-31.48,53.87-.76,54.31,13.43.19,150.64-.19,150.64-.19l-.77-9L212.36,94.25c-8.34.06-14.15-9.6-14.34-19-.16-8.56,4.44-16.89,14.14-17.46,3.26-.19,125.91,2,144.89,2.11Z"/></svg>