<svg id="Layer_1" data-name="Layer 1" xmlns="http://www.w3.org/2000/svg" xmlns:xlink="http://www.w3.org/1999/xlink" width="619.88" height="562.43" viewBox="0 0 619.88 562.43">
  <defs>
    <style>
      .cls-1, .cls-31 {
        fill: none;
      }

      .cls-2, .cls-47, .cls-50 {
        fill: #fff;
      }

      .cls-3 {
        clip-path: url(#clip-path);
      }

      .cls-4 {
        clip-path: url(#clip-path-2);
      }

      .cls-5 {
        fill: #f8e2b9;
      }

      .cls-6 {
        fill: #c3b6a2;
      }

      .cls-7 {
        fill: #88d1d1;
      }

      .cls-8 {
        fill: #a19687;
      }

      .cls-9 {
        fill: #cca96a;
      }

      .cls-10 {
        fill: #8c663d;
      }

      .cls-11 {
        fill: #a56f41;
      }

      .cls-12 {
        fill: #020202;
        stroke: #201d1e;
        opacity: 0.2;
      }

      .cls-12, .cls-17, .cls-20, .cls-21, .cls-22, .cls-23, .cls-24, .cls-25, .cls-26, .cls-27, .cls-29, .cls-31, .cls-33, .cls-35, .cls-37, .cls-44, .cls-47, .cls-49, .cls-50 {
        stroke-miterlimit: 10;
      }

      .cls-13 {
        fill: #bf79b2;
        stroke: #6f287a;
      }

      .cls-13, .cls-14, .cls-15, .cls-16 {
        stroke-linejoin: round;
        stroke-width: 0.75px;
      }

      .cls-14, .cls-34 {
        fill: #df71e2;
      }

      .cls-14 {
        stroke: #710e7c;
      }

      .cls-15 {
        fill: #686c71;
        stroke: #211f1c;
      }

      .cls-16 {
        fill: #301616;
        stroke: #1c0e0a;
      }

      .cls-17 {
        fill: #d8b2a8;
      }

      .cls-17, .cls-49 {
        stroke: #323232;
      }

      .cls-17, .cls-20, .cls-22, .cls-33, .cls-37, .cls-44 {
        stroke-width: 0.5px;
      }

      .cls-18, .cls-21 {
        fill: #4c2d1d;
      }

      .cls-19 {
        fill: #342517;
      }

      .cls-20, .cls-35, .cls-41 {
        fill: #f6d7cf;
      }

      .cls-20, .cls-35 {
        stroke: #7f451d;
      }

      .cls-21, .cls-23, .cls-24, .cls-25, .cls-26, .cls-27, .cls-29, .cls-31 {
        stroke: #593129;
      }

      .cls-21, .cls-23, .cls-24, .cls-25, .cls-26, .cls-27, .cls-29, .cls-31, .cls-35, .cls-47, .cls-49, .cls-50 {
        stroke-width: 0.25px;
      }

      .cls-22 {
        fill: #62445b;
      }

      .cls-22, .cls-33 {
        stroke: #1d111b;
      }

      .cls-23 {
        fill: #65c8f2;
      }

      .cls-24 {
        fill: #fce065;
      }

      .cls-25 {
        fill: #5d1122;
      }

      .cls-26, .cls-32 {
        fill: #f6f1f2;
      }

      .cls-27, .cls-28 {
        fill: #ed7273;
      }

      .cls-29 {
        fill: #cc8b7f;
      }

      .cls-30 {
        fill: #271717;
      }

      .cls-33 {
        fill: #54394f;
      }

      .cls-36 {
        fill: #593129;
      }

      .cls-37, .cls-38 {
        fill: #c49ac6;
      }

      .cls-37 {
        stroke: #453423;
      }

      .cls-39 {
        fill: #eeb1a3;
      }

      .cls-40 {
        fill: #e5b8b0;
      }

      .cls-42 {
        fill: #7f451d;
      }

      .cls-43 {
        fill: #e7b5ab;
      }

      .cls-44 {
        fill: #e7d760;
        stroke: #baa63c;
      }

      .cls-45 {
        fill: #a45926;
      }

      .cls-46 {
        fill: #ef4b3b;
      }

      .cls-47 {
        stroke: #383838;
      }

      .cls-48 {
        fill: #3d2e18;
      }

      .cls-49 {
        fill: #db9d8e;
      }

      .cls-50 {
        stroke: #302f2e;
      }

      .cls-51 {
        fill: #8c3d35;
      }

      .cls-52 {
        fill: #d26653;
      }

      .cls-53 {
        fill: #f9988f;
      }

      .cls-54 {
        fill: #2d1708;
      }

      .cls-55 {
        fill: #c07943;
      }

      .cls-56 {
        fill: #89513a;
      }

      .cls-57 {
        opacity: 0.12;
      }

      .cls-58 {
        fill: #d28047;
      }

      .cls-59 {
        fill: #e79a49;
      }

      .cls-60 {
        fill: #e4b06b;
      }

      .cls-61 {
        fill: #8f83a3;
      }

      .cls-61, .cls-62, .cls-63, .cls-64, .cls-65 {
        fill-rule: evenodd;
      }

      .cls-62 {
        fill: #e9dddc;
      }

      .cls-63 {
        fill: #f4f5f4;
      }

      .cls-64 {
        fill: #b7adc3;
      }

      .cls-65 {
        fill: #6d6482;
      }

      .cls-66 {
        fill: #009196;
      }

      .cls-67 {
        fill: #cacac9;
      }

      .cls-68 {
        fill: #dfdfde;
      }

      .cls-69 {
        fill: #d3d4d4;
      }

      .cls-70 {
        fill: #efeded;
      }

      .cls-71 {
        fill: #cbe9e8;
      }

      .cls-72 {
        opacity: 0.17;
      }

      .cls-73 {
        fill: #0c6479;
      }

      .cls-74 {
        fill: #1986a1;
      }

      .cls-75 {
        fill: #d5d4d4;
      }

      .cls-76 {
        fill: #f5f6f6;
      }

      .cls-77 {
        fill: #b3b3b4;
      }

      .cls-78 {
        fill: #c2d9e3;
      }

      .cls-79 {
        fill: #024866;
        opacity: 0.11;
      }

      .cls-80 {
        fill: #f06f79;
      }

      .cls-81 {
        fill: #a7352f;
      }

      .cls-82 {
        fill: #9ed5c1;
      }

      .cls-83 {
        fill: #408abc;
      }

      .cls-84 {
        fill: #f0cec2;
      }

      .cls-85 {
        fill: #161616;
      }

      .cls-86 {
        fill: #ce5b9f;
      }

      .cls-87 {
        fill: #6a68ae;
      }
    </style>
    <clipPath id="clip-path">
      <rect class="cls-1" x="40.17" y="56.13" width="539.79" height="449.82" rx="116.93"/>
    </clipPath>
    <clipPath id="clip-path-2">
      <rect class="cls-1" x="-417.53" y="20.09" width="1433.2" height="806.18"/>
    </clipPath>
  </defs>
  <g>
    <rect class="cls-2" x="30.65" y="47.2" width="558.58" height="468.03" rx="124.49"/>
    <g class="cls-3">
      <g class="cls-4">
        <g>
          <path class="cls-5" d="M-568.56,427.48c-2.23,44.35-4.52,89,2.33,133.19a47.7,47.7,0,0,1,2.86,14H1348c-.76-14-1.31-28-1.76-42-.78-24.79-1.47-49.6-3-74.38l-214.5-101.83h-1526l-170.24,49.71Q-568,416.83-568.56,427.48Z"/>
          <path class="cls-6" d="M1471.93,928.19c-1-87.11-1.9-174.25-4.17-261.28-2-75.13-4.53-150.11-6.07-225.25L1392,352.47l-2089.29-.18-54.53,254.28,29.16,448H1473.86Q1472.63,991.44,1471.93,928.19Z"/>
          <polygon class="cls-7" points="-531.49 -381.76 -532.49 378.01 1188.94 375.56 1192.89 -381.3 -531.49 -381.76"/>
          <path class="cls-8" d="M-641.89,498.83H1305.36l-3.36-2.14-1943.8-.59Z"/>
          <path class="cls-8" d="M-639.4,418.65H1191.36l-3.42-1.93-1827.28-.8Z"/>
          <path class="cls-8" d="M-14.11,910.36,135.63,371.85l-2.8-1L-19.53,910.44Z"/>
          <path class="cls-8" d="M320.31,1172.89l10.78-825.1-3.85,2.36-13.49,823.26Z"/>
          <path class="cls-8" d="M711.35,1171,552.89,361.27l-3.48-1.87L704.13,1171Z"/>
          <polygon class="cls-9" points="-548.5 380.52 1176.52 377.62 1182.75 356.79 -542.29 359.69 -548.5 380.52"/>
          <rect class="cls-1" x="-523.14" y="-370.76" width="1680.64" height="945.36"/>
          <rect class="cls-1" x="-527.93" y="-365.68" width="1680.64" height="945.36"/>
        </g>
      </g>
      <g>
        <g>
          <rect class="cls-10" x="355.84" y="243.54" width="99.06" height="84.08"/>
          <path class="cls-11" d="M356.68,329v-88.3h-6.43a9.58,9.58,0,0,0-9.58,9.59V329Z"/>
          <path class="cls-11" d="M454,329v-88.3h6.43a9.59,9.59,0,0,1,9.59,9.59V329Z"/>
        </g>
        <g>
          <rect class="cls-10" x="161.22" y="243.54" width="99.06" height="84.08"/>
          <path class="cls-11" d="M162.07,329v-88.3h-6.43a9.59,9.59,0,0,0-9.59,9.59V329Z"/>
          <path class="cls-11" d="M259.34,329v-88.3h6.43a9.59,9.59,0,0,1,9.59,9.59V329Z"/>
        </g>
      </g>
      <ellipse class="cls-12" cx="416.48" cy="486.95" rx="46.01" ry="10.33"/>
      <g>
        <path class="cls-13" d="M423.35,432.31c1.31,14.26,2.53,27.29,3.26,36h13.07c.36-8.85,1.11-22,1.92-36a9.22,9.22,0,0,0-9.09-9.86h-.66A8.84,8.84,0,0,0,423.35,432.31Z"/>
        <g>
          <path class="cls-14" d="M425.61,470.61c0,.39,15.12.65,15.16.17.34-4.13.91-12.94,1.1-15.32l-16.8.17C425.25,460.09,425.49,467.79,425.61,470.61Z"/>
          <path class="cls-15" d="M450.05,492.25c4,0,7.31-1.09,8.15-3.14a12.45,12.45,0,0,0,.05-3.67,7.68,7.68,0,0,0-2.76-3.87,9.73,9.73,0,0,1-12.25,5.83c-6.88-1.95-18.21-8.41-18.87-9.08,0,0,0,3.3.41,3.54,5.26,3.28,15.48,8.44,15.62,8.5A26.87,26.87,0,0,0,450.05,492.25Z"/>
          <path class="cls-16" d="M425.29,467.73c.5.15,2.06,2.18,7.65,2.83.47.05,0-2.51.45-2.78.83-.47,9.18-.75,9.68-.5s.59.82,1,3.09c.44,1.25,13.26,11,14,14.68.38,2-1.27,3.61-4.72,4.13a23.05,23.05,0,0,1-11.94-1.38c-1.75-.67-16.15-8.43-17-9.33s.17-8.39.23-10.45C424.58,467.74,425,467.64,425.29,467.73Z"/>
        </g>
      </g>
      <ellipse class="cls-12" cx="208.37" cy="478.36" rx="43.15" ry="9.69"/>
      <g>
        <path class="cls-13" d="M214.82,427.11c1.23,13.37,2.37,25.59,3.05,33.77h12.25c.35-8.3,1-20.6,1.81-33.76a8.64,8.64,0,0,0-8.53-9.24h-.61A8.29,8.29,0,0,0,214.82,427.11Z"/>
        <g>
          <path class="cls-14" d="M216.93,463c0,.37,14.18.61,14.22.16.32-3.87.86-12.13,1-14.37l-15.76.17C216.59,453.16,216.82,460.39,216.93,463Z"/>
          <path class="cls-15" d="M239.85,483.33c3.72,0,6.86-1,7.64-2.95a11.58,11.58,0,0,0,.06-3.45,7.29,7.29,0,0,0-2.59-3.62,9.13,9.13,0,0,1-11.5,5.47c-6.44-1.83-17.07-7.89-17.69-8.52,0,0,0,3.1.38,3.32,4.94,3.08,14.52,7.92,14.65,8A25.15,25.15,0,0,0,239.85,483.33Z"/>
          <path class="cls-16" d="M216.64,460.33c.47.14,1.92,2,7.17,2.65.44,0,0-2.35.42-2.6.78-.45,8.61-.71,9.08-.48s.55.77.93,2.9c.41,1.18,12.44,10.36,13.1,13.77.35,1.86-1.19,3.39-4.43,3.88a21.65,21.65,0,0,1-11.19-1.3c-1.64-.62-15.15-7.91-16-8.75s.16-7.87.22-9.8C216,460.34,216.36,460.25,216.64,460.33Z"/>
        </g>
      </g>
      <g>
        <path class="cls-17" d="M204,427.11c-1.23,13.37-2.38,25.59-3.06,33.77H188.64c-.34-8.3-1-20.6-1.8-33.76a8.63,8.63,0,0,1,8.52-9.24H196A8.29,8.29,0,0,1,204,427.11Z"/>
        <g>
          <path class="cls-14" d="M201.43,463.05c0,.36-13.74.59-13.77.15-.31-3.79-.84-11.88-1-14.07l15.26.16C201.76,453.38,201.54,460.45,201.43,463.05Z"/>
          <path class="cls-15" d="M178.91,483.33c-3.72,0-6.85-1-7.64-2.95a11.66,11.66,0,0,1-.05-3.45,7.27,7.27,0,0,1,2.58-3.62,9.14,9.14,0,0,0,11.5,5.47c6.45-1.83,17.07-7.89,17.69-8.52,0,0,0,3.1-.38,3.32-4.94,3.08-14.52,7.92-14.65,8A25.15,25.15,0,0,1,178.91,483.33Z"/>
          <path class="cls-16" d="M202.13,460.33c-.47.14-1.93,2-7.17,2.65-.44,0,0-2.35-.43-2.6-.78-.45-8.6-.71-9.08-.48s-.55.77-.93,2.9c-.41,1.18-12.44,10.36-13.09,13.77-.36,1.86,1.19,3.39,4.42,3.88a21.7,21.7,0,0,0,11.2-1.3c1.64-.62,15.14-7.91,16-8.75s-.16-7.87-.22-9.8C202.79,460.34,202.41,460.25,202.13,460.33Z"/>
        </g>
      </g>
      <g>
        <path class="cls-17" d="M411.76,432.31c-1.31,14.26-2.53,27.29-3.26,36H395.44c-.37-8.85-1.12-22-1.92-36a9.21,9.21,0,0,1,9.09-9.86h.65A8.83,8.83,0,0,1,411.76,432.31Z"/>
        <g>
          <path class="cls-14" d="M409.08,470.63c0,.38-14.65.63-14.69.16-.33-4-.89-12.67-1.06-15l16.27.17C409.43,460.32,409.19,467.86,409.08,470.63Z"/>
          <path class="cls-15" d="M385.06,492.25c-4,0-7.3-1.09-8.14-3.14a12.37,12.37,0,0,1-.06-3.67,7.74,7.74,0,0,1,2.76-3.87,9.74,9.74,0,0,0,12.26,5.83c6.87-1.95,18.21-8.41,18.86-9.08,0,0,0,3.3-.4,3.54-5.27,3.28-15.49,8.44-15.62,8.5A26.93,26.93,0,0,1,385.06,492.25Z"/>
          <path class="cls-16" d="M409.82,467.73c-.5.15-2.05,2.18-7.64,2.83-.47.05,0-2.51-.45-2.78-.84-.47-9.18-.75-9.69-.5s-.59.82-1,3.09c-.44,1.25-13.27,11-14,14.68-.38,2,1.28,3.61,4.72,4.13a23.05,23.05,0,0,0,11.94-1.38c1.75-.67,16.15-8.43,17-9.33s-.17-8.39-.24-10.45C410.53,467.74,410.12,467.64,409.82,467.73Z"/>
        </g>
      </g>
      <g>
        <g>
          <path class="cls-18" d="M316.83,233a18.66,18.66,0,0,0-.19,3.32,10.83,10.83,0,0,0,.57,3.17,6.85,6.85,0,0,0,1.7,2.67,10.64,10.64,0,0,0,2.71,1.85,7,7,0,0,1-3.1-1.42,6.39,6.39,0,0,1-2-2.84,8.76,8.76,0,0,1-.45-3.43A9.88,9.88,0,0,1,316.83,233Z"/>
          <path class="cls-19" d="M376.36,155.52c-.58-.39-13.18-4.24-16.16,10.41s-.24,11.62-3.89,19.25c0,0-4.71,16.68-9.36,24.46s-6,17.85,8.54,21.11c0,0-3,5.61,11,9.23s15.87-5.86,15.87-5.86-40.71-16.6-6.23-63.74C376.15,170.38,379.58,157.73,376.36,155.52Z"/>
          <path class="cls-20" d="M364.06,244.19l-21.3,18.14-15.15-16.81a21.93,21.93,0,0,0-5.41-13.35,11.34,11.34,0,0,1-1.52-2c-2.17-3.57-3.73-6.71-4.25-10a.9.9,0,0,0-1.61-.41c-2.8,3.67-3.19,7.88,1.43,13.22a24.2,24.2,0,0,1-12.78,8.74l-14.09,3.92c-.53.06-1.6,1.25-.4,2l.29.14c-2.68,1.09,1.18,2.49,1.18,2.49-.6.6-.92,2.18,3.31,2.66,0,0-2.15,1.93,4.93,2.06l11.76.84a16,16,0,0,0,9.59-1.89s8.4,30.29,20.35,33.61l24.27-12.1Z"/>
          <g>
            <path class="cls-21" d="M289.13,248s12.92-1.48,14.32-2.82"/>
            <path class="cls-21" d="M290.11,250.33s14.53-2.16,16.06-3.41"/>
            <path class="cls-21" d="M293.57,252.88s11.28-1,12.52-2.13"/>
          </g>
          <path class="cls-14" d="M362.08,244.89l-20.42,16.69s.16,23.82,9.08,25.19l19.47-12.15Z"/>
          <path class="cls-19" d="M391,237.53s22.84-4.74,31.74-34.25L436,197.61S439.6,226,449.79,231c0,0-11.56,11.87-21.6,10.9l-3.06-5.13.35,5.35s-10.31,7.22-26.07,6.43S391,237.53,391,237.53Z"/>
          <path class="cls-22" d="M362,244.42s28.28-21.41,69.47-6.25c.7-1.82.64,34.43,21.13,86,4.77,7.9-62.11,33.15-86.46,7.1C366.16,331.29,365.93,276.23,362,244.42Z"/>
          <path class="cls-23" d="M378.17,236.58s-.58,18.17,17.76,14.88S412,233.37,412,233.37A76.84,76.84,0,0,0,378.17,236.58Z"/>
          <path class="cls-20" d="M440,242.43l28.76,40.91c3.54,6.13,4.61,9.43-4,15S443.1,309,423.23,312.48c-6.59,5.85-12.34,3.07-17.82-2.48-2.15-4-5.75-3.72-10.28-.65-2.09-.38-1.45-2.62,2.71-5.14-1.4,0-2.89-1.06-2-2.57-2.5-.57-.54-3.24-.54-3.24-1.25.72-5.88,3.22-6,1.11s7.06-7.67,10.58-8c2.18-.19,4.28-.83,5.79.7l9.06,9.2c14.09,0,22.56-13.71,29.23-15.3l-18.5-23.93S423.41,243.91,440,242.43Z"/>
          <path class="cls-20" d="M382.57,235.06s-1.89,20.09,12.85,20.09,11.87-25.2,11.91-24.75Z"/>
          <circle class="cls-24" cx="361.12" cy="206.89" r="3.09"/>
          <path class="cls-20" d="M432.87,204.24c-5-6.31-8.89-1.11-11.8.88,5-16.85,20.84-42-24-44.84-24.76-1.57-31.39,17.47-32.53,34.39-.67-5.68-6.36-8.42-6.95-3-.89,8.28,2.05,11.93,5.4,13.64.14.07.13,3.82.14,4.92.07,11.68,10.79,26,27.43,26,12.69,0,24.18-8.78,28.42-17.12,1.4,1.73,3.92,1.51,6.85.24C430.37,217.32,436.11,208.29,432.87,204.24Z"/>
          <g>
            <path class="cls-25" d="M376.27,213.91a74.48,74.48,0,0,0,18,3.26s-4.47,7.49-11.52,6.21S376.27,213.91,376.27,213.91Z"/>
            <path class="cls-26" d="M379.19,215.11s-.17.72,1.13,1.47c1.13.66,5.44,2,8.33,1.56,3.2-.54,2.71-1.08,2.71-1.08A76.39,76.39,0,0,1,378.73,215"/>
            <path class="cls-27" d="M378.39,220a3.45,3.45,0,0,1,4.36-.18s4-.71,4.95,2.84c0,0-5.48,3.3-9.31-2.66"/>
            <path class="cls-26" d="M378.58,219.81c-.73.24-.42.41-.21.73l.24.29a7,7,0,0,0,4.27,2.55A7.5,7.5,0,0,0,388,223s0-1.08-1.31-.86a7.89,7.89,0,0,1-6.59-1.41,2.76,2.76,0,0,0-1.3-.91"/>
            <path class="cls-28" d="M376.27,213.91s10.64,1.43,18,3.26C394.25,217.17,384.23,217.64,376.27,213.91Z"/>
            <path class="cls-28" d="M376.65,217.47s3.78,11.16,15.06,2.76C385.59,227.77,376.89,226.09,376.65,217.47Z"/>
          </g>
          <path class="cls-29" d="M427.86,206.44s-6.61,1.74-6.25,6a2.49,2.49,0,0,0,2.38,2.27,3.3,3.3,0,0,0,2.38-.67,1.66,1.66,0,0,0-1.45-2.85c-1.18.25-2.34.2-2.1-1.12C422.82,210,423.3,208.21,427.86,206.44Z"/>
          <path class="cls-21" d="M370.27,183.22s5.15-4.66,8.43-2.5c.26.17-.27,1.4,0,1.62s1.11-.73,1.11-.73a5.54,5.54,0,0,1-.48,1.41.81.81,0,0,1-1.1.22c-2.48-1.16-6.84.09-6.84.09C369.93,183.69,369.42,183.92,370.27,183.22Z"/>
          <path class="cls-21" d="M409.49,191.07s-3.75-7.42-8.36-6.42c-.36.08-.29,1.68-.68,1.82s-.93-1.29-.93-1.29a7.08,7.08,0,0,0-.07,1.78,1,1,0,0,0,1.14.72c3.27-.24,7.62,3,7.62,3C409.67,191.74,410.14,192.21,409.49,191.07Z"/>
          <path class="cls-26" d="M377.31,202a6.3,6.3,0,0,1-8.12-4.24,6.94,6.94,0,0,1,4.27-8.52,6.28,6.28,0,0,1,8.11,4.24,6.92,6.92,0,0,1-4.26,8.52"/>
          <path class="cls-30" d="M376.65,198.39a3.63,3.63,0,1,1-2.13-5,3.87,3.87,0,0,1,2.13,5"/>
          <path class="cls-26" d="M402.41,207.25a6.38,6.38,0,0,1-8.23-4.3,7,7,0,0,1,4.33-8.64,6.38,6.38,0,0,1,8.23,4.3,7,7,0,0,1-4.33,8.64"/>
          <path class="cls-31" d="M386.73,202.48c-.71,2.1-3.3,1.15-4.15,2.74-1.57,3.16,2.58,5.1,7.55,4.05"/>
          <path class="cls-14" d="M409,259.89v5.67l-28.25,1.55,1.14-2.86,5.2-7s4.24,6.34,10.67,0l.93-2.53Z"/>
          <path class="cls-19" d="M375.7,155.15s1.38,20.73,21.7,29.52c-.28.37-12.7-10.62-11.52-13.85,0,0,10.68,17,31.22,11.54,0,0,7.43,8.81-.64,25.23,0,0,5.07,1.49,7.36-2.54,8.47-8.45,11,6.8,11.61.1.82-9.5,10.28-33.49-12.33-46C401.63,147.24,382.58,147.91,375.7,155.15Z"/>
          <circle class="cls-24" cx="420.53" cy="222.57" r="3.09"/>
          <path class="cls-30" d="M399.1,199.78a3.67,3.67,0,0,0-4.52,2.57,3.81,3.81,0,0,0-.19,1,.56.56,0,0,1,.15.25,6.54,6.54,0,0,0,.44,1,17.72,17.72,0,0,0,2.18,2,8.3,8.3,0,0,0,1.06.57,3.85,3.85,0,0,0,3-2.65A3.71,3.71,0,0,0,399.1,199.78Z"/>
          <path class="cls-32" d="M400.31,199.12a1.28,1.28,0,0,1-1.65.76,1.3,1.3,0,0,1-.87-1.6,1.33,1.33,0,0,1,2.52.84"/>
          <path class="cls-32" d="M376.58,193.61a1.34,1.34,0,1,1-2.53-.85,1.35,1.35,0,0,1,1.7-.9,1.37,1.37,0,0,1,.83,1.75"/>
          <path class="cls-14" d="M460.34,266.1s-10.71,16.35-25.62,15.72c0,0-12.47-22.62-12.49-23.1s-4.5-17.5,10.91-21.39a5.54,5.54,0,0,1,5.47,1.63Z"/>
          <path class="cls-14" d="M407.52,231a68.88,68.88,0,0,1-12.89,22.73L409,259.89a58,58,0,0,0,5.42-29.2C412.55,228.84,410.4,228.79,407.52,231Z"/>
          <path class="cls-14" d="M382.11,235.42a21.35,21.35,0,0,0,1,8.2,21.9,21.9,0,0,0,6.72,9.85l-8,10.78c-.45-.58-1-1.31-1.53-2.17a33.83,33.83,0,0,1-4.64-25.91l.64-2.92Z"/>
          <path class="cls-33" d="M396.33,252.17c-.72-.3-3.23-2.32-8.33-.39s1.28,8.22,1.28,8.22h5.61S402.36,254.68,396.33,252.17Z"/>
          <path class="cls-34" d="M367.26,241.06a13.43,13.43,0,0,0-5.24,3.36,13.17,13.17,0,0,0-.88,1c.42,4.85,2.24,28.32,2.65,33.17l5.18-2.88-1.89-30.86Z"/>
          <path class="cls-35" d="M369.14,194a7,7,0,0,1,7-5,6.27,6.27,0,0,1,5.67,6.94,8.45,8.45,0,0,0-2.9-3.47,7.19,7.19,0,0,0-4.6-1.44A7.31,7.31,0,0,0,369.14,194Z"/>
          <path class="cls-35" d="M394.36,198.75a7,7,0,0,1,7-5,6.41,6.41,0,0,1,4.94,3.24,6.49,6.49,0,0,1,.73,3.7,8.58,8.58,0,0,0-2.91-3.47,7.17,7.17,0,0,0-4.6-1.44A7.34,7.34,0,0,0,394.36,198.75Z"/>
        </g>
        <g>
          <path class="cls-20" d="M255.53,280.17s5.15,13,5.15,13.59,8.45,35.15,8.45,35.15l-12.29.81-5.44-.81s-4.27-26.2-10-31.08C253.55,280.34,255.53,280.17,255.53,280.17Z"/>
          <path class="cls-14" d="M250.83,251.31l9.85,33.06s-9.07,14.69-18,16.05V280.91Z"/>
          <path class="cls-36" d="M223.2,296a6.91,6.91,0,0,0-1.13-.78c-.4-.21-.8-.4-1.22-.57-.84-.34-1.71-.58-2.61-.87.23,0,.47,0,.71,0l.71.07a6.13,6.13,0,0,1,1.38.37,5.25,5.25,0,0,1,1.24.71A3,3,0,0,1,223.2,296Z"/>
          <path class="cls-36" d="M222.22,298.46a22.09,22.09,0,0,0-2.34-.86c-.39-.12-.79-.22-1.19-.32s-.82-.16-1.24-.27a5,5,0,0,1,2.57.11,5.09,5.09,0,0,1,1.19.53A4,4,0,0,1,222.22,298.46Z"/>
          <path class="cls-36" d="M221.13,300.84a7.32,7.32,0,0,0-2.65-.59c-.45,0-.9,0-1.36,0l-1.39.14a6.31,6.31,0,0,1,.64-.31l.69-.21a5.82,5.82,0,0,1,1.44-.14,4.4,4.4,0,0,1,1.43.3A3,3,0,0,1,221.13,300.84Z"/>
          <path class="cls-37" d="M200.29,242.76s-.58,18.08,17.68,14.81,16-18,16-18A76.43,76.43,0,0,0,200.29,242.76Z"/>
          <path class="cls-22" d="M250.88,250.85s-28.14-21.31-69.13-6.22c-.71-1.82-.65,34.26-21,85.61-4.74,7.86,50,35.47,74.27,9.55,1.63-5.88,4.15-14.57,7.68-25,3.05-9,5.06-14.09,6.1-17C252.15,288.07,254.77,273.22,250.88,250.85Z"/>
          <path class="cls-20" d="M180.58,246,152,286.68c-3.52,6.11-4.59,9.39,3.94,14.94s21.63,10.55,41.41,14.07c6.56,5.82,12.28,3.05,17.74-2.47,2.14-4,5.72-3.7,10.22-.65,2.09-.38,1.46-2.61-2.69-5.11,1.4,0,2.88-1.06,2-2.56,2.48-.56.53-3.23.53-3.23,1.25.72,5.85,3.21,6,1.1s-7-7.62-10.53-7.92c-2.17-.19-4.25-.83-5.76.69l-9,9.16c-14,0-22.45-13.64-29.09-15.23l18.42-23.81S197.12,247.45,180.58,246Z"/>
          <path class="cls-14" d="M160.1,273.89s11.27,15.3,25.73,13.89c0,0,10.93-22.62,10.93-23.09s3.45-17.23-11.74-20.18a5.39,5.39,0,0,0-5.23,1.87Z"/>
          <path class="cls-38" d="M235.42,239.62s.58,18.08-17.67,14.81-16-18-16-18A76.43,76.43,0,0,1,235.42,239.62Z"/>
          <g>
            <path class="cls-39" d="M223.91,304.94a10.68,10.68,0,0,0-5-1.67"/>
            <path class="cls-36" d="M223.91,304.94c-.85-.32-1.65-.64-2.48-.91-.42-.14-.83-.27-1.25-.39l-1.29-.37a6,6,0,0,1,2.69.28,6.15,6.15,0,0,1,1.25.57A4.81,4.81,0,0,1,223.91,304.94Z"/>
          </g>
          <g>
            <g>
              <path class="cls-19" d="M173.54,191.37c2.72,21.24-9.92,32,7.28,46.94,6.72,5.84,18.43,6.14,25.15,5.28,14.18-1.81,16.06-30.16,13.47-50.43s-11-47.27-25.15-45.46S170.69,169,173.54,191.37Z"/>
              <path class="cls-19" d="M214.74,222.86c-.6,7.32,3.67,19.74,15.23,20.48,14.82.94,27.07-4,25.1-19.4-.54-4.23-3.48-13.37-2-21.24,2.45-12.92-9.87-17.71-18.21-16.65C223.39,187.52,216,207.39,214.74,222.86Z"/>
            </g>
            <path class="cls-20" d="M211.49,242c1.8,2.62,5.43,3.42,8.89,3.71,3,.27,2.85.36,4.68-1.86,1.05-1.27.7-6.22.8-7.39.28-3.19-4-3.42-8.73-3.83s-5.32,1.91-5.59,5.1C211.46,238.57,210.8,241,211.49,242Z"/>
            <path class="cls-40" d="M211.56,241.18c7,3,9.36,2.69,13.5,1.66.62-1,.41-4.89.51-6.05.28-3.2-3.34-4-8.12-4.43s-3.79.66-5.31,3.48A14.94,14.94,0,0,0,211.56,241.18Z"/>
            <g>
              <g>
                <g>
                  <path class="cls-41" d="M246.35,213.29c1.72.81,6.29-.06,9.29-3.6,9.53-11.27,3.18-16,.2-15.89-1.3.06-8.13,1.11-9.57,8.11"/>
                  <path class="cls-42" d="M246.35,213.29a5.08,5.08,0,0,0,2.68.08,11.08,11.08,0,0,0,2.57-.85,11.69,11.69,0,0,0,4.16-3.35,28.43,28.43,0,0,0,3.07-4.48,12.4,12.4,0,0,0,1.61-5.08,5.39,5.39,0,0,0-2-4.65,4.27,4.27,0,0,0-2.39-.94,9.29,9.29,0,0,0-2.63.44,10.77,10.77,0,0,0-4.62,2.7,9.67,9.67,0,0,0-2.54,4.75,9.81,9.81,0,0,1,2.38-4.9,10.81,10.81,0,0,1,4.68-2.89,9.31,9.31,0,0,1,2.75-.52,4.71,4.71,0,0,1,2.64,1,5.45,5.45,0,0,1,1.73,2.24,6.78,6.78,0,0,1,.46,2.78,12.64,12.64,0,0,1-1.64,5.3,29.08,29.08,0,0,1-3.15,4.53,11.15,11.15,0,0,1-4.39,3.36,9.46,9.46,0,0,1-2.67.74A5,5,0,0,1,246.35,213.29Z"/>
                </g>
                <path class="cls-43" d="M248.76,204.56s.82-7.22,6.57-7.55.8,11.16-4.84,13.27c0,0-2.08.51.36-3.42S248.76,204.56,248.76,204.56Z"/>
              </g>
              <path class="cls-44" d="M249.66,211.07s-4,6.38-.45,8,3-5.91,2.95-6.34h0c-.1.34-1.56,5.32-2,1.91Z"/>
            </g>
            <path class="cls-20" d="M211.85,235.33c-1.58,6.53-.64,13.41,2.39,17.18A10,10,0,0,0,220,256c1.38.3,4.63,1,6.8-1.32,3.9-4.24,2.57-16.61,2.59-16.61h0Z"/>
            <path class="cls-35" d="M190.8,211.23c2.31,10.15,7.85,18.42,16.7,23.41a37.8,37.8,0,0,0,18.76,5.17c4,0,7-2.7,11.83-6.06,6.88-4.79,12.58-13.44,12.49-32-.06-10.81,5.95-17.33,1-26-6.34-11.05-23.77-21.35-34.15-20C198.92,158.15,186.5,192.27,190.8,211.23Z"/>
            <path class="cls-40" d="M195,205.92a17.12,17.12,0,0,1,7-19.65c11.38-7.91,7.55-16.35,7.55-16.35s7.11,10,17.86,8.44l-1.39-2.82s8.14,6,18.24,3.89c0,0-3.76-3.32-4.25-6.71,0,0,14.53,8.4,14.73,21.86,0,0,5.2-10-2.55-20.89s-26.74-18.25-44.63-11.58-23.34,28.81-23.34,28.81Z"/>
            <path class="cls-19" d="M207.63,163.84s3.61,12,18,13.6c0,0-4-5-4.5-9.1,0,0,4,10.44,21.6,10.37,0,0-5.05-3.5-4.31-8.55a57,57,0,0,1,10.89,8.4c6.18,6.31,2.22,14.38,2.1,20.21,0,0,12.76-12,11.26-26.41s-10.41-25.52-35.85-31.6-44.61,9.51-50,21.49-1.14,32.87-1.14,32.87l18.85,12s-3-11.61,4.85-19.89C207.66,178.47,209.53,178.69,207.63,163.84Z"/>
            <path class="cls-19" d="M217.46,185.85h0a3.88,3.88,0,0,1-3.55,2.64c-2.14.08-5.12.52-7.13,2.18C206.78,190.67,206.42,186.05,217.46,185.85Z"/>
            <path class="cls-19" d="M239.47,184.9h0a3.64,3.64,0,0,0,3,3.13c2.16.35,5.13,1.17,6.89,3.09C249.4,191.12,250.38,186.59,239.47,184.9Z"/>
            <g>
              <path class="cls-41" d="M233.13,202.94s-.88,4,1.57,6.88-1.49,7.33-6.69,3.61"/>
              <path class="cls-45" d="M233.13,202.94a10.1,10.1,0,0,0,.5,4.58,7,7,0,0,0,1.11,2,3.58,3.58,0,0,1,.94,2.27,3.18,3.18,0,0,1-1,2.25,3.82,3.82,0,0,1-2.24,1,6.4,6.4,0,0,1-4.41-1.58,6.91,6.91,0,0,0,4.37,1.2,3.61,3.61,0,0,0,2-.94,2.68,2.68,0,0,0,.84-1.92,3.15,3.15,0,0,0-.79-2,6.32,6.32,0,0,1-1.12-2.13A8.68,8.68,0,0,1,233.13,202.94Z"/>
            </g>
            <path class="cls-46" d="M260.51,163.39s-17.82-25.72-54.21-13.24c0,0-25.59,9.5-23,46.45,0,0-2,1.64-2.54-1.48,0,0-3.24-34.17,22.9-45.91,25.62-11.5,52.53,2.36,56.88,14.18"/>
            <g>
              <g>
                <g>
                  <path class="cls-41" d="M192.53,214.4c-1.78.67-6.27-.54-9-4.3-8.64-11.95-1.95-16.21,1-15.85,1.29.15,8,1.72,8.92,8.8"/>
                  <path class="cls-42" d="M192.53,214.4a5.16,5.16,0,0,1-2.73.07,9.66,9.66,0,0,1-2.6-.95,11.13,11.13,0,0,1-4.12-3.68,28.66,28.66,0,0,1-2.79-4.76,12.43,12.43,0,0,1-1.24-5.41,6.7,6.7,0,0,1,.67-2.74,5.49,5.49,0,0,1,1.9-2.1,4.77,4.77,0,0,1,2.71-.81,9.71,9.71,0,0,1,2.7.73,10.88,10.88,0,0,1,4.45,3.24,9.8,9.8,0,0,1,2,5.06,9.6,9.6,0,0,0-2.17-4.92,10.73,10.73,0,0,0-4.4-3,9.63,9.63,0,0,0-2.59-.64,4.38,4.38,0,0,0-2.46.76,5.38,5.38,0,0,0-2.33,4.49,12.3,12.3,0,0,0,1.22,5.19,28.27,28.27,0,0,0,2.72,4.7,11.65,11.65,0,0,0,3.9,3.65,10.7,10.7,0,0,0,2.49,1.05A5,5,0,0,0,192.53,214.4Z"/>
                </g>
                <path class="cls-43" d="M190.79,205.51s-.27-7.26-6-8-1.64,11.07,3.82,13.59c0,0,2,.67-.1-3.44S190.79,205.51,190.79,205.51Z"/>
              </g>
              <path class="cls-44" d="M189.4,211.93s3.47,6.67-.16,8-2.52-6.12-2.46-6.54h0c.07.34,1.15,5.43,1.87,2Z"/>
            </g>
            <g>
              <ellipse class="cls-47" cx="215.52" cy="201.7" rx="6.6" ry="7.26"/>
              <g>
                <path class="cls-48" d="M219.92,207a9.81,9.81,0,0,0,1-1.4,7,7,0,0,0,.55-1.14,9.53,9.53,0,0,0,.34-1.27,3.72,3.72,0,0,0-7.39.67,3.76,3.76,0,0,0,3.74,3.77,3.56,3.56,0,0,0,1.31-.26c.15-.11.29-.24.43-.36Z"/>
                <ellipse class="cls-2" cx="216" cy="200.13" rx="1.06" ry="1.14" transform="translate(-15.34 17.94) rotate(-4.59)"/>
                <path class="cls-35" d="M208.93,202c0-.3.14-4.7,3.55-6.68a6.33,6.33,0,0,1,4.3-.79,6.5,6.5,0,0,1,4.19,3,11.06,11.06,0,0,0-6.49.2A11.2,11.2,0,0,0,208.93,202Z"/>
                <path class="cls-49" d="M236.52,202.56a6.77,6.77,0,0,1,2.67-6.56,6,6,0,0,1,4-.93,6.43,6.43,0,0,1,4.53,3.25,8.44,8.44,0,0,0-11.22,4.24Z"/>
              </g>
            </g>
            <g>
              <ellipse class="cls-50" cx="242.4" cy="201.95" rx="6.2" ry="7.12"/>
              <g>
                <ellipse class="cls-48" cx="244.63" cy="204.58" rx="3.32" ry="3.76"/>
                <ellipse class="cls-2" cx="242.42" cy="201.82" rx="0.97" ry="1.05" transform="translate(-37.83 57.05) rotate(-12.46)"/>
              </g>
            </g>
            <path class="cls-35" d="M236.21,202.21a7.14,7.14,0,0,1,2.51-5.88,6.14,6.14,0,0,1,5.34-1.18,6,6,0,0,1,3.55,2.94,8.61,8.61,0,0,0-5.75-.63A8.88,8.88,0,0,0,236.21,202.21Z"/>
            <g>
              <path class="cls-51" d="M217.72,221.19c1.47,2.18,6.23,9.05,12.3,9.21,3.68.1,5.14-3.06,6.63-5.39.39-.61.75-1.24,1.11-1.87h0c.18-.32.36-.64.55-.95a17.77,17.77,0,0,1,1.6-2.36h0c.14-.17.29-.34.44-.5a1.66,1.66,0,0,1,.18-.19s-5,3.64-21.17,1.65l-1.35-.27-.53-.11-.3-.05S217.37,220.67,217.72,221.19Z"/>
              <path class="cls-52" d="M235,226.42a4.09,4.09,0,0,0-3.6-.48,8.07,8.07,0,0,0-5.7,1.52S231.06,230.33,235,226.42Z"/>
              <path class="cls-2" d="M217.48,220.4c7.77,5.72,14.36,5.19,17.86,3.74,1.5-.63,1.17-3.35,3.69-3.72a7.35,7.35,0,0,0,1.32-1.1,1.66,1.66,0,0,1,.18-.19s-5,3.64-21.17,1.65l-1.35-.27Z"/>
              <path class="cls-53" d="M217.72,221.19c1.47,2.18,6.23,9.05,12.3,9.21,3.68.1,5.14-3.06,6.63-5.39C231.31,230.57,226.2,229.74,217.72,221.19Z"/>
              <path class="cls-53" d="M218,220.51c12.47,4.61,19.35,1.17,21.9-.68h0l.06,0c.13-.17.26-.33.38-.46a1.66,1.66,0,0,1,.18-.19s-5,3.64-21.17,1.65Z"/>
              <path class="cls-52" d="M217.89,219.23s-1.9.45-.87,2.42C217,221.65,215.5,219.11,217.89,219.23Z"/>
              <path class="cls-52" d="M240.1,218.47s1.18.21.58,1.88C240.68,220.35,241.86,218.63,240.1,218.47Z"/>
            </g>
          </g>
          <path class="cls-43" d="M211.52,236.27s10.21,4.76,17.73,3.15c-.27,2.67-.37,3.22-.37,3.22s-7,3.08-18.07-2.89C211.2,237.43,211.52,236.27,211.52,236.27Z"/>
          <polygon class="cls-14" points="208.51 272.64 231.41 273.28 232.05 266.85 231.04 268.44 225.6 259.68 222.84 262.82 216.86 262.89 214.5 259.84 208.91 267.99 208.51 272.64"/>
          <path class="cls-54" d="M166.17,315.51a53.63,53.63,0,0,0,6.47,2.38c10.62,3.31,34,8.43,68,3.8-2.53,6.13-2,4.41-2,4.41s-40,5.22-74.34-5.18Z"/>
          <path class="cls-33" d="M223.91,255.05c-.72-.3-3.23-2.32-8.33-.38s1.28,8.22,1.28,8.22h5.61S229.94,257.57,223.91,255.05Z"/>
          <path class="cls-14" d="M230.07,239.16a24,24,0,0,1-1,5.41,24.59,24.59,0,0,1-6.25,10.23c2.49,4.09,5.71,9.55,8.2,13.65a27.68,27.68,0,0,0,3-5.75,34.9,34.9,0,0,0,1.82-8.94,83.64,83.64,0,0,0,.44-11.16,10.93,10.93,0,0,0-3.28-2.48A10.75,10.75,0,0,0,230.07,239.16Z"/>
          <path class="cls-14" d="M211.54,237.69a24.74,24.74,0,0,0,1.23,8.05,25,25,0,0,0,5,8.69c-2.38,4.67-6.21,9.34-8.59,14-2-3.65-3.63-9.22-5.21-15.33-1.33-5.13-1-9.1-1.16-12.81.3-3.78,3.15-6.09,5.41-5.76S211.46,237.51,211.54,237.69Z"/>
          <path class="cls-34" d="M188.31,242.48c-.24,0-.34,0-1.51.29A19.09,19.09,0,0,0,183,243.9a9.68,9.68,0,0,0-1.29.73,7.24,7.24,0,0,1,3.13.68,9.22,9.22,0,0,1,2.4,1.8,21.64,21.64,0,0,1,3,3.37,20.49,20.49,0,0,1,4.09,11.66,39.23,39.23,0,0,1,.1,7.61,18.33,18.33,0,0,0,2.49-6.61,17.55,17.55,0,0,0-.79-9.09c-.9-2.37-2.19-4-3.85-7.06a14.1,14.1,0,0,0-.95-1.56c-.13-.19-.38-.55-.72-1C189.74,243.37,189.15,242.64,188.31,242.48Z"/>
        </g>
        <g>
          <path class="cls-55" d="M115.1,586.45c-4.56,0-8.25-4.4-8.25-9.85V413.68c0-5.44,3.69-9.85,8.25-9.85s8.24,4.41,8.24,9.85V576.6C123.34,582.05,119.65,586.45,115.1,586.45Z"/>
          <path class="cls-56" d="M157.79,543.56c-4.55,0-8.24-4.41-8.24-9.85V370.78c0-5.44,3.69-9.85,8.24-9.85s8.25,4.41,8.25,9.85V533.71C166,539.15,162.35,543.56,157.79,543.56Z"/>
          <rect class="cls-57" x="106.85" y="435.77" width="16.49" height="36.14"/>
          <g>
            <polygon class="cls-12" points="149.55 507.55 93.87 586.45 526.61 586.45 454.24 511.49 149.55 507.55"/>
            <path class="cls-55" d="M490.1,586.45c4.56,0,8.25-4.4,8.25-9.85V413.68c0-5.44-3.69-9.85-8.25-9.85s-8.24,4.41-8.24,9.85V576.6C481.86,582.05,485.55,586.45,490.1,586.45Z"/>
            <path class="cls-56" d="M447.41,543.56c4.55,0,8.24-4.41,8.24-9.85V370.78c0-5.44-3.69-9.85-8.24-9.85s-8.25,4.41-8.25,9.85V533.71C439.16,539.15,442.85,543.56,447.41,543.56Z"/>
            <rect class="cls-57" x="481.86" y="435.77" width="16.49" height="32.84"/>
            <path class="cls-58" d="M95.38,386H513.76a0,0,0,0,1,0,0v76.87a.55.55,0,0,1-.55.55H95.92a.55.55,0,0,1-.55-.55V386a0,0,0,0,1,0,0Z"/>
            <polygon class="cls-57" points="95.38 403.56 513.76 399.22 513.76 386.01 95.38 386.01 95.38 403.56"/>
            <path class="cls-59" d="M535.15,379.74H74v13.52a2.88,2.88,0,0,0,2.8,3H532.35a2.88,2.88,0,0,0,2.8-3Z"/>
            <path class="cls-60" d="M530.8,384.11H78.33c-3.23,0-5.33-3.61-3.89-6.68L106.85,329a4.33,4.33,0,0,1,3.89-2.56H501.32a4.34,4.34,0,0,1,3.89,2.55l29.47,48.44C536.13,380.5,534,384.11,530.8,384.11Z"/>
          </g>
        </g>
        <g>
          <path class="cls-61" d="M177.75,345.52l-26.21,16.05L95.38,343.4l28.42-14.12ZM151.54,373.4,95.38,354.83l2.56-1.29c-.11.3-.23.6-.37.89l54,17.7,24.57-14.26a11.5,11.5,0,0,0,.32-9.92l.87-.56q3.16,5.33-.67,11.44Z"/>
          <path class="cls-62" d="M151.54,363.59,176.43,348a11.5,11.5,0,0,1-.32,9.92l-24.57,14.26A11.06,11.06,0,0,0,151.54,363.59Z"/>
          <path class="cls-63" d="M97.57,346l54,17.56a11.06,11.06,0,0,1,0,8.54l-54-17.7c.14-.29.26-.59.37-.89A9.38,9.38,0,0,0,97.57,346Z"/>
          <path class="cls-64" d="M95.38,343.4l56.16,18.17v2L97.57,346l-2.19-.71Zm0,11.43,56.16,18.57v1.84l-56.16-18.8Z"/>
          <path class="cls-65" d="M151.54,361.57l26.21-16.05q4.75,4.82,0,14.15l-26.21,15.57V373.4l25.09-14.57q3.84-6.1.67-11.44l-.87.56-24.89,15.64Z"/>
        </g>
        <g>
          <path class="cls-66" d="M252.65,359.81c20.11-4.19,46.13-3.15,65.59,1.64a6.18,6.18,0,0,0,.42-.77l-22.2-32.87c-10.47-6.79-34-5.42-43.81.2Z"/>
          <path class="cls-67" d="M252.65,357.82c20.11-4.19,44.7-3.81,64.17,1,.32-.42,2-2.93,2.08-3.25l-22.44-30.21c-10.47-6.79-34-5.43-43.81.19Z"/>
          <g>
            <path class="cls-68" d="M252.65,355.21c19.23-6.37,47.08-5.37,66.25.34l-22.44-30.21c-10.47-6.79-34-5.43-43.81.19Z"/>
            <path class="cls-69" d="M318.9,355.78l-.1,0c-20.46-6.09-48.2-6.25-66-.35a.39.39,0,0,1-.28,0c-.08,0-.17-.12-.17-.2V325.54a.19.19,0,0,1,.1-.19c10.1-5.79,33.79-6.94,44.18-.19l.06,0,22.44,30.22a.2.2,0,0,1,0,.26A.31.31,0,0,1,318.9,355.78ZM283,350.63a131.18,131.18,0,0,1,35.21,4.48l-22-29.62c-10.2-6.58-33.31-5.47-43.31.16v29.2C261.93,351.93,272.53,350.68,283,350.63Z"/>
          </g>
          <g>
            <path class="cls-70" d="M252.65,355.21c18.48-7.64,46.51-8.27,66.61-2.09l-22.8-27.78c-10.47-6.79-34-5.43-43.81.19Z"/>
            <path class="cls-69" d="M252.67,355.44l-.14,0a.26.26,0,0,1-.17-.2V325.54a.19.19,0,0,1,.1-.19c10.1-5.79,33.79-6.94,44.18-.19l.06,0L319.5,353a.19.19,0,0,1,0,.27.35.35,0,0,1-.33.08c-20.38-6.27-48.27-5.4-66.35,2.07Zm.26-29.79v29.2c18-7.27,45.33-8.18,65.61-2.2l-22.3-27.16C286,318.91,262.93,320,252.93,325.65Z"/>
          </g>
          <g>
            <path class="cls-2" d="M252.65,355.21c19.25-10.53,46.08-11.5,66.8-5.46L296.7,324.8c-10.47-6.79-34.23-4.89-44,.73Z"/>
            <path class="cls-69" d="M252.67,355.44l-.14,0a.26.26,0,0,1-.17-.2V325.54a.19.19,0,0,1,.1-.19c10.34-5.92,34.19-7.36,44.42-.73l22.8,25a.2.2,0,0,1,0,.27.31.31,0,0,1-.33.08c-22.43-6.53-48.56-4.39-66.54,5.45A.32.32,0,0,1,252.67,355.44Zm.26-29.79v29.13c17.87-9.59,43.52-11.72,65.73-5.5L296.49,325C286.45,318.49,263.17,319.88,252.93,325.65Z"/>
          </g>
          <path class="cls-66" d="M252.65,359.81c-20.12-4-46.08-2.74-65.53,2.23a6.8,6.8,0,0,1-.41-.76l22.08-33.07c10.45-6.89,34-5.73,43.86-.2Z"/>
          <path class="cls-67" d="M252.65,357.82c-20.12-4-44.65-3.41-64.1,1.56-.33-.42-2-2.92-2.11-3.24L214,326.59c10.44-6.89,28.82-6.59,38.65-1.06Z"/>
          <g>
            <path class="cls-68" d="M252.65,355.21c-19.24-6.2-47.06-4.95-66.21.93l28.27-29.55c10.45-6.89,28.11-6.59,37.94-1.06Z"/>
            <path class="cls-69" d="M186.45,356.37a.34.34,0,0,1-.24-.09.2.2,0,0,1,0-.28l28.27-29.56c10.89-7.18,28.95-6.36,38.3-1.1.08.05.15.12.15.19v29.68a.26.26,0,0,1-.13.2.39.39,0,0,1-.28,0c-17.81-5.74-45.54-5.33-66,.95Zm28.47-29.62-27.64,28.89c17.58-5.17,45.15-7.07,65.09-.79V325.66C243.16,320.55,225.57,319.74,214.92,326.75Z"/>
          </g>
          <g>
            <path class="cls-70" d="M252.65,355.21c-18.49-7.47-46.83-8.54-66.92-2.18L211,325.93c10.45-6.88,31.87-5.93,41.7-.4Z"/>
            <path class="cls-69" d="M252.67,355.44l-.14,0c-18.73-7.56-46.77-8.47-66.69-2.16a.33.33,0,0,1-.34-.08.2.2,0,0,1,0-.27l25.22-27.11c10.61-7,32-6.1,42.07-.45.08.05.15.12.15.19v29.68a.23.23,0,0,1-.13.2Zm-37.52-6.83c13.26-.06,26.66,2.06,37.22,6.24V325.66c-9.74-5.39-31-6.27-41.21.43l-24.6,26.44A102.47,102.47,0,0,1,215.15,348.61Z"/>
          </g>
          <g>
            <path class="cls-2" d="M252.65,355.21c-18.89-10.77-48.29-11.76-66.92-6.22l23.2-23.79c10.45-6.89,33.89-5.2,43.72.33Z"/>
            <path class="cls-69" d="M252.67,355.44a.22.22,0,0,1-.14,0c-19.48-11.1-48.92-11.49-66.71-6.2a.33.33,0,0,1-.33-.09.19.19,0,0,1,0-.27l23.21-23.79c4.81-3.17,13-4.86,22.31-4.58,8.56.26,16.9,2.12,21.77,4.86.08.05.15.12.15.19v29.68a.21.21,0,0,1-.13.2Zm-42-10c14.32-.07,29.8,2.66,41.74,9.31v-29.1c-10.17-5.63-33.31-6.81-43.23-.3L186.56,348.5A93.16,93.16,0,0,1,210.63,345.45Z"/>
          </g>
          <path class="cls-71" d="M294.15,326.48c.06-.17-.06-.34-.28-.39-13.09-2.85-25.91-2-36.11,2.4a.3.3,0,0,0-.17.44.41.41,0,0,0,.35.17.41.41,0,0,0,.19,0c10-4.33,22.64-5.16,35.54-2.35A.4.4,0,0,0,294.15,326.48Zm3.09,3c.05-.17-.08-.34-.3-.38-14.14-2.62-26.58-1.52-39.16,3.46a.29.29,0,0,0-.19.42.4.4,0,0,0,.36.18.47.47,0,0,0,.17,0c12.41-4.91,24.69-6,38.64-3.41A.4.4,0,0,0,297.24,329.5Zm3.14,3.24a.33.33,0,0,0-.32-.38c-16.78-2.61-25.73-2.27-42.49,4.85a.3.3,0,0,0-.17.43.43.43,0,0,0,.36.17.57.57,0,0,0,.18,0c16.55-7,25.39-7.37,42-4.79A.41.41,0,0,0,300.38,332.74Zm-42.5,9.36a.47.47,0,0,0,.54.12c18.48-8.45,28.65-7.68,44-5.77a.4.4,0,0,0,.45-.27c0-.18-.11-.34-.33-.37-15.49-1.93-25.78-2.7-44.48,5.85A.29.29,0,0,0,257.88,342.1Zm0,4.85a.47.47,0,0,0,.54.12c17.58-7.75,30.93-8.4,47.87-6.15a.4.4,0,0,0,.46-.27.34.34,0,0,0-.33-.37c-17.11-2.27-30.6-1.62-48.38,6.23A.3.3,0,0,0,257.9,347Z"/>
          <path class="cls-71" d="M213.08,326.71c12.9-2.81,25.52-2,35.54,2.35a.39.39,0,0,0,.18,0,.41.41,0,0,0,.35-.17.3.3,0,0,0-.16-.44c-10.2-4.4-23-5.25-36.12-2.4a.32.32,0,0,0-.28.39A.41.41,0,0,0,213.08,326.71Zm-3.1,3c14-2.58,26.23-1.5,38.64,3.41a.57.57,0,0,0,.18,0,.4.4,0,0,0,.35-.18.28.28,0,0,0-.18-.42c-12.58-5-25-6.08-39.17-3.46a.32.32,0,0,0-.29.38A.39.39,0,0,0,210,329.74ZM206.83,333c16.59-2.58,25.42-2.24,42,4.79a.52.52,0,0,0,.18,0,.41.41,0,0,0,.35-.17.29.29,0,0,0-.17-.43c-16.76-7.12-25.7-7.46-42.49-4.85a.33.33,0,0,0-.31.38A.4.4,0,0,0,206.83,333Zm41.88,8.67c-18.7-8.55-29-7.78-44.48-5.85a.34.34,0,0,0-.33.37.42.42,0,0,0,.46.27c15.32-1.91,25.49-2.68,44,5.77a.48.48,0,0,0,.2,0,.41.41,0,0,0,.34-.16A.29.29,0,0,0,248.71,341.66Zm0,4.85c-17.79-7.85-31.27-8.5-48.39-6.23a.34.34,0,0,0-.32.37.39.39,0,0,0,.45.27c16.95-2.25,30.3-1.6,47.88,6.15a.41.41,0,0,0,.19,0,.45.45,0,0,0,.35-.16A.3.3,0,0,0,248.69,346.51Z"/>
        </g>
        <g>
          <polygon class="cls-72" points="432.09 384.26 422.4 380.41 475.6 332.76 486.7 336.9 432.09 384.26"/>
          <polygon class="cls-73" points="427.63 382.9 355.49 352.26 355.94 350.45 425.15 315.14 483.54 333.73 483.12 335.46 427.63 382.9"/>
          <polygon class="cls-74" points="427.53 380.96 355.94 350.45 425.5 313.39 483.26 333.7 427.53 380.96"/>
          <path class="cls-75" d="M425.29,314.55c-4.91,3-19.27,12.06-25.71,15.61l56,22.43s17.41-13.13,24-19.28Z"/>
          <path class="cls-76" d="M425.35,315.65c-4.84,2-7.93,1.56-11.39,2.53-7.45,2.1-11.62,6.26-14.25,12l56,22.43s1.48-8.49,7.56-12.43c5.15-3.34,6.24.06,12.8-6.1Z"/>
          <path class="cls-77" d="M427.09,377.13l-65-27.72.61-4.11,37.81-17.83s39,17,54.07,21.85c1.15.92.85,3.33.85,3.33Z"/>
          <polygon class="cls-75" points="426.92 371.79 362.73 345.3 400.55 327.47 454.77 349.25 426.92 371.79"/>
          <path class="cls-76" d="M401.12,328.29a18.83,18.83,0,0,0-19.49,2.6c-5.12,4.15-11.29,9.88-17.54,10.79l60.66,24.5c1.36-.07,9.54,1,12.53-5.49,6.07-13.17,17.41-11.15,17.41-11.15Z"/>
          <path class="cls-78" d="M431.38,354.81c-.59-.32-8.66-3.72-10.46-4.8,2.29-4.13,7.13-8.75,9.5-8.65,0,0,10.68,4.15,11.72,4.61C437.5,346.09,432.27,353.6,431.38,354.81Z"/>
          <g>
            <path class="cls-78" d="M393,338.26a30.7,30.7,0,0,1,9.3-7.85l-1.08-.43c-.15-.07-.32-.12-.47-.18a33.45,33.45,0,0,0-8.71,7.66c-4.43,5.33-12.89,8-13.78,8v.23l1.61.65C382.91,345.45,389.29,342.67,393,338.26Z"/>
            <path class="cls-78" d="M396.69,340.28a30,30,0,0,1,9.88-8.16l-1.55-.61a32.27,32.27,0,0,0-9.29,8c-4,4.86-11.39,7.48-13.31,7.94l1.87.75C387.58,347.05,393.31,344.34,396.69,340.28Z"/>
            <path class="cls-78" d="M423.37,338.79c-2.83,1.24-6.7,3.73-10.92,8.8-3.18,3.81-8.38,6.24-11.43,7.34l1.72.7c3.32-1.37,7.83-3.82,10.67-7.24,4.74-5.69,9-8,11.69-8.91Z"/>
            <path class="cls-78" d="M405,344.48c4.35-5.23,8.28-7.55,11-8.63l-1.66-.66A31,31,0,0,0,404,343.68c-3.42,4.11-9.21,6.62-12.09,7.58l1.74.7C397,350.66,401.93,348.13,405,344.48Z"/>
            <path class="cls-78" d="M401.24,342.46a29.65,29.65,0,0,1,10.3-8.37l-1.56-.61a31.55,31.55,0,0,0-9.7,8.18c-3.74,4.49-10.3,7.07-12.81,7.8l1.81.73C392.61,349,398,346.36,401.24,342.46Z"/>
            <path class="cls-78" d="M409.68,346.38c4.37-5.25,8.31-7.58,11-8.65l-1.66-.66a31.05,31.05,0,0,0-10.32,8.51c-3.42,4.11-9.21,6.62-12.09,7.57l1.74.71C401.71,352.56,406.63,350,409.68,346.38Z"/>
          </g>
        </g>
        <g>
          <path class="cls-79" d="M370.59,360.3c0,2.63-10,4.61-22.17,4.42s-22.07-2.49-22-5.13,10-4.61,22.18-4.42S370.64,357.66,370.59,360.3Z"/>
          <g>
            <path class="cls-80" d="M357.53,323.83c0-2.81-6.59-5.09-14.73-5.09s-14.73,2.28-14.73,5.09v34.73c0,2.82,6.59,5.1,14.73,5.1s14.73-2.28,14.73-5.1Z"/>
            <path class="cls-81" d="M356.25,324.23c0,2.38-6,4.3-13.47,4.3s-13.42-1.92-13.42-4.3,6-4.3,13.44-4.3S356.25,321.86,356.25,324.23Z"/>
          </g>
          <g>
            <path class="cls-82" d="M362.77,257.32l-11.54-1.44-9.06,72.63.61,0c4.81,0,9-.81,11.35-2Z"/>
            <g>
              <path class="cls-83" d="M354.05,313.68l-2.9-.36a.22.22,0,0,1-.19-.24.22.22,0,0,1,.24-.18l2.9.36a.22.22,0,0,1,.19.24A.22.22,0,0,1,354.05,313.68Z"/>
              <path class="cls-83" d="M354.26,312l-2.9-.36a.22.22,0,0,1,.05-.43l2.9.36a.22.22,0,0,1-.05.43Z"/>
              <path class="cls-83" d="M354.47,310.29l-2.9-.36a.21.21,0,0,1-.18-.24.2.2,0,0,1,.24-.18l2.89.36a.21.21,0,1,1,0,.42Z"/>
              <path class="cls-83" d="M353.41,318.77l-2.89-.36a.22.22,0,0,1-.19-.24.2.2,0,0,1,.24-.18l2.9.36a.21.21,0,0,1,.18.23A.21.21,0,0,1,353.41,318.77Z"/>
              <path class="cls-83" d="M353.62,317.07,349,316.5a.2.2,0,0,1-.18-.24.2.2,0,0,1,.23-.18l4.6.57a.21.21,0,0,1,.18.24A.2.2,0,0,1,353.62,317.07Z"/>
              <path class="cls-83" d="M353.84,315.38l-2.9-.36a.22.22,0,1,1,.05-.43l2.9.36a.22.22,0,0,1-.05.43Z"/>
              <path class="cls-83" d="M353,322.16l-2.9-.36a.21.21,0,0,1-.18-.24.2.2,0,0,1,.24-.18l2.89.36a.21.21,0,1,1-.05.42Z"/>
              <path class="cls-83" d="M353.2,320.47l-2.9-.37a.2.2,0,0,1-.18-.23.22.22,0,0,1,.24-.19l2.89.36a.22.22,0,0,1-.05.43Z"/>
              <path class="cls-83" d="M352.35,327.25l-2.89-.36a.22.22,0,1,1,.05-.43l2.9.37a.2.2,0,0,1,.18.23A.22.22,0,0,1,352.35,327.25Z"/>
              <path class="cls-83" d="M352.57,325.55,348,325a.21.21,0,0,1-.18-.24.2.2,0,0,1,.24-.18l4.59.57a.2.2,0,0,1,.18.24A.2.2,0,0,1,352.57,325.55Z"/>
              <path class="cls-83" d="M352.78,323.86l-2.9-.36a.22.22,0,1,1,.05-.43l2.9.36a.22.22,0,0,1-.05.43Z"/>
              <path class="cls-83" d="M356.16,296.73l-2.89-.37a.21.21,0,0,1-.19-.23.22.22,0,0,1,.24-.19l2.9.36a.22.22,0,0,1-.06.43Z"/>
              <path class="cls-83" d="M356.37,295l-2.89-.36a.22.22,0,0,1,0-.43l2.9.37a.2.2,0,0,1,.18.23A.22.22,0,0,1,356.37,295Z"/>
              <path class="cls-83" d="M356.59,293.33l-2.9-.36a.22.22,0,0,1-.19-.24.22.22,0,0,1,.24-.18l2.9.36a.21.21,0,0,1,.18.24A.2.2,0,0,1,356.59,293.33Z"/>
              <path class="cls-83" d="M355.53,301.81l-2.9-.36a.2.2,0,0,1-.18-.24.2.2,0,0,1,.23-.18l2.9.36a.21.21,0,1,1-.05.42Z"/>
              <path class="cls-83" d="M355.74,300.12l-4.59-.58a.21.21,0,0,1-.19-.23.22.22,0,0,1,.24-.19l4.59.57a.22.22,0,0,1-.05.43Z"/>
              <path class="cls-83" d="M356,298.42l-2.9-.36a.21.21,0,0,1-.18-.24.2.2,0,0,1,.24-.18L356,298a.22.22,0,0,1,.19.24A.21.21,0,0,1,356,298.42Z"/>
              <path class="cls-83" d="M355.1,305.2l-2.89-.36a.21.21,0,1,1,.05-.42l2.9.36a.21.21,0,0,1,.18.24A.2.2,0,0,1,355.1,305.2Z"/>
              <path class="cls-83" d="M355.32,303.51l-2.9-.36a.22.22,0,0,1-.19-.24.23.23,0,0,1,.24-.19l2.9.36a.22.22,0,0,1-.05.43Z"/>
              <path class="cls-83" d="M354.68,308.6l-4.59-.58a.22.22,0,0,1-.19-.24.22.22,0,0,1,.24-.18l4.59.57a.22.22,0,0,1,.19.24A.22.22,0,0,1,354.68,308.6Z"/>
              <path class="cls-83" d="M354.89,306.9l-2.89-.36a.22.22,0,1,1,.05-.43l2.9.37a.2.2,0,0,1,.18.23A.22.22,0,0,1,354.89,306.9Z"/>
              <path class="cls-83" d="M358.28,279.77l-2.9-.36a.22.22,0,0,1,.06-.43l2.89.36a.23.23,0,0,1,.19.24A.22.22,0,0,1,358.28,279.77Z"/>
              <path class="cls-83" d="M358.49,278.07l-2.9-.36a.21.21,0,0,1,.06-.42l2.89.36a.21.21,0,1,1-.05.42Z"/>
              <path class="cls-83" d="M358.7,276.38l-2.89-.36a.23.23,0,0,1-.19-.24.22.22,0,0,1,.24-.19l2.9.36a.22.22,0,0,1-.06.43Z"/>
              <path class="cls-83" d="M357.64,284.86l-2.89-.37a.21.21,0,0,1-.19-.23.22.22,0,0,1,.24-.19l2.9.36a.22.22,0,0,1-.06.43Z"/>
              <path class="cls-83" d="M357.86,283.16l-4.6-.57a.22.22,0,0,1,.06-.43l4.59.58a.2.2,0,0,1,.18.23A.21.21,0,0,1,357.86,283.16Z"/>
              <path class="cls-83" d="M358.07,281.46l-2.9-.36a.2.2,0,0,1-.18-.24.2.2,0,0,1,.23-.18l2.9.36a.22.22,0,0,1,.19.24A.21.21,0,0,1,358.07,281.46Z"/>
              <path class="cls-83" d="M357.22,288.25l-2.9-.36a.22.22,0,0,1-.18-.24.22.22,0,0,1,.24-.19l2.89.36a.22.22,0,1,1,0,.43Z"/>
              <path class="cls-83" d="M357.43,286.55l-2.89-.36a.22.22,0,0,1-.19-.24.21.21,0,0,1,.24-.18l2.9.36a.21.21,0,0,1-.06.42Z"/>
              <path class="cls-83" d="M356.8,291.64l-4.59-.57a.23.23,0,0,1-.19-.24.22.22,0,0,1,.24-.19l4.59.57a.23.23,0,0,1,.19.24A.22.22,0,0,1,356.8,291.64Z"/>
              <path class="cls-83" d="M357,289.94l-2.9-.36a.21.21,0,0,1,.06-.42l2.89.36a.21.21,0,1,1-.05.42Z"/>
              <path class="cls-83" d="M360.4,262.81l-2.9-.36a.22.22,0,0,1-.19-.24.21.21,0,0,1,.24-.18l2.9.36a.2.2,0,0,1,.18.24A.2.2,0,0,1,360.4,262.81Z"/>
              <path class="cls-83" d="M360.61,261.11l-2.9-.36a.21.21,0,0,1-.19-.23.22.22,0,0,1,.24-.19l2.9.36a.21.21,0,0,1,.18.24A.2.2,0,0,1,360.61,261.11Z"/>
              <path class="cls-83" d="M360.82,259.42l-2.9-.36a.21.21,0,0,1-.18-.24.21.21,0,0,1,.23-.19l2.9.37a.21.21,0,0,1,.19.23A.22.22,0,0,1,360.82,259.42Z"/>
              <path class="cls-83" d="M359.76,267.9l-2.9-.36a.22.22,0,0,1,.06-.43l2.89.36a.23.23,0,0,1,.19.24A.22.22,0,0,1,359.76,267.9Z"/>
              <path class="cls-83" d="M360,266.2l-4.59-.57a.22.22,0,0,1-.19-.24.21.21,0,0,1,.24-.18l4.59.57a.21.21,0,1,1,0,.42Z"/>
              <path class="cls-83" d="M360.18,264.51l-2.89-.36a.23.23,0,0,1-.19-.24.22.22,0,0,1,.24-.19l2.9.36a.22.22,0,0,1-.06.43Z"/>
              <path class="cls-83" d="M359.34,271.29l-2.9-.36a.22.22,0,0,1-.19-.24.23.23,0,0,1,.24-.19l2.9.37a.21.21,0,0,1,.19.23A.23.23,0,0,1,359.34,271.29Z"/>
              <path class="cls-83" d="M359.55,269.59l-2.9-.36a.2.2,0,0,1-.18-.24.2.2,0,0,1,.23-.18l2.9.36a.22.22,0,0,1,.19.24A.21.21,0,0,1,359.55,269.59Z"/>
              <path class="cls-83" d="M358.91,274.68l-4.59-.57a.21.21,0,0,1-.18-.24.21.21,0,0,1,.23-.19l4.6.58a.21.21,0,0,1-.06.42Z"/>
              <path class="cls-83" d="M359.13,273l-2.9-.37a.21.21,0,0,1-.19-.23.22.22,0,0,1,.24-.19l2.9.36a.21.21,0,0,1,.18.24A.21.21,0,0,1,359.13,273Z"/>
            </g>
          </g>
          <g>
            <polygon class="cls-84" points="334.71 295.37 338.74 295.26 336.53 286.56 334.71 295.37"/>
            <polygon class="cls-85" points="335.93 288.91 337.23 288.87 336.53 286.45 335.93 288.91"/>
            <path class="cls-86" d="M334.62,294.93l1-.42,1.82-.05,1.34.36.88,33.6a31.74,31.74,0,0,1-4.17-.58Z"/>
          </g>
          <g>
            <polygon class="cls-84" points="342.29 298.05 346.32 298.25 344.77 289.41 342.29 298.05"/>
            <polygon class="cls-85" points="344 291.7 345.29 291.76 344.77 289.29 344 291.7"/>
            <path class="cls-87" d="M342.24,297.61l1-.35,1.81.09,1.32.46-1.48,30.71a38.24,38.24,0,0,1-4.17,0Z"/>
          </g>
        </g>
      </g>
    </g>
  </g>
</svg>
