<svg xmlns="http://www.w3.org/2000/svg" xmlns:xlink="http://www.w3.org/1999/xlink" width="619.88" height="562.43" viewBox="0 0 619.88 562.43">
  <defs>
    <style>
      .cls-1, .cls-12, .cls-16, .cls-6 {
        fill: none;
      }

      .cls-2 {
        isolation: isolate;
      }

      .cls-3 {
        clip-path: url(#clip-path);
      }

      .cls-4 {
        fill: #c3b6a2;
      }

      .cls-5 {
        opacity: 0.25;
      }

      .cls-6 {
        stroke: #feffeb;
      }

      .cls-109, .cls-12, .cls-16, .cls-17, .cls-18, .cls-20, .cls-22, .cls-23, .cls-27, .cls-38, .cls-39, .cls-52, .cls-54, .cls-57, .cls-6, .cls-64, .cls-66, .cls-67, .cls-73 {
        stroke-miterlimit: 10;
      }

      .cls-7, .cls-73 {
        fill: #fff;
      }

      .cls-8 {
        clip-path: url(#clip-path-2);
      }

      .cls-9 {
        clip-path: url(#clip-path-3);
      }

      .cls-10 {
        fill: #d8d1a3;
      }

      .cls-11, .cls-15 {
        opacity: 0.3;
      }

      .cls-12 {
        stroke: #857b6c;
        stroke-width: 3px;
      }

      .cls-13 {
        fill: #81ddda;
      }

      .cls-14 {
        fill: #cdaa6a;
      }

      .cls-109, .cls-16, .cls-17, .cls-18, .cls-20, .cls-22, .cls-52, .cls-54, .cls-67 {
        stroke: #323232;
      }

      .cls-17 {
        fill: #efd3e7;
      }

      .cls-18 {
        fill: #c42346;
      }

      .cls-19 {
        fill: #311415;
        stroke: #190500;
      }

      .cls-19, .cls-24, .cls-25, .cls-26 {
        stroke-linejoin: round;
      }

      .cls-19, .cls-23, .cls-24, .cls-25, .cls-26, .cls-57 {
        stroke-width: 0.75px;
      }

      .cls-20, .cls-21, .cls-22 {
        fill: #f2daea;
      }

      .cls-109, .cls-22 {
        stroke-width: 0.25px;
      }

      .cls-23, .cls-33 {
        fill: #f9dad2;
      }

      .cls-23, .cls-39 {
        stroke: #7f430d;
      }

      .cls-24 {
        fill: #df71e2;
        stroke: #710e7c;
      }

      .cls-25 {
        fill: #686c70;
        stroke: #211f1c;
      }

      .cls-26 {
        fill: #9b959a;
        stroke: #423a33;
      }

      .cls-27, .cls-59 {
        fill: #61435b;
      }

      .cls-27 {
        stroke: #1c101a;
      }

      .cls-27, .cls-39, .cls-64, .cls-66, .cls-73 {
        stroke-width: 0.5px;
      }

      .cls-28 {
        fill: #4c2f47;
      }

      .cls-29 {
        fill: #342516;
      }

      .cls-30 {
        fill: #eab8ad;
      }

      .cls-31 {
        fill: #2d1708;
      }

      .cls-32 {
        fill: #e5beb7;
      }

      .cls-34 {
        fill: #7f430d;
      }

      .cls-35 {
        fill: #8c3d35;
      }

      .cls-36 {
        fill: #d26653;
      }

      .cls-37 {
        fill: #f9988f;
      }

      .cls-38 {
        fill: #e8d860;
        stroke: #baa83a;
      }

      .cls-39 {
        fill: #f9f8f7;
      }

      .cls-40 {
        fill: #773417;
      }

      .cls-41 {
        fill: #e3d4ec;
      }

      .cls-100, .cls-41, .cls-89, .cls-90 {
        mix-blend-mode: multiply;
      }

      .cls-42 {
        fill: #94411d;
      }

      .cls-43 {
        fill: #a65127;
      }

      .cls-44 {
        fill: #bd5d2d;
      }

      .cls-45 {
        fill: #c60c30;
      }

      .cls-46 {
        fill: #251838;
      }

      .cls-47 {
        fill: #f9f2e9;
      }

      .cls-48 {
        fill: #624a85;
      }

      .cls-49 {
        fill: #d4c2ef;
      }

      .cls-50 {
        fill: #f83753;
      }

      .cls-51 {
        fill: #883c1a;
      }

      .cls-52 {
        fill: #c1349d;
      }

      .cls-53 {
        opacity: 0.29;
      }

      .cls-54 {
        fill: #dab4aa;
      }

      .cls-55, .cls-57 {
        fill: #fbd3c7;
      }

      .cls-56 {
        fill: #453323;
      }

      .cls-57, .cls-66 {
        stroke: #453323;
      }

      .cls-58 {
        fill: #4c3409;
      }

      .cls-60 {
        fill: #1c101a;
      }

      .cls-61 {
        fill: #dd9f8f;
      }

      .cls-62 {
        fill: #f5dc90;
      }

      .cls-63 {
        fill: #be9030;
      }

      .cls-64 {
        fill: #2455a3;
        stroke: #2d2b7a;
      }

      .cls-65 {
        fill: #f8e1db;
      }

      .cls-66 {
        fill: #de97fc;
      }

      .cls-67, .cls-74 {
        fill: #f9d1c6;
      }

      .cls-109, .cls-68 {
        fill: #db9d8e;
      }

      .cls-69 {
        fill: #f5968e;
      }

      .cls-70 {
        fill: #951c27;
      }

      .cls-71 {
        fill: url(#linear-gradient);
      }

      .cls-72 {
        fill: #342517;
      }

      .cls-73 {
        stroke: #3d2e17;
      }

      .cls-75 {
        fill: #49442e;
      }

      .cls-76 {
        fill: #323232;
      }

      .cls-77 {
        fill: #c69c6d;
      }

      .cls-78, .cls-79, .cls-80 {
        mix-blend-mode: screen;
      }

      .cls-79 {
        fill: #404040;
      }

      .cls-80 {
        fill: gray;
      }

      .cls-81 {
        fill: #cafffc;
      }

      .cls-82 {
        fill: #e40274;
      }

      .cls-83 {
        fill: #ec7b23;
      }

      .cls-84 {
        fill: #7dff00;
      }

      .cls-85 {
        fill: #9abd36;
      }

      .cls-86 {
        fill: #00a0db;
      }

      .cls-87 {
        fill: #602483;
      }

      .cls-88 {
        fill: #009547;
      }

      .cls-89 {
        fill: #e6e6e6;
      }

      .cls-90 {
        opacity: 0.5;
      }

      .cls-101, .cls-91 {
        fill: #3269a5;
      }

      .cls-91 {
        opacity: 0.34;
      }

      .cls-92 {
        fill: #f75338;
      }

      .cls-93 {
        fill: #c6dd24;
      }

      .cls-94 {
        fill: #28a5c6;
      }

      .cls-95 {
        fill: #43c7dd;
      }

      .cls-96 {
        fill: #ffcf06;
      }

      .cls-97 {
        fill: #d83c27;
      }

      .cls-98 {
        fill: #3bbfef;
      }

      .cls-99 {
        fill: #ff9827;
      }

      .cls-100 {
        opacity: 0.4;
      }

      .cls-102 {
        fill: #b8c418;
      }

      .cls-103 {
        fill: #f9ed32;
      }

      .cls-104 {
        fill: #d87d23;
      }

      .cls-105 {
        fill: #ff5fa0;
      }

      .cls-106 {
        fill: #f24181;
      }

      .cls-107 {
        fill: #3974b0;
      }

      .cls-108 {
        fill: #c9ecf4;
      }
    </style>
    <clipPath id="clip-path">
      <rect class="cls-1" x="-1179.48" y="56.6" width="539.07" height="449.22" rx="116.93"/>
    </clipPath>
    <clipPath id="clip-path-2">
      <rect class="cls-1" x="40.37" y="56.57" width="539.14" height="449.28" rx="116.93"/>
    </clipPath>
    <clipPath id="clip-path-3">
      <rect class="cls-1" x="40.68" y="56.37" width="539.14" height="449.28" rx="116.93"/>
    </clipPath>
    <linearGradient id="linear-gradient" x1="-395.58" y1="723.3" x2="-395.22" y2="731.48" gradientTransform="matrix(1.41, 0.22, -0.26, 1.63, 975.23, -813.38)" gradientUnits="userSpaceOnUse">
      <stop offset="0" stop-color="#e8d9d7"/>
      <stop offset="0.4" stop-color="#efe5e4"/>
      <stop offset="1" stop-color="#fff"/>
    </linearGradient>
  </defs>
  <g class="cls-2">
    <g id="Layer_1" data-name="Layer 1">
      <g class="cls-3">
        <g>
          <path class="cls-4" d="M43.29,807.41c-.9-44.82-1.68-89.65-3.69-134.43-1.74-38.65-4-77.23-5.38-115.88l-61.79-45.89-1852.33-.09-48.35,130.82,25.85,230.47H45Q43.92,840,43.29,807.41Z"/>
          <g class="cls-5">
            <polyline class="cls-6" points="-1577.11 -35.37 -1145.46 62.56 41.55 60.94"/>
          </g>
        </g>
      </g>
      <g>
        <rect class="cls-7" x="30.99" y="47.48" width="557.91" height="467.47" rx="124.49"/>
        <g class="cls-8">
          <g class="cls-9">
            <rect class="cls-10" x="-3.87" y="375.38" width="666.79" height="142.29"/>
            <g class="cls-11">
              <line class="cls-12" x1="290.83" y1="380.15" x2="290.83" y2="584.8"/>
              <line class="cls-12" x1="34.83" y1="399.13" x2="584.93" y2="399.13"/>
              <line class="cls-12" x1="37.21" y1="465.28" x2="587.31" y2="465.28"/>
              <line class="cls-12" x1="425.37" y1="381.34" x2="510.51" y2="566.49"/>
              <line class="cls-12" x1="142.58" y1="390.27" x2="90.19" y2="556.96"/>
            </g>
            <rect class="cls-13" x="24.11" y="31.27" width="584.63" height="348.87"/>
            <rect class="cls-14" x="11.01" y="355.14" width="584.63" height="25"/>
            <g>
              <ellipse class="cls-15" cx="175.64" cy="453.5" rx="121.04" ry="19.6"/>
              <ellipse class="cls-15" cx="422.68" cy="459.47" rx="121.04" ry="19.6"/>
              <path class="cls-16" d="M444.24,446.72a54.46,54.46,0,0,1,31.94-5"/>
              <path class="cls-17" d="M429.7,433.7s6.92,9.4.89,17.39l32.56-8.78s-7.27-11.72-16.5-8.88C446.65,433.43,439.46,433.88,429.7,433.7Z"/>
              <path class="cls-18" d="M435.83,433.79s7.36,4.88,2.21,15.35l-6.47,1.24a14,14,0,0,0-.71-16.06Z"/>
              <g>
                <path class="cls-16" d="M443.58,447a55,55,0,0,1,32.28-5"/>
                <path class="cls-17" d="M428.9,433.86s7,9.5.89,17.57l32.9-8.87s-7.35-11.84-16.67-9C446,433.59,438.76,434,428.9,433.86Z"/>
                <path class="cls-19" d="M450.08,424.27s-6-1.68-5.5,7.17l-1.43,2.27s4.54-.48,16.26,9.8c0,0,32.75-1.07,35.86-12.31Z"/>
                <path class="cls-20" d="M446.62,425.46s.48,6,22.23,6.94,26.3-1.92,26.3-1.92,3.82-3.11-14.82-4.78S451.16,422.12,446.62,425.46Z"/>
                <polygon class="cls-21" points="462.28 442.68 463.53 438.91 468.91 439.27 467.48 442.38 462.28 442.68"/>
                <polygon class="cls-21" points="469.69 442.08 470.82 439.21 476.68 439.27 475.84 441.3 469.69 442.08"/>
                <path class="cls-22" d="M449.61,426.22s.41,4,19.09,4.63,22.58-1.28,22.58-1.28,3.29-2.08-12.73-3.19S453.51,424,449.61,426.22Z"/>
                <path class="cls-18" d="M435.08,434s7.44,4.93,2.24,15.51l-6.54,1.25a14.12,14.12,0,0,0-.72-16.22Z"/>
                <path class="cls-23" d="M372.1,438.71a28,28,0,0,0,4.3,21c7,10.22,37.12,6.46,42.68,1.26S408,424,372.1,438.71Z"/>
                <path class="cls-23" d="M414.24,441.57s-4.67,11.48-.36,18.11,18.65,15.25,65.26-2.51c0,0,6.82-7.17-.17-15.24a19.09,19.09,0,0,1-10.94-3C462.11,435.3,419.62,432.07,414.24,441.57Z"/>
                <path class="cls-24" d="M473.68,441.31s7,9.5.89,17.57l32.9-8.88s-7.35-11.83-16.67-9C490.8,441,483.54,441.48,473.68,441.31Z"/>
                <path class="cls-19" d="M494.86,431.71s-6-1.67-5.5,7.18l-1.43,2.27s4.54-.48,16.26,9.8a78.82,78.82,0,0,0,35.94-12.8.25.25,0,0,0-.11-.46Z"/>
                <path class="cls-25" d="M491.4,432.91s.47,6,22.23,6.93,26.3-1.91,26.3-1.91,3.82-3.11-14.82-4.78S495.94,429.56,491.4,432.91Z"/>
                <path class="cls-25" d="M494.39,433.66s.41,4,19.09,4.63S536.06,437,536.06,437s3.29-2.07-12.73-3.19S498.29,431.43,494.39,433.66Z"/>
                <path class="cls-26" d="M479.86,441.4s7.44,4.93,2.24,15.51l-6.54,1.25a14.14,14.14,0,0,0-.72-16.23Z"/>
              </g>
              <g>
                <path class="cls-27" d="M475.23,375.26s18.7,14.44,12.07,36L473.1,440.8s-14.19-3.31-27.68,2.13-35.07,13.76-50.69,6.43-22.89-7.85-22.18-4.77c0,0-5.92-3.79,8.28-15.14,0,0,12.91-16.31,25-24.59l14.18-12S470.14,397.22,475.23,375.26Z"/>
                <path class="cls-28" d="M396.51,423.74s9.67,18.71,28.49,8.05,25.15-21.15,40.81-20.4c0,0-9.83-8.42-43.15,18.06C422.66,429.45,407.83,437.68,396.51,423.74Z"/>
              </g>
              <g>
                <path class="cls-29" d="M482.15,268.26s5,22.33.27,37.15c-7.25,22.46-29.37,30.94-32.83,5.51-1.42-10.44,14.1-19.2,12-31.08S477.36,246.12,482.15,268.26Z"/>
                <path class="cls-29" d="M383.37,278.48s6.74,11.59,4.49,29.84,20.83,24.87,27.54,17.62,30.71-9.4,42-5.43,25.06-32.15,5.93-40.81S383.37,278.48,383.37,278.48Z"/>
              </g>
              <g>
                <g>
                  <g>
                    <path class="cls-23" d="M356.08,373.59s10.23-3.32,24.63-6.43c1.91-.42,8-5.08,12.5-12.84a39.66,39.66,0,0,0,2.36-4.8l.81.79a75.1,75.1,0,0,0,12.63,9.9l1.93,1.21s-.51,1-1.36,2.6c-3.08,5.72-10.62,19-14.8,19.7a110.55,110.55,0,0,1-39.67-.41"/>
                    <path class="cls-30" d="M411,360.9s-.72,1.6-1.57,3.19c-7.72-.35-13-5.8-16-9.68a39.66,39.66,0,0,0,2.36-4.8l.81.79a75.17,75.17,0,0,0,12.64,9.9Z"/>
                  </g>
                  <g>
                    <path class="cls-23" d="M358.87,372.8a28.48,28.48,0,0,1-8.89-7.94c-4.19-5.6-6-7.19-6-7.19s-9.16-5.05-19.94,3.79c0,0,.14,3.44,4.87,2.18,0,0-8,5-6,10.68,0,0,1.17,1.52,2.94-.08,0,0-1.81,2.93.22,4s6.16-4.56,10.28-5.34a7.05,7.05,0,0,1,.89,1.2,12.15,12.15,0,0,0-6,5.69c-1.91,4.1,1.33,3.34,2.51,2.17a63.89,63.89,0,0,1,5.16-4,9.42,9.42,0,0,1,5.16,1.82c2.26,1.79,4.36,7.09,12.78,3.37"/>
                    <path class="cls-23" d="M326,374.11s2.2-4.87,8.9-6.61"/>
                    <path class="cls-23" d="M327.25,364.94a10.45,10.45,0,0,1,8.27-2.5"/>
                    <path class="cls-23" d="M336.22,361.4s-3.91,7.49,1.25,13"/>
                    <path class="cls-23" d="M351.87,368.78s-4.58.58-8.63-4.41l-3.8-4.13a.83.83,0,0,0-1.06-.18c-.59.41-1.12,1.64.23,5.34,0,0,2.34,5.2,6,5.78,0,0-1.46,2.67,1.32,5.9s3.41,3.43,5.69,2.53"/>
                  </g>
                </g>
                <path class="cls-24" d="M410.17,324.16s-14.52,18.18-16.06,24.73c0,0-.9,4.68,10.54,10.53,0,0,3.45,2.4,7.17,1.83l7-16.2"/>
                <path class="cls-24" d="M423.13,316.93s-10,13.41-11.57,20c0,0-.9,4.67,10.54,10.53,0,0,22.51-4.16,26.23-4.73L444,322"/>
              </g>
              <path class="cls-23" d="M442.86,318.48c-6.88,12.67-18.56,6.83-20.22,1.94a3,3,0,0,1-.08-1.91c1.55-4.85-1.53-10.74-1.53-10.74,2.19-11.75,22-13.16,22-13.16-4.21,7.62-.49,8.9-.49,8.9-2.79,5.32,1.39,11.07,1.2,12.26A5.94,5.94,0,0,1,442.86,318.48Z"/>
              <g>
                <path class="cls-31" d="M427.8,322.8c.65-.33,2.85-2.42,7.77-1s-.58,7.81-.58,7.81l-5.25.42S422.33,325.61,427.8,322.8Z"/>
                <path class="cls-31" d="M443.74,357.08c-.09.41-.17.81-.27,1.21h0c-2.9,12.41-8.77,19-8.77,19a67.1,67.1,0,0,1-5.61-7.3c-.81-1.26-1.45-2.35-1.95-3.31a17,17,0,0,1-1.72-4.27c-.05-1.52-.07-3-.07-4.38s0-2.58.06-3.8c.12-3.49.37-6.6.71-9.33.17-1.38.36-2.67.57-3.86,1.31-7.7,3.08-11.51,3-12.05-.36-1.52,5.57-1.45,5.57-1.45a58.55,58.55,0,0,0,1.48,7.7q.33,1.29.69,2.61c.7,2.54,1.49,5.12,2.27,7.54l.8,2.46c1,2.92,1.88,5.45,2.49,7.13C443.44,356.29,443.74,357.08,443.74,357.08Z"/>
              </g>
              <path class="cls-27" d="M409.08,325.25c3.46-5.2,5-4.14,11.86-6.73-2.05,4.55-2.05,17.63-1,20.91s7.63,7.63,22.9-2.18c2.18-4.37,1.53-24,1.53-24,27.17,6.73,29,23.12,32.54,34.28s6.28,38.79,6.28,38.79C452.85,405.62,426,395,426,395c-10.33,10.91-10-21.9-15.62-40.78C406.89,342.7,406.89,328.52,409.08,325.25Z"/>
              <g>
                <path class="cls-31" d="M482.14,379.78l1.39,7.9s-6.74,11.05-29.28,15.44-36.45-5.9-36.45-5.9l-.14-6.18s14.28,7.23,29.78,5.36C477.53,392.77,482.14,379.78,482.14,379.78Z"/>
                <path class="cls-27" d="M441.8,397.94s0,0,0,0c0,.31,1.27,6.55,1.34,6.88,0,0,0,0,0,0l2.87,0s0,0,0,0l-1.35-7.17A19.86,19.86,0,0,0,441.8,397.94Z"/>
                <path class="cls-27" d="M465.35,391.66c-.33.1-2.22,1.17-2.22,1.17s1.89,7.5,1.89,7.5l2.87-1.35Z"/>
              </g>
              <path class="cls-32" d="M443.42,316.39c-8.8,6.93-16,5.73-20.49,4.25a6,6,0,0,1-.17-2.75c1.55-4.85-1.85-10.26-1.85-10.26,2.19-11.76,22-13.16,22-13.16-4.21,7.62-1.2,16.12-1.2,16.12C442,312.77,443.6,315.21,443.42,316.39Z"/>
              <g>
                <path class="cls-24" d="M431.38,321.08c-.47.21,7.7,8.2,7.7,8.2s6.1-3.27,7.21-14.42l-4.23-3.44S440.38,317.09,431.38,321.08Z"/>
                <path class="cls-24" d="M428.75,321.29c.48.17-3.2,9.95-3.2,9.95s-3.71-.1-6.56-10.93l1.4-4.52S420.6,318.42,428.75,321.29Z"/>
              </g>
              <g>
                <g>
                  <path class="cls-23" d="M378.5,264.17s5.33,13,7,23.81c1.46,9.55,4.86,23,25.28,29.06,6.83,2,8.48,3.27,15.38,1.5,10.27-2.63,28-13.33,33.14-32.13,0,0-1.49-30.48-12.18-44.84,0,0,1.85-21.62-38.15-18.84S378.5,264.17,378.5,264.17Z"/>
                  <path class="cls-32" d="M425.23,232.92a22.81,22.81,0,0,1-4.14,11.19c-4.38,6.48-11.79,12-20.89,11.85l.07-3.46s-5.23,7.84-10.76,2.33l2.29-5.27s-1.19,6.89-9.56,10.82,1.09-20,1.09-20L403.52,227,429,224.2l13.59,7,16,22.84-.86,14.63,2,11s-3.72-3-6.56-15S434.54,252.31,425.23,232.92Z"/>
                </g>
                <g>
                  <path class="cls-33" d="M413.35,287.5c-3.9,6.36-10.79,2.87-11,.89,0,0-1-1.11,1.46-5.24,1.91-3.26-1-6.74-1-6.74"/>
                  <path class="cls-34" d="M413.39,287.52a8.66,8.66,0,0,1-2.21,2.54,6.36,6.36,0,0,1-3.15,1.25,7.12,7.12,0,0,1-3.38-.49,6,6,0,0,1-1.52-.87,2.59,2.59,0,0,1-1.06-1.53l.08.17a1.63,1.63,0,0,1-.28-1,4.83,4.83,0,0,1,.07-.86,8.54,8.54,0,0,1,.47-1.61,13.59,13.59,0,0,1,.7-1.49l.41-.71a5.86,5.86,0,0,0,.32-.67,4.89,4.89,0,0,0,.19-3,9.33,9.33,0,0,0-1.24-2.89l.06-.05a7.66,7.66,0,0,1,1.67,2.8,5.22,5.22,0,0,1,0,3.36,4.31,4.31,0,0,1-.35.79l-.39.69c-.23.47-.48.93-.69,1.41a9,9,0,0,0-.49,1.46,3.64,3.64,0,0,0-.09.72,1.37,1.37,0,0,0,.09.58l.07.13v0a2.09,2.09,0,0,0,.8,1.17,5.69,5.69,0,0,0,1.36.83,6.71,6.71,0,0,0,3.16.57,6,6,0,0,0,3.05-1.06,8.35,8.35,0,0,0,2.27-2.39Z"/>
                </g>
                <path class="cls-29" d="M414.75,259s-.77-2.83,3.69-3.73,11.45,2.61,12.51,5.63C431,260.87,420.72,256,414.75,259Z"/>
                <path class="cls-29" d="M392.91,263.57a3.72,3.72,0,0,0-4-2.11c-3.07.32-6.86,4-6.92,6.17C382,267.63,388.46,262.89,392.91,263.57Z"/>
                <g>
                  <path class="cls-35" d="M427.64,294.44c-1.08,3-4.64,12.47-11.72,14.47-4.28,1.21-6.94-2.08-9.39-4.38-.63-.59-1.24-1.22-1.85-1.86h0c-.31-.32-.61-.64-.92-.95a24.24,24.24,0,0,0-2.58-2.31h0c-.22-.16-.44-.32-.67-.46a2,2,0,0,0-.27-.17s7,2.79,25.36-4.33l1.51-.72.59-.28.34-.16S427.9,293.73,427.64,294.44Z"/>
                  <path class="cls-36" d="M408.88,305.71a5,5,0,0,1,4.09-1.63,9.77,9.77,0,0,1,7.14.1S414.68,309.13,408.88,305.71Z"/>
                  <path class="cls-7" d="M427.69,293.45c-7.43,9-15.33,10.34-19.87,9.67-1.95-.28-2.37-3.58-5.44-3.27a9,9,0,0,1-1.88-.9,2,2,0,0,0-.27-.17s7,2.79,25.36-4.33l1.51-.72Z"/>
                  <path class="cls-37" d="M427.64,294.44c-1.08,3-4.64,12.47-11.72,14.47-4.28,1.21-6.94-2.08-9.39-4.38C414.46,309.49,420.21,307,427.64,294.44Z"/>
                  <path class="cls-37" d="M427.1,293.73c-13.28,9.11-22.39,7.11-25.92,5.68h0l-.08,0a6.72,6.72,0,0,0-.59-.43,2,2,0,0,0-.27-.17s7,2.79,25.36-4.33Z"/>
                  <path class="cls-36" d="M426.86,292.19s2.36,0,1.74,2.59C428.6,294.78,429.63,291.34,426.86,292.19Z"/>
                  <path class="cls-36" d="M400.55,297.88s-1.33.6-.13,2.37C400.42,300.25,398.53,298.59,400.55,297.88Z"/>
                </g>
                <path class="cls-29" d="M427.15,230.25s.62,1.5-8,13.76c-7.25,10.38-19.42,9.36-19.42,9.36s4.53-6.35,3.36-12.06c0,0-2.92,14.34-11.82,14,0,0,2.93-6.81.91-11.1,0,0-2.58,8.83-7.8,11.37s-4.19,11.91-4.19,11.91-20.43-10-2-42.13c.11-.18,7.83-16.6,32.36-23.75,32.11-9.37,57,4.6,67.11,27.4s6.19,54.44,6.19,54.44-10.58,18.46-23.2.58l-1.35-3.79s-3.14-1.91-5.3-15.75S428.45,245,427.15,230.25Z"/>
                <g>
                  <g>
                    <g>
                      <path class="cls-33" d="M455.81,289.18c2.29.7,9.52-.37,12.61-5.32,9.83-15.72-.13-21.52-6.38-19.64-1.57.48-7,2.84-7.57,11.8"/>
                      <path class="cls-34" d="M455.81,289.18a9.37,9.37,0,0,0,3.54-.11,16.48,16.48,0,0,0,3.38-1,11.72,11.72,0,0,0,5.36-4.3,32.18,32.18,0,0,0,3.12-6.34,14.31,14.31,0,0,0,.85-6.86,7.3,7.3,0,0,0-3.8-5.39,8.26,8.26,0,0,0-6.67-.46,10.07,10.07,0,0,0-5.13,4.55,16.71,16.71,0,0,0-2,6.77,16.1,16.1,0,0,1,1.65-7,10.61,10.61,0,0,1,5.25-4.92,8.82,8.82,0,0,1,7.21.42,8,8,0,0,1,4.19,5.87,14.52,14.52,0,0,1-.87,7.22,32.35,32.35,0,0,1-3.24,6.47,10.37,10.37,0,0,1-2.53,2.67,14.43,14.43,0,0,1-3.22,1.71,15.34,15.34,0,0,1-3.52.86A9,9,0,0,1,455.81,289.18Z"/>
                    </g>
                    <path class="cls-30" d="M458,278.87s-1.28-10.14,6-10.05c6.3.08,3.85,13.23-2.78,16.86,0,0-2.5,1-.17-4.32S458,278.87,458,278.87Z"/>
                  </g>
                  <path class="cls-38" d="M458.72,287s-3.78,8.65.88,10,2.64-7.88,2.53-8.4h0c-.06.44-1,6.9-2.17,2.74Z"/>
                </g>
                <g>
                  <path class="cls-39" d="M430.85,271.2c.88,4.52-1.69,8.82-5.73,9.6s-8-2.23-8.92-6.74,1.68-8.81,5.73-9.6S430,266.69,430.85,271.2Z"/>
                  <ellipse class="cls-29" cx="420.98" cy="275.09" rx="4.2" ry="4.55" transform="translate(-44.85 85.62) rotate(-11.03)"/>
                </g>
                <g>
                  <path class="cls-39" d="M400.07,277.15c.88,4.52-1.41,8.76-5.11,9.48s-7.41-2.35-8.29-6.87a9.82,9.82,0,0,1-.15-2.74c0-.35.08-.7.14-1,.58-2.9,2.49-5.19,5.12-5.7,3.13-.62,6.28,1.51,7.7,4.92l.18.46A10.07,10.07,0,0,1,400.07,277.15Z"/>
                  <path class="cls-29" d="M394.21,279.67c.45,2.34-.8,4.55-2.8,4.94s-4-1.19-4.44-3.53.79-4.54,2.79-4.93S393.75,277.34,394.21,279.67Z"/>
                </g>
              </g>
              <path class="cls-7" d="M394.94,277.28a1.23,1.23,0,1,1-1.47-1.17A1.33,1.33,0,0,1,394.94,277.28Z"/>
              <ellipse class="cls-7" cx="424.38" cy="271.92" rx="1.22" ry="1.43" transform="translate(-44.18 86.21) rotate(-11.03)"/>
              <g>
                <g>
                  <path class="cls-40" d="M334,340.37s.11,1.22.09,3.12c-.05,4.95-1,14.48-7.12,19.07-6.46,4.85-14.68,6.1-18.94,2.52a7.94,7.94,0,0,1-2.67-4.79c-1.18-6.28,2.8-8.42,7.11-9.84,1.73-.58,3.52-1,5.05-1.6,3.72-1.39,5.28-5.2,5.88-7.34h0a11.36,11.36,0,0,0,.34-1.51c.26-2.46,1.59-4.75,5.79-4.84S334,340.37,334,340.37Z"/>
                  <path class="cls-41" d="M334.12,343.49c-.05,4.95-1,14.48-7.12,19.07-6.46,4.85-14.68,6.1-18.94,2.52,9.45,4,14.56-8.56,11.19-12.8-1.67-2.11-4.36-2.26-6.75-1.83,1.73-.58,3.52-1,5.05-1.6,3.72-1.39,5.28-5.2,5.88-7.34l.69.69s-4.54,6.57-1.81,8.24c7.13,4.5,9.22-7,9.22-7Z"/>
                  <path class="cls-42" d="M306.64,359.84c.64-2.25,6.44.58,5.78,3.72S305.7,363.18,306.64,359.84Z"/>
                </g>
                <g>
                  <path class="cls-40" d="M347.9,337.38s.51,1.11,1.47,2.76c2.49,4.27,8,12.08,15.62,13,8,1,15.78-2,17.71-7.19a7.94,7.94,0,0,0-.05-5.48c-2.09-6-6.61-5.93-11-5-1.79.37-3.57.85-5.18,1.11-3.92.64-7.17-1.89-8.75-3.46h0a11.63,11.63,0,0,1-1-1.14c-1.45-2-3.74-3.34-7.44-1.34S347.9,337.38,347.9,337.38Z"/>
                  <path class="cls-41" d="M349.37,340.14c2.49,4.27,8,12.08,15.62,13,8,1,15.78-2,17.71-7.19-6.22,8.16-16.89-.23-16.06-5.58.41-2.66,2.67-4.13,5-4.94-1.79.37-3.57.85-5.18,1.11-3.92.64-7.17-1.89-8.75-3.46l-.25.94s7.19,3.46,5.65,6.27c-4,7.44-11.48-1.53-11.48-1.53Z"/>
                  <path class="cls-42" d="M381.34,340.74c-1.67-1.65-5.3,3.69-3.18,6.09S383.81,343.17,381.34,340.74Z"/>
                </g>
                <g>
                  <path class="cls-43" d="M327.23,342.74c-4.08,10.45-3.89,21.48-.63,32.94,3.73,14.09,49.39,2,45.66-12.1C368.05,351,361.84,341.1,352.69,335Z"/>
                  <path class="cls-41" d="M352.69,335l-25.46,7.77c-4.08,10.45-3.89,21.48-.63,32.94,3.73,14.09,49.39,2,45.66-12.1C368.05,351,361.84,341.1,352.69,335Zm15.36,24.36c2.75,12.52-36.37,23.91-40.43,7.29-2.53-12.58,1.52-17.53,1.52-17.53,2.76-3.82,8.81-3.82,9.77-1.91s-1,6.09,4,6.83,8.31-5.29,9-10.28a25,25,0,0,0,4.13-1.2S365.31,346.81,368.05,359.33Z"/>
                  <path class="cls-44" d="M348.05,359.47c9.11-2.41,13.88-.19,13.08,2.76s-19.17,8.87-22.22,6.34S338.53,362,348.05,359.47Z"/>
                </g>
                <g>
                  <path class="cls-45" d="M355.22,332s-1.29,7.65-16.44,11.67a31,31,0,0,1-5.77,1c-10.31.73-12.92-5.64-12.92-5.64l9.56-1.91Z"/>
                  <path class="cls-41" d="M355.22,332s-1.29,7.65-16.44,11.67a31,31,0,0,1-5.77,1,39.22,39.22,0,0,1-3.36-7.55Z"/>
                </g>
                <g>
                  <path class="cls-43" d="M356.89,299.26c.37-2.19,1.4-10.51-3.78-12.7-4.31-1.82-8.31.54-10.2,2a23,23,0,0,0-15.57-1,27.2,27.2,0,0,0-15.25,8.74c-2.82-.3-7.08,0-9.55,3.66-3.22,4.76,1.63,9.34,3.51,10.85-.62,5.3-.15,11.78,2,19.71,5.68,21.45,62.79,7.51,56.73-15.37A43.13,43.13,0,0,0,356.89,299.26Z"/>
                  <g>
                    <path class="cls-41" d="M314.77,296.38A29.45,29.45,0,0,1,326.49,290a24.51,24.51,0,0,1,14.78-.23c.42-.4.9-.82,1.41-1.25a23.06,23.06,0,0,0-15.34-.92,27.31,27.31,0,0,0-14.92,8.36C313.24,296,314,296.21,314.77,296.38Z"/>
                    <path class="cls-41" d="M356.89,299.26a26.94,26.94,0,0,0,.33-3.36,26.89,26.89,0,0,1-1.81,4.51,39.22,39.22,0,0,1,5.89,12.3c4.11,14.66-48.05,29.25-51.65,13.68a52.06,52.06,0,0,1-1.55-14.86c-3-1.63-7-4.78-6.36-9.94-1.34,4.14,2.65,7.88,4.31,9.22-.62,5.3-.15,11.78,2,19.71,5.68,21.45,62.79,7.51,56.73-15.37A43.13,43.13,0,0,0,356.89,299.26Z"/>
                  </g>
                  <path class="cls-40" d="M318.05,296.38a.34.34,0,0,0,0,.1,2.36,2.36,0,0,1-.1.53,2.71,2.71,0,0,1-3.58,1.85c-2.89-1.1-7.3-2-9.61,1.71s.73,7.24,3.12,9.15a3,3,0,0,1,1.1,2,2.9,2.9,0,0,1-1.2,2.69l-.07.05a3.94,3.94,0,0,1-3.25.53c-9.79-2.69-10.88-13.11-6.76-19.75,3.56-5.74,10.94-6.69,16.25-4.91A6,6,0,0,1,318.05,296.38Z"/>
                  <path class="cls-41" d="M318.05,296.38a.34.34,0,0,0,0,.1,2.36,2.36,0,0,1-.1.53,10.22,10.22,0,0,0-1.85-4.07c-1.92-2.74-14.74-3.29-17.26,5.94s2.89,14.14,6.63,14.69a3,3,0,0,0,3.51-1.84,2.9,2.9,0,0,1-1.2,2.69l-.07.05a3.94,3.94,0,0,1-3.25.53c-9.79-2.69-10.88-13.11-6.76-19.75,3.56-5.74,10.94-6.69,16.25-4.91A6,6,0,0,1,318.05,296.38Z"/>
                  <path class="cls-40" d="M338,291.1l.06.09a2.3,2.3,0,0,0,.35.41,2.72,2.72,0,0,0,4-.16c2-2.4,5.37-5.33,9.19-3.28s3,6.65,1.83,9.5a3,3,0,0,0,0,2.28,2.89,2.89,0,0,0,2.38,1.75h.08a3.94,3.94,0,0,0,3.08-1.15c7.18-7.19,3-16.77-3.9-20.51-5.94-3.22-12.82-.39-16.54,3.78A6,6,0,0,0,338,291.1Z"/>
                  <path class="cls-41" d="M338,291.1l.06.09a2.3,2.3,0,0,0,.35.41,10.23,10.23,0,0,1-.41-4.45c.31-3.34,11.18-10.16,17.94-3.39s4.49,13.72,1.51,16.05a3,3,0,0,1-4,.13,2.89,2.89,0,0,0,2.38,1.75h.08a3.94,3.94,0,0,0,3.08-1.15c7.18-7.19,3-16.77-3.9-20.51-5.94-3.22-12.82-.39-16.54,3.78A6,6,0,0,0,338,291.1Z"/>
                  <path class="cls-44" d="M327.69,292.09c9-2.37,18.34,1.36,1.7,5.77S318.08,294.64,327.69,292.09Z"/>
                  <g>
                    <path class="cls-41" d="M320.91,307.45c5.28-3.08,11.37,13.16,7.19,15.68S315.84,310.41,320.91,307.45Z"/>
                    <path class="cls-46" d="M321.7,309.19c4.1-2.39,8.84,10.24,5.59,12.2S317.75,311.5,321.7,309.19Z"/>
                  </g>
                  <g>
                    <path class="cls-41" d="M341.56,302c-6.11-.06-3.36,17.06,1.52,17.18S347.44,302,341.56,302Z"/>
                    <path class="cls-46" d="M341.74,303.88c-4.75-.05-2.62,13.27,1.18,13.37S346.31,303.93,341.74,303.88Z"/>
                    <path class="cls-7" d="M342.63,305.65c-1.74.14-1.38,3.45,0,3.35S344.3,305.52,342.63,305.65Z"/>
                    <path class="cls-7" d="M323.65,310.68c-1.73.14-1.38,3.44,0,3.35S325.32,310.55,323.65,310.68Z"/>
                  </g>
                  <path class="cls-47" d="M347.8,326c.5,4.49-17.65,10.33-19.82,4.05a9.56,9.56,0,0,1,3.07-10.58,9.77,9.77,0,0,1,3.7-2,10,10,0,0,1,8,1.2A10.75,10.75,0,0,1,347.8,326Z"/>
                  <path class="cls-46" d="M335.09,318.51c3.65-1.25,4.93.52,5.42,2.79s-7.55,4.28-8.14,2S332.15,319.51,335.09,318.51Z"/>
                  <path class="cls-41" d="M347.8,326c.5,4.49-17.65,10.33-19.82,4.05a9.56,9.56,0,0,1,3.07-10.58,10.85,10.85,0,0,0-1.22,7.86c1.19,5.17,16.18,2.91,15.13-3.66a10,10,0,0,0-2.21-5A10.75,10.75,0,0,1,347.8,326Z"/>
                  <path class="cls-48" d="M332.68,321.94a4.11,4.11,0,0,0,3.62.41,6,6,0,0,0,3.26-2.57s2,2.54-2.86,3.75S332.68,321.94,332.68,321.94Z"/>
                  <path class="cls-49" d="M333.9,320.08a4.27,4.27,0,0,1,3.82-1.13A3.51,3.51,0,0,1,333.9,320.08Z"/>
                </g>
                <g>
                  <path class="cls-50" d="M350.3,336.29l1.19,4.48s-.63,6.67-4.06,10.09-8.46,0-6.1-5.34c-3.73-.73-8.38-5.32-6.31-8.72a4.77,4.77,0,0,1,1.41-1.48h0c2.09-1.41,5.11-1.19,7.39-.7a20.44,20.44,0,0,1,3.2.95Z"/>
                  <path class="cls-50" d="M369,335.12c.61,3.6-6,7.52-14.43,4.16-1.92-1.66-2.85-6.44-2.85-6.44,0-.38,0-5.38,2.23-8.78a6.42,6.42,0,0,1,4.67-3.09,2.77,2.77,0,0,1,.82,0c4,.92,4.21,11.17,4.21,11.17S368.33,331.51,369,335.12Z"/>
                  <path class="cls-41" d="M350.3,336.29l1.19,4.48s-.63,6.67-4.06,10.09-8.46,0-6.1-5.34c-3.73-.73-8.38-5.32-6.31-8.72a4.77,4.77,0,0,1,1.41-1.48,3.49,3.49,0,0,0-.66,3.45c1.41,4.88,7.94,4.52,7.94,4.52s-2.77,7.24,2,6.1,4.64-7.05,2.68-11a8.28,8.28,0,0,0-4.53-3.79,20.44,20.44,0,0,1,3.2.95Z"/>
                  <path class="cls-41" d="M369,335.12c.61,3.6-6,7.52-14.43,4.16-1.92-1.66-2.85-6.44-2.85-6.44,0-.38,0-5.38,2.23-8.78a15.74,15.74,0,0,0,.52,10.11c2.54,5.72,8.63,4.56,10.63,3.92s2.8-5-2.79-4.51c.56-7-.82-11.24-2.87-12.56,4,.92,4.21,11.17,4.21,11.17S368.33,331.51,369,335.12Z"/>
                  <path class="cls-45" d="M347,335.56a5.34,5.34,0,0,1,4.65-2.72c2.84,2.1,2.85,6.44,2.85,6.44l-3,1.49S349.45,336.51,347,335.56Z"/>
                  <path class="cls-41" d="M351.67,332.84a5.34,5.34,0,0,0-4.65,2.72c2.43.95,4.47,5.21,4.47,5.21l3-1.49S354.51,334.94,351.67,332.84Zm.88,5.21-.11.05a1.24,1.24,0,0,1-1.46-.49A11.79,11.79,0,0,0,349.7,336a1.22,1.22,0,0,1,.2-1.86,3.75,3.75,0,0,1,.77-.4,1.21,1.21,0,0,1,1.28.36,7.07,7.07,0,0,1,1.3,2.43A1.22,1.22,0,0,1,352.55,338.05Z"/>
                </g>
                <g>
                  <path class="cls-40" d="M342.89,388s-7.13-3.92-10.19-9.82a10.57,10.57,0,0,1-.88-8.26,10.35,10.35,0,0,1,7.4.92,12.81,12.81,0,0,1,3.49,2.7C347.82,379.08,342.89,388,342.89,388Z"/>
                  <path class="cls-41" d="M342.89,388s-7.13-3.92-10.19-9.82l2.94-5.05s4.92,3.49,6,1.95c.61-.87-.94-2.76-2.41-4.24a12.81,12.81,0,0,1,3.49,2.7C347.82,379.08,342.89,388,342.89,388Z"/>
                  <path class="cls-51" d="M337.91,392.32c-9.76,4.07-16.86-2-20.28-11.06-1.88-5-2.61-8.95-2.4-11.87a9.28,9.28,0,0,1,.54-2.67,4.93,4.93,0,0,1,1.72-2.33c4.23-2.95,11.18.36,16.39,4.62a32,32,0,0,1,4.56,4.52,17.44,17.44,0,0,1,1.22,1.66C343.38,381.05,347.68,388.25,337.91,392.32Z"/>
                  <path class="cls-41" d="M337.91,392.32c-9.76,4.07-16.86-2-20.28-11.06-1.88-5-2.61-8.95-2.4-11.87.91,4.41,4.68,16.1,11.44,19.51,8.31,4.2,14.22-.22,13.85-5.49-.33-4.66-1.1-8.31-6.64-14.4a28.61,28.61,0,0,1,5.78,6.18C343.38,381.05,347.68,388.25,337.91,392.32Z"/>
                  <path class="cls-44" d="M338.44,373.53c-2.6-2.33-8.12-6.8-13.87-8.5-4.93-1.47-7.53.21-8.8,1.69a4.93,4.93,0,0,1,1.72-2.33c4.23-2.95,11.18.36,16.39,4.62A32,32,0,0,1,338.44,373.53Z"/>
                </g>
                <g>
                  <path class="cls-40" d="M365.3,382.1s4.25-6.94,4-13.57a10.63,10.63,0,0,0-3.32-7.62,10.33,10.33,0,0,0-6,4.47,12.63,12.63,0,0,0-1.69,4.07C356.58,376.76,365.3,382.1,365.3,382.1Z"/>
                  <path class="cls-41" d="M365.3,382.1s4.25-6.94,4-13.57l-5.05-2.94s-2.55,5.47-4.25,4.67c-.95-.46-.54-2.87,0-4.88a12.63,12.63,0,0,0-1.69,4.07C356.58,376.76,365.3,382.1,365.3,382.1Z"/>
                  <path class="cls-51" d="M371.74,383.36c10.5-1.3,13.65-10.12,12.15-19.66-.82-5.23-2.17-9.06-3.79-11.5a9.46,9.46,0,0,0-1.8-2.05,4.87,4.87,0,0,0-2.65-1.17c-5.13-.47-9.53,5.85-11.95,12.13a32.49,32.49,0,0,0-1.73,6.18c-.12.73-.19,1.42-.23,2C361.41,376.28,361.24,384.66,371.74,383.36Z"/>
                  <path class="cls-41" d="M371.74,383.36c10.5-1.3,13.65-10.12,12.15-19.66-.82-5.23-2.17-9.06-3.79-11.5,1.39,4.29,3.9,16.31-.29,22.63-5.13,7.75-12.45,6.84-14.74,2.08-2-4.22-3.17-7.77-1.37-15.8a28.49,28.49,0,0,0-2,8.23C361.41,376.28,361.24,384.66,371.74,383.36Z"/>
                  <path class="cls-44" d="M362,367.29c1.11-3.31,3.7-9.92,7.85-14.25,3.56-3.72,6.65-3.54,8.48-2.89a4.87,4.87,0,0,0-2.65-1.17c-5.13-.47-9.53,5.85-11.95,12.13A32.49,32.49,0,0,0,362,367.29Z"/>
                </g>
              </g>
              <g>
                <path class="cls-52" d="M462.9,366.81c2.13-.45-1.73-9.08-8.06-12.46s-13-5.65-14-3.74,2.42,7.93,8.75,11.31S459.16,367.59,462.9,366.81Z"/>
                <path class="cls-23" d="M386.2,343c4.45,6.38,12.44,15.37,12.44,15.37,8,9.84,30,14.36,30,14.36l12.25-18.41,2.69-4c15.27,1.84,18.15,11.67,18.15,11.67-1.29,2.4-2.6,4.65-3.89,6.76C446.07,387.86,435,395.29,435,395.29c-14.2-1.27-33.77-18.73-39.81-23.65s-8.57-8.95-13.79-8.76"/>
                <g>
                  <path class="cls-33" d="M427.72,372.43s4.73,1.74,6.24,10.79"/>
                  <path class="cls-34" d="M427.85,372.08a8.09,8.09,0,0,1,2.61,2.14A13.21,13.21,0,0,1,432.2,377a18,18,0,0,1,1.12,3.05l.37,1.58.27,1.59-.36-1.57-.46-1.54a18.24,18.24,0,0,0-1.27-2.94,12.69,12.69,0,0,0-1.83-2.58,7.42,7.42,0,0,0-2.44-1.8Z"/>
                </g>
                <path class="cls-30" d="M461.78,361.59c-1.3,2.4-2.56,4.47-3.86,6.58-2.8-6.78-12.26-11.63-16.68-13.81l2.68-4C459.2,352.16,461.78,361.59,461.78,361.59Z"/>
                <path class="cls-24" d="M474.35,347.68,463,366.56a.14.14,0,0,1-.25,0c-9.52-13.72-22-15.94-22-15.94a183.14,183.14,0,0,0,9.76-15.88s1.19-7.29,5.85-10.88c0,0,6.11-4.05,11.56,2.49S476.37,342.84,474.35,347.68Z"/>
                <g>
                  <g>
                    <line class="cls-23" x1="376.18" y1="347.33" x2="377.65" y2="346.96"/>
                    <g>
                      <path class="cls-33" d="M365.72,347.44s1.74-1,4.5,1.33"/>
                      <path class="cls-34" d="M365.72,347.44a1.87,1.87,0,0,1,1.22-.49,3.06,3.06,0,0,1,1.31.2,4,4,0,0,1,1.13.65,3.72,3.72,0,0,1,.84,1c-.82-.3-1.51-.66-2.23-.92a6.7,6.7,0,0,0-1.08-.32A4.57,4.57,0,0,0,365.72,347.44Z"/>
                    </g>
                    <path class="cls-34" d="M368.49,348.45a15.67,15.67,0,0,0,3.06.16,14.25,14.25,0,0,0,3-.4,16.79,16.79,0,0,0,2.74-1.08,22.94,22.94,0,0,0,2.62-1.52l.07.07a6.08,6.08,0,0,1-2.21,2.32,8,8,0,0,1-3.06,1,14.58,14.58,0,0,1-6.24-.46Z"/>
                    <path class="cls-23" d="M393,369.91c-4.64-3.87-5.74-4.27-5.74-4.27-1.4,2-10.23,2.71-14.51.52-4-2-3.11-4.45-3.11-4.45-4.32-3.4-1.93-5.34-1.93-5.34-4.16-3.27-1.23-5.66-1.23-5.66-1.82-1.54-2.13-4.27-.32-5.58S374,346.2,374,346.2l.89.21s1.67-7.66,7.66-5.76a15,15,0,0,1,7.87,5.41s5.47,11.17,11.34,15.14"/>
                    <path class="cls-23" d="M365.66,350.1a9.27,9.27,0,0,0,6.83,2.31"/>
                    <path class="cls-23" d="M367.24,355.83s1.3,1.9,6.46,1.87"/>
                    <path class="cls-23" d="M369.07,361.23s1.54,1.58,6.09,1.34"/>
                  </g>
                  <path class="cls-23" d="M381.37,346.37a56.09,56.09,0,0,0-6.46,0"/>
                </g>
              </g>
              <path class="cls-53" d="M347.17,457.8s16.84,7-25.8,10.34-74.38,10.07-91.68,2.31c0,0-8.42-3.91-14.07-6.56,0,0-9.23-4.9-15-.14-14.55,14.63-43.25,5.08-44.72-13.9,0,0-21.17,3.16-23-6.6l63.87-10.76,44,11.47S345.38,446,347.17,457.8Z"/>
              <g>
                <path class="cls-54" d="M149.12,448s.71-7.91-.74-9"/>
                <g>
                  <path class="cls-55" d="M141.22,416.87a31,31,0,0,1,3.59,3.48"/>
                  <path class="cls-56" d="M141.22,416.87a5.93,5.93,0,0,1,2.12,1.41,6.66,6.66,0,0,1,1.47,2.07,8.73,8.73,0,0,1-2-1.54A10.49,10.49,0,0,1,141.22,416.87Z"/>
                </g>
              </g>
              <path class="cls-57" d="M238.35,462.82c-2.76,16.24-24.27,12.57-36,0C141.9,398.31,238.58,454,238.35,462.82Z"/>
              <g>
                <path class="cls-24" d="M164.23,347l-4.32,49c49.69,42.79,86.68,3.36,86.68,3.36-3.31-24.51,1.55-56.49,1.55-56.49,3.25-1.94,2.79-3.88,2.79-3.88l6.87-22.46-12.21-15.28C212,292,219.9,290.53,185.1,297.88l-20.87,27.39Z"/>
                <path class="cls-58" d="M283.74,327.77a5.18,5.18,0,0,1-.45,3.68L280.06,328Z"/>
              </g>
              <g>
                <g>
                  <g>
                    <path class="cls-25" d="M156.91,416.4c-2.31-6.66-12.69-6.29-16.28-3.52,0,0-3.92,1.87-5.26,25.44l-1.25,12.93s-1.6,6.56,4.24,8.7c4.19,1.53,14.34,3.05,18.24.19S156.91,416.4,156.91,416.4Z"/>
                    <path class="cls-19" d="M155,414.9c-18.45-8.85-19,20.15-21.27,34.16-.46,7,14,9.6,21,7s3.21-34.65,3.21-34.65"/>
                    <path class="cls-19" d="M159,422s2.39-4.19-2.71-6.43c-9.92-5.77-23.5,12.86-10.82,19.38C144.3,427.25,148.35,416.17,159,422Z"/>
                    <path class="cls-19" d="M145.58,435.23s-4.42-2.13-5.26-5.85c-6,4.23-1.47,14.34,7.42,12.55Z"/>
                    <path class="cls-19" d="M141.91,441.28s-3.09-.72-5.51,3"/>
                  </g>
                  <path class="cls-57" d="M193.43,472.79a8.61,8.61,0,0,1-5.59,6.45c-21,7.43-26.91-8.18-36.45-30.21-6.53-15.36-8.68-25.28-1.32-29,0,0,4.53-2,7.09,1.1l7.91,8.84S200.06,438.13,193.43,472.79Z"/>
                </g>
                <g>
                  <path class="cls-27" d="M201.44,436.23l1.26-29.32,43.68-12.31-4.15,58.24s-4.77,9.56-23.53,9.16-18.84-5.77-18.84-5.77,1.58-20,.91-20"/>
                  <path class="cls-27" d="M210.42,433.86c-1.14.27-3.46,4.34-10.46,3.49l-2.84,19.45s-2,10.27-34,6.06c0,0-10.18-3-11.45-8.93l7.74-53.22,2.61-7,40.79,13.21"/>
                  <path class="cls-31" d="M245.18,390.24l1.18,9.81s-11.26,10.85-40.91,11.28-45.8-10.68-45.8-10.68l.79-10s17.94,10.95,38,11.92C237.5,404.48,245.18,390.24,245.18,390.24Z"/>
                  <path class="cls-27" d="M191.4,403.08h0c-.11.34-.09,7.47-.09,7.85,0,0,0,0,0,0l3.7.54s0,0,0,0l.14-8.15A29.36,29.36,0,0,0,191.4,403.08Z"/>
                  <path class="cls-27" d="M233.09,398.78c-.45,0-3.15.83-3.15.83s.46,8.64.46,8.64l4-.91Z"/>
                  <g>
                    <path class="cls-59" d="M216.39,414a103.05,103.05,0,0,1-1.45,18.37"/>
                    <path class="cls-60" d="M216.39,414a63.19,63.19,0,0,1-.06,9.23,64,64,0,0,1-1.39,9.14c.31-3.07.67-6.11.89-9.18S216.22,417.1,216.39,414Z"/>
                  </g>
                  <g>
                    <path class="cls-59" d="M172.63,409l-1.53.11c-1.19,5.52-6.12,10.3-12.18,11.8"/>
                    <path class="cls-60" d="M172.63,409l-1.52.19.07-.07a14.07,14.07,0,0,1-4.36,7.74,16.46,16.46,0,0,1-3.67,2.59,15,15,0,0,1-4.23,1.46,20.08,20.08,0,0,0,4.05-1.78,18.45,18.45,0,0,0,3.52-2.63,15.85,15.85,0,0,0,4.53-7.41l0-.06h.06Z"/>
                  </g>
                </g>
              </g>
              <g>
                <path class="cls-57" d="M283.8,381.94c-5.23-28.09-15-29.05-21.18-34.32,0,0,6-17.43,17.18-20.58,13.68,15.66,18.6,13.14,21.74,49.49"/>
                <path class="cls-56" d="M272.52,345.22a11.8,11.8,0,0,0-.79,2.51,11.42,11.42,0,0,0-.26,2.6,14.28,14.28,0,0,0,.36,2.53,23.35,23.35,0,0,0,.69,2.53l-.06,0a6,6,0,0,1-1.36-2.37,7.26,7.26,0,0,1-.23-2.74,11.64,11.64,0,0,1,1.59-5.13Z"/>
              </g>
              <path class="cls-61" d="M269,351.31s-2.67-1.77-3.57-2.5,4.38-14.28,9.72-19.16l4.91-1.65,3.68,3.94S274.46,337.05,269,351.31Z"/>
              <g>
                <path class="cls-57" d="M299.16,375.89c4,2.27,28.71,13.37,20.55,23.8,0,0-.87,5.82-4.18,3.71,0,0,0,4.58-2.44,3.7-3.72,12.34-13.88-15.43-20.37-14.12-4.74-.34-5.75-.89-8.19,0s-6.18,5.65-11.31,1.25c-2.67-2.3,2.87-4.21,2.87-4.21s5.66-10.08,10-10.25"/>
                <path class="cls-56" d="M319.11,400.7a7.42,7.42,0,0,0-.11-2.3,12.32,12.32,0,0,0-.62-2.21,17.71,17.71,0,0,0-2.14-4.06c-.85-1.28-1.89-2.41-2.86-3.6l-1.52-1.74c-.53-.57-1.05-1.14-1.55-1.75l.05-.06c.64.45,1.25.94,1.86,1.43s1.14,1.08,1.72,1.61a23,23,0,0,1,2.81,3.78,18.66,18.66,0,0,1,2,4.27,12.88,12.88,0,0,1,.48,2.3,7.13,7.13,0,0,1,0,2.35Z"/>
                <path class="cls-56" d="M315.11,403.93a11.45,11.45,0,0,0-.79-3.61,17.07,17.07,0,0,0-1.67-3.27,32,32,0,0,0-2.3-2.86c-.39-.48-.84-.9-1.23-1.38s-.87-.89-1.27-1.38l0-.06a14.35,14.35,0,0,1,3,2.31,15.07,15.07,0,0,1,2.26,3.05,17,17,0,0,1,1.51,3.47,11.55,11.55,0,0,1,.51,3.73Z"/>
                <path class="cls-56" d="M313.06,407.11a40.64,40.64,0,0,0-3.46-5.31c-.66-.83-1.38-1.59-2.05-2.39s-1.4-1.54-2.14-2.33l0-.06a9.85,9.85,0,0,1,2.64,1.88,16.26,16.26,0,0,1,2,2.54,33.41,33.41,0,0,1,3.05,5.64Z"/>
              </g>
              <path class="cls-62" d="M207.4,323.18c-1,5.2,22.28,7.9,22.5,2.61C230.87,320.59,207.61,317.9,207.4,323.18Z"/>
              <path class="cls-57" d="M146.36,329.91s-19.07,19.19-13.15,24.73l7,6.92s20.14-11,19.73-11.84S162.3,331.54,146.36,329.91Z"/>
              <path class="cls-63" d="M238.53,313c-6.73,7.39-38.58,6.37-34.27-11.44C207.51,294,238.91,304.19,238.53,313Z"/>
              <path class="cls-24" d="M238.53,305.52l13.73-1.94c12.35,6.5,30.36,24,30.36,24-12.54,7.05-16.7,22.92-16.7,22.92s-11.71-6.73-17.2-12.28"/>
              <g>
                <g>
                  <path class="cls-64" d="M227.23,318.62c-.92-.5-4-3.58-11.12-1.7s.54,11.24.54,11.24l7.52.8S235,322.86,227.23,318.62Z"/>
                  <g>
                    <path class="cls-27" d="M203.06,367.25c.11.59.22,1.17.34,1.74v0c3.71,17.92,11.89,27.56,11.89,27.56a96.45,96.45,0,0,0,8.33-10.28c1.22-1.78,2.18-3.33,2.93-4.68a24,24,0,0,0,2.62-6.08c.13-2.16.21-4.26.26-6.28s.07-3.7.06-5.46c0-5-.29-9.48-.68-13.41-.19-2-.42-3.85-.66-5.58-1.6-11.09-4-16.64-3.81-17.4.57-2.18-7.94-2.29-7.94-2.29a84.5,84.5,0,0,1-2.42,11c-.35,1.23-.71,2.48-1.09,3.73-1.1,3.62-2.32,7.3-3.53,10.74-.43,1.19-.85,2.37-1.25,3.5-1.51,4.17-2.9,7.77-3.84,10.15C203.52,366.12,203.06,367.25,203.06,367.25Z"/>
                    <path class="cls-65" d="M212.89,339.83a56.68,56.68,0,0,1,15.43,10.44c-.19-2-.45-4.06-.7-5.79A64.67,64.67,0,0,0,214,336.1C213.63,337.33,213.27,338.58,212.89,339.83Z"/>
                    <path class="cls-65" d="M208.51,354.42c5.79,3.35,15.3,9.34,20.45,14.78,0-1.88.07-4.06.06-5.82a81.88,81.88,0,0,0-19.23-12.61C209.36,352,208.91,353.29,208.51,354.42Z"/>
                    <path class="cls-65" d="M203.56,367.3c.11.6.2,1.32.33,1.9h0c5.65,3.67,14.36,9.83,19.43,16.69,1.21-1.78,2.12-3.28,2.87-4.64a122.5,122.5,0,0,0-21.52-16.84C203.92,366.31,203.56,367.3,203.56,367.3Z"/>
                  </g>
                </g>
                <g>
                  <path class="cls-66" d="M222.15,316c.66.31-11.36,11.48-11.36,11.48s-8.65-4.91-9.82-21l6.2-4.78S209.37,310,222.15,316Z"/>
                  <path class="cls-66" d="M225.91,316.42c-.69.22,4.23,14.4,4.23,14.4s5.33,0,9.83-15.45l-1.84-6.54S237.73,312.6,225.91,316.42Z"/>
                </g>
              </g>
              <g>
                <path class="cls-67" d="M269.53,282.1c-4.81,6.25-12.42,7.76-17.57,4.06s-2.24-7.12,2.57-13.38,4.8-5.43,11-7C279.12,262.42,274.33,275.84,269.53,282.1Z"/>
                <path class="cls-68" d="M267,269.18c9.33-.39-4.06,18.64-8.57,14.91-1.58-3.73,4-4.87,5.89-7.09,1.28-2.25-2.07-2.65-3.56-2.79C261.16,271.5,264.58,269.7,267,269.18Z"/>
              </g>
              <path class="cls-67" d="M263.88,234.83c-20-17.32,13.07-28.48-16.93-33.69-29.11-5.06-48.74,6.58-54.12,32-2.48,11.75-1,24.84-1.19,25.46-9.72,39.63,27.37,63.15,55.15,46.86,9.53-5.09,17.83-14,21.68-35C268.58,269.86,280.55,249.27,263.88,234.83Z"/>
              <g>
                <path class="cls-69" d="M216.65,281.67c3.54,1.63,26.7,5.43,30.35,5.52C234.26,304.25,223.19,302.34,216.65,281.67Z"/>
                <g>
                  <path class="cls-70" d="M231.75,285.34c-4.09-.92-15.69-4.61-15.69-4.61,10.15,18.08,16.22,20.18,31.95,5.62C248,286.35,235.84,286.26,231.75,285.34Z"/>
                  <path class="cls-36" d="M236.38,292c-.66-.37-4.89-1.36-5.56-.73-2.17-1.46-8.16-2.21-8.26-.66,3.68,4.75,8.48,7.64,13.88,4.17C238.71,293.57,240.65,293.48,236.38,292Z"/>
                </g>
                <path class="cls-68" d="M247.87,283.6s-.78,4.35.83,5.21.23-1.46,0-2.3C248.53,286.05,247.87,283.6,247.87,283.6Z"/>
                <path class="cls-68" d="M217.42,278.18c-.54,5.73-5.61,5.66-1.73,2.53A27.17,27.17,0,0,0,217.42,278.18Z"/>
                <path class="cls-71" d="M219.58,282c-.84,7.91,22.28,12.86,24.06,4.41a51.44,51.44,0,0,1-12.06-.87C227.83,284.85,223.83,282.41,219.58,282Z"/>
                <path class="cls-69" d="M216.06,280.73s7.53,5.18,14.78,6.17c15.38,2.08,17.17-.55,17.17-.55s-12.34-.64-16.76-1.7C227.25,283.69,216.06,280.73,216.06,280.73Z"/>
              </g>
              <path class="cls-72" d="M224.23,240.91c-2.95-.29-12.9,1.26-14.33,7.47,0,0,7.39-4.15,14.37-4.26C224.27,244.12,225.72,241.06,224.23,240.91Z"/>
              <path class="cls-72" d="M252.46,246.28c2.93.34,12.27,4,12.24,10.45,0,0-6.25-5.69-13-7.29C251.69,249.44,251,246.1,252.46,246.28Z"/>
              <path class="cls-68" d="M213.14,224.2s4.63,9.86,37.3,15.61l-.11-4.53s.84,6.45,19.21,13.18l-1.29,23.92,14.18-47.86-67.85-17.91-12.53,8.89-1.87,13.17s-11.36,25-11.85,34.09l2.22.7c5.18-4.86,8.37-12.69,11-19.18C201.57,244.28,207.68,248.24,213.14,224.2Z"/>
              <path class="cls-72" d="M211.71,217.21s-5.21,9.61,38,19.94c0,0-1-.72-3-11.64,2.64,13.51,13.91,15.89,21.74,20l5.9-12.24-6.16,39.09c4.53-9.13,13.21-19.16,14.18-36.85a45.41,45.41,0,0,1,1.08,8.75s14.47-25.84-10.78-41.79c0,0,3.65-.49,9.7,4.07-2.17-14.07-48.17-41.05-70-17.77,0,0-12.08-9.33-23.19,9.51,0,0,10.87-5.11,14.21-1.87,0,0-10.94-2.38-19.19,18.51-6.92,17.53-1.05,33.61,6,49.05a52,52,0,0,0,9.82-27.77l2.55,6.87S210.8,239.49,211.71,217.21Z"/>
              <path class="cls-73" d="M227.6,258.49c.61,12.34-18.17,13.42-19.2,1.21C207.79,247.37,226.57,246.29,227.6,258.49Z"/>
              <path class="cls-73" d="M261.42,265.91c-1.47,12.55-20,10.66-18.9-1.94C244,251.41,262.47,253.31,261.42,265.91Z"/>
              <path class="cls-29" d="M259.47,267.93c1.69,6.4-7.75,9-9.28,2.48C248.5,264,257.94,261.38,259.47,267.93Z"/>
              <path class="cls-29" d="M226.32,260.44c1.86,7.06-8.55,10-10.24,2.73C214.22,256.12,224.62,253.22,226.32,260.44Z"/>
              <path class="cls-7" d="M218.15,258.51a1.23,1.23,0,1,1-2.37.63A1.23,1.23,0,1,1,218.15,258.51Z"/>
              <path class="cls-7" d="M251.89,266.24a1.23,1.23,0,1,1-2.37.63A1.23,1.23,0,1,1,251.89,266.24Z"/>
              <g>
                <path class="cls-74" d="M229.06,274.28c2.9,5.48,17.27,6.23,12.73-3.78"/>
                <path class="cls-75" d="M229.06,274.28a9.16,9.16,0,0,0,4.29,2.46,12.54,12.54,0,0,0,4.73.47,4.38,4.38,0,0,0,3.58-1.94,4.83,4.83,0,0,0,.44-2.21,18.38,18.38,0,0,0-.31-2.56,7.94,7.94,0,0,1,1.27,2.41,5,5,0,0,1,.05,2.93,4.48,4.48,0,0,1-2,2.44,6.83,6.83,0,0,1-2.84.92,10.27,10.27,0,0,1-5.51-1A6.69,6.69,0,0,1,229.06,274.28Z"/>
              </g>
              <g>
                <path class="cls-67" d="M190.35,274.6C172.79,285.67,169.54,239.67,185,252c0,0,5.72,4.45,6.49,11.59"/>
                <path class="cls-68" d="M182.5,254.56c-7.1-2.57-3.71,14.23-.81,16.61,1.34,1.09,2.77-.39,2.62-1.9,0-2-1.26-3.51-2.18-5.12-1.79-2.93.9-3.81,3.29-2.76C186.17,258.92,184.33,256,182.5,254.56Z"/>
              </g>
              <path class="cls-24" d="M193.17,296.4c-19.56-2-40.32,23.37-47.65,32.87,0,0,13.69,9.7,18.22,23.31"/>
              <path class="cls-76" d="M180.59,319a35.45,35.45,0,0,1-.17,10.23,14.44,14.44,0,0,1-1.57,5,8.15,8.15,0,0,1-3.73,3.59l-.05-.08a12.17,12.17,0,0,0,2.9-4,22.44,22.44,0,0,0,1.66-4.66,30.86,30.86,0,0,0,.75-5,39.13,39.13,0,0,0,.11-5.08Z"/>
              <path class="cls-57" d="M146.65,339.83c7.85,2.24,17.21,1.79,25.1,0,18.68,16.92-26.51,46.54-39.32,13.84"/>
              <g>
                <g>
                  <path class="cls-77" d="M207.09,326.15l-44.53,44.71a2.06,2.06,0,0,1-2.92-2.9l44.53-44.72Z"/>
                  <g>
                    <path class="cls-78" d="M207.09,326.15l-44.53,44.71a2.06,2.06,0,0,1-2.92-2.9l44.53-44.72Z"/>
                    <path class="cls-79" d="M206.21,325.28l-44.82,45a1.23,1.23,0,1,1-1.75-1.74l44.82-45Z"/>
                    <path class="cls-80" d="M205.34,324.41,160.23,369.7a.41.41,0,0,1-.59-.58l45.12-45.29Z"/>
                  </g>
                </g>
                <g>
                  <g>
                    <path class="cls-81" d="M209.89,325.53l6.82-25.63s9,10.72,8.12,14l-3.52,13Z"/>
                    <path class="cls-81" d="M211.06,322,192.27,303.3s13.78-2.44,16.19,0l9.53,9.57Z"/>
                    <path class="cls-82" d="M218,312.83l-9.6-9.57c4.77,4.76,0,21.39,0,21.39S218,318.62,218,312.83Z"/>
                    <path class="cls-81" d="M208.59,319.24,183,326.16s4.78-13.15,8.07-14l13-3.47Z"/>
                    <path class="cls-83" d="M204.1,308.65,191,312.18c6.51-1.76,18.54,10.66,18.54,10.66S209.13,311.53,204.1,308.65Z"/>
                    <path class="cls-81" d="M205,320l-6.81,25.64s-9-10.72-8.13-14l3.52-13Z"/>
                    <path class="cls-84" d="M193.54,318.59l-3.48,13.09c1.73-6.51,18.5-10.73,18.5-10.73S198.55,315.68,193.54,318.59Z"/>
                    <path class="cls-81" d="M203.8,323.51l18.79,18.72s-13.78,2.43-16.19,0l-9.54-9.56Z"/>
                    <path class="cls-85" d="M196.86,332.7l9.61,9.56c-4.78-4.75-.05-21.38-.05-21.38S196.85,326.91,196.86,332.7Z"/>
                    <path class="cls-81" d="M206.26,326.28l25.61-6.91s-4.79,13.15-8.07,14l-13.05,3.47Z"/>
                    <path class="cls-86" d="M210.75,336.88l13.08-3.54c-6.5,1.76-18.54-10.65-18.54-10.65S205.73,334,210.75,336.88Z"/>
                    <path class="cls-87" d="M221.31,326.94l3.48-13.09c-1.73,6.51-18.5,10.73-18.5,10.73S216.3,329.85,221.31,326.94Z"/>
                    <circle class="cls-88" cx="207.43" cy="322.76" r="3.87" transform="translate(-66.27 53.9) rotate(-12.78)"/>
                    <path class="cls-89" d="M211.16,323.78a4,4,0,0,1-.84,1.27,3.87,3.87,0,0,1-6.48-3.75,3.87,3.87,0,1,0,7.32,2.48Z"/>
                  </g>
                  <path class="cls-80" d="M208.66,323.06a1.75,1.75,0,1,0-2.47,0A1.75,1.75,0,0,0,208.66,323.06Z"/>
                </g>
              </g>
              <g>
                <path class="cls-57" d="M166.4,343.05s7.43-4.7,10.45-8.93c0,0,16.23,3.75,16.25,12.46,0,7.76-5.86,3.91-5.86,3.91s3.2,7-3.76,5.82c0,0,1.74,7.17-5.11,6,0,0-2,5.43-7.09,1.67a16,16,0,0,1-11.37-1.67"/>
                <path class="cls-56" d="M171.27,363.47a9.07,9.07,0,0,1-3.13-1.69,6.17,6.17,0,0,1-1.3-1.25,4.75,4.75,0,0,1-.81-1.62l.07,0a13.67,13.67,0,0,1,1.31,1.18c.4.4.74.86,1.13,1.28a11.68,11.68,0,0,0,1.29,1.14,7.87,7.87,0,0,0,1.46.93Z"/>
                <g>
                  <path class="cls-55" d="M187.24,350.49a19.42,19.42,0,0,0-6.89-4.76"/>
                  <path class="cls-56" d="M187.21,350.52a22,22,0,0,0-3.33-2.54c-.59-.37-1.22-.66-1.8-1s-1.17-.73-1.74-1.18l0-.07a6.45,6.45,0,0,1,2.08.59,8.62,8.62,0,0,1,1.79,1.2,17.15,17.15,0,0,1,3,3Z"/>
                </g>
                <g>
                  <path class="cls-55" d="M183.48,356.31a26.12,26.12,0,0,0-5.34-4.94"/>
                  <path class="cls-56" d="M183.45,356.33a29.35,29.35,0,0,0-2.68-2.44c-.47-.38-1-.71-1.41-1.12a9.08,9.08,0,0,1-1.24-1.37l0-.06a6.54,6.54,0,0,1,1.67.84,9.47,9.47,0,0,1,1.35,1.26,20.55,20.55,0,0,1,2.33,2.85Z"/>
                </g>
                <g>
                  <path class="cls-55" d="M178.37,362.31a21.91,21.91,0,0,0-4.41-4.59"/>
                  <path class="cls-56" d="M178.34,362.33a29.77,29.77,0,0,0-2.22-2.27c-.39-.36-.83-.66-1.18-1.05a8.53,8.53,0,0,1-1-1.26l0-.06a4.44,4.44,0,0,1,1.46.77,6.53,6.53,0,0,1,1.11,1.18,17.24,17.24,0,0,1,1.85,2.65Z"/>
                </g>
              </g>
              <path class="cls-61" d="M153.83,340.73s-6.57-6.68-9.35-8.09l1.91-2.05s7.54,5.77,10.28,10.38A23,23,0,0,1,153.83,340.73Z"/>
              <g>
                <g class="cls-90">
                  <path class="cls-15" d="M215.93,489h29.82a2.12,2.12,0,0,0,2.15-2.39l-.45-4.19a2.75,2.75,0,0,0-2.66-2.39H215.93a2.41,2.41,0,0,0-2.4,2.4v4.17A2.41,2.41,0,0,0,215.93,489Z"/>
                </g>
                <g class="cls-90">
                  <polygon class="cls-91" points="257.29 502.46 257.29 502.46 257.29 493.49 218.81 493.49 218.81 502.46 257.29 502.46"/>
                </g>
                <g class="cls-90">
                  <rect class="cls-15" x="296.68" y="477.63" width="33.67" height="8.97" rx="2.4"/>
                </g>
                <g class="cls-90">
                  <rect class="cls-91" x="344.27" y="481.47" width="59.14" height="8.97" rx="2.4"/>
                </g>
                <rect class="cls-92" x="292.25" y="447.73" width="22.87" height="22.87"/>
                <rect class="cls-93" x="338.98" y="447.73" width="22.87" height="22.87"/>
                <polygon class="cls-94" points="288.71 447.6 265.84 447.6 242.98 447.6 242.98 470.47 265.84 470.47 288.71 470.47 288.71 447.6"/>
                <polygon class="cls-95" points="275.83 447.6 252.96 447.6 234.9 447.6 234.9 470.47 252.96 470.47 275.83 470.47 275.83 447.6"/>
                <rect class="cls-96" x="221.38" y="463.53" width="22.87" height="22.87"/>
                <rect class="cls-97" x="282.42" y="406.46" width="22.87" height="22.87"/>
                <rect class="cls-92" x="261.14" y="403.19" width="22.87" height="22.87"/>
                <rect class="cls-98" x="334.17" y="402.76" width="22.87" height="22.87"/>
                <rect class="cls-94" x="343.2" y="402.76" width="22.87" height="22.87"/>
                <rect class="cls-96" x="341.28" y="379.9" width="22.87" height="22.87"/>
                <rect class="cls-99" x="332.73" y="379.9" width="15.66" height="22.87"/>
                <g class="cls-100">
                  <rect class="cls-101" x="234.66" y="447.6" width="54.05" height="5.09"/>
                </g>
                <rect class="cls-102" x="234.36" y="476.21" width="22.87" height="22.87"/>
                <rect class="cls-93" x="227.06" y="476.21" width="22.87" height="22.87"/>
                <polygon class="cls-103" points="315.11 425.01 292.25 425.01 269.38 425.01 269.38 447.88 292.25 447.88 315.11 447.88 315.11 425.01"/>
                <polygon class="cls-104" points="269.48 425.01 246.62 425.01 243.48 425.01 243.48 447.88 246.62 447.88 269.48 447.88 269.48 425.01"/>
                <rect class="cls-99" x="238.75" y="425.01" width="22.61" height="22.87"/>
                <g class="cls-100">
                  <rect class="cls-101" x="292.28" y="424.98" width="22.87" height="5.09"/>
                </g>
                <g class="cls-100">
                  <polygon class="cls-101" points="339.14 447.81 339.14 452.9 362.01 457.49 362.01 447.81 339.14 447.81"/>
                </g>
                <polygon class="cls-105" points="378.13 425.01 355.26 425.01 337.2 425.01 337.2 447.88 355.26 447.88 378.13 447.88 378.13 425.01"/>
                <polygon class="cls-106" points="360.68 425.01 352.23 425.01 329.37 425.01 329.37 447.88 352.23 447.88 360.68 447.88 360.68 425.01"/>
                <polygon class="cls-106" points="395.28 465.15 372.42 465.15 349.55 465.15 349.55 488.01 372.42 488.01 395.28 488.01 395.28 465.15"/>
                <polygon class="cls-105" points="403.41 488.01 403.41 465.15 390.54 465.15 367.68 465.15 367.68 488.01 390.54 488.01 403.41 488.01"/>
                <rect class="cls-107" x="307.9" y="460.92" width="22.87" height="22.87"/>
              </g>
              <polygon class="cls-108" points="207.49 402.75 207.49 411.28 225.87 409.22 226.49 400.59 207.49 402.75"/>
              <path class="cls-109" d="M208.39,258.82a10.11,10.11,0,0,1,4.16-7.35,10.26,10.26,0,0,1,8.81-1.16,9.9,9.9,0,0,1,4.79,3.75,15.25,15.25,0,0,0-12.1,0A14.29,14.29,0,0,0,208.39,258.82Z"/>
              <path class="cls-109" d="M242.52,264a9.66,9.66,0,0,1,18.2-2.93,16.25,16.25,0,0,0-11-1.19A15.78,15.78,0,0,0,242.52,264Z"/>
            </g>
          </g>
          <path class="cls-109" d="M386.55,276.65a6.9,6.9,0,0,1,6.84-6.15,6.7,6.7,0,0,1,5.67,4.26l.72,1.93a7.87,7.87,0,0,0-7.79-3.88A8,8,0,0,0,386.55,276.65Z"/>
          <path class="cls-109" d="M416.13,271.16c.58-4.26,4-7.23,7.55-7.05a7.44,7.44,0,0,1,6.26,4.89c.27.73.53,1.47.8,2.2a8.58,8.58,0,0,0-8.61-4.44A8.83,8.83,0,0,0,416.13,271.16Z"/>
        </g>
      </g>
    </g>
  </g>
</svg>
