<svg id="Layer_1" data-name="Layer 1" xmlns="http://www.w3.org/2000/svg" xmlns:xlink="http://www.w3.org/1999/xlink" viewBox="0 0 300 350"><defs><style>.cls-1,.cls-4{fill:#cbfdff;}.cls-1,.cls-52{stroke:#2ca0ce;stroke-width:3px;}.cls-1,.cls-12,.cls-13,.cls-16,.cls-25,.cls-30,.cls-31,.cls-32,.cls-33,.cls-35,.cls-37,.cls-45,.cls-47,.cls-52,.cls-7,.cls-9{stroke-miterlimit:10;}.cls-2{fill:#fff;}.cls-3,.cls-47,.cls-52{fill:none;}.cls-5{clip-path:url(#clip-path);}.cls-29,.cls-6{fill:#40545b;}.cls-7{fill:#87a4b0;}.cls-30,.cls-7{stroke:#355056;}.cls-8{fill:#2a91bb;}.cls-9{fill:#36b9ee;stroke:#1a9ac1;}.cls-10{fill:#7ecfee;}.cls-11{fill:#1d6d80;}.cls-12,.cls-25{fill:#dd331c;}.cls-12,.cls-13,.cls-16{stroke:#c6bd71;}.cls-13,.cls-14{fill:#fcd299;}.cls-15{fill:#fdba63;}.cls-16{fill:#fda326;}.cls-17{fill:#fd8f30;}.cls-18{fill:#ffaa69;}.cls-19{fill:#76d45f;}.cls-20{fill:#8d4a34;}.cls-21{fill:#65b351;}.cls-22{fill:#869398;}.cls-23{fill:#616a6e;}.cls-24{fill:#bed0d6;}.cls-25{stroke:#aa1d35;}.cls-26{fill:#9e2515;}.cls-27{fill:#43575e;}.cls-28{fill:#566e78;}.cls-29{opacity:0.6;}.cls-30{fill:#749db0;}.cls-31{fill:#a82607;}.cls-31,.cls-32{stroke:#633b1f;}.cls-32{fill:#d73205;}.cls-33,.cls-42{fill:#fbd3c7;}.cls-33,.cls-37{stroke:#9e673f;}.cls-34{fill:#e0a699;}.cls-35{fill:#f8e95c;stroke:#492a15;}.cls-36{fill:#c68879;}.cls-37{fill:#f7f3f2;}.cls-38{fill:#2d130d;}.cls-39{fill:#f58778;}.cls-40{fill:#a03227;}.cls-41{fill:#f4eaea;}.cls-43{fill:#9e673f;}.cls-44{fill:#301108;}.cls-45{fill:#a59493;}.cls-45,.cls-47{stroke:#301108;}.cls-46{fill:#918281;}.cls-48,.cls-49{fill:#7eaa38;}.cls-48{opacity:0.39;}.cls-49{opacity:0.22;}.cls-50{fill:#404041;}.cls-51{fill:#005c29;opacity:0.4;}.cls-53{clip-path:url(#clip-path-2);}.cls-54{clip-path:url(#clip-path-3);}.cls-55{clip-path:url(#clip-path-4);}.cls-56{fill:url(#linear-gradient);}.cls-57{fill:#00470c;}.cls-58{fill:#436003;}.cls-59{fill:#01340b;}</style><clipPath id="clip-path"><rect class="cls-1" x="12.5" y="10" width="275" height="330" rx="25"/></clipPath><clipPath id="clip-path-2"><circle class="cls-2" cx="620" cy="570" r="196.51"/></clipPath><clipPath id="clip-path-3"><rect class="cls-3" x="214.54" y="370.12" width="728.72" height="409.9"/></clipPath><clipPath id="clip-path-4"><path class="cls-3" d="M367.69,372.65c-30.05,14.9-32.42,36.66-32.42,36.66s-3.95,20.62,33.21,27.49c61.79,11.43,84.94-.26,95.68-9.16,5.54-4.58,11.07-43.53-15-60.71-10.41-6.86-20.68-9.7-31.19-9.7-15.84,0-32.19,6.47-50.26,15.42"/></clipPath><linearGradient id="linear-gradient" x1="376" y1="1906.44" x2="377.15" y2="1906.44" gradientTransform="matrix(145.18, -145.28, -145.28, -145.18, 222682.48, 331893.23)" gradientUnits="userSpaceOnUse"><stop offset="0" stop-color="#fff9bf"/><stop offset="1" stop-color="#ffda52"/></linearGradient></defs><rect class="cls-4" x="12.5" y="10" width="275" height="330" rx="25"/><g class="cls-5"><ellipse class="cls-6" cx="227.82" cy="303.23" rx="70.64" ry="10.99"/><path class="cls-7" d="M300.42,303.23h-3.93c-.38-.94-4.63-3.7-20.12-6-13.11-2-30.36-3-48.55-3s-35.44,1.07-48.55,3a100.83,100.83,0,0,0-13.14,2.68c-5,1.45-6.75,2.73-7,3.32h-3.93c0-1.58.8-3.58,5.54-5.6,3.31-1.41,8.57-2.83,16.82-4.11,13.43-2.09,31.28-3.25,50.25-3.25s36.81,1.16,50.25,3.25C298.11,296.63,300.42,300.55,300.42,303.23Z"/><path class="cls-8" d="M233.21,306.38s-7.92-7.37-9.49-2.73,15.8,14.27,24,17.07,13.92,1.56,11.7-1.24S233.21,306.38,233.21,306.38Z"/><path class="cls-9" d="M241.36,304c-1,1.11-4.88,5.1-7.25,7.52-6.11-3.63-6.75-6.63-6.75-6.63s7.16-6,8.46-7.22,4.27-10,3.86-13.55a32.16,32.16,0,0,1,.15-7.39l6.93,1.86a49,49,0,0,0-.56,8.57C246.38,291.49,242.78,302.34,241.36,304Z"/><path class="cls-10" d="M251.13,312.7l7.49,3.08-1.95,3.44c-4-.83-7.4-1.71-10.37-2.63a56.93,56.93,0,0,1-12.19-5.1c2.37-2.42,6.28-6.41,7.25-7.52,1.42-1.63,5-12.48,4.84-16.84a49,49,0,0,1,.56-8.57l22.26,6-.61,4.76-19.06.89-.26,9.56s-1.88,4.45-3.36,5.68a40.27,40.27,0,0,1-4.8,3Z"/><path class="cls-8" d="M254.11,284c-.61-.19-1.24-.39-1.87-.61-6.16-2.11-13.38-5.89-14.61-8.72a2.74,2.74,0,0,1,0-2.19c1.11-2.48,4.23-2.3,17.54,1,1.53.39,3,.78,4.31,1.18,8.39,2.5,11.62,4.72,11.13,7.66a3.31,3.31,0,0,1-1.56,2.24C266.14,286.39,259.46,285.59,254.11,284Z"/><path class="cls-11" d="M268.49,282c-.32,2-7.44,2.19-15.55-.62s-13.92-6.83-13.38-8,7.16.24,15.07,2.21S268.82,280,268.49,282Z"/><path class="cls-12" d="M266.89,301.13l-8.27,14.65-17.69-7.28a40.27,40.27,0,0,0,4.8-3c1.48-1.23,3.36-5.68,3.36-5.68l.26-9.56,19.06-.89Z"/><path class="cls-13" d="M230.64,312.23c-.1,3-.18,7.61-.18,7.61l-11.37,4.28-12.86-5.76.29-2.23H216l4.45-2.88.25-3.88-.35.2,0,0-.58-2.23s-2.63-7.08-2.55-7.33.49-6.92.49-6.92l-5.76-4.78-.75-6.18,7.92,3.13,3.26,4.75h0l1,6.7-1.4,3.38.49,6.6,4.37,1.81,2.72,3.79Z"/><path class="cls-14" d="M233.21,307.85l0-.29L227,304.51l-.66-5.19.7-6.95,5.56-1.7,5.93,13.68S235.48,306.27,233.21,307.85Z"/><path class="cls-15" d="M215.05,307.15l-5.69.49-.33-6.75-3-.83-8.22-6.24c2.36-.52,5.08-1.17,5.08-1.17l2.84-3.63,2.19,8.82,5.52.9Z"/><path class="cls-15" d="M233.26,307.56l0,.29a10.47,10.47,0,0,0-2.42,1.94c0,.19-.1,1.17-.15,2.44l-1.09,0-2.72-3.79-4.37-1.81-.49-6.6,1.4-3.38-1-6.7,2.17,3.16,2.52-.77-.7,6.95.66,5.19Z"/><polygon class="cls-15" points="220.65 309.38 220.4 313.25 215.95 316.13 206.52 316.13 206.89 313.25 205.32 312.34 215.21 312.34 220.65 309.38"/><path class="cls-16" d="M220.32,309.54l0,0-5.09,2.77h-9.89l-7.82-4.53s-4.12-13.18-2.8-13.35c.49-.06,1.75-.33,3.15-.64l8.22,6.24,3,.83.33,6.75,5.69-.49-1.57-8.41-5.52-.9L205.77,289l5.4-6.92.75,6.18,5.76,4.78s-.41,6.67-.49,6.92,2.55,7.33,2.55,7.33Z"/><path class="cls-17" d="M262.11,311.7l-3.33-3.51c18.65-6.8,19.32-21,19.32-21l3.33,3.67C279.83,295.52,275.13,304.7,262.11,311.7Z"/><path class="cls-18" d="M268.77,318.77l-6.66-7.07c13-7,17.72-16.18,19.32-20.8l7.17,7.88C279.08,300.87,268.77,318.77,268.77,318.77Z"/><path class="cls-19" d="M300.72,307.67a68.27,68.27,0,0,1-16.32-14.48,16.63,16.63,0,0,1,6.32-5.63,9.25,9.25,0,0,1,2.91,5.33,6.06,6.06,0,0,1,.89.1C302.19,294,300.72,307.67,300.72,307.67Z"/><path class="cls-19" d="M272.1,322a20.82,20.82,0,0,1-13.54-8.65c-.94-3.56,1.17-5.09,2.93-5.71A49.26,49.26,0,0,1,272.1,322Z"/><path class="cls-20" d="M285.07,289.91s4.87-7.15,10.44-1.72a3.65,3.65,0,0,1-1.22,2.32s-3.73-3.76-7.77.94A2.08,2.08,0,0,1,285.07,289.91Z"/><path class="cls-21" d="M266.37,299.2l-.09-.12a3.11,3.11,0,0,1,3-4.89l.15,0a3.1,3.1,0,0,1,1.74,5.28l-.07.08A3.11,3.11,0,0,1,266.37,299.2Z"/><path class="cls-21" d="M258.56,313.37a23.71,23.71,0,0,1-3.95-10.71,28.89,28.89,0,0,1,6.88,5C259.73,308.28,257.62,309.81,258.56,313.37Z"/><path class="cls-22" d="M175.67,324.1s-.17,2.73,1.21,3.33,26.93-3.14,28.68-5.8.38-4.37.38-4.37Z"/><path class="cls-23" d="M173.08,276.48c-4.14.07-3.17,3.08-3.17,3.08s5.22,4.83,5.46,4.79l1.69-1.58Zm.35,4a1.26,1.26,0,0,1-1.72-.31,1.14,1.14,0,1,1,1.72-1.44A1.26,1.26,0,0,1,173.43,280.44Z"/><path class="cls-22" d="M173.08,276.48c-4,.08-2.82,2.66-2.82,2.66s5.23,4.84,5.47,4.8l1.68-1.58Zm.7,3.54a1.36,1.36,0,0,1-1.71-2,1.36,1.36,0,0,1,1.71,2Z"/><path class="cls-24" d="M193.34,282.49l-15.67,5.63-.27-.29a10,10,0,0,1-2.82-4.61c4.12-2.62,10-5.25,16.58-5.09Z"/><path class="cls-25" d="M199.45,310.17c3.84,2.82,9.88,7.53,8.33,8.34a84.54,84.54,0,0,1-20.34,5.89,2.77,2.77,0,0,0-1.71-1.22c-4.43-1.48-6.46-14.83-6.65-15.26a8.16,8.16,0,0,1,5.58-7,8.67,8.67,0,0,0,5.82-5.66c-4.06.33-5,4.19-11.69,4.22-5.36,0-4.55-8.36-4.59-12.18,5.43-2.9,13.93-6.77,20.57-6.8l9.68,19.58-3.76,3.76-4.22,4.22S197.75,308.93,199.45,310.17Z"/><path class="cls-26" d="M190.48,295.25a8.67,8.67,0,0,1-5.82,5.66,8.16,8.16,0,0,0-5.58,7c.19.43,2.22,13.78,6.65,15.26a2.77,2.77,0,0,1,1.71,1.22,46.41,46.41,0,0,1-12.58.4c-.64-.08-4.5-14.49-2.52-16.22s4.84-4.19,4.49-5.76-8.05-12.4-8.05-12.4,2.16-1.39,5.42-3.13c0,3.82-.77,12.2,4.59,12.18C185.47,299.44,186.42,295.58,190.48,295.25Z"/><path class="cls-26" d="M196.47,308.05s1.28.88,3,2.12a26.76,26.76,0,0,1-6.34-.8c-3.51-.94,1.31-3.24,1.31-3.24s3.05-1.26,4.57-2.1a2.67,2.67,0,0,1,1.7-.2Z"/><path class="cls-7" d="M165,321.28l14.39,131.09c0,1.78,1.55,4.39,14.9,6.47A230.19,230.19,0,0,0,227.82,461a230.14,230.14,0,0,0,33.5-2.16c13.36-2.08,14.9-4.69,14.9-6.47L293,321.28Z"/><path class="cls-27" d="M188.2,450.9a36.84,36.84,0,0,1-4.12-1.29L171.63,332.4l5.46.07Z"/><path class="cls-28" d="M198.61,452.8c-1.5-.2-2.93-.41-4.29-.64-2.41-.41-4.42-.83-6.12-1.26L177.09,332.47l15.36.18Z"/><path class="cls-27" d="M223.21,454.41v0c-4.58-.08-9-.26-13.22-.56l-7.22-123.59h2.36l7.22,123.58C215.82,454.15,219.46,454.32,223.21,454.41Z"/><path class="cls-28" d="M223.58,330.39l-.37,124c-3.75-.09-7.39-.26-10.86-.51l-7.22-123.58Z"/><path class="cls-27" d="M269,450.9a36.84,36.84,0,0,0,4.12-1.29L285.59,332.4l-5.46.07Z"/><path class="cls-28" d="M258.61,452.8c1.5-.2,2.93-.41,4.29-.64,2.41-.41,4.42-.83,6.12-1.26l11.11-118.43-15.36.18Z"/><path class="cls-27" d="M234,454.41v0c4.58-.08,9-.26,13.22-.56l7.22-123.59H252.1L244.87,453.9C241.41,454.15,237.76,454.32,234,454.41Z"/><path class="cls-28" d="M233.64,330.39l.37,124c3.75-.09,7.4-.26,10.86-.51l7.23-123.58Z"/><path class="cls-29" d="M276.88,447.25l-.66,5.12c0,1.78-1.54,4.39-14.9,6.47a230.14,230.14,0,0,1-33.5,2.16,230,230,0,0,1-33.5-2.16c-13.36-2.08-14.91-4.69-14.91-6.47L165,321.28h13c-2.38,34.36-1.09,130.07,87.42,126.63C269.41,447.77,273.21,447.54,276.88,447.25Z"/><path class="cls-30" d="M195.8,315c9.81.78,20.71,1.19,32,1.19,19,0,36.81-1.16,50.25-3.24,20-3.12,22.35-7,22.35-9.71v20.4c0,2.68-2.31,6.6-22.35,9.71-13.44,2.09-31.28,3.25-50.25,3.25-10.8,0-21.23-.38-30.69-1.09"/><path class="cls-7" d="M296.49,303.23c-.38.93-4.63,3.69-20.12,6-13.11,2-30.36,3-48.55,3-12.92,0-25.36-.54-36.18-1.55-4.42-.42-8.57-.91-12.37-1.48-15.5-2.3-19.74-5.06-20.13-6h-3.93c0,2.67,2.32,6.59,22.36,9.71,5.43.84,11.57,1.53,18.23,2.05,9.81.78,20.71,1.19,32,1.19,19,0,36.81-1.16,50.25-3.24,20-3.12,22.35-7,22.35-9.71Z"/><path class="cls-30" d="M197.13,335.5c-7.16-.53-13.77-1.25-19.56-2.16-20-3.11-22.36-7-22.36-9.71v-20.4c0,2.67,2.32,6.59,22.36,9.71,5.43.84,11.57,1.53,18.23,2.05"/><path class="cls-31" d="M11.72,246.63s-.18,5.31,13.59,8.58S31.15,240,31.15,240Z"/><path class="cls-32" d="M32.57,277c0-.08,0-.21,0-.37Z"/><path class="cls-32" d="M142.42,272.06l-11.46,1-14.19,1.24s-.35,24.86,13.13,69c0,0-57.63,13.64-91.77-1.6,0,0-8-36.22-5.4-63.89.78-8.28,1.08-11.66,1.12-12.34l-1.2,10.78c.29-2.91,1.26-12.06,1.2-10.79l.35-3.23,1.33-11.9s-9.8-11.21-23.81-3.68c.1-.29,3.25-9.43,7.83-19.76a136.12,136.12,0,0,1,10.38-19.63c9.63-14.36,17-10.69,22.06-4s75.11,28.54,75.11,28.54l8.11,3.73,15.88,7.3S151.79,256.3,142.42,272.06Z"/><path class="cls-33" d="M113.62,233a36.29,36.29,0,0,1-6.65,5.94c-3.94,2.72-9.29,5.17-15.06,4.22-11.73-1.93-15.76-5.6-15.76-5.6l-2.64-5.71-3.84-8.3,9.81-1.58,26.79-2.8Z"/><path class="cls-34" d="M113.62,233a36.29,36.29,0,0,1-6.65,5.94c-17.14,1.94-27.59-2.66-33.46-7.09l-3.84-8.3,9.81-1.58,26.79-2.8Z"/><path class="cls-32" d="M79.83,240s15.93,1.05,29.94-6.83l10.68-1.05s.35,14.36-19.79,26.79C100.66,258.89,100,246.46,79.83,240Z"/><path class="cls-32" d="M74.75,217.92,79.83,240s-4.38-1.75-12.08,3.32S58.47,226.14,66,215.64,74.75,217.92,74.75,217.92Z"/><path class="cls-35" d="M142.42,272.06l-11.46,1a51.65,51.65,0,0,0,4.25-37.58l15.88,7.3S151.79,256.3,142.42,272.06Z"/><line class="cls-32" x1="116.95" y1="277.97" x2="116.25" y2="255.03"/><path class="cls-32" d="M45.16,237.7s1.75-5.08.35-18.56"/><path class="cls-35" d="M45.86,234.55,42,249.78l-.18,10.86-7.63,1.57,1.33-11.9s-9.8-11.21-23.81-3.68c0,0,3.17-9.27,7.83-19.76C37.09,220.19,45.86,234.55,45.86,234.55Z"/><path class="cls-35" d="M117,278s-8.23,11.56-39.4,10.68a245.19,245.19,0,0,1-25-1.75c-13.88-1.75-20.48-7-20.48-7a168.44,168.44,0,0,0,.17,18.73s3.44,5.11,14.36,6.83c22.64,3.56,63.16,3.6,71.79-9.28Z"/><path class="cls-33" d="M73.5,162.63s-.52-10-12.45-9.78-12,26.7.08,26.57"/><path class="cls-36" d="M68.42,171.35s.32-10.56-10.06-9.47C58.36,161.88,65.7,162.58,68.42,171.35Z"/><path class="cls-36" d="M64.54,164.14s-5.11,2.66-2.23,9.79.34-.15.34-.15S60.42,170.42,64.54,164.14Z"/><path class="cls-33" d="M152.67,186s7.87-6.26,15.57,2.85-12.07,26.65-20,17.55"/><path class="cls-36" d="M149.5,195.55s7.7-7.24,13.76,1.26C163.26,196.81,157.87,191.78,149.5,195.55Z"/><path class="cls-36" d="M157.47,193.69s1.4,5.59-5.85,8.15-.12-.35-.12-.35S155.5,200.93,157.47,193.69Z"/><path class="cls-33" d="M151.61,186.57c0,27.08-17.59,49.91-45.34,49.91S47,215.16,50.94,189c3-19.79,15.93-25.74,17.33-35.37,1.62-11.13,20.85-16.11,33.09-16.11C129.12,137.55,151.61,159.5,151.61,186.57Z"/><ellipse class="cls-37" cx="111.23" cy="178.2" rx="12.35" ry="9.24" transform="translate(-97.98 197.11) rotate(-63.19)"/><ellipse class="cls-38" cx="110.69" cy="177.02" rx="6.53" ry="5.11" transform="translate(-97.23 195.99) rotate(-63.19)"/><ellipse class="cls-2" cx="108.56" cy="172.88" rx="1.62" ry="1.27" transform="translate(-94.7 191.81) rotate(-63.19)"/><ellipse class="cls-37" cx="76.05" cy="172.6" rx="11.67" ry="8.74" transform="translate(-112.3 162.64) rotate(-63.19)"/><ellipse class="cls-38" cx="75.54" cy="171.49" rx="6.17" ry="4.83" transform="translate(-111.59 161.58) rotate(-63.19)"/><ellipse class="cls-2" cx="73.53" cy="167.57" rx="1.53" ry="1.2" transform="translate(-109.2 157.63) rotate(-63.19)"/><path class="cls-39" d="M97.34,205a22.71,22.71,0,0,1,14.44-2.69,10.63,10.63,0,0,1,9.06,8,1.89,1.89,0,0,1-1.47,2.39c-1.2.19-3.13,0-6.16-1.42C106.75,208.29,96.58,208.4,97.34,205Z"/><path class="cls-40" d="M97.92,205s9.94-1.4,15.11-.69a6.48,6.48,0,0,1,5.52,4.89,1.14,1.14,0,0,1-.89,1.45,6.68,6.68,0,0,1-3.75-.86C110,208,97.46,207.08,97.92,205Z"/><path class="cls-41" d="M98.79,204.78l19.67,3.86S118.05,201.22,98.79,204.78Z"/><path class="cls-39" d="M100.93,210.21a11.79,11.79,0,0,1,5.6,1.93C108.89,213.89,103.9,208.37,100.93,210.21Z"/><path class="cls-33" d="M87.3,187.39l9.45-5.49s5,.47.47,7.71l-2.22,2s4.9,8.29,4.32,14.24c0,0,2.8,5.14-6.3,9.93s-11.21,4.55-14.59,11S53.8,281.12,26.72,283.22c0,0-13.31-5.13-13.31-21.71,0,0,.23-9.8,4.67-17a19.35,19.35,0,0,1,14.94,4s7.47-6.3,17.27-14.71,18.21-15.41,21-24.51c0,0-5.84-18,8.63-26.61,0,0,3.74-1.29,3.39,1.69s-3.07,4.11-1.14,5.51C82.19,189.81,83.82,189.7,87.3,187.39Z"/><path class="cls-33" d="M37.45,244.82s-12.6,11.09-14,15.29"/><path class="cls-42" d="M89.72,177.38s-6.83,1.93-7.44,6.31a3.65,3.65,0,0,0,3.41,4.55"/><path class="cls-43" d="M89.73,177.43c-1.22.73-2.38,1.48-3.45,2.27a9.28,9.28,0,0,0-2.59,2.69,5.06,5.06,0,0,0-.39.77,6.89,6.89,0,0,0-.19.84,4.57,4.57,0,0,0,0,1.73,3.64,3.64,0,0,0,2.58,2.46v.1a4.43,4.43,0,0,1-2-.66A3.29,3.29,0,0,1,82.38,186a4.68,4.68,0,0,1-.21-2.1,7.37,7.37,0,0,1,.21-1,6.54,6.54,0,0,1,.44-1A8.56,8.56,0,0,1,85.87,179a17.31,17.31,0,0,1,3.84-1.69Z"/><path class="cls-44" d="M108.89,158.44s6.66-7.12,13.43,6.54c0,0-5.49-20.19-13.55-7"/><path class="cls-44" d="M84.73,157.74s-4.67-6.3-15.18.94a16.46,16.46,0,0,1,11.56-7.12C88.81,150.74,84.73,157.74,84.73,157.74Z"/><path class="cls-44" d="M152,186.4s-6.82-17.86-18.38-29.24-29.77-10.33-29.77-10.33l8.76-3.85s-11.91-2.63-23.46,0-21.54,11.73-21.54,11.73-11.91-3.85-10.51-17.86c0,0,7.18,6.48,13.49,4.73,0,0-10.86-.35-12.26-11.56l11.21,2.1S57.77,127,62.84,108.31c0,0,6.31,9.45,13.13,9.1,0,0-3.67-4-3.15-11.55,0,0,22.76,11,43.08,11.2s46.74,10.33,46.74,44.3l-1.4,9.46,6.83-8.23s.35,11-5.25,15.23l5.25-.35-6.48,5.25,5.08,1.05s-14,2.8-15.58,8.23-.18.88-.18.88Z"/><path class="cls-33" d="M150.39,242.34l13.92,1.14s14.15-15.35,23.49-34.73c0,0,3.27-26.38,12.61-29.88s9.33-.23,9.33-.23,1,1.11-6.65,4.52c0,0-4.11,2.36-3.5,5.08a10.46,10.46,0,0,1,5.51-2.72c3.68-.7,4.29,1.67,4.29,1.67s5.61-1.58,7.45,2c0,0,7.17-1.58,8.49,4.82s-1.49,6.21-1.49,6.21-8-4.11-10.42,3,7.62,8.75,8.49,2.36c0,0,1.67-1.84,2.72.09s-.79,10.15-10.77,11a19.5,19.5,0,0,0-16.46,11.73c-1.31,3.59-10.51,30.55-20.49,38.52,0,0-19.43,6-36.33,5.34C140.58,272.28,149.13,262.42,150.39,242.34Z"/><path class="cls-33" d="M164.31,243.48s4.9,1.66,4.73,11"/><path class="cls-33" d="M219.14,189s-4.44.05-8.35,5.19"/><path class="cls-33" d="M210.56,186.92a14.4,14.4,0,0,0-6.24,4"/><path class="cls-45" d="M218.5,199.79a22,22,0,0,0,7.7.18c3.77-.7,13.66-2.89,20.84,13.83s8.05,28.89,8.05,28.89-9,3.85-11,8.76c0,0-1.57,2.1,3.85,7.26s-.52,6.57-6.21,8.67S225.15,281.56,227,293.47l-2.63-3.77s-9.89-12.17-10.76-17,12.78-10.07,6.3-15.93-9.28-5.17-5-18.74,8.4-28.1,7.62-32l-4.91,1.84s-2.8-.27-1.92-3.77l1.57-.87L215.08,202A2.6,2.6,0,0,1,218.5,199.79Z"/><path class="cls-46" d="M225.76,206.18s6.05,5.08,5,22.77S228,210.56,225.76,206.18Z"/><path class="cls-47" d="M254.48,236.91s-14.36,4.73-15.15,11.21,5.26,10.15,2.37,13.74-21.1,2.54-19.35,24.78"/><line class="cls-45" x1="239.42" y1="249.34" x2="236.18" y2="217.74"/><path class="cls-45" d="M221.42,259.88s1.63-10.27,4-22.41"/><path class="cls-48" d="M288.48,291.14s-.15-.12-.41-.36a12.3,12.3,0,0,1-1.06-1.15,10.63,10.63,0,0,1-1.32-2.07,7,7,0,0,1-.78-3.26,5.44,5.44,0,0,1,.42-2,6,6,0,0,1,1.21-1.81l.71-.71.76-.71c.52-.47,1.06-.9,1.59-1.35a13.79,13.79,0,0,0,2.85-2.8,5.63,5.63,0,0,0,.46-.83,7,7,0,0,0,.27-.92,7.93,7.93,0,0,0,.13-2c0-.35-.07-.71-.11-1.06V270l0-.11-.05-.27L293,269c-.08-.36-.18-.67-.27-1s-.24-.66-.36-1a17.37,17.37,0,0,0-1-1.87c-.35-.62-.75-1.23-1.07-1.92a4.63,4.63,0,0,1-.45-2.26,5.49,5.49,0,0,1,.6-2.07c.15-.3.33-.58.48-.86l.46-.79c.17-.27.27-.52.4-.77s.23-.51.33-.76a13.25,13.25,0,0,0,1-5.21A11.08,11.08,0,0,0,293,249a4.13,4.13,0,0,0-.1-.52.1.1,0,0,1,.07-.12.11.11,0,0,1,.12.06s.06.19.14.53a11.35,11.35,0,0,1,.24,1.52,13.33,13.33,0,0,1-.65,5.46,8.22,8.22,0,0,1-.3.83c-.12.28-.23.59-.37.85l-.42.83c-.13.27-.27.54-.4.82a5.14,5.14,0,0,0-.41,1.74,3.52,3.52,0,0,0,.44,1.72c.62,1.13,1.57,2.33,2.23,3.74.16.35.32.71.46,1.08s.27.77.37,1.14l.13.54.07.27,0,.17,0,.14c.06.39.14.78.18,1.18a9.51,9.51,0,0,1,0,2.44,7.69,7.69,0,0,1-.29,1.24,7.52,7.52,0,0,1-.53,1.15,8.74,8.74,0,0,1-1.48,1.92c-.54.57-1.1,1-1.64,1.5l-1.58,1.3-.73.62-.72.63a4.28,4.28,0,0,0-1.41,2.59,6.65,6.65,0,0,0,.29,2.73,12.76,12.76,0,0,0,.86,2.11c.29.58.55,1,.73,1.31s.29.45.29.45a.11.11,0,0,1,0,.14A.09.09,0,0,1,288.48,291.14Z"/><path class="cls-49" d="M188.49,287.54l-.46-.4c-.29-.26-.71-.64-1.18-1.14a24.63,24.63,0,0,1-3.31-4.36l-.81-1.47c-.22-.52-.45-1.06-.69-1.6s-.38-1.13-.57-1.72a15.66,15.66,0,0,1-.36-1.81,11.85,11.85,0,0,1-.11-1.89,10.55,10.55,0,0,1,.16-1.93c.05-.32.08-.65.14-1s.18-.64.26-1l.26-1c.1-.33.26-.65.39-1a20.33,20.33,0,0,1,2-3.72l1.16-1.75,1-1.7c.31-.56.57-1.12.85-1.67s.47-1.09.71-1.62.38-1.05.56-1.55.27-1,.4-1.46.18-.92.23-1.36.11-.84.1-1.22a9.83,9.83,0,0,0-.14-2,6.37,6.37,0,0,0-.35-1.28,2.53,2.53,0,0,0-.2-.43s0-.1.09-.12a.26.26,0,0,1,.2.05,4.22,4.22,0,0,1,.28.45,6.56,6.56,0,0,1,.53,1.29,9.34,9.34,0,0,1,.4,2c.06.4,0,.82.05,1.26s0,.91-.07,1.4-.13,1-.23,1.51-.22,1.06-.39,1.61a26.26,26.26,0,0,1-1.27,3.42c-.28.59-.57,1.18-.87,1.79l-1,1.77a17.82,17.82,0,0,0-1.59,3.61c-.09.31-.21.61-.27.92l-.14.92-.15.92c0,.31,0,.62,0,.93a12.13,12.13,0,0,0,.06,1.81,17.64,17.64,0,0,0,.21,1.78c.1.58.16,1.15.29,1.71l.36,1.64.45,1.55c.17.51.33,1,.49,1.45.35.93.67,1.79,1,2.54a11.4,11.4,0,0,0,.48,1.05q.21.5.42.9c.53,1.08.88,1.7.88,1.7h0c0,.05,0,.1-.1.11A.25.25,0,0,1,188.49,287.54Z"/><path class="cls-48" d="M178.65,287.4l-.3-.13c-.19-.09-.46-.22-.77-.4a12.06,12.06,0,0,1-2.29-1.67l-.6-.6-.55-.67c-.17-.23-.32-.49-.48-.74a5.46,5.46,0,0,1-.38-.81,4.14,4.14,0,0,1-.24-.87,4,4,0,0,1-.1-.92c0-.16,0-.32,0-.48l0-.48.06-.49a4.37,4.37,0,0,1,.12-.49,8.92,8.92,0,0,1,.79-2l.48-.95.41-.91c.12-.3.21-.59.32-.88s.16-.57.24-.84a8,8,0,0,0,.17-.79c0-.25.06-.49.09-.73s0-.45,0-.66a4.22,4.22,0,0,0-.33-1.51,3.24,3.24,0,0,0-.32-.56,1.22,1.22,0,0,0-.16-.18s0,0,0-.06a.13.13,0,0,1,.12,0,2.1,2.1,0,0,1,.2.18,3.6,3.6,0,0,1,.43.54,3.87,3.87,0,0,1,.41.91,4.59,4.59,0,0,1,.16.59c0,.2.06.43.09.66s0,.48,0,.73,0,.52-.06.8a11.25,11.25,0,0,1-.39,1.74l-.32.94c-.13.31-.26.63-.4.94a8.21,8.21,0,0,0-.55,1.87,3.87,3.87,0,0,0-.06.46v.9c0,.15.06.29.08.43a4.8,4.8,0,0,0,.21.85,7.81,7.81,0,0,0,.29.81c.11.26.2.52.33.77l.36.72.4.68.42.63c.29.39.55.75.82,1.07.12.16.25.3.37.44l.32.37c.41.45.66.7.66.7h0s0,.05,0,.06A.11.11,0,0,1,178.65,287.4Z"/><path class="cls-49" d="M222.67,262.15l-.39-.29a10,10,0,0,1-1.06-.95,15.47,15.47,0,0,1-1.49-1.7,19.83,19.83,0,0,1-1.63-2.57,22.23,22.23,0,0,1-1.46-3.45c-.1-.32-.21-.65-.3-1s-.18-.72-.26-1.12a8.31,8.31,0,0,1-.1-2.72c0-.12,0-.25.07-.38l0-.2,0-.06,0-.12.07-.26.13-.39a5.44,5.44,0,0,1,.32-.71,5,5,0,0,1,.35-.6,8.86,8.86,0,0,1,1.59-1.79,20.24,20.24,0,0,0,2.78-2.59,7.41,7.41,0,0,0,1.28-3.28,8.69,8.69,0,0,0-.26-3.64,18.1,18.1,0,0,0-1.65-3.25,10.12,10.12,0,0,1-.79-1.81,7,7,0,0,1-.22-1,7.13,7.13,0,0,1-.09-1,7.93,7.93,0,0,1,.65-3.23,6.17,6.17,0,0,1,1.32-1.94,4.45,4.45,0,0,1,1.13-.84l.44-.19c.07,0,.16,0,.19.11a.2.2,0,0,1-.07.22h0l-.38.24a4.58,4.58,0,0,0-.93.92,6.25,6.25,0,0,0-1,1.87,6.52,6.52,0,0,0-.28,2.73,5.46,5.46,0,0,0,.37,1.44,7.88,7.88,0,0,0,.8,1.39l1.07,1.5a9.49,9.49,0,0,1,1.05,1.9,11,11,0,0,1-.8,9.69,27.51,27.51,0,0,1-2.8,3.32,7.18,7.18,0,0,0-1,1.33,2.73,2.73,0,0,0-.14.31c0,.11-.08.2-.09.24s0,0,0,.1l-.06.25,0,.13,0,.07c0-.21,0-.06,0-.1h0l0,.15a10.32,10.32,0,0,0,.34,3.09c.25,1.15.53,2.25.84,3.24s.62,1.9.93,2.7.61,1.49.86,2.07l.83,1.82a.21.21,0,0,1-.06.25A.13.13,0,0,1,222.67,262.15Z"/><path class="cls-48" d="M249.6,263.63l.35-.6c.21-.4.51-1,.85-1.73a19.43,19.43,0,0,0,1-2.85,20.22,20.22,0,0,0,.67-3.86,17.33,17.33,0,0,0,0-2.16c0-.18,0-.36-.05-.54l0-.28h0c0,.23,0,.05,0,.1v-.13l0-.16-.11-.67a5.06,5.06,0,0,0-.12-.61c-.11-.33-.17-.63-.29-1s-.23-.74-.38-1.1c-.29-.72-.6-1.47-1-2.2-.72-1.5-1.6-3-2.51-4.67a51.08,51.08,0,0,1-2.67-5.34,23.88,23.88,0,0,1-1-3.16,12,12,0,0,1-.45-3.81l0-.27v-.19l0-.1.06-.39a7.47,7.47,0,0,1,.26-1.06,8.13,8.13,0,0,1,.71-1.62,14.47,14.47,0,0,1,1.66-2.2,21,21,0,0,0,1.48-1.8,7.73,7.73,0,0,0,1-2,13.06,13.06,0,0,0,.56-4.68,18,18,0,0,0-.69-4.08,28.65,28.65,0,0,0-1-3c-.32-.8-.6-1.41-.79-1.82s-.29-.64-.29-.64a.3.3,0,0,1,0-.28.1.1,0,0,1,.18,0l.34.59c.21.39.53,1,.91,1.72a23.82,23.82,0,0,1,1.26,2.9,19.07,19.07,0,0,1,1,4.37,15.85,15.85,0,0,1-.37,5.66c-.07.25-.13.48-.22.74s-.19.51-.27.69a10.25,10.25,0,0,1-.67,1.28c-.49.79-1,1.46-1.51,2.12a13.34,13.34,0,0,0-1.34,2,5,5,0,0,0-.4,1.05c-.06.19-.05.28-.1.45l0,.4V229s0,.12,0-.07V229a7.68,7.68,0,0,0,.45,2.44,18.31,18.31,0,0,0,1,2.52,37.21,37.21,0,0,0,2.72,4.55,41.52,41.52,0,0,1,2.89,4.69,22.51,22.51,0,0,1,1.17,2.78c.17.49.3,1,.44,1.51s.23,1.13.34,1.68.1.95.15,1.42l0,.46v.4c0,.26,0,.52,0,.78a20.23,20.23,0,0,1-.28,2.92,17.86,17.86,0,0,1-1.41,4.47,12.86,12.86,0,0,1-1.67,2.66,9.34,9.34,0,0,1-1.26,1.3l-.47.36c-.07.05-.15,0-.18-.1A.35.35,0,0,1,249.6,263.63Z"/><path class="cls-49" d="M243.46,267.08v.09a.69.69,0,0,1-.12.36.76.76,0,0,1-.86.24.93.93,0,0,1-.29-.13l-.24-.12-.54-.37a7.71,7.71,0,0,1-1.18-1.14,9.89,9.89,0,0,1-1.16-1.79,10,10,0,0,1-.5-1.14,7.44,7.44,0,0,1-.4-1.49,7.07,7.07,0,0,1-.06-.94v-.3l0-.17,0-.23.05-.28a5.84,5.84,0,0,1,.58-1.64,12.41,12.41,0,0,1,1.51-2.11,20.32,20.32,0,0,0,2.45-3.73,9.63,9.63,0,0,0,.42-1c.06-.16.12-.35.17-.49s.11-.38.15-.53a9.87,9.87,0,0,0,.29-2,8,8,0,0,0-.41-3,4.65,4.65,0,0,0-.33-.74l-.14-.25h0a.17.17,0,0,1,0-.2.07.07,0,0,1,.12,0l.18.22a4.9,4.9,0,0,1,.46.71,6.14,6.14,0,0,1,.52,1.32,10.83,10.83,0,0,1,.31,1.93,11.42,11.42,0,0,1-.1,2.37c0,.23-.06.41-.1.61s-.09.43-.15.64a11.22,11.22,0,0,1-.38,1.25,21.47,21.47,0,0,1-2.35,4.52,9.54,9.54,0,0,0-1,1.93,3.09,3.09,0,0,0-.18.8v.31h0c0-.13,0,0,0-.06v0a2.09,2.09,0,0,0,0,.34,6.82,6.82,0,0,0,.2.85c.1.34.2.65.31,1,.22.62.46,1.19.7,1.71a14.77,14.77,0,0,0,.72,1.39l.33.56.17.26a.54.54,0,0,0,.1.16.72.72,0,0,0,.39.29s.06,0,.08,0l0-.08a.1.1,0,0,1,.15-.05A.17.17,0,0,1,243.46,267.08Z"/><path class="cls-50" d="M261.09,262.78s0,.91.52.81.64-.55-.1-1c-.1-.41-.37-.48-.53-.41S260.77,262.62,261.09,262.78Z"/><path class="cls-51" d="M261.39,262.9s-.66-.88.12-1.22S262.57,262.61,261.39,262.9Z"/><path class="cls-51" d="M261.38,262.88s.32-1.05,1.05-.63S262.31,263.66,261.38,262.88Z"/><path class="cls-51" d="M261.38,262.86s-.32-1.05-1.05-.63S260.45,263.64,261.38,262.86Z"/><path class="cls-51" d="M261.38,262.86s-1-.37-1.13.47S261.45,264.07,261.38,262.86Z"/><path class="cls-50" d="M224.19,271.12s0,.91.52.81.64-.55-.1-1c-.1-.42-.36-.49-.52-.42S223.88,271,224.19,271.12Z"/><path class="cls-51" d="M224.49,271.24s-.66-.88.12-1.22S225.67,271,224.49,271.24Z"/><path class="cls-51" d="M224.48,271.22s.32-1.05,1.05-.63S225.41,272,224.48,271.22Z"/><path class="cls-51" d="M224.48,271.2s-.32-1.05-1-.63S223.55,272,224.48,271.2Z"/><path class="cls-51" d="M224.48,271.2s-1-.37-1.13.47S224.55,272.41,224.48,271.2Z"/><path class="cls-50" d="M236.77,240.71s-1.35.17-1.09.95,1,.83,1.51-.38c.59-.23.64-.65.5-.87S237,240.2,236.77,240.71Z"/><path class="cls-51" d="M236.66,241.18s1.16-1.17,1.84-.1S237.36,242.87,236.66,241.18Z"/><path class="cls-51" d="M236.69,241.16s1.63.24,1.17,1.42S235.74,242.72,236.69,241.16Z"/><path class="cls-51" d="M236.72,241.16s1.49-.71.7-1.71S235.36,240,236.72,241.16Z"/><path class="cls-51" d="M236.72,241.16s.31-1.62-.95-1.58S234.94,241.54,236.72,241.16Z"/><path class="cls-50" d="M200.9,244.37s-1,0-.91.63.66.72,1.18-.16c.48-.12.55-.43.46-.61S201.08,244,200.9,244.37Z"/><path class="cls-51" d="M200.77,244.72s1-.79,1.42.09S201.16,246.07,200.77,244.72Z"/><path class="cls-51" d="M200.8,244.71s1.22.32.77,1.19S199.94,245.81,200.8,244.71Z"/><path class="cls-51" d="M200.82,244.71s1.2-.41.69-1.24S199.89,243.66,200.82,244.71Z"/><path class="cls-51" d="M200.83,244.71s.38-1.21-.59-1.29S199.43,244.84,200.83,244.71Z"/><path class="cls-50" d="M177.47,261s-1.43,0-1.25.85.91,1,1.62-.21c.65-.16.74-.59.62-.84S177.72,260.51,177.47,261Z"/><path class="cls-51" d="M177.29,261.5s1.36-1.08,1.94.12S177.82,263.35,177.29,261.5Z"/><path class="cls-51" d="M177.33,261.48s1.67.45,1,1.62S176.15,263,177.33,261.48Z"/><path class="cls-51" d="M177.36,261.48s1.64-.56.94-1.69S176.09,260,177.36,261.48Z"/><path class="cls-51" d="M177.37,261.48s.52-1.65-.81-1.76S175.45,261.65,177.37,261.48Z"/><path class="cls-50" d="M285.54,240.33s-1.17,0-1,.7.75.81,1.33-.17c.53-.14.61-.49.51-.69S285.74,239.91,285.54,240.33Z"/><path class="cls-51" d="M285.39,240.72s1.12-.88,1.59.1S285.82,242.24,285.39,240.72Z"/><path class="cls-51" d="M285.42,240.71s1.38.37.86,1.33S284.45,242,285.42,240.71Z"/><path class="cls-51" d="M285.45,240.71s1.35-.46.77-1.39S284.4,239.53,285.45,240.71Z"/><path class="cls-51" d="M285.45,240.71s.43-1.36-.66-1.45S283.88,240.85,285.45,240.71Z"/><path class="cls-50" d="M267.27,250s-1.17,0-1,.7.75.81,1.33-.17c.53-.14.61-.49.51-.69S267.47,249.59,267.27,250Z"/><path class="cls-51" d="M267.12,250.41s1.12-.89,1.59.09S267.55,251.92,267.12,250.41Z"/><path class="cls-51" d="M267.15,250.39s1.37.37.86,1.33S266.18,251.63,267.15,250.39Z"/><path class="cls-51" d="M267.18,250.39s1.35-.46.77-1.39S266.13,249.21,267.18,250.39Z"/><path class="cls-51" d="M267.18,250.39s.43-1.36-.66-1.45S265.61,250.53,267.18,250.39Z"/></g><rect class="cls-52" x="12.5" y="10" width="275" height="330" rx="25"/><circle class="cls-2" cx="620" cy="570" r="196.51"/><g class="cls-53"><g class="cls-54"><g class="cls-55"><polygon class="cls-56" points="299.91 402.76 403.22 252.99 506.64 402.7 403.33 552.47 299.91 402.76"/></g><path class="cls-57" d="M155.69,334.15s-54.16,20.59-85.09,71.43c-16.22,70.23,73.69,57.86,89.17,50-8.09,78.21,78.61-4.31,78.61-4.31s6.91,12.07,23.12,22.28,39.07-16.14,42-28.43c0,0,62.65,43,51.59-30.73,0,0,22.85,49.17,47.62,44.42,0,0,32-14.22,16.51-44.94,0,0,25.74,53.74,50.8,53.74,0,0,23-15,11.11-42.68,0,0,52,80.1,50.86,9.75,0,0,46.44,21,20.64-17.65,0,0,5.59-36.92-49.25-65.15C306,250.28,155.69,334.15,155.69,334.15Z"/><path class="cls-58" d="M208.73,429.23c-11,1.31,13.23,58.79,78.38,1,0,0,32.66,82.63,60.66,14.94,0,0,22.39,39.87,58.79-9.93,0,0,8.4,40.79,49.46,0,7.11,7.17,31.24,21.94,43.85-30.89,5.83,16.52,12.14,44.8,56.93,8,0,0,64.39,88.61,57.85,1,0,0,32.66,66.7,50.39,30.86,0,0,16-26.71-3.6-37.66,0,0,33.47,25.71,36.26,1.82s-22.19-40.5-34.32-41.49c0,0,.73-27.21-20.73-39.15,0,0-113.1-85.32-273.74-63.85-107.7,14.4-162.57,16.15-213.22,70.32C114.52,378.18,113.66,440.65,208.73,429.23Z"/><path class="cls-59" d="M210.09,322.74c-96.61,82.66,9.75,83.45,12.28,90.69,10,28.76,26.78-2.87,26.78-2.87s1.42,21.08,19.53,20.14c9.84-.51,24.32-20.81,24.32-20.81s17.68,21.44,26.45,21.63c7.7.17,15.63-18.09,15.63-18.09s18.7,33,33.26-5.31c32,60.42,44.29.72,44.29.72s15.22,16.63,29,18.19c20.08,2.28,33.27-17.71,35.5-25.74,0,0,47.43,28.12,39.06-20.1,0,0,17.3,32.15,36,29.05,0,0,24.21-9.3,12.49-29.39,0,0,19.49,35.14,38.46,35.14,0,0,17.45-9.82,8.41-27.91,0,0,39.39,52.37,38.5,6.38,0,0,35.15,13.71,15.63-11.54,0,0-9.18-27.47-43.77-56.22-7.54-6.27-44.87-32.54-103.05-43.7-29.55-5.67-113.12-12.52-169.94-6.58C277.57,283.88,233.53,304.37,210.09,322.74Z"/><path d="M278,301s-9.82,16.6,18.85,18.71c0,0-3.41,4.21-3.07,15.1,0,0-43.35,20.71-20.14,25.63,0,0,16.38-1.06,23.21-19.67a11.78,11.78,0,0,0,13,3.16S287.55,362,297.65,368c0,0,15.22,7.12,29.22-15.36,0,0,6.48,3.51,10.23-1.4,0,0,1.71,23.88,12.63,24.93,0,0,15.36,7,16-29.85,0,0,12,31.79,34.14,30.38,0,0,26.62-.65,14.67-38.69h5.8s.69,16.15,7.17,17.15c0,0,7.17,7.31,11.61-7.43v-2.46s11.26,8.78,19.11,2.11c0,0-1.71,28.09,15,21.41,0,0,6.14-2.1,7.5-10.88l10.59,1.76s4.77,19.31,14.67,14.74,10.24-19.25,10.24-19.25,7.17,12.23,14-3.92c0,0,18.78,13,27.65,6.32s7.51-17.91,3.41-29.15c0,0,11.27,9.49,15.36,2.81,0,0,7.17-11.58-8.87-29.14-8-8.78-78-27.53-143.06-27.58S303,286,297,287.77C275.75,294.08,278,301,278,301Z"/></g></g></svg>