<svg id="Layer_1" data-name="Layer 1" xmlns="http://www.w3.org/2000/svg" xmlns:xlink="http://www.w3.org/1999/xlink" viewBox="0 0 300 350"><defs><style>.cls-1,.cls-3{fill:#cbfdff;}.cls-1,.cls-35{stroke:#2ca0ce;}.cls-1,.cls-14,.cls-15,.cls-20,.cls-21,.cls-31,.cls-32,.cls-33,.cls-34,.cls-35,.cls-8{stroke-miterlimit:10;}.cls-1,.cls-20,.cls-35{stroke-width:3px;}.cls-18,.cls-2{fill:#0c2635;}.cls-4{clip-path:url(#clip-path);}.cls-5{fill:#0c3a24;opacity:0.42;}.cls-14,.cls-15,.cls-32,.cls-6{fill:#f99c48;}.cls-30,.cls-7{fill:#231f20;}.cls-19,.cls-25,.cls-7{opacity:0.17;}.cls-21,.cls-27,.cls-31,.cls-35,.cls-8{fill:none;}.cls-14,.cls-15,.cls-31,.cls-32,.cls-8{stroke:#350614;}.cls-27,.cls-8{stroke-width:0.5px;}.cls-9{fill:#151717;}.cls-10{fill:#021119;}.cls-11{fill:#bdc7d8;}.cls-12{fill:#f0f2f8;}.cls-13{fill:#a6b3c6;}.cls-14{stroke-width:4px;}.cls-14,.cls-16,.cls-17{opacity:0.2;}.cls-15,.cls-28,.cls-31{stroke-width:0.75px;}.cls-16,.cls-17{fill:#fff;}.cls-17,.cls-18{fill-rule:evenodd;}.cls-19,.cls-20,.cls-26{fill:#51180d;}.cls-20{stroke:#110402;opacity:0.18;}.cls-21{stroke:#51231e;}.cls-22{clip-path:url(#clip-path-2);}.cls-23{fill:#5b6f80;}.cls-24{clip-path:url(#clip-path-3);}.cls-27{stroke:#591e0e;stroke-linejoin:round;}.cls-28{fill:#c9ccd4;stroke:#601c0f;}.cls-29{fill:#f9eb6b;}.cls-30{opacity:0.07;}.cls-33{fill:#93938d;}.cls-33,.cls-34{stroke:#f3ffcc;}.cls-34{fill:#777774;}</style><clipPath id="clip-path"><rect class="cls-1" x="12.5" y="10" width="275" height="330" rx="25"/></clipPath><clipPath id="clip-path-2"><path class="cls-2" d="M102.47,176.75c20.08.73,68.38.34,83.47-1,9.78-14.94,20.55-31.45,38.48-33.38-26.14-.09-48.69.7-62.51,1.9C148.27,145.43,122,159.37,102.47,176.75Z"/></clipPath><clipPath id="clip-path-3"><path class="cls-2" d="M194.07,177.26c28-1.94,60.19-8.38,64.39-9.49,1.7-.45,1.79-1.41,2.53-4.29-10.08-12.57-25.76-18-33.48-17.36C206,148,194.07,177.26,194.07,177.26Z"/></clipPath></defs><rect class="cls-3" x="12.5" y="10" width="275" height="330" rx="25"/><g class="cls-4"><path class="cls-5" d="M281.72,229.06c.13,8.9-46.39,28.56-107.9,29.44S59.1,241.14,59,232.25s49.63-16.81,111.14-17.69S281.6,220.17,281.72,229.06Z"/><path class="cls-6" d="M106.59,170.58l.34,1.1A6.46,6.46,0,0,0,106.59,170.58Z"/><path class="cls-6" d="M103.15,174.9c4.73,1.59,3.88-1.44,3.15-4.87a1.67,1.67,0,0,0-.49-.5c-2.14-1.41-7.29-1.85-8-.19a3.09,3.09,0,0,0-.17.54c.06.14.13.28.2.42C99.28,173.07,100.33,174,103.15,174.9Z"/><path class="cls-6" d="M107.9,175.76a26.46,26.46,0,0,1-1-4.08l-.34-1.1a3.55,3.55,0,0,0-.29-.55c.73,3.43,1.58,6.46-3.15,4.87-2.82-1-3.87-1.83-5.3-4.6-.07-.14-.14-.28-.2-.42-.5,2.1.53,5.44,2.6,6.19a35,35,0,0,0,5.4,1.39,4.17,4.17,0,0,0,1.56,1.36,1.63,1.63,0,0,0,1.51-.55l-.87-1.65Z"/><path class="cls-7" d="M107.9,175.76a26.46,26.46,0,0,1-1-4.08l-.34-1.1a3.55,3.55,0,0,0-.29-.55c.73,3.43,1.58,6.46-3.15,4.87-2.82-1-3.87-1.83-5.3-4.6-.07-.14-.14-.28-.2-.42-.5,2.1.53,5.44,2.6,6.19a35,35,0,0,0,5.4,1.39,4.17,4.17,0,0,0,1.56,1.36,1.63,1.63,0,0,0,1.51-.55l-.87-1.65Z"/><path class="cls-8" d="M107.85,176.65l.05-.86a26.46,26.46,0,0,1-1-4.08,6.46,6.46,0,0,0-.34-1.1,3.55,3.55,0,0,0-.29-.55,1.67,1.67,0,0,0-.49-.5c-2.15-1.41-7.29-1.85-8-.18a2.74,2.74,0,0,0-.17.53c-.5,2.1.52,5.44,2.6,6.19a34.64,34.64,0,0,0,5.4,1.39,4.17,4.17,0,0,0,1.56,1.36,1.61,1.61,0,0,0,1.51-.55Z"/><path class="cls-9" d="M270.69,217.74l-19.78,9-45.08,7.66L174,232.77l-51.38-3.55,15.72-38.35,130.71,5.89a87.68,87.68,0,0,0,1.67,9.2C271.91,211,270.69,217.74,270.69,217.74Z"/><path class="cls-9" d="M268.39,217.7l-19.78,9-45.08,7.67-31.83-1.68-51.38-3.55L136,190.83l130.71,5.89a90.5,90.5,0,0,0,1.67,9.19C269.61,210.92,268.39,217.7,268.39,217.7Z"/><ellipse class="cls-10" cx="180.63" cy="228.06" rx="23.43" ry="10.3" transform="translate(-50.85 404.28) rotate(-88.9)"/><polygon class="cls-10" points="181.07 204.63 194.02 204.88 193.35 252.31 180.18 251.48 181.07 204.63"/><ellipse class="cls-2" cx="193.81" cy="228.6" rx="23.72" ry="10.7" transform="translate(-38.46 417.99) rotate(-88.9)"/><ellipse class="cls-11" cx="194.5" cy="228.61" rx="18.16" ry="7.89" transform="translate(-37.8 418.69) rotate(-88.9)"/><ellipse class="cls-2" cx="194.67" cy="228.61" rx="16.35" ry="6.94" transform="translate(-37.63 418.86) rotate(-88.9)"/><polygon class="cls-11" points="195.96 211.05 194.28 225.81 201.51 220.59 202 223.73 194.49 229.22 200.27 239.39 199.3 242.12 193.28 231.66 190.62 244.3 189.35 241.99 191.89 229.14 186.95 225.39 187.44 221.69 192.25 225.53 193.91 210.82 195.96 211.05"/><path class="cls-11" d="M191.06,228.54c-.05,2.91.92,5.28,2.18,5.3s2.33-2.31,2.39-5.21-.93-5.27-2.19-5.3S191.12,225.64,191.06,228.54Z"/><path class="cls-2" d="M191.39,228.55c0,1.38.44,2.51,1,2.53s1.11-1.1,1.13-2.49-.43-2.51-1-2.52S191.42,227.17,191.39,228.55Z"/><ellipse class="cls-10" cx="93.55" cy="223.32" rx="21.53" ry="15.75" transform="translate(-131.52 312.57) rotate(-88.9)"/><polygon class="cls-10" points="93.79 201.79 103.25 201.97 101.33 245.68 92.97 244.83 93.79 201.79"/><ellipse class="cls-10" cx="101.99" cy="223.88" rx="21.79" ry="15.17" transform="translate(-123.8 321.57) rotate(-88.9)"/><ellipse class="cls-12" cx="102.97" cy="223.9" rx="16.68" ry="11.18" transform="translate(-122.86 322.56) rotate(-88.9)"/><ellipse class="cls-2" cx="103.21" cy="223.91" rx="15.02" ry="9.84" transform="translate(-122.63 322.81) rotate(-88.9)"/><polygon class="cls-12" points="104.88 207.78 103.48 221.34 112.83 216.6 113.56 219.49 103.8 224.48 111.25 233.86 109.91 236.36 102.12 226.71 97.63 238.28 95.81 236.14 100.12 224.38 92.25 220.87 92.9 217.48 100.59 221.06 101.96 207.55 104.88 207.78"/><path class="cls-13" d="M98.8,223.82c0,2.67,1.36,4.86,3.14,4.89s3.28-2.1,3.33-4.76-1.35-4.86-3.14-4.89S98.85,221.16,98.8,223.82Z"/><path class="cls-12" d="M99.89,223.84c0,1.27.65,2.32,1.5,2.33s1.56-1,1.58-2.27-.64-2.31-1.49-2.33S99.92,222.57,99.89,223.84Z"/><path class="cls-6" d="M108,175.86l0-.1-.05.86.87,1.65.16-.2C109.57,177.14,108,175.86,108,175.86Z"/><path class="cls-7" d="M108,175l-1-3.31a26.46,26.46,0,0,0,1,4.08Z"/><path class="cls-10" d="M246.89,219.9c-.19,9.91,2.86,18,6.8,18.08s7.3-7.9,7.49-17.81-2.85-18-6.8-18.08S247.08,210,246.89,219.9Z"/><polygon class="cls-10" points="254.38 202.09 263.36 202.26 262.83 238.6 253.69 237.98 254.38 202.09"/><path class="cls-2" d="M255.76,220.29c-.2,10,3,18.23,7.07,18.31s7.58-8,7.78-18-3-18.23-7.08-18.31S256,210.26,255.76,220.29Z"/><path class="cls-11" d="M258.19,220.34c-.15,7.68,2.18,13.95,5.2,14s5.6-6.12,5.74-13.8-2.18-14-5.2-14S258.34,212.66,258.19,220.34Z"/><path class="cls-2" d="M259,220.35c-.13,6.92,1.92,12.57,4.58,12.62s4.92-5.52,5.06-12.43S266.68,208,264,207.92,259.09,213.44,259,220.35Z"/><polygon class="cls-11" points="264.7 206.99 263.51 218.3 268.54 214.29 268.87 216.7 263.65 220.91 267.65 228.69 266.98 230.78 262.81 222.78 260.95 232.46 260.07 230.7 261.85 220.85 258.43 217.99 258.77 215.16 262.1 218.09 263.27 206.81 264.7 206.99"/><path class="cls-11" d="M261.28,220.4c0,2.22.63,4,1.5,4s1.62-1.77,1.66-4-.63-4-1.5-4.06S261.32,218.17,261.28,220.4Z"/><path class="cls-2" d="M261.5,220.4c0,1.06.3,1.93.72,1.93s.77-.84.79-1.9-.3-1.92-.71-1.93S261.52,219.34,261.5,220.4Z"/><path class="cls-14" d="M194.07,177.26l63.4-11.68,4.18-2.5,6.72,4.88c-.5.88-3.95,3.31-6.17,3.9-14.1,3.76-46.3,8.07-58,9.52h0l-2.65-2.79-4,.4,2.84,2.82C189.27,183,176,183.39,194.07,177.26Z"/><path class="cls-15" d="M270.69,217.74l.12-4.19s-.09-15.61-6.46-15.4c-5.23.17-7.56,6.6-9.31,13.72-1.48,6-2.56,15-5.87,15.47-7.13.94-15.75,2.26-23.14,3.23s-19.2,3.9-19.2,3.9c1.32-12.4-.38-37.57-11.12-37.22-9.93.32-13.81,18.79-16,39.76-2.23,1.2-22.17,1.88-31.26,1.71-9.7-.19-55.84-2.58-61.58-3.38s-9.84-1.2-12.61-7.54c-4.55-10.4-4-19.91-3-23.58,1.71-6.71,3.66-18.71,28.59-27.52.84-.3,5.14,0,6.06-.16,18.89-16.56,39.5-29.31,56.25-31.26,16.33-1.9,42.74-2.49,62.32-2.93,13.21-.3,26.11,7.1,37,20.52,3.86,3.17,6.67,5.29,6.67,5.29s4.7,21.86,5.6,23.53C274.83,193.81,273.1,215.38,270.69,217.74Z"/><path class="cls-16" d="M232.13,221.43c-9.15,1.38-21.92,3.72-19.22,4.74s13.84-1.32,21.1-2.68C251.32,220.24,259.41,217.33,232.13,221.43Z"/><path class="cls-2" d="M177.27,240.61a4.88,4.88,0,0,0,2.4-3.6s-21.51,2.22-23.37,1c-6-4.07-14.19-11.82-28.55-12.55-7.28-.38-45.91-2.54-50.45-2.42s-.19,15,4.14,15.67c10.87,1.55,49.32,4.11,58.95,4S177.27,240.61,177.27,240.61Z"/><polygon class="cls-17" points="260.93 175.11 255.43 176.54 255.81 175.14 261.3 173.71 260.93 175.11"/><polygon class="cls-18" points="260.89 174.88 255.39 176.31 255.76 174.91 261.26 173.48 260.89 174.88"/><polygon class="cls-17" points="237.54 180.48 229.93 181.74 230.47 180.16 238.09 178.91 237.54 180.48"/><polygon class="cls-18" points="237.51 180.21 229.9 181.47 230.44 179.9 238.06 178.64 237.51 180.21"/><path class="cls-19" d="M207.45,193.44c2.23,10.54,3.34,29.58,7.17,29.15,4.66-.53,28.19-4.46,31.23-5.22S253,201,255.61,194.68c2.45-5.87,10.81-18.64,15.45,12.4.57,3.82,1-7.8.77-12-.51-8.82-2.82-12.86-26.27-11.15C237.05,184.61,206.15,187.31,207.45,193.44Z"/><path class="cls-19" d="M182.28,202.76c2.74-2.75-6.59,4.63-11.61,16.16a14.48,14.48,0,0,1-13.84,8.73c-5.53-.22-9.57-1.47-6.73.94,3.86,3.26,8.27,7,13.86,6.88l3.28-.1a6.86,6.86,0,0,0,6.53-6.23C174.5,221.44,179.65,205.39,182.28,202.76Z"/><path class="cls-20" d="M90.08,202.7c6.8,0,20.18.82,28.19,1.23,10.23.53,21.6,8,28.55,15.66,3.49,3.84-14.51,2-29.82,1.54-10-.28-21.11-.65-27.91-1.35s-17.49,1.41-15.74-3.39C74.82,212.37,81.24,202.74,90.08,202.7Z"/><path class="cls-21" d="M90.07,202.85c6.81,0,20.18.82,28.2,1.24,10.23.53,21.6,8,28.55,15.65,3.49,3.85-14.51,2-29.83,1.54-9.95-.27-21.1-.64-27.9-1.34s-17.49,1.4-15.74-3.4C74.82,212.53,81.24,202.9,90.07,202.85Z"/><path class="cls-2" d="M102.47,176.75c20.08.73,68.38.34,83.47-1,9.78-14.94,20.55-31.45,38.48-33.38-26.14-.09-48.69.7-62.51,1.9C148.27,145.43,122,159.37,102.47,176.75Z"/><g class="cls-22"><path class="cls-23" d="M103.7,177.39c39.11-26.91,104.5-32.26,120.79-35.25-26.14-.08-40.28.38-54.1,1.44C149.61,145.18,123.23,160,103.7,177.39Z"/></g><path class="cls-2" d="M252.67,222.55S241.14,225,230.5,227c-9.94,1.88-15.2,3.22-23.46,5.13a23,23,0,0,1-1.17,2.11l-.15.85s21.44-4.25,28.06-5.07c12.55-1.54,16.08-1.71,17.07-2.7S252.67,222.55,252.67,222.55Z"/><path class="cls-2" d="M194.07,177.26c28-1.94,60.19-8.38,64.39-9.49,1.7-.45,1.79-1.41,2.53-4.29-10.08-12.57-25.76-18-33.48-17.36C206,148,194.07,177.26,194.07,177.26Z"/><g class="cls-24"><path class="cls-23" d="M194.61,175.62s15.5-18.41,37.64-18.54c17.34-.1,28.76,5.53,28.76,5.53s-.54-20.4-21.17-20.79-35.3,4-39,10.53S194.61,175.62,194.61,175.62Z"/></g><path class="cls-2" d="M229.2,146.07c-.6,0-1.16,0-1.69.05-21.5,1.89-33.44,31.14-33.44,31.14,28-1.94,60.19-8.38,64.39-9.49,1.7-.45,1.79-1.41,2.53-4.29C251.6,151.77,237.35,146.23,229.2,146.07Zm29.37,19.8c-.07.11-.11.19-.53.3-2,.53-11.09,2.42-23.13,4.41-9.84,1.62-24.2,3.73-38.18,4.83a77,77,0,0,1,7.31-12,49.21,49.21,0,0,1,10.14-10.27,26.86,26.86,0,0,1,13.47-5.35,14.74,14.74,0,0,1,1.52-.05c4.17.08,9.53,1.61,14.72,4.2a47.89,47.89,0,0,1,15.3,12A11.14,11.14,0,0,1,258.57,165.87Z"/><g class="cls-25"><path class="cls-26" d="M82.2,196.22a129.61,129.61,0,0,0,17.1,1.66c11.35.29,28.88-.54,28.88-.54l5-7.17s-19.1,1.82-33.24,1.41c-11.44-.33-15.71-2-15.71-2Z"/></g><ellipse class="cls-2" cx="101.18" cy="194.56" rx="2.48" ry="1.85" transform="translate(-105.54 121.37) rotate(-43.03)"/><path class="cls-27" d="M229.26,146.16l5.84,26.06,4.41,4.12c.42,15.7.06,31.65-2.35,42.1-.55,2.42,2,4.27,2,4.27s-.33,6-4.27,7.06"/><path class="cls-27" d="M255.17,157.51l3.29,10.26,3.74,4.09s.37,10.09-.09,13.06.68,5.27.84,7.07a28.7,28.7,0,0,1,0,6.37"/><path class="cls-27" d="M199.92,176.8l4.31,4.58c5.09,14.65,6.76,37,7.37,41.07A16.24,16.24,0,0,0,213,227s.46,5.68-3.34,7.33"/><path class="cls-27" d="M164,185.61s21.73-6.44,30.12-8.35"/><path class="cls-27" d="M185.94,175.73a5.42,5.42,0,0,1,1.87,3.07"/><path class="cls-27" d="M164,185.61s11,6,16.06,8.52a38.31,38.31,0,0,1,7.1,4.51l2,2.2"/><path class="cls-28" d="M126.93,199.1a69.56,69.56,0,0,1,6.25-8.93c5.54-.59,24.94-3.16,30.77-4.61-2.46,4.38-3.66,5.68-7,6.95C151.2,194.7,140.11,197.38,126.93,199.1Z"/><path class="cls-28" d="M82.18,197.56c-3-.36-6.47-2.59-6.24-4.77.34-3.31,5.27-6.27,5.27-6.27-.4.23.31,2.27,3.36,3.18A60.87,60.87,0,0,0,82.18,197.56Z"/><path class="cls-6" d="M199.25,176.55l-.08.1s-2.54,1.3-1.54,2.34l.24.22,1.41-1.74Z"/><path class="cls-29" d="M202.34,172.46l1.44-1.5A17.29,17.29,0,0,0,202.34,172.46Z"/><path class="cls-6" d="M206.57,175.85c4.36-.88,6-1.79,8.33-4.7a11.47,11.47,0,0,0,1-1.46c-1.31-1.22-7.41-1.13-10.4.12a5.74,5.74,0,0,0-1.24.78C201.14,174.68,198.69,177.44,206.57,175.85Z"/><path class="cls-30" d="M204.5,170.22l-.72.74.44-.37Z"/><path class="cls-30" d="M199.21,175.71l0,.84c.81-1.14,1.91-2.72,3.09-4.09Z"/><path class="cls-6" d="M200.15,179.88a6.28,6.28,0,0,0,2.46-1.39,73.55,73.55,0,0,0,8.33-1.23c3.5-.77,5.15-4.63,5.17-7a.7.7,0,0,0-.25-.52,11.47,11.47,0,0,1-1,1.46c-2.33,2.91-4,3.82-8.33,4.7-7.88,1.59-5.43-1.17-2.35-5.26l-.44.37-1.44,1.5c-1.18,1.37-2.28,2.95-3.09,4.09l0,.92-1.41,1.74A3,3,0,0,0,200.15,179.88Z"/><path class="cls-7" d="M200.14,179.88a6.42,6.42,0,0,0,2.46-1.39,73.66,73.66,0,0,0,8.32-1.23c3.51-.77,5.15-4.63,5.18-7a.68.68,0,0,0-.26-.52,9.66,9.66,0,0,1-1,1.46c-2.33,2.91-4,3.82-8.33,4.7-7.87,1.59-5.43-1.17-2.35-5.26l-.43.37-1.45,1.5c-1.18,1.37-2.28,2.95-3.09,4.09l0,.92-1.41,1.74A3,3,0,0,0,200.14,179.88Z"/><path class="cls-31" d="M215.85,169.7h0c-1.31-1.22-7.41-1.13-10.4.12a13.19,13.19,0,0,0-1.69,1.15l-1.45,1.5c-1.18,1.37-2.28,2.95-3.09,4.09v0l-.06.08s-2.54,1.3-1.54,2.34l.23.21h0a3,3,0,0,0,2.28.67,6.42,6.42,0,0,0,2.46-1.39,73.66,73.66,0,0,0,8.32-1.23c3.51-.77,5.15-4.63,5.18-7A.7.7,0,0,0,215.85,169.7Z"/><path class="cls-32" d="M204.85,151.57c-14.3-4.11-56.21-4-68.65,1.89,0,0,14.08-7.89,25.71-9.21s57.34-2.57,65-1.88C227,142.37,211.61,145.73,204.85,151.57Z"/><path class="cls-19" d="M140.46,151.94s28.13-7.08,64.39-.37c0,0,1.67-1.34,2.62-1.91S169.07,143,140.46,151.94Z"/><path class="cls-16" d="M100.06,177.26c-23.79,6.42-16.18,12.49,2.37,12.84,39,.74,83.78-13.8,83.78-13.8Z"/><polygon class="cls-33" points="81.5 96.94 80.62 106.96 92.13 113.31 89.73 122.37 101.09 128.35 98.64 137.56 112.47 144.45 103.35 136.17 106.93 123.44 96.19 117.79 99.01 106.34 81.5 96.94"/><polygon class="cls-34" points="33.4 234.18 36.4 227.07 44.8 225.54 46.64 218.72 54.82 217.42 56.69 210.48 66.52 209.15 58.74 212.6 56.27 222.24 48.53 223.47 46.09 232.04 33.4 234.18"/><polygon class="cls-33" points="18 202.05 23.06 194.98 35.88 199.78 39.18 192.16 51.66 197.08 55.01 189.32 69.98 195.56 57.96 193.83 53.49 204.7 41.7 200.05 37.35 209.52 18 202.05"/><polygon class="cls-34" points="27.66 120.99 33.13 134.61 55.78 132.16 58.17 145.93 80.33 143.13 82.74 157.15 109.44 153.26 89.27 151.06 86.24 131.49 65.31 134.15 61.94 116.92 27.66 120.99"/></g><rect class="cls-35" x="12.5" y="10" width="275" height="330" rx="25"/></svg>