<svg xmlns="http://www.w3.org/2000/svg" xmlns:xlink="http://www.w3.org/1999/xlink" viewBox="0 0 400 400"><defs><style>.cls-1,.cls-113{fill:#fff;}.cls-114,.cls-2{fill:none;}.cls-3{isolation:isolate;}.cls-4{clip-path:url(#clip-path);}.cls-5{clip-path:url(#clip-path-2);}.cls-6{fill:url(#linear-gradient);}.cls-7{fill:url(#linear-gradient-2);}.cls-8{fill:url(#linear-gradient-3);}.cls-9{fill:url(#linear-gradient-4);}.cls-10{fill:url(#linear-gradient-5);}.cls-11{fill:url(#linear-gradient-6);}.cls-12{fill:url(#linear-gradient-7);}.cls-13{fill:url(#linear-gradient-8);}.cls-14{fill:url(#linear-gradient-9);}.cls-15{fill:#a1cfe8;}.cls-16{opacity:0.1;}.cls-16,.cls-42,.cls-52{mix-blend-mode:overlay;}.cls-17{fill:#95c6e3;}.cls-18{fill:#f6e5d5;}.cls-19{fill:#d9ebee;}.cls-20{fill:#0174aa;}.cls-21{fill:#57bfe0;}.cls-21,.cls-22{mix-blend-mode:screen;}.cls-22{fill:#176882;}.cls-23{fill:#5e7291;}.cls-24{fill:#0195ba;}.cls-25{fill:#fff6ed;}.cls-26{fill:#abc0c5;}.cls-27{fill:#c5c7c9;}.cls-28,.cls-88{fill:#d8d9db;}.cls-29{fill:#bfc1c4;}.cls-30{fill:#546a72;}.cls-31{fill:#5c8391;}.cls-32{fill:#4f7d8e;}.cls-33{fill:#4f9fb2;}.cls-34{fill:#115c7d;}.cls-35{fill:#f0dfbd;}.cls-36{fill:#08a2c9;}.cls-37{fill:#eff3f1;}.cls-38{fill:#7b8aa7;}.cls-39{fill:#348ba3;}.cls-40{fill:#cce7e9;}.cls-41{fill:#a4c8cf;}.cls-41,.cls-59,.cls-65,.cls-67,.cls-69{mix-blend-mode:multiply;}.cls-42{opacity:0.2;}.cls-43{opacity:0.8;}.cls-44{fill:#55a3bb;}.cls-45{fill:#739898;}.cls-46{fill:#364375;}.cls-47{fill:#507391;}.cls-48{fill:#d1baa7;}.cls-49{fill:#decab6;}.cls-50{fill:#af8b72;}.cls-51{fill:#c69377;}.cls-52,.cls-72{opacity:0.3;}.cls-53{fill:#937e6c;}.cls-54{fill:#ad957f;}.cls-55{fill:#ab8e76;}.cls-56{fill:#c2b6b4;}.cls-57{fill:#f7f3f0;}.cls-58{fill:#2a5f93;}.cls-59{fill:#f2e9e1;}.cls-60{fill:#40d4d6;}.cls-61{fill:#93c223;}.cls-62,.cls-67{fill:#e5e6e8;}.cls-63{fill:#aeafb5;}.cls-64{fill:#c3c5c9;}.cls-65{fill:#edf0f5;}.cls-66{fill:#979ca6;}.cls-68{fill:#0188aa;}.cls-69{fill:#acbdc2;}.cls-70,.cls-72{fill:#3a3a3a;}.cls-71{fill:#bababa;}.cls-73{fill:#4d4d47;}.cls-74{fill:#262623;}.cls-75{fill:#bc8408;}.cls-76{fill:#a8a9ad;}.cls-77{fill:#0c9c5d;}.cls-78{fill:#dbb619;stroke-width:0.5px;}.cls-78,.cls-81,.cls-96,.cls-98{stroke:#bf9b02;}.cls-104,.cls-106,.cls-113,.cls-114,.cls-78,.cls-81,.cls-83,.cls-84,.cls-85,.cls-86,.cls-87,.cls-88,.cls-89,.cls-90,.cls-92,.cls-93,.cls-96,.cls-98{stroke-miterlimit:10;}.cls-79{fill:#1d1d1b;}.cls-80,.cls-84{fill:#bdbec0;}.cls-81{fill:#f9cf1c;}.cls-104,.cls-81{stroke-width:0.75px;}.cls-82{fill:#fcba00;}.cls-83{fill:#d97144;stroke:#99492c;}.cls-83,.cls-84,.cls-85,.cls-86,.cls-87,.cls-88,.cls-89,.cls-90,.cls-92,.cls-93,.cls-96,.cls-98{stroke-width:0.25px;}.cls-84,.cls-85,.cls-86,.cls-87,.cls-88,.cls-89,.cls-90,.cls-92,.cls-93{stroke:#515151;}.cls-85{fill:#097773;}.cls-86{fill:#0a837f;}.cls-87{fill:#ffb327;}.cls-89{fill:#ffc04d;}.cls-90,.cls-91{fill:#333;}.cls-92{fill:#ba080f;}.cls-103,.cls-93{fill:#2b2b28;}.cls-94{fill:#e3e5f2;}.cls-95{fill:#1c1a1c;}.cls-96{fill:#f2c406;}.cls-97{fill:#fff4b3;}.cls-98{fill:#e8be0f;}.cls-99{fill:#f4b22f;}.cls-100{fill:#f9d84b;}.cls-101{fill:#041708;}.cls-102{fill:#8cc9de;}.cls-104{fill:#323232;stroke:#141411;}.cls-105{fill:#cf351b;}.cls-106{fill:#be1e2d;stroke:#f5f5f5;}.cls-106,.cls-114{stroke-width:0.07px;}.cls-107{fill:#f4721c;}.cls-108{fill:#f5f5f5;}.cls-109{fill:#ed1c24;}.cls-110{fill:#231f20;}.cls-111{fill:#3d3b3d;}.cls-112{fill:#414042;}.cls-113{stroke:#3d3b3d;stroke-width:0.1px;}.cls-114{stroke:#be1e2d;}.cls-115{fill:#93bdc4;}.cls-116{fill:#b4dbda;}.cls-117{fill:#c4e1e2;}.cls-118{fill:#141611;}.cls-119{fill:#303434;}.cls-120{fill:#d09d52;}.cls-121{fill:#d5e0e7;}.cls-122{fill:#f97516;}</style><clipPath id="clip-path"><circle class="cls-1" cx="200" cy="200" r="196.51"/></clipPath><clipPath id="clip-path-2"><rect class="cls-2" x="-186.98" y="-20.15" width="781.84" height="436.93"/></clipPath><linearGradient id="linear-gradient" x1="134.73" y1="490.85" x2="264.5" y2="-150.68" gradientUnits="userSpaceOnUse"><stop offset="0.25" stop-color="#c9e9f2"/><stop offset="0.55" stop-color="#c7e8f1"/><stop offset="0.66" stop-color="#c0e6ef"/><stop offset="0.73" stop-color="#b5e2ec"/><stop offset="0.79" stop-color="#a4dce7"/><stop offset="0.83" stop-color="#96d7e3"/></linearGradient><linearGradient id="linear-gradient-2" x1="14.45" y1="31.51" x2="28.62" y2="17.34" gradientUnits="userSpaceOnUse"><stop offset="0.15" stop-color="#81cbd7"/><stop offset="0.82" stop-color="#d5eef3"/></linearGradient><linearGradient id="linear-gradient-3" x1="98.36" y1="-119.33" x2="121.37" y2="-142.36" gradientTransform="matrix(0.97, -0.09, 0.07, 0.77, -88.29, 133.7)" gradientUnits="userSpaceOnUse"><stop offset="0.4" stop-color="#accdec"/><stop offset="0.53" stop-color="#bad7f0"/><stop offset="0.81" stop-color="#d3eaf6"/><stop offset="0.98" stop-color="#dcf1f9"/></linearGradient><linearGradient id="linear-gradient-4" x1="89.77" y1="48.79" x2="116.31" y2="22.23" gradientUnits="userSpaceOnUse"><stop offset="0.15" stop-color="#81cbd7"/><stop offset="0.9" stop-color="#d5eef3"/></linearGradient><linearGradient id="linear-gradient-5" x1="360.82" y1="28.02" x2="374.68" y2="14.15" xlink:href="#linear-gradient-2"/><linearGradient id="linear-gradient-6" x1="452.57" y1="-83.4" x2="475.09" y2="-105.94" xlink:href="#linear-gradient-3"/><linearGradient id="linear-gradient-7" x1="167.51" y1="215.47" x2="185.61" y2="197.35" xlink:href="#linear-gradient-2"/><linearGradient id="linear-gradient-8" x1="232.99" y1="136.35" x2="262.13" y2="107.2" xlink:href="#linear-gradient-3"/><linearGradient id="linear-gradient-9" x1="265.54" y1="236.79" x2="299.56" y2="202.75" xlink:href="#linear-gradient-4"/></defs><g class="cls-3"><g id="Layer_1" data-name="Layer 1"><circle class="cls-1" cx="200" cy="200" r="196.51"/><g class="cls-4"><g class="cls-5"><rect class="cls-6" x="-186.98" y="-20.15" width="783.77" height="328.13"/><path class="cls-7" d="M14.15,23.46s.29-2,3.93-3.34S24.79,18,28,19.6s2.49,5.11,1.82,5.53c-1.3.81-4.11,1.88-11.6.83C13.67,25.34,14.15,23.46,14.15,23.46Z"/><path class="cls-8" d="M-2.56,22.09s1-3,8.05-4.74,11.63-2.61,15.57.27,2,7.7-.81,8.3S5.94,27-1,25.07C-1,25.07-3.5,24.18-2.56,22.09Z"/><path class="cls-9" d="M88.88,33.61s.55-3.33,7.57-5.62,12.92-3.51,19-.87,4.8,8.6,3.51,9.3c-2.51,1.36-7.92,3.16-22.34,1.4C88,36.77,88.88,33.61,88.88,33.61Z"/><path class="cls-10" d="M360.52,20.14s.28-1.94,3.85-3.27,6.56-2,9.66-.51,2.44,5,1.78,5.41c-1.27.8-4,1.84-11.35.82C360.05,22,360.52,20.14,360.52,20.14Z"/><path class="cls-11" d="M344.17,18.8s1-2.93,7.87-4.64,11.39-2.56,15.24.26,1.93,7.54-.78,8.13-14,1.07-20.83-.83C345.67,21.72,343.24,20.85,344.17,18.8Z"/><path class="cls-12" d="M167,205.14s.38-2.38,5.12-4,8.72-2.49,12.83-.62,3.25,6.11,2.37,6.61c-1.69,1-5.34,2.25-15.08,1C166.35,207.38,167,205.14,167,205.14Z"/><path class="cls-13" d="M145.24,203.5s1.3-3.58,10.47-5.67,15.13-3.12,20.25.32,2.56,9.21-1,9.93-18.62,1.3-27.67-1C147.25,207.07,144,206,145.24,203.5Z"/><path class="cls-14" d="M264.17,217.28s.72-4,9.84-6.72,16.81-4.2,24.73-1.05,6.25,10.28,4.57,11.12c-3.27,1.63-10.29,3.78-29.06,1.68C263,221.05,264.17,217.28,264.17,217.28Z"/><rect class="cls-15" x="221.81" y="40.23" width="21.46" height="12.96"/><rect class="cls-15" x="220.57" y="45.6" width="27.37" height="12.96"/><polygon class="cls-15" points="220.62 213.44 220.56 47.7 249.25 47.7 249.25 213.44 220.62 213.44"/><polygon class="cls-15" points="220.62 213.44 220.56 48.35 249.25 48.35 249.25 213.44 220.62 213.44"/><rect class="cls-15" x="220.57" y="48.35" width="1.24" height="165.1"/><rect class="cls-15" x="245" y="48.35" width="0.59" height="165.1"/><rect class="cls-15" x="243.61" y="48.35" width="0.58" height="165.1"/><rect class="cls-15" x="242.21" y="48.35" width="0.58" height="165.1"/><rect class="cls-15" x="240.81" y="48.35" width="0.59" height="165.1"/><rect class="cls-15" x="246.64" y="48.35" width="2.61" height="165.1"/><rect class="cls-15" x="253.71" y="156.5" width="49.3" height="58.97"/><rect class="cls-15" x="271.76" y="154" width="30.07" height="59.42"/><rect class="cls-15" x="269.87" y="149.57" width="30.08" height="60.06"/><rect class="cls-15" x="283.74" y="142.54" width="12.94" height="57.38"/><polygon class="cls-15" points="284.21 144.45 284.88 134.87 295.54 134.87 296.21 144.45 284.21 144.45"/><rect class="cls-15" x="48.72" y="69.9" width="30.42" height="157.91"/><rect class="cls-15" x="38.11" y="77.28" width="41.03" height="167.43"/><rect class="cls-15" x="346.3" y="53.69" width="35.05" height="261.33"/><rect class="cls-15" x="347.93" y="51.91" width="31.89" height="263.11"/><rect class="cls-15" x="358.62" y="40.71" width="18.97" height="11.56"/><rect class="cls-15" x="358.62" y="37.01" width="3.95" height="13.12"/><rect class="cls-15" x="350.31" y="48.8" width="2.75" height="9.79"/><g class="cls-16"><rect class="cls-15" x="221.81" y="40.23" width="21.46" height="12.96"/><rect class="cls-15" x="220.57" y="45.6" width="27.37" height="12.96"/><polygon class="cls-15" points="220.62 213.44 220.56 47.7 249.25 47.7 249.25 213.44 220.62 213.44"/><polygon class="cls-15" points="220.62 213.44 220.56 48.35 249.25 48.35 249.25 213.44 220.62 213.44"/><rect class="cls-15" x="220.57" y="48.35" width="1.24" height="165.1"/><rect class="cls-15" x="245" y="48.35" width="0.59" height="165.1"/><rect class="cls-15" x="243.61" y="48.35" width="0.58" height="165.1"/><rect class="cls-15" x="242.21" y="48.35" width="0.58" height="165.1"/><rect class="cls-15" x="240.81" y="48.35" width="0.59" height="165.1"/><rect class="cls-15" x="246.64" y="48.35" width="2.61" height="165.1"/><rect class="cls-15" x="253.71" y="156.5" width="49.3" height="58.97"/><rect class="cls-15" x="271.76" y="154" width="30.07" height="59.42"/><rect class="cls-15" x="269.87" y="149.57" width="30.08" height="60.06"/><rect class="cls-15" x="283.74" y="142.54" width="12.94" height="57.38"/><polygon class="cls-15" points="284.21 144.45 284.88 134.87 295.54 134.87 296.21 144.45 284.21 144.45"/><rect class="cls-15" x="48.72" y="69.9" width="30.42" height="157.91"/><rect class="cls-15" x="38.11" y="77.28" width="41.03" height="167.43"/><rect class="cls-15" x="346.3" y="53.69" width="35.05" height="261.33"/><rect class="cls-15" x="347.93" y="51.91" width="31.89" height="263.11"/><rect class="cls-15" x="358.62" y="40.71" width="18.97" height="11.56"/><rect class="cls-15" x="358.62" y="37.01" width="3.95" height="13.12"/><rect class="cls-15" x="350.31" y="48.8" width="2.75" height="9.79"/></g><rect class="cls-17" x="222.11" y="119.16" width="20.39" height="153.91"/><polygon class="cls-17" points="235.88 117.73 224.9 118.17 224.9 119.24 235.88 119.24 235.88 117.73"/><rect class="cls-17" x="238.02" y="118.6" width="2.98" height="1.71"/><rect class="cls-17" x="194.87" y="99.58" width="27.99" height="85.64"/><rect class="cls-17" x="198.92" y="96.56" width="19.98" height="3.89"/><polygon class="cls-17" points="205.3 75.04 205.3 75.04 205.19 96.56 205.43 96.56 205.3 75.04"/><rect class="cls-17" x="211.27" y="95.52" width="6.26" height="8.1"/><rect class="cls-17" x="381.27" y="149.28" width="20.39" height="51.2"/><polygon class="cls-17" points="395.03 147.88 384.06 148.31 384.06 149.38 395.03 149.38 395.03 147.88"/><rect class="cls-17" x="397.17" y="148.76" width="2.99" height="1.71"/><polygon class="cls-17" points="381.72 275.88 408.34 275.88 408.34 155.12 381.72 158.66 381.72 275.88"/><polygon class="cls-17" points="357.67 180.8 357.67 178.34 346.49 179.24 346.49 180.8 342.56 180.8 342.56 282.34 361.62 282.34 361.62 180.8 357.67 180.8"/><polygon class="cls-17" points="-3.66 154.96 -3.66 152.06 -14.86 153.12 -14.86 154.96 -18.8 154.96 -18.8 274.59 0.27 274.59 0.27 154.96 -3.66 154.96"/><rect class="cls-17" x="-0.63" y="164.63" width="37.02" height="126.06"/><polygon class="cls-17" points="31.51 158.59 4.33 162.57 4.33 164.63 31.51 164.63 31.51 158.59"/><rect class="cls-17" x="354.4" y="84.99" width="31.44" height="221.76"/><rect class="cls-17" x="369.32" y="65.28" width="1.44" height="227.54"/><rect class="cls-17" x="370.12" y="80.38" width="3.72" height="221.77"/><rect class="cls-17" x="358.25" y="82.18" width="3.72" height="221.77"/><rect class="cls-17" x="385.47" y="84.99" width="2.26" height="221.76"/><rect class="cls-17" x="352.67" y="84.99" width="2.27" height="221.76"/><rect class="cls-17" x="336.35" y="189.66" width="31.46" height="224.81"/><polygon class="cls-17" points="170.85 93.29 173.29 43.58 175.06 93.13 170.85 93.29"/><path class="cls-17" d="M176.09,69.49a.38.38,0,0,0,.38-.4L176.28,62a.42.42,0,0,0-.39-.42h-5.73a.43.43,0,0,0-.4.42l-.13,7.06a.38.38,0,0,0,.38.4Z"/><polygon class="cls-17" points="172.91 65.63 147.52 70.1 147.52 164.96 172.91 161.37 192.96 165.62 192.96 69.87 172.91 65.63"/><polygon class="cls-17" points="148.94 71.96 148.94 164.83 170.82 161.75 170.82 68.1 148.94 71.96"/><polygon class="cls-17" points="197.73 75.18 177.68 70.94 177.45 70.98 177.45 166.72 177.68 166.68 197.73 170.93 197.73 75.18"/><polygon class="cls-17" points="173.33 82.1 142.48 87.02 142.48 194.31 197.68 194.34 197.68 86.81 173.33 82.1"/><polygon class="cls-17" points="197.68 86.81 173.33 82.1 172.99 82.15 172.99 194.44 197.68 194.34 197.68 86.81"/><polygon class="cls-17" points="48.01 141.33 31.36 144.26 31.36 145.46 33.36 145.1 33.36 146.25 31.36 146.65 31.36 206.52 48.01 204.15 61.16 206.94 61.16 146.41 59.17 146 59.16 144.71 61.16 145.12 61.16 144.12 48.01 141.33"/><polygon class="cls-17" points="44.14 140.43 35.16 142.02 35.16 166.81 44.14 166.81 44.14 140.43"/><polygon class="cls-17" points="51.32 140.43 51.32 166.81 56.08 166.81 56.08 141.44 51.32 140.43"/><polygon class="cls-17" points="32.27 147.56 32.27 208.5 46.64 206.48 46.64 145.02 32.27 147.56"/><polygon class="cls-17" points="48.08 144.8 48.08 207.62 61.16 210.4 61.16 147.56 48.08 144.8"/><polygon class="cls-17" points="48.29 155.59 28.04 158.83 28.04 272.43 64.25 272.46 64.25 158.67 48.29 155.59"/><polygon class="cls-17" points="64.25 158.67 48.29 155.59 48.06 155.63 48.06 272.53 64.25 272.46 64.25 158.67"/><polygon class="cls-17" points="272.82 145.41 272.82 140.07 251.8 140.07 251.8 145.41 244.44 145.41 244.44 221.81 280.2 221.81 280.2 145.41 272.82 145.41"/><rect class="cls-17" x="102.09" y="91.11" width="37.66" height="115.88"/><rect class="cls-17" x="109.39" y="89.64" width="25.3" height="2.68"/><polygon class="cls-17" points="126.47 87.86 112.85 88.4 112.85 89.73 126.47 89.73 126.47 87.86"/><rect class="cls-17" x="129.12" y="88.94" width="3.72" height="2.14"/><polygon class="cls-17" points="131.76 64.05 131.76 64.05 131.76 89.23 130.99 89.23 131.76 64.05"/><rect class="cls-17" x="183.72" y="212.86" width="83.37" height="201.62"/><rect class="cls-17" x="123.98" y="136.87" width="57.79" height="277.61"/><rect class="cls-17" x="367.71" y="196.05" width="37.67" height="218.43"/><polygon class="cls-17" points="401.72 193.35 372.51 194.38 372.51 196.05 401.72 196.05 401.72 193.35"/><polygon class="cls-17" points="397.25 155.08 397.25 155.08 397.25 194.52 396.77 194.52 397.25 155.08"/><rect class="cls-17" x="11.83" y="180.46" width="43.15" height="234.01"/><rect class="cls-17" x="17.73" y="177.28" width="23.23" height="3.37"/><rect class="cls-17" x="22.31" y="175.12" width="6.33" height="6.22"/><rect class="cls-17" x="57.25" y="124.54" width="68.13" height="289.94"/><rect class="cls-17" x="60.22" y="122.59" width="61.98" height="291.89"/><polygon class="cls-17" points="118.36 118.22 64.07 114.68 64.07 122.59 118.36 122.59 118.36 118.22"/><polygon class="cls-17" points="311.54 107.08 273.7 110.61 273.7 114.05 311.54 114.05 311.54 107.08"/><rect class="cls-17" x="265.33" y="113.26" width="71.15" height="301.21"/><polygon class="cls-17" points="278.18 69.47 278.18 69.47 277.91 110.61 278.45 110.61 278.18 69.47"/><rect class="cls-17" x="276.43" y="102.06" width="3.83" height="9.88"/><polygon class="cls-17" points="333.12 116.14 321.64 116.14 321.64 109.25 333.12 110.02 333.12 116.14"/><rect class="cls-17" x="399.03" y="149.92" width="16.72" height="45.33"/><rect class="cls-17" x="399.03" y="174.78" width="38.52" height="239.69"/><g class="cls-16"><rect class="cls-17" x="222.11" y="119.16" width="20.39" height="153.91"/><polygon class="cls-17" points="235.88 117.73 224.9 118.17 224.9 119.24 235.88 119.24 235.88 117.73"/><rect class="cls-17" x="238.02" y="118.6" width="2.98" height="1.71"/><rect class="cls-17" x="194.87" y="99.58" width="27.99" height="85.64"/><rect class="cls-17" x="198.92" y="96.56" width="19.98" height="3.89"/><polygon class="cls-17" points="205.3 75.04 205.3 75.04 205.19 96.56 205.43 96.56 205.3 75.04"/><rect class="cls-17" x="211.27" y="95.52" width="6.26" height="8.1"/><rect class="cls-17" x="381.27" y="149.28" width="20.39" height="51.2"/><polygon class="cls-17" points="395.03 147.88 384.06 148.31 384.06 149.38 395.03 149.38 395.03 147.88"/><rect class="cls-17" x="397.17" y="148.76" width="2.99" height="1.71"/><polygon class="cls-17" points="381.72 275.88 408.34 275.88 408.34 155.12 381.72 158.66 381.72 275.88"/><polygon class="cls-17" points="357.67 180.8 357.67 178.34 346.49 179.24 346.49 180.8 342.56 180.8 342.56 282.34 361.62 282.34 361.62 180.8 357.67 180.8"/><polygon class="cls-17" points="-3.66 154.96 -3.66 152.06 -14.86 153.12 -14.86 154.96 -18.8 154.96 -18.8 274.59 0.27 274.59 0.27 154.96 -3.66 154.96"/><rect class="cls-17" x="-0.63" y="164.63" width="37.02" height="126.06"/><polygon class="cls-17" points="31.51 158.59 4.33 162.57 4.33 164.63 31.51 164.63 31.51 158.59"/><rect class="cls-17" x="354.4" y="84.99" width="31.44" height="221.76"/><rect class="cls-17" x="369.32" y="65.28" width="1.44" height="227.54"/><rect class="cls-17" x="370.12" y="80.38" width="3.72" height="221.77"/><rect class="cls-17" x="358.25" y="82.18" width="3.72" height="221.77"/><rect class="cls-17" x="385.47" y="84.99" width="2.26" height="221.76"/><rect class="cls-17" x="352.67" y="84.99" width="2.27" height="221.76"/><rect class="cls-17" x="336.35" y="189.66" width="31.46" height="224.81"/><polygon class="cls-17" points="170.85 93.29 173.29 43.58 175.06 93.13 170.85 93.29"/><path class="cls-17" d="M176.09,69.49a.38.38,0,0,0,.38-.4L176.28,62a.42.42,0,0,0-.39-.42h-5.73a.43.43,0,0,0-.4.42l-.13,7.06a.38.38,0,0,0,.38.4Z"/><polygon class="cls-17" points="172.91 65.63 147.52 70.1 147.52 164.96 172.91 161.37 192.96 165.62 192.96 69.87 172.91 65.63"/><polygon class="cls-17" points="148.94 71.96 148.94 164.83 170.82 161.75 170.82 68.1 148.94 71.96"/><polygon class="cls-17" points="197.73 75.18 177.68 70.94 177.45 70.98 177.45 166.72 177.68 166.68 197.73 170.93 197.73 75.18"/><polygon class="cls-17" points="173.33 82.1 142.48 87.02 142.48 194.31 197.68 194.34 197.68 86.81 173.33 82.1"/><polygon class="cls-17" points="197.68 86.81 173.33 82.1 172.99 82.15 172.99 194.44 197.68 194.34 197.68 86.81"/><polygon class="cls-17" points="48.01 141.33 31.36 144.26 31.36 145.46 33.36 145.1 33.36 146.25 31.36 146.65 31.36 206.52 48.01 204.15 61.16 206.94 61.16 146.41 59.17 146 59.16 144.71 61.16 145.12 61.16 144.12 48.01 141.33"/><polygon class="cls-17" points="44.14 140.43 35.16 142.02 35.16 166.81 44.14 166.81 44.14 140.43"/><polygon class="cls-17" points="51.32 140.43 51.32 166.81 56.08 166.81 56.08 141.44 51.32 140.43"/><polygon class="cls-17" points="32.27 147.56 32.27 208.5 46.64 206.48 46.64 145.02 32.27 147.56"/><polygon class="cls-17" points="48.08 144.8 48.08 207.62 61.16 210.4 61.16 147.56 48.08 144.8"/><polygon class="cls-17" points="48.29 155.59 28.04 158.83 28.04 272.43 64.25 272.46 64.25 158.67 48.29 155.59"/><polygon class="cls-17" points="64.25 158.67 48.29 155.59 48.06 155.63 48.06 272.53 64.25 272.46 64.25 158.67"/><polygon class="cls-17" points="272.82 145.41 272.82 140.07 251.8 140.07 251.8 145.41 244.44 145.41 244.44 221.81 280.2 221.81 280.2 145.41 272.82 145.41"/><rect class="cls-17" x="102.09" y="91.11" width="37.66" height="115.88"/><rect class="cls-17" x="109.39" y="89.64" width="25.3" height="2.68"/><polygon class="cls-17" points="126.47 87.86 112.85 88.4 112.85 89.73 126.47 89.73 126.47 87.86"/><rect class="cls-17" x="129.12" y="88.94" width="3.72" height="2.14"/><polygon class="cls-17" points="131.76 64.05 131.76 64.05 131.76 89.23 130.99 89.23 131.76 64.05"/><rect class="cls-17" x="183.72" y="212.86" width="83.37" height="201.62"/><rect class="cls-17" x="123.98" y="136.87" width="57.79" height="277.61"/><rect class="cls-17" x="367.71" y="196.05" width="37.67" height="218.43"/><polygon class="cls-17" points="401.72 193.35 372.51 194.38 372.51 196.05 401.72 196.05 401.72 193.35"/><polygon class="cls-17" points="397.25 155.08 397.25 155.08 397.25 194.52 396.77 194.52 397.25 155.08"/><rect class="cls-17" x="11.83" y="180.46" width="43.15" height="234.01"/><rect class="cls-17" x="17.73" y="177.28" width="23.23" height="3.37"/><rect class="cls-17" x="22.31" y="175.12" width="6.33" height="6.22"/><rect class="cls-17" x="57.25" y="124.54" width="68.13" height="289.94"/><rect class="cls-17" x="60.22" y="122.59" width="61.98" height="291.89"/><polygon class="cls-17" points="118.36 118.22 64.07 114.68 64.07 122.59 118.36 122.59 118.36 118.22"/><polygon class="cls-17" points="311.54 107.08 273.7 110.61 273.7 114.05 311.54 114.05 311.54 107.08"/><rect class="cls-17" x="265.33" y="113.26" width="71.15" height="301.21"/><polygon class="cls-17" points="278.18 69.47 278.18 69.47 277.91 110.61 278.45 110.61 278.18 69.47"/><rect class="cls-17" x="276.43" y="102.06" width="3.83" height="9.88"/><polygon class="cls-17" points="333.12 116.14 321.64 116.14 321.64 109.25 333.12 110.02 333.12 116.14"/><rect class="cls-17" x="399.03" y="149.92" width="16.72" height="45.33"/><rect class="cls-17" x="399.03" y="174.78" width="38.52" height="239.69"/></g><rect class="cls-18" x="44.2" y="127.99" width="17.87" height="20.08"/><polygon class="cls-19" points="-4.66 167.33 69.5 165.09 69.5 145.57 49.48 128.72 49.48 120.28 -4.66 144.25 -4.66 167.33"/><polygon class="cls-18" points="-4.66 152.51 69.5 152.21 69.5 376.4 -4.66 376.4 -4.66 152.51"/><rect class="cls-20" x="15.02" y="159.63" width="33.3" height="203.51"/><polygon class="cls-21" points="15.02 159.63 48.32 159.63 48.32 198.49 15.02 241.19 15.02 159.63"/><polygon class="cls-22" points="48.32 198.49 48.32 306.72 15.02 350.05 15.02 241.19 48.32 198.49"/><polygon class="cls-23" points="11.44 297.49 52.89 316.38 52.89 317.74 11.44 298.86 11.44 297.49"/><polygon class="cls-23" points="11.44 339.74 52.89 358.63 52.89 359.99 11.44 341.11 11.44 339.74"/><polygon class="cls-23" points="52.89 319.82 52.89 321.17 12.26 339.69 11.76 338.54 52.89 319.82"/><polygon class="cls-23" points="11.44 296.84 52.89 277.96 52.89 279.32 11.44 298.21 11.44 296.84"/><polygon class="cls-23" points="11.44 255.79 52.89 236.91 52.89 238.28 11.89 256.96 11.44 255.9 11.44 255.79"/><polygon class="cls-23" points="11.44 214.4 52.89 195.52 52.89 196.88 11.44 215.77 11.44 214.4"/><polygon class="cls-23" points="11.44 256.04 52.89 274.92 52.89 276.3 11.44 257.4 11.44 256.04"/><polygon class="cls-23" points="11.44 214.81 52.89 233.7 52.89 235.07 11.44 216.17 11.44 214.81"/><polygon class="cls-23" points="11.44 173.08 52.89 191.96 52.89 193.33 11.44 174.44 11.44 173.08"/><rect class="cls-24" x="-2.02" y="159.63" width="10.02" height="17.51"/><rect class="cls-24" x="-2.02" y="178.21" width="10.02" height="17.5"/><rect class="cls-24" x="-2.02" y="196.8" width="10.02" height="17.5"/><rect class="cls-24" x="-2.02" y="215.38" width="10.02" height="17.5"/><rect class="cls-24" x="-2.02" y="233.96" width="10.02" height="17.5"/><rect class="cls-24" x="-2.02" y="252.54" width="10.02" height="17.5"/><rect class="cls-24" x="-2.02" y="271.13" width="10.02" height="17.5"/><rect class="cls-24" x="-2.02" y="289.71" width="10.02" height="17.5"/><rect class="cls-24" x="-2.02" y="308.29" width="10.02" height="17.5"/><rect class="cls-24" x="-2.02" y="326.87" width="10.02" height="17.5"/><rect class="cls-24" x="-2.02" y="345.47" width="10.02" height="17.67"/><rect class="cls-25" x="-2.02" y="362.88" width="10.02" height="2.37"/><rect class="cls-25" x="-2.02" y="344.29" width="10.02" height="2.35"/><rect class="cls-25" x="-2.02" y="325.71" width="10.02" height="2.35"/><rect class="cls-25" x="-2.02" y="307.13" width="10.02" height="2.36"/><rect class="cls-25" x="-2.02" y="288.53" width="10.02" height="2.37"/><rect class="cls-25" x="-2.02" y="269.95" width="10.02" height="2.37"/><rect class="cls-25" x="-2.02" y="251.37" width="10.02" height="2.37"/><rect class="cls-25" x="-2.02" y="232.78" width="10.02" height="2.37"/><rect class="cls-25" x="-2.02" y="214.21" width="10.02" height="2.36"/><rect class="cls-25" x="-2.02" y="195.62" width="10.02" height="2.36"/><rect class="cls-25" x="-2.02" y="177.04" width="10.02" height="2.36"/><rect class="cls-24" x="56.76" y="159.63" width="10.01" height="17.51"/><rect class="cls-24" x="56.76" y="178.21" width="10.01" height="17.5"/><rect class="cls-24" x="56.76" y="196.8" width="10.01" height="17.5"/><rect class="cls-24" x="56.76" y="215.38" width="10.01" height="17.5"/><rect class="cls-24" x="56.76" y="233.96" width="10.01" height="17.5"/><rect class="cls-24" x="56.76" y="252.54" width="10.01" height="17.5"/><rect class="cls-24" x="56.76" y="271.13" width="10.01" height="17.5"/><rect class="cls-24" x="56.76" y="289.71" width="10.01" height="17.5"/><rect class="cls-24" x="56.76" y="308.29" width="10.01" height="17.5"/><rect class="cls-24" x="56.76" y="326.87" width="10.01" height="17.5"/><rect class="cls-24" x="56.76" y="345.47" width="10.01" height="17.67"/><rect class="cls-25" x="56.76" y="362.88" width="10.01" height="2.37"/><rect class="cls-25" x="56.76" y="344.29" width="10.01" height="2.35"/><rect class="cls-25" x="56.76" y="325.71" width="10.01" height="2.35"/><rect class="cls-25" x="56.76" y="307.13" width="10.01" height="2.36"/><rect class="cls-25" x="56.76" y="288.53" width="10.01" height="2.37"/><rect class="cls-25" x="56.76" y="269.95" width="10.01" height="2.37"/><rect class="cls-25" x="56.76" y="251.37" width="10.01" height="2.37"/><rect class="cls-25" x="56.76" y="232.78" width="10.01" height="2.37"/><rect class="cls-25" x="56.76" y="214.21" width="10.01" height="2.36"/><rect class="cls-25" x="56.76" y="195.62" width="10.01" height="2.36"/><rect class="cls-25" x="56.76" y="177.04" width="10.01" height="2.36"/><rect class="cls-18" x="29.33" y="154.32" width="4.47" height="222.08"/><rect class="cls-18" x="8.76" y="157.37" width="6.26" height="212.39"/><rect class="cls-18" x="48.32" y="161.45" width="6.27" height="212.38"/><rect class="cls-26" x="44.2" y="127.99" width="17.87" height="20.08"/><polygon class="cls-27" points="-4.66 167.33 69.5 165.09 69.5 145.57 49.48 128.72 49.48 120.28 -4.66 144.25 -4.66 167.33"/><polygon class="cls-26" points="49.48 128.72 49.48 120.28 -4.66 144.25 -4.66 147.69 49.48 128.72"/><polygon class="cls-28" points="-4.66 152.51 69.5 152.21 69.5 376.4 -4.66 376.4 -4.66 152.51"/><rect class="cls-20" x="15.02" y="159.63" width="33.3" height="203.51"/><polygon class="cls-21" points="15.02 159.63 48.32 159.63 48.32 198.49 15.02 241.19 15.02 159.63"/><polygon class="cls-22" points="48.32 198.49 48.32 306.72 15.02 350.05 15.02 241.19 48.32 198.49"/><polygon class="cls-29" points="11.44 297.49 52.89 316.38 52.89 317.74 11.44 298.86 11.44 297.49"/><polygon class="cls-29" points="11.44 339.74 52.89 358.63 52.89 359.99 11.44 341.11 11.44 339.74"/><polygon class="cls-29" points="52.89 319.82 52.89 321.17 12.26 339.69 11.76 338.54 52.89 319.82"/><polygon class="cls-29" points="11.44 296.84 52.89 277.96 52.89 279.32 11.44 298.21 11.44 296.84"/><polygon class="cls-29" points="11.44 255.79 52.89 236.91 52.89 238.28 11.89 256.96 11.44 255.9 11.44 255.79"/><polygon class="cls-29" points="11.44 214.4 52.89 195.52 52.89 196.88 11.44 215.77 11.44 214.4"/><polygon class="cls-29" points="11.44 256.04 52.89 274.92 52.89 276.3 11.44 257.4 11.44 256.04"/><polygon class="cls-29" points="11.44 214.81 52.89 233.7 52.89 235.07 11.44 216.17 11.44 214.81"/><polygon class="cls-29" points="11.44 173.08 52.89 191.96 52.89 193.33 11.44 174.44 11.44 173.08"/><rect class="cls-24" x="-2.02" y="159.63" width="10.02" height="17.51"/><rect class="cls-24" x="-2.02" y="178.21" width="10.02" height="17.5"/><rect class="cls-24" x="-2.02" y="196.8" width="10.02" height="17.5"/><rect class="cls-24" x="-2.02" y="215.38" width="10.02" height="17.5"/><rect class="cls-24" x="-2.02" y="233.96" width="10.02" height="17.5"/><rect class="cls-24" x="-2.02" y="252.54" width="10.02" height="17.5"/><rect class="cls-24" x="-2.02" y="271.13" width="10.02" height="17.5"/><rect class="cls-24" x="-2.02" y="289.71" width="10.02" height="17.5"/><rect class="cls-24" x="-2.02" y="308.29" width="10.02" height="17.5"/><rect class="cls-24" x="-2.02" y="326.87" width="10.02" height="17.5"/><rect class="cls-24" x="-2.02" y="345.47" width="10.02" height="17.67"/><rect class="cls-25" x="-2.02" y="362.88" width="10.02" height="2.37"/><rect class="cls-25" x="-2.02" y="344.29" width="10.02" height="2.35"/><rect class="cls-25" x="-2.02" y="325.71" width="10.02" height="2.35"/><rect class="cls-25" x="-2.02" y="307.13" width="10.02" height="2.36"/><rect class="cls-25" x="-2.02" y="288.53" width="10.02" height="2.37"/><rect class="cls-25" x="-2.02" y="269.95" width="10.02" height="2.37"/><rect class="cls-25" x="-2.02" y="251.37" width="10.02" height="2.37"/><rect class="cls-25" x="-2.02" y="232.78" width="10.02" height="2.37"/><rect class="cls-25" x="-2.02" y="214.21" width="10.02" height="2.36"/><rect class="cls-25" x="-2.02" y="195.62" width="10.02" height="2.36"/><rect class="cls-25" x="-2.02" y="177.04" width="10.02" height="2.36"/><rect class="cls-24" x="56.76" y="159.63" width="10.01" height="17.51"/><rect class="cls-24" x="56.76" y="178.21" width="10.01" height="17.5"/><rect class="cls-24" x="56.76" y="196.8" width="10.01" height="17.5"/><rect class="cls-24" x="56.76" y="215.38" width="10.01" height="17.5"/><rect class="cls-24" x="56.76" y="233.96" width="10.01" height="17.5"/><rect class="cls-24" x="56.76" y="252.54" width="10.01" height="17.5"/><rect class="cls-24" x="56.76" y="271.13" width="10.01" height="17.5"/><rect class="cls-24" x="56.76" y="289.71" width="10.01" height="17.5"/><rect class="cls-24" x="56.76" y="308.29" width="10.01" height="17.5"/><rect class="cls-24" x="56.76" y="326.87" width="10.01" height="17.5"/><rect class="cls-24" x="56.76" y="345.47" width="10.01" height="17.67"/><rect class="cls-25" x="56.76" y="362.88" width="10.01" height="2.37"/><rect class="cls-25" x="56.76" y="344.29" width="10.01" height="2.35"/><rect class="cls-25" x="56.76" y="325.71" width="10.01" height="2.35"/><rect class="cls-25" x="56.76" y="307.13" width="10.01" height="2.36"/><rect class="cls-25" x="56.76" y="288.53" width="10.01" height="2.37"/><rect class="cls-25" x="56.76" y="269.95" width="10.01" height="2.37"/><rect class="cls-25" x="56.76" y="251.37" width="10.01" height="2.37"/><rect class="cls-25" x="56.76" y="232.78" width="10.01" height="2.37"/><rect class="cls-25" x="56.76" y="214.21" width="10.01" height="2.36"/><rect class="cls-25" x="56.76" y="195.62" width="10.01" height="2.36"/><rect class="cls-25" x="56.76" y="177.04" width="10.01" height="2.36"/><rect class="cls-28" x="29.33" y="154.32" width="4.47" height="222.08"/><rect class="cls-28" x="8.76" y="157.37" width="6.26" height="212.39"/><rect class="cls-28" x="48.32" y="161.45" width="6.27" height="212.38"/><rect class="cls-30" x="254.3" y="140.93" width="66.59" height="21.78"/><rect class="cls-31" x="261.53" y="137.45" width="52.12" height="17.05"/><polygon class="cls-32" points="265.6 151.82 309.58 151.82 309.58 134.78 287.25 133.93 265.6 134.78 265.6 151.82"/><polygon class="cls-31" points="309.58 134.78 287.59 130.31 265.6 134.78 309.58 134.78"/><rect class="cls-28" x="245.44" y="148.08" width="83.63" height="211.93"/><rect class="cls-33" x="245.44" y="148.08" width="83.63" height="6.49"/><rect class="cls-34" x="289.42" y="162.36" width="9.93" height="13.78"/><rect class="cls-35" x="293.99" y="162.36" width="0.4" height="13.78"/><rect class="cls-35" x="289.42" y="176.14" width="9.93" height="0.56"/><rect class="cls-34" x="275.16" y="162.36" width="9.93" height="13.78"/><rect class="cls-35" x="279.72" y="162.36" width="0.41" height="13.78"/><rect class="cls-35" x="275.16" y="176.14" width="9.93" height="0.56"/><rect class="cls-34" x="289.42" y="179.48" width="9.93" height="13.78"/><rect class="cls-35" x="293.99" y="179.48" width="0.4" height="13.78"/><rect class="cls-35" x="289.42" y="193.26" width="9.93" height="0.57"/><rect class="cls-34" x="275.16" y="179.48" width="9.93" height="13.78"/><rect class="cls-35" x="279.72" y="179.48" width="0.41" height="13.78"/><rect class="cls-35" x="275.16" y="193.26" width="9.93" height="0.57"/><rect class="cls-34" x="289.42" y="196.6" width="9.93" height="13.77"/><rect class="cls-35" x="293.99" y="196.6" width="0.4" height="13.77"/><rect class="cls-35" x="289.42" y="210.38" width="9.93" height="0.57"/><rect class="cls-34" x="275.16" y="196.6" width="9.93" height="13.77"/><rect class="cls-35" x="279.72" y="196.6" width="0.41" height="13.77"/><rect class="cls-35" x="275.16" y="210.38" width="9.93" height="0.57"/><rect class="cls-34" x="289.42" y="213.72" width="9.93" height="13.78"/><rect class="cls-35" x="293.99" y="213.72" width="0.4" height="13.78"/><rect class="cls-35" x="289.42" y="227.5" width="9.93" height="0.56"/><rect class="cls-34" x="275.16" y="213.72" width="9.93" height="13.78"/><rect class="cls-35" x="279.72" y="213.72" width="0.41" height="13.78"/><rect class="cls-35" x="275.16" y="227.5" width="9.93" height="0.56"/><rect class="cls-34" x="289.42" y="230.85" width="9.93" height="13.77"/><rect class="cls-35" x="293.99" y="230.85" width="0.4" height="13.77"/><rect class="cls-35" x="289.42" y="244.62" width="9.93" height="0.57"/><rect class="cls-34" x="275.16" y="230.85" width="9.93" height="13.77"/><rect class="cls-35" x="279.72" y="230.85" width="0.41" height="13.77"/><rect class="cls-35" x="275.16" y="244.62" width="9.93" height="0.57"/><rect class="cls-34" x="289.42" y="247.97" width="9.93" height="13.77"/><rect class="cls-35" x="293.99" y="247.97" width="0.4" height="13.77"/><rect class="cls-35" x="289.42" y="261.74" width="9.93" height="0.57"/><rect class="cls-34" x="275.16" y="247.97" width="9.93" height="13.77"/><rect class="cls-35" x="279.72" y="247.97" width="0.41" height="13.77"/><rect class="cls-35" x="275.16" y="261.74" width="9.93" height="0.57"/><rect class="cls-34" x="289.42" y="265.09" width="9.93" height="13.77"/><rect class="cls-35" x="293.99" y="265.09" width="0.4" height="13.77"/><rect class="cls-35" x="289.42" y="278.86" width="9.93" height="0.56"/><rect class="cls-34" x="275.16" y="265.09" width="9.93" height="13.77"/><rect class="cls-35" x="279.72" y="265.09" width="0.41" height="13.77"/><rect class="cls-35" x="275.16" y="278.86" width="9.93" height="0.56"/><rect class="cls-34" x="289.42" y="282.21" width="9.93" height="13.77"/><rect class="cls-35" x="293.99" y="282.21" width="0.4" height="13.77"/><rect class="cls-35" x="289.42" y="295.98" width="9.93" height="0.57"/><rect class="cls-34" x="275.16" y="282.21" width="9.93" height="13.77"/><rect class="cls-35" x="279.72" y="282.21" width="0.41" height="13.77"/><rect class="cls-35" x="275.16" y="295.98" width="9.93" height="0.57"/><rect class="cls-34" x="289.42" y="299.33" width="9.93" height="13.77"/><rect class="cls-35" x="293.99" y="299.33" width="0.4" height="13.77"/><rect class="cls-35" x="289.42" y="313.1" width="9.93" height="0.56"/><rect class="cls-34" x="275.16" y="299.33" width="9.93" height="13.77"/><rect class="cls-35" x="279.72" y="299.33" width="0.41" height="13.77"/><rect class="cls-35" x="275.16" y="313.1" width="9.93" height="0.56"/><rect class="cls-34" x="289.42" y="316.44" width="9.93" height="13.79"/><rect class="cls-35" x="293.99" y="316.44" width="0.4" height="13.79"/><rect class="cls-35" x="289.42" y="330.23" width="9.93" height="0.56"/><rect class="cls-34" x="275.16" y="316.44" width="9.93" height="13.79"/><rect class="cls-35" x="279.72" y="316.44" width="0.41" height="13.79"/><rect class="cls-35" x="275.16" y="330.23" width="9.93" height="0.56"/><rect class="cls-34" x="289.42" y="333.58" width="9.93" height="13.77"/><rect class="cls-35" x="293.99" y="333.58" width="0.4" height="13.77"/><rect class="cls-35" x="289.42" y="347.35" width="9.93" height="0.56"/><rect class="cls-34" x="275.16" y="333.58" width="9.93" height="13.77"/><rect class="cls-35" x="279.72" y="333.58" width="0.41" height="13.77"/><rect class="cls-35" x="275.16" y="347.35" width="9.93" height="0.56"/><rect class="cls-36" x="253.45" y="162.36" width="9.36" height="13.78"/><rect class="cls-36" x="253.45" y="179.48" width="9.36" height="13.78"/><rect class="cls-36" x="253.45" y="196.6" width="9.36" height="13.77"/><rect class="cls-36" x="253.45" y="213.72" width="9.36" height="13.78"/><rect class="cls-36" x="253.45" y="230.85" width="9.36" height="13.77"/><rect class="cls-36" x="253.45" y="247.97" width="9.36" height="13.77"/><rect class="cls-36" x="253.45" y="265.09" width="9.36" height="13.77"/><rect class="cls-36" x="253.45" y="282.21" width="9.36" height="13.77"/><rect class="cls-36" x="253.45" y="299.33" width="9.36" height="13.77"/><rect class="cls-36" x="253.45" y="316.44" width="9.36" height="13.79"/><rect class="cls-36" x="253.45" y="333.58" width="9.36" height="13.77"/><rect class="cls-36" x="312.21" y="162.36" width="9.37" height="13.78"/><rect class="cls-36" x="312.21" y="179.48" width="9.37" height="13.78"/><rect class="cls-36" x="312.21" y="196.6" width="9.37" height="13.77"/><rect class="cls-36" x="312.21" y="213.72" width="9.37" height="13.78"/><rect class="cls-36" x="312.21" y="230.85" width="9.37" height="13.77"/><rect class="cls-36" x="312.21" y="247.97" width="9.37" height="13.77"/><rect class="cls-36" x="312.21" y="265.09" width="9.37" height="13.77"/><rect class="cls-36" x="312.21" y="282.21" width="9.37" height="13.77"/><rect class="cls-36" x="312.21" y="299.33" width="9.37" height="13.77"/><rect class="cls-36" x="312.21" y="316.44" width="9.37" height="13.79"/><rect class="cls-36" x="312.21" y="333.58" width="9.37" height="13.77"/><rect class="cls-37" x="275.16" y="174.83" width="24.19" height="2.43"/><rect class="cls-37" x="275.16" y="191.95" width="24.19" height="2.43"/><rect class="cls-37" x="275.16" y="209.07" width="24.19" height="2.42"/><rect class="cls-37" x="275.16" y="226.19" width="24.19" height="2.44"/><rect class="cls-37" x="275.16" y="243.31" width="24.19" height="2.43"/><rect class="cls-37" x="275.16" y="260.43" width="24.19" height="2.42"/><rect class="cls-37" x="275.16" y="277.55" width="24.19" height="2.43"/><rect class="cls-37" x="275.16" y="294.68" width="24.19" height="2.42"/><rect class="cls-37" x="275.16" y="311.79" width="24.19" height="2.43"/><rect class="cls-37" x="275.16" y="328.91" width="24.19" height="2.44"/><rect class="cls-37" x="275.16" y="346.04" width="24.19" height="2.42"/><path class="cls-38" d="M-191.89,356.26l786.75-.73v61.25H-186.48Q-189.19,386.53-191.89,356.26Z"/><rect class="cls-39" x="156.17" y="152.12" width="84.13" height="84.52"/><rect class="cls-36" x="216.99" y="156.79" width="11.5" height="11.96"/><rect class="cls-36" x="196.61" y="156.44" width="11.49" height="11.96"/><rect class="cls-36" x="176.44" y="156.44" width="11.51" height="11.96"/><rect class="cls-36" x="216.99" y="169.38" width="11.5" height="11.54"/><rect class="cls-36" x="196.61" y="169.04" width="11.49" height="11.54"/><rect class="cls-36" x="176.44" y="169.04" width="11.51" height="11.54"/><rect class="cls-36" x="216.99" y="181.56" width="11.5" height="12.18"/><rect class="cls-36" x="196.61" y="181.21" width="11.49" height="12.18"/><rect class="cls-36" x="176.44" y="181.21" width="11.51" height="12.18"/><rect class="cls-36" x="216.99" y="193.76" width="11.5" height="12.82"/><rect class="cls-36" x="196.61" y="193.38" width="11.49" height="12.81"/><rect class="cls-36" x="176.44" y="193.38" width="11.51" height="12.81"/><rect class="cls-36" x="216.99" y="205.92" width="11.5" height="12.82"/><rect class="cls-36" x="196.61" y="205.56" width="11.49" height="12.8"/><rect class="cls-36" x="176.44" y="205.56" width="11.51" height="12.8"/><rect class="cls-36" x="216.99" y="218.1" width="11.5" height="12.8"/><rect class="cls-36" x="196.61" y="217.72" width="11.49" height="12.82"/><rect class="cls-36" x="176.44" y="217.72" width="11.51" height="12.82"/><rect class="cls-40" x="156.17" y="168.05" width="84.13" height="1.64"/><rect class="cls-40" x="156.17" y="180.37" width="84.13" height="1.64"/><rect class="cls-40" x="156.17" y="192.72" width="84.13" height="1.62"/><rect class="cls-40" x="156.17" y="205.05" width="84.13" height="1.64"/><rect class="cls-40" x="156.17" y="217.38" width="84.13" height="1.65"/><rect class="cls-40" x="156.17" y="229.72" width="84.13" height="1.64"/><polygon class="cls-41" points="156.17 236.64 168.4 236.64 168.45 231.1 168.45 157.22 240.3 157.22 240.3 154.07 156.17 154.07 156.17 155.83 156.16 155.83 156.16 232.09 156.17 232.09 156.17 236.64"/><rect class="cls-40" x="156.17" y="152.12" width="84.13" height="3.23"/><rect class="cls-40" x="236.78" y="154.77" width="3.53" height="75.78"/><g class="cls-42"><rect class="cls-39" x="156.17" y="152.12" width="84.13" height="84.52"/><rect class="cls-36" x="216.99" y="156.79" width="11.5" height="11.96"/><rect class="cls-36" x="196.61" y="156.44" width="11.49" height="11.96"/><rect class="cls-36" x="176.44" y="156.44" width="11.51" height="11.96"/><rect class="cls-36" x="216.99" y="169.38" width="11.5" height="11.54"/><rect class="cls-36" x="196.61" y="169.04" width="11.49" height="11.54"/><rect class="cls-36" x="176.44" y="169.04" width="11.51" height="11.54"/><rect class="cls-36" x="216.99" y="181.56" width="11.5" height="12.18"/><rect class="cls-36" x="196.61" y="181.21" width="11.49" height="12.18"/><rect class="cls-36" x="176.44" y="181.21" width="11.51" height="12.18"/><rect class="cls-36" x="216.99" y="193.76" width="11.5" height="12.82"/><rect class="cls-36" x="196.61" y="193.38" width="11.49" height="12.81"/><rect class="cls-36" x="176.44" y="193.38" width="11.51" height="12.81"/><rect class="cls-36" x="216.99" y="205.92" width="11.5" height="12.82"/><rect class="cls-36" x="196.61" y="205.56" width="11.49" height="12.8"/><rect class="cls-36" x="176.44" y="205.56" width="11.51" height="12.8"/><rect class="cls-36" x="216.99" y="218.1" width="11.5" height="12.8"/><rect class="cls-36" x="196.61" y="217.72" width="11.49" height="12.82"/><rect class="cls-36" x="176.44" y="217.72" width="11.51" height="12.82"/><rect class="cls-40" x="156.17" y="168.05" width="84.13" height="1.64"/><rect class="cls-40" x="156.17" y="180.37" width="84.13" height="1.64"/><rect class="cls-40" x="156.17" y="192.72" width="84.13" height="1.62"/><rect class="cls-40" x="156.17" y="205.05" width="84.13" height="1.64"/><rect class="cls-40" x="156.17" y="217.38" width="84.13" height="1.65"/><rect class="cls-40" x="156.17" y="229.72" width="84.13" height="1.64"/><polygon class="cls-41" points="156.17 236.64 168.4 236.64 168.45 231.1 168.45 157.22 240.3 157.22 240.3 154.07 156.17 154.07 156.17 155.83 156.16 155.83 156.16 232.09 156.17 232.09 156.17 236.64"/><rect class="cls-40" x="156.17" y="152.12" width="84.13" height="3.23"/><rect class="cls-40" x="236.78" y="154.77" width="3.53" height="75.78"/></g><g class="cls-43"><rect class="cls-39" x="336" y="180.57" width="84.13" height="84.52"/><rect class="cls-36" x="396.82" y="185.24" width="11.5" height="11.96"/><rect class="cls-36" x="376.44" y="184.89" width="11.49" height="11.96"/><rect class="cls-36" x="356.27" y="184.89" width="11.51" height="11.96"/><rect class="cls-36" x="396.82" y="197.83" width="11.5" height="11.54"/><rect class="cls-36" x="376.44" y="197.49" width="11.49" height="11.54"/><rect class="cls-36" x="356.27" y="197.49" width="11.51" height="11.54"/><rect class="cls-36" x="396.82" y="210.01" width="11.5" height="12.18"/><rect class="cls-36" x="376.44" y="209.66" width="11.49" height="12.18"/><rect class="cls-36" x="356.27" y="209.66" width="11.51" height="12.18"/><rect class="cls-36" x="396.82" y="222.21" width="11.5" height="12.82"/><rect class="cls-36" x="376.44" y="221.83" width="11.49" height="12.81"/><rect class="cls-36" x="356.27" y="221.83" width="11.51" height="12.81"/><rect class="cls-36" x="396.82" y="234.37" width="11.5" height="12.82"/><rect class="cls-36" x="376.44" y="234" width="11.49" height="12.8"/><rect class="cls-36" x="356.27" y="234" width="11.51" height="12.8"/><rect class="cls-36" x="396.82" y="246.55" width="11.5" height="12.8"/><rect class="cls-36" x="376.44" y="246.17" width="11.49" height="12.82"/><rect class="cls-36" x="356.27" y="246.17" width="11.51" height="12.82"/><rect class="cls-40" x="336" y="196.5" width="84.13" height="1.64"/><rect class="cls-40" x="336" y="208.82" width="84.13" height="1.64"/><rect class="cls-40" x="336" y="221.17" width="84.13" height="1.62"/><rect class="cls-40" x="336" y="233.5" width="84.13" height="1.64"/><rect class="cls-40" x="336" y="245.83" width="84.13" height="1.65"/><rect class="cls-40" x="336" y="258.17" width="84.13" height="1.64"/><polygon class="cls-41" points="336 265.09 348.24 265.09 348.29 259.55 348.29 185.67 420.13 185.67 420.13 182.51 336 182.51 336 184.28 335.99 184.28 335.99 260.54 336 260.54 336 265.09"/><rect class="cls-40" x="336" y="180.57" width="84.13" height="3.23"/><g class="cls-42"><rect class="cls-39" x="336" y="180.57" width="84.13" height="84.52"/><rect class="cls-36" x="396.82" y="185.24" width="11.5" height="11.96"/><rect class="cls-36" x="376.44" y="184.89" width="11.49" height="11.96"/><rect class="cls-36" x="356.27" y="184.89" width="11.51" height="11.96"/><rect class="cls-36" x="396.82" y="197.83" width="11.5" height="11.54"/><rect class="cls-36" x="376.44" y="197.49" width="11.49" height="11.54"/><rect class="cls-36" x="356.27" y="197.49" width="11.51" height="11.54"/><rect class="cls-36" x="396.82" y="210.01" width="11.5" height="12.18"/><rect class="cls-36" x="376.44" y="209.66" width="11.49" height="12.18"/><rect class="cls-36" x="356.27" y="209.66" width="11.51" height="12.18"/><rect class="cls-36" x="396.82" y="222.21" width="11.5" height="12.82"/><rect class="cls-36" x="376.44" y="221.83" width="11.49" height="12.81"/><rect class="cls-36" x="356.27" y="221.83" width="11.51" height="12.81"/><rect class="cls-36" x="396.82" y="234.37" width="11.5" height="12.82"/><rect class="cls-36" x="376.44" y="234" width="11.49" height="12.8"/><rect class="cls-36" x="356.27" y="234" width="11.51" height="12.8"/><rect class="cls-36" x="396.82" y="246.55" width="11.5" height="12.8"/><rect class="cls-36" x="376.44" y="246.17" width="11.49" height="12.82"/><rect class="cls-36" x="356.27" y="246.17" width="11.51" height="12.82"/><rect class="cls-40" x="336" y="196.5" width="84.13" height="1.64"/><rect class="cls-40" x="336" y="208.82" width="84.13" height="1.64"/><rect class="cls-40" x="336" y="221.17" width="84.13" height="1.62"/><rect class="cls-40" x="336" y="233.5" width="84.13" height="1.64"/><rect class="cls-40" x="336" y="245.83" width="84.13" height="1.65"/><rect class="cls-40" x="336" y="258.17" width="84.13" height="1.64"/><polygon class="cls-41" points="336 265.09 348.24 265.09 348.29 259.55 348.29 185.67 420.13 185.67 420.13 182.51 336 182.51 336 184.28 335.99 184.28 335.99 260.54 336 260.54 336 265.09"/><rect class="cls-40" x="336" y="180.57" width="84.13" height="3.23"/></g></g><rect class="cls-44" x="91.73" y="95.11" width="49.66" height="233.66"/><rect class="cls-45" x="76.92" y="95.11" width="14.81" height="233.66"/><rect class="cls-19" x="91.73" y="236.39" width="52.27" height="5.45"/><rect class="cls-19" x="91.73" y="223.3" width="52.27" height="5.45"/><rect class="cls-19" x="91.73" y="210.21" width="52.27" height="5.45"/><rect class="cls-19" x="91.73" y="197.11" width="52.27" height="5.45"/><rect class="cls-19" x="91.73" y="184.02" width="52.27" height="5.45"/><rect class="cls-19" x="91.73" y="170.93" width="52.27" height="5.45"/><rect class="cls-19" x="91.73" y="157.84" width="52.27" height="5.45"/><rect class="cls-19" x="91.73" y="144.75" width="52.27" height="5.45"/><rect class="cls-19" x="91.73" y="131.66" width="52.27" height="5.45"/><rect class="cls-19" x="91.73" y="118.56" width="52.27" height="5.45"/><rect class="cls-19" x="91.73" y="105.47" width="52.27" height="5.45"/><rect class="cls-19" x="91.73" y="92.38" width="52.27" height="5.45"/><rect class="cls-26" x="74.3" y="236.39" width="17.42" height="5.45"/><rect class="cls-19" x="91.73" y="249.48" width="52.27" height="5.45"/><rect class="cls-26" x="74.3" y="249.48" width="17.42" height="5.45"/><rect class="cls-19" x="91.73" y="262.57" width="52.27" height="5.45"/><rect class="cls-26" x="74.3" y="262.57" width="17.42" height="5.45"/><rect class="cls-19" x="91.73" y="275.66" width="52.27" height="5.45"/><rect class="cls-26" x="74.3" y="275.66" width="17.42" height="5.45"/><rect class="cls-19" x="91.73" y="288.75" width="52.27" height="5.45"/><rect class="cls-26" x="74.3" y="288.75" width="17.42" height="5.45"/><rect class="cls-19" x="91.73" y="301.85" width="52.27" height="5.45"/><rect class="cls-26" x="74.3" y="301.85" width="17.42" height="5.45"/><rect class="cls-19" x="91.73" y="314.94" width="52.27" height="5.45"/><rect class="cls-26" x="74.3" y="314.94" width="17.42" height="5.45"/><rect class="cls-19" x="91.73" y="328.03" width="52.27" height="12.3"/><rect class="cls-26" x="74.3" y="328.03" width="17.42" height="12.3"/><rect class="cls-26" x="74.3" y="223.3" width="17.42" height="5.45"/><rect class="cls-26" x="74.3" y="210.21" width="17.42" height="5.45"/><rect class="cls-26" x="74.3" y="197.11" width="17.42" height="5.45"/><rect class="cls-26" x="74.3" y="184.02" width="17.42" height="5.45"/><rect class="cls-26" x="74.3" y="170.93" width="17.42" height="5.45"/><rect class="cls-26" x="74.3" y="157.84" width="17.42" height="5.45"/><rect class="cls-26" x="74.3" y="144.75" width="17.42" height="5.45"/><polygon class="cls-19" points="76.92 92.38 89.06 87.73 97.43 87.73 91.73 92.38 76.92 92.38"/><rect class="cls-26" x="74.3" y="131.66" width="17.42" height="5.45"/><rect class="cls-26" x="74.3" y="118.56" width="17.42" height="5.45"/><rect class="cls-26" x="74.3" y="105.47" width="17.42" height="5.45"/><rect class="cls-26" x="74.3" y="92.38" width="17.42" height="5.45"/><polygon class="cls-44" points="141.39 92.38 129.24 87.73 97.43 87.73 91.73 92.38 141.39 92.38"/><rect class="cls-46" x="159.39" y="217.28" width="105.28" height="137.11"/><rect class="cls-47" x="235.01" y="232.68" width="14.39" height="107.8"/><rect class="cls-47" x="206.73" y="232.68" width="14.38" height="107.8"/><rect class="cls-47" x="178" y="232.68" width="14.38" height="107.8"/><rect class="cls-48" x="159.39" y="249.22" width="105.28" height="1.85"/><rect class="cls-48" x="248.87" y="230.56" width="2.02" height="111.24"/><rect class="cls-48" x="234.48" y="230.56" width="2.03" height="111.24"/><rect class="cls-48" x="220.1" y="230.56" width="2.02" height="111.24"/><rect class="cls-48" x="205.71" y="230.56" width="2.02" height="111.24"/><rect class="cls-48" x="191.32" y="230.56" width="2.03" height="111.24"/><rect class="cls-48" x="176.94" y="230.56" width="2.02" height="111.24"/><rect class="cls-48" x="159.39" y="267.48" width="105.28" height="1.83"/><rect class="cls-48" x="159.39" y="285.72" width="105.28" height="1.84"/><rect class="cls-48" x="159.39" y="303.98" width="105.28" height="1.84"/><rect class="cls-48" x="159.39" y="322.23" width="105.28" height="1.85"/><rect class="cls-48" x="159.39" y="340.48" width="105.28" height="14.35"/><rect class="cls-49" x="260.25" y="229.94" width="4.43" height="111.47"/><polygon class="cls-50" points="264.68 229.15 152.63 229.15 152.63 231.12 152.62 231.12 152.62 354.83 167.89 354.83 168 232.68 264.68 232.68 264.68 229.15"/><rect class="cls-51" x="152.62" y="216.85" width="112.05" height="13.29"/><g class="cls-52"><rect class="cls-46" x="159.39" y="217.28" width="105.28" height="137.11"/><rect class="cls-47" x="235.01" y="232.68" width="14.39" height="107.8"/><rect class="cls-47" x="206.73" y="232.68" width="14.38" height="107.8"/><rect class="cls-47" x="178" y="232.68" width="14.38" height="107.8"/><rect class="cls-53" x="159.39" y="249.22" width="105.28" height="1.85"/><rect class="cls-54" x="159.39" y="340.48" width="105.28" height="14.35"/><rect class="cls-18" x="260.25" y="229.94" width="4.43" height="111.47"/><polygon class="cls-48" points="264.68 229.15 152.63 229.15 152.63 231.12 152.62 231.12 152.62 354.83 167.89 354.83 168 232.68 264.68 232.68 264.68 229.15"/><rect class="cls-48" x="152.62" y="216.85" width="112.05" height="13.29"/></g><rect class="cls-48" x="27.8" y="266.48" width="131.03" height="88.53"/><rect class="cls-55" x="27.8" y="266.48" width="11.7" height="88.53"/><rect class="cls-56" x="27.8" y="267.15" width="131.03" height="5.89"/><rect class="cls-57" x="25.82" y="266.48" width="134.99" height="5.87"/><rect class="cls-58" x="121.92" y="280.2" width="25.2" height="74.8"/><rect class="cls-58" x="80.59" y="277.72" width="25.2" height="77.28"/><rect class="cls-58" x="39.5" y="277.72" width="25.21" height="77.28"/><rect class="cls-57" x="25.82" y="276.6" width="134.99" height="3.09"/><rect class="cls-57" x="25.82" y="288.2" width="134.99" height="3.09"/><rect class="cls-57" x="25.82" y="299.81" width="134.99" height="3.07"/><rect class="cls-57" x="25.82" y="311.42" width="134.99" height="3.09"/><rect class="cls-57" x="25.82" y="323.02" width="134.99" height="3.1"/><rect class="cls-57" x="25.82" y="334.64" width="134.99" height="3.09"/><rect class="cls-57" x="25.82" y="346.25" width="134.99" height="3.09"/><polygon class="cls-59" points="92.83 355.01 129.74 355.01 155.6 272.35 118.69 272.35 92.83 355.01"/><g class="cls-52"><polygon class="cls-48" points="154.26 287.15 120.75 287.15 120.75 255.08 154.26 261.57 154.26 287.15"/><polygon class="cls-60" points="155.55 264.21 119.45 257.35 119.45 254.8 155.55 261.66 155.55 264.21"/><polygon class="cls-48" points="110.14 287.43 76.63 287.43 76.63 255.36 110.14 261.85 110.14 287.43"/><polygon class="cls-60" points="111.43 264.5 75.33 257.62 75.33 255.08 111.43 261.95 111.43 264.5"/><polygon class="cls-48" points="66.02 287.71 32.51 287.71 32.51 255.63 66.02 262.14 66.02 287.71"/><polygon class="cls-60" points="67.32 264.78 31.21 257.9 31.21 255.36 67.32 262.23 67.32 264.78"/><rect class="cls-48" x="27.8" y="266.48" width="131.03" height="88.53"/><rect class="cls-55" x="27.8" y="266.48" width="11.7" height="88.53"/><rect class="cls-56" x="27.8" y="267.15" width="131.03" height="5.89"/><rect class="cls-57" x="25.82" y="266.48" width="134.99" height="5.87"/><rect class="cls-58" x="121.92" y="280.2" width="25.2" height="74.8"/><rect class="cls-58" x="80.59" y="277.72" width="25.2" height="77.28"/><rect class="cls-58" x="39.5" y="277.72" width="25.21" height="77.28"/><rect class="cls-57" x="25.82" y="276.6" width="134.99" height="3.09"/><rect class="cls-57" x="25.82" y="288.2" width="134.99" height="3.09"/><rect class="cls-57" x="25.82" y="299.81" width="134.99" height="3.07"/><rect class="cls-57" x="25.82" y="311.42" width="134.99" height="3.09"/><rect class="cls-57" x="25.82" y="323.02" width="134.99" height="3.1"/><rect class="cls-57" x="25.82" y="334.64" width="134.99" height="3.09"/><rect class="cls-57" x="25.82" y="346.25" width="134.99" height="3.09"/><polygon class="cls-59" points="92.83 355.01 129.74 355.01 155.6 272.35 118.69 272.35 92.83 355.01"/></g><polygon class="cls-48" points="391.88 265.66 375.24 265.66 375.24 223.73 391.88 232.22 391.88 265.66"/><polygon class="cls-60" points="392.52 235.67 374.6 226.7 374.6 223.37 392.52 232.34 392.52 235.67"/><polygon class="cls-48" points="369.98 266.01 353.34 266.01 353.34 224.1 369.98 232.58 369.98 266.01"/><polygon class="cls-60" points="370.62 236.05 352.69 227.06 352.69 223.73 370.62 232.72 370.62 236.05"/><polygon class="cls-48" points="348.07 266.38 331.43 266.38 331.43 224.46 348.07 232.96 348.07 266.38"/><polygon class="cls-60" points="348.71 236.41 330.79 227.42 330.79 224.1 348.71 233.07 348.71 236.41"/><rect class="cls-48" x="329.09" y="238.63" width="65.06" height="115.72"/><rect class="cls-55" x="329.09" y="238.63" width="5.81" height="115.72"/><rect class="cls-56" x="329.09" y="239.52" width="65.06" height="7.7"/><rect class="cls-57" x="328.11" y="238.63" width="67.03" height="7.67"/><rect class="cls-58" x="375.83" y="256.57" width="12.51" height="97.77"/><rect class="cls-58" x="355.3" y="253.33" width="12.51" height="101.02"/><rect class="cls-58" x="334.9" y="253.33" width="12.52" height="101.02"/><rect class="cls-57" x="328.11" y="251.86" width="67.03" height="4.03"/><rect class="cls-57" x="328.11" y="267.03" width="67.03" height="4.03"/><rect class="cls-57" x="328.11" y="282.21" width="67.03" height="4.02"/><rect class="cls-57" x="328.11" y="297.37" width="67.03" height="4.04"/><rect class="cls-57" x="328.11" y="312.54" width="67.03" height="4.05"/><rect class="cls-57" x="328.11" y="327.73" width="67.03" height="4.03"/><rect class="cls-57" x="328.11" y="342.9" width="67.03" height="4.03"/><polygon class="cls-59" points="361.38 354.35 379.71 354.35 392.55 246.31 374.22 246.31 361.38 354.35"/><g class="cls-52"><polygon class="cls-48" points="391.88 265.66 375.24 265.66 375.24 223.73 391.88 232.22 391.88 265.66"/><polygon class="cls-60" points="392.52 235.67 374.6 226.7 374.6 223.37 392.52 232.34 392.52 235.67"/><polygon class="cls-48" points="369.98 266.01 353.34 266.01 353.34 224.1 369.98 232.58 369.98 266.01"/><polygon class="cls-60" points="370.62 236.05 352.69 227.06 352.69 223.73 370.62 232.72 370.62 236.05"/><polygon class="cls-48" points="348.07 266.38 331.43 266.38 331.43 224.46 348.07 232.96 348.07 266.38"/><polygon class="cls-60" points="348.71 236.41 330.79 227.42 330.79 224.1 348.71 233.07 348.71 236.41"/><rect class="cls-48" x="329.09" y="238.63" width="65.06" height="115.72"/><rect class="cls-55" x="329.09" y="238.63" width="5.81" height="115.72"/><rect class="cls-56" x="329.09" y="239.52" width="65.06" height="7.7"/><rect class="cls-57" x="328.11" y="238.63" width="67.03" height="7.67"/><rect class="cls-58" x="375.83" y="256.57" width="12.51" height="97.77"/><rect class="cls-58" x="355.3" y="253.33" width="12.51" height="101.02"/><rect class="cls-58" x="334.9" y="253.33" width="12.52" height="101.02"/><rect class="cls-57" x="328.11" y="251.86" width="67.03" height="4.03"/><rect class="cls-57" x="328.11" y="267.03" width="67.03" height="4.03"/><rect class="cls-57" x="328.11" y="282.21" width="67.03" height="4.02"/><rect class="cls-57" x="328.11" y="297.37" width="67.03" height="4.04"/><rect class="cls-57" x="328.11" y="312.54" width="67.03" height="4.05"/><rect class="cls-57" x="328.11" y="327.73" width="67.03" height="4.03"/><rect class="cls-57" x="328.11" y="342.9" width="67.03" height="4.03"/><polygon class="cls-59" points="361.38 354.35 379.71 354.35 392.55 246.31 374.22 246.31 361.38 354.35"/></g><rect class="cls-61" x="-195.24" y="346.18" width="805.36" height="8.79"/><rect class="cls-62" x="397.6" y="172.75" width="77.4" height="166.98"/><rect class="cls-63" x="397.6" y="172.75" width="19.66" height="2.84"/><polygon class="cls-62" points="436.33 158.51 475 172.75 397.6 172.75 436.33 158.51"/><polygon class="cls-64" points="436.33 158.51 417.01 172.75 397.6 172.75 436.33 158.51"/><polygon class="cls-65" points="436.33 158.51 417.01 172.75 397.6 172.75 436.33 158.51"/><rect class="cls-66" x="399.04" y="313.67" width="16.04" height="1.69"/><rect class="cls-66" x="399.04" y="317.88" width="16.04" height="1.69"/><rect class="cls-66" x="399.04" y="322.09" width="16.04" height="1.7"/><rect class="cls-66" x="399.04" y="326.3" width="16.04" height="1.69"/><rect class="cls-66" x="399.04" y="330.51" width="16.04" height="1.7"/><rect class="cls-66" x="399.04" y="300.98" width="16.04" height="1.69"/><rect class="cls-66" x="399.04" y="305.19" width="16.04" height="1.69"/><rect class="cls-66" x="399.04" y="309.4" width="16.04" height="1.68"/><rect class="cls-66" x="399.04" y="284.14" width="16.04" height="1.7"/><rect class="cls-66" x="399.04" y="288.35" width="16.04" height="1.69"/><rect class="cls-66" x="399.04" y="292.56" width="16.04" height="1.69"/><rect class="cls-66" x="399.04" y="296.77" width="16.04" height="1.7"/><rect class="cls-66" x="399.04" y="271.46" width="16.04" height="1.68"/><rect class="cls-66" x="399.04" y="275.66" width="16.04" height="1.69"/><rect class="cls-66" x="399.04" y="279.87" width="16.04" height="1.69"/><rect class="cls-66" x="399.1" y="254.61" width="16.05" height="1.7"/><rect class="cls-66" x="399.1" y="258.81" width="16.05" height="1.7"/><rect class="cls-66" x="399.1" y="263.03" width="16.05" height="1.69"/><rect class="cls-66" x="399.1" y="267.24" width="16.05" height="1.69"/><rect class="cls-66" x="399.1" y="241.92" width="16.05" height="1.69"/><rect class="cls-66" x="399.1" y="246.13" width="16.05" height="1.69"/><rect class="cls-66" x="399.1" y="250.34" width="16.05" height="1.69"/><rect class="cls-66" x="399.1" y="225.09" width="16.05" height="1.69"/><rect class="cls-66" x="399.1" y="229.29" width="16.05" height="1.69"/><rect class="cls-66" x="399.1" y="233.51" width="16.05" height="1.69"/><rect class="cls-66" x="399.1" y="237.71" width="16.05" height="1.69"/><rect class="cls-66" x="399.1" y="212.39" width="16.05" height="1.69"/><rect class="cls-66" x="399.1" y="216.59" width="16.05" height="1.69"/><rect class="cls-66" x="399.1" y="220.82" width="16.05" height="1.69"/><rect class="cls-66" x="399.06" y="195.56" width="16.06" height="1.68"/><rect class="cls-66" x="399.06" y="199.76" width="16.06" height="1.69"/><rect class="cls-66" x="399.06" y="203.97" width="16.06" height="1.7"/><rect class="cls-66" x="399.06" y="208.18" width="16.06" height="1.69"/><rect class="cls-66" x="399.06" y="182.86" width="16.06" height="1.69"/><rect class="cls-66" x="399.06" y="187.08" width="16.06" height="1.69"/><rect class="cls-66" x="399.06" y="191.29" width="16.06" height="1.69"/><rect class="cls-66" x="399.06" y="178.65" width="16.06" height="1.69"/><rect class="cls-67" x="397.6" y="172.75" width="19.66" height="166.98"/><g class="cls-52"><rect class="cls-62" x="397.6" y="172.75" width="77.4" height="166.98"/><rect class="cls-63" x="397.6" y="172.75" width="19.66" height="2.84"/><polygon class="cls-62" points="436.33 158.51 475 172.75 397.6 172.75 436.33 158.51"/><polygon class="cls-64" points="436.33 158.51 417.01 172.75 397.6 172.75 436.33 158.51"/><polygon class="cls-65" points="436.33 158.51 417.01 172.75 397.6 172.75 436.33 158.51"/><rect class="cls-66" x="399.04" y="313.67" width="16.04" height="1.69"/><rect class="cls-66" x="399.04" y="317.88" width="16.04" height="1.69"/><rect class="cls-66" x="399.04" y="322.09" width="16.04" height="1.7"/><rect class="cls-66" x="399.04" y="326.3" width="16.04" height="1.69"/><rect class="cls-66" x="399.04" y="330.51" width="16.04" height="1.7"/><rect class="cls-66" x="399.04" y="300.98" width="16.04" height="1.69"/><rect class="cls-66" x="399.04" y="305.19" width="16.04" height="1.69"/><rect class="cls-66" x="399.04" y="309.4" width="16.04" height="1.68"/><rect class="cls-66" x="399.04" y="284.14" width="16.04" height="1.7"/><rect class="cls-66" x="399.04" y="288.35" width="16.04" height="1.69"/><rect class="cls-66" x="399.04" y="292.56" width="16.04" height="1.69"/><rect class="cls-66" x="399.04" y="296.77" width="16.04" height="1.7"/><rect class="cls-66" x="399.04" y="271.46" width="16.04" height="1.68"/><rect class="cls-66" x="399.04" y="275.66" width="16.04" height="1.69"/><rect class="cls-66" x="399.04" y="279.87" width="16.04" height="1.69"/><rect class="cls-66" x="399.1" y="254.61" width="16.05" height="1.7"/><rect class="cls-66" x="399.1" y="258.81" width="16.05" height="1.7"/><rect class="cls-66" x="399.1" y="263.03" width="16.05" height="1.69"/><rect class="cls-66" x="399.1" y="267.24" width="16.05" height="1.69"/><rect class="cls-66" x="399.1" y="241.92" width="16.05" height="1.69"/><rect class="cls-66" x="399.1" y="246.13" width="16.05" height="1.69"/><rect class="cls-66" x="399.1" y="250.34" width="16.05" height="1.69"/><rect class="cls-66" x="399.1" y="225.09" width="16.05" height="1.69"/><rect class="cls-66" x="399.1" y="229.29" width="16.05" height="1.69"/><rect class="cls-66" x="399.1" y="233.51" width="16.05" height="1.69"/><rect class="cls-66" x="399.1" y="237.71" width="16.05" height="1.69"/><rect class="cls-66" x="399.1" y="212.39" width="16.05" height="1.69"/><rect class="cls-66" x="399.1" y="216.59" width="16.05" height="1.69"/><rect class="cls-66" x="399.1" y="220.82" width="16.05" height="1.69"/><rect class="cls-66" x="399.06" y="195.56" width="16.06" height="1.68"/><rect class="cls-66" x="399.06" y="199.76" width="16.06" height="1.69"/><rect class="cls-66" x="399.06" y="203.97" width="16.06" height="1.7"/><rect class="cls-66" x="399.06" y="208.18" width="16.06" height="1.69"/><rect class="cls-66" x="399.06" y="182.86" width="16.06" height="1.69"/><rect class="cls-66" x="399.06" y="187.08" width="16.06" height="1.69"/><rect class="cls-66" x="399.06" y="191.29" width="16.06" height="1.69"/><rect class="cls-66" x="399.06" y="178.65" width="16.06" height="1.69"/><rect class="cls-67" x="397.6" y="172.75" width="19.66" height="166.98"/></g><rect class="cls-48" x="393.86" y="253.69" width="144.69" height="91.98"/><rect class="cls-68" x="393.97" y="256.42" width="61.83" height="81.75"/><rect class="cls-57" x="393.86" y="247.35" width="144.69" height="6.83"/><rect class="cls-57" x="395.11" y="276.55" width="60.87" height="1.07"/><rect class="cls-57" x="394.58" y="296.95" width="61.94" height="1.08"/><rect class="cls-57" x="394.58" y="317.36" width="61.94" height="1.07"/><rect class="cls-57" x="394.37" y="337.08" width="62.45" height="1.09"/><rect class="cls-57" x="393.86" y="255.95" width="144.69" height="1.23"/><rect class="cls-57" x="393.86" y="255.93" width="2.37" height="82.23"/><rect class="cls-69" x="393.86" y="247.35" width="63.03" height="98.32"/><g class="cls-52"><rect class="cls-48" x="393.86" y="253.69" width="144.69" height="91.98"/><rect class="cls-68" x="393.97" y="256.42" width="61.83" height="81.75"/><rect class="cls-57" x="393.86" y="247.35" width="144.69" height="6.83"/><rect class="cls-57" x="395.11" y="276.55" width="60.87" height="1.07"/><rect class="cls-57" x="394.58" y="296.95" width="61.94" height="1.08"/><rect class="cls-57" x="394.58" y="317.36" width="61.94" height="1.07"/><rect class="cls-57" x="394.37" y="337.08" width="62.45" height="1.09"/><rect class="cls-57" x="393.86" y="255.95" width="144.69" height="1.23"/><rect class="cls-57" x="393.86" y="255.93" width="2.37" height="82.23"/><rect class="cls-69" x="393.86" y="247.35" width="63.03" height="98.32"/></g><polygon class="cls-70" points="92.11 353.81 376.75 355.14 376.75 359.26 92.02 357.74 92.11 353.81"/><polygon class="cls-71" points="109.35 356.85 109.35 353.81 99.06 353.81 99.06 356.79 109.35 356.85"/><polygon class="cls-71" points="131.88 356.96 131.88 353.91 121.59 353.91 121.59 356.89 131.88 356.96"/><polygon class="cls-71" points="155.58 357.06 155.58 354.01 145.3 354.01 145.3 356.99 155.58 357.06"/><polygon class="cls-71" points="178.64 357.2 178.64 354.11 168.36 354.07 168.36 357.13 178.64 357.2"/><polygon class="cls-71" points="201.18 357.3 201.18 354.18 190.89 354.15 190.93 357.24 201.18 357.3"/><polygon class="cls-71" points="224.88 357.41 224.88 354.26 214.59 354.23 214.59 357.34 224.88 357.41"/><polygon class="cls-71" points="249.32 357.47 249.32 354.35 239.03 354.31 239.03 357.42 249.32 357.47"/><polygon class="cls-71" points="271.85 357.53 271.85 354.42 261.57 354.39 261.57 357.51 271.85 357.53"/><polygon class="cls-71" points="295.55 357.63 295.55 354.5 285.27 354.47 285.27 357.57 295.55 357.63"/><polygon class="cls-71" points="318.61 357.77 318.61 354.58 308.33 354.55 308.33 357.71 318.61 357.77"/><polygon class="cls-71" points="341.15 357.88 341.15 354.66 330.86 354.62 330.86 357.81 341.15 357.88"/><polygon class="cls-71" points="364.85 357.98 364.85 354.74 354.56 354.7 354.56 357.91 364.85 357.98"/><polygon class="cls-70" points="372.09 355.48 656.73 356.81 656.73 360.93 372 359.41 372.09 355.48"/><polygon class="cls-71" points="389.32 358.52 389.32 355.48 379.04 355.48 379.04 358.45 389.32 358.52"/><polygon class="cls-70" points="-191.81 352.33 92.84 353.66 92.84 357.79 -191.9 356.26 -191.81 352.33"/><polygon class="cls-71" points="11.64 356.15 11.64 353.02 1.35 352.99 1.35 356.09 11.64 356.15"/><polygon class="cls-71" points="34.7 356.3 34.7 353.1 24.41 353.07 24.41 356.23 34.7 356.3"/><polygon class="cls-71" points="57.23 356.4 57.23 353.18 46.95 353.14 46.95 356.33 57.23 356.4"/><polygon class="cls-71" points="80.93 356.5 80.93 353.26 70.65 353.23 70.65 356.44 80.93 356.5"/><path class="cls-1" d="M-2.45,397.24c.13.1,10.62.23,10.62.23v.68H-2.45Z"/><polygon class="cls-1" points="12.61 397.24 22.84 397.24 23 398.15 12.86 398.15 12.61 397.24"/><path class="cls-1" d="M27.59,397.24h8.33s.35.95.21.91-8.54,0-8.54,0Z"/><rect class="cls-1" x="39.99" y="397.24" width="7.64" height="0.91"/><path class="cls-1" d="M179.49,397.89c.13.09,10.47,0,10.47,0V399l-10-.19Z"/><rect class="cls-1" x="194.45" y="397.89" width="10.59" height="1.13"/><polygon class="cls-1" points="209.46 398.16 219.56 398.16 219.56 399.02 209.67 398.83 209.46 398.16"/><rect class="cls-1" x="223.71" y="398.16" width="10.68" height="0.72"/><path class="cls-1" d="M238.72,398l10.91.19v.72h-10.7S238.46,398,238.72,398Z"/><path class="cls-1" d="M253.37,398c.14.11,10.63.23,10.63.23v.68H253.37Z"/><polygon class="cls-1" points="268.43 397.97 278.66 397.97 278.83 398.88 268.68 398.88 268.43 397.97"/><path class="cls-1" d="M283.41,398h8.34s.34.95.21.91-8.55,0-8.55,0Z"/><rect class="cls-1" x="295.81" y="397.97" width="7.64" height="0.91"/><polygon class="cls-1" points="59.47 397.55 59.88 398.68 72.25 398.68 71.95 397.78 59.47 397.55"/><polygon class="cls-1" points="76.7 397.55 76.99 398.68 88.95 398.68 88.65 397.55 76.7 397.55"/><polygon class="cls-1" points="93.24 397.77 93.46 398.68 106.31 398.68 106.09 397.77 93.24 397.77"/><polygon class="cls-1" points="110.45 397.77 110.8 398.68 123.23 398.68 122.88 397.77 110.45 397.77"/><polygon class="cls-1" points="127.82 397.77 128.07 398.68 137.96 398.68 137.96 397.77 127.82 397.77"/><polygon class="cls-1" points="142.98 397.77 143.53 398.68 155.28 398.68 155.28 397.77 142.98 397.77"/><polyline class="cls-1" points="159.99 397.77 160.23 398.68 171.21 398.68 170.93 397.77"/><polygon class="cls-1" points="309.44 398.45 309.86 399.58 322.22 399.58 321.92 398.68 309.44 398.45"/><polygon class="cls-1" points="326.67 398.45 326.96 399.58 338.92 399.58 338.62 398.45 326.67 398.45"/><polygon class="cls-1" points="343.21 398.67 343.43 399.58 356.29 399.58 356.06 398.67 343.21 398.67"/><polygon class="cls-1" points="360.43 398.67 360.77 399.58 373.2 399.58 372.85 398.67 360.43 398.67"/><polygon class="cls-1" points="377.8 398.67 378.04 399.58 387.93 399.58 387.93 398.67 377.8 398.67"/><polygon class="cls-1" points="392.95 398.67 393.5 399.58 405.25 399.58 405.25 398.67 392.95 398.67"/><rect class="cls-48" x="148.81" y="229.23" width="115.33" height="10.46"/><ellipse class="cls-72" cx="59.76" cy="394.98" rx="63.47" ry="3.7"/><ellipse class="cls-72" cx="289.07" cy="394.98" rx="54.58" ry="3.18"/><rect x="256.15" y="374.17" width="13.83" height="12.59"/><path class="cls-73" d="M322,389.22h0a.68.68,0,0,1-.83-.48l-1.58-5.92,1.31-.35,1.58,5.92A.67.67,0,0,1,322,389.22Z"/><path class="cls-74" d="M290.81,378.81v2.87a4.87,4.87,0,0,1-4.88,4.88h-2.61a4.87,4.87,0,0,1-4.82-4.15l-.95-6.21-.27-1.8-.11-.71h4.45l.08.71.18,1.8.06.6a3.9,3.9,0,0,0,3.86,3.32h2.09A3.92,3.92,0,0,0,290.81,378.81Z"/><polygon class="cls-75" points="281.62 373.69 277.18 373.69 253.37 376.7 254.93 362.94 280.57 363.45 281.62 373.69"/><polygon class="cls-73" points="295.64 375 295.64 377.11 304.51 377.11 304.75 375 295.64 375"/><rect class="cls-76" x="291.93" y="375" width="3.71" height="2.11"/><rect class="cls-77" x="268.99" y="385.14" width="21.82" height="1.63" transform="translate(559.8 771.9) rotate(180)"/><path class="cls-78" d="M315.81,385.71v0a1,1,0,0,0,1,1h0a1,1,0,0,0,.72-.29l1.56-1.51a5.88,5.88,0,0,1,4.65-1.64l2.39.22a.84.84,0,0,0,.72-1.38,8.7,8.7,0,0,0-1.64-1.53c-3.62-2.6-7.95-1-8.7-.82Z"/><path class="cls-74" d="M296.32,381.31l-6.25,4.09v.37c0,.55.63,1,1.41,1h18.38c2.17,0,2.89-1.18,3-2.68l.27-3.55-5.13-.08a3.35,3.35,0,0,1-1.11.62,4.83,4.83,0,0,1-1.5.24Z"/><path class="cls-79" d="M292.6,373.52h12a.67.67,0,0,1,.67.66v1.12a.67.67,0,0,1-.67.67h-12a.67.67,0,0,1-.67-.67v-1.12A.67.67,0,0,1,292.6,373.52Z"/><path class="cls-73" d="M292.6,373.52h12a.67.67,0,0,1,.67.66v0H291.93v0A.67.67,0,0,1,292.6,373.52Z"/><path class="cls-79" d="M290.45,363.44l2.6,9.69.51,1.89a.68.68,0,0,1-.47.82l-1.08.29a.68.68,0,0,1-.82-.47l-.51-1.89-2.59-9.7a.65.65,0,0,1,.47-.81l1.08-.29A.65.65,0,0,1,290.45,363.44Z"/><path class="cls-79" d="M290.45,363.44,293.56,375a.68.68,0,0,1-.47.82h0L289.61,363h0A.65.65,0,0,1,290.45,363.44Z"/><rect class="cls-79" x="270.04" y="372.55" width="13.33" height="2.45" rx="0.67"/><path class="cls-73" d="M283.36,373.22v0H270v0a.66.66,0,0,1,.66-.67h12A.66.66,0,0,1,283.36,373.22Z"/><path class="cls-80" d="M303.73,381.84v-.59a2.72,2.72,0,0,0,2.72-2.57l1.6-29.86.58,0L307,378.71A3.31,3.31,0,0,1,303.73,381.84Z"/><path class="cls-81" d="M295.64,377.11v8.39h6.07a1.89,1.89,0,0,0,1.93-1.59l.87-6.8Z"/><path class="cls-82" d="M273.49,375v9h6.07a1.94,1.94,0,0,0,1.93-1.71l.87-7.32Z"/><polygon class="cls-75" points="307.71 364.39 311.68 364.69 310.63 380.55 306.06 381.3 306.75 378.69 307.71 364.39"/><path class="cls-79" d="M307.61,368h4.31a.54.54,0,0,0,.55-.55h0a.54.54,0,0,0-.55-.55h-4.31a.54.54,0,0,0-.55.55h0A.54.54,0,0,0,307.61,368Z"/><path class="cls-83" d="M298.75,358.6a2.4,2.4,0,0,0-.05.58,2.12,2.12,0,0,0,.05.47L296.7,359a2.3,2.3,0,0,0,.21-.73,2.59,2.59,0,0,0,0-.71C297.5,357.84,298.14,358.32,298.75,358.6Z"/><path class="cls-84" d="M310.28,383.45h-5.12a.32.32,0,0,1-.29-.34v-.93a.43.43,0,0,1,.39-.45h0a.36.36,0,0,1,.2.06.79.79,0,0,0,.26.13,1,1,0,0,0,.57,0c.42-.19.34-.78.66-1s.64.25,1.38.64c1.33.68,2.34.35,2.55,1a.81.81,0,0,1,0,.52A.73.73,0,0,1,310.28,383.45Z"/><path class="cls-85" d="M304.65,381.73a2.6,2.6,0,0,0,.56.31,2.12,2.12,0,0,0,1,.14c0-.32.12-.79.16-1.38a18.22,18.22,0,0,0,.05-2.22,21.68,21.68,0,0,1,.24-3.45h-1.08a26.91,26.91,0,0,0-.55,2.71A28.86,28.86,0,0,0,304.65,381.73Z"/><path class="cls-86" d="M302.05,371a23.2,23.2,0,0,1,4.43.15c1.35.17,1.67.34,1.94.63.79.87.59,2.43.26,4.89a29.74,29.74,0,0,1-.88,4.26c0,.21-.09.78-.13,1a3.72,3.72,0,0,1-1.05.21,3.3,3.3,0,0,1-.88-.07,29.08,29.08,0,0,1,.31-4.21,26.44,26.44,0,0,1,.56-2.72c-2.24,0-4,.09-5.15.14-1.94.1-3.57.22-4.3-.92a2.05,2.05,0,0,1-.25-.58,5.1,5.1,0,0,1,1.95-2.28A4.19,4.19,0,0,1,302.05,371Z"/><path class="cls-87" d="M300.86,364.64a11.6,11.6,0,0,0-1-3.5c-.41-.84-.63-1.25-1.07-1.49a8.88,8.88,0,0,0-1-.32c-.83-.27-.88-.36-1-.33-.68.12-1,3-1,3.12a37.11,37.11,0,0,0,.53,10c.1.61.26,1.53.71,1.66s1-1.32,2.38-2.09a5.31,5.31,0,0,1,2.76-.68,52.74,52.74,0,0,1-1.08-5.63C301,365.26,300.91,365,300.86,364.64Z"/><path class="cls-88" d="M311.14,383.45H306a.32.32,0,0,1-.29-.34v-.93a.42.42,0,0,1,.39-.45h0a.36.36,0,0,1,.2.06.73.73,0,0,0,.25.13,1,1,0,0,0,.57,0c.43-.19.35-.78.66-1s.65.25,1.39.64c1.32.68,2.33.35,2.55,1a.81.81,0,0,1,0,.52A.75.75,0,0,1,311.14,383.45Z"/><path class="cls-83" d="M309.35,368.19c-.29.44-1,.55-1.23.26s.14-.72-.05-1-1.18-.06-1.36,0c-2.66.93-5.13,1.79-6.63,1a7.92,7.92,0,0,1-2.23-3.19c.86-.76.64-1,1.89-1.18.3.31,1.07,2,1.38,2.34l7.45-.26a.55.55,0,0,1,.46.22A1.67,1.67,0,0,1,309.35,368.19Z"/><path class="cls-89" d="M297.49,365.48c.75-.46,2-1.23,2.72-1.69-.17-1.26-2.74-5-3.5-3.58C296.08,361.4,296.77,364.38,297.49,365.48Z"/><path class="cls-83" d="M301.4,356.77c0,.09-.21.12-.24.13s-.16,0-.21,0,0,.17,0,.35a3.79,3.79,0,0,1,0,.43,1.36,1.36,0,0,1-.13.66c-.1.15-.32.22-1.1.22a5,5,0,0,1-1.55-.2,3.41,3.41,0,0,1-.78-.34,4.12,4.12,0,0,1-1-.94,3.55,3.55,0,0,1-.47-.57,2.61,2.61,0,0,1,4.82-1.94,2.49,2.49,0,0,0,.2,1.3l.14.27C301.32,356.54,301.45,356.66,301.4,356.77Z"/><path class="cls-90" d="M296.64,357.89a1,1,0,0,1-.5-.08c-.27-.12-.45-.42-.39-.5s.29.08.39,0,0-.42-.2-.77a3,3,0,0,1,.06-2.6,2.88,2.88,0,0,1,1.88-1.35,2.7,2.7,0,0,1,1.77.19,2.1,2.1,0,0,1,.7.47c.17.19.31.44.56.54s.28,0,.35.07.08.23-.14.68a1.72,1.72,0,0,1-.36.34c-.72.51-1.43.2-1.7.63a1.46,1.46,0,0,0-.13.76c0,.19.07.32,0,.47a.36.36,0,0,1-.33.21.64.64,0,0,1-.45-.39c-.11-.29.06-.47-.07-.62a.44.44,0,0,0-.54-.06.63.63,0,0,0-.24.53c0,.32.17.36.17.65a.89.89,0,0,1-.53.78A1.36,1.36,0,0,1,296.64,357.89Z"/><path class="cls-1" d="M301,357.27a3.79,3.79,0,0,1,0,.43.73.73,0,0,1-.53,0,.69.69,0,0,1-.34-.31,2.24,2.24,0,0,0,.38,0c.17,0,.27,0,.3,0Z"/><path class="cls-91" d="M299.84,355.88a.09.09,0,0,1-.1-.06.1.1,0,0,1,.05-.12l.68-.25a.08.08,0,0,1,.11.06.08.08,0,0,1-.05.11l-.68.25Z"/><path class="cls-91" d="M300.54,356.08a.18.18,0,0,1-.13.24.21.21,0,0,1-.08-.41A.19.19,0,0,1,300.54,356.08Z"/><path class="cls-92" d="M295.94,356.53a15.36,15.36,0,0,1,2.32-2,15.52,15.52,0,0,1,2.26-1.31,2.88,2.88,0,0,0-4.1-.55A2.92,2.92,0,0,0,295.94,356.53Z"/><path class="cls-93" d="M299.26,353.91c1.91.11,2.88.09,2.9-.07s-.53-.32-1.64-.6c-.31.14-.63.3-1,.49Z"/><path class="cls-81" d="M320,378.93c0,.16-.07.31-.11.47l-.12.5c0,.16-.08.31-.13.47-.21.79-.43,1.54-.65,2.27a5.89,5.89,0,0,1-5.63,4.12h-3.49a3.58,3.58,0,0,0,.53-1.68l.25-4.71,0-.47,0-.5,0-.47.7-13.25,9.15,2.57A76,76,0,0,1,320,378.93Z"/><path class="cls-81" d="M295.64,377.11v8.39l-1.27,1.26H270.92a2.54,2.54,0,0,1-1.93-.89,2.43,2.43,0,0,1-.43-.73l-.16-.43a2.54,2.54,0,0,0-1.39-1.43,5.27,5.27,0,0,0-7.9,0,2.55,2.55,0,0,0-1.38,1.43l-.16.43a2.54,2.54,0,0,1-2.37,1.62h-1.37a1.53,1.53,0,0,1-1.46-1.69l1.37-11.46.06-.46.06-.51,0-.46.48-3.93h20.26a2.53,2.53,0,0,1,2.49,2.15l.27,1.78.07.46.08.51.07.46,1.13,7.47a4.78,4.78,0,0,0,4.72,4.06H286a4.78,4.78,0,0,0,4.77-4.77v-3.26Z"/><rect class="cls-94" x="290.81" y="378.93" width="4.83" height="0.47" transform="translate(586.45 758.33) rotate(180)"/><rect class="cls-94" x="290.81" y="379.9" width="4.83" height="0.47" transform="translate(586.45 760.27) rotate(180)"/><polygon class="cls-94" points="277.48 372.64 253.86 372.64 253.91 372.18 277.41 372.18 277.48 372.64"/><polygon class="cls-94" points="277.63 373.61 253.74 373.61 253.8 373.15 277.56 373.15 277.63 373.61"/><path class="cls-94" d="M320,378.93c0,.16-.07.31-.11.47h-9.19l0-.47Z"/><path class="cls-94" d="M319.76,379.9c0,.16-.08.31-.13.47h-9l0-.47Z"/><path class="cls-80" d="M309.69,386.79l2.36-35,.59,0-2.07,33.08C310.46,386.9,309.69,386.79,309.69,386.79Z"/><rect class="cls-76" x="290.92" y="363.46" width="0.84" height="10.73" transform="translate(-1.76 1.4) rotate(-0.27)"/><rect class="cls-82" x="290.81" y="371.27" width="1.13" height="5.83" transform="translate(582.74 748.38) rotate(180)"/><path class="cls-81" d="M325.23,380.54h-1.11a1.38,1.38,0,0,1-1.38-1.37h0a1.38,1.38,0,0,1,1.38-1.38h1.11Z"/><rect class="cls-95" x="325.23" y="377.79" width="0.56" height="2.75"/><path class="cls-95" d="M325.79,380.62h-.56a.09.09,0,0,1-.09-.08v-2.75a.09.09,0,0,1,.09-.08h.56a.09.09,0,0,1,.08.08v2.75A.09.09,0,0,1,325.79,380.62Zm-.48-.17h.39v-2.57h-.39Z"/><path class="cls-79" d="M321.88,369v3a.74.74,0,0,1-.74.74v-4.47A.75.75,0,0,1,321.88,369Z"/><path class="cls-96" d="M321.14,368.25v4.47h-3.76a.74.74,0,0,1-.74-.74v-3a.75.75,0,0,1,.74-.75Z"/><path class="cls-80" d="M286,385.43h-2.56a5,5,0,0,1-5-4.3l-1.62-10.68a2.21,2.21,0,0,0-2.2-1.9h-.35V368h.35a2.81,2.81,0,0,1,2.79,2.4L279.05,381a4.46,4.46,0,0,0,4.43,3.8H286a4.47,4.47,0,0,0,4.47-4.47v-3.26h.59v3.26A5.07,5.07,0,0,1,286,385.43Z"/><path class="cls-78" d="M272.29,386.76h-2.82a1.26,1.26,0,0,1-1.24-1,5.28,5.28,0,0,0-5.17-4.23,5.25,5.25,0,0,0-5.16,4.23,1.27,1.27,0,0,1-1.25,1h-2.82a9.23,9.23,0,0,1,18.46,0Z"/><path class="cls-97" d="M252,378.51h.14a0,0,0,0,1,0,0v2.61a0,0,0,0,1,0,0H252a1.11,1.11,0,0,1-1.11-1.11v-.39a1.11,1.11,0,0,1,1.11-1.11Z"/><rect class="cls-98" x="251.83" y="378.51" width="1.55" height="2.61"/><rect class="cls-99" x="316.64" y="373.88" width="2.79" height="1.19" rx="0.53"/><path class="cls-79" d="M319.26,375.2H316.8a.29.29,0,0,1-.29-.29v-.86a.29.29,0,0,1,.29-.29h2.46a.29.29,0,0,1,.29.29v.86A.29.29,0,0,1,319.26,375.2ZM316.8,374a0,0,0,0,0,0,0v.86a0,0,0,0,0,0,0h2.46a0,0,0,0,0,0,0v-.86a0,0,0,0,0,0,0Z"/><path class="cls-100" d="M256,385.25H256a.29.29,0,0,1-.21-.36,7.55,7.55,0,0,1,14.61,0,.3.3,0,0,1-.22.36.3.3,0,0,1-.36-.21,7,7,0,0,0-13.46,0A.31.31,0,0,1,256,385.25Z"/><path class="cls-100" d="M325.56,382.82a.29.29,0,0,1-.22-.11,6.3,6.3,0,0,0-1-1,5.07,5.07,0,0,0-2.86-.92.29.29,0,0,1-.29-.3.3.3,0,0,1,.3-.29,5.61,5.61,0,0,1,3.2,1,6.64,6.64,0,0,1,1.14,1.05.3.3,0,0,1,0,.42A.26.26,0,0,1,325.56,382.82Z"/><rect class="cls-79" x="290.99" y="350.56" width="0.59" height="13.19" transform="translate(-1.71 1.4) rotate(-0.27)"/><path class="cls-101" d="M274.41,363.53l0,3.08-12.25.06c-.11-1.51,3.3-19.3,3.3-19.3l13.57,1,1.56,15.13Z"/><path class="cls-101" d="M315.19,360.57v4.76l-7.58-.94.73-15.55,1.71-2-.36,10.41a2.11,2.11,0,0,0,2,2l2.81.14Z"/><path class="cls-102" d="M314.5,359.31l-2.81-.14a2.11,2.11,0,0,1-2-2l-.31-8.36,2.92.41Z"/><path class="cls-79" d="M314.78,359.62l-3.11-.16a2.4,2.4,0,0,1-2.28-2.24l-.34-7.5a5.7,5.7,0,0,1,.74-3.07l.14-.26.52.29-.15.26a5.2,5.2,0,0,0-.66,2.76l.34,7.49a1.8,1.8,0,0,0,1.72,1.68l3.11.16Z"/><path class="cls-103" d="M320.57,366.22v2h-9.1l.88-16.43,1.32-1.58.72-.87,0,.7-.28,8.1-.13,3.69a2.53,2.53,0,0,0,2.4,2.36l3.38.17.17.3.51.92A1.31,1.31,0,0,1,320.57,366.22Z"/><path class="cls-102" d="M319.74,364.39l-3.38-.17a2.53,2.53,0,0,1-2.4-2.36l-.37-10,.8-2.45.14.37,5.1,14.35Z"/><path class="cls-79" d="M319.91,364.69l-3.56-.18a2.81,2.81,0,0,1-2.68-2.64l-.41-9a6.77,6.77,0,0,1,.41-2.64h0a5.86,5.86,0,0,1,.47-1l.09-.16.16.31.14.37c-.06.11-.11.22-.16.33a6.09,6.09,0,0,0-.52,2.79l.24,5.31.17,3.67a2.22,2.22,0,0,0,2.12,2.08l3.25.17.11.3Z"/><path class="cls-104" d="M314.39,349.37l-.72.87h0l-1.32,1.58-36.55-1.68a1.27,1.27,0,0,0-1.32,1.27l-.18,16.84H254.39l2.1-15.42a.74.74,0,0,1,.07-.21l1.92-3.32a.6.6,0,0,1,.21-.21l4.26-2.46a.63.63,0,0,1,.23-.08L274,345.26h17.83l17.74.71h.09l1.86.36a.62.62,0,0,1,.19.07l1.42.83a.66.66,0,0,1,.22.22l.88,1.61Z"/><path class="cls-76" d="M259.79,350.7a.32.32,0,0,1-.26-.15.29.29,0,0,1,.11-.4l3.81-2.2a.29.29,0,0,1,.41.1.31.31,0,0,1-.11.41l-3.81,2.2A.42.42,0,0,1,259.79,350.7Z"/><path class="cls-76" d="M256.32,366.86h0a.29.29,0,0,1-.26-.33l1.82-13.3a.29.29,0,0,1,.33-.25.29.29,0,0,1,.25.33l-1.81,13.3A.29.29,0,0,1,256.32,366.86Z"/><circle class="cls-104" cx="322.04" cy="388.73" r="5.91"/><circle class="cls-80" cx="322.04" cy="388.73" r="3.6"/><circle class="cls-76" cx="322.04" cy="388.73" r="2.67"/><circle class="cls-80" cx="322.04" cy="388.73" r="2.14"/><circle class="cls-79" cx="322.04" cy="388.73" r="1.17"/><path class="cls-79" d="M322.24,387.08a.2.2,0,0,1-.2.19.2.2,0,0,1-.19-.19.2.2,0,1,1,.39,0Z"/><path class="cls-79" d="M321,387.42a.19.19,0,0,1,0,.28.18.18,0,0,1-.27,0,.19.19,0,0,1,0-.28A.2.2,0,0,1,321,387.42Z"/><path class="cls-79" d="M320.39,388.54a.18.18,0,0,1,.19.19.19.19,0,0,1-.19.2.2.2,0,0,1-.2-.2A.19.19,0,0,1,320.39,388.54Z"/><path class="cls-79" d="M320.74,389.76a.2.2,0,0,1,.27,0,.19.19,0,0,1,0,.28.18.18,0,0,1-.27,0A.19.19,0,0,1,320.74,389.76Z"/><path class="cls-79" d="M321.85,390.39a.2.2,0,1,1,.39,0,.19.19,0,0,1-.2.19A.19.19,0,0,1,321.85,390.39Z"/><path class="cls-79" d="M323.08,390a.19.19,0,0,1,0-.28.2.2,0,0,1,.27,0,.19.19,0,0,1,0,.28A.18.18,0,0,1,323.08,390Z"/><circle class="cls-79" cx="323.7" cy="388.73" r="0.2"/><path class="cls-79" d="M323.35,387.7a.18.18,0,0,1-.27,0,.19.19,0,0,1,0-.28.2.2,0,0,1,.27,0A.19.19,0,0,1,323.35,387.7Z"/><circle class="cls-104" cx="263.06" cy="388.91" r="6.48"/><circle class="cls-80" cx="263.06" cy="388.91" r="3.95"/><circle class="cls-76" cx="263.06" cy="388.91" r="2.92"/><circle class="cls-80" cx="263.06" cy="388.91" r="2.35"/><circle class="cls-79" cx="263.06" cy="388.91" r="0.77"/><path class="cls-80" d="M263.06,389.44a.54.54,0,1,0-.53-.53A.54.54,0,0,0,263.06,389.44Z"/><path class="cls-79" d="M263.39,387.42a.2.2,0,0,1-.2.19.2.2,0,0,1-.19-.19.2.2,0,1,1,.39,0Z"/><path class="cls-79" d="M262.16,387.76a.19.19,0,0,1,0,.28.18.18,0,0,1-.27,0,.19.19,0,0,1,0-.28A.2.2,0,0,1,262.16,387.76Z"/><path class="cls-79" d="M261.54,388.88a.19.19,0,0,1,.2.19.2.2,0,1,1-.4,0A.19.19,0,0,1,261.54,388.88Z"/><path class="cls-79" d="M261.89,390.1a.2.2,0,0,1,.27,0,.19.19,0,0,1,0,.28.18.18,0,0,1-.27,0A.19.19,0,0,1,261.89,390.1Z"/><path class="cls-79" d="M263,390.73a.2.2,0,1,1,.19.19A.2.2,0,0,1,263,390.73Z"/><path class="cls-79" d="M264.23,390.38a.19.19,0,0,1,0-.28.2.2,0,0,1,.27,0,.19.19,0,0,1,0,.28A.18.18,0,0,1,264.23,390.38Z"/><circle class="cls-79" cx="264.85" cy="389.07" r="0.2"/><path class="cls-79" d="M264.5,388a.18.18,0,0,1-.27,0,.19.19,0,0,1,0-.28.2.2,0,0,1,.27,0A.19.19,0,0,1,264.5,388Z"/><path class="cls-105" d="M9.91,369.78c.8-1.12,2.11-3.8,6.15-4.11s5.9,0,15.4-4.64a49,49,0,0,1,21.45-5.11,63.13,63.13,0,0,1,23.69,3.44c4.27,1.54,8,4.71,12.1,6.31l4.78,1.85,21,4.06c1.33,0,2.58,1,3.54,1.8a13.45,13.45,0,0,1,3,3.65,5.48,5.48,0,0,1,.67,1.82,17.83,17.83,0,0,1,.16,1.78,7.29,7.29,0,0,1-.44,1.77,6.31,6.31,0,0,0-.07,2.41c0,.33.09.65.13,1,0,1,.09,1.88.2,2.8l-.23.14a4.27,4.27,0,0,0-.41.29H39.93v-2.89l-17,.49v.7c0,2.57-2.09,1.44-4.66,1.44-3.32,0-9.63-3.06-9.63-6.79V373A4.63,4.63,0,0,1,9.91,369.78Z"/><path class="cls-105" d="M9.91,369.78c.8-1.12,2.11-3.8,6.15-4.11s5.9,0,15.4-4.64a49,49,0,0,1,21.45-5.11,63.13,63.13,0,0,1,23.69,3.44c4.27,1.54,8,4.71,12.1,6.31l4.78,1.85,21,4.06c1.88,0,4.82,2.6,6.27,5a15.13,15.13,0,0,0-6.85-3.76,23.34,23.34,0,0,0-3.87-1.51,11.18,11.18,0,0,0-1.72-.36c-1.85-.26-3.73-.56-5.6-.7l-1.55-.09c-2-.4-4-.9-6-1.27a63.07,63.07,0,0,0-8.09-1.06l-.74,0a61,61,0,0,1-7.17-4.27,35.47,35.47,0,0,0-8-3.91,21.24,21.24,0,0,0-4.51-1.11c-2.7-.37-5.34-.75-8.06-.9-1.51-.08-3-.12-4.54-.23s-3.3-.27-5-.24a37,37,0,0,0-6.24.73,15.39,15.39,0,0,0-2.11.6c-4.13,1.54-7.95,3.62-11.92,5.51l-4.62,2.17c-.85.4-1.69.82-2.53,1.23s-1.59.59-2.37.92a46,46,0,0,0-5.5,2.45,24.32,24.32,0,0,0-4.58,3.49c-.23.23-.45.46-.67.7V373A4.63,4.63,0,0,1,9.91,369.78Z"/><path class="cls-106" d="M23.51,369a2.18,2.18,0,1,0,2.17-2.17A2.18,2.18,0,0,0,23.51,369Z"/><path class="cls-107" d="M9.91,369.78a12.36,12.36,0,0,1,1.91-2.4h2.31l-1.34,3.73H9a4.73,4.73,0,0,1,.9-1.33Z"/><path class="cls-108" d="M10.22,369.33c.17-.26.36-.55.59-.85h2.92l-.3.85Z"/><path class="cls-109" d="M112.48,371.18l2,.4c2.38,0,6.46,4.16,7.07,6.83A31.39,31.39,0,0,0,112.48,371.18Z"/><path class="cls-109" d="M9.23,371.41H27l9.71,0c8,0,16.08,0,24.12,0,7.5,0,15,.11,22.5,0A167.37,167.37,0,0,1,103,372c1.73.18,3.48.19,5.22.33.89.06,1.89.29,2.84.43v.1H8.6v-.07a2.52,2.52,0,0,1,.34-1.42Z"/><path class="cls-109" d="M73.66,387.91c5.54-.14,11.08-.33,16.61-.49a7.12,7.12,0,0,0,.25,1.59H39.93v-.79C51.17,388.22,62.42,388.21,73.66,387.91Z"/><path class="cls-109" d="M11.05,383.4a9.2,9.2,0,0,0,1.42,1.37,15.69,15.69,0,0,0,2.06,1.52,20.41,20.41,0,0,0,2.36,1,8.12,8.12,0,0,0,1.95.51,31.38,31.38,0,0,0,3.61.4h.29c-.5,1.31-2.33.5-4.51.5-3.32,0-9.63-3.06-9.63-6.79v-2.28A17.22,17.22,0,0,0,11.05,383.4Z"/><path class="cls-110" d="M90,389.15a11.26,11.26,0,0,1-.16-1.85,10.76,10.76,0,1,1,21.52,0,10.27,10.27,0,0,1-.16,1.85Z"/><path class="cls-111" d="M109.59,387a9,9,0,1,1-9-9A9,9,0,0,1,109.59,387Z"/><path class="cls-111" d="M109.59,387a9,9,0,1,1-9-9A9,9,0,0,1,109.59,387Z"/><path class="cls-112" d="M108.32,387a7.7,7.7,0,1,1-7.69-7.7A7.7,7.7,0,0,1,108.32,387Z"/><path class="cls-110" d="M107.23,387a6.61,6.61,0,1,1-6.6-6.6A6.6,6.6,0,0,1,107.23,387Z"/><path class="cls-111" d="M107.23,387a6.61,6.61,0,1,1-6.6-6.6A6.6,6.6,0,0,1,107.23,387Z"/><path class="cls-113" d="M105.29,387a4.67,4.67,0,1,1-4.66-4.67A4.67,4.67,0,0,1,105.29,387Z"/><path class="cls-111" d="M103.86,387a3.24,3.24,0,1,1-3.23-3.23A3.24,3.24,0,0,1,103.86,387Z"/><path class="cls-111" d="M99.65,391.32a4.41,4.41,0,0,1-1.77-.85l1.46-1.84a2,2,0,0,0,.83.39Zm2,0-.53-2.3a2.12,2.12,0,0,0,.83-.39l1.47,1.83A4.56,4.56,0,0,1,101.61,391.32Zm-5-2.39a4.35,4.35,0,0,1-.44-1.91h2.35a2.1,2.1,0,0,0,.2.89Zm7.95,0-2.12-1a2,2,0,0,0,.21-.9H105A4.39,4.39,0,0,1,104.6,388.93Zm-5.84-2.81-2.12-1a4.48,4.48,0,0,1,1.22-1.54l1.47,1.83A2.33,2.33,0,0,0,98.76,386.12Zm3.72,0a2.09,2.09,0,0,0-.58-.71l1.46-1.85a4.45,4.45,0,0,1,1.23,1.53Zm-2.32-1.1-.53-2.3a4.47,4.47,0,0,1,2,0l-.51,2.3A1.91,1.91,0,0,0,100.16,385Z"/><path class="cls-110" d="M19.66,389.15a11.26,11.26,0,0,1-.16-1.85,10.76,10.76,0,1,1,21.52,0,10.27,10.27,0,0,1-.16,1.85Z"/><path class="cls-111" d="M39.23,387a9,9,0,1,1-9-9A9,9,0,0,1,39.23,387Z"/><path class="cls-111" d="M39.23,387a9,9,0,1,1-9-9A9,9,0,0,1,39.23,387Z"/><path class="cls-112" d="M38,387a7.7,7.7,0,1,1-7.7-7.7A7.7,7.7,0,0,1,38,387Z"/><path class="cls-110" d="M36.87,387a6.61,6.61,0,1,1-6.61-6.6A6.6,6.6,0,0,1,36.87,387Z"/><path class="cls-111" d="M36.87,387a6.61,6.61,0,1,1-6.61-6.6A6.6,6.6,0,0,1,36.87,387Z"/><path class="cls-113" d="M34.93,387a4.67,4.67,0,1,1-4.67-4.67A4.67,4.67,0,0,1,34.93,387Z"/><path class="cls-111" d="M33.5,387a3.24,3.24,0,1,1-3.24-3.23A3.24,3.24,0,0,1,33.5,387Z"/><path class="cls-111" d="M29.28,391.32a4.54,4.54,0,0,1-1.77-.85L29,388.63a2,2,0,0,0,.82.39Zm2,0-.53-2.3a2.12,2.12,0,0,0,.83-.39L33,390.46A4.56,4.56,0,0,1,31.25,391.32Zm-5-2.39a4.35,4.35,0,0,1-.44-1.91H28.2a2.1,2.1,0,0,0,.2.89Zm8,0-2.12-1a2,2,0,0,0,.2-.9h2.35A4.38,4.38,0,0,1,34.24,388.93Zm-5.84-2.81-2.12-1a4.37,4.37,0,0,1,1.22-1.54L29,385.4A2.19,2.19,0,0,0,28.4,386.12Zm3.72,0a2.21,2.21,0,0,0-.58-.71L33,383.55a4.45,4.45,0,0,1,1.23,1.53ZM29.8,385l-.53-2.3a4.47,4.47,0,0,1,2,0l-.51,2.3A1.91,1.91,0,0,0,29.8,385Z"/><path class="cls-114" d="M60.73,368.59v19.2h8.05c2.23,0,4.5,0,6.7-.05,1.71,0,3.47-.07,5.2-.07,1.11,0,2.11,0,3.06,0a4.6,4.6,0,0,0,3.68-1.13c1.32-1.38,1.21-3.8,1.1-6.37,0-.73-.06-1.48,0-2.19,0-1.84,0-4.25,0-6.59v-2.85h.23v2.85c0,2.34,0,4.75,0,6.59,0,.71,0,1.45.06,2.18.11,2.62.22,5.1-1.17,6.54A4.88,4.88,0,0,1,83.73,388c-.94,0-1.94,0-3,0-1.73,0-3.49,0-5.19.06s-3.47.06-5.2.06H68.77c-1.07,0-2.14,0-3.21,0H60.5V368.59Z"/><path class="cls-114" d="M31.24,368.59a10.27,10.27,0,0,0,5.83,8.4c3.5,1.82,4.29,4.57,4.92,6.79s1.16,4,4.22,3.94c.95,0,1.72,0,2.35,0,.92,0,1.45,0,2,.06.84.05,1.72.09,4.07.06h5.87v-19.2h.24V388H57.86c-1.07,0-2.14,0-3.21,0H53.32c-1.41,0-2.1,0-2.76-.07s-1.08-.05-2-.05c-.63,0-1.4,0-2.35,0-3.24.09-3.79-1.85-4.44-4.12S40.37,379,37,377.2A10.44,10.44,0,0,1,31,368.59Z"/><path class="cls-115" d="M31.61,367.43c0-1.51,7-7.39,8.33-8.09,6.24-3.26,17.23-3.38,24-2.24,8,1.33,17.37,4,23.93,10.92H31.61Z"/><path class="cls-116" d="M31.18,368.07c0-1.52,7.16-7.39,8.52-8.09,6.37-3.27,17.6-3.38,24.55-2.25,8.13,1.33,17.75,4.06,24.46,10.92H31.18Z"/><path class="cls-117" d="M73,368.62c-3.38-3.6-6.61-7.34-9.88-11l.71.1L65,358.84c1.79,1.81,3.59,3.6,5.39,5.4,1.12,1.49,2.26,3,3.43,4.42H73Z"/><path class="cls-117" d="M45.46,363.44q-2.26-2.06-4.55-4.06a25.75,25.75,0,0,1,4-1.23l.6.66q4.41,4.9,8.79,9.85H51.13Q48.33,366,45.46,363.44Z"/><path class="cls-118" d="M60.31,357.27l.69.07v11.32h-.69Z"/><path class="cls-117" d="M37.6,361.45a30.39,30.39,0,0,0,2.72,7.11h-9V368C31.29,366.87,35,363.5,37.6,361.45Z"/><path class="cls-106" d="M80.35,367.2a1.78,1.78,0,0,0,1.55,1.93H85a1.78,1.78,0,0,0,1.55-1.93h0A1.77,1.77,0,0,0,85,365.27H81.9a1.77,1.77,0,0,0-1.55,1.93Z"/><path class="cls-119" d="M86.44,366.45a2.56,2.56,0,0,1,.12.75A1.78,1.78,0,0,1,85,369.13H81.9a1.12,1.12,0,0,1-.32,0A18.7,18.7,0,0,0,86.44,366.45Z"/><path class="cls-120" d="M66.91,370.47a.61.61,0,0,1-.61.62H63.43a.62.62,0,0,1-.62-.62h0a.62.62,0,0,1,.62-.62H66.3a.61.61,0,0,1,.61.62Z"/><path class="cls-106" d="M67,370.57a.62.62,0,0,1-.62.62H63.53a.62.62,0,0,1-.62-.62h0a.61.61,0,0,1,.62-.61H66.4a.61.61,0,0,1,.62.61Z"/><path class="cls-120" d="M38.22,370.47a.62.62,0,0,1-.62.62H34.73a.62.62,0,0,1-.62-.62h0a.62.62,0,0,1,.62-.62H37.6a.62.62,0,0,1,.62.62Z"/><path class="cls-106" d="M38.33,370.57a.62.62,0,0,1-.62.62H34.84a.62.62,0,0,1-.62-.62h0a.61.61,0,0,1,.62-.61h2.87a.61.61,0,0,1,.62.61Z"/><path class="cls-116" d="M114.25,373.54l1.09.28a6.67,6.67,0,0,1,4.49,4h-4.56a6.88,6.88,0,0,1-3.38-2.65h0l0-.06s0,0,0,0l0-.09,0-.05,0-.06,0-.07a.08.08,0,0,1,0,0,4.29,4.29,0,0,1-.4-1.24Z"/><path class="cls-121" d="M114.25,373.54l.83.21a15,15,0,0,0,1.66,4.08h-1.47a6.88,6.88,0,0,1-3.38-2.65h0l0-.06s0,0,0,0l0-.09,0-.05,0-.06,0-.07a.08.08,0,0,1,0,0,4.29,4.29,0,0,1-.4-1.24Z"/><path class="cls-122" d="M112.74,373.54a14.94,14.94,0,0,0,2.85,4.29h-.32a6.88,6.88,0,0,1-3.38-2.65h0l0-.06s0,0,0,0l0-.09,0-.05,0-.06,0-.07a.08.08,0,0,1,0,0,4.29,4.29,0,0,1-.4-1.24Z"/></g></g></g></g></svg>