<svg id="Layer_1" data-name="Layer 1" xmlns="http://www.w3.org/2000/svg" xmlns:xlink="http://www.w3.org/1999/xlink" viewBox="0 0 400 400"><defs><style>.cls-1{fill:#fff;}.cls-2{clip-path:url(#clip-path);}.cls-10,.cls-3{fill:#89532f;}.cls-3{stroke:#542800;}.cls-14,.cls-3,.cls-5{stroke-miterlimit:10;stroke-width:2px;}.cls-4{fill:#472604;}.cls-5{fill:#ffa4c9;stroke:#ff3edb;}.cls-6{fill:#fd73a7;}.cls-7{fill:#f4629d;}.cls-8{fill:#ea5498;}.cls-9{fill:#e54a98;}.cls-11{fill:#72401e;}.cls-12{fill:#592e08;}.cls-13{fill:#fd9dc0;}.cls-14{fill:#fcdfc3;stroke:#f4b67d;}.cls-15{fill:#f4ceae;}.cls-16{fill:#eac198;}.cls-17{fill:#b7399f;opacity:0.3;}</style><clipPath id="clip-path"><circle class="cls-1" cx="200" cy="200" r="196.51"/></clipPath></defs><circle class="cls-1" cx="200" cy="200" r="196.51"/><g class="cls-2"><path class="cls-3" d="M112.89,244.46s-28.3-12.53-18.18-41.64c9.57-27.52,70-23.28,70-23.28s.33-19.89,26.58-21.26,62.93,23.65,62.93,23.65,45.24,1.28,59.43,18.7,6.48,39-12.28,46.39c-3.53,1.39-6,23-12.46,24.46-38.48,8.34-122.12,17.7-161.69-1C122.14,268,116.28,247.19,112.89,244.46Z"/><path class="cls-4" d="M97.76,231.33s16.12,19.18,40.13,9.7c0,0,46.7,34.9,106,3.4,0,0,41.22,17.94,70.83-7.06,0,0-8,9.74-16.65,12.06-6,1.62-.59,36.17-37.86,52s-144.6-56.65-142.31-45.92c5.78,27.11-6-11-4.76-10.36C113.15,245.15,102.54,240,97.76,231.33Z"/><path class="cls-5" d="M113,243.73s12.61,88.83,16.55,95.45c19.12,32,127.46,32.87,151,2.49,9.26-11.93,21.21-94.82,21.21-94.82l-13.29,11.87-17-6.83-16.28,10.3-18.51-7.35-15.75,8.3-18.51-7.35-15.73,7.29-17.5-7.84L152,261.5,136,250.66l-10.65,4.87Z"/><path class="cls-6" d="M125.84,257.55s8.29,77.18,9.18,84.25c0,0,4.45,5.11,8.45,6.68l-8-95.81Z"/><path class="cls-6" d="M151.92,263.51s5.1,87.7,4.54,91.23a61.45,61.45,0,0,0,14,3.25l-2.87-100.76Z"/><path class="cls-7" d="M188.16,264.62l.43,96.18a69,69,0,0,0,13.08.72l.71-103.72Z"/><path class="cls-8" d="M221.39,265.16s-2,93.64-2.07,95.14,9,1.16,12.6-.8l4.21-102.65-14.23,7.82"/><path class="cls-9" d="M255.65,264.22l-7.57,92.53s9.09-1.36,13.17-4.82l10.18-98Z"/><path class="cls-6" d="M289.44,260.74,275,344.6a23.76,23.76,0,0,0,6.68-8.45c2.61-5.5,17.5-83.81,17.5-83.81Z"/><path class="cls-10" d="M133.27,238.22s14.86,24.91,54.89,26.4,60.26-28.89,60.26-28.89S136.81,222.93,133.27,238.22Z"/><path class="cls-11" d="M277.84,250s-23.86-3.54-38.77-15.7a8.85,8.85,0,0,0-13.39,2.35c-6.31,11-20.12,25.51-49.11,25,0,0,42.77,8.34,65.06-13.23C241.63,248.43,269.15,256.51,277.84,250Z"/><path class="cls-11" d="M163.3,256.68s-14.3-9.31-16.86-18.4c-1.34-4.78-12.71-8.39-17.06-6-7,3.82-13.74,10.18-25.84,5.29,0,0,15.75,10.72,32.65,6.72C136.19,244.29,151.88,255.53,163.3,256.68Z"/><path class="cls-12" d="M137.89,241s22.32,23.13,53.09,21.44a107.48,107.48,0,0,0,52.92-18s30.91,11.67,57.86,2.42c0,0-27.68,12-57.09.88,0,0-22.55,21-58.72,20.4-28.77-.47-49.76-23.84-49.76-23.84s-16.5,3-26.25-3.72C109.94,240.57,127.1,246.61,137.89,241Z"/><path class="cls-11" d="M284.05,249.13s27.17.45,31.86-23.79-31.22-41.48-31.22-41.48l-36,40.37s34.58-15.16,44.3,2.16S284.05,249.13,284.05,249.13Z"/><path class="cls-6" d="M110,125.29a5.61,5.61,0,1,0-5.7,5.53A5.6,5.6,0,0,0,110,125.29Z"/><path class="cls-13" d="M101.29,121a5,5,0,0,0-1.71,4.63c.44,2.15,4,.69,4.82-2.47.07-.24-.09-2.39-.68-2.6A2.73,2.73,0,0,0,101.29,121Z"/><path class="cls-1" d="M101.84,121.39a1.91,1.91,0,0,0-1.47,1.25c-.26,1.06.9,1.28,1.83.12C102.87,121.94,102.4,121.26,101.84,121.39Z"/><path class="cls-6" d="M292.11,95.28a5.61,5.61,0,1,0-5.7,5.53A5.59,5.59,0,0,0,292.11,95.28Z"/><path class="cls-13" d="M283.43,91a5,5,0,0,0-1.71,4.62c.46,2.16,4,.7,4.82-2.43.09-.29-.11-2.4-.66-2.64A3,3,0,0,0,283.43,91Z"/><path class="cls-1" d="M284,91.39a1.94,1.94,0,0,0-1.46,1.27c-.27,1,.91,1.24,1.85.12C285,92,284.54,91.24,284,91.39Z"/><path class="cls-14" d="M241.46,37.58a58.49,58.49,0,0,0-39.79.56c-21.19,8.13-48.4,25.86-56.06,65.71,0,0-30.41-1.71-44.93,28.34s-6.83,59.25,16.33,73,66.52,10.79,79.45,7.36c0,0,18.53,11.21,34.9,12.7s31.57.53,34-4.29,3.77-15.68,14.33-17.95c0,0,15.06,9.95,19.79,6.41s3.83-19.33,6.25-24.13,16.54-9.42,12.05-20.42-21.92-19.74-21.92-19.74,11.65-18.34,6.36-30.18c-18.07-40.29-77.82-34-81.06-51S230.94,37.41,241.46,37.58Z"/><path class="cls-15" d="M222.72,38.49S206.16,49.12,206,57.58s14.68,33,43.66,49.2a167.81,167.81,0,0,1,46.16,38.31S261.06,126.35,227.12,127c0,0-6.89-10.94-34.69-24.81C177.34,94.69,175.69,53.47,222.72,38.49Z"/><path class="cls-15" d="M222.64,43.34s-11.84,8.28-9.66,18,15.92,28.14,29.86,34.43,46.33,28.63,54.24,45.72c0,0,6.7-16.79.42-25.45C281.47,94,197.42,82.9,222.64,43.34Z"/><path class="cls-15" d="M207.26,125.46s-9.23-8.63-33.66-17.52c-22-8-12.24-37.77,11.54-60.38,0,0-67.46,47.36-16.69,89.39,0,0,33.59,22.32,88.41,30.52a245.77,245.77,0,0,1,46.61,11.68s-25.9-12.22-51.49-17c-26.56-4.93-57.67-13.66-74.11-28.74C177.87,133.46,194.39,125.25,207.26,125.46Z"/><path class="cls-15" d="M147.78,113.58s-5.07,19.43,14.69,31.74c35.9,22.4,126.91,37.24,136,55.56,0,0-35-5.43-81.71-11S96.93,146.66,147.78,113.58Z"/><path class="cls-15" d="M107.57,139.58s-1.66,30.26,27.37,42.85,52.25,23.88,56.86,28.8C191.8,211.23,75.82,220.23,107.57,139.58Z"/><path class="cls-16" d="M210.94,43.14s-22.47,15.39-23.72,20.21S180,86.13,185.51,96c3.4,6.11,28.93,18.63,41.61,31a319.43,319.43,0,0,0-34.59-30.86C181.85,87.87,187.32,57.27,210.94,43.14Z"/><path class="cls-16" d="M306.27,151.32s-46.46-20.14-61.63-22.81-44.33-8-69.17,8.55c0,0-27.85-13.79-25.09-39.19,0,0,.81,21.82,39.35,26.09C189.73,124,267,119.18,306.27,151.32Z"/><path class="cls-16" d="M222.64,43.34s-9.46,5.9-9.58,13.17,3.16,21.84,15.86,31.75,45.21,26.19,56.7,38.49a368.57,368.57,0,0,0-48.53-37.14C222,79.83,207.09,63.67,222.64,43.34Z"/><path class="cls-16" d="M153.61,114.89s8.68,41.34,106.79,51.43C260.4,166.32,190.29,161.54,153.61,114.89Z"/><path class="cls-16" d="M147.78,113.58s-2.87,14.63,6.62,24.35c26.46,27.08,102.4,33.18,134.81,55.52,0,0-17.43-7.56-54.73-16.65C204.11,169.4,116.5,166.37,147.78,113.58Z"/><path class="cls-16" d="M107.85,122.61s-6.38,32.61,12.05,49.89,60.4,26.43,76.56,40c0,0-25.58-10.11-50-19S90.55,178.06,107.85,122.61Z"/><path class="cls-1" d="M201.67,38.14s-28.36,16.51-34.54,37S162,105.33,188.73,113c0,0-25.54-11.32-19.36-31.82S186.29,48.79,201.67,38.14Z"/><path class="cls-1" d="M224.3,85.77s14.95,14.77,25.38,21S274,120.52,274,120.52,239.35,94.49,224.3,85.77Z"/><path class="cls-1" d="M186.09,132.4s20.1-14.22,63.17-.17C249.26,132.23,231.84,124.66,186.09,132.4Z"/><path class="cls-1" d="M150,119.67s-3.9,24.16,46.21,35.9C196.23,155.57,162.45,146.52,150,119.67Z"/><path class="cls-1" d="M126.72,113.23s-11.81,7.08-13.1,14.33-11,30.1,16.78,46.31A362,362,0,0,0,182.65,199s-61.6-25.25-66-43.49C110.78,130.93,126.72,113.23,126.72,113.23Z"/><path class="cls-6" d="M315.33,154a5.61,5.61,0,1,0-5.71,5.52A5.62,5.62,0,0,0,315.33,154Z"/><path class="cls-13" d="M306.65,149.7a5,5,0,0,0-1.71,4.66c.44,2.14,4,.7,4.8-2.46.07-.27-.09-2.4-.66-2.64A2.9,2.9,0,0,0,306.65,149.7Z"/><path class="cls-1" d="M307.18,150.13a2,2,0,0,0-1.47,1.26c-.24,1,.92,1.26,1.86.11C308.21,150.72,307.75,150,307.18,150.13Z"/><path class="cls-6" d="M98.09,166.48A5.61,5.61,0,1,0,92.41,172,5.6,5.6,0,0,0,98.09,166.48Z"/><path class="cls-13" d="M89.41,162.16a5,5,0,0,0-1.72,4.62c.46,2.17,4,.7,4.84-2.45.08-.26-.11-2.41-.68-2.62A2.88,2.88,0,0,0,89.41,162.16Z"/><path class="cls-1" d="M90,162.59a1.83,1.83,0,0,0-1.46,1.23c-.28,1.07.9,1.28,1.84.14C91,163.14,90.52,162.43,90,162.59Z"/><path class="cls-6" d="M153,174.92a5.6,5.6,0,1,0-5.7,5.52A5.61,5.61,0,0,0,153,174.92Z"/><path class="cls-13" d="M144.34,170.58a5,5,0,0,0-1.71,4.62c.44,2.16,4,.72,4.83-2.43.06-.26-.11-2.41-.69-2.63A2.87,2.87,0,0,0,144.34,170.58Z"/><path class="cls-1" d="M144.89,171a1.91,1.91,0,0,0-1.47,1.26c-.26,1,.9,1.26,1.84.1C145.92,171.58,145.45,170.86,144.89,171Z"/><path class="cls-6" d="M163.75,123.46a5.6,5.6,0,1,0-5.69,5.5A5.59,5.59,0,0,0,163.75,123.46Z"/><path class="cls-13" d="M155.08,119.15a4.9,4.9,0,0,0-1.71,4.59c.43,2.18,4,.72,4.82-2.44.07-.25-.11-2.4-.69-2.63A2.8,2.8,0,0,0,155.08,119.15Z"/><path class="cls-1" d="M155.62,119.55a2,2,0,0,0-1.48,1.26c-.25,1,.91,1.27,1.86.11C156.65,120.12,156.2,119.42,155.62,119.55Z"/><path class="cls-6" d="M196.41,159.64a5.6,5.6,0,1,0-5.69,5.53A5.62,5.62,0,0,0,196.41,159.64Z"/><path class="cls-13" d="M187.73,155.32A5.05,5.05,0,0,0,186,160c.45,2.15,4,.72,4.83-2.44.07-.28-.1-2.43-.68-2.64A2.87,2.87,0,0,0,187.73,155.32Z"/><path class="cls-1" d="M188.27,155.76a2,2,0,0,0-1.48,1.24c-.24,1,.92,1.27,1.86.12C189.3,156.34,188.83,155.59,188.27,155.76Z"/><path class="cls-6" d="M138.39,107.78a5.61,5.61,0,1,0-5.69,5.53A5.61,5.61,0,0,0,138.39,107.78Z"/><path class="cls-13" d="M129.7,103.46a5,5,0,0,0-1.71,4.63c.47,2.16,4,.69,4.84-2.44.07-.28-.12-2.43-.67-2.64A3,3,0,0,0,129.7,103.46Z"/><path class="cls-1" d="M130.25,103.9a1.87,1.87,0,0,0-1.46,1.25c-.26,1,.91,1.25,1.84.11C131.29,104.45,130.81,103.74,130.25,103.9Z"/><path class="cls-6" d="M284.69,183.86a5.6,5.6,0,1,0-5.68,5.51A5.59,5.59,0,0,0,284.69,183.86Z"/><path class="cls-13" d="M276,179.52a5,5,0,0,0-1.72,4.65c.45,2.15,4,.7,4.83-2.47.07-.23-.12-2.4-.69-2.63A3,3,0,0,0,276,179.52Z"/><path class="cls-1" d="M276.56,180a2,2,0,0,0-1.48,1.27c-.25,1,.9,1.27,1.87.11C277.59,180.53,277.14,179.8,276.56,180Z"/><path class="cls-6" d="M250,146.1a5.6,5.6,0,1,0-5.69,5.52A5.62,5.62,0,0,0,250,146.1Z"/><path class="cls-13" d="M241.35,141.76a5,5,0,0,0-1.71,4.66c.45,2.15,4,.7,4.82-2.45.06-.27-.1-2.41-.68-2.62A2.88,2.88,0,0,0,241.35,141.76Z"/><path class="cls-1" d="M241.89,142.2a2,2,0,0,0-1.48,1.25c-.24,1.05.92,1.26,1.86.14C242.92,142.78,242.45,142,241.89,142.2Z"/><path class="cls-6" d="M284.44,118.14a5.61,5.61,0,1,0-5.71,5.51A5.63,5.63,0,0,0,284.44,118.14Z"/><path class="cls-13" d="M275.74,113.82a5,5,0,0,0-1.7,4.62c.45,2.16,4,.69,4.83-2.44.07-.28-.1-2.43-.68-2.62A2.83,2.83,0,0,0,275.74,113.82Z"/><path class="cls-1" d="M276.3,114.24a1.91,1.91,0,0,0-1.47,1.27c-.27,1,.9,1.24,1.83.1C277.33,114.82,276.86,114.1,276.3,114.24Z"/><path class="cls-6" d="M203.17,125.45a5.6,5.6,0,1,0-5.69,5.49A5.6,5.6,0,0,0,203.17,125.45Z"/><path class="cls-13" d="M194.51,121.1a5,5,0,0,0-1.73,4.63c.44,2.15,4,.71,4.82-2.43.07-.27-.11-2.4-.68-2.64A2.89,2.89,0,0,0,194.51,121.1Z"/><path class="cls-1" d="M195,121.53a1.94,1.94,0,0,0-1.46,1.26c-.26,1,.9,1.25,1.86.12C196.07,122.1,195.62,121.37,195,121.53Z"/><path class="cls-6" d="M229.44,108.34a5.6,5.6,0,1,0-5.69,5.5A5.59,5.59,0,0,0,229.44,108.34Z"/><path class="cls-13" d="M220.77,104a4.9,4.9,0,0,0-1.71,4.59c.43,2.18,4,.72,4.82-2.44.07-.25-.11-2.4-.69-2.63A2.8,2.8,0,0,0,220.77,104Z"/><path class="cls-1" d="M221.31,104.43a2,2,0,0,0-1.48,1.26c-.25,1,.91,1.27,1.86.11C222.34,105,221.89,104.3,221.31,104.43Z"/><path class="cls-6" d="M264.43,82.21a5.6,5.6,0,1,0-5.68,5.51A5.59,5.59,0,0,0,264.43,82.21Z"/><path class="cls-13" d="M255.76,77.91a4.9,4.9,0,0,0-1.71,4.58c.44,2.19,4,.72,4.82-2.43.07-.26-.11-2.4-.69-2.64A2.79,2.79,0,0,0,255.76,77.91Z"/><path class="cls-1" d="M256.3,78.3a2,2,0,0,0-1.48,1.27c-.25,1,.92,1.27,1.87.1C257.33,78.88,256.89,78.17,256.3,78.3Z"/><path class="cls-6" d="M188.93,92.65a5.6,5.6,0,1,0-5.68,5.51A5.59,5.59,0,0,0,188.93,92.65Z"/><path class="cls-13" d="M180.26,88.35a4.9,4.9,0,0,0-1.71,4.58c.44,2.18,4,.72,4.82-2.43.07-.26-.11-2.41-.69-2.64A2.78,2.78,0,0,0,180.26,88.35Z"/><path class="cls-1" d="M180.8,88.74A2,2,0,0,0,179.32,90c-.25,1,.91,1.26,1.87.1C181.83,89.32,181.39,88.61,180.8,88.74Z"/><path class="cls-6" d="M223.82,72.87a5.61,5.61,0,1,0-5.69,5.51A5.59,5.59,0,0,0,223.82,72.87Z"/><path class="cls-13" d="M215.14,68.57a4.9,4.9,0,0,0-1.71,4.58c.44,2.18,4,.72,4.83-2.43.06-.26-.12-2.41-.7-2.64A2.79,2.79,0,0,0,215.14,68.57Z"/><path class="cls-1" d="M215.68,69a2,2,0,0,0-1.48,1.27c-.24,1,.92,1.26,1.87.1C216.72,69.54,216.27,68.83,215.68,69Z"/><path class="cls-6" d="M184.79,54.44a5.6,5.6,0,1,0-5.68,5.5A5.58,5.58,0,0,0,184.79,54.44Z"/><path class="cls-13" d="M176.12,50.13a4.92,4.92,0,0,0-1.71,4.59c.44,2.18,4,.72,4.82-2.43.07-.26-.11-2.41-.69-2.64A2.81,2.81,0,0,0,176.12,50.13Z"/><path class="cls-1" d="M176.66,50.53a2,2,0,0,0-1.48,1.27c-.25,1,.92,1.26,1.87.1C177.7,51.1,177.25,50.4,176.66,50.53Z"/><path class="cls-6" d="M218.58,35.1a5.61,5.61,0,1,0-5.69,5.5A5.59,5.59,0,0,0,218.58,35.1Z"/><path class="cls-13" d="M209.9,30.79a4.92,4.92,0,0,0-1.71,4.59c.44,2.18,4,.72,4.83-2.44.06-.25-.11-2.4-.7-2.64A2.85,2.85,0,0,0,209.9,30.79Z"/><path class="cls-1" d="M210.44,31.18A2,2,0,0,0,209,32.45c-.25,1,.91,1.27,1.86.1C211.48,31.76,211,31.05,210.44,31.18Z"/><path class="cls-17" d="M114.42,246.8s10.87,68,15.48,90.5c.65,3.16,6.77,10.49,15.54,14.63,10.87,5.13,48.49,14.47,64.19,10.59,0,0-43.95-18-63.87-47.61S114.42,246.8,114.42,246.8Z"/></g></svg>