<?xml version="1.0" encoding="utf-8"?>
<!-- Generator: Adobe Illustrator 25.2.3, SVG Export Plug-In . SVG Version: 6.00 Build 0)  -->
<svg version="1.1" id="Layer_1" xmlns="http://www.w3.org/2000/svg" xmlns:xlink="http://www.w3.org/1999/xlink" x="0px" y="0px"
	 viewBox="0 0 550 400" style="enable-background:new 0 0 550 400;" xml:space="preserve">
<style type="text/css">
	.st0{fill:#FF0B12;}
	.st1{fill:#FF9515;}
	.st2{fill:#FDF200;}
	.st3{fill:#92D638;}
	.st4{fill:#10B4F8;}
	.st5{fill:#23329A;}
	.st6{fill:#9E1C9C;}
	.st7{fill:#E3F9FE;}
	.st8{fill:#FFFEF9;}
	.st9{fill:#A8E1FF;}
</style>
<path class="st0" d="M272.1,48.6c118.6,0,214.8,96.1,215,214.7h23.6C510.6,131.6,403.8,25,272.1,25S33.7,131.6,33.5,263.3h23.6
	C57.3,144.7,153.5,48.6,272.1,48.6z"/>
<path class="st1" d="M272.1,48.6c-118.6,0-214.8,96.1-215,214.7h24.8c0.2-104.9,85.3-190,190.2-190s190.1,85,190.2,190h24.7
	C487,144.7,390.8,48.6,272.1,48.6z"/>
<path class="st2" d="M272.1,96.7c92,0,166.7,74.5,166.9,166.6h23.4c-0.1-104.9-85.3-190-190.2-190s-190.1,85-190.2,190h23.4
	C105.4,171.2,180.1,96.7,272.1,96.7z"/>
<path class="st3" d="M272.1,96.7c-92.1,0-166.7,74.5-166.9,166.6h24.2c0-78.8,63.9-142.6,142.6-142.6s142.6,63.9,142.6,142.6H439
	C438.8,171.3,364.2,96.7,272.1,96.7z"/>
<path class="st4" d="M272.1,145.7c65,0,117.7,52.6,117.9,117.6h24.8c0-78.8-63.9-142.6-142.6-142.6c-78.8,0-142.6,63.9-142.6,142.6
	h24.8C154.4,198.3,207.1,145.7,272.1,145.7z"/>
<path class="st5" d="M272.1,145.7c-65,0-117.7,52.6-117.9,117.6h23.6c0-52.1,42.3-94.3,94.3-94.2c52,0,94.2,42.2,94.2,94.2H390
	C389.8,198.3,337.1,145.7,272.1,145.7z"/>
<path class="st6" d="M272.1,193.2c38.8,0,70.2,31.3,70.4,70.1h23.9c0-52.1-42.2-94.3-94.3-94.3c-52.1,0-94.3,42.2-94.3,94.3h23.9
	C201.9,224.6,233.4,193.2,272.1,193.2z"/>
<path class="st7" d="M526.1,281c-37.4,5.2-75.1,8.9-113,9.2c-22.9,0.3-45.8-0.9-68.6-3.6c-22.7-2.6-45.6-3.9-68.4-4
	c-47.8-0.5-95.9,1.9-143.5-3.7C95.3,274.5,57.4,270,21,260.2C10,267,3.3,279,3.3,292c0,0.5,0,1,0,1.5c0,0.2,0,0.4,0,0.6
	c0,20.8,16.2,38.1,37,39.4c9.7,24.2,37.2,36,61.4,26.2c7.4-3,13.9-7.7,18.9-13.9c14.5,19.6,42.2,23.7,61.7,9.1
	c2.4-1.8,4.7-3.9,6.7-6.1c10.6,6.5,23.9,6.8,34.8,0.7c11.1,13.2,30.3,16.2,44.9,6.8c18.4,22,51.1,24.9,73.1,6.6
	c3.5-2.9,6.7-6.3,9.3-10.1c13.2,10.1,31.9,8.3,43.1-4c9.8,20.2,34.2,28.7,54.4,18.9c5.6-2.7,10.5-6.6,14.3-11.5
	c15.8,12.7,38.9,10.1,51.6-5.8c4.5-5.7,7.3-12.6,7.9-19.8c13.5-0.1,24.4-11,24.4-24.5c0-0.6,0-0.9,0-1.2s0-0.6,0-1
	C546.7,292.2,537.8,282.3,526.1,281z"/>
<path class="st8" d="M81.5,286.4c0-20.4-16.6-37-37-37s-37,16.6-37,37s16.6,37,37,37l0,0C64.9,323.4,81.5,306.9,81.5,286.4z"/>
<path class="st8" d="M99.5,264.8c0-19.6-15.8-35.4-35.4-35.4s-35.4,15.8-35.4,35.4s15.8,35.4,35.4,35.4c0,0,0,0,0,0
	C83.7,300.2,99.5,284.3,99.5,264.8C99.5,264.8,99.5,264.8,99.5,264.8z"/>
<circle class="st8" cx="208.5" cy="299" r="30.5"/>
<path class="st8" d="M244.8,276.2c0-18.6-15.1-33.7-33.6-33.7s-33.7,15.1-33.7,33.6c0,18.6,15.1,33.7,33.6,33.7h0
	C229.7,309.9,244.8,294.8,244.8,276.2z"/>
<path class="st8" d="M292,262.7c0-18.6-15.1-33.7-33.6-33.7s-33.7,15.1-33.7,33.7c0,18.6,15.1,33.6,33.6,33.6
	C276.9,296.3,292,281.3,292,262.7C292,262.7,292,262.7,292,262.7z"/>
<path class="st8" d="M343.7,273.1c0-15.8-12.8-28.5-28.5-28.5c-15.8,0-28.5,12.8-28.5,28.5c0,15.7,12.8,28.5,28.5,28.5
	C330.9,301.6,343.7,288.9,343.7,273.1C343.7,273.1,343.7,273.1,343.7,273.1z"/>
<path class="st8" d="M402.1,273.1c0-18.9-15.3-34.2-34.2-34.2c-18.9,0-34.2,15.3-34.2,34.2s15.3,34.2,34.2,34.2
	C386.8,307.3,402.1,292,402.1,273.1L402.1,273.1z"/>
<path class="st8" d="M454.8,250c0-18.9-15.3-34.2-34.2-34.2c-18.9,0-34.2,15.3-34.2,34.2s15.3,34.2,34.2,34.2
	C439.5,284.2,454.8,268.9,454.8,250C454.8,250,454.8,250,454.8,250z"/>
<path class="st8" d="M499.2,262.7c0-15.3-12.4-27.6-27.6-27.6c-15.3,0-27.6,12.4-27.6,27.6c0,15.3,12.4,27.6,27.6,27.6c0,0,0,0,0,0
	C486.8,290.3,499.2,277.9,499.2,262.7L499.2,262.7z"/>
<path class="st8" d="M518.8,274.1c0-10.8-8.8-19.6-19.6-19.6c-10.8,0-19.6,8.8-19.6,19.6c0,10.8,8.8,19.6,19.6,19.6c0,0,0,0,0,0
	C510,293.7,518.8,284.9,518.8,274.1C518.8,274.1,518.8,274.1,518.8,274.1z"/>
<path class="st8" d="M543.4,298.2c0-12.6-10.2-22.8-22.8-22.8c-12.6,0-22.8,10.2-22.8,22.8c0,12.6,10.2,22.8,22.8,22.8c0,0,0,0,0,0
	C533.2,321,543.4,310.8,543.4,298.2z"/>
<path class="st8" d="M197.4,299c0-21.7-17.6-39.2-39.2-39.2c-21.7,0-39.2,17.6-39.2,39.2c0,21.7,17.6,39.2,39.2,39.2h0
	C179.9,338.2,197.4,320.7,197.4,299C197.4,299,197.4,299,197.4,299z"/>
<circle class="st8" cx="139.7" cy="264.8" r="49"/>
<path class="st9" d="M48.5,282c-7.7,0.3-15.3,1.1-22.9,2.6c-6,1.2-11.9,2.8-18,3.4c0,0.2,0,0.4,0,0.6c0,21.5,17.3,38.9,38.8,39
	c21.5,0,38.9-17.3,39-38.8c0-2.4-0.2-4.8-0.6-7.2C72.6,282,60.5,281.4,48.5,282z"/>
<path class="st7" d="M103.4,279.4c0-21.7-17.6-39.3-39.3-39.3s-39.3,17.6-39.3,39.3c0,21.7,17.6,39.3,39.3,39.3c0,0,0,0,0,0
	C85.8,318.7,103.4,301.1,103.4,279.4C103.4,279.4,103.4,279.4,103.4,279.4z"/>
<path class="st7" d="M248.4,290.9c0-20.6-16.7-37.3-37.4-37.3s-37.3,16.7-37.3,37.4c0,20.6,16.7,37.3,37.4,37.3
	S248.4,311.5,248.4,290.9L248.4,290.9z"/>
<path class="st7" d="M295.7,277.3c0-20.6-16.7-37.4-37.3-37.4S221,256.7,221,277.3c0,20.6,16.7,37.4,37.3,37.4
	S295.7,297.9,295.7,277.3C295.7,277.3,295.7,277.3,295.7,277.3z"/>
<circle class="st7" cx="367.9" cy="287.7" r="38"/>
<path class="st7" d="M458.6,264.6c0-21-17-38-38-38s-38,17-38,38s17,38,38,38l0,0C441.5,302.6,458.6,285.6,458.6,264.6z"/>
<path class="st7" d="M502.2,277.3c0-16.9-13.8-30.6-30.7-30.6c-16.9,0-30.6,13.8-30.6,30.7c0,16.9,13.7,30.6,30.7,30.6
	C488.5,308,502.2,294.3,502.2,277.3C502.2,277.3,502.2,277.3,502.2,277.3z"/>
<path class="st7" d="M520.9,288.8c0-12-9.7-21.7-21.7-21.7c-12,0-21.7,9.7-21.7,21.7c0,12,9.7,21.7,21.7,21.7c0,0,0,0,0,0
	C511.2,310.5,520.9,300.8,520.9,288.8C520.9,288.8,520.9,288.8,520.9,288.8z"/>
<path class="st9" d="M533.6,300.8c-4.8-0.1-9.5-0.9-14.3-1c-8.1-0.2-16-1-24.1-1.7c-0.1,0.7-0.1,1.5-0.1,2.2
	c0,13.3,10.8,24.2,24.2,24.2c13.3,0,24.2-10.8,24.2-24.2C540.2,300.5,536.9,300.9,533.6,300.8z"/>
<path class="st7" d="M194.2,279.4c0-30.1-24.4-54.4-54.4-54.4s-54.4,24.4-54.4,54.4c0,30.1,24.4,54.4,54.4,54.4h0
	C169.8,333.9,194.2,309.5,194.2,279.4z"/>
<path class="st7" d="M346.8,287.8c0-17.5-14.2-31.7-31.7-31.7s-31.7,14.2-31.7,31.7c0,17.5,14.2,31.7,31.7,31.7
	S346.8,305.2,346.8,287.8L346.8,287.8z"/>
<path class="st9" d="M133.9,310c0-25.7-20.9-46.6-46.6-46.6S40.7,284.3,40.7,310c0,25.7,20.9,46.6,46.6,46.6c0,0,0,0,0,0
	C113,356.6,133.9,335.7,133.9,310C133.9,310,133.9,310,133.9,310z"/>
<path class="st9" d="M469.3,324.9c0-22.2-18-40.2-40.2-40.2s-40.2,18-40.2,40.2c0,22.2,18,40.2,40.2,40.2c0,0,0,0,0,0
	C451.3,365.1,469.3,347.1,469.3,324.9z"/>
<path class="st9" d="M284.9,321.4c0-18.7-15.2-33.9-33.9-33.9c-18.7,0-33.9,15.2-33.9,33.9c0,18.7,15.2,33.9,33.9,33.9c0,0,0,0,0,0
	C269.7,355.3,284.9,340.1,284.9,321.4z"/>
<path class="st9" d="M242.4,313.6c0-18.7-15.2-33.9-33.9-33.9c-18.7,0-33.9,15.2-33.9,33.9c0,18.7,15.2,33.9,33.9,33.9
	C227.3,347.5,242.4,332.3,242.4,313.6C242.4,313.6,242.4,313.6,242.4,313.6z"/>
<path class="st9" d="M201.7,313.6c0-24-19.5-43.5-43.5-43.5s-43.5,19.5-43.5,43.5s19.5,43.5,43.5,43.5c0,0,0,0,0,0
	C182.2,357.1,201.7,337.6,201.7,313.6C201.7,313.6,201.7,313.6,201.7,313.6z"/>
<path class="st9" d="M401.1,321.4c0-17.4-14.1-31.5-31.5-31.5c-17.4,0-31.5,14.1-31.5,31.5c0,17.4,14.1,31.5,31.5,31.5c0,0,0,0,0,0
	C387,352.9,401.1,338.8,401.1,321.4C401.1,321.4,401.1,321.4,401.1,321.4z"/>
<path class="st9" d="M359.8,317.1c0-28.3-22.9-51.2-51.2-51.2s-51.2,22.9-51.2,51.2s22.9,51.2,51.2,51.2c0,0,0,0,0,0
	C336.8,368.3,359.8,345.4,359.8,317.1z"/>
<path class="st7" d="M133.9,293.9c0-25.7-20.8-46.6-46.6-46.6c-25.7,0-46.6,20.8-46.6,46.6c0,25.7,20.8,46.6,46.6,46.6c0,0,0,0,0,0
	C113,340.4,133.9,319.6,133.9,293.9z"/>
<path class="st7" d="M485.8,293c0-26.7-21.7-48.4-48.4-48.4S389,266.2,389,293c0,26.7,21.7,48.4,48.4,48.4c0,0,0,0,0,0
	C464.1,341.4,485.8,319.7,485.8,293z"/>
<path class="st7" d="M267.2,291.2c0-24.1-19.6-43.7-43.7-43.7c-24.1,0-43.7,19.6-43.7,43.7c0,24.1,19.6,43.7,43.7,43.7
	S267.2,315.4,267.2,291.2L267.2,291.2z"/>
<path class="st9" d="M159.5,278.1h-53.4c0.1,29.1,23.8,52.6,52.9,52.6h0.5L159.5,278.1z"/>
<path class="st7" d="M105.4,268.8c0.4,29.2,24.4,52.5,53.6,52.1c28.6-0.4,51.7-23.5,52.1-52.1H105.4z"/>
<path class="st7" d="M401.1,305.3c0-17.4-14.1-31.5-31.5-31.5c-17.4,0-31.5,14.1-31.5,31.5c0,17.4,14.1,31.5,31.5,31.5c0,0,0,0,0,0
	C387,336.8,401.1,322.7,401.1,305.3L401.1,305.3z"/>
<path class="st7" d="M345.1,294.3c0-2.9,0.2-4.7,1.8-7.2c1.2-1.9,2.9-3.7,2.4-6.1c-0.9-4.1-8-6.9-11.1-8.7
	c-3.9-2.1-8.1-3.7-12.4-4.7c-2.6-0.8-7.8-3.5-9.7-0.8c-1.5,2.1-1,4.9-2,7.2s-3.6,3.5-5.4,5.3c-8.3,8.3-8.3,21.8,0,30.2
	s21.8,8.3,30.2,0C342.8,305.4,345.1,299.9,345.1,294.3L345.1,294.3z"/>
<path class="st7" d="M327.6,284c0-11.8-9.5-21.3-21.3-21.4s-21.3,9.5-21.4,21.3c0,11.8,9.5,21.3,21.3,21.4c0,0,0,0,0,0
	C318,305.3,327.6,295.8,327.6,284z"/>
<path class="st7" d="M308.4,296.3c0-15.8-12.8-28.7-28.7-28.7S251,280.5,251,296.3c0,15.8,12.8,28.7,28.7,28.7c0,0,0,0,0,0
	C295.5,325,308.4,312.2,308.4,296.3z"/>
<path class="st8" d="M211.1,253.5c14.3,0,27.3,8.1,33.6,21c-1-18.6-16.8-32.8-35.3-31.9c-17.2,0.9-31,14.6-31.9,31.9
	C183.8,261.7,196.8,253.5,211.1,253.5z"/>
<path class="st8" d="M285.9,263.5c8.7,0,16.6,4.9,20.3,12.7c-0.6-11.2-10.1-19.9-21.3-19.3c-10.5,0.5-18.8,8.9-19.3,19.3
	C269.3,268.4,277.2,263.5,285.9,263.5z"/>
<path class="st8" d="M471.6,246.7c11.7,0,22.4,6.8,27.5,17.3c0-0.4,0.1-0.9,0.1-1.3c-0.3-15.3-12.9-27.4-28.1-27.1
	c-14.8,0.3-26.8,12.2-27.1,27.1c0,0.4,0,0.9,0.1,1.3C449.1,253.4,459.9,246.7,471.6,246.7z"/>
<path class="st8" d="M367.9,249.8c14.5,0,27.8,8.3,34.1,21.4c-1.1-18.9-17.3-33.2-36.2-32.1c-17.3,1-31.1,14.8-32.1,32.1
	C340.1,258.1,353.4,249.8,367.9,249.8z"/>
<path class="st9" d="M183.5,311.9c-5.9-1.1-14.4-8-19.2-13.9c0.5,1,1,2,1.6,2.9c3.9,6.2,12.3,14.4,17.9,15.6
	c12.9,3.1,24.5-5.5,29.5-13.9C206.4,309.1,195.4,314.3,183.5,311.9z"/>
<path class="st9" d="M390.1,319.1c-6.3-1.2-15.4-8.5-20.6-14.9c0.5,1.1,1.1,2.1,1.7,3.1c4.2,6.7,13.2,15.4,19.2,16.7
	c13.8,3.3,26.2-5.9,31.6-14.9C414.7,316.1,402.9,321.7,390.1,319.1z"/>
<path class="st9" d="M519.5,321.4c0-20-16.2-36.2-36.2-36.2s-36.2,16.2-36.2,36.2c0,20,16.2,36.2,36.2,36.2
	C503.3,357.6,519.5,341.4,519.5,321.4z"/>
<path class="st7" d="M519.5,305.3c0-20-16.2-36.2-36.2-36.2s-36.2,16.2-36.2,36.2s16.2,36.2,36.2,36.2c0,0,0,0,0,0
	C503.3,341.5,519.5,325.3,519.5,305.3z"/>
<path class="st8" d="M458.6,297.1c8.7,0,16.6,4.9,20.3,12.7c-0.6-11.2-10.1-19.9-21.3-19.3c-10.5,0.5-18.8,8.9-19.3,19.3
	C442,302.1,449.9,297.1,458.6,297.1z"/>
<path class="st7" d="M543.4,300.1c0-10.6-8.6-19.2-19.2-19.2c-10.6,0-19.2,8.6-19.2,19.2s8.6,19.2,19.2,19.2c0,0,0,0,0,0
	C534.9,319.3,543.4,310.7,543.4,300.1C543.4,300.1,543.4,300.1,543.4,300.1z"/>
<path class="st8" d="M64.1,240.1c15,0,28.7,8.5,35.3,22C98,242.7,81,228,61.5,229.5c-17.5,1.3-31.4,15.2-32.7,32.7
	C35.4,248.7,49.1,240.1,64.1,240.1z"/>
<path class="st7" d="M64.1,288.5c0-15.6-12.6-28.2-28.2-28.2c-15.6,0-28.2,12.6-28.2,28.2c0,15.6,12.6,28.2,28.2,28.2
	C51.5,316.7,64.1,304.1,64.1,288.5z"/>
<path class="st8" d="M72.8,273.2c8.7,0,16.6,4.9,20.3,12.7C92.6,274.7,83,266,71.8,266.6c-10.5,0.5-18.8,8.9-19.3,19.3
	C56.2,278.1,64.1,273.2,72.8,273.2z"/>
</svg>
