<svg id="Layer_1" data-name="Layer 1" xmlns="http://www.w3.org/2000/svg" xmlns:xlink="http://www.w3.org/1999/xlink" viewBox="0 0 400 400"><defs><style>.cls-1,.cls-3{fill:#cbfdff;}.cls-1,.cls-6{stroke:#2ca0ce;stroke-width:3px;}.cls-1,.cls-10,.cls-11,.cls-13,.cls-14,.cls-5,.cls-6,.cls-8,.cls-9{stroke-miterlimit:10;}.cls-2{fill:#fff;}.cls-4{clip-path:url(#clip-path);}.cls-5{fill:#fecda2;stroke:#c17e42;}.cls-6{fill:none;}.cls-7{clip-path:url(#clip-path-2);}.cls-8{fill:#f9d1c6;stroke:#897f33;}.cls-9{fill:#4d6fdb;stroke:#562f15;}.cls-10{fill:#195954;}.cls-10,.cls-11{stroke:#231811;}.cls-11{fill:#0f4441;}.cls-12{clip-path:url(#clip-path-3);}.cls-13{fill:#dd5516;stroke:#c6400c;}.cls-14{fill:#f3ce96;stroke:#a58356;}.cls-15{fill:#f9d89e;}.cls-16{fill:#77361b;}.cls-17{fill:#ef895c;}.cls-18{fill:#796753;}.cls-19{fill:#897764;}.cls-20{fill:#beac9f;}.cls-21{fill:#a49180;}.cls-22{fill:#aa9787;}.cls-23{fill:#f1b81f;}.cls-24{fill:#e3a111;}.cls-25{fill:#b33c10;}</style><clipPath id="clip-path"><rect class="cls-1" x="12.5" y="-410" width="275" height="330" rx="25"/></clipPath><clipPath id="clip-path-2"><circle class="cls-2" cx="469.97" cy="-270.08" r="140.36"/></clipPath><clipPath id="clip-path-3"><circle class="cls-2" cx="199.96" cy="199.88" r="196.51"/></clipPath></defs><rect class="cls-3" x="12.5" y="-410" width="275" height="330" rx="25"/><g class="cls-4"><path class="cls-5" d="M100.72-291.37s11.06-17.43,33.16-12.76c0,0,27.21-8.92,37.41,1.28a100.77,100.77,0,0,1,36.14,11.48c1.83,1,7.11,2.14,12.66,4.77a24,24,0,0,1,13.27,25.88c-4,22.24-14.73,74-31.05,87.77a16.19,16.19,0,0,0-5.89,12.39l.8,151.88s-54,25.08-102,0l19.61-151.6a6,6,0,0,0-4.47-6.63c-9.33-2.35-27.89-10.25-27.89-36,0-2.13-20-64.12-40.41-67.1,0,0-14.43-9.25,5.55-12.65S83-260.52,83-260.52,98.83-231.77,100.3-245C100.72-248.86,100.72-291.37,100.72-291.37Z"/></g><rect class="cls-6" x="12.5" y="-410" width="275" height="330" rx="25"/><circle class="cls-2" cx="469.97" cy="-270.08" r="140.36"/><g class="cls-7"><path class="cls-8" d="M406.58,11.72S407,19.08,400.92,40c0,0,2.42,9.09-8.46,10.6S380.12,33.1,380.12,33.1L391.34-.69S408.36-3.28,406.58,11.72Z"/><path class="cls-9" d="M499.34-103.25s1.49,38.46-6.56,73.64-13.71,52.17-13.71,52.17-8.05,7.15-25.94-.3c0,0,.6-68.86-2.68-83.77,0,0,.89-19.08-36.67,79.89,0,0-8,7.16-18.78,4.77a22.12,22.12,0,0,1-14.75-10.61s16.24-84.78,24.59-120.16C413.05-142.41,498.74-120.83,499.34-103.25Z"/><path class="cls-10" d="M401.82,38.28s1.55,7.19-9.64,10.46c0,0,2.06-9-6.17-12.14s-10.8,3.32-12.23,6.95a45.15,45.15,0,0,1-14.19,9.93C350.5,57.6,342,66.8,345.67,78s26.19,10.31,37.29-4,11.84-12,18.42-20.23C401.38,53.83,407.18,38.71,401.82,38.28Z"/><path class="cls-11" d="M402.07,34.5s1.55,7.19-9.65,10.47c0,0,2.07-9-6.16-12.14s-10.8,3.32-12.23,7a45.2,45.2,0,0,1-14.19,9.92c-9.1,4.13-17.59,13.32-13.93,24.57s26.2,10.31,37.3-4,11.83-12,18.41-20.23C401.62,50.06,407.42,34.94,402.07,34.5Z"/><path class="cls-10" d="M387.27,49.56s-8.17-10.38-17.74-7.31L367.8,45s14.78,2,16.08,6.12Z"/><path class="cls-10" d="M381.57,52.08c.62.79-6.55-10.89-17.74-7.31l-1.74,2.8s14.78,2,16.09,6.11Z"/></g><circle class="cls-2" cx="199.96" cy="199.88" r="196.51"/><g class="cls-12"><path class="cls-13" d="M276.8,267.1C217,334.79,145.55,369.36,117.19,344.32c-11.71-10.35-54.94-35.6-49.64-59C75.06,252.08,139,216.12,174.13,176.4c41.26-46.72,60.4-115.81,94.78-122.27,15.43-2.9,56,37.29,64.82,45.05C362.09,124.23,336.6,199.41,276.8,267.1Z"/><ellipse class="cls-14" cx="182.33" cy="183.65" rx="163.54" ry="68.5" transform="translate(-76.02 198.72) rotate(-48.54)"/><ellipse class="cls-15" cx="183.88" cy="183.85" rx="146.1" ry="54.45" transform="translate(-75.65 199.95) rotate(-48.54)"/><path class="cls-16" d="M323.7,117.89a8.86,8.86,0,0,1,.87.44c.31.1.62.21.92.34a9.74,9.74,0,0,1,3.23,2.28,9.63,9.63,0,0,1,3.17.77c.15.06.29.14.44.21l.9-2.8s1.87-5.17-6.24-8.84-12.08-3-14.7,3.1a38.93,38.93,0,0,0-2.42,7.46C314.62,117.37,319.59,116.11,323.7,117.89Z"/><path class="cls-16" d="M309.81,175.16c-.31-.1-.62-.21-.92-.34a9.84,9.84,0,0,1-3.23-2.28,9.63,9.63,0,0,1-3.17-.77c-.3-.13-.59-.28-.87-.43s-.62-.21-.92-.34c-3.71-1.61-6.1-5.43-7.05-10.46a25.49,25.49,0,0,0-3.64,8.72c-1.05,4.78,1,7.46,8.2,10.15,6.57,2.44,8.63,2.41,13.12-3.57-.22-.07-.43-.15-.65-.24A8.86,8.86,0,0,1,309.81,175.16Z"/><path class="cls-17" d="M325.47,109.63a8.7,8.7,0,0,1,3.44,8.21c-.78,5.38-1.62,11.18-9,28.23s-13.27,34.18-19.74,34c6.25,2.39,9.79-.1,13.11-7s21.77-51.94,20.14-56.63C331.65,111.47,325.47,109.63,325.47,109.63Z"/><path class="cls-18" d="M337.33,155.61c6.35-14.67,4.72-29.49-3.65-33.12-.3-.13-.61-.24-.92-.34,7.6,4.26,8.9,18.54,2.77,32.68-5.7,13.16-15.89,21.72-24,20.71l-.23.3C319.65,178.76,331.14,169.9,337.33,155.61Z"/><path class="cls-19" d="M309.81,175.16a8.86,8.86,0,0,0,.87.44c.22.09.43.17.65.24l.23-.3A10.29,10.29,0,0,1,309.81,175.16Z"/><path class="cls-20" d="M332.76,122.15l-.43-.22,0,.09Z"/><path class="cls-19" d="M328.72,121a9.74,9.74,0,0,0-3.23-2.28c-.3-.13-.61-.24-.92-.34a10.36,10.36,0,0,1,3,2.59A10.59,10.59,0,0,1,328.72,121Z"/><path class="cls-19" d="M301.62,171.34c.28.15.57.3.87.43a9.63,9.63,0,0,0,3.17.77,9.56,9.56,0,0,1-.66-.75A10,10,0,0,1,301.62,171.34Z"/><path class="cls-19" d="M328.23,121.79a11.35,11.35,0,0,1,1.15-.09,9.56,9.56,0,0,0-.66-.75,10.59,10.59,0,0,0-1.13,0C327.81,121.2,328,121.49,328.23,121.79Z"/><path class="cls-19" d="M306.15,171.7a11.13,11.13,0,0,1-1.15.09,9.56,9.56,0,0,0,.66.75,10.59,10.59,0,0,0,1.13,0C306.57,172.29,306.36,172,306.15,171.7Z"/><path class="cls-19" d="M330.54,127.39c.28-.84.55-1.64.79-2.38a13.76,13.76,0,0,0-1.95-3.31,11.35,11.35,0,0,0-1.15.09A17.09,17.09,0,0,1,330.54,127.39Z"/><path class="cls-19" d="M306.15,171.7c.21.3.42.59.64.87a16.4,16.4,0,0,0,8.23-2.86c.45-1,.93-2,1.43-3.21C313.07,169.44,309.51,171.27,306.15,171.7Z"/><path class="cls-20" d="M300.7,171c.3.13.61.24.92.34-3.93-2.21-6.17-7.09-6.58-13.25-.51.92-1,1.73-1.39,2.45C294.6,165.57,297,169.39,300.7,171Z"/><path class="cls-20" d="M324.57,118.33a8.86,8.86,0,0,0-.87-.44c-4.11-1.78-9.08-.52-13.83,3-.22.82-.48,1.78-.83,3C314.19,119,319.87,116.84,324.57,118.33Z"/><path class="cls-20" d="M305.24,141.71c5.33-12.29,14.57-20.57,22.35-20.79a10.36,10.36,0,0,0-3-2.59c-4.7-1.49-10.38.71-15.53,5.47-1,3.24-2.66,8.2-6.12,17A142.17,142.17,0,0,1,295,158.09c.41,6.16,2.65,11,6.58,13.25a10,10,0,0,0,3.38.45C300.2,165.8,300.05,153.7,305.24,141.71Z"/><path class="cls-20" d="M307,142.49c5.06-11.69,13.67-19.75,21.19-20.7-.2-.3-.42-.59-.64-.87-7.78.22-17,8.5-22.35,20.79-5.19,12-5,24.09-.24,30.08a11.13,11.13,0,0,0,1.15-.09C302,165.46,302.08,153.92,307,142.49Z"/><path class="cls-21" d="M335.53,154.83c6.13-14.14,4.83-28.42-2.77-32.68l-.46-.13,0-.09c-.15-.07-.29-.15-.44-.21a9.63,9.63,0,0,0-3.17-.77,9.56,9.56,0,0,1,.66.75,13.76,13.76,0,0,1,1.95,3.31c2.77,6.54,2.18,16.69-2.19,26.77-3.51,8.12-8.74,14.48-14.12,17.93a16.4,16.4,0,0,1-8.23,2.86,10.59,10.59,0,0,1-1.13,0,9.84,9.84,0,0,0,3.23,2.28c.3.13.61.24.92.34a10.29,10.29,0,0,0,1.75.38C319.64,176.55,329.83,168,335.53,154.83Z"/><path class="cls-19" d="M327.35,151a43.87,43.87,0,0,1-10.9,15.5c-.5,1.17-1,2.24-1.43,3.21,5.38-3.45,10.61-9.81,14.12-17.93,4.37-10.08,5-20.23,2.19-26.77-.24.74-.51,1.54-.79,2.38C332,133.81,331.06,142.43,327.35,151Z"/><path class="cls-20" d="M327.35,151c3.71-8.57,4.69-17.19,3.19-23.61-3.46,10.5-9.56,28.51-14.09,39.11A43.87,43.87,0,0,0,327.35,151Z"/><path class="cls-20" d="M316.45,166.5c4.53-10.6,10.63-28.61,14.09-39.11a17.09,17.09,0,0,0-2.31-5.6c-7.52.95-16.13,9-21.19,20.7-5,11.43-5.05,23-.89,29.21C309.51,171.27,313.07,169.44,316.45,166.5Z"/><path class="cls-22" d="M316.63,146.32c-1.71,4.23-5.07,6.85-7.5,5.87s-3-5.21-1.3-9.44,5.07-6.86,7.5-5.87S318.35,142.09,316.63,146.32Z"/><path class="cls-23" d="M312.53,144.7a.28.28,0,0,0-.09-.38l-9.39-3.88-.05.12,9.52,3.94v.21l-9.62-3.89c-.06.14-.11.29-.17.43l9.35,3.87a.3.3,0,0,0,.35-.2Z"/><path class="cls-24" d="M312.52,144.71v-.21L303,140.56c0,.08-.07.17-.1.26Z"/><path class="cls-25" d="M84.74,315.42l37.09,29.8s29.61,12,70.1-11.71,63.8-48.74,63.8-48.74L220.86,249.2s-30.16,28.3-67.81,50.91C111.33,325.16,84.74,315.42,84.74,315.42Z"/><path class="cls-16" d="M184,303.78c.14.3.25.61.36.92s.31.57.45.87a10,10,0,0,1,.86,3.85,9.87,9.87,0,0,1,1.82,2.7c.07.15.13.3.19.46l2.55-1.47s4.86-2.57,1.32-10.74-6.94-10.33-13-7.59a39.85,39.85,0,0,0-6.81,3.9C177.66,297.3,182.19,299.7,184,303.78Z"/><path class="cls-16" d="M135.25,336.85a8.93,8.93,0,0,1-.45-.87,10,10,0,0,1-.86-3.86,9.75,9.75,0,0,1-1.83-2.7,8.87,8.87,0,0,0-.8-1.78c-1.67-3.68-.87-8.11,1.81-12.47a25.71,25.71,0,0,0-8.57,4c-4,2.83-4.29,6.16-.74,13,3.23,6.23,4.77,7.59,12.11,6.19-.11-.21-.22-.41-.31-.62S135.36,337.16,135.25,336.85Z"/><path class="cls-17" d="M190.89,298.86a8.69,8.69,0,0,1-3,8.39c-4.19,3.45-8.71,7.19-25.66,14.84s-32.8,16.37-37.48,11.91c3,6,7.31,6.51,14.39,3.64s51-23.81,53-28.39C194.23,304.38,190.89,298.86,190.89,298.86Z"/><path class="cls-18" d="M168.77,340.87c14.56-6.59,23.32-18.66,19.56-27-.13-.3-.29-.58-.45-.87,2.76,8.26-5.88,19.71-19.91,26.06-13.08,5.91-26.37,5.39-31.68-.79l-.37.08C140.12,346.13,154.58,347.29,168.77,340.87Z"/><path class="cls-19" d="M135.25,336.85c.11.31.22.61.36.91s.2.41.31.62l.37-.08A9.84,9.84,0,0,1,135.25,336.85Z"/><path class="cls-20" d="M187.88,313c0-.15-.11-.3-.17-.45l-.09.05Z"/><path class="cls-19" d="M185.7,309.42a10,10,0,0,0-.86-3.85q-.21-.45-.45-.87a10.58,10.58,0,0,1,.49,3.94C185.17,308.89,185.44,309.15,185.7,309.42Z"/><path class="cls-19" d="M131.76,328.51a9,9,0,0,0,.35.91,9.75,9.75,0,0,0,1.83,2.7,8.39,8.39,0,0,1,0-1A10.12,10.12,0,0,1,131.76,328.51Z"/><path class="cls-19" d="M184.77,309.72c.32.22.62.46.91.7,0-.33,0-.67,0-1-.26-.27-.53-.53-.82-.78C184.85,309,184.82,309.36,184.77,309.72Z"/><path class="cls-19" d="M134.87,331.83a11,11,0,0,1-.91-.71,8.39,8.39,0,0,0,0,1,8.61,8.61,0,0,0,.82.78C134.78,332.55,134.82,332.19,134.87,331.83Z"/><path class="cls-19" d="M182.71,315.42l2.19-1.24a13.94,13.94,0,0,0,.78-3.76c-.29-.24-.59-.48-.91-.7A17.05,17.05,0,0,1,182.71,315.42Z"/><path class="cls-19" d="M134.87,331.83c-.05.36-.09.72-.11,1.07a16.46,16.46,0,0,0,8,3.42c1-.42,2.07-.89,3.22-1.42C141.51,334.81,137.64,333.77,134.87,331.83Z"/><path class="cls-20" d="M131.31,327.64a8.93,8.93,0,0,0,.45.87c-1.43-4.27.19-9.39,4-14.23-1,.35-1.88.63-2.68.89C130.44,319.53,129.64,324,131.31,327.64Z"/><path class="cls-20" d="M184.39,304.7c-.11-.31-.22-.62-.36-.92-1.84-4.08-6.37-6.48-12.23-7.1-.71.46-1.54,1-2.59,1.63C176.22,298.24,181.9,300.43,184.39,304.7Z"/><path class="cls-20" d="M154.36,309c12.2-5.52,24.61-5.43,30.52-.37a10.58,10.58,0,0,0-.49-3.94c-2.49-4.27-8.17-6.46-15.18-6.39-2.9,1.74-7.48,4.28-16,8.47a143.57,143.57,0,0,1-17.45,7.5c-3.85,4.84-5.47,10-4,14.23a10.12,10.12,0,0,0,2.2,2.61C134.43,323.46,142.45,314.4,154.36,309Z"/><path class="cls-20" d="M155.16,310.79c11.61-5.25,23.4-5.42,29.61-1.07,0-.36.08-.72.11-1.08-5.91-5.06-18.32-5.15-30.52.37-11.91,5.39-19.93,14.45-20.4,22.11a11,11,0,0,0,.91.71C136,324.41,143.81,315.93,155.16,310.79Z"/><path class="cls-21" d="M168,339.09c14-6.35,22.67-17.8,19.91-26.06l-.26-.4.09-.05c-.06-.16-.12-.31-.19-.46a9.87,9.87,0,0,0-1.82-2.7c0,.33,0,.67,0,1a13.94,13.94,0,0,1-.78,3.76c-2.35,6.71-9.61,13.83-19.62,18.35-8.06,3.65-16.2,4.85-22.51,3.79a16.46,16.46,0,0,1-8-3.42,8.61,8.61,0,0,1-.82-.78,10,10,0,0,0,.86,3.86,8.93,8.93,0,0,0,.45.87,9.84,9.84,0,0,0,1,1.45C141.6,344.48,154.89,345,168,339.09Z"/><path class="cls-19" d="M164.47,330.75A43.72,43.72,0,0,1,146,334.9c-1.15.53-2.23,1-3.22,1.42,6.31,1.06,14.45-.14,22.51-3.79,10-4.52,17.27-11.64,19.62-18.35l-2.19,1.24C179.51,321.17,173,326.9,164.47,330.75Z"/><path class="cls-20" d="M164.47,330.75c8.52-3.85,15-9.58,18.24-15.33-9.61,5.44-26.24,14.67-36.72,19.48A43.72,43.72,0,0,0,164.47,330.75Z"/><path class="cls-20" d="M146,334.9c10.48-4.81,27.11-14,36.72-19.48a17.05,17.05,0,0,0,2.06-5.7c-6.21-4.35-18-4.18-29.61,1.07-11.35,5.14-19.18,13.62-20.29,21C137.64,333.77,141.51,334.81,146,334.9Z"/><path class="cls-22" d="M159.69,320.08c-4.11,2-8.36,1.67-9.5-.7s1.27-5.88,5.38-7.86,8.37-1.66,9.51.7S163.8,318.1,159.69,320.08Z"/><path class="cls-23" d="M157.74,316.13c.16-.07.25-.23.19-.34l-4.34-9.19-.12.06,4.4,9.31-.14.15-4.51-9.34-.42.21,4.33,9.15c.05.12.23.15.39.08Z"/><path class="cls-24" d="M157.73,316.12l.14-.15-4.4-9.31-.25.12Z"/><path class="cls-16" d="M270.12,225.14c.23.24.45.49.65.74s.49.43.72.66a9.9,9.9,0,0,1,2.12,3.34,10,10,0,0,1,2.64,1.91l.32.37c1.21-1.42,1.9-2.25,1.9-2.25s3.7-4.07-2.41-10.55-10-7.35-14.78-2.72a40.2,40.2,0,0,0-5.07,6C261.92,221.21,267,221.93,270.12,225.14Z"/><path class="cls-16" d="M235.51,272.83a7.4,7.4,0,0,1-.72-.66,9.86,9.86,0,0,1-2.12-3.33,10,10,0,0,1-2.64-1.92,7.55,7.55,0,0,1-.64-.74,7.4,7.4,0,0,1-.72-.66c-2.83-2.9-3.58-7.33-2.55-12.35a25.86,25.86,0,0,0-6.69,6.68c-2.78,4-1.94,7.26,3.74,12.5,5.15,4.76,7.06,5.52,13.49,1.7-.18-.16-.35-.31-.51-.48A7.55,7.55,0,0,1,235.51,272.83Z"/><path class="cls-17" d="M274.9,218.18a8.68,8.68,0,0,1,.06,8.9c-2.76,4.67-5.74,9.73-19.08,22.68s-25.27,26.56-31.18,24c4.87,4.58,9.09,3.63,14.77-1.47s39.88-39.77,40.16-44.73C279.92,222.23,274.9,218.18,274.9,218.18Z"/><path class="cls-18" d="M268.4,265.21c11.45-11.15,15.57-25.49,9.21-32q-.35-.34-.72-.66c5.41,6.83,1.18,20.53-9.86,31.28-10.27,10-23,14-30,10l-.32.2C243.25,279.9,257.24,276.08,268.4,265.21Z"/><path class="cls-19" d="M235.51,272.83a7.55,7.55,0,0,0,.64.74c.16.17.33.32.51.48l.32-.2A9.89,9.89,0,0,1,235.51,272.83Z"/><path class="cls-20" d="M276.89,232.53c-.1-.13-.21-.25-.32-.37l-.06.07Z"/><path class="cls-19" d="M273.61,229.88a9.9,9.9,0,0,0-2.12-3.34q-.35-.34-.72-.66a10.49,10.49,0,0,1,1.8,3.54C272.93,229.56,273.27,229.71,273.61,229.88Z"/><path class="cls-19" d="M229.39,266.18a7.55,7.55,0,0,0,.64.74,10,10,0,0,0,2.64,1.92c-.12-.31-.23-.62-.33-.95A10.08,10.08,0,0,1,229.39,266.18Z"/><path class="cls-19" d="M272.83,230.47c.38.1.75.22,1.11.35-.1-.32-.21-.63-.33-.94-.34-.17-.68-.32-1-.46C272.67,229.77,272.76,230.11,272.83,230.47Z"/><path class="cls-19" d="M233.44,268.24a10.8,10.8,0,0,1-1.1-.35c.1.33.21.64.33.95a8.81,8.81,0,0,0,1,.45Q233.56,268.78,233.44,268.24Z"/><path class="cls-19" d="M272.84,236.53l1.64-1.91a14.47,14.47,0,0,0-.54-3.8c-.36-.13-.73-.25-1.11-.35A16.87,16.87,0,0,1,272.84,236.53Z"/><path class="cls-19" d="M233.44,268.24q.12.54.27,1.05a16.22,16.22,0,0,0,8.69.48c.79-.72,1.64-1.53,2.55-2.42C240.71,268.79,236.71,269.13,233.44,268.24Z"/><path class="cls-20" d="M228.67,265.52a7.4,7.4,0,0,0,.72.66c-2.8-3.53-3-8.9-1-14.75-.82.66-1.55,1.23-2.22,1.74C225.09,258.19,225.84,262.62,228.67,265.52Z"/><path class="cls-20" d="M270.77,225.88c-.2-.25-.42-.5-.65-.74-3.12-3.21-8.2-3.93-13.91-2.52-.51.68-1.12,1.47-1.89,2.42C260.89,222.59,267,222.71,270.77,225.88Z"/><path class="cls-20" d="M244,240.16c9.6-9.35,21.29-13.49,28.57-10.74a10.49,10.49,0,0,0-1.8-3.54c-3.79-3.17-9.88-3.29-16.45-.84-2.13,2.63-5.57,6.57-12.12,13.39a142.67,142.67,0,0,1-13.86,13c-2,5.85-1.75,11.22,1,14.75a10.08,10.08,0,0,0,3,1.71C230.18,260.52,234.64,249.28,244,240.16Z"/><path class="cls-20" d="M245.37,241.56c9.12-8.89,20.14-13.07,27.46-11.09-.07-.36-.16-.7-.26-1.05-7.28-2.75-19,1.39-28.57,10.74-9.36,9.12-13.82,20.36-11.66,27.73a10.8,10.8,0,0,0,1.1.35C232,260.89,236.44,250.26,245.37,241.56Z"/><path class="cls-21" d="M267,263.81c11-10.75,15.27-24.45,9.86-31.28l-.38-.3.06-.07-.32-.37a10,10,0,0,0-2.64-1.91c.12.31.23.62.33.94a14.47,14.47,0,0,1,.54,3.8c.07,7.11-4.33,16.27-12.2,23.94-6.34,6.17-13.59,10.07-19.88,11.21a16.22,16.22,0,0,1-8.69-.48,8.81,8.81,0,0,1-1-.45,9.86,9.86,0,0,0,2.12,3.33,7.4,7.4,0,0,0,.72.66,9.89,9.89,0,0,0,1.47,1C244.07,277.85,256.76,273.82,267,263.81Z"/><path class="cls-19" d="M260.91,257.16a43.81,43.81,0,0,1-16,10.19c-.91.89-1.76,1.7-2.55,2.42,6.29-1.14,13.54-5,19.88-11.21,7.87-7.67,12.27-16.83,12.2-23.94l-1.64,1.91C271.79,243,267.61,250.64,260.91,257.16Z"/><path class="cls-20" d="M260.91,257.16c6.7-6.52,10.88-14.13,11.93-20.63-7.19,8.39-19.68,22.73-27.89,30.82A43.81,43.81,0,0,0,260.91,257.16Z"/><path class="cls-20" d="M245,267.35c8.21-8.09,20.7-22.43,27.89-30.82a16.87,16.87,0,0,0,0-6.06c-7.32-2-18.34,2.2-27.46,11.09-8.93,8.7-13.41,19.33-11.93,26.68C236.71,269.13,240.71,268.79,245,267.35Z"/><ellipse class="cls-22" cx="249.39" cy="245.43" rx="8.26" ry="4.75" transform="translate(-100.45 251.91) rotate(-45.6)"/><path class="cls-23" d="M249.6,245.7a.28.28,0,0,0,.07-.39l-7.21-7.16-.09.09,7.3,7.26-.08.19-7.42-7.24-.32.33,7.18,7.14a.3.3,0,0,0,.4-.06Z"/><path class="cls-24" d="M249.59,245.69l.08-.19-7.3-7.26-.2.21Z"/><polygon class="cls-14" points="214.81 146.75 198.84 175.58 216.81 193.98 187.39 198.16 170.84 226.01 168.16 198.4 140.38 198.5 168.4 177.87 167.56 149.51 187.98 166.31 214.81 146.75"/></g></svg>