<svg id="Layer_1" data-name="Layer 1" xmlns="http://www.w3.org/2000/svg" xmlns:xlink="http://www.w3.org/1999/xlink" viewBox="0 0 300 350"><defs><style>.cls-1,.cls-4{fill:#cbfdff;}.cls-1,.cls-21{stroke:#2ca0ce;stroke-width:3px;}.cls-1,.cls-10,.cls-15,.cls-16,.cls-21,.cls-7,.cls-9{stroke-miterlimit:10;}.cls-14,.cls-2{fill:#fff;}.cls-21,.cls-3,.cls-9{fill:none;}.cls-5{clip-path:url(#clip-path);}.cls-6{opacity:0.3;}.cls-17,.cls-7{fill:#fcc23f;}.cls-10,.cls-7,.cls-9{stroke:#844a23;}.cls-8{fill:#f4b12c;}.cls-10{fill:#cc6060;}.cls-11{fill:#844a23;}.cls-12{fill:#ea7878;}.cls-13{fill:#632525;}.cls-14{opacity:0.68;}.cls-15,.cls-20{fill:#efb98f;}.cls-15,.cls-16{stroke:#c17e42;}.cls-16{fill:#fecda2;}.cls-18{fill:#fce3d2;}.cls-19{fill:#c17e42;}.cls-22{clip-path:url(#clip-path-2);}.cls-23{clip-path:url(#clip-path-3);}.cls-24{fill:url(#linear-gradient);}</style><clipPath id="clip-path"><rect class="cls-1" x="12.5" y="10" width="275" height="330" rx="25"/></clipPath><clipPath id="clip-path-2"><circle class="cls-2" cx="480" cy="570" r="196.51"/></clipPath><clipPath id="clip-path-3"><rect class="cls-3" x="93.02" y="349.85" width="781.84" height="436.93"/></clipPath><linearGradient id="linear-gradient" x1="414.73" y1="860.85" x2="544.5" y2="219.32" gradientUnits="userSpaceOnUse"><stop offset="0.25" stop-color="#c9e9f2"/><stop offset="0.55" stop-color="#c7e8f1"/><stop offset="0.66" stop-color="#c0e6ef"/><stop offset="0.73" stop-color="#b5e2ec"/><stop offset="0.79" stop-color="#a4dce7"/><stop offset="0.83" stop-color="#96d7e3"/></linearGradient></defs><rect class="cls-4" x="12.5" y="10" width="275" height="330" rx="25"/><g class="cls-5"><ellipse class="cls-6" cx="153" cy="265.5" rx="110" ry="19.5"/><path class="cls-7" d="M247.73,252.94c8.76,7.76,4.47,17.44-10.16,24.21a50.43,50.43,0,0,1-18.11,4.49c-63.82,4-73.07,21.65-65.8,35.57a6.47,6.47,0,0,0,4.32,2.27c11.94,2.47,10.55-18.16,40.46-25.14,23.5-4.55,81.59-4.24,59-47.47Z"/><path class="cls-7" d="M113.27,180.71s92.82-54.6,133.77,18.42-33.1,74.4-33.1,74.4l-31.45.28s-7.17.23-5-6.43c0,0,.59-5,3.93-6.4l-44.9,1.13-15.31,3s1.74,6.37-13,5.61-19.79.91-19.79-4.78c0,0-23.58,1-25.71-.15s-8.95-7.05.91-15.09S113.27,180.71,113.27,180.71Z"/><path class="cls-8" d="M137.16,262.06s5.31-.16,8.19-7.44c0,0,32.91,4.1,38.83-9.55s5.91-30.64,37.31-30.18c0,0,3.49,1.36,0,2.42,0,0-36-3-30.18,40.95l-8.65,2.43Z"/><path class="cls-8" d="M117,178.93,127.3,174s18,20.08,2.85,56.78c0,0,3.19-.15,3.19,1.82s-16.68,1.67-28.82,11.68-12.13,11.83-12.13,11.83-3-6.52-5.61-7.13S117,178.93,117,178.93Z"/><path class="cls-7" d="M33.21,211s-16.38-18.8-13.8-24,25.94,0,25.94,0,6.21-13.2,8.64-12.89S56.27,176,56.27,176s.75-9.71,5.61-3.95c0,0,2.12-6.68,4.7-1.82,0,0,6.52-3.33,10.31-3.18,0,0,4.25-17.44,8.19-19.72s17,21.39,17.44,22.9c0,0,14,6.68,20.48,15.63,0,0,2.27,1.82,0,2.73,0,0,4.7,4.09,2.27,6.52,0,0,7.31,10.16.7,9.55,0,0,2.34,49-63.33,46.72,0,0-10-1.07-13-5.16,0,0-3.94,4.7-7.28-7,0,0-4.24,3.95-4.24-4.7C38.07,234.51,33.82,240.12,33.21,211Z"/><path class="cls-9" d="M222.55,216.87s-36.78-3.21-31.24,41.39c0,0-8.5,1.49-10.78,3.19"/><path class="cls-10" d="M81.69,166.18c-.35.54,1.54-9,4.49-11.48s9,13.08,9,13.08H90.51s.73-3.93-2.51-1.77c0,0,.46-4-2.1-.45C85.9,165.56,85.5,160.33,81.69,166.18Z"/><path class="cls-10" d="M41.72,191c.72-.14-9.93-2.49-14-.29s8.47,16.46,8.47,16.46l2.49-5.33s-4.38-1-.46-3.7c0,0-4.33-1.39.66-2.62C38.84,195.56,33.75,192.63,41.72,191Z"/><path class="cls-11" d="M108.26,260.9a3.82,3.82,0,0,1,2.3,1.64,5.57,5.57,0,0,1,.94,2.63,5.79,5.79,0,0,1-.44,2.7,4.66,4.66,0,0,1-1.77,2.13,7.32,7.32,0,0,1-.35-1.33c-.11-.42-.13-.8-.21-1.17-.09-.74-.19-1.41-.22-2.08s-.1-1.31-.14-2Z"/><path class="cls-11" d="M100.38,260.34c-.15,1-.25,1.77-.34,2.49l-.24,2-.22,2.05c-.07.37-.06.75-.16,1.18a9.27,9.27,0,0,1-.26,1.37,4.55,4.55,0,0,1-1.9-2.11,5.51,5.51,0,0,1-.44-2.82,5.17,5.17,0,0,1,1.1-2.69A3.75,3.75,0,0,1,100.38,260.34Z"/><path class="cls-11" d="M68.53,255c-.16,1-.26,1.77-.35,2.49l-.24,2-.22,2.05c-.07.37-.06.75-.16,1.18a9.27,9.27,0,0,1-.26,1.37A4.53,4.53,0,0,1,65.41,262a5.41,5.41,0,0,1-.45-2.82,5.26,5.26,0,0,1,1.1-2.69A3.75,3.75,0,0,1,68.53,255Z"/><path class="cls-11" d="M77,255a3.8,3.8,0,0,1,2.28,1.65,5.63,5.63,0,0,1,.93,2.62,5.79,5.79,0,0,1-.44,2.7A4.6,4.6,0,0,1,78,264.1a9.81,9.81,0,0,1-.35-1.33c-.11-.42-.13-.8-.21-1.17-.09-.74-.19-1.41-.22-2.08s-.1-1.32-.14-2Z"/><path class="cls-9" d="M132.31,233.39S96.21,237.17,88.36,266"/><path class="cls-9" d="M145.75,253.22s-2.22,8.51-8.59,8.84"/><path class="cls-9" d="M87.77,249.26s4.44,4,4.62,6.87"/><path class="cls-12" d="M87.6,208.9c-1-1.58-4-.64-7.15,1.47s-5.43,4-4.37,5.55,8.46.6,8.46.6S88.65,210.48,87.6,208.9Z"/><path class="cls-13" d="M86.78,203.65a2.7,2.7,0,0,1-1-1.6,7.63,7.63,0,0,1-.16-1.77,12.8,12.8,0,0,1,.61-3.42,15.74,15.74,0,0,1,1.49-3.2,15.39,15.39,0,0,1,2.33-2.81,17.52,17.52,0,0,1,3-2.38,7,7,0,0,1,3.77-1,8.39,8.39,0,0,1,3.72.89,7.1,7.1,0,0,1,2.87,2.5l-.18.57c-2.46,1-4.19,1.4-5.7,2a10.82,10.82,0,0,1-2.23.54,7.11,7.11,0,0,0-2.37.71,10.6,10.6,0,0,0-2.14,1.52,12.05,12.05,0,0,0-1.89,2,10.77,10.77,0,0,0-1.45,2.44,5.41,5.41,0,0,0-.42,1.33,1.88,1.88,0,0,0,.1,1.23Z"/><path class="cls-13" d="M70.79,209.85a3.41,3.41,0,0,0-1.26-.71,7.59,7.59,0,0,0-1.44-.36,12.33,12.33,0,0,0-3-.12,12.05,12.05,0,0,0-2.84.48,10,10,0,0,0-2.5,1A5.63,5.63,0,0,0,58,211.78a13.33,13.33,0,0,1-1.42,1.67,24,24,0,0,0-1.73,1.94c-.68.76-1.27,1.66-2.21,2.68l-.6,0a7.83,7.83,0,0,1-.59-7.71,7.25,7.25,0,0,1,2.81-3.17,15.23,15.23,0,0,1,3.81-1.52,15,15,0,0,1,3.78-.47,16.53,16.53,0,0,1,3.6.5,14,14,0,0,1,3.3,1.35,5.83,5.83,0,0,1,2.54,2.52Z"/><path class="cls-13" d="M84.57,216.52a8.33,8.33,0,0,1,1.58,5.38,7.71,7.71,0,0,1-2.58,5.29,10.05,10.05,0,0,1-1.17.92l-1.28.71a8.82,8.82,0,0,1-1.34.52,11.21,11.21,0,0,1-1.36.42,23.8,23.8,0,0,1-2.76.39c-.93,0-1.85,0-2.77-.08.87-.35,1.73-.62,2.58-.88s1.65-.65,2.48-.92a15.22,15.22,0,0,0,4.27-2.55,7.58,7.58,0,0,0,2.38-4A13.1,13.1,0,0,0,84.57,216.52Z"/><path class="cls-13" d="M84.82,216.45a21.44,21.44,0,0,0,5.28,1,9.61,9.61,0,0,0,4.83-1,12.12,12.12,0,0,0,3.79-3.24,8.31,8.31,0,0,0,.77-1.07l.77-1.1c.45-.79.89-1.58,1.43-2.37a27.54,27.54,0,0,1-.53,2.77,19.12,19.12,0,0,1-1.14,2.64,10.32,10.32,0,0,1-4.2,4.16,9,9,0,0,1-5.9.74A10.76,10.76,0,0,1,84.82,216.45Z"/><path class="cls-13" d="M100.59,203.11c3.1-2.44,6.33-4.7,9.61-6.9s6.64-4.25,10-6.26,6.92-3.81,10.53-5.42A47.47,47.47,0,0,1,142,180.81l-2.82.89-2.74,1.07c-1.8.78-3.6,1.56-5.34,2.46-3.52,1.74-7,3.59-10.36,5.59s-6.78,4-10.13,6q-2.52,1.54-5,3.12Z"/><path class="cls-13" d="M101.18,203.57c3.51-1.81,7.11-3.42,10.74-5s7.32-2.92,11-4.25,7.51-2.43,11.36-3.33a47,47,0,0,1,11.73-1.54l-2.93.33-2.9.55c-1.91.42-3.82.85-5.71,1.4-3.78,1.05-7.53,2.21-11.23,3.54s-7.4,2.62-11.08,4q-2.76,1-5.51,2.12Z"/><path class="cls-13" d="M66.28,220.78,60.79,223c-1.84.71-3.66,1.44-5.48,2.19-3.64,1.48-7.28,3-10.86,4.59s-7.16,3.24-10.64,5c-1.76.88-3.45,1.86-5.14,2.86l-2.49,1.57L23.8,241a47.32,47.32,0,0,1,9.64-6.84c3.44-2,7-3.66,10.61-5.28s7.27-3.06,11-4.39S62.48,221.84,66.28,220.78Z"/><path class="cls-13" d="M67.58,221.19,62.39,224c-1.73.93-3.46,1.88-5.17,2.84-3.44,1.92-6.87,3.84-10.22,5.88s-6.71,4.08-10,6.3c-1.64,1.08-3.2,2.26-4.76,3.45L30,244.35l-2.15,2a46.94,46.94,0,0,1,8.74-8c3.17-2.36,6.51-4.48,9.89-6.53s6.84-3.92,10.37-5.69S63.93,222.7,67.58,221.19Z"/><path class="cls-13" d="M68.17,222.46l-4.67,3.61q-2.36,1.8-4.66,3.63c-3.09,2.43-6.17,4.88-9.16,7.43s-6,5.09-8.82,7.79c-1.45,1.33-2.8,2.74-4.15,4.17l-2,2.2L33,253.63a47.34,47.34,0,0,1,7.37-9.26c2.76-2.83,5.71-5.46,8.72-8s6.14-5,9.34-7.27S64.81,224.53,68.17,222.46Z"/><ellipse class="cls-14" cx="80.26" cy="213.51" rx="3.04" ry="1.04" transform="matrix(0.87, -0.5, 0.5, 0.87, -96, 68.73)"/><path class="cls-15" d="M201.54,139.05l-38.82,12.52-29.11,21.25s.46,5.31,5.65,3,29.19-16.15,29.19-16.15,31-7.65,31.66-8.28S205.31,139.06,201.54,139.05Z"/><path class="cls-16" d="M144.86,179.77l18-19.05c.77-2.56,2.94-3.81,5.33-5l32.34-16.21a12.37,12.37,0,0,1,9-.82l44.91,13a14.07,14.07,0,0,0,9.67-.67L338,118l15.78,41.73-89.23,23.41a10.41,10.41,0,0,0-4.68,2.64c-3,2.92-9.33,8.19-16.39,7.88-9.74-.42-38.86-3-44.26.28,0,0-16.69,2.9-15.89-3.91s14.5-8.25,14.5-8.25,19-2.34,16.71-9.24c-1.83-5.61-18.2-8.71-24.22-9.67a7.63,7.63,0,0,0-4.17.51l-10.64,3.75A33.75,33.75,0,0,0,170,169.7c-6,4.27-14.55,9.41-17.62,12.9C148.41,187.1,140.74,183.85,144.86,179.77Z"/><path class="cls-17" d="M143.67,187.58s1.82-5.58,4-2.44c0,0,3.07-8.46,5.21-1.3,0,0,.95-7.41,4.14-2.84"/><path class="cls-11" d="M143.67,187.58a9.94,9.94,0,0,1,.48-1.49,6.48,6.48,0,0,1,.77-1.41,1.86,1.86,0,0,1,1.58-.82,2.51,2.51,0,0,1,1.47,1l-.72.09a15.4,15.4,0,0,1,.93-2.17,6.12,6.12,0,0,1,1.53-2,1.69,1.69,0,0,1,1.51-.33,2.13,2.13,0,0,1,1.11.93,7.65,7.65,0,0,1,.94,2.25l-.88.07a11.35,11.35,0,0,1,.48-1.93,6.1,6.1,0,0,1,.89-1.81,1.9,1.9,0,0,1,.86-.68,1.25,1.25,0,0,1,1.09.14A4,4,0,0,1,157,181a4.43,4.43,0,0,0-1.42-1.19,1,1,0,0,0-1.31.57,10.06,10.06,0,0,0-1,3.51l-.25,1.87-.62-1.8a8.27,8.27,0,0,0-.88-2,1.21,1.21,0,0,0-.6-.53.75.75,0,0,0-.64.18,5.59,5.59,0,0,0-1.29,1.62,18.58,18.58,0,0,0-1,2l-.29.68-.42-.59c-.27-.37-.56-.76-.91-.83a1.23,1.23,0,0,0-1.08.49A9.7,9.7,0,0,0,143.67,187.58Z"/><path class="cls-17" d="M171,169.07s2.55-6.89,4.5-1.94c0,0,2.51-4.34,4.57-1.61,0,0,1-3.65,2.48-3.22s2,3,2,3,.21-4.12,4.25-4.2-.53,2.47-.53,2.47"/><path class="cls-11" d="M171,169.07a10.93,10.93,0,0,1,.68-1.75,6.72,6.72,0,0,1,1-1.61,2,2,0,0,1,.87-.59,1.27,1.27,0,0,1,1.12.22,4.07,4.07,0,0,1,1.14,1.66l-.64-.05a8.79,8.79,0,0,1,.88-1.28,4.94,4.94,0,0,1,1.19-1.08,2.29,2.29,0,0,1,1.74-.38,2.74,2.74,0,0,1,1.46,1l-.85.16a9.76,9.76,0,0,1,.78-2,4.18,4.18,0,0,1,.63-.94,1.78,1.78,0,0,1,1.18-.67,1.9,1.9,0,0,1,1.28.47,3.75,3.75,0,0,1,.76.9,6.73,6.73,0,0,1,.78,2l-.91.07a5.41,5.41,0,0,1,1.14-2.87,4.19,4.19,0,0,1,2.67-1.5,6.28,6.28,0,0,1,1.5,0,2.68,2.68,0,0,1,.76.17.77.77,0,0,1,.38.26.55.55,0,0,1,.07.52,2.74,2.74,0,0,1-1.08,1.06,10.35,10.35,0,0,1-1.26.7,13.76,13.76,0,0,0,1.15-.86,2.87,2.87,0,0,0,.86-1c.1-.26-.49-.34-.91-.34a6.09,6.09,0,0,0-1.36.13,3.45,3.45,0,0,0-2.15,1.39,5,5,0,0,0-.85,2.44l-.21,2.79-.7-2.72a6.54,6.54,0,0,0-.7-1.73,2.35,2.35,0,0,0-.56-.64.93.93,0,0,0-.58-.25c-.29,0-.75.55-1,1.09a9.48,9.48,0,0,0-.72,1.78l-.26.85-.59-.68a2,2,0,0,0-.9-.7,1.43,1.43,0,0,0-1.08.23,6.51,6.51,0,0,0-1.9,2l-.41.6-.23-.65a3.56,3.56,0,0,0-.84-1.45c-.36-.35-.87-.19-1.32.21a6.56,6.56,0,0,0-1.12,1.42A17,17,0,0,0,171,169.07Z"/><path class="cls-17" d="M207.55,194.55c-1-1.74-3.4-.49-3.4-.49s3.71-1.64,0-3.71-5.52,6.17-5.52,6.17,1.06-4.16-1.81-4.56-3.29,3.8-3.29,3.8-2.94-2.09-3,.76"/><path class="cls-11" d="M207.55,194.55a1.86,1.86,0,0,0-.69-.62,2,2,0,0,0-.88-.18,4,4,0,0,0-1.73.51l-.19-.4a3.37,3.37,0,0,0,1.26-1.09,1,1,0,0,0-.23-1.28,4.44,4.44,0,0,0-1.39-.9,1.66,1.66,0,0,0-1.43,0,5.69,5.69,0,0,0-2,2.61,20.36,20.36,0,0,0-1.14,3.38l-1-.23a5.9,5.9,0,0,0,.08-2.54,2.1,2.1,0,0,0-.5-1,1.87,1.87,0,0,0-1-.47,2.07,2.07,0,0,0-1.13.14,2.36,2.36,0,0,0-.9.8,6,6,0,0,0-.93,2.47l-.08.4-.3-.23a3.51,3.51,0,0,0-1.78-.8.84.84,0,0,0-.79.4,2.09,2.09,0,0,0-.3,1,2.24,2.24,0,0,1,.17-1,1,1,0,0,1,.91-.58,3.89,3.89,0,0,1,2.07.67l-.38.17a6.38,6.38,0,0,1,.85-2.79,3.11,3.11,0,0,1,1.11-1.11,2.86,2.86,0,0,1,1.59-.3,2.75,2.75,0,0,1,1.51.66,3.16,3.16,0,0,1,.8,1.43,6.64,6.64,0,0,1-.05,3l-.95-.22a17.38,17.38,0,0,1,1.22-3.58,6.07,6.07,0,0,1,2.51-3,2.5,2.5,0,0,1,2.14,0,5.34,5.34,0,0,1,1.6,1.2,1.79,1.79,0,0,1,.3.44,1.55,1.55,0,0,1-.1,1.62,3.63,3.63,0,0,1-1.58,1.18l-.19-.4a4.19,4.19,0,0,1,1.94-.36,2,2,0,0,1,.94.31A1.9,1.9,0,0,1,207.55,194.55Z"/><path class="cls-17" d="M134.31,176.78s5.81-5.45,4.51,0c0,0,3.18-4.83,3.18-1.48,0,0,3.95-4.78,4.05.7"/><path class="cls-11" d="M134.31,176.78a13.23,13.23,0,0,1,1.34-1.36,7.69,7.69,0,0,1,1.58-1.14,2.4,2.4,0,0,1,1.06-.3,1.11,1.11,0,0,1,.67.23,1.2,1.2,0,0,1,.39.59,4.53,4.53,0,0,1-.07,2.09l-.86-.37a12.78,12.78,0,0,1,1.7-2.14,3.53,3.53,0,0,1,.58-.48,1.27,1.27,0,0,1,1-.23.91.91,0,0,1,.52.43,1.53,1.53,0,0,1,.16.45,3.26,3.26,0,0,1,0,.75l-.8-.29a8.48,8.48,0,0,1,1.29-1.18,3.36,3.36,0,0,1,1.69-.75,1.91,1.91,0,0,1,.52.07,1.55,1.55,0,0,1,.44.3,2.06,2.06,0,0,1,.4.85c0,.29.08.58.1.86s0,.57,0,.84c-.05-.27-.11-.55-.15-.82s-.15-.53-.24-.77c-.21-.49-.56-.85-1-.72a3.08,3.08,0,0,0-1.25.76,9.75,9.75,0,0,0-1.09,1.14l-.73.92-.08-1.2a2.89,2.89,0,0,0-.06-.55c0-.17-.13-.22,0-.16s-.08,0-.21.12a3.54,3.54,0,0,0-.43.37,13.34,13.34,0,0,0-1.59,2l-1.6,2.32.73-2.7a4,4,0,0,0,.18-1.63c-.06-.2-.07-.26-.28-.29a1.72,1.72,0,0,0-.75.15,10.34,10.34,0,0,0-1.62.83C135.34,176.06,134.83,176.42,134.31,176.78Z"/><path class="cls-13" d="M100.87,201.77c2.78-2.79,5.71-5.43,8.69-8s6.08-5,9.21-7.43,6.41-4.62,9.8-6.66a46.88,46.88,0,0,1,10.69-5l-2.69,1.21L134,177.24c-1.7,1-3.39,2-5,3.08-3.28,2.16-6.49,4.41-9.61,6.81s-6.24,4.77-9.32,7.22q-2.31,1.83-4.59,3.7Z"/><path class="cls-18" d="M186.28,187.64s3.87-1.65,5.52-1.62,3.19,4.27,1,5.81c0,0-3.5,1.33-5.52.88S184.55,188.8,186.28,187.64Z"/><path class="cls-19" d="M186.28,187.64c1-.42,2-.81,3-1.18.51-.18,1-.36,1.55-.5a4.25,4.25,0,0,1,.82-.15,1.56,1.56,0,0,1,.91.17,4.19,4.19,0,0,1,1.74,2.94,3.35,3.35,0,0,1-1.21,3.32l-.06,0h0a15.45,15.45,0,0,1-3,.74,6.59,6.59,0,0,1-3.11-.19,3.08,3.08,0,0,1-1.61-2.53A2.74,2.74,0,0,1,186.28,187.64Zm0,0a2.54,2.54,0,0,0-.87,2.65,2.72,2.72,0,0,0,1.65,2.11,6,6,0,0,0,2.78-.18,25.4,25.4,0,0,0,2.77-.85l-.11.06a2.63,2.63,0,0,0,.9-2.41,3.7,3.7,0,0,0-1.14-2.59,1.92,1.92,0,0,0-1.39-.14,14.34,14.34,0,0,0-1.56.31A25.19,25.19,0,0,0,186.28,187.64Z"/><path class="cls-18" d="M133.65,172.85l5.59-4.14s1.79,1.65-1.07,3.47S134.78,174.46,133.65,172.85Z"/><path class="cls-19" d="M133.65,172.85a67,67,0,0,1,5.31-4.53l.33-.25.28.29a2.33,2.33,0,0,1,.7,1.34,2.26,2.26,0,0,1-.34,1.47,5.34,5.34,0,0,1-2,1.66,13.29,13.29,0,0,1-2.2,1.1,1.46,1.46,0,0,1-1.33-.09A2.47,2.47,0,0,1,133.65,172.85Zm0,0a3.14,3.14,0,0,0,.9.72,1.13,1.13,0,0,0,1-.15,19,19,0,0,0,1.95-1.31,5.1,5.1,0,0,0,1.61-1.45,1.26,1.26,0,0,0,.19-.83,1.37,1.37,0,0,0-.37-.76l.62,0C137.74,170.39,135.85,171.53,133.65,172.85Z"/><path class="cls-20" d="M261.55,183.56c.8-.9,57.39-25.51,88.82-32l3.12,8Z"/></g><rect class="cls-21" x="12.5" y="10" width="275" height="330" rx="25"/><circle class="cls-2" cx="480" cy="570" r="196.51"/><g class="cls-22"><g class="cls-23"><rect class="cls-24" x="93.02" y="349.85" width="783.77" height="328.13"/></g></g></svg>