<svg xmlns="http://www.w3.org/2000/svg" xmlns:xlink="http://www.w3.org/1999/xlink" viewBox="0 0 348.82 382.46"><defs><style>.cls-1{mask:url(#mask);filter:url(#luminosity-noclip-2);}.cls-2{mix-blend-mode:multiply;fill:url(#linear-gradient);}.cls-3{isolation:isolate;}.cls-4{fill:#020202;opacity:0.2;}.cls-4,.cls-54{stroke:#201d1e;}.cls-13,.cls-15,.cls-16,.cls-18,.cls-19,.cls-20,.cls-27,.cls-28,.cls-33,.cls-4,.cls-47,.cls-50,.cls-51,.cls-54,.cls-59,.cls-61,.cls-9{stroke-miterlimit:10;}.cls-13,.cls-15,.cls-16,.cls-18,.cls-19,.cls-20,.cls-27,.cls-28,.cls-33,.cls-4,.cls-50,.cls-51,.cls-54,.cls-59,.cls-61,.cls-9{stroke-width:0.5px;}.cls-5{fill:#89513a;}.cls-6{fill:#8c663d;}.cls-7{fill:#a56f41;}.cls-8{fill:#050505;stroke:#6f287a;opacity:0.3;}.cls-10,.cls-11,.cls-12,.cls-8{stroke-linejoin:round;stroke-width:0.75px;}.cls-9{fill:#d8b2a8;}.cls-15,.cls-16,.cls-18,.cls-20,.cls-28,.cls-50,.cls-51,.cls-9{stroke:#323232;}.cls-10,.cls-58{fill:#df71e2;}.cls-10{stroke:#710e7c;}.cls-11{fill:#686c71;stroke:#211f1c;}.cls-12,.cls-19{fill:#301616;stroke:#1c0e0a;}.cls-13,.cls-24,.cls-47{fill:#f9d1c6;}.cls-13,.cls-27,.cls-47{stroke:#453423;}.cls-14{fill:#b88e87;}.cls-15{fill:#587ab1;}.cls-16{fill:#7196c4;}.cls-17{fill:#1a4172;opacity:0.76;}.cls-18{fill:#7498c2;}.cls-20{fill:#969595;}.cls-21{mask:url(#mask-2);}.cls-22{mix-blend-mode:darken;fill:url(#linear-gradient-2);}.cls-23{fill:#904e38;}.cls-25{fill:#453423;}.cls-26{fill:#db9d8e;}.cls-27{fill:#c49ac6;}.cls-28,.cls-31{fill:#f6cfc4;}.cls-29{fill:#da9b8d;}.cls-30{fill:#342517;}.cls-32{fill:#49442e;}.cls-33,.cls-35{fill:#fff;}.cls-33{stroke:#3d2e18;}.cls-34{fill:#3d2e18;}.cls-36{fill:#e8a496;opacity:0.5;}.cls-37{fill:#7b2f2c;}.cls-38{fill:#f5958d;}.cls-39{fill:#f48578;}.cls-40{fill:#fff5f2;}.cls-41{fill:#f48a71;}.cls-42{opacity:0.12;}.cls-43{fill:#c27945;}.cls-44{fill:#d48148;}.cls-45{fill:#e89b49;}.cls-46{fill:#f5bf71;}.cls-47{stroke-width:0.25px;}.cls-48{fill:#bf79b2;}.cls-49{fill:#0a2c2d;opacity:0.22;}.cls-50{fill:#fac7b3;}.cls-51{fill:#f8d0c5;}.cls-52{fill:#e4b1a5;}.cls-53{fill:#551615;}.cls-54{fill:#2f1617;}.cls-55{fill:#bf8674;}.cls-56{fill:#e41e50;}.cls-57{fill:#ba7757;}.cls-59{fill:#62445b;stroke:#1d111b;}.cls-60{fill:#f6e0d9;}.cls-61{fill:#61435b;stroke:#1c101a;}.cls-62{fill:#009196;}.cls-63{fill:#cacac9;}.cls-64{fill:#dfdfde;}.cls-65{fill:#d3d4d4;}.cls-66{fill:#efeded;}.cls-67{fill:#cbe9e8;}.cls-68{filter:url(#luminosity-noclip);}</style><filter id="luminosity-noclip" x="72.25" y="-7835.17" width="13.12" height="32766" filterUnits="userSpaceOnUse" color-interpolation-filters="sRGB"><feFlood flood-color="#fff" result="bg"/><feBlend in="SourceGraphic" in2="bg"/></filter><mask id="mask" x="72.25" y="-7835.17" width="13.12" height="32766" maskUnits="userSpaceOnUse"><g class="cls-68"/></mask><linearGradient id="linear-gradient" x1="3627.67" y1="632.07" x2="3618.86" y2="647.63" gradientTransform="matrix(1.03, -0.08, 0.08, 1, -3697.64, -115.26)" gradientUnits="userSpaceOnUse"><stop offset="0" stop-color="#fff"/><stop offset="1"/></linearGradient><filter id="luminosity-noclip-2" x="72.25" y="225.83" width="13.12" height="11.85" filterUnits="userSpaceOnUse" color-interpolation-filters="sRGB"><feFlood flood-color="#fff" result="bg"/><feBlend in="SourceGraphic" in2="bg"/></filter><mask id="mask-2" x="72.25" y="225.83" width="13.12" height="11.85" maskUnits="userSpaceOnUse"><g class="cls-1"><path class="cls-2" d="M72.76,229.67a4.51,4.51,0,0,1-.15-3.84c.41,1.87,1.17,3.78,2.35,4.35a43,43,0,0,0,7,3c1.24,2.75,2.11,3.6,3.43,4.5-2.71-.47-3.68-2.39-4.83-4C76,232.8,73.6,231.21,72.76,229.67Z"/></g></mask><linearGradient id="linear-gradient-2" x1="3627.67" y1="632.07" x2="3618.86" y2="647.63" gradientTransform="matrix(1.03, -0.08, 0.08, 1, -3697.64, -115.26)" gradientUnits="userSpaceOnUse"><stop offset="0" stop-color="#e67e63"/><stop offset="1" stop-color="#e67e63"/></linearGradient></defs><title>Asset 2</title><g class="cls-3"><g id="Layer_2" data-name="Layer 2"><g id="Layer_3" data-name="Layer 3"><polygon class="cls-4" points="64.84 316.1 27.56 381.14 317.28 381.14 268.83 319.35 64.84 316.1"/><rect class="cls-5" x="62.97" y="254.96" width="12.14" height="42.49"/><rect class="cls-5" x="126.4" y="254.96" width="12.14" height="42.49"/><rect class="cls-5" x="184.2" y="233.32" width="17.89" height="62.6"/><rect class="cls-5" x="277.65" y="233.32" width="17.89" height="62.6"/><rect class="cls-6" x="61.9" y="136.4" width="74.08" height="62.88"/><path class="cls-7" d="M62.53,200.29v-66h-4.8a7.17,7.17,0,0,0-7.17,7.17v58.87Z"/><path class="cls-7" d="M135.28,200.29v-66h4.8a7.17,7.17,0,0,1,7.17,7.17v58.87Z"/><ellipse class="cls-8" cx="249.32" cy="340.18" rx="59.24" ry="18.5"/><ellipse class="cls-8" cx="110.7" cy="340.18" rx="59.24" ry="18.5"/><path class="cls-9" d="M253.32,262.22c1.92,20.92,3.71,40,4.78,52.82h19.16c.54-13,1.64-32.22,2.82-52.8.45-7.85-5.73-14.56-13.33-14.45h-1A13,13,0,0,0,253.32,262.22Z"/><path class="cls-10" d="M256.62,318.46c0,.49,22.09.88,22.15.28.47-5.19,1.27-16.27,1.53-19.27l-24.54.14C256.05,305.22,256.43,314.91,256.62,318.46Z"/><path class="cls-11" d="M292.48,350.14c5.81,0,10.71-1.6,11.94-4.6a18.15,18.15,0,0,0,.09-5.39c-.17-1.6-2.8-5.06-4.05-5.67-1.28,3.86-7.15,11.62-18,8.55-10.08-2.86-26.7-12.34-27.66-13.32,0,0,0,4.84.59,5.2,7.73,4.81,22.71,12.37,22.91,12.45A39.24,39.24,0,0,0,292.48,350.14Z"/><path class="cls-12" d="M256.17,314.18c.73.22,3,3.19,11.21,4.15.69.08,0-3.68.66-4.08,1.23-.69,13.46-1.1,14.2-.74.58.29.87,1.21,1.46,4.54.64,1.84,19.46,16.19,20.48,21.53.56,2.91-1.86,5.3-6.92,6.06a33.73,33.73,0,0,1-17.51-2c-2.57-1-23.69-12.36-25-13.69-1.14-1.16.25-12.3.35-15.32C255.12,314.19,255.73,314.05,256.17,314.18Z"/><path class="cls-9" d="M245.2,260.87c-1.92,20.92-3.71,40-4.78,52.81H221.26c-.53-13-1.64-32.21-2.81-52.79-.45-7.86,5.72-14.56,13.33-14.46l.95,0A13,13,0,0,1,245.2,260.87Z"/><path class="cls-10" d="M241.9,317.13c0,.45-22.09.85-22.14.31-.47-4.76-1.24-14.91-1.5-17.65l24.54.08C242.5,305,242.09,313.88,241.9,317.13Z"/><path class="cls-11" d="M206.05,348.79c-5.82,0-10.72-1.6-12-4.6a18.2,18.2,0,0,1-.09-5.4c.17-1.6,2.8-5.05,4.05-5.66,1.28,3.85,7.15,11.61,18,8.54,10.08-2.85,26.7-12.33,27.67-13.31,0,0,0,4.84-.6,5.19-7.72,4.81-22.71,12.38-22.91,12.46A39.23,39.23,0,0,1,206.05,348.79Z"/><path class="cls-12" d="M242.35,312.83c-.73.22-3,3.19-11.21,4.14-.69.09,0-3.68-.66-4.07-1.22-.7-13.46-1.1-14.2-.74-.58.29-.87,1.2-1.46,4.53-.64,1.85-19.45,16.2-20.48,21.54-.55,2.91,1.87,5.29,6.92,6.06a33.83,33.83,0,0,0,17.51-2c2.57-1,23.69-12.37,25-13.69,1.15-1.16-.25-12.3-.35-15.32C243.4,312.84,242.79,312.7,242.35,312.83Z"/><path class="cls-13" d="M155.42,189.06s11.19,4.67,15.58,38.52l1.85,14.11L162,244.3s-18.56-24.61-17.57-46.17S155.42,189.06,155.42,189.06Z"/><path class="cls-14" d="M69.09,260.12c.17,1.91.46,4.07.89,6.52.73,4.15,2.78,7.68,3.71,11.58,4.87.28,8.55.79,13.42.51,3.33-.19,9.2-.56,13.12-2.63L98.79,263l-7-4.62a39.24,39.24,0,0,0-10.11-.69A44.59,44.59,0,0,0,69.09,260.12Z"/><path class="cls-9" d="M100.84,270.17q1.17,3.66,2.25,7.2c9.54,31,14.69,55.47,14.69,55.47l12.32-2.55c5.27-19.12,3.14-45,1.6-57.67-.58-4.7-1.07-7.56-1.07-7.56S89.86,235.81,100.84,270.17Z"/><path class="cls-14" d="M102.48,274.45c.78,2.44,2.19,5.82,2.91,8.18a33.87,33.87,0,0,0,6.58.5,47.3,47.3,0,0,0,14.62-2.36,26,26,0,0,0,5.28-2.47c-.58-4.7-.62-7.82-.62-7.82S91.5,240.08,102.48,274.45Z"/><polygon class="cls-15" points="63.33 225.23 66.14 237.25 66.29 265.72 96.93 264.67 96.79 260.71 96.43 250.53 95.85 233.53 95.1 211.87 63.33 225.23"/><path class="cls-16" d="M97.37,262.33c-4.27.8-24.12,4.19-31.56-.72a.79.79,0,0,0-1.24.71l.67,9.55a.78.78,0,0,0,.54.7c3.14,1,20.28,6,33.15-1.67a.81.81,0,0,0,.39-.8l-1-7.1A.79.79,0,0,0,97.37,262.33Z"/><path class="cls-15" d="M77.85,238.25l9.37,9.64,8.29,8,1.28,4.86,2.75,10.48,1.13.34c10.8,3.21,33.48-3.43,33.48-3.43V238.16l-1.06-14.4-37.24,9.77Z"/><path class="cls-17" d="M63.33,225.23l1.11,15.19a70,70,0,0,0,29.62,9.89c.8.08,1.59.18,2.37.22,15.58.83,39.74-4.74,37.33-4.2L128.47,225l-32.62,8.56-.75-21.66Z"/><path class="cls-18" d="M133.81,262.3c-5.41,2-21.44,7.3-34.56,4A1.53,1.53,0,0,0,97.34,268l1.38,8a1.52,1.52,0,0,0,1.08,1.21c4.27,1.22,22.48,5.49,36.09-5.72a1.49,1.49,0,0,0,.54-1.31l-.56-6.58A1.54,1.54,0,0,0,133.81,262.3Z"/><path class="cls-10" d="M132.35,287.46s-8.77,9.37-24.77,4c0,0,7,25.34,10,37.15l8.64,5.52,6.11-19.4S134,297,132.35,287.46Z"/><path class="cls-10" d="M100.75,284.54s-14.65,7.76-25.48-.87c0,0,8.07,27.3,12,29.89s16.51-2.89,16.51-2.89Z"/><path class="cls-11" d="M122.15,343.42c0,5.35,3.38,12.34,20.65,12.31,7.45,0,12.68-4.33,12.68-9.68s-11.3-12.15-18.76-12.15S122.15,338.07,122.15,343.42Z"/><path class="cls-11" d="M118.51,330.61c-2.59,6.38-4.09,18.17,11.55,15.28,7.33-1.35,13.76-2.55,13.76-7.9s-8-9.13-15.42-9.13S120.07,326.79,118.51,330.61Z"/><path class="cls-12" d="M123.25,331.19h-.12a6.93,6.93,0,0,1-6.29-3.06h0s-2.55,11.62,5.31,15.28,22.21-3.62,22.21-3.62l3.91-2.22c-6.46-4-8.74-7.53-12.15-9.47h0l-10.64-2.45"/><path class="cls-12" d="M121,343.22c.56,5.76,13.61,12.68,27.15,9.07,7.52-2,8.61-5.36,6.19-10.64-3.16-6.92-10-8.9-16.11-7.82C130.55,335.19,120.44,337.45,121,343.22Z"/><path class="cls-12" d="M137.56,329.11c-1.74-.41-4.24-1.3-5.2-3.39-1.3-2.85,1.36-5.49,0-7.26-1.81-2.43-8.65,0-9.91.46-3.08,1.09-5.56,2-6.34,4.19-1,2.7,1,6.44,4.73,9.09"/><path class="cls-11" d="M106.71,325.37a6.32,6.32,0,0,1,1.41,4.94c-.54,2.74-6.6,5.62-6.6,5.62s-2.92,11.55-19.35,12.91c-18.76,1.55-13.63-13.54-13.63-13.54Z"/><path class="cls-12" d="M100.08,332s3.22,12.16-17.82,14.83c-19.82,2.52-21.63-18.88,3.25-22.09S100.08,332,100.08,332Z"/><path class="cls-12" d="M105.33,322.59a56.4,56.4,0,0,1-1-7.77c-.09-1.73-.11-3.5-1.08-3.95-.69-.32-1.54.2-2.08.5a20.3,20.3,0,0,1-8.85,2.42c-4,0-6.35-2.79-7-2-.42.49.56,1.81,1.81,4.16A43.25,43.25,0,0,1,90,322.59Z"/><path class="cls-19" d="M88.52,321.23a66.93,66.93,0,0,0-7.66,4.47s8.83-2.27,19.17,9.22l6.5-5.19s3-3.29-1.38-7.8"/><path class="cls-20" d="M134.07,289.32c0,.08.11,1.46.07,1.53-.51.87-4.3,6-13.8,7-9.34,1-12.68-1.14-13.38-1.63a1.87,1.87,0,0,1-.62-.88l-.78-3.53c-.08-.28.46-1.08.74-1,3.2.93,16.64,4.77,26.84-4.63a.36.36,0,0,1,.61.22Z"/><path class="cls-20" d="M102.18,288.32a.37.37,0,0,1-.05.23c-.45.73-3.4,4.68-14.91,4.75-12.68.07-13-4.36-13-4.36l-.72-3.31c-.18-.79.49-1.2.76-1.08,3.29,1.42,16.46,6.27,26.81-.88.5-.34.79.53.81.88Z"/><path class="cls-13" d="M83.05,183.14c6.17.93,24.93,13.47-.23,62.32l-6.91.66c-.6-1.08,1.39-32.47.08-38.83"/><path class="cls-13" d="M94.24,247.14a10.5,10.5,0,0,1-8.12,4.44c-5.75.91-13.19,1.67-16,2.13a14.42,14.42,0,0,1-8.24-.52c-3.35-1.2-5.7-1.79-5.72-3,0,0-.13,0-.19-.08s0,0,0,0a7.28,7.28,0,0,1-3-1.87,1.44,1.44,0,0,1-.17-1.93.87.87,0,0,1-.18-.11.3.3,0,0,1-.1-.07,5.47,5.47,0,0,1-2-1.85,1.85,1.85,0,0,1,.13-2.26,6.3,6.3,0,0,1,4.06-1.91h0a3.62,3.62,0,0,1,.66,0h0a.34.34,0,0,1,0-.1,3.28,3.28,0,0,1,.27-1,3.94,3.94,0,0,1,3.94-2c2.15.23,4.73.86,5.93.93,3.21-.82,5.12-1.23,7.38-1.83a3.36,3.36,0,0,1,.48-.13l1-.28c2.94-.83,5.08-1.92,6.18-2.08-4.58-.88-6.93-2.47-7.77-4a4.51,4.51,0,0,1-.15-3.84,1.91,1.91,0,0,1,.83-.9c1.37-.71,1.9.08,3.64,1.1a17.49,17.49,0,0,0,7.94,2.3,11.28,11.28,0,0,1,8.13,3.52c2.49,2.36,4.16,7.76,3.57,11.18"/><g class="cls-21"><path class="cls-22" d="M72.76,229.67a4.51,4.51,0,0,1-.15-3.84c.41,1.87,1.17,3.78,2.35,4.35a43,43,0,0,0,7,3c1.24,2.75,2.11,3.6,3.43,4.5-2.71-.47-3.68-2.39-4.83-4C76,232.8,73.6,231.21,72.76,229.67Z"/></g><path class="cls-23" d="M79.88,241.66a18.44,18.44,0,0,1,3.4-1.49,13.31,13.31,0,0,1,3.73-.63,8.9,8.9,0,0,1,3.74.78,7,7,0,0,1,1.6,1,6,6,0,0,1,1.2,1.41,8.44,8.44,0,0,0-1.49-1,9.22,9.22,0,0,0-1.62-.7,11.87,11.87,0,0,0-3.45-.62,15.29,15.29,0,0,0-3.56.29A32.62,32.62,0,0,0,79.88,241.66Z"/><path class="cls-23" d="M71.59,248.89l-.37.1a38,38,0,0,1-3.8.87c-.71.13-1.41.24-2.1.35a5.51,5.51,0,0,1-2.31-.07,13.8,13.8,0,0,1-2-.91,7,7,0,0,0-1.87-.63,3,3,0,0,0-3,1.58l-.2-.08s0,0,0,0a3.12,3.12,0,0,1,3.31-2.16c1.52,0,2.94.86,4.09,1.23a5.11,5.11,0,0,0,1.89.06l2.1-.2c1.28-.1,2.55-.16,3.85-.14A3,3,0,0,1,71.59,248.89Z"/><path class="cls-23" d="M72.17,240s0,.06,0,.08a8.73,8.73,0,0,1-1,.3v0c-1.06.32-2.13.6-3.19.87a31.36,31.36,0,0,1-4.65.91,11.17,11.17,0,0,1-4.76-.75,24.87,24.87,0,0,0-3.85-1.29,4,4,0,0,1,.69,0,.15.15,0,0,1,0-.09,29.43,29.43,0,0,1,3.4.58,12.85,12.85,0,0,0,4.42.44c1.48-.1,3-.42,4.56-.62,1.13-.16,2.28-.3,3.45-.39C71.53,240,71.85,240,72.17,240Z"/><path class="cls-23" d="M71,244.17c-.18.07-.37.14-.55.19-1.36.48-2.75.9-4.15,1.28a20.7,20.7,0,0,1-2.41.6,6.07,6.07,0,0,1-2.58,0,25.51,25.51,0,0,0-4.75-.88,6.76,6.76,0,0,0-3.81.94.94.94,0,0,1-.18-.12.27.27,0,0,1-.1-.06,5.93,5.93,0,0,1,4.08-1.37,19.31,19.31,0,0,1,2.52.1c.86.12,1.64.3,2.39.46a5.88,5.88,0,0,0,2.29.06c.79-.1,1.6-.27,2.4-.42,1.41-.28,2.84-.52,4.29-.69Z"/><path class="cls-24" d="M70.81,252.08S68.65,242,73.38,236"/><path class="cls-25" d="M70.81,252.08c-1.27-5.31-1.13-11.7,2.57-16-3.09,4.72-3.14,10.62-2.57,16Z"/><polyline class="cls-13" points="164.54 201.39 156.82 184.84 153.53 177.78 132.31 183.09 138.55 195.64 145.38 209.03"/><path class="cls-26" d="M132.31,183.09,139,195.47c7.55-1.85,13.32-6.28,17.52-10.22l-3.13-7.43Z"/><path class="cls-13" d="M46.18,202.6s8.91-3.24,18.95-14.13a52.29,52.29,0,0,0,7.62-11.28c5.87-11.19-17.43-14.42-17.43-14.42L48,170.53l-8.71,12.66C34.72,187.28,23.5,210.65,46.18,202.6Z"/><path class="cls-26" d="M48.11,171c2.53,4.45,7.2,10.74,16.69,17.18a48.58,48.58,0,0,0,8-10.95c5.87-11.19-17.43-14.42-17.43-14.42Z"/><path class="cls-10" d="M62.72,161.33c0,13.91,18.5,25.19,41.32,25.19s41.32-11.28,41.32-25.19c0-10.47-10.48-19.45-25.4-23.25A64.65,64.65,0,0,0,104,136.14a62.47,62.47,0,0,0-20.88,3.45C70.93,144,62.72,152.06,62.72,161.33Z"/><path class="cls-10" d="M134.17,186.49l.63,2.61c14.3-.95,23.94-10.8,23.94-10.8a20.44,20.44,0,0,0-1.12-3.65c-6.72-13.2-9.35-19.55-14.83-24.89a42.36,42.36,0,0,0-22.1-11.31"/><path class="cls-10" d="M83.9,139.39s-10.29-.67-22.27,10.91C58.41,153.42,52.72,159.5,50,164c-.54.89-1.08,1.8-1.59,2.75,0,0,11.17,15.38,24.62,19.19l.42-1.77"/><path class="cls-10" d="M70.41,165.44c-8.09,37.61-9.52,75.33-9.52,75.33h0c39,15.2,75.41,1.33,75.41,1.33,3.35-53-3.7-78.52-3.7-78.52"/><ellipse class="cls-27" cx="100.24" cy="158.49" rx="11.34" ry="3.71"/><path class="cls-13" d="M82.81,145s5.8,9.44,21.36,9.82S122.45,145,122.45,145a18,18,0,0,1-.82-1.87c-3.29-8.7.82-18.45.82-18.45s-43.06-15-37.91,0c3.51,10.24,1.44,16-.24,18.56A7.52,7.52,0,0,1,82.81,145Z"/><path class="cls-26" d="M87.09,137.66a35.44,35.44,0,0,0,27.87-.09c-2.5-6.75.87-14.43.87-14.43s-32.74-11.68-28.82,0C89.67,131.09,88.36,135.64,87.09,137.66Z"/><path class="cls-25" d="M161.8,204.29A17.73,17.73,0,0,0,148.2,210a14,14,0,0,1,13.6-5.73Z"/><path class="cls-13" d="M172.7,241.58h0c0-1,0-1,.18.29a25,25,0,0,1,0,4.5A20.3,20.3,0,0,0,174.1,252c.94,3.08.07,6.19-.14,9.32-.09,1.29,1.37,6.62-1.33,6.56-1.76,0-2.55-1.84-2.75-3.48a21,21,0,0,0-.8,2,17.15,17.15,0,0,1-1.07,3c-.69,1.23-1.91.94-2.51-.12a5.89,5.89,0,0,1-.55-1.53c-.14,1.2-.76,5.12-2.65,4.13-2.39-1.24-2.15-5.39-1.93-7.58.19-1.88.58-3.72.77-5.59.09-1.12-.12-2.3.06-3.39a20.46,20.46,0,0,0-2.52,4.48,39.12,39.12,0,0,0-1.29,4c-.48,1.63-1.16,5.05-3.15,5.52-.94.23-1.63-.81-2-1.49-.92-1.72-.5-4.1-.17-5.89.72-3.85,2.77-8,2.36-12.06-1.2.2-2.46,1-3.6,1.31a8.94,8.94,0,0,1-4.39.11c-2.24-.54-3.5-3.56-1.78-5.32,2.66-2.72,7.2-.27,10.18-2.54a12.82,12.82,0,0,1,2.1-1.58c.73-.33,2.53,0,2.81-2.12"/><path class="cls-23" d="M167.37,261.35a23.19,23.19,0,0,0-1.2,5.13,6.69,6.69,0,0,0,.06,1.19c0,.73.12,1.47.64,1.67-.27.15-.56,0-.81-.65a11.27,11.27,0,0,1-.7-3.45c.3-1.44.72-2.86,1.07-4.26.49-1.85.78-3.86,2.17-5.25A38.87,38.87,0,0,1,167.37,261.35Z"/><path class="cls-23" d="M170.43,263.11c.14-.35.25-.72.37-1.09a42.64,42.64,0,0,0,.89-8.87c.81,1.66.63,3.82.56,5.64-.19,1-.4,2.09-.51,3.16,0,.23-.05.5-.06.77a5.44,5.44,0,0,0,.26,3.45,2.29,2.29,0,0,0,.56.74,1.47,1.47,0,0,1-1.28-.91,12.39,12.39,0,0,1-.79-2.86Z"/><path class="cls-28" d="M157.62,103.22c-3.59,7.22-10.16,10.77-16.07,8.29s-3.94-6.63-.81-14.07,2.61-7.26,8.48-9.85C160.84,82.45,161.38,95.64,157.62,103.22Z"/><path class="cls-29" d="M152,90.82a3.05,3.05,0,0,1,2.72.12c1.06.7,1.27,2.16,1.22,3.42A20.79,20.79,0,0,1,151,106.52a5.22,5.22,0,0,1-1.6,1.44,2,2,0,0,1-2.06-.1,2.23,2.23,0,0,1-.56-2.24c.43-2,2.19-3.41,3.6-4.92a4,4,0,0,0,.94-1.38,1.56,1.56,0,0,0-.28-1.57,2,2,0,0,0-1.2-.49,11.45,11.45,0,0,0-2.68.11c-.44-1.31.59-2.62,1.31-3.59A8.08,8.08,0,0,1,152,90.82Z"/><path class="cls-28" d="M48.65,104.6c3.66,6.93,11,8.08,15.62,4.8s2.4-7.11-1.26-14-3.51-6.61-8.89-8.3C44.36,84,45,97.67,48.65,104.6Z"/><path class="cls-29" d="M52.61,90.37a2.31,2.31,0,0,0-2.28.5c-.79.84-.76,2.31-.55,3.56a22.3,22.3,0,0,0,5.83,11.35,4.64,4.64,0,0,0,1.55,1.2,1.5,1.5,0,0,0,1.72-.38,2.56,2.56,0,0,0,.16-2.3c-.65-1.93-2.32-3.07-3.71-4.36a4,4,0,0,1-1-1.24,1.77,1.77,0,0,1,0-1.6,1.63,1.63,0,0,1,1-.64,8.23,8.23,0,0,1,2.26-.27c.2-1.36-.86-2.51-1.6-3.37A7.08,7.08,0,0,0,52.61,90.37Z"/><path class="cls-28" d="M146.4,66.71C145.33,39.85,129.77,23.09,99.33,25,69.78,26.9,53.57,43.31,54.64,70.17c.5,12.41,4.71,33.65,4.77,34.33,2.13,26.18,22,36.83,46.3,35.67,12.48-.6,39.43-12.56,39-41.09C144.74,98.4,146.89,79.12,146.4,66.71Z"/><path class="cls-29" d="M131.28,54.17s-7.67,10.94-40.85,8.91l1.23-4.53s-9.29,5.84-28.81,8.21l-5.6,22.89,5.86-49.6,70.4-1.78,10,11.95L142,63.91s4.46,22.92,2.69,32.17l-5.5-22.41S131.64,88.65,131.28,54.17Z"/><path class="cls-30" d="M145.61,30.79c1,.06,0,0,1,.22-.67-2-1.35-4-2.11-5.93-.19-.23-.38-.46-.57-.71l-4-5.3c-.15-.09-.3-.18-.46-.26-1.79.35-.84.94-.84.94C136.1,2.11,105.58,1,93.94,6.05,88.26,8.51,84.25,9.53,81.48,9.6c-1.69.63-3.38,1.24-5.09,1.83l-5.56,2.75c-1.89,1-3.76,2.09-5.65,3.12-1.09.6-2.18,1.2-3.29,1.78,0,.46.08.72.08.72-24,15.58-15.75,43.09-15.75,43.09,1.14-4.26,3-5.43,3-5.43-2.78,8.74.42,19.34.42,19.34,1.15,7.36,7.6,12.85,7.6,12.85L64.48,49.6l-.29,15.66c11-4.59,24.51-3.55,31.11-14.66-3.64,7.95-6.6,11.11-6.6,11.11,37.66,1,44.46-10.37,44.46-10.37-3.65,20.17,3.75,24.49,3.75,24.49l2.8-3.5c4.42,10.72,5.37,22.91,5.37,22.91,7.24-12.71,11.93-22.67,9.72-41.53C152.45,33.74,145.61,30.79,145.61,30.79Z"/><path class="cls-30" d="M88.62,68.73c-3.49-.43-15.37,1.21-17.31,8.81,0,0,8.94-4.92,17.24-4.88C88.55,72.66,90.38,69,88.62,68.73Z"/><path class="cls-30" d="M112.49,67.85c3.37-1,15.36-1.27,18.49,5.92,0,0-9.62-3.42-17.79-2C113.19,71.72,110.78,68.35,112.49,67.85Z"/><path class="cls-31" d="M95.3,101.54a14.21,14.21,0,0,0,6,3c3.42.65,8-4.06,8-4.06"/><path class="cls-32" d="M95.3,101.54c2.12,1.41,4.6,2.9,7.21,2.77a9.12,9.12,0,0,0,3.6-1.45,27.07,27.07,0,0,0,3.2-2.38c-4.63,5.15-8.72,5.83-14,1.06Z"/><ellipse class="cls-33" cx="83.9" cy="88.35" rx="8.69" ry="9.2"/><ellipse class="cls-34" cx="83.78" cy="88.25" rx="5.82" ry="6.16"/><ellipse class="cls-35" cx="81.06" cy="83.29" rx="1.6" ry="1.69"/><ellipse class="cls-33" cx="121.4" cy="88.25" rx="9.2" ry="8.69" transform="translate(22.57 201.2) rotate(-84.83)"/><ellipse class="cls-34" cx="121.29" cy="88.14" rx="6.16" ry="5.82" transform="translate(22.57 200.98) rotate(-84.83)"/><ellipse class="cls-35" cx="119.03" cy="82.96" rx="1.69" ry="1.6" transform="matrix(0.09, -1, 1, 0.09, 25.67, 194.02)"/><path class="cls-36" d="M117.52,110.16c.68-.27,1.47-1.36,2.08-1.74a4.76,4.76,0,0,1,2.05-.69c.93-.09,2.08.25,2.27,1.1a1.91,1.91,0,0,1-1,1.77,6.08,6.08,0,0,1-3.61,1.12,1.84,1.84,0,0,1-1.49-.57c-.31-.44,0-1.2.6-1.11Z"/><path class="cls-36" d="M87.23,112.05c-.43-.48-1.13-1.82-1.69-2.18a3,3,0,0,0-1.21-.48,2,2,0,0,0-2,1.33,2.42,2.42,0,0,0,.53,2.33,4.61,4.61,0,0,0,2.2,1.34,3.42,3.42,0,0,0,1.76.16A1.54,1.54,0,0,0,88,113.46a1.46,1.46,0,0,0-.77-1.41,5,5,0,0,0-1.68-.55Z"/><path class="cls-37" d="M84.31,111.33a14.93,14.93,0,0,0,.76,1.73c1.67,3.36,5.64,9.55,10.68,11.86a14.05,14.05,0,0,0,11.72-.21c4.82-2.26,7-5,9.77-9.5.89-1.47,1.85-3.15,3-5.06,0,0,.27-.35-.18-.37a2.94,2.94,0,0,0-.75.13c-2.71.75-9.58,4.57-20.22,4-8.18-.4-12.64-2.2-14.28-3a.35.35,0,0,0-.48.16A.3.3,0,0,0,84.31,111.33Z"/><path class="cls-38" d="M85.07,113.06c1.67,3.36,5.64,9.55,10.68,11.86a14.05,14.05,0,0,0,11.72-.21c4.82-2.26,7-5,9.77-9.5-3.22,3.55-8.64,8.21-15.24,8.66C93,124.48,86.83,115.88,85.07,113.06Z"/><path class="cls-39" d="M84.32,111.13a34.6,34.6,0,0,0,18.53,4.31c9.82-.41,15.43-4.32,17.2-5.66a2.55,2.55,0,0,0-.75.13c-2.71.75-9.58,4.57-20.22,4-8.17-.4-12.64-2.2-14.28-3A.35.35,0,0,0,84.32,111.13Z"/><path class="cls-40" d="M116.05,111.85c-.21.09-11.63,7-27.35,1.3,0,0,2.26,5.17,11.74,5.66C111.27,119.37,116.05,111.85,116.05,111.85Z"/><path class="cls-41" d="M102,123.74c2.23-.13,5-.72,6.11-1.71-2-1.94-4.51-.52-6.66-1.14-4.49-1.3-6,.32-6.63,1.21C96.09,123.14,98.86,123.91,102,123.74Z"/><rect class="cls-42" x="308.51" y="275.11" width="12.47" height="23.4"/><rect class="cls-42" x="24.86" y="275.11" width="12.47" height="25.74"/><path class="cls-43" d="M314.75,382.46c3.45,0,6.24-3.14,6.24-7V259.37c0-3.87-2.79-7-6.24-7s-6.24,3.14-6.24,7V375.44C308.51,379.32,311.3,382.46,314.75,382.46Z"/><path class="cls-5" d="M282.45,351.9c3.45,0,6.24-3.14,6.24-7V228.81c0-3.88-2.79-7-6.24-7s-6.23,3.13-6.23,7V344.88C276.22,348.76,279,351.9,282.45,351.9Z"/><path class="cls-43" d="M31.1,382.46c-3.45,0-6.24-3.14-6.24-7V259.37c0-3.87,2.79-7,6.24-7s6.24,3.14,6.24,7V375.44C37.34,379.32,34.55,382.46,31.1,382.46Z"/><path class="cls-5" d="M63.4,351.9c-3.45,0-6.24-3.14-6.24-7V228.81c0-3.88,2.79-7,6.24-7s6.23,3.13,6.23,7V344.88C69.63,348.76,66.84,351.9,63.4,351.9Z"/><path class="cls-44" d="M16.18,239.66H332.64a0,0,0,0,1,0,0v54.61a.55.55,0,0,1-.55.55H16.73a.55.55,0,0,1-.55-.55V239.66A0,0,0,0,1,16.18,239.66Z"/><polygon class="cls-42" points="16.18 252.17 332.64 249.07 332.64 239.66 16.18 239.66 16.18 252.17"/><path class="cls-45" d="M348.82,235.2H0v9.62a2.11,2.11,0,0,0,2.11,2.12H346.7a2.12,2.12,0,0,0,2.12-2.12Z"/><path class="cls-46" d="M345.53,238.31H3.29a3.29,3.29,0,0,1-2.94-4.76L24.86,199a3.31,3.31,0,0,1,2.94-1.82H323.23a3.28,3.28,0,0,1,2.94,1.82l22.3,34.51A3.29,3.29,0,0,1,345.53,238.31Z"/><polygon class="cls-11" points="218 296.17 218.44 299.36 242.97 299.36 243.83 294.81 217.33 294.81 218 296.17"/><polygon class="cls-11" points="253.43 295.28 254.29 299.16 278.82 299.16 279.93 295.28 253.43 295.28"/><rect class="cls-6" x="211.56" y="127.04" width="81.35" height="69.05"/><path class="cls-7" d="M212.25,197.2V124.68H207a7.87,7.87,0,0,0-7.87,7.88V197.2Z"/><path class="cls-7" d="M292.14,197.2V124.68h5.27a7.88,7.88,0,0,1,7.88,7.88V197.2Z"/><path class="cls-47" d="M315.6,197.22q-3.42-6.15-6.82-12.32l-3.29-7.06-21.23,5.31,5.26,12.17,5.2,1.73Z"/><path class="cls-47" d="M207.28,162.83,200,170.59l-8.71,12.66c-2.07,1.85-6.32,8.31-7.47,13.52h13.57c3.53.06,8,.1,11.45.21a93.24,93.24,0,0,0,8.29-8.45,52.28,52.28,0,0,0,7.63-11.28C230.58,166.06,207.28,162.83,207.28,162.83Z"/><path class="cls-26" d="M284.26,183.15l6.68,12.38c7.55-1.85,13.31-6.28,17.52-10.22l-3.14-7.42Z"/><path class="cls-26" d="M200.07,171c2.53,4.45,7.19,10.74,16.69,17.19a49.54,49.54,0,0,0,8-11c5.87-11.19-17.43-14.42-17.43-14.42Z"/><path class="cls-10" d="M214.67,161.39c0,13.91,18.5,25.19,41.33,25.19s41.32-11.28,41.32-25.19c0-10.47-10.49-19.45-25.41-23.25A64.63,64.63,0,0,0,256,136.2a62.42,62.42,0,0,0-20.88,3.45C222.89,144,214.67,152.13,214.67,161.39Z"/><path class="cls-10" d="M286.12,186.55l.63,2.61c14.3-.94,23.94-10.8,23.94-10.8a18.93,18.93,0,0,0-1.12-3.65c-6.72-13.2-9.34-19.55-14.83-24.89a42.33,42.33,0,0,0-22.1-11.31"/><path class="cls-10" d="M235.86,139.45s-10.29-.67-22.28,10.92c-3.22,3.11-8.9,9.19-11.67,13.74-.54.88-1.07,1.79-1.58,2.74,0,0,11.17,15.38,24.62,19.19l.42-1.77"/><path class="cls-10" d="M287,199.33a5.22,5.22,0,0,1,1.14-1.16c.65-32.31-3.6-34.53-3.6-34.53l-62.19,1.87c-2.83,13.15-4.54,24-5.59,32.51h.53a5.52,5.52,0,0,1,5.42,5.42,5.41,5.41,0,0,1-3.72,5.13,7.48,7.48,0,0,1-.74.39,5.52,5.52,0,0,1-.82.6,4.81,4.81,0,0,1-1.85.64,107.52,107.52,0,0,0-.34,11.6l2.08-4c39,15.19,69.87,2,69.87,2,.22-3.41.39-6.62.54-9.63h-.6a5.51,5.51,0,0,1-5.43-5.42C281.58,201.8,284.22,199.48,287,199.33Z"/><ellipse class="cls-48" cx="254.1" cy="155.55" rx="11.34" ry="3.71"/><path class="cls-49" d="M240.6,137.59s-6.26,2,.81,8.44c2.32,1.33,9.69,5.13,18.32,3a22.57,22.57,0,0,0,6.24-2.62,11.41,11.41,0,0,0,4.41-4.41c.57-1.07,1.17-2.17.78-3.29-.46-1.29-2.07-2.15-4.09-2.23Z"/><path class="cls-13" d="M268.09,144.92a15.84,15.84,0,0,1-13.72,8.27c-10,.32-11.76-8.27-11.76-8.27a12.74,12.74,0,0,0,.53-1.58c2.11-7.33-.53-15.54-.53-15.54s27.68-12.67,24.37,0c-2.25,8.63-.92,13.44.16,15.63A6.08,6.08,0,0,0,268.09,144.92Z"/><path class="cls-26" d="M265.06,137.56a27.72,27.72,0,0,1-21.76-.07c1.95-5.27-.69-11.27-.69-11.27s25.57-9.12,22.51,0C263,132.43,264.06,136,265.06,137.56Z"/><path class="cls-50" d="M200.32,96.62c1.66,5.58,6.47,9.33,9.82,9s3.64-4.8,2.61-10.15-4.59-9.43-7.94-9.09C200.22,86.84,198.76,91.37,200.32,96.62Z"/><path class="cls-26" d="M207.87,89.64a3.54,3.54,0,0,0-3.39-.84A2.49,2.49,0,0,0,203,90.48a9.51,9.51,0,0,0,.43,6c.82,2.42,2.23,5,5.15,6.22a1.65,1.65,0,0,0,.84.17c.65-.08.77-.72.76-1.22l-.07-2.07a2.09,2.09,0,0,0-.35-1.32,4.28,4.28,0,0,0-1.33-.88,3.76,3.76,0,0,1-2-1.83,1.34,1.34,0,0,1,.73-1.59c.6-.29,1.81.13,2.25-.25C210.2,93.13,208.52,90.26,207.87,89.64Z"/><path class="cls-51" d="M308.14,97c-2.17,5.2-7.17,8-10.36,7s-3-5.44-1.48-10.52,5.37-8.43,8.57-7.46C309.23,87.4,310.17,92.14,308.14,97Z"/><path class="cls-26" d="M302.2,88.27a2.48,2.48,0,0,1,2.83-.33,2.61,2.61,0,0,1,1,1.82,10.73,10.73,0,0,1-1,5.78c-.9,2.22-2.3,4.51-4.79,5.27a1.2,1.2,0,0,1-.7,0c-.51-.17-.55-.81-.49-1.29l.26-2a2.21,2.21,0,0,1,.42-1.22A3.14,3.14,0,0,1,301,95.7a3.11,3.11,0,0,0,1.77-1.49,1.48,1.48,0,0,0-.43-1.63c-.47-.37-1.49-.13-1.8-.56C300,91.3,301.61,88.78,302.2,88.27Z"/><path class="cls-13" d="M298.07,102.29c-2.59,24.33-33.57,35.07-42.43,34.13-11.3-1.2-41.64-4.27-46.59-47.08a8.15,8.15,0,0,1,0-1.1h0c.43-16.74-5.65-32-4-38.48,5.57-22.44,9.61-13.69,36.16-16.21,24.84-2.36,35.42-2.43,50.71,10.34,1.35,1.13,5.85,2.41,5.92,6.44.12,6.87.28,12,.42,16.13C298.77,80.68,300.13,83,298.07,102.29Z"/><path class="cls-52" d="M298.26,66.45c-6.92-9.11-15.46-13.1-25.82-14.81-11.66,8.34-24,13.24-38.08,10.42,16.78-14.38,4.54-9.49,7.76-12.93,0,3.66-7,9-14.21,6.08a46.72,46.72,0,0,1-13,15.79c-1.9,1.48-5,12.62-5.36,14.16-.22.9-.3,2-.48,3.07.43-16.74-5.65-32-4-38.48,5.57-22.44,9.61-13.69,36.16-16.21,24.84-2.36,35.42-2.43,50.71,10.34,1.35,1.13,5.85,2.41,5.92,6.44C298,57.19,298.12,62.33,298.26,66.45Z"/><path class="cls-53" d="M242,69.87l-.81-1a6.84,6.84,0,0,0-6.3-2.83,11.21,11.21,0,0,0-7.92,5.77c-.27.46-.48.65-.07.33C229.65,69.87,236.8,67.08,242,69.87Z"/><path class="cls-54" d="M270.44,49.47S263.64,61.21,234.36,61c0,0,12.52-10.72,5.63-12.42,0,0-4.54,7.74-14.36,4,0,0,4.66.91-12.6,17.36,0,0-4.92,5.69-4,19.38.06.91-6.81-1.11-7.13-10.73,0,0-12.18-10-2.33-22.91,0,0-10.55-18.23,7.65-24.36,0,0,2-18,16.16-19,0,0,15-22,36.24-6.74,0,0,19.06-9.13,29.43,9.08,0,0,14.65,5.37,12.59,18.82,0,0,19.4,9.16,7.32,23.31,0,0,5.27,10.79-4.71,23.35l-5,12.8-.74-5c-.12-10.64,1.69-14.33-3.08-23.84C295.48,64.2,291,48.87,270.44,49.47Z"/><path class="cls-55" d="M249.82,98.82s.6,3.16,5.31,3.27,5.6-3.27,5.6-3.27S256,103.56,249.82,98.82Z"/><path class="cls-53" d="M267.94,68.61l.82-1a6.82,6.82,0,0,1,6.29-2.84A11.2,11.2,0,0,1,283,70.51c.27.47.48.65.08.33C280.25,68.61,273.11,65.82,267.94,68.61Z"/><path class="cls-26" d="M240.67,108.36c0,1.39-.15,2.29-1.54,2.29s-4.69-2.94-5-4.29c-.64-2.52,1.2-3.16,2.52-2.52S240.67,107,240.67,108.36Z"/><path class="cls-26" d="M272.26,109.11c0,1.39.15,2.3,1.54,2.3s4.69-3,5-4.29c.64-2.52-1.2-3.16-2.52-2.52S272.26,107.72,272.26,109.11Z"/><ellipse class="cls-33" cx="237.91" cy="85.94" rx="8.69" ry="9.2"/><ellipse class="cls-34" cx="237.78" cy="85.84" rx="5.82" ry="6.16"/><ellipse class="cls-35" cx="235.06" cy="80.89" rx="1.6" ry="1.69"/><ellipse class="cls-33" cx="275.41" cy="85.84" rx="9.2" ry="8.69" transform="translate(165.08 352.39) rotate(-84.83)"/><ellipse class="cls-34" cx="275.3" cy="85.73" rx="6.16" ry="5.82" transform="translate(165.08 352.18) rotate(-84.83)"/><ellipse class="cls-35" cx="273.04" cy="80.55" rx="1.69" ry="1.6" transform="translate(168.19 345.21) rotate(-84.83)"/><path class="cls-53" d="M255.77,122.42c13.29,0,24.5-17.91,22-17.07-3.91,1.28-3.57,2.17-14.07,2.73-2.06.11-6.35.26-9.51.13a104.24,104.24,0,0,1-13.94-1.58c-1.92-.37-3.49-1.43-4.62-1.31C232.66,105.62,244.16,122.42,255.77,122.42Z"/><path class="cls-56" d="M255.77,122.42a13.84,13.84,0,0,1-7.42-2.23,8.86,8.86,0,0,1,5.71-3.6c3.48-.67,8.87.13,10.77,2.82C262.87,121.42,258.23,122.36,255.77,122.42Z"/><path class="cls-35" d="M237.67,105.93a64.66,64.66,0,0,0,35.94.7c-2.09,3.09-8.57,7.56-16.89,7.76C247.71,114.6,241.15,109.61,237.67,105.93Z"/><path class="cls-57" d="M235.65,105.26a0,0,0,0,0,0,.08c2.71,1.27,20.53,8.86,42.1,0C277.72,105.35,260.75,111.21,235.65,105.26Z"/><path class="cls-57" d="M250.45,123a9.17,9.17,0,0,0,9.19.42A6.25,6.25,0,0,1,250.45,123Z"/><path class="cls-58" d="M220.09,161.33s.38,10.08,2.76,11.38S251.26,177,256,176.82s31.36-3.4,31.2-4.49.86-2.22,1.16-6.12,2.37-9.27-1.16-7.66-8.07-2.41-12-.29-30.62,8-40.31,3.31S220.09,161.33,220.09,161.33Z"/><path class="cls-10" d="M248.4,149.52c.39.92.57,1.41.68,1.73s.12.38.2.59a8.79,8.79,0,0,0,.86,1.72c-2,1.54-4.08,3.15-6.16,4.84-2.38,1.93-4.65,3.86-6.82,5.76-.32-1.56-.71-3.73-1-6.34a68,68,0,0,1-.61-11.26,59.42,59.42,0,0,1,1.14-9.62,14.84,14.84,0,0,1,5.66-2.49c1.28-.33,0,0,1.07-.12A96.51,96.51,0,0,0,248.4,149.52Z"/><path class="cls-10" d="M265.42,135.07a35.27,35.27,0,0,1-2.21,10.13,37.78,37.78,0,0,1-5,9.2l14.13,11.19a59.12,59.12,0,0,0,.68-28.51,9.75,9.75,0,0,0-1.76-1.89,10.9,10.9,0,0,0-2.45-1.53Z"/><path class="cls-59" d="M95.28,196.87c.14.46.28.91.43,1.36h0c4.47,13.94,11.8,20.91,11.8,20.91a76.15,76.15,0,0,0,5.77-8.87c.82-1.51,1.46-2.83,1.94-4a19.24,19.24,0,0,0,1.58-5.05c-.08-1.73-.19-3.41-.32-5s-.26-3-.42-4.35c-.45-4-1-7.51-1.67-10.61-.32-1.56-.65-3-1-4.37-2.21-8.69-4.59-12.9-4.5-13.52.27-1.78-6.53-1.16-6.53-1.16a65.65,65.65,0,0,1-1,9c-.17,1-.36,2-.55,3.06-.57,3-1.24,6-1.91,8.83-.24,1-.47,2-.7,2.89-.85,3.44-1.66,6.42-2.2,8.4C95.56,195.93,95.28,196.87,95.28,196.87Z"/><path class="cls-60" d="M100.81,174.24a45.08,45.08,0,0,1,13.18,7c-.32-1.57-.7-3.19-1-4.54a51,51,0,0,0-11.58-5.52C101.19,172.18,101,173.21,100.81,174.24Z"/><path class="cls-60" d="M98.55,186.21c4.9,2.18,13,6.14,17.55,10-.12-1.5-.29-3.23-.44-4.63a66,66,0,0,0-16.4-8.41C99,184.18,98.77,185.27,98.55,186.21Z"/><path class="cls-59" d="M95.69,196.87c.14.46.27,1,.42,1.48h0c4.81,2.44,12.28,6.61,16.9,11.63.82-1.51,1.41-2.78,1.9-3.92a98,98,0,0,0-18.58-11.59C95.89,196.05,95.69,196.87,95.69,196.87Z"/><path class="cls-59" d="M257.46,148.07c-.71-.29-3.16-2.27-8.16-.38s1.25,8.05,1.25,8.05H256S263.36,150.53,257.46,148.07Z"/><path class="cls-61" d="M243.73,184.89c.13.42.25.83.39,1.23h0c4,12.62,10.67,18.93,10.67,18.93a70.88,70.88,0,0,0,5.23-8c.74-1.37,1.31-2.56,1.75-3.59a17.24,17.24,0,0,0,1.43-4.57c-.07-1.57-.17-3.09-.29-4.54s-.23-2.67-.38-3.94c-.41-3.6-.93-6.8-1.51-9.6-.29-1.41-.59-2.73-.9-3.95-2-7.87-4.16-11.67-4.08-12.23.25-1.61-5.9-1.05-5.9-1.05a61.33,61.33,0,0,1-.9,8.09c-.16.91-.33,1.84-.51,2.77-.51,2.69-1.11,5.43-1.72,8-.22.89-.43,1.77-.64,2.62-.77,3.11-1.5,5.81-2,7.59C244,184.05,243.73,184.89,243.73,184.89Z"/><path class="cls-60" d="M248.73,164.42a41.13,41.13,0,0,1,11.93,6.33c-.29-1.41-.64-2.88-1-4.11a47,47,0,0,0-10.47-5C249.08,162.56,248.91,163.49,248.73,164.42Z"/><path class="cls-60" d="M246.68,175.25c4.44,2,11.75,5.55,15.88,9.08-.1-1.36-.25-2.93-.39-4.19a59.53,59.53,0,0,0-14.84-7.61C247.11,173.42,246.89,174.4,246.68,175.25Z"/><path class="cls-60" d="M244.1,184.89c.13.42.25.94.38,1.34h0c4.36,2.21,11.11,6,15.29,10.53.74-1.37,1.28-2.52,1.72-3.55a88.29,88.29,0,0,0-16.81-10.48C244.28,184.15,244.1,184.89,244.1,184.89Z"/><path class="cls-62" d="M253.71,227.83c18.07-3.77,41.45-2.83,58.94,1.48.08-.14.3-.53.37-.7l-19.95-29.53c-9.4-6.11-30.54-4.88-39.36.17Z"/><path class="cls-63" d="M253.71,226c18.07-3.77,40.16-3.42,57.65.89.29-.39,1.77-2.64,1.87-2.93l-20.16-27.15c-9.4-6.1-30.54-4.87-39.36.18Z"/><path class="cls-64" d="M253.71,223.69C271,218,296,218.87,313.23,224l-20.16-27.15c-9.4-6.1-30.54-4.87-39.36.18Z"/><path class="cls-65" d="M313.23,224.2h-.09c-18.38-5.47-43.3-5.62-59.29-.32a.33.33,0,0,1-.26,0c-.07,0-.15-.11-.15-.18V197a.18.18,0,0,1,.09-.17c9.07-5.2,30.36-6.23,39.7-.17l.06.05,20.16,27.15a.17.17,0,0,1,0,.24A.27.27,0,0,1,313.23,224.2ZM281,219.58a117.89,117.89,0,0,1,31.63,4L292.88,197c-9.17-5.91-29.94-4.91-38.92.15v26.23C262,220.75,271.57,219.63,281,219.58Z"/><path class="cls-66" d="M253.71,223.69c16.6-6.86,41.79-7.43,59.85-1.87l-20.49-25c-9.4-6.1-30.54-4.87-39.36.18Z"/><path class="cls-65" d="M253.72,223.9l-.13,0a.23.23,0,0,1-.15-.18V197a.18.18,0,0,1,.09-.17c9.07-5.2,30.36-6.23,39.7-.17l.06.05,20.49,25a.19.19,0,0,1,0,.25.3.3,0,0,1-.29.06c-18.31-5.63-43.38-4.85-59.62,1.86Zm.24-26.76v26.23c16.15-6.53,40.73-7.35,59-2l-20-24.41C283.71,191.08,262.94,192.08,254,197.14Z"/><path class="cls-35" d="M253.71,223.69c17.29-9.46,41.4-10.33,60-4.9l-20.44-22.42c-9.41-6.1-30.76-4.39-39.58.66Z"/><path class="cls-65" d="M253.72,223.9l-.13,0a.21.21,0,0,1-.15-.18V197a.18.18,0,0,1,.09-.17c9.29-5.32,30.72-6.61,39.92-.65l20.48,22.45a.17.17,0,0,1,0,.25.29.29,0,0,1-.29.07c-20.16-5.87-43.64-3.94-59.79,4.89A.21.21,0,0,1,253.72,223.9Zm.24-26.76V223.3c16.06-8.61,39.1-10.52,59.06-4.94L293.1,196.52C284.08,190.69,263.16,192,254,197.14Z"/><path class="cls-62" d="M253.71,227.83c-18.09-3.6-41.41-2.46-58.89,2a6.27,6.27,0,0,1-.37-.68l19.84-29.72c9.39-6.19,30.58-5.15,39.42-.18Z"/><path class="cls-63" d="M253.71,226c-18.09-3.61-40.13-3.06-57.61,1.4-.29-.38-1.79-2.62-1.89-2.91L219,198c9.39-6.19,25.9-5.92,34.74-.95Z"/><path class="cls-64" d="M253.71,223.69c-17.29-5.57-42.29-4.44-59.5.84L219.61,198c9.39-6.18,25.26-5.91,34.1-.94Z"/><path class="cls-65" d="M194.21,224.74a.27.27,0,0,1-.21-.09.19.19,0,0,1,0-.25l25.4-26.55c9.79-6.46,26-5.72,34.42-1a.22.22,0,0,1,.13.17v26.66a.21.21,0,0,1-.11.18.33.33,0,0,1-.26,0c-16-5.15-40.92-4.79-59.29.85Zm25.59-26.62-24.84,26c15.8-4.64,40.58-6.35,58.49-.71V197.14C245.17,192.55,229.37,191.83,219.8,198.12Z"/><path class="cls-66" d="M253.71,223.69c-16.62-6.71-42.09-7.67-60.14-1.95l22.66-24.35c9.39-6.19,28.64-5.33,37.48-.36Z"/><path class="cls-65" d="M253.72,223.9l-.13,0c-16.83-6.79-42-7.61-59.93-1.94a.28.28,0,0,1-.29-.06.17.17,0,0,1,0-.25L216,197.26c9.53-6.28,28.77-5.49,37.8-.4a.22.22,0,0,1,.13.17v26.66a.21.21,0,0,1-.11.18ZM220,217.76c11.91,0,24,1.86,33.44,5.61V197.14c-8.75-4.84-27.86-5.63-37,.39l-22.11,23.76A92.27,92.27,0,0,1,220,217.76Z"/><path class="cls-35" d="M253.71,223.69c-17-9.67-43.4-10.56-60.14-5.59l20.85-21.37c9.39-6.19,30.45-4.67,39.29.3Z"/><path class="cls-65" d="M253.72,223.9a.21.21,0,0,1-.13,0c-17.5-10-44-10.32-59.94-5.57a.3.3,0,0,1-.29-.07.17.17,0,0,1,0-.25l20.86-21.38c4.32-2.85,11.65-4.37,20.05-4.11,7.69.23,15.18,1.9,19.56,4.37a.22.22,0,0,1,.13.17v26.66a.17.17,0,0,1-.11.18Zm-37.78-9c12.87-.06,26.79,2.4,37.51,8.37V197.14c-9.14-5.06-29.93-6.12-38.85-.27l-20.28,20.8A83.6,83.6,0,0,1,215.94,214.92Z"/><path class="cls-67" d="M291,197.88a.29.29,0,0,0-.25-.35c-11.77-2.57-23.29-1.8-32.46,2.16a.26.26,0,0,0-.14.39.35.35,0,0,0,.31.15.51.51,0,0,0,.17,0c9-3.89,20.34-4.64,31.93-2.11A.37.37,0,0,0,291,197.88Zm2.77,2.71c.05-.15-.07-.3-.26-.34-12.71-2.36-23.89-1.37-35.2,3.11a.26.26,0,0,0-.16.38.36.36,0,0,0,.32.16l.15,0c11.15-4.41,22.19-5.38,34.72-3.06A.36.36,0,0,0,293.77,200.59Zm2.82,2.91a.3.3,0,0,0-.28-.34c-15.08-2.34-23.12-2-38.18,4.36a.26.26,0,0,0-.15.39.35.35,0,0,0,.31.15.51.51,0,0,0,.17,0c14.87-6.32,22.81-6.62,37.71-4.3A.36.36,0,0,0,296.59,203.5Zm-38.19,8.41a.4.4,0,0,0,.49.11c16.6-7.59,25.74-6.9,39.51-5.19a.35.35,0,0,0,.41-.24c0-.16-.11-.3-.3-.33-13.92-1.73-23.16-2.43-40,5.26A.27.27,0,0,0,258.4,211.91Zm0,4.36a.37.37,0,0,0,.31.15.33.33,0,0,0,.17,0c15.8-7,27.8-7.55,43-5.53a.35.35,0,0,0,.41-.24c0-.15-.09-.3-.29-.33-15.38-2-27.5-1.45-43.48,5.6A.27.27,0,0,0,258.42,216.27Z"/><path class="cls-67" d="M218.15,198.09c11.58-2.53,22.93-1.78,31.93,2.11a.45.45,0,0,0,.16,0,.37.37,0,0,0,.32-.15.26.26,0,0,0-.15-.39c-9.16-4-20.69-4.73-32.45-2.16a.29.29,0,0,0-.25.35A.37.37,0,0,0,218.15,198.09Zm-2.79,2.72c12.54-2.32,23.57-1.35,34.73,3.06l.15,0a.38.38,0,0,0,.32-.16.26.26,0,0,0-.16-.38c-11.31-4.48-22.49-5.47-35.2-3.11-.19,0-.31.19-.27.34A.37.37,0,0,0,215.36,200.81Zm-2.83,2.92c14.91-2.32,22.85-2,37.72,4.3a.45.45,0,0,0,.16,0,.37.37,0,0,0,.32-.15.27.27,0,0,0-.15-.39c-15.06-6.4-23.1-6.7-38.18-4.36-.2,0-.32.18-.28.34A.35.35,0,0,0,212.53,203.73Zm37.63,7.79c-16.8-7.69-26-7-40-5.26-.2,0-.33.17-.3.33a.35.35,0,0,0,.41.24c13.76-1.71,22.9-2.4,39.51,5.19a.33.33,0,0,0,.17,0,.36.36,0,0,0,.31-.15A.25.25,0,0,0,250.16,211.52Zm0,4.36c-16-7-28.1-7.64-43.48-5.6a.31.31,0,0,0-.29.33.35.35,0,0,0,.41.24c15.23-2,27.22-1.44,43,5.53a.35.35,0,0,0,.17,0,.38.38,0,0,0,.32-.15A.27.27,0,0,0,250.14,215.88Z"/><path class="cls-62" d="M100.82,225.59c18.07-3.76,41.45-2.83,58.94,1.48a5,5,0,0,0,.37-.69l-19.94-29.54c-9.41-6.1-30.54-4.88-39.37.17Z"/><path class="cls-63" d="M100.82,223.8c18.07-3.77,40.17-3.42,57.66.89.29-.39,1.77-2.64,1.87-2.93l-20.16-27.15c-9.41-6.1-30.55-4.87-39.37.18Z"/><path class="cls-64" d="M100.82,221.45c17.28-5.72,42.31-4.82,59.53.31l-20.16-27.15c-9.41-6.1-30.55-4.87-39.37.18Z"/><path class="cls-65" d="M160.35,222l-.09,0c-18.38-5.47-43.31-5.61-59.3-.32a.36.36,0,0,1-.25,0c-.07,0-.15-.12-.15-.18V194.79a.18.18,0,0,1,.09-.17c9.07-5.19,30.36-6.23,39.7-.17l.06.05,20.16,27.15a.17.17,0,0,1,0,.24A.3.3,0,0,1,160.35,222Zm-32.23-4.62a117.64,117.64,0,0,1,31.64,4L140,194.75c-9.17-5.91-29.93-4.91-38.92.15v26.23C109.16,218.51,118.68,217.39,128.12,217.35Z"/><path class="cls-66" d="M100.82,221.45c16.6-6.85,41.8-7.42,59.86-1.87l-20.49-25c-9.41-6.1-30.55-4.87-39.37.18Z"/><path class="cls-65" d="M100.84,221.66l-.13,0c-.07,0-.15-.11-.15-.18V194.79a.18.18,0,0,1,.09-.17c9.07-5.19,30.36-6.23,39.7-.17l.06.05,20.48,25a.18.18,0,0,1,0,.25.28.28,0,0,1-.29.06c-18.31-5.63-43.38-4.85-59.63,1.86Zm.23-26.76v26.23c16.15-6.53,40.73-7.35,59-2l-20-24.41C130.83,188.84,110.06,189.84,101.07,194.9Z"/><path class="cls-35" d="M100.82,221.45c17.3-9.46,41.41-10.32,60-4.9L140.4,194.13c-9.4-6.1-30.76-4.39-39.58.66Z"/><path class="cls-65" d="M100.84,221.66l-.13,0c-.08,0-.15-.11-.15-.18V194.79a.18.18,0,0,1,.09-.17c9.29-5.32,30.72-6.61,39.91-.65l20.49,22.45a.17.17,0,0,1,0,.25.28.28,0,0,1-.29.07c-20.16-5.87-43.64-3.94-59.8,4.89A.17.17,0,0,1,100.84,221.66Zm.23-26.76v26.17c16.06-8.61,39.11-10.53,59.07-4.94l-19.92-21.85C131.2,188.46,110.27,189.71,101.07,194.9Z"/><path class="cls-62" d="M100.82,225.59c-18.08-3.6-41.41-2.46-58.89,2a7.37,7.37,0,0,1-.37-.69l19.85-29.72C70.8,191,92,192,100.82,197Z"/><path class="cls-63" d="M100.82,223.8c-18.08-3.6-40.13-3.06-57.6,1.4-.29-.38-1.79-2.62-1.89-2.91l24.76-26.55c9.38-6.19,25.9-5.92,34.73-1Z"/><path class="cls-64" d="M100.82,221.45c-17.29-5.56-42.29-4.44-59.49.84l25.4-26.56c9.39-6.18,25.26-5.91,34.09-.94Z"/><path class="cls-65" d="M41.33,222.5a.3.3,0,0,1-.21-.08.18.18,0,0,1,0-.25l25.4-26.56c9.79-6.46,26-5.72,34.42-1a.22.22,0,0,1,.13.17v26.66a.21.21,0,0,1-.12.18.36.36,0,0,1-.25,0c-16-5.16-40.92-4.79-59.29.85Zm25.58-26.62-24.83,26c15.8-4.65,40.57-6.36,58.48-.72V194.9C92.29,190.31,76.49,189.59,66.91,195.88Z"/><path class="cls-66" d="M100.82,221.45c-16.62-6.7-42.08-7.66-60.13-1.95l22.66-24.35c9.39-6.19,28.64-5.33,37.47-.36Z"/><path class="cls-65" d="M100.84,221.66l-.13,0c-16.83-6.8-42-7.61-59.93-1.94a.32.32,0,0,1-.3-.07.17.17,0,0,1,0-.25L63.14,195c9.53-6.28,28.78-5.48,37.81-.4a.22.22,0,0,1,.13.17v26.66a.18.18,0,0,1-.12.18Zm-33.71-6.13c11.91-.06,24,1.85,33.43,5.6V194.9c-8.74-4.84-27.85-5.63-37,.39l-22.1,23.76A92.17,92.17,0,0,1,67.13,215.53Z"/><path class="cls-35" d="M100.82,221.45c-17-9.67-43.4-10.56-60.14-5.58l20.86-21.38c9.38-6.19,30.45-4.67,39.28.3Z"/><path class="cls-65" d="M100.84,221.66a.3.3,0,0,1-.13,0c-17.5-10-43.95-10.33-59.94-5.58a.32.32,0,0,1-.3-.07.18.18,0,0,1,0-.25l20.86-21.38c4.31-2.85,11.65-4.36,20-4.11,7.68.23,15.18,1.9,19.56,4.37a.22.22,0,0,1,.13.17v26.66a.17.17,0,0,1-.12.18Zm-37.78-9c12.87-.05,26.78,2.4,37.5,8.38V194.9c-9.13-5.06-29.92-6.12-38.84-.26L41.44,215.43A83.55,83.55,0,0,1,63.06,212.68Z"/><path class="cls-67" d="M138.11,195.64c.06-.15-.06-.31-.25-.35-11.76-2.56-23.29-1.8-32.45,2.16a.27.27,0,0,0-.15.39.38.38,0,0,0,.32.15.45.45,0,0,0,.16,0c9-3.89,20.35-4.64,31.94-2.11A.36.36,0,0,0,138.11,195.64Zm2.78,2.72a.3.3,0,0,0-.27-.35c-12.7-2.35-23.89-1.37-35.19,3.11a.27.27,0,0,0-.17.38.33.33,0,0,0,.32.16.41.41,0,0,0,.16,0c11.15-4.41,22.18-5.38,34.72-3.06A.37.37,0,0,0,140.89,198.36Zm2.82,2.9a.31.31,0,0,0-.28-.34c-15.09-2.34-23.12-2-38.19,4.36a.27.27,0,0,0-.15.39.36.36,0,0,0,.32.15.41.41,0,0,0,.16,0c14.88-6.32,22.82-6.62,37.72-4.3A.36.36,0,0,0,143.71,201.26Zm-38.19,8.41a.37.37,0,0,0,.31.15.39.39,0,0,0,.18,0c16.6-7.59,25.74-6.9,39.51-5.18a.36.36,0,0,0,.4-.25.29.29,0,0,0-.29-.32c-13.92-1.74-23.17-2.43-40,5.25A.27.27,0,0,0,105.52,209.67Zm0,4.36a.35.35,0,0,0,.31.15.47.47,0,0,0,.17,0c15.8-7,27.79-7.56,43-5.54a.36.36,0,0,0,.41-.23.3.3,0,0,0-.29-.33c-15.38-2.05-27.5-1.46-43.48,5.59A.26.26,0,0,0,105.54,214Z"/><path class="cls-67" d="M65.26,195.85c11.59-2.53,22.93-1.78,31.94,2.11a.45.45,0,0,0,.16,0,.38.38,0,0,0,.32-.15.27.27,0,0,0-.15-.39c-9.17-4-20.69-4.72-32.45-2.16-.19,0-.31.2-.25.35A.36.36,0,0,0,65.26,195.85Zm-2.78,2.72c12.54-2.32,23.57-1.35,34.72,3.06a.41.41,0,0,0,.16,0,.33.33,0,0,0,.32-.16.27.27,0,0,0-.17-.38C86.21,196.64,75,195.66,62.32,198a.3.3,0,0,0-.27.35A.37.37,0,0,0,62.48,198.57Zm-2.83,2.92c14.9-2.32,22.84-2,37.72,4.3a.41.41,0,0,0,.16,0,.36.36,0,0,0,.32-.15.27.27,0,0,0-.16-.39c-15.06-6.39-23.09-6.7-38.18-4.36a.3.3,0,0,0-.28.34A.36.36,0,0,0,59.65,201.49Zm37.63,7.79c-16.8-7.68-26-7-40-5.25a.29.29,0,0,0-.29.32.36.36,0,0,0,.4.25c13.77-1.72,22.91-2.41,39.51,5.18a.39.39,0,0,0,.18,0,.37.37,0,0,0,.31-.15A.27.27,0,0,0,97.28,209.28Zm0,4.36c-16-7-28.1-7.64-43.48-5.59a.3.3,0,0,0-.29.33.36.36,0,0,0,.41.23c15.23-2,27.22-1.44,43,5.54a.47.47,0,0,0,.17,0,.36.36,0,0,0,.31-.15A.26.26,0,0,0,97.26,213.64Z"/><path class="cls-10" d="M85.08,137.89a67.73,67.73,0,0,0,18.26,18.82Q96.13,164.35,88.9,172A85.48,85.48,0,0,1,81,156.44a84.61,84.61,0,0,1-4.72-17.8l3.2-2.8Z"/><path class="cls-10" d="M119,137.62a30,30,0,0,1-14.71,20.71L120,171.44a66.67,66.67,0,0,0,7.49-31.2l-5.82-4.4Z"/><path class="cls-59" d="M110.45,156.16c-.78-.32-3.49-2.51-9-.41s1.38,8.89,1.38,8.89h6.07S117,158.88,110.45,156.16Z"/></g></g></g></svg>