<svg xmlns="http://www.w3.org/2000/svg" xmlns:xlink="http://www.w3.org/1999/xlink" viewBox="0 0 1920 900"><defs><style>.cls-1{fill:none;}.cls-2{isolation:isolate;}.cls-3{clip-path:url(#clip-path);}.cls-4{fill:url(#linear-gradient);}.cls-5{fill:url(#linear-gradient-2);}.cls-6{fill:url(#linear-gradient-3);}.cls-7{fill:url(#linear-gradient-4);}.cls-8{fill:#67c192;}.cls-41,.cls-9{stroke:#64bb4f;stroke-width:0.49px;}.cls-105,.cls-41,.cls-59,.cls-9{stroke-miterlimit:10;}.cls-9{fill:url(#linear-gradient-5);}.cls-10{fill:url(#linear-gradient-6);}.cls-11{fill:#75bee7;}.cls-11,.cls-25{opacity:0.75;}.cls-12{fill:url(#linear-gradient-7);}.cls-13{fill:url(#linear-gradient-8);}.cls-14{fill:url(#linear-gradient-9);}.cls-15{fill:url(#linear-gradient-10);}.cls-16{fill:url(#linear-gradient-11);}.cls-17{fill:url(#linear-gradient-12);}.cls-18{fill:url(#linear-gradient-13);}.cls-19{fill:url(#linear-gradient-14);}.cls-20{fill:#0c0c0d;}.cls-21{fill:#dbd9d8;}.cls-22{fill:#252528;}.cls-23{fill:#fffafc;}.cls-24{fill:url(#linear-gradient-15);}.cls-25{fill:#70bbdd;}.cls-26{fill:#569b44;}.cls-27{fill:#aa895b;}.cls-28{fill:#d18c5e;}.cls-29{fill:#c19867;}.cls-30{opacity:0.6;}.cls-31{fill:#7a5d2a;}.cls-32{fill:#8c5b48;}.cls-33{fill:#704e18;}.cls-34{fill:#723b17;}.cls-35{opacity:0.41;}.cls-36{fill:#666;}.cls-37{fill:#e6e6e6;}.cls-38{fill:#1a1a1a;}.cls-39{fill:#58595b;}.cls-40{fill:url(#linear-gradient-16);}.cls-41{fill:url(#linear-gradient-17);}.cls-42{fill:#70b644;}.cls-43{fill:url(#linear-gradient-18);}.cls-44{fill:#d77d4f;}.cls-45{fill:#579943;}.cls-46{fill:#951a1d;}.cls-47{fill:#7d1416;}.cls-48{fill:#e7ad8d;}.cls-49{fill:#d09d7c;}.cls-50{fill:#6f8289;}.cls-51{fill:#212120;opacity:0.37;}.cls-52{fill:#868686;}.cls-53{fill:#6d6d6d;}.cls-54{fill:#a81e22;}.cls-55{fill:#ac9060;}.cls-56{fill:#d7b777;}.cls-57{fill:#e8c991;}.cls-58{fill:#f3d3a2;}.cls-59{fill:#b67656;stroke:#a44a24;stroke-width:3.24px;}.cls-60{fill:#7b7b7a;}.cls-61{fill:#a2a2a3;}.cls-62{fill:#5aa846;}.cls-63{fill:#87c444;}.cls-64{fill:#98c948;}.cls-65{fill:#5c9942;}.cls-66{fill:#cea852;}.cls-67{fill:#adadad;}.cls-68{fill:#787878;}.cls-69{fill:#8b421f;}.cls-70{fill:#519b44;}.cls-71{fill:#54883e;}.cls-72,.cls-79{fill:#959595;}.cls-73{fill:url(#linear-gradient-19);}.cls-74{fill:url(#linear-gradient-20);}.cls-75{fill:url(#linear-gradient-21);}.cls-76{fill:url(#linear-gradient-22);}.cls-77{fill:#ac8841;}.cls-78{fill:#f4f7f0;}.cls-79{opacity:0.24;}.cls-80{fill:#231f20;}.cls-80,.cls-90{opacity:0.3;}.cls-81{fill:#cd8751;}.cls-82{fill:url(#linear-gradient-23);}.cls-83{fill:#8c5b51;}.cls-84{fill:#86c98d;}.cls-85{fill:url(#linear-gradient-24);}.cls-86{fill:#bd8473;}.cls-87,.cls-94{mix-blend-mode:multiply;}.cls-87{opacity:0.15;}.cls-88{fill:#b21414;}.cls-89{fill:#cc2727;}.cls-90,.cls-92{mix-blend-mode:overlay;}.cls-91{fill:#fff;}.cls-92{opacity:0.5;}.cls-93{fill:#5cc1ff;}.cls-95{fill:#c7d9f9;}.cls-96{fill:#ffdb45;}.cls-97{fill:#ffe876;}.cls-98{fill:#b0d80b;}.cls-99{fill:#d83535;}.cls-100{fill:#f26d6d;}.cls-101{fill:#25893d;}.cls-102{fill:url(#linear-gradient-25);}.cls-103{fill:url(#linear-gradient-26);}.cls-104{fill:url(#linear-gradient-27);}.cls-105{stroke-width:0.91px;fill:url(#linear-gradient-28);stroke:url(#linear-gradient-29);}.cls-106{fill:url(#linear-gradient-30);}.cls-107{clip-path:url(#clip-path-2);}.cls-108{fill:url(#linear-gradient-31);}.cls-109{fill:url(#linear-gradient-32);}.cls-110{fill:url(#linear-gradient-33);}.cls-111{fill:url(#linear-gradient-34);}</style><clipPath id="clip-path"><rect class="cls-1" width="1920" height="900"/></clipPath><linearGradient id="linear-gradient" x1="997.42" y1="-350.42" x2="931.04" y2="801.52" gradientUnits="userSpaceOnUse"><stop offset="0" stop-color="#35b6e5"/><stop offset="0.12" stop-color="#49bde8"/><stop offset="0.72" stop-color="#a6def6"/></linearGradient><linearGradient id="linear-gradient-2" x1="290.53" y1="226.64" x2="550.52" y2="579.25" gradientUnits="userSpaceOnUse"><stop offset="0.08" stop-color="#acc6df"/><stop offset="0.76" stop-color="#81bbe1"/></linearGradient><linearGradient id="linear-gradient-3" x1="216.47" y1="460.15" x2="1039.81" y2="460.15" xlink:href="#linear-gradient-2"/><linearGradient id="linear-gradient-4" x1="335.02" y1="119.1" x2="668.95" y2="572" xlink:href="#linear-gradient-2"/><linearGradient id="linear-gradient-5" x1="467.19" y1="359.78" x2="310.81" y2="581.1" gradientUnits="userSpaceOnUse"><stop offset="0.09" stop-color="#57bd89"/><stop offset="0.24" stop-color="#59b484"/><stop offset="0.5" stop-color="#5ca97f"/></linearGradient><linearGradient id="linear-gradient-6" x1="446.61" y1="487.67" x2="326.13" y2="677.85" gradientUnits="userSpaceOnUse"><stop offset="0.08" stop-color="#29b473"/><stop offset="0.14" stop-color="#24b06d"/><stop offset="0.46" stop-color="#0a9b50"/><stop offset="0.64" stop-color="#009345"/></linearGradient><linearGradient id="linear-gradient-7" x1="776.31" y1="1151.87" x2="1045.22" y2="-177.49" gradientUnits="userSpaceOnUse"><stop offset="0.2" stop-color="#c5f7fd"/><stop offset="0.34" stop-color="#b3f0fd"/><stop offset="0.66" stop-color="#8ee1fd"/><stop offset="0.83" stop-color="#80dbfd"/></linearGradient><linearGradient id="linear-gradient-8" x1="738.35" y1="146.76" x2="850.29" y2="34.75" gradientUnits="userSpaceOnUse"><stop offset="0.11" stop-color="#85ddfd"/><stop offset="0.84" stop-color="#d7eef4"/></linearGradient><linearGradient id="linear-gradient-9" x1="1153.58" y1="186.67" x2="1305.88" y2="34.27" gradientUnits="userSpaceOnUse"><stop offset="0.17" stop-color="#83dcfd"/><stop offset="0.9" stop-color="#d7eef4"/></linearGradient><linearGradient id="linear-gradient-10" x1="42.92" y1="143.76" x2="136.42" y2="50.2" gradientUnits="userSpaceOnUse"><stop offset="0.11" stop-color="#85ddfd"/><stop offset="0.82" stop-color="#d7eef4"/></linearGradient><linearGradient id="linear-gradient-11" x1="218.25" y1="155.59" x2="325.11" y2="48.66" gradientUnits="userSpaceOnUse"><stop offset="0.17" stop-color="#83dcfd"/><stop offset="0.61" stop-color="#d7eef4"/></linearGradient><linearGradient id="linear-gradient-12" x1="94.7" y1="311.91" x2="1749.22" y2="311.91" gradientTransform="matrix(0.98, 0, 0, 0.91, -0.15, 45.97)" gradientUnits="userSpaceOnUse"><stop offset="0.2" stop-color="#68c1dd"/><stop offset="0.83" stop-color="#68c1dd"/></linearGradient><linearGradient id="linear-gradient-13" x1="1728.78" y1="326.06" x2="3383.3" y2="326.06" gradientTransform="matrix(1, 0, 0, 1, 0, 0)" xlink:href="#linear-gradient-12"/><linearGradient id="linear-gradient-14" x1="998.59" y1="457.64" x2="975.74" y2="505.31" gradientUnits="userSpaceOnUse"><stop offset="0.01" stop-color="#5abd89"/><stop offset="0.1" stop-color="#5abd89"/><stop offset="1" stop-color="#5abd89"/></linearGradient><linearGradient id="linear-gradient-15" x1="958.46" y1="398.91" x2="961.26" y2="701.03" gradientUnits="userSpaceOnUse"><stop offset="0.29" stop-color="#609351"/><stop offset="0.73" stop-color="#6bb25e"/><stop offset="1" stop-color="#70bf64"/></linearGradient><linearGradient id="linear-gradient-16" x1="406.64" y1="498.18" x2="604.86" y2="498.18" gradientUnits="userSpaceOnUse"><stop offset="0.08" stop-color="#29b473"/><stop offset="0.17" stop-color="#24b06d"/><stop offset="0.64" stop-color="#0a9b50"/><stop offset="0.9" stop-color="#009345"/></linearGradient><linearGradient id="linear-gradient-17" x1="307.52" y1="343.25" x2="151.14" y2="564.58" xlink:href="#linear-gradient-5"/><linearGradient id="linear-gradient-18" x1="238.25" y1="628.36" x2="521.23" y2="628.36" gradientTransform="translate(17.79 -13.92) rotate(1.66)" xlink:href="#linear-gradient-16"/><linearGradient id="linear-gradient-19" x1="1383.96" y1="185.71" x2="1480.56" y2="116.67" gradientUnits="userSpaceOnUse"><stop offset="0" stop-color="#91d5e3" stop-opacity="0.44"/><stop offset="0.17" stop-color="#a4dce8" stop-opacity="0.61"/><stop offset="0.37" stop-color="#b6e3ed" stop-opacity="0.78"/><stop offset="0.55" stop-color="#c4e8f1" stop-opacity="0.9"/><stop offset="0.7" stop-color="#ccebf3" stop-opacity="0.97"/><stop offset="0.81" stop-color="#cfecf4"/></linearGradient><linearGradient id="linear-gradient-20" x1="1570.88" y1="237.58" x2="1635.19" y2="191.61" xlink:href="#linear-gradient-19"/><linearGradient id="linear-gradient-21" x1="1738.66" y1="190.62" x2="1857.96" y2="105.35" xlink:href="#linear-gradient-19"/><linearGradient id="linear-gradient-22" x1="901.77" y1="172.01" x2="1069.92" y2="113.86" xlink:href="#linear-gradient-19"/><linearGradient id="linear-gradient-23" x1="-262.14" y1="874.39" x2="-286.78" y2="-387.8" gradientUnits="userSpaceOnUse"><stop offset="0.13" stop-color="#8b5f55"/><stop offset="0.32" stop-color="#725f52"/><stop offset="0.56" stop-color="#585f4f"/><stop offset="0.7" stop-color="#4e5f4e"/></linearGradient><linearGradient id="linear-gradient-24" x1="-272.23" y1="355.35" x2="40.86" y2="-458.14" gradientUnits="userSpaceOnUse"><stop offset="0.13" stop-color="#2d8966"/><stop offset="0.68" stop-color="#62b27d"/><stop offset="0.96" stop-color="#78c487"/></linearGradient><linearGradient id="linear-gradient-25" x1="1980.89" y1="846.24" x2="1965.54" y2="60.04" xlink:href="#linear-gradient-23"/><linearGradient id="linear-gradient-26" x1="2396.65" y1="-89" x2="1350.05" y2="774.04" gradientUnits="userSpaceOnUse"><stop offset="0.24" stop-color="#64c19b"/><stop offset="0.33" stop-color="#53bb8b"/><stop offset="0.44" stop-color="#47b680"/><stop offset="0.54" stop-color="#43b57c"/><stop offset="0.58" stop-color="#46b67c"/><stop offset="0.61" stop-color="#51b97c"/><stop offset="0.65" stop-color="#63be7c"/><stop offset="0.66" stop-color="#6fc17c"/></linearGradient><linearGradient id="linear-gradient-27" x1="1592.3" y1="394.8" x2="1796.41" y2="201.49" gradientUnits="userSpaceOnUse"><stop offset="0.13" stop-color="#389b7a"/><stop offset="0.63" stop-color="#62b682"/><stop offset="0.96" stop-color="#78c487"/></linearGradient><linearGradient id="linear-gradient-28" x1="1586.86" y1="400.08" x2="1792.92" y2="204.92" gradientUnits="userSpaceOnUse"><stop offset="0.29" stop-color="#2f8e69"/><stop offset="0.49" stop-color="#31946e"/><stop offset="0.76" stop-color="#36a67d"/><stop offset="0.88" stop-color="#39b085"/></linearGradient><linearGradient id="linear-gradient-29" x1="1538.96" y1="291.24" x2="1820.17" y2="291.24" gradientUnits="userSpaceOnUse"><stop offset="0.27" stop-color="#59bb75"/><stop offset="0.53" stop-color="#5fbd77"/><stop offset="0.88" stop-color="#70c17e"/></linearGradient><linearGradient id="linear-gradient-30" x1="1974.61" y1="522.94" x2="2169.63" y2="16.23" xlink:href="#linear-gradient-24"/><clipPath id="clip-path-2"><rect class="cls-1" x="2053" width="1920" height="900"/></clipPath><linearGradient id="linear-gradient-31" x1="4329.32" y1="-301.3" x2="4262.94" y2="850.64" gradientTransform="matrix(1, 0, 0, -1, -1387.21, 696.09)" xlink:href="#linear-gradient"/><linearGradient id="linear-gradient-32" x1="4106.7" y1="1204.32" x2="4377.83" y2="-136.04" gradientTransform="matrix(1, 0, 0, -1, -1386.51, 580.99)" xlink:href="#linear-gradient-7"/><linearGradient id="linear-gradient-33" x1="5060.68" y1="375.18" x2="6715.2" y2="375.18" gradientTransform="matrix(-1, 0, 0, 1, 7196.59, 0)" xlink:href="#linear-gradient-12"/><linearGradient id="linear-gradient-34" x1="4290.36" y1="448.03" x2="4293.16" y2="750.15" gradientTransform="matrix(1, 0, 0, -1, -1387.83, 1295.34)" xlink:href="#linear-gradient-15"/></defs><g class="cls-2"><g id="Layer_1" data-name="Layer 1"><g class="cls-3"><rect class="cls-1" x="299" y="517.67" width="1133.03" height="145.04"/><rect class="cls-4" x="-120" y="90" width="2160" height="417.85"/><path class="cls-5" d="M289.11,447.13c1.32-.18,179-90.55,404.84,45.51-10,0-413.24,1.81-413.24,1.81Z"/><path class="cls-6" d="M233.2,445c2.64-.31,356.57-155.07,806.61,77.94-20,0-823.34,3.09-823.34,3.09Z"/><path class="cls-7" d="M376.59,370.3A143.85,143.85,0,0,0,437.91,399c11.68,2.34,35.44,6.83,62.19-1.42,34.86-10.75,38.65-32,62.36-36.55,31.74-6.09,59.65,25.32,82.48,44.75,33.53,28.54,90.36,60.4,191,67.67L359.18,477Q367.88,423.64,376.59,370.3Z"/><path class="cls-8" d="M277.05,496.83s9.36-18.25,24.11-9.22c0,0,16.71-8.87,33.5,0,4.95-10.24,31.44.53,35.5,7.44,11.35-16.77,39.88-15,45.2-4.94,14.42-12.74,38.77-6.79,43-.45,14.43-8.58,16.92,5.39,16.92,5.39Z"/><path class="cls-9" d="M366.42,580.3s-17.32-101.95,0-182.63,31.45-57,38.1-11.21,12.9,157.44-2.23,193.85S366.42,580.3,366.42,580.3Z"/><path class="cls-10" d="M372.29,638s-18.09-65.9,0-118.06,32.84-36.87,39.79-7.25S425.55,614.51,409.74,638,372.29,638,372.29,638Z"/><path class="cls-11" d="M1124.46,514.88a50.25,50.25,0,0,1-2.18-8.53,58.14,58.14,0,0,1-.21-15.85c.77-8.48,2.4-12.66,3.12-14.34,1.2-2.81,2.32-5.35,4-5.44,2.83-.16,5.17,7.24,5.89,9.51,1.7,5.38,1.82,9.77,1.92,15,.26,12.88-2.14,17.73-3.29,19.65C1132.81,516.29,1131.85,517.42,1124.46,514.88Z"/><path class="cls-11" d="M1337.16,518.66a49.34,49.34,0,0,1-2.19-8.54,58.1,58.1,0,0,1-.2-15.85c.76-8.48,2.4-12.66,3.12-14.34,1.2-2.81,2.32-5.35,3.94-5.44,2.84-.15,5.18,7.25,5.89,9.51,1.7,5.39,1.82,9.77,1.93,15,.25,12.89-2.14,17.73-3.3,19.66C1345.5,520.07,1344.55,521.2,1337.16,518.66Z"/><path class="cls-11" d="M1427.19,518.66a50.4,50.4,0,0,1-2.18-8.54,58.14,58.14,0,0,1-.21-15.85c.77-8.48,2.4-12.66,3.12-14.34,1.2-2.81,2.32-5.35,3.95-5.44,2.83-.15,5.17,7.25,5.89,9.51,1.7,5.39,1.82,9.77,1.92,15,.26,12.89-2.14,17.73-3.29,19.66C1435.54,520.07,1434.58,521.2,1427.19,518.66Z"/><path class="cls-11" d="M1193.55,518.66a51.24,51.24,0,0,1-2.19-8.54,58.51,58.51,0,0,1-.2-15.85c.77-8.48,2.4-12.66,3.12-14.34,1.2-2.81,2.32-5.35,4-5.44,2.83-.15,5.17,7.25,5.89,9.51,1.7,5.39,1.82,9.77,1.92,15,.26,12.89-2.14,17.73-3.29,19.66C1201.9,520.07,1200.94,521.2,1193.55,518.66Z"/><path class="cls-11" d="M1240.07,516a48.94,48.94,0,0,1-2.19-8.53,57.71,57.71,0,0,1-.2-15.85c.76-8.48,2.4-12.66,3.11-14.34,1.21-2.81,2.33-5.35,4-5.44,2.84-.16,5.17,7.24,5.89,9.51,1.7,5.39,1.82,9.77,1.92,15,.26,12.89-2.14,17.73-3.29,19.66C1248.41,517.42,1247.45,518.55,1240.07,516Z"/><path class="cls-11" d="M1087.78,522.77a57.77,57.77,0,0,1-1.12-6.81,72.78,72.78,0,0,1-.11-12.64,55,55,0,0,1,1.6-11.44c.62-2.24,1.2-4.27,2-4.34,1.45-.13,2.65,5.77,3,7.58a60.51,60.51,0,0,1,1,12c.13,10.28-1.1,14.15-1.69,15.69C1092.06,523.9,1091.57,524.8,1087.78,522.77Z"/><rect class="cls-12" x="-120.71" y="-40.15" width="2160.71" height="571.39"/><path class="cls-13" d="M737.82,121.38s.89-6.72,12.19-11.32,20.81-7.06,30.62-1.76,7.73,17.32,5.65,18.73c-4,2.75-12.74,6.35-36,2.83C736.34,127.74,737.82,121.38,737.82,121.38Z"/><path class="cls-14" d="M1151.94,150.72s1.3-8.5,17.68-14.32,30.19-9,44.41-2.24,11.21,21.94,8.2,23.73c-5.86,3.47-18.49,8-52.18,3.58C1149.79,158.78,1151.94,150.72,1151.94,150.72Z"/><path class="cls-15" d="M42.39,118.38s.89-6.72,12.19-11.32S75.39,100,85.2,105.3s7.73,17.32,5.64,18.73c-4,2.75-12.74,6.35-36,2.83C40.9,124.74,42.39,118.38,42.39,118.38Z"/><path class="cls-16" d="M217.11,130.55s.9-5.93,12.31-10,21-6.24,30.94-1.56,7.81,15.28,5.7,16.53c-4.08,2.42-12.87,5.6-36.33,2.49C215.61,136.16,217.11,130.55,217.11,130.55Z"/><path class="cls-17" d="M1497.84,371l.1,162.09-1618.56.82-.08-132.65,10.23.29.62,12.44h9.19l-.31-19.4,54.16,1.44v16.1l63.39.33,2.62-216.74,14.06-1.1,17,3.46v-2H47.83V193.9h2v-5.68h1.06v6.23h3.67v-5.13h1.37v5.31L59,195.72l-.3,1.65h-.78v1.47l2.91.36v11l10.55-1.11v-2H72v1.65h2.28v-19l12.4-.55v-2.2h1.23v-5.32H86.85v-2h3.67v8h.92v2.75h7.79v-4.21h3.06v2.74h-1l.15,2.38,15.6,2-.13,28.37,9.5,1.27v3.31l1.68,2-1.91,152.86,10.42-.74,6.43.18.61-17.76,6.87-.73v-9.71l29.24-.38v-4l22.19-.21v-4h2.47l0-23.43,1.6-1.92V306.22h6.66v-9.33h2.74v.91h3.37V283l.77.73v2.94l1.84.36v1.09h2.3l.15-1.83,1.23-.36v1.83l3.2.18.46-1.65,1.85-.19.45,1.66,3.68.18-.16-1.47,1.69.19v1.09h3.05v-2.2l.78-.36.14-2.93h1.38l.32,5.49,3.82.18.16-4.21.92.18.45,4,2.76.91.15-4.94h.61l.16,5.12,2.9.56.61-1.47v-2l1.53.18.15,3.85-.6,1.1.15,8.6,5,.36.92,8.61.78.18.62,1.46,2.74-.17.14-15.57,1.39.19L267.7,311l13.63.72L280,386.72h1.85v1.65l.62.56-.15,2.18-.92.38-.3,15.93,1.84.54v2h-1.23l-.15,5.86s9.44-.17,9.8-.19c-.46,0,.31,2.2.31,2.2L297,418l-.76,2.18-.93.56h-1.37l.62,10.81,1.23.91v11.9h2.29l1-140.95,15.31-3.13v-8.41l17.6-3.13v-1.29h4.6l.61.92,41.78,2v9.34l16.85,1.46-.31-16.47,5.8-2.2,2.44-29.85,51.28.71,3.38,31.49,9.49.17-.16-3.47,1.69.17,1.66-25.26,6.9-1.1-.34-50,20.36.17,13,1.66,0-71.78,9.34-3.11h5.2V129.4h.91V132l13.94-.56v-3.3h.91V131l8.27-.55v1.84h1.69v-1.65h10.41l12.7,5.13,17.45-1.48,4.44,2.56-1.59,151.21,12.4,2,.44-22.16,6.59.19V249.63l17.14-2.2-.48-24.72,2.14-1.47,8.74-1.1,0-24.35,1.68-1.09s7.81-1.48,7.34-1.48,22.64-20.87,22.64-20.87h4.6l22.81,20.48,1.09.37.3,1.1,7.2,1.45-.15,25.09,11,1.64L720,263.67l22,.54.62-7h1.07l.3,4.57h1.08l-.15,2.4,39.48,1.07.16,6.59,12.27-1.46.43-12.64,8.72-.37,3.37-10.25.3-4.77h2l.77,3.85h3.36v-.91h3.83v1.09l20.82-2.94V242h-1.07v-3.1h6.57v4.76l5.36.19v-2l2.29-2.75,2,.18V242l-1.23.19.62,2,1.23.18.46,3.85-.15,1.46,1.08-.17V253h.91v2.56H868l-.72,77.62H861l-.13,24.88,3.66.38,0,30.2,3.23.17,0-18.11,1.84-.37.16-5.86,16.07,1.1v-1.84h16.22v1.64h7.05l.08-97.38,1.06-.92,2-.18.15-.93,1.53-.35.44-.74,4.75-.18.16-1.1,3.37-.19v-10.8l5.34-3.11,32.93,1.26v-1.27h3.66v1.09l15.3-.19.48,15,13.77.17-.51,178.85,2.47-.2.07-121.91,1.08-.18.15-2.74,9,.17v2.38H1009v-1.47h8.88v1.29h1.54l-.35-63.53,12.55-6.23-.16-10.61,11.32-6.42,34.3.55v4.92l2.29-.17,2.9-1.28v-1.64h1.23l.76.91,8-.2v-1.82h-.77l-1.76-2.11,1.38-1.64,1.91-2.3h2.31v-5.67H1097v6l19.29-.39v-1.64h1.7v2.38l2.6,1.28.15,2-2,3.66.31,8.23,1.54,1.11h3.82l-.16.73,1.39.18v12.08h8v-1.64l1.37-1.65,2.15,1.83.35,60.78,2.3.72v13.74l6.57.54-.14,14.46,2.91.54.31,7.52,1.68.72.16,28,1.08.18-.1,67.73.59-.18.48-1.82h5v1.45c0,.73.47.73.47.73l.15,1.84,9.65-.19-.47-10.07s-1.69-2-2.6-2.19l-.3-1.28h3.66v-1.28l3.52.18v.54l1.22.74.16.55h3.06l.31-.93a4.06,4.06,0,0,1,1.68-1.09c1.08-.36,1.67,1.47,1.67,1.47H1184l-.46-11.17,1.84-.37-.19-43,2.92-3.11h9.79l.24-107.83,3.22-.18v-9.88l2.12.18.16,2,1.37-.36-.15-1.83,14.53.17,6.29-21.6.3-3.67.61-.72.75-5.87.92,5.86.93,1.1.47,3.3,5.52,22.5,34.58.91,4.6.18,4.43,4.21.33,22.51,1.38.37.62,1.82,1.38.2-.11,79.62h10.71l6.89,5.48-.14,11.54,3.21.54-.15,11.17,5.68.18,0,33.31h2.74v-4.58l16.23-1.28v-7.87l1.39-1.65h2.13l.3-17,5.81-4.59h2.91V401h-1.54v-14.1l7.66-4.94,34.15.53v14.82l-1.71,1.84.17,2.92h9.33l.16,7.15-.91.73.6,1.27,10.88,10.44,6.28.17v16.3h7.34l0,40.27h12.56l-.07-107.82h12.39v-1.83h1.69v2h2.12v-1.65h1.39v1.65h3.82v-3.11h.92v2.93l14.39.72v-2.38l1.23-.55.46.55.29,1.47H1466v-3.67h3.36V370h2.3v-2h3.67v1.83l.62-.18,2.15-2.21v3.12Z"/><path class="cls-18" d="M3165.27,369.88l.11,177.36L1511,548.07l-.09-145.15,10.46.32.64,13.62h9.39l-.32-21.22,55.36,1.58v17.61l64.79.37L1653.87,178l14.37-1.2,17.38,3.79v-2.2h-2.5V176h2v-6.22h1.09v6.81H1690V171h1.4v5.81l3.14,1.19-.3,1.81h-.8v1.61l3,.39v12l10.79-1.22v-2.2h.64v1.8h2.33V171.4l12.67-.6v-2.4h1.26v-5.81H1723v-2.19h3.76v8.81h1v3h8v-4.61h3.13v3h-1.08l.15,2.6,15.95,2.21-.13,31.05,9.71,1.39v3.61l1.72,2.19-2,167.26,10.66-.81,6.57.2.62-19.44,7-.8V349.42l29.88-.42v-4.39l22.68-.23V340h2.52V314.35l1.63-2.11V298.92h6.81V288.71h2.8v1h3.45V273.48l.78.8v3.21l1.88.4v1.19h2.35l.15-2,1.26-.4v2l3.27.2.48-1.81,1.88-.2.46,1.81,3.76.2-.16-1.61,1.73.21v1.2h3.12v-2.41l.8-.4.15-3.2h1.41l.32,6,3.9.19.17-4.61,1,.2.45,4.41,2.82,1,.15-5.41h.63l.16,5.61,3,.61.63-1.61v-2.21l1.56.2.16,4.21-.62,1.2.15,9.42,5.17.39.94,9.42.8.2.63,1.59,2.81-.19.13-17,1.42.2.48,17.63,13.93.79L1920.42,387h1.89v1.81l.64.61-.15,2.39-1,.41-.3,17.43,1.88.6v2.19h-1.26l-.15,6.41,10-.2c-.48,0,.31,2.4.31,2.4l5.47.2-.78,2.39-.94.61h-1.4l.63,11.83,1.26,1v13h2.33l1-154.22,15.65-3.43v-9.2l18-3.43v-1.4h4.7l.63,1,42.7,2.19v10.21l17.23,1.6-.32-18,5.92-2.41,2.5-32.65,52.42.77,3.45,34.45,9.71.2-.17-3.8,1.73.18,1.69-27.64,7-1.2-.35-54.69,20.82.19,13.29,1.81-.05-78.53,9.54-3.4h5.33v-3.2h.93v2.8l14.25-.6v-3.61h.94v3.21l8.45-.61v2h1.72v-1.81h10.64l13,5.61,17.83-1.62,4.54,2.8-1.62,165.45,12.68,2.2.45-24.24,6.73.21V237l17.52-2.42-.49-27,2.19-1.61,8.93-1.2,0-26.65,1.72-1.19s8-1.62,7.5-1.61,23.14-22.84,23.14-22.84h4.7l23.32,22.41,1.11.4.31,1.21,7.35,1.59-.15,27.44,11.28,1.8-.13,45.07,22.52.59.63-7.61h1.09l.31,5h1.11l-.16,2.62,40.36,1.17.16,7.22,12.54-1.6.44-13.83,8.92-.4,3.44-11.22.31-5.22h2l.8,4.21h3.43v-1H2472v1.2l21.28-3.21v-1.61h-1.09v-3.4h6.71v5.21l5.48.21v-2.22l2.34-3,2,.2v3l-1.25.21.63,2.19,1.25.2.48,4.21-.16,1.6,1.11-.19v3.8h.92v2.8h9.69l-.73,84.93h-6.41l-.14,27.23,3.75.41,0,33.05,3.29.18V369.49l1.88-.4.16-6.41,16.43,1.2v-2h16.57v1.8h7.21l.08-106.54,1.09-1,2-.2.15-1,1.57-.39.45-.81,4.85-.2.16-1.2,3.45-.21V240.27l5.47-3.4,33.66,1.37v-1.39h3.75V238l15.64-.2.48,16.43,14.09.19-.52,195.69,2.52-.21.07-133.39,1.11-.2.15-3,9.22.2v2.6h2.65v-1.61h9.07v1.41h1.58l-.37-69.52,12.84-6.82-.17-11.61,11.57-7,35.06.6V227l2.34-.19,3-1.41v-1.79h1.26l.78,1,8.14-.21v-2h-.78l-1.8-2.31,1.41-1.79,2-2.52h2.36v-6.2h1.7v6.62l19.71-.42v-1.8H2777v2.61l2.66,1.4.16,2.2-2,4,.33,9,1.56,1.21h3.91l-.16.8,1.42.2v13.21h8.12v-1.79l1.41-1.81,2.19,2,.36,66.5,2.35.8v15l6.72.59-.14,15.83,3,.59.32,8.22,1.72.8L2811,386l1.1.19-.1,74.11.61-.2.48-2h5.16v1.59c0,.8.48.8.48.8l.15,2,9.87-.21-.49-11s-1.72-2.21-2.65-2.4l-.31-1.4H2829v-1.41l3.6.2v.6l1.25.81.16.59h3.13l.32-1a4.09,4.09,0,0,1,1.72-1.19c1.1-.4,1.71,1.6,1.71,1.6h3.6l-.47-12.22,1.88-.4-.19-47.08,3-3.4h10l.24-118,3.29-.2V255.55l2.18.2.16,2.2,1.4-.4-.15-2,14.85.19,6.42-23.64.31-4,.63-.8.76-6.41.94,6.41.95,1.2.48,3.61,5.65,24.63,35.34,1,4.7.2,4.54,4.6.33,24.63,1.41.41.63,2,1.41.22-.1,87.12H2956l7,6-.15,12.62,3.29.59-.16,12.22,5.81.2,0,36.45h2.8v-5l16.58-1.4V430l1.42-1.81h2.18l.31-18.62,5.93-5h3V402.7h-1.58V387.28l7.83-5.41,34.91.58v16.22l-1.74,2,.16,3.2h9.55l.16,7.82-.93.8.61,1.4,11.12,11.41,6.42.2v17.83h7.5l0,44.06H3091l-.07-118h12.66v-2h1.73v2.21h2.17v-1.81h1.42v1.81h3.9v-3.41h.94v3.21l14.71.78v-2.6l1.26-.6.47.6.3,1.61h2.21v-4h3.44v3.62h2.35v-2.21h3.75v2l.64-.19L3145,366v3.41Z"/><path class="cls-11" d="M1147.27,511.7a57.43,57.43,0,0,1-1.13-6.81,71.7,71.7,0,0,1-.1-12.64,53.5,53.5,0,0,1,1.6-11.44c.62-2.24,1.19-4.27,2-4.34,1.45-.13,2.65,5.77,3,7.58a59.75,59.75,0,0,1,1,12c.14,10.28-1.09,14.15-1.69,15.69C1151.55,512.83,1151.06,513.73,1147.27,511.7Z"/><path class="cls-19" d="M988.52,489.29a58.13,58.13,0,0,1-1.12-6.81,72.78,72.78,0,0,1-.11-12.64,54.84,54.84,0,0,1,1.6-11.44c.62-2.25,1.2-4.27,2-4.35,1.45-.12,2.65,5.78,3,7.59a60.51,60.51,0,0,1,1,12c.13,10.28-1.1,14.15-1.69,15.68C992.8,490.42,992.31,491.32,988.52,489.29Z"/><rect class="cls-20" x="349.13" y="654.11" width="131.96" height="17.21"/><rect class="cls-20" x="630.79" y="654.11" width="153.86" height="17.21"/><rect class="cls-21" x="481.09" y="654.11" width="149.7" height="17.21"/><rect class="cls-21" x="784.65" y="654.11" width="166.47" height="17.21"/><rect class="cls-21" x="1120.39" y="654.11" width="166.47" height="17.21"/><rect class="cls-20" x="951.12" y="654.11" width="171.33" height="17.21"/><rect class="cls-20" x="1266.02" y="654.11" width="171.33" height="17.21"/><polygon class="cls-22" points="349.13 654.11 358.98 647.77 489.52 647.77 481.1 654.11 349.13 654.11"/><path class="cls-23" d="M481.09,654.11l8.43-6.34,146.28.48-5.16,5.86Z"/><path class="cls-22" d="M631.42,654.11q2.34-2.77,4.7-5.54l150.65-.8-2.12,6.34Z"/><polygon class="cls-23" points="784.65 654.11 786.77 647.77 949.37 647.77 951.12 654.11 784.65 654.11"/><polygon class="cls-22" points="949.37 647.77 1112.05 647.77 1122.45 654.11 951.12 654.11 949.37 647.77"/><polygon class="cls-23" points="1112.05 647.77 1254.18 647.77 1266.02 654.11 1120.39 654.11 1112.05 647.77"/><polygon class="cls-22" points="1266.02 654.11 1375.26 654.11 1369.77 647.77 1254.18 647.77 1266.02 654.11"/><polygon class="cls-23" points="301.29 654.11 349.13 654.11 358.98 647.77 301.29 647.77 301.29 654.11"/><rect class="cls-24" x="-119.38" y="523.98" width="2159.38" height="149.14"/><path class="cls-25" d="M1035.64,530.36s9.37-18.25,24.12-9.21c0,0,16.71-8.88,33.49,0,5-10.24,31.45.53,35.51,7.44,11.34-16.77,39.88-15,45.2-4.94,14.42-12.74,38.77-6.79,43-.45,14.43-8.58,16.91,5.39,16.91,5.39Z"/><path class="cls-25" d="M987.92,526.26S997.29,508,1012,517c0,0,16.71-8.87,33.49,0,5-10.24,31.44.53,35.51,7.45,11.34-16.78,39.88-15,45.2-5,14.42-12.74,38.77-6.79,43-.45,14.43-8.57,16.91,5.4,16.91,5.4Z"/><path class="cls-25" d="M1210.63,528.16s9.37-18.24,24.12-9.21c0,0,16.7-8.88,33.49,0,5-10.24,31.44.53,35.5,7.44,11.35-16.77,39.89-15,45.2-4.94,14.43-12.74,38.78-6.79,43-.45,14.44-8.58,16.92,5.39,16.92,5.39Z"/><path class="cls-25" d="M1405.39,529.6s9.37-18.25,24.12-9.22c0,0,16.71-8.87,33.5,0,4.94-10.24,31.44.53,35.5,7.45,11.35-16.78,39.88-15,45.2-5,14.42-12.74,38.77-6.79,43-.45,14.43-8.57,16.91,5.4,16.91,5.4Z"/><rect class="cls-26" x="612.64" y="753.2" width="1074.21" height="71.98"/><polygon class="cls-27" points="-120.88 502.04 -120.88 564.6 640.85 564.6 640.85 505.27 -120.88 502.04"/><rect class="cls-28" x="-120.88" y="494.49" width="761.72" height="7.03"/><rect class="cls-29" x="-120.88" y="487.53" width="761.72" height="13.99"/><g class="cls-30"><rect class="cls-31" x="128.59" y="508.94" width="14.24" height="7.81"/><rect class="cls-31" x="135.71" y="518.66" width="14.24" height="7.81"/></g><g class="cls-30"><rect class="cls-31" x="184.33" y="539.31" width="14.24" height="7.81"/><rect class="cls-31" x="191.45" y="549.03" width="14.24" height="7.81"/></g><g class="cls-30"><rect class="cls-31" x="326.57" y="509.9" width="14.24" height="7.81"/><rect class="cls-31" x="333.69" y="519.62" width="14.24" height="7.81"/></g><g class="cls-30"><rect class="cls-31" x="469.6" y="513.8" width="14.24" height="7.81"/><rect class="cls-31" x="476.72" y="523.52" width="14.24" height="7.81"/></g><g class="cls-30"><rect class="cls-31" x="387.21" y="530.55" width="14.24" height="7.81"/><rect class="cls-31" x="394.33" y="540.27" width="14.24" height="7.81"/></g><g class="cls-30"><rect class="cls-31" x="605.9" y="513.8" width="14.24" height="7.81"/><rect class="cls-31" x="613.02" y="523.52" width="14.24" height="7.81"/></g><g class="cls-30"><rect class="cls-31" x="107.35" y="538.36" width="14.24" height="7.81"/></g><g class="cls-30"><rect class="cls-31" x="13.85" y="518.66" width="14.24" height="7.81"/></g><g class="cls-30"><rect class="cls-31" x="45.58" y="544.17" width="14.24" height="7.81"/><rect class="cls-31" x="52.7" y="553.89" width="14.24" height="7.81"/></g><polygon class="cls-27" points="2040 499.65 2040 567.06 628.75 564.61 628.75 503.01 2040 499.65"/><rect class="cls-32" x="-135" y="499.65" width="2175" height="8.12" transform="translate(1905 1007.42) rotate(-180)"/><rect class="cls-29" x="640.86" y="489.97" width="1416.14" height="11.5" transform="translate(2697.86 991.45) rotate(-180)"/><g class="cls-30"><rect class="cls-33" x="1198.64" y="517.13" width="16.3" height="7.66"/><rect class="cls-33" x="1190.49" y="526.67" width="16.3" height="7.66"/><rect class="cls-33" x="1146.3" y="536.94" width="16.3" height="7.66"/><rect class="cls-33" x="1138.15" y="546.47" width="16.3" height="7.66"/><rect class="cls-33" x="983.53" y="508.07" width="16.3" height="7.66"/><rect class="cls-33" x="975.38" y="517.61" width="16.3" height="7.66"/><rect class="cls-33" x="959.85" y="516.9" width="16.3" height="7.66"/><rect class="cls-33" x="951.7" y="526.44" width="16.3" height="7.66"/><rect class="cls-33" x="1054.13" y="533.34" width="16.3" height="7.66"/><rect class="cls-33" x="1045.98" y="542.87" width="16.3" height="7.66"/><rect class="cls-33" x="663.89" y="526.9" width="16.3" height="7.66"/><rect class="cls-33" x="655.74" y="536.44" width="16.3" height="7.66"/><rect class="cls-33" x="1234.39" y="551" width="16.3" height="7.66"/><rect class="cls-33" x="1361.37" y="521.67" width="16.3" height="7.66"/><rect class="cls-33" x="1325.07" y="546.71" width="16.3" height="7.66"/><rect class="cls-33" x="1316.92" y="556.24" width="16.3" height="7.66"/><rect class="cls-33" x="1481.74" y="516.9" width="16.3" height="7.66"/><rect class="cls-33" x="1473.59" y="526.44" width="16.3" height="7.66"/></g><g class="cls-30"><rect class="cls-34" x="1857.79" y="516.77" width="16.3" height="7.66"/><rect class="cls-34" x="1849.64" y="526.31" width="16.3" height="7.66"/><rect class="cls-34" x="1805.45" y="536.58" width="16.3" height="7.66"/><rect class="cls-34" x="1797.3" y="546.12" width="16.3" height="7.66"/><rect class="cls-34" x="1642.68" y="507.71" width="16.3" height="7.66"/><rect class="cls-34" x="1634.53" y="517.25" width="16.3" height="7.66"/><rect class="cls-34" x="1619" y="516.54" width="16.3" height="7.66"/><rect class="cls-34" x="1610.86" y="526.08" width="16.3" height="7.66"/><rect class="cls-34" x="1713.29" y="532.98" width="16.3" height="7.66"/><rect class="cls-34" x="1705.14" y="542.52" width="16.3" height="7.66"/><rect class="cls-34" x="1323.04" y="526.54" width="16.3" height="7.66"/><rect class="cls-34" x="1314.89" y="536.08" width="16.3" height="7.66"/><rect class="cls-34" x="1893.54" y="550.64" width="16.3" height="7.66"/></g><g class="cls-35"><path class="cls-36" d="M1283.58,464h-10.45v-4.67a2.85,2.85,0,0,0,1.51-2.48,3,3,0,0,0-6.06,0,2.84,2.84,0,0,0,1.52,2.48V464h-87.79v-4.67a2.85,2.85,0,0,0,1.51-2.48,3,3,0,0,0-6.06,0,2.84,2.84,0,0,0,1.52,2.48V464h-87.79v-4.67a2.85,2.85,0,0,0,1.51-2.48,3,3,0,0,0-6.06,0,2.84,2.84,0,0,0,1.52,2.48V464h-87.79v-4.67a2.85,2.85,0,0,0,1.51-2.48,3,3,0,0,0-6.06,0,2.84,2.84,0,0,0,1.52,2.48V464H909.85v-4.67a2.85,2.85,0,0,0,1.51-2.48,3,3,0,0,0-6.06,0,2.84,2.84,0,0,0,1.52,2.48V464H819v-4.67a2.85,2.85,0,0,0,1.51-2.48,3,3,0,0,0-6.06,0,2.84,2.84,0,0,0,1.52,2.48V464H728.21v-4.67a2.85,2.85,0,0,0,1.51-2.48,3,3,0,0,0-6.06,0,2.84,2.84,0,0,0,1.52,2.48V464h-59v4.29h59v18.6h3v-18.6H816v18.6h3v-18.6h87.79v18.6h3v-18.6h87.79v18.6h3v-18.6h87.79v18.6h3v-18.6h87.79v18.6h3v-18.6h87.79v18.6h3v-18.6h10.45Z"/><path class="cls-37" d="M906.28,457.09c1.32,1.11,3.64-1,2.38-2.19C907.22,453.54,905,456,906.28,457.09Z"/><path class="cls-37" d="M997.1,457.09c1.32,1.11,3.64-1,2.38-2.19C998,453.54,995.78,456,997.1,457.09Z"/><path class="cls-37" d="M1087.92,457.06c1.32,1.11,3.64-1,2.38-2.19C1088.86,453.51,1086.6,456,1087.92,457.06Z"/><path class="cls-37" d="M815.46,457.06c1.32,1.11,3.64-1,2.38-2.19C816.4,453.51,814.14,456,815.46,457.06Z"/><path class="cls-38" d="M729.72,464h-1.51v-4.67a2.79,2.79,0,0,0-.27-5.08,2.68,2.68,0,0,1,.27,1.17,3,3,0,0,1-3,2.86,3.21,3.21,0,0,1-1.25-.25,3,3,0,0,0,2.76,1.68,3.08,3.08,0,0,0,.61-.06v27.24h.91v-18.6H816V466.9H729.72Z"/><path class="cls-38" d="M911.36,466.9V464h-1.51V459.4a2.79,2.79,0,0,0-.27-5.08,2.72,2.72,0,0,1,.27,1.17,3,3,0,0,1-3,2.86,3.21,3.21,0,0,1-1.25-.25,3,3,0,0,0,2.76,1.68,4.07,4.07,0,0,0,.61,0V487h.91V468.33h87.79V466.9Z"/><path class="cls-38" d="M1002.18,466.9V464h-1.51V459.4a2.79,2.79,0,0,0-.27-5.08,2.72,2.72,0,0,1,.27,1.17,3,3,0,0,1-3,2.86,3.21,3.21,0,0,1-1.25-.25,3,3,0,0,0,2.76,1.68,4.07,4.07,0,0,0,.61,0V487h.91V468.33h87.79V466.9Z"/><path class="cls-38" d="M1093,466.9V464h-1.51v-4.67a2.79,2.79,0,0,0-.27-5.08,2.68,2.68,0,0,1,.27,1.17,3,3,0,0,1-3,2.86,3.21,3.21,0,0,1-1.25-.25,3,3,0,0,0,2.76,1.68,3.08,3.08,0,0,0,.61-.06v27.24h.91v-18.6h87.79V466.9Z"/><path class="cls-38" d="M1183.82,464h-1.51v-4.67a2.79,2.79,0,0,0-.27-5.08,2.68,2.68,0,0,1,.27,1.17,3,3,0,0,1-3,2.86,3.21,3.21,0,0,1-1.25-.25,3,3,0,0,0,2.76,1.68,3.08,3.08,0,0,0,.61-.06v27.24h.91v-18.6h87.79V466.9h-86.28Z"/><path class="cls-38" d="M820.54,466.9V464H819v-4.67a2.79,2.79,0,0,0-.27-5.08,2.68,2.68,0,0,1,.27,1.17,3,3,0,0,1-3,2.86,3.21,3.21,0,0,1-1.25-.25,3,3,0,0,0,2.76,1.68,3.08,3.08,0,0,0,.61-.06v27.24H819v-18.6h87.79V466.9Z"/></g><g class="cls-35"><path class="cls-36" d="M1886.37,463.9h-10.45v-4.67a2.85,2.85,0,0,0,1.51-2.48,3,3,0,0,0-6,0,2.85,2.85,0,0,0,1.51,2.48v4.67H1785.1v-4.67a2.85,2.85,0,0,0,1.51-2.48,3,3,0,0,0-6,0,2.85,2.85,0,0,0,1.51,2.48v4.67h-87.79v-4.67a2.85,2.85,0,0,0,1.51-2.48,3,3,0,0,0-6,0,2.85,2.85,0,0,0,1.51,2.48v4.67h-87.79v-4.67a2.85,2.85,0,0,0,1.51-2.48,3,3,0,0,0-6,0,2.85,2.85,0,0,0,1.51,2.48v4.67h-87.79v-4.67a2.85,2.85,0,0,0,1.51-2.48,3,3,0,0,0-6.05,0,2.85,2.85,0,0,0,1.51,2.48v4.67h-87.79v-4.67a2.85,2.85,0,0,0,1.51-2.48,3,3,0,0,0-6,0,2.85,2.85,0,0,0,1.51,2.48v4.67H1331v-4.67a2.85,2.85,0,0,0,1.51-2.48,3,3,0,0,0-6,0,2.85,2.85,0,0,0,1.51,2.48v4.67h-59v4.3h59v18.59h3V468.2h87.79v18.59h3V468.2h87.79v18.59h3V468.2h87.79v18.59h3V468.2h87.79v18.59h3V468.2h87.79v18.59h3V468.2h87.79v18.59h3V468.2h10.45Z"/><path class="cls-37" d="M1509.07,457c1.32,1.11,3.64-1,2.38-2.18C1510,453.4,1507.75,455.85,1509.07,457Z"/><path class="cls-37" d="M1599.89,457c1.32,1.11,3.64-1,2.38-2.18C1600.83,453.4,1598.57,455.85,1599.89,457Z"/><path class="cls-37" d="M1690.71,456.92c1.32,1.11,3.64-1,2.38-2.19C1691.65,453.37,1689.39,455.82,1690.71,456.92Z"/><path class="cls-37" d="M1418.25,456.92c1.32,1.11,3.64-1,2.38-2.19C1419.19,453.37,1416.93,455.82,1418.25,456.92Z"/><path class="cls-38" d="M1332.51,463.9H1331v-4.67a2.79,2.79,0,0,0-.27-5.08,2.72,2.72,0,0,1,.27,1.17,3,3,0,0,1-3,2.86,3.19,3.19,0,0,1-1.24-.25,3,3,0,0,0,2.75,1.68,4.07,4.07,0,0,0,.61-.05v27.23h.91V468.2h87.79v-1.43h-86.28Z"/><path class="cls-38" d="M1514.15,466.77V463.9h-1.51v-4.64a2.79,2.79,0,0,0-.27-5.08,2.72,2.72,0,0,1,.27,1.17,3,3,0,0,1-3,2.86,3.19,3.19,0,0,1-1.24-.25,3,3,0,0,0,2.75,1.68,4.07,4.07,0,0,0,.61-.05v27.23h.91V468.2h87.79v-1.43Z"/><path class="cls-38" d="M1605,466.77V463.9h-1.51v-4.64a2.79,2.79,0,0,0-.27-5.08,2.72,2.72,0,0,1,.27,1.17,3,3,0,0,1-3,2.86,3.19,3.19,0,0,1-1.24-.25,3,3,0,0,0,2.75,1.68,4.07,4.07,0,0,0,.61-.05v27.23h.91V468.2h87.79v-1.43Z"/><path class="cls-38" d="M1695.79,466.77V463.9h-1.51v-4.67a2.79,2.79,0,0,0-.27-5.08,2.72,2.72,0,0,1,.27,1.17,3,3,0,0,1-3,2.86,3.19,3.19,0,0,1-1.24-.25,3,3,0,0,0,2.75,1.68,4.07,4.07,0,0,0,.61-.05v27.23h.91V468.2h87.79v-1.43Z"/><path class="cls-38" d="M1786.61,463.9h-1.51v-4.67a2.79,2.79,0,0,0-.27-5.08,2.72,2.72,0,0,1,.27,1.17,3,3,0,0,1-3,2.86,3.19,3.19,0,0,1-1.24-.25,3,3,0,0,0,2.75,1.68,4.07,4.07,0,0,0,.61-.05v27.23h.91V468.2h87.79v-1.43h-86.28Z"/><path class="cls-38" d="M1423.33,466.77V463.9h-1.51v-4.67a2.79,2.79,0,0,0-.27-5.08,2.72,2.72,0,0,1,.27,1.17,3,3,0,0,1-3,2.86,3.19,3.19,0,0,1-1.24-.25,3,3,0,0,0,2.75,1.68,4.07,4.07,0,0,0,.61-.05v27.23h.91V468.2h87.79v-1.43Z"/></g><g class="cls-35"><path class="cls-36" d="M2508.35,463.05H2497.9v-4.67a2.85,2.85,0,0,0,1.51-2.48,3,3,0,0,0-6,0,2.83,2.83,0,0,0,1.51,2.48v4.67h-87.79v-4.67a2.85,2.85,0,0,0,1.51-2.48,3,3,0,0,0-6.06,0,2.84,2.84,0,0,0,1.52,2.48v4.67h-87.79v-4.67a2.85,2.85,0,0,0,1.51-2.48,3,3,0,0,0-6.06,0,2.84,2.84,0,0,0,1.52,2.48v4.67h-87.79v-4.67a2.85,2.85,0,0,0,1.51-2.48,3,3,0,0,0-6.06,0,2.84,2.84,0,0,0,1.52,2.48v4.67h-87.79v-4.67a2.85,2.85,0,0,0,1.51-2.48,3,3,0,0,0-6.06,0,2.84,2.84,0,0,0,1.52,2.48v4.67H2043.8v-4.67a2.85,2.85,0,0,0,1.51-2.48,3,3,0,0,0-6.06,0,2.84,2.84,0,0,0,1.52,2.48v4.67H1953v-4.67a2.85,2.85,0,0,0,1.51-2.48,3,3,0,0,0-6.06,0,2.84,2.84,0,0,0,1.52,2.48v4.67h-59v4.29h59v18.6h3v-18.6h87.79v18.6h3v-18.6h87.79v18.6h3v-18.6h87.79v18.6h3v-18.6h87.79v18.6h3v-18.6h87.79v18.6h3v-18.6h87.79v18.6h3v-18.6h10.45Z"/></g><g class="cls-35"><path class="cls-36" d="M378.62,465.35H368.16v-4.67a2.85,2.85,0,0,0,1.51-2.48,3,3,0,0,0-6.05,0,2.85,2.85,0,0,0,1.51,2.48v4.67H277.34v-4.67a2.85,2.85,0,0,0,1.51-2.48,3,3,0,0,0-6.05,0,2.85,2.85,0,0,0,1.51,2.48v4.67H186.52v-4.67A2.85,2.85,0,0,0,188,458.2a3,3,0,0,0-6.05,0,2.85,2.85,0,0,0,1.51,2.48v4.67H95.7v-4.67a2.85,2.85,0,0,0,1.51-2.48,3,3,0,0,0-6,0,2.85,2.85,0,0,0,1.51,2.48v4.67H4.88v-4.67a2.85,2.85,0,0,0,1.51-2.48,2.94,2.94,0,0,0-3-2.86,2.94,2.94,0,0,0-3,2.86,2.85,2.85,0,0,0,1.51,2.48v4.67H-85.94v-4.67a2.85,2.85,0,0,0,1.51-2.48,2.94,2.94,0,0,0-3-2.86,2.94,2.94,0,0,0-3,2.86A2.85,2.85,0,0,0-89,460.68v4.67h-87.79v-4.67a2.85,2.85,0,0,0,1.51-2.48,2.94,2.94,0,0,0-3-2.86,2.94,2.94,0,0,0-3,2.86,2.85,2.85,0,0,0,1.51,2.48v4.67h-59v4.29h59v18.6h3v-18.6H-89v18.6h3v-18.6H1.85v18.6h3v-18.6H92.67v18.6h3v-18.6h87.79v18.6h3v-18.6h87.79v18.6h3v-18.6h87.79v18.6h3v-18.6h10.46Z"/><path class="cls-37" d="M1.32,458.4c1.32,1.11,3.63-1,2.38-2.19C2.25,454.85,0,457.3,1.32,458.4Z"/><path class="cls-37" d="M92.14,458.4c1.32,1.11,3.63-1,2.38-2.19C93.07,454.85,90.81,457.3,92.14,458.4Z"/><path class="cls-37" d="M183,458.37c1.32,1.11,3.63-1,2.38-2.19C183.89,454.82,181.63,457.27,183,458.37Z"/><path class="cls-38" d="M6.39,468.21v-2.86H4.88v-4.64a2.79,2.79,0,0,0-.27-5.08,2.68,2.68,0,0,1,.27,1.17,3,3,0,0,1-3,2.86,3.19,3.19,0,0,1-1.24-.25,3,3,0,0,0,2.76,1.68,3.94,3.94,0,0,0,.6,0v27.23h.91V469.64H92.67v-1.43Z"/><path class="cls-38" d="M97.21,468.21v-2.86H95.7v-4.64a2.79,2.79,0,0,0-.27-5.08,2.68,2.68,0,0,1,.27,1.17,3,3,0,0,1-3,2.86,3.19,3.19,0,0,1-1.24-.25,3,3,0,0,0,2.76,1.68,3.94,3.94,0,0,0,.6,0v27.23h.91V469.64h87.79v-1.43Z"/><path class="cls-38" d="M188,468.21v-2.86h-1.51v-4.67a2.8,2.8,0,0,0-.27-5.09,2.76,2.76,0,0,1,.27,1.18,3,3,0,0,1-3,2.86,3.19,3.19,0,0,1-1.24-.25,3,3,0,0,0,2.76,1.68,3,3,0,0,0,.6-.06v27.24h.91v-18.6h87.79v-1.43Z"/><path class="cls-38" d="M278.85,465.35h-1.51v-4.67a2.8,2.8,0,0,0-.27-5.09,2.76,2.76,0,0,1,.27,1.18,3,3,0,0,1-3,2.86,3.19,3.19,0,0,1-1.24-.25,3,3,0,0,0,2.76,1.68,3,3,0,0,0,.6-.06v27.24h.91v-18.6h87.79v-1.43H278.85Z"/><path class="cls-38" d="M-84.43,468.21v-2.86h-1.51v-4.67a2.85,2.85,0,0,0,1.51-2.48,2.86,2.86,0,0,0-1.78-2.61,2.76,2.76,0,0,1,.27,1.18,3,3,0,0,1-3,2.86,3.19,3.19,0,0,1-1.24-.25,3,3,0,0,0,2.76,1.68,3,3,0,0,0,.6-.06v27.24h.91v-18.6H1.85v-1.43Z"/></g><g class="cls-35"><path class="cls-36" d="M986,465.35H975.49v-4.67A2.84,2.84,0,0,0,977,458.2a3,3,0,0,0-6.06,0,2.84,2.84,0,0,0,1.52,2.48v4.67h-87.8v-4.67a2.84,2.84,0,0,0,1.52-2.48,3,3,0,0,0-6.06,0,2.84,2.84,0,0,0,1.52,2.48v4.67h-87.8v-4.67a2.84,2.84,0,0,0,1.52-2.48,3,3,0,0,0-6.06,0,2.84,2.84,0,0,0,1.52,2.48v4.67H703v-4.67a2.84,2.84,0,0,0,1.52-2.48,3,3,0,0,0-6.06,0,2.84,2.84,0,0,0,1.52,2.48v4.67h-87.8v-4.67a2.84,2.84,0,0,0,1.52-2.48,3,3,0,0,0-6.06,0,2.84,2.84,0,0,0,1.52,2.48v4.67h-87.8v-4.67a2.84,2.84,0,0,0,1.52-2.48,3,3,0,0,0-6.06,0,2.84,2.84,0,0,0,1.52,2.48v4.67h-87.8v-4.67a2.84,2.84,0,0,0,1.52-2.48,3,3,0,0,0-6.06,0,2.85,2.85,0,0,0,1.51,2.48v4.67h-59v4.29h59v18.6h3v-18.6h87.8v18.6h3v-18.6h87.8v18.6h3v-18.6H700v18.6h3v-18.6h87.8v18.6h3v-18.6h87.8v18.6h3v-18.6h87.8v18.6h3v-18.6H986Z"/><path class="cls-37" d="M608.65,458.4c1.32,1.11,3.63-1,2.38-2.19C609.59,454.85,607.33,457.3,608.65,458.4Z"/><path class="cls-37" d="M699.47,458.4c1.32,1.11,3.63-1,2.38-2.19C700.41,454.85,698.15,457.3,699.47,458.4Z"/><path class="cls-37" d="M790.29,458.37c1.32,1.11,3.63-1,2.38-2.19C791.23,454.82,789,457.27,790.29,458.37Z"/><path class="cls-37" d="M517.83,458.37c1.32,1.11,3.63-1,2.38-2.19C518.77,454.82,516.51,457.27,517.83,458.37Z"/><path class="cls-38" d="M432.09,465.35h-1.52v-4.67a2.84,2.84,0,0,0,1.52-2.48,2.87,2.87,0,0,0-1.79-2.61,2.76,2.76,0,0,1,.27,1.18,2.94,2.94,0,0,1-3,2.86,3.21,3.21,0,0,1-1.25-.25,3,3,0,0,0,2.76,1.68,2.91,2.91,0,0,0,.6-.06v27.24h.91v-18.6h87.8v-1.43H432.09Z"/><path class="cls-38" d="M613.73,468.21v-2.86h-1.52v-4.64a2.78,2.78,0,0,0-.27-5.08,2.68,2.68,0,0,1,.27,1.17,2.94,2.94,0,0,1-3,2.86,3.21,3.21,0,0,1-1.25-.25,3,3,0,0,0,2.76,1.68,3.83,3.83,0,0,0,.6,0v27.23h.91V469.64H700v-1.43Z"/><path class="cls-38" d="M704.55,468.21v-2.86H703v-4.64a2.78,2.78,0,0,0-.27-5.08,2.68,2.68,0,0,1,.27,1.17,2.94,2.94,0,0,1-3,2.86,3.21,3.21,0,0,1-1.25-.25,3,3,0,0,0,2.76,1.68,3.83,3.83,0,0,0,.6,0v27.23H703V469.64h87.8v-1.43Z"/><path class="cls-38" d="M795.37,468.21v-2.86h-1.52v-4.67a2.84,2.84,0,0,0,1.52-2.48,2.87,2.87,0,0,0-1.79-2.61,2.76,2.76,0,0,1,.27,1.18,2.94,2.94,0,0,1-3,2.86,3.21,3.21,0,0,1-1.25-.25,3,3,0,0,0,2.76,1.68,2.91,2.91,0,0,0,.6-.06v27.24h.91v-18.6h87.8v-1.43Z"/><path class="cls-38" d="M886.19,465.35h-1.52v-4.67a2.84,2.84,0,0,0,1.52-2.48,2.87,2.87,0,0,0-1.79-2.61,2.76,2.76,0,0,1,.27,1.18,2.94,2.94,0,0,1-3,2.86,3.21,3.21,0,0,1-1.25-.25,3,3,0,0,0,2.76,1.68,2.91,2.91,0,0,0,.6-.06v27.24h.91v-18.6h87.8v-1.43H886.19Z"/><path class="cls-38" d="M522.91,468.21v-2.86h-1.52v-4.67a2.84,2.84,0,0,0,1.52-2.48,2.87,2.87,0,0,0-1.79-2.61,2.76,2.76,0,0,1,.27,1.18,2.94,2.94,0,0,1-3,2.86,3.21,3.21,0,0,1-1.25-.25,3,3,0,0,0,2.76,1.68,2.91,2.91,0,0,0,.6-.06v27.24h.91v-18.6h87.8v-1.43Z"/></g><rect class="cls-39" x="312.03" y="671.32" width="1075.77" height="81.89"/><path class="cls-40" d="M406.64,505.35s9.36-18.25,24.12-9.21c0,0,16.7-8.88,33.49,0,4.95-10.24,31.44.53,35.5,7.44,11.35-16.77,39.89-15,45.2-4.95,14.43-12.73,38.77-6.78,43-.45,14.43-8.57,16.92,5.4,16.92,5.4Z"/><path class="cls-41" d="M206.76,563.78s-17.32-101.95,0-182.63,31.45-57,38.1-11.21,12.89,157.44-2.24,193.84S206.76,563.78,206.76,563.78Z"/><rect class="cls-42" x="-120" y="619.7" width="2160.62" height="190.3"/><path class="cls-43" d="M241.75,631.38s-1.88-19.16,13.95-12.7c16.41-13.53,42.13-11.2,49.39,6.23,15.2-23.36,26.89-27,46.36-17.45,25.54-18.28,48.14,4.53,48.82,20.22,16.58-14.32,41.15-16,55.79,1.62,25.39-16.07,51.07-11.84,64.22,9.32C383,652.4,237,645.16,237,645.16Z"/><polygon class="cls-44" points="312.03 671.32 531.29 671.32 637.6 753.2 312.03 753.2 312.03 671.32"/><path class="cls-45" d="M453.16,599.81s-63.25,18.1-52.69,39c15.95,15.74,30.46,27.52,15,30.8s-70.36,1.38-65.34,29.06c-14,23.14-2.53,108.69-29.47,111.32-85.8,8.37-434.17,123.32-440,0-1.5-31.65,0-136.88,0-210.12Z"/><path class="cls-46" d="M143,425.43l21.52-28.5,314.15-32.58q15,119.75,29.93,239.49l-335.47,4.84Q158,517.06,143,425.43Z"/><path class="cls-47" d="M143,425.43l21.52-28.5,314.15-32.58,4.31,73.3,30.12,154.74H465.75q-12.12-74.5-24.25-149L148.36,463.79Z"/><path class="cls-47" d="M223.21,534.33l-6.33-53.26,4.65-7.95a766.26,766.26,0,0,0,58.1,51.41l-4.65,8Z"/><path class="cls-48" d="M221.36,477.19l.86-4s26.57-23.32,59.7-1.53l-2.29,52.89Z"/><path class="cls-49" d="M228,530.91l-6.68-53.72s26.84-23.3,60.36-1.48l-2.27,52.89Z"/><polygon class="cls-50" points="228.2 483.25 233.4 507.56 250.6 507.06 248.62 480.75 228.2 483.25"/><polygon class="cls-50" points="274.79 481.36 272.87 506.06 255.73 507.48 254.19 481.14 274.79 481.36"/><polygon class="cls-50" points="233.55 511.63 250.75 511.13 251.22 523.83 234 523.84 233.55 511.63"/><polygon class="cls-50" points="272.26 510.52 255.05 511.01 255.52 523.7 272.71 522.73 272.26 510.52"/><path class="cls-47" d="M351.51,531.2l-3.57-53.51L353,470a765.43,765.43,0,0,0,55.36,54.33L403.31,532Z"/><path class="cls-48" d="M352.61,474l1.07-4s27.74-21.92,59.7,1.56l-5,52.69Z"/><path class="cls-49" d="M356.51,528l-3.9-54s28-21.88,60.37,1.64l-5,52.7Z"/><polygon class="cls-50" points="359.13 480.45 363.08 504.99 380.28 505.39 379.65 479.01 359.13 480.45"/><polygon class="cls-50" points="405.76 480.97 402.57 505.53 385.38 506.06 385.2 479.68 405.76 480.97"/><polygon class="cls-50" points="363.02 509.06 380.22 509.46 380.03 522.16 362.84 521.28 363.02 509.06"/><polygon class="cls-50" points="401.73 509.96 384.52 509.56 384.33 522.26 401.55 522.17 401.73 509.96"/><polygon class="cls-47" points="508.91 568.64 168.44 578.77 168.58 574.7 168.58 574.7 174.37 574.01 509.16 561.45 508.91 568.64"/><polygon class="cls-49" points="503.16 566.79 165.78 574.49 164.38 567.81 166.46 567.76 168.57 567.71 503.5 559.61 503.16 566.79"/><polygon class="cls-51" points="404.05 301.94 406.2 314.22 404.05 420.06 415.27 427.09 474.36 420.7 467.27 296.56 461.45 295.12 404.05 301.94"/><path class="cls-46" d="M1240.39,425.43l-21.52-28.5L904.71,364.35q-23.07,120.14-46.16,240.26l351.71,4.07Q1225.32,517.06,1240.39,425.43Z"/><path class="cls-47" d="M1240.39,425.43l-21.52-28.5L904.71,364.35l-36.74,82,68,3.94,296.76,10.53Q1236.55,443.11,1240.39,425.43Z"/><path class="cls-47" d="M1100.83,533.57l-3.56-48.73,3.4-12.5s20.24,31.09,55.66,53.1l-8,8.75Z"/><path class="cls-48" d="M1161.35,476.07l-1-4s-27.25-22.51-59.72.26l3.87,52.8Z"/><path class="cls-49" d="M1156.28,530l5.07-53.91s-27.53-22.48-60.38.33l3.85,52.8Z"/><polygon class="cls-50" points="1154.69 482.34 1150.22 506.79 1133.01 506.81 1134.21 480.45 1154.69 482.34"/><polygon class="cls-50" points="1108.07 481.85 1110.72 506.47 1127.89 507.38 1128.65 481.01 1108.07 481.85"/><polygon class="cls-50" points="1150.19 510.86 1132.98 510.89 1132.89 523.59 1150.11 523.08 1150.19 510.86"/><polygon class="cls-50" points="1111.47 510.92 1128.68 510.89 1128.59 523.59 1111.39 523.14 1111.47 510.92"/><path class="cls-47" d="M962.05,533.31l-3.56-48.73,3.4-12.5s20.24,31.09,55.66,53.1l-8,8.75Z"/><path class="cls-48" d="M1022.58,475.81l-1-4s-27.26-22.51-59.73.26l3.88,52.8Z"/><path class="cls-49" d="M1017.5,529.72l5.08-53.91s-27.54-22.48-60.39.33l3.85,52.8Z"/><polygon class="cls-50" points="1015.92 482.08 1011.44 506.53 994.23 506.55 995.43 480.19 1015.92 482.08"/><polygon class="cls-50" points="969.29 481.58 971.94 506.21 989.12 507.12 989.88 480.75 969.29 481.58"/><polygon class="cls-50" points="1011.41 510.6 994.21 510.63 994.12 523.33 1011.33 522.82 1011.41 510.6"/><polygon class="cls-50" points="972.7 510.65 989.9 510.63 989.82 523.33 972.61 522.88 972.7 510.65"/><path class="cls-52" d="M1311.85,428q-1.21,8-2.41,16L895.6,426.48,909,405.07Z"/><path class="cls-53" d="M1209.65,310.14l22.13,29.78L1311.85,428,897.37,411.3l16-116.18Z"/><path class="cls-52" d="M80.65,423.86q1.21,8,2.41,16L496.89,422.3l-13.41-21.41Z"/><path class="cls-53" d="M182.85,306l-22.13,29.77L80.65,423.86l414.48-16.74L479.18,290.94Z"/><polygon class="cls-47" points="874.46 569.14 1214.96 578.26 1214.81 574.19 1214.81 574.19 1209.02 573.52 874.2 561.96 874.46 569.14"/><polygon class="cls-49" points="880.19 567.25 1217.68 574.03 1219.02 567.36 1216.94 567.31 1214.83 567.27 879.79 560.07 880.19 567.25"/><path class="cls-54" d="M508.79,604.61s-60.25-324.92-73.16-367.12c0,0,172.14-194.1,262.51-215.2A604.38,604.38,0,0,1,800.89,87.17c20.34,15.91,31.21,26.54,55.84,48.27s61,52.76,108.23,89.39C952.67,283.48,939.68,342,926.77,400.48c-19.91,90.2-41.42,185.14-47.88,204.13Z"/><path class="cls-39" d="M448,297.06q-61.28.68-124.76,2.67Q250.64,302,181,305.9l2.67-18.26,260.53-8.19Q446.11,288.26,448,297.06Z"/><path class="cls-39" d="M947.75,302.64q61.69.67,125.62,2.67,73.08,2.31,143.19,6.17-1.35-9.12-2.69-18.26L951.54,285Q949.65,293.83,947.75,302.64Z"/><path class="cls-46" d="M444.59,292.67S433.06,239,430.18,229.6c0,0,175.8-198.24,268.1-219.79Q749.43,45,802,83.88c60.12,44.53,110.53,87.51,163,131.31L951.54,285,693.89,93Z"/><ellipse class="cls-46" cx="691.22" cy="171.67" rx="34.59" ry="32.73"/><ellipse class="cls-55" cx="695.41" cy="161.75" rx="34.59" ry="32.73"/><ellipse class="cls-56" cx="695.41" cy="165.71" rx="34.59" ry="32.73"/><ellipse class="cls-57" cx="695.41" cy="165.71" rx="28.3" ry="26.78"/><ellipse class="cls-58" cx="695.41" cy="164.72" rx="28.3" ry="25.79"/><polygon class="cls-53" points="695.03 168.43 689.1 168.5 679.28 159.34 692.38 163.4 695.03 168.43"/><polygon class="cls-53" points="696.46 168.99 698.55 162.5 696.46 145.19 694.36 162.5 696.46 168.99"/><path class="cls-46" d="M616.38,604.61,590.56,401a151.24,151.24,0,0,1,47.33-40.72c17.22-24.43,43.08-33,60.25-20.36L633.59,604.61Z"/><path class="cls-48" d="M603.47,409.14,601,388.45s82.66-97.61,183.14-3.74l0,12.22Z"/><path class="cls-49" d="M625,604.61,602.41,399.42s82.82-96.15,181.8-2.49L767,604.61Z"/><polygon class="cls-59" points="616.38 405.07 685.23 395.49 685.23 516.43 629.29 516.43 616.38 405.07"/><polygon class="cls-59" points="631.77 528.79 684.03 529.94 683.08 592.39 637.02 591.95 631.77 528.79"/><polygon class="cls-59" points="771.3 405.07 702.45 395.49 702.45 516.43 758.39 516.43 771.3 405.07"/><polygon class="cls-59" points="755.91 528.79 703.64 529.94 704.6 592.39 750.66 591.95 755.91 528.79"/><ellipse class="cls-48" cx="695.99" cy="346.03" rx="23.67" ry="22.4"/><ellipse class="cls-49" cx="695.99" cy="358.24" rx="23.67" ry="22.4"/><polygon class="cls-46" points="491.57 421.36 517.4 543.52 569.04 539.45 569.04 531.31 500.18 413.22 491.57 421.36"/><polygon class="cls-48" points="498.19 413.39 499.37 421.06 573.34 527.24 569.04 409.14 498.19 413.39"/><polygon class="cls-49" points="499.01 417.77 521.7 535.38 573.34 531.31 569.04 413.22 499.01 417.77"/><polygon class="cls-50" points="508.9 430.73 517.89 478.25 538.47 476.34 534.66 428.56 508.9 430.73"/><polygon class="cls-50" points="519.07 484.8 527.23 528.33 542.93 526.92 538.78 482.2 519.07 484.8"/><polygon class="cls-50" points="562.2 424.33 564.19 472.52 544.99 474.6 538.22 427.14 562.2 424.33"/><polygon class="cls-50" points="563.34 478.9 564.74 523.11 549.08 524.93 543.5 480.39 563.34 478.9"/><path class="cls-46" d="M490.87,375.76l-12-77.68,8.37-7s43.75,44.7,77.46,69.23l-4.3,8.14Z"/><path class="cls-48" d="M485.26,296.72l.93-5.48s34.54-33.05,80.58-5.53l0,71.59Z"/><path class="cls-49" d="M497.41,368.93l-12.15-72.21s34.92-33,81.48-5.51v71.6Z"/><polygon class="cls-50" points="494.86 304.52 503.3 337.06 526.51 335.39 522.3 299.95 494.86 304.52"/><polygon class="cls-50" points="557.7 299.26 556.55 332.74 533.47 335.65 529.85 300.16 557.7 299.26"/><polygon class="cls-50" points="503.74 342.55 526.95 340.88 528.32 358 505.06 359.02 503.74 342.55"/><polygon class="cls-50" points="555.97 338.8 532.76 340.47 534.13 357.59 557.29 355.28 555.97 338.8"/><polygon class="cls-46" points="808.16 413.22 803.76 537.98 860.9 542.14 865.29 525.5 816.95 404.9 808.16 413.22"/><polygon class="cls-48" points="889.54 409.24 888.35 417.07 812.8 525.5 817.19 404.9 889.54 409.24"/><polygon class="cls-49" points="888.71 413.71 865.54 533.82 812.8 529.66 817.19 409.06 888.71 413.71"/><polygon class="cls-50" points="878.61 426.95 869.42 475.48 848.41 473.52 852.3 424.73 878.61 426.95"/><polygon class="cls-50" points="868.22 482.16 859.89 526.62 843.86 525.18 848.09 479.51 868.22 482.16"/><polygon class="cls-50" points="824.18 420.41 822.15 469.63 841.75 471.74 848.67 423.28 824.18 420.41"/><polygon class="cls-50" points="823.01 476.14 821.59 521.29 837.57 523.15 843.27 477.67 823.01 476.14"/><path class="cls-46" d="M812.55,363.31v-79l6.62-5.54s33.66,55.36,68.1,80.4l-4.4,8.32Z"/><path class="cls-48" d="M902.75,290.08l-1-5.59s-35.28-33.76-82.29-5.65l0,73.11Z"/><path class="cls-49" d="M890.34,363.82l12.41-73.74s-35.66-33.74-83.21-5.62v73.12Z"/><polygon class="cls-50" points="892.95 298.05 884.33 331.27 860.62 329.58 864.92 293.39 892.95 298.05"/><polygon class="cls-50" points="828.77 292.67 829.95 326.87 853.52 329.84 857.21 293.59 828.77 292.67"/><polygon class="cls-50" points="883.88 336.88 860.17 335.19 858.77 352.67 882.53 353.71 883.88 336.88"/><polygon class="cls-50" points="830.54 333.06 854.25 334.76 852.85 352.25 829.19 349.89 830.54 333.06"/><polygon class="cls-60" points="699.69 -5.52 697.69 37.85 404.66 255.71 392.1 235.91 699.69 -5.52"/><path class="cls-60" d="M698-5.84c.66,14.46-1,29.23-.3,43.69C795.36,110.47,895.35,182.78,993,255.4l12.56-19.81Z"/><polygon class="cls-61" points="698.37 -20.8 1012.64 224.78 1005.58 235.59 697.99 -5.84 698.37 -20.8"/><polygon class="cls-61" points="698.37 -20.8 385.42 224.64 392.48 235.46 700.07 -5.97 698.37 -20.8"/><path class="cls-62" d="M489.42,670.63s-77,3-91.85-15a8.88,8.88,0,0,1-2.24-5.3c-.44-11.35-1.27-3.74-2.61-7.64-.68-2,19.61-16.14,10.14-16.07-6.52,0-43.12.77-47.34-10.87-.79-2.18-1-6.29,5-13.69l176.29-3.42,16.59,2.73q-4.77,4.14-9.52,8.51A424.38,424.38,0,0,0,489.42,670.63Z"/><path class="cls-63" d="M903.47,670.63s158,3,188.36-14.76c27.51-16-79-26.55-36.45-29.5s133.68-8.86,66.84-17.71l-316-8.85-6.08,3s0,8.85,6.08,8.85S903.47,670.63,903.47,670.63Z"/><path class="cls-26" d="M763,588s-5.9-4.67-5.9-8.85c0-2.95,2.95-5.9,5.9-2.95,0,0,2.95-14.75,8.85-5.9,0,0,0-8.85,5.9,3,0,0,12.28-16.49,8.85,3,0,0,12.74-14.58,11.81,5.9,0,0,23.61-20.13,17.7,8.86,0,0,26.56-5.91,17.71,14.75,0,0,32.46,0,26.56,14.75,0,0,11.95-6.83,14.75-5.9,8.85,3-3,11.81-3,11.81s12.89.3,14.75,5.9c3,8.85-8.85,11.8-8.85,11.8s143.16,8.14,168.2,20.66c41.31,20.65-56.07,47.21-56.07,47.21-37.59-3.39-65.8-7.29-85.06-10.33-10.76-1.7-32-5.22-63.46-9.64-14.61-2.05-13.6-1.79-22.14-3.05-64.23-9.48-70.68-16.59-72.83-22-1.3-3.28-.68-8.88,1.52-19.9,2.07-10.34,8.77-32.46,8.77-32.46s-5.82-5.9-5.82-8.85,5.91-5.9,5.91-5.9-8.94-2.95-8.94-5.9,8.94,0,8.94,0-9-2.24-9.4-6.72a3,3,0,0,1,.46-2.14C750.6,581.94,761.94,587.49,763,588Z"/><path class="cls-63" d="M765.93,599.81S760,595.13,760,591c0-3,3-5.91,5.9-3,0,0,3-14.75,8.85-5.9,0,0,0-8.85,5.9,2.95,0,0,12.28-16.49,8.86,3,0,0,12.74-14.58,11.8,5.91,0,0,17.7-17.19,11.8,11.8,0,0,20.66-3,11.81,11.8,0,0,20.65-5.9,17.7,8.86,0,0,12-.94,14.76,0,8.85,3,5.9,17.7,5.9,17.7s0,5.9-8.86,8.85c-.19.07-.29.13-.29.2,0,3,186.93.35,189.15,20.46.86,7.77-24,17.67-41.5,21.58-22.54,5.05-36,.87-64.71-3-33.5-4.53-118-12.74-135.68-14.47a65.84,65.84,0,0,1-28.34-10.85s-16.83-11.4-20.52-27.58a21,21,0,0,1-.19-8.36,17.12,17.12,0,0,1,1-3.12c-1.34-5.36-.37-8.44.74-10.25,1.74-2.84,5.9-5.9,5.9-5.9h0s-8.94-3-8.94-5.9,8.94,0,8.94,0-11.89-3-8.94-8.85S765.93,599.81,765.93,599.81Z"/><path class="cls-26" d="M621.34,595.22l2.95-7.72s5.9-15.44-5.9-11.58c0,0-5.91-15.44-11.81-3.86,0,0-3-15.44-8.85,0,0,0-18.66-20-15.23,5.45,0,0-16.15-16.58-15.22,10.21,0,0-22.67-18.16-16.76,19.76,0,0-17.71-27.7-27.26,14.76,0,0-37.66-34.74-34.71,15.44,0,0-34-24.91-20,8.77,0,0-21.36-8.77-15.45,10.53,0,0-8.86,3.86-8.86,7.72,0,16.38,14.76,7.72,14.76,7.72s-11.81,15.44,2.95,7.72c-11.8,23.16,11.8,19.3,11.8,19.3s-41.31,3.86-67.87,15.44-17.7,30.88-5.9,27c-47.58,4.37-81.73,34.85-85.57,69.48-4.37,39.29,31.45,73.36,37.25,78.88,45.89,43.64,78,8.39,198.82,12.17,87.51,2.74,142.69,20.65,221-20a103,103,0,0,0,9.16-5.4l118-65.62c-35.41,7.72-253.87-10.17-286.24-61.76-24-38.21,13.33-74.25,14.76-84.92,1.82-13.58-5.9-27-5.9-27s5.9-15.44,5.9-19.3-5.9-7.72-5.9-7.72,8.85,3.86,8.85,0-8.85-3.86-8.85-3.86,11.8,0,8.85-7.72S621.34,595.22,621.34,595.22Z"/><path class="cls-64" d="M614.3,592.78l1.94-4.18s3.88-8.36-3.88-6.27c0,0-3.88-8.36-7.77-2.09,0,0-1.94-8.36-5.82,0,0,0-12.28-10.81-10,3,0,0-10.63-9-10,5.53,0,0-14.92-9.83-11,10.69,0,0-11.65-15-17.93,8,0,0-24.78-18.8-22.84,8.36,0,0-22.39-13.48-13.14,4.75,0,0-14-4.75-10.16,5.69,0,0-5.82,2.09-5.82,4.18,0,8.87,9.7,4.18,9.7,4.18s-7.76,8.36,2,4.18c-7.77,12.53,100.9-9,99-6.27s5.82-16.71,5.82-16.71,3.88-8.36,3.88-10.45-3.88-4.18-3.88-4.18,5.82,2.09,5.82,0S614.3,599,614.3,599s7.77,0,5.82-4.18A4.09,4.09,0,0,0,614.3,592.78Z"/><path class="cls-42" d="M760.68,610.48l-1.94-4.18s-3.89-8.35,3.88-6.27c0,0,3.88-8.35,7.77-2.08,0,0,1.94-8.36,5.82,0,0,0,12.27-10.82,10,2.94,0,0,10.63-9,10,5.53,0,0,14.91-9.83,11,10.7,0,0,5.49-13.74,11.77,9.25,0,0,23.61-3,20.66,11.8,0,0,23.61,0,11.8,8.85,0,0,3,5.9-3,5.9,0,0-81.56-14.55-79.67-11.8s-8.2-7.66-8.2-7.66S756.8,625.1,756.8,623s3.88-4.18,3.88-4.18-5.83,2.09-5.83,0,5.83-2.09,5.83-2.09-7.77,0-5.83-4.18A4.1,4.1,0,0,1,760.68,610.48Z"/><path class="cls-63" d="M609.46,611.28l2.35-5.12s4.7-10.25-4.69-7.69c0,0-4.7-10.25-9.4-2.56,0,0-2.35-10.25-7.05,0,0,0-14.85-13.26-12.12,3.61,0,0-12.85-11-12.11,6.79,0,0-18-12.06-13.35,13.11,0,0-14.09-18.39-21.69,9.79,0,0-30-23.05-27.63,10.25,0,0-27.08-16.53-15.89,5.83,0,0-17-5.83-12.29,7,0,0-9.58,5-7,5.12C524,659.75,459.14,683,438,690.7s-14.1,20.5-4.7,17.93c0,0-65.59,4.82-68.12,46.12-2.34,38.43,54,59.41,187.9,60.43,138.58,1.05,205.85-4.61,224.64-14.86l109.18-41.87c-63-2.06-108-2.36-139.07-2.19a328.33,328.33,0,0,1-48.64-3.16c-24.3-3.39-51.27-7.44-78-25.27-13.79-9.18-30.86-20.55-33.26-38.89-1.68-12.86,4-28.21,5.76-33.07a96.93,96.93,0,0,1,8.46-17.4c8.31-2,12.83-7.7,12-11.82-.57-2.95-3.79-4.66-4.7-5.12,0,0,7,2.56,7,0s-7-2.56-7-2.56,6.39,0,7.32-2.87a3.17,3.17,0,0,0-.27-2.26C615.55,611.84,612.74,610.79,609.46,611.28Z"/><path class="cls-65" d="M596.66,624.59l2.21-3.27s4.41-6.55-4.41-4.91c0,0-4.41-6.54-8.82-1.64,0,0-2.2-6.54-6.61,0,0,0-13.94-8.46-11.38,2.31,0,0-12.06-7-11.36,4.33,0,0-16.93-7.7-12.53,8.37,0,0-49.49,4.74-52.26,14.29l112.13-3s-2.56-5.09-2.56-6.72-4.41-3.27-4.41-3.27,6.62,1.63,6.62,0-6.62-1.64-6.62-1.64,8.82,0,6.62-3.27S596.66,624.59,596.66,624.59Z"/><path class="cls-65" d="M774.91,625.57l-.95-3.83s-1.91-7.66,5.82-3.1c0,0,6.38-4.64,8.84,1.47,0,0,4.31-5.39,6.22,2.27,0,0,16-3.19,9.9,6.06,0,0,13.74-2.48,9.2,7.95,0,0,18.54-1.44,8.9,12.15l-60.13-9.82s4.14-3.9,4.7-5.44,5.26-1.57,5.26-1.57-6.77-.72-6.21-2.26,6.77.73,6.77.73-8.28-3-5.09-5.34S774.91,625.57,774.91,625.57Z"/><polygon class="cls-63" points="1033.22 682.56 1604.83 685.18 1600.85 749.45 994.53 749.45 945.38 716 1033.22 682.56"/><path class="cls-66" d="M1101.67,639.29S998.61,657.59,1033,663s1007,10.12,1007,10.12l.62-53.42Z"/><path class="cls-66" d="M378.63,661.92c33.09,0,70.9,2.54,73.8,15.39.31,1.37,1.39,8-14.42,19.87-38.94,29.14-90.14,22.15-136,20.63-25.63-.85,12.14,2.06-138.93,11.15,0,0-133.42,8-283.95,12.12h0l.88-113.57q574.2-16.07,576.06,9.6Q456.77,646.65,378.63,661.92Z"/><polygon class="cls-67" points="617.64 604.17 612.2 612.34 756.4 612.34 750.96 604.17 617.64 604.17"/><rect class="cls-68" x="612.19" y="612.34" width="144.21" height="8.16"/><polygon class="cls-67" points="626.38 593.42 621.65 600.52 746.95 600.52 742.22 593.42 626.38 593.42"/><rect class="cls-68" x="621.65" y="600.52" width="125.29" height="7.09"/><rect class="cls-69" x="1479.42" y="634.5" width="8.64" height="46.53"/><path class="cls-70" d="M1518.89,555.18c6.19,61.32,18.61,109.17-34.28,99.41-56.5,4.39-44.15-34.52-37-101.59,6.22-58.3,22.9-132.29,39.09-125.21C1501.69,434.35,1513,496.85,1518.89,555.18Z"/><path class="cls-64" d="M1518.89,555.18c6.19,61.32,18.61,109.17-34.28,99.41,27.9-23.17,27.12-32.33,20.93-93.65-5.89-58.33-9.35-98-18.83-133.15C1501.69,434.35,1513,496.85,1518.89,555.18Z"/><path class="cls-71" d="M1484.61,654.59c-56.5,4.39-44.15-34.52-37-101.59,6.22-58.3,22.9-132.29,39.09-125.21C1461,472.46,1440.89,668,1484.61,654.59Z"/><rect class="cls-69" x="1409.02" y="641.97" width="6.83" height="36.09"/><path class="cls-70" d="M1439.11,584.84c4.89,47.56,14.7,84.67-27.07,77.1-44.62,3.41-34.87-26.77-29.21-78.79,4.91-45.21,18.08-102.6,30.87-97.1C1425.53,491.13,1434.46,539.61,1439.11,584.84Z"/><path class="cls-64" d="M1439.11,584.84c4.89,47.56,14.7,84.67-27.07,77.1,22-18,21.42-25.08,16.53-72.63-4.65-45.24-7.38-76-14.87-103.26C1425.53,491.13,1434.46,539.61,1439.11,584.84Z"/><path class="cls-71" d="M1412,661.94c-44.62,3.41-34.87-26.77-29.21-78.79,4.91-45.21,18.08-102.6,30.87-97.1C1393.4,520.69,1377.51,672.37,1412,661.94Z"/><rect class="cls-69" x="1593.8" y="630.56" width="8.64" height="46.53" transform="translate(1.05 -2.57) rotate(0.09)"/><path class="cls-70" d="M1632.06,557c6.09,61.33,18.44,109.2-34.43,99.35-56.51,4.31-44.1-34.58-36.83-101.65,6.32-58.28,23.11-132.25,39.29-125.14C1615.06,436.09,1626.26,498.61,1632.06,557Z"/><path class="cls-64" d="M1632.06,557c6.09,61.33,18.44,109.2-34.43,99.35,27.94-23.12,27.16-32.28,21.07-93.61-5.8-58.34-9.18-98-18.61-133.18C1615.06,436.09,1626.26,498.61,1632.06,557Z"/><path class="cls-71" d="M1597.63,656.3c-56.51,4.31-44.1-34.58-36.83-101.65,6.32-58.28,23.11-132.25,39.29-125.14C1574.32,474.14,1553.88,669.68,1597.63,656.3Z"/><rect class="cls-69" x="1706.73" y="637.64" width="8.64" height="46.53" transform="translate(1.07 -2.75) rotate(0.09)"/><path class="cls-70" d="M1746.35,558.38c6.1,61.33,18.44,109.2-34.43,99.35-56.51,4.31-44.09-34.58-36.83-101.65,6.32-58.28,23.12-132.25,39.29-125.14C1729.35,437.52,1740.56,500,1746.35,558.38Z"/><path class="cls-64" d="M1746.35,558.38c6.1,61.33,18.44,109.2-34.43,99.35,27.94-23.12,27.17-32.28,21.07-93.61-5.79-58.34-9.18-98-18.61-133.18C1729.35,437.52,1740.56,500,1746.35,558.38Z"/><path class="cls-71" d="M1711.92,657.73c-56.51,4.31-44.09-34.58-36.83-101.65,6.32-58.28,23.12-132.25,39.29-125.14C1688.61,475.57,1668.18,671.11,1711.92,657.73Z"/><polygon class="cls-72" points="945.98 705.63 1402.34 696.96 1402.18 752.93 864.3 752.93 945.98 705.63"/><path class="cls-73" d="M1396.47,153.48c.74-2.32,18.86-12.53,37.25-8.6,19.09,5.94,27,17.69,8.61,19a169.5,169.5,0,0,1-37.94-1.67C1400,161.56,1394.15,160.83,1396.47,153.48Z"/><path class="cls-74" d="M1579.21,216.12c.49-1.54,12.56-8.34,24.8-5.73,12.71,4,18,11.78,5.73,12.67a113.26,113.26,0,0,1-25.26-1.11C1581.54,221.5,1577.66,221,1579.21,216.12Z"/><path class="cls-75" d="M1754.11,150.81c.91-2.86,23.29-15.47,46-10.62,23.57,7.34,33.35,21.85,10.64,23.51a210.22,210.22,0,0,1-46.87-2.07C1758.42,160.8,1751.24,159.89,1754.11,150.81Z"/><path class="cls-76" d="M903,154.26s33.21-19.85,69.18-11.19c36.69,8.84,14,25.75-20,24.27C916.33,165.85,903,165,903,165S880.05,162.16,903,154.26Z"/><rect class="cls-66" x="588.68" y="219.63" width="219.75" height="66.16"/><rect class="cls-77" x="598.12" y="225.23" width="202.29" height="55.63"/><path class="cls-78" d="M630.27,273.93c-6.28,0-11.88-2.39-15.77-7.76a95,95,0,0,1,6.28-8.53c2.89,5.31,9.8,7.82,12.13,5.31,1.88-2,0-5.13-6-7.76-5.72-2.51-11.57-5.43-11.75-12.06-.13-3.81,2.26-9.78,10.24-10.32s13.76,3.94,16.71,9.85a66.44,66.44,0,0,0-8.86,5.19c-.94-2.57-3.33-4.48-5.53-4.48a2.22,2.22,0,0,0-2.45,2.57c.25,2.57,2.89,3.46,7.42,5.07,6.72,2.27,10.61,6.27,10.74,11.22C643.53,270.11,636.61,273.93,630.27,273.93Z"/><path class="cls-78" d="M666.59,271.6c-3.84,2.93-9.68,2.63-13,1-4.59-2.33-8.48-6.8-9.3-17.49-.88-11,3.46-17.54,8.23-20a14,14,0,0,1,12.88-.48c5.09,2.39,6.16,7.46,6.16,14a53,53,0,0,0-10,1.19c-.25-4.3-1.38-6.57-3.4-6.45s-5.34,3.7-5.21,11.22c.13,8,2.76,10.57,4.52,11,2.27.47,4.34-1.62,4.34-4.9a68,68,0,0,1,10.56-.65A13.1,13.1,0,0,1,666.59,271.6Z"/><path class="cls-78" d="M690.09,273.63a139.88,139.88,0,0,0,1.51-16.17,72.05,72.05,0,0,0-8.49-.18c.25,6.68.88,13.13,2,17.49a110.91,110.91,0,0,0-12.31-.3c2.39-9.73,2.26-32.11.5-40.82,0,0,5.34-.18,10.87.12a131.88,131.88,0,0,0-1.13,17.54c2-.06,5.22-.3,8.67-.65a157.27,157.27,0,0,0-.88-19.46,107.73,107.73,0,0,0,10.87.54c-2.26,11-2.45,30.73.5,41.18C696.18,273.1,690.09,273.63,690.09,273.63Z"/><path class="cls-78" d="M717.3,274.05c-7.36,0-14.83-6.68-14.33-20.59.5-13,6.66-19.81,13.57-20.05,5.15-.18,12.32,4.47,14.2,19.22S724.71,274.05,717.3,274.05Zm-1-29.24c-2.51.35-4.71,5.31-4.84,10.62-.12,6.09,2,11.52,5.91,11.46s5.59-5.07,4.65-12.12C721.25,249.46,719,244.33,716.29,244.81Z"/><path class="cls-78" d="M747.21,274.05c-7.36,0-14.83-6.68-14.33-20.59.5-13,6.66-19.81,13.57-20.05,5.15-.18,12.32,4.47,14.2,19.22S754.62,274.05,747.21,274.05Zm-1-29.24c-2.51.35-4.71,5.31-4.84,10.62-.12,6.09,2,11.52,5.91,11.46s5.59-5.07,4.65-12.12C751.16,249.46,748.9,244.33,746.2,244.81Z"/><path class="cls-78" d="M761.66,274.89c2.2-9,1.63-31.4-.44-40.35a38.84,38.84,0,0,0,10.8-2.27c-.94,8.54-1.25,23.1-.12,31.52A39.69,39.69,0,0,1,784,261a70.81,70.81,0,0,0,.07,10A111.2,111.2,0,0,0,761.66,274.89Z"/><path class="cls-65" d="M1299.68,670.89l-1-2.55s-2.05-5.12,3.73-2.7c0,0,4-3.82,6.26.18,0,0,2.47-4.14,4.51,1,0,0,10.76-3.73,7.43,3.25,0,0,9.27-3,7.12,4.63,0,0,12.69-2.76,7.31,7.56l-42.53-1.08s2.5-3.09,2.74-4.21,3.49-1.58,3.49-1.58-4.76.14-4.52-1,4.76-.15,4.76-.15-6-1.3-4-3.2S1299.68,670.89,1299.68,670.89Z"/><path class="cls-65" d="M1407.65,679.83l-1-2.56s-2.05-5.11,3.73-2.7c0,0,4-3.82,6.26.18,0,0,2.47-4.14,4.51,1,0,0,10.76-3.73,7.43,3.25,0,0,9.27-3,7.12,4.62,0,0,12.69-2.76,7.32,7.56l-42.54-1.07s2.5-3.1,2.74-4.21,3.49-1.59,3.49-1.59-4.75.15-4.51-1,4.75-.14,4.75-.14-6-1.3-4-3.21S1407.65,679.83,1407.65,679.83Z"/><path class="cls-65" d="M1475.77,681.24l-1-2.56s-2-5.11,3.73-2.7c0,0,4-3.82,6.26.18,0,0,2.47-4.14,4.51,1,0,0,10.76-3.73,7.43,3.25,0,0,9.27-3,7.12,4.63,0,0,12.69-2.76,7.31,7.55l-42.53-1.07s2.5-3.1,2.74-4.21,3.49-1.59,3.49-1.59-4.76.15-4.52-1,4.76-.14,4.76-.14-6-1.3-4-3.21S1475.77,681.24,1475.77,681.24Z"/><path class="cls-65" d="M1593.05,675.78l-1-2.55s-2-5.12,3.73-2.7c0,0,4-3.82,6.26.18,0,0,2.47-4.14,4.52,1,0,0,10.76-3.73,7.42,3.25,0,0,9.27-3,7.12,4.63,0,0,12.69-2.76,7.32,7.56L1585.86,686s2.49-3.09,2.73-4.21,3.49-1.58,3.49-1.58-4.75.14-4.51-1,4.75-.14,4.75-.14-6-1.3-4-3.2S1593.05,675.78,1593.05,675.78Z"/><path class="cls-65" d="M1493.52,673.23s.72-2.88,4.06-1.3c4.16-2.24,6.19-.33,6.25,1,3.17-2.47,6.3.14,6.22,1.37,3.1-3.59,5.34-2.72,7.24-1,4.49-2.24,6.77-.57,6.8,1.15,4.49-2.86,5.73,4.66,5.73,4.66h-37.91Z"/><path class="cls-65" d="M1425,675.27s2.57-6.24,6.69-1c-.16,6-.16,7.88-.16,7.88l-6.76-.07Z"/><path class="cls-65" d="M1489.8,673.94s2.68-2.09,5,0a49.41,49.41,0,0,0,5.69,1l-21.48.76V669.2s1.85-2.64,4.36,0c1.95,2.79,1.11,2.93,1.11,2.93a3,3,0,0,1,3.76,0l1.53,1.81"/><path class="cls-65" d="M1295.72,676.32s-5.07-.09-4.81,2.52c-2.49-1.7-4.06,1.57-4.06,1.57-1.57-1.44-4.57,0-4.57,0l-5.76.66,17.79.13Z"/><path class="cls-65" d="M1334.73,675.09s2.08-3,4.57,0c2.48-.43,5.86,1,5.15,2.53,3.48-1.26,5,1.14,5,1.14s3.4-.44,4.19,1.65c2.61-1.31,4.57-1.31,5.1,0,3.92-.39,9.94.79,9.94.79l-33.71,1Z"/><polygon class="cls-26" points="1007.69 697.44 1590.64 693.29 1590.64 702.38 980.26 705.03 1007.69 697.44"/><polygon class="cls-63" points="-224 959.64 2040 898.7 2023.97 748.67 95.39 752.65 -224 959.64"/><path class="cls-79" d="M752.69,625.47S666.16,705.68,1177.78,697l444.83-2.65,4.42,76h0s-149.3-1.2-262.37-1.79c-295.75-1.55-350,1.06-470.72-7.74C827,756,772.88,750,739.85,746.05c-92.23.39-152.29-35.5-157.51-72.18-2.14-15,6.09-33,30.45-54.17C752,618.37,752.69,625.47,752.69,625.47Z"/><path class="cls-72" d="M756.4,620.5S657.81,712.07,1184,697c819-2.1,856-3.75,856-3.75l.62,77.06L774.89,767.66S485.41,744,613.13,619.7C760.68,618.84,756.4,620.5,756.4,620.5Z"/><path class="cls-26" d="M1150.59,683.1s929.4-11,903.52,10.19c-20.06,1.28-1100.51,6.67-1127.34,1.65s-100.72-6.85-117.32-15.07c-17-3.88-52.71-14.69-62.5-33.07,0,0-4.14-13.09,5.74-21.33,4.79.29-18.46,31.16,66.15,47.1s199.26,19,204.8,15.77,55,3,54.61-3.41C1085.42,682.6,1150.59,683.1,1150.59,683.1Z"/><path class="cls-1" d="M1008.88,591c3.18,1.62,27.9,20.65,27.9,20.65H856.71a28.8,28.8,0,0,0-22.91-5.9l3.56-4.91L1005,602.41Z"/><path class="cls-80" d="M1008.88,591l27.9,20.65H856.71s-6.94-8.19-22.91-5.9l3.56-4.91L1005,602.41Z"/><path class="cls-80" d="M337.79,609.44l185.47-.78s-2.2-2.11,5.39-12.18c-105.45,2.27-168.12,5.58-168.12,5.58l-1.35-11.87h-15Z"/><rect class="cls-1" x="79.72" y="88.01" width="1608" height="913"/><path class="cls-63" d="M-119.38,724.94c15-2.14,31.72,10.2,121.87,0s176.82-11.93,214.58-13,196.71-5.47,213.46-6.92,8.68,16.79-33.57,28.24-43.48,34.16-9.75,42.26S594.37,809.11,517.12,810s-636.5,0-636.5,0l-1.5-52.33"/><path class="cls-81" d="M311.27,689.84c-32.67,11.88-12.85,26.2,16.41,25.75s46.17-6.5,42.84-1.86,8.49,6.16,24.51,3.76,23-7.58,27.71-11.79c3.37-3,9.78-12.75-10.37-14.13s-13.09-6.63-12.89-9.79c.41-6.72-33.09-8.81-53.77-3.31A279.6,279.6,0,0,0,311.27,689.84Z"/><path class="cls-42" d="M915.14,670.33c24.69,14.62,101,9.75,112.23,7.31,4.41-.95,22.45-9.75-9-17.06-19.75-4.59-13.46,1-13.46-2.43,0-7.31-33.67-9.75-58.37-7.31C925.25,652.94,889.44,655.12,915.14,670.33Z"/><ellipse class="cls-81" cx="459.8" cy="756.52" rx="78.56" ry="31.43"/><ellipse class="cls-81" cx="585.56" cy="790.68" rx="15.71" ry="4.49"/><ellipse class="cls-66" cx="906.55" cy="664.82" rx="15.71" ry="4.49"/><ellipse class="cls-66" cx="362.37" cy="686.15" rx="7.86" ry="3.37"/><path class="cls-66" d="M-120.92,755.55h0c41.33-.87,162.79-3.62,215.8-6.88,64.41-4,201.46-21.42,224.22-8.83s-19.44,39.65-42.05,40.26,12.47,2.49,56.64,5.41S376.16,810,376.16,810H-119.38"/><ellipse class="cls-81" cx="238.22" cy="694.37" rx="21.76" ry="7.25"/><ellipse class="cls-81" cx="1208.56" cy="653.39" rx="44.01" ry="9.32"/><ellipse class="cls-66" cx="1128.29" cy="656.14" rx="23.59" ry="4.2"/><ellipse class="cls-81" cx="1131.96" cy="651.6" rx="19.91" ry="4.54"/><path class="cls-82" d="M53.37,807.88c5.25-17.93-18-37.59-42.24-77.88-47.48-79.09-56.75-168.37-55.67-237.63,0,0-4.14-92.89,23.44-139.33s46.89-94.49,46.89-94.49,96.52,4.8,104.8,0,31.71-27.65,27.58-86.7l1.38-14.2-24.83,7.62s-7.63,52.95-39.42,57c-37.91,5.74-81.24-19.76-74.88-57H-7.13S1.35,274-40.33,297c-31.08,9-49.45-5.26-48-68.92L-87,164.4l-49.44.09s2.82,67.67,0,71.77-24.73,45.95-48-40.2c-19.78-60.71-8.48-31.47-8.48-31.47l-26.84.68s12,66.89,51.57,108.74c26.14,40.2,26.84,107.47,7.06,131.26-21.19,23.8-57.22,36.92-84.77-104.19-18.37-93.53-23.31-135.81-23.31-135.81l-38.15-.47s15.54,111.67,12.72,131.36c-3.53,22.15-4.95,90.24-88.3,61.53-43.28-7-129.94-32.07-166-107.48-13.42-64-10.6-88.6-10.6-88.6l-31.07-.9s.7,37,7,46.84A92.64,92.64,0,0,1-639,194.2c-32-19.4-44.92-52.21-48.39-61.94l-24.92-1.13a166.67,166.67,0,0,0,25.15,48.26c24.57,32.3,58.76,50.11,83.83,54.41,5,.86,24.78,3.78,24.69,4.68,0,.25-1.37.25-1.37.25s6.35,96.81,106,141.11c89,38.56,127.86,58.25,150.47,73.84s38.14,32,34.61,85.33a484,484,0,0,0,6.36,127.57A456.82,456.82,0,0,0-233.89,804C-12.77,846.57,46.15,832.5,53.37,807.88Z"/><path class="cls-83" d="M-45.87,478.5a204,204,0,0,0-60,61.55c-67.61,107.43-21.61,248.71-16.38,264.06l178.49,3.74q-9-14.48-17.45-29.94C-17.54,675.19-39.77,570.36-45.87,478.5Z"/><path class="cls-84" d="M-704.37-29.71S-588.87-136.27-467.79-178C-335.52-240.73-160.41-380.72,52-315.95,215.88-255.36,338.83-171.78,411.49-17.18c35.39,89.84,41,198.49-229.14,183.86L-570.24,168S-864.58,143.7-704.37-29.71Z"/><path class="cls-85" d="M-698.54-27.16S-584-132.23-463.87-173.44c131.2-61.81,304.9-199.86,515.55-136C214.3-249.68,336.25-167.26,408.32-14.79,443.43,73.8,449,180.94,181,166.52l-746.53,1.31S-857.46,143.86-698.54-27.16Z"/><path class="cls-86" d="M159.55,166.9s3.53,61.34-21.31,85.17c-7.4,8.34-13.27,8.11-22.13,8.34,0,0,24.72-9.38,30.87-40.62A338,338,0,0,0,153.44,165h6.11Z"/><g class="cls-87"><ellipse cx="274.81" cy="664.14" rx="73.48" ry="16.22"/></g><ellipse class="cls-88" cx="274.81" cy="659.13" rx="71.82" ry="15.85"/><path class="cls-89" d="M347.45,656.06c0,21.12-145.29,21.12-145.29,0S347.45,635,347.45,656.06Z"/><g class="cls-90"><path class="cls-91" d="M290.63,641.06,341,661.48c2.72-1.67,4.25-3.55,4.25-5.65C345.25,647.2,319.73,642.28,290.63,641.06Z"/></g><g class="cls-92"><path class="cls-91" d="M214.76,647.41c-6.55,2.19-10.51,5-10.51,8.29,0,10.16,36.72,15,71.59,14.48Z"/></g><path class="cls-93" d="M317.61,609.57a6.63,6.63,0,0,0-5.29-1.57l-37.58,5.29V615l37.82-5.33a4.95,4.95,0,0,1,5.62,4.91v29.73c.67.43,1,.28,1.71,0V614.61A6.7,6.7,0,0,0,317.61,609.57Z"/><g class="cls-94"><path class="cls-95" d="M319.89,644.34V614.61a7.07,7.07,0,0,0-.13-1.3L318.18,617v27.37C318.85,644.77,319.22,644.62,319.89,644.34Z"/></g><g class="cls-94"><polygon class="cls-95" points="274.98 614.99 302.54 611.11 292.4 610.8 274.96 613.26 274.98 614.99"/></g><g class="cls-94"><path class="cls-95" d="M329.31,665l-49.85-9.07a.61.61,0,0,0,.13-.35c0-.29-.26-.56-.69-.79l41-10.43h-1.71l-40.06,10.11a11.51,11.51,0,0,0-3.31-.43,11,11,0,0,0-3.59.52l-49.67-7.62-.85.75,49.57,7.41a.66.66,0,0,0-.24.48c0,.27.21.52.58.74l-42,10.12,1.28.28,41.51-10.07a11.37,11.37,0,0,0,3.44.47,10.17,10.17,0,0,0,3.88-.64l49.87,8.84Z"/></g><path class="cls-96" d="M329.31,665c-.69.79-1.11.49-1.71,0V627a5,5,0,0,0-4.27-4.91l-96-13.3a4.92,4.92,0,0,0-3.92,1.17,5,5,0,0,0-1.69,3.74v33.75a1.42,1.42,0,0,1-1.71,0V613.74a6.66,6.66,0,0,1,7.56-6.62l96,13.31a6.69,6.69,0,0,1,5.74,6.61Z"/><polygon class="cls-97" points="239.42 610.5 274.39 615.35 274.24 613.59 252.94 610.64 239.42 610.5"/><path class="cls-98" d="M272.69,653.91l-.74-41c-.07-3.87,5.78-3.92,5.72,0l-.61,41A2.19,2.19,0,0,1,272.69,653.91Z"/><g class="cls-94"><path class="cls-95" d="M274.81,610.47a4.81,4.81,0,0,0-2.09.41,2.4,2.4,0,0,0-.54.8c.19.5,1.29.89,2.63.89s2.46-.4,2.63-.91a2.41,2.41,0,0,0-.51-.77A4.88,4.88,0,0,0,274.81,610.47Z"/></g><g class="cls-90"><polygon class="cls-91" points="272.51 616.63 273.24 654.53 274.41 655.35 274.68 617.63 272.51 616.63"/></g><g class="cls-94"><polygon class="cls-95" points="272.15 615 277.46 627.25 277.5 624.52 273.67 614.43 272.15 615"/></g><path class="cls-96" d="M276.5,614.89a.86.86,0,0,0,.74.85l5.07.7a.85.85,0,0,0,1-.71.86.86,0,0,0-.73-1l-5.07-.7A.86.86,0,0,0,276.5,614.89Z"/><path class="cls-99" d="M279.52,606.92c0,6.25-9.42,6.26-9.42,0S279.52,600.66,279.52,606.92Z"/><path class="cls-100" d="M279.52,606.92a5.6,5.6,0,0,0-.07-.84l-8.8,3.17a4.2,4.2,0,0,0,1.85,1.81l6.88-2.9A5.35,5.35,0,0,0,279.52,606.92Z"/><path class="cls-100" d="M270.1,606.92a5.55,5.55,0,0,0,0,.72l8.7-3.27a4,4,0,0,0-1.44-1.43l-7.17,2.74A5.41,5.41,0,0,0,270.1,606.92Z"/><g class="cls-92"><path class="cls-91" d="M270.48,606.79a4.5,4.5,0,0,0,.23,1.42c1.46-3.11,4.7-4.06,8.08-3.17C277.23,601.13,270.48,601.71,270.48,606.79Z"/></g><g class="cls-94"><path class="cls-95" d="M276.91,603.09c0,.37-.94.68-2.1.68s-2.11-.31-2.11-.68.94-.68,2.11-.68S276.91,602.71,276.91,603.09Z"/></g><path class="cls-96" d="M277.23,600.75a2.42,2.42,0,0,1-4.84,0A2.42,2.42,0,0,1,277.23,600.75Z"/><path class="cls-93" d="M272.69,613.58l-1.78.25L234.31,619a6.7,6.7,0,0,0-5.73,6.62v40.82a1.25,1.25,0,0,0,1.71,0V625.6a5,5,0,0,1,4.25-4.91l38.11-5.37.28,0a.86.86,0,1,0-.24-1.7Z"/><g class="cls-94"><path class="cls-95" d="M272.65,615.32l.28,0a.86.86,0,0,0,.74-.85.69.69,0,0,0-.07-.29l-29.43,5.19Z"/></g><g class="cls-90"><path class="cls-91" d="M272.61,600.67a2.39,2.39,0,0,0,.08.62,3.1,3.1,0,0,1,3.77-2A2.19,2.19,0,0,0,272.61,600.67Z"/></g><g class="cls-90"><path class="cls-91" d="M277,601a4.13,4.13,0,0,1-3.2,1.75A2.12,2.12,0,0,0,277,601Z"/></g><g class="cls-90"><path class="cls-91" d="M279,607.81c-2.13,2.27-3.87,2.58-6.46,2.67A4,4,0,0,0,279,607.81Z"/></g><path class="cls-97" d="M313.39,620.75l9.94,1.38A5,5,0,0,1,327.6,627V665c.6.49,1,.79,1.71,0V627a6.69,6.69,0,0,0-5.74-6.61L313.08,619Z"/><path class="cls-101" d="M174.28,799.18c-33.65-19.36-69.92-5.44-69.92-5.44,16.82-7.13,4.73-38.7-38.91-35.65,2-16.78-20.25-29.55-59-18.23a10.28,10.28,0,0,1-1.67,2.43c-1.53,1.61-3.48,2.84-5.1,4.37a9.93,9.93,0,0,1-5.71,2.8L-3,819.89l311.36-.68C287.85,806.64,207.93,782.2,174.28,799.18Z"/><path class="cls-102" d="M2177.42,804.81c3.27-11.16-11.24-23.41-26.31-48.5-29.57-49.27-35.35-104.88-34.68-148,0,0-2.58-57.86,14.6-86.79a486.3,486.3,0,0,0,29.21-58.86s60.12,3,65.28,0,19.75-17.22,17.18-54l.85-8.84-15.46,4.74s-4.75,33-24.55,35.54c-23.62,3.57-50.6-12.31-46.64-35.54h-17.16s5.28,67.73-20.68,82c-19.37,5.62-30.8-3.27-29.93-42.93L2090,404l-30.8.06s1.76,42.15,0,44.7-15.4,28.62-29.92-25c-12.32-37.81-5.28-19.6-5.28-19.6l-16.72.42s7.48,41.67,32.12,67.73c16.28,25,16.72,67,4.4,81.77-13.2,14.82-35.64,23-52.8-64.9-11.44-58.26-14.52-84.6-14.52-84.6l-23.76-.29s9.68,69.56,7.92,81.82c-2.2,13.8-3.08,56.21-55,38.33-27-4.36-80.94-20-103.41-66.95-8.36-39.86-6.6-55.19-6.6-55.19l-19.35-.56s.43,23.05,4.39,29.18a57.76,57.76,0,0,1-34.54-8.32c-19.93-12.08-28-32.52-30.14-38.58l-15.52-.7a104.11,104.11,0,0,0,15.66,30.06c15.31,20.11,36.6,31.21,52.22,33.89,3.11.53,15.43,2.35,15.38,2.91,0,.16-.86.16-.86.16s4,60.3,66,87.9c55.45,24,79.65,36.28,93.73,46s23.76,19.93,21.56,53.15a300.94,300.94,0,0,0,4,79.46,284.75,284.75,0,0,0,30.36,85.6C2136.22,828.92,2172.92,820.15,2177.42,804.81Z"/><path class="cls-103" d="M1706.36,212.75c4.47-34.53,16.22-86.66,51.55-129.23C1850.49-28,2026.55,20.44,2094.68,39.2,2239.15,79,2337.34,174.34,2390.42,237.12a36.73,36.73,0,0,1,4.94,32.83,32.44,32.44,0,0,1-22.71,11c-62.59,3.14-319.94,15.86-334.26,13-16.31-3.3-315.72-33-315.72-33Z"/><path class="cls-104" d="M1712.29,381.84c-4.08,0-122.32-9.56-122.32-9.56s-73.4-17.52-31.26-60.53a73.67,73.67,0,0,0,26.64-26.08c8.39-14.08,6.15-21,11.5-34,17-41.07,73.85-55.05,73.85-55.05h0s77.14-18.12,134.55,17.44c6.4,4,9.55,6.11,12,9.8,26.55,40.24-56,157.94-56,157.94Z"/><path class="cls-105" d="M1708.13,386.46c-4.13,0-123.86-9.59-123.86-9.59s-74.31-17.58-31.65-60.74a74.25,74.25,0,0,0,27-26.16c8.49-14.13,6.22-21.06,11.65-34.08,17.17-41.2,74.76-55.23,74.76-55.23h0s78.12-18.18,136.24,17.5c6.48,4,9.67,6.13,12.14,9.83,26.88,40.38-56.72,158.47-56.72,158.47Z"/><path class="cls-84" d="M1705.43,283.09s72-66.37,147.37-92.4c82.38-39,191.46-126.23,323.74-85.89,102.11,37.74,178.69,89.8,223.94,186.1,22.05,56,25.53,123.63-142.72,114.52l-468.78.83S1605.64,391.11,1705.43,283.09Z"/><path class="cls-106" d="M1709.06,284.68s71.37-65.45,146.18-91.12c81.72-38.5,189.92-124.48,321.13-84.7,101.29,37.22,177.25,88.55,222.14,183.52,21.87,55.19,25.32,121.93-141.57,112.94l-465,.82S1610.08,391.2,1709.06,284.68Z"/><path class="cls-101" d="M2003.24,798.42c-26.24-15.09-54.53-4.23-54.53-4.23,13.12-5.56,3.69-30.19-30.34-27.8,1.56-13.09-15.78-23-46-14.23a7.89,7.89,0,0,1-1.3,1.9c-1.19,1.26-2.71,2.22-4,3.41a7.89,7.89,0,0,1-4.46,2.19l2.38,54.91,242.8-.53C2091.8,804.25,2029.48,785.18,2003.24,798.42Z"/><path class="cls-101" d="M1876,757.44c-1.2-.71-2.2-1.65-3.36-2.4-.55-.35-1.45-.47-.32-.37a9,9,0,0,1-5.39-2.33c-30.63-9.14-48.22.87-46.65,14-34-2.39-43.46,22.24-30.34,27.8,0,0-28.29-10.86-54.53,4.23-26.24-13.24-88.56,5.83-104.55,15.62l242.81.53,2.46-57.07Z"/><path class="cls-101" d="M1641.63,796.83c-26.24-15.09-54.53-4.24-54.53-4.24,13.12-5.56,3.69-30.18-30.34-27.8,1.56-13.08-15.79-23-46-14.22a7.89,7.89,0,0,1-1.3,1.9c-1.2,1.26-2.71,2.22-4,3.41a7.78,7.78,0,0,1-4.45,2.18l2.37,54.92,242.81-.53C1730.19,802.65,1667.87,783.59,1641.63,796.83Z"/><path class="cls-101" d="M1514.35,755.84c-1.21-.7-2.2-1.64-3.37-2.39-.54-.35-1.44-.47-.32-.37a9,9,0,0,1-5.39-2.33c-30.62-9.14-48.21.87-46.64,14-34-2.38-43.46,22.24-30.34,27.8,0,0-28.29-10.85-54.53,4.24-26.24-13.24-88.56,5.82-104.55,15.62L1512,813l2.47-57.07Z"/><path class="cls-101" d="M533.14,797.71c-26.24-15.09-54.53-4.24-54.53-4.24,13.12-5.56,3.69-30.18-30.34-27.8,1.56-13.08-15.79-23-46-14.22a7.36,7.36,0,0,1-1.3,1.9c-1.19,1.26-2.71,2.22-4,3.41a7.78,7.78,0,0,1-4.45,2.18l2.37,54.92,242.81-.53C621.7,803.53,559.38,784.47,533.14,797.71Z"/><path class="cls-101" d="M406.68,754.64c-1.2-.74-2.2-1.72-3.36-2.5-.55-.37-1.45-.49-.32-.39a8.89,8.89,0,0,1-5.39-2.43c-30.63-9.56-48.22.9-46.65,14.67-34-2.49-43.46,23.24-30.34,29,0,0-28.29-11.34-54.53,4.43-26.24-13.84-88.56,6.08-104.55,16.32l242.81.56,2.46-59.64Z"/></g><g class="cls-107"><rect class="cls-108" x="1824.69" y="139.12" width="2160" height="417.85" transform="translate(5809.38 696.09) rotate(-180)"/><rect class="cls-109" x="1824.69" y="0.63" width="2160.71" height="579.74" transform="translate(5810.09 580.99) rotate(-180)"/><path class="cls-110" d="M699.42,419l-.11,177.36,1654.43.83.09-145.15-10.46.32-.64,13.62h-9.39l.33-21.22-55.37,1.58v17.61l-64.79.37-2.68-237.16-14.37-1.2-17.38,3.79v-2.21h2.5v-2.39h-2v-6.21h-1.09v6.81h-3.76v-5.61h-1.4v5.81l-3.14,1.19.3,1.81h.8v1.61l-3,.39v12l-10.79-1.22v-2.2h-.64v1.8h-2.34V220.52l-12.67-.6v-2.41h-1.26v-5.82h1.1v-2.2h-3.76v8.81H2137v3h-8V216.7h-3.13v3H2127l-.15,2.6-15.95,2.21.13,31.05-9.71,1.39v3.61l-1.72,2.19,2,167.25-10.66-.8-6.57.2-.62-19.44-7-.8V398.54l-29.88-.42v-4.39l-22.68-.23v-4.39h-2.52V363.47l-1.63-2.11V348h-6.81V337.83h-2.8v1h-3.45V322.6l-.78.8v3.21l-1.88.4v1.19h-2.35l-.15-2-1.26-.4v2l-3.27.2-.47-1.81-1.89-.2-.46,1.81-3.76.2.16-1.61-1.73.21v1.2H1986v-2.41l-.8-.4-.15-3.2h-1.41l-.32,6-3.9.2-.17-4.61-.94.2-.46,4.41-2.82,1-.15-5.41h-.63l-.16,5.6-3,.61-.63-1.6V326l-1.56.2-.16,4.21.62,1.2-.15,9.41-5.17.4-.94,9.42-.8.2-.63,1.59-2.81-.19-.13-17-1.42.2-.48,17.63-13.93.79,1.38,82.12h-1.89v1.8l-.64.62.15,2.39.95.41.3,17.43-1.87.59v2.2h1.26l.15,6.41-10-.2c.48,0-.31,2.4-.31,2.4l-5.47.2.78,2.39.94.61h1.4l-.63,11.82-1.26,1v13h-2.33l-1-154.23-15.65-3.42v-9.2l-18-3.43v-1.4h-4.7l-.63,1-42.7,2.19v10.21l-17.22,1.6.32-18-5.93-2.4-2.5-32.66-52.42.78-3.45,34.45-9.71.2.17-3.8-1.73.18-1.69-27.64-7-1.2.35-54.69-20.82.19-13.29,1.81.05-78.53-9.54-3.41h-5.33v-3.2h-.93v2.8l-14.25-.6v-3.62h-.93v3.2l-8.45-.6v2H1667V156h-10.64l-13,5.61L1625.56,160l-4.54,2.8,1.62,165.45-12.68,2.2-.45-24.24-6.73.21V286.15l-17.52-2.42.49-27-2.19-1.61-8.93-1.2,0-26.65-1.72-1.19s-8-1.62-7.5-1.62-23.14-22.83-23.14-22.83h-4.7L1514.28,224l-1.11.4-.31,1.21-7.35,1.59.15,27.44-11.28,1.8.13,45.07-22.52.59-.63-7.61h-1.09l-.31,5h-1.11l.16,2.62-40.36,1.17-.16,7.22-12.54-1.6-.44-13.83-8.92-.41-3.44-11.21-.31-5.22h-2l-.8,4.21h-3.43v-1h-3.92v1.2l-21.28-3.22v-1.6h1.09v-3.4h-6.72v5.21l-5.48.21V277.6l-2.35-3-2,.2v3l1.26.21-.63,2.19-1.26.2-.48,4.21.16,1.6-1.11-.19v3.8h-.92v2.8h-9.69l.73,84.93h6.41l.14,27.23-3.75.41,0,33.05-3.29.18V418.61l-1.88-.4-.16-6.41L1325,413v-2h-16.57v1.8h-7.21l-.08-106.54-1.09-1-2-.2-.15-1-1.57-.38-.45-.81-4.85-.2-.16-1.2-3.45-.21V289.39L1281.9,286l-33.65,1.38V286h-3.75v1.19l-15.64-.21-.48,16.44-14.09.19.52,195.69-2.52-.21-.07-133.4-1.11-.2-.15-3-9.22.2v2.6h-2.66v-1.61H1190v1.41h-1.58l.37-69.52L1176,288.72l.17-11.61-11.57-7-35.06.6v5.39l-2.34-.19-3-1.41v-1.79h-1.26l-.78,1-8.13-.21v-2h.78l1.8-2.3-1.41-1.79-2-2.52h-2.36v-6.21h-1.7v6.62l-19.71-.42v-1.8h-1.73v2.61l-2.66,1.4-.16,2.19,2,4-.33,9-1.56,1.21h-3.91l.16.8-1.42.2v13.21h-8.12V295.9l-1.41-1.81-2.19,2-.36,66.5-2.35.8v15l-6.72.59.14,15.82-3,.6-.32,8.22-1.72.8-.16,30.64-1.1.2.1,74.11-.61-.2-.48-2h-5.16v1.59c0,.8-.48.8-.48.8l-.15,2-9.86-.2.48-11s1.72-2.21,2.65-2.4l.31-1.4h-3.74v-1.41l-3.6.2v.6l-1.25.81-.16.59h-3.13l-.32-1a4,4,0,0,0-1.72-1.19c-1.1-.4-1.7,1.6-1.7,1.6h-3.61l.47-12.22-1.88-.4.19-47.08-3-3.4h-10l-.24-118-3.29-.2V304.67l-2.17.2-.17,2.2-1.4-.4.15-2-14.85.19-6.42-23.64-.31-4-.63-.8-.76-6.41-.94,6.41-1,1.2-.48,3.61-5.64,24.63-35.35,1-4.7.19-4.54,4.61L923,336.27l-1.41.41-.63,2-1.41.21.1,87.13H908.66l-7,6,.15,12.62-3.29.59.16,12.22-5.81.2,0,36.45H890v-5l-16.58-1.4v-8.61L872,477.26h-2.18l-.31-18.62-5.93-5h-3v-1.79h1.58V436.4L854.36,431l-34.91.58v16.22l1.74,2L821,453h-9.55l-.16,7.82.93.8-.61,1.39-11.12,11.42-6.42.2v17.83h-7.5l0,44.06H773.71l.07-118H761.12v-2h-1.73v2.21h-2.17v-1.81H755.8v1.81h-3.9v-3.4H751v3.2l-14.71.79v-2.6l-1.26-.6-.47.6-.3,1.61H732v-4h-3.44v3.62h-2.35v-2.2h-3.75v2l-.64-.2-2.19-2.42v3.42Z"/><rect class="cls-111" x="1824.69" y="573.1" width="2159.38" height="149.14" transform="translate(5808.76 1295.34) rotate(-180)"/><polygon class="cls-27" points="1824.69 548.77 1824.69 616.18 3235.94 613.73 3235.94 552.13 1824.69 548.77"/><rect class="cls-32" x="1824.69" y="548.77" width="2175" height="8.12"/><rect class="cls-29" x="1807.69" y="539.09" width="1416.14" height="11.5"/><g class="cls-30"><rect class="cls-34" x="1827.87" y="570.43" width="16.3" height="7.66"/><rect class="cls-34" x="1864.17" y="595.47" width="16.3" height="7.66"/><rect class="cls-34" x="1872.32" y="605" width="16.3" height="7.66"/><rect class="cls-34" x="1707.51" y="565.66" width="16.3" height="7.66"/><rect class="cls-34" x="1715.66" y="575.2" width="16.3" height="7.66"/></g><rect class="cls-42" x="1824.07" y="668.82" width="2160.62" height="241.61" transform="translate(5808.76 1579.24) rotate(-180)"/><path class="cls-66" d="M2763,688.41s103.06,18.3,68.68,23.71-1007,10.12-1007,10.12l-.62-53.42Z"/><polygon class="cls-63" points="3249.52 923.68 1824.69 896.35 1834.78 829.07 3048.52 830.85 3249.52 923.68"/><path class="cls-72" d="M3217.92,669.62s107,91.57-464.06,76.54c-889-2.1-929.12-3.75-929.12-3.75l-.67,77.06,1373.78-2.69s314.2-23.69,175.58-148C3213.28,668,3217.92,669.62,3217.92,669.62Z"/><path class="cls-26" d="M2714.1,732.22s-929.4-11-903.52,10.19c20.06,1.28,1100.51,6.67,1127.34,1.65s100.72-6.85,117.32-15.07c17-3.88,52.71-14.69,62.51-33.07,0,0,4.14-13.09-5.74-21.33-4.8.29,18.45,31.16-66.16,47.1s-199.26,19-204.8,15.77-55,3-54.61-3.41C2779.27,731.72,2714.1,732.22,2714.1,732.22Z"/><rect class="cls-1" x="1824.69" y="139.12" width="2160" height="720" transform="translate(5809.38 998.24) rotate(-180)"/></g></g></g></svg>