<svg id="Layer_1" data-name="Layer 1" xmlns="http://www.w3.org/2000/svg" xmlns:xlink="http://www.w3.org/1999/xlink" viewBox="0 0 1920 900"><defs><style>.cls-1{fill:none;}.cls-2{clip-path:url(#clip-path);}.cls-3{clip-path:url(#clip-path-2);}.cls-4{clip-path:url(#clip-path-3);}.cls-5,.cls-8{fill:#caf9f5;}.cls-5{opacity:0.52;}.cls-6{fill:#350f07;}.cls-7{fill:#833118;}.cls-8{opacity:0.3;}</style><clipPath id="clip-path"><rect class="cls-1" x="-79" y="-1031" width="1920" height="900"/></clipPath><clipPath id="clip-path-2"><rect class="cls-1" x="-90" y="-1056.35" width="1931" height="981.6"/></clipPath><clipPath id="clip-path-3"><rect class="cls-1" x="0.44" y="-0.08" width="1920" height="900"/></clipPath></defs><g class="cls-2"><g class="cls-3"><rect class="cls-1" x="-133.01" y="-906.99" width="1940.65" height="995.78" transform="translate(1675.34 -816.76) rotate(-179.9)"/></g></g><g class="cls-4"><rect class="cls-1" x="20.41" y="6.08" width="2099.75" height="900"/><rect class="cls-1" x="25.93" y="4.25" width="2099.75" height="900"/><rect class="cls-1" x="25.93" y="4.25" width="2099.75" height="900"/><rect class="cls-1" x="25.36" y="-0.08" width="2099.75" height="900"/><rect class="cls-1" x="25.36" y="-0.08" width="2099.75" height="900"/><rect class="cls-5" x="11.32" y="205.6" width="968.49" height="704.36"/><rect class="cls-5" x="1488.52" y="201.29" width="460.48" height="704.36"/><rect class="cls-6" x="343.6" y="229.96" width="14.69" height="699.67"/><rect class="cls-7" x="332.54" y="230.72" width="15.65" height="699.67"/><rect class="cls-6" x="895.68" y="229.01" width="15.06" height="699.67"/><rect class="cls-7" x="884.35" y="229.77" width="16.04" height="699.67"/><rect class="cls-6" x="1496.86" y="187.37" width="15.92" height="723.42"/><rect class="cls-7" x="1484.87" y="188.16" width="16.97" height="723.42"/><rect class="cls-6" x="-30.88" y="68.76" width="2183.02" height="175"/><rect class="cls-7" x="-33" y="-6.58" width="2183.02" height="228.75"/><polygon class="cls-8" points="882.25 287.3 358.08 599.06 357.68 618.71 882.2 309.09 882.25 287.3"/><polygon class="cls-8" points="883.43 436.28 359.26 748.04 358.86 767.69 883.38 458.07 883.43 436.28"/><polygon class="cls-8" points="2168.65 276.26 1803.08 445.9 1802.8 456.59 2168.62 288.11 2168.65 276.26"/><polygon class="cls-8" points="2167.34 301.18 1801.77 470.82 1801.49 481.51 2167.31 313.04 2167.34 301.18"/><polygon class="cls-8" points="2169.49 549.39 1803.92 719.03 1803.64 729.72 2169.45 561.25 2169.49 549.39"/><polygon class="cls-8" points="2168.18 574.31 1802.61 743.96 1802.33 754.64 2168.14 586.17 2168.18 574.31"/><polygon class="cls-8" points="251.16 353.66 -114.41 523.3 -114.69 533.99 251.12 365.52 251.16 353.66"/><polygon class="cls-8" points="249.85 378.59 -115.72 548.23 -116 558.92 249.81 390.44 249.85 378.59"/><polygon class="cls-8" points="252 626.8 -113.58 796.44 -113.86 807.13 251.96 638.65 252 626.8"/><polygon class="cls-8" points="250.69 651.72 -114.88 821.36 -115.16 832.05 250.65 663.57 250.69 651.72"/></g></svg>