<?xml version="1.0" encoding="utf-8"?>
<!-- Generator: Adobe Illustrator 26.0.3, SVG Export Plug-In . SVG Version: 6.00 Build 0)  -->
<svg version="1.1" id="Layer_1" xmlns="http://www.w3.org/2000/svg" xmlns:xlink="http://www.w3.org/1999/xlink" x="0px" y="0px"
	 viewBox="0 0 1001 301" style="enable-background:new 0 0 1001 301;" xml:space="preserve">
<style type="text/css">
	.st0{fill:#402A1B;}
	.st1{fill:#FFFFFF;}
	.st2{fill:#FD01FB;}
	.st3{fill:#8081FF;}
</style>
<path class="st0" d="M680,221.4c-5.9,0-11.5-2.8-15-7.6c-14.3,0.8-26.9,2.8-27,2.8c-1,0.2-1.9,0.2-2.9,0.2
	c-10.3,0-18.6-8.3-18.6-18.6c0-1,0.1-2,0.2-3c4.8-29.5,4.4-81.3-3.8-111.4c-2.7-9.9,3.1-20.1,13-22.8c0.1,0,0.1,0,0.2,0
	c14.3-3.8,27.5-5.7,39.4-5.7c32.8,0,54.4,15.7,59.1,43.1c2.9,16.6-2.6,32.7-14.6,45.1c10.2,13.7,16.5,29.8,18.5,46.8
	c1.1,9.8-5.6,18.8-15.4,20.4c-11.5,1.9-24.5,8.6-24.6,8.6C685.9,220.7,683,221.4,680,221.4z"/>
<path class="st0" d="M753.2,214c-3.3,0-6.6-0.9-9.5-2.6c-2.6,0.4-5.2,0.6-7.8,0.6c-2.3,0-4.6-0.2-6.8-0.4
	c-11.6-1.5-21.9-8.3-28-18.3c-11.6-18.4-11.8-48.9-0.5-83.5c2.5-7.6,9.6-12.8,17.6-12.8c1.1,0,2.3,0.1,3.4,0.3
	c6.6,1.2,13.3,2.4,18.2,3.3c2.9-1.8,6.3-2.7,9.7-2.7h0.7c0.1,0,0.9,0,2.1,0c6.7,0,12.9-0.6,16.6-1.6c1.6-0.5,3.3-0.7,5-0.7
	c10.3,0,18.6,8.3,18.6,18.5c0,0.6,0,1.3-0.1,1.9c-2.5,25.5-2.1,52.7,1.1,74.6c1.5,10.2-5.5,19.6-15.7,21.1c-0.9,0.1-1.8,0.2-2.7,0.2
	h-0.6c-5.8,0-11.7,0.6-17.4,1.7C755.9,213.9,754.5,214,753.2,214z"/>
<path class="st0" d="M781,215.2c-10.3,0-18.6-8.3-18.6-18.6c0-1,0.1-2.1,0.3-3.1c6.1-35.8,4.2-97.9-1.5-129.5
	c-1.8-10.1,4.9-19.8,15-21.6c0.5-0.1,1.1-0.2,1.6-0.2c0.1,0,14.2-1.3,24.4-4.3c9.9-2.8,20.1,2.9,23,12.7c0.6,2.2,0.9,4.5,0.6,6.8
	c-2.9,31.6-0.9,103,3.8,134c1.5,10.1-5.5,19.6-15.6,21.1c-0.5,0.1-0.9,0.1-1.4,0.2c-14.3,1-29.7,2.4-29.9,2.4
	C782.1,215.2,781.5,215.2,781,215.2z"/>
<path class="st0" d="M850.1,213.6c-25.3,0-46-17.2-52.7-43.8c-5.1-20.4-1.3-42.1,9.9-56.7c8.8-11.6,22.4-18.5,37-18.6h0.9
	c28.9,0,48.3,20,51.7,52.6c2.9,3.4,4.5,7.8,4.5,12.2c-0.2,35.3-24.1,52.6-47.7,54.1C852.6,213.5,851.3,213.6,850.1,213.6z"/>
<path class="st0" d="M918.1,214.5c-19.8-0.3-35.8-8.5-47.7-24.4c-4.7-6.3-4.9-15-0.5-21.5c2.4-3.5,4.9-6.8,7.7-10
	c-3.9-5.9-6.2-12.8-6.4-19.8c-0.6-10.4,3-20.5,9.9-28.3c5.3-5.9,15-13,31.6-13.8c1,0,1.8-0.1,2.7-0.1c23.8,0,42,14.4,49.8,39.6
	c2.1,6.7,0.2,14-4.8,18.8c4.1,6.1,6.1,13.4,5.8,20.7c-0.6,22.9-20.1,38.8-47.3,38.8L918.1,214.5z"/>
<path class="st1" d="M668.2,209.4c-5.9,0-11.5-2.8-15-7.6c-14.3,0.8-26.9,2.8-27,2.8c-1,0.2-1.9,0.2-2.9,0.2
	c-10.3,0-18.6-8.4-18.5-18.6c0-1,0.1-2,0.2-2.9c4.8-29.5,4.4-81.3-3.8-111.4c-2.7-9.9,3.1-20.1,13-22.8c0,0,0.1,0,0.1,0
	c14.3-3.8,27.5-5.7,39.4-5.7c32.8,0,54.4,15.7,59.1,43.1c2.9,16.6-2.6,32.7-14.6,45.1c10.2,13.7,16.5,29.8,18.5,46.8
	c1.1,9.8-5.6,18.8-15.3,20.4c-11.5,1.9-24.5,8.6-24.6,8.6C674.1,208.7,671.2,209.4,668.2,209.4z"/>
<path class="st1" d="M741.4,202c-3.3,0-6.6-0.9-9.5-2.6c-2.6,0.4-5.2,0.6-7.8,0.6c-2.3,0-4.6-0.2-6.8-0.4
	c-11.6-1.5-21.9-8.3-28-18.3c-11.6-18.4-11.8-48.9-0.5-83.5c2.5-7.6,9.6-12.8,17.6-12.8c1.1,0,2.3,0.1,3.4,0.3
	c6.5,1.2,13.3,2.4,18.2,3.3c2.9-1.8,6.3-2.7,9.7-2.8h0.7c0.1,0,0.9,0,2.1,0c6.7,0,12.9-0.6,16.6-1.6c1.6-0.5,3.3-0.7,5-0.7
	c10.3,0,18.6,8.3,18.6,18.5c0,0.6,0,1.3-0.1,1.9c-2.5,25.5-2.1,52.7,1.1,74.6c1.5,10.2-5.5,19.6-15.7,21.1c-0.9,0.1-1.8,0.2-2.7,0.2
	h-0.6c-5.8,0-11.7,0.6-17.4,1.7C744,201.9,742.7,202,741.4,202z"/>
<path class="st1" d="M769.1,203.2c-10.3,0-18.6-8.3-18.6-18.6c0-1,0.1-2.1,0.3-3.1c6.1-35.8,4.2-97.9-1.5-129.5
	c-1.8-10.1,4.9-19.8,15-21.6c0.5-0.1,1.1-0.2,1.6-0.2c0.1,0,14.1-1.3,24.4-4.3c9.9-2.9,20.1,2.8,23,12.7c0.6,2.2,0.9,4.5,0.7,6.8
	c-2.9,31.6-0.9,103,3.8,134c1.5,10.1-5.5,19.6-15.6,21.1c-0.5,0.1-0.9,0.1-1.4,0.2c-14.3,1-29.7,2.4-29.9,2.4
	C770.3,203.3,769.7,203.3,769.1,203.2z"/>
<path class="st1" d="M838.2,201.6c-25.3,0-46-17.2-52.7-43.8c-5.1-20.4-1.3-42.1,9.9-56.7c8.8-11.6,22.4-18.5,37-18.6h0.9
	c28.9,0,48.3,20,51.7,52.6c2.9,3.4,4.5,7.8,4.5,12.2c-0.2,35.3-24.1,52.6-47.7,54.1C840.7,201.5,839.5,201.6,838.2,201.6z"/>
<path class="st1" d="M906.2,202.5c-19.8-0.3-35.8-8.5-47.7-24.4c-4.7-6.3-4.9-15-0.5-21.5c2.4-3.5,4.9-6.8,7.7-10
	c-3.9-5.9-6.2-12.8-6.4-19.8c-0.6-10.4,3-20.5,9.9-28.3c5.3-5.9,15-13,31.6-13.8c1,0,1.8-0.1,2.7-0.1c23.8,0,42,14.4,49.8,39.6
	c1.7,5.3,0.9,11.2-2.2,15.8c-0.7,1.1-1.6,2.1-2.5,3.1c4.1,6.1,6.1,13.4,5.8,20.7c-0.6,22.9-20.1,38.8-47.3,38.8L906.2,202.5z"/>
<path d="M675,198.7c1.1-23.7-5.7-44-18.4-52.3c1.3,14.9,3.3,29.8,6.2,44.5c-10.9,0.5-21.9,1.6-32.7,3.2c5.3-32.7,4.6-87-4.2-119.3
	c26.7-7.1,69.5-12,75.5,22.6c2.5,14.1-5.1,30.6-25.1,39.8c14,9.2,26.2,28.1,28.8,51.1C690.4,190.7,675,198.7,675,198.7z M655,100.2
	c-0.2,6.7-0.2,15.2,0.2,24.7c10.4-1.1,19.3-7.1,20.7-14.7C677.5,100.4,667.2,97.2,655,100.2z"/>
<path d="M748.2,191.3c0.2-2.6,0.4-5.5,0.4-8.1c-6.2,5-14.2,7.1-22.1,5.8c-21.6-2.8-26.9-35.9-13.3-77.6c12.4,2.3,25.3,4.6,25.3,4.6
	c-8.7,24.7-8.7,50.9-0.2,52.3c3.7,0.7,7.2-0.7,10.3-4.6c-0.5-17.7-2.1-36.1-4.1-51.4c0,0,14.3,0.5,24.4-2.3
	c-2.7,26.7-2.3,55.3,1.2,79.2C762.7,189.1,755.4,189.8,748.2,191.3z"/>
<path d="M775.9,192.5c6.7-39.6,4.2-103.8-1.6-135.9c0,0,15.7-1.4,27.9-5c-3,33.1-1.1,105.3,3.9,138.4
	C791.5,191.1,775.9,192.5,775.9,192.5z"/>
<path d="M847.5,190.7c-14.7,1.1-31.5-7.2-37.1-29.7c-6.2-24.6,4.6-51.8,29.2-52.1c23.5-0.4,33.2,17.7,34.3,40.5
	c0,0-23.3,0.4-43.3,4.1c0.9,11.1,5,20,10.8,19.4c5.5-0.5,6.5-7.9,5.3-14.7c0,0,16.1-2.1,31.3-3.2
	C877.7,180.7,861.7,189.9,847.5,190.7z M839.2,126.9c-4.2,0.7-7.2,6.4-8.5,14.3c6.2-0.2,12.4-0.8,18.6-1.8
	C848.2,131.9,844.7,126.2,839.2,126.9z"/>
<path d="M913.3,191.8c-12.5-0.2-23.7-4.4-33-17c4.7-6.6,10-12.8,15.9-18.4c6,12.2,16.8,15.2,19.4,12c2.1-2.6,0.7-7.2-10.8-12.2
	c-10.4-4.4-19.6-11-20.2-22.6c-0.5-9.4,5.3-21.7,23.9-22.6c20-0.9,29.7,12.9,33.9,26.5c-7.9,0.9-15.6,3.2-22.8,6.7
	c-5.3-13.8-14-13.3-13.3-7.8c2.1,14.9,36.8,11.8,36.2,34.6C942.2,184.7,929.2,192,913.3,191.8z"/>
<path class="st2" d="M668.2,190.9c1.1-23.7-5.7-44-18.4-52.3c1.3,14.9,3.4,29.8,6.2,44.5c-10.9,0.5-21.9,1.6-32.7,3.2
	c5.3-32.7,4.6-87-4.2-119.3c26.7-7.1,69.5-12,75.5,22.6c2.5,14.1-5.1,30.6-25.1,39.8c14,9.2,26.2,28.1,28.8,51.1
	C683.6,182.9,668.2,190.9,668.2,190.9z M648.2,92.4c-0.2,6.7-0.2,15.2,0.2,24.8c10.4-1.1,19.3-7.1,20.7-14.7
	C670.7,92.6,660.4,89.4,648.2,92.4L648.2,92.4z"/>
<path class="st2" d="M741.4,183.4c0.2-2.6,0.4-5.5,0.4-8.1c-6.2,4.9-14.2,7.1-22.1,5.8c-21.6-2.8-26.9-35.9-13.2-77.6
	c12.4,2.3,25.3,4.6,25.3,4.6c-8.7,24.8-8.7,50.9-0.2,52.3c3.7,0.7,7.2-0.7,10.2-4.6c-0.5-17.7-2.1-36.1-4.1-51.4
	c0,0,14.3,0.5,24.4-2.3c-2.7,26.7-2.3,55.3,1.2,79.2C755.9,181.3,748.6,182,741.4,183.4z"/>
<path class="st2" d="M769.1,184.7c6.7-39.6,4.2-103.8-1.6-135.9c0,0,15.7-1.4,27.9-5c-3,33.1-1.1,105.4,3.9,138.4
	C784.7,183.3,769.1,184.7,769.1,184.7z"/>
<path class="st2" d="M840.7,182.9c-14.7,1.1-31.5-7.2-37.1-29.7c-6.2-24.6,4.6-51.8,29.2-52.1c23.5-0.3,33.2,17.7,34.3,40.5
	c0,0-23.3,0.4-43.3,4.1c0.9,11.1,5,20,10.8,19.4c5.5-0.5,6.5-8,5.3-14.7c0,0,16.1-2.1,31.3-3.2C870.9,172.8,854.8,182,840.7,182.9z
	 M832.4,119.1c-4.2,0.7-7.2,6.4-8.5,14.3c6.2-0.2,12.4-0.8,18.6-1.8C841.4,124.1,837.9,118.4,832.4,119.1z"/>
<path class="st2" d="M906.5,184c-12.5-0.2-23.7-4.4-33.1-17c4.7-6.6,10-12.8,15.9-18.4c6,12.2,16.8,15.2,19.4,12
	c2.1-2.6,0.7-7.2-10.8-12.2c-10.4-4.4-19.6-11-20.2-22.6c-0.5-9.4,5.3-21.7,23.9-22.6c20-0.9,29.7,12.9,33.9,26.5
	c-7.9,0.9-15.6,3.2-22.8,6.7c-5.3-13.8-14-13.2-13.3-7.8c2.1,14.8,36.8,11.8,36.2,34.6C935.4,176.9,922.4,184.1,906.5,184z"/>
<path class="st0" d="M60,229.1c-10.3,0-18.6-8.3-18.6-18.6c0-1.4,0.2-2.8,0.5-4.2c6.1-26,4.3-96-1.4-122c-2.2-10,4.1-19.9,14.1-22.1
	c1-0.2,2-0.4,3-0.4c0.1,0,15.2-0.9,26.9-5.9c9.4-4,20.3,0.4,24.3,9.9c1.2,2.9,1.7,6,1.4,9.1c-2.1,20-3.1,50.4-2.1,75.1
	c6.4-1.5,12.9-2.4,19.5-2.7h0.8c10.3,0,18.6,8.3,18.6,18.6c0,0.4,0,0.9,0,1.3c-0.6,9.8-0.5,19.7,0.2,29.5c0.8,10.2-6.8,19.2-17,20
	c-0.1,0-0.1,0-0.2,0c-21.9,1.6-43.7,5.5-64.8,11.7C63.5,228.9,61.7,229.1,60,229.1z"/>
<path class="st0" d="M132.8,226.6c-10.3,0-18.6-8.3-18.6-18.6c0-1,0.1-2,0.2-2.9c3.5-22.1,2.1-56-1.2-78.2c-0.4-3-0.1-6.1,0.9-9
	c-1.1-2-2-4.1-2.6-6.3c-4.4-15.7,3.8-32,19.7-38.9c4.9-2.2,10.3-3.4,15.7-3.4c14.8,0,27.2,8.8,30.9,22c0,0.1,0.1,0.2,0.1,0.3
	c2,7.2,1.4,14.9-1.6,21.8c0.9,2.5,1.3,5.2,1.1,7.9c-1.5,20.6,0.3,61.5,2.8,80.5c1.3,10.2-5.8,19.5-16,20.8c-0.1,0-0.3,0-0.4,0
	c-0.1,0-14,1.5-28.2,3.7C134.7,226.5,133.8,226.6,132.8,226.6z"/>
<path class="st0" d="M167.9,226.8c-10.3,0-18.6-8.3-18.6-18.6c0-0.6,0-1.3,0.1-1.9c3.6-35.5,4.6-101.7,0-139.8
	c-1.2-10,5.9-19.1,15.8-20.5c14.3-2,31.2-5.1,31.3-5.1c1.1-0.2,2.2-0.3,3.3-0.3c10.3,0,18.6,8.3,18.6,18.6c0,0.8-0.1,1.7-0.2,2.5
	c-1.1,8-2.6,23.2-4.1,40.7h1c0.8,0,1.5,0,2.3,0h0.1c11.4,0.6,22.1,5.7,29.6,14.4c13.1,14.6,16.7,36.8,15.8,51.3c0,0.1,0,0.1,0,0.2
	c-2.2,31.7-22.9,53.9-50.4,53.9h-1.6c-3-0.1-6-0.4-9-1c-2.2,1.2-4.6,1.9-7,2.1c-11.4,1.1-23.8,3.2-23.9,3.3
	C170.1,226.7,169,226.8,167.9,226.8z"/>
<path class="st0" d="M251.7,227.6c-10.3,0-18.6-8.3-18.6-18.6c0-0.4,0-0.9,0-1.3c2.6-35.5,2.4-63.4-0.4-82.8
	c-1.5-10.1,5.5-19.6,15.7-21.1c0.7-0.1,1.4-0.2,2.2-0.2c4.1-0.1,12.3-1,16.9-2.8c5.6-2.2,11.8-1.5,16.8,1.7
	c3.5-0.8,7.1-1.2,10.7-1.2c2.4,0,4.8,0.2,7.2,0.6c10.6,1.8,35.1,10.7,34.3,54.8c-0.2,9.5-7.5,17.3-16.9,18.2
	c-8.7,0.8-20.3,4.2-24,5.5l-0.7,0.2c0.8,8.3,1.7,15.8,2.7,21.8c1.7,10.1-5.2,19.7-15.3,21.3c-1,0.2-2,0.2-3,0.2h-0.8h-1.1
	c-2.7,0-12,0.2-20,2.8C255.6,227.3,253.6,227.6,251.7,227.6z"/>
<path class="st0" d="M348.2,226.4c-22.5,0-47.2-16.4-47.8-42.8c-0.3-8.8,2.1-17.5,6.8-25c-0.3-0.8-0.5-1.5-0.6-2.3
	c-3.1-15.4,0.4-30.8,9.7-42.2c8.6-10.6,21.2-16.4,35.3-16.4c7.9,0.1,15.7,1.7,22.9,4.8c11.4,4.6,26,15.3,31.1,39.8
	c2.9,14,2.1,29,1.4,42.1c-0.4,7.5-0.8,15.3-0.2,19.8c1.4,10.2-5.6,19.6-15.8,21c-0.9,0.1-1.7,0.2-2.6,0.2h-0.6
	c-1.2,0-2.4-0.1-3.6-0.1c-8.5,0-16.8,0.9-16.8,0.9c-0.7,0.1-1.4,0.1-2.1,0.1c-2.2,0-4.4-0.4-6.5-1.2c-1.8,0.4-3.7,0.7-5.6,1
	l-0.4,0.1C351.3,226.3,349.7,226.4,348.2,226.4z"/>
<path class="st0" d="M395.6,227.6c-10.3,0-18.6-8.3-18.6-18.6c0-0.4,0-0.9,0-1.3c2.6-35.5,2.4-63.4-0.4-82.8
	c-1.5-10.1,5.5-19.6,15.6-21.1c0.7-0.1,1.5-0.2,2.2-0.2c4.1-0.1,12.3-1,16.9-2.8c5.6-2.2,11.8-1.5,16.8,1.7
	c3.5-0.8,7.1-1.2,10.7-1.2c2.4,0,4.8,0.2,7.2,0.6c10.6,1.8,35.1,10.7,34.3,54.8c-0.2,9.5-7.5,17.3-16.9,18.2
	c-8.7,0.8-20.3,4.2-24,5.5l-0.7,0.2c0.8,8.3,1.7,15.8,2.7,21.8c1.7,10.1-5.2,19.7-15.3,21.3c-1,0.2-2,0.2-3,0.2h-0.7h-1.1
	c-2.7,0-12,0.2-20,2.8C399.5,227.3,397.6,227.6,395.6,227.6z"/>
<path class="st0" d="M491.8,275.8c-3.9,0-7.7-1.2-10.9-3.5c-13.3-9.6-26-19.3-26.5-19.7c-8.2-6.2-9.7-17.9-3.5-26
	c0.3-0.4,0.7-0.9,1.1-1.3c7.4-8.1,14.5-18.8,20.6-31.2c-16.6-33.5-27.1-60.9-27.5-62.1c-3.7-9.6,1.1-20.3,10.7-24
	c1.2-0.4,2.3-0.8,3.6-1c10.7-1.7,21.4-2.8,32.2-3.3h0.7c2,0,4.1,0.3,6,1c1.2-1.9,2.6-3.5,4.4-4.8c4.1-3.2,9.4-4.5,14.5-3.6
	c0.2,0,14.7,2.5,27.4,4.6c10.1,1.7,17,11.2,15.3,21.3c-0.2,1.2-0.5,2.4-1,3.6c-5,13.1-9.9,29.8-15.2,47.4
	c-10.5,35.3-21.3,71.9-36.5,94.5c-2.8,4.2-7.2,7-12.1,7.9C493.9,275.7,492.8,275.8,491.8,275.8z"/>
<path class="st1" d="M54.7,213.8c-10.3,0-18.6-8.3-18.6-18.6c0-1.4,0.2-2.8,0.5-4.2c6.1-26,4.3-96-1.4-122
	C33,59,39.3,49.1,49.3,46.9c1-0.2,2-0.4,3-0.4c0.1,0,15.2-0.9,26.9-5.9c9.4-4,20.3,0.4,24.3,9.9c1.2,2.9,1.7,6,1.4,9.1
	c-2.1,20-3.1,50.5-2.1,75.1c6.4-1.5,12.9-2.4,19.5-2.7h0.8c10.3,0,18.6,8.3,18.6,18.6c0,0.4,0,0.9,0,1.3c-0.6,9.8-0.5,19.7,0.2,29.5
	c0.8,10.2-6.8,19.2-17,20c-0.1,0-0.1,0-0.2,0c-21.9,1.6-43.7,5.5-64.8,11.7C58.1,213.5,56.4,213.8,54.7,213.8z"/>
<path class="st1" d="M127.5,211.3c-10.3,0-18.6-8.3-18.6-18.6c0-1,0.1-1.9,0.2-2.9c3.5-22.1,2.1-56-1.2-78.2c-0.4-3-0.1-6.1,0.9-9
	c-1.1-2-2-4.1-2.6-6.3c-4.4-15.7,3.8-32,19.7-38.9c4.9-2.2,10.3-3.4,15.7-3.4c14.8,0,27.2,8.8,30.9,22c0,0.1,0.1,0.2,0.1,0.3
	c2,7.2,1.4,14.9-1.6,21.8c0.9,2.5,1.3,5.2,1.1,7.9c-1.5,20.6,0.3,61.5,2.8,80.4c1.3,10.2-5.8,19.5-16,20.8c-0.1,0-0.3,0-0.4,0
	c-0.1,0-14,1.5-28.2,3.7C129.4,211.2,128.5,211.3,127.5,211.3z"/>
<path class="st1" d="M162.6,211.5c-10.3,0-18.6-8.3-18.6-18.6c0-0.6,0-1.3,0.1-1.9c3.6-35.5,4.6-101.7,0-139.8
	c-1.2-10,5.8-19.1,15.8-20.6c14.3-2,31.2-5.1,31.3-5.1c1.1-0.2,2.2-0.3,3.3-0.3c10.3-0.1,18.6,8.2,18.7,18.5c0,0.9-0.1,1.8-0.2,2.6
	c-1.1,8-2.6,23.2-4,40.7h1c0.8,0,1.5,0,2.3,0h0.1c11.4,0.6,22.1,5.7,29.6,14.4c13.1,14.6,16.7,36.8,15.9,51.3c0,0.1,0,0.1,0,0.2
	c-2.2,31.7-22.9,53.9-50.4,53.9h-1.6c-3-0.1-6-0.4-9-1c-2.2,1.2-4.5,1.9-7,2.1c-11.4,1.1-23.8,3.2-23.9,3.3
	C164.8,211.4,163.7,211.5,162.6,211.5z"/>
<path class="st1" d="M246.4,212.2c-10.2,0-18.6-8.3-18.6-18.5c0-0.5,0-0.9,0-1.4c2.6-35.5,2.4-63.4-0.4-82.8
	c-1.5-10.2,5.5-19.6,15.7-21.1c0.7-0.1,1.4-0.2,2.2-0.2c4.1-0.1,12.3-1,16.9-2.8c2.1-0.8,4.4-1.3,6.7-1.3c3.6,0,7.1,1,10.1,3
	c3.5-0.8,7.1-1.2,10.7-1.2c2.4,0,4.8,0.2,7.2,0.6c10.6,1.8,35.1,10.7,34.3,54.8c-0.2,9.5-7.5,17.3-16.9,18.2
	c-8.7,0.8-20.3,4.2-24.1,5.5c-0.2,0.1-0.5,0.1-0.7,0.2c0.8,8.3,1.7,15.8,2.7,21.8c1.7,10.1-5.2,19.7-15.3,21.3c-1,0.2-2,0.2-3,0.2
	h-1.8c-2.7,0-12,0.2-20,2.8C250.2,212,248.3,212.3,246.4,212.2z"/>
<path class="st1" d="M342.9,211.1c-22.5,0-47.2-16.4-47.8-42.8c-0.3-8.8,2.1-17.5,6.8-25c-0.3-0.8-0.5-1.5-0.6-2.3
	c-3.1-15.4,0.4-30.8,9.7-42.2c8.6-10.6,21.2-16.4,35.3-16.4c7.9,0.1,15.7,1.7,22.9,4.8c11.4,4.6,26,15.3,31.1,39.8
	c2.9,14.1,2.1,29,1.4,42.1c-0.4,7.5-0.8,15.3-0.2,19.7c1.4,10.2-5.6,19.6-15.8,21c-0.9,0.1-1.7,0.2-2.6,0.2h-0.6
	c-1.2,0-2.4-0.1-3.6-0.1c-8.5,0-16.8,0.9-16.8,0.9c-0.7,0.1-1.4,0.1-2.1,0.1c-2.2,0-4.4-0.4-6.5-1.2c-1.8,0.4-3.7,0.8-5.6,1
	l-0.4,0.1C346,211,344.4,211.1,342.9,211.1z"/>
<path class="st1" d="M390.3,212.2c-10.2,0-18.6-8.3-18.6-18.5c0-0.5,0-0.9,0-1.4c2.6-35.5,2.4-63.4-0.4-82.8
	c-1.5-10.1,5.5-19.6,15.7-21.1c0.7-0.1,1.5-0.2,2.2-0.2c4.1-0.1,12.3-1,16.9-2.8c5.6-2.2,11.9-1.5,16.9,1.7
	c3.5-0.8,7.1-1.2,10.6-1.2c2.4,0,4.8,0.2,7.2,0.6c10.6,1.8,35.1,10.7,34.3,54.8c-0.2,9.5-7.5,17.3-16.9,18.2
	c-8.7,0.8-20.3,4.2-24,5.5l-0.7,0.2c0.8,8.3,1.7,15.8,2.7,21.8c1.7,10.1-5.2,19.7-15.3,21.3c-1,0.2-2,0.2-3,0.2H416
	c-2.7,0-12,0.2-20,2.8C394.2,212,392.2,212.3,390.3,212.2z"/>
<path class="st1" d="M486.4,260.4c-3.9,0-7.7-1.2-10.9-3.5c-13.3-9.6-26-19.3-26.6-19.7c-8.2-6.2-9.7-17.9-3.5-26
	c0.3-0.4,0.7-0.9,1.1-1.3c7.5-8.1,14.5-18.9,20.6-31.2c-16.6-33.5-27.1-60.9-27.5-62.1c-3.7-9.6,1.1-20.3,10.7-24
	c1.1-0.4,2.3-0.8,3.5-1c10.7-1.7,21.4-2.8,32.2-3.3h0.7c2,0,4.1,0.3,6,1c4-6.4,11.4-9.7,18.9-8.4c0.1,0,14.7,2.5,27.4,4.6
	c10.1,1.7,17,11.2,15.3,21.4c-0.2,1.2-0.5,2.4-1,3.6c-5,13.1-9.9,29.8-15.2,47.4c-10.5,35.3-21.3,71.9-36.5,94.4
	c-2.8,4.2-7.2,7.1-12.2,7.9C488.6,260.3,487.5,260.4,486.4,260.4z"/>
<path d="M61.5,203.1c6.8-28.9,5-101.3-1.3-130.2c0,0,18.1-1,33.1-7.3c-2.9,27.5-3.8,74.6-0.4,101.7c10.6-4.2,23.9-8.3,37-8.9
	c-0.7,10.8-0.6,21.6,0.2,32.4C106.9,192.4,83.9,196.5,61.5,203.1z"/>
<path d="M151.3,106.6c-8.9,2.9-18.3,0-20.2-7.3c-1.9-6.7,1.5-13.7,9.2-17c8.9-4,19.1-1.2,21.2,6.6
	C163.2,95.6,160.9,103.3,151.3,106.6z M134.3,200.6c3.9-24.3,2.3-60.1-1.2-83.8c9.2-0.8,18.4-2.2,27.4-4.2
	c-1.5,21.6,0.2,63.6,2.9,84.2C163.4,196.7,149.1,198.2,134.3,200.6L134.3,200.6z"/>
<path d="M213.1,196.1c-6.9-0.1-13.6-2.5-19.1-6.7c0.2,2.9,0.6,5.6,0.8,7.9c-12.3,1.1-25.4,3.5-25.4,3.5c3.7-35.6,4.8-103.3,0-143.9
	c14.8-2.1,32-5.2,32-5.2c-1.7,12.7-4.4,41.2-6.2,70.3c6.2-5.8,14.4-8.9,22.9-8.5c22.2,1.2,28.9,29.7,27.9,46.1
	C244.5,181.9,231.6,196.7,213.1,196.1z M205.2,140.3c-7.5,1.2-11.6,8.5-11.2,17.1c0.4,9.4,6,15.6,13.5,16
	c7.9,0.4,13.9-6.2,13.5-14.8C220.6,147.4,212.9,139.1,205.2,140.3L205.2,140.3z"/>
<path d="M291.1,155.3c0.4-10.8-2.1-17.7-5.8-18.5c-3.3-0.6-6.7,0.6-9.6,5.6c0.8,19.8,2.7,41.4,5,55.5c0,0-14.4-0.6-27.5,3.7
	c1.9-26.6,3.3-60.7-0.6-86.9c0,0,13.7-0.4,23.1-4c-0.2,3.1-0.4,6.6-0.4,10.2c7.3-6.7,17.5-9.4,25.2-8.1
	c12.7,2.1,19.3,14.6,18.9,36.2C306.5,150.1,291.1,155.3,291.1,155.3z"/>
<path d="M366.9,200.2c0.4-1.9,0.8-3.7,1-5.6c-4.7,3-10.1,4.9-15.6,5.6c-11.8,1.3-31.4-7.1-31.8-24.5c-0.4-19.3,16.8-28.5,32-28.9
	c5.9-0.1,11.8,1.4,17,4.4c-3.3-29.3-17-23.7-15.2-9.6c-13.3-0.4-27.9,3.5-27.9,3.5c-4.6-22.7,13.1-45.1,42.8-33
	c32.8,13.3,17.7,64,21,87.1C382.3,199,374.6,199.4,366.9,200.2z M355.1,164.9c-5,1.7-10,6.7-7.9,11.9s8.9,5.6,13.1,4
	c6-2.3,10-8.7,8.3-12.5C366.5,164,359.7,163.2,355.1,164.9z"/>
<path d="M435.1,155.3c0.4-10.8-2.1-17.7-5.8-18.5c-3.3-0.6-6.8,0.6-9.6,5.6c0.8,19.8,2.7,41.4,5,55.5c0,0-14.5-0.6-27.5,3.7
	c1.9-26.6,3.3-60.7-0.6-86.9c0,0,13.7-0.4,23.1-4c-0.2,3.1-0.4,6.6-0.4,10.2c7.3-6.7,17.5-9.4,25.2-8.1
	c12.7,2.1,19.3,14.6,18.9,36.2C450.5,150.1,435.1,155.3,435.1,155.3z"/>
<path d="M493.2,249.7c-13.3-9.6-26.2-19.5-26.2-19.5c10.6-11.6,20-27,27.5-44.1c-18.7-36.6-30.8-68.4-30.8-68.4
	c9.9-1.6,19.9-2.6,29.9-3.1c0,0,3.5,22.9,11.6,43c5.2-16.5,8.6-33.5,10.2-50.7c0,0,14.7,2.5,27.5,4.6
	C527.9,151.1,514,218.7,493.2,249.7z"/>
<path class="st3" d="M54.7,195.2c6.7-28.9,5-101.3-1.3-130.2c0,0,18.1-1,33.1-7.3c-2.9,27.5-3.8,74.6-0.4,101.7
	c10.6-4.2,23.9-8.3,37-8.9c-0.7,10.8-0.6,21.6,0.2,32.4C100,184.6,77,188.7,54.7,195.2z"/>
<path class="st3" d="M144.5,98.7c-8.9,2.9-18.3,0-20.2-7.3c-1.9-6.7,1.6-13.7,9.2-17c8.9-4,19.1-1.2,21.2,6.6
	C156.4,87.7,154.1,95.4,144.5,98.7z M127.5,192.7c3.9-24.3,2.3-60.1-1.2-83.8c9.2-0.8,18.4-2.2,27.4-4.2
	c-1.5,21.6,0.2,63.6,2.9,84.2C156.6,188.9,142.3,190.4,127.5,192.7L127.5,192.7z"/>
<path class="st3" d="M206.3,188.3c-6.9-0.1-13.6-2.5-19.1-6.7c0.2,2.9,0.6,5.6,0.8,7.9c-12.3,1.2-25.4,3.5-25.4,3.5
	c3.7-35.6,4.8-103.3,0-143.9c14.8-2.1,32-5.2,32-5.2c-1.7,12.7-4.4,41.2-6.2,70.3c6.2-5.8,14.4-8.9,22.9-8.5
	c22.2,1.2,28.9,29.7,27.9,46C237.7,174,224.8,188.9,206.3,188.3z M198.4,132.4c-7.5,1.1-11.6,8.5-11.2,17.1c0.4,9.4,6,15.6,13.5,16
	c7.9,0.4,13.9-6.2,13.5-14.8C213.8,139.6,206.1,131.3,198.4,132.4L198.4,132.4z"/>
<path class="st3" d="M284.3,147.4c0.4-10.8-2.1-17.7-5.8-18.5c-3.3-0.6-6.7,0.6-9.6,5.6c0.8,19.9,2.7,41.4,5,55.5
	c0,0-14.5-0.6-27.6,3.7c1.9-26.6,3.3-60.7-0.6-86.9c0,0,13.7-0.4,23.1-4c-0.2,3.1-0.4,6.6-0.4,10.2c7.3-6.8,17.5-9.4,25.2-8.1
	c12.7,2.1,19.3,14.6,18.9,36.2C299.7,142.2,284.3,147.4,284.3,147.4z"/>
<path class="st3" d="M360,192.3c0.4-1.9,0.8-3.7,1-5.6c-4.7,3-10.1,4.9-15.6,5.6c-11.8,1.4-31.4-7.1-31.8-24.5
	c-0.4-19.3,16.8-28.5,32-28.9c6-0.1,11.8,1.4,17,4.4c-3.3-29.3-17-23.7-15.2-9.6c-13.3-0.4-27.9,3.5-27.9,3.5
	c-4.6-22.7,13.1-45.1,42.8-32.9c32.8,13.3,17.7,64,21,87.1C375.5,191.2,367.7,191.5,360,192.3z M348.3,157.1c-5,1.7-10,6.7-7.9,11.9
	s8.9,5.6,13.1,4.1c6-2.3,10-8.7,8.3-12.5C359.7,156.1,352.9,155.4,348.3,157.1L348.3,157.1z"/>
<path class="st3" d="M428.2,147.4c0.4-10.8-2.1-17.7-5.8-18.5c-3.3-0.6-6.8,0.6-9.6,5.6c0.8,19.9,2.7,41.4,5,55.5
	c0,0-14.5-0.6-27.5,3.7c1.9-26.6,3.3-60.7-0.6-86.9c0,0,13.7-0.4,23.1-4c-0.2,3.1-0.4,6.6-0.4,10.2c7.3-6.8,17.5-9.4,25.2-8.1
	c12.7,2.1,19.3,14.6,18.9,36.2C443.7,142.2,428.2,147.4,428.2,147.4z"/>
<path class="st3" d="M486.4,241.9c-13.3-9.6-26.2-19.5-26.2-19.5c10.6-11.6,20-27,27.5-44.1c-18.7-36.6-30.8-68.4-30.8-68.4
	c9.9-1.6,19.9-2.6,29.9-3.1c0,0,3.5,22.9,11.6,43c5.2-16.5,8.6-33.5,10.2-50.7c0,0,14.6,2.5,27.6,4.6
	C521.1,143.2,507.2,210.8,486.4,241.9z"/>
</svg>
