<svg id="Layer_1" data-name="Layer 1" xmlns="http://www.w3.org/2000/svg" xmlns:xlink="http://www.w3.org/1999/xlink" width="1600" height="900" viewBox="0 0 1600 900">
  <defs>
    <style>
      .cls-1, .cls-15, .cls-23, .cls-76, .cls-81 {
        fill: none;
      }

      .cls-2 {
        clip-path: url(#clip-path);
      }

      .cls-101, .cls-114, .cls-3, .cls-56 {
        fill: #fff;
      }

      .cls-4 {
        fill: #454647;
      }

      .cls-5 {
        fill: #bf9e4b;
      }

      .cls-6 {
        fill: #f7ca4d;
      }

      .cls-7 {
        fill: #64676d;
      }

      .cls-8 {
        fill: #4e526e;
      }

      .cls-11, .cls-111, .cls-113, .cls-114, .cls-115, .cls-116, .cls-118, .cls-119, .cls-122, .cls-123, .cls-13, .cls-14, .cls-16, .cls-17, .cls-18, .cls-20, .cls-27, .cls-33, .cls-34, .cls-36, .cls-38, .cls-40, .cls-42, .cls-68, .cls-69, .cls-73, .cls-77, .cls-8 {
        fill-rule: evenodd;
      }

      .cls-9 {
        clip-path: url(#clip-path-3);
      }

      .cls-10, .cls-14 {
        fill: #acb2be;
      }

      .cls-11 {
        fill: #414664;
      }

      .cls-12 {
        clip-path: url(#clip-path-4);
      }

      .cls-13 {
        fill: #31354b;
      }

      .cls-15, .cls-23, .cls-76, .cls-81 {
        stroke: #43475e;
        stroke-linecap: round;
      }

      .cls-15, .cls-23, .cls-42, .cls-76, .cls-81 {
        stroke-linejoin: round;
      }

      .cls-15 {
        stroke-width: 21.34px;
      }

      .cls-16 {
        fill: #43475e;
      }

      .cls-17 {
        fill: #c8ccd4;
      }

      .cls-18 {
        fill: #4e526d;
      }

      .cls-19 {
        clip-path: url(#clip-path-5);
      }

      .cls-20 {
        fill: #535875;
      }

      .cls-21 {
        clip-path: url(#clip-path-6);
      }

      .cls-22 {
        clip-path: url(#clip-path-7);
      }

      .cls-23 {
        stroke-width: 21.34px;
      }

      .cls-24 {
        clip-path: url(#clip-path-8);
      }

      .cls-25, .cls-27 {
        fill: #41465a;
      }

      .cls-26 {
        fill: #3c4053;
      }

      .cls-28 {
        clip-path: url(#clip-path-9);
      }

      .cls-29 {
        fill: #727c91;
      }

      .cls-30 {
        clip-path: url(#clip-path-10);
      }

      .cls-31 {
        clip-path: url(#clip-path-11);
      }

      .cls-32 {
        clip-path: url(#clip-path-12);
      }

      .cls-33 {
        fill: #733e2c;
      }

      .cls-34 {
        fill: #934f38;
      }

      .cls-35 {
        clip-path: url(#clip-path-13);
      }

      .cls-36 {
        fill: #ececec;
      }

      .cls-37 {
        clip-path: url(#clip-path-14);
      }

      .cls-38 {
        fill: #f4b868;
      }

      .cls-39 {
        clip-path: url(#clip-path-15);
      }

      .cls-40 {
        fill: #eb876d;
      }

      .cls-41 {
        clip-path: url(#clip-path-16);
      }

      .cls-42 {
        fill: #df71e2;
        stroke: #710e7c;
      }

      .cls-101, .cls-42, .cls-44, .cls-47, .cls-66 {
        stroke-width: 0.5px;
      }

      .cls-43, .cls-98 {
        fill: #faf079;
      }

      .cls-43 {
        stroke: #9a9435;
      }

      .cls-100, .cls-101, .cls-43, .cls-44, .cls-47, .cls-48, .cls-49, .cls-51, .cls-54, .cls-55, .cls-56, .cls-66, .cls-85, .cls-86, .cls-88, .cls-97 {
        stroke-miterlimit: 10;
      }

      .cls-44, .cls-45, .cls-55 {
        fill: #f9dad2;
      }

      .cls-44, .cls-55 {
        stroke: #4c2606;
      }

      .cls-46 {
        fill: #4c2606;
      }

      .cls-47 {
        fill: #de97fc;
      }

      .cls-47, .cls-49 {
        stroke: #453323;
      }

      .cls-48, .cls-97 {
        fill: #e16faa;
      }

      .cls-48 {
        stroke: #323232;
      }

      .cls-49 {
        fill: #fbd3c7;
      }

      .cls-50, .cls-64 {
        fill: #dd9f8f;
      }

      .cls-50 {
        opacity: 0.4;
      }

      .cls-51 {
        fill: #2455a3;
        stroke: #2d2b7a;
      }

      .cls-52 {
        fill: #f8e1db;
      }

      .cls-53 {
        fill: #342516;
      }

      .cls-54 {
        fill: #94c3e4;
        stroke: #63a6ce;
      }

      .cls-55, .cls-56, .cls-88 {
        stroke-width: 0.25px;
      }

      .cls-56 {
        stroke: #3d2d16;
      }

      .cls-57 {
        fill: #3d2d16;
      }

      .cls-58 {
        fill: #7a2f2b;
      }

      .cls-59 {
        fill: #f9988f;
      }

      .cls-60 {
        fill: #f58778;
      }

      .cls-61 {
        fill: #fff7f4;
      }

      .cls-62 {
        fill: #f48a71;
      }

      .cls-63 {
        fill: #8c3d35;
      }

      .cls-64 {
        opacity: 0.44;
      }

      .cls-65 {
        fill: #fc6a06;
      }

      .cls-66, .cls-85 {
        fill: #e7d760;
      }

      .cls-66 {
        stroke: #baa73b;
      }

      .cls-67 {
        fill: #b26b51;
      }

      .cls-68 {
        fill: #2c2c2c;
      }

      .cls-69 {
        fill: #ffad00;
      }

      .cls-70 {
        clip-path: url(#clip-path-17);
      }

      .cls-71 {
        clip-path: url(#clip-path-18);
      }

      .cls-72 {
        clip-path: url(#clip-path-19);
      }

      .cls-73 {
        fill: #4f546f;
      }

      .cls-74 {
        clip-path: url(#clip-path-20);
      }

      .cls-75 {
        clip-path: url(#clip-path-21);
      }

      .cls-76 {
        stroke-width: 53.94px;
      }

      .cls-77 {
        fill: #4f536f;
      }

      .cls-78 {
        clip-path: url(#clip-path-22);
      }

      .cls-79 {
        clip-path: url(#clip-path-23);
      }

      .cls-80 {
        clip-path: url(#clip-path-24);
      }

      .cls-81 {
        stroke-width: 21.34px;
      }

      .cls-82 {
        clip-path: url(#clip-path-25);
      }

      .cls-83 {
        clip-path: url(#clip-path-26);
      }

      .cls-84 {
        fill: #342517;
      }

      .cls-85 {
        stroke: #baa63c;
      }

      .cls-86, .cls-88 {
        fill: #f7d8d0;
        stroke: #4a2811;
      }

      .cls-87 {
        fill: #b16b51;
      }

      .cls-89 {
        fill: #e9a597;
        opacity: 0.5;
      }

      .cls-90 {
        fill: #8c3e36;
      }

      .cls-91 {
        fill: #7b2f2c;
      }

      .cls-92 {
        fill: #f5968e;
      }

      .cls-93 {
        fill: #f48678;
      }

      .cls-94 {
        fill: #fff6f3;
      }

      .cls-95 {
        fill: #3d2e17;
      }

      .cls-96 {
        fill: #ef4b3b;
      }

      .cls-100, .cls-97 {
        stroke: #ae2085;
        stroke-width: 2px;
      }

      .cls-99 {
        fill: #c5248e;
      }

      .cls-100 {
        fill: #d35ba1;
      }

      .cls-101 {
        stroke: #3d2e17;
      }

      .cls-102 {
        clip-path: url(#clip-path-27);
      }

      .cls-103 {
        clip-path: url(#clip-path-28);
      }

      .cls-104 {
        clip-path: url(#clip-path-29);
      }

      .cls-105 {
        clip-path: url(#clip-path-30);
      }

      .cls-106 {
        clip-path: url(#clip-path-31);
      }

      .cls-107 {
        clip-path: url(#clip-path-32);
      }

      .cls-108 {
        clip-path: url(#clip-path-33);
      }

      .cls-109 {
        opacity: 0.3;
      }

      .cls-110 {
        clip-path: url(#clip-path-34);
      }

      .cls-111, .cls-112 {
        fill: #f3b90a;
      }

      .cls-113 {
        fill: #ff6d6c;
      }

      .cls-115 {
        fill: #cb4c4b;
      }

      .cls-116 {
        fill: #048179;
      }

      .cls-117 {
        clip-path: url(#clip-path-35);
      }

      .cls-118 {
        fill: #0b67ab;
      }

      .cls-119 {
        fill: #024e4b;
      }

      .cls-120 {
        fill: #92effb;
      }

      .cls-121 {
        clip-path: url(#clip-path-36);
      }

      .cls-122 {
        fill: #57aeb9;
      }

      .cls-123 {
        fill: #86e6ff;
      }
    </style>
    <clipPath id="clip-path">
      <rect class="cls-1" width="1600" height="900"/>
    </clipPath>
    <clipPath id="clip-path-3">
      <path class="cls-1" d="M1054.19,437.91l-13.26-92.34s-1.66-17.06-23-19.67-42.92-1.76-55,2.39c-9.55,3.29-13.56,5.14-17.28,22.49s-6.21,87.13-6.21,87.13Z"/>
    </clipPath>
    <clipPath id="clip-path-4">
      <polygon class="cls-1" points="1092.72 473.94 1054.19 437.91 939.5 437.91 963.84 473.94 1092.72 473.94"/>
    </clipPath>
    <clipPath id="clip-path-5">
      <path class="cls-1" d="M942.25,437.91,929,345.57s-1.66-17.06-23-19.67-42.91-1.76-55,2.39c-9.55,3.29-13.56,5.14-17.27,22.49s-6.22,92.64-6.22,92.64Z"/>
    </clipPath>
    <clipPath id="clip-path-6">
      <path class="cls-1" d="M1130,502.78,1114.54,394.9s-1.94-19.93-26.86-23-50.14-2.06-64.2,2.79c-11.15,3.84-15.84,6-20.18,26.28S996,502.78,996,502.78Z"/>
    </clipPath>
    <clipPath id="clip-path-7">
      <polygon class="cls-1" points="1175.05 544.87 1130.03 502.78 996.04 502.78 1024.47 544.87 1175.05 544.87"/>
    </clipPath>
    <clipPath id="clip-path-8">
      <path class="cls-1" d="M999.26,502.78,983.76,394.9s-1.94-19.93-26.85-23-50.14-2.06-64.21,2.79c-11.15,3.84-15.84,6-20.17,26.28s-7.26,108.22-7.26,108.22Z"/>
    </clipPath>
    <clipPath id="clip-path-9">
      <path class="cls-1" d="M837,107.94a29.64,29.64,0,0,0-16,0V527.27a36.62,36.62,0,0,0,16,0Z"/>
    </clipPath>
    <clipPath id="clip-path-10">
      <path class="cls-1" d="M509.11,441.08l13.27-92.34s1.66-17.06,23-19.67,42.91-1.76,55,2.39c9.55,3.29,13.56,5.14,17.27,22.49s6.22,87.13,6.22,87.13Z"/>
    </clipPath>
    <clipPath id="clip-path-11">
      <polygon class="cls-1" points="470.58 477.11 509.12 441.08 623.8 441.08 599.47 477.11 470.58 477.11"/>
    </clipPath>
    <clipPath id="clip-path-12">
      <path class="cls-1" d="M621.05,441.08l13.26-92.34s1.67-17.06,23-19.67,42.92-1.76,55,2.39c9.54,3.29,13.56,5.14,17.27,22.49s6.21,92.64,6.21,92.64Z"/>
    </clipPath>
    <clipPath id="clip-path-13">
      <path class="cls-1" d="M630.88,494.45s-2-23.78-1.3-29.45c1.57-13.28,18.9-21.46,25.13,4.18,1.78,7.35-3,36.76-3,36.76l-23.41-6.86Z"/>
    </clipPath>
    <clipPath id="clip-path-14">
      <path class="cls-1" d="M674.31,494.36s-4.8-26.15-2.63-32c4.23-11.32,16.56-13.39,23.65-2.71,4,6,3.83,38.71,3.83,38.71Z"/>
    </clipPath>
    <clipPath id="clip-path-15">
      <path class="cls-1" d="M652.69,500.68s-5,3.91-5,.29c.11-5.4-9.56-19.16-15.35-8.47-.47.87-1.75.52-2.88,1.09s-8.67,14.78-2.57,21.11,14.27,8.26,19.59,4.71S652.69,500.68,652.69,500.68Z"/>
    </clipPath>
    <clipPath id="clip-path-16">
      <path class="cls-1" d="M671.12,507.88s-1.71-10.42,0-14.41,13.28-21.22,25.42-4.65c0,0,2.59,3.3,2.76,5.45,0,0,2.9,11.21-1.38,15.74-3.59,3.79-13.72,6.64-19.95,4A13.1,13.1,0,0,1,671.12,507.88Z"/>
    </clipPath>
    <clipPath id="clip-path-17">
      <path class="cls-1" d="M433.27,506l15.5-107.88s1.94-19.93,26.85-23,50.14-2,64.21,2.79c11.15,3.84,15.84,6,20.18,26.28S567.27,506,567.27,506Z"/>
    </clipPath>
    <clipPath id="clip-path-18">
      <polygon class="cls-1" points="388.25 548.04 433.27 505.95 567.26 505.95 538.83 548.04 388.25 548.04"/>
    </clipPath>
    <clipPath id="clip-path-19">
      <path class="cls-1" d="M564.05,506l15.49-107.88s1.94-19.93,26.86-23,50.14-2,64.2,2.79c11.15,3.84,15.84,6,20.18,26.28S698,512.39,698,512.39Z"/>
    </clipPath>
    <clipPath id="clip-path-20">
      <path class="cls-1" d="M347.78,563.39,365.6,432.45s2.23-24.19,30.87-27.9,57.64-2.49,73.81,3.39c12.82,4.67,18.21,7.29,23.2,31.9s8.34,123.55,8.34,123.55Z"/>
    </clipPath>
    <clipPath id="clip-path-21">
      <polygon class="cls-1" points="296.03 614.47 347.78 563.39 501.82 563.39 469.14 614.47 296.03 614.47"/>
    </clipPath>
    <clipPath id="clip-path-22">
      <path class="cls-1" d="M498.13,563.39l17.81-130.94s2.23-24.19,30.87-27.9,57.65-2.49,73.81,3.39c12.82,4.67,18.21,7.29,23.2,31.9s8.35,131.36,8.35,131.36Z"/>
    </clipPath>
    <clipPath id="clip-path-23">
      <path class="cls-1" d="M214.45,648.62l22.22-154.71s2.79-28.58,38.52-33,71.9-2.95,92.07,4c16,5.51,22.71,8.61,28.94,37.68s10.41,146,10.41,146Z"/>
    </clipPath>
    <clipPath id="clip-path-24">
      <polygon class="cls-1" points="149.89 708.97 214.45 648.62 406.61 648.62 365.83 708.97 149.89 708.97"/>
    </clipPath>
    <clipPath id="clip-path-25">
      <path class="cls-1" d="M402,648.62l22.22-154.71s2.79-28.58,38.52-33,71.9-2.95,92.07,4c16,5.51,22.71,8.61,28.94,37.68s10.41,155.21,10.41,155.21Z"/>
    </clipPath>
    <clipPath id="clip-path-26">
      <path class="cls-1" d="M601,23c-7.2-2.29-14.72-2.05-22.56.63l19.83,710c8.58,1.81,16,1.45,22.57-.63Z"/>
    </clipPath>
    <clipPath id="clip-path-27">
      <path class="cls-1" d="M1215.52,560.22l-17.81-130.94s-2.23-24.19-30.88-27.9-57.64-2.49-73.81,3.39c-12.82,4.66-18.21,7.29-23.19,31.9s-8.35,123.55-8.35,123.55Z"/>
    </clipPath>
    <clipPath id="clip-path-28">
      <polygon class="cls-1" points="1267.28 611.3 1215.52 560.22 1061.48 560.22 1094.17 611.3 1267.28 611.3"/>
    </clipPath>
    <clipPath id="clip-path-29">
      <path class="cls-1" d="M1065.18,560.22l-17.81-130.94s-2.23-24.19-30.88-27.9-57.64-2.49-73.81,3.39c-12.82,4.66-18.21,7.29-23.2,31.9S911.14,568,911.14,568Z"/>
    </clipPath>
    <clipPath id="clip-path-30">
      <path class="cls-1" d="M1348.85,645.44l-22.22-154.7s-2.78-28.58-38.51-33-71.91-2.94-92.07,4c-16,5.51-22.72,8.61-28.94,37.68s-10.41,146-10.41,146Z"/>
    </clipPath>
    <clipPath id="clip-path-31">
      <polygon class="cls-1" points="1403.83 705.8 1348.85 645.45 1156.7 645.45 1197.47 705.8 1403.83 705.8"/>
    </clipPath>
    <clipPath id="clip-path-32">
      <path class="cls-1" d="M1161.31,645.44l-22.22-154.7s-2.78-28.58-38.51-33-71.91-2.94-92.07,4c-16,5.51-22.72,8.61-28.94,37.68s-10.41,155.21-10.41,155.21Z"/>
    </clipPath>
    <clipPath id="clip-path-33">
      <path class="cls-1" d="M941.51,22.77c-5-2.41-10.37-2.38-16,0v689.1c6,2,11.31,1.84,16,0Z"/>
    </clipPath>
    <clipPath id="clip-path-34">
      <path class="cls-1" d="M367.28,549.46l-52.62-4.13c-25.67,24.24-32.59,59.52-32.38,99a26.65,26.65,0,0,0,24.56,26.45l48.91,3.84a26.65,26.65,0,0,0,28.53-23.22C389,614.32,387.81,579,367.28,549.46Z"/>
    </clipPath>
    <clipPath id="clip-path-35">
      <path class="cls-1" d="M1136.21,564.66a55.6,55.6,0,0,0-55.4-50.86h0a55.25,55.25,0,0,0-55,50c-1.91,19.94-4.09,42.58-5.89,61.36a36.15,36.15,0,0,0,36,39.6h49.49a36.15,36.15,0,0,0,36-39.23Z"/>
    </clipPath>
    <clipPath id="clip-path-36">
      <rect class="cls-1" x="1040.62" y="610.17" width="84.76" height="9.75"/>
    </clipPath>
  </defs>
  <g class="cls-2">
    <g class="cls-2">
      <g>
        <path class="cls-3" d="M1402,595s-25.61-11.73-77.84-39.52-85.34-47.23-85.34-47.23Z"/>
        <path class="cls-4" d="M391.85,455.7l-.08,21.56s-2.12,15.42-16.22,23.29l5.9,10.8s18.69-7.8,17.46-28l-.12-27.65Z"/>
        <path class="cls-4" d="M443.62,446.3s6.53,19.73,25,12.77l101.22-55.24s4.87-3.55,5.72-13.94V369.43l3.41-.08s-.25,32.72-3.58,34.77L457.32,469.63s-15.9,2.94-19.24-15.34Z"/>
        <path class="cls-4" d="M1024.51,391.07s.19,8.51,6.55,13.59l100.3,54.41s19.71,6.57,24.58-12.51l4.39-.17,1.49,4.3s2.78,17.19-16.2,19.29c0,0-118.8-59.77-120.9-63.31C1024.72,406.67,1018,385.8,1024.51,391.07Z"/>
        <path class="cls-5" d="M1146.63,470s12.72-1.43,15.12-13.61l11.14,11.81-8,18.35Z"/>
        <path class="cls-5" d="M432,436.52s-1.28,30.75,28.61,37l-28.47,15.66s-7.26-21.64-7.26-22.77S432,436.52,432,436.52Z"/>
        <path class="cls-6" d="M373,517s31.64-12,26.36-42.19l26.93,19.54S407.18,510.26,406,510.74,373,517,373,517Z"/>
        <path class="cls-5" d="M1200.84,484.39a33.32,33.32,0,0,0,10.28,21.89s-20.93-3.33-21.45-5.92S1200.84,484.39,1200.84,484.39Z"/>
        <rect class="cls-7" x="1017.38" y="724.99" width="387.72" height="59.24"/>
        <g>
          <g>
            <g>
              <path class="cls-8" d="M1054.19,437.91l-13.26-92.34s-1.66-17.06-23-19.67-42.92-1.76-55,2.39c-9.55,3.29-13.56,5.14-17.28,22.49s-6.21,87.13-6.21,87.13Z"/>
              <g class="cls-9">
                <ellipse class="cls-10" cx="995.19" cy="336.22" rx="25.9" ry="20.65"/>
              </g>
            </g>
            <g>
              <path class="cls-11" d="M1092.72,473.94l-38.53-36H939.5l24.34,36Z"/>
              <g class="cls-12">
                <path class="cls-13" d="M939.5,433.37l50,46.27h-8.7l-45.35-46.27Z"/>
              </g>
            </g>
            <path class="cls-14" d="M1092.72,473.94v11.4H964.15l-.31-11.4Z"/>
            <path class="cls-15" d="M961.3,349.54s-11.69,27.85-7.84,70.42"/>
            <path class="cls-16" d="M1026.84,349.1s7.82,23.46,11.64,70.74a1.37,1.37,0,1,1-2.74.23c-3.79-46.86-11.52-70.1-11.52-70.1a1.38,1.38,0,0,1,.87-1.74A1.39,1.39,0,0,1,1026.84,349.1Z"/>
            <path class="cls-17" d="M1013.49,331.08a.9.9,0,1,0-1.68.65,9.74,9.74,0,0,1-.9,8.2c-1.78,2.72-5.54,5.18-13,6.09a.89.89,0,0,0-.79,1,.91.91,0,0,0,1,.79c8.28-1,12.36-3.88,14.32-6.89A11.63,11.63,0,0,0,1013.49,331.08Zm0,0Z"/>
          </g>
          <g>
            <g>
              <path class="cls-18" d="M942.25,437.91,929,345.57s-1.66-17.06-23-19.67-42.91-1.76-55,2.39c-9.55,3.29-13.56,5.14-17.27,22.49s-6.22,92.64-6.22,92.64Z"/>
              <g class="cls-19">
                <ellipse class="cls-10" cx="883.25" cy="336.22" rx="25.9" ry="20.65"/>
              </g>
            </g>
            <path class="cls-11" d="M980.79,473.94l-38.54-36H827.56l24.34,36Z"/>
            <path class="cls-14" d="M980.79,485.34v-11.4H851.9L832.05,441.1a11.55,11.55,0,0,1-1.63-6.9L838.23,338S827,361.56,822.71,439a.12.12,0,0,0,0,.1c.76,1.33,16.58,28.88,23.42,40.81a10.82,10.82,0,0,0,9.37,5.42Z"/>
            <path class="cls-16" d="M915.77,349.3s9.08,52.39,10.29,70.57a1.38,1.38,0,0,1-2.75.18c-1.2-18.1-10.26-70.28-10.26-70.28a1.38,1.38,0,0,1,2.72-.47Z"/>
            <path class="cls-16" d="M851.53,349.8s-5.35,26.89-3.44,70.1a1.38,1.38,0,0,1-2.75.12c-1.93-43.62,3.49-70.75,3.49-70.75a1.38,1.38,0,0,1,2.7.53Z"/>
            <path class="cls-17" d="M903,331.18a.9.9,0,0,0-1.74.46,9.86,9.86,0,0,1-1.59,7.44c-1.77,2.64-5.21,5.3-11.65,6.95a.91.91,0,0,0,.45,1.76c7-1.82,10.76-4.81,12.7-7.71A11.55,11.55,0,0,0,903,331.18Zm0,0Z"/>
          </g>
          <g>
            <path class="cls-14" d="M846.08,479l-2.37,40.42-21.84-41.84,2.3-39.13Z"/>
            <rect class="cls-10" x="828.24" y="496.4" width="39.84" height="6.57" transform="translate(299.61 1317.09) rotate(-86.64)"/>
          </g>
        </g>
        <g>
          <g>
            <g>
              <path class="cls-20" d="M1130,502.78,1114.54,394.9s-1.94-19.93-26.86-23-50.14-2.06-64.2,2.79c-11.15,3.84-15.84,6-20.18,26.28S996,502.78,996,502.78Z"/>
              <g class="cls-21">
                <ellipse class="cls-10" cx="1061.1" cy="383.98" rx="30.26" ry="24.12"/>
              </g>
            </g>
            <g>
              <path class="cls-11" d="M1175.05,544.87l-45-42.09H996l28.43,42.09Z"/>
              <g class="cls-22">
                <path class="cls-13" d="M996,497.48l58.41,54h-10.17l-53-54Z"/>
              </g>
            </g>
            <path class="cls-14" d="M1175.05,544.87v13.32H1024.84l-.37-13.32Z"/>
            <path class="cls-23" d="M1021.51,399.53s-13.65,32.54-9.16,82.27"/>
            <path class="cls-16" d="M1098.07,399s9.14,27.41,13.61,82.65a1.61,1.61,0,1,1-3.21.26C1104.05,427.19,1095,400,1095,400a1.61,1.61,0,0,1,3-1Z"/>
            <path class="cls-17" d="M1082.49,378a1.06,1.06,0,0,0-2,.76,11.37,11.37,0,0,1-1,9.58c-2.07,3.17-6.47,6.05-15.22,7.11a1.05,1.05,0,0,0-.92,1.17,1.07,1.07,0,0,0,1.18.93c9.67-1.18,14.44-4.54,16.73-8C1084.81,384,1082.49,378,1082.49,378Zm0,0Z"/>
          </g>
          <g>
            <g>
              <path class="cls-20" d="M999.26,502.78,983.76,394.9s-1.94-19.93-26.85-23-50.14-2.06-64.21,2.79c-11.15,3.84-15.84,6-20.17,26.28s-7.26,108.22-7.26,108.22Z"/>
              <g class="cls-24">
                <ellipse class="cls-10" cx="930.33" cy="383.98" rx="30.26" ry="24.12"/>
              </g>
            </g>
            <path class="cls-11" d="M1044.28,544.87l-45-42.09h-134l28.43,42.09Z"/>
            <path class="cls-14" d="M1044.28,558.19V544.87H893.7L870.18,506a11.54,11.54,0,0,1-1.62-6.9c1.61-19.9,9.17-113,9.17-113s-13.14,27.5-18.14,118a.2.2,0,0,0,0,.11c.84,1.47,20.19,35.19,27.89,48.59a10.79,10.79,0,0,0,9.36,5.43Z"/>
            <path class="cls-16" d="M968.31,399.26s10.62,61.2,12,82.44a1.61,1.61,0,0,1-3.21.21c-1.4-21.14-12-82.1-12-82.1a1.61,1.61,0,1,1,3.17-.55Z"/>
            <path class="cls-16" d="M893.27,399.85s-6.25,31.4-4,81.89a1.61,1.61,0,1,1-3.21.13c-2.26-50.95,4.07-82.65,4.07-82.65a1.61,1.61,0,0,1,3.16.63Z"/>
            <path class="cls-17" d="M953.38,378.08a1.06,1.06,0,0,0-2,.54,11.5,11.5,0,0,1-1.86,8.69c-2.07,3.09-6.08,6.2-13.61,8.13a1.05,1.05,0,0,0-.76,1.29,1.06,1.06,0,0,0,1.29.76c8.24-2.12,12.57-5.62,14.84-9A13.59,13.59,0,0,0,953.38,378.08Zm0,0Z"/>
          </g>
          <g>
            <path class="cls-14" d="M888.18,552.64l-2.72,46.25-25-47.88,2.63-44.77Z"/>
            <rect class="cls-10" x="867.76" y="572.59" width="45.59" height="7.52" transform="translate(262.99 1431.58) rotate(-86.64)"/>
          </g>
        </g>
        <g>
          <ellipse class="cls-25" cx="829.11" cy="108.54" rx="11.39" ry="3.5"/>
          <ellipse class="cls-26" cx="829.24" cy="527.35" rx="11.21" ry="3.42"/>
          <g>
            <path class="cls-27" d="M837,107.94a29.64,29.64,0,0,0-16,0V527.27a36.62,36.62,0,0,0,16,0Z"/>
            <g class="cls-28">
              <rect class="cls-29" x="834.48" y="108.32" width="19.19" height="449.76"/>
            </g>
          </g>
        </g>
        <g>
          <g>
            <g>
              <path class="cls-8" d="M509.11,441.08l13.27-92.34s1.66-17.06,23-19.67,42.91-1.76,55,2.39c9.55,3.29,13.56,5.14,17.27,22.49s6.22,87.13,6.22,87.13Z"/>
              <g class="cls-30">
                <ellipse class="cls-10" cx="568.12" cy="339.4" rx="25.9" ry="20.65"/>
              </g>
            </g>
            <g>
              <path class="cls-11" d="M470.58,477.11l38.53-36h114.7l-24.34,36Z"/>
              <g class="cls-31">
                <path class="cls-13" d="M623.81,436.54l-50,46.27h8.71l45.34-46.27Z"/>
              </g>
            </g>
            <path class="cls-14" d="M470.58,477.11v11.4H599.16l.31-11.4Z"/>
            <path class="cls-15" d="M602,352.71s11.68,27.85,7.84,70.42"/>
            <path class="cls-16" d="M536.47,352.27s-7.82,23.46-11.64,70.75a1.37,1.37,0,0,0,2.74.22c3.79-46.86,11.51-70.1,11.51-70.1a1.38,1.38,0,0,0-2.61-.87Z"/>
            <path class="cls-17" d="M549.81,334.25a.91.91,0,1,1,1.69.65,9.74,9.74,0,0,0,.9,8.2c1.77,2.72,5.54,5.18,13,6.09a.89.89,0,0,1,.78,1,.9.9,0,0,1-1,.79c-8.28-1-12.36-3.88-14.33-6.89A11.71,11.71,0,0,1,549.81,334.25Zm0,0Z"/>
          </g>
          <g>
            <g>
              <path class="cls-18" d="M621.05,441.08l13.26-92.34s1.67-17.06,23-19.67,42.92-1.76,55,2.39c9.54,3.29,13.56,5.14,17.27,22.49s6.21,92.64,6.21,92.64Z"/>
              <g class="cls-32">
                <ellipse class="cls-10" cx="680.05" cy="339.4" rx="25.9" ry="20.65"/>
              </g>
            </g>
            <path class="cls-11" d="M582.52,477.11l38.53-36H735.74l-24.34,36Z"/>
            <path class="cls-14" d="M582.52,488.51v-11.4H711.41l19.85-32.84a11.52,11.52,0,0,0,1.62-6.9c-1.47-18.1-7.8-96.18-7.8-96.18s11.24,23.54,15.52,101a.19.19,0,0,1,0,.1l-23.42,40.81a10.79,10.79,0,0,1-9.36,5.42Z"/>
            <path class="cls-16" d="M647.54,352.47s-9.09,52.39-10.29,70.57a1.37,1.37,0,1,0,2.74.18c1.2-18.1,10.26-70.28,10.26-70.28a1.38,1.38,0,0,0-2.71-.47Z"/>
            <path class="cls-16" d="M711.77,353s5.35,26.88,3.44,70.09a1.38,1.38,0,0,0,1.32,1.43,1.36,1.36,0,0,0,1.43-1.31c1.93-43.62-3.49-70.75-3.49-70.75a1.36,1.36,0,0,0-1.61-1.08A1.39,1.39,0,0,0,711.77,353Z"/>
            <path class="cls-17" d="M660.32,334.35a.9.9,0,0,1,1.75.46,9.88,9.88,0,0,0,1.58,7.44c1.78,2.64,5.21,5.3,11.66,7a.9.9,0,1,1-.45,1.75c-7.06-1.82-10.77-4.81-12.71-7.7A11.63,11.63,0,0,1,660.32,334.35Zm0,0Z"/>
          </g>
          <g>
            <path class="cls-14" d="M717.22,482.13l2.37,40.42,21.84-41.84-2.29-39.13Z"/>
            <rect class="cls-10" x="711.86" y="482.93" width="6.57" height="39.84" transform="translate(-28.25 42.79) rotate(-3.36)"/>
          </g>
        </g>
        <rect class="cls-7" x="149.89" y="728.08" width="396.09" height="59.24"/>
        <path class="cls-33" d="M636.81,414.69l-3.54,17.5s-18.78,22.42-22.89,26.37-6,9.17-7,11.43.71,2.37,2.52,0l2-3.66v5.45s.63,4,2.44,0l1.25-1.79s.55,4.54,3,4.22-1.29-3.87,0-5.39l31.21-30.11,4.28-21Z"/>
        <g>
          <path class="cls-34" d="M630.88,494.45s-2-23.78-1.3-29.45c1.57-13.28,18.9-21.46,25.13,4.18,1.78,7.35-3,36.76-3,36.76l-23.41-6.86Z"/>
          <g class="cls-35">
            <path class="cls-36" d="M625.51,504.19V479.51s21.42,10.94,31.56,7.92l.14,23.6Z"/>
          </g>
        </g>
        <g>
          <path class="cls-34" d="M674.31,494.36s-4.8-26.15-2.63-32c4.23-11.32,16.56-13.39,23.65-2.71,4,6,3.83,38.71,3.83,38.71Z"/>
          <g class="cls-37">
            <path class="cls-36" d="M673.35,498.14l-4.07-22.81s13.46,8.95,30.1,0l8.06,22.81Z"/>
          </g>
        </g>
        <g>
          <path class="cls-38" d="M652.69,500.68s-5,3.91-5,.29c.11-5.4-9.56-19.16-15.35-8.47-.47.87-1.75.52-2.88,1.09s-8.67,14.78-2.57,21.11,14.27,8.26,19.59,4.71S652.69,500.68,652.69,500.68Z"/>
          <g class="cls-39">
            <path class="cls-40" d="M624.9,501.41s-1.38,11.38,14.74,10l14.45-3-.91,10.47L643.86,527l-20.78-9.86-1.14-10.3Z"/>
          </g>
        </g>
        <path class="cls-38" d="M671.12,507.88s-1.71-10.42,0-14.41,13.28-21.22,25.42-4.65c0,0,2.59,3.3,2.76,5.45,0,0,2.9,11.21-1.38,15.74-3.59,3.79-13.72,6.64-19.95,4A13.1,13.1,0,0,1,671.12,507.88Z"/>
        <g class="cls-41">
          <path class="cls-40" d="M667.88,500.16s8.76,20,32.38,2.95v9.64l-19.37,5.73-9.77-5.73Z"/>
        </g>
        <path class="cls-42" d="M1317,616.54s-4.75-25.21-3-32.47"/>
        <path class="cls-42" d="M1221.86,580.92s10.49-12.36,10.49-18.34"/>
        <g>
          <path class="cls-43" d="M640.51,468.79a12.32,12.32,0,0,0-.87,8.14c1.17,4.27,18.7,6.79,29.2,7.56,10.28.76,25.68,1,32.12-3.08a2.36,2.36,0,0,0,.78-.85,7.06,7.06,0,0,0-.94-8.2C697,467.72,663.44,461.93,640.51,468.79Z"/>
          <g>
            <path class="cls-44" d="M587.09,458.23s13.37,6.91,33.37,4.29a31,31,0,0,0,9.86-10.71c4.31-7.45,7.67-14.09,7.67-14.09a23.87,23.87,0,0,1-16.42-14l-8.85,15.93s-19.34,5.47-28.22,3.95"/>
            <g>
              <path class="cls-45" d="M611.74,439.88s5.36-1.61,7.15,8.47"/>
              <path class="cls-46" d="M611.67,439.64c4.8-.72,6.64,4.95,7.22,8.71-.71-3.51-2.59-9-7.07-8.23l-.15-.48Z"/>
            </g>
          </g>
          <path class="cls-47" d="M730.23,436.48s-5.93,7.16-24.31,7.9A87.67,87.67,0,0,1,701.57,475s-6.9,4.81-32.38,2.5c-30.6-2.78-28.37-7.06-28.37-7.06s-2.31-18.33-3.47-31c0,0-14.66-4.74-19.72-16.63,0,0,7.06-9.59,12.71-17.48a31.36,31.36,0,0,1,12.32-10.19c7.88-3.66,20.48-8.74,32.57-10.33l15,7s20.14,3.76,24.69,10.72S730.23,436.48,730.23,436.48Z"/>
          <path class="cls-48" d="M637.67,442.18s-1.39-7.82.15-21.71"/>
          <g>
            <path class="cls-49" d="M654.94,393.13c2.77,3.06,11.11,8.22,16,6.06,3.82-1.7,11.73-2.51,13.52-4.88a2.14,2.14,0,0,1-.44-.88,9.07,9.07,0,0,1-.35-2.43,34.84,34.84,0,0,1,.7-6.94,44.29,44.29,0,0,0-13.19-2.65c-.94-.06-1.88-.1-2.84-.11a36,36,0,0,0-11.49,1.53,43.65,43.65,0,0,1-.43,6.24,16.16,16.16,0,0,1-.56,2.42A4.09,4.09,0,0,1,654.94,393.13Z"/>
            <path class="cls-50" d="M656.53,387.52a45.16,45.16,0,0,0,.43-6.24,34.06,34.06,0,0,1,11.21-1.55c.94,0,1.86,0,2.77.1a42.57,42.57,0,0,1,12.86,2.63,35.92,35.92,0,0,0-.33,7,9,9,0,0,0,.25,2.33A75.59,75.59,0,0,1,656.36,390,23.82,23.82,0,0,0,656.53,387.52Z"/>
          </g>
          <path class="cls-44" d="M696,461.43s15.63,5,31.74-.52c0,0,2.21-1.55,1.6-8.83a155.81,155.81,0,0,0-2.67-16.76s-8.12,4.35-15.75,4.45l2,8.05a74.16,74.16,0,0,1-15.93,3"/>
          <path class="cls-46" d="M712.44,447.78a7.56,7.56,0,0,1,8.63.45,7.31,7.31,0,0,0-8.35,0l-.28-.41Z"/>
          <path class="cls-47" d="M728.37,432.15l1.86,4.33s-5.93,7.07-24.31,7.9c0,0-2.83-8.94-3.17-15.07"/>
          <g>
            <path class="cls-51" d="M662.88,397.63c1-.32,4.44-2.71,10.91.3s-2.45,10.58-2.45,10.58L664,408S654.77,400.33,662.88,397.63Z"/>
            <path class="cls-47" d="M660.45,381.38c-.82.57-7.75,6-8.34,9.36s.54,18.67.54,18.67L667,396.67s-4.88-1.85-7-8.33Z"/>
            <path class="cls-47" d="M671.86,397.33c-.64.2,10.47,15.68,10.47,15.68a72.21,72.21,0,0,0,10.61-20.72l-8.51-7.16S684.38,393.38,671.86,397.33Z"/>
            <g>
              <path class="cls-51" d="M677.58,448c-.21.54-.41,1.07-.63,1.6h0c-6.63,16.38-16.1,24.12-16.1,24.12a92.93,92.93,0,0,1-6.18-11.19c-.85-1.9-1.5-3.54-2-4.95a23.17,23.17,0,0,1-1.46-6.22q.38-3.12.83-6,.41-2.7.89-5.19c.9-4.76,1.91-9,2.95-12.63.53-1.85,1.06-3.58,1.6-5.17,3.44-10.26,6.69-15.12,6.63-15.87-.17-2.17,8-.82,8-.82a81.43,81.43,0,0,0,.42,10.86c.12,1.23.25,2.47.4,3.73.42,3.63,1,7.33,1.51,10.8.21,1.21.41,2.4.6,3.54.72,4.22,1.43,7.88,1.91,10.3C677.33,446.82,677.58,448,677.58,448Z"/>
              <path class="cls-52" d="M672.92,420.24a55.13,55.13,0,0,0-16.53,7.25c.52-1.85,1.13-3.77,1.67-5.37a62.73,62.73,0,0,1,14.46-5.61C672.64,417.74,672.77,419,672.92,420.24Z"/>
              <path class="cls-52" d="M674.59,434.85c-6.11,2.19-16.22,6.23-22.07,10.52.27-1.8.63-3.87.94-5.54A79.87,79.87,0,0,1,674,431.16C674.2,432.37,674.4,433.7,674.59,434.85Z"/>
              <path class="cls-52" d="M677.09,447.93c-.21.55-.42,1.22-.64,1.74h0c-6,2.52-15.4,6.87-21.42,12.51a52,52,0,0,1-1.94-4.89A118.07,118.07,0,0,1,676.53,445C676.92,446.93,677.09,447.93,677.09,447.93Z"/>
            </g>
          </g>
          <g>
            <path class="cls-44" d="M697.19,451c-7.83-12.75-11.5-13.17-11.5-13.17-8.09-.23-12.05,3.32-13.81,5.58s-.21,2.81-.21,2.81,1.49.47,4.78-1.89c0,0,1.48-1.42,5.89-1.31,0,0-9.47,6.62-5.49,12.64,0,0-.55,1.48.79,1.94a2.2,2.2,0,0,0,.69,2.52c1.3,1,3.88-2.47,6.65-2.77l2.38.24a4.84,4.84,0,0,0,2.57,4.47,6.88,6.88,0,0,0,7.78-1.46"/>
            <g>
              <path class="cls-45" d="M676.81,456.13a12,12,0,0,1,6.94-8.55"/>
              <path class="cls-46" d="M676.57,456.1a12.21,12.21,0,0,1,7.18-8.52,12,12,0,0,0-6.69,8.59l-.49-.07Z"/>
            </g>
            <g>
              <path class="cls-45" d="M677.51,458.5s.16-2.16,4.14-5.13c0,0,.63-.6,3.5-1.19"/>
              <path class="cls-46" d="M677.26,458.48c.58-2.29,2.54-3.83,4.34-5.18a10.68,10.68,0,0,1,3.55-1.12,10.31,10.31,0,0,0-3.44,1.26c-1.63,1.34-3.48,3-4,5.08l-.5,0Z"/>
            </g>
          </g>
          <g>
            <g>
              <g>
                <path class="cls-53" d="M698.47,313.08s-.83-9.49,12.12-9.09a11.67,11.67,0,0,1,8.64,4.17c2.84,3.41,5.74,9.44,4.44,19.35a30.74,30.74,0,0,1-.85,4.25c-1.33,5-3.49,19.05,5,12.44,0,0-5.26,17.29-19,9.3,0,0-8.23-10.78.53-26.55A7.51,7.51,0,0,0,710,321c-.68-2.08-2.37-4-6.39-3.48Z"/>
                <ellipse class="cls-54" cx="698.51" cy="317.69" rx="5.26" ry="6.81" transform="translate(56.88 738.58) rotate(-57.72)"/>
              </g>
              <g>
                <path class="cls-53" d="M655,309.87s2.22-9.26-10.65-10.76a11.68,11.68,0,0,0-9.16,2.86c-3.3,2.95-7.06,8.5-7.23,18.49a33,33,0,0,0,.22,4.33c.58,5.13-.87,18.36-8.34,10.58,0,0,4.2,18.86,19,13,0,0,9.71-9.46,3.36-26.35a7.5,7.5,0,0,1,.26-6c1-1.95,2.93-3.62,6.83-2.5Z"/>
                <ellipse class="cls-54" cx="654.28" cy="314.43" rx="6.81" ry="5.26" transform="matrix(0.91, -0.4, 0.4, 0.91, -71.27, 291.46)"/>
              </g>
            </g>
            <path class="cls-55" d="M642,340.89s-9.05,32.3,21.65,46.32c0,0,7.46,2.41,13.67.1,0,0,21.2-4.32,27.72-30.58,0,0,8.48-23.6-12.18-34.08C692.81,322.65,655.1,313.29,642,340.89Z"/>
            <g>
              <g>
                <g>
                  <ellipse class="cls-56" cx="662.93" cy="352.53" rx="5.55" ry="5.18" transform="matrix(0.07, -1, 1, 0.07, 262.65, 987.77)"/>
                  <ellipse class="cls-57" cx="662.81" cy="353.06" rx="3.12" ry="2.91" transform="matrix(0.07, -1, 1, 0.07, 262.02, 988.15)"/>
                  <ellipse class="cls-3" cx="666.2" cy="352.08" rx="1.02" ry="0.95" transform="translate(266.14 990.61) rotate(-85.79)"/>
                </g>
                <g>
                  <ellipse class="cls-56" cx="681.42" cy="353.54" rx="5.55" ry="5.18" transform="translate(278.78 1007.15) rotate(-85.79)"/>
                  <ellipse class="cls-57" cx="681.31" cy="354.03" rx="3.16" ry="2.95" transform="translate(278.19 1007.49) rotate(-85.79)"/>
                  <ellipse class="cls-3" cx="684.8" cy="353.39" rx="1.02" ry="0.95" transform="translate(282.06 1010.38) rotate(-85.79)"/>
                </g>
              </g>
              <path class="cls-57" d="M683.48,343.26a1.26,1.26,0,0,1,.45-2.48H684s7,.19,9.4,5.9a.24.24,0,0,1-.36.28C691.93,346.06,689.29,344.47,683.48,343.26Z"/>
              <path class="cls-57" d="M663.52,342.15a1.26,1.26,0,0,0-.08-2.51h-.07s-6.92-.83-10.16,4.47a.23.23,0,0,0,.31.32C654.75,343.68,657.6,342.5,663.52,342.15Z"/>
              <g>
                <g>
                  <path class="cls-58" d="M659.73,367a11.13,11.13,0,0,0,.46,1.18c1,2.3,3.52,6.57,6.85,8.27a9.55,9.55,0,0,0,7.93.22c3.32-1.37,4.88-3.11,6.89-6.07.65-1,1.35-2.05,2.18-3.3,0,0,.19-.23-.11-.25a1.91,1.91,0,0,0-.51.06c-1.86.42-6.62,2.77-13.79,2.1-5.51-.52-8.47-1.85-9.55-2.45a.27.27,0,0,0-.34.1A.23.23,0,0,0,659.73,367Z"/>
                  <path class="cls-59" d="M660.19,368.13c1,2.3,3.52,6.57,6.85,8.27a9.55,9.55,0,0,0,7.93.22c3.32-1.37,4.88-3.11,6.89-6.07-2.29,2.28-6.09,5.24-10.56,5.34C665.18,376,661.29,370.07,660.19,368.13Z"/>
                  <path class="cls-60" d="M659.74,366.81a23.59,23.59,0,0,0,12.39,3.46,20.45,20.45,0,0,0,11.8-3.27,1.91,1.91,0,0,0-.51.06c-1.86.42-6.62,2.77-13.79,2.1-5.51-.52-8.48-1.85-9.55-2.44A.26.26,0,0,0,659.74,366.81Z"/>
                  <path class="cls-61" d="M681.16,368.27c-.14.05-8.08,4.3-18.52,0,0,0,1.37,3.54,7.76,4.15A11.88,11.88,0,0,0,681.16,368.27Z"/>
                  <path class="cls-62" d="M671.27,375.8c1.51,0,3.41-.33,4.18-1-1.27-1.36-3-.48-4.46-1-3-1-4.09,0-4.52.61A7.89,7.89,0,0,0,671.27,375.8Z"/>
                </g>
                <path class="cls-63" d="M683.6,366a3.42,3.42,0,0,0,1.4,1.79c-.77-.18-1.6-.94-1.4-1.79Z"/>
                <path class="cls-63" d="M660.4,365.8c.23.84-.58,1.62-1.34,1.83a3.43,3.43,0,0,0,1.34-1.83Z"/>
              </g>
              <path class="cls-63" d="M668.41,361.37c2.5,2.68,5.2,3,7.4-.2.82-1.21.85-1.2.21.13-1.9,3.65-5.56,3.43-7.61.07Z"/>
            </g>
            <path class="cls-64" d="M642.24,354.92,649.77,339c1-1.25,1.56-1.91,2.76-2.1,3.62-.59,11.35-1.69,14.3-.81l2.57-7.78s-.32,6.37-.56,8.11c0,0,12.07,1,15.69,1.7l1.91-6,.15,6.29,7.79,2.33,1-4.82-.08,5,3.87,2.7s-.38,5.6.41,7.08c0,0,1.34,4.59,1.17,7.39,0,0,3.53-.4,4.11-2l-5.25-16.06-3.75-9.22s-35.37-24.62-51.52,12.47Z"/>
            <path class="cls-53" d="M642.23,354.4s1.52-10.45,6.67-16.27a4.64,4.64,0,0,1,2.43-1.84c3.43-.63,11.35-1.94,14.86-1.39,0,0,1.67-7.25,4.26-10.56,0,0-.1,7.76-.34,9.79,0,0,13.06,1.44,14.08,1.62,0,0,2.34-7.41,3-7.74,0,0,.27,7.88.12,8.55a59.7,59.7,0,0,1,6.53,2s1.53-5.42,2.11-5.57c0,0-.07,6.67-.13,7,0,0,3.9,2.58,4.34,3.31,0,0-.42,5.83.15,7.65.1.33.2.67.27,1a23.6,23.6,0,0,1,.62,5.47,6.8,6.8,0,0,0,6.09-4.7s7.19-11.25.77-27a18.73,18.73,0,0,0-1.86-3.44c-4.24-6.22-20.41-26.13-47.06-14.6C659.16,307.78,630.11,319.67,642.23,354.4Z"/>
            <path class="cls-65" d="M640.06,345.17s3.42-17.52,25.14-25.46a27.55,27.55,0,0,1,24.88,2.8c7.35,4.84,15.21,14,18.17,31.47,0,0,1.56-38.64-30.41-43a28.66,28.66,0,0,0-18,3.51C651.38,319.27,639.64,328.84,640.06,345.17Z"/>
            <g>
              <g>
                <path class="cls-44" d="M641.09,347c-1.15-2.29-2.77-4.58-5.19-4.62s-3.94,1.92-4.16,5.74.27,5.92,2.75,8.67,3.78,4.14,7.18,2.66C642.94,355.41,641.61,348.46,641.09,347Z"/>
                <path class="cls-66" d="M639.41,359s1.56,5.53-1.64,5.85-1.23-5.19-1.23-5.19-.07,4.94,1.4,2.14Z"/>
              </g>
              <g>
                <path class="cls-44" d="M707.45,351c1.81-1.82,4.07-3.5,6.38-2.8s3.15,3,2.17,6.74-2.1,5.54-5.31,7.4-4.89,2.78-7.66.33C703.08,358.48,706.5,352.27,707.45,351Z"/>
                <path class="cls-66" d="M706,362.73s-3.2,4.77-.26,6.07,2.79-4.56,2.79-4.56-1.47,4.71-2,1.6Z"/>
              </g>
            </g>
            <path class="cls-45" d="M641.93,353.47a33.32,33.32,0,0,1,1.05,4.2l-1.43,2.14-.13-.82"/>
            <polyline class="cls-45" points="702.84 363.12 703.58 361.36 705.07 356.13 703.4 357.97"/>
            <path class="cls-67" d="M706.58,358.36s.42-1.08,1.34-1a1.41,1.41,0,0,1,1.13,1.87c-.2.56-.75,1.18-2.1,1.62,0,0,4.47-.62,3.09-3.64a2.65,2.65,0,0,0-2.48-.73s2.47-5,5.29-5.47C712.85,351,708.22,351.39,706.58,358.36Z"/>
            <path class="cls-67" d="M640.06,353.57s-.26-1.13-1.18-1.16a1.41,1.41,0,0,0-1.4,1.68c.12.59.57,1.29,1.84,1.91,0,0-4.33-1.26-2.52-4.05a2.67,2.67,0,0,1,2.56-.36s-1.71-5.31-4.43-6.18C634.93,345.41,639.46,346.43,640.06,353.57Z"/>
          </g>
        </g>
        <g>
          <path class="cls-68" d="M631.75,406.59c21.47,35.85,39,43.57,79.36,62.65l2.9-4.71c-34.79-24.74-44.76-28.74-74.13-63.08C637.06,402.43,634.48,404.41,631.75,406.59Z"/>
          <path class="cls-68" d="M635.24,444.87,714,464.29l-3,4.95-79.42-14.69Z"/>
          <path class="cls-69" d="M712,462.05l-5.09,6.54,5.09,7.6,4.55-7.55Z"/>
        </g>
        <g>
          <g>
            <g>
              <path class="cls-20" d="M433.27,506l15.5-107.88s1.94-19.93,26.85-23,50.14-2,64.21,2.79c11.15,3.84,15.84,6,20.18,26.28S567.27,506,567.27,506Z"/>
              <g class="cls-70">
                <ellipse class="cls-10" cx="502.21" cy="387.15" rx="30.26" ry="24.12"/>
              </g>
            </g>
            <g>
              <path class="cls-11" d="M388.26,548l45-42.09h134L538.83,548Z"/>
              <g class="cls-71">
                <path class="cls-13" d="M567.27,500.65,508.86,554.7H519l53-54.05Z"/>
              </g>
            </g>
            <path class="cls-14" d="M388.26,548v13.32H538.47l.36-13.32Z"/>
            <path class="cls-23" d="M541.8,402.71S555.45,435.24,551,485"/>
            <path class="cls-16" d="M465.23,402.19s-9.13,27.41-13.6,82.65a1.61,1.61,0,1,0,3.2.26c4.43-54.74,13.45-81.89,13.45-81.89a1.59,1.59,0,0,0-1-2A1.61,1.61,0,0,0,465.23,402.19Z"/>
            <path class="cls-17" d="M480.82,381.14a1.06,1.06,0,0,1,2,.76,11.37,11.37,0,0,0,1,9.58c2.08,3.18,6.47,6,15.22,7.11a1,1,0,0,1,.92,1.17,1.06,1.06,0,0,1-1.17.93c-9.68-1.17-14.44-4.54-16.74-8.05C478.5,387.17,480.82,381.14,480.82,381.14Zm0,0Z"/>
          </g>
          <g>
            <g>
              <path class="cls-20" d="M564.05,506l15.49-107.88s1.94-19.93,26.86-23,50.14-2,64.2,2.79c11.15,3.84,15.84,6,20.18,26.28S698,512.39,698,512.39Z"/>
              <g class="cls-72">
                <ellipse class="cls-10" cx="632.98" cy="387.15" rx="30.26" ry="24.12"/>
              </g>
            </g>
            <path class="cls-11" d="M519,548l45-42.09H698L669.61,548Z"/>
            <path class="cls-14" d="M519,561.36V548H669.61l23.51-38.9a11.48,11.48,0,0,0,1.63-6.9c-1.62-19.9-9.17-113-9.17-113s13.14,27.5,18.13,118a.12.12,0,0,1,0,.1L675.8,555.93a10.8,10.8,0,0,1-9.37,5.43Z"/>
            <path class="cls-16" d="M595,402.43s-10.61,61.21-12,82.44a1.61,1.61,0,1,0,3.21.21c1.4-21.14,12-82.1,12-82.1a1.6,1.6,0,0,0-1.31-1.86A1.62,1.62,0,0,0,595,402.43Z"/>
            <path class="cls-16" d="M670,403s6.25,31.4,4,81.89a1.61,1.61,0,1,0,3.21.13c2.25-51-4.08-82.65-4.08-82.65A1.61,1.61,0,0,0,670,403Z"/>
            <path class="cls-17" d="M609.93,381.25a1.06,1.06,0,0,1,2,.54,11.53,11.53,0,0,0,1.85,8.69c2.07,3.09,6.08,6.2,13.62,8.13a1.06,1.06,0,1,1-.53,2.05c-8.24-2.12-12.58-5.62-14.84-9A13.54,13.54,0,0,1,609.93,381.25Zm0,0Z"/>
          </g>
          <g>
            <path class="cls-14" d="M675.13,555.81l2.71,46.25,25-47.88-2.63-44.77Z"/>
            <rect class="cls-10" x="668.99" y="556.73" width="7.52" height="45.59" transform="translate(-32.82 40.43) rotate(-3.36)"/>
          </g>
        </g>
        <g>
          <g>
            <g>
              <path class="cls-73" d="M347.78,563.39,365.6,432.45s2.23-24.19,30.87-27.9,57.64-2.49,73.81,3.39c12.82,4.67,18.21,7.29,23.2,31.9s8.34,123.55,8.34,123.55Z"/>
              <g class="cls-74">
                <ellipse class="cls-10" cx="427.03" cy="419.19" rx="34.79" ry="29.28"/>
              </g>
            </g>
            <g>
              <path class="cls-11" d="M296,626.61l51.75-63.22h154l-32.68,63.22Z"/>
              <g class="cls-75">
                <path class="cls-13" d="M501.82,557l-67.14,65.61h11.69L507.28,557Z"/>
              </g>
            </g>
            <path class="cls-14" d="M296,614.47v16.17H468.72l.42-16.17Z"/>
            <path class="cls-76" d="M472.54,438.07s15.7,39.49,10.54,99.86"/>
            <path class="cls-16" d="M384.52,437.45S374,470.71,368.88,537.77a1.93,1.93,0,0,0,1.7,2.11,1.89,1.89,0,0,0,2-1.79c5.09-66.45,15.46-99.4,15.46-99.4a2,2,0,0,0-1.17-2.47A1.83,1.83,0,0,0,384.52,437.45Z"/>
            <path class="cls-17" d="M402.44,411.9a1.19,1.19,0,0,1,1.57-.73,1.3,1.3,0,0,1,.7,1.65s-2.22,6.1,1.21,11.63c2.38,3.85,7.44,7.35,17.49,8.63a1.26,1.26,0,0,1,1.06,1.42,1.23,1.23,0,0,1-1.35,1.12c-11.12-1.42-16.6-5.5-19.24-9.77C399.78,419.22,402.44,411.9,402.44,411.9Zm0,0Z"/>
          </g>
          <g>
            <g>
              <path class="cls-77" d="M498.13,563.39l17.81-130.94s2.23-24.19,30.87-27.9,57.65-2.49,73.81,3.39c12.82,4.67,18.21,7.29,23.2,31.9s8.35,131.36,8.35,131.36Z"/>
              <g class="cls-78">
                <ellipse class="cls-10" cx="577.37" cy="419.19" rx="34.79" ry="29.28"/>
              </g>
            </g>
            <path class="cls-11" d="M446.37,614.47l51.76-51.08h154l-32.69,51.08Z"/>
            <path class="cls-14" d="M446.37,630.64V614.47H619.48l27.49-48a11.51,11.51,0,0,0,1.49-6.62c-1.68-21.91-10.62-138.11-10.62-138.11S653,455.11,658.69,565a.18.18,0,0,1,0,.1L626.09,625a10.8,10.8,0,0,1-9.49,5.63Z"/>
            <path class="cls-16" d="M533.7,437.74S521.5,512,519.88,537.8a1.85,1.85,0,1,0,3.69.26c1.61-25.66,13.77-99.65,13.77-99.65a1.94,1.94,0,0,0-1.5-2.26A1.87,1.87,0,0,0,533.7,437.74Z"/>
            <path class="cls-16" d="M620,438.45s7.18,38.12,4.62,99.4a1.85,1.85,0,1,0,3.69.17c2.59-61.85-4.69-100.33-4.69-100.33a1.85,1.85,0,0,0-2.17-1.53A2,2,0,0,0,620,438.45Z"/>
            <path class="cls-17" d="M550.87,412a1.21,1.21,0,0,1,1.49-.9,1.29,1.29,0,0,1,.86,1.56,14.63,14.63,0,0,0,2.13,10.55c2.38,3.75,7,7.52,15.65,9.86a1.29,1.29,0,0,1,.87,1.57,1.22,1.22,0,0,1-1.48.92c-9.47-2.57-14.45-6.82-17.06-10.92A17.24,17.24,0,0,1,550.87,412Zm0,0Z"/>
          </g>
          <g>
            <path class="cls-14" d="M620,627.43,621.28,689l35.55-62.35-1.28-59.59Z"/>
            <rect class="cls-10" x="610.63" y="628.51" width="10" height="60.59" transform="translate(-14 13.37) rotate(-1.23)"/>
          </g>
        </g>
        <g>
          <g>
            <g>
              <path class="cls-20" d="M214.45,648.62l22.22-154.71s2.79-28.58,38.52-33,71.9-2.95,92.07,4c16,5.51,22.71,8.61,28.94,37.68s10.41,146,10.41,146Z"/>
              <g class="cls-79">
                <ellipse class="cls-10" cx="313.31" cy="478.25" rx="43.39" ry="34.59"/>
              </g>
            </g>
            <g>
              <path class="cls-11" d="M149.89,709l64.56-60.35H406.61L365.83,709Z"/>
              <g class="cls-80">
                <path class="cls-13" d="M406.61,641l-83.76,77.52h14.58l76-77.52Z"/>
              </g>
            </g>
            <path class="cls-14" d="M149.89,709v19.11H365.31l.52-19.11Z"/>
            <path class="cls-81" d="M370.08,500.56s19.58,46.65,13.14,118"/>
            <path class="cls-16" d="M260.28,499.82s-13.1,39.3-19.5,118.53a2.3,2.3,0,1,0,4.59.37c6.35-78.5,19.29-117.44,19.29-117.44a2.31,2.31,0,0,0-4.38-1.46Z"/>
            <path class="cls-17" d="M282.64,469.64a1.51,1.51,0,1,1,2.82,1.09s-2.76,7.2,1.51,13.73c3,4.55,9.28,8.68,21.83,10.2a1.51,1.51,0,1,1-.37,3c-13.87-1.68-20.71-6.5-24-11.54C279.31,478.28,282.63,469.64,282.64,469.64Zm0,0Z"/>
          </g>
          <g>
            <g>
              <path class="cls-20" d="M402,648.62l22.22-154.71s2.79-28.58,38.52-33,71.9-2.95,92.07,4c16,5.51,22.71,8.61,28.94,37.68s10.41,155.21,10.41,155.21Z"/>
              <g class="cls-82">
                <ellipse class="cls-10" cx="500.85" cy="478.25" rx="43.39" ry="34.59"/>
              </g>
            </g>
            <path class="cls-11" d="M337.43,709,402,648.62H594.15L553.37,709Z"/>
            <path class="cls-14" d="M337.43,728.08V709H553.37l34.56-57.16a11.54,11.54,0,0,0,1.63-6.91c-2-24.64-13.29-163.65-13.29-163.65s18.85,39.44,26,169.24a.15.15,0,0,1,0,.11l-41.36,72a10.77,10.77,0,0,1-9.37,5.43Z"/>
            <path class="cls-16" d="M446.37,500.16s-15.23,87.78-17.25,118.23a2.31,2.31,0,0,0,4.61.3c2-30.32,17.18-117.74,17.18-117.74a2.3,2.3,0,0,0-4.54-.79Z"/>
            <path class="cls-16" d="M554,501s9,45,5.76,117.44a2.31,2.31,0,0,0,4.61.2c3.23-73.08-5.85-118.54-5.85-118.54a2.3,2.3,0,0,0-4.52.9Z"/>
            <path class="cls-17" d="M467.79,469.79a1.51,1.51,0,0,1,2.92.78A16.52,16.52,0,0,0,473.37,483c3,4.43,8.73,8.89,19.53,11.66a1.51,1.51,0,1,1-.76,2.93c-11.82-3-18-8.06-21.29-12.9A19.45,19.45,0,0,1,467.79,469.79Zm0,0Z"/>
          </g>
          <g>
            <path class="cls-14" d="M556.66,721.58v65.75L596,721.58V657.93Z"/>
            <rect class="cls-10" x="545.98" y="722.62" width="10.67" height="64.7"/>
          </g>
        </g>
        <g>
          <ellipse class="cls-25" cx="589.94" cy="24.36" rx="16.1" ry="5.93" transform="translate(-0.45 16.48) rotate(-1.6)"/>
          <ellipse class="cls-26" cx="609.93" cy="733.43" rx="15.84" ry="5.78" transform="translate(-20.24 17.32) rotate(-1.6)"/>
          <g>
            <path class="cls-27" d="M601,23c-7.2-2.29-14.72-2.05-22.56.63l19.83,710c8.58,1.81,16,1.45,22.57-.63Z"/>
            <g class="cls-83">
              <rect class="cls-29" x="566.59" y="19.46" width="27.12" height="761.77" transform="translate(-10.95 16.35) rotate(-1.6)"/>
            </g>
          </g>
        </g>
        <g>
          <g>
            <path class="cls-43" d="M965.48,526.42a12.86,12.86,0,0,1,.9,8.52c-1.23,4.47-19.56,7.09-30.54,7.9-10.75.79-26.86,1-33.59-3.22a2.31,2.31,0,0,1-.81-.89,7.36,7.36,0,0,1,1-8.57C906.35,525.3,941.49,519.25,965.48,526.42Z"/>
            <g>
              <path class="cls-44" d="M1021.34,515.37s-14,7.24-34.9,4.49a32.46,32.46,0,0,1-10.32-11.2c-4.49-7.79-8-14.74-8-14.74a25,25,0,0,0,17.18-14.59L994.54,496s20.22,5.72,29.51,4.12"/>
              <g>
                <path class="cls-45" d="M995.56,496.19s-5.6-1.69-7.47,8.85"/>
                <path class="cls-46" d="M995.49,496.43c-4.71-.81-6.66,4.94-7.4,8.61.61-3.92,2.53-9.85,7.54-9.09l-.14.48Z"/>
              </g>
            </g>
            <path class="cls-47" d="M871.63,492.63s6.21,7.48,25.43,8.26c0,0-1,16.13,4.55,32,0,0,7.22,5,33.87,2.62,32-2.91,29.66-7.39,29.66-7.39s2.42-19.16,3.64-32.39c0,0,15.33-5,20.62-17.4,0,0-7.39-10-13.29-18.28a32.89,32.89,0,0,0-12.89-10.66c-8.24-3.82-21.42-9.13-34.06-10.8l-15.7,7.37s-21.07,3.92-25.83,11.21S871.63,492.63,871.63,492.63Z"/>
            <path class="cls-48" d="M968.45,498.6s1.45-8.19-.17-22.72"/>
            <g>
              <path class="cls-49" d="M950.38,447.29c-2.9,3.2-11.62,8.6-16.72,6.34-4-1.78-12.27-2.63-14.13-5.1a2.38,2.38,0,0,0,.46-.93,10.14,10.14,0,0,0,.37-2.54,36.66,36.66,0,0,0-.74-7.26,46.79,46.79,0,0,1,13.8-2.77c1-.06,2-.1,3-.11a37.73,37.73,0,0,1,12,1.6,47.58,47.58,0,0,0,.45,6.53,17.15,17.15,0,0,0,.59,2.52A4.22,4.22,0,0,0,950.38,447.29Z"/>
              <path class="cls-50" d="M948.9,444.05a78.81,78.81,0,0,1-28.62,1.85,9.36,9.36,0,0,0,.26-2.43,36.94,36.94,0,0,0-.35-7.34,44.67,44.67,0,0,1,13.45-2.75c1-.06,1.92-.1,2.9-.11a35.94,35.94,0,0,1,11.72,1.63,48.92,48.92,0,0,0,.46,6.52A23.29,23.29,0,0,0,948.9,444.05Z"/>
            </g>
            <path class="cls-44" d="M919,530s-22.47,7.13-45.64-.75c0,0-3.17-2.23-2.3-12.7a226.41,226.41,0,0,1,3.84-24.1s11.68,6.26,22.65,6.41l-2.85,11.57s11.92,3.78,22.91,4.34"/>
            <path class="cls-46" d="M895,510.91a10.55,10.55,0,0,0-12.06.14,10.84,10.84,0,0,1,12.35-.56l-.29.42Z"/>
            <path class="cls-47" d="M873.58,488.11l-2,4.52s6.2,7.39,25.43,8.26c0,0,3-9.35,3.31-15.76"/>
            <g>
              <path class="cls-51" d="M942.07,452c-1-.33-4.64-2.83-11.41.31s2.57,11.07,2.57,11.07l7.65-.56S950.56,454.82,942.07,452Z"/>
              <path class="cls-47" d="M944.62,435c.86.59,8.1,6.24,8.72,9.79s-.56,19.52-.56,19.52L937.8,451s5.1-1.93,7.28-8.71Z"/>
              <path class="cls-47" d="M932.68,451.68c.68.21-10.94,16.4-10.94,16.4a75.46,75.46,0,0,1-11.1-21.67l8.89-7.48S919.58,447.55,932.68,451.68Z"/>
              <g>
                <path class="cls-51" d="M926.7,504.64c.22.57.43,1.13.66,1.68h0c6.94,17.14,16.83,25.23,16.83,25.23a95.73,95.73,0,0,0,6.47-11.71c.89-2,1.57-3.69,2.08-5.17a24.25,24.25,0,0,0,1.52-6.51c-.26-2.17-.55-4.27-.87-6.28s-.6-3.69-.92-5.44c-1-5-2-9.36-3.1-13.2q-.82-2.91-1.67-5.41c-3.59-10.73-7-15.81-6.93-16.6.18-2.26-8.34-.85-8.34-.85a85.73,85.73,0,0,1-.43,11.36q-.19,1.92-.42,3.9c-.45,3.79-1,7.66-1.59,11.29-.21,1.27-.42,2.51-.62,3.71-.75,4.41-1.49,8.23-2,10.77C927,503.44,926.7,504.64,926.7,504.64Z"/>
                <path class="cls-52" d="M931.58,475.65a57.65,57.65,0,0,1,17.29,7.58c-.55-1.94-1.19-4-1.75-5.62A65.38,65.38,0,0,0,932,471.75Q931.81,473.67,931.58,475.65Z"/>
                <path class="cls-52" d="M929.83,490.92c6.39,2.29,17,6.52,23.08,11-.29-1.88-.66-4-1-5.79a83.73,83.73,0,0,0-21.48-9.06C930.24,488.33,930,489.73,929.83,490.92Z"/>
                <path class="cls-52" d="M927.21,504.61c.22.57.44,1.27.67,1.82h0c6.3,2.63,16.11,7.18,22.4,13.08.9-2,1.53-3.64,2-5.12a123.58,123.58,0,0,0-24.52-12.85C927.39,503.56,927.21,504.61,927.21,504.61Z"/>
              </g>
            </g>
            <g>
              <path class="cls-44" d="M913.33,517.3c9.86-16,14.48-16.58,14.48-16.58,10.2-.29,15.18,4.18,17.4,7s.26,3.54.26,3.54-1.87.59-6-2.39c0,0-1.86-1.78-7.42-1.64,0,0,11.93,8.34,6.92,15.91,0,0,.69,1.87-1,2.45a2.76,2.76,0,0,1-.87,3.17c-1.64,1.21-4.88-3.11-8.38-3.49l-3,.31a6.1,6.1,0,0,1-3.24,5.62c-3.52,1.81-7.64.38-9.81-1.83"/>
              <g>
                <path class="cls-45" d="M939,523.72A15,15,0,0,0,930.26,513"/>
                <path class="cls-46" d="M938.75,523.75a15.15,15.15,0,0,0-8.49-10.8,17.93,17.93,0,0,1,3.12,1.8,15,15,0,0,1,5.86,8.94l-.49.06Z"/>
              </g>
              <g>
                <path class="cls-45" d="M938.12,526.7s-.2-2.72-5.22-6.46c0,0-.79-.76-4.4-1.5"/>
                <path class="cls-46" d="M937.87,526.72c-.4-2-2-3.66-3.41-5.05a8.75,8.75,0,0,0-3.71-2.32c-.74-.24-1.49-.43-2.25-.61.76.15,1.53.31,2.28.52,2.18.52,3.84,2.12,5.39,3.7a8.14,8.14,0,0,1,2.2,3.73l-.5,0Z"/>
              </g>
            </g>
          </g>
          <g>
            <path class="cls-84" d="M893.21,370.74s-7.55,19.83-5.16,35.8-5.86,20.62,4.65,29.66,31.07,13,39.83,4.43c0,0,5.84,1.72,19.81-.4s24.51-8.57,20.62-21.76-2-30.67-2.6-41-13.59-22.52-40.92-15.2S893.21,370.74,893.21,370.74Z"/>
            <path class="cls-85" d="M895.68,411.06s2.76,5.72-.64,6.69-2.34-5.42-2.34-5.42.89,5.39,1.93,2.06Z"/>
            <path class="cls-85" d="M960.72,411.39s-2.76,5.73.64,6.7,2.34-5.42,2.34-5.42-.89,5.39-1.93,2.06Z"/>
            <path class="cls-84" d="M968,382.14c0,21.79-17.27,35.64-38.79,35.64s-39-17.66-39-39.45,11.28-40.26,39.64-40.26C959.61,338.07,968,360.35,968,382.14Z"/>
            <g>
              <path class="cls-86" d="M899.37,399.51c-1.55-2.08-3.56-4.08-6-3.69s-3.55,2.61-3.09,6.45,1.31,5.84,4.25,8.15,4.48,3.45,7.57,1.38C902.69,407.57,900.14,400.89,899.37,399.51Z"/>
              <path class="cls-87" d="M900.24,410.21a8.1,8.1,0,0,1-1-.57,3.84,3.84,0,0,1-1.41-1.71,3.57,3.57,0,0,1-.21-2.19,4.11,4.11,0,0,1,.45-1.16l.13-.21a.54.54,0,0,0-.07-.13c-.13-.26-.27-.52-.42-.77a15.38,15.38,0,0,0-1.5-2.07,4.86,4.86,0,0,0-2.05-1.6,1.66,1.66,0,0,0-1.33.15,1.13,1.13,0,0,0-.61,1.09,1.09,1.09,0,0,1,.7-.92,1.46,1.46,0,0,1,1.14,0,5.17,5.17,0,0,1,1.84,1.57,22.9,22.9,0,0,1,1.55,2c.18.25.36.52.52.79a3.51,3.51,0,0,0-.65,1.24,3.63,3.63,0,0,0,.13,2.41,3.81,3.81,0,0,0,1.62,1.81,6.41,6.41,0,0,0,1.1.5,1.78,1.78,0,0,0,1.18.12A1.9,1.9,0,0,1,900.24,410.21Zm-6.77-3.93a4.65,4.65,0,0,1-.45-2.4,20.31,20.31,0,0,1,.37-2.53,10.22,10.22,0,0,0-.67,2.51,4.43,4.43,0,0,0,.39,2.6,4.85,4.85,0,0,0,1.83,1.9,11.72,11.72,0,0,0,2.35,1.11c-.74-.44-1.5-.86-2.18-1.36A5.31,5.31,0,0,1,893.47,406.28Z"/>
            </g>
            <g>
              <path class="cls-86" d="M958.49,399.63c1.56-2.1,3.6-4.13,6-3.74s3.6,2.65,3.13,6.55-1.33,5.92-4.31,8.26-4.54,3.51-7.67,1.41C955.12,407.82,957.7,401,958.49,399.63Z"/>
              <path class="cls-87" d="M956.48,410.8a1.84,1.84,0,0,0,1.2-.12,7.32,7.32,0,0,0,1.1-.51,3.75,3.75,0,0,0,1.65-1.84,3.68,3.68,0,0,0,.13-2.45,3.42,3.42,0,0,0-.66-1.25c.17-.28.35-.54.53-.81a25.22,25.22,0,0,1,1.58-2,5.24,5.24,0,0,1,1.86-1.6,1.51,1.51,0,0,1,1.16,0,1.1,1.1,0,0,1,.71.93,1.12,1.12,0,0,0-.62-1.1,1.67,1.67,0,0,0-1.35-.16,4.93,4.93,0,0,0-2.08,1.62,15.92,15.92,0,0,0-1.52,2.11c-.15.25-.29.51-.43.77l-.07.14.13.21a3.86,3.86,0,0,1,.46,1.18,3.61,3.61,0,0,1-.22,2.22,3.8,3.8,0,0,1-1.42,1.73,9.33,9.33,0,0,1-1,.59A1.93,1.93,0,0,1,956.48,410.8Zm6.32-2.44a23.48,23.48,0,0,1-2.21,1.38,12.09,12.09,0,0,0,2.39-1.12,5,5,0,0,0,1.86-1.93,4.65,4.65,0,0,0,.4-2.64,10.37,10.37,0,0,0-.69-2.54,19,19,0,0,1,.37,2.56,4.82,4.82,0,0,1-.45,2.44A5.27,5.27,0,0,1,962.8,408.36Z"/>
            </g>
            <g>
              <path class="cls-88" d="M960.27,388.05c0,.27,2.78.56,2.75.84a180.11,180.11,0,0,1-4.09,22.83,17.91,17.91,0,0,1-2.12,4.89,20.19,20.19,0,0,1-5.83,5.9,68.75,68.75,0,0,1-10.39,5.59,50.49,50.49,0,0,1-5.26,2,20.24,20.24,0,0,1-5.73,1.1,22.55,22.55,0,0,1-6.46-1.19A84.64,84.64,0,0,1,910,424.28c-4.18-2.16-9.25-6.82-10.45-11.77a228.44,228.44,0,0,1-4.47-23.16c-.42-3.13,2.27-4.35,4.86-13.63,3.46-12.44,8.23-17.37,27.95-17.37C962.3,358.35,961.37,378.44,960.27,388.05Z"/>
              <path class="cls-89" d="M897.18,401.79s3.25-21,10.26-26.69,8-9.35,8-9.35,1.86,10.64,13.93,15.18l-.53-6.38a15.61,15.61,0,0,0,7.16,6.38l-1.16-8.05a125.77,125.77,0,0,1,18,8.67c8.73,5.21,8.36,22.39,8.36,22.39l-3.5-35.62L927.89,356l-19-.75L896,372.88l2,13.73Z"/>
            </g>
            <path class="cls-90" d="M924.56,405.17c2.67,1.52,4.78,2.26,7.84.75-.95,4.28-7.47,3.26-7.84-.75Z"/>
            <g>
              <path class="cls-89" d="M917.74,411.1c-.48-.19-1-1-1.48-1.24a3.55,3.55,0,0,0-1.46-.48c-.67-.07-1.48.17-1.61.78s.28.94.7,1.25a4.32,4.32,0,0,0,2.57.79,1.26,1.26,0,0,0,1.06-.4c.22-.31,0-.85-.43-.79Z"/>
              <path class="cls-89" d="M939.29,412.44c.31-.34.8-1.3,1.2-1.55a2.22,2.22,0,0,1,.86-.34,1.47,1.47,0,0,1,1.46.94,1.71,1.71,0,0,1-.37,1.65,3.29,3.29,0,0,1-1.57.95,2.43,2.43,0,0,1-1.25.12,1.1,1.1,0,0,1-.87-.78,1,1,0,0,1,.54-1,3.72,3.72,0,0,1,1.19-.4Z"/>
              <g>
                <path class="cls-91" d="M941.37,411.93a11.77,11.77,0,0,1-.54,1.22c-1.19,2.38-4,6.76-7.6,8.4a10.05,10.05,0,0,1-8.34-.15c-3.43-1.6-5-3.51-6.95-6.72-.64-1.05-1.32-2.23-2.13-3.59,0,0-.19-.25.13-.26a1.67,1.67,0,0,1,.53.09c1.93.53,6.82,3.23,14.39,2.87,5.82-.29,9-1.56,10.16-2.13a.27.27,0,0,1,.35.12A.26.26,0,0,1,941.37,411.93Z"/>
                <path class="cls-92" d="M940.83,413.15c-1.19,2.38-4,6.76-7.6,8.4a10.05,10.05,0,0,1-8.34-.15c-3.43-1.6-5-3.51-6.95-6.72,2.29,2.51,6.15,5.81,10.84,6.13C935.2,421.24,939.58,415.15,940.83,413.15Z"/>
                <path class="cls-93" d="M941.36,411.78a24.69,24.69,0,0,1-13.18,3.06,21.42,21.42,0,0,1-12.24-4,1.67,1.67,0,0,1,.53.09c1.93.53,6.82,3.23,14.39,2.87,5.82-.29,9-1.56,10.16-2.13A.25.25,0,0,1,941.36,411.78Z"/>
                <path class="cls-94" d="M918.78,412.3c.15.06,8.28,4.92,19.46.91,0,0-1.6,3.67-8.35,4A12.5,12.5,0,0,1,918.78,412.3Z"/>
                <path class="cls-62" d="M928.81,420.71c-1.59-.09-3.57-.51-4.35-1.21,1.41-1.37,3.22-.36,4.74-.8,3.2-.92,4.3.22,4.72.85A8.19,8.19,0,0,1,928.81,420.71Z"/>
              </g>
            </g>
            <path class="cls-95" d="M915.85,382.85s-6.26-1.06-9.26,3.09c-.12.16-.41.08-.39-.11.09-1.26.78-3.85,4.67-4.61C917,380,915.85,382.85,915.85,382.85Z"/>
            <path class="cls-95" d="M939.8,380.31s6.26-1.07,9.27,3.08a.21.21,0,0,0,.39-.11c-.1-1.26-.78-3.85-4.68-4.6C938.65,377.48,939.8,380.31,939.8,380.31Z"/>
            <path class="cls-84" d="M959.5,369.55c-3-15.56-8.16-13.18-22.1-16.1-6.35-1.33-6.37-5.92-12.84-5.28-3.67.36-13.52-1.4-22.11,13.23-5.42,9.22-14.28,17.26-10.59,28.24,3.38,10.47,5.32,12.15,5.32,12.15l.27-1.54c.08-1.17.19-2.34.24-3.52.87-22.14,10.8-22.44,18.62-35.65a39.43,39.43,0,0,0,7,4.8c4.49,2.62,9.13,4.87,13.82,7s9.46,4.05,14.1,6.4c11.87,6,9.38,22.47,9.38,22.47-.07-.41,1.43-2.29,1.63-2.63a40.92,40.92,0,0,0,3-5.89C968.8,384.81,961.26,378.83,959.5,369.55Z"/>
            <path class="cls-84" d="M927.89,365.13a20.1,20.1,0,0,0,0,13.06,28.15,28.15,0,0,1-11.95-19.57"/>
            <path class="cls-84" d="M924.56,363.75s.2,4.75,10.3,14.79c0,0-3.74-6.63-1.61-13.41"/>
            <path class="cls-96" d="M894.42,397.05c-2.6-6.55-4.26-13.82-3.8-20.94,1.61-8.95,5.21-17.85,12.2-24a39.65,39.65,0,0,1,27.57-9.8c11.57.44,23.68,5.38,30.37,15.25a45.38,45.38,0,0,1,5.49,13.76c.57,3.17,1.46,6.39,1.14,9.62a52.43,52.43,0,0,1-5.14,18.21,69.62,69.62,0,0,0-1.54-17.88,25.11,25.11,0,0,1-.54-4.23c-1-6.68-3-13.66-7.7-18.67-5.79-5.76-14.16-8.78-22.3-9.06-14-.58-27.37,8-31.13,21.73a31,31,0,0,0-1.33,6.17,90,90,0,0,0-3.29,19.83Z"/>
            <g>
              <g>
                <g>
                  <path class="cls-97" d="M966.58,367.43c-2.89,3.05-3.23,7.39-7.58,3.31s-2.66-12.92-2.66-12.92,8.76-2.2,13.11,1.89S969.47,364.39,966.58,367.43Z"/>
                  <path class="cls-97" d="M945.93,348c-2.89,3-7.23,3.64-2.87,7.72s13.11,1.89,13.11,1.89,1.69-8.82-2.66-12.91S948.82,345,945.93,348Z"/>
                </g>
                <ellipse class="cls-98" cx="952.12" cy="347.66" rx="0.91" ry="0.9"/>
                <ellipse class="cls-98" cx="953.79" cy="351.19" rx="0.91" ry="0.9"/>
                <ellipse class="cls-98" cx="948.39" cy="351.59" rx="0.91" ry="0.9"/>
                <path class="cls-98" d="M950.44,356a.91.91,0,0,1-1.28,0,.9.9,0,0,1,0-1.28.91.91,0,0,1,1.28,0A.9.9,0,0,1,950.44,356Z"/>
                <ellipse class="cls-98" cx="945.9" cy="354.21" rx="0.91" ry="0.9"/>
                <path class="cls-98" d="M955.48,353.3a.9.9,0,0,0,0,1.27.87.87,0,0,0,.68.24c0-.54,0-1.15,0-1.79A.91.91,0,0,0,955.48,353.3Z"/>
                <path class="cls-98" d="M955.37,349.48a.88.88,0,0,0,.44.22,12,12,0,0,0-.45-1.52l0,0A.91.91,0,0,0,955.37,349.48Z"/>
                <path class="cls-98" d="M946.63,357.38h0a13.09,13.09,0,0,0,1.53.36.81.81,0,0,0-.25-.41A.9.9,0,0,0,946.63,357.38Z"/>
                <path class="cls-98" d="M953,357.19a.91.91,0,0,0-1.28,0,.9.9,0,0,0-.23.73c.64,0,1.25-.07,1.8-.12A.93.93,0,0,0,953,357.19Z"/>
                <path class="cls-98" d="M948.9,347.11a.89.89,0,0,0-.78-1.5c-.24.36-.48.74-.75,1.13a.85.85,0,0,0,.25.41A.9.9,0,0,0,948.9,347.11Z"/>
                <path class="cls-98" d="M950.1,344.53a.91.91,0,0,0,1.28,0,.87.87,0,0,0,.24-.69,1.87,1.87,0,0,0-1.78-.1A.9.9,0,0,0,950.1,344.53Z"/>
                <path class="cls-98" d="M943.89,351.08a.9.9,0,0,0,1.28,0,.89.89,0,0,0,0-1.27.81.81,0,0,0-.43-.22c-.37.29-.74.55-1.09.81A.87.87,0,0,0,943.89,351.08Z"/>
                <path class="cls-98" d="M942.68,353.67a.9.9,0,0,0,0-1.28.88.88,0,0,0-.84-.21A1.88,1.88,0,0,0,942,354,.92.92,0,0,0,942.68,353.67Z"/>
                <ellipse class="cls-98" cx="966.6" cy="361.26" rx="0.91" ry="0.9"/>
                <ellipse class="cls-98" cx="962.72" cy="360.1" rx="0.91" ry="0.9"/>
                <ellipse class="cls-98" cx="962.87" cy="365.19" rx="0.91" ry="0.9"/>
                <path class="cls-98" d="M958.34,363.41a.89.89,0,0,0,0,1.27.91.91,0,0,0,1.28,0,.9.9,0,0,0,0-1.28A.91.91,0,0,0,958.34,363.41Z"/>
                <ellipse class="cls-98" cx="960.39" cy="367.81" rx="0.91" ry="0.9"/>
                <path class="cls-98" d="M960.75,358.24a.91.91,0,0,1-1.28,0,.9.9,0,0,1-.28-.66c.54-.06,1.15-.11,1.79-.12A.9.9,0,0,1,960.75,358.24Z"/>
                <path class="cls-98" d="M964.59,358.13a.86.86,0,0,1-.25-.43,12,12,0,0,1,1.55.37l0,0A.9.9,0,0,1,964.59,358.13Z"/>
                <path class="cls-98" d="M957.17,367.27h0a11.38,11.38,0,0,1-.45-1.51,1,1,0,0,1,.42.22A.9.9,0,0,1,957.17,367.27Z"/>
                <path class="cls-98" d="M957,360.9a.89.89,0,0,1,0,1.27.87.87,0,0,1-.72.28c0-.64,0-1.25,0-1.79A.83.83,0,0,1,957,360.9Z"/>
                <path class="cls-98" d="M967.33,364.42a.91.91,0,0,1,1.28,0,.87.87,0,0,1,.28.72c-.35.25-.72.52-1.09.81a.89.89,0,0,1-.43-.22A.91.91,0,0,1,967.33,364.42Z"/>
                <path class="cls-98" d="M969.85,363.08a.9.9,0,0,1,0-1.28.93.93,0,0,1,.68-.28,1.85,1.85,0,0,1,.2,1.77A.9.9,0,0,1,969.85,363.08Z"/>
                <path class="cls-98" d="M963.64,369.63a.9.9,0,1,1,1.24-1.31.83.83,0,0,1,.25.42c-.26.38-.51.76-.74,1.12A.91.91,0,0,1,963.64,369.63Z"/>
                <path class="cls-98" d="M961.12,371a.9.9,0,0,1,1.28,0,.92.92,0,0,1,.27.82,1.89,1.89,0,0,1-1.79-.11A.85.85,0,0,1,961.12,371Z"/>
              </g>
              <g>
                <g>
                  <g>
                    <path class="cls-99" d="M950.53,349.89c-1.38.92,3.35,5,3.35,5S951.91,349,950.53,349.89Z"/>
                    <path class="cls-99" d="M948.88,353.54c-.51,1,4.44,2.3,4.44,2.3S949.4,352.56,948.88,353.54Z"/>
                  </g>
                  <g>
                    <path class="cls-99" d="M964.45,363c-.84,1.43-5.21-3-5.21-3S965.29,361.54,964.45,363Z"/>
                    <path class="cls-99" d="M960.89,364.81c-1,.57-2.57-4.27-2.57-4.27S961.84,364.24,960.89,364.81Z"/>
                  </g>
                </g>
                <path class="cls-100" d="M953.52,356.67a1.6,1.6,0,0,0,.07,2.27l1.61,1.51a1.6,1.6,0,0,0,2.27-.07l1.52-1.6a1.6,1.6,0,0,0-.06-2.26L957.32,355a1.63,1.63,0,0,0-2.28.07Z"/>
              </g>
            </g>
            <g>
              <ellipse class="cls-101" cx="915.28" cy="394.05" rx="5.96" ry="6.28"/>
              <ellipse class="cls-95" cx="915.2" cy="393.98" rx="3.99" ry="4.2"/>
              <ellipse class="cls-3" cx="913.33" cy="390.6" rx="1.09" ry="1.15"/>
            </g>
            <g>
              <ellipse class="cls-101" cx="941.01" cy="394.05" rx="6.28" ry="5.96" transform="translate(456.01 1291.57) rotate(-84.34)"/>
              <ellipse class="cls-95" cx="940.93" cy="393.97" rx="4.2" ry="3.99" transform="translate(456.01 1291.43) rotate(-84.34)"/>
              <ellipse class="cls-3" cx="939.38" cy="390.44" rx="1.15" ry="1.09" transform="translate(458.13 1286.7) rotate(-84.34)"/>
            </g>
          </g>
        </g>
        <g>
          <path class="cls-68" d="M981.83,468.8c-23.73,39.17-43.14,47.6-87.69,68.45l-3.21-5.15c38.44-27,49.45-31.39,81.91-68.91C976,464.27,978.81,466.42,981.83,468.8Z"/>
          <path class="cls-68" d="M978,510.63l-87,21.22,3.35,5.4,87.75-16Z"/>
          <path class="cls-69" d="M893.5,528.73l5.79,7.41-5.79,8.61-5-8.58Z"/>
        </g>
        <g>
          <g>
            <g>
              <path class="cls-73" d="M1215.52,560.22l-17.81-130.94s-2.23-24.19-30.88-27.9-57.64-2.49-73.81,3.39c-12.82,4.66-18.21,7.29-23.19,31.9s-8.35,123.55-8.35,123.55Z"/>
              <g class="cls-102">
                <ellipse class="cls-10" cx="1136.28" cy="416.02" rx="34.79" ry="29.28"/>
              </g>
            </g>
            <g>
              <path class="cls-11" d="M1267.28,611.3l-51.76-51.08h-154l32.69,51.08Z"/>
              <g class="cls-103">
                <path class="cls-13" d="M1061.48,553.78l67.15,65.61h-11.7L1056,553.78Z"/>
              </g>
            </g>
            <path class="cls-14" d="M1267.28,611.3v16.17H1094.59l-.42-16.17Z"/>
            <path class="cls-76" d="M1090.76,434.9s-15.69,39.49-10.53,99.86"/>
            <path class="cls-16" d="M1178.78,434.28s10.51,33.26,15.64,100.32a1.93,1.93,0,0,1-1.69,2.11,1.89,1.89,0,0,1-2-1.8c-5.09-66.44-15.47-99.39-15.47-99.39a2,2,0,0,1,1.17-2.47A1.83,1.83,0,0,1,1178.78,434.28Z"/>
            <path class="cls-17" d="M1160.86,408.73a1.2,1.2,0,0,0-1.57-.74,1.32,1.32,0,0,0-.69,1.66s2.21,6.1-1.21,11.63c-2.39,3.85-7.44,7.35-17.5,8.63a1.27,1.27,0,0,0-1.06,1.42,1.23,1.23,0,0,0,1.35,1.12c11.12-1.42,16.61-5.5,19.24-9.77C1163.53,416.05,1160.86,408.73,1160.86,408.73Zm0,0Z"/>
          </g>
          <g>
            <g>
              <path class="cls-77" d="M1065.18,560.22l-17.81-130.94s-2.23-24.19-30.88-27.9-57.64-2.49-73.81,3.39c-12.82,4.66-18.21,7.29-23.2,31.9S911.14,568,911.14,568Z"/>
              <g class="cls-104">
                <ellipse class="cls-10" cx="985.93" cy="416.02" rx="34.79" ry="29.28"/>
              </g>
            </g>
            <path class="cls-11" d="M1116.93,611.3l-51.75-51.08h-154l32.69,51.08Z"/>
            <path class="cls-14" d="M1116.93,627.47V611.3H943.82l-27.48-48a11.6,11.6,0,0,1-1.5-6.62c1.69-21.91,10.63-138.12,10.63-138.12s-15.11,33.38-20.86,143.24a.19.19,0,0,0,0,.1c.88,1.63,24.09,44.33,32.58,59.94a10.8,10.8,0,0,0,9.49,5.63Z"/>
            <path class="cls-16" d="M1029.6,434.57s12.21,74.29,13.83,100.06a1.93,1.93,0,0,1-1.72,2.08,1.9,1.9,0,0,1-2-1.82c-1.61-25.66-13.78-99.65-13.78-99.65a1.94,1.94,0,0,1,1.51-2.26A1.86,1.86,0,0,1,1029.6,434.57Z"/>
            <path class="cls-16" d="M943.33,435.28s-7.19,38.12-4.62,99.4a1.92,1.92,0,0,1-1.76,2,1.89,1.89,0,0,1-1.93-1.87c-2.59-61.84,4.68-100.32,4.68-100.32a1.86,1.86,0,0,1,2.18-1.53A2,2,0,0,1,943.33,435.28Z"/>
            <path class="cls-17" d="M1012.44,408.86a1.21,1.21,0,0,0-1.49-.9,1.28,1.28,0,0,0-.86,1.56,14.69,14.69,0,0,1-2.13,10.55c-2.38,3.74-7,7.52-15.65,9.86a1.3,1.3,0,0,0-.88,1.57,1.22,1.22,0,0,0,1.48.92c9.48-2.57,14.46-6.82,17.07-10.92A17.29,17.29,0,0,0,1012.44,408.86Zm0,0Z"/>
          </g>
          <g>
            <path class="cls-14" d="M943.35,624.26,942,685.81l-35.55-62.35,1.27-59.58Z"/>
            <rect class="cls-10" x="917.38" y="650.63" width="60.59" height="10" transform="translate(271.85 1589.01) rotate(-88.77)"/>
          </g>
        </g>
        <g>
          <g>
            <g>
              <path class="cls-20" d="M1348.85,645.44l-22.22-154.7s-2.78-28.58-38.51-33-71.91-2.94-92.07,4c-16,5.51-22.72,8.61-28.94,37.68s-10.41,146-10.41,146Z"/>
              <g class="cls-105">
                <ellipse class="cls-10" cx="1250" cy="475.08" rx="43.39" ry="34.59"/>
              </g>
            </g>
            <g>
              <path class="cls-11" d="M1403.83,705.8l-55-60.36H1156.7l40.78,60.36Z"/>
              <g class="cls-106">
                <path class="cls-13" d="M1156.7,637.84l83.76,77.52h-14.59l-76-77.52Z"/>
              </g>
            </g>
            <path class="cls-14" d="M1403.83,705.8v19.11H1198l-.5-19.11Z"/>
            <path class="cls-81" d="M1193.22,497.39s-19.58,46.65-13.14,118"/>
            <path class="cls-16" d="M1303,496.65s13.1,39.3,19.51,118.53a2.31,2.31,0,1,1-4.6.37c-6.34-78.5-19.29-117.44-19.29-117.44a2.31,2.31,0,0,1,4.38-1.46Z"/>
            <path class="cls-17" d="M1280.67,466.47a1.52,1.52,0,1,0-2.83,1.09s2.77,7.19-1.5,13.73c-3,4.55-9.28,8.68-21.83,10.2a1.51,1.51,0,0,0,.36,3c13.87-1.68,20.71-6.5,24-11.54C1284,475.11,1280.67,466.47,1280.67,466.47Zm0,0Z"/>
          </g>
          <g>
            <g>
              <path class="cls-20" d="M1161.31,645.44l-22.22-154.7s-2.78-28.58-38.51-33-71.91-2.94-92.07,4c-16,5.51-22.72,8.61-28.94,37.68s-10.41,155.21-10.41,155.21Z"/>
              <g class="cls-107">
                <ellipse class="cls-10" cx="1062.46" cy="475.08" rx="43.39" ry="34.59"/>
              </g>
            </g>
            <path class="cls-11" d="M1225.87,705.8l-64.56-60.36H969.16l40.78,60.36Z"/>
            <path class="cls-14" d="M1225.87,724.91V705.8H1009.93l-34.56-57.16a11.54,11.54,0,0,1-1.62-6.91L987,478.08s-18.84,39.44-26,169.24a.26.26,0,0,0,0,.11l41.35,72.05a10.8,10.8,0,0,0,9.37,5.43Z"/>
            <path class="cls-16" d="M1116.93,497s15.23,87.78,17.25,118.23a2.3,2.3,0,1,1-4.6.3c-2-30.32-17.19-117.74-17.19-117.74a2.3,2.3,0,0,1,4.54-.79Z"/>
            <path class="cls-16" d="M1009.32,497.83s-9,45-5.77,117.44a2.3,2.3,0,1,1-4.6.2c-3.24-73.08,5.84-118.54,5.84-118.54a2.31,2.31,0,0,1,4.53.9Z"/>
            <path class="cls-17" d="M1095.52,466.62a1.52,1.52,0,0,0-2.93.78,16.54,16.54,0,0,1-2.65,12.46c-3,4.43-8.73,8.89-19.53,11.66a1.51,1.51,0,0,0,.75,2.93c11.83-3,18-8.06,21.29-12.9A19.48,19.48,0,0,0,1095.52,466.62Zm0,0Z"/>
          </g>
          <g>
            <path class="cls-14" d="M1006.65,718.41v65.75l-39.39-65.75V654.76Z"/>
            <rect class="cls-10" x="1006.65" y="719.45" width="10.67" height="64.7"/>
          </g>
        </g>
        <g>
          <ellipse class="cls-25" cx="933.67" cy="23.76" rx="11.39" ry="5.76"/>
          <ellipse class="cls-26" cx="933.8" cy="712" rx="11.21" ry="5.61"/>
          <g>
            <path class="cls-27" d="M941.51,22.77c-5-2.41-10.37-2.38-16,0v689.1c6,2,11.31,1.84,16,0Z"/>
            <g class="cls-108">
              <rect class="cls-29" x="939.04" y="23.4" width="19.19" height="739.1"/>
            </g>
          </g>
        </g>
        <ellipse class="cls-109" cx="331.16" cy="669.82" rx="54.3" ry="14.57"/>
        <ellipse class="cls-109" cx="1078.91" cy="660.47" rx="61.48" ry="15.79"/>
        <g>
          <g>
            <path class="cls-34" d="M367.28,549.46l-52.62-4.13c-25.67,24.24-32.59,59.52-32.38,99a26.65,26.65,0,0,0,24.56,26.45l48.91,3.84a26.65,26.65,0,0,0,28.53-23.22C389,614.32,387.81,579,367.28,549.46Z"/>
            <g class="cls-110">
              <g>
                <path class="cls-111" d="M315.29,537.3l-3,37.64a23,23,0,0,0,21.12,24.72l6.84.54A23,23,0,0,0,365,579.08l3.33-42.4Z"/>
                <rect class="cls-112" x="317.6" y="607.45" width="25.98" height="120.36" transform="translate(-360.88 944.93) rotate(-85.51)"/>
              </g>
            </g>
          </g>
          <path class="cls-113" d="M344.53,547.68l-7.32-.58-4.84,61.66a3.65,3.65,0,0,0,.86,2.67,3.72,3.72,0,0,0,2.51,1.28h0a3.68,3.68,0,0,0,3.95-3.38Z"/>
          <path class="cls-114" d="M344.6,588.23a1.35,1.35,0,0,0-1.24-1.45l-10.85-.85a1.35,1.35,0,0,0-1.45,1.24l-1,12.23a1.35,1.35,0,0,0,1.24,1.45l10.85.85a1.35,1.35,0,0,0,1.45-1.24Zm-11.71,10,8.17.64.75-9.55-8.17-.64Z"/>
          <path class="cls-114" d="M336,593.71l-.48,6.12a1.34,1.34,0,0,0,2.68.21l.48-6.12a1.34,1.34,0,1,0-2.68-.21Z"/>
          <path class="cls-111" d="M375.35,629.19a8.32,8.32,0,0,0-7.65-9l-63.51-5a8.32,8.32,0,0,0-8.95,7.65L294.06,638a8.32,8.32,0,0,0,7.64,9l63.51,5a8.32,8.32,0,0,0,9-7.65Z"/>
          <path class="cls-114" d="M303.83,615.89a7.25,7.25,0,0,0-6,3,13.14,13.14,0,0,0-2.16,6.74v.67l-1.35,0v-.67a14.79,14.79,0,0,1,2.42-7.52,8.55,8.55,0,0,1,7.06-3.55h.07l63.44,5h.07a13.3,13.3,0,0,1,6.84,3.81,7.57,7.57,0,0,1,1.83,5v.06l-.33,4.21-1.34-.11.33-4.18a6.47,6.47,0,0,0-2.33-5,12.49,12.49,0,0,0-5.22-2.53Z"/>
          <path class="cls-113" d="M327.14,546.24s20.92-50.23,29.37,2.31l-5.93-.47s-3.71-34.75-17.21-1.35Z"/>
          <path class="cls-115" d="M360.9,578.67,363,551.21a.34.34,0,0,1,.36-.31.32.32,0,0,1,.31.36l-2.08,27.47h0a20.52,20.52,0,0,1-5.41,10.9,22.17,22.17,0,0,1-10.55,6,.33.33,0,0,1-.41-.23.35.35,0,0,1,.24-.42,21.47,21.47,0,0,0,10.23-5.86A19.91,19.91,0,0,0,360.9,578.67Z"/>
          <path class="cls-115" d="M317,575.73a19.77,19.77,0,0,0,3.58,11.17,21.46,21.46,0,0,0,9.22,7.34.35.35,0,0,1,.18.45.35.35,0,0,1-.45.17,22.08,22.08,0,0,1-9.5-7.58,20.44,20.44,0,0,1-3.7-11.59h0l2.09-27.46a.33.33,0,0,1,.36-.31.33.33,0,0,1,.31.36Z"/>
        </g>
        <g>
          <path class="cls-111" d="M1065.24,519.83c10.69-33.75,25.53-52.44,34-2.59h-9.72s-2.83-45.32-12.46,0Z"/>
          <g>
            <path class="cls-116" d="M1136.21,564.66a55.6,55.6,0,0,0-55.4-50.86h0a55.25,55.25,0,0,0-55,50c-1.91,19.94-4.09,42.58-5.89,61.36a36.15,36.15,0,0,0,36,39.6h49.49a36.15,36.15,0,0,0,36-39.23Z"/>
            <g class="cls-117">
              <g>
                <path class="cls-118" d="M1018.39,603.73l16.64,2,96.76-2,11-3.84,11.72,64.83-85.74,9.1s-56.19-6.48-56.91-9.1,0-51.12,0-51.12Z"/>
                <path class="cls-111" d="M1130.47,609.89l12.3-6.16v6.16l-12.3,5.15Z"/>
                <path class="cls-111" d="M1018.39,607.66l16.17,2.67v6.57l-16.17-4.46Z"/>
              </g>
            </g>
          </g>
          <path class="cls-119" d="M1031.41,652.93c1.26-14.22,2.28-28.36,3.8-42.46,1-9.37,2.24-18.73,3.93-28.09,1-5.59,1.9-11.29,3.36-16.81a58.43,58.43,0,0,1,3.84-10.63,56.13,56.13,0,0,1,6.25-10.13,39.33,39.33,0,0,1,8.55-8.14c7.29-5,18-8,28.26-7.74s20.13,3.86,25.42,12.28a50.1,50.1,0,0,1,4.86,10.57,149,149,0,0,1,4.31,17.16,368.73,368.73,0,0,1,6.08,44.23c1.32,16.47,1.66,32.6.64,44.64a.4.4,0,0,0,.36.43.39.39,0,0,0,.43-.36c1.15-12.07,1-28.27-.18-44.81a368.23,368.23,0,0,0-5.71-44.47,148.51,148.51,0,0,0-4.24-17.39,51.54,51.54,0,0,0-5-11c-5.59-9-16-13-26.94-13.26-10.66-.3-21.81,2.9-29.39,8.15a40.67,40.67,0,0,0-8.91,8.56,57.74,57.74,0,0,0-6.39,10.5,59.58,59.58,0,0,0-3.87,11c-1.43,5.57-2.28,11.32-3.24,17-1.59,9.41-2.73,18.81-3.64,28.23-1.37,14.12-2.22,28.28-3.31,42.52a.36.36,0,0,0,.71.06Z"/>
          <g>
            <rect class="cls-120" x="1040.62" y="610.17" width="84.76" height="9.75"/>
            <g class="cls-121">
              <path class="cls-122" d="M1044,616h81.35a1,1,0,0,0,0-2H1044a1,1,0,1,0,0,2Z"/>
            </g>
          </g>
          <path class="cls-123" d="M1044,599.89s5.72-34.6,11.16-47.14c9.26-21.32,38.59-29.27,53.2-3.72,8.49,14.85,11.53,50.86,11.53,50.86Z"/>
          <path class="cls-122" d="M1050.28,618.16a3.12,3.12,0,0,0-3.12-3.12h0a3.12,3.12,0,0,0-3.12,3.12v6a3.12,3.12,0,0,0,3.12,3.12h0a3.12,3.12,0,0,0,3.12-3.12Z"/>
        </g>
      </g>
    </g>
  </g>
</svg>
