<?xml version="1.0" encoding="UTF-8"?><svg xmlns="http://www.w3.org/2000/svg" xmlns:xlink="http://www.w3.org/1999/xlink" viewBox="0 0 42.48 42.59"><defs><style>.d{isolation:isolate;}.e{fill:url(#b);}.f{fill:#f28f2a;}.g{fill:url(#c);mix-blend-mode:screen;opacity:.55;}.h{fill:#603b17;}</style><linearGradient id="b" x1="522.08" y1="304.93" x2="538.71" y2="340.28" gradientTransform="translate(-447.33 -380.82) rotate(9.54)" gradientUnits="userSpaceOnUse"><stop offset="0" stop-color="#fee200"/><stop offset=".21" stop-color="#fddc02"/><stop offset=".47" stop-color="#fccc09"/><stop offset=".76" stop-color="#fab214"/><stop offset="1" stop-color="#f89821"/></linearGradient><linearGradient id="c" x1="523.32" y1="301.3" x2="524.59" y2="322.44" gradientTransform="translate(-447.33 -380.82) rotate(9.54)" gradientUnits="userSpaceOnUse"><stop offset="0" stop-color="#fff"/><stop offset=".11" stop-color="#fff" stop-opacity=".98"/><stop offset=".24" stop-color="#fff" stop-opacity=".93"/><stop offset=".37" stop-color="#fff" stop-opacity=".84"/><stop offset=".5" stop-color="#fff" stop-opacity=".72"/><stop offset=".64" stop-color="#fff" stop-opacity=".57"/><stop offset=".77" stop-color="#fff" stop-opacity=".38"/><stop offset=".91" stop-color="#fff" stop-opacity=".16"/><stop offset="1" stop-color="#fff" stop-opacity="0"/></linearGradient></defs><g class="d"><g id="a"><g><g><path class="e" d="M25.8,1.99l4.15,10.66,10.58,4.35c1.75,.72,2.09,3.04,.63,4.23l-8.85,7.24-.87,11.41c-.14,1.88-2.25,2.93-3.83,1.91l-9.63-6.18-11.12,2.7c-1.83,.44-3.48-1.23-3-3.06l2.91-11.07L.77,14.44c-.99-1.61,.1-3.69,1.98-3.8l11.42-.66L21.58,1.28c1.22-1.44,3.54-1.05,4.22,.71Z"/><path class="g" d="M9.8,24.35c9.68,1.63,18.94-2.47,24.08-9.75l-4.72-1.94-3.88-9.97c-.64-1.64-2.11-1.84-3.25-.5l-7.45,8.76-11.22,.57c-1.76,.1-2.41,1.31-1.48,2.81l5.61,9.11-.1,.37c.79,.21,1.59,.39,2.41,.53Z"/><circle class="f" cx="10.97" cy="23.16" r="2.48"/><circle class="f" cx="28.49" cy="26.11" r="2.48"/></g><g><g><circle class="h" cx="16.51" cy="19.78" r="1.78"/><circle class="h" cx="24.54" cy="21.13" r="1.78"/></g><path class="h" d="M18.83,30.53c-3.82-.64-6.41-4.28-5.77-8.1l1.54,.26c-.5,2.98,1.51,5.8,4.49,6.3,2.98,.5,5.8-1.51,6.3-4.49l1.54,.26c-.64,3.82-4.28,6.41-8.1,5.77Z"/></g></g></g></g></svg>