<svg xmlns="http://www.w3.org/2000/svg" xmlns:xlink="http://www.w3.org/1999/xlink" viewBox="0 0 1920 900"><defs><style>.cls-1{fill:none;}.cls-2{isolation:isolate;}.cls-3{clip-path:url(#clip-path);}.cls-4{clip-path:url(#clip-path-2);}.cls-5{fill:url(#linear-gradient);}.cls-6{fill:url(#linear-gradient-2);}.cls-7{fill:url(#linear-gradient-3);}.cls-8{fill:url(#linear-gradient-4);}.cls-9{fill:#aa895b;}.cls-10{fill:#d18c5e;}.cls-11{fill:#c19867;}.cls-12{opacity:0.6;}.cls-13{fill:#7a5d2a;}.cls-14{fill:#8c5b48;}.cls-15{opacity:0.41;}.cls-16{fill:#666;}.cls-17{fill:#e6e6e6;}.cls-18{fill:#1a1a1a;}.cls-19{fill:#70b644;}.cls-20{fill:#579943;}.cls-21{fill:#cea852;}.cls-22{fill:#87c444;}.cls-23{fill:#cd8751;}.cls-24{clip-path:url(#clip-path-3);}.cls-25{fill:#f8e2b9;}.cls-26{fill:#c4b7a3;}.cls-27{fill:#80ddda;}.cls-28{fill:#a39889;}.cls-29{fill:#cdaa6a;}.cls-30{fill:#f0b081;}.cls-31{fill:#794d3b;}.cls-32{fill:#5c3829;}.cls-33{fill:#fbfeb7;}.cls-33,.cls-34,.cls-35{fill-rule:evenodd;}.cls-34{fill:#ffa745;}.cls-35{fill:#d46255;}.cls-36{font-size:57.01px;fill:#8c06f4;}.cls-36,.cls-37,.cls-38,.cls-39,.cls-42,.cls-43,.cls-44,.cls-46{stroke:#f9f9f9;}.cls-36,.cls-37,.cls-38,.cls-39,.cls-42,.cls-43,.cls-44,.cls-45,.cls-46{stroke-miterlimit:10;font-family:CoopHeavy;}.cls-37,.cls-39{font-size:59.01px;}.cls-37{fill:#fc4006;}.cls-38{font-size:57.97px;fill:#1a4ee2;}.cls-39{fill:#f92b5c;}.cls-40,.cls-68{fill:#fff;}.cls-41{fill:#1c51f9;}.cls-42{font-size:89.5px;fill:#14f4ee;}.cls-43{font-size:74.72px;fill:#069cf9;}.cls-44{font-size:76.07px;fill:#fc425d;}.cls-45{font-size:73.49px;fill:#3865f4;stroke:#f9f7f8;}.cls-46{font-size:68.62px;fill:#00b2ad;}.cls-47{fill:#f3b98a;}.cls-48{fill:#2a9150;}.cls-49{fill:#1e0e00;opacity:0.15;}.cls-50{fill:#9f7757;}.cls-51{fill:#9b8174;opacity:0.4;}.cls-51,.cls-75{mix-blend-mode:multiply;}.cls-52{fill:url(#Áåçûìÿííûé_ãðàäèåíò_149);}.cls-53{fill:url(#linear-gradient-5);}.cls-54{fill:#edb985;}.cls-55{fill:url(#linear-gradient-6);}.cls-56{fill:#6d3504;}.cls-57{fill:#b17839;}.cls-58,.cls-63{mix-blend-mode:screen;opacity:0.1;}.cls-58{fill:url(#linear-gradient-7);}.cls-59{fill:url(#Áåçûìÿííûé_ãðàäèåíò_149-2);}.cls-60{fill:url(#linear-gradient-9);}.cls-61{fill:#d8bb9c;}.cls-62{fill:url(#linear-gradient-10);}.cls-63{fill:url(#linear-gradient-11);}.cls-64{fill:url(#Áåçûìÿííûé_ãðàäèåíò_149-3);}.cls-65{mix-blend-mode:lighten;fill:url(#_åðíî-áåëûé);}.cls-65,.cls-67,.cls-68{opacity:0.2;}.cls-66{fill:#bc8158;}.cls-67{fill:#432918;}.cls-69{fill:#89573b;}.cls-70{fill:url(#linear-gradient-12);}.cls-71{fill:#9e6946;}.cls-72{fill:#ab6a35;}.cls-73,.cls-75{fill:#c17931;}.cls-74{fill:#e8ae79;}.cls-75{opacity:0.5;}.cls-76{fill:#d08b4a;}.cls-77{fill:#e8a264;}.cls-78{fill:#745a5d;}.cls-79{fill:#c6c6c6;}.cls-80{fill:#227376;}.cls-81{clip-path:url(#clip-path-4);}.cls-82{fill:url(#linear-gradient-13);}.cls-83{opacity:0.22;}</style><clipPath id="clip-path"><rect class="cls-1" x="-2064" y="-37" width="1920" height="900"/></clipPath><clipPath id="clip-path-2"><rect class="cls-1" x="-2075" y="-62.35" width="1931" height="981.6"/></clipPath><linearGradient id="linear-gradient" x1="7732.62" y1="-408.28" x2="7658.45" y2="878.82" gradientTransform="matrix(1, 0, 0, -1, -8931.03, 634.5)" gradientUnits="userSpaceOnUse"><stop offset="0" stop-color="#35b6e5"/><stop offset="0.12" stop-color="#49bde8"/><stop offset="0.72" stop-color="#a6def6"/></linearGradient><linearGradient id="linear-gradient-2" x1="7479.54" y1="1296.8" x2="7788.79" y2="-232.03" gradientTransform="matrix(1, 0, 0, -1, -8930.17, 508.96)" gradientUnits="userSpaceOnUse"><stop offset="0.2" stop-color="#c5f7fd"/><stop offset="0.34" stop-color="#b3f0fd"/><stop offset="0.66" stop-color="#8ee1fd"/><stop offset="0.83" stop-color="#80dbfd"/></linearGradient><linearGradient id="linear-gradient-3" x1="6799.48" y1="282.21" x2="8796.27" y2="282.21" gradientTransform="matrix(-0.98, 0, 0, 0.91, 6458.81, 94.58)" gradientUnits="userSpaceOnUse"><stop offset="0.2" stop-color="#68c1dd"/><stop offset="0.83" stop-color="#68c1dd"/></linearGradient><linearGradient id="linear-gradient-4" x1="7689.14" y1="423.55" x2="7692.23" y2="757.22" gradientTransform="matrix(1, 0, 0, -1, -8931.77, 1288.08)" gradientUnits="userSpaceOnUse"><stop offset="0.29" stop-color="#609351"/><stop offset="0.73" stop-color="#6bb25e"/><stop offset="1" stop-color="#70bf64"/></linearGradient><clipPath id="clip-path-3"><rect class="cls-1" width="1920" height="900"/></clipPath><linearGradient id="Áåçûìÿííûé_ãðàäèåíò_149" x1="498.84" y1="445.62" x2="635.55" y2="445.62" gradientUnits="userSpaceOnUse"><stop offset="0" stop-color="#a35c15"/><stop offset="0.27" stop-color="#aa641d"/><stop offset="0.69" stop-color="#be7835"/><stop offset="1" stop-color="#d08b4a"/></linearGradient><linearGradient id="linear-gradient-5" x1="505.11" y1="445.62" x2="629.28" y2="445.62" gradientUnits="userSpaceOnUse"><stop offset="0" stop-color="#c88b4d"/><stop offset="0.43" stop-color="#cf9255"/><stop offset="1" stop-color="#dfa268"/></linearGradient><linearGradient id="linear-gradient-6" x1="567.18" y1="503.73" x2="567.18" y2="520.97" gradientUnits="userSpaceOnUse"><stop offset="0.02" stop-color="#9d5607"/><stop offset="0.42" stop-color="#9b5507"/><stop offset="0.66" stop-color="#925006"/><stop offset="0.85" stop-color="#844806"/><stop offset="1" stop-color="#733f05"/></linearGradient><linearGradient id="linear-gradient-7" x1="504.36" y1="512.35" x2="630.01" y2="512.35" gradientUnits="userSpaceOnUse"><stop offset="0"/><stop offset="0.49" stop-color="#fff"/><stop offset="1"/></linearGradient><linearGradient id="Áåçûìÿííûé_ãðàäèåíò_149-2" x1="504.36" y1="512.35" x2="630.01" y2="512.35" xlink:href="#Áåçûìÿííûé_ãðàäèåíò_149"/><linearGradient id="linear-gradient-9" x1="567.35" y1="349.06" x2="567.35" y2="389.01" gradientUnits="userSpaceOnUse"><stop offset="0" stop-color="#b17839"/><stop offset="0" stop-color="#b17839"/><stop offset="0.11" stop-color="#a86923"/><stop offset="0.22" stop-color="#a25e13"/><stop offset="0.35" stop-color="#9e580a"/><stop offset="0.54" stop-color="#9d5607"/><stop offset="0.73" stop-color="#9b5507"/><stop offset="0.84" stop-color="#925006"/><stop offset="0.93" stop-color="#844806"/><stop offset="1" stop-color="#733f05"/></linearGradient><linearGradient id="linear-gradient-10" x1="567.35" y1="359.43" x2="567.35" y2="389.03" gradientUnits="userSpaceOnUse"><stop offset="0" stop-color="#b17839"/><stop offset="0.26" stop-color="#a96a24"/><stop offset="0.61" stop-color="#a05b0f"/><stop offset="0.83" stop-color="#9d5607"/><stop offset="0.9" stop-color="#9b5507"/><stop offset="0.94" stop-color="#925006"/><stop offset="0.97" stop-color="#844806"/><stop offset="1" stop-color="#733f05"/></linearGradient><linearGradient id="linear-gradient-11" x1="491.45" y1="369.03" x2="643.24" y2="369.03" xlink:href="#linear-gradient-7"/><linearGradient id="Áåçûìÿííûé_ãðàäèåíò_149-3" x1="491.45" y1="369.03" x2="643.24" y2="369.03" xlink:href="#Áåçûìÿííûé_ãðàäèåíò_149"/><linearGradient id="_åðíî-áåëûé" x1="567.2" y1="350.27" x2="567.2" y2="379.18" gradientUnits="userSpaceOnUse"><stop offset="0" stop-color="#fff"/><stop offset="1" stop-color="#1d1d1b"/></linearGradient><linearGradient id="linear-gradient-12" x1="567.76" y1="629.91" x2="567.76" y2="611.21" gradientUnits="userSpaceOnUse"><stop offset="0" stop-color="#733f05"/><stop offset="0.02" stop-color="#814706"/><stop offset="0.06" stop-color="#914f06"/><stop offset="0.11" stop-color="#9a5407"/><stop offset="0.17" stop-color="#9d5607"/><stop offset="0.5" stop-color="#9b5507"/><stop offset="0.69" stop-color="#925006"/><stop offset="0.84" stop-color="#844806"/><stop offset="0.96" stop-color="#733f05"/></linearGradient><clipPath id="clip-path-4"><rect class="cls-1" x="1940.44" y="-0.08" width="1920" height="900"/></clipPath><linearGradient id="linear-gradient-13" x1="2852.28" y1="663.03" x2="2852.28" y2="75.39" gradientUnits="userSpaceOnUse"><stop offset="0" stop-color="#2b3990"/><stop offset="0.23" stop-color="#4c6ea3"/><stop offset="0.49" stop-color="#6b9fb5"/><stop offset="0.71" stop-color="#81c3c2"/><stop offset="0.88" stop-color="#8fd9ca"/><stop offset="1" stop-color="#94e1cd"/></linearGradient></defs><g class="cls-2"><g id="Layer_1" data-name="Layer 1"><g class="cls-3"><g class="cls-4"><rect class="cls-5" x="-2543.64" y="89.38" width="2606.85" height="455.74" transform="translate(-2480.43 634.5) rotate(-180)"/><rect class="cls-6" x="-2543.64" y="-61.67" width="2607.7" height="632.3" transform="translate(-2479.58 508.96) rotate(-180)"/><path class="cls-7" d="M-1889.32,395.88l-.12,176.79L64,573.56l.09-144.68-12.34.32L51,442.77H39.87l.38-21.16-65.37,1.57,0,17.56-76.49.36-3.17-236.39-17-1.2-20.52,3.78v-2.2h2.95v-2.38h-2.4v-6.2H-143v6.79h-4.44v-5.59h-1.66v5.79l-3.71,1.19.36,1.8h.94v1.6l-3.51.4v12l-12.74-1.21v-2.2h-.75v1.8h-2.75V198.1l-15-.61V195.1h-1.48v-5.8h1.3v-2.19h-4.43v8.78H-192v3h-9.41v-4.6h-3.69v3h1.27l-.18,2.6-18.83,2.2.16,31-11.47,1.38V238l-2,2.19,2.31,166.71-12.58-.8-7.76.2-.74-19.37-8.29-.8V375.54l-35.29-.42v-4.38l-26.77-.22v-4.39h-3l0-25.55-1.93-2.1V325.2h-8V315h-3.31v1h-4.07V299.84l-.93.79v3.21l-2.22.39v1.2h-2.78l-.18-2-1.48-.4v2l-3.87.19-.55-1.8-2.23-.2-.55,1.8-4.43.2.19-1.6-2,.21V305h-3.68v-2.4l-.94-.4-.18-3.19h-1.66l-.39,6-4.6.19-.19-4.59-1.12.2-.54,4.39-3.33,1-.18-5.38h-.74l-.19,5.58-3.5.61-.74-1.6v-2.2l-1.84.2-.19,4.2.73,1.19-.18,9.38-6.1.4L-397.3,328l-.94.19-.74,1.59-3.32-.18-.16-17-1.68.2-.55,17.57-16.45.79,1.62,81.85h-2.22v1.8l-.75.61.18,2.38,1.12.42.35,17.37-2.21.59v2.19h1.48l.18,6.39-11.83-.2c.56,0-.37,2.4-.37,2.4l-6.46.19.92,2.38,1.12.61h1.65l-.75,11.78-1.48,1v13h-2.76l-1.18-153.73L-461,318.75v-9.18l-21.25-3.41v-1.4h-5.54l-.74,1L-539,307.93v10.19l-20.34,1.59.38-18-7-2.4-2.95-32.55-61.89.77-4.07,34.35-11.47.19.2-3.79-2,.19-2-27.56-8.33-1.19.42-54.52-24.58.19-15.7,1.81.06-78.28-11.27-3.4h-6.28v-3.19h-1.1v2.79l-16.82-.6V131h-1.1v3.19l-10-.6v2h-2v-1.81h-12.57l-15.33,5.59-21.05-1.61-5.36,2.79,1.92,164.92-15,2.19-.53-24.17-8,.21V263.49l-20.68-2.41.57-27-2.58-1.6-10.54-1.2,0-26.56-2-1.19s-9.42-1.61-8.86-1.61-27.33-22.76-27.33-22.76h-5.54l-27.53,22.34-1.32.39-.36,1.21-8.68,1.58.17,27.36-13.31,1.8.15,44.92-26.58.59-.75-7.59h-1.29l-.37,5h-1.3l.18,2.61-47.65,1.17-.19,7.19-14.8-1.59-.53-13.79-10.52-.4-4.07-11.18-.36-5.2h-2.39l-.94,4.2h-4.05v-1h-4.63V260l-25.12-3.2v-1.6h1.28v-3.39h-7.93V257l-6.47.21V255l-2.77-3-2.4.2v3l1.48.21-.74,2.18-1.49.2-.56,4.2.18,1.59-1.3-.19v3.79h-1.1v2.79h-11.45l.87,84.66h7.57l.16,27.15-4.42.41,0,32.94-3.89.18V395.52l-2.21-.4-.19-6.4-19.4,1.2v-2h-19.57v1.79h-8.51l-.1-106.21-1.29-1-2.42-.2-.18-1-1.85-.39-.53-.81-5.72-.2-.2-1.19-4.07-.21V266.71l-6.45-3.4-39.74,1.38V263.3h-4.43v1.2l-18.46-.21-.57,16.38-16.63.19.62,195.06-3-.21-.09-133-1.3-.2-.18-3-10.89.2v2.59h-3.14v-1.6h-10.71v1.41h-1.86l.42-69.29-15.15-6.8.2-11.57-13.67-7-41.39.59v5.37l-2.76-.18-3.5-1.41v-1.78h-1.48l-.93,1-9.6-.22v-2h.93l2.12-2.29-1.67-1.79-2.3-2.51h-2.78v-6.18h-2v6.6l-23.28-.42v-1.79h-2V243l-3.14,1.41-.18,2.18,2.4,4-.38,9-1.85,1.2h-4.62l.2.79-1.68.2V275h-9.59v-1.78l-1.66-1.81-2.59,2-.43,66.29-2.77.79v15l-7.94.6.18,15.77-3.52.59-.37,8.2-2,.79-.19,30.55-1.3.19.12,73.87-.72-.19-.57-2h-6.09v1.59c0,.79-.56.79-.56.79l-.18,2L-1492,488l.57-11s2-2.2,3.14-2.4l.36-1.39h-4.42v-1.4l-4.24.2v.59l-1.49.81-.18.59h-3.69l-.38-1a4.89,4.89,0,0,0-2-1.2c-1.3-.39-2,1.6-2,1.6h-4.25l.55-12.18-2.22-.4.22-46.92-3.52-3.39h-11.81l-.29-117.61-3.89-.2V281.93l-2.57.19-.19,2.2-1.65-.4.18-2-17.54.19-7.58-23.55-.36-4-.75-.8-.9-6.39-1.11,6.39-1.12,1.19-.56,3.6-6.67,24.55-41.73,1-5.56.19-5.35,4.59-.39,24.55-1.67.41-.74,2-1.67.21.13,86.85h-12.92l-8.32,6,.17,12.58-3.88.59.19,12.19-6.86.19,0,36.33h-3.31v-5l-19.59-1.4v-8.58l-1.68-1.8h-2.57l-.37-18.56-7-5H-1699V428.6h1.86V413.23l-9.25-5.4-41.21.58v16.17l2.06,2-.2,3.19H-1757l-.18,7.8,1.09.8-.72,1.39L-1770,451.13l-7.57.19v17.77h-8.86l0,43.92h-15.16l.08-117.59h-15v-2h-2v2.2h-2.57v-1.8h-1.67v1.8h-4.6v-3.39h-1.11v3.19l-17.37.78v-2.59l-1.48-.6-.56.6-.35,1.6h-2.6v-4h-4.06v3.6h-2.78v-2.2h-4.43v2l-.75-.2-2.59-2.41v3.4Z"/><rect class="cls-8" x="-2543.64" y="562.71" width="2606.1" height="162.67" transform="translate(-2481.18 1288.08) rotate(-180)"/><polygon class="cls-9" points="64.27 538.78 64.27 607 -855.04 607 -855.04 542.31 64.27 538.78"/><rect class="cls-10" x="-855.04" y="530.55" width="919.31" height="7.66" transform="translate(-790.77 1068.76) rotate(-180)"/><rect class="cls-11" x="-855.04" y="522.96" width="919.31" height="15.25" transform="translate(-790.77 1061.17) rotate(-180)"/><g class="cls-12"><rect class="cls-13" x="11.42" y="551.61" width="17.19" height="8.52"/><rect class="cls-13" x="2.82" y="562.21" width="17.19" height="8.52"/></g><rect class="cls-14" x="-2543.64" y="536.17" width="2624.95" height="8.86"/><g class="cls-15"><path class="cls-16" d="M-538.56,498.77h12.62v-5.11a3.07,3.07,0,0,1-1.83-2.69,3.42,3.42,0,0,1,3.66-3.12,3.41,3.41,0,0,1,3.65,3.12,3.05,3.05,0,0,1-1.83,2.69v5.11h106v-5.11a3.07,3.07,0,0,1-1.83-2.69,3.42,3.42,0,0,1,3.66-3.12,3.42,3.42,0,0,1,3.65,3.12,3.07,3.07,0,0,1-1.83,2.69v5.11h106v-5.11a3.07,3.07,0,0,1-1.83-2.69,3.42,3.42,0,0,1,3.65-3.12,3.42,3.42,0,0,1,3.66,3.12,3.07,3.07,0,0,1-1.83,2.69v5.11h106v-5.11a3.07,3.07,0,0,1-1.83-2.69,3.42,3.42,0,0,1,3.65-3.12,3.42,3.42,0,0,1,3.66,3.12,3.07,3.07,0,0,1-1.83,2.69v5.11h106v-5.11A3.06,3.06,0,0,1-89.33,491a3.41,3.41,0,0,1,3.65-3.12A3.42,3.42,0,0,1-82,491a3.07,3.07,0,0,1-1.83,2.69v5.11h106v-5.11A3.06,3.06,0,0,1,20.28,491a3.41,3.41,0,0,1,3.65-3.12A3.41,3.41,0,0,1,27.58,491a3.06,3.06,0,0,1-1.82,2.69v5.11h106v-5.11a3.06,3.06,0,0,1-1.82-2.69,3.7,3.7,0,0,1,7.3,0,3.06,3.06,0,0,1-1.82,2.69v5.11h71.24v4.68H135.37v20.28h-3.66V503.45H25.76v20.28H22.1V503.45H-83.85v20.28h-3.66V503.45H-193.46v20.28h-3.65V503.45h-106v20.28h-3.65V503.45h-106v20.28h-3.65V503.45h-106v20.28h-3.65V503.45h-12.62Z"/><path class="cls-17" d="M26.41,491.15c-1.6,1.21-4.39-1.09-2.88-2.39C25.27,487.28,28,490,26.41,491.15Z"/><path class="cls-18" d="M129.88,498.77h1.83v-5.11a3.07,3.07,0,0,1-1.83-2.69,3.15,3.15,0,0,1,2.16-2.85,2.72,2.72,0,0,0-.33,1.29,3.43,3.43,0,0,0,3.66,3.12,4.35,4.35,0,0,0,1.5-.28,3.75,3.75,0,0,1-3.33,1.84,4.3,4.3,0,0,1-.73-.07v29.71h-1.1V503.45H25.76v-1.56H129.88Z"/><path class="cls-18" d="M20.28,501.89v-3.12H22.1v-5.11A3.06,3.06,0,0,1,20.28,491a3.14,3.14,0,0,1,2.15-2.85,2.72,2.72,0,0,0-.33,1.29,3.43,3.43,0,0,0,3.66,3.12,4.35,4.35,0,0,0,1.5-.28,3.73,3.73,0,0,1-3.33,1.84,4.4,4.4,0,0,1-.73-.07v29.71H22.1V503.45H-83.85v-1.56Z"/></g><rect class="cls-19" x="-2544.39" y="667.1" width="2607.6" height="263.51" transform="translate(-2481.18 1597.72) rotate(-180)"/><path class="cls-20" d="M-628.52,645.41s76.33,19.74,63.58,42.55c-19.24,17.17-36.76,30-18,33.59s84.91,1.51,78.87,31.69c16.94,25.25,3,118.55,35.56,121.42,103.54,9.13,524,134.5,531,0,1.81-34.52,0-149.29,0-229.17Z"/><path class="cls-21" d="M-538.58,713.15c-39.93,0-85.57,2.78-89.06,16.79-.37,1.49-1.68,8.76,17.41,21.67,47,31.78,108.78,24.16,164.14,22.5,30.93-.92-14.65,2.25,167.67,12.16,0,0,161,8.77,342.69,13.22h0L63.21,675.63Q-629.77,658.1-632,686.1-632.87,696.49-538.58,713.15Z"/><path class="cls-22" d="M62.46,781.89c-18.06-2.34-38.28,11.12-147.08,0s-213.4-13-259-14.18-237.41-6-257.62-7.55S-611.68,778.48-560.7,791s52.48,37.25,11.77,46.08-250,36.64-156.79,37.61,768.18,0,768.18,0l1.81-57.08"/><path class="cls-21" d="M64.32,815.27h0c-49.89-.95-196.47-3.94-260.44-7.5-77.73-4.31-243.15-23.36-270.61-9.63s23.46,43.24,50.75,43.91-15,2.71-68.36,5.9-51.25,26.71-51.25,26.71H62.46"/><ellipse class="cls-23" cx="-108.47" cy="705.69" rx="111.29" ry="17.17"/><rect class="cls-1" x="-2543.64" y="89.38" width="2606.85" height="785.28" transform="translate(-2480.43 964.04) rotate(-180)"/></g></g><g class="cls-24"><path class="cls-25" d="M121.32,755.1c-2.13,42.23-4.31,84.72,2.22,126.8a45.41,45.41,0,0,1,2.72,13.36H1945.87c-.72-13.32-1.25-26.65-1.67-40-.75-23.61-1.41-47.22-2.91-70.82L1737.08,687.5H284.3L122.23,734.83Q121.84,745,121.32,755.1Z"/><path class="cls-26" d="M2005.22,878.89c-1-29.55-1.76-59.11-3.86-88.64-1.81-25.48-4.19-50.92-5.61-76.41l-64.44-30.26L-.58,683.52-51,769.78l27,152H2007Q2005.86,900.36,2005.22,878.89Z"/><polygon class="cls-27" points="-29.85 -17.65 -31 705.66 1940.47 703.32 1945 -17.22 -29.85 -17.65"/><path class="cls-28" d="M-44.17,823H2001l-3.53-2-2041.55-.56Z"/><path class="cls-28" d="M-41.56,746.7H2007l-3.83-1.84L-41.49,744.1C-41.51,745-41.53,745.84-41.56,746.7Z"/><path class="cls-28" d="M14.4,955,421,694.25l-3.14-2.76L14,946.71C14.12,949.47,14.26,952.24,14.4,955Z"/><path class="cls-28" d="M399,922.34,620,703.73l-2.53-1L392.55,922.31Z"/><path class="cls-28" d="M688.84,928.89l130.59-239-2.45-.43L684.12,928.92Z"/><path class="cls-28" d="M980.48,1045.39l9.4-366.15-3.37,1-11.76,365.34Z"/><path class="cls-28" d="M1321.47,1044.56,1183.16,680.74l-2.74,2.26,134.76,361.57Z"/><path class="cls-28" d="M1700.05,1043.54l-339.13-348.1-1.73,3.41,331.51,344.73Z"/><path class="cls-28" d="M1944.31,946.88l-388.18-266-1.05,3.66,389.42,270.6C1944.43,952.39,1944.37,949.63,1944.31,946.88Z"/><polygon class="cls-29" points="-31 708.58 1964.97 705.82 1965 678.29 -31 681.05 -31 708.58"/><rect class="cls-30" x="286.81" y="120.75" width="221.1" height="248.37"/><rect class="cls-31" x="302.5" y="138.38" width="189.72" height="213.12"/><polygon class="cls-32" points="488.09 138.38 488.09 346.78 302.5 346.78 302.5 351.5 492.22 351.5 492.22 138.38 488.09 138.38"/><polygon class="cls-33" points="310.98 164 377.23 163.99 377.27 224.83 311.06 224.86 310.98 164"/><polygon class="cls-34" points="315.32 167.13 372.85 167.13 372.93 214.4 315.39 214.43 315.32 167.13"/><polygon class="cls-35" points="341.49 156.16 342.16 156.11 342.49 156.11 342.57 156.62 342.7 157.48 342.73 156.65 342.77 156.11 343.16 156.12 343.78 156.06 343.9 156.92 343.99 156.1 345.21 156.1 345.23 156.32 345.35 157.17 345.39 156.35 345.44 156.08 346.55 156.06 346.76 166.1 345.1 166.14 345.02 165.63 344.88 164.83 344.85 165.65 344.76 166.14 343.6 166.15 343.45 165.13 343.37 166.17 342.42 166.22 342.34 165.43 342.21 164.63 342.17 165.46 342.09 166.22 341.71 166.2 341.49 156.16"/><polygon class="cls-33" points="414.82 180.24 481.07 180.22 481.11 241.07 414.89 241.1 414.82 180.24"/><polygon class="cls-34" points="419.16 183.36 476.69 183.37 476.76 230.64 419.22 230.67 419.16 183.36"/><polygon class="cls-35" points="445.33 172.39 446 172.34 446.33 172.35 446.41 172.86 446.53 173.71 446.57 172.89 446.61 172.34 446.99 172.35 447.61 172.3 447.74 173.15 447.83 172.34 449.05 172.33 449.06 172.55 449.19 173.41 449.22 172.58 449.27 172.31 450.38 172.29 450.6 182.34 448.93 182.37 448.86 181.86 448.72 181.06 448.69 181.89 448.6 182.37 447.44 182.38 447.28 181.36 447.21 182.4 446.26 182.46 446.18 181.67 446.04 180.87 446.01 181.69 445.93 182.45 445.54 182.44 445.33 172.39"/><polygon class="cls-33" points="331.41 249.28 397.66 249.26 397.7 310.11 331.49 310.14 331.41 249.28"/><polygon class="cls-33" points="414.34 272.9 480.59 272.88 480.64 333.73 414.42 333.76 414.34 272.9"/><polygon class="cls-34" points="335.75 252.41 393.28 252.41 393.36 299.68 335.81 299.71 335.75 252.41"/><polygon class="cls-35" points="361.92 241.44 362.59 241.39 362.92 241.39 363 241.9 363.13 242.75 363.16 241.93 363.2 241.38 363.59 241.4 364.2 241.34 364.33 242.19 364.42 241.38 365.64 241.37 365.65 241.6 365.78 242.45 365.81 241.63 365.86 241.36 366.97 241.33 367.19 251.38 365.52 251.42 365.45 250.91 365.31 250.11 365.28 250.93 365.19 251.41 364.03 251.43 363.88 250.41 363.8 251.44 362.85 251.5 362.77 250.71 362.63 249.91 362.6 250.74 362.52 251.5 362.13 251.48 361.92 241.44"/><polygon class="cls-34" points="418.4 276.38 475.93 276.38 476 323.65 418.46 323.69 418.4 276.38"/><polygon class="cls-35" points="444.56 267.66 445.24 267.61 445.57 267.61 445.64 268.13 445.77 268.98 445.81 268.15 445.85 267.61 446.23 267.62 446.85 267.56 446.98 268.42 447.07 267.6 448.29 267.6 448.3 267.82 448.43 268.67 448.46 267.85 448.51 267.58 449.62 267.56 449.84 277.6 448.17 277.64 448.1 277.13 447.96 276.33 447.92 277.15 447.84 277.64 446.67 277.65 446.52 276.63 446.45 277.67 445.5 277.72 445.42 276.93 445.28 276.13 445.25 276.96 445.17 277.72 444.78 277.7 444.56 267.66"/><text class="cls-36" transform="translate(328.6 208.69)">A</text><text class="cls-37" transform="translate(437.39 225.38)">B</text><text class="cls-38" transform="translate(348.66 295.07) scale(0.98 1)">C</text><text class="cls-39" transform="translate(437.57 320)">D</text><rect class="cls-30" x="1432.45" y="120.75" width="221.1" height="248.37"/><rect class="cls-31" x="1448.14" y="138.38" width="189.72" height="213.12"/><polygon class="cls-32" points="1633.73 138.38 1633.73 346.78 1448.14 346.78 1448.14 351.5 1637.86 351.5 1637.86 138.38 1633.73 138.38"/><path class="cls-40" d="M1520,233.42l.14-1.27a23.09,23.09,0,0,1,3.24-9.48c1.79-3,5.18-6.74,10.36-11.55a65.51,65.51,0,0,0,7.33-7.52,8.93,8.93,0,0,0,1.67-4.89,5.2,5.2,0,0,0-1.29-3.84,4.94,4.94,0,0,0-3.68-1.29,4.87,4.87,0,0,0-3.68,1.36c-.92.93-1.46,2.59-1.61,4.94l-.08,1.18-11.33-1.14.13-1.14c.57-5.27,2.41-9.14,5.49-11.49a18.13,18.13,0,0,1,11.3-3.48c4.94,0,8.89,1.37,11.75,4.07a13.49,13.49,0,0,1,4.35,10.18,17.3,17.3,0,0,1-1.23,6.49,25.86,25.86,0,0,1-3.78,6.31,57.72,57.72,0,0,1-6,6.15c-2.82,2.59-4.61,4.31-5.33,5.12-.18.21-.36.41-.52.61h16.9v10.68Z"/><path class="cls-41" d="M1552.92,223.88v8.39h-31.67a22,22,0,0,1,3.09-9q2.58-4.26,10.16-11.31,6.11-5.69,7.49-7.71a9.91,9.91,0,0,0,1.87-5.53,6.3,6.3,0,0,0-1.63-4.65,6.9,6.9,0,0,0-9,.08q-1.68,1.71-1.93,5.66l-9-.9q.81-7.46,5-10.71A17,17,0,0,1,1538,185q7,0,11,3.76a12.31,12.31,0,0,1,4,9.35,16.24,16.24,0,0,1-1.14,6.06,24.31,24.31,0,0,1-3.62,6,57.14,57.14,0,0,1-5.91,6c-2.85,2.61-4.66,4.35-5.42,5.2a15.9,15.9,0,0,0-1.85,2.51Z"/><polygon class="cls-35" points="1536.19 178.72 1536.75 178.71 1537.03 178.73 1537.07 179.16 1537.13 179.87 1537.2 179.19 1537.26 178.74 1537.58 178.76 1538.1 178.75 1538.16 179.46 1538.27 178.79 1539.29 178.84 1539.29 179.03 1539.36 179.74 1539.42 179.06 1539.48 178.84 1540.4 178.87 1540.12 187.25 1538.73 187.2 1538.69 186.77 1538.61 186.1 1538.54 186.79 1538.45 187.19 1537.48 187.14 1537.4 186.28 1537.29 187.15 1536.5 187.15 1536.46 186.49 1536.39 185.81 1536.32 186.5 1536.22 187.13 1535.9 187.1 1536.19 178.72"/><text class="cls-42" transform="translate(1470.5 221.83)">1</text><polygon class="cls-35" points="1482.42 159.52 1482.98 159.51 1483.26 159.53 1483.3 159.96 1483.36 160.67 1483.43 159.99 1483.49 159.53 1483.81 159.56 1484.33 159.54 1484.39 160.26 1484.51 159.59 1485.52 159.64 1485.52 159.83 1485.59 160.54 1485.66 159.86 1485.71 159.64 1486.64 159.67 1486.35 168.05 1484.96 168 1484.92 167.57 1484.84 166.9 1484.78 167.59 1484.68 167.98 1483.71 167.94 1483.63 167.08 1483.52 167.94 1482.73 167.94 1482.7 167.28 1482.62 166.61 1482.55 167.3 1482.45 167.93 1482.13 167.9 1482.42 159.52"/><text class="cls-43" transform="translate(1582.69 215.03) scale(0.98 1)">3</text><text class="cls-44" transform="translate(1461.23 325.56)">4</text><polygon class="cls-35" points="1598.73 160.29 1599.29 160.28 1599.57 160.3 1599.61 160.73 1599.67 161.44 1599.74 160.76 1599.8 160.31 1600.12 160.33 1600.64 160.32 1600.7 161.03 1600.81 160.36 1601.83 160.41 1601.83 160.6 1601.9 161.31 1601.96 160.63 1602.02 160.41 1602.94 160.44 1602.66 168.82 1601.27 168.77 1601.23 168.34 1601.15 167.67 1601.08 168.36 1600.99 168.75 1600.02 168.71 1599.94 167.85 1599.83 168.72 1599.04 168.72 1599 168.06 1598.93 167.38 1598.86 168.07 1598.76 168.7 1598.44 168.67 1598.73 160.29"/><polygon class="cls-35" points="1484.98 269.74 1485.54 269.73 1485.82 269.75 1485.86 270.18 1485.92 270.89 1485.99 270.21 1486.05 269.76 1486.37 269.79 1486.89 269.77 1486.96 270.48 1487.07 269.81 1488.08 269.86 1488.09 270.05 1488.15 270.76 1488.22 270.08 1488.27 269.86 1489.2 269.89 1488.91 278.27 1487.52 278.22 1487.48 277.79 1487.4 277.12 1487.34 277.81 1487.24 278.21 1486.27 278.16 1486.19 277.31 1486.08 278.17 1485.29 278.17 1485.26 277.51 1485.18 276.83 1485.12 277.52 1485.01 278.15 1484.69 278.12 1484.98 269.74"/><text class="cls-45" transform="translate(1583.66 325.59)">6</text><polygon class="cls-35" points="1604.86 271.58 1605.42 271.57 1605.69 271.59 1605.73 272.02 1605.8 272.73 1605.87 272.05 1605.93 271.6 1606.25 271.63 1606.77 271.61 1606.83 272.32 1606.94 271.65 1607.96 271.7 1607.96 271.89 1608.03 272.6 1608.09 271.92 1608.15 271.7 1609.07 271.73 1608.79 280.11 1607.39 280.06 1607.36 279.63 1607.28 278.96 1607.21 279.65 1607.12 280.05 1606.15 280 1606.07 279.14 1605.96 280.01 1605.16 280.01 1605.13 279.35 1605.06 278.67 1604.99 279.36 1604.89 279.99 1604.57 279.96 1604.86 271.58"/><text class="cls-46" transform="translate(1532.67 299.14)">5</text><polygon class="cls-35" points="1547.84 247.93 1548.4 247.92 1548.68 247.94 1548.72 248.37 1548.79 249.08 1548.85 248.4 1548.91 247.94 1549.23 247.97 1549.75 247.96 1549.82 248.67 1549.93 248 1550.94 248.05 1550.95 248.24 1551.01 248.95 1551.08 248.27 1551.13 248.05 1552.06 248.08 1551.77 256.46 1550.38 256.41 1550.34 255.98 1550.27 255.31 1550.2 256 1550.11 256.39 1549.13 256.35 1549.06 255.49 1548.95 256.36 1548.15 256.36 1548.12 255.69 1548.04 255.02 1547.98 255.71 1547.88 256.34 1547.56 256.31 1547.84 247.93"/><rect class="cls-1" width="1920" height="900"/><rect class="cls-47" x="620.82" y="109.58" width="746.51" height="406.59"/><rect class="cls-48" x="641.23" y="120.69" width="705.69" height="384.77"/><polygon class="cls-49" points="636.27 116.68 636.27 120.69 636.27 124.71 636.27 505.46 646.2 505.46 646.2 124.71 1341.96 124.71 1341.96 505.46 1351.88 505.46 1351.88 124.71 1351.88 120.69 1351.88 116.68 636.27 116.68"/><rect class="cls-50" x="610.78" y="510.66" width="766.59" height="19.44"/><rect class="cls-51" x="368.65" y="759.3" width="498.05" height="28.73" transform="translate(1235.34 1547.34) rotate(180)"/><path class="cls-51" d="M492.64,703.65l-19.53,43c-2.25,5,1.57,10.51,7.21,10.48L656.67,756a7.5,7.5,0,0,0,6.9-10.89L642,704.45a7.86,7.86,0,0,0-6.88-4.09l-135.22-1.2A7.83,7.83,0,0,0,492.64,703.65Z"/><path class="cls-52" d="M506.09,509.17c-.51-43.49-2.74-90.47-7.25-123.14a590.26,590.26,0,0,1,136.71,0c-4.51,32.67-6.74,79.65-7.25,123.14A628.49,628.49,0,0,0,506.09,509.17Z"/><path class="cls-53" d="M511.69,503.34c-.46-39.5-2.48-82.17-6.58-111.84a536,536,0,0,1,124.17,0c-4.1,29.67-6.12,72.34-6.58,111.84A570.29,570.29,0,0,0,511.69,503.34Z"/><path class="cls-54" d="M517.3,497.51c-.41-35.51-2.23-73.87-5.91-100.55A482.76,482.76,0,0,1,623,397c-3.68,26.68-5.5,65-5.91,100.55A511.88,511.88,0,0,0,517.3,497.51Z"/><path class="cls-55" d="M630,521c-42.09-3.91-84-4.38-125.65,0V507A603.08,603.08,0,0,1,630,507Z"/><path class="cls-56" d="M504.36,521v.72c41.6-4.38,83.56-3.91,125.65,0V521C587.92,517.06,546,516.59,504.36,521Z"/><path class="cls-57" d="M504.36,506.32V507A603.08,603.08,0,0,1,630,507v-.69A603.08,603.08,0,0,0,504.36,506.32Z"/><path class="cls-58" d="M630,521c-42.09-3.91-84-4.38-125.65,0V507A603.08,603.08,0,0,1,630,507Z"/><path class="cls-56" d="M504.36,521v.72c41.6-4.38,83.56-3.91,125.65,0V521C587.92,517.06,546,516.59,504.36,521Z"/><path class="cls-57" d="M504.36,506.32V507A603.08,603.08,0,0,1,630,507v-.69A603.08,603.08,0,0,0,504.36,506.32Z"/><path class="cls-58" d="M630,521c-42.09-3.91-84-4.38-125.65,0V507A603.08,603.08,0,0,1,630,507Z"/><path class="cls-59" d="M630,521c-42.09-3.91-84-4.38-125.65,0V507A603.08,603.08,0,0,1,630,507Z"/><path class="cls-60" d="M637.33,389a566.84,566.84,0,0,0-139-.17c-6.63.81-9.4-19-4.2-20.49,24.29-7,48.39-19.31,73-19.27,24.16,0,48.84,12.33,73,19.27C645.45,369.83,643.51,389.76,637.33,389Z"/><path class="cls-61" d="M494.16,368.33c24.29-7,48.39-19.31,73-19.27,24.16,0,48.84,12.33,73,19.27,2,.59,3,4,3,7.83,0-4.1-.93-7.75-3-8.37-24.19-7.12-48.87-19.74-73-19.77-24.63,0-48.73,12.62-73,19.78-1.9.56-2.74,3.63-2.71,7.26C491.48,371.68,492.32,368.86,494.16,368.33Z"/><path class="cls-56" d="M637.33,389a566.84,566.84,0,0,0-139-.17c-4.17.51-6.81-7.12-6.91-13.24-.09,6.37,2.59,14.82,6.91,14.28a552.41,552.41,0,0,1,139,.16c3.8.49,6-7,5.91-13.27C643.15,382.67,641,389.44,637.33,389Z"/><path class="cls-62" d="M637.33,389a566.84,566.84,0,0,0-139-.17c-6.63.81-9.4-8.62-4.2-10.12,24.29-7,48.39-19.31,73-19.27,24.16,0,48.84,12.33,73,19.27C645.45,380.2,643.51,389.76,637.33,389Z"/><path class="cls-63" d="M637.33,389a566.84,566.84,0,0,0-139-.17c-6.63.81-9.4-19-4.2-20.49,24.29-7,48.39-19.31,73-19.27,24.16,0,48.84,12.33,73,19.27C645.45,369.83,643.51,389.76,637.33,389Z"/><path class="cls-64" d="M637.33,389a566.84,566.84,0,0,0-139-.17c-6.63.81-9.4-19-4.2-20.49,24.29-7,48.39-19.31,73-19.27,24.16,0,48.84,12.33,73,19.27C645.45,369.83,643.51,389.76,637.33,389Z"/><path class="cls-65" d="M494,372.65c24.29-7,48.39-19.31,73-19.27,24.16,0,48.84,12.33,73,19.27,1.81.52,2.76,3.23,3,6.53.28-4.57-.62-9-3-9.64-24.19-6.94-48.87-19.24-73-19.27-24.63,0-48.73,12.3-73,19.27-2.15.62-2.94,4.38-2.65,8.51C491.58,375.28,492.42,373.11,494,372.65Z"/><path class="cls-66" d="M496.44,559.36h11.82c1.53-60.17-1.07-152.6-10.43-192.12-.8-3.82-20.52.22-19.31,4.35C487.82,410.84,495.81,500.06,496.44,559.36Z"/><path class="cls-67" d="M497.83,367.24c-.23-1.06-1.91-1.52-4.2-1.53.78.25,1.3.64,1.41,1.19,9.38,39.58,13.18,132.19,11.65,192.46h1.57C509.79,499.19,507.19,406.76,497.83,367.24Z"/><path class="cls-68" d="M482.44,367.92c-2.57,1.05-4.31,2.35-3.92,3.67,9.3,39.25,17.29,128.47,17.92,187.77h1.78c-.63-59.7-7.87-149.51-17.24-189C480.74,369.5,481.33,368.68,482.44,367.92Z"/><path class="cls-66" d="M638,559.36H626.13c-1.53-60.17,1.07-152.6,10.44-192.12.79-3.82,20.51.22,19.3,4.35C646.57,410.84,638.58,500.06,638,559.36Z"/><path class="cls-67" d="M636.57,367.24c.22-1.06,1.9-1.52,4.19-1.53-.78.25-1.3.64-1.41,1.19C630,406.48,626.17,499.09,627.7,559.36h-1.57C624.6,499.19,627.2,406.76,636.57,367.24Z"/><path class="cls-68" d="M652,367.92c2.57,1.05,4.31,2.35,3.92,3.67-9.3,39.25-17.29,128.47-17.92,187.77h-1.78c.63-59.7,7.87-149.51,17.24-189C653.65,369.5,653.06,368.68,652,367.92Z"/><path class="cls-69" d="M636.59,707.9c-4.45-40-7.22-84.25-6-107.58.36-3.35-14.64-3.78-14.73-.71-1.27,23.26,3.77,67.87,10.07,108.29Z"/><path class="cls-67" d="M627.32,707.9c-6.07-40.63-10.69-85.57-9.41-108.94,0-.44.34-.81.88-1.11-1.68.32-2.86.91-2.88,1.76-1.27,23.26,3.77,67.87,10.07,108.29Z"/><path class="cls-68" d="M628.67,599.69c-1.28,23.48,1.83,67.92,6.48,108.21h1.44c-4.45-40-7.22-84.25-6-107.58.12-1.06-1.33-1.83-3.35-2.29C628.2,598.46,628.74,599,628.67,599.69Z"/><path class="cls-69" d="M499.82,707.9c4.44-40,7.22-84.25,5.94-107.58-.35-3.35,14.65-3.78,14.74-.71,1.27,23.26-3.78,67.87-10.07,108.29Z"/><path class="cls-67" d="M509.09,707.9c6.07-40.63,10.68-85.57,9.41-108.94,0-.44-.34-.81-.88-1.11,1.68.32,2.85.91,2.88,1.76,1.27,23.26-3.78,67.87-10.07,108.29Z"/><path class="cls-68" d="M507.74,599.69c1.28,23.48-1.83,67.92-6.48,108.21h-1.44c4.44-40,7.22-84.25,5.94-107.58-.11-1.06,1.34-1.83,3.36-2.29C508.21,598.46,507.67,599,507.74,599.69Z"/><rect class="cls-70" x="501.27" y="611.21" width="132.98" height="18.7"/><rect class="cls-71" x="501.27" y="610.69" width="132.98" height="19.22"/><path class="cls-72" d="M659.54,753.68c-6-53.74-9.69-113-8-144.33.47-4.51-19.65-5.08-19.77-1-1.7,31.21,5.07,91.05,13.51,145.29Z"/><path class="cls-67" d="M647.11,753.68c-8.16-54.51-14.34-114.81-12.63-146.16,0-.6.45-1.09,1.18-1.5-2.25.44-3.83,1.22-3.87,2.37-1.7,31.21,5.07,91.05,13.51,145.29Z"/><path class="cls-68" d="M648.92,608.49c-1.72,31.51,2.45,91.13,8.68,145.19h1.94c-6-53.74-9.69-113-8-144.33.15-1.44-1.79-2.47-4.5-3.08C648.28,606.85,649,607.59,648.92,608.49Z"/><path class="cls-72" d="M476,753.68c6-53.74,9.69-113,8-144.33-.47-4.51,19.65-5.08,19.77-1,1.7,31.21-5.07,91.05-13.51,145.29Z"/><path class="cls-67" d="M488.48,753.68c8.15-54.51,14.34-114.81,12.63-146.16,0-.6-.46-1.09-1.19-1.5,2.26.44,3.84,1.22,3.87,2.37,1.7,31.21-5.07,91.05-13.51,145.29Z"/><path class="cls-68" d="M486.67,608.49c1.71,31.51-2.46,91.13-8.69,145.19H476c6-53.74,9.69-113,8-144.33-.15-1.44,1.79-2.47,4.5-3.08C487.3,606.85,486.57,607.59,486.67,608.49Z"/><path class="cls-73" d="M477.32,591.55l179.18.1,0,11.78s-.13,7.13-6.22,7.78H483.53s-5.88-.07-6.23-7.78A102,102,0,0,1,477.32,591.55Z"/><path class="cls-74" d="M477.32,591.55s153.44.86,179.18.1c0,0-12.09-26.53-18.55-32.29H495.14S491,558.13,477.32,591.55Z"/><polygon class="cls-73" points="391.99 474.35 391.99 498.03 391.98 787.16 362.86 787.16 362.87 498.03 362.87 474.35 391.99 474.35"/><rect class="cls-73" x="721.41" y="481.44" width="197.75" height="305.72"/><rect class="cls-75" x="721.25" y="481.46" width="197.91" height="16.62" transform="translate(1640.42 979.54) rotate(180)"/><rect class="cls-76" x="339.19" y="466.98" width="603.67" height="14.46"/><rect class="cls-77" x="339.19" y="462.26" width="603.67" height="4.73"/><rect class="cls-75" x="362.87" y="481.45" width="29.11" height="16.45"/><rect class="cls-40" x="799.35" y="447.76" width="86.72" height="11.68" transform="translate(1685.41 907.21) rotate(180)"/><path class="cls-78" d="M796.9,449.63c-.57,0-1-.28-1-.63v-3.09c0-.31.41-.56.91-.56,8.57,0,75.13,0,91.27,0,2,0,3.52,1,3.52,2.17v12.56c0,1.19-1.57,2.17-3.52,2.17-16.14,0-82.7,0-91.27,0-.5,0-.91-.25-.91-.57v-3.08c0-.35.47-.63,1-.63H885v-8.28Z"/><polygon class="cls-79" points="799.35 449.63 884.96 449.63 884.96 450.31 884.96 451.26 884.96 457.91 883.91 457.91 883.91 451.26 799.35 451.26 799.35 449.63"/><rect class="cls-40" x="799.35" y="427.22" width="86.72" height="15.33" transform="translate(1685.41 869.77) rotate(180)"/><path class="cls-80" d="M796.9,429.08c-.57,0-1-.28-1-.63v-3.08c0-.31.41-.57.91-.57,8.57,0,75.13,0,91.27,0,2,0,3.52,1,3.52,2.16v16.21c0,1.2-1.57,2.17-3.52,2.17-16.14,0-82.7,0-91.27,0-.5,0-.91-.26-.91-.57v-3.08c0-.35.47-.64,1-.64H885V429.08Z"/><polygon class="cls-79" points="799.35 429.08 884.96 429.08 884.96 429.77 884.96 430.71 884.96 441.01 883.91 441.01 883.91 430.71 799.35 430.71 799.35 429.08"/></g><g class="cls-81"><polygon class="cls-82" points="1849.83 80.68 1848.66 673.79 3851.29 671.87 3855.89 81.03 1849.83 80.68"/><path class="cls-83" d="M1859.52,763.52l33,18.32L2937.45,784l-1.73-25.41C2930.33,763.85,1845.34,747.67,1859.52,763.52Z"/><path class="cls-83" d="M1937.59,705.4l-30.26,8.44,1637.9-2.52-23.63-13C3361,700.51,2124.81,702.75,1937.59,705.4Z"/></g></g></g></svg>