<svg id="Layer_1" data-name="Layer 1" xmlns="http://www.w3.org/2000/svg" viewBox="0 0 634.21 550.22"><defs><style>.cls-1{fill:#36e81c;}</style></defs><path class="cls-1" d="M465.57,25.82H168.64c-80.51,0-146,65.51-146,146V378.39c0,80.51,65.5,146,146,146H465.57c80.51,0,146-65.5,146-146V171.84C611.58,91.33,546.08,25.82,465.57,25.82ZM595.88,378.39A130.31,130.31,0,0,1,465.57,508.7H168.64A130.31,130.31,0,0,1,38.33,378.39V171.84A130.31,130.31,0,0,1,168.64,41.53H465.57A130.31,130.31,0,0,1,595.88,171.84Z"/></svg>