<svg xmlns="http://www.w3.org/2000/svg" xmlns:xlink="http://www.w3.org/1999/xlink" viewBox="0 0 1920 900"><defs><style>.cls-1{fill:none;}.cls-2{isolation:isolate;}.cls-3{clip-path:url(#clip-path);}.cls-4{clip-path:url(#clip-path-2);}.cls-5{fill:#5c9942;}.cls-6{fill:#569b44;}.cls-7{fill:url(#linear-gradient);}.cls-8{fill:url(#linear-gradient-2);}.cls-9{fill:url(#linear-gradient-3);}.cls-10{fill:url(#linear-gradient-4);}.cls-11{fill:#67c192;}.cls-12,.cls-42{stroke:#64bb4f;stroke-width:0.49px;}.cls-12,.cls-42,.cls-89{stroke-miterlimit:10;}.cls-12{fill:url(#linear-gradient-5);}.cls-13{fill:url(#linear-gradient-6);}.cls-14{fill:#75bee7;}.cls-14,.cls-28{opacity:0.75;}.cls-15{fill:url(#linear-gradient-7);}.cls-16{fill:url(#linear-gradient-8);}.cls-17{fill:url(#linear-gradient-9);}.cls-18{fill:url(#linear-gradient-10);}.cls-19{fill:url(#linear-gradient-11);}.cls-20{fill:url(#linear-gradient-12);}.cls-21{fill:url(#linear-gradient-13);}.cls-22{fill:url(#linear-gradient-14);}.cls-23{fill:#0c0c0d;}.cls-24{fill:#dbd9d8;}.cls-25{fill:#252528;}.cls-26{fill:#fffafc;}.cls-27{fill:url(#linear-gradient-15);}.cls-28{fill:#70bbdd;}.cls-29{fill:#aa895b;}.cls-30{fill:#d18c5e;}.cls-31{fill:#c19867;}.cls-32{opacity:0.6;}.cls-33{fill:#7a5d2a;}.cls-34{fill:#8c5b48;}.cls-35{fill:#704e18;}.cls-36{fill:#723b17;}.cls-37{opacity:0.41;}.cls-38{fill:#666;}.cls-39{fill:#e6e6e6;}.cls-40{fill:#1a1a1a;}.cls-41{fill:#58595b;}.cls-42{fill:url(#linear-gradient-16);}.cls-43{fill:#70b644;}.cls-44{fill:url(#linear-gradient-17);}.cls-45{fill:#d77d4f;}.cls-46{fill:#579943;}.cls-47{fill:#5aa846;}.cls-48{fill:#87c444;}.cls-49{fill:#cea852;}.cls-50,.cls-54{fill:#959595;}.cls-51{fill:url(#linear-gradient-18);}.cls-52{fill:url(#linear-gradient-19);}.cls-53{fill:url(#linear-gradient-20);}.cls-54{opacity:0.24;}.cls-55{fill:#cd8751;}.cls-56{fill:#231f20;}.cls-56,.cls-64{opacity:0.3;}.cls-57{fill:#519b44;}.cls-58{fill:#98c948;}.cls-59{fill:#8b421f;}.cls-60{fill:#54883e;}.cls-61,.cls-68{mix-blend-mode:multiply;}.cls-61{opacity:0.15;}.cls-62{fill:#b21414;}.cls-63{fill:#cc2727;}.cls-64,.cls-66{mix-blend-mode:overlay;}.cls-65{fill:#fff;}.cls-66{opacity:0.5;}.cls-67{fill:#5cc1ff;}.cls-69{fill:#c7d9f9;}.cls-70{fill:#ffdb45;}.cls-71{fill:#ffe876;}.cls-72{fill:#b0d80b;}.cls-73{fill:#d83535;}.cls-74{fill:#f26d6d;}.cls-75{fill:#25893d;}.cls-76{fill:#951a1d;}.cls-77{fill:#7d1416;}.cls-78{fill:#e7ad8d;}.cls-79{fill:#d09d7c;}.cls-80{fill:#6f8289;}.cls-81{fill:#212120;opacity:0.37;}.cls-82{fill:#868686;}.cls-83{fill:#6d6d6d;}.cls-84{fill:#a81e22;}.cls-85{fill:#ac9060;}.cls-86{fill:#d7b777;}.cls-87{fill:#e8c991;}.cls-88{fill:#f3d3a2;}.cls-89{fill:#b67656;stroke:#a44a24;stroke-width:3.24px;}.cls-90{fill:#7b7b7a;}.cls-91{fill:#a2a2a3;}.cls-92{fill:#ac8841;}.cls-93{fill:#f4f7f0;}.cls-94{fill:#adadad;}.cls-95{fill:#787878;}</style><clipPath id="clip-path"><rect class="cls-1" width="1920" height="900"/></clipPath><clipPath id="clip-path-2"><rect class="cls-1" x="-11" y="-25.35" width="1931" height="981.6"/></clipPath><linearGradient id="linear-gradient" x1="9796.62" y1="-371.28" x2="9722.45" y2="915.82" gradientTransform="matrix(1, 0, 0, -1, -8931.03, 708.5)" gradientUnits="userSpaceOnUse"><stop offset="0" stop-color="#35b6e5"/><stop offset="0.12" stop-color="#49bde8"/><stop offset="0.72" stop-color="#a6def6"/></linearGradient><linearGradient id="linear-gradient-2" x1="8951.04" y1="250.08" x2="9260.81" y2="670.21" gradientTransform="matrix(-1, 0, 0, 1, 10578.59, 0)" gradientUnits="userSpaceOnUse"><stop offset="0.08" stop-color="#acc6df"/><stop offset="0.76" stop-color="#81bbe1"/></linearGradient><linearGradient id="linear-gradient-3" x1="8857.46" y1="530.09" x2="9851.13" y2="530.09" xlink:href="#linear-gradient-2"/><linearGradient id="linear-gradient-4" x1="9010.01" y1="129.59" x2="9403.97" y2="663.9" xlink:href="#linear-gradient-2"/><linearGradient id="linear-gradient-5" x1="9151.21" y1="420.42" x2="8979.96" y2="662.81" gradientTransform="matrix(-1, 0, 0, 1, 10578.59, 0)" gradientUnits="userSpaceOnUse"><stop offset="0.09" stop-color="#57bd89"/><stop offset="0.24" stop-color="#59b484"/><stop offset="0.5" stop-color="#5ca97f"/></linearGradient><linearGradient id="linear-gradient-6" x1="9129.62" y1="559.75" x2="8997.13" y2="768.88" gradientTransform="matrix(-1, 0, 0, 1, 10578.59, 0)" gradientUnits="userSpaceOnUse"><stop offset="0.08" stop-color="#29b473"/><stop offset="0.14" stop-color="#24b06d"/><stop offset="0.46" stop-color="#0a9b50"/><stop offset="0.64" stop-color="#009345"/></linearGradient><linearGradient id="linear-gradient-7" x1="9543.54" y1="1333.8" x2="9852.79" y2="-195.03" gradientTransform="matrix(1, 0, 0, -1, -8930.17, 582.96)" gradientUnits="userSpaceOnUse"><stop offset="0.2" stop-color="#c5f7fd"/><stop offset="0.34" stop-color="#b3f0fd"/><stop offset="0.66" stop-color="#8ee1fd"/><stop offset="0.83" stop-color="#80dbfd"/></linearGradient><linearGradient id="linear-gradient-8" x1="9487.87" y1="190.69" x2="9619.78" y2="58.68" gradientTransform="matrix(-1, 0, 0, 1, 10578.59, 0)" gradientUnits="userSpaceOnUse"><stop offset="0.11" stop-color="#85ddfd"/><stop offset="0.84" stop-color="#d7eef4"/></linearGradient><linearGradient id="linear-gradient-9" x1="9989.07" y1="235.32" x2="10169.25" y2="55.01" gradientTransform="matrix(-1, 0, 0, 1, 10578.59, 0)" gradientUnits="userSpaceOnUse"><stop offset="0.17" stop-color="#83dcfd"/><stop offset="0.9" stop-color="#d7eef4"/></linearGradient><linearGradient id="linear-gradient-10" x1="8648.57" y1="187.41" x2="8758.76" y2="77.14" gradientTransform="matrix(-1, 0, 0, 1, 10578.59, 0)" gradientUnits="userSpaceOnUse"><stop offset="0.11" stop-color="#85ddfd"/><stop offset="0.82" stop-color="#d7eef4"/></linearGradient><linearGradient id="linear-gradient-11" x1="8860.05" y1="200.36" x2="8986.47" y2="73.85" gradientTransform="matrix(-1, 0, 0, 1, 10578.59, 0)" gradientUnits="userSpaceOnUse"><stop offset="0.17" stop-color="#83dcfd"/><stop offset="0.61" stop-color="#d7eef4"/></linearGradient><linearGradient id="linear-gradient-12" x1="8863.48" y1="319.21" x2="10860.27" y2="319.21" gradientTransform="matrix(-0.98, 0, 0, 0.91, 10542.06, 97.84)" gradientUnits="userSpaceOnUse"><stop offset="0.2" stop-color="#68c1dd"/><stop offset="0.83" stop-color="#68c1dd"/></linearGradient><linearGradient id="linear-gradient-13" x1="10682.63" y1="383.85" x2="12679.42" y2="383.85" gradientTransform="matrix(-1, 0, 0, 1, 10578.59, 0)" xlink:href="#linear-gradient-12"/><linearGradient id="linear-gradient-14" x1="9800.55" y1="527.37" x2="9775.55" y2="579.52" gradientTransform="matrix(-1, 0, 0, 1, 10578.59, 0)" gradientUnits="userSpaceOnUse"><stop offset="0.01" stop-color="#5abd89"/><stop offset="0.1" stop-color="#5abd89"/><stop offset="1" stop-color="#5abd89"/></linearGradient><linearGradient id="linear-gradient-15" x1="9753.14" y1="460.55" x2="9756.23" y2="794.22" gradientTransform="matrix(1, 0, 0, -1, -8931.77, 1362.08)" gradientUnits="userSpaceOnUse"><stop offset="0.29" stop-color="#609351"/><stop offset="0.73" stop-color="#6bb25e"/><stop offset="1" stop-color="#70bf64"/></linearGradient><linearGradient id="linear-gradient-16" x1="8958.52" y1="402.4" x2="8787.26" y2="644.78" xlink:href="#linear-gradient-5"/><linearGradient id="linear-gradient-17" x1="8865.58" y1="510.82" x2="9207.13" y2="510.82" gradientTransform="matrix(-1, 0.03, 0.03, 1, 10542.6, -62.79)" gradientUnits="userSpaceOnUse"><stop offset="0.08" stop-color="#29b473"/><stop offset="0.17" stop-color="#24b06d"/><stop offset="0.64" stop-color="#0a9b50"/><stop offset="0.9" stop-color="#009345"/></linearGradient><linearGradient id="linear-gradient-18" x1="10266.73" y1="233.96" x2="10382.78" y2="151.02" gradientTransform="matrix(-1, 0, 0, 1, 10578.59, 0)" gradientUnits="userSpaceOnUse"><stop offset="0" stop-color="#91d5e3" stop-opacity="0.44"/><stop offset="0.17" stop-color="#a4dce8" stop-opacity="0.61"/><stop offset="0.37" stop-color="#b6e3ed" stop-opacity="0.78"/><stop offset="0.55" stop-color="#c4e8f1" stop-opacity="0.9"/><stop offset="0.7" stop-color="#ccebf3" stop-opacity="0.97"/><stop offset="0.81" stop-color="#cfecf4"/></linearGradient><linearGradient id="linear-gradient-19" x1="10492.23" y1="289.46" x2="10569.49" y2="234.24" xlink:href="#linear-gradient-18"/><linearGradient id="linear-gradient-20" x1="9684.71" y1="217.67" x2="9887.12" y2="147.68" xlink:href="#linear-gradient-18"/></defs><g class="cls-2"><g id="Layer_1" data-name="Layer 1"><g class="cls-3"><g class="cls-4"><rect class="cls-1" x="-11" y="-25.35" width="1931" height="981.6"/><path class="cls-5" d="M59.78,765.27,61,762.49s2.47-5.58-4.5-3c0,0-4.8-4.16-7.56.2,0,0-3-4.52-5.44,1.06,0,0-13-4.06-9,3.55,0,0-11.19-3.29-8.6,5,0,0-15.31-3-8.83,8.25l51.33-1.18s-3-3.37-3.3-4.59-4.21-1.73-4.21-1.73,5.74.16,5.45-1.06-5.74-.15-5.74-.15,7.26-1.42,4.87-3.5S59.78,765.27,59.78,765.27Z"/><rect class="cls-1" x="-11" y="-25.35" width="1931" height="981.6"/><path class="cls-6" d="M387.6,897.45l1197.28-1v11.86Q1006.63,914,428.51,910q-199.08-1.4-398.13-3.92l11-40.1a849.24,849.24,0,0,0,154.64,30.79A942.54,942.54,0,0,0,387.6,897.45Z"/><rect class="cls-1" x="254.11" y="592.83" width="1367.42" height="158.19" transform="translate(1875.63 1343.85) rotate(-180)"/><rect class="cls-7" x="-479.64" y="126.38" width="2606.85" height="455.74" transform="translate(1647.57 708.5) rotate(-180)"/><path class="cls-8" d="M1633.47,515.89c-1.6-.2-216-98.75-488.59,49.63,12.11,0,498.72,2,498.72,2Z"/><path class="cls-9" d="M1700.94,513.53c-3.18-.35-430.33-169.13-973.48,85,24.14,0,993.68,3.38,993.68,3.38Z"/><path class="cls-10" d="M1527.88,432.1a181.61,181.61,0,0,1-74,31.27c-14.11,2.56-42.78,7.46-75.07-1.54-42.07-11.73-46.64-34.9-75.26-39.86-38.3-6.64-72,27.61-99.54,48.8-40.46,31.12-109,65.87-230.56,73.81l575.44,3.87Q1538.39,490.27,1527.88,432.1Z"/><path class="cls-11" d="M1648,570.09s-11.3-19.9-29.1-10c0,0-20.16-9.69-40.42,0-6-11.18-38,.57-42.85,8.11-13.7-18.29-48.14-16.33-54.55-5.39-17.41-13.9-46.8-7.4-51.89-.49-17.41-9.36-20.41,5.88-20.41,5.88Z"/><path class="cls-12" d="M1540.16,661.14s20.9-111.2,0-199.19-38-62.22-46-12.23-15.56,171.72,2.7,211.42S1540.16,661.14,1540.16,661.14Z"/><path class="cls-13" d="M1533.08,724.11s21.83-71.88,0-128.76-39.64-40.22-48-7.91-16.25,111,2.82,136.67S1533.08,724.11,1533.08,724.11Z"/><path class="cls-14" d="M625.3,589.79a51.38,51.38,0,0,0,2.64-9.31c1.25-6.85.76-12.15.24-17.29-.92-9.25-2.9-13.81-3.76-15.64-1.45-3.06-2.8-5.83-4.77-5.93-3.42-.17-6.24,7.9-7.1,10.37-2,5.87-2.2,10.66-2.32,16.36-.31,14,2.58,19.34,4,21.44C615.22,591.32,616.38,592.56,625.3,589.79Z"/><path class="cls-14" d="M368.6,593.9a50.35,50.35,0,0,0,2.64-9.31c1.25-6.84.76-12.15.25-17.28-.93-9.25-2.9-13.81-3.77-15.64-1.45-3.07-2.8-5.84-4.76-5.94-3.42-.17-6.24,7.9-7.11,10.38-2.05,5.87-2.19,10.65-2.32,16.36-.31,14,2.58,19.34,4,21.43C358.53,595.44,359.69,596.67,368.6,593.9Z"/><path class="cls-14" d="M259.94,593.9a50.35,50.35,0,0,0,2.64-9.31c1.25-6.84.76-12.15.24-17.28-.92-9.25-2.89-13.81-3.76-15.64-1.45-3.07-2.8-5.84-4.76-5.94-3.43-.17-6.24,7.9-7.11,10.38-2.05,5.87-2.19,10.65-2.32,16.36-.31,14,2.58,19.34,4,21.43C249.87,595.44,251,596.67,259.94,593.9Z"/><path class="cls-14" d="M541.92,593.9a51.14,51.14,0,0,0,2.64-9.31c1.24-6.84.75-12.15.24-17.28-.93-9.25-2.9-13.81-3.76-15.64-1.45-3.07-2.81-5.84-4.77-5.94-3.42-.17-6.24,7.9-7.1,10.38-2,5.87-2.2,10.65-2.33,16.36-.31,14,2.58,19.34,4,21.43C531.84,595.44,533,596.67,541.92,593.9Z"/><path class="cls-14" d="M485.78,591a50.35,50.35,0,0,0,2.64-9.31c1.25-6.84.76-12.15.24-17.28-.92-9.25-2.89-13.81-3.76-15.64-1.45-3.07-2.8-5.84-4.76-5.94-3.43-.17-6.24,7.9-7.11,10.38-2,5.87-2.19,10.65-2.32,16.36-.31,14,2.58,19.33,4,21.43C475.71,592.56,476.86,593.79,485.78,591Z"/><path class="cls-14" d="M669.57,598.39a56.83,56.83,0,0,0,1.35-7.42,71.34,71.34,0,0,0,.13-13.8,54,54,0,0,0-1.93-12.47c-.75-2.45-1.44-4.66-2.45-4.74-1.75-.14-3.2,6.3-3.64,8.28a58.93,58.93,0,0,0-1.19,13c-.16,11.21,1.32,15.43,2,17.1C664.4,599.62,665,600.6,669.57,598.39Z"/><rect class="cls-15" x="-479.64" y="-24.67" width="2607.7" height="632.3" transform="translate(1648.42 582.96) rotate(-180)"/><path class="cls-16" d="M1091.92,160.6s-1.07-7.32-14.71-12.33-25.11-7.71-37-1.93-9.33,18.89-6.82,20.43c4.88,3,15.38,6.93,43.42,3.08C1093.72,167.54,1091.92,160.6,1091.92,160.6Z"/><path class="cls-17" d="M592.13,192.61s-1.56-9.28-21.33-15.62-36.43-9.77-53.6-2.45-13.53,23.93-9.89,25.88c7.07,3.8,22.3,8.78,63,3.91C594.73,201.4,592.13,192.61,592.13,192.61Z"/><path class="cls-18" d="M1931.23,157.33s-1.08-7.32-14.71-12.34-25.12-7.71-37-1.92-9.33,18.89-6.81,20.43c4.87,3,15.37,6.93,43.41,3.08C1933,164.27,1931.23,157.33,1931.23,157.33Z"/><path class="cls-19" d="M1720.36,170.61s-1.09-6.47-14.86-10.89-25.37-6.8-37.34-1.7-9.42,16.67-6.88,18c4.92,2.64,15.53,6.11,43.85,2.72C1722.17,176.73,1720.36,170.61,1720.36,170.61Z"/><path class="cls-20" d="M174.68,432.88l-.12,176.79,1953.4.89.09-144.68-12.34.32-.75,13.57h-11.09l.38-21.16-65.37,1.57,0,17.56-76.49.36-3.17-236.39-17-1.2-20.52,3.78v-2.2h3v-2.38h-2.4v-6.2H1921v6.79h-4.44v-5.59h-1.66v5.79l-3.71,1.19.36,1.8h.94v1.6l-3.51.4v12l-12.74-1.21v-2.2h-.75v1.8h-2.75V235.1l-15-.61V232.1h-1.48v-5.8h1.3v-2.19h-4.43v8.78H1872v3h-9.41v-4.6h-3.69v3h1.27l-.18,2.6-18.83,2.2.16,30.95-11.47,1.38V275l-2,2.19,2.31,166.71-12.58-.8-7.76.2-.74-19.37-8.29-.8V412.54l-35.29-.42v-4.38l-26.77-.22v-4.39h-3l0-25.55-1.93-2.1V362.2h-8V352h-3.31v1h-4.07V336.84l-.93.79v3.21l-2.22.39v1.2h-2.78l-.18-2-1.48-.4v2l-3.87.19-.55-1.8-2.23-.2-.55,1.8-4.43.2.19-1.6-2,.21V342h-3.68v-2.4l-.94-.4-.18-3.19h-1.66l-.39,6-4.6.19-.19-4.59-1.12.2-.54,4.39-3.33,1-.18-5.38h-.74l-.19,5.58-3.5.61-.74-1.6v-2.2l-1.84.2-.19,4.2.73,1.19-.18,9.38-6.1.4L1666.7,365l-.94.19-.74,1.59-3.32-.18-.16-17-1.68.2-.55,17.57-16.45.79,1.62,81.85h-2.22v1.8l-.75.61.18,2.38,1.12.42.35,17.37-2.21.59v2.19h1.48l.18,6.39-11.83-.2c.56,0-.37,2.4-.37,2.4l-6.46.19.92,2.38,1.12.61h1.65l-.75,11.78-1.48,1v13h-2.76l-1.18-153.73L1603,355.75v-9.18l-21.25-3.41v-1.4h-5.54l-.74,1L1525,344.93v10.19l-20.34,1.59.38-18-7-2.4-3-32.55-61.89.77-4.07,34.35-11.47.19.2-3.79-2,.19-2-27.56-8.33-1.19.42-54.52-24.58.19-15.7,1.81.06-78.28-11.27-3.4h-6.28v-3.19h-1.1v2.79l-16.82-.6V168h-1.1v3.19l-10-.6v2h-2v-1.81h-12.57l-15.33,5.59-21-1.61-5.36,2.79,1.92,164.92-15,2.19-.53-24.17-8,.21V300.49l-20.68-2.41.57-27-2.58-1.6-10.54-1.2,0-26.56-2-1.19s-9.42-1.61-8.86-1.61-27.33-22.76-27.33-22.76h-5.54l-27.53,22.34-1.32.39-.36,1.21-8.68,1.58.17,27.36-13.31,1.8.15,44.92-26.58.59-.75-7.59h-1.29l-.37,5h-1.3l.18,2.61-47.65,1.17-.19,7.19-14.8-1.59-.53-13.79-10.52-.4-4.07-11.18-.36-5.2h-2.39l-.94,4.2h-4v-1H993.2V297l-25.12-3.2v-1.6h1.28v-3.39h-7.93V294l-6.47.21V292l-2.77-3-2.4.2v3l1.48.21-.74,2.18-1.49.2-.56,4.2.18,1.59-1.3-.19v3.79h-1.1v2.79H934.82l.87,84.66h7.57l.16,27.15-4.42.41,0,32.94-3.89.18V432.52l-2.21-.4-.19-6.4-19.4,1.2v-2H893.73v1.79h-8.51l-.1-106.21-1.29-1-2.42-.2-.18-1-1.85-.39-.53-.81-5.72-.2-.2-1.19-4.07-.21V303.71l-6.45-3.4-39.74,1.38V300.3h-4.43v1.2l-18.46-.21-.57,16.38-16.63.19.62,195.06-3-.21-.09-133-1.3-.2-.18-3-10.89.2v2.59h-3.14v-1.6H753.92v1.41h-1.86l.42-69.29L737.33,303l.2-11.57-13.67-7-41.39.59v5.37l-2.76-.18-3.5-1.41v-1.78h-1.48l-.93,1-9.6-.22v-2h.93l2.12-2.29-1.67-1.79-2.3-2.51H660.5v-6.18h-2v6.6l-23.28-.42v-1.79h-2.05V280L630,281.45l-.18,2.18,2.4,4-.38,9-1.85,1.2h-4.62l.2.79-1.68.2V312h-9.59v-1.78l-1.66-1.81-2.59,2-.43,66.29-2.77.79v15l-7.94.6.18,15.77-3.52.59-.37,8.2-2,.79L593,448.93l-1.3.19L591.8,523l-.72-.19-.57-2h-6.09v1.59c0,.79-.56.79-.56.79l-.18,2L572,525l.57-11s2-2.2,3.14-2.4l.36-1.39h-4.42v-1.4l-4.24.2v.59l-1.49.81-.18.59h-3.69l-.38-1a4.89,4.89,0,0,0-2-1.2c-1.3-.39-2,1.6-2,1.6H553.4l.55-12.18-2.22-.4.22-46.92-3.52-3.39H536.62l-.29-117.61-3.89-.2V318.93l-2.57.19-.19,2.2-1.65-.4.18-2-17.54.19-7.58-23.55-.36-4-.75-.8-.9-6.39L500,290.76,498.86,292l-.56,3.6-6.67,24.55-41.73,1-5.56.19L439,325.87l-.39,24.55-1.67.41-.74,2-1.67.21.13,86.85H421.73l-8.32,6,.17,12.58-3.88.59.19,12.19-6.86.19,0,36.33H399.7v-5l-19.59-1.4v-8.58l-1.68-1.8h-2.57l-.37-18.56-7-5H365V465.6h1.86V450.23l-9.25-5.4-41.21.58v16.17l2.06,2-.2,3.19H307l-.18,7.8,1.09.8-.72,1.39L294,488.13l-7.57.19v17.77h-8.86l0,43.92H262.4l.08-117.59h-15v-2h-2v2.2h-2.57v-1.8h-1.67v1.8h-4.6v-3.39h-1.11v3.19l-17.37.78v-2.59l-1.48-.6-.56.6-.35,1.6h-2.6v-4h-4.06v3.6h-2.78v-2.2h-4.43v2l-.75-.2L198.57,429v3.4Z"/><path class="cls-21" d="M-1837.71,431.64l-.13,193.43L158.85,626,159,467.67l-12.62.36-.77,14.85H134.24l.39-23.15-66.82,1.72,0,19.21-78.19.4L-13.63,222.4-31,221.09l-21,4.13v-2.41h3v-2.61h-2.46v-6.78H-52.7v7.43h-4.54v-6.12h-1.69v6.33l-3.79,1.3.37,2h1v1.75l-3.59.43v13.11l-13-1.32v-2.41h-.77v2H-81.6V215.17l-15.29-.66v-2.63H-98.4v-6.34h1.33v-2.39h-4.54v9.6h-1.15V216h-9.61v-5h-3.78v3.28h1.3l-.19,2.84-19.24,2.41.16,33.86-11.72,1.51v3.94l-2.08,2.39,2.35,182.42-12.86-.87-7.92.21-.76-21.2-8.47-.87V409.32l-36.07-.45v-4.8l-27.37-.24V399H-242l0-28-2-2.3V354.25h-8.22V343.1h-3.37v1.09h-4.16V326.5l-.94.87v3.5l-2.28.44v1.3h-2.83l-.19-2.19-1.51-.43v2.18l-3.95.22-.57-2-2.28-.22-.56,2-4.53.21.2-1.75-2.09.23v1.31H-285v-2.63l-1-.43-.19-3.49h-1.7l-.39,6.54-4.71.22-.19-5-1.15.22-.55,4.81-3.4,1.08-.18-5.89h-.76l-.19,6.11-3.58.66-.76-1.75v-2.4l-1.88.21-.19,4.6.74,1.3-.18,10.27-6.24.43-1.14,10.27-.95.22-.76,1.74-3.39-.2-.16-18.58-1.72.22-.57,19.22-16.81.86,1.65,89.57h-2.27v2l-.78.67.19,2.6,1.14.45.36,19-2.26.65v2.39h1.51l.19,7-12.09-.22c.57,0-.38,2.62-.38,2.62l-6.61.22.94,2.6,1.15.67h1.69l-.77,12.9-1.52,1.08v14.2h-2.82l-1.2-168.21-18.88-3.73v-10l-21.71-3.73v-1.54h-5.67l-.76,1.1-51.54,2.38V346.5l-20.79,1.75.38-19.66L-485,326l-3-35.61-63.27.84-4.16,37.58-11.72.21.2-4.14-2.08.2-2.05-30.15-8.51-1.31.43-59.65-25.12.21-16.05,2,.06-85.66-11.51-3.71h-6.43v-3.49h-1.11v3.05l-17.2-.66v-3.94h-1.13v3.49l-10.2-.65v2.18h-2.08v-2h-12.85l-15.67,6.12L-720,149.12l-5.48,3,2,180.45-15.3,2.4-.54-26.45-8.13.23,0-22.06-21.15-2.63.59-29.5-2.64-1.76-10.78-1.3,0-29.07-2.07-1.3s-9.63-1.76-9.06-1.76-27.92-24.9-27.92-24.9h-5.67L-854.26,219l-1.35.43-.37,1.32-8.87,1.74.17,29.93-13.6,2,.15,49.16-27.17.64-.77-8.3h-1.31l-.38,5.44h-1.33l.18,2.86-48.7,1.28-.19,7.87-15.14-1.75-.53-15.08-10.76-.44-4.16-12.23-.37-5.69h-2.44l-1,4.6h-4.14V281.6H-1001v1.3l-25.68-3.5v-1.76h1.32v-3.7h-8.1v5.68l-6.61.23v-2.42l-2.83-3.28-2.46.22v3.27l1.51.24-.76,2.39-1.51.21-.58,4.6.19,1.74-1.33-.21v4.15H-1049v3.05h-11.71l.88,92.63h7.74l.17,29.7-4.52.44,0,36.05-4,.2V431.22l-2.26-.44-.19-7-19.84,1.31V422.9h-20v2h-8.7l-.09-116.21-1.32-1.1-2.47-.22-.19-1.1-1.88-.42-.55-.89-5.85-.22-.2-1.3-4.16-.24V290.27l-6.6-3.71-40.62,1.51v-1.53h-4.52v1.31l-18.87-.23-.59,17.92-17,.21.63,213.44-3-.24-.09-145.48-1.33-.22-.19-3.27-11.13.21V373h-3.2v-1.76h-10.95v1.53h-1.9l.43-75.81-15.49-7.44.21-12.67-14-7.65-42.31.65v5.88l-2.82-.21L-1325,274v-2h-1.51l-1,1.09-9.81-.24v-2.17h.94l2.17-2.52-1.7-2-2.35-2.75h-2.85v-6.77h-2.07V264l-23.79-.46v-2H-1369v2.84l-3.21,1.54-.19,2.39,2.46,4.37-.39,9.83-1.89,1.31H-1377l.2.87-1.72.22v14.41h-9.8v-2l-1.7-2-2.65,2.19-.43,72.52-2.84.87v16.39l-8.11.65.17,17.25-3.59.65-.38,9-2.07.87-.2,33.42-1.33.22.12,80.83-.73-.22-.59-2.17h-6.22v1.74c0,.87-.57.87-.57.87l-.19,2.19-11.91-.23.58-12s2.08-2.4,3.21-2.62l.37-1.52h-4.52v-1.54l-4.33.22v.65l-1.52.89-.19.65h-3.77l-.39-1.11a4.89,4.89,0,0,0-2.07-1.3c-1.33-.44-2.07,1.75-2.07,1.75h-4.34l.56-13.33-2.27-.43.23-51.35-3.6-3.71h-12.07L-1468,319l-4-.22V306.94l-2.62.22-.2,2.4-1.69-.43.19-2.19-17.93.21-7.75-25.78-.37-4.38-.76-.87-.92-7-1.14,7-1.14,1.31-.58,3.94-6.81,26.85-42.66,1.09-5.68.21-5.47,5-.4,26.86-1.7.45-.76,2.17-1.7.23.12,95h-13.21l-8.5,6.54.17,13.77-4,.65.19,13.33-7,.21,0,39.76h-3.37v-5.46l-20-1.53v-9.39l-1.71-2H-1632l-.37-20.31-7.16-5.48h-3.6v-2h1.9V450.61l-9.45-5.9-42.13.63V463l2.1,2.19-.2,3.49h-11.52l-.19,8.53,1.12.87-.74,1.52-13.42,12.46-7.74.21,0,19.44h-9.06l0,48.06H-1748l.08-128.67h-15.28v-2.18h-2.08v2.4h-2.62v-2h-1.72v2h-4.71v-3.71h-1.13v3.49l-17.76.86v-2.84l-1.52-.65-.57.65-.36,1.75h-2.66v-4.37h-4.15v3.94h-2.84V428h-4.53v2.18l-.77-.21-2.64-2.64v3.72Z"/><path class="cls-14" d="M597.78,586.32a57,57,0,0,0,1.35-7.43,71.23,71.23,0,0,0,.13-13.79,54.21,54.21,0,0,0-1.93-12.48c-.75-2.44-1.44-4.66-2.45-4.73-1.75-.14-3.2,6.3-3.64,8.27a58.48,58.48,0,0,0-1.19,13.06c-.16,11.21,1.32,15.43,2,17.1C592.61,587.55,593.2,588.53,597.78,586.32Z"/><path class="cls-22" d="M789.36,561.88a58.85,58.85,0,0,0,1.36-7.43,70.36,70.36,0,0,0,.12-13.79c-.47-7.38-1.48-11-1.93-12.48-.74-2.45-1.43-4.66-2.44-4.74-1.76-.13-3.2,6.31-3.65,8.28a59.54,59.54,0,0,0-1.19,13c-.16,11.21,1.32,15.43,2,17.11C784.2,563.1,784.79,564.09,789.36,561.88Z"/><rect class="cls-23" x="1401.76" y="741.63" width="159.26" height="18.77" transform="translate(2962.79 1502.04) rotate(-180)"/><rect class="cls-23" x="1035.41" y="741.63" width="185.69" height="18.77" transform="translate(2256.51 1502.04) rotate(-180)"/><rect class="cls-24" x="1221.1" y="741.63" width="180.67" height="18.77" transform="translate(2622.86 1502.04) rotate(-180)"/><rect class="cls-24" x="834.5" y="741.63" width="200.91" height="18.77" transform="translate(1869.91 1502.04) rotate(-180)"/><rect class="cls-24" x="429.31" y="741.63" width="200.91" height="18.77" transform="translate(1059.53 1502.04) rotate(-180)"/><rect class="cls-23" x="627.73" y="741.63" width="206.77" height="18.77" transform="translate(1462.23 1502.04) rotate(-180)"/><rect class="cls-23" x="247.69" y="741.63" width="206.77" height="18.77" transform="translate(702.14 1502.04) rotate(-180)"/><polygon class="cls-25" points="1561.02 741.63 1549.14 734.72 1391.6 734.72 1401.76 741.63 1561.02 741.63"/><path class="cls-26" d="M1401.76,741.63l-10.17-6.91-176.54.53,6.24,6.38Z"/><path class="cls-25" d="M1220.34,741.63l-5.67-6-181.82-.87,2.56,6.91Z"/><polygon class="cls-26" points="1035.41 741.63 1032.85 734.72 836.61 734.72 834.5 741.63 1035.41 741.63"/><polygon class="cls-25" points="836.61 734.72 640.28 734.72 627.73 741.63 834.5 741.63 836.61 734.72"/><polygon class="cls-26" points="640.28 734.72 468.74 734.72 454.46 741.63 630.22 741.63 640.28 734.72"/><polygon class="cls-25" points="454.46 741.63 322.62 741.63 329.25 734.72 468.74 734.72 454.46 741.63"/><polygon class="cls-26" points="1618.77 741.63 1561.02 741.63 1549.14 734.72 1618.77 734.72 1618.77 741.63"/><rect class="cls-27" x="-479.64" y="599.71" width="2606.1" height="162.67" transform="translate(1646.82 1362.08) rotate(-180)"/><path class="cls-28" d="M732.49,606.67s-11.3-19.9-29.11-10c0,0-20.16-9.68-40.42,0-6-11.17-37.94.58-42.84,8.12-13.7-18.29-48.14-16.34-54.56-5.39-17.4-13.9-46.79-7.41-51.88-.49-17.42-9.36-20.41,5.88-20.41,5.88Z"/><path class="cls-28" d="M790.09,602.19s-11.31-19.9-29.11-10.05c0,0-20.16-9.68-40.42,0-6-11.17-37.95.58-42.85,8.12-13.7-18.29-48.14-16.33-54.55-5.39-17.41-13.9-46.8-7.4-51.88-.49-17.42-9.36-20.42,5.88-20.42,5.88Z"/><path class="cls-28" d="M521.3,604.27s-11.3-19.9-29.1-10c0,0-20.16-9.69-40.42,0-6-11.17-37.95.57-42.85,8.11-13.7-18.29-48.14-16.33-54.55-5.39-17.41-13.89-46.8-7.4-51.88-.49-17.42-9.36-20.42,5.88-20.42,5.88Z"/><path class="cls-28" d="M286.25,605.83s-11.31-19.9-29.11-10c0,0-20.16-9.69-40.42,0-6-11.17-37.95.57-42.85,8.11-13.69-18.29-48.14-16.33-54.55-5.39-17.41-13.89-46.79-7.4-51.88-.49C50,588.67,47,603.9,47,603.9Z"/><rect class="cls-6" x="-53.43" y="849.71" width="1296.44" height="78.51" transform="translate(1189.57 1777.94) rotate(-180)"/><polygon class="cls-29" points="2128.27 575.78 2128.27 644 1208.96 644 1208.96 579.31 2128.27 575.78"/><rect class="cls-30" x="1208.96" y="567.55" width="919.31" height="7.66" transform="translate(3337.23 1142.76) rotate(-180)"/><rect class="cls-31" x="1208.96" y="559.96" width="919.31" height="15.25" transform="translate(3337.23 1135.17) rotate(-180)"/><g class="cls-32"><rect class="cls-33" x="1810.01" y="583.31" width="17.19" height="8.52"/><rect class="cls-33" x="1801.41" y="593.91" width="17.19" height="8.52"/></g><g class="cls-32"><rect class="cls-33" x="1742.74" y="616.43" width="17.19" height="8.52"/><rect class="cls-33" x="1734.14" y="627.03" width="17.19" height="8.52"/></g><g class="cls-32"><rect class="cls-33" x="1571.07" y="584.35" width="17.19" height="8.52"/><rect class="cls-33" x="1562.47" y="594.95" width="17.19" height="8.52"/></g><g class="cls-32"><rect class="cls-33" x="1398.44" y="588.61" width="17.19" height="8.52"/><rect class="cls-33" x="1389.85" y="599.21" width="17.19" height="8.52"/></g><g class="cls-32"><rect class="cls-33" x="1497.88" y="606.87" width="17.19" height="8.52"/><rect class="cls-33" x="1489.28" y="617.47" width="17.19" height="8.52"/></g><g class="cls-32"><rect class="cls-33" x="1233.95" y="588.61" width="17.19" height="8.52"/><rect class="cls-33" x="1225.36" y="599.21" width="17.19" height="8.52"/></g><g class="cls-32"><rect class="cls-33" x="1835.64" y="615.39" width="17.19" height="8.52"/></g><g class="cls-32"><rect class="cls-33" x="1910.19" y="621.73" width="17.19" height="8.52"/><rect class="cls-33" x="1901.59" y="632.33" width="17.19" height="8.52"/></g><polygon class="cls-29" points="-479.64 573.17 -479.64 646.69 1223.56 644.03 1223.56 576.84 -479.64 573.17"/><rect class="cls-34" x="-479.64" y="573.17" width="2624.95" height="8.86"/><rect class="cls-31" x="-500.16" y="562.62" width="1709.11" height="12.54"/><g class="cls-32"><rect class="cls-35" x="516.11" y="592.24" width="19.67" height="8.36"/><rect class="cls-35" x="525.94" y="602.64" width="19.67" height="8.36"/><rect class="cls-35" x="579.27" y="613.84" width="19.67" height="8.36"/><rect class="cls-35" x="589.11" y="624.24" width="19.67" height="8.36"/><rect class="cls-35" x="775.72" y="582.35" width="19.67" height="8.36"/><rect class="cls-35" x="785.55" y="592.76" width="19.67" height="8.36"/><rect class="cls-35" x="804.29" y="591.99" width="19.67" height="8.36"/><rect class="cls-35" x="814.13" y="602.39" width="19.67" height="8.36"/><rect class="cls-35" x="690.51" y="609.91" width="19.67" height="8.36"/><rect class="cls-35" x="700.34" y="620.31" width="19.67" height="8.36"/><rect class="cls-35" x="1161.49" y="602.89" width="19.67" height="8.36"/><rect class="cls-35" x="1171.32" y="613.3" width="19.67" height="8.36"/><rect class="cls-35" x="472.96" y="629.18" width="19.67" height="8.36"/><rect class="cls-35" x="319.71" y="597.19" width="19.67" height="8.36"/><rect class="cls-35" x="363.52" y="624.49" width="19.67" height="8.36"/><rect class="cls-35" x="373.36" y="634.9" width="19.67" height="8.36"/><rect class="cls-35" x="174.45" y="591.99" width="19.67" height="8.36"/><rect class="cls-35" x="184.28" y="602.39" width="19.67" height="8.36"/></g><g class="cls-32"><rect class="cls-36" x="-9.96" y="592.37" width="19.67" height="8.36"/><rect class="cls-36" x="8.78" y="591.6" width="19.67" height="8.36"/><rect class="cls-36" x="18.61" y="602" width="19.67" height="8.36"/><rect class="cls-36" x="365.97" y="602.5" width="19.67" height="8.36"/><rect class="cls-36" x="375.81" y="612.91" width="19.67" height="8.36"/></g><g class="cls-37"><path class="cls-38" d="M433.26,534.34h12.62v-5.1a3.08,3.08,0,0,1-1.83-2.7,3.7,3.7,0,0,1,7.31,0,3.06,3.06,0,0,1-1.83,2.7v5.1h106v-5.1a3.08,3.08,0,0,1-1.83-2.7,3.7,3.7,0,0,1,7.31,0,3.08,3.08,0,0,1-1.83,2.7v5.1h106v-5.1a3.08,3.08,0,0,1-1.83-2.7,3.7,3.7,0,0,1,7.31,0,3.08,3.08,0,0,1-1.83,2.7v5.1h106v-5.1a3.08,3.08,0,0,1-1.83-2.7,3.7,3.7,0,0,1,7.31,0,3.08,3.08,0,0,1-1.83,2.7v5.1H884.31v-5.1a3.07,3.07,0,0,1-1.82-2.7,3.7,3.7,0,0,1,7.31,0,3.08,3.08,0,0,1-1.83,2.7v5.1H993.92v-5.1a3.07,3.07,0,0,1-1.82-2.7,3.7,3.7,0,0,1,7.3,0,3.07,3.07,0,0,1-1.82,2.7v5.1h105.95v-5.1a3.08,3.08,0,0,1-1.83-2.7,3.7,3.7,0,0,1,7.31,0,3.07,3.07,0,0,1-1.82,2.7v5.1h71.24V539h-71.24V559.3h-3.66V539H997.58V559.3h-3.66V539H888V559.3h-3.66V539H778.36V559.3h-3.65V539h-106V559.3H665.1V539h-106V559.3h-3.65V539h-106V559.3h-3.65V539H433.26Z"/><path class="cls-39" d="M888.62,526.76c-1.6,1.2-4.39-1.1-2.88-2.39C887.48,522.88,890.21,525.55,888.62,526.76Z"/><path class="cls-39" d="M779,526.76c-1.6,1.2-4.39-1.1-2.88-2.39C777.88,522.88,780.6,525.55,779,526.76Z"/><path class="cls-39" d="M669.4,526.72c-1.59,1.21-4.39-1.09-2.87-2.38C668.27,522.85,671,525.52,669.4,526.72Z"/><path class="cls-39" d="M998.23,526.72c-1.6,1.21-4.39-1.09-2.88-2.38C997.09,522.85,999.82,525.52,998.23,526.72Z"/><path class="cls-40" d="M1101.7,534.34h1.83v-5.1a3.08,3.08,0,0,1-1.83-2.7,3.13,3.13,0,0,1,2.16-2.84,2.68,2.68,0,0,0-.33,1.28,3.43,3.43,0,0,0,3.66,3.12,4.12,4.12,0,0,0,1.5-.28,3.75,3.75,0,0,1-3.33,1.84,3.48,3.48,0,0,1-.73-.07V559.3h-1.1V539H997.58v-1.56H1101.7Z"/><path class="cls-40" d="M882.49,537.46v-3.12h1.82v-5.07a3.06,3.06,0,0,1-1.82-2.7,3.14,3.14,0,0,1,2.15-2.84,2.68,2.68,0,0,0-.33,1.28,3.43,3.43,0,0,0,3.66,3.12,4.12,4.12,0,0,0,1.5-.28,3.71,3.71,0,0,1-3.33,1.84,4.4,4.4,0,0,1-.73-.06v29.7h-1.1V539H778.36v-1.56Z"/><path class="cls-40" d="M772.88,537.46v-3.12h1.83v-5.07a3.07,3.07,0,0,1-1.83-2.7,3.14,3.14,0,0,1,2.15-2.84,2.67,2.67,0,0,0-.32,1.28,3.42,3.42,0,0,0,3.65,3.12,4.08,4.08,0,0,0,1.5-.28,3.7,3.7,0,0,1-3.33,1.84,4.4,4.4,0,0,1-.73-.06v29.7h-1.09V539h-106v-1.56Z"/><path class="cls-40" d="M663.27,537.46v-3.12h1.83v-5.1a3.08,3.08,0,0,1-1.83-2.7,3.13,3.13,0,0,1,2.15-2.84,2.79,2.79,0,0,0-.32,1.28,3.42,3.42,0,0,0,3.65,3.12,4.08,4.08,0,0,0,1.5-.28,3.72,3.72,0,0,1-3.33,1.84,3.54,3.54,0,0,1-.73-.07V559.3H665.1V539h-106v-1.56Z"/><path class="cls-40" d="M553.66,534.34h1.83v-5.1a3.08,3.08,0,0,1-1.83-2.7,3.13,3.13,0,0,1,2.15-2.84,2.79,2.79,0,0,0-.32,1.28,3.42,3.42,0,0,0,3.65,3.12,4,4,0,0,0,1.5-.28,3.72,3.72,0,0,1-3.32,1.84,3.48,3.48,0,0,1-.73-.07V559.3h-1.1V539h-106v-1.56H553.66Z"/><path class="cls-40" d="M992.1,537.46v-3.12h1.82v-5.1a3.07,3.07,0,0,1-1.82-2.7,3.12,3.12,0,0,1,2.15-2.84,2.68,2.68,0,0,0-.33,1.28,3.43,3.43,0,0,0,3.66,3.12,4.12,4.12,0,0,0,1.5-.28,3.73,3.73,0,0,1-3.33,1.84,3.54,3.54,0,0,1-.73-.07V559.3h-1.1V539H888v-1.56Z"/></g><g class="cls-37"><path class="cls-38" d="M-294.23,534.19h12.62v-5.1a3.08,3.08,0,0,1-1.83-2.7,3.42,3.42,0,0,1,3.65-3.12,3.42,3.42,0,0,1,3.66,3.12,3.08,3.08,0,0,1-1.83,2.7v5.1h106v-5.1a3.06,3.06,0,0,1-1.83-2.7,3.41,3.41,0,0,1,3.65-3.12,3.42,3.42,0,0,1,3.66,3.12,3.08,3.08,0,0,1-1.83,2.7v5.1h106v-5.1a3.07,3.07,0,0,1-1.82-2.7,3.41,3.41,0,0,1,3.65-3.12,3.41,3.41,0,0,1,3.65,3.12,3.07,3.07,0,0,1-1.82,2.7v5.1h106v-5.1a3.07,3.07,0,0,1-1.82-2.7A3.41,3.41,0,0,1,49,523.27a3.41,3.41,0,0,1,3.65,3.12,3.07,3.07,0,0,1-1.82,2.7v5.1h106v-5.1a3.08,3.08,0,0,1-1.83-2.7,3.7,3.7,0,0,1,7.31,0,3.06,3.06,0,0,1-1.83,2.7v5.1h106v-5.1a3.08,3.08,0,0,1-1.83-2.7,3.7,3.7,0,0,1,7.31,0,3.08,3.08,0,0,1-1.83,2.7v5.1H376v-5.1a3.08,3.08,0,0,1-1.83-2.7,3.7,3.7,0,0,1,7.31,0,3.08,3.08,0,0,1-1.83,2.7v5.1h71.25v4.68H379.69v20.28H376V538.87h-106v20.28h-3.65V538.87h-106v20.28h-3.65V538.87H50.87v20.28H47.21V538.87H-58.74v20.28H-62.4V538.87H-168.35v20.28H-172V538.87H-278v20.28h-3.65V538.87h-12.62Z"/><path class="cls-39" d="M161.12,526.61c-1.59,1.2-4.39-1.1-2.87-2.39C160,522.73,162.72,525.4,161.12,526.61Z"/><path class="cls-39" d="M51.51,526.61c-1.59,1.2-4.38-1.1-2.87-2.39C50.38,522.73,53.11,525.4,51.51,526.61Z"/><path class="cls-39" d="M270.73,526.57c-1.59,1.21-4.39-1.09-2.87-2.39C269.6,522.7,272.32,525.37,270.73,526.57Z"/><path class="cls-40" d="M374.21,534.19H376v-5.1a3.08,3.08,0,0,1-1.83-2.7,3.14,3.14,0,0,1,2.15-2.85,2.83,2.83,0,0,0-.32,1.29,3.42,3.42,0,0,0,3.65,3.12,4.3,4.3,0,0,0,1.5-.28,3.72,3.72,0,0,1-3.33,1.84,4.4,4.4,0,0,1-.73-.07v29.71H376V538.87h-106v-1.56H374.21Z"/><path class="cls-40" d="M155,537.31v-3.12h1.83v-5.07a3.08,3.08,0,0,1-1.83-2.7,3.14,3.14,0,0,1,2.16-2.84,2.68,2.68,0,0,0-.33,1.28,3.42,3.42,0,0,0,3.65,3.12,4.14,4.14,0,0,0,1.51-.28,3.73,3.73,0,0,1-3.33,1.84,4.32,4.32,0,0,1-.73-.06v29.7h-1.1V538.87H50.87v-1.56Z"/><path class="cls-40" d="M45.39,537.31v-3.12h1.82v-5.07a3.07,3.07,0,0,1-1.82-2.7,3.13,3.13,0,0,1,2.15-2.84,2.68,2.68,0,0,0-.33,1.28A3.43,3.43,0,0,0,50.87,528a4.12,4.12,0,0,0,1.5-.28A3.73,3.73,0,0,1,49,529.54a4.32,4.32,0,0,1-.73-.06v29.7h-1.1V538.87H-58.74v-1.56Z"/><path class="cls-40" d="M264.6,537.31v-3.12h1.83v-5.1a3.08,3.08,0,0,1-1.83-2.7,3.15,3.15,0,0,1,2.15-2.85,2.83,2.83,0,0,0-.32,1.29,3.42,3.42,0,0,0,3.65,3.12,4.26,4.26,0,0,0,1.5-.28,3.72,3.72,0,0,1-3.32,1.84,4.3,4.3,0,0,1-.73-.07v29.71h-1.1V538.87h-106v-1.56Z"/></g><g class="cls-37"><path class="cls-38" d="M1525.44,535.77h12.62v-5.11a3.07,3.07,0,0,1-1.83-2.69,3.7,3.7,0,0,1,7.31,0,3.05,3.05,0,0,1-1.83,2.69v5.11h106v-5.11a3.07,3.07,0,0,1-1.83-2.69,3.7,3.7,0,0,1,7.31,0,3.07,3.07,0,0,1-1.83,2.69v5.11h106v-5.11a3.07,3.07,0,0,1-1.83-2.69,3.7,3.7,0,0,1,7.31,0,3.07,3.07,0,0,1-1.83,2.69v5.11h106v-5.11a3.07,3.07,0,0,1-1.83-2.69,3.7,3.7,0,0,1,7.31,0,3.07,3.07,0,0,1-1.83,2.69v5.11h106v-5.11a3.06,3.06,0,0,1-1.82-2.69,3.7,3.7,0,0,1,7.31,0,3.07,3.07,0,0,1-1.83,2.69v5.11H2086.1v-5.11a3.06,3.06,0,0,1-1.82-2.69,3.7,3.7,0,0,1,7.3,0,3.06,3.06,0,0,1-1.82,2.69v5.11h105.95v-5.11a3.06,3.06,0,0,1-1.82-2.69,3.7,3.7,0,0,1,7.3,0,3.06,3.06,0,0,1-1.82,2.69v5.11h71.24v4.68h-71.24v20.28h-3.66V540.45H2089.76v20.28h-3.66V540.45H1980.15v20.28h-3.66V540.45h-106v20.28h-3.65V540.45h-106v20.28h-3.65V540.45h-106v20.28h-3.65V540.45h-106v20.28h-3.65V540.45h-12.62Z"/><path class="cls-39" d="M1871.19,528.18c-1.6,1.21-4.39-1.09-2.88-2.38C1870.06,524.31,1872.78,527,1871.19,528.18Z"/><path class="cls-39" d="M1761.58,528.15c-1.59,1.21-4.39-1.09-2.87-2.39C1760.45,524.28,1763.17,527,1761.58,528.15Z"/><path class="cls-40" d="M1974.67,538.89v-3.12h1.82V530.7a3.07,3.07,0,0,1-1.82-2.7,3.13,3.13,0,0,1,2.15-2.84,2.68,2.68,0,0,0-.33,1.28,3.43,3.43,0,0,0,3.66,3.12,4.12,4.12,0,0,0,1.5-.28,3.73,3.73,0,0,1-3.33,1.84,4.4,4.4,0,0,1-.73-.06v29.7h-1.1V540.45h-106v-1.56Z"/><path class="cls-40" d="M1865.06,538.89v-3.12h1.83V530.7a3.08,3.08,0,0,1-1.83-2.7,3.13,3.13,0,0,1,2.15-2.84,2.67,2.67,0,0,0-.32,1.28,3.42,3.42,0,0,0,3.65,3.12,4.08,4.08,0,0,0,1.5-.28,3.72,3.72,0,0,1-3.33,1.84,4.4,4.4,0,0,1-.73-.06v29.7h-1.09V540.45h-106v-1.56Z"/><path class="cls-40" d="M1755.45,538.89v-3.12h1.83v-5.11a3.07,3.07,0,0,1-1.83-2.69,3.15,3.15,0,0,1,2.15-2.85,2.83,2.83,0,0,0-.32,1.29,3.42,3.42,0,0,0,3.65,3.12,4.3,4.3,0,0,0,1.5-.28,3.72,3.72,0,0,1-3.33,1.84,4.4,4.4,0,0,1-.73-.07v29.71h-1.09V540.45h-106v-1.56Z"/><path class="cls-40" d="M1645.84,535.77h1.83v-5.11a3.07,3.07,0,0,1-1.83-2.69,3.15,3.15,0,0,1,2.15-2.85,2.83,2.83,0,0,0-.32,1.29,3.42,3.42,0,0,0,3.65,3.12,4.26,4.26,0,0,0,1.5-.28,3.72,3.72,0,0,1-3.32,1.84,4.3,4.3,0,0,1-.73-.07v29.71h-1.1V540.45h-106v-1.56h104.13Z"/></g><g class="cls-37"><path class="cls-38" d="M792.47,535.77h12.62v-5.11a3.07,3.07,0,0,1-1.83-2.69,3.7,3.7,0,0,1,7.31,0,3.07,3.07,0,0,1-1.83,2.69v5.11h106v-5.11a3.06,3.06,0,0,1-1.82-2.69,3.7,3.7,0,0,1,7.31,0,3.07,3.07,0,0,1-1.83,2.69v5.11H1024.3v-5.11a3.06,3.06,0,0,1-1.82-2.69,3.7,3.7,0,0,1,7.3,0,3.06,3.06,0,0,1-1.82,2.69v5.11h106v-5.11a3.06,3.06,0,0,1-1.82-2.69,3.7,3.7,0,0,1,7.3,0,3.06,3.06,0,0,1-1.82,2.69v5.11h106v-5.11a3.07,3.07,0,0,1-1.83-2.69,3.7,3.7,0,0,1,7.31,0,3.07,3.07,0,0,1-1.83,2.69v5.11h106v-5.11a3.07,3.07,0,0,1-1.83-2.69,3.7,3.7,0,0,1,7.31,0,3.07,3.07,0,0,1-1.83,2.69v5.11h106v-5.11a3.07,3.07,0,0,1-1.83-2.69,3.7,3.7,0,0,1,7.31,0,3.07,3.07,0,0,1-1.83,2.69v5.11h71.25v4.68h-71.25v20.28h-3.65V540.45h-106v20.28h-3.65V540.45h-106v20.28h-3.65V540.45h-106v20.28h-3.66V540.45H1028v20.28h-3.66V540.45H918.35v20.28h-3.66V540.45h-106v20.28h-3.65V540.45H792.47Z"/><path class="cls-39" d="M1247.82,528.18c-1.59,1.21-4.39-1.09-2.87-2.38C1246.69,524.31,1249.42,527,1247.82,528.18Z"/><path class="cls-39" d="M1138.21,528.18c-1.59,1.21-4.38-1.09-2.87-2.38C1137.08,524.31,1139.81,527,1138.21,528.18Z"/><path class="cls-39" d="M1028.61,528.15c-1.6,1.21-4.39-1.09-2.88-2.39C1027.47,524.28,1030.2,527,1028.61,528.15Z"/><path class="cls-39" d="M1357.43,528.15c-1.59,1.21-4.39-1.09-2.87-2.39C1356.3,524.28,1359,527,1357.43,528.15Z"/><path class="cls-40" d="M1460.91,535.77h1.83v-5.11a3.07,3.07,0,0,1-1.83-2.69,3.14,3.14,0,0,1,2.15-2.85,2.83,2.83,0,0,0-.32,1.29,3.42,3.42,0,0,0,3.65,3.12,4.3,4.3,0,0,0,1.5-.28,3.72,3.72,0,0,1-3.33,1.84,4.4,4.4,0,0,1-.73-.07v29.71h-1.09V540.45h-106v-1.56h104.13Z"/><path class="cls-40" d="M1241.69,538.89v-3.12h1.83V530.7a3.08,3.08,0,0,1-1.83-2.7,3.14,3.14,0,0,1,2.16-2.84,2.68,2.68,0,0,0-.33,1.28,3.42,3.42,0,0,0,3.65,3.12,4.14,4.14,0,0,0,1.51-.28,3.75,3.75,0,0,1-3.33,1.84,4.32,4.32,0,0,1-.73-.06v29.7h-1.1V540.45h-106v-1.56Z"/><path class="cls-40" d="M1132.09,538.89v-3.12h1.82V530.7a3.07,3.07,0,0,1-1.82-2.7,3.13,3.13,0,0,1,2.15-2.84,2.68,2.68,0,0,0-.33,1.28,3.43,3.43,0,0,0,3.66,3.12,4.12,4.12,0,0,0,1.5-.28,3.75,3.75,0,0,1-3.33,1.84,4.32,4.32,0,0,1-.73-.06v29.7h-1.1V540.45H1028v-1.56Z"/><path class="cls-40" d="M1022.48,538.89v-3.12h1.82v-5.11a3.06,3.06,0,0,1-1.82-2.69,3.14,3.14,0,0,1,2.15-2.85,2.72,2.72,0,0,0-.33,1.29,3.43,3.43,0,0,0,3.66,3.12,4.35,4.35,0,0,0,1.5-.28,3.73,3.73,0,0,1-3.33,1.84,4.4,4.4,0,0,1-.73-.07v29.71h-1.1V540.45H918.35v-1.56Z"/><path class="cls-40" d="M912.87,535.77h1.82v-5.11a3.06,3.06,0,0,1-1.82-2.69,3.14,3.14,0,0,1,2.15-2.85,2.72,2.72,0,0,0-.33,1.29,3.43,3.43,0,0,0,3.66,3.12,4.35,4.35,0,0,0,1.5-.28,3.73,3.73,0,0,1-3.33,1.84,4.4,4.4,0,0,1-.73-.07v29.71h-1.1V540.45h-106v-1.56H912.87Z"/><path class="cls-40" d="M1351.3,538.89v-3.12h1.83v-5.11a3.07,3.07,0,0,1-1.83-2.69,3.15,3.15,0,0,1,2.15-2.85,2.83,2.83,0,0,0-.32,1.29,3.42,3.42,0,0,0,3.65,3.12,4.26,4.26,0,0,0,1.5-.28,3.72,3.72,0,0,1-3.32,1.84,4.53,4.53,0,0,1-.74-.07v29.71h-1.09V540.45h-106v-1.56Z"/></g><rect class="cls-41" x="307.48" y="760.41" width="1298.32" height="89.31" transform="translate(1913.28 1610.12) rotate(-180)"/><path class="cls-42" d="M1732.85,643.12s20.91-111.2,0-199.19-37.95-62.22-46-12.23-15.56,171.72,2.7,211.42S1732.85,643.12,1732.85,643.12Z"/><rect class="cls-43" x="-480.39" y="704.1" width="2607.6" height="263.51" transform="translate(1646.82 1671.72) rotate(-180)"/><path class="cls-44" d="M1690.63,716.84S1692.9,696,1673.79,703c-19.81-14.76-50.85-12.22-59.61,6.79-18.35-25.48-32.45-29.48-56-19-30.82-19.92-58.11,5-58.93,22.06-20-15.62-49.66-17.47-67.33,1.77-30.64-17.52-61.62-12.92-77.5,10.16,165.73,15,341.9,7.13,341.9,7.13Z"/><polygon class="cls-45" points="1605.8 760.4 1416.89 760.4 1325.31 849.72 1605.8 849.72 1605.8 760.4"/><path class="cls-46" d="M1435.48,682.41s76.33,19.74,63.58,42.55c-19.24,17.17-36.76,30-18,33.59s84.91,1.51,78.87,31.69c16.94,25.25,3,118.55,35.56,121.42,103.54,9.13,524,134.5,531,0,1.81-34.52,0-149.29,0-229.17Z"/><path class="cls-47" d="M1391.72,759.65s93,3.27,110.85-16.36a9.26,9.26,0,0,0,2.7-5.78c.54-12.38,1.53-4.07,3.15-8.33.82-2.17-23.66-17.6-12.24-17.53,7.87.05,52,.84,57.13-11.85,1-2.38,1.19-6.86-6-14.93l-212.76-3.73-20,3q5.74,4.5,11.49,9.27A483.69,483.69,0,0,1,1391.72,759.65Z"/><path class="cls-48" d="M892,759.65s-190.67,3.22-227.33-16.09c-33.2-17.48,95.33-29,44-32.18S547.34,701.72,628,692.07l381.33-9.66,7.34,3.22s0,9.65-7.34,9.65S892,759.65,892,759.65Z"/><path class="cls-6" d="M1061.57,669.54s7.12-5.11,7.12-9.66c0-3.22-3.56-6.43-7.12-3.22,0,0-3.57-16.09-10.69-6.43,0,0,0-9.66-7.12,3.22,0,0-14.82-18-10.69,3.21,0,0-15.37-15.9-14.24,6.44,0,0-28.49-22-21.37,9.66,0,0-32.05-6.44-21.37,16.09,0,0-39.17,0-32.05,16.09,0,0-14.43-7.45-17.81-6.44-10.68,3.22,3.57,12.88,3.57,12.88s-15.56.33-17.81,6.43c-3.56,9.66,10.68,12.88,10.68,12.88s-172.77,8.87-203,22.53c-49.86,22.53,67.66,51.49,67.66,51.49,45.38-3.7,79.42-8,102.67-11.27,13-1.85,38.64-5.69,76.59-10.51,17.62-2.23,16.4-1.95,26.71-3.33,77.52-10.33,85.3-18.09,87.9-24,1.57-3.58.82-9.69-1.84-21.7-2.49-11.28-10.58-35.41-10.58-35.41s7-6.43,7-9.65-7.12-6.44-7.12-6.44,10.79-3.22,10.79-6.44-10.79,0-10.79,0,10.88-2.44,11.34-7.32a3,3,0,0,0-.55-2.33C1076.5,662.92,1062.82,669,1061.57,669.54Z"/><path class="cls-48" d="M1058,682.41s7.13-5.1,7.13-9.65c0-3.22-3.56-6.44-7.13-3.22,0,0-3.56-16.09-10.68-6.44,0,0,0-9.65-7.12,3.22,0,0-14.82-18-10.69,3.22,0,0-15.37-15.91-14.24,6.43,0,0-21.37-18.74-14.25,12.88,0,0-24.93-3.22-14.24,12.87,0,0-24.93-6.44-21.37,9.66,0,0-14.43-1-17.81,0-10.68,3.22-7.12,19.31-7.12,19.31s0,6.43,10.68,9.65c.24.07.36.15.36.22.06,3.28-225.6.38-228.28,22.31-1,8.48,29,19.27,50.09,23.54,27.2,5.51,43.41,1,78.09-3.29,40.43-5,142.35-13.9,163.75-15.79a85,85,0,0,0,34.21-11.84s20.3-12.43,24.76-30.07a20.75,20.75,0,0,0,.22-9.12,17.46,17.46,0,0,0-1.22-3.41c1.61-5.84.45-9.19-.89-11.17-2.11-3.1-7.12-6.44-7.12-6.44h0s10.79-3.21,10.79-6.43-10.79,0-10.79,0,14.35-3.22,10.79-9.66S1058,682.41,1058,682.41Z"/><path class="cls-6" d="M1288.55,684.32l-3.45-7.53s-6.88-15.06,6.89-11.29c0,0,6.89-15.06,13.77-3.77,0,0,3.45-15.06,10.34,0,0,0,21.77-19.49,17.77,5.32,0,0,18.84-16.17,17.75,10,0,0,26.46-17.72,19.57,19.27,0,0,20.66-27,31.8,14.4,0,0,44-33.89,40.51,15.06,0,0,39.7-24.3,23.3,8.56,0,0,24.91-8.56,18,10.26,0,0,10.33,3.77,10.33,7.53,0,16-17.21,7.54-17.21,7.54s13.77,15.06-3.45,7.53c13.78,22.59-13.77,18.82-13.77,18.82s48.21,3.77,79.2,15.06,20.66,30.12,6.89,26.36c55.52,4.26,95.37,34,99.86,67.77,5.09,38.33-36.7,71.55-43.48,76.94-53.55,42.57-91,8.18-232,11.87-102.13,2.68-166.52,20.14-257.9-19.53-3.89-1.69-7.37-3.46-10.69-5.27l-137.74-64c41.32,7.53,296.25-9.92,334-60.24,28-37.27-15.55-72.43-17.22-82.84-2.13-13.24,6.89-26.35,6.89-26.35s-6.89-15.06-6.89-18.83,6.89-7.53,6.89-7.53-10.33,3.77-10.33,0,10.33-3.76,10.33-3.76-13.78,0-10.33-7.53S1288.55,684.32,1288.55,684.32Z"/><path class="cls-43" d="M1064.34,694.05l2.34-4.56s4.69-9.11-4.68-6.83c0,0-4.69-9.12-9.37-2.28,0,0-2.35-9.12-7,0,0,0-14.82-11.8-12.1,3.22,0,0-12.82-9.79-12.08,6,0,0-18-10.72-13.31,11.66,0,0-6.63-15-14.21,10.09,0,0-28.49-3.22-24.93,12.87,0,0-28.49,0-14.24,9.66,0,0-3.57,6.43,3.56,6.43,0,0,98.44-15.87,96.15-12.87s9.9-8.35,9.9-8.35,4.69-9.12,4.69-11.4-4.69-4.55-4.69-4.55,7,2.27,7,0-7-2.28-7-2.28,9.37,0,7-4.56S1064.34,694.05,1064.34,694.05Z"/><path class="cls-5" d="M1047.16,710.5l1.15-4.17s2.3-8.35-7-3.38c0,0-7.7-5.06-10.68,1.61,0,0-5.2-5.88-7.49,2.46,0,0-19.3-3.47-12,6.62,0,0-16.58-2.7-11.11,8.67,0,0-22.38-1.57-10.75,13.25l72.58-10.71s-5-4.26-5.68-5.93-6.35-1.71-6.35-1.71,8.18-.79,7.5-2.47-8.17.79-8.17.79,10-3.29,6.15-5.82S1047.16,710.5,1047.16,710.5Z"/><polygon class="cls-48" points="735.42 772.66 45.56 775.53 50.35 845.62 782.11 845.62 841.43 809.14 735.42 772.66"/><path class="cls-49" d="M652.81,725.47s124.38,20,82.89,25.86-1215.34,11-1215.34,11l-.75-58.27Z"/><path class="cls-49" d="M1525.42,750.15c-39.93,0-85.57,2.78-89.06,16.79-.37,1.49-1.68,8.76,17.41,21.67,47,31.78,108.78,24.16,164.14,22.5,30.93-.92-14.65,2.25,167.67,12.16,0,0,161,8.77,342.69,13.22h0l-1.06-123.86q-693-17.53-695.24,10.47Q1431.13,733.49,1525.42,750.15Z"/><polygon class="cls-50" points="840.7 797.83 289.94 788.37 290.13 849.41 939.29 849.41 840.7 797.83"/><path class="cls-51" d="M297,195.62c-.89-2.53-22.76-13.67-45-9.38-23,6.48-32.59,19.29-10.39,20.76a226.91,226.91,0,0,0,45.79-1.83C292.8,204.43,299.83,203.63,297,195.62Z"/><path class="cls-52" d="M76.47,263.93c-.58-1.68-15.15-9.09-29.92-6.24-15.34,4.32-21.7,12.85-6.93,13.82a150.08,150.08,0,0,0,30.49-1.22C73.67,269.8,78.34,269.27,76.47,263.93Z"/><path class="cls-53" d="M892.54,196.46s-40.08-21.64-83.49-12.19c-44.28,9.64-16.86,28.08,24.08,26.46,43.35-1.62,59.41-2.52,59.41-2.52S920.28,205.09,892.54,196.46Z"/><path class="cls-5" d="M413.83,759.94l1.24-2.79s2.47-5.58-4.51-2.94c0,0-4.79-4.16-7.55.2,0,0-3-4.52-5.45,1.06,0,0-13-4.07-9,3.54,0,0-11.19-3.29-8.59,5,0,0-15.32-3-8.83,8.24l51.33-1.17s-3-3.37-3.3-4.59-4.21-1.73-4.21-1.73,5.73.16,5.44-1.06-5.74-.16-5.74-.16,7.27-1.41,4.87-3.49S413.83,759.94,413.83,759.94Z"/><path class="cls-5" d="M283.52,769.69l1.24-2.79s2.47-5.58-4.51-2.95c0,0-4.79-4.16-7.55.2,0,0-3-4.52-5.45,1.06,0,0-13-4.06-9,3.55,0,0-11.19-3.29-8.59,5,0,0-15.32-3-8.83,8.24l51.33-1.17s-3-3.38-3.3-4.6-4.22-1.72-4.22-1.72,5.74.15,5.45-1.07-5.74-.15-5.74-.15,7.27-1.42,4.87-3.5S283.52,769.69,283.52,769.69Z"/><path class="cls-5" d="M201.31,771.22l1.24-2.79s2.47-5.57-4.51-2.94c0,0-4.79-4.16-7.55.2,0,0-3-4.52-5.45,1.06,0,0-13-4.06-9,3.55,0,0-11.18-3.29-8.59,5,0,0-15.32-3-8.83,8.25L210,782.41s-3-3.37-3.3-4.59-4.21-1.73-4.21-1.73,5.73.16,5.44-1.06-5.73-.15-5.73-.15,7.26-1.42,4.86-3.5S201.31,771.22,201.31,771.22Z"/><path class="cls-5" d="M179.89,762.49s-.87-3.14-4.9-1.42c-5-2.44-7.47-.36-7.54,1.1-3.82-2.7-7.6.15-7.5,1.49-3.75-3.91-6.45-3-8.74-1.12-5.42-2.44-8.18-.62-8.22,1.26-5.41-3.12-6.9,5.08-6.9,5.08h45.75Z"/><path class="cls-5" d="M262.61,764.71s-3.1-6.81-8.08-1.13c.19,6.56.19,8.59.19,8.59l8.17-.07Z"/><path class="cls-5" d="M184.38,763.26s-3.23-2.28-6.07,0a63.51,63.51,0,0,1-6.87,1.06l25.93.83v-7s-2.24-2.89-5.26,0c-2.35,3-1.34,3.19-1.34,3.19a4,4,0,0,0-4.54,0l-1.85,2"/><path class="cls-5" d="M418.61,765.86s6.13-.1,5.81,2.75c3-1.85,4.89,1.71,4.89,1.71,1.9-1.57,5.53,0,5.53,0l6.94.72-21.46.14Z"/><path class="cls-5" d="M371.53,764.52a3.4,3.4,0,0,0-5.51,0c-3-.47-7.07,1.13-6.22,2.75-4.2-1.37-6.09,1.25-6.09,1.25s-4.11-.48-5.06,1.8c-3.15-1.42-5.52-1.42-6.15,0-4.74-.42-12,.86-12,.86l40.68,1.12Z"/><polygon class="cls-6" points="766.23 788.9 62.69 784.37 62.69 794.28 799.33 797.17 766.23 788.9"/><polygon class="cls-48" points="1239.95 982.08 -479.64 952.27 -467.46 878.88 997.36 880.83 1239.95 982.08"/><path class="cls-54" d="M1074,710.4s104.43,87.48-513,78.06L24.1,785.56l-5.34,82.86h0s180.19-1.31,316.65-2c356.93-1.68,422.36,1.16,568.1-8.43,80.81-5.32,146.11-11.82,186-16.12,111.31.43,183.79-38.71,190.09-78.72,2.58-16.41-7.35-36-36.75-59.08C1074.88,702.66,1074,710.4,1074,710.4Z"/><path class="cls-50" d="M1201.81,705S1331,804.85,641.75,788.46c-1072.86-2.29-1121.33-4.09-1121.33-4.09l-.81,84,1658-2.94s379.2-25.84,211.9-161.37C1196.21,703.17,1201.81,705,1201.81,705Z"/><path class="cls-6" d="M593.77,773.25s-1121.67-12-1090.44,11.12c24.21,1.4,1328.18,7.27,1360.55,1.8s121.57-7.47,141.6-16.44c20.57-4.23,63.61-16,75.43-36.07,0,0,5-14.28-6.92-23.26-5.79.32,22.27,34-79.85,51.37S753.67,782.52,747,779s-66.35,3.3-65.91-3.72C672.42,772.71,593.77,773.25,593.77,773.25Z"/><rect class="cls-55" x="1706.27" y="652.66" width="10.59" height="29.67" transform="translate(3423.13 1335) rotate(-180)"/><path class="cls-1" d="M764.79,672.76c-3.84,1.77-33.67,22.52-33.67,22.52H948.44s10.86-8.93,27.65-6.43l-4.29-5.35-202.31,1.74Z"/><path class="cls-56" d="M764.79,672.76l-33.67,22.52H948.44s8.38-8.93,27.65-6.43l-4.29-5.35-202.31,1.74Z"/><rect class="cls-1" x="-54.01" y="124.01" width="1940.65" height="995.78" transform="translate(1831.55 1245.38) rotate(-179.9)"/><ellipse class="cls-55" cx="1772.07" cy="762.25" rx="29.34" ry="5.44"/><path class="cls-48" d="M2126.46,818.89c-18.06-2.34-38.28,11.12-147.08,0s-213.4-13-259-14.18-237.41-6-257.62-7.55-10.47,18.32,40.51,30.81,52.48,37.25,11.77,46.08-250,36.64-156.79,37.61,768.18,0,768.18,0l1.81-57.08"/><path class="cls-49" d="M2128.32,852.27h0c-49.89-.95-196.47-3.94-260.44-7.5-77.73-4.31-243.15-23.36-270.61-9.63s23.46,43.24,50.75,43.91-15,2.71-68.36,5.9-51.25,26.71-51.25,26.71h598.05"/><ellipse class="cls-55" cx="1955.53" cy="742.69" rx="111.29" ry="17.17"/><path class="cls-57" d="M1884.57,699.08c-7.35,66.89-22.25,119.1,41.56,108.36,68.2,4.69,53.22-37.72,44.45-110.86-7.63-63.57-27.9-144.25-47.42-136.49C1905.09,567.27,1891.57,635.45,1884.57,699.08Z"/><path class="cls-58" d="M1884.57,699.08c-7.35,66.89-22.25,119.1,41.56,108.36-33.72-25.22-32.79-35.21-25.43-102.1,7-63.62,11.08-106.86,22.46-145.25C1905.09,567.27,1891.57,635.45,1884.57,699.08Z"/><rect class="cls-59" x="1783.22" y="846.36" width="10.43" height="50.75" transform="translate(3578.15 1740.86) rotate(179.92)"/><path class="cls-57" d="M1745.83,759.91c-7.35,66.88-22.25,119.1,41.56,108.36,68.19,4.69,53.21-37.72,44.44-110.87-7.62-63.57-27.89-144.24-47.41-136.48C1766.35,628.09,1752.83,696.28,1745.83,759.91Z"/><path class="cls-58" d="M1745.83,759.91c-7.35,66.88-22.25,119.1,41.56,108.36-33.72-25.22-32.79-35.21-25.44-102.1,7-63.63,11.09-106.86,22.47-145.25C1766.35,628.09,1752.83,696.28,1745.83,759.91Z"/><path class="cls-60" d="M1787.39,868.27c68.19,4.69,53.21-37.72,44.44-110.87-7.62-63.57-27.89-144.24-47.41-136.48C1815.52,669.59,1840.18,882.86,1787.39,868.27Z"/><ellipse class="cls-55" cx="1694.88" cy="785.55" rx="26.26" ry="7.91"/><ellipse class="cls-49" cx="620.68" cy="743.85" rx="28.47" ry="4.58"/><g class="cls-61"><ellipse cx="1650.73" cy="752.58" rx="88.68" ry="17.69"/></g><ellipse class="cls-62" cx="1650.73" cy="747.11" rx="86.67" ry="17.29"/><path class="cls-63" d="M1563.05,743.77c0,23,175.35,23,175.35,0S1563.05,720.73,1563.05,743.77Z"/><g class="cls-64"><path class="cls-65" d="M1631.63,727.41l-60.8,22.26c-3.27-1.81-5.12-3.86-5.12-6.16C1565.71,734.1,1596.5,728.73,1631.63,727.41Z"/></g><g class="cls-66"><path class="cls-65" d="M1723.2,734.33c7.9,2.39,12.68,5.4,12.68,9,0,11.08-44.31,16.34-86.39,15.79Z"/></g><path class="cls-67" d="M1599.07,693.06a8.63,8.63,0,0,1,6.38-1.72l45.36,5.78V699l-45.64-5.81a6.41,6.41,0,0,0-4.74,1.28,5.21,5.21,0,0,0-2,4.08V731a2,2,0,0,1-2.07,0V698.56A7,7,0,0,1,1599.07,693.06Z"/><g class="cls-68"><path class="cls-69" d="M1596.31,731V698.56a6.72,6.72,0,0,1,.16-1.42l1.91,4V731A2,2,0,0,1,1596.31,731Z"/></g><g class="cls-68"><polygon class="cls-69" points="1650.52 698.97 1617.26 694.74 1629.49 694.4 1650.54 697.08 1650.52 698.97"/></g><g class="cls-68"><path class="cls-69" d="M1585,753.49l60.16-9.89a.65.65,0,0,1-.15-.38c0-.32.3-.61.82-.86L1596.31,731h2.07l48.35,11a15.45,15.45,0,0,1,4-.47,14.6,14.6,0,0,1,4.33.57l59.94-8.32,1,.82-59.83,8.08a.73.73,0,0,1,.3.53c0,.29-.26.57-.71.81l50.73,11-1.55.31-50.1-11a15.3,15.3,0,0,1-4.14.51,13.58,13.58,0,0,1-4.69-.7l-60.19,9.65Z"/></g><path class="cls-70" d="M1585,753.49c.83.86,1.34.54,2.07,0V712.12a5.63,5.63,0,0,1,5.14-5.36L1708,692.25a6.34,6.34,0,0,1,4.73,1.28,5.2,5.2,0,0,1,2,4.08v36.81a1.88,1.88,0,0,0,2.07,0V697.61a7,7,0,0,0-2.75-5.5,8.59,8.59,0,0,0-6.37-1.72L1591.88,704.9a7.59,7.59,0,0,0-6.93,7.22Z"/><polygon class="cls-71" points="1693.43 694.07 1651.23 699.36 1651.42 697.44 1677.11 694.22 1693.43 694.07"/><path class="cls-72" d="M1653.28,741.42l.9-44.68c.08-4.23-7-4.28-6.91,0l.74,44.68C1648.06,744.53,1653.22,744.56,1653.28,741.42Z"/><g class="cls-68"><path class="cls-69" d="M1650.73,694a6.59,6.59,0,0,1,2.52.44,3,3,0,0,1,.65.87c-.23.56-1.55,1-3.17,1s-3-.43-3.19-1a3.22,3.22,0,0,1,.62-.83A6.35,6.35,0,0,1,1650.73,694Z"/></g><g class="cls-64"><polygon class="cls-65" points="1653.49 700.76 1652.62 742.1 1651.21 742.99 1650.88 701.84 1653.49 700.76"/></g><g class="cls-68"><polygon class="cls-69" points="1653.93 698.98 1647.53 712.34 1647.48 709.36 1652.1 698.36 1653.93 698.98"/></g><path class="cls-70" d="M1648.68,698.86a1,1,0,0,1-.89.93l-6.12.76a1,1,0,0,1-1.16-.77,1,1,0,0,1,.88-1.08l6.12-.77A1,1,0,0,1,1648.68,698.86Z"/><path class="cls-73" d="M1645,690.17c0,6.81,11.36,6.82,11.36,0S1645,683.34,1645,690.17Z"/><path class="cls-74" d="M1645,690.17a5.34,5.34,0,0,1,.08-.92l10.62,3.46a4.93,4.93,0,0,1-2.22,2l-8.31-3.16A5.31,5.31,0,0,1,1645,690.17Z"/><path class="cls-74" d="M1656.4,690.17a4.93,4.93,0,0,1-.06.78l-10.5-3.56a4.94,4.94,0,0,1,1.74-1.57l8.65,3A5.25,5.25,0,0,1,1656.4,690.17Z"/><g class="cls-66"><path class="cls-65" d="M1656,690a4.76,4.76,0,0,1-.27,1.56c-1.77-3.4-5.69-4.44-9.76-3.46C1647.8,683.86,1656,684.49,1656,690Z"/></g><g class="cls-68"><path class="cls-69" d="M1648.19,686c0,.41,1.13.74,2.54.74s2.54-.33,2.54-.74-1.14-.74-2.54-.74S1648.19,685.58,1648.19,686Z"/></g><path class="cls-70" d="M1647.8,683.44c0,3.51,5.84,3.51,5.84,0S1647.8,679.93,1647.8,683.44Z"/><path class="cls-67" d="M1653.28,697.43l2.15.27,44.18,5.62c3.94.51,6.91,3.61,6.91,7.22v44.52a1.63,1.63,0,0,1-2.07,0V710.54a5.64,5.64,0,0,0-5.13-5.36l-46-5.85-.34,0a1,1,0,0,1-.89-.93A1,1,0,0,1,1653.28,697.43Z"/><g class="cls-68"><path class="cls-69" d="M1653.33,699.33l-.34,0a1,1,0,0,1-.89-.93.84.84,0,0,1,.08-.32l35.52,5.66Z"/></g><g class="cls-64"><path class="cls-65" d="M1653.38,683.35a2.43,2.43,0,0,1-.1.68c-.55-1.82-2.51-2.56-4.55-2.24C1650.1,680.34,1653.38,680.85,1653.38,683.35Z"/></g><g class="cls-64"><path class="cls-65" d="M1648.09,683.7a5.12,5.12,0,0,0,3.86,1.9C1650.47,686.35,1648.16,685.71,1648.09,683.7Z"/></g><g class="cls-64"><path class="cls-65" d="M1645.64,691.14c2.58,2.48,4.67,2.82,7.8,2.91C1650.78,695.76,1646.22,695,1645.64,691.14Z"/></g><path class="cls-71" d="M1604.17,705.25l-12,1.51a5.63,5.63,0,0,0-5.14,5.36v41.37c-.73.54-1.24.86-2.07,0V712.12a7.59,7.59,0,0,1,6.93-7.22l12.66-1.59Z"/><path class="cls-75" d="M1772.05,899.85c40.61-21.1,84.39-5.92,84.39-5.92-20.31-7.78-5.71-42.21,47-38.88-2.41-18.31,24.44-32.24,71.25-19.89a11,11,0,0,0,2,2.65c1.85,1.76,4.2,3.1,6.15,4.77a12.58,12.58,0,0,0,6.89,3L1986,922.44l-375.78-.74C1635,908,1731.44,881.34,1772.05,899.85Z"/><path class="cls-75" d="M1.14,897.3C32.81,880.84,67,892.68,67,892.68c-15.83-6.07-4.45-32.92,36.62-30.32-1.89-14.28,19.05-25.15,55.56-15.52a8.11,8.11,0,0,0,1.56,2.07c1.44,1.38,3.28,2.42,4.8,3.72a9.86,9.86,0,0,0,5.37,2.38L168,914.91l-293-.58C-105.74,903.65-30.53,882.86,1.14,897.3Z"/><path class="cls-75" d="M154.76,852.59c1.45-.77,2.65-1.79,4.06-2.61.65-.38,1.74-.51.38-.41a11.52,11.52,0,0,0,6.51-2.53c37-10,58.19.94,56.3,15.32,41.07-2.6,52.45,24.25,36.61,30.32,0,0,34.14-11.84,65.81,4.62,31.67-14.44,106.88,6.35,126.18,17l-293,.58-3-62.24Z"/><path class="cls-75" d="M1338,895.56c31.67-16.46,65.82-4.62,65.82-4.62-15.84-6.07-4.46-32.92,36.61-30.32-1.88-14.28,19.06-25.14,55.56-15.51a8.52,8.52,0,0,0,1.57,2.06c1.44,1.38,3.27,2.42,4.8,3.72a9.78,9.78,0,0,0,5.37,2.39l-2.86,59.89-293-.58C1231.07,901.91,1306.29,881.12,1338,895.56Z"/><rect class="cls-1" x="-479.64" y="126.38" width="2606.85" height="785.28" transform="translate(1647.57 1038.04) rotate(-180)"/><rect class="cls-50" x="-17.55" y="642.84" width="1231.04" height="153.29"/><path class="cls-76" d="M1694.69,535.81l-18.93-22.65-276.31-25.9q-13.17,95.19-26.32,190.36l295.06,3.85Q1681.44,608.65,1694.69,535.81Z"/><path class="cls-77" d="M1694.69,535.81l-18.93-22.65-276.31-25.9-3.79,58.26-26.5,123h41.64l21.33-118.45L1690,566.3Q1692.32,551.06,1694.69,535.81Z"/><path class="cls-77" d="M1624.13,622.37,1629.7,580l-4.09-6.32s-22.4,20.23-51.1,40.86l4.09,6.32Z"/><path class="cls-78" d="M1625.76,577l-.76-3.19s-23.36-18.54-52.51-1.22l2,42Z"/><path class="cls-79" d="M1619.88,619.66l5.88-42.71s-23.61-18.52-53.1-1.18l2,42Z"/><polygon class="cls-80" points="1619.74 581.77 1615.17 601.09 1600.04 600.7 1601.78 579.78 1619.74 581.77"/><polygon class="cls-80" points="1578.76 580.27 1580.45 599.9 1595.52 601.03 1596.88 580.09 1578.76 580.27"/><polygon class="cls-80" points="1615.03 604.33 1599.9 603.93 1599.49 614.02 1614.64 614.03 1615.03 604.33"/><polygon class="cls-80" points="1580.99 603.45 1596.12 603.84 1595.71 613.92 1580.6 613.15 1580.99 603.45"/><path class="cls-77" d="M1511.28,619.89l3.14-42.54-4.44-6.12a647.5,647.5,0,0,1-48.7,43.19l4.44,6.12Z"/><path class="cls-78" d="M1510.32,574.45l-.94-3.15s-24.4-17.43-52.51,1.23l4.41,41.89Z"/><path class="cls-79" d="M1506.88,617.37l3.44-42.92s-24.64-17.4-53.1,1.3l4.4,41.89Z"/><polygon class="cls-80" points="1504.58 579.55 1501.11 599.05 1485.98 599.37 1486.53 578.4 1504.58 579.55"/><polygon class="cls-80" points="1463.57 579.95 1466.37 599.48 1481.49 599.9 1481.66 578.93 1463.57 579.95"/><polygon class="cls-80" points="1501.16 602.29 1486.03 602.6 1486.2 612.7 1501.32 612 1501.16 602.29"/><polygon class="cls-80" points="1467.12 603 1482.25 602.68 1482.41 612.78 1467.28 612.71 1467.12 603"/><polygon class="cls-77" points="1372.84 649.64 1672.3 657.69 1672.18 654.46 1672.18 654.46 1667.09 653.91 1372.63 643.93 1372.84 649.64"/><polygon class="cls-79" points="1377.9 648.17 1674.65 654.29 1675.87 648.99 1674.04 648.95 1672.19 648.9 1377.6 642.47 1377.9 648.17"/><polygon class="cls-81" points="1465.07 437.65 1463.18 447.42 1465.07 531.54 1455.21 537.13 1403.23 532.05 1409.46 433.38 1414.59 432.24 1465.07 437.65"/><path class="cls-76" d="M729.47,535.81l18.93-22.65,276.31-25.9q20.31,95.49,40.6,191L756,681.47Q742.72,608.65,729.47,535.81Z"/><path class="cls-77" d="M729.47,535.81l18.93-22.65,276.31-25.9q16.17,32.58,32.32,65.15l-59.81,3.13-261,8.37Q732.84,549.86,729.47,535.81Z"/><path class="cls-77" d="M852.22,621.77,855.35,583l-3-9.93s-17.8,24.71-49,42.2l7,7Z"/><path class="cls-78" d="M799,576.07l.86-3.18s24-17.89,52.53.21l-3.41,42Z"/><path class="cls-79" d="M803.45,618.91,799,576.07s24.21-17.88,53.11.26l-3.39,42Z"/><polygon class="cls-80" points="804.84 581.05 808.78 600.48 823.91 600.5 822.86 579.55 804.84 581.05"/><polygon class="cls-80" points="845.85 580.65 843.52 600.23 828.41 600.95 827.75 579.99 845.85 580.65"/><polygon class="cls-80" points="808.8 603.72 823.94 603.74 824.02 613.83 808.88 613.43 808.8 603.72"/><polygon class="cls-80" points="842.86 603.76 827.72 603.74 827.8 613.84 842.93 613.47 842.86 603.76"/><path class="cls-77" d="M974.28,621.56l3.13-38.74-3-9.93s-17.8,24.72-48.95,42.21l7,6.95Z"/><path class="cls-78" d="M921.05,575.86l.86-3.17s24-17.9,52.53.2l-3.41,42Z"/><path class="cls-79" d="M925.51,618.7l-4.46-42.84s24.21-17.88,53.11.26l-3.39,42Z"/><polygon class="cls-80" points="926.9 580.84 930.84 600.27 945.98 600.29 944.92 579.34 926.9 580.84"/><polygon class="cls-80" points="967.91 580.45 965.58 600.02 950.48 600.74 949.81 579.78 967.91 580.45"/><polygon class="cls-80" points="930.86 603.51 946 603.53 946.08 613.62 930.94 613.23 930.86 603.51"/><polygon class="cls-80" points="964.92 603.55 949.78 603.53 949.86 613.63 965 613.27 964.92 603.55"/><path class="cls-82" d="M666.62,537.89q1.07,6.35,2.12,12.68l364-13.92-11.79-17Z"/><path class="cls-83" d="M756.5,444.18,737,467.84l-70.42,70.05,364.55-13.31-14-92.34Z"/><path class="cls-82" d="M1749.52,534.56q-1.07,6.35-2.12,12.69l-364-13.93q5.89-8.51,11.8-17Z"/><path class="cls-83" d="M1659.63,440.85l19.46,23.67,70.43,70L1385,521.25l14-92.34Z"/><polygon class="cls-77" points="1051.32 650.04 751.84 657.29 751.96 654.05 751.96 654.05 757.06 653.52 1051.56 644.33 1051.32 650.04"/><polygon class="cls-79" points="1046.28 648.53 749.44 653.93 748.26 648.63 750.09 648.59 751.95 648.55 1046.63 642.83 1046.28 648.53"/><path class="cls-84" d="M1373,678.23s53-258.26,64.35-291.8c0,0-151.41-154.29-230.9-171.06A544.28,544.28,0,0,0,1116,266.94c-17.89,12.65-27.45,21.09-49.11,38.37s-53.62,41.94-95.2,71.06C982.53,423,994,469.47,1005.32,516c17.5,71.69,36.43,147.16,42.11,162.25Z"/><path class="cls-41" d="M1426.42,433.77q53.89.56,109.74,2.13,63.84,1.83,125.08,4.9-1.17-7.24-2.35-14.51l-229.15-6.52Q1428.08,426.78,1426.42,433.77Z"/><path class="cls-41" d="M986.86,438.21q-54.25.54-110.49,2.12-64.27,1.83-125.94,4.91l2.37-14.51,230.72-6.52Q985.2,431.22,986.86,438.21Z"/><path class="cls-76" d="M1429.41,430.29s10.15-42.66,12.68-50.14c0,0-154.63-157.57-235.81-174.7q-45,28-91.19,58.88c-52.88,35.39-97.22,69.55-143.37,104.37l11.8,55.51,226.63-152.64Z"/><ellipse class="cls-76" cx="1212.49" cy="334.1" rx="30.42" ry="26.01"/><ellipse class="cls-85" cx="1208.81" cy="326.22" rx="30.42" ry="26.01"/><ellipse class="cls-86" cx="1208.81" cy="329.37" rx="30.42" ry="26.01"/><ellipse class="cls-87" cx="1208.81" cy="329.37" rx="24.89" ry="21.28"/><ellipse class="cls-88" cx="1208.81" cy="328.59" rx="24.89" ry="20.5"/><polygon class="cls-83" points="1209.14 331.53 1214.36 331.59 1222.99 324.31 1211.47 327.53 1209.14 331.53"/><polygon class="cls-83" points="1207.88 331.98 1206.04 326.82 1207.88 313.06 1209.73 326.82 1207.88 331.98"/><path class="cls-76" d="M1278.32,678.23,1301,516.39A129.23,129.23,0,0,0,1259.39,484c-15.14-19.42-37.88-26.23-53-16.18l56.78,210.39Z"/><path class="cls-78" d="M1289.68,522.87l2.14-16.45s-72.7-77.59-161.08-3l0,9.72Z"/><path class="cls-79" d="M1270.75,678.23l19.85-163.09s-72.84-76.43-159.9-2l15.14,165.07Z"/><polygon class="cls-89" points="1278.32 519.63 1217.76 512.01 1217.76 608.14 1266.96 608.14 1278.32 519.63"/><polygon class="cls-89" points="1264.78 617.97 1218.81 618.88 1219.65 668.52 1260.17 668.17 1264.78 617.97"/><polygon class="cls-89" points="1142.05 519.63 1202.62 512.01 1202.62 608.14 1153.41 608.14 1142.05 519.63"/><polygon class="cls-89" points="1155.59 617.97 1201.56 618.88 1200.72 668.52 1160.21 668.17 1155.59 617.97"/><ellipse class="cls-78" cx="1208.29" cy="472.7" rx="20.82" ry="17.8"/><ellipse class="cls-79" cx="1208.29" cy="482.41" rx="20.82" ry="17.8"/><polygon class="cls-76" points="1388.09 532.58 1365.38 629.68 1319.96 626.44 1319.96 619.97 1380.52 526.1 1388.09 532.58"/><polygon class="cls-78" points="1382.27 526.25 1381.24 532.34 1316.17 616.73 1319.96 522.87 1382.27 526.25"/><polygon class="cls-79" points="1381.55 529.72 1361.59 623.21 1316.17 619.97 1319.96 526.1 1381.55 529.72"/><polygon class="cls-80" points="1372.85 540.02 1364.94 577.8 1346.84 576.28 1350.2 538.3 1372.85 540.02"/><polygon class="cls-80" points="1363.91 583 1356.73 617.6 1342.92 616.48 1346.57 580.94 1363.91 583"/><polygon class="cls-80" points="1325.97 534.94 1324.22 573.24 1341.11 574.89 1347.06 537.17 1325.97 534.94"/><polygon class="cls-80" points="1324.97 578.32 1323.74 613.45 1337.51 614.9 1342.41 579.5 1324.97 578.32"/><path class="cls-76" d="M1388.71,496.33l10.53-61.74-7.37-5.59s-38.47,35.53-68.13,55l3.79,6.48Z"/><path class="cls-78" d="M1393.65,433.51l-.82-4.36s-30.39-26.27-70.88-4.4l0,56.91Z"/><path class="cls-79" d="M1383,490.9l10.69-57.39s-30.72-26.27-71.67-4.38V486Z"/><polygon class="cls-80" points="1385.2 439.71 1377.78 465.56 1357.36 464.24 1361.06 436.08 1385.2 439.71"/><polygon class="cls-80" points="1329.93 435.52 1330.94 462.13 1351.24 464.45 1354.42 436.24 1329.93 435.52"/><polygon class="cls-80" points="1377.39 469.93 1356.97 468.61 1355.77 482.22 1376.23 483.02 1377.39 469.93"/><polygon class="cls-80" points="1331.45 466.95 1351.87 468.28 1350.66 481.89 1330.29 480.05 1331.45 466.95"/><polygon class="cls-76" points="1109.64 526.1 1113.51 625.27 1063.25 628.58 1059.38 615.36 1101.91 519.49 1109.64 526.1"/><polygon class="cls-78" points="1038.06 522.94 1039.11 529.16 1105.56 615.36 1101.69 519.49 1038.06 522.94"/><polygon class="cls-79" points="1038.79 526.49 1059.17 621.97 1105.56 618.66 1101.69 522.8 1038.79 526.49"/><polygon class="cls-80" points="1047.67 537.02 1055.75 575.59 1074.23 574.04 1070.81 535.25 1047.67 537.02"/><polygon class="cls-80" points="1056.81 580.9 1064.14 616.24 1078.24 615.1 1074.52 578.8 1056.81 580.9"/><polygon class="cls-80" points="1095.55 531.82 1097.34 570.94 1080.1 572.62 1074.01 534.1 1095.55 531.82"/><polygon class="cls-80" points="1096.57 576.12 1097.83 612 1083.77 613.49 1078.76 577.33 1096.57 576.12"/><path class="cls-76" d="M1105.77,486.44V423.63l-5.81-4.41s-29.62,44-59.9,63.91l3.86,6.61Z"/><path class="cls-78" d="M1026.44,428.23l.83-4.45s31-26.83,72.38-4.49l0,58.12Z"/><path class="cls-79" d="M1037.35,486.84l-10.91-58.61s31.37-26.82,73.19-4.47v58.12Z"/><polygon class="cls-80" points="1035.06 434.56 1042.64 460.97 1063.49 459.62 1059.71 430.86 1035.06 434.56"/><polygon class="cls-80" points="1091.51 430.29 1090.47 457.47 1069.74 459.83 1066.49 431.02 1091.51 430.29"/><polygon class="cls-80" points="1043.04 465.43 1063.89 464.08 1065.12 477.98 1044.22 478.8 1043.04 465.43"/><polygon class="cls-80" points="1089.95 462.39 1069.1 463.74 1070.33 477.64 1091.14 475.76 1089.95 462.39"/><polygon class="cls-90" points="1205.04 193.26 1206.8 227.74 1464.54 400.91 1475.59 385.17 1205.04 193.26"/><path class="cls-90" d="M1206.54,193c-.59,11.5.85,23.24.26,34.73C1120.89,285.46,1033,342.93,947,400.66l-11-15.74Z"/><polygon class="cls-91" points="1206.21 181.12 929.79 376.32 935.99 384.92 1206.54 193.01 1206.21 181.12"/><polygon class="cls-91" points="1206.21 181.12 1481.46 376.21 1475.25 384.81 1204.7 192.91 1206.21 181.12"/><rect class="cls-49" x="1109.4" y="374.61" width="193.28" height="52.59"/><rect class="cls-92" x="1117.7" y="379.06" width="177.92" height="44.22"/><path class="cls-93" d="M1143.37,418.61c-5.59,0-10.56-1.92-14-6.24a77.73,77.73,0,0,1,5.58-6.85c2.57,4.26,8.71,6.28,10.78,4.26,1.68-1.58,0-4.12-5.36-6.23-5.08-2-10.28-4.36-10.45-9.68-.11-3.07,2-7.87,9.11-8.3a15.36,15.36,0,0,1,14.86,7.91,60,60,0,0,0-7.88,4.17,5.75,5.75,0,0,0-4.91-3.59c-1.57,0-2.35,1-2.18,2.06.22,2.06,2.57,2.78,6.59,4.07,6,1.83,9.44,5,9.55,9C1155.15,415.54,1149,418.61,1143.37,418.61Z"/><path class="cls-93" d="M1175.65,416.74c-3.41,2.34-8.6,2.11-11.56.76-4.08-1.87-7.54-5.46-8.27-14.05-.78-8.87,3.07-14.09,7.32-16.11a13.69,13.69,0,0,1,11.45-.38c4.52,1.92,5.47,6,5.47,11.27a51.93,51.93,0,0,0-8.93,1c-.23-3.45-1.23-5.28-3-5.18s-4.75,3-4.64,9c.12,6.43,2.46,8.49,4,8.83,2,.38,3.85-1.3,3.85-3.94a66.27,66.27,0,0,1,9.38-.52C1180.9,411.46,1179.06,414.43,1175.65,416.74Z"/><path class="cls-93" d="M1196.54,418.37a100.84,100.84,0,0,0,1.34-13,70.29,70.29,0,0,0-7.54-.14,65.19,65.19,0,0,0,1.79,14c-5.08-.43-11-.24-11-.24,2.12-7.82,2-25.8.45-32.8,0,0,4.74-.14,9.66.1a97.26,97.26,0,0,0-1,14.09c1.79,0,4.64-.24,7.71-.52a113.68,113.68,0,0,0-.78-15.63c5,.48,9.66.43,9.66.43-2,8.82-2.18,24.69.45,33.08C1202,417.93,1196.54,418.37,1196.54,418.37Z"/><path class="cls-93" d="M1220.73,418.7c-6.54,0-13.18-5.37-12.74-16.54.45-10.4,5.92-15.92,12.07-16.11,4.58-.14,10.94,3.6,12.62,15.44S1227.32,418.7,1220.73,418.7Zm-.9-23.49c-2.23.29-4.19,4.27-4.3,8.53-.11,4.89,1.79,9.26,5.25,9.21s5-4.08,4.14-9.74C1224.24,399,1222.23,394.82,1219.83,395.21Z"/><path class="cls-93" d="M1247.31,418.7c-6.53,0-13.18-5.37-12.73-16.54.45-10.4,5.92-15.92,12.06-16.11,4.58-.14,10.95,3.6,12.63,15.44S1253.91,418.7,1247.31,418.7Zm-.89-23.49c-2.23.29-4.19,4.27-4.3,8.53-.11,4.89,1.79,9.26,5.25,9.21s5-4.08,4.13-9.74C1250.83,399,1248.82,394.82,1246.42,395.21Z"/><path class="cls-93" d="M1260.16,419.37c2-7.19,1.45-25.22-.39-32.41a37.9,37.9,0,0,0,9.61-1.82c-.84,6.85-1.12,18.55-.12,25.31a38.74,38.74,0,0,1,10.73-2.2,50,50,0,0,0,.06,8.05A109.92,109.92,0,0,0,1260.16,419.37Z"/><polygon class="cls-94" points="1293.25 687.17 1302.03 696.08 1069.5 696.08 1078.28 687.17 1293.25 687.17"/><rect class="cls-95" x="1069.5" y="696.08" width="232.52" height="8.9"/><polygon class="cls-94" points="1279.15 675.45 1286.78 683.18 1084.75 683.18 1092.37 675.45 1279.15 675.45"/><rect class="cls-95" x="1084.75" y="683.18" width="202.03" height="7.74"/><rect class="cls-1" x="-11" y="-25.35" width="1931" height="981.6"/><path class="cls-58" d="M1282.88,663.12l-2.33-4.55s-4.64-9.12,4.65-6.84c0,0,4.65-9.11,9.3-2.28,0,0,2.32-9.11,7,0,0,0,14.69-11.79,12,3.22,0,0,12.72-9.79,12,6,0,0,17.85-10.72,13.21,11.66,0,0,13.94-16.35,21.46,8.71,0,0,29.66-20.5,27.34,9.12,0,0,26.8-14.7,15.72,5.18,0,0,16.82-5.18,12.17,6.21,0,0,7,2.28,7,4.56,0,9.67-11.62,4.56-11.62,4.56s9.3,9.11-2.32,4.55c9.29,13.68-120.8-9.83-118.53-6.83s-7-18.23-7-18.23-4.65-9.12-4.65-11.39,4.65-4.56,4.65-4.56-7,2.28-7,0,7-2.28,7-2.28-9.3,0-7-4.56S1282.88,663.12,1282.88,663.12Z"/><path class="cls-48" d="M1288.67,682.41l-2.81-6.86s-5.63-13.73,5.62-10.3c0,0,5.62-13.72,11.25-3.43,0,0,2.81-13.73,8.43,0,0,0,17.78-17.76,14.51,4.85,0,0,15.39-14.74,14.5,9.08,0,0,21.6-16.15,16,17.57,0,0,16.87-24.63,26,13.12,0,0,35.89-30.89,33.07,13.73,0,0,32.42-22.15,19,7.8,0,0,20.34-7.8,14.72,9.36,0,0,11.45,6.72,8.43,6.86-66.34,3.15,11.25,34.32,36.55,44.62s16.87,27.46,5.63,24c0,0,78.51,6.46,81.54,61.78,2.81,51.48-64.67,79.59-224.94,81-165.89,1.41-246.43-6.18-268.92-19.91l-130.7-56.09c75.45-2.75,129.26-3.16,166.48-2.93a353,353,0,0,0,58.23-4.23c29.09-4.55,61.38-10,93.42-33.85,16.51-12.31,36.95-27.54,39.82-52.11,2-17.22-4.75-37.79-6.89-44.3a136.69,136.69,0,0,0-10.14-23.3c-9.94-2.65-15.35-10.33-14.41-15.84.68-4,4.55-6.25,5.63-6.87,0,0-8.44,3.44-8.44,0s8.44-3.43,8.44-3.43-7.65,0-8.76-3.84a4.63,4.63,0,0,1,.32-3C1281.38,683.17,1284.75,681.76,1288.67,682.41Z"/><path class="cls-5" d="M1298.06,685.15l-2.64-3.57s-5.28-7.13,5.28-5.35c0,0,5.27-7.13,10.55-1.78,0,0,2.64-7.14,7.92,0,0,0,16.68-9.24,13.62,2.52,0,0,14.44-7.66,13.6,4.72,0,0,20.27-8.4,15,9.13,0,0,59.25,5.17,62.57,15.58l-134.24-3.22s3.06-5.54,3.06-7.33,5.28-3.56,5.28-3.56-7.92,1.78-7.92,0,7.92-1.79,7.92-1.79-10.56,0-7.92-3.57S1298.06,685.15,1298.06,685.15Z"/><path class="cls-56" d="M1706.78,692.21l-309.26,2.19s3.64-2.88-9.19-16.29c175.86,1.21,280.4,4.57,280.4,4.57l2-16,25-.27Z"/><path class="cls-55" d="M1606.72,780.61c39.43,12.95,15.51,28.57-19.8,28.08s-55.73-7.09-51.71-2-10.24,6.72-29.58,4.1-27.7-8.27-33.44-12.85c-4.06-3.25-11.81-13.91,12.52-15.42s15.79-7.22,15.55-10.67c-.5-7.33,39.94-9.62,64.9-3.62A362.26,362.26,0,0,1,1606.72,780.61Z"/><ellipse class="cls-55" cx="1427.46" cy="853.33" rx="94.82" ry="34.27"/><ellipse class="cls-55" cx="1275.69" cy="890.59" rx="18.96" ry="4.9"/><ellipse class="cls-49" cx="1545.05" cy="776.58" rx="9.48" ry="3.67"/><rect class="cls-1" x="-11" y="-25.35" width="1931" height="981.6"/><rect class="cls-1" x="-11" y="-25.35" width="1931" height="981.6"/></g></g></g></g></svg>