<svg xmlns="http://www.w3.org/2000/svg" xmlns:xlink="http://www.w3.org/1999/xlink" width="619.88" height="562.43" viewBox="0 0 619.88 562.43">
  <defs>
    <style>
      .cls-1 {
        mask: url(#mask);
        filter: url(#luminosity-noclip-2);
      }

      .cls-2, .cls-88 {
        mix-blend-mode: multiply;
      }

      .cls-2 {
        fill: url(#linear-gradient);
      }

      .cls-3 {
        fill: none;
      }

      .cls-4 {
        fill: #fff4cb;
      }

      .cls-131, .cls-5 {
        isolation: isolate;
      }

      .cls-6 {
        clip-path: url(#clip-path);
      }

      .cls-7 {
        clip-path: url(#clip-path-2);
      }

      .cls-8 {
        fill: #f8e2b9;
      }

      .cls-9 {
        fill: #c3b6a2;
      }

      .cls-10 {
        fill: #a19687;
      }

      .cls-11, .cls-46, .cls-48 {
        fill: #fff;
      }

      .cls-12 {
        clip-path: url(#clip-path-3);
      }

      .cls-13 {
        clip-path: url(#clip-path-4);
      }

      .cls-14 {
        clip-path: url(#clip-path-5);
      }

      .cls-15 {
        fill: #88d1d1;
      }

      .cls-16 {
        fill: #cca96a;
      }

      .cls-17 {
        fill: #8c663d;
      }

      .cls-18 {
        fill: #a56f41;
      }

      .cls-19 {
        fill: #020202;
        opacity: 0.2;
      }

      .cls-19, .cls-42 {
        stroke: #201d1e;
      }

      .cls-19, .cls-20, .cls-24, .cls-26, .cls-27, .cls-29, .cls-30, .cls-39, .cls-41, .cls-42, .cls-46, .cls-48, .cls-61, .cls-85, .cls-86 {
        stroke-miterlimit: 10;
      }

      .cls-20 {
        fill: #d8b2a8;
      }

      .cls-20, .cls-26, .cls-27, .cls-29, .cls-30, .cls-39, .cls-41, .cls-46, .cls-61 {
        stroke: #323232;
      }

      .cls-21 {
        fill: #df71e2;
        stroke: #710e7c;
      }

      .cls-21, .cls-22, .cls-23 {
        stroke-linejoin: round;
      }

      .cls-21, .cls-22, .cls-23, .cls-30, .cls-39, .cls-61 {
        stroke-width: 0.75px;
      }

      .cls-22 {
        fill: #686c71;
        stroke: #211f1c;
      }

      .cls-23, .cls-42 {
        fill: #301616;
      }

      .cls-23 {
        stroke: #1c0e0a;
      }

      .cls-24, .cls-34 {
        fill: #f9d1c6;
      }

      .cls-24 {
        stroke: #453423;
      }

      .cls-25 {
        fill: #b88e87;
      }

      .cls-26 {
        fill: #587ab1;
      }

      .cls-27 {
        fill: #7196c4;
      }

      .cls-28 {
        fill: #1a4172;
        opacity: 0.76;
      }

      .cls-29 {
        fill: #7498c2;
      }

      .cls-30 {
        fill: #969595;
      }

      .cls-31 {
        mask: url(#mask-2);
      }

      .cls-32 {
        mix-blend-mode: darken;
        fill: url(#linear-gradient-2);
      }

      .cls-33 {
        fill: #904e38;
      }

      .cls-35 {
        fill: #453423;
      }

      .cls-36 {
        fill: #db9d8e;
      }

      .cls-37 {
        fill: #b28db5;
      }

      .cls-38 {
        fill: #0a2c2d;
        opacity: 0.22;
      }

      .cls-39, .cls-41, .cls-44 {
        fill: #f6cfc4;
      }

      .cls-40 {
        fill: #da9b8d;
      }

      .cls-41, .cls-46, .cls-48, .cls-85, .cls-86 {
        stroke-width: 0.5px;
      }

      .cls-43 {
        fill: #342517;
      }

      .cls-45 {
        fill: #49442e;
      }

      .cls-47 {
        fill: #3d2e18;
      }

      .cls-48 {
        stroke: #3d2e18;
      }

      .cls-49 {
        fill: #e8a496;
        opacity: 0.5;
      }

      .cls-50 {
        fill: #7b2f2c;
      }

      .cls-51 {
        fill: #f5958d;
      }

      .cls-52 {
        fill: #f48578;
      }

      .cls-53 {
        fill: #fff5f2;
      }

      .cls-54 {
        fill: #f48a71;
      }

      .cls-55 {
        opacity: 0.12;
      }

      .cls-56 {
        fill: #c27945;
      }

      .cls-57 {
        fill: #89513a;
      }

      .cls-58 {
        fill: #d48148;
      }

      .cls-59 {
        fill: #e89b49;
      }

      .cls-60 {
        fill: #f5bf71;
      }

      .cls-61 {
        fill: #f2ad50;
      }

      .cls-62 {
        clip-path: url(#clip-path-6);
      }

      .cls-63 {
        fill: #d3caa4;
      }

      .cls-64 {
        fill: #009c9f;
      }

      .cls-65 {
        fill: #ec2f3a;
      }

      .cls-66 {
        fill: url(#linear-gradient-3);
      }

      .cls-67 {
        fill: url(#linear-gradient-4);
      }

      .cls-68 {
        fill: url(#linear-gradient-5);
      }

      .cls-69 {
        fill: url(#linear-gradient-6);
      }

      .cls-70 {
        fill: #ec5b2b;
      }

      .cls-71 {
        fill: url(#linear-gradient-7);
      }

      .cls-72 {
        fill: url(#linear-gradient-8);
      }

      .cls-73 {
        fill: url(#linear-gradient-9);
      }

      .cls-74 {
        fill: url(#linear-gradient-10);
      }

      .cls-75 {
        fill: #9c4e45;
      }

      .cls-76 {
        fill: #aa574e;
      }

      .cls-77 {
        fill: #b15c50;
      }

      .cls-78 {
        fill: #c36b3e;
      }

      .cls-79 {
        fill: #3b444f;
      }

      .cls-80 {
        fill: #a05049;
      }

      .cls-81 {
        fill: #b8653c;
      }

      .cls-82 {
        fill: #ee9e57;
      }

      .cls-83 {
        fill: #e39853;
      }

      .cls-84 {
        fill: #d48e4f;
      }

      .cls-85 {
        fill: #62445b;
        stroke: #1d111b;
      }

      .cls-86 {
        fill: #61435b;
        stroke: #1c101a;
      }

      .cls-87 {
        fill: #f6e0d9;
      }

      .cls-88 {
        fill: #d8b499;
        opacity: 0.7;
      }

      .cls-89 {
        clip-path: url(#clip-path-7);
      }

      .cls-90 {
        fill: #2f86bd;
      }

      .cls-91 {
        fill: #55a8db;
      }

      .cls-92 {
        fill: #3b96d2;
      }

      .cls-93 {
        fill: #0a5c8d;
      }

      .cls-94 {
        fill: #0f5280;
      }

      .cls-95 {
        fill: #b2b1aa;
      }

      .cls-96 {
        fill: #d9d7cf;
      }

      .cls-97 {
        fill: #8a8884;
      }

      .cls-98 {
        fill: #ee5749;
      }

      .cls-99 {
        fill: #e8c0a6;
      }

      .cls-100 {
        fill: #db584e;
      }

      .cls-101 {
        fill: #f17b70;
      }

      .cls-102 {
        fill: #d4a68b;
      }

      .cls-103 {
        fill: #202e5e;
      }

      .cls-104 {
        fill: #ee645a;
      }

      .cls-105 {
        fill: #f8aa58;
      }

      .cls-106 {
        fill: #d74240;
      }

      .cls-107 {
        fill: #f48368;
      }

      .cls-108 {
        fill: #d5d4d3;
      }

      .cls-109 {
        fill: #e6b1a4;
      }

      .cls-110 {
        fill: #f06c68;
      }

      .cls-111 {
        fill: #e15d3c;
      }

      .cls-112 {
        fill: #da9989;
      }

      .cls-113 {
        fill: #325aa4;
      }

      .cls-114 {
        fill: #5b6f94;
      }

      .cls-115 {
        fill: #aeb7c7;
      }

      .cls-116 {
        fill: #d1dae8;
      }

      .cls-117 {
        fill: #8ba2cb;
      }

      .cls-118 {
        fill: #8f91c6;
      }

      .cls-119 {
        fill: #7485a9;
      }

      .cls-120 {
        fill: #96a7c7;
      }

      .cls-121 {
        fill: #316d36;
      }

      .cls-122 {
        fill: #75976e;
      }

      .cls-123 {
        fill: #b3c7ad;
      }

      .cls-124 {
        fill: #8dcda2;
      }

      .cls-125 {
        fill: #7cc272;
      }

      .cls-126 {
        fill: #f9b989;
      }

      .cls-127 {
        fill: #5e4736;
      }

      .cls-128 {
        fill: #f8a247;
      }

      .cls-129 {
        fill: #f9b66d;
      }

      .cls-130 {
        fill: #f09633;
      }

      .cls-131 {
        opacity: 0.75;
      }

      .cls-132 {
        fill: #dbe4f4;
        opacity: 0.25;
      }

      .cls-133 {
        fill: #f1eee8;
        opacity: 0.18;
      }

      .cls-134 {
        filter: url(#luminosity-noclip);
      }
    </style>
    <filter id="luminosity-noclip" x="171.83" y="-9635.15" width="14.82" height="32766" filterUnits="userSpaceOnUse" color-interpolation-filters="sRGB">
      <feFlood flood-color="#fff" result="bg"/>
      <feBlend in="SourceGraphic" in2="bg"/>
    </filter>
    <mask id="mask" x="171.83" y="-9635.15" width="14.82" height="32766" maskUnits="userSpaceOnUse">
      <g class="cls-134"/>
    </mask>
    <linearGradient id="linear-gradient" x1="3853.84" y1="761.1" x2="3843.88" y2="778.68" gradientTransform="matrix(1.03, -0.08, 0.08, 1, -3839.36, -102.53)" gradientUnits="userSpaceOnUse">
      <stop offset="0" stop-color="#fff"/>
      <stop offset="1"/>
    </linearGradient>
    <clipPath id="clip-path">
      <rect class="cls-3" x="-1179.72" y="56.13" width="539.79" height="449.82" rx="116.93"/>
    </clipPath>
    <clipPath id="clip-path-2">
      <rect class="cls-3" x="-1637.42" y="20.09" width="1433.2" height="806.18"/>
    </clipPath>
    <clipPath id="clip-path-3">
      <rect class="cls-3" x="40.47" y="56.66" width="538.94" height="449.1" rx="116.93"/>
    </clipPath>
    <clipPath id="clip-path-4">
      <rect class="cls-3" x="-127.58" y="31.86" width="853.98" height="480.36"/>
    </clipPath>
    <clipPath id="clip-path-5">
      <polygon class="cls-3" points="610.56 571.2 -116.42 571.2 118.57 -149.55 603.48 -118.74 610.56 571.2"/>
    </clipPath>
    <filter id="luminosity-noclip-2" x="171.83" y="349.19" width="14.82" height="13.39" filterUnits="userSpaceOnUse" color-interpolation-filters="sRGB">
      <feFlood flood-color="#fff" result="bg"/>
      <feBlend in="SourceGraphic" in2="bg"/>
    </filter>
    <mask id="mask-2" x="171.83" y="349.19" width="14.82" height="13.39" maskUnits="userSpaceOnUse">
      <g class="cls-1">
        <path class="cls-2" d="M172.4,353.54a5.15,5.15,0,0,1-.17-4.35c.47,2.11,1.32,4.28,2.66,4.92,3.36,1.66,7,3.3,7.88,3.4,1.4,3.1,2.38,4.07,3.88,5.08-3.08-.54-4.17-2.7-5.47-4.52C176,357.07,173.35,355.28,172.4,353.54Z"/>
      </g>
    </mask>
    <linearGradient id="linear-gradient-2" x1="3853.84" y1="761.1" x2="3843.88" y2="778.68" gradientTransform="matrix(1.03, -0.08, 0.08, 1, -3839.36, -102.53)" gradientUnits="userSpaceOnUse">
      <stop offset="0" stop-color="#e67e63"/>
      <stop offset="1" stop-color="#e67e63"/>
    </linearGradient>
    <clipPath id="clip-path-6">
      <rect class="cls-4" x="145.99" y="305.16" width="67.89" height="12.07" rx="0.97"/>
    </clipPath>
    <linearGradient id="linear-gradient-3" x1="205.22" y1="325.96" x2="208.1" y2="325.96" gradientUnits="userSpaceOnUse">
      <stop offset="0" stop-color="#f06d76"/>
      <stop offset="0.08" stop-color="#ec626c"/>
      <stop offset="0.31" stop-color="#e14551"/>
      <stop offset="0.55" stop-color="#d9313e"/>
      <stop offset="0.78" stop-color="#d52432"/>
      <stop offset="1" stop-color="#d3202e"/>
    </linearGradient>
    <linearGradient id="linear-gradient-4" x1="210.02" y1="325.96" x2="212.89" y2="325.96" xlink:href="#linear-gradient-3"/>
    <linearGradient id="linear-gradient-5" x1="150.87" y1="325.96" x2="153.74" y2="325.96" xlink:href="#linear-gradient-3"/>
    <linearGradient id="linear-gradient-6" x1="155.66" y1="325.96" x2="158.54" y2="325.96" xlink:href="#linear-gradient-3"/>
    <linearGradient id="linear-gradient-7" x1="150.4" y1="290.99" x2="150.4" y2="302.21" gradientUnits="userSpaceOnUse">
      <stop offset="0" stop-color="#d1a975"/>
      <stop offset="0.53" stop-color="#f8e8bc"/>
      <stop offset="0.61" stop-color="#f2dbab"/>
      <stop offset="0.74" stop-color="#eaca97"/>
      <stop offset="0.87" stop-color="#e6c08a"/>
      <stop offset="1" stop-color="#e4bd86"/>
    </linearGradient>
    <linearGradient id="linear-gradient-8" x1="155.3" y1="290.99" x2="155.3" y2="302.21" xlink:href="#linear-gradient-7"/>
    <linearGradient id="linear-gradient-9" x1="206.65" y1="290.99" x2="206.65" y2="302.21" xlink:href="#linear-gradient-7"/>
    <linearGradient id="linear-gradient-10" x1="199.53" y1="290.99" x2="199.53" y2="302.21" xlink:href="#linear-gradient-7"/>
    <clipPath id="clip-path-7">
      <path class="cls-3" d="M335.91,347a27.68,27.68,0,0,1-4.16,1.53,39.16,39.16,0,0,1-4.82.94l-.68,4.25,4.65,3.7,2.29-1a3.32,3.32,0,0,1,2.11-2.27,4.51,4.51,0,0,1,3.34-.09l2.25-1-.34-2.48-1.13-.88L338,348.64l0,0-.21-.16Z"/>
    </clipPath>
  </defs>
  <g class="cls-5">
    <g id="Layer_1" data-name="Layer 1">
      <g class="cls-6">
        <g class="cls-7">
          <g>
            <path class="cls-8" d="M-1788.44,427.48c-2.24,44.35-4.53,89,2.32,133.19a47.07,47.07,0,0,1,2.86,14H128.07c-.76-14-1.32-28-1.76-42-.79-24.79-1.48-49.6-3-74.38L-91.25,356.47h-1526l-170.24,49.71Q-1787.91,416.83-1788.44,427.48Z"/>
            <path class="cls-9" d="M252,928.19c-1-87.11-1.89-174.25-4.17-261.28-2-75.13-4.52-150.11-6.06-225.25l-69.7-89.19-2089.29-.18-54.53,254.28,29.16,448H254Q252.74,991.44,252,928.19Z"/>
            <path class="cls-10" d="M-1861.77,498.83H85.48l-3.36-2.14-1943.81-.59C-1861.72,497-1861.75,497.92-1861.77,498.83Z"/>
            <path class="cls-10" d="M205.7,950.89l-445.15-599.4-1.2,8.24L205.92,969.51Q205.8,960.21,205.7,950.89Z"/>
          </g>
        </g>
      </g>
      <g>
        <rect class="cls-11" x="31.1" y="47.57" width="557.69" height="467.29" rx="124.49"/>
        <g class="cls-12">
          <g class="cls-13">
            <g>
              <g class="cls-14">
                <g>
                  <path class="cls-8" d="M-193,368.92c-1.14,22.5-2.3,45.14,1.18,67.56a24,24,0,0,1,1.45,7.11H779.11c-.38-7.09-.66-14.19-.89-21.31-.4-12.58-.75-25.16-1.55-37.73L667.87,332.9H-106.19l-86.36,25.22Q-192.76,363.51-193,368.92Z"/>
                  <path class="cls-9" d="M842,622.9c-.52-44.18-1-88.38-2.12-132.53-1-38.11-2.29-76.15-3.07-114.26l-35.36-45.24-1059.78-.09-27.66,129L-271.2,687H843Q842.35,655,842,622.9Z"/>
                  <polygon class="cls-15" points="-174.23 -41.56 -174.74 343.83 698.45 342.58 700.46 -41.33 -174.23 -41.56"/>
                  <path class="cls-10" d="M-230.23,405.11H757.51L755.8,404l-986-.3C-230.2,404.19-230.21,404.65-230.23,405.11Z"/>
                  <path class="cls-10" d="M-229.49,451.53H758.25l-1.71-1.08-986-.3C-229.46,450.61-229.48,451.07-229.49,451.53Z"/>
                  <path class="cls-10" d="M-229.49,509.74H758.25l-1.71-1.08-986-.3C-229.46,508.82-229.48,509.28-229.49,509.74Z"/>
                  <path class="cls-10" d="M-233.91,563.53H753.82l-1.7-1.08-986-.3C-233.88,562.61-233.9,563.07-233.91,563.53Z"/>
                  <path class="cls-10" d="M-229,364.44H699.68l-1.73-1-926.89-.4Z"/>
                  <path class="cls-10" d="M-80.37,606.37,48.14,356.49l-1.47-1.19-130.81,251C-82.88,606.35-81.63,606.37-80.37,606.37Z"/>
                  <path class="cls-10" d="M88.21,613.86l76-273.16-1.43-.48L85.46,613.9Z"/>
                  <path class="cls-10" d="M257.85,747l5.46-418.52-1.95,1.19-6.84,417.6Z"/>
                  <path class="cls-10" d="M456.2,746.08,375.75,330.21l-1.6,2.59,78.39,413.28Z"/>
                  <path class="cls-10" d="M675.18,738.78,477.92,340.88l-1,3.9,192.83,394Z"/>
                  <path class="cls-10" d="M818.49,634.42l-225.8-304-.61,4.17L818.6,643.86C818.56,640.72,818.53,637.57,818.49,634.42Z"/>
                  <polygon class="cls-16" points="-179.16 344.13 695.85 342.66 695.86 327.99 -179.16 329.46 -179.16 344.13"/>
                  <rect class="cls-3" x="-169.99" y="-35.99" width="852.5" height="479.53"/>
                  <rect class="cls-3" x="-172.42" y="-33.41" width="852.5" height="479.53"/>
                </g>
              </g>
              <g>
                <g>
                  <g>
                    <rect class="cls-17" x="233.89" y="241.51" width="91.94" height="78.04"/>
                    <path class="cls-18" d="M234.67,320.8v-82h-6a8.91,8.91,0,0,0-8.9,8.9V320.8Z"/>
                    <path class="cls-18" d="M325,320.8v-82h6a8.9,8.9,0,0,1,8.9,8.9V320.8Z"/>
                  </g>
                  <polygon class="cls-19" points="154.77 462.68 107.17 526.21 477.09 526.21 415.23 465.86 154.77 462.68"/>
                  <g>
                    <path class="cls-20" d="M287.94,396.72c2.17,23.64,4.19,45.24,5.4,59.69H315c.61-14.67,1.85-36.41,3.19-59.66.5-8.88-6.47-16.46-15.07-16.34H302C293.59,380.54,287.14,388,287.94,396.72Z"/>
                    <g>
                      <path class="cls-21" d="M291.67,460.21c0,.66,24.91,1.08,25,.27.57-7.05,1.52-22.09,1.83-26.15l-27.67.31C291.09,442.25,291.47,455.39,291.67,460.21Z"/>
                      <path class="cls-22" d="M332.19,496.08c6.57,0,12.11-1.81,13.5-5.2.34-.82.32-3.85.1-6.09-.19-1.81-3.17-5.72-4.58-6.41-1.44,4.36-8.08,13.13-20.32,9.66-11.39-3.23-30.17-13.94-31.26-15.05,0,0,0,5.47.67,5.87,8.73,5.44,25.66,14,25.89,14.08A44.39,44.39,0,0,0,332.19,496.08Z"/>
                      <path class="cls-23" d="M291.16,455.44c.82.25,3.4,3.61,12.66,4.69.78.09,0-4.16.75-4.61,1.39-.78,15.22-1.24,16.05-.83.66.32,1,1.36,1.65,5.12.73,2.08,22,18.3,23.14,24.34.63,3.29-2.1,6-7.81,6.85a38.15,38.15,0,0,1-19.79-2.3c-2.9-1.1-26.77-14-28.24-15.47-1.3-1.31.28-13.9.39-17.31C290,455.45,290.66,455.29,291.16,455.44Z"/>
                    </g>
                  </g>
                  <g>
                    <path class="cls-20" d="M278.76,395.2c-2.17,23.63-4.19,45.23-5.4,59.68H251.71c-.61-14.67-1.86-36.41-3.19-59.66-.5-8.88,6.47-16.46,15.07-16.34h1.08C273.1,379,279.56,386.49,278.76,395.2Z"/>
                    <g>
                      <path class="cls-21" d="M277,458.57c0,.76-26.87,1.2-27,.28-.62-8-1.67-25.18-2-29.82l29.85.4C277.64,438.1,277.24,453.08,277,458.57Z"/>
                      <path class="cls-22" d="M234.51,494.55c-6.57,0-12.11-1.81-13.5-5.19-.34-.83-.33-3.86-.1-6.1.19-1.81,3.17-5.72,4.58-6.41,1.44,4.36,8.08,13.13,20.32,9.66,11.39-3.23,30.17-13.94,31.26-15.05,0,0,0,5.48-.67,5.87-8.73,5.44-25.66,14-25.89,14.08A44.43,44.43,0,0,1,234.51,494.55Z"/>
                      <path class="cls-23" d="M275.54,453.91c-.82.25-3.4,3.61-12.67,4.69-.78.09,0-4.16-.74-4.61-1.39-.78-15.22-1.24-16-.83-.66.32-1,1.36-1.65,5.12-.73,2.08-22,18.3-23.15,24.34-.63,3.29,2.11,6,7.82,6.85a38.15,38.15,0,0,0,19.79-2.3c2.9-1.1,26.77-14,28.24-15.47,1.3-1.31-.28-13.9-.39-17.31C276.72,453.92,276,453.77,275.54,453.91Z"/>
                    </g>
                  </g>
                  <path class="cls-24" d="M265.82,307.64s12.65,5.28,17.61,43.54l2.09,15.94-12.28,2.94s-21-27.81-19.85-52.17S265.82,307.64,265.82,307.64Z"/>
                  <path class="cls-25" d="M168.26,388c.18,2.16.51,4.6,1,7.37.83,4.69,3.14,8.68,4.2,13.08,5.5.32,9.66.89,15.16.58,3.76-.22,10.4-.63,14.83-3l-1.63-14.81-7.9-5.21a43.84,43.84,0,0,0-11.42-.79A50.27,50.27,0,0,0,168.26,388Z"/>
                  <path class="cls-25" d="M206,404.14c.88,2.76,2.47,6.58,3.29,9.25a38.69,38.69,0,0,0,7.43.56,53.17,53.17,0,0,0,16.53-2.67,29.32,29.32,0,0,0,6-2.78c-.65-5.31-.69-8.85-.69-8.85S193.58,365.3,206,404.14Z"/>
                  <polygon class="cls-26" points="161.75 348.51 164.92 362.1 165.09 394.28 199.72 393.09 199.56 388.62 199.16 377.11 198.5 357.9 197.65 333.42 161.75 348.51"/>
                  <path class="cls-27" d="M200.21,390.44c-4.82.91-27.26,4.74-35.66-.8a.89.89,0,0,0-1.4.79l.75,10.8a.9.9,0,0,0,.62.79c3.55,1.14,22.91,6.75,37.46-1.89a.89.89,0,0,0,.43-.91l-1.14-8A.91.91,0,0,0,200.21,390.44Z"/>
                  <path class="cls-26" d="M178.16,363.23l10.58,10.9,9.38,9,1.44,5.5,3.11,11.83,1.28.39c12.2,3.63,37.83-3.87,37.83-3.87V363.13l-1.19-16.28-42.09,11Z"/>
                  <path class="cls-28" d="M161.75,348.51,163,365.68a79,79,0,0,0,33.48,11.18c.9.09,1.79.2,2.68.25,17.6.94,44.91-5.36,42.19-4.75l-6-24.14L198.5,357.9l-.85-24.48Z"/>
                  <path class="cls-29" d="M241.39,390.42c-6.11,2.29-24.22,8.24-39,4.48a1.73,1.73,0,0,0-2.16,2l1.56,9.05a1.72,1.72,0,0,0,1.22,1.37c4.83,1.38,25.41,6.2,40.79-6.47a1.72,1.72,0,0,0,.61-1.49l-.63-7.42A1.73,1.73,0,0,0,241.39,390.42Z"/>
                  <path class="cls-30" d="M205.65,419.82a.4.4,0,0,1-.06.26c-.5.82-3.84,5.29-16.85,5.36-14.33.08-14.65-4.92-14.65-4.92l-.81-3.74c-.21-.9.54-1.35.85-1.22,3.72,1.6,18.61,7.08,30.3-1,.57-.39.89.59.91,1Z"/>
                  <g>
                    <g>
                      <path class="cls-24" d="M196.68,373.28a11.87,11.87,0,0,1-9.18,5c-6.5,1-14.91,1.89-18.09,2.41s-5.53.76-9.32-.6-6.43-2-6.45-3.39a2.18,2.18,0,0,0-.23-.09l0,0A8.31,8.31,0,0,1,150,374.5a1.62,1.62,0,0,1-.19-2.18,1.13,1.13,0,0,1-.2-.13.41.41,0,0,1-.11-.07,6.2,6.2,0,0,1-2.28-2.1,2.11,2.11,0,0,1,.15-2.56,7.11,7.11,0,0,1,4.59-2.14h0a4.66,4.66,0,0,1,.75,0h0a.22.22,0,0,1,0-.11,2.9,2.9,0,0,1,.3-1.08,4.41,4.41,0,0,1,4.45-2.23c2.43.25,5.34,1,6.7,1.05,3.63-.93,5.79-1.39,8.34-2.07a4.42,4.42,0,0,1,.55-.14l1.09-.32c3.33-.94,5.75-2.17,7-2.35-5.17-1-7.83-2.79-8.78-4.53a5.15,5.15,0,0,1-.17-4.35,2.19,2.19,0,0,1,.94-1c1.55-.81,2.15.08,4.11,1.25a19.8,19.8,0,0,0,9,2.59,12.73,12.73,0,0,1,9.19,4c2.81,2.66,4.7,8.77,4,12.64"/>
                      <g class="cls-31">
                        <path class="cls-32" d="M172.4,353.54a5.15,5.15,0,0,1-.17-4.35c.47,2.11,1.32,4.28,2.66,4.92,3.36,1.66,7,3.3,7.88,3.4,1.4,3.1,2.38,4.07,3.88,5.08-3.08-.54-4.17-2.7-5.47-4.52C176,357.07,173.35,355.28,172.4,353.54Z"/>
                      </g>
                      <path class="cls-33" d="M180.45,367.09a20.62,20.62,0,0,1,3.84-1.69,15.29,15.29,0,0,1,4.22-.71,10.09,10.09,0,0,1,4.23.88,8.54,8.54,0,0,1,1.81,1.15,6.84,6.84,0,0,1,1.35,1.6,9.83,9.83,0,0,0-1.69-1.14,11.36,11.36,0,0,0-1.83-.79,13.48,13.48,0,0,0-3.89-.69,16.18,16.18,0,0,0-4,.33A35.92,35.92,0,0,0,180.45,367.09Z"/>
                      <path class="cls-33" d="M171.08,375.26l-.42.11c-1.41.4-2.85.72-4.29,1-.81.15-1.59.27-2.38.39a6.26,6.26,0,0,1-2.61-.07,14.71,14.71,0,0,1-2.21-1,7.68,7.68,0,0,0-2.12-.71,3.36,3.36,0,0,0-3.41,1.78c-.06,0-.15,0-.22-.09s0,0,0,0c.29-1.55,2.1-2.54,3.74-2.44s3.33,1,4.63,1.39a5.73,5.73,0,0,0,2.13.07l2.37-.23c1.45-.11,2.89-.18,4.36-.15A3.73,3.73,0,0,1,171.08,375.26Z"/>
                      <path class="cls-33" d="M171.74,365.16a.12.12,0,0,0,0,.08,10.9,10.9,0,0,1-1.15.34v0q-1.8.54-3.6,1a36.8,36.8,0,0,1-5.26,1,12.61,12.61,0,0,1-5.38-.85,28,28,0,0,0-4.34-1.46,5,5,0,0,1,.77,0s0-.06,0-.1a32.4,32.4,0,0,1,3.84.66,14.75,14.75,0,0,0,5,.49c1.67-.11,3.41-.48,5.16-.69,1.27-.19,2.57-.35,3.9-.45C171,365.19,171.37,365.16,171.74,365.16Z"/>
                      <path class="cls-33" d="M170.45,369.93l-.63.21c-1.53.54-3.1,1-4.68,1.45a24.54,24.54,0,0,1-2.72.67,7.06,7.06,0,0,1-2.93,0,28,28,0,0,0-5.37-1,7.72,7.72,0,0,0-4.3,1.07,1.37,1.37,0,0,1-.2-.13.42.42,0,0,1-.12-.08,6.71,6.71,0,0,1,4.61-1.54,20.77,20.77,0,0,1,2.85.11c1,.13,1.85.33,2.71.52a6.79,6.79,0,0,0,2.58.07c.9-.11,1.81-.31,2.72-.48,1.59-.31,3.2-.58,4.84-.77A4.69,4.69,0,0,1,170.45,369.93Z"/>
                    </g>
                    <g>
                      <path class="cls-34" d="M170.19,378.87s-2.43-11.4,2.92-18.13"/>
                      <path class="cls-35" d="M170.19,378.87a23.58,23.58,0,0,1-.85-9.46,19.36,19.36,0,0,1,1.16-4.67,12.47,12.47,0,0,1,2.61-4,20.83,20.83,0,0,0-1.87,4.26,29.19,29.19,0,0,0-.91,4.52,45,45,0,0,0-.27,4.64C170.06,375.72,170.09,377.29,170.19,378.87Z"/>
                    </g>
                  </g>
                  <g>
                    <polyline class="cls-24" points="353.52 317.53 344.8 298.82 341.08 290.85 317.09 296.84 324.14 311.03 331.86 326.15"/>
                    <path class="cls-36" d="M317.09,296.84l7.55,14c8.52-2.09,15-7.09,19.79-11.55l-3.54-8.39Z"/>
                    <path class="cls-24" d="M219.75,318.9s10.08-3.67,21.42-16a59.78,59.78,0,0,0,8.62-12.75c6.63-12.65-19.7-16.3-19.7-16.3l-8.29,8.77L212,297C206.81,301.58,194.13,328,219.75,318.9Z"/>
                    <path class="cls-36" d="M221.94,283.13c2.86,5,8.13,12.14,18.86,19.43a55.9,55.9,0,0,0,9-12.38c6.63-12.65-19.7-16.3-19.7-16.3Z"/>
                    <g>
                      <path class="cls-21" d="M238.44,272.25c0,15.72,20.91,28.47,46.7,28.47s46.7-12.75,46.7-28.47c0-11.83-11.85-22-28.71-26.27a73.1,73.1,0,0,0-18-2.19,70.7,70.7,0,0,0-23.59,3.89C247.73,252.62,238.44,261.78,238.44,272.25Z"/>
                      <path class="cls-21" d="M319.19,300.68l.71,2.95c16.17-1.06,27.06-12.2,27.06-12.2a22.32,22.32,0,0,0-1.27-4.13c-7.59-14.91-10.56-22.09-16.75-28.13a47.88,47.88,0,0,0-25-12.77"/>
                      <path class="cls-21" d="M262.38,247.45s-11.62-.75-25.17,12.34c-3.64,3.52-10.06,10.39-13.19,15.53-.61,1-1.21,2-1.79,3.1,0,0,12.63,17.39,27.83,21.69l.47-2"/>
                      <path class="cls-21" d="M247.13,276.9C238,319.4,236.38,362,236.38,362h0c44.1,17.18,85.22,1.5,85.22,1.5,3.79-59.91-4.18-88.74-4.18-88.74"/>
                      <ellipse class="cls-37" cx="283.44" cy="268.68" rx="12.82" ry="4.19"/>
                      <path class="cls-38" d="M261.33,247.82c1.33,6.41,10.1,11.35,20.7,11.35,11.54,0,20.88-5.84,20.88-13.05a73.1,73.1,0,0,0-18-2.19A70.45,70.45,0,0,0,261.33,247.82Z"/>
                    </g>
                  </g>
                  <path class="cls-24" d="M263.41,254.44s4.83,9.05,17.81,9.41,15.24-9.41,15.24-9.41c-.26-.59-.49-1.18-.69-1.79-2.73-8.34.69-17.69.69-17.69s-35.91-14.42-31.61,0c2.92,9.82,1.2,15.3-.21,17.79A6.69,6.69,0,0,1,263.41,254.44Z"/>
                  <path class="cls-36" d="M269.23,249a32.55,32.55,0,0,0,25.54-.08c-2.29-6.19.8-13.23.8-13.23s-30-10.7-26.41,0C271.6,243,270.4,247.12,269.23,249Z"/>
                  <path class="cls-35" d="M273,324.86a22.5,22.5,0,0,0-15.37,6.47A14.68,14.68,0,0,1,273,324.86Z"/>
                  <g>
                    <path class="cls-24" d="M285.35,367h0c0-1.09,0-1.09.2.32a27.79,27.79,0,0,1,.05,5.08,23.3,23.3,0,0,0,1.31,6.38c1.06,3.49.07,7-.16,10.54-.1,1.45,1.56,7.47-1.5,7.41-2,0-2.88-2.08-3.11-3.93-.32.73-.66,1.47-.91,2.24a18.75,18.75,0,0,1-1.2,3.37c-.78,1.4-2.16,1.07-2.84-.14a6.86,6.86,0,0,1-.62-1.72c-.16,1.35-.85,5.78-3,4.67-2.7-1.41-2.44-6.1-2.19-8.57.22-2.12.66-4.2.87-6.32.1-1.26-.13-2.6.07-3.83a23.45,23.45,0,0,0-2.85,5.07A43.38,43.38,0,0,0,268,392c-.54,1.84-1.31,5.71-3.55,6.24-1.06.25-1.85-.92-2.26-1.69-1-1.94-.56-4.63-.19-6.66.81-4.34,3.14-9.08,2.68-13.62-1.37.22-2.79,1.14-4.07,1.48a10.32,10.32,0,0,1-5,.12c-2.52-.61-4-4-2-6,3-3.07,8.14-.31,11.51-2.87a13.6,13.6,0,0,1,2.37-1.78c.82-.38,2.85,0,3.18-2.4"/>
                    <path class="cls-33" d="M279.32,389.34a27.54,27.54,0,0,0-1.36,5.79,8.54,8.54,0,0,0,.07,1.35c0,.83.15,1.66.73,1.88-.3.17-.64,0-.91-.73a12.61,12.61,0,0,1-.8-3.9c.34-1.62.82-3.23,1.21-4.82.56-2.09.88-4.36,2.45-5.93A43.47,43.47,0,0,1,279.32,389.34Z"/>
                    <path class="cls-33" d="M282.78,391.32c.16-.39.29-.8.42-1.23.89-3.33.82-6.62,1-10,.92,1.88.71,4.31.63,6.37-.21,1.19-.45,2.37-.57,3.58,0,.25-.06.56-.08.87a6.09,6.09,0,0,0,.3,3.89,2.54,2.54,0,0,0,.63.84,1.66,1.66,0,0,1-1.44-1,14,14,0,0,1-.9-3.24Z"/>
                  </g>
                  <path class="cls-21" d="M298.47,242.26a51.57,51.57,0,0,1-5.11,9.65,52.29,52.29,0,0,1-8.87,10l13.57,12.78c1.85-5.33,3.63-11,5.3-17.05q1.83-6.67,3.23-12.94l-5.54-4.18Z"/>
                  <g>
                    <path class="cls-39" d="M331.07,218.4c-3.11,6.26-8.79,9.33-13.91,7.18s-3.42-5.74-.71-12.19,2.26-6.28,7.34-8.53C333.85,200.42,334.33,211.84,331.07,218.4Z"/>
                    <path class="cls-40" d="M326.2,207.66a2.67,2.67,0,0,1,2.36.11,3.29,3.29,0,0,1,1.06,3,18,18,0,0,1-4.27,10.53A4.19,4.19,0,0,1,324,222.5a1.7,1.7,0,0,1-1.78-.08,1.94,1.94,0,0,1-.49-1.94c.38-1.74,1.9-3,3.12-4.26a3.32,3.32,0,0,0,.81-1.19,1.36,1.36,0,0,0-.24-1.37,1.82,1.82,0,0,0-1-.42,10,10,0,0,0-2.32.1c-.38-1.14.52-2.27,1.14-3.11A7.06,7.06,0,0,1,326.2,207.66Z"/>
                  </g>
                  <g>
                    <path class="cls-39" d="M236.71,219.6c3.18,6,9.52,7,13.53,4.15s2.08-6.15-1.09-12.15-3-5.73-7.7-7.19C233,201.74,233.54,213.6,236.71,219.6Z"/>
                    <path class="cls-40" d="M240.14,207.28a2,2,0,0,0-2,.43,3.75,3.75,0,0,0-.48,3.08,19.42,19.42,0,0,0,5.05,9.83,4,4,0,0,0,1.34,1,1.3,1.3,0,0,0,1.49-.33,2.19,2.19,0,0,0,.14-2c-.56-1.67-2-2.66-3.21-3.78a3.41,3.41,0,0,1-.85-1.07,1.54,1.54,0,0,1,0-1.39,1.51,1.51,0,0,1,.82-.56,7.19,7.19,0,0,1,2-.22c.17-1.18-.74-2.18-1.39-2.92A6.07,6.07,0,0,0,240.14,207.28Z"/>
                  </g>
                  <path class="cls-41" d="M321.35,186.79C320.43,163.53,307,149,280.59,150.7,255,152.32,241,166.52,241.9,189.78c.54,13.41,2.21,23.72,4.13,29.73,2.75,8.6,4.23,13.23,8.44,18.15a37.5,37.5,0,0,0,31.65,12.73c1.67-.16,14.71-1.62,24.22-12.43,5.86-6.65,7.4-13.48,9.58-23.15C321.11,209.53,321.87,199.69,321.35,186.79Z"/>
                  <path class="cls-40" d="M311.63,165.93s-7.54,10.75-40.11,8.76l1.2-4.46s-9.11,5.74-28.28,8.07l-5.5,22.47,5.76-48.7,69.11-1.74,9.8,11.72-1.42,13.45s4.38,22.5,2.64,31.59l-5.39-22S312,199.79,311.63,165.93Z"/>
                  <path class="cls-42" d="M320.67,155.69c.85,0,0,0,.87.19-.58-1.73-1.17-3.44-1.83-5.14a7.87,7.87,0,0,1-.49-.62l-3.44-4.58-.4-.23c-1.55.31-.73.82-.73.82-2.21-15.28-28.64-16.22-38.72-11.86-4.92,2.12-8.39,3-10.79,3.06-1.46.55-2.93,1.08-4.4,1.59-1.6.8-3.21,1.6-4.82,2.38L251,144q-1.41.78-2.85,1.53c0,.41.07.63.07.63-20.81,13.49-13.64,37.31-13.64,37.31,1-3.69,2.6-4.7,2.6-4.7-2.4,7.56.37,16.75.37,16.75,1,6.37,6.58,11.12,6.58,11.12L250.42,172l-.25,13.56c9.54-4,21.23-3.07,26.94-12.69-3.16,6.88-5.71,9.62-5.71,9.62,32.6.89,38.49-9,38.49-9-3.16,17.46,3.25,21.2,3.25,21.2l2.43-3a75.2,75.2,0,0,1,4.64,19.85c6.27-11,10.33-19.64,8.42-36C326.6,158.24,320.67,155.69,320.67,155.69Z"/>
                  <g>
                    <path class="cls-43" d="M271.32,188.54c-3-.37-13.3,1.05-15,7.62,0,0,7.74-4.25,14.92-4.22C271.26,191.94,272.85,188.72,271.32,188.54Z"/>
                    <path class="cls-43" d="M292,187.78c2.92-.85,13.3-1.1,16,5.12,0,0-8.32-3-15.4-1.77C292.6,191.13,290.51,188.21,292,187.78Z"/>
                    <g>
                      <path class="cls-44" d="M277.11,217a12.24,12.24,0,0,0,5.23,2.59c3,.57,6.9-3.51,6.9-3.51"/>
                      <path class="cls-45" d="M277.11,217c1.14.42,2.2.82,3.25,1.13a8.29,8.29,0,0,0,2.9.49,10,10,0,0,0,2.86-1c1-.47,2-1,3.12-1.54a8.82,8.82,0,0,1-2.25,2.86,6.92,6.92,0,0,1-3.49,1.67,4.6,4.6,0,0,1-1.11,0,5.1,5.1,0,0,1-1-.24,7.86,7.86,0,0,1-1.71-.8A7.47,7.47,0,0,1,277.11,217Z"/>
                    </g>
                    <ellipse class="cls-46" cx="267.24" cy="205.96" rx="7.11" ry="7.53"/>
                    <ellipse class="cls-47" cx="267.13" cy="206.42" rx="4.11" ry="4.35"/>
                    <ellipse class="cls-11" cx="265.74" cy="202.36" rx="1.38" ry="1.46"/>
                    <ellipse class="cls-48" cx="299.71" cy="205.44" rx="7.96" ry="7.53" transform="translate(68.08 485.4) rotate(-84.83)"/>
                    <ellipse class="cls-47" cx="299.73" cy="205.44" rx="4.18" ry="3.95" transform="translate(68.09 485.42) rotate(-84.83)"/>
                    <ellipse class="cls-11" cx="297.59" cy="201.59" rx="1.46" ry="1.38" transform="translate(69.98 479.79) rotate(-84.83)"/>
                    <g>
                      <path class="cls-49" d="M296.35,224.41c.58-.23,1.27-1.18,1.8-1.51a4.22,4.22,0,0,1,1.77-.59c.81-.08,1.8.21,2,.95a1.65,1.65,0,0,1-.86,1.53,5.23,5.23,0,0,1-3.12,1,1.6,1.6,0,0,1-1.3-.49c-.26-.38,0-1,.53-1Z"/>
                      <path class="cls-49" d="M270.12,226.05a12.35,12.35,0,0,0-1.46-1.89,2.51,2.51,0,0,0-1.05-.41,1.77,1.77,0,0,0-1.77,1.14,2.09,2.09,0,0,0,.45,2,4.06,4.06,0,0,0,1.91,1.17,2.93,2.93,0,0,0,1.52.13,1.34,1.34,0,0,0,1.07-.94,1.28,1.28,0,0,0-.67-1.22,4.13,4.13,0,0,0-1.45-.48Z"/>
                      <g>
                        <path class="cls-50" d="M267.6,225.43a11.82,11.82,0,0,0,.65,1.5c1.44,2.9,4.89,8.26,9.25,10.26a12.18,12.18,0,0,0,10.15-.18c4.17-2,6.06-4.3,8.45-8.22.78-1.28,1.61-2.73,2.6-4.39,0,0,.23-.3-.16-.32a2.84,2.84,0,0,0-.65.11c-2.34.65-8.29,4-17.51,3.51-7.08-.35-10.95-1.9-12.36-2.6a.32.32,0,0,0-.42.15A.23.23,0,0,0,267.6,225.43Z"/>
                        <path class="cls-51" d="M268.25,226.93c1.44,2.9,4.89,8.26,9.25,10.26a12.18,12.18,0,0,0,10.15-.18c4.17-2,6.06-4.3,8.45-8.22-2.78,3.07-7.48,7.11-13.19,7.49C275.1,236.81,269.77,229.36,268.25,226.93Z"/>
                        <path class="cls-52" d="M267.6,225.25a30,30,0,0,0,16,3.73c8.5-.35,13.36-3.74,14.89-4.9a2.84,2.84,0,0,0-.65.11c-2.34.65-8.29,4-17.51,3.51-7.08-.35-10.95-1.9-12.36-2.6A.32.32,0,0,0,267.6,225.25Z"/>
                        <path class="cls-53" d="M295.08,225.88c-.18.07-10.08,6-23.68,1.12,0,0,2,4.48,10.16,4.9C290.94,232.39,295.08,225.88,295.08,225.88Z"/>
                        <path class="cls-54" d="M282.87,236.17c1.94-.11,4.35-.62,5.29-1.48-1.7-1.68-3.9-.45-5.76-1-3.89-1.12-5.23.28-5.74,1.05A9.93,9.93,0,0,0,282.87,236.17Z"/>
                      </g>
                    </g>
                  </g>
                  <rect class="cls-55" x="438.84" y="404.89" width="14.1" height="26.44"/>
                  <rect class="cls-55" x="118.27" y="404.89" width="14.1" height="29.09"/>
                  <g>
                    <path class="cls-56" d="M445.88,526.21c3.9,0,7.05-3.55,7.05-7.93V387.1c0-4.38-3.15-7.93-7.05-7.93s-7,3.55-7,7.93V518.28C438.84,522.66,442,526.21,445.88,526.21Z"/>
                    <path class="cls-57" d="M409.39,491.67c3.89,0,7-3.54,7-7.93V352.57c0-4.39-3.15-7.93-7-7.93s-7.05,3.54-7.05,7.93V483.74C402.34,488.13,405.49,491.67,409.39,491.67Z"/>
                    <path class="cls-56" d="M125.32,526.21c-3.9,0-7-3.55-7-7.93V387.1c0-4.38,3.15-7.93,7-7.93s7.05,3.55,7.05,7.93V518.28C132.37,522.66,129.22,526.21,125.32,526.21Z"/>
                    <path class="cls-57" d="M161.82,491.67c-3.9,0-7-3.54-7-7.93V352.57c0-4.39,3.15-7.93,7-7.93s7.05,3.54,7.05,7.93V483.74C168.87,488.13,165.72,491.67,161.82,491.67Z"/>
                    <path class="cls-58" d="M108.47,364.82H466.1a0,0,0,0,1,0,0v61.78a.55.55,0,0,1-.55.55H109a.55.55,0,0,1-.55-.55V364.82A0,0,0,0,1,108.47,364.82Z"/>
                    <g>
                      <polygon class="cls-55" points="108.47 378.96 466.1 375.46 466.1 364.82 108.47 364.82 108.47 378.96"/>
                      <path class="cls-59" d="M484.39,359.78H90.18v10.88a2.39,2.39,0,0,0,2.39,2.39H482a2.39,2.39,0,0,0,2.39-2.39Z"/>
                      <path class="cls-60" d="M480.67,363.3H93.89a3.72,3.72,0,0,1-3.32-5.38l27.7-39a3.72,3.72,0,0,1,3.33-2.05H455.47a3.7,3.7,0,0,1,3.32,2.05l25.2,39A3.72,3.72,0,0,1,480.67,363.3Z"/>
                    </g>
                  </g>
                  <polygon class="cls-61" points="248.72 429.89 249.22 433.5 276.94 433.5 277.92 428.35 247.97 428.35 248.72 429.89"/>
                  <polygon class="cls-61" points="289.79 428.35 290.76 433.5 318.49 433.5 319.75 428.35 289.79 428.35"/>
                  <g>
                    <g>
                      <g>
                        <rect class="cls-4" x="145.99" y="305.16" width="67.89" height="12.07" rx="0.97"/>
                        <g class="cls-62">
                          <rect class="cls-63" x="145.97" y="316.39" width="67.99" height="0.44"/>
                          <rect class="cls-63" x="145.97" y="314.88" width="67.99" height="0.44"/>
                          <rect class="cls-63" x="145.97" y="313.37" width="67.99" height="0.44"/>
                          <rect class="cls-63" x="145.97" y="311.86" width="67.99" height="0.44"/>
                          <rect class="cls-63" x="145.97" y="310.36" width="67.99" height="0.44"/>
                          <rect class="cls-63" x="145.97" y="308.85" width="67.99" height="0.44"/>
                          <rect class="cls-63" x="145.97" y="307.34" width="67.99" height="0.44"/>
                          <rect class="cls-63" x="145.97" y="305.83" width="67.99" height="0.44"/>
                        </g>
                      </g>
                      <path class="cls-64" d="M146.06,302.14H217a1.51,1.51,0,0,1,1.51,1.51v1.51H146.82v12.06h71.66v1.51a1.51,1.51,0,0,1-1.51,1.51H146.06c-.83,0-2.26-.67-2.26-1.51V303.65C143.8,302.81,145.23,302.14,146.06,302.14Z"/>
                    </g>
                    <g>
                      <rect class="cls-65" x="144.87" y="320.68" width="71.92" height="10.56"/>
                      <rect class="cls-66" x="205.22" y="320.08" width="2.88" height="11.76" rx="0.98"/>
                      <rect class="cls-67" x="210.02" y="320.08" width="2.88" height="11.76" rx="0.98"/>
                      <rect class="cls-68" x="150.87" y="320.08" width="2.88" height="11.76" rx="0.98"/>
                      <rect class="cls-69" x="155.66" y="320.08" width="2.88" height="11.76" rx="0.98"/>
                    </g>
                    <rect class="cls-70" x="142.99" y="290.9" width="71.66" height="11.31"/>
                    <rect class="cls-71" x="148.66" y="290.9" width="3.48" height="11.31"/>
                    <rect class="cls-72" x="153.56" y="290.9" width="3.48" height="11.31"/>
                    <rect class="cls-73" x="204.91" y="290.9" width="3.48" height="11.31"/>
                    <rect class="cls-74" x="197.79" y="290.9" width="3.48" height="11.31"/>
                  </g>
                  <g>
                    <g>
                      <g>
                        <path class="cls-75" d="M399.84,237.12s-2.35-8.77-7.18-12c-3.87-2.55-1.29,5.81-10.17,8.15a1.84,1.84,0,0,0-1.34,2.14c.51,2.53,2.37,6,7.09,11.6C394.37,254.27,399.84,237.12,399.84,237.12Z"/>
                        <path class="cls-76" d="M398.86,239.75c-.91-3.43-2.39-8.07-4.1-10-2.85-3.18-5-1.4-6.28-.56h0a9.08,9.08,0,0,1-3.62,3.2,3.69,3.69,0,0,0-.52,4.33,108.67,108.67,0,0,0,8.38,11.76C395.4,247.3,397.65,242.72,398.86,239.75Z"/>
                      </g>
                      <g>
                        <path class="cls-75" d="M431.27,237.12s2.35-8.77,7.18-12c3.86-2.55,1.28,5.81,10.16,8.15a1.83,1.83,0,0,1,1.34,2.14c-.51,2.53-2.36,6-7.09,11.6C436.73,254.27,431.27,237.12,431.27,237.12Z"/>
                        <path class="cls-76" d="M432.24,239.75c.92-3.43,2.39-8.07,4.1-10,2.86-3.18,5-1.4,6.29-.56h0a9,9,0,0,0,3.62,3.2,3.67,3.67,0,0,1,.51,4.33,108.32,108.32,0,0,1-8.37,11.76C435.7,247.3,433.46,242.72,432.24,239.75Z"/>
                      </g>
                    </g>
                    <path class="cls-77" d="M415.55,233.89h0a38.18,38.18,0,0,0-38.17,38.18V330a9.62,9.62,0,0,0,9.62,9.62h57.11a9.62,9.62,0,0,0,9.62-9.62V272.07A38.18,38.18,0,0,0,415.55,233.89Z"/>
                    <path class="cls-78" d="M392.57,334.51c-5.51,0-10-4.12-10-9.19V275.54c0-16.44,13.85-30.45,31.68-31.07,18.75-.66,34.23,13.2,34.23,30.32v50.53c0,5.07-4.47,9.19-10,9.19Z"/>
                    <path class="cls-79" d="M415.55,239.73a35.24,35.24,0,0,1,35.21,34c0-.39,0-.78,0-1.18a35.24,35.24,0,0,0-70.47,0c0,.4,0,.79,0,1.18A35.23,35.23,0,0,1,415.55,239.73Z"/>
                    <path class="cls-79" d="M406.12,235.07c.87-5.12,5-10.74,9.43-10.74s8.56,5.62,9.43,10.74a38.69,38.69,0,0,1,4.46,1.44c-.22-7.59-6.35-16.48-13.89-16.48s-13.66,8.89-13.89,16.48A39.32,39.32,0,0,1,406.12,235.07Z"/>
                    <path class="cls-80" d="M444.59,337.22c-12.51,2.4-51,1.53-63.54.33h0a9.59,9.59,0,0,0,5.95,2.07h57.11a9.62,9.62,0,0,0,9.62-9.62V272.07A38,38,0,0,0,451,257.76C451.85,270.52,455.87,335.07,444.59,337.22Z"/>
                    <path class="cls-81" d="M448.51,325.32V274.79a28.91,28.91,0,0,0-8.29-20.09c-.29,22-7,63-50.24,79.48a10.5,10.5,0,0,0,2.59.33h46C444,334.51,448.51,330.39,448.51,325.32Z"/>
                    <g>
                      <path class="cls-82" d="M394,295.73a7.5,7.5,0,0,0-7.5,7.5v22.09c0,2.9,2.72,5.27,6.06,5.27h46c3.35,0,6.06-2.37,6.06-5.27V303.23a7.5,7.5,0,0,0-7.5-7.5Z"/>
                      <path class="cls-83" d="M438.93,296c-2.54,6.83-12.1,27.43-36.73,34.62h36.33c3.35,0,6.06-2.37,6.06-5.27V303.23A7.49,7.49,0,0,0,438.93,296Z"/>
                      <path class="cls-84" d="M444.59,325.32V303.23a7.46,7.46,0,0,0-1.6-4.63c-1.43,7.86-5.9,24.59-18.6,32h14.14C441.88,330.59,444.59,328.22,444.59,325.32Z"/>
                      <g>
                        <path class="cls-79" d="M437.09,295.73H394a7.5,7.5,0,0,0-7.5,7.5v1.47a7.5,7.5,0,0,1,7.5-7.5h43.08a7.5,7.5,0,0,1,7.5,7.5v-1.47A7.5,7.5,0,0,0,437.09,295.73Z"/>
                        <path class="cls-79" d="M386.92,303.86l-.24-.79h-.16l-.32.79a1.22,1.22,0,0,0-.86,1.15v5.14a1.23,1.23,0,0,0,2.45,0V305A1.21,1.21,0,0,0,386.92,303.86Z"/>
                      </g>
                    </g>
                  </g>
                  <path class="cls-21" d="M263.7,245.81A45.74,45.74,0,0,0,281,262q-6.36,7-12.71,14.06a158.25,158.25,0,0,1-7.65-14.41,161.09,161.09,0,0,1-6.37-15.78l3.05-2.67Z"/>
                  <g>
                    <path class="cls-85" d="M287.53,263c-.74-.31-3.32-2.39-8.56-.4s1.31,8.46,1.31,8.46h5.77S293.74,265.59,287.53,263Z"/>
                    <path class="cls-86" d="M273.11,301.71c.14.44.26.87.4,1.29h0c4.25,13.26,11.22,19.89,11.22,19.89a71.09,71.09,0,0,0,5.49-8.44c.78-1.44,1.39-2.69,1.85-3.77a18.25,18.25,0,0,0,1.5-4.81c-.08-1.64-.18-3.23-.31-4.76s-.24-2.81-.39-4.14c-.43-3.79-1-7.15-1.59-10.09-.31-1.49-.63-2.87-.95-4.16-2.11-8.26-4.37-12.26-4.28-12.85.26-1.69-6.21-1.1-6.21-1.1a63.12,63.12,0,0,1-.95,8.5c-.16,1-.34,1.93-.53,2.91-.54,2.83-1.17,5.7-1.81,8.4-.23.94-.45,1.86-.67,2.75-.81,3.27-1.57,6.11-2.09,8C273.37,300.82,273.11,301.71,273.11,301.71Z"/>
                    <path class="cls-87" d="M278.36,280.19a43.31,43.31,0,0,1,12.54,6.66c-.3-1.49-.67-3-1-4.32a49.55,49.55,0,0,0-11-5.25C278.73,278.24,278.55,279.21,278.36,280.19Z"/>
                    <path class="cls-87" d="M276.21,291.57c4.66,2.08,12.35,5.84,16.69,9.55-.11-1.43-.27-3.08-.42-4.41a62.42,62.42,0,0,0-15.59-8C276.66,289.65,276.43,290.69,276.21,291.57Z"/>
                    <path class="cls-87" d="M273.49,301.71c.14.44.26,1,.41,1.4h0c4.57,2.33,11.67,6.29,16.06,11.07.78-1.44,1.35-2.65,1.81-3.73a92.83,92.83,0,0,0-17.67-11C273.69,300.93,273.49,301.71,273.49,301.71Z"/>
                  </g>
                </g>
                <g>
                  <path class="cls-88" d="M336,347.56a28.25,28.25,0,0,1-4.17,1.56,39.45,39.45,0,0,1-4.83,1l-.68,4.35,4.67,3.79,2.29-1a3.39,3.39,0,0,1,2.12-2.33,4.48,4.48,0,0,1,3.35-.09l2.25-1-.34-2.54-1.14-.91-1.38-1.1h0l-.21-.17-.49-.39Z"/>
                  <g class="cls-89">
                    <g>
                      <path class="cls-90" d="M326.93,349.45l4.51,3.83-.54,4.12-4.64-3.7Z"/>
                      <path class="cls-91" d="M331.44,353.28a5.25,5.25,0,0,1,3.13-2,27,27,0,0,1,6-.7l.34,2.48-2.25,1a4.51,4.51,0,0,0-3.34.09,3.32,3.32,0,0,0-2.11,2.27l-2.29,1Z"/>
                      <path class="cls-92" d="M326.93,349.45a39.16,39.16,0,0,0,4.82-.94,27.68,27.68,0,0,0,4.16-1.53l4.64,3.62a40.42,40.42,0,0,0-5.95,1,7.14,7.14,0,0,0-3.16,1.66Z"/>
                      <path class="cls-93" d="M327.17,353.37a1.33,1.33,0,0,1,1.26-1.68,2,2,0,0,1,1.85,1.65A1.33,1.33,0,0,1,329,355,2,2,0,0,1,327.17,353.37Z"/>
                      <path class="cls-94" d="M328.78,351.73a2,2,0,0,1,1.5,1.61,1.54,1.54,0,0,1-.15,1c-.1.17-.87.34-1.57-1C328,352.38,328.66,351.71,328.78,351.73Z"/>
                      <path class="cls-95" d="M328.45,350.74l8.86-2.66.73.56-8.7,2.85Z"/>
                      <path class="cls-96" d="M329.11,351.3l8.9-2.68,1.41,1.1a38.54,38.54,0,0,0-5.16,1,25.13,25.13,0,0,0-4,1.54Z"/>
                      <path class="cls-97" d="M329.1,351.29l8.7-2.83.24.18-8.8,2.77Z"/>
                    </g>
                  </g>
                </g>
                <g>
                  <path class="cls-88" d="M298,353.56c-2.86-.95-5.77-1.9-6-1.91l-45.58-2.24a3.83,3.83,0,0,0-.5,0h-.47l-3.25-.11a2.26,2.26,0,0,0-2.36,2.16l-.1,2a2.28,2.28,0,0,0,2.14,2.39l3.31.1s.32,0,.42.05h.48l45.67,2.25s0,0,0-.05l0,0c.91-.08,7.71-1.68,10.11-2.24h0c1.4-.33,1.85-.4,1.85-.4s-.43-.12-1.78-.57Z"/>
                  <path class="cls-98" d="M245.06,352.51l46.1,2.27c.62,0-1-1.7-.92-3.35s1.67-3.16,1.24-3.19L245.38,346a2.25,2.25,0,0,0-2.36,2.16l-.1,2A2.27,2.27,0,0,0,245.06,352.51Z"/>
                  <path class="cls-99" d="M291.1,354.75c.62,0,12-2.69,12-2.69s-11.21-3.79-11.64-3.82a6.88,6.88,0,0,0-1.24,3.2A7.13,7.13,0,0,0,291.1,354.75Z"/>
                  <path class="cls-100" d="M245.06,352.51l46.17,2.27c.23-.08-.29-.48-.62-1.15-.07-.15-47.58-2.54-47.33-2.16A2.25,2.25,0,0,0,245.06,352.51Z"/>
                  <path class="cls-101" d="M290.36,350.68c.37-1.32,1.49-2.42,1.12-2.44L245.38,346h-.46a2.16,2.16,0,0,0-1.9,2.17S290.29,350.92,290.36,350.68Z"/>
                  <path class="cls-102" d="M303.12,352.06l-12.77-1.37a4.77,4.77,0,0,0,.26,2.94Z"/>
                  <path class="cls-103" d="M301.4,352.48c1.4-.33,1.85-.4,1.85-.4s-.43-.12-1.77-.57Z"/>
                  <path class="cls-104" d="M241.35,352.38l4.05.15a9.84,9.84,0,0,1-.48-3.25,10.53,10.53,0,0,1,.83-3.29l-4.08-.14a2.27,2.27,0,0,0-2.36,2.16l-.1,2A2.27,2.27,0,0,0,241.35,352.38Z"/>
                  <path class="cls-105" d="M244.66,352.5l.42,0h.49a15.64,15.64,0,0,1-.35-3.55,9.46,9.46,0,0,1,.67-3l-.5,0h-.47a14.07,14.07,0,0,0-.49,3A21.55,21.55,0,0,0,244.66,352.5Z"/>
                </g>
                <g>
                  <path class="cls-106" d="M148.58,332.12l-1.6.32a.77.77,0,0,1-.83-.67L141.74,309a.77.77,0,0,1,.53-.94l1.59-.32a.76.76,0,0,1,.84.67l4.4,22.81A.77.77,0,0,1,148.58,332.12Z"/>
                  <path class="cls-107" d="M147.55,332l-.2,0a1.74,1.74,0,0,1-.24-.77l-4.33-22.39a1.86,1.86,0,0,1-.06-.8l.2-.05a1.81,1.81,0,0,1,.24.77l4.33,22.4A1.86,1.86,0,0,1,147.55,332Z"/>
                  <path class="cls-108" d="M147.17,332.08l-.2,0a1.82,1.82,0,0,1-.24-.78l-4.36-22.56a1.82,1.82,0,0,1-.07-.81l.21,0a2,2,0,0,1,.24.77l4.36,22.57A1.9,1.9,0,0,1,147.17,332.08Z"/>
                  <path class="cls-109" d="M147,332.12l-.1,0a3,3,0,0,1-.2-.78l-4.36-22.58a3.05,3.05,0,0,1-.11-.8l.1,0a3.33,3.33,0,0,1,.2.78l4.36,22.58A4.6,4.6,0,0,1,147,332.12Z"/>
                  <path class="cls-110" d="M146.8,332.19l-.21,0a2,2,0,0,1-.24-.78L142,308.86a1.82,1.82,0,0,1-.07-.81l.21-.05a2,2,0,0,1,.24.78l4.36,22.6A1.82,1.82,0,0,1,146.8,332.19Z"/>
                  <path class="cls-107" d="M141.76,309.05l-2.13-11.45c-.09-.49.47-1,1.27-1.18H141c.79-.16,1.51.11,1.61.6l2.11,11.37C144.79,308.87,141.86,309.54,141.76,309.05Z"/>
                  <path class="cls-111" d="M143,308.8l-.21.05c-.05,0-.12-.16-.16-.36l-2-10.7c0-.21,0-.38,0-.39l.21,0c.05,0,.12.16.16.36l2.05,10.7C143.1,308.62,143.09,308.79,143,308.8Z"/>
                  <path class="cls-108" d="M142.66,308.85l-.21,0s-.12-.15-.16-.36l-2.08-10.74c0-.21,0-.39,0-.4l.21,0c.05,0,.13.15.17.36l2.07,10.75C142.72,308.66,142.71,308.84,142.66,308.85Z"/>
                  <path class="cls-109" d="M142.51,308.88l-.11,0a1,1,0,0,1-.11-.37l-2.08-10.74a1,1,0,0,1,0-.39l.11,0a.87.87,0,0,1,.12.37l2.07,10.75C142.52,308.7,142.54,308.88,142.51,308.88Z"/>
                  <path class="cls-112" d="M142.27,308.93l-.22,0c-.05,0-.12-.15-.16-.36l-2.08-10.74c0-.21,0-.39,0-.4l.22,0s.12.15.16.36l2.08,10.74C142.33,308.74,142.32,308.92,142.27,308.93Z"/>
                  <path class="cls-106" d="M142.23,297c.07.36-.41.76-1.07.89s-1.26-.05-1.33-.41.41-.76,1.07-.89S142.16,296.63,142.23,297Z"/>
                  <path class="cls-113" d="M144.08,334l-1.52.59a.75.75,0,0,1-.93-.51l-8.21-21.72a.78.78,0,0,1,.36-1l1.51-.59a.75.75,0,0,1,.94.51l8.2,21.72A.78.78,0,0,1,144.08,334Z"/>
                  <path class="cls-114" d="M143.05,334l-.2.07a1.85,1.85,0,0,1-.36-.71l-8.06-21.33a1.76,1.76,0,0,1-.2-.78l.2-.08a1.85,1.85,0,0,1,.36.72l8.06,21.32A2,2,0,0,1,143.05,334Z"/>
                  <path class="cls-115" d="M142.69,334.17l-.2.07a1.94,1.94,0,0,1-.37-.72L134,312a2.06,2.06,0,0,1-.21-.78l.2-.08c.05,0,.21.3.37.72l8.12,21.49A2.18,2.18,0,0,1,142.69,334.17Z"/>
                  <path class="cls-116" d="M142.55,334.23l-.09,0a3.23,3.23,0,0,1-.33-.74L134,312a3.85,3.85,0,0,1-.25-.77l.1,0a4.23,4.23,0,0,1,.33.74l8.12,21.5A3.16,3.16,0,0,1,142.55,334.23Z"/>
                  <path class="cls-117" d="M142.34,334.34l-.2.08a2,2,0,0,1-.36-.72l-8.13-21.52a2.09,2.09,0,0,1-.21-.79l.2-.08a2.06,2.06,0,0,1,.37.72l8.13,21.52A2,2,0,0,1,142.34,334.34Z"/>
                  <path class="cls-118" d="M133.46,312.41l-4-10.92c-.18-.47.29-1.09,1-1.38l.08,0c.75-.29,1.51-.15,1.68.31l4,10.85C136.41,311.7,133.63,312.87,133.46,312.41Z"/>
                  <path class="cls-119" d="M134.72,312l-.21.08s-.14-.12-.22-.32l-3.86-10.24c-.08-.19-.1-.37-.05-.39l.2-.08s.15.13.22.33l3.87,10.23C134.74,311.79,134.77,312,134.72,312Z"/>
                  <path class="cls-115" d="M134.31,312.05l-.2.08c-.05,0-.15-.13-.23-.32L130,301.57c-.08-.2-.1-.37-.05-.39l.2-.08c.05,0,.15.12.23.32l3.86,10.24C134.34,311.86,134.36,312,134.31,312.05Z"/>
                  <path class="cls-116" d="M134.17,312.11l-.11,0a1,1,0,0,1-.18-.34L130,301.57c-.08-.2-.12-.37-.09-.38l.1,0a1,1,0,0,1,.18.35l3.86,10.23A.91.91,0,0,1,134.17,312.11Z"/>
                  <path class="cls-120" d="M133.93,312.2l-.2.08s-.15-.13-.22-.33l-3.87-10.23c-.07-.2-.1-.38,0-.4l.21-.08s.14.13.22.33l3.86,10.24C134,312,134,312.18,133.93,312.2Z"/>
                  <path class="cls-113" d="M131.87,300.43c.13.34-.28.82-.9,1.07s-1.25.17-1.38-.18.28-.82.91-1.07S131.74,300.09,131.87,300.43Z"/>
                  <path class="cls-121" d="M147.91,333.31l-1.63,0a.75.75,0,0,1-.67-.83l.49-23.25a.76.76,0,0,1,.71-.8l1.62,0a.78.78,0,0,1,.68.83l-.49,23.26A.76.76,0,0,1,147.91,333.31Z"/>
                  <path class="cls-122" d="M146.93,333h-.21a1.86,1.86,0,0,1-.07-.8l.48-22.83a2.17,2.17,0,0,1,.1-.8h.21a1.8,1.8,0,0,1,.08.81L147,332.17A1.78,1.78,0,0,1,146.93,333Z"/>
                  <path class="cls-123" d="M146.54,333h-.21a1.89,1.89,0,0,1-.07-.81l.49-23a1.91,1.91,0,0,1,.1-.8h.21a1.89,1.89,0,0,1,.07.81l-.48,23A1.89,1.89,0,0,1,146.54,333Z"/>
                  <path class="cls-116" d="M146.39,333h-.1a3.22,3.22,0,0,1,0-.81l.49-23a3.52,3.52,0,0,1,.06-.81h.1a3.22,3.22,0,0,1,0,.81l-.48,23A3.21,3.21,0,0,1,146.39,333Z"/>
                  <path class="cls-124" d="M146.15,333H146a1.8,1.8,0,0,1-.08-.81l.49-23a2.2,2.2,0,0,1,.1-.81h.21a1.83,1.83,0,0,1,.08.81l-.49,23A1.82,1.82,0,0,1,146.15,333Z"/>
                  <path class="cls-125" d="M146.1,309.29l.32-11.66c0-.5.68-.89,1.48-.87H148c.81,0,1.45.43,1.44.93l-.32,11.58C149.09,309.77,146.09,309.79,146.1,309.29Z"/>
                  <path class="cls-122" d="M147.42,309.38h-.22s-.08-.18-.08-.39l.23-11c0-.21.05-.38.1-.38h.22c.05,0,.09.17.08.38l-.23,11C147.52,309.21,147.47,309.38,147.42,309.38Z"/>
                  <path class="cls-123" d="M147,309.29h-.22c-.05,0-.09-.17-.08-.39l.23-10.95c0-.21.05-.39.1-.38h.22s.09.17.08.39l-.23,10.95C147.12,309.12,147.07,309.29,147,309.29Z"/>
                  <path class="cls-116" d="M146.86,309.28h-.1s0-.17,0-.39l.23-10.95a1,1,0,0,1,.05-.39h.11s0,.17,0,.38l-.23,11C146.91,309.11,146.89,309.28,146.86,309.28Z"/>
                  <path class="cls-124" d="M146.62,309.28h-.22c-.05,0-.09-.17-.09-.38l.23-11c0-.21.05-.38.1-.38h.22s.09.18.09.39l-.23,10.95C146.71,309.11,146.67,309.28,146.62,309.28Z"/>
                  <path class="cls-121" d="M149.09,297.6c0,.37-.56.65-1.24.64s-1.21-.32-1.21-.69.56-.66,1.24-.64S149.09,297.23,149.09,297.6Z"/>
                  <g>
                    <path class="cls-88" d="M139.62,345.72c0-1.24,3.45-2.24,7.7-2.24s7.7,1,7.7,2.24-3.45,2.25-7.7,2.25S139.62,347,139.62,345.72Z"/>
                    <g>
                      <path class="cls-126" d="M159.83,296.7l-5-1.19c-.1,0-.19,0-.21.08l-6.3,26.53c0,.07.05.14.15.16l5,1.2a.17.17,0,0,0,.21-.09L160,296.87C160,296.8,159.92,296.73,159.83,296.7Z"/>
                      <g>
                        <path class="cls-127" d="M159.92,297.1l-3.95-.93,0,.07,4,.94,0-.08Z"/>
                        <path class="cls-127" d="M159.83,297.46l-2.15-.51,0,.07,2.15.52,0-.08Z"/>
                        <path class="cls-127" d="M159.75,297.82l-2.16-.51v.07l2.15.51,0-.07Z"/>
                        <path class="cls-127" d="M159.66,298.18l-2.15-.51,0,.07,2.15.51,0-.07Z"/>
                        <path class="cls-127" d="M159.58,298.54l-2.16-.51v.07l2.15.51,0-.07Z"/>
                        <path class="cls-127" d="M159.49,298.9l-4-.94V298l3.94.94,0-.07Z"/>
                        <path class="cls-127" d="M159.41,299.26l-2.16-.51v.07l2.15.51,0-.07Z"/>
                        <path class="cls-127" d="M159.32,299.62l-2.15-.52,0,.08,2.15.51,0-.07Z"/>
                        <path class="cls-127" d="M159.24,300l-2.16-.51v.08l2.15.51,0-.08Z"/>
                        <path class="cls-127" d="M159.15,300.33l-2.15-.51,0,.07,2.15.52,0-.08Z"/>
                        <path class="cls-127" d="M159.06,300.69l-3.94-.93,0,.07,4,.93v-.07Z"/>
                        <path class="cls-127" d="M159,301.05l-2.15-.51,0,.07,2.15.51,0-.07Z"/>
                        <path class="cls-127" d="M158.89,301.41l-2.15-.51,0,.07,2.16.51v-.07Z"/>
                        <path class="cls-127" d="M158.81,301.77l-2.15-.51,0,.07,2.15.51,0-.07Z"/>
                        <path class="cls-127" d="M158.72,302.13l-2.15-.51,0,.07,2.16.51v-.07Z"/>
                        <path class="cls-127" d="M158.64,302.49l-3.95-.94,0,.07,4,.94,0-.07Z"/>
                        <path class="cls-127" d="M158.55,302.85l-2.15-.52,0,.08,2.16.51v-.07Z"/>
                        <path class="cls-127" d="M158.47,303.2l-2.15-.51,0,.08,2.15.51,0-.08Z"/>
                        <path class="cls-127" d="M158.38,303.56l-2.15-.51,0,.07,2.16.52v-.08Z"/>
                        <path class="cls-127" d="M158.3,303.92l-2.15-.51,0,.07,2.15.51,0-.07Z"/>
                        <path class="cls-127" d="M158.21,304.28l-3.94-.94,0,.08,3.95.93v-.07Z"/>
                        <path class="cls-127" d="M158.13,304.64l-2.15-.51,0,.07,2.15.51,0-.07Z"/>
                        <path class="cls-127" d="M158,305l-2.15-.51,0,.07,2.16.51V305Z"/>
                        <path class="cls-127" d="M158,305.36l-2.16-.51v.07l2.15.51,0-.07Z"/>
                        <path class="cls-127" d="M157.87,305.72l-2.15-.52,0,.08,2.16.51v-.07Z"/>
                        <path class="cls-127" d="M157.79,306.07l-3.95-.93,0,.07,4,.94,0-.08Z"/>
                        <path class="cls-127" d="M157.7,306.43l-2.15-.51,0,.07,2.15.52,0-.08Z"/>
                        <path class="cls-127" d="M157.62,306.79l-2.16-.51v.07l2.15.51,0-.07Z"/>
                        <path class="cls-127" d="M157.53,307.15l-2.15-.51,0,.07,2.15.51,0-.07Z"/>
                        <path class="cls-127" d="M157.45,307.51l-2.16-.51v.07l2.15.51,0-.07Z"/>
                        <path class="cls-127" d="M157.36,307.87l-4-.94V307l3.94.94,0-.07Z"/>
                        <path class="cls-127" d="M157.28,308.23l-2.16-.51v.07l2.15.51,0-.07Z"/>
                        <path class="cls-127" d="M157.19,308.59l-2.15-.51,0,.07,2.15.51,0-.07Z"/>
                        <path class="cls-127" d="M157.11,308.94l-2.16-.51v.08l2.15.51,0-.08Z"/>
                        <path class="cls-127" d="M157,309.3l-2.15-.51,0,.08,2.15.51,0-.08Z"/>
                        <path class="cls-127" d="M156.94,309.66l-3.95-.93,0,.07,3.95.93,0-.07Z"/>
                        <path class="cls-127" d="M156.85,310l-2.15-.51,0,.07,2.15.51,0-.07Z"/>
                        <path class="cls-127" d="M156.76,310.38l-2.15-.51v.07l2.15.51v-.07Z"/>
                        <path class="cls-127" d="M156.68,310.74l-2.15-.51,0,.07,2.15.51,0-.07Z"/>
                        <path class="cls-127" d="M156.59,311.1l-2.15-.51,0,.07,2.16.51v-.07Z"/>
                        <path class="cls-127" d="M156.51,311.46l-3.95-.94v.07l3.94.94,0-.07Z"/>
                        <path class="cls-127" d="M156.42,311.82l-2.15-.52,0,.08,2.16.51v-.07Z"/>
                        <path class="cls-127" d="M156.34,312.17l-2.15-.51,0,.08,2.15.51,0-.08Z"/>
                        <path class="cls-127" d="M156.25,312.53,154.1,312l0,.07,2.16.52v-.08Z"/>
                        <path class="cls-127" d="M156.17,312.89l-2.15-.51,0,.07,2.15.51,0-.07Z"/>
                        <path class="cls-127" d="M156.08,313.25l-3.94-.94,0,.08,3.95.93v-.07Z"/>
                        <path class="cls-127" d="M156,313.61l-2.16-.51v.07l2.15.51,0-.07Z"/>
                        <path class="cls-127" d="M155.91,314l-2.15-.51,0,.07,2.16.51V314Z"/>
                        <path class="cls-127" d="M155.83,314.33l-2.16-.51v.07l2.15.51,0-.07Z"/>
                        <path class="cls-127" d="M155.74,314.69l-2.15-.51,0,.07,2.16.51v-.07Z"/>
                        <path class="cls-127" d="M155.66,315l-3.95-.93,0,.07,3.95.94,0-.08Z"/>
                        <path class="cls-127" d="M155.57,315.4l-2.15-.51,0,.07,2.16.52v-.08Z"/>
                        <path class="cls-127" d="M155.49,315.76l-2.16-.51v.07l2.15.51,0-.07Z"/>
                        <path class="cls-127" d="M155.4,316.12l-2.15-.51,0,.07,2.15.51,0-.07Z"/>
                        <path class="cls-127" d="M155.32,316.48l-2.16-.51V316l2.15.51,0-.07Z"/>
                        <path class="cls-127" d="M155.23,316.84l-3.95-.94V316l3.94.94,0-.07Z"/>
                        <path class="cls-127" d="M155.15,317.2l-2.16-.51v.07l2.15.51,0-.07Z"/>
                        <path class="cls-127" d="M155.06,317.56l-2.15-.51,0,.07,2.15.51,0-.07Z"/>
                        <path class="cls-127" d="M155,317.92l-2.16-.52v.08L155,318l0-.07Z"/>
                        <path class="cls-127" d="M154.89,318.27l-2.15-.51,0,.08,2.15.51,0-.08Z"/>
                        <path class="cls-127" d="M154.81,318.63l-3.95-.93,0,.07,3.95.94,0-.08Z"/>
                        <path class="cls-127" d="M154.72,319l-2.15-.51,0,.07,2.15.51,0-.07Z"/>
                        <path class="cls-127" d="M154.63,319.35l-2.15-.51,0,.07,2.16.51v-.07Z"/>
                        <path class="cls-127" d="M154.55,319.71l-2.15-.51,0,.07,2.15.51,0-.07Z"/>
                        <path class="cls-127" d="M154.46,320.07l-2.15-.51,0,.07,2.16.51v-.07Z"/>
                        <path class="cls-127" d="M154.38,320.43l-3.95-.94v.07l3.94.94,0-.07Z"/>
                        <path class="cls-127" d="M154.29,320.79l-2.15-.52,0,.08,2.16.51v-.07Z"/>
                        <path class="cls-127" d="M154.21,321.14l-2.15-.51,0,.08,2.15.51,0-.08Z"/>
                        <path class="cls-127" d="M154.12,321.5,152,321l0,.07,2.16.52v-.08Z"/>
                        <path class="cls-127" d="M154,321.86l-2.15-.51,0,.07,2.15.51,0-.07Z"/>
                        <path class="cls-127" d="M154,322.22l-3.94-.94,0,.08,3.95.93v-.07Z"/>
                        <g>
                          <path class="cls-128" d="M148.54,325l9.53-12.08c.13-.16-.64-.07-1.08-.4s-.54-1.07-.63-.95l-9.53,12.08a.75.75,0,0,0,.13,1.06l.52.41A.76.76,0,0,0,148.54,325Z"/>
                          <path class="cls-99" d="M158.05,312.92c.13-.16,1.6-3.78,1.6-3.78s-3.2,2.3-3.29,2.42a1.88,1.88,0,0,0,1.69,1.36Z"/>
                          <path class="cls-129" d="M148.54,325l9.55-12.1c0-.08-.19,0-.43-.06-.06,0-9.9,12.43-9.75,12.44A.78.78,0,0,0,148.54,325Z"/>
                          <path class="cls-130" d="M156.81,312.33c-.29-.35-.37-.87-.45-.77l-9.53,12.08-.09.12a.72.72,0,0,0,.22.94S156.86,312.4,156.81,312.33Z"/>
                          <path class="cls-102" d="M159.65,309.14l-2.84,3.2a1.54,1.54,0,0,0,.85.49Z"/>
                          <path class="cls-103" d="M159.43,309.69c.18-.44.25-.58.25-.58l-.51.37Z"/>
                          <g>
                            <path class="cls-98" d="M154.45,322.61l-5.36,23.67h-7.23l-6-23.5C135.9,322,154.45,321.85,154.45,322.61Z"/>
                            <g class="cls-131">
                              <path class="cls-132" d="M137.11,322.47c.06,0,3.44-.29,7.43-.34,1.9,0,3.89,0,5.58,0,2.54.06,4.53.27,4.33.45-1.5,1.31-4.21,23.38-6.8,23.38C142,346,136.45,322.53,137.11,322.47Z"/>
                            </g>
                            <path class="cls-133" d="M139.3,322.32s4.23,4.55,7.75,4.54,7.43-4.34,7.4-4.25c-.7,1.81-3.48,19-7,18.57C141.77,340.46,138.64,322.38,139.3,322.32Z"/>
                          </g>
                        </g>
                      </g>
                    </g>
                  </g>
                </g>
              </g>
            </g>
          </g>
        </g>
      </g>
    </g>
  </g>
</svg>
