<svg id="Layer_1" data-name="Layer 1" xmlns="http://www.w3.org/2000/svg" xmlns:xlink="http://www.w3.org/1999/xlink" width="619.88" height="562.43" viewBox="0 0 619.88 562.43">
  <defs>
    <style>
      .cls-1, .cls-51 {
        fill: none;
      }

      .cls-2, .cls-62 {
        fill: #fff;
      }

      .cls-3 {
        clip-path: url(#clip-path);
      }

      .cls-4 {
        clip-path: url(#clip-path-2);
      }

      .cls-5 {
        fill: #f8e2b9;
      }

      .cls-6 {
        fill: #c3b6a2;
      }

      .cls-7 {
        fill: #88d1d1;
      }

      .cls-8 {
        fill: #a19687;
      }

      .cls-9 {
        fill: #cca96a;
      }

      .cls-10 {
        fill: #020202;
        stroke: #201d1e;
        opacity: 0.2;
      }

      .cls-10, .cls-46, .cls-49, .cls-51, .cls-52, .cls-54, .cls-55, .cls-59, .cls-60, .cls-61, .cls-62, .cls-67 {
        stroke-miterlimit: 10;
      }

      .cls-11 {
        fill: #c37946;
      }

      .cls-12 {
        fill: #89513a;
      }

      .cls-13 {
        fill: #d58349;
      }

      .cls-14 {
        opacity: 0.12;
      }

      .cls-15 {
        fill: #e99c48;
      }

      .cls-16 {
        fill: #f7c172;
      }

      .cls-17 {
        fill: #232423;
        opacity: 0.39;
      }

      .cls-18 {
        fill: #692e21;
      }

      .cls-18, .cls-20, .cls-21, .cls-22, .cls-23, .cls-24, .cls-25, .cls-26, .cls-27, .cls-28, .cls-32, .cls-33, .cls-34, .cls-35, .cls-36, .cls-37, .cls-38, .cls-39, .cls-40, .cls-41, .cls-42, .cls-43, .cls-44, .cls-45 {
        fill-rule: evenodd;
      }

      .cls-19 {
        fill: #af834c;
      }

      .cls-20 {
        fill: #306f30;
      }

      .cls-21 {
        fill: url(#GradientFill_12);
      }

      .cls-22 {
        fill: url(#GradientFill_13);
      }

      .cls-23 {
        fill: #927a63;
      }

      .cls-24 {
        fill: #ac634e;
      }

      .cls-25 {
        fill: url(#GradientFill_3);
      }

      .cls-26 {
        fill: url(#GradientFill_6);
      }

      .cls-27 {
        fill: url(#GradientFill_8);
      }

      .cls-28 {
        fill: #c0765f;
      }

      .cls-29 {
        fill: url(#GradientFill_9);
      }

      .cls-30 {
        fill: url(#GradientFill_9-2);
      }

      .cls-31 {
        fill: url(#GradientFill_9-3);
      }

      .cls-32 {
        fill: #72a13f;
      }

      .cls-33 {
        fill: url(#GradientFill_10);
      }

      .cls-34 {
        fill: url(#GradientFill_11);
      }

      .cls-35 {
        fill: url(#GradientFill_3-2);
      }

      .cls-36 {
        fill: url(#GradientFill_6-2);
      }

      .cls-37 {
        fill: #ca7aac;
      }

      .cls-38 {
        fill: url(#GradientFill_3-3);
      }

      .cls-39 {
        fill: url(#GradientFill_6-3);
      }

      .cls-40 {
        fill: url(#GradientFill_14);
      }

      .cls-41 {
        fill: #bc6fa7;
      }

      .cls-42 {
        fill: url(#GradientFill_15);
      }

      .cls-43 {
        fill: #b4629b;
      }

      .cls-44 {
        fill: #a5588e;
      }

      .cls-45 {
        fill: #e79fc5;
      }

      .cls-46, .cls-49 {
        fill: #f9d1c6;
      }

      .cls-46 {
        stroke: #323232;
      }

      .cls-47 {
        fill: #db9d8e;
      }

      .cls-48 {
        opacity: 0.3;
      }

      .cls-49, .cls-51, .cls-55, .cls-60, .cls-61, .cls-67 {
        stroke: #563b35;
      }

      .cls-49, .cls-51, .cls-55, .cls-56, .cls-57, .cls-58 {
        stroke-width: 0.75px;
      }

      .cls-50 {
        fill: #df71e2;
        stroke: #710e7c;
      }

      .cls-50, .cls-56, .cls-57, .cls-58 {
        stroke-linejoin: round;
      }

      .cls-50, .cls-52, .cls-54, .cls-59, .cls-60, .cls-61, .cls-62 {
        stroke-width: 0.5px;
      }

      .cls-52 {
        fill: #61435b;
      }

      .cls-52, .cls-54 {
        stroke: #1c101a;
      }

      .cls-53 {
        fill: #f8e1db;
      }

      .cls-54 {
        fill: #442e40;
      }

      .cls-55 {
        fill: #e2c9c5;
      }

      .cls-56 {
        fill: #686c70;
        stroke: #211f1c;
      }

      .cls-57 {
        fill: #311415;
        stroke: #190500;
      }

      .cls-58 {
        fill: #9b959a;
        stroke: #423a33;
      }

      .cls-59 {
        fill: #c085e0;
        stroke: #453323;
      }

      .cls-60, .cls-67 {
        fill: #fbd3c7;
      }

      .cls-61 {
        fill: #342517;
      }

      .cls-62 {
        stroke: #3d2e17;
      }

      .cls-63 {
        fill: #2d2b21;
      }

      .cls-64 {
        fill: #661e1b;
      }

      .cls-65 {
        fill: #d26653;
      }

      .cls-66 {
        fill: #f9988f;
      }

      .cls-67 {
        stroke-width: 0.25px;
      }

      .cls-68 {
        clip-path: url(#clip-path-3);
      }

      .cls-69 {
        clip-path: url(#clip-path-4);
      }

      .cls-70 {
        clip-path: url(#clip-path-5);
      }

      .cls-71 {
        fill: url(#linear-gradient);
      }

      .cls-72 {
        fill: url(#linear-gradient-2);
      }

      .cls-73 {
        fill: url(#linear-gradient-3);
      }

      .cls-74 {
        fill: url(#linear-gradient-4);
      }

      .cls-75 {
        fill: #aa895b;
      }

      .cls-76 {
        fill: #8c5b48;
      }

      .cls-77 {
        fill: #c19867;
      }

      .cls-78 {
        opacity: 0.6;
      }

      .cls-79 {
        fill: #723b17;
      }

      .cls-80 {
        fill: #70b644;
      }

      .cls-81 {
        fill: #cea852;
      }

      .cls-82 {
        fill: #87c444;
      }

      .cls-83 {
        fill: #959595;
      }

      .cls-84 {
        fill: #569b44;
      }
    </style>
    <clipPath id="clip-path">
      <rect class="cls-1" x="40.03" y="56.29" width="539.83" height="449.85" rx="116.93"/>
    </clipPath>
    <clipPath id="clip-path-2">
      <polygon class="cls-1" points="596.34 584.5 -131.85 584.5 103.54 -137.44 589.25 -106.58 596.34 584.5"/>
    </clipPath>
    <linearGradient id="GradientFill_12" data-name="GradientFill 12" x1="388.41" y1="331.68" x2="405.06" y2="331.68" gradientUnits="userSpaceOnUse">
      <stop offset="0" stop-color="#cdb997"/>
      <stop offset="1" stop-color="#e7d4b6"/>
    </linearGradient>
    <linearGradient id="GradientFill_13" data-name="GradientFill 13" x1="388.48" y1="332.18" x2="405.01" y2="332.18" gradientUnits="userSpaceOnUse">
      <stop offset="0" stop-color="#b19f83"/>
      <stop offset="1" stop-color="#d1bea1"/>
    </linearGradient>
    <linearGradient id="GradientFill_3" data-name="GradientFill 3" x1="385.26" y1="345.9" x2="401.09" y2="345.9" gradientUnits="userSpaceOnUse">
      <stop offset="0" stop-color="#ebd7b5"/>
      <stop offset="1" stop-color="#f9efd6"/>
    </linearGradient>
    <linearGradient id="GradientFill_6" data-name="GradientFill 6" x1="385.26" y1="345.9" x2="401.09" y2="345.9" gradientUnits="userSpaceOnUse">
      <stop offset="0" stop-color="#cdbb9f"/>
      <stop offset="1" stop-color="#e3d4b6"/>
    </linearGradient>
    <linearGradient id="GradientFill_8" data-name="GradientFill 8" x1="426.42" y1="356.3" x2="426.42" y2="341.47" gradientUnits="userSpaceOnUse">
      <stop offset="0" stop-color="#5f281b"/>
      <stop offset="1" stop-color="#a15641"/>
    </linearGradient>
    <linearGradient id="GradientFill_9" data-name="GradientFill 9" x1="428.05" y1="354.11" x2="428.05" y2="342.55" gradientUnits="userSpaceOnUse">
      <stop offset="0" stop-color="#ba8b51"/>
      <stop offset="1" stop-color="#f1c375"/>
    </linearGradient>
    <linearGradient id="GradientFill_9-2" x1="412.85" y1="355.33" x2="412.85" y2="343.31" xlink:href="#GradientFill_9"/>
    <linearGradient id="GradientFill_9-3" x1="441.45" y1="353.01" x2="441.45" y2="341.93" xlink:href="#GradientFill_9"/>
    <linearGradient id="GradientFill_10" data-name="GradientFill 10" x1="452.91" y1="338.12" x2="405.2" y2="338.12" gradientUnits="userSpaceOnUse">
      <stop offset="0" stop-color="#bca886"/>
      <stop offset="1" stop-color="#d1bea1"/>
    </linearGradient>
    <linearGradient id="GradientFill_11" data-name="GradientFill 11" x1="453.17" y1="337.31" x2="404.59" y2="337.31" gradientUnits="userSpaceOnUse">
      <stop offset="0" stop-color="#9c886d"/>
      <stop offset="1" stop-color="#bca88d"/>
    </linearGradient>
    <linearGradient id="GradientFill_3-2" x1="388.41" y1="335.72" x2="405.06" y2="335.72" xlink:href="#GradientFill_3"/>
    <linearGradient id="GradientFill_6-2" x1="388.48" y1="334.78" x2="405.01" y2="334.78" xlink:href="#GradientFill_6"/>
    <linearGradient id="GradientFill_3-3" x1="386.62" y1="323.59" x2="401.38" y2="323.59" xlink:href="#GradientFill_3"/>
    <linearGradient id="GradientFill_6-3" x1="386.63" y1="323.27" x2="401.38" y2="323.27" xlink:href="#GradientFill_6"/>
    <linearGradient id="GradientFill_14" data-name="GradientFill 14" x1="422.6" y1="320.24" x2="422.6" y2="328.67" gradientUnits="userSpaceOnUse">
      <stop offset="0" stop-color="#bca683"/>
      <stop offset="1" stop-color="#e7d0b0"/>
    </linearGradient>
    <linearGradient id="GradientFill_15" data-name="GradientFill 15" x1="422.6" y1="320.24" x2="422.6" y2="327.96" gradientUnits="userSpaceOnUse">
      <stop offset="0" stop-color="#a68d6e"/>
      <stop offset="1" stop-color="#c0a98c"/>
    </linearGradient>
    <clipPath id="clip-path-3">
      <path class="cls-1" d="M1522.19,518.15c-147.11,0-266.37-108.06-266.37-241.37S1375.08,35.4,1522.19,35.4s266.38,108.07,266.38,241.38S1669.31,518.15,1522.19,518.15Z"/>
    </clipPath>
    <clipPath id="clip-path-4">
      <rect class="cls-1" x="1095.5" y="-220.38" width="1420.23" height="798.88"/>
    </clipPath>
    <clipPath id="clip-path-5">
      <rect class="cls-1" x="872.72" y="-120.2" width="1264.41" height="711.23"/>
    </clipPath>
    <linearGradient id="linear-gradient" x1="-4259.33" y1="-358.3" x2="-4311.79" y2="552.03" gradientTransform="matrix(1, 0, 0, -1, 5708.24, 309.7)" gradientUnits="userSpaceOnUse">
      <stop offset="0" stop-color="#35b6e5"/>
      <stop offset="0.12" stop-color="#49bde8"/>
      <stop offset="0.72" stop-color="#a6def6"/>
    </linearGradient>
    <linearGradient id="linear-gradient-2" x1="-4435.26" y1="831.52" x2="-4221" y2="-227.7" gradientTransform="matrix(1, 0, 0, -1, 5708.8, 218.74)" gradientUnits="userSpaceOnUse">
      <stop offset="0.2" stop-color="#c5f7fd"/>
      <stop offset="0.34" stop-color="#b3f0fd"/>
      <stop offset="0.66" stop-color="#8ee1fd"/>
      <stop offset="0.83" stop-color="#80dbfd"/>
    </linearGradient>
    <linearGradient id="linear-gradient-3" x1="-3681.37" y1="176.29" x2="-2373.87" y2="176.29" gradientTransform="matrix(-1, 0, 0, 1, -2869.56, 0)" gradientUnits="userSpaceOnUse">
      <stop offset="0.2" stop-color="#68c1dd"/>
      <stop offset="0.83" stop-color="#68c1dd"/>
    </linearGradient>
    <linearGradient id="linear-gradient-4" x1="-4290.12" y1="233.86" x2="-4287.9" y2="472.62" gradientTransform="matrix(1, 0, 0, -1, 5707.75, 783.26)" gradientUnits="userSpaceOnUse">
      <stop offset="0.29" stop-color="#609351"/>
      <stop offset="0.73" stop-color="#6bb25e"/>
      <stop offset="1" stop-color="#70bf64"/>
    </linearGradient>
  </defs>
  <g>
    <rect class="cls-2" x="30.64" y="47.18" width="558.61" height="468.06" rx="124.29"/>
    <g class="cls-3">
      <g class="cls-4">
        <g>
          <path class="cls-5" d="M-208.58,381.89c-1.14,22.53-2.3,45.21,1.18,67.67a24.08,24.08,0,0,1,1.45,7.13H765.17c-.39-7.11-.67-14.23-.9-21.35-.4-12.6-.75-25.2-1.54-37.8l-109-51.74H-121.6l-86.5,25.27Q-208.31,376.47-208.58,381.89Z"/>
          <path class="cls-6" d="M828.16,636.29c-.52-44.26-1-88.53-2.12-132.76-1-38.16-2.3-76.26-3.08-114.44l-35.41-45.31L-274,343.68l-27.7,129.2,14.81,227.61h1116Q828.51,668.42,828.16,636.29Z"/>
          <polygon class="cls-7" points="-189.75 -29.27 -190.26 356.75 684.38 355.5 686.39 -29.04 -189.75 -29.27"/>
          <path class="cls-8" d="M-245.84,418.14H743.53l-1.71-1.09-987.62-.3C-245.81,417.21-245.83,417.68-245.84,418.14Z"/>
          <path class="cls-8" d="M-245.1,464.64H744.27l-1.71-1.09-987.62-.3C-245.07,463.71-245.09,464.17-245.1,464.64Z"/>
          <path class="cls-8" d="M-245.1,522.94H744.27l-1.71-1.08-987.62-.3C-245.07,522-245.09,522.48-245.1,522.94Z"/>
          <path class="cls-8" d="M-244.58,377.4H685.61l-1.74-1L-244.55,376Z"/>
          <path class="cls-8" d="M-95.73,619.73,33,369.44l-1.48-1.2-131,251.46Z"/>
          <path class="cls-8" d="M73.12,627.23l76.09-273.61-1.43-.48L70.37,627.27Z"/>
          <path class="cls-8" d="M243,760.62l5.48-419.22-2,1.19-6.85,418.29Z"/>
          <path class="cls-8" d="M441.72,759.67,361.13,343.12l-1.59,2.59,78.51,414Z"/>
          <path class="cls-8" d="M661.07,752.35,463.47,353.8l-1,3.91L655.62,752.4Z"/>
          <path class="cls-8" d="M804.61,647.83,578.44,343.28l-.61,4.18L804.72,657.28C804.68,654.13,804.65,651,804.61,647.83Z"/>
          <polygon class="cls-9" points="-194.69 357.06 681.77 355.58 681.78 340.89 -194.69 342.37 -194.69 357.06"/>
          <rect class="cls-1" x="-185.5" y="-23.69" width="853.91" height="480.32"/>
          <rect class="cls-1" x="-187.94" y="-21.11" width="853.91" height="480.32"/>
        </g>
      </g>
      <g>
        <path class="cls-10" d="M177.78,459.5l-31,41.29a8.67,8.67,0,0,0,7,13.88H457.48a8.68,8.68,0,0,0,6.07-14.89l-39.5-38.45a8.62,8.62,0,0,0-6-2.46L184.85,456A8.68,8.68,0,0,0,177.78,459.5Z"/>
        <g>
          <path class="cls-11" d="M446,510.38c3.54,0,6.39-3.26,6.39-7.29V382.47c0-4-2.85-7.29-6.39-7.29s-6.39,3.26-6.39,7.29V503.09C439.61,507.12,442.47,510.38,446,510.38Z"/>
          <path class="cls-12" d="M413.25,478.62c3.53,0,6.39-3.26,6.39-7.29V350.71c0-4-2.86-7.29-6.39-7.29s-6.39,3.26-6.39,7.29V471.33C406.86,475.36,409.72,478.62,413.25,478.62Z"/>
          <path class="cls-11" d="M160.82,510.38c-3.54,0-6.39-3.26-6.39-7.29V382.47c0-4,2.85-7.29,6.39-7.29s6.39,3.26,6.39,7.29V503.09C167.21,507.12,164.35,510.38,160.82,510.38Z"/>
          <path class="cls-12" d="M193.57,478.62c-3.53,0-6.39-3.26-6.39-7.29V350.71c0-4,2.86-7.29,6.39-7.29s6.39,3.26,6.39,7.29V471.33C200,475.36,197.1,478.62,193.57,478.62Z"/>
          <path class="cls-13" d="M145.64,362H463.58a0,0,0,0,1,0,0v56.85a.55.55,0,0,1-.55.55H146.18a.55.55,0,0,1-.55-.55V362A0,0,0,0,1,145.64,362Z"/>
          <g>
            <polygon class="cls-14" points="145.64 374.77 463.58 371.61 463.58 362.01 145.64 362.01 145.64 374.77"/>
            <path class="cls-15" d="M480.35,357.23H129.66V367a2.14,2.14,0,0,0,2.13,2.16H478.23a2.14,2.14,0,0,0,2.12-2.16Z"/>
            <path class="cls-16" d="M477.07,360.42H132.84a3.44,3.44,0,0,1-3-5l24.66-36.16a3.29,3.29,0,0,1,3-1.91H454.65a3.3,3.3,0,0,1,3,1.91L480,355.43A3.45,3.45,0,0,1,477.07,360.42Z"/>
          </g>
        </g>
        <g id="books">
          <path class="cls-17" d="M452.13,343.79l-25.6-5.86-41.3.63h0l1.88,2-.65.87c.08.17.16.37.24.58h0a9.66,9.66,0,0,1,.41,1.55c0,.16.05.32.07.49a7.8,7.8,0,0,1,0,1.93c0,.16,0,.31-.07.46a6.27,6.27,0,0,1-.31,1.08l-2.46-.89-2.57.28,18.77,11.67,12-1h0l1.1-.09,29.25-2.37.91-.08h0l8.63-.7C454.86,352,454.59,345.92,452.13,343.79Z"/>
          <g>
            <path class="cls-18" d="M405.13,343.79c15.32-1,30.54-1.5,46.1-2.32a5.37,5.37,0,0,1,1.4,2.18c-7.35.57-34.39,2.24-41.45,2.82a19.46,19.46,0,0,0-5.67-2.44Z"/>
            <g>
              <path class="cls-19" d="M428.74,342.55a14.43,14.43,0,0,1,.93,2.64l-2.48.17a10.34,10.34,0,0,0-1.16-2.68Z"/>
              <path class="cls-19" d="M413.44,343.31a15.65,15.65,0,0,1,1,2.91l-2.48.18a11.84,11.84,0,0,0-1.25-2.94Z"/>
              <path class="cls-19" d="M442.07,341.93a12.05,12.05,0,0,1,1,2.38l-2.52.17a9.66,9.66,0,0,0-1.35-2.42Z"/>
            </g>
          </g>
          <g>
            <path class="cls-20" d="M448,330.81l-18.32-4-40.89.23c0,.24,0,.47,0,.69l.51.87,12.31,3.46,1.65.11Z"/>
            <path class="cls-21" d="M388.79,327.21l14.49,5,0,3.95c-4.7-2-9.14-4-13.83-6.07C388.92,329.86,388.82,328.63,388.79,327.21Z"/>
            <path class="cls-22" d="M388.92,329l3.43,1.64-2.78-.53-.14-.06c-.27-.11-.42-.5-.51-1.05Zm14.34,5.61-3.88-1,3.88,1.7Z"/>
          </g>
          <polygon class="cls-23" points="428.79 323.52 425.03 323.7 428.41 323.75 428.79 323.52"/>
          <g>
            <polygon class="cls-24" points="384.33 345.28 388.18 345.16 401.69 353.48 398.83 354.83 384.53 346.27 384.33 345.28"/>
            <path class="cls-25" d="M385.26,338.56a8.2,8.2,0,0,1,.5,7l14.34,7.66s2.38-4.24-.23-7.88l-12.92-6Z"/>
            <polygon class="cls-24" points="400.63 344.91 451.23 341.47 425.63 335.61 384.33 336.24 384.77 336.84 400.63 344.91"/>
            <path class="cls-26" d="M385.26,338.56l0,0h0v0h0v0l0,0,0,.06h0l0,0v0h0v0l0,0V339h0l0,.05h0v.05l0,0v.07h0v.06h0l0,.08,0,.09h0l0,.06h0l0,.09,0,.07v0h0l0,.07h0v0l0,.07h0l0,.1h0l0,.08h0l0,.1,0,.1h0c0,.06,0,.13.05.2,3.76,1.73,7.7,3.7,13.12,6.3a5.44,5.44,0,0,1,.57,1.8l-6.68-3.37,6.77,4.25a12.51,12.51,0,0,1,0,1.5L396,349.08l3.78,2.65a10.67,10.67,0,0,1-.21,1.22l.55.29h.08v0h0v0h0v0h0v0h0v0h0v-.07h0v-.13h0l0-.05v0l0-.05v-.07h0v-.08h0v-.08c.09-.24.18-.51.26-.8v0l0-.07v-.05h0l0-.08h0v0l0-.09v0h0v-.15l0-.1v-.05l0-.11h0l0-.12v0l0-.13v0s0-.08,0-.12h0v0l0-.12v0s0-.08,0-.12v-.33h0a.57.57,0,0,0,0-.13v-.34h0V349s0-.09,0-.13v-.05s0-.07,0-.11v0h0s0-.09,0-.14v0s0-.1,0-.15v0a.77.77,0,0,1,0-.15h0a.59.59,0,0,0,0-.14v0a.77.77,0,0,0,0-.15v0a.83.83,0,0,0,0-.15v0a.83.83,0,0,0,0-.15v0c0-.05,0-.1-.05-.14v-.05s0-.09,0-.14v0c0-.05,0-.1-.05-.15v0l-.06-.15v0l-.06-.16h0l-.06-.14,0,0-.07-.15,0,0s-.05-.09-.07-.14l0,0-.08-.15h0l-.09-.15,0,0-.1-.15,0,0-.1-.15-12.92-6-1.69-.77ZM401,350.36l0-.12s0,.08,0,.12Zm0-2.08,0-.15a.77.77,0,0,0,0,.15Zm-14.74-6.45q0-.33-.09-.63l2.13,1.42-2-.79Zm0,1.75,3.55,1.9-3.66-1.21C386.23,344,386.26,343.81,386.29,343.58Z"/>
            <path class="cls-27" d="M400.38,344.09c16.92-1.13,33.68-1.72,50.85-2.62,2.46,2.13,2.73,8.25.23,10.62l-51.83,4.21C400.65,352,401.48,348.59,400.38,344.09Z"/>
            <path class="cls-28" d="M400.42,344.09s3.73,6.5-.79,12.21l-15.85-9.2.55-1.82,14.74,8.32a9.45,9.45,0,0,0,.4-7.69l-15-7.29-.16-2.38Z"/>
            <g>
              <path class="cls-29" d="M428.74,342.55a14.37,14.37,0,0,1,1.33,5.94,16.53,16.53,0,0,1-.84,5.41l-2.68.21a14.36,14.36,0,0,0,1.08-5.6,11.43,11.43,0,0,0-1.6-5.83Z"/>
              <path class="cls-30" d="M413.44,343.31a15.91,15.91,0,0,1,1.52,6.8,16.77,16.77,0,0,1-.73,5l-2.65.22a14.64,14.64,0,0,0,.93-5.21,13.16,13.16,0,0,0-1.76-6.66Z"/>
              <path class="cls-31" d="M442.07,341.93a12.37,12.37,0,0,1,1.6,5.94,13.9,13.9,0,0,1-.83,4.92l-2.72.22a11.84,11.84,0,0,0,1.11-5.1,9.84,9.84,0,0,0-2-5.85Z"/>
            </g>
          </g>
          <g>
            <polygon class="cls-32" points="404.98 334.73 452.54 332.31 452.96 331.89 429.68 326.84 388.41 327.07 389.32 328.63 404.98 334.73"/>
            <polygon class="cls-33" points="404.9 332.76 403.76 334.18 403.67 342.63 405.06 344.36 453.2 341.99 452.96 331.89 404.9 332.76"/>
            <path class="cls-34" d="M453,333.57l-6.43.53,6.45.2,0-.73Zm-48.14,6.1h12.27l-12.48,1.12.21-1.11Zm-.08-4.59,17.48.2-17.67.81.19-1Zm48.29,1.12-34.75,1.53,34.78-.23,0-1.3Zm.08,3.51-20,1.33,20-.45Z"/>
            <polygon class="cls-35" points="404.9 332.76 405.03 341.99 405.06 344.36 388.8 336.86 388.41 327.07 404.9 332.76"/>
            <path class="cls-36" d="M388.48,328.82l3.87,1.85-3.83-.73,0-1.12ZM405,340.75l-9-3.89,9,2.81,0,1.08Zm-16.25-4.87,6.67,2.6-6.7-3.45,0,.85Zm-.17-4.28,9.09,4-9-2.7-.05-1.26Zm16.34,3.48-5.55-1.45,5.57,2.44Z"/>
          </g>
          <g>
            <polygon class="cls-37" points="445.91 328.52 444.23 327.8 388.79 321.62 388.44 317.64 385.5 319.55 386.24 326.12 401.07 330.19 445.19 329.15 445.91 328.52"/>
            <path class="cls-38" d="M401.38,321.32l-12.85-2.79c-2.26-.49-2.83,5.67,0,6.68,2.42.87,11.9,3.46,11.9,3.46l.22-.31Z"/>
            <path class="cls-39" d="M401.38,321.32l-12.85-2.79c-1.09-.24-1.79,1.09-1.9,2.63.67-1.52,1.2-1.82,2.68-1.36,2.72.87,9.84,2.87,11,3.21l1.07-1.69Zm-.86,2.73-.13.91-11.73-4.1,11.86,3.19Zm-.17,1.87-6.43-1.46,6.43,2.11v-.65Zm.06,1.65-10.28-3L400.48,328Z"/>
            <path class="cls-40" d="M445.24,320.24a11.58,11.58,0,0,0-.44,7.91l-44.37.52a10,10,0,0,1,.6-7.55Z"/>
            <polygon class="cls-41" points="387.95 316.88 434.38 316.78 446.13 318.79 445.02 319.98 400.38 320.67 388.1 317.81 387.95 316.88"/>
            <path class="cls-42" d="M445.24,320.24h0v0h0v0h0v0h0v0h0v0h0v0h0v.05h0v0l0,0h0v.07h0v.06h0l0,.07h0V321h0v.08h0l0,0v.15h0v.09h0l0,.07v.13h0v.09h0v0a1.33,1.33,0,0,0,0,.19c-15.93.35-30.21.7-44.38,1.05a9.52,9.52,0,0,1,.42-1.2h0l.05-.13h0l.12-.26h0l.05-.11h0c0-.05.05-.09.07-.14l44.21-.88ZM400,325.83h30.66l-30.63.63c0-.2,0-.41,0-.62Zm.17,1.66,17.42,0-17.32.5c0-.15-.07-.31-.1-.47Zm-.05-3.56,9.64.59-9.74.3c0-.29.06-.59.1-.89Zm44.4-1.13-19.44.9,19.29.29c0-.42.09-.82.15-1.19Zm-.07,3.56-13,.41,13.14.33C444.48,326.85,444.44,326.6,444.41,326.36Z"/>
            <polygon class="cls-43" points="400.34 329.23 445.92 328.52 446.75 330.6 400.6 331.74 399.89 331.11 399.87 329.68 400.34 329.23"/>
            <polygon class="cls-44" points="400.99 319.55 446.13 318.79 445.71 320.91 400.3 321.88 399.86 320.76 400.33 319.82 400.99 319.55"/>
            <path class="cls-45" d="M400.6,331.74l-12.94-4.41a5.2,5.2,0,0,1-3.2-5.19c0-4.15,2.12-5.62,4.2-5.19l12.33,2.6-.69,2.33-12.2-3.2c-.7-.18-2,.52-2,3.2s1.43,3.89,2.38,4.07,11.9,3.28,11.9,3.28Z"/>
          </g>
        </g>
        <g>
          <path class="cls-46" d="M226.22,221.37a24.22,24.22,0,0,0-.82,3.12c-1.23,6.41,1.35,9.3,1.35,9.3a16.52,16.52,0,0,1-2.61,3.36c-7.93,7.79-18.2-1.34-18.2-1.34l.11-4.07.33-12c4-3.21,7.61-4.08,10.56-3.82C222.78,216.46,226.22,221.37,226.22,221.37Z"/>
          <path class="cls-47" d="M227.07,232.24a17.19,17.19,0,0,1-2.64,3.31c-4.94,1.2-12.71-2.22-17.86-5l.51-11.6c4.06-3.17,7.61-4.07,10.54-3.87a50.12,50.12,0,0,1,8.25,8.13C224.55,229.48,227.07,232.24,227.07,232.24Z"/>
          <ellipse class="cls-48" cx="217.35" cy="329.59" rx="35.43" ry="16.53"/>
          <g>
            <path class="cls-49" d="M273.93,307.22l-6.77,3.29s-7.88-7.18-14.48-12.51c-5.88-4.75-11.76-13.62-14.21-24.27q-.47-2-.75-4c-1.74-12.4,14.63-4.16,14.63-4.16l1.63,4.36,3.24,8.6S264.85,297.91,273.93,307.22Z"/>
            <path class="cls-50" d="M234.74,236.45c-.23-.67,16.86,9.19,19.1,31.07,0,0-7,4.45-19,5.85l-20-28.12Z"/>
            <g>
              <path class="cls-49" d="M264.74,307.8s.06.9,0,2.48c-.09,2.81-4.4,1.33-6.35,3.29s3.38,4.08,7.39,1.26c0,0,3.07-.88,6.65,2.61,3.38,3.29,6.74,7.37,8.24,7.35,2.6,0-1.32-5.07-2.63-6.31-.21-.21-3-3.24-.28-2,4.09,2,9.72,5.69,12.2,5.33,0,0,1.74-.61-.93-2.55,0,0,2.76,1.32,2.88-.65s-4.17-3.68-4.17-3.68,2.69,1.7,2.6,0a3.26,3.26,0,0,0-2.49-2.7,73.76,73.76,0,0,1-9.46-3.77,35,35,0,0,1-7.26-4.57"/>
              <path class="cls-51" d="M289.61,319.55a70.54,70.54,0,0,0-9.54-5.16"/>
              <line class="cls-51" x1="289.1" y1="315.54" x2="282.22" y2="312.74"/>
            </g>
          </g>
          <path class="cls-50" d="M239.06,252.61a210.06,210.06,0,0,0,1,24.92c.86,12.19,8.86,47.15,8.86,47.15-15.63,28.27-61.31,5.85-59.92,3.25,1.17-2.19-8.32-50.09-8.85-50.29-5.29-18.72,3.21-33.11,18.61-40.34a20.14,20.14,0,0,1,8.19-2"/>
          <g>
            <g>
              <path class="cls-52" d="M216.19,282.32c.19.45.38.9.58,1.33h0c6.11,13.61,14.06,19.79,14.06,19.79a79.5,79.5,0,0,0,4.37-9.73c.59-1.64,1-3.06,1.34-4.27a20.86,20.86,0,0,0,.85-5.33c-.3-1.75-.63-3.44-1-5.06s-.63-3-1-4.36c-1-4-2-7.51-3-10.57-.51-1.55-1-3-1.53-4.33-3.26-8.55-6.1-12.53-6.09-13.17,0-1.84-6.41-.37-6.41-.37a74.3,74.3,0,0,1,.22,9.22c0,1-.08,2.1-.13,3.17-.16,3.09-.4,6.24-.67,9.21-.11,1-.21,2.05-.3,3-.37,3.6-.75,6.73-1,8.8C216.33,281.34,216.19,282.32,216.19,282.32Z"/>
              <path class="cls-53" d="M218.52,258.65a43.18,43.18,0,0,1,13.55,5.48c-.51-1.55-1.09-3.15-1.6-4.48a48.49,48.49,0,0,0-11.82-4.17C218.61,256.52,218.57,257.58,218.52,258.65Z"/>
              <path class="cls-53" d="M217.91,271.09c5,1.61,13.26,4.63,18.15,8-.31-1.51-.7-3.25-1-4.65a62.72,62.72,0,0,0-16.83-6.52C218.1,269,218,270.11,217.91,271.09Z"/>
              <path class="cls-53" d="M216.57,282.27c.2.46.4,1,.6,1.45h0c4.94,1.89,12.64,5.2,17.73,9.73.59-1.64,1-3,1.3-4.22a93.78,93.78,0,0,0-19.33-9.47C216.66,281.42,216.57,282.27,216.57,282.27Z"/>
            </g>
            <path class="cls-52" d="M225.39,239.1c-.79-.24-3.68-2.12-8.69.69s2.48,8.86,2.48,8.86l5.82-.75S232,241.05,225.39,239.1Z"/>
            <path class="cls-50" d="M228.27,225.57c.68.45,5.71,7.79,6.34,10.65s-.46,12.44-.46,12.44l-12.07-10.22s4.64-4.28,6-9.86Z"/>
            <path class="cls-50" d="M218.21,239.2c.52.15-7.57,13.7-7.57,13.7a50.83,50.83,0,0,1-9.79-16.48l2.91-10.69S208,236.36,218.21,239.2Z"/>
          </g>
          <g>
            <ellipse class="cls-54" cx="265.94" cy="307.22" rx="7.97" ry="18.71" transform="translate(-87.56 106.86) rotate(-19.57)"/>
            <g>
              <g>
                <path class="cls-49" d="M270.5,309.36l14.13,22.08s4.45,5.8,16.39.11c0,0,3.16-.92,1.22-3.89s-11.4-20.4-16.21-29.75-9.76-17.9-14.89-17.08-13.54,9.22-13.54,9.22a109.78,109.78,0,0,0,7.73,24.52Z"/>
                <line class="cls-55" x1="270.98" y1="309.68" x2="265.22" y2="299.93"/>
              </g>
              <g>
                <path class="cls-56" d="M290.5,331.25a8.48,8.48,0,0,0-4.11,8.71l-.07,1.51a4.66,4.66,0,0,0,2.44,4.3c2.83,1.54,8.56,3.88,19.67,6.17a26.33,26.33,0,0,0,3.64.5c4.8.33,16.5.56,21.13-4.48a5.24,5.24,0,0,0-.55-5.61c-2.15-2.73-27.9-10.26-27.9-10.26s.17-2.43-2.72-2.57S290.5,331.25,290.5,331.25Z"/>
                <path class="cls-57" d="M284.47,330.76s2.36,4.89,1.93,6.09l-.11,2.42a3.13,3.13,0,0,0,1.48,2.8c2.47,1.54,8.51,4.37,22.22,7.07,0,0,17.33,2.12,23.22-4.29,0,0,.82-1.56-1.34-4.29S304.76,329,304.76,329s-.55.15-2.72-2.58C300.24,324.13,284.47,330.76,284.47,330.76Z"/>
              </g>
              <g>
                <path class="cls-50" d="M274.29,317.42,277.5,322a2.14,2.14,0,0,0,1,.78h0a2.1,2.1,0,0,1,1.05.8l5.92,8.71s1.91,4.13,11.39,1.27c8.17-2.46,6.24-5.07,5.54-5.75a2.07,2.07,0,0,1-.34-.44l-7.34-13.05a2.06,2.06,0,0,1-.25-.76l0-.12-.06-.47a2,2,0,0,0-.19-.65l-3.36-6.82-.07.58s-.22,5-9.68,9.31a.2.2,0,0,1-.08,0,11.37,11.37,0,0,1-6.57,1.14c-1-.17-.52.44-.33.65Z"/>
                <path class="cls-58" d="M274.26,317.38l3.14,4.49a1.74,1.74,0,0,0,1.38.74c9.33.28,13.67-5.23,15.46-8.66a1.74,1.74,0,0,0,.17-1h0a1.68,1.68,0,0,0-.16-.54l-3.38-6.87-.07.58s-.22,5-9.68,9.32l-.07,0a11.5,11.5,0,0,1-6.58,1.14c-1-.17-.52.44-.33.65A1.58,1.58,0,0,1,274.26,317.38Z"/>
              </g>
            </g>
            <path class="cls-52" d="M247.66,336.58s18.16-6.35,25.24-12.85c0,0-7.5-11-12.62-35.54,0,0-7.62,5.9-16.2,13S222,315.48,211,311.49C200.3,307.63,205.28,352.8,247.66,336.58Z"/>
            <ellipse class="cls-54" cx="242.19" cy="316.51" rx="7.97" ry="19.36" transform="translate(-92.04 99.44) rotate(-19.57)"/>
            <g>
              <g>
                <path class="cls-49" d="M244,323l13,25.88s4.22,6.89,18,2c0,0,3.58-.64,1.8-4.14S266.6,323,262.4,312.18s-8.64-20.8-14.37-20.5-15.94,8.56-15.94,8.56,1,14.7,5.64,27.83Z"/>
                <line class="cls-55" x1="244.51" y1="323.35" x2="239.31" y2="311.98"/>
              </g>
              <g>
                <path class="cls-56" d="M263.44,349.31a9.37,9.37,0,0,0-5.53,9.09l-.24,1.64a5.14,5.14,0,0,0,2.18,5c2.93,2,8.95,5.26,20.88,9.06a29.6,29.6,0,0,0,3.95,1c5.23.91,18.05,2.53,23.73-2.47a5.82,5.82,0,0,0,0-6.23c-2.05-3.25-29.46-14.5-29.46-14.5s.48-2.66-2.69-3.15S263.44,349.31,263.44,349.31Z"/>
                <path class="cls-57" d="M256.87,348.07l1.42,6.91-.4,2.65a3.45,3.45,0,0,0,1.3,3.25c2.53,2,8.84,5.78,23.58,10.34,0,0,18.79,4.34,26-2,0,0,1.07-1.62-1-4.87s-28.43-15.86-28.43-15.86.83.89-2.69-3.15C274.57,342.91,256.87,348.07,256.87,348.07Z"/>
              </g>
              <g>
                <path class="cls-50" d="M247.24,332.24l3,5.42a2.33,2.33,0,0,0,1,1h0a2.33,2.33,0,0,1,1.06,1l5.49,10.25s1.61,4.76,12.37,2.72c9.25-1.76,7.43-4.85,6.75-5.67a2,2,0,0,1-.33-.53l-6.55-15.19a2.29,2.29,0,0,1-.19-.86v-.66a2.3,2.3,0,0,0-.14-.73l-2.89-7.88-.15.63s-.82,5.42-11.71,9.11l-.09,0a12.68,12.68,0,0,1-7.35.49c-1.08-.3-.62.42-.44.67A1.76,1.76,0,0,1,247.24,332.24Z"/>
                <path class="cls-58" d="M247.22,332.19l2.92,5.29a1.93,1.93,0,0,0,1.44,1c10.21,1.39,15.61-4.16,18-7.72a1.9,1.9,0,0,0,.32-1.11h0a2.13,2.13,0,0,0-.12-.61l-2.91-7.94-.15.63s-.82,5.42-11.72,9.11l-.07,0a12.74,12.74,0,0,1-7.36.49c-1.08-.3-.62.42-.44.67Z"/>
              </g>
            </g>
            <path class="cls-52" d="M216.6,340.77s20.35.84,30.09-4.79c0,0-8.28-10.61-11.05-38.17,0,0-35.14,17-47.58,20.65C186.82,324.59,184.5,338.52,216.6,340.77Z"/>
          </g>
          <g>
            <path class="cls-59" d="M192.85,276.36c-.06,2.76-4.65,2.79-10.46,2.65s-10.46-2.49-10.39-5.25,4.83-4.88,10.63-4.74S192.92,273.6,192.85,276.36Z"/>
            <g>
              <path class="cls-49" d="M195.06,315.11s-19.89-15.55-22.83-32.67a37.62,37.62,0,0,1,2.3-8.89,34.24,34.24,0,0,1,2.78-5.65c4.32-7,13.08,6.14,13.08,6.14l-1.87,5-1.62,4.33,14.94,26.5S200.63,318.06,195.06,315.11Z"/>
              <path class="cls-49" d="M200.06,306.77s1.79,4,9.39,4.85,8.4-2,13.34,3.55,5.6,8.14,5.6,8.14.66,6.94-2.08,6.07c0,0-.64-.25-1.57-5.3,0,0-3.16-5.25-6.65-5.43,0,0,4,4.16,3.82,8.71a5.89,5.89,0,0,1-2.49,5.46,1.52,1.52,0,0,1-1.79-.16s-1.28,3.15-3.57,1.43c0,0-2,1.42-2.69-1.31s-1.2-4.74-1.2-4.74-2.21-3.72-5.89-4.18-8.94-2.68-10.07-10.57"/>
              <path class="cls-51" d="M217.63,332.66s1.43-1.88.41-5.16a23.85,23.85,0,0,0-3.84-6.71"/>
              <path class="cls-51" d="M214,333.77s2.83-5.75-3.65-10.61"/>
              <path class="cls-49" d="M186.9,283.38s-3.53-3.7-8.05-2.18"/>
            </g>
            <path class="cls-50" d="M196.75,260.46a121.33,121.33,0,0,0-3.62,15.45s-4.16-4.42-21-2c.55-1.16,3.23-24.66,19-32"/>
          </g>
          <g>
            <g>
              <path class="cls-60" d="M253.17,203.76c-3,5.71-8.95,8-13.66,5.84s-2.86-5.37.13-11.08,3.11-5.05,7.92-7.21C258.09,186.6,256.16,198,253.17,203.76Z"/>
              <path class="cls-60" d="M249.27,193.79c7.22-.85.24,11.9-3.1,13.35-4.56.61-.74-4.59,1.22-5.65,2.5-2.14-.35-3.21-2.45-2.75C244.83,196.51,247.34,194.57,249.27,193.79Z"/>
            </g>
            <path class="cls-60" d="M241.69,166.78c-18.76-10.89,6.45-24.7-18.66-24.44-24.37.25-38.61,12.46-39.26,33.59-.3,9.77,2.81,20,2.75,20.55C184.41,229.61,218,243,238.13,225.81c7-5.48,12.43-13.81,12.49-31.17C250.62,194.11,257.33,175.87,241.69,166.78Z"/>
            <path class="cls-61" d="M210.38,176.91c-2.4.46-9.93,4-9.63,9.16,0,0,4.9-5,10.4-6.67C211.15,179.4,211.59,176.67,210.38,176.91Z"/>
            <path class="cls-61" d="M234.09,177.63c2.43-.16,10.54,1.38,11.46,6.55,0,0-5.9-3.63-11.63-3.91C233.92,180.27,232.86,177.71,234.09,177.63Z"/>
            <path class="cls-47" d="M199,165.78s5.2,7.2,32.56,7l-.75-3.61s1.62,5,17.52,7.71l2.44,19.32,4.53-40.38-57.7-4.3-8.87,9,.4,10.81s-5.57,21.68-4.64,29a40.88,40.88,0,0,0,8.05-16.74S198,185.81,199,165.78Z"/>
            <path class="cls-61" d="M196.77,160.4s-2.83,8.45,33.78,10.33c0,0-1-.43-4.11-8.88,4.12,10.42,13.62,10.66,20.57,12.81L250,164l.7,32.18c2.35-8,7.93-17.28,6.13-31.57a36.35,36.35,0,0,1,2.16,6.84s6.3-17.33-16.62-31.62a16.29,16.29,0,0,1,10.24,1.61c-1.59-5.94-47.35-25-57-2.59,0,0-13.27-9.35-19.55,7.36,0,0,9.64-4.86,12.32-1-19.09,3.06-18.51,40.49-5.11,54.74a29.69,29.69,0,0,0,6.85-22.63l3.08,5.12S199.28,178.35,196.77,160.4Z"/>
            <path class="cls-60" d="M219.19,203.48c3.14,4,14.92,2.43,9.77-4.9"/>
            <g>
              <path class="cls-60" d="M187.8,209.46c-12.63,11.44-22-24.87-7.67-17.31a11.35,11.35,0,0,1,6.49,7.29"/>
              <path class="cls-60" d="M178.51,194.59c-6.18-.79-1,11.78,1.76,13.4,3.85.6.93-4.57-.67-5.67-1.88-2,.24-3.23,2.27-2.7C182.13,197.53,180.2,195.45,178.51,194.59Z"/>
            </g>
            <g>
              <g>
                <path class="cls-62" d="M219.49,192.38c1.69,8.55-11,10.87-12.41,2.27C205.39,186.1,218,183.79,219.49,192.38Z"/>
                <path class="cls-63" d="M218.46,195.47c1,5-6.35,6.31-7.2,1.32S217.61,190.48,218.46,195.47Z"/>
                <path class="cls-2" d="M213.66,193.32a1.1,1.1,0,1,1-2.16.4A1.1,1.1,0,1,1,213.66,193.32Z"/>
              </g>
              <path class="cls-62" d="M245,192.28c1.69,8.55-11,10.87-12.41,2.28C230.92,186,243.56,183.69,245,192.28Z"/>
              <path class="cls-63" d="M243.12,195.47c1,5-6.35,6.31-7.2,1.32S242.28,190.48,243.12,195.47Z"/>
              <path class="cls-2" d="M238.47,193.22a1.1,1.1,0,1,1-2.16.4A1.1,1.1,0,1,1,238.47,193.22Z"/>
              <g>
                <path class="cls-64" d="M211.66,212.3c1.43,2.44,6.07,10.16,12.24,11,6.39.25,7-7.41,11-10.71-.05.56-9.41,3.15-23.77-1.24C211.13,211.35,211.31,211.71,211.66,212.3Z"/>
                <path class="cls-65" d="M229.08,219.66c-1.09-1-5.5-2-9.48.08C219.6,219.74,225,223.33,229.08,219.66Z"/>
                <path class="cls-2" d="M211.43,211.44c7.73,6.84,14.44,7,18,5.85,1.55-.49,1.29-3.38,3.86-3.5a7,7,0,0,0,1.57-1.2C235.47,212.88,225.87,215.89,211.43,211.44Z"/>
                <path class="cls-66" d="M211.66,212.3c2.31,5.07,13.6,18,19.13,6C225.2,223.61,220,222.19,211.66,212.3Z"/>
                <path class="cls-66" d="M212,211.62c12.54,6.18,19.64,3.32,22.27,1.64.25-.21.42-.48.66-.67C235.63,212.81,226.39,215.83,212,211.62Z"/>
                <path class="cls-65" d="M211.88,210.25s-1.94.28-.94,2.46C210.94,212.71,209.46,209.87,211.88,210.25Z"/>
                <path class="cls-65" d="M234.48,211.86s1.19.35.53,2C235,213.89,236.25,212.22,234.48,211.86Z"/>
              </g>
            </g>
            <path class="cls-67" d="M207.21,193.86a8,8,0,0,1,3.54-4.22c2.23-1.41,4.77-1.93,7.15-.47a6.83,6.83,0,0,0-4.11-1.8,6.34,6.34,0,0,0-5.3,2.11A6.1,6.1,0,0,0,207.21,193.86Z"/>
            <path class="cls-67" d="M232.79,193.46a8.47,8.47,0,0,1,3.49-4.85,6.57,6.57,0,0,1,7.2.15,6.83,6.83,0,0,0-4.11-1.8,6.38,6.38,0,0,0-5.3,2.11A6.11,6.11,0,0,0,232.79,193.46Z"/>
          </g>
        </g>
      </g>
    </g>
  </g>
  <g class="cls-68">
    <g class="cls-69">
      <g class="cls-70">
        <g>
          <rect class="cls-71" x="565.86" y="-10.26" width="1706.96" height="330.21" transform="translate(2838.67 309.7) rotate(-180)"/>
          <rect class="cls-72" x="565.86" y="-119.7" width="1707.51" height="458.14" transform="translate(2839.23 218.74) rotate(-180)"/>
          <path class="cls-73" d="M-323.4,210.92l-.08,140.16,1307.42.65L984,237l-8.26.26-.5,10.76h-7.42l.25-16.77-43.75,1.25v13.92l-51.2.28L871,59.31l-11.35-1-13.74,3V59.61h2V57.73h-1.61V52.81h-.86V58.2h-3V53.77h-1.11v4.58l-2.48.95.24,1.42h.63V62l-2.35.31v9.5l-8.53-1V69.11h-.51v1.42h-1.85V54.07l-10-.47V51.7h-1V47.1h.87V45.37h-3v7h-.75V54.7h-6.3V51.05h-2.47v2.37h.85l-.12,2.06L792,57.23l.1,24.53-7.67,1.1v2.85l-1.36,1.73,1.54,132.18L776.2,219l-5.2.16-.49-15.36-5.55-.63v-8.4l-23.62-.33V191l-17.92-.18V187.3h-2V167l-1.29-1.67V154.85h-5.39v-8.08h-2.21v.79h-2.73V134.74l-.62.63v2.54l-1.49.31v.95h-1.86l-.12-1.59-1-.31v1.58l-2.59.16-.37-1.43-1.49-.16-.37,1.43-3,.16.13-1.27-1.36.16v.95h-2.47V137l-.62-.32-.12-2.53h-1.12l-.25,4.75-3.09.15-.13-3.64-.74.16-.36,3.48-2.23.79-.12-4.28H684l-.12,4.43-2.35.49-.49-1.27v-1.75l-1.24.16-.12,3.33.48.94-.11,7.45-4.09.31-.74,7.44-.63.16-.5,1.26-2.22-.15-.1-13.46-1.13.16-.37,13.93-11,.62,1.08,64.9h-1.48v1.42l-.5.49.12,1.89.75.32.23,13.78-1.48.47v1.73h1l.11,5.07-7.91-.16c.37,0-.25,1.9-.25,1.9l-4.33.15.62,1.89.75.49h1.11l-.51,9.34-1,.79v10.28h-1.84l-.79-121.87-12.36-2.71v-7.27l-14.22-2.71v-1.11h-3.71l-.5.8-33.74,1.72v8.08l-13.61,1.26.25-14.25-4.68-1.9-2-25.8-41.43.61-2.73,27.23-7.67.15.13-3-1.37.14L506,111.84l-5.57-1,.27-43.22-16.45.15-10.5,1.43,0-62.06L466.24,4.5H462V2h-.73V4.18L450,3.71V.85h-.74V3.38l-6.68-.48V4.49h-1.36V3.06h-8.41L422.59,7.49,408.5,6.22l-3.59,2.21,1.27,130.75-10,1.73-.36-19.16-5.32.17v-16L376.66,104,377,82.65l-1.73-1.27-7.05-.95V59.38l-1.36-1s-6.3-1.27-5.93-1.27-18.28-18-18.28-18H339L320.56,56.82l-.88.32-.25,1-5.81,1.26L313.74,81l-8.91,1.42.1,35.62-17.79.46-.5-6h-.87l-.24,4h-.87l.12,2.07-31.89.93-.13,5.7-9.91-1.27L242.5,113l-7.05-.32-2.72-8.86-.24-4.13h-1.6l-.63,3.33h-2.71v-.79h-3.1v.94l-16.81-2.54V99.34h.86V96.66h-5.3v4.12l-4.32.16V99.18L197,96.81,195.4,97v2.38l1,.17-.49,1.73-1,.15-.37,3.33.12,1.26-.87-.15v3H193v2.21h-7.66l.58,67.12H191l.11,21.52-3,.32v26.12l-2.61.15V210.62l-1.48-.32-.13-5.07-13,1v-1.59h-13.1V206h-5.7l-.06-84.2-.86-.8-1.62-.16-.12-.79-1.24-.31-.35-.64-3.84-.16L144,118l-2.72-.17v-9.34l-4.31-2.68-26.6,1.08v-1.1h-3v.94L95,106.57l-.38,13-11.13.15.41,154.65-2-.17-.05-105.42-.87-.16-.12-2.37-7.29.16v2H71.47v-1.27H64.3v1.11H63.05l.29-54.93L53.2,108l.13-9.18-9.15-5.54-27.7.46V98l-1.85-.15-2.34-1.12V95.3h-1l-.62.78-6.43-.17V94.34h.62l1.42-1.82L5.18,91.1l-1.54-2H1.77v-4.9H.43v5.22l-15.58-.33V87.68h-1.36v2.06l-2.1,1.11-.13,1.73,1.61,3.18-.25,7.11-1.24,1h-3.09l.13.63-1.13.15v10.45h-6.42v-1.41l-1.11-1.43L-32,113.79l-.28,52.55-1.86.63v11.87l-5.31.47.12,12.51-2.36.47-.24,6.5-1.36.62-.13,24.22-.87.16.08,58.56-.48-.15-.39-1.58h-4.07v1.26c0,.63-.38.63-.38.63l-.12,1.58-7.79-.16.38-8.7s1.35-1.74,2.1-1.9l.24-1.1h-3v-1.11l-2.84.15v.47l-1,.64-.13.48h-2.47l-.25-.8a3.31,3.31,0,0,0-1.36-.95c-.87-.31-1.35,1.27-1.35,1.27h-2.85l.37-9.66-1.48-.31.15-37.21-2.36-2.68h-7.91l-.18-93.24-2.61-.16v-8.54l-1.72.16-.13,1.74-1.11-.32.13-1.58-11.74.15L-103.58,102l-.24-3.17-.5-.63-.6-5.07-.75,5.07-.74.94-.38,2.86-4.46,19.46-27.93.78-3.72.16-3.58,3.64-.27,19.46-1.11.33-.5,1.57-1.12.17.08,68.85H-158l-5.57,4.74.11,10-2.59.47.12,9.66-4.59.16v28.8h-2.22v-4l-13.11-1.11v-6.8L-187,257h-1.72l-.25-14.71-4.69-4H-196v-1.41h1.25V224.67l-6.18-4.28-27.59.46v12.82l1.37,1.59-.13,2.53h-7.54L-235,244l.73.63-.48,1.1-8.79,9-5.07.16V269h-5.93l0,34.82h-10.15l.06-93.22h-10V209H-276v1.74h-1.72v-1.43h-1.12v1.43h-3.08V208h-.74v2.53l-11.63.62V209.1l-1-.47-.38.47-.23,1.27h-1.75V207.2h-2.72v2.86h-1.86v-1.75h-3v1.59l-.5-.16-1.73-1.91v2.7Z"/>
          <rect class="cls-74" x="565.86" y="332.7" width="1706.47" height="117.86" transform="translate(2838.19 783.26) rotate(-180)"/>
          <g>
            <polygon class="cls-75" points="565.86 313.47 565.86 366.74 1681.11 364.81 1681.11 316.13 565.86 313.47"/>
            <rect class="cls-76" x="565.86" y="313.47" width="1718.81" height="6.42"/>
            <rect class="cls-77" x="552.43" y="305.83" width="1119.12" height="9.09"/>
            <g class="cls-78">
              <g>
                <rect class="cls-79" x="568.37" y="330.59" width="12.88" height="6.06"/>
                <g>
                  <rect class="cls-79" x="597.06" y="350.38" width="12.88" height="6.06"/>
                  <rect class="cls-79" x="603.5" y="357.91" width="12.88" height="6.06"/>
                </g>
                <g>
                  <rect class="cls-79" x="473.25" y="326.82" width="12.88" height="6.06"/>
                  <rect class="cls-79" x="479.69" y="334.36" width="12.88" height="6.06"/>
                </g>
              </g>
            </g>
          </g>
          <rect class="cls-80" x="565.37" y="408.34" width="1707.44" height="190.93" transform="translate(2838.19 1007.62) rotate(-180)"/>
          <path class="cls-81" d="M1307.38,423.82s81.45,14.46,54.28,18.74-795.8,8-795.8,8l-.49-42.22Z"/>
          <polygon class="cls-82" points="1691.84 609.75 565.86 588.15 573.83 534.98 1533 536.39 1691.84 609.75"/>
          <path class="cls-83" d="M1666.87,409s84.56,72.37-366.73,60.49c-702.5-1.65-734.24-3-734.24-3l-.53,60.9L1651,525.27s248.3-18.72,138.75-116.93C1663.2,407.66,1666.87,409,1666.87,409Z"/>
          <path class="cls-84" d="M1268.72,458.44s-734.46-8.71-714,8.06c15.85,1,869.68,5.27,890.88,1.31s79.6-5.42,92.72-11.92c13.47-3.07,41.65-11.61,49.4-26.13,0,0,3.27-10.35-4.54-16.86-3.79.23,14.58,24.62-52.28,37.22s-157.47,15-161.84,12.47-43.45,2.39-43.16-2.7C1320.23,458.05,1268.72,458.44,1268.72,458.44Z"/>
          <rect class="cls-1" x="565.86" y="-10.26" width="1706.96" height="568.99" transform="translate(2838.67 548.47) rotate(-180)"/>
        </g>
      </g>
    </g>
  </g>
</svg>
