<svg id="Layer_1" data-name="Layer 1" xmlns="http://www.w3.org/2000/svg" xmlns:xlink="http://www.w3.org/1999/xlink" width="619.88" height="562.43" viewBox="0 0 619.88 562.43">
  <defs>
    <style>
      .cls-1, .cls-10 {
        fill: none;
      }

      .cls-2 {
        clip-path: url(#clip-path);
      }

      .cls-3 {
        fill: #c3b6a2;
      }

      .cls-20, .cls-24, .cls-4 {
        fill: #fff;
      }

      .cls-5 {
        clip-path: url(#clip-path-2);
      }

      .cls-6 {
        clip-path: url(#clip-path-3);
      }

      .cls-7 {
        fill: #cca96a;
      }

      .cls-8 {
        fill: #9db765;
      }

      .cls-24, .cls-9 {
        opacity: 0.25;
      }

      .cls-10 {
        stroke: #feffeb;
      }

      .cls-10, .cls-20, .cls-22, .cls-31, .cls-32, .cls-35, .cls-40, .cls-45, .cls-55, .cls-57, .cls-59 {
        stroke-miterlimit: 10;
      }

      .cls-11 {
        fill: #426e72;
      }

      .cls-12 {
        fill: #264547;
      }

      .cls-13 {
        fill: #e5d2c1;
      }

      .cls-14 {
        fill: #e8d75d;
      }

      .cls-15 {
        fill: #dbdad9;
      }

      .cls-16 {
        fill: #c6b663;
      }

      .cls-17 {
        fill: #ea3b48;
      }

      .cls-17, .cls-44, .cls-57 {
        opacity: 0.15;
      }

      .cls-18 {
        fill: #5e5e7f;
      }

      .cls-19 {
        fill: #ecebf5;
      }

      .cls-20 {
        stroke: #dbd7eb;
      }

      .cls-21 {
        fill: #dbd7eb;
      }

      .cls-22 {
        fill: #a2a1a1;
        stroke: #767581;
      }

      .cls-23 {
        fill: #90909e;
      }

      .cls-25, .cls-27 {
        fill: #d5edf2;
      }

      .cls-26 {
        fill: #f6fbfd;
        opacity: 0.65;
      }

      .cls-27, .cls-29 {
        opacity: 0.69;
      }

      .cls-28 {
        fill: #f1f8f9;
      }

      .cls-29, .cls-30 {
        fill: #b2e0e7;
      }

      .cls-31 {
        fill: #fbd1c8;
      }

      .cls-31, .cls-32 {
        stroke: #ce7c75;
      }

      .cls-32 {
        fill: #ecc0ba;
      }

      .cls-33 {
        fill: #ce7c75;
      }

      .cls-34 {
        fill: #df71e2;
        stroke: #710e7c;
      }

      .cls-34, .cls-37, .cls-38, .cls-39, .cls-43 {
        stroke-linejoin: round;
      }

      .cls-34, .cls-37, .cls-38, .cls-39, .cls-43, .cls-55 {
        stroke-width: 0.75px;
      }

      .cls-35 {
        fill: #fad2c6;
        stroke: #453423;
      }

      .cls-35, .cls-40, .cls-45 {
        stroke-width: 0.5px;
      }

      .cls-36 {
        fill: #e4a58c;
      }

      .cls-37 {
        fill: #999398;
        stroke: #423a33;
      }

      .cls-38 {
        fill: #686c71;
        stroke: #211f1c;
      }

      .cls-39 {
        fill: #301616;
        stroke: #1c0e0a;
      }

      .cls-40 {
        fill: #61435b;
        stroke: #1c101a;
      }

      .cls-41, .cls-45 {
        fill: #62445b;
      }

      .cls-42 {
        fill: #1d111b;
      }

      .cls-43 {
        fill: #bf79b2;
        stroke: #6f287a;
      }

      .cls-45 {
        stroke: #1d111b;
      }

      .cls-46 {
        fill: #f6e0d9;
      }

      .cls-47 {
        fill: #6b1d10;
        opacity: 0.18;
      }

      .cls-48 {
        fill: #da9b8d;
      }

      .cls-49 {
        fill: #342517;
      }

      .cls-50 {
        fill: #f6cfc4;
      }

      .cls-51 {
        fill: #323232;
      }

      .cls-52 {
        fill: #661e1c;
      }

      .cls-53 {
        fill: #d26653;
      }

      .cls-54 {
        fill: #f5958d;
      }

      .cls-55 {
        fill: #f6f6f5;
      }

      .cls-55, .cls-59 {
        stroke: #7f451d;
      }

      .cls-56 {
        fill: #fdefea;
      }

      .cls-57 {
        fill: #604034;
        stroke: #323232;
      }

      .cls-58 {
        fill: #c8e9f1;
      }

      .cls-59 {
        fill: #d6aba5;
        stroke-width: 0.25px;
      }
    </style>
    <clipPath id="clip-path">
      <rect class="cls-1" x="1260.29" y="56.6" width="539.07" height="449.22" rx="116.93"/>
    </clipPath>
    <clipPath id="clip-path-2">
      <rect class="cls-1" x="40.05" y="56.3" width="539.79" height="449.82" rx="116.93"/>
    </clipPath>
    <clipPath id="clip-path-3">
      <rect class="cls-1" x="-214.84" y="40.65" width="1019.88" height="573.68"/>
    </clipPath>
  </defs>
  <g class="cls-2">
    <path class="cls-3" d="M2483.06,807.41c-.91-44.82-1.68-89.65-3.69-134.43-1.74-38.65-4-77.23-5.38-115.88l-61.79-45.89-1852.33-.09L511.52,641.94l25.85,230.47h1947.4Q2483.69,840,2483.06,807.41Z"/>
  </g>
  <g>
    <rect class="cls-4" x="30.65" y="47.2" width="558.58" height="468.03" rx="124.49"/>
    <g class="cls-5">
      <g class="cls-6">
        <g>
          <path class="cls-3" d="M1185.81,782.8c-.89-43.68-1.64-87.36-3.6-131-1.7-37.66-3.92-75.25-5.25-112.92l-60.2-44.71-1804.93-.09-47.11,127.47,25.19,224.58H1187.47Q1186.42,814.5,1185.81,782.8Z"/>
          <polygon class="cls-7" points="-553.34 530.6 936.9 527.03 936.92 491.33 -553.34 494.92 -553.34 530.6"/>
          <g>
            <path class="cls-8" d="M-59.27-53.72c.65,214.35,8.72,343.59,9.37,557.94l718.79-1.69L656.57-43.79C444.85-44.76,152.45-52.75-59.27-53.72Z"/>
            <g class="cls-9">
              <polyline class="cls-10" points="-393.13 -38.42 27.47 57.01 1184.11 55.42"/>
              <polyline class="cls-10" points="-398.44 128.06 10.69 171.6 1112.11 166.06"/>
              <polyline class="cls-10" points="-399.31 255.09 21.29 265.91 1061.7 265.91"/>
              <polyline class="cls-10" points="-395.51 379.02 -395.51 394.72 15.62 363.76 1090.24 363.02"/>
              <polyline class="cls-10" points="-392.77 529.63 27.83 467.57 1037.33 467.57"/>
              <polyline class="cls-10" points="147.91 -46.66 147.91 567.02 -195.13 710.61"/>
              <polyline class="cls-10" points="304.63 -46.66 298.46 571.87 87.49 731.52"/>
              <polyline class="cls-10" points="459.43 -46.66 456.8 574.52 353.42 786.4"/>
            </g>
            <g>
              <ellipse class="cls-11" cx="434.29" cy="118.63" rx="14.08" ry="13.79"/>
              <ellipse class="cls-12" cx="434.29" cy="118.63" rx="9.74" ry="9.54"/>
              <ellipse class="cls-11" cx="577.2" cy="118.63" rx="14.08" ry="13.79"/>
              <ellipse class="cls-12" cx="577.2" cy="118.63" rx="9.74" ry="9.54"/>
              <rect class="cls-13" x="432.36" y="113.18" width="148.27" height="10.32"/>
            </g>
            <g>
              <path class="cls-14" d="M453,114v76.85c-1.21,12.84-2.43,15,16.61,14.5s74.54.06,74.54.06,13,6.75,12.79-14.56c-.23-20.89-6.71-71.29-3.06-76.85.81-4.76,3.06,0,3.06,0l-2.25-4.76H454.64A9.93,9.93,0,0,0,453,114Z"/>
              <path class="cls-15" d="M453,187.72s-8.49,22.46,15.12,17.6c23.61-.19,74.91.05,74.91.05s16.14,6.49,13.91-17.65c-6,0-25.71,3.77-30.53,2.59s-26.1-2.12-30.76.48-20.55-.53-22.71-1.57S456.94,193.15,453,187.72Z"/>
              <path class="cls-16" d="M493.89,109.21S450.54,123.32,453,145.47V114l1.62-4.76Z"/>
              <ellipse class="cls-17" cx="465.86" cy="145.88" rx="7.11" ry="6.47"/>
              <ellipse class="cls-17" cx="533.69" cy="121.47" rx="7.29" ry="6.63"/>
              <ellipse class="cls-17" cx="491.53" cy="160.73" rx="6.25" ry="5.69"/>
              <ellipse class="cls-17" cx="531.23" cy="151.57" rx="6.25" ry="5.69"/>
              <ellipse class="cls-17" cx="506.5" cy="139.58" rx="6.25" ry="5.69"/>
              <ellipse class="cls-17" cx="489.97" cy="121.47" rx="6.25" ry="5.69"/>
              <ellipse class="cls-17" cx="506.5" cy="177.78" rx="6.25" ry="5.69"/>
              <ellipse class="cls-17" cx="543.74" cy="180.72" rx="6.25" ry="5.69"/>
              <ellipse class="cls-17" cx="467.15" cy="177.78" rx="6.25" ry="5.69"/>
            </g>
          </g>
          <g>
            <g>
              <g>
                <g>
                  <path class="cls-18" d="M390.67,586.4H320.26l0-140.1s24,.72,32,.62c10.9-.14,38.15-1.66,38.15-1.66Z"/>
                  <path class="cls-18" d="M429.46,358.36H196.29c0,.88-.12,1.74-.18,2.63-4.53,68.83,92.61,98.52,212,81.77a71.74,71.74,0,0,0,21.32-6.08Z"/>
                  <path class="cls-18" d="M267.32,358.36H500.49c0,.88.12,1.74.17,2.63,4.53,68.83-92.6,98.52-212,81.77a71.67,71.67,0,0,1-21.31-6.08Z"/>
                </g>
                <g>
                  <g>
                    <g>
                      <path class="cls-19" d="M370,296.34l13.26.9-2,23.78-13.25-.9c-7.33-.5-12.81-6.23-12.26-12.79S362.71,295.84,370,296.34Z"/>
                      <path class="cls-19" d="M369,308.23c-.55,6.56,4.93,12.29,12.25,12.79s13.71-4.42,14.27-11-4.94-12.29-12.26-12.79S369.58,301.66,369,308.23Z"/>
                    </g>
                    <path class="cls-19" d="M385.28,329.07c3.59,0,6.6-2.52,6.81-5.77.1-1.51,1.33-79.32,1.44-81.27.94-15.42-5.85-28.54-18.62-36-11.64-6.8-26.67-7.77-38.3-2.46a29.51,29.51,0,0,0-17.7,25.83c-.19,3.38,2.7,6.26,6.47,6.44,4,.12,7-2.42,7.19-5.8.42-7.31,4-12.69,10.23-15.55,7.35-3.34,17-2.64,24.66,1.81,8.68,5.07,13.09,14,12.42,25.06-.12,2-1.34,79.73-1.43,81.21-.22,3.38,2.66,6.28,6.42,6.47Z"/>
                  </g>
                  <g>
                    <g>
                      <path class="cls-20" d="M370,296.34l13.26.9-2,23.78-13.25-.9c-7.33-.5-12.81-6.23-12.26-12.79S362.71,295.84,370,296.34Z"/>
                      <path class="cls-21" d="M369,308.23c-.55,6.56,4.93,12.29,12.25,12.79s13.71-4.42,14.27-11-4.94-12.29-12.26-12.79S369.58,301.66,369,308.23Z"/>
                    </g>
                    <path class="cls-22" d="M385.28,329.07c3.59,0,6.6-2.52,6.81-5.77.1-1.51,1.33-79.32,1.44-81.27.94-15.42-5.85-28.54-18.62-36-11.64-6.8-26.67-7.77-38.3-2.46a29.51,29.51,0,0,0-17.7,25.83c-.19,3.38,2.7,6.26,6.47,6.44,4,.12,7-2.42,7.19-5.8.42-7.31,4-12.69,10.23-15.55,7.35-3.34,17-2.64,24.66,1.81,8.68,5.07,13.09,14,12.42,25.06-.12,2-1.34,79.73-1.43,81.21-.22,3.38,2.66,6.28,6.42,6.47Z"/>
                  </g>
                </g>
                <g>
                  <ellipse class="cls-19" cx="348.38" cy="356.61" rx="152.38" ry="36.74"/>
                  <path class="cls-23" d="M213.09,355.77c0,15.37,59.46,27.84,132.82,27.84s132.82-12.47,132.82-27.84-59.47-27.85-132.82-27.85S213.09,340.39,213.09,355.77Z"/>
                </g>
              </g>
              <g>
                <path class="cls-24" d="M272.54,379.06c12.2,2.48,73.79,11.83,96.79,4.21-.56-1.2-38.26-151-38.26-151a7,7,0,0,1-7.77,3.92c-3.69-.65-4.64-5-4.64-5Z"/>
                <g>
                  <path class="cls-25" d="M346.44,372c0,1.35,1.47,2.44,3.3,2.44s3.3-1.09,3.3-2.44-1.48-2.44-3.3-2.44S346.44,370.65,346.44,372Z"/>
                  <ellipse class="cls-26" cx="430.13" cy="352.8" rx="4.57" ry="3.38"/>
                  <ellipse class="cls-27" cx="426.23" cy="332.18" rx="10.52" ry="7.77"/>
                  <ellipse class="cls-26" cx="447.66" cy="359.42" rx="4.57" ry="3.38"/>
                  <path class="cls-28" d="M374.35,365c0,1.35,1.48,2.44,3.31,2.44S381,366.3,381,365s-1.48-2.44-3.3-2.44S374.35,363.6,374.35,365Z"/>
                  <path class="cls-28" d="M384.21,370.32c0,2.15,2.42,3.89,5.4,3.89s5.41-1.74,5.41-3.89-2.42-3.89-5.41-3.89S384.21,368.17,384.21,370.32Z"/>
                </g>
                <path class="cls-29" d="M272.54,379.06c56.78,5.95,73.6,5.22,96.79,4.21-.56-1.21-37.43-151.78-37.43-151.78a7,7,0,0,1-7.78,3.94c-3.69-.65-4.63-5-4.63-5Z"/>
              </g>
              <path class="cls-30" d="M246.52,503.43s-6.38,30.09-.11,18.31S246.52,503.43,246.52,503.43Z"/>
              <path class="cls-30" d="M216.11,423s-15.46,7.51-6.7,12.93,4.25,1.16,8.79-3.58S216.11,423,216.11,423Z"/>
              <path class="cls-30" d="M200.42,438.41s3.72,50.63,4.88,27.74S200.42,438.41,200.42,438.41Z"/>
            </g>
            <g>
              <path class="cls-29" d="M337.64,353.64s101.3-4.46,95.25,8.56,8,7.73,8,7.73-28.58,13.17-95.11,16.12c-50.94,2.81-120.75-4.92-134.07-13.13l.5-6S215,341,256.78,337.12s70.12,4.33,78.85,8.38C348.73,341.72,357.41,346.15,337.64,353.64Z"/>
              <g>
                <path class="cls-31" d="M253.93,360.92l-35.59-20.47L232.48,320s31.36,27.68,31.86,28.27Z"/>
                <g>
                  <path class="cls-32" d="M250.62,366.47c.06,1.51,4,13.7,4.44,14.24s8.26,4.06,6.65-6.53l-.36-2.65s16.59,12,23.45,11.18c3.65-.41-1.6-5.63-1.6-5.63s2.91,2.94,2.43-6.77-11.82-17.22-11.82-17.22S250,351.45,250.62,366.47Z"/>
                  <path class="cls-33" d="M285.54,380a11.45,11.45,0,0,0-1.85-2c-.66-.62-1.39-1.18-2.09-1.76-1.44-1.13-2.92-2.22-4.4-3.3-3-2.17-6-4.28-8.9-6.56a64.11,64.11,0,0,1,9.49,5.75,49.77,49.77,0,0,1,4.31,3.52A13.75,13.75,0,0,1,285.54,380Z"/>
                  <path class="cls-33" d="M268.8,376.41a20.72,20.72,0,0,1-6-3.38,32.61,32.61,0,0,1-2.59-2.25,21.63,21.63,0,0,1-2.3-2.57c1.94,1.26,3.71,2.65,5.51,4Z"/>
                  <path class="cls-33" d="M285.58,374.58A16.56,16.56,0,0,0,283,370a30.24,30.24,0,0,0-3.53-3.89c-1.26-1.23-2.62-2.37-4-3.49s-2.78-2.21-4.22-3.28A29.76,29.76,0,0,1,276,362a31.72,31.72,0,0,1,4.21,3.39,22,22,0,0,1,3.48,4.16A11.87,11.87,0,0,1,285.58,374.58Z"/>
                </g>
              </g>
              <path class="cls-34" d="M226,355.68c-10.3,2.65-16.87-3-25-11.79-.85-20.76,14.13-40.76,15.31-39.79,15.57,12.71,23.93,23,28.42,26.73C243.33,336.09,231.76,350.76,226,355.68Z"/>
            </g>
            <g>
              <g>
                <g>
                  <path class="cls-35" d="M159.49,557c.61,13.81.9,23.25,1,29.44.43-6.66,1.62-14.5,4.56-16.16,10.41-5.84,20.54,9.29,21.83-8.09.67-9.09,1.61-22.61,2.45-34.41.18-2.51.34-4.93.49-7.23.68-10,1.19-17.43,1.19-17.43l-30-2.23-.34,12.37-.17,5.6Z"/>
                  <path class="cls-36" d="M161.14,513.22c9.82,8.45,20.92,8.53,28.22,7.29l1.15-17.43-29-2.23Z"/>
                </g>
                <path class="cls-34" d="M160.25,556.08c.59,13.5.87,22.72,1,28.76.42-6.5,1.31-16.17,4.38-15.78,9.36,1.18,19.75,9.07,21-7.9.64-8.89,1.54-22.09,2.34-33.62.6,6.66-6.83,10-7.28,9.35,0,0-14.32-1.74-20.11-7.22Z"/>
              </g>
              <path class="cls-37" d="M191.29,530c0-1-1-1.58-1.65-1-2.61,2.24-9.19,5.87-22.41,2.5a14.21,14.21,0,0,1-6.12-3.27c-.66-.64-1.6-.14-1.71.9l-.73,7.29a1.48,1.48,0,0,0,.59,1.4c3,1.89,15.63,8.71,29.9,1a1,1,0,0,0,.38-.34C190.08,537.73,191.57,535.17,191.29,530Z"/>
              <g>
                <path class="cls-38" d="M187.78,562.16c-.85-.36.61,8.54-3.07,12.57s-22.08-.89-27-11.64V557s-7.25-1.8-2.34,11a62.49,62.49,0,0,0-3.84,11.21c-1.4,6,1.1,12.31,1.1,12.31s15.94,7.39,25.76,10.08,40.83,5.82,47-4.7c0,0,6.88-17.69-21-24.18,0,0-10.74,1.79-11.79-.23S196.06,565.72,187.78,562.16Z"/>
                <path class="cls-39" d="M151.77,560.63a17.71,17.71,0,0,1,1.06,11,25.61,25.61,0,0,0-.66,5.18v0a32.65,32.65,0,0,0,.08,3.92,5.12,5.12,0,0,0,2.68,4.45c4.76,2.11,15.94,7,23.47,9,9.82,2.7,40.85,5.83,47-4.7a7.32,7.32,0,0,0,.13-1.67v0c0-3.66-2-12.41-19-17.83-.7-.23-1.43-.46-2.19-.67l-1.28-.34q-.5-.15-1-.27l-1-.25-1.4-.3-1.07-.25a27.1,27.1,0,0,1-2.81-.87l-.08,0h0a8,8,0,0,1-2.67-1.45,1.6,1.6,0,0,1-.37-.46,2.8,2.8,0,0,1-.12-1.5c.33-3,2.35-8.53-4.47-11.46-.85-.36,2.31,8.15-3.65,13.42-9.15,8.09-18.79,2.51-24.21-5.51-1.61-2.39-.47-4.55-.47-7.71v-2.52S148.61,548.09,151.77,560.63Z"/>
                <path class="cls-38" d="M151.09,558.37a27.78,27.78,0,0,0,2.22,5.57c1.57,2.95,3.72,5.52,6.37,6.66"/>
                <path class="cls-38" d="M192.7,562.16c-1,4.4-3.2,8.78-6.25,11.19"/>
              </g>
              <g>
                <g>
                  <g>
                    <path class="cls-35" d="M109.19,566.37c.61,13.82.9,23.26,1,29.44.43-6.66,1.62-14.5,4.56-16.16,10.41-5.84,20.54,9.29,21.83-8.09.67-9.09,1.61-22.6,2.45-34.4.17-2.52.34-4.93.49-7.24.68-10,1.19-17.43,1.19-17.43l-30-2.23-.34,12.37-.17,5.6Z"/>
                    <path class="cls-36" d="M110.84,522.63c9.82,8.45,20.92,8.53,28.22,7.29l1.15-17.43-29-2.23Z"/>
                  </g>
                  <path class="cls-34" d="M110,565.49c.59,13.5.87,22.72,1,28.77.42-6.51,1.31-16.18,4.38-15.79,9.36,1.19,19.75,9.07,21-7.9.64-8.89,1.54-22.09,2.34-33.62.6,6.67-6.83,9.95-7.28,9.35,0,0-14.32-1.74-20.11-7.22Z"/>
                </g>
                <path class="cls-37" d="M141,539.39c-.05-1-1-1.58-1.65-1-2.61,2.24-9.19,5.87-22.41,2.51a14.29,14.29,0,0,1-6.12-3.28c-.66-.64-1.6-.14-1.71.9l-.73,7.29a1.48,1.48,0,0,0,.59,1.4c3,1.89,15.63,8.71,29.9,1a1,1,0,0,0,.38-.34C139.77,547.14,141.27,544.59,141,539.39Z"/>
              </g>
              <path class="cls-39" d="M101.47,570a17.71,17.71,0,0,1,1.06,11,25.7,25.7,0,0,0-.66,5.18v0a32.6,32.6,0,0,0,.08,3.92,5.11,5.11,0,0,0,2.68,4.45c4.76,2.12,15.94,7,23.47,9,9.82,2.71,40.85,5.83,47-4.7a7.23,7.23,0,0,0,.13-1.67v0c0-3.65-2-12.41-19-17.83-.7-.23-1.43-.46-2.19-.67l-1.29-.34c-.32-.1-.67-.19-1-.27s-.68-.17-1-.25l-1.4-.3-1.07-.25a26.37,26.37,0,0,1-2.81-.87l-.08,0h0a7.9,7.9,0,0,1-2.67-1.45,1.6,1.6,0,0,1-.37-.46,2.7,2.7,0,0,1-.12-1.5c.33-3,2.35-8.52-4.47-11.46-.85-.36,2.31,8.15-3.65,13.42-9.15,8.1-18.79,2.51-24.21-5.51-1.61-2.39-.47-4.55-.47-7.71v-2.52S98.31,557.5,101.47,570Z"/>
              <path class="cls-40" d="M154.09,477.13l2-50.55,49.46-20.95V419.1s4.26,5.68,3.49,11.07S203,502.86,203,502.86s-9.72,15-30.95,12.86-21-9.87-21-9.87,3.07-28.72,2.3-28.72"/>
              <path class="cls-40" d="M169.46,480.54c-1.5.45-4.31,6.43-13.66,5.53l-2.51,28.2s-1.95,14.91-44.65,10.34c0,0-15.38-2.72-17.44-11.24,0,0,1.76-.87,4.2-39.37s7.3-49.17,7.3-49.17l62,6.28"/>
              <g>
                <path class="cls-41" d="M121.55,435.53l-1.74,0c-1.7,7.88-7.6,14.37-14.57,16.05"/>
                <path class="cls-42" d="M121.55,435.53l-1.74.1.07-.06a21.26,21.26,0,0,1-5,10.21,19.21,19.21,0,0,1-4.38,3.71,15.79,15.79,0,0,1-5.3,2.11,18.94,18.94,0,0,0,5.1-2.41,21.08,21.08,0,0,0,4.21-3.73,24.15,24.15,0,0,0,5.19-9.92l0-.06h0Z"/>
              </g>
              <g>
                <path class="cls-34" d="M215.62,331.75c-3.12,29.73-6.8,66.36-6.45,100.12-31.3,10.32-77.29,15.24-107.59-8.13,0,0-.06-119.68,34.06-135.47,40.89-5.69,62.84,6.25,81.78,16.53"/>
                <path class="cls-43" d="M206.26,302.89a6.27,6.27,0,0,0,.42-2.75c-12.27-5.75-35.1-10.36-50.49-12.45a12.81,12.81,0,0,0-.78,1.68c-2.78,10.59,6.34,22.19,20.38,25.92S203.48,313.48,206.26,302.89Z"/>
              </g>
              <path class="cls-44" d="M247.81,351.91c-19.8-5.49-48.11-18.74-57-23.6a369.83,369.83,0,0,1-51.58-34.53c-17.19,6.76-24.74,33.45-7.49,51.29,7.82,8.09,23.94,22.05,30.47,26.46,2.42-2.92,7.33-7.67,10.51-11.71,14.26,7.94,53,11.79,77.42,12.56C251.66,372.43,249.76,352.45,247.81,351.91Z"/>
              <g>
                <path class="cls-45" d="M184.52,332.07l-4.6,48-1.19,12.45,13.86,22.11L201,391.33l-1.91-22.12-3.3-38.32S185.39,333.47,184.52,332.07Z"/>
                <path class="cls-45" d="M182.46,332.36s-5.57-3.74-3.69-6.54,5.37-11.08,14.58-6.47c5.18,6.55,8.62,9.71,2,16.64C191.62,337.05,182.46,332.36,182.46,332.36Z"/>
                <polygon class="cls-46" points="180.8 373.33 198.46 366.24 199 371.31 180.8 378.7 180.8 373.33"/>
                <polygon class="cls-46" points="182.85 397.84 200.47 384.81 201 388.86 184.52 401.72 182.85 397.84"/>
                <g>
                  <path class="cls-31" d="M250.13,372.38c1.54.05-.37-19.93-2.32-20.47-19.8-5.49-36.16-10.49-56.25-18.75-3.48-1.43-17.9-14.77-20.4-14.54-7.25,5.82-15.2,11.11-23.84,19.65C159.71,350,171,356.45,176.2,358.6,185.83,362.55,225.72,371.61,250.13,372.38Z"/>
                  <g>
                    <path class="cls-31" d="M237.51,348.89l9.62,2A53.93,53.93,0,0,1,257.6,339.8c5.77-4.26,7.78-3,12.36-6.76s1.31,4.45.91,5.54c0,0,7.08-1.22,9.94-.25s5.15.74,8.37,14c0,0,4,7.92-.2,7.85a1.11,1.11,0,0,0-.11.35c-.27,2,3.11,7.54-3.85,6.34,2.07.18-14.12-5.78-14.12-5.78s-5.28,6.33-22,12.21l-23.8-3.52"/>
                    <path class="cls-33" d="M288.74,360.92a10.11,10.11,0,0,0-3.5-3,35.48,35.48,0,0,0-4.15-2c-2.85-1.22-5.79-2.24-8.75-3.35a33.2,33.2,0,0,1,9.15,2.43,22.75,22.75,0,0,1,4.18,2.31A7.89,7.89,0,0,1,288.74,360.92Z"/>
                    <path class="cls-33" d="M288.82,352.67a10.22,10.22,0,0,0-3.5-3,35.48,35.48,0,0,0-4.15-2c-2.85-1.21-5.79-2.24-8.75-3.35a33,33,0,0,1,9.14,2.43,22.83,22.83,0,0,1,4.19,2.31A7.94,7.94,0,0,1,288.82,352.67Z"/>
                  </g>
                </g>
                <path class="cls-34" d="M152.7,303c17.16,13.83,33.23,24.3,36,26.39-5,9.12-19.32,27.27-27.21,36.81a357.39,357.39,0,0,1-29.29-22.94c-24.42-22-13.71-48.27,3.49-55"/>
              </g>
              <g>
                <path class="cls-31" d="M167.63,262.86,159,299.74a11.5,11.5,0,0,0-.17,4.33,5.3,5.3,0,0,1,1.73.48,71.9,71.9,0,0,1,19.9,14.76c8.15,0,15-4.11,16.55-10.55l8.67-36.87Z"/>
                <path class="cls-47" d="M204.43,275.68c-12.52-2.34-26.52-4.46-37.66-5.34a13.78,13.78,0,0,0-.72,1.82c-2.31,11.29,8,22.95,22.95,26a36,36,0,0,0,10,.59Z"/>
              </g>
              <path class="cls-34" d="M181.51,313.62l-18.8-29.83c-2.8-4.9-11.66,3.14-12.55,3l10,22.39a4.2,4.2,0,0,1,.49.37,32,32,0,0,1,4.59,3.51c.36.22.68.48,1,.72a1.19,1.19,0,0,1,.16.08,22.24,22.24,0,0,1,1.95,1.39,37.82,37.82,0,0,1,3.37,2.56q4.2,3,8.41,5.94c.1.07.18.15.28.23l4.05-6Z"/>
              <g>
                <g>
                  <path class="cls-31" d="M251.64,255.35c-6.22,8-16.07,10-22.73,5.22s-2.9-9.15,3.33-17.18,6.21-7,14.24-9C264.06,230.08,257.87,247.32,251.64,255.35Z"/>
                  <path class="cls-48" d="M248.42,238.76a4,4,0,0,1,3.38,1c1.11,1.16.92,3,.48,4.49-1.56,5.31-5.36,9.84-9.95,13.17a6.73,6.73,0,0,1-2.45,1.26,2.61,2.61,0,0,1-2.54-.73,2.66,2.66,0,0,1,0-2.86c1.18-2.3,3.81-3.46,6.05-4.85a5,5,0,0,0,1.6-1.39,1.85,1.85,0,0,0,.14-2,2.61,2.61,0,0,0-1.36-.94,15.07,15.07,0,0,0-3.39-.66c-.15-1.71,1.55-3,2.76-3.93A10.52,10.52,0,0,1,248.42,238.76Z"/>
                </g>
                <path class="cls-31" d="M244.33,194.65c-25.88-22.24,16.92-36.57-21.9-43.26-37.68-6.5-63.09,8.45-70.05,41.1-3.21,15.1-1.3,31.9-1.54,32.7-11,37.74,17.31,62.82,40.15,66.75,10,1.71,21.14-1.23,31.23-6.58,12.33-6.54,23.07-17.95,28.05-44.9C250.42,239.64,265.91,213.19,244.33,194.65Z"/>
                <path class="cls-48" d="M178.67,181s6,12.66,48.27,20.05l-.14-5.82s1.09,8.29,24.87,16.92L250,242.87l18.36-61.46-87.82-23-16.22,11.42-2.41,16.92s-14.71,32.11-15.35,43.77l1.76-1.63a63.17,63.17,0,0,0,15.38-22.1h0S171.6,211.88,178.67,181Z"/>
                <path class="cls-49" d="M176.81,172s-6.74,12.34,49.22,25.6c0,0-1.34-.93-3.83-14.95,3.41,17.35,18,20.41,28.13,25.71L258,192.67l-8,50.2s8-13.58,10.64-19.47c0,0,8.36-16.25,7.72-27.86a58.75,58.75,0,0,1,1.4,11.25S284.34,181.63,253,153c0,0,7.5-.45,15.34,5.4,0,0-12.62-21.35-45.73-28.7-17.31-3.85-30.39-6.85-41.5,8.55,0,0-17.84-18.28-32.23,5.91,0,0,16.24-4.82,19.3,1.94,0,0-17.81-.94-26.84,23.06-8.53,22.68-5.59,40.72,3.53,60.54,0,0,15.83-11.78,17-33.21l3.3,8.82S175.63,200.64,176.81,172Z"/>
                <g>
                  <path class="cls-31" d="M149.17,245.72c-9.5,5.77-17.35-1.93-19.08-11.5s.12-27.66,12.11-17.56a17.9,17.9,0,0,1,8,13.17"/>
                  <path class="cls-48" d="M139,220a3,3,0,0,0-3-.28c-1.31.68-1.86,2.42-2.1,4a26.64,26.64,0,0,0,2.63,15.61,5.55,5.55,0,0,0,1.42,2,2,2,0,0,0,2.26.21,3.08,3.08,0,0,0,1.13-2.64c0-2.53-1.62-4.52-2.83-6.57a4.73,4.73,0,0,1-.7-1.84,2.14,2.14,0,0,1,.65-1.88,2.26,2.26,0,0,1,1.42-.4,11,11,0,0,1,2.9.57c.78-1.53-.06-3.3-.63-4.6A8.73,8.73,0,0,0,139,220Z"/>
                </g>
                <g>
                  <g>
                    <path class="cls-50" d="M205.06,249.17c6.36,7.58,13.84,2.45,14.3-.7,0,0,.82-3.32-2.45-7.06s-.56-12.86-.56-12.86"/>
                    <path class="cls-51" d="M205.1,249.14a12.29,12.29,0,0,0,3.36,2.74,7.82,7.82,0,0,0,4.11,1,7.68,7.68,0,0,0,4-1.3,5.3,5.3,0,0,0,2.42-3.14v0a7.65,7.65,0,0,0-1.09-4.71,15.49,15.49,0,0,0-1.46-2.06,6.56,6.56,0,0,1-1.2-2.55,14.72,14.72,0,0,1-.15-5.37,25,25,0,0,1,1.23-5.14l.09,0a36.26,36.26,0,0,0-.69,5.17,15.84,15.84,0,0,0,.42,5.07A6,6,0,0,0,217.2,241a12.41,12.41,0,0,1,1.58,2.21,8.22,8.22,0,0,1,1,5.39v0a4.62,4.62,0,0,1-1.11,2.11,8,8,0,0,1-1.76,1.47,8.47,8.47,0,0,1-4.32,1.25,8.18,8.18,0,0,1-4.27-1.22A12.5,12.5,0,0,1,205,249.2Z"/>
                  </g>
                  <path class="cls-49" d="M202.12,204.3s.63-3.31-4.55-4-12.87,3.95-13.82,7.5C183.75,207.84,195,201.45,202.12,204.3Z"/>
                  <path class="cls-49" d="M221.88,209.53a4.75,4.75,0,0,1,5.34-2.23c3.87.76,8.3,5.89,8.14,8.65C235.36,216,227.62,209.17,221.88,209.53Z"/>
                  <g>
                    <path class="cls-52" d="M183.09,254.84c1.21,4.52,5.24,18.86,15.37,22.69,6.12,2.32,10.43-2.15,14.29-5.21,1-.79,2-1.64,2.94-2.49h0c.49-.44,1-.86,1.47-1.28a32.71,32.71,0,0,1,4.07-3.05h0c.34-.21.68-.4,1-.59l.42-.21s-10.54,3.21-36.6-9.58L184,253.86l-.84-.49-.47-.27S182.8,253.75,183.09,254.84Z"/>
                    <path class="cls-53" d="M209.17,273.75a7.3,7.3,0,0,0-5.79-2.92,14.37,14.37,0,0,0-10.48-.77S200.25,278,209.17,273.75Z"/>
                    <path class="cls-4" d="M183.14,253.37c9.76,14.16,21.16,17.11,27.9,16.72,2.88-.17,3.91-4.95,8.36-4.1a12.14,12.14,0,0,0,2.87-1.09l.42-.21s-10.54,3.21-36.6-9.58L184,253.86Z"/>
                    <path class="cls-54" d="M183.09,254.84c1.21,4.52,5.24,18.86,15.37,22.69,6.12,2.32,10.43-2.15,14.29-5.21C200.53,278.56,192.41,274.18,183.09,254.84Z"/>
                    <path class="cls-54" d="M184,253.86c18.3,15,31.89,13.28,37.25,11.64h0l.12,0c.32-.21.63-.4.91-.56l.42-.21s-10.54,3.21-36.6-9.58Z"/>
                    <path class="cls-53" d="M184.52,251.63s-3.46-.34-2.87,3.58C181.65,255.21,180.56,250,184.52,251.63Z"/>
                    <path class="cls-53" d="M222.34,263.34s1.87,1-.11,3.49C222.23,266.83,225.2,264.63,222.34,263.34Z"/>
                  </g>
                  <g>
                    <ellipse class="cls-55" cx="192.84" cy="224.09" rx="10.65" ry="9.55" transform="translate(-51.61 390.37) rotate(-83.51)"/>
                    <ellipse class="cls-49" cx="193.62" cy="228.29" rx="6.51" ry="6.02" transform="translate(-54.78 395.34) rotate(-83.62)"/>
                    <ellipse class="cls-56" cx="190.2" cy="224.88" rx="1.15" ry="1.15" transform="translate(-43.11 404.63) rotate(-87.39)"/>
                  </g>
                  <g>
                    <ellipse class="cls-55" cx="226.04" cy="229.31" rx="10.65" ry="8.73" transform="translate(-27.8 427.41) rotate(-83.38)"/>
                    <ellipse class="cls-49" cx="226.62" cy="233.49" rx="6.51" ry="5.57" transform="translate(-31.28 431.88) rotate(-83.43)"/>
                    <ellipse class="cls-56" cx="223.52" cy="230.11" rx="1.15" ry="1.06" transform="translate(-30.16 426.48) rotate(-83.57)"/>
                  </g>
                </g>
              </g>
              <path class="cls-34" d="M201,292.42l-10.82,26.2,12.46,15.6a90.77,90.77,0,0,0,4-41.8C206,292.44,205.31,292.45,201,292.42Z"/>
              <path class="cls-30" d="M241,380s-13.4,0-12.37,6.34c1.47,9-1.64,15.65,0,34.57,1.51,17.31-1.35,17.05-.21,44.48.46,11,1.52,25.69,2.49,25.68,1.13,0,.67-19.91,4.37-50.74,1.94-16.17,4.5-31.06,5.26-31,.24,0,.62,1.56.46,4.66-.74,14.41,7.12,17.54,7.09-1.25s-5.52-21.59,4.55-23.95c6.66-1.56,13.78-2.08,13.87-3.35.07-1-4.31-2.22-6.35-2.76A83.5,83.5,0,0,0,241,380Z"/>
              <path class="cls-30" d="M228.13,501.13S222,530,228,518.67,228.13,501.13,228.13,501.13Z"/>
              <path class="cls-30" d="M237.76,452.77c6.24-6.89,4-17.54,7-19.42s3.11,19.48,5.84,11,2.76-14.37,2.44-22.71-11.71-9.58-11.71-9.58S231.53,459.66,237.76,452.77Z"/>
              <path class="cls-57" d="M207.68,395.71s-.85,3.32-11.57,2.69,8.67-12.11-3.21-11.69-41.5-1.21-36,9-13,14.6-6.27,22.11,10.68-6.26,19,1.88,14.6,18.79,23.3,10,13.35-11,14.82-9.93S207.68,395.71,207.68,395.71Z"/>
              <path class="cls-30" d="M203.33,384.46s-12.89,9.56-10.43,17.7,9,3.75,8.14,12.33,7.58,7.09,8.75.83,1.88-32.83,1.88-32.83S210.56,370.52,203.33,384.46Z"/>
              <path class="cls-30" d="M193.89,408s-14.81,7.13-6.42,12.27,4.07,1.11,8.41-3.39S193.89,408,193.89,408Z"/>
              <path class="cls-41" d="M184,438.86s3.56,48.49,4.67,26.57S184,438.86,184,438.86Z"/>
              <path class="cls-39" d="M101.94,420.5s48.45,30.64,107.65,11.62l-.41,8.39s-66,22.11-107.6-14.07Z"/>
              <polygon class="cls-45" points="125.4 429.81 124.81 441.68 128.94 443.38 129.55 431.02 125.4 429.81"/>
              <polygon class="cls-45" points="107.97 422.25 107.38 434.12 111.51 435.82 112.12 423.45 107.97 422.25"/>
              <polygon class="cls-58" points="150.02 436.54 149.49 447.41 174.04 448.02 174.58 437.12 150.02 436.54"/>
              <polygon class="cls-45" points="191.29 435.69 190.79 445.81 194.63 445.13 195.13 434.88 191.29 435.69"/>
            </g>
          </g>
          <path class="cls-59" d="M183.78,224.09c1.86-2.57,4.54-5.23,8.28-6.09,4.76-1.09,9.06,1.32,8.56.51s-2.84-4.77-7.56-4.82a9.33,9.33,0,0,0-5.81,2C183.39,218.74,183.73,223.6,183.78,224.09Z"/>
          <path class="cls-59" d="M217.48,230.32a11.39,11.39,0,0,1,5.33-6.72,11.12,11.12,0,0,1,5.82-1.46c3.18.13,4.57,2.3,4.92,1.88s-1.3-2.77-3.49-3.92a8.91,8.91,0,0,0-6-.63,8.56,8.56,0,0,0-4.87,3.59,9.55,9.55,0,0,0-1.7,4.42A9.86,9.86,0,0,0,217.48,230.32Z"/>
        </g>
      </g>
    </g>
  </g>
</svg>
