<svg id="Layer_1" data-name="Layer 1" xmlns="http://www.w3.org/2000/svg" xmlns:xlink="http://www.w3.org/1999/xlink" viewBox="0 0 512 400"><defs><style>.cls-1{opacity:0.3;}.cls-2{stroke:#2d2d2d;fill:url(#linear-gradient);}.cls-10,.cls-11,.cls-2,.cls-5,.cls-6,.cls-9{stroke-miterlimit:10;}.cls-2,.cls-9{stroke-width:2px;}.cls-3{fill:none;}.cls-4,.cls-6{fill:#b2b2b2;}.cls-5{stroke:#545456;fill:url(#linear-gradient-2);}.cls-11,.cls-6{stroke:#1d1d1b;stroke-width:0.25px;}.cls-7{fill:#191919;}.cls-13,.cls-8{fill:#fff;}.cls-8{opacity:0.15;}.cls-9{fill:#870310;}.cls-10,.cls-9{stroke:#1d1d1e;}.cls-10{fill:#af3e2f;stroke-width:0.5px;}.cls-11{fill:#a51422;}.cls-12{fill:#d33939;}.cls-14{fill:#ccc;}.cls-15{fill:#eaeaea;}.cls-16{fill:#a8a8a8;}</style><linearGradient id="linear-gradient" x1="236" y1="226.52" x2="409.14" y2="304.53" gradientUnits="userSpaceOnUse"><stop offset="0" stop-color="#e6e8e8"/><stop offset="0.38" stop-color="#e1e1e1"/><stop offset="0.4" stop-color="#dedede"/><stop offset="0.59" stop-color="#cbcbcb"/><stop offset="0.78" stop-color="#c1c1c1"/><stop offset="1" stop-color="#bdbdbd"/></linearGradient><linearGradient id="linear-gradient-2" x1="229.05" y1="204.56" x2="370.07" y2="204.56" gradientUnits="userSpaceOnUse"><stop offset="0" stop-color="#eee"/><stop offset="1" stop-color="#f7f7f7"/></linearGradient></defs><ellipse class="cls-1" cx="326.3" cy="352.5" rx="101.5" ry="9.5"/><ellipse class="cls-1" cx="158.8" cy="346.5" rx="67" ry="9.5"/><path class="cls-2" d="M406.93,282l-14.64-71.18c-5.05-22.42-19-26-24-26.53l-47.74-2.19a61.93,61.93,0,0,0-20.83,3.15L292.9,188l-66.23,27c-4.68,2.6-12.6,10.08-7.44,29.87l22,77.4c2,5.06,7.75,14.42,23.87,20.15l30.82,10.22h0l2.38.79c5.79,1.63,21.5,4.37,40.35-6.24l51.56-29.05C409.26,307.39,408,288.45,406.93,282Z"/><path class="cls-3" d="M304.46,233.62l2.22-1A10.41,10.41,0,0,0,304.46,233.62Z"/><path class="cls-3" d="M367.62,206.77l1.23-.52A9.21,9.21,0,0,0,367.62,206.77Z"/><path class="cls-3" d="M319.09,328.15l-.07-.27A2.51,2.51,0,0,0,319.09,328.15Z"/><path class="cls-4" d="M400.44,286.82l-14.28-69.38c-3.53-17.14-12.83-15.65-16.26-14.45l-1.29.55h0l-64,27.2h0l-2.33,1c-3.55,2-9.53,7.43-5.86,21l21.15,78,.07.28c.62,2.12,5.33,15.42,23.73,5.05L386,310.9C400.1,302.52,401,291.94,400.44,286.82Z"/><path class="cls-5" d="M367.93,187.25,323.1,185.2a81.62,81.62,0,0,0-29.84,5.16l-59.55,24.26.09,0-.09,0-2,.81c-2.42,1.14-5.26,3.17,1.83,4.31l30.74,4.06s22.16,1.62,38.91-5.5l59.24-25.18C372.89,188.67,370.33,187.53,367.93,187.25Z"/><path class="cls-3" d="M264.79,239.89l.8.11C265.08,239.91,264.79,239.89,264.79,239.89Z"/><path class="cls-3" d="M299,343.26l-1.2-.4A9.78,9.78,0,0,0,299,343.26Z"/><path class="cls-6" d="M299.49,345.6h0l1.26.41c2.5.65,7.62,1,5.08-8.4l-21.4-79c-4.74-17.49-15.69-20.62-18.79-21.17l-.84-.11-38-5c-2.13,0-5.49,1-3.39,8.42L245,317a26.56,26.56,0,0,0,17.17,16.22l37.29,12.37Z"/><path class="cls-3" d="M292.9,188l6.85-2.79A46.42,46.42,0,0,0,292.9,188Z"/><path class="cls-3" d="M298.27,353.43l-2.38-.79A21,21,0,0,0,298.27,353.43Z"/><path class="cls-7" d="M274.12,208.06c.43,1.51-4.4,4.21-10.79,6s-11.93,2.08-12.36.56,4.4-4.21,10.8-6S273.69,206.55,274.12,208.06Z"/><path class="cls-7" d="M302.57,210.46c.43,1.51-4.4,4.21-10.8,6s-11.92,2.08-12.35.57,4.4-4.22,10.79-6S302.14,209,302.57,210.46Z"/><path class="cls-7" d="M313.62,192.1c.43,1.51-4.4,4.21-10.79,6s-11.93,2.08-12.36.57,4.4-4.21,10.8-6S313.19,190.59,313.62,192.1Z"/><path class="cls-7" d="M346.24,193.37c.43,1.51-4.4,4.21-10.79,6s-11.93,2.08-12.36.57,4.4-4.21,10.79-6S345.81,191.86,346.24,193.37Z"/><path d="M274.12,208.06c-.43-1.51-6-1.26-12.35.57s-11.23,4.52-10.8,6a.9.9,0,0,0,.45.52c1.33-1.51,5.36-3.46,10.35-4.88,5.53-1.58,10.41-2,11.91-1.09A1.27,1.27,0,0,0,274.12,208.06Z"/><path d="M302.57,210.46c-.43-1.51-6-1.26-12.36.57s-11.22,4.52-10.79,6a.89.89,0,0,0,.44.51c1.34-1.51,5.37-3.46,10.35-4.88,5.53-1.58,10.42-2,11.91-1.09A1.3,1.3,0,0,0,302.57,210.46Z"/><path d="M313.62,192.1c-.43-1.51-6-1.26-12.35.56s-11.23,4.53-10.8,6a.93.93,0,0,0,.45.52c1.33-1.51,5.36-3.47,10.35-4.89,5.53-1.58,10.41-2,11.91-1.08A1.27,1.27,0,0,0,313.62,192.1Z"/><path d="M333.88,195.6c5.53-1.58,10.42-2,11.92-1.08.37-.43.54-.82.44-1.15-.43-1.51-6-1.26-12.36.56s-11.22,4.53-10.79,6a1,1,0,0,0,.44.52C324.87,199,328.9,197,333.88,195.6Z"/><path class="cls-7" d="M329.11,254.07c-1,6.86-6.56,11.73-12.42,10.87s-9.78-7.12-8.78-14,6.57-11.73,12.43-10.87S330.12,247.21,329.11,254.07Z"/><path class="cls-7" d="M337.14,282.78c-1,6.86-6.57,11.72-12.42,10.86s-9.79-7.11-8.78-14,6.57-11.73,12.42-10.87S338.15,275.92,337.14,282.78Z"/><path class="cls-7" d="M345.72,311.71c-1,6.86-6.57,11.73-12.43,10.87s-9.78-7.12-8.77-14,6.56-11.73,12.42-10.87S346.72,304.85,345.72,311.71Z"/><path class="cls-7" d="M374.41,230.94c-1,6.69-6.4,11.43-12.1,10.59s-9.53-6.93-8.55-13.61,6.4-11.43,12.1-10.59S375.39,224.26,374.41,230.94Z"/><path class="cls-7" d="M382.23,258.9c-1,6.69-6.4,11.43-12.1,10.59s-9.53-6.93-8.55-13.61,6.39-11.42,12.1-10.59S383.21,252.22,382.23,258.9Z"/><path class="cls-7" d="M390.58,287.09c-1,6.68-6.4,11.42-12.1,10.58s-9.53-6.93-8.55-13.61,6.4-11.42,12.1-10.59S391.56,280.4,390.58,287.09Z"/><path d="M319.31,240.67c5.85.86,9.78,7.11,8.78,14a13.36,13.36,0,0,1-5.81,9.39,13.06,13.06,0,0,0,6.83-10c1-6.86-2.92-13.12-8.77-14a9.64,9.64,0,0,0-6.62,1.49A9.42,9.42,0,0,1,319.31,240.67Z"/><path d="M327.33,269.38c5.86.85,9.79,7.11,8.78,14a13.32,13.32,0,0,1-5.8,9.39,13.1,13.1,0,0,0,6.83-10c1-6.86-2.92-13.12-8.78-14a9.71,9.71,0,0,0-6.62,1.48A9.5,9.5,0,0,1,327.33,269.38Z"/><path d="M336.94,297.73a9.65,9.65,0,0,0-6.62,1.49,9.43,9.43,0,0,1,5.59-.91c5.85.86,9.78,7.11,8.78,14a13.36,13.36,0,0,1-5.81,9.38,13.1,13.1,0,0,0,6.84-10C346.72,304.85,342.79,298.59,336.94,297.73Z"/><path d="M364.83,217.91c5.7.83,9.53,6.93,8.55,13.61a13,13,0,0,1-5.64,9.13,12.73,12.73,0,0,0,6.67-9.71c1-6.68-2.85-12.77-8.55-13.61a9.48,9.48,0,0,0-6.46,1.45A9.29,9.29,0,0,1,364.83,217.91Z"/><path d="M372.65,245.87c5.7.83,9.53,6.93,8.55,13.61a13,13,0,0,1-5.64,9.13,12.73,12.73,0,0,0,6.67-9.71c1-6.68-2.85-12.77-8.55-13.61a9.48,9.48,0,0,0-6.46,1.45A9.27,9.27,0,0,1,372.65,245.87Z"/><path d="M382,273.47a9.48,9.48,0,0,0-6.46,1.45,9.29,9.29,0,0,1,5.43-.87c5.7.83,9.53,6.93,8.55,13.61a13,13,0,0,1-5.64,9.13,12.73,12.73,0,0,0,6.67-9.7C391.56,280.4,387.73,274.31,382,273.47Z"/><path class="cls-7" d="M268.48,308.57c4.55,6.47,5.56,13.61,2.24,15.95s-9.71-1-14.27-7.47-5.56-13.6-2.24-15.94S263.92,302.11,268.48,308.57Z"/><path class="cls-7" d="M273,259.94c4.56,6.46,5.57,13.6,2.25,15.95s-9.71-1-14.27-7.47-5.57-13.6-2.25-16S268.43,253.47,273,259.94Z"/><path d="M258.71,317.05c-4.56-6.46-5.57-13.6-2.24-15.94a3.92,3.92,0,0,1,1.46-.64,4.8,4.8,0,0,0-3.72.64c-3.32,2.34-2.32,9.48,2.24,15.94,4,5.62,9.29,8.88,12.8,8.1C266,324.55,261.89,321.56,258.71,317.05Z"/><path d="M263.22,268.42c-4.56-6.46-5.56-13.6-2.24-16a4,4,0,0,1,1.47-.63,4.82,4.82,0,0,0-3.73.63c-3.32,2.35-2.31,9.49,2.25,16,3.95,5.61,9.29,8.87,12.8,8.1C270.47,275.92,266.4,272.93,263.22,268.42Z"/><path class="cls-8" d="M292.9,261.58s33.65,25.15,112,10.45l-12.59-61.22c-5.05-22.42-19-26-24-26.53l-47.74-2.19a61.93,61.93,0,0,0-20.83,3.15L292.9,188l-66.23,27c-4.68,2.6-12.6,10.08-7.44,29.87l19,66.83C257.9,306.72,286.92,293.94,292.9,261.58Z"/><path class="cls-9" d="M271.16,155.32h0l-4.59-40.14c-3.12-17.31-10.72-25.53-14.86-28.83l-2.8-1.88h0L184.32,41.06a23.2,23.2,0,0,0-25,1.38l-70.75,64.5C83,113.65,84,122.08,85,126.37l12.67,35.22c1.43,5.09,6,11,13.25,17.7L171.1,227.9l5.28,4.27h0s14.31,10.19,28.92-3.14h0l57.4-52.36A26.65,26.65,0,0,0,271.16,155.32Z"/><path class="cls-10" d="M242.5,88.86,181,47.53c-4.17-4.08-14-3.72-18.11.45l-61.37,56c-4.08,4.16-6.29,11.25-2.13,15.33l61,46c4.17,4.08,14.69,4.46,18.77.29L242.88,106C247,101.83,246.67,92.94,242.5,88.86Z"/><path class="cls-11" d="M266.43,160.54l-.14-1.06h0l-5.64-42.74c-1.65-10.13-7.95-5.62-9.51-4.32L187.77,171.2l-.72.67c-2.34,2.29-9.3,10.18-6,20l9.62,28.39c1.13,2.11,6.11,9.89,15.09,2.81l51.11-46.31C265.73,168.79,266.53,162.86,266.43,160.54Z"/><polygon class="cls-12" points="205.3 229.03 205.3 229.03 205.3 229.03 205.3 229.03"/><path class="cls-11" d="M173.37,218.22l-4.43-14.15c-6.08-18.71-15.64-29.4-21.5-34.53L94.15,129.4c-2.22-1.36-2.46-.05-2.17,1.51l11,30.61c1.43,5.1,6,11,13.25,17.7l52.31,42.29C170.42,222.51,174.48,224.13,173.37,218.22Z"/><path class="cls-3" d="M248.91,84.47l2.8,1.88A16.39,16.39,0,0,0,248.91,84.47Z"/><path class="cls-13" d="M225,99.89c-.05,6.09-6.2,11-13.74,10.92s-13.6-5.06-13.55-11.15,6.2-11,13.74-10.92S225,93.8,225,99.89Z"/><path class="cls-13" d="M184.57,106.71c0,6.09-6.2,11-13.74,10.92s-13.6-5.06-13.55-11.15,6.2-11,13.74-10.92S184.62,100.61,184.57,106.71Z"/><path class="cls-13" d="M186.28,74c-.05,6.09-6.2,11-13.74,10.92S158.94,79.85,159,73.76s6.2-11,13.74-10.92S186.33,67.89,186.28,74Z"/><path class="cls-13" d="M183.74,139.28c-.05,6.09-6.2,11-13.74,10.92s-13.6-5.06-13.55-11.15,6.2-11,13.74-10.92S183.79,133.19,183.74,139.28Z"/><path class="cls-13" d="M146.29,110.78c0,6.09-6.2,11-13.74,10.92S119,116.64,119,110.55s6.2-11,13.74-10.92S146.34,104.68,146.29,110.78Z"/><path class="cls-14" d="M212.07,90.28c5.6,0,10.39,2.83,12.46,6.75-1.52-4.72-6.8-8.24-13.11-8.29-7.54-.06-13.69,4.83-13.74,10.92a9.17,9.17,0,0,0,1.09,4.4,8.82,8.82,0,0,1-.44-2.86C198.38,95.11,204.53,90.22,212.07,90.28Z"/><path class="cls-14" d="M171.67,97.1c5.6.05,10.39,2.82,12.46,6.75-1.52-4.73-6.8-8.24-13.11-8.29-7.54-.07-13.69,4.82-13.74,10.92a9.28,9.28,0,0,0,1.09,4.4,8.86,8.86,0,0,1-.44-2.86C158,101.92,164.13,97,171.67,97.1Z"/><path class="cls-14" d="M173.38,64.38c5.6.05,10.39,2.82,12.46,6.75-1.52-4.72-6.8-8.24-13.11-8.29C165.19,62.77,159,67.66,159,73.76a9.28,9.28,0,0,0,1.09,4.4,8.82,8.82,0,0,1-.44-2.86C159.69,69.21,165.84,64.32,173.38,64.38Z"/><path class="cls-14" d="M170.84,129.67c5.6.05,10.39,2.83,12.46,6.75-1.52-4.72-6.8-8.24-13.11-8.29-7.54-.06-13.69,4.83-13.74,10.92a9.17,9.17,0,0,0,1.09,4.4,8.82,8.82,0,0,1-.44-2.86C157.15,134.5,163.3,129.61,170.84,129.67Z"/><path class="cls-14" d="M133.39,101.17c5.6,0,10.4,2.82,12.46,6.75-1.51-4.72-6.8-8.24-13.11-8.29-7.54-.07-13.69,4.82-13.74,10.92a9.28,9.28,0,0,0,1.09,4.4,9.1,9.1,0,0,1-.44-2.86C119.7,106,125.85,101.11,133.39,101.17Z"/><path class="cls-15" d="M152.9,182.79c-1.25,1.2-5.43-1.13-9.34-5.2s-6.08-8.33-4.83-9.53,5.43,1.13,9.34,5.2S154.14,181.59,152.9,182.79Z"/><path class="cls-15" d="M137.93,181.19c-1.25,1.2-5.43-1.13-9.34-5.2s-6.07-8.33-4.83-9.53,5.43,1.13,9.34,5.19S139.17,180,137.93,181.19Z"/><path class="cls-15" d="M124.16,180.75c-1.25,1.2-5.43-1.12-9.34-5.19s-6.07-8.34-4.83-9.53,5.43,1.12,9.34,5.19S125.4,179.56,124.16,180.75Z"/><path class="cls-16" d="M145.41,177.59c-3.91-4.06-6.07-8.33-4.83-9.53a1,1,0,0,1,.16-.12c-.9-.28-1.61-.27-2,.12-1.25,1.2.91,5.47,4.83,9.53,3.76,3.92,7.77,6.22,9.18,5.32C150.84,182.31,148.06,180.35,145.41,177.59Z"/><path class="cls-16" d="M130.44,176c-3.91-4.07-6.07-8.33-4.83-9.53a.61.61,0,0,1,.16-.12c-.9-.29-1.61-.27-2,.12-1.24,1.2.92,5.46,4.83,9.53,3.76,3.91,7.77,6.21,9.18,5.32C135.87,180.71,133.1,178.75,130.44,176Z"/><path class="cls-16" d="M116.67,175.56c-3.91-4.07-6.07-8.34-4.83-9.53a.61.61,0,0,1,.16-.12c-.9-.29-1.61-.27-2,.12-1.24,1.19.92,5.46,4.83,9.53,3.76,3.91,7.77,6.21,9.18,5.31C122.1,180.27,119.32,178.32,116.67,175.56Z"/><path class="cls-15" d="M231,174.81c-5.24,5.85-11.53,8.76-14.05,6.5s-.32-8.83,4.91-14.68,11.53-8.75,14.05-6.49S236.19,169,231,174.81Z"/><path class="cls-16" d="M235.87,160.14a2.72,2.72,0,0,0-.88-.53c1.56,2.71-.69,8.65-5.47,14s-10.25,8.13-13.16,7a2.83,2.83,0,0,0,.55.69c2.52,2.26,8.81-.65,14.05-6.5S238.39,162.4,235.87,160.14Z"/></svg>