<svg xmlns="http://www.w3.org/2000/svg" xmlns:xlink="http://www.w3.org/1999/xlink" viewBox="0 0 512 400"><defs><style>.cls-1{fill:none;}.cls-2{isolation:isolate;}.cls-3,.cls-5,.cls-8{opacity:0.3;}.cls-4{fill:#79b2cc;}.cls-5{fill:#4b859b;}.cls-5,.cls-6,.cls-8,.cls-9{mix-blend-mode:multiply;}.cls-6{fill:#2f4f5b;opacity:0.66;}.cls-7{fill:#eab5b5;}.cls-8{fill:#c96b6b;}.cls-9{fill:#8c4949;opacity:0.5;}.cls-10{fill:#f7dfdf;}.cls-11{fill:#c3e5f4;}.cls-12{clip-path:url(#clip-path);}.cls-13{fill:#fff;}</style><clipPath id="clip-path"><rect class="cls-1" x="593" y="-45" width="478" height="590" rx="58.11" transform="translate(1082 -582) rotate(90)"/></clipPath></defs><g class="cls-2"><g id="Layer_1" data-name="Layer 1"><ellipse class="cls-3" cx="271.44" cy="326.36" rx="229" ry="43.5"/><path class="cls-4" d="M105.25,297.33c-3.71,1.41-5.68,5.21-7.8,8.27-1.33,1.94-6.84,6.27-7.81,1.77-.62-2.85,1.35-6.18,2.54-8.64,2-4.13,3.26-7.9,2-12.45-1.4-5-4.79-9.55-7.63-13.81C83,267.15,80,261.55,76.86,256c-6.33-11.45-12-23.37-17.24-35.37-10.35-23.84-19.69-49-24.12-74.69-1.49-8.67-3-17.47-5.19-26-1.1-4.36-2.69-10.57-6.55-13.7.11-.23.11-.47-.14-.59a10.64,10.64,0,0,0-2.1-.73,9.29,9.29,0,0,0-.93-.33.46.46,0,0,0-.34.06c-2.72-.49-5.57-.65-7.73-2.5-3.36-2.87,3-8.12,5-9.59,9.94-7.26,24.66-6,36.16-8.88,12.2-3.07,23.73-9.14,35.37-13.8A364.76,364.76,0,0,1,128.8,56.71c54.33-14.76,110.84-18.38,166.9-19,12.74-.14,64.13-.29,77-1.88.64-.07,8.59-4,9.87-4.72,2.07-1.79,4.07-1.16,6,1.9-.1,1.18-1.14,2.49-1.69,3.48-3.1,5.63-1.56,11.76.8,17.37,3.05,7.28,6.92,13.55,8.79,21.32,2,8.38,6.94,19.76,8.62,28.22-.8-.15-4.15.21-5,.08-28.53-4.83-58.18-5.83-87-5.23-28.65.59-57.28,2.19-85.87,4.15-15.6,1.07-31.2,2.21-46.8,3.52-14.33,1.21-28.81,2.16-43,4.47a111.3,111.3,0,0,0-18.57,5.19c-6.74,2.36-13,5.33-19.86,7.39a66.73,66.73,0,0,1-14.6,2.45c-1.09.08-2.13-2.68-3-2.2-2.56.46-1.14,1.72-1.14,4.47,0,2.91,2.71,6,4.36,8.21a67.07,67.07,0,0,0,7.7,8.28c10.29,9.59,7.56,23.82,8.93,36.57,1.53,14.22,2.16,28.56,3.59,42.8,2.49,24.55,7.4,48.38,12.49,72.39C114.41,295.84,107.93,296.31,105.25,297.33Z"/><path class="cls-5" d="M396.46,75.2c-1.87-7.77-5.74-14-8.79-21.32-2.36-5.61-3.9-11.74-.8-17.37.55-1,1.59-2.3,1.69-3.48-1.5-2.35-3-3.25-4.59-2.74a29.62,29.62,0,0,1-2.45,3.54C378,38.22,373,42.45,371.57,48.1c-1.21,4.9,4.11,9,6.75,12.84,7.43,10.82,10.92,23.62-5.56,26.75-11.9,2.27-25-.72-36.84-2.16a306.51,306.51,0,0,0-38.8-1.81A942.68,942.68,0,0,0,129.34,99.83c-12.66,2.39-25.67,4.48-37.77,9.06-10.29,3.9-18.45,11-28.32,15.33-4.52,2-9.21,2.29-12.08-2.48-4.1-6.81-6.91-12.17-13.44-17C22.06,93,48.85,86.51,57.4,86.3c13.78-.35,25.7-10,37-17.19C96.06,68,97.75,67,99.44,65.9q-5.22,1.88-10.36,3.92c-11.64,4.66-23.17,10.73-35.37,13.8-11.5,2.89-26.22,1.62-36.16,8.88-2,1.47-8.39,6.72-5,9.59,2.16,1.85,5,2,7.73,2.5a.46.46,0,0,1,.34-.06,9.29,9.29,0,0,1,.93.33,10.64,10.64,0,0,1,2.1.73c.25.12.25.36.14.59,3.86,3.13,5.45,9.34,6.55,13.7,2.14,8.54,3.7,17.34,5.19,26,4.43,25.65,13.77,50.85,24.12,74.69,5.21,12,10.91,23.92,17.24,35.37,3.09,5.6,6.14,11.2,9.68,16.52,2.84,4.26,6.23,8.81,7.63,13.81,1.27,4.55,0,8.32-2,12.45-1.19,2.46-3.16,5.79-2.54,8.64,1,4.5,6.48.17,7.81-1.77,2.12-3.06,4.09-6.86,7.8-8.27,2.68-1,11.71-1.49,14.58-1.37-5.09-24-10-47.84-12.48-72.39-1.44-14.24-2.07-28.58-3.6-42.8-1.37-12.75.34-27-10-36.57a67.07,67.07,0,0,1-7.7-8.28c-1.65-2.16-4.36-5.3-4.36-8.21,0-2.75,1.55-3.21,2.64-3.29,5-.35,9.79,0,14.6-1.43,6.86-2.06,13.12-5,19.86-7.39a109.78,109.78,0,0,1,18.57-4.68c14.21-2.31,28.69-3.26,43-4.47,15.6-1.31,31.2-2.45,46.8-3.52,28.59-2,57.22-4.07,85.87-4.66,28.84-.6,57.47-.11,86,4.72.81.13,5.18.28,6,.43C403.4,95,398.48,83.58,396.46,75.2Z"/><path class="cls-6" d="M105.8,180.77c-1.37-12.75,1.35-27-8.94-36.57-2.78-2.59-10.72-19.38-8.91-20-3-.5-14.14-1.37-17.14-1.37-10.69,0,6,27.23,8.15,32.18a165.52,165.52,0,0,1,11.25,39.15c2,12.73,4,26.73,0,39.28a4.57,4.57,0,0,1-6.62,2.7C73.08,230.57,67.35,218.53,63.15,208c-5.32-13.36-8.94-27.29-12.3-41.25s-9.31-28.86-11.74-43c-1.45-8.46-1.46-17.31-10.29-21.44-5.35-2.5-17.16,1.29-15.45-5.91-1.64,2-2.65,4.2-.85,5.74,2.16,1.85,5,2,7.73,2.5a.46.46,0,0,1,.34-.06,9.29,9.29,0,0,1,.93.33,10.64,10.64,0,0,1,2.1.73c.25.12.25.36.14.59,3.86,3.13,5.45,9.34,6.55,13.7,2.14,8.54,3.7,17.34,5.19,26,4.43,25.65,13.77,50.85,24.12,74.69,5.21,12,10.91,23.92,17.24,35.37,3.09,5.6,6.14,11.2,9.68,16.52,2.84,4.26,6.23,8.81,7.63,13.81,1.27,4.55,0,8.32-2,12.45-1.19,2.46-3.16,5.79-2.54,8.64,1,4.5,6.48.17,7.81-1.77,2.12-3.06,4.09-6.86,7.8-8.27,2.68-1,13.75-1.49,16.62-1.37-5.09-24-10-47.84-12.48-72.39C108,209.33,107.32,195,105.8,180.77Z"/><path class="cls-7" d="M487.36,331.4c-1.38,3.35-7.42-1.33-10.18-3.6a73.4,73.4,0,0,0-19.41-3.51c-13.77-.82-27.62.49-41.25,2.36-28.3,3.87-56.25,9.69-84.68,12.75-28.85,3.11-58.21,2.14-87.19,2.46-28.25.31-56.09-1.95-84.1-5.33a118.39,118.39,0,0,0-24-.82.64.64,0,0,1,0-.07c-2.55.35-5.09.83-7.6,1.37a31.64,31.64,0,0,0-5.88,2.1q2.7-.47,5.42-.73c-3,1.71-5.93,3.4-9,4.87-2.77,1.32-5.93,2.65-9.06,2.29-5.08-.6-2.78-8.93-1.72-11.61,1.88-4.72,5.26-8.73,7.36-13.36a27.62,27.62,0,0,0,2.19-13.84c-1.1-13.64-4-27.51-6.7-40.92-5.51-28-6.63-56.48-10.63-84.67-1.65-11.6-1.23-24.66-6.71-35.24-3.57-6.91-9.26-11.84-13.42-18.27.24-.24.35-.61,0-.66,0-.55,0-1.1.08-1.66a6.68,6.68,0,0,1,2.35-.78,4.87,4.87,0,0,1,.54,0c.9,0,1.81,0,2.72,0a31.17,31.17,0,0,0,4.83-.18,61.43,61.43,0,0,0,17.09-4.87c5.88-2.44,11.58-4.92,17.75-6.58a142.69,142.69,0,0,1,20.2-3.6c28.28-3.4,56.84-5,85.25-7,29-2,58.17-3.45,87.29-3.86,27.85-.39,56.84-.21,84.28,5.21a11.32,11.32,0,0,1,4.26.6.34.34,0,0,1,.31.35c20.09,4.49,40.67,12.55,61.34,7.06a32,32,0,0,1,8.54-1.57c5.42.09.15,7.59-1.2,9.45A40,40,0,0,0,470.42,130a28.34,28.34,0,0,1-1.27-5.85c-.85,4.69.21,9.55,1.58,14.14a67.67,67.67,0,0,1,3,14.51c.19,2.67.26,5.33.28,8a197.9,197.9,0,0,1,1.23,21.36c.14,20.56-.87,41.13-1.49,61.68-.54,17.75-3.36,35.94-.44,53.59,1.43,8.59,5.2,16.16,9.44,23.67q1.39,2.47,2.56,5.07c0,.1.06.19.1.29C486.48,327.84,488,329.92,487.36,331.4Z"/><path class="cls-8" d="M485.41,326.47c0-.1-.06-.19-.1-.29q-1.17-2.6-2.56-5.07c-4.24-7.51-8-15.08-9.44-23.67-2.92-17.65-.1-35.84.44-53.59.62-20.55,1.63-41.12,1.49-61.68A197.9,197.9,0,0,0,474,160.81c0-2.67-.09-5.33-.28-8a67.67,67.67,0,0,0-3-14.51c-1.37-4.59-2.43-9.45-1.58-14.14a28.34,28.34,0,0,0,1.27,5.85,40,40,0,0,1,5.93-10.41c1.35-1.86,6.62-9.36,1.2-9.45a32,32,0,0,0-8.54,1.57c-20.67,5.49-41.25-2.57-61.34-7.06a.34.34,0,0,0-.31-.35,11.32,11.32,0,0,0-4.26-.6c-27.44-5.42-56.43-5.6-84.28-5.21-29.12.41-58.24,1.88-87.29,3.86-28.41,1.94-57,3.59-85.25,7a142.69,142.69,0,0,0-20.2,3.6c-6.17,1.66-11.87,4.14-17.75,6.58a61.43,61.43,0,0,1-17.09,4.87,31.17,31.17,0,0,1-4.83.18c-.91,0-1.82,0-2.72,0a4.87,4.87,0,0,0-.54,0,6.68,6.68,0,0,0-2.35.78c0,.56,0,1.11-.08,1.66.38,0,.27.42,0,.66,4.16,6.43,9.85,11.36,13.42,18.27,5.48,10.58,5.06,23.64,6.71,35.24,4,28.19,5.12,56.68,10.63,84.67,2.65,13.41,5.6,27.28,6.7,40.92A27.62,27.62,0,0,1,116,320.57c-2.1,4.63-5.48,8.64-7.36,13.36-1.06,2.68-3.36,11,1.72,11.61,3.13.36,6.29-1,9.06-2.29,3.1-1.47,6.07-3.16,9-4.87q-2.72.27-5.42.73a31.64,31.64,0,0,1,5.88-2.1c2.51-.54,5-1,7.6-1.37a.64.64,0,0,0,0,.07,118.39,118.39,0,0,1,24,.82c28,3.38,55.85,5.64,84.1,5.33,29-.32,58.34.65,87.19-2.46,28.43-3.06,56.38-8.88,84.68-12.75,13.63-1.87,27.48-3.18,41.25-2.36a73.4,73.4,0,0,1,19.41,3.51c2.76,2.27,8.8,6.95,10.18,3.6C488,329.92,486.48,327.84,485.41,326.47ZM461.85,222.12c-3.8,17-15.79,37.5-6.7,54.67,5.14,9.72,10.88,23.34-4.67,26.19-8.83,1.62-18.16-2-26.8-3.24-13.6-2-27.84,3.11-41,6.15-30.23,7-60.78,13.24-91.78,15.5a281.28,281.28,0,0,1-49.76-.45c-11.66-1.22-139.91,17.46-114.56-109.63,2.67-13.39,2.44-27.21,1.35-40.86-1.22-15.28-8.8-21.45-15.7-34-9.28-16.92,70.79-25.1,81.4-26.25,18.91-2.07,37.86-3.47,56.8-5.25,22.79-2.14,45.62-4.68,68.54-4.48,33.75.29,70.93,3.46,103.28,13.37,8.4,2.57,16.85,4.51,25.75,3.77,3.46-.29,10.62-3.43,13.74-1.84,7.22,3.66.86,6.6-1.26,9.94-9.41,14.78-1.62,31.08,2.22,46.24C467,188.53,465.54,205.59,461.85,222.12Z"/><path class="cls-9" d="M487.24,330.48c0-.1-3.38-6.37-3.42-6.46-.77-1.74-1.67-3.81-2.6-5.46a79,79,0,0,1-9.17-25c-.67-4.08-.26-13.46-.43-17.59-3,9.87-6.86,19.73-2.57,26.6,2.78,4.44,5.6,9.84-4.56,9.65-15.1-.26-30.34-4.82-45.46-3.43-15.95,1.48-31.74,4.09-47.48,7.1-29.67,5.66-59.22,11.23-89.32,14.19-34.35,3.39-72.52,2-106.69-3.15-7.88-1.18-37.86-10.64-51.61-33.72-8.87-14.89-7.31-38.32-10.27-55-4.2-23.66-9.39-42.55-4.8-66.3,1.51-7.79,4.2-17.92-.47-25.18-4.56-7.11-11.46-10-18.87-13-2.36-1-2.6-2.21-5.26-3.72,3.78,4.95,7.13,8.8,10.08,14.49,5.47,10.58,5.06,24.16,6.7,35.75,4,28.2,4.61,56.68,10.13,84.68,2.64,13.41,5.09,27.27,6.18,40.91.38,4.8.83,9.93-1.17,14.35-2.1,4.63-5.48,8.64-7.36,13.36-1.06,2.68-3.36,11,1.73,11.61,3.13.37,6.28-1,9-2.28,3.1-1.48,6.08-3.16,9-4.88-1.81.18-3.62.43-5.42.73a32.65,32.65,0,0,1,5.88-2.1c2.52-.54,5-1,7.6-1.37,0,0,0,.05,0,.07a103.46,103.46,0,0,1,22.51.31c28,3.38,55.85,5.64,84.1,5.33,29-.32,58.35.66,87.19-2.45,28.43-3.06,56.39-8.88,84.68-12.76,13.63-1.86,27.48-3.18,41.25-2.35a66.22,66.22,0,0,1,18.39,3.5,17.4,17.4,0,0,0,9.7,4.14C485.94,331.2,488.52,332.19,487.24,330.48Z"/><path class="cls-10" d="M424.6,125.39c-8.89-5.15-20.78-7.09-30.75-9.35a242.86,242.86,0,0,0-33-5.08c-25.37-2.15-50.95-1-76.33.34-47,2.45-97.35,1.12-141.58,19.31-1.49.62-1,2.93.69,2.48,44.36-11.92,92-10.52,137.58-12.59,24.34-1.12,48.69-1.87,73-.28,11.83.78,23.52,2.58,35.27,4.06,11.12,1.39,23.12,4.22,34.27,4A1.54,1.54,0,0,0,424.6,125.39Z"/><path class="cls-10" d="M444.08,143.72a.54.54,0,0,0-1,.29c8.59,35.49,1.51,73.28-5.09,108.43-.26,1.42,1.83,2.56,2.5,1.05a155.38,155.38,0,0,0,13.62-53.63C455.38,180.23,450.15,162.12,444.08,143.72Z"/><path class="cls-11" d="M317.67,45.33c-42-6.23-86-3.69-127.82,2.53-20.66,3.07-41.08,7.74-60.66,15.06s-36,17.15-52.34,29.9c-.57.44.16,1.3.75,1C149.7,52.62,237,51.55,317.47,46.85,318.29,46.81,318.58,45.46,317.67,45.33Z"/><g class="cls-12"><path class="cls-13" d="M463.46,389.14c-.07-2.05,1.15-3.76,2.71-3.81s2.89,1.58,3,3.63-1.15,3.77-2.72,3.82S463.52,391.2,463.46,389.14Z"/><path class="cls-13" d="M475.16,104.15a1.31,1.31,0,0,1,1.06-1.48c.61,0,1.12.61,1.15,1.41a1.15,1.15,0,1,1-2.21.07Z"/><ellipse class="cls-13" cx="501.77" cy="82.82" rx="1.1" ry="1.45" transform="translate(-2.37 15.94) rotate(-1.82)"/><path class="cls-13" d="M442.58,152.82a1.14,1.14,0,1,1,1.15,1.41A1.31,1.31,0,0,1,442.58,152.82Z"/><polygon class="cls-13" points="459.59 267.34 458.28 258.91 451.79 257.75 458.19 256.17 458.97 247.67 460.28 256.1 466.78 257.27 460.37 258.85 459.59 267.34"/><polygon class="cls-13" points="489.12 138.72 488.52 134.84 485.52 134.3 488.48 133.58 488.83 129.66 489.44 133.55 492.43 134.08 489.48 134.81 489.12 138.72"/><polygon class="cls-13" points="515.22 357.79 514.61 353.9 511.62 353.37 514.57 352.64 514.93 348.72 515.53 352.61 518.52 353.15 515.57 353.87 515.22 357.79"/><polygon class="cls-13" points="451.07 385.81 450.46 381.93 447.47 381.39 450.43 380.66 450.78 376.75 451.39 380.63 454.38 381.17 451.43 381.9 451.07 385.81"/><path class="cls-13" d="M402.83,193c.47-1.71,1.92-2.8,3.22-2.44s2,2,1.5,3.76-1.92,2.8-3.23,2.44S402.35,194.68,402.83,193Z"/><path class="cls-13" d="M475.31,163.82a1,1,0,1,1,.58,1.46A1.14,1.14,0,0,1,475.31,163.82Z"/><ellipse class="cls-13" cx="502.02" cy="106.17" rx="1.25" ry="0.95" transform="translate(265.06 561.3) rotate(-74.44)"/><path class="cls-13" d="M411.51,266.43a1,1,0,1,1,1.84.51c-.19.67-.75,1.1-1.26.95A1.12,1.12,0,0,1,411.51,266.43Z"/><polygon class="cls-13" points="499.34 227.99 499.84 224.63 497.52 223.41 500.14 223.57 501.44 220.44 500.94 223.79 503.27 225.01 500.65 224.85 499.34 227.99"/><polygon class="cls-13" points="453.61 180.47 454.11 177.11 451.78 175.89 454.4 176.06 455.71 172.92 455.2 176.28 457.53 177.5 454.91 177.33 453.61 180.47"/><polygon class="cls-13" points="393.47 187.03 393.98 183.66 391.65 182.45 394.27 182.61 395.57 179.48 395.07 182.84 397.4 184.05 394.78 183.89 393.47 187.03"/></g></g></g></svg>