<svg xmlns="http://www.w3.org/2000/svg" viewBox="0 0 512 400"><defs><style>.cls-1{isolation:isolate;}.cls-11,.cls-2,.cls-7{opacity:0.3;}.cls-3{fill:#b9a68f;}.cls-4,.cls-7{fill:#e6c57b;}.cls-18,.cls-4,.cls-5{opacity:0.6;}.cls-12,.cls-4,.cls-9{mix-blend-mode:screen;}.cls-5{fill:#ae8656;}.cls-6{fill:#e2bd76;}.cls-10,.cls-6{opacity:0.5;}.cls-28,.cls-8,.cls-9{opacity:0.7;}.cls-10,.cls-24,.cls-8{mix-blend-mode:multiply;}.cls-9{fill:#d6c29a;}.cls-12{fill:#e0a282;}.cls-13{fill:#9c5d33;}.cls-14{fill:#d2b89b;}.cls-15{opacity:0.4;}.cls-16{fill:#978071;}.cls-17{fill:#886b5f;}.cls-19{fill:#826b5f;}.cls-20{fill:#f4dfc7;}.cls-21{fill:#52463b;}.cls-22{fill:#d3b498;}.cls-23{fill:#968070;}.cls-24{opacity:0.2;}.cls-25{opacity:0.8;}.cls-26{fill:#8e7567;}.cls-27{fill:#786451;}.cls-29{fill:#806b5e;}.cls-30{fill:#765c4a;}</style></defs><g class="cls-1"><g id="Layer_1" data-name="Layer 1"><path class="cls-2" d="M423.13,245.41a6.15,6.15,0,0,0,.6-1.29c0-.1.07-.19.1-.29s.14-.5.2-.77c0-.12.06-.25.08-.38.06-.28.12-.59.17-.91,0-.1,0-.21.05-.31.27-1.81.47-4.1.8-7.06,0-.21.05-.42.08-.64.07-.62.15-1.29.24-2,0-.28.07-.56.11-.85.13-.95.27-1.94.44-3,.11-.71.22-1.45.33-2.21l.09-.67c.08-.59.16-1.2.24-1.82,0-.21.06-.41.08-.62.1-.8.2-1.63.3-2.47l.06-.56c.07-.69.15-1.39.22-2.11,0-.26.06-.53.08-.8.08-.77.16-1.56.23-2.35,0-.13,0-.25,0-.38.09-.93.17-1.87.25-2.83,0-.21,0-.43.05-.65.07-.79.13-1.58.19-2.37,0-.22,0-.43,0-.64q.23-3,.4-6c0-.19,0-.38,0-.57l.15-2.72c0-.09,0-.18,0-.26.05-1,.1-2,.14-3.05a2.09,2.09,0,0,0,0-.25c0-.9.08-1.78.11-2.66,0-.17,0-.35,0-.52.07-1.9.12-3.75.15-5.53,0-.18,0-.35,0-.53,0-.72,0-1.43,0-2.12,0-.18,0-.35,0-.53V180.3h0c0-6.09-.36-10.59-1.05-12a4.89,4.89,0,0,0-.27-.46l-.21-.3c-.12-.18-.26-.37-.41-.57s-.34-.44-.53-.67-.38-.47-.6-.72l-.71-.81-.79-.87-.86-.92-1-1-1-1-1.11-1.12-1.15-1.11-1.24-1.21-1.27-1.2-1.36-1.28-1.36-1.26c-.48-.44-1-.89-1.47-1.34s-1-.88-1.45-1.32L410,149.76l-1.54-1.36-1.59-1.4-1.62-1.4-1.63-1.4-1.68-1.42-1.63-1.37L398.5,140c-.54-.43-1.07-.88-1.6-1.31s-1.22-1-1.83-1.47l-1.54-1.24-2-1.58-1.32-1c-1.11-.85-2.21-1.69-3.29-2.49l-1.62-1.22-.55-.42-1.11-.85-.66-.52c-.35-.26-.69-.53-1-.81l-.71-.55-1-.83-.65-.51-1.25-1-.4-.31c-15.74-12.54-34.48-28.36-43.1-28.38h-.17a5.3,5.3,0,0,0-1.22.14c-5.13,1.28-23.4,20.51-32.38,28.85-1.12,1-2.3,2.1-3.5,3.17-3.87,3.43-8,7-11.85,11h0c-.5.52-1,1-1.48,1.59-.07-.55-.15-1.1-.21-1.65,0-.1,0-.22,0-.36s0-.18,0-.28v-.17c0-.16,0-.34-.05-.53v0c-.06-.66-.14-1.49-.23-2.44v-.19c0-.23-.05-.46-.07-.71s0-.24,0-.36l-.06-.61c0-.14,0-.29,0-.44s-.05-.42-.07-.64,0-.28,0-.42-.05-.46-.08-.7,0-.31-.05-.47-.05-.42-.07-.63,0-.38-.07-.57,0-.4-.07-.6,0-.4-.07-.6-.05-.38-.07-.57l-.09-.68-.06-.49c0-.25-.07-.5-.11-.75s0-.28-.05-.42-.08-.56-.13-.84l0-.13c-.23-1.57-.49-3.13-.79-4.62h0l-.21-1,0-.12-.21-.93c0-.06,0-.12,0-.18-.07-.3-.14-.59-.22-.87,0-.06,0-.12,0-.18-.08-.29-.15-.56-.23-.83,0-.06,0-.12,0-.18-.08-.26-.15-.51-.23-.76l-.06-.18c-.08-.24-.16-.48-.25-.71a.88.88,0,0,1-.05-.15c-.09-.23-.18-.44-.27-.65a.5.5,0,0,0-.05-.13c-.09-.21-.18-.41-.28-.6,0,0,0-.07-.05-.1-.1-.19-.2-.37-.3-.53s0-.05,0-.08-.21-.32-.32-.45l0-.05a3.16,3.16,0,0,0-.34-.38h0a2,2,0,0,0-.76-.48,1.47,1.47,0,0,0-.41-.07c-1.66-2.69-63.91-19.51-79.68-23-9.51-2.12-19-4.52-28.62-6-7.86-1.17-15.86-2.58-23,1.58h0c-.23.13-.46.25-.69.4s-.5.33-.81.55l-.36.25-.68.5-.5.37-.74.56-.62.47-.83.65-.71.56-.88.69-.85.67-.92.74-.94.76-1,.81-1,.81-1,.83-1.12.92-.89.74c-1.76,1.45-3.62,3-5.54,4.61l-.33.27-1.9,1.61-.54.45-1.91,1.62-.57.48-1.91,1.63-.61.53-2,1.67-.54.47-2.08,1.79-.33.28-2.25,2-.06.06c-4.93,4.28-9.76,8.58-14.09,12.53l-.09.09-2,1.8-.24.22-1.8,1.67-.27.26-1.68,1.59-.25.23-1.59,1.53-.17.17c-2.47,2.4-4.5,4.47-5.93,6.09-.22.24-.42.48-.61.71s-.2.24-.3.36l-.48.61-.2.28c-.19.27-.35.51-.47.72-1,1.92,2.91,38.81,7.83,70h0c.09.62.19,1.23.29,1.85l.06.38c.09.56.18,1.12.28,1.68.05.36.11.72.17,1.08s.16.94.23,1.41q.19,1.16.39,2.28l.18,1.05.27,1.57.18,1c.1.58.2,1.16.31,1.73,0,.25.09.51.13.76q.21,1.16.42,2.28c.06.29.11.59.17.88.09.51.19,1,.29,1.51,0,.3.11.6.17.89.11.59.23,1.18.35,1.76.06.33.13.67.2,1,.1.51.21,1,.31,1.51.06.3.13.59.19.89l.27,1.27.18.8c.13.61.27,1.22.41,1.81l.15.64c.1.42.19.83.29,1.24l.18.7.3,1.19c0,.18.09.36.13.53.14.52.28,1,.42,1.51,0,.17.09.34.14.5.1.36.2.7.3,1,0,.15.1.31.14.45.14.46.29.9.42,1.31a1.16,1.16,0,0,0,1,.83q.39.54.84,1.05c.25.27.52.54.8.8l.14.14a28.94,28.94,0,0,0,7.59,4.55c8,3.63,16.93,5.46,25.55,7.08,6.87,1.3,13.79,2.27,20.72,3.15a32.81,32.81,0,0,0-.42,4.93c0,1,.07,2,.15,2.94,0,.22.05.45.07.67.1.9.23,1.78.39,2.62a1.74,1.74,0,0,1,.05.22c.16.78.35,1.53.56,2.27l.18.62c.23.76.48,1.51.75,2.26l.19.48c.23.62.48,1.24.74,1.85l.33.8.09.21c.23.56.48,1.12.73,1.68.39.89.8,1.81,1.21,2.76.09.19.17.4.26.6.4.92.8,1.86,1.2,2.87.29.7.58,1.42.87,2.14.14.33.28.66.41,1s.33.79.5,1.19l.54,1.26.39.92c.21.47.41.94.62,1.4l.34.75c.23.51.47,1,.72,1.54.07.16.15.31.22.47a65.75,65.75,0,0,0,5.4,9.4l.1.14c.4.57.81,1.12,1.23,1.66a1.34,1.34,0,0,1,.11.14,29.55,29.55,0,0,0,10.2,8.55l.15.08a23.76,23.76,0,0,0,2.65,1.09c7.17,5.53,19.6,5.19,27.8,5.55,1.89.08,3.77.15,5.66.21l1.39.05,4.69.13,1.13,0c4,.08,8,.1,12,0h.06c2,0,4.06-.1,6.09-.18l1.26-.05c2.1-.1,4.2-.22,6.29-.38l2.72-.2,2.31-.18h.18c.94-.07,1.89-.16,2.85-.26l.49-.06c1-.1,1.94-.22,2.92-.36l.28,0c.92-.14,1.83-.29,2.74-.46l.4-.08c.94-.19,1.86-.4,2.77-.64l.55-.15c.92-.25,1.83-.53,2.71-.86l.19-.07c.83-.31,1.63-.66,2.41-1l.44-.21a22,22,0,0,0,2.26-1.34l.42-.3c.35-.26.7-.52,1-.8,1.07.22,2.15.38,3.24.5,0-.39.09-.78.13-1.17.63.06,1.26.11,1.88.14h.1c.84,0,1.67.07,2.5.08,7.28.11,14.36-.08,20.86-3.66,10.8-6,13.65-15.85,21.35-24.89,2.28-2.67,5.07-5.91,7.51-9.36l0,0h0c.28-.39.55-.78.82-1.18a.71.71,0,0,1,.1-.14l.76-1.19c0-.06.07-.11.1-.16.23-.36.44-.72.65-1.09l.17-.27c.18-.33.36-.65.53-1l.21-.39c.15-.29.28-.57.42-.85s.17-.35.25-.52.22-.53.33-.8.17-.38.24-.56.2-.56.29-.84l.19-.52q.21-.68.36-1.35c1.78-7.77,1-15.69.11-23.52,23.2-1.39,61.83-3.26,71.88-3.26l2.09,0,.83,0,1,0,.92-.06.58-.06a12.22,12.22,0,0,0,2.62-.52c.12-.05.25-.08.36-.13a5,5,0,0,0,.52-.26l.32-.2a4.46,4.46,0,0,0,.43-.33c.08-.07.15-.16.23-.24s.25-.27.36-.42A.33.33,0,0,1,423.13,245.41Z"/><path class="cls-3" d="M335.74,84.53c9.33-2.33,35.9,22.12,53.53,35.26s39.1,33,41.35,37.5.64,41.35-2.25,59.62.65,19.87-13.14,19.87-81.41,3.53-89.11,4.49S305,236.46,294.07,232s-27.56-18.59-27.89-23.07,5.78-52.57,10.9-65.39,17.31-21.8,26.28-30.13S330.61,85.81,335.74,84.53Z"/><path class="cls-4" d="M324.2,118.51a10.9,10.9,0,0,1,2.85-2,220.84,220.84,0,0,1,11.44-32,6.83,6.83,0,0,0-2.75,0c-5.13,1.28-23.4,20.51-32.38,28.85-4.73,4.4-10.35,9-15.35,14.19,6.93-1.65,13.87-2.44,20.8-5.22C314.58,118.51,322.28,120.43,324.2,118.51Z"/><path class="cls-5" d="M324.2,118.51c-1.92,1.92-9.62,0-15.39,3.84-6.93,2.78-13.87,3.57-20.8,5.22-4.5,4.69-8.5,9.88-10.93,15.94-5.12,12.82-11.22,60.9-10.9,65.39.2,2.73,6.47,9,13.81,14.56,8.84-2,18-3.22,25.41-7.59.11-.15.19-.31.3-.46,3.26-4.48,3.72-10.24,5-14.2,5.2-28.65,8.66-57.28,16.31-84.73A10.9,10.9,0,0,0,324.2,118.51Z"/><path class="cls-6" d="M387.66,185.82c-1.92-3.85-3.84-11.54-5.77-15.39-17.5-19.25-33.42-38.48-55-53.39-7.54,27.28-11,55.72-16.17,84.17-1.32,4-1.78,9.72-5,14.2,0,.08.05.15.07.22,2.72,9.13,6.42,17.53,12.07,24.89a25,25,0,0,0,8.28.75c7.7-1,75.33-4.49,89.11-4.49a43.65,43.65,0,0,0,6.26-.3C416.18,216.88,403.55,200.26,387.66,185.82Z"/><path class="cls-5" d="M430.36,156.84A255,255,0,0,1,384,175.76a101.41,101.41,0,0,0,3.68,10.06c15.89,14.44,28.52,31.06,33.83,50.66,6.37-1,4.56-4.87,6.88-19.57,2.89-18.27,4.49-55.13,2.25-59.62C430.55,157.15,430.46,157,430.36,156.84Z"/><path class="cls-7" d="M389.27,119.79c-16.13-12-39.73-33.5-50.78-35.28a220.84,220.84,0,0,0-11.44,32c-.05.19-.09.38-.14.56,21.56,14.91,37.48,34.14,55,53.39a45.8,45.8,0,0,1,2.09,5.33,255,255,0,0,0,46.38-18.92C427.06,151.59,406.36,132.53,389.27,119.79Z"/><g class="cls-8"><path class="cls-3" d="M305.77,215.63c0-.07,0-.14-.07-.22-.11.15-.19.31-.3.46-7.4,4.37-16.57,5.6-25.41,7.59A69.17,69.17,0,0,0,294.07,232c7.62,3.14,16.49,6.9,23.77,8.55C312.19,233.16,308.49,224.76,305.77,215.63Z"/></g><path class="cls-9" d="M290.61,127s23.73-6.6,29-9.95,4.5-.22,7.42-8.63,11-22.84,11-22.84-7.09,25.49-6.85,28.61,37.47,35.58,47.46,51.69c0,0-45.06-41.35-50.1-42.32s-8.76,25-8.85,25.45.67-21.36,1.63-25S303.17,126.33,290.61,127Z"/><g class="cls-10"><path class="cls-3" d="M431.49,170.46c-1.55,10.76-2.58,21.89-5.94,32.31-1.94,6-8.72,2.79-12.84.64-8.39-4.37-15.44-10.71-23.25-16,6.49,11.15,14.36,22.09,17.07,34.93.63,3,1.2,6.92-2.57,7.92-5.15,1.37-10.83.46-16,0-8.94-.83-18-.48-27-1.26-5.41-.48-10.8-1-16.21-1.41-5.24-.38-10.15.92-15.34,1.2-7.32.38-13.05-3.5-16.82-9.84-2.65-4.45-3-9.21-2.6-14a5.77,5.77,0,0,1-2.63,2.4c-2.47.9-4-1.37-4.56-3.57-1.43-5.58-1.46-11.29-1.79-17-.38-6.6-1.51-13.16-2.2-19.74-.85-8-1.6-16.15-3.78-23.93-1.18-4.23-3.13-8.26-4.17-12.52a16.35,16.35,0,0,1-.51-3.49l-2.32.52c-4.5,4.69-8.5,9.88-10.93,15.94-5.12,12.82-11.22,60.9-10.9,65.39.2,2.73,6.47,9,13.81,14.56A69.17,69.17,0,0,0,294.07,232c7.62,3.14,16.49,6.9,23.77,8.55a25,25,0,0,0,8.28.75c7.7-1,75.33-4.49,89.11-4.49a43.65,43.65,0,0,0,6.26-.3c6.37-1,4.56-4.87,6.88-19.57,2-12.61,3.37-34.07,3.3-47.64Z"/></g><path class="cls-3" d="M296,196.76a38.05,38.05,0,0,0,0-7.77c-.51-6.22-2.06-12.59-3-18.76-2.14-14.23-5.07-28.41-6.7-42.7-.37-3.28-2.08-28.89-6.92-28.89-1.66-2.7-63.91-19.52-79.68-23-9.51-2.11-19-4.51-28.62-5.94-8.11-1.21-16.37-2.7-23.69,2-7.72,4.93-60.48,49.74-64.51,57.17-1.59,2.93,8.38,86.87,15.75,108.57a1.15,1.15,0,0,0,1,.82c2.15,3.07,6,5,9.37,6.55,8,3.62,16.93,5.45,25.55,7.08,8.43,1.59,16.94,2.7,25.45,3.74,4.83.58,9.63,1.36,14.45,2a61.61,61.61,0,0,0,18.19-.58,118.66,118.66,0,0,0,16-4.64c10.86-3.68,21.79-7.22,32.52-11.27,11.12-4.19,21.69-9.42,31.17-16.6C281.46,217.55,294.4,209.17,296,196.76Z"/><path class="cls-5" d="M85.23,125.79a19.11,19.11,0,0,0-2.35,3c-1.59,2.93,8.38,86.87,15.75,108.57a1.15,1.15,0,0,0,1,.82,14.62,14.62,0,0,0,3.93,3.65,141,141,0,0,1,30.85-14.94C108.41,199,99.19,161.12,85.23,125.79Z"/><g class="cls-8"><path class="cls-3" d="M134.42,226.91a141,141,0,0,0-30.85,14.94,39.14,39.14,0,0,0,5.44,2.9c8,3.62,16.93,5.45,25.55,7.08,8.43,1.59,16.94,2.7,25.45,3.74,1.66.2,3.3.43,5,.67-8-7.31-15.83-14.71-23.46-22.34C139,231.65,136.66,229.31,134.42,226.91Z"/></g><path class="cls-4" d="M149.19,110.81c44.5,3,87.85-4.36,130.94-11.4,0-.17,0-.35.05-.52a1.5,1.5,0,0,0-.8-.25c-1.66-2.7-63.91-19.52-79.68-23-9.51-2.11-19-4.51-28.62-5.94-8.11-1.21-16.37-2.7-23.69,2-7,4.46-50.69,41.45-62,54C106.11,117.92,127.15,109.44,149.19,110.81Z"/><path class="cls-6" d="M149.19,110.81c-22-1.37-43.08,7.11-63.85,14.87a1.14,1.14,0,0,0-.11.11c15.16,38.36,24.71,79.71,56.27,108.11,7.63,7.63,15.5,15,23.46,22.34,3.17.44,6.33.9,9.5,1.32a61.61,61.61,0,0,0,18.19-.58,118.66,118.66,0,0,0,16-4.64c10.86-3.68,21.79-7.22,32.52-11.27a124.28,124.28,0,0,0,30-15.79c1.56-42,5.11-83.61,8.93-125.87C237,106.45,193.69,113.78,149.19,110.81Z"/><g class="cls-8"><path class="cls-3" d="M296,189c-.51-6.22-2.06-12.59-3-18.76-2.14-14.23-5.07-28.41-6.7-42.7-.35-3.1-1.89-26-6.12-28.64-3.84,42.43-7.42,84.18-9,126.39.37-.28.75-.53,1.12-.81,9.14-6.92,22.08-15.3,23.66-27.71A38.05,38.05,0,0,0,296,189Z"/></g><g class="cls-10"><path class="cls-3" d="M296,189c-.51-6.22-2.06-12.59-3-18.76-.35-2.34-.73-4.67-1.12-7,.25,4.34.48,8.67.58,13,.15,6.53,1,13.4-.7,19.79-.94,3.66-3.78,7.05-6.18,9.91-3.9,4.65-7.8,7.93-9.7-.65-1.53-6.9-1.27-35.07-1.12-42.06-.2,1.85-2.94,26-3.17,27.77-.85,6.53-.81,14.49-5.24,19.85s-10.91,8.17-17.3,10.64a143.24,143.24,0,0,0-23.36,11.29.92.92,0,0,1-.86.06c-9,4.94-18.5,7.64-28.93,9.75-6.67,1.35-13.64,2.06-20.16,4-3.8,1.13-7.62,2.36-11.59,1.37l-.19-.05a1,1,0,0,1-1.47-.49,31.07,31.07,0,0,1-9-5.69l-.41-.21c-3.63-2.21-7.21-4.52-10.8-6.78,2.28,3.29,4.89,6.37,5.69,10.41a1,1,0,0,1-1.14,1c-4-.87-8.2-1.21-12.26-2-2.83-.53-8-1-10.06-3.31-4.24-4.76,5.22-10.94,9.05-14.19-4.1,1.23-8,2.22-10.51,3.09a80.69,80.69,0,0,1-9.51,2.63c-4.74,1-9.75,1.62-12.56-3.14-3.24-5.44-4.72-12-6.64-18C93,207.14,91.9,203,90.7,198.85c2.57,16.31,5.4,31.08,7.93,38.53a1.15,1.15,0,0,0,1,.82,14.62,14.62,0,0,0,3.93,3.65,39.14,39.14,0,0,0,5.44,2.9c8,3.62,16.93,5.45,25.55,7.08,8.43,1.59,16.94,2.7,25.45,3.74,1.66.2,3.3.43,5,.67,3.17.44,6.33.9,9.5,1.32a61.61,61.61,0,0,0,18.19-.58,118.66,118.66,0,0,0,16-4.64c10.86-3.68,21.79-7.22,32.52-11.27a124.28,124.28,0,0,0,30-15.79c.37-.28.75-.53,1.12-.81,9.14-6.92,22.08-15.3,23.66-27.71A38.05,38.05,0,0,0,296,189Z"/></g><g class="cls-8"><path class="cls-3" d="M87.88,132.68q1.11,2.94,2.19,5.89Q89,135.62,87.88,132.68Z"/></g><g class="cls-8"><path class="cls-3" d="M90.5,139.73q.94,2.6,1.88,5.18Q91.45,142.33,90.5,139.73Z"/></g><g class="cls-8"><path class="cls-3" d="M137.62,230.22l.37.37Z"/></g><path class="cls-9" d="M131.7,222.68c-6.58-8.86-11.43-18.9-16.39-28.73-10.12-20.08-14.17-42.13-20.24-63.6a1,1,0,0,1,.6-1.21c26.62-11.79,55.76-14,84.45-15.91,15.42-1,30.83-1.94,46.11-4.37,8.13-1.3,16.45-2.46,24.45-4.41-5.89.58-11.83.84-17.72,1.36-15.07,1.32-30.12,3.36-45.25,3.78-15.36.42-30.66-1.22-46-1.23-7.43,0-14.85-.09-22,2.3-6.24,2.09-12.25,4.81-18.62,6.51a1,1,0,0,1-.84-1.71c11.89-8.85,20.09-21,31-30.77,4.49-4,9.55-7.2,14.16-11,.86-.72,1.74-1.57,2.64-2.42l-.69.4c-7,4.46-50.69,41.45-62,54a1.14,1.14,0,0,0-.11.11c14.45,36.57,23.82,75.85,52,104C135.37,227.47,133.5,225.1,131.7,222.68Z"/><g class="cls-11"><path class="cls-12" d="M133.45,129.74c-7.25,0-22-3.37-23.6,8.44-.65,4.77,11.88,2.29,13.9,1.63,1.68-.54,15.91-10.1,9.7-10.07Z"/><path class="cls-13" d="M130.5,143.83c-3.9-.39-8.74.38-11.84,2.92-1.54,1.25.19,3,1.58,3,2.42.41,5.82-.75,8.08-1.48.71-.23,7.26-3.91,2.18-4.42Z"/><path class="cls-12" d="M143.48,134.38c-2-.51-9.62,1-9.36,4.09.45,5.48,14.11-2.89,9.36-4.09Z"/><path class="cls-12" d="M147.77,125c-2.51.07-8.38,4.14-4,3.88,1.66-.1,7.09-4,4-3.88Z"/><path class="cls-12" d="M250.49,137c-4.09-3.62-9.92-3.87-14.83-1.94-2.4.94-12.38,6.7-10.72,10.24,4.24,9.06,28.8-5.4,25.55-8.3C245.51,132.57,251.17,137.61,250.49,137Z"/><path class="cls-13" d="M259.13,147.49c-1.83-5.69-13.71-.12-15.88,2.48-7.18,8.62,17.83,4.83,15.88-2.48C259.12,147.47,259.29,148.12,259.13,147.49Z"/><path class="cls-12" d="M266.66,135.2c-2.15-.27-14.2.85-11.22,6,3.07,5.31,16.23-5.39,11.22-6Z"/><path class="cls-13" d="M228.87,151.88c-2.12-.92-8.88,1.69-8.12,4.66,1.12,4.35,11.67-3.13,8.12-4.66Z"/><path class="cls-13" d="M236.14,161.76c-1.25.25-10.06,2.23-6.69,5.26,4.38,3.94,10.5-6,6.69-5.26Z"/><path class="cls-13" d="M163.22,212.58c-3.49-1.37-24.59,2.22-19.32,10,5.08,7.43,24.07-8.1,19.32-10C159.71,211.21,164.27,213,163.22,212.58Z"/><path class="cls-13" d="M158.86,225.08c-2.62.07-6.68-.06-9.12,1.15-1.33.66-7,6.3-2.44,6.7a15.8,15.8,0,0,0,8.26-1.43c.82-.39,8.44-6.55,3.3-6.42Z"/><path class="cls-13" d="M172.77,220.51c-1.75-.39-10.53.36-9.16,4.11,1.71,4.68,13.35-3.18,9.16-4.11C170.72,220.05,174.14,220.81,172.77,220.51Z"/><path class="cls-13" d="M174.29,232.39c-1.95,0-19.51,5-13.07,7.76a9.57,9.57,0,0,0,10.74-2c.67-.43,6.87-5.84,2.33-5.76C169.37,232.46,175.87,232.36,174.29,232.39Z"/><path class="cls-13" d="M189.23,233.91c-1.76,0-13.33,2.42-11.18,6.2,3.32,5.85,15.31-6.23,11.18-6.2Z"/><path class="cls-13" d="M111.92,146.18c-3-2.34-6.7-1.42-9.23,1-3.12,3-.88,3.3.38,6.14,3.42,7.71,16.76-.85,8.85-7.15C108,143.09,115.39,149,111.92,146.18Z"/><path class="cls-12" d="M103,133.06c-4.08-1.2-5.06,4.28-5,4.29-1.43,4.85,9.88-2.86,5-4.29Z"/><path class="cls-13" d="M126.94,174.38a14.48,14.48,0,0,0-8-.82c-1.23.29-7.39,4.17-4.1,5.74a11,11,0,0,0,8,.7c1.1-.34,7.77-4,4.15-5.62Z"/><path class="cls-13" d="M107.68,205.92c-5.18-1.42-12.22-.86-10,5.18,2.53,6.78,14.52-3.93,10-5.18Z"/><path class="cls-13" d="M113.34,214.71c-1.29.18-5.38.52-6.33,2-4,2,.14,4.41,3.17,3.76,1.58-.34,7.72-6.41,3.16-5.77Z"/><path class="cls-13" d="M100.07,216.4c-2.59.13-4.85-.34-4.55,2.92.4,4.4,9.16-3.15,4.55-2.92Z"/><path class="cls-13" d="M118.78,220.49c-.83,0-6.66.11-3.94,2.82-1.57,1.06-.58,4.08,1.54,3,.88-.45,7-6.1,2.4-5.82Z"/><path class="cls-12" d="M224.11,90.4c-2.89-13.08-34.69-4.29-21.62,3.69,3.7,2.26,8.76,4.67,13.13,5.18s9.53-4.17,8.49-8.87Z"/><path class="cls-12" d="M242.65,94.43c3.24-2.54-9.73-8.92-12.24-2.88-3.25,2.43.57,5.11,3.28,5.83,3.3.87,6.47-1,9-2.95Z"/><path class="cls-12" d="M230.4,99.4c-2.44-.79-6.25-3.09-6.27,1.64,0,4.55,11-.13,6.27-1.64Z"/><path class="cls-12" d="M252.09,95c-2,0-5.32-1.57-5.36,1.67,0,5.65,10.8-1.57,5.36-1.67C251.48,95,254.05,95.05,252.09,95Z"/><path class="cls-12" d="M152.63,79.85c-5.44-4-22.15-.58-17.46,8.86-4.32,9.32,24.67-3.61,17.46-8.86S153.21,80.27,152.63,79.85Z"/><path class="cls-12" d="M130.54,88.43c-2.15.79-10.69,6.63-6.65,9.71,4.74,3.61,10.4-11.1,6.65-9.71Z"/><path class="cls-12" d="M340,151.76c-6.64-6.73-21.82,11.09-12.25,17,7.65,4.69,18.18-10.94,12.25-17C337.22,148.91,345.44,157.24,340,151.76Z"/><path class="cls-12" d="M329.86,172.47C323,168.9,317.18,168.9,317,178c-.28,14.59,18.52-2.62,12.86-5.54Z"/><path class="cls-12" d="M322.39,156.91c-1.76-5.7-4.18-2-5.9,1.06-7.16,12.89,10.79,4.8,5.9-1.06C322.23,156.4,322.65,157.23,322.39,156.91Z"/><path class="cls-12" d="M330.52,140.14c-5.31.07-11.93,10.48-6.6,10.05,6.61,2.5,9.74-10.09,6.6-10.05Z"/><path class="cls-12" d="M319.59,187.56c-1.06.71-8,8.23-2.63,8.08,4.12-.11,5.81-10.22,2.63-8.08Z"/><path class="cls-13" d="M375.77,188.76c-9.91-2.29-6.1,11.78-.07,15.46,8.07,4.93,8.43-13.55.07-15.46Z"/><path class="cls-13" d="M387.61,198.18c-5.83-2-3.74,12.11.35,14.35,3,1.65,6.93-11.8-.35-14.35Z"/><path class="cls-13" d="M381.9,215.76a4.08,4.08,0,0,1-.83-3.7c.32-1.6-7.11-5.47-7.84-2.54a9.25,9.25,0,0,0,3.55,9.77c2.91,2.17,7.91-.15,5.12-3.53Z"/><path class="cls-13" d="M388.72,220.25c-.43-4.4-4.88-4.74-5.09-.14-1.77,3.43,5.75,6.72,5.09.14C388.64,219.47,388.8,221,388.72,220.25Z"/><path class="cls-12" d="M351.68,191.9c1-2.19-8.88-7-8.64,1.75-1.75,7.2,12.89,5.81,8.64-1.75C352.21,190.76,352.44,193.25,351.68,191.9Z"/><path class="cls-13" d="M383.61,128.89c-9.51-1.16.68,12.31,5.41,13.85,5.17,1.69,6.79-3.51,4.81-7.62-1.82-3.78-6.27-5.74-10.22-6.23Z"/><path class="cls-13" d="M406.12,140.69c-1.8-7.1-14.12-7.49-10.58,2.66-.75,8.18,12.39,4.42,10.58-2.66C405.29,137.42,406.74,143.12,406.12,140.69Z"/><path class="cls-13" d="M397.56,153.39c-3.07-4.37-10.91-1.29-5.67,3.94,3.66,3.12,9.82,2,5.67-3.94C396.65,152.1,398.55,154.81,397.56,153.39Z"/><path class="cls-13" d="M413.72,150.18c-.9-.61-7.57-5.32-7.35-1.12-5.4,6.92,11.51,4,7.35,1.12Z"/><path class="cls-13" d="M366.59,115.48c-1.49-2.53.74-2.69-2.19-4.92-.32-.23-6.26-3.41-4.67.47.9,2.2.56,5.1,3.07,6.33,1.11.54,5.36.78,3.79-1.88C366.54,115.38,367.11,116.35,366.59,115.48Z"/><path class="cls-13" d="M418.18,173.77c-1.67-4.33-13.42.84-9.35,5.41,1.12,1.25,4.82,4.82,6.78,4.13,2.92-1,4.35-7.19,2.57-9.54C418,173.19,420.08,176.28,418.18,173.77Z"/><path class="cls-13" d="M420.05,186.83c.63-4.45-5.81.78-6.05,3.42-.6,6.62,5.57,0,6.05-3.42C420.26,185.31,419.91,187.83,420.05,186.83Z"/><path class="cls-13" d="M409.53,186.09c-2.06-2-3.67-1.55-6.55-2-5.05-.79,2.92,4.37,3.9,4.72s3.8-1.62,2.65-2.72Z"/></g><path class="cls-14" d="M343.23,239l-.21-1.78c-.83-7.11-2.39-13.62-7.68-18.81-2.14-2.1-54.15-32-67.31-33.31-7.21,1.44-18.09,8.89-23,14.13s-9.77,11-14.2,16.77c-1.79,2.34-4.45,6.18-4.45,9.33a3.18,3.18,0,0,0,.16,1c-3.35,14.9,13.88,31.88,20.07,43.71,4.21,8,7.53,16.4,12.53,24,2.15,3.27,6.29,9.49,10.8,12.32a1.14,1.14,0,0,0,.37.92c4.84,4.22,11.52,5,17.75,5.13,7.29.11,14.37-.08,20.86-3.67,10.8-6,13.65-15.84,21.35-24.89,4.6-5.39,11.33-13.12,12.95-20.23C345.1,255.44,344.18,247.15,343.23,239Z"/><g class="cls-15"><path class="cls-16" d="M337.82,274.42c2.48-3.52,4.6-7.27,5.42-10.85,1.86-8.13.94-16.42,0-24.6l-.21-1.78c-.83-7.11-2.39-13.62-7.68-18.81-2.14-2.1-54.15-32-67.31-33.31a27.47,27.47,0,0,0-6.32,2.27c17.08,16.57,30.89,38.38,40.42,61.41C316.63,253.27,328.78,262.57,337.82,274.42Z"/></g><path class="cls-14" d="M302.19,248.7c-9.53-23-23.34-44.84-40.43-61.42a62.39,62.39,0,0,0-16.65,11.87c-5,5.31-9.77,11-14.2,16.77-1.8,2.34-4.45,6.18-4.45,9.32a2.9,2.9,0,0,0,.16,1c-3.35,14.9,13.88,31.88,20.07,43.72,4.21,8,7.53,16.4,12.53,24,2.15,3.27,6.29,9.49,10.8,12.32a1.15,1.15,0,0,0,.37.92c3.55,3.09,8.09,4.35,12.71,4.84,2-22,10.5-43.25,19.46-63.2Z"/><g class="cls-11"><path class="cls-17" d="M302.56,250a206.78,206.78,0,0,0-10.95-22.51,69.68,69.68,0,0,1,1.7,9c.34,3.07.7,6.75-.62,9.66a4.73,4.73,0,0,1-5.17,3c-3.22-.7-4.74-3.66-7.16-5.58a95.69,95.69,0,0,0-11.08-7.11c-7.42-4.4-14.12-10-21.67-14.14-3.85-2.12-8.09-4.31-12.48-5-1.11-.17-2.37-.26-3.57-.5l-.27.34c-1.8,2.34-4.46,6.18-4.46,9.32a3.18,3.18,0,0,0,.16,1c-3.35,14.9,13.88,31.89,20.08,43.72,4.2,8,7.52,16.4,12.52,24,2.15,3.27,6.29,9.49,10.8,12.32a1.12,1.12,0,0,0,.38.92c3.55,3.09,8.08,4.35,12.7,4.84,2-22,10.5-43.25,19.46-63.2Z"/></g><g class="cls-18"><path class="cls-19" d="M302.5,248.87c-9,19.95-17.5,41.18-19.46,63.2,1.68.18,3.38.26,5,.29,7.29.11,14.37-.08,20.86-3.67,10.8-6,13.65-15.84,21.35-24.89,2.28-2.67,5.08-5.92,7.53-9.38C328.86,262.67,316.83,253.43,302.5,248.87Z"/></g><path class="cls-20" d="M329.16,264.75c-2.06-2.57-18.3-12.94-23.3-16.72-4.54-3.44-7.06-9-9.32-14.08a71.76,71.76,0,0,0-9.1-14.94c-7.55-9.64-15-19.43-22.8-28.9-.12-.15-.33,0-.25.2,5.41,9.8,13.71,17.85,19.94,27.14a156.19,156.19,0,0,1,9.81,17.38c1.82,3.64,4.22,7.39,4.78,11.49.62,4.55-1.66,11.27-3.31,15.54-1.81,4.72-3.66,11.44-5.93,18.24,2.27-4.53,3.89-7.09,4.61-9.2,1.53-4.43,3.27-8.78,4.91-13.17,2.88-7.73,8.52-6.23,14.52-2.82a76.31,76.31,0,0,1,8.7,5.61A68.4,68.4,0,0,0,329.16,264.75Z"/><g class="cls-15"><path class="cls-21" d="M343.23,239l-.21-1.78c-.23-2-.53-3.95-.94-5.84a36,36,0,0,1-3,16.64c-2.39,5.06-5.74,8.69-11.67,8.35s-7.05,1.69-14.62-1.69c5.6,4.27,9.73,7.23,12.14,13.84.87,2.38,1.38,5.54-1.17,7.06s-6.76.54-9.48.66c-5.65.25-14.7,1.11-16.29-6s.68-9.9,2.43-14.95c-1.12,2.33-6,5.93-8.1,6-2.68.07-5.58-3.31-7.53-4.86A122.08,122.08,0,0,1,272,244.43c-4.25-4.5-8.36-9.17-12.95-13.34a58,58,0,0,0-14-8.93c-2.33-1.11-4.71-2.45-7.29-2.84-1.89-.29-3.8-.46-5.7-.67-.86-.1-1.87-.18-2.9-.31-1.42,2.15-2.76,4.72-2.76,7a3.18,3.18,0,0,0,.16,1c-3.35,14.9,13.88,31.88,20.07,43.71,4.21,8,7.53,16.4,12.53,24,2.15,3.27,6.29,9.49,10.8,12.32a1.14,1.14,0,0,0,.37.92c4.84,4.22,11.52,5,17.75,5.13,7.29.11,14.37-.08,20.86-3.67,10.8-6,13.65-15.84,21.35-24.89,4.6-5.39,11.33-13.12,12.95-20.23C345.1,255.44,344.18,247.15,343.23,239Z"/></g><path class="cls-22" d="M286.08,274.25c-4.68-6.54-20.44-30.43-25.15-35.12s-8.47-10.36-13.77-14.52c-8.51-6.69-18.76-9.55-29-12.84a48,48,0,0,0-9.64-2c-10-1.08-19.87,4.28-28.26,9.25-6.19,3.67-13.48,8.25-18.53,14-2.55,2.92-3.12,8.15-4.18,11.89-1.23,4.35-2.74,10.46-2.71,15,.06,9.26,3.46,14.3,6.91,22.85,5.07,12.6,11.3,27.28,24.44,31.73,7.17,5.53,19.6,5.19,27.8,5.55a322.12,322.12,0,0,0,38.56-.17c9.05-.69,21.84-1.21,28.69-8,5.65-5.57,7.24-10.57,9.52-18a19,19,0,0,0,.55-9.73C290.61,280.53,288.19,277.21,286.08,274.25Z"/><g class="cls-15"><path class="cls-23" d="M235.31,304c.26,0,.52.09.78.12,3.71,1.24,9.9,0,13.61-2.47,12.37-8.66,28.44-6.19,39.58-16.08a18.51,18.51,0,0,0,1.3-3.42,34.46,34.46,0,0,0-4.7-8c-4.67-6.54-20.43-30.43-25.14-35.12s-8.34-10.12-13.47-14.26C255.79,250.66,243.6,279.46,235.31,304Z"/></g><g class="cls-24"><path class="cls-17" d="M285.57,273.89c-4.67-6.54-20.43-30.43-25.14-35.12-4.09-4.06-7.43-8.8-11.66-12.7,1.16,1.6,3.75,4.71,4,5.11,1.34,2.18,2.51,4.45,3.68,6.73,2.4,4.66,5.3,9,8,13.44,4.49,7.42,9.54,16.71,6,25.51C266.72,286,257.88,293.36,250,299a53.14,53.14,0,0,1-7.81,5.09,19.15,19.15,0,0,0,7.17-2.68c12.37-8.66,28.45-6.19,39.58-16.08a18.51,18.51,0,0,0,1.3-3.42A34.46,34.46,0,0,0,285.57,273.89Z"/></g><g class="cls-11"><path class="cls-16" d="M164.58,230.16c-1,.93-2,1.88-2.83,2.89-2.55,2.92-3.12,8.15-4.18,11.89-1.23,4.35-2.74,10.46-2.71,15,0,6.07,1.52,10.33,3.5,15a76.18,76.18,0,0,1,8-15.54A43.86,43.86,0,0,1,164.58,230.16Z"/></g><g class="cls-18"><path class="cls-16" d="M183.94,281.11a93,93,0,0,1-13.21-14,43.94,43.94,0,0,1-4.34-7.81,76.18,76.18,0,0,0-8,15.54c1,2.43,2.22,4.95,3.41,7.9,4.35,10.82,9.57,23.15,19.28,29.24C181,301.39,182.83,291.22,183.94,281.11Z"/></g><g class="cls-25"><path class="cls-26" d="M183.94,281.11c-1.11,10.11-3,20.28-2.89,30.88a24.12,24.12,0,0,0,5.16,2.49c7.17,5.53,19.6,5.19,27.8,5.55s16.58.59,24.87.45a72.9,72.9,0,0,1-8-17.19A100.42,100.42,0,0,1,183.94,281.11Z"/></g><g class="cls-25"><path class="cls-27" d="M230.89,303.29a72.9,72.9,0,0,0,8,17.19c4.56-.08,9.12-.27,13.69-.62,1.62-.12,3.37-.24,5.18-.39-7.45-6.05-17.22-8.9-24.51-15.77C232.46,303.56,231.67,303.44,230.89,303.29Z"/></g><g class="cls-28"><path class="cls-29" d="M291.33,284.17a13.14,13.14,0,0,0-.56-1.92,17.19,17.19,0,0,1-1.3,3.42c-11.13,9.89-27.21,7.42-39.58,16.08-3.71,2.47-9.89,3.71-13.6,2.47-.26,0-.52-.09-.78-.13-.76-.11-1.51-.26-2.27-.39,7.29,6.87,17.06,9.72,24.51,15.77,8.27-.69,17.89-2,23.51-7.58s7.24-10.57,9.52-18A19,19,0,0,0,291.33,284.17Z"/></g><g class="cls-11"><path class="cls-30" d="M180.22,229.61c-4.06-.68-6.73,3.52-7.65,6.72a2.83,2.83,0,0,0,1.62,3.07,2.93,2.93,0,0,0,3.38-.79,25.06,25.06,0,0,0,2.65-3.16,3.23,3.23,0,0,0,.65-2,6.11,6.11,0,0,0,.58-.93A2,2,0,0,0,180.22,229.61Z"/><path class="cls-30" d="M200.05,240.15a1.57,1.57,0,0,0-.89-1.12,1.3,1.3,0,0,0-1.21-.86.89.89,0,0,1-.71-.15c-1.05-.5-2.05.53-2.19,1.48a8.73,8.73,0,0,0,0,1.53,1.61,1.61,0,0,0,1,1.29c.85.38,1.87,1.07,2.81.78a1.41,1.41,0,0,0,1.06-1.31A6.93,6.93,0,0,0,200.05,240.15Z"/><path class="cls-30" d="M195.42,226.92a2,2,0,0,0-2.12.57,1.08,1.08,0,0,0-.2.4,3.14,3.14,0,0,0-.4.34,2.9,2.9,0,0,0-.37.65,1.11,1.11,0,0,0,.73,1.59c.72.08,1.33-.18,2.05-.13a.72.72,0,0,0,.73-.49c.1-.29.32-.52.43-.82a4.13,4.13,0,0,0,.13-.61A1.27,1.27,0,0,0,195.42,226.92Z"/><path class="cls-30" d="M232,236.65a1.21,1.21,0,0,0-1.57-.78A1.58,1.58,0,0,0,229,236a1.78,1.78,0,0,0-.86,1.22,2.77,2.77,0,0,0,.57,2.31,8.51,8.51,0,0,0,2.11,1,1.32,1.32,0,0,0,1.82-1.33A10.77,10.77,0,0,0,232,236.65Z"/><path class="cls-30" d="M236.29,285.63a1.23,1.23,0,0,0-1.9-1h0c.37-.23.29-.07-.08-.15s-.61-.17-.9-.25l-.22-.08v0a2.55,2.55,0,0,0-.41-.05,1.59,1.59,0,0,0-1.45,1.27,1.56,1.56,0,0,0,.58,1.51l.05.08c.11.16.2.32.3.47a5.78,5.78,0,0,0,1,1.19,1.61,1.61,0,0,0,1.94.11l.15-.09a1.45,1.45,0,0,0,.64-1.3,1.65,1.65,0,0,1,.22-.74A.86.86,0,0,0,236.29,285.63Z"/><path class="cls-30" d="M229.82,287.51a1.13,1.13,0,0,0-1.44-.69,1.37,1.37,0,0,0-.92.84,1.29,1.29,0,0,0,.56,1.7h0a1.29,1.29,0,0,0,1.78-.75A1.4,1.4,0,0,0,229.82,287.51Z"/><path class="cls-30" d="M273.23,302.43c-.43-1.05-1.45-2.08-2.64-1.76l-.3-.13h0l-.37-.11c-1.8-.39-2.53,2.64-.77,3.15l1.2.37.67.12a4.11,4.11,0,0,0,.78.07C272.86,304.52,273.6,303.34,273.23,302.43Z"/><path class="cls-30" d="M282.68,296.42a3.89,3.89,0,0,0-2.41,1.1,1.78,1.78,0,0,0-.26.22c0-.07,0-.15,0-.22a3.23,3.23,0,0,0-.63.36,2.61,2.61,0,0,0-.76.86,3.23,3.23,0,0,0-.39,1.7c0,1.35,1.09,2.5,2,3.4s2.44.32,2.95-.67a19,19,0,0,0,1.74-4.6C285.2,297.22,283.82,296.37,282.68,296.42Z"/><path class="cls-30" d="M278.74,305.8a1.44,1.44,0,0,0-1.17-1.26h-.09a1,1,0,0,0-1.29-.11,1.64,1.64,0,0,0-.81,1.31,2.07,2.07,0,0,0,.34,1.2,1.27,1.27,0,0,0,1.31.64c.59-.06,1.12-.12,1.45-.67A1.59,1.59,0,0,0,278.74,305.8Z"/><path class="cls-30" d="M311.52,265.53a1.91,1.91,0,0,0-2.82-.71l-.18-.05c-1.4-.36-2.17,2.69-2.39,3.77a5.54,5.54,0,0,0,0,1.86c.3,1.87,1.8,2.84,3.51,3.26a1.88,1.88,0,0,0,2-1.15A9.82,9.82,0,0,0,311.52,265.53Z"/><path class="cls-30" d="M305.27,262a1.24,1.24,0,0,0-.32-.75,1,1,0,0,0-.42-.3c-1.46-.65-2.43,1.11-2.77,2.19a1.47,1.47,0,0,0,1.08,2,2.35,2.35,0,0,0,2.52-1,3.64,3.64,0,0,0,.16-1.39A1,1,0,0,0,305.27,262Z"/><path class="cls-30" d="M305.86,286a2.46,2.46,0,0,0-.86-1.62,1.1,1.1,0,0,0-.26-.27,12.57,12.57,0,0,0-2.48-1.32,1.71,1.71,0,0,0-1.61,2.88,13.15,13.15,0,0,0,1.21,1.15c.29.25.59.49.89.72a9.1,9.1,0,0,0,.81.44,1.57,1.57,0,0,0,2.31-1.41C305.87,286.36,305.86,286.17,305.86,286Z"/><path class="cls-30" d="M265.86,208.58a3.08,3.08,0,0,0-2.92-1.17,4.15,4.15,0,0,0-1.18.37,1.57,1.57,0,0,0-1.3,1.11,8.54,8.54,0,0,0-.32,4.28,1.6,1.6,0,0,0,2.34.86,9.78,9.78,0,0,0,2.1-1.44,8.18,8.18,0,0,0,1.44-2.18A1.55,1.55,0,0,0,265.86,208.58Z"/><path class="cls-30" d="M266.27,221.18a2,2,0,0,1-.35-1c-.15-1.4-2.37-1.13-2.4.22,0,.08,0,.15,0,.23s-.11.12-.15.19a2.94,2.94,0,0,0-.43,1.35,1.2,1.2,0,0,0,1,1.3,1.25,1.25,0,0,1,.55.28,1.19,1.19,0,0,0,1.78-.49A2.24,2.24,0,0,0,266.27,221.18Z"/><path class="cls-30" d="M326.53,240.3a1.78,1.78,0,0,0-1.18.12.75.75,0,0,0-.77,0,4.54,4.54,0,0,0-1,.63,2.89,2.89,0,0,0-.81,1.36,2.43,2.43,0,0,0,.17,1.57,4.24,4.24,0,0,0,2.76,2,1.51,1.51,0,0,0,2-1.23C328,243.22,328.65,240.83,326.53,240.3Z"/><path class="cls-30" d="M325.19,221.66a1.5,1.5,0,0,0-.55-.51l-.24-.17a1.53,1.53,0,0,0-.63-1.12,3.44,3.44,0,0,0-1.58-.71,1.68,1.68,0,0,0-1.49.56,1.62,1.62,0,0,0-.07,2c.24.3.45.61.67.93a3,3,0,0,0,.5.62,3.84,3.84,0,0,0,1,.69,5.87,5.87,0,0,0,1.42.39,1.12,1.12,0,0,0,1.33-.86A2.81,2.81,0,0,0,325.19,221.66Z"/><path class="cls-30" d="M330.71,228.3a3.61,3.61,0,0,0-.42.16,1.08,1.08,0,0,0-.43.36c-1.2,1,.45,3,1.75,2.16l.26-.17A1.39,1.39,0,0,0,330.71,228.3Z"/><path class="cls-30" d="M187.22,271.62c-1.19-1.59-1.85-2.37-3.8-2.83a8.4,8.4,0,0,0-2.91.1c-1.6.23-1.88,2.19-1,3.28a9.32,9.32,0,0,0,3.17,2.4,11.61,11.61,0,0,0,3.13,2,1.18,1.18,0,0,0,1.52-.69C187.67,274.68,188.05,272.74,187.22,271.62Z"/><path class="cls-30" d="M194.36,277.17s0,0,0-.05a1.51,1.51,0,0,1,.12-.31,1.4,1.4,0,0,0-.42-1.88c-.57-.41-.9-.83-1.67-.85a1.64,1.64,0,0,0-1.45.83,3.8,3.8,0,0,0-.56,3,.25.25,0,0,1,0,.07.83.83,0,0,0,.55,1,4.55,4.55,0,0,1,.94.56,3,3,0,0,0,1.39.51.89.89,0,0,0,.93-.87c0-.19,0-.37,0-.55A1.49,1.49,0,0,0,194.36,277.17Z"/></g><path class="cls-20" d="M280.65,290.91c-4.41,1.58-9,2.3-13.52,3.6-3.76,1.09-7.37,2.79-11.08,4a47.2,47.2,0,0,1-11.72,2.73c-2.07.15-4.89-.53-5.11-3-.26-2.83,2.53-6.77,3.53-9.34a168.87,168.87,0,0,0,5.78-19.07,81.71,81.71,0,0,0,2.78-18.64,79,79,0,0,0-2.1-17.25.09.09,0,0,0-.18,0,113,113,0,0,1,.39,17,116.08,116.08,0,0,1-3.57,19.65c-1.53,5.92-3.36,11.85-5.46,17.59-1,2.72-1.72,5.68-3.23,8.16-2,3.33-4.26,4.29-8.16,4.22-2.36-.64-4.7-1.38-7.07-1.9A135,135,0,0,1,205.68,294c-7.17-2.54-14.87-6.21-20.18-11.77-.09-.09-.25,0-.17.14a29.06,29.06,0,0,0,8.28,6.91,124.59,124.59,0,0,0,11.49,6.46,78.12,78.12,0,0,0,14.44,4.94c3.9,1,7.8,1.93,11.6,3.29a18.6,18.6,0,0,0,15.7-.9c4.86-2.38,10.24-4.47,15.3-6.39,6-2.31,12.47-3.38,18.53-5.7C280.69,290.94,280.68,290.9,280.65,290.91Z"/><path class="cls-20" d="M172.37,269.53c-1.38-1.67-1.69-4-2.41-6a24.29,24.29,0,0,0-3.37-5.64c-3.93-5.63-3.32-14.45-3.48-21.06,0-.14-.21-.13-.21,0-.07,3.43-.16,6.83,0,10.27.1,2.83-.49,6.2.42,8.94.84,2.57,2.54,4.55,4.11,6.71s2.83,4.88,4.79,6.93C172.3,269.77,178.31,276.7,172.37,269.53Z"/></g></g></svg>