<svg id="Layer_1" data-name="Layer 1" xmlns="http://www.w3.org/2000/svg" xmlns:xlink="http://www.w3.org/1999/xlink" width="619.88" height="562.43" viewBox="0 0 619.88 562.43">
  <defs>
    <style>
      .cls-1, .cls-41, .cls-44, .cls-6 {
        fill: none;
      }

      .cls-2, .cls-54 {
        fill: #fff;
      }

      .cls-3 {
        clip-path: url(#clip-path);
      }

      .cls-4 {
        fill: #d8d1a3;
      }

      .cls-5, .cls-9 {
        opacity: 0.3;
      }

      .cls-6 {
        stroke: #857b6c;
        stroke-width: 3px;
      }

      .cls-10, .cls-12, .cls-14, .cls-16, .cls-18, .cls-23, .cls-29, .cls-40, .cls-41, .cls-42, .cls-44, .cls-45, .cls-46, .cls-48, .cls-51, .cls-52, .cls-54, .cls-6 {
        stroke-miterlimit: 10;
      }

      .cls-7 {
        fill: #81ddda;
      }

      .cls-8 {
        fill: #cdaa6a;
      }

      .cls-10, .cls-12 {
        fill: #fbd3c7;
        stroke: #453323;
      }

      .cls-11 {
        fill: #dd9f8f;
      }

      .cls-12, .cls-14, .cls-42, .cls-44 {
        stroke-width: 0.5px;
      }

      .cls-13 {
        fill: #df71e2;
        stroke: #710e7c;
      }

      .cls-13, .cls-30, .cls-34, .cls-35, .cls-37 {
        stroke-linejoin: round;
      }

      .cls-13, .cls-16, .cls-29, .cls-30, .cls-34, .cls-35, .cls-37, .cls-51 {
        stroke-width: 0.75px;
      }

      .cls-14, .cls-32 {
        fill: #61435b;
      }

      .cls-14 {
        stroke: #1c101a;
      }

      .cls-15 {
        fill: #f8e1db;
      }

      .cls-16 {
        fill: #fad2c6;
      }

      .cls-16, .cls-23, .cls-29, .cls-40, .cls-41, .cls-42, .cls-44, .cls-45, .cls-48 {
        stroke: #323232;
      }

      .cls-17 {
        fill: #e7b4a7;
      }

      .cls-18, .cls-35 {
        fill: #311415;
      }

      .cls-18 {
        stroke: #211e1f;
      }

      .cls-19 {
        fill: #c28974;
      }

      .cls-20 {
        fill: #f3eae3;
      }

      .cls-21 {
        fill: #4f3317;
      }

      .cls-22 {
        fill: #451f16;
      }

      .cls-23, .cls-43 {
        fill: #db9d8e;
      }

      .cls-23 {
        stroke-width: 0.25px;
      }

      .cls-24 {
        fill: #56051e;
      }

      .cls-25 {
        fill: #cc5252;
      }

      .cls-26 {
        fill: #8c1730;
      }

      .cls-27 {
        fill: #e6f8f8;
      }

      .cls-28 {
        fill: #6b1010;
      }

      .cls-29 {
        fill: #fac7b3;
      }

      .cls-30 {
        fill: #9b959a;
        stroke: #423a33;
      }

      .cls-31 {
        fill: #2d1708;
      }

      .cls-33 {
        fill: #1c101a;
      }

      .cls-34 {
        fill: #686c70;
        stroke: #211f1c;
      }

      .cls-35 {
        stroke: #190500;
      }

      .cls-36 {
        fill: #c9ecf4;
      }

      .cls-37, .cls-46 {
        fill: #f9dad2;
      }

      .cls-37, .cls-51 {
        stroke: #7f430d;
      }

      .cls-38 {
        fill: #e3ae9f;
      }

      .cls-39 {
        fill: #4c2f47;
      }

      .cls-40 {
        fill: #c1498b;
        stroke-width: 2px;
      }

      .cls-42, .cls-45 {
        fill: #f9d1c6;
      }

      .cls-43 {
        opacity: 0.63;
      }

      .cls-46 {
        stroke: #4c2606;
      }

      .cls-47 {
        fill: #342516;
      }

      .cls-48 {
        fill: #e16faa;
      }

      .cls-49 {
        fill: #b26b51;
      }

      .cls-50 {
        fill: #ff6cf1;
      }

      .cls-51 {
        fill: #f9f8f7;
      }

      .cls-52 {
        fill: #3d2d16;
        stroke: #3d2d16;
      }

      .cls-53 {
        fill: #f9f6f2;
      }

      .cls-54 {
        stroke: #cc5252;
      }

      .cls-55 {
        fill: #ad6c39;
      }

      .cls-56 {
        fill: #9d5c2f;
      }

      .cls-57 {
        fill: #d49066;
      }

      .cls-58 {
        fill: #d49360;
      }

      .cls-59 {
        fill: #cc884e;
      }

      .cls-60 {
        fill: #dca277;
      }

      .cls-61 {
        fill: #c58b56;
      }

      .cls-62 {
        fill: #e5e5e5;
      }

      .cls-63 {
        fill: #cbcbcb;
      }

      .cls-64 {
        fill: #9a592f;
      }

      .cls-65 {
        fill: #4e4e58;
      }

      .cls-66 {
        fill: #ffc295;
      }

      .cls-67 {
        fill: #ffcd9c;
      }

      .cls-68 {
        fill: #e5b382;
      }

      .cls-69 {
        fill: #683a10;
      }

      .cls-70 {
        fill: #323232;
      }

      .cls-71 {
        opacity: 0.65;
      }

      .cls-72, .cls-73, .cls-74 {
        fill: #eecaa7;
      }

      .cls-72 {
        opacity: 0.42;
      }

      .cls-73 {
        opacity: 0.45;
      }

      .cls-74 {
        opacity: 0.27;
      }
    </style>
    <clipPath id="clip-path">
      <rect class="cls-1" x="40.28" y="56.21" width="539.79" height="449.82" rx="116.93"/>
    </clipPath>
  </defs>
  <g>
    <rect class="cls-2" x="30.65" y="47.2" width="558.58" height="468.03" rx="124.29"/>
    <g class="cls-3">
      <rect class="cls-4" x="10.02" y="371.71" width="629" height="134.22"/>
      <g class="cls-5">
        <line class="cls-6" x1="288.01" y1="376.21" x2="288.01" y2="569.27"/>
        <line class="cls-6" x1="46.52" y1="394.11" x2="565.45" y2="394.11"/>
        <line class="cls-6" x1="48.77" y1="456.52" x2="567.69" y2="456.52"/>
        <line class="cls-6" x1="414.94" y1="377.33" x2="495.25" y2="551.99"/>
        <line class="cls-6" x1="148.17" y1="385.75" x2="98.75" y2="543"/>
      </g>
      <rect class="cls-7" x="36.41" y="47.1" width="551.5" height="329.1"/>
      <rect class="cls-8" x="24.06" y="352.62" width="551.5" height="23.59"/>
      <g>
        <ellipse class="cls-9" cx="201.53" cy="478.01" rx="84.14" ry="14"/>
        <g>
          <g>
            <g>
              <g>
                <path class="cls-10" d="M254.85,308.11s-8.15,6.59-19.26-4.45A55.67,55.67,0,0,1,227,292.08C220.28,280.52,244.76,276,244.76,276l8.11,7.87L261.51,294S269,307.2,254.85,308.11Z"/>
                <path class="cls-11" d="M252.75,284.13c-2.46,4.82-7.27,12.05-17,19.3A53.65,53.65,0,0,1,227,292.08C220.28,280.52,244.76,276,244.76,276Z"/>
              </g>
              <path class="cls-12" d="M240.49,307.24c14.85,9,35.34,13.11,60.83,5.3l19.07-13.06-18.62,3.74c-1-.9-35.21-7.35-41.4-10.34"/>
            </g>
            <g>
              <g>
                <path class="cls-12" d="M136.35,295s-12.2,3.46-22.78,42.46l-4.43,16.25,10.21,4.78s22.53-25.75,27.87-50.86C150.42,292.5,136.35,295,136.35,295Z"/>
                <path class="cls-12" d="M122.37,353c7.17,4.79.46,12.68,6.79,16.32,2.36,1.36,1,8-.65,7.38-1.42-.6-2.6-2.44-3.66-3.66-.86-1-3.2-4.6-4.17-5.5-2.47,3.93-5.55,20.92-7.26,22.16a2.09,2.09,0,0,1-2.66,0c-1.51-1.64-.41-8-.41-8s-2.64,6.27-5.41,6.18c-2.2-.08-1.46-5.43-1-6.75a16,16,0,0,1-2.16,1.85c-1.09.76-1.51.3-2.11-1.21-.68-1.72,1-5.53,1.13-6.36-1,1.58-2.69,3-4.26,2-2.43-1.52,1.56-6.25,2.25-7.58,6-11.44,10.14-18.27,11.16-19.58.81-1.18.3-.19.32-.18"/>
              </g>
              <path class="cls-12" d="M130.74,299.13s17.71-17.48,32.52-26.62,9.35,25.43,9.35,25.43L143.9,315.88"/>
              <path class="cls-12" d="M112.79,370.92s-2.38,10.3-2.68,12.62"/>
              <path class="cls-12" d="M108,369.72s-4.06,10.93-4.79,13.16"/>
              <path class="cls-12" d="M104.42,368.52a59.52,59.52,0,0,0-3.59,7.18"/>
            </g>
            <g>
              <path class="cls-13" d="M217.33,261.21s5.36-3.24,11.32-1.25c7.55,2.51,32.09,25.79,32.09,25.79s-12.59,25.16-18.88,27.67"/>
              <path class="cls-13" d="M178.33,261.21s-15.12,6.07-15.5,6.29c-2.11,1.26,5.44,31.45,5.44,49.07s1.26,25.16,1.26,25.16-5,7.55,1.25,8.81l1.48.19c9.25,1.18,59.49,6.92,74-4,5-3.77,5-6.29,1.31-9.69L246.32,327a63.22,63.22,0,0,0-5.08-16.72c-3.23-6.46-2.52-16.36-2.52-16.36-1.26-3.77-3.78-18.87-3.78-18.87"/>
              <path class="cls-10" d="M184.14,247.06s-3,12.3,0,17,27.68,8.48,30.44,3.44,4-12.87,2.75-15.87"/>
              <path class="cls-10" d="M184.14,247.06s-3,12.3,0,17,27.68,8.48,30.44,3.44,4-12.87,2.75-15.87"/>
              <g>
                <path class="cls-14" d="M209.29,268.82c-.77-.13-3.75-1.64-7.94,1.82s3.73,8.56,3.73,8.56l5.27-1.51S215.74,269.93,209.29,268.82Z"/>
                <g>
                  <path class="cls-14" d="M208.94,323.37c.3.53.59,1.05.89,1.56h0c9.16,15.93,18.61,22.51,18.61,22.51A105.79,105.79,0,0,0,230.85,335c.25-2.09.39-3.88.46-5.41a29.56,29.56,0,0,0-.27-6.64q-1-3.17-2.06-6.08c-.64-1.82-1.29-3.56-1.92-5.24-1.84-4.77-3.63-9-5.33-12.59q-1.28-2.76-2.49-5.11c-5.16-10.08-9.28-16.1-9.41-16.89-.36-2.26-5,.68-5,.68.25,4.17.28,8.23.91,12.45.19,1.28.37,2.59.54,3.91.5,3.81.93,7.71,1.28,11.38.12,1.28.23,2.54.34,3.75.4,4.46.67,8.35.84,10.92C208.88,322.15,208.94,323.37,208.94,323.37Z"/>
                  <path class="cls-15" d="M206.28,294a43.55,43.55,0,0,1,15.06,5c-.86-1.83-1.8-3.73-2.6-5.3a47.23,47.23,0,0,0-13-3.62C205.93,291.41,206.11,292.72,206.28,294Z"/>
                  <path class="cls-15" d="M208.32,309.38c5.45,1.34,14.57,4,20.29,7.55-.64-1.82-1.4-3.9-2-5.58A62.23,62.23,0,0,0,208,305.48C208.06,306.76,208.21,308.17,208.32,309.38Z"/>
                  <path class="cls-15" d="M209.33,323.26c.3.53.62,1.2.92,1.71h0c5.46,1.69,14.06,4.78,20.23,9.7.26-2.08.38-3.81.44-5.34a97.24,97.24,0,0,0-21.82-9.18C209.24,322.2,209.33,323.26,209.33,323.26Z"/>
                </g>
              </g>
              <g>
                <path class="cls-13" d="M202.57,268.8c.89.05-6.62,15.06-6.62,15.06s-12.59-1.26-20.13-22.65c0,0,1.25-6.29,6.29-10.06s2.51,3.77,2.51,3.77S185.45,267.78,202.57,268.8Z"/>
                <path class="cls-13" d="M209.78,268.76c-.68.57,8.81,13.84,8.81,13.84s5.67-3.2,3.73-22.62l-8.76-7.57S221.34,259.1,209.78,268.76Z"/>
              </g>
            </g>
            <g>
              <g>
                <path class="cls-16" d="M262.58,206.19c-1.71,7.43-7.76,12.28-12.25,11.72s-5.27-6.58-4.37-13.71,5.27-12.49,9.76-11.92C261.85,193.07,264.19,199.2,262.58,206.19Z"/>
                <path class="cls-11" d="M252.65,195.84a3.37,3.37,0,0,1,3.7-1.09,3.52,3.52,0,0,1,1.77,2.21,14.44,14.44,0,0,1,0,7.93c-.69,3.17-2,6.56-5.19,8.13a1.57,1.57,0,0,1-.92.22c-.73-.11-.93-1-1-1.6l-.11-2.72a3,3,0,0,1,.28-1.72,4.12,4.12,0,0,1,1.41-1.15,4.16,4.16,0,0,0,2-2.4,2,2,0,0,0-.94-2.08c-.71-.38-2,.17-2.53-.33C250.35,200.4,252,196.65,252.65,195.84Z"/>
              </g>
              <path class="cls-10" d="M250,213c1.65,26.34-29.34,43.36-38.93,44-12.23.77-45,3-58.05-41.62a9.3,9.3,0,0,1-.16-1.18h0c-2.56-17.88-11.79-33-11.25-40.18,1.85-24.87,7.74-16.29,35.51-23.78,26-7,37.22-9,55.79,1.83,1.64.95,6.65,1.5,7.44,5.77,1.38,7.28,2.48,12.72,3.38,17.07C246.82,189.93,248.68,192.13,250,213Z"/>
              <path class="cls-17" d="M244.41,174.07c-9-8.43-18.8-11.13-30.13-11.08-10.89,11-23.14,18.43-38.6,18,15.23-18.32,3.11-10.91,5.91-15.15.67,3.89-5.81,10.85-14,9a50.46,50.46,0,0,1-11,19.13c-1.76,1.92-3,14.32-3.14,16-.07,1,.05,2.21,0,3.35-2.56-17.87-11.78-33-11.25-40.17,1.86-24.87,7.74-16.29,35.52-23.78,26-7,37.21-9,55.78,1.82,1.64.95,6.65,1.51,7.45,5.78C242.41,164.27,243.51,169.71,244.41,174.07Z"/>
              <path class="cls-18" d="M211.76,161.05s-5.11,13.71-36.26,18.82c0,0,11.37-13.66,3.73-14.22,0,0-3.42,9-14.55,6.84,0,0,5.13.13-10.25,20.74,0,0-4.2,6.94-.72,21.32.23,1-7.44.06-9.53-10.11,0,0-14.76-8.45-6.62-23.94,0,0-14.51-17.48,3.73-27.28,0,0-1.16-19.5,13.76-23.08,0,0,11.95-26.15,37.31-13.71,0,0,18.6-13.15,32.93,4.32,0,0,16.54,3.07,16.79,17.74,0,0,22.27,6.22,12,23.46,0,0,7.56,10.51-.78,25.67l-3,14.51L248.63,197c-2-11.29-.8-15.54-7.59-24.79C241,172.18,233.45,156.71,211.76,161.05Z"/>
              <path class="cls-19" d="M208.21,215.86s1.21,3.26,6.24,2.52,5.36-4.49,5.36-4.49S215.59,219.8,208.21,215.86Z"/>
              <g>
                <g>
                  <path class="cls-20" d="M238.11,199.84c.18,5.17-4.29,9.58-10,9.85s-10.42-3.7-10.59-8.87,4.29-9.58,10-9.85S237.94,194.67,238.11,199.84Z"/>
                  <path class="cls-21" d="M238.14,199.84a9.16,9.16,0,0,1-2.93,6.93,11,11,0,0,1-7,3,10.88,10.88,0,0,1-7.33-2.23,9,9,0,0,1-3.54-6.76,9.36,9.36,0,0,1,3-7.08,11.25,11.25,0,0,1,7.12-3,10.94,10.94,0,0,1,7.31,2.38A9.07,9.07,0,0,1,238.14,199.84Zm0,0a8.64,8.64,0,0,0-3.5-6.53,10.57,10.57,0,0,0-7.13-2.09,10.76,10.76,0,0,0-6.8,2.88,8.9,8.9,0,0,0-2.91,6.71,8.66,8.66,0,0,0,3.35,6.52,10.62,10.62,0,0,0,7.11,2.23,10.91,10.91,0,0,0,6.93-2.86A9.13,9.13,0,0,0,238.09,199.84Z"/>
                </g>
                <g>
                  <path class="cls-22" d="M234.9,207a9.79,9.79,0,0,0,1.82-2.12,9.14,9.14,0,0,0,.88-1.81,5.57,5.57,0,0,0-.26-1.6,5.74,5.74,0,0,0-7.19-3.89,5.93,5.93,0,0,0-3.67,7.44,5.82,5.82,0,0,0,4.58,4.05A9.88,9.88,0,0,0,234.9,207Z"/>
                  <path class="cls-2" d="M229.54,197.89a1.47,1.47,0,0,1-.92,1.84,1.44,1.44,0,0,1-1.8-1,1.46,1.46,0,0,1,.92-1.84A1.44,1.44,0,0,1,229.54,197.89Z"/>
                </g>
              </g>
              <g>
                <g>
                  <g>
                    <path class="cls-20" d="M179,206.6c.86,5.17,6.19,8.65,11.9,7.79s9.65-5.74,8.79-10.91-6.18-8.65-11.89-7.78c-5.41.81-9.22,5.22-8.89,10.06A8,8,0,0,0,179,206.6Z"/>
                    <path class="cls-21" d="M179,206.6a9.17,9.17,0,0,0,4.31,6.22,11.12,11.12,0,0,0,7.47,1.46,10.85,10.85,0,0,0,6.64-3.62,8.8,8.8,0,0,0,2-7.15,9,9,0,0,0-4.25-6.08,11,11,0,0,0-7.35-1.5,10.76,10.76,0,0,0-6.68,3.48A8.77,8.77,0,0,0,179,206.6Zm0,0a9.22,9.22,0,0,1,2-7.38,11.09,11.09,0,0,1,6.81-3.79A11.46,11.46,0,0,1,195.5,197a9.46,9.46,0,0,1,4.37,6.44,9.15,9.15,0,0,1-2.19,7.42,11.07,11.07,0,0,1-6.85,3.65,11.34,11.34,0,0,1-7.57-1.61A9.26,9.26,0,0,1,179,206.61Z"/>
                  </g>
                  <path class="cls-22" d="M199.59,207.07a6,6,0,0,0-5.05-4.66,5.89,5.89,0,0,0-6.47,5.36,6.09,6.09,0,0,0,3.58,6.23,7.83,7.83,0,0,0,1.29-.13,10,10,0,0,0,1.94-1.17c.88-.64,1.79-1.27,2.63-2A13,13,0,0,0,199.59,207.07Z"/>
                  <path class="cls-2" d="M189.34,202.24a1.55,1.55,0,0,0,1.33,1.72,1.51,1.51,0,0,0,1.65-1.37,1.55,1.55,0,0,0-1.33-1.71A1.49,1.49,0,0,0,189.34,202.24Z"/>
                </g>
                <path class="cls-23" d="M178.87,205c1-9,13.06-13,19.44-5-1.76-.83-6.3-2.67-11-1.24a16,16,0,0,0-3.1,1.37A17.05,17.05,0,0,0,178.87,205Z"/>
                <path class="cls-23" d="M217.56,200.23a10.44,10.44,0,0,1,19.06-4.94,12.4,12.4,0,0,0-7.38-1.72,18.14,18.14,0,0,0-3.74.88,17.27,17.27,0,0,0-3.69,1.61A13.69,13.69,0,0,0,217.56,200.23Z"/>
              </g>
              <path class="cls-18" d="M204.87,190.93c-1.17.27-3.18,4.87-12.38,2.28-10.1-2.83-15.35,2.65-15.35,2.65s8.83-1.49,14.82.32c5.29,1.61,9,2.72,11.73-.87S204.87,190.93,204.87,190.93Z"/>
              <path class="cls-18" d="M214.17,190.06c1,.1,3.67,3,11-.57,8-3.87,12.86.49,12.86.49s-7.4-.25-12.15,2.17c-4.19,2.14-8.3,3.43-11,.56S214.17,190.06,214.17,190.06Z"/>
              <g>
                <g>
                  <path class="cls-24" d="M201.86,243.51a6.21,6.21,0,0,1-2.47-.37,1.83,1.83,0,0,1-1.08-1.34c-.54-2.79,4.63-8.34,5.22-9,5.73-4.33,11.68-6.88,16-6.88,1.81,0,3.11.48,3.66,1.35a1.94,1.94,0,0,1,.05,2,46.05,46.05,0,0,0-2.39,6.25c4.06.36,4.38,2.1,4.41,2.31l0,.4-6.65,2.24c-.49.13-11.35,3-16.76,3Z"/>
                  <path class="cls-25" d="M219.5,226.46c2.67,0,4,1.09,3.26,2.61a40.71,40.71,0,0,0-2.58,6.91c4.36.23,4.55,1.91,4.55,1.91L218.46,240s-11.19,3-16.6,3a5.82,5.82,0,0,1-2.26-.33c-3.3-1.49,4.3-9.5,4.3-9.5,6.55-4.94,12.19-6.72,15.6-6.72m0-1c-4.4,0-10.45,2.59-16.21,6.92l-.06.05-.06.06c-1,1-5.93,6.44-5.35,9.41a2.28,2.28,0,0,0,1.37,1.69,6.57,6.57,0,0,0,2.67.42c5.48,0,16.4-2.92,16.86-3h.06l6.27-2.11.77-.26-.1-.8c0-.38-.45-2.17-4.25-2.68a47.41,47.41,0,0,1,2.2-5.61,2.47,2.47,0,0,0-.09-2.45c-.65-1-2.1-1.58-4.08-1.58Z"/>
                </g>
                <path class="cls-26" d="M200.81,236.94c-1.63,2.3-3,4.95-1.21,5.74,1.94.88,8.12-.16,12.87-1.24C220.3,239.66,204.82,233,200.81,236.94Z"/>
                <path class="cls-27" d="M222.76,229.07c1.77-2.55-5.17-4.12-12.94.17-.76.42-2.34,1.47-3.14,2S218.1,235.77,222.76,229.07Z"/>
                <path class="cls-28" d="M209.74,246.84a11,11,0,0,1,2.44-1.55,15.92,15.92,0,0,1,2.7-1,13.07,13.07,0,0,1,5.73-.4c-.94.26-1.86.43-2.77.66s-1.8.44-2.69.7C213.35,245.72,211.59,246.3,209.74,246.84Z"/>
              </g>
              <g>
                <path class="cls-29" d="M155.49,215.94c-1.89-5.6-6.41-8.81-11.36-7.45-6.77,1.86-7.81,9-4.12,16.52,3.92,8,12.09,12.36,17.06,11,2.27-.6,3.37-1.8,3.72-3.39"/>
                <path class="cls-11" d="M149.56,212.6a5.37,5.37,0,0,0-5.3-.4,3.88,3.88,0,0,0-1.76,2.9c-.48,3.09.69,6.15,2.21,9,1.83,3.43,4.62,7,9.32,8a2.65,2.65,0,0,0,1.31,0c.95-.29,1-1.29.82-2l-.63-3.09a3.17,3.17,0,0,0-.86-1.89,6.3,6.3,0,0,0-2.23-1,5.67,5.67,0,0,1-3.4-2.26,2,2,0,0,1,.68-2.56c.84-.6,2.76-.27,3.31-1C154,217.24,150.7,213.37,149.56,212.6Z"/>
              </g>
            </g>
          </g>
          <path class="cls-13" d="M165.75,266.25s-16.35,7.54-30.19,26.41c-2.35,3.21,20.13,25.17,21.39,25.17s16.35-16.36,16.35-16.36l2.52-5"/>
          <g>
            <g>
              <path class="cls-12" d="M234.32,405.26s4.09,6.33,2.51,16.36c-2.29,14.54-7.55,37.74-7.55,37.74s10.07,6.29,15.1-2.52,16.36-42.77,17.61-45.29,1.26-6.29,0-11.32S234.32,405.26,234.32,405.26Z"/>
              <path class="cls-13" d="M236.83,421.62l-7.55,37.74s10.07,6.29,15.1-2.52c3-5.17,12.06-30.07,12.06-30.07Z"/>
              <rect class="cls-30" x="234.91" y="422.51" width="21.99" height="5.03" transform="translate(131.23 -52.43) rotate(16.55)"/>
            </g>
            <g>
              <path class="cls-12" d="M175.38,402.79s3,5.62.33,19.68c-3.15,16.93-12.66,43.68-12.66,43.68s9.27,8.75,15.51-1,22.2-48.5,23.8-51.32,2.11-7.28,1.53-13.4S175.38,402.79,175.38,402.79Z"/>
              <path class="cls-13" d="M175.71,422.47l-12.66,43.68s9.27,8.75,15.51-1c3.67-5.74,16.17-34,16.17-34Z"/>
              <polygon class="cls-30" points="193.5 435.51 173.15 425.37 175.24 419.84 195.59 429.98 193.5 435.51"/>
            </g>
            <path class="cls-14" d="M217,382s9,15.09,11.55,26.42c0,0,6.55,3.11,19,0,15.09-3.78,16.35-7.55,16.35-7.55l-14.8-35.23c-.05-.09,3.74-9.24-1.29-12.58-5.39-3.57-27.94,3.78-27.94,3.78-1.29,0-47.81-1.26-47.81,1.25"/>
            <path class="cls-14" d="M172,356.83s0,51.13,1.26,53.24,12.58,9.66,33,4.15c0,0,4.68-21.76,13.51-31"/>
            <path class="cls-31" d="M170.78,358.4s-1.25-3.47,1.26-8.1c0,0,45.29,6.94,72.9-2.65,0,0,2.22,2.05,1.14,7C246.08,354.63,232.43,366.5,170.78,358.4Z"/>
            <g>
              <g>
                <path class="cls-32" d="M228,371.29c2.13-1.25,20.76-5,21.05-4.4"/>
                <path class="cls-33" d="M228,371.29a26.1,26.1,0,0,1,5.11-1.74c1.74-.47,3.5-.85,5.26-1.25s3.53-.7,5.31-1c.89-.13,1.79-.26,2.68-.37l1.35-.13a3.35,3.35,0,0,1,1.34.07,1.33,1.33,0,0,0-.66,0l-.67.09c-.44.06-.88.14-1.32.23-.89.16-1.77.33-2.65.51-1.76.36-3.52.71-5.28,1.09s-3.52.75-5.27,1.13c-.88.19-1.75.39-2.63.61A16.16,16.16,0,0,0,228,371.29Z"/>
              </g>
              <path class="cls-14" d="M223.09,360.65s2.42,6.87,1.16,11.9a7,7,0,0,1-7.55,2.52"/>
              <path class="cls-14" d="M187.92,360.65s-2,11.27-10.85,12.53"/>
              <g>
                <path class="cls-32" d="M218.59,384.5a44.55,44.55,0,0,1,8.81-1.26"/>
                <path class="cls-33" d="M218.59,384.5a23.13,23.13,0,0,1,4.33-1.11c.74-.1,1.49-.19,2.23-.22a14.11,14.11,0,0,1,2.25.07c-1.49.21-2.94.42-4.4.65S220.08,384.34,218.59,384.5Z"/>
              </g>
              <polyline class="cls-14" points="190.91 363.12 190.91 352.55 195.94 352.63 194.69 363.12"/>
              <polyline class="cls-14" points="239.98 359.97 239.98 349.28 234.94 350.54 236.2 360.6"/>
            </g>
          </g>
          <g>
            <path class="cls-34" d="M248.4,456.76c-.54-.18.4,4.3-2,6.32s-12.7-.89-15.86-6.3l-1-5.14s-2.06,2.05-2,8.06a27.36,27.36,0,0,0-2.46,5.64,9.47,9.47,0,0,0,.7,6.19,165.89,165.89,0,0,0,16.56,5.07c6.3,1.35,26.24,2.93,30.18-2.37,0,0,4.42-8.89-13.49-12.16,0,0-6.89.9-7.57-.11S253.72,458.55,248.4,456.76Z"/>
            <path class="cls-35" d="M226.46,459.87c-.1.91-.91,3.42-.94,4.24v0a12.42,12.42,0,0,0,0,2,2.58,2.58,0,0,0,1.72,2.24,153.84,153.84,0,0,0,15.09,4.54c6.3,1.36,26.24,2.93,30.18-2.37a2.82,2.82,0,0,0,.09-.84h0c0-1.84-1.31-6.24-12.2-9-.45-.11-.92-.23-1.41-.33l-.82-.18-.65-.13c-.22,0-.44-.09-.66-.12l-.9-.16-.69-.12c-.57-.12-1.21-.26-1.81-.44h-.06a5.43,5.43,0,0,1-1.71-.73.88.88,0,0,1-.24-.23c-.12-.18-4-3.29-5.23-4.54-.41-.41-15.93-.29-15.93-1.88v-1.27S227.49,450.61,226.46,459.87Z"/>
          </g>
          <g>
            <path class="cls-34" d="M165,462.37s11.4,6.52,14.66,2.88-3.7,20.34-10.33,26.18-28.53-2.67-18.48-14.43S163.18,464.31,165,462.37Z"/>
            <path class="cls-35" d="M165.9,458.1S167,462,179.67,462c2.3,0-3.72,19.27-9.8,25.12s-26.5-2.14-17.28-13.9S164.22,460,165.9,458.1Z"/>
          </g>
        </g>
        <polygon class="cls-36" points="212.69 353.41 212.69 362.25 232.36 360.11 233.03 351.18 212.69 353.41"/>
        <g>
          <ellipse class="cls-9" cx="422.44" cy="479.51" rx="95.33" ry="12.5"/>
          <g>
            <path class="cls-13" d="M375.6,416.19c-.1,1.05,1,32.28-1.3,41.65-1.56,6.29-30.69,10.59-14.72,18.54,9.73,4.84,36.49-2.65,36.22-7.93-.5-9.88,2.61-43,5.05-52.67"/>
            <path class="cls-37" d="M375.6,416.19c-.05.56-.07,20.49-.07,20.49l22.12,1.1s4.78-16,3.2-22"/>
            <path class="cls-30" d="M397,441l-20.86-1.41a1.33,1.33,0,0,1-1.35-1.33l.07-.7a1.4,1.4,0,0,1,1.58-1.13l20.87,1.41a1.33,1.33,0,0,1,1.34,1.33l-.06.7A1.42,1.42,0,0,1,397,441Z"/>
            <path class="cls-34" d="M345.88,479.15s-3.58,1.77-.24,5.14,38.6,1.18,43.71.5c6.33-.84,8.73-.89,8.73-.89s2.72-1.89.36-5.15"/>
            <path class="cls-35" d="M361.34,465.86a3.63,3.63,0,0,0,2.36,3.25c2.46,1.15,20.38.69,24.7-.75a32.2,32.2,0,0,0,8.24-4.48s4.87,3.34,1.75,15.93c0,0-21.49,2.44-24,2.36s-23.31,1.89-27.57-2c-3.61-3.3-2.16-7.48,6.83-11.41S361.34,465.86,361.34,465.86Z"/>
          </g>
          <g>
            <path class="cls-13" d="M464.13,414c.41,1,16.09,28,18.46,37.36,1.58,6.29-22.09,23.79-4.26,23.29,10.86-.31,30.95-19.52,28.22-24.05-5.09-8.49-17.95-39.2-20.34-48.85"/>
            <path class="cls-37" d="M464.13,414c.22.52,9.58,18.11,9.58,18.11l20-9.44s-3.31-16.37-7.53-20.92"/>
            <path class="cls-30" d="M494.64,425.83l-19.08,8.58a1.32,1.32,0,0,1-1.81-.55l-.27-.64a1.43,1.43,0,0,1,.86-1.75l19.08-8.57a1.32,1.32,0,0,1,1.81.54l.27.65A1.41,1.41,0,0,1,494.64,425.83Z"/>
            <path class="cls-34" d="M463.33,479.79s.26,2.19,4.79,3.59,22.73-4.79,40.44-15.3a50.87,50.87,0,0,0,7.28-4.89s1.51-3-2.11-4.72"/>
            <path class="cls-35" d="M474.93,464.57a3.63,3.63,0,0,0,3.61,1.76c2.71-.15,18.31-9,21.44-12.29a32.09,32.09,0,0,0,5.16-7.83s5.87.65,9.05,13.22c0,0-17.81,12.28-20.07,13.38s-22.81,9.59-28.39,8.17c-4.74-1.2-7.18-4.78,1.19-10.76C472.17,466.47,474.93,464.57,474.93,464.57Z"/>
          </g>
          <g>
            <path class="cls-38" d="M380.35,408.59s8,5.31,10.75,6.91a37.6,37.6,0,0,0,12,4.54s.67-4.22,0-5.33c-1-1.58-22.25-11.5-22.25-11.5Z"/>
            <g>
              <path class="cls-14" d="M375,424.4s-2.36-15.37,8-42.46c4.55-11.95,26.89-37.12,26.89-37.12l54.86-3.93,25.53,65.89s-23.91,27.68-65.23,22.76C374.8,423.56,375,424.4,375,424.4Z"/>
              <path class="cls-39" d="M398.66,364.81s9.21,4.56,13.19,22.47,32.27-11.81,57.16,0a41.15,41.15,0,0,0-38.91.48C409.56,399.1,416.75,370.52,398.66,364.81Z"/>
            </g>
            <ellipse class="cls-40" cx="375.32" cy="278.94" rx="3.32" ry="15.32"/>
            <g>
              <path class="cls-14" d="M372,263.8s31.16-1.51,41.24,0c0,0,20.27-4.26,35.17-.18,0,0,15.26,7.55,14.58,21.25-.59,11.71,2.94,30.55,2.17,54.61a8.67,8.67,0,0,1-6.37,8c-11.79,3.17-37.93,8.28-50.82-4.32l-12.37-47.2-20.16-2S378.87,281.62,372,263.8Z"/>
              <line class="cls-41" x1="396.87" y1="300.82" x2="393.38" y2="282.54"/>
            </g>
            <g>
              <path class="cls-42" d="M376.27,286.64c-1.44,0-2.89-.09-4.31-.22a67.68,67.68,0,0,1-14.17-3c-15.32-9.89-25-29-30.39-38.52-4.16-5.44,6.4-11.71,6.4-11.71,7.33,10.29,29,28.61,29,28.61l5.35,1.08,5.95,1.21Z"/>
              <path class="cls-43" d="M376.27,286.64c-1.44,0-2.89-.09-4.31-.22a111.61,111.61,0,0,0-3.78-23.58l5.95,1.21Z"/>
              <path class="cls-42" d="M362.83,261.76s-4.58,1.27-3.67,9"/>
              <g>
                <path class="cls-10" d="M337.59,236.81c3.49-6.52-1.34-14.75-1.34-14.75"/>
                <path class="cls-42" d="M336.28,238.11s2.61-23.47-5.21-30c-4.22-3.52-6.27-1.64-6.62,2.89,0,0-6.47-1.2-6.51,4.16,0,0-6.52-.44-4.82,4,0,0-3.17-.11-1.67,3.74s13.32,19.16,15.7,20.46"/>
                <path class="cls-42" d="M336.08,237.79s5-3.76,5.23-12.43c.19-8.17-4.24-7.47-6.64-8.87s-6.48-4.37-4.19,1.72,4.56,3,.9,8.76-1.41,3.69-2.11,6"/>
                <path class="cls-42" d="M324.45,211c-.12,1.66,4.73,9.06,4.73,9.06"/>
                <path class="cls-42" d="M317.94,215.17s3.19,7,6.4,7.91,7.24-.68,4.84-3"/>
                <path class="cls-42" d="M313.25,218.68s3.2,6.95,6.41,7.91,7.24-.68,4.84-3"/>
                <path class="cls-44" d="M310.7,221.8s3.19,6.95,6.4,7.91,7.24-.68,4.84-3"/>
              </g>
            </g>
            <g>
              <path class="cls-45" d="M410.13,253.36c-6.37.94-1.42,26.6,20.3,14.31,0,0,3.37-1,4.38-6.11l-.24-17.31s-21.33-7.67-25.48,8.9"/>
              <g>
                <g id="face">
                  <path class="cls-38" d="M418,262s20.41-3.56,19.71-14.75l-4.95.56-15,9.16Z"/>
                  <path class="cls-46" d="M368.54,185.57a32.85,32.85,0,0,0-.5,30.67c.82,1.64,2.82,4.07,3.27,6,3.19,13.88,8.87,32.91,37.49,38.14,18.22,3.33,30.86-12.85,37.64-24.54a30.58,30.58,0,0,0,1.8-27.61s13.5-8.82,4.43-8.6-1.84,2.64-1.84,2.64l-2-2.35s-19.22-4.51-39.14-22.32c0,0-19.77-9.92-23.57-14.43A39.48,39.48,0,0,0,373.4,177C371.9,179.8,370.18,182.62,368.54,185.57Z"/>
                </g>
                <path class="cls-38" d="M376.58,176.39s7,25.1,36.17,5.78c0,0-25.53,5.86-34.68-7.42"/>
                <ellipse class="cls-47" cx="434.58" cy="136.55" rx="19.03" ry="17.47"/>
                <path class="cls-47" d="M381.85,166.6s-2-3.67,21.86,7.89l6,3.13s10.09,9.46,15.14,12.7,12.93,2.57,19.86,15.2l6.11-3.23s-1.23-8.49,5.83-9.89S452.11,198,452,205.51c-.08,5.49,11.18,8.71-1.27,11.69,0,0-.35,14.24-6.12,21.26l-10,12.95.23,10.15s15,4.08,27.05,3.57c0,0,17.77-5.76,14.27-36-.54-4.72-25.07-110.92-67.71-92.8,0,0-19.32,4-31.27,16.19s-22.26,10.12-25,34.18c0,0,0,25.41,18,34.28l-5.49-16.26s-.76-13.44,10.28-30.24c0,0,7.49-9.64,11.23-11.24C386.15,163.19,380.35,167.86,381.85,166.6Z"/>
                <path class="cls-48" d="M370.81,158s25.55-19.43,40.93-14.45c15.94,5.15,24.66,16.41,42.67,50.64l4.22.48s-22.25-71.84-65.69-52.9C392.94,141.74,378.47,148.69,370.81,158Z"/>
                <path class="cls-47" d="M374.49,162.81s-2.48,32.76,36.07,19.92c0,0-19.05-3.45-24.69-24.76a56.18,56.18,0,0,0-6.36,2.2"/>
                <path class="cls-47" d="M373.41,168.73s-12,14.11,9.85,21a18.91,18.91,0,0,1-3.06-19.46,30.43,30.43,0,0,0-3.63-1.1"/>
              </g>
              <g>
                <g>
                  <path class="cls-46" d="M445.47,198.68c1.07-5.6,4-7.65,7-8.23,3.93-.77,7,2.05,8.48,8.3s1.3,9.84-1.94,15.1-5,7.93-10.94,6.46"/>
                  <path class="cls-49" d="M448.59,217.84a3,3,0,0,0,1.77-.85,12.42,12.42,0,0,0,1.41-1.4,6.23,6.23,0,0,0,1.47-3.74,6.1,6.1,0,0,0-1.17-3.85,5.91,5.91,0,0,0-1.72-1.55c.1-.51.23-1,.36-1.53a38.09,38.09,0,0,1,1.28-4,8.46,8.46,0,0,1,1.95-3.5,2.37,2.37,0,0,1,1.78-.59,1.81,1.81,0,0,1,1.62,1,1.86,1.86,0,0,0-1.57-1.35,2.68,2.68,0,0,0-2.14.52,7.94,7.94,0,0,0-2.27,3.66,26,26,0,0,0-1.15,4.08c-.08.47-.15,1-.22,1.44,0,.08,0,.15,0,.25a2.51,2.51,0,0,1,.32.25,6.19,6.19,0,0,1,2.29,5.07,6.32,6.32,0,0,1-1.21,3.46,15.59,15.59,0,0,1-1.22,1.47A3.14,3.14,0,0,1,448.59,217.84Zm8.3-7.28a41,41,0,0,1-2.61,3.36,19.87,19.87,0,0,0,3-3.06,8.33,8.33,0,0,0,1.76-4,7.63,7.63,0,0,0-.88-4.29,17.1,17.1,0,0,0-2.48-3.51,32,32,0,0,1,2,3.73,7.81,7.81,0,0,1,.68,4A8.65,8.65,0,0,1,456.89,210.56Z"/>
                </g>
                <circle class="cls-50" cx="451.44" cy="219.01" r="2.84"/>
              </g>
              <g>
                <g>
                  <ellipse class="cls-51" cx="382.19" cy="216.81" rx="7.29" ry="7.95" transform="translate(-49.85 296.89) rotate(-40.07)"/>
                  <ellipse class="cls-52" cx="380.64" cy="216.81" rx="4.46" ry="4.57" transform="translate(-50.22 295.89) rotate(-40.07)"/>
                  <ellipse class="cls-53" cx="378.93" cy="212.53" rx="0.91" ry="0.93" transform="translate(-47.86 293.79) rotate(-40.07)"/>
                </g>
                <g>
                  <ellipse class="cls-51" cx="408.52" cy="207.21" rx="7.83" ry="8.02" transform="matrix(0.77, -0.64, 0.64, 0.77, -37.5, 311.59)"/>
                  <ellipse class="cls-52" cx="406.43" cy="207.21" rx="4.95" ry="5.07" transform="translate(-37.99 310.24) rotate(-40.07)"/>
                  <ellipse class="cls-53" cx="404.87" cy="203.19" rx="0.92" ry="0.94" transform="translate(-35.76 308.3) rotate(-40.07)"/>
                </g>
              </g>
              <g>
                <path class="cls-18" d="M415.45,193.1c-6,4.28-14.19,15.55-20.65,10.92"/>
                <path class="cls-18" d="M367.64,208c6.37.49,17.66,3.76,20.17-.13"/>
              </g>
              <path class="cls-46" d="M391.78,215.24s2.34,3.55-.34,9.19,4.1,9.91,9.35,2.53"/>
              <path class="cls-54" d="M395.71,245.24c2.48-3.43,11.89-14.71,20.77-2.56,0,0-13.46-3.06-20.58,2.74A.13.13,0,0,1,395.71,245.24Z"/>
            </g>
          </g>
          <g>
            <path class="cls-31" d="M465.65,335.06l1.5,9.43s-7.51,10.75-29.1,11.92-34.1-9.13-34.1-9.13l1.12-9.49s12.6,9.95,27.32,10.38C461,349,465.65,335.06,465.65,335.06Z"/>
            <path class="cls-14" d="M426.92,348.85h0c-.06.33.43,7.2.45,7.57,0,0,0,0,0,0l2.69.43s0,0,0,0l-.43-7.86A16.34,16.34,0,0,0,426.92,348.85Z"/>
            <path class="cls-14" d="M449.69,346c-.32.05-2.21.88-2.21.88s.9,8.32.9,8.32l2.84-1Z"/>
          </g>
          <path class="cls-13" d="M372,263.8s31.16-1.51,41.24,0l-17.64,32.14-20.16-2S378.87,281.62,372,263.8Z"/>
          <path class="cls-13" d="M434,257.86a14,14,0,0,1-7.86,9.11c-6.49,2.85,3.08,8.83,3.08,8.83s9.57-7.17,9.57-10.76-2.82-6-4.79-7.18"/>
          <g>
            <g>
              <g>
                <g>
                  <g>
                    <g>
                      <path class="cls-55" d="M403.59,311.81s4.35,1.25,4.78,6.88-2,10.7,1.35,20.21c2.12,5.94-3.58,12.49-15,11.59S391.27,319.55,403.59,311.81Z"/>
                      <path class="cls-56" d="M408.37,318.69a28.7,28.7,0,0,1-.13,4.72c-8.39,2.58-7.65,17.6-9.21,27a25.09,25.09,0,0,1-4.35,0c-11.45-.89-3.41-30.94,8.91-38.68C403.59,311.81,407.94,313.06,408.37,318.69Z"/>
                      <path d="M403.71,311.41l-.34,0c-9.71,6.09-16.44,25-14.19,34.13.8,3.26,2.69,5.1,5.47,5.32,6.36.5,11.55-1.23,14.24-4.75a7.71,7.71,0,0,0,1.23-7.41,30.63,30.63,0,0,1-1.52-14.65,33.23,33.23,0,0,0,.19-5.45h0A7.92,7.92,0,0,0,403.71,311.41Zm-13.71,34c-2.15-8.69,4.56-27.22,13.66-33.1.78.27,3.93,1.68,4.29,6.43a31.79,31.79,0,0,1-.19,5.32,31.31,31.31,0,0,0,1.57,15,6.83,6.83,0,0,1-1.1,6.62c-2.52,3.29-7.44,4.9-13.51,4.42h0C392.3,349.88,390.71,348.31,390,345.39Z"/>
                    </g>
                    <path d="M406.51,318.82a38.22,38.22,0,0,1-.55,5.11,53.42,53.42,0,0,0-.74,7.79,16.85,16.85,0,0,0,1.29,6.92c.71,2.05,1.37,4,.93,5.81a7.13,7.13,0,0,1-2.8,4.75l0,0-.17,0-.05-.17c0-.12,0-.2.21-.39a8.05,8.05,0,0,0,2.13-4.36c.37-1.56-.24-3.27-1-5.25a17.66,17.66,0,0,1-1.42-7.37,50.19,50.19,0,0,1,.85-8.22,37.58,37.58,0,0,0,.58-4.68,5.75,5.75,0,0,0-1.36-4.64c-.11-.12-.18-.19-.13-.31l.06-.2.22.08C404.92,313.88,406.77,315.49,406.51,318.82Z"/>
                  </g>
                  <path class="cls-57" d="M407.85,334.62c-1.34-5.51-.06-10.16-.29-10.16s-1.74,4.58-.35,10.32c.91,2.81,1.91,5.08,1.8,7a6.57,6.57,0,0,1-.63,2.86c.06.1,1-.88,1.1-2.85S408.69,337.22,407.85,334.62Z"/>
                </g>
                <g>
                  <path class="cls-55" d="M378.58,337.6s13.16-3.72,16.5,7.81c2.71,9.37-5.42,15.39-4.75,22.3,0,0,6.25,1.3,7.2,6.76,1.73,10-26.75,23.77-31.62.36-1.36-6.54,2.48-10,0-17.74C362.28,346,370,339.48,378.58,337.6Z"/>
                  <path class="cls-56" d="M390.66,364.24a10.36,10.36,0,0,0-.35,3.18c-2.84,0-5.49-.56-8-.31A15.84,15.84,0,0,1,390.66,364.24Z"/>
                  <path class="cls-56" d="M395.08,345.41c1.24,4.3.2,7.9-1.23,11.2-8.48,7-13.49,7.16-21.71,7-2.87,1.25-2.63,9.69,2.39,10.24,7.61.67,16.75-4,23,.7,1.59,10-26.77,23.63-31.62.28-1.36-6.54,2.48-10,0-17.74-3.6-11.08,4.13-17.61,12.7-19.49C378.58,337.6,391.74,333.88,395.08,345.41Z"/>
                  <path d="M390.51,367.75c-.05.23-.22.21-1.32.08l-2.87-.26-2.92,0c-1,0-1.23,0-1.27-.21l0-.08.06-.08a9.35,9.35,0,0,1,4.19-.49,9.62,9.62,0,0,1,4.12.89l0,.07Z"/>
                  <path d="M397.87,374.41a7.76,7.76,0,0,0-2.61-4.56,11.93,11.93,0,0,0-4.58-2.41c-.18-2.76,1.05-5.43,2.38-8.25,1.85-3.92,3.95-8.37,2.35-13.88a11.65,11.65,0,0,0-3.46-5.72c-5.2-4.58-13.36-2.36-13.46-2.33h0c-5.52,1.21-10,4.13-12.2,8-2,3.42-2.22,7.44-.76,11.92a18.1,18.1,0,0,1,.28,10,18.51,18.51,0,0,0-.27,7.72c2,9.77,8.7,14.55,17.84,12.81C391.75,386.12,398.78,379.66,397.87,374.41Zm-19.21-36.47h0c.52-.14,12.86-3.48,16.06,7.57,1.52,5.26-.43,9.39-2.31,13.39-1.41,3-2.75,5.81-2.45,8.85a.35.35,0,0,0,.28.31c.06,0,6,1.33,6.92,6.48.83,4.81-6.06,11-13.91,12.49-4.18.8-14.22,1.2-17-12.26a17.69,17.69,0,0,1,.27-7.45,18.72,18.72,0,0,0-.3-10.33c-1.4-4.28-1.16-8.1.7-11.36C369.05,341.91,373.33,339.11,378.66,337.94Z"/>
                </g>
                <g>
                  <g>
                    <path class="cls-55" d="M395.06,278c-3.35,10.83-1.06,30,14.59,36.21,0,0-11,2.91-11.37,18.21s-4.82,26.52-21.36,27.41-41-24.32-15.44-55C384.18,277.53,395.06,278,395.06,278Z"/>
                    <g>
                      <path class="cls-58" d="M376.05,339.5c2.61-15.34,6.77-31.33,19.83-39.81a24.17,24.17,0,0,0,13.77,14.48s-11,2.91-11.37,18.21-4.82,26.52-21.36,27.41c-4.47.24-9.53-1.43-14-4.6C369.56,352.11,375.12,347.16,376.05,339.5Z"/>
                      <path class="cls-59" d="M409.65,314.17a14.7,14.7,0,0,0-6.22,4c-6.44-2.37-11-6.95-14.51-12.43a32.68,32.68,0,0,1,7-6.09A24.17,24.17,0,0,0,409.65,314.17Z"/>
                      <path d="M396.11,300c-5.77,3.74-10.17,9.19-13.47,16.66a.42.42,0,1,1-.76-.34c3.37-7.62,7.87-13.19,13.77-17a.42.42,0,0,1,.58.12A.43.43,0,0,1,396.11,300Z"/>
                      <path d="M380.65,321.87a118,118,0,0,0-4.19,17.7.43.43,0,0,1-.48.35.42.42,0,0,1-.34-.49,119.09,119.09,0,0,1,4.22-17.83.41.41,0,0,1,.52-.26A.43.43,0,0,1,380.65,321.87Z"/>
                    </g>
                    <path class="cls-56" d="M396.65,301.56c-3.59,1.89-8.48-.67-12.73-2.16-2.06-.82-1.71,3.13-3.15,3.76-2.87,1.24-5.73-3-7.17-2.36-20.39,8.51-23.55,36.39-15.12,50.54-9.28-9.78-13.23-27.06,3-46.54,22.7-27.27,33.58-26.84,33.58-26.84A35.07,35.07,0,0,0,396.65,301.56Z"/>
                    <path d="M361.75,305c-15,18-11.42,32.18-8,39.05,4.63,9.22,14.57,15.84,23.12,15.37,14.13-.76,20.62-9.1,21-27.07.3-12.93,8.21-17.19,10.8-18.24a23.4,23.4,0,0,1-7.38-5c-7.54-7.65-9.05-19.64-7.34-28.35l.76-.28c-2.32,11,.65,27.65,15,33.37a.37.37,0,0,1,.22.35.36.36,0,0,1-.26.32c-.11,0-10.77,3-11.11,17.88-.28,12.39-3,26.75-21.69,27.75-9,.49-19-6.14-23.79-15.76-3.52-7-7.16-21.53,8.06-39.81,2.64-3.17,5.12-6,7.44-8.43l.43.58C366.79,299.15,364.35,301.9,361.75,305Z"/>
                  </g>
                  <path class="cls-60" d="M399.83,320.08s-3.21,5-3,16.37-5.71,18.06-12.85,19.79c0,0,9.24-4.93,9.93-14.65C394.49,333.15,395.61,324.75,399.83,320.08Z"/>
                </g>
                <g>
                  <path class="cls-55" d="M368.05,331.62s13,4.27,9.29,15.7c-3,9.29-13.1,9.73-16.41,15.82,0,0,4.45,4.59,2.18,9.64-4.17,9.27-35.46,4.73-26.41-17.39,2.54-6.19,7.67-6.91,9.91-14.72C349.83,329.47,359.88,328.38,368.05,331.62Z"/>
                  <path class="cls-61" d="M372.34,352.33c1.81-3.54,4.41-6.87.11-12.05-1.25-1.77.39-3.61,1.55-2.31C378.1,341.85,376.79,348.7,372.34,352.33Z"/>
                  <path class="cls-56" d="M354.68,358.31a15.73,15.73,0,0,1,7.93,2.65A9.31,9.31,0,0,0,361,363C359.3,360.79,357.07,359.58,354.68,358.31Z"/>
                  <path class="cls-56" d="M345.41,359.49c.8,3.41,6.45,5.41,10.48,6.05,2.9.46,6.71,2.65,7.69,5.77a6.76,6.76,0,0,1-.47,1.47c-4.17,9.27-35.46,4.73-26.41-17.39,2.54-6.19,7.67-6.91,9.91-14.72S354.31,330,360.18,330C351.3,337.47,343.55,348.69,345.41,359.49Z"/>
                  <path d="M361.06,363.29c-.18.16-.3,0-1.14-.68l-2.23-1.83-2.41-1.65c-.86-.54-1-.66-.94-.88l0-.08.1,0a9.31,9.31,0,0,1,3.75,1.94c1.6,1.2,2.91,2.7,2.91,3v.09Z"/>
                  <path d="M353.89,331.75c-3.36,1.65-5.7,4.68-6.94,9a18.65,18.65,0,0,1-5.53,8.72,17.76,17.76,0,0,0-4.39,6c-5.21,12.72,3.33,18,7.25,19.69,7.34,3.15,16.51,1.88,18.51-2.57,2.15-4.77-2.06-9.21-2.11-9.25a.33.33,0,0,1-.05-.41c1.45-2.68,4.14-4.28,7-6,3.79-2.26,7.61-4.63,9.4-9.8,3-8.66-6.86-15.06-6.86-15.06,2.52,1.27,6.66,4,7.87,8.6a11.83,11.83,0,0,1-.34,6.67c-1.76,5.46-6,8-9.71,10.19-2.68,1.6-5.2,3.12-6.59,5.51a12.07,12.07,0,0,1,2.44,4.56,7.73,7.73,0,0,1-.39,5.24c-2.18,4.86-11.62,6.28-19.43,2.93-8.55-3.67-11.4-11.37-7.62-20.6a18.75,18.75,0,0,1,4.54-6.25,18.11,18.11,0,0,0,5.36-8.43c1.3-4.53,3.75-7.71,7.3-9.45a15.5,15.5,0,0,1,8.12-1.37S356.09,330.66,353.89,331.75Z"/>
                </g>
                <g>
                  <path class="cls-62" d="M394.55,279.87a2.93,2.93,0,0,1,.39,2.58,2.78,2.78,0,0,1-1,1.27c-.21,2,1.74,12.32-4.87,14.33-2.88.49-5.39-3.64-7.25-1.43-1.86,2.89-3.46,4.34-6.08,2.15-2.63-1.68-4,.47-5.88-1.12a3.11,3.11,0,0,1-.93-1.27l0-.06c-1.36-.62-1.26-3.49-.83-4.68a3.15,3.15,0,0,1,1.41-1.68c1-.77.85-.2,1.24-1.48a7.18,7.18,0,0,1,3.6-5c1-.45,1.54-.19,2.27-.38.91-.27.61-.18,1.2-1.29,1.07-2,3.32-4.64,5.78-4.17.63.06,1.5.8,2.07.81.75.06.76-.5,1.47-.94,1.51-1,4-.45,5.83.79C394.37,277.93,394.7,279.21,394.55,279.87Z"/>
                  <path class="cls-2" d="M386.51,281.4c-3.08-2.82-8.12.21-8.62,4.41-2.93-.76-6.18,1.29-6.77,3.76a9.12,9.12,0,0,0,.24,1.61,7.91,7.91,0,0,0-3.45,1.48,4.88,4.88,0,0,1,.22-1,3.15,3.15,0,0,1,1.41-1.68c1-.77.85-.2,1.24-1.48a7.18,7.18,0,0,1,3.6-5c1-.45,1.54-.19,2.27-.38.91-.27.61-.18,1.2-1.29,1.07-2,3.32-4.64,5.78-4.17.63.06,1.5.8,2.07.81.75.06.76-.5,1.47-.94a3.67,3.67,0,0,1,2.13-.5A7.35,7.35,0,0,0,386.51,281.4Z"/>
                  <path class="cls-63" d="M394.55,279.87a2.93,2.93,0,0,1,.39,2.58,2.78,2.78,0,0,1-1,1.27c-.21,2,1.74,12.32-4.87,14.33-2.88.49-5.39-3.64-7.25-1.43-1.86,2.89-3.46,4.34-6.08,2.15-2.63-1.68-4,.47-5.88-1.12a3.11,3.11,0,0,1-.93-1.27l0-.06a2.62,2.62,0,0,1-1.09-2.29c2.42,1.38,4.95.42,7.19.67a10,10,0,0,1,4.12,1.63c2.16-3.67,5.75-3.58,9-.88a21.2,21.2,0,0,1,2.29-18.26,7.43,7.43,0,0,1,2.56,1.13C394.37,277.93,394.7,279.21,394.55,279.87Z"/>
                  <g>
                    <path d="M370.55,297.5c.78.2,2-.28,3.65-.31,1.87.5,2.53,1.54,3.43,1.63s1.34-.15,1.44,0-.35.74-1.53.73-2.45-1.12-3.42-1.32c-1.25,0-2.72.44-3.83-.05s-.81-1.59-.78-1.51C369.71,296.6,369.84,297.33,370.55,297.5Z"/>
                    <path d="M381.24,296.65c.71-1.23,2.74-1,4.09-.33,2.73,2.15,4.49,1,4.76,1,0,0-.18.77-1.34,1.12s-2.63-.55-3.88-1.17c-2.82-1.85-3.92,1.31-4.33.89C380.48,298,380.7,297.61,381.24,296.65Z"/>
                    <path d="M368.51,292.09c-1,1.44.28,3.06-.12,3.19,0,.24-2.07-1.26-.8-3.7,1.34-2.05,3.43-2.05,3.38-1.83S369.45,290.6,368.51,292.09Z"/>
                    <path d="M385.46,279.49a4.86,4.86,0,0,0-2.71-1c-1.79-.41-3.84,1.67-4.83,4.18-.16.25-.2.89-.84,1.18s-.83,0-1.19.14a5.36,5.36,0,0,0-1.76.37,7.21,7.21,0,0,0-2.57,1.78c-1.34,1.34-.61,2.6-.84,2.64,0,.19-1.16-1.31.26-3.1a7.14,7.14,0,0,1,2.76-2.21c1.07-.83,3.41,0,3.19-1.18,1.06-2.76,3.61-5.2,5.91-4.54C384.93,278,385.67,279.47,385.46,279.49Z"/>
                    <path d="M391.89,277.26c-.14.2-1.33.1-2.92.43s-2.51,1.21-2.76,1,.6-1.62,2.53-2S392.09,277,391.89,277.26Z"/>
                  </g>
                </g>
                <g>
                  <g>
                    <g>
                      <path class="cls-55" d="M436.58,277.76s9.32-.3,12.47,8.22-4.13,13.9-8.94,14.79S441.72,290.37,436.58,277.76Z"/>
                      <path d="M436.57,277.34a.39.39,0,0,0-.34.19.44.44,0,0,0,0,.39c2.71,6.64,2.15,13,1.78,17.24-.25,2.92-.42,4.84.5,5.68a1.9,1.9,0,0,0,1.72.35,13.25,13.25,0,0,0,4.77-2,12.51,12.51,0,0,0,4-4.15,10.63,10.63,0,0,0,.53-9.18C446.22,277.09,436.67,277.33,436.57,277.34ZM439,300.22h0c-.62-.56-.44-2.52-.23-5,.37-4.15.9-10.39-1.63-17,1.91.1,8.89.92,11.48,7.93a9.67,9.67,0,0,1-.48,8.46,12.54,12.54,0,0,1-8.15,5.77A1.12,1.12,0,0,1,439,300.22Z"/>
                    </g>
                    <path class="cls-57" d="M443.91,298.39s8.46-5.17,3.92-13.48C445.87,281.32,449.68,292.21,443.91,298.39Z"/>
                  </g>
                  <g>
                    <path class="cls-55" d="M395,262.28c-12.85,9.14-15.35,27.65-5.6,41.36s28.06,17.43,40.9,8.3,15.35-27.65,5.6-41.36S407.87,253.15,395,262.28Z"/>
                    <path class="cls-13" d="M436.26,270.34c-9.87-13.88-28.47-17.65-41.48-8.4s-15.56,28.07-5.69,41.94,28.48,17.65,41.48,8.4S446.13,284.22,436.26,270.34Zm-46.5,33.07a30.89,30.89,0,0,1-5.58-22.09,27,27,0,0,1,11.09-18.69c12.64-9,30.73-5.32,40.33,8.18s7.12,31.8-5.51,40.79S399.36,316.91,389.76,303.41Z"/>
                  </g>
                  <path d="M432.13,296.85a3.29,3.29,0,0,0-3.83-.87c-.08.3,2.05-.29,3.36,1.23,1.08,1.67.45,3.62.68,3.59A3.73,3.73,0,0,0,432.13,296.85Z"/>
                  <path d="M411.81,278.49a3.28,3.28,0,0,0-3.92.18c0,.32,1.89-.83,3.56.29,1.48,1.32,1.4,3.37,1.62,3.28A3.74,3.74,0,0,0,411.81,278.49Z"/>
                  <path d="M423.46,302.79a1.79,1.79,0,1,0,2.82-.31A2,2,0,0,0,423.46,302.79Z"/>
                  <path d="M405,285.61a2,2,0,1,0,3.09-.29A2.23,2.23,0,0,0,405,285.61Z"/>
                  <path class="cls-64" d="M427.27,284.61h0a21.36,21.36,0,0,1-8,11.2,19.82,19.82,0,0,1-4.47,2.4l-.53.22v-.34c0-.18.23-.29.9-.65a22,22,0,0,0,11.2-13.28c1.84-6.22,1.36-13.53-1.36-20.57-.17-.43-.2-.5-.05-.59l.12-.08.12.09C425.65,263.37,430.52,273.58,427.27,284.61Z"/>
                  <g>
                    <g>
                      <path class="cls-58" d="M396.53,296c-4.41,4.59-3.41,12.31,2.25,17.26s13.82,5.24,18.23.65,3.41-12.31-2.24-17.26S401,291.37,396.53,296Z"/>
                      <path class="cls-59" d="M398.15,304.51c1.25,7.23,6.31,11.32,12.61,12.47a15.13,15.13,0,0,1-12-3.77c-5.66-4.95-6.66-12.67-2.25-17.26a11,11,0,0,1,7.19-3.21C399.92,295.41,397.18,298.87,398.15,304.51Z"/>
                      <path d="M415.05,296.29c-5.8-5.07-14.23-5.34-18.8-.6a10.46,10.46,0,0,0-2.85,7.8,14.4,14.4,0,0,0,5.09,10,15.65,15.65,0,0,0,12.07,3.89,11.28,11.28,0,0,0,6.74-3.29,10.31,10.31,0,0,0,2.86-6.69A14.18,14.18,0,0,0,415.05,296.29Zm-20.85,7.09a9.58,9.58,0,0,1,2.62-7.17c4.25-4.42,12.17-4.1,17.66.7a13.44,13.44,0,0,1,4.87,10.56,9.44,9.44,0,0,1-2.62,6.14,10.34,10.34,0,0,1-6.2,3,14.87,14.87,0,0,1-11.46-3.72h0A13.64,13.64,0,0,1,394.2,303.38Z"/>
                    </g>
                    <path d="M403,303.39a2.4,2.4,0,0,0-.34.36,4.4,4.4,0,0,0-.93,2.19,3.48,3.48,0,0,0,1.15,3h0l.11.09a3.69,3.69,0,0,0,3.25.77,4.93,4.93,0,0,0,.87-.29,4.45,4.45,0,0,0-.48,2.19,2.51,2.51,0,0,0,.8,1.65l0,0a2.71,2.71,0,0,0,1.5.63,2.86,2.86,0,0,0,1.38-.25,5.89,5.89,0,0,0,1.77-1.26l.16-.17h0s.05,0,.06-.05a.35.35,0,0,0,0-.49.34.34,0,0,0-.21-.08H412l-.09.05-.05,0-.07.06-.17.17a4.44,4.44,0,0,1-.57.51,3.18,3.18,0,0,1-1.76.76,1.94,1.94,0,0,1-1.33-.47,1.73,1.73,0,0,1-.56-1.14,3.12,3.12,0,0,1,.17-1.3,6.55,6.55,0,0,1,.85-1.67l0,0s0,0,0-.05l0-.05v-.08s0,0,0-.05h0a.24.24,0,0,0,0-.08s0,0,0,0a.25.25,0,0,0-.08-.1.33.33,0,0,0-.38,0s-.05,0-.07.06h0l-.05,0-.16.13a5,5,0,0,1-.63.37,3.58,3.58,0,0,1-2,.4,3.05,3.05,0,0,1-1.59-.69l-.09-.08a2.76,2.76,0,0,1-.92-2.38,3.69,3.69,0,0,1,.77-1.83,1.74,1.74,0,0,1,.24-.24.36.36,0,0,0-.44-.56Zm9.25,8.94h0Zm-4.44-4Zm.05-.06Zm0,0Z"/>
                    <path d="M406.84,304.08h0c-1,1.15-.4,3.16,1.26,4.59s3.71,1.66,4.66.52.4-3.15-1.26-4.58S407.79,303,406.84,304.08Z"/>
                    <path class="cls-65" d="M412.07,306.85h0c-.3.08-.45.49-.34.93s.42.73.72.65.45-.48.34-.92S412.37,306.78,412.07,306.85Z"/>
                  </g>
                  <g>
                    <g>
                      <g>
                        <path class="cls-66" d="M413.21,261.47s-9.3,0-13.16,3.42c0,0,.54-6.95,4.63-7.79S413.21,261.47,413.21,261.47Z"/>
                        <path d="M404.6,256.69c-4.36.89-4.94,7.87-5,8.17a.43.43,0,0,0,.24.41.41.41,0,0,0,.46-.06c3.64-3.22,12.5-3.31,12.88-3.32a.44.44,0,0,0,.38-.24.43.43,0,0,0-.06-.45C413.34,261,408.9,255.8,404.6,256.69Zm-4,7.31a13.52,13.52,0,0,1,1.31-4.08,5.92,5.92,0,0,1,1.14-1.51,3.63,3.63,0,0,1,1.72-.9c3-.61,6.2,2.28,7.48,3.57C409.94,261.17,404.06,261.65,400.6,264Z"/>
                      </g>
                      <g>
                        <path class="cls-55" d="M410.87,260.59c.4.32,1.71,1.35,2.87,1.09,1.73-.39,4.22-1.26,4.21-5.35,0-6.33-10.13-13.49-18.56-9.35s-8.61,13.7-4.34,17.11,6,.52,7.42-2.94C403.69,258.09,407.76,258.11,410.87,260.59Z"/>
                        <path d="M412.48,247.63a13.7,13.7,0,0,0-13.28-1,12.46,12.46,0,0,0-7.25,9.8,9,9,0,0,0,2.84,8c1.7,1.35,3.14,1.85,4.41,1.51a3.32,3.32,0,0,0,1.41-.8,10.6,10.6,0,0,0,2.25-3.82,3.28,3.28,0,0,1,.82-1.22,3.22,3.22,0,0,1,1.39-.74,6.62,6.62,0,0,1,5.54,1.57,4,4,0,0,0,3.22,1.17,6.34,6.34,0,0,0,3-1.39,5.53,5.53,0,0,0,1.57-4.37C418.36,253.26,416.05,249.85,412.48,247.63Zm-19.69,8.87a11.59,11.59,0,0,1,6.79-9.14,12.83,12.83,0,0,1,12.46,1c3.33,2.07,5.48,5.2,5.49,8,0,3.57-2,4.49-3.88,4.93a3.33,3.33,0,0,1-2.52-1,7.45,7.45,0,0,0-6.28-1.72,3.94,3.94,0,0,0-2.77,2.46c-.77,1.91-1.67,3.74-3.1,4.12-1,.26-2.19-.18-3.67-1.36h0A8.11,8.11,0,0,1,392.79,256.5Z"/>
                      </g>
                    </g>
                    <path class="cls-57" d="M397.13,248.92s7.85-3.84,13.27-1.12c7.89,4,7.68,10.69,5.39,10.55S417.46,246.36,397.13,248.92Z"/>
                  </g>
                  <path class="cls-57" d="M439.18,296.29s2-12.55-.12-18.17-7.51-11.48-8.64-10.81,4.4,4.82,7,11C439.48,283.19,439.53,286.21,439.18,296.29Z"/>
                </g>
              </g>
              <g>
                <g>
                  <path class="cls-55" d="M335.62,299.4s7,7-2.84,14.78-11.24,8.77-14.62,12.68-8.94,8.09-17.2-3.19c-8.07-11-1.5-13.16,6.12-17.21C316.67,301.37,328.79,293.18,335.62,299.4Z"/>
                  <path class="cls-61" d="M315.57,326.65c2-3,9.65-12,16.93-14.13C327.66,315.79,321.44,322,315.57,326.65Z"/>
                  <path class="cls-56" d="M336.31,310.49c-2.35-.4-3.36-3.29-3.65-5.83a8.65,8.65,0,0,1-2.47-5.31c-7.71-.34-34.25,12.79-31.84,20.09-3.54-7.43,2.21-9.52,8.73-13,9.59-5.09,21.71-13.28,28.54-7.06A8.67,8.67,0,0,1,336.31,310.49Z"/>
                  <path d="M321,305.9a70.8,70.8,0,0,0-10.92,8.43c-1,.87-1.15,1-1.27,1h-.07l0-.08c.15-.46,5.07-5.8,11.91-10,6.83-4.42,13.73-5,14.6-4.68l-.07.23A31.61,31.61,0,0,0,321,305.9Z"/>
                  <path d="M353.28,297.07a70.86,70.86,0,0,0-12.59,5.63c-1.14.62-1.37.74-1.48.71l-.07,0v-.08c.25-.41,6.29-4.45,13.93-6.92,7.68-2.69,14.52-1.64,15.28-1.12l-.12.21A31.41,31.41,0,0,0,353.28,297.07Z"/>
                  <g>
                    <path class="cls-58" d="M300.93,315.54c-1,.72.2,4,2.62,7.27s5.19,5.37,6.17,4.64-.19-4-2.62-7.26S301.91,314.82,300.93,315.54Z"/>
                    <path d="M309.92,327.72c1.32-1-.33-4.71-2.55-7.73s-5.31-5.69-6.64-4.71h0c-1.32,1,.33,4.71,2.56,7.72S308.59,328.7,309.92,327.72Zm-8.79-11.91h0c.63-.46,3.1,1.05,5.7,4.58s3.32,6.34,2.7,6.8-3.11-1.05-5.71-4.58S300.5,316.27,301.13,315.81Z"/>
                  </g>
                  <path d="M332.52,298c-5.85-1.94-14.08,2.61-21.46,6.71l-3.82,2.08-1.71.89c-3.82,2-7.13,3.7-7.8,6.58-.54,2.29.61,5.31,3.5,9.26,3.38,4.62,6.62,7,9.63,7.15s5.51-2.22,7-4c3-3.46,4.47-4.63,11.51-10.21l3.16-2.51A14.92,14.92,0,0,0,336.8,309l.67.15a15.63,15.63,0,0,1-4.48,5.28L329.83,317c-7,5.55-8.46,6.71-11.42,10.12-1.63,1.88-4.19,4.36-7.58,4.22-3.21-.13-6.63-2.63-10.14-7.42-3.05-4.17-4.2-7.28-3.61-9.8.75-3.18,4.18-5,8.15-7l1.7-.89,3.81-2.08c7.64-4.24,16.16-8.95,22.29-6.66Z"/>
                </g>
                <g>
                  <path class="cls-62" d="M339.58,300.09c.38.54.32,1.45-.39,1.59.25.64.78,1.23.68,2a2.25,2.25,0,0,1-1.4,2c.3.56,1,.68,1,1.51a1.86,1.86,0,0,1-1.18,1.65,2.51,2.51,0,0,1-1.23.42c-4.13-.14-1-5.67-4.95-7.76-1.19-.68-.84-4.1,2.12-4.59,1.3-.21,3.33,1.17,2.37,2.46C337.49,299.65,338.91,299.14,339.58,300.09Z"/>
                  <path class="cls-2" d="M339.58,300.09c.38.54.32,1.45-.39,1.59.25.64.78,1.23.68,2a2.25,2.25,0,0,1-1.4,2c.3.56,1,.68,1,1.51a1.41,1.41,0,0,1-.3.94,9.09,9.09,0,0,0-2.37-1.78c2.1-1.18,2.26-5.49-.78-5.38.45-1.75-.31-2.67-1.42-4.08,1.27.06,2.87,1.31,2,2.48C337.49,299.65,338.91,299.14,339.58,300.09Z"/>
                  <path class="cls-63" d="M334.77,297.11c.12.79-3.22,1.2-.83,4.55,4,4.72,1.31,5.41,4.13,7.23a2,2,0,0,1-1,.29c-4.13-.14-1-5.67-4.95-7.76-1.19-.68-.84-4.1,2.12-4.59a2.09,2.09,0,0,1,.61,0C334.72,296.89,334.67,297,334.77,297.11Z"/>
                  <g>
                    <path d="M339,308a.87.87,0,0,0,.12-.9,1.78,1.78,0,0,0-.5-.44c-.13-.11-.29-.26-.43-.4.27-1.57.28-.57.43-1,2.17-1.48-.07-3.39.21-3.47.07-.08.6.07,1.22.83a2.47,2.47,0,0,1-.7,3.35,4.3,4.3,0,0,1,.59.7,1.58,1.58,0,0,1-.46,1.83c-.86.58-1.44.42-1.46.34S338.5,308.51,339,308Z"/>
                    <path d="M339.74,299.83c.46.83.05,1.35,0,1.3a2.55,2.55,0,0,0-2.81-1.52c-1.05-2.57-2.33-2-2.58-2.44,0,0,0-.07.11-.11a1.73,1.73,0,0,0-1.76.73c-1.19,1-.66,2.84.92,4.51,1.92,1.9,1.05,4.45,1.93,5.46.61,1.25,1.61,1.34,1.57,1.55s-1.22.24-2.18-1.19c-1.19-1.38-.4-3.74-2.09-5.2s-2.39-4.63-.62-5.65a1.71,1.71,0,0,1,2.42-.28,2.61,2.61,0,0,1,.94-.05,1.72,1.72,0,0,1,1.3.85,1.64,1.64,0,0,1,.2.83A3.29,3.29,0,0,1,339.74,299.83Z"/>
                  </g>
                </g>
              </g>
            </g>
            <g>
              <g>
                <g>
                  <path class="cls-67" d="M330.15,306.46a6.94,6.94,0,0,0-4.46-1.63,2.28,2.28,0,0,0-1.6,3.55c-3.33-1-4.58,2.14-2.6,4.57-2.17-.13-2.79,2.78-2.08,3.84a2,2,0,0,0-2.4,2.39c.22,1.75,1.84,3.88,2.16,4.48.78,1.46,2.15,2.83,3.42,2.77.7,0,2.59-1.71,2.59-1.71a17,17,0,0,1,2.14-.52c1.43-.2,1.09-1.52,2.31-1.95,1-.35,2.21-.11,2.62-1.39.13-.52,1.38-1.47,1.31-2C335.54,317.71,335.71,310.89,330.15,306.46Z"/>
                  <path class="cls-68" d="M331.4,307.61c.79,7.36-4.67,14.47-11.79,16.76.79,1.16,1.92,2.12,3,2.06.7,0,2.59-1.71,2.59-1.71a17,17,0,0,1,2.14-.52c1.43-.2,1.09-1.52,2.31-1.95,1-.35,2.21-.11,2.62-1.39.13-.52,1.38-1.47,1.31-2C335.38,317.81,335.66,312,331.4,307.61Z"/>
                  <path class="cls-12" d="M325.67,304.46a2.41,2.41,0,0,0-2,1.3,2.86,2.86,0,0,0-.31,1.44,3,3,0,0,0,.11.67,2.75,2.75,0,0,0-2.83,1.05,2.86,2.86,0,0,0-.46,1.75,4.11,4.11,0,0,0,.65,2,2.42,2.42,0,0,0-1.6,1.22,3.68,3.68,0,0,0-.47,1.95,3.32,3.32,0,0,0,.09.55,2.07,2.07,0,0,0-1.44.53,2.65,2.65,0,0,0-.77,2.33,11.21,11.21,0,0,0,1.86,4l.35.56c.81,1.52,2.29,3,3.76,3,.74,0,2.23-1.29,2.75-1.75a16.89,16.89,0,0,1,2-.49,2,2,0,0,0,1.56-1.15,1.53,1.53,0,0,1,.83-.81l.8-.19c.78-.14,1.68-.3,2-1.44a3.23,3.23,0,0,1,.53-.72,2.89,2.89,0,0,0,.77-1.2,4,4,0,0,0,1.26-3,8.18,8.18,0,0,0,0-1,12.41,12.41,0,0,0-4.8-8.9A7.31,7.31,0,0,0,325.67,304.46Zm8.26,14.36v0Z"/>
                </g>
                <path class="cls-69" d="M323.77,308.19a.37.37,0,0,0,.13.51,25.77,25.77,0,0,1,8.38,8.73.38.38,0,0,0,.5.16.38.38,0,0,0,.15-.5,25.94,25.94,0,0,0-8.65-9A.37.37,0,0,0,323.77,308.19Z"/>
                <path class="cls-69" d="M321.18,312.75a.37.37,0,0,0,.1.51,18.71,18.71,0,0,1,5.92,7.21.37.37,0,0,0,.48.19.36.36,0,0,0,.19-.48,19,19,0,0,0-6.18-7.53A.36.36,0,0,0,321.18,312.75Z"/>
                <path class="cls-69" d="M319.19,316.49a.37.37,0,0,0-.08.52c1.79,2.37,4.43,6.57,4.46,6.61a.38.38,0,0,0,.51.12.37.37,0,0,0,.11-.51s-2.69-4.27-4.49-6.66A.36.36,0,0,0,319.19,316.49Z"/>
              </g>
              <path class="cls-12" d="M301.46,306.74s11.35-13.06,16.26-10,5.64,10.44-6.41,8.65"/>
            </g>
          </g>
          <g>
            <g>
              <path class="cls-40" d="M454.7,313.39c-1.46,2.55-7.43,2.85-14-1.62s-9.08-8.13-7.62-10.69.24-2.72,11.68,1.25C452.14,304.88,456.16,310.84,454.7,313.39Z"/>
              <g>
                <path class="cls-42" d="M454,308.43c-.3,1-.6,2-.91,3-7.83,24.7-16.37,29.12-16.37,29.12-27.1,3.71-49.26-18.3-49.26-18.3-3.6-4.1.36-10.29.36-10.29,14.82,4.37,38.93,7.49,38.93,7.49l6.82-17.84,1-2.66C451.18,301.22,454,308.43,454,308.43Z"/>
                <path class="cls-43" d="M454,308.43c-.3,1-.6,2-.91,3-9.07-6.68-16.42-9.05-19.52-9.82l1-2.66C451.18,301.22,454,308.43,454,308.43Z"/>
                <path class="cls-70" d="M426.67,318.93a5.7,5.7,0,0,1,1.61.28,9.91,9.91,0,0,1,1.43.57,13,13,0,0,1,2.53,1.66,19.12,19.12,0,0,1,2.16,2.06l1,1.13.9,1.18-1-1.1-1-1a19.86,19.86,0,0,0-2.28-1.83,12.17,12.17,0,0,0-2.53-1.37,6.74,6.74,0,0,0-2.67-.54Z"/>
                <g>
                  <path class="cls-45" d="M369.65,317.61s-2.93-.71-3.95-2.28c-.62-1.08-.13-3.19,2.71-2.87Z"/>
                  <path class="cls-42" d="M392.86,313.59l-10.75-9.44a2.4,2.4,0,0,0-3.1-.79c-1-.7-3.08.11-3.08.11s-4.48,1.57-5.68,1.93a19.35,19.35,0,0,0-3.84,1.76c-.65.45-3,2.16-3.39,2.51s-.89,1.1-1.5,1.65-.24,2,.41,2.44c1.54,1.11,4.31-1.31,5.37-2.05a2.16,2.16,0,0,0,.79-.21,16.2,16.2,0,0,0-.16,4.4,22.29,22.29,0,0,0,.85,5.22.72.72,0,0,0,1.18.29l1.61,2.92.64.66a2.05,2.05,0,0,0,.68,0c1.08-.22.75-2.27.75-2.27.46.73,1,2.11,2,1.8a2.17,2.17,0,0,0,1.75-2.17,2.29,2.29,0,0,0-1.14-2.22,19.62,19.62,0,0,0,3.28-1.3,24.34,24.34,0,0,0,2.38,1.52h0c2,2.11,2.6,3.66,8.7,4.07l2.56,2.6"/>
                  <g class="cls-71">
                    <path class="cls-72" d="M368.1,311.44a.13.13,0,0,1,0,.06C368.15,311.46,368.1,311.44,368.1,311.44Z"/>
                    <path class="cls-70" d="M373.64,322.75a16.8,16.8,0,0,1-.74-3.4,3.49,3.49,0,0,1,.54-2.71l5.64-5.09L376,313.93l-3,2.49a4.19,4.19,0,0,0-.41,2.85c.3,2.52.45,3.33,1.13,4.4A4.66,4.66,0,0,0,373.64,322.75Z"/>
                  </g>
                  <g class="cls-71">
                    <path class="cls-73" d="M368.1,311.44a.13.13,0,0,1,0,.06C368.15,311.46,368.1,311.44,368.1,311.44Z"/>
                    <path class="cls-70" d="M370.34,312.48A82.16,82.16,0,0,1,377.9,307a39.38,39.38,0,0,0-7.95,5.29c-.45.43-.55,2.18-.55,2.18a32.84,32.84,0,0,0,.24,7.08,1.19,1.19,0,0,0,.32-.17s-.37-3.39-.33-4.72S369.72,313.07,370.34,312.48Z"/>
                  </g>
                  <g class="cls-71">
                    <path class="cls-74" d="M368.09,311.5c.06,0,0-.06,0-.06a.13.13,0,0,1,0,.06Z"/>
                    <path class="cls-70" d="M368.09,311.5s.06-2.59.52-3a31.13,31.13,0,0,1,6.33-3.66,16.33,16.33,0,0,0-6.58,3.55,7,7,0,0,0-.5,3.24.63.63,0,0,0,.23-.1Z"/>
                  </g>
                </g>
              </g>
            </g>
            <path class="cls-13" d="M462.18,296.86l-5.61,17-26.33-8.41,13.5-32.35s6.43-8.68,11.22-5.09S465.82,275.45,462.18,296.86Z"/>
          </g>
        </g>
      </g>
    </g>
  </g>
</svg>
