<svg xmlns="http://www.w3.org/2000/svg" xmlns:xlink="http://www.w3.org/1999/xlink" width="619.88" height="562.43" viewBox="0 0 619.88 562.43">
  <defs>
    <style>
      .cls-1 {
        fill: none;
      }

      .cls-2 {
        isolation: isolate;
      }

      .cls-3, .cls-60 {
        fill: #fff;
      }

      .cls-4 {
        clip-path: url(#clip-path);
      }

      .cls-5 {
        fill: #c4b7a3;
      }

      .cls-6 {
        fill: #80ddda;
      }

      .cls-55, .cls-7 {
        fill: #020202;
      }

      .cls-37, .cls-7 {
        stroke: #201d1e;
      }

      .cls-10, .cls-103, .cls-22, .cls-26, .cls-27, .cls-28, .cls-29, .cls-30, .cls-32, .cls-33, .cls-34, .cls-37, .cls-39, .cls-40, .cls-48, .cls-7 {
        stroke-miterlimit: 10;
      }

      .cls-55, .cls-7, .cls-8 {
        opacity: 0.3;
      }

      .cls-11, .cls-20, .cls-8 {
        stroke: #6f287a;
      }

      .cls-11, .cls-12, .cls-13, .cls-20, .cls-8 {
        stroke-linejoin: round;
        stroke-width: 0.75px;
      }

      .cls-9 {
        fill: #89513a;
      }

      .cls-10 {
        fill: #d9b3a9;
      }

      .cls-10, .cls-103, .cls-27, .cls-28, .cls-32, .cls-33 {
        stroke: #323232;
      }

      .cls-11 {
        fill: #bf79b2;
      }

      .cls-12 {
        fill: #686c71;
        stroke: #211f1c;
      }

      .cls-13, .cls-37 {
        fill: #301616;
      }

      .cls-13 {
        stroke: #1c0e0a;
      }

      .cls-14 {
        fill: #c37946;
      }

      .cls-15 {
        opacity: 0.12;
      }

      .cls-16 {
        fill: #d58349;
      }

      .cls-17 {
        fill: #8c653d;
      }

      .cls-18 {
        fill: #a66f42;
      }

      .cls-19 {
        fill: #e99c48;
      }

      .cls-20, .cls-23 {
        fill: #df71e2;
      }

      .cls-21 {
        fill: #e7b26b;
      }

      .cls-22 {
        fill: #fbd3c7;
      }

      .cls-22, .cls-26, .cls-29, .cls-30, .cls-34, .cls-48 {
        stroke: #453423;
      }

      .cls-22, .cls-26, .cls-27, .cls-29, .cls-32, .cls-33, .cls-34, .cls-39, .cls-40, .cls-48 {
        stroke-width: 0.5px;
      }

      .cls-24 {
        fill: #c49ac6;
      }

      .cls-25 {
        fill: #e8b089;
      }

      .cls-26 {
        fill: #e6af87;
      }

      .cls-27, .cls-46 {
        fill: #a3a3a3;
      }

      .cls-28, .cls-47 {
        fill: #c6c4c3;
      }

      .cls-103, .cls-28 {
        stroke-width: 0.25px;
      }

      .cls-29 {
        fill: #f5d1b6;
      }

      .cls-30, .cls-34 {
        fill: #fad2c6;
      }

      .cls-31 {
        fill: #dc9e8f;
      }

      .cls-32 {
        fill: #fac7b3;
      }

      .cls-33 {
        fill: #f9d1c6;
      }

      .cls-35 {
        fill: #e5b2a6;
      }

      .cls-36 {
        fill: #551514;
      }

      .cls-38 {
        fill: #c08774;
      }

      .cls-39 {
        fill: #54394f;
      }

      .cls-39, .cls-40 {
        stroke: #1d111b;
      }

      .cls-40 {
        fill: #62445b;
      }

      .cls-41 {
        fill: #f6e0d9;
      }

      .cls-42 {
        fill: #e61c4f;
      }

      .cls-43 {
        fill: #bb7757;
      }

      .cls-44 {
        fill: #fbb860;
      }

      .cls-45 {
        fill: #f58620;
      }

      .cls-48 {
        fill: #f0bd95;
      }

      .cls-49 {
        fill: #453423;
      }

      .cls-50 {
        fill: #899ccf;
        opacity: 0.4;
      }

      .cls-50, .cls-62, .cls-63, .cls-68, .cls-85, .cls-89 {
        mix-blend-mode: multiply;
      }

      .cls-51 {
        fill: #b6b8b9;
      }

      .cls-52 {
        fill: #d3d4d5;
      }

      .cls-53 {
        fill: #ce4d25;
      }

      .cls-54 {
        fill: #a83618;
      }

      .cls-56 {
        fill: #e4f5fd;
      }

      .cls-56, .cls-57, .cls-58, .cls-59, .cls-60 {
        fill-rule: evenodd;
      }

      .cls-57 {
        fill: #c7eafb;
      }

      .cls-58 {
        fill: #aee2fa;
      }

      .cls-59 {
        fill: #8ed8f8;
      }

      .cls-61 {
        fill: url(#linear-gradient);
      }

      .cls-62, .cls-90 {
        fill: #ece0c9;
      }

      .cls-63 {
        fill: #e1d1b0;
      }

      .cls-64 {
        fill: #ffcf87;
      }

      .cls-65 {
        fill: #8a613f;
      }

      .cls-66 {
        fill: #6d4321;
      }

      .cls-67 {
        fill: #a97d5c;
      }

      .cls-68 {
        fill: #d7aa6a;
      }

      .cls-69 {
        fill: #ffc43e;
      }

      .cls-70 {
        fill: #de9c1a;
      }

      .cls-71 {
        fill: #ffe579;
      }

      .cls-72 {
        fill: #ed9e61;
      }

      .cls-73 {
        fill: #da7b53;
      }

      .cls-74 {
        fill: #eecc80;
      }

      .cls-75 {
        fill: #c95c27;
      }

      .cls-76 {
        fill: #ffe6ab;
      }

      .cls-77 {
        fill: #fb9077;
      }

      .cls-78 {
        fill: #e95a08;
      }

      .cls-79 {
        fill: #c53a00;
      }

      .cls-80 {
        fill: #aa3100;
      }

      .cls-81 {
        fill: #ffdad7;
      }

      .cls-82 {
        fill: #b0739a;
      }

      .cls-83 {
        fill: #e7d8e5;
      }

      .cls-84 {
        fill: url(#linear-gradient-2);
      }

      .cls-85 {
        fill: #f5f3ed;
      }

      .cls-86 {
        fill: url(#linear-gradient-3);
      }

      .cls-87 {
        fill: #fff3c2;
      }

      .cls-88 {
        fill: url(#linear-gradient-4);
      }

      .cls-91 {
        fill: #ffdf86;
      }

      .cls-92 {
        fill: #ffce45;
      }

      .cls-93 {
        fill: #ffedc0;
      }

      .cls-94 {
        fill: #ee374b;
      }

      .cls-95 {
        fill: #cc2033;
      }

      .cls-96 {
        fill: #ef5e7c;
      }

      .cls-97 {
        fill: #f2f2f2;
      }

      .cls-98 {
        fill: #e8e7e7;
      }

      .cls-99 {
        fill: #f0e7e0;
      }

      .cls-100 {
        fill: #4f341a;
      }

      .cls-101 {
        fill: #431f17;
      }

      .cls-102 {
        fill: #441f17;
      }

      .cls-103 {
        fill: #db9d8e;
      }
    </style>
    <clipPath id="clip-path">
      <rect class="cls-1" x="40.47" y="56.66" width="538.94" height="449.1" rx="116.93"/>
    </clipPath>
    <linearGradient id="linear-gradient" x1="303.04" y1="334.41" x2="350.27" y2="354.21" gradientUnits="userSpaceOnUse">
      <stop offset="0.19" stop-color="#ffb749"/>
      <stop offset="0.36" stop-color="#fcb342"/>
      <stop offset="0.6" stop-color="#f5a62f"/>
      <stop offset="0.88" stop-color="#e99210"/>
      <stop offset="1" stop-color="#e38800"/>
    </linearGradient>
    <linearGradient id="linear-gradient-2" x1="321.95" y1="317.07" x2="328.37" y2="336.47" gradientUnits="userSpaceOnUse">
      <stop offset="0" stop-color="#fffdf8"/>
      <stop offset="0.4" stop-color="#fefcf5"/>
      <stop offset="0.67" stop-color="#faf8ec"/>
      <stop offset="0.91" stop-color="#f3f1dd"/>
      <stop offset="1" stop-color="#f0edd5"/>
    </linearGradient>
    <linearGradient id="linear-gradient-3" x1="318.61" y1="325.38" x2="319.02" y2="335.36" gradientUnits="userSpaceOnUse">
      <stop offset="0.19" stop-color="#fce52d"/>
      <stop offset="0.42" stop-color="#fcdf26"/>
      <stop offset="0.75" stop-color="#fdcd13"/>
      <stop offset="1" stop-color="#fdbb00"/>
    </linearGradient>
    <linearGradient id="linear-gradient-4" x1="-486.22" y1="1045.92" x2="-479.89" y2="1069.18" gradientTransform="matrix(0.93, 0.36, -0.36, 0.93, 1152.78, -519.83)" xlink:href="#linear-gradient"/>
  </defs>
  <g class="cls-2">
    <g id="Layer_1" data-name="Layer 1">
      <g>
        <rect class="cls-3" x="31.1" y="47.57" width="557.69" height="467.29" rx="124.29"/>
        <g class="cls-4">
          <g>
            <rect class="cls-3" x="-76.7" y="401.09" width="975.64" height="45.42"/>
            <rect class="cls-5" x="-59.55" y="440.84" width="935.07" height="97.15"/>
            <rect class="cls-6" x="-59.55" y="-24.48" width="935.07" height="457.06"/>
          </g>
          <g>
            <g>
              <rect class="cls-3" x="284.93" y="309.92" width="34.59" height="4.74" rx="1.09"/>
              <g>
                <polygon class="cls-7" points="191.12 494.25 147.24 552.82 488.3 552.82 431.27 497.17 191.12 494.25"/>
                <ellipse class="cls-8" cx="323.66" cy="495.49" rx="76.11" ry="24.72"/>
                <rect class="cls-9" x="258.15" y="421.2" width="19.77" height="69.19"/>
                <rect class="cls-9" x="364" y="421.2" width="19.77" height="69.19"/>
                <g>
                  <g>
                    <path class="cls-10" d="M330.92,408.86c2,21.79,3.86,41.71,5,55h20c.56-13.52,1.71-33.57,2.94-55,.46-8.19-6-15.18-13.9-15.07l-1,0A13.49,13.49,0,0,0,330.92,408.86Z"/>
                    <g>
                      <path class="cls-11" d="M334.35,467.52c0,.41,23,.84,23.08.34.47-4.34,1.25-13.6,1.5-16.11H333.37C333.69,456.44,334.14,464.55,334.35,467.52Z"/>
                      <path class="cls-12" d="M371.72,500.47c6,0,11.16-1.67,12.44-4.79a19.06,19.06,0,0,0,.09-5.63c-.17-1.66-2.91-5.26-4.21-5.9-1.33,4-7.46,12.1-18.74,8.91-10.5-3-27.82-12.86-28.83-13.88,0,0,0,5,.63,5.41,8,5,23.65,12.9,23.87,13A40.87,40.87,0,0,0,371.72,500.47Z"/>
                      <path class="cls-13" d="M333.88,463c.77.23,3.14,3.32,11.68,4.32.72.08,0-3.84.69-4.25,1.28-.72,14-1.14,14.8-.77.61.3.91,1.26,1.52,4.73.67,1.92,20.27,16.87,21.34,22.44.58,3-1.94,5.51-7.21,6.31a35.06,35.06,0,0,1-18.24-2.12c-2.68-1-24.69-12.88-26-14.26-1.2-1.21.26-12.82.36-16C332.8,463,333.43,462.86,333.88,463Z"/>
                    </g>
                  </g>
                  <path class="cls-10" d="M313.2,408.86c-2,21.79-3.86,41.71-5,55h-20c-.56-13.52-1.71-33.57-2.94-55-.46-8.19,6-15.18,13.9-15.07l1,0A13.49,13.49,0,0,1,313.2,408.86Z"/>
                  <g>
                    <path class="cls-11" d="M309.77,467.52c0,.41-23,.84-23.08.34-.47-4.34-1.25-13.6-1.5-16.11h25.56C310.43,456.44,310,464.55,309.77,467.52Z"/>
                    <path class="cls-12" d="M272.4,500.47c-6,0-11.16-1.67-12.44-4.79a19.06,19.06,0,0,1-.09-5.63c.17-1.66,2.91-5.26,4.21-5.9,1.33,4,7.46,12.1,18.74,8.91,10.5-3,27.82-12.86,28.83-13.88,0,0,0,5-.63,5.41-8,5-23.65,12.9-23.87,13A40.87,40.87,0,0,1,272.4,500.47Z"/>
                    <path class="cls-13" d="M310.24,463c-.77.23-3.14,3.32-11.68,4.32-.72.08,0-3.84-.69-4.25-1.28-.72-14-1.14-14.8-.77-.61.3-.91,1.26-1.52,4.73-.67,1.92-20.27,16.87-21.34,22.44-.58,3,1.94,5.51,7.21,6.31a35.06,35.06,0,0,0,18.24-2.12c2.68-1,24.69-12.88,26-14.26,1.2-1.21-.26-12.82-.36-16C311.32,463,310.69,462.86,310.24,463Z"/>
                  </g>
                  <path class="cls-14" d="M456.18,534.69c3.59,0,6.5-3.27,6.5-7.31V406.44c0-4-2.91-7.31-6.5-7.31s-6.5,3.27-6.5,7.31V527.38C449.68,531.42,452.58,534.69,456.18,534.69Z"/>
                  <path class="cls-9" d="M422.52,502.85c3.6,0,6.5-3.27,6.5-7.31v-121c0-4-2.9-7.31-6.5-7.31s-6.49,3.27-6.49,7.31v121C416,499.58,418.93,502.85,422.52,502.85Z"/>
                  <path class="cls-14" d="M160.61,534.69c-3.59,0-6.5-3.27-6.5-7.31V406.44c0-4,2.91-7.31,6.5-7.31s6.5,3.27,6.5,7.31V527.38C167.11,531.42,164.21,534.69,160.61,534.69Z"/>
                  <path class="cls-9" d="M194.27,502.85c-3.6,0-6.5-3.27-6.5-7.31v-121c0-4,2.9-7.31,6.5-7.31s6.49,3.27,6.49,7.31v121C200.76,499.58,197.86,502.85,194.27,502.85Z"/>
                  <rect class="cls-15" x="449.68" y="422.84" width="13" height="24.38"/>
                  <rect class="cls-15" x="154.11" y="422.84" width="13" height="26.82"/>
                  <path class="cls-16" d="M145.07,385.89H474.82a0,0,0,0,1,0,0v56.92a.55.55,0,0,1-.55.55H145.62a.55.55,0,0,1-.55-.55V385.89A0,0,0,0,1,145.07,385.89Z"/>
                  <polygon class="cls-15" points="145.07 398.93 474.82 395.71 474.82 385.89 145.07 385.89 145.07 398.93"/>
                  <g>
                    <rect class="cls-17" x="278.25" y="263.85" width="93.1" height="79.03"/>
                    <path class="cls-18" d="M279,344.14v-83h-6a9,9,0,0,0-9,9v74Z"/>
                    <path class="cls-18" d="M370.46,344.14v-83h6a9,9,0,0,1,9,9v74Z"/>
                  </g>
                  <path class="cls-19" d="M491.68,381.24H128.22v10a2.2,2.2,0,0,0,2.2,2.2H489.47a2.21,2.21,0,0,0,2.21-2.2Z"/>
                  <path class="cls-20" d="M373.16,356.34c-1.93-10.22-7.06-60.64-9.39-74.62-3.4-15.37-1,7-6.37-16.67l-68.47,5.13S287,282,284.17,308.24c0,0-3.45,25.66-3.88,38.83-.51,15.55.37,3-.87,10.28Z"/>
                  <path class="cls-21" d="M488.25,384.49H131.64a3.43,3.43,0,0,1-3.07-5l25.54-36a3.43,3.43,0,0,1,3.07-1.89H465a3.43,3.43,0,0,1,3.06,1.89l23.23,36A3.43,3.43,0,0,1,488.25,384.49Z"/>
                  <path class="cls-22" d="M263.26,299.37l4.54-20.26s-32.57,11.27-35.72,26.62a1.25,1.25,0,0,1,.33,1.15,1.28,1.28,0,0,1,.3.76c0,.13,0,.25,0,.38a12.15,12.15,0,0,0,1,4,1.18,1.18,0,0,1,.18.21l1.16,1.6c.2.27.4.55.61.82l.11.14.08.1.29.36a18.8,18.8,0,0,0,1.26,1.42c10.47,3.47,31.91-9.29,31.91-9.29Z"/>
                  <path class="cls-20" d="M254.43,281.44h0c.68,1,18.09,30.32,19.91,33.33.36.59.69,1.21,1,1.82L300.32,304l5.19-38.49C285.11,264.72,254.43,281.44,254.43,281.44Z"/>
                  <path class="cls-20" d="M357,266.78l-9.2,2.82L353,303.47l26.19,9.06,14.07-34.23s-29.79-12.36-36.77-13.25"/>
                  <path class="cls-23" d="M351.64,272.8s4.28,3.91,2.82,7.32-2,3.34-1.49,6.65,2.16,14.72.06,16.7-2.23,7-5.28-.12S342.67,290,344,284.11s1.84-7.52,4.73-9.42Z"/>
                  <path class="cls-23" d="M301.19,275.22s5.43,7.37,5.91,8.89.26,7.09-1.59,9.6a27.2,27.2,0,0,0-2.6,4.14c-1.9,1-6.43,1.72-8-2.12-2.23-5.5-4.27-9.88-2.73-13.11S301.19,275.22,301.19,275.22Z"/>
                  <path class="cls-24" d="M298.67,266.37c-.23.76,3.63,23.07,27.18,23.07,18.61,0,28.74-16.95,27.56-25.79Z"/>
                  <path class="cls-25" d="M309.54,270.25c.81,0,3.28,10.52,15.06,11.06,0,0,15.15.52,16.57-12.17Z"/>
                  <path class="cls-26" d="M277.75,309.25c1.92-.46,3.81-1,5.69-1.53l2.08-.68c-4.94-14.88-20.33-11.47-20.33-11.47l10.59,11.91A16.56,16.56,0,0,0,277.75,309.25Z"/>
                  <g>
                    <path class="cls-27" d="M287.33,304.53s27.54-7.47,36.46-8.57c1.19-.16,3.56,2.87-5.59,8.56-7.81,4.53-19.5,6-19.49,6.11-4.48.32-5.67.87-8.18.4-1.41-.26-4.56-2.62-4.56-2.62l-26.45,4.7-.19-3.9Z"/>
                    <path class="cls-28" d="M282.7,301.66l6.35-1.14h0c10-1.35,32.93-4.74,34.74-4.56,1,.27.45,1.51.45,1.51s-4.29,9.32-30.3,11.4c-5.19.42-5-2.45-7.77-2.63a8.52,8.52,0,0,0-1.32.12l-20.25,3-4.77-5Z"/>
                  </g>
                  <path class="cls-29" d="M251.77,317.85l8.33-2.73-.66.6a10.66,10.66,0,0,0,8.08,3,48.71,48.71,0,0,0,8.27-1.07c6.36-1.71,4.95-8.75,4.95-8.75-1.44-11.54-8.16-13.54-9.82-13.79a76.24,76.24,0,0,0-27.38,1.32c-8.34,1.9-14.47,7.53-9.11,17.13C234.43,313.61,239.39,322,251.77,317.85Z"/>
                  <path class="cls-30" d="M341.53,275.61s-4.79,8.16-17.65,8.49-15.11-8.49-15.11-8.49a14.25,14.25,0,0,0,.68-1.62c2.72-7.52-.68-15.94-.68-15.94s35.59-13,31.33,0c-2.9,8.85-1.19,13.78.2,16A6.44,6.44,0,0,0,341.53,275.61Z"/>
                  <path class="cls-31" d="M339.31,271.09c-3.48,2-8.68,4.42-13.23,4.42s-9.05-.82-12.82-3.43a19.19,19.19,0,0,0,0-12.05s29.26-10.44,25.76,0C336.64,267.13,338.17,269.28,339.31,271.09Z"/>
                  <g>
                    <path class="cls-32" d="M260.16,227.36c1.9,6.39,7.4,10.68,11.24,10.31s4.17-5.49,3-11.61-5.26-10.79-9.1-10.41C260.05,216.17,258.38,221.35,260.16,227.36Z"/>
                    <path class="cls-31" d="M268.79,219.37a4,4,0,0,0-3.87-1,2.89,2.89,0,0,0-1.66,1.92c-.75,2.23-.27,4.64.5,6.93.93,2.77,2.54,5.73,5.89,7.12a1.88,1.88,0,0,0,1,.19c.74-.09.88-.82.86-1.4l-.07-2.37a2.4,2.4,0,0,0-.4-1.5,4.8,4.8,0,0,0-1.53-1,4.26,4.26,0,0,1-2.23-2.1,1.51,1.51,0,0,1,.82-1.81c.7-.34,2.08.15,2.58-.29C271.47,223.36,269.54,220.09,268.79,219.37Z"/>
                  </g>
                  <g>
                    <path class="cls-33" d="M383.55,227.82c-2.48,6-8.2,9.13-11.86,8s-3.45-6.22-1.69-12,6.15-9.65,9.81-8.54C384.8,216.81,385.88,222.23,383.55,227.82Z"/>
                    <path class="cls-31" d="M376.75,217.81a2.82,2.82,0,0,1,3.24-.38,3,3,0,0,1,1.16,2.08,12.4,12.4,0,0,1-1.09,6.61c-1,2.54-2.63,5.17-5.48,6a1.37,1.37,0,0,1-.8.06c-.59-.2-.63-.92-.56-1.47l.3-2.28a2.44,2.44,0,0,1,.47-1.39,3.43,3.43,0,0,1,1.33-.76,3.44,3.44,0,0,0,2-1.71,1.67,1.67,0,0,0-.49-1.86c-.53-.42-1.7-.15-2.06-.64C374.19,221.28,376.08,218.39,376.75,217.81Z"/>
                  </g>
                  <path class="cls-34" d="M372,233.85c-3,27.85-38.42,40.13-48.56,39.06-12.93-1.37-47.65-4.88-53.32-53.88a8.71,8.71,0,0,1,0-1.25v0c.5-19.16-6.46-36.6-4.61-44,6.36-25.69,11-15.67,41.38-18.56,28.42-2.7,40.53-2.78,58,11.84,1.55,1.28,6.69,2.76,6.77,7.36.14,7.86.32,13.75.49,18.47C372.82,209.12,374.38,211.75,372,233.85Z"/>
                  <path class="cls-31" d="M352.78,239.05a2.93,2.93,0,0,1-3.4,2.38,3,3,0,0,1-2.33-3.47,2.92,2.92,0,0,1,3.4-2.37A3,3,0,0,1,352.78,239.05Z"/>
                  <path class="cls-31" d="M301.93,238.42a3,3,0,0,1-3.55,2.47,3.09,3.09,0,0,1-2.42-3.61,3,3,0,0,1,3.54-2.47A3.1,3.1,0,0,1,301.93,238.42Z"/>
                  <path class="cls-35" d="M372.25,192.84c-7.93-10.43-17.7-15-29.55-17-13.35,9.54-27.5,15.16-43.58,11.93,19.19-16.45,5.19-10.87,8.88-14.8,0,4.19-8,10.32-16.26,7a53.65,53.65,0,0,1-14.86,18.08c-2.18,1.69-5.7,14.43-6.13,16.19-.26,1-.34,2.32-.56,3.52.5-19.16-6.46-36.6-4.61-44,6.36-25.69,11-15.67,41.38-18.56,28.42-2.7,40.53-2.78,58,11.84,1.55,1.28,6.69,2.76,6.77,7.36C371.9,182.23,372.08,188.12,372.25,192.84Z"/>
                  <path class="cls-36" d="M307.81,196.75l-.93-1.18a7.79,7.79,0,0,0-7.2-3.24,12.81,12.81,0,0,0-9.07,6.6c-.31.53-.54.75-.08.38C293.73,196.75,301.91,193.56,307.81,196.75Z"/>
                  <path class="cls-37" d="M340.41,173.4s-7.79,13.44-41.29,13.24c0,0,14.33-12.27,6.44-14.21,0,0-5.19,8.86-16.44,4.57,0,0,5.34,1-14.42,19.86,0,0-5.63,6.52-4.55,22.18.07,1-7.79-1.26-8.17-12.27,0,0-13.93-11.47-2.66-26.22,0,0-12.07-20.88,8.76-27.88,0,0,2.25-20.6,18.5-21.7,0,0,17.16-25.23,41.47-7.7,0,0,21.81-10.45,33.68,10.38,0,0,16.76,6.16,14.41,21.55,0,0,22.2,10.47,8.37,26.67,0,0,6,12.35-5.38,26.73l-5.69,14.65-.86-5.71c-.13-12.17,1.94-16.4-3.52-27.28C369.06,190.26,363.87,172.72,340.41,173.4Z"/>
                  <path class="cls-38" d="M316.81,229.87s.68,3.63,6.08,3.76,6.4-3.76,6.4-3.76S323.83,235.31,316.81,229.87Z"/>
                  <path class="cls-36" d="M337.55,195.3l.93-1.17c1.91-2.4,4.63-3.69,7.2-3.25a12.83,12.83,0,0,1,9.07,6.61c.31.53.55.74.08.37C351.63,195.3,343.46,192.11,337.55,195.3Z"/>
                  <path class="cls-3" d="M349.74,213.46a1.72,1.72,0,0,1-1.43,1.95,1.69,1.69,0,0,1-1.89-1.47,1.73,1.73,0,0,1,1.43-2A1.69,1.69,0,0,1,349.74,213.46Z"/>
                  <path class="cls-3" d="M293.32,215.46a1.73,1.73,0,0,0,1.15,2.14,1.73,1.73,0,1,0-1.15-2.14Z"/>
                  <polygon class="cls-20" points="341.17 269.14 328.05 284.11 340.32 295.23 353.5 265.39 347.47 265.92 341.17 269.14"/>
                  <polygon class="cls-20" points="309.54 270.25 324.36 284.11 312.36 296.42 294.94 266.35 298.67 266.37 309.54 270.25"/>
                  <g>
                    <path class="cls-39" d="M331.24,285.21c-.77-.33-3.49-2.51-9-.42s1.37,8.88,1.37,8.88h6.06S337.76,287.92,331.24,285.21Z"/>
                    <path class="cls-40" d="M316.1,325.86c.14.46.27.91.42,1.35h0c4.46,13.93,11.78,20.9,11.78,20.9a76.15,76.15,0,0,0,5.77-8.87c.82-1.51,1.45-2.82,1.94-4a18.87,18.87,0,0,0,1.57-5.05c-.08-1.73-.18-3.4-.32-5s-.25-2.94-.41-4.34c-.45-4-1-7.51-1.67-10.6-.32-1.56-.66-3-1-4.37-2.21-8.68-4.59-12.88-4.5-13.5.28-1.77-6.51-1.15-6.51-1.15a68.72,68.72,0,0,1-1,8.93c-.17,1-.36,2-.56,3.06-.57,3-1.23,6-1.9,8.82-.24,1-.48,1.95-.7,2.89-.85,3.43-1.66,6.41-2.2,8.38C316.37,324.92,316.1,325.86,316.1,325.86Z"/>
                    <path class="cls-41" d="M321.61,303.26a45.27,45.27,0,0,1,13.17,7c-.32-1.57-.7-3.19-1-4.54a51.72,51.72,0,0,0-11.56-5.51C322,301.21,321.81,302.23,321.61,303.26Z"/>
                    <path class="cls-41" d="M319.35,315.21c4.9,2.18,13,6.13,17.53,10-.11-1.5-.28-3.23-.44-4.62a65.7,65.7,0,0,0-16.37-8.41C319.82,313.19,319.58,314.28,319.35,315.21Z"/>
                    <path class="cls-41" d="M316.5,325.86c.14.46.27,1,.42,1.47h0c4.81,2.45,12.26,6.61,16.88,11.63a43.1,43.1,0,0,0,1.89-3.92,97.1,97.1,0,0,0-18.55-11.57C316.7,325,316.5,325.86,316.5,325.86Z"/>
                  </g>
                  <path class="cls-31" d="M306.34,240.79c0,1.59-.17,2.63-1.76,2.63s-5.37-3.37-5.76-4.91c-.73-2.88,1.37-3.61,2.88-2.88S306.34,239.2,306.34,240.79Z"/>
                  <path class="cls-31" d="M342.49,241.66c0,1.59.17,2.63,1.76,2.63s5.36-3.38,5.76-4.92c.73-2.88-1.37-3.61-2.88-2.88S342.49,240.07,342.49,241.66Z"/>
                  <g>
                    <g>
                      <path class="cls-36" d="M323.62,256.89c15.2,0,28-20.5,25.12-19.54-4.48,1.47-4.09,2.49-16.1,3.13-2.37.12-7.27.3-10.89.14a119,119,0,0,1-15.95-1.8c-2.2-.42-4-1.64-5.29-1.51C297.17,237.66,310.33,256.89,323.62,256.89Z"/>
                      <path class="cls-42" d="M323.62,256.89a15.83,15.83,0,0,1-8.49-2.56,10.09,10.09,0,0,1,6.53-4.11c4-.77,10.15.14,12.33,3.22C331.75,255.75,326.44,256.82,323.62,256.89Z"/>
                      <path class="cls-3" d="M302.91,238a74.08,74.08,0,0,0,41.12.8c-2.39,3.53-9.8,8.64-19.32,8.87C314.4,247.94,306.88,242.23,302.91,238Z"/>
                    </g>
                    <path class="cls-43" d="M300.6,237.25a0,0,0,0,0,0,.09c3.09,1.45,23.49,10.14,48.18,0C348.74,237.35,329.31,244.06,300.6,237.25Z"/>
                    <path class="cls-43" d="M317.54,257.51s5.06,3.51,10.51.49C328.05,258,323,263.06,317.54,257.51Z"/>
                  </g>
                  <polygon class="cls-12" points="284.73 448.43 285.19 451.75 310.75 451.75 311.65 447.01 284.03 447.01 284.73 448.43"/>
                  <polygon class="cls-12" points="332.47 447.01 333.37 451.75 358.93 451.75 360.09 447.01 332.47 447.01"/>
                  <g>
                    <path class="cls-44" d="M328.82,259.59s-1.81,2.77,7.74,5.71c6.85,2.1,8-1.8,8-1.8s2.39-11.43-4.76-10.83S328.82,259.59,328.82,259.59Z"/>
                    <path class="cls-45" d="M328.82,259.59s1.57-14.74,9.23-14.74c6,0,8.64,3.61,8.34,8.72a47.75,47.75,0,0,1-1.79,9.93S339.24,253.57,328.82,259.59Z"/>
                  </g>
                  <g>
                    <path class="cls-46" d="M355.52,261a24,24,0,0,1-15.24.42c-.18.45-.35.91-.53,1.36,3.12,1.53,10.87,4.76,16.34,2l24.82,8,1.23-2.65Z"/>
                    <g>
                      <path class="cls-47" d="M360.8,259.93a8.49,8.49,0,0,1-2.51-2.3c-2.62-4-4.12-4.82-9.34-5.52-1.53-.2-3-.39-4.84-.51-.21.63-.41,1.26-.63,1.89l6.94,1.29s3.34.49,2.78,3l-1,2.06s1.55,2.83,9,4.17l19.33,6.22,5.74-4.11Z"/>
                      <path class="cls-47" d="M342.59,255.64l-.6,1.67L355.52,261l-.19-2.72Z"/>
                      <path class="cls-47" d="M352.55,260.06c-.18,3.09-7.16.65-11.62-.28-.21.56-.43,1.13-.66,1.69A65.44,65.44,0,0,0,350,264c4.52.62,9.12-2.67,9.12-2.67Z"/>
                    </g>
                  </g>
                  <g>
                    <path class="cls-29" d="M381.72,307.05c22.15,6.95,35.45,2,39.43-12.86,2.5-9.32-3.66-21.36-13.21-29.34-8.57-7.17-17.57-11.53-29.24-11.34-1.67,0-8.6,1.14-11.5,12.4,0,0-2.3,6.79,3.79,9.31a48,48,0,0,0,8.06,2.14,10.68,10.68,0,0,0,8.41-2l-.58-.69,5.6,5.36Z"/>
                    <path class="cls-48" d="M387.46,275.39l-4.12-2.28s-1.08,5.19,4.12,2.28"/>
                  </g>
                  <path class="cls-49" d="M378.91,277.34a8.42,8.42,0,0,1-.92-3.72,13.44,13.44,0,0,1,.48-3.84,17.94,17.94,0,0,1,1.48-3.56c.32-.56.68-1.1,1-1.64s.77-1,1.18-1.52c-.31.56-.65,1.1-1,1.65s-.61,1.11-.88,1.68a20.31,20.31,0,0,0-1.33,3.53,14.89,14.89,0,0,0-.59,3.7A10.49,10.49,0,0,0,378.91,277.34Z"/>
                  <path class="cls-49" d="M371.35,275.51a14.06,14.06,0,0,1-.71-4.42,14.39,14.39,0,0,1,.7-4.46,15.36,15.36,0,0,1,.9-2.08,11.51,11.51,0,0,1,1.29-1.87,12.57,12.57,0,0,1,1.58-1.6,19,19,0,0,1,1.83-1.3,16.81,16.81,0,0,0-3.11,3.14,17,17,0,0,0-1.19,1.84,13.68,13.68,0,0,0-.82,2,15,15,0,0,0-.8,4.31A18.7,18.7,0,0,0,371.35,275.51Z"/>
                  <path class="cls-49" d="M383.13,272.8a29.32,29.32,0,0,1,5.44,2.77,31.76,31.76,0,0,1,4.81,3.78,24.52,24.52,0,0,1,3.82,4.79,18.87,18.87,0,0,1,2.22,5.68,26.76,26.76,0,0,0-1.1-2.83c-.23-.45-.41-.92-.67-1.36l-.78-1.29a25.83,25.83,0,0,0-3.84-4.63,35.69,35.69,0,0,0-4.67-3.82A40.35,40.35,0,0,0,383.13,272.8Z"/>
                  <path class="cls-49" d="M274.25,318.13a18.88,18.88,0,0,0,1-3.35,18.27,18.27,0,0,0,.35-3.45,16,16,0,0,0-.32-3.45,20.14,20.14,0,0,0-1-3.35,13,13,0,0,1,1.83,6.8A13.56,13.56,0,0,1,274.25,318.13Z"/>
                  <path class="cls-49" d="M268.7,318.68a8.86,8.86,0,0,0,.86-3.13,13,13,0,0,0-.12-3.24,18.52,18.52,0,0,0-.83-3.15c-.18-.51-.4-1-.6-1.53s-.47-1-.68-1.5c.31.45.6.93.9,1.39s.51,1,.74,1.5a13.34,13.34,0,0,1,1,3.21,10.3,10.3,0,0,1,0,3.37A7.07,7.07,0,0,1,268.7,318.68Z"/>
                  <path class="cls-31" d="M394.91,281.74l-.43-.3c-.67-.44-1.37-.85-2-1.32l-10.73,26.93,3.79,1.1s10.08-22.36,9.9-25.92C395.25,282.06,395.08,281.9,394.91,281.74Z"/>
                  <polygon class="cls-31" points="256.05 284.11 262.23 294.46 258.34 294.46 252.91 285.7 256.05 284.11"/>
                  <g>
                    <path class="cls-50" d="M366.93,355.39c0,5.31-18.59,9.62-41.53,9.62s-41.53-4.31-41.53-9.62,18.59-9.62,41.53-9.62S366.93,350.07,366.93,355.39Z"/>
                    <g>
                      <path class="cls-3" d="M366.4,352.07c0,5.31-18.59,9.62-41.52,9.62s-41.54-4.31-41.54-9.62,18.6-9.62,41.54-9.62S366.4,346.75,366.4,352.07Z"/>
                      <path class="cls-51" d="M324.88,362.07c-23.5,0-41.91-4.4-41.91-10s18.41-10,41.91-10,41.9,4.39,41.9,10S348.37,362.07,324.88,362.07Zm0-19.24c-22.31,0-41.16,4.23-41.16,9.24s18.85,9.24,41.16,9.24S366,357.08,366,352.07,347.18,342.83,324.88,342.83Z"/>
                    </g>
                    <g>
                      <path class="cls-3" d="M366.4,350.66c0,5.32-18.59,9.62-41.52,9.62s-41.54-4.3-41.54-9.62,18.6-9.62,41.54-9.62S366.4,345.34,366.4,350.66Z"/>
                      <path class="cls-51" d="M324.88,360.66c-23.5,0-41.91-4.39-41.91-10s18.41-10,41.91-10,41.9,4.39,41.9,10S348.37,360.66,324.88,360.66Zm0-19.24c-22.31,0-41.16,4.23-41.16,9.24s18.85,9.25,41.16,9.25S366,355.67,366,350.66,347.18,341.42,324.88,341.42Z"/>
                    </g>
                    <g>
                      <path class="cls-3" d="M356.58,350.22c0,3.75-14.45,6.8-32.28,6.8S292,354,292,350.22s14.45-6.8,32.29-6.8S356.58,346.46,356.58,350.22Z"/>
                      <path class="cls-52" d="M324.3,357.2c-18.21,0-32.48-3.07-32.48-7s14.27-7,32.48-7,32.47,3.07,32.47,7S342.51,357.2,324.3,357.2Zm0-13.59c-17.4,0-32.1,3-32.1,6.61s14.7,6.61,32.1,6.61,32.09-3,32.09-6.61S341.69,343.61,324.3,343.61Z"/>
                    </g>
                    <g>
                      <path class="cls-3" d="M354.27,350.7c0,3.49-13.42,6.32-30,6.32s-30-2.83-30-6.32,13.41-6.31,30-6.31S354.27,347.21,354.27,350.7Z"/>
                      <path class="cls-52" d="M324.3,357.2c-16.92,0-30.17-2.85-30.17-6.5s13.25-6.5,30.17-6.5,30.16,2.86,30.16,6.5S341.21,357.2,324.3,357.2Zm0-12.62c-16.15,0-29.79,2.8-29.79,6.12s13.64,6.13,29.79,6.13,29.79-2.81,29.79-6.13S340.44,344.58,324.3,344.58Z"/>
                    </g>
                  </g>
                </g>
              </g>
              <g>
                <ellipse class="cls-53" cx="404.39" cy="286.82" rx="1.52" ry="2.68" transform="translate(-48.33 84.73) rotate(-11.29)"/>
                <circle class="cls-53" cx="404.39" cy="286.82" r="2.64"/>
                <polygon class="cls-53" points="377.24 292.67 404.86 289.46 403.92 284.19 376.33 287.39 377.24 292.67"/>
                <ellipse class="cls-54" cx="376.82" cy="290.03" rx="1.52" ry="2.68" transform="translate(-49.49 79.39) rotate(-11.29)"/>
                <polygon class="cls-53" points="411.91 334.73 402.44 289.74 407.03 286.6 417.23 336.23 411.91 334.73"/>
                <path class="cls-53" d="M402.31,290a.48.48,0,0,0,.18,0,1.46,1.46,0,0,0,1.18-.92,4.5,4.5,0,0,0-.47-4.07,1.86,1.86,0,0,0-1.66-1,.36.36,0,0,0-.31.4.37.37,0,0,0,.4.31c.31,0,.68.21,1,.66a3.87,3.87,0,0,1,.41,3.37.8.8,0,0,1-.6.51.36.36,0,0,0-.32.38A.38.38,0,0,0,402.31,290Z"/>
                <path class="cls-53" d="M402.28,290h.05a1.47,1.47,0,0,0,1.51-.44,4.66,4.66,0,0,0,1-4.12c-.26-1-.89-1.63-1.66-1.56a.36.36,0,0,0-.33.38.37.37,0,0,0,.39.33c.39,0,.74.36.9,1a4,4,0,0,1-.82,3.43.81.81,0,0,1-.79.29.36.36,0,0,0-.27.66Z"/>
                <path class="cls-53" d="M402.47,290.14a1.72,1.72,0,0,0,1.45-.05,5.07,5.07,0,0,0,2.62-3.84,2,2,0,0,0-.85-2.13h0a.36.36,0,0,0-.48.16.37.37,0,0,0,.17.48c.36.18.53.71.45,1.41a4.45,4.45,0,0,1-2.2,3.27,1,1,0,0,1-.93,0,.36.36,0,1,0-.41.59Z"/>
                <path class="cls-53" d="M402.71,290.4a2,2,0,0,0,.9.16,4.74,4.74,0,0,0,3.53-2.49,2.27,2.27,0,0,0,.25-1.6.36.36,0,0,0-.44-.25.36.36,0,0,0-.25.44,1.59,1.59,0,0,1-.2,1.09,4,4,0,0,1-2.93,2.09.87.87,0,0,1-.78-.27.36.36,0,0,0-.5-.09.36.36,0,0,0-.08.5A1.36,1.36,0,0,0,402.71,290.4Z"/>
                <path class="cls-53" d="M402.89,290.74l.28.11a4.3,4.3,0,0,0,3.81-1,1.81,1.81,0,0,0,.72-1.62.35.35,0,0,0-.41-.29.36.36,0,0,0-.29.41,1.2,1.2,0,0,1-.5,1,3.63,3.63,0,0,1-3.11.85.76.76,0,0,1-.56-.48.36.36,0,0,0-.43-.26.36.36,0,0,0-.27.43A1.32,1.32,0,0,0,402.89,290.74Z"/>
              </g>
              <ellipse class="cls-55" cx="425.48" cy="370.52" rx="24.46" ry="4.16"/>
              <g>
                <g>
                  <g>
                    <polygon class="cls-56" points="401.02 304.16 408.34 371.12 437.84 371.12 445.21 304.16 401.02 304.16"/>
                    <polygon class="cls-57" points="427.1 371.12 429.46 304.16 445.21 304.16 437.84 371.12 427.1 371.12"/>
                  </g>
                  <g>
                    <polygon class="cls-58" points="404.61 315.27 411.92 367.92 434.2 367.92 441.63 315.27 404.61 315.27"/>
                    <polygon class="cls-59" points="427.21 367.92 429.07 315.27 441.63 315.27 434.2 367.92 427.21 367.92"/>
                  </g>
                </g>
                <path class="cls-59" d="M411.92,367.92c7-4,14.37-4.31,22.28,0Z"/>
                <polygon class="cls-60" points="407.13 306.8 414.5 367.92 415.5 367.92 411.48 306.79 407.13 306.8"/>
              </g>
              <g>
                <g>
                  <path class="cls-61" d="M343.15,352.3c2.49-1.48,4.42-3.54,4.92-6.37.19-1.15.6-3.52.09-4.64-1-3.72-9.62-6.63-20.13-6.63-11.17,0-20.22,3.29-20.22,7.34a9.64,9.64,0,0,0,.63,6.31,9.21,9.21,0,0,0,4.3,4.2,29.7,29.7,0,0,0,12.34,2.9C331.29,355.62,337.59,355.6,343.15,352.3Z"/>
                  <path class="cls-62" d="M328,334.66c-11.17,0-20.22,3.29-20.22,7.34a9.43,9.43,0,0,0,.17,5.13,5.94,5.94,0,0,0,2,1.56c2.87,1.42,6.11,1.65,9.19,2.25s6.31-.1,9.53-.1a57.82,57.82,0,0,0,9-.24,24,24,0,0,0,8-3A15.26,15.26,0,0,0,348,346l0-.1c.19-1.15.6-3.52.09-4.64C347.17,337.57,338.54,334.66,328,334.66Z"/>
                  <path class="cls-63" d="M330.4,334.71c-5.18.69-10.51.31-15.56,1.73a21,21,0,0,0-3.3,1.32A10.73,10.73,0,0,0,308,340.9a2.84,2.84,0,0,0-.22,1.1,9,9,0,0,0-.18,3.52.41.41,0,0,0,.05.09c1.24,2.16,3.79,2.74,6,3.21.8.17,1.64.34,2.48.49a20.42,20.42,0,0,0,5.38.34c3.74-.36,7.46-1,11.29-.69a27.82,27.82,0,0,0,11.57-1.22,13,13,0,0,0,3.72-2.08c.21-1.22.52-3.33.05-4.37C347.24,337.85,339.81,335.11,330.4,334.71Z"/>
                  <path class="cls-64" d="M325.07,351.61c1.36-.14,7.94-1.35,8.44.9.3,1.34-3,1.73-3.73,1.87a22.89,22.89,0,0,1-8,.07,36.67,36.67,0,0,1-10-3.15c-.67-.36-2.48-1.35-2.56-2.25-.13-1.42,1.35-.49,1.87-.21a18.93,18.93,0,0,0,4.07,1.72A25.8,25.8,0,0,0,325.07,351.61Z"/>
                </g>
                <g>
                  <path class="cls-65" d="M347.33,332.46c-2.06-4.56-10.08-8-19.65-8-10.37,0-18.9,4-20,9.1a5.07,5.07,0,0,0-.52,1c-2.32,6.37,2.15,11.15,7.74,13.38,2.79,1.12,4.79,2.24,7.93,2.25,4,0,7.77.81,11.68-.39,4.26-1.31,9.69-2.24,12.64-5.94C349.32,341.15,349.34,335.36,347.33,332.46Z"/>
                  <path class="cls-66" d="M347.33,333c-2.06-4.86-10.08-8.49-19.65-8.49-8.79,0-16.26,3.06-19,7.31a7.65,7.65,0,0,0,.13,2.85c.52,2.17,2.31,5.11,4.17,5.94,4.38,1.93,8.56,1.72,13.12,2.4,1.78.27,3.17,1,5.05.67s3.22-1.19,5-1.12c2.65.12,5.2-1.07,7.67-2.27,1.85-.89,3.48-4.9,3.58-7.23Z"/>
                  <path class="cls-66" d="M310.92,341.53c1.07,1.17,3.14,1.35,3.89,2.49-1.28,1.33-3.94-1.15-5-2-.87-.67-2.46-1.08-2.64-2.4C306.69,336.16,310.59,341.17,310.92,341.53Z"/>
                  <g>
                    <path class="cls-66" d="M347.32,332.43c-.45,1.07.4,2.53.86,3.92A10.45,10.45,0,0,1,348,342c-.41,1.52-1.41,2.08-2.83,2.47-.83.22-2.79.19-3.34.69-1.24,1.12-.19,1.68-2.36,2.19a19.73,19.73,0,0,1-3.08.32,5.88,5.88,0,0,0-1.57,0c-.7.27-.9,1-1.5,1.29-1,.42-2.1.37-3.11.83-1.2.56.13.84-1.74.34-.5-.13-1-.38-1.48-.49s-1.09,0-1.55-.17a10.69,10.69,0,0,1-1.11-.6c-1.26-.28-2,.35-3.06.45a8.77,8.77,0,0,1-2.81-.51c-.73-.21-1.92-.33-2.82-.55,2.41,1,4.33,1.92,7.17,1.93,4,0,7.77.81,11.68-.39,4.26-1.31,9.69-2.24,12.64-5.94,2.21-2.76,2.23-8.55.22-11.45Z"/>
                    <path class="cls-66" d="M306.55,338.91c.45,4.12,3.89,7.23,8,8.95-1-.71-1-2.16-1.77-3-1.2-1.21-3.07-.88-4.29-2.19C307.5,341.64,307.48,339.9,306.55,338.91Z"/>
                  </g>
                  <path class="cls-66" d="M340.84,344.27c.68-.19,1.34-.42,1.62-.48,1.45-.29,3.57-1.23,2.77-3.28s-1.33.51-2,1.3a4.21,4.21,0,0,1-2.15,1.42c-.77.2-1.82-.49-2.16.62C338.65,344.74,339.77,344.57,340.84,344.27Z"/>
                  <path class="cls-66" d="M325.43,343.72c-.76-.94-4-1-5.17-1.49s-3.85-1.7-4.58.31c-.63,1.73,1.58,2,2.65,2.48.84.38,2.19,2.13,3,2,2.39-.46.07-2.55-.2-3.12C322,343.8,326.57,345.16,325.43,343.72Z"/>
                  <path class="cls-67" d="M331.78,346.71c-2.29,0-3.19.89-5-.79-.74-.7-2.94-2.43-3.47-.18-.34,1.46,1.95,1.27,2.87,1.57C327.78,347.83,330.9,348.93,331.78,346.71Z"/>
                  <path class="cls-67" d="M315.08,346.35c.3,1.13,4.8,2.09,5.09.89C320.55,345.6,314.34,343.57,315.08,346.35Z"/>
                  <g>
                    <path class="cls-68" d="M315.25,343.11c1.8-1.59,4.39-1.84,6.68-2.14,1.71-.22,3.5-.13,5.23-.2,1.36-.06,2.73.05,4.09,0s2.7-.35,4.11-.35c2.42,0,4.72.1,7.12-.07a11.25,11.25,0,0,1,3.57.31c.81.21,1.87.81,2.47-.06,1.16-1.68-3.33-5.09-4.26-5.75-2-1.46-4.05-1.58-6.5-1.64a26.92,26.92,0,0,0-9.38,1.37c-2.31.78-4.69.55-7,1.19a33.75,33.75,0,0,0-5.86,2.08,16.91,16.91,0,0,0-4.5,3.72c-.9.92-1.91,3.11-.32,4S314.22,344,315.25,343.11Z"/>
                    <g>
                      <path class="cls-69" d="M332.64,323.94c-1.65.21-3.28.76-5,.85a37.09,37.09,0,0,1-7.59-.37c-3.69-.6-5.59,2.18-7.19,5.24a37.88,37.88,0,0,1-3.05,4.1c-1.29,1.82-1.48,4.32-1.52,6.5,0,1.57-.18,4.5,1.7,4.83,1.46.26,3.18-1.63,4.39-2.35,4.43-2.62,10.76-2.78,15.75-2.79,2.49,0,4.79-.58,7.24-.71,1.91-.1,4-.91,5.9-.49,1.51.34,2.74,1.71,4.34,1.81,3.93.27.42-4.66-.33-6.39a19.76,19.76,0,0,0-2.95-5.2c-2.47-2.9-7.09-5.24-10.88-5.09C333.17,323.89,332.91,323.91,332.64,323.94Z"/>
                      <path class="cls-70" d="M330.12,340c2.49,0,4.79-.58,7.24-.71,1.91-.1,4-.91,5.9-.49,1.51.34,2.74,1.71,4.34,1.81,1.42.1,1.87-.49,1.82-1.35a1.45,1.45,0,0,1-1.47.9c-1.44-.07-2.93-1.84-4.47-2-2.13-.27-4.48.33-6.53.71-4.44.81-8.95-.3-13.38.42-2.53.41-4.76.51-7.15,1.54-.88.39-1.87.71-2.69,1.16-.59.32-1.26,1.19-1.79,1.35-4.12,1.24-2.45-4.78-2.77-8.37a14.12,14.12,0,0,0-.89,5.38c0,1.57-.18,4.5,1.7,4.83,1.46.26,3.18-1.63,4.39-2.35C318.8,340.12,325.13,340,330.12,340Z"/>
                      <path class="cls-71" d="M313.85,341.47c2.18-1.13,4.6-2.56,7.08-2.75a59.69,59.69,0,0,1,6.95-.06c.23,0,1.14-.15,1,.33s-2,.21-2.39.26c-1.58.22-3.2.47-4.83.56a9,9,0,0,0-4.77,1.26,28.52,28.52,0,0,1-2.87,1.08c-.48.23-1.64,1.55-2.15,1.47-.71-.11-.13-.71.21-1A10.8,10.8,0,0,1,313.85,341.47Z"/>
                      <path class="cls-71" d="M348.62,338.91a.67.67,0,0,1,0,.36c-.09,1.61-3.14-.26-3.75-.57a7.4,7.4,0,0,1-1.39-.63c-.13-.11,1.11-.15,1.18-.14,1,.1,1.89.75,2.89.93C348.12,339,348.5,338.68,348.62,338.91Z"/>
                      <path class="cls-71" d="M309.32,339.76a5,5,0,0,0-.14-1.41c-.91.43-.67,1.82-.5,2.59.1.43.5,1.79,1,1.93C310.62,343.15,309.37,340.27,309.32,339.76Z"/>
                    </g>
                  </g>
                </g>
                <g>
                  <path class="cls-72" d="M325.28,340.12a61.11,61.11,0,0,1,4.77,5.46c2.09,2.41,1.68,0,3.32-1.61s5.24.26,3.91-2.65c-1.08-2.37-4.32-5.18-6.28-6.85-3.41-2.92-6.68-3.11-10.91-3.18-4-.07-10.41-1.58-12.92,2.65-.85,1.42-2.18,3.9-.15,4.45.92.26,2.35-.37,3.25-.59C315.38,336.52,321.2,336.4,325.28,340.12Z"/>
                  <path class="cls-73" d="M320.57,336.83a13.59,13.59,0,0,1,7.23,4.72c.62.75,3.29,4,4.11,2.25s-3.26-5.54-4.26-6.53a10.59,10.59,0,0,0-5.36-3,62.21,62.21,0,0,0-8.94-.75c-1.37,0-6.47.49-3,2.28,1.35.68,3.63.22,5.09.29A22.68,22.68,0,0,1,320.57,336.83Z"/>
                  <path class="cls-74" d="M316.46,332.2c-1.57-.22-8.29-.53-8.51,1.89,1.09.37,2.09-.38,3.18-.56,3.33-.55,6.2.43,9.48.63,3.85.22,6.13,1.59,8.83,4.41,1.52,1.59,2.62,4.46,5,4.58-.06-1.45-1.79-1.88-2.65-2.83-1.15-1.27-1.2-2.91-2.19-4.22-1.66-2.2-4.54-2.42-7-2.9C320.58,332.81,318.43,332.48,316.46,332.2Z"/>
                  <path class="cls-75" d="M315.32,331.48c-1.46.32-2.71-.45-4.08-.26-.63.08-2.69.83-3,1.49-.39.84.36.74.8.62a11.49,11.49,0,0,1,1.82-.71,19.83,19.83,0,0,1,3.17-.34,29.32,29.32,0,0,0,3.1.2c.69-.06,1.38-.26,2.06-.29a19.24,19.24,0,0,1,5.12,1c1.48.36,3.61.26,4.64,1.46s1.38,3.28,2.37,4.72a9.39,9.39,0,0,0,1.62,1.37,13.81,13.81,0,0,1,1.22,1.34c.9,1,1.69.52,2.9.53.24-.81-1-1.46-1.41-2.12-.84-1.45-2.13-2.4-3.15-3.78s-1.57-2.47-3.29-3.16c-1-.42-2.07-.75-3.13-1.08a23.23,23.23,0,0,0-6.78-1A14.28,14.28,0,0,0,315.32,331.48Z"/>
                  <path class="cls-75" d="M331.44,346.6a6.49,6.49,0,0,1-.46-.7c-.35-.66-.44-1.46-.81-2.09a18.86,18.86,0,0,0-2.71-3.47c-1.81-1.7-5-3.72-7.52-3.87a52.08,52.08,0,0,0-7.39,0c-1.69.15-3,.7-4.34-.58-.51-.5-.78-1.16-1.29-1.49-.82,1.45-1.73,3.52.1,4,.92.26,2.35-.37,3.25-.59,5.11-1.28,10.93-1.4,15,2.32a61.11,61.11,0,0,1,4.77,5.46C330.72,346.35,331.13,346.63,331.44,346.6Z"/>
                  <path class="cls-76" d="M315.94,332.73c-1.23-.08-2.4-.62-3.63-.44-.56.08-2.32.38-2.41,1.14-.07.58,1.48,0,1.83-.11a13.41,13.41,0,0,1,5.71,0,23.12,23.12,0,0,0,5.22.72,5.94,5.94,0,0,1,2.52.5c.52.22,1.12.73,1.72.45.1-.85-2.38-.92-3-1-1.77-.35-3.43-1-5.21-1.35A23.51,23.51,0,0,0,315.94,332.73Z"/>
                  <path class="cls-76" d="M334.3,343.16c.13-.74-1.38-3-2.25-2.55-1.39.69,1.36,2.68,2.24,2.59A.08.08,0,0,0,334.3,343.16Z"/>
                </g>
                <g>
                  <g>
                    <path class="cls-77" d="M336.12,325a19.59,19.59,0,0,1,9,1.9,8.64,8.64,0,0,1,3,2.73l.78-.1-.16,1.86a2.17,2.17,0,0,1-.06.57c-.51,2.32-3.9,3.72-5.87,4.35a20.27,20.27,0,0,1-6.09.94c-3.72,0-13.07-.63-13.07-6.11C323.67,327.71,329.25,325,336.12,325Z"/>
                    <path class="cls-78" d="M323.84,329.21c0,5.48,9.35,6.13,13.06,6.11a20.34,20.34,0,0,0,6.1-.94c2-.63,5.36-2,5.87-4.34.44-2-2-4.24-3.58-5.07a19.52,19.52,0,0,0-9-1.9C329.41,323.07,323.84,325.82,323.84,329.21Z"/>
                    <path class="cls-79" d="M342.64,326.2c1.46-.95,3.81-1.28,3.69,1.1-.05,1-.55,1-1.2,1.6a13.85,13.85,0,0,1-2.76,2.28,18.49,18.49,0,0,1-4.36,1.94,22.69,22.69,0,0,1-3.4.25c-.31,0-1-.1-1.13.33-.15.62.87.47,1.21.47a8.17,8.17,0,0,0,2-.07c1.14-.25,2.28-.21,3.4-.46,1.87-.41,3.37-1.59,5.09-2.31,1.32-.54,2-1,2.38-2.37.08-.32,0-1,.65-.55s.16,1.37-.05,1.78a5.4,5.4,0,0,1-3,2.56c-1.23.4-2.38,1-3.63,1.27-1.52.37-2.66,1-4.29,1-1.18,0-2.34-.12-3.52-.18a5.56,5.56,0,0,1-3.33-.76c-1.93-1.44,2-3.07,3.08-3.55,2.28-1,4.6-1.89,6.86-2.93A16.82,16.82,0,0,0,342.64,326.2Z"/>
                    <path class="cls-79" d="M339.52,332.89c.13-.85-3.43-.21-3.94-.14-.67.09-4.62.65-2.41,1.44,1.74.62,4.3.42,6.09.25a11.72,11.72,0,0,0,2.82-.54,3.19,3.19,0,0,0,1.31-.75c.2-.23.51-.71.17-1s-.63.19-.91.33A4.6,4.6,0,0,1,339.52,332.89Z"/>
                  </g>
                  <path class="cls-80" d="M344.6,329.22h0c.32-.3.7-.56,1-.87s.41-.69.59-.8c.65-.38.82.46.8,1a2.89,2.89,0,0,1-1,1.87,9.62,9.62,0,0,1-3.3,2.31,7.92,7.92,0,0,1-2.33.28c-.44,0-1.74.44-1.08-.48.25-.36.89-.47,1.26-.69a7.53,7.53,0,0,1,1.42-.78A7.32,7.32,0,0,0,344.6,329.22Z"/>
                  <path class="cls-78" d="M335.84,333.58c-.1,0,.54.38.59.39a5,5,0,0,0,1.59.14c.64,0,2.23-.08,2.24-1C340.26,332.8,336.15,333.56,335.84,333.58Z"/>
                  <path class="cls-81" d="M340.74,336.17c-.42,0-2.2.39-1.22-.4.43-.35,1.26-.23,1.78-.31a10.93,10.93,0,0,0,3.12-.89,10.31,10.31,0,0,0,1.84-1.08c.26-.2,1.83-1.32,1.21-.09a3.27,3.27,0,0,1-1.14,1,12.39,12.39,0,0,1-2.66,1.24A11.24,11.24,0,0,1,340.74,336.17Z"/>
                </g>
                <g>
                  <path class="cls-82" d="M324.4,331.55c.49,0,.12-.29-.66-.72-1.42-.78-6.35-1.82-12.42,2.08,0,0-3.27,3-3.23,4.58a3.21,3.21,0,0,0,.78,1.91c1.47,1.7,5.43,2.14,9.69.94,4.94-1.4,8.39-4.49,7.7-6.92A3.06,3.06,0,0,0,324.4,331.55Zm-8.22.39c4.27-1.21,8.22-.49,8.81,1.6a2.24,2.24,0,0,1-.06,1.35,8.9,8.9,0,0,1-2.06,1.7,20.05,20.05,0,0,1-4.15,2.18,14.55,14.55,0,0,1-2.24.8,5.61,5.61,0,0,1-1.58-.14c-1.24-.13-2.49,0-3.72-.15a1.54,1.54,0,0,0-.53,0,2.42,2.42,0,0,1-1.14-1.38C308.92,335.82,311.9,333.14,316.18,331.94Z"/>
                  <path class="cls-83" d="M315.79,330.58c-4.94,1.4-8.39,4.49-7.7,6.91s5.24,3.26,10.19,1.86,8.39-4.49,7.7-6.91S320.74,329.18,315.79,330.58Zm2.26,8c-4.28,1.21-8.23.49-8.82-1.61s2.39-4.78,6.67-6,8.22-.49,8.81,1.6S322.32,337.33,318.05,338.54Z"/>
                </g>
                <g>
                  <path class="cls-84" d="M344.93,321.56A14.59,14.59,0,0,0,341,318.5c-5.21-2.87-11.71-3.65-17.71-2.95s-13.2,3.29-15.69,9.68c-.81,2.08-2.54,6.07-2.23,8.35.49,3.6,3.29,4.83,6.6,5,5.87.32,11.28-1.66,16.45-4.07a33.31,33.31,0,0,1,6.67-2.5,32.29,32.29,0,0,1,3.6-1c3.1-.34,9-1.45,8-6.06A7.74,7.74,0,0,0,344.93,321.56Z"/>
                  <path class="cls-85" d="M345.9,322.92c-.34.76-.56,1.62-.93,2.36-1.35,2.67-3.35,3.3-5.79,4.54a16.48,16.48,0,0,1-6.13,2.2,24.06,24.06,0,0,0-6.62,1.64,29.75,29.75,0,0,1-7.57,2.31c-2.33.33-4.62,1.58-7,1.48-3.34-.14-5.52-1.79-6.49-4.07a1.34,1.34,0,0,0,0,.2c.49,3.6,3.29,4.83,6.6,5,5.87.32,11.28-1.66,16.45-4.07a33.31,33.31,0,0,1,6.67-2.5,32.29,32.29,0,0,1,3.6-1c3.1-.34,9-1.45,8-6.06A7.17,7.17,0,0,0,345.9,322.92Z"/>
                  <path class="cls-86" d="M328.16,329.79c3-3.91-1.7-5.86-5.06-6.24a17.31,17.31,0,0,0-9.7,1.53c-2.63,1.37-6,3.28-4.74,6.84,1,2.77,6.58,2.29,8.75,2.09C320.48,333.72,326.2,332.32,328.16,329.79Z"/>
                  <path class="cls-87" d="M314.24,330.94c-1-.25-1.92-.44-2.25-.57-.76-.31-2.27-1.17-2.28.34,0,1.16,1.69,2.42,2.48,2.62.63.15,5.31.39,5-1C317,331.74,315.58,331.28,314.24,330.94Z"/>
                  <path class="cls-87" d="M320.15,332.85c2.83-.39-.85-1.89-1.36-.64C318.57,332.74,319.73,332.91,320.15,332.85Z"/>
                  <path class="cls-3" d="M310.21,336.19c-1.55.06-4-1.58-3-3.46.55-1,1.86.42,2.33.79a6.36,6.36,0,0,0,3.56,1.67c1,.16,1.61.28.18.88C312.42,336.45,311.16,336.15,310.21,336.19Z"/>
                  <path class="cls-3" d="M325.16,333.48l0,0a19.72,19.72,0,0,1,3.32-.85c.41-.12-.91-.72-.95-.73a4.35,4.35,0,0,0-2.13.51c-.55.22-1.46.33-1.88.78s-.8,1.46.07,1.49C323.94,334.67,324.79,333.7,325.16,333.48Z"/>
                </g>
                <g>
                  <path class="cls-88" d="M322.21,302.33a31.24,31.24,0,0,0,8.91,2.17c1.15.08,2.27-.12,3.4-.09,3.06.09,3.94-3.63,3.22-6a11.6,11.6,0,0,0-3.65-5.19,21.67,21.67,0,0,0-6.89-4,25.9,25.9,0,0,0-7-1.57c-2.75-.16-6,.37-8.21,2.13-1.77,1.41-2.81,4.35-1,6a19.42,19.42,0,0,0,3.3,2.29A55.14,55.14,0,0,0,322.21,302.33Z"/>
                  <path class="cls-64" d="M329.12,290.06c-1.14-.54-1.92-.82-1.92-.82s-8.09-3.37-13.65-.34c.39,2.66,6.77,3.21,8.12,3.3a11.84,11.84,0,0,0,6.09-.93A3.17,3.17,0,0,0,329.12,290.06Z"/>
                  <g class="cls-89">
                    <path class="cls-90" d="M322.21,302.33a31.24,31.24,0,0,0,8.91,2.17c1.15.08,2.27-.12,3.4-.09a3,3,0,0,0,2.93-1.86c-1.13.66-2,.83-3.11-.33-.71-.73-1.09-3.59-2.64-3.16-.5.14-.82,1.08-1.19,1.46a5.51,5.51,0,0,1-4.05,1.54c-1.91,0-4.21-1.17-4.77-3.13-.27-.93.63-2.06-.25-2.5a5.64,5.64,0,0,0-2.38.13,9.39,9.39,0,0,1-3.17.24c-1.89-.38-5.2-2.61-4.84-4.78.07-.42.36-1.16.59-1.93-1.56,1.49-2.37,4.17-.66,5.75a19.42,19.42,0,0,0,3.3,2.29A55.14,55.14,0,0,0,322.21,302.33Z"/>
                    <path class="cls-90" d="M333.72,293.43a8.58,8.58,0,0,1,1.21.61c-.27-.28-.55-.54-.84-.79a22.26,22.26,0,0,0-4.13-2.81,1.12,1.12,0,0,0-.12,1.22C330.24,292.71,332.78,293.06,333.72,293.43Z"/>
                  </g>
                  <g class="cls-89">
                    <path class="cls-90" d="M322.83,302.56c-1.44-.67-2.79-2.05-4.05-2.87-1.44-.93-2.83-1.85-4.23-2.87a8.58,8.58,0,0,0-2.23-1.29c-.5-.16-1-.09-1.46-.43a2.64,2.64,0,0,1-.81-1.94,3.05,3.05,0,0,0,.93,2.68,19.42,19.42,0,0,0,3.3,2.29,55.14,55.14,0,0,0,7.93,4.2Z"/>
                    <path class="cls-90" d="M331.12,304.5c1.15.08,2.27-.12,3.4-.09a2.94,2.94,0,0,0,1.88-.56,2.31,2.31,0,0,1-.82.21,4.67,4.67,0,0,1-3-.77c-.61-.53-.4-1.61-1-1.94-.44.94-.88,2.39-2.18,2.06-.7-.18-.93-.82-1.2-1.36a7.32,7.32,0,0,1-4.58.82A29.15,29.15,0,0,0,331.12,304.5Z"/>
                  </g>
                </g>
              </g>
              <g>
                <g>
                  <g>
                    <rect class="cls-91" x="252.12" y="335.45" width="3.66" height="23.54"/>
                    <polygon class="cls-92" points="253.59 335.45 253.59 358.99 255.78 358.99 255.78 334.23 253.59 335.45"/>
                    <polygon class="cls-93" points="253.59 334.23 252.12 335.45 253.59 335.45 255.78 334.23 253.59 334.23"/>
                  </g>
                  <g>
                    <rect class="cls-91" x="248.79" y="332.74" width="3.66" height="23.54" transform="translate(9.24 -6.53) rotate(1.52)"/>
                    <polygon class="cls-92" points="250.57 332.73 249.94 356.26 252.14 356.32 252.8 331.57 250.57 332.73"/>
                    <polygon class="cls-93" points="250.6 331.51 249.11 332.69 250.57 332.73 252.8 331.57 250.6 331.51"/>
                  </g>
                  <g>
                    <rect class="cls-91" x="247.93" y="329.8" width="3.66" height="23.54" transform="translate(9.16 -6.51) rotate(1.52)"/>
                    <polygon class="cls-92" points="249.71 329.8 249.08 353.33 251.28 353.38 251.93 328.63 249.71 329.8"/>
                    <polygon class="cls-93" points="249.74 328.58 248.24 329.76 249.71 329.8 251.93 328.63 249.74 328.58"/>
                  </g>
                  <g>
                    <rect class="cls-91" x="252.02" y="327.6" width="3.66" height="23.54" transform="translate(-23.41 18.84) rotate(-4.06)"/>
                    <polygon class="cls-92" points="252.65 327.66 254.32 351.14 256.51 350.98 254.75 326.29 252.65 327.66"/>
                    <polygon class="cls-93" points="252.56 326.44 251.19 327.76 252.65 327.66 254.75 326.29 252.56 326.44"/>
                  </g>
                  <g>
                    <rect class="cls-91" x="245.45" y="336.08" width="3.66" height="23.54" transform="translate(-110.15 114.63) rotate(-21.47)"/>
                    <polygon class="cls-92" points="242.63 337.03 251.24 358.93 253.29 358.13 244.23 335.09 242.63 337.03"/>
                    <polygon class="cls-93" points="242.18 335.89 241.27 337.56 242.63 337.03 244.23 335.09 242.18 335.89"/>
                  </g>
                  <g>
                    <rect class="cls-91" x="255.13" y="330.58" width="3.66" height="23.54"/>
                    <polygon class="cls-92" points="256.6 330.58 256.6 354.12 258.79 354.12 258.79 329.36 256.6 330.58"/>
                    <polygon class="cls-93" points="256.6 329.36 255.13 330.58 256.6 330.58 258.79 329.36 256.6 329.36"/>
                  </g>
                  <g>
                    <rect class="cls-91" x="253.66" y="332.75" width="3.66" height="23.54" transform="translate(-36.02 29.89) rotate(-6.26)"/>
                    <polygon class="cls-92" points="253.85 332.86 256.41 356.26 258.6 356.02 255.9 331.41 253.85 332.86"/>
                    <polygon class="cls-93" points="253.72 331.65 252.39 333.02 253.85 332.86 255.9 331.41 253.72 331.65"/>
                  </g>
                  <g>
                    <rect class="cls-91" x="258.07" y="327.66" width="3.66" height="23.54"/>
                    <polygon class="cls-92" points="259.53 327.66 259.53 351.2 261.73 351.2 261.73 326.44 259.53 327.66"/>
                    <polygon class="cls-93" points="259.53 326.44 258.06 327.66 259.53 327.66 261.73 326.44 259.53 326.44"/>
                  </g>
                  <g>
                    <rect class="cls-91" x="261.25" y="330.74" width="3.66" height="23.54" transform="translate(23.7 -16.96) rotate(3.87)"/>
                    <polygon class="cls-92" points="263.5 330.74 261.92 354.23 264.11 354.38 265.78 329.67 263.5 330.74"/>
                    <polygon class="cls-93" points="263.59 329.53 262.04 330.64 263.5 330.74 265.78 329.67 263.59 329.53"/>
                  </g>
                  <g>
                    <rect class="cls-91" x="263.76" y="333.53" width="3.66" height="23.54" transform="translate(52.04 -34.4) rotate(8.21)"/>
                    <polygon class="cls-92" points="266.91 333.6 263.55 356.89 265.72 357.21 269.26 332.7 266.91 333.6"/>
                    <polygon class="cls-93" points="267.09 332.39 265.46 333.39 266.91 333.6 269.26 332.7 267.09 332.39"/>
                  </g>
                  <g>
                    <rect class="cls-91" x="266.15" y="336.89" width="3.66" height="23.54" transform="translate(91.35 -54.05) rotate(13.86)"/>
                    <polygon class="cls-92" points="270.45 337.15 264.81 360 266.94 360.52 272.87 336.49 270.45 337.15"/>
                    <polygon class="cls-93" points="270.74 335.96 269.03 336.8 270.45 337.15 272.87 336.49 270.74 335.96"/>
                  </g>
                  <g>
                    <rect class="cls-91" x="246.54" y="331.62" width="3.66" height="23.54" transform="translate(-66.04 59.22) rotate(-12.01)"/>
                    <polygon class="cls-92" points="245.56 331.95 250.47 354.97 252.61 354.52 247.46 330.3 245.56 331.95"/>
                    <polygon class="cls-93" points="245.31 330.76 244.13 332.25 245.56 331.95 247.46 330.3 245.31 330.76"/>
                  </g>
                </g>
                <path class="cls-94" d="M265.53,341h0c-6.15,4.87-11.67,4.87-17.83,0h0l-6.21,3.25,4,25.23a1,1,0,0,0,1,.82h20.39a1,1,0,0,0,1-.82l4-25.23Z"/>
                <path class="cls-95" d="M265.53,341v29.3h1.28a1,1,0,0,0,1-.82l4-25.23Z"/>
                <path class="cls-96" d="M241.49,344.23l4,25.23a1,1,0,0,0,1,.82h1.28V341Z"/>
                <path class="cls-97" d="M247.7,342.72h0c6.16,4.87,11.68,4.87,17.83,0h0l6,3.11.26-1.6L265.53,341h0c-6.15,4.87-11.67,4.87-17.83,0h0l-6.21,3.25.25,1.6Z"/>
                <polygon class="cls-98" points="265.54 342.72 271.49 345.83 271.75 344.23 265.54 340.98 265.54 342.72 265.54 342.72"/>
                <polygon class="cls-3" points="247.7 342.72 247.7 340.98 247.7 340.98 244.6 342.6 241.49 344.23 241.74 345.83 247.7 342.72 247.7 342.72"/>
              </g>
            </g>
            <g>
              <g>
                <path class="cls-99" d="M357.11,218.42a10.42,10.42,0,0,1-11.91,8.72,10.52,10.52,0,0,1-9.35-11.51,10.41,10.41,0,0,1,11.91-8.72A10.52,10.52,0,0,1,357.11,218.42Z"/>
                <path class="cls-100" d="M357.14,218.42a9.93,9.93,0,0,1-4.14,6.86,11.08,11.08,0,0,1-7.84,2,11.24,11.24,0,0,1-7.15-3.88,10,10,0,0,1,1.83-14.77,11.14,11.14,0,0,1,15.08,2.07A10.08,10.08,0,0,1,357.14,218.42Zm-.05,0a9.91,9.91,0,0,0-2.37-7.55A11.1,11.1,0,0,0,340.13,209a9.63,9.63,0,0,0-4.08,6.65,9.8,9.8,0,0,0,2.21,7.52,11.06,11.06,0,0,0,14.68,2A9.88,9.88,0,0,0,357.09,218.41Z"/>
              </g>
              <g>
                <path class="cls-101" d="M345.28,215.76a6.05,6.05,0,0,0-6,6.05,9.07,9.07,0,0,0,.56,2.93.82.82,0,0,1,.25.16l.19.19a4,4,0,0,1,.33.24l.32.27.06.05a7.43,7.43,0,0,0,.73.4,1.07,1.07,0,0,1,.4.1l.4.21.62.23a1,1,0,0,1,.33.18c.17,0,.33.11.51.15.43.11.87.21,1.32.28l.25,0c.06,0,.43.08.14,0,.21,0,.43.05.65.07l.17,0,.86,0a3.88,3.88,0,0,0,.44-.13,6,6,0,0,0,3.58-5.46A6.05,6.05,0,0,0,345.28,215.76Z"/>
                <path class="cls-3" d="M351.31,217.14a1.58,1.58,0,0,1-1.32,1.8,1.55,1.55,0,0,1-1.75-1.36,1.58,1.58,0,0,1,1.32-1.8A1.55,1.55,0,0,1,351.31,217.14Z"/>
              </g>
              <g>
                <g>
                  <path class="cls-99" d="M292,216.69c0,5.62,4.83,10.29,10.81,10.43s10.82-4.32,10.82-10-4.83-10.29-10.81-10.42S292,211.06,292,216.69Z"/>
                  <path class="cls-100" d="M292,216.69a10.08,10.08,0,0,0,3.25,7.3,11.24,11.24,0,0,0,7.43,3,10.82,10.82,0,0,0,7.48-2.66,9.45,9.45,0,0,0,3.25-7.15,9.86,9.86,0,0,0-3.21-7.16,11.06,11.06,0,0,0-7.29-3,10.79,10.79,0,0,0-7.5,2.51A9.59,9.59,0,0,0,292,216.69Zm-.05,0a9.75,9.75,0,0,1,3.28-7.37,11.17,11.17,0,0,1,7.69-2.81,11.56,11.56,0,0,1,7.62,3.15,10.25,10.25,0,0,1,3.27,7.51,9.85,9.85,0,0,1-3.43,7.4,11.16,11.16,0,0,1-7.71,2.66,11.43,11.43,0,0,1-7.49-3.16A10.15,10.15,0,0,1,291.94,216.69Z"/>
                </g>
                <g>
                  <path class="cls-102" d="M301.69,226.85l.09,0a9.39,9.39,0,0,0,8.73-2.5,6.08,6.08,0,0,0,.27-1.78,5.51,5.51,0,1,0-11,0,6,6,0,0,0,1.61,4.13Z"/>
                  <path class="cls-3" d="M300.18,216.94a1.75,1.75,0,1,0,2.17-1.23A1.77,1.77,0,0,0,300.18,216.94Z"/>
                </g>
              </g>
              <path class="cls-103" d="M292.25,216.72s0,.05-.06.05c-.21,0,.5-4.77,3.28-7.19a11.79,11.79,0,0,1,5.28-2.62,11.38,11.38,0,0,1,7.65,1.25,10.46,10.46,0,0,1,4.7,6.18,12.76,12.76,0,0,0-6.42-3.72,12.51,12.51,0,0,0-9.51,1.63A37.27,37.27,0,0,0,292.25,216.72Z"/>
              <path class="cls-103" d="M336.13,215.66a10.41,10.41,0,0,1,13.6-8.28c5.46,1.68,7.29,7,7.46,7.51-2-.95-7.82-5.89-15.46-3.44C339,212.35,337.63,214.48,336.13,215.66Z"/>
            </g>
          </g>
        </g>
      </g>
    </g>
  </g>
</svg>
