<svg id="Layer_1" data-name="Layer 1" xmlns="http://www.w3.org/2000/svg" xmlns:xlink="http://www.w3.org/1999/xlink" width="619.88" height="562.43" viewBox="0 0 619.88 562.43">
  <defs>
    <style>
      .cls-1, .cls-58 {
        fill: none;
      }

      .cls-2 {
        fill: #343129;
      }

      .cls-3 {
        fill: #58190d;
      }

      .cls-10, .cls-11, .cls-12, .cls-13, .cls-14, .cls-15, .cls-16, .cls-17, .cls-18, .cls-19, .cls-20, .cls-21, .cls-22, .cls-23, .cls-24, .cls-25, .cls-26, .cls-27, .cls-28, .cls-29, .cls-3, .cls-30, .cls-31, .cls-32, .cls-35, .cls-4, .cls-5, .cls-6, .cls-7, .cls-8, .cls-85, .cls-86, .cls-87, .cls-88, .cls-89, .cls-9, .cls-90, .cls-91, .cls-92, .cls-93, .cls-94, .cls-95 {
        fill-rule: evenodd;
      }

      .cls-4 {
        fill: #eb3b25;
      }

      .cls-5 {
        fill: #9ebb5e;
      }

      .cls-6 {
        fill: #7c953c;
      }

      .cls-7 {
        fill: #ebd6c0;
      }

      .cls-8 {
        fill: #dcb795;
      }

      .cls-9 {
        fill: #bdce90;
      }

      .cls-10 {
        fill: #ada7bd;
      }

      .cls-11 {
        fill: #cacac9;
      }

      .cls-12 {
        fill: #655a7a;
      }

      .cls-13 {
        fill: #9084a4;
      }

      .cls-15 {
        fill: #333;
      }

      .cls-16 {
        fill: #595a5a;
      }

      .cls-17 {
        fill: #f79720;
      }

      .cls-18 {
        fill: #c77a29;
      }

      .cls-19 {
        fill: #fbb146;
      }

      .cls-20 {
        fill: #98573a;
      }

      .cls-21 {
        fill: #6f3f2b;
      }

      .cls-22 {
        fill: #bc7353;
      }

      .cls-23 {
        fill: #2fb7b5;
      }

      .cls-24 {
        fill: #298f8d;
      }

      .cls-25 {
        fill: #65c6cd;
      }

      .cls-26 {
        fill: #f7ab1b;
      }

      .cls-27 {
        fill: #be7629;
      }

      .cls-28, .cls-33 {
        fill: #f9bd37;
      }

      .cls-29 {
        fill: #b12e26;
      }

      .cls-30 {
        fill: #ee562d;
      }

      .cls-31 {
        fill: #f7a18a;
      }

      .cls-32 {
        fill: #f17547;
      }

      .cls-34 {
        fill: #efa91f;
      }

      .cls-35 {
        fill: #9d732a;
      }

      .cls-36 {
        clip-path: url(#clip-path);
      }

      .cls-37 {
        fill: #fff;
      }

      .cls-38 {
        clip-path: url(#clip-path-2);
      }

      .cls-39 {
        clip-path: url(#clip-path-3);
      }

      .cls-40 {
        clip-path: url(#clip-path-4);
      }

      .cls-41 {
        fill: #f8e2b9;
      }

      .cls-42 {
        fill: #c3b6a2;
      }

      .cls-43 {
        fill: #88d1d1;
      }

      .cls-44 {
        fill: #a19687;
      }

      .cls-45 {
        fill: #cca96a;
      }

      .cls-46 {
        fill: #8c663d;
      }

      .cls-47 {
        fill: #a56f41;
      }

      .cls-48 {
        fill: #020202;
        stroke: #201d1e;
        opacity: 0.2;
      }

      .cls-48, .cls-54, .cls-58, .cls-59, .cls-68, .cls-69, .cls-73, .cls-79 {
        stroke-miterlimit: 10;
      }

      .cls-49 {
        fill: #89513a;
      }

      .cls-50 {
        fill: #bf79b2;
        stroke: #6f287a;
      }

      .cls-50, .cls-51, .cls-52, .cls-53, .cls-55 {
        stroke-linejoin: round;
      }

      .cls-50, .cls-51, .cls-52, .cls-53 {
        stroke-width: 0.75px;
      }

      .cls-51, .cls-55 {
        fill: #df71e2;
        stroke: #710e7c;
      }

      .cls-52 {
        fill: #686c71;
        stroke: #211f1c;
      }

      .cls-53 {
        fill: #301616;
        stroke: #1c0e0a;
      }

      .cls-54 {
        fill: #d8b2a8;
      }

      .cls-54, .cls-59, .cls-73 {
        stroke: #323232;
      }

      .cls-54, .cls-55, .cls-59, .cls-79 {
        stroke-width: 0.5px;
      }

      .cls-56 {
        fill: #02b3c0;
      }

      .cls-57 {
        fill: #0a7777;
      }

      .cls-58, .cls-68 {
        stroke: #5e4f20;
      }

      .cls-59, .cls-70 {
        fill: #f6cfc4;
      }

      .cls-60, .cls-62 {
        fill: #da9b8d;
      }

      .cls-60 {
        opacity: 0.63;
      }

      .cls-61 {
        fill: #0a2c2d;
        opacity: 0.22;
      }

      .cls-63 {
        fill: #f5948c;
      }

      .cls-64 {
        fill: #941e27;
      }

      .cls-65 {
        fill: #d26653;
      }

      .cls-66 {
        fill: url(#linear-gradient);
      }

      .cls-67 {
        fill: #342517;
      }

      .cls-68, .cls-69 {
        fill: #f8fcff;
      }

      .cls-68, .cls-69, .cls-73 {
        stroke-width: 0.25px;
      }

      .cls-69 {
        stroke: #49442e;
      }

      .cls-71 {
        fill: #49442e;
      }

      .cls-72 {
        fill: #311511;
      }

      .cls-73 {
        fill: #db9d8e;
      }

      .cls-74 {
        fill: #c17944;
      }

      .cls-75 {
        opacity: 0.12;
      }

      .cls-76 {
        fill: #d38048;
      }

      .cls-77 {
        fill: #e79a49;
      }

      .cls-78 {
        fill: #e5b16b;
      }

      .cls-79 {
        fill: #62445b;
        stroke: #1d111b;
      }

      .cls-80 {
        fill: #dad9d8;
      }

      .cls-81 {
        fill: #9ed0f0;
      }

      .cls-82 {
        fill: #ee613f;
      }

      .cls-83 {
        fill: #344156;
      }

      .cls-84 {
        fill: #c4492f;
      }

      .cls-85 {
        fill: #5f8ab8;
      }

      .cls-86 {
        fill: #ebe3de;
      }

      .cls-87 {
        fill: #cf4b27;
      }

      .cls-88 {
        fill: #8fadce;
      }

      .cls-89 {
        fill: #42709b;
      }

      .cls-90 {
        fill: #d0c7c4;
      }

      .cls-91 {
        fill: #f2703a;
      }

      .cls-92 {
        fill: #eadedd;
      }

      .cls-93 {
        fill: #f5f6f5;
      }

      .cls-94 {
        fill: #b7aec4;
      }

      .cls-95 {
        fill: #6c6383;
      }
    </style>
    <clipPath id="clip-path">
      <rect class="cls-1" x="1259.93" y="56.3" width="539.79" height="449.82" rx="116.93"/>
    </clipPath>
    <clipPath id="clip-path-2">
      <rect class="cls-1" x="39.96" y="56.37" width="539.62" height="449.68" rx="116.93"/>
    </clipPath>
    <clipPath id="clip-path-3">
      <rect class="cls-1" x="-132.6" y="40.72" width="855.07" height="480.98"/>
    </clipPath>
    <clipPath id="clip-path-4">
      <polygon class="cls-1" points="610.95 600.97 -116.96 600.97 118.33 -120.7 603.87 -89.86 610.95 600.97"/>
    </clipPath>
    <linearGradient id="linear-gradient" x1="806.95" y1="1000.18" x2="807.33" y2="1008.91" gradientTransform="matrix(1.42, -0.12, 0.14, 1.64, -976.89, -1328.04)" gradientUnits="userSpaceOnUse">
      <stop offset="0" stop-color="#e6d8d5"/>
      <stop offset="0.38" stop-color="#eee4e2"/>
      <stop offset="1" stop-color="#fff"/>
    </linearGradient>
    <symbol id="Symbol_15" data-name="Symbol 15" viewBox="0 0 23.12 18.3">
      <g id="Layer_3-3" data-name="Layer 3">
        <rect class="cls-2" x="16.05" y="0.02" width="1.72" height="11"/>
      </g>
      <rect class="cls-2" x="21.4" width="1.72" height="18.3"/>
      <rect class="cls-2" x="10.7" y="0.02" width="1.72" height="11"/>
      <rect class="cls-2" x="5.35" y="0.02" width="1.72" height="11"/>
      <rect class="cls-2" y="0.02" width="1.72" height="11"/>
    </symbol>
    <symbol id="Symbol_20" data-name="Symbol 20" viewBox="0 0 452.15 56.37">
      <g id="Layer_3-2" data-name="Layer 3">
        <rect class="cls-33" y="0.02" width="452.15" height="21"/>
        <rect class="cls-34" y="21.02" width="452.15" height="35.35"/>
      </g>
      <use width="23.12" height="18.3" transform="translate(85.09)" xlink:href="#Symbol_15"/>
      <use width="23.12" height="18.3" transform="translate(58.09)" xlink:href="#Symbol_15"/>
      <use width="23.12" height="18.3" transform="translate(85.09)" xlink:href="#Symbol_15"/>
      <use width="23.12" height="18.3" transform="translate(58.09)" xlink:href="#Symbol_15"/>
      <use width="23.12" height="18.3" transform="translate(31.09)" xlink:href="#Symbol_15"/>
      <use width="23.12" height="18.3" transform="translate(4.09)" xlink:href="#Symbol_15"/>
      <use width="23.12" height="18.3" transform="translate(193.09)" xlink:href="#Symbol_15"/>
      <use width="23.12" height="18.3" transform="translate(166.09)" xlink:href="#Symbol_15"/>
      <use width="23.12" height="18.3" transform="translate(193.09)" xlink:href="#Symbol_15"/>
      <use width="23.12" height="18.3" transform="translate(166.09)" xlink:href="#Symbol_15"/>
      <use width="23.12" height="18.3" transform="translate(139.09)" xlink:href="#Symbol_15"/>
      <use width="23.12" height="18.3" transform="translate(112.09)" xlink:href="#Symbol_15"/>
      <use width="23.12" height="18.3" transform="translate(301.09)" xlink:href="#Symbol_15"/>
      <use width="23.12" height="18.3" transform="translate(274.09)" xlink:href="#Symbol_15"/>
      <use width="23.12" height="18.3" transform="translate(301.09)" xlink:href="#Symbol_15"/>
      <use width="23.12" height="18.3" transform="translate(274.09)" xlink:href="#Symbol_15"/>
      <use width="23.12" height="18.3" transform="translate(247.09)" xlink:href="#Symbol_15"/>
      <use width="23.12" height="18.3" transform="translate(220.09)" xlink:href="#Symbol_15"/>
      <use width="23.12" height="18.3" transform="translate(409.04)" xlink:href="#Symbol_15"/>
      <use width="23.12" height="18.3" transform="translate(382.04)" xlink:href="#Symbol_15"/>
      <use width="23.12" height="18.3" transform="translate(409.04)" xlink:href="#Symbol_15"/>
      <use width="23.12" height="18.3" transform="translate(382.04)" xlink:href="#Symbol_15"/>
      <use width="23.12" height="18.3" transform="translate(355.04)" xlink:href="#Symbol_15"/>
      <use width="23.12" height="18.3" transform="translate(328.04)" xlink:href="#Symbol_15"/>
    </symbol>
    <symbol id="Symbol_21" data-name="Symbol 21" viewBox="0 0 472.04 40.08">
      <use width="452.15" height="56.37" transform="matrix(1, 0, 0.35, 0.71, -0.01, 0)" xlink:href="#Symbol_20"/>
    </symbol>
    <symbol id="Symbol_22" data-name="Symbol 22" viewBox="0 0 472.14 80.4">
      <polygon class="cls-35" points="469.27 38.07 472.05 38.15 471.23 41.85 471.35 42.1 19.2 80.4 0 43.35 0 38.07 6.3 41.42 24.8 39.85 24.75 39.8 26.45 39.65 26.5 39.7 51.8 37.55 51.75 37.5 53.45 37.35 53.5 37.4 78.75 35.3 78.75 35.25 85.25 47.75 86.95 47.6 80.45 35.1 80.5 35.15 105.8 33 105.75 32.95 107.45 32.8 107.5 32.85 132.75 30.7 132.75 30.65 134.45 30.5 134.5 30.55 159.75 28.4 159.75 28.35 161.45 28.2 161.5 28.25 186.8 26.1 186.75 26.05 188.45 25.9 188.5 25.95 213.75 23.85 213.75 23.8 215.45 23.65 215.45 23.7 240.75 21.55 240.75 21.5 242.45 21.35 242.5 21.4 267.8 19.25 267.75 19.2 269.45 19.05 269.5 19.1 273.4 18.8 273.4 18.75 275.1 18.6 275.15 18.65 278.75 18.35 278.75 18.3 280.45 18.15 280.5 18.2 284.1 17.9 284.1 17.85 285.8 17.7 285.8 17.75 289.45 17.45 289.45 17.4 291.15 17.25 291.2 17.3 294.8 17 294.75 16.9 296.45 16.75 296.5 16.85 321.8 14.7 321.75 14.65 323.45 14.5 323.5 14.55 327.35 14.25 327.35 14.2 329.05 14.05 329.1 14.1 348.75 12.4 348.7 12.35 350.4 12.2 350.45 12.25 354.35 11.95 354.35 11.9 356.05 11.75 356.1 11.8 359.7 11.5 359.7 11.45 361.4 11.3 361.45 11.35 365.05 11.05 365.05 11 366.75 10.85 366.8 10.9 370.45 10.6 370.4 10.55 372.1 10.4 372.15 10.45 375.75 10.15 375.7 10.05 377.4 9.9 377.45 10 381.4 9.65 381.35 9.6 383.05 9.45 383.1 9.5 386.75 9.2 386.7 9.15 388.4 9 388.45 9.05 392.1 8.75 392.05 8.7 393.75 8.55 393.8 8.6 397.45 8.3 397.4 8.25 399.1 8.1 399.15 8.15 402.75 7.85 402.7 7.75 404.4 7.6 404.45 7.7 429.75 5.55 429.7 5.5 431.4 5.35 431.45 5.4 451.45 3.7 469.27 38.07"/>
      <g id="Layer_3" data-name="Layer 3">
        <use width="472.04" height="40.08" transform="matrix(1, -0.08, 0, 1, 0.1, 38.29)" xlink:href="#Symbol_21"/>
      </g>
    </symbol>
    <symbol id="Symbol_2" data-name="Symbol 2" viewBox="0 0 123.3 225.3">
      <g id="Layer_3-27" data-name="Layer 3">
        <g>
          <path class="cls-3" d="M101.7,87.85v.05a7.83,7.83,0,0,1-.2,1.75Q100,95.85,87.8,100.4q-13.9,5.14-33.6,5.15T20.55,100.4Q8.36,95.86,6.85,89.65a7.83,7.83,0,0,1-.2-1.75v-.05q0-7.21,13.9-12.4T54.2,70.3q19.69,0,33.6,5.15T101.7,87.85Z"/>
          <path class="cls-4" d="M6.65,87.85H1.05Q1.1,79,16.65,72.7t37.7-6.3q22.09,0,37.7,6.3t15.6,15.15h-6q0-7.21-13.9-12.4T54.2,70.3q-19.7,0-33.65,5.15T6.65,87.85Z"/>
        </g>
      </g>
      <g>
        <path class="cls-5" d="M65.07,12l-.52-1.3L62.9,15.35l-2-4.8,2.65-8.7Zm1.53,9.1L60.7,121.8l-4.9-.25L61.65,21l2.05,5.9,2.85-5.62Z"/>
        <path class="cls-6" d="M68.45,11.8,66.25,15,65.07,12,63.5,1.85,64.05,0Zm-7.75,110L66.6,21.1l2.05,5.45L72,21.45l-5.9,100.7Z"/>
        <path class="cls-7" d="M57.6,21.15l3.25-10.6,2,4.8,1.65-4.65.52,1.3,1.48,9.23L63.7,26.85,61.65,21l-.55-1.8L59.9,25Zm52,15.55,6.8-8.8.15,5.25,3.2-3.7,0,2.82-2,7.65-4.72,4.33.3-6.35,0-1.85-3.2,5.05ZM5,51.6l4.05,7.88,0,0v.07l-.95,6.33-3.75-5L3.25,59.3l.75,6-3.4-3L.3,51.2l3.45,3.9.1-4.9Z"/>
        <path class="cls-8" d="M68.45,11.8,72,21.45l-3.35,5.1L66.6,21.1l0,.13L65.07,12,66.25,15ZM123,31.85l-.2,10.2-4.9,3.65V39.9l0,0,2-7.65,0,1.73ZM7.85,50l6.4,8.1L12.8,64,9.1,59.45l0,0L5,51.6,6.8,53.7Z"/>
        <polygon class="cls-9" points="61.65 20.95 55.8 121.55 51.75 121.3 57.6 21.15 59.9 25 61.1 19.15 61.65 20.95"/>
        <polygon class="cls-10" points="113.4 37.9 71.2 129.9 67.6 128.25 109.6 36.7 110.25 41.1 113.45 36.05 113.4 37.9"/>
        <path class="cls-11" d="M117.85,40h0l0-.05ZM9.1,59.45l0,.07h0Z"/>
        <path class="cls-12" d="M119.77,32.27,123,19.55l.28-.35L123,31.85,119.8,34ZM75.65,132l42.17-92h0V45.7l4.9-3.65L80.5,134.15Z"/>
        <path class="cls-13" d="M117.82,40,75.65,132l-4.45-2,42.2-92-.3,6.35,4.72-4.33,0,0ZM116.4,27.9,123,19.55l-3.25,12.72,0-2.82-3.2,3.7Z"/>
        <path class="cls-14" d="M5,51.6l-5-9.72,0-1.83L7.85,50l-1,3.7ZM35.35,157.45,9.13,59.52l0-.07L12.8,64l1.45-5.9,26.3,98Z"/>
        <path class="cls-15" d="M.3,51.2.05,41.88,5,51.6,3.85,50.2l-.1,4.9Zm8.83,8.32,26.22,97.93-4.7,1.3L4.4,60.85l3.75,5,.95-6.33Z"/>
        <polygon class="cls-16" points="4.4 60.85 30.65 158.75 26.75 159.75 0.6 62.3 4 65.3 3.25 59.3 4.4 60.85"/>
      </g>
      <g>
        <path class="cls-17" d="M24,30.45,25.13,22l3.14,9.12-.62-1.05-.9,4.8ZM37,141.1,26.5,40.6l2.9,5.6,2-6.18v0L41.8,140.55Z"/>
        <path class="cls-7" d="M22.55,41.5l1.45-11,2.75,4.4.9-4.8.62,1.05L31.35,40l-2,6.18-2.9-5.6L25.6,39l-.2,6Zm55.9,20.9,5.25-9.8,1.1,5.1,2.5-4.15.33,1.83L87.2,64.2l-4,5-.8-6.3-.2-1.8L79.9,66.6Z"/>
        <path class="cls-18" d="M31.6,30.5,30,34,28.27,31.1,25.13,22l.32-2.48Zm5,8.9L47.1,140l-5.3.55L31.35,40.05v0l2.9,5Z"/>
        <path class="cls-8" d="M31.6,30.5l5,8.9-2.4,5.65-2.9-5v0L28.27,31.1,30,34Zm60.9,35-4.3,4.4-.93-5.52,0-.18,0,0,.43-8.82L88.1,58,91,55.35Z"/>
        <polygon class="cls-19" points="26.5 40.6 36.95 141.1 32.95 141.5 22.55 41.5 25.4 44.95 25.6 38.95 26.5 40.6"/>
        <path class="cls-20" d="M83.7,52.6l4.45-8.15-.52,10.93-.33-1.83L84.8,57.7Zm3.5,11.75L61.35,161.7l-4.8-1.3,25.9-97.5.8,6.3,4-5Z"/>
        <path class="cls-21" d="M88.15,44.45,89,42.9l2,12.45L88.1,58l-.47-2.62ZM61.35,161.7,87.2,64.35l.07,0,.93,5.52,4.3-4.4-25.95,97.6Z"/>
        <polygon class="cls-11" points="87.2 64.35 87.2 64.2 87.25 64.15 87.28 64.33 87.2 64.35"/>
        <polygon class="cls-22" points="82.45 62.9 56.55 160.4 52.65 159.4 78.45 62.4 79.9 66.6 82.25 61.1 82.45 62.9"/>
      </g>
      <g>
        <path class="cls-23" d="M62.85,53.2l1.85-9.3,2.75,11-1-1.82-1.2,4.7Zm5.55,111L64.6,63.45l2.65,5.75,2.3-5.93L73.35,164Z"/>
        <path class="cls-24" d="M64.7,43.9l.3-1.55,5.5,11.4L68.6,57.1l-1.15-2.18ZM73.35,164,69.55,63.27v0l2.6,5.15L75,63l3.8,100.8Z"/>
        <path class="cls-7" d="M60.65,64.1l2.2-10.9,2.45,4.6,1.2-4.7,1,1.82,2.1,8.33v0l-2.3,5.93L64.6,63.45l-.75-1.65-.6,5.9ZM46.2,63.25,43.45,68.7,41.4,62.8,40.85,61l-1.2,5.85L37.35,63,40.6,52.4l2,4.8,1.65-4.65.47,1.2Z"/>
        <polygon class="cls-25" points="64.6 63.45 68.4 164.15 64.4 164.3 60.65 64.1 63.25 67.7 63.85 61.8 64.6 63.45"/>
        <path class="cls-8" d="M75,63l-2.8,5.4-2.6-5.15-2.1-8.33L68.6,57.1l1.9-3.35Zm-23.2.3L48.4,68.4l-2-5.45-.15.3-1.43-9.5,1.23,3,2.2-3.15Z"/>
        <path class="cls-26" d="M46.35,63l-5.9,100.7-4.9-.25L41.4,62.8l2.05,5.9,2.75-5.45ZM40.6,52.4l2.67-8.8,1.5,10.15-.47-1.2L42.65,57.2Z"/>
        <path class="cls-27" d="M43.27,43.6l.53-1.75,4.4,11.8L46,56.8l-1.23-3ZM40.45,163.65,46.35,63l2,5.45,3.35-5.1L45.85,164Z"/>
        <polygon class="cls-28" points="41.4 62.8 35.55 163.4 31.5 163.15 37.35 63 39.65 66.85 40.85 61 41.4 62.8"/>
      </g>
      <g>
        <path class="cls-4" d="M24.3,214.05Q37.08,218,54.2,218A109.89,109.89,0,0,0,79,215.4a70.84,70.84,0,0,0,8.8-2.6q12.2-4.55,13.7-10.75a7.83,7.83,0,0,0,.2-1.75,7.63,7.63,0,0,0-.15-1.5v-8.6q6.11,4.55,6.1,10.1v.6a10.3,10.3,0,0,1-.15,1.15q-1.4,7.8-15.45,13.45a77.75,77.75,0,0,1-13,3.92,117.63,117.63,0,0,1-24.65,2.38,110.77,110.77,0,0,1-30-3.7,73.81,73.81,0,0,1-7.65-2.6c-1.28-.51-2.48-1-3.6-1.58Q2.41,208.79,1.2,202.05a4.85,4.85,0,0,1-.1-1,5.78,5.78,0,0,1-.05-.75q0-5.36,5.65-9.75v8.9a7.62,7.62,0,0,0,0,.85,7.83,7.83,0,0,0,.2,1.75q.95,3.93,6.2,7.2a41.89,41.89,0,0,0,7.5,3.55C21.77,213.25,23,213.67,24.3,214.05ZM107.65,88.5a10.3,10.3,0,0,1-.15,1.15q-1.4,7.8-15.45,13.45A77.75,77.75,0,0,1,79,107a117.63,117.63,0,0,1-24.65,2.38,110.77,110.77,0,0,1-30-3.7,73.81,73.81,0,0,1-7.65-2.6c-1.28-.51-2.48-1-3.6-1.58Q2.41,96.39,1.2,89.65a4.85,4.85,0,0,1-.1-1,5.78,5.78,0,0,1-.05-.75v-.05h5.6v.05a7.83,7.83,0,0,0,.2,1.75q1.5,6.19,13.7,10.75c1.22.45,2.47.87,3.75,1.25q12.78,3.9,29.9,3.9A109.89,109.89,0,0,0,79,103a70.84,70.84,0,0,0,8.8-2.6q12.2-4.55,13.7-10.75a7.83,7.83,0,0,0,.2-1.75v-.05h6v.65Z"/>
        <path class="cls-29" d="M79,110.52a117.63,117.63,0,0,1-24.65,2.38,110.77,110.77,0,0,1-30-3.7,73.81,73.81,0,0,1-7.65-2.6c-1.28-.52-2.48-1-3.6-1.58A35.61,35.61,0,0,1,6.7,101.2Q1,96.75,1.05,91.4V91l.05-2.35a4.85,4.85,0,0,0,.1,1q1.22,6.73,11.85,11.87c1.12.54,2.32,1.07,3.6,1.58a73.81,73.81,0,0,0,7.65,2.6,110.77,110.77,0,0,0,30.05,3.7A117.63,117.63,0,0,0,79,107a77.75,77.75,0,0,0,13-3.92q14.06-5.66,15.45-13.45a10.3,10.3,0,0,0,.15-1.15v3.1q-.11,5.45-6.1,10a43.08,43.08,0,0,1-9.5,5A77.75,77.75,0,0,1,79,110.52ZM1.2,202.05q1.22,6.73,11.85,11.87c1.12.54,2.32,1.07,3.6,1.58a73.81,73.81,0,0,0,7.65,2.6,110.77,110.77,0,0,0,30.05,3.7A117.63,117.63,0,0,0,79,219.42a77.75,77.75,0,0,0,13-3.92q14.06-5.66,15.45-13.45a10.3,10.3,0,0,0,.15-1.15V204q-.2,8.75-15.6,15a77.75,77.75,0,0,1-13,3.92,117.63,117.63,0,0,1-24.65,2.38,110.77,110.77,0,0,1-30-3.7,73.81,73.81,0,0,1-7.65-2.6c-1.28-.52-2.48-1.05-3.6-1.6q-12-5.79-12-13.6v-.4l0-1.35Z"/>
        <path class="cls-30" d="M101.55,190.2v8.6a7.63,7.63,0,0,1,.15,1.5,7.83,7.83,0,0,1-.2,1.75q-1.5,6.19-13.7,10.75a70.84,70.84,0,0,1-8.8,2.6V110.52a77.75,77.75,0,0,0,13-3.92,43.08,43.08,0,0,0,9.5-5Z"/>
        <path class="cls-31" d="M24.3,109.2V214.05c-1.28-.38-2.53-.8-3.75-1.25a41.89,41.89,0,0,1-7.5-3.55V105c1.12.54,2.32,1.06,3.6,1.58A73.81,73.81,0,0,0,24.3,109.2Z"/>
        <path class="cls-32" d="M13.05,209.25q-5.25-3.27-6.2-7.2a7.83,7.83,0,0,1-.2-1.75,7.62,7.62,0,0,1,0-.85V101.2A35.61,35.61,0,0,0,13.05,105Zm66,6.15A109.89,109.89,0,0,1,54.2,218q-17.12,0-29.9-3.9V109.2a110.77,110.77,0,0,0,30.05,3.7A117.63,117.63,0,0,0,79,110.52Z"/>
        <path class="cls-11" d="M1.1,201.05a4.85,4.85,0,0,0,.1,1H1.07Z"/>
      </g>
    </symbol>
  </defs>
  <g>
    <rect class="cls-37" x="30.74" y="47.27" width="558.41" height="467.89" rx="124.49"/>
    <g class="cls-38">
      <g class="cls-39">
        <g class="cls-40">
          <g>
            <path class="cls-41" d="M-193.67,398.43c-1.13,22.52-2.3,45.2,1.18,67.65A24.42,24.42,0,0,1-191,473.2H779.72c-.39-7.1-.67-14.22-.9-21.34-.4-12.59-.75-25.19-1.54-37.78L668.33,362.36H-106.72l-86.47,25.25Q-193.4,393-193.67,398.43Z"/>
            <path class="cls-42" d="M842.68,652.74c-.52-44.25-1-88.5-2.11-132.71-1-38.15-2.3-76.24-3.08-114.4l-35.4-45.3L-259,360.24l-27.7,129.15,14.81,227.52H843.66Q843,684.86,842.68,652.74Z"/>
            <polygon class="cls-43" points="-174.84 -12.58 -175.35 373.31 698.96 372.06 700.97 -12.35 -174.84 -12.58"/>
            <path class="cls-44" d="M-230.91,434.67h989l-1.71-1.09-987.25-.3C-230.88,433.74-230.9,434.21-230.91,434.67Z"/>
            <path class="cls-44" d="M-230.18,481.15h989l-1.7-1.09-987.25-.3C-230.15,480.22-230.16,480.69-230.18,481.15Z"/>
            <path class="cls-44" d="M-230.18,539.43h989l-1.7-1.08-987.25-.3C-230.15,538.51-230.16,539-230.18,539.43Z"/>
            <path class="cls-44" d="M-229.65,394H700.19l-1.74-1-928.07-.4Z"/>
            <path class="cls-44" d="M-80.86,636.18,47.81,386l-1.47-1.2-131,251.36Z"/>
            <path class="cls-44" d="M87.93,643.68l76-273.5-1.42-.49-77.38,274Z"/>
            <path class="cls-44" d="M257.78,777,263.26,358l-2,1.19-6.85,418.13Z"/>
            <path class="cls-44" d="M456.39,776.07l-80.56-416.4-1.59,2.59,78.49,413.82Z"/>
            <path class="cls-44" d="M675.66,768.76,478.14,370.36l-1,3.9L670.21,768.81Z"/>
            <path class="cls-44" d="M819.15,664.27,593.06,359.84l-.61,4.18,226.81,309.7Q819.2,669,819.15,664.27Z"/>
            <polygon class="cls-45" points="-179.78 373.61 696.35 372.14 696.36 357.45 -179.78 358.92 -179.78 373.61"/>
            <rect class="cls-1" x="-170.6" y="-6.99" width="853.59" height="480.14"/>
            <rect class="cls-1" x="-173.03" y="-4.41" width="853.59" height="480.14"/>
          </g>
        </g>
        <g>
          <g>
            <rect class="cls-46" x="253.16" y="268.24" width="109.14" height="92.64"/>
            <path class="cls-47" d="M254.09,362.36V265.08H247a10.56,10.56,0,0,0-10.57,10.56v86.72Z"/>
            <path class="cls-47" d="M361.26,362.36V265.08h7.08a10.56,10.56,0,0,1,10.57,10.56v86.72Z"/>
          </g>
          <polygon class="cls-48" points="209.82 480.95 179.97 521.18 444.71 525.4 408.81 484.28 209.82 480.95"/>
          <ellipse class="cls-48" cx="304.02" cy="482.53" rx="62.2" ry="13.97"/>
          <rect class="cls-49" x="252.18" y="405.62" width="17.03" height="59.61"/>
          <rect class="cls-49" x="341.17" y="405.62" width="17.03" height="59.61"/>
          <g>
            <path class="cls-50" d="M313.32,408.66c1.77,19.28,3.42,36.89,4.4,48.67h17.66c.5-12,1.51-29.69,2.6-48.65.41-7.25-5.28-13.43-12.29-13.33h-.88A12,12,0,0,0,313.32,408.66Z"/>
            <g>
              <path class="cls-51" d="M316.37,460.44c0,.53,20.44.87,20.49.23.46-5.58,1.24-17.49,1.48-20.71l-22.7.23C315.88,446.21,316.21,456.62,316.37,460.44Z"/>
              <path class="cls-52" d="M349.41,489.69c5.35,0,9.88-1.48,11-4.24a17.15,17.15,0,0,0,.08-5c-.15-1.48-2.58-4.66-3.73-5.23-1.18,3.56-6.6,10.71-16.58,7.88-9.29-2.63-24.6-11.37-25.49-12.27,0,0,0,4.46.55,4.79,7.11,4.43,20.92,11.41,21.11,11.48A36.28,36.28,0,0,0,349.41,489.69Z"/>
              <path class="cls-53" d="M315.94,456.55c.68.2,2.78,2.93,10.34,3.82.63.07,0-3.4.61-3.76,1.12-.64,12.4-1,13.08-.68s.8,1.11,1.35,4.18c.59,1.7,17.93,14.92,18.87,19.85.52,2.68-1.71,4.88-6.37,5.58a31.19,31.19,0,0,1-16.14-1.87c-2.37-.9-21.83-11.4-23-12.62s.23-11.33.32-14.12C315,456.55,315.54,456.42,315.94,456.55Z"/>
            </g>
          </g>
          <g>
            <path class="cls-54" d="M297.65,408.66c-1.77,19.28-3.42,36.89-4.41,48.67H275.59c-.5-12-1.51-29.69-2.6-48.65-.41-7.25,5.28-13.43,12.29-13.33h.88A12,12,0,0,1,297.65,408.66Z"/>
            <g>
              <path class="cls-51" d="M294,460.46c0,.52-19.81.85-19.86.22-.45-5.47-1.2-17.13-1.44-20.28l22,.23C294.49,446.53,294.18,456.72,294,460.46Z"/>
              <path class="cls-52" d="M261.56,489.69c-5.35,0-9.88-1.48-11-4.24a17.15,17.15,0,0,1-.08-5c.15-1.48,2.58-4.66,3.73-5.23,1.18,3.56,6.6,10.71,16.58,7.88,9.28-2.63,24.6-11.37,25.49-12.27,0,0,0,4.46-.55,4.79-7.11,4.43-20.92,11.41-21.11,11.48A36.28,36.28,0,0,1,261.56,489.69Z"/>
              <path class="cls-53" d="M295,456.55c-.68.2-2.78,2.93-10.34,3.82-.63.07,0-3.4-.61-3.76-1.12-.64-12.4-1-13.08-.68s-.8,1.11-1.35,4.18c-.59,1.7-17.93,14.92-18.87,19.85-.52,2.68,1.71,4.88,6.37,5.58a31.19,31.19,0,0,0,16.14-1.87c2.37-.9,21.83-11.4,23-12.62s-.23-11.33-.32-14.12C296,456.55,295.43,456.42,295,456.55Z"/>
            </g>
          </g>
          <g>
            <path class="cls-55" d="M351.82,331l2.54,39.3s-33.31,16.05-89.26-6.13L258.41,369A263,263,0,0,0,265.27,311l-6.3,6.82-4.58,5C250.6,303.35,240,304.87,240,304.87s3.87-12.52,6.62-15.12c5.92-5.6,12.52-15.41,16-18.29,5.13-4.23,32.86-10.74,32.86-10.74s35-5.22,60,14.19l17.16,27,4,6.72s-7.74,6.71-24.69,15.51Z"/>
            <g>
              <line class="cls-56" x1="263.23" y1="313.33" x2="264.31" y2="291.59"/>
              <polygon class="cls-57" points="262.23 313.28 264.31 291.59 264.23 313.38 262.23 313.28"/>
            </g>
            <g>
              <line class="cls-56" x1="354.84" y1="328.12" x2="354.57" y2="299.1"/>
              <polygon class="cls-57" points="353.84 328.13 354.57 299.1 355.84 328.11 353.84 328.13"/>
            </g>
            <line class="cls-58" x1="308.03" y1="271.28" x2="307.44" y2="332.5"/>
            <circle class="cls-58" cx="312.31" cy="292.37" r="2.07"/>
            <g>
              <path class="cls-59" d="M327.78,252.52S322.21,265.7,313.57,267c-.83.12-4.59,6.67-5.47,6.55-2.8-.38-5-7.68-5.72-8.21-7.78-5.92-11.59-8.22-11.83-13,0-.89-.05-1.4-.05-1.4-.11-1.86-3.85-10.89-1.36-14.81,2.08-3.26,12.32-.16,12.32-.16l21,0c0,1.91,4,3.12,5.32,6.71,1.22,3.36-.27,9.15,0,9.75A.82.82,0,0,1,327.78,252.52Z"/>
              <path class="cls-60" d="M326.51,253c-2.46,2-6.18,4.06-15.3,4.71a33.27,33.27,0,0,1-20.66-5.38c0-.89-.05-1.4-.05-1.4-.47-.78-4.27-8.69-1.78-12.6,8.39-3.26,27.77-1.41,27.77-1.41l11,7.74C328.75,248,326.26,252.36,326.51,253Z"/>
              <path class="cls-61" d="M307.74,274l9.63-4.62s10.64,3.85,11.24,3a42,42,0,0,0,7-16.9l-20.42,9.54Z"/>
              <path class="cls-51" d="M316.42,263.14,307.74,274l9.21-8.12,10.6,6.59a38.32,38.32,0,0,0,8.05-17l-7.21-6.61S327.49,258.64,316.42,263.14Z"/>
              <path class="cls-61" d="M307.74,274l-8.54-5.94s-11,2.06-11.74,1.36c-3.92-3.83-4.45-17.74-4.45-17.74l18.2,11.85Z"/>
              <path class="cls-51" d="M301.12,262.64,307.74,274,300,264.36l-10.18,5.12s-5.36-5.72-6.83-17.8l7.24-5.14S288.46,256.89,301.12,262.64Z"/>
            </g>
            <g>
              <path class="cls-59" d="M357.17,211.39c-2.92,7-9.49,10.08-15,7.76s-3.69-6.2-.76-13.16,3.1-6.18,8.38-9C361.34,190.74,360.09,204.44,357.17,211.39Z"/>
              <path class="cls-62" d="M351.92,199.8a2.83,2.83,0,0,1,2.54.12c1,.65,1.18,2,1.14,3.2a19.34,19.34,0,0,1-4.6,11.36,4.71,4.71,0,0,1-1.5,1.35,1.84,1.84,0,0,1-1.92-.09,2.11,2.11,0,0,1-.53-2.1c.41-1.88,2.05-3.19,3.37-4.59a3.79,3.79,0,0,0,.88-1.3,1.47,1.47,0,0,0-.26-1.47,1.89,1.89,0,0,0-1.13-.45,10,10,0,0,0-2.5.1c-.41-1.22.56-2.45,1.23-3.36A7.55,7.55,0,0,1,351.92,199.8Z"/>
            </g>
            <g>
              <path class="cls-59" d="M258.59,218.81c3.43,6.48,9.39,8.66,13.73,5.59s2.24-6.64-1.19-13.12-3.47-5.69-8.31-7.77C252.22,199,255.17,212.34,258.59,218.81Z"/>
              <path class="cls-62" d="M261.41,206.61a2.15,2.15,0,0,0-2.13.47c-.74.79-.71,2.16-.52,3.33a20.86,20.86,0,0,0,5.46,10.6,4.17,4.17,0,0,0,1.44,1.13,1.39,1.39,0,0,0,1.61-.36,2.38,2.38,0,0,0,.15-2.14c-.6-1.81-2.16-2.88-3.47-4.09a3.57,3.57,0,0,1-.92-1.15,1.68,1.68,0,0,1,0-1.5,1.55,1.55,0,0,1,.89-.6,7.64,7.64,0,0,1,2.12-.25c.18-1.27-.81-2.34-1.5-3.15A6.6,6.6,0,0,0,261.41,206.61Z"/>
            </g>
            <g>
              <path class="cls-59" d="M349.1,184.49c-1-25.12-15.54-40.78-44-39-27.63,1.76-42.78,17.1-41.78,42.21.46,11.61,4.45,31.47,4.45,32.1,0,22.59,28.4,35.52,44.74,33.7,11.61-1.29,36.65-19.56,35.06-38.77C347.5,214.12,349.56,196.09,349.1,184.49Z"/>
              <g>
                <path class="cls-63" d="M291.53,227.91s12.31.08,16.81-.38,18.31-2.16,18.31-2.16-6.81,15.47-16.15,17C301.81,243.88,291.53,227.91,291.53,227.91Z"/>
                <g>
                  <path class="cls-64" d="M309.24,227.61c-4.78.16-18.61-.52-18.61-.52s12,12.5,19.28,12.32,17.64-15.2,17.64-15.2S314,227.44,309.24,227.61Z"/>
                  <path class="cls-65" d="M316.08,233.23a24.89,24.89,0,0,0-4.13,0,4.29,4.29,0,0,0-2.23.73,12.45,12.45,0,0,0-6.45,0c-3.41.94-3,1.17-2.9,1.6,2.95,2,6.44,4,9.54,3.85,2.29-.08,5-1.57,6.95-3.3a21.26,21.26,0,0,0,2.16-1.74C319.79,233.83,319,233.48,316.08,233.23Z"/>
                </g>
                <path class="cls-62" d="M326.69,221.38s.25,4.76,2.26,5.21-.12-1.59-.62-2.39C328.05,223.76,326.69,221.38,326.69,221.38Z"/>
                <path class="cls-62" d="M291.48,224.06s.35,4.75-1.59,5.45-.28-1.55.32-2.34A27,27,0,0,0,291.48,224.06Z"/>
                <path class="cls-66" d="M294.86,227.46s1.32,6.72,14.72,5.71,13.14-7.69,13.14-7.69a62.43,62.43,0,0,1-13.62,2.39C304.76,228.16,299.69,226.71,294.86,227.46Z"/>
                <path class="cls-63" d="M290.63,227.09s9.69,3.34,18,2.39c17.61-2,18.92-5.27,18.92-5.27s-13.86,2.71-19.05,2.81C303.81,227.11,290.63,227.09,290.63,227.09Z"/>
              </g>
              <path class="cls-67" d="M295.29,187.46c-3.23-.6-14.41.26-16.65,7.24,0,0,8.63-4.08,16.37-3.58C295,191.12,296.93,187.76,295.29,187.46Z"/>
              <path class="cls-67" d="M317.24,186.14c3.08-1.14,14.25-2.17,17.63,4.32,0,0-9.19-2.56-16.73-.76C318.14,189.7,315.68,186.71,317.24,186.14Z"/>
              <path class="cls-62" d="M278,175.18s8.16,7.82,39.18,5.91l-1.15-4.23s4.62,4.31,22.88,6.52l9.29,22.56-5.48-46.38-65.82-1.66-9.33,11.17,1.35,12.8s-4.49,20.65-2.84,29.3l4.48-15.84S278.63,199,278,175.18Z"/>
            </g>
            <path class="cls-67" d="M276.78,168.51s-2.52,10.21,39.17,10.24c0,0-1.11-.44-5.38-10.28,5.52,12.11,20.76,10.74,28.83,12.86l-1.91-11.73,10.74,36.34a133.94,133.94,0,0,0,3.48-13.44s1.11-12.17-1.43-20.55a14.48,14.48,0,0,1,3.32,6.32s1.71-22.58-15.91-36.83a54.43,54.43,0,0,1,9.6,3.56s-12.79-19.35-37.36-19c-12.85.18-31.2,3.83-36.22,17,0,0-12-4.88-17.74,15.32,0,0,4.47-7,10.06-7.34,0,0-7.95,3-10,22.12-1.9,18.08,3.27,27.83,9.86,40.06,0,0,1.23-15.55,4.45-26.68l.91,6.77S276.85,193.68,276.78,168.51Z"/>
            <path class="cls-68" d="M297.77,200.9c2.83,4.09,2.5,8.61,0,10.34-3.71,2.6-12.5,3.38-15.79-.34s-1.67-10.22,3.5-13.08A9.18,9.18,0,0,1,297.77,200.9Z"/>
            <g>
              <path class="cls-69" d="M317.69,200.68c-2.74,4.15-2.31,8.67.19,10.34,3.76,2.53,12.57,3.12,15.78-.67s1.45-10.25-3.78-13A9.2,9.2,0,0,0,317.69,200.68Z"/>
              <g>
                <path class="cls-70" d="M301.22,216.39a13.3,13.3,0,0,0,5.65,2.81c3.2.61,7.46-3.79,7.46-3.79"/>
                <path class="cls-71" d="M301.22,216.39a17.31,17.31,0,0,0,3.25,1.82,7.44,7.44,0,0,0,3.5.76,8.52,8.52,0,0,0,3.35-1.35,26.72,26.72,0,0,0,3-2.21,15.71,15.71,0,0,1-2.8,2.53,8.41,8.41,0,0,1-3.5,1.52,4.67,4.67,0,0,1-1.94-.22,9.09,9.09,0,0,1-1.78-.68A12,12,0,0,1,301.22,216.39Z"/>
              </g>
              <path class="cls-72" d="M286.26,213.17c-3.85-7.27,8.26-13.29,10.41-1.39C296.67,211.78,293.17,214.43,286.26,213.17Z"/>
              <path class="cls-72" d="M319.13,211.73c-2.82-9,12.24-10.57,9.49,1.15C328.62,212.88,322.82,213.74,319.13,211.73Z"/>
              <path class="cls-37" d="M323.05,204.09a1.54,1.54,0,1,1-2-.81A1.53,1.53,0,0,1,323.05,204.09Z"/>
              <path class="cls-37" d="M295.41,205.63a1.54,1.54,0,0,1-2.85,1.17,1.54,1.54,0,1,1,2.85-1.17Z"/>
              <path class="cls-73" d="M280.67,203.93a10.16,10.16,0,0,1,2.86-4.68,9.92,9.92,0,0,1,8.05-2.49c5,.85,7.05,5.53,7.18,5.84a16.74,16.74,0,0,0-6.05-2.07,15.89,15.89,0,0,0-5.52.17A15.3,15.3,0,0,0,280.67,203.93Z"/>
              <path class="cls-73" d="M316.47,203.53a10.16,10.16,0,0,1,2.86-4.68,9.92,9.92,0,0,1,8.05-2.49c5,.85,7.05,5.53,7.18,5.84a16.74,16.74,0,0,0-6.05-2.07,16,16,0,0,0-5.53.17A15.31,15.31,0,0,0,316.47,203.53Z"/>
            </g>
          </g>
          <g>
            <path class="cls-74" d="M183.18,521.23c-3.08,0-5.57-2.8-5.57-6.26V411.41c0-3.46,2.49-6.26,5.57-6.26s5.56,2.8,5.56,6.26V515C188.74,518.43,186.26,521.23,183.18,521.23Z"/>
            <path class="cls-49" d="M212,494c-3.07,0-5.56-2.8-5.56-6.26V384.15c0-3.46,2.49-6.26,5.56-6.26s5.57,2.8,5.57,6.26V487.7C217.56,491.16,215.07,494,212,494Z"/>
            <rect class="cls-75" x="177.61" y="425.45" width="11.13" height="22.97"/>
            <g>
              <path class="cls-74" d="M436.25,521.23c3.07,0,5.56-2.8,5.56-6.26V411.41c0-3.46-2.49-6.26-5.56-6.26s-5.57,2.8-5.57,6.26V515C430.68,518.43,433.17,521.23,436.25,521.23Z"/>
              <path class="cls-49" d="M407.43,494c3.08,0,5.57-2.8,5.57-6.26V384.15c0-3.46-2.49-6.26-5.57-6.26s-5.56,2.8-5.56,6.26V487.7C401.87,491.16,404.36,494,407.43,494Z"/>
              <rect class="cls-75" x="430.68" y="425.45" width="11.13" height="20.87"/>
              <path class="cls-76" d="M169.87,393.82H452.21a0,0,0,0,1,0,0v48.66a.55.55,0,0,1-.55.55H170.42a.55.55,0,0,1-.55-.55V393.82A0,0,0,0,1,169.87,393.82Z"/>
              <polygon class="cls-75" points="169.87 404.98 452.21 402.22 452.21 393.82 169.87 393.82 169.87 404.98"/>
              <path class="cls-77" d="M466.64,389.84H155.44v8.59a1.89,1.89,0,0,0,1.89,1.89H464.76a1.89,1.89,0,0,0,1.88-1.89Z"/>
              <path class="cls-78" d="M463.71,392.62H158.37a2.93,2.93,0,0,1-2.62-4.25l21.86-30.78a2.94,2.94,0,0,1,2.63-1.63H443.82a2.94,2.94,0,0,1,2.62,1.62l19.89,30.79A2.93,2.93,0,0,1,463.71,392.62Z"/>
            </g>
          </g>
          <g>
            <path class="cls-79" d="M302.18,265.24s8.23-5.76,11.2,1.65-4.79,11.94-4.79,11.94S291.51,275.33,302.18,265.24Z"/>
            <path class="cls-79" d="M302.27,276.4,294.67,311l14.22,13.49,10.2-15.3-7-33.58S308.4,281.28,302.27,276.4Z"/>
            <path class="cls-37" d="M298,294.13s16.16-13.47,16.46-12l1,4.86-19,14Z"/>
          </g>
          <g>
            <g>
              <path class="cls-37" d="M257.92,355.22c-5.86-10.33-2.78-19.69-9.23-29.6-1.65-2.53-3.95-23.32-5.84-35.11,14.3-3.71,45.42-2,61.8,26.42,0,.27-8.08,36.95-8.79,40.8a46.48,46.48,0,0,0-17.52-5.24A44.83,44.83,0,0,0,257.92,355.22Z"/>
              <path class="cls-80" d="M295.92,357.91l-.09-.05a45.88,45.88,0,0,0-17.5-5.23,45,45,0,0,0-20.39,2.72c-2.83-5-3.68-9.86-4.41-14.52-.81-5.14-1.58-10-4.91-15.11-1.16-1.78-2.61-12.3-4-22.47-.65-4.66-1.86-12.84-1.86-12.84l.09,0c6.85-1.78,18.37-2.41,30.16,1.16a54.16,54.16,0,0,1,31.72,25.3c0,.12-.49,2.63-3.26,15.35C299.18,342.62,295.92,357.91,295.92,357.91Zm-22.17-5.76c1.53,0,3.06.06,4.59.2a46.25,46.25,0,0,1,17.46,5.21c.48-2.55,8.62-39.86,8.75-40.59C289,290,259.24,286.44,243,290.63c.58,3.62,1.18,8,1.82,12.57,1.4,10.13,2.85,20.6,4,22.33,3.37,5.16,4.17,10.29,4.95,15.24.72,4.61,1.47,9.37,4.25,14.29A44.6,44.6,0,0,1,273.75,352.15Z"/>
            </g>
            <g>
              <path class="cls-37" d="M249.05,334.67c-.29-.66-8.14-30.87-9.3-36.53,13.92-7.86,46.18-6.66,64.9,18.79,0,.27-8.08,36.95-8.79,40.8C290.65,355,256.25,339.28,249.05,334.67Z"/>
              <path class="cls-80" d="M295.92,357.91l-.09-.05c-1.77-.95-6.85-3.35-13.27-6.39-12.15-5.75-28.8-13.63-33.54-16.67-.26-.59-8.12-30.6-9.36-36.62l0-.12.07,0c7.55-4.27,19.31-5.46,30.7-3.11a56,56,0,0,1,34.3,21.93c0,.12-.49,2.63-3.26,15.35C299.18,342.62,295.92,357.91,295.92,357.91Zm-46.81-23.34c4.78,3,21.38,10.9,33.5,16.64,6.32,3,11.34,5.37,13.19,6.35.49-2.55,8.61-39.81,8.75-40.59a55.78,55.78,0,0,0-34.16-21.79c-11.32-2.33-23-1.16-30.53,3.05C241.15,304.43,248.69,333.3,249.11,334.57Z"/>
            </g>
            <path class="cls-81" d="M238.33,307.94c.52-.61.65-.74,1.27-1.38,23.37-6.56,43.72-.49,56.81,10.35.5,4.17,2.66,47.56,1.81,53C279.55,363.75,255,303.94,238.33,307.94Z"/>
            <path class="cls-82" d="M252.42,366.4c-3.73-16.64-10.21-40.45-14.09-58.46a60.75,60.75,0,0,1,57.86,10.18c.5,4.05,3.52,46.57,2.66,51.81C280.18,364,269.11,362.51,252.42,366.4Z"/>
            <g>
              <path class="cls-37" d="M357.37,355c1.69-7.51,1.24-59.91,2.79-71.72-12.91-3.33-49.54,5.52-55.51,33.93,0,.27,10.57,36.56,11.39,40.4C321.17,354.81,351.16,352.71,357.37,355Z"/>
              <path class="cls-80" d="M316,357.82l0-.14c-.54-2.47-5.22-18.78-8.31-29.57-2.66-9.25-3.09-10.77-3.09-10.88A37,37,0,0,1,314,299.37a50.73,50.73,0,0,1,15.79-11.13c11.74-5.44,24.17-6.67,30.4-5.06l.1,0,0,.14c-.75,5.67-1,20.93-1.31,35.69-.31,16.52-.6,32.13-1.48,36.05l0,.12-.08,0c-5.91-2.21-36-.31-41.28,2.6Zm-11.23-40.56c.06.31,10.69,37.33,11.35,40.21,2.81-1.48,12.13-2.67,20.19-3.2,7.55-.5,17.55-.64,21,.6.85-4.08,1.16-20.23,1.45-35.85.28-14.65.56-29.8,1.29-35.59-6.23-1.57-18.57-.33-30.22,5.07C316.23,294.81,307.33,305,304.75,317.26Z"/>
            </g>
            <g>
              <path class="cls-37" d="M357.37,355c1.69-7.51,6.77-53.58,8.32-65.38-14.41-3.59-47.63-.43-61,27.59,0,.27,10.57,36.56,11.39,40.4C321.17,354.81,351.16,352.71,357.37,355Z"/>
              <path class="cls-80" d="M316,357.82l0-.14c-.54-2.47-5.22-18.78-8.31-29.57-2.66-9.25-3.09-10.77-3.09-10.88,7.43-15.52,20.54-22.62,30.22-25.77,12.37-4,24.39-3.57,30.92-1.95l.1,0s-1.31,10.63-2.25,18.59c-2.07,17.61-4.92,41.74-6.09,47l0,.12-.08,0c-5.91-2.21-36-.31-41.28,2.6Zm-11.23-40.56c.1.44,10.69,37.33,11.35,40.21,2.81-1.48,12.13-2.67,20.19-3.2,7.55-.5,17.55-.63,21,.6,1.18-5.43,4-29.32,6.07-46.8.92-7.86,1.73-14.65,2.2-18.31C352.15,286.46,318.39,288.83,304.75,317.26Z"/>
            </g>
            <g>
              <path class="cls-37" d="M366.65,333c.27-.67,2.18-30.2,2.7-35.62-13.31-6.46-47.32-4.1-65,20.27,0,.27,10.83,36.2,11.65,40C321.17,354.81,359.58,337.62,366.65,333Z"/>
              <path class="cls-80" d="M316,357.82l0-.14c-.54-2.51-5.43-19-8.66-29.84-2.61-8.8-3-10.14-3-10.25,7.78-10.76,19.94-18.56,34.18-21.82,11.54-2.64,23.66-2.08,30.89,1.43,0,0-.64,9.35-1.15,16.59-.83,11.71-1.35,18.85-1.49,19.23-4.52,3-22.25,11.31-35.15,17.35-7.33,3.42-13.66,6.38-15.51,7.4Zm-11.49-40.17c.13.49,10.93,36.88,11.61,39.82,1.94-1.06,7.9-3.85,15.42-7.36,12.87-6,30.49-14.27,35.06-17.27.16-.78.85-10.5,1.46-19.08.5-7.13,1-13.87,1.21-16.34C362,294,350,293.41,338.51,296,324.33,299.28,312.25,307,304.49,317.65Z"/>
            </g>
            <path class="cls-83" d="M314.54,318.07c0,.82-3.84,2.49-9,2.52s-9.43-1.65-9.31-2.47c.09-.57,4.13-2,9.32-2S314.53,317.6,314.54,318.07Z"/>
            <path class="cls-81" d="M296.39,323.47c0-2.59-.2-5-.22-6.76,6.9,1.9,12.11,2,18.37.12.1,1.14-.42,6.09-.29,7.45C309.77,326.49,300.13,327.23,296.39,323.47Z"/>
            <path class="cls-84" d="M298.85,369.93c-.55-14.13-2-34.63-2.66-51.81,6.83,1.43,12.09,1.8,18.35-.05.48,3.68,2.28,46.55,2.86,51.93C312.93,372.14,302.6,373.58,298.85,369.93Z"/>
            <path class="cls-81" d="M372.39,305.42c0-.21-.21-.76-.39-1.29-18.88-4.47-44.68,1.75-57.46,12.7-.32,3.86.88,7.91,1.37,13.44C338.16,325.06,366.09,305.19,372.39,305.42Z"/>
            <path class="cls-82" d="M363.05,368.56c2.8-18.45,6.68-45,9.34-63.14-18.87-4.34-45.07,2-57.85,12.65.17,3.7-1,47.73-.51,53.1C336.28,366.11,356.83,366.24,363.05,368.56Z"/>
          </g>
          <g>
            <path class="cls-59" d="M246.32,333.31s4.76,3.41,2.21,6.82c-2,2.71-11.52-3.63-14.16-7.72-1.42-2.18-3.61-6.92-1.55-10.4,0,0-1.67-5.54,1.55-7.6,0,0-2.19-7.85,5.4-9.65h1.31Z"/>
            <path class="cls-59" d="M234.37,327.4s2.7,6,12.21,6.56,6.84-5.86,6.84-5.86L239,322"/>
            <path class="cls-59" d="M240.54,315.82s19.29,3.6,17.23,9.91c-1.52,4.65-16.33,2-21.22-2.32"/>
            <path class="cls-59" d="M238.09,316.14a24.91,24.91,0,0,0,11.58,4.63c6.75.78,8.49-2.5,6-5s-15.82-6.56-15.82-6.56"/>
          </g>
          <g>
            <path class="cls-59" d="M367.7,329.9a64.38,64.38,0,0,1-3,6c-1.28,2,.76,4.56,4.19,2.48s6.57-7.28,4.6-10.71S367.7,329.9,367.7,329.9Z"/>
            <path class="cls-59" d="M375.87,321.46s2.28,3.15-2.42,7.38-19.63,2.27-12-4.59S375.87,321.46,375.87,321.46Z"/>
            <path class="cls-59" d="M376.84,313.87s2.12,4.95-1.67,8.31-12.2,4-16.24,1.48-.51-6.55,2.56-6.71S376.84,313.87,376.84,313.87Z"/>
            <path class="cls-59" d="M371.61,310.46s-9.46-1.12-11.11,3.51,11.36,6.36,15.76.77-3.87-9.32-3.87-9.32Z"/>
          </g>
          <g>
            <path class="cls-85" d="M209.58,383.67l6.35,2-1.15,2.67-6.37-2Zm1.47-3.44,6.31,2.13-1,2.35L210,382.77Z"/>
            <polygon class="cls-86" points="216.35 384.71 215.93 385.68 209.58 383.67 209.96 382.77 216.35 384.71"/>
            <path class="cls-87" d="M239,374.74l-15.89,7,.81-2.16.11,0,15.51-6.6Zm-16.28,8.07L238.56,376l-.62,2.06-16.18,7.16Z"/>
            <polygon class="cls-88" points="211.05 380.24 217.07 377.75 223.98 379.54 223.87 379.59 217.36 382.36 211.05 380.24"/>
            <path class="cls-89" d="M221.76,385.26l-7,3.09,1.15-2.67,6.74-2.87Zm-4.4-2.9,6.51-2.77-.81,2.16-6.71,3Z"/>
            <polygon class="cls-90" points="238.96 374.74 238.56 376.04 222.67 382.81 215.93 385.68 216.35 384.71 223.06 381.75 238.96 374.74"/>
            <polygon class="cls-91" points="217.07 377.75 233.67 370.89 239.49 372.94 223.98 379.54 217.07 377.75"/>
          </g>
          <use width="472.14" height="80.4" transform="translate(307.97 378.47) scale(0.11)" xlink:href="#Symbol_22"/>
          <g>
            <path class="cls-13" d="M430.74,366.28l-17.69,10.2-37.9-11.54,19.18-9ZM413.05,384l-37.9-11.8,1.73-.82c-.07.19-.16.38-.25.57l36.42,11.25,16.58-9.07a6.94,6.94,0,0,0,.22-6.31l.59-.35q2.13,3.39-.45,7.28Z"/>
            <path class="cls-92" d="M413.05,377.77l16.8-9.95a6.94,6.94,0,0,1-.22,6.31l-16.58,9.07A6.65,6.65,0,0,0,413.05,377.77Z"/>
            <path class="cls-93" d="M376.63,366.61l36.42,11.16a6.65,6.65,0,0,1,0,5.43L376.63,372c.09-.19.18-.38.25-.57A5.66,5.66,0,0,0,376.63,366.61Z"/>
            <path class="cls-94" d="M375.15,364.94l37.9,11.54v1.29l-36.42-11.16-1.48-.45Zm0,7.26,37.9,11.8v1.17l-37.9-11.95Z"/>
            <path class="cls-95" d="M413.05,376.48l17.69-10.2q3.21,3.06,0,9l-17.69,9.89V384L430,374.75q2.58-3.88.45-7.28l-.59.35-16.8,9.95Z"/>
          </g>
          <use width="123.3" height="225.3" transform="translate(186.06 305.25) scale(0.3)" xlink:href="#Symbol_2"/>
        </g>
      </g>
    </g>
  </g>
</svg>
