<svg id="Layer_1" data-name="Layer 1" xmlns="http://www.w3.org/2000/svg" viewBox="0 0 1156.67 169.53"><defs><style>.cls-1{fill:#bc1b64;stroke:#fcfcfc;stroke-miterlimit:10;stroke-width:2px;}.cls-2{fill:#fcf8f5;}</style></defs><rect class="cls-1" x="342.6" y="50.19" width="505.57" height="78.15" rx="39.07"/><path class="cls-2" d="M410.31,94.84a11.45,11.45,0,0,1-.75,4.2,8.81,8.81,0,0,1-2.29,3.32,11.17,11.17,0,0,1-4,2.23,19.47,19.47,0,0,1-6,.88,27.05,27.05,0,0,1-3.1-.2,27.9,27.9,0,0,1-3.49-.65,30.34,30.34,0,0,1-3.61-1.17,20.24,20.24,0,0,1-3.32-1.68l2.09-6.64a27.43,27.43,0,0,0,6.62,3.11,16.53,16.53,0,0,0,4.81.74,5,5,0,0,0,3.14-1,3,3,0,0,0,1.1-2.59,3.82,3.82,0,0,0-1-2.43,11.8,11.8,0,0,0-3.25-2.27,60.9,60.9,0,0,1-5.52-3.3,20.93,20.93,0,0,1-3.71-3.14A11.07,11.07,0,0,1,386,81a10.47,10.47,0,0,1-.71-3.53,8.91,8.91,0,0,1,3.26-7.58q3.38-2.73,9.58-2.83c1.16,0,2.21,0,3.15.08a16.43,16.43,0,0,1,2.8.4,20.46,20.46,0,0,1,2.86.91c1,.39,2.07.89,3.26,1.5l-1.54,6.52c-.95-.53-1.83-1-2.64-1.33a19.94,19.94,0,0,0-2.31-.85,14.34,14.34,0,0,0-2.17-.48,16.37,16.37,0,0,0-2.28-.15,6.81,6.81,0,0,0-3.88,1A3.2,3.2,0,0,0,394,77.56a3.5,3.5,0,0,0,1.32,2.5,24.28,24.28,0,0,0,4.17,2.71c1.9,1.06,3.53,2,4.9,3a19.43,19.43,0,0,1,3.37,2.74,8.9,8.9,0,0,1,1.92,2.92A9.48,9.48,0,0,1,410.31,94.84Z"/><path class="cls-2" d="M432,105a16.57,16.57,0,0,1-3.94.45,13.06,13.06,0,0,1-4.84-.87,11.86,11.86,0,0,1-3.82-2.38,10.41,10.41,0,0,1-2.5-3.68,12.45,12.45,0,0,1-.88-4.78,15.14,15.14,0,0,1,.8-5,10.4,10.4,0,0,1,2.42-4,11.12,11.12,0,0,1,4-2.57,15.61,15.61,0,0,1,5.58-.92,12.63,12.63,0,0,1,4.21.58,14.87,14.87,0,0,1,2.72,1.24l-1.26,6.32c-.55-.26-1-.48-1.4-.69a11.07,11.07,0,0,0-1.1-.49,5.63,5.63,0,0,0-1.16-.28,12.86,12.86,0,0,0-1.51-.08,5.7,5.7,0,0,0-4.24,1.5,5.51,5.51,0,0,0-1.48,4.06,5.39,5.39,0,0,0,1.54,4.08A6.2,6.2,0,0,0,429.55,99a11.67,11.67,0,0,0,2.86-.34,16.13,16.13,0,0,0,2.92-1l.49,6A18.31,18.31,0,0,1,432,105Z"/><path class="cls-2" d="M457.11,105.47V91.79a7.54,7.54,0,0,0-.25-2.12,2.82,2.82,0,0,0-.71-1.22,2.21,2.21,0,0,0-1-.56,5,5,0,0,0-1.18-.13,3.35,3.35,0,0,0-1.82.56,5.54,5.54,0,0,0-1.55,1.51,8.72,8.72,0,0,0-1.09,2.25,8.86,8.86,0,0,0-.42,2.73v10.66h-7.32V67.8H449V84a8.57,8.57,0,0,1,3-2.12,10.16,10.16,0,0,1,3.69-.63,11.65,11.65,0,0,1,3.17.43,8.05,8.05,0,0,1,2.77,1.36,6.93,6.93,0,0,1,2,2.49,8.58,8.58,0,0,1,.76,3.8v16.12Z"/><path class="cls-2" d="M497.31,93.29a14,14,0,0,1-.9,5.21,10.38,10.38,0,0,1-2.58,3.81,11.07,11.07,0,0,1-4,2.36,17.14,17.14,0,0,1-10.35,0,11.11,11.11,0,0,1-4-2.36,10.8,10.8,0,0,1-2.6-3.81,14.92,14.92,0,0,1,0-10.29,10.61,10.61,0,0,1,2.55-3.78,10.82,10.82,0,0,1,4-2.36,16.45,16.45,0,0,1,5.26-.8,16.28,16.28,0,0,1,5.18.78,11,11,0,0,1,4,2.3,10.06,10.06,0,0,1,2.58,3.79A13.8,13.8,0,0,1,497.31,93.29Zm-7.31,0a5.08,5.08,0,0,0-5.45-5.54,5.08,5.08,0,0,0-3.91,1.46,5.73,5.73,0,0,0-1.37,4.08,6.07,6.07,0,0,0,1.34,4.2A5,5,0,0,0,484.55,99a5.38,5.38,0,0,0,4-1.46A5.83,5.83,0,0,0,490,93.3Z"/><path class="cls-2" d="M528.39,93.29a13.77,13.77,0,0,1-.91,5.21,10.48,10.48,0,0,1-2.57,3.81,11.11,11.11,0,0,1-4,2.36,17.14,17.14,0,0,1-10.35,0,11.19,11.19,0,0,1-4-2.36A10.8,10.8,0,0,1,504,98.5a13.57,13.57,0,0,1-.93-5.21,13.3,13.3,0,0,1,.91-5.08,10.72,10.72,0,0,1,2.54-3.78,10.86,10.86,0,0,1,4-2.36,17.61,17.61,0,0,1,10.43,0,11,11,0,0,1,4,2.3,10.15,10.15,0,0,1,2.57,3.79A13.6,13.6,0,0,1,528.39,93.29Zm-7.32,0a5.07,5.07,0,0,0-5.45-5.54,5.1,5.1,0,0,0-3.91,1.46,5.73,5.73,0,0,0-1.36,4.08,6.07,6.07,0,0,0,1.33,4.2A5,5,0,0,0,515.62,99a5.37,5.37,0,0,0,4-1.46A5.79,5.79,0,0,0,521.07,93.3Z"/><path class="cls-2" d="M535.48,105.47V67.14h7.32v38.33Z"/><path class="cls-2" d="M598.82,95a8.6,8.6,0,0,1-4.4,7.84q-4.39,2.67-13.68,2.67c-.63,0-1.42,0-2.37,0l-3-.14c-1.08-.06-2.16-.14-3.24-.25s-2-.21-2.89-.32V67.08h10.93a39.8,39.8,0,0,1,6.83.52,16.11,16.11,0,0,1,5,1.66,8.19,8.19,0,0,1,3.13,2.95,8.34,8.34,0,0,1,1.07,4.32,9.63,9.63,0,0,1-1.31,5,8.31,8.31,0,0,1-4.81,3.36,12,12,0,0,1,6.52,3.48A9.58,9.58,0,0,1,598.82,95ZM587.46,77.73a3.36,3.36,0,0,0-2.14-3.32,13.93,13.93,0,0,0-5.9-.84l-1.59.05v8.53l2.13.06c2.63.07,4.53-.26,5.72-1A3.82,3.82,0,0,0,587.46,77.73Zm1.87,16.35q0-5.55-8.58-5.38c-.37,0-.74,0-1.1,0h-1.82v9.91c.62.07,1.27.12,1.93.16s1.19.05,1.59.05q4.13,0,6-1.17A4,4,0,0,0,589.33,94.08Z"/><path class="cls-2" d="M621.61,104.81a10.1,10.1,0,0,1-.47-1.26c-.09-.33-.19-.81-.3-1.43a10.79,10.79,0,0,1-7.75,3.35,8,8,0,0,1-7.65-5.35,10.84,10.84,0,0,1-.6-3.7c0-1.5,0-2.89.11-4.17s.12-2.52.16-3.7,0-2.35,0-3.53-.13-2.43-.27-3.75h7.31c.11,1.2.17,2.36.19,3.47s0,2.22,0,3.32-.05,2.21-.11,3.34-.08,2.33-.08,3.6a6.21,6.21,0,0,0,.34,2.26,2.63,2.63,0,0,0,.89,1.19,2.55,2.55,0,0,0,1.12.45,7.84,7.84,0,0,0,1,.08,5.71,5.71,0,0,0,1.18-.21,3.82,3.82,0,0,0,1.66-1,6.82,6.82,0,0,0,1.46-2.33,11.19,11.19,0,0,0,.63-4.14v-10h7.32v16a27.41,27.41,0,0,0,.33,4.17,13.38,13.38,0,0,0,.88,3.37Z"/><path class="cls-2" d="M654.17,98.76a7,7,0,0,1-2.33,5.5,9.62,9.62,0,0,1-6.55,2,27.94,27.94,0,0,1-5.58-.55,16.61,16.61,0,0,1-4.4-1.49l.93-5.61a18.8,18.8,0,0,0,8.36,2.48,2.37,2.37,0,0,0,1.73-.53,1.61,1.61,0,0,0,.53-1.18,2.09,2.09,0,0,0-.42-1.35,6.13,6.13,0,0,0-2-1.29,32.26,32.26,0,0,1-3.88-2,13.09,13.09,0,0,1-2.64-2.06,7.05,7.05,0,0,1-1.49-2.28,7.66,7.66,0,0,1-.46-2.75,6.22,6.22,0,0,1,2.65-5.37,11.75,11.75,0,0,1,7-1.89,21.25,21.25,0,0,1,4.1.35,19,19,0,0,1,4.11,1.41l-.88,5.55a13,13,0,0,0-3.78-1.51,16.68,16.68,0,0,0-3.62-.41,2.52,2.52,0,0,0-1.75.46,1.71,1.71,0,0,0-.47,1.24,1.81,1.81,0,0,0,.75,1.51A15.65,15.65,0,0,0,647,90.57a35.94,35.94,0,0,1,3.33,1.89,11.87,11.87,0,0,1,2.25,1.87,5.81,5.81,0,0,1,1.25,2A7.18,7.18,0,0,1,654.17,98.76Z"/><path class="cls-2" d="M700,105.47,687.77,90.11v15.36H679V67.08h11.88q9,0,13.1,2.83a10.28,10.28,0,0,1,3.23,12.23,9,9,0,0,1-2.39,3.07,11.34,11.34,0,0,1-3.78,2,17.72,17.72,0,0,1-5,.77l14.47,17.49Zm-1.42-26.89a4.19,4.19,0,0,0-1.9-3.74q-1.9-1.28-6.09-1.27h-1.23a14.21,14.21,0,0,0-1.62.11V83.2c.49,0,.93.07,1.34.11l1.06.08.73,0a10.51,10.51,0,0,0,5.64-1.3A4,4,0,0,0,698.61,78.58Z"/><path class="cls-2" d="M730.07,104.81a10.1,10.1,0,0,1-.47-1.26c-.09-.33-.19-.81-.3-1.43a10.81,10.81,0,0,1-7.76,3.35,7.94,7.94,0,0,1-3.27-.67,8,8,0,0,1-4.37-4.68,10.6,10.6,0,0,1-.61-3.7c0-1.5,0-2.89.11-4.17s.13-2.52.17-3.7,0-2.35,0-3.53-.13-2.43-.28-3.75h7.32c.11,1.2.17,2.36.19,3.47s0,2.22,0,3.32,0,2.21-.11,3.34-.08,2.33-.08,3.6a6,6,0,0,0,.34,2.26,2.63,2.63,0,0,0,.89,1.19,2.55,2.55,0,0,0,1.12.45,7.69,7.69,0,0,0,1,.08,5.71,5.71,0,0,0,1.18-.21,3.87,3.87,0,0,0,1.66-1,6.82,6.82,0,0,0,1.46-2.33,11.19,11.19,0,0,0,.63-4.14v-10h7.31v16a27.41,27.41,0,0,0,.33,4.17,13.82,13.82,0,0,0,.88,3.37Z"/><path class="cls-2" d="M745.25,105.47V67.14h7.31v38.33Z"/><path class="cls-2" d="M782.1,87.93a6.27,6.27,0,0,1-1,3.41A8.27,8.27,0,0,1,778.36,94a15.67,15.67,0,0,1-4.28,1.68,24.13,24.13,0,0,1-5.61.6l-.66,0c-.25,0-.55,0-.89,0a5.06,5.06,0,0,0,1.65,3.27,5.2,5.2,0,0,0,3.56,1.18,16.3,16.3,0,0,0,8.1-2.47v5.77a15.88,15.88,0,0,1-4,1.73,16.6,16.6,0,0,1-4.32.53,14.29,14.29,0,0,1-5-.83,10.14,10.14,0,0,1-3.76-2.39,10.66,10.66,0,0,1-2.37-3.74,13.8,13.8,0,0,1-.82-4.92,15.32,15.32,0,0,1,1-5.53,12.76,12.76,0,0,1,2.7-4.32,11.76,11.76,0,0,1,4.15-2.8,13.94,13.94,0,0,1,5.33-1,10,10,0,0,1,6.52,2A6.45,6.45,0,0,1,782.1,87.93Zm-7.32.55A1.94,1.94,0,0,0,774,87a2.88,2.88,0,0,0-1.9-.63A4.36,4.36,0,0,0,769,87.62a6.21,6.21,0,0,0-1.69,3.55,5,5,0,0,0,.88.11H769Q774.78,91.28,774.78,88.48Z"/><path class="cls-2" d="M805.53,98.76a7,7,0,0,1-2.33,5.5,9.63,9.63,0,0,1-6.56,2,27.94,27.94,0,0,1-5.58-.55,16.74,16.74,0,0,1-4.4-1.49l.94-5.61a18.76,18.76,0,0,0,8.36,2.48,2.39,2.39,0,0,0,1.73-.53,1.6,1.6,0,0,0,.52-1.18,2.15,2.15,0,0,0-.41-1.35,6.21,6.21,0,0,0-2-1.29,33.84,33.84,0,0,1-3.88-2,13.09,13.09,0,0,1-2.64-2.06,7.18,7.18,0,0,1-1.48-2.28,7.66,7.66,0,0,1-.47-2.75A6.23,6.23,0,0,1,790,82.34a11.73,11.73,0,0,1,6.95-1.89,21.32,21.32,0,0,1,4.1.35,19,19,0,0,1,4.11,1.41l-.88,5.55a13.16,13.16,0,0,0-3.79-1.51,16.59,16.59,0,0,0-3.61-.41,2.5,2.5,0,0,0-1.75.46,1.67,1.67,0,0,0-.47,1.24,1.81,1.81,0,0,0,.75,1.51,15.8,15.8,0,0,0,2.93,1.52,35,35,0,0,1,3.34,1.89,11.87,11.87,0,0,1,2.25,1.87,6,6,0,0,1,1.25,2A7.45,7.45,0,0,1,805.53,98.76Z"/></svg>