<svg id="Layer_1" data-name="Layer 1" xmlns="http://www.w3.org/2000/svg" viewBox="0 0 1156.67 169.53"><defs><style>.cls-1{fill:#3172c2;stroke:#fff;stroke-miterlimit:10;stroke-width:2px;}.cls-2{fill:#fff;}</style></defs><rect class="cls-1" x="164.45" y="45.14" width="731.11" height="78.15" rx="39.07"/><path class="cls-2" d="M286.66,89.36a7.06,7.06,0,0,1-3.6,6.42Q279.46,98,271.86,98c-.51,0-1.15,0-1.93,0s-1.61-.06-2.5-.11-1.77-.11-2.65-.2-1.67-.18-2.36-.27V66.55h8.94A33.34,33.34,0,0,1,277,67a13.1,13.1,0,0,1,4.13,1.37,6.7,6.7,0,0,1,2.56,2.41,6.82,6.82,0,0,1,.87,3.53,7.79,7.79,0,0,1-1.07,4.08,6.77,6.77,0,0,1-3.93,2.75A9.79,9.79,0,0,1,284.84,84,7.82,7.82,0,0,1,286.66,89.36Zm-9.3-14.1a2.73,2.73,0,0,0-1.75-2.71,11.27,11.27,0,0,0-4.83-.69l-1.3,0v7l1.75,0a8.76,8.76,0,0,0,4.68-.81A3.14,3.14,0,0,0,277.36,75.26Zm1.53,13.38q0-4.55-7-4.41c-.3,0-.6,0-.9,0h-1.49v8.1c.51.06,1,.11,1.58.14s1,0,1.3,0a9.82,9.82,0,0,0,4.95-1A3.23,3.23,0,0,0,278.89,88.64Z"/><path class="cls-2" d="M309,83.6a5.13,5.13,0,0,1-.8,2.79A6.66,6.66,0,0,1,306,88.53a12.29,12.29,0,0,1-3.5,1.37,19.62,19.62,0,0,1-4.59.5l-.54,0c-.21,0-.45,0-.73,0A4.17,4.17,0,0,0,298,93a4.25,4.25,0,0,0,2.91,1,13.36,13.36,0,0,0,6.63-2V96.7a13.24,13.24,0,0,1-3.26,1.42,14,14,0,0,1-3.54.42,11.66,11.66,0,0,1-4.07-.67,8.26,8.26,0,0,1-3.08-2,8.65,8.65,0,0,1-1.94-3.06,11.28,11.28,0,0,1-.67-4,12.4,12.4,0,0,1,.79-4.52,10.55,10.55,0,0,1,2.2-3.53,9.79,9.79,0,0,1,3.4-2.3,11.4,11.4,0,0,1,4.36-.81A8.26,8.26,0,0,1,307,79.28,5.29,5.29,0,0,1,309,83.6Zm-6,.45a1.54,1.54,0,0,0-.61-1.23,2.32,2.32,0,0,0-1.56-.52,3.53,3.53,0,0,0-2.56,1.06,5,5,0,0,0-1.39,2.9,3.87,3.87,0,0,0,.72.09h.67Q303,86.35,303.05,84.05Z"/><path class="cls-2" d="M347.56,86.89a15.15,15.15,0,0,1-.63,4.5,10.79,10.79,0,0,1-1.78,3.5,7.91,7.91,0,0,1-2.73,2.27,7.66,7.66,0,0,1-3.49.8,7.8,7.8,0,0,1-2.36-.31,7.26,7.26,0,0,1-2-1.16v14.88h-6.3V84.09c0-.32,0-.7-.06-1.15s-.11-.9-.18-1.39-.17-1-.27-1.46a12,12,0,0,0-.39-1.35h6.1a4.47,4.47,0,0,1,.33.88,10.81,10.81,0,0,1,.19,1.24,9.59,9.59,0,0,1,2.71-2.07,7.19,7.19,0,0,1,3.11-.63,7.83,7.83,0,0,1,3.17.63,6.85,6.85,0,0,1,2.45,1.77A7.91,7.91,0,0,1,347,83.33,10.68,10.68,0,0,1,347.56,86.89Zm-6,1a4.31,4.31,0,0,0-.89-2.89,3.1,3.1,0,0,0-2.47-1,3.54,3.54,0,0,0-2.9,1.33,5.43,5.43,0,0,0-1.07,3.55v2.61a4.75,4.75,0,0,0,3.19,1.2,3.83,3.83,0,0,0,3-1.26A5.12,5.12,0,0,0,341.57,87.89Z"/><path class="cls-2" d="M373.39,88a11.45,11.45,0,0,1-.74,4.26,8.5,8.5,0,0,1-2.11,3.11,9.06,9.06,0,0,1-3.27,1.93,13.92,13.92,0,0,1-8.47,0,9.06,9.06,0,0,1-3.27-1.93,8.64,8.64,0,0,1-2.12-3.11,12.12,12.12,0,0,1,0-8.42,8.57,8.57,0,0,1,5.36-5,14.32,14.32,0,0,1,8.53,0,9,9,0,0,1,3.27,1.88,8.38,8.38,0,0,1,2.11,3.1A11.31,11.31,0,0,1,373.39,88Zm-6,0a4.51,4.51,0,0,0-1.2-3.34A4.45,4.45,0,0,0,363,83.47a4.2,4.2,0,0,0-3.21,1.19A4.73,4.73,0,0,0,358.63,88a5,5,0,0,0,1.09,3.44A4.11,4.11,0,0,0,363,92.65a4.39,4.39,0,0,0,3.29-1.19A4.75,4.75,0,0,0,367.4,88Z"/><path class="cls-2" d="M379.19,98V66.59h6V98Z"/><path class="cls-2" d="M399.13,72.72a2.49,2.49,0,0,1-1,2,3.83,3.83,0,0,1-2.47.82,3.87,3.87,0,0,1-2.52-.84A2.7,2.7,0,0,1,392,72.65a2.45,2.45,0,0,1,1-2.07,4,4,0,0,1,2.61-.84A4.09,4.09,0,0,1,397,70a3.92,3.92,0,0,1,1.12.63,3.43,3.43,0,0,1,.77,1A2.52,2.52,0,0,1,399.13,72.72ZM392.38,98V78.16h6V98Z"/><path class="cls-2" d="M406.64,98V82.43h-4V78.16h4v-5h5.9v5h5.08v4.27h-5.08V98Z"/><path class="cls-2" d="M437.06,83.6a5.13,5.13,0,0,1-.8,2.79A6.57,6.57,0,0,1,434,88.53a12.29,12.29,0,0,1-3.5,1.37,19.56,19.56,0,0,1-4.59.5l-.54,0c-.2,0-.45,0-.73,0A4.17,4.17,0,0,0,426,93a4.25,4.25,0,0,0,2.91,1,13.3,13.3,0,0,0,6.63-2V96.7a13.24,13.24,0,0,1-3.26,1.42,13.89,13.89,0,0,1-3.53.42,11.72,11.72,0,0,1-4.08-.67,8.26,8.26,0,0,1-3.08-2,8.63,8.63,0,0,1-1.93-3.06,11.28,11.28,0,0,1-.68-4,12.4,12.4,0,0,1,.79-4.52,10.55,10.55,0,0,1,2.2-3.53,9.79,9.79,0,0,1,3.4-2.3,11.45,11.45,0,0,1,4.37-.81,8.23,8.23,0,0,1,5.33,1.62A5.29,5.29,0,0,1,437.06,83.6Zm-6,.45a1.55,1.55,0,0,0-.62-1.23,2.31,2.31,0,0,0-1.55-.52,3.54,3.54,0,0,0-2.57,1.06,4.93,4.93,0,0,0-1.38,2.9,3.69,3.69,0,0,0,.71.09h.67Q431.08,86.35,431.08,84.05Z"/><path class="cls-2" d="M457.45,98V82.43h-4V78.16h4v-5h5.89v5h5.09v4.27h-5.09V98Z"/><path class="cls-2" d="M490.34,88a11.45,11.45,0,0,1-.74,4.26,8.47,8.47,0,0,1-2.1,3.11,9.19,9.19,0,0,1-3.28,1.93,13.89,13.89,0,0,1-8.46,0,9.06,9.06,0,0,1-3.27-1.93,8.67,8.67,0,0,1-2.13-3.11A11.05,11.05,0,0,1,469.6,88a10.87,10.87,0,0,1,.74-4.16,8.47,8.47,0,0,1,2.08-3.09,8.61,8.61,0,0,1,3.27-1.93,14.32,14.32,0,0,1,8.53,0,9.09,9.09,0,0,1,3.28,1.88,8.35,8.35,0,0,1,2.1,3.1A11.31,11.31,0,0,1,490.34,88Zm-6,0a4.51,4.51,0,0,0-1.21-3.34,4.45,4.45,0,0,0-3.25-1.19,4.18,4.18,0,0,0-3.2,1.19A4.69,4.69,0,0,0,475.58,88a5,5,0,0,0,1.09,3.44,4.11,4.11,0,0,0,3.23,1.21,4.43,4.43,0,0,0,3.3-1.19A4.79,4.79,0,0,0,484.36,88Z"/><path class="cls-2" d="M529.76,88a11.45,11.45,0,0,1-.74,4.26,8.38,8.38,0,0,1-2.11,3.11,9.06,9.06,0,0,1-3.27,1.93,13.89,13.89,0,0,1-8.46,0,9.06,9.06,0,0,1-3.27-1.93,8.54,8.54,0,0,1-2.13-3.11,12.12,12.12,0,0,1,0-8.42,8.57,8.57,0,0,1,5.36-5,14.32,14.32,0,0,1,8.53,0,9,9,0,0,1,3.27,1.88,8.26,8.26,0,0,1,2.11,3.1A11.31,11.31,0,0,1,529.76,88Zm-6,0a4.51,4.51,0,0,0-1.21-3.34,4.45,4.45,0,0,0-3.25-1.19,4.2,4.2,0,0,0-3.21,1.19A4.73,4.73,0,0,0,515,88a5,5,0,0,0,1.09,3.44,4.11,4.11,0,0,0,3.23,1.21,4.39,4.39,0,0,0,3.29-1.19A4.75,4.75,0,0,0,523.78,88Z"/><path class="cls-2" d="M535.66,98V82.43h-4V78.16h4v-5h5.89v5h5.08v4.27h-5.08V98Z"/><path class="cls-2" d="M562.83,98V86.77a5.89,5.89,0,0,0-.2-1.74,2.36,2.36,0,0,0-.58-1,1.76,1.76,0,0,0-.82-.45,4.37,4.37,0,0,0-1-.11,2.73,2.73,0,0,0-1.49.45,4.66,4.66,0,0,0-1.27,1.24,7.15,7.15,0,0,0-.89,1.84,7.24,7.24,0,0,0-.35,2.24V98h-6V67.13h5.94V80.41a6.87,6.87,0,0,1,2.48-1.73,8.21,8.21,0,0,1,3-.52,9.88,9.88,0,0,1,2.6.35,6.56,6.56,0,0,1,2.26,1.12,5.78,5.78,0,0,1,1.62,2,7.12,7.12,0,0,1,.62,3.11V98Z"/><path class="cls-2" d="M593.25,83.6a5,5,0,0,1-.8,2.79,6.62,6.62,0,0,1-2.25,2.14,12.48,12.48,0,0,1-3.51,1.37,19.5,19.5,0,0,1-4.59.5l-.54,0c-.2,0-.44,0-.73,0A4.17,4.17,0,0,0,582.18,93a4.26,4.26,0,0,0,2.91,1,13.3,13.3,0,0,0,6.63-2V96.7a13.08,13.08,0,0,1-3.26,1.42,13.84,13.84,0,0,1-3.53.42,11.62,11.62,0,0,1-4.07-.67,8.22,8.22,0,0,1-3.09-2,8.63,8.63,0,0,1-1.93-3.06,11.28,11.28,0,0,1-.68-4A12.62,12.62,0,0,1,576,84.3a10.57,10.57,0,0,1,2.21-3.53,9.66,9.66,0,0,1,3.39-2.3,11.45,11.45,0,0,1,4.37-.81,8.21,8.21,0,0,1,5.33,1.62A5.26,5.26,0,0,1,593.25,83.6Zm-6,.45a1.55,1.55,0,0,0-.62-1.23,2.31,2.31,0,0,0-1.55-.52,3.54,3.54,0,0,0-2.57,1.06,5,5,0,0,0-1.38,2.9,3.69,3.69,0,0,0,.71.09h.67Q587.27,86.35,587.27,84.05Z"/><path class="cls-2" d="M611.7,83.69q-.63-.14-1-.18a6.65,6.65,0,0,0-.81,0A4.56,4.56,0,0,0,606,85.23a8.62,8.62,0,0,0-1.33,5.22V98h-6V85c0-.73,0-1.37,0-1.91s-.06-1-.12-1.52-.14-.94-.24-1.39-.25-1-.43-1.57h5.68c.09.37.18.69.25,1a4.57,4.57,0,0,1,.17.74c0,.23.06.48.09.74a8.39,8.39,0,0,1,0,1A10.05,10.05,0,0,1,606.69,79a4.87,4.87,0,0,1,2.85-.85,4.48,4.48,0,0,1,1.06.11,11.51,11.51,0,0,1,1.19.44Z"/><path class="cls-2" d="M641.79,97.59a13.35,13.35,0,0,1-3.22.37,10.77,10.77,0,0,1-4-.71,9.63,9.63,0,0,1-3.13-2,8.44,8.44,0,0,1-2.05-3,10.24,10.24,0,0,1-.72-3.91,12.4,12.4,0,0,1,.66-4.12,8.49,8.49,0,0,1,2-3.24,9.09,9.09,0,0,1,3.29-2.11,12.73,12.73,0,0,1,4.57-.75,10.6,10.6,0,0,1,3.44.47,13.1,13.1,0,0,1,2.23,1l-1,5.18-1.15-.56a7.63,7.63,0,0,0-.89-.41,4.56,4.56,0,0,0-.95-.22,8.84,8.84,0,0,0-1.24-.07,4.64,4.64,0,0,0-3.46,1.23,4.49,4.49,0,0,0-1.22,3.31,4.39,4.39,0,0,0,1.26,3.34,5.06,5.06,0,0,0,3.65,1.21,9.49,9.49,0,0,0,2.34-.28,12.72,12.72,0,0,0,2.38-.85l.41,4.89A15.14,15.14,0,0,1,641.79,97.59Z"/><path class="cls-2" d="M662.37,98V86.77a6.25,6.25,0,0,0-.2-1.74,2.36,2.36,0,0,0-.58-1,1.74,1.74,0,0,0-.83-.45,4.21,4.21,0,0,0-1-.11,2.73,2.73,0,0,0-1.49.45A4.66,4.66,0,0,0,657,85.16a6.84,6.84,0,0,0-.89,1.84,7.24,7.24,0,0,0-.35,2.24V98h-6V67.13h5.94V80.41a6.78,6.78,0,0,1,2.48-1.73,8.17,8.17,0,0,1,3-.52,9.75,9.75,0,0,1,2.59.35,6.52,6.52,0,0,1,2.27,1.12,5.78,5.78,0,0,1,1.62,2,7.12,7.12,0,0,1,.62,3.11V98Z"/><path class="cls-2" d="M682.58,72.72a2.49,2.49,0,0,1-1,2,3.83,3.83,0,0,1-2.47.82,3.87,3.87,0,0,1-2.52-.84,2.7,2.7,0,0,1-1.08-2.06,2.45,2.45,0,0,1,1-2.07,4.27,4.27,0,0,1,3.93-.61,3.85,3.85,0,0,1,1.13.63,3.23,3.23,0,0,1,.76,1A2.42,2.42,0,0,1,682.58,72.72ZM675.83,98V78.16h6V98Z"/><path class="cls-2" d="M688.65,98V66.59h6V98Z"/><path class="cls-2" d="M716.24,98q0-.27-.09-.63c0-.21-.07-.45-.1-.72s-.06-.6-.09-1a8.32,8.32,0,0,1-3,2.23,9.33,9.33,0,0,1-3.56.65,8.81,8.81,0,0,1-3.59-.7,7.87,7.87,0,0,1-2.73-1.93,8.91,8.91,0,0,1-1.76-3,11.5,11.5,0,0,1-.63-3.91,13.53,13.53,0,0,1,.74-4.55,11,11,0,0,1,2.07-3.57,9.1,9.1,0,0,1,3.18-2.34,9.63,9.63,0,0,1,4-.84,14,14,0,0,1,2,.14,11.49,11.49,0,0,1,2.2.58V66.59h6V91.12c0,.51,0,1.15.06,1.93s.1,1.53.16,2.25.14,1.73.23,2.66Zm-1.31-14.45a6.46,6.46,0,0,0-1.66-.45,14,14,0,0,0-1.61-.09A4.53,4.53,0,0,0,708,84.53a6.29,6.29,0,0,0-1.33,4.25,4.62,4.62,0,0,0,.93,3.08,3.18,3.18,0,0,0,2.58,1.1,5.31,5.31,0,0,0,1.84-.31,3.44,3.44,0,0,0,1.5-1.08,5.77,5.77,0,0,0,1-2,10.89,10.89,0,0,0,.37-3.09Z"/><path class="cls-2" d="M741.12,83.69q-.63-.14-1-.18a6.65,6.65,0,0,0-.81,0,4.54,4.54,0,0,0-3.89,1.76,8.55,8.55,0,0,0-1.33,5.22V98h-6V85c0-.73,0-1.37,0-1.91a13.9,13.9,0,0,0-.11-1.52,12.61,12.61,0,0,0-.25-1.39c-.1-.46-.24-1-.42-1.57H733c.09.37.17.69.25,1a4.49,4.49,0,0,1,.16.74c0,.23.07.48.1.74a8.65,8.65,0,0,1,0,1A10.2,10.2,0,0,1,736.1,79a4.92,4.92,0,0,1,2.86-.85,4.54,4.54,0,0,1,1.06.11,12.43,12.43,0,0,1,1.19.44Z"/><path class="cls-2" d="M761.06,83.6a5.05,5.05,0,0,1-.81,2.79A6.62,6.62,0,0,1,758,88.53a12.24,12.24,0,0,1-3.51,1.37,19.47,19.47,0,0,1-4.58.5l-.55,0c-.2,0-.44,0-.73,0A4.17,4.17,0,0,0,750,93a4.29,4.29,0,0,0,2.92,1,13.36,13.36,0,0,0,6.63-2V96.7a13.14,13.14,0,0,1-3.27,1.42,13.84,13.84,0,0,1-3.53.42,11.62,11.62,0,0,1-4.07-.67,8.18,8.18,0,0,1-3.08-2,8.65,8.65,0,0,1-1.94-3.06,11.28,11.28,0,0,1-.68-4,12.62,12.62,0,0,1,.79-4.52A10.57,10.57,0,0,1,746,80.77a9.7,9.7,0,0,1,3.4-2.3,11.36,11.36,0,0,1,4.36-.81,8.21,8.21,0,0,1,5.33,1.62A5.27,5.27,0,0,1,761.06,83.6Zm-6,.45a1.55,1.55,0,0,0-.62-1.23,2.31,2.31,0,0,0-1.55-.52,3.55,3.55,0,0,0-2.57,1.06,5,5,0,0,0-1.38,2.9,3.78,3.78,0,0,0,.72.09h.66Q755.07,86.35,755.07,84.05Z"/><path class="cls-2" d="M778.74,98V86.72a4.63,4.63,0,0,0-.29-1.82,2.72,2.72,0,0,0-.7-1,1.91,1.91,0,0,0-.86-.39,5.86,5.86,0,0,0-.76-.06,4.87,4.87,0,0,0-1,.17,3.34,3.34,0,0,0-1.37.83,5.48,5.48,0,0,0-1.23,1.91,8.49,8.49,0,0,0-.54,3.38V98h-6V84.87a22.25,22.25,0,0,0-.27-3.41,11.08,11.08,0,0,0-.72-2.76h6a9.87,9.87,0,0,1,.39,1c.07.27.16.66.24,1.17a9.43,9.43,0,0,1,3.09-2.07,8.93,8.93,0,0,1,3.35-.67,6.33,6.33,0,0,1,2.62.53,6.2,6.2,0,0,1,2.1,1.46,6.77,6.77,0,0,1,1.39,2.32,8.86,8.86,0,0,1,.5,3.09V98Z"/><path class="cls-2" d="M799,95.19a2.4,2.4,0,0,1-1,2,4.19,4.19,0,0,1-5,0,2.59,2.59,0,0,1-.06-4.12,3.54,3.54,0,0,1,2.39-.84,4,4,0,0,1,2.62.9A2.69,2.69,0,0,1,799,95.19Z"/></svg>