<svg id="Layer_1" data-name="Layer 1" xmlns="http://www.w3.org/2000/svg" viewBox="0 0 1156.67 169.53"><defs><style>.cls-1{fill:#3172c2;stroke:#fff;stroke-miterlimit:10;stroke-width:2px;}.cls-2{fill:#fff;}</style></defs><rect class="cls-1" x="39.56" y="45.69" width="1096.04" height="78.15" rx="39.07"/><path class="cls-2" d="M82.92,99l-3.29-8.64H69L65.64,99h-7L71.17,67.55h7.11L90.48,99ZM74.28,75.29,70.81,85h7.11Z"/><path class="cls-2" d="M94.08,99V67.6h6V99Z"/><path class="cls-2" d="M132.1,96.76a3.52,3.52,0,0,1-1.19,1.7,3.68,3.68,0,0,1-2,.5,3.34,3.34,0,0,1-2.07-.55,3.77,3.77,0,0,1-1.17-1.83L121.8,84.91l-4,11.9a2.9,2.9,0,0,1-1.15,1.65,4,4,0,0,1-2.13.5,7.23,7.23,0,0,1-1-.06,2.6,2.6,0,0,1-.85-.29,2.37,2.37,0,0,1-.77-.7,4.69,4.69,0,0,1-.63-1.27L105,79.16h6.08l2.61,8c.09.3.18.64.29,1s.22.79.34,1.17.25.91.4,1.4a8.24,8.24,0,0,1,.27-1.09c.09-.33.19-.67.29-1s.21-.71.3-1l2.52-8.43h7.29L128.1,88c.06.26.14.55.24.85s.21.61.3.9a5.78,5.78,0,0,1,.27,1c.09-.29.18-.6.27-.92.15-.58.31-1.14.49-1.67l2.66-9h6.3Z"/><path class="cls-2" d="M156.62,99a7.6,7.6,0,0,0,0-.76c0-.24-.06-.53-.08-.86s0-.67-.07-1a7.14,7.14,0,0,1-2.93,2.32,9.54,9.54,0,0,1-3.83.78A7.11,7.11,0,0,1,143.92,97q-2.05-2.43-2-6.93c0-3.63,1.1-6.42,3.3-8.39s5.35-3,9.42-3c.67,0,1.28,0,1.83.05s1.09.08,1.64.16,1.11.17,1.69.29,1.22.28,1.92.49V92.48c0,.69,0,1.42,0,2.19s.07,1.46.14,2.09.11,1.48.17,2.2Zm-.94-14.67a9.15,9.15,0,0,0-1.42-.22c-.43,0-.82,0-1.19,0a4.83,4.83,0,0,0-3.85,1.6,6.61,6.61,0,0,0-1.37,4.43,4.4,4.4,0,0,0,.82,2.88,2.88,2.88,0,0,0,2.34,1,4.16,4.16,0,0,0,1.81-.4,4.7,4.7,0,0,0,1.49-1.15,5.5,5.5,0,0,0,1-1.76,6.47,6.47,0,0,0,.37-2.27Z"/><path class="cls-2" d="M185.38,105.44a9.77,9.77,0,0,1-2,4.13,7.09,7.09,0,0,1-3.41,2.18,17.72,17.72,0,0,1-5,.62,14.17,14.17,0,0,1-2.89-.29,29.64,29.64,0,0,1-3-.79V106.8c1,.08,1.93.14,2.82.19s1.77.07,2.64.07a6.52,6.52,0,0,0,2.42-.41,3.79,3.79,0,0,0,1.67-1.36,6.77,6.77,0,0,0,.95-2.5,21.65,21.65,0,0,0,.29-3.83V96.53A7.71,7.71,0,0,1,174.27,99a6.39,6.39,0,0,1-2.59-.53,6,6,0,0,1-2.14-1.51,7.65,7.65,0,0,1-1.44-2.38,8.6,8.6,0,0,1-.54-3.15c0-1,0-2.06.05-3s0-1.94,0-2.91,0-2,0-3-.07-2.12-.16-3.3h6c.09,1.2.14,2.3.15,3.32s0,2,0,2.88,0,1.77,0,2.6,0,1.65,0,2.46a3.74,3.74,0,0,0,.66,2.47,2.4,2.4,0,0,0,1.91.76,3.63,3.63,0,0,0,2.76-1.24A4.75,4.75,0,0,0,180,89.07V79.16h6V99A28,28,0,0,1,185.38,105.44Z"/><path class="cls-2" d="M207.16,93.47a5.68,5.68,0,0,1-1.91,4.5,7.87,7.87,0,0,1-5.36,1.67,22.39,22.39,0,0,1-4.56-.45A13.59,13.59,0,0,1,191.72,98l.77-4.59a15.37,15.37,0,0,0,6.84,2,2,2,0,0,0,1.42-.43,1.34,1.34,0,0,0,.42-1,1.76,1.76,0,0,0-.33-1.1,5.36,5.36,0,0,0-1.65-1.06A27.22,27.22,0,0,1,196,90.23a11,11,0,0,1-2.16-1.68,5.75,5.75,0,0,1-1.21-1.87,6.1,6.1,0,0,1-.39-2.25A5.08,5.08,0,0,1,194.44,80a9.61,9.61,0,0,1,5.68-1.55,17.9,17.9,0,0,1,3.36.29,15.77,15.77,0,0,1,3.36,1.15l-.72,4.54A10.5,10.5,0,0,0,203,83.24a13.66,13.66,0,0,0-3-.34,2,2,0,0,0-1.43.38,1.36,1.36,0,0,0-.39,1,1.49,1.49,0,0,0,.62,1.24,13,13,0,0,0,2.39,1.24A27.93,27.93,0,0,1,204,88.32a10.15,10.15,0,0,1,1.84,1.53,5.08,5.08,0,0,1,1,1.67A6,6,0,0,1,207.16,93.47Z"/><path class="cls-2" d="M246.76,87.63a13.28,13.28,0,0,1-.78,4.66,9.84,9.84,0,0,1-5.69,5.86,12.09,12.09,0,0,1-4.52.81,22.65,22.65,0,0,1-4.5-.47,20.55,20.55,0,0,1-4.22-1.27V68.1h6V81.47a7,7,0,0,1,2.57-1.73,8.77,8.77,0,0,1,3.27-.58,8.47,8.47,0,0,1,3.22.6,7,7,0,0,1,2.5,1.71,7.92,7.92,0,0,1,1.6,2.67A10.18,10.18,0,0,1,246.76,87.63Zm-6,1.09a3.94,3.94,0,0,0-.9-2.75,3.27,3.27,0,0,0-2.55-1,4.36,4.36,0,0,0-1.81.36,4.29,4.29,0,0,0-1.37,1,4.11,4.11,0,0,0-.86,1.45,4.88,4.88,0,0,0-.29,1.71v3.42a5.56,5.56,0,0,0,1.41.53,9,9,0,0,0,1.64.12,4.67,4.67,0,0,0,3.47-1.28A4.87,4.87,0,0,0,240.77,88.72Z"/><path class="cls-2" d="M269.57,84.61a5,5,0,0,1-.8,2.79,6.6,6.6,0,0,1-2.25,2.13A12.48,12.48,0,0,1,263,90.91a19.52,19.52,0,0,1-4.59.49c-.15,0-.33,0-.54,0l-.73,0A4.15,4.15,0,0,0,258.5,94a4.25,4.25,0,0,0,2.91,1A13.28,13.28,0,0,0,268,93V97.7a12.87,12.87,0,0,1-3.26,1.42,13.88,13.88,0,0,1-3.53.43,11.62,11.62,0,0,1-4.07-.68,8.32,8.32,0,0,1-3.09-2,8.81,8.81,0,0,1-1.93-3.06,11.31,11.31,0,0,1-.68-4,12.67,12.67,0,0,1,.79-4.53,10.41,10.41,0,0,1,2.21-3.53,9.64,9.64,0,0,1,3.39-2.29,11.45,11.45,0,0,1,4.37-.81,8.23,8.23,0,0,1,5.33,1.62A5.29,5.29,0,0,1,269.57,84.61Zm-6,.45a1.59,1.59,0,0,0-.62-1.24,2.36,2.36,0,0,0-1.55-.52,3.58,3.58,0,0,0-2.57,1.06,5,5,0,0,0-1.38,2.9,3.69,3.69,0,0,0,.71.09h.67Q263.59,87.35,263.59,85.06Z"/><path class="cls-2" d="M302.74,93.47a5.68,5.68,0,0,1-1.91,4.5,7.89,7.89,0,0,1-5.36,1.67,22.49,22.49,0,0,1-4.57-.45A13.51,13.51,0,0,1,287.3,98l.77-4.59a15.37,15.37,0,0,0,6.84,2,1.9,1.9,0,0,0,1.41-.43,1.32,1.32,0,0,0,.43-1,1.7,1.7,0,0,0-.34-1.1,5.14,5.14,0,0,0-1.64-1.06,26.44,26.44,0,0,1-3.17-1.62,10.39,10.39,0,0,1-2.16-1.68,5.79,5.79,0,0,1-1.22-1.87,6.32,6.32,0,0,1-.38-2.25A5.08,5.08,0,0,1,290,80a9.59,9.59,0,0,1,5.68-1.55,17.87,17.87,0,0,1,3.35.29,15.65,15.65,0,0,1,3.37,1.15l-.72,4.54a10.55,10.55,0,0,0-3.1-1.23,13.5,13.5,0,0,0-3-.34,2.09,2.09,0,0,0-1.44.38,1.39,1.39,0,0,0-.38,1,1.48,1.48,0,0,0,.61,1.24,13.6,13.6,0,0,0,2.4,1.24,26.55,26.55,0,0,1,2.73,1.55,10.24,10.24,0,0,1,1.85,1.53,4.89,4.89,0,0,1,1,1.67A5.7,5.7,0,0,1,302.74,93.47Z"/><path class="cls-2" d="M325.64,84.61a5.13,5.13,0,0,1-.8,2.79,6.54,6.54,0,0,1-2.26,2.13,12.29,12.29,0,0,1-3.5,1.38,19.58,19.58,0,0,1-4.59.49,5.25,5.25,0,0,1-.54,0l-.73,0A4.15,4.15,0,0,0,314.57,94a4.25,4.25,0,0,0,2.91,1,13.28,13.28,0,0,0,6.63-2V97.7a12.87,12.87,0,0,1-3.26,1.42,13.88,13.88,0,0,1-3.53.43,11.72,11.72,0,0,1-4.08-.68,8.36,8.36,0,0,1-3.08-2,8.81,8.81,0,0,1-1.93-3.06,11.31,11.31,0,0,1-.68-4,12.46,12.46,0,0,1,.79-4.53,10.55,10.55,0,0,1,2.2-3.53,9.77,9.77,0,0,1,3.4-2.29,11.45,11.45,0,0,1,4.37-.81,8.23,8.23,0,0,1,5.33,1.62A5.29,5.29,0,0,1,325.64,84.61Zm-6,.45a1.59,1.59,0,0,0-.62-1.24,2.37,2.37,0,0,0-1.56-.52,3.57,3.57,0,0,0-2.56,1.06,5,5,0,0,0-1.38,2.9,3.69,3.69,0,0,0,.71.09h.67Q319.66,87.35,319.66,85.06Z"/><path class="cls-2" d="M344.4,99a7.6,7.6,0,0,0,0-.76,6.64,6.64,0,0,1-.07-.86c0-.33,0-.67-.07-1a7.17,7.17,0,0,1-2.94,2.32,9.54,9.54,0,0,1-3.83.78A7.11,7.11,0,0,1,331.7,97q-2.06-2.43-2.05-6.93c0-3.63,1.1-6.42,3.3-8.39s5.35-3,9.43-3c.66,0,1.27,0,1.82.05s1.09.08,1.64.16,1.11.17,1.69.29,1.22.28,1.92.49V92.48c0,.69,0,1.42,0,2.19s.08,1.46.14,2.09.12,1.48.18,2.2Zm-.94-14.67a9.15,9.15,0,0,0-1.42-.22c-.43,0-.82,0-1.19,0a4.83,4.83,0,0,0-3.85,1.6,6.61,6.61,0,0,0-1.37,4.43,4.4,4.4,0,0,0,.83,2.88,2.84,2.84,0,0,0,2.33,1,4.16,4.16,0,0,0,1.81-.4,4.7,4.7,0,0,0,1.49-1.15,5.52,5.52,0,0,0,1-1.76,6.72,6.72,0,0,0,.36-2.27Z"/><path class="cls-2" d="M357.1,99V83.44h-4V79.16h4v-5H363v5h5.09v4.28H363V99Z"/><path class="cls-2" d="M387.52,84.61a5.13,5.13,0,0,1-.8,2.79,6.72,6.72,0,0,1-2.26,2.13A12.25,12.25,0,0,1,381,90.91a19.49,19.49,0,0,1-4.58.49c-.16,0-.34,0-.55,0l-.72,0A4.09,4.09,0,0,0,376.44,94a4.29,4.29,0,0,0,2.92,1A13.34,13.34,0,0,0,386,93V97.7a12.78,12.78,0,0,1-3.27,1.42,13.82,13.82,0,0,1-3.53.43,11.62,11.62,0,0,1-4.07-.68,8.28,8.28,0,0,1-3.08-2,8.83,8.83,0,0,1-1.94-3.06,11.32,11.32,0,0,1-.67-4,12.67,12.67,0,0,1,.78-4.53,10.57,10.57,0,0,1,2.21-3.53,9.68,9.68,0,0,1,3.4-2.29,11.4,11.4,0,0,1,4.36-.81,8.21,8.21,0,0,1,5.33,1.62A5.27,5.27,0,0,1,387.52,84.61Zm-6,.45a1.59,1.59,0,0,0-.62-1.24,2.36,2.36,0,0,0-1.55-.52,3.59,3.59,0,0,0-2.57,1.06,5.08,5.08,0,0,0-1.38,2.9,3.78,3.78,0,0,0,.72.09h.66Q381.53,87.35,381.53,85.06Z"/><path class="cls-2" d="M407.05,99q0-.27-.09-.63c0-.21-.07-.45-.1-.72s-.06-.6-.09-1a8.21,8.21,0,0,1-3,2.23,9.33,9.33,0,0,1-3.56.65,8.81,8.81,0,0,1-3.59-.7,7.74,7.74,0,0,1-2.73-1.93,8.77,8.77,0,0,1-1.76-3,11.55,11.55,0,0,1-.63-3.92,13.47,13.47,0,0,1,.74-4.54,11.18,11.18,0,0,1,2.07-3.58,9.45,9.45,0,0,1,3.18-2.34,9.81,9.81,0,0,1,4.05-.83,14,14,0,0,1,2,.13,11.6,11.6,0,0,1,2.2.59V67.6h6V92.12c0,.51,0,1.16.06,1.94s.1,1.53.16,2.25.14,1.72.23,2.65Zm-1.31-14.44a6.46,6.46,0,0,0-1.66-.45,13.83,13.83,0,0,0-1.61-.09,4.55,4.55,0,0,0-3.63,1.55,6.31,6.31,0,0,0-1.33,4.25,4.62,4.62,0,0,0,.93,3.08A3.2,3.2,0,0,0,401,94a5.31,5.31,0,0,0,1.84-.32,3.44,3.44,0,0,0,1.5-1.08,5.68,5.68,0,0,0,1-2,10.76,10.76,0,0,0,.37-3.08Z"/><path class="cls-2" d="M457.44,96.76a3.45,3.45,0,0,1-1.19,1.7,3.64,3.64,0,0,1-2,.5,3.35,3.35,0,0,1-2.08-.55A3.77,3.77,0,0,1,451,96.58l-3.82-11.67-4,11.9A2.93,2.93,0,0,1,442,98.46a4,4,0,0,1-2.14.5,7.23,7.23,0,0,1-1-.06,2.6,2.6,0,0,1-.85-.29,2.37,2.37,0,0,1-.77-.7,5,5,0,0,1-.63-1.27l-6.29-17.48h6.07l2.61,8c.09.3.19.64.29,1s.22.79.34,1.17.25.91.4,1.4a8.24,8.24,0,0,1,.27-1.09c.1-.33.19-.67.3-1l.29-1,2.52-8.43h7.29l2.7,8.83a7.13,7.13,0,0,0,.25.85c.1.31.2.61.29.9a5.78,5.78,0,0,1,.27,1c.09-.29.18-.6.27-.92.15-.58.32-1.14.49-1.67l2.66-9H464Z"/><path class="cls-2" d="M481.16,99V87.77A5.89,5.89,0,0,0,481,86a2.25,2.25,0,0,0-.57-1,1.81,1.81,0,0,0-.83-.46,4.28,4.28,0,0,0-1-.11,2.72,2.72,0,0,0-1.5.46,4.49,4.49,0,0,0-1.26,1.24,6.71,6.71,0,0,0-.9,1.84,7.17,7.17,0,0,0-.34,2.23V99h-6V68.14h5.94V81.41A6.82,6.82,0,0,1,477,79.68a8.38,8.38,0,0,1,3-.52,9.8,9.8,0,0,1,2.59.35,6.65,6.65,0,0,1,2.26,1.12,5.52,5.52,0,0,1,1.62,2,6.92,6.92,0,0,1,.62,3.11V99Z"/><path class="cls-2" d="M501.36,73.73a2.47,2.47,0,0,1-1,2,4.18,4.18,0,0,1-5,0,2.69,2.69,0,0,1-1.08-2.06,2.44,2.44,0,0,1,1-2.06,4,4,0,0,1,2.61-.84,3.8,3.8,0,0,1,1.33.23,3.45,3.45,0,0,1,1.13.63,3.07,3.07,0,0,1,.76,1A2.42,2.42,0,0,1,501.36,73.73ZM494.61,99V79.16h6V99Z"/><path class="cls-2" d="M507.44,99V67.6h6V99Z"/><path class="cls-2" d="M537.59,84.61a5.13,5.13,0,0,1-.8,2.79,6.72,6.72,0,0,1-2.26,2.13A12.25,12.25,0,0,1,531,90.91a19.49,19.49,0,0,1-4.58.49,5.25,5.25,0,0,1-.54,0l-.73,0A4.15,4.15,0,0,0,526.52,94a4.25,4.25,0,0,0,2.91,1,13.34,13.34,0,0,0,6.63-2V97.7a12.87,12.87,0,0,1-3.26,1.42,14,14,0,0,1-3.54.43,11.66,11.66,0,0,1-4.07-.68,8.36,8.36,0,0,1-3.08-2,8.83,8.83,0,0,1-1.94-3.06,11.32,11.32,0,0,1-.67-4,12.46,12.46,0,0,1,.79-4.53,10.55,10.55,0,0,1,2.2-3.53,9.77,9.77,0,0,1,3.4-2.29,11.4,11.4,0,0,1,4.36-.81,8.26,8.26,0,0,1,5.34,1.62A5.29,5.29,0,0,1,537.59,84.61Zm-6,.45a1.57,1.57,0,0,0-.61-1.24,2.39,2.39,0,0,0-1.56-.52,3.59,3.59,0,0,0-2.57,1.06,5.08,5.08,0,0,0-1.38,2.9,3.87,3.87,0,0,0,.72.09h.66Q531.6,87.35,531.6,85.06Z"/><path class="cls-2" d="M558,99V83.44h-4V79.16h4v-5h5.9v5H569v4.28h-5.08V99Z"/><path class="cls-2" d="M585.15,99V87.77a5.89,5.89,0,0,0-.21-1.74,2.16,2.16,0,0,0-.57-1,1.76,1.76,0,0,0-.83-.46,4.21,4.21,0,0,0-1-.11,2.66,2.66,0,0,0-1.49.46,4.39,4.39,0,0,0-1.27,1.24,6.7,6.7,0,0,0-.89,1.84,7.18,7.18,0,0,0-.35,2.23V99h-6V68.14h5.94V81.41A6.91,6.91,0,0,1,581,79.68a8.38,8.38,0,0,1,3-.52,9.75,9.75,0,0,1,2.59.35,6.7,6.7,0,0,1,2.27,1.12,5.73,5.73,0,0,1,1.62,2,7.06,7.06,0,0,1,.62,3.11V99Z"/><path class="cls-2" d="M615.57,84.61a5.13,5.13,0,0,1-.8,2.79,6.54,6.54,0,0,1-2.26,2.13,12.29,12.29,0,0,1-3.5,1.38,19.58,19.58,0,0,1-4.59.49,5.34,5.34,0,0,1-.54,0l-.73,0A4.15,4.15,0,0,0,604.5,94a4.25,4.25,0,0,0,2.91,1A13.28,13.28,0,0,0,614,93V97.7a12.87,12.87,0,0,1-3.26,1.42,13.88,13.88,0,0,1-3.53.43,11.72,11.72,0,0,1-4.08-.68,8.36,8.36,0,0,1-3.08-2,8.81,8.81,0,0,1-1.93-3.06,11.31,11.31,0,0,1-.68-4,12.46,12.46,0,0,1,.79-4.53,10.55,10.55,0,0,1,2.2-3.53,9.77,9.77,0,0,1,3.4-2.29,11.45,11.45,0,0,1,4.37-.81,8.23,8.23,0,0,1,5.33,1.62A5.29,5.29,0,0,1,615.57,84.61Zm-6,.45a1.59,1.59,0,0,0-.62-1.24,2.36,2.36,0,0,0-1.55-.52,3.58,3.58,0,0,0-2.57,1.06,5,5,0,0,0-1.38,2.9,3.69,3.69,0,0,0,.71.09h.67Q609.59,87.35,609.59,85.06Z"/><path class="cls-2" d="M648.74,93.47a5.68,5.68,0,0,1-1.91,4.5,7.89,7.89,0,0,1-5.36,1.67,22.49,22.49,0,0,1-4.57-.45A13.38,13.38,0,0,1,633.3,98l.77-4.59a15.37,15.37,0,0,0,6.84,2,1.9,1.9,0,0,0,1.41-.43,1.32,1.32,0,0,0,.43-1,1.7,1.7,0,0,0-.34-1.1,5.14,5.14,0,0,0-1.64-1.06,26.44,26.44,0,0,1-3.17-1.62,10.39,10.39,0,0,1-2.16-1.68,5.79,5.79,0,0,1-1.22-1.87,6.32,6.32,0,0,1-.38-2.25A5.08,5.08,0,0,1,636,80a9.59,9.59,0,0,1,5.68-1.55,17.87,17.87,0,0,1,3.35.29,15.83,15.83,0,0,1,3.37,1.15l-.72,4.54a10.66,10.66,0,0,0-3.1-1.23,13.5,13.5,0,0,0-3-.34,2.09,2.09,0,0,0-1.44.38,1.35,1.35,0,0,0-.38,1,1.48,1.48,0,0,0,.61,1.24,13.23,13.23,0,0,0,2.4,1.24,26.55,26.55,0,0,1,2.73,1.55,9.82,9.82,0,0,1,1.84,1.53,4.77,4.77,0,0,1,1,1.67A6,6,0,0,1,648.74,93.47Z"/><path class="cls-2" d="M666.67,98.6a13.87,13.87,0,0,1-3.22.36,10.57,10.57,0,0,1-4-.71,9.74,9.74,0,0,1-3.13-2,8.33,8.33,0,0,1-2-3,10.2,10.2,0,0,1-.73-3.91,12.45,12.45,0,0,1,.66-4.12,8.39,8.39,0,0,1,2-3.24,9.23,9.23,0,0,1,3.28-2.11,12.76,12.76,0,0,1,4.57-.75,10.56,10.56,0,0,1,3.44.47,12.72,12.72,0,0,1,2.23,1l-1,5.17c-.44-.21-.83-.39-1.14-.56a8.37,8.37,0,0,0-.9-.4,4.41,4.41,0,0,0-.95-.23,10.64,10.64,0,0,0-1.23-.07A4.65,4.65,0,0,0,661,85.79a4.5,4.5,0,0,0-1.21,3.32,4.38,4.38,0,0,0,1.26,3.34,5.06,5.06,0,0,0,3.64,1.2,10,10,0,0,0,2.34-.27,13.13,13.13,0,0,0,2.39-.86l.4,4.9A16.35,16.35,0,0,1,666.67,98.6Z"/><path class="cls-2" d="M687.25,99V87.77a5.94,5.94,0,0,0-.2-1.74,2.26,2.26,0,0,0-.58-1,1.78,1.78,0,0,0-.82-.46,4.37,4.37,0,0,0-1-.11,2.66,2.66,0,0,0-1.49.46,4.39,4.39,0,0,0-1.27,1.24A7,7,0,0,0,681,88a7.18,7.18,0,0,0-.35,2.23V99h-6V68.14h5.94V81.41a7,7,0,0,1,2.48-1.73,8.42,8.42,0,0,1,3-.52,9.88,9.88,0,0,1,2.6.35A6.74,6.74,0,0,1,691,80.63a5.73,5.73,0,0,1,1.62,2,7.06,7.06,0,0,1,.62,3.11V99Z"/><path class="cls-2" d="M720.15,89a11.45,11.45,0,0,1-.74,4.26,8.54,8.54,0,0,1-2.11,3.12A9.21,9.21,0,0,1,714,98.31a14.09,14.09,0,0,1-8.46,0,9.25,9.25,0,0,1-3.28-1.93,8.68,8.68,0,0,1-2.12-3.12,12.12,12.12,0,0,1,0-8.42,8.57,8.57,0,0,1,5.36-5,14.32,14.32,0,0,1,8.53,0,8.84,8.84,0,0,1,3.27,1.89,8.26,8.26,0,0,1,2.11,3.09A11.35,11.35,0,0,1,720.15,89Zm-6,0a4.47,4.47,0,0,0-1.2-3.33,4.42,4.42,0,0,0-3.25-1.2,4.17,4.17,0,0,0-3.21,1.2A4.68,4.68,0,0,0,705.39,89a5,5,0,0,0,1.09,3.44,4.11,4.11,0,0,0,3.23,1.21A4.35,4.35,0,0,0,713,92.46,4.73,4.73,0,0,0,714.16,89Z"/><path class="cls-2" d="M745.57,89a11.25,11.25,0,0,1-.74,4.26,8.51,8.51,0,0,1-2.1,3.12,9.21,9.21,0,0,1-3.27,1.93,14.12,14.12,0,0,1-8.47,0,9.21,9.21,0,0,1-3.27-1.93,8.83,8.83,0,0,1-2.13-3.12,11.05,11.05,0,0,1-.76-4.26,10.87,10.87,0,0,1,.74-4.16,8.65,8.65,0,0,1,2.08-3.09,8.9,8.9,0,0,1,3.27-1.93,14.35,14.35,0,0,1,8.54,0,8.84,8.84,0,0,1,3.27,1.89,8.24,8.24,0,0,1,2.1,3.09A11.15,11.15,0,0,1,745.57,89Zm-6,0a4.16,4.16,0,0,0-4.46-4.53,4.15,4.15,0,0,0-3.2,1.2A4.64,4.64,0,0,0,730.81,89a5,5,0,0,0,1.09,3.44,4.13,4.13,0,0,0,3.23,1.21,4.39,4.39,0,0,0,3.3-1.19A4.77,4.77,0,0,0,739.59,89Z"/><path class="cls-2" d="M751.38,99V67.6h6V99Z"/><path class="cls-2" d="M798.22,87.63a13.28,13.28,0,0,1-.78,4.66,9.77,9.77,0,0,1-5.69,5.86,12.09,12.09,0,0,1-4.52.81,22.48,22.48,0,0,1-4.49-.47,20.84,20.84,0,0,1-4.23-1.27V68.1h6V81.47a7,7,0,0,1,2.56-1.73,8.77,8.77,0,0,1,3.27-.58,8.43,8.43,0,0,1,3.22.6,7,7,0,0,1,2.5,1.71,7.76,7.76,0,0,1,1.6,2.67A10.18,10.18,0,0,1,798.22,87.63Zm-6,1.09a4,4,0,0,0-.91-2.75,3.23,3.23,0,0,0-2.54-1,4.38,4.38,0,0,0-1.82.36,4.2,4.2,0,0,0-2.23,2.45,5.12,5.12,0,0,0-.29,1.71v3.42a5.48,5.48,0,0,0,1.42.53,8.9,8.9,0,0,0,1.63.12A4.67,4.67,0,0,0,791,92.28,4.87,4.87,0,0,0,792.24,88.72Z"/><path class="cls-2" d="M817.3,98.42a7.73,7.73,0,0,1-.38-1,11.57,11.57,0,0,1-.25-1.17A8.8,8.8,0,0,1,810.33,99a6.58,6.58,0,0,1-6.26-4.38,8.74,8.74,0,0,1-.49-3c0-1.23,0-2.36.09-3.42s.1-2.06.13-3,0-1.93,0-2.89-.1-2-.22-3.07h6c.09,1,.14,1.93.16,2.84s0,1.82,0,2.72-.05,1.8-.09,2.73-.07,1.91-.07,3a5,5,0,0,0,.28,1.84,2.13,2.13,0,0,0,.73,1,2.28,2.28,0,0,0,.91.37,6.56,6.56,0,0,0,.8.06,4.82,4.82,0,0,0,1-.17,3.13,3.13,0,0,0,1.36-.83,5.65,5.65,0,0,0,1.2-1.9,9.23,9.23,0,0,0,.51-3.39v-8.2h6V92.25a22.25,22.25,0,0,0,.27,3.41,11.08,11.08,0,0,0,.72,2.76Z"/><path class="cls-2" d="M843.94,93.47A5.68,5.68,0,0,1,842,98a7.87,7.87,0,0,1-5.36,1.67,22.39,22.39,0,0,1-4.56-.45,13.38,13.38,0,0,1-3.6-1.22l.76-4.59a15.37,15.37,0,0,0,6.84,2,2,2,0,0,0,1.42-.43,1.35,1.35,0,0,0,.43-1,1.76,1.76,0,0,0-.34-1.1A5.27,5.27,0,0,0,836,91.85a27.43,27.43,0,0,1-3.18-1.62,11,11,0,0,1-2.16-1.68,5.75,5.75,0,0,1-1.21-1.87,6.1,6.1,0,0,1-.38-2.25A5.07,5.07,0,0,1,831.22,80a9.62,9.62,0,0,1,5.69-1.55,17.87,17.87,0,0,1,3.35.29,15.77,15.77,0,0,1,3.36,1.15l-.72,4.54a10.5,10.5,0,0,0-3.09-1.23,13.59,13.59,0,0,0-3-.34,2,2,0,0,0-1.43.38,1.36,1.36,0,0,0-.39,1,1.49,1.49,0,0,0,.62,1.24,12.88,12.88,0,0,0,2.4,1.24,27.67,27.67,0,0,1,2.73,1.55,10.15,10.15,0,0,1,1.84,1.53,4.92,4.92,0,0,1,1,1.67A6,6,0,0,1,843.94,93.47Z"/><path class="cls-2" d="M870.62,73.73a2.47,2.47,0,0,1-1,2,4.18,4.18,0,0,1-5,0,2.69,2.69,0,0,1-1.08-2.06,2.44,2.44,0,0,1,1-2.06,4,4,0,0,1,2.61-.84,3.8,3.8,0,0,1,1.33.23,3.45,3.45,0,0,1,1.13.63,3.07,3.07,0,0,1,.76,1A2.42,2.42,0,0,1,870.62,73.73ZM863.87,99V79.16h6V99Z"/><path class="cls-2" d="M890.92,93.47A5.68,5.68,0,0,1,889,98a7.87,7.87,0,0,1-5.36,1.67,22.32,22.32,0,0,1-4.56-.45A13.59,13.59,0,0,1,875.48,98l.77-4.59a15.37,15.37,0,0,0,6.84,2,2,2,0,0,0,1.42-.43,1.34,1.34,0,0,0,.42-1,1.76,1.76,0,0,0-.33-1.1A5.36,5.36,0,0,0,883,91.85a27.22,27.22,0,0,1-3.17-1.62,11,11,0,0,1-2.16-1.68,5.75,5.75,0,0,1-1.21-1.87,6.1,6.1,0,0,1-.39-2.25A5.08,5.08,0,0,1,878.2,80a9.59,9.59,0,0,1,5.68-1.55,17.9,17.9,0,0,1,3.36.29,15.77,15.77,0,0,1,3.36,1.15l-.72,4.54a10.5,10.5,0,0,0-3.09-1.23,13.66,13.66,0,0,0-3-.34,2,2,0,0,0-1.43.38,1.36,1.36,0,0,0-.39,1,1.46,1.46,0,0,0,.62,1.24A13,13,0,0,0,885,86.77a26.55,26.55,0,0,1,2.73,1.55,9.91,9.91,0,0,1,1.85,1.53,5.08,5.08,0,0,1,1,1.67A6,6,0,0,1,890.92,93.47Z"/><path class="cls-2" d="M917.6,73.73a2.47,2.47,0,0,1-1,2,4.18,4.18,0,0,1-5,0,2.69,2.69,0,0,1-1.08-2.06,2.44,2.44,0,0,1,1-2.06,4,4,0,0,1,2.61-.84,3.8,3.8,0,0,1,1.33.23,3.55,3.55,0,0,1,1.13.63,3.07,3.07,0,0,1,.76,1A2.53,2.53,0,0,1,917.6,73.73ZM910.85,99V79.16h6V99Z"/><path class="cls-2" d="M936.41,99V87.73a4.54,4.54,0,0,0-.29-1.83,2.67,2.67,0,0,0-.7-1,1.69,1.69,0,0,0-.85-.39,4.75,4.75,0,0,0-.77-.07,4.33,4.33,0,0,0-.94.18,3.18,3.18,0,0,0-1.37.82,5.49,5.49,0,0,0-1.24,1.91,8.75,8.75,0,0,0-.54,3.38V99h-6V85.87a22.45,22.45,0,0,0-.27-3.41,11.08,11.08,0,0,0-.72-2.76h6a7.78,7.78,0,0,1,.38,1c.07.27.16.66.25,1.17a9.39,9.39,0,0,1,3.08-2.07,9,9,0,0,1,3.36-.68,6.56,6.56,0,0,1,2.62.53,6.19,6.19,0,0,1,2.09,1.47,6.67,6.67,0,0,1,1.39,2.32,8.86,8.86,0,0,1,.51,3.09V99Z"/><path class="cls-2" d="M989.33,99V89.17a6.42,6.42,0,0,0-.76-3.67,2.42,2.42,0,0,0-2.05-1,3.18,3.18,0,0,0-1.35.32,3.59,3.59,0,0,0-1.22,1,5.64,5.64,0,0,0-.9,2,12.1,12.1,0,0,0-.33,3.07V99h-6V89.17a6.93,6.93,0,0,0-.7-3.56,2.49,2.49,0,0,0-2.31-1.14A3.27,3.27,0,0,0,971.06,86a8.32,8.32,0,0,0-1.12,4.89V99h-6V86.53c0-.73,0-1.39,0-2s-.09-1.16-.16-1.68a12.18,12.18,0,0,0-.32-1.53c-.13-.5-.29-1-.47-1.57h6q.22.69.33,1a8.4,8.4,0,0,1,.25,1,13.94,13.94,0,0,1,3.12-1.92,10.15,10.15,0,0,1,4.1-.74,7,7,0,0,1,3.07.65,4.6,4.6,0,0,1,2,1.82,6.68,6.68,0,0,1,3-1.84,12.44,12.44,0,0,1,3.87-.63A6.44,6.44,0,0,1,993.61,81a7.27,7.27,0,0,1,1.71,5.21V99Z"/><path class="cls-2" d="M1022.09,89a11.45,11.45,0,0,1-.74,4.26,8.51,8.51,0,0,1-2.1,3.12,9.34,9.34,0,0,1-3.28,1.93,14.09,14.09,0,0,1-8.46,0,9.21,9.21,0,0,1-3.27-1.93,8.71,8.71,0,0,1-2.13-3.12,11.05,11.05,0,0,1-.76-4.26,10.87,10.87,0,0,1,.74-4.16,8.65,8.65,0,0,1,2.08-3.09,8.74,8.74,0,0,1,3.27-1.93,14.32,14.32,0,0,1,8.53,0,9,9,0,0,1,3.28,1.89,8.24,8.24,0,0,1,2.1,3.09A11.35,11.35,0,0,1,1022.09,89Zm-6,0a4.47,4.47,0,0,0-1.21-3.33,4.42,4.42,0,0,0-3.25-1.2,4.15,4.15,0,0,0-3.2,1.2,4.64,4.64,0,0,0-1.12,3.33,5,5,0,0,0,1.09,3.44,4.11,4.11,0,0,0,3.23,1.21,4.39,4.39,0,0,0,3.3-1.19A4.77,4.77,0,0,0,1016.11,89Z"/><path class="cls-2" d="M1028,99V83.44h-4V79.16h4v-5h5.89v5H1039v4.28h-5.09V99Z"/><path class="cls-2" d="M1049.54,73.73a2.47,2.47,0,0,1-1,2,4.18,4.18,0,0,1-5,0,2.69,2.69,0,0,1-1.08-2.06,2.44,2.44,0,0,1,1-2.06,4,4,0,0,1,2.61-.84,3.84,3.84,0,0,1,1.33.23,3.4,3.4,0,0,1,1.12.63,3.1,3.1,0,0,1,.77,1A2.53,2.53,0,0,1,1049.54,73.73ZM1042.79,99V79.16h6V99Z"/><path class="cls-2" d="M1075.24,89a11.45,11.45,0,0,1-.74,4.26,8.66,8.66,0,0,1-2.11,3.12,9.21,9.21,0,0,1-3.27,1.93,14.12,14.12,0,0,1-8.47,0,9.21,9.21,0,0,1-3.27-1.93,8.83,8.83,0,0,1-2.13-3.12,12.19,12.19,0,0,1,0-8.42,8.78,8.78,0,0,1,2.08-3.09,8.9,8.9,0,0,1,3.27-1.93,14.35,14.35,0,0,1,8.54,0,8.84,8.84,0,0,1,3.27,1.89,8.37,8.37,0,0,1,2.11,3.09A11.35,11.35,0,0,1,1075.24,89Zm-6,0a4.16,4.16,0,0,0-4.46-4.53,4.15,4.15,0,0,0-3.2,1.2,4.68,4.68,0,0,0-1.11,3.33,5,5,0,0,0,1.09,3.44,4.09,4.09,0,0,0,3.22,1.21,4.36,4.36,0,0,0,3.3-1.19A4.77,4.77,0,0,0,1069.25,89Z"/><path class="cls-2" d="M1093.77,99V87.73a4.54,4.54,0,0,0-.29-1.83,2.56,2.56,0,0,0-.7-1,1.69,1.69,0,0,0-.85-.39,4.75,4.75,0,0,0-.77-.07,4.33,4.33,0,0,0-.94.18,3.18,3.18,0,0,0-1.37.82,5.49,5.49,0,0,0-1.24,1.91,8.75,8.75,0,0,0-.54,3.38V99h-6V85.87a22.45,22.45,0,0,0-.27-3.41,11.08,11.08,0,0,0-.72-2.76h6a7.78,7.78,0,0,1,.38,1,11.57,11.57,0,0,1,.25,1.17,9.39,9.39,0,0,1,3.08-2.07,9,9,0,0,1,3.36-.68,6.53,6.53,0,0,1,2.62.53,6.09,6.09,0,0,1,2.09,1.47,6.67,6.67,0,0,1,1.39,2.32,8.86,8.86,0,0,1,.51,3.09V99Z"/><path class="cls-2" d="M1114,96.19a2.43,2.43,0,0,1-1,2,3.94,3.94,0,0,1-2.49.79,3.83,3.83,0,0,1-2.5-.85,2.6,2.6,0,0,1-.07-4.12,3.58,3.58,0,0,1,2.39-.83,3.93,3.93,0,0,1,2.62.89A2.68,2.68,0,0,1,1114,96.19Z"/></svg>