<svg id="Layer_1" data-name="Layer 1" xmlns="http://www.w3.org/2000/svg" viewBox="0 0 512 400"><defs><style>.cls-1,.cls-18{opacity:0.3;}.cls-2{fill:#393c44;}.cls-3{fill:#dededc;}.cls-4{fill:#a4a5a5;}.cls-5{fill:#dce1e2;}.cls-6{fill:#85a3aa;}.cls-7{fill:#95b5bc;}.cls-16,.cls-17,.cls-18,.cls-19,.cls-21,.cls-8{fill:#fff;}.cls-8{opacity:0.55;}.cls-9{fill:#7f9aa0;}.cls-10{fill:#a5d9e5;opacity:0.71;}.cls-11{fill:#ace2f3;}.cls-12{fill:#7baab2;opacity:0.36;}.cls-13{fill:#bae5f9;}.cls-14{fill:#aad2e0;}.cls-15{fill:#8aaeb7;}.cls-16{opacity:0.25;}.cls-17{opacity:0.47;}.cls-19{opacity:0.26;}.cls-20{fill:#8e8e8a;}.cls-22{fill:#cedbdd;}</style></defs><ellipse class="cls-1" cx="256" cy="325" rx="95" ry="19.5"/><path class="cls-2" d="M193.31,319.16v1.7c0,3,4.13,6.18,11.2,8.51a102.73,102.73,0,0,0,12.48,2.7,223.65,223.65,0,0,0,33.6,3.24c2.7.08,5.45.11,8.24.11,36.19,0,65.53-6.52,65.53-14.56v-1.61Z"/><path class="cls-3" d="M337.16,73l0,.39C337.15,73.28,337.16,73.15,337.16,73Z"/><path class="cls-3" d="M180.53,73.41c0-.13,0-.26,0-.39Z"/><path class="cls-4" d="M337.14,73.41,324.36,317.73c0,8-29.34,14.56-65.53,14.56q-4.18,0-8.24-.11a226.3,226.3,0,0,1-33.6-3.24,96.71,96.71,0,0,1-12.48-3.06c-7.07-2.33-11.2-5.13-11.2-8.15L180.53,73.41s0,.07,0,.11,0,.07,0,.11,0,.07,0,.11l0,.11c0,.07,0,.13,0,.2l0,.13,0,.11a.17.17,0,0,1,0,0s0,0,0,.06l0,.09.06.13h0l0,.07a.2.2,0,0,0,0,.08.36.36,0,0,0,0,.09,2.55,2.55,0,0,0,.23.43l.06.11.21.33a.44.44,0,0,1,.08.11l.17.22.08.09a5.34,5.34,0,0,0,.39.44l.1.11.11.11.16.16.17.16.22.2a1.07,1.07,0,0,1,.16.14l.37.29.14.11.1.08.23.17.42.29.14.09.64.42.11.06.21.13.11.06.67.39.18.09.16.09.14.07,0,0c.18.1.37.2.57.29l.22.11.59.28.18.08.36.17.23.1.6.26.33.14.34.13.34.14.26.1h0l.1,0,.1,0,1.21.45h0l.21.07,1.66.57.28.09.3.09.41.13.33.1h0l1.76.52.24.06.4.12.28.07.27.08.42.11.2,0,.93.24.89.22.07,0,.4.1.48.11.49.12.48.11.5.11,1,.22,1.22.26.35.07.48.1.31.06.15,0,.35.07.5.09.35.07.91.17,1.18.22,1.11.19,1,.17,2.47.39.53.08.42.06.83.12,1.12.16h0l1.19.16h0l1.2.16.63.08,1,.12.24,0,1,.12.9.1.64.07.58.06H225l1.11.12h.1l.62.07H227l.54,0,.32,0,1,.1.66.06.85.07.51.05.64,0,1.33.11h0l.66,0,.68,0,.85.06.52,0,2.95.19.88,0,.75,0,1,.06.69,0h0l.69,0h0l.7,0,.94,0,.84,0,.88,0,1.1,0,.89,0,.45,0,.71,0,1.46,0h.11l1,0,1.08,0h12l1,0H267l1.44,0,.52,0,1.64,0h.19l.37,0,.59,0,.53,0h.07l1.84-.08,1.41-.06L277,90l1.34-.08.75,0,.7,0,.59,0,.53,0,.39,0,.4,0h0l.8,0,.68-.05.68,0,.67,0,.67,0,.61,0,.72-.06,1.32-.12.66-.06,1.27-.12h0l.65-.06.32,0,.32,0,1.19-.12.21,0,1.15-.12.63-.07.62-.08.59-.06.46-.06.67-.08.71-.09h0l.61-.08.81-.11.39,0,.15,0,.45-.06L301,87.7l.58-.09.6-.09.58-.08.54-.08h0l.57-.09,1.14-.18.56-.09.55-.09.51-.09h.05l.55-.09.13,0,.41-.07.54-.1.5-.09h0l1-.18.4-.07.35-.07L311,86l.52-.1.57-.12.45-.09.51-.11.5-.11.77-.17.33-.07.65-.15.32-.07.63-.15.16,0,.16,0,.61-.15.46-.12.47-.11.22-.06.21-.06.44-.11.23-.06.44-.12h0l.36-.1.07,0,.87-.25.37-.1.88-.27.33-.1.06,0,.37-.12.27-.08.37-.12.34-.11h0l.37-.12.39-.14.3-.1.67-.24L326,82l.36-.14.92-.35.3-.12.22-.1.83-.35h0l.22-.1.26-.11.28-.13,0,0,.09,0,.06,0,.06,0,.25-.12.09,0,.1-.05.11,0,.11-.06.21-.1.42-.22.13-.07,0,0h0l.27-.15,0,0,.23-.13.26-.15.12-.07h0l.06,0,.3-.18c.22-.13.43-.26.63-.4l.13-.08.17-.12.14-.1h0l.26-.19c.25-.18.48-.36.7-.54l.22-.19.11-.1.12-.1.2-.2.11-.1.08-.08.15-.16.08-.08.19-.21.18-.21.12-.16h0l.11-.15.08-.11.13-.2.08-.13.12-.2s.05-.09.07-.14l.06-.13s0,0,0-.06a4.07,4.07,0,0,0,.18-.44l0-.1,0-.11h0l.06-.22c0-.08,0-.16.05-.24v0a.59.59,0,0,0,0-.13A1,1,0,0,0,337.14,73.41Z"/><path class="cls-5" d="M330.56,80c-12.13,6.12-39.68,10.4-71.73,10.4-32.36,0-60.15-4.36-72.08-10.59l5,111.27H325.66Z"/><path class="cls-6" d="M191.79,190.7l4.91,107.86c8.72,5.76,33.24,9.92,62.13,9.92s53.39-4.15,62.12-9.91L325.7,190.7Z"/><path class="cls-7" d="M258.7,176.14c-37,0-67,6.55-67,14.64l0,.33c.79,7.93,30.47,14.32,67,14.32s66.17-6.39,67-14.32l0-.33h0C325.68,182.69,295.69,176.14,258.7,176.14Z"/><path class="cls-8" d="M207.85,191.11l0-.33c0-7.49,25.73-13.67,58.93-14.54-2.65-.07-5.33-.1-8.06-.1-37,0-67,6.55-67,14.64l0,.33c.79,7.93,30.47,14.32,67,14.32,2.73,0,5.41,0,8.06-.11C234.05,204.46,208.58,198.45,207.85,191.11Z"/><path class="cls-9" d="M258.82,284.87c-34.32,0-62.15,6.11-62.15,13.64v.31c.74,7.39,28.28,13.34,62.14,13.34s61.41-6,62.14-13.34l0-.31h0C321,291,293.15,284.87,258.82,284.87Z"/><path class="cls-10" d="M304.28,289.21c3.06,1.61,4.75,3.38,4.75,5.24h0v.3c-.74,7.4-28.28,13.34-62.14,13.34-17.95,0-34.12-1.67-45.46-4.34,9.36,4.94,31.53,8.41,57.4,8.41,33.87,0,61.41-6,62.14-13.34l0-.31h0C321,294.92,314.64,291.65,304.28,289.21Z"/><path class="cls-11" d="M263.18,309.69h0Z"/><path class="cls-11" d="M263.86,309.68h0Z"/><path class="cls-11" d="M263.64,309.69h0Z"/><path class="cls-11" d="M262.94,309.68a16,16,0,0,1-3.05-.46A16,16,0,0,0,262.94,309.68Z"/><path class="cls-11" d="M264.07,309.67h0Z"/><path class="cls-11" d="M259.89,309.22l-.3-.07Z"/><path class="cls-11" d="M263.42,309.69h0Z"/><path class="cls-11" d="M265.27,309.42l-.09,0Z"/><path class="cls-11" d="M265.78,309.08l0,0Z"/><path class="cls-11" d="M265.13,309.47l-.1,0Z"/><path class="cls-11" d="M265,309.52l-.12,0Z"/><path class="cls-11" d="M265.61,309.23l-.05,0Z"/><path class="cls-11" d="M265.84,309s0,0,0,0S265.84,309,265.84,309Z"/><path class="cls-11" d="M265.4,309.36l-.08,0Z"/><path class="cls-11" d="M265.51,309.3l-.07,0Z"/><path class="cls-11" d="M265.7,309.16l0,0Z"/><path class="cls-11" d="M264.65,309.59l-.15,0Z"/><path class="cls-11" d="M264.46,309.62l-.15,0Z"/><path class="cls-11" d="M264.27,309.65l-.17,0Z"/><path class="cls-11" d="M264.82,309.56l-.13,0Z"/><path class="cls-11" d="M265.89,308.9s0,0,0,0S265.89,308.91,265.89,308.9Z"/><path class="cls-12" d="M264.69,309.59h0Z"/><path class="cls-12" d="M264.5,309.62h0Z"/><path class="cls-12" d="M263.43,309.69h0Z"/><path class="cls-12" d="M265,309.5l0,0Z"/><path class="cls-12" d="M264.1,309.67h0Z"/><path class="cls-12" d="M264.86,309.55h0Z"/><path class="cls-12" d="M264.31,309.65h0Z"/><path class="cls-12" d="M265.18,309.45l-.05,0Z"/><path class="cls-12" d="M259.89,309.22Z"/><path class="cls-12" d="M263.89,309.68h0Z"/><path class="cls-12" d="M262.94,309.68Z"/><polygon class="cls-12" points="259.59 309.15 259.59 309.15 259.59 309.15 259.59 309.15"/><path class="cls-12" d="M263.66,309.69h0Z"/><path class="cls-12" d="M263.19,309.69h0Z"/><path class="cls-12" d="M265.87,308.94l0,.05Z"/><path class="cls-12" d="M265.82,309l0,.05Z"/><path class="cls-12" d="M265.32,309.4l-.05,0Z"/><path class="cls-12" d="M265.93,308.81a.36.36,0,0,1,0,.09A.36.36,0,0,0,265.93,308.81Z"/><path class="cls-12" d="M265.74,309.12l0,0Z"/><path class="cls-12" d="M265.44,309.33l0,0Z"/><path class="cls-12" d="M265.66,309.19l-.05,0Z"/><path class="cls-12" d="M265.56,309.27l-.05,0Z"/><circle class="cls-13" cx="274.93" cy="294.45" r="5.1"/><path class="cls-14" d="M277.31,289.94a5,5,0,0,1,.59,2.38,5.09,5.09,0,0,1-5.09,5.1,5,5,0,0,1-2.38-.59,5.1,5.1,0,1,0,6.88-6.89Z"/><path class="cls-15" d="M278.9,291.26a5,5,0,0,1,.83,2.78,5.09,5.09,0,0,1-9.06,3.2,5.09,5.09,0,0,0,9.36-2.79A5,5,0,0,0,278.9,291.26Z"/><ellipse class="cls-16" cx="273.14" cy="292.51" rx="2.48" ry="1.78" transform="translate(-126.08 320.72) rotate(-51)"/><ellipse class="cls-17" cx="272.66" cy="291.09" rx="1.13" ry="0.81" transform="translate(-124.16 250.98) rotate(-41.1)"/><circle class="cls-13" cx="232.51" cy="230.51" r="5.1"/><path class="cls-14" d="M234.89,226a5,5,0,0,1,.59,2.38,5.09,5.09,0,0,1-7.47,4.51,5.1,5.1,0,1,0,6.88-6.89Z"/><path class="cls-15" d="M236.49,227.31a5.1,5.1,0,0,1-8.24,6,5.1,5.1,0,1,0,8.24-6Z"/><ellipse class="cls-16" cx="230.72" cy="228.57" rx="2.48" ry="1.78" transform="translate(-92.11 264.05) rotate(-51)"/><path class="cls-17" d="M230.77,227.75a.85.85,0,1,1-1.07-1.22.86.86,0,1,1,1.07,1.22Z"/><circle class="cls-13" cx="296.26" cy="234.2" r="5.1"/><path class="cls-14" d="M298.64,229.69a5,5,0,0,1,.59,2.38,5.1,5.1,0,0,1-5.1,5.1,5,5,0,0,1-2.38-.59,5.1,5.1,0,1,0,6.89-6.89Z"/><path class="cls-15" d="M300.23,231a5,5,0,0,1,.83,2.78A5.1,5.1,0,0,1,292,237a5.1,5.1,0,1,0,8.24-6Z"/><ellipse class="cls-16" cx="294.47" cy="232.26" rx="2.48" ry="1.78" transform="translate(-71.35 314.96) rotate(-51)"/><path class="cls-17" d="M294.52,231.45a.86.86,0,1,1-1.07-1.23.86.86,0,1,1,1.07,1.23Z"/><circle class="cls-13" cx="245.27" cy="259.72" r="5.1"/><path class="cls-14" d="M247.65,255.22a5,5,0,0,1,.59,2.38,5.09,5.09,0,0,1-5.1,5.09,5,5,0,0,1-2.38-.59,5.1,5.1,0,1,0,6.89-6.88Z"/><path class="cls-15" d="M249.24,256.53a5,5,0,0,1,.83,2.79,5.09,5.09,0,0,1-9.07,3.19,5.1,5.1,0,1,0,8.24-6Z"/><ellipse class="cls-16" cx="243.48" cy="257.79" rx="2.48" ry="1.78" transform="translate(-110.09 284.79) rotate(-51)"/><path class="cls-17" d="M243.53,257a.86.86,0,1,1-1.07-1.22.85.85,0,1,1,1.07,1.22Z"/><circle class="cls-13" cx="225.08" cy="280.63" r="5.1"/><path class="cls-14" d="M227.46,276.12a5,5,0,0,1,.59,2.38,5.1,5.1,0,0,1-7.48,4.51,5.1,5.1,0,1,0,6.89-6.89Z"/><path class="cls-15" d="M229.05,277.43a5.1,5.1,0,0,1-8.24,6,5.1,5.1,0,1,0,8.24-6Z"/><ellipse class="cls-16" cx="223.29" cy="278.69" rx="2.48" ry="1.78" transform="translate(-133.82 276.85) rotate(-51)"/><ellipse class="cls-17" cx="222.8" cy="277.26" rx="1.13" ry="0.81" transform="translate(-127.36 214.8) rotate(-41.1)"/><circle class="cls-13" cx="305.21" cy="276.05" r="1.07"/><path class="cls-14" d="M305.71,275.1a1.06,1.06,0,0,1,.12.5,1.07,1.07,0,0,1-1.07,1.07,1.06,1.06,0,0,1-.5-.12,1.07,1.07,0,1,0,1.45-1.45Z"/><path class="cls-15" d="M306,275.38a1.06,1.06,0,0,1-.89,1.65,1.06,1.06,0,0,1-.84-.4,1.07,1.07,0,0,0,2-.58A1,1,0,0,0,306,275.38Z"/><path class="cls-16" d="M305.12,275.88a.39.39,0,1,1-.58-.47.46.46,0,0,1,.62-.17C305.32,275.37,305.3,275.65,305.12,275.88Z"/><path class="cls-17" d="M304.84,275.47a.21.21,0,0,1-.29,0,.22.22,0,0,1,.07-.29c.1-.08.23-.1.29,0S304.94,275.38,304.84,275.47Z"/><circle class="cls-13" cx="302.32" cy="288.83" r="1.07"/><path class="cls-14" d="M302.82,287.88a1.06,1.06,0,0,1,.12.5,1.07,1.07,0,0,1-1.07,1.07,1.06,1.06,0,0,1-.5-.12,1.07,1.07,0,1,0,1.45-1.45Z"/><path class="cls-15" d="M303.15,288.16a1.06,1.06,0,0,1-.89,1.65,1.08,1.08,0,0,1-.84-.39,1.07,1.07,0,0,0,2-.59A1.06,1.06,0,0,0,303.15,288.16Z"/><path class="cls-16" d="M302.23,288.66c-.18.22-.45.3-.61.17a.47.47,0,0,1,0-.64.39.39,0,1,1,.58.47Z"/><path class="cls-17" d="M302,288.25A.18.18,0,1,1,302,288,.21.21,0,0,1,302,288.25Z"/><circle class="cls-13" cx="308.86" cy="260.35" r="1.07"/><path class="cls-14" d="M309.36,259.41a1.06,1.06,0,0,1-1.44,1.44,1.07,1.07,0,1,0,1.44-1.44Z"/><path class="cls-15" d="M309.7,259.68a1.08,1.08,0,0,1-.9,1.66,1.06,1.06,0,0,1-.83-.4,1.07,1.07,0,0,0,2-.59A1.13,1.13,0,0,0,309.7,259.68Z"/><path class="cls-16" d="M308.78,260.18a.46.46,0,0,1-.62.17c-.16-.13-.14-.41,0-.64s.45-.3.61-.17A.47.47,0,0,1,308.78,260.18Z"/><path class="cls-17" d="M308.5,259.78c-.1.08-.23.1-.29,0s0-.19.06-.28.23-.1.29,0A.23.23,0,0,1,308.5,259.78Z"/><circle class="cls-13" cx="313.38" cy="268.44" r="1.07"/><path class="cls-14" d="M313.88,267.49a1.06,1.06,0,0,1,.12.5,1.07,1.07,0,0,1-1.07,1.07,1.06,1.06,0,0,1-.5-.12,1.07,1.07,0,1,0,1.45-1.45Z"/><path class="cls-15" d="M314.21,267.77a1.06,1.06,0,0,1-.89,1.65,1.08,1.08,0,0,1-.84-.39,1.07,1.07,0,0,0,2-.59A1.06,1.06,0,0,0,314.21,267.77Z"/><path class="cls-16" d="M313.29,268.27c-.18.22-.45.3-.61.17a.47.47,0,0,1,0-.64.39.39,0,1,1,.58.47Z"/><path class="cls-17" d="M313,267.86a.18.18,0,1,1,.07-.28A.21.21,0,0,1,313,267.86Z"/><circle class="cls-13" cx="281.41" cy="278.98" r="1.07"/><path class="cls-14" d="M281.91,278a1.06,1.06,0,0,1,.12.5A1.07,1.07,0,0,1,281,279.6a1.06,1.06,0,0,1-.5-.12,1.07,1.07,0,1,0,1.45-1.45Z"/><path class="cls-15" d="M282.24,278.31a1.07,1.07,0,0,1,.17.59,1.06,1.06,0,0,1-1.07,1.06,1.08,1.08,0,0,1-.83-.39,1.07,1.07,0,0,0,2-.59A1.06,1.06,0,0,0,282.24,278.31Z"/><path class="cls-16" d="M281.32,278.81a.39.39,0,1,1,0-.64A.47.47,0,0,1,281.32,278.81Z"/><path class="cls-17" d="M281,278.4a.18.18,0,1,1,.07-.28A.21.21,0,0,1,281,278.4Z"/><circle class="cls-13" cx="285.2" cy="219.32" r="1.07"/><path class="cls-14" d="M285.7,218.38a1.06,1.06,0,0,1-1.44,1.44,1.07,1.07,0,1,0,1.44-1.44Z"/><path class="cls-15" d="M286,218.65a1.08,1.08,0,0,1-.9,1.66,1.09,1.09,0,0,1-.83-.4,1.07,1.07,0,1,0,1.73-1.26Z"/><path class="cls-16" d="M285.12,219.15a.46.46,0,0,1-.62.17.55.55,0,1,1,.62-.17Z"/><path class="cls-17" d="M284.84,218.75a.22.22,0,0,1-.29,0,.25.25,0,0,1,.36-.31A.22.22,0,0,1,284.84,218.75Z"/><circle class="cls-13" cx="242.84" cy="238.37" r="1.07"/><path class="cls-14" d="M243.34,237.43a1.08,1.08,0,0,1-1,1.57,1,1,0,0,1-.49-.13,1,1,0,0,0,.94.57,1.07,1.07,0,0,0,1.07-1.07A1.06,1.06,0,0,0,243.34,237.43Z"/><path class="cls-15" d="M243.67,237.7a1.07,1.07,0,0,1-.89,1.66,1.06,1.06,0,0,1-.83-.4,1.07,1.07,0,0,0,2-.59A1.08,1.08,0,0,0,243.67,237.7Z"/><path class="cls-16" d="M242.76,238.2c-.19.22-.46.3-.62.17a.47.47,0,0,1,0-.64c.19-.22.46-.3.62-.17A.47.47,0,0,1,242.76,238.2Z"/><path class="cls-17" d="M242.47,237.79a.18.18,0,1,1,.07-.28A.21.21,0,0,1,242.47,237.79Z"/><circle class="cls-13" cx="237.44" cy="252.94" r="1.07"/><path class="cls-14" d="M237.94,252a1.19,1.19,0,0,1,.12.5,1.06,1.06,0,0,1-1.57.94,1.07,1.07,0,0,0,.95.57,1.07,1.07,0,0,0,.5-2Z"/><path class="cls-15" d="M238.27,252.27a1.08,1.08,0,0,1-.9,1.66,1.09,1.09,0,0,1-.83-.4,1.07,1.07,0,1,0,1.73-1.26Z"/><path class="cls-16" d="M237.35,252.77a.46.46,0,0,1-.62.17.55.55,0,1,1,.62-.17Z"/><path class="cls-17" d="M237.07,252.37a.22.22,0,0,1-.29,0,.25.25,0,0,1,.36-.31A.22.22,0,0,1,237.07,252.37Z"/><circle class="cls-13" cx="251.48" cy="236.23" r="1.07"/><path class="cls-14" d="M252,235.29a1.19,1.19,0,0,1,.12.5,1.06,1.06,0,0,1-1.57.94,1.07,1.07,0,1,0,1.45-1.44Z"/><path class="cls-15" d="M252.31,235.56a1.08,1.08,0,0,1-.9,1.66,1.09,1.09,0,0,1-.83-.4,1.07,1.07,0,1,0,1.73-1.26Z"/><path class="cls-16" d="M251.39,236.06a.46.46,0,0,1-.62.17.55.55,0,1,1,.62-.17Z"/><path class="cls-17" d="M251.11,235.66a.22.22,0,0,1-.29,0,.25.25,0,0,1,.36-.31A.22.22,0,0,1,251.11,235.66Z"/><circle class="cls-13" cx="285.14" cy="253.18" r="1.07"/><path class="cls-14" d="M285.64,252.24a1.06,1.06,0,0,1-1.44,1.44,1.07,1.07,0,1,0,1.44-1.44Z"/><path class="cls-15" d="M286,252.51a1.08,1.08,0,0,1-.9,1.66,1.06,1.06,0,0,1-.83-.4,1.07,1.07,0,0,0,2-.59A1.13,1.13,0,0,0,286,252.51Z"/><path class="cls-16" d="M285.06,253a.46.46,0,0,1-.62.17c-.16-.13-.14-.41,0-.64s.45-.3.61-.17A.47.47,0,0,1,285.06,253Z"/><path class="cls-17" d="M284.78,252.61c-.1.08-.23.1-.29,0s0-.19.06-.28a.21.21,0,0,1,.29,0C284.91,252.39,284.88,252.52,284.78,252.61Z"/><circle class="cls-13" cx="271.06" cy="216.8" r="1.07"/><path class="cls-14" d="M271.55,215.85a1.07,1.07,0,0,1-1.44,1.45,1.07,1.07,0,0,0,.95.57,1.06,1.06,0,0,0,1.06-1.07A1.07,1.07,0,0,0,271.55,215.85Z"/><path class="cls-15" d="M271.89,216.13a1.07,1.07,0,0,1-1.73,1.25,1.08,1.08,0,0,0,.9.49,1.06,1.06,0,0,0,1.06-1.07A1,1,0,0,0,271.89,216.13Z"/><path class="cls-16" d="M271,216.63a.39.39,0,1,1-.58-.47A.46.46,0,0,1,271,216C271.17,216.12,271.15,216.4,271,216.63Z"/><path class="cls-17" d="M270.69,216.22a.21.21,0,0,1-.29,0,.22.22,0,0,1,.07-.29.21.21,0,0,1,.29,0C270.82,216,270.79,216.13,270.69,216.22Z"/><circle class="cls-13" cx="225.37" cy="254.63" r="1.07"/><path class="cls-14" d="M225.87,253.68a1.07,1.07,0,0,1-1.44,1.45,1.06,1.06,0,0,0,.94.57,1.07,1.07,0,0,0,.5-2Z"/><path class="cls-15" d="M226.21,254a1,1,0,0,1,.17.58,1.07,1.07,0,0,1-1.07,1.07,1,1,0,0,1-.83-.4,1.06,1.06,0,0,0,2-.58A1.08,1.08,0,0,0,226.21,254Z"/><path class="cls-16" d="M225.29,254.46a.39.39,0,1,1-.58-.47.46.46,0,0,1,.62-.17C225.49,254,225.47,254.23,225.29,254.46Z"/><path class="cls-17" d="M225,254.05a.21.21,0,0,1-.29,0,.23.23,0,0,1,.06-.29c.1-.08.23-.1.29,0S225.11,254,225,254.05Z"/><circle class="cls-13" cx="245.88" cy="247.24" r="1.07"/><path class="cls-14" d="M246.38,246.29a1.06,1.06,0,0,1,.12.5,1.06,1.06,0,0,1-1.57.94,1.07,1.07,0,0,0,.95.57,1.07,1.07,0,0,0,.5-2Z"/><path class="cls-15" d="M246.71,246.57a1,1,0,0,1,.18.58,1.07,1.07,0,0,1-1.07,1.07,1.09,1.09,0,0,1-.84-.4,1.07,1.07,0,0,0,2-.58A1,1,0,0,0,246.71,246.57Z"/><path class="cls-16" d="M245.79,247.06c-.18.23-.45.3-.61.17s-.15-.41,0-.64a.47.47,0,0,1,.62-.16A.46.46,0,0,1,245.79,247.06Z"/><path class="cls-17" d="M245.51,246.66c-.1.08-.23.1-.29,0s0-.19.07-.28.23-.1.29,0A.22.22,0,0,1,245.51,246.66Z"/><circle class="cls-13" cx="222.64" cy="238.57" r="1.07"/><path class="cls-14" d="M223.14,237.63a1,1,0,0,1,.13.5,1.08,1.08,0,0,1-1.57.94,1.06,1.06,0,0,0,.94.57,1.07,1.07,0,0,0,1.07-1.07A1.06,1.06,0,0,0,223.14,237.63Z"/><path class="cls-15" d="M223.48,237.9a1.08,1.08,0,0,1-.9,1.66,1.06,1.06,0,0,1-.83-.4,1.07,1.07,0,0,0,2-.59A1.11,1.11,0,0,0,223.48,237.9Z"/><path class="cls-16" d="M222.56,238.4a.39.39,0,1,1-.58-.47c.18-.22.45-.3.61-.17A.47.47,0,0,1,222.56,238.4Z"/><path class="cls-17" d="M222.28,238a.21.21,0,0,1-.29,0,.2.2,0,0,1,.06-.28.21.21,0,0,1,.29,0A.2.2,0,0,1,222.28,238Z"/><circle class="cls-13" cx="239.48" cy="244.71" r="1.07"/><path class="cls-14" d="M240,243.76a1.06,1.06,0,0,1,.12.5,1.07,1.07,0,0,1-1.07,1.07,1.06,1.06,0,0,1-.5-.12,1.07,1.07,0,1,0,1.45-1.45Z"/><path class="cls-15" d="M240.31,244a1,1,0,0,1,.18.58,1.07,1.07,0,0,1-1.91.67,1.07,1.07,0,0,0,2-.58A1,1,0,0,0,240.31,244Z"/><path class="cls-16" d="M239.39,244.54c-.18.22-.45.3-.61.17a.46.46,0,0,1,0-.64.46.46,0,0,1,.62-.17C239.59,244,239.57,244.31,239.39,244.54Z"/><path class="cls-17" d="M239.11,244.13a.21.21,0,0,1-.29,0,.22.22,0,0,1,.07-.29c.1-.08.23-.1.29,0S239.21,244,239.11,244.13Z"/><circle class="cls-13" cx="292.26" cy="275.9" r="2.59"/><path class="cls-14" d="M293.47,273.61a2.59,2.59,0,0,1-3.49,3.5,2.59,2.59,0,1,0,3.49-3.5Z"/><path class="cls-15" d="M294.28,274.28a2.59,2.59,0,0,1-2.17,4,2.57,2.57,0,0,1-2-1,2.59,2.59,0,0,0,4.75-1.41A2.54,2.54,0,0,0,294.28,274.28Z"/><ellipse class="cls-16" cx="291.36" cy="274.92" rx="1.26" ry="0.9" transform="translate(-105.65 328.35) rotate(-51)"/><path class="cls-17" d="M291.38,274.5a.43.43,0,1,1-.54-.62c.24-.21.55-.24.7-.06S291.62,274.29,291.38,274.5Z"/><circle class="cls-13" cx="281.03" cy="231.88" r="2.59"/><path class="cls-14" d="M282.24,229.59a2.58,2.58,0,0,1-2.29,3.79,2.61,2.61,0,0,1-1.21-.3,2.59,2.59,0,1,0,3.5-3.49Z"/><path class="cls-15" d="M283.05,230.26a2.59,2.59,0,0,1-2.17,4,2.57,2.57,0,0,1-2-1,2.58,2.58,0,1,0,4.18-3Z"/><ellipse class="cls-16" cx="280.12" cy="230.9" rx="1.26" ry="0.9" transform="translate(-75.6 303.3) rotate(-51)"/><path class="cls-17" d="M280.15,230.48a.52.52,0,0,1-.71.07.53.53,0,0,1,.17-.69.51.51,0,0,1,.7-.07A.52.52,0,0,1,280.15,230.48Z"/><circle class="cls-13" cx="314.45" cy="221.27" r="2.59"/><path class="cls-14" d="M315.66,219a2.59,2.59,0,0,1-3.5,3.5,2.59,2.59,0,1,0,3.5-3.5Z"/><path class="cls-15" d="M316.46,219.65a2.54,2.54,0,0,1,.42,1.41,2.58,2.58,0,0,1-4.6,1.62,2.58,2.58,0,0,0,4.75-1.41A2.56,2.56,0,0,0,316.46,219.65Z"/><ellipse class="cls-16" cx="313.54" cy="220.29" rx="1.26" ry="0.9" transform="translate(-54.97 325.34) rotate(-51)"/><path class="cls-17" d="M313.56,219.87a.43.43,0,1,1-.54-.62c.24-.2.56-.23.7-.06A.5.5,0,0,1,313.56,219.87Z"/><circle class="cls-13" cx="296.05" cy="294.74" r="2.59"/><path class="cls-14" d="M297.26,292.46a2.59,2.59,0,0,1-3.5,3.49,2.58,2.58,0,0,0,4.87-1.21A2.56,2.56,0,0,0,297.26,292.46Z"/><path class="cls-15" d="M298.06,293.12a2.59,2.59,0,0,1-4.18,3,2.61,2.61,0,0,0,2.17,1.17,2.59,2.59,0,0,0,2-4.21Z"/><path class="cls-16" d="M295.84,294.33a1,1,0,1,1-1.4-1.14,1,1,0,1,1,1.4,1.14Z"/><path class="cls-17" d="M295.16,293.35a.5.5,0,0,1-.7.06c-.15-.17-.08-.47.16-.68a.43.43,0,1,1,.54.62Z"/><circle class="cls-13" cx="259.89" cy="277.26" r="2.59"/><path class="cls-14" d="M261.1,275a2.58,2.58,0,0,1-3.49,3.49A2.58,2.58,0,1,0,261.1,275Z"/><path class="cls-15" d="M261.91,275.64a2.66,2.66,0,0,1,.42,1.42,2.59,2.59,0,0,1-4.6,1.62,2.59,2.59,0,0,0,4.75-1.42A2.64,2.64,0,0,0,261.91,275.64Z"/><ellipse class="cls-16" cx="258.98" cy="276.28" rx="1.26" ry="0.9" transform="translate(-118.71 303.7) rotate(-51)"/><path class="cls-17" d="M259,275.87c-.24.21-.56.24-.7.06s-.08-.47.16-.68a.43.43,0,1,1,.54.62Z"/><circle class="cls-13" cx="275.35" cy="249.52" r="2.59"/><path class="cls-14" d="M276.56,247.24a2.59,2.59,0,0,1-3.5,3.49,2.58,2.58,0,0,0,4.87-1.21A2.56,2.56,0,0,0,276.56,247.24Z"/><path class="cls-15" d="M277.36,247.9a2.55,2.55,0,0,1,.42,1.42,2.58,2.58,0,0,1-2.58,2.58,2.61,2.61,0,0,1-2-1,2.61,2.61,0,0,0,2.17,1.17,2.58,2.58,0,0,0,2.58-2.59A2.56,2.56,0,0,0,277.36,247.9Z"/><ellipse class="cls-16" cx="274.44" cy="248.54" rx="1.26" ry="0.9" transform="translate(-91.42 305.42) rotate(-51)"/><path class="cls-17" d="M274.46,248.13a.52.52,0,0,1-.7.06.5.5,0,0,1,.16-.68.43.43,0,1,1,.54.62Z"/><circle class="cls-13" cx="242.84" cy="232.07" r="2.59"/><path class="cls-14" d="M244.05,229.78a2.6,2.6,0,0,1-3.5,3.5,2.59,2.59,0,1,0,3.5-3.5Z"/><path class="cls-15" d="M244.86,230.45a2.59,2.59,0,0,1-2.17,4,2.57,2.57,0,0,1-2-1,2.58,2.58,0,1,0,4.18-3Z"/><path class="cls-16" d="M242.63,231.66a1,1,0,1,1-1.4-1.14,1,1,0,1,1,1.4,1.14Z"/><path class="cls-17" d="M242,230.67a.52.52,0,0,1-.71.07.53.53,0,0,1,.17-.69.5.5,0,0,1,.7-.06C242.27,230.16,242.19,230.46,242,230.67Z"/><circle class="cls-13" cx="281.41" cy="213.35" r="2.59"/><path class="cls-14" d="M282.61,211.06a2.47,2.47,0,0,1,.3,1.21,2.6,2.6,0,0,1-3.79,2.29,2.59,2.59,0,0,0,4.87-1.21A2.6,2.6,0,0,0,282.61,211.06Z"/><path class="cls-15" d="M283.42,211.73a2.52,2.52,0,0,1,.42,1.41,2.58,2.58,0,0,1-4.6,1.62,2.59,2.59,0,0,0,4.75-1.41A2.54,2.54,0,0,0,283.42,211.73Z"/><ellipse class="cls-16" cx="280.5" cy="212.37" rx="1.26" ry="0.9" transform="translate(-61.06 296.72) rotate(-51)"/><path class="cls-17" d="M280.52,212a.43.43,0,1,1-.54-.62c.24-.21.55-.24.7-.06S280.76,211.74,280.52,212Z"/><path class="cls-18" d="M204.51,325.88c-7.07-2.33-11.2-5.13-11.2-8.15L180.53,73.41c0-.13,0-.26,0-.39,0-3.71,5.23-7.15,14.14-10l.11,2.78.5,13.37.15,4,1.88,50,.25,6.89h0l.28,7.29,5.79,154.37Z"/><path class="cls-19" d="M250.59,55.71V332.18a226.3,226.3,0,0,1-33.6-3.24l-1.14-24-7.33-154.3-.5-10.5v0L207.54,130l-2.1-44.24-.19-4h0l-.88-18.57-.13-2.7C216.5,57.89,232.64,56.13,250.59,55.71Z"/><ellipse class="cls-20" cx="258.74" cy="72.19" rx="78.42" ry="16.69"/><path class="cls-21" d="M180.57,72.46s1.28,16,81.25,16.68c0,0,69.72-1.11,75.29-16.76,0,0,6.2,16.51-75.29,18C261.82,90.42,181.11,91.12,180.57,72.46Z"/><path class="cls-22" d="M258.83,86.59c-20.39,0-39.61-1.74-54.12-4.9a71.9,71.9,0,0,1-16.1-5.14c-4.32-2.17-4.8-3.71-4.85-4v-.15c.05-.62,1-2.07,4.42-3.86,3.64-1.91,9.17-3.72,16-5.24,14.57-3.23,34-5,54.68-5s40.12,1.79,54.69,5c6.81,1.52,12.34,3.33,16,5.24,3.4,1.79,4.37,3.24,4.42,3.86v.15c-.05.31-.53,1.85-4.85,4A71.9,71.9,0,0,1,313,81.69C298.45,84.85,279.23,86.59,258.83,86.59Z"/></svg>