<svg id="Layer_1" data-name="Layer 1" xmlns="http://www.w3.org/2000/svg" xmlns:xlink="http://www.w3.org/1999/xlink" viewBox="0 0 128 35"><defs><style>.cls-1,.cls-3{fill:#b0c2ed;}.cls-1,.cls-5{stroke:#0c4196;stroke-miterlimit:10;stroke-width:5px;}.cls-2{fill:#fffde9;}.cls-4{clip-path:url(#clip-path);}.cls-5{fill:none;}</style><clipPath id="clip-path"><circle class="cls-1" cx="-148" cy="128" r="124.9"/></clipPath></defs><path class="cls-2" d="M60.11,24.52a4.14,4.14,0,0,0,1.79,3,8.31,8.31,0,0,0,5,1.72,8.55,8.55,0,0,0,1.73-.15,6.82,6.82,0,0,0,1.86-.63,7,7,0,0,0,1.61-1.11,7.34,7.34,0,0,0,1.22-1.46,7.87,7.87,0,0,0,1.21-3.42,3.4,3.4,0,0,0,0-.45c0-.15,0-.3,0-.45a7.31,7.31,0,0,0-.06-.91A6.44,6.44,0,0,0,74,18.69a6.06,6.06,0,0,0-1.38-1.94A7.78,7.78,0,0,0,71,15.59a19,19,0,0,0-2.84-1.11c-.41-.14-.78-.26-1.12-.39a6.14,6.14,0,0,1-.84-.39,2.35,2.35,0,0,1-.49-.34.93.93,0,0,1-.19-.28.86.86,0,0,1-.07-.36,1.11,1.11,0,0,1,.1-.44,1.47,1.47,0,0,1,.71-.78,3.64,3.64,0,0,1,1.64-.1c.25,0,.52,0,.83,0,.14,0,.32,0,.47,0h.5l.54,0c.19,0,.37,0,.57-.07a2.6,2.6,0,0,0,1.2-.51.13.13,0,0,0,.09-.07.15.15,0,0,0,.06-.1,1.44,1.44,0,0,0,.15-.84,2.78,2.78,0,0,0-.31-1,5.19,5.19,0,0,0-1.52-1.67,6.4,6.4,0,0,0-2.76-1.12,6.73,6.73,0,0,0-3.27.31,8.56,8.56,0,0,0-.93.42L63,7.08c-.15.1-.29.19-.43.3a6.69,6.69,0,0,0-1.44,1.47,6.81,6.81,0,0,0-1.32,4,6.44,6.44,0,0,0,.42,2.24,6.56,6.56,0,0,0,1.18,2A7.19,7.19,0,0,0,63,18.4a10.83,10.83,0,0,0,1.55.79c1,.42,1.89.68,2.61.94a6,6,0,0,1,1.48.66,1,1,0,0,1,.15.12.47.47,0,0,1,.09.23l0,.11a.76.76,0,0,0,0,.15.75.75,0,0,1,0,.15.75.75,0,0,1,0,.15,2.22,2.22,0,0,1-.12.58,1.89,1.89,0,0,1-.58.91,1.19,1.19,0,0,1-.41.26l-.11.05-.13,0c-.12,0-.23.05-.36.06a4.88,4.88,0,0,1-1.57-.14c-.57-.14-1.16-.34-1.76-.54a3.86,3.86,0,0,0-2.61-.13A1.81,1.81,0,0,0,60.11,24.52Z"/><path class="cls-2" d="M98.49,28.91a2.71,2.71,0,0,0,1.59-1.39,5.29,5.29,0,0,0,.55-2.25c.09-1.74-.11-3.48-.18-5.18,0-.95-.09-1.9-.12-2.84l0-1.41v-1l0-.32.1-1.43q.08-.74.18-1.5a8.3,8.3,0,0,0,.24-2,2.71,2.71,0,0,0-2.72-2.49.48.48,0,0,0-.12,0,.2.2,0,0,0-.11,0,2.46,2.46,0,0,0-1.79,1.34,7.36,7.36,0,0,0-.83,2.25,23.07,23.07,0,0,0-.46,2.86l-.08.75c0,.25,0,.51,0,.75v1.41c0,1.89.16,3.75.26,5.59,0,.92.09,1.84.11,2.75a14.49,14.49,0,0,0,.06,2.55,2,2,0,0,0,1.31,1.49A3.19,3.19,0,0,0,98.49,28.91Z"/><path class="cls-2" d="M97,10.78a3.23,3.23,0,0,0,.77,1.4,1.18,1.18,0,0,0,.56.3l.32,0h.43l.25,0,.5-.07.26-.05.31,0,.64-.05c1,0,1.9-.08,2.87-.09h1.65a2.25,2.25,0,0,0,1.09-.08c.51-.27,1.06-1.16.75-3.12a.45.45,0,0,0,0-.11.81.81,0,0,0,0-.11,2.5,2.5,0,0,0-.9-1.51,2.1,2.1,0,0,0-1.08-.46,13.16,13.16,0,0,0-2.51-.22c-.43,0-.87,0-1.32,0s-.88.06-1.35.1l-1.64.18L97.9,7a1.84,1.84,0,0,0-.64.21,1.64,1.64,0,0,0-.64,1.51A7,7,0,0,0,97,10.78Z"/><path class="cls-2" d="M96.67,19.6a2.7,2.7,0,0,0,.67,1.47,1.3,1.3,0,0,0,1,.43,17.28,17.28,0,0,0,2.24-.26c.84-.07,1.68-.12,2.53-.13.48,0,1,0,1.44,0,.32,0,.64.13,1,0s1-1.1.79-3.07a.49.49,0,0,1,0-.12.52.52,0,0,1,0-.11,2.52,2.52,0,0,0-.77-1.55,1.88,1.88,0,0,0-1-.5,10.6,10.6,0,0,0-2.37-.24,23.15,23.15,0,0,0-2.47.23l-1.25.16a2.67,2.67,0,0,0-1.17.21c-.25.15-.52.54-.62,1.43A7.48,7.48,0,0,0,96.67,19.6Z"/><path class="cls-2" d="M96.32,27.26a2.66,2.66,0,0,0,.62,1.56,1.8,1.8,0,0,0,1.14.58,21.69,21.69,0,0,0,2.93.08c1.12,0,2.28,0,3.48,0,.67,0,1.36-.1,2.05-.18a3.12,3.12,0,0,0,1.37-.31,1.64,1.64,0,0,0,.41-.42,2,2,0,0,0,.26-.69,4,4,0,0,0-.4-2.16.54.54,0,0,0-.05-.11l0-.1a2.88,2.88,0,0,0-1.24-1.26,2,2,0,0,0-.58-.22,2.62,2.62,0,0,0-.54-.06c-.81-.05-1.62-.09-2.48-.09l-2.82,0-1.51,0a3.88,3.88,0,0,0-1.48,0c-.32.1-.72.45-1,1.32A5.94,5.94,0,0,0,96.32,27.26Z"/><path class="cls-2" d="M19.58,9.44a2.53,2.53,0,0,0,1.08,1.49,3.13,3.13,0,0,0,1.59.47c.3,0,.6,0,.93,0h1c.69,0,1.37-.07,2-.09l4.47-.2L33.16,11a5,5,0,0,0,1.59-.1c.75-.28,1.63-1.16,1.42-3.13a.5.5,0,0,0,0-.12.36.36,0,0,0,0-.11,2.26,2.26,0,0,0-1.31-1.5A4.31,4.31,0,0,0,33,5.65,34.93,34.93,0,0,0,29,5.56c-1.39.05-2.75.14-4.11.2l-1,0c-.37,0-.73,0-1.11,0a7.92,7.92,0,0,0-2.12.14,1.78,1.78,0,0,0-1.12,1.42A4.28,4.28,0,0,0,19.58,9.44Z"/><path class="cls-2" d="M42,20.82a3.35,3.35,0,0,0,.51,1.5,1,1,0,0,0,.79.46h.89c.41,0,.82-.07,1.22-.09.88-.05,1.72-.13,2.52-.2.46,0,.9-.08,1.34-.1.28,0,.57.09.83-.11s.72-1.15.43-3.1a.5.5,0,0,0,0-.12s0-.08,0-.11a2.62,2.62,0,0,0-.83-1.5,1.71,1.71,0,0,0-1-.42,9.18,9.18,0,0,0-2-.1c-.64.05-1.24.14-1.83.2l-.43,0h-.29a2,2,0,0,0-.45,0,2.2,2.2,0,0,0-1.12.14c-.24.14-.51.52-.62,1.41A8,8,0,0,0,42,20.82Z"/><path class="cls-2" d="M29,28.32a2.84,2.84,0,0,0,1.55-1.45A5.56,5.56,0,0,0,31,24.59c.09-1.77-.09-3.55-.16-5.31l-.24-5.92-.06-1.65c0-.53,0-1.05,0-1.57,0-.34,0-.7.05-1.05A3.43,3.43,0,0,0,30.51,8a2.7,2.7,0,0,0-3.05-2.14h-.12a.15.15,0,0,0-.1,0,2.53,2.53,0,0,0-1.58,1.63A7.75,7.75,0,0,0,25.15,10c-.07,1-.13,2-.12,2.88s0,1.83,0,2.75c.06,1.9.17,3.8.26,5.71,0,.95.08,1.91.1,2.86a14.22,14.22,0,0,0,.1,2.69,2,2,0,0,0,1.35,1.52A3.18,3.18,0,0,0,29,28.32Z"/><path class="cls-2" d="M75.71,9.44a2.58,2.58,0,0,0,1.09,1.49,3.13,3.13,0,0,0,1.59.47c.3,0,.6,0,.92,0h1c.69,0,1.37-.07,2-.09l4.47-.2L89.3,11a5,5,0,0,0,1.59-.1c.75-.28,1.63-1.16,1.41-3.13a.49.49,0,0,0,0-.12.2.2,0,0,0,0-.11A2.23,2.23,0,0,0,91,6.08a4.31,4.31,0,0,0-1.78-.43,34.93,34.93,0,0,0-4.08-.09c-1.39.05-2.76.14-4.11.2l-1,0c-.37,0-.73,0-1.11,0a7.89,7.89,0,0,0-2.12.14,1.78,1.78,0,0,0-1.12,1.42A4.28,4.28,0,0,0,75.71,9.44Z"/><path class="cls-2" d="M84.94,29a2.9,2.9,0,0,0,1.53-1.52,5.83,5.83,0,0,0,.5-2.34c.07-1.8-.11-3.62-.16-5.42q-.09-3-.11-6c0-1.13,0-2.27,0-3.41a10,10,0,0,0,0-2.19,2.72,2.72,0,0,0-3.05-2.2h-.12a.2.2,0,0,0-.11,0A2.57,2.57,0,0,0,81.8,7.62a8.12,8.12,0,0,0-.51,2.45c0,.49-.06,1-.09,1.46l-.07,1.41c0,1-.06,1.91,0,2.87,0,2,.09,4,.18,6,0,1,.07,2,.1,3a16.29,16.29,0,0,0,.12,2.79,2,2,0,0,0,1.38,1.55A3.09,3.09,0,0,0,84.94,29Z"/><path class="cls-2" d="M44.22,6.72A3,3,0,0,0,43.85,9a8,8,0,0,0,.74,2.1l.2.45.07.19A1.87,1.87,0,0,0,45,12l.12.23.08.15c.23.41.46.82.7,1.23.46.82.94,1.63,1.37,2.47,1,1.86,1.86,3.75,2.65,5.68.45,1.08.86,2.17,1.24,3.27a10.8,10.8,0,0,0,.77,2.15,2.83,2.83,0,0,0,3.61,1.32l.11,0,.09-.06a2.65,2.65,0,0,0,1-2.21,9,9,0,0,0-.37-2.7,41.28,41.28,0,0,0-2.11-6c-.89-2-1.9-3.95-3-5.85l-.8-1.42-.39-.69s0,0,0,0h0v0L50,9.42c-.07-.16-.15-.32-.22-.47A10.93,10.93,0,0,0,48,6.14a2.11,2.11,0,0,0-2-.58A2.81,2.81,0,0,0,44.22,6.72Z"/><path class="cls-2" d="M38.7,28.56a3,3,0,0,0,1.89-1.06,4.59,4.59,0,0,0,.68-1,7.52,7.52,0,0,0,.48-1.09c.63-1.69,1.08-3.46,1.69-5.18.68-1.93,1.43-3.84,2.22-5.74q.68-1.61,1.38-3.21a9.88,9.88,0,0,0,.88-2.12A2.75,2.75,0,0,0,46,5.87a.42.42,0,0,0-.12,0,.23.23,0,0,0-.11,0,2.64,2.64,0,0,0-2.11,1,8.63,8.63,0,0,0-1.46,2.12,57,57,0,0,0-2.56,5.41c-.79,1.93-1.48,3.91-2.13,5.92-.33,1-.64,2-1,3-.14.47-.31.94-.46,1.42a8.18,8.18,0,0,0-.31,1.47,2.06,2.06,0,0,0,.89,1.94A3,3,0,0,0,38.7,28.56Z"/><circle class="cls-3" cx="-148" cy="128" r="124.9"/><circle class="cls-5" cx="-148" cy="128" r="124.9"/></svg>