<svg id="Layer_1" data-name="Layer 1" xmlns="http://www.w3.org/2000/svg" viewBox="0 0 128 35"><defs><style>.cls-1{fill:#fffde9;}</style></defs><path class="cls-1" d="M50,23.82a3.78,3.78,0,0,0,1.63,2.71,7.48,7.48,0,0,0,4.56,1.56A8.46,8.46,0,0,0,57.75,28a6.48,6.48,0,0,0,1.69-.57A6.65,6.65,0,0,0,62,25.05a7.18,7.18,0,0,0,1.1-3.12c0-.13,0-.27,0-.41s0-.27,0-.4a8,8,0,0,0,0-.83,5.76,5.76,0,0,0-.47-1.77,5.53,5.53,0,0,0-1.26-1.76,6.78,6.78,0,0,0-1.52-1.06,16.84,16.84,0,0,0-2.58-1c-.38-.13-.71-.24-1-.36a8.43,8.43,0,0,1-.77-.35,2.4,2.4,0,0,1-.44-.32.66.66,0,0,1-.17-.25.68.68,0,0,1-.07-.32,1.13,1.13,0,0,1,.09-.41,1.35,1.35,0,0,1,.65-.7,3.28,3.28,0,0,1,1.49-.1c.23,0,.48,0,.76,0s.28,0,.42,0h1l.52-.06a2.44,2.44,0,0,0,1.09-.46.27.27,0,0,0,.08-.07.24.24,0,0,0,.06-.09,1.37,1.37,0,0,0,.13-.77,2.37,2.37,0,0,0-.28-.88,4.62,4.62,0,0,0-1.39-1.52,5.57,5.57,0,0,0-2.5-1,6.1,6.1,0,0,0-3,.28,5.93,5.93,0,0,0-.86.38L52.64,8l-.39.27a6.65,6.65,0,0,0-1.31,1.34,6.18,6.18,0,0,0-1.19,3.65,5.72,5.72,0,0,0,.38,2A5.9,5.9,0,0,0,51.21,17a6.63,6.63,0,0,0,1.44,1.22,8.9,8.9,0,0,0,1.4.72c.92.39,1.72.62,2.38.85a5.52,5.52,0,0,1,1.34.6.58.58,0,0,1,.15.12.43.43,0,0,1,.08.2s0,.07,0,.11,0,.09,0,.13a.65.65,0,0,1,0,.14.66.66,0,0,1,0,.14,2.28,2.28,0,0,1-.1.52,1.84,1.84,0,0,1-.53.83,1.24,1.24,0,0,1-.37.24l-.11,0-.12,0a2.61,2.61,0,0,1-.32.06,4,4,0,0,1-1.43-.13c-.52-.12-1-.31-1.6-.49a3.56,3.56,0,0,0-2.38-.12A1.68,1.68,0,0,0,50,23.82Z"/><path class="cls-1" d="M97.07,27.86a2.58,2.58,0,0,0,1.33-1.32,4.9,4.9,0,0,0,.42-1.93c.05-1.49-.06-3,0-4.54,0-1.71.09-3.43.16-5.17L99,13.42l0-.36,0-.35,0-.69c0-.3.07-.6.1-.89s0-.3,0-.45a3.39,3.39,0,0,0,0-.45,2.4,2.4,0,0,0-.65-1.34,2.88,2.88,0,0,0-1.9-.82h-.11a.16.16,0,0,0-.1,0,2.15,2.15,0,0,0-1.58,1.29,4.85,4.85,0,0,0-.44,1.06,8.37,8.37,0,0,0-.21,1.09q-.1.64-.18,1.29c0,.42-.09.81-.12,1.22-.07.81-.13,1.62-.17,2.43-.07,1.7-.09,3.42-.07,5.16,0,.87,0,1.75,0,2.63a10.88,10.88,0,0,0,.15,2.48A1.76,1.76,0,0,0,95.18,28,3,3,0,0,0,97.07,27.86Z"/><path class="cls-1" d="M108.49,26.5a2.65,2.65,0,0,0,.31-1,3.24,3.24,0,0,0,0-.89,5.48,5.48,0,0,0-.8-1.89c-.81-1.32-1.76-2.63-2.6-4-.94-1.57-1.86-3.21-2.83-4.85-.28-.47-.55-.94-.84-1.39l-.83-1.35a8.38,8.38,0,0,0-1.1-1.72,2.49,2.49,0,0,0-3.44-.25l-.09.06a.19.19,0,0,0-.06.07,2.34,2.34,0,0,0-.39,2.08,7.46,7.46,0,0,0,.8,2.16c.2.4.41.8.62,1.19s.41.75.61,1.12c.41.74.81,1.5,1.24,2.26.89,1.57,1.84,3.17,2.86,4.77.51.8,1,1.6,1.6,2.4a11,11,0,0,0,1.68,2.18,1.83,1.83,0,0,0,1.92.39A2.78,2.78,0,0,0,108.49,26.5Z"/><path class="cls-1" d="M106.1,8.25a2.42,2.42,0,0,0-1.4,1.26,4.39,4.39,0,0,0-.43,1.91c-.06,1.46.09,2.95.13,4.43,0,1.67.07,3.34.1,5,0,.94,0,1.89.07,2.84,0,.32,0,.63,0,.94a3.34,3.34,0,0,0,.14.94,2.32,2.32,0,0,0,.9,1.24,2.67,2.67,0,0,0,2,.35l.1,0,.1,0a2.27,2.27,0,0,0,1.3-1.48,6.12,6.12,0,0,0,.34-2c.09-1.53.13-3.06.12-4.6s-.08-3.22-.14-4.86l-.09-2.45c0-.38,0-.78,0-1.16a5.29,5.29,0,0,0-.12-1.13A1.72,1.72,0,0,0,108,8.21,3,3,0,0,0,106.1,8.25Z"/><path class="cls-1" d="M29.74,25.46a2.66,2.66,0,0,0,.32-2,6.8,6.8,0,0,0-.66-1.78l-.1-.19-.08-.18-.06-.13a1.82,1.82,0,0,0-.13-.28l-.13-.23-.07-.13-.63-1c-.42-.69-.85-1.38-1.24-2.08-.88-1.57-1.69-3.17-2.41-4.8-.41-.92-.79-1.85-1.13-2.78A9,9,0,0,0,22.72,8a2.83,2.83,0,0,0-1.2-1,2.65,2.65,0,0,0-2.07,0l-.1,0-.08.05a2.32,2.32,0,0,0-.87,1.94,7.29,7.29,0,0,0,.35,2.34,33.93,33.93,0,0,0,1.94,5.12c.8,1.71,1.73,3.35,2.68,5l.73,1.2.19.3.09.15s.08.13.06.09h0l0,0,.05.11c.06.13.13.27.2.4a9.06,9.06,0,0,0,1.67,2.38,1.86,1.86,0,0,0,1.79.4A2.66,2.66,0,0,0,29.74,25.46Z"/><path class="cls-1" d="M34.78,7a2.69,2.69,0,0,0-1.71.85,3.82,3.82,0,0,0-.62.83,6.29,6.29,0,0,0-.43.91C31.45,11,31,12.48,30.48,14c-.61,1.63-1.3,3.25-2,4.86-.4.91-.82,1.81-1.25,2.71a8,8,0,0,0-.79,1.8,2.45,2.45,0,0,0,1.73,2.93.23.23,0,0,0,.1,0,.18.18,0,0,0,.1,0,2.29,2.29,0,0,0,1.91-.76,7.49,7.49,0,0,0,1.32-1.77,46.79,46.79,0,0,0,2.32-4.58c.72-1.63,1.35-3.32,1.94-5q.45-1.27.87-2.58c.13-.4.28-.8.42-1.21a6.86,6.86,0,0,0,.29-1.25,1.81,1.81,0,0,0-.8-1.71A2.9,2.9,0,0,0,34.78,7Z"/><path class="cls-1" d="M44.13,27.3A2.56,2.56,0,0,0,45.53,26a4.83,4.83,0,0,0,.5-2c.1-1.55,0-3.13,0-4.71,0-1.77,0-3.56,0-5.36,0-1,0-2-.08-3.06a7.53,7.53,0,0,0-.18-2,3.12,3.12,0,0,0-.35-.71,2.36,2.36,0,0,0-.61-.61,2.49,2.49,0,0,0-2-.31.23.23,0,0,0-.11,0l-.09,0a2.36,2.36,0,0,0-1.25,1.6,5.41,5.41,0,0,0-.22,1c0,.34-.06.68-.07,1-.06,1.6-.12,3.2-.13,4.82s0,3.39,0,5.12c0,.87,0,1.74,0,2.61A12.76,12.76,0,0,0,41,26a1.8,1.8,0,0,0,1.25,1.37A2.9,2.9,0,0,0,44.13,27.3Z"/><path class="cls-1" d="M69.28,27.46a2.62,2.62,0,0,0,1.24-1.39,3.77,3.77,0,0,0,.27-.95,6.42,6.42,0,0,0,.07-1c0-1.47-.11-3-.1-4.52,0-1.72.1-3.48.16-5.27,0-1,0-2,.06-3a7.29,7.29,0,0,0-.09-2,3.26,3.26,0,0,0-.31-.73A2.56,2.56,0,0,0,70,7.91a2.49,2.49,0,0,0-2-.38l-.11,0a.19.19,0,0,0-.09,0,2.38,2.38,0,0,0-1.31,1.53,4.85,4.85,0,0,0-.26,1c-.06.34-.1.68-.13,1-.14,1.58-.27,3.18-.35,4.83s-.1,3.46-.07,5.25l0,1.35.06,1.36c0,.42,0,.85,0,1.29a6.2,6.2,0,0,0,.2,1.28,1.79,1.79,0,0,0,1.4,1.26A2.94,2.94,0,0,0,69.28,27.46Z"/><path class="cls-1" d="M79.57,12a21.72,21.72,0,0,0,2.55.61,6.82,6.82,0,0,1,2.51,1.07,2.51,2.51,0,0,1,.47.45l.1.12.1.14.08.13a.56.56,0,0,0,.05.08c0,.11.09.21.15.37s.1.31.15.46a7.89,7.89,0,0,1,.23,1,7.35,7.35,0,0,1-.3,3.85,5,5,0,0,1-1,1.69,4.16,4.16,0,0,1-.71.62,3.18,3.18,0,0,1-.75.42,2.24,2.24,0,0,1-1.4.08,3.32,3.32,0,0,1-.77-.32l-.2-.12-.09-.07-.09-.06h0l-.06-.06-.19-.18a7.1,7.1,0,0,1-1.91-4.39,6.89,6.89,0,0,1,.09-1.58c.08-.51.21-1,.32-1.47l.29-1.07a2.86,2.86,0,0,1,.07-.28c0-.09,0-.19.08-.28s0-.06,0-.09a.25.25,0,0,1,0-.09,1.2,1.2,0,0,1,0-.19,4.83,4.83,0,0,0,.31-1.11,1.85,1.85,0,0,0-.19-1.18.35.35,0,0,0-.15-.16,1.55,1.55,0,0,0-.81-.23,2.13,2.13,0,0,0-.5,0l-.27.06-.14,0a.52.52,0,0,0-.16.06,2.41,2.41,0,0,0-.33.15,2,2,0,0,0-.32.21l-.07.06-.07.05-.12.09-.24.19a5.6,5.6,0,0,0-.43.41,5.06,5.06,0,0,0-.39.43A7.84,7.84,0,0,0,74,14.48a10.33,10.33,0,0,0-.46,3A12.36,12.36,0,0,0,74,20.91a11.76,11.76,0,0,0,1.46,3.24,12.11,12.11,0,0,0,1.14,1.45l.32.34.36.33.12.11.14.11.24.17c.13.09.26.19.4.27a8.13,8.13,0,0,0,1.85.89,7.24,7.24,0,0,0,2.15.39,7.52,7.52,0,0,0,2.28-.3,8.58,8.58,0,0,0,1-.39l.49-.25c.16-.08.3-.17.45-.26a9.56,9.56,0,0,0,2.88-2.78,11.08,11.08,0,0,0,1.54-3.5,12.51,12.51,0,0,0,.35-3.64,13.32,13.32,0,0,0-.65-3.54c0-.15-.1-.29-.16-.43l0-.11,0-.12-.1-.24c-.06-.15-.16-.34-.25-.51s-.19-.32-.28-.48a7.59,7.59,0,0,0-1.38-1.61,8.33,8.33,0,0,0-3.36-1.83,7.72,7.72,0,0,0-3.63-.13,5,5,0,0,0-2,.91,2.3,2.3,0,0,0-.94,1.5,1.14,1.14,0,0,0,.36.92A2.57,2.57,0,0,0,79.57,12Z"/></svg>