<svg id="Layer_1" data-name="Layer 1" xmlns="http://www.w3.org/2000/svg" xmlns:xlink="http://www.w3.org/1999/xlink" width="619.88" height="562.43" viewBox="0 0 619.88 562.43">
  <defs>
    <style>
      .cls-1, .cls-36 {
        fill: none;
      }

      .cls-2 {
        opacity: 0.2;
      }

      .cls-3 {
        fill: #0fba98;
        stroke: #fff;
        stroke-width: 5px;
      }

      .cls-12, .cls-15, .cls-16, .cls-17, .cls-19, .cls-21, .cls-23, .cls-24, .cls-25, .cls-3, .cls-30, .cls-31, .cls-33, .cls-36, .cls-54, .cls-8, .cls-9 {
        stroke-miterlimit: 10;
      }

      .cls-4 {
        clip-path: url(#clip-path);
      }

      .cls-5 {
        fill: #81ddda;
      }

      .cls-6 {
        fill: #823f20;
      }

      .cls-7 {
        fill: #c58035;
      }

      .cls-11, .cls-8 {
        fill: #3096d2;
      }

      .cls-8 {
        stroke: #2c3581;
      }

      .cls-17, .cls-36, .cls-8 {
        stroke-width: 0.5px;
      }

      .cls-9 {
        fill: #864a30;
        stroke: #68321e;
      }

      .cls-16, .cls-19, .cls-23, .cls-24, .cls-25, .cls-30, .cls-31, .cls-33, .cls-54, .cls-9 {
        stroke-width: 1px;
      }

      .cls-10 {
        fill: #2c3581;
      }

      .cls-12 {
        fill: #fe66ca;
      }

      .cls-12, .cls-15 {
        stroke: #af1086;
        stroke-width: 0.75px;
      }

      .cls-13 {
        fill: #fffa71;
      }

      .cls-14 {
        fill: #cc0098;
      }

      .cls-15 {
        fill: #e852bb;
      }

      .cls-16 {
        fill: #191512;
        stroke: #301d10;
      }

      .cls-17 {
        fill: #fdd3ca;
      }

      .cls-17, .cls-36 {
        stroke: #af8680;
      }

      .cls-18 {
        fill: #e3ae9f;
      }

      .cls-19, .cls-37 {
        fill: #f9dad2;
      }

      .cls-19 {
        stroke: #4c2606;
      }

      .cls-20 {
        fill: #342516;
      }

      .cls-21 {
        fill: #e94e41;
        stroke: #874a46;
        stroke-width: 0.25px;
      }

      .cls-22 {
        fill: #b26b51;
      }

      .cls-23 {
        fill: #e7d760;
        stroke: #baa73b;
      }

      .cls-24, .cls-26 {
        fill: #f9f6f2;
      }

      .cls-24 {
        stroke: #323232;
      }

      .cls-25, .cls-27 {
        fill: #3d2d16;
      }

      .cls-25 {
        stroke: #3d2d16;
      }

      .cls-28 {
        fill: #f58778;
      }

      .cls-29 {
        fill: #7a2f2b;
      }

      .cls-30, .cls-41 {
        fill: #de97fc;
      }

      .cls-30 {
        stroke: #453323;
      }

      .cls-31 {
        fill: #2455a3;
        stroke: #2d2b7a;
      }

      .cls-32 {
        fill: #f8e1db;
      }

      .cls-33 {
        fill: #f7f7f7;
        stroke: #7f7d73;
      }

      .cls-34 {
        opacity: 0.52;
      }

      .cls-35 {
        fill: #7f7d73;
      }

      .cls-38 {
        fill: #4c2606;
      }

      .cls-39 {
        fill: #ee7bae;
      }

      .cls-40 {
        fill: #633954;
      }

      .cls-42 {
        fill: #453323;
      }

      .cls-43 {
        fill: #f4c3a2;
      }

      .cls-44, .cls-48 {
        fill: #6d6e70;
      }

      .cls-44 {
        opacity: 0.38;
      }

      .cls-45, .cls-52, .cls-54 {
        fill: #fff;
      }

      .cls-46 {
        fill: #394c60;
      }

      .cls-47 {
        fill: url(#linear-gradient);
      }

      .cls-49 {
        fill: #e25333;
      }

      .cls-50 {
        fill: #8eea68;
      }

      .cls-51 {
        fill: #a9cdec;
      }

      .cls-51, .cls-52, .cls-53 {
        fill-rule: evenodd;
      }

      .cls-53 {
        fill: #ccf5ff;
      }

      .cls-54 {
        stroke: #b2cbff;
      }
    </style>
    <clipPath id="clip-path">
      <path class="cls-1" d="M302.47,517.78c-147.19,0-266.5-107.91-266.5-241s119.31-241,266.5-241S569,143.66,569,276.76,449.65,517.78,302.47,517.78Z"/>
    </clipPath>
    <linearGradient id="linear-gradient" x1="-2498.8" y1="1120.38" x2="-2527.79" y2="1085.74" gradientTransform="matrix(0.66, 0.75, -0.75, 0.66, 2787.09, 1578.58)" gradientUnits="userSpaceOnUse">
      <stop offset="0" stop-color="#fff"/>
      <stop offset="0.99" stop-color="#e5e5e3"/>
    </linearGradient>
  </defs>
  <g>
    <path class="cls-2" d="M312.24,534.59c-152.14,0-274.56-113.82-274.56-254.22S161,27.84,313.15,27.84c150.37,0,273.47,112.13,273.47,252.53S464.37,534.59,312.24,534.59Z"/>
    <g>
      <path class="cls-3" d="M302.47,520.15c-148.68,0-269.2-109-269.2-243.39S153.79,33.38,302.47,33.38s269.2,109,269.2,243.38S451.14,520.15,302.47,520.15Z"/>
      <g class="cls-4">
        <g>
          <ellipse class="cls-5" cx="281.2" cy="270.71" rx="314.48" ry="273.03"/>
          <g>
            <path class="cls-6" d="M90.94,258.41l26.22,153.77,114.1-10.42-6.79-172S101.43,201.47,90.94,258.41Z"/>
            <path class="cls-7" d="M104,257.85l26.22,153.77L244.28,401.2l-6.79-172S114.44,200.91,104,257.85Z"/>
          </g>
          <g>
            <path class="cls-6" d="M351.78,241.5,378,395.27l114.1-10.42-6.79-172S362.27,184.56,351.78,241.5Z"/>
            <path class="cls-7" d="M364.79,240.94,391,394.71l114.11-10.42L501,231c-.35-9.06-9.08-20.14-18-21.59C449.55,204,373,196.55,364.79,240.94Z"/>
          </g>
          <g>
            <path class="cls-8" d="M174.32,388.83l96.21-6.45c4.28,7.65,42.57,85.62,37.56,93.68-4.64,7.48-64.13,22-121.86,16.32s-53.14-18.44-53.14-18.44,37.18-85,35.32-87.09"/>
            <path class="cls-9" d="M270.46,369.2V380s-14.12,20.08-49.34,19.26-53.64-8.76-53.64-8.76l1.82-7.65Z"/>
            <path class="cls-8" d="M206.67,385.27s0,0,0,0c-.17.52-.64,11.71-.66,12.31a0,0,0,0,0,0,0l4.55,1.18s0,0,.05,0l.74-12.79C211.48,385.74,207,385.33,206.67,385.27Z"/>
            <path class="cls-8" d="M246.34,384.77c-.56,0-4,1-4,1-.16,0,0,13.6,0,13.6l5.08-1.07Z"/>
            <path class="cls-10" d="M183,415.42c-.63.07-1.27.12-1.9.17l.14-.12a21.84,21.84,0,0,1-1.84,6,22.34,22.34,0,0,1-3.49,5.27,20.24,20.24,0,0,1-4.87,4,16.23,16.23,0,0,1-5.87,2.14,22,22,0,0,0,5.48-2.76,25.29,25.29,0,0,0,4.52-4.06,26.67,26.67,0,0,0,3.46-5,28.14,28.14,0,0,0,2.32-5.67l0-.12h.11C181.72,415.33,182.35,415.36,183,415.42Z"/>
            <g>
              <path class="cls-11" d="M256.42,403.94s-1.88-4.82-.87-2.41,24.31,97,24.31,97"/>
              <path class="cls-10" d="M256.19,404c-.39-1-.78-2-1.16-3.06v0c.13.17-.34-.31.43-.22,0,.06,0,.06.05.08l0,.1.08.19.16.38.23.79c.16.54.3,1.06.44,1.58l1.62,6.3,3.17,12.62L267.48,448l12.38,50.53-12.62-50.46-6.37-25.22-3.22-12.6L256,404c-.14-.53-.28-1.05-.44-1.55l-.23-.77-.15-.37-.08-.18,0-.09s0,0,0,0c.75.07.3-.36.43-.19v0c.37,1,.77,2,1.17,3Z"/>
            </g>
            <g>
              <path class="cls-11" d="M232.25,406.83s-1.14-5.05-.51-2.51S241.19,504,241.19,504"/>
              <path class="cls-10" d="M232,406.89c-.23-1.07-.47-2.11-.68-3.2v0c.17.1-.4-.21.46-.16a.42.42,0,0,1,0,.09l0,.1,0,.2.1.4.11.82c.08.55.14,1.1.19,1.63l.66,6.48,1.23,13,2.38,25.92L241.19,504l-4.89-51.83-2.5-25.91-1.29-12.95-.69-6.46c-.06-.54-.12-1.08-.2-1.6l-.11-.79-.09-.4,0-.19,0-.09s0-.05,0,0c.85,0,.29-.23.45-.12v0c.2,1,.46,2.11.69,3.16Z"/>
            </g>
            <g>
              <path class="cls-11" d="M199.4,407s-.11-5.18,0-2.56-10.52,99.52-10.52,99.52"/>
              <path class="cls-10" d="M199.15,407c0-1.09,0-2.16,0-3.27v0c.14-.08-.32.11.33-.23.3.34.09.14.16.22v.75l0,.83c0,.56-.08,1.1-.13,1.64l-.64,6.48-1.37,12.94-2.81,25.88-5.75,51.74,5.5-51.77,2.69-25.89,1.3-12.95.61-6.47c0-.54.1-1.08.13-1.61l0-.8,0-.4v-.31c.06.06-.15-.16.15.17.64-.35.18-.13.32-.19v0c0,1.06,0,2.16.05,3.24Z"/>
            </g>
          </g>
          <g>
            <g>
              <g>
                <g>
                  <path class="cls-12" d="M296.18,115c3.41-6,10.74-9.22.82-13s-24.15,4.16-24.15,4.16,1.86,14,11.79,17.72S292.77,121.05,296.18,115Z"/>
                  <path class="cls-12" d="M249.12,97.25c3.41-6,1.62-12.67,11.54-8.92s11.79,17.72,11.79,17.72-14.22,7.91-24.15,4.16S245.71,103.29,249.12,97.25Z"/>
                </g>
                <ellipse class="cls-13" cx="252.47" cy="106.4" rx="1.67" ry="1.41" transform="translate(-11.9 34.5) rotate(-7.64)"/>
                <ellipse class="cls-13" cx="259.69" cy="106.62" rx="1.67" ry="1.41" transform="matrix(0.99, -0.13, 0.13, 0.99, -11.87, 35.46)"/>
                <ellipse class="cls-13" cx="256.87" cy="98.59" rx="1.67" ry="1.41" transform="translate(-10.83 35.02) rotate(-7.64)"/>
                <path class="cls-13" d="M265.84,98.82a1.28,1.28,0,0,0-.76-1.86,1.86,1.86,0,0,0-2.24.73,1.3,1.3,0,0,0,.77,1.87A1.86,1.86,0,0,0,265.84,98.82Z"/>
                <ellipse class="cls-13" cx="259.81" cy="93.39" rx="1.67" ry="1.41" transform="translate(-10.11 35.36) rotate(-7.64)"/>
                <path class="cls-13" d="M264.44,107.76a1.84,1.84,0,0,1,2.23-.73,1.43,1.43,0,0,1,.86.82c-.93.38-2,.77-3.09,1.14A1.23,1.23,0,0,1,264.44,107.76Z"/>
                <path class="cls-13" d="M257.73,110a1.52,1.52,0,0,1,.68.49,26.18,26.18,0,0,1-2.93.29s0,0,0,0A1.84,1.84,0,0,1,257.73,110Z"/>
                <path class="cls-13" d="M265.78,92.49l0,0a18.05,18.05,0,0,1,1.62,2,1.86,1.86,0,0,1-.87-.11A1.29,1.29,0,0,1,265.78,92.49Z"/>
                <path class="cls-13" d="M269.61,101.82a1.28,1.28,0,0,1-.76-1.86,1.71,1.71,0,0,1,1.11-.8c.39.94.7,1.85,1,2.67A1.93,1.93,0,0,1,269.61,101.82Z"/>
                <path class="cls-13" d="M249.43,102.1a1.84,1.84,0,0,1-2.23.73,1.38,1.38,0,0,1-.89-.92c.47-.56,1-1.15,1.48-1.78a2,2,0,0,1,.88.1A1.29,1.29,0,0,1,249.43,102.1Z"/>
                <path class="cls-13" d="M245.73,105.44a1.28,1.28,0,0,1,.76,1.86,1.68,1.68,0,0,1-1.05.78,2.65,2.65,0,0,1-1.33-2.51A1.91,1.91,0,0,1,245.73,105.44Z"/>
                <path class="cls-13" d="M253.07,92.43a1.28,1.28,0,0,1,.77,1.86,1.87,1.87,0,0,1-2.23.74,1.49,1.49,0,0,1-.67-.49c.25-.71.48-1.41.69-2.06A1.89,1.89,0,0,1,253.07,92.43Z"/>
                <path class="cls-13" d="M256.78,89.09a1.86,1.86,0,0,1-2.24.73,1.37,1.37,0,0,1-.92-1.07,4,4,0,0,1,3.22-.79A1.26,1.26,0,0,1,256.78,89.09Z"/>
                <ellipse class="cls-13" cx="285.47" cy="118.85" rx="1.67" ry="1.41" transform="translate(-13.26 39) rotate(-7.64)"/>
                <ellipse class="cls-13" cx="280.94" cy="113.99" rx="1.67" ry="1.41" transform="translate(-12.66 38.35) rotate(-7.64)"/>
                <ellipse class="cls-13" cx="289.88" cy="111.05" rx="1.67" ry="1.41" transform="translate(-12.19 39.51) rotate(-7.64)"/>
                <path class="cls-13" d="M283.85,105.62a1.86,1.86,0,0,1,2.23-.74,1.3,1.3,0,0,1,.77,1.87,1.86,1.86,0,0,1-2.24.73A1.28,1.28,0,0,1,283.85,105.62Z"/>
                <ellipse class="cls-13" cx="292.82" cy="105.84" rx="1.67" ry="1.41" transform="translate(-11.47 39.86) rotate(-7.64)"/>
                <path class="cls-13" d="M276.44,112.29a1.3,1.3,0,0,0-.77-1.87,1.93,1.93,0,0,0-1.32,0,28.15,28.15,0,0,0,.95,2.67A1.73,1.73,0,0,0,276.44,112.29Z"/>
                <path class="cls-13" d="M278.74,117.89a1.9,1.9,0,0,0-.91-.1,17.35,17.35,0,0,0,1.64,2l0,0A1.29,1.29,0,0,0,278.74,117.89Z"/>
                <path class="cls-13" d="M289.79,101.54v0a28.17,28.17,0,0,0-2.9.28,1.57,1.57,0,0,0,.66.48A1.88,1.88,0,0,0,289.79,101.54Z"/>
                <path class="cls-13" d="M278.61,105.22a1.88,1.88,0,0,0,2.24-.74,1.22,1.22,0,0,0,0-1.2c-1.13.36-2.17.76-3.1,1.13A1.42,1.42,0,0,0,278.61,105.22Z"/>
                <path class="cls-13" d="M291.44,118a1.3,1.3,0,0,0,.77,1.87,1.91,1.91,0,0,0,1.43,0c.22-.66.44-1.35.7-2.07a1.42,1.42,0,0,0-.66-.48A1.86,1.86,0,0,0,291.44,118Z"/>
                <path class="cls-13" d="M290.74,122.42a1.89,1.89,0,0,0-2.24.73,1.26,1.26,0,0,0,0,1.16,4,4,0,0,0,3.2-.8A1.35,1.35,0,0,0,290.74,122.42Z"/>
                <path class="cls-13" d="M298.09,109.41a1.89,1.89,0,0,0-2.24.73,1.29,1.29,0,0,0,.77,1.87,1.77,1.77,0,0,0,.88.1c.5-.62,1-1.21,1.47-1.77A1.38,1.38,0,0,0,298.09,109.41Z"/>
                <path class="cls-13" d="M298.79,104.94a1.29,1.29,0,0,0,.76,1.87,1.94,1.94,0,0,0,1.6-.13,2.67,2.67,0,0,0-1.35-2.51A1.72,1.72,0,0,0,298.79,104.94Z"/>
              </g>
              <g>
                <g>
                  <g>
                    <path class="cls-14" d="M255.32,102.73c.69-2.56,10.85,1.74,10.85,1.74S254.62,105.29,255.32,102.73Z"/>
                    <path class="cls-14" d="M260.58,98.1c1.38-1.35,6.87,5,6.87,5S259.21,99.45,260.58,98.1Z"/>
                  </g>
                  <g>
                    <path class="cls-14" d="M287,114.7c1.93-2.09-8.66-5.62-8.66-5.62S285.11,116.79,287,114.7Z"/>
                    <path class="cls-14" d="M287.93,108.42c.37-1.73-9.08-1-9.08-1S287.57,110.15,287.93,108.42Z"/>
                  </g>
                </g>
                <path class="cls-15" d="M269,102.85a3.32,3.32,0,0,1,4-1.31l3.67,1.39a2.28,2.28,0,0,1,1.36,3.31l-1.79,3.19a3.32,3.32,0,0,1-4,1.3l-3.68-1.38a2.3,2.3,0,0,1-1.36-3.32Z"/>
              </g>
            </g>
            <g>
              <path class="cls-16" d="M273.22,253.57s4.25,31.94-16.38,35.65c-8.1,1.46-23-7.82-22.68-12.54s-3.25-16.64-1.32-20S273.22,253.57,273.22,253.57Z"/>
              <g id="face">
                <path class="cls-17" d="M238.88,260.41l-.59,18.06-1.5,10.08s-27-4.19-30.18-21.53l4.48-23.5Z"/>
                <path class="cls-18" d="M238.16,272.72s-24.2-8.67-25.95-14.09l1.09-7.33L239,262.05Z"/>
                <path class="cls-19" d="M276.25,142.37a47.18,47.18,0,0,1,17.88,40.33c-.17,2.64-1.46,7-1,9.82,3.57,20.16,6.71,48.55-28.31,71.51-22.3,14.63-48.17.29-63.73-11.4a43.92,43.92,0,0,1-17.89-35.54s-22.87-4.12-10.71-8.91,3.92,2.46,3.92,2.46l1.31-4.22s23-16.74,39.39-51.49c0,0,20.65-24.22,23.16-32.33A57,57,0,0,1,265,133.75C268.55,136.61,272.42,139.38,276.25,142.37Z"/>
              </g>
              <g>
                <g>
                  <path class="cls-18" d="M260.42,134.72s4.79,37.17-44.74,27.93c0,0,37.16-6.55,41.85-29.27"/>
                  <path class="cls-20" d="M238.68,117.3s9.89,1.41-15.32,30.1l-6.21,7.53s-5.35,11.28-10.22,18.41-18.2,25.8-29.17,33.08l-1.31,4.22s-3.68-13-9.53-4.44c-1.57,2.28,1.36-.28,5.7,9.55,3.2,7.22-2.47,11.12,12.36,14.58,0,0,8.46,18.65,20.06,24.72l1.7,1.92.66,6.61S204.6,274,190,284.84c0,0-27.63,23.83-54.85-19-3.67-5.77-6.27-166.52,60.46-166.43,0,0,27.87-5.55,50.59,3.92s35.21.92,52.37,31.26c0,0,15.1,35.9-3.74,57.7l-2.73-26.85s-6.53-18.22-30.61-34.27c0,0-15.36-8.57-21.22-8.6C240.31,122.6,241.38,118.13,238.68,117.3Z"/>
                </g>
                <path class="cls-20" d="M257,128.8s5.73,46.9-50.61,31c0,0,27.2-6.21,33.92-37.19a81.13,81.13,0,0,1,9.29,2.73"/>
                <path class="cls-21" d="M245.76,103.22s-32.83-7.54-50.44,7.67c-18.25,15.76-23.51,35.57-28.19,91l-5.33,3S151,97.27,219.27,98A105.57,105.57,0,0,1,245.76,103.22Z"/>
              </g>
              <g>
                <g>
                  <g>
                    <path class="cls-19" d="M181.54,202.86c-4.57-6.82-9.59-7.9-13.94-7-5.64,1.2-8.13,6.64-6.58,15.75s3.8,13.76,11,18.92,11,7.72,18.14,2.41"/>
                    <path class="cls-22" d="M185.5,229.4a20.18,20.18,0,0,1-2.45-1.26,9,9,0,0,1-3.55-3.91,8.57,8.57,0,0,1-.75-5.19,9.06,9.06,0,0,1,.93-2.8,5.29,5.29,0,0,1,.29-.52c-.07-.11-.12-.21-.18-.31-.35-.6-.72-1.2-1.1-1.78a36.55,36.55,0,0,0-3.81-4.77c-1.41-1.41-2.92-3-5.06-3.57a3.89,3.89,0,0,0-3.14.52,2.68,2.68,0,0,0-1.33,2.67,2.6,2.6,0,0,1,1.57-2.28,3.41,3.41,0,0,1,2.69-.21c1.81.59,3.18,2.11,4.56,3.54a56.43,56.43,0,0,1,3.92,4.52c.46.6.91,1.21,1.34,1.83a8.38,8.38,0,0,0-1.41,3,8.68,8.68,0,0,0,.61,5.74,9,9,0,0,0,4.05,4.14,18.42,18.42,0,0,0,2.66,1.06,4.21,4.21,0,0,0,2.82.14A4.51,4.51,0,0,1,185.5,229.4Zm-16.56-8.58a11.1,11.1,0,0,1-1.33-5.67,43.41,43.41,0,0,1,.58-6.07,23.86,23.86,0,0,0-1.32,6,10.86,10.86,0,0,0,1.23,6.17,12,12,0,0,0,4.58,4.31,27.68,27.68,0,0,0,5.73,2.36,58.61,58.61,0,0,1-5.34-3A12.56,12.56,0,0,1,168.94,220.82Z"/>
                  </g>
                  <path class="cls-23" d="M179.54,230.12s6.61,12.17-.67,14.65-5.66-11.55-5.66-11.55,2.49,11.64,4.41,4.27Z"/>
                </g>
                <g>
                  <ellipse class="cls-24" cx="275.68" cy="191.39" rx="13.08" ry="12.02" transform="translate(10.32 396.86) rotate(-72.52)"/>
                  <path class="cls-18" d="M287.17,194.93c-13.59-14.68-25.11-.17-23-7.07s9-10.91,15.35-9S289.3,188,287.17,194.93Z"/>
                  <ellipse class="cls-25" cx="275.98" cy="197.66" rx="6.51" ry="6.36" transform="matrix(0.32, -0.95, 0.95, 0.32, 1.19, 396.97)"/>
                  <ellipse class="cls-26" cx="279.17" cy="192" rx="1.53" ry="1.5" transform="matrix(0.32, -0.95, 0.95, 0.32, 8.74, 396.13)"/>
                  <path class="cls-27" d="M270.43,166.11a15.57,15.57,0,0,1,17.24,7.24s1.64-5.32-7.5-10.4C280.17,163,273.43,160.07,270.43,166.11Z"/>
                </g>
                <g>
                  <ellipse class="cls-24" cx="230.14" cy="194.12" rx="13.08" ry="12.78" transform="translate(-26.79 351.06) rotate(-71.56)"/>
                  <path class="cls-18" d="M242.91,193.08c-19.24-7.5-25,8.87-25.51,1.66a12.79,12.79,0,1,1,25.51-1.66Z"/>
                  <ellipse class="cls-25" cx="231.96" cy="199.45" rx="7.02" ry="6.86" transform="translate(-30.61 356.43) rotate(-71.56)"/>
                  <ellipse class="cls-26" cx="234.72" cy="192.48" rx="1.53" ry="1.5" transform="translate(-22.1 354.29) rotate(-71.56)"/>
                  <path class="cls-27" d="M232.81,168.46s-10.57-3.73-16.94,6.95c0,0-1.64-5.64,7.33-10.62C223.2,164.79,229.82,162,232.81,168.46Z"/>
                </g>
                <path class="cls-19" d="M260,197.61s-1.12,6,5.59,12,.14,15.42-11,8.59"/>
                <g>
                  <g>
                    <g>
                      <path class="cls-28" d="M233.59,228.69s9.6,18,22,19.46c16.86,1.94,18.41-20.82,18.41-20.82L256.52,232Z"/>
                      <path class="cls-29" d="M233.59,228.69s11.24,15.52,25,15.07c9.87-.32,15.48-17.37,15.48-17.37S257.68,236.48,233.59,228.69Z"/>
                      <path class="cls-26" d="M270,228.6h0c-.42,4.25-3.17,8.55-11,9.2-6.41.53-17.76-1.2-22.42-7.26-1.35-1.75,1.19-.27,1.19-.27s23,3.76,31.24-1.44"/>
                      <path class="cls-28" d="M234.7,229.36s28.95,4.65,42.56-5.73C277.26,223.63,265.9,240.57,234.7,229.36Z"/>
                    </g>
                    <path class="cls-18" d="M234,225.58s-6.24-.08-3.2,6.18C230.75,231.76,229.48,228.09,234,225.58Z"/>
                    <path class="cls-18" d="M275.47,221.43s2.77,1.8.15,6.61C275.62,228,280.7,223.67,275.47,221.43Z"/>
                  </g>
                  <path class="cls-18" d="M248.18,241.21s2.29-2.8,8.34-1.33c0,0,3.66-2.47,9.08.29C265.6,240.17,260.91,247.52,248.18,241.21Z"/>
                </g>
              </g>
            </g>
            <g>
              <path class="cls-19" d="M262.34,333.14s10.62,18.07,19.38,22.74c8.24,4.4,29.53-1.56,22.62-18.5a107.61,107.61,0,0,0-18.13-29.09s-15.88-13.27-23.87,3.26C257.19,322.19,262.34,333.14,262.34,333.14Z"/>
              <path class="cls-30" d="M257.42,270.11s9.1,5.4,14.35,12.36,17.48,29.84,17.48,29.84-6.28-2.06-15.45,4.46S262.59,328,262.59,328l-22.51-31.26"/>
              <path class="cls-19" d="M285.87,333.77s-.59-.75,1-14.22,4.92-33.18-.31-42l16.44-.81a48,48,0,0,1,3.38,11.58c2.3,14.82,5.16,41.74-.84,58.35,0,0-7.24,16.81-23.85,9.21"/>
              <g>
                <path class="cls-19" d="M304.6,282.47c9.06-10.31,11-20.6,12.36-31.6s-2.68-8.9-2.68-8.9l.25-4.31c.81-8.34-2.8-8.2-2.8-8.2-2.27-5.32-4.25-2.34-4.25-2.34-2.18-6.57-4.11-2.48-4.11-2.48.22,6.08-3.72,19.53-5.7,26.25S287.61,264,287.61,264s-5,8,.6,15.06"/>
                <path class="cls-19" d="M306.73,225.62a57.19,57.19,0,0,1-4.56,26.77"/>
                <path class="cls-19" d="M311.44,229s1.19,9.86-4.89,25.6"/>
                <path class="cls-19" d="M314.48,240.82a53,53,0,0,1-4.34,15"/>
                <path class="cls-19" d="M288.49,280.32s-5.74-5.06-6.52-14.86,2.65-18.66.61-25.1c0,0,5-2.81,6.86,13,0,0-.78,5.15,2.09,7.82s5.85,4.35,6.53,11.39"/>
                <path class="cls-19" d="M297.21,252.47s9.09-2,16.43,8"/>
              </g>
            </g>
            <path class="cls-30" d="M265.89,301.46l3.16,24.33s2.48,15.33,1.41,59.76c0,0-32.73,11-100.74-5.08,0,0,1.24-29.44,1.59-37.65s-3.88-52.24,7.12-65.88c10.56-13.1,29-13.36,29-13.36s-4.7,13.94,17,20.4c19.75,5.87,16.53-9.79,16.53-9.79l-.09,1.11.09-1.11"/>
            <g>
              <path class="cls-31" d="M248.12,287.57c-1.12-.51-5-3.95-13-.66s2,14,2,14h8.74S257.51,291.84,248.12,287.57Z"/>
              <g>
                <path class="cls-31" d="M226.28,351.52c.21.73.4,1.44.61,2.14v0c6.44,21.91,17,32.87,17,32.87a120,120,0,0,0,8.31-13.95c1.18-2.38,2.09-4.44,2.79-6.23a31.92,31.92,0,0,0,2.27-7.94c-.11-2.73-.27-5.35-.46-7.88-.17-2.37-.37-4.64-.59-6.84-.66-6.26-1.49-11.81-2.41-16.67-.46-2.46-.95-4.75-1.44-6.88-3.18-13.65-6.62-20.26-6.48-21.24.39-2.8-9.39-1.82-9.39-1.82A114.18,114.18,0,0,1,235,311.16c-.25,1.58-.52,3.19-.8,4.81-.82,4.67-1.78,9.42-2.75,13.88-.35,1.55-.68,3.07-1,4.54-1.23,5.41-2.38,10.09-3.17,13.19C226.68,350.06,226.28,351.52,226.28,351.52Z"/>
                <path class="cls-32" d="M234.24,316a63.78,63.78,0,0,1,19,11c-.46-2.46-1-5-1.52-7.14A71.66,71.66,0,0,0,235,311.16C234.79,312.74,234.52,314.35,234.24,316Z"/>
                <path class="cls-32" d="M231,334.78c7.05,3.42,18.69,9.64,25.26,15.77-.16-2.37-.4-5.09-.63-7.28A92.42,92.42,0,0,0,232,330.05C231.66,331.6,231.31,333.31,231,334.78Z"/>
                <path class="cls-32" d="M226.86,351.53c.21.72.4,1.62.61,2.32h0c6.93,3.84,17.68,10.39,24.33,18.29,1.18-2.38,2-4.38,2.73-6.17a140,140,0,0,0-26.74-18.2C227.16,350.24,226.86,351.53,226.86,351.53Z"/>
              </g>
              <path class="cls-30" d="M235.77,280.72c.72.53-11.23,22.14-11.23,22.14s-14.9-21.75-22.3-37.58l4.5-8.31S207.8,260.14,235.77,280.72Z"/>
            </g>
            <path class="cls-33" d="M250.23,248.33s-12.78,16.59-4.47,30S249,300,249,300s11.92,3.07,17.05-3.35,15.86-4.47,19.57-1.9,8.59,9.53,12.49,1.1,6.36-14.37,13.47-10.7,16-40.61-16.1-59.95c-13.17-7.95-21.85-11.2-32.26-1.45C257,229.5,250.23,248.33,250.23,248.33Z"/>
            <g class="cls-34">
              <path class="cls-35" d="M304.53,285.12c-.1-2.54-.32-5.08-.65-7.6s-.68-5-1.14-7.52A111.65,111.65,0,0,0,299,255.26a84.22,84.22,0,0,0-6-13.94L291.06,238a14.93,14.93,0,0,0-1.05-1.58l-1.1-1.55-1.09-1.56c-.36-.53-.81-1-1.21-1.47l-2.47-2.9a60.44,60.44,0,0,1,9.18,12.15,82,82,0,0,1,6.16,14,107,107,0,0,1,3.64,14.83A98,98,0,0,1,304.53,285.12Z"/>
            </g>
            <g class="cls-34">
              <path class="cls-35" d="M282.37,291.45,281,276.93c-.49-4.83-1-9.67-1.51-14.5s-1.07-9.67-1.64-14.5-1.19-9.65-1.82-14.47q1.23,7.18,2.2,14.42c.65,4.82,1.22,9.66,1.76,14.49s1,9.68,1.39,14.53S282.1,286.6,282.37,291.45Z"/>
            </g>
            <g class="cls-34">
              <path class="cls-35" d="M263.54,301.12c.7-3,1.33-6.07,1.92-9.12s1.2-6.1,1.73-9.16c1.08-6.12,2.09-12.26,2.83-18.42s1.41-12.35,1.65-18.55c.11-1.55.11-3.11.13-4.66s.07-3.1,0-4.65-.06-3.11-.19-4.66l-.47-4.64a99.92,99.92,0,0,1,.94,18.62c-.15,6.23-.8,12.42-1.54,18.6s-1.78,12.32-2.94,18.43S265.09,295.1,263.54,301.12Z"/>
            </g>
            <path class="cls-36" d="M251.51,305.81a8.16,8.16,0,0,0-2.56,5"/>
            <g>
              <path class="cls-19" d="M235.8,326.26l-17.87-26-25.45,23.27s19.91,22.71,26.51,28c11.73,9.39,26.6,15.12,36-6.24"/>
              <path class="cls-19" d="M229.54,334.84s5.41-37.33,5-44.58,3.74-12.46,11.53-8.44c8.37,4.32,11.89,47.61,11.89,47.61s0,17-6.5,22.11"/>
              <g>
                <path class="cls-19" d="M234.6,289.1s-3.75-17.4,2-28,7.75-13.22,9.19-17c0,0,3.19-4.67,3.21,2.95L245.4,259s6.28-1.65,12.64-8.67,10.28-15.5,10.25-21.3c0,0,1.42-2.22,3,2.29,0,0,2.51,2.89,1.57,9.8s-.15,1.14-.15,1.14,2.8,2.5,1.13,9.55l-.91,4.06,2.15-2.36s2.38-1.51,1.74,2.72a22.69,22.69,0,0,1-8.68,15.15c-6.11,4.53-16.82,11-16.82,11s-.14,10.28,1.91,14.29"/>
                <g>
                  <path class="cls-37" d="M271.21,231s1.44,9.07-5.55,18.23S255,259.55,255,259.55"/>
                  <path class="cls-38" d="M271.71,230.91a24,24,0,0,1-.89,8.7,28.42,28.42,0,0,1-3.65,7.88,57.8,57.8,0,0,1-5.47,6.69,40.05,40.05,0,0,1-3.12,3,14.79,14.79,0,0,1-3.58,2.38,14.34,14.34,0,0,0,3.5-2.48,37.78,37.78,0,0,0,3-3.06,56.89,56.89,0,0,0,5.24-6.79,28,28,0,0,0,3.35-7.8,23.44,23.44,0,0,0,.62-8.36Z"/>
                </g>
                <g>
                  <path class="cls-37" d="M272.65,242.79s-1.29,10.79-6.71,16.8l-4.66,3.54"/>
                  <path class="cls-38" d="M273.15,242.85a45,45,0,0,1-1,4.53,42.48,42.48,0,0,1-1.44,4.39,32.44,32.44,0,0,1-2,4.17,22.06,22.06,0,0,1-2.71,3.73h0l-4.73,3.44,4.59-3.63h0a23.15,23.15,0,0,0,2.52-3.77,35.62,35.62,0,0,0,1.77-4.18,45.13,45.13,0,0,0,1.24-4.37,43.34,43.34,0,0,0,.77-4.46Z"/>
                </g>
                <g>
                  <path class="cls-37" d="M273.07,255.49s-1.13,7.11-5.87,10.79"/>
                  <path class="cls-38" d="M273.56,255.57a21.72,21.72,0,0,1-.93,3.06,23.67,23.67,0,0,1-1.35,2.88,17.32,17.32,0,0,1-1.79,2.62,13.71,13.71,0,0,1-2.29,2.15,13.44,13.44,0,0,0,2.09-2.31,17.44,17.44,0,0,0,1.55-2.68,24.6,24.6,0,0,0,1.08-2.9,22.74,22.74,0,0,0,.66-3Z"/>
                </g>
              </g>
            </g>
          </g>
          <g>
            <path class="cls-39" d="M255.43,402.32s-28.58-2.75-54.25,1.06"/>
            <path class="cls-40" d="M255.43,402.32c-2.26-.09-4.52-.19-6.79-.24s-4.52-.13-6.79-.17c-4.52-.07-9-.12-13.57,0s-9,.22-13.56.44c-2.26.12-4.51.26-6.77.46s-4.5.42-6.77.59a135.74,135.74,0,0,1,13.49-1.82c4.52-.38,9.06-.58,13.6-.66s9.08,0,13.61.25S250.94,401.72,255.43,402.32Z"/>
          </g>
          <g>
            <path class="cls-39" d="M297.35,410s-21.25-7.74-41.87-7.19"/>
            <path class="cls-40" d="M297.35,410c-1.72-.48-3.43-1-5.15-1.4s-3.44-.88-5.17-1.29c-3.46-.8-6.93-1.54-10.41-2.16s-7-1.14-10.52-1.57l-2.64-.28c-.89-.08-1.77-.13-2.66-.2-1.77-.19-3.54-.16-5.32-.29a73.35,73.35,0,0,1,10.69,0,97.21,97.21,0,0,1,10.62,1.34c3.51.66,7,1.43,10.43,2.41A92.82,92.82,0,0,1,297.35,410Z"/>
          </g>
          <g>
            <path class="cls-41" d="M204.39,280.22l23.92,35.33s-7.25-1.6-16.48,8.84-6.1,14.06-6.1,14.06l-25.82-27.56"/>
            <path class="cls-42" d="M204.39,280.22q6.15,8.71,12.21,17.49t12.08,17.58l.57.85-1-.15a10.63,10.63,0,0,0-4.16.4,19.24,19.24,0,0,0-4,1.68,30.85,30.85,0,0,0-6.76,5.46,41.57,41.57,0,0,0-5.43,6.86,16.89,16.89,0,0,0-1.85,3.89,7.77,7.77,0,0,0-.37,2.06,3.32,3.32,0,0,0,.39,1.82l-.65.58c-4.29-4.59-8.53-9.25-12.8-13.88s-8.49-9.29-12.7-14q6.6,6.76,13.12,13.58c4.34,4.56,8.71,9.09,13,13.68l-.65.58a3.92,3.92,0,0,1-.61-2.41,8.72,8.72,0,0,1,.39-2.3,17.54,17.54,0,0,1,1.92-4.11,43.29,43.29,0,0,1,5.5-7.06,30.67,30.67,0,0,1,7-5.61,19.71,19.71,0,0,1,4.19-1.74,11.09,11.09,0,0,1,4.61-.39l-.48.69q-6-8.83-11.84-17.74T204.39,280.22Z"/>
          </g>
          <polygon class="cls-43" points="-197.07 445.96 565.96 347.17 493.33 496.53 241.33 557.83 -197.07 445.96"/>
          <g>
            <path class="cls-44" d="M387.09,430c-4.38,13.66-44,23.75-88.55,22.53s-77.06-13.3-72.67-27,44-23.76,88.56-22.53S391.49,416.37,387.09,430Z"/>
            <path class="cls-44" d="M430.77,422.06c-1.15,3.6-11.6,6.26-23.32,5.94s-20.3-3.5-19.14-7.1,11.6-6.26,23.32-5.94S431.93,418.47,430.77,422.06Z"/>
            <g>
              <path class="cls-45" d="M298.81,438.51c-43.43-2.3-75-16.2-70.54-31.05s43.29-25,86.7-22.74,75,16.21,70.54,31.06S342.23,440.81,298.81,438.51Z"/>
              <path class="cls-46" d="M298.79,435.07c-13.3-.72-26.73-2.54-39.47-6.55a72.2,72.2,0,0,1-13.71-5.72,27.9,27.9,0,0,1-8.62-6.89,10.23,10.23,0,0,1-2.39-7.49A12.52,12.52,0,0,1,239,401a36.15,36.15,0,0,1,11.47-6.59,96.55,96.55,0,0,1,15.74-4.51,178.87,178.87,0,0,1,41-3.27,172.56,172.56,0,0,1,40.7,5.56,87.15,87.15,0,0,1,15,5.45,36.41,36.41,0,0,1,9.86,6.58,12.47,12.47,0,0,1,4,7.37,10.41,10.41,0,0,1-2.75,7.64,27.78,27.78,0,0,1-9.84,6.88,81.56,81.56,0,0,1-14.69,4.93,167.52,167.52,0,0,1-39.8,4.31q-5.46,0-10.91-.29c-.28,0-.59.51-.87.49a186.58,186.58,0,0,0,43.2-2.42c9.9-1.8,20.1-4.49,28.63-10,2.78-1.81,5.53-4.12,7-7.17a9.14,9.14,0,0,0,.09-7.8c-1.38-3.07-4-5.45-6.75-7.35a55.83,55.83,0,0,0-12.62-6.32c-12.26-4.56-25.45-6.7-38.45-7.74A194.49,194.49,0,0,0,275,388a122.45,122.45,0,0,0-17.85,3.9A64.16,64.16,0,0,0,244,397.39c-5.08,2.9-11.63,7.78-10.09,14.52.69,3,2.85,5.55,5.18,7.53A44.11,44.11,0,0,0,250.28,426c11.54,5,24.22,7.33,36.65,8.67,3.65.4,7.32.69,11,.88C298.21,435.58,298.51,435.05,298.79,435.07Z"/>
              <path class="cls-47" d="M299.36,429.62c-33.34-1.67-57.8-12-54.61-23.07s32.79-18.69,66.13-17,57.79,12,54.61,23.07S332.7,431.28,299.36,429.62Z"/>
              <path class="cls-48" d="M336.31,413.2c-2.07,6-17.87,10-35.29,8.89s-29.88-6.83-27.81-12.83,17.86-10,35.29-8.9S338.37,407.2,336.31,413.2Z"/>
            </g>
          </g>
          <g>
            <polyline class="cls-49" points="325.68 403.38 327.98 398.41 334.63 399.21 336.53 403.74 331.11 409.08 325.68 405.18"/>
            <polyline class="cls-49" points="338.38 406.38 340.68 401.41 347.33 402.2 349.23 406.74 343.81 412.07 338.38 408.18"/>
            <polyline class="cls-49" points="306.48 403.23 308.78 398.26 315.43 399.06 317.33 403.59 311.91 408.93 306.48 405.03"/>
            <polyline class="cls-49" points="304.37 400.68 306.68 395.71 313.32 396.51 315.22 401.04 309.8 406.38 304.37 402.48"/>
            <polyline class="cls-49" points="316.39 403.29 318.69 398.32 325.34 399.12 327.24 403.65 321.81 408.99 316.39 405.09"/>
            <polyline class="cls-49" points="266.32 417.69 268.62 412.72 275.27 413.52 277.17 418.05 271.74 423.39 266.32 419.49"/>
            <polyline class="cls-49" points="290.34 421.39 292.64 416.42 299.29 417.21 301.19 421.75 295.77 427.09 290.34 423.19"/>
            <polyline class="cls-50" points="322.73 422.13 325.04 417.15 331.68 417.95 333.58 422.49 328.16 427.82 322.73 423.93"/>
            <polyline class="cls-50" points="329.3 403.22 331.6 398.24 338.25 399.04 340.15 403.58 334.72 408.91 329.3 405.02"/>
            <polyline class="cls-50" points="308.2 399.07 310.5 401.47 317.15 401.08 319.05 398.89 313.63 396.31 308.2 398.2"/>
            <polyline class="cls-50" points="263.4 403.45 265.7 405.85 272.35 405.47 274.25 403.28 268.83 400.7 263.4 402.58"/>
          </g>
          <g>
            <g>
              <path class="cls-51" d="M391.75,341.73H429A3.85,3.85,0,0,1,432.8,346l-7.37,73.84a3.84,3.84,0,0,1-3.83,3.46H399.12a3.86,3.86,0,0,1-3.84-3.46L387.91,346a3.86,3.86,0,0,1,3.84-4.23Z"/>
              <path class="cls-52" d="M391.75,345.58H429l-7.37,73.83H399.12Z"/>
              <path class="cls-53" d="M406.14,365.08c7.06,0,9.34,4.23,16.06,4.23a16.34,16.34,0,0,0,4.46-.62l-5.06,50.72H399.12l-4.88-48.9A15.3,15.3,0,0,1,406.14,365.08Z"/>
            </g>
            <path class="cls-52" d="M418,382a4.31,4.31,0,1,0-4.32-4.31A4.32,4.32,0,0,0,418,382Z"/>
            <path class="cls-52" d="M417.43,400.58a2.81,2.81,0,1,0-2.81-2.8A2.81,2.81,0,0,0,417.43,400.58Z"/>
            <ellipse class="cls-54" cx="410.36" cy="341.73" rx="22.81" ry="8.7"/>
          </g>
        </g>
      </g>
    </g>
  </g>
</svg>
