<svg id="Layer_1" data-name="Layer 1" xmlns="http://www.w3.org/2000/svg" width="1156.67" height="169.53" viewBox="0 0 1156.67 169.53">
  <defs>
    <style>
      .cls-1 {
        fill: #3172c2;
        stroke: #fff;
        stroke-miterlimit: 10;
        stroke-width: 2px;
      }

      .cls-2 {
        fill: #fff;
      }
    </style>
  </defs>
  <g>
    <rect class="cls-1" x="116.18" y="15.52" width="924.3" height="138.49" rx="39.07"/>
    <g>
      <g>
        <path class="cls-2" d="M369.74,70.14,358.31,55.61V70.14h-7.16V38.73h7.16V52.5l10.48-13.77H377l-11.7,14.72,13.5,16.69Z"/>
        <path class="cls-2" d="M397.77,55.79a5,5,0,0,1-.8,2.79,6.6,6.6,0,0,1-2.25,2.13,12.36,12.36,0,0,1-3.51,1.38,19.49,19.49,0,0,1-4.58.49l-.55,0c-.2,0-.44,0-.72,0a4.09,4.09,0,0,0,1.34,2.67,4.29,4.29,0,0,0,2.92,1,13.28,13.28,0,0,0,6.62-2v4.72A13.08,13.08,0,0,1,393,70.3a13.82,13.82,0,0,1-3.53.43,11.62,11.62,0,0,1-4.07-.68,8.22,8.22,0,0,1-3.09-2A8.63,8.63,0,0,1,380.36,65a11.22,11.22,0,0,1-.67-4,12.67,12.67,0,0,1,.78-4.53A10.57,10.57,0,0,1,382.68,53a9.64,9.64,0,0,1,3.39-2.29,11.45,11.45,0,0,1,4.37-.81,8.21,8.21,0,0,1,5.33,1.62A5.26,5.26,0,0,1,397.77,55.79Zm-6,.45a1.57,1.57,0,0,0-.62-1.24,2.31,2.31,0,0,0-1.55-.52,3.55,3.55,0,0,0-2.57,1.06,5,5,0,0,0-1.38,2.9,3.78,3.78,0,0,0,.72.09h.66Q391.79,58.53,391.79,56.24Z"/>
        <path class="cls-2" d="M419.87,55.79a5.13,5.13,0,0,1-.8,2.79,6.63,6.63,0,0,1-2.26,2.13,12.29,12.29,0,0,1-3.5,1.38,19.64,19.64,0,0,1-4.59.49l-.54,0c-.2,0-.45,0-.73,0a4.15,4.15,0,0,0,1.35,2.67,4.25,4.25,0,0,0,2.91,1,13.34,13.34,0,0,0,6.63-2v4.72a13.24,13.24,0,0,1-3.26,1.42,14,14,0,0,1-3.54.43,11.66,11.66,0,0,1-4.07-.68,8.26,8.26,0,0,1-3.08-2A8.65,8.65,0,0,1,402.45,65a11.22,11.22,0,0,1-.67-4,12.46,12.46,0,0,1,.79-4.53,10.55,10.55,0,0,1,2.2-3.53,9.77,9.77,0,0,1,3.4-2.29,11.4,11.4,0,0,1,4.36-.81,8.26,8.26,0,0,1,5.34,1.62A5.29,5.29,0,0,1,419.87,55.79Zm-6,.45a1.56,1.56,0,0,0-.61-1.24,2.32,2.32,0,0,0-1.56-.52,3.53,3.53,0,0,0-2.56,1.06,5,5,0,0,0-1.39,2.9,3.87,3.87,0,0,0,.72.09h.67Q413.88,58.53,413.88,56.24Z"/>
        <path class="cls-2" d="M444.4,59.07a15.1,15.1,0,0,1-.63,4.5,11,11,0,0,1-1.78,3.5,8.1,8.1,0,0,1-2.73,2.27,7.69,7.69,0,0,1-3.49.8,7.57,7.57,0,0,1-2.37-.31,7.09,7.09,0,0,1-2-1.16V83.55h-6.3V56.27a10.16,10.16,0,0,0-.07-1.14c0-.45-.1-.91-.18-1.4s-.16-1-.27-1.46a9.63,9.63,0,0,0-.38-1.34h6.1a5.15,5.15,0,0,1,.33.87A11.36,11.36,0,0,1,430.8,53,9.76,9.76,0,0,1,433.52,51a7.15,7.15,0,0,1,3.1-.63,7.77,7.77,0,0,1,3.17.63,7,7,0,0,1,2.46,1.77,8.16,8.16,0,0,1,1.58,2.77A10.68,10.68,0,0,1,444.4,59.07Zm-6,1a4.26,4.26,0,0,0-.9-2.89,3.06,3.06,0,0,0-2.46-1,3.56,3.56,0,0,0-2.91,1.32A5.51,5.51,0,0,0,431.07,61v2.6a4.78,4.78,0,0,0,3.19,1.2,3.87,3.87,0,0,0,3-1.26A5.12,5.12,0,0,0,438.41,60.07Z"/>
        <path class="cls-2" d="M482.19,76.61a9.75,9.75,0,0,1-2,4.14,7,7,0,0,1-3.41,2.18,17.65,17.65,0,0,1-5,.62,15,15,0,0,1-2.9-.29c-1-.2-2-.46-3-.79V78c1,.08,1.94.14,2.83.19s1.76.07,2.64.07a6.5,6.5,0,0,0,2.41-.41,3.64,3.64,0,0,0,1.67-1.37,6.47,6.47,0,0,0,1-2.5,20.55,20.55,0,0,0,.29-3.82V67.71a7.71,7.71,0,0,1-5.62,2.43,6.42,6.42,0,0,1-2.59-.53,6,6,0,0,1-2.14-1.52,7.6,7.6,0,0,1-1.44-2.37,8.6,8.6,0,0,1-.54-3.15c0-1,0-2.06.05-3s0-1.94,0-2.91,0-2,0-3-.07-2.13-.16-3.3h6c.09,1.19.14,2.3.16,3.32s0,2,0,2.88,0,1.77-.05,2.6,0,1.65,0,2.46a3.74,3.74,0,0,0,.66,2.47,2.41,2.41,0,0,0,1.91.76,3.63,3.63,0,0,0,2.76-1.24,4.72,4.72,0,0,0,1.15-3.34V50.34h6v19.8A27.88,27.88,0,0,1,482.19,76.61Z"/>
        <path class="cls-2" d="M509.37,60.18a11.25,11.25,0,0,1-.74,4.26,8.39,8.39,0,0,1-2.1,3.11,8.92,8.92,0,0,1-3.27,1.93,13.92,13.92,0,0,1-8.47,0,8.92,8.92,0,0,1-3.27-1.93,8.71,8.71,0,0,1-2.13-3.11,11.05,11.05,0,0,1-.76-4.26,10.87,10.87,0,0,1,.74-4.16,8.69,8.69,0,0,1,2.08-3.09A8.9,8.9,0,0,1,494.72,51a14.35,14.35,0,0,1,8.54,0,9,9,0,0,1,3.27,1.88,8.35,8.35,0,0,1,2.1,3.1A11.11,11.11,0,0,1,509.37,60.18Zm-6,0a4.15,4.15,0,0,0-4.46-4.53,4.18,4.18,0,0,0-3.2,1.19,4.69,4.69,0,0,0-1.12,3.34,5,5,0,0,0,1.09,3.44,4.13,4.13,0,0,0,3.23,1.21,4.42,4.42,0,0,0,3.3-1.19A4.79,4.79,0,0,0,503.39,60.18Z"/>
        <path class="cls-2" d="M528.59,69.6a7.73,7.73,0,0,1-.38-1A11.57,11.57,0,0,1,528,67.4a8.82,8.82,0,0,1-6.35,2.74,6.41,6.41,0,0,1-2.67-.55,6.58,6.58,0,0,1-2.16-1.51,6.42,6.42,0,0,1-1.42-2.32,8.73,8.73,0,0,1-.5-3q0-1.85.09-3.42c.06-1,.11-2.06.14-3s0-1.93,0-2.89-.11-2-.23-3.07h6c.09,1,.14,1.93.16,2.84s0,1.82,0,2.71,0,1.81-.09,2.74-.07,1.91-.07,2.95a4.84,4.84,0,0,0,.28,1.84,2.18,2.18,0,0,0,.73,1,2.22,2.22,0,0,0,.91.37,6.43,6.43,0,0,0,.8.06,5.06,5.06,0,0,0,1-.17,3.19,3.19,0,0,0,1.36-.83,5.45,5.45,0,0,0,1.19-1.91,8.91,8.91,0,0,0,.52-3.38v-8.2h6V63.43a22.25,22.25,0,0,0,.27,3.41,11.08,11.08,0,0,0,.72,2.76Z"/>
        <path class="cls-2" d="M554.51,55.88q-.63-.14-1-.18a6.51,6.51,0,0,0-.81-.05,4.57,4.57,0,0,0-3.89,1.76,8.56,8.56,0,0,0-1.33,5.23v7.5h-6v-13c0-.73,0-1.37,0-1.91s-.05-1-.11-1.52a13.05,13.05,0,0,0-.25-1.39c-.1-.45-.25-1-.43-1.56h5.68c.1.37.18.68.26.94a4.49,4.49,0,0,1,.16.74c0,.23.06.48.09.74a6.56,6.56,0,0,1,0,1,10.05,10.05,0,0,1,2.56-2.94,5,5,0,0,1,2.86-.85,3.89,3.89,0,0,1,1,.12,9.21,9.21,0,0,1,1.2.43Z"/>
        <path class="cls-2" d="M592.26,58.81a13.28,13.28,0,0,1-.78,4.66,9.77,9.77,0,0,1-5.69,5.86,12.09,12.09,0,0,1-4.52.81,23.24,23.24,0,0,1-4.49-.47,21.5,21.5,0,0,1-4.23-1.27V39.28h6V52.64a7.06,7.06,0,0,1,2.56-1.72,8.77,8.77,0,0,1,3.27-.58,8.43,8.43,0,0,1,3.22.6,7,7,0,0,1,2.5,1.71,7.76,7.76,0,0,1,1.6,2.67A10.14,10.14,0,0,1,592.26,58.81Zm-6,1.08a4,4,0,0,0-.91-2.75,3.26,3.26,0,0,0-2.54-1,4.38,4.38,0,0,0-1.82.36,4.29,4.29,0,0,0-1.37,1,4.17,4.17,0,0,0-.86,1.45,5.12,5.12,0,0,0-.29,1.71v3.42a5.48,5.48,0,0,0,1.42.53,8.9,8.9,0,0,0,1.63.12A4.67,4.67,0,0,0,585,63.46,4.89,4.89,0,0,0,586.28,59.89Z"/>
        <path class="cls-2" d="M617.55,60.18a11.45,11.45,0,0,1-.74,4.26,8.39,8.39,0,0,1-2.1,3.11,9,9,0,0,1-3.28,1.93,13.89,13.89,0,0,1-8.46,0,8.92,8.92,0,0,1-3.27-1.93,8.46,8.46,0,0,1-2.13-3.11,11.05,11.05,0,0,1-.76-4.26,10.87,10.87,0,0,1,.74-4.16,8.56,8.56,0,0,1,2.08-3.09A8.74,8.74,0,0,1,602.9,51a14.32,14.32,0,0,1,8.53,0,9.09,9.09,0,0,1,3.28,1.88,8.35,8.35,0,0,1,2.1,3.1A11.31,11.31,0,0,1,617.55,60.18Zm-6,0a4.51,4.51,0,0,0-1.21-3.34,4.45,4.45,0,0,0-3.25-1.19,4.18,4.18,0,0,0-3.2,1.19,4.69,4.69,0,0,0-1.12,3.34,5,5,0,0,0,1.09,3.44,4.11,4.11,0,0,0,3.23,1.21,4.39,4.39,0,0,0,3.29-1.19A4.75,4.75,0,0,0,611.57,60.18Z"/>
        <path class="cls-2" d="M643,60.18a11.45,11.45,0,0,1-.74,4.26,8.54,8.54,0,0,1-2.11,3.11,8.92,8.92,0,0,1-3.27,1.93,13.92,13.92,0,0,1-8.47,0,8.92,8.92,0,0,1-3.27-1.93A8.71,8.71,0,0,1,623,64.44,12.19,12.19,0,0,1,623,56a8.69,8.69,0,0,1,2.08-3.09A8.9,8.9,0,0,1,628.32,51a14.35,14.35,0,0,1,8.54,0,9,9,0,0,1,3.27,1.88,8.5,8.5,0,0,1,2.11,3.1A11.31,11.31,0,0,1,643,60.18Zm-6,0a4.15,4.15,0,0,0-4.46-4.53,4.18,4.18,0,0,0-3.2,1.19,4.73,4.73,0,0,0-1.11,3.34,5,5,0,0,0,1.09,3.44,4.09,4.09,0,0,0,3.22,1.21,4.4,4.4,0,0,0,3.3-1.19A4.79,4.79,0,0,0,637,60.18Z"/>
        <path class="cls-2" d="M660.57,58.44l9.58,11.7h-7.92l-7.46-9.76v9.76h-6V38.78h6V56.87l7.29-6.53h8.59Z"/>
        <path class="cls-2" d="M689.55,64.65a5.68,5.68,0,0,1-1.91,4.5,7.87,7.87,0,0,1-5.36,1.67,22.39,22.39,0,0,1-4.56-.45,13.59,13.59,0,0,1-3.61-1.22l.77-4.59a15.37,15.37,0,0,0,6.84,2,2,2,0,0,0,1.42-.43,1.37,1.37,0,0,0,.43-1,1.74,1.74,0,0,0-.34-1.1A5.18,5.18,0,0,0,681.58,63a27.22,27.22,0,0,1-3.17-1.62,10.6,10.6,0,0,1-2.16-1.69A5.61,5.61,0,0,1,675,57.86a6.1,6.1,0,0,1-.39-2.25,5.08,5.08,0,0,1,2.18-4.39,9.54,9.54,0,0,1,5.68-1.55,17.1,17.1,0,0,1,3.36.29,15.23,15.23,0,0,1,3.36,1.15l-.72,4.54a10.82,10.82,0,0,0-3.09-1.24,14.27,14.27,0,0,0-3-.33,2,2,0,0,0-1.43.38,1.34,1.34,0,0,0-.39,1,1.5,1.5,0,0,0,.62,1.24A13,13,0,0,0,683.65,58a27.93,27.93,0,0,1,2.74,1.55A9.39,9.39,0,0,1,688.23,61a5,5,0,0,1,1,1.66A6.06,6.06,0,0,1,689.55,64.65Z"/>
        <path class="cls-2" d="M722,70.14V58.9a4.67,4.67,0,0,0-.29-1.82,2.59,2.59,0,0,0-.7-1,1.72,1.72,0,0,0-.86-.39,4.64,4.64,0,0,0-.76-.07,4.87,4.87,0,0,0-.95.17,3.38,3.38,0,0,0-1.37.83,5.64,5.64,0,0,0-1.24,1.91,8.71,8.71,0,0,0-.54,3.38v8.2h-6V57.05a22.35,22.35,0,0,0-.27-3.41,11.08,11.08,0,0,0-.72-2.76h6a9.91,9.91,0,0,1,.39,1q.1.4.24,1.17A9.33,9.33,0,0,1,718.06,51a8.91,8.91,0,0,1,3.35-.68,6.49,6.49,0,0,1,2.62.53,6.34,6.34,0,0,1,2.1,1.46,6.82,6.82,0,0,1,1.39,2.33,9,9,0,0,1,.5,3.08v12.4Z"/>
        <path class="cls-2" d="M752.46,55.79a5.13,5.13,0,0,1-.8,2.79,6.72,6.72,0,0,1-2.26,2.13,12.29,12.29,0,0,1-3.5,1.38,19.64,19.64,0,0,1-4.59.49l-.54,0c-.21,0-.45,0-.73,0a4.15,4.15,0,0,0,1.35,2.67,4.25,4.25,0,0,0,2.91,1,13.34,13.34,0,0,0,6.63-2v4.72a13.24,13.24,0,0,1-3.26,1.42,14,14,0,0,1-3.54.43,11.66,11.66,0,0,1-4.07-.68,8.26,8.26,0,0,1-3.08-2A8.65,8.65,0,0,1,735,65a11.22,11.22,0,0,1-.67-4,12.46,12.46,0,0,1,.79-4.53,10.55,10.55,0,0,1,2.2-3.53,9.77,9.77,0,0,1,3.4-2.29,11.4,11.4,0,0,1,4.36-.81,8.26,8.26,0,0,1,5.34,1.62A5.29,5.29,0,0,1,752.46,55.79Zm-6,.45a1.56,1.56,0,0,0-.61-1.24,2.33,2.33,0,0,0-1.56-.52,3.55,3.55,0,0,0-2.57,1.06,5,5,0,0,0-1.38,2.9,3.87,3.87,0,0,0,.72.09h.66Q746.47,58.53,746.47,56.24Z"/>
        <path class="cls-2" d="M771.22,70.14c0-.21,0-.46-.05-.76s0-.53-.07-.86,0-.67-.07-1a7,7,0,0,1-2.93,2.31,9.38,9.38,0,0,1-3.83.79,7.1,7.1,0,0,1-5.75-2.43q-2.06-2.43-2.06-6.93c0-3.63,1.11-6.43,3.31-8.39s5.35-3,9.42-3c.67,0,1.28,0,1.83,0s1.09.08,1.64.15,1.11.18,1.69.3,1.21.28,1.91.49V63.66c0,.69,0,1.42,0,2.18s.07,1.47.13,2.1.12,1.48.18,2.2Zm-.94-14.67a9.15,9.15,0,0,0-1.42-.22c-.43,0-.83,0-1.19,0a4.8,4.8,0,0,0-3.85,1.6,6.6,6.6,0,0,0-1.37,4.43,4.4,4.4,0,0,0,.82,2.88,2.88,2.88,0,0,0,2.34,1,4.16,4.16,0,0,0,1.81-.4,4.56,4.56,0,0,0,1.48-1.15,5.44,5.44,0,0,0,1-1.76,6.47,6.47,0,0,0,.37-2.27Z"/>
        <path class="cls-2" d="M783.91,70.14V54.62h-4V50.34h4v-5h5.9v5h5.08v4.28h-5.08V70.14Z"/>
        <path class="cls-2" d="M805.51,67.37a2.4,2.4,0,0,1-1,2,3.91,3.91,0,0,1-2.49.8,3.85,3.85,0,0,1-2.51-.85,2.61,2.61,0,0,1-.06-4.12,3.53,3.53,0,0,1,2.39-.83,3.93,3.93,0,0,1,2.62.89A2.71,2.71,0,0,1,805.51,67.37Z"/>
      </g>
      <g>
        <g>
          <path class="cls-2" d="M345.12,107.67a21,21,0,0,1-1,6.58,11.17,11.17,0,0,1-3.29,5,15.62,15.62,0,0,1-6.18,3.12,35.83,35.83,0,0,1-9.63,1.1l-2,0-1.62-.07-1.63-.11q-.84-.07-1.95-.21V92.23c1.26-.06,2.44-.13,3.55-.22h4.8q9.66,0,14.29,3.86T345.12,107.67Zm-7.74.2c0-3.41-.89-6-2.65-7.79s-4.35-2.67-7.73-2.67c-.28,0-.55,0-.82,0L325,97.5v20.38l1,.12.8,0q5.21,0,7.88-2.58T337.38,107.87Z"/>
          <path class="cls-2" d="M370.9,113.45a11.27,11.27,0,0,1-.74,4.27,8.56,8.56,0,0,1-2.1,3.11,9.06,9.06,0,0,1-3.27,1.93,13.92,13.92,0,0,1-8.47,0,9.06,9.06,0,0,1-3.27-1.93,8.88,8.88,0,0,1-2.13-3.11,11.07,11.07,0,0,1-.76-4.27,10.82,10.82,0,0,1,.74-4.15,8.6,8.6,0,0,1,2.08-3.1,8.82,8.82,0,0,1,3.27-1.93,14.57,14.57,0,0,1,8.54,0,9.13,9.13,0,0,1,3.27,1.89,8.32,8.32,0,0,1,2.1,3.09A11.18,11.18,0,0,1,370.9,113.45Zm-6,0a4.5,4.5,0,0,0-1.21-3.34,4.44,4.44,0,0,0-3.25-1.19,4.18,4.18,0,0,0-3.2,1.19,4.67,4.67,0,0,0-1.12,3.34,5,5,0,0,0,1.09,3.44,4.16,4.16,0,0,0,3.23,1.21,4.43,4.43,0,0,0,3.3-1.19A4.79,4.79,0,0,0,364.92,113.46Z"/>
          <path class="cls-2" d="M403.44,123.42V112.18a4.44,4.44,0,0,0-.3-1.82,2.59,2.59,0,0,0-.69-1,1.91,1.91,0,0,0-.86-.39,5.86,5.86,0,0,0-.76-.06,4.87,4.87,0,0,0-.95.17,3.22,3.22,0,0,0-1.37.83,5.54,5.54,0,0,0-1.24,1.9,8.77,8.77,0,0,0-.54,3.39v8.2h-6V110.33a22.48,22.48,0,0,0-.27-3.42,11.11,11.11,0,0,0-.72-2.75h6a7.73,7.73,0,0,1,.38,1,11.57,11.57,0,0,1,.25,1.17,9.33,9.33,0,0,1,3.09-2.07,8.86,8.86,0,0,1,3.35-.67,6.52,6.52,0,0,1,2.62.52,6.23,6.23,0,0,1,2.1,1.47,6.75,6.75,0,0,1,1.38,2.32,8.86,8.86,0,0,1,.51,3.09v12.4Z"/>
          <path class="cls-2" d="M436.33,113.45a11.47,11.47,0,0,1-.74,4.27,8.56,8.56,0,0,1-2.1,3.11,9.19,9.19,0,0,1-3.28,1.93,13.89,13.89,0,0,1-8.46,0,9.06,9.06,0,0,1-3.27-1.93,8.75,8.75,0,0,1-2.13-3.11,11.07,11.07,0,0,1-.76-4.27,10.82,10.82,0,0,1,.74-4.15,8.6,8.6,0,0,1,2.08-3.1,8.74,8.74,0,0,1,3.27-1.93,14.53,14.53,0,0,1,8.53,0,9.26,9.26,0,0,1,3.28,1.89,8.32,8.32,0,0,1,2.1,3.09A11.38,11.38,0,0,1,436.33,113.45Zm-6,0a4.5,4.5,0,0,0-1.21-3.34,4.45,4.45,0,0,0-3.25-1.19,4.18,4.18,0,0,0-3.2,1.19,4.67,4.67,0,0,0-1.12,3.34,5,5,0,0,0,1.09,3.44,4.15,4.15,0,0,0,3.23,1.21,4.43,4.43,0,0,0,3.3-1.19A4.79,4.79,0,0,0,430.35,113.46Z"/>
          <path class="cls-2" d="M442.23,123.42V107.89h-4v-4.27h4v-5h5.89v5h5.08v4.27h-5.08v15.53Z"/>
          <path class="cls-2" d="M484.88,97.59a8.66,8.66,0,0,0-1.62-.61,6.22,6.22,0,0,0-1.48-.16,4.15,4.15,0,0,0-1.85.36,2.55,2.55,0,0,0-1.12,1.15,6.11,6.11,0,0,0-.56,2.09,26.27,26.27,0,0,0-.16,3.2h4.77V108h-4.73v15.44h-6V107.89h-3.74v-4.27h3.65a26.21,26.21,0,0,1,.49-5.56,9.15,9.15,0,0,1,1.51-3.56,5.7,5.7,0,0,1,2.52-1.89,10.1,10.1,0,0,1,3.49-.56,15.53,15.53,0,0,1,5.35.9Z"/>
          <path class="cls-2" d="M505.13,113.45a11.47,11.47,0,0,1-.73,4.27,8.71,8.71,0,0,1-2.11,3.11,9.06,9.06,0,0,1-3.27,1.93,13.92,13.92,0,0,1-8.47,0,9.06,9.06,0,0,1-3.27-1.93,8.88,8.88,0,0,1-2.13-3.11,12.19,12.19,0,0,1,0-8.42,8.73,8.73,0,0,1,2.08-3.1,8.9,8.9,0,0,1,3.27-1.93,14.57,14.57,0,0,1,8.54,0,9.13,9.13,0,0,1,3.27,1.89,8.46,8.46,0,0,1,2.11,3.09A11.39,11.39,0,0,1,505.13,113.45Zm-6,0a4.15,4.15,0,0,0-4.46-4.53,4.18,4.18,0,0,0-3.2,1.19,4.71,4.71,0,0,0-1.12,3.34,5,5,0,0,0,1.09,3.44,4.16,4.16,0,0,0,3.23,1.21,4.42,4.42,0,0,0,3.3-1.19A4.79,4.79,0,0,0,499.15,113.46Z"/>
          <path class="cls-2" d="M510.94,123.42V92.05h6v31.37Z"/>
          <path class="cls-2" d="M538.53,123.42q0-.27-.09-.63c0-.21-.07-.45-.1-.72s-.06-.6-.09-1a8.32,8.32,0,0,1-3,2.23,9.33,9.33,0,0,1-3.56.65,8.81,8.81,0,0,1-3.59-.7,7.77,7.77,0,0,1-2.73-1.94,8.77,8.77,0,0,1-1.76-3,11.5,11.5,0,0,1-.63-3.91,13.53,13.53,0,0,1,.74-4.55,11.18,11.18,0,0,1,2.07-3.58A9.41,9.41,0,0,1,529,104a9.81,9.81,0,0,1,4-.83,14,14,0,0,1,2,.14,11.56,11.56,0,0,1,2.21.58V92.05h6v24.53c0,.51,0,1.15.07,1.93s.1,1.53.16,2.25.13,1.73.22,2.66ZM537.22,109a6.46,6.46,0,0,0-1.66-.45,14.13,14.13,0,0,0-1.62-.09,4.55,4.55,0,0,0-3.62,1.55,6.34,6.34,0,0,0-1.34,4.26,4.63,4.63,0,0,0,.94,3.08,3.17,3.17,0,0,0,2.57,1.1,5.36,5.36,0,0,0,1.85-.31,3.44,3.44,0,0,0,1.5-1.08,5.73,5.73,0,0,0,1-2,10.73,10.73,0,0,0,.38-3.08Z"/>
          <path class="cls-2" d="M583.52,113.45a11.27,11.27,0,0,1-.74,4.27,8.56,8.56,0,0,1-2.1,3.11,9.06,9.06,0,0,1-3.27,1.93,13.92,13.92,0,0,1-8.47,0,9.06,9.06,0,0,1-3.27-1.93,8.88,8.88,0,0,1-2.13-3.11,11.07,11.07,0,0,1-.76-4.27,10.82,10.82,0,0,1,.74-4.15,8.6,8.6,0,0,1,2.08-3.1,8.9,8.9,0,0,1,3.27-1.93,14.57,14.57,0,0,1,8.54,0,9.13,9.13,0,0,1,3.27,1.89,8.32,8.32,0,0,1,2.1,3.09A11.18,11.18,0,0,1,583.52,113.45Zm-6,0a4.15,4.15,0,0,0-4.46-4.53,4.18,4.18,0,0,0-3.2,1.19,4.67,4.67,0,0,0-1.12,3.34,5,5,0,0,0,1.09,3.44,4.16,4.16,0,0,0,3.23,1.21,4.43,4.43,0,0,0,3.3-1.19A4.79,4.79,0,0,0,577.54,113.46Z"/>
          <path class="cls-2" d="M602.83,109.15q-.63-.14-1-.18a6.65,6.65,0,0,0-.81,0,4.6,4.6,0,0,0-3.9,1.75,8.67,8.67,0,0,0-1.32,5.23v7.51h-6v-13c0-.73,0-1.37,0-1.92s0-1-.11-1.52-.15-.93-.25-1.38-.25-1-.43-1.57h5.68c.1.37.18.69.26,1a4.49,4.49,0,0,1,.16.74c0,.23.06.48.09.74a6.41,6.41,0,0,1,0,.94,10.13,10.13,0,0,1,2.56-2.93,4.9,4.9,0,0,1,2.86-.85,4.39,4.39,0,0,1,1.05.11,11.51,11.51,0,0,1,1.2.44Z"/>
        </g>
        <g>
          <path class="cls-2" d="M620.8,124.14V108.62h-4v-4.28h4v-5h5.89v5h5.09v4.28h-5.09v15.52Z"/>
          <path class="cls-2" d="M651.22,109.79a5.13,5.13,0,0,1-.8,2.79,6.72,6.72,0,0,1-2.26,2.13,12.25,12.25,0,0,1-3.51,1.38,19.49,19.49,0,0,1-4.58.49l-.54,0c-.21,0-.45,0-.73,0a4.1,4.1,0,0,0,1.35,2.67,4.25,4.25,0,0,0,2.91,1,13.34,13.34,0,0,0,6.63-2v4.72a13.24,13.24,0,0,1-3.26,1.42,14,14,0,0,1-3.54.43,11.62,11.62,0,0,1-4.07-.68,8.18,8.18,0,0,1-3.08-2A8.65,8.65,0,0,1,633.8,119a11.22,11.22,0,0,1-.67-4,12.46,12.46,0,0,1,.79-4.53,10.55,10.55,0,0,1,2.2-3.53,9.68,9.68,0,0,1,3.4-2.29,11.4,11.4,0,0,1,4.36-.81,8.26,8.26,0,0,1,5.34,1.62A5.29,5.29,0,0,1,651.22,109.79Zm-6,.45a1.56,1.56,0,0,0-.61-1.24,2.33,2.33,0,0,0-1.56-.52,3.55,3.55,0,0,0-2.57,1.06,5,5,0,0,0-1.38,2.9,3.87,3.87,0,0,0,.72.09h.66Q645.23,112.53,645.23,110.24Z"/>
          <path class="cls-2" d="M670,124.14c0-.21,0-.46-.05-.76s0-.53-.07-.86,0-.67-.07-1a7,7,0,0,1-2.93,2.31,9.38,9.38,0,0,1-3.83.79,7.13,7.13,0,0,1-5.76-2.43c-1.36-1.62-2-3.93-2-6.93q0-5.45,3.31-8.39t9.42-3c.67,0,1.28,0,1.83,0s1.09.08,1.64.15,1.11.18,1.69.3,1.21.28,1.91.49v12.78c0,.69,0,1.42.05,2.18s.07,1.47.13,2.1.12,1.48.18,2.2ZM669,109.47a9.15,9.15,0,0,0-1.42-.22c-.43,0-.83,0-1.19,0a4.8,4.8,0,0,0-3.85,1.6,6.6,6.6,0,0,0-1.37,4.43,4.4,4.4,0,0,0,.82,2.88,2.88,2.88,0,0,0,2.34,1,4.16,4.16,0,0,0,1.81-.4,4.56,4.56,0,0,0,1.48-1.15,5.44,5.44,0,0,0,1-1.76,6.71,6.71,0,0,0,.37-2.27Z"/>
          <path class="cls-2" d="M695.18,109.88q-.63-.13-1-.18a6.51,6.51,0,0,0-.81,0,4.57,4.57,0,0,0-3.89,1.76,8.56,8.56,0,0,0-1.33,5.23v7.5h-6v-13c0-.73,0-1.37,0-1.91a14.09,14.09,0,0,0-.11-1.52,13.05,13.05,0,0,0-.25-1.39c-.1-.45-.24-1-.42-1.56h5.68c.09.37.18.68.25.94a6,6,0,0,1,.17.74c0,.23.06.48.09.74a8.65,8.65,0,0,1,0,.95,10.15,10.15,0,0,1,2.56-2.93,4.93,4.93,0,0,1,2.86-.86,4,4,0,0,1,1.06.12,9.74,9.74,0,0,1,1.19.43Z"/>
          <path class="cls-2" d="M732.67,113.07a15.1,15.1,0,0,1-.63,4.5,11,11,0,0,1-1.78,3.5,8.1,8.1,0,0,1-2.73,2.27,7.69,7.69,0,0,1-3.49.8,7.5,7.5,0,0,1-2.36-.31,7,7,0,0,1-2-1.16v14.88h-6.3V110.28a10.19,10.19,0,0,0-.07-1.15c0-.45-.1-.91-.18-1.4s-.16-1-.27-1.46a9.63,9.63,0,0,0-.38-1.34h6.1a4.41,4.41,0,0,1,.33.87c.06.26.12.67.19,1.24a9.59,9.59,0,0,1,2.71-2.07,7.15,7.15,0,0,1,3.1-.63,7.77,7.77,0,0,1,3.17.63,7,7,0,0,1,2.46,1.77,8.16,8.16,0,0,1,1.58,2.77A10.68,10.68,0,0,1,732.67,113.07Zm-6,1a4.31,4.31,0,0,0-.89-2.89,3.09,3.09,0,0,0-2.47-1,3.53,3.53,0,0,0-2.9,1.32,5.46,5.46,0,0,0-1.07,3.56v2.6a4.74,4.74,0,0,0,3.18,1.2,3.87,3.87,0,0,0,3-1.26A5.12,5.12,0,0,0,726.68,114.07Z"/>
          <path class="cls-2" d="M752.69,124.14c0-.21,0-.46-.05-.76s0-.53-.07-.86,0-.67-.07-1a7,7,0,0,1-2.93,2.31,9.43,9.43,0,0,1-3.84.79,7.12,7.12,0,0,1-5.75-2.43q-2.06-2.43-2.05-6.93,0-5.45,3.31-8.39t9.42-3c.67,0,1.28,0,1.82,0s1.1.08,1.65.15,1.11.18,1.68.3,1.22.28,1.92.49v12.78c0,.69,0,1.42,0,2.18s.07,1.47.13,2.1.12,1.48.18,2.2Zm-.94-14.67a9.33,9.33,0,0,0-1.42-.22c-.43,0-.83,0-1.19,0a4.78,4.78,0,0,0-3.85,1.6,6.54,6.54,0,0,0-1.37,4.43,4.4,4.4,0,0,0,.82,2.88,2.87,2.87,0,0,0,2.33,1,4.1,4.1,0,0,0,1.81-.4,4.6,4.6,0,0,0,1.49-1.15,5.63,5.63,0,0,0,1-1.76,6.71,6.71,0,0,0,.37-2.27Z"/>
          <path class="cls-2" d="M783.25,124.77a21.16,21.16,0,0,1-.76,6.1,10.78,10.78,0,0,1-2.07,3.94,7.46,7.46,0,0,1-3.1,2.13,11.16,11.16,0,0,1-3.9.66,34.42,34.42,0,0,1-4-.25,14.64,14.64,0,0,1-3.79-1v-4.54a24.23,24.23,0,0,0,3.45,1,14.62,14.62,0,0,0,2.9.34,5.08,5.08,0,0,0,2.15-.45,4.25,4.25,0,0,0,1.68-1.44,7.33,7.33,0,0,0,1.08-2.61,16.91,16.91,0,0,0,.39-3.91v-2a6.69,6.69,0,0,1-2.57,1.5,10.2,10.2,0,0,1-2.79.34,8.82,8.82,0,0,1-3.51-.67,7.54,7.54,0,0,1-2.67-1.89,8.42,8.42,0,0,1-1.71-3,11.47,11.47,0,0,1-.61-3.85,11.27,11.27,0,0,1,.94-4.7A10,10,0,0,1,767,107a12,12,0,0,1,4.2-2.27,18.1,18.1,0,0,1,5.57-.79l1.68,0q.74,0,1.44.12c.47.06,1,.14,1.51.24s1.15.25,1.85.43Zm-6-15-1.18-.18a9.75,9.75,0,0,0-1,0,5.68,5.68,0,0,0-4.15,1.46,5.36,5.36,0,0,0-1.5,4,3.82,3.82,0,0,0,1,2.83,3.37,3.37,0,0,0,2.48,1,7.25,7.25,0,0,0,1.62-.18,2.81,2.81,0,0,0,1.41-.81,4.42,4.42,0,0,0,1-1.82,11.15,11.15,0,0,0,.37-3.22Z"/>
          <path class="cls-2" d="M806.92,109.79a5.05,5.05,0,0,1-.81,2.79,6.6,6.6,0,0,1-2.25,2.13,12.25,12.25,0,0,1-3.51,1.38,19.49,19.49,0,0,1-4.58.49l-.55,0c-.2,0-.44,0-.73,0a4.15,4.15,0,0,0,1.35,2.67,4.29,4.29,0,0,0,2.92,1,13.34,13.34,0,0,0,6.63-2v4.72a13.3,13.3,0,0,1-3.27,1.42,13.82,13.82,0,0,1-3.53.43,11.62,11.62,0,0,1-4.07-.68,8.22,8.22,0,0,1-3.09-2A8.63,8.63,0,0,1,789.5,119a11.22,11.22,0,0,1-.68-4,12.67,12.67,0,0,1,.79-4.53,10.57,10.57,0,0,1,2.21-3.53,9.59,9.59,0,0,1,3.4-2.29,11.36,11.36,0,0,1,4.36-.81,8.21,8.21,0,0,1,5.33,1.62A5.27,5.27,0,0,1,806.92,109.79Zm-6,.45a1.57,1.57,0,0,0-.62-1.24,2.31,2.31,0,0,0-1.55-.52,3.55,3.55,0,0,0-2.57,1.06,5,5,0,0,0-1.38,2.9,3.78,3.78,0,0,0,.72.09h.66Q800.93,112.53,800.93,110.24Z"/>
          <path class="cls-2" d="M826.08,118.65a5.67,5.67,0,0,1-1.9,4.5,7.89,7.89,0,0,1-5.36,1.67,22.49,22.49,0,0,1-4.57-.45,13.38,13.38,0,0,1-3.6-1.22l.76-4.59a15.37,15.37,0,0,0,6.84,2,2,2,0,0,0,1.42-.43,1.33,1.33,0,0,0,.43-1,1.68,1.68,0,0,0-.34-1.1,5,5,0,0,0-1.64-1.06,26.44,26.44,0,0,1-3.17-1.62,10.08,10.08,0,0,1-2.16-1.69,5.65,5.65,0,0,1-1.22-1.86,6.32,6.32,0,0,1-.38-2.25,5.05,5.05,0,0,1,2.18-4.39,9.52,9.52,0,0,1,5.68-1.55,17.06,17.06,0,0,1,3.35.29,15.23,15.23,0,0,1,3.36,1.15l-.72,4.54a10.82,10.82,0,0,0-3.09-1.24,14.2,14.2,0,0,0-3-.33,2,2,0,0,0-1.43.38,1.33,1.33,0,0,0-.38,1,1.49,1.49,0,0,0,.61,1.24,12.88,12.88,0,0,0,2.4,1.24,26.55,26.55,0,0,1,2.73,1.55,9.11,9.11,0,0,1,1.84,1.53,4.73,4.73,0,0,1,1,1.66A6.06,6.06,0,0,1,826.08,118.65Z"/>
          <path class="cls-2" d="M838.82,121.37a2.39,2.39,0,0,1-1,2,4.19,4.19,0,0,1-5,0,2.6,2.6,0,0,1-.07-4.12,3.56,3.56,0,0,1,2.4-.83,3.94,3.94,0,0,1,2.62.89A2.71,2.71,0,0,1,838.82,121.37Z"/>
        </g>
      </g>
    </g>
  </g>
</svg>
