<svg id="Layer_1" data-name="Layer 1" xmlns="http://www.w3.org/2000/svg" xmlns:xlink="http://www.w3.org/1999/xlink" viewBox="0 0 256 256"><defs><style>.cls-1{fill:#340962;}.cls-2{fill:#ebe9ff;}.cls-3,.cls-8{opacity:0.29;}.cls-3{fill:url(#linear-gradient);}.cls-4{fill:url(#linear-gradient-2);}.cls-5{fill:#af544a;}.cls-6,.cls-7{fill:#3f2a1c;}.cls-7{opacity:0.17;}.cls-8{fill:url(#linear-gradient-3);}.cls-18,.cls-9{fill:#fff;}.cls-10{fill:#b26e59;}.cls-11{fill:#5b382d;}.cls-12{fill:#563029;}.cls-13,.cls-17{fill:#212121;}.cls-14{fill:#fcd7cd;opacity:0.8;}.cls-15{fill:#49251f;}.cls-16{fill:#fcdbdb;}.cls-17{opacity:0.14;}.cls-18,.cls-19{opacity:0.7;}.cls-20{fill:#ffb01d;stroke:#a04e00;stroke-miterlimit:10;stroke-width:3px;}.cls-21{fill:#ffeb45;}.cls-22{fill:#e7fcff;}.cls-23{fill:#f9f0c7;}.cls-24{fill:#bb5000;opacity:0.47;}</style><linearGradient id="linear-gradient" x1="128.08" y1="98.63" x2="128.08" y2="181.1" gradientUnits="userSpaceOnUse"><stop offset="0" stop-color="#f1b39f"/><stop offset="0.46" stop-color="#ed6855"/><stop offset="1" stop-color="#8f4638"/></linearGradient><linearGradient id="linear-gradient-2" x1="128.08" y1="98.63" x2="128.08" y2="181.1" gradientUnits="userSpaceOnUse"><stop offset="0" stop-color="#ffc7b8"/><stop offset="1" stop-color="#f09b88"/></linearGradient><linearGradient id="linear-gradient-3" x1="127.75" y1="117.99" x2="127.75" y2="153.58" gradientUnits="userSpaceOnUse"><stop offset="0" stop-color="#f1b39f"/><stop offset="0.32" stop-color="#ed6855"/><stop offset="0.9" stop-color="#8f4638"/></linearGradient></defs><ellipse class="cls-1" cx="130.72" cy="127.34" rx="94.06" ry="93.65"/><circle class="cls-2" cx="130.35" cy="127.34" r="85.45" transform="translate(-51.86 129.47) rotate(-45)"/><path class="cls-3" d="M160.08,100.31a85.71,85.71,0,0,0-49,4.61C93.19,112,62.88,126.61,61.32,144.48c-1,11.82,8.6,20.64,19.22,26.69a76.26,76.26,0,0,0,44.83,9.61c22.83-2.08,59.12-9.78,67.72-37.51C201.08,117.5,181.71,104.76,160.08,100.31Z"/><path class="cls-4" d="M160.08,100.31a85.71,85.71,0,0,0-49,4.61C93.19,112,62.88,126.61,61.32,144.48c-1,11.82,8.6,20.64,19.22,26.69a76.26,76.26,0,0,0,44.83,9.61c22.83-2.08,59.12-9.78,67.72-37.51C201.08,117.5,181.71,104.76,160.08,100.31Z"/><path class="cls-5" d="M77,139s1.18-1.15,3.42-3c1.12-.91,2.51-2,4.16-3.14s3.53-2.42,5.66-3.69,4.48-2.58,7.05-3.81c.64-.31,1.29-.62,2-.92s1.35-.59,2-.87c1.38-.57,2.81-1.11,4.28-1.62a76.8,76.8,0,0,1,9.21-2.6,66.31,66.31,0,0,1,9.8-1.43c.82-.07,1.65-.09,2.48-.12.42,0,.83,0,1.25,0h1.24c1.65,0,3.3.1,4.93.27a58.23,58.23,0,0,1,17.91,4.69,69.71,69.71,0,0,1,7.14,3.66c1.05.66,2.08,1.26,3,1.9.47.31.93.61,1.37.92l1.26.91c.82.58,1.56,1.17,2.25,1.7l1,.77.87.73c.55.47,1,.87,1.47,1.25s.77.69,1.06.95l.88.79,0,0-.9-.77-1.08-.92c-.42-.37-.94-.75-1.5-1.21l-.89-.71-1-.75c-.7-.52-1.44-1.09-2.27-1.65l-1.28-.89-1.37-.9c-.94-.63-2-1.22-3-1.86a77.53,77.53,0,0,0-7.13-3.59,60.86,60.86,0,0,0-8.4-2.95,59.72,59.72,0,0,0-9.37-1.76c-1.62-.19-3.26-.27-4.91-.33h-1.23c-.42,0-.83,0-1.24,0-.83,0-1.66,0-2.48.1l-1.24.07-1.23.11-.62.06-.62.07-1.23.15c-1.63.25-3.25.51-4.84.86a70.22,70.22,0,0,0-9.17,2.68,89,89,0,0,0-8.2,3.52c-2.55,1.25-4.91,2.52-7,3.78s-4,2.5-5.68,3.63-3.06,2.18-4.21,3.06-2,1.6-2.6,2.1S77,139,77,139Z"/><path class="cls-5" d="M82,160.15l1,.38c.66.25,1.63.61,2.87,1.05s2.76.95,4.5,1.5,3.74,1.14,5.92,1.71,4.56,1.14,7.09,1.67,5.21,1,8,1.4,5.7.66,8.67.79a81.67,81.67,0,0,0,9-.12c1.5-.08,3-.24,4.49-.41s3-.39,4.42-.66c.73-.12,1.45-.27,2.17-.41s1.43-.31,2.14-.47c1.41-.34,2.79-.69,4.14-1.1a73.1,73.1,0,0,0,7.63-2.74c2.37-1,4.55-2.1,6.52-3.19.49-.26,1-.54,1.43-.82s.92-.53,1.35-.81l1.26-.79,1.18-.78c.38-.25.74-.51,1.09-.75s.68-.49,1-.71l1.73-1.31L171,152.5c.4-.32.72-.61,1-.83l.83-.69,0,0-.8.71c-.26.23-.58.53-1,.86l-1.34,1.12c-.51.42-1.09.86-1.71,1.35l-1,.73c-.35.25-.7.52-1.08.78l-1.17.8-1.26.82c-.43.28-.88.55-1.34.83s-.94.57-1.43.84a64.08,64.08,0,0,1-6.53,3.25,66.84,66.84,0,0,1-7.67,2.76A70.42,70.42,0,0,1,138,167.8c-1.46.25-2.95.43-4.45.6s-3,.28-4.51.35c-.75.05-1.5.06-2.26.09s-1.5,0-2.26,0c-1.5,0-3,0-4.48-.09-3-.13-5.88-.37-8.69-.7-.7-.08-1.4-.18-2.08-.27l-2-.31c-1.34-.2-2.65-.45-3.92-.7s-2.51-.53-3.69-.81-2.33-.58-3.42-.88c-2.18-.59-4.16-1.2-5.91-1.78s-3.25-1.12-4.48-1.59-2.19-.86-2.84-1.13l-1-.42Z"/><path class="cls-6" d="M197.63,106c.27.82-1,1.31-1.52.59-5.53-7.75-18.75-21.45-41-16.69C135,94,127.08,101.09,100.87,102.17c-17,.7-33.29,8.68-38,11.73a1,1,0,0,1-1.53-.58c-.47-4.26-1.16-16.68,5.34-25-2,3.81-5.21,14.16-3.74,17.12.05-4.62,4.66-15.17,8-17.93C68.62,90.31,65.06,97,66.71,101c1.6-4.09,5.69-11.15,8.89-13.45-2.28,2.46-4.94,5.79-4.21,8.56A21.61,21.61,0,0,1,79,87.67l.68-.26c18.06-4.28,33-5.67,53.45-12.55,0,0,44.46-10.19,58.49,17.12A94.47,94.47,0,0,1,197.63,106Z"/><path class="cls-7" d="M197.7,108.35c.27.81-1,1.3-1.52.58-5.51-7.74-18.69-21.45-40.83-16.68-20.07,4.07-28,11.14-54.13,12.22-16.94.71-33.19,8.68-37.86,11.74a1,1,0,0,1-1.53-.59c-.46-4.25-1.15-16.67,5.33-25-2,3.82-5.2,14.16-3.73,17.12,0-4.62,4.64-15.17,7.93-17.93-2.29,2.82-5.84,9.48-4.2,13.45C68.75,99.16,72.83,92.1,76,89.8c-2.27,2.46-4.93,5.8-4.2,8.56A21.69,21.69,0,0,1,79.44,90l.69-.26c18-4.28,32.9-5.66,53.29-12.55,0,0,44.32-10.19,58.32,17.12A93.93,93.93,0,0,1,197.7,108.35Z"/><path class="cls-8" d="M74.67,141.61s18.48-21.14,50.42-23.47,50.65,21.63,50.65,21.63,3.28,2.76,7,1.38c0,0-16.62,11.7-45.75,1.48s-58.13,11-58.13,11S68.58,150.82,74.67,141.61Z"/><path class="cls-9" d="M78.88,153.58c9.83-17,46.79-40.06,89.23-8.07C130.35,174.31,108.83,162.79,78.88,153.58Z"/><path class="cls-10" d="M140.43,132a7.76,7.76,0,0,0-1.5-1.39l-.18,0c-2.9-.54-5.87-1.15-8.83-1.49-.9,0-1.82,0-2.77-.06-1.15-.06-2.28-.22-3.39-.38-.94-.06-1.88-.12-2.82-.13-1.76,0-3.49.34-5.24.44a1.59,1.59,0,0,1-.38,0,6.51,6.51,0,0,0-1.17.79,17.92,17.92,0,0,0-6.33,12.7,18.38,18.38,0,0,0,36.71,2A17.83,17.83,0,0,0,140.43,132Z"/><path class="cls-11" d="M144.3,145.43l-11.41-1.6,11.53-.1a.2.2,0,0,0,.19-.19.2.2,0,0,0-.19-.2l-11.53-.29,11.44-1.41a.2.2,0,0,0,.18-.21.21.21,0,0,0-.22-.18l-11.48,1L144,139.57a.19.19,0,0,0,.15-.23.2.2,0,0,0-.23-.15l-11.29,2.34,10.8-4a.2.2,0,0,0-.13-.37l-10.93,3.61,10.26-5.18c.1-.05.08-.14,0-.24s-.11-.16-.21-.11L132,140.1l9.58-6.31c.09-.06.06-.12,0-.21s-.12-.18-.21-.12l-9.79,6,8.76-7.37a.18.18,0,0,0,0-.27.21.21,0,0,0-.28,0l-9,7.07,7.74-8.22-.09,0-.38-.07-7.84,7.77,6-8.11-.49-.09-6.17,7.74,4.62-8-.5-.09-4.8,7.72,3.41-7.95-.51-.08-3.62,7.72,2.33-7.91-.51-.06-2.57,7.74,1.34-7.88-.51-.05L127,136.77l.4-7.88-.38,0h-.13l-.67,7.85-.54-7.92-.52,0,.27,8-1.52-8.07-.51,0,1.25,8.24-2.6-8.31-.51,0,2.36,8.54L120,128.56l-.49,0,3.59,8.81L118,128.76l-.47.06,5,9L115.68,129a1.57,1.57,0,0,1-.53-.06s0,0,0,0l6.65,9.27-8-8.18a.2.2,0,0,0-.28,0,.19.19,0,0,0,0,.27l7.69,8.45-8.89-7.22a.2.2,0,0,0-.28,0,.19.19,0,0,0,0,.27l8.64,7.51-9.68-6.15a.2.2,0,0,0-.28,0,.2.2,0,0,0,.06.27l9.46,6.47L110,135a.21.21,0,0,0-.27.08.19.19,0,0,0,.09.26l10.16,5.35-10.86-3.79a.2.2,0,0,0-.25.12.19.19,0,0,0,.11.25l10.73,4.15-11.24-2.52a.2.2,0,0,0-.24.14.19.19,0,0,0,.14.23l11.15,2.9L108,141a.19.19,0,0,0-.22.17.2.2,0,0,0,.17.22l11.41,1.6-11.53.1a.19.19,0,0,0-.19.19.2.2,0,0,0,.19.2l11.52.28-11.43,1.42a.2.2,0,0,0-.18.21.21.21,0,0,0,.22.18l11.48-1-11.19,2.71a.19.19,0,0,0-.15.23.2.2,0,0,0,.23.15l11.28-2.34-10.79,4a.19.19,0,0,0-.12.25.2.2,0,0,0,.25.12L119.89,146l-10.26,5.18a.2.2,0,0,0-.09.26.22.22,0,0,0,.27.09l10.43-4.83L110.66,153a.2.2,0,0,0-.06.27.2.2,0,0,0,.27.06l9.79-6-8.77,7.36a.2.2,0,0,0,.26.3l9-7.06-7.84,8.31a.2.2,0,0,0,.29.27l8.12-8.05-6.8,9.16a.18.18,0,0,0,0,.27.2.2,0,0,0,.27,0l7.12-8.93-5.68,9.87a.21.21,0,0,0,.07.27A.2.2,0,0,0,117,159l6-9.68-4.48,10.46a.19.19,0,0,0,.11.25.2.2,0,0,0,.26-.09l4.83-10.3-3.21,10.89a.2.2,0,0,0,.13.24.21.21,0,0,0,.25-.12l3.58-10.78L122.61,161a.2.2,0,0,0,.16.23.2.2,0,0,0,.23-.16L125.29,150l-.58,11.33a.21.21,0,0,0,.19.2h0a.19.19,0,0,0,.21-.18l1-11.3.77,11.32a.2.2,0,0,0,.21.18.21.21,0,0,0,.19-.2L126.86,150l2.1,11.15a.2.2,0,0,0,.23.16.2.2,0,0,0,.16-.22l-1.71-11.22,3.4,10.84a.2.2,0,0,0,.38-.11l-3-10.94L133.05,160a.19.19,0,0,0,.26.1.19.19,0,0,0,.1-.25l-4.29-10.52,5.85,9.77a.2.2,0,0,0,.27.07.19.19,0,0,0,.07-.26l-5.51-10,7,9a.18.18,0,0,0,.27,0,.19.19,0,0,0,.05-.27l-6.65-9.26,8,8.18a.2.2,0,0,0,.28,0,.19.19,0,0,0,0-.27L131,148l8.89,7.22a.21.21,0,0,0,.28,0,.19.19,0,0,0,0-.27l-8.64-7.51,9.68,6.15a.2.2,0,0,0,.28-.05.2.2,0,0,0-.06-.27L132,146.76l10.34,5a.2.2,0,0,0,.27-.09.19.19,0,0,0-.09-.26l-10.16-5.34,10.86,3.78a.19.19,0,0,0,.25-.11.19.19,0,0,0-.11-.25l-10.73-4.15,11.24,2.52a.2.2,0,1,0,.1-.38l-11.15-2.89,11.46,1.22a.2.2,0,1,0,.05-.39Z"/><path class="cls-12" d="M140.14,131.76l-.56-.57-.08-.06-.07-.06-.16-.13-.31-.24h0c-.32,0-.62-.11-.93-.17l-.93-.16-1.86-.33-1.86-.28-1.87-.26h0l-1.29.09c-.44,0-.87.06-1.3.07l-.65,0h-1.65l-.32,0-.64,0c-.22,0-.44,0-.65-.06-.44-.06-.88-.1-1.31-.17l-2.55-.41h-1l-.36,0c-.23,0-.48.05-.72.07l-.74.08-1.49.18-.38,0-.38,0-.38,0h-.21a1.09,1.09,0,0,1-.26,0l.28,0-.55.32-.52.38,0,0h0l-.07.06-.13.11-.25.22c-.18.15-.33.3-.49.46-.32.29-.62.62-.93.94s-.59.67-.86,1-.53.71-.79,1.08-.48.74-.69,1.13-.42.79-.62,1.19-.37.81-.52,1.23a16.61,16.61,0,0,0-1.1,5.21,16.92,16.92,0,0,0,1.49,7.83,16.31,16.31,0,0,0,1.3,2.35c.24.38.51.73.78,1.09s.56.7.86,1a16.93,16.93,0,0,0,1.94,1.85,18.75,18.75,0,0,0,4.58,2.76,19.41,19.41,0,0,0,2.54.85l.66.15.32.07.33.05.66.11.67.09c.22,0,.45,0,.67.05l.33,0h1l.66,0a16.93,16.93,0,0,0,2.65-.3,18.24,18.24,0,0,0,5-1.74,20.06,20.06,0,0,0,2.26-1.38,23.72,23.72,0,0,0,2-1.7,19.21,19.21,0,0,0,1.76-2,18.67,18.67,0,0,0,1.45-2.21,17.34,17.34,0,0,0,1.12-2.39,18.42,18.42,0,0,0,.76-2.53,18,18,0,0,0,.39-2.62l0-.68v-.66c0-.22,0-.44,0-.66s0-.45,0-.67a16.85,16.85,0,0,0-.41-2.64,15.23,15.23,0,0,0-.84-2.55,15.52,15.52,0,0,0-1.23-2.4,18,18,0,0,0-1.59-2.19Zm.07-.06a19,19,0,0,1,2.94,4.57c.2.41.36.83.53,1.26s.31.85.43,1.29a17.64,17.64,0,0,1,.57,2.67c0,.23.06.46.08.68s.05.46.05.69l0,.69v.68a19.38,19.38,0,0,1-.25,2.74,17.43,17.43,0,0,1-1.79,5.23,18.81,18.81,0,0,1-3.33,4.46,19.61,19.61,0,0,1-2.15,1.81,20.08,20.08,0,0,1-2.39,1.46,18.6,18.6,0,0,1-5.33,1.78,18.84,18.84,0,0,1-2.81.28h-.71l-.69,0h-.35l-.35,0-.7-.07a18.55,18.55,0,0,1-5.39-1.5,18,18,0,0,1-4.67-3,20,20,0,0,1-1.93-2c-.3-.35-.57-.72-.85-1.09s-.52-.75-.76-1.14a19.15,19.15,0,0,1-2.15-5,18.94,18.94,0,0,1-.61-5.4,17.53,17.53,0,0,1,.28-2.71c.07-.46.18-.9.28-1.34s.23-.89.39-1.32.31-.86.48-1.29.37-.84.59-1.24.44-.81.67-1.21.5-.78.77-1.15.57-.73.85-1.09.61-.7,1-1c.17-.16.33-.33.5-.48l.25-.23.13-.12.06-.05,0,0,0,0,0,0,.58-.44.63-.38.09-.05h.19l.11,0h.16l.36,0,.37,0,.36,0,1.48-.18.76-.07c.25,0,.5-.05.76-.06l.39,0h1.2l2.54.5c.21.05.42.08.63.12l.62.11c.21,0,.42.07.64.09l.64.08.32,0h.31l.64,0c.21,0,.42,0,.64,0h1.93l1.29,0h0l3.71.71,1.84.38.93.18c.31,0,.62.13.92.17h0l.31.25.16.13.08.07.08.06.55.58Z"/><path class="cls-13" d="M133.32,143.83a7.16,7.16,0,1,1-6.76-7.42A7.12,7.12,0,0,1,133.32,143.83Z"/><path class="cls-14" d="M138.8,141.8a5.2,5.2,0,0,1-6.34,1.69c-3.11-1.24-4.79-4.74-3-7.5s5.71-2.77,8.18-.55A5,5,0,0,1,138.8,141.8Z"/><path class="cls-15" d="M79.15,153.63l1.29.24,1.47.3,1.47.31c.49.1,1,.2,1.46.32l2.92.69,1.45.35,1.45.41,2.89.81.72.2.37.1.18.06.09,0,.1,0,.71.24.72.26L99.23,159l1.4.5c.46.17.92.32,1.39.48,1.86.63,3.75,1.17,5.65,1.63s3.83.81,5.77,1.09l1.45.18,1.46.13c1,.1,2,.13,2.93.19.48,0,1,0,1.46,0h1.47l1.47,0c.24,0,.49,0,.73,0l.73-.05,1.47-.08c.24,0,.49,0,.73-.07l.73-.07,1.47-.15,1.45-.21c.49-.07,1-.13,1.46-.22l1.45-.27.73-.13.72-.15,1.44-.34c.48-.11,1-.21,1.44-.34l1.42-.4,1.43-.41,1.4-.47,1.4-.48c.24-.07.47-.16.7-.25l.69-.27,1.38-.55.69-.27.68-.3,2.7-1.23,2.64-1.36.66-.34.64-.37,1.28-.75,1.28-.74c.43-.25.84-.53,1.26-.79.84-.53,1.66-1.07,2.49-1.61l2.42-1.71,1.2-.87,1.17-.91,2.33-1.82,0,.9-2.65-1.73-2.7-1.65c-.91-.54-1.83-1.06-2.74-1.59s-1.85-1-2.78-1.5l-2.81-1.44-1.42-.67c-.48-.23-.95-.47-1.43-.68l-1.44-.64-.72-.32-.73-.29-1.46-.6c-.48-.2-1-.37-1.47-.56-1.95-.75-4-1.38-6-2l-1.52-.4-.76-.2-.76-.17-1.53-.35-1.54-.29c-.51-.11-1-.17-1.54-.26s-1-.16-1.55-.22l-1.55-.18-1.56-.14a58.94,58.94,0,0,0-6.23-.13,53.55,53.55,0,0,0-6.2.61,50.19,50.19,0,0,0-6.07,1.35,48.86,48.86,0,0,0-5.87,2.11,54.86,54.86,0,0,0-5.58,2.8c-.9.53-1.79,1.07-2.66,1.65l-.65.43-.65.44-1.28.91c-1.68,1.24-3.3,2.57-4.85,4-.78.71-1.54,1.43-2.28,2.17s-1.47,1.5-2.17,2.28A51.66,51.66,0,0,0,79.15,153.63Zm-.31,0a43.42,43.42,0,0,1,3.54-5.28,56.39,56.39,0,0,1,4.2-4.82c.74-.77,1.51-1.51,2.3-2.24.39-.36.79-.71,1.2-1.07s.81-.7,1.23-1,.83-.68,1.26-1l.64-.49.65-.48c.87-.63,1.77-1.23,2.68-1.81a49.57,49.57,0,0,1,11.75-5.52,51.59,51.59,0,0,1,6.35-1.56,52.88,52.88,0,0,1,6.51-.71,54.83,54.83,0,0,1,6.54.15l1.63.15,1.62.22c.54.07,1.08.17,1.61.26s1.08.17,1.6.29l1.6.34c.53.11,1.05.25,1.58.38,1.06.24,2.09.57,3.13.86,2.06.65,4.11,1.34,6.11,2.16.5.2,1,.39,1.49.61l1.48.65.74.32.73.35,1.45.69c1,.47,1.91,1,2.86,1.48l2.8,1.57c.92.56,1.84,1.11,2.74,1.67s1.8,1.15,2.69,1.75l2.64,1.81,2.59,1.87.63.45-.61.44-2.44,1.73-1.21.87-1.25.83-2.48,1.66c-.85.52-1.7,1-2.54,1.57-.42.26-.84.54-1.27.79l-1.3.74L155,155l-.64.37-.67.35-2.64,1.41-2.69,1.31-.68.32-.68.3-1.38.61-.68.3-.69.29-1.4.56-1.4.55-1.42.49-1.43.5c-.47.16-1,.29-1.44.44l-1.45.43-.73.19-.73.18-1.47.37c-.5.12-1,.2-1.49.3l-1.49.29-1.5.22c-.5.07-1,.16-1.51.21l-1.51.14-.76.07-.76,0-1.52.06-.38,0h-1.15c-.5,0-1,0-1.52,0l-1.52-.08-.76,0-.76-.08c-.51,0-1-.09-1.52-.16l-1.51-.21c-.5-.06-1-.16-1.5-.25s-1-.16-1.49-.28l-1.49-.32-1.47-.37q-2.94-.79-5.78-1.85c-1.89-.68-3.73-1.51-5.55-2.28l-.66-.28-.7-.27-1.39-.48-2.81-1-1.4-.48-1.42-.45-2.84-.9c-.95-.32-1.9-.59-2.85-.88l-1.43-.45-1.58-.47Z"/><path class="cls-16" d="M92.21,140.52c-2.07,1.79-6.14,12.86,4.38,17.52,0,0-3.93-1.31-9.51-2.65s-7.92-1.76-7.92-1.76C82.62,147.35,92.21,140.52,92.21,140.52Z"/><path class="cls-17" d="M79.35,153.58s33.9-31.7,87.14-7.1l1.62-1s-25.21-18.36-47.86-15.74S82.15,147.14,79.35,153.58Z"/><path class="cls-18" d="M96.76,74C89.16,80.88,80.3,83,77,78.62s.1-13.42,7.69-20.29,16.45-8.95,19.8-4.62S104.35,67.13,96.76,74Z"/><g class="cls-19"><path class="cls-9" d="M69.82,91.72c-1.85,5.49-6.15,8.69-9.61,7.14s-4.76-7.25-2.91-12.74,6.15-8.69,9.61-7.14S71.67,86.23,69.82,91.72Z"/></g><path class="cls-20" d="M130.35,19.68c-59.72,0-108.13,48.2-108.13,107.66S70.63,235,130.35,235s108.13-48.2,108.13-107.66S190.07,19.68,130.35,19.68ZM130.15,218c-49.63-.32-91.6-41.43-91-91.55.62-49.42,42.43-88.95,91-89.24,49.27-.3,92.12,39.91,92.12,90.39S179.64,218.28,130.15,218Z"/><path class="cls-21" d="M139.42,24.77c.13,1.29-13.14,2-29.41,7.23-6.26,2-30.18,9.89-49.65,28.56C37.91,82.09,32.14,107.64,30.62,107c-1.32-.57,2.16-20.24,14.79-39.25,1.89-2.85,24.08-35.2,63.49-42.79C124.38,22,139.29,23.4,139.42,24.77Z"/><path class="cls-22" d="M89.51,35.9c.28.65-2.53,2.15-9.53,6.64-14.14,9.08-17.71,12.6-18.36,11.94-.92-.91,4.53-9.51,13.6-14.59C81.7,36.25,89.08,34.93,89.51,35.9Z"/><path class="cls-23" d="M92,32.82c-.58.75-1.13,2.11-.44,2.58,1.64,1.13,9.8-3,9.36-4.19C100.59,30.24,94.15,30,92,32.82Z"/><path class="cls-24" d="M218,92.6c.36,8.29,2.06,13,3.18,18.41h0a99.44,99.44,0,0,1,.32,26c-1,8.11-4.77,39.46-31.43,61.89-27.69,23.3-61.74,21.56-76.8,18.73a112.24,112.24,0,0,1-32.37-11.43c-1.92-1.11-7.53-4.65-18.73-11.74-13.7-8.66-15.5-9.88-15.84-9.49-1.19,1.35,13.17,24.38,37.42,36.79,43.75,22.38,94.34,2.89,110.45-10.48,14.47-12,25.36-29.21,25.36-29.21.22-.34.55-.86,1-1.57a105.48,105.48,0,0,0,14.29-37.77,101.53,101.53,0,0,0-.32-31.74,80,80,0,0,0-6-21.27c-1.39-3.12-5.63-12.65-8.25-12.06C217.42,78.33,217.94,90.46,218,92.6Z"/></svg>