<svg id="Layer_1" data-name="Layer 1" xmlns="http://www.w3.org/2000/svg" xmlns:xlink="http://www.w3.org/1999/xlink" viewBox="0 0 256 256"><defs><style>.cls-1{fill:#ebe9ff;}.cls-2{fill:#340962;}.cls-3{clip-path:url(#clip-path);}.cls-4{fill:url(#linear-gradient);}.cls-5{stroke:#6d2929;fill:url(#linear-gradient-2);}.cls-17,.cls-5{stroke-miterlimit:10;}.cls-6{opacity:0.17;}.cls-7{fill:url(#linear-gradient-3);}.cls-8{fill:url(#linear-gradient-4);}.cls-9{fill:url(#linear-gradient-5);}.cls-10{fill:url(#linear-gradient-6);}.cls-11{fill:url(#linear-gradient-7);}.cls-12{fill:#e8a6a6;}.cls-13{fill:#a04d4d;}.cls-14,.cls-15{fill:#fff;}.cls-15,.cls-16{opacity:0.7;}.cls-17{fill:#ffb01d;stroke:#a04e00;stroke-width:3px;}.cls-18{fill:#ffeb45;}.cls-19{fill:#e7fcff;}.cls-20{fill:#f9f0c7;}.cls-21{fill:#bb5000;opacity:0.47;}</style><clipPath id="clip-path"><circle class="cls-1" cx="128.14" cy="128.16" r="85.5"/></clipPath><linearGradient id="linear-gradient" x1="66.91" y1="136.98" x2="192.09" y2="136.98" gradientUnits="userSpaceOnUse"><stop offset="0" stop-color="#ffc7b8"/><stop offset="0.09" stop-color="#fec3b4"/></linearGradient><linearGradient id="linear-gradient-2" x1="67.22" y1="136.98" x2="191.77" y2="136.98" xlink:href="#linear-gradient"/><linearGradient id="linear-gradient-3" x1="144.52" y1="114.58" x2="159.09" y2="114.58" gradientUnits="userSpaceOnUse"><stop offset="0" stop-color="#ffc7b8"/><stop offset="0.09" stop-color="#993f3f"/></linearGradient><linearGradient id="linear-gradient-4" x1="137.09" y1="176.3" x2="191.82" y2="176.3" xlink:href="#linear-gradient-3"/><linearGradient id="linear-gradient-5" x1="71.39" y1="109.62" x2="91.86" y2="109.62" xlink:href="#linear-gradient-3"/><linearGradient id="linear-gradient-6" x1="125.37" y1="91.29" x2="133.91" y2="91.29" xlink:href="#linear-gradient-3"/><linearGradient id="linear-gradient-7" x1="97.55" y1="92.13" x2="110.23" y2="92.13" xlink:href="#linear-gradient-3"/></defs><ellipse class="cls-2" cx="128.37" cy="128" rx="94.06" ry="93.65"/><circle class="cls-1" cx="128" cy="128" r="85.45" transform="translate(-53.02 128) rotate(-45)"/><circle class="cls-1" cx="128.14" cy="128.16" r="85.5"/><g class="cls-3"><path class="cls-4" d="M187.79,136.31a8.47,8.47,0,0,0-2.8-.45c-3.69,0-7.79,2-10.89,4.67-4,3.41-8,8.27-8.27,8.27s-2.93,3.76-4.74,5.49-3.38,3.53-3.61,3.53-2.84,1.43-3.76,1.43c-.16,0-.27-.05-.3-.15-.23-.67-2.18-5-3.08-7.76-.72-2.18-3.18-9.78-2.58-12S150,128.56,150,127c0-1.35,1.45-7.36,2.34-10.61.73-2.68,1.63-8.09,2.3-11.18s1.73-12.08,1.73-12.08.53-.33,2.18-9.13,1.23-13.91-4.53-15a5.26,5.26,0,0,0-1.1-.11c-3.88,0-6.7,4.1-8.28,9.41a92.17,92.17,0,0,0-2.56,11.43,71,71,0,0,1-1.95,7.45c-.6,1.2-2.26,7.89-2.33,8.19s-2,7.07-2.49,8-1.57,5.64-2.48,8.88c-.34,1.22-1,1.66-1.76,1.66a2.8,2.8,0,0,1-2.53-2c-.07-1.27,2.86-20.38,2.83-21.36s.41-6.76.57-9.25,1.18-10.15,1.19-10.6,1-7.22,1.07-12c0-9.76-3.79-11.21-6.63-11.27h-.2c-5.85,0-7.43,5.16-8,8.72s-1.49,14.34-1.43,14.94-.58,4.9-.88,6.78-1.73,8.87-1.73,9.55-1,8.27-1.36,9.7-.6,9.86-.9,11.66a1.61,1.61,0,0,1-1.58,1.5,1,1,0,0,1-.9-.45c-.3-.67-2-14.74-2.48-16.77s-.53-5.56-.9-8.57-1.21-8.5-1.28-9.48.15-2.71-.38-11C105,66.78,103.74,62.82,99,62.82a10.69,10.69,0,0,0-1.79.16c-6,1-5.82,10.38-5.82,12.49s-.2,9.93-.12,11.06.52,7.52.6,9.1.22,9.32.52,11.65,2.64,19,2.49,19.56a2.2,2.2,0,0,1-1.83,1.34,1.21,1.21,0,0,1-.58-.14c-1-.53-3.39-8.5-4.14-10.45s-4.21-9.63-4.81-10.76-.83-4.44-3.69-10.68c-2.24-4.89-5.2-6.08-7.15-6.08a3.92,3.92,0,0,0-1.35.22c-5.49,2-4.66,6.39-3.91,10.15s3.91,10.45,3.91,10.45,1.43,4.14,2.11,6a48.33,48.33,0,0,1,2.18,7.22c.08,1.12,4.51,15,4.59,15.41A61.39,61.39,0,0,1,82,155.27c-.3,8,4.12,22.86,4.12,23a43,43,0,0,1,.84,4.66c.56,4.86,4.29,14.9,4.29,14.9s-.15,3.68-.45,6.77a55.71,55.71,0,0,1-1.47,11.76h51.58c-.8-7-.33-9.76-.62-12.52a15.68,15.68,0,0,1,2.11-7.21c.65-1,5.71-4.59,8.27-6s15-11.66,16.84-13.69,5.42-9.78,6.92-11.58,7.15-8.8,8-9.78c1.08-1.29,6.67-6.43,8.87-9.93C193.66,141.8,190.35,137.22,187.79,136.31Zm2.92,9c-1.55,2.47-4.83,5.79-7,8-.83.84-1.49,1.5-1.81,1.88s-1.93,2.36-3.55,4.36c-1.79,2.2-3.64,4.49-4.42,5.42a40.27,40.27,0,0,0-3,5.11A43.62,43.62,0,0,1,167,176.5c-1.92,2.08-14.25,12.2-16.69,13.56s-7.72,5.08-8.49,6.23a16.38,16.38,0,0,0-2.21,7.63,30.27,30.27,0,0,1,.11,3.29,73.92,73.92,0,0,0,.44,8.53H90.12a49.89,49.89,0,0,0,1.21-9.83c0-.55,0-1,.07-1.24.3-3.07.45-6.77.45-6.81v-.12l0-.12c0-.1-3.71-10-4.25-14.75a35.56,35.56,0,0,0-.76-4.32c0-.13-.06-.26-.08-.32a4.47,4.47,0,0,0-.18-.71c-3.47-12.56-4.06-19-3.94-22.23a59.36,59.36,0,0,0-1.66-15.6c0-.14-.07-.29-.08-.32s-.26-.94-1.18-3.91c-1.17-3.75-3.34-10.73-3.4-11.45a48.38,48.38,0,0,0-2.22-7.4c-.66-1.77-2.08-5.88-2.1-5.92v-.07c0-.06-3.14-6.66-3.86-10.3s-1.52-7.58,3.5-9.44a3.31,3.31,0,0,1,1.13-.18,5.3,5.3,0,0,1,3.1,1.09,11.32,11.32,0,0,1,3.48,4.63,48,48,0,0,1,3.06,8.69,9.46,9.46,0,0,0,.64,2c.62,1.15,4.06,8.81,4.78,10.68.19.49.49,1.4.84,2.45,2,6.08,2.82,8,3.61,8.35a2,2,0,0,0,.86.2A2.77,2.77,0,0,0,95.52,127c.1-.4-.18-3-2-16.63-.2-1.49-.36-2.66-.43-3.16-.22-1.69-.36-6.47-.45-9.33,0-1,0-1.86-.07-2.27-.06-1.24-.35-5.45-.51-7.71,0-.65-.08-1.16-.09-1.41-.05-.66,0-4,.06-6.7,0-1.8.07-3.49.07-4.31v-.2c0-7.14,1.76-11.07,5.28-11.66A10.65,10.65,0,0,1,99,63.45,4.31,4.31,0,0,1,103.3,66c.83,1.65,1.32,4.18,1.58,8.21.38,6,.37,8.5.36,9.85,0,.51,0,.85,0,1.14,0,.54.29,2.34.58,4.41.25,1.74.52,3.7.7,5.1.15,1.21.25,2.52.35,3.79a39.42,39.42,0,0,0,.56,4.84c.21.94.72,4.69,1.22,8.32.84,6.2,1.13,8.2,1.3,8.57a1.56,1.56,0,0,0,1.48.82,2.27,2.27,0,0,0,2.21-2c.14-.85.26-3,.39-5.31.14-2.61.31-5.57.5-6.29.37-1.44,1.37-9.09,1.37-9.87,0-.38.56-3.28,1-5.4.32-1.69.63-3.28.75-4.05.17-1,1-6.15.89-6.93S119.37,70,120,66.41c.91-5.51,3.33-8.19,7.39-8.19h.19A4.88,4.88,0,0,1,131.45,60c1.41,1.71,2.11,4.69,2.09,8.86a98.2,98.2,0,0,1-.92,10.72c-.11.81-.14,1.1-.14,1.22s-.16,1.39-.32,2.68c-.32,2.66-.77,6.3-.87,7.9,0,.7-.12,1.68-.19,2.71-.19,2.76-.42,5.87-.39,6.61,0,.46-.64,5-1.21,9-1,7-1.65,11.62-1.61,12.33.07,1.22,1.73,2.56,3.16,2.56.67,0,1.86-.27,2.37-2.12.31-1.11.64-2.39,1-3.62a45.5,45.5,0,0,1,1.48-5.13c.6-1.1,2.52-8.13,2.54-8.19v-.06c.8-3.19,1.87-7.2,2.27-8a65.55,65.55,0,0,0,2-7.6v0a92.25,92.25,0,0,1,2.54-11.34c1.7-5.69,4.49-9,7.67-9a5.52,5.52,0,0,1,1,.1c4.79.91,5.84,4.65,4,14.28-1.28,6.83-1.87,8.44-2,8.79l-.13.08,0,.3c0,.09-1.05,9-1.72,12-.26,1.2-.55,2.72-.86,4.34-.49,2.55-1,5.18-1.43,6.81-.68,2.46-2.41,9.19-2.36,10.79.05,1.44-1.6,9.82-2.2,12.08-.45,1.66.43,5.83,2.58,12.4.62,1.88,1.71,4.45,2.43,6.16.32.75.59,1.41.66,1.6a.86.86,0,0,0,.9.58,10.35,10.35,0,0,0,3.25-1.15l.62-.28c.34,0,.65-.37,1.84-1.6.59-.61,1.33-1.37,2.1-2.1a48.25,48.25,0,0,0,3.43-4c.45-.56,1-1.2,1.16-1.4a10.57,10.57,0,0,0,1.53-1.54,80.28,80.28,0,0,1,6.86-6.83c3.34-2.83,7.26-4.52,10.48-4.52a7.73,7.73,0,0,1,2.59.42,6.78,6.78,0,0,1,3.54,4A4.94,4.94,0,0,1,190.71,145.3Z"/><path class="cls-5" d="M191.42,140.79a6.19,6.19,0,0,0-.41-.95,6.8,6.8,0,0,0-3.32-3.23,8.18,8.18,0,0,0-2.7-.44c-3.29,0-7.28,1.72-10.68,4.6a79.58,79.58,0,0,0-6.89,6.85c-1.06,1.16-1.31,1.42-1.47,1.48s-.72.83-1.24,1.48a44.44,44.44,0,0,1-3.4,3.94c-.77.74-1.51,1.5-2.11,2.11-1.2,1.25-1.45,1.49-1.68,1.51l-.69.3a10.38,10.38,0,0,1-3.11,1.12c-.42,0-.56-.22-.6-.36s-.33-.83-.67-1.62c-.72-1.7-1.8-4.27-2.41-6.14-1.48-4.48-3.12-10.23-2.59-12.22a103,103,0,0,0,2.22-12.17c0-1.55,1.72-8.42,2.34-10.7.45-1.63,1-4.27,1.44-6.83.31-1.61.6-3.14.86-4.33.67-3,1.72-12,1.73-12l0-.15.07,0c.12-.21.7-1.52,2.09-9,1.83-9.73.67-13.7-4.28-14.65a5.31,5.31,0,0,0-1-.1c-3.33,0-6.23,3.34-8,9.18a92.51,92.51,0,0,0-2.55,11.41,68.32,68.32,0,0,1-2,7.52,75.53,75.53,0,0,0-2.29,8.08l0,0c0,.07-1.94,7.06-2.51,8.12a41.39,41.39,0,0,0-1.5,5.2c-.32,1.23-.65,2.51-.95,3.61-.46,1.65-1.49,1.9-2.07,1.9a3.08,3.08,0,0,1-2.84-2.27c0-.67.64-5.51,1.6-12.26.61-4.27,1.24-8.69,1.22-9.1,0-.72.19-3.83.38-6.57.08-1,.15-2,.19-2.72.1-1.59.55-5.23.88-7.89.16-1.31.31-2.55.31-2.7s.05-.44.14-1.19a98.26,98.26,0,0,0,.93-10.76c0-7.28-2-10.86-6.31-10.94h-.2c-4.24,0-6.76,2.77-7.7,8.46-.61,3.67-1.48,14.35-1.43,14.86.08.78-.85,6.61-.89,6.86-.12.76-.43,2.36-.75,4-.43,2.27-1,5.09-1,5.46,0,.77-1,8.36-1.36,9.78-.2.76-.36,3.74-.51,6.36-.13,2.29-.25,4.44-.39,5.27a1.91,1.91,0,0,1-1.89,1.76,1.25,1.25,0,0,1-1.19-.63c-.16-.35-.53-3-1.28-8.48-.5-3.63-1-7.39-1.22-8.35a38.65,38.65,0,0,1-.55-4.8c-.1-1.27-.21-2.58-.36-3.8-.17-1.4-.45-3.37-.69-5.1-.3-2.07-.55-3.86-.59-4.39,0-.28,0-.62,0-1.12,0-1.35,0-3.87-.36-9.87C104.67,66,103.06,63.14,99,63.14a10.14,10.14,0,0,0-1.74.16c-3.7.62-5.57,4.65-5.55,12v.2c0,.82,0,2.51-.06,4.3-.06,2.84-.11,6.06-.07,6.73,0,.25,0,.76.1,1.41.15,2.26.45,6.47.5,7.7,0,.41.05,1.23.08,2.27.08,2.86.23,7.65.45,9.36.06.5.22,1.65.43,3.16,1.61,11.8,2.14,16.12,2,16.51a2.47,2.47,0,0,1-2.13,1.58,1.61,1.61,0,0,1-.72-.16c-.76-.39-1.76-3.05-3.45-8.17-.35-1-.65-2-.84-2.46-.73-1.88-4.18-9.56-4.8-10.72a9.26,9.26,0,0,1-.61-2,49.24,49.24,0,0,0-3.08-8.75c-2.44-5.32-5.62-5.9-6.87-5.9a3.5,3.5,0,0,0-1.23.2c-5.28,2-4.45,6.12-3.72,9.8s3.86,10.31,3.89,10.38h0v0s1.44,4.15,2.11,5.93A50.46,50.46,0,0,1,76,124c0,.73,2.15,7.49,3.4,11.52.84,2.69,1.16,3.72,1.18,3.87s0,.16.08.34a59.63,59.63,0,0,1,1.66,15.52c-.12,3.23.46,9.73,3.95,22.33a4.17,4.17,0,0,1,.17.65s0,.19.08.36a37.69,37.69,0,0,1,.76,4.29c.54,4.76,4.23,14.72,4.27,14.82l0,.06v.06s-.16,3.73-.46,6.79c0,.27,0,.7-.06,1.26a49.47,49.47,0,0,1-1.31,10.16h50.82a72.71,72.71,0,0,1-.47-8.85,30.75,30.75,0,0,0-.12-3.32,15.93,15.93,0,0,1,2.17-7.43c.69-1,5.73-4.64,8.37-6.12,2.46-1.37,14.84-11.54,16.77-13.63a43.13,43.13,0,0,0,3.94-6.51,41.54,41.54,0,0,1,3-5.06c.78-.93,2.63-3.21,4.43-5.42,1.61-2,3.14-3.88,3.54-4.36s1-1,1.79-1.85l1.22-1.24a48.1,48.1,0,0,0,5.84-6.8A5.29,5.29,0,0,0,191.42,140.79Z"/><g class="cls-6"><path class="cls-7" d="M155.39,84.17c-1.4,7.43-2,8.75-2.09,9l-.08,0v.15c0,.09-1.06,9-1.73,12.05-.26,1.19-.55,2.72-.86,4.33-.49,2.56-1,5.2-1.44,6.83-.63,2.29-2.39,9.15-2.35,10.7s-1.61,9.9-2.21,12.17c-.53,2,1.11,7.75,2.58,12.22.62,1.87,1.7,4.44,2.42,6.14.33.79.6,1.42.67,1.63s.18.35.6.35a6.8,6.8,0,0,0,2.16-.68l-.55-1.3c-.72-1.7-1.8-4.27-2.41-6.14-1.48-4.47-3.12-10.22-2.59-12.22.61-2.27,2.27-10.71,2.22-12.17s1.72-8.41,2.34-10.7c.45-1.63.95-4.27,1.44-6.83.31-1.61.6-3.14.87-4.33.66-3,1.71-12,1.72-12.05l0-.15.07,0c.12-.2.7-1.52,2.09-9,1.83-9.73.67-13.7-4.28-14.65a5.31,5.31,0,0,0-1-.1,5,5,0,0,0-1.38.2C156.13,70.73,157.16,74.75,155.39,84.17Z"/><path class="cls-8" d="M191.47,141a6.07,6.07,0,0,0-.41-.94,6.71,6.71,0,0,0-3.32-3.23,7.92,7.92,0,0,0-2.7-.44,10.87,10.87,0,0,0-1.48.11,5.87,5.87,0,0,1,4.62,3.56,8.88,8.88,0,0,1,.41.94,5.33,5.33,0,0,1-.44,4.68,47.54,47.54,0,0,1-5.84,6.8l-1.22,1.24c-.83.83-1.48,1.49-1.79,1.86s-1.93,2.35-3.55,4.35c-1.79,2.21-3.64,4.49-4.42,5.43a40.23,40.23,0,0,0-3,5,43.42,43.42,0,0,1-3.93,6.52c-1.93,2.08-14.31,12.25-16.77,13.62-2.64,1.48-7.68,5.08-8.38,6.13a16,16,0,0,0-2.16,7.42,31,31,0,0,1,.11,3.32,73.21,73.21,0,0,0,.48,8.85h2.88a72.71,72.71,0,0,1-.47-8.85,30.85,30.85,0,0,0-.12-3.32,15.89,15.89,0,0,1,2.17-7.42c.69-1.05,5.73-4.65,8.37-6.13C153,189.15,165.37,179,167.3,176.9a42.5,42.5,0,0,0,3.94-6.52,40.46,40.46,0,0,1,3-5c.78-.94,2.63-3.22,4.43-5.43,1.62-2,3.15-3.88,3.55-4.35s1-1,1.78-1.86l1.22-1.24a46.91,46.91,0,0,0,5.84-6.8A5.29,5.29,0,0,0,191.47,141Z"/><path class="cls-9" d="M76.74,96.47a47.36,47.36,0,0,1,3.08,8.75,9.85,9.85,0,0,0,.62,1.94c.61,1.16,4.07,8.84,4.79,10.72.19.5.5,1.41.84,2.47,1.7,5.11,2.69,7.78,3.45,8.16a1.65,1.65,0,0,0,.72.17,2.37,2.37,0,0,0,1.62-.77,45.42,45.42,0,0,1-2.9-7.56c-.35-1.06-.65-2-.84-2.47-.72-1.88-4.18-9.56-4.8-10.72a10,10,0,0,1-.61-1.94,49,49,0,0,0-3.08-8.75c-2.44-5.33-5.62-5.9-6.87-5.9a3.6,3.6,0,0,0-1.23.19l-.14.06C72.91,91.3,75,92.69,76.74,96.47Z"/><path class="cls-10" d="M131,69a100.84,100.84,0,0,1-.93,10.75c-.1.75-.14,1.08-.14,1.2s-.16,1.38-.32,2.7c-.32,2.65-.77,6.29-.87,7.89-.05.7-.11,1.66-.19,2.71-.19,2.74-.41,5.85-.38,6.57,0,.41-.62,4.83-1.23,9.1-1,6.75-1.63,11.59-1.59,12.27a3.07,3.07,0,0,0,2.84,2.26,1.84,1.84,0,0,0,1.31-.53,2.57,2.57,0,0,1-1.27-1.73c0-.68.64-5.52,1.6-12.27.61-4.27,1.24-8.69,1.22-9.1,0-.72.19-3.83.39-6.57.07-1.05.14-2,.18-2.71.11-1.6.55-5.24.88-7.89.16-1.32.31-2.56.31-2.7s0-.45.14-1.2A95.84,95.84,0,0,0,133.91,69c0-7.29-2-10.87-6.31-11h-.2a8.27,8.27,0,0,0-1.52.13C129.36,58.9,131.05,62.45,131,69Z"/><path class="cls-11" d="M102.36,74.39c.38,6,.37,8.52.36,9.88,0,.5,0,.83,0,1.11,0,.53.29,2.32.58,4.39.25,1.74.52,3.7.7,5.1.15,1.22.25,2.53.35,3.8a40.67,40.67,0,0,0,.55,4.8c.22,1,.73,4.72,1.23,8.35.75,5.5,1.12,8.13,1.28,8.48a1.25,1.25,0,0,0,1.19.64,1.89,1.89,0,0,0,1.61-.94c-.19-.89-.56-3.48-1.2-8.18-.49-3.63-1-7.39-1.22-8.35a38.65,38.65,0,0,1-.55-4.8c-.1-1.27-.2-2.58-.36-3.8-.17-1.4-.45-3.36-.69-5.1-.29-2.07-.55-3.86-.59-4.39,0-.28,0-.61,0-1.11,0-1.36,0-3.87-.36-9.88-.52-8.17-2.14-11.07-6.16-11.07a10.9,10.9,0,0,0-1.54.13C100.6,64.09,101.9,67.2,102.36,74.39Z"/></g><path class="cls-12" d="M184.51,152.2c-.71-.65-2.06-2.19-1.3-3.89,1-2.26,4.12-5.78,6.38-7.94.13.27,1.64.89,1.73,1.15.33.95,0,2.14-1.12,4A44.72,44.72,0,0,1,184.51,152.2Z"/><path class="cls-13" d="M184.51,152.2a4.78,4.78,0,0,1-1.25-1.36,3.1,3.1,0,0,1-.49-1.85,5.26,5.26,0,0,1,.68-1.8c.3-.55.64-1.07,1-1.59a32.12,32.12,0,0,1,2.27-2.92c.81-.92,1.66-1.82,2.54-2.67l.8.14c-.08-.12,0,0,0,0l.17.1.39.23a7.59,7.59,0,0,1,.88.53.78.78,0,0,1,.31.41,2.86,2.86,0,0,1,.07.28,2.76,2.76,0,0,1,.06.57,3.79,3.79,0,0,1-.15,1.07,11.5,11.5,0,0,1-1.95,3.42A42.26,42.26,0,0,1,184.51,152.2Zm0,0c.8-1,1.63-1.93,2.41-2.93s1.58-2,2.28-3a12,12,0,0,0,1.65-3.22,2.8,2.8,0,0,0,.11-.8,2.2,2.2,0,0,0-.05-.37,1.21,1.21,0,0,0,0-.18c0-.09,0,.09,0,.08l0,0c-.18-.13-.48-.28-.75-.43l-.43-.25-.23-.15a.91.91,0,0,1-.33-.35l.79.15a57.31,57.31,0,0,0-4.88,5.33c-.37.47-.73.95-1.06,1.45a4.84,4.84,0,0,0-.74,1.54A3.8,3.8,0,0,0,184.51,152.2Z"/><path class="cls-12" d="M102.28,72.93a2.54,2.54,0,0,1-2.65,2.69H96.22a2.54,2.54,0,0,1-2.64-2.7L94,67.24a2.4,2.4,0,0,1,2.5-2h2.8a2.39,2.39,0,0,1,2.5,2Z"/><path class="cls-13" d="M102.28,72.93a2.61,2.61,0,0,1-2.53,2.76l-2.07.09a14.9,14.9,0,0,1-2.12,0,2.9,2.9,0,0,1-1.9-1.2,2.69,2.69,0,0,1-.45-1.09,2.43,2.43,0,0,1,0-.6l0-.52c.06-1.38.15-2.76.25-4.13l.09-1A2.42,2.42,0,0,1,94,66a3,3,0,0,1,2.07-1.16,7.91,7.91,0,0,1,1.09,0l1,0,1,0a3.2,3.2,0,0,1,1.1.21,2.55,2.55,0,0,1,1.55,1.53,3.66,3.66,0,0,1,.12,1.07l0,1C102.08,70.17,102.18,71.55,102.28,72.93Zm0,0c-.12-1.38-.24-2.75-.4-4.13l-.13-1a3.28,3.28,0,0,0-.19-1,2.11,2.11,0,0,0-1.41-1.16,2.63,2.63,0,0,0-.93-.09l-1,0-1,.05c-.35,0-.71,0-1,.06a2.2,2.2,0,0,0-1.41.87,1.55,1.55,0,0,0-.25.72l-.07,1c-.12,1.38-.24,2.75-.4,4.13L94,73c0,.14,0,.29,0,.43a2.17,2.17,0,0,0,1.69,1.91,15.91,15.91,0,0,0,2,.16c.69,0,1.38.07,2.06.08a2.63,2.63,0,0,0,1.85-.75A2.43,2.43,0,0,0,102.28,72.93Z"/><path class="cls-12" d="M77,98.88a2.46,2.46,0,0,1-1.59,3.1l-2.78.86a2.25,2.25,0,0,1-2.88-1.7l-1.27-5.53a2.35,2.35,0,0,1,1.62-2.71l2.5-.79a2.15,2.15,0,0,1,2.73,1.37Z"/><path class="cls-13" d="M77,98.88a2.54,2.54,0,0,1-1.62,3.18l-1.85.67-.93.33a2.36,2.36,0,0,1-1.06.1A2.52,2.52,0,0,1,69.76,102a3,3,0,0,1-.41-1l-.26-1c-.34-1.26-.65-2.53-1-3.8l-.1-.48a2.73,2.73,0,0,1-.07-.59A2.67,2.67,0,0,1,68.21,94a2.83,2.83,0,0,1,1.69-1.51c.66-.2,1.28-.34,1.91-.51.33-.08.61-.17,1-.25a2.66,2.66,0,0,1,1.09.06,2.32,2.32,0,0,1,1.55,1.39c.2.66.33,1.27.51,1.91C76.28,96.38,76.66,97.63,77,98.88Zm0,0c-.39-1.24-.79-2.49-1.22-3.72-.22-.61-.44-1.25-.67-1.83a1.93,1.93,0,0,0-1.37-1,1.87,1.87,0,0,0-.85,0c-.26.07-.6.21-.9.32l-1.83.66a2,2,0,0,0-1.1,1.09,1.76,1.76,0,0,0-.14.75,2.65,2.65,0,0,0,0,.38l.12.48c.28,1.27.56,2.55.81,3.83a8.37,8.37,0,0,0,.42,1.8,1.94,1.94,0,0,0,1.3,1,3.7,3.7,0,0,0,1.82-.24l1.9-.5a2.33,2.33,0,0,0,1.47-1.15A2.51,2.51,0,0,0,77,98.88Z"/><path class="cls-12" d="M130.49,66.75c0,1.47-1,3.08-2.56,3.08l-4.26-.29c-1.83,0-2.89-1.18-2.33-2.83L122.76,61c.33-.93,2-1.7,3.2-1.55l2.41.3a2.48,2.48,0,0,1,2.15,2Z"/><path class="cls-13" d="M130.49,66.75a3.58,3.58,0,0,1-.66,2.09,2.4,2.4,0,0,1-1.9,1.07h0l-4.27-.1h0a3,3,0,0,1-2.29-.77,2.16,2.16,0,0,1-.58-1.19,2.88,2.88,0,0,1,.12-1.28v0c.41-1.93.89-3.85,1.38-5.76v0h0a2.84,2.84,0,0,1,1.57-1.41,4,4,0,0,1,1.94-.36c.65.09,1.2.2,1.81.3l.9.16a2.8,2.8,0,0,1,.89.37,2.59,2.59,0,0,1,1.17,1.47,3.23,3.23,0,0,1,0,.93l0,.9C130.52,64.35,130.51,65.55,130.49,66.75Zm0,0c0-1.2,0-2.4,0-3.6a11.22,11.22,0,0,0-.11-1.77,2.26,2.26,0,0,0-1.14-1.18,3.85,3.85,0,0,0-1.66-.32c-.59-.05-1.22-.11-1.77-.14a3.55,3.55,0,0,0-1.54.42,2.06,2.06,0,0,0-1,1v0c-.45,1.92-.91,3.84-1.44,5.75v0h0a1.68,1.68,0,0,0,.15,1.7,2.37,2.37,0,0,0,1.75.73h0l4.25.48h0a2.29,2.29,0,0,0,1.87-1A3.54,3.54,0,0,0,130.49,66.75Z"/><path class="cls-12" d="M156.67,79.1a3,3,0,0,1-3,2.48l-3.46-.66a2,2,0,0,1-2.05-2.72l1.38-5.36a2.63,2.63,0,0,1,3-1.44l2.73.42a2.09,2.09,0,0,1,2,2.06Z"/><path class="cls-13" d="M156.67,79.1a3.08,3.08,0,0,1-3,2.55h0l-3.49-.49h0a2.82,2.82,0,0,1-1.59-.46,2.17,2.17,0,0,1-.93-1.48,4.31,4.31,0,0,1,.19-1.65l.34-1.48c.25-1,.47-2,.74-3l.1-.37a2.35,2.35,0,0,1,.18-.45,2.47,2.47,0,0,1,.61-.71,3.39,3.39,0,0,1,1.62-.65,4.51,4.51,0,0,1,1.63.15l1.5.3.74.16a3.14,3.14,0,0,1,.78.27A2.34,2.34,0,0,1,157.25,73a1.72,1.72,0,0,1,.12.81l-.12.76-.21,1.5C156.89,77.09,156.79,78.09,156.67,79.1Zm0,0c.09-1,.21-2,.29-3l.12-1.51a2.56,2.56,0,0,0-.12-1.42,2,2,0,0,0-1-.88A5.61,5.61,0,0,0,154.5,72L153,71.84a4.66,4.66,0,0,0-1.39,0,2.46,2.46,0,0,0-1.14.53,1.31,1.31,0,0,0-.36.43,1.28,1.28,0,0,0-.1.26l-.09.37c-.24,1-.52,2-.77,2.94l-.42,1.46a4.17,4.17,0,0,0-.28,1.32,1.78,1.78,0,0,0,1.8,1.56h0l3.43.81h0A2.9,2.9,0,0,0,156.67,79.1Z"/><path class="cls-14" d="M68.46,95.05a3.41,3.41,0,0,1,.62-2.17A3.75,3.75,0,0,1,71,91.44a3.44,3.44,0,0,1,2.43.07A3.25,3.25,0,0,1,75.14,93a10.07,10.07,0,0,1-1.08,0,8.93,8.93,0,0,0-.92,0,5.26,5.26,0,0,0-1.51.29A15.66,15.66,0,0,0,68.46,95.05Z"/><path class="cls-14" d="M94.16,66.31a3.57,3.57,0,0,1,1.41-1.92,4.09,4.09,0,0,1,2.4-.74,3.86,3.86,0,0,1,2.39.82,4.37,4.37,0,0,1,.85.87,4.31,4.31,0,0,1,.5,1.09,11.37,11.37,0,0,1-1.1-.31c-.34-.08-.65-.21-1-.25a6.9,6.9,0,0,0-1.7-.22A13.89,13.89,0,0,0,94.16,66.31Z"/><path class="cls-14" d="M122.43,61.12a3.8,3.8,0,0,1,1.65-1.93,4.61,4.61,0,0,1,5.07.24,5.18,5.18,0,0,1,.92.89,5,5,0,0,1,.6,1.12,12.12,12.12,0,0,1-1.17-.32c-.38-.09-.71-.22-1.05-.28a10.14,10.14,0,0,0-1.89-.3A13.88,13.88,0,0,0,122.43,61.12Z"/><path class="cls-14" d="M149.54,72.1a3.66,3.66,0,0,1,1.81-1.68,4.32,4.32,0,0,1,2.57-.33,4.24,4.24,0,0,1,2.3,1.2,4.5,4.5,0,0,1,.76,1,5,5,0,0,1,.4,1.18,10.46,10.46,0,0,1-1.09-.47c-.35-.13-.64-.31-1-.41a8.31,8.31,0,0,0-1.76-.52A14,14,0,0,0,149.54,72.1Z"/><path class="cls-14" d="M190.39,144.62a3.19,3.19,0,0,0,.58-1.41,1.65,1.65,0,0,0-.26-1.14.54.54,0,0,0-.37-.22.35.35,0,0,1-.24-.1,2.65,2.65,0,0,0-1.32-.44l-.12-.16a1.7,1.7,0,0,1,1.76-1.38,2.12,2.12,0,0,1,.68.17,1.74,1.74,0,0,1,.54.42,2.67,2.67,0,0,1,.56,1.13,2.64,2.64,0,0,1-.3,2.08,3.22,3.22,0,0,1-1.38,1.2Z"/></g><path class="cls-15" d="M94.4,74.67C86.81,81.54,78,83.61,74.6,79.28S74.7,65.86,82.3,59s16.45-9,19.8-4.62S102,67.79,94.4,74.67Z"/><g class="cls-16"><path class="cls-14" d="M67.47,92.38c-1.85,5.49-6.15,8.69-9.61,7.14S53.1,92.26,55,86.78s6.15-8.69,9.6-7.14S69.31,86.89,67.47,92.38Z"/></g><path class="cls-17" d="M128,20.34C68.28,20.34,19.87,68.54,19.87,128S68.28,235.66,128,235.66,236.13,187.46,236.13,128,187.72,20.34,128,20.34Zm-.2,198.29c-49.63-.32-91.61-41.43-91-91.55.62-49.42,42.42-88.95,91-89.24,49.27-.3,92.12,39.91,92.12,90.39S177.29,218.94,127.8,218.63Z"/><path class="cls-18" d="M137.07,25.43c.13,1.29-13.14,2-29.41,7.23-6.26,2-30.18,9.89-49.65,28.56C35.56,82.75,29.79,108.3,28.27,107.63c-1.32-.57,2.15-20.24,14.79-39.25,1.89-2.85,24.07-35.2,63.49-42.79C122,22.61,136.94,24.06,137.07,25.43Z"/><path class="cls-19" d="M87.16,36.56c.28.65-2.54,2.15-9.53,6.64C63.49,52.28,59.92,55.8,59.27,55.14c-.92-.91,4.53-9.51,13.6-14.59C79.35,36.91,86.73,35.59,87.16,36.56Z"/><path class="cls-20" d="M89.68,33.48c-.58.75-1.13,2.1-.44,2.58,1.64,1.13,9.79-3,9.35-4.19C98.24,30.9,91.8,30.7,89.68,33.48Z"/><path class="cls-21" d="M215.68,93.26c.36,8.29,2.06,13,3.18,18.41h0a99.51,99.51,0,0,1,.31,26c-1,8.11-4.76,39.46-31.42,61.89-27.69,23.3-61.74,21.56-76.8,18.73a112.38,112.38,0,0,1-32.38-11.43c-1.91-1.11-7.52-4.65-18.72-11.74-13.7-8.66-15.5-9.88-15.84-9.49C42.82,187,57.18,210,81.43,222.44c43.75,22.38,94.34,2.89,110.45-10.48,14.46-12,25.36-29.21,25.36-29.21.21-.34.55-.86,1-1.57a105.16,105.16,0,0,0,14.28-37.77,101.59,101.59,0,0,0-.31-31.74,80,80,0,0,0-6-21.27c-1.39-3.13-5.63-12.65-8.25-12.06C215.07,79,215.59,91.12,215.68,93.26Z"/></svg>