<svg id="Layer_1" data-name="Layer 1" xmlns="http://www.w3.org/2000/svg" viewBox="0 0 256 80"><defs><style>.cls-1{fill:#282828;}</style></defs><path class="cls-1" d="M83,30.1a11.29,11.29,0,0,1-1.78,6.2,14.79,14.79,0,0,1-5,4.75,27.71,27.71,0,0,1-7.79,3.05,43.69,43.69,0,0,1-10.2,1.1c-.35,0-.75,0-1.2-.05s-1,0-1.62,0a9.23,9.23,0,0,0,3,5.95,9.53,9.53,0,0,0,6.47,2.15q6.94,0,14.73-4.5V59.2a28.6,28.6,0,0,1-7.25,3.15,30.48,30.48,0,0,1-7.85.95,25.91,25.91,0,0,1-9-1.5,18.44,18.44,0,0,1-6.85-4.35,19.38,19.38,0,0,1-4.3-6.8,25.07,25.07,0,0,1-1.5-8.95,27.69,27.69,0,0,1,1.75-10.05,23.46,23.46,0,0,1,4.9-7.85A21.64,21.64,0,0,1,57,18.7a25.39,25.39,0,0,1,9.7-1.8q7.39,0,11.85,3.6A11.71,11.71,0,0,1,83,30.1Zm-13.3,1a3.49,3.49,0,0,0-1.37-2.75,5.18,5.18,0,0,0-3.46-1.15,7.89,7.89,0,0,0-5.7,2.35A11.2,11.2,0,0,0,56.1,36a8.74,8.74,0,0,0,1.59.2h1.48Q69.7,36.2,69.7,31.1Z"/><path class="cls-1" d="M122.19,62a16.51,16.51,0,0,0-.1-1.7c-.07-.53-.12-1.17-.16-1.9s-.09-1.5-.15-2.3a15.86,15.86,0,0,1-6.52,5.15A21,21,0,0,1,106.74,63Q98.52,63,94,57.6T89.4,42.2q0-12.1,7.35-18.65T117.69,17c1.48,0,2.83,0,4,.1s2.43.18,3.65.35,2.47.38,3.75.65,2.71.63,4.26,1.1V47.6c0,1.53,0,3.15.1,4.85s.17,3.25.3,4.65c.13,1.67.27,3.3.4,4.9ZM120.1,29.4a20.38,20.38,0,0,0-3.15-.5c-1-.07-1.84-.1-2.65-.1a10.67,10.67,0,0,0-8.55,3.55q-3,3.56-3,9.85,0,4.2,1.83,6.4a6.36,6.36,0,0,0,5.19,2.2,9.2,9.2,0,0,0,4-.9,10.05,10.05,0,0,0,3.31-2.55,12.44,12.44,0,0,0,2.24-3.9,14.82,14.82,0,0,0,.81-5.05Z"/><path class="cls-1" d="M175.7,30.3c-.94-.2-1.67-.33-2.2-.4a14.13,14.13,0,0,0-1.8-.1q-5.7,0-8.65,3.91t-3,11.61V62H146.8V33.12c0-1.63,0-3-.05-4.26s-.12-2.33-.25-3.38-.32-2.07-.55-3.08-.55-2.17-.95-3.48h12.62c.21.83.4,1.53.57,2.11a11.37,11.37,0,0,1,.36,1.64c.07.51.14,1.06.21,1.64a18,18,0,0,1,.1,2.1,22.5,22.5,0,0,1,5.69-6.51A10.87,10.87,0,0,1,170.9,18a9.25,9.25,0,0,1,2.35.26,22.39,22.39,0,0,1,2.65,1Z"/><path class="cls-1" d="M213.2,49.8a12.59,12.59,0,0,1-4.24,10q-4.23,3.71-11.91,3.7a49.71,49.71,0,0,1-10.15-1,30.13,30.13,0,0,1-8-2.7l1.7-10.2q8.7,4.5,15.2,4.5a4.38,4.38,0,0,0,3.15-1,3,3,0,0,0,1-2.15,3.83,3.83,0,0,0-.75-2.45,11.48,11.48,0,0,0-3.65-2.35,59.46,59.46,0,0,1-7.05-3.6,23.15,23.15,0,0,1-4.8-3.75A12.6,12.6,0,0,1,181,34.7a13.72,13.72,0,0,1-.85-5A11.28,11.28,0,0,1,184.93,20q4.84-3.45,12.63-3.45a39,39,0,0,1,7.45.65,34,34,0,0,1,7.48,2.55l-1.6,10.1A24,24,0,0,0,204,27.05a30.81,30.81,0,0,0-6.57-.75,4.51,4.51,0,0,0-3.18.85,3,3,0,0,0-.86,2.25,3.32,3.32,0,0,0,1.37,2.75,28.21,28.21,0,0,0,5.33,2.75,62.48,62.48,0,0,1,6.07,3.45,21.26,21.26,0,0,1,4.09,3.4,10.75,10.75,0,0,1,2.26,3.7A13.23,13.23,0,0,1,213.2,49.8Z"/></svg>