<svg id="Layer_1" data-name="Layer 1" xmlns="http://www.w3.org/2000/svg" viewBox="0 0 300 100"><defs><style>.cls-1{fill:#282828;}</style></defs><path class="cls-1" d="M12.8,62.6V28.1H4V18.6h8.8V7.5H25.9V18.6H37.2v9.5H25.9V62.6Z"/><path class="cls-1" d="M83.4,40.46a25.42,25.42,0,0,1-1.64,9.47,19,19,0,0,1-4.68,6.92,20.11,20.11,0,0,1-7.27,4.29A28.81,28.81,0,0,1,60.4,62.6,28.81,28.81,0,0,1,51,61.14a20.11,20.11,0,0,1-7.27-4.29A19.51,19.51,0,0,1,39,49.93a24.81,24.81,0,0,1-1.69-9.47,24.56,24.56,0,0,1,1.64-9.24,19.34,19.34,0,0,1,4.63-6.87,19.54,19.54,0,0,1,7.27-4.29A29.61,29.61,0,0,1,60.4,18.6,29.65,29.65,0,0,1,69.81,20a20.07,20.07,0,0,1,7.27,4.2,18.57,18.57,0,0,1,4.68,6.87A25.19,25.19,0,0,1,83.4,40.46Zm-13.3,0a10,10,0,0,0-2.68-7.42A9.82,9.82,0,0,0,60.2,30.4q-4.65,0-7.12,2.65T50.6,40.47q0,4.94,2.42,7.64T60.2,50.8q4.74,0,7.32-2.65C69.24,46.39,70.1,43.82,70.1,40.47Z"/><path class="cls-1" d="M122.1,62.6v-25a10.24,10.24,0,0,0-.65-4.05,5.72,5.72,0,0,0-1.55-2.17,4,4,0,0,0-1.9-.87,13.14,13.14,0,0,0-1.7-.14,9.92,9.92,0,0,0-2.1.39,7.07,7.07,0,0,0-3,1.83,12.49,12.49,0,0,0-2.75,4.24,19.4,19.4,0,0,0-1.2,7.52V62.6H93.9V33.52a49.7,49.7,0,0,0-.6-7.59,24.46,24.46,0,0,0-1.6-6.13H105a19.52,19.52,0,0,1,.85,2.3c.17.6.35,1.47.55,2.6a20.76,20.76,0,0,1,6.86-4.6,19.78,19.78,0,0,1,7.45-1.5,14.44,14.44,0,0,1,5.82,1.17A13.81,13.81,0,0,1,131.19,23a15,15,0,0,1,3.08,5.16,19.78,19.78,0,0,1,1.13,6.86V62.6Z"/><path class="cls-1" d="M191,64a46.26,46.26,0,0,1-1.69,13.55,23.56,23.56,0,0,1-4.59,8.75,16.69,16.69,0,0,1-6.89,4.75,25,25,0,0,1-8.67,1.45,73.66,73.66,0,0,1-8.93-.55,32.22,32.22,0,0,1-8.42-2.15V79.7a56.13,56.13,0,0,0,7.66,2.15,33.28,33.28,0,0,0,6.45.75,11.24,11.24,0,0,0,4.78-1,9.5,9.5,0,0,0,3.73-3.2,16.67,16.67,0,0,0,2.41-5.8,38.15,38.15,0,0,0,.86-8.7V59.5a15.25,15.25,0,0,1-5.7,3.35,23.25,23.25,0,0,1-6.2.75,19.58,19.58,0,0,1-7.8-1.5,16.92,16.92,0,0,1-5.95-4.2,19,19,0,0,1-3.8-6.55,25.73,25.73,0,0,1-1.35-8.55A25.26,25.26,0,0,1,149,32.35a22.26,22.26,0,0,1,5.93-8,26.57,26.57,0,0,1,9.33-5A40.37,40.37,0,0,1,176.6,17.6c1.42,0,2.67,0,3.75,0s2.15.12,3.2.25,2.16.32,3.34.55,2.55.55,4.11.95ZM177.7,30.6c-1.17-.2-2-.33-2.63-.4a20.34,20.34,0,0,0-2.31-.1q-5.87,0-9.22,3.25T160.2,42.3a8.53,8.53,0,0,0,2.21,6.3,7.49,7.49,0,0,0,5.51,2.2,15.89,15.89,0,0,0,3.6-.4,6.39,6.39,0,0,0,3.14-1.8,9.71,9.71,0,0,0,2.22-4.05,25.27,25.27,0,0,0,.82-7.15Z"/><path class="cls-1" d="M232.8,61.4a17.86,17.86,0,0,1-.85-2.3c-.17-.6-.35-1.47-.55-2.6a19.59,19.59,0,0,1-14.1,6.1,14.37,14.37,0,0,1-6-1.22,14.76,14.76,0,0,1-4.8-3.36,14.38,14.38,0,0,1-3.15-5.15,19.37,19.37,0,0,1-1.1-6.72c0-2.73.06-5.26.2-7.59s.23-4.58.3-6.72.06-4.28,0-6.43-.24-4.41-.5-6.81h13.3c.2,2.19.31,4.29.35,6.32s0,4,0,6-.1,4-.2,6.07-.15,4.25-.15,6.56a11.08,11.08,0,0,0,.62,4.1,4.55,4.55,0,0,0,3.65,3,14.12,14.12,0,0,0,1.77.14,10.05,10.05,0,0,0,2.14-.39,6.8,6.8,0,0,0,3-1.83,12.13,12.13,0,0,0,2.66-4.24,20.1,20.1,0,0,0,1.15-7.52V18.6h13.3V47.68a49.7,49.7,0,0,0,.6,7.59,24.46,24.46,0,0,0,1.6,6.13Z"/><path class="cls-1" d="M296,30.7a11.38,11.38,0,0,1-1.78,6.2,14.83,14.83,0,0,1-5,4.75,27.59,27.59,0,0,1-7.79,3.05,43.6,43.6,0,0,1-10.19,1.1c-.35,0-.75,0-1.2,0s-1,0-1.62,0a9.23,9.23,0,0,0,3,5.95,9.5,9.5,0,0,0,6.47,2.15q6.94,0,14.73-4.5V59.8A28.75,28.75,0,0,1,285.35,63a30.54,30.54,0,0,1-7.85.95,25.87,25.87,0,0,1-9.05-1.5,18.36,18.36,0,0,1-6.85-4.35,19.38,19.38,0,0,1-4.3-6.8,25.07,25.07,0,0,1-1.5-9,27.69,27.69,0,0,1,1.75-10,23.3,23.3,0,0,1,4.9-7.85A21.54,21.54,0,0,1,270,19.3a25.35,25.35,0,0,1,9.7-1.8q7.4,0,11.85,3.6A11.74,11.74,0,0,1,296,30.7Zm-13.3,1A3.49,3.49,0,0,0,281.33,29a5.2,5.2,0,0,0-3.46-1.15,7.89,7.89,0,0,0-5.7,2.35,11.2,11.2,0,0,0-3.07,6.45,8.74,8.74,0,0,0,1.59.2h1.48Q282.7,36.8,282.7,31.7Z"/></svg>