<svg id="Layer_1" data-name="Layer 1" xmlns="http://www.w3.org/2000/svg" xmlns:xlink="http://www.w3.org/1999/xlink" viewBox="0 0 360 360"><defs><style>.cls-1{fill:#fff;}.cls-2{fill:#fcfcfc;stroke:#25256d;stroke-width:12px;}.cls-2,.cls-5{stroke-miterlimit:10;}.cls-3{clip-path:url(#clip-path);}.cls-4{fill:url(#linear-gradient);}.cls-5{stroke:#6d2929;fill:url(#linear-gradient-2);}.cls-6{opacity:0.17;}.cls-7{fill:url(#linear-gradient-3);}.cls-8{fill:url(#linear-gradient-4);}.cls-9{fill:url(#linear-gradient-5);}.cls-10{fill:url(#linear-gradient-6);}.cls-11{fill:url(#linear-gradient-7);}.cls-12{fill:#e8a6a6;}.cls-13{fill:#a04d4d;}</style><clipPath id="clip-path"><circle class="cls-1" cx="179.55" cy="179.6" r="164.38"/></clipPath><linearGradient id="linear-gradient" x1="61.83" y1="196.56" x2="302.49" y2="196.56" gradientUnits="userSpaceOnUse"><stop offset="0" stop-color="#ffc7b8"/><stop offset="0.09" stop-color="#fec3b4"/></linearGradient><linearGradient id="linear-gradient-2" x1="62.43" y1="196.56" x2="301.88" y2="196.56" xlink:href="#linear-gradient"/><linearGradient id="linear-gradient-3" x1="211.03" y1="153.5" x2="239.05" y2="153.5" gradientUnits="userSpaceOnUse"><stop offset="0" stop-color="#ffc7b8"/><stop offset="0.09" stop-color="#993f3f"/></linearGradient><linearGradient id="linear-gradient-4" x1="196.76" y1="272.15" x2="301.98" y2="272.15" xlink:href="#linear-gradient-3"/><linearGradient id="linear-gradient-5" x1="70.44" y1="143.96" x2="109.8" y2="143.96" xlink:href="#linear-gradient-3"/><linearGradient id="linear-gradient-6" x1="174.23" y1="108.71" x2="190.64" y2="108.71" xlink:href="#linear-gradient-3"/><linearGradient id="linear-gradient-7" x1="120.73" y1="110.33" x2="145.11" y2="110.33" xlink:href="#linear-gradient-3"/></defs><circle class="cls-2" cx="180" cy="180" r="170"/><circle class="cls-1" cx="179.55" cy="179.6" r="164.38"/><g class="cls-3"><path class="cls-4" d="M294.23,195.28a16.2,16.2,0,0,0-5.39-.88c-7.08,0-15,3.94-20.93,9-7.75,6.56-15.47,15.9-15.9,15.9s-5.64,7.23-9.11,10.56-6.51,6.8-6.94,6.8-5.47,2.73-7.24,2.73c-.3,0-.51-.08-.57-.28-.43-1.3-4.19-9.63-5.93-14.92-1.38-4.2-6.11-18.81-5-23.15s4.38-20.64,4.28-23.57c-.08-2.6,2.79-14.16,4.49-20.39,1.41-5.16,3.13-15.57,4.43-21.5s3.33-23.22,3.33-23.22,1-.64,4.19-17.56,2.36-26.75-8.72-28.87a11,11,0,0,0-2.11-.2c-7.46,0-12.87,7.89-15.92,18.08a176.49,176.49,0,0,0-4.92,22s-2.6,12-3.76,14.32-4.33,15.18-4.48,15.76-3.76,13.59-4.77,15.47-3,10.85-4.77,17.06c-.66,2.36-2,3.2-3.38,3.2-2.29,0-4.77-2.25-4.86-3.77-.15-2.46,5.49-39.19,5.42-41.07s.79-13,1.1-17.78,2.27-19.52,2.29-20.39,2-13.88,2.05-23c.08-18.74-7.28-21.55-12.73-21.65H178c-11.25,0-14.28,9.93-15.41,16.77s-2.88,27.57-2.75,28.73-1.13,9.41-1.71,13-3.32,17.06-3.32,18.36-1.88,15.91-2.61,18.66-1.15,18.94-1.73,22.41a3.1,3.1,0,0,1-3,2.87,1.85,1.85,0,0,1-1.74-.85c-.58-1.3-3.91-28.34-4.77-32.24s-1-10.7-1.74-16.49S136.91,98.83,136.76,97s.29-5.2-.72-21.11C135.13,61.6,132.63,54,123.59,54a20,20,0,0,0-3.46.32c-11.55,2-11.18,20-11.18,24s-.38,19.09-.24,21.26,1,14.46,1.16,17.49.43,17.93,1,22.42,5.06,36.43,4.77,37.59a4.18,4.18,0,0,1-3.52,2.58,2.39,2.39,0,0,1-1.11-.27c-2-1-6.5-16.33-8-20.09S95,140.77,93.82,138.6s-1.59-8.53-7.09-20.54c-4.31-9.4-10-11.69-13.75-11.69a7.49,7.49,0,0,0-2.59.42c-10.55,3.9-9,12.29-7.52,19.52s7.52,20.1,7.52,20.1,2.75,8,4,11.42,4,11.71,4.19,13.88,8.68,28.78,8.82,29.64a118,118,0,0,1,3.33,30.37c-.58,15.47,7.93,44,7.93,44.25a81.35,81.35,0,0,1,1.61,9c1.07,9.33,8.25,28.63,8.25,28.63s-.29,7.09-.87,13c-.26,2.67-.12,12.7-2.83,22.62h99.18c-1.54-13.47-.64-18.77-1.21-24.07-.29-2.78,1.73-10.39,4.06-13.87,1.26-1.88,11-8.83,15.9-11.58s28.77-22.41,32.39-26.32,10.41-18.79,13.3-22.26,13.74-16.92,15.33-18.8c2.09-2.47,12.84-12.36,17.06-19.09C305.51,205.84,299.15,197,294.23,195.28Zm5.62,17.28c-3,4.75-9.3,11.13-13.49,15.35-1.6,1.61-2.86,2.88-3.47,3.6-.77.92-3.71,4.54-6.83,8.38-3.45,4.24-7,8.63-8.5,10.43s-3.43,5.44-5.79,9.81c-2.62,4.87-5.59,10.38-7.47,12.41-3.7,4-27.39,23.45-32.1,26.08s-14.84,9.76-16.31,12c-2.49,3.73-4.58,11.69-4.26,14.68a58.4,58.4,0,0,1,.22,6.32,141.24,141.24,0,0,0,.84,16.4H106.44a96.34,96.34,0,0,0,2.34-18.9c0-1.05.08-1.88.13-2.38.57-5.9.87-13,.87-13.09v-.24l-.08-.23c-.07-.19-7.14-19.27-8.18-28.35a69.2,69.2,0,0,0-1.47-8.31c-.06-.25-.12-.5-.14-.61a11.23,11.23,0,0,0-.34-1.36c-6.69-24.15-7.81-36.57-7.58-42.75a114.56,114.56,0,0,0-3.21-30c-.06-.27-.12-.55-.14-.62-.05-.33-.51-1.81-2.28-7.51-2.24-7.21-6.41-20.62-6.52-22-.17-2.47-3.08-11.06-4.27-14.23-1.28-3.41-4-11.31-4-11.39l0-.06,0-.06c-.06-.13-6-12.82-7.42-19.82-1.44-7.16-2.92-14.57,6.74-18.14a6.33,6.33,0,0,1,2.17-.35,10.14,10.14,0,0,1,6,2.09c2.59,1.87,4.84,4.86,6.69,8.9a91.78,91.78,0,0,1,5.89,16.72,19.61,19.61,0,0,0,1.23,3.88c1.19,2.22,7.81,16.94,9.2,20.54.36.94.93,2.69,1.6,4.71,3.87,11.69,5.42,15.28,6.94,16a3.64,3.64,0,0,0,1.65.39,5.3,5.3,0,0,0,4.7-3.5c.19-.76-.34-5.74-3.92-32-.39-2.86-.7-5.11-.82-6.07-.43-3.26-.7-12.45-.86-17.94-.06-2-.11-3.58-.15-4.38-.11-2.37-.67-10.47-1-14.82-.09-1.25-.15-2.22-.19-2.7-.08-1.27,0-7.71.13-12.89.06-3.45.12-6.7.12-8.28v-.38c0-13.73,3.39-21.28,10.17-22.42a19.44,19.44,0,0,1,3.25-.3c3.94,0,6.46,1.52,8.19,4.92,1.61,3.18,2.55,8.05,3,15.8.74,11.52.71,16.34.7,18.94,0,1,0,1.62,0,2.19.08,1,.56,4.49,1.13,8.48.47,3.33,1,7.11,1.33,9.79.3,2.34.49,4.86.68,7.29a75.86,75.86,0,0,0,1.08,9.31c.4,1.82,1.39,9,2.34,16,1.63,11.93,2.18,15.75,2.51,16.48a3,3,0,0,0,2.85,1.57,4.33,4.33,0,0,0,4.23-3.89c.27-1.63.5-5.79.75-10.2.28-5,.6-10.72,1-12.1.73-2.76,2.64-17.47,2.64-19,0-.73,1.09-6.31,1.87-10.38.62-3.25,1.21-6.31,1.45-7.79.31-2,1.87-11.82,1.71-13.33-.08-1.35,1.6-21.52,2.74-28.42,1.75-10.6,6.4-15.75,14.21-15.75h.37a9.42,9.42,0,0,1,7.52,3.4c2.69,3.28,4,9,4,17a191.09,191.09,0,0,1-1.77,20.6c-.2,1.57-.27,2.12-.28,2.36s-.3,2.66-.6,5.13c-.63,5.12-1.49,12.13-1.69,15.21-.08,1.34-.21,3.22-.35,5.21-.38,5.29-.8,11.28-.75,12.69,0,.9-1.24,9.66-2.34,17.39-1.91,13.44-3.16,22.34-3.08,23.71.14,2.34,3.32,4.92,6.08,4.92,1.27,0,3.56-.53,4.55-4.09.6-2.13,1.22-4.58,1.83-6.94,1.05-4.11,2.24-8.76,2.84-9.87,1.14-2.12,4.85-15.63,4.88-15.75l0-.1c1.52-6.14,3.58-13.86,4.36-15.42,1.19-2.38,3.59-13.35,3.86-14.6V106a176.15,176.15,0,0,1,4.88-21.81c3.27-10.94,8.64-17.22,14.75-17.21a10.13,10.13,0,0,1,1.88.18c9.21,1.76,11.24,8.94,7.76,27.45-2.47,13.13-3.6,16.24-3.9,16.9l-.24.16-.07.58c0,.17-2,17.3-3.31,23.1-.5,2.31-1.06,5.24-1.66,8.35-.94,4.9-1.91,10-2.76,13.09-1.29,4.73-4.62,17.68-4.52,20.75.08,2.76-3.08,18.87-4.24,23.22-.85,3.19.82,11.21,5,23.84,1.19,3.61,3.28,8.57,4.67,11.84.61,1.46,1.14,2.71,1.26,3.09a1.68,1.68,0,0,0,1.73,1.1c1.37,0,3.74-1,6.25-2.2.47-.22,1-.46,1.2-.54.66-.1,1.25-.72,3.54-3.07,1.14-1.17,2.55-2.64,4-4.05a87.36,87.36,0,0,0,6.59-7.63c.87-1.08,1.84-2.3,2.23-2.7.43-.22,1.06-.9,2.94-3a155.83,155.83,0,0,1,13.2-13.12c6.43-5.44,14-8.69,20.14-8.69a14.88,14.88,0,0,1,5,.81c2.28.81,5.45,3.76,6.81,7.66A9.62,9.62,0,0,1,299.85,212.56Z"/><path class="cls-5" d="M301.21,203.89a13.64,13.64,0,0,0-.79-1.83c-1.64-3.17-4.29-5.47-6.39-6.2a15.31,15.31,0,0,0-5.19-.85c-6.32,0-14,3.3-20.53,8.83A155.45,155.45,0,0,0,255.06,217c-2,2.22-2.52,2.73-2.83,2.84-.33.3-1.37,1.6-2.37,2.85a89.49,89.49,0,0,1-6.54,7.57c-1.48,1.42-2.91,2.89-4,4.07-2.32,2.39-2.79,2.85-3.24,2.89-.18.06-.78.34-1.31.59-2.45,1.13-4.75,2.15-6,2.15a1.08,1.08,0,0,1-1.15-.69c-.13-.41-.64-1.61-1.28-3.13-1.38-3.27-3.47-8.21-4.65-11.8-2.83-8.6-6-19.66-5-23.49,1.17-4.37,4.35-20.6,4.27-23.4-.1-3,3.3-16.18,4.5-20.57.86-3.14,1.83-8.22,2.77-13.13.59-3.11,1.15-6,1.66-8.34,1.28-5.83,3.29-23,3.31-23.16l0-.29.15-.09c.22-.4,1.33-2.93,4-17.22,3.52-18.7,1.29-26.34-8.24-28.16a10.47,10.47,0,0,0-2-.19c-6.4,0-12,6.43-15.34,17.65a177.66,177.66,0,0,0-4.9,21.93c-.11.5-2.63,12.11-3.81,14.46-.8,1.6-2.8,9.08-4.41,15.54l0,.1c0,.12-3.73,13.58-4.82,15.61-.64,1.17-1.79,5.66-2.9,10-.6,2.36-1.23,4.8-1.82,6.93-.89,3.17-2.87,3.64-4,3.64-2.64,0-5.36-2.49-5.47-4.35-.08-1.3,1.23-10.59,3.07-23.58,1.17-8.21,2.38-16.7,2.35-17.5,0-1.38.37-7.36.74-12.63.14-2,.28-3.87.36-5.21.2-3.07,1.06-10.06,1.68-15.17.31-2.53.6-4.91.61-5.19s.09-.86.27-2.3a191.78,191.78,0,0,0,1.78-20.68c.06-14-3.91-20.89-12.13-21H178c-8.16,0-13,5.32-14.81,16.26-1.16,7.05-2.84,27.59-2.75,28.57.16,1.5-1.63,12.71-1.71,13.18-.23,1.47-.82,4.53-1.44,7.77-.83,4.36-1.87,9.79-1.87,10.5,0,1.49-1.91,16.07-2.63,18.81-.38,1.45-.7,7.18-1,12.23-.24,4.38-.47,8.53-.74,10.13a3.7,3.7,0,0,1-3.63,3.38,2.42,2.42,0,0,1-2.3-1.21c-.3-.68-1-5.74-2.46-16.31-1-7-1.94-14.21-2.35-16.05a76.29,76.29,0,0,1-1.06-9.23c-.19-2.44-.39-5-.68-7.31-.34-2.69-.87-6.47-1.34-9.81-.56-4-1.05-7.42-1.12-8.44,0-.54,0-1.18,0-2.14,0-2.6,0-7.44-.69-19-1-15.72-4.1-21.29-11.84-21.29a19.8,19.8,0,0,0-3.36.31c-7.11,1.2-10.7,9-10.67,23v.38c0,1.57-.06,4.82-.12,8.27-.1,5.46-.21,11.64-.12,13,0,.47.1,1.44.18,2.69.3,4.35.86,12.44,1,14.81,0,.8.09,2.37.15,4.37.16,5.5.44,14.71.86,18,.13,1,.43,3.17.82,6.07,3.1,22.69,4.13,31,3.94,31.75a4.77,4.77,0,0,1-4.11,3,3,3,0,0,1-1.38-.32c-1.46-.73-3.38-5.86-6.63-15.69-.67-2-1.25-3.78-1.62-4.74-1.39-3.61-8-18.38-9.22-20.61a18.9,18.9,0,0,1-1.18-3.74,92.52,92.52,0,0,0-5.92-16.82C81.49,108.08,75.39,107,73,107a6.71,6.71,0,0,0-2.38.39c-10.15,3.75-8.54,11.76-7.13,18.83s7.41,19.83,7.47,20v0l0,0c0,.08,2.76,8,4,11.41,1.14,3,4.07,11.68,4.23,14,.09,1.39,4.13,14.38,6.55,22.15,1.6,5.16,2.21,7.14,2.26,7.43l.15.66a114,114,0,0,1,3.19,29.83c-.23,6.21.9,18.71,7.6,42.93a8.8,8.8,0,0,1,.32,1.25c0,.08.08.38.16.69a71.92,71.92,0,0,1,1.46,8.25c1,9.15,8.13,28.3,8.21,28.49l0,.12v.12c0,.07-.29,7.17-.87,13.05,0,.52-.08,1.36-.13,2.42a93.94,93.94,0,0,1-2.51,19.53h97.71a140.87,140.87,0,0,1-.91-17,59.66,59.66,0,0,0-.22-6.38c-.31-2.91,1.72-10.64,4.16-14.28,1.34-2,11-8.93,16.1-11.77C227.23,296.51,251,277,254.74,273c1.93-2.09,4.93-7.63,7.57-12.53,2.25-4.16,4.37-8.1,5.71-9.71,1.5-1.8,5.07-6.19,8.51-10.44,3.12-3.83,6.06-7.45,6.82-8.36.6-.71,1.86-2,3.45-3.58l2.34-2.37c4-4,8.73-9.1,11.23-13.07A10.23,10.23,0,0,0,301.21,203.89Z"/><g class="cls-6"><path class="cls-7" d="M231.94,95c-2.69,14.29-3.8,16.82-4,17.22l-.15.09,0,.29c0,.17-2,17.33-3.32,23.16-.5,2.3-1.07,5.23-1.66,8.34-.94,4.91-1.91,10-2.77,13.13-1.2,4.39-4.59,17.59-4.5,20.57.09,2.8-3.1,19-4.26,23.4-1,3.83,2.13,14.89,5,23.49,1.18,3.59,3.27,8.53,4.65,11.8.64,1.52,1.15,2.73,1.28,3.13a1.08,1.08,0,0,0,1.16.69,13.09,13.09,0,0,0,4.15-1.32c-.24-.59-.61-1.47-1-2.5-1.38-3.27-3.47-8.21-4.65-11.8-2.83-8.6-6-19.66-5-23.49,1.17-4.37,4.35-20.6,4.27-23.4-.1-3,3.3-16.18,4.5-20.57.86-3.14,1.83-8.22,2.77-13.13.59-3.11,1.15-6,1.66-8.34,1.28-5.83,3.29-23,3.31-23.16l0-.29.14-.09c.23-.4,1.34-2.93,4-17.22,3.52-18.7,1.29-26.34-8.24-28.16a10.47,10.47,0,0,0-2-.19,9.55,9.55,0,0,0-2.65.39C233.36,69.19,235.34,76.92,231.94,95Z"/><path class="cls-8" d="M301.31,204.24a13.64,13.64,0,0,0-.79-1.83c-1.64-3.17-4.29-5.47-6.39-6.2a15.56,15.56,0,0,0-5.19-.85,20,20,0,0,0-2.84.22,14.3,14.3,0,0,1,2.48.63c2.1.73,4.75,3,6.39,6.2a13.64,13.64,0,0,1,.79,1.83,10.23,10.23,0,0,1-.84,9c-2.5,4-7.27,9-11.23,13.07l-2.34,2.37c-1.59,1.61-2.85,2.87-3.44,3.58-.77.91-3.71,4.53-6.82,8.36-3.45,4.25-7,8.64-8.51,10.44-1.35,1.61-3.47,5.55-5.72,9.71-2.64,4.9-5.63,10.45-7.57,12.53-3.71,4-27.51,23.56-32.24,26.2-5.07,2.84-14.76,9.77-16.1,11.77-2.43,3.64-4.47,11.37-4.16,14.28a59.66,59.66,0,0,1,.22,6.38,140.87,140.87,0,0,0,.91,17h5.55a140.87,140.87,0,0,1-.91-17,62.4,62.4,0,0,0-.22-6.38c-.31-2.91,1.72-10.64,4.15-14.28,1.34-2,11-8.93,16.11-11.77,4.73-2.64,28.53-22.19,32.24-26.2,1.93-2.08,4.93-7.63,7.57-12.53,2.25-4.16,4.37-8.1,5.71-9.71,1.5-1.8,5.06-6.19,8.51-10.44,3.11-3.83,6.05-7.45,6.82-8.36.6-.71,1.85-2,3.44-3.58l2.35-2.37c4-4,8.73-9.1,11.23-13.07A10.23,10.23,0,0,0,301.31,204.24Z"/><path class="cls-9" d="M80.73,118.67a92.52,92.52,0,0,1,5.92,16.82,18.9,18.9,0,0,0,1.18,3.74c1.19,2.23,7.83,17,9.22,20.61.37,1,1,2.71,1.62,4.74,3.25,9.83,5.17,15,6.63,15.69a3.06,3.06,0,0,0,1.39.33,4.61,4.61,0,0,0,3.11-1.48c-1.33-2.09-3-6.88-5.58-14.54-.67-2-1.25-3.78-1.62-4.74-1.39-3.61-8-18.38-9.22-20.61a18.9,18.9,0,0,1-1.18-3.74,93.32,93.32,0,0,0-5.92-16.82c-4.69-10.24-10.8-11.35-13.2-11.35a6.71,6.71,0,0,0-2.38.39l-.26.1C73.37,108.74,77.4,111.4,80.73,118.67Z"/><path class="cls-10" d="M185.09,65.93a189.24,189.24,0,0,1-1.78,20.68c-.18,1.44-.26,2.08-.27,2.3s-.3,2.66-.6,5.19c-.63,5.11-1.49,12.1-1.69,15.17-.08,1.35-.21,3.2-.36,5.21-.37,5.27-.79,11.25-.74,12.63,0,.8-1.17,9.29-2.34,17.5-1.85,13-3.16,22.28-3.08,23.58.11,1.86,2.84,4.35,5.47,4.35a3.55,3.55,0,0,0,2.52-1,5,5,0,0,1-2.44-3.34c-.08-1.3,1.22-10.59,3.07-23.58,1.17-8.21,2.38-16.7,2.35-17.5,0-1.38.37-7.36.74-12.63.14-2,.28-3.86.36-5.21.2-3.07,1.06-10.06,1.68-15.17.31-2.53.6-4.91.61-5.19s.09-.86.27-2.3a191.78,191.78,0,0,0,1.78-20.68c.06-14-3.91-20.88-12.13-21.05h-.38a16.33,16.33,0,0,0-2.94.26C181.89,46.45,185.14,53.27,185.09,65.93Z"/><path class="cls-11" d="M130,76.23c.74,11.54.71,16.38.7,19,0,1,0,1.6,0,2.14.08,1,.56,4.46,1.12,8.45.47,3.33,1,7.11,1.34,9.8.29,2.35.49,4.87.68,7.31a76.29,76.29,0,0,0,1.06,9.23c.41,1.84,1.4,9.07,2.35,16.05,1.45,10.57,2.16,15.63,2.46,16.31a2.42,2.42,0,0,0,2.3,1.21,3.55,3.55,0,0,0,3.09-1.8c-.37-1.7-1.07-6.69-2.3-15.72-.95-7-1.94-14.21-2.35-16.05a76.29,76.29,0,0,1-1.06-9.23c-.19-2.44-.39-5-.68-7.31-.34-2.69-.87-6.47-1.34-9.8-.56-4-1-7.43-1.13-8.45,0-.54,0-1.17,0-2.14,0-2.6.05-7.44-.69-19-1-15.72-4.1-21.29-11.84-21.29a19.92,19.92,0,0,0-3,.25C126.6,56.43,129.1,62.4,130,76.23Z"/></g><path class="cls-12" d="M287.91,225.82c-1.36-1.25-4-4.2-2.48-7.48,1.95-4.34,7.91-11.1,12.26-15.27.26.53,3.15,1.72,3.33,2.22.63,1.82.06,4.11-2.15,7.64C296.89,216.09,293.2,220.43,287.91,225.82Z"/><path class="cls-13" d="M287.91,225.82a10,10,0,0,1-2.29-2.67,5.76,5.76,0,0,1-.82-3.48,5.47,5.47,0,0,1,.53-1.75c.24-.55.52-1.07.81-1.59.59-1,1.24-2,1.92-3a63.58,63.58,0,0,1,4.42-5.52c1.56-1.76,3.17-3.48,4.86-5.12l.79.14c0-.06.08.07.17.13l.35.23.77.44a14.23,14.23,0,0,1,1.63,1,1.46,1.46,0,0,1,.23.21,1,1,0,0,1,.14.18,1.1,1.1,0,0,1,.08.19,5,5,0,0,1,.12.49,4.86,4.86,0,0,1,.11,1,6.82,6.82,0,0,1-.28,1.93,16,16,0,0,1-1.54,3.42,27.87,27.87,0,0,1-2.06,3.07c-1.48,1.95-3.1,3.78-4.76,5.57S289.7,224.17,287.91,225.82Zm0,0c1.62-1.81,3.26-3.61,4.81-5.48s3.12-3.72,4.5-5.69a23,23,0,0,0,3.34-6.27,6,6,0,0,0,.22-1.67,3.59,3.59,0,0,0-.1-.81,2.48,2.48,0,0,0-.1-.39s0-.09,0,0,0,0,0,0l-.11-.1a15.89,15.89,0,0,0-1.51-.88l-.81-.46-.42-.27a1.46,1.46,0,0,1-.48-.49l.79.14c-1.67,1.61-3.31,3.28-4.87,5s-3.05,3.53-4.48,5.36c-.7.93-1.39,1.87-2,2.85a9.32,9.32,0,0,0-1.4,3.09,5.29,5.29,0,0,0,.57,3.29A11,11,0,0,0,287.91,225.82Z"/><path class="cls-12" d="M129.83,73.41a4.9,4.9,0,0,1-5.09,5.19h-6.57a4.9,4.9,0,0,1-5.08-5.18L114,62.47c.17-2.13,2.32-3.8,4.8-3.81h5.38c2.49,0,4.64,1.66,4.82,3.8Z"/><path class="cls-13" d="M129.83,73.41a4.72,4.72,0,0,1-1.3,3.65,5.26,5.26,0,0,1-3.57,1.6l-4,.09-2,0a8.7,8.7,0,0,1-2-.08,5.31,5.31,0,0,1-3.44-2.25,4.87,4.87,0,0,1-.78-2,6.52,6.52,0,0,1-.06-1.08l.06-1c.16-2.65.36-5.3.56-7.94l.16-2a4.13,4.13,0,0,1,.77-2.08,5.37,5.37,0,0,1,3.68-2.1,14,14,0,0,1,2,0l2,0,2,0a6.21,6.21,0,0,1,2,.35,4.71,4.71,0,0,1,2.92,2.78,7.26,7.26,0,0,1,.25,2l.12,2C129.43,68.12,129.62,70.76,129.83,73.41Zm0,0c-.22-2.64-.45-5.29-.71-7.93l-.2-2a7.34,7.34,0,0,0-.33-1.91,4.33,4.33,0,0,0-2.78-2.42,5.88,5.88,0,0,0-1.87-.22l-2,0-2,0a19.27,19.27,0,0,0-1.93.1,4.59,4.59,0,0,0-3,1.8,3.36,3.36,0,0,0-.57,1.61l-.15,2q-.32,4-.69,7.93l-.1,1a5.52,5.52,0,0,0,0,.91,4.13,4.13,0,0,0,.58,1.73,4.72,4.72,0,0,0,3,2.12,8.67,8.67,0,0,0,1.93.17l2,0c1.32,0,2.66.08,4,.08A5.12,5.12,0,0,0,128.51,77,4.66,4.66,0,0,0,129.83,73.41Z"/><path class="cls-12" d="M81.29,123.31a4.76,4.76,0,0,1-3.06,6l-5.35,1.66a4.34,4.34,0,0,1-5.54-3.28L64.9,117A4.54,4.54,0,0,1,68,111.8l4.81-1.5a4.12,4.12,0,0,1,5.24,2.62Z"/><path class="cls-13" d="M81.29,123.31A4.87,4.87,0,0,1,81,127a4.76,4.76,0,0,1-2.83,2.39l-3.57,1.2c-.6.2-1.18.41-1.8.59a4.47,4.47,0,0,1-2,.15,4.65,4.65,0,0,1-3.25-2.16,6,6,0,0,1-.71-1.85l-.46-1.82c-.61-2.44-1.18-4.89-1.75-7.33l-.21-.92a5.8,5.8,0,0,1-.13-1,4.72,4.72,0,0,1,.43-2,5,5,0,0,1,3-2.71c1.22-.38,2.42-.7,3.63-1,.62-.17,1.17-.36,1.85-.5a4.56,4.56,0,0,1,2,.07,4.23,4.23,0,0,1,2.89,2.49c.39,1.23.69,2.43,1.06,3.64C79.83,118.51,80.56,120.91,81.29,123.31Zm0,0c-.75-2.39-1.51-4.79-2.3-7.17-.4-1.18-.78-2.4-1.21-3.55a3.83,3.83,0,0,0-2.71-2.13,4.13,4.13,0,0,0-1.75,0c-.55.14-1.18.39-1.76.58L68,112.27a4.2,4.2,0,0,0-2.38,2.28,4,4,0,0,0-.33,1.63,4.06,4.06,0,0,0,.12.83l.21.91c.55,2.45,1.1,4.9,1.62,7.36l.38,1.85a5.34,5.34,0,0,0,.54,1.68,4,4,0,0,0,2.75,2c1.17.28,2.36-.23,3.57-.55l3.63-1A4.6,4.6,0,0,0,80.94,127,4.82,4.82,0,0,0,81.29,123.31Z"/><path class="cls-12" d="M184.06,61.53c0,2.82-1.85,5.92-4.92,5.93L171,66.91c-3.52,0-5.56-2.28-4.47-5.45l2.72-11.07c.63-1.78,3.9-3.27,6.15-3L180,48c2.05.26,4.15,2.14,4.14,3.84Z"/><path class="cls-13" d="M184.06,61.53a6.88,6.88,0,0,1-1.28,4A5,5,0,0,1,181.21,67a4.31,4.31,0,0,1-2.07.56h0l-8.2-.37h0a6.87,6.87,0,0,1-2.2-.29,4.52,4.52,0,0,1-1.95-1.17,3.81,3.81,0,0,1-1-2.11,5.15,5.15,0,0,1,.25-2.28v0c.84-3.7,1.75-7.39,2.68-11.07v-.05a5.16,5.16,0,0,1,2.77-2.51,7.56,7.56,0,0,1,3.55-.71c1.19.15,2.29.33,3.45.5.57.09,1.13.16,1.72.26a5.4,5.4,0,0,1,1.67.66,4.91,4.91,0,0,1,2.24,2.69,7,7,0,0,1,.05,1.76l0,1.73Zm0,0V54.61l0-1.73a7.17,7.17,0,0,0-.12-1.69,4.6,4.6,0,0,0-2.21-2.41,4.85,4.85,0,0,0-1.55-.54c-.55-.07-1.14-.12-1.71-.18-1.14-.11-2.32-.25-3.42-.33a7.17,7.17,0,0,0-3.15.77,4.43,4.43,0,0,0-2.22,2v0c-.88,3.69-1.78,7.38-2.75,11.06v0h0a4.52,4.52,0,0,0-.27,1.91,2.94,2.94,0,0,0,.71,1.71A4.87,4.87,0,0,0,171,66.64h0l8.19.74h0a4.45,4.45,0,0,0,3.61-1.88A6.92,6.92,0,0,0,184.06,61.53Z"/><path class="cls-12" d="M234.39,85.28A5.72,5.72,0,0,1,228.66,90L222,88.79c-3.27-.16-4.78-2.56-4-5.24l2.65-10.3c.61-2,3.2-3.18,5.75-2.78l5.26.82c2.33.37,4,2.1,3.78,4Z"/><path class="cls-13" d="M234.39,85.28a5.48,5.48,0,0,1-2,3.45,5.63,5.63,0,0,1-3.77,1.39h0L222,89h0a5.28,5.28,0,0,1-2.9-.88,3.87,3.87,0,0,1-1.6-2.67,4.93,4.93,0,0,1,0-1.58l.34-1.44.69-2.84c.48-1.89.94-3.79,1.44-5.67l.19-.7a3.62,3.62,0,0,1,.31-.78,4.27,4.27,0,0,1,1.06-1.25,6,6,0,0,1,2.9-1.18A7.3,7.3,0,0,1,226,70c.53.06,1,.16,1.47.24l2.88.53,1.44.26a5.67,5.67,0,0,1,1.44.48,4.33,4.33,0,0,1,2.13,2.11,3.19,3.19,0,0,1,.25,1.49c0,.5-.13,1-.19,1.46l-.37,2.89Zm0,0,.6-5.82.27-2.9a4.89,4.89,0,0,0-.18-2.8,4,4,0,0,0-2-1.82,10.39,10.39,0,0,0-2.79-.57L227.38,71c-.48-.06-1-.14-1.43-.17a6.89,6.89,0,0,0-1.36.07A5.2,5.2,0,0,0,222.17,72a3.35,3.35,0,0,0-.8,1,2.7,2.7,0,0,0-.23.58l-.18.71c-.46,1.89-1,3.77-1.47,5.66l-.76,2.81a8,8,0,0,0-.5,2.71,3.18,3.18,0,0,0,1.23,2.25,4.56,4.56,0,0,0,2.56.91h0L228.67,90h0a5.37,5.37,0,0,0,3.73-1.26A5.47,5.47,0,0,0,234.39,85.28Z"/><path class="cls-1" d="M64.8,115.94A7.94,7.94,0,0,1,70,109.88a6.72,6.72,0,0,1,4.25,0,7.82,7.82,0,0,1,1.88.86,10.18,10.18,0,0,1,1.54,1.3c-.69-.09-1.29-.28-1.91-.39l-.91-.14-.45-.08h-.44a8.07,8.07,0,0,0-3.34.39,10.34,10.34,0,0,0-3,1.62A29.37,29.37,0,0,0,64.8,115.94Z"/><path class="cls-1" d="M114.21,60.69a8.13,8.13,0,0,1,3-3,8.29,8.29,0,0,1,4.3-1.18,7.85,7.85,0,0,1,4.27,1.31,9.36,9.36,0,0,1,1.68,1.38,12.24,12.24,0,0,1,1.25,1.73c-.67-.28-1.24-.65-1.84-.95l-.9-.4-.44-.22-.46-.15a10,10,0,0,0-3.58-.7,11.26,11.26,0,0,0-3.63.59A25.75,25.75,0,0,0,114.21,60.69Z"/><path class="cls-1" d="M168.57,50.71a8.57,8.57,0,0,1,3.44-3,9.27,9.27,0,0,1,9.15.44A10.54,10.54,0,0,1,183,49.54a15,15,0,0,1,1.42,1.78c-.72-.3-1.34-.67-2-1l-1-.43c-.17-.07-.32-.15-.48-.23l-.49-.16c-.33-.11-.65-.22-1-.35l-1-.22a4.89,4.89,0,0,0-1-.17,5.34,5.34,0,0,0-1-.1,12.1,12.1,0,0,0-4,.45A23.36,23.36,0,0,0,168.57,50.71Z"/><path class="cls-1" d="M220.69,71.83a8.31,8.31,0,0,1,3.66-2.54,8.75,8.75,0,0,1,4.6-.42,8.59,8.59,0,0,1,4.17,2,9.61,9.61,0,0,1,1.55,1.64,13.73,13.73,0,0,1,1.09,1.94c-.65-.39-1.2-.85-1.77-1.24l-.88-.55-.43-.28-.45-.23a9,9,0,0,1-.87-.46l-.91-.35a5.76,5.76,0,0,0-.92-.28,4.23,4.23,0,0,0-.92-.21,11.94,11.94,0,0,0-3.87,0A24.15,24.15,0,0,0,220.69,71.83Z"/><path class="cls-1" d="M299.29,211.31a6.36,6.36,0,0,0,1.48-2.61,3.7,3.7,0,0,0-.24-2.62l-.15-.27c-.06-.08-.14-.14-.2-.22a1.78,1.78,0,0,0-.44-.35c-.14-.12-.32-.14-.45-.24s-.3-.14-.47-.18a6,6,0,0,0-2.74,0l-.12-.16a3.34,3.34,0,0,1,3.17-1.81,4.27,4.27,0,0,1,1.05.27,3.4,3.4,0,0,1,1.46,1.48,3.81,3.81,0,0,1,.38.91,4.69,4.69,0,0,1-.32,3.56,6.4,6.4,0,0,1-2.29,2.41Z"/></g></svg>