<?xml version="1.0" encoding="utf-8"?>
<!-- Generator: Adobe Illustrator 26.0.3, SVG Export Plug-In . SVG Version: 6.00 Build 0)  -->
<svg version="1.1" id="Layer_1" xmlns="http://www.w3.org/2000/svg" xmlns:xlink="http://www.w3.org/1999/xlink" x="0px" y="0px"
	 viewBox="0 0 619.9 562.4" style="enable-background:new 0 0 619.9 562.4;" xml:space="preserve">
<style type="text/css">
	.st0{opacity:0.2;enable-background:new    ;}
	.st1{fill:#0FBA98;stroke:#FFFFFF;stroke-width:4.99;stroke-miterlimit:10;}
	.st2{clip-path:url(#SVGID_00000037677018993059843460000010665820429460742317_);}
	.st3{fill:#5B5E5E;}
	.st4{fill:#F7CA4D;}
	.st5{fill:#454647;}
	.st6{fill:#454647;stroke:#453323;stroke-width:5;stroke-miterlimit:10;}
	.st7{fill:#3B4044;}
	.st8{fill:#282B2D;}
	.st9{fill:#BDBDBD;}
	.st10{fill:#1A1B1C;}
	.st11{fill:#847729;stroke:#453323;stroke-width:5;stroke-miterlimit:10;}
	.st12{fill:#823B07;}
	.st13{fill:none;}
	.st14{opacity:0.13;fill:#FFFFFF;enable-background:new    ;}
	.st15{fill:#FBD3C7;}
	.st16{fill:#FBD3C7;stroke:#453323;stroke-miterlimit:10;}
	.st17{fill:#DF71E2;stroke:#710E7C;stroke-width:0.5;stroke-linejoin:round;}
	.st18{fill:#61435B;stroke:#1C101A;stroke-width:0.5;stroke-miterlimit:10;}
	.st19{fill:#F8E1DB;}
	.st20{fill:#F9D1C6;stroke:#323232;stroke-width:0.75;stroke-miterlimit:10;}
	.st21{fill:#DB9D8E;}
	.st22{fill:#342517;}
	.st23{fill:#F9D1C6;}
	.st24{fill:#49442E;}
	.st25{fill:#FFFFFF;stroke:#3D2D16;stroke-width:0.75;stroke-miterlimit:10;}
	.st26{fill:#3D2D16;}
	.st27{fill:#FFFFFF;}
	.st28{opacity:0.5;fill:#EAA698;enable-background:new    ;}
	.st29{fill:#7A2F2B;}
	.st30{fill:#F9988F;}
	.st31{fill:#F58778;}
	.st32{fill:#FFF7F4;}
	.st33{fill:#F48A71;}
	.st34{fill:#561211;}
	.st35{fill:#3D2E17;}
	.st36{fill:#451F16;}
	.st37{fill:#8C3E36;}
	.st38{fill:#453323;}
</style>
<g>
	<g id="Layer_1_00000028319870152730333630000009158819445274319016_">
		<path class="st0" d="M312.1,534.6c-152.1,0-274.5-113.8-274.5-254.2S160.9,27.8,313,27.8c150.4,0,273.5,112.1,273.5,252.5
			S464.2,534.6,312.1,534.6z"/>
		<path class="st1" d="M302.2,520.2c-148.4,0-268.7-109-268.7-243.5S153.8,33.1,302.2,33.1s268.8,109,268.8,243.5
			S450.6,520.2,302.2,520.2z"/>
		<g>
			<defs>
				<path id="SVGID_1_" d="M302.3,517.3c-146.8,0-265.8-107.8-265.8-240.9s119-240.9,265.8-240.9s265.8,107.8,265.8,240.9
					S449.1,517.3,302.3,517.3z"/>
			</defs>
			<clipPath id="SVGID_00000046316348067902703980000016250562004039612802_">
				<use xlink:href="#SVGID_1_"  style="overflow:visible;"/>
			</clipPath>
			<g style="clip-path:url(#SVGID_00000046316348067902703980000016250562004039612802_);">
				<path class="st3" d="M-680.8,396.3h351.2v194.9h-351.2V396.3z M397.5,591.2h351.2V396.3H397.5V591.2z"/>
				<path class="st4" d="M1117.2,504.2V474c-8.8-2.9-14.7-11.2-14.6-20.5v-70.4c-0.1-9.3,5.8-17.6,14.6-20.5v-71.2
					c0,0-42.9-160.3-45.6-174.5c-0.1-4.8,11.8-9.8,11.8-9.8c0.2-10.5-2.3-21-7.3-30.3c-8.2-15.1-31-36.5-36.5-39.2
					s-21.9-5.3-32.8-5.3H-913.4c0,0-21-0.9-43.8,24.9s-22.2,117.8-22.9,158.5s-2.7,162.1-2.7,162.1v121.1c0,0,14.6,44.5,24.6,57.9
					s46.5,63.2,52.9,64.1c5.3,0.7,203.6,0.2,270,0.1v-67.7c0-72.8,60.5-131.8,135-131.8s135,59,135,131.8c0,10.5,3.6,67.7,3.6,67.7
					h796.3v-67.7c0-72.8,64.1-131.8,138.7-131.8c69.7,0,127,51.5,134.2,117.5h0.8v81.9H994l0.1,0.9c0,0,47.4,2.7,80.3,0
					s31-62.3,31-62.3l-5.6,2.2c9.9-14.2,16.5-26.2,16.5-26.2L1117.2,504.2L1117.2,504.2z"/>
				<path class="st4" d="M1423.8,630.4v-30.3c-8.8-2.9-14.7-11.2-14.6-20.5v-70.3c-0.1-9.3,5.8-17.6,14.6-20.5v-71.2
					c0,0-42.9-160.3-45.6-174.5c-0.1-4.8,11.8-9.8,11.8-9.8c0.2-10.5-2.3-21-7.3-30.3c-8.2-15.1-31-36.5-36.5-39.2
					s-21.9-5.3-32.8-5.3H-606.9c0,0-21-0.9-43.8,24.9s-22.2,117.8-22.9,158.5s-2.7,162-2.7,162V625c0,0,14.6,44.5,24.6,57.9
					s46.5,63.2,52.9,64.1c5.3,0.7,203.6,0.2,270,0.1v-67.7c0-72.8,60.5-131.8,135-131.8s135,59,135,131.8c0,10.5,3.6,67.7,3.6,67.7
					h796.3v-67.7c0-72.8,64.1-131.8,138.7-131.8c69.7,0,127,51.5,134.2,117.5h0.8V747h285.7l0.1,0.9c0,0,47.4,2.7,80.3,0
					s31-62.3,31-62.3l-5.6,2.2c9.9-14.2,16.5-26.2,16.5-26.2L1423.8,630.4L1423.8,630.4z"/>
				<path class="st5" d="M-963.5,564.3c0.1-2.8,0.2-6.4,0.4-10.5l2099.5-0.7v10.5l0,0L-963.5,564.3z"/>
				<path class="st6" d="M1115.9,294.9c-3,1.4-6.3-0.7-7-4.5l-38.6-214.9c-0.7-3.8,1.7-7.4,5-7.5c3.6,0.2,10.3-1.7,11.3,4.5
					c14.2,57.1,34.9,159.2,32.6,216.4C1119.4,291.3,1118.1,293.7,1115.9,294.9z M1073.7,295.4c0,0,14.6-14.2,14.6-26.1
					s-32.8-184.1-41.1-195c-49.6-16.8-129.3-5.5-173.5-8.7c-57.2-4.1-29.8,186.4-34.8,223.8c0.1,3.4,2.4,6,5.2,6L1073.7,295.4z
					 M498.7,65.4h295.9c2.9,0,5.2,2.8,5.2,6.2v217.6c0,3.4-2.3,6.2-5.2,6.2H498.8c-2.9,0-5.2-2.8-5.2-6.2V71.7
					C493.6,68.2,495.9,65.4,498.7,65.4L498.7,65.4z M-217.3,65.4H78.7c2.9,0,5.2,2.8,5.2,6.2v217.6c0,3.4-2.3,6.2-5.2,6.2h-295.9
					c-2.9,0-5.2-2.8-5.2-6.2V71.7C-222.4,68.2-220.1,65.4-217.3,65.4L-217.3,65.4z M-575.3,65.4h295.9c2.9,0,5.2,2.8,5.2,6.2v217.6
					c0,3.4-2.3,6.2-5.2,6.2h-295.8c-2.9,0-5.2-2.8-5.2-6.2V71.7C-580.4,68.2-578.1,65.4-575.3,65.4L-575.3,65.4z M-948.3,195.5
					c1.8-63.6,1.8-127,12.8-130.1h298c2.9,0,5.2,2.8,5.2,6.2v217.6c0,3.4-2.3,6.2-5.2,6.2H-943c-2.9,0-5.2-2.8-5.2-6.2L-948.3,195.5
					z"/>
				<path class="st7" d="M730.8,573.2c0-81.4-71.2-150.2-155.4-150.2S420,491.8,420,573.2c0,1.9,0.1,15.9,0.1,17.8h310.5
					C730.8,589.1,730.8,575.1,730.8,573.2z"/>
				<path class="st8" d="M706,576.8c0-69.8-58.5-126.3-130.6-126.3S444.7,507,444.7,576.8s58.5,126.3,130.7,126.3
					S706,646.5,706,576.8z"/>
				<path class="st9" d="M664.2,576.8c0-47.8-39.8-86.5-88.8-86.5s-88.8,38.7-88.8,86.5s39.8,86.5,88.8,86.5
					S664.2,624.6,664.2,576.8z"/>
				<path class="st10" d="M657,576.8c0-43.6-36.5-78.9-81.6-78.9s-81.6,35.3-81.6,78.9s36.6,78.9,81.6,78.9S657,620.4,657,576.8z"/>
				<path class="st9" d="M606.3,549.9c-7.5,2.4-13.5-1.9-13.5-9.6V496h-33.9v43.5c0,7.7-6.1,12-13.5,9.6l-43-13.7L491.8,567
					l42.2,13.4c7.5,2.4,9.8,9.4,5.2,15.6l-26.6,35.9l27.5,19.5l26.1-35.2c4.6-6.2,12.1-6.2,16.7,0l26.6,35.9l27.5-19.5l-26.1-35.2
					c-4.6-6.2-2.3-13.2,5.2-15.6l43.1-13.7l-10.5-31.6L606.3,549.9z"/>
				<path class="st10" d="M593.9,576.8c0-9.9-8.3-17.9-18.5-17.9s-18.5,8-18.5,17.9s8.3,17.9,18.5,17.9S593.9,586.7,593.9,576.8z"/>
				<path class="st8" d="M581.7,550.1c0.1-3.7-2.7-6.7-6.4-6.9c-3.7-0.1-6.7,2.7-6.9,6.4c-0.1,3.7,2.7,6.7,6.4,6.9
					c0.1,0,0.2,0,0.2,0C578.7,556.6,581.6,553.8,581.7,550.1C581.7,550.1,581.7,550.1,581.7,550.1z"/>
				<path class="st11" d="M75.3,67.7H-213c-2.8,0-5.1,2.7-5.1,6v211c0,3.3,2.3,6,5.1,6H75.3c2.8,0,5.1-2.7,5.1-6v-211
					C80.4,70.3,78.1,67.7,75.3,67.7z"/>
				<path class="st11" d="M792.7,67.6H500.6c-2.8,0-5.1,2.7-5.1,6.1V287c0,3.4,2.3,6.1,5.1,6.1h292.1c2.8,0,5.1-2.7,5.1-6.1V73.7
					C797.8,70.3,795.5,67.6,792.7,67.6z"/>
				<path class="st12" d="M69.8,459.9c0.1,4.7-0.7,9.4-2.4,13.8c-1.5,3.8-3.9,7.3-7,10.1c-3.1,2.8-6.8,4.9-10.8,6.2
					c-4.5,1.5-9.2,2.2-14,2.1c-4.8,0.1-9.5-0.7-14-2.1c-4-1.3-7.7-3.4-10.8-6.2c-3.1-2.8-5.5-6.2-7.1-10.1
					c-3.3-8.8-3.4-18.5-0.1-27.2c1.5-3.8,3.9-7.2,6.9-10c3.1-2.8,6.8-5,10.9-6.2c4.6-1.5,9.4-2.2,14.2-2.2c4.7-0.1,9.5,0.6,14,2.1
					c4,1.3,7.7,3.3,10.8,6.1c3.1,2.8,5.5,6.2,7,10C69,450.5,69.9,455.2,69.8,459.9z M49.9,459.9c0-4.6-1.3-8.2-4-10.8
					c-2.7-2.6-6.3-3.9-10.8-3.9c-4.6,0-8.2,1.3-10.6,3.9c-2.5,2.6-3.7,6.2-3.7,10.8c0,4.8,1.2,8.5,3.6,11.1s6,3.9,10.7,3.9
					c4.7,0,8.4-1.3,10.9-3.9C48.7,468.5,49.9,464.8,49.9,459.9L49.9,459.9z"/>
				<path class="st12" d="M89,492.1V390.6h19.8v101.5H89z"/>
				<path class="st12" d="M260.9,464.3c0,9.1-4,16.1-11.9,20.8c-8,4.7-20.3,7.1-37.1,7.1c-1.7,0-3.8-0.1-6.4-0.1
					c-2.6-0.1-5.3-0.2-8.3-0.4c-2.9-0.1-5.9-0.4-8.8-0.6c-2.9-0.3-5.5-0.6-7.8-0.9v-99.6h29.6c6.2-0.1,12.4,0.4,18.6,1.4
					c4.8,0.7,9.4,2.2,13.7,4.4c3.5,1.8,6.4,4.5,8.5,7.8c2,3.5,3,7.4,2.9,11.4c0.1,4.7-1.2,9.2-3.6,13.2c-2.4,3.9-6.7,6.9-13.1,8.9
					c7.8,1.7,13.7,4.8,17.7,9.2C258.9,451.2,260.9,457,260.9,464.3z M230.1,418.6c0.2-3.9-2.1-7.4-5.8-8.8c-3.9-1.7-9.2-2.4-16-2.2
					l-4.3,0.1v22.6l5.8,0.1c7.1,0.2,12.3-0.7,15.5-2.6C228.5,425.9,230.1,422.8,230.1,418.6z M235.2,461.9c0-9.8-7.8-14.5-23.3-14.2
					c-1,0.1-2,0.2-3,0.1H204v26.2c1.7,0.2,3.4,0.3,5.2,0.4s3.2,0.1,4.3,0.1c7.5,0,12.9-1,16.4-3.1
					C233.4,469.5,235.2,466.3,235.2,461.9L235.2,461.9z"/>
				<path class="st12" d="M322.8,490.4c-0.5-1.1-0.9-2.2-1.3-3.4c-0.2-0.9-0.5-2.1-0.8-3.8c-6.2,5.9-13.2,8.9-21,8.9
					c-3.1,0-6.1-0.6-8.9-1.8c-2.7-1.2-5.1-2.8-7.2-4.9c-2.1-2.1-3.7-4.7-4.7-7.5c-1.1-3.1-1.7-6.4-1.6-9.8c0-4,0.1-7.7,0.3-11.1
					c0.2-3.4,0.4-6.6,0.5-9.8c0.1-3.1,0.1-6.2,0-9.4c-0.1-3.1-0.4-6.4-0.8-9.9h19.9c0.3,3.2,0.5,6.2,0.5,9.2c0,3,0,5.9,0,8.8
					c-0.1,2.9-0.1,5.9-0.3,8.9c-0.1,3-0.2,6.2-0.2,9.5c-0.1,2,0.2,4.1,0.9,6c0.5,1.3,1.3,2.4,2.4,3.2c0.9,0.6,1.9,1,3,1.2
					c0.9,0.1,1.8,0.2,2.6,0.2c1.1-0.1,2.1-0.3,3.2-0.6c1.7-0.5,3.3-1.4,4.5-2.7c1.8-1.8,3.1-3.9,4-6.2c1.3-3.5,1.9-7.2,1.7-11V428
					h19.9v42.4c0,3.7,0.3,7.4,0.9,11c0.4,3.1,1.2,6.1,2.4,8.9L322.8,490.4z"/>
				<path class="st12" d="M411.1,474.4c0,6.1-2.1,11-6.3,14.6c-4.2,3.6-10.1,5.4-17.8,5.4c-5.1,0-10.2-0.5-15.1-1.5
					c-4.1-0.7-8.2-2.1-11.9-3.9l2.5-14.9c8.7,4.4,16.2,6.6,22.7,6.5c2.2,0,3.8-0.5,4.7-1.4c0.9-0.8,1.4-1.9,1.4-3.1
					c0.1-1.3-0.3-2.5-1.1-3.6c-0.7-0.9-2.6-2.1-5.5-3.4c-3.6-1.5-7.1-3.3-10.5-5.2c-2.6-1.5-5-3.3-7.2-5.5c-1.7-1.7-3.1-3.8-4-6
					c-0.9-2.3-1.3-4.8-1.3-7.3c0-6.1,2.4-10.9,7.2-14.2c4.8-3.3,11.1-5,18.9-5c3.7,0,7.5,0.3,11.1,1c3.8,0.8,7.5,2,11.1,3.6
					l-2.4,14.7c-3.2-1.9-6.7-3.2-10.3-4c-3.2-0.7-6.5-1.1-9.8-1.1c-2.3,0-3.9,0.4-4.8,1.2c-0.9,0.9-1.3,2-1.3,3.3c0,1.6,0.7,3.1,2,4
					c2.5,1.6,5.2,2.9,8,4c3.1,1.5,6.1,3.2,9.1,5c2.2,1.4,4.3,3.1,6.1,5c1.5,1.5,2.6,3.4,3.4,5.4C410.8,470,411.1,472.2,411.1,474.4z
					"/>
				<path class="st11" d="M155.5,66.7H447c6.5,0,11.7,5.2,11.7,11.7v206.1c0,6.5-5.2,11.7-11.7,11.7H155.5
					c-6.5,0-11.7-5.2-11.7-11.7V78.3C143.8,71.9,149,66.7,155.5,66.7z"/>
				<ellipse class="st13" cx="307.8" cy="290.9" rx="255.2" ry="253.9"/>
				<path class="st14" d="M77.9,87.5L-33,290.8l-19.2,0.4L70.5,70.1C70.5,70.1,82.8,64.5,77.9,87.5z"/>
				<path class="st14" d="M654,67.3L533,292.8l-19.2,0.4L641.4,67.4C641.4,67.4,643.9,67.3,654,67.3z"/>
				<path class="st14" d="M690.3,66.8L569.4,292.4l-19.2,0.4L677.7,66.9C677.7,66.9,680.2,66.8,690.3,66.8z"/>
				<path class="st15" d="M338.5,211.1c3.2-1.3,5.5-3.9,6.4-7.2c1.3-5.3-2.2-10.9-8.1-12.2c-2.9-0.6-6.4-0.7-11.2,2.7
					c3.6-3.8,9-5,13.9-3.1c4.1,1.6,7.7,5.7,6.9,11C345.6,206.8,341.9,210.6,338.5,211.1z"/>
				<path class="st13" d="M33.4,75.1c80.5-15.8,234.3-39.5,372.2-23.3c41.1,4.9,75,34.5,85.5,74.5c19.7,75.3,45.8,208,30.3,341.7
					c-5,43.8-34.5,86.4-78,94.4c-83.3,15.4-256.3,11.4-429.3-8.4c-42.9-4.9-74.1-43.6-79.4-86.2c-9.5-77.3-9-212.8,20.7-320.6
					C-34.3,110.3-4.2,82.4,33.4,75.1z"/>
				<path class="st16" d="M184.5,301.3c0,0,6.4-4.1,13.6-17.7c2.3-4.5,4.1-9.3,5.5-14.1c4.2-14.1-12.5-18.1-12.5-18.1l-5.2,9.8
					l-6.2,15.9C176.2,282.1,168.2,311.4,184.5,301.3z"/>
				<path class="st16" d="M284,303.4c0,0-6.4-4.1-13.6-17.7c-2.2-4.5-4.1-9.3-5.4-14.2c-4.2-14,12.5-18.1,12.5-18.1l5.2,9.8L289,279
					C292.2,284.2,300.3,313.5,284,303.4z"/>
				<path class="st17" d="M196.6,250.7c0,9.9,17.7,17.9,39.5,17.9s39.5-8,39.5-17.9c0-7.4-10-13.8-24.3-16.5
					c-5-0.9-10.1-1.4-15.2-1.4c-6.7,0-13.5,0.8-20,2.4C204.5,238.3,196.6,244.1,196.6,250.7z"/>
				<path class="st17" d="M264.9,268.5l-0.4,7.5c0.5,0,25.7,0.4,25.7,0.4c-0.3-0.9-5.8-16.3-6.1-17.2c-3.3-8.3-5.6-13.1-10.9-16.9
					c-6.3-4.3-13.5-7.1-21.1-8"/>
				<path class="st17" d="M216.9,235.1c0,0-9.8-0.5-21.3,7.8c-3.1,2.2-7.1,7.2-9.8,10.4c-0.5,0.6-8.7,23.4-9.1,24.1
					c0,0,14.8-0.8,27.7,1.9l2.5-12.3"/>
				<path class="st17" d="M204,253.6c-7.7,26.7-9.1,53.5-9.1,53.5l0,0c37.3,10.8,72.1,0.9,72.1,0.9c3.2-37.7-3.5-55.8-3.5-55.8"/>
				<path class="st16" d="M215.9,234c3,6.4,9.4,10.4,16.4,10.4c12.4,0.3,15.2-10.4,15.2-10.4c-0.2-0.5-0.5-1-0.7-1.5
					c-2.6-7.1,0.7-14.9,0.7-14.9s-34.3-12.2-30.2,0c2.8,8.3,1.1,12.9-0.2,15C216.7,233.1,216.3,233.6,215.9,234z"/>
				<path class="st18" d="M224.6,245.2c0.9-0.4,3.8-3.2,10.3-1.2s-0.9,10.4-0.9,10.4l-7,0.5C227.1,254.9,217.3,248.9,224.6,245.2z"
					/>
				<path class="st17" d="M218.2,227.4c-0.7,0.7-5.1,6.3-5.2,9.6s3.5,20.8,3.5,20.8l11.8-14.1c0,0-6.7-5.2-9.5-11.1L218.2,227.4z"/>
				<path class="st17" d="M233,243.7c-0.6,0.3,12.1,13.5,12.1,13.5c3.6-7.3,6.1-15,7.6-23l-5.9-8.7
					C246.8,225.4,244.3,238.2,233,243.7z"/>
				<path class="st18" d="M245.1,286.1c-0.1,0.5-0.2,1-0.4,1.4l0,0c-4.1,14.5-12.1,22.2-12.1,22.2c-2.6-2.7-5.1-5.5-7.3-8.5
					c-1-1.5-1.9-2.8-2.5-3.9c-1-1.5-1.7-3.2-2.2-5c0-1.8,0-3.5,0-5.1c0-1.5,0.1-3,0.2-4.5c0.2-3.7,0.6-7.3,1.2-10.9
					c0.3-1.6,0.5-3.1,0.8-4.5c1.9-9,4.4-13.5,4.2-14.1c-0.4-1.8,7.4-1.7,7.4-1.7c0.4,3,1,6,1.8,9c0.3,1,0.6,2,0.9,3.1
					c0.9,3,1.9,6,2.8,8.8l1,2.9c1.2,3.4,2.4,6.4,3.1,8.4C244.7,285.2,245.1,286.1,245.1,286.1z"/>
				<path class="st19" d="M237.1,263.6c-5.3,2-10.2,4.7-14.7,8.2c0.2-1.6,0.6-3.3,0.9-4.7c4-2.7,8.4-4.9,12.9-6.6
					C236.5,261.5,236.8,262.6,237.1,263.6z"/>
				<path class="st19" d="M240.6,275.6c-5.5,2.6-14.5,7.3-19.5,11.7c0-1.5,0.1-3.3,0.2-4.8c5.6-4.1,11.8-7.4,18.3-9.9
					C239.9,273.6,240.2,274.6,240.6,275.6z"/>
				<path class="st19" d="M244.6,286.2c-0.1,0.5-0.2,1.1-0.4,1.5l0,0c-5.4,2.9-13.7,7.7-18.6,13.2c-0.9-1.2-1.7-2.5-2.5-3.8
					c6.4-5.2,13.2-9.6,20.6-13.3C244.3,285.4,244.6,286.2,244.6,286.2z"/>
				<path class="st20" d="M291.3,196.8c-3.8,7.5-10.6,11.2-16.8,8.6s-4.1-6.9-0.9-14.7s2.7-7.6,8.9-10.3
					C294.6,175.1,295.2,188.9,291.3,196.8z"/>
				<path class="st21" d="M285.4,183.9c0.9-0.4,2-0.4,2.9,0.1c1.1,0.7,1.3,2.2,1.3,3.6c-0.3,4.7-2.1,9.1-5.2,12.7
					c-0.4,0.6-1,1.1-1.7,1.5c-0.7,0.4-1.5,0.3-2.1-0.1c-0.6-0.6-0.8-1.5-0.6-2.3c0.5-2.1,2.3-3.6,3.8-5.1c0.4-0.4,0.8-0.9,1-1.4
					c0.2-0.6,0.1-1.2-0.3-1.6c-0.4-0.3-0.8-0.5-1.3-0.5c-0.9-0.1-1.9,0-2.8,0.1c-0.5-1.4,0.6-2.7,1.4-3.7
					C282.6,185.6,283.9,184.5,285.4,183.9z"/>
				<path class="st20" d="M177,198.2c3.8,7.2,11.5,8.4,16.4,5s2.5-7.4-1.3-14.6s-3.7-6.9-9.3-8.7C172.5,176.7,173.2,191,177,198.2z"
					/>
				<path class="st21" d="M181.2,183.4c-0.8-0.3-1.8-0.1-2.4,0.5c-0.8,0.9-0.8,2.4-0.6,3.7c0.8,4.5,3,8.6,6.1,11.8
					c0.4,0.5,1,1,1.6,1.2c0.6,0.3,1.3,0.1,1.8-0.4c0.4-0.7,0.5-1.6,0.2-2.4c-0.7-2-2.4-3.2-3.9-4.6c-0.4-0.4-0.8-0.8-1-1.3
					c-0.3-0.5-0.3-1.1,0-1.7c0.2-0.3,0.6-0.6,1-0.7c0.8-0.2,1.6-0.3,2.4-0.3c0.2-1.4-0.9-2.6-1.7-3.5
					C183.8,184.8,182.6,183.9,181.2,183.4z"/>
				<path class="st20" d="M279.5,158.7c-1.1-28-17.4-45.5-49.4-43.5c-31,2-48,19.1-46.8,47.1c0.5,12.9,4.9,35.1,5,35.8
					c2.2,27.3,28.6,36.4,46.6,36.4c7,0,43.3-12.3,42.9-42C277.8,191.8,280,171.7,279.5,158.7z"/>
				<path class="st21" d="M263.7,145.6c0,0-8.1,11.4-42.8,9.3l1.3-4.7c0,0-9.7,6.1-30.2,8.6l-5.9,23.9l6.1-51.7l73.9-1.8l10.5,12.4
					l-1.5,14.3c0,0,4.7,23.9,2.8,33.6L272,166C272,166,264,181.6,263.7,145.6z"/>
				<path class="st22" d="M265.6,142.7c0,0-7.1,11.9-46.6,10.8c0,0,3.1-3.3,6.9-11.6c-6.9,11.6-21.1,10.5-32.6,15.3l0.3-16.3
					l-7.6,41.8c0,0-6.8-5.7-8-13.4c0,0-3.4-11.1-0.4-20.2c0,0-2,1.2-3.1,5.7c0,0-8.7-28.7,16.5-44.9c0,0-3.2-22.4,17.4-25.2
					c0,0-13,23.4,16.2,10.8c12.2-5.2,42-4.1,44.7,14.3c0,0,14.2-8,21.6,16.1c0,0-7.7-4.5-14.2-4.9c0,0,9.3,3.3,11.7,24.1
					c2.3,19.7-2.6,30.1-10.2,43.3c0,0-1-12.7-5.6-23.9l-2.9,3.6C269.5,168.2,261.8,163.7,265.6,142.7z"/>
				<path class="st22" d="M192,91.4c0,0-20.1,19.4-8.8,27.5s11.3-5.1,11.3-5.1S182.1,104.6,192,91.4z"/>
				<path class="st22" d="M213.2,86c0,0-8.3,17.8,5.6,17c8.6-0.5,3.8-6.6,3.8-6.6S213,96.3,213.2,86z"/>
				<path class="st22" d="M179.1,108c0,0-10.1,13.8-0.9,16.9s6.8-5.9,6.8-5.9S174.7,116.9,179.1,108z"/>
				<path class="st22" d="M167.5,121.5c0,0,10.3,12.8,15.7,6.6s-1.6-6.3-1.6-6.3S174.7,128,167.5,121.5z"/>
				<path class="st22" d="M218.9,160.8c-3.6-0.4-16.1,1.3-18.1,9.2c0,0,9.4-5.1,18.1-5.1C218.9,164.9,220.8,161.1,218.9,160.8z"/>
				<path class="st22" d="M244,159.9c3.5-1,16.1-1.3,19.4,6.2c0,0-10.1-3.6-18.6-2.1C244.7,164,242.2,160.4,244,159.9z"/>
				<path class="st23" d="M225.9,195.1c1.8,1.5,4,2.6,6.3,3.1c3.6,0.7,8.4-4.2,8.4-4.2"/>
				<path class="st24" d="M225.9,195.1c2.5,1,4.8,2.2,7.5,2.2c2.5-0.4,4.9-2.1,7.2-3.3c-1.6,2.7-4.2,5.1-7.6,5.3
					C230.2,198.9,227.6,197.4,225.9,195.1L225.9,195.1z"/>
				
					<ellipse transform="matrix(9.949340e-02 -0.995 0.995 9.949340e-02 45.697 416.8766)" class="st25" cx="253.2" cy="183.2" rx="8.8" ry="8.3"/>
				
					<ellipse transform="matrix(9.948724e-02 -0.995 0.995 9.948724e-02 45.701 416.6577)" class="st26" cx="253" cy="183.1" rx="5.9" ry="5.6"/>
				
					<ellipse transform="matrix(9.949340e-02 -0.995 0.995 9.949340e-02 48.6629 410.0445)" class="st27" cx="250.9" cy="178.1" rx="1.6" ry="1.5"/>
				
					<ellipse transform="matrix(9.949340e-02 -0.995 0.995 9.949340e-02 8.5924 375.848)" class="st25" cx="211.9" cy="183.2" rx="8.8" ry="8.3"/>
				
					<ellipse transform="matrix(9.949340e-02 -0.995 0.995 9.949340e-02 8.594 375.6468)" class="st26" cx="211.8" cy="183.1" rx="5.9" ry="5.6"/>
				
					<ellipse transform="matrix(9.949340e-02 -0.995 0.995 9.949340e-02 11.5574 369.0348)" class="st27" cx="209.7" cy="178.1" rx="1.6" ry="1.5"/>
				<path class="st28" d="M249.2,204c0.7-0.3,1.5-1.4,2.2-1.8c0.7-0.4,1.4-0.6,2.1-0.7c1-0.1,2.2,0.3,2.4,1.1c0,0.8-0.3,1.5-1,1.9
					c-1.1,0.8-2.4,1.2-3.8,1.2c-0.6,0.1-1.2-0.2-1.6-0.6c-0.3-0.4,0-1.2,0.6-1.2L249.2,204z"/>
				<path class="st28" d="M217.5,206c-0.4-0.5-1.2-1.9-1.8-2.3c-0.4-0.3-0.8-0.4-1.3-0.5c-0.9-0.1-1.8,0.5-2.1,1.4
					c-0.3,0.9,0,1.8,0.6,2.4c0.6,0.7,1.4,1.1,2.3,1.4c0.6,0.2,1.2,0.3,1.9,0.2c0.6-0.1,1.1-0.5,1.3-1.1
					C218.3,206.9,218,206.3,217.5,206c-0.5-0.3-1.1-0.5-1.8-0.6L217.5,206z"/>
				<path class="st29" d="M214.4,205.3c0.2,0.6,0.5,1.2,0.8,1.8c1.8,3.5,5.9,10,11.2,12.4c3.9,1.7,8.4,1.6,12.3-0.2
					c5.1-2.4,7.3-5.2,10.2-9.9c0.9-1.5,1.9-3.3,3.1-5.3c0,0,0.3-0.4-0.2-0.4c-0.3,0-0.5,0.1-0.8,0.1c-2.8,0.8-10,4.8-21.2,4.2
					c-8.6-0.4-13.3-2.3-15-3.1c-0.2-0.1-0.4,0-0.5,0.2c0,0,0,0,0,0C214.4,205.1,214.4,205.2,214.4,205.3z"/>
				<path class="st30" d="M215.2,207.1c1.8,3.5,5.9,10,11.2,12.4c3.9,1.7,8.4,1.6,12.3-0.2c5.1-2.4,7.3-5.2,10.2-9.9
					c-3.4,3.7-9.1,8.6-16,9C223.5,219,217.1,210,215.2,207.1z"/>
				<path class="st31" d="M214.4,205.1c5.9,3.3,12.7,4.8,19.4,4.5c10.3-0.4,16.2-4.5,18-5.9c-0.3,0-0.5,0.1-0.8,0.1
					c-2.8,0.8-10,4.8-21.2,4.2c-8.6-0.4-13.3-2.3-15-3.1C214.7,204.8,214.5,204.9,214.4,205.1z"/>
				<path class="st32" d="M247.7,205.8c-0.2,0.1-12.2,7.2-28.7,1.4c0,0,2.4,5.4,12.3,5.9C242.7,213.6,247.7,205.8,247.7,205.8z"/>
				<path class="st33" d="M232.9,218.2c2.3-0.1,5.3-0.7,6.4-1.8c-2.1-2-4.7-0.5-7-1.2c-4.7-1.4-6.3,0.3-7,1.3
					C226.8,217.6,229.7,218.4,232.9,218.2z"/>
				<path class="st13" d="M74.7,63.6C159.1,46.9,320.3,22,464.8,39.1c43.2,5.2,78.8,36.4,89.6,78.5c20.6,79.4,48,219.2,31.8,360.1
					c-5.3,46.1-36.1,91.1-81.8,99.5c-87.3,16.2-268.7,12-450-8.8c-45-5.2-77.7-45.9-83.2-90.9C-38.7,396-38.1,253.2-7,139.6
					C3.6,100.8,35.2,71.4,74.7,63.6z"/>
				<path class="st16" d="M317.8,309.7c0,0,6.4-4.1,13.6-17.7c2.3-4.5,4.1-9.3,5.5-14.1c4.2-14-12.5-18.1-12.5-18.1l-5.2,9.7
					l-6.2,15.9C309.6,290.5,301.5,319.8,317.8,309.7z"/>
				<path class="st16" d="M409.3,309.1c0,0-6.4-4.1-13.6-17.7c-2.3-4.5-4.1-9.3-5.5-14.2c-4.2-14,12.5-18.1,12.5-18.1l5.2,9.7
					l6.2,15.9C417.5,289.9,425.5,319.2,409.3,309.1z"/>
				<path class="st17" d="M329.1,257.6c-1.7,10.4,11.7,21.2,30,24.2s34.5-3,36.2-13.4c1.3-7.8-6-15.9-17.5-20.7
					c-4-1.7-8.2-2.8-12.5-3.5c-5.7-1-11.5-1-17.1-0.1C337.8,245.7,330.3,250.7,329.1,257.6z"/>
				<path class="st17" d="M389.8,278l0.6,2c11.6-1.2,22.2-2.6,22.2-2.6c-0.3-0.9-3.6-8.3-4.1-9.1c-5.8-9.8-8.2-14.5-12.8-18.3
					c-5.2-4.3-11.6-7-18.3-7.8"/>
				<path class="st17" d="M347.6,244c0,0-8.4-0.2-17.7,9c-2.5,2.5-7,7.2-9,10.8c-0.4,0.7-6.6,12.8-7,13.5c0,0,24.8,2,26.3,2.3
					l0.3-1.4"/>
				<path class="st17" d="M337.5,263.9c-3.5,15.6-5.5,31.6-5.9,47.6l0,0c32,8.2,61.2-1.7,61.2-1.7c1.4-33.4-4.9-49.1-4.9-49.1"/>
				<path class="st16" d="M349,244.4c0,0,3.5,6.3,13.4,6.9s11.9-5.9,11.9-5.9c-0.2-0.4-0.3-0.8-0.5-1.2c-1.9-5.7,1-12,1-12
					s-27.1-10.8-24.2-0.9c2,6.7,0.5,10.4-0.6,12.1C349.8,243.7,349.4,244.1,349,244.4z"/>
				<path class="st18" d="M356.2,252.1c0.8-0.4,3.5-3,9.3-0.8s-1.1,10.4-1.1,10.4l-6.2,0.2C358.1,261.9,349.6,255.5,356.2,252.1z"/>
				<path class="st17" d="M351.1,234.1c-0.6,0.6-4.8,6.1-4.9,9.4s2.4,21,2.4,21l11-13.6c0,0-5.8-5.5-8.1-11.6L351.1,234.1z"/>
				<path class="st17" d="M363.8,251c-0.5,0.3,10.3,14,10.3,14c3.5-7.2,6-14.8,7.6-22.6l-4.9-9C376.7,233.4,374,246,363.8,251z"/>
				<path class="st18" d="M373.2,298.9c-0.1,0.5-0.2,1.1-0.4,1.6l0,0c-4.1,16.3-11.5,24.6-11.5,24.6c-2.3-3.2-4.4-6.6-6.2-10.1
					c-0.9-1.7-1.6-3.2-2.1-4.5c-0.8-1.9-1.4-3.8-1.8-5.8c0-2,0.1-4,0.2-5.8s0.2-3.4,0.3-5c0.3-4.6,0.8-8.8,1.4-12.4
					c0.3-1.8,0.6-3.5,0.9-5.1c2-10.1,4.3-15.1,4.2-15.8c-0.3-2.1,6.7-1.5,6.7-1.5c0.2,3.5,0.7,6.9,1.3,10.4c0.2,1.2,0.4,2.3,0.7,3.5
					c0.7,3.4,1.5,6.9,2.3,10.2c0.3,1.1,0.6,2.2,0.8,3.3c1,4,1.9,7.4,2.5,9.7C372.9,297.8,373.2,298.9,373.2,298.9z"/>
				<path class="st19" d="M366.7,272.8c-4.9,2-9.4,4.9-13.3,8.5c0.3-1.8,0.6-3.7,0.9-5.3c3.6-2.8,7.5-5,11.7-6.7
					C366.3,270.4,366.5,271.6,366.7,272.8z"/>
				<path class="st19" d="M369.5,286.6c-5,2.7-13.2,7.5-17.7,12.1c0.1-1.7,0.2-3.8,0.3-5.4c5-4.2,10.6-7.7,16.6-10.2
					C368.9,284.3,369.2,285.5,369.5,286.6z"/>
				<path class="st19" d="M372.8,298.9c-0.1,0.5-0.2,1.2-0.4,1.7l0,0c-4.9,3-12.4,8-17,14c-0.9-1.7-1.5-3.2-2.1-4.5
					c5.7-5.4,12-10.1,18.8-14C372.5,297.9,372.8,298.9,372.8,298.9z"/>
				<path class="st16" d="M421.7,202.2c-2,5.9-7.4,9.7-11,9.3s-3.7-5.3-2.4-11s5.4-9.9,9-9.4C422.2,191.7,423.6,196.6,421.7,202.2z"
					/>
				<path class="st16" d="M305.6,198.2c2.1,5.6,7.4,8.8,10.9,7.9s3.5-5.7,2-11.2s-5.4-9.2-8.9-8.3
					C304.9,187.9,303.6,192.9,305.6,198.2z"/>
				<path class="st16" d="M315.9,201.2c0,0-2.4-8.9-7.5-8.9C308.3,192.3,313.7,189.6,315.9,201.2z"/>
				<path class="st16" d="M315.1,199c0,0-2.9,0.9-2.2,3.8C312.9,202.8,313.1,200.1,315.1,199z"/>
				<path class="st16" d="M410.8,205.9c0,0,3.1-8.7,8.2-8.3C419,197.5,413.8,194.5,410.8,205.9z"/>
				<path class="st16" d="M411.7,203.7c0,0,2.9,1.1,1.9,3.9C413.6,207.6,413.6,204.9,411.7,203.7z"/>
				<path class="st16" d="M316.2,204.3c1.7,26.2,34.6,38.9,44.2,38.3c12.2-0.8,45-2.9,52.2-48.5c0-0.4,0-0.8,0-1.2l0,0
					c0.2-17.9,7.4-34,6-41c-5-24.3-9.8-15.1-38.2-18.8c-26.6-3.5-38-4-55,9c-1.5,1.1-6.4,2.4-6.6,6.7c-0.4,7.4-0.8,12.9-1.1,17.3
					C316.4,181.1,314.9,183.5,316.2,204.3z"/>
				<path class="st21" d="M319.4,166.9c7.9-9.5,17.2-13.4,28.4-14.8c12.2,9.4,25.3,15.1,40.5,12.7c-17.4-16.1-4.5-10.4-7.8-14.2
					c-0.2,3.9,7.1,9.9,15,7.1c3.1,6.7,7.6,12.7,13.3,17.4c2,1.7,4.8,13.7,5.2,15.4c0.2,1,0.2,2.2,0.4,3.3c0.2-17.9,7.5-34,6-41.1
					c-5-24.3-9.8-15.1-38.2-18.8c-26.6-3.5-38-4-55,9c-1.5,1.1-6.4,2.4-6.6,6.7C320.2,156.9,319.8,162.4,319.4,166.9z"/>
				<path class="st34" d="M378,171.8l0.9-1.1c1.6-2.1,4.3-3.2,6.9-2.8c3.6,0.8,6.7,3.2,8.3,6.5c0.3,0.5,0.5,0.7,0.1,0.4
					C391.3,172.3,383.7,169.1,378,171.8z"/>
				<path class="st22" d="M348.2,148.8c0,0,6.8,12.9,38.3,13.9c0,0-13-12-5.5-13.5c0,0,4.5,8.5,15.3,4.9c0,0-5.1,0.8,12.8,19.1
					c0,0,5,6.3,3.5,20.9c-0.1,1,7.4-0.9,8.1-11.2c0,0,13.5-10.2,3.5-24.4c0,0,12.1-19.1-7.2-26.4c0,0-1.4-19.4-16.6-21
					c0,0-15.2-24.2-38.7-8.7c0,0-20.1-10.5-32.1,8.5c0,0-16,5.2-14.4,19.6c0,0-21.3,9-8.9,24.7c0,0-6.1,11.4,4.1,25.2l4.8,13.9
					l1-5.3c0.6-11.4-1.2-15.4,4.3-25.4C320.7,163.6,326.2,147.4,348.2,148.8z"/>
				<path class="st34" d="M350.1,169.4l-0.8-1.1c-1.5-2.2-4-3.5-6.6-3.3c-3.7,0.5-6.9,2.7-8.8,5.9c-0.3,0.5-0.5,0.7-0.1,0.4
					C336.9,168.9,344.7,166.2,350.1,169.4z"/>
				<path class="st27" d="M333.5,191.3c0.4,4.6,5,8,10.1,7.6s8.9-4.5,8.5-9.2s-5-8-10.1-7.6S333.1,186.7,333.5,191.3z"/>
				<path class="st35" d="M333.6,191.3c0.7,7.6,11.2,9.9,16,4.6c3-3,2.9-7.8-0.1-10.8c-0.3-0.3-0.7-0.6-1.1-0.9
					C342.9,180,332.9,183.8,333.6,191.3L333.6,191.3z M333.5,191.3c-0.8-8,9.3-12.3,15.4-7.6c3.7,2.6,4.6,7.7,2,11.5
					c-0.3,0.4-0.6,0.8-0.9,1.1C344.8,201.6,334.3,199,333.5,191.3L333.5,191.3z"/>
				<path class="st36" d="M337.7,189.6c-0.5,2.9,1.3,5.6,4.1,6.2c2.8,0.5,5.5-1.4,6-4.2c0,0,0-0.1,0-0.1c0.5-2.9-1.3-5.6-4.1-6.2
					c-2.8-0.5-5.5,1.4-6,4.2C337.7,189.5,337.7,189.6,337.7,189.6z"/>
				<path class="st16" d="M342.7,187.3c-0.1,0.7,0.4,1.4,1.1,1.5c0.7,0.1,1.4-0.4,1.5-1.1c0.1-0.7-0.4-1.3-1-1.5
					C343.5,186.1,342.8,186.6,342.7,187.3C342.7,187.3,342.7,187.3,342.7,187.3z"/>
				<path class="st37" d="M339.5,214.5c8.7,8,20.8,12.1,32.3,8.3c3.8-1.2,7.4-2.8,10.8-4.8C369.4,229.9,350.3,228.9,339.5,214.5
					L339.5,214.5z"/>
				<path class="st37" d="M355.6,229.7c3.8,0.3,7.6,0.3,11.5,0.1C363.4,231.3,359.3,231.3,355.6,229.7z"/>
				<path class="st37" d="M358.2,203.7c-2.6,1.7-4.6,5-2.2,7.8c1.2,0.9,2.5,1.6,3.8,2.2c3.4,1.6,7.5,0.9,10.3-1.7
					c0.6-0.5,1-1.1,1.6-1.6l-0.1,0.2c0.2-2.2-0.5-4.8-2.6-6c0.6,0.2,1.1,0.6,1.5,1c1.3,1.4,1.9,3.3,1.8,5.1c-1.4,2-3.4,3.6-5.7,4.5
					c-4,1.2-8.2-0.4-11.2-3.1C353,208.8,355,205.4,358.2,203.7L358.2,203.7z"/>
				<path class="st37" d="M380.7,215c1.8,0.5,2.9,2.3,2.4,4.1c-0.2,0.6-0.5,1.1-0.9,1.5C382.6,218.6,382.1,216.5,380.7,215z"/>
				<path class="st37" d="M340.9,212.2c-1.3,1.6-1.7,3.8-1.1,5.8c-1.4-1.2-1.6-3.3-0.4-4.8C339.8,212.7,340.3,212.4,340.9,212.2z"/>
				<path class="st27" d="M374.4,191.3c0.5,4.6,5,8,10.1,7.6s8.9-4.5,8.5-9.2s-5-8-10.1-7.6S374,186.7,374.4,191.3z"/>
				<path class="st35" d="M374.5,191.3c0.7,7.6,11.2,9.9,16,4.6c3-3,2.9-7.8-0.1-10.8c-0.3-0.3-0.7-0.6-1.1-0.9
					C383.8,180,373.8,183.8,374.5,191.3L374.5,191.3z M374.4,191.3c-0.7-8,9.3-12.3,15.4-7.6c3.7,2.6,4.6,7.8,2,11.5
					c-0.3,0.4-0.6,0.8-0.9,1.1C385.7,201.6,375.2,199,374.4,191.3L374.4,191.3z"/>
				<path class="st36" d="M378.6,189.6c-0.5,2.9,1.3,5.6,4.2,6.2c2.8,0.5,5.5-1.4,6-4.2c0,0,0-0.1,0-0.1c0.5-2.9-1.3-5.6-4.2-6.2
					C381.8,184.8,379.1,186.7,378.6,189.6C378.6,189.5,378.6,189.6,378.6,189.6z"/>
				<path class="st16" d="M383.5,187.3c-0.1,0.7,0.3,1.4,1,1.5c0.7,0.1,1.4-0.4,1.5-1.1c0,0,0,0,0,0c0.1-0.7-0.3-1.4-1-1.5
					C384.3,186.1,383.7,186.6,383.5,187.3C383.6,187.3,383.6,187.3,383.5,187.3z"/>
				<rect x="123.7" y="297.5" class="st4" width="331.2" height="31.3"/>
				<path class="st5" d="M-958.2,271.6c0.1-1.3,0.2-3,0.4-4.9l2040.8-0.3v4.9l0,0L-958.2,271.6z"/>
				<rect x="26.2" y="246.4" class="st5" width="4.6" height="24.8"/>
				<rect x="34" y="246.4" class="st5" width="4.7" height="24.8"/>
				<rect x="230" y="246.3" class="st5" width="4.6" height="24.8"/>
				<rect x="237.8" y="246.3" class="st5" width="4.6" height="24.8"/>
				<rect x="372.4" y="246.3" class="st5" width="4.6" height="24.8"/>
				<rect x="380.3" y="246.3" class="st5" width="4.6" height="24.8"/>
				<path class="st5" d="M-954.1,251.2c0.1-1.3,0.2-2.9,0.4-4.9l2040.8-0.3v4.9l0,0L-954.1,251.2z"/>
				<rect x="149.2" y="294.3" class="st38" width="305.9" height="3.3"/>
				<path class="st16" d="M294.4,290.8c-2,4.9-5.1,8-7.1,7.1s-2-5.7,0-10.5s5.1-8,7.1-7.1S296.3,285.9,294.4,290.8z"/>
				<path class="st16" d="M286.8,291.3c-2.2,5.6-6.1,9.2-8.5,8s-2.7-6.7-0.5-12.3s6.1-9.2,8.5-8S289,285.7,286.8,291.3z"/>
				<path class="st16" d="M276.4,292.5c-2.7,6.6-6.9,11-9.3,9.8s-2.3-7.5,0.3-14.1s6.8-11,9.3-9.8S279.1,285.9,276.4,292.5z"/>
				<path class="st16" d="M267.1,293.8c-2.7,6.6-6.8,11-9.3,9.8s-2.3-7.5,0.3-14.1s6.9-11,9.3-9.8S269.7,287.2,267.1,293.8z"/>
				<path class="st16" d="M214.3,290.8c0,6.2-2.2,11.1-5,11.1s-5.1-5.2-5.1-11.4s2.2-11.1,5-11.1S214.3,284.6,214.3,290.8z"/>
				<path class="st16" d="M180.8,285.6c-2.2-0.3-4.5,2.8-5.2,6.9s0.7,7.5,2.9,7.8s4.5-2.8,5.2-6.9S183,285.8,180.8,285.6z"/>
				<path class="st16" d="M204.2,293.3c-0.4,5.7-3,10.2-5.8,9.9s-4.6-5.1-4.2-10.8s3-10.2,5.8-9.9S204.7,287.5,204.2,293.3z"/>
				<path class="st16" d="M193.8,293c-0.2,5.4-2.6,9.8-5.2,9.8s-4.6-4.4-4.3-9.7s2.6-9.8,5.2-9.8S194,287.6,193.8,293z"/>
				<path class="st16" d="M420.5,291.7c-1.4,4.6-4.1,7.8-6.1,7.1s-2.5-5.1-1.1-9.7s4.1-7.8,6.1-7.1S421.9,287.1,420.5,291.7z"/>
				<path class="st16" d="M413.3,292.7c-1.5,5.3-4.9,8.9-7.4,8s-3.3-6-1.7-11.3s4.9-8.9,7.4-8S414.8,287.4,413.3,292.7z"/>
				<path class="st16" d="M403.4,294.5c-1.9,6.3-5.4,10.6-7.9,9.7s-3-6.8-1.2-13s5.4-10.6,7.9-9.7S405.3,288.3,403.4,294.5z"/>
				<path class="st16" d="M394.6,296.4c-1.9,6.3-5.4,10.6-7.9,9.7s-3-6.8-1.2-13s5.4-10.6,7.9-9.7S396.4,290.2,394.6,296.4z"/>
				<path class="st16" d="M337.7,295.1c-1.9,4.5-4.9,7.3-6.8,6.4s-2-5.3-0.1-9.8s4.9-7.3,6.8-6.4S339.6,290.6,337.7,295.1z"/>
				<path class="st16" d="M330.4,295.3c-2.1,5.1-5.8,8.3-8.2,7.2s-2.6-6.3-0.5-11.4s5.8-8.3,8.2-7.2S332.5,290.1,330.4,295.3z"/>
				<path class="st16" d="M320.4,296c-2.5,6-6.5,10-8.9,8.8s-2.3-7,0.2-13.1s6.5-10,8.9-8.8S323,290,320.4,296z"/>
				<path class="st16" d="M311.4,297c-2.5,6-6.5,10-8.9,8.8s-2.3-7,0.2-13.1s6.5-10,8.9-8.8S313.9,290.9,311.4,297z"/>
				<path class="st5" d="M-982.8,338.1c0.1-2.8,0.2-6.4,0.4-10.5l2099.5-0.7v10.5l0,0L-982.8,338.1z"/>
			</g>
		</g>
	</g>
</g>
</svg>
