<svg id="Layer_1" data-name="Layer 1" xmlns="http://www.w3.org/2000/svg" viewBox="0 0 1156.67 169.53"><defs><style>.cls-1{fill:#3172c2;stroke:#fff;stroke-miterlimit:10;stroke-width:2px;}.cls-2{fill:#fff;}</style></defs><rect class="cls-1" x="189.08" y="45.69" width="731.11" height="78.15" rx="39.07"/><path class="cls-2" d="M349.33,98.52,346,89.88H335.42l-3.37,8.64h-7l12.51-31.41h7.11l12.2,31.41Zm-8.64-23.67-3.47,9.72h7.11Z"/><path class="cls-2" d="M360.49,98.52V67.15h6V98.52Z"/><path class="cls-2" d="M398.51,96.32A3.42,3.42,0,0,1,397.32,98a3.59,3.59,0,0,1-2.05.51A3.33,3.33,0,0,1,393.2,98,3.78,3.78,0,0,1,392,96.14l-3.82-11.67-4,11.89A2.87,2.87,0,0,1,383.05,98a3.86,3.86,0,0,1-2.13.51,7.19,7.19,0,0,1-.95-.07,2.39,2.39,0,0,1-1.62-1,4.55,4.55,0,0,1-.63-1.27l-6.3-17.47h6.08l2.61,8c.09.29.18.63.29,1s.22.78.34,1.16.25.91.4,1.41a8.37,8.37,0,0,1,.27-1.1l.29-1c.11-.37.21-.71.3-1l2.52-8.42h7.29l2.7,8.82c.06.26.14.55.24.86s.21.6.3.9a5.56,5.56,0,0,1,.27,1c.09-.3.18-.6.27-.93.15-.58.31-1.14.49-1.66l2.66-9H405Z"/><path class="cls-2" d="M423,98.52c0-.21,0-.47,0-.77s-.06-.52-.07-.85,0-.68-.07-1a7.17,7.17,0,0,1-2.94,2.32,9.55,9.55,0,0,1-3.83.79,7.11,7.11,0,0,1-5.75-2.43q-2.06-2.43-2.05-6.93,0-5.44,3.3-8.4T421,78.27c.66,0,1.27,0,1.82,0s1.09.08,1.64.16,1.11.17,1.69.29,1.22.29,1.92.5V92c0,.69,0,1.41,0,2.18s.08,1.46.14,2.09.12,1.49.18,2.21Zm-.94-14.67a9.25,9.25,0,0,0-1.42-.23c-.43,0-.82,0-1.19,0a4.82,4.82,0,0,0-3.85,1.59,6.64,6.64,0,0,0-1.37,4.44,4.4,4.4,0,0,0,.83,2.88,2.84,2.84,0,0,0,2.33,1,4.17,4.17,0,0,0,1.81-.41,4.56,4.56,0,0,0,1.49-1.15,5.58,5.58,0,0,0,1-1.75,6.76,6.76,0,0,0,.36-2.27Z"/><path class="cls-2" d="M451.79,105a9.81,9.81,0,0,1-2,4.14,7.1,7.1,0,0,1-3.41,2.17,17.31,17.31,0,0,1-5,.63,14.28,14.28,0,0,1-2.9-.3,29.48,29.48,0,0,1-3-.78v-4.5c1,.08,1.94.14,2.82.19s1.77.08,2.65.08a6.3,6.3,0,0,0,2.41-.42,3.67,3.67,0,0,0,1.67-1.36,6.53,6.53,0,0,0,.95-2.5,21.61,21.61,0,0,0,.29-3.82V96.09a7.71,7.71,0,0,1-5.62,2.43,6.56,6.56,0,0,1-2.59-.53A6,6,0,0,1,436,96.47a7.53,7.53,0,0,1-1.44-2.38A8.58,8.58,0,0,1,434,91c0-1.06,0-2.07,0-3s0-1.93,0-2.9,0-2,0-3-.07-2.13-.16-3.3h6C440,79.91,440,81,440,82s0,2,0,2.88,0,1.77,0,2.6,0,1.65,0,2.47a3.73,3.73,0,0,0,.66,2.46,2.41,2.41,0,0,0,1.91.77A3.64,3.64,0,0,0,445.29,92a4.75,4.75,0,0,0,1.15-3.34v-9.9h6v19.8A28,28,0,0,1,451.79,105Z"/><path class="cls-2" d="M473.57,93a5.67,5.67,0,0,1-1.9,4.5,8,8,0,0,1-5.37,1.66,22.46,22.46,0,0,1-4.56-.45,13.4,13.4,0,0,1-3.6-1.21l.76-4.59a15.34,15.34,0,0,0,6.84,2,2,2,0,0,0,1.42-.43,1.33,1.33,0,0,0,.43-1,1.79,1.79,0,0,0-.34-1.11,5.3,5.3,0,0,0-1.64-1,27.43,27.43,0,0,1-3.18-1.62,11,11,0,0,1-2.16-1.69,5.75,5.75,0,0,1-1.21-1.87,6.1,6.1,0,0,1-.38-2.25,5.08,5.08,0,0,1,2.17-4.39A9.62,9.62,0,0,1,466.54,78a17.87,17.87,0,0,1,3.35.29,15.77,15.77,0,0,1,3.36,1.15L472.53,84a10.53,10.53,0,0,0-3.09-1.24,13.59,13.59,0,0,0-3-.34,2.06,2.06,0,0,0-1.43.38,1.38,1.38,0,0,0-.39,1,1.47,1.47,0,0,0,.62,1.23,12.29,12.29,0,0,0,2.4,1.24,28.56,28.56,0,0,1,2.73,1.55,10.15,10.15,0,0,1,1.84,1.53,4.77,4.77,0,0,1,1,1.67A6,6,0,0,1,473.57,93Z"/><path class="cls-2" d="M518.35,96.32a3.43,3.43,0,0,1-1.2,1.69,3.54,3.54,0,0,1-2,.51A3.31,3.31,0,0,1,513,98a3.78,3.78,0,0,1-1.17-1.82L508,84.47l-4,11.89A2.91,2.91,0,0,1,502.89,98a3.92,3.92,0,0,1-2.14.51,7,7,0,0,1-.94-.07,2.37,2.37,0,0,1-.86-.29,2.25,2.25,0,0,1-.76-.7,4.29,4.29,0,0,1-.63-1.27l-6.3-17.47h6.07l2.61,8c.09.29.19.63.29,1s.22.78.34,1.16.25.91.41,1.41a8.37,8.37,0,0,1,.27-1.1c.09-.32.18-.67.29-1s.2-.71.29-1l2.52-8.42h7.29l2.7,8.82a7.84,7.84,0,0,0,.25.86c.1.3.2.6.29.9a5.56,5.56,0,0,1,.27,1c.09-.3.18-.6.27-.93.15-.58.32-1.14.5-1.66l2.65-9h6.3Z"/><path class="cls-2" d="M542.87,98.52c0-.21,0-.47,0-.77s-.06-.52-.07-.85,0-.68-.07-1a7.14,7.14,0,0,1-2.93,2.32,9.6,9.6,0,0,1-3.84.79,7.12,7.12,0,0,1-5.75-2.43q-2.05-2.43-2-6.93,0-5.44,3.31-8.4t9.42-2.94c.67,0,1.28,0,1.82,0s1.1.08,1.65.16,1.11.17,1.68.29,1.22.29,1.92.5V92c0,.69,0,1.41,0,2.18s.08,1.46.14,2.09.12,1.49.18,2.21Zm-1-14.67a9.14,9.14,0,0,0-1.41-.23c-.43,0-.83,0-1.19,0a4.81,4.81,0,0,0-3.85,1.59,6.59,6.59,0,0,0-1.38,4.44,4.4,4.4,0,0,0,.83,2.88,2.87,2.87,0,0,0,2.33,1,4.11,4.11,0,0,0,1.81-.41,4.46,4.46,0,0,0,1.49-1.15,5.58,5.58,0,0,0,1-1.75,6.76,6.76,0,0,0,.36-2.27Z"/><path class="cls-2" d="M554.57,98.52V67.15h6V98.52Z"/><path class="cls-2" d="M579.36,86.82,589,98.52H581l-7.47-9.77v9.77h-6V67.15h6V85.24l7.29-6.52h8.59Z"/><path class="cls-2" d="M615.05,73.28a2.46,2.46,0,0,1-1,2,4.14,4.14,0,0,1-5,0,2.71,2.71,0,0,1-1.08-2.07,2.44,2.44,0,0,1,1-2.06,4,4,0,0,1,2.61-.84,4.09,4.09,0,0,1,1.33.23,3.4,3.4,0,0,1,1.12.63,3.35,3.35,0,0,1,.77,1A2.53,2.53,0,0,1,615.05,73.28ZM608.3,98.52V78.72h6v19.8Z"/><path class="cls-2" d="M633.86,98.52V87.28a4.44,4.44,0,0,0-.3-1.82,2.51,2.51,0,0,0-.69-1,1.72,1.72,0,0,0-.86-.39,5.86,5.86,0,0,0-.76-.06,4.2,4.2,0,0,0-1,.17,3.29,3.29,0,0,0-1.37.82,5.59,5.59,0,0,0-1.24,1.91,8.77,8.77,0,0,0-.54,3.39v8.2h-6V85.43A22.48,22.48,0,0,0,620.9,82a11.11,11.11,0,0,0-.72-2.75h6a9.87,9.87,0,0,1,.39,1q.11.4.24,1.17a9.33,9.33,0,0,1,3.09-2.07,8.9,8.9,0,0,1,3.35-.67,6.52,6.52,0,0,1,2.62.52,6.23,6.23,0,0,1,2.1,1.47A6.93,6.93,0,0,1,639.34,83a9.1,9.1,0,0,1,.5,3.09v12.4Z"/><path class="cls-2" d="M674.94,98.52c0-.21,0-.47-.05-.77s0-.52-.07-.85,0-.68-.07-1a7.14,7.14,0,0,1-2.93,2.32A9.6,9.6,0,0,1,668,99a7.12,7.12,0,0,1-5.75-2.43c-1.36-1.62-2.05-3.93-2.05-6.93q0-5.44,3.31-8.4t9.42-2.94c.67,0,1.28,0,1.82,0s1.1.08,1.65.16,1.11.17,1.69.29,1.21.29,1.91.5V92c0,.69,0,1.41,0,2.18s.07,1.46.13,2.09.12,1.49.18,2.21ZM674,83.85a9.45,9.45,0,0,0-1.42-.23c-.43,0-.83,0-1.19,0a4.82,4.82,0,0,0-3.85,1.59,6.59,6.59,0,0,0-1.37,4.44,4.4,4.4,0,0,0,.82,2.88,2.88,2.88,0,0,0,2.34,1,4.09,4.09,0,0,0,1.8-.41,4.46,4.46,0,0,0,1.49-1.15,5.58,5.58,0,0,0,1-1.75A6.75,6.75,0,0,0,674,87.9Z"/><path class="cls-2" d="M700.63,98.52V67.15h6V98.52Z"/><path class="cls-2" d="M720.57,73.28a2.48,2.48,0,0,1-1,2,4.16,4.16,0,0,1-5,0,2.71,2.71,0,0,1-1.08-2.07,2.44,2.44,0,0,1,1-2.06,4,4,0,0,1,2.61-.84,4.09,4.09,0,0,1,1.33.23,3.4,3.4,0,0,1,1.12.63,3.35,3.35,0,0,1,.77,1A2.53,2.53,0,0,1,720.57,73.28Zm-6.75,25.24V78.72h6v19.8Z"/><path class="cls-2" d="M739.38,98.52V87.28a4.63,4.63,0,0,0-.29-1.82,2.63,2.63,0,0,0-.7-1,1.72,1.72,0,0,0-.86-.39,5.86,5.86,0,0,0-.76-.06,4.2,4.2,0,0,0-.95.17,3.35,3.35,0,0,0-1.37.82,5.74,5.74,0,0,0-1.24,1.91,8.77,8.77,0,0,0-.54,3.39v8.2h-6V85.43a22.48,22.48,0,0,0-.27-3.42,11.11,11.11,0,0,0-.72-2.75h6a9.87,9.87,0,0,1,.39,1q.1.4.24,1.17a9.33,9.33,0,0,1,3.09-2.07,8.9,8.9,0,0,1,3.35-.67,6.52,6.52,0,0,1,2.62.52,6.23,6.23,0,0,1,2.1,1.47A6.77,6.77,0,0,1,744.86,83a9.1,9.1,0,0,1,.5,3.09v12.4Z"/><path class="cls-2" d="M769.8,84.16A5.13,5.13,0,0,1,769,87a6.85,6.85,0,0,1-2.26,2.14,12.59,12.59,0,0,1-3.5,1.37,19.62,19.62,0,0,1-4.59.5l-.54,0-.73,0a4.2,4.2,0,0,0,1.35,2.68,4.3,4.3,0,0,0,2.91,1,13.36,13.36,0,0,0,6.63-2v4.73A12.82,12.82,0,0,1,765,98.67a13.52,13.52,0,0,1-3.54.43,11.66,11.66,0,0,1-4.07-.67,8.38,8.38,0,0,1-3.08-2,8.83,8.83,0,0,1-1.94-3.06,11.32,11.32,0,0,1-.67-4,12.36,12.36,0,0,1,.79-4.52,10.45,10.45,0,0,1,2.2-3.53,9.79,9.79,0,0,1,3.4-2.3,11.4,11.4,0,0,1,4.36-.81,8.26,8.26,0,0,1,5.34,1.62A5.29,5.29,0,0,1,769.8,84.16Zm-6,.45a1.57,1.57,0,0,0-.61-1.24,2.36,2.36,0,0,0-1.56-.51,3.54,3.54,0,0,0-2.56,1,5.05,5.05,0,0,0-1.39,2.91,3.87,3.87,0,0,0,.72.09h.67Q763.81,86.91,763.81,84.61Z"/><path class="cls-2" d="M781.72,95.75a2.42,2.42,0,0,1-1,2,4,4,0,0,1-2.49.8,3.83,3.83,0,0,1-2.5-.86,2.59,2.59,0,0,1-1.05-2.07,2.55,2.55,0,0,1,1-2,3.54,3.54,0,0,1,2.39-.84,4,4,0,0,1,2.62.89A2.7,2.7,0,0,1,781.72,95.75Z"/></svg>