<svg id="Layer_1" data-name="Layer 1" xmlns="http://www.w3.org/2000/svg" viewBox="0 0 1156.67 169.53"><defs><style>.cls-1{fill:#3172c2;stroke:#fff;stroke-miterlimit:10;stroke-width:2px;}.cls-2{fill:#fff;}</style></defs><rect class="cls-1" x="100.61" y="39.64" width="926.51" height="78.15" rx="39.07"/><path class="cls-2" d="M191.16,66.37v26.1H184.1V66.32h-8.37V61.06h23.71v5.31Z"/><path class="cls-2" d="M211.5,92.47a5.78,5.78,0,0,0-.05-.77c0-.24,0-.52-.07-.85s0-.68-.07-1a7.14,7.14,0,0,1-2.93,2.32,9.55,9.55,0,0,1-3.83.79,7.1,7.1,0,0,1-5.75-2.43q-2.06-2.43-2.06-6.93c0-3.63,1.11-6.43,3.31-8.4s5.35-2.94,9.42-2.94c.67,0,1.28,0,1.83,0s1.09.08,1.64.16,1.11.17,1.69.29,1.21.29,1.91.5V86c0,.69,0,1.41.05,2.18s.07,1.46.13,2.09.12,1.49.18,2.21Zm-.94-14.67a9.25,9.25,0,0,0-1.42-.23c-.43,0-.83,0-1.19,0a4.82,4.82,0,0,0-3.85,1.59,6.64,6.64,0,0,0-1.37,4.44,4.4,4.4,0,0,0,.82,2.88,2.88,2.88,0,0,0,2.34,1A4.17,4.17,0,0,0,207.7,87a4.56,4.56,0,0,0,1.49-1.15,5.56,5.56,0,0,0,1-1.75,6.51,6.51,0,0,0,.37-2.27Z"/><path class="cls-2" d="M235,80.77l9.59,11.7h-7.92l-7.47-9.77v9.77h-6V61.1h6V79.19l7.29-6.52h8.59Z"/><path class="cls-2" d="M264.78,78.11a5,5,0,0,1-.8,2.79A6.72,6.72,0,0,1,261.73,83a12.79,12.79,0,0,1-3.51,1.37,19.5,19.5,0,0,1-4.59.5l-.54,0-.73,0a4.2,4.2,0,0,0,1.35,2.68,4.32,4.32,0,0,0,2.92,1,13.3,13.3,0,0,0,6.62-2v4.73A12.68,12.68,0,0,1,260,92.62a13.39,13.39,0,0,1-3.53.43,11.62,11.62,0,0,1-4.07-.67,8.34,8.34,0,0,1-3.09-2,8.81,8.81,0,0,1-1.93-3.06,11.31,11.31,0,0,1-.68-4,12.58,12.58,0,0,1,.79-4.52,10.47,10.47,0,0,1,2.21-3.53,9.66,9.66,0,0,1,3.39-2.3,11.45,11.45,0,0,1,4.37-.81,8.21,8.21,0,0,1,5.33,1.62A5.26,5.26,0,0,1,264.78,78.11Zm-6,.45a1.59,1.59,0,0,0-.62-1.24,2.35,2.35,0,0,0-1.55-.51,3.57,3.57,0,0,0-2.57,1,5.11,5.11,0,0,0-1.38,2.91,3.69,3.69,0,0,0,.71.09h.67Q258.8,80.86,258.8,78.56Z"/><path class="cls-2" d="M295.9,92.1a13.87,13.87,0,0,1-3.22.37,10.77,10.77,0,0,1-4-.71,9.78,9.78,0,0,1-3.12-2,8.4,8.4,0,0,1-2.05-3,10.27,10.27,0,0,1-.72-3.91,12.73,12.73,0,0,1,.65-4.13,8.39,8.39,0,0,1,2-3.24,9.12,9.12,0,0,1,3.29-2.1,12.67,12.67,0,0,1,4.56-.75,10.4,10.4,0,0,1,3.45.47,12.25,12.25,0,0,1,2.22,1l-1,5.18c-.45-.21-.83-.4-1.15-.57a6.92,6.92,0,0,0-.9-.4,4.31,4.31,0,0,0-.94-.23,11.05,11.05,0,0,0-1.24-.06,4.66,4.66,0,0,0-3.47,1.22A4.52,4.52,0,0,0,289,82.61,4.42,4.42,0,0,0,290.3,86a5.08,5.08,0,0,0,3.64,1.21,10,10,0,0,0,2.34-.28,12.87,12.87,0,0,0,2.39-.86l.4,4.9A15.5,15.5,0,0,1,295.9,92.1Z"/><path class="cls-2" d="M317.74,92.47c0-.21,0-.47,0-.77s-.06-.52-.07-.85,0-.68-.07-1a7.17,7.17,0,0,1-2.94,2.32,9.55,9.55,0,0,1-3.83.79A7.11,7.11,0,0,1,305,90.49Q303,88.06,303,83.56q0-5.44,3.31-8.4t9.42-2.94c.67,0,1.27,0,1.82,0s1.1.08,1.64.16,1.11.17,1.69.29,1.22.29,1.92.5V86c0,.69,0,1.41,0,2.18s.08,1.46.14,2.09.12,1.49.18,2.21ZM316.8,77.8a9.25,9.25,0,0,0-1.42-.23c-.42,0-.82,0-1.19,0a4.79,4.79,0,0,0-3.84,1.59A6.59,6.59,0,0,0,309,83.56a4.4,4.4,0,0,0,.83,2.88,2.86,2.86,0,0,0,2.33,1,4.14,4.14,0,0,0,1.81-.41,4.46,4.46,0,0,0,1.49-1.15,5.58,5.58,0,0,0,1-1.75,6.76,6.76,0,0,0,.36-2.27Z"/><path class="cls-2" d="M343,78.2q-.63-.14-1-.18a6.65,6.65,0,0,0-.81,0,4.6,4.6,0,0,0-3.9,1.75A8.65,8.65,0,0,0,335.93,85v7.51h-6v-13c0-.73,0-1.37,0-1.92s-.05-1-.11-1.52-.15-.93-.25-1.39-.25-1-.43-1.56h5.68c.1.37.18.69.26,1a4.49,4.49,0,0,1,.16.74c0,.23.06.47.09.74a8.2,8.2,0,0,1,.05.94,10.13,10.13,0,0,1,2.56-2.93,4.9,4.9,0,0,1,2.86-.85,3.93,3.93,0,0,1,1,.11,9.57,9.57,0,0,1,1.2.44Z"/><path class="cls-2" d="M362.88,78.11a5.13,5.13,0,0,1-.8,2.79A6.66,6.66,0,0,1,359.82,83a12.59,12.59,0,0,1-3.5,1.37,19.56,19.56,0,0,1-4.59.5l-.54,0-.73,0a4.2,4.2,0,0,0,1.35,2.68,4.3,4.3,0,0,0,2.91,1,13.3,13.3,0,0,0,6.63-2v4.73a12.82,12.82,0,0,1-3.26,1.41,13.44,13.44,0,0,1-3.53.43,11.72,11.72,0,0,1-4.08-.67,8.38,8.38,0,0,1-3.08-2,8.81,8.81,0,0,1-1.93-3.06,11.31,11.31,0,0,1-.68-4,12.36,12.36,0,0,1,.79-4.52,10.45,10.45,0,0,1,2.2-3.53,9.79,9.79,0,0,1,3.4-2.3,11.45,11.45,0,0,1,4.37-.81,8.23,8.23,0,0,1,5.33,1.62A5.29,5.29,0,0,1,362.88,78.11Zm-6,.45a1.59,1.59,0,0,0-.62-1.24,2.36,2.36,0,0,0-1.56-.51,3.56,3.56,0,0,0-2.56,1,5,5,0,0,0-1.38,2.91,3.69,3.69,0,0,0,.71.09h.67Q356.9,80.86,356.9,78.56Z"/><path class="cls-2" d="M401.45,82.5a11.45,11.45,0,0,1-.74,4.26,8.66,8.66,0,0,1-2.11,3.12,9.06,9.06,0,0,1-3.27,1.93,13.92,13.92,0,0,1-8.47,0,9.06,9.06,0,0,1-3.27-1.93,8.83,8.83,0,0,1-2.13-3.12,11.24,11.24,0,0,1-.76-4.26,11,11,0,0,1,.74-4.15,8.73,8.73,0,0,1,2.08-3.1,8.9,8.9,0,0,1,3.27-1.93,14.57,14.57,0,0,1,8.54,0,9,9,0,0,1,3.27,1.89,8.37,8.37,0,0,1,2.11,3.09A11.35,11.35,0,0,1,401.45,82.5Zm-6,0a4.46,4.46,0,0,0-1.21-3.34A4.38,4.38,0,0,0,391,78a4.14,4.14,0,0,0-3.2,1.19,4.71,4.71,0,0,0-1.11,3.34,4.92,4.92,0,0,0,1.09,3.43A4.1,4.1,0,0,0,391,87.16a4.37,4.37,0,0,0,3.3-1.2A4.75,4.75,0,0,0,395.46,82.51Z"/><path class="cls-2" d="M421.29,66.64a8,8,0,0,0-1.62-.61,6.22,6.22,0,0,0-1.48-.16,4.15,4.15,0,0,0-1.85.36,2.5,2.5,0,0,0-1.12,1.15,6.33,6.33,0,0,0-.57,2.09,28.74,28.74,0,0,0-.15,3.2h4.77V77h-4.73V92.47h-6V76.94h-3.74V72.67h3.65a26.21,26.21,0,0,1,.49-5.56,9,9,0,0,1,1.51-3.56A5.59,5.59,0,0,1,413,61.66a10.06,10.06,0,0,1,3.49-.56,15.53,15.53,0,0,1,5.35.9Z"/><path class="cls-2" d="M438.25,92.47V76.94h-4V72.67h4v-5h5.9v5h5.08v4.27h-5.08V92.47Z"/><path class="cls-2" d="M465.43,92.47V81.27a5.82,5.82,0,0,0-.2-1.73,2.24,2.24,0,0,0-.58-1,1.87,1.87,0,0,0-.82-.46,4.37,4.37,0,0,0-1-.1,2.73,2.73,0,0,0-1.49.45,4.5,4.5,0,0,0-1.26,1.24,6.71,6.71,0,0,0-.9,1.84,7.24,7.24,0,0,0-.35,2.24v8.72h-6V61.64h5.94V74.92a7,7,0,0,1,2.48-1.74,8.43,8.43,0,0,1,3-.51,9.48,9.48,0,0,1,2.6.35,6.54,6.54,0,0,1,2.26,1.11,5.73,5.73,0,0,1,1.62,2,7.09,7.09,0,0,1,.62,3.11V92.47Z"/><path class="cls-2" d="M495.85,78.11a5,5,0,0,1-.8,2.79A6.72,6.72,0,0,1,492.8,83a12.66,12.66,0,0,1-3.51,1.37,19.5,19.5,0,0,1-4.59.5l-.54,0-.73,0a4.2,4.2,0,0,0,1.35,2.68,4.34,4.34,0,0,0,2.92,1,13.3,13.3,0,0,0,6.62-2v4.73a12.68,12.68,0,0,1-3.26,1.41,13.39,13.39,0,0,1-3.53.43,11.62,11.62,0,0,1-4.07-.67,8.34,8.34,0,0,1-3.09-2,8.81,8.81,0,0,1-1.93-3.06,11.31,11.31,0,0,1-.68-4,12.58,12.58,0,0,1,.79-4.52,10.47,10.47,0,0,1,2.21-3.53,9.66,9.66,0,0,1,3.39-2.3,11.45,11.45,0,0,1,4.37-.81,8.21,8.21,0,0,1,5.33,1.62A5.26,5.26,0,0,1,495.85,78.11Zm-6,.45a1.59,1.59,0,0,0-.62-1.24,2.35,2.35,0,0,0-1.55-.51,3.58,3.58,0,0,0-2.57,1,5.11,5.11,0,0,0-1.38,2.91,3.78,3.78,0,0,0,.72.09h.66Q489.87,80.86,489.87,78.56Z"/><path class="cls-2" d="M527,92.1a13.8,13.8,0,0,1-3.22.37,10.77,10.77,0,0,1-4-.71,9.78,9.78,0,0,1-3.12-2,8.4,8.4,0,0,1-2-3,10.27,10.27,0,0,1-.72-3.91,12.73,12.73,0,0,1,.65-4.13,8.64,8.64,0,0,1,2-3.24,9.12,9.12,0,0,1,3.29-2.1,12.67,12.67,0,0,1,4.56-.75,10.4,10.4,0,0,1,3.45.47,12.25,12.25,0,0,1,2.22,1l-1,5.18c-.45-.21-.83-.4-1.15-.57a6.92,6.92,0,0,0-.9-.4,4.31,4.31,0,0,0-.94-.23,11.05,11.05,0,0,0-1.24-.06,4.66,4.66,0,0,0-3.47,1.22,4.52,4.52,0,0,0-1.21,3.32A4.42,4.42,0,0,0,521.37,86,5.08,5.08,0,0,0,525,87.16a10,10,0,0,0,2.34-.28,12.87,12.87,0,0,0,2.39-.86l.4,4.9A15.5,15.5,0,0,1,527,92.1Z"/><path class="cls-2" d="M547.56,92.47V81.27a5.77,5.77,0,0,0-.21-1.73,2.33,2.33,0,0,0-.57-1,1.9,1.9,0,0,0-.83-.46,4.34,4.34,0,0,0-1-.1,2.77,2.77,0,0,0-1.5.45,4.78,4.78,0,0,0-1.26,1.24,6.71,6.71,0,0,0-.9,1.84,7.24,7.24,0,0,0-.34,2.24v8.72h-6V61.64h5.94V74.92a7,7,0,0,1,2.49-1.74,8.39,8.39,0,0,1,3-.51A9.41,9.41,0,0,1,549,73a6.45,6.45,0,0,1,2.26,1.11,5.52,5.52,0,0,1,1.62,2,7,7,0,0,1,.62,3.11V92.47Z"/><path class="cls-2" d="M574.64,92.47c0-.21,0-.47,0-.77s-.06-.52-.07-.85,0-.68-.07-1a7.17,7.17,0,0,1-2.94,2.32,9.55,9.55,0,0,1-3.83.79,7.11,7.11,0,0,1-5.75-2.43q-2.06-2.43-2.05-6.93,0-5.44,3.31-8.4t9.42-2.94c.67,0,1.27,0,1.82,0s1.1.08,1.64.16,1.11.17,1.69.29,1.22.29,1.92.5V86c0,.69,0,1.41,0,2.18s.08,1.46.14,2.09.12,1.49.18,2.21ZM573.7,77.8a9.25,9.25,0,0,0-1.42-.23c-.42,0-.82,0-1.19,0a4.79,4.79,0,0,0-3.84,1.59,6.59,6.59,0,0,0-1.38,4.44,4.4,4.4,0,0,0,.83,2.88,2.86,2.86,0,0,0,2.33,1,4.14,4.14,0,0,0,1.81-.41,4.46,4.46,0,0,0,1.49-1.15,5.58,5.58,0,0,0,1-1.75,6.76,6.76,0,0,0,.36-2.27Z"/><path class="cls-2" d="M599.85,78.2q-.63-.14-1-.18a6.65,6.65,0,0,0-.81,0,4.6,4.6,0,0,0-3.9,1.75A8.65,8.65,0,0,0,592.83,85v7.51h-6v-13c0-.73,0-1.37,0-1.92s-.05-1-.11-1.52-.15-.93-.25-1.39-.25-1-.43-1.56h5.68c.1.37.18.69.26,1a4.49,4.49,0,0,1,.16.74c0,.23.06.47.09.74a6.41,6.41,0,0,1,0,.94,10.13,10.13,0,0,1,2.56-2.93,4.9,4.9,0,0,1,2.86-.85,3.93,3.93,0,0,1,1,.11,9.57,9.57,0,0,1,1.2.44Z"/><path class="cls-2" d="M605.65,92.47V76.94h-4V72.67h4v-5h5.9v5h5.08v4.27h-5.08V92.47Z"/><path class="cls-2" d="M634.5,87a5.68,5.68,0,0,1-1.91,4.5,7.94,7.94,0,0,1-5.36,1.66,22.49,22.49,0,0,1-4.57-.45,13.52,13.52,0,0,1-3.6-1.21l.77-4.59a15.34,15.34,0,0,0,6.84,2,1.9,1.9,0,0,0,1.41-.43,1.29,1.29,0,0,0,.43-1,1.73,1.73,0,0,0-.34-1.11,5.17,5.17,0,0,0-1.64-1,26.44,26.44,0,0,1-3.17-1.62,10.4,10.4,0,0,1-2.16-1.69A5.79,5.79,0,0,1,620,80.18a6.32,6.32,0,0,1-.38-2.25,5.09,5.09,0,0,1,2.18-4.39A9.59,9.59,0,0,1,627.46,72a17.87,17.87,0,0,1,3.35.29,15.83,15.83,0,0,1,3.37,1.15L633.46,78a10.59,10.59,0,0,0-3.1-1.24,13.5,13.5,0,0,0-3-.34,2.09,2.09,0,0,0-1.44.38,1.41,1.41,0,0,0-.38,1A1.46,1.46,0,0,0,626.2,79a12.94,12.94,0,0,0,2.4,1.24,28.56,28.56,0,0,1,2.73,1.55,10.24,10.24,0,0,1,1.85,1.53,4.89,4.89,0,0,1,1,1.67A5.76,5.76,0,0,1,634.5,87Z"/><path class="cls-2" d="M661.18,67.23a2.45,2.45,0,0,1-1,2,4.16,4.16,0,0,1-5,0,2.71,2.71,0,0,1-1.08-2.07,2.44,2.44,0,0,1,1-2.06,4,4,0,0,1,2.61-.84,4.09,4.09,0,0,1,1.33.23,3.4,3.4,0,0,1,1.12.63,3.35,3.35,0,0,1,.77,1A2.53,2.53,0,0,1,661.18,67.23Zm-6.75,25.24V72.67h6v19.8Z"/><path class="cls-2" d="M680,92.47V81.23a4.63,4.63,0,0,0-.29-1.82,2.63,2.63,0,0,0-.7-1,1.72,1.72,0,0,0-.86-.39,5.86,5.86,0,0,0-.76-.06,4.2,4.2,0,0,0-1,.17,3.35,3.35,0,0,0-1.37.82,5.74,5.74,0,0,0-1.24,1.91,8.77,8.77,0,0,0-.54,3.39v8.2h-6V79.38A22.48,22.48,0,0,0,667,76a11.11,11.11,0,0,0-.72-2.75h6a9.87,9.87,0,0,1,.39,1q.11.41.24,1.17A9.33,9.33,0,0,1,676,73.34a8.9,8.9,0,0,1,3.35-.67,6.49,6.49,0,0,1,2.62.52,6.23,6.23,0,0,1,2.1,1.47A6.77,6.77,0,0,1,685.47,77a9.1,9.1,0,0,1,.5,3.09v12.4Z"/><path class="cls-2" d="M708.7,92.47V76.94h-4V72.67h4v-5h5.89v5h5.09v4.27h-5.09V92.47Z"/><path class="cls-2" d="M735.88,92.47V81.27a5.77,5.77,0,0,0-.21-1.73,2.33,2.33,0,0,0-.57-1,1.9,1.9,0,0,0-.83-.46,4.34,4.34,0,0,0-1-.1,2.77,2.77,0,0,0-1.5.45,4.78,4.78,0,0,0-1.26,1.24,6.71,6.71,0,0,0-.9,1.84,7.24,7.24,0,0,0-.34,2.24v8.72h-6V61.64h5.94V74.92a7,7,0,0,1,2.49-1.74,8.39,8.39,0,0,1,3-.51,9.41,9.41,0,0,1,2.59.35,6.45,6.45,0,0,1,2.26,1.11,5.52,5.52,0,0,1,1.62,2,7,7,0,0,1,.62,3.11V92.47Z"/><path class="cls-2" d="M766.3,78.11a5.13,5.13,0,0,1-.8,2.79A6.85,6.85,0,0,1,763.24,83a12.54,12.54,0,0,1-3.51,1.37,19.47,19.47,0,0,1-4.58.5l-.54,0-.73,0a4.2,4.2,0,0,0,1.35,2.68,4.3,4.3,0,0,0,2.91,1,13.36,13.36,0,0,0,6.63-2v4.73a12.82,12.82,0,0,1-3.26,1.41,13.52,13.52,0,0,1-3.54.43,11.66,11.66,0,0,1-4.07-.67,8.3,8.3,0,0,1-3.08-2,8.83,8.83,0,0,1-1.94-3.06,11.32,11.32,0,0,1-.67-4,12.36,12.36,0,0,1,.79-4.52,10.45,10.45,0,0,1,2.2-3.53,9.7,9.7,0,0,1,3.4-2.3,11.4,11.4,0,0,1,4.36-.81,8.26,8.26,0,0,1,5.34,1.62A5.29,5.29,0,0,1,766.3,78.11Zm-6,.45a1.57,1.57,0,0,0-.61-1.24,2.38,2.38,0,0,0-1.56-.51,3.58,3.58,0,0,0-2.57,1,5.11,5.11,0,0,0-1.38,2.91,3.87,3.87,0,0,0,.72.09h.66Q760.31,80.86,760.31,78.56Z"/><path class="cls-2" d="M797.42,92.1a13.87,13.87,0,0,1-3.22.37,10.77,10.77,0,0,1-4-.71,9.83,9.83,0,0,1-3.13-2,8.4,8.4,0,0,1-2.05-3,10.27,10.27,0,0,1-.72-3.91,12.46,12.46,0,0,1,.66-4.13,8.49,8.49,0,0,1,2-3.24,9.2,9.2,0,0,1,3.29-2.1,12.73,12.73,0,0,1,4.57-.75,10.3,10.3,0,0,1,3.44.47,12.37,12.37,0,0,1,2.23,1l-1,5.18c-.45-.21-.83-.4-1.15-.57a7.48,7.48,0,0,0-.89-.4,4.55,4.55,0,0,0-.95-.23,10.93,10.93,0,0,0-1.24-.06,4.64,4.64,0,0,0-3.46,1.22,4.53,4.53,0,0,0-1.22,3.32A4.42,4.42,0,0,0,791.81,86a5.1,5.1,0,0,0,3.65,1.21,10,10,0,0,0,2.34-.28,12.79,12.79,0,0,0,2.38-.86l.41,4.9A15.72,15.72,0,0,1,797.42,92.1Z"/><path class="cls-2" d="M825.07,82.5a11.45,11.45,0,0,1-.74,4.26,8.66,8.66,0,0,1-2.11,3.12A9.06,9.06,0,0,1,819,91.81a13.92,13.92,0,0,1-8.47,0,9.06,9.06,0,0,1-3.27-1.93,8.83,8.83,0,0,1-2.13-3.12,11.24,11.24,0,0,1-.76-4.26,11,11,0,0,1,.74-4.15,8.73,8.73,0,0,1,2.08-3.1,8.86,8.86,0,0,1,3.28-1.93,14.53,14.53,0,0,1,8.53,0,9,9,0,0,1,3.27,1.89,8.37,8.37,0,0,1,2.11,3.09A11.35,11.35,0,0,1,825.07,82.5Zm-6,0a4.46,4.46,0,0,0-1.21-3.34A4.38,4.38,0,0,0,814.62,78a4.14,4.14,0,0,0-3.2,1.19,4.71,4.71,0,0,0-1.11,3.34,4.92,4.92,0,0,0,1.09,3.43,4.1,4.1,0,0,0,3.22,1.22,4.37,4.37,0,0,0,3.3-1.2A4.75,4.75,0,0,0,819.08,82.51Z"/><path class="cls-2" d="M844.37,78.2q-.63-.14-1-.18a6.65,6.65,0,0,0-.81,0,4.56,4.56,0,0,0-3.89,1.75A8.58,8.58,0,0,0,837.35,85v7.51h-6v-13q0-1.09,0-1.92a14.09,14.09,0,0,0-.11-1.52,13.05,13.05,0,0,0-.25-1.39q-.15-.67-.42-1.56h5.68c.09.37.18.69.25,1a6,6,0,0,1,.17.74c0,.23.06.47.09.74a8.46,8.46,0,0,1,0,.94,10.43,10.43,0,0,1,2.56-2.93,4.92,4.92,0,0,1,2.86-.85,4.06,4.06,0,0,1,1.06.11,10.17,10.17,0,0,1,1.19.44Z"/><path class="cls-2" d="M861.79,78.2q-.63-.14-1-.18a6.75,6.75,0,0,0-.81,0,4.6,4.6,0,0,0-3.9,1.75A8.65,8.65,0,0,0,854.77,85v7.51h-6v-13c0-.73,0-1.37,0-1.92s0-1-.11-1.52-.15-.93-.25-1.39-.25-1-.43-1.56h5.68c.09.37.18.69.26,1a5.83,5.83,0,0,1,.16.74c0,.23.06.47.09.74a8.2,8.2,0,0,1,.05.94,10.13,10.13,0,0,1,2.56-2.93,4.9,4.9,0,0,1,2.86-.85,3.93,3.93,0,0,1,1,.11,9.57,9.57,0,0,1,1.2.44Z"/><path class="cls-2" d="M872.63,67.23a2.45,2.45,0,0,1-1,2,4.16,4.16,0,0,1-5,0,2.71,2.71,0,0,1-1.08-2.07,2.44,2.44,0,0,1,1-2.06,4,4,0,0,1,2.61-.84,4.09,4.09,0,0,1,1.33.23,3.4,3.4,0,0,1,1.12.63,3.35,3.35,0,0,1,.77,1A2.53,2.53,0,0,1,872.63,67.23Zm-6.75,25.24V72.67h6v19.8Z"/><path class="cls-2" d="M893.29,92.47q0-.27-.09-.63c0-.21-.07-.45-.1-.72s-.06-.6-.09-1a8.17,8.17,0,0,1-3,2.22,9.15,9.15,0,0,1-3.56.66,9,9,0,0,1-3.59-.7,7.9,7.9,0,0,1-2.73-1.94,8.77,8.77,0,0,1-1.76-3,11.5,11.5,0,0,1-.63-3.91,13.53,13.53,0,0,1,.74-4.55,11.18,11.18,0,0,1,2.07-3.58A9.41,9.41,0,0,1,883.74,73a9.81,9.81,0,0,1,4-.83,14,14,0,0,1,2,.14,11.56,11.56,0,0,1,2.21.58V61.1h6V85.63c0,.51,0,1.15.07,1.93s.1,1.53.16,2.25.13,1.73.22,2.66ZM892,78a6.46,6.46,0,0,0-1.66-.45,14.13,14.13,0,0,0-1.62-.09A4.55,4.55,0,0,0,885.08,79a6.34,6.34,0,0,0-1.34,4.26,4.65,4.65,0,0,0,.94,3.08,3.2,3.2,0,0,0,2.57,1.1,5.36,5.36,0,0,0,1.85-.31,3.44,3.44,0,0,0,1.5-1.08,5.73,5.73,0,0,0,1-2A10.73,10.73,0,0,0,892,81Z"/><path class="cls-2" d="M924.29,82.5a11.45,11.45,0,0,1-.74,4.26,8.54,8.54,0,0,1-2.11,3.12,9.06,9.06,0,0,1-3.27,1.93,13.89,13.89,0,0,1-8.46,0,9.11,9.11,0,0,1-3.28-1.93,8.68,8.68,0,0,1-2.12-3.12,12.09,12.09,0,0,1,0-8.41,8.55,8.55,0,0,1,5.36-5,14.53,14.53,0,0,1,8.53,0,9,9,0,0,1,3.27,1.89,8.26,8.26,0,0,1,2.11,3.09A11.35,11.35,0,0,1,924.29,82.5Zm-6,0a4.49,4.49,0,0,0-1.2-3.34A4.41,4.41,0,0,0,913.85,78a4.17,4.17,0,0,0-3.21,1.19,4.71,4.71,0,0,0-1.11,3.34,4.92,4.92,0,0,0,1.09,3.43,4.12,4.12,0,0,0,3.23,1.22,4.36,4.36,0,0,0,3.29-1.2A4.71,4.71,0,0,0,918.3,82.51Z"/><path class="cls-2" d="M943.59,78.2q-.63-.14-1-.18a6.65,6.65,0,0,0-.81,0,4.58,4.58,0,0,0-3.89,1.75A8.65,8.65,0,0,0,936.57,85v7.51h-6v-13c0-.73,0-1.37,0-1.92s-.06-1-.12-1.52-.14-.93-.24-1.39-.25-1-.43-1.56h5.68c.09.37.18.69.26,1a5.83,5.83,0,0,1,.16.74c0,.23.06.47.09.74a8.2,8.2,0,0,1,0,.94,10.13,10.13,0,0,1,2.56-2.93,4.87,4.87,0,0,1,2.85-.85,4,4,0,0,1,1.06.11,9.54,9.54,0,0,1,1.19.44Z"/><path class="cls-2" d="M950,89.7a2.42,2.42,0,0,1-1,2,4,4,0,0,1-2.49.8,3.83,3.83,0,0,1-2.5-.86,2.59,2.59,0,0,1-.07-4.11,3.54,3.54,0,0,1,2.39-.84,4,4,0,0,1,2.62.89A2.7,2.7,0,0,1,950,89.7Z"/></svg>