<svg id="Layer_1" data-name="Layer 1" xmlns="http://www.w3.org/2000/svg" viewBox="0 0 1156.67 169.53"><defs><style>.cls-1{fill:#3172c2;stroke:#fff;stroke-miterlimit:10;stroke-width:2px;}.cls-2{fill:#fff;}</style></defs><rect class="cls-1" x="19.5" y="15.52" width="1117.66" height="138.49" rx="39.07"/><path class="cls-2" d="M104.36,68.39l-3.29-8.64H90.45l-3.37,8.64h-7L92.61,37h7.11l12.2,31.41ZM95.72,44.72l-3.47,9.72h7.11Z"/><path class="cls-2" d="M115.52,68.39V37h6V68.39Z"/><path class="cls-2" d="M153.54,66.19a3.52,3.52,0,0,1-1.19,1.7,3.68,3.68,0,0,1-2,.5,3.34,3.34,0,0,1-2.07-.55A3.87,3.87,0,0,1,147.06,66l-3.82-11.67-4,11.9a2.9,2.9,0,0,1-1.15,1.65,4,4,0,0,1-2.13.5,7.23,7.23,0,0,1-.95-.06,2.6,2.6,0,0,1-.85-.29,2.49,2.49,0,0,1-.77-.7,4.62,4.62,0,0,1-.63-1.28l-6.3-17.47h6.08l2.61,8c.09.29.18.64.29,1s.22.79.34,1.17.25.9.4,1.4a8.37,8.37,0,0,1,.27-1.1c.09-.32.19-.66.29-1s.21-.71.3-1l2.52-8.43h7.29l2.7,8.83c.06.26.14.54.24.85s.21.61.3.9a5.56,5.56,0,0,1,.27,1c.09-.29.18-.6.27-.92.15-.59.31-1.14.49-1.67l2.66-9h6.3Z"/><path class="cls-2" d="M178.06,68.39a7.6,7.6,0,0,0,0-.76,6.64,6.64,0,0,1-.07-.86c0-.33,0-.67-.07-1a7.07,7.07,0,0,1-2.94,2.31,9.38,9.38,0,0,1-3.83.79,7.11,7.11,0,0,1-5.75-2.43q-2.06-2.43-2.05-6.93,0-5.44,3.3-8.39t9.42-3c.67,0,1.28,0,1.83,0s1.09.08,1.64.15,1.11.18,1.69.3,1.22.28,1.92.49V61.91c0,.69,0,1.42,0,2.18s.08,1.47.14,2.1.12,1.48.18,2.2Zm-.94-14.67a9.15,9.15,0,0,0-1.42-.22c-.43,0-.82,0-1.19,0a4.8,4.8,0,0,0-3.85,1.6,6.6,6.6,0,0,0-1.37,4.43,4.4,4.4,0,0,0,.83,2.88,2.84,2.84,0,0,0,2.33,1,4.16,4.16,0,0,0,1.81-.4,4.7,4.7,0,0,0,1.49-1.15,5.61,5.61,0,0,0,1-1.76,6.47,6.47,0,0,0,.37-2.27Z"/><path class="cls-2" d="M206.82,74.86a9.75,9.75,0,0,1-2,4.14,7,7,0,0,1-3.41,2.18,17.72,17.72,0,0,1-5,.62,15,15,0,0,1-2.89-.29c-1-.2-2-.46-3-.79V76.23c1,.08,1.94.14,2.82.19s1.77.07,2.64.07a6.52,6.52,0,0,0,2.42-.41,3.69,3.69,0,0,0,1.67-1.37,6.47,6.47,0,0,0,.95-2.5,21.45,21.45,0,0,0,.29-3.82V66a7.71,7.71,0,0,1-5.62,2.43,6.56,6.56,0,0,1-2.59-.53A6,6,0,0,1,191,66.34,7.48,7.48,0,0,1,189.54,64a8.63,8.63,0,0,1-.54-3.15c0-1,0-2.07.05-3s0-1.94,0-2.91,0-2,0-3-.07-2.13-.16-3.3h6c.09,1.19.14,2.3.15,3.32s0,2,0,2.88,0,1.77,0,2.6,0,1.65,0,2.46a3.74,3.74,0,0,0,.66,2.47,2.4,2.4,0,0,0,1.91.76,3.63,3.63,0,0,0,2.76-1.24,4.77,4.77,0,0,0,1.15-3.34V48.59h6v19.8A27.88,27.88,0,0,1,206.82,74.86Z"/><path class="cls-2" d="M228.6,62.9a5.68,5.68,0,0,1-1.91,4.5,7.87,7.87,0,0,1-5.36,1.67,22.39,22.39,0,0,1-4.56-.45,13.38,13.38,0,0,1-3.6-1.22l.76-4.59a15.37,15.37,0,0,0,6.84,2,2,2,0,0,0,1.42-.43,1.37,1.37,0,0,0,.43-1,1.74,1.74,0,0,0-.34-1.1,5.22,5.22,0,0,0-1.64-1.06,27.43,27.43,0,0,1-3.18-1.62A10.6,10.6,0,0,1,215.3,58a5.61,5.61,0,0,1-1.21-1.86,6.1,6.1,0,0,1-.38-2.25,5.07,5.07,0,0,1,2.17-4.39,9.55,9.55,0,0,1,5.69-1.55,17.06,17.06,0,0,1,3.35.29,15.23,15.23,0,0,1,3.36,1.15l-.72,4.54a10.82,10.82,0,0,0-3.09-1.24,14.27,14.27,0,0,0-3-.33,2,2,0,0,0-1.43.38,1.34,1.34,0,0,0-.39,1,1.5,1.5,0,0,0,.62,1.24,12.88,12.88,0,0,0,2.4,1.24,28.88,28.88,0,0,1,2.73,1.55,9.39,9.39,0,0,1,1.84,1.53,5,5,0,0,1,1,1.66A6.06,6.06,0,0,1,228.6,62.9Z"/><path class="cls-2" d="M260.14,56.69l9.59,11.7h-7.92l-7.47-9.76v9.76h-6V37h6V55.12l7.29-6.53h8.59Z"/><path class="cls-2" d="M289.93,54a5,5,0,0,1-.8,2.79A6.6,6.6,0,0,1,286.88,59a12.36,12.36,0,0,1-3.51,1.38,19.52,19.52,0,0,1-4.59.49l-.54,0c-.2,0-.44,0-.73,0a4.15,4.15,0,0,0,1.35,2.67,4.29,4.29,0,0,0,2.92,1,13.28,13.28,0,0,0,6.62-2v4.72a13.08,13.08,0,0,1-3.26,1.42,13.82,13.82,0,0,1-3.53.43,11.62,11.62,0,0,1-4.07-.68,8.22,8.22,0,0,1-3.09-2,8.63,8.63,0,0,1-1.93-3.06,11.22,11.22,0,0,1-.68-4,12.67,12.67,0,0,1,.79-4.53,10.57,10.57,0,0,1,2.21-3.53,9.64,9.64,0,0,1,3.39-2.29,11.45,11.45,0,0,1,4.37-.81,8.21,8.21,0,0,1,5.33,1.62A5.26,5.26,0,0,1,289.93,54Zm-6,.45a1.57,1.57,0,0,0-.62-1.24,2.31,2.31,0,0,0-1.55-.52,3.54,3.54,0,0,0-2.57,1.06,5,5,0,0,0-1.38,2.9,3.78,3.78,0,0,0,.71.09h.67Q284,56.78,284,54.49Z"/><path class="cls-2" d="M312,54a5.13,5.13,0,0,1-.8,2.79A6.63,6.63,0,0,1,309,59a12.29,12.29,0,0,1-3.5,1.38,19.64,19.64,0,0,1-4.59.49l-.54,0c-.21,0-.45,0-.73,0A4.15,4.15,0,0,0,301,63.46a4.25,4.25,0,0,0,2.91,1,13.34,13.34,0,0,0,6.63-2v4.72a13.24,13.24,0,0,1-3.26,1.42,14,14,0,0,1-3.54.43,11.66,11.66,0,0,1-4.07-.68,8.26,8.26,0,0,1-3.08-2,8.65,8.65,0,0,1-1.94-3.06,11.45,11.45,0,0,1-.67-4,12.46,12.46,0,0,1,.79-4.53,10.55,10.55,0,0,1,2.2-3.53,9.77,9.77,0,0,1,3.4-2.29,11.4,11.4,0,0,1,4.36-.81A8.26,8.26,0,0,1,310,49.72,5.29,5.29,0,0,1,312,54Zm-6,.45a1.56,1.56,0,0,0-.61-1.24,2.32,2.32,0,0,0-1.56-.52,3.53,3.53,0,0,0-2.56,1.06,5,5,0,0,0-1.39,2.9,3.87,3.87,0,0,0,.72.09h.67Q306,56.78,306,54.49Z"/><path class="cls-2" d="M336.55,57.32a15.1,15.1,0,0,1-.63,4.5,10.78,10.78,0,0,1-1.77,3.5,8.1,8.1,0,0,1-2.73,2.27,7.69,7.69,0,0,1-3.49.8,7.57,7.57,0,0,1-2.37-.31,7.09,7.09,0,0,1-2-1.16V81.8h-6.3V54.52a10.16,10.16,0,0,0-.07-1.14c0-.45-.1-.91-.18-1.4s-.16-1-.27-1.46a9.63,9.63,0,0,0-.38-1.34h6.1a6.18,6.18,0,0,1,.33.87,11.36,11.36,0,0,1,.18,1.24,9.62,9.62,0,0,1,2.72-2.07,7.15,7.15,0,0,1,3.1-.63,7.77,7.77,0,0,1,3.17.63A7.14,7.14,0,0,1,334.41,51,8.16,8.16,0,0,1,336,53.76,10.68,10.68,0,0,1,336.55,57.32Zm-6,1a4.26,4.26,0,0,0-.9-2.89,3.07,3.07,0,0,0-2.46-1,3.56,3.56,0,0,0-2.91,1.32,5.51,5.51,0,0,0-1.07,3.56v2.6a4.78,4.78,0,0,0,3.19,1.2,3.87,3.87,0,0,0,3-1.26A5.12,5.12,0,0,0,330.57,58.32Z"/><path class="cls-2" d="M374.35,74.86a9.75,9.75,0,0,1-2,4.14A7,7,0,0,1,369,81.18a17.65,17.65,0,0,1-5,.62,15,15,0,0,1-2.9-.29c-1-.2-2-.46-3-.79V76.23c1,.08,1.94.14,2.83.19s1.76.07,2.64.07a6.5,6.5,0,0,0,2.41-.41,3.69,3.69,0,0,0,1.67-1.37,6.47,6.47,0,0,0,.95-2.5,21.45,21.45,0,0,0,.29-3.82V66a7.71,7.71,0,0,1-5.62,2.43,6.59,6.59,0,0,1-2.59-.53,6.11,6.11,0,0,1-2.14-1.52A7.48,7.48,0,0,1,357.07,64a8.63,8.63,0,0,1-.54-3.15c0-1,0-2.07.05-3s0-1.94,0-2.91,0-2,0-3-.07-2.13-.16-3.3h6c.09,1.19.14,2.3.16,3.32s0,2,0,2.88,0,1.77,0,2.6,0,1.65,0,2.46a3.74,3.74,0,0,0,.66,2.47,2.4,2.4,0,0,0,1.91.76,3.63,3.63,0,0,0,2.76-1.24A4.72,4.72,0,0,0,369,58.5V48.59h6v19.8A27.88,27.88,0,0,1,374.35,74.86Z"/><path class="cls-2" d="M401.53,58.43a11.25,11.25,0,0,1-.74,4.26,8.39,8.39,0,0,1-2.1,3.11,8.92,8.92,0,0,1-3.27,1.93,13.92,13.92,0,0,1-8.47,0,8.92,8.92,0,0,1-3.27-1.93,8.71,8.71,0,0,1-2.13-3.11,11.05,11.05,0,0,1-.76-4.26,10.87,10.87,0,0,1,.74-4.16,8.56,8.56,0,0,1,2.08-3.09,8.9,8.9,0,0,1,3.27-1.93,14.35,14.35,0,0,1,8.54,0,9,9,0,0,1,3.27,1.88,8.35,8.35,0,0,1,2.1,3.1A11.11,11.11,0,0,1,401.53,58.43Zm-6,0a4.15,4.15,0,0,0-4.46-4.53,4.18,4.18,0,0,0-3.2,1.19,4.69,4.69,0,0,0-1.12,3.34,5,5,0,0,0,1.09,3.44,4.13,4.13,0,0,0,3.23,1.21,4.43,4.43,0,0,0,3.3-1.19A4.79,4.79,0,0,0,395.55,58.43Z"/><path class="cls-2" d="M420.75,67.85a9.87,9.87,0,0,1-.39-1q-.11-.41-.24-1.17a8.82,8.82,0,0,1-6.35,2.74,6.49,6.49,0,0,1-2.68-.55,6.79,6.79,0,0,1-2.16-1.51A6.54,6.54,0,0,1,407.52,64a8.73,8.73,0,0,1-.5-3q0-1.85.09-3.42c.06-1,.11-2.06.14-3s0-1.93,0-2.89-.11-2-.23-3.07h6c.09,1,.14,1.93.16,2.84s0,1.82,0,2.71-.05,1.81-.09,2.74-.07,1.91-.07,2.95a4.84,4.84,0,0,0,.28,1.84,2.24,2.24,0,0,0,.72,1,2.32,2.32,0,0,0,.92.37,6.43,6.43,0,0,0,.8.06,5.06,5.06,0,0,0,1-.17,3.19,3.19,0,0,0,1.36-.83,5.45,5.45,0,0,0,1.19-1.91,8.91,8.91,0,0,0,.52-3.38v-8.2h6V61.68a22.25,22.25,0,0,0,.27,3.41,11.08,11.08,0,0,0,.72,2.76Z"/><path class="cls-2" d="M446.67,54.13q-.63-.14-1-.18a6.51,6.51,0,0,0-.81-.05,4.6,4.6,0,0,0-3.9,1.76,8.63,8.63,0,0,0-1.32,5.23v7.5h-6v-13c0-.73,0-1.37,0-1.91s-.05-1-.11-1.52-.15-.93-.25-1.39-.25-1-.43-1.56h5.68c.1.37.18.68.26.94a4.49,4.49,0,0,1,.16.74c0,.23.06.48.09.74a6.56,6.56,0,0,1,0,1,10.05,10.05,0,0,1,2.56-2.94,5,5,0,0,1,2.86-.85,3.89,3.89,0,0,1,1.05.12,9.21,9.21,0,0,1,1.2.43Z"/><path class="cls-2" d="M477.13,68.39V57.2a5.85,5.85,0,0,0-.21-1.74,2.25,2.25,0,0,0-.57-1,1.72,1.72,0,0,0-.83-.46,4.21,4.21,0,0,0-1-.11,2.66,2.66,0,0,0-1.49.46,4.48,4.48,0,0,0-1.27,1.23,6.49,6.49,0,0,0-.89,1.85,7.18,7.18,0,0,0-.35,2.23v8.72h-6V37.57h5.94V50.84A6.78,6.78,0,0,1,473,49.11a8.17,8.17,0,0,1,3-.52,9.75,9.75,0,0,1,2.59.35,6.52,6.52,0,0,1,2.27,1.12,5.73,5.73,0,0,1,1.62,2,7.06,7.06,0,0,1,.62,3.11V68.39Z"/><path class="cls-2" d="M504.22,68.39c0-.21,0-.46-.05-.76s-.05-.53-.07-.86,0-.67-.07-1a7,7,0,0,1-2.93,2.31,9.43,9.43,0,0,1-3.84.79,7.12,7.12,0,0,1-5.75-2.43c-1.36-1.62-2.05-3.93-2.05-6.93q0-5.44,3.31-8.39t9.42-3c.67,0,1.28,0,1.82,0s1.1.08,1.65.15,1.11.18,1.68.3,1.22.28,1.92.49V61.91c0,.69,0,1.42.05,2.18s.07,1.47.13,2.1.12,1.48.18,2.2Zm-.94-14.67a9.33,9.33,0,0,0-1.42-.22c-.43,0-.83,0-1.19,0a4.78,4.78,0,0,0-3.85,1.6,6.54,6.54,0,0,0-1.37,4.43,4.4,4.4,0,0,0,.82,2.88,2.87,2.87,0,0,0,2.33,1,4.1,4.1,0,0,0,1.81-.4,4.6,4.6,0,0,0,1.49-1.15,5.44,5.44,0,0,0,1-1.76,6.71,6.71,0,0,0,.37-2.27Z"/><path class="cls-2" d="M528.66,68.39V57.15a4.47,4.47,0,0,0-.3-1.82,2.57,2.57,0,0,0-.69-1,1.72,1.72,0,0,0-.86-.39,4.75,4.75,0,0,0-.77-.07,4.94,4.94,0,0,0-.94.17,3.32,3.32,0,0,0-1.37.83,5.49,5.49,0,0,0-1.24,1.91,8.71,8.71,0,0,0-.54,3.38v8.2h-6V55.3a21.15,21.15,0,0,0-.27-3.41,11.59,11.59,0,0,0-.71-2.76h6a7.78,7.78,0,0,1,.38,1,11.57,11.57,0,0,1,.25,1.17,9.33,9.33,0,0,1,3.09-2.07,8.87,8.87,0,0,1,3.35-.68,6.53,6.53,0,0,1,2.62.53,6.2,6.2,0,0,1,2.09,1.46,6.82,6.82,0,0,1,1.39,2.33,8.8,8.8,0,0,1,.51,3.08v12.4Z"/><path class="cls-2" d="M556.51,68.39q0-.27-.09-.63t-.09-.72c0-.27-.07-.6-.1-1a8.29,8.29,0,0,1-3,2.23,9.42,9.42,0,0,1-3.57.65,8.85,8.85,0,0,1-3.59-.7,7.93,7.93,0,0,1-2.72-1.93,8.7,8.7,0,0,1-1.76-3,11.31,11.31,0,0,1-.63-3.92,13.22,13.22,0,0,1,.74-4.54,10.72,10.72,0,0,1,2.07-3.58A9.06,9.06,0,0,1,547,48.93a9.65,9.65,0,0,1,4-.83,14,14,0,0,1,2,.13,11.6,11.6,0,0,1,2.2.59V37h6V61.55c0,.51,0,1.16.07,1.94s.09,1.53.16,2.25.13,1.72.22,2.65ZM555.2,54a6.36,6.36,0,0,0-1.66-.45,13.83,13.83,0,0,0-1.61-.09A4.52,4.52,0,0,0,548.3,55,6.29,6.29,0,0,0,547,59.21a4.57,4.57,0,0,0,.94,3.08,3.18,3.18,0,0,0,2.57,1.11,5.41,5.41,0,0,0,1.85-.32,3.56,3.56,0,0,0,1.5-1.08,5.76,5.76,0,0,0,1-2,10.81,10.81,0,0,0,.37-3.08Z"/><path class="cls-2" d="M588.82,43.15a2.49,2.49,0,0,1-1,2,3.83,3.83,0,0,1-2.47.82,3.87,3.87,0,0,1-2.52-.84,2.7,2.7,0,0,1-1.08-2.06,2.43,2.43,0,0,1,1-2.06,4,4,0,0,1,2.61-.84,4.08,4.08,0,0,1,1.33.22,3.79,3.79,0,0,1,1.12.63,3.26,3.26,0,0,1,.77,1A2.52,2.52,0,0,1,588.82,43.15Zm-6.75,25.24V48.59h6v19.8Z"/><path class="cls-2" d="M607.63,68.39V57.15a4.67,4.67,0,0,0-.29-1.82,2.59,2.59,0,0,0-.7-1,1.72,1.72,0,0,0-.86-.39,4.64,4.64,0,0,0-.76-.07,4.87,4.87,0,0,0-.95.17,3.38,3.38,0,0,0-1.37.83,5.64,5.64,0,0,0-1.24,1.91,8.71,8.71,0,0,0-.54,3.38v8.2h-6V55.3a22.35,22.35,0,0,0-.27-3.41,11.08,11.08,0,0,0-.72-2.76h6a9.91,9.91,0,0,1,.39,1q.1.4.24,1.17a9.33,9.33,0,0,1,3.09-2.07,8.91,8.91,0,0,1,3.35-.68,6.53,6.53,0,0,1,2.62.53,6.34,6.34,0,0,1,2.1,1.46,6.82,6.82,0,0,1,1.39,2.33,9,9,0,0,1,.5,3.08v12.4Z"/><path class="cls-2" d="M635.12,62.9a5.67,5.67,0,0,1-1.9,4.5,7.9,7.9,0,0,1-5.37,1.67,22.46,22.46,0,0,1-4.56-.45,13.38,13.38,0,0,1-3.6-1.22l.76-4.59a15.37,15.37,0,0,0,6.84,2,2,2,0,0,0,1.42-.43,1.33,1.33,0,0,0,.43-1,1.68,1.68,0,0,0-.34-1.1,5,5,0,0,0-1.64-1.06A26.44,26.44,0,0,1,624,59.66,10.08,10.08,0,0,1,621.83,58a5.49,5.49,0,0,1-1.22-1.86,6.1,6.1,0,0,1-.38-2.25,5.07,5.07,0,0,1,2.17-4.39,9.55,9.55,0,0,1,5.69-1.55,17.06,17.06,0,0,1,3.35.29,15.23,15.23,0,0,1,3.36,1.15l-.72,4.54A10.82,10.82,0,0,0,631,52.66a14.2,14.2,0,0,0-3-.33,2,2,0,0,0-1.43.38,1.34,1.34,0,0,0-.39,1,1.5,1.5,0,0,0,.62,1.24,12.88,12.88,0,0,0,2.4,1.24A26.55,26.55,0,0,1,632,57.75a9.39,9.39,0,0,1,1.84,1.53,4.73,4.73,0,0,1,1,1.66A6.06,6.06,0,0,1,635.12,62.9Z"/><path class="cls-2" d="M647.81,43.15a2.48,2.48,0,0,1-1,2,4.18,4.18,0,0,1-5,0,2.7,2.7,0,0,1-1.08-2.06,2.43,2.43,0,0,1,1-2.06,4,4,0,0,1,2.61-.84,4.08,4.08,0,0,1,1.33.22,3.79,3.79,0,0,1,1.12.63,3.26,3.26,0,0,1,.77,1A2.52,2.52,0,0,1,647.81,43.15Zm-6.75,25.24V48.59h6v19.8Z"/><path class="cls-2" d="M668.47,68.39q0-.27-.09-.63c0-.21-.07-.45-.1-.72s-.06-.6-.09-1a8.24,8.24,0,0,1-3,2.23,9.33,9.33,0,0,1-3.56.65,8.85,8.85,0,0,1-3.59-.7,8,8,0,0,1-2.73-1.93,8.86,8.86,0,0,1-1.76-3,11.55,11.55,0,0,1-.63-3.92,13.47,13.47,0,0,1,.74-4.54,11.07,11.07,0,0,1,2.07-3.58,9.19,9.19,0,0,1,3.18-2.34A9.65,9.65,0,0,1,663,48.1a14,14,0,0,1,2,.13,11.6,11.6,0,0,1,2.2.59V37h6V61.55c0,.51,0,1.16.06,1.94s.1,1.53.16,2.25.14,1.72.23,2.65ZM667.16,54a6.36,6.36,0,0,0-1.66-.45,13.83,13.83,0,0,0-1.61-.09A4.52,4.52,0,0,0,660.26,55a6.29,6.29,0,0,0-1.33,4.25,4.62,4.62,0,0,0,.93,3.08,3.2,3.2,0,0,0,2.58,1.11,5.31,5.31,0,0,0,1.84-.32,3.44,3.44,0,0,0,1.5-1.08,5.77,5.77,0,0,0,1-2,10.81,10.81,0,0,0,.37-3.08Z"/><path class="cls-2" d="M697,54a5.13,5.13,0,0,1-.8,2.79A6.72,6.72,0,0,1,693.94,59a12.25,12.25,0,0,1-3.51,1.38,19.49,19.49,0,0,1-4.58.49l-.54,0c-.21,0-.45,0-.73,0a4.06,4.06,0,0,0,1.35,2.67,4.25,4.25,0,0,0,2.91,1,13.34,13.34,0,0,0,6.63-2v4.72a13.14,13.14,0,0,1-3.27,1.42,13.82,13.82,0,0,1-3.53.43,11.62,11.62,0,0,1-4.07-.68,8.18,8.18,0,0,1-3.08-2,8.65,8.65,0,0,1-1.94-3.06,11.22,11.22,0,0,1-.67-4,12.67,12.67,0,0,1,.78-4.53,10.57,10.57,0,0,1,2.21-3.53,9.68,9.68,0,0,1,3.4-2.29,11.4,11.4,0,0,1,4.36-.81A8.21,8.21,0,0,1,695,49.72,5.27,5.27,0,0,1,697,54Zm-6,.45a1.54,1.54,0,0,0-.62-1.24,2.31,2.31,0,0,0-1.55-.52,3.55,3.55,0,0,0-2.57,1.06,5,5,0,0,0-1.38,2.9,3.87,3.87,0,0,0,.72.09h.66Q691,56.78,691,54.49Z"/><path class="cls-2" d="M717.38,68.39V52.87h-4V48.59h4v-5h5.9v5h5.08v4.28h-5.08V68.39Z"/><path class="cls-2" d="M744.56,68.39V57.2a5.85,5.85,0,0,0-.21-1.74,2.25,2.25,0,0,0-.57-1A1.72,1.72,0,0,0,743,54a4.28,4.28,0,0,0-1-.11,2.72,2.72,0,0,0-1.5.46,4.58,4.58,0,0,0-1.26,1.23,6.49,6.49,0,0,0-.89,1.85,6.9,6.9,0,0,0-.35,2.23v8.72h-6V37.57h6V50.84a6.7,6.7,0,0,1,2.48-1.73,8.17,8.17,0,0,1,3-.52,9.8,9.8,0,0,1,2.59.35,6.47,6.47,0,0,1,2.26,1.12,5.52,5.52,0,0,1,1.62,2,6.92,6.92,0,0,1,.62,3.11V68.39Z"/><path class="cls-2" d="M775,54a5.13,5.13,0,0,1-.8,2.79A6.63,6.63,0,0,1,771.92,59a12.29,12.29,0,0,1-3.5,1.38,19.64,19.64,0,0,1-4.59.49l-.54,0c-.2,0-.45,0-.73,0a4.15,4.15,0,0,0,1.35,2.67,4.25,4.25,0,0,0,2.91,1,13.34,13.34,0,0,0,6.63-2v4.72a13.24,13.24,0,0,1-3.26,1.42,13.93,13.93,0,0,1-3.53.43,11.68,11.68,0,0,1-4.08-.68,8.26,8.26,0,0,1-3.08-2,8.49,8.49,0,0,1-1.93-3.06,11.22,11.22,0,0,1-.68-4,12.46,12.46,0,0,1,.79-4.53,10.55,10.55,0,0,1,2.2-3.53,9.77,9.77,0,0,1,3.4-2.29,11.41,11.41,0,0,1,4.37-.81A8.23,8.23,0,0,1,773,49.72,5.29,5.29,0,0,1,775,54Zm-6,.45a1.57,1.57,0,0,0-.62-1.24,2.32,2.32,0,0,0-1.56-.52,3.53,3.53,0,0,0-2.56,1.06,4.93,4.93,0,0,0-1.38,2.9,3.69,3.69,0,0,0,.71.09h.67Q769,56.78,769,54.49Z"/><path class="cls-2" d="M818.94,66.19a3.45,3.45,0,0,1-1.19,1.7,3.65,3.65,0,0,1-2,.5,3.34,3.34,0,0,1-2.07-.55A3.87,3.87,0,0,1,812.46,66l-3.82-11.67-4,11.9a2.93,2.93,0,0,1-1.14,1.65,4,4,0,0,1-2.14.5,7.23,7.23,0,0,1-1-.06,2.6,2.6,0,0,1-.85-.29,2.49,2.49,0,0,1-.77-.7,4.62,4.62,0,0,1-.63-1.28l-6.3-17.47h6.08l2.61,8c.09.29.19.64.29,1s.22.79.34,1.17.25.9.4,1.4a8.37,8.37,0,0,1,.27-1.1c.09-.32.19-.66.3-1l.29-1L805,48.59h7.29l2.7,8.83a7.71,7.71,0,0,0,.25.85c.1.31.2.61.29.9a5.56,5.56,0,0,1,.27,1c.09-.29.18-.6.27-.92.15-.59.31-1.14.49-1.67l2.66-9h6.3Z"/><path class="cls-2" d="M837,43.15a2.48,2.48,0,0,1-1,2,4.18,4.18,0,0,1-5,0,2.7,2.7,0,0,1-1.08-2.06,2.43,2.43,0,0,1,1-2.06,4.36,4.36,0,0,1,3.94-.62A3.85,3.85,0,0,1,836,41a3.23,3.23,0,0,1,.76,1A2.4,2.4,0,0,1,837,43.15Zm-6.75,25.24V48.59h6v19.8Z"/><path class="cls-2" d="M855.84,68.39V57.15a4.49,4.49,0,0,0-.29-1.82,2.48,2.48,0,0,0-.7-1A1.69,1.69,0,0,0,854,54a4.75,4.75,0,0,0-.77-.07,4.81,4.81,0,0,0-.94.17,3.32,3.32,0,0,0-1.37.83,5.49,5.49,0,0,0-1.24,1.91,8.71,8.71,0,0,0-.54,3.38v8.2h-6V55.3a22.35,22.35,0,0,0-.27-3.41,11.08,11.08,0,0,0-.72-2.76h6a7.78,7.78,0,0,1,.38,1,11.57,11.57,0,0,1,.25,1.17,9.39,9.39,0,0,1,3.08-2.07,9,9,0,0,1,3.36-.68,6.53,6.53,0,0,1,2.62.53,6.3,6.3,0,0,1,2.09,1.46,6.82,6.82,0,0,1,1.39,2.33,8.8,8.8,0,0,1,.51,3.08v12.4Z"/><path class="cls-2" d="M883.7,68.39q0-.27-.09-.63c0-.21-.07-.45-.1-.72s-.06-.6-.09-1a8.24,8.24,0,0,1-3,2.23,9.33,9.33,0,0,1-3.56.65,8.85,8.85,0,0,1-3.59-.7,8,8,0,0,1-2.73-1.93,8.86,8.86,0,0,1-1.76-3,11.55,11.55,0,0,1-.63-3.92,13.22,13.22,0,0,1,.75-4.54A10.87,10.87,0,0,1,871,51.27a9.19,9.19,0,0,1,3.18-2.34,9.65,9.65,0,0,1,4.05-.83,14,14,0,0,1,2,.13,11.6,11.6,0,0,1,2.2.59V37h6V61.55c0,.51,0,1.16.06,1.94s.1,1.53.16,2.25.14,1.72.23,2.65ZM882.39,54a6.36,6.36,0,0,0-1.66-.45,13.83,13.83,0,0,0-1.61-.09A4.52,4.52,0,0,0,875.49,55a6.29,6.29,0,0,0-1.33,4.25,4.62,4.62,0,0,0,.93,3.08,3.2,3.2,0,0,0,2.58,1.11,5.31,5.31,0,0,0,1.84-.32A3.44,3.44,0,0,0,881,62a5.77,5.77,0,0,0,1-2,10.81,10.81,0,0,0,.37-3.08Z"/><path class="cls-2" d="M914.7,58.43a11.25,11.25,0,0,1-.74,4.26,8.39,8.39,0,0,1-2.1,3.11,8.92,8.92,0,0,1-3.27,1.93,13.92,13.92,0,0,1-8.47,0,8.92,8.92,0,0,1-3.27-1.93,8.71,8.71,0,0,1-2.13-3.11,11.05,11.05,0,0,1-.76-4.26,10.87,10.87,0,0,1,.74-4.16,8.56,8.56,0,0,1,2.08-3.09,8.82,8.82,0,0,1,3.27-1.93,14.35,14.35,0,0,1,8.54,0,9,9,0,0,1,3.27,1.88,8.35,8.35,0,0,1,2.1,3.1A11.11,11.11,0,0,1,914.7,58.43Zm-6,0a4.51,4.51,0,0,0-1.21-3.34,4.44,4.44,0,0,0-3.25-1.19,4.18,4.18,0,0,0-3.2,1.19,4.69,4.69,0,0,0-1.12,3.34A5,5,0,0,0,901,61.87a4.13,4.13,0,0,0,3.23,1.21,4.43,4.43,0,0,0,3.3-1.19A4.79,4.79,0,0,0,908.72,58.43Z"/><path class="cls-2" d="M944.85,66.19a3.52,3.52,0,0,1-1.19,1.7,3.65,3.65,0,0,1-2,.5,3.34,3.34,0,0,1-2.07-.55A3.87,3.87,0,0,1,938.37,66l-3.82-11.67-4,11.9a2.9,2.9,0,0,1-1.15,1.65,4,4,0,0,1-2.13.5,7.23,7.23,0,0,1-1-.06,2.6,2.6,0,0,1-.85-.29,2.49,2.49,0,0,1-.77-.7,4.62,4.62,0,0,1-.63-1.28l-6.3-17.47h6.08l2.61,8c.09.29.18.64.29,1s.22.79.34,1.17.25.9.4,1.4a8.37,8.37,0,0,1,.27-1.1c.09-.32.19-.66.29-1s.21-.71.3-1l2.52-8.43h7.29l2.7,8.83c.06.26.14.54.24.85s.21.61.3.9a5.56,5.56,0,0,1,.27,1c.09-.29.18-.6.27-.92.15-.59.31-1.14.49-1.67l2.66-9h6.3Z"/><path class="cls-2" d="M995,66.19a3.47,3.47,0,0,1-1.2,1.7,3.62,3.62,0,0,1-2,.5,3.34,3.34,0,0,1-2.07-.55A3.87,3.87,0,0,1,988.55,66l-3.83-11.67-4,11.9a2.94,2.94,0,0,1-1.15,1.65,4,4,0,0,1-2.14.5,7.07,7.07,0,0,1-.94-.06,2.65,2.65,0,0,1-.86-.29,2.46,2.46,0,0,1-.76-.7,4.62,4.62,0,0,1-.63-1.28l-6.3-17.47H974l2.61,8c.09.29.19.64.29,1s.22.79.34,1.17.26.9.41,1.4a8.37,8.37,0,0,1,.27-1.1c.09-.32.18-.66.29-1l.29-1L981,48.59h7.29l2.7,8.83a7.71,7.71,0,0,0,.25.85c.1.31.2.61.29.9a5.56,5.56,0,0,1,.27,1c.09-.29.18-.6.27-.92.15-.59.32-1.14.5-1.67l2.65-9h6.3Z"/><path class="cls-2" d="M1018.74,68.39V57.2a5.85,5.85,0,0,0-.21-1.74,2.25,2.25,0,0,0-.57-1,1.72,1.72,0,0,0-.83-.46,4.28,4.28,0,0,0-1-.11,2.72,2.72,0,0,0-1.5.46,4.58,4.58,0,0,0-1.26,1.23,6.78,6.78,0,0,0-.9,1.85,7.17,7.17,0,0,0-.34,2.23v8.72h-6V37.57h6V50.84a6.7,6.7,0,0,1,2.48-1.73,8.17,8.17,0,0,1,3-.52,9.8,9.8,0,0,1,2.59.35,6.47,6.47,0,0,1,2.26,1.12,5.52,5.52,0,0,1,1.62,2,6.92,6.92,0,0,1,.62,3.11V68.39Z"/><path class="cls-2" d="M1038.94,43.15a2.48,2.48,0,0,1-1,2,4.17,4.17,0,0,1-5,0,2.64,2.64,0,0,1-1.08-2.06,2.38,2.38,0,0,1,1-2.06,4,4,0,0,1,2.6-.84,4,4,0,0,1,1.33.22,3.85,3.85,0,0,1,1.13.63,3.23,3.23,0,0,1,.76,1A2.4,2.4,0,0,1,1038.94,43.15Zm-6.75,25.24V48.59h6v19.8Z"/><path class="cls-2" d="M1045,68.39V37h6V68.39Z"/><path class="cls-2" d="M1075.17,54a5.13,5.13,0,0,1-.8,2.79,6.63,6.63,0,0,1-2.26,2.13,12.29,12.29,0,0,1-3.5,1.38,19.64,19.64,0,0,1-4.59.49l-.54,0c-.21,0-.45,0-.73,0a4.15,4.15,0,0,0,1.35,2.67,4.25,4.25,0,0,0,2.91,1,13.34,13.34,0,0,0,6.63-2v4.72a13.24,13.24,0,0,1-3.26,1.42,14,14,0,0,1-3.54.43,11.66,11.66,0,0,1-4.07-.68,8.26,8.26,0,0,1-3.08-2,8.65,8.65,0,0,1-1.94-3.06,11.22,11.22,0,0,1-.67-4,12.46,12.46,0,0,1,.79-4.53,10.55,10.55,0,0,1,2.2-3.53,9.77,9.77,0,0,1,3.4-2.29,11.4,11.4,0,0,1,4.36-.81,8.26,8.26,0,0,1,5.34,1.62A5.29,5.29,0,0,1,1075.17,54Zm-6,.45a1.56,1.56,0,0,0-.61-1.24,2.32,2.32,0,0,0-1.56-.52,3.51,3.51,0,0,0-2.56,1.06,5,5,0,0,0-1.39,2.9,3.87,3.87,0,0,0,.72.09h.67Q1069.17,56.78,1069.18,54.49Z"/><path class="cls-2" d="M333.67,122.39V106.87h-4v-4.28h4v-5h5.9v5h5.08v4.28h-5.08v15.52Z"/><path class="cls-2" d="M361.8,108.13q-.63-.13-1-.18a6.51,6.51,0,0,0-.81,0,4.57,4.57,0,0,0-3.89,1.76,8.56,8.56,0,0,0-1.33,5.23v7.5h-6v-13c0-.73,0-1.37,0-1.91s0-1-.11-1.52a13.05,13.05,0,0,0-.25-1.39c-.1-.45-.25-1-.43-1.56h5.69c.09.37.17.68.25.94a4.49,4.49,0,0,1,.16.74c0,.23.06.48.09.74a6.56,6.56,0,0,1,.05.95,10,10,0,0,1,2.56-2.93,4.85,4.85,0,0,1,2.86-.86,4,4,0,0,1,1.06.12,9.74,9.74,0,0,1,1.19.43Z"/><path class="cls-2" d="M378.4,122.39c0-.21,0-.46,0-.76s-.05-.53-.07-.86,0-.67-.07-1a7,7,0,0,1-2.93,2.31,9.38,9.38,0,0,1-3.83.79,7.1,7.1,0,0,1-5.75-2.43q-2.06-2.43-2.06-6.93c0-3.63,1.11-6.43,3.31-8.39s5.35-3,9.42-3c.67,0,1.28,0,1.83,0s1.09.08,1.64.15,1.11.18,1.69.3,1.21.28,1.91.49v12.78c0,.69,0,1.42.05,2.18s.07,1.47.13,2.1.12,1.48.18,2.2Zm-.94-14.67a9.15,9.15,0,0,0-1.42-.22c-.43,0-.83,0-1.19,0a4.8,4.8,0,0,0-3.85,1.6,6.6,6.6,0,0,0-1.37,4.43,4.4,4.4,0,0,0,.82,2.88,2.88,2.88,0,0,0,2.34,1,4.16,4.16,0,0,0,1.81-.4,4.56,4.56,0,0,0,1.48-1.15,5.44,5.44,0,0,0,1-1.76,6.47,6.47,0,0,0,.37-2.27Z"/><path class="cls-2" d="M401.17,119.46c-.24.52-.46,1-.67,1.35a3.27,3.27,0,0,1-.72.92,2.39,2.39,0,0,1-.92.51,4.76,4.76,0,0,1-1.29.15,3.47,3.47,0,0,1-2.09-.57,4.81,4.81,0,0,1-1.42-2.15L387,102.59h6.21l3.33,9.11c.24.64.46,1.26.65,1.84a14.24,14.24,0,0,1,.43,1.49c.15-.41.34-.91.58-1.51s.48-1.19.72-1.77l3.56-9.16h6.16Z"/><path class="cls-2" d="M429.48,108a5.13,5.13,0,0,1-.8,2.79,6.72,6.72,0,0,1-2.26,2.13,12.29,12.29,0,0,1-3.5,1.38,19.64,19.64,0,0,1-4.59.49l-.54,0c-.21,0-.45,0-.73,0a4.15,4.15,0,0,0,1.35,2.67,4.25,4.25,0,0,0,2.91,1,13.34,13.34,0,0,0,6.63-2v4.72a13.14,13.14,0,0,1-3.27,1.42,13.82,13.82,0,0,1-3.53.43,11.62,11.62,0,0,1-4.07-.68,8.26,8.26,0,0,1-3.08-2,8.65,8.65,0,0,1-1.94-3.06,11.22,11.22,0,0,1-.67-4,12.67,12.67,0,0,1,.78-4.53,10.57,10.57,0,0,1,2.21-3.53,9.77,9.77,0,0,1,3.4-2.29,11.4,11.4,0,0,1,4.36-.81,8.26,8.26,0,0,1,5.34,1.62A5.29,5.29,0,0,1,429.48,108Zm-6,.45a1.56,1.56,0,0,0-.61-1.24,2.33,2.33,0,0,0-1.56-.52,3.55,3.55,0,0,0-2.57,1.06,5,5,0,0,0-1.38,2.9,3.87,3.87,0,0,0,.72.09h.66Q423.49,110.78,423.49,108.49Z"/><path class="cls-2" d="M434.43,122.39V91h6v31.36Z"/><path class="cls-2" d="M447.43,122.39V91h6v31.36Z"/><path class="cls-2" d="M467.37,97.15a2.49,2.49,0,0,1-1,2,3.83,3.83,0,0,1-2.47.82,3.87,3.87,0,0,1-2.52-.84,2.7,2.7,0,0,1-1.08-2.06,2.43,2.43,0,0,1,1-2.06,4,4,0,0,1,2.61-.84,3.75,3.75,0,0,1,1.32.23,3.45,3.45,0,0,1,1.13.63,3.07,3.07,0,0,1,.76.95A2.42,2.42,0,0,1,467.37,97.15Zm-6.75,25.24v-19.8h6v19.8Z"/><path class="cls-2" d="M486.17,122.39V111.15a4.49,4.49,0,0,0-.29-1.82,2.47,2.47,0,0,0-.69-1,1.72,1.72,0,0,0-.86-.39,4.74,4.74,0,0,0-.76-.07,4.87,4.87,0,0,0-.95.17,3.22,3.22,0,0,0-1.37.83,5.49,5.49,0,0,0-1.24,1.91,8.71,8.71,0,0,0-.54,3.38v8.2h-6V109.3a22.35,22.35,0,0,0-.27-3.41,11.53,11.53,0,0,0-.72-2.76h6a7.78,7.78,0,0,1,.38,1,11.57,11.57,0,0,1,.25,1.17,9.33,9.33,0,0,1,3.09-2.07,8.87,8.87,0,0,1,3.35-.68,6.53,6.53,0,0,1,2.62.53,6.2,6.2,0,0,1,2.09,1.46,6.66,6.66,0,0,1,1.39,2.33,8.8,8.8,0,0,1,.51,3.08v12.4Z"/><path class="cls-2" d="M518.31,123a21.16,21.16,0,0,1-.76,6.1,10.78,10.78,0,0,1-2.07,3.94,7.39,7.39,0,0,1-3.1,2.13,11.16,11.16,0,0,1-3.9.66,34.42,34.42,0,0,1-4-.25,14.74,14.74,0,0,1-3.79-1v-4.54a24.23,24.23,0,0,0,3.45,1,14.62,14.62,0,0,0,2.9.34,5.08,5.08,0,0,0,2.15-.45,4.25,4.25,0,0,0,1.68-1.44,7.33,7.33,0,0,0,1.08-2.61,16.91,16.91,0,0,0,.39-3.91v-2a6.69,6.69,0,0,1-2.57,1.5,10.17,10.17,0,0,1-2.78.34,8.75,8.75,0,0,1-3.51-.67,7.58,7.58,0,0,1-2.68-1.89,8.42,8.42,0,0,1-1.71-3,11.47,11.47,0,0,1-.61-3.85,11.27,11.27,0,0,1,.94-4.7,10,10,0,0,1,2.66-3.58,12,12,0,0,1,4.2-2.27,18.1,18.1,0,0,1,5.57-.79l1.68,0q.74,0,1.44.12c.47.06,1,.14,1.51.24s1.15.25,1.85.43Zm-6-15-1.18-.18a9.75,9.75,0,0,0-1,0,5.68,5.68,0,0,0-4.15,1.46,5.36,5.36,0,0,0-1.5,4,3.82,3.82,0,0,0,1,2.83,3.37,3.37,0,0,0,2.48,1,7.18,7.18,0,0,0,1.62-.18,2.81,2.81,0,0,0,1.41-.81,4.42,4.42,0,0,0,1-1.82,11.15,11.15,0,0,0,.37-3.22Z"/><path class="cls-2" d="M558.67,111.06a13.28,13.28,0,0,1-.78,4.66,10,10,0,0,1-2.22,3.57,10.2,10.2,0,0,1-3.47,2.29,12.09,12.09,0,0,1-4.52.81,23.24,23.24,0,0,1-4.49-.47,21.29,21.29,0,0,1-4.23-1.27V91.53h6v13.36a7.09,7.09,0,0,1,2.57-1.72,8.77,8.77,0,0,1,3.27-.58,8.43,8.43,0,0,1,3.22.6,7,7,0,0,1,2.5,1.71,7.76,7.76,0,0,1,1.6,2.67A10.14,10.14,0,0,1,558.67,111.06Zm-6,1.08a4,4,0,0,0-.9-2.75,3.29,3.29,0,0,0-2.55-1,4.36,4.36,0,0,0-1.81.36,4.29,4.29,0,0,0-1.37,1,4.17,4.17,0,0,0-.86,1.45,5.12,5.12,0,0,0-.29,1.71v3.42a5.56,5.56,0,0,0,1.41.53A9,9,0,0,0,548,117a4.67,4.67,0,0,0,3.47-1.28A4.89,4.89,0,0,0,552.68,112.14Z"/><path class="cls-2" d="M581.53,128.86a9.87,9.87,0,0,1-2,4.14,7.09,7.09,0,0,1-3.41,2.18,17.72,17.72,0,0,1-5,.62,14.91,14.91,0,0,1-2.89-.29,31,31,0,0,1-3-.79v-4.49c1,.08,1.93.14,2.82.19s1.77.07,2.64.07a6.52,6.52,0,0,0,2.42-.41,3.74,3.74,0,0,0,1.67-1.37,6.63,6.63,0,0,0,1-2.5,21.45,21.45,0,0,0,.29-3.82V120a7.73,7.73,0,0,1-5.62,2.43,6.52,6.52,0,0,1-2.59-.53,6,6,0,0,1-2.14-1.52,7.6,7.6,0,0,1-1.44-2.37,8.63,8.63,0,0,1-.54-3.15c0-1,0-2.07,0-3s0-1.94,0-2.91,0-2,0-3-.07-2.13-.16-3.3h6c.09,1.19.15,2.3.16,3.32s0,2,0,2.88,0,1.77,0,2.6,0,1.65,0,2.46a3.74,3.74,0,0,0,.67,2.47,2.39,2.39,0,0,0,1.91.76,3.63,3.63,0,0,0,2.76-1.24,4.77,4.77,0,0,0,1.14-3.34v-9.91h6v19.8A27.88,27.88,0,0,1,581.53,128.86Z"/><path class="cls-2" d="M617.3,116.9a5.67,5.67,0,0,1-1.9,4.5,7.89,7.89,0,0,1-5.36,1.67,22.49,22.49,0,0,1-4.57-.45,13.38,13.38,0,0,1-3.6-1.22l.76-4.59a15.37,15.37,0,0,0,6.84,2,2,2,0,0,0,1.42-.43,1.33,1.33,0,0,0,.43-1,1.68,1.68,0,0,0-.34-1.1,5,5,0,0,0-1.64-1.06,26.44,26.44,0,0,1-3.17-1.62A10.08,10.08,0,0,1,604,112a5.49,5.49,0,0,1-1.22-1.86,6.32,6.32,0,0,1-.38-2.25,5.07,5.07,0,0,1,2.17-4.39,9.55,9.55,0,0,1,5.69-1.55,17.06,17.06,0,0,1,3.35.29,15.23,15.23,0,0,1,3.36,1.15l-.72,4.54a10.82,10.82,0,0,0-3.09-1.24,14.2,14.2,0,0,0-3-.33,2,2,0,0,0-1.43.38,1.34,1.34,0,0,0-.39,1A1.5,1.5,0,0,0,609,109a12.88,12.88,0,0,0,2.4,1.24,26.55,26.55,0,0,1,2.73,1.55,9.39,9.39,0,0,1,1.84,1.53,4.73,4.73,0,0,1,1,1.66A6.06,6.06,0,0,1,617.3,116.9Z"/><path class="cls-2" d="M635.24,122a13.87,13.87,0,0,1-3.22.36,10.77,10.77,0,0,1-4-.71,9.63,9.63,0,0,1-3.13-2,8.35,8.35,0,0,1-2-3,10.24,10.24,0,0,1-.72-3.91,12.4,12.4,0,0,1,.66-4.12,8.49,8.49,0,0,1,2-3.24,9.09,9.09,0,0,1,3.29-2.11,12.73,12.73,0,0,1,4.57-.75,10.56,10.56,0,0,1,3.44.47,13.07,13.07,0,0,1,2.23,1l-1,5.17-1.15-.56a7.63,7.63,0,0,0-.89-.41,4.56,4.56,0,0,0-1-.22,8.84,8.84,0,0,0-1.24-.07,4.64,4.64,0,0,0-3.46,1.23,4.51,4.51,0,0,0-1.22,3.32,4.38,4.38,0,0,0,1.26,3.33,5.06,5.06,0,0,0,3.65,1.21,10,10,0,0,0,2.34-.27A13.55,13.55,0,0,0,638,116l.41,4.89A15.79,15.79,0,0,1,635.24,122Z"/><path class="cls-2" d="M655.82,122.39V111.2a6.25,6.25,0,0,0-.2-1.74,2.36,2.36,0,0,0-.58-1,1.74,1.74,0,0,0-.83-.45,4.21,4.21,0,0,0-1-.11,2.66,2.66,0,0,0-1.49.46,4.48,4.48,0,0,0-1.27,1.23,7.07,7.07,0,0,0-.89,1.85,7.18,7.18,0,0,0-.35,2.23v8.72h-6V91.57h5.94v13.27a6.78,6.78,0,0,1,2.48-1.73,8.21,8.21,0,0,1,3-.52,9.75,9.75,0,0,1,2.59.35,6.52,6.52,0,0,1,2.27,1.12,5.78,5.78,0,0,1,1.62,2,7.14,7.14,0,0,1,.62,3.12v13.18Z"/><path class="cls-2" d="M688.72,112.43a11.45,11.45,0,0,1-.74,4.26,8.54,8.54,0,0,1-2.11,3.11,8.92,8.92,0,0,1-3.27,1.93,13.92,13.92,0,0,1-8.47,0,8.92,8.92,0,0,1-3.27-1.93,8.71,8.71,0,0,1-2.13-3.11,11.24,11.24,0,0,1-.76-4.26,11.06,11.06,0,0,1,.74-4.16,8.69,8.69,0,0,1,2.08-3.09,8.86,8.86,0,0,1,3.28-1.93,14.32,14.32,0,0,1,8.53,0,9,9,0,0,1,3.27,1.88,8.5,8.5,0,0,1,2.11,3.1A11.31,11.31,0,0,1,688.72,112.43Zm-6,0a4.47,4.47,0,0,0-1.21-3.34,4.42,4.42,0,0,0-3.25-1.19,4.18,4.18,0,0,0-3.2,1.19,4.73,4.73,0,0,0-1.11,3.34,5,5,0,0,0,1.09,3.44,4.09,4.09,0,0,0,3.22,1.21,4.4,4.4,0,0,0,3.3-1.19A4.79,4.79,0,0,0,682.73,112.43Z"/><path class="cls-2" d="M714.14,112.43a11.45,11.45,0,0,1-.74,4.26,8.39,8.39,0,0,1-2.1,3.11,9.09,9.09,0,0,1-3.27,1.93,13.92,13.92,0,0,1-8.47,0,8.92,8.92,0,0,1-3.27-1.93,8.71,8.71,0,0,1-2.13-3.11,11.05,11.05,0,0,1-.76-4.26,10.87,10.87,0,0,1,.74-4.16,8.56,8.56,0,0,1,2.08-3.09,8.82,8.82,0,0,1,3.27-1.93,14.35,14.35,0,0,1,8.54,0,9.13,9.13,0,0,1,3.27,1.88,8.35,8.35,0,0,1,2.1,3.1A11.31,11.31,0,0,1,714.14,112.43Zm-6,0a4.51,4.51,0,0,0-1.21-3.34,4.45,4.45,0,0,0-3.25-1.19,4.18,4.18,0,0,0-3.2,1.19,4.69,4.69,0,0,0-1.12,3.34,5,5,0,0,0,1.09,3.44,4.13,4.13,0,0,0,3.23,1.21,4.43,4.43,0,0,0,3.3-1.19A4.79,4.79,0,0,0,708.16,112.43Z"/><path class="cls-2" d="M720,122.39V91h6v31.36Z"/><path class="cls-2" d="M766.79,111.06a13.28,13.28,0,0,1-.78,4.66,9.77,9.77,0,0,1-5.69,5.86,12.09,12.09,0,0,1-4.52.81,23.24,23.24,0,0,1-4.49-.47,21.29,21.29,0,0,1-4.23-1.27V91.53h6v13.36a7.09,7.09,0,0,1,2.57-1.72,8.77,8.77,0,0,1,3.27-.58,8.43,8.43,0,0,1,3.22.6,7,7,0,0,1,2.5,1.71,7.76,7.76,0,0,1,1.6,2.67A10.14,10.14,0,0,1,766.79,111.06Zm-6,1.08a4,4,0,0,0-.9-2.75,3.29,3.29,0,0,0-2.55-1,4.36,4.36,0,0,0-1.81.36,4.29,4.29,0,0,0-1.37,1,4.17,4.17,0,0,0-.86,1.45,5.12,5.12,0,0,0-.29,1.71v3.42a5.56,5.56,0,0,0,1.41.53,9,9,0,0,0,1.64.12,4.65,4.65,0,0,0,3.47-1.28A4.89,4.89,0,0,0,760.8,112.14Z"/><path class="cls-2" d="M785.87,121.85a7.73,7.73,0,0,1-.38-1,11.57,11.57,0,0,1-.25-1.17,8.82,8.82,0,0,1-6.35,2.74,6.41,6.41,0,0,1-2.67-.55,6.58,6.58,0,0,1-2.16-1.51,6.42,6.42,0,0,1-1.42-2.32,8.73,8.73,0,0,1-.5-3q0-1.84.09-3.42c.06-1,.11-2.06.14-3s0-1.93,0-2.89-.11-2-.23-3.07h6c.09,1,.14,1.93.16,2.84s0,1.82,0,2.71,0,1.81-.09,2.74-.07,1.91-.07,3a4.84,4.84,0,0,0,.28,1.84,2.18,2.18,0,0,0,.73,1,2.22,2.22,0,0,0,.91.37,6.43,6.43,0,0,0,.8.06,4.82,4.82,0,0,0,1-.17,3.19,3.19,0,0,0,1.36-.83,5.45,5.45,0,0,0,1.19-1.91,8.91,8.91,0,0,0,.52-3.38v-8.2h6v13.09a22.25,22.25,0,0,0,.27,3.41,11.08,11.08,0,0,0,.72,2.76Z"/><path class="cls-2" d="M812.51,116.9a5.68,5.68,0,0,1-1.91,4.5,7.89,7.89,0,0,1-5.36,1.67,22.49,22.49,0,0,1-4.57-.45,13.63,13.63,0,0,1-3.6-1.22l.77-4.59a15.37,15.37,0,0,0,6.84,2,2,2,0,0,0,1.42-.43,1.36,1.36,0,0,0,.42-1,1.74,1.74,0,0,0-.33-1.1,5.18,5.18,0,0,0-1.65-1.06,26.44,26.44,0,0,1-3.17-1.62,10.6,10.6,0,0,1-2.16-1.69,5.61,5.61,0,0,1-1.21-1.86,6.1,6.1,0,0,1-.39-2.25,5.08,5.08,0,0,1,2.18-4.39,9.52,9.52,0,0,1,5.68-1.55,17.17,17.17,0,0,1,3.36.29,15.23,15.23,0,0,1,3.36,1.15l-.72,4.54a10.87,10.87,0,0,0-3.1-1.24,14.11,14.11,0,0,0-3-.33,2,2,0,0,0-1.43.38,1.34,1.34,0,0,0-.39,1,1.48,1.48,0,0,0,.62,1.24,13,13,0,0,0,2.39,1.24,26.55,26.55,0,0,1,2.73,1.55,9.48,9.48,0,0,1,1.85,1.53,4.85,4.85,0,0,1,1,1.66A5.8,5.8,0,0,1,812.51,116.9Z"/><path class="cls-2" d="M825.24,119.62a2.4,2.4,0,0,1-1,2,3.89,3.89,0,0,1-2.49.8,3.81,3.81,0,0,1-2.5-.85,2.6,2.6,0,0,1-.07-4.12,3.53,3.53,0,0,1,2.39-.83,3.93,3.93,0,0,1,2.62.89A2.68,2.68,0,0,1,825.24,119.62Z"/></svg>