<svg id="Layer_1" data-name="Layer 1" xmlns="http://www.w3.org/2000/svg" viewBox="0 0 1156.67 169.53"><defs><style>.cls-1{fill:#3172c2;stroke:#fff;stroke-miterlimit:10;stroke-width:2px;}.cls-2{fill:#fff;}</style></defs><rect class="cls-1" x="116.18" y="15.52" width="924.3" height="138.49" rx="39.07"/><path class="cls-2" d="M211.75,70.14,200.32,55.61V70.14h-7.16V38.73h7.16V52.5L210.8,38.73H219l-11.7,14.72,13.5,16.69Z"/><path class="cls-2" d="M239.78,55.79a5,5,0,0,1-.8,2.79,6.6,6.6,0,0,1-2.25,2.13,12.48,12.48,0,0,1-3.51,1.38,19.52,19.52,0,0,1-4.59.49l-.54,0c-.2,0-.45,0-.73,0a4.15,4.15,0,0,0,1.35,2.67,4.26,4.26,0,0,0,2.92,1,13.28,13.28,0,0,0,6.62-2v4.72A13.24,13.24,0,0,1,235,70.3a13.88,13.88,0,0,1-3.53.43,11.62,11.62,0,0,1-4.07-.68,8.22,8.22,0,0,1-3.09-2A8.63,8.63,0,0,1,222.37,65a11.22,11.22,0,0,1-.68-4,12.67,12.67,0,0,1,.79-4.53A10.41,10.41,0,0,1,224.69,53a9.64,9.64,0,0,1,3.39-2.29,11.45,11.45,0,0,1,4.37-.81,8.21,8.21,0,0,1,5.33,1.62A5.26,5.26,0,0,1,239.78,55.79Zm-6,.45a1.57,1.57,0,0,0-.62-1.24,2.31,2.31,0,0,0-1.55-.52,3.54,3.54,0,0,0-2.57,1.06,5,5,0,0,0-1.38,2.9,3.69,3.69,0,0,0,.71.09h.67Q233.8,58.53,233.8,56.24Z"/><path class="cls-2" d="M261.88,55.79a5.13,5.13,0,0,1-.8,2.79,6.72,6.72,0,0,1-2.26,2.13,12.25,12.25,0,0,1-3.51,1.38,19.49,19.49,0,0,1-4.58.49l-.54,0c-.21,0-.45,0-.73,0a4.15,4.15,0,0,0,1.35,2.67,4.25,4.25,0,0,0,2.91,1,13.34,13.34,0,0,0,6.63-2v4.72a13.24,13.24,0,0,1-3.26,1.42,14,14,0,0,1-3.54.43,11.66,11.66,0,0,1-4.07-.68,8.26,8.26,0,0,1-3.08-2A8.65,8.65,0,0,1,244.46,65a11.22,11.22,0,0,1-.67-4,12.46,12.46,0,0,1,.79-4.53,10.55,10.55,0,0,1,2.2-3.53,9.77,9.77,0,0,1,3.4-2.29,11.4,11.4,0,0,1,4.36-.81,8.26,8.26,0,0,1,5.34,1.62A5.29,5.29,0,0,1,261.88,55.79Zm-6,.45a1.56,1.56,0,0,0-.61-1.24,2.33,2.33,0,0,0-1.56-.52,3.55,3.55,0,0,0-2.57,1.06,5,5,0,0,0-1.38,2.9,3.87,3.87,0,0,0,.72.09h.66Q255.89,58.53,255.89,56.24Z"/><path class="cls-2" d="M286.4,59.07a15.1,15.1,0,0,1-.63,4.5,10.78,10.78,0,0,1-1.77,3.5,8.1,8.1,0,0,1-2.73,2.27,7.69,7.69,0,0,1-3.49.8,7.57,7.57,0,0,1-2.37-.31,7.09,7.09,0,0,1-2-1.16V83.55h-6.3V56.27a10.16,10.16,0,0,0-.07-1.14c0-.45-.11-.91-.18-1.4s-.16-1-.27-1.46a11.23,11.23,0,0,0-.38-1.34h6.1a6.18,6.18,0,0,1,.33.87,11.36,11.36,0,0,1,.18,1.24A9.62,9.62,0,0,1,275.53,51a7.12,7.12,0,0,1,3.1-.63,7.77,7.77,0,0,1,3.17.63,7.1,7.1,0,0,1,2.45,1.77,8.18,8.18,0,0,1,1.59,2.77A10.94,10.94,0,0,1,286.4,59.07Zm-6,1a4.26,4.26,0,0,0-.9-2.89,3.07,3.07,0,0,0-2.46-1,3.55,3.55,0,0,0-2.91,1.32A5.51,5.51,0,0,0,273.08,61v2.6a4.77,4.77,0,0,0,3.19,1.2,3.83,3.83,0,0,0,3-1.26A5.08,5.08,0,0,0,280.42,60.07Z"/><path class="cls-2" d="M324.2,76.61a9.75,9.75,0,0,1-2,4.14,7,7,0,0,1-3.41,2.18,17.7,17.7,0,0,1-5,.62,15,15,0,0,1-2.9-.29c-1-.2-2-.46-3-.79V78c1,.08,1.94.14,2.82.19s1.77.07,2.65.07a6.5,6.5,0,0,0,2.41-.41,3.69,3.69,0,0,0,1.67-1.37,6.47,6.47,0,0,0,.95-2.5,21.45,21.45,0,0,0,.29-3.82V67.71a7.71,7.71,0,0,1-5.62,2.43,6.39,6.39,0,0,1-2.59-.53,5.9,5.9,0,0,1-2.14-1.52,7.6,7.6,0,0,1-1.44-2.37,8.6,8.6,0,0,1-.54-3.15c0-1,0-2.06.05-3s0-1.94,0-2.91,0-2,0-3-.07-2.13-.16-3.3h6c.09,1.19.14,2.3.15,3.32s0,2,0,2.88,0,1.77,0,2.6,0,1.65,0,2.46a3.74,3.74,0,0,0,.66,2.47,2.4,2.4,0,0,0,1.91.76,3.63,3.63,0,0,0,2.76-1.24,4.77,4.77,0,0,0,1.15-3.34V50.34h6v19.8A27.88,27.88,0,0,1,324.2,76.61Z"/><path class="cls-2" d="M351.38,60.18a11.45,11.45,0,0,1-.74,4.26,8.39,8.39,0,0,1-2.1,3.11,8.92,8.92,0,0,1-3.27,1.93,13.92,13.92,0,0,1-8.47,0,8.92,8.92,0,0,1-3.27-1.93,8.71,8.71,0,0,1-2.13-3.11,11.05,11.05,0,0,1-.76-4.26,10.87,10.87,0,0,1,.74-4.16,8.56,8.56,0,0,1,2.08-3.09A8.9,8.9,0,0,1,336.73,51a14.35,14.35,0,0,1,8.54,0,9,9,0,0,1,3.27,1.88,8.35,8.35,0,0,1,2.1,3.1A11.31,11.31,0,0,1,351.38,60.18Zm-6,0a4.51,4.51,0,0,0-1.21-3.34,4.45,4.45,0,0,0-3.25-1.19,4.18,4.18,0,0,0-3.2,1.19,4.69,4.69,0,0,0-1.12,3.34,5,5,0,0,0,1.09,3.44,4.13,4.13,0,0,0,3.23,1.21,4.43,4.43,0,0,0,3.3-1.19A4.79,4.79,0,0,0,345.4,60.18Z"/><path class="cls-2" d="M370.6,69.6a9.87,9.87,0,0,1-.39-1q-.1-.41-.24-1.17a8.82,8.82,0,0,1-6.35,2.74,6.49,6.49,0,0,1-2.68-.55,6.79,6.79,0,0,1-2.16-1.51,6.54,6.54,0,0,1-1.41-2.32,8.73,8.73,0,0,1-.5-3q0-1.85.09-3.42c.06-1,.11-2.06.14-3s0-1.93,0-2.89-.11-2-.23-3.07h6c.09,1,.14,1.93.15,2.84s0,1.82,0,2.71,0,1.81-.09,2.74-.06,1.91-.06,2.95a4.84,4.84,0,0,0,.28,1.84,2.17,2.17,0,0,0,.72,1,2.32,2.32,0,0,0,.92.37,6.43,6.43,0,0,0,.8.06,5.06,5.06,0,0,0,1-.17,3.1,3.1,0,0,0,1.35-.83,5.32,5.32,0,0,0,1.2-1.91,9.11,9.11,0,0,0,.52-3.38v-8.2h6V63.43a22.25,22.25,0,0,0,.27,3.41,11.08,11.08,0,0,0,.72,2.76Z"/><path class="cls-2" d="M396.52,55.88q-.63-.14-1-.18a6.51,6.51,0,0,0-.81-.05,4.6,4.6,0,0,0-3.9,1.76,8.63,8.63,0,0,0-1.32,5.23v7.5h-6v-13c0-.73,0-1.37,0-1.91s-.05-1-.11-1.52-.15-.93-.25-1.39-.25-1-.43-1.56h5.68c.09.37.18.68.26.94a5.83,5.83,0,0,1,.16.74c0,.23.06.48.09.74a8.39,8.39,0,0,1,.05,1,10.05,10.05,0,0,1,2.56-2.94,5,5,0,0,1,2.86-.85,3.89,3.89,0,0,1,1.05.12,9.21,9.21,0,0,1,1.2.43Z"/><path class="cls-2" d="M434.27,58.81a13.28,13.28,0,0,1-.78,4.66,9.77,9.77,0,0,1-5.69,5.86,12.09,12.09,0,0,1-4.52.81,23.24,23.24,0,0,1-4.49-.47,21.29,21.29,0,0,1-4.23-1.27V39.28h6V52.64a7.18,7.18,0,0,1,2.57-1.72,8.77,8.77,0,0,1,3.27-.58,8.43,8.43,0,0,1,3.22.6,7,7,0,0,1,2.5,1.71,7.76,7.76,0,0,1,1.6,2.67A10.14,10.14,0,0,1,434.27,58.81Zm-6,1.08a4,4,0,0,0-.91-2.75,3.28,3.28,0,0,0-2.54-1,4.38,4.38,0,0,0-1.82.36,4.29,4.29,0,0,0-1.37,1,4.17,4.17,0,0,0-.86,1.45,5.12,5.12,0,0,0-.29,1.71v3.42a5.48,5.48,0,0,0,1.42.53,8.83,8.83,0,0,0,1.63.12A4.65,4.65,0,0,0,427,63.46,4.9,4.9,0,0,0,428.29,59.89Z"/><path class="cls-2" d="M459.56,60.18a11.45,11.45,0,0,1-.74,4.26,8.3,8.3,0,0,1-2.11,3.11,8.92,8.92,0,0,1-3.27,1.93,13.92,13.92,0,0,1-8.47,0,9.09,9.09,0,0,1-3.27-1.93,8.56,8.56,0,0,1-2.12-3.11,12.12,12.12,0,0,1,0-8.42,8.57,8.57,0,0,1,5.36-5,14.32,14.32,0,0,1,8.53,0,9,9,0,0,1,3.27,1.88,8.26,8.26,0,0,1,2.11,3.1A11.31,11.31,0,0,1,459.56,60.18Zm-6,0a4.51,4.51,0,0,0-1.2-3.34,4.45,4.45,0,0,0-3.25-1.19,4.2,4.2,0,0,0-3.21,1.19,4.73,4.73,0,0,0-1.11,3.34,5,5,0,0,0,1.09,3.44,4.11,4.11,0,0,0,3.23,1.21,4.39,4.39,0,0,0,3.29-1.19A4.75,4.75,0,0,0,453.57,60.18Z"/><path class="cls-2" d="M485,60.18a11.25,11.25,0,0,1-.74,4.26,8.39,8.39,0,0,1-2.1,3.11,8.92,8.92,0,0,1-3.27,1.93,13.92,13.92,0,0,1-8.47,0,8.92,8.92,0,0,1-3.27-1.93A8.71,8.71,0,0,1,465,64.44a11.05,11.05,0,0,1-.76-4.26A10.87,10.87,0,0,1,465,56a8.69,8.69,0,0,1,2.08-3.09A8.9,8.9,0,0,1,470.33,51a14.35,14.35,0,0,1,8.54,0,9,9,0,0,1,3.27,1.88,8.35,8.35,0,0,1,2.1,3.1A11.11,11.11,0,0,1,485,60.18Zm-6,0a4.15,4.15,0,0,0-4.46-4.53,4.18,4.18,0,0,0-3.2,1.19,4.69,4.69,0,0,0-1.12,3.34,5,5,0,0,0,1.09,3.44,4.13,4.13,0,0,0,3.23,1.21,4.43,4.43,0,0,0,3.3-1.19A4.79,4.79,0,0,0,479,60.18Z"/><path class="cls-2" d="M502.58,58.44l9.58,11.7h-7.92l-7.47-9.76v9.76h-6V38.78h6V56.87l7.29-6.53h8.6Z"/><path class="cls-2" d="M531.56,64.65a5.68,5.68,0,0,1-1.91,4.5,7.89,7.89,0,0,1-5.36,1.67,22.49,22.49,0,0,1-4.57-.45,13.63,13.63,0,0,1-3.6-1.22l.77-4.59a15.37,15.37,0,0,0,6.84,2,2,2,0,0,0,1.42-.43,1.36,1.36,0,0,0,.42-1,1.74,1.74,0,0,0-.33-1.1A5.18,5.18,0,0,0,523.59,63a27.22,27.22,0,0,1-3.17-1.62,10.6,10.6,0,0,1-2.16-1.69,5.61,5.61,0,0,1-1.21-1.86,6.1,6.1,0,0,1-.39-2.25,5.08,5.08,0,0,1,2.18-4.39,9.52,9.52,0,0,1,5.68-1.55,17.17,17.17,0,0,1,3.36.29,15.23,15.23,0,0,1,3.36,1.15l-.72,4.54a10.76,10.76,0,0,0-3.1-1.24,14.11,14.11,0,0,0-2.95-.33,2,2,0,0,0-1.43.38,1.34,1.34,0,0,0-.39,1,1.48,1.48,0,0,0,.62,1.24A13,13,0,0,0,525.66,58a26.55,26.55,0,0,1,2.73,1.55A9.19,9.19,0,0,1,530.24,61a4.85,4.85,0,0,1,1,1.66A5.8,5.8,0,0,1,531.56,64.65Z"/><path class="cls-2" d="M564.05,70.14V58.9a4.47,4.47,0,0,0-.3-1.82,2.47,2.47,0,0,0-.69-1,1.72,1.72,0,0,0-.86-.39,4.64,4.64,0,0,0-.76-.07,4.87,4.87,0,0,0-1,.17,3.32,3.32,0,0,0-1.37.83,5.49,5.49,0,0,0-1.24,1.91,8.71,8.71,0,0,0-.54,3.38v8.2h-6V57.05a22.35,22.35,0,0,0-.27-3.41,11.08,11.08,0,0,0-.72-2.76h6a7.78,7.78,0,0,1,.38,1,11.57,11.57,0,0,1,.25,1.17A9.33,9.33,0,0,1,560.07,51a8.87,8.87,0,0,1,3.35-.68,6.53,6.53,0,0,1,2.62.53,6.34,6.34,0,0,1,2.1,1.46,6.8,6.8,0,0,1,1.38,2.33,8.8,8.8,0,0,1,.51,3.08v12.4Z"/><path class="cls-2" d="M594.47,55.79a5.13,5.13,0,0,1-.8,2.79,6.72,6.72,0,0,1-2.26,2.13,12.25,12.25,0,0,1-3.51,1.38,19.49,19.49,0,0,1-4.58.49l-.54,0c-.21,0-.45,0-.73,0a4.06,4.06,0,0,0,1.35,2.67,4.25,4.25,0,0,0,2.91,1,13.34,13.34,0,0,0,6.63-2v4.72a13.14,13.14,0,0,1-3.27,1.42,13.82,13.82,0,0,1-3.53.43,11.62,11.62,0,0,1-4.07-.68,8.18,8.18,0,0,1-3.08-2A8.65,8.65,0,0,1,577.05,65a11.22,11.22,0,0,1-.67-4,12.67,12.67,0,0,1,.78-4.53A10.57,10.57,0,0,1,579.37,53a9.68,9.68,0,0,1,3.4-2.29,11.4,11.4,0,0,1,4.36-.81,8.21,8.21,0,0,1,5.33,1.62A5.27,5.27,0,0,1,594.47,55.79Zm-6,.45a1.54,1.54,0,0,0-.62-1.24,2.31,2.31,0,0,0-1.55-.52,3.55,3.55,0,0,0-2.57,1.06,5,5,0,0,0-1.38,2.9,3.87,3.87,0,0,0,.72.09h.66Q588.48,58.53,588.48,56.24Z"/><path class="cls-2" d="M613.23,70.14c0-.21,0-.46-.05-.76s0-.53-.07-.86,0-.67-.07-1a7,7,0,0,1-2.93,2.31,9.43,9.43,0,0,1-3.84.79,7.12,7.12,0,0,1-5.75-2.43c-1.36-1.62-2-3.93-2-6.93q0-5.44,3.31-8.39t9.42-3c.67,0,1.28,0,1.82,0s1.1.08,1.65.15,1.11.18,1.69.3,1.21.28,1.91.49V63.66c0,.69,0,1.42.05,2.18s.07,1.47.13,2.1.12,1.48.18,2.2Zm-.94-14.67a9.33,9.33,0,0,0-1.42-.22c-.43,0-.83,0-1.19,0a4.8,4.8,0,0,0-3.85,1.6,6.54,6.54,0,0,0-1.37,4.43,4.4,4.4,0,0,0,.82,2.88,2.88,2.88,0,0,0,2.34,1,4.09,4.09,0,0,0,1.8-.4,4.6,4.6,0,0,0,1.49-1.15,5.63,5.63,0,0,0,1-1.76,6.71,6.71,0,0,0,.37-2.27Z"/><path class="cls-2" d="M625.92,70.14V54.62h-4V50.34h4v-5h5.9v5h5.08v4.28h-5.08V70.14Z"/><path class="cls-2" d="M647.52,67.37a2.39,2.39,0,0,1-1,2,4.19,4.19,0,0,1-5,0,2.61,2.61,0,0,1-.06-4.12,3.53,3.53,0,0,1,2.39-.83,3.94,3.94,0,0,1,2.62.89A2.71,2.71,0,0,1,647.52,67.37Z"/><path class="cls-2" d="M695.53,54.39a20.73,20.73,0,0,1-1,6.58,11.09,11.09,0,0,1-3.29,5,15.89,15.89,0,0,1-6.18,3.12,35.87,35.87,0,0,1-9.63,1.09l-2,0-1.62-.07-1.62-.11c-.56,0-1.22-.11-2-.2V39c1.26-.06,2.45-.14,3.55-.23h4.81q9.66,0,14.29,3.86T695.53,54.39Zm-7.74.2q0-5.12-2.65-7.79c-1.77-1.78-4.34-2.67-7.73-2.67l-.81,0-1.18.07V64.61c.42.06.76.09,1,.11l.79,0q5.22,0,7.89-2.58T687.79,54.59Z"/><path class="cls-2" d="M721.32,60.18a11.45,11.45,0,0,1-.74,4.26,8.41,8.41,0,0,1-2.11,3.11,8.92,8.92,0,0,1-3.27,1.93,13.92,13.92,0,0,1-8.47,0,8.92,8.92,0,0,1-3.27-1.93,8.56,8.56,0,0,1-2.12-3.11,12.12,12.12,0,0,1,0-8.42,8.57,8.57,0,0,1,5.36-5,14.32,14.32,0,0,1,8.53,0,9,9,0,0,1,3.27,1.88,8.38,8.38,0,0,1,2.11,3.1A11.31,11.31,0,0,1,721.32,60.18Zm-6,0a4.51,4.51,0,0,0-1.2-3.34,4.45,4.45,0,0,0-3.25-1.19,4.2,4.2,0,0,0-3.21,1.19,4.73,4.73,0,0,0-1.11,3.34,5,5,0,0,0,1.09,3.44,4.11,4.11,0,0,0,3.23,1.21,4.39,4.39,0,0,0,3.29-1.19A4.75,4.75,0,0,0,715.33,60.18Z"/><path class="cls-2" d="M753.85,70.14V58.9a4.67,4.67,0,0,0-.29-1.82,2.59,2.59,0,0,0-.7-1,1.69,1.69,0,0,0-.85-.39,4.75,4.75,0,0,0-.77-.07,4.81,4.81,0,0,0-.94.17,3.41,3.41,0,0,0-1.38.83,5.63,5.63,0,0,0-1.23,1.91,8.71,8.71,0,0,0-.54,3.38v8.2h-6V57.05a22.35,22.35,0,0,0-.27-3.41,11.08,11.08,0,0,0-.72-2.76h6a9.5,9.5,0,0,1,.38,1c.07.27.16.66.25,1.17A9.39,9.39,0,0,1,749.87,51a9,9,0,0,1,3.35-.68,6.57,6.57,0,0,1,2.63.53,6.3,6.3,0,0,1,2.09,1.46,6.82,6.82,0,0,1,1.39,2.33,8.8,8.8,0,0,1,.51,3.08v12.4Z"/><path class="cls-2" d="M786.75,60.18a11.45,11.45,0,0,1-.74,4.26,8.54,8.54,0,0,1-2.11,3.11,8.92,8.92,0,0,1-3.27,1.93,13.92,13.92,0,0,1-8.47,0,8.92,8.92,0,0,1-3.27-1.93,8.71,8.71,0,0,1-2.13-3.11,11.24,11.24,0,0,1-.76-4.26,11.06,11.06,0,0,1,.74-4.16,8.69,8.69,0,0,1,2.08-3.09A8.86,8.86,0,0,1,772.1,51a14.32,14.32,0,0,1,8.53,0,9,9,0,0,1,3.27,1.88A8.5,8.5,0,0,1,786,56,11.31,11.31,0,0,1,786.75,60.18Zm-6,0a4.47,4.47,0,0,0-1.21-3.34,4.42,4.42,0,0,0-3.25-1.19,4.18,4.18,0,0,0-3.2,1.19A4.73,4.73,0,0,0,772,60.18a5,5,0,0,0,1.09,3.44,4.09,4.09,0,0,0,3.22,1.21,4.4,4.4,0,0,0,3.3-1.19A4.75,4.75,0,0,0,780.76,60.18Z"/><path class="cls-2" d="M792.64,70.14V54.62h-4V50.34h4v-5h5.9v5h5.08v4.28h-5.08V70.14Z"/><path class="cls-2" d="M835.3,44.31a8.66,8.66,0,0,0-1.62-.61,6.8,6.8,0,0,0-1.48-.15,4.15,4.15,0,0,0-1.85.36,2.52,2.52,0,0,0-1.12,1.14,6.47,6.47,0,0,0-.57,2.1,28.55,28.55,0,0,0-.15,3.19h4.77v4.37h-4.73V70.14h-6V54.62h-3.74V50.34h3.65a26.28,26.28,0,0,1,.49-5.56,9,9,0,0,1,1.51-3.55A5.45,5.45,0,0,1,827,39.34a9.83,9.83,0,0,1,3.49-.56,15.53,15.53,0,0,1,5.35.9Z"/><path class="cls-2" d="M855.55,60.18a11.45,11.45,0,0,1-.74,4.26,8.39,8.39,0,0,1-2.1,3.11,9,9,0,0,1-3.28,1.93,13.89,13.89,0,0,1-8.46,0,8.92,8.92,0,0,1-3.27-1.93,8.58,8.58,0,0,1-2.13-3.11,12.27,12.27,0,0,1,0-8.42,8.57,8.57,0,0,1,5.36-5,14.32,14.32,0,0,1,8.53,0,9.09,9.09,0,0,1,3.28,1.88,8.35,8.35,0,0,1,2.1,3.1A11.31,11.31,0,0,1,855.55,60.18Zm-6,0a4.51,4.51,0,0,0-1.21-3.34,4.45,4.45,0,0,0-3.25-1.19,4.18,4.18,0,0,0-3.2,1.19,4.69,4.69,0,0,0-1.12,3.34,5,5,0,0,0,1.09,3.44,4.11,4.11,0,0,0,3.23,1.21,4.43,4.43,0,0,0,3.3-1.19A4.79,4.79,0,0,0,849.57,60.18Z"/><path class="cls-2" d="M861.36,70.14V38.78h6V70.14Z"/><path class="cls-2" d="M888.94,70.14q0-.27-.09-.63t-.09-.72c0-.27-.06-.6-.1-1a8.29,8.29,0,0,1-3,2.23,9.39,9.39,0,0,1-3.57.65,8.76,8.76,0,0,1-3.58-.7,7.87,7.87,0,0,1-2.73-1.93,8.7,8.7,0,0,1-1.76-3,11.55,11.55,0,0,1-.63-3.92,13.22,13.22,0,0,1,.74-4.54A10.72,10.72,0,0,1,876.23,53a9.06,9.06,0,0,1,3.17-2.34,9.65,9.65,0,0,1,4.05-.83,14,14,0,0,1,2,.13,11.87,11.87,0,0,1,2.21.59V38.78h6V63.3c0,.51,0,1.16.07,1.94s.1,1.53.16,2.25.13,1.72.22,2.65Zm-1.3-14.44a6.53,6.53,0,0,0-1.67-.45,13.83,13.83,0,0,0-1.61-.09,4.52,4.52,0,0,0-3.63,1.55A6.29,6.29,0,0,0,879.4,61a4.57,4.57,0,0,0,.94,3.08,3.18,3.18,0,0,0,2.57,1.11,5.41,5.41,0,0,0,1.85-.32,3.41,3.41,0,0,0,1.49-1.08,5.6,5.6,0,0,0,1-2,10.78,10.78,0,0,0,.38-3.08Z"/><path class="cls-2" d="M933.94,60.18a11.45,11.45,0,0,1-.74,4.26,8.41,8.41,0,0,1-2.11,3.11,8.92,8.92,0,0,1-3.27,1.93,13.89,13.89,0,0,1-8.46,0,9,9,0,0,1-3.28-1.93A8.56,8.56,0,0,1,914,64.44a12.12,12.12,0,0,1,0-8.42,8.57,8.57,0,0,1,5.36-5,14.32,14.32,0,0,1,8.53,0,9,9,0,0,1,3.27,1.88A8.38,8.38,0,0,1,933.2,56,11.31,11.31,0,0,1,933.94,60.18Zm-6,0a4.51,4.51,0,0,0-1.2-3.34,4.45,4.45,0,0,0-3.25-1.19,4.2,4.2,0,0,0-3.21,1.19,4.73,4.73,0,0,0-1.11,3.34,5,5,0,0,0,1.09,3.44,4.11,4.11,0,0,0,3.23,1.21,4.39,4.39,0,0,0,3.29-1.19A4.75,4.75,0,0,0,928,60.18Z"/><path class="cls-2" d="M953.24,55.88q-.63-.14-1-.18a6.51,6.51,0,0,0-.81-.05,4.58,4.58,0,0,0-3.89,1.76,8.63,8.63,0,0,0-1.33,5.23v7.5h-6v-13c0-.73,0-1.37,0-1.91s-.06-1-.12-1.52-.14-.93-.24-1.39-.25-1-.43-1.56h5.68c.09.37.18.68.25.94a4.57,4.57,0,0,1,.17.74c0,.23.06.48.09.74a8.39,8.39,0,0,1,0,1,10.05,10.05,0,0,1,2.56-2.94,4.94,4.94,0,0,1,2.85-.85,4,4,0,0,1,1.06.12,9.18,9.18,0,0,1,1.19.43Z"/><path class="cls-2" d="M470.45,124.14V108.62h-4v-4.28h4v-5h5.89v5h5.09v4.28h-5.09v15.52Z"/><path class="cls-2" d="M500.87,109.79a5.13,5.13,0,0,1-.8,2.79,6.72,6.72,0,0,1-2.26,2.13,12.25,12.25,0,0,1-3.51,1.38,19.49,19.49,0,0,1-4.58.49l-.54,0c-.21,0-.45,0-.73,0a4.1,4.1,0,0,0,1.35,2.67,4.25,4.25,0,0,0,2.91,1,13.34,13.34,0,0,0,6.63-2v4.72a13.24,13.24,0,0,1-3.26,1.42,14,14,0,0,1-3.54.43,11.62,11.62,0,0,1-4.07-.68,8.18,8.18,0,0,1-3.08-2,8.65,8.65,0,0,1-1.94-3.06,11.22,11.22,0,0,1-.67-4,12.46,12.46,0,0,1,.79-4.53,10.55,10.55,0,0,1,2.2-3.53,9.68,9.68,0,0,1,3.4-2.29,11.4,11.4,0,0,1,4.36-.81,8.26,8.26,0,0,1,5.34,1.62A5.29,5.29,0,0,1,500.87,109.79Zm-6,.45a1.56,1.56,0,0,0-.61-1.24,2.33,2.33,0,0,0-1.56-.52,3.55,3.55,0,0,0-2.57,1.06,5,5,0,0,0-1.38,2.9,3.87,3.87,0,0,0,.72.09h.66Q494.88,112.53,494.88,110.24Z"/><path class="cls-2" d="M519.63,124.14c0-.21,0-.46,0-.76s-.05-.53-.07-.86,0-.67-.07-1a7,7,0,0,1-2.93,2.31,9.38,9.38,0,0,1-3.83.79,7.13,7.13,0,0,1-5.76-2.43c-1.36-1.62-2.05-3.93-2.05-6.93q0-5.45,3.31-8.39t9.42-3c.67,0,1.28,0,1.83,0s1.09.08,1.64.15,1.11.18,1.69.3,1.21.28,1.91.49v12.78c0,.69,0,1.42.05,2.18s.07,1.47.13,2.1.12,1.48.18,2.2Zm-.94-14.67a9.15,9.15,0,0,0-1.42-.22c-.43,0-.83,0-1.19,0a4.8,4.8,0,0,0-3.85,1.6,6.6,6.6,0,0,0-1.37,4.43,4.4,4.4,0,0,0,.82,2.88,2.88,2.88,0,0,0,2.34,1,4.16,4.16,0,0,0,1.81-.4,4.56,4.56,0,0,0,1.48-1.15,5.44,5.44,0,0,0,1-1.76,6.71,6.71,0,0,0,.37-2.27Z"/><path class="cls-2" d="M544.83,109.88q-.63-.13-1-.18a6.51,6.51,0,0,0-.81,0,4.57,4.57,0,0,0-3.89,1.76,8.56,8.56,0,0,0-1.33,5.23v7.5h-6v-13c0-.73,0-1.37,0-1.91a14.09,14.09,0,0,0-.11-1.52,13.05,13.05,0,0,0-.25-1.39c-.1-.45-.24-1-.42-1.56h5.68c.09.37.18.68.25.94a4.57,4.57,0,0,1,.17.74c0,.23.06.48.09.74a8.65,8.65,0,0,1,0,.95,10.15,10.15,0,0,1,2.56-2.93,4.93,4.93,0,0,1,2.86-.86,4,4,0,0,1,1.06.12,9.74,9.74,0,0,1,1.19.43Z"/><path class="cls-2" d="M582.32,113.07a15.1,15.1,0,0,1-.63,4.5,11,11,0,0,1-1.78,3.5,8.1,8.1,0,0,1-2.73,2.27,7.69,7.69,0,0,1-3.49.8,7.5,7.5,0,0,1-2.36-.31,7.13,7.13,0,0,1-2-1.16v14.88H563V110.28a10.19,10.19,0,0,0-.07-1.15c0-.45-.1-.91-.18-1.4s-.16-1-.27-1.46a9.63,9.63,0,0,0-.38-1.34h6.1a4.41,4.41,0,0,1,.33.87c.06.26.12.67.19,1.24a9.59,9.59,0,0,1,2.71-2.07,7.15,7.15,0,0,1,3.1-.63,7.77,7.77,0,0,1,3.17.63,7,7,0,0,1,2.46,1.77,8.16,8.16,0,0,1,1.58,2.77A10.68,10.68,0,0,1,582.32,113.07Zm-6,1a4.31,4.31,0,0,0-.89-2.89,3.09,3.09,0,0,0-2.47-1,3.53,3.53,0,0,0-2.9,1.32A5.46,5.46,0,0,0,569,115v2.6a4.74,4.74,0,0,0,3.18,1.2,3.87,3.87,0,0,0,3-1.26A5.12,5.12,0,0,0,576.33,114.07Z"/><path class="cls-2" d="M602.34,124.14c0-.21,0-.46-.05-.76s0-.53-.07-.86,0-.67-.07-1a7,7,0,0,1-2.93,2.31,9.43,9.43,0,0,1-3.84.79,7.12,7.12,0,0,1-5.75-2.43q-2.05-2.43-2-6.93,0-5.45,3.31-8.39t9.42-3c.67,0,1.28,0,1.82,0s1.1.08,1.65.15,1.11.18,1.68.3,1.22.28,1.92.49v12.78c0,.69,0,1.42,0,2.18s.07,1.47.13,2.1.12,1.48.18,2.2Zm-.94-14.67a9.33,9.33,0,0,0-1.42-.22c-.43,0-.83,0-1.19,0a4.78,4.78,0,0,0-3.85,1.6,6.54,6.54,0,0,0-1.37,4.43,4.4,4.4,0,0,0,.82,2.88,2.87,2.87,0,0,0,2.33,1,4.1,4.1,0,0,0,1.81-.4,4.6,4.6,0,0,0,1.49-1.15,5.63,5.63,0,0,0,1-1.76,6.71,6.71,0,0,0,.37-2.27Z"/><path class="cls-2" d="M632.9,124.77a21.16,21.16,0,0,1-.76,6.1,10.78,10.78,0,0,1-2.07,3.94,7.39,7.39,0,0,1-3.1,2.13,11.16,11.16,0,0,1-3.9.66,34.42,34.42,0,0,1-4-.25,14.64,14.64,0,0,1-3.79-1v-4.54a24.23,24.23,0,0,0,3.45,1,14.62,14.62,0,0,0,2.9.34,5.08,5.08,0,0,0,2.15-.45,4.25,4.25,0,0,0,1.68-1.44,7.33,7.33,0,0,0,1.08-2.61,16.91,16.91,0,0,0,.39-3.91v-2a6.69,6.69,0,0,1-2.57,1.5,10.2,10.2,0,0,1-2.79.34,8.82,8.82,0,0,1-3.51-.67,7.63,7.63,0,0,1-2.67-1.89,8.42,8.42,0,0,1-1.71-3,11.47,11.47,0,0,1-.61-3.85,11.27,11.27,0,0,1,.94-4.7,10,10,0,0,1,2.66-3.58,12,12,0,0,1,4.2-2.27,18.1,18.1,0,0,1,5.57-.79l1.68,0q.74,0,1.44.12c.47.06,1,.14,1.51.24s1.15.25,1.85.43Zm-6-15-1.18-.18a9.75,9.75,0,0,0-1,0,5.68,5.68,0,0,0-4.15,1.46,5.36,5.36,0,0,0-1.5,4,3.82,3.82,0,0,0,1,2.83,3.37,3.37,0,0,0,2.48,1,7.25,7.25,0,0,0,1.62-.18,2.81,2.81,0,0,0,1.41-.81,4.42,4.42,0,0,0,1-1.82,11.15,11.15,0,0,0,.37-3.22Z"/><path class="cls-2" d="M656.57,109.79a5.05,5.05,0,0,1-.81,2.79,6.6,6.6,0,0,1-2.25,2.13,12.25,12.25,0,0,1-3.51,1.38,19.49,19.49,0,0,1-4.58.49l-.55,0c-.2,0-.44,0-.73,0a4.15,4.15,0,0,0,1.35,2.67,4.29,4.29,0,0,0,2.92,1,13.34,13.34,0,0,0,6.63-2v4.72a13.3,13.3,0,0,1-3.27,1.42,13.82,13.82,0,0,1-3.53.43,11.62,11.62,0,0,1-4.07-.68,8.1,8.1,0,0,1-3.08-2,8.65,8.65,0,0,1-1.94-3.06,11.22,11.22,0,0,1-.68-4,12.67,12.67,0,0,1,.79-4.53,10.57,10.57,0,0,1,2.21-3.53,9.59,9.59,0,0,1,3.4-2.29,11.36,11.36,0,0,1,4.36-.81,8.21,8.21,0,0,1,5.33,1.62A5.27,5.27,0,0,1,656.57,109.79Zm-6,.45A1.57,1.57,0,0,0,650,109a2.31,2.31,0,0,0-1.55-.52,3.55,3.55,0,0,0-2.57,1.06,5,5,0,0,0-1.38,2.9,3.78,3.78,0,0,0,.72.09h.66Q650.58,112.53,650.58,110.24Z"/><path class="cls-2" d="M675.73,118.65a5.67,5.67,0,0,1-1.9,4.5,7.89,7.89,0,0,1-5.36,1.67,22.49,22.49,0,0,1-4.57-.45,13.38,13.38,0,0,1-3.6-1.22l.76-4.59a15.37,15.37,0,0,0,6.84,2,2,2,0,0,0,1.42-.43,1.33,1.33,0,0,0,.43-1,1.68,1.68,0,0,0-.34-1.1,5,5,0,0,0-1.64-1.06,26.44,26.44,0,0,1-3.17-1.62,10.08,10.08,0,0,1-2.16-1.69,5.65,5.65,0,0,1-1.22-1.86,6.32,6.32,0,0,1-.38-2.25,5.05,5.05,0,0,1,2.18-4.39,9.52,9.52,0,0,1,5.68-1.55,17.06,17.06,0,0,1,3.35.29,15.23,15.23,0,0,1,3.36,1.15l-.72,4.54a10.82,10.82,0,0,0-3.09-1.24,14.2,14.2,0,0,0-3-.33,2,2,0,0,0-1.43.38,1.33,1.33,0,0,0-.38,1,1.49,1.49,0,0,0,.61,1.24,12.88,12.88,0,0,0,2.4,1.24,26.55,26.55,0,0,1,2.73,1.55,9.11,9.11,0,0,1,1.84,1.53,4.73,4.73,0,0,1,1,1.66A6.06,6.06,0,0,1,675.73,118.65Z"/><path class="cls-2" d="M688.47,121.37a2.39,2.39,0,0,1-1,2,4.19,4.19,0,0,1-5,0,2.6,2.6,0,0,1-.07-4.12,3.58,3.58,0,0,1,2.4-.83,3.94,3.94,0,0,1,2.62.89A2.71,2.71,0,0,1,688.47,121.37Z"/></svg>