<svg id="Layer_1" data-name="Layer 1" xmlns="http://www.w3.org/2000/svg" viewBox="0 0 1156.67 169.53"><defs><style>.cls-1{fill:#3172c2;stroke:#fff;stroke-miterlimit:10;stroke-width:2px;}.cls-2{fill:#fff;}</style></defs><rect class="cls-1" x="116.18" y="15.52" width="924.3" height="138.49" rx="39.07"/><path class="cls-2" d="M247.21,43V69.1h-7.07V43h-8.37V37.69h23.72V43Z"/><path class="cls-2" d="M267.54,69.1c0-.21,0-.47,0-.77s-.06-.52-.07-.85,0-.68-.07-1a7.17,7.17,0,0,1-2.94,2.32,9.55,9.55,0,0,1-3.83.79,7.12,7.12,0,0,1-5.75-2.43q-2.06-2.43-2.05-6.93,0-5.44,3.3-8.4t9.43-2.94c.66,0,1.27,0,1.82,0s1.1.08,1.64.16,1.11.17,1.69.29,1.22.29,1.92.5V62.62c0,.69,0,1.41,0,2.18s.08,1.46.14,2.09.12,1.49.18,2.21Zm-.94-14.67a9.25,9.25,0,0,0-1.42-.23c-.43,0-.82,0-1.19,0a4.79,4.79,0,0,0-3.84,1.59,6.59,6.59,0,0,0-1.38,4.44,4.4,4.4,0,0,0,.83,2.88,2.86,2.86,0,0,0,2.33,1,4.17,4.17,0,0,0,1.81-.41,4.46,4.46,0,0,0,1.49-1.15,5.58,5.58,0,0,0,1-1.75,6.76,6.76,0,0,0,.36-2.27Z"/><path class="cls-2" d="M291,57.4l9.58,11.7H292.7l-7.47-9.77V69.1h-6V37.73h6V55.82l7.29-6.52h8.6Z"/><path class="cls-2" d="M320.83,54.74a5.13,5.13,0,0,1-.8,2.79,6.85,6.85,0,0,1-2.26,2.14A12.54,12.54,0,0,1,314.26,61a19.47,19.47,0,0,1-4.58.5l-.54,0-.73,0a4.1,4.1,0,0,0,1.35,2.68,4.3,4.3,0,0,0,2.91,1,13.36,13.36,0,0,0,6.63-2v4.73A12.73,12.73,0,0,1,316,69.25a13.39,13.39,0,0,1-3.53.43,11.62,11.62,0,0,1-4.07-.67,8.3,8.3,0,0,1-3.08-2A8.83,8.83,0,0,1,303.41,64a11.32,11.32,0,0,1-.67-4,12.58,12.58,0,0,1,.78-4.52,10.47,10.47,0,0,1,2.21-3.53,9.7,9.7,0,0,1,3.4-2.3,11.4,11.4,0,0,1,4.36-.81,8.21,8.21,0,0,1,5.33,1.62A5.27,5.27,0,0,1,320.83,54.74Zm-6,.45a1.56,1.56,0,0,0-.62-1.24,2.35,2.35,0,0,0-1.55-.51,3.58,3.58,0,0,0-2.57,1.05,5.11,5.11,0,0,0-1.38,2.91,3.87,3.87,0,0,0,.72.09h.66Q314.84,57.49,314.84,55.19Z"/><path class="cls-2" d="M351.94,68.73a13.72,13.72,0,0,1-3.21.37,10.77,10.77,0,0,1-4-.71,9.66,9.66,0,0,1-3.13-2,8.4,8.4,0,0,1-2.05-3,10.27,10.27,0,0,1-.72-3.91,12.77,12.77,0,0,1,.65-4.13,8.72,8.72,0,0,1,2-3.24,9.12,9.12,0,0,1,3.29-2.1,12.73,12.73,0,0,1,4.57-.75,10.34,10.34,0,0,1,3.44.47,12.37,12.37,0,0,1,2.23,1L354,56c-.45-.21-.83-.4-1.15-.57a6.92,6.92,0,0,0-.9-.4,4.31,4.31,0,0,0-.94-.23,11.05,11.05,0,0,0-1.24-.06,4.68,4.68,0,0,0-3.46,1.22,4.53,4.53,0,0,0-1.22,3.32,4.4,4.4,0,0,0,1.26,3.34A5.1,5.1,0,0,0,350,63.79a10,10,0,0,0,2.34-.28,12.79,12.79,0,0,0,2.38-.86l.41,4.9A15.58,15.58,0,0,1,351.94,68.73Z"/><path class="cls-2" d="M373.79,69.1c0-.21,0-.47-.05-.77s-.06-.52-.07-.85,0-.68-.07-1a7.14,7.14,0,0,1-2.93,2.32,9.6,9.6,0,0,1-3.84.79,7.12,7.12,0,0,1-5.75-2.43Q359,64.69,359,60.19q0-5.44,3.31-8.4t9.42-2.94c.67,0,1.28,0,1.82,0s1.1.08,1.65.16,1.11.17,1.69.29,1.21.29,1.91.5V62.62c0,.69,0,1.41.05,2.18s.07,1.46.13,2.09.12,1.49.18,2.21Zm-.94-14.67a9.45,9.45,0,0,0-1.42-.23c-.43,0-.83,0-1.19,0a4.81,4.81,0,0,0-3.85,1.59A6.59,6.59,0,0,0,365,60.19a4.4,4.4,0,0,0,.82,2.88,2.87,2.87,0,0,0,2.33,1,4.11,4.11,0,0,0,1.81-.41,4.46,4.46,0,0,0,1.49-1.15,5.39,5.39,0,0,0,1-1.75,6.75,6.75,0,0,0,.37-2.27Z"/><path class="cls-2" d="M399,54.83q-.63-.13-1-.18a6.65,6.65,0,0,0-.81,0,4.56,4.56,0,0,0-3.89,1.75A8.58,8.58,0,0,0,392,61.59V69.1h-6v-13q0-1.1,0-1.92a14.09,14.09,0,0,0-.11-1.52,12.44,12.44,0,0,0-.25-1.38c-.1-.46-.24-1-.43-1.57h5.69c.09.37.17.69.25.95a4.49,4.49,0,0,1,.16.74c0,.23.07.47.1.74a8.46,8.46,0,0,1,0,.94A10.28,10.28,0,0,1,394,50.15a4.92,4.92,0,0,1,2.86-.85,4.54,4.54,0,0,1,1.06.11,12.43,12.43,0,0,1,1.19.44Z"/><path class="cls-2" d="M418.92,54.74a5,5,0,0,1-.8,2.79,6.72,6.72,0,0,1-2.25,2.14A12.66,12.66,0,0,1,412.36,61a19.47,19.47,0,0,1-4.58.5l-.55,0-.73,0a4.2,4.2,0,0,0,1.35,2.68,4.34,4.34,0,0,0,2.92,1,13.36,13.36,0,0,0,6.63-2v4.73a12.88,12.88,0,0,1-3.27,1.41,13.39,13.39,0,0,1-3.53.43,11.62,11.62,0,0,1-4.07-.67,8.34,8.34,0,0,1-3.09-2A8.81,8.81,0,0,1,401.51,64a11.32,11.32,0,0,1-.67-4,12.58,12.58,0,0,1,.78-4.52,10.47,10.47,0,0,1,2.21-3.53,9.61,9.61,0,0,1,3.4-2.3,11.36,11.36,0,0,1,4.36-.81,8.21,8.21,0,0,1,5.33,1.62A5.26,5.26,0,0,1,418.92,54.74Zm-6,.45a1.59,1.59,0,0,0-.62-1.24,2.35,2.35,0,0,0-1.55-.51,3.58,3.58,0,0,0-2.57,1.05,5.11,5.11,0,0,0-1.38,2.91,3.78,3.78,0,0,0,.72.09h.66Q412.94,57.49,412.94,55.19Z"/><path class="cls-2" d="M457.49,59.13a11.45,11.45,0,0,1-.74,4.26,8.41,8.41,0,0,1-2.11,3.12,9.06,9.06,0,0,1-3.27,1.93,13.89,13.89,0,0,1-8.46,0,9.19,9.19,0,0,1-3.28-1.93,8.68,8.68,0,0,1-2.12-3.12,12.24,12.24,0,0,1,0-8.41,8.55,8.55,0,0,1,5.36-5,14.53,14.53,0,0,1,8.53,0,9,9,0,0,1,3.27,1.89,8.14,8.14,0,0,1,2.11,3.09A11.35,11.35,0,0,1,457.49,59.13Zm-6,0a4.49,4.49,0,0,0-1.2-3.34,4.41,4.41,0,0,0-3.25-1.19,4.18,4.18,0,0,0-3.21,1.19,4.71,4.71,0,0,0-1.11,3.34,4.92,4.92,0,0,0,1.09,3.43,4.12,4.12,0,0,0,3.23,1.22,4.36,4.36,0,0,0,3.29-1.2A4.71,4.71,0,0,0,451.5,59.14Z"/><path class="cls-2" d="M477.33,43.27a8,8,0,0,0-1.62-.61,6.22,6.22,0,0,0-1.48-.16,4.15,4.15,0,0,0-1.85.36A2.5,2.5,0,0,0,471.26,44a6.11,6.11,0,0,0-.56,2.09,26.27,26.27,0,0,0-.16,3.2h4.77v4.36h-4.73V69.1h-6V53.57h-3.74V49.3h3.65a26.21,26.21,0,0,1,.49-5.56,9.15,9.15,0,0,1,1.51-3.56A5.7,5.7,0,0,1,469,38.29a10.1,10.1,0,0,1,3.49-.56,15.53,15.53,0,0,1,5.35.9Z"/><path class="cls-2" d="M494.3,69.1V53.57h-4V49.3h4v-5h5.89v5h5.09v4.27h-5.09V69.1Z"/><path class="cls-2" d="M521.48,69.1V57.9a5.77,5.77,0,0,0-.21-1.73,2.33,2.33,0,0,0-.57-1,1.79,1.79,0,0,0-.83-.45,3.82,3.82,0,0,0-1-.11,2.77,2.77,0,0,0-1.5.45,4.63,4.63,0,0,0-1.26,1.24,6.71,6.71,0,0,0-.9,1.84,7.24,7.24,0,0,0-.34,2.24V69.1h-6V38.27h5.94V51.55a7,7,0,0,1,2.49-1.74,8.37,8.37,0,0,1,3-.51,9.43,9.43,0,0,1,2.6.35,6.45,6.45,0,0,1,2.26,1.11,5.52,5.52,0,0,1,1.62,2,7.09,7.09,0,0,1,.62,3.11V69.1Z"/><path class="cls-2" d="M551.9,54.74a5.13,5.13,0,0,1-.8,2.79,6.85,6.85,0,0,1-2.26,2.14,12.59,12.59,0,0,1-3.5,1.37,19.62,19.62,0,0,1-4.59.5l-.54,0-.73,0a4.2,4.2,0,0,0,1.35,2.68,4.3,4.3,0,0,0,2.91,1,13.36,13.36,0,0,0,6.63-2v4.73a12.73,12.73,0,0,1-3.27,1.41,13.39,13.39,0,0,1-3.53.43A11.62,11.62,0,0,1,539.5,69a8.38,8.38,0,0,1-3.08-2A8.83,8.83,0,0,1,534.48,64a11.32,11.32,0,0,1-.67-4,12.58,12.58,0,0,1,.78-4.52,10.47,10.47,0,0,1,2.21-3.53,9.79,9.79,0,0,1,3.4-2.3,11.4,11.4,0,0,1,4.36-.81,8.26,8.26,0,0,1,5.34,1.62A5.29,5.29,0,0,1,551.9,54.74Zm-6,.45A1.57,1.57,0,0,0,545.3,54a2.38,2.38,0,0,0-1.56-.51,3.58,3.58,0,0,0-2.57,1.05,5.11,5.11,0,0,0-1.38,2.91,3.87,3.87,0,0,0,.72.09h.66Q545.91,57.49,545.91,55.19Z"/><path class="cls-2" d="M583,68.73a13.72,13.72,0,0,1-3.21.37,10.77,10.77,0,0,1-4-.71,9.66,9.66,0,0,1-3.13-2,8.4,8.4,0,0,1-2.05-3,10.27,10.27,0,0,1-.72-3.91,12.77,12.77,0,0,1,.65-4.13,8.72,8.72,0,0,1,2-3.24,9.12,9.12,0,0,1,3.29-2.1,12.76,12.76,0,0,1,4.57-.75,10.34,10.34,0,0,1,3.44.47,12.37,12.37,0,0,1,2.23,1l-1,5.18c-.45-.21-.83-.4-1.15-.57a6.92,6.92,0,0,0-.9-.4,4.31,4.31,0,0,0-.94-.23,11.05,11.05,0,0,0-1.24-.06,4.68,4.68,0,0,0-3.46,1.22,4.53,4.53,0,0,0-1.22,3.32,4.4,4.4,0,0,0,1.26,3.34,5.1,5.1,0,0,0,3.65,1.21,10,10,0,0,0,2.34-.28,12.79,12.79,0,0,0,2.38-.86l.41,4.9A15.58,15.58,0,0,1,583,68.73Z"/><path class="cls-2" d="M591.05,69.1V37.73h6V69.1Z"/><path class="cls-2" d="M617.86,69.1c0-.21,0-.47,0-.77a6.47,6.47,0,0,1-.07-.85c0-.33,0-.68-.08-1a7.14,7.14,0,0,1-2.93,2.32,9.55,9.55,0,0,1-3.83.79,7.11,7.11,0,0,1-5.75-2.43q-2.05-2.43-2.06-6.93c0-3.63,1.11-6.43,3.31-8.4s5.35-2.94,9.43-2.94c.66,0,1.27,0,1.82,0s1.09.08,1.64.16,1.11.17,1.69.29,1.22.29,1.92.5V62.62c0,.69,0,1.41,0,2.18s.07,1.46.14,2.09.11,1.49.17,2.21Zm-.94-14.67a9.25,9.25,0,0,0-1.42-.23c-.43,0-.82,0-1.19,0a4.82,4.82,0,0,0-3.85,1.59,6.64,6.64,0,0,0-1.37,4.44,4.34,4.34,0,0,0,.83,2.88,2.84,2.84,0,0,0,2.33,1,4.17,4.17,0,0,0,1.81-.41,4.56,4.56,0,0,0,1.49-1.15,5.56,5.56,0,0,0,1-1.75,6.51,6.51,0,0,0,.37-2.27Z"/><path class="cls-2" d="M643.78,63.61a5.67,5.67,0,0,1-1.9,4.5,7.89,7.89,0,0,1-5.36,1.66,22.49,22.49,0,0,1-4.57-.45,13.4,13.4,0,0,1-3.6-1.21l.76-4.59a15.38,15.38,0,0,0,6.84,2,1.93,1.93,0,0,0,1.42-.43,1.29,1.29,0,0,0,.43-1,1.73,1.73,0,0,0-.34-1.11,5.17,5.17,0,0,0-1.64-1,26.44,26.44,0,0,1-3.17-1.62,10.4,10.4,0,0,1-2.16-1.69,5.79,5.79,0,0,1-1.22-1.87,6.32,6.32,0,0,1-.38-2.25,5.07,5.07,0,0,1,2.18-4.39,9.59,9.59,0,0,1,5.68-1.55,17.87,17.87,0,0,1,3.35.29,15.77,15.77,0,0,1,3.36,1.15l-.71,4.55a10.7,10.7,0,0,0-3.1-1.24,13.59,13.59,0,0,0-3-.34,2.08,2.08,0,0,0-1.43.38,1.37,1.37,0,0,0-.38,1,1.46,1.46,0,0,0,.61,1.23,12.61,12.61,0,0,0,2.4,1.24,28.56,28.56,0,0,1,2.73,1.55A9.82,9.82,0,0,1,642.46,60a4.77,4.77,0,0,1,1,1.67A6,6,0,0,1,643.78,63.61Z"/><path class="cls-2" d="M663.76,63.61a5.67,5.67,0,0,1-1.9,4.5,7.89,7.89,0,0,1-5.36,1.66,22.49,22.49,0,0,1-4.57-.45,13.4,13.4,0,0,1-3.6-1.21l.76-4.59a15.34,15.34,0,0,0,6.84,2,1.93,1.93,0,0,0,1.42-.43,1.29,1.29,0,0,0,.43-1,1.73,1.73,0,0,0-.34-1.11,5.17,5.17,0,0,0-1.64-1,26.44,26.44,0,0,1-3.17-1.62,10.4,10.4,0,0,1-2.16-1.69,5.79,5.79,0,0,1-1.22-1.87,6.32,6.32,0,0,1-.38-2.25,5.07,5.07,0,0,1,2.18-4.39,9.59,9.59,0,0,1,5.68-1.55,17.87,17.87,0,0,1,3.35.29,15.77,15.77,0,0,1,3.36,1.15l-.72,4.55a10.53,10.53,0,0,0-3.09-1.24,13.59,13.59,0,0,0-3-.34,2.08,2.08,0,0,0-1.43.38,1.38,1.38,0,0,0-.39,1,1.47,1.47,0,0,0,.62,1.23,12.29,12.29,0,0,0,2.4,1.24,28.56,28.56,0,0,1,2.73,1.55A9.82,9.82,0,0,1,662.44,60a4.77,4.77,0,0,1,1,1.67A6,6,0,0,1,663.76,63.61Z"/><path class="cls-2" d="M683,54.83q-.63-.13-1-.18a6.65,6.65,0,0,0-.81,0,4.58,4.58,0,0,0-3.89,1.75A8.65,8.65,0,0,0,676,61.59V69.1h-6v-13c0-.73,0-1.37,0-1.92s-.06-1-.12-1.52-.14-.93-.24-1.38-.25-1-.43-1.57h5.68c.09.37.18.69.26.95a5.83,5.83,0,0,1,.16.74c0,.23.06.47.09.74a8.2,8.2,0,0,1,.05.94A10.13,10.13,0,0,1,678,50.15a4.87,4.87,0,0,1,2.85-.85,4.48,4.48,0,0,1,1.06.11,11.51,11.51,0,0,1,1.19.44Z"/><path class="cls-2" d="M705.43,59.13a11.25,11.25,0,0,1-.74,4.26,8.51,8.51,0,0,1-2.1,3.12,9.06,9.06,0,0,1-3.27,1.93,13.92,13.92,0,0,1-8.47,0,9.06,9.06,0,0,1-3.27-1.93,8.83,8.83,0,0,1-2.13-3.12,11.05,11.05,0,0,1-.76-4.26,10.82,10.82,0,0,1,.74-4.15,8.73,8.73,0,0,1,2.08-3.1A8.9,8.9,0,0,1,690.78,50a14.57,14.57,0,0,1,8.54,0,9,9,0,0,1,3.27,1.89,8.24,8.24,0,0,1,2.1,3.09A11.15,11.15,0,0,1,705.43,59.13Zm-6,0a4.46,4.46,0,0,0-1.21-3.34A4.4,4.4,0,0,0,695,54.61a4.14,4.14,0,0,0-3.2,1.19,4.71,4.71,0,0,0-1.12,3.34,5,5,0,0,0,1.09,3.43A4.13,4.13,0,0,0,695,63.79a4.38,4.38,0,0,0,3.3-1.2A4.75,4.75,0,0,0,699.45,59.14Z"/><path class="cls-2" d="M730.86,59.13a11.45,11.45,0,0,1-.74,4.26A8.54,8.54,0,0,1,728,66.51a9.06,9.06,0,0,1-3.27,1.93,13.92,13.92,0,0,1-8.47,0A9.06,9.06,0,0,1,713,66.51a8.83,8.83,0,0,1-2.13-3.12,11.24,11.24,0,0,1-.76-4.26,11,11,0,0,1,.74-4.15,8.73,8.73,0,0,1,2.08-3.1A8.86,8.86,0,0,1,716.21,50a14.53,14.53,0,0,1,8.53,0A9,9,0,0,1,728,51.82a8.26,8.26,0,0,1,2.11,3.09A11.35,11.35,0,0,1,730.86,59.13Zm-6,0a4.49,4.49,0,0,0-1.2-3.34,4.41,4.41,0,0,0-3.25-1.19,4.15,4.15,0,0,0-3.21,1.19,4.71,4.71,0,0,0-1.11,3.34,4.92,4.92,0,0,0,1.09,3.43,4.12,4.12,0,0,0,3.23,1.22,4.36,4.36,0,0,0,3.29-1.2A4.71,4.71,0,0,0,724.87,59.14Z"/><path class="cls-2" d="M762.31,69.1V59.31a6.46,6.46,0,0,0-.76-3.68,2.42,2.42,0,0,0-2-1,3,3,0,0,0-1.34.32,3.39,3.39,0,0,0-1.23,1,5.64,5.64,0,0,0-.9,2A12.19,12.19,0,0,0,755.7,61V69.1h-6V59.31a6.94,6.94,0,0,0-.7-3.57,2.48,2.48,0,0,0-2.31-1.13A3.26,3.26,0,0,0,744,56.12a8.38,8.38,0,0,0-1.12,4.9V69.1h-6V56.66c0-.72,0-1.39,0-2a16.54,16.54,0,0,0-.16-1.68,13,13,0,0,0-.31-1.53c-.14-.49-.3-1-.48-1.57h6l.33,1.05a9,9,0,0,1,.25,1A13.76,13.76,0,0,1,745.63,50a10,10,0,0,1,4.11-.74,7,7,0,0,1,3.07.65,4.56,4.56,0,0,1,2,1.81,6.67,6.67,0,0,1,3-1.83,12.45,12.45,0,0,1,3.88-.63,6.38,6.38,0,0,1,4.86,1.79,7.24,7.24,0,0,1,1.71,5.2V69.1Z"/><path class="cls-2" d="M801.62,68.73a13.87,13.87,0,0,1-3.22.37,10.77,10.77,0,0,1-4-.71,9.77,9.77,0,0,1-3.13-2,8.5,8.5,0,0,1-2-3,10.27,10.27,0,0,1-.72-3.91,12.51,12.51,0,0,1,.65-4.13,8.46,8.46,0,0,1,2-3.24,9.07,9.07,0,0,1,3.28-2.1A12.76,12.76,0,0,1,799,49.3a10.3,10.3,0,0,1,3.44.47,12.06,12.06,0,0,1,2.23,1l-1,5.18c-.45-.21-.83-.4-1.15-.57a8.37,8.37,0,0,0-.9-.4,4.41,4.41,0,0,0-1-.23,10.74,10.74,0,0,0-1.23-.06A4.7,4.7,0,0,0,796,55.92a4.52,4.52,0,0,0-1.21,3.32A4.4,4.4,0,0,0,796,62.58a5.08,5.08,0,0,0,3.64,1.21,10,10,0,0,0,2.34-.28,12.87,12.87,0,0,0,2.39-.86l.4,4.9A15.72,15.72,0,0,1,801.62,68.73Z"/><path class="cls-2" d="M822.21,69.1V57.9a5.77,5.77,0,0,0-.21-1.73,2.24,2.24,0,0,0-.58-1,1.71,1.71,0,0,0-.82-.45,3.85,3.85,0,0,0-1-.11,2.76,2.76,0,0,0-1.49.45,4.78,4.78,0,0,0-1.26,1.24,6.71,6.71,0,0,0-.9,1.84,7.24,7.24,0,0,0-.34,2.24V69.1h-6V38.27h5.94V51.55a7,7,0,0,1,2.49-1.74,8.33,8.33,0,0,1,3-.51,9.43,9.43,0,0,1,2.6.35A6.45,6.45,0,0,1,826,50.76a5.52,5.52,0,0,1,1.62,2,7,7,0,0,1,.62,3.11V69.1Z"/><path class="cls-2" d="M849.29,69.1c0-.21,0-.47,0-.77a8.53,8.53,0,0,1-.08-.85c0-.33,0-.68-.07-1a7.08,7.08,0,0,1-2.93,2.32,9.55,9.55,0,0,1-3.83.79,7.11,7.11,0,0,1-5.75-2.43q-2.05-2.43-2.05-6.93,0-5.44,3.3-8.4t9.42-2.94c.67,0,1.28,0,1.83,0s1.09.08,1.64.16,1.11.17,1.69.29,1.22.29,1.92.5V62.62c0,.69,0,1.41,0,2.18s.08,1.46.14,2.09.12,1.49.18,2.21Zm-.94-14.67a9.25,9.25,0,0,0-1.42-.23c-.43,0-.82,0-1.19,0a4.82,4.82,0,0,0-3.85,1.59,6.64,6.64,0,0,0-1.37,4.44,4.45,4.45,0,0,0,.82,2.88,2.88,2.88,0,0,0,2.34,1,4.17,4.17,0,0,0,1.81-.41A4.56,4.56,0,0,0,847,62.5a5.58,5.58,0,0,0,1-1.75,6.76,6.76,0,0,0,.36-2.27Z"/><path class="cls-2" d="M874.5,54.83c-.42-.09-.75-.15-1-.18a6.48,6.48,0,0,0-.8,0,4.6,4.6,0,0,0-3.9,1.75,8.65,8.65,0,0,0-1.32,5.23V69.1h-6v-13c0-.73,0-1.37,0-1.92s-.05-1-.11-1.52-.15-.93-.25-1.38-.25-1-.43-1.57h5.68c.09.37.18.69.26.95a5.83,5.83,0,0,1,.16.74c0,.23.06.47.09.74a8.2,8.2,0,0,1,0,.94,10.13,10.13,0,0,1,2.56-2.93,4.87,4.87,0,0,1,2.86-.85,4.45,4.45,0,0,1,1,.11,11.51,11.51,0,0,1,1.2.44Z"/><path class="cls-2" d="M880.3,69.1V53.57h-4V49.3h4v-5h5.89v5h5.09v4.27h-5.09V69.1Z"/><path class="cls-2" d="M909.14,63.61a5.67,5.67,0,0,1-1.9,4.5,7.89,7.89,0,0,1-5.36,1.66,22.49,22.49,0,0,1-4.57-.45,13.4,13.4,0,0,1-3.6-1.21l.76-4.59a15.38,15.38,0,0,0,6.84,2,1.93,1.93,0,0,0,1.42-.43,1.29,1.29,0,0,0,.43-1,1.73,1.73,0,0,0-.34-1.11,5.17,5.17,0,0,0-1.64-1A26.44,26.44,0,0,1,898,60.37a10.4,10.4,0,0,1-2.16-1.69,5.79,5.79,0,0,1-1.22-1.87,6.32,6.32,0,0,1-.38-2.25,5.08,5.08,0,0,1,2.17-4.39,9.64,9.64,0,0,1,5.69-1.55,17.87,17.87,0,0,1,3.35.29,15.77,15.77,0,0,1,3.36,1.15l-.72,4.55A10.53,10.53,0,0,0,905,53.37a13.59,13.59,0,0,0-3-.34,2.08,2.08,0,0,0-1.43.38,1.37,1.37,0,0,0-.38,1,1.46,1.46,0,0,0,.61,1.23,12.29,12.29,0,0,0,2.4,1.24A28.56,28.56,0,0,1,906,58.45,9.82,9.82,0,0,1,907.82,60a4.77,4.77,0,0,1,1,1.67A6,6,0,0,1,909.14,63.61Z"/><path class="cls-2" d="M459.4,123.1c0-.21,0-.47,0-.77s-.05-.52-.07-.85,0-.68-.07-1a7.14,7.14,0,0,1-2.93,2.32,9.56,9.56,0,0,1-3.84.79,7.12,7.12,0,0,1-5.75-2.43c-1.36-1.62-2.05-3.93-2.05-6.93q0-5.44,3.31-8.4t9.42-2.94c.67,0,1.28,0,1.82,0s1.1.08,1.65.16,1.11.17,1.69.29,1.21.29,1.91.5v12.78c0,.69,0,1.41.05,2.18s.07,1.46.13,2.09.12,1.49.18,2.21Zm-.94-14.67a9.45,9.45,0,0,0-1.42-.23c-.43,0-.83,0-1.19,0a4.82,4.82,0,0,0-3.85,1.59,6.64,6.64,0,0,0-1.37,4.44,4.4,4.4,0,0,0,.82,2.88,2.88,2.88,0,0,0,2.34,1,4.09,4.09,0,0,0,1.8-.41,4.37,4.37,0,0,0,1.49-1.15,5.39,5.39,0,0,0,1-1.75,6.75,6.75,0,0,0,.37-2.27Z"/><path class="cls-2" d="M483.84,123.1V111.86a4.44,4.44,0,0,0-.3-1.82,2.51,2.51,0,0,0-.69-1,1.81,1.81,0,0,0-.86-.39,6,6,0,0,0-.76-.06,4.2,4.2,0,0,0-1,.17,3.29,3.29,0,0,0-1.37.82,5.59,5.59,0,0,0-1.24,1.91,8.77,8.77,0,0,0-.54,3.39v8.2h-6V110a22.48,22.48,0,0,0-.27-3.42,11.11,11.11,0,0,0-.72-2.75h6a7.73,7.73,0,0,1,.38,1,11.57,11.57,0,0,1,.25,1.17,9.33,9.33,0,0,1,3.09-2.07,8.86,8.86,0,0,1,3.35-.67,6.52,6.52,0,0,1,2.62.52,6.09,6.09,0,0,1,2.09,1.47,6.62,6.62,0,0,1,1.39,2.32,8.86,8.86,0,0,1,.51,3.09v12.4Z"/><path class="cls-2" d="M511.69,123.1q0-.27-.09-.63t-.09-.72c0-.27-.07-.6-.1-1a8.14,8.14,0,0,1-3,2.22,9.2,9.2,0,0,1-3.57.66,8.93,8.93,0,0,1-3.58-.7,7.9,7.9,0,0,1-2.73-1.94,8.61,8.61,0,0,1-1.76-3,11.5,11.5,0,0,1-.63-3.91,13.28,13.28,0,0,1,.74-4.55A10.82,10.82,0,0,1,499,106a9.32,9.32,0,0,1,3.17-2.34,9.81,9.81,0,0,1,4.05-.83,14,14,0,0,1,2,.14,11.56,11.56,0,0,1,2.21.58V91.73h6v24.53c0,.51,0,1.15.07,1.93s.1,1.53.15,2.25.14,1.73.23,2.66Zm-1.3-14.45a6.53,6.53,0,0,0-1.67-.45,13.83,13.83,0,0,0-1.61-.09,4.55,4.55,0,0,0-3.63,1.55,6.34,6.34,0,0,0-1.33,4.26,4.59,4.59,0,0,0,.94,3.08,3.2,3.2,0,0,0,2.57,1.1,5.4,5.4,0,0,0,1.85-.31,3.41,3.41,0,0,0,1.49-1.08,5.57,5.57,0,0,0,1-2,10.73,10.73,0,0,0,.38-3.08Z"/><path class="cls-2" d="M551.65,123.1q0-.27-.09-.63t-.09-.72c0-.27-.07-.6-.1-1a8.14,8.14,0,0,1-3,2.22,9.2,9.2,0,0,1-3.57.66,8.93,8.93,0,0,1-3.58-.7,7.9,7.9,0,0,1-2.73-1.94,8.61,8.61,0,0,1-1.76-3,11.5,11.5,0,0,1-.63-3.91,13.28,13.28,0,0,1,.74-4.55,10.82,10.82,0,0,1,2.07-3.58,9.32,9.32,0,0,1,3.17-2.34,9.81,9.81,0,0,1,4-.83,14,14,0,0,1,2,.14,11.49,11.49,0,0,1,2.2.58V91.73h6v24.53c0,.51,0,1.15.07,1.93s.1,1.53.15,2.25.14,1.73.23,2.66Zm-1.31-14.45a6.36,6.36,0,0,0-1.66-.45,13.83,13.83,0,0,0-1.61-.09,4.55,4.55,0,0,0-3.63,1.55,6.34,6.34,0,0,0-1.33,4.26,4.59,4.59,0,0,0,.94,3.08,3.2,3.2,0,0,0,2.57,1.1,5.4,5.4,0,0,0,1.85-.31,3.47,3.47,0,0,0,1.49-1.08,5.57,5.57,0,0,0,1-2,10.76,10.76,0,0,0,.37-3.08Z"/><path class="cls-2" d="M570,97.86a2.45,2.45,0,0,1-1,2,4.16,4.16,0,0,1-5,0,2.71,2.71,0,0,1-1.08-2.07,2.44,2.44,0,0,1,1-2.06,4.3,4.3,0,0,1,3.94-.61,3.45,3.45,0,0,1,1.13.63,3.32,3.32,0,0,1,.76,1A2.42,2.42,0,0,1,570,97.86Zm-6.75,25.24V103.3h6v19.8Z"/><path class="cls-2" d="M590.26,117.61a5.68,5.68,0,0,1-1.91,4.5,7.89,7.89,0,0,1-5.36,1.66,22.49,22.49,0,0,1-4.57-.45,13.65,13.65,0,0,1-3.6-1.21l.77-4.59a15.34,15.34,0,0,0,6.84,2,2,2,0,0,0,1.42-.43,1.32,1.32,0,0,0,.42-1,1.79,1.79,0,0,0-.33-1.11,5.39,5.39,0,0,0-1.65-1.05,26.44,26.44,0,0,1-3.17-1.62,11,11,0,0,1-2.16-1.69,5.75,5.75,0,0,1-1.21-1.87,6.1,6.1,0,0,1-.39-2.25,5.09,5.09,0,0,1,2.18-4.39,9.59,9.59,0,0,1,5.68-1.55,17.9,17.9,0,0,1,3.36.29,15.77,15.77,0,0,1,3.36,1.15l-.72,4.55a10.48,10.48,0,0,0-3.1-1.24,13.5,13.5,0,0,0-3-.34,2,2,0,0,0-1.43.38,1.38,1.38,0,0,0-.39,1,1.45,1.45,0,0,0,.62,1.23,12.43,12.43,0,0,0,2.39,1.24,28.56,28.56,0,0,1,2.73,1.55,10.24,10.24,0,0,1,1.85,1.53,4.89,4.89,0,0,1,1,1.67A5.76,5.76,0,0,1,590.26,117.61Z"/><path class="cls-2" d="M615.59,112a15.2,15.2,0,0,1-.63,4.5,10.78,10.78,0,0,1-1.77,3.5,8.22,8.22,0,0,1-2.73,2.27,7.69,7.69,0,0,1-3.49.8,7.54,7.54,0,0,1-2.37-.32,6.64,6.64,0,0,1-2-1.16v14.89h-6.3V109.23a10.32,10.32,0,0,0-.07-1.15c-.05-.44-.11-.9-.18-1.39s-.16-1-.27-1.46a9.39,9.39,0,0,0-.38-1.35h6.1a5.83,5.83,0,0,1,.33.88A11,11,0,0,1,602,106a9.62,9.62,0,0,1,2.72-2.07,7.12,7.12,0,0,1,3.1-.63,7.93,7.93,0,0,1,3.17.62,6.91,6.91,0,0,1,2.45,1.78,8.13,8.13,0,0,1,1.59,2.76A10.7,10.7,0,0,1,615.59,112Zm-6,1a4.24,4.24,0,0,0-.9-2.89,3.08,3.08,0,0,0-2.46-1,3.55,3.55,0,0,0-2.91,1.32,5.53,5.53,0,0,0-1.07,3.56v2.61a4.77,4.77,0,0,0,3.19,1.2,3.84,3.84,0,0,0,3-1.27A5.09,5.09,0,0,0,609.61,113Z"/><path class="cls-2" d="M621.8,123.1V91.73h6V123.1Z"/><path class="cls-2" d="M648.62,123.1c0-.21,0-.47,0-.77s-.05-.52-.07-.85,0-.68-.07-1a7.14,7.14,0,0,1-2.93,2.32,9.55,9.55,0,0,1-3.83.79,7.1,7.1,0,0,1-5.75-2.43q-2.05-2.43-2.06-6.93,0-5.44,3.31-8.4t9.42-2.94c.67,0,1.28,0,1.83,0s1.09.08,1.64.16,1.11.17,1.69.29,1.21.29,1.91.5v12.78c0,.69,0,1.41.05,2.18s.07,1.46.13,2.09.12,1.49.18,2.21Zm-.94-14.67a9.45,9.45,0,0,0-1.42-.23c-.43,0-.83,0-1.19,0a4.82,4.82,0,0,0-3.85,1.59,6.64,6.64,0,0,0-1.37,4.44,4.4,4.4,0,0,0,.82,2.88,2.88,2.88,0,0,0,2.34,1,4.17,4.17,0,0,0,1.81-.41,4.43,4.43,0,0,0,1.48-1.15,5.39,5.39,0,0,0,1-1.75,6.51,6.51,0,0,0,.37-2.27Z"/><path class="cls-2" d="M677.37,129.57a9.74,9.74,0,0,1-2,4.14,7.06,7.06,0,0,1-3.42,2.17,17.22,17.22,0,0,1-5,.63,14.18,14.18,0,0,1-2.89-.3,28.22,28.22,0,0,1-3-.78v-4.5c1,.08,1.93.14,2.82.19s1.77.08,2.64.08a6.26,6.26,0,0,0,2.41-.42,3.69,3.69,0,0,0,1.68-1.36,6.53,6.53,0,0,0,.94-2.5,20.53,20.53,0,0,0,.3-3.82v-2.43a7.73,7.73,0,0,1-5.63,2.43,6.59,6.59,0,0,1-2.59-.53,6.08,6.08,0,0,1-2.13-1.52,7.53,7.53,0,0,1-1.44-2.38,8.58,8.58,0,0,1-.54-3.14c0-1.06,0-2.07,0-3s0-1.93,0-2.9,0-2,0-3-.06-2.13-.15-3.3h6c.09,1.19.14,2.29.16,3.31s0,2,0,2.88,0,1.77-.05,2.6,0,1.65,0,2.47a3.67,3.67,0,0,0,.67,2.46,2.39,2.39,0,0,0,1.91.77,3.61,3.61,0,0,0,2.75-1.25A4.71,4.71,0,0,0,672,113.2v-9.9h6v19.8A27.4,27.4,0,0,1,677.37,129.57Z"/><path class="cls-2" d="M699.16,117.61a5.68,5.68,0,0,1-1.91,4.5,7.89,7.89,0,0,1-5.36,1.66,22.49,22.49,0,0,1-4.57-.45,13.52,13.52,0,0,1-3.6-1.21l.77-4.59a15.34,15.34,0,0,0,6.84,2,2,2,0,0,0,1.42-.43,1.32,1.32,0,0,0,.42-1,1.79,1.79,0,0,0-.33-1.11,5.39,5.39,0,0,0-1.65-1.05,26.44,26.44,0,0,1-3.17-1.62,10.68,10.68,0,0,1-2.16-1.69,5.59,5.59,0,0,1-1.21-1.87,6.1,6.1,0,0,1-.39-2.25,5.09,5.09,0,0,1,2.18-4.39,9.59,9.59,0,0,1,5.68-1.55,17.87,17.87,0,0,1,3.35.29,15.65,15.65,0,0,1,3.37,1.15l-.72,4.55a10.59,10.59,0,0,0-3.1-1.24,13.5,13.5,0,0,0-2.95-.34,2.09,2.09,0,0,0-1.44.38,1.41,1.41,0,0,0-.38,1,1.46,1.46,0,0,0,.61,1.23,12.94,12.94,0,0,0,2.4,1.24,28.56,28.56,0,0,1,2.73,1.55,10.24,10.24,0,0,1,1.85,1.53,4.89,4.89,0,0,1,1,1.67A5.76,5.76,0,0,1,699.16,117.61Z"/><path class="cls-2" d="M711.89,120.33a2.4,2.4,0,0,1-1,2,3.92,3.92,0,0,1-2.48.8,3.86,3.86,0,0,1-2.51-.86,2.6,2.6,0,0,1-.06-4.11,3.54,3.54,0,0,1,2.39-.84,4,4,0,0,1,2.62.89A2.73,2.73,0,0,1,711.89,120.33Z"/></svg>