<svg id="Layer_1" data-name="Layer 1" xmlns="http://www.w3.org/2000/svg" viewBox="0 0 1156.67 169.53"><defs><style>.cls-1{fill:#3172c2;stroke:#fff;stroke-miterlimit:10;stroke-width:2px;}.cls-2{fill:#fff;}</style></defs><rect class="cls-1" x="27.91" y="45.69" width="1096.04" height="78.15" rx="39.07"/><path class="cls-2" d="M117,97.14,107,84.58V97.14H99.79V65.73h9.72q7.41,0,10.73,2.31a7.7,7.7,0,0,1,3.31,6.75,7.52,7.52,0,0,1-.68,3.26,7.2,7.2,0,0,1-2,2.51,9.29,9.29,0,0,1-3.09,1.64,14.27,14.27,0,0,1-4.09.63l11.83,14.31Zm-1.17-22a3.45,3.45,0,0,0-1.55-3.06,9.24,9.24,0,0,0-5-1h-1a10.84,10.84,0,0,0-1.32.09v7.79L108,79l.87.06.6,0A8.69,8.69,0,0,0,114.12,78,3.26,3.26,0,0,0,115.81,75.14Z"/><path class="cls-2" d="M145.29,82.79a5.13,5.13,0,0,1-.8,2.79,6.72,6.72,0,0,1-2.26,2.13,12.25,12.25,0,0,1-3.51,1.38,19.49,19.49,0,0,1-4.58.49l-.54,0c-.21,0-.45,0-.73,0a4.06,4.06,0,0,0,1.35,2.67,4.25,4.25,0,0,0,2.91,1,13.34,13.34,0,0,0,6.63-2v4.72a13.14,13.14,0,0,1-3.27,1.42,13.82,13.82,0,0,1-3.53.43,11.62,11.62,0,0,1-4.07-.68,8.18,8.18,0,0,1-3.08-2A8.65,8.65,0,0,1,127.87,92a11.22,11.22,0,0,1-.67-4,12.67,12.67,0,0,1,.78-4.53A10.57,10.57,0,0,1,130.19,80a9.68,9.68,0,0,1,3.4-2.29,11.4,11.4,0,0,1,4.36-.81,8.21,8.21,0,0,1,5.33,1.62A5.27,5.27,0,0,1,145.29,82.79Zm-6,.45a1.54,1.54,0,0,0-.62-1.24,2.29,2.29,0,0,0-1.55-.52,3.55,3.55,0,0,0-2.57,1.06,5,5,0,0,0-1.38,2.9,3.87,3.87,0,0,0,.72.09h.66Q139.3,85.53,139.3,83.24Z"/><path class="cls-2" d="M175.89,97.14V87.35a6.51,6.51,0,0,0-.76-3.67,2.42,2.42,0,0,0-2.06-1,3.13,3.13,0,0,0-1.34.32,3.33,3.33,0,0,0-1.23,1,5.58,5.58,0,0,0-.89,2,11.75,11.75,0,0,0-.34,3.08v8.08h-6V87.35a7.1,7.1,0,0,0-.7-3.57,2.53,2.53,0,0,0-2.32-1.13,3.26,3.26,0,0,0-2.65,1.52,8.31,8.31,0,0,0-1.13,4.89v8.08h-6V84.71c0-.73,0-1.39,0-2s-.08-1.15-.16-1.68a12.39,12.39,0,0,0-.31-1.52c-.14-.5-.29-1-.47-1.57h6c.15.46.26.81.34,1s.16.57.25,1a14.1,14.1,0,0,1,3.11-1.92,10.2,10.2,0,0,1,4.11-.74,7.06,7.06,0,0,1,3.07.65,4.58,4.58,0,0,1,2,1.82,6.72,6.72,0,0,1,3-1.84,12.44,12.44,0,0,1,3.87-.63,6.42,6.42,0,0,1,4.86,1.79,7.26,7.26,0,0,1,1.71,5.2V97.14Z"/><path class="cls-2" d="M206.17,82.79a5,5,0,0,1-.8,2.79,6.54,6.54,0,0,1-2.26,2.13,12.29,12.29,0,0,1-3.5,1.38,19.52,19.52,0,0,1-4.59.49l-.54,0c-.2,0-.45,0-.73,0a4.15,4.15,0,0,0,1.35,2.67,4.25,4.25,0,0,0,2.91,1,13.28,13.28,0,0,0,6.63-2v4.72a13.24,13.24,0,0,1-3.26,1.42,13.88,13.88,0,0,1-3.53.43,11.72,11.72,0,0,1-4.08-.68,8.26,8.26,0,0,1-3.08-2A8.63,8.63,0,0,1,188.76,92a11.22,11.22,0,0,1-.68-4,12.46,12.46,0,0,1,.79-4.53,10.55,10.55,0,0,1,2.2-3.53,9.77,9.77,0,0,1,3.4-2.29,11.45,11.45,0,0,1,4.37-.81,8.23,8.23,0,0,1,5.33,1.62A5.29,5.29,0,0,1,206.17,82.79Zm-6,.45a1.57,1.57,0,0,0-.62-1.24,2.31,2.31,0,0,0-1.55-.52,3.54,3.54,0,0,0-2.57,1.06,4.93,4.93,0,0,0-1.38,2.9,3.69,3.69,0,0,0,.71.09h.67Q200.19,85.53,200.19,83.24Z"/><path class="cls-2" d="M236.77,97.14V87.35a6.42,6.42,0,0,0-.76-3.67,2.4,2.4,0,0,0-2-1,3.1,3.1,0,0,0-1.34.32,3.33,3.33,0,0,0-1.23,1,5.59,5.59,0,0,0-.9,2,12.24,12.24,0,0,0-.33,3.08v8.08h-6V87.35a7,7,0,0,0-.7-3.57,2.5,2.5,0,0,0-2.31-1.13,3.27,3.27,0,0,0-2.66,1.52,8.32,8.32,0,0,0-1.12,4.89v8.08h-6V84.71c0-.73,0-1.39,0-2s-.09-1.15-.16-1.68a12.41,12.41,0,0,0-.32-1.52c-.13-.5-.29-1-.47-1.57h6c.15.46.26.81.33,1a9.23,9.23,0,0,1,.25,1,13.94,13.94,0,0,1,3.12-1.92,10.15,10.15,0,0,1,4.1-.74,7,7,0,0,1,3.07.65,4.6,4.6,0,0,1,2,1.82,6.68,6.68,0,0,1,3-1.84,12.44,12.44,0,0,1,3.87-.63,6.42,6.42,0,0,1,4.87,1.79,7.26,7.26,0,0,1,1.71,5.2V97.14Z"/><path class="cls-2" d="M269.76,85.81a13.28,13.28,0,0,1-.78,4.66A9.88,9.88,0,0,1,266.75,94a10,10,0,0,1-3.47,2.29,12,12,0,0,1-4.51.81,23.34,23.34,0,0,1-4.5-.47,21.19,21.19,0,0,1-4.22-1.27V66.28h6V79.64a7.09,7.09,0,0,1,2.57-1.72,8.76,8.76,0,0,1,3.26-.58,8.48,8.48,0,0,1,3.23.6,7,7,0,0,1,2.5,1.71,7.92,7.92,0,0,1,1.6,2.67A10.14,10.14,0,0,1,269.76,85.81Zm-6,1.08a4,4,0,0,0-.9-2.75,3.3,3.3,0,0,0-2.55-1,4.11,4.11,0,0,0-3.18,1.36,4.19,4.19,0,0,0-.87,1.45,5.11,5.11,0,0,0-.28,1.71v3.42a5.56,5.56,0,0,0,1.41.53,9,9,0,0,0,1.64.12,4.67,4.67,0,0,0,3.47-1.28A4.89,4.89,0,0,0,263.77,86.89Z"/><path class="cls-2" d="M292.57,82.79a5.13,5.13,0,0,1-.8,2.79,6.54,6.54,0,0,1-2.26,2.13,12.29,12.29,0,0,1-3.5,1.38,19.58,19.58,0,0,1-4.59.49l-.54,0c-.2,0-.45,0-.73,0a4.15,4.15,0,0,0,1.35,2.67,4.25,4.25,0,0,0,2.91,1,13.28,13.28,0,0,0,6.63-2v4.72a13.24,13.24,0,0,1-3.26,1.42,13.88,13.88,0,0,1-3.53.43,11.72,11.72,0,0,1-4.08-.68,8.26,8.26,0,0,1-3.08-2A8.63,8.63,0,0,1,275.16,92a11.22,11.22,0,0,1-.68-4,12.46,12.46,0,0,1,.79-4.53,10.55,10.55,0,0,1,2.2-3.53,9.77,9.77,0,0,1,3.4-2.29,11.45,11.45,0,0,1,4.37-.81,8.23,8.23,0,0,1,5.33,1.62A5.29,5.29,0,0,1,292.57,82.79Zm-6,.45A1.57,1.57,0,0,0,286,82a2.32,2.32,0,0,0-1.56-.52,3.53,3.53,0,0,0-2.56,1.06,4.93,4.93,0,0,0-1.38,2.9,3.69,3.69,0,0,0,.71.09h.67Q286.59,85.53,286.59,83.24Z"/><path class="cls-2" d="M311,82.88q-.63-.13-1-.18a6.51,6.51,0,0,0-.81,0,4.57,4.57,0,0,0-3.89,1.76A8.55,8.55,0,0,0,304,89.63v7.51h-6v-13c0-.73,0-1.37,0-1.91a13.9,13.9,0,0,0-.11-1.52,13.05,13.05,0,0,0-.25-1.39c-.1-.45-.24-1-.42-1.56h5.68c.09.37.18.68.25.94a6,6,0,0,1,.17.74c0,.23.06.48.09.74a8.65,8.65,0,0,1,0,.95A10.35,10.35,0,0,1,306,78.19a5,5,0,0,1,2.86-.85,4,4,0,0,1,1.06.12,9.74,9.74,0,0,1,1.19.43Z"/><path class="cls-2" d="M330.37,97.14V81.62h-4V77.34h4v-5h5.9v5h5.08v4.28h-5.08V97.14Z"/><path class="cls-2" d="M363.27,87.18a11.45,11.45,0,0,1-.74,4.26,8.54,8.54,0,0,1-2.11,3.11,8.92,8.92,0,0,1-3.27,1.93,13.92,13.92,0,0,1-8.47,0,8.92,8.92,0,0,1-3.27-1.93,8.71,8.71,0,0,1-2.13-3.11,12.19,12.19,0,0,1,0-8.42,8.69,8.69,0,0,1,2.08-3.09A8.9,8.9,0,0,1,348.61,78a14.35,14.35,0,0,1,8.54,0,9,9,0,0,1,3.27,1.88,8.5,8.5,0,0,1,2.11,3.1A11.31,11.31,0,0,1,363.27,87.18Zm-6,0a4.15,4.15,0,0,0-4.46-4.53,4.18,4.18,0,0,0-3.2,1.19,4.73,4.73,0,0,0-1.11,3.34,5,5,0,0,0,1.09,3.44,4.09,4.09,0,0,0,3.22,1.21,4.4,4.4,0,0,0,3.3-1.19A4.79,4.79,0,0,0,357.28,87.18Z"/><path class="cls-2" d="M395.24,96.78a13.87,13.87,0,0,1-3.22.36,10.77,10.77,0,0,1-4-.71,9.74,9.74,0,0,1-3.13-2,8.48,8.48,0,0,1-2.05-3,10.24,10.24,0,0,1-.72-3.91,12.4,12.4,0,0,1,.66-4.12,8.39,8.39,0,0,1,2-3.24,9.1,9.1,0,0,1,3.28-2.11,12.76,12.76,0,0,1,4.57-.75,10.56,10.56,0,0,1,3.44.47,12.72,12.72,0,0,1,2.23,1l-1,5.17c-.45-.21-.83-.4-1.14-.56a8.56,8.56,0,0,0-.9-.41,4.41,4.41,0,0,0-.95-.22,8.84,8.84,0,0,0-1.24-.07A4.64,4.64,0,0,0,389.59,84a4.51,4.51,0,0,0-1.22,3.32,4.38,4.38,0,0,0,1.26,3.33,5.06,5.06,0,0,0,3.65,1.21,10,10,0,0,0,2.34-.27A13.55,13.55,0,0,0,398,90.7l.41,4.89A15.79,15.79,0,0,1,395.24,96.78Z"/><path class="cls-2" d="M403.27,97.14V65.78h6V97.14Z"/><path class="cls-2" d="M433.42,82.79a5.13,5.13,0,0,1-.8,2.79,6.72,6.72,0,0,1-2.26,2.13,12.25,12.25,0,0,1-3.51,1.38,19.49,19.49,0,0,1-4.58.49l-.54,0c-.21,0-.45,0-.73,0a4.15,4.15,0,0,0,1.35,2.67,4.25,4.25,0,0,0,2.91,1,13.34,13.34,0,0,0,6.63-2v4.72a13.24,13.24,0,0,1-3.26,1.42,14,14,0,0,1-3.54.43,11.66,11.66,0,0,1-4.07-.68,8.26,8.26,0,0,1-3.08-2A8.65,8.65,0,0,1,416,92a11.22,11.22,0,0,1-.67-4,12.46,12.46,0,0,1,.79-4.53,10.55,10.55,0,0,1,2.2-3.53,9.77,9.77,0,0,1,3.4-2.29,11.4,11.4,0,0,1,4.36-.81,8.26,8.26,0,0,1,5.34,1.62A5.29,5.29,0,0,1,433.42,82.79Zm-6,.45a1.56,1.56,0,0,0-.61-1.24,2.33,2.33,0,0,0-1.56-.52,3.55,3.55,0,0,0-2.57,1.06,5,5,0,0,0-1.38,2.9,3.87,3.87,0,0,0,.72.09h.66Q427.43,85.53,427.43,83.24Z"/><path class="cls-2" d="M452.18,97.14c0-.21,0-.46-.05-.76s-.05-.53-.07-.86,0-.67-.07-1a7,7,0,0,1-2.93,2.31,9.38,9.38,0,0,1-3.83.79,7.1,7.1,0,0,1-5.75-2.43q-2.06-2.43-2.06-6.93c0-3.63,1.11-6.43,3.31-8.39s5.35-3,9.42-3c.67,0,1.28,0,1.83,0s1.09.08,1.64.15,1.11.18,1.69.3,1.21.28,1.91.49V90.66c0,.69,0,1.42,0,2.18s.07,1.47.13,2.1.12,1.48.18,2.2Zm-.94-14.67a9.15,9.15,0,0,0-1.42-.22c-.43,0-.83,0-1.19,0a4.8,4.8,0,0,0-3.85,1.6,6.6,6.6,0,0,0-1.37,4.43,4.4,4.4,0,0,0,.82,2.88,2.88,2.88,0,0,0,2.34,1,4.16,4.16,0,0,0,1.81-.4,4.56,4.56,0,0,0,1.48-1.15,5.44,5.44,0,0,0,1-1.76,6.47,6.47,0,0,0,.37-2.27Z"/><path class="cls-2" d="M476.62,97.14V85.9a4.47,4.47,0,0,0-.3-1.82,2.47,2.47,0,0,0-.69-1,1.72,1.72,0,0,0-.86-.39,4.64,4.64,0,0,0-.76-.07,4.87,4.87,0,0,0-.95.17,3.32,3.32,0,0,0-1.37.83,5.49,5.49,0,0,0-1.24,1.91,8.71,8.71,0,0,0-.54,3.38v8.2h-6V84.05a22.35,22.35,0,0,0-.27-3.41,11.08,11.08,0,0,0-.72-2.76h6a7.78,7.78,0,0,1,.38,1,11.57,11.57,0,0,1,.25,1.17A9.33,9.33,0,0,1,472.64,78a8.87,8.87,0,0,1,3.35-.68,6.53,6.53,0,0,1,2.62.53,6.34,6.34,0,0,1,2.1,1.46,7,7,0,0,1,1.39,2.33,9,9,0,0,1,.5,3.08v12.4Z"/><path class="cls-2" d="M517.3,96.6a9.87,9.87,0,0,1-.39-1q-.1-.41-.24-1.17a8.82,8.82,0,0,1-6.35,2.74,6.49,6.49,0,0,1-2.68-.55,6.79,6.79,0,0,1-2.16-1.51,6.54,6.54,0,0,1-1.41-2.32,8.73,8.73,0,0,1-.5-3q0-1.84.09-3.42c.06-1,.11-2.06.14-3s0-1.93,0-2.89-.11-2-.23-3.07h6c.09,1,.14,1.93.15,2.84s0,1.82,0,2.71,0,1.81-.09,2.74-.06,1.91-.06,3a4.84,4.84,0,0,0,.28,1.84,2.17,2.17,0,0,0,.72,1,2.32,2.32,0,0,0,.92.37,6.43,6.43,0,0,0,.8.06,5.06,5.06,0,0,0,1-.17,3.1,3.1,0,0,0,1.35-.83,5.32,5.32,0,0,0,1.2-1.91,9.11,9.11,0,0,0,.52-3.38v-8.2h6V90.43a22.25,22.25,0,0,0,.27,3.41,11.08,11.08,0,0,0,.72,2.76Z"/><path class="cls-2" d="M549.29,86.07a15.1,15.1,0,0,1-.63,4.5,10.79,10.79,0,0,1-1.78,3.5,7.91,7.91,0,0,1-2.73,2.27,7.63,7.63,0,0,1-3.49.8,7.5,7.5,0,0,1-2.36-.31,7.09,7.09,0,0,1-2-1.16v14.88H530V83.27c0-.32,0-.7-.07-1.14s-.11-.91-.18-1.4-.17-1-.27-1.46a11.23,11.23,0,0,0-.38-1.34h6.1a5,5,0,0,1,.32.87A8.93,8.93,0,0,1,535.7,80,9.73,9.73,0,0,1,538.41,78a7.19,7.19,0,0,1,3.11-.63,7.8,7.8,0,0,1,3.17.63,7,7,0,0,1,2.45,1.77,8.18,8.18,0,0,1,1.59,2.77A10.94,10.94,0,0,1,549.29,86.07Zm-6,1a4.26,4.26,0,0,0-.9-2.89,3.09,3.09,0,0,0-2.47-1,3.53,3.53,0,0,0-2.9,1.32A5.51,5.51,0,0,0,536,88v2.6a4.75,4.75,0,0,0,3.19,1.2,3.83,3.83,0,0,0,3-1.26A5.12,5.12,0,0,0,543.31,87.07Z"/><path class="cls-2" d="M583.31,97.14c0-.21,0-.46,0-.76s-.06-.53-.07-.86,0-.67-.07-1a7,7,0,0,1-2.93,2.31,9.43,9.43,0,0,1-3.84.79,7.12,7.12,0,0,1-5.75-2.43q-2.05-2.43-2.05-6.93,0-5.45,3.31-8.39t9.42-3c.67,0,1.28,0,1.82,0s1.1.08,1.65.15,1.11.18,1.68.3,1.22.28,1.92.49V90.66c0,.69,0,1.42,0,2.18s.07,1.47.13,2.1.12,1.48.18,2.2Zm-.94-14.67a9.33,9.33,0,0,0-1.42-.22c-.43,0-.83,0-1.2,0a4.78,4.78,0,0,0-3.84,1.6,6.54,6.54,0,0,0-1.37,4.43,4.4,4.4,0,0,0,.82,2.88,2.87,2.87,0,0,0,2.33,1,4.1,4.1,0,0,0,1.81-.4A4.6,4.6,0,0,0,581,90.55a5.63,5.63,0,0,0,1-1.76,6.71,6.71,0,0,0,.37-2.27Z"/><path class="cls-2" d="M609.05,71.31a8.66,8.66,0,0,0-1.62-.61,6.87,6.87,0,0,0-1.48-.15,4.12,4.12,0,0,0-1.85.36A2.54,2.54,0,0,0,603,72.05a6.48,6.48,0,0,0-.56,2.1,28.27,28.27,0,0,0-.16,3.19H607v4.37H602.3V97.14h-6V81.62h-3.73V77.34h3.64a26.21,26.21,0,0,1,.5-5.56,9,9,0,0,1,1.51-3.55,5.45,5.45,0,0,1,2.52-1.89,9.77,9.77,0,0,1,3.48-.56,15.58,15.58,0,0,1,5.36.9Z"/><path class="cls-2" d="M612,97.14V81.62h-4V77.34h4v-5h5.89v5H623v4.28h-5.09V97.14Z"/><path class="cls-2" d="M642.44,82.79a5.13,5.13,0,0,1-.8,2.79,6.63,6.63,0,0,1-2.26,2.13,12.29,12.29,0,0,1-3.5,1.38,19.64,19.64,0,0,1-4.59.49l-.54,0c-.21,0-.45,0-.73,0a4.15,4.15,0,0,0,1.35,2.67,4.25,4.25,0,0,0,2.91,1,13.34,13.34,0,0,0,6.63-2v4.72a13.24,13.24,0,0,1-3.26,1.42,14,14,0,0,1-3.54.43,11.66,11.66,0,0,1-4.07-.68,8.26,8.26,0,0,1-3.08-2A8.65,8.65,0,0,1,625,92a11.22,11.22,0,0,1-.67-4,12.46,12.46,0,0,1,.79-4.53,10.55,10.55,0,0,1,2.2-3.53,9.77,9.77,0,0,1,3.4-2.29,11.4,11.4,0,0,1,4.36-.81,8.26,8.26,0,0,1,5.34,1.62A5.29,5.29,0,0,1,642.44,82.79Zm-6,.45a1.56,1.56,0,0,0-.61-1.24,2.32,2.32,0,0,0-1.56-.52,3.51,3.51,0,0,0-2.56,1.06,5,5,0,0,0-1.39,2.9,3.87,3.87,0,0,0,.72.09h.67Q636.44,85.53,636.45,83.24Z"/><path class="cls-2" d="M660.89,82.88q-.63-.13-1-.18a6.51,6.51,0,0,0-.81,0,4.57,4.57,0,0,0-3.89,1.76,8.55,8.55,0,0,0-1.33,5.22v7.51h-6v-13c0-.73,0-1.37,0-1.91a13.9,13.9,0,0,0-.11-1.52,13.05,13.05,0,0,0-.25-1.39c-.1-.45-.25-1-.43-1.56h5.68c.1.37.18.68.26.94a4.49,4.49,0,0,1,.16.74c0,.23.06.48.1.74a8.65,8.65,0,0,1,0,.95,10.2,10.2,0,0,1,2.56-2.94,5,5,0,0,1,2.86-.85,4,4,0,0,1,1.06.12,9.74,9.74,0,0,1,1.19.43Z"/><path class="cls-2" d="M695.94,82.79a5,5,0,0,1-.8,2.79,6.54,6.54,0,0,1-2.26,2.13,12.29,12.29,0,0,1-3.5,1.38,19.52,19.52,0,0,1-4.59.49l-.54,0c-.2,0-.45,0-.73,0a4.15,4.15,0,0,0,1.35,2.67,4.25,4.25,0,0,0,2.91,1,13.28,13.28,0,0,0,6.63-2v4.72a13.24,13.24,0,0,1-3.26,1.42,13.88,13.88,0,0,1-3.53.43,11.62,11.62,0,0,1-4.07-.68,8.22,8.22,0,0,1-3.09-2A8.63,8.63,0,0,1,678.53,92a11.22,11.22,0,0,1-.68-4,12.67,12.67,0,0,1,.79-4.53A10.41,10.41,0,0,1,680.85,80a9.64,9.64,0,0,1,3.39-2.29,11.45,11.45,0,0,1,4.37-.81,8.21,8.21,0,0,1,5.33,1.62A5.26,5.26,0,0,1,695.94,82.79Zm-6,.45a1.57,1.57,0,0,0-.62-1.24,2.31,2.31,0,0,0-1.55-.52,3.54,3.54,0,0,0-2.57,1.06,5,5,0,0,0-1.38,2.9,3.69,3.69,0,0,0,.71.09h.67Q690,85.53,690,83.24Z"/><path class="cls-2" d="M714.71,97.14c0-.21,0-.46-.05-.76s-.06-.53-.07-.86,0-.67-.07-1a7.07,7.07,0,0,1-2.94,2.31,9.38,9.38,0,0,1-3.83.79A7.12,7.12,0,0,1,702,95.16q-2.06-2.43-2-6.93,0-5.45,3.31-8.39t9.42-3c.67,0,1.27,0,1.82,0s1.1.08,1.64.15,1.11.18,1.69.3,1.22.28,1.92.49V90.66c0,.69,0,1.42,0,2.18s.08,1.47.14,2.1.12,1.48.18,2.2Zm-1-14.67a9.15,9.15,0,0,0-1.42-.22c-.42,0-.82,0-1.19,0a4.76,4.76,0,0,0-3.84,1.6,6.55,6.55,0,0,0-1.38,4.43,4.4,4.4,0,0,0,.83,2.88,2.86,2.86,0,0,0,2.33,1,4.13,4.13,0,0,0,1.81-.4,4.6,4.6,0,0,0,1.49-1.15,5.63,5.63,0,0,0,1-1.76,6.72,6.72,0,0,0,.36-2.27Z"/><path class="cls-2" d="M727.4,97.14V81.62h-4V77.34h4v-5h5.89v5h5.09v4.28h-5.09V97.14Z"/><path class="cls-2" d="M749,71.9a2.48,2.48,0,0,1-1,2,4.18,4.18,0,0,1-5,0,2.7,2.7,0,0,1-1.08-2.06,2.43,2.43,0,0,1,1-2.06,4,4,0,0,1,2.61-.84,4.08,4.08,0,0,1,1.33.22,4,4,0,0,1,1.13.63,3.4,3.4,0,0,1,.76,1A2.52,2.52,0,0,1,749,71.9ZM742.2,97.14V77.34h6v19.8Z"/><path class="cls-2" d="M767.76,97.14V85.9a4.67,4.67,0,0,0-.29-1.82,2.59,2.59,0,0,0-.7-1,1.69,1.69,0,0,0-.85-.39,4.75,4.75,0,0,0-.77-.07,4.81,4.81,0,0,0-.94.17,3.41,3.41,0,0,0-1.38.83,5.63,5.63,0,0,0-1.23,1.91,8.71,8.71,0,0,0-.54,3.38v8.2h-6V84.05a22.35,22.35,0,0,0-.27-3.41,11.08,11.08,0,0,0-.72-2.76h6a9.5,9.5,0,0,1,.38,1c.07.27.16.66.25,1.17A9.29,9.29,0,0,1,763.78,78a9,9,0,0,1,3.35-.68,6.57,6.57,0,0,1,2.63.53,6.41,6.41,0,0,1,2.09,1.46,6.82,6.82,0,0,1,1.39,2.33,8.8,8.8,0,0,1,.51,3.08v12.4Z"/><path class="cls-2" d="M799.89,97.77a20.82,20.82,0,0,1-.76,6.1,10.62,10.62,0,0,1-2.06,3.94,7.52,7.52,0,0,1-3.1,2.13,11.26,11.26,0,0,1-3.91.66,34.39,34.39,0,0,1-4-.25,14.54,14.54,0,0,1-3.79-1v-4.54a24.11,24.11,0,0,0,3.44,1,14.7,14.7,0,0,0,2.9.34,5.09,5.09,0,0,0,2.16-.45,4.22,4.22,0,0,0,1.67-1.44,7.52,7.52,0,0,0,1.09-2.61,16.91,16.91,0,0,0,.39-3.91v-2a6.76,6.76,0,0,1-2.57,1.5,10.25,10.25,0,0,1-2.79.34,8.82,8.82,0,0,1-3.51-.67A7.67,7.67,0,0,1,782.36,95a8.74,8.74,0,0,1-1.71-3,11.73,11.73,0,0,1-.6-3.85,11.43,11.43,0,0,1,.93-4.7A9.93,9.93,0,0,1,783.65,80a11.86,11.86,0,0,1,4.2-2.27,18,18,0,0,1,5.56-.79l1.69,0q.74,0,1.44.12t1.5.24c.54.11,1.15.25,1.85.43Zm-6-15c-.53-.09-.92-.15-1.19-.18a9.75,9.75,0,0,0-1,0A5.66,5.66,0,0,0,787.54,84,5.33,5.33,0,0,0,786,88a3.79,3.79,0,0,0,1,2.83,3.36,3.36,0,0,0,2.47,1,7.34,7.34,0,0,0,1.63-.18,2.9,2.9,0,0,0,1.41-.81,4.42,4.42,0,0,0,1-1.82,11.52,11.52,0,0,0,.37-3.22Z"/><path class="cls-2" d="M838,103.61a9.86,9.86,0,0,1-2,4.14,7.07,7.07,0,0,1-3.42,2.18,17.6,17.6,0,0,1-5,.62,15,15,0,0,1-2.9-.29c-1-.2-2-.46-3-.79V105c1,.08,1.93.14,2.82.19s1.77.07,2.64.07a6.46,6.46,0,0,0,2.41-.41,3.64,3.64,0,0,0,1.67-1.37,6.31,6.31,0,0,0,1-2.5,20.45,20.45,0,0,0,.3-3.82V94.71a7.73,7.73,0,0,1-5.63,2.43,6.42,6.42,0,0,1-2.59-.53,6,6,0,0,1-2.14-1.52,7.39,7.39,0,0,1-1.43-2.37,8.6,8.6,0,0,1-.54-3.15c0-1,0-2.06,0-3s0-1.94,0-2.91,0-2,0-3-.06-2.13-.15-3.3h6c.09,1.19.14,2.3.16,3.32s0,2,0,2.88,0,1.77,0,2.59,0,1.66,0,2.47a3.69,3.69,0,0,0,.67,2.47,2.38,2.38,0,0,0,1.9.76,3.6,3.6,0,0,0,2.76-1.24,4.72,4.72,0,0,0,1.15-3.34V77.34h6v19.8A27.88,27.88,0,0,1,838,103.61Z"/><path class="cls-2" d="M865.19,87.18a11.45,11.45,0,0,1-.74,4.26,8.54,8.54,0,0,1-2.11,3.11,8.92,8.92,0,0,1-3.27,1.93,13.92,13.92,0,0,1-8.47,0,8.92,8.92,0,0,1-3.27-1.93,8.71,8.71,0,0,1-2.13-3.11,12.19,12.19,0,0,1,0-8.42,8.69,8.69,0,0,1,2.08-3.09A8.9,8.9,0,0,1,850.53,78a14.35,14.35,0,0,1,8.54,0,9,9,0,0,1,3.27,1.88,8.5,8.5,0,0,1,2.11,3.1A11.31,11.31,0,0,1,865.19,87.18Zm-6,0a4.15,4.15,0,0,0-4.46-4.53,4.18,4.18,0,0,0-3.2,1.19,4.73,4.73,0,0,0-1.11,3.34,5,5,0,0,0,1.09,3.44,4.09,4.09,0,0,0,3.22,1.21,4.4,4.4,0,0,0,3.3-1.19A4.79,4.79,0,0,0,859.2,87.18Z"/><path class="cls-2" d="M884.4,96.6a7.73,7.73,0,0,1-.38-1,11.57,11.57,0,0,1-.25-1.17,8.82,8.82,0,0,1-6.35,2.74,6.41,6.41,0,0,1-2.67-.55,6.58,6.58,0,0,1-2.16-1.51,6.42,6.42,0,0,1-1.42-2.32,8.73,8.73,0,0,1-.5-3q0-1.84.09-3.42c.06-1,.11-2.06.14-3s0-1.93,0-2.89-.11-2-.23-3.07h6c.09,1,.14,1.93.16,2.84s0,1.82,0,2.71-.05,1.81-.09,2.74-.07,1.91-.07,3a4.84,4.84,0,0,0,.28,1.84,2.18,2.18,0,0,0,.73,1,2.22,2.22,0,0,0,.91.37,6.43,6.43,0,0,0,.8.06,4.82,4.82,0,0,0,1-.17,3.19,3.19,0,0,0,1.36-.83,5.45,5.45,0,0,0,1.19-1.91,8.91,8.91,0,0,0,.52-3.38v-8.2h6V90.43a22.25,22.25,0,0,0,.27,3.41,11.08,11.08,0,0,0,.72,2.76Z"/><path class="cls-2" d="M910.32,82.88q-.63-.13-1-.18a6.51,6.51,0,0,0-.81,0,4.57,4.57,0,0,0-3.89,1.76,8.55,8.55,0,0,0-1.33,5.22v7.51h-6v-13c0-.73,0-1.37,0-1.91a13.9,13.9,0,0,0-.11-1.52,13.05,13.05,0,0,0-.25-1.39c-.1-.45-.25-1-.43-1.56h5.69c.09.37.17.68.25.94a4.49,4.49,0,0,1,.16.74c0,.23.06.48.1.74a8.65,8.65,0,0,1,0,.95,10.2,10.2,0,0,1,2.56-2.94,5,5,0,0,1,2.86-.85,4,4,0,0,1,1.06.12,9.74,9.74,0,0,1,1.19.43Z"/><path class="cls-2" d="M942.45,91.65a5.68,5.68,0,0,1-1.91,4.5,7.89,7.89,0,0,1-5.36,1.67,22.32,22.32,0,0,1-4.56-.45A13.59,13.59,0,0,1,927,96.15l.77-4.59a15.37,15.37,0,0,0,6.84,2,2,2,0,0,0,1.42-.43,1.36,1.36,0,0,0,.42-1,1.74,1.74,0,0,0-.33-1.1A5.18,5.18,0,0,0,934.48,90a27.22,27.22,0,0,1-3.17-1.62,10.6,10.6,0,0,1-2.16-1.69,5.61,5.61,0,0,1-1.21-1.86,6.1,6.1,0,0,1-.39-2.25,5.08,5.08,0,0,1,2.18-4.39,9.52,9.52,0,0,1,5.68-1.55,17.17,17.17,0,0,1,3.36.29,15.23,15.23,0,0,1,3.36,1.15l-.72,4.54a10.87,10.87,0,0,0-3.1-1.24,14.11,14.11,0,0,0-2.95-.33,2,2,0,0,0-1.43.38,1.34,1.34,0,0,0-.39,1,1.48,1.48,0,0,0,.62,1.24A13,13,0,0,0,936.55,85a26.55,26.55,0,0,1,2.73,1.55A9.19,9.19,0,0,1,941.13,88a4.85,4.85,0,0,1,1,1.66A5.8,5.8,0,0,1,942.45,91.65Z"/><path class="cls-2" d="M960.94,97.14V85.9a4.49,4.49,0,0,0-.29-1.82,2.59,2.59,0,0,0-.7-1,1.69,1.69,0,0,0-.85-.39,4.75,4.75,0,0,0-.77-.07,4.81,4.81,0,0,0-.94.17,3.32,3.32,0,0,0-1.37.83,5.49,5.49,0,0,0-1.24,1.91,8.71,8.71,0,0,0-.54,3.38v8.2h-6V84.05a22.35,22.35,0,0,0-.27-3.41,11.08,11.08,0,0,0-.72-2.76h6a7.78,7.78,0,0,1,.38,1c.07.27.16.66.25,1.17A9.39,9.39,0,0,1,957,78a9,9,0,0,1,3.36-.68,6.56,6.56,0,0,1,2.62.53A6.3,6.3,0,0,1,965,79.33a6.82,6.82,0,0,1,1.39,2.33,8.8,8.8,0,0,1,.51,3.08v12.4Z"/><path class="cls-2" d="M988,97.14c0-.21,0-.46,0-.76s-.05-.53-.07-.86,0-.67-.07-1a7,7,0,0,1-2.93,2.31,9.42,9.42,0,0,1-3.83.79,7.13,7.13,0,0,1-5.76-2.43c-1.36-1.62-2.05-3.93-2.05-6.93q0-5.45,3.31-8.39t9.42-3c.67,0,1.28,0,1.83,0s1.09.08,1.64.15,1.11.18,1.69.3,1.21.28,1.91.49V90.66c0,.69,0,1.42,0,2.18s.07,1.47.13,2.1.12,1.48.18,2.2Zm-.94-14.67a9.33,9.33,0,0,0-1.42-.22c-.43,0-.83,0-1.19,0a4.8,4.8,0,0,0-3.85,1.6,6.54,6.54,0,0,0-1.37,4.43,4.4,4.4,0,0,0,.82,2.88,2.88,2.88,0,0,0,2.34,1,4.16,4.16,0,0,0,1.81-.4,4.56,4.56,0,0,0,1.48-1.15,5.44,5.44,0,0,0,1-1.76,6.71,6.71,0,0,0,.37-2.27Z"/><path class="cls-2" d="M1011.9,96.78a13.73,13.73,0,0,1-3.21.36,10.77,10.77,0,0,1-4-.71,9.63,9.63,0,0,1-3.13-2,8.35,8.35,0,0,1-2.05-3,10.24,10.24,0,0,1-.72-3.91,12.67,12.67,0,0,1,.65-4.12,8.64,8.64,0,0,1,2-3.24,9.14,9.14,0,0,1,3.29-2.11,12.73,12.73,0,0,1,4.57-.75,10.6,10.6,0,0,1,3.44.47,13.07,13.07,0,0,1,2.23,1L1014,84l-1.15-.56a7,7,0,0,0-.9-.41,4.32,4.32,0,0,0-.94-.22,8.94,8.94,0,0,0-1.24-.07,4.64,4.64,0,0,0-3.46,1.23,4.51,4.51,0,0,0-1.22,3.32,4.38,4.38,0,0,0,1.26,3.33,5.06,5.06,0,0,0,3.65,1.21,10,10,0,0,0,2.34-.27,13.55,13.55,0,0,0,2.38-.86l.41,4.89A15.64,15.64,0,0,1,1011.9,96.78Z"/><path class="cls-2" d="M1031.73,85.44l9.58,11.7h-7.92l-7.47-9.76v9.76h-6V65.78h6V83.87l7.29-6.53h8.6Z"/><path class="cls-2" d="M1053.46,94.37a2.4,2.4,0,0,1-1,2,3.91,3.91,0,0,1-2.49.8,3.85,3.85,0,0,1-2.51-.85,2.61,2.61,0,0,1-.06-4.12,3.53,3.53,0,0,1,2.39-.83,3.93,3.93,0,0,1,2.62.89A2.71,2.71,0,0,1,1053.46,94.37Z"/></svg>