<svg id="Layer_1" data-name="Layer 1" xmlns="http://www.w3.org/2000/svg" viewBox="0 0 1156.67 169.53"><defs><style>.cls-1{fill:#3172c2;stroke:#fff;stroke-miterlimit:10;stroke-width:2px;}.cls-2{fill:#fff;}</style></defs><rect class="cls-1" x="212.78" y="46.25" width="731.11" height="78.15" rx="39.07"/><path class="cls-2" d="M319.72,71.6V97.7h-7.06V71.55h-8.37V66.29H328V71.6Z"/><path class="cls-2" d="M340.06,97.7c0-.21,0-.47-.05-.77s-.05-.52-.07-.85,0-.68-.07-1a7.06,7.06,0,0,1-2.93,2.32,9.38,9.38,0,0,1-3.83.79,7.1,7.1,0,0,1-5.75-2.43q-2.06-2.43-2.06-6.93c0-3.63,1.11-6.43,3.31-8.4S334,77.45,338,77.45c.67,0,1.28,0,1.83,0s1.09.09,1.64.16,1.11.17,1.69.29,1.21.29,1.91.5V91.22c0,.69,0,1.42,0,2.18s.07,1.46.13,2.09.12,1.49.18,2.21ZM339.12,83a9.25,9.25,0,0,0-1.42-.23c-.43,0-.83,0-1.19,0a4.82,4.82,0,0,0-3.85,1.59,6.64,6.64,0,0,0-1.37,4.44,4.4,4.4,0,0,0,.82,2.88,2.88,2.88,0,0,0,2.34,1,4.17,4.17,0,0,0,1.81-.41,4.43,4.43,0,0,0,1.48-1.15,5.39,5.39,0,0,0,1-1.75,6.47,6.47,0,0,0,.37-2.27Z"/><path class="cls-2" d="M363.55,86l9.59,11.7h-7.92l-7.47-9.77V97.7h-6V66.33h6V84.42L365,77.9h8.59Z"/><path class="cls-2" d="M393.34,83.34a5,5,0,0,1-.8,2.79,6.72,6.72,0,0,1-2.25,2.14,12.79,12.79,0,0,1-3.51,1.37,19.5,19.5,0,0,1-4.59.5l-.54,0-.73,0a4.17,4.17,0,0,0,1.35,2.68,4.26,4.26,0,0,0,2.92,1,13.3,13.3,0,0,0,6.62-2v4.73a12.82,12.82,0,0,1-3.26,1.41,13.44,13.44,0,0,1-3.53.43,11.62,11.62,0,0,1-4.07-.67,8.22,8.22,0,0,1-3.09-2,8.63,8.63,0,0,1-1.93-3.06,11.31,11.31,0,0,1-.68-4A12.62,12.62,0,0,1,376,84a10.57,10.57,0,0,1,2.21-3.53,9.66,9.66,0,0,1,3.39-2.3A11.45,11.45,0,0,1,386,77.4,8.21,8.21,0,0,1,391.34,79,5.26,5.26,0,0,1,393.34,83.34Zm-6,.45a1.59,1.59,0,0,0-.62-1.24,2.35,2.35,0,0,0-1.55-.51,3.54,3.54,0,0,0-2.57,1.06,5,5,0,0,0-1.38,2.9,3.69,3.69,0,0,0,.71.09h.67Q387.36,86.09,387.36,83.79Z"/><path class="cls-2" d="M424.46,97.33a13.35,13.35,0,0,1-3.22.37,10.77,10.77,0,0,1-4-.71,9.77,9.77,0,0,1-3.13-2,8.5,8.5,0,0,1-2-3,10.27,10.27,0,0,1-.72-3.91A12.67,12.67,0,0,1,412,84a8.5,8.5,0,0,1,2-3.25,9,9,0,0,1,3.29-2.1,12.67,12.67,0,0,1,4.56-.75,10.4,10.4,0,0,1,3.45.47,12.25,12.25,0,0,1,2.22,1l-1,5.18c-.45-.21-.83-.4-1.15-.57a9.64,9.64,0,0,0-.9-.4,4.46,4.46,0,0,0-.94-.23,11.05,11.05,0,0,0-1.24-.06,4.7,4.7,0,0,0-3.47,1.22,4.52,4.52,0,0,0-1.21,3.32,4.4,4.4,0,0,0,1.26,3.34,5.08,5.08,0,0,0,3.64,1.21,9.49,9.49,0,0,0,2.34-.28,12.87,12.87,0,0,0,2.39-.86l.4,4.9A15.14,15.14,0,0,1,424.46,97.33Z"/><path class="cls-2" d="M446.3,97.7c0-.21,0-.47,0-.77s-.06-.52-.07-.85,0-.68-.07-1a7.09,7.09,0,0,1-2.94,2.32,9.38,9.38,0,0,1-3.83.79,7.11,7.11,0,0,1-5.75-2.43q-2.06-2.43-2.05-6.93,0-5.45,3.31-8.4t9.42-2.94c.66,0,1.27,0,1.82,0s1.09.09,1.64.16,1.11.17,1.69.29,1.22.29,1.92.5V91.22c0,.69,0,1.42,0,2.18s.08,1.46.14,2.09.12,1.49.18,2.21ZM445.36,83a9.25,9.25,0,0,0-1.42-.23c-.42,0-.82,0-1.19,0a4.82,4.82,0,0,0-3.85,1.59,6.64,6.64,0,0,0-1.37,4.44,4.4,4.4,0,0,0,.83,2.88,2.84,2.84,0,0,0,2.33,1,4.14,4.14,0,0,0,1.81-.41A4.46,4.46,0,0,0,444,91.1a5.58,5.58,0,0,0,1-1.75,6.72,6.72,0,0,0,.36-2.27Z"/><path class="cls-2" d="M471.51,83.43q-.63-.14-1-.18a6.65,6.65,0,0,0-.81,0,4.6,4.6,0,0,0-3.9,1.75,8.67,8.67,0,0,0-1.32,5.23V97.7h-6v-13c0-.73,0-1.37,0-1.92s-.05-1-.11-1.52-.15-.93-.25-1.38-.25-1-.43-1.57h5.68c.1.37.18.69.26,1a4.49,4.49,0,0,1,.16.74c0,.23.06.48.09.74a8.2,8.2,0,0,1,.05.94,10.13,10.13,0,0,1,2.56-2.93,4.9,4.9,0,0,1,2.86-.85,4.39,4.39,0,0,1,1,.11,11.51,11.51,0,0,1,1.2.44Z"/><path class="cls-2" d="M491.44,83.34a5.13,5.13,0,0,1-.8,2.79,6.66,6.66,0,0,1-2.26,2.14,12.59,12.59,0,0,1-3.5,1.37,19.62,19.62,0,0,1-4.59.5l-.54,0-.73,0a4.17,4.17,0,0,0,1.35,2.68,4.25,4.25,0,0,0,2.91,1,13.3,13.3,0,0,0,6.63-2v4.73a12.82,12.82,0,0,1-3.26,1.41,13.44,13.44,0,0,1-3.53.43,11.72,11.72,0,0,1-4.08-.67,8.26,8.26,0,0,1-3.08-2A8.63,8.63,0,0,1,474,92.59a11.31,11.31,0,0,1-.68-4,12.4,12.4,0,0,1,.79-4.52,10.55,10.55,0,0,1,2.2-3.53,9.79,9.79,0,0,1,3.4-2.3,11.45,11.45,0,0,1,4.37-.81A8.23,8.23,0,0,1,489.44,79,5.29,5.29,0,0,1,491.44,83.34Zm-6,.45a1.59,1.59,0,0,0-.62-1.24,2.36,2.36,0,0,0-1.56-.51,3.53,3.53,0,0,0-2.56,1.06,4.93,4.93,0,0,0-1.38,2.9,3.69,3.69,0,0,0,.71.09h.67Q485.46,86.09,485.46,83.79Z"/><path class="cls-2" d="M530,87.73a11.47,11.47,0,0,1-.74,4.27,8.71,8.71,0,0,1-2.11,3.11A9.06,9.06,0,0,1,523.89,97a13.92,13.92,0,0,1-8.47,0,9.06,9.06,0,0,1-3.27-1.93A8.88,8.88,0,0,1,510,92a11.26,11.26,0,0,1-.76-4.27,11,11,0,0,1,.74-4.15,8.73,8.73,0,0,1,2.08-3.1,9,9,0,0,1,3.27-1.93,14.57,14.57,0,0,1,8.54,0,9.13,9.13,0,0,1,3.27,1.89,8.46,8.46,0,0,1,2.11,3.09A11.38,11.38,0,0,1,530,87.73Zm-6,0a4.15,4.15,0,0,0-4.46-4.53,4.18,4.18,0,0,0-3.2,1.19,4.71,4.71,0,0,0-1.11,3.34,5,5,0,0,0,1.09,3.44,4.13,4.13,0,0,0,3.22,1.21,4.4,4.4,0,0,0,3.3-1.19A4.79,4.79,0,0,0,524,87.74Z"/><path class="cls-2" d="M549.85,71.87a8.66,8.66,0,0,0-1.62-.61,6.22,6.22,0,0,0-1.48-.16,4.15,4.15,0,0,0-1.85.36,2.62,2.62,0,0,0-1.13,1.15,6.68,6.68,0,0,0-.56,2.09,28.74,28.74,0,0,0-.15,3.2h4.77v4.36H543.1V97.7h-6V82.17h-3.74V77.9H537a26.14,26.14,0,0,1,.5-5.56A9,9,0,0,1,539,68.78a5.59,5.59,0,0,1,2.52-1.89,10.06,10.06,0,0,1,3.49-.56,15.57,15.57,0,0,1,5.35.9Z"/><path class="cls-2" d="M585,87.73a11.47,11.47,0,0,1-.73,4.27,8.71,8.71,0,0,1-2.11,3.11A9.06,9.06,0,0,1,578.88,97a13.92,13.92,0,0,1-8.47,0,9.06,9.06,0,0,1-3.27-1.93A8.88,8.88,0,0,1,565,92a12.19,12.19,0,0,1,0-8.42,8.73,8.73,0,0,1,2.08-3.1,9,9,0,0,1,3.27-1.93,14.57,14.57,0,0,1,8.54,0,9.13,9.13,0,0,1,3.27,1.89,8.46,8.46,0,0,1,2.11,3.09A11.39,11.39,0,0,1,585,87.73Zm-6,0a4.15,4.15,0,0,0-4.46-4.53,4.18,4.18,0,0,0-3.2,1.19,4.71,4.71,0,0,0-1.12,3.34,5,5,0,0,0,1.09,3.44,4.16,4.16,0,0,0,3.23,1.21,4.42,4.42,0,0,0,3.3-1.19A4.79,4.79,0,0,0,579,87.74Z"/><path class="cls-2" d="M590.89,97.7V82.17h-4V77.9h4v-5h5.89v5h5.09v4.27h-5.09V97.7Z"/><path class="cls-2" d="M618.07,97.7V86.5a5.77,5.77,0,0,0-.21-1.73,2.4,2.4,0,0,0-.57-1,1.79,1.79,0,0,0-.83-.45,3.82,3.82,0,0,0-1-.11,2.77,2.77,0,0,0-1.5.45,4.78,4.78,0,0,0-1.26,1.24,6.71,6.71,0,0,0-.9,1.84A7.24,7.24,0,0,0,611.5,89V97.7h-6V66.87h5.94V80.15a7,7,0,0,1,2.49-1.74,8.39,8.39,0,0,1,3-.51,9.41,9.41,0,0,1,2.59.35,6.45,6.45,0,0,1,2.26,1.11,5.61,5.61,0,0,1,1.62,2,7,7,0,0,1,.62,3.11V97.7Z"/><path class="cls-2" d="M648.49,83.34a5.13,5.13,0,0,1-.8,2.79,6.85,6.85,0,0,1-2.26,2.14,12.59,12.59,0,0,1-3.5,1.37,19.62,19.62,0,0,1-4.59.5l-.54,0-.73,0a4.17,4.17,0,0,0,1.35,2.68,4.25,4.25,0,0,0,2.91,1,13.36,13.36,0,0,0,6.63-2v4.73a12.82,12.82,0,0,1-3.26,1.41,13.52,13.52,0,0,1-3.54.43,11.66,11.66,0,0,1-4.07-.67,8.26,8.26,0,0,1-3.08-2,8.65,8.65,0,0,1-1.94-3.06,11.32,11.32,0,0,1-.67-4,12.4,12.4,0,0,1,.79-4.52,10.55,10.55,0,0,1,2.2-3.53,9.79,9.79,0,0,1,3.4-2.3,11.4,11.4,0,0,1,4.36-.81A8.26,8.26,0,0,1,646.49,79,5.29,5.29,0,0,1,648.49,83.34Zm-6,.45a1.57,1.57,0,0,0-.61-1.24,2.36,2.36,0,0,0-1.56-.51,3.51,3.51,0,0,0-2.56,1.06,5,5,0,0,0-1.39,2.9,3.87,3.87,0,0,0,.72.09h.67Q642.49,86.09,642.5,83.79Z"/><path class="cls-2" d="M666.94,83.43q-.63-.14-1-.18a6.65,6.65,0,0,0-.81,0A4.56,4.56,0,0,0,661.25,85a8.6,8.6,0,0,0-1.33,5.23V97.7h-6v-13c0-.73,0-1.37,0-1.92a14.09,14.09,0,0,0-.11-1.52,12.87,12.87,0,0,0-.25-1.38c-.11-.46-.25-1-.43-1.57h5.68c.1.37.18.69.26,1a4.49,4.49,0,0,1,.16.74c0,.23.06.48.1.74a8.46,8.46,0,0,1,0,.94,10.28,10.28,0,0,1,2.56-2.93,4.92,4.92,0,0,1,2.86-.85,4.54,4.54,0,0,1,1.06.11,12.43,12.43,0,0,1,1.19.44Z"/><path class="cls-2" d="M678.37,69.21a4.2,4.2,0,0,1-.54,2l-5.49,9.9h-3l2.65-12A3.84,3.84,0,0,1,673.17,67a2.94,2.94,0,0,1,2.05-.74,3.1,3.1,0,0,1,2.22.87A2.75,2.75,0,0,1,678.37,69.21Z"/><path class="cls-2" d="M697.36,92.21a5.68,5.68,0,0,1-1.91,4.5,7.89,7.89,0,0,1-5.36,1.66,22.49,22.49,0,0,1-4.57-.45,13.65,13.65,0,0,1-3.6-1.21l.77-4.59a15.34,15.34,0,0,0,6.84,2,2,2,0,0,0,1.41-.42,1.33,1.33,0,0,0,.43-1,1.73,1.73,0,0,0-.34-1.11,5.17,5.17,0,0,0-1.64-1A26.44,26.44,0,0,1,686.22,89a10.4,10.4,0,0,1-2.16-1.69,5.59,5.59,0,0,1-1.21-1.87,6.1,6.1,0,0,1-.39-2.25,5.09,5.09,0,0,1,2.18-4.39,9.59,9.59,0,0,1,5.68-1.55,17.79,17.79,0,0,1,3.35.29A15.65,15.65,0,0,1,697,78.66l-.72,4.55a10.59,10.59,0,0,0-3.1-1.24,13.5,13.5,0,0,0-3-.34,2.09,2.09,0,0,0-1.44.38,1.41,1.41,0,0,0-.38,1,1.45,1.45,0,0,0,.62,1.23,12.43,12.43,0,0,0,2.39,1.24,28.56,28.56,0,0,1,2.73,1.55A9.87,9.87,0,0,1,696,88.59a4.76,4.76,0,0,1,1,1.66A5.8,5.8,0,0,1,697.36,92.21Z"/><path class="cls-2" d="M718.55,97.7V82.17h-4V77.9h4v-5h5.9v5h5.08v4.27h-5.08V97.7Z"/><path class="cls-2" d="M745.73,97.7V86.5a5.77,5.77,0,0,0-.21-1.73,2.29,2.29,0,0,0-.57-1,1.79,1.79,0,0,0-.83-.45,3.72,3.72,0,0,0-1-.11,2.73,2.73,0,0,0-1.49.45,4.66,4.66,0,0,0-1.27,1.24,6.43,6.43,0,0,0-.89,1.84,7.24,7.24,0,0,0-.35,2.24V97.7h-6V66.87h5.94V80.15a6.94,6.94,0,0,1,2.48-1.74,8.39,8.39,0,0,1,3-.51,9.36,9.36,0,0,1,2.59.35,6.5,6.5,0,0,1,2.27,1.11,5.82,5.82,0,0,1,1.62,2,7.12,7.12,0,0,1,.62,3.11V97.7Z"/><path class="cls-2" d="M765.94,72.46a2.49,2.49,0,0,1-1,2,4.17,4.17,0,0,1-5,0,2.7,2.7,0,0,1-1.08-2.06,2.42,2.42,0,0,1,1-2.07,4.27,4.27,0,0,1,3.93-.61,3.45,3.45,0,0,1,1.13.63,3.23,3.23,0,0,1,.76,1A2.39,2.39,0,0,1,765.94,72.46ZM759.19,97.7V77.9h6V97.7Z"/><path class="cls-2" d="M784.74,97.7V86.46a4.46,4.46,0,0,0-.29-1.82,2.6,2.6,0,0,0-.7-1,1.87,1.87,0,0,0-.85-.39,6,6,0,0,0-.77-.06,4.81,4.81,0,0,0-.94.17,3.22,3.22,0,0,0-1.37.83,5.54,5.54,0,0,0-1.24,1.9A8.77,8.77,0,0,0,778,89.5v8.2h-6V84.61a22.48,22.48,0,0,0-.27-3.42,11.11,11.11,0,0,0-.72-2.75h6a7.73,7.73,0,0,1,.38,1,11.57,11.57,0,0,1,.25,1.17,9.33,9.33,0,0,1,3.09-2.07,8.86,8.86,0,0,1,3.35-.67,6.52,6.52,0,0,1,2.62.52,6.09,6.09,0,0,1,2.09,1.47,6.77,6.77,0,0,1,1.39,2.32,8.86,8.86,0,0,1,.51,3.09V97.7Z"/><path class="cls-2" d="M816.87,98.33a21.19,21.19,0,0,1-.75,6.1,10.73,10.73,0,0,1-2.07,3.93,7.57,7.57,0,0,1-3.1,2.14,11.44,11.44,0,0,1-3.9.65,32.37,32.37,0,0,1-4-.25,14.24,14.24,0,0,1-3.79-1v-4.55a24.3,24.3,0,0,0,3.45,1,14.54,14.54,0,0,0,2.9.34,5.08,5.08,0,0,0,2.15-.45,4.25,4.25,0,0,0,1.68-1.44,7.52,7.52,0,0,0,1.08-2.61,17,17,0,0,0,.39-3.92v-2a6.8,6.8,0,0,1-2.57,1.51,10.25,10.25,0,0,1-2.79.34,8.82,8.82,0,0,1-3.51-.68,7.54,7.54,0,0,1-2.67-1.89,8.38,8.38,0,0,1-1.71-2.94,12.39,12.39,0,0,1,.32-8.55,10.17,10.17,0,0,1,2.67-3.58,12.13,12.13,0,0,1,4.2-2.28,18.42,18.42,0,0,1,5.57-.78l1.68,0c.49,0,1,0,1.44.11s1,.14,1.51.25,1.14.25,1.84.43Zm-6-15-1.18-.18a9.48,9.48,0,0,0-1-.05,5.71,5.71,0,0,0-4.15,1.46,5.38,5.38,0,0,0-1.51,4,3.85,3.85,0,0,0,1,2.84,3.37,3.37,0,0,0,2.48,1,7.31,7.31,0,0,0,1.62-.18,2.86,2.86,0,0,0,1.41-.81,4.4,4.4,0,0,0,1-1.83,11,11,0,0,0,.37-3.21Z"/><path class="cls-2" d="M837.62,92.21a5.68,5.68,0,0,1-1.91,4.5,7.89,7.89,0,0,1-5.36,1.66,22.32,22.32,0,0,1-4.56-.45,13.6,13.6,0,0,1-3.61-1.21l.77-4.59a15.34,15.34,0,0,0,6.84,2,2,2,0,0,0,1.42-.42,1.36,1.36,0,0,0,.42-1,1.79,1.79,0,0,0-.33-1.11,5.39,5.39,0,0,0-1.65-1A27.22,27.22,0,0,1,826.48,89a11,11,0,0,1-2.16-1.69,5.75,5.75,0,0,1-1.21-1.87,6.1,6.1,0,0,1-.39-2.25,5.09,5.09,0,0,1,2.18-4.39,9.59,9.59,0,0,1,5.68-1.55,18,18,0,0,1,3.36.29,15.77,15.77,0,0,1,3.36,1.15l-.72,4.55a10.48,10.48,0,0,0-3.1-1.24,13.5,13.5,0,0,0-3-.34,2,2,0,0,0-1.43.38,1.38,1.38,0,0,0-.39,1,1.45,1.45,0,0,0,.62,1.23,12.43,12.43,0,0,0,2.39,1.24,28.56,28.56,0,0,1,2.73,1.55,9.55,9.55,0,0,1,1.85,1.54,5,5,0,0,1,1,1.66A6.06,6.06,0,0,1,837.62,92.21Z"/><path class="cls-2" d="M850.35,94.93a2.42,2.42,0,0,1-1,2,4,4,0,0,1-2.49.8,3.83,3.83,0,0,1-2.5-.86,2.59,2.59,0,0,1-.07-4.11,3.54,3.54,0,0,1,2.39-.84,4,4,0,0,1,2.62.89A2.7,2.7,0,0,1,850.35,94.93Z"/></svg>