<svg xmlns="http://www.w3.org/2000/svg" xmlns:xlink="http://www.w3.org/1999/xlink" width="619.88" height="562.43" viewBox="0 0 619.88 562.43">
  <defs>
    <style>
      .cls-1 {
        mask: url(#mask);
        filter: url(#luminosity-noclip-2);
      }

      .cls-2 {
        mix-blend-mode: multiply;
        fill: url(#linear-gradient);
      }

      .cls-3 {
        fill: none;
      }

      .cls-4 {
        isolation: isolate;
      }

      .cls-5, .cls-60 {
        fill: #fff;
      }

      .cls-6 {
        clip-path: url(#clip-path);
      }

      .cls-7 {
        clip-path: url(#clip-path-2);
      }

      .cls-8 {
        fill: #f8e2b9;
      }

      .cls-9 {
        fill: #c3b6a2;
      }

      .cls-10 {
        fill: #88d1d1;
      }

      .cls-11 {
        fill: #a19687;
      }

      .cls-12 {
        fill: #cca96a;
      }

      .cls-13 {
        fill: #020202;
        opacity: 0.2;
      }

      .cls-13, .cls-72 {
        stroke: #201d1e;
      }

      .cls-13, .cls-18, .cls-22, .cls-24, .cls-25, .cls-27, .cls-28, .cls-29, .cls-36, .cls-42, .cls-46, .cls-48, .cls-55, .cls-60, .cls-68, .cls-69, .cls-72 {
        stroke-miterlimit: 10;
      }

      .cls-13, .cls-18, .cls-22, .cls-24, .cls-25, .cls-27, .cls-28, .cls-29, .cls-36, .cls-46, .cls-48, .cls-55, .cls-60, .cls-68, .cls-69, .cls-72 {
        stroke-width: 0.5px;
      }

      .cls-14 {
        fill: #89513a;
      }

      .cls-15 {
        fill: #8c663d;
      }

      .cls-16 {
        fill: #a56f41;
      }

      .cls-17 {
        fill: #050505;
        stroke: #6f287a;
        opacity: 0.3;
      }

      .cls-17, .cls-19, .cls-20, .cls-21 {
        stroke-linejoin: round;
        stroke-width: 0.75px;
      }

      .cls-18 {
        fill: #d8b2a8;
      }

      .cls-18, .cls-24, .cls-25, .cls-27, .cls-29, .cls-55, .cls-68, .cls-69 {
        stroke: #323232;
      }

      .cls-19, .cls-45 {
        fill: #df71e2;
      }

      .cls-19 {
        stroke: #710e7c;
      }

      .cls-20 {
        fill: #686c71;
        stroke: #211f1c;
      }

      .cls-21, .cls-28 {
        fill: #301616;
        stroke: #1c0e0a;
      }

      .cls-22, .cls-33, .cls-42 {
        fill: #f9d1c6;
      }

      .cls-22, .cls-36, .cls-42 {
        stroke: #453423;
      }

      .cls-23 {
        fill: #b88e87;
      }

      .cls-24 {
        fill: #587ab1;
      }

      .cls-25 {
        fill: #7196c4;
      }

      .cls-26 {
        fill: #1a4172;
        opacity: 0.76;
      }

      .cls-27 {
        fill: #7498c2;
      }

      .cls-29 {
        fill: #969595;
      }

      .cls-30 {
        mask: url(#mask-2);
      }

      .cls-31 {
        mix-blend-mode: darken;
        fill: url(#linear-gradient-2);
      }

      .cls-32 {
        fill: #904e38;
      }

      .cls-34 {
        fill: #453423;
      }

      .cls-35 {
        fill: #db9d8e;
      }

      .cls-36 {
        fill: #c49ac6;
      }

      .cls-37 {
        opacity: 0.12;
      }

      .cls-38 {
        fill: #c27945;
      }

      .cls-39 {
        fill: #d48148;
      }

      .cls-40 {
        fill: #e89b49;
      }

      .cls-41 {
        fill: #f5bf71;
      }

      .cls-42 {
        stroke-width: 0.25px;
      }

      .cls-43 {
        fill: #bf79b2;
      }

      .cls-44 {
        fill: #0a2c2d;
        opacity: 0.22;
      }

      .cls-46 {
        fill: #62445b;
        stroke: #1d111b;
      }

      .cls-47 {
        fill: #f6e0d9;
      }

      .cls-48 {
        fill: #61435b;
        stroke: #1c101a;
      }

      .cls-49 {
        fill: #009196;
      }

      .cls-50 {
        fill: #cacac9;
      }

      .cls-51 {
        fill: #dfdfde;
      }

      .cls-52 {
        fill: #d3d4d4;
      }

      .cls-53 {
        fill: #efeded;
      }

      .cls-54 {
        fill: #cbe9e8;
      }

      .cls-55, .cls-58 {
        fill: #f6cfc4;
      }

      .cls-56 {
        fill: #da9b8d;
      }

      .cls-57 {
        fill: #342517;
      }

      .cls-59 {
        fill: #49442e;
      }

      .cls-60 {
        stroke: #3d2e18;
      }

      .cls-61 {
        fill: #3d2e18;
      }

      .cls-62 {
        fill: #e8a496;
        opacity: 0.5;
      }

      .cls-63 {
        fill: #7b2f2c;
      }

      .cls-64 {
        fill: #f5958d;
      }

      .cls-65 {
        fill: #f48578;
      }

      .cls-66 {
        fill: #fff5f2;
      }

      .cls-67 {
        fill: #f48a71;
      }

      .cls-68 {
        fill: #fac7b3;
      }

      .cls-69 {
        fill: #f8d0c5;
      }

      .cls-70 {
        fill: #e4b1a5;
      }

      .cls-71 {
        fill: #551615;
      }

      .cls-72 {
        fill: #2f1617;
      }

      .cls-73 {
        fill: #bf8674;
      }

      .cls-74 {
        fill: #ea658b;
      }

      .cls-75 {
        fill: #ba7757;
      }

      .cls-76 {
        clip-path: url(#clip-path-3);
      }

      .cls-77 {
        clip-path: url(#clip-path-4);
      }

      .cls-78 {
        filter: url(#luminosity-noclip);
      }
    </style>
    <filter id="luminosity-noclip" x="197.04" y="-9635.15" width="15.31" height="32766" filterUnits="userSpaceOnUse" color-interpolation-filters="sRGB">
      <feFlood flood-color="#fff" result="bg"/>
      <feBlend in="SourceGraphic" in2="bg"/>
    </filter>
    <mask id="mask" x="197.04" y="-9635.15" width="15.31" height="32766" maskUnits="userSpaceOnUse">
      <g class="cls-78"/>
    </mask>
    <linearGradient id="linear-gradient" x1="3877.84" y1="772.48" x2="3867.56" y2="790.64" gradientTransform="matrix(1.03, -0.08, 0.08, 1, -3839.36, -102.53)" gradientUnits="userSpaceOnUse">
      <stop offset="0" stop-color="#fff"/>
      <stop offset="1"/>
    </linearGradient>
    <clipPath id="clip-path">
      <rect class="cls-3" x="40.53" y="56.71" width="538.82" height="449.01" rx="116.93"/>
    </clipPath>
    <clipPath id="clip-path-2">
      <rect class="cls-3" x="-219.2" y="-61.66" width="1342.92" height="755.39"/>
    </clipPath>
    <filter id="luminosity-noclip-2" x="197.04" y="358.63" width="15.31" height="13.83" filterUnits="userSpaceOnUse" color-interpolation-filters="sRGB">
      <feFlood flood-color="#fff" result="bg"/>
      <feBlend in="SourceGraphic" in2="bg"/>
    </filter>
    <mask id="mask-2" x="197.04" y="358.63" width="15.31" height="13.83" maskUnits="userSpaceOnUse">
      <g class="cls-1">
        <path class="cls-2" d="M197.63,363.12a5.25,5.25,0,0,1-.17-4.49c.48,2.18,1.36,4.42,2.75,5.08,3.46,1.72,7.19,3.41,8.13,3.51,1.45,3.2,2.46,4.2,4,5.24-3.17-.55-4.3-2.79-5.64-4.66C201.35,366.77,198.61,364.91,197.63,363.12Z"/>
      </g>
    </mask>
    <linearGradient id="linear-gradient-2" x1="3877.84" y1="772.48" x2="3867.56" y2="790.64" gradientTransform="matrix(1.03, -0.08, 0.08, 1, -3839.36, -102.53)" gradientUnits="userSpaceOnUse">
      <stop offset="0" stop-color="#e67e63"/>
      <stop offset="1" stop-color="#e67e63"/>
    </linearGradient>
    <clipPath id="clip-path-3">
      <rect class="cls-3" x="-1179.72" y="56.13" width="539.79" height="449.82" rx="116.93"/>
    </clipPath>
    <clipPath id="clip-path-4">
      <rect class="cls-3" x="-1637.42" y="20.09" width="1433.2" height="806.18"/>
    </clipPath>
  </defs>
  <g class="cls-4">
    <g id="Layer_1" data-name="Layer 1">
      <g>
        <rect class="cls-5" x="31.16" y="47.62" width="557.57" height="467.19" rx="124.29"/>
        <g class="cls-6">
          <g class="cls-7">
            <g>
              <path class="cls-8" d="M-360.71,320.08c-2.1,41.55-4.24,83.38,2.18,124.8A44.58,44.58,0,0,1-355.85,458H1435.07c-.71-13.11-1.23-26.23-1.65-39.37-.73-23.23-1.38-46.48-2.85-69.7l-201-95.41H-200.3l-159.52,46.58Q-360.21,310.09-360.71,320.08Z"/>
              <path class="cls-9" d="M1551.24,789.25c-1-81.63-1.78-163.27-3.91-244.83-1.84-70.39-4.24-140.65-5.68-211l-65.31-83.58-1957.68-.17-51.09,238.26,27.32,419.76H1553.05Q1551.9,848.51,1551.24,789.25Z"/>
              <polygon class="cls-10" points="-325.98 -438.18 -326.92 273.73 1286.08 271.43 1289.78 -437.75 -325.98 -438.18"/>
              <path class="cls-11" d="M-429.42,386.93H1395.17l-3.15-2-1821.36-.55C-429.37,385.23-429.4,386.08-429.42,386.93Z"/>
              <path class="cls-11" d="M-428.06,472.68H1396.53l-3.15-2L-428,470.13C-428,471-428,471.83-428.06,472.68Z"/>
              <path class="cls-11" d="M-427.09,311.81H1288.34l-3.2-1.81L-427,309.25C-427.06,310.1-427.08,311-427.09,311.81Z"/>
              <path class="cls-11" d="M-152.6,758.7,84.79,297.13l-2.72-2.21L-159.56,758.65C-157.24,758.67-154.92,758.7-152.6,758.7Z"/>
              <path class="cls-11" d="M158.81,772.54,299.12,268l-2.63-.89L153.73,772.61Z"/>
              <path class="cls-11" d="M472.17,1018.53l10.1-773.12-3.61,2.2L466,1019Z"/>
              <polygon class="cls-12" points="-335.09 274.28 1281.26 271.57 1281.28 244.47 -335.09 247.19 -335.09 274.28"/>
              <rect class="cls-3" x="-318.15" y="-427.88" width="1574.77" height="885.81"/>
              <rect class="cls-3" x="-322.64" y="-423.12" width="1574.77" height="885.81"/>
            </g>
          </g>
          <g>
            <polygon class="cls-13" points="188.39 464 144.88 539.91 483.02 539.91 426.47 467.79 188.39 464"/>
            <rect class="cls-14" x="186.21" y="392.64" width="14.17" height="49.59"/>
            <rect class="cls-14" x="260.24" y="392.64" width="14.17" height="49.59"/>
            <rect class="cls-14" x="327.7" y="367.37" width="20.88" height="73.06"/>
            <rect class="cls-14" x="436.77" y="367.37" width="20.88" height="73.06"/>
            <g>
              <rect class="cls-15" x="184.96" y="254.26" width="86.46" height="73.39"/>
              <path class="cls-16" d="M185.7,328.82V251.75h-5.61a8.36,8.36,0,0,0-8.37,8.37v68.7Z"/>
              <path class="cls-16" d="M270.6,328.82V251.75h5.61a8.37,8.37,0,0,1,8.37,8.37v68.7Z"/>
            </g>
            <ellipse class="cls-17" cx="403.7" cy="492.09" rx="69.15" ry="21.59"/>
            <ellipse class="cls-17" cx="241.92" cy="492.09" rx="69.15" ry="21.59"/>
            <g>
              <path class="cls-18" d="M408.37,401.11c2.25,24.41,4.34,46.72,5.58,61.64h22.36c.63-15.15,1.92-37.6,3.29-61.62.53-9.17-6.68-17-15.56-16.87h-1.12C414.22,384.4,407.55,392.12,408.37,401.11Z"/>
              <path class="cls-19" d="M412.22,466.74c0,.58,25.79,1,25.85.34.56-6.07,1.49-19,1.79-22.49l-28.64.16C411.56,451.29,412,462.6,412.22,466.74Z"/>
              <path class="cls-20" d="M454.07,503.72c6.79,0,12.51-1.87,13.95-5.37.34-.85.33-4,.1-6.29-.19-1.87-3.27-5.9-4.73-6.62-1.49,4.5-8.35,13.56-21,10-11.77-3.34-31.17-14.4-32.29-15.55,0,0,0,5.66.7,6.07,9,5.62,26.49,14.45,26.73,14.54A45.89,45.89,0,0,0,454.07,503.72Z"/>
              <path class="cls-21" d="M411.7,461.75c.85.26,3.51,3.72,13.08,4.84.81.1,0-4.3.77-4.76,1.43-.81,15.71-1.28,16.58-.86.68.33,1,1.41,1.7,5.29.75,2.15,22.71,18.9,23.9,25.14.65,3.39-2.17,6.18-8.07,7.07a39.4,39.4,0,0,1-20.44-2.37c-3-1.14-27.65-14.43-29.16-16-1.34-1.36.29-14.36.4-17.89C410.48,461.76,411.18,461.6,411.7,461.75Z"/>
              <path class="cls-18" d="M398.89,399.53c-2.24,24.41-4.33,46.72-5.57,61.64H371c-.63-15.15-1.92-37.6-3.29-61.62-.53-9.17,6.68-17,15.56-16.87h1.11C393.05,382.82,399.72,390.54,398.89,399.53Z"/>
              <path class="cls-19" d="M395.05,465.19c0,.53-25.79,1-25.85.36-.55-5.55-1.45-17.4-1.74-20.6l28.63.09C395.75,451,395.27,461.4,395.05,465.19Z"/>
              <path class="cls-20" d="M353.2,502.14c-6.79,0-12.51-1.87-13.95-5.37-.34-.85-.33-4-.1-6.29.19-1.87,3.27-5.9,4.73-6.62,1.49,4.5,8.35,13.56,21,10,11.77-3.34,31.17-14.4,32.29-15.54,0,0,0,5.65-.7,6.06-9,5.62-26.5,14.45-26.73,14.54A45.93,45.93,0,0,1,353.2,502.14Z"/>
              <path class="cls-21" d="M395.57,460.17c-.85.26-3.51,3.72-13.08,4.84-.81.1,0-4.3-.77-4.76-1.43-.81-15.72-1.28-16.58-.86-.68.34-1,1.41-1.7,5.29-.75,2.15-22.71,18.9-23.9,25.14-.65,3.4,2.17,6.18,8.07,7.07a39.4,39.4,0,0,0,20.44-2.37c3-1.14,27.64-14.43,29.16-16,1.34-1.36-.29-14.36-.4-17.89C396.79,460.18,396.09,460,395.57,460.17Z"/>
              <path class="cls-22" d="M294.11,315.71s13.06,5.45,18.19,45l2.15,16.46-12.67,3s-21.66-28.72-20.51-53.87S294.11,315.71,294.11,315.71Z"/>
              <path class="cls-23" d="M193.35,398.66c.19,2.22.53,4.74,1,7.61.85,4.84,3.24,9,4.33,13.5,5.69.34,10,.93,15.66.61,3.88-.23,10.74-.66,15.32-3.07L228,402l-8.16-5.39a45,45,0,0,0-11.8-.81A51.83,51.83,0,0,0,193.35,398.66Z"/>
              <path class="cls-18" d="M230.4,410.39q1.36,4.26,2.63,8.4c11.14,36.21,17.15,64.74,17.15,64.74l14.37-3c6.16-22.31,3.67-52.56,1.87-67.31-.67-5.48-1.25-8.82-1.25-8.82S217.59,370.28,230.4,410.39Z"/>
              <path class="cls-23" d="M232.32,415.38c.91,2.84,2.55,6.79,3.4,9.55a40.39,40.39,0,0,0,7.67.58,55.11,55.11,0,0,0,17.07-2.76,30.68,30.68,0,0,0,6.16-2.87c-.67-5.49-.72-9.14-.72-9.14S219.51,375.27,232.32,415.38Z"/>
              <polygon class="cls-24" points="186.63 357.93 189.9 371.96 190.08 405.19 225.84 403.96 225.68 399.34 225.26 387.46 224.58 367.62 223.7 342.34 186.63 357.93"/>
              <path class="cls-25" d="M226.35,401.23c-5,.94-28.15,4.89-36.83-.83a.92.92,0,0,0-1.45.82l.78,11.15a.91.91,0,0,0,.64.81c3.67,1.19,23.66,7,38.69-1.94a1,1,0,0,0,.45-.94L227.44,402A.93.93,0,0,0,226.35,401.23Z"/>
              <path class="cls-24" d="M203.58,373.13l10.93,11.25,9.68,9.28,1.49,5.68,3.21,12.23,1.32.4c12.6,3.75,39.08-4,39.08-4V373l-1.24-16.81-43.47,11.4Z"/>
              <path class="cls-26" d="M186.63,357.93l1.29,17.73a81.55,81.55,0,0,0,34.57,11.54c.93.1,1.85.21,2.77.26,18.18,1,46.38-5.53,43.57-4.91l-6.17-24.92-38.08,10-.88-25.28Z"/>
              <path class="cls-27" d="M268.88,401.2c-6.31,2.37-25,8.52-40.33,4.63a1.79,1.79,0,0,0-2.23,2l1.61,9.34a1.78,1.78,0,0,0,1.26,1.42c5,1.42,26.24,6.4,42.12-6.68a1.8,1.8,0,0,0,.64-1.54l-.66-7.67A1.8,1.8,0,0,0,268.88,401.2Z"/>
              <path class="cls-19" d="M267.19,430.56s-10.25,10.94-28.91,4.72c0,0,8.11,29.58,11.69,43.36l10.08,6.44,7.14-22.64S269.13,441.69,267.19,430.56Z"/>
              <path class="cls-19" d="M230.3,427.15s-17.1,9.06-29.74-1c0,0,9.42,31.86,13.95,34.87s19.27-3.37,19.27-3.37Z"/>
              <g>
                <path class="cls-20" d="M255.28,495.88c0,6.24,3.94,14.4,24.1,14.37,8.69,0,14.8-5.06,14.8-11.31s-13.2-14.17-21.89-14.17S255.28,489.63,255.28,495.88Z"/>
                <path class="cls-20" d="M251,480.93c-3,7.44-4.78,21.2,13.48,17.84,8.55-1.58,16.06-3,16.06-9.23s-9.3-10.66-18-10.66S252.85,476.47,251,480.93Z"/>
                <path class="cls-21" d="M256.56,481.6h-.14a8.08,8.08,0,0,1-7.34-3.57h0s-3,13.57,6.2,17.84,25.92-4.23,25.92-4.23l4.56-2.59c-7.54-4.68-10.2-8.78-14.18-11.05h0l-12.41-2.86"/>
                <path class="cls-21" d="M253.93,495.64c.64,6.73,15.88,14.81,31.68,10.58,8.78-2.34,10.06-6.24,7.23-12.41-3.7-8.07-11.64-10.39-18.81-9.12C265.08,486.28,253.28,488.91,253.93,495.64Z"/>
                <path class="cls-21" d="M273.26,479.18c-2-.49-4.94-1.52-6.06-4-1.53-3.32,1.58-6.41,0-8.48-2.11-2.83-10.1,0-11.57.54-3.59,1.28-6.49,2.32-7.4,4.9-1.11,3.15,1.13,7.51,5.53,10.6"/>
              </g>
              <g>
                <path class="cls-20" d="M237.26,474.81a7.39,7.39,0,0,1,1.64,5.77c-.63,3.2-7.7,6.55-7.7,6.55s-3.41,13.49-22.59,15.07c-21.89,1.81-15.9-15.79-15.9-15.79Z"/>
                <path class="cls-21" d="M229.52,482.49s3.76,14.2-20.8,17.31c-23.14,2.94-25.24-22,3.79-25.78S229.52,482.49,229.52,482.49Z"/>
                <path class="cls-21" d="M235.65,471.57a64.52,64.52,0,0,1-1.18-9.07c-.11-2-.13-4.08-1.26-4.61-.81-.37-1.8.23-2.44.58a23.71,23.71,0,0,1-10.33,2.83c-4.61,0-7.41-3.26-8.15-2.39-.49.57.65,2.12,2.11,4.86a49.3,49.3,0,0,1,3.34,7.8Z"/>
                <path class="cls-28" d="M216,470a76.77,76.77,0,0,0-8.95,5.22s10.31-2.65,22.39,10.76l7.58-6.06s3.46-3.85-1.61-9.1"/>
              </g>
              <path class="cls-29" d="M269.19,432.74c0,.09.13,1.7.09,1.78-.6,1-5,7-16.12,8.2-10.9,1.16-14.8-1.33-15.61-1.91a2.09,2.09,0,0,1-.73-1l-.91-4.12c-.09-.33.54-1.26.87-1.17,3.73,1.08,19.42,5.56,31.33-5.41a.42.42,0,0,1,.71.26Z"/>
              <path class="cls-29" d="M232,431.57a.43.43,0,0,1-.06.27c-.52.85-4,5.46-17.4,5.54-14.8.08-15.13-5.08-15.13-5.08l-.85-3.87c-.21-.93.57-1.4.89-1.26,3.84,1.66,19.21,7.32,31.29-1,.58-.41.91.61.94,1Z"/>
              <path class="cls-22" d="M209.64,308.81c7.2,1.08,29.09,15.72-.27,72.73l-8.06.77c-.7-1.26,1.62-37.89.09-45.32"/>
              <g>
                <g>
                  <path class="cls-22" d="M222.7,383.5a12.19,12.19,0,0,1-9.48,5.19c-6.71,1.06-15.39,1.95-18.68,2.48s-5.71.79-9.62-.61-6.65-2.09-6.67-3.51A2.18,2.18,0,0,1,178,387s0,0,0,0a8.65,8.65,0,0,1-3.48-2.19,1.66,1.66,0,0,1-.2-2.24,1.28,1.28,0,0,1-.21-.14.42.42,0,0,1-.12-.08,6.29,6.29,0,0,1-2.34-2.16,2.17,2.17,0,0,1,.15-2.64,7.33,7.33,0,0,1,4.74-2.22h0a5.08,5.08,0,0,1,.78,0h0a.14.14,0,0,1,0-.11,3.4,3.4,0,0,1,.31-1.12,4.57,4.57,0,0,1,4.6-2.29c2.51.25,5.52,1,6.93,1.08,3.74-1,6-1.44,8.6-2.14.18-.05.37-.11.57-.15l1.13-.32c3.43-1,5.93-2.25,7.21-2.43-5.35-1-8.09-2.89-9.07-4.68a5.25,5.25,0,0,1-.17-4.49,2.16,2.16,0,0,1,1-1c1.6-.84,2.23.08,4.25,1.28a20.46,20.46,0,0,0,9.27,2.68,13.17,13.17,0,0,1,9.49,4.11c2.9,2.75,4.86,9.06,4.17,13"/>
                  <g class="cls-30">
                    <path class="cls-31" d="M197.63,363.12a5.25,5.25,0,0,1-.17-4.49c.48,2.18,1.36,4.42,2.75,5.08,3.46,1.72,7.19,3.41,8.13,3.51,1.45,3.2,2.46,4.2,4,5.24-3.17-.55-4.3-2.79-5.64-4.66C201.35,366.77,198.61,364.91,197.63,363.12Z"/>
                  </g>
                  <path class="cls-32" d="M206,377.11a21,21,0,0,1,4-1.74,15.87,15.87,0,0,1,4.36-.74,10.53,10.53,0,0,1,4.36.92,8.48,8.48,0,0,1,1.87,1.19,6.81,6.81,0,0,1,1.4,1.64,9.54,9.54,0,0,0-1.75-1.17,11.2,11.2,0,0,0-1.89-.81,14,14,0,0,0-4-.73,17.29,17.29,0,0,0-4.16.35A35.92,35.92,0,0,0,206,377.11Z"/>
                  <path class="cls-32" d="M196.26,385.55c-.15,0-.28.08-.43.12-1.46.41-2.94.74-4.43,1-.83.15-1.65.28-2.46.4a6.48,6.48,0,0,1-2.69-.07,15.17,15.17,0,0,1-2.28-1.07,8.71,8.71,0,0,0-2.19-.74,3.49,3.49,0,0,0-3.52,1.85c-.07,0-.16-.05-.23-.09s0,0-.05,0c.3-1.59,2.18-2.62,3.87-2.52s3.43,1,4.78,1.44a5.89,5.89,0,0,0,2.2.07c.82-.06,1.63-.15,2.45-.23a44.81,44.81,0,0,1,4.49-.16A4,4,0,0,1,196.26,385.55Z"/>
                  <path class="cls-32" d="M196.94,375.12s0,.06,0,.08a9.24,9.24,0,0,1-1.2.35v0c-1.24.37-2.48.7-3.72,1a39.22,39.22,0,0,1-5.43,1.06,13,13,0,0,1-5.55-.88,30.33,30.33,0,0,0-4.49-1.5,4.28,4.28,0,0,1,.8,0,.14.14,0,0,1,0-.11,34.46,34.46,0,0,1,4,.68,15.25,15.25,0,0,0,5.17.51c1.72-.12,3.52-.49,5.32-.72,1.32-.19,2.66-.35,4-.46C196.19,375.15,196.57,375.12,196.94,375.12Z"/>
                  <path class="cls-32" d="M195.62,380c-.22.08-.44.16-.65.22-1.58.56-3.21,1.05-4.84,1.5a26.19,26.19,0,0,1-2.81.69,7.15,7.15,0,0,1-3,0,29.24,29.24,0,0,0-5.55-1,8,8,0,0,0-4.44,1.1,1.2,1.2,0,0,1-.21-.13.42.42,0,0,1-.12-.08,6.91,6.91,0,0,1,4.76-1.6,22.1,22.1,0,0,1,2.94.12c1,.14,1.92.35,2.8.54a7,7,0,0,0,2.67.07c.92-.12,1.86-.32,2.8-.5,1.65-.32,3.31-.6,5-.79C195.18,380.1,195.39,380.06,195.62,380Z"/>
                </g>
                <g>
                  <path class="cls-33" d="M195.35,389.27s-2.51-11.76,3-18.72"/>
                  <path class="cls-34" d="M195.35,389.27a26.08,26.08,0,0,1-.73-4.83,30.85,30.85,0,0,1,.11-4.9,22.34,22.34,0,0,1,1.14-4.78,14.77,14.77,0,0,1,2.49-4.21,18.6,18.6,0,0,0-2.13,4.34,26,26,0,0,0-1,4.71,37,37,0,0,0-.22,4.83A43.75,43.75,0,0,0,195.35,389.27Z"/>
                </g>
              </g>
              <polyline class="cls-22" points="304.75 330.11 295.75 310.79 291.91 302.55 267.13 308.75 274.42 323.39 282.39 339.02"/>
              <path class="cls-35" d="M267.13,308.75l7.79,14.44c8.81-2.15,15.54-7.32,20.45-11.92l-3.66-8.67Z"/>
              <path class="cls-22" d="M166.61,331.53s10.4-3.8,22.11-16.5a61.06,61.06,0,0,0,8.9-13.17C204.47,288.8,177.28,285,177.28,285l-8.56,9.06-10.16,14.78C153.24,313.64,140.14,340.91,166.61,331.53Z"/>
              <path class="cls-35" d="M168.87,294.59c2.95,5.2,8.39,12.54,19.47,20.06a57.16,57.16,0,0,0,9.28-12.79C204.47,288.8,177.28,285,177.28,285Z"/>
              <path class="cls-19" d="M185.91,283.35c0,16.24,21.59,29.4,48.23,29.4s48.23-13.16,48.23-29.4c0-12.22-12.24-22.7-29.65-27.13A75.41,75.41,0,0,0,234.14,254a72.8,72.8,0,0,0-24.37,4C195.49,263.08,185.91,272.54,185.91,283.35Z"/>
              <path class="cls-19" d="M269.3,312.71l.74,3.05c16.69-1.1,27.94-12.6,27.94-12.6a23.85,23.85,0,0,0-1.31-4.27c-7.84-15.39-10.9-22.81-17.31-29.05a49.47,49.47,0,0,0-25.79-13.19"/>
              <path class="cls-19" d="M210.63,257.74s-12-.78-26,12.74c-3.76,3.64-10.39,10.73-13.62,16-.63,1-1.26,2.1-1.86,3.2,0,0,13.05,18,28.74,22.41l.49-2.08"/>
              <path class="cls-19" d="M194.89,288.15c-9.45,43.9-11.12,87.92-11.12,87.92h0c45.55,17.74,88,1.55,88,1.55,3.91-61.88-4.32-91.64-4.32-91.64"/>
              <ellipse class="cls-36" cx="229.7" cy="280.03" rx="13.24" ry="4.32"/>
              <path class="cls-22" d="M213.39,266.27s5.56,9.06,20.51,9.43,17.56-9.43,17.56-9.43a14.33,14.33,0,0,1-.8-1.8c-3.15-8.35.8-17.71.8-17.71s-41.36-14.45-36.41,0c3.37,9.83,1.38,15.31-.24,17.82A7.16,7.16,0,0,1,213.39,266.27Z"/>
              <path class="cls-35" d="M217.49,259.27a34.12,34.12,0,0,0,26.77-.09c-2.4-6.48.84-13.86.84-13.86s-31.44-11.22-27.68,0C220,253,218.72,257.32,217.49,259.27Z"/>
              <path class="cls-34" d="M301.56,333.5a20.26,20.26,0,0,0-15.88,6.68,16.54,16.54,0,0,1,15.88-6.68Z"/>
              <g>
                <path class="cls-22" d="M314.28,377h0c0-1.12,0-1.12.21.33.35,1.67,0,3.56.05,5.25a23.94,23.94,0,0,0,1.35,6.58c1.09,3.61.08,7.23-.16,10.89-.11,1.5,1.6,7.72-1.56,7.65-2.05,0-3-2.15-3.21-4.06a24.22,24.22,0,0,0-.93,2.31,20.13,20.13,0,0,1-1.25,3.49c-.8,1.44-2.23,1.1-2.93-.14a7,7,0,0,1-.64-1.79c-.17,1.4-.88,6-3.09,4.83-2.79-1.45-2.52-6.29-2.26-8.85.22-2.19.69-4.34.9-6.53.11-1.3-.13-2.68.08-4a23.88,23.88,0,0,0-2.95,5.23,46.34,46.34,0,0,0-1.51,4.63c-.55,1.9-1.35,5.89-3.66,6.45-1.1.26-1.91-1-2.34-1.75-1.07-2-.57-4.78-.19-6.88.84-4.48,3.23-9.38,2.76-14.06-1.41.22-2.88,1.18-4.2,1.52a10.64,10.64,0,0,1-5.14.13c-2.6-.63-4.07-4.15-2.06-6.21,3.1-3.17,8.4-.32,11.87-3a14.07,14.07,0,0,1,2.45-1.85c.85-.39,2.95.05,3.28-2.47"/>
                <path class="cls-32" d="M308.05,400.09a28,28,0,0,0-1.4,6,8,8,0,0,0,.07,1.39c0,.85.15,1.71.76,1.94-.32.18-.67,0-1-.75a12.92,12.92,0,0,1-.82-4c.35-1.68.84-3.34,1.24-5,.58-2.16.91-4.5,2.54-6.12A45.21,45.21,0,0,1,308.05,400.09Z"/>
                <path class="cls-32" d="M311.62,402.14a12.62,12.62,0,0,0,.43-1.27c.92-3.44.86-6.84,1.05-10.35.95,1.94.74,4.45.65,6.58-.22,1.22-.46,2.45-.59,3.7,0,.26-.06.57-.08.89a6.41,6.41,0,0,0,.3,4,2.89,2.89,0,0,0,.66.87,1.71,1.71,0,0,1-1.49-1.06,14.42,14.42,0,0,1-.93-3.34Z"/>
              </g>
              <rect class="cls-37" x="472.79" y="416.15" width="14.56" height="27.31"/>
              <rect class="cls-37" x="141.73" y="416.15" width="14.56" height="30.05"/>
              <g>
                <path class="cls-38" d="M480.07,541.44c4,0,7.28-3.66,7.28-8.19V397.78c0-4.52-3.26-8.19-7.28-8.19s-7.28,3.67-7.28,8.19V533.25C472.79,537.78,476.05,541.44,480.07,541.44Z"/>
                <path class="cls-14" d="M442.37,505.77c4,0,7.28-3.66,7.28-8.18V362.11c0-4.52-3.25-8.19-7.28-8.19s-7.27,3.67-7.27,8.19V497.59C435.1,502.11,438.35,505.77,442.37,505.77Z"/>
                <path class="cls-38" d="M149,541.44c-4,0-7.28-3.66-7.28-8.19V397.78c0-4.52,3.25-8.19,7.28-8.19s7.28,3.67,7.28,8.19V533.25C156.29,537.78,153,541.44,149,541.44Z"/>
                <path class="cls-14" d="M186.7,505.77c-4,0-7.28-3.66-7.28-8.18V362.11c0-4.52,3.26-8.19,7.28-8.19s7.28,3.67,7.28,8.19V497.59C194,502.11,190.73,505.77,186.7,505.77Z"/>
                <path class="cls-39" d="M131.6,374.77H501a0,0,0,0,1,0,0V438.6a.55.55,0,0,1-.55.55H132.15a.55.55,0,0,1-.55-.55V374.77A0,0,0,0,1,131.6,374.77Z"/>
                <g>
                  <polygon class="cls-37" points="131.6 389.37 500.95 385.76 500.95 374.77 131.6 374.77 131.6 389.37"/>
                  <path class="cls-40" d="M519.83,369.56H112.72V380.8a2.46,2.46,0,0,0,2.47,2.47H517.36a2.46,2.46,0,0,0,2.47-2.47Z"/>
                  <path class="cls-41" d="M516,373.19H116.55a3.83,3.83,0,0,1-3.43-5.54l28.61-40.28a3.85,3.85,0,0,1,3.43-2.13H490a3.85,3.85,0,0,1,3.43,2.13l26,40.27A3.83,3.83,0,0,1,516,373.19Z"/>
                </g>
              </g>
              <polygon class="cls-20" points="367.15 440.74 367.66 444.46 396.3 444.46 397.3 439.14 366.37 439.14 367.15 440.74"/>
              <polygon class="cls-20" points="408.5 439.69 409.5 444.22 438.14 444.22 439.43 439.69 408.5 439.69"/>
              <g>
                <rect class="cls-15" x="359.63" y="243.33" width="94.95" height="80.6"/>
                <path class="cls-16" d="M360.44,325.22V240.58h-6.16a9.18,9.18,0,0,0-9.19,9.19v75.45Z"/>
                <path class="cls-16" d="M453.68,325.22V240.58h6.15a9.19,9.19,0,0,1,9.2,9.19v75.45Z"/>
              </g>
              <path class="cls-42" d="M481.06,325.24l-8-14.37-3.84-8.24-24.77,6.19,6.14,14.2,6.07,2Z"/>
              <path class="cls-42" d="M354.64,285.1l-8.56,9.06-10.17,14.78c-2.41,2.16-7.38,9.69-8.71,15.77,12.19,0,15.84,0,15.84,0h0c4.12.07,9.34.12,13.36.24a107.5,107.5,0,0,0,9.69-9.86,61.17,61.17,0,0,0,8.9-13.17C381.83,288.87,354.64,285.1,354.64,285.1Z"/>
              <path class="cls-35" d="M444.49,308.82l7.79,14.44c8.81-2.15,15.54-7.32,20.44-11.92l-3.65-8.67Z"/>
              <path class="cls-35" d="M346.22,294.66c2.95,5.2,8.4,12.54,19.48,20.06A57.48,57.48,0,0,0,375,301.93c6.85-13.06-20.34-16.83-20.34-16.83Z"/>
              <path class="cls-19" d="M363.26,283.43c0,16.23,21.6,29.39,48.23,29.39s48.23-13.16,48.23-29.39c0-12.23-12.23-22.71-29.65-27.14A75.36,75.36,0,0,0,411.49,254a72.75,72.75,0,0,0-24.36,4C372.85,263.15,363.26,272.61,363.26,283.43Z"/>
              <path class="cls-19" d="M446.66,312.79l.73,3c16.69-1.1,27.94-12.6,27.94-12.6A23.84,23.84,0,0,0,474,299c-7.85-15.39-10.91-22.81-17.31-29a49.47,49.47,0,0,0-25.79-13.19"/>
              <path class="cls-19" d="M388,257.81s-12-.78-26,12.74c-3.76,3.64-10.39,10.74-13.62,16-.63,1-1.25,2.1-1.85,3.2,0,0,13,18,28.74,22.41l.49-2.08"/>
              <path class="cls-19" d="M447.69,327.7a6.3,6.3,0,0,1,1.33-1.35c.76-37.71-4.19-40.3-4.19-40.3l-72.59,2.17c-3.3,15.35-5.31,28-6.52,37.95h.61a6.44,6.44,0,0,1,6.32,6.33,6.27,6.27,0,0,1-4.33,6,6,6,0,0,1-.87.46,5.65,5.65,0,0,1-1,.71,5.85,5.85,0,0,1-2.16.74,123.87,123.87,0,0,0-.39,13.53l2.43-4.7c45.54,17.74,81.55,2.36,81.55,2.36.25-4,.45-7.73.62-11.25h-.7c-3.54.11-6.18-3-6.33-6.32S444.44,327.88,447.69,327.7Z"/>
              <ellipse class="cls-43" cx="409.29" cy="276.6" rx="13.24" ry="4.32"/>
              <path class="cls-44" d="M393.53,255.64s-7.31,2.35.94,9.85c2.71,1.55,11.31,6,21.38,3.5a25.88,25.88,0,0,0,7.28-3.06,13.19,13.19,0,0,0,5.15-5.14c.67-1.25,1.37-2.54.91-3.84-.53-1.51-2.42-2.5-4.77-2.6C424.42,254.35,404,255.22,393.53,255.64Z"/>
              <path class="cls-22" d="M423.43,265.51a16,16,0,0,1-13.84,8.34c-10.09.33-11.85-8.34-11.85-8.34a15.5,15.5,0,0,0,.54-1.58c2.12-7.39-.54-15.67-.54-15.67s27.9-12.77,24.57,0c-2.28,8.69-.94,13.54.15,15.76A5.8,5.8,0,0,0,423.43,265.51Z"/>
              <path class="cls-35" d="M420.37,258.1a27.93,27.93,0,0,1-21.94-.07c2-5.32-.69-11.36-.69-11.36s25.78-9.2,22.69,0C418.33,252.93,419.36,256.51,420.37,258.1Z"/>
              <path class="cls-45" d="M369.59,283.35s.44,11.76,3.22,13.28,33.16,5.05,38.68,4.8,36.61-4,36.43-5.24,1-2.59,1.34-7.14,2.78-10.82-1.34-8.95-9.43-2.8-14-.34-35.74,9.32-47.05,3.87S369.59,283.35,369.59,283.35Z"/>
              <path class="cls-19" d="M402.63,269.57c.45,1.07.66,1.64.79,2s.15.45.24.69a10.28,10.28,0,0,0,1,2q-3.54,2.7-7.19,5.65-4.16,3.39-8,6.72c-.37-1.82-.82-4.35-1.2-7.4a77.7,77.7,0,0,1-.71-13.13,68.9,68.9,0,0,1,1.33-11.24,17.07,17.07,0,0,1,6.6-2.9c1.5-.39,0,0,1.25-.14A113.18,113.18,0,0,0,402.63,269.57Z"/>
              <path class="cls-19" d="M422.49,252.7a40.89,40.89,0,0,1-2.57,11.83A44.19,44.19,0,0,1,414,275.26l16.5,13.06a69.29,69.29,0,0,0,.79-33.28,12.06,12.06,0,0,0-2.06-2.2,13.33,13.33,0,0,0-2.86-1.79Z"/>
              <g>
                <path class="cls-46" d="M223.92,324.83c.16.54.32,1.07.49,1.59h0c5.22,16.27,13.78,24.41,13.78,24.41a89.15,89.15,0,0,0,6.74-10.36c.95-1.76,1.69-3.3,2.26-4.63A22.21,22.21,0,0,0,249,330c-.09-2-.22-4-.37-5.86s-.3-3.45-.49-5.08c-.53-4.65-1.2-8.77-1.95-12.38q-.56-2.75-1.17-5.11c-2.58-10.14-5.36-15-5.25-15.78.32-2.07-7.62-1.35-7.62-1.35A78.77,78.77,0,0,1,231,294.85c-.2,1.17-.42,2.36-.65,3.57-.67,3.47-1.44,7-2.23,10.31-.28,1.15-.55,2.28-.82,3.37-1,4-1.93,7.49-2.57,9.8C224.24,323.74,223.92,324.83,223.92,324.83Z"/>
                <path class="cls-47" d="M230.37,298.42a53.2,53.2,0,0,1,15.39,8.17c-.38-1.83-.83-3.73-1.23-5.3A60.23,60.23,0,0,0,231,294.85C230.82,296,230.6,297.21,230.37,298.42Z"/>
                <path class="cls-47" d="M227.73,312.39c5.72,2.54,15.16,7.16,20.48,11.71-.13-1.75-.33-3.78-.51-5.41a77.05,77.05,0,0,0-19.14-9.82C228.28,310,228,311.3,227.73,312.39Z"/>
                <path class="cls-46" d="M224.39,324.83c.16.54.32,1.21.49,1.72h0c5.62,2.86,14.34,7.72,19.73,13.59.95-1.77,1.65-3.25,2.21-4.58A113.57,113.57,0,0,0,225.14,322C224.63,323.87,224.39,324.83,224.39,324.83Z"/>
              </g>
              <g>
                <path class="cls-46" d="M413.2,267.87c-.82-.34-3.69-2.65-9.51-.44s1.45,9.39,1.45,9.39h6.41S420.09,270.75,413.2,267.87Z"/>
                <g>
                  <path class="cls-48" d="M397.18,310.85c.15.49.29,1,.45,1.44h0c4.72,14.72,12.46,22.09,12.46,22.09a80.79,80.79,0,0,0,6.1-9.38c.86-1.59,1.53-3,2-4.18a20,20,0,0,0,1.67-5.34c-.08-1.83-.2-3.6-.34-5.3s-.27-3.11-.43-4.59c-.48-4.21-1.09-7.93-1.77-11.2-.34-1.65-.69-3.2-1.06-4.62-2.33-9.18-4.85-13.62-4.75-14.28.29-1.88-6.89-1.22-6.89-1.22a70.61,70.61,0,0,1-1.06,9.45c-.18,1.06-.38,2.14-.58,3.23-.6,3.14-1.31,6.33-2,9.33l-.74,3c-.9,3.63-1.75,6.78-2.32,8.86C397.47,309.87,397.18,310.85,397.18,310.85Z"/>
                  <path class="cls-47" d="M403,287a47.88,47.88,0,0,1,13.92,7.39c-.34-1.65-.75-3.37-1.11-4.8a54.85,54.85,0,0,0-12.23-5.82C403.42,284.79,403.22,285.87,403,287Z"/>
                  <path class="cls-47" d="M400.63,299.6c5.17,2.3,13.71,6.48,18.53,10.59-.12-1.58-.3-3.41-.46-4.89a70.13,70.13,0,0,0-17.32-8.88C401.13,297.46,400.87,298.61,400.63,299.6Z"/>
                  <path class="cls-47" d="M397.61,310.85c.15.49.29,1.09.44,1.56h0c5.09,2.59,13,7,17.85,12.29.86-1.59,1.49-2.94,2-4.14a102.4,102.4,0,0,0-19.62-12.23C397.82,310,397.61,310.85,397.61,310.85Z"/>
                </g>
              </g>
              <g>
                <path class="cls-49" d="M408.82,361c21.1-4.4,48.38-3.31,68.8,1.72a8.68,8.68,0,0,0,.43-.81l-23.28-34.47c-11-7.13-35.65-5.69-45.95.2Z"/>
                <path class="cls-50" d="M408.82,358.87c21.09-4.39,46.88-4,67.3,1,.33-.45,2.06-3.08,2.18-3.42l-23.53-31.68c-11-7.12-35.65-5.69-45.95.21Z"/>
                <g>
                  <path class="cls-51" d="M408.82,356.14c20.16-6.68,49.38-5.63,69.48.35l-23.53-31.68c-11-7.12-35.65-5.69-45.95.21Z"/>
                  <path class="cls-52" d="M478.3,356.73h-.11c-21.45-6.39-50.54-6.56-69.2-.37a.44.44,0,0,1-.3,0c-.08-.05-.17-.13-.17-.21V325a.19.19,0,0,1,.1-.2c10.59-6.06,35.43-7.27,46.34-.2l.06.06,23.54,31.69a.22.22,0,0,1,0,.28A.36.36,0,0,1,478.3,356.73Zm-37.61-5.39A137.49,137.49,0,0,1,477.61,356L454.54,325c-10.7-6.9-34.94-5.73-45.43.17v30.62C418.55,352.7,429.67,351.39,440.69,351.34Z"/>
                </g>
                <g>
                  <path class="cls-53" d="M408.82,356.14c19.38-8,48.78-8.67,69.87-2.19l-23.92-29.14c-11-7.12-35.65-5.69-45.95.21Z"/>
                  <path class="cls-52" d="M408.84,356.38l-.15,0c-.09-.05-.17-.13-.17-.21V325a.19.19,0,0,1,.1-.2c10.59-6.06,35.43-7.27,46.34-.2l.06.06,23.91,29.13a.21.21,0,0,1,0,.29.34.34,0,0,1-.34.07c-21.37-6.57-50.63-5.66-69.59,2.18Zm.27-31.24v30.62c18.85-7.62,47.54-8.58,68.81-2.3L454.54,325C443.84,318.07,419.6,319.24,409.11,325.14Z"/>
                </g>
                <g>
                  <path class="cls-5" d="M408.82,356.14c20.19-11,48.33-12.06,70.06-5.73L455,324.25c-11-7.12-35.9-5.13-46.2.77Z"/>
                  <path class="cls-52" d="M408.84,356.38l-.15,0a.24.24,0,0,1-.17-.21V325a.19.19,0,0,1,.1-.2c10.84-6.21,35.86-7.72,46.59-.76l23.91,26.21a.21.21,0,0,1,0,.29.36.36,0,0,1-.35.08c-23.52-6.85-50.93-4.61-69.78,5.71A.25.25,0,0,1,408.84,356.38Zm.27-31.24v30.54c18.75-10,45.65-12.28,68.94-5.76l-23.25-25.5C444.27,317.62,419.85,319.09,409.11,325.14Z"/>
                </g>
                <path class="cls-49" d="M408.82,361c-21.1-4.21-48.33-2.87-68.73,2.34a7.7,7.7,0,0,1-.43-.81l23.16-34.68c11-7.22,35.69-6,46-.21Z"/>
                <path class="cls-50" d="M408.82,358.87c-21.1-4.2-46.83-3.57-67.23,1.64-.34-.44-2.09-3.05-2.21-3.39l28.9-31c11-7.22,30.23-6.91,40.54-1.1Z"/>
                <g>
                  <path class="cls-51" d="M408.82,356.14c-20.18-6.5-49.36-5.19-69.44,1l29.65-31c11-7.22,29.48-6.91,39.79-1.1Z"/>
                  <path class="cls-52" d="M339.38,357.36a.35.35,0,0,1-.24-.1.2.2,0,0,1,0-.29l29.64-31c11.43-7.53,30.37-6.67,40.18-1.15a.25.25,0,0,1,.15.2v31.12a.26.26,0,0,1-.13.21.44.44,0,0,1-.3,0c-18.68-6-47.76-5.59-69.2,1Zm29.86-31.07-29,30.3c18.44-5.42,47.36-7.41,68.26-.83V325.14C398.86,319.79,380.42,318.94,369.24,326.29Z"/>
                </g>
                <g>
                  <path class="cls-53" d="M408.82,356.14c-19.4-7.83-49.12-8.95-70.18-2.28l26.44-28.43c11-7.22,33.43-6.22,43.74-.41Z"/>
                  <path class="cls-52" d="M408.84,356.38l-.15,0c-19.64-7.93-49.05-8.88-69.95-2.27a.34.34,0,0,1-.34-.07.22.22,0,0,1,0-.3l26.44-28.42c11.13-7.33,33.59-6.41,44.13-.47a.25.25,0,0,1,.15.2v31.12a.24.24,0,0,1-.13.21Zm-39.35-7.16c13.91-.06,28,2.16,39,6.54V325.14c-10.21-5.65-32.51-6.57-43.22.46l-25.8,27.73A107.3,107.3,0,0,1,369.49,349.22Z"/>
                </g>
                <g>
                  <path class="cls-5" d="M408.82,356.14c-19.81-11.3-50.65-12.33-70.19-6.52l24.34-25c11-7.22,35.54-5.45,45.85.36Z"/>
                  <path class="cls-52" d="M408.84,356.38a.25.25,0,0,1-.15,0c-20.43-11.65-51.3-12.05-70-6.51a.33.33,0,0,1-.34-.08.2.2,0,0,1,0-.29l24.33-25c5-3.32,13.6-5.09,23.41-4.8,9,.27,17.72,2.23,22.83,5.11a.25.25,0,0,1,.15.2v31.12a.2.2,0,0,1-.13.21Zm-44.1-10.48c15-.07,31.27,2.8,43.78,9.77V325.14c-10.67-5.9-34.93-7.14-45.34-.3l-23.67,24.27A97.18,97.18,0,0,1,364.74,345.9Z"/>
                </g>
                <path class="cls-54" d="M452.35,326a.33.33,0,0,0-.29-.41c-13.73-3-27.19-2.1-37.88,2.52a.31.31,0,0,0-.18.46.45.45,0,0,0,.37.17.48.48,0,0,0,.2,0c10.5-4.53,23.74-5.41,37.27-2.46A.43.43,0,0,0,452.35,326Zm3.23,3.17c.06-.18-.08-.36-.31-.4-14.83-2.75-27.88-1.6-41.07,3.62a.31.31,0,0,0-.2.45.45.45,0,0,0,.38.19l.18,0c13-5.16,25.89-6.29,40.53-3.58A.42.42,0,0,0,455.58,329.18Zm3.29,3.39a.33.33,0,0,0-.32-.39c-17.61-2.74-27-2.38-44.57,5.08a.31.31,0,0,0-.17.46.41.41,0,0,0,.37.17.63.63,0,0,0,.19,0c17.36-7.38,26.62-7.73,44-5A.42.42,0,0,0,458.87,332.57Zm-44.56,9.82a.42.42,0,0,0,.36.17.46.46,0,0,0,.2-.05c19.38-8.86,30.05-8.05,46.12-6.05a.42.42,0,0,0,.47-.28.34.34,0,0,0-.34-.38c-16.25-2-27-2.84-46.65,6.13A.3.3,0,0,0,414.31,342.39Zm0,5.08a.4.4,0,0,0,.36.18.45.45,0,0,0,.2,0c18.44-8.14,32.44-8.82,50.21-6.46a.42.42,0,0,0,.48-.28c0-.18-.12-.35-.34-.38-17.95-2.39-32.1-1.7-50.75,6.53A.3.3,0,0,0,414.33,347.47Z"/>
                <path class="cls-54" d="M367.32,326.25c13.52-2.95,26.76-2.07,37.27,2.46a.43.43,0,0,0,.19,0,.44.44,0,0,0,.37-.17.31.31,0,0,0-.17-.46c-10.7-4.62-24.15-5.51-37.88-2.52a.33.33,0,0,0-.29.41A.43.43,0,0,0,367.32,326.25Zm-3.25,3.18c14.63-2.71,27.51-1.58,40.53,3.58a.52.52,0,0,0,.18,0,.43.43,0,0,0,.37-.19.31.31,0,0,0-.19-.45c-13.2-5.22-26.25-6.37-41.08-3.62a.34.34,0,0,0-.31.4A.43.43,0,0,0,364.07,329.43Zm-3.3,3.41c17.39-2.71,26.66-2.36,44,5a.58.58,0,0,0,.19,0,.43.43,0,0,0,.37-.17.32.32,0,0,0-.18-.46c-17.58-7.46-27-7.82-44.56-5.08a.34.34,0,0,0-.33.39A.43.43,0,0,0,360.77,332.84Zm43.92,9.09c-19.61-9-30.41-8.16-46.65-6.13a.35.35,0,0,0-.35.38.42.42,0,0,0,.48.28c16.07-2,26.73-2.81,46.11,6.05a.54.54,0,0,0,.21.05.45.45,0,0,0,.36-.17A.31.31,0,0,0,404.69,341.93Zm0,5.09c-18.65-8.23-32.79-8.92-50.74-6.53-.23,0-.38.2-.34.38a.4.4,0,0,0,.47.28c17.78-2.36,31.78-1.68,50.22,6.46a.47.47,0,0,0,.56-.14A.3.3,0,0,0,404.66,347Z"/>
              </g>
              <g>
                <path class="cls-49" d="M230.39,358.35c21.09-4.39,48.37-3.3,68.79,1.73.09-.16.35-.61.43-.81l-23.28-34.48c-11-7.12-35.65-5.69-45.94.21Z"/>
                <path class="cls-50" d="M230.38,356.26c21.1-4.39,46.88-4,67.3,1,.34-.45,2.07-3.08,2.18-3.42L276.33,322.2c-11-7.12-35.65-5.69-45.95.2Z"/>
                <g>
                  <path class="cls-51" d="M230.38,353.53c20.17-6.68,49.38-5.64,69.48.35L276.33,322.2c-11-7.12-35.65-5.69-45.95.2Z"/>
                  <path class="cls-52" d="M299.86,354.12h-.1c-21.46-6.39-50.55-6.56-69.21-.37a.41.41,0,0,1-.29,0c-.09-.05-.18-.13-.18-.21V322.41a.2.2,0,0,1,.1-.2c10.59-6.07,35.44-7.27,46.34-.2l.06.06,23.54,31.68a.21.21,0,0,1,0,.28A.32.32,0,0,1,299.86,354.12Zm-37.61-5.39a137.49,137.49,0,0,1,36.92,4.69L276.1,322.36c-10.7-6.9-34.94-5.73-45.42.17v30.62C240.12,350.09,251.23,348.78,262.25,348.73Z"/>
                </g>
                <g>
                  <path class="cls-53" d="M230.38,353.53c19.38-8,48.79-8.68,69.87-2.19L276.33,322.2c-11-7.12-35.65-5.69-45.95.2Z"/>
                  <path class="cls-52" d="M230.4,353.77l-.14,0c-.09-.05-.18-.13-.18-.21V322.41a.2.2,0,0,1,.1-.2c10.59-6.07,35.44-7.27,46.34-.2l.06.06L300.5,351.2a.22.22,0,0,1,0,.29.34.34,0,0,1-.34.07c-21.37-6.57-50.63-5.66-69.59,2.18Zm.28-31.24v30.62c18.85-7.62,47.54-8.58,68.81-2.3L276.1,322.36C265.4,315.46,241.17,316.63,230.68,322.53Z"/>
                </g>
                <g>
                  <path class="cls-5" d="M230.38,353.53c20.19-11,48.33-12.06,70.06-5.73l-23.86-26.16c-11-7.12-35.9-5.13-46.2.76Z"/>
                  <path class="cls-52" d="M230.4,353.77l-.14,0c-.1-.05-.18-.12-.18-.21V322.41a.2.2,0,0,1,.1-.2c10.84-6.21,35.86-7.72,46.59-.76l23.91,26.2a.21.21,0,0,1,0,.29.35.35,0,0,1-.34.09c-23.53-6.85-50.94-4.61-69.79,5.71A.37.37,0,0,1,230.4,353.77Zm.28-31.24v30.54c18.74-10.05,45.64-12.29,68.94-5.76l-23.26-25.5C265.83,315,241.42,316.48,230.68,322.53Z"/>
                </g>
                <path class="cls-49" d="M230.39,358.35c-21.11-4.2-48.34-2.87-68.74,2.34a8.46,8.46,0,0,1-.43-.8l23.17-34.68c11-7.22,35.68-6,46-.21Z"/>
                <path class="cls-50" d="M230.38,356.26c-21.1-4.2-46.83-3.57-67.23,1.64a39.36,39.36,0,0,1-2.2-3.4l28.89-31c11-7.22,30.23-6.91,40.54-1.11Z"/>
                <g>
                  <path class="cls-51" d="M230.38,353.53c-20.18-6.5-49.35-5.19-69.43,1l29.64-31c11-7.22,29.48-6.91,39.79-1.11Z"/>
                  <path class="cls-52" d="M161,354.75a.36.36,0,0,1-.25-.1.21.21,0,0,1,0-.29l29.65-31c11.43-7.53,30.37-6.67,40.17-1.15a.24.24,0,0,1,.15.19v31.12a.27.27,0,0,1-.13.22.41.41,0,0,1-.29,0c-18.69-6-47.77-5.59-69.21,1Zm29.86-31.07-29,30.3c18.44-5.42,47.36-7.41,68.26-.83V322.53C220.42,317.18,202,316.33,190.81,323.68Z"/>
                </g>
                <g>
                  <path class="cls-53" d="M230.38,353.53c-19.39-7.83-49.12-8.95-70.18-2.28l26.45-28.43c10.95-7.22,33.42-6.22,43.73-.42Z"/>
                  <path class="cls-52" d="M230.4,353.77l-.14,0c-19.65-7.94-49.06-8.88-69.95-2.27a.34.34,0,0,1-.35-.08.21.21,0,0,1,0-.29l26.45-28.42c11.12-7.33,33.58-6.41,44.12-.47a.24.24,0,0,1,.15.19v31.12a.24.24,0,0,1-.13.22Zm-39.34-7.16c13.9-.07,27.95,2.16,39,6.54V322.53c-10.21-5.65-32.51-6.57-43.22.46l-25.8,27.73A107.32,107.32,0,0,1,191.06,346.61Z"/>
                </g>
                <g>
                  <path class="cls-5" d="M230.38,353.53c-19.81-11.3-50.65-12.33-70.19-6.53l24.34-24.95c11-7.22,35.54-5.45,45.85.35Z"/>
                  <path class="cls-52" d="M230.4,353.77a.22.22,0,0,1-.14,0c-20.43-11.65-51.31-12.05-70-6.51a.35.35,0,0,1-.34-.08.21.21,0,0,1,0-.3l24.34-25c5-3.32,13.6-5.09,23.4-4.8,9,.27,17.72,2.23,22.83,5.11a.24.24,0,0,1,.15.19v31.12a.22.22,0,0,1-.13.22Zm-44.09-10.48c15-.07,31.26,2.8,43.77,9.77V322.53c-10.66-5.9-34.92-7.14-45.33-.31l-23.68,24.27A97.71,97.71,0,0,1,186.31,343.29Z"/>
                </g>
                <path class="cls-54" d="M273.91,323.4a.33.33,0,0,0-.29-.41c-13.73-3-27.18-2.1-37.88,2.52a.3.3,0,0,0-.17.45.42.42,0,0,0,.37.18.43.43,0,0,0,.19,0c10.51-4.54,23.74-5.41,37.27-2.46A.43.43,0,0,0,273.91,323.4Zm3.24,3.17a.35.35,0,0,0-.31-.41c-14.83-2.75-27.89-1.59-41.08,3.63a.31.31,0,0,0-.19.45.43.43,0,0,0,.37.19.39.39,0,0,0,.18,0c13-5.15,25.89-6.28,40.53-3.57A.44.44,0,0,0,277.15,326.57Zm3.29,3.39a.36.36,0,0,0-.33-.4c-17.61-2.73-27-2.38-44.56,5.09a.3.3,0,0,0-.18.45.42.42,0,0,0,.37.18.43.43,0,0,0,.19,0c17.36-7.37,26.62-7.72,44-5A.42.42,0,0,0,280.44,330Zm-44.57,9.82a.43.43,0,0,0,.36.17.46.46,0,0,0,.2-.05c19.38-8.86,30.05-8,46.12-6a.4.4,0,0,0,.47-.28.35.35,0,0,0-.34-.39c-16.25-2-27-2.83-46.65,6.14A.31.31,0,0,0,235.87,339.78Zm0,5.08a.44.44,0,0,0,.36.18.65.65,0,0,0,.2,0c18.44-8.14,32.44-8.82,50.21-6.46a.42.42,0,0,0,.48-.28c0-.18-.11-.35-.34-.38-17.95-2.39-32.1-1.7-50.74,6.53A.3.3,0,0,0,235.89,344.86Z"/>
                <path class="cls-54" d="M188.88,323.64c13.53-2.95,26.76-2.08,37.27,2.46a.45.45,0,0,0,.2,0,.42.42,0,0,0,.36-.18.3.3,0,0,0-.17-.45c-10.7-4.62-24.15-5.51-37.88-2.52a.33.33,0,0,0-.29.41A.43.43,0,0,0,188.88,323.64Zm-3.25,3.18c14.64-2.71,27.51-1.58,40.53,3.57a.39.39,0,0,0,.18,0,.43.43,0,0,0,.37-.19.31.31,0,0,0-.19-.45c-13.19-5.22-26.25-6.38-41.08-3.63a.35.35,0,0,0-.31.41A.44.44,0,0,0,185.63,326.82Zm-3.3,3.4c17.4-2.7,26.66-2.35,44,5a.43.43,0,0,0,.19,0,.42.42,0,0,0,.37-.18.3.3,0,0,0-.18-.45c-17.57-7.47-26.95-7.82-44.56-5.09a.36.36,0,0,0-.33.4A.42.42,0,0,0,182.33,330.22Zm43.92,9.1c-19.61-9-30.4-8.16-46.65-6.14a.35.35,0,0,0-.34.39.4.4,0,0,0,.47.28c16.07-2,26.74-2.81,46.12,6a.46.46,0,0,0,.2.05.43.43,0,0,0,.36-.17A.31.31,0,0,0,226.25,339.32Zm0,5.09c-18.64-8.23-32.79-8.92-50.74-6.53-.23,0-.38.2-.34.38a.42.42,0,0,0,.48.28c17.77-2.36,31.77-1.68,50.21,6.46a.65.65,0,0,0,.2,0,.44.44,0,0,0,.36-.18A.3.3,0,0,0,226.22,344.41Z"/>
              </g>
              <path class="cls-19" d="M212,256a78.86,78.86,0,0,0,21.31,22l-16.85,17.83a99.51,99.51,0,0,1-14.75-38.92l3.75-3.27Z"/>
              <path class="cls-19" d="M251.55,255.68a35,35,0,0,1-17.16,24.18l18.38,15.29a78.29,78.29,0,0,0,7.32-21,77.24,77.24,0,0,0,1.42-15.41l-6.79-5.13Z"/>
              <path class="cls-46" d="M241.62,277.32c-.9-.38-4.07-2.93-10.51-.49s1.61,10.38,1.61,10.38h7.08S249.24,280.5,241.62,277.32Z"/>
              <g>
                <path class="cls-55" d="M284.29,228c-3.3,6.94-9.32,10.35-14.74,8s-3.62-6.37-.75-13.52,2.4-7,7.78-9.46C287.24,208.09,287.74,220.76,284.29,228Z"/>
                <path class="cls-56" d="M279.13,216.12a2.69,2.69,0,0,1,2.5.13c1,.67,1.16,2.07,1.12,3.28a20.47,20.47,0,0,1-4.52,11.67,4.75,4.75,0,0,1-1.47,1.39,1.73,1.73,0,0,1-1.88-.1,2.22,2.22,0,0,1-.52-2.15c.4-1.93,2-3.28,3.3-4.72a3.63,3.63,0,0,0,.86-1.33,1.51,1.51,0,0,0-.25-1.51,1.76,1.76,0,0,0-1.1-.46,9.63,9.63,0,0,0-2.46.1c-.41-1.26.55-2.52,1.21-3.45A7.6,7.6,0,0,1,279.13,216.12Z"/>
              </g>
              <g>
                <path class="cls-55" d="M184.3,229.36c3.36,6.65,10.09,7.76,14.34,4.61s2.2-6.83-1.16-13.48-3.22-6.35-8.16-8C180.36,209.56,180.94,222.71,184.3,229.36Z"/>
                <path class="cls-56" d="M187.94,215.7a2,2,0,0,0-2.09.48c-.73.81-.7,2.22-.51,3.42a21.83,21.83,0,0,0,5.35,10.89,4.15,4.15,0,0,0,1.42,1.15,1.33,1.33,0,0,0,1.58-.36,2.56,2.56,0,0,0,.15-2.21c-.59-1.85-2.13-2.95-3.41-4.19a3.82,3.82,0,0,1-.9-1.19,1.82,1.82,0,0,1,0-1.53,1.5,1.5,0,0,1,.87-.62,7,7,0,0,1,2.08-.25c.18-1.31-.79-2.41-1.47-3.24A6.5,6.5,0,0,0,187.94,215.7Z"/>
              </g>
              <path class="cls-55" d="M274,193c-1-25.79-15.25-41.88-43.19-40-27.11,1.8-42,17.55-41,43.35.46,11.92,4.32,32.31,4.37,33,2,25.15,20.2,35.37,42.49,34.25,11.45-.57,36.18-12,35.82-39.45C272.47,223.41,274.44,204.9,274,193Z"/>
              <path class="cls-56" d="M260.12,180.93s-7,10.51-37.48,8.56l1.12-4.35s-8.51,5.61-26.43,7.88l-5.14,22,5.38-47.63,64.59-1.7,9.16,11.47L270,190.29s4.09,22,2.47,30.89l-5-21.52S260.46,214,260.12,180.93Z"/>
              <path class="cls-57" d="M273.27,158.49c.89,0,0,0,.92.21-.62-1.92-1.25-3.82-1.94-5.7-.17-.22-.35-.45-.52-.69l-3.64-5.08-.42-.25c-1.65.33-.78.91-.78.91-2.34-16.95-30.35-18-41-13.16-5.21,2.35-8.89,3.33-11.44,3.4-1.54.61-3.1,1.19-4.66,1.76q-2.55,1.34-5.11,2.64c-1.73,1-3.45,2-5.17,3-1,.58-2,1.15-3,1.7,0,.45.08.7.08.7-22.05,15-14.45,41.38-14.45,41.38,1-4.09,2.75-5.21,2.75-5.21-2.54,8.38.39,18.57.39,18.57,1.06,7.06,7,12.33,7,12.33l6.64-38.46-.27,15c10.11-4.4,22.49-3.41,28.55-14.07-3.35,7.63-6.06,10.66-6.06,10.66,34.55,1,40.8-9.95,40.8-9.95-3.35,19.36,3.43,23.51,3.43,23.51l2.58-3.36a86.68,86.68,0,0,1,4.92,22c6.65-12.22,11-21.78,8.92-39.89C279.55,161.31,273.27,158.49,273.27,158.49Z"/>
              <g>
                <path class="cls-57" d="M221,194.91c-3.19-.41-14.09,1.17-15.87,8.46,0,0,8.2-4.72,15.81-4.68C220.91,198.69,222.6,195.12,221,194.91Z"/>
                <path class="cls-57" d="M242.88,194.07c3.09-.94,14.09-1.22,17,5.68,0,0-8.82-3.28-16.32-2C243.52,197.79,241.31,194.55,242.88,194.07Z"/>
                <g>
                  <path class="cls-58" d="M227.11,226.42a12.79,12.79,0,0,0,5.54,2.88c3.13.63,7.31-3.89,7.31-3.89"/>
                  <path class="cls-59" d="M227.11,226.42a16.39,16.39,0,0,0,3.17,1.87,12.15,12.15,0,0,0,1.72.61,4.17,4.17,0,0,0,1.74.17,8.37,8.37,0,0,0,3.29-1.4,25.41,25.41,0,0,0,2.93-2.26,14.74,14.74,0,0,1-2.71,2.58,7.86,7.86,0,0,1-3.45,1.58,4.48,4.48,0,0,1-1.93-.22,9.87,9.87,0,0,1-1.75-.71A11.62,11.62,0,0,1,227.11,226.42Z"/>
                </g>
                <g>
                  <ellipse class="cls-60" cx="216.65" cy="213.76" rx="7.97" ry="8.83"/>
                  <ellipse class="cls-61" cx="216.65" cy="213.96" rx="5.08" ry="5.11"/>
                  <ellipse class="cls-5" cx="214.28" cy="209.84" rx="1.39" ry="1.4"/>
                </g>
                <g>
                  <ellipse class="cls-60" cx="251.06" cy="213.66" rx="8.83" ry="7.98" transform="translate(25.12 453.73) rotate(-87.14)"/>
                  <ellipse class="cls-61" cx="251.06" cy="213.95" rx="4.73" ry="4.51" transform="translate(36.55 464.53) rotate(-89.87)"/>
                  <ellipse class="cls-5" cx="249.29" cy="209.96" rx="1.3" ry="1.24" transform="translate(38.77 458.78) rotate(-89.87)"/>
                </g>
                <g>
                  <ellipse class="cls-60" cx="394.44" cy="205.98" rx="8.83" ry="7.97" transform="translate(187.57 599.95) rotate(-89.87)"/>
                  <ellipse class="cls-61" cx="394.44" cy="206.18" rx="5.11" ry="5.08" transform="translate(187.37 600.15) rotate(-89.87)"/>
                  <ellipse class="cls-5" cx="392.07" cy="202.06" rx="1.4" ry="1.39" transform="translate(189.13 593.68) rotate(-89.87)"/>
                </g>
                <g>
                  <ellipse class="cls-60" cx="428.85" cy="205.96" rx="8.83" ry="7.98" transform="translate(200.78 623.47) rotate(-87.01)"/>
                  <ellipse class="cls-61" cx="428.85" cy="206.25" rx="4.73" ry="4.51" transform="translate(220.67 634.17) rotate(-89.74)"/>
                  <ellipse class="cls-5" cx="427.09" cy="202.26" rx="1.3" ry="1.24" transform="translate(222.91 628.43) rotate(-89.74)"/>
                </g>
                <g>
                  <path class="cls-62" d="M247.49,234.7c.63-.26,1.35-1.31,1.92-1.67a4.21,4.21,0,0,1,1.87-.66c.86-.09,1.91.24,2.08,1a1.83,1.83,0,0,1-.9,1.7,5.4,5.4,0,0,1-3.31,1.08,1.62,1.62,0,0,1-1.37-.55c-.28-.42,0-1.15.55-1.07Z"/>
                  <path class="cls-62" d="M219.71,236.52c-.4-.47-1-1.76-1.56-2.1A2.6,2.6,0,0,0,217,234a1.9,1.9,0,0,0-1.88,1.27,2.44,2.44,0,0,0,.49,2.25,4.21,4.21,0,0,0,2,1.28,3.07,3.07,0,0,0,1.61.16,1.45,1.45,0,0,0,1.13-1,1.43,1.43,0,0,0-.7-1.35,4.64,4.64,0,0,0-1.54-.54Z"/>
                  <g>
                    <path class="cls-63" d="M217,235.83a14.43,14.43,0,0,0,.69,1.66c1.53,3.22,5.18,9.17,9.8,11.38a12.4,12.4,0,0,0,10.76-.19c4.42-2.18,6.42-4.77,8.95-9.13.83-1.42,1.71-3,2.75-4.86,0,0,.25-.34-.16-.36a2.49,2.49,0,0,0-.69.13c-2.48.72-8.79,4.39-18.55,3.89-7.51-.39-11.6-2.11-13.1-2.89a.33.33,0,0,0-.45.17A.28.28,0,0,0,217,235.83Z"/>
                    <path class="cls-64" d="M217.72,237.49c1.53,3.22,5.18,9.17,9.8,11.38a12.4,12.4,0,0,0,10.76-.19c4.42-2.18,6.42-4.77,8.95-9.13-2.95,3.41-7.92,7.89-14,8.32C225,248.46,219.34,240.19,217.72,237.49Z"/>
                    <path class="cls-65" d="M217,235.63a30.69,30.69,0,0,0,17,4.14c9-.39,14.16-4.15,15.79-5.44a2.49,2.49,0,0,0-.69.13c-2.48.72-8.79,4.39-18.55,3.89-7.5-.39-11.61-2.11-13.1-2.88A.32.32,0,0,0,217,235.63Z"/>
                    <path class="cls-66" d="M246.15,236.33c-.19.08-10.68,6.68-25.1,1.24,0,0,2.08,5,10.77,5.44A15.91,15.91,0,0,0,246.15,236.33Z"/>
                    <path class="cls-67" d="M233.22,247.74c2-.12,4.6-.69,5.6-1.64-1.81-1.86-4.14-.5-6.1-1.09-4.12-1.25-5.55.3-6.09,1.16C227.83,247.16,230.37,247.91,233.22,247.74Z"/>
                  </g>
                </g>
              </g>
              <g>
                <ellipse class="cls-60" cx="401.54" cy="232.3" rx="8.83" ry="7.98" transform="translate(149.47 621.74) rotate(-87.14)"/>
                <ellipse class="cls-61" cx="401.54" cy="232.59" rx="4.73" ry="4.51" transform="translate(168.05 633.61) rotate(-89.87)"/>
                <ellipse class="cls-5" cx="399.77" cy="228.6" rx="1.3" ry="1.24" transform="translate(170.27 627.86) rotate(-89.87)"/>
              </g>
              <g>
                <g>
                  <path class="cls-68" d="M355.12,216.83c1.67,5.63,6.51,9.41,9.89,9.08s3.67-4.83,2.63-10.22-4.63-9.51-8-9.18C355,207,353.54,211.53,355.12,216.83Z"/>
                  <path class="cls-35" d="M362.72,209.79a3.55,3.55,0,0,0-3.42-.84,2.54,2.54,0,0,0-1.46,1.69,9.67,9.67,0,0,0,.44,6.1c.82,2.44,2.24,5,5.19,6.27a1.67,1.67,0,0,0,.85.17c.65-.08.77-.72.76-1.23l-.07-2.09a2.09,2.09,0,0,0-.35-1.32,4.12,4.12,0,0,0-1.35-.89,3.71,3.71,0,0,1-2-1.85,1.34,1.34,0,0,1,.72-1.6c.62-.29,1.83.13,2.27-.25C365.07,213.31,363.37,210.42,362.72,209.79Z"/>
                </g>
                <g>
                  <path class="cls-69" d="M463.79,217.24c-2.18,5.24-7.22,8-10.45,7.07s-3-5.48-1.48-10.6,5.41-8.5,8.63-7.52C464.89,207.53,465.84,212.31,463.79,217.24Z"/>
                  <path class="cls-35" d="M457.8,208.41a2.5,2.5,0,0,1,2.85-.33,2.63,2.63,0,0,1,1,1.84,10.78,10.78,0,0,1-1,5.82c-.9,2.24-2.31,4.55-4.82,5.31a1.2,1.2,0,0,1-.7,0c-.52-.17-.56-.81-.5-1.3l.26-2a2.22,2.22,0,0,1,.42-1.23,3.11,3.11,0,0,1,1.18-.67,3.06,3.06,0,0,0,1.77-1.5,1.46,1.46,0,0,0-.43-1.64c-.47-.37-1.5-.14-1.81-.57C455.55,211.47,457.21,208.93,457.8,208.41Z"/>
                </g>
                <path class="cls-22" d="M453.64,222.55C451,247.07,419.8,257.89,410.87,257c-11.38-1.21-42-4.3-47-47.45a8.24,8.24,0,0,1,0-1.11v0c.44-16.87-5.69-32.23-4.07-38.78,5.61-22.63,9.68-13.8,36.45-16.34,25-2.38,35.7-2.46,51.12,10.42,1.36,1.14,5.89,2.43,5.95,6.49.13,6.92.29,12.1.44,16.26C454.34,200.77,455.71,203.08,453.64,222.55Z"/>
                <path class="cls-70" d="M453.84,186.42c-7-9.18-15.59-13.2-26-14.93-11.76,8.4-24.22,13.35-38.38,10.5,16.9-14.49,4.57-9.56,7.82-13,0,3.69-7.06,9.09-14.33,6.13A47.13,47.13,0,0,1,369.84,191c-1.92,1.49-5,12.72-5.4,14.26-.23.92-.3,2-.49,3.1.44-16.87-5.69-32.23-4.07-38.78,5.61-22.63,9.68-13.8,36.45-16.34,25-2.38,35.7-2.46,51.12,10.42,1.36,1.14,5.89,2.43,5.95,6.49C453.53,177.08,453.69,182.26,453.84,186.42Z"/>
                <path class="cls-71" d="M397.08,189.87l-.82-1a6.87,6.87,0,0,0-6.34-2.86,11.33,11.33,0,0,0-8,5.82c-.27.47-.48.66-.07.33C384.68,189.87,391.88,187.06,397.08,189.87Z"/>
                <path class="cls-72" d="M425.8,169.3s-6.86,11.84-36.37,11.67c0,0,12.61-10.81,5.67-12.52,0,0-4.58,7.8-14.48,4,0,0,4.7.92-12.7,17.5,0,0-5,5.73-4,19.53.07.92-6.86-1.11-7.19-10.81,0,0-12.27-10.1-2.35-23.09,0,0-10.63-18.39,7.72-24.56,0,0,2-18.14,16.29-19.11,0,0,15.12-22.22,36.53-6.78,0,0,19.2-9.2,29.66,9.14,0,0,14.76,5.42,12.69,19,0,0,19.55,9.23,7.38,23.49,0,0,5.31,10.88-4.75,23.54l-5,12.91-.75-5c-.12-10.72,1.71-14.44-3.1-24C451,184.15,446.46,168.7,425.8,169.3Z"/>
                <path class="cls-73" d="M405,219s.61,3.19,5.36,3.31S416,219,416,219,411.19,223.83,405,219Z"/>
                <path class="cls-71" d="M423.27,188.59l.83-1a6.87,6.87,0,0,1,6.34-2.86,11.26,11.26,0,0,1,8,5.82c.28.47.48.65.08.33C435.68,188.6,428.48,185.79,423.27,188.59Z"/>
                <path class="cls-35" d="M395.79,228.66c0,1.4-.16,2.32-1.56,2.32s-4.72-3-5.07-4.33c-.64-2.54,1.21-3.18,2.54-2.54S395.79,227.26,395.79,228.66Z"/>
                <path class="cls-35" d="M427.62,229.42c0,1.4.15,2.32,1.55,2.32s4.73-3,5.08-4.33c.64-2.54-1.21-3.18-2.54-2.54S427.62,228,427.62,229.42Z"/>
                <g>
                  <g>
                    <path class="cls-71" d="M411,242.84c13.38,0,24.69-18.05,22.12-17.21-3.95,1.29-3.6,2.19-14.18,2.75-2.08.11-6.4.27-9.59.13a106.09,106.09,0,0,1-14.05-1.59c-1.93-.37-3.52-1.44-4.66-1.32C387.71,225.9,399.3,242.84,411,242.84Z"/>
                    <path class="cls-74" d="M411,242.84a14,14,0,0,1-7.48-2.25,8.86,8.86,0,0,1,5.75-3.63c3.51-.67,8.94.13,10.86,2.84C418.16,241.83,413.49,242.78,411,242.84Z"/>
                    <path class="cls-5" d="M392.76,226.22a65.22,65.22,0,0,0,36.23.7c-2.11,3.11-8.64,7.62-17,7.82C402.88,235,396.27,229.93,392.76,226.22Z"/>
                  </g>
                  <path class="cls-75" d="M390.73,225.54c-.05,0-.08.06,0,.08,2.72,1.28,20.68,8.93,42.43,0C433.13,225.63,416,231.54,390.73,225.54Z"/>
                  <path class="cls-75" d="M405.65,243.39a9.25,9.25,0,0,0,9.26.43A6.3,6.3,0,0,1,405.65,243.39Z"/>
                </g>
              </g>
              <g>
                <ellipse class="cls-60" cx="394.44" cy="204.16" rx="7.97" ry="8.83"/>
                <ellipse class="cls-61" cx="394.44" cy="204.37" rx="5.08" ry="5.11"/>
                <ellipse class="cls-5" cx="392.06" cy="200.25" rx="1.39" ry="1.4"/>
              </g>
              <g>
                <ellipse class="cls-60" cx="427.62" cy="204.16" rx="7.97" ry="8.83"/>
                <ellipse class="cls-61" cx="427.62" cy="204.37" rx="5.08" ry="5.11"/>
                <ellipse class="cls-5" cx="425.25" cy="200.25" rx="1.39" ry="1.4"/>
              </g>
            </g>
          </g>
        </g>
      </g>
      <g class="cls-76">
        <g class="cls-77">
          <g>
            <path class="cls-8" d="M-1788.44,427.48c-2.24,44.35-4.53,89,2.32,133.19a47.07,47.07,0,0,1,2.86,14H128.07c-.76-14-1.32-28-1.76-42-.79-24.79-1.48-49.6-3-74.38L-91.25,356.47h-1526l-170.24,49.71Q-1787.91,416.83-1788.44,427.48Z"/>
            <path class="cls-9" d="M252,928.19c-1-87.11-1.89-174.25-4.17-261.28-2-75.13-4.52-150.11-6.06-225.25l-69.7-89.19-2089.29-.18-54.53,254.28,29.16,448H254Q252.74,991.44,252,928.19Z"/>
            <path class="cls-11" d="M-1861.77,498.83H85.48l-3.36-2.14-1943.81-.59C-1861.72,497-1861.75,497.92-1861.77,498.83Z"/>
            <path class="cls-11" d="M205.7,950.89l-445.15-599.4-1.2,8.24L205.92,969.51Q205.8,960.21,205.7,950.89Z"/>
          </g>
        </g>
      </g>
    </g>
  </g>
</svg>
