<svg xmlns="http://www.w3.org/2000/svg" xmlns:xlink="http://www.w3.org/1999/xlink" width="619.88" height="562.43" viewBox="0 0 619.88 562.43">
  <defs>
    <style>
      .cls-1, .cls-17 {
        fill: none;
      }

      .cls-2 {
        isolation: isolate;
      }

      .cls-3, .cls-45 {
        fill: #fff;
      }

      .cls-4 {
        clip-path: url(#clip-path);
      }

      .cls-5 {
        fill: #c4b7a3;
      }

      .cls-6 {
        fill: #80ddda;
      }

      .cls-7 {
        fill: #f0b081;
      }

      .cls-8 {
        fill: #794d3b;
      }

      .cls-9 {
        fill: #5c3829;
      }

      .cls-10, .cls-15 {
        fill: #818dbd;
      }

      .cls-11 {
        fill: #d46255;
        fill-rule: evenodd;
      }

      .cls-12 {
        font-size: 50.02px;
      }

      .cls-12, .cls-13, .cls-16 {
        fill: #34a2a2;
      }

      .cls-12, .cls-13, .cls-14, .cls-16 {
        stroke: #f9f9f9;
      }

      .cls-103, .cls-107, .cls-12, .cls-13, .cls-14, .cls-15, .cls-16, .cls-17, .cls-19, .cls-36, .cls-40, .cls-42, .cls-45, .cls-54, .cls-57, .cls-58 {
        stroke-miterlimit: 10;
      }

      .cls-12, .cls-13, .cls-14, .cls-15, .cls-16 {
        font-family: CoopHeavy;
      }

      .cls-13 {
        font-size: 41.76px;
      }

      .cls-14 {
        font-size: 42.52px;
        fill: #da717c;
      }

      .cls-15 {
        font-size: 41.07px;
        stroke: #f9f7f8;
      }

      .cls-16 {
        font-size: 38.35px;
      }

      .cls-17 {
        stroke: #826f6f;
        stroke-width: 3px;
      }

      .cls-18 {
        fill: #2d3c42;
      }

      .cls-19, .cls-20 {
        fill: #020202;
      }

      .cls-19 {
        stroke: #211e1f;
        opacity: 0.2;
      }

      .cls-20, .cls-34 {
        opacity: 0.3;
      }

      .cls-21 {
        fill: #8d653d;
      }

      .cls-22 {
        fill: #a76f43;
      }

      .cls-103, .cls-23, .cls-38 {
        fill: #df71e2;
      }

      .cls-23 {
        stroke: #710e7c;
      }

      .cls-23, .cls-24, .cls-25, .cls-26, .cls-27 {
        stroke-linejoin: round;
      }

      .cls-23, .cls-24, .cls-25, .cls-26, .cls-27, .cls-45 {
        stroke-width: 0.75px;
      }

      .cls-101, .cls-24, .cls-36, .cls-42 {
        fill: #f9dad2;
      }

      .cls-24 {
        stroke: #7f430d;
      }

      .cls-25 {
        fill: #9b959a;
        stroke: #423a33;
      }

      .cls-26 {
        fill: #686c70;
        stroke: #211f1c;
      }

      .cls-27 {
        fill: #311415;
        stroke: #190500;
      }

      .cls-28 {
        fill: #89513a;
      }

      .cls-29 {
        fill: #c47947;
      }

      .cls-30 {
        opacity: 0.12;
      }

      .cls-31 {
        fill: #d68549;
      }

      .cls-32 {
        fill: #ea9c47;
      }

      .cls-33 {
        fill: #f9c273;
      }

      .cls-35 {
        fill: #342517;
      }

      .cls-36, .cls-42 {
        stroke: #4c2606;
      }

      .cls-103, .cls-107, .cls-36, .cls-40 {
        stroke-width: 0.5px;
      }

      .cls-37 {
        fill: #e8c0b8;
      }

      .cls-39 {
        fill: #501c54;
      }

      .cls-40 {
        fill: #61435b;
        stroke: #1c101a;
      }

      .cls-41 {
        fill: #342516;
      }

      .cls-43 {
        fill: #b26b51;
      }

      .cls-44 {
        fill: #eaa698;
        opacity: 0.5;
      }

      .cls-45 {
        stroke: #3d2d16;
      }

      .cls-46 {
        fill: #3d2d16;
      }

      .cls-47 {
        fill: #8c3d35;
      }

      .cls-48 {
        fill: #7a2f2b;
      }

      .cls-49 {
        fill: #f9988f;
      }

      .cls-50 {
        fill: #f58778;
      }

      .cls-51 {
        fill: #fff7f4;
      }

      .cls-52 {
        fill: #f48a71;
      }

      .cls-53 {
        fill: #ef4b3b;
      }

      .cls-54 {
        fill: #fe66ca;
      }

      .cls-54, .cls-57 {
        stroke: #af1086;
        stroke-width: 2px;
      }

      .cls-55 {
        fill: #fffa71;
      }

      .cls-56 {
        fill: #cc0098;
      }

      .cls-57 {
        fill: #e852bb;
      }

      .cls-58 {
        fill: #e7d760;
        stroke: #baa73b;
      }

      .cls-59 {
        fill: #dadada;
      }

      .cls-60 {
        fill: #2f6b7f;
      }

      .cls-61 {
        fill: #295368;
      }

      .cls-62 {
        fill: #1c3d51;
      }

      .cls-63 {
        fill: #7fb5d3;
      }

      .cls-64 {
        fill: #b2b2b2;
      }

      .cls-65 {
        fill: #d6d6d6;
      }

      .cls-66 {
        fill: #5c9bb7;
      }

      .cls-67 {
        fill: #98cbe2;
      }

      .cls-68 {
        fill: #3a7893;
      }

      .cls-69 {
        fill: #f9f9f9;
      }

      .cls-70 {
        fill: #adadad;
      }

      .cls-71 {
        fill: #d86532;
      }

      .cls-72 {
        fill: #ebe9df;
      }

      .cls-73 {
        fill: #e0ddc9;
      }

      .cls-74 {
        fill: #f78e59;
      }

      .cls-75 {
        fill: #334e5c;
      }

      .cls-76 {
        fill: #22343d;
      }

      .cls-77 {
        fill: #efca58;
      }

      .cls-78 {
        fill: #ee3a59;
      }

      .cls-79 {
        fill: #46b29e;
      }

      .cls-80 {
        fill: #d1a730;
      }

      .cls-81 {
        fill: #dedede;
        mix-blend-mode: multiply;
      }

      .cls-82 {
        fill: #2b8e7b;
      }

      .cls-83 {
        fill: #d35c20;
      }

      .cls-84 {
        fill: #f4743b;
      }

      .cls-85 {
        fill: #cc8527;
      }

      .cls-86 {
        fill: #ffc776;
      }

      .cls-87 {
        fill: #aa4518;
      }

      .cls-88 {
        fill: #ffecae;
      }

      .cls-89 {
        fill: #ff3636;
      }

      .cls-90 {
        fill: url(#linear-gradient);
      }

      .cls-91 {
        fill: #ff4848;
      }

      .cls-92 {
        opacity: 0.27;
      }

      .cls-93 {
        fill: #6b28a0;
      }

      .cls-94 {
        fill: url(#linear-gradient-2);
      }

      .cls-95 {
        fill: #9a4ccc;
      }

      .cls-96 {
        fill: #ffb000;
      }

      .cls-97 {
        fill: #e5d8c0;
      }

      .cls-98 {
        fill: url(#linear-gradient-3);
      }

      .cls-99 {
        fill: #ffc826;
      }

      .cls-100 {
        fill: #51b77d;
      }

      .cls-102 {
        fill: #4c2606;
      }

      .cls-103 {
        stroke: #501c54;
      }

      .cls-104 {
        fill: #2d3452;
      }

      .cls-105 {
        fill: #ddb186;
      }

      .cls-106 {
        fill: #604e3a;
      }

      .cls-107, .cls-108 {
        fill: #fbd3c7;
      }

      .cls-107 {
        stroke: #453323;
      }

      .cls-109 {
        fill: #453323;
      }
    </style>
    <clipPath id="clip-path">
      <rect class="cls-1" x="40.23" y="56.46" width="539.42" height="449.51" rx="116.93"/>
    </clipPath>
    <linearGradient id="linear-gradient" x1="4205.22" y1="9226.34" x2="4201.62" y2="9219.4" gradientTransform="matrix(1.52, 0.01, 0, -0.34, -6021.61, 3437.47)" gradientUnits="userSpaceOnUse">
      <stop offset="0" stop-color="#dcc499"/>
      <stop offset="1" stop-color="#e5d8c0"/>
    </linearGradient>
    <linearGradient id="linear-gradient-2" x1="7622.49" y1="10073.63" x2="7618.49" y2="10065.9" gradientTransform="matrix(-1.09, 0.03, -0.01, -0.3, 8810, 3099.61)" xlink:href="#linear-gradient"/>
    <linearGradient id="linear-gradient-3" x1="7892.93" y1="5454.08" x2="7893.48" y2="5453.12" gradientTransform="matrix(-0.95, 0.05, -0.04, -0.74, 8102.52, 4025.2)" xlink:href="#linear-gradient"/>
  </defs>
  <g class="cls-2">
    <g id="Layer_1" data-name="Layer 1">
      <g>
        <rect class="cls-3" x="30.85" y="47.36" width="558.19" height="467.71" rx="124.29"/>
        <g class="cls-4">
          <g>
            <g>
              <rect class="cls-3" x="-77.05" y="401.19" width="976.52" height="45.46"/>
              <rect class="cls-5" x="-59.88" y="440.98" width="935.91" height="97.24"/>
              <rect class="cls-6" x="-59.88" y="-24.75" width="935.91" height="457.47"/>
            </g>
            <g>
              <g>
                <rect class="cls-7" x="141.95" y="47.99" width="115.25" height="138.82"/>
                <rect class="cls-8" x="150.13" y="57.84" width="98.89" height="119.12"/>
                <polygon class="cls-9" points="246.88 57.84 246.88 174.32 150.13 174.32 150.13 176.96 249.03 176.96 249.03 57.84 246.88 57.84"/>
                <g>
                  <path class="cls-3" d="M187.58,111l.07-.7a13.71,13.71,0,0,1,1.69-5.31,33.33,33.33,0,0,1,5.4-6.45,34.83,34.83,0,0,0,3.82-4.2,5.18,5.18,0,0,0,.87-2.74,3,3,0,0,0-.67-2.14,2.86,2.86,0,0,0-3.84,0,4.52,4.52,0,0,0-.84,2.76l0,.66-5.9-.64.06-.64c.3-2.94,1.26-5.1,2.87-6.42a9,9,0,0,1,5.89-2,8.25,8.25,0,0,1,6.12,2.28,7.79,7.79,0,0,1,2.27,5.69,10.46,10.46,0,0,1-.64,3.63,15.08,15.08,0,0,1-2,3.53,33.19,33.19,0,0,1-3.15,3.43c-1.47,1.45-2.41,2.41-2.78,2.87-.1.11-.18.22-.27.34h8.81v6Z"/>
                  <path class="cls-10" d="M204.75,105.63v4.69H188.24a12.9,12.9,0,0,1,1.61-5,33.21,33.21,0,0,1,5.3-6.31,34.24,34.24,0,0,0,3.9-4.32,5.81,5.81,0,0,0,1-3.09,3.67,3.67,0,0,0-.85-2.59,3.41,3.41,0,0,0-4.68,0,5.07,5.07,0,0,0-1,3.16l-4.69-.5q.4-4.17,2.63-6A8.43,8.43,0,0,1,197,83.87a7.66,7.66,0,0,1,5.71,2.1,7.15,7.15,0,0,1,2.08,5.23,9.82,9.82,0,0,1-.59,3.39A14.14,14.14,0,0,1,202.27,98a31.71,31.71,0,0,1-3.08,3.36c-1.49,1.46-2.43,2.43-2.83,2.91a9,9,0,0,0-1,1.4Z"/>
                  <polygon class="cls-11" points="196.03 80.39 196.32 80.39 196.46 80.4 196.49 80.64 196.52 81.04 196.55 80.65 196.59 80.4 196.75 80.42 197.02 80.41 197.06 80.81 197.12 80.43 197.65 80.46 197.65 80.56 197.68 80.96 197.72 80.58 197.74 80.46 198.23 80.47 198.08 85.16 197.35 85.13 197.33 84.89 197.29 84.52 197.26 84.9 197.21 85.12 196.7 85.1 196.66 84.62 196.6 85.1 196.19 85.1 196.17 84.73 196.13 84.36 196.1 84.74 196.04 85.09 195.88 85.08 196.03 80.39"/>
                </g>
                <text class="cls-12" transform="translate(161.79 104.48) scale(0.93 1)">1</text>
                <polygon class="cls-11" points="168 69.66 168.29 69.66 168.44 69.67 168.46 69.91 168.49 70.31 168.53 69.92 168.56 69.67 168.72 69.69 168.99 69.67 169.03 70.08 169.09 69.7 169.62 69.73 169.62 69.83 169.65 70.23 169.69 69.85 169.71 69.73 170.2 69.74 170.05 74.43 169.32 74.4 169.3 74.16 169.26 73.79 169.23 74.17 169.18 74.39 168.67 74.37 168.63 73.89 168.57 74.37 168.16 74.37 168.14 74 168.1 73.63 168.07 74.01 168.02 74.36 167.85 74.34 168 69.66"/>
                <text class="cls-13" transform="translate(220.27 100.69) scale(0.92 1)">3</text>
                <text class="cls-14" transform="translate(156.96 162.46) scale(0.93 1)">4</text>
                <polygon class="cls-11" points="228.63 70.09 228.92 70.08 229.06 70.1 229.09 70.34 229.12 70.74 229.16 70.35 229.19 70.1 229.35 70.12 229.62 70.11 229.66 70.51 229.72 70.13 230.25 70.16 230.25 70.26 230.28 70.66 230.32 70.28 230.34 70.16 230.83 70.17 230.68 74.86 229.95 74.83 229.93 74.59 229.89 74.22 229.86 74.6 229.81 74.82 229.3 74.8 229.26 74.32 229.2 74.8 228.79 74.8 228.77 74.43 228.73 74.06 228.7 74.44 228.65 74.79 228.48 74.77 228.63 70.09"/>
                <polygon class="cls-11" points="169.34 131.26 169.63 131.26 169.77 131.27 169.79 131.51 169.83 131.91 169.86 131.53 169.89 131.27 170.06 131.29 170.33 131.28 170.36 131.68 170.42 131.3 170.95 131.33 170.95 131.44 170.99 131.84 171.02 131.45 171.05 131.33 171.53 131.35 171.38 136.03 170.66 136.01 170.64 135.77 170.6 135.39 170.56 135.77 170.51 136 170.01 135.97 169.97 135.49 169.91 135.97 169.5 135.97 169.48 135.6 169.44 135.23 169.41 135.61 169.35 135.96 169.19 135.95 169.34 131.26"/>
                <g>
                  <text class="cls-15" transform="translate(220.78 162.48) scale(0.93 1)">6</text>
                  <polygon class="cls-11" points="231.82 132.29 232.12 132.29 232.26 132.3 232.28 132.54 232.31 132.94 232.35 132.56 232.38 132.3 232.55 132.32 232.82 132.31 232.85 132.71 232.91 132.33 233.44 132.36 233.44 132.47 233.48 132.87 233.51 132.48 233.54 132.36 234.02 132.38 233.87 137.06 233.15 137.03 233.13 136.79 233.09 136.42 233.05 136.8 233 137.02 232.5 137 232.46 136.52 232.4 137 231.98 137 231.97 136.63 231.93 136.26 231.89 136.64 231.84 136.99 231.67 136.98 231.82 132.29"/>
                </g>
                <g>
                  <text class="cls-16" transform="translate(194.19 147.7) scale(0.93 1)">5</text>
                  <polygon class="cls-11" points="202.1 119.07 202.4 119.07 202.54 119.08 202.56 119.32 202.59 119.72 202.63 119.34 202.66 119.08 202.83 119.1 203.1 119.09 203.13 119.49 203.19 119.11 203.72 119.14 203.72 119.25 203.76 119.65 203.79 119.26 203.82 119.14 204.3 119.16 204.15 123.84 203.43 123.82 203.41 123.58 203.37 123.2 203.33 123.58 203.28 123.81 202.78 123.78 202.74 123.3 202.68 123.78 202.26 123.78 202.25 123.41 202.21 123.04 202.17 123.42 202.12 123.77 201.95 123.76 202.1 119.07"/>
                </g>
              </g>
              <path class="cls-17" d="M163.46,47.18s29.52-35.49,61.27,0"/>
              <circle class="cls-18" cx="194.77" cy="35.31" r="4.65"/>
            </g>
          </g>
          <g>
            <polygon class="cls-19" points="150.84 470.56 90.43 551.84 559.92 551.84 481.41 474.63 150.84 470.56"/>
            <ellipse class="cls-20" cx="320.28" cy="496.35" rx="51.56" ry="12.38"/>
            <g>
              <rect class="cls-21" x="275.51" y="303.07" width="74.27" height="65.63"/>
              <path class="cls-22" d="M276.14,369.75V300.83h-4.82a7.34,7.34,0,0,0-7.19,7.48v61.44Z"/>
              <path class="cls-22" d="M349.08,369.75V300.83h4.82a7.34,7.34,0,0,1,7.19,7.48v61.44Z"/>
            </g>
            <g>
              <g>
                <path class="cls-23" d="M346.65,447.22c0,.8-1.61,24.24-.43,31.34.79,4.77,19.08,8.75,8.74,14.31-6.3,3.39-23-2.92-22.66-6.88.62-7.42-.35-32.41-1.6-39.71"/>
                <path class="cls-24" d="M346.65,447.22c0,.43-.57,15.41-.57,15.41l-14,.26s-2.53-12.15-1.36-16.61"/>
                <rect class="cls-25" x="331.42" y="462.65" width="15.1" height="2.38" rx="1.14" transform="translate(696.32 913.68) rotate(177.7)"/>
                <path class="cls-26" d="M363.54,495.3s2.21,1.42,0,3.87-24.44-.09-27.65-.73a47.22,47.22,0,0,0-5.5-.89s-1.66-1.5-.07-3.88"/>
                <path class="cls-27" d="M354.17,484.92a2.83,2.83,0,0,1-1.59,2.39c-1.59.79-12.91,0-15.6-1.2a19.9,19.9,0,0,1-5.07-3.57s-3.18,2.38-1.59,11.92c0,0,13.51,2.39,15.1,2.39s14.68,2,17.49-.8c2.39-2.38,1.59-5.56-4-8.74S354.17,484.92,354.17,484.92Z"/>
              </g>
              <g>
                <path class="cls-23" d="M295.06,447.22c0,.8,1.62,24.24.43,31.34-.79,4.77-19.08,8.75-8.74,14.31,6.3,3.39,23-2.92,22.66-6.88-.62-7.42.35-32.41,1.6-39.71"/>
                <path class="cls-24" d="M295.06,447.22c0,.43.57,15.41.57,15.41l14,.26s2.54-12.15,1.36-16.61"/>
                <rect class="cls-25" x="295.19" y="462.65" width="15.1" height="2.38" rx="1.14" transform="translate(18.9 -11.8) rotate(2.3)"/>
                <path class="cls-26" d="M278.17,495.3s-2.21,1.42,0,3.87,24.44-.09,27.66-.73a47,47,0,0,1,5.49-.89s1.66-1.5.07-3.88"/>
                <path class="cls-27" d="M287.54,484.92a2.83,2.83,0,0,0,1.59,2.39c1.59.79,12.91,0,15.6-1.2a19.69,19.69,0,0,0,5.07-3.57s3.18,2.38,1.59,11.92c0,0-13.51,2.39-15.1,2.39s-14.68,2-17.49-.8c-2.39-2.38-1.59-5.56,4-8.74S287.54,484.92,287.54,484.92Z"/>
              </g>
            </g>
            <g>
              <path class="cls-28" d="M171.76,484c-3.06,0-5.53-2.78-5.53-6.21V374.91c0-3.43,2.47-6.21,5.53-6.21s5.52,2.78,5.52,6.21V477.76C177.28,481.19,174.81,484,171.76,484Z"/>
              <path class="cls-28" d="M415.16,485c3.06,0,5.53-2.78,5.53-6.22V376c0-3.43-2.47-6.22-5.53-6.22s-5.52,2.79-5.52,6.22V478.8C409.64,482.24,412.11,485,415.16,485Z"/>
            </g>
            <g>
              <path class="cls-29" d="M439.19,528a6.23,6.23,0,0,0,6.4-6.07V421.48a6.41,6.41,0,0,0-12.81,0V521.91A6.24,6.24,0,0,0,439.19,528Z"/>
              <path class="cls-29" d="M147.91,528a6.23,6.23,0,0,1-6.4-6.07V421.48a6.41,6.41,0,0,1,12.81,0V521.91A6.24,6.24,0,0,1,147.91,528Z"/>
              <path class="cls-28" d="M263.87,474.29c-3.54,0-6.41-2.26-6.41-5.06v-83.7c0-2.79,2.87-5.06,6.41-5.06s6.4,2.27,6.4,5.06v83.7C270.27,472,267.41,474.29,263.87,474.29Z"/>
              <path class="cls-28" d="M364.47,473.24c-3.54,0-6.4-2.26-6.4-5.06v-83.7c0-2.79,2.86-5.06,6.4-5.06s6.41,2.27,6.41,5.06v83.7C370.88,471,368,473.24,364.47,473.24Z"/>
              <rect class="cls-30" x="432.79" y="435.09" width="12.81" height="20.25"/>
              <rect class="cls-30" x="141.51" y="435.09" width="12.81" height="22.28"/>
              <path class="cls-31" d="M132.6,404.42h325a0,0,0,0,1,0,0v47.18a.55.55,0,0,1-.55.55H133.14a.55.55,0,0,1-.55-.55V404.42a0,0,0,0,1,0,0Z"/>
              <polygon class="cls-30" points="132.6 415.24 457.56 412.56 457.56 404.42 132.6 404.42 132.6 415.24"/>
              <path class="cls-32" d="M474.17,400.56H116v8.33a2,2,0,0,0,2.17,1.83H472a2,2,0,0,0,2.17-1.83Z"/>
              <path class="cls-33" d="M470.8,403.25H119.36c-2.51,0-4.14-2.23-3-4.12l25.17-29.86a3.49,3.49,0,0,1,3-1.57H447.9a3.49,3.49,0,0,1,3,1.57l22.89,29.86C474.94,401,473.3,403.25,470.8,403.25Z"/>
            </g>
            <path class="cls-34" d="M150,381.8s-16,1.43-9.4,5,25.42,14.29,37.17,13.75,47.93-.55,45.49-5.23S154.86,381.37,150,381.8Z"/>
            <g>
              <path class="cls-35" d="M277.76,235.12s-8.29,21.88-5.67,39.51-6.43,22.75,5.11,32.71,34.11,14.36,43.73,4.89c0,0,6.41,1.9,21.75-.43s26.91-9.46,22.64-24-2.19-33.83-2.85-45.27-14.93-24.84-44.93-16.76S277.76,235.12,277.76,235.12Z"/>
              <path class="cls-36" d="M318.32,313.76c-14.66-.56-9.41-7.61-9.41-7.61,0-.59,0-1.12,0-1.62-.07-2.85-.12-4.36.87-5.9a9.44,9.44,0,0,1,7.33-3.9,13.77,13.77,0,0,1,6.13.91,6.2,6.2,0,0,1,3.74,6,16.4,16.4,0,0,0,.09,2.77c.33,2.73,1.36,2.77,1.36,2.77C329.33,313.57,318.32,313.76,318.32,313.76Z"/>
              <path class="cls-37" d="M326.92,304.63a25.29,25.29,0,0,1-7.89,2.23c-3.67.34-7.75-1.23-9.93-2.24-.07-2.85-.12-4.35.87-5.89a9.42,9.42,0,0,1,7.33-3.91,13.79,13.79,0,0,1,6.13.91c2.38,1,3.39,3.42,3.3,6A17.71,17.71,0,0,0,326.92,304.63Z"/>
              <g>
                <path class="cls-38" d="M315.17,328.8c-3.32,0-9.05-.15-10.11-1.21-2.06-2.07-2.17-15.35-2.17-18v-.18l.18-.06a18.62,18.62,0,0,1,5.32-.87,7.22,7.22,0,0,1,4.37,1.18,8.32,8.32,0,0,0,5,1.55,7.36,7.36,0,0,0,5.13-1.8,5.08,5.08,0,0,1,3.75-1.47,10.87,10.87,0,0,1,4.94,1.43l.07.05,0,.08c.55,1.52,5.24,14.88,3.09,17C333.28,328,322.43,328.8,315.17,328.8Z"/>
                <path class="cls-39" d="M326.63,308.2a10.7,10.7,0,0,1,4.81,1.4s5.24,14.67,3.14,16.76c-1.29,1.3-11.39,2.19-19.42,2.19-5,0-9.12-.34-9.92-1.14-2.1-2.09-2.1-16.77-2.1-17.81a18.86,18.86,0,0,1,5.25-.86,7.13,7.13,0,0,1,4.22,1.13,8.58,8.58,0,0,0,5.13,1.6,7.68,7.68,0,0,0,5.32-1.87,4.84,4.84,0,0,1,3.57-1.4m0-.5a5.38,5.38,0,0,0-3.93,1.54,7.11,7.11,0,0,1-5,1.73,8,8,0,0,1-4.83-1.5,7.51,7.51,0,0,0-4.52-1.23,19.37,19.37,0,0,0-5.4.88l-.35.12v.36c0,3.73.17,16.08,2.25,18.16,1.06,1.07,6.17,1.29,10.27,1.29,7,0,18.18-.74,19.78-2.33,2.21-2.21-2.14-14.79-3-17.29l-.06-.17-.15-.09a11.14,11.14,0,0,0-5.07-1.47Z"/>
              </g>
              <g>
                <path class="cls-40" d="M321.19,313c-.7-.24-3.23-2-8,.16s2.87,7.36,2.87,7.36l4.23,0S327.11,315,321.19,313Z"/>
                <path class="cls-40" d="M308.4,349.14c.12.41.24.81.37,1.2h0c4,12.3,10.44,18.46,10.44,18.46a65.61,65.61,0,0,0,5.11-7.84c.73-1.33,1.29-2.49,1.72-3.5a17,17,0,0,0,1.39-4.45c-.07-1.53-.16-3-.28-4.43s-.23-2.6-.37-3.84c-.4-3.51-.91-6.63-1.48-9.36-.28-1.38-.58-2.67-.88-3.86-2-7.67-3.75-12.89-4.08-13.34-2-2.83-5.14.31-5.14.31-.06,2.23-.93,5.06-1.42,8-.15.88-.32,1.79-.49,2.7-.51,2.62-1.09,5.28-1.69,7.79l-.62,2.55c-.75,3-1.47,5.66-2,7.41C308.64,348.32,308.4,349.14,308.4,349.14Z"/>
              </g>
              <path class="cls-40" d="M344,372.47s-7.2-3.78-25.39-4.09c-21.84-.37-23.87,2-23.87,2s-4.19-34.59-4.19-56.59c2.42-2.7,14.92-7.81,14.92-7.81s-.25,16.19.8,19.34h25.15s-1.05-16.77-3.35-20c6.44,2.06,14,4.91,15.93,7.45C348.21,323.22,344,372.47,344,372.47Z"/>
              <g>
                <g>
                  <path class="cls-38" d="M309.68,320.73A58.54,58.54,0,0,1,303.57,306l0-.1,3.79-6.56.16.58c0,.08,2.31,8.13,9.77,11.11l.12,0,.05.14c0,.15.14.59-7.36,9.56l-.22.27Z"/>
                  <path class="cls-39" d="M307.26,300s2.25,8.21,9.92,11.27c.4.16-7.29,9.35-7.29,9.35a57.79,57.79,0,0,1-6.07-14.67l3.44-5.95m.17-1.29-.6,1-3.45,5.95-.1.18.05.19a58.58,58.58,0,0,0,6.14,14.81l.36.59.45-.53c7.58-9.07,7.47-9.48,7.4-9.78l-.07-.25-.25-.11c-7.34-2.92-9.59-10.86-9.62-10.94l-.31-1.15Z"/>
                </g>
                <g>
                  <path class="cls-38" d="M325.6,320.76c-7.5-9-7.39-9.41-7.35-9.56l0-.12.13-.06c7.46-3,9.75-11,9.77-11.11l.16-.58,3.79,6.56,0,.1A58.54,58.54,0,0,1,326,320.73l-.18.3Z"/>
                  <path class="cls-39" d="M328.42,300l3.45,5.95a57.6,57.6,0,0,1-6.08,14.67s-7.68-9.19-7.29-9.35c7.67-3.06,9.92-11.27,9.92-11.27m-.17-1.29-.31,1.15c0,.08-2.28,8-9.62,10.94l-.24.1-.08.26c-.07.3-.18.71,7.41,9.78l.44.53.36-.59a57.76,57.76,0,0,0,6.14-14.81l0-.19-.1-.18-3.45-5.95-.6-1Z"/>
                </g>
              </g>
              <g>
                <path class="cls-41" d="M361.07,249.08c0,24.74-19.51,40.47-43.82,40.47s-44-20.06-44-44.8S286,199,318,199C351.61,199,361.07,224.34,361.07,249.08Z"/>
                <g>
                  <path class="cls-42" d="M283.54,268.8c-1.75-2.36-4-4.63-6.72-4.19s-4,3-3.49,7.33,1.48,6.63,4.8,9.25,5.06,3.92,8.55,1.57C287.29,278,284.41,270.37,283.54,268.8Z"/>
                  <path class="cls-43" d="M284.52,281c-.39-.21-.77-.42-1.13-.66a4.24,4.24,0,0,1-1.59-1.94,4.13,4.13,0,0,1-.24-2.48,4.41,4.41,0,0,1,.51-1.32l.15-.23-.08-.16q-.22-.44-.48-.87A17.07,17.07,0,0,0,280,271a5.5,5.5,0,0,0-2.32-1.82,1.83,1.83,0,0,0-1.5.18,1.26,1.26,0,0,0-.69,1.23,1.23,1.23,0,0,1,.79-1,1.61,1.61,0,0,1,1.29,0,5.88,5.88,0,0,1,2.08,1.79,27.43,27.43,0,0,1,1.75,2.24c.2.29.4.59.59.9a4.09,4.09,0,0,0-.74,1.4,4.16,4.16,0,0,0,.16,2.74,4.21,4.21,0,0,0,1.82,2.06,8.17,8.17,0,0,0,1.24.57,2,2,0,0,0,1.33.13A2.14,2.14,0,0,1,284.52,281Zm-7.65-4.47a5.34,5.34,0,0,1-.5-2.72,20.27,20.27,0,0,1,.42-2.87,11.47,11.47,0,0,0-.77,2.84,5.15,5.15,0,0,0,.44,3,5.73,5.73,0,0,0,2.07,2.16,13.51,13.51,0,0,0,2.67,1.25,27.78,27.78,0,0,1-2.47-1.54A6,6,0,0,1,276.87,276.49Z"/>
                </g>
                <g>
                  <path class="cls-42" d="M350.34,268.94c1.77-2.39,4.07-4.69,6.81-4.25s4.08,3,3.54,7.44-1.5,6.73-4.86,9.38-5.14,4-8.68,1.6C346.53,278.24,349.45,270.53,350.34,268.94Z"/>
                  <path class="cls-43" d="M348.07,281.62a2,2,0,0,0,1.35-.14,8.28,8.28,0,0,0,1.25-.57,4.25,4.25,0,0,0,2-4.87,4.1,4.1,0,0,0-.76-1.43c.2-.31.4-.61.61-.91a26,26,0,0,1,1.77-2.27,5.88,5.88,0,0,1,2.11-1.82,1.7,1.7,0,0,1,1.31,0,1.24,1.24,0,0,1,.8,1.06,1.28,1.28,0,0,0-.7-1.25,1.88,1.88,0,0,0-1.52-.18,5.51,5.51,0,0,0-2.35,1.84,17.42,17.42,0,0,0-1.72,2.39c-.17.29-.33.59-.49.88l-.08.16c.05.08.11.16.15.24a4.33,4.33,0,0,1,.52,1.33,4.17,4.17,0,0,1-.24,2.52,4.38,4.38,0,0,1-1.62,2,11.74,11.74,0,0,1-1.14.67A2.29,2.29,0,0,1,348.07,281.62Zm7.14-2.76a28.47,28.47,0,0,1-2.5,1.56,13.84,13.84,0,0,0,2.7-1.27,5.84,5.84,0,0,0,2.11-2.19,5.32,5.32,0,0,0,.44-3,12.24,12.24,0,0,0-.77-2.88,24.58,24.58,0,0,1,.42,2.91,5.41,5.41,0,0,1-.51,2.77A6.14,6.14,0,0,1,355.21,278.86Z"/>
                </g>
                <g>
                  <path class="cls-42" d="M352.35,255.79c0,.31,3.14.64,3.11,1a205.83,205.83,0,0,1-4.62,25.92,19.91,19.91,0,0,1-2.4,5.55,22.93,22.93,0,0,1-6.59,6.7,77.79,77.79,0,0,1-11.73,6.35,58.82,58.82,0,0,1-5.95,2.29,22.72,22.72,0,0,1-6.48,1.25,25.38,25.38,0,0,1-7.3-1.36,94.92,94.92,0,0,1-14.84-6.52c-4.72-2.46-10.46-7.75-11.8-13.37a260,260,0,0,1-5.06-26.29c-.47-3.55,2.57-4.94,5.49-15.48,3.91-14.13,9.3-19.73,31.58-19.73C354.64,222.06,353.59,244.88,352.35,255.79Z"/>
                  <path class="cls-44" d="M281.07,271.39s3.67-23.85,11.59-30.31,9-10.61,9-10.61,2.11,12.07,15.75,17.24l-.6-7.25a17.67,17.67,0,0,0,8.1,7.25l-1.32-9.15A142,142,0,0,1,344,248.41c9.87,5.92,9.45,25.42,9.45,25.42l-4-40.45-33.72-14-21.46-.84-14.53,20,2.26,15.6Z"/>
                </g>
                <g>
                  <ellipse class="cls-45" cx="333.61" cy="263.75" rx="7.1" ry="7.52"/>
                  <ellipse class="cls-46" cx="333.71" cy="263.67" rx="4.75" ry="5.03"/>
                  <ellipse class="cls-3" cx="335.93" cy="259.62" rx="1.3" ry="1.38"/>
                </g>
                <g>
                  <ellipse class="cls-45" cx="299.76" cy="265.11" rx="7.1" ry="7.52"/>
                  <ellipse class="cls-46" cx="299.93" cy="265.11" rx="4.68" ry="4.95"/>
                  <ellipse class="cls-3" cx="302.08" cy="260.98" rx="1.3" ry="1.38"/>
                </g>
                <path class="cls-47" d="M312,275.22a15.34,15.34,0,0,0,2.25,1.25,8,8,0,0,0,2.12.63,5.9,5.9,0,0,0,2.13-.09,9.75,9.75,0,0,0,2.35-.93,3.8,3.8,0,0,1-1.71,2.37,4.55,4.55,0,0,1-3,.63A4.77,4.77,0,0,1,312,275.22Z"/>
                <g>
                  <path class="cls-44" d="M304.3,282c-.55-.22-1.19-1.1-1.68-1.4A3.68,3.68,0,0,0,301,280c-.76-.08-1.67.2-1.83.88a1.53,1.53,0,0,0,.8,1.42,4.8,4.8,0,0,0,2.9.9,1.41,1.41,0,0,0,1.2-.46c.24-.35,0-1-.49-.89Z"/>
                  <path class="cls-44" d="M328.65,283.48c.34-.39.91-1.47,1.36-1.75a2.24,2.24,0,0,1,1-.39,1.67,1.67,0,0,1,1.65,1.07,1.94,1.94,0,0,1-.43,1.87,3.67,3.67,0,0,1-1.77,1.08,2.82,2.82,0,0,1-1.41.13,1.23,1.23,0,0,1-1-.88,1.18,1.18,0,0,1,.62-1.13A4.06,4.06,0,0,1,330,283Z"/>
                  <g>
                    <path class="cls-48" d="M331,282.9a11.05,11.05,0,0,1-.6,1.39c-1.35,2.7-4.54,7.68-8.59,9.54a11.31,11.31,0,0,1-9.43-.17c-3.87-1.82-5.63-4-7.85-7.64-.72-1.18-1.49-2.53-2.4-4.07,0,0-.22-.28.14-.3a2.46,2.46,0,0,1,.6.11c2.18.6,7.7,3.67,16.26,3.25,6.57-.32,10.17-1.76,11.48-2.41a.29.29,0,0,1,.39.14A.22.22,0,0,1,331,282.9Z"/>
                    <path class="cls-49" d="M330.39,284.29c-1.35,2.7-4.54,7.68-8.59,9.54a11.31,11.31,0,0,1-9.43-.17c-3.87-1.82-5.63-4-7.85-7.64,2.59,2.86,7,6.6,12.25,7C324,293.48,329,286.56,330.39,284.29Z"/>
                    <path class="cls-50" d="M331,282.74a27.77,27.77,0,0,1-14.9,3.46c-7.89-.33-12.41-3.47-13.83-4.55a2.46,2.46,0,0,1,.6.11c2.18.6,7.7,3.67,16.26,3.25,6.57-.32,10.17-1.76,11.48-2.41A.28.28,0,0,1,331,282.74Z"/>
                    <path class="cls-51" d="M305.47,283.32c.17.07,9.36,5.6,22,1,0,0-1.81,4.16-9.43,4.56C309.32,289.37,305.47,283.32,305.47,283.32Z"/>
                    <path class="cls-52" d="M316.81,292.88c-1.8-.1-4-.58-4.92-1.38,1.59-1.56,3.63-.41,5.36-.91,3.61-1,4.85.25,5.33,1A9.28,9.28,0,0,1,316.81,292.88Z"/>
                  </g>
                </g>
                <path class="cls-46" d="M302.16,249.89s-7.07-1.21-10.47,3.5a.24.24,0,0,1-.44-.12c.11-1.43.89-4.37,5.28-5.23C303.47,246.68,302.16,249.89,302.16,249.89Z"/>
                <path class="cls-46" d="M329.23,247s7.07-1.21,10.46,3.5c.14.18.46.1.44-.13-.11-1.43-.88-4.36-5.28-5.22C327.92,243.79,329.23,247,329.23,247Z"/>
                <path class="cls-41" d="M351.49,234.79c-3.34-17.68-9.23-15-25-18.29-7.18-1.51-7.2-6.72-14.5-6-4.15.42-15.29-1.58-25,15-6.12,10.47-16.14,19.59-12,32.06,3.83,11.89,6,13.8,6,13.8l.3-1.74c.09-1.34.22-2.67.27-4,1-25.15,12.21-25.48,21-40.48a44.42,44.42,0,0,0,7.92,5.44c5.07,3,10.32,5.54,15.62,8s10.69,4.6,15.92,7.27c13.42,6.84,10.6,25.51,10.61,25.51-.08-.46,1.61-2.6,1.84-3a46.28,46.28,0,0,0,3.42-6.69C362,252.11,353.48,245.32,351.49,234.79Z"/>
                <path class="cls-41" d="M315.76,229.76a23,23,0,0,0,0,14.84,32,32,0,0,1-13.5-22.23"/>
                <path class="cls-41" d="M312,228.2s.22,5.39,11.63,16.79c0,0-4.23-7.53-1.82-15.23"/>
                <path class="cls-53" d="M278,266a56,56,0,0,1-2.87-10.19A65.84,65.84,0,0,1,274,245.08a11.3,11.3,0,0,1,.16-2.73l.57-2.68c.36-1.79.8-3.57,1.34-5.33a46,46,0,0,1,4.49-10.2,38.27,38.27,0,0,1,7.16-8.75,43.76,43.76,0,0,1,9.27-6.31,44.83,44.83,0,0,1,21.64-4.74,47.34,47.34,0,0,1,21.31,5.8,38.92,38.92,0,0,1,9,6.8,31.89,31.89,0,0,1,3.64,4.57l.77,1.29c.24.42.44.82.66,1.23.44.82.82,1.65,1.21,2.49A54.29,54.29,0,0,1,358.68,237c.39,1.79.73,3.58.95,5.39l.39,2.7a12.48,12.48,0,0,1-.06,2.73,65.69,65.69,0,0,1-1.81,10.64,53.94,53.94,0,0,1-3.56,10,78.66,78.66,0,0,0-1.29-20.28,14.57,14.57,0,0,1-.41-2.42,21.91,21.91,0,0,0-.2-2.43c-.2-1.6-.49-3.19-.84-4.76a46.71,46.71,0,0,0-3-9.1c-.33-.73-.66-1.45-1-2.15-.19-.34-.37-.72-.56-1l-.55-.93a25.25,25.25,0,0,0-2.78-3.48,31.82,31.82,0,0,0-7.4-5.54,40.44,40.44,0,0,0-18.14-4.93,37.84,37.84,0,0,0-18.25,4,36.33,36.33,0,0,0-7.74,5.27,31,31,0,0,0-5.86,7.16,38.41,38.41,0,0,0-3.79,8.64c-.47,1.53-.86,3.08-1.18,4.67a23.9,23.9,0,0,0-.34,2.4,13.36,13.36,0,0,1-.53,2.38A86.77,86.77,0,0,0,278,266Z"/>
                <g>
                  <g>
                    <g>
                      <path class="cls-54" d="M359.48,232.38c-3.26,3.46-3.64,8.39-8.56,3.75s-3-14.67-3-14.67,9.9-2.49,14.82,2.15S362.74,228.92,359.48,232.38Z"/>
                      <path class="cls-54" d="M336.15,210.36c-3.26,3.46-8.17,4.13-3.25,8.77s14.81,2.15,14.81,2.15,1.92-10-3-14.67S339.41,206.9,336.15,210.36Z"/>
                    </g>
                    <circle class="cls-55" cx="343.14" cy="209.93" r="1.02"/>
                    <circle class="cls-55" cx="345.03" cy="213.94" r="1.02"/>
                    <circle class="cls-55" cx="338.93" cy="214.39" r="1.02"/>
                    <path class="cls-55" d="M341.24,219.39a1,1,0,0,1-1.44,0,1,1,0,1,1,1.44,0Z"/>
                    <circle class="cls-55" cx="336.12" cy="217.37" r="1.02"/>
                    <path class="cls-55" d="M346.94,216.33a1,1,0,0,0,0,1.44,1,1,0,0,0,.77.28c0-.62,0-1.31,0-2A1,1,0,0,0,346.94,216.33Z"/>
                    <path class="cls-55" d="M346.82,212a1,1,0,0,0,.5.26,14.39,14.39,0,0,0-.52-1.73l0,0A1,1,0,0,0,346.82,212Z"/>
                    <path class="cls-55" d="M337,221h0a12.45,12.45,0,0,0,1.73.41A1,1,0,0,0,337,221Z"/>
                    <path class="cls-55" d="M344.18,220.75a1,1,0,0,0-1.45,0,1,1,0,0,0-.27.83c.73,0,1.42-.07,2-.14A1,1,0,0,0,344.18,220.75Z"/>
                    <path class="cls-55" d="M339.5,209.31a1,1,0,0,0,0-1.45,1,1,0,0,0-.84-.26c-.26.4-.54.84-.84,1.28a1,1,0,0,0,.28.47A1,1,0,0,0,339.5,209.31Z"/>
                    <path class="cls-55" d="M340.86,206.37a1,1,0,0,0,1.45,0,1,1,0,0,0,.27-.79,2.13,2.13,0,0,0-2-.11A1,1,0,0,0,340.86,206.37Z"/>
                    <path class="cls-55" d="M333.84,213.81a1,1,0,0,0,1.45,0,1,1,0,0,0,0-1.44,1,1,0,0,0-.49-.26c-.42.33-.84.63-1.23.92A1,1,0,0,0,333.84,213.81Z"/>
                    <path class="cls-55" d="M332.48,216.75a1,1,0,0,0-1-1.7,2.16,2.16,0,0,0,.24,2A1,1,0,0,0,332.48,216.75Z"/>
                    <circle class="cls-55" cx="359.5" cy="225.37" r="1.02"/>
                    <circle class="cls-55" cx="355.12" cy="224.05" r="1.02"/>
                    <circle class="cls-55" cx="355.29" cy="229.83" r="1.02"/>
                    <path class="cls-55" d="M350.17,227.81a1,1,0,1,0,1.44,0A1,1,0,0,0,350.17,227.81Z"/>
                    <circle class="cls-55" cx="352.48" cy="232.81" r="1.02"/>
                    <path class="cls-55" d="M352.89,221.94a1,1,0,0,1-1.44,0,1,1,0,0,1-.32-.74c.61-.07,1.3-.12,2-.14A1,1,0,0,1,352.89,221.94Z"/>
                    <path class="cls-55" d="M357.23,221.82a1,1,0,0,1-.28-.49,14.82,14.82,0,0,1,1.75.41l0,0A1,1,0,0,1,357.23,221.82Z"/>
                    <path class="cls-55" d="M348.85,232.19h0a12.9,12.9,0,0,1-.51-1.71,1.06,1.06,0,0,1,.48.25A1,1,0,0,1,348.85,232.19Z"/>
                    <path class="cls-55" d="M348.64,225a1,1,0,0,1-.77,1.76c0-.73,0-1.42,0-2A1,1,0,0,1,348.64,225Z"/>
                    <path class="cls-55" d="M360.33,229a1,1,0,0,1,1.76.78c-.39.29-.81.59-1.23.92a1,1,0,0,1-.49-.25A1,1,0,0,1,360.33,229Z"/>
                    <path class="cls-55" d="M363.18,227.43a1,1,0,0,1,.73-1.76,2.14,2.14,0,0,1,.23,2A1,1,0,0,1,363.18,227.43Z"/>
                    <path class="cls-55" d="M356.16,234.87a1,1,0,0,1,0-1.44,1,1,0,0,1,1.45-.05,1.07,1.07,0,0,1,.28.48c-.3.44-.58.87-.85,1.28A1,1,0,0,1,356.16,234.87Z"/>
                    <path class="cls-55" d="M353.31,236.4a1,1,0,0,1,1.75.89,2.13,2.13,0,0,1-2-.12A1,1,0,0,1,353.31,236.4Z"/>
                  </g>
                  <g>
                    <g>
                      <g>
                        <path class="cls-56" d="M341.34,212.46c-1.56,1,3.79,5.68,3.79,5.68S342.9,211.42,341.34,212.46Z"/>
                        <path class="cls-56" d="M339.49,216.6c-.59,1.12,5,2.62,5,2.62S340.07,215.49,339.49,216.6Z"/>
                      </g>
                      <g>
                        <path class="cls-56" d="M357.07,227.31c-.95,1.61-5.88-3.46-5.88-3.46S358,225.69,357.07,227.31Z"/>
                        <path class="cls-56" d="M353.05,229.4c-1.09.65-2.9-4.85-2.9-4.85S354.13,228.75,353.05,229.4Z"/>
                      </g>
                    </g>
                    <rect class="cls-57" x="344.75" y="218.29" width="6.14" height="6.14" rx="1.82" transform="translate(-51.89 322.42) rotate(-46.66)"/>
                  </g>
                </g>
                <path class="cls-58" d="M282.28,281.1s2.89,6-.67,7-2.45-5.7-2.45-5.7.93,5.67,2,2.16Z"/>
                <path class="cls-58" d="M352.22,281.48s-2.89,6,.67,7,2.45-5.7,2.45-5.7-.93,5.67-2,2.16Z"/>
              </g>
            </g>
            <g>
              <path class="cls-3" d="M361.09,395s-24.92-2.66-33.13-2.66c-8.51,0-33.72,2.66-33.72,2.66s-25.7-2.48-34.6-2.37c-6.84.09-28.1,2.37-28.1,2.37l16.77-28.82a160.16,160.16,0,0,1,25.81-1.68c5,.16,19.95,1.68,19.95,1.68s20-1.39,26.7-1.38c6.43,0,25.45.35,25.45.35Z"/>
              <path class="cls-59" d="M232.77,394.39l-1.23.56.09.64H361l.08-.64s-39.34-5.18-39.71-5.25-25.66,1-25.66,1S238.59,388.07,232.77,394.39Z"/>
              <polygon class="cls-59" points="296.14 366.72 296.14 394.1 297.96 394.1 296.14 366.72"/>
            </g>
            <g>
              <g>
                <path class="cls-60" d="M189.91,391.85c.2-.74,3.08-11.68,5.79-25,2.58-12.7,5.54-30.24,5-41.68-.46-9.09-2.84-15.91-7.07-20.27A15.52,15.52,0,0,0,182.41,300a13.64,13.64,0,0,0-1.45.08c-2.86.32-7.64.87-11.94,5.07-5,4.9-8.22,13.7-9.54,26.17A222.48,222.48,0,0,0,159.3,371c.83,10.47,2,17.66,2.1,18.05l2.62,2.78Z"/>
                <path class="cls-61" d="M193.87,341.7s-6.77,10.66-16.24,7-12.4-18.44-12.08-25.57.54-7.51.54-7.51l-3.13,72Z"/>
                <g>
                  <path class="cls-61" d="M196.41,331.24a27.08,27.08,0,0,0,6.49-1.32c3-1.05,6.64-3.16,6.89-7.25,0-.08,0-7.77-4-13.79-3.74-5.61-9.12-7.38-12-8.33l-.7-.24a6.08,6.08,0,0,0-1.85-.25,22.48,22.48,0,0,0-5.92,1.09,12.08,12.08,0,0,1,4.24,2.37c2.12,1.78,4.83,5.19,5.74,11.32C196.91,325.81,196.47,330.63,196.41,331.24Z"/>
                  <path class="cls-62" d="M192.23,306.55s2.57,3.28,3.32,10.25.86,14.44.86,14.44a21.26,21.26,0,0,0,7.8-1.84c4.07-1.82,5-3.55,5.58-6.19s-1.09-9.43-4-14.33-9-7.25-9-7.25,6.21,3.18,7.78,8.8-2.87,7.39-5.05,6S192.23,306.55,192.23,306.55Z"/>
                </g>
                <path class="cls-62" d="M141.39,352.79a16.74,16.74,0,0,0-.61,6.55.94.94,0,0,0,.68.79l.35-3.08A37.91,37.91,0,0,1,141.39,352.79Z"/>
                <path class="cls-63" d="M189.53,299.14s.61-9.41-1.52-11-8.17-1.38-9-.78-.76,10.53-.76,10.53Z"/>
                <path class="cls-64" d="M141.81,357.05s-2.14,18.58-2.09,18.91,3.09,1,3.42.61,2.42-18.89,2.42-18.89Z"/>
                <path class="cls-65" d="M150.32,379.76c-.06-2.38-1.06-5.41-1.72-5.32s-1.47,7.31-3.37,7.79-4.21-3.72-3.84-13.61.8-16.64.8-16.64l5.74-.35s-1.8,23.19-1.52,24,1.14-1.19,1.86-3.52,2.37-.8,2.37-.8Z"/>
                <path class="cls-66" d="M149.71,292.54c-3.51,3.55-9.09,54.32-8.23,62.48s6,7.69,7,2.66,4.94-50,6.84-56.53,3.35-10.23,3.35-10.23S152,290.21,149.71,292.54Z"/>
                <path class="cls-63" d="M167.67,301s-1.79-6-4.71-8.9-7.91-2.24-7.91-2.24-3.59.93-5.34,2.64a6.74,6.74,0,0,1,5.56,3.28c1.81,3.27,4.77,10.9,5.07,13.07S167.67,301,167.67,301Z"/>
                <path class="cls-60" d="M179.38,298.11c1.69,0,2.69-.27,2.89-.78-.17-.35-2.48-4.78-4.2-5.1h-.74a.65.65,0,0,1,.44.17c.34.46.35,4.45-.19,5.63C177.81,298,178.55,298.11,179.38,298.11Z"/>
                <path class="cls-61" d="M178.07,292.23s-.26-.25-3.25.08a15,15,0,0,0-5.18,1.54l2.67-.1s4.76-1.88,6.94-.81A1.64,1.64,0,0,0,178.07,292.23Z"/>
                <path class="cls-63" d="M164,391.83c.11-2.31,2.58-53.49,3.06-63.13.51-10.07,1.42-16.68,9.81-23.61a19.81,19.81,0,0,1,13-4.47,25.72,25.72,0,0,1,6.41.83c-3-1.11-9.73-3.55-13.12-4a11.54,11.54,0,0,0-1.62-.1c-4.59,0-11.18,2-13.77,3.7-2.83,1.86-9.67,7.63-12.26,21-2.54,13.12-5.2,54.12-5.36,58.2-.14,3.63.46,4.87,1.62,5.88S163,391.43,164,391.83Z"/>
                <path class="cls-63" d="M171.14,299.3c-.37-2.42.28-5.47,2.23-6.38a10,10,0,0,1,3.19-.74c-2.84.06-6.17.92-7.15,1.85s-3.33,7.37-3.69,8.38Z"/>
                <path class="cls-66" d="M165.55,358.56l-1,22.65-.52,10.66s-10.77-4.47-12.38-5.72-1.77-3.13-1.62-5.88.74-12.7,1.43-21.15,2-21.23,3.12-32.83,6.08-18.36,8.69-21.39c0,0-6.45,6.23-7.45,21.18s-2.47,39.39,2.66,41.88S165.55,358.56,165.55,358.56Z"/>
                <path class="cls-67" d="M196.18,301.45s-8.52-3.28-12.9-4-10.28.92-14.09,2.59-7.67,6.56-9,9.27-3.56,12.65.52,14,4.54-4.79,10.39-12.08S182,299.2,196.18,301.45Z"/>
                <path class="cls-65" d="M196.75,301.63l-3-1.08s-7.59-1.74-14,1.66-10.26,8-12.26,14.36-2.85,42.82-2.85,42.82l-1.23,32.23.59.25,1.66-36.47s1.08-23.12,1.48-29.72,2.06-11.85,4.53-15.25,7.33-7.54,12.42-8.93S196.75,301.63,196.75,301.63Z"/>
                <path class="cls-64" d="M209.79,320.57a28.45,28.45,0,0,0-4.29-12.11,16.91,16.91,0,0,0-9.85-7l-2.18-.29a19.61,19.61,0,0,1,9.68,5.92c4.21,4.78,5.27,13.58,5.27,13.58Z"/>
                <path class="cls-68" d="M163.86,381.19l-.4,10.43s-9.59-4.26-11.42-5.21-2.11-1.86-2-6.79,2.33-31.44,2.33-31.44-1.1,21.8-.53,28.26,7.6,9.25,9.59,9.25,2.87-16.81,2.87-16.81Z"/>
                <path class="cls-69" d="M192.09,301a23.69,23.69,0,0,0-11.25,1.75,20.78,20.78,0,0,0-11.72,12.75A74.29,74.29,0,0,0,167.06,327s-1-.28-.52-4.13.71-11.52,8.66-17.63,13.61-5.12,16.46-5,3.6,1.07,3.6,1.07Z"/>
                <path class="cls-70" d="M148.78,374.49c-.28-.29-.56.76-.85,2.06s-1.42,5.82-3,5.71-2.37-2.76-2.37-2.76,1,1.56,2,.21a19.07,19.07,0,0,0,1.92-4.08s0,.43.26.24,1.79-5.05,2.55-5a2.68,2.68,0,0,0-1.05,2.1C148,374.58,148.78,374.49,148.78,374.49Z"/>
                <path class="cls-61" d="M165.55,360.26l-1.5,31.61,43.8-2.05,1-64.09a26.1,26.1,0,0,1-12.48,5.51s-.14,9.21-5.65,14.24-11.14,3.82-11.14,3.82Z"/>
                <path class="cls-60" d="M156.32,297.91a11.65,11.65,0,0,0-2.38-3.74c-1.31-1.08-3.67-1.86-4.23-1.63s-1.55,3.51-2.17,6.53-.86,4.38-.86,4.38,1.84-3.94,5.19-3.94,3.28,2.39,3.28,2.39Z"/>
              </g>
              <g>
                <g>
                  <g>
                    <path class="cls-71" d="M193.55,304.78a.37.37,0,0,0-.52-.39L171,314a1.12,1.12,0,0,0-.22,1.94h0a4.31,4.31,0,0,0,4.27.48l18-7.89Z"/>
                    <path class="cls-72" d="M196.5,307.84,174,318l-1.36-.92-.47-.33-.46-.31a.58.58,0,0,1-.12-.1,1.08,1.08,0,0,1-.31-.4,1.34,1.34,0,0,1-.12-.56,1.33,1.33,0,0,1,.17-.6,1.23,1.23,0,0,1,.59-.53l21.05-9.18.15.24.3.4c.13.15.26.3.4.44l.4.36c.18.14.36.28.56.41s.34.22.51.31A8.82,8.82,0,0,0,196.5,307.84Z"/>
                    <g>
                      <path class="cls-73" d="M193.39,305.75l-22.26,9.67a1.33,1.33,0,0,1,.17-.6l21.79-9.47Z"/>
                      <path class="cls-73" d="M194.19,306.55l-22.63,9.83a1.08,1.08,0,0,1-.31-.4l22.54-9.79Z"/>
                      <path class="cls-73" d="M195.26,307.27l-22.65,9.85-.47-.33L194.75,307C194.92,307.07,195.09,307.18,195.26,307.27Z"/>
                    </g>
                    <path class="cls-74" d="M196.6,307l-23.78,10.4-4.19,37.4a1.31,1.31,0,0,0,1.83,1.35l21.85-9.55a.83.83,0,0,0,.5-.67l4.31-38.54A.37.37,0,0,0,196.6,307Z"/>
                    <polygon class="cls-75" points="193.61 338.77 193.12 343.19 169.41 353.64 169.91 349.14 193.61 338.77"/>
                    <polygon class="cls-75" points="196.84 309.98 196.67 311.48 172.96 321.93 173.13 320.35 196.84 309.98"/>
                    <path class="cls-71" d="M175.09,316.43l-4.44,39.66a4.28,4.28,0,0,1-4.27-.48,1.09,1.09,0,0,1-.45-1s4.32-38.05,4.44-39.62a1.1,1.1,0,0,0,.45,1,4.31,4.31,0,0,0,4.27.48Z"/>
                    <path class="cls-76" d="M169.31,348.75a4.33,4.33,0,0,1-2.07-.82,1.11,1.11,0,0,1-.46-1c0,.31-.2,2-.49,4.62a1.12,1.12,0,0,0,.45.8,4.35,4.35,0,0,0,2.07.81,4.29,4.29,0,0,0,2.2-.34l.5-4.43A4.29,4.29,0,0,1,169.31,348.75Z"/>
                    <path class="cls-76" d="M172.53,320a4.37,4.37,0,0,1-2.07-.82,1.1,1.1,0,0,1-.45-1c0,.17-.08.78-.18,1.73a1.13,1.13,0,0,0,.45.83,4.25,4.25,0,0,0,2.08.81,4.2,4.2,0,0,0,2.2-.33l.17-1.58A4.29,4.29,0,0,1,172.53,320Z"/>
                    <polygon class="cls-75" points="193.9 336.19 193.73 337.69 170.02 348.14 170.2 346.55 193.9 336.19"/>
                    <path class="cls-76" d="M169.6,346.15a4.22,4.22,0,0,1-2.07-.81,1.11,1.11,0,0,1-.46-1c0,.17-.07.78-.17,1.73a1.07,1.07,0,0,0,.45.83,4.31,4.31,0,0,0,4.27.48l.18-1.58A4.29,4.29,0,0,1,169.6,346.15Z"/>
                  </g>
                  <polygon class="cls-77" points="188.39 336.18 179.02 340.37 181.26 320.34 190.63 316.15 188.39 336.18"/>
                </g>
                <polygon class="cls-78" points="177.5 313.27 181.01 311.74 181.35 308.67 177.84 310.23 177.5 313.27"/>
                <polygon class="cls-79" points="189.66 309.18 191.66 308.31 191.87 306.41 189.87 307.29 189.66 309.18"/>
              </g>
              <g>
                <path class="cls-77" d="M201.8,317.12,195,320l-13.24,5.5-2.71,36.76-13,5.36a.75.75,0,0,1-1-.79l5.4-41.52a1.88,1.88,0,0,1,1.13-1.48l10.68-4.44,13.6-5.66,1-.42a5.43,5.43,0,0,1,2.78-.37,5.53,5.53,0,0,1,2.6,1.08,1.78,1.78,0,0,1,.72,1.46A1.82,1.82,0,0,1,201.8,317.12Z"/>
                <path class="cls-80" d="M201.8,317.12,195,320l.81-6.27,1-.42a5.43,5.43,0,0,1,2.78-.37,5.53,5.53,0,0,1,2.6,1.08,1.78,1.78,0,0,1,.72,1.46A1.82,1.82,0,0,1,201.8,317.12Z"/>
                <path class="cls-72" d="M202,316.24a1.88,1.88,0,0,1-1.1,1.09h0l-.83.44-19.44,10.32-8.78,42.71a9,9,0,0,0-1.31-1.31,7.84,7.84,0,0,0-.64-.5c-.22-.15-.44-.3-.67-.44s-.43-.26-.66-.37-.55-.29-.83-.42l-.67-.28-.56-.21L172,324.73l24.83-10.38a5.3,5.3,0,0,1,1.39-.37,5.39,5.39,0,0,1,1.39,0h0l.28,0a5.09,5.09,0,0,1,.56.14l.32.1.15.06a2.48,2.48,0,0,1,.57.44,1.91,1.91,0,0,1,.38.6A1.27,1.27,0,0,1,202,316.24Z"/>
                <g>
                  <path class="cls-73" d="M200.81,314.26l-27.58,11.15-5.51,42.35-.67-.28,5.55-42.56L199.65,314h0l.28,0a5.09,5.09,0,0,1,.56.14Z"/>
                  <path class="cls-73" d="M201.91,315.36l-27.21,11-5.49,42.19c-.22-.13-.43-.26-.66-.37l5.51-42.31,27.47-11.11A1.91,1.91,0,0,1,201.91,315.36Z"/>
                  <path class="cls-73" d="M200.87,317.33h0l-.83.44L176,327.49l-5.47,42a7.84,7.84,0,0,0-.64-.5l5.47-42L202,316.24A1.88,1.88,0,0,1,200.87,317.33Z"/>
                </g>
                <path class="cls-81" d="M177.81,328.69l-6,42.11a9,9,0,0,0-1.31-1.31,7.84,7.84,0,0,0-.64-.5c-.22-.15-.44-.3-.67-.44s-.43-.26-.66-.37-.55-.29-.83-.42l-.67-.28-.56-.21L172,324.73A14.9,14.9,0,0,1,177.81,328.69Z"/>
                <path class="cls-77" d="M202.92,315.67l-5.72,43.85a1.81,1.81,0,0,1-1.11,1.46l-1.88.79-23.16,9.63a.75.75,0,0,1-1-.79L175.45,329a1.61,1.61,0,0,1,1-1.3l23.47-9.76,1.88-.79A1.84,1.84,0,0,0,202.92,315.67Z"/>
                <path class="cls-80" d="M202.92,315.67l-5.72,43.85a1.81,1.81,0,0,1-1.11,1.46l-1.88.79,5.71-43.86,1.88-.79A1.84,1.84,0,0,0,202.92,315.67Z"/>
              </g>
              <g>
                <g>
                  <g>
                    <path class="cls-71" d="M202.72,319.25a.53.53,0,0,0-.76-.52L171,333.31a1.6,1.6,0,0,0-.23,2.77h0a6.12,6.12,0,0,0,6.1.51l25.38-12Z"/>
                    <path class="cls-72" d="M207,323.5l-31.67,15.44-2-1.27-.69-.44-.66-.43a.83.83,0,0,1-.18-.13,1.59,1.59,0,0,1-.45-.56,1.85,1.85,0,0,1-.2-.79,1.82,1.82,0,0,1,.21-.86,1.69,1.69,0,0,1,.82-.78l29.61-13.93c.08.11.15.23.24.34a5.68,5.68,0,0,0,.44.56,6.67,6.67,0,0,0,.59.6,7.2,7.2,0,0,0,.58.5,8.47,8.47,0,0,0,.82.57,7.5,7.5,0,0,0,.74.42A13.23,13.23,0,0,0,207,323.5Z"/>
                    <g>
                      <path class="cls-73" d="M202.53,320.65l-31.32,14.67a1.82,1.82,0,0,1,.21-.86l30.67-14.37A5.68,5.68,0,0,0,202.53,320.65Z"/>
                      <path class="cls-73" d="M203.7,321.75l-31.84,14.92a1.59,1.59,0,0,1-.45-.56l31.71-14.86A7.2,7.2,0,0,0,203.7,321.75Z"/>
                      <path class="cls-73" d="M205.26,322.74l-31.87,14.93-.69-.44,31.82-14.91A7.5,7.5,0,0,0,205.26,322.74Z"/>
                    </g>
                    <path class="cls-74" d="M207.15,322.33,173.69,338.1l-4.45,53.44a1.87,1.87,0,0,0,2.66,1.85l30.74-14.49a1.2,1.2,0,0,0,.68-1l4.59-55.06A.54.54,0,0,0,207.15,322.33Z"/>
                    <polygon class="cls-79" points="207.21 331.25 205.76 348.65 172.41 364.49 173.87 346.96 207.21 331.25"/>
                    <path class="cls-71" d="M176.89,336.59l-4.72,56.67a6.14,6.14,0,0,1-6.11-.51,1.56,1.56,0,0,1-.68-1.45s4.63-54.37,4.72-56.61a1.59,1.59,0,0,0,.69,1.39,6.18,6.18,0,0,0,3,1.07A6,6,0,0,0,176.89,336.59Z"/>
                    <path class="cls-82" d="M173,346.43a6.22,6.22,0,0,1-3-1.07,1.59,1.59,0,0,1-.68-1.39c0,.44-1.14,14-1.44,17.7a1.57,1.57,0,0,0,.67,1.12,6.18,6.18,0,0,0,3,1.07,6.09,6.09,0,0,0,3.13-.56l1.45-17.43A6.17,6.17,0,0,1,173,346.43Z"/>
                  </g>
                  <polygon class="cls-75" points="203.47 335.18 181.53 345.57 181.4 347.08 203.34 336.68 203.47 335.18"/>
                  <polygon class="cls-75" points="203.19 338.51 181.25 348.91 181.12 350.41 203.06 340.02 203.19 338.51"/>
                  <polygon class="cls-75" points="202.9 342 180.96 352.4 180.83 353.9 202.77 343.5 202.9 342"/>
                </g>
                <path class="cls-78" d="M199.89,342.35l1.23-14.79a1.9,1.9,0,0,0-1.05-1.86l-1.43-.7-3.59,1.76,1.42.69a1.89,1.89,0,0,1,1.05,1.86l-1.23,14.8c0-.22,2.24-6,2.24-6Z"/>
              </g>
              <g>
                <path class="cls-66" d="M174.06,395.77c.29,0,.71,0,1.27-.09,1.84-.21,43.37-2,45-2,.13-.85,2.14-13.73,5-26.79a177.7,177.7,0,0,1,5.29-18.56,22.48,22.48,0,0,0,1.22-8,9.3,9.3,0,0,0-2.83-6c-2.64-2.46-7.35-5.39-14.82-5.39a42.8,42.8,0,0,0-24.7,8.75,29.94,29.94,0,0,0-7.8,9.84c-3.66,7.26-4.7,15.69-5.7,23.84l-.1.76c-2,16.3-2.12,23.6-2.12,23.67h0A1.26,1.26,0,0,0,174.06,395.77Z"/>
                <path class="cls-63" d="M173.62,395.68c0-.15.14-.89.26-1.89.68-5.39,2.73-21.77,7.7-35.75,6-16.86,18.12-27.32,31.65-27.32h.54a26.09,26.09,0,0,1,14.83,4.55,7,7,0,0,1,3.18,5,27.68,27.68,0,0,0-3.86-11.88,16.94,16.94,0,0,0-6.5-5.43,24.41,24.41,0,0,0-11-2.42,35.56,35.56,0,0,0-8.64,1.13c-11.62,2.94-20.8,11.5-27.3,25.45-5.54,11.89-9.33,30-9.9,34.06l-.52,10.66C167.18,393.18,173.1,395.62,173.62,395.68Z"/>
                <path class="cls-68" d="M177.79,398c3.55,0,21.5-1,33.38-1.69,5.42-.31,9.7-.55,10.6-.58,3.67-.13,5.66-4.45,6.09-13.2.48-9.8-2.46-14.62-2.69-15-1.34-.06-2.86-.09-4.51-.09-16.06,0-41.51,3.07-42.63,3.2-2.28,8.41-4.22,24.34-4.31,25.11.22.2,2.17,2,3.5,2.22a5.31,5.31,0,0,0,.57,0Z"/>
                <path class="cls-62" d="M176.88,397.93c.18-.36,1.47-3.29,2.42-12.22.93-8.72-.83-14.49-1.18-15.51A119,119,0,0,0,175.36,384c-1.19,8.21-1.6,11.37-1.64,11.69A10.94,10.94,0,0,0,176.88,397.93Z"/>
                <path class="cls-66" d="M188.59,344.58a64.57,64.57,0,0,0-7.77,15.71c-3.19,9.38-5.94,25.34-6.32,28.89s-.78,6.53-.78,6.53l-9.67-3.84.69-11.38s3.89-20.77,9.43-32.67,10.76-16.29,10.76-16.29a58.35,58.35,0,0,0-11.21,18.41c-4.41,11.47-6.06,25.57-3.21,28.06s5.55-6.83,9.54-17.73S188.59,344.58,188.59,344.58Z"/>
                <path class="cls-67" d="M231.72,339.81a29.54,29.54,0,0,0-3.8-11.39c-3.21-5.11-9.76-7.74-18.13-7.85S188.53,325.8,183.9,337s2.85,7,9.54,1.14,18.55-8.7,26.35-6.88C227.34,333,230.69,336.41,231.72,339.81Z"/>
                <path class="cls-65" d="M164.61,379.57s1.7-7.92,5.06-19.51c3.44-11.83,7.77-23.17,18.92-32.23a33.4,33.4,0,0,1,32.14-5.24c7.11,2.85,8.7,8.65,8.7,8.65s-2.51-8.08-15.19-9.43-20.74,3.42-25.65,7.62-7.82,7.62-13.17,17.73-10.54,37-11.11,41.45Z"/>
                <path class="cls-68" d="M177,374.86s-1.94,12.59-2.51,16.25-.8,4.6-.8,4.6l-9.67-3.84.28-4.59L167.84,371s-2.43,13-1.86,16.34,5,4.6,6.64,2.37S177,374.86,177,374.86Z"/>
                <path class="cls-62" d="M227.71,376.21s.21,4.39.19,5-1,1.33-1.55,1.43-18.28.95-18.28.95a6.15,6.15,0,0,1-1.06.79c-.25.07-.07,7-.07,7l-1.57-.41-1.22.58s-1,.06-1-.23.18-6.76.18-6.76a6.37,6.37,0,0,1-2.1-1.39s-13,.31-14.85.12-6.58-1.85-7-6.35c0-.21-.36-4.65-1.28-6.75Z"/>
                <path class="cls-83" d="M185.7,381c.6,0,22.58-.25,40.21-1.67a1.58,1.58,0,0,0,1.26-.92c1-1.86.71-6.51-1.89-11.48a11.41,11.41,0,0,0-2.66-.13c-3.33,0-9.14.22-17.27.65-21,1.1-26.8,2.39-27.2,2.67,0,0,0,0,0,.19a19.62,19.62,0,0,0,2.48,5.34C181.61,377.22,183.59,380.07,185.7,381Z"/>
                <path class="cls-84" d="M204.15,391.62c.29-.29,1-1.05,1.34-1.05a4.9,4.9,0,0,1,1.45.88l.56-10.63h-2.89Z"/>
                <path class="cls-85" d="M205.73,384a3.9,3.9,0,1,0-3.89-3.89A3.9,3.9,0,0,0,205.73,384Z"/>
                <path class="cls-86" d="M206.39,384a3.9,3.9,0,1,0-3.89-3.89A3.9,3.9,0,0,0,206.39,384Z"/>
                <path class="cls-68" d="M225.28,366.88s.49-.15-9.51,0-28.88,1.75-31.55,2.1-5.77.74-6.07,1.05c0,0,.87-4,2.89-10.42s5.46-11.6,6.38-13.41a18.32,18.32,0,0,1,2.78-3.7,87.21,87.21,0,0,0-5.66,10c-2.71,5.66-2.47,12.35,13.38,12.13s24-1.89,26.27-2.39,3.71-5.66,3.71-5.66Z"/>
                <path class="cls-84" d="M224.23,367.44c.5.14,2.07,2.66,2.47,6.15s-.92,4.89-1.23,5-13.18.92-13.37.78-1-5.35-6.73-5.14-5.4,1.91-14.85,2-10.42-5.71-10.42-5.71,5.19-.9,22.23-2.27S224.23,367.44,224.23,367.44Z"/>
                <path class="cls-66" d="M226.5,384.27c0,1.1-1,6.34-2.33,8.15a5.81,5.81,0,0,1-4.09,2.25l-27,1.42s13.78-2.17,14.6-3.06,2.85-7.55,3-7.76S226.5,384.27,226.5,384.27Z"/>
                <path class="cls-68" d="M231.61,344a11.78,11.78,0,0,0,0-4.37c-.4-2.59-4.25-8.93-16.92-9s-21,5.63-27.71,16.38a68.49,68.49,0,0,0-8.62,21.6l35.8-4.79s-13.42,1.37-16.67-7.52c-.95-2.61-2.13-12.3,9.93-16.67,14.46-5.24,21.82-.81,23.17,1.61S231.61,344,231.61,344Z"/>
                <path class="cls-87" d="M204.93,376.3a3.9,3.9,0,0,0-2.55,1.83,3.83,3.83,0,0,0-.54,2.44l-15.73.38,13.29-1.6S200.48,376.87,204.93,376.3Z"/>
                <path class="cls-61" d="M225.28,366.88a217,217,0,0,0-22.36.52c-11,.91-23.25,1.36-24.77,2.67,0,0,.84-6.86,7.21-20.44s18.55-19.84,31.87-19,14.51,9.31,14.55,10c0,0-1.3-7.65-13.84-8.79a28.23,28.23,0,0,0-29.35,18.66c-4.48,12.68-.94,14.76,9.33,15.5s26.29-.12,27-.54,1.53-3.15,1.53-3.15Z"/>
                <path class="cls-88" d="M210.28,380.24l-6-3.38s2.31-1.4,4.19-.07A3.82,3.82,0,0,1,210.28,380.24Z"/>
                <path class="cls-88" d="M210,381.61l-6.82-3.68a4.51,4.51,0,0,0-.65,2.46l5.79,3.11A3.81,3.81,0,0,0,210,381.61Z"/>
                <path class="cls-69" d="M221.62,323c-3.49-1.57-7.93-3.33-17.36-2s-16.51,7.55-16.51,7.55-.44,1.48,2.1-.35,6.06-5,15.77-6.16,16.21,1.77,16.21,1.77a27.18,27.18,0,0,0,3.21,1.53C225.17,325.21,223.81,324,221.62,323Z"/>
              </g>
            </g>
            <g>
              <g>
                <path class="cls-89" d="M421.94,394.33l37-14.83L427,368.93l-42.67,19.91Z"/>
                <path class="cls-90" d="M385.69,388.59l36.75,5.46c1.23-2,.61-9.37,0-11.28l-36.75-5.63C386.11,379,386.17,386.94,385.69,388.59Z"/>
                <path class="cls-89" d="M460,383.48l.13-11.25-37.93,10.49c1.86,4,.72,10.89-.3,11.61Z"/>
                <path class="cls-91" d="M384.82,377.27l37.43,5.49L460,372.23l-35.33-3.8Z"/>
              </g>
              <polygon class="cls-92" points="403.28 364.76 429.95 377.59 430.64 380.69 455.24 370.35 414.88 360.63 403.28 364.76"/>
              <g>
                <path class="cls-93" d="M427.41,384.27l-32.54-15.13,27.66-8.7,37.52,17.23Z"/>
                <path class="cls-94" d="M458.87,377.44,427,384c-1.11-2.16-1.71-8.64-.15-10.81l31.91-6.73A49.69,49.69,0,0,0,458.87,377.44Z"/>
                <path class="cls-93" d="M393.66,375.8,393.37,365l33.91,8c-2.08,1.52-.77,10.53.13,11.27Z"/>
                <path class="cls-95" d="M459.62,366.54l-32.51,6.58-33.6-8,30.86-4.86Z"/>
              </g>
              <g>
                <path class="cls-96" d="M396.4,367.83l22.73,5.63,2.09-1.07-22.5-5.3Z"/>
                <path class="cls-97" d="M456.34,363.72l-37.29,9.34-22.59-13.58,35.24-6.56,24.22,5.21Z"/>
                <path class="cls-98" d="M419,366.83l-22.54-7.35.91,8.27,21.68,5.31Z"/>
                <path class="cls-96" d="M457,358.12c.26.56-.31,1.42-.35,2.83-.06,1.79.39,2.58,0,2.87L419,373.47a16.14,16.14,0,0,0,.24-3.75c0-1.09.44-2.49.27-3-8.39-3.18-14.28-4.91-22.67-8.09l34.85-6.9C440.93,354.32,447.69,355.5,457,358.12Z"/>
                <path class="cls-99" d="M457,358.12l-37.41,8.56-22.75-8.09,35-6.94Z"/>
              </g>
              <path class="cls-100" d="M415.3,391.53l1.61-2,2.34,2.12s-.36-6.51.75-7c-.19,0-3.87-.72-4.06-.67C414.73,385,415.3,391.53,415.3,391.53Z"/>
            </g>
            <g>
              <g>
                <path class="cls-36" d="M361.16,314.36c12-7.32,25-27.06,25-27.06s2.77-12.75-9.69-12a148.64,148.64,0,0,1-25.16,24.88"/>
                <path class="cls-36" d="M384.93,289c8.42-13.06,7.65-12.83,15.86-37.58.59-1.77-9.58-4.39-10.32-2.92,0,0-8.08,15.17-18.63,32.12"/>
                <g>
                  <path class="cls-36" d="M403.83,244c.63.26,1.61-.24,3.17-1,1.35-.63,3.34-1.65,4.43-1.47s.87,1.39-.39,2.61c-2.07,2-6.91,6.4-9.46,8.42-4.14,3.7-10.66,3.88-13.86.1-4.79-5.66-6.29-8.17-9.1-11.76-.69-.89,1.83-1.61,3.19-.87,2.92,1.59,3.15,2.8,4.72,3.49s2.39-.47,2.88-2c.15-8.19-.66-12.88,1.6-14.07,2-.7,2.67,4.92,3.12,11.31,2.19-6.75,4.49-12,6.15-11.27,2,.88.2,6.73-.94,12.17,4.19-3.56,7.57-8.38,9.35-6.3C410,234.88,402,243.29,403.83,244Z"/>
                  <g>
                    <path class="cls-101" d="M391.41,238.69a15.19,15.19,0,0,1,14,6.84"/>
                    <path class="cls-102" d="M391.41,238.69a12.7,12.7,0,0,1,8.19,1,12.31,12.31,0,0,1,3.45,2.43,12,12,0,0,1,2.4,3.4,25.82,25.82,0,0,0-2.92-2.82,16,16,0,0,0-3.36-2.1,17.33,17.33,0,0,0-3.74-1.33A23.05,23.05,0,0,0,391.41,238.69Z"/>
                  </g>
                  <g>
                    <path class="cls-101" d="M386.53,243.57s7.19.28,9,5.41"/>
                    <path class="cls-102" d="M386.55,243.07a14.61,14.61,0,0,1,2.81.59,13,13,0,0,1,2.6,1.11,9.24,9.24,0,0,1,2.2,1.78,7.18,7.18,0,0,1,1.35,2.43,6.9,6.9,0,0,0-1.53-2.26,8.67,8.67,0,0,0-2.25-1.5,12.79,12.79,0,0,0-2.56-.84,14.38,14.38,0,0,0-2.66-.31Z"/>
                  </g>
                </g>
              </g>
              <g>
                <path class="cls-38" d="M345.86,328.46c0-4.1-2.06-9.29-2.08-9.34a19,19,0,0,0-12.4-12.43l.1-.48a14,14,0,0,0,2.09.14,16.35,16.35,0,0,0,6.16-1.18c4.27-1.75,12.43-8.28,12.51-8.35l.21-.16L366.38,316l-20.52,13Z"/>
                <path class="cls-39" d="M352.4,297,366,315.88l-19.91,12.58c0-4.19-2.09-9.43-2.09-9.43a19.11,19.11,0,0,0-12.58-12.58,13.22,13.22,0,0,0,2.13.15,16.57,16.57,0,0,0,6.25-1.2c4.36-1.78,12.58-8.38,12.58-8.38m.1-.72-.41.33c-.09.07-8.22,6.57-12.46,8.31a16.14,16.14,0,0,1-6.06,1.16,13.22,13.22,0,0,1-2-.14l-.21,1a18.74,18.74,0,0,1,12.22,12.24c0,.08,2.07,5.23,2.07,9.28v.91l.77-.49,19.91-12.57.45-.29-.31-.43L352.8,296.73l-.3-.43Z"/>
              </g>
            </g>
            <g>
              <path class="cls-36" d="M278,342.08s-3.87,10.32-4.19,14.67c-.55,7.49,9.53,12.36,12.58,5.24,3.14-7.33,5.24-19.91,5.24-19.91Z"/>
              <path class="cls-103" d="M291.62,312.74s-5.24,2.1-12.58,15.72l-7.33,19.91,18.47,2.81,2.09-14.67"/>
              <g>
                <path class="cls-101" d="M277,353.61s-7.34,1.05-6.29,12.58c.77,8.5,15.72,10.48,15.72-8.39"/>
                <path class="cls-102" d="M277,353.61a7.33,7.33,0,0,0-4.26,3.24,10.8,10.8,0,0,0-1.62,5.1,8.85,8.85,0,0,0-.06,1.36,10.29,10.29,0,0,0,0,1.36l.08,1.36a7.63,7.63,0,0,0,.25,1.28,6.23,6.23,0,0,0,3.18,3.88,6.35,6.35,0,0,0,5,.37,8.08,8.08,0,0,0,4-3.27,14.75,14.75,0,0,0,2.06-5,31.18,31.18,0,0,0,.77-5.48c.16,3.68-.2,7.58-2.18,10.9a8.56,8.56,0,0,1-4.35,3.75,7.32,7.32,0,0,1-5.78-.37,7.19,7.19,0,0,1-3.63-4.51,7.41,7.41,0,0,1-.24-1.46l-.05-1.41a9.62,9.62,0,0,1,0-1.42,13.69,13.69,0,0,1,2.12-6.71A7.29,7.29,0,0,1,277,353.61Z"/>
              </g>
              <g>
                <path class="cls-36" d="M282.71,362.52s6.64-.84,5.24,6.29c-1.08,5.48-3.15,0-3.15,0"/>
                <g>
                  <path class="cls-104" d="M274.2,344.76l11.23,33.84a3.7,3.7,0,0,0,3.41-1.11L277.56,344S275.82,342.17,274.2,344.76Z"/>
                  <path class="cls-105" d="M285.43,378.6l2.55,2.93.93-.43-.07-3.61S286,374.76,285.43,378.6Z"/>
                  <path class="cls-106" d="M288,381.53l1,1.08-.09-1.51S288.1,380.54,288,381.53Z"/>
                </g>
                <g>
                  <path class="cls-36" d="M280.83,377.25h0c-13.07,7.1-16.21-2.23-16.21-2.23a6.63,6.63,0,0,1-.77-2.05c-1.28-6.85,10.84-11.86,10.84-11.86,7.47-4.09,10.82,12,10.82,12C287.41,379.83,281.37,377.47,280.83,377.25Z"/>
                  <path class="cls-107" d="M280.79,377.24s-1.13-6.77-4.19-10.29"/>
                  <path class="cls-107" d="M277.3,378.6s-2.61-7.86-4.05-9.34"/>
                  <g>
                    <path class="cls-108" d="M274.42,379.16s-4.2-6.17-5.71-6.91"/>
                    <path class="cls-109" d="M274.42,379.16c-1-1.13-1.92-2.31-2.84-3.49l-1.37-1.77a11.13,11.13,0,0,0-1.5-1.65,6.11,6.11,0,0,1,1.79,1.4,19.93,19.93,0,0,1,1.47,1.72A24.3,24.3,0,0,1,274.42,379.16Z"/>
                  </g>
                </g>
              </g>
            </g>
          </g>
        </g>
      </g>
    </g>
  </g>
</svg>
