<svg xmlns="http://www.w3.org/2000/svg" xmlns:xlink="http://www.w3.org/1999/xlink" width="619.88" height="562.43" viewBox="0 0 619.88 562.43">
  <defs>
    <style>
      .cls-1, .cls-12, .cls-7 {
        fill: none;
      }

      .cls-2 {
        isolation: isolate;
      }

      .cls-3, .cls-69 {
        fill: #fff;
      }

      .cls-4 {
        clip-path: url(#clip-path);
      }

      .cls-5 {
        fill: #d8d1a3;
      }

      .cls-10, .cls-6 {
        opacity: 0.3;
      }

      .cls-7 {
        stroke: #857b6c;
        stroke-width: 3px;
      }

      .cls-12, .cls-13, .cls-14, .cls-16, .cls-18, .cls-19, .cls-23, .cls-34, .cls-35, .cls-48, .cls-50, .cls-53, .cls-60, .cls-62, .cls-63, .cls-69, .cls-7 {
        stroke-miterlimit: 10;
      }

      .cls-8 {
        fill: #81ddda;
      }

      .cls-9 {
        fill: #cdaa6a;
      }

      .cls-11 {
        opacity: 0.16;
      }

      .cls-12, .cls-13, .cls-14, .cls-16, .cls-18, .cls-48, .cls-50, .cls-63 {
        stroke: #323232;
      }

      .cls-13 {
        fill: #efd3e7;
      }

      .cls-14 {
        fill: #c42346;
      }

      .cls-15 {
        fill: #311415;
        stroke: #190500;
      }

      .cls-15, .cls-20, .cls-21, .cls-22 {
        stroke-linejoin: round;
      }

      .cls-15, .cls-19, .cls-20, .cls-21, .cls-22, .cls-35, .cls-53, .cls-69 {
        stroke-width: 0.75px;
      }

      .cls-16, .cls-17, .cls-18 {
        fill: #f2daea;
      }

      .cls-18 {
        stroke-width: 0.25px;
      }

      .cls-19, .cls-29 {
        fill: #f9dad2;
      }

      .cls-19, .cls-35 {
        stroke: #7f430d;
      }

      .cls-20 {
        fill: #df71e2;
        stroke: #710e7c;
      }

      .cls-21 {
        fill: #686c70;
        stroke: #211f1c;
      }

      .cls-22 {
        fill: #9b959a;
        stroke: #423a33;
      }

      .cls-23, .cls-55 {
        fill: #61435b;
      }

      .cls-23 {
        stroke: #1c101a;
      }

      .cls-23, .cls-60, .cls-62 {
        stroke-width: 0.5px;
      }

      .cls-24 {
        fill: #4c2f47;
      }

      .cls-25 {
        fill: #342516;
      }

      .cls-26 {
        fill: #eab8ad;
      }

      .cls-27 {
        fill: #2d1708;
      }

      .cls-28 {
        fill: #e5beb7;
      }

      .cls-30 {
        fill: #7f430d;
      }

      .cls-31 {
        fill: #8c3d35;
      }

      .cls-32 {
        fill: #d26653;
      }

      .cls-33 {
        fill: #f9988f;
      }

      .cls-34 {
        fill: #e8d860;
        stroke: #baa83a;
      }

      .cls-35 {
        fill: #f9f8f7;
      }

      .cls-36 {
        fill: #773417;
      }

      .cls-37 {
        fill: #e3d4ec;
      }

      .cls-37, .cls-85, .cls-86, .cls-96 {
        mix-blend-mode: multiply;
      }

      .cls-38 {
        fill: #94411d;
      }

      .cls-39 {
        fill: #a65127;
      }

      .cls-40 {
        fill: #bd5d2d;
      }

      .cls-41 {
        fill: #c60c30;
      }

      .cls-42 {
        fill: #251838;
      }

      .cls-43 {
        fill: #f9f2e9;
      }

      .cls-44 {
        fill: #624a85;
      }

      .cls-45 {
        fill: #d4c2ef;
      }

      .cls-46 {
        fill: #f83753;
      }

      .cls-47 {
        fill: #883c1a;
      }

      .cls-48 {
        fill: #c1349d;
      }

      .cls-49 {
        opacity: 0.29;
      }

      .cls-50 {
        fill: #dab4aa;
      }

      .cls-51, .cls-53 {
        fill: #fbd3c7;
      }

      .cls-52 {
        fill: #453323;
      }

      .cls-53, .cls-62 {
        stroke: #453323;
      }

      .cls-54 {
        fill: #4c3409;
      }

      .cls-56 {
        fill: #1c101a;
      }

      .cls-57 {
        fill: #dd9f8f;
      }

      .cls-58 {
        fill: #f5dc90;
      }

      .cls-59 {
        fill: #be9030;
      }

      .cls-60 {
        fill: #2455a3;
        stroke: #2d2b7a;
      }

      .cls-61 {
        fill: #f8e1db;
      }

      .cls-62 {
        fill: #de97fc;
      }

      .cls-63, .cls-70 {
        fill: #f9d1c6;
      }

      .cls-64 {
        fill: #db9d8e;
      }

      .cls-65 {
        fill: #f5968e;
      }

      .cls-66 {
        fill: #951c27;
      }

      .cls-67 {
        fill: url(#linear-gradient);
      }

      .cls-68 {
        fill: #342517;
      }

      .cls-69 {
        stroke: #3d2e17;
      }

      .cls-71 {
        fill: #49442e;
      }

      .cls-72 {
        fill: #323232;
      }

      .cls-73 {
        fill: #c69c6d;
      }

      .cls-74, .cls-75, .cls-76 {
        mix-blend-mode: screen;
      }

      .cls-75 {
        fill: #404040;
      }

      .cls-76 {
        fill: gray;
      }

      .cls-77 {
        fill: #cafffc;
      }

      .cls-78 {
        fill: #e40274;
      }

      .cls-79 {
        fill: #ec7b23;
      }

      .cls-80 {
        fill: #7dff00;
      }

      .cls-81 {
        fill: #9abd36;
      }

      .cls-82 {
        fill: #00a0db;
      }

      .cls-83 {
        fill: #602483;
      }

      .cls-84 {
        fill: #009547;
      }

      .cls-85 {
        fill: #e6e6e6;
      }

      .cls-86 {
        opacity: 0.5;
      }

      .cls-87, .cls-97 {
        fill: #3269a5;
      }

      .cls-87 {
        opacity: 0.34;
      }

      .cls-88 {
        fill: #f75338;
      }

      .cls-89 {
        fill: #c6dd24;
      }

      .cls-90 {
        fill: #28a5c6;
      }

      .cls-91 {
        fill: #43c7dd;
      }

      .cls-92 {
        fill: #ffcf06;
      }

      .cls-93 {
        fill: #d83c27;
      }

      .cls-94 {
        fill: #3bbfef;
      }

      .cls-95 {
        fill: #ff9827;
      }

      .cls-96 {
        opacity: 0.4;
      }

      .cls-98 {
        fill: #b8c418;
      }

      .cls-99 {
        fill: #f9ed32;
      }

      .cls-100 {
        fill: #d87d23;
      }

      .cls-101 {
        fill: #ff5fa0;
      }

      .cls-102 {
        fill: #f24181;
      }

      .cls-103 {
        fill: #3974b0;
      }

      .cls-104 {
        fill: #f8ae1c;
      }

      .cls-105 {
        fill: #f58520;
      }

      .cls-106 {
        fill: #ef536e;
      }

      .cls-107 {
        fill: #97233e;
      }

      .cls-108 {
        fill: #d93855;
      }

      .cls-109 {
        fill: #2a2829;
      }

      .cls-110 {
        fill: #3c3a3b;
      }

      .cls-111 {
        fill: #5b5859;
      }

      .cls-112 {
        fill: #d2d2d0;
      }

      .cls-113 {
        fill: #e32226;
      }

      .cls-114 {
        fill: #a21e22;
      }

      .cls-115 {
        fill: #f492a6;
      }

      .cls-116 {
        fill: #b7e2ef;
      }

      .cls-117 {
        fill: #d8edf0;
      }

      .cls-118 {
        fill: #6acbea;
      }

      .cls-119 {
        fill: #2ea7c8;
      }

      .cls-120 {
        fill: #c2e5ef;
      }

      .cls-121 {
        fill: #40a8c7;
      }

      .cls-122 {
        fill: #f6f3b1;
      }

      .cls-123 {
        fill: #c9ecf4;
      }
    </style>
    <clipPath id="clip-path">
      <rect class="cls-1" x="40.1" y="56.34" width="539.69" height="449.74" rx="116.93"/>
    </clipPath>
    <linearGradient id="linear-gradient" x1="2595.59" y1="1646.95" x2="2595.94" y2="1655.15" gradientTransform="matrix(1.41, 0.22, -0.26, 1.63, -2995.4, -2984.15)" gradientUnits="userSpaceOnUse">
      <stop offset="0" stop-color="#e8d9d7"/>
      <stop offset="0.4" stop-color="#efe5e4"/>
      <stop offset="1" stop-color="#fff"/>
    </linearGradient>
  </defs>
  <g class="cls-2">
    <g id="Layer_1" data-name="Layer 1">
      <g>
        <rect class="cls-3" x="30.7" y="47.24" width="558.48" height="467.95" rx="124.49"/>
        <g class="cls-4">
          <rect class="cls-5" x="-4.5" y="375.69" width="667.47" height="142.43"/>
          <g class="cls-6">
            <line class="cls-7" x1="290.5" y1="380.45" x2="290.5" y2="585.32"/>
            <line class="cls-7" x1="34.24" y1="399.45" x2="584.9" y2="399.45"/>
            <line class="cls-7" x1="36.62" y1="465.67" x2="587.28" y2="465.67"/>
            <line class="cls-7" x1="425.18" y1="381.64" x2="510.4" y2="566.99"/>
            <line class="cls-7" x1="142.1" y1="390.58" x2="89.66" y2="557.45"/>
          </g>
          <rect class="cls-8" x="23.51" y="31.22" width="585.23" height="349.23"/>
          <rect class="cls-9" x="10.4" y="355.42" width="585.23" height="25.03"/>
          <g>
            <ellipse class="cls-10" cx="175.19" cy="453.88" rx="121.17" ry="19.62"/>
            <ellipse class="cls-10" cx="422.48" cy="459.86" rx="121.17" ry="19.62"/>
            <ellipse class="cls-11" cx="378.29" cy="501.34" rx="69.33" ry="19.62"/>
            <path class="cls-12" d="M444.07,447.09a54.54,54.54,0,0,1,32-5"/>
            <path class="cls-13" d="M429.52,434.06s6.93,9.42.89,17.41L463,442.68s-7.28-11.73-16.52-8.89C446.48,433.79,439.29,434.24,429.52,434.06Z"/>
            <path class="cls-14" d="M435.65,434.15s7.37,4.89,2.22,15.37l-6.49,1.24a14,14,0,0,0-.71-16.08Z"/>
            <g>
              <path class="cls-12" d="M443.41,447.39a55.09,55.09,0,0,1,32.31-5"/>
              <path class="cls-13" d="M428.71,434.22s7,9.51.9,17.59l32.93-8.88s-7.36-11.85-16.69-9C445.85,434,438.58,434.4,428.71,434.22Z"/>
              <path class="cls-15" d="M449.92,424.62s-6-1.68-5.51,7.18L443,434.07s4.54-.48,16.27,9.81c0,0,32.79-1.07,35.9-12.32Z"/>
              <path class="cls-16" d="M446.45,425.82s.48,6,22.25,6.94S495,430.84,495,430.84s3.83-3.11-14.84-4.78S451,422.47,446.45,425.82Z"/>
              <polygon class="cls-17" points="462.12 443.05 463.38 439.28 468.76 439.64 467.33 442.75 462.12 443.05"/>
              <polygon class="cls-17" points="469.54 442.45 470.68 439.58 476.54 439.64 475.7 441.67 469.54 442.45"/>
              <path class="cls-18" d="M449.44,426.57s.41,4,19.11,4.64,22.61-1.28,22.61-1.28,3.29-2.08-12.74-3.2S453.34,424.33,449.44,426.57Z"/>
              <path class="cls-14" d="M434.9,434.31s7.45,4.94,2.24,15.53l-6.55,1.25a14.14,14.14,0,0,0-.71-16.24Z"/>
              <path class="cls-19" d="M371.85,439.07a28,28,0,0,0,4.31,21c7,10.23,37.16,6.46,42.72,1.26S407.75,424.36,371.85,439.07Z"/>
              <path class="cls-19" d="M414,441.94s-4.66,11.49-.35,18.13,18.66,15.26,65.33-2.51c0,0,6.82-7.18-.18-15.26a19.09,19.09,0,0,1-10.95-3.05C462,435.66,419.42,432.43,414,441.94Z"/>
              <path class="cls-20" d="M473.53,441.68s7,9.51.9,17.59l32.94-8.89s-7.36-11.85-16.69-9C490.68,441.41,483.41,441.86,473.53,441.68Z"/>
              <path class="cls-15" d="M494.74,432.07s-6-1.67-5.5,7.18l-1.44,2.28s4.55-.48,16.28,9.81a78.91,78.91,0,0,0,36-12.81.25.25,0,0,0-.11-.46Z"/>
              <path class="cls-21" d="M491.27,433.27s.48,6,22.26,6.94,26.32-1.91,26.32-1.91,3.83-3.12-14.83-4.79S495.82,429.92,491.27,433.27Z"/>
              <path class="cls-21" d="M494.26,434s.42,4,19.12,4.64S536,437.38,536,437.38s3.28-2.08-12.75-3.2S498.17,431.79,494.26,434Z"/>
              <path class="cls-22" d="M479.73,441.77s7.45,4.93,2.24,15.52l-6.55,1.26a14.17,14.17,0,0,0-.72-16.25Z"/>
            </g>
            <g>
              <path class="cls-23" d="M475.09,375.57s18.72,14.44,12.08,36L473,441.17s-14.21-3.31-27.71,2.13-35.11,13.78-50.74,6.44-22.92-7.86-22.21-4.78c0,0-5.92-3.79,8.29-15.16,0,0,12.92-16.32,25-24.61l14.19-12S470,397.55,475.09,375.57Z"/>
              <path class="cls-24" d="M396.29,424.09s9.68,18.73,28.52,8.06S450,411,465.66,411.72c0,0-9.84-8.42-43.19,18.09C422.47,429.81,407.62,438.05,396.29,424.09Z"/>
            </g>
            <g>
              <path class="cls-25" d="M482,268.46s5,22.35.26,37.18c-7.25,22.49-29.39,31-32.86,5.52-1.42-10.45,14.12-19.23,12-31.11S477.23,246.29,482,268.46Z"/>
              <path class="cls-25" d="M383.13,278.68s6.76,11.61,4.5,29.88,20.85,24.89,27.56,17.63,30.75-9.41,42-5.43,25.09-32.18,5.94-40.86S383.13,278.68,383.13,278.68Z"/>
            </g>
            <g>
              <g>
                <g>
                  <path class="cls-19" d="M355.82,373.89s10.24-3.32,24.66-6.44c1.9-.42,8-5.08,12.5-12.85a39.09,39.09,0,0,0,2.36-4.81l.82.79a75.36,75.36,0,0,0,12.65,9.92l1.92,1.21s-.51,1-1.36,2.6c-3.08,5.72-10.63,19-14.81,19.73a110.64,110.64,0,0,1-39.72-.42"/>
                  <path class="cls-26" d="M410.79,361.19s-.72,1.6-1.57,3.19c-7.73-.35-13-5.8-16-9.69a39.81,39.81,0,0,0,2.36-4.81l.81.79A75.36,75.36,0,0,0,409,360.59Z"/>
                </g>
                <g>
                  <path class="cls-19" d="M358.61,373.1a28.44,28.44,0,0,1-8.89-8,55.47,55.47,0,0,0-6-7.2s-9.17-5.05-20,3.8c0,0,.13,3.44,4.87,2.18,0,0-8,5.05-6.05,10.69,0,0,1.17,1.52,2.94-.08,0,0-1.81,2.94.23,4S331.9,374,336,373.21a6.22,6.22,0,0,1,.9,1.2,12.14,12.14,0,0,0-6,5.7c-1.91,4.1,1.32,3.34,2.51,2.16s5.16-4,5.16-4a9.46,9.46,0,0,1,5.16,1.83c2.27,1.79,4.37,7.09,12.8,3.37"/>
                  <path class="cls-19" d="M325.67,374.41s2.21-4.87,8.91-6.62"/>
                  <path class="cls-19" d="M327,365.23a10.46,10.46,0,0,1,8.28-2.5"/>
                  <path class="cls-19" d="M335.94,361.69s-3.92,7.49,1.25,13"/>
                  <path class="cls-19" d="M351.6,369.07s-4.58.59-8.63-4.41l-3.81-4.14a.84.84,0,0,0-1.06-.17c-.59.4-1.12,1.63.23,5.34,0,0,2.34,5.21,6,5.78,0,0-1.46,2.68,1.33,5.92s3.41,3.43,5.7,2.53"/>
                </g>
              </g>
              <path class="cls-20" d="M410,324.41s-14.53,18.2-16.07,24.76c0,0-.91,4.68,10.55,10.54,0,0,3.45,2.4,7.17,1.83l7-16.22"/>
              <path class="cls-20" d="M422.94,317.17s-10.05,13.43-11.58,20c0,0-.91,4.68,10.54,10.54,0,0,22.54-4.17,26.27-4.73l-4.37-20.74"/>
            </g>
            <path class="cls-19" d="M442.68,318.73c-6.88,12.68-18.58,6.83-20.23,1.94a3,3,0,0,1-.09-1.91c1.56-4.86-1.52-10.75-1.52-10.75,2.19-11.77,22.05-13.18,22.05-13.18-4.21,7.63-.48,8.9-.48,8.9-2.8,5.34,1.39,11.09,1.2,12.28A5.86,5.86,0,0,1,442.68,318.73Z"/>
            <g>
              <path class="cls-27" d="M427.61,323.05c.65-.33,2.85-2.42,7.78-1s-.58,7.83-.58,7.83l-5.26.42S422.14,325.86,427.61,323.05Z"/>
              <path class="cls-27" d="M443.57,357.36c-.09.41-.17.82-.27,1.21h0c-2.91,12.42-8.78,19-8.78,19a67.34,67.34,0,0,1-5.62-7.31c-.81-1.26-1.45-2.36-1.95-3.32a16.81,16.81,0,0,1-1.72-4.28c-.05-1.51-.07-3-.07-4.38s0-2.58.06-3.8c.12-3.5.37-6.6.71-9.34q.26-2.07.57-3.87c1.31-7.7,3.09-11.52,3-12-.36-1.53,5.58-1.46,5.58-1.46a57.07,57.07,0,0,0,1.48,7.71c.22.86.45,1.73.69,2.62.7,2.54,1.49,5.12,2.27,7.54q.42,1.26.81,2.46c1,2.93,1.88,5.46,2.49,7.14C443.27,356.57,443.57,357.36,443.57,357.36Z"/>
            </g>
            <path class="cls-23" d="M408.87,325.5c3.47-5.21,5-4.14,11.88-6.74-2.06,4.56-2.06,17.66-1,20.93s7.65,7.64,22.93-2.18c2.18-4.37,1.53-24,1.53-24,27.2,6.74,29.05,23.14,32.58,34.32s6.28,38.82,6.28,38.82c-30.42,19.32-57.34,8.73-57.34,8.73-10.34,10.92-10-21.92-15.63-40.82C406.68,343,406.68,328.78,408.87,325.5Z"/>
            <g>
              <path class="cls-27" d="M482,380.08l1.38,7.92s-6.74,11.06-29.31,15.46-36.48-5.91-36.48-5.91l-.14-6.19s14.3,7.24,29.81,5.37C477.39,393.09,482,380.08,482,380.08Z"/>
              <path class="cls-23" d="M441.63,398.27h0c0,.31,1.26,6.56,1.33,6.9h0l2.87,0s0,0,0,0L444.52,398A18.55,18.55,0,0,0,441.63,398.27Z"/>
              <path class="cls-23" d="M465.2,392c-.33.1-2.22,1.17-2.22,1.17s1.89,7.51,1.89,7.51l2.88-1.36Z"/>
            </g>
            <path class="cls-28" d="M443.24,316.63c-8.8,6.94-16,5.74-20.5,4.26a6.24,6.24,0,0,1-.18-2.76c1.56-4.85-1.84-10.27-1.84-10.27,2.19-11.76,22-13.17,22-13.17-4.21,7.62-1.19,16.14-1.19,16.14C441.83,313,443.43,315.45,443.24,316.63Z"/>
            <g>
              <path class="cls-20" d="M431.19,321.33c-.46.21,7.71,8.2,7.71,8.2s6.11-3.27,7.22-14.43l-4.24-3.44S440.21,317.34,431.19,321.33Z"/>
              <path class="cls-20" d="M428.56,321.54c.48.17-3.2,9.95-3.2,9.95s-3.71-.09-6.57-10.94l1.4-4.52S420.4,318.66,428.56,321.54Z"/>
            </g>
            <g>
              <g>
                <path class="cls-19" d="M378.26,264.36s5.34,13,7,23.83c1.46,9.56,4.87,23.08,25.3,29.1,6.84,2,8.5,3.26,15.4,1.5,10.28-2.64,28.06-13.35,33.18-32.16,0,0-1.5-30.52-12.2-44.89,0,0,1.85-21.64-38.19-18.87S378.26,264.36,378.26,264.36Z"/>
                <path class="cls-28" d="M425,233.08a22.82,22.82,0,0,1-4.15,11.2c-4.38,6.49-11.8,12-20.9,11.86l.07-3.47s-5.24,7.86-10.78,2.34l2.29-5.28s-1.19,6.9-9.57,10.83,1.1-20.07,1.1-20.07l20.21-13.3,25.51-2.85,13.61,7,16,22.86-.86,14.65,2,11s-3.73-3-6.57-15.05S434.36,252.49,425,233.08Z"/>
              </g>
              <g>
                <path class="cls-29" d="M413.15,287.71c-3.91,6.37-10.8,2.87-11,.89,0,0-1-1.1,1.46-5.24,1.91-3.26-1-6.75-1-6.75"/>
                <path class="cls-30" d="M413.18,287.73a8.37,8.37,0,0,1-2.2,2.54,6.34,6.34,0,0,1-3.16,1.25,7.18,7.18,0,0,1-3.39-.49,6.13,6.13,0,0,1-1.51-.86,2.57,2.57,0,0,1-1.06-1.54l.07.17a1.76,1.76,0,0,1-.28-1,4.14,4.14,0,0,1,.08-.87,7.86,7.86,0,0,1,.47-1.61,12,12,0,0,1,.7-1.49l.41-.71a5.86,5.86,0,0,0,.32-.67,4.84,4.84,0,0,0,.18-3,8.88,8.88,0,0,0-1.24-2.89l.06-.05a7.5,7.5,0,0,1,1.68,2.81,5.22,5.22,0,0,1,0,3.36,4.68,4.68,0,0,1-.36.79l-.38.69c-.24.47-.49.93-.69,1.41a8.09,8.09,0,0,0-.49,1.46,3.66,3.66,0,0,0-.1.73,1.45,1.45,0,0,0,.1.57l.07.14v0a2.05,2.05,0,0,0,.8,1.16,6.07,6.07,0,0,0,1.36.84,6.7,6.7,0,0,0,3.16.56,6.09,6.09,0,0,0,3.06-1.06,8.23,8.23,0,0,0,2.27-2.39Z"/>
              </g>
              <path class="cls-25" d="M414.54,259.15s-.77-2.83,3.7-3.73,11.47,2.61,12.52,5.64C430.76,261.06,420.53,256.22,414.54,259.15Z"/>
              <path class="cls-25" d="M392.69,263.75a3.74,3.74,0,0,0-4-2.11c-3.07.33-6.86,4-6.93,6.19C381.74,267.83,388.23,263.08,392.69,263.75Z"/>
              <g>
                <path class="cls-31" d="M427.45,294.66c-1.08,3-4.64,12.49-11.73,14.48-4.29,1.21-7-2.07-9.4-4.38-.63-.59-1.24-1.22-1.85-1.86h0l-.93-1a21.45,21.45,0,0,0-2.58-2.3h0c-.21-.16-.44-.31-.66-.46L400,299s7,2.8,25.39-4.33l1.51-.72.59-.28.34-.16S427.71,294,427.45,294.66Z"/>
                <path class="cls-32" d="M408.67,305.94a5,5,0,0,1,4.09-1.63,9.76,9.76,0,0,1,7.16.1S414.47,309.36,408.67,305.94Z"/>
                <path class="cls-3" d="M427.5,293.67c-7.44,9-15.34,10.35-19.89,9.68-1.95-.28-2.37-3.58-5.44-3.27a8.16,8.16,0,0,1-1.88-.91L400,299s7,2.8,25.39-4.33l1.51-.72Z"/>
                <path class="cls-33" d="M427.45,294.66c-1.08,3-4.64,12.49-11.73,14.48-4.29,1.21-7-2.07-9.4-4.38C414.26,309.72,420,307.23,427.45,294.66Z"/>
                <path class="cls-33" d="M426.91,294c-13.29,9.12-22.41,7.12-26,5.69h0l-.08,0c-.2-.16-.4-.3-.58-.43L400,299s7,2.8,25.39-4.33Z"/>
                <path class="cls-32" d="M426.67,292.4s2.37,0,1.74,2.6C428.41,295,429.44,291.55,426.67,292.4Z"/>
                <path class="cls-32" d="M400.33,298.11s-1.33.59-.13,2.37C400.2,300.48,398.31,298.81,400.33,298.11Z"/>
              </g>
              <path class="cls-25" d="M427,230.4s.62,1.51-8,13.78c-7.27,10.39-19.44,9.37-19.44,9.37s4.53-6.36,3.36-12.07c0,0-2.93,14.35-11.83,14,0,0,2.92-6.82.9-11.12,0,0-2.58,8.84-7.8,11.39S380,267.71,380,267.71s-20.46-10-2-42.17c.11-.18,7.84-16.61,32.4-23.78,32.14-9.37,57,4.61,67.17,27.43s6.19,54.5,6.19,54.5-10.58,18.48-23.22.58l-1.34-3.8s-3.15-1.91-5.31-15.76S428.26,245.15,427,230.4Z"/>
              <g>
                <g>
                  <g>
                    <path class="cls-29" d="M455.65,289.39c2.3.7,9.53-.37,12.63-5.32,9.84-15.74-.14-21.54-6.39-19.66-1.57.47-7.05,2.84-7.59,11.81"/>
                    <path class="cls-30" d="M455.65,289.39a9.37,9.37,0,0,0,3.54-.1,17.42,17.42,0,0,0,3.39-1,11.81,11.81,0,0,0,5.36-4.31,32,32,0,0,0,3.13-6.35,14.3,14.3,0,0,0,.84-6.86,7.26,7.26,0,0,0-3.79-5.4,8.29,8.29,0,0,0-6.68-.46,10.13,10.13,0,0,0-5.14,4.55,16.93,16.93,0,0,0-2,6.78,16.26,16.26,0,0,1,1.66-7,10.61,10.61,0,0,1,5.26-4.93,8.82,8.82,0,0,1,7.21.42,8,8,0,0,1,4.19,5.88,14.4,14.4,0,0,1-.86,7.22,33.54,33.54,0,0,1-3.24,6.48A10.58,10.58,0,0,1,466,287a13.9,13.9,0,0,1-3.23,1.71,15.1,15.1,0,0,1-3.52.86A8.81,8.81,0,0,1,455.65,289.39Z"/>
                  </g>
                  <path class="cls-26" d="M457.88,279.08s-1.28-10.16,6-10.07c6.31.08,3.86,13.25-2.77,16.88,0,0-2.51,1-.17-4.33S457.88,279.08,457.88,279.08Z"/>
                </g>
                <path class="cls-34" d="M458.56,287.2s-3.78,8.67.88,10,2.65-7.89,2.54-8.41c0,0,0,0,0,0-.06.44-1,6.9-2.18,2.73Z"/>
              </g>
              <g>
                <ellipse class="cls-35" cx="423.33" cy="272.83" rx="7.47" ry="8.34" transform="translate(-44.37 86.02) rotate(-11.03)"/>
                <ellipse class="cls-25" cx="420.79" cy="271.78" rx="4.71" ry="5.1" transform="translate(-44.22 85.52) rotate(-11.03)"/>
              </g>
              <g>
                <ellipse class="cls-35" cx="393.15" cy="278.66" rx="6.83" ry="8.34" transform="translate(-46.05 80.36) rotate(-11.03)"/>
                <ellipse class="cls-25" cx="390.76" cy="277.59" rx="4.36" ry="5.1" transform="translate(-45.89 79.88) rotate(-11.03)"/>
              </g>
            </g>
            <ellipse class="cls-3" cx="393.52" cy="274.59" rx="1.22" ry="1.43" transform="translate(-45.26 80.35) rotate(-11.03)"/>
            <ellipse class="cls-3" cx="424.09" cy="269.13" rx="1.22" ry="1.43" transform="translate(-43.65 86.1) rotate(-11.03)"/>
            <g>
              <g>
                <path class="cls-36" d="M333.74,340.64s.11,1.22.1,3.12c-.06,4.95-1,14.49-7.13,19.09-6.47,4.85-14.69,6.11-19,2.52a8,8,0,0,1-2.66-4.79c-1.18-6.29,2.8-8.43,7.11-9.85,1.74-.58,3.53-1,5.05-1.61,3.73-1.39,5.3-5.2,5.9-7.34h0a12.17,12.17,0,0,0,.33-1.51c.26-2.47,1.6-4.76,5.8-4.85S333.74,340.64,333.74,340.64Z"/>
                <path class="cls-37" d="M333.84,343.76c-.06,4.95-1,14.49-7.13,19.09-6.47,4.85-14.69,6.11-19,2.52,9.46,4,14.58-8.57,11.21-12.81-1.67-2.11-4.36-2.27-6.76-1.83,1.74-.58,3.53-1,5.05-1.61,3.73-1.39,5.3-5.2,5.9-7.34l.68.68s-4.54,6.58-1.81,8.26c7.14,4.51,9.23-7,9.23-7Z"/>
                <path class="cls-38" d="M306.33,360.13c.64-2.26,6.44.58,5.79,3.72S305.39,363.47,306.33,360.13Z"/>
              </g>
              <g>
                <path class="cls-36" d="M347.63,337.64s.51,1.12,1.47,2.76c2.5,4.28,8,12.1,15.64,13.06,8,1,15.79-2,17.73-7.2a8,8,0,0,0-.06-5.49c-2.09-6-6.61-5.93-11.05-5-1.8.36-3.58.84-5.19,1.11-3.93.64-7.18-1.9-8.76-3.47h0a13.22,13.22,0,0,1-1-1.14c-1.45-2-3.75-3.35-7.45-1.34S347.63,337.64,347.63,337.64Z"/>
                <path class="cls-37" d="M349.1,340.4c2.5,4.28,8,12.1,15.64,13.06,8,1,15.79-2,17.73-7.2-6.23,8.17-16.91-.23-16.08-5.58.41-2.66,2.67-4.13,5-4.94-1.8.36-3.58.84-5.19,1.11-3.93.64-7.18-1.9-8.76-3.47l-.25.94s7.2,3.46,5.66,6.27c-4,7.45-11.49-1.53-11.49-1.53Z"/>
                <path class="cls-38" d="M381.1,341c-1.67-1.65-5.31,3.69-3.18,6.1S383.58,343.44,381.1,341Z"/>
              </g>
              <g>
                <path class="cls-39" d="M326.94,343c-4.08,10.46-3.9,21.51-.64,33,3.74,14.1,49.45,2,45.72-12.11-4.22-12.55-10.44-22.5-19.59-28.64Z"/>
                <path class="cls-37" d="M352.43,335.23,326.94,343c-4.08,10.46-3.9,21.51-.64,33,3.74,14.1,49.45,2,45.72-12.11C367.8,351.32,361.58,341.37,352.43,335.23Zm15.37,24.39c2.75,12.53-36.41,23.93-40.47,7.29-2.54-12.59,1.52-17.55,1.52-17.55,2.76-3.82,8.82-3.82,9.78-1.9s-1,6.09,4,6.83,8.31-5.29,9-10.29a24.16,24.16,0,0,0,4.14-1.21S365.05,347.09,367.8,359.62Z"/>
                <path class="cls-40" d="M347.78,359.76c9.11-2.41,13.9-.19,13.09,2.75s-19.19,8.88-22.24,6.35S338.25,362.29,347.78,359.76Z"/>
              </g>
              <g>
                <path class="cls-41" d="M355,332.27s-1.29,7.66-16.45,11.68a30.49,30.49,0,0,1-5.79,1c-10.32.73-12.93-5.64-12.93-5.64l9.57-1.92Z"/>
                <path class="cls-37" d="M355,332.27s-1.29,7.66-16.45,11.68a30.49,30.49,0,0,1-5.79,1,39,39,0,0,1-3.36-7.56Z"/>
              </g>
              <g>
                <path class="cls-39" d="M356.63,299.49c.37-2.2,1.4-10.53-3.78-12.72-4.32-1.82-8.32.54-10.22,2a23.17,23.17,0,0,0-15.58-1,27.24,27.24,0,0,0-15.27,8.75c-2.82-.3-7.08,0-9.56,3.66-3.22,4.77,1.63,9.35,3.52,10.87-.63,5.3-.16,11.79,2,19.73,5.69,21.46,62.86,7.52,56.79-15.39A42.8,42.8,0,0,0,356.63,299.49Z"/>
                <g>
                  <path class="cls-37" d="M314.47,296.6a29.63,29.63,0,0,1,11.73-6.43A24.46,24.46,0,0,1,341,290c.43-.4.9-.83,1.41-1.26a23.08,23.08,0,0,0-15.35-.92,27.29,27.29,0,0,0-14.93,8.37C312.94,296.27,313.73,296.43,314.47,296.6Z"/>
                  <path class="cls-37" d="M356.63,299.49a27.15,27.15,0,0,0,.33-3.37,26.17,26.17,0,0,1-1.82,4.52A39,39,0,0,1,361,313c4.12,14.68-48.09,29.28-51.69,13.69a51.51,51.51,0,0,1-1.56-14.88c-3-1.63-7-4.78-6.37-9.95-1.34,4.16,2.65,7.9,4.32,9.24-.63,5.3-.16,11.79,2,19.73,5.69,21.46,62.86,7.52,56.79-15.39A42.8,42.8,0,0,0,356.63,299.49Z"/>
                </g>
                <path class="cls-36" d="M317.74,296.6v.1a2.93,2.93,0,0,1-.1.53,2.73,2.73,0,0,1-3.58,1.86c-2.9-1.11-7.31-2-9.62,1.7s.72,7.25,3.12,9.17a3,3,0,0,1,1.1,2,2.9,2.9,0,0,1-1.2,2.69l-.07,0a3.94,3.94,0,0,1-3.25.53c-9.81-2.69-10.89-13.12-6.77-19.77,3.56-5.75,10.95-6.69,16.26-4.91A6,6,0,0,1,317.74,296.6Z"/>
                <path class="cls-37" d="M317.74,296.6v.1a2.93,2.93,0,0,1-.1.53,10.37,10.37,0,0,0-1.85-4.07c-1.93-2.75-14.76-3.29-17.28,5.95s2.89,14.15,6.64,14.7a3,3,0,0,0,3.51-1.84,2.9,2.9,0,0,1-1.2,2.69l-.07,0a3.94,3.94,0,0,1-3.25.53c-9.81-2.69-10.89-13.12-6.77-19.77,3.56-5.75,10.95-6.69,16.26-4.91A6,6,0,0,1,317.74,296.6Z"/>
                <path class="cls-36" d="M337.68,291.31l.06.09a2.37,2.37,0,0,0,.35.42,2.72,2.72,0,0,0,4-.17c2-2.39,5.37-5.32,9.2-3.28s3,6.66,1.82,9.51a3,3,0,0,0,0,2.29,2.92,2.92,0,0,0,2.38,1.75h.09a3.94,3.94,0,0,0,3.09-1.15c7.18-7.19,3-16.79-3.92-20.53-5.93-3.22-12.83-.38-16.55,3.79A6,6,0,0,0,337.68,291.31Z"/>
                <path class="cls-37" d="M337.68,291.31l.06.09a2.37,2.37,0,0,0,.35.42,10.26,10.26,0,0,1-.41-4.46c.31-3.34,11.19-10.17,18-3.39s4.49,13.73,1.51,16.06a3,3,0,0,1-4,.14,2.92,2.92,0,0,0,2.38,1.75h.09a3.94,3.94,0,0,0,3.09-1.15c7.18-7.19,3-16.79-3.92-20.53-5.93-3.22-12.83-.38-16.55,3.79A6,6,0,0,0,337.68,291.31Z"/>
                <path class="cls-40" d="M327.4,292.31c9-2.38,18.36,1.36,1.7,5.77S317.78,294.86,327.4,292.31Z"/>
                <g>
                  <path class="cls-37" d="M320.62,307.68c5.28-3.08,11.38,13.18,7.19,15.7S315.53,310.65,320.62,307.68Z"/>
                  <path class="cls-42" d="M321.4,309.43c4.11-2.4,8.85,10.24,5.6,12.21S317.45,311.73,321.4,309.43Z"/>
                </g>
                <g>
                  <path class="cls-37" d="M341.28,302.21c-6.11-.07-3.36,17.08,1.52,17.2S347.17,302.27,341.28,302.21Z"/>
                  <path class="cls-42" d="M341.46,304.11c-4.75-.05-2.62,13.29,1.19,13.38S346,304.16,341.46,304.11Z"/>
                  <path class="cls-3" d="M342.35,305.88c-1.73.14-1.38,3.45,0,3.35S344,305.75,342.35,305.88Z"/>
                  <path class="cls-3" d="M323.36,310.92c-1.74.14-1.38,3.44,0,3.35S325,310.78,323.36,310.92Z"/>
                </g>
                <path class="cls-43" d="M347.53,326.24c.51,4.5-17.66,10.34-19.84,4.06a9.55,9.55,0,0,1,3.08-10.59,9.65,9.65,0,0,1,3.7-2,10,10,0,0,1,8,1.2A10.78,10.78,0,0,1,347.53,326.24Z"/>
                <path class="cls-42" d="M334.8,318.75c3.66-1.25,4.94.52,5.43,2.8s-7.55,4.28-8.15,2S331.87,319.76,334.8,318.75Z"/>
                <path class="cls-37" d="M347.53,326.24c.51,4.5-17.66,10.34-19.84,4.06a9.55,9.55,0,0,1,3.08-10.59,10.81,10.81,0,0,0-1.23,7.87c1.2,5.17,16.2,2.91,15.14-3.67a10.09,10.09,0,0,0-2.2-5A10.78,10.78,0,0,1,347.53,326.24Z"/>
                <path class="cls-44" d="M332.4,322.19a4.11,4.11,0,0,0,3.62.41,6,6,0,0,0,3.26-2.58s2.05,2.55-2.86,3.76S332.4,322.19,332.4,322.19Z"/>
                <path class="cls-45" d="M333.62,320.32a4.24,4.24,0,0,1,3.81-1.12A3.5,3.5,0,0,1,333.62,320.32Z"/>
              </g>
              <g>
                <path class="cls-46" d="M350,336.55l1.19,4.49s-.63,6.68-4.06,10.1-8.47,0-6.11-5.35c-3.73-.73-8.38-5.33-6.31-8.73a4.77,4.77,0,0,1,1.41-1.48h0c2.09-1.41,5.11-1.19,7.4-.7a20.44,20.44,0,0,1,3.2.95Z"/>
                <path class="cls-46" d="M368.7,335.38c.61,3.61-6,7.53-14.45,4.17-1.92-1.66-2.85-6.45-2.85-6.45,0-.38,0-5.38,2.24-8.79a6.46,6.46,0,0,1,4.67-3.1,2.76,2.76,0,0,1,.82.06c4,.92,4.22,11.18,4.22,11.18S368.08,331.77,368.7,335.38Z"/>
                <path class="cls-37" d="M350,336.55l1.19,4.49s-.63,6.68-4.06,10.1-8.47,0-6.11-5.35c-3.73-.73-8.38-5.33-6.31-8.73a4.77,4.77,0,0,1,1.41-1.48,3.46,3.46,0,0,0-.66,3.45c1.41,4.89,7.94,4.53,7.94,4.53s-2.77,7.24,2,6.11,4.65-7.06,2.69-11a8.26,8.26,0,0,0-4.53-3.8,20.44,20.44,0,0,1,3.2.95Z"/>
                <path class="cls-37" d="M368.7,335.38c.61,3.61-6,7.53-14.45,4.17-1.92-1.66-2.85-6.45-2.85-6.45,0-.38,0-5.38,2.24-8.79a15.63,15.63,0,0,0,.52,10.12c2.54,5.73,8.64,4.57,10.64,3.92s2.8-5-2.8-4.51c.56-7-.81-11.25-2.87-12.57,4,.92,4.22,11.18,4.22,11.18S368.08,331.77,368.7,335.38Z"/>
                <path class="cls-41" d="M346.75,335.82a5.32,5.32,0,0,1,4.65-2.72c2.85,2.1,2.86,6.45,2.86,6.45l-3,1.49S349.18,336.78,346.75,335.82Z"/>
                <path class="cls-37" d="M351.4,333.1a5.32,5.32,0,0,0-4.65,2.72c2.43,1,4.47,5.22,4.47,5.22l3-1.49S354.25,335.2,351.4,333.1Zm.89,5.21-.12.05a1.24,1.24,0,0,1-1.46-.48,11.79,11.79,0,0,0-1.28-1.59,1.23,1.23,0,0,1,.2-1.87,3.75,3.75,0,0,1,.77-.4,1.23,1.23,0,0,1,1.29.36,7.2,7.2,0,0,1,1.29,2.43A1.21,1.21,0,0,1,352.29,338.31Z"/>
              </g>
              <g>
                <path class="cls-36" d="M342.61,388.35s-7.13-3.92-10.19-9.82a10.6,10.6,0,0,1-.89-8.27,10.31,10.31,0,0,1,7.41.92,12.66,12.66,0,0,1,3.49,2.7C347.55,379.38,342.61,388.35,342.61,388.35Z"/>
                <path class="cls-37" d="M342.61,388.35s-7.13-3.92-10.19-9.82l2.93-5.06s4.93,3.5,6,2c.6-.87-.95-2.77-2.42-4.25a12.66,12.66,0,0,1,3.49,2.7C347.55,379.38,342.61,388.35,342.61,388.35Z"/>
                <path class="cls-47" d="M337.63,392.64c-9.78,4.08-16.88-2-20.31-11.08-1.87-4.95-2.6-8.95-2.39-11.87a9,9,0,0,1,.54-2.68,4.91,4.91,0,0,1,1.72-2.33c4.23-3,11.19.36,16.41,4.63a31.48,31.48,0,0,1,4.56,4.52,17.44,17.44,0,0,1,1.22,1.66C343.1,381.36,347.41,388.57,337.63,392.64Z"/>
                <path class="cls-37" d="M337.63,392.64c-9.78,4.08-16.88-2-20.31-11.08-1.87-4.95-2.6-8.95-2.39-11.87.91,4.42,4.68,16.11,11.45,19.53,8.32,4.2,14.23-.22,13.86-5.5-.32-4.67-1.1-8.32-6.64-14.41a28.64,28.64,0,0,1,5.78,6.18C343.1,381.36,347.41,388.57,337.63,392.64Z"/>
                <path class="cls-40" d="M338.16,373.83c-2.6-2.33-8.12-6.8-13.88-8.51-4.94-1.47-7.55.21-8.81,1.69a4.91,4.91,0,0,1,1.72-2.33c4.23-3,11.19.36,16.41,4.63A31.48,31.48,0,0,1,338.16,373.83Z"/>
              </g>
              <g>
                <path class="cls-36" d="M365,382.41s4.26-6.94,4-13.59a10.56,10.56,0,0,0-3.33-7.62,10.33,10.33,0,0,0-6,4.47,12.69,12.69,0,0,0-1.69,4.08C356.31,377.06,365,382.41,365,382.41Z"/>
                <path class="cls-37" d="M365,382.41s4.26-6.94,4-13.59L364,365.89s-2.55,5.47-4.25,4.67c-1-.46-.54-2.87,0-4.89a12.69,12.69,0,0,0-1.69,4.08C356.31,377.06,365,382.41,365,382.41Z"/>
                <path class="cls-47" d="M371.5,383.67c10.51-1.3,13.66-10.13,12.15-19.68-.82-5.24-2.16-9.07-3.79-11.51a9.23,9.23,0,0,0-1.8-2.05,4.8,4.8,0,0,0-2.65-1.17c-5.14-.48-9.55,5.85-12,12.14a31.66,31.66,0,0,0-1.73,6.19,17.94,17.94,0,0,0-.23,2C361.16,376.58,361,385,371.5,383.67Z"/>
                <path class="cls-37" d="M371.5,383.67c10.51-1.3,13.66-10.13,12.15-19.68-.82-5.24-2.16-9.07-3.79-11.51,1.4,4.29,3.91,16.32-.28,22.65-5.15,7.76-12.48,6.85-14.77,2.08-2-4.22-3.16-7.77-1.36-15.81a28.49,28.49,0,0,0-2,8.23C361.16,376.58,361,385,371.5,383.67Z"/>
                <path class="cls-40" d="M361.72,367.59c1.11-3.31,3.69-9.94,7.85-14.27,3.57-3.72,6.66-3.55,8.49-2.89a4.8,4.8,0,0,0-2.65-1.17c-5.14-.48-9.55,5.85-12,12.14A31.66,31.66,0,0,0,361.72,367.59Z"/>
              </g>
            </g>
            <g>
              <path class="cls-48" d="M462.75,367.1c2.13-.44-1.74-9.09-8.07-12.47s-13-5.66-14.07-3.74,2.43,7.94,8.76,11.32S459,367.89,462.75,367.1Z"/>
              <path class="cls-19" d="M386,343.23c4.45,6.38,12.45,15.38,12.45,15.38,8,9.85,30,14.38,30,14.38l12.27-18.43,2.69-4c15.29,1.83,18.16,11.68,18.16,11.68-1.29,2.4-2.59,4.66-3.89,6.76-11.76,19.2-22.89,26.64-22.89,26.64-14.21-1.27-33.81-18.75-39.85-23.67s-8.58-9-13.81-8.77"/>
              <g>
                <path class="cls-29" d="M427.54,372.73s4.73,1.74,6.24,10.81"/>
                <path class="cls-30" d="M427.67,372.38a8.2,8.2,0,0,1,2.61,2.14,13,13,0,0,1,1.74,2.79,19.19,19.19,0,0,1,1.12,3.05l.37,1.58.27,1.6-.36-1.58-.46-1.54a17.91,17.91,0,0,0-1.28-2.94,12.76,12.76,0,0,0-1.83-2.59,7.6,7.6,0,0,0-2.44-1.81Z"/>
              </g>
              <path class="cls-26" d="M461.62,361.88c-1.29,2.4-2.56,4.47-3.86,6.58-2.8-6.78-12.27-11.64-16.7-13.82l2.69-4C459,352.44,461.62,361.88,461.62,361.88Z"/>
              <path class="cls-20" d="M474.21,348l-11.33,18.9c-.05.11-.19.09-.26,0-9.53-13.73-22-15.95-22-15.95a183.93,183.93,0,0,0,9.78-15.9s1.18-7.3,5.86-10.89c0,0,6.11-4.06,11.57,2.49S476.23,343.11,474.21,348Z"/>
              <g>
                <g>
                  <line class="cls-19" x1="375.94" y1="347.6" x2="377.41" y2="347.23"/>
                  <g>
                    <path class="cls-29" d="M365.47,347.71s1.74-1,4.5,1.34"/>
                    <path class="cls-30" d="M365.47,347.71a1.9,1.9,0,0,1,1.22-.49,3.22,3.22,0,0,1,1.31.2,4,4,0,0,1,1.13.65,3.44,3.44,0,0,1,.84,1c-.82-.3-1.51-.67-2.23-.92a6.74,6.74,0,0,0-1.08-.33A4.57,4.57,0,0,0,365.47,347.71Z"/>
                  </g>
                  <path class="cls-30" d="M368.24,348.72a14.93,14.93,0,0,0,3.06.17,14.26,14.26,0,0,0,3-.4A17.77,17.77,0,0,0,377,347.4a22.82,22.82,0,0,0,2.62-1.51l.07.06a6,6,0,0,1-2.21,2.33,8.15,8.15,0,0,1-3.06,1,14.46,14.46,0,0,1-6.25-.45Z"/>
                  <path class="cls-19" d="M392.76,370.21c-4.65-3.87-5.75-4.28-5.75-4.28-1.4,2-10.24,2.72-14.52.52-4-2-3.11-4.45-3.11-4.45-4.33-3.4-1.94-5.34-1.94-5.34-4.17-3.28-1.23-5.67-1.23-5.67-1.82-1.54-2.13-4.27-.32-5.59s7.89,1.07,7.89,1.07l.88.21s1.68-7.67,7.68-5.76a15,15,0,0,1,7.87,5.41s5.48,11.19,11.36,15.16"/>
                  <path class="cls-19" d="M365.41,350.38a9.33,9.33,0,0,0,6.84,2.31"/>
                  <path class="cls-19" d="M367,356.11s1.3,1.9,6.46,1.87"/>
                  <path class="cls-19" d="M368.82,361.52s1.54,1.58,6.1,1.34"/>
                </g>
                <path class="cls-19" d="M381.14,346.64a56.44,56.44,0,0,0-6.48,0"/>
              </g>
            </g>
            <path class="cls-49" d="M346.9,458.19s16.86,7-25.83,10.35-74.45,10.08-91.77,2.31c0,0-8.43-3.91-14.09-6.57,0,0-9.24-4.9-15-.14-14.56,14.65-43.3,5.08-44.76-13.91,0,0-21.2,3.17-23-6.61l63.93-10.77,44,11.48S345.11,446.34,346.9,458.19Z"/>
            <g>
              <path class="cls-50" d="M148.64,448.38s.72-7.91-.74-9"/>
              <g>
                <path class="cls-51" d="M140.74,417.21a30.69,30.69,0,0,1,3.59,3.49"/>
                <path class="cls-52" d="M140.74,417.21a6.08,6.08,0,0,1,2.12,1.42,6.44,6.44,0,0,1,1.47,2.07,9.33,9.33,0,0,1-2-1.54A10.91,10.91,0,0,1,140.74,417.21Z"/>
              </g>
            </g>
            <path class="cls-53" d="M238,463.21c-2.76,16.26-24.28,12.59-36.07,0C141.42,398.64,238.2,454.4,238,463.21Z"/>
            <g>
              <path class="cls-20" d="M163.77,347.3l-4.32,49.07c49.74,42.83,86.76,3.36,86.76,3.36-3.31-24.54,1.56-56.55,1.56-56.55,3.25-1.94,2.79-3.89,2.79-3.89l6.87-22.47-12.22-15.3c-33.65-9.34-25.71-10.77-60.54-3.41l-20.9,27.42Z"/>
              <path class="cls-54" d="M283.41,328a5.23,5.23,0,0,1-.46,3.69l-3.23-3.46Z"/>
            </g>
            <g>
              <g>
                <g>
                  <path class="cls-21" d="M156.44,416.75c-2.31-6.67-12.7-6.3-16.29-3.53,0,0-3.93,1.88-5.26,25.47l-1.26,12.94s-1.6,6.57,4.25,8.71c4.19,1.53,14.35,3.05,18.25.19S156.44,416.75,156.44,416.75Z"/>
                  <path class="cls-15" d="M154.53,415.25c-18.47-8.87-19.05,20.16-21.29,34.19-.46,7,14,9.61,21,7s3.21-34.68,3.21-34.68"/>
                  <path class="cls-15" d="M158.5,422.31s2.4-4.2-2.71-6.43c-9.92-5.78-23.52,12.87-10.83,19.39C143.82,427.61,147.87,416.51,158.5,422.31Z"/>
                  <path class="cls-15" d="M145.1,435.59s-4.42-2.13-5.27-5.85c-6,4.23-1.47,14.35,7.44,12.56Z"/>
                  <path class="cls-15" d="M141.43,441.65s-3.1-.72-5.51,3"/>
                </g>
                <path class="cls-53" d="M193,473.2a8.62,8.62,0,0,1-5.59,6.45c-21,7.44-26.94-8.19-36.49-30.24-6.54-15.38-8.69-25.31-1.33-29,0,0,4.54-2,7.1,1.1l7.92,8.85S199.64,438.49,193,473.2Z"/>
              </g>
              <g>
                <path class="cls-23" d="M201,436.6l1.26-29.36L246,394.92l-4.16,58.3s-4.78,9.57-23.55,9.18-18.86-5.79-18.86-5.79,1.58-20,.91-20"/>
                <path class="cls-23" d="M210,434.22c-1.14.27-3.47,4.35-10.47,3.5l-2.85,19.46s-2,10.28-34,6.07c0,0-10.19-3-11.46-8.94L159,401l2.61-7,40.83,13.22"/>
                <path class="cls-27" d="M244.81,390.56l1.17,9.82S234.71,411.24,205,411.67,159.18,401,159.18,401l.8-10s18,10.95,38.07,11.93C237.12,404.82,244.81,390.56,244.81,390.56Z"/>
                <path class="cls-23" d="M191,403.41h0c-.11.34-.09,7.48-.09,7.86,0,0,0,0,0,0l3.7.54s0,0,0,0l.14-8.16A29.36,29.36,0,0,0,191,403.41Z"/>
                <path class="cls-23" d="M232.71,399.1c-.46,0-3.17.84-3.17.84s.47,8.64.47,8.64l4.05-.9Z"/>
                <g>
                  <path class="cls-55" d="M216,414.37a103.29,103.29,0,0,1-1.46,18.39"/>
                  <path class="cls-56" d="M216,414.37a64.64,64.64,0,0,1-1.46,18.39c.31-3.07.68-6.12.89-9.18S215.81,417.45,216,414.37Z"/>
                </g>
                <g>
                  <path class="cls-55" d="M172.18,409.36l-1.53.1c-1.19,5.53-6.13,10.32-12.19,11.82"/>
                  <path class="cls-56" d="M172.18,409.36l-1.52.18.07-.06a14.09,14.09,0,0,1-4.36,7.74,16.57,16.57,0,0,1-3.68,2.6,15.38,15.38,0,0,1-4.23,1.46,20.08,20.08,0,0,0,4-1.78,19,19,0,0,0,3.53-2.63,16,16,0,0,0,4.53-7.42l0-.07h.06Z"/>
                </g>
              </g>
            </g>
            <g>
              <path class="cls-53" d="M283.46,382.25c-5.24-28.12-15-29.08-21.2-34.36,0,0,6-17.44,17.2-20.6,13.69,15.68,18.62,13.16,21.76,49.55"/>
              <path class="cls-52" d="M272.17,345.49a11.88,11.88,0,0,0-.79,2.52,11.39,11.39,0,0,0-.26,2.59,14.26,14.26,0,0,0,.36,2.54,25.89,25.89,0,0,0,.69,2.53l-.06,0a6.21,6.21,0,0,1-1.36-2.38,7.47,7.47,0,0,1-.23-2.74,11.68,11.68,0,0,1,1.59-5.14Z"/>
            </g>
            <path class="cls-57" d="M268.65,351.59s-2.67-1.77-3.57-2.51,4.38-14.29,9.73-19.18l4.91-1.65,3.69,3.95S274.11,337.32,268.65,351.59Z"/>
            <g>
              <path class="cls-53" d="M298.84,376.19c4,2.27,28.74,13.39,20.57,23.83,0,0-.87,5.83-4.18,3.71,0,0,0,4.59-2.44,3.7-3.73,12.36-13.9-15.44-20.4-14.13-4.74-.34-5.75-.89-8.19,0S278,399,272.87,394.55c-2.67-2.3,2.88-4.21,2.88-4.21s5.66-10.09,10-10.27"/>
              <path class="cls-52" d="M318.81,401a7.4,7.4,0,0,0-.11-2.3,12.19,12.19,0,0,0-.62-2.22,17.91,17.91,0,0,0-2.14-4.06c-.85-1.29-1.9-2.41-2.87-3.61l-1.52-1.74c-.53-.57-1.05-1.14-1.55-1.75l.05-.05c.64.45,1.25.93,1.87,1.43s1.14,1.07,1.71,1.61a22.47,22.47,0,0,1,2.81,3.78,18.89,18.89,0,0,1,2,4.27,14,14,0,0,1,.49,2.31,7.35,7.35,0,0,1-.05,2.34Z"/>
              <path class="cls-52" d="M314.81,404.26a11.74,11.74,0,0,0-.8-3.61,16.08,16.08,0,0,0-1.67-3.28,33.07,33.07,0,0,0-2.3-2.86c-.39-.48-.84-.9-1.23-1.38s-.87-.89-1.28-1.38l.05-.06a14.35,14.35,0,0,1,3,2.31,14.77,14.77,0,0,1,2.26,3.06,17,17,0,0,1,1.52,3.47,11.55,11.55,0,0,1,.51,3.73Z"/>
              <path class="cls-52" d="M312.75,407.45a40.86,40.86,0,0,0-3.46-5.33c-.66-.82-1.38-1.58-2.05-2.38s-1.4-1.55-2.14-2.34l0-.06a10.24,10.24,0,0,1,2.64,1.88,17.55,17.55,0,0,1,2,2.55,33.45,33.45,0,0,1,3,5.65Z"/>
            </g>
            <path class="cls-58" d="M207,323.43c-1,5.21,22.31,7.91,22.53,2.61C230.48,320.84,207.2,318.14,207,323.43Z"/>
            <path class="cls-53" d="M145.89,330.16s-19.1,19.21-13.17,24.77l7,6.92s20.17-11,19.76-11.85S161.84,331.8,145.89,330.16Z"/>
            <path class="cls-59" d="M238.15,313.21c-6.74,7.4-38.62,6.38-34.31-11.46C207.1,294.22,238.53,304.42,238.15,313.21Z"/>
            <path class="cls-20" d="M238.15,305.75l13.74-1.94c12.37,6.51,30.39,24,30.39,24-12.55,7.06-16.72,22.95-16.72,22.95s-11.72-6.74-17.21-12.3"/>
            <g>
              <g>
                <path class="cls-60" d="M226.83,318.87c-.92-.51-4-3.59-11.13-1.71s.54,11.25.54,11.25l7.54.8S234.58,323.11,226.83,318.87Z"/>
                <g>
                  <path class="cls-23" d="M202.64,367.54c.12.59.22,1.18.35,1.75h0c3.71,17.95,11.89,27.59,11.89,27.59a94.48,94.48,0,0,0,8.34-10.29c1.22-1.77,2.18-3.33,2.93-4.68a24,24,0,0,0,2.63-6.08c.13-2.17.21-4.27.26-6.29s.07-3.71.06-5.47c0-5-.29-9.49-.68-13.43-.19-2-.42-3.85-.67-5.58-1.6-11.1-4-16.65-3.81-17.42.58-2.17-7.95-2.29-7.95-2.29a83,83,0,0,1-2.42,11c-.34,1.23-.71,2.48-1.09,3.74-1.1,3.62-2.32,7.3-3.53,10.74l-1.25,3.51c-1.51,4.17-2.91,7.78-3.85,10.16C203.1,366.41,202.64,367.54,202.64,367.54Z"/>
                  <path class="cls-61" d="M212.48,340.1a56.85,56.85,0,0,1,15.45,10.44c-.19-2-.46-4.06-.71-5.79a64.56,64.56,0,0,0-13.65-8.39C213.23,337.59,212.86,338.84,212.48,340.1Z"/>
                  <path class="cls-61" d="M208.09,354.7c5.8,3.36,15.32,9.35,20.48,14.8.05-1.89.07-4.07.06-5.83a82.62,82.62,0,0,0-19.25-12.62C209,352.24,208.5,353.57,208.09,354.7Z"/>
                  <path class="cls-61" d="M203.14,367.6c.11.59.21,1.32.33,1.89h0c5.66,3.68,14.38,9.85,19.45,16.71,1.22-1.78,2.12-3.28,2.87-4.64a121.48,121.48,0,0,0-21.54-16.86C203.5,366.6,203.14,367.6,203.14,367.6Z"/>
                </g>
              </g>
              <g>
                <path class="cls-62" d="M221.75,316.26c.66.32-11.37,11.49-11.37,11.49s-8.65-4.92-9.83-21l6.21-4.79S209,310.2,221.75,316.26Z"/>
                <path class="cls-62" d="M225.52,316.66c-.7.23,4.23,14.41,4.23,14.41s5.33,0,9.84-15.46l-1.85-6.54S237.34,312.83,225.52,316.66Z"/>
              </g>
            </g>
            <g>
              <path class="cls-63" d="M269.18,282.3c-4.82,6.26-12.44,7.77-17.58,4.08s-2.25-7.14,2.57-13.4,4.8-5.43,11-7C278.78,262.6,274,276,269.18,282.3Z"/>
              <path class="cls-64" d="M266.68,269.37c9.34-.39-4.06,18.66-8.57,14.93-1.59-3.74,4.05-4.88,5.9-7.1,1.28-2.25-2.08-2.65-3.57-2.79C260.8,271.69,264.22,269.89,266.68,269.37Z"/>
            </g>
            <path class="cls-63" d="M263.52,235c-20-17.34,13.08-28.51-16.94-33.73-29.14-5.06-48.79,6.59-54.17,32.05-2.49,11.76-1,24.86-1.2,25.49-9.73,39.66,27.4,63.21,55.21,46.9,9.54-5.1,17.84-14,21.69-35C268.23,270.06,280.21,249.44,263.52,235Z"/>
            <g>
              <path class="cls-65" d="M216.25,281.88c3.54,1.63,26.72,5.44,30.37,5.52C233.88,304.48,222.79,302.57,216.25,281.88Z"/>
              <g>
                <path class="cls-66" d="M231.36,285.55c-4.09-.92-15.7-4.62-15.7-4.62,10.16,18.1,16.23,20.2,32,5.63C247.64,286.56,235.45,286.47,231.36,285.55Z"/>
                <path class="cls-32" d="M236,292.16c-.67-.37-4.9-1.35-5.57-.72-2.18-1.46-8.17-2.21-8.27-.66,3.68,4.75,8.49,7.64,13.9,4.17C238.33,293.79,240.27,293.7,236,292.16Z"/>
              </g>
              <path class="cls-64" d="M247.49,283.8s-.77,4.37.84,5.23.23-1.47,0-2.31C248.16,286.26,247.49,283.8,247.49,283.8Z"/>
              <path class="cls-64" d="M217,278.38c-.54,5.73-5.61,5.67-1.73,2.53A24.22,24.22,0,0,0,217,278.38Z"/>
              <path class="cls-67" d="M219.18,282.22c-.84,7.91,22.31,12.87,24.08,4.41a51.53,51.53,0,0,1-12.07-.87C227.44,285.06,223.43,282.61,219.18,282.22Z"/>
              <path class="cls-65" d="M215.66,280.93s7.53,5.19,14.79,6.18c15.39,2.09,17.19-.55,17.19-.55s-12.35-.63-16.78-1.7C226.86,283.89,215.66,280.93,215.66,280.93Z"/>
            </g>
            <path class="cls-68" d="M223.83,241.08c-3-.29-12.91,1.25-14.35,7.48,0,0,7.41-4.17,14.39-4.28C223.87,244.28,225.32,241.23,223.83,241.08Z"/>
            <path class="cls-68" d="M252.09,246.45c2.94.34,12.28,4,12.25,10.47,0,0-6.25-5.71-13-7.31C251.32,249.61,250.61,246.27,252.09,246.45Z"/>
            <path class="cls-64" d="M212.73,224.35s4.64,9.87,37.34,15.62l-.11-4.53s.84,6.46,19.23,13.19l-1.29,23.95,14.2-47.91-67.93-17.93-12.54,8.9-1.87,13.19s-11.37,25-11.87,34.12l2.23.7c5.18-4.86,8.37-12.71,11-19.2C201.15,244.45,207.27,248.42,212.73,224.35Z"/>
            <path class="cls-68" d="M211.3,217.35s-5.22,9.62,38.06,20c0,0-1-.73-3-11.66,2.64,13.52,13.92,15.91,21.76,20l5.91-12.25-6.17,39.13c4.53-9.14,13.22-19.18,14.2-36.9a46.69,46.69,0,0,1,1.08,8.77s14.47-25.87-10.79-41.84c0,0,3.64-.48,9.71,4.08-2.18-14.09-48.23-41.1-70-17.79,0,0-12.09-9.33-23.22,9.52,0,0,10.88-5.11,14.23-1.87,0,0-11-2.38-19.21,18.53-6.93,17.55-1.05,33.64,6,49.1a52,52,0,0,0,9.83-27.8l2.55,6.88S210.39,239.66,211.3,217.35Z"/>
            <path class="cls-69" d="M259.59,266.64c-1.24,10.59-16.83,9-15.94-1.64C244.89,254.41,260.47,256,259.59,266.64Z"/>
            <path class="cls-25" d="M259.47,264.29c1.66,6.34-7.68,8.94-9.2,2.46C248.6,260.41,257.94,257.81,259.47,264.29Z"/>
            <g>
              <path class="cls-69" d="M225.51,260.42c.51,10.16-15,11.05-15.81,1C209.19,251.25,224.67,250.37,225.51,260.42Z"/>
              <path class="cls-25" d="M225.41,259.74c1.63,6.19-7.5,8.74-9,2.4C214.8,256,223.92,253.41,225.41,259.74Z"/>
              <path class="cls-3" d="M218.75,256.81a1,1,0,1,1-2,.52A1,1,0,1,1,218.75,256.81Z"/>
            </g>
            <path class="cls-3" d="M252.65,262.21a1,1,0,1,1-2,.53A1,1,0,1,1,252.65,262.21Z"/>
            <g>
              <path class="cls-70" d="M228.67,274.48c2.9,5.49,17.28,6.24,12.74-3.78"/>
              <path class="cls-71" d="M228.67,274.48A9.27,9.27,0,0,0,233,277a12.78,12.78,0,0,0,4.73.46,4.36,4.36,0,0,0,3.59-1.94,4.83,4.83,0,0,0,.44-2.21,16.84,16.84,0,0,0-.31-2.56,8.13,8.13,0,0,1,1.28,2.4,5.15,5.15,0,0,1,0,2.94,4.48,4.48,0,0,1-2,2.44,6.83,6.83,0,0,1-2.84.92,10.32,10.32,0,0,1-5.52-1A6.69,6.69,0,0,1,228.67,274.48Z"/>
            </g>
            <g>
              <path class="cls-63" d="M189.92,274.8c-17.58,11.08-20.83-35-5.4-22.66,0,0,5.73,4.46,6.5,11.6"/>
              <path class="cls-64" d="M182.06,254.74c-7.11-2.58-3.72,14.24-.81,16.62,1.34,1.1,2.77-.38,2.62-1.89,0-2-1.25-3.52-2.18-5.13-1.79-2.94.9-3.81,3.29-2.77C185.74,259.11,183.89,256.16,182.06,254.74Z"/>
            </g>
            <path class="cls-20" d="M192.74,296.62c-19.58-2-40.36,23.4-47.7,32.91,0,0,13.71,9.71,18.24,23.33"/>
            <path class="cls-72" d="M180.15,319.24a35.45,35.45,0,0,1-.17,10.23,14.71,14.71,0,0,1-1.57,5,8.24,8.24,0,0,1-3.74,3.6l0-.09a12,12,0,0,0,2.9-4,22.56,22.56,0,0,0,1.67-4.67,30.69,30.69,0,0,0,.75-5,41,41,0,0,0,.11-5.08Z"/>
            <path class="cls-53" d="M146.17,340.09c7.87,2.24,17.23,1.8,25.13,0,18.7,17-26.53,46.6-39.36,13.86"/>
            <g>
              <g>
                <path class="cls-73" d="M206.67,326.4,162.1,371.16a2.06,2.06,0,0,1-2.92-2.91l44.57-44.76Z"/>
                <g>
                  <path class="cls-74" d="M206.67,326.4,162.1,371.16a2.06,2.06,0,0,1-2.92-2.91l44.57-44.76Z"/>
                  <path class="cls-75" d="M205.8,325.53l-44.87,45.05a1.23,1.23,0,0,1-1.75-1.74l44.87-45.06Z"/>
                  <path class="cls-76" d="M204.92,324.66,159.77,370a.41.41,0,0,1-.59-.58l45.16-45.35Z"/>
                </g>
              </g>
              <g>
                <g>
                  <path class="cls-77" d="M209.48,325.78l6.82-25.65s9,10.72,8.13,14l-3.52,13Z"/>
                  <path class="cls-77" d="M210.65,322.26l-18.81-18.73s13.79-2.44,16.2,0l9.55,9.57Z"/>
                  <path class="cls-78" d="M217.59,313.06,208,303.49c4.78,4.76.05,21.41.05,21.41S217.6,318.87,217.59,313.06Z"/>
                  <path class="cls-77" d="M208.18,319.49l-25.63,6.92s4.79-13.16,8.07-14.05l13.06-3.48Z"/>
                  <path class="cls-79" d="M203.68,308.88l-13.09,3.54c6.51-1.76,18.56,10.67,18.56,10.67S208.71,311.77,203.68,308.88Z"/>
                  <path class="cls-77" d="M204.54,320.24l-6.81,25.66s-9-10.73-8.14-14l3.52-13.05Z"/>
                  <path class="cls-80" d="M193.11,318.83l-3.48,13.11c1.73-6.52,18.52-10.74,18.52-10.74S198.13,315.92,193.11,318.83Z"/>
                  <path class="cls-77" d="M203.38,323.76l18.81,18.74s-13.8,2.44-16.21,0L196.44,333Z"/>
                  <path class="cls-81" d="M196.44,333l9.61,9.57c-4.78-4.76,0-21.41,0-21.41S196.43,327.16,196.44,333Z"/>
                  <path class="cls-77" d="M205.85,326.54l25.63-6.93s-4.79,13.17-8.08,14.06l-13.06,3.47Z"/>
                  <path class="cls-82" d="M210.34,337.14l13.1-3.54c-6.51,1.76-18.57-10.66-18.57-10.66S205.31,334.25,210.34,337.14Z"/>
                  <path class="cls-83" d="M220.91,327.19l3.49-13.11c-1.73,6.52-18.52,10.75-18.52,10.75S215.9,330.11,220.91,327.19Z"/>
                  <circle class="cls-84" cx="207.01" cy="323.01" r="3.87" transform="translate(-66.34 53.81) rotate(-12.78)"/>
                  <path class="cls-85" d="M210.75,324a4,4,0,0,1-.84,1.27,3.87,3.87,0,0,1-6.48-3.75,3.87,3.87,0,0,0,6.33,4.2A4,4,0,0,0,210.75,324Z"/>
                </g>
                <path class="cls-76" d="M208.25,323.31a1.75,1.75,0,1,0-2.48-2.47,1.75,1.75,0,0,0,2.48,2.47Z"/>
              </g>
            </g>
            <g>
              <path class="cls-53" d="M166,343.32s7.44-4.7,10.46-8.94c0,0,16.24,3.75,16.27,12.47,0,7.77-5.87,3.92-5.87,3.92s3.2,7-3.77,5.82c0,0,1.74,7.18-5.11,6,0,0-2,5.44-7.1,1.67a16.07,16.07,0,0,1-11.38-1.67"/>
              <path class="cls-52" d="M170.82,363.76a9,9,0,0,1-3.14-1.7,6.36,6.36,0,0,1-1.3-1.24,5.11,5.11,0,0,1-.8-1.62l.06,0a12.5,12.5,0,0,1,1.31,1.17c.4.41.74.87,1.14,1.29a10.84,10.84,0,0,0,1.29,1.14,7.87,7.87,0,0,0,1.46.93Z"/>
              <g>
                <path class="cls-51" d="M186.81,350.77a19.47,19.47,0,0,0-6.9-4.77"/>
                <path class="cls-52" d="M186.78,350.79a23.26,23.26,0,0,0-3.33-2.54c-.6-.36-1.23-.66-1.81-1s-1.17-.73-1.75-1.19l0-.07a6.23,6.23,0,0,1,2.08.6,9,9,0,0,1,1.79,1.19,17.51,17.51,0,0,1,3,3Z"/>
              </g>
              <g>
                <path class="cls-51" d="M183,356.59a26,26,0,0,0-5.35-4.94"/>
                <path class="cls-52" d="M183,356.62a28.08,28.08,0,0,0-2.68-2.45c-.47-.38-1-.71-1.42-1.12a10.28,10.28,0,0,1-1.24-1.37l.05-.06a6.17,6.17,0,0,1,1.66.84,9,9,0,0,1,1.36,1.26,19.86,19.86,0,0,1,2.33,2.85Z"/>
              </g>
              <g>
                <path class="cls-51" d="M177.93,362.6a21.8,21.8,0,0,0-4.42-4.59"/>
                <path class="cls-52" d="M177.9,362.62c-.71-.8-1.46-1.56-2.23-2.28-.39-.35-.82-.65-1.18-1a9.08,9.08,0,0,1-1-1.26l0-.06a4.38,4.38,0,0,1,1.47.76,7,7,0,0,1,1.11,1.19,18,18,0,0,1,1.85,2.65Z"/>
              </g>
            </g>
            <path class="cls-57" d="M153.37,341s-6.58-6.69-9.37-8.1l1.91-2.06s7.55,5.79,10.29,10.4A22.82,22.82,0,0,1,153.37,341Z"/>
            <g>
              <g class="cls-86">
                <path class="cls-10" d="M215.52,489.42h29.86a2.12,2.12,0,0,0,2.15-2.39l-.45-4.2a2.75,2.75,0,0,0-2.67-2.39H215.52a2.41,2.41,0,0,0-2.4,2.41V487A2.41,2.41,0,0,0,215.52,489.42Z"/>
              </g>
              <g class="cls-86">
                <polygon class="cls-87" points="256.93 502.89 256.93 502.89 256.93 493.91 218.41 493.91 218.41 502.89 256.93 502.89"/>
              </g>
              <g class="cls-86">
                <rect class="cls-10" x="296.36" y="478.04" width="33.7" height="8.98" rx="2.41"/>
              </g>
              <g class="cls-86">
                <rect class="cls-87" x="343.99" y="481.88" width="59.2" height="8.98" rx="2.41"/>
              </g>
              <rect class="cls-88" x="291.92" y="448.11" width="22.89" height="22.89"/>
              <rect class="cls-89" x="338.7" y="448.11" width="22.89" height="22.89"/>
              <polygon class="cls-90" points="288.38 447.98 265.49 447.98 242.6 447.98 242.6 470.87 265.49 470.87 288.38 470.87 288.38 447.98"/>
              <polygon class="cls-91" points="275.48 447.98 252.59 447.98 234.52 447.98 234.52 470.87 252.59 470.87 275.48 470.87 275.48 447.98"/>
              <rect class="cls-92" x="220.98" y="463.92" width="22.89" height="22.89"/>
              <rect class="cls-93" x="282.08" y="406.8" width="22.89" height="22.89"/>
              <rect class="cls-88" x="260.78" y="403.52" width="22.89" height="22.89"/>
              <rect class="cls-94" x="333.89" y="403.09" width="22.89" height="22.89"/>
              <rect class="cls-90" x="342.93" y="403.09" width="22.89" height="22.89"/>
              <rect class="cls-92" x="341" y="380.2" width="22.89" height="22.89"/>
              <rect class="cls-95" x="332.44" y="380.2" width="15.67" height="22.89"/>
              <g class="cls-96">
                <rect class="cls-97" x="234.28" y="447.98" width="54.1" height="5.1"/>
              </g>
              <rect class="cls-98" x="233.97" y="476.62" width="22.89" height="22.89"/>
              <rect class="cls-89" x="226.66" y="476.62" width="22.89" height="22.89"/>
              <polygon class="cls-99" points="314.81 425.37 291.92 425.37 269.03 425.37 269.03 448.25 291.92 448.25 314.81 448.25 314.81 425.37"/>
              <polygon class="cls-100" points="269.13 425.37 246.24 425.37 243.1 425.37 243.1 448.25 246.24 448.25 269.13 448.25 269.13 425.37"/>
              <rect class="cls-95" x="238.36" y="425.37" width="22.63" height="22.89"/>
              <g class="cls-96">
                <rect class="cls-97" x="291.95" y="425.33" width="22.89" height="5.1"/>
              </g>
              <g class="cls-96">
                <polygon class="cls-97" points="338.87 448.19 338.87 453.28 361.75 457.88 361.75 448.19 338.87 448.19"/>
              </g>
              <polygon class="cls-101" points="377.89 425.37 355 425.37 336.92 425.37 336.92 448.25 355 448.25 377.89 448.25 377.89 425.37"/>
              <polygon class="cls-102" points="360.42 425.37 351.96 425.37 329.08 425.37 329.08 448.25 351.96 448.25 360.42 448.25 360.42 425.37"/>
              <polygon class="cls-102" points="395.06 465.54 372.17 465.54 349.28 465.54 349.28 488.43 372.17 488.43 395.06 488.43 395.06 465.54"/>
              <polygon class="cls-101" points="403.2 488.43 403.2 465.54 390.32 465.54 367.43 465.54 367.43 488.43 390.32 488.43 403.2 488.43"/>
              <rect class="cls-103" x="307.59" y="461.31" width="22.89" height="22.89"/>
            </g>
            <g>
              <g>
                <g>
                  <path class="cls-104" d="M326,458.67a2.2,2.2,0,0,0,4.28,0c-.23-1.93,1-6-2.14-5.85C325,452.64,326.21,456.91,326,458.67Z"/>
                  <path class="cls-105" d="M328.94,459.19c-.19-1.85,1-6.29-2.38-5.83,1.08-1.07,3.76-.43,3.7,1.15-.25,1.66,1,5.82-1.9,5.84A1.53,1.53,0,0,0,328.94,459.19Z"/>
                </g>
                <path class="cls-104" d="M332.88,457.67c2.58-1.07-2.06-2.2-2.73-2.53a.72.72,0,0,0-.5,1.35C329.76,456.52,332.84,457.75,332.88,457.67Z"/>
                <path class="cls-104" d="M332.88,460.17c2.58-1.06-2.06-2.2-2.73-2.53a.72.72,0,0,0-.5,1.36C329.76,459,332.84,460.25,332.88,460.17Z"/>
              </g>
              <path class="cls-106" d="M366.81,474.8s-28.26-9.89-33.66-11.35c-18.74,8.78-18.64,5.88-14.24,30.85,7.57,4,25,12.62,25,12.62Z"/>
              <path class="cls-107" d="M438.05,496l-21.67-5.7C428.53,471.06,445.84,482.69,438.05,496Z"/>
              <path class="cls-107" d="M377.9,502.63l-21.45-5.57C368.47,478,385.9,489.2,377.9,502.63Z"/>
              <path class="cls-108" d="M451.34,443.77c2,2.59-1.08,47.62-3.78,51.1-1.37.21-3.87.51-7.31.9-1-21.06-19.7-18.93-21.07,2.26-11.24,1.19-24.83,2.66-39.22,4.35-.72-20.43-21.68-18.09-21.25,2.59-4.94.63-9.89,1.28-14.79,1.95-.71-7.48-2.34-19.59-1.07-21.72C367.75,472,367,482,365,449.24,386.64,446.51,451.34,443.77,451.34,443.77Z"/>
              <g>
                <path class="cls-106" d="M364.83,474.07c1-2.2,1-8.56.75-14.43l22.26,41.83-5.35.62-3.3-4.75c-1.05-4.46-2.95-7.18-5.81-8.36l-9.56-13.75A3.6,3.6,0,0,0,364.83,474.07Z"/>
                <path class="cls-106" d="M414.71,498.5l-6.78.74L388.3,447.19c3.32-.24,6.77-.46,10.27-.68Z"/>
              </g>
              <path class="cls-3" d="M447,473.61s-48.74,2.18-76.58,5.31c-.06-1-.11-.7-.13-1.3,24.88-2.8,76.87-5.34,76.87-5.34Z"/>
              <g>
                <path class="cls-109" d="M417.77,495c-.9,7.52,5.1,10.33,11.56,10.13,4.33-.33,5.49-3.92,5.77-9.54s-.64-8.22-4.76-9.6C422.88,483.68,417.81,487.35,417.77,495Z"/>
                <path class="cls-110" d="M422.64,495.06c-.91,12.85,13.42,13.26,14.17.84C437.37,483.67,423.05,482.26,422.64,495.06Z"/>
                <path class="cls-111" d="M426.42,495.33c-.52,6.75,7.41,7,7.68.4S426.58,488.57,426.42,495.33Z"/>
                <path class="cls-112" d="M428.3,495.55c-.23,3.75,4.31,4,4.45.23S428.45,491.8,428.3,495.55Z"/>
                <path class="cls-109" d="M430.05,491.56c0,.8.91.85.94.05S430.09,490.77,430.05,491.56Z"/>
                <path class="cls-109" d="M430.05,499.68c-.05.8.91.85.94.05S430.09,498.89,430.05,499.68Z"/>
                <path class="cls-109" d="M426.86,496.13c-.05.79.91.84.93,0S426.89,495.33,426.86,496.13Z"/>
                <path class="cls-109" d="M433.07,495.62c-.05.8.91.85.94.05S433.1,494.83,433.07,495.62Z"/>
                <path class="cls-109" d="M432.17,498.36c-.05.8.91.84.94.05S432.2,497.57,432.17,498.36Z"/>
                <path class="cls-109" d="M432.31,492.88c-.05.8.9.85.94.06S432.34,492.09,432.31,492.88Z"/>
                <path class="cls-109" d="M427.71,493c0,.79.91.84.94,0S427.74,492.18,427.71,493Z"/>
                <path class="cls-109" d="M427.76,498.59c-.05.79.91.84.94.05S427.79,497.8,427.76,498.59Z"/>
              </g>
              <g>
                <path class="cls-109" d="M357.44,501.51c-.9,7.53,5.1,10.34,11.56,10.13,4.32-.33,5.49-3.91,5.77-9.54s-.64-8.21-4.76-9.6C362.56,490.21,357.48,493.87,357.44,501.51Z"/>
                <path class="cls-110" d="M362.31,501.58c-.91,12.86,13.41,13.27,14.17.85C377,490.19,362.72,488.79,362.31,501.58Z"/>
                <path class="cls-111" d="M366.09,501.85c-.52,6.75,7.41,7,7.68.41S366.25,495.1,366.09,501.85Z"/>
                <path class="cls-112" d="M368,502.08c-.23,3.75,4.3,4,4.45.23S368.12,498.32,368,502.08Z"/>
                <path class="cls-109" d="M369.72,498.09c0,.79.91.84.94.05S369.76,497.29,369.72,498.09Z"/>
                <path class="cls-109" d="M369.72,506.21c0,.79.91.84.94.05S369.76,505.41,369.72,506.21Z"/>
                <path class="cls-109" d="M366.53,502.65c-.06.8.91.84.93.05S366.55,501.86,366.53,502.65Z"/>
                <path class="cls-109" d="M372.74,502.15c-.05.79.91.84.94.05S372.77,501.36,372.74,502.15Z"/>
                <path class="cls-109" d="M371.84,504.89c0,.79.91.84.94.05S371.87,504.09,371.84,504.89Z"/>
                <path class="cls-109" d="M372,499.41c-.05.79.91.85.94,0S372,498.62,372,499.41Z"/>
                <path class="cls-109" d="M367.38,499.5c-.05.79.91.85.94.05S367.41,498.71,367.38,499.5Z"/>
                <path class="cls-109" d="M367.43,505.12c-.05.79.9.84.94,0S367.46,504.32,367.43,505.12Z"/>
              </g>
              <path class="cls-106" d="M442.51,495.51l-4.46.5c2.55-12.43-15.09-20.54-16.13,1.74-2.16.27-5.09.59-5.09.59C415,476.05,442.48,468.73,442.51,495.51Z"/>
              <path class="cls-106" d="M382.36,502.13l-4.46.5c2.51-12.83-15.3-20.19-16.4,2-2.17.27-5.09.59-5.09.59C355.11,482.36,382.35,475.53,382.36,502.13Z"/>
              <path class="cls-110" d="M443,495.6c-.21-7.68-.24-4.91,6.88-6.38,2,.79.77,6-1.35,5.9C444.77,495.71,443.29,496.41,443,495.6Z"/>
              <path class="cls-108" d="M339.78,485.38s-.72,5.48,1.62,18.25c-6.48-3.46-20.69-10.43-20.69-10.43s-2.92-17.13-2-18.25C325,478.24,339.78,485.38,339.78,485.38Z"/>
              <path class="cls-106" d="M333.21,486.79c-1.58-.77-6.32-3.18-9.65-4.84,0-.68-.13-1.12,0-1.23,2.91,1.51,9.72,4.82,9.72,4.82A10.4,10.4,0,0,0,333.21,486.79Z"/>
              <path class="cls-106" d="M333.21,489.32c-1.58-.77-6.32-3.18-9.65-4.84,0-.68-.13-1.11,0-1.23,2.91,1.52,9.72,4.82,9.72,4.82A10.4,10.4,0,0,0,333.21,489.32Z"/>
              <path class="cls-106" d="M333.21,491.85c-1.58-.76-6.32-3.17-9.65-4.84,0-.68-.13-1.11,0-1.23,2.91,1.52,9.72,4.82,9.72,4.82A10.4,10.4,0,0,0,333.21,491.85Z"/>
              <path class="cls-106" d="M333.21,494.39c-1.58-.77-6.32-3.18-9.65-4.84,0-.68-.13-1.12,0-1.24,2.91,1.52,9.72,4.82,9.72,4.82A10.68,10.68,0,0,0,333.21,494.39Z"/>
              <path class="cls-110" d="M355.28,500.35c-4.42.55-8.74,1.37-12.34,1-3.94-1.1-26.07-10.27-25.1-13.46-2.62-.08-1.29,5.32-.6,6.11,1.32,1.64,22,12.46,26.6,13.19,1.42.23,9.57-.87,10.94-1C355.55,506.1,356.36,501.08,355.28,500.35Z"/>
              <path class="cls-109" d="M355.28,500.35c1.08.73.27,5.75-.5,5.83-1.45.13-9.56,1.28-11.06,1l-.3-5.79C346.93,501.64,351.06,500.87,355.28,500.35Z"/>
              <g>
                <path class="cls-110" d="M450.59,474.23c-.44,5.19-.82,10.26-1.28,14-1.15.21-3,.3-3.22,0-.31-.53.34-7.78.53-9.75C446.75,477,449.58,475,450.59,474.23Z"/>
                <path class="cls-113" d="M450.51,475.32c-.37,4.5-.72,8.68-1.13,12-1,.2-2.31.42-2.48.13-.27-.45.23-6.57.45-8.21C447.54,477.87,449.83,475.85,450.51,475.32Z"/>
                <path class="cls-114" d="M449.91,482.28c-.17,1.82-.34,3.51-.53,5-3.81,1.06-2.34-.76-2.32-4.61A13.93,13.93,0,0,0,449.91,482.28Z"/>
              </g>
              <path class="cls-115" d="M434.94,480.91c2,1.06,3.06,2.65,2.7,3.1-.54.69-.76-.86-3.87-1.82s-6.85-.92-9.46,2.37-3,1.28-1.81-.73A9.44,9.44,0,0,1,434.94,480.91Z"/>
              <path class="cls-115" d="M374.3,487.94c2,1.06,3.06,2.64,2.7,3.1-.54.69-.77-.87-3.88-1.82s-6.85-.92-9.46,2.37-3,1.28-1.8-.73A9.42,9.42,0,0,1,374.3,487.94Z"/>
              <g>
                <path class="cls-108" d="M334.25,493.44c1.2,5.78,8.28,4.18,6.95-1.57S332.91,487.7,334.25,493.44Z"/>
                <path class="cls-116" d="M333.61,493.52c1.2,5.77,8.29,4.17,6.95-1.58S332.28,487.77,333.61,493.52Z"/>
                <path class="cls-117" d="M335.58,491.37c0-3.5-3.53,1.4.42,4.8A6.17,6.17,0,0,1,335.58,491.37Z"/>
                <path class="cls-110" d="M339,492.45c-.48-2.19-2.14-3.73-3.86-3.71,5.11-3.2,8.15,8.27,2.37,8.49A4.59,4.59,0,0,0,339,492.45Z"/>
              </g>
              <g>
                <path class="cls-108" d="M316.55,484.86c1.15,5.51,7.91,4,6.63-1.5S315.28,479.37,316.55,484.86Z"/>
                <path class="cls-116" d="M315.94,484.92c1.15,5.51,7.91,4,6.64-1.5S314.67,479.44,315.94,484.92Z"/>
                <path class="cls-117" d="M317.82,482.87c0-3.34-3.37,1.34.4,4.59A6,6,0,0,1,317.82,482.87Z"/>
                <path class="cls-110" d="M321.05,483.91c-.46-2.1-2-3.56-3.69-3.54,4.88-3.06,7.78,7.89,2.27,8.1A4.39,4.39,0,0,0,321.05,483.91Z"/>
              </g>
              <g>
                <path class="cls-118" d="M330.8,443.56s.18,16.24.36,20.62c-.54,2,25.56,13.35,31.33,12.08,3.6-2,3.78-4.34,3.78-8,0-4.57-.54-19-.54-19Z"/>
                <path class="cls-119" d="M331.1,462.21c7.9,3.93,21.63,9.09,25.62,8.21,6.61-3.45,2.84-14.25,3.41-22.09l5.6.91s.54,14.42.54,19c0,3.69-.18,6-3.78,8C355.86,476.76,328.63,467,331.1,462.21Z"/>
                <path class="cls-110" d="M358.88,452.39c-4.36-.12-21.89-5.68-28.06-7.69,0-.91,0-1.14,0-1.14l34.93,5.68s.54,14.42.54,19c0,3.69-.2,6.57-3.78,8-6.19.83-33.16-9.64-31.37-13.23,2.16,2.89,25.22,12.73,30.36,11.84,6.18-.95,2.63-16.45,3.15-22.74A43,43,0,0,1,358.88,452.39Z"/>
                <path class="cls-120" d="M359.61,456.54c-2.27-8.27-1.66,17.94-.54,17.16C360.33,475,360,462.93,359.61,456.54Z"/>
              </g>
              <path class="cls-111" d="M343.85,502.23c-.92-2-.67,4.55-.22,4.48C344.14,507,344,503.8,343.85,502.23Z"/>
              <path class="cls-106" d="M451.84,445.69c-12.26.54-72.23,4.28-92.41,5.2-4.51,0-23-5.51-28.63-7.33.36-2.56,1.26-7.12,8.47-9.13C338.75,433.5,444.25,415.64,451.84,445.69Z"/>
              <path class="cls-106" d="M425.06,429.87c15.89,2,22.38,7.73,25,11.71-29.87-.4-86.7,11.52-118.13-1.91C340.15,429.63,381.09,426.68,425.06,429.87Z"/>
              <path class="cls-108" d="M447.38,438.43a15.61,15.61,0,0,1,3.91,5.42c-13.78.66-72.06,4.36-91.86,5.26-4.4,0-22.13-5.76-28.18-7.73a9,9,0,0,1,2.67-4.23c6.72,0,22.28,7,26.23,6.3C378.2,442.63,428.24,439.48,447.38,438.43Z"/>
              <g>
                <path class="cls-110" d="M424,433.78c-7.18.14-16.15.14-19.28.29-3.56-1.3-9.47-3.82-9.47-3.82C399.16,425.21,422.55,426,424,433.78Z"/>
                <path class="cls-108" d="M396.69,429c8.09,4.54,14.77,3.18,26.65,3.12a5,5,0,0,1,.83,1.71c-14.43.09-19,1.83-29.15-3.43A3.29,3.29,0,0,1,396.69,429Z"/>
                <path class="cls-111" d="M412.77,428.12c4.33.41,6.9,2.05,4.6,2.05s-13.52-1.92-17.3-1.51C401.15,427.71,407,427.57,412.77,428.12Z"/>
              </g>
              <g>
                <path class="cls-121" d="M427.12,447.93c12.41-.61,21.74-1,21.74-1,.43,3-.23,16.16-.81,22.3-4.07.18-12.17.62-21.79,1.2C426.81,463.74,427.37,452.26,427.12,447.93Z"/>
                <path class="cls-110" d="M425.46,471.23c10.3-.62,19-1.09,23.32-1.28.61-6.58,1.32-20.63.87-23.86,0,0-10,.44-23.26,1.09C426.66,451.82,426.05,464.09,425.46,471.23Zm1.39-1.44c.53-6.32,1.06-17.19.82-21.29,11.76-.58,20.6-1,20.6-1,.41,2.86-.22,15.31-.76,21.13C443.64,468.83,436,469.24,426.85,469.79Z"/>
              </g>
              <g>
                <path class="cls-121" d="M398.18,472.27c8.26-.58,16.9-1.14,24.71-1.61.56-6.9,1.13-18.59.84-22.67-7.7.39-16.36.83-24.64,1.3C399.33,453.8,398.74,465.66,398.18,472.27Z"/>
                <path class="cls-110" d="M397.38,473c8.78-.62,18-1.21,26.25-1.71.6-7.33,1.2-19.74.89-24.07-8.18.41-17.37.88-26.17,1.38C398.61,453.41,398,466,397.38,473Zm1.38-1.31c.54-6.3,1.11-17.62.87-21.92,7.91-.45,16.17-.88,23.51-1.24.28,3.89-.26,15-.79,21.62C414.9,470.63,406.65,471.16,398.76,471.71Z"/>
              </g>
              <g>
                <path class="cls-121" d="M369.32,451.33c5.93-.56,15.71-1.2,26.36-1.81.28,4.22-.31,16.14-.88,22.89-9.95.72-19.16,1.46-25.43,2.14C369.43,468.49,369.42,453.88,369.32,451.33Z"/>
                <path class="cls-110" d="M368.48,475.4c6.69-.73,16.53-1.53,27.15-2.29.61-7.21,1.24-19.93.94-24.43-11.37.65-21.81,1.33-28.14,1.93C368.54,453.33,368.55,468.92,368.48,475.4Zm1.38-23.63c5.69-.54,15.07-1.15,25.28-1.74.27,4.05-.29,15.48-.84,22-9.54.68-18.38,1.4-24.4,2.05C370,468.22,370,454.21,369.86,451.77Z"/>
              </g>
              <path class="cls-122" d="M341.76,483.74c.75-1.51-23-12.65-23.61-11.13C317.61,473.88,341,485.2,341.76,483.74Z"/>
              <path class="cls-122" d="M358.88,442.31c.55-.91-21.08-7.49-21.44-6.39C337,437.24,358.55,442.87,358.88,442.31Z"/>
              <g>
                <path class="cls-105" d="M370.7,467.29c3-1.23-2.36-2.52-3.13-2.9a.83.83,0,0,0-.57,1.55C367.13,466,370.65,467.37,370.7,467.29Z"/>
                <path class="cls-105" d="M370.7,470.16a.84.84,0,0,0,.29-1.61c-.77,0-4-2.25-4.47-.8C365.87,469,370,469.83,370.7,470.16Z"/>
                <g>
                  <path class="cls-104" d="M368.86,470.41a2.52,2.52,0,0,0,4.91,0c-.27-2.19,1.14-6.86-2.46-6.7C367.7,463.5,369.13,468.39,368.86,470.41Z"/>
                  <path class="cls-105" d="M372.26,471c-.22-2.12,1.12-7.21-2.73-6.68,1.24-1.23,4.3-.49,4.24,1.32-.29,1.89,1.12,6.65-2.18,6.68A1.75,1.75,0,0,0,372.26,471Z"/>
                </g>
              </g>
            </g>
            <polygon class="cls-123" points="207.07 403.08 207.07 411.62 225.47 409.56 226.1 400.92 207.07 403.08"/>
          </g>
        </g>
      </g>
    </g>
  </g>
</svg>
