<svg id="Layer_1" data-name="Layer 1" xmlns="http://www.w3.org/2000/svg" xmlns:xlink="http://www.w3.org/1999/xlink" width="619.88" height="562.43" viewBox="0 0 619.88 562.43">
  <defs>
    <style>
      .cls-1, .cls-58 {
        fill: none;
      }

      .cls-2, .cls-50 {
        fill: #fff;
      }

      .cls-3 {
        clip-path: url(#clip-path);
      }

      .cls-4 {
        clip-path: url(#clip-path-2);
      }

      .cls-5 {
        fill: #f8e2b9;
      }

      .cls-6 {
        fill: #c3b6a2;
      }

      .cls-7 {
        fill: #88d1d1;
      }

      .cls-8 {
        fill: #a19687;
      }

      .cls-9 {
        fill: #cca96a;
      }

      .cls-10, .cls-17 {
        opacity: 0.2;
      }

      .cls-11 {
        fill: #bf79b2;
        stroke: #6f287a;
      }

      .cls-11, .cls-12, .cls-13, .cls-30 {
        stroke-linejoin: round;
      }

      .cls-11, .cls-12, .cls-13, .cls-30, .cls-43 {
        stroke-width: 0.75px;
      }

      .cls-12 {
        fill: #686c71;
        stroke: #211f1c;
      }

      .cls-13, .cls-14 {
        fill: #301616;
      }

      .cls-13 {
        stroke: #1c0e0a;
      }

      .cls-15 {
        fill: #587ab1;
      }

      .cls-15, .cls-16, .cls-44, .cls-45, .cls-57 {
        stroke: #323232;
      }

      .cls-15, .cls-16, .cls-17, .cls-31, .cls-33, .cls-43, .cls-44, .cls-45, .cls-47, .cls-49, .cls-50, .cls-54, .cls-57, .cls-58 {
        stroke-miterlimit: 10;
      }

      .cls-16 {
        fill: #7499c3;
      }

      .cls-17 {
        fill: #020202;
        stroke: #201d1e;
      }

      .cls-18 {
        fill: #c27945;
      }

      .cls-19 {
        fill: #89513a;
      }

      .cls-20 {
        fill: #d48148;
      }

      .cls-21 {
        opacity: 0.12;
      }

      .cls-22 {
        fill: #e89b49;
      }

      .cls-23 {
        fill: #f5bf71;
      }

      .cls-24 {
        fill: #edf3f3;
      }

      .cls-25 {
        fill: #fff2d9;
      }

      .cls-26 {
        fill: #f1b350;
        opacity: 0.5;
      }

      .cls-27 {
        fill: #dfdbed;
      }

      .cls-28 {
        fill: #d4eadc;
      }

      .cls-29 {
        fill: #e9e5e3;
      }

      .cls-30 {
        fill: #df71e2;
        stroke: #710e7c;
      }

      .cls-31, .cls-43, .cls-56 {
        fill: #fad2c6;
      }

      .cls-31, .cls-43 {
        stroke: #453423;
      }

      .cls-31, .cls-33, .cls-45, .cls-47, .cls-49, .cls-50, .cls-54 {
        stroke-width: 0.5px;
      }

      .cls-32 {
        fill: #453423;
      }

      .cls-33 {
        fill: #61435b;
        stroke: #1c101a;
      }

      .cls-34 {
        fill: #f6e0d9;
      }

      .cls-35 {
        fill: #009196;
      }

      .cls-36 {
        fill: #cacac9;
      }

      .cls-37 {
        fill: #dfdfde;
      }

      .cls-38 {
        fill: #d3d4d4;
      }

      .cls-39 {
        fill: #efeded;
      }

      .cls-40 {
        fill: #cbe9e8;
      }

      .cls-41 {
        opacity: 0.27;
      }

      .cls-42 {
        fill: #c49ac6;
      }

      .cls-44, .cls-45, .cls-47, .cls-52 {
        fill: #f8d0c5;
      }

      .cls-46, .cls-54 {
        fill: #da9c8d;
      }

      .cls-47, .cls-54 {
        stroke: #463424;
      }

      .cls-48 {
        fill: #342517;
      }

      .cls-49 {
        fill: #62445b;
        stroke: #1d111b;
      }

      .cls-50 {
        stroke: #3d2e18;
      }

      .cls-51 {
        fill: #2d2b21;
      }

      .cls-53 {
        fill: #49442e;
      }

      .cls-55 {
        fill: #323232;
      }

      .cls-57 {
        fill: #db9d8e;
        stroke-width: 0.25px;
      }

      .cls-58 {
        stroke: #b6715d;
      }

      .cls-59 {
        fill: #b6715d;
      }

      .cls-60 {
        clip-path: url(#clip-path-3);
      }

      .cls-61 {
        clip-path: url(#clip-path-4);
      }
    </style>
    <clipPath id="clip-path">
      <rect class="cls-1" x="40.05" y="56.3" width="539.79" height="449.82" rx="116.93"/>
    </clipPath>
    <clipPath id="clip-path-2">
      <polygon class="cls-1" points="596.32 601.56 -131.82 601.56 103.55 -120.33 589.23 -89.47 596.32 601.56"/>
    </clipPath>
    <clipPath id="clip-path-3">
      <rect class="cls-1" x="1260.05" y="56.13" width="539.79" height="449.82" rx="116.93"/>
    </clipPath>
    <clipPath id="clip-path-4">
      <rect class="cls-1" x="802.35" y="20.09" width="1433.2" height="806.18"/>
    </clipPath>
  </defs>
  <g>
    <rect class="cls-2" x="30.65" y="47.2" width="558.58" height="468.03" rx="124.29"/>
    <g class="cls-3">
      <g class="cls-4">
        <g>
          <path class="cls-5" d="M-208.55,399c-1.13,22.53-2.3,45.21,1.18,67.67a24.1,24.1,0,0,1,1.46,7.12H765.14c-.39-7.1-.67-14.22-.89-21.34-.4-12.6-.75-25.2-1.55-37.79l-109-51.74H-121.57l-86.5,25.26C-208.2,391.74-208.37,395.35-208.55,399Z"/>
          <path class="cls-6" d="M828.13,653.35c-.52-44.26-1-88.53-2.12-132.75-1-38.16-2.3-76.26-3.09-114.43l-35.4-45.32-1061.47-.09L-301.66,490l14.82,227.59h1116Q828.48,685.48,828.13,653.35Z"/>
          <polygon class="cls-7" points="-189.72 -12.18 -190.22 373.83 684.35 372.58 686.36 -11.94 -189.72 -12.18"/>
          <path class="cls-8" d="M-245.81,435.21H743.5l-1.71-1.09-987.55-.3C-245.78,434.29-245.79,434.75-245.81,435.21Z"/>
          <path class="cls-8" d="M-245.07,481.7H744.24l-1.71-1.08-987.55-.3C-245,480.78-245,481.24-245.07,481.7Z"/>
          <path class="cls-8" d="M-245.07,540H744.24l-1.71-1.09-987.55-.3C-245,539.08-245,539.55-245.07,540Z"/>
          <path class="cls-8" d="M-244.54,394.48H685.58l-1.73-1-928.36-.4Z"/>
          <path class="cls-8" d="M-95.71,636.79,33,386.52l-1.48-1.2-131,251.44Z"/>
          <path class="cls-8" d="M73.14,644.29,149.22,370.7l-1.43-.49L70.39,644.33Z"/>
          <path class="cls-8" d="M243.05,777.67l5.47-419.2-2,1.2-6.85,418.26Z"/>
          <path class="cls-8" d="M441.71,776.72,361.13,360.19l-1.6,2.59,78.52,413.94Z"/>
          <path class="cls-8" d="M661.05,769.4,463.47,370.88l-1,3.9L655.6,769.45Z"/>
          <path class="cls-8" d="M804.58,664.88,578.42,360.35l-.61,4.19,226.88,309.8C804.65,671.19,804.62,668,804.58,664.88Z"/>
          <polygon class="cls-9" points="-194.66 374.13 681.74 372.66 681.75 357.97 -194.66 359.44 -194.66 374.13"/>
          <rect class="cls-1" x="-185.47" y="-6.59" width="853.86" height="480.29"/>
          <rect class="cls-1" x="-187.91" y="-4.01" width="853.86" height="480.29"/>
        </g>
      </g>
      <g>
        <g>
          <ellipse class="cls-10" cx="296.72" cy="457.9" rx="65.4" ry="20.06"/>
          <g>
            <g>
              <g>
                <path class="cls-11" d="M330,392.72c.2,1.44.34,3.09.42,5,.13,3.2.15,6.34.07,9.38a162.38,162.38,0,0,1-5.85,39.66l-12.41,5.94-4.87-43.08-1.13-10,4.9-4.55,3.79-3.52S327.37,373.77,330,392.72Z"/>
                <path class="cls-11" d="M330.59,396.92c.2,1.44.34,3.09.42,5,.13,3.2-.92,6.15-1,9.19a96.33,96.33,0,0,1-10.87,2.55c-2.75.39-7.62,1.07-11.19.16l-1.13-10,4.9-4.55a35.11,35.11,0,0,1,8.14-2.14A40.59,40.59,0,0,1,330.59,396.92Z"/>
                <path class="cls-11" d="M309,420.14s13.34,3.4,20.68-4.74c0,0-1.79,21.56-4.51,24.1s-14,.52-14,.52Z"/>
                <path class="cls-11" d="M307.77,419.65a.3.3,0,0,0,.08.16c.5.47,3.61,2.93,13,1.12,10.37-2,10.53-6.29,10.53-6.29l0-2.09a.3.3,0,0,0-.48-.23c-2.44,1.58-13.52,8.19-23.09,4.25a.3.3,0,0,0-.43.27Z"/>
              </g>
              <g>
                <polygon class="cls-11" points="332.54 371.35 331.03 380.69 333.5 402.19 304.83 404.31 304.59 401.31 303.99 393.59 302.97 380.71 301.68 364.29 332.54 371.35"/>
                <path class="cls-11" d="M304.2,402.59c4.06.2,22.89.86,29.37-3.54.49-.33,1.21-.1,1.22.41l.26,7.27a.61.61,0,0,1-.44.58c-2.84,1.06-18.37,6.44-31.08,1.89a.58.58,0,0,1-.43-.57l.29-5.45A.72.72,0,0,1,304.2,402.59Z"/>
              </g>
            </g>
            <g>
              <path class="cls-12" d="M311.33,451.41a4.43,4.43,0,0,0-.28,3.89c.93,1.95,6.38,3.11,6.38,3.11s4.43,8.1,18.1,6.46c15.6-1.88,8.75-12.24,8.75-12.24Z"/>
              <path class="cls-13" d="M317.91,455.22s-.49,9.55,17.18,8.14c16.65-1.33,14.35-17.5-6.54-15.87S317.91,455.22,317.91,455.22Z"/>
              <path class="cls-13" d="M325.45,445.35a59.15,59.15,0,0,1,7.07,2.09s-7.64-.26-14.09,10l-6.24-2.83s-3-2-.25-6l-.79-5.48a30.26,30.26,0,0,0,6.65.8,29.83,29.83,0,0,0,8.24-1.11C325.84,443.63,325.65,444.49,325.45,445.35Z"/>
            </g>
          </g>
          <g>
            <path class="cls-11" d="M295.22,405.33q-1.1,2.71-2.11,5.37c-8.95,23.16-14.1,41.5-14.1,41.5l-9.75-2.41c-3.41-14.71-.6-34.29,1.16-43.81.66-3.54,1.18-5.69,1.18-5.69S305.46,379.69,295.22,405.33Z"/>
            <path class="cls-11" d="M293.72,408.51c-.73,1.81-2,4.32-2.67,6.09a29.25,29.25,0,0,1-5.29.12,39.39,39.39,0,0,1-11.6-2.36,21.19,21.19,0,0,1-4.11-2.08,56.5,56.5,0,0,0,.82-5.91S304,382.87,293.72,408.51Z"/>
            <path class="cls-11" d="M269.29,416.74s6.63,7.45,19.65,4c0,0-6.63,19-9.59,27.79l-7.14,3.85-4.07-15S267.56,423.91,269.29,416.74Z"/>
            <path class="cls-11" d="M267.73,419.06a.29.29,0,0,0,0,.18c.37.67,3.12,5.2,10.68,6.34s10.94-.74,11.52-1.09a.41.41,0,0,0,.12-.14l1.08-2.89a.28.28,0,0,0-.34-.36c-2.6.57-14.37,2.65-22.13-4.88a.3.3,0,0,0-.5.15Z"/>
          </g>
          <path class="cls-12" d="M275.06,460.05c-.23,4.06-3.22,9.23-17,8.54-6-.3-10-3.78-9.74-7.84s9.56-8.77,15.53-8.48S275.29,456,275.06,460.05Z"/>
          <path class="cls-12" d="M278.51,450.48c1.81,4.94,2.51,13.94-9.88,11.14-5.81-1.31-10.9-2.47-10.68-6.53s6.77-6.62,12.73-6.33S277.43,447.52,278.51,450.48Z"/>
          <path class="cls-13" d="M264.53,447.9a21.6,21.6,0,0,0-7.62,2.67,20.51,20.51,0,0,0-4.07,3.11l4.61,2.76s11.24,6.05,17.61,3.61,4.9-11.38,4.9-11.38c.69-2.13,1.37-4.27,2.06-6.4a15.71,15.71,0,0,1-7.77.24c-3.21-.76-5.42-2.52-6.32-1.76s.61,2.39-.21,4.39A5.57,5.57,0,0,1,264.53,447.9Z"/>
          <path class="cls-14" d="M276,459.94c-.69,4.36-11.43,9.1-22.1,5.83-5.94-1.82-6.67-4.4-4.51-8.31,2.83-5.13,8.36-6.37,13.22-5.3C268.69,453.49,276.68,455.59,276,459.94Z"/>
          <path class="cls-1" d="M269.84,455.92c-.08,1.57-2.89,2.7-6.28,2.52s-6.07-1.59-6-3.16,2.9-2.7,6.29-2.52S269.93,454.35,269.84,455.92Z"/>
          <path class="cls-15" d="M305.67,373.33l.79,15.62-6.56,5.72-1.15,3.64-2.48,7.84-.87.21c-8.24,2-25-3.9-25-3.9l1.19-22.71,1.37-10.88Z"/>
          <path class="cls-16" d="M270.86,398.07c4,1.76,15.82,6.37,25.82,4.36a1.16,1.16,0,0,1,1.37,1.39l-1.36,6a1.14,1.14,0,0,1-.86.87c-3.26.76-17.12,3.29-26.9-5.74a1.18,1.18,0,0,1-.36-1l.69-5A1.16,1.16,0,0,1,270.86,398.07Z"/>
        </g>
        <g>
          <polygon class="cls-17" points="175.94 476.78 135.45 535.76 468.77 533.53 432.35 476.78 175.94 476.78"/>
          <path class="cls-18" d="M465.24,543.91c4,0,7.17-3.74,7.17-8.36V397.23c0-4.62-3.21-8.36-7.17-8.36s-7.18,3.74-7.18,8.36V535.55C458.06,540.17,461.27,543.91,465.24,543.91Z"/>
          <path class="cls-19" d="M428.06,491.76c4,0,7.18-3.74,7.18-8.36V345.08c0-4.62-3.21-8.36-7.18-8.36s-7.17,3.74-7.17,8.36V483.4C420.89,488,424.1,491.76,428.06,491.76Z"/>
          <path class="cls-18" d="M138.77,543.91c-4,0-7.18-3.74-7.18-8.36V397.23c0-4.62,3.21-8.36,7.18-8.36s7.18,3.74,7.18,8.36V535.55C146,540.17,142.74,543.91,138.77,543.91Z"/>
          <path class="cls-19" d="M175.94,491.76c-4,0-7.18-3.74-7.18-8.36V345.08c0-4.62,3.21-8.36,7.18-8.36s7.18,3.74,7.18,8.36V483.4C183.12,488,179.91,491.76,175.94,491.76Z"/>
          <path class="cls-20" d="M121.6,373.74H485.83a0,0,0,0,1,0,0v65.18a.55.55,0,0,1-.55.55H122.15a.55.55,0,0,1-.55-.55V373.74A0,0,0,0,1,121.6,373.74Z"/>
          <g>
            <polygon class="cls-21" points="121.6 388.64 485.83 384.96 485.83 373.74 121.6 373.74 121.6 388.64"/>
            <path class="cls-22" d="M504.45,368.42H103V379.9a2.48,2.48,0,0,0,2.44,2.52H502a2.48,2.48,0,0,0,2.44-2.52Z"/>
            <path class="cls-23" d="M500.66,372.13H106.76a3.91,3.91,0,0,1-3.38-5.67l28.21-41.12a3.77,3.77,0,0,1,3.39-2.17H475a3.77,3.77,0,0,1,3.38,2.17L504,366.46A3.91,3.91,0,0,1,500.66,372.13Z"/>
          </g>
        </g>
        <g>
          <path class="cls-24" d="M371.68,352.29c-1.55.22-10.86,4.73,2.5,2.79s22.44-9.42,10-6.1Z"/>
          <path class="cls-24" d="M240.58,347c-14.81,4.25-8,9.39-4.24,8.07a72.37,72.37,0,0,1,6.95-2.08s-5.4-2.75,4.41-3.17,16.36-.5,12.77,2-3.43,3.65-1.33,3.71,8.53-2.56,8.53-2.56c3-3.18,3.51-7.64,2.58-6.84s-5,.34-7.61-.09c-10.12-1.65-13.23-.95-17.64,0"/>
          <path class="cls-24" d="M247.7,328.22c-3.27,1.27,0,5.21,0,5.21l4.61-1.1,3.61-1.51,7.89-1.89-4.12-3.15Z"/>
          <path class="cls-24" d="M258.48,322.38c-3.27,1.27,0,5.22,0,5.22l4.61-1.1L266.7,325l7.89-1.89-4.12-3.16Z"/>
          <path class="cls-24" d="M254.43,341.08s6.36.48,9.38-1.83-.64-5.27,5.43-5.37,3.9-1.55,3.9-1.55-3.9-5.7-3.9-2.08S254.43,341.08,254.43,341.08Z"/>
          <path class="cls-24" d="M268.63,332.7s6.36.48,9.38-1.82-.65-5.28,5.42-5.38,3.91-1.55,3.91-1.55-3.91-5.7-3.91-2.08S268.63,332.7,268.63,332.7Z"/>
          <path class="cls-25" d="M447.07,342.77s28.27-10.82,28.79,6.07c0,0-2,14.09-30.46,3.73C445.4,352.57,436.73,346.71,447.07,342.77Z"/>
          <path class="cls-26" d="M400,360s26.29-15.82,29.8.77c0,0,14.18,10.43-16,5.35C413.73,366.15,390.33,365.8,400,360Z"/>
          <path class="cls-27" d="M404.61,333.82s.37-12.37,15.51-5.57c0,0,12.77-3.67,10,6.25,0,0,16.23,1.55-.73,6.91C429.43,341.41,406.8,343.19,404.61,333.82Z"/>
          <path class="cls-28" d="M291.83,363.34c-.18-.6-10.3-10-8.61-11.31.93-.1,12.17-3.84,13.48-2.22,0,0,7.87,10.1,8.24,10.4s4,2.63,4,2.63Z"/>
          <path class="cls-28" d="M352.06,353.44c-.13-.05-.64-.32-1.42-.74h-.42a4.1,4.1,0,0,1-4-2.46l-.39-.23a17.54,17.54,0,0,1-5.35.77,4.48,4.48,0,0,1-2.1-.11l-.54-.16a4.72,4.72,0,0,1-4.41-4.14,4.2,4.2,0,0,1-.23-1.76h-.46l-.27,0c-.92,1.81-3.36,3.14-5.29,2.35l-.06,0a5.3,5.3,0,0,1-.4,1,4.59,4.59,0,0,1-6.23,1.64c-2.05-1.34-4.05-3.24-4.08-5.88v0c-6.27.71-12,1.51-13,1.56-3.77,1.31,18.86,10.7,19.28,11.31l38.29-.5S352.9,353.74,352.06,353.44Z"/>
          <path class="cls-29" d="M354.74,334.46s11.82-4.88,14.18-2.57l10.5,12.34-8.66,2.43S354.48,339.35,354.74,334.46Z"/>
        </g>
        <g>
          <g>
            <path class="cls-30" d="M277.87,273.51l-5.44,50.34c69.7,1.06,64.91-3.75,64.91-3.75-2.39-17.66,1-49.56,1-49.56,2.34-1.39,2-2.79,2-2.79l4.95-16.18-8.8-11c-24.22-6.73-18.51-7.76-43.58-2.46l-15.05,19.74Z"/>
            <path class="cls-11" d="M357.5,258.3a3.76,3.76,0,0,1-.33,2.66l-2.32-2.49Z"/>
          </g>
          <g>
            <path class="cls-31" d="M360.6,302.58c-3.77-20.24-10.87-24.09-15.33-27.89,0,0,4.3-12.56,12.38-14.83,9.85,11.29,13.4,9.47,15.66,35.67,0,0,4,10.63,2.51,21.05-12-6.48-9.62-8.72-9.62-8.72a7.12,7.12,0,0,0-1.63-2.35c-1-.91-4.64-6.47-4.64-6.47"/>
            <path class="cls-32" d="M352.4,273a9.1,9.1,0,0,0-.77,3.68,9.27,9.27,0,0,0,.25,1.83,16.11,16.11,0,0,0,.52,1.82l0,0a4.51,4.51,0,0,1-1-1.71,5.26,5.26,0,0,1-.17-2,8.34,8.34,0,0,1,1.13-3.69Z"/>
          </g>
          <g>
            <path class="cls-33" d="M305.82,285.61c.06.38.11.75.17,1.12h0c1.83,11.48,6.9,17.91,6.9,17.91a60.39,60.39,0,0,0,5.87-6.13c.86-1.07,1.55-2,2.09-2.83A14.54,14.54,0,0,0,322.8,292c.16-1.36.29-2.68.39-3.95s.17-2.34.22-3.45c.15-3.17.14-6,0-8.5-.06-1.26-.14-2.45-.25-3.55-.67-7.08-2.07-10.68-1.91-11.15.46-1.35-5.17-1.79-5.17-1.79a51.44,51.44,0,0,1-2,6.84c-.27.76-.56,1.53-.85,2.31-.85,2.24-1.79,4.51-2.7,6.63-.33.73-.65,1.46-.95,2.16-1.14,2.56-2.19,4.78-2.89,6.24C306.17,284.92,305.82,285.61,305.82,285.61Z"/>
            <path class="cls-34" d="M313.54,267.12a37.51,37.51,0,0,1,9.8,7.5c0-1.32-.14-2.7-.24-3.85a42.82,42.82,0,0,0-8.69-6.07C314.13,265.49,313.84,266.3,313.54,267.12Z"/>
            <path class="cls-34" d="M310.06,276.57c3.7,2.44,9.76,6.77,12.95,10.57.11-1.24.21-2.68.27-3.84a54.49,54.49,0,0,0-12.22-9.09C310.72,275,310.38,275.84,310.06,276.57Z"/>
            <path class="cls-34" d="M306.28,284.87c.05.4.09.88.15,1.27h0c3.59,2.64,9.11,7.06,12.19,11.78a34.73,34.73,0,0,0,2.09-2.94,81.19,81.19,0,0,0-13.58-12C306.56,284.23,306.28,284.87,306.28,284.87Z"/>
          </g>
          <g>
            <g>
              <path class="cls-35" d="M333,338.43c13.81-7.78,33.18-13.09,48.61-14.11a4.54,4.54,0,0,0,.12-.66l-24-19c-9.29-2.55-26.26,3.95-32.17,10.38Z"/>
              <path class="cls-36" d="M332.48,337a119.18,119.18,0,0,1,47.41-14.26,27.71,27.71,0,0,0,.77-2.88l-23.55-17c-9.28-2.55-26.26,3.95-32.17,10.38Z"/>
              <g>
                <path class="cls-37" d="M331.87,335c12.65-9.17,33.37-14.94,48.79-15.22l-23.55-17c-9.28-2.55-26.26,3.95-32.17,10.38Z"/>
                <path class="cls-38" d="M380.72,320h-.08c-16.47.3-36.9,6.66-48.6,15.15a.28.28,0,0,1-.21.07.21.21,0,0,1-.17-.11l-6.93-21.82a.14.14,0,0,1,0-.16c6.07-6.61,23.22-13,32.44-10.45l.06,0,23.55,17a.14.14,0,0,1,.05.2A.26.26,0,0,1,380.72,320Zm-27.57,4.6a101,101,0,0,1,26.92-4.94L357,303c-9-2.46-25.78,3.75-31.81,10.23L332,334.72A78,78,0,0,1,353.15,324.59Z"/>
              </g>
              <g>
                <path class="cls-39" d="M331.87,335c11.8-9.92,32.27-16.94,48.5-17.09l-23.26-15.1c-9.28-2.55-26.26,3.95-32.17,10.38Z"/>
                <path class="cls-38" d="M331.94,335.21h-.11a.21.21,0,0,1-.17-.11l-6.93-21.82a.14.14,0,0,1,0-.16c6.07-6.61,23.22-13,32.44-10.45l.06,0,23.25,15.1a.16.16,0,0,1,.05.21.26.26,0,0,1-.22.12c-16.45.16-36.76,7.31-48.3,17Zm-6.76-22L332,334.72c11.52-9.55,31.42-16.61,47.73-16.94L357,303C348,300.56,331.22,306.77,325.18,313.25Z"/>
              </g>
              <g>
                <path class="cls-2" d="M331.87,335c11.7-12.23,31.2-19.21,47.84-19.61l-22.55-13c-9.28-2.55-26.31,4.4-32.22,10.83Z"/>
                <path class="cls-38" d="M331.94,335.21h-.11c-.08,0-.15,0-.17-.11l-6.93-21.82a.14.14,0,0,1,0-.16c6.22-6.76,23.42-13.39,32.49-10.9l22.6,13a.16.16,0,0,1,.06.21.24.24,0,0,1-.22.13c-18,.44-36.73,8.12-47.65,19.54A.15.15,0,0,1,331.94,335.21Zm-6.76-22,6.8,21.41c10.9-11.22,29.26-18.78,47-19.39l-22-12.7C348.15,300.15,331.36,306.61,325.18,313.25Z"/>
              </g>
              <path class="cls-35" d="M333.13,338.47c-16-.14-36.05,4.6-50.63,11.2a3.57,3.57,0,0,1-.4-.52l13.68-28.4c7.38-6.76,25.81-9.3,34-6.51Z"/>
              <path class="cls-36" d="M332.92,337a125.35,125.35,0,0,0-49.6,10.49,28.91,28.91,0,0,1-2-2.17l18.3-26.5c7.38-6.76,21.68-9.2,29.89-6.42Z"/>
              <g>
                <path class="cls-37" d="M332.65,335c-15.58-1.93-37,3.06-51.3,10.31l18.85-26.61c7.39-6.76,21.13-9.09,29.34-6.31Z"/>
                <path class="cls-38" d="M281.38,345.45a.25.25,0,0,1-.19,0,.15.15,0,0,1,0-.21L300,318.58c7.71-7.05,21.81-9,29.62-6.39a.18.18,0,0,1,.13.12l3.11,22.61a.18.18,0,0,1-.08.17.3.3,0,0,1-.21,0c-14.43-1.79-35.92,2.55-51.13,10.29Zm19-26.7-18.43,26c13.1-6.48,34.31-11.93,50.44-10l-3.06-22.24C321.65,309.94,307.91,311.87,300.38,318.75Z"/>
              </g>
              <g>
                <path class="cls-39" d="M332.65,335c-15.14-3-37.25.29-52.17,8.05l16.73-24.3c7.39-6.76,24.12-9.14,32.33-6.36Z"/>
                <path class="cls-38" d="M332.69,335.13h-.11c-15.34-3-37.2.34-52,8a.26.26,0,0,1-.27,0,.16.16,0,0,1,0-.21L297,318.63c7.5-6.86,24.21-9.29,32.61-6.44a.18.18,0,0,1,.13.12l3.11,22.61a.16.16,0,0,1-.08.17Zm-29.84.24c10.29-2,20.91-2.29,29.54-.64l-3.06-22.24c-8.12-2.69-24.72-.28-31.94,6.31l-16.33,23.71A85.11,85.11,0,0,1,302.85,335.37Z"/>
              </g>
              <g>
                <path class="cls-2" d="M332.65,335c-15.79-5.46-38.72-1.95-52.6,5l15.52-21.49c7.39-6.76,25.76-8.87,34-6.09Z"/>
                <path class="cls-38" d="M332.69,335.13h-.11c-16.29-5.63-39.18-1.65-52.43,4.95a.26.26,0,0,1-.27,0,.14.14,0,0,1,0-.21l15.52-21.5c3.4-3.11,9.56-5.58,16.84-6.72,6.67-1,13.34-.83,17.41.55a.18.18,0,0,1,.13.12l3.11,22.61a.16.16,0,0,1-.08.17ZM299,333.62c11.12-2.13,23.42-2.29,33.38,1l-3.05-22.17c-8.48-2.81-26.56-.36-33.59,6.05l-15.09,20.9A76.71,76.71,0,0,1,299,333.62Z"/>
              </g>
              <path class="cls-40" d="M354,304.81a.26.26,0,0,0-.31-.21c-10.21,1.62-19.19,5.83-25.29,11.86a.23.23,0,0,0,0,.36.35.35,0,0,0,.3,0,.42.42,0,0,0,.12-.08c6-5.92,14.82-10.06,24.88-11.65A.33.33,0,0,0,354,304.81Zm3.06,1.3c0-.14-.15-.22-.32-.19-10.9,2.08-19.53,6.36-27.18,13.47a.23.23,0,0,0,0,.36.31.31,0,0,0,.31,0,.26.26,0,0,0,.11-.07c7.54-7,16.06-11.23,26.82-13.28A.31.31,0,0,0,357.06,306.11Zm3.16,1.45c0-.14-.16-.22-.33-.19-12.79,2.84-19.12,5.59-29.18,15.4a.24.24,0,0,0,0,.36.34.34,0,0,0,.31,0l.12-.08c9.92-9.69,16.18-12.41,28.82-15.21A.31.31,0,0,0,360.22,307.56ZM332.31,326.2a.3.3,0,0,0,.29,0,.57.57,0,0,0,.13-.08c10.91-11.26,18.44-13.56,30-16.48a.3.3,0,0,0,.25-.32c0-.14-.17-.21-.34-.17-11.67,3-19.28,5.28-30.33,16.67A.23.23,0,0,0,332.31,326.2Zm1.37,3.48a.35.35,0,0,0,.42-.06c10.46-10.5,19.87-14.71,32.68-17.85a.3.3,0,0,0,.26-.32.26.26,0,0,0-.34-.17c-12.94,3.17-22.45,7.42-33,18A.23.23,0,0,0,333.68,329.68Z"/>
              <path class="cls-40" d="M295.66,316.54c8.56-2.17,16.94-1.52,23.59,1.81l.12,0a.26.26,0,0,0,.24-.13.25.25,0,0,0-.11-.33c-6.77-3.4-15.29-4.06-24-1.86a.25.25,0,0,0-.18.31A.26.26,0,0,0,295.66,316.54Zm-2.05,2.34a39,39,0,0,1,25.65,2.63.2.2,0,0,0,.11,0,.27.27,0,0,0,.24-.14.25.25,0,0,0-.13-.33,39.45,39.45,0,0,0-26-2.67.25.25,0,0,0-.2.3A.26.26,0,0,0,293.61,318.88Zm-2.09,2.51c11-2,16.87-1.73,27.86,3.69a.27.27,0,0,0,.12,0,.28.28,0,0,0,.23-.13.24.24,0,0,0-.11-.34c-11.13-5.49-17.06-5.75-28.2-3.74a.25.25,0,0,0-.21.29A.27.27,0,0,0,291.52,321.39Zm27.79,6.69c-12.41-6.6-19.24-6-29.52-4.52a.26.26,0,0,0-.22.29.26.26,0,0,0,.3.2c10.17-1.47,16.92-2.06,29.19,4.46l.12,0a.25.25,0,0,0,.23-.13A.22.22,0,0,0,319.31,328.08Zm0,3.74c-11.81-6.06-20.76-6.56-32.12-4.81a.25.25,0,0,0-.21.29.25.25,0,0,0,.3.2c11.25-1.73,20.11-1.23,31.78,4.75l.12,0a.25.25,0,0,0,.23-.13A.24.24,0,0,0,319.3,331.82Z"/>
            </g>
            <path class="cls-24" d="M332.47,312.18s11.89-18.43,15.3-18.05-2.85,3.28-1.82,4.59,8.68-.27,11.16.78-6.75,6.81-3.59,8.29,11,.8,12.71,2.69-10.41,5.83-10.41,5.83c-6.27.37-6.68-.24-9.87,4.17s-7.65,6.4-9.48,6.36-4,5.8-4,5.8Z"/>
            <path class="cls-24" d="M331.28,310.48l-3-9.8c-1.76-3.8-10-14-9.82-9.83s-.78,7.44-4.23,6.21-.26,4.08,1,4.57,5,2.61,5,2.61L312.67,306s-8.24,5.65,5.78,12.32,14,10.88,14,10.88Z"/>
            <g class="cls-41">
              <path class="cls-2" d="M334.12,323.43s6.12-12.79,19.48-11.4"/>
              <path class="cls-32" d="M334.12,323.43a21.68,21.68,0,0,1,7.88-9,16.79,16.79,0,0,1,5.59-2.26,17.11,17.11,0,0,1,6-.18,20.93,20.93,0,0,0-5.92.55,8.85,8.85,0,0,0-1.42.41c-.46.17-.94.31-1.39.51l-1.33.64c-.45.21-.85.51-1.28.75a22.88,22.88,0,0,0-4.56,3.77A27,27,0,0,0,334.12,323.43Z"/>
            </g>
            <g class="cls-41">
              <path class="cls-2" d="M328.62,322.73s-6-12-19.18-10.71"/>
              <path class="cls-32" d="M328.62,322.73A25.83,25.83,0,0,0,325,318.2a22.47,22.47,0,0,0-7.09-4.83,21.78,21.78,0,0,0-2.75-.83,22,22,0,0,0-5.75-.52,17.83,17.83,0,0,1,5.83.14,17.6,17.6,0,0,1,2.84.79,20.89,20.89,0,0,1,2.65,1.29,20.53,20.53,0,0,1,7.86,8.49Z"/>
            </g>
            <g class="cls-41">
              <path class="cls-2" d="M329.55,318.36s-6-12-19.18-10.71"/>
              <path class="cls-32" d="M329.55,318.36a25.83,25.83,0,0,0-3.59-4.53,22.47,22.47,0,0,0-7.09-4.83,21.78,21.78,0,0,0-2.75-.83,22,22,0,0,0-5.75-.52,17.83,17.83,0,0,1,5.83.14,17.6,17.6,0,0,1,2.84.79,20.89,20.89,0,0,1,2.65,1.29,20.53,20.53,0,0,1,7.86,8.49Z"/>
            </g>
            <g class="cls-41">
              <path class="cls-2" d="M332.34,319.14s6.12-12.79,19.47-11.4"/>
              <path class="cls-32" d="M332.34,319.14a21.75,21.75,0,0,1,7.87-9,17,17,0,0,1,5.6-2.27,17.29,17.29,0,0,1,6-.17,20.89,20.89,0,0,0-5.91.55,8.56,8.56,0,0,0-1.42.41c-.47.17-.94.31-1.39.51l-1.34.64c-.44.21-.84.51-1.27.75a22.54,22.54,0,0,0-4.56,3.77A27,27,0,0,0,332.34,319.14Z"/>
            </g>
            <g class="cls-41">
              <path class="cls-2" d="M330.62,315.74s5.21-13.18,18.63-12.73"/>
              <path class="cls-32" d="M330.62,315.74a21.68,21.68,0,0,1,7.23-9.49,16.51,16.51,0,0,1,5.43-2.64,17.21,17.21,0,0,1,6-.6,21,21,0,0,0-5.86,1,9.62,9.62,0,0,0-1.39.51c-.45.21-.91.38-1.35.6l-1.29.74a14.48,14.48,0,0,0-1.21.84,22.1,22.1,0,0,0-4.29,4.08A27.09,27.09,0,0,0,330.62,315.74Z"/>
            </g>
          </g>
          <path class="cls-42" d="M305.51,256.76c-.54,3.33,9.39,4.49,9.61,1.12C315.66,254.55,305.73,253.4,305.51,256.76Z"/>
          <path class="cls-43" d="M261.49,261.93s-13.74,13.83-9.47,17.82l5,5s14.51-7.94,14.22-8.52S273,263.1,261.49,261.93Z"/>
          <path class="cls-44" d="M327.91,249.72c-4.85,5.33-27.8,4.59-24.7-8.24C305.55,236.06,328.18,243.4,327.91,249.72Z"/>
          <path class="cls-30" d="M327.91,244.36l9.89-1.4c8.9,4.68,21.88,17.28,21.88,17.28-9,5.08-12,16.52-12,16.52s-8.44-4.85-12.39-8.85"/>
          <g>
            <path class="cls-45" d="M350.24,227.48c-3.46,4.5-8.95,5.59-12.65,2.93s-1.62-5.14,1.85-9.65,3.46-3.91,7.93-5C357.16,213.29,353.71,223,350.24,227.48Z"/>
            <path class="cls-46" d="M348.45,218.16c6.72-.27-2.93,13.44-6.17,10.75-1.14-2.69,2.92-3.51,4.24-5.11.92-1.62-1.49-1.9-2.56-2C344.21,219.84,346.68,218.54,348.45,218.16Z"/>
          </g>
          <path class="cls-30" d="M304.68,237c1.94,2.64,4.11,5.4,6.51,8.22s4.56,5.17,6.76,7.43c-3.68,4.08-7.76,11.12-11.44,15.19-.65-1.87-1.54-4.48-2.58-7.61-.74-2.22-1.53-4.63-3.19-9.81-1.12-3.47-2.57-8-4.28-13.4l2.65-2.32Z"/>
          <path class="cls-30" d="M334.07,237.43a45,45,0,0,1-4.44,8.38,45.48,45.48,0,0,1-7.71,8.74c3.93,3.71,6.9,9.33,10.84,13,1.6-4.64,4.11-11.5,5.56-16.74q1.6-5.81,2.81-11.25L336.32,236Z"/>
          <path class="cls-47" d="M346.17,193.42c-14.41-12.48,9.42-20.52-12.19-24.28-21-3.65-35.13,4.74-39,23.06-1.79,8.47-.73,17.9-.86,18.35-7,28.56,19.72,45.51,39.74,33.77,6.87-3.67,12.85-10.07,15.62-25.2C349.56,218.66,358.19,203.82,346.17,193.42Z"/>
          <path class="cls-46" d="M309.61,185.76s3.34,7.1,26.88,11.25l-.08-3.27s.61,4.65,13.85,9.5l-.93,17.23L359.55,186l-48.9-12.91-9,6.41L300.28,189s-8.19,18-8.55,24.56l1.6.51c3.74-3.5,6-9.15,7.95-13.82C301.28,200.23,305.68,203.08,309.61,185.76Z"/>
          <path class="cls-48" d="M308.58,180.72s-3.76,6.93,27.4,14.37c0,0-.74-.52-2.13-8.39,1.9,9.73,10,11.45,15.66,14.43l4.25-8.82-4.43,28.16c3.26-6.57,9.52-13.8,10.22-26.55a33.3,33.3,0,0,1,.77,6.31s10.43-18.62-7.77-30.12c0,0,2.63-.35,7,2.94-1.57-10.15-34.72-29.59-50.41-12.81,0,0-8.7-6.72-16.72,6.85,0,0,7.84-3.68,10.24-1.35,0,0-7.88-1.71-13.82,13.35-5,12.63-.76,24.21,4.32,35.34a37.45,37.45,0,0,0,7.08-20l1.84,5S307.93,196.78,308.58,180.72Z"/>
          <path class="cls-49" d="M323.86,253.69c-.59-.37-2.51-2.53-7.29-1.57s-.09,7.44-.09,7.44l4.95.83S328.81,256.79,323.86,253.69Z"/>
          <g>
            <path class="cls-50" d="M320,210.47c.44,8.89-13.09,9.66-13.83.87C305.76,202.45,319.29,201.68,320,210.47Z"/>
            <path class="cls-51" d="M318.08,214.84c.09,2.68-8,4.39-8,.54C309.54,210.11,318,209.57,318.08,214.84Z"/>
            <path class="cls-2" d="M313.26,212.61a1.15,1.15,0,1,1-2.23.59A1.15,1.15,0,1,1,313.26,212.61Z"/>
          </g>
          <g>
            <path class="cls-50" d="M344.4,215.81c-1.06,9.05-14.37,7.68-13.61-1.4C331.85,205.36,345.16,206.73,344.4,215.81Z"/>
            <path class="cls-51" d="M342.38,219.15c.08,2.68-8,4.39-8,.54C333.84,214.42,342.31,213.88,342.38,219.15Z"/>
            <path class="cls-2" d="M337.56,216.92a1.15,1.15,0,1,1-2.23.59A1.15,1.15,0,1,1,337.56,216.92Z"/>
          </g>
          <g>
            <path class="cls-52" d="M321.09,221.84c2.08,4,12.44,4.49,9.17-2.72"/>
            <path class="cls-53" d="M321.09,221.84a7.21,7.21,0,0,0,3.16,1.58,9.83,9.83,0,0,0,3.3.26,3.11,3.11,0,0,0,2.41-1.2,5.88,5.88,0,0,0,.3-3.36,4.21,4.21,0,0,1,1.15,3.93,3.35,3.35,0,0,1-1.5,1.9,5,5,0,0,1-2.14.71,7.28,7.28,0,0,1-4.08-.8A4.6,4.6,0,0,1,321.09,221.84Z"/>
          </g>
          <g>
            <path class="cls-47" d="M293.19,222.08c-12.65,8-15-25.17-3.88-16.31a13.41,13.41,0,0,1,4.67,8.35"/>
            <path class="cls-54" d="M287.53,207.63c-5.11-1.85-2.67,10.25-.58,12,1,.79,2-.28,1.89-1.37,0-1.41-.91-2.53-1.58-3.68-1.28-2.12.66-2.75,2.38-2C290.18,210.78,288.85,208.65,287.53,207.63Z"/>
          </g>
          <path class="cls-30" d="M295.22,237.78c-14.09-1.44-29.05,16.85-34.34,23.69,0,0,9.87,7,13.14,16.8"/>
          <path class="cls-55" d="M286.17,254.06a24.74,24.74,0,0,1,0,7.39,9.76,9.76,0,0,1-1.11,3.62,5.56,5.56,0,0,1-2.81,2.54l-.05-.09a9.6,9.6,0,0,0,2-2.91,18.24,18.24,0,0,0,1.22-3.32,21.25,21.25,0,0,0,.57-3.57,27.78,27.78,0,0,0,.14-3.65Z"/>
          <path class="cls-31" d="M261.7,269.08c5.66,1.61,12.4,1.29,18.09,0,13.46,12.19-19.1,33.54-28.34,10"/>
          <g>
            <path class="cls-31" d="M275.93,271.4s5.36-3.39,7.53-6.44c0,0,11.7,2.71,11.72,9,0,5.59-4.23,2.82-4.23,2.82s2.31,5-2.71,4.19c0,0,1.25,5.17-3.68,4.33,0,0-1.43,3.91-5.11,1.2a11.54,11.54,0,0,1-8.19-1.2"/>
            <path class="cls-32" d="M279.44,286.11a6.44,6.44,0,0,1-2.25-1.23,4.66,4.66,0,0,1-.93-.9,3.69,3.69,0,0,1-.59-1.15l0,0a11.13,11.13,0,0,1,.93.86c.29.29.54.62.82.92a7.48,7.48,0,0,0,2,1.48Z"/>
            <g>
              <path class="cls-56" d="M291,276.76a14.05,14.05,0,0,0-5-3.43"/>
              <path class="cls-32" d="M290.93,276.78a15.53,15.53,0,0,0-2.39-1.84c-.43-.27-.88-.48-1.3-.75s-.85-.51-1.26-.84v0a5,5,0,0,1,1.49.44,6.9,6.9,0,0,1,1.29.86,12.74,12.74,0,0,1,2.2,2.14Z"/>
            </g>
            <g>
              <path class="cls-56" d="M288.24,281a18.93,18.93,0,0,0-3.85-3.55"/>
              <path class="cls-32" d="M288.22,281a21.52,21.52,0,0,0-1.92-1.78c-.34-.27-.7-.51-1-.8a8.33,8.33,0,0,1-.9-1l0,0a4.64,4.64,0,0,1,1.19.62,6.42,6.42,0,0,1,1,.9,13.77,13.77,0,0,1,1.69,2Z"/>
            </g>
            <g>
              <path class="cls-56" d="M284.56,285.28a15.87,15.87,0,0,0-3.18-3.31"/>
              <path class="cls-32" d="M284.54,285.29a22.56,22.56,0,0,0-1.59-1.65c-.28-.25-.59-.48-.85-.75a7.39,7.39,0,0,1-.74-.9l0,0a3.38,3.38,0,0,1,1,.57,4.66,4.66,0,0,1,.81.85,13.18,13.18,0,0,1,1.34,1.89Z"/>
            </g>
          </g>
          <path class="cls-2" d="M284.13,264.66a77.68,77.68,0,0,0,.49-10.62c-.27-3.75,2.17-2.7,2.66-1.65a28.82,28.82,0,0,1,1.08,3.36l1.76-4.34,6.06,1V254l-4.92,4.08,9-3.12v3.43S297,260,296.18,261a63.54,63.54,0,0,1-4.91,4.61v1.84l.67,1.21S291,267.21,284.13,264.66Z"/>
          <path class="cls-2" d="M274.5,285.28s-19.37,7.16-20.12,8.53,19.05-4.55,19.05-4.55l-7.2,4.55,5.4-.93-2.95,14.49,7.52-18.11,4.58,3.62-1.24-6.54"/>
          <path class="cls-43" d="M359.93,299s.5,2.3-1,2.46-6.29,3.23-3.43,5.21a5.33,5.33,0,0,0,7-1c.69,1.59,3.69,2,4.26,1.85s0-6.22,0-6.22Z"/>
          <path class="cls-56" d="M359.73,296.85a21.16,21.16,0,0,1,.67,3.16c-.08.42,2.54.75,3.21,1.09s1.75.11,1.87,1.37a23.73,23.73,0,0,0,.5,3.63c.25.75-.27.72.42,1.27s1.63,1.27,2.25.85a2.12,2.12,0,0,0,1.38-2.31c0-1.73.75-2.42-.38-4.22s-1.8-2.8-2.61-3.09a8.39,8.39,0,0,1-2-1,6.08,6.08,0,0,0-2-1.5C362.78,296.06,359.73,296.85,359.73,296.85Z"/>
          <path class="cls-57" d="M306.24,210.11a11.47,11.47,0,0,1,4.35-2.45,12.43,12.43,0,0,1,9,.94,7.67,7.67,0,0,0-3.38-3.37,7.83,7.83,0,0,0-4.36-.72,6.41,6.41,0,0,0-3,1A6.78,6.78,0,0,0,306.24,210.11Z"/>
          <g>
            <path class="cls-56" d="M362.53,305.67a18.61,18.61,0,0,0,1.54-3.62"/>
            <path class="cls-32" d="M362.31,305.55c.34-.56.66-1.13,1-1.7.15-.29.3-.58.44-.88a3.77,3.77,0,0,0,.34-.92,4.13,4.13,0,0,1-.22,1c-.1.31-.22.62-.34.93-.24.62-.49,1.23-.76,1.84Z"/>
          </g>
          <path class="cls-58" d="M310.1,234.15a16.38,16.38,0,0,1,19.06,4.12"/>
          <path class="cls-59" d="M316.37,238.27c.5-.37.92-.75,1.39-1.12a4.83,4.83,0,0,1,1.6-1,3.28,3.28,0,0,1,1.94.06,4.74,4.74,0,0,1,1.59.91c-.6-.12-1.17-.27-1.73-.34a3.63,3.63,0,0,0-1.58.09,9.34,9.34,0,0,0-1.5.73A5.34,5.34,0,0,1,316.37,238.27Z"/>
          <path class="cls-32" d="M324,203.48a8.3,8.3,0,0,1-1,2.58,5,5,0,0,1-1,1.15,2.81,2.81,0,0,1-1.58.67,3,3,0,0,1-1.73-.41A3.43,3.43,0,0,1,318,207a4,4,0,0,1-.57-.5,17.06,17.06,0,0,1-1.77-2.15,13.65,13.65,0,0,0-3.24-3.61l-.49-.25c-.17-.07-.35-.1-.53-.17a3.08,3.08,0,0,0-1.14-.12,7.35,7.35,0,0,0-2.48.67,5.22,5.22,0,0,1,2.28-1.63,4.46,4.46,0,0,1,3,.09,10.65,10.65,0,0,1,4.19,3.84c.52.73,1,1.44,1.52,2a2.73,2.73,0,0,0,1.55,1.1,2.51,2.51,0,0,0,1.84-.87A18.85,18.85,0,0,0,324,203.48Z"/>
          <path class="cls-57" d="M330.9,214a11.43,11.43,0,0,1,4.59-2.36,12.05,12.05,0,0,1,8.61,1.23,6.77,6.77,0,0,0-7.55-4.46,6.47,6.47,0,0,0-3,1A6.72,6.72,0,0,0,330.9,214Z"/>
          <path class="cls-48" d="M330,204.48s1.91,3.75,2.33,3.75,11.17-.67,12.25-.5,1.83,2.33,1.58,4c0,0,.09-1.5-2.16-2.08s-12.09.08-12.09.08a22.67,22.67,0,0,1-2.14-3.94A1.48,1.48,0,0,1,330,204.48Z"/>
        </g>
      </g>
    </g>
  </g>
  <g class="cls-60">
    <g class="cls-61">
      <g>
        <path class="cls-6" d="M2691.81,928.19c-1-87.11-1.89-174.25-4.17-261.28-2-75.13-4.52-150.11-6.06-225.25l-69.7-89.19-2089.29-.18L468.06,606.57l29.16,448H2693.74Q2692.51,991.44,2691.81,928.19Z"/>
        <path class="cls-8" d="M578,498.83H2525.25l-3.36-2.14L578.08,496.1Z"/>
        <path class="cls-8" d="M580.48,418.65H2411.24l-3.41-1.93-1827.29-.8Z"/>
        <path class="cls-8" d="M562,782.78l336.6-403.12L896,375.4,561.64,770Q561.79,776.38,562,782.78Z"/>
      </g>
    </g>
  </g>
</svg>
