<svg id="Layer_1" data-name="Layer 1" xmlns="http://www.w3.org/2000/svg" viewBox="0 0 128 35"><defs><style>.cls-1{fill:#fffde9;}</style></defs><path class="cls-1" d="M30.07,27.82a2.44,2.44,0,0,0,1.42-1.27A4.82,4.82,0,0,0,32,24.5a46.43,46.43,0,0,0-.16-4.73c0-.87-.08-1.73-.11-2.59l0-1.28,0-.61V14.7l.09-1.3c0-.45.1-.91.16-1.37a7.89,7.89,0,0,0,.23-1.82,2.43,2.43,0,0,0-2.42-2.27h-.1l-.1,0a2.2,2.2,0,0,0-1.6,1.22,6.72,6.72,0,0,0-.75,2.06,22.77,22.77,0,0,0-.42,2.6l-.06.69a5.07,5.07,0,0,0,0,.68v1.29c0,1.72.15,3.41.24,5.09,0,.84.08,1.67.09,2.51a14,14,0,0,0,.06,2.33,1.79,1.79,0,0,0,1.16,1.36A2.9,2.9,0,0,0,30.07,27.82Z"/><path class="cls-1" d="M82.39,27.84a2.43,2.43,0,0,0,1.45-1.24,4.56,4.56,0,0,0,.38-1,9,9,0,0,0,.14-1,41.41,41.41,0,0,0-.15-4.74c-.09-1.74-.18-3.45-.22-5.15,0-.95,0-1.9,0-2.84A8,8,0,0,0,84,10a2.49,2.49,0,0,0-.26-.68,2.39,2.39,0,0,0-.49-.63A2.62,2.62,0,0,0,81.31,8H81.2s-.07,0-.09,0a2.16,2.16,0,0,0-1.45,1.4,5.23,5.23,0,0,0-.34,1.06,9.83,9.83,0,0,0-.15,1.07,39.66,39.66,0,0,0-.14,5c0,1.71.17,3.38.26,5l.06,1.24,0,1.23c0,.38,0,.77,0,1.15a5.51,5.51,0,0,0,.06,1.15,1.77,1.77,0,0,0,1.14,1.37A2.87,2.87,0,0,0,82.39,27.84Z"/><path class="cls-1" d="M28.74,11.26a2.89,2.89,0,0,0,.7,1.25,1.18,1.18,0,0,0,.51.26,1.45,1.45,0,0,0,.3,0h.39l.23,0c.16,0,.31,0,.47-.06l.23-.05.29,0,.58-.05c.87,0,1.74-.07,2.63-.08h1.5a2,2,0,0,0,1-.07c.47-.24,1-1,.7-2.78a.34.34,0,0,0,0-.1.44.44,0,0,1,0-.1,2.32,2.32,0,0,0-.82-1.34,2.08,2.08,0,0,0-1-.41,13.74,13.74,0,0,0-2.3-.2c-.4,0-.8,0-1.21,0l-1.24.09-1.49.16-.62.09a1.51,1.51,0,0,0-.58.19,1.43,1.43,0,0,0-.59,1.35A6.19,6.19,0,0,0,28.74,11.26Z"/><path class="cls-1" d="M28.43,19.31A2.55,2.55,0,0,0,29,20.62a1.18,1.18,0,0,0,.89.37A17.83,17.83,0,0,0,32,20.77c.77-.07,1.54-.11,2.32-.12h1.31a1.61,1.61,0,0,0,.87,0c.41-.22.88-1,.72-2.74a.38.38,0,0,0,0-.1.31.31,0,0,0,0-.1,2.2,2.2,0,0,0-.7-1.38,1.83,1.83,0,0,0-.93-.45,9.89,9.89,0,0,0-2.16-.21,22,22,0,0,0-2.27.21L30,16a2.53,2.53,0,0,0-1.07.19c-.23.13-.47.48-.56,1.28A6,6,0,0,0,28.43,19.31Z"/><path class="cls-1" d="M28.12,26.29a2.29,2.29,0,0,0,.57,1.39,1.67,1.67,0,0,0,1,.52,21.4,21.4,0,0,0,2.68.08c1,0,2.08,0,3.17,0,.61,0,1.24-.1,1.87-.17a2.81,2.81,0,0,0,1.24-.28,1.52,1.52,0,0,0,.38-.38,1.64,1.64,0,0,0,.24-.62A3.37,3.37,0,0,0,39,24.88l0-.1a.9.9,0,0,1,0-.09,2.49,2.49,0,0,0-1.12-1.11,1.67,1.67,0,0,0-.54-.19,2.12,2.12,0,0,0-.49-.06c-.75,0-1.5-.07-2.29-.07l-2.58,0-1.39,0a3.83,3.83,0,0,0-1.35,0c-.3.1-.65.4-.87,1.18A4.89,4.89,0,0,0,28.12,26.29Z"/><path class="cls-1" d="M47.33,21a3.26,3.26,0,0,0,.41,1.33.77.77,0,0,0,.63.41h.16a4.73,4.73,0,0,0,.53,0c.35,0,.69-.06,1-.08.73-.05,1.42-.12,2.08-.18l1.08-.08c.24,0,.48.08.68-.09s.56-1,.29-2.77c0,0,0-.06,0-.1a.64.64,0,0,0,0-.09,2.35,2.35,0,0,0-.7-1.34,1.32,1.32,0,0,0-.78-.38,6.83,6.83,0,0,0-1.59-.1c-.51,0-1,.12-1.42.18l-.33,0h-.62a1.63,1.63,0,0,0-.91.13c-.2.12-.42.46-.51,1.25A7.67,7.67,0,0,0,47.33,21Z"/><path class="cls-1" d="M49,8.76a2.64,2.64,0,0,0-.42,1.94,6.56,6.56,0,0,0,.56,1.81l.16.39.07.18a2.24,2.24,0,0,0,.12.29l.16.3c.18.36.37.7.56,1.06.38.71.77,1.41,1.12,2.13q1.19,2.41,2.15,4.9c.36.93.69,1.87,1,2.81a8.57,8.57,0,0,0,.62,1.85,2.47,2.47,0,0,0,3.16,1.15l.1,0a.19.19,0,0,0,.09-.05,2.28,2.28,0,0,0,.91-1.88,7.2,7.2,0,0,0-.25-2.32,34.38,34.38,0,0,0-1.67-5.15c-.71-1.73-1.53-3.4-2.39-5l-.66-1.23-.33-.61h0l0-.11-.18-.4a9,9,0,0,0-1.5-2.44,1.82,1.82,0,0,0-1.74-.52A2.59,2.59,0,0,0,49,8.76Z"/><path class="cls-1" d="M44.74,27.58a2.62,2.62,0,0,0,1.65-.92A3.94,3.94,0,0,0,47,25.8a6.42,6.42,0,0,0,.39-.94c.51-1.45.86-3,1.35-4.46.54-1.66,1.14-3.31,1.78-4.95.36-.92.74-1.85,1.12-2.77a7.78,7.78,0,0,0,.7-1.83A2.41,2.41,0,0,0,50.5,8l-.1,0h-.1a2.3,2.3,0,0,0-1.84.87,7.13,7.13,0,0,0-1.22,1.83,45.5,45.5,0,0,0-2.09,4.67c-.64,1.67-1.2,3.37-1.71,5.1-.26.86-.5,1.73-.75,2.6-.11.41-.25.81-.37,1.22a6.19,6.19,0,0,0-.23,1.26,1.78,1.78,0,0,0,.83,1.66A2.76,2.76,0,0,0,44.74,27.58Z"/><path class="cls-1" d="M117.38,18.55a2.74,2.74,0,0,0-1,1.13,10.58,10.58,0,0,0-.56,1.35c-.08.25-.17.46-.24.63s-.08.17-.12.25a1.47,1.47,0,0,1-.12.25c0,.06-.07.16-.09.18a.45.45,0,0,1-.07.07.25.25,0,0,1-.08.07l-.13.08-.06,0h0l-.07,0-.29.11a2.91,2.91,0,0,1-.81.16,2.43,2.43,0,0,1-.77-.12,1.9,1.9,0,0,1-.59-.37l-.13-.14a4.49,4.49,0,0,1-.5-.55,6.32,6.32,0,0,1-1.18-3.09,6.13,6.13,0,0,1,0-1.66c0-.07,0-.14,0-.22l0-.23c0-.1,0-.15,0-.22l0-.2a6.39,6.39,0,0,1,.28-.77A4.43,4.43,0,0,1,113.31,13a2.34,2.34,0,0,1,.24-.09l.13,0H114l.2,0,.24,0h.33c.16,0,.38,0,.64.07l.88.15a4.29,4.29,0,0,0,1,0,2.22,2.22,0,0,0,1.09-.39.17.17,0,0,0,.08-.07.16.16,0,0,0,.06-.08,1.81,1.81,0,0,0,0-1.58,4.42,4.42,0,0,0-1.15-1.61,5.2,5.2,0,0,0-1.79-1l-.36-.1L115,8.21a7.1,7.1,0,0,0-1.38-.14l-.35,0-.44,0c-.15,0-.29.07-.44.1a2.8,2.8,0,0,0-.31.09,8.32,8.32,0,0,0-1.43.56,9.65,9.65,0,0,0-1.3.8,9.5,9.5,0,0,0-2.07,2.18A10.23,10.23,0,0,0,106,14.5c-.07.23-.14.47-.2.7l-.07.31-.07.34c0,.11,0,.23-.07.35l0,.36c0,.24-.06.49-.07.73a11.44,11.44,0,0,0,.66,4.54,11.26,11.26,0,0,0,1,2.1,9.61,9.61,0,0,0,1.52,1.9l-.13-.14a7,7,0,0,0,1.23,1.07,6.23,6.23,0,0,0,1.43.73,6.85,6.85,0,0,0,3.45.37,8,8,0,0,0,.85-.16l.41-.12.1,0,.08,0,.18-.07.34-.13.08,0,.1,0,.21-.1a5,5,0,0,0,.84-.48,5.45,5.45,0,0,0,1.36-1.35,6.25,6.25,0,0,0,.48-.82c.06-.14.12-.28.17-.42s.08-.25.12-.38.08-.26.11-.37l.08-.34.06-.38,0-.36a7.66,7.66,0,0,0,0-1.27,3.83,3.83,0,0,0-.3-1.2,3,3,0,0,0-.71-.91,1.76,1.76,0,0,0-.85-.45A1.45,1.45,0,0,0,117.38,18.55Z"/><path class="cls-1" d="M11.28,27.32A2.55,2.55,0,0,0,12.58,26a4.87,4.87,0,0,0,.4-1.93c0-.75,0-1.52,0-2.27s-.05-1.6-.08-2.39c-.06-1.76-.13-3.5-.17-5.22,0-1,0-1.92,0-2.88a7.72,7.72,0,0,0,0-1.86A2.44,2.44,0,0,0,10,7.53h-.1l-.1,0A2.2,2.2,0,0,0,8.37,9a6.41,6.41,0,0,0-.46,2.13,43.64,43.64,0,0,0-.15,5c0,1.69.13,3.37.18,5,0,.86,0,1.72,0,2.59a10.88,10.88,0,0,0,.15,2.48A1.75,1.75,0,0,0,9.43,27.5,2.85,2.85,0,0,0,11.28,27.32Z"/><path class="cls-1" d="M23.26,18.6A2,2,0,0,0,23,16.83a3.23,3.23,0,0,0-1.52-1.19,8.29,8.29,0,0,0-2.13-.57C19,15,18.65,15,18.27,15H17.21c-1.47,0-2.83.13-4.12.2-.73,0-1.43.06-2.1,0a4,4,0,0,0-1.29,0,1.87,1.87,0,0,0-.95.71,3.63,3.63,0,0,0-.62,1.88.5.5,0,0,0,0,.2,1.79,1.79,0,0,0,.39,1,2.33,2.33,0,0,0,.64.52,4.21,4.21,0,0,0,1.72.51,22.48,22.48,0,0,0,3.82.08L16.5,20l.84,0h.35l.36,0a7.89,7.89,0,0,1,1.44.25,8.23,8.23,0,0,0,1.32.46,1.82,1.82,0,0,0,1.39-.57A3.54,3.54,0,0,0,23.26,18.6Z"/><path class="cls-1" d="M65.38,27.32A2.55,2.55,0,0,0,66.68,26a4.89,4.89,0,0,0,.41-1.93c0-.75,0-1.52,0-2.27L67,19.41c0-1.76-.12-3.5-.16-5.22q0-1.44,0-2.88a7.24,7.24,0,0,0,0-1.86A2.45,2.45,0,0,0,64.1,7.53H64l-.09,0A2.22,2.22,0,0,0,62.47,9,6.67,6.67,0,0,0,62,11.13a46.07,46.07,0,0,0-.15,5c0,1.69.14,3.37.18,5l.06,2.59a11.48,11.48,0,0,0,.14,2.48,1.75,1.75,0,0,0,1.29,1.31A2.85,2.85,0,0,0,65.38,27.32Z"/><path class="cls-1" d="M76,26.86A2.2,2.2,0,0,0,76.6,26a2.18,2.18,0,0,0,.11-.44,3,3,0,0,0,0-.42,3.61,3.61,0,0,0-.19-1,7.18,7.18,0,0,0-.46-.92A15.76,15.76,0,0,0,73,19.8a28.82,28.82,0,0,0-4-2.93c-.38-.25-.79-.46-1.19-.7l-1.21-.64a5.72,5.72,0,0,0-1.65-.71,2.09,2.09,0,0,0-1.45.28,2.65,2.65,0,0,0-1.1,1.67l0,.1s0,.07,0,.1A2.19,2.19,0,0,0,63,18.69a3.37,3.37,0,0,0,.65.61,6.22,6.22,0,0,0,.7.48c1.1.7,2.16,1.41,3.19,2.13a23.75,23.75,0,0,1,3,2.43,3.55,3.55,0,0,1,.33.34l.33.34c.21.24.4.49.61.73s.31.5.48.74a3.65,3.65,0,0,0,.53.71,1.56,1.56,0,0,0,.58.36,2.15,2.15,0,0,0,1,.06A3.1,3.1,0,0,0,76,26.86Z"/><path class="cls-1" d="M20.39,7.63A2.46,2.46,0,0,0,19,9a5.33,5.33,0,0,0-.39,2.12c0,.39,0,.77,0,1.16s0,.77.07,1.15l0,.3,0,.32,0,.55c0,.37.06.74.07,1.11,0,.84,0,1.69,0,2.55l0,1.32c0,.44,0,.89,0,1.33,0,.93,0,1.9-.06,2.93a6.9,6.9,0,0,0,.08,2.07,2.63,2.63,0,0,0,.93,1.43,2.27,2.27,0,0,0,2,.26l.1,0,.09,0A2.55,2.55,0,0,0,23.22,26a7.58,7.58,0,0,0,.38-1.94c.08-.79.16-1.59.21-2.44l0-.65c0-.21,0-.41,0-.61,0-.4,0-.81,0-1.21,0-1.7,0-3.49-.13-5.31l0-.28v-.33l0-.65c0-.43-.06-.87-.08-1.3A15.72,15.72,0,0,0,23.44,9a1.79,1.79,0,0,0-1.19-1.29A2.77,2.77,0,0,0,20.39,7.63Z"/><path class="cls-1" d="M91.09,27.32A2.55,2.55,0,0,0,92.39,26a4.89,4.89,0,0,0,.41-1.93c0-.75,0-1.52,0-2.27l-.09-2.39c0-1.76-.12-3.5-.16-5.22,0-1,0-1.92,0-2.88a7.72,7.72,0,0,0,0-1.86,2.45,2.45,0,0,0-2.69-1.92h-.1l-.1,0A2.22,2.22,0,0,0,88.18,9a7,7,0,0,0-.46,2.13,46,46,0,0,0-.14,5c0,1.69.13,3.37.17,5l.06,2.59A11.48,11.48,0,0,0,88,26.19a1.75,1.75,0,0,0,1.29,1.31A2.84,2.84,0,0,0,91.09,27.32Z"/><path class="cls-1" d="M101.75,25.56a2.54,2.54,0,0,0,.52-1.85,4.24,4.24,0,0,0-.22-1.07,6.8,6.8,0,0,0-.44-.95c-.19-.35-.39-.69-.6-1l-.3-.5-.17-.27-.17-.27c-.48-.72-1-1.39-1.44-2.06l-1.55-2.18c-.26-.36-.5-.72-.74-1.07-.12-.19-.25-.39-.38-.57l-.41-.57L95,11.9l-.9-1.24a8.23,8.23,0,0,0-1.24-1.58,2.39,2.39,0,0,0-3.36.18.46.46,0,0,0-.07.07.24.24,0,0,0-.06.09,2.28,2.28,0,0,0-.16,2,7,7,0,0,0,.92,1.93c.43.71.88,1.41,1.31,2.09l.66,1c.12.16.22.33.33.5l.35.54c1,1.51,2.07,2.87,3,4.23.12.16.23.33.34.5l.16.26.18.28.7,1.11c.21.34.41.7.62,1.06a6.25,6.25,0,0,0,.69,1,1.81,1.81,0,0,0,1.73.58A2.79,2.79,0,0,0,101.75,25.56Z"/><path class="cls-1" d="M100.22,7.52a2.52,2.52,0,0,0-1.34,1.31,4.94,4.94,0,0,0-.46,2c-.09,1.54,0,3.11,0,4.69,0,1.77,0,3.56,0,5.38l0,1.53c0,.51,0,1,.07,1.54a6.9,6.9,0,0,0,.16,2,2.63,2.63,0,0,0,.94,1.33,2.43,2.43,0,0,0,2,.3.23.23,0,0,0,.11,0l.09,0a2.37,2.37,0,0,0,1.2-1.6,5.25,5.25,0,0,0,.22-1,8.93,8.93,0,0,0,.08-1c0-.4,0-.8,0-1.2l0-1.21c0-.8,0-1.61,0-2.42,0-1.69,0-3.41,0-5.15,0-.88,0-1.76,0-2.63a11.63,11.63,0,0,0-.08-2.5,1.75,1.75,0,0,0-1.24-1.36A2.75,2.75,0,0,0,100.22,7.52Z"/><path class="cls-1" d="M63.53,18.32a2.8,2.8,0,0,0,1.4,1.4,6.27,6.27,0,0,0,2.42.55,10.69,10.69,0,0,0,3.39-.36,7.14,7.14,0,0,0,1.9-.83,6.51,6.51,0,0,0,1.65-1.49,4,4,0,0,0,.35-.49l.16-.25.14-.26.13-.25.11-.24.1-.23.11-.32.11-.32a3.59,3.59,0,0,0,.08-.35c0-.12,0-.24.07-.36s0-.25,0-.37,0-.24,0-.36l0-.36c0-.12,0-.24,0-.35l-.07-.34a6.37,6.37,0,0,0-1-2.2A9.69,9.69,0,0,0,73.2,9c-.27-.25-.55-.47-.83-.69l-.22-.16-.31-.22a3.84,3.84,0,0,0-.35-.18l-.26-.14A9.53,9.53,0,0,0,69,6.9a10.93,10.93,0,0,0-1.51-.19A4.6,4.6,0,0,0,66,6.9,3.08,3.08,0,0,0,64.2,8.25a2.22,2.22,0,0,0-.18.49,1.75,1.75,0,0,0,0,.51,2.25,2.25,0,0,0,.45,1.06.24.24,0,0,0,.06.09.19.19,0,0,0,.07.06,2.77,2.77,0,0,0,1,.56,3.29,3.29,0,0,0,.44.12l.38.1.86.18.79.18a4.8,4.8,0,0,1,.85.32l.2.11.18.11s0,0,0,0h0l0,0,.09.08a5.73,5.73,0,0,1,.7.69,3.17,3.17,0,0,1,.43.61s0,.07.06.11a.26.26,0,0,0,0,.08.06.06,0,0,0,0,0h0v.05l-.09.22a1.58,1.58,0,0,1-.28.47,1.31,1.31,0,0,1-.45.33,5.33,5.33,0,0,1-2.07.38,24.11,24.11,0,0,0-2.7,0,2,2,0,0,0-1.67,1.19A2.54,2.54,0,0,0,63.53,18.32Z"/><path class="cls-1" d="M120,18.93a2,2,0,0,0-.37-1.09.94.94,0,0,0-.66-.36,11.21,11.21,0,0,0-1.63.06l-1.87,0-1.07,0c-.24,0-.48-.08-.71.06a1,1,0,0,0-.42.66,4,4,0,0,0,0,1.56s0,.05,0,.08a.19.19,0,0,0,0,.08,1.86,1.86,0,0,0,.6,1.06,1.27,1.27,0,0,0,.67.33,7.85,7.85,0,0,0,1.52.16c.53,0,1.08,0,1.63-.08l.85-.05a1.75,1.75,0,0,0,.81-.07c.18-.09.39-.35.52-1A5.34,5.34,0,0,0,120,18.93Z"/></svg>