<svg id="Layer_1" data-name="Layer 1" xmlns="http://www.w3.org/2000/svg" viewBox="0 0 128 35"><defs><style>.cls-1{fill:#fffde9;}</style></defs><path class="cls-1" d="M25.14,23.39A3.61,3.61,0,0,0,26.7,26a7.26,7.26,0,0,0,4.37,1.5,7.8,7.8,0,0,0,1.5-.13,6.46,6.46,0,0,0,1.62-.55,6.24,6.24,0,0,0,1.4-1,6.44,6.44,0,0,0,1.07-1.27,6.93,6.93,0,0,0,1.05-3c0-.13,0-.26,0-.39s0-.26,0-.39a7.29,7.29,0,0,0,0-.79,5.58,5.58,0,0,0-.45-1.7A5.17,5.17,0,0,0,36,16.63a6.26,6.26,0,0,0-1.45-1,15.77,15.77,0,0,0-2.48-1l-1-.34a4.78,4.78,0,0,1-.74-.34,1.63,1.63,0,0,1-.42-.3.63.63,0,0,1-.17-.24.78.78,0,0,1-.07-.31,1,1,0,0,1,.09-.39,1.31,1.31,0,0,1,.62-.67A3,3,0,0,1,31.89,12c.21,0,.45,0,.72,0L33,12h.44l.47,0,.49-.06a2.26,2.26,0,0,0,1-.44.16.16,0,0,0,.08-.06.14.14,0,0,0,.05-.09,1.25,1.25,0,0,0,.13-.73,2.4,2.4,0,0,0-.27-.85,4.44,4.44,0,0,0-1.33-1.46,5.6,5.6,0,0,0-2.4-1,5.83,5.83,0,0,0-2.84.28,5,5,0,0,0-.82.36l-.39.22-.37.26a6.16,6.16,0,0,0-1.26,1.29,5.86,5.86,0,0,0-1.14,3.49,5.47,5.47,0,0,0,.36,1.95,5.77,5.77,0,0,0,1,1.7,5.93,5.93,0,0,0,1.39,1.17,8.67,8.67,0,0,0,1.34.7c.87.36,1.65.59,2.28.81a5.64,5.64,0,0,1,1.28.57l.14.11a.59.59,0,0,1,.08.2.36.36,0,0,0,0,.1.57.57,0,0,0,0,.13v.26a2.3,2.3,0,0,1-.1.51,1.78,1.78,0,0,1-.51.79,1.13,1.13,0,0,1-.36.22.18.18,0,0,1-.09,0,.83.83,0,0,1-.12,0,2.87,2.87,0,0,1-.31.05A3.92,3.92,0,0,1,30,22.47c-.49-.12-1-.3-1.53-.47a3.4,3.4,0,0,0-2.28-.11A1.58,1.58,0,0,0,25.14,23.39Z"/><path class="cls-1" d="M66.43,27.22A2.39,2.39,0,0,0,67.82,26a4.55,4.55,0,0,0,.47-2,44.89,44.89,0,0,0-.16-4.51c0-.83-.07-1.66-.1-2.48l0-1.23V14.69l.09-1.24c0-.43.09-.87.15-1.3a7.29,7.29,0,0,0,.21-1.75,2.36,2.36,0,0,0-2.37-2.16h-.2A2.13,2.13,0,0,0,64.32,9.4a6.42,6.42,0,0,0-.73,2,20.89,20.89,0,0,0-.4,2.49l-.07.65c0,.22,0,.44,0,.65V16.4c0,1.64.14,3.26.23,4.86,0,.8.08,1.6.09,2.39a12.76,12.76,0,0,0,.06,2.23,1.75,1.75,0,0,0,1.14,1.3A2.84,2.84,0,0,0,66.43,27.22Z"/><path class="cls-1" d="M65.14,11.43a2.82,2.82,0,0,0,.67,1.22,1.09,1.09,0,0,0,.49.25.86.86,0,0,0,.28,0H67l.22,0,.44-.06.22,0,.27,0,.56,0c.83,0,1.66-.06,2.5-.08h1.43a1.91,1.91,0,0,0,1-.06c.45-.24.93-1,.66-2.72,0,0,0-.06,0-.1a.46.46,0,0,0,0-.09,2.17,2.17,0,0,0-.78-1.31A1.89,1.89,0,0,0,72.44,8a11.47,11.47,0,0,0-2.18-.19c-.38,0-.77,0-1.15,0l-1.18.09-1.43.16-.59.08a1.57,1.57,0,0,0-.55.19,1.42,1.42,0,0,0-.56,1.32A6.32,6.32,0,0,0,65.14,11.43Z"/><path class="cls-1" d="M65,19.09a2.93,2.93,0,0,0,.66,1.23,1,1,0,0,0,.76.32,5.13,5.13,0,0,0,.86-.09l.43-.07.23,0h.27l.66-.05c.22,0,.43,0,.65-.06l1.2-.14c.43-.05.83-.09,1.22-.11s.49.08.71-.07a1.51,1.51,0,0,0,.43-.78,6,6,0,0,0,.17-1.9v-.1s0-.07,0-.09a1.92,1.92,0,0,0-.73-1.36,1.88,1.88,0,0,0-1-.37,10.15,10.15,0,0,0-2.06,0l-.88.1-.2,0-.24,0-.6.06-.61.07-.6.08a2.69,2.69,0,0,0-1.13.25c-.23.15-.46.52-.46,1.31A6.32,6.32,0,0,0,65,19.09Z"/><path class="cls-1" d="M64.54,25.78a2.35,2.35,0,0,0,.54,1.36,1.53,1.53,0,0,0,1,.5,17.86,17.86,0,0,0,2.55.07c1,0,2,0,3,0,.59,0,1.19-.09,1.8-.16a2.72,2.72,0,0,0,1.18-.27,1.27,1.27,0,0,0,.36-.37,1.64,1.64,0,0,0,.23-.6,3.44,3.44,0,0,0-.35-1.88.36.36,0,0,0,0-.09.28.28,0,0,0,0-.08,2.43,2.43,0,0,0-1.08-1.1,1.46,1.46,0,0,0-.51-.19,1.88,1.88,0,0,0-.46-.06c-.71,0-1.42-.08-2.16-.08l-2.46,0H66.79a3.45,3.45,0,0,0-1.28,0c-.29.09-.63.39-.84,1.15A5.11,5.11,0,0,0,64.54,25.78Z"/><path class="cls-1" d="M80.58,26.86A2.31,2.31,0,0,0,82,25.54a4.87,4.87,0,0,0,.37-1.95c0-.34,0-.67,0-1s0-.59,0-.86v-.21l0-.15s0-.09,0-.13v-.79c0-.38,0-.76,0-1.14,0-1.74-.14-3.42-.19-5,0-.89,0-1.76,0-2.59a7.91,7.91,0,0,0,.1-1.6,3.26,3.26,0,0,0-.19-.61,2.46,2.46,0,0,0-.4-.61,2.9,2.9,0,0,0-1.77-.87l-.1,0h-.09a1.62,1.62,0,0,0-1,.43,3.07,3.07,0,0,0-.58.76,5.58,5.58,0,0,0-.63,2.12,21.23,21.23,0,0,0-.2,2.48q0,1.22,0,2.37c0,.79.08,1.56.1,2.31,0,.38,0,.75,0,1.14v1.14s0,0,0,0h0v.09l0,.38c0,.25,0,.49,0,.73,0,.48,0,.93,0,1.36a10.84,10.84,0,0,0,.17,2.21,1.74,1.74,0,0,0,1.16,1.17A2.76,2.76,0,0,0,80.58,26.86Z"/><path class="cls-1" d="M78.66,25.66A2.28,2.28,0,0,0,79.28,27a1.56,1.56,0,0,0,1,.43,20.54,20.54,0,0,0,2.47-.09l2.86-.08,1.65-.07A2.38,2.38,0,0,0,88.37,27a1.15,1.15,0,0,0,.37-.31,1.67,1.67,0,0,0,.28-.55A3.58,3.58,0,0,0,89,24.26a.36.36,0,0,0,0-.1.46.46,0,0,0,0-.09A2.19,2.19,0,0,0,88,22.83a1.89,1.89,0,0,0-.52-.25,2.49,2.49,0,0,0-.51-.09,17,17,0,0,0-2.37-.14c-.83,0-1.68.06-2.56.11-.44,0-.88.06-1.33.07a3.45,3.45,0,0,0-1.27.11c-.27.11-.59.43-.75,1.21A5,5,0,0,0,78.66,25.66Z"/><path class="cls-1" d="M94.49,26.78a2.44,2.44,0,0,0,1.34-1.23,4.58,4.58,0,0,0,.45-1.93c.09-1.5-.11-3-.16-4.44-.06-1.65-.09-3.3-.09-4.94,0-.93,0-1.86,0-2.78a6.93,6.93,0,0,0,0-1.82,2.32,2.32,0,0,0-2.64-1.83h-.1l-.09,0a2.19,2.19,0,0,0-1.39,1.37,6.77,6.77,0,0,0-.47,2,41.17,41.17,0,0,0-.25,4.71c0,1.63.08,3.26.17,4.9L91.37,22l0,1.22a12.32,12.32,0,0,0,.08,2.27,1.71,1.71,0,0,0,1.19,1.28A2.76,2.76,0,0,0,94.49,26.78Z"/><path class="cls-1" d="M92.51,25.62a2.43,2.43,0,0,0,.65,1.3,1.27,1.27,0,0,0,.48.31,1.45,1.45,0,0,0,.5.11c.79.07,1.62,0,2.46-.05s1.93,0,2.94,0l.86,0c.3,0,.6,0,.87-.06h.51a1.2,1.2,0,0,0,.55-.13,1.45,1.45,0,0,0,.66-.87,3.67,3.67,0,0,0,0-1.91.36.36,0,0,0,0-.1.19.19,0,0,0,0-.09,2.19,2.19,0,0,0-.94-1.24,2,2,0,0,0-.54-.25l-.26,0h-.29l-1.16-.09c-.38,0-.77,0-1.16,0-.83,0-1.69,0-2.6.05l-1.38,0a3.46,3.46,0,0,0-1.35.11c-.29.11-.61.45-.75,1.23A5.2,5.2,0,0,0,92.51,25.62Z"/><path class="cls-1" d="M44.39,27a2.45,2.45,0,0,0,1.27-1.25,4.53,4.53,0,0,0,.4-1.82c0-1.41-.05-2.85,0-4.29,0-1.61.09-3.25.16-4.89l0-1.4,0-.35,0-.32,0-.65c0-.29.07-.57.09-.85a3,3,0,0,0,0-.42,2,2,0,0,0,0-.42A2.29,2.29,0,0,0,45.8,9.1,2.76,2.76,0,0,0,44,8.32h-.2a2.08,2.08,0,0,0-1.52,1.23,5.16,5.16,0,0,0-.42,1,8.92,8.92,0,0,0-.2,1c-.06.4-.12.81-.17,1.22s-.08.77-.11,1.15c-.07.76-.13,1.53-.16,2.3-.08,1.61-.09,3.24-.07,4.88,0,.83,0,1.66,0,2.49A10.32,10.32,0,0,0,41.32,26a1.65,1.65,0,0,0,1.26,1.23A2.86,2.86,0,0,0,44.39,27Z"/><path class="cls-1" d="M52.45,20.93A2.25,2.25,0,0,0,53,19.39a3,3,0,0,0-.52-1.45c-.61-1-1.4-1.83-2.09-2.76s-1.52-2.1-2.26-3.17c-.42-.6-.83-1.21-1.23-1.82A4.14,4.14,0,0,0,46,9c-.57-.45-1.66-.7-3,.4l-.08.06a.21.21,0,0,0-.06.08,2,2,0,0,0-.48,1.67,4.27,4.27,0,0,0,.52,1.53,32.26,32.26,0,0,0,1.89,3.14c.72,1,1.5,2.07,2.28,3.08l1.19,1.53a6.76,6.76,0,0,0,1.15,1.42A1.56,1.56,0,0,0,51,22,3.72,3.72,0,0,0,52.45,20.93Z"/><path class="cls-1" d="M50.14,22A2.06,2.06,0,0,0,51.82,22a3.15,3.15,0,0,0,1.25-1.14A13,13,0,0,0,54,19.2c.27-.56.57-1.14.79-1.64a20.06,20.06,0,0,1,2-3.06l1.35-1.8A4.49,4.49,0,0,0,59,11.4a1.87,1.87,0,0,0,.09-.64A2,2,0,0,0,58.9,10a2.61,2.61,0,0,0-1.45-1.29l-.09,0-.09,0a2.14,2.14,0,0,0-1,0,2.49,2.49,0,0,0-.69.26,4,4,0,0,0-1.19,1A27.51,27.51,0,0,0,52,12.74c-.39.57-.78,1.17-1.13,1.81l-.27.5a2.56,2.56,0,0,0-.11.24l-.11.23c-.07.16-.14.29-.21.43l-.21.41c-.26.54-.55,1.11-.85,1.64a8.3,8.3,0,0,0-.82,1.49A1.6,1.6,0,0,0,48.67,21,3.41,3.41,0,0,0,50.14,22Z"/><path class="cls-1" d="M56.24,8.49a2.4,2.4,0,0,0-1.35,1.23,4.6,4.6,0,0,0-.41,1.86c0,1.42.09,2.87.13,4.31,0,1.63.06,3.25.1,4.88,0,.92,0,1.84.07,2.77,0,.3,0,.61,0,.91a3.16,3.16,0,0,0,.12.91,2.38,2.38,0,0,0,.87,1.21,2.51,2.51,0,0,0,1.94.34.2.2,0,0,0,.1,0,.12.12,0,0,0,.09,0,2.19,2.19,0,0,0,1.25-1.43,6.13,6.13,0,0,0,.32-1.92c.09-1.49.13-3,.12-4.48s-.08-3.14-.14-4.73l-.09-2.4c0-.37,0-.75,0-1.12a5.17,5.17,0,0,0-.12-1.11,1.67,1.67,0,0,0-1.19-1.22A2.87,2.87,0,0,0,56.24,8.49Z"/></svg>