<svg id="Layer_1" data-name="Layer 1" xmlns="http://www.w3.org/2000/svg" viewBox="0 0 128 35"><defs><style>.cls-1{fill:#fffde9;}</style></defs><path class="cls-1" d="M19.83,10.69a2.29,2.29,0,0,0,1,1.31,2.63,2.63,0,0,0,1.39.41c.26,0,.53,0,.81,0h.87l1.8-.08,3.92-.17,2.16-.08a4.39,4.39,0,0,0,1.4-.09c.65-.25,1.43-1,1.24-2.75,0,0,0-.06,0-.1a.46.46,0,0,0,0-.09A2,2,0,0,0,33.2,7.74a4.08,4.08,0,0,0-1.56-.37,30.71,30.71,0,0,0-3.58-.08c-1.22,0-2.41.13-3.61.17l-.9,0c-.32,0-.63,0-1,0a7.2,7.2,0,0,0-1.86.13,1.53,1.53,0,0,0-1,1.24A3.84,3.84,0,0,0,19.83,10.69Z"/><path class="cls-1" d="M28.06,27.25A2.49,2.49,0,0,0,29.42,26a4.86,4.86,0,0,0,.45-2c.07-1.55-.09-3.1-.15-4.65-.07-1.73-.13-3.46-.2-5.19l-.06-1.44c0-.47,0-.92,0-1.38,0-.3,0-.61,0-.93a3.27,3.27,0,0,0-.07-.93,2.38,2.38,0,0,0-2.68-1.87h-.1l-.09,0a2.22,2.22,0,0,0-1.38,1.44,6.69,6.69,0,0,0-.45,2.09c-.06.85-.11,1.72-.11,2.53s0,1.6,0,2.41c.05,1.66.15,3.33.23,5,0,.83.07,1.67.09,2.5A12.4,12.4,0,0,0,25,26a1.75,1.75,0,0,0,1.19,1.33A2.8,2.8,0,0,0,28.06,27.25Z"/><path class="cls-1" d="M96.17,27.29A2.53,2.53,0,0,0,97.46,26a4.5,4.5,0,0,0,.39-1.86c0-.71,0-1.45,0-2.18s-.06-1.53-.08-2.29c-.06-1.7-.12-3.37-.16-5,0-.93,0-1.86,0-2.77a6.7,6.7,0,0,0,0-1.79,2.39,2.39,0,0,0-2.65-1.84h-.1l-.09,0a2.15,2.15,0,0,0-1.41,1.38,6.25,6.25,0,0,0-.45,2.05,42.7,42.7,0,0,0-.15,4.78c0,1.63.13,3.24.17,4.82l.06,2.49a10.63,10.63,0,0,0,.14,2.39,1.7,1.7,0,0,0,1.27,1.26A2.88,2.88,0,0,0,96.17,27.29Z"/><path class="cls-1" d="M107.65,18.88a1.91,1.91,0,0,0-.21-1.72A3.24,3.24,0,0,0,106,16a8.26,8.26,0,0,0-2.06-.55c-.35,0-.69-.08-1.06-.1H100.8l-1,0-1.92.12c-.69,0-1.36.06-2,.05a3.63,3.63,0,0,0-1.23,0,1.75,1.75,0,0,0-.9.7,3.51,3.51,0,0,0-.61,1.85.33.33,0,0,0,0,.1.33.33,0,0,0,0,.1,1.79,1.79,0,0,0,.37,1,2.36,2.36,0,0,0,.62.51,3.8,3.8,0,0,0,1.65.5,20.81,20.81,0,0,0,3.67.09l.87-.05.83,0,.79,0h.36l.34,0a6.45,6.45,0,0,1,1.37.24,10.22,10.22,0,0,0,1.25.43,1.8,1.8,0,0,0,1.35-.58A3.48,3.48,0,0,0,107.65,18.88Z"/><path class="cls-1" d="M104.86,8.36a2.33,2.33,0,0,0-1.37,1.31,4.62,4.62,0,0,0-.39,2c0,.38,0,.75,0,1.12s0,.74.06,1.1l0,.29,0,.31.05.53c0,.35,0,.71.06,1.07,0,.8,0,1.62,0,2.45v1.26c0,.43,0,.86,0,1.28,0,.9,0,1.83,0,2.82a6.43,6.43,0,0,0,.07,2,2.6,2.6,0,0,0,.91,1.37,2.25,2.25,0,0,0,2,.24.19.19,0,0,0,.1,0,.19.19,0,0,0,.09,0A2.39,2.39,0,0,0,107.64,26a6.62,6.62,0,0,0,.38-1.86c.08-.75.16-1.53.21-2.35l0-.61c0-.21,0-.4,0-.59,0-.39,0-.78,0-1.17,0-1.63,0-3.36-.13-5.1l0-.28,0-.31,0-.63c0-.41-.06-.84-.08-1.25a14.48,14.48,0,0,0-.17-2.22,1.79,1.79,0,0,0-1.17-1.25A2.74,2.74,0,0,0,104.86,8.36Z"/><path class="cls-1" d="M64.85,24.77a3.86,3.86,0,0,0-1-1.38,6,6,0,0,0-1.07-.8,6.58,6.58,0,0,1-.57-.4,5.81,5.81,0,0,1-.58-.54,6.16,6.16,0,0,1-1-1.51,10.42,10.42,0,0,1-1-4.44c0-.24,0-.47,0-.71v-.45l0-.4c0-.43,0-.89,0-1.38a7.82,7.82,0,0,0,.06-2.07,2.84,2.84,0,0,0-.81-1.58,1.81,1.81,0,0,0-.84-.45,2.49,2.49,0,0,0-1.12,0l-.1,0-.1,0a2.61,2.61,0,0,0-1.28,1.48,7.5,7.5,0,0,0-.52,2.11c-.06.45-.11.93-.14,1.42,0,.12,0,.25,0,.38v.51a.53.53,0,0,1,0,.14v.29a17.46,17.46,0,0,0,.12,3,13.73,13.73,0,0,0,.8,3.18c.1.25.21.53.33.78s.24.49.37.74a12.57,12.57,0,0,0,.92,1.45A9.3,9.3,0,0,0,60,26.64a8.5,8.5,0,0,0,1.6.79,4.88,4.88,0,0,0,1.7.3A1.75,1.75,0,0,0,65,26.59,2.7,2.7,0,0,0,64.85,24.77Z"/><path class="cls-1" d="M68.45,8.59a2.7,2.7,0,0,0-1.17,1.5,5.32,5.32,0,0,0-.22,1,8.68,8.68,0,0,0,0,1c0,1.52.2,3,.09,4.46A16.57,16.57,0,0,1,66.77,19,12.16,12.16,0,0,1,66,21.13c-.09.2-.19.38-.29.57s-.07.15-.08.15h0l0,.05-.08.1a3.75,3.75,0,0,1-.69.69,3.29,3.29,0,0,1-.52.29,2.26,2.26,0,0,0-.51.3,3.31,3.31,0,0,0-.78,1,3.16,3.16,0,0,0-.35,2,.2.2,0,0,0,0,.1.12.12,0,0,0,0,.09,1.54,1.54,0,0,0,.82.84,3.07,3.07,0,0,0,1.13.22,5.06,5.06,0,0,0,2.86-.88A8.17,8.17,0,0,0,69,25.44c.2-.21.4-.43.58-.66l.14-.18.18-.26c.12-.19.18-.32.24-.42l.37-.68c.11-.23.22-.46.32-.7l.15-.35.13-.36c.09-.24.18-.48.25-.72a18.09,18.09,0,0,0,.64-3,25.3,25.3,0,0,0,.16-3q0-1.49-.15-2.91a11.56,11.56,0,0,0-.34-2.63,1.77,1.77,0,0,0-1.37-1.26A2.61,2.61,0,0,0,68.45,8.59Z"/><path class="cls-1" d="M88.17,21a2.27,2.27,0,0,0-.69,0,2,2,0,0,0-.34.06l-.33.08a5.64,5.64,0,0,0-.64.25l-.15.07-.1.06-.11.09-.06.05,0,0h0s0,.06,0,0l0,0-.09,0c-.31.12-.59.24-.89.33l-.11,0-.11,0-.22.08-.22.05a1.55,1.55,0,0,1-.23.05,3.59,3.59,0,0,1-1,.08,3,3,0,0,1-.91-.23c-.07,0-.15-.06-.21-.1a1.32,1.32,0,0,0-.2-.12l-.21-.18-.13-.12-.12-.11a4.39,4.39,0,0,1-.77-1,6.21,6.21,0,0,1-.59-1.45,6.38,6.38,0,0,1-.21-1.57,4.9,4.9,0,0,1,0-.77,7.62,7.62,0,0,1,.15-.82,5.26,5.26,0,0,1,.53-1.42,4.64,4.64,0,0,1,1-1.26,3.8,3.8,0,0,1,1.3-.75l.12,0h.09l0,0a1.62,1.62,0,0,1,.38,0l.18,0,.12,0h.09a2.33,2.33,0,0,0,.3,0l.62.09c.25.05.53.1.84.14a4.06,4.06,0,0,0,1,0,2.15,2.15,0,0,0,1.06-.4.16.16,0,0,0,.08-.06.12.12,0,0,0,.06-.08,1.72,1.72,0,0,0,.07-1.5,4.25,4.25,0,0,0-1-1.54,5.16,5.16,0,0,0-1-.76l-.3-.16-.31-.14-.32-.11L84.31,8l-.16,0-.3-.07-.15,0-.16,0c-.21,0-.43-.06-.65-.08s-.43,0-.65,0h-.16l-.21,0a1.84,1.84,0,0,0-.41.06L81,8l-.34.1c-.23.07-.45.16-.67.25A8.54,8.54,0,0,0,78.76,9a8.64,8.64,0,0,0-2.1,1.89,9.09,9.09,0,0,0-.8,1.15,10.11,10.11,0,0,0-.62,1.23,11.52,11.52,0,0,0-.44,1.29c0,.11,0,.22-.08.33l-.06.29a6.06,6.06,0,0,0-.12.64,10.91,10.91,0,0,0-.08,2.79,11.79,11.79,0,0,0,.61,2.69,12.82,12.82,0,0,0,.55,1.27,11.34,11.34,0,0,0,.72,1.21,9.58,9.58,0,0,0,.91,1.13l.13.14.12.12.25.23.28.26.14.12a1,1,0,0,0,.17.12,7.12,7.12,0,0,0,2.88,1.35,8,8,0,0,0,3,.05,8.44,8.44,0,0,0,2.66-.93c.2-.13.41-.24.6-.39s.38-.29.56-.45.34-.34.51-.52a3.42,3.42,0,0,0,.22-.28l.1-.15,0-.07h0l0,0h0s0,0,0-.05l.09-.13.16-.27a3,3,0,0,0,.25-.58,2.24,2.24,0,0,0,0-1.18,1.82,1.82,0,0,0-.45-.83A1.68,1.68,0,0,0,88.17,21Z"/><path class="cls-1" d="M41.41,12a8.75,8.75,0,0,0,1.26.34c.41.09.82.16,1.19.25a11.88,11.88,0,0,1,1.35.43,5,5,0,0,1,1.07.61,3.12,3.12,0,0,1,.45.44l.1.12.08.13a.38.38,0,0,1,.09.13l0,.07,0,0h0l0,0,0,.1c0,.07,0,.15.08.22l.15.44a7,7,0,0,1,.21.93l0,.23c0,.09,0,.14,0,.22s0,.29,0,.45,0,.32,0,.49,0,.32,0,.48a7.36,7.36,0,0,1-.41,1.84,5.16,5.16,0,0,1-1,1.65,1.14,1.14,0,0,1-.15.16l-.16.15-.17.13a1.24,1.24,0,0,1-.18.14c-.12.07-.24.16-.37.22a2.92,2.92,0,0,1-.36.17,2.15,2.15,0,0,1-1.35.06,3.13,3.13,0,0,1-.74-.32l-.19-.12-.09-.06,0,0h0L42.3,22c0-.06-.12-.11-.17-.17a6.79,6.79,0,0,1-1.82-4.25,5.87,5.87,0,0,1,.1-1.52c0-.25.09-.48.14-.71l.06-.22,0-.22.08-.37.22-1c.06-.31.1-.6.16-.89s.14-.62.2-1a2,2,0,0,0,0-1.14.13.13,0,0,0,0-.1s0-.06-.08-.08a1.39,1.39,0,0,0-.34-.2,2.08,2.08,0,0,0-.46-.09,2.55,2.55,0,0,0-.54,0,2.51,2.51,0,0,0-.57.18,3.81,3.81,0,0,0-1.1.68,6,6,0,0,0-.82.88,6.72,6.72,0,0,0-.77,1.24,3.13,3.13,0,0,0-.15.32l-.07.16-.06.15-.06.14-.06.13L36,14.3a9,9,0,0,0-.34,1.43c0,.24-.06.48-.09.72s0,.48,0,.72a11.82,11.82,0,0,0,1.82,6.48,11.2,11.2,0,0,0,1.09,1.4c.1.11.2.23.31.33l.33.32.22.2.26.19a3.77,3.77,0,0,0,.39.26,7.8,7.8,0,0,0,1.76.87,7.11,7.11,0,0,0,2.07.4A6.84,6.84,0,0,0,46,27.36a7.89,7.89,0,0,0,1.91-.84,9.06,9.06,0,0,0,2.82-2.72,10.94,10.94,0,0,0,1.46-3.34A13.2,13.2,0,0,0,52.6,17l0-.45a3.67,3.67,0,0,0,0-.46c0-.3-.08-.58-.13-.87A11.32,11.32,0,0,0,52,13.52c-.09-.27-.19-.55-.3-.82l-.06-.14a.69.69,0,0,0-.07-.15l-.14-.26a3.91,3.91,0,0,0-.26-.44,7.05,7.05,0,0,0-1.32-1.56,8.19,8.19,0,0,0-.73-.59,7.34,7.34,0,0,0-.79-.49,7.89,7.89,0,0,0-1.71-.7,7.68,7.68,0,0,0-1.77-.28,7.22,7.22,0,0,0-1.74.14,4.76,4.76,0,0,0-2,.87,2.16,2.16,0,0,0-.91,1.44,1.1,1.1,0,0,0,.35.9A2.57,2.57,0,0,0,41.41,12Z"/></svg>