<svg xmlns="http://www.w3.org/2000/svg" xmlns:xlink="http://www.w3.org/1999/xlink" viewBox="0 0 400 400"><defs><style>.cls-1,.cls-5{fill:#fff;}.cls-2{isolation:isolate;}.cls-3{clip-path:url(#clip-path);}.cls-4{fill:#ffdc17;stroke:#828200;}.cls-10,.cls-4,.cls-7,.cls-8{stroke-miterlimit:10;}.cls-5{opacity:0.3;}.cls-6{opacity:0.15;}.cls-7{stroke:#705a00;fill:url(#linear-gradient);}.cls-8{fill:#ffc41d;}.cls-10,.cls-8{stroke:#514700;}.cls-9{fill:url(#linear-gradient-2);}.cls-10{fill:url(#radial-gradient);}.cls-11{fill:#ee9202;opacity:0.45;mix-blend-mode:multiply;}.cls-12{fill:#9e9e9e;}</style><clipPath id="clip-path"><circle class="cls-1" cx="200" cy="200" r="196.51"/></clipPath><linearGradient id="linear-gradient" x1="107.74" y1="202.52" x2="308.05" y2="202.52" gradientUnits="userSpaceOnUse"><stop offset="0.04" stop-color="#fcea10"/><stop offset="0.26" stop-color="#fad40c"/><stop offset="0.73" stop-color="#f49c02"/><stop offset="0.81" stop-color="#f39200"/></linearGradient><linearGradient id="linear-gradient-2" x1="203.94" y1="307.44" x2="203.94" y2="119.54" gradientUnits="userSpaceOnUse"><stop offset="0.02" stop-color="#d89500"/><stop offset="0.17" stop-color="#c07300"/><stop offset="0.26" stop-color="#b56300"/></linearGradient><radialGradient id="radial-gradient" cx="203.94" cy="272.66" r="26.73" gradientUnits="userSpaceOnUse"><stop offset="0.11" stop-color="#f4c500"/><stop offset="0.61" stop-color="#ecab00"/><stop offset="1" stop-color="#e89b00"/></radialGradient></defs><g class="cls-2"><g id="Layer_1" data-name="Layer 1"><circle class="cls-1" cx="200" cy="200" r="196.51"/><g class="cls-3"><circle class="cls-4" cx="203.43" cy="94.52" r="17.22"/><path class="cls-5" d="M201.47,77.42a17.21,17.21,0,0,0,7.87,32.52,18.28,18.28,0,0,0,2-.12,17.21,17.21,0,1,1-9.84-32.4Z"/><path class="cls-6" d="M203.43,77.3a18.12,18.12,0,0,0-2,.12,17.21,17.21,0,0,1,0,34.2,15.91,15.91,0,0,0,2,.12,17.22,17.22,0,1,0,0-34.44Z"/><path class="cls-7" d="M105.27,262.68c39.43-39.44,38.79-86.8,40.22-108.39.57-8.63,3.88-17,9.1-24.52,23.64-34.22,75.06-34.22,98.71,0,5.21,7.54,8.53,15.89,9.1,24.52,1.42,21.59.78,69,40.22,108.39a11.93,11.93,0,0,1,1.48,5.57c0,18.06-44.84,32.7-100.16,32.7s-100.15-14.64-100.15-32.7A11.82,11.82,0,0,1,105.27,262.68Z"/><path class="cls-6" d="M302.62,262.68c-39.44-39.44-38.8-86.8-40.22-108.39-.57-8.63-3.89-17-9.1-24.52A59.73,59.73,0,0,0,199,104.3a59.37,59.37,0,0,1,44.42,25.47c5.21,7.54,8.53,15.89,9.1,24.52,1.42,21.59.78,69,40.22,108.39a11.93,11.93,0,0,1,1.48,5.57c0,17.52-42.2,31.81-95.22,32.66,1.64,0,3.28,0,4.94,0,55.32,0,100.16-14.64,100.16-32.7A11.93,11.93,0,0,0,302.62,262.68Z"/><path class="cls-5" d="M105.27,262.68c39.43-39.44,38.79-86.8,40.22-108.39.57-8.63,3.88-17,9.1-24.52a59.7,59.7,0,0,1,53.7-25.5,59.34,59.34,0,0,0-45,25.5c-5.22,7.54-8.53,15.89-9.1,24.52-1.42,21.59-.78,69-40.22,108.39a11.82,11.82,0,0,0-1.48,5.57c0,17.58,42.51,31.92,95.81,32.66-1.45,0-2.89,0-4.35,0-55.31,0-100.15-14.64-100.15-32.7A11.82,11.82,0,0,1,105.27,262.68Z"/><ellipse class="cls-8" cx="203.94" cy="268.25" rx="100.15" ry="32.7"/><path class="cls-9" d="M110,268.25c0,9.16,26.31,21.82,69.27,25.47,2.22.18,4.49.35,6.8.49q8.55.51,17.88.52t17.88-.52c2.31-.14,4.58-.31,6.81-.49,42.95-3.65,69.26-16.31,69.26-25.47,0-10.17-32.41-24.65-84-26.32l-1.87-.06q-4-.1-8.06-.1c-2.73,0-5.42,0-8.06.11l-1.87.05q-4.31.13-8.41.38c-2.83.19-5.57.4-8.27.65C135.52,246.81,110,259.22,110,268.25Z"/><path class="cls-10" d="M182.17,281.78a21.77,21.77,0,0,0,39.65,12.43,22.39,22.39,0,0,0,2.15-3.86,21.79,21.79,0,0,0-7.59-26.44,10.14,10.14,0,0,1-4.38-8.32V241.87q-4-.1-8.06-.1c-2.73,0-5.42,0-8.06.11v13.71a10.14,10.14,0,0,1-4.38,8.32A21.74,21.74,0,0,0,182.17,281.78Z"/><path class="cls-11" d="M195.88,241.88v7.72a57.27,57.27,0,0,1,16.12,0v-7.73q-4-.1-8.06-.1C201.21,241.77,198.52,241.8,195.88,241.88Z"/><path class="cls-12" d="M83.25,98.62s5.87-5.67,11.35-2,1.82,9.73.81,11.35S71.08,128,69.87,169s25.54,59.59,25.54,59.59,6.08,6.9-1.62,13-23.32-18.45-25.95-23.11-25.93-45.53-1.35-96.76C74.53,104.91,83.25,98.62,83.25,98.62Z"/><path class="cls-12" d="M108.41,123.68s3.78-3.65,7.31-1.3,1.17,6.26.52,7.31S100.58,142.6,99.8,169s16.44,38.35,16.44,38.35a5.56,5.56,0,0,1-1,8.35c-5,3.91-15-11.87-16.69-14.87s-16.69-29.3-.87-62.27C102.8,127.73,108.41,123.68,108.41,123.68Z"/><path class="cls-12" d="M324.92,98.62S319,93,313.57,96.6s-1.83,9.73-.82,11.35,24.33,20.07,25.54,61-25.54,59.59-25.54,59.59-6.08,6.9,1.63,13,23.31-18.45,25.94-23.11,25.93-45.53,1.35-96.76C333.63,104.91,324.92,98.62,324.92,98.62Z"/><path class="cls-12" d="M299.75,123.68s-3.78-3.65-7.3-1.3-1.18,6.26-.53,7.31S307.58,142.6,308.36,169s-16.44,38.35-16.44,38.35a5.56,5.56,0,0,0,1.05,8.35c5,3.91,15-11.87,16.7-14.87s16.68-29.3.87-62.27C305.36,127.73,299.75,123.68,299.75,123.68Z"/></g></g></g></svg>