<svg id="Layer_1" data-name="Layer 1" xmlns="http://www.w3.org/2000/svg" xmlns:xlink="http://www.w3.org/1999/xlink" viewBox="0 0 400 400"><defs><style>.cls-1{fill:#fff;}.cls-2{fill:none;}.cls-3{clip-path:url(#clip-path);}.cls-4{clip-path:url(#clip-path-2);}.cls-5{fill:url(#linear-gradient);}.cls-6{fill:url(#linear-gradient-2);}.cls-7{clip-path:url(#clip-path-3);}.cls-11,.cls-13,.cls-19,.cls-21,.cls-23,.cls-25,.cls-32,.cls-8{opacity:0.89;}.cls-8{fill:url(#linear-gradient-3);}.cls-9{opacity:0.6;}.cls-10{clip-path:url(#clip-path-4);}.cls-11{fill:url(#linear-gradient-4);}.cls-12{clip-path:url(#clip-path-5);}.cls-13{fill:url(#linear-gradient-5);}.cls-14{clip-path:url(#clip-path-6);}.cls-15{fill:url(#linear-gradient-6);}.cls-16{clip-path:url(#clip-path-7);}.cls-17{fill:url(#linear-gradient-7);}.cls-18{clip-path:url(#clip-path-8);}.cls-19{fill:url(#linear-gradient-8);}.cls-20{clip-path:url(#clip-path-9);}.cls-21{fill:url(#linear-gradient-9);}.cls-22{clip-path:url(#clip-path-10);}.cls-23{fill:url(#linear-gradient-10);}.cls-24{clip-path:url(#clip-path-11);}.cls-25{fill:url(#linear-gradient-11);}.cls-26,.cls-28{fill:#334954;}.cls-27{fill:url(#linear-gradient-12);}.cls-28{opacity:0.51;}.cls-29{fill:#00470c;}.cls-30{fill:#682a00;}.cls-31{fill:#29556b;}.cls-32{fill:#ceb641;}.cls-33{fill:#2b6a8d;}.cls-34{opacity:0.5;}.cls-35{fill:#28556a;}.cls-36{fill:#0f4158;}.cls-37{fill:#93875d;}.cls-38{fill:#878055;}.cls-39{fill:url(#linear-gradient-13);}.cls-40{fill:#343501;}.cls-41{fill:#623110;}.cls-42{fill:#a86436;}.cls-43{fill:#436003;}.cls-44{fill:#01340b;}.cls-45{fill:#382520;}.cls-46{fill:#6d9109;}.cls-47{fill:#293800;}.cls-48{fill:#fa2;}.cls-49{fill:#b77e00;}.cls-50{fill:#ab4b0f;}.cls-51{fill:#ffce55;}.cls-52{fill:#fee67b;}.cls-53{fill:#e6a24c;}.cls-54{fill:#7a5100;}.cls-55{fill:#384e03;stroke:#6e8c11;stroke-width:3px;}.cls-55,.cls-66,.cls-67,.cls-68,.cls-69,.cls-70,.cls-71,.cls-72,.cls-73{stroke-miterlimit:10;}.cls-56{opacity:0.43;}.cls-57{fill:#cdc877;}.cls-58,.cls-62{fill:#351402;}.cls-59{fill:#996303;}.cls-60{opacity:0.59;}.cls-61,.cls-64{fill:#fee67c;}.cls-62{opacity:0.81;}.cls-63{fill:#603210;}.cls-64{opacity:0.72;}.cls-65{fill:#36383f;opacity:0.3;}.cls-66{fill:#2da0a0;}.cls-66,.cls-67,.cls-68{stroke:#231811;}.cls-67{fill:#74e3e8;}.cls-68{fill:#217c7a;}.cls-69{fill:#b26ef4;stroke:#562f15;}.cls-70,.cls-71{fill:#fbd3c7;}.cls-70{stroke:#c18274;}.cls-71,.cls-73{stroke:#9e673f;}.cls-72{fill:#4cb9d6;stroke:#54351f;}.cls-73{fill:#73d8ef;}.cls-74{fill:#fafcfc;}.cls-75{fill:#0a3f3e;}.cls-76{fill:#1f2535;}.cls-77{fill:#ddada2;}</style><clipPath id="clip-path"><circle class="cls-1" cx="200" cy="200" r="196.51"/></clipPath><clipPath id="clip-path-2"><rect class="cls-2" x="-205.46" y="0.12" width="728.72" height="409.9"/></clipPath><linearGradient id="linear-gradient" x1="156.99" y1="246.57" x2="156.99" y2="-19.63" gradientUnits="userSpaceOnUse"><stop offset="0" stop-color="#ff8137"/><stop offset="0.35" stop-color="#ffa345"/><stop offset="0.76" stop-color="#ffc854"/></linearGradient><linearGradient id="linear-gradient-2" x1="174.47" y1="259.84" x2="174.47" y2="107.49" gradientUnits="userSpaceOnUse"><stop offset="0" stop-color="#f9bb1e"/><stop offset="1" stop-color="#fff5a9"/></linearGradient><clipPath id="clip-path-3"><path class="cls-2" d="M307,134.87c-6.94,2.42-7.49,6-7.49,6s-.91,3.35,7.67,4.47c14.27,1.86,19.61,0,22.09-1.49,1.28-.75,2.56-7.09-3.47-9.88a16.66,16.66,0,0,0-7.2-1.58c-3.65,0-7.43,1-11.6,2.51"/></clipPath><linearGradient id="linear-gradient-3" x1="-42.66" y1="1534.93" x2="-42.48" y2="1534.93" gradientTransform="matrix(145.18, -145.28, -145.28, -145.18, 229483.48, 216791.72)" gradientUnits="userSpaceOnUse"><stop offset="0" stop-color="#fff9bf"/><stop offset="1" stop-color="#ffda52"/></linearGradient><clipPath id="clip-path-4"><path class="cls-2" d="M332.15,130.34c-6.94,2.42-7.49,6-7.49,6s-.91,3.35,7.67,4.47c14.27,1.86,19.62,0,22.1-1.49,1.27-.75,2.55-7.09-3.47-9.88a16.72,16.72,0,0,0-7.2-1.58c-3.66,0-7.44,1-11.61,2.51"/></clipPath><linearGradient id="linear-gradient-4" x1="-42.56" y1="1534.86" x2="-42.37" y2="1534.86" xlink:href="#linear-gradient-3"/><clipPath id="clip-path-5"><path class="cls-2" d="M340.31,122.83c-5.79,2-6.25,5-6.25,5s-.76,2.8,6.4,3.74c11.92,1.55,16.38,0,18.45-1.25,1.07-.62,2.14-5.92-2.89-8.25a14,14,0,0,0-6-1.32,29.94,29.94,0,0,0-9.69,2.1"/></clipPath><linearGradient id="linear-gradient-5" x1="-42.49" y1="1534.86" x2="-42.33" y2="1534.86" xlink:href="#linear-gradient-3"/><clipPath id="clip-path-6"><path class="cls-2" d="M-52.31,2.65c-30,14.9-32.42,36.66-32.42,36.66s-4,20.62,33.21,27.49c61.79,11.43,84.94-.26,95.68-9.16,5.54-4.58,11.07-43.53-15-60.71C18.73-9.93,8.46-12.77-2-12.77c-15.84,0-32.19,6.47-50.26,15.42"/></clipPath><linearGradient id="linear-gradient-6" x1="-44" y1="1536.44" x2="-42.85" y2="1536.44" xlink:href="#linear-gradient-3"/><clipPath id="clip-path-7"><path class="cls-2" d="M63.55,139.53c13.88,4.46,15,11,15,11s1.83,6.18-15.35,8.24C34.63,162.18,23.93,158.67,19,156c-2.55-1.37-5.11-13,7-18.19a36.06,36.06,0,0,1,14.41-2.9c7.32,0,14.88,1.93,23.23,4.62"/></clipPath><linearGradient id="linear-gradient-7" x1="-36.84" y1="1528.94" x2="-36.48" y2="1528.94" gradientTransform="translate(-227391.25 216791.72) rotate(-134.98) scale(205.38)" xlink:href="#linear-gradient-3"/><clipPath id="clip-path-8"><path class="cls-2" d="M298.89,114.4c-14.43,6.18-15.57,15.2-15.57,15.2s-1.9,8.55,15.95,11.4c29.68,4.74,40.8-.11,46-3.8,2.66-1.9,5.32-18-7.22-25.18a29.61,29.61,0,0,0-15-4c-7.61,0-15.47,2.69-24.15,6.4"/></clipPath><linearGradient id="linear-gradient-8" x1="-42.78" y1="1534.97" x2="-42.31" y2="1534.97" xlink:href="#linear-gradient-3"/><clipPath id="clip-path-9"><path class="cls-2" d="M272.22,137.52c-6.94,2.42-7.49,6-7.49,6s-.91,3.35,7.67,4.47c14.27,1.86,19.61,0,22.09-1.49,1.28-.75,2.56-7.09-3.47-9.88a16.66,16.66,0,0,0-7.2-1.58c-3.65,0-7.43,1.05-11.6,2.51"/></clipPath><linearGradient id="linear-gradient-9" x1="-42.79" y1="1535.04" x2="-42.6" y2="1535.04" xlink:href="#linear-gradient-3"/><clipPath id="clip-path-10"><path class="cls-2" d="M269.85,127.59c-3.87.84-4.17,2.07-4.17,2.07s-.51,1.16,4.27,1.55c7.95.64,10.93,0,12.31-.52.72-.26,1.43-2.45-1.93-3.42a14.51,14.51,0,0,0-4-.54,31,31,0,0,0-6.47.86"/></clipPath><linearGradient id="linear-gradient-10" x1="-42.72" y1="1535.1" x2="-42.62" y2="1535.1" xlink:href="#linear-gradient-3"/><clipPath id="clip-path-11"><path class="cls-2" d="M89.83,188.41c3.54.65,3.82,1.6,3.82,1.6s.46.9-3.91,1.19c-7.28.5-10,0-11.27-.39-.65-.2-1.3-1.9,1.77-2.65a15.21,15.21,0,0,1,3.67-.43,33.1,33.1,0,0,1,5.92.68"/></clipPath><linearGradient id="linear-gradient-11" x1="-36.25" y1="1528.19" x2="-36.1" y2="1528.19" gradientTransform="translate(-227180.43 216791.72) rotate(-134.98) scale(205.38)" xlink:href="#linear-gradient-3"/><linearGradient id="linear-gradient-12" x1="150.44" y1="231.06" x2="149.36" y2="415.75" gradientUnits="userSpaceOnUse"><stop offset="0.13" stop-color="#fec552"/><stop offset="0.89" stop-color="#f37239"/></linearGradient><linearGradient id="linear-gradient-13" x1="171.94" y1="236.6" x2="171.94" y2="233.39" gradientUnits="userSpaceOnUse"><stop offset="0" stop-color="#fdb24c" stop-opacity="0"/><stop offset="1" stop-color="#d2fffe"/></linearGradient></defs><circle class="cls-1" cx="200" cy="200" r="196.51"/><g class="cls-3"><g class="cls-4"><rect class="cls-2" x="-205.46" y="0.12" width="728.72" height="409.9"/><polygon class="cls-5" points="564 246.57 556.29 -9.98 -250.01 -19.63 -244.23 235.44 564 246.57"/><ellipse class="cls-6" cx="174.47" cy="184.56" rx="73.04" ry="68.55"/><g class="cls-7"><polygon class="cls-8" points="291.36 139.77 315.21 115.39 339.09 139.76 315.24 164.14 291.36 139.77"/></g><g class="cls-9"><g class="cls-10"><polygon class="cls-11" points="316.5 135.24 340.36 110.86 364.24 135.23 340.38 159.61 316.5 135.24"/></g></g><g class="cls-12"><polygon class="cls-13" points="327.24 126.92 347.16 106.56 367.11 126.91 347.18 147.27 327.24 126.92"/></g><g class="cls-14"><polygon class="cls-15" points="-120.09 32.76 -16.78 -117.01 86.64 32.7 -16.67 182.47 -120.09 32.76"/></g><g class="cls-16"><polygon class="cls-17" points="94.87 148.55 47.13 103.67 -0.67 148.53 47.08 193.41 94.87 148.55"/></g><g class="cls-18"><polygon class="cls-19" points="266.33 126.89 315.96 64.77 365.64 126.86 316.01 188.98 266.33 126.89"/></g><g class="cls-20"><polygon class="cls-21" points="256.57 142.42 280.42 118.04 304.3 142.41 280.45 166.79 256.57 142.42"/></g><g class="cls-22"><polygon class="cls-23" points="261.12 129.29 274.42 120.86 287.73 129.28 274.43 137.72 261.12 129.29"/></g><g class="cls-24"><polygon class="cls-25" points="100.21 190.22 81.02 182.03 61.8 190.22 81 198.41 100.21 190.22"/></g><path class="cls-26" d="M604.83,178.66l38.26,66.94-885.2-10V174.29c43.28-11.15,195.87,28,238.6,33.58,279.92,36.38,608.34-29.21,608.34-29.21"/><rect class="cls-2" x="-205.46" y="0.12" width="728.72" height="409.9" transform="translate(317.79 410.13) rotate(-180)"/><rect class="cls-2" x="-205.46" y="0.12" width="728.72" height="409.9"/><rect class="cls-27" x="-247.81" y="233.39" width="795.42" height="180.03"/><path class="cls-28" d="M604.83,259l38.26-37-885.2,5.54v33.9c43.28,6.16,195.87-15.5,238.6-18.58C276.41,222.69,604.83,259,604.83,259"/><ellipse class="cls-29" cx="403.72" cy="342.25" rx="10.42" ry="2.62"/><ellipse class="cls-29" cx="390.4" cy="360.7" rx="12.54" ry="3.15"/><ellipse class="cls-29" cx="405.83" cy="365.48" rx="16.17" ry="4.06"/><ellipse class="cls-29" cx="414.99" cy="382.58" rx="21.7" ry="5.45"/><ellipse class="cls-29" cx="123.72" cy="372.23" rx="16.17" ry="4.06"/><ellipse class="cls-29" cx="187.38" cy="334.41" rx="10.83" ry="2.16"/><ellipse class="cls-29" cx="204.42" cy="336" rx="7.98" ry="1.6"/><ellipse class="cls-29" cx="136.1" cy="335.14" rx="7.98" ry="1.6"/><ellipse class="cls-29" cx="98.64" cy="386.64" rx="16.17" ry="4.06"/><ellipse class="cls-29" cx="120.83" cy="390.71" rx="16.17" ry="4.06"/><path class="cls-30" d="M323.93,211.1c-1.95,2.2-1.95,5.77-2.32,8.59s-1.35,7.31.4,9.81a2.22,2.22,0,0,0,3,.78c2.85-2,2.32-5.38,2.26-8.62-.06-3.07.24-7.81-1.7-10.35a1.06,1.06,0,0,0-1.63-.21Z"/><path class="cls-30" d="M329.53,212.31a11.07,11.07,0,0,0-2.14,3.17,9,9,0,0,1-2.56,2.88c-2.75,1.91.41,5.92,2.77,3.6,2.17-2.12,4.25-6.34,3-9.37a.64.64,0,0,0-1.05-.28Z"/><path class="cls-30" d="M325.6,219c.5-1.54-1.58-3.21-2.22-4.5-.73-1.48-1.08-4.28-3.44-3.68-2.52.64-1.69,3.95-.93,5.59a6.73,6.73,0,0,0,4.38,3.77,1.84,1.84,0,0,0,1.77-.47,1.93,1.93,0,0,0,.44-.71Z"/><path class="cls-31" d="M315.78,214.37S306,186.71,314.64,177c5.47-6.2,5.92,1.6,5.92,1.6,7.3-49.72,14.83,18.68,12.09,20.13,8-10.1,1.6,14.76,1.6,14.76a3.28,3.28,0,0,1-3.78,2.08c-.89-.19-2.05-1.77-2.05-1.77s-2.08,1.62-3.27,1.59a5,5,0,0,1-3.7-1.52c.11-.05-.11,1.57-2.87,2a2.47,2.47,0,0,1-2.68-1.34"/><path class="cls-32" d="M315.78,214.37S306,186.71,314.64,177c5.47-6.2,5.92,1.6,5.92,1.6-1.09-2.21,2.74,8.86,2.74,8.86s-2.68-16-6.76-10.63c-10.85,14.15,2.73,38.66,2.73,38.66s2.35-.44-.41.46a2.84,2.84,0,0,1-3-1.45"/><path class="cls-30" d="M341.35,211.24c-1.94,2.2-1.94,5.77-2.31,8.59s-1.35,7.31.4,9.8a2.2,2.2,0,0,0,3,.79c2.86-2,2.33-5.39,2.27-8.63-.07-3.07.23-7.81-1.71-10.34a1.05,1.05,0,0,0-1.63-.21Z"/><path class="cls-30" d="M347,212.44a11,11,0,0,0-2.13,3.18,9.1,9.1,0,0,1-2.57,2.88c-2.74,1.9.42,5.91,2.78,3.6,2.17-2.13,4.25-6.34,3-9.38a.65.65,0,0,0-1.06-.28Z"/><path class="cls-30" d="M343,219.08c.5-1.53-1.58-3.2-2.22-4.49-.73-1.48-1.08-4.29-3.44-3.69-2.52.65-1.7,4-.94,5.59a6.72,6.72,0,0,0,4.38,3.78,1.85,1.85,0,0,0,1.78-.47,2.12,2.12,0,0,0,.44-.72Z"/><path class="cls-31" d="M333.2,214.51s-5.65-25.21-1.14-37.4c16.36-44.22,20.76,20.28,18,21.73,8-10.1,1.6,14.76,1.6,14.76a3.27,3.27,0,0,1-3.78,2.07c-.9-.18-2.06-1.77-2.06-1.77s-2.08,1.62-3.27,1.6a5.09,5.09,0,0,1-3.7-1.52c.12,0-.1,1.56-2.87,2a2.47,2.47,0,0,1-2.68-1.34"/><path class="cls-30" d="M359.52,211.59c-1.95,2.19-1.95,5.76-2.32,8.59s-1.35,7.31.4,9.8a2.21,2.21,0,0,0,3,.78c2.85-2,2.32-5.38,2.26-8.62-.06-3.07.24-7.81-1.71-10.34a1,1,0,0,0-1.62-.21Z"/><path class="cls-30" d="M365.12,212.79A11,11,0,0,0,363,216a9,9,0,0,1-2.57,2.88c-2.74,1.9.42,5.91,2.78,3.6,2.17-2.13,4.25-6.34,3-9.38a.64.64,0,0,0-1.05-.28Z"/><path class="cls-30" d="M361.19,219.43c.5-1.53-1.58-3.2-2.22-4.49-.73-1.48-1.08-4.29-3.44-3.69-2.52.65-1.69,4-.93,5.59a6.7,6.7,0,0,0,4.38,3.77,1.81,1.81,0,0,0,1.77-.46,2.06,2.06,0,0,0,.44-.72Z"/><path class="cls-31" d="M351.37,214.86s-5.66-25.21-1.14-37.41c16.35-44.21,20.75,20.29,18,21.74,8-10.1,1.6,14.75,1.6,14.75a3.28,3.28,0,0,1-3.78,2.08c-.89-.18-2.05-1.77-2.05-1.77s-2.08,1.62-3.27,1.59a5,5,0,0,1-3.7-1.52c.11,0-.11,1.57-2.87,2a2.47,2.47,0,0,1-2.68-1.34"/><ellipse class="cls-33" cx="359.48" cy="187.73" rx="7.51" ry="21"/><ellipse class="cls-33" cx="342.69" cy="188.38" rx="7.2" ry="21.86"/><ellipse class="cls-33" cx="328.28" cy="189.5" rx="6.82" ry="23.73"/><ellipse class="cls-33" cx="320.31" cy="195.89" rx="5.39" ry="17.96"/><g class="cls-34"><path class="cls-30" d="M326.27,245.49a19.78,19.78,0,0,0,.56-8.82c-.25-1.6-2.25-2.48-3.69-2.09a3.07,3.07,0,0,0-2.09,3.69,29,29,0,0,0,1.8,7.67c.69,1.56,3,1,3.42-.45Z"/><path class="cls-30" d="M330.27,245.65c1-.91.18-2.76-.38-3.68a8.34,8.34,0,0,0-3-2.85,2.3,2.3,0,1,0-1.78,4.2,6.14,6.14,0,0,1,2.66,1.3c.52.49,1.74,1.74,2.52,1Z"/><path class="cls-30" d="M324.28,240.43a5.32,5.32,0,0,0-4.64,1.38c-1.13,1-2.12,2.92-1.09,4.35a2.09,2.09,0,0,0,2.79.73,3,3,0,0,0,.65-.45c.18-.19.59-.89.26-.38a6.08,6.08,0,0,1,.59-.75c-.43.46.12,0,.18-.12s.1-.09-.09.06a4.94,4.94,0,0,0,.56-.44l.24-.21c-.15.11-.16.12,0,0a8.1,8.1,0,0,0,1.39-1.15,1.83,1.83,0,0,0-.81-3Z"/><path class="cls-31" d="M315.63,244.34s-9.75,14.74-1.15,19.94c5.48,3.3,5.93-.85,5.93-.85,7.3,26.5,14.83-10,12.09-10.74,8,5.39,1.6-7.87,1.6-7.87s-.94-1.41-3.78-1.1a5.46,5.46,0,0,0-2.05.94,11.58,11.58,0,0,0-3.27-.85,7.39,7.39,0,0,0-3.7.81c.11,0-.11-.83-2.87-1.05-2-.15-2.68.71-2.68.71"/><path class="cls-32" d="M315.63,244.34s-9.75,14.74-1.15,19.94c5.48,3.3,5.93-.85,5.93-.85,3.09,11.19,5.2,9.57,3.21,4.45-1.05-2.69-.47-9.18-.47-9.18s-2.68,8.51-6.76,5.67c-10.85-7.54,2.73-20.61,2.73-20.61s2.35.23-.41-.25a3.7,3.7,0,0,0-3,.77"/><path class="cls-30" d="M343.7,245.42a19.79,19.79,0,0,0,.56-8.82c-.25-1.6-2.26-2.49-3.69-2.09a3.08,3.08,0,0,0-2.1,3.69,29.45,29.45,0,0,0,1.81,7.67c.68,1.56,3,.95,3.42-.45Z"/><path class="cls-30" d="M347.7,245.58c1-.92.18-2.76-.39-3.68a8.1,8.1,0,0,0-3-2.85,2.3,2.3,0,1,0-1.77,4.2,6.05,6.05,0,0,1,2.65,1.3c.53.48,1.74,1.73,2.53,1Z"/><path class="cls-30" d="M341.71,240.35a5.34,5.34,0,0,0-4.64,1.39c-1.13,1-2.12,2.92-1.09,4.35a2.1,2.1,0,0,0,2.79.73,3,3,0,0,0,.65-.46c.18-.18.59-.88.26-.37a6,6,0,0,1,.58-.75c-.42.46.12,0,.19-.12s.1-.09-.09.06l.56-.44.24-.21c-.16.11-.16.12,0,0a7.32,7.32,0,0,0,1.38-1.16,1.84,1.84,0,0,0-.8-3Z"/><path class="cls-31" d="M333.05,246.35s-5.65,12.44-1.14,18.46c16.36,21.83,20.76-10,18-10.73,8,5,1.6-7.28,1.6-7.28s.23-3.09-2.6-2.81c-.9.1-3.24,2.66-3.24,2.66a12.24,12.24,0,0,0-3.27-.79,7.79,7.79,0,0,0-3.7.75c.12,0-.1-.78-2.87-1-2-.15-2.68.66-2.68.66"/><path class="cls-30" d="M361.86,248a19.79,19.79,0,0,0,.56-8.82c-.25-1.6-2.25-2.49-3.69-2.1a3.07,3.07,0,0,0-2.09,3.69,29,29,0,0,0,1.8,7.67c.69,1.56,3,1,3.42-.44Z"/><path class="cls-30" d="M365.86,248.12c1-.91.18-2.75-.38-3.67a8.21,8.21,0,0,0-3-2.85,2.3,2.3,0,1,0-1.77,4.2,6,6,0,0,1,2.66,1.3c.52.48,1.74,1.73,2.52,1Z"/><path class="cls-30" d="M359.87,242.9a5.38,5.38,0,0,0-4.64,1.38c-1.13,1-2.12,2.93-1.09,4.35a2.09,2.09,0,0,0,2.79.73,2.44,2.44,0,0,0,.65-.45c.18-.18.59-.88.26-.38a6,6,0,0,1,.59-.74c-.43.46.12,0,.18-.12s.1-.09-.09.06a5,5,0,0,0,.56-.45l.24-.2c-.15.11-.16.12,0,0a7.71,7.71,0,0,0,1.39-1.16,1.84,1.84,0,0,0-.81-3Z"/><path class="cls-31" d="M351.22,246.81s-5.66,13.44-1.15,19.94c16.36,23.57,20.76-10.81,18-11.58,8,5.38,1.6-7.87,1.6-7.87s-.94-1.42-3.78-1.11a5.59,5.59,0,0,0-2.05.95,11.23,11.23,0,0,0-3.27-.85,7.26,7.26,0,0,0-3.7.81c.11,0-.11-.84-2.87-1-2-.16-2.68.71-2.68.71"/><ellipse class="cls-33" cx="359.33" cy="258.54" rx="7.51" ry="11.19"/><ellipse class="cls-33" cx="341.38" cy="259.85" rx="5.39" ry="9.88"/><ellipse class="cls-33" cx="326.91" cy="258.85" rx="5.39" ry="12.65"/><ellipse class="cls-33" cx="320.16" cy="254.19" rx="5.39" ry="9.57"/></g><path class="cls-35" d="M193.38,232s76.51-7.4,86.8-4.82,54-.65,54-.65,16.08-7.06,20.58-3.53c0,0,10.61-12.7,18.64-5.66,0,0-2.29-14.92,16.22-15.88,0,0,.82-15.43,21.08-13.18,0,0-1.61-32.68,29.57-31.79,0,0,30.51,0,26.56,23.9,0,0,32.28-27.18,35.81,0,0,0,31.19-5.29,20.26,23.29,0,0,25.88,13,18.18,26.46Z"/><ellipse class="cls-36" cx="385.68" cy="220.81" rx="5.35" ry="9.3"/><ellipse class="cls-36" cx="396.5" cy="216.92" rx="7.62" ry="13.12"/><path class="cls-37" d="M177.4,233.94s76.51,3.91,86.8,2.55,54,.34,54,.34,16.08,3.73,20.58,1.87c0,0,10.61,6.72,18.64,3,0,0-2.29,7.89,16.22,8.4,0,0,.82,8.15,21.08,7,0,0-1.61,17.27,29.58,16.8,0,0,30.5,0,26.56-12.63,0,0,32.27,14.36,35.8,0,0,0,31.19,2.79,20.26-12.32,0,0,25.88-6.84,18.18-14Z"/><ellipse class="cls-38" cx="367.55" cy="238.96" rx="5.35" ry="4.91"/><ellipse class="cls-38" cx="381.47" cy="242.87" rx="8.57" ry="7.88"/><ellipse class="cls-38" cx="402.87" cy="243.88" rx="9.96" ry="8.41"/><rect class="cls-39" x="-207.58" y="233.39" width="759.05" height="3.21"/><path class="cls-40" d="M-6,117.78c-6.33,23-9.29,46-10.79,69.76a239.41,239.41,0,0,0,.56,35c.9,10.69,2.16,21.67,6.11,31.73C-6.3,264,.34,273.07,10.23,277.06c9.46,3.83,19.51,1.08,26.55-6.13,7.61-7.8,11.33-18.62,13.59-29.05,2.48-11.45,4-23.17,5.41-34.79,1.61-13.39,2.75-26.84,3.12-40.32.38-13.68.91-27.9-.91-41.49-.55-4.09-3.12-7.64-7.64-7.64-4,0-7.84,3.5-7.64,7.64.71,14.84,1.61,30.13,6.68,44.24,4.54,12.6,15.14,23.5,29.37,16.86,12.42-5.79,18.5-21.22,21.65-33.65,3.59-14.16,4.38-29.41.31-43.51-.84-2.93-4.84-2.15-5.09.69-1,11.11-2.15,22.08-4.95,32.9-2.51,9.72-6.27,21.64-13.33,29.07-2.95,3.12-7.48,5.75-11.19,2.31-3.3-3.06-4.53-8.49-5.59-12.67-2.78-11-4.39-22.94-2.86-34.21l-15-2c-.52,10.58,0,21.25-.28,31.85q-.45,15.42-1.68,30.81c-.82,10.42-2,20.82-3.47,31.16-1.41,9.57-2.74,19.39-5.89,28.57-1.85,5.38-6.19,15.07-13.15,14.87-7.32-.21-12.28-9.09-14.91-14.81-4-8.68-5.63-18.44-7-27.81C-5.26,209.81-6.28,199.64-7,189.45a311.13,311.13,0,0,1,3.38-71c.23-1.49-1.89-2.16-2.3-.64Z"/><path class="cls-29" d="M-264.31-35.85s-54.16,20.59-85.09,71.43c-16.22,70.23,73.69,57.86,89.17,50-8.09,78.21,78.61-4.31,78.61-4.31s6.91,12.07,23.12,22.28,39.07-16.14,42-28.43c0,0,62.65,43,51.59-30.73,0,0,22.85,49.17,47.62,44.42,0,0,32-14.22,16.51-44.94,0,0,25.74,53.74,50.8,53.74,0,0,23.05-15,11.11-42.68,0,0,52,80.1,50.86,9.75,0,0,46.44,21,20.64-17.65,0,0,5.59-36.92-49.25-65.15C-114-119.72-264.31-35.85-264.31-35.85Z"/><path class="cls-41" d="M-137.58,375.7s-33.61-88.19-16.73-120.54c22.6-43.35,33.6-51.63,46.86-66.3,8.78-9.71,16.74-20.67,13.4-49.08-1.09-9.25-7.54-11.2-30.13,4.3s-55.24,4.31-59.43-15.5,0-71.46,0-71.46h15.07s-10.88,49.94,1.67,65.44,54.4-18.09,54.4-18.09L-94,107.06s-28.46-37.89-23.44-60.28,15.07-17.22,15.07-17.22S-118.33,70-76.48,100.17c13.07,9.41-2.51,65.44,17.58,43.05s18-49.19,37.28-41.45,23-23.13,7.91-49c0,0,16.74-31,22.09,49.08,0,0-12.75,18.27,76-2.4,0,0,7.7-35.68-12.2-63.23,0,0,12.08-23.06,27.14,54.44,0,0,23.43,5.16,26-25.83V48.51l7-8.27-3.69,31.51s31.81-4.3,48.55-15.49,15.06-1.73,15.06-1.73-33.73,19.6-56.07,21.53c0,0,4.18,10.33-30.13,24.11,0,0-7.54,22.39-32.65,25s-87,5.17-92.9,13.78,6.7,38.74-10.88,62.85S-73.13,250-50.53,295.62C-30.92,335.23-31.28,344.7-13.71,380l17.58,35.3H-138.41Z"/><path class="cls-42" d="M-99.63,263.77c7.2-44.56,86.76-86.11,69.18-62S-73.13,250-50.53,295.62C-30.92,335.23-31.28,344.7-13.71,380l17.58,35.3-61.66-3.44S-105.49,300-99.63,263.77Z"/><path class="cls-43" d="M-211.27,59.23c-11,1.31,13.23,58.79,78.38,1,0,0,32.66,82.63,60.66,14.94,0,0,22.39,39.87,58.79-9.93,0,0,8.4,40.79,49.46,0,7.11,7.17,31.24,21.94,43.85-30.89,5.83,16.52,12.14,44.8,56.93,8,0,0,64.39,88.61,57.85,1,0,0,32.66,66.7,50.39,30.86,0,0,16-26.71-3.6-37.66,0,0,33.47,25.71,36.26,1.82S255.51-2.18,243.38-3.17c0,0,.73-27.21-20.73-39.15,0,0-113.1-85.32-273.74-63.85C-158.79-91.77-213.66-90-264.31-35.85-305.48,8.18-306.34,70.65-211.27,59.23Z"/><path class="cls-44" d="M-209.91-47.26c-96.61,82.66,9.75,83.45,12.28,90.69,10,28.76,26.78-2.87,26.78-2.87s1.42,21.08,19.53,20.14c9.84-.51,24.32-20.81,24.32-20.81s17.68,21.44,26.45,21.63c7.7.17,15.63-18.09,15.63-18.09s18.7,33,33.26-5.31c32,60.42,44.29.72,44.29.72S7.85,55.47,21.65,57c20.08,2.28,33.27-17.71,35.5-25.74,0,0,47.43,28.12,39.06-20.1,0,0,17.3,32.15,36.05,29.05,0,0,24.21-9.3,12.49-29.39,0,0,19.49,35.14,38.46,35.14,0,0,17.45-9.82,8.41-27.91,0,0,39.39,52.37,38.5,6.38,0,0,35.15,13.71,15.63-11.54,0,0-9.18-27.47-43.77-56.22-7.54-6.27-44.87-32.54-103-43.7C69.38-92.67-14.19-99.52-71-93.58-142.43-86.12-186.47-65.63-209.91-47.26Z"/><path d="M-142-69s-9.82,16.6,18.85,18.71c0,0-3.41,4.21-3.07,15.1,0,0-43.35,20.71-20.14,25.63,0,0,16.38-1.06,23.21-19.67a11.78,11.78,0,0,0,13,3.16S-132.45-8-122.35-2c0,0,15.22,7.12,29.22-15.36,0,0,6.48,3.51,10.23-1.4,0,0,1.71,23.88,12.63,24.93,0,0,15.36,7,16-29.85,0,0,11.95,31.79,34.14,30.38,0,0,26.62-.65,14.67-38.69H.38S1.07-15.8,7.55-14.8c0,0,7.17,7.31,11.61-7.43v-2.46s11.26,8.78,19.11,2.11c0,0-1.71,28.09,15,21.41,0,0,6.14-2.1,7.5-10.88l10.59,1.76S76.15,9,86.05,4.45,96.29-14.8,96.29-14.8s7.17,12.23,14-3.92c0,0,18.78,13,27.65,6.32s7.51-17.91,3.41-29.15c0,0,11.27,9.49,15.36,2.81,0,0,7.17-11.58-8.87-29.14-8-8.78-78-27.53-143.06-27.58S-117-84-123-82.23C-144.25-75.92-142-69-142-69Z"/><ellipse cx="120.29" cy="9.45" rx="5.3" ry="10.54" transform="translate(10.35 59.16) rotate(-28.82)"/><ellipse cx="15.58" cy="7.36" rx="5.47" ry="10.88" transform="translate(-1.62 8.42) rotate(-28.82)"/><path class="cls-45" d="M-5.51,118.18a23.78,23.78,0,0,1,10.37-10.8.06.06,0,0,0-.05-.1A22.76,22.76,0,0,0-5.7,118.06c-.06.13.13.25.19.12Z"/><path class="cls-43" d="M251.38,8.65s1-15,22.31-17.14-4.45,25.71-22.31,17.14"/><path class="cls-43" d="M265.58,15.22s5-12.35,28-6.76-11.48,20.23-28,6.76"/><path class="cls-43" d="M258.16,59.13s9.25-4.23,19.36,11.53-17,5.16-19.36-11.53"/><path class="cls-43" d="M206.13,57.29s9.92,2.07,9.27,20.94-16.74-5.92-9.27-20.94"/><path class="cls-43" d="M162.19,57s8.81,5.14,2.49,22.87-14.12-11-2.49-22.87"/><path class="cls-43" d="M276.76,30.33s7.66-6.81,21.78,5.26-14.8,10-21.78-5.26"/><path class="cls-46" d="M228.27,44.22s7.47-2.1,13.35,11-13.44,1.88-13.35-11"/><path class="cls-47" d="M-2.94,419.43a170.65,170.65,0,0,0,31.57-43.22c3.95-7.74,7.6-15.66,10.87-23.71a86.55,86.55,0,0,0,4.6-13.31c.89-4,2.14-8.87,1.95-13-.1-2-3-3.84-4.54-1.87-2.52,3.26-4.35,7.48-6.22,11.15s-3.25,7.58-4.83,11.3c-3.46,8.14-7,16.2-11,24.08-8,15.7-16.21,31.38-24.7,46.81a1.47,1.47,0,0,0,2.3,1.77Z"/><path class="cls-47" d="M55.1,343.12c-1.84,4.41-3.82,8.75-6,13-1.7,3.33-4.15,6.33-6.22,9.47-4.53,6.84-10.25,12.88-15.46,19.2s-10.94,11.83-16.58,17.65S-.81,413.55-5,420.43c-2.19,3.59,1.49,8.9,5.7,7.42,16.23-5.71,27.8-22.45,36.65-36.43,4.53-7.14,7.39-15.09,10.57-22.85,3.3-8.07,6-16.69,8.48-25.09.25-.85-1-1.12-1.28-.36Z"/><path class="cls-47" d="M71.3,343.89A127.43,127.43,0,0,1,47.82,387.5a215.27,215.27,0,0,1-15.89,16.92C26.57,409.66,19.63,414,15.09,420c-1,1.34.69,3.53,2.25,2.92,7.06-2.74,13.14-9.39,18.38-14.67A132.23,132.23,0,0,0,51.08,389a213.24,213.24,0,0,0,22.78-44.42c.59-1.58-2-2.35-2.56-.7Z"/><path class="cls-47" d="M-3.38,319.53c2.53,13.05,4.76,26.73,4.1,40.08-.31,6.3-.8,12.64-.91,18.95-.09,5.9-1.45,13.25.23,18.91.78,2.61,5,3.67,6.32.82,2.51-5.53,1.91-12.78,1.92-18.79a97.92,97.92,0,0,0-2.13-19.68c-2.76-13.59-4.63-27.23-8.25-40.64a.66.66,0,0,0-1.28.35Z"/><path class="cls-47" d="M19.21,326.19a75,75,0,0,1,.18,24.7C18.2,358.13,15,365,13.93,372.21a2.14,2.14,0,0,0,3.88,1.64c4.72-6.35,5.63-15.57,5.9-23.26a77.9,77.9,0,0,0-3.22-24.75.66.66,0,0,0-1.28.35Z"/><path class="cls-47" d="M78.73,360.18a182.33,182.33,0,0,1-9,30.83c-1.91,4.88-4.15,9.6-5.85,14.55-1.63,4.73-4.46,9.67-4.68,14.67-.12,2.74,3.38,3.91,5.22,2.16,3.54-3.37,5.3-9.11,7.22-13.55a89.89,89.89,0,0,0,4.63-15.07c2.54-10.72,4.53-21.68,6-32.6.32-2.3-3.1-3.39-3.58-1Z"/><ellipse class="cls-48" cx="47.79" cy="318.6" rx="13.12" ry="7.95" transform="translate(-267.77 253.68) rotate(-69.84)"/><ellipse class="cls-49" cx="45.97" cy="320.83" rx="13.12" ry="7.95" transform="translate(-271.05 253.44) rotate(-69.84)"/><ellipse class="cls-50" cx="55.74" cy="343.3" rx="13.12" ry="7.95" transform="translate(-285.74 277.33) rotate(-69.84)"/><ellipse class="cls-48" cx="75.8" cy="342.84" rx="13.12" ry="7.95" transform="translate(-272.16 295.86) rotate(-69.84)"/><ellipse class="cls-49" cx="74.05" cy="344.62" rx="13.12" ry="7.95" transform="translate(-274.98 295.39) rotate(-69.84)"/><ellipse class="cls-51" cx="84.46" cy="362.47" rx="13.12" ry="7.95" transform="translate(-284.91 316.86) rotate(-69.84)"/><ellipse class="cls-50" cx="82.41" cy="364.34" rx="13.12" ry="7.95" transform="translate(-288.02 316.16) rotate(-69.84)"/><ellipse class="cls-50" cx="20.95" cy="318.79" rx="13.12" ry="7.95" transform="translate(-285.53 228.61) rotate(-69.84)"/><ellipse class="cls-52" cx="-0.66" cy="307.3" rx="13.12" ry="7.95" transform="translate(-288.91 200.79) rotate(-69.84)"/><ellipse class="cls-53" cx="-2.16" cy="309.66" rx="13.12" ry="7.95" transform="translate(-292.11 200.93) rotate(-69.84)"/><path class="cls-40" d="M360.34,388.15c-3.13-11.72-6.37-23.3-9.9-34.92-3.31-10.93-4.24-24-10.11-33.87a2.69,2.69,0,0,0-4.86.64c-3.23,11.71,1.55,25.74,5,36.93a98.12,98.12,0,0,0,17.43,32.64c.94,1.2,2.79-.11,2.44-1.42Z"/><path class="cls-40" d="M327,330.76c.5,5.57.95,11.31,1.79,16.79.95,6.23,1.5,12.58,3.78,18.53,4.25,11.07,10.21,25.67,22.23,30,3.89,1.4,6.92-2.76,6.21-6.21-1.15-5.62-4.84-10.18-8-14.84s-6.72-9.4-9.82-14.33c-2.88-4.57-6.2-9-8.7-13.82a72.23,72.23,0,0,1-6.18-16.32c-.17-.71-1.37-.58-1.3.18Z"/><path class="cls-40" d="M314.92,329.73a170.18,170.18,0,0,0,10.15,33.17,82.78,82.78,0,0,0,7.82,14.77c2.94,4.26,6.15,9.19,10.71,11.83a2,2,0,0,0,2.73-2.73c-2.22-4.58-6.31-8.36-9.28-12.48s-6.14-8.46-8.8-13a79.52,79.52,0,0,1-10.72-31.93,1.32,1.32,0,1,0-2.61.35Z"/><path class="cls-40" d="M369.38,321.28C365.14,330,361.72,339,358,347.89a62.38,62.38,0,0,0-4,13c-.75,4.13-1.85,8.85-.73,13,.76,2.77,4.91,3.5,6.31.82,2.06-3.93,2.27-8.95,2.9-13.33.56-3.93.91-7.95,1.24-11.91.8-9.55,3.61-18.64,6.89-27.64.25-.7-.89-1.18-1.22-.51Z"/><path class="cls-40" d="M353.29,323.23A122.12,122.12,0,0,0,346,348.87c-1.25,7.57-2.76,16.5-.13,23.9.62,1.77,3.72,2.26,4.09,0,1.27-7.58-.05-15.64.34-23.32a120.57,120.57,0,0,1,4.23-25.87c.23-.84-1-1.12-1.28-.35Z"/><path class="cls-40" d="M307,339.51c-.4,7.69-.57,15.48-.36,23.18.18,6.56.68,15.28,4.76,20.7,1.35,1.79,5.15,2.18,5.58-.73.95-6.48-1.42-13.77-3-20a112.06,112.06,0,0,1-3.27-23.11,1.86,1.86,0,0,0-3.72,0Z"/><ellipse class="cls-54" cx="335.98" cy="315.06" rx="5.44" ry="8.99" transform="translate(-49.98 63.7) rotate(-10.08)"/><ellipse class="cls-52" cx="327.66" cy="330.76" rx="5.44" ry="8.99" transform="translate(-52.86 62.49) rotate(-10.08)"/><ellipse class="cls-54" cx="314.19" cy="328.05" rx="5.44" ry="8.99" transform="translate(-52.59 60.09) rotate(-10.08)"/><ellipse class="cls-50" cx="306" cy="340.24" rx="5.44" ry="8.99" transform="translate(-54.85 58.84) rotate(-10.08)"/><ellipse class="cls-54" cx="354.05" cy="318.4" rx="5.44" ry="8.99" transform="translate(-50.28 66.92) rotate(-10.08)"/><ellipse class="cls-52" cx="370" cy="313.24" rx="5.44" ry="8.99" transform="translate(-49.13 69.63) rotate(-10.08)"/><ellipse class="cls-54" cx="369.51" cy="316.29" rx="5.44" ry="8.99" transform="translate(-49.67 69.59) rotate(-10.08)"/><path class="cls-43" d="M130.42,413.18S99,399.37,90.18,406.28c0,0-20.74-24.85-36.46-11.08,0,0,4.48-29.17-31.71-31.06,0,0-1.61-30.17-41.22-25.77,0,0,3.15-63.9-57.84-62.17,0,0-59.64,0-51.94,46.74,0,0-63.11-53.15-70,0,0,0-61-10.35-39.61,45.55,0,0-50.6,25.33-35.55,51.74Z"/><path class="cls-55" d="M-211.52,357.29s-2.28-17.36,23.31-15.53c0,0,22.85-48.9,79.06-43.87,0,0,16.45-5.95,20.56,17.36,0,0,37-33.82,34.73,6.86,0,0-1.83,8.68-3.65,10.51,0,0,21-3.66,4.57,24.67,0,0,15.08-8.22,11.42,5.49,0,0,37-29.25,34.27,16,0,0,33.36-20.56,40.68,14.17,0,0,17.36-16.45,35.64,4.11l14.62,26.51-302.52-6.86Z"/><g class="cls-56"><ellipse class="cls-57" cx="172.15" cy="240.63" rx="96.81" ry="2.1"/><ellipse class="cls-57" cx="171.16" cy="254.06" rx="106.76" ry="3.98"/><ellipse class="cls-57" cx="172.13" cy="270.74" rx="130.23" ry="7.01"/></g><polygon class="cls-58" points="140.53 420.19 140.53 352.44 359.13 352.44 376.25 365.52 376.4 367.74 378.63 367.74 401.54 385.18 401.54 387.74 404.55 387.7 452.21 425.11 140.53 420.19"/><polygon class="cls-59" points="376.25 365.52 140.45 365.52 140.45 352.68 360.25 352.68 376.25 365.52"/><polygon class="cls-59" points="401.54 385.18 140.45 385.18 140.45 367.74 378.63 367.74 401.54 385.18"/><polygon class="cls-59" points="434.62 411.68 140.45 412.24 140.45 386.64 404.55 387.7 434.62 411.68"/><g class="cls-60"><rect class="cls-61" x="139.71" y="352.18" width="220.54" height="0.51"/><polygon class="cls-61" points="378.63 367.74 140.45 367.74 140.53 367.62 378.63 367.48 378.63 367.74"/><polygon class="cls-61" points="404.55 387.5 140.02 387.55 140.02 387.18 404.76 387.18 404.55 387.5"/></g><polyline class="cls-62" points="145.42 358.83 145.42 421.62 161.82 421.62 156.2 358.83 145.42 358.83"/><polyline class="cls-62" points="340.25 358.08 381.72 421.62 418.85 417.28 351.03 358.08 340.25 358.08"/><rect class="cls-63" x="145.42" y="288.39" width="10.78" height="70.44"/><rect class="cls-63" x="339.84" y="288.39" width="10.78" height="70.44"/><rect class="cls-61" x="145.42" y="286.03" width="10.78" height="2.36"/><rect class="cls-61" x="339.84" y="286.03" width="10.78" height="2.36"/><rect class="cls-64" x="338.96" y="286" width="0.88" height="72.82"/><rect class="cls-64" x="144.56" y="286.22" width="0.88" height="72.82"/></g><ellipse class="cls-65" cx="237.72" cy="372.96" rx="78.99" ry="19.04"/><path class="cls-66" d="M268.84,370s-.35,1.54-6.21,2.85-18.71-1.47-22.35-4.84a41.74,41.74,0,0,0-5.14-4.31,3.74,3.74,0,0,1,.08-.53c.32-1.45,1.88-5.36,9.35-5.36l5.67-.11,14.54-1.1a18.18,18.18,0,0,1,4.05,10.83C268.87,368.25,268.88,369.11,268.84,370Z"/><path class="cls-67" d="M268.84,370s.93,1.41-4.94,2.71-20-1.33-23.62-4.7a41.74,41.74,0,0,0-5.14-4.31,3.74,3.74,0,0,1,.08-.53c7.73,5.28,20.24,6.55,27.4,6.06,3.69-.25,5.42-1,6.21-1.8C268.87,368.25,268.88,369.11,268.84,370Z"/><path class="cls-67" d="M240.11,362.81a8.35,8.35,0,0,1,3,3.58,12.38,12.38,0,0,1,1.19,5.12c-.06,2.37-.62,4.85-2.7,5.79-4.37,1.95-16.06,3.08-34.76-5.48a8.14,8.14,0,0,1-3.41-2.88c-1.24-1.91-3-6.32,1.6-8.15,7.74-3.09,17.37,1.88,24-.24C233.49,359.13,237.77,361.25,240.11,362.81Z"/><path class="cls-66" d="M242.51,362.26a13,13,0,0,1,1.88,6.39c.28,4.67-1.39,4.82-3.47,5.71-4.37,1.87-15.67,2.88-34.35-5.3a7.88,7.88,0,0,1-3.4-2.75c-1.25-1.82-1.85-4.41,2.75-6.17,7.74-2.94,16.22.19,22.85-1.84S242.51,362.26,242.51,362.26Z"/><path class="cls-68" d="M224.53,360.05s-4.83,4.84,5,7.05S242,363.23,242,363.23Z"/><path class="cls-66" d="M224.67,359s-6.63,1-5.94,6.91"/><path class="cls-69" d="M213.44,279.26s-2.21,11.66,1.84,27.11,10.89,39.76,10.89,39.76-.76.67.19,8.21-3.12,3.53-1.81,9.16c0,0,1.47,3.35,9.93,2.94s8.3-3.32,8.3-3.32-1.34.16-.58-4.13-1.7-1.56-.58-7.63-1.24-3.22-.3-10.14-.75-18-1.14-25,.14-5.78.14-5.78L244.8,334s1,6.22,1.87,11.93,1.89,8,2.36,13.66c0,0,2.77,3.79,10.8,2.63s6.27-3.69,6.27-3.69A52.11,52.11,0,0,0,262.89,343c-3.07-8.28-5.11-25-4.83-31.17s1.92-20.12-2.75-29.7"/><path class="cls-69" d="M232.38,310.07s9,1.8,15.52-5.25"/><path class="cls-70" d="M231,205.71s2.3,2.19-.32,6.16l16.51-1.57L246.5,203Z"/><path class="cls-71" d="M263,238.72a34.7,34.7,0,0,1,2.19,14.89c-.78,7.68-9.09,16.14-9.09,16.14l-7.83-6.11L247,253.3l1.73-6.9,7.36-7.21Z"/><path class="cls-72" d="M264.84,239.51s-.47,6.42-10.5,8.77l-2-2.72L237.88,226l13.48-10.82s6.33-.67,12.12,19.2Q264.17,236.75,264.84,239.51Z"/><path class="cls-73" d="M264.84,239.51s-.47,6.42-10.5,8.77l-2-2.72c7.5-3.73,10.24-8.79,11.16-11.15Q264.17,236.75,264.84,239.51Z"/><path class="cls-72" d="M256.22,227s-.94,22.88-.11,32.6,2.77,23.3,2.77,23.3-7.83,7.26-29.15,7.05-21.63-8.46-21.63-8.46,12.28-60.76,20.74-65.67,17.56-5.22,23.83-.21"/><path class="cls-72" d="M230.83,211.45a22.88,22.88,0,0,1,10.58-3.57,10,10,0,0,1,10.11,6.6h0S236.89,211,229,214.8Z"/><path class="cls-71" d="M204.08,288.14s1.44,3.95.5-4.59c0,0,15.28-17.87,17.24-30.33,0,0-6.82,1.18-11.84-3.06,0,0-5.27,21.89-11.23,30,0,0-3.65,6.06-6.89,8.88"/><path class="cls-72" d="M232.5,213.75s-14.31,3.66-18.08,14.73a133.4,133.4,0,0,0-5.22,21.21s8.78,7.94,16.72,2.09l1.36-19.22"/><path class="cls-73" d="M209.62,244.57s9.51,5.23,16.3,1.68l-.21,5.12s.21,2.82-9.51,2.19c0,0-5.33-1.15-7.1-4.39Z"/><path class="cls-71" d="M204.81,283.08s.79,7.05-1.57,12.53c0,0-.94,3.77.63,4.39,0,0,.21.53,1.52-.73s1.67,1.2.52,2.77-3.92,3.66-5.59,0c0,0-1.52,2.19-3.45-.78,0,0-.83,1.09-2.09-.47,0,0-1,1-3.19-1.78s-2.56-5.22-.26-9.77,7.74-9.25,7.74-9.25"/><path class="cls-71" d="M201.68,303.82s-4.55-3.45-3-10.87"/><path class="cls-71" d="M197,301.52a14.1,14.1,0,0,1-1.47-8.78"/><path class="cls-71" d="M194.94,301.1s-3.19-2.66-2.46-8.31"/><path class="cls-66" d="M248.07,358a5.23,5.23,0,0,0-3.76,3.45"/><path class="cls-70" d="M212.48,151.59s-1.43,2.31-1.21,12.66c0,0,1.1,9.69-2,13.11s-4.85,3.41-2.21,6.71l1.88,1.55s.88,13,12,17.95,23.13-.88,23.13-.88,20-10.14,12.77-43.17S213.69,146.41,212.48,151.59Z"/><ellipse class="cls-74" cx="212.44" cy="169.15" rx="3.01" ry="5.29"/><path class="cls-75" d="M215.5,169.15a9.45,9.45,0,0,1-.53,3.31,5,5,0,0,1-.84,1.53,2.53,2.53,0,0,1-1.69.93,2.81,2.81,0,0,1-1.92-.7,5.2,5.2,0,0,1-1.18-1.52,8.05,8.05,0,0,1,0-7.1,4.84,4.84,0,0,1,1.18-1.51,2.76,2.76,0,0,1,1.91-.7,2.53,2.53,0,0,1,1.69.93,4.9,4.9,0,0,1,.84,1.53A9.35,9.35,0,0,1,215.5,169.15Zm-.1,0a8,8,0,0,0-.64-3.21,2.33,2.33,0,0,0-4.62,0,8.57,8.57,0,0,0,0,6.4,2.33,2.33,0,0,0,4.62,0A8,8,0,0,0,215.4,169.15Z"/><ellipse class="cls-76" cx="210.68" cy="169.43" rx="1.48" ry="2.59"/><path class="cls-76" d="M211.57,157.26v2.48s4.63-2.32,5.45,2.72l.33,3.14s1.65-6.44-2.31-7.68S211.57,157.26,211.57,157.26Z"/><path class="cls-76" d="M203.92,146.31s.38,8.14,7.49,10c0,0,.08-5.09,2.8-4,3.32,1.28,9.92,5.7,11.07,11.65s2.64,12.88,2.64,12.88l5.62,12s-2.64,7,5.29,12.31c0,0-.91,3.88,6.44,4.13s27.92-6.36,34.94-23.21,7.1-41.88-13.38-51.54l-6-3.47,8.5-.17s-5.53-4.79-11.72-1.9c0,0,.57-1.73,5.69-4.37,0,0-7.84-2.65-10.07,4.79a12.34,12.34,0,0,0-5.87-7l2.23,7s-14.28-3.14-22.79,4-14.62,13.8-21.89,15.37c0,0,1.66,1.56,7,2.8A10.34,10.34,0,0,1,203.92,146.31Z"/><path class="cls-70" d="M227.76,177.33s2.56-4.38,5.7-5.62,5.86,5.78,4,12.31-7.36,6.94-7.36,6.94"/><path class="cls-77" d="M233.62,175.92s-3.47,1.49-4.29,6.94c0,0,.66,0,1.9-2s-1,4.46,1,3.14,1.82-4.87,1.73-8"/></g></svg>