<svg id="Layer_1" data-name="Layer 1" xmlns="http://www.w3.org/2000/svg" xmlns:xlink="http://www.w3.org/1999/xlink" viewBox="0 0 300 350"><defs><style>.cls-1,.cls-4{fill:#cbfdff;}.cls-1,.cls-22{stroke:#2ca0ce;stroke-width:3px;}.cls-1,.cls-10,.cls-13,.cls-16,.cls-17,.cls-20,.cls-22,.cls-6,.cls-7,.cls-8{stroke-miterlimit:10;}.cls-2{fill:#fff;}.cls-13,.cls-22,.cls-3{fill:none;}.cls-5{clip-path:url(#clip-path);}.cls-6{fill:#d73205;}.cls-10,.cls-6{stroke:#633b1f;}.cls-7{fill:#f8e95c;stroke:#492a15;}.cls-14,.cls-8{fill:#fbd3c7;}.cls-8{stroke:#9e673f;}.cls-9{fill:#e8b2a6;}.cls-10{fill:#9f0e00;}.cls-11{fill:#c68879;}.cls-12{fill:#301108;}.cls-13{stroke:#301108;}.cls-15{fill:#9e673f;}.cls-16{fill:#efe741;stroke:#ceb85b;}.cls-17{fill:#ffd713;stroke:#bc990a;}.cls-18{fill:#f7eeb0;}.cls-19{fill:#ccc133;}.cls-20{fill:#73cdf4;stroke:#509acc;}.cls-21{fill:#f58778;}.cls-23{clip-path:url(#clip-path-2);}.cls-24{clip-path:url(#clip-path-3);}.cls-25{clip-path:url(#clip-path-4);}.cls-26{fill:url(#linear-gradient);}.cls-27{fill:#00470c;}.cls-28{fill:#436003;}.cls-29{fill:#01340b;}</style><clipPath id="clip-path"><rect class="cls-1" x="12.5" y="10" width="275" height="330" rx="25"/></clipPath><clipPath id="clip-path-2"><circle class="cls-2" cx="300" cy="570" r="196.51"/></clipPath><clipPath id="clip-path-3"><rect class="cls-3" x="-105.46" y="370.12" width="728.72" height="409.9"/></clipPath><clipPath id="clip-path-4"><path class="cls-3" d="M47.69,372.65c-30,14.9-32.42,36.66-32.42,36.66s-3.95,20.62,33.21,27.49c61.79,11.43,84.94-.26,95.68-9.16,5.54-4.58,11.07-43.53-15-60.71-10.41-6.86-20.68-9.7-31.19-9.7-15.84,0-32.19,6.47-50.26,15.42"/></clipPath><linearGradient id="linear-gradient" x1="56" y1="1906.44" x2="57.15" y2="1906.44" gradientTransform="matrix(145.18, -145.28, -145.28, -145.18, 268818.64, 285404.41)" gradientUnits="userSpaceOnUse"><stop offset="0" stop-color="#fff9bf"/><stop offset="1" stop-color="#ffda52"/></linearGradient></defs><rect class="cls-4" x="12.5" y="10" width="275" height="330" rx="25"/><g class="cls-5"><path class="cls-6" d="M92.42,204.15s-43.92,9.79-42,45.32,3.08,48.11,7.27,61.81c0,0-1.58-6.62,36.27-18.18,0,0,13.52,47,21.07,66.85,0,0,56,9.79,104.06-19.86l-9.23-42.23,21.25-18.47s-12-51.74-20.41-69.64-8.4-17.07-31.05-13.15S92.42,204.15,92.42,204.15Z"/><path class="cls-7" d="M100,295.34s82.24-7.83,97.9-35.8c0,0,6.15,0,8.95,22.93s-91.19,47.55-104,39.72Z"/><path class="cls-7" d="M57.45,310.63s.94-6,31.15-17.53l.74-17.9s-14.17-2.05-36.17,13.24A68.94,68.94,0,0,0,57.45,310.63Z"/><path class="cls-7" d="M197.68,255.81s8.39-5.41,24.62-9.51l5.22,25.92L204,282.47Z"/><path class="cls-8" d="M157.59,205.55a46.2,46.2,0,0,1-4.47,13.08c-4.18,7.94-12,16.08-26,13.49-13.6-2.51-19-10.4-21.06-17.29a29.07,29.07,0,0,1-1-11.52Z"/><path class="cls-9" d="M157.59,205.55a46.2,46.2,0,0,1-4.47,13.08c-17.44,6.88-38.07,0-47.07-3.8a29.07,29.07,0,0,1-1-11.52Z"/><path class="cls-8" d="M241.64,230.73s4.76,1.25,2.24,5.31-8.81.14-8.81.14c-7.13-5.73-2.38-11.19-2.38-11.19-4.75-2.94,0-8.53,0-8.53-4.61-7.55,3.08-11.33,3.08-11.33s-3.64,2.1-4.06-3.35,8.4-8.68,8.4-8.68,11.46-3.77,22.79-.83,10.35,27-.56,43.07a24.57,24.57,0,0,1-14.4,11L244,247.93s5.6,37.48,3.78,60.41-21,24.2-21,24.2-12-4.76-15.66-20.28S204,282.47,204,282.47l20.28-9.23,1-27.41s-9.37-7.13-4.47-17.2l3.77-6.86"/><path class="cls-8" d="M232,202.75s-7.83-7-10.77,2.66,3.08,21.12,10.07,18.74"/><path class="cls-8" d="M231.15,211.29a15,15,0,0,0-3.63-8.68"/><path class="cls-8" d="M234.23,205.83s9.09-4.75,22.24-1.4"/><path class="cls-8" d="M232,217.16s9.93-6.43,25.18-.7"/><path class="cls-8" d="M231.15,227.79s-.55-7.69,22.8-4.62"/><path class="cls-8" d="M231.71,203a2.88,2.88,0,0,0,4.06,2.1s-4.71,1.91-4.43,6.67,1.35,4.66,1.35,4.66-3.77,3.82-1.07,7.65"/><path class="cls-8" d="M224.35,272.4s-3.08,16.51-1.59,26.29"/><path class="cls-10" d="M85.15,294.5c-33.35,12.92-26.8,18-25.62,18.66a.9.9,0,0,0,.32.09h0A15.69,15.69,0,0,0,68.64,311h0l17.9-8.95Z"/><path class="cls-8" d="M66,303.54l8.08-4.68c1.15-.53,2.31-1,3.49-1.47l7.55-2.89s-1.4,18.6,2.65,30.35"/><path class="cls-6" d="M142.07,226.53l8.11,32.73s-8.67,6-13.15,3.07l-8.67-30.91S129.48,225,142.07,226.53Z"/><path class="cls-6" d="M149.62,208.63s-5.18,16.08-15.94,18.46c0,0,20.83,1.26,25.73,9.37,0,0,14-7.69,15.24-33.85S149.62,208.63,149.62,208.63Z"/><path class="cls-6" d="M133,227.79l-.55-.07c-2.88-.44-16.54-3.31-29.1-19.23,0,0-14.27,16.5,6.57,32.44C109.9,240.93,124.72,243,133,227.79Z"/><path class="cls-8" d="M88.94,121.64s1-14-15.08-15.67-20.2,36.37,2.92,39.44"/><path class="cls-11" d="M80.67,132.83S82.86,118.28,68.75,118C68.75,118,78.48,120.24,80.67,132.83Z"/><path class="cls-11" d="M76.66,122.2S69.36,125,72,135.34s.49-.14.49-.14S70.09,130.17,76.66,122.2Z"/><path class="cls-8" d="M215.21,151c0,33.21-39.59,61.53-80.84,61.53s-72.44-20.49-72.44-53.7c0-15,7.35-29.67,19.22-41.21,6.33-6.16,3.51-13.74,10.71-21.17C101,87,120.62,78.34,133.26,78.28c63.77-.28,57.85,26.35,71.26,43.08A46.8,46.8,0,0,1,215.21,151Z"/><path class="cls-12" d="M129.62,96.74s-2.8,10.63.84,10.91,2.24-11.19,24.61-7.83l4.48,1.4s-11.19-8.67-26.29-1.68Z"/><path class="cls-12" d="M115.07,100.94l-3.63,7.83s-8.67-9.23-18.74-3.63c0,0,3.63-10.07,11.47-3.92s4.75,2.52,4.75,2.52l5-2.52"/><path class="cls-12" d="M135.49,118s16.79-9,33.57,1.12C169.06,119.12,155.91,106.53,135.49,118Z"/><path class="cls-12" d="M110.88,119.4s-19-4.19-29.09,6.15C81.79,125.55,82.91,114.09,110.88,119.4Z"/><path class="cls-12" d="M132.91,115.72a20.61,20.61,0,0,1,6-6.17,24,24,0,0,1,7.81-3.46,30.78,30.78,0,0,1,8.48-.61,15,15,0,0,1,2.11.23l2.1.3c1.39.31,2.76.66,4.13,1-1.39-.29-2.76-.6-4.15-.87l-2.1-.24a16.49,16.49,0,0,0-2.1-.16,28.13,28.13,0,0,0-4.21.13,26.37,26.37,0,0,0-4.14.72,23.59,23.59,0,0,0-7.5,3.58,19.88,19.88,0,0,0-5.57,6Z"/><path class="cls-13" d="M111.72,118.75S101.46,107,86.36,112.41"/><path class="cls-14" d="M111.72,134.78s.51-12,8.53-9.79,7.83,7.42,7.83,7.42"/><path class="cls-15" d="M111.67,134.78a16.12,16.12,0,0,1,.07-3.4,15.12,15.12,0,0,1,.92-3.36,7,7,0,0,1,.88-1.58,6.41,6.41,0,0,1,1.29-1.37,5.5,5.5,0,0,1,3.62-1.23,7.45,7.45,0,0,1,1.85.3c.58.16,1.11.36,1.66.55A12.1,12.1,0,0,1,125,126.4a9.27,9.27,0,0,1,2.34,2.65,5.8,5.8,0,0,1,.75,3.36H128a7.25,7.25,0,0,0-3.42-5.39,13.89,13.89,0,0,0-3-1.48,10.59,10.59,0,0,0-3.21-.72,4.73,4.73,0,0,0-3,1,7,7,0,0,0-2,2.57,17.7,17.7,0,0,0-1.6,6.41Z"/><path class="cls-12" d="M202.06,114.93s18.75-24.34,4.2-40.84l-6.15-5.32-.28,7.28S185,46.4,140.53,52.27c0,0-29.37-2.24-58.46,15.66,0,0-11.43,6.21-14.51,11.52,0,0,12-8.72,22.9-2.57l-.08,0A19.68,19.68,0,0,0,74,101.39l1.13,4.3s8.39,4.48,5.31,12.87c0,0,12.31-22.38,46.15-29.93s48.11-.28,58.18,5.88S179.41,108.49,202.06,114.93Z"/><path class="cls-8" d="M199.64,118.79s-1.12-14,17.34-15.66,23.22,36.36-3.35,39.44"/><path class="cls-11" d="M209.15,130s-2.52-14.54,13.71-14.82A18.66,18.66,0,0,0,209.15,130Z"/><path class="cls-11" d="M213.77,119.35s8.39,2.8,5.31,13.15-.56-.14-.56-.14S221.32,127.33,213.77,119.35Z"/><path class="cls-8" d="M87.85,325.36c-5-15.66-2-41.21-2-41.21s1.49-24.8-6.34-32.82a56.69,56.69,0,0,1-13.8-24.05c-2-7.09-7.09-6.16-11.38-6.16s-3.17-3-3.17-3c1.5-4.1,7.84-8,16-5.6s12.31,9.89,12.31,9.89,5.59,7.27,20.51-2.05,18.09-19.58,18.09-19.58,8,.74,2,11.74c0,0,1.68,1.68-1.49,7.28a33,33,0,0,1-.93,16.41l-4.48,7.64a22.83,22.83,0,0,0,9.14-5.59c3.91-4.1,5.78,3.54,0,9.51s-16.41,6.71-16.41,6.71a105.74,105.74,0,0,0,1.86,23.12c2.43,12.31,10.63,45.5,7.09,60.23s-14.55,14.92-14.55,14.92S81.14,349.42,66,303.54"/><path class="cls-8" d="M120.76,211.15s-5.69,9.41-20,22.84"/><path class="cls-8" d="M118.8,219.35s-4.38,16.13-15.38,23.22"/><path class="cls-16" d="M58.85,200.1,124,186.39S120,213,94.94,215.48,58.85,200.1,58.85,200.1Z"/><path class="cls-17" d="M56.06,200l3.49-.14s16.92,19.3,42.8,10.91c0,0,16.5-3.64,21.12-24.62l2.37-.84s-1.53,23.36-23.35,30.49S60.53,213.94,56.06,200Z"/><polyline class="cls-18" points="102.58 191.29 112.42 193.8 95.36 192.96 103.19 205.27 92.28 193.52 91.44 209.61 89.9 193.66 81.37 207.23 84.73 194.92 73.68 204.29 78.71 196.46 102.58 191.29"/><circle class="cls-19" cx="106.47" cy="197.65" r="1.75"/><ellipse class="cls-19" cx="96.47" cy="202.4" rx="1.54" ry="1.75"/><ellipse class="cls-19" cx="77.73" cy="206.18" rx="0.84" ry="1.05"/><line class="cls-6" x1="204.86" y1="282.19" x2="192" y2="232.12"/><path class="cls-20" d="M53,146.25a53.13,53.13,0,0,1-12.45,8.39c-10.07,4.48-18.25-8.8-5.45-11.18C47.11,141.22,53,146.25,53,146.25Z"/><path class="cls-20" d="M51.16,164.57s-11,.84-13.42,9.51,3.35,9.09,6.71,4.76S51.16,164.57,51.16,164.57Z"/><path class="cls-20" d="M242.2,142.34s2.24-.84,8.53,3.77,11.61-1.26,10.07-4.33S248.08,133.67,242.2,142.34Z"/><path class="cls-20" d="M228.22,156.88a18.65,18.65,0,0,1,15.94-2.8c9.51,2.52,6.43,9.79,3.36,10.77s-6.72,1.4-13.43-4.47S228.22,156.88,228.22,156.88Z"/><path class="cls-20" d="M162.35,160s-1.12,16.78,4.75,21.26S173,166.67,162.35,160Z"/><path class="cls-2" d="M123.76,158.68s-12.35-2.38-17.13,1.2a7.73,7.73,0,0,1-7.92.89A10.22,10.22,0,0,1,97.2,160h0l-.13-.09s-1.59-5.18,18.73-4,21.12-25.9,28.69-14a19.4,19.4,0,0,1,2,4.08c.14.38.25.75.35,1.12C149.28,156.55,140.69,163.09,123.76,158.68Z"/><path class="cls-21" d="M146.83,147.15l-3.68-4s-9.29,14.61-24.7,14.08-18.6,3.72-18.6,3.72-1.14-.38-2.65-1h0l-.13-.09s-1.59-5.18,18.73-4,21.12-25.9,28.69-14A18.92,18.92,0,0,1,146.83,147.15Z"/><path class="cls-21" d="M124.56,160s-12.36-2.39-17.14,1.2c-3.06,2.29-6.91.32-8.71-.44,3-5,19.86-2.67,30.1-2.22,12.22.53,17.26-10.09,17.26-10.09l1.21-1.1a10.17,10.17,0,0,1,.34,1.12C150.07,157.88,141.49,164.42,124.56,160Z"/><path class="cls-21" d="M96.27,153.31a9.32,9.32,0,0,0,2.09,10.27c.16.16.32.32.5.48C104.24,169,89.89,163.07,96.27,153.31Z"/></g><rect class="cls-22" x="12.5" y="10" width="275" height="330" rx="25"/><circle class="cls-2" cx="300" cy="570" r="196.51"/><g class="cls-23"><g class="cls-24"><g class="cls-25"><polygon class="cls-26" points="-20.09 402.76 83.22 252.99 186.64 402.7 83.33 552.47 -20.09 402.76"/></g><path class="cls-27" d="M-164.31,334.15s-54.16,20.59-85.09,71.43c-16.22,70.23,73.69,57.86,89.17,50-8.09,78.21,78.61-4.31,78.61-4.31s6.91,12.07,23.12,22.28,39.07-16.14,42-28.43c0,0,62.65,43,51.59-30.73,0,0,22.85,49.17,47.62,44.42,0,0,32-14.22,16.51-44.94,0,0,25.74,53.74,50.8,53.74,0,0,23.05-15,11.11-42.68,0,0,52,80.1,50.86,9.75,0,0,46.44,21,20.64-17.65,0,0,5.59-36.92-49.25-65.15C-14,250.28-164.31,334.15-164.31,334.15Z"/><path class="cls-28" d="M-111.27,429.23c-11,1.31,13.23,58.79,78.38,1,0,0,32.66,82.63,60.66,14.94,0,0,22.39,39.87,58.79-9.93,0,0,8.4,40.79,49.46,0,7.11,7.17,31.24,21.94,43.85-30.89,5.83,16.52,12.14,44.8,56.93,8,0,0,64.39,88.61,57.85,1,0,0,32.66,66.7,50.39,30.86,0,0,16-26.71-3.6-37.66,0,0,33.47,25.71,36.26,1.82s-22.19-40.5-34.32-41.49c0,0,.73-27.21-20.73-39.15,0,0-113.1-85.32-273.74-63.85-107.7,14.4-162.57,16.15-213.22,70.32C-205.48,378.18-206.34,440.65-111.27,429.23Z"/><path class="cls-29" d="M-109.91,322.74c-96.61,82.66,9.75,83.45,12.28,90.69,10,28.76,26.78-2.87,26.78-2.87s1.42,21.08,19.53,20.14c9.84-.51,24.32-20.81,24.32-20.81S-9.32,431.33-.55,431.52c7.7.17,15.63-18.09,15.63-18.09s18.7,33,33.26-5.31c32,60.42,44.29.72,44.29.72s15.22,16.63,29,18.19c20.08,2.28,33.27-17.71,35.5-25.74,0,0,47.43,28.12,39.06-20.1,0,0,17.3,32.15,36,29.05,0,0,24.21-9.3,12.49-29.39,0,0,19.49,35.14,38.46,35.14,0,0,17.45-9.82,8.41-27.91,0,0,39.39,52.37,38.5,6.38,0,0,35.15,13.71,15.63-11.54,0,0-9.18-27.47-43.77-56.22-7.54-6.27-44.87-32.54-103-43.7C169.38,277.33,85.81,270.48,29,276.42-42.43,283.88-86.47,304.37-109.91,322.74Z"/><path d="M-42,301s-9.82,16.6,18.85,18.71c0,0-3.41,4.21-3.07,15.1,0,0-43.35,20.71-20.14,25.63,0,0,16.38-1.06,23.21-19.67a11.78,11.78,0,0,0,13,3.16S-32.45,362-22.35,368c0,0,15.22,7.12,29.22-15.36,0,0,6.48,3.51,10.23-1.4,0,0,1.71,23.88,12.63,24.93,0,0,15.36,7,16-29.85,0,0,11.95,31.79,34.14,30.38,0,0,26.62-.65,14.67-38.69h5.8s.69,16.15,7.17,17.15c0,0,7.17,7.31,11.61-7.43v-2.46s11.26,8.78,19.11,2.11c0,0-1.71,28.09,15,21.41,0,0,6.14-2.1,7.5-10.88l10.59,1.76s4.77,19.31,14.67,14.74,10.24-19.25,10.24-19.25,7.17,12.23,14-3.92c0,0,18.78,13,27.65,6.32s7.51-17.91,3.41-29.15c0,0,11.27,9.49,15.36,2.81,0,0,7.17-11.58-8.87-29.14-8-8.78-78-27.53-143.06-27.58S-17,286-23,287.77C-44.25,294.08-42,301-42,301Z"/><ellipse cx="248.05" cy="357.27" rx="6.93" ry="13.78" transform="translate(-141.52 163.86) rotate(-28.82)"/><ellipse cx="269.69" cy="339.3" rx="7.07" ry="13.5" transform="translate(-122.96 522.83) rotate(-76.57)"/><ellipse cx="248.05" cy="319.29" rx="5.53" ry="10.77" transform="translate(-156.06 306.31) rotate(-50.32)"/></g></g></svg>