<svg id="Layer_1" data-name="Layer 1" xmlns="http://www.w3.org/2000/svg" xmlns:xlink="http://www.w3.org/1999/xlink" viewBox="0 0 300 350"><defs><style>.cls-1,.cls-4{fill:#cbfdff;}.cls-1,.cls-37{stroke:#2ca0ce;stroke-width:3px;}.cls-1,.cls-10,.cls-14,.cls-17,.cls-37,.cls-7{stroke-miterlimit:10;}.cls-2{fill:#fff;}.cls-3,.cls-37{fill:none;}.cls-5{clip-path:url(#clip-path);}.cls-6{fill:#701804;}.cls-7,.cls-8{fill:#f4d9be;}.cls-17,.cls-7{stroke:#d68741;}.cls-9{fill:#d68741;}.cls-10,.cls-13,.cls-14{fill:#d73205;}.cls-10,.cls-14{stroke:#821800;}.cls-11{fill:#f9eb56;}.cls-12{fill:#821800;}.cls-14{stroke-width:2px;}.cls-15{fill:#ff5c5c;}.cls-16{fill:#230101;}.cls-17{fill:#e2b791;}.cls-18,.cls-33{fill:#db9c73;}.cls-19{fill:#190400;}.cls-20,.cls-21,.cls-22,.cls-23,.cls-24,.cls-25{fill:#4b1000;}.cls-21{opacity:0.8;}.cls-22{opacity:0.6;}.cls-23{opacity:0.4;}.cls-24{opacity:0.3;}.cls-25{opacity:0.22;}.cls-26{fill:#723300;}.cls-27{fill:#550d0e;}.cls-28{fill:#c11108;}.cls-29{fill:#3a0306;}.cls-30{fill:#380400;}.cls-31{fill:#eb6461;}.cls-32{fill:#ba0900;}.cls-33{opacity:0.71;}.cls-34{fill:#00d1fd;}.cls-35{opacity:0.49;}.cls-36{fill:#90afb2;}.cls-38{clip-path:url(#clip-path-2);}.cls-39{clip-path:url(#clip-path-3);}.cls-40{fill:#436003;}.cls-41{fill:#01340b;}</style><clipPath id="clip-path"><rect class="cls-1" x="12.5" y="10" width="275" height="330" rx="25"/></clipPath><clipPath id="clip-path-2"><circle class="cls-2" cx="-20" cy="570" r="196.51"/></clipPath><clipPath id="clip-path-3"><rect class="cls-3" x="-425.46" y="370.12" width="728.72" height="409.9"/></clipPath></defs><rect class="cls-4" x="12.5" y="10" width="275" height="330" rx="25"/><g class="cls-5"><path class="cls-6" d="M221.84,274.76s2.38,0,4.95-3.55c-.42-.69-4.69-3.33-4.69-3.33"/><path class="cls-7" d="M252.62,264.27l-14.42-21.7-18.63,22.94s21.45,24.93,37.37,26c0,0,3.1,1.35,6-7.93"/><path class="cls-8" d="M257.75,291.52c20.1-15.92,14.15-52.07,13.62-54.91s-6.14-23-6.14-23l-9.1,8.32s1,3,0,9.85-3.24,10.38-8.1,17.13-2.29,19-2.29,19"/><path class="cls-9" d="M257.75,291.52a33.48,33.48,0,0,0,6.8-7.74,42.75,42.75,0,0,0,4.39-9.3,68.14,68.14,0,0,0,3.2-20.3,95.81,95.81,0,0,0-.32-10.31c-.14-1.72-.33-3.43-.58-5.13a36.73,36.73,0,0,0-1.05-5c-1.76-6.67-3.6-13.33-5.42-20l.78.22-9.12,8.29.12-.46a21.1,21.1,0,0,1,.39,6.21,41.48,41.48,0,0,1-.83,6.09,25.62,25.62,0,0,1-2,5.84,39.32,39.32,0,0,1-3.13,5.27c-.58.84-1.17,1.67-1.76,2.49l-.9,1.23c-.28.42-.53.84-.81,1.26a17.24,17.24,0,0,0-1.92,5.66,37.17,37.17,0,0,0,.13,12.09,36.14,36.14,0,0,1-.47-12.14,17.7,17.7,0,0,1,1.83-5.86c.27-.43.53-.89.82-1.31l.88-1.24c.57-.84,1.15-1.67,1.71-2.51a38.94,38.94,0,0,0,3-5.24,24.65,24.65,0,0,0,1.84-5.7,45.92,45.92,0,0,0,.74-6,20.5,20.5,0,0,0-.38-5.89l-.07-.29.19-.18,9.08-8.34.57-.52.21.75c1.86,6.65,3.71,13.31,5.42,20a40.06,40.06,0,0,1,1.05,5.12c.23,1.73.42,3.45.55,5.18A92.73,92.73,0,0,1,273,254.2a68.67,68.67,0,0,1-3.54,20.45C267.12,281.17,263.27,287.3,257.75,291.52Z"/><path class="cls-10" d="M210.71,204.81s16.58,15.28,25.18,32.14l4.66,7s-17.47,14.2-18.88,30l-35.54-54S204.34,201.34,210.71,204.81Z"/><path class="cls-11" d="M235.33,236.56l4.81,7.13s-16.73,13.83-18.71,29.55l-6.08-9S219.6,244.89,235.33,236.56Z"/><path class="cls-11" d="M229.2,226.48l5.25,8.31S215.76,246.5,215,263.65l-5.77-10.48S209.16,235.11,229.2,226.48Z"/><path class="cls-12" d="M210.8,238.64a15.65,15.65,0,0,0,.25-5.65,22.32,22.32,0,0,0-.57-2.77c-.11-.46-.28-.91-.4-1.38s-.31-.91-.43-1.4c.31.38.6.78.88,1.2s.5.86.69,1.32a11.59,11.59,0,0,1,.82,2.9,10.19,10.19,0,0,1-.08,3A6.52,6.52,0,0,1,210.8,238.64Z"/><path class="cls-13" d="M128.24,214.89s-2,59.56-1.42,70.69-3,61.52-3,61.52,79.75,17,97.19-8.1l-3.32-62.59s-2.74-29.51-11.36-48.55"/><path class="cls-12" d="M128.24,214.89,127.62,248c-.14,11-.37,22-.28,33.06,0,1.37,0,2.74.11,4.1s.12,2.79.1,4.17c0,2.77-.06,5.53-.14,8.29-.17,5.52-.41,11-.69,16.54-.56,11-1.28,22-2,33l-.71-.94c8.22,1.64,16.56,2.9,24.91,3.85A246,246,0,0,0,174,351.72a121.26,121.26,0,0,0,25-2A51.16,51.16,0,0,0,210.82,346a23.82,23.82,0,0,0,9.42-7.51l-.16.56-1.42-28.14-1.32-28.14c-.13-2.34-.19-4.72-.36-7s-.51-4.65-.81-7c-.63-4.64-1.36-9.27-2.22-13.88s-1.89-9.19-3.13-13.71a107.61,107.61,0,0,0-4.52-13.32,98.26,98.26,0,0,1,4.95,13.19c1.37,4.51,2.52,9.07,3.5,13.68s1.83,9.23,2.52,13.89c.34,2.33.66,4.66.93,7s.3,4.7.45,7.05l1.66,28.14L221.87,339l0,.3-.18.25a25.54,25.54,0,0,1-10.1,8.15,52.25,52.25,0,0,1-12.22,4A121.68,121.68,0,0,1,174,353.71,246.57,246.57,0,0,1,148.67,352c-8.41-1-16.76-2.29-25.07-4l-.77-.16.06-.79c.81-11,1.52-22,2.2-33q.51-8.25.88-16.5c.12-2.75.22-5.5.24-8.24,0-1.38,0-2.72,0-4.1s-.07-2.78-.07-4.16c0-11.05.39-22.07.79-33.09S127.71,225.91,128.24,214.89Z"/><path class="cls-11" d="M126.43,303.93c-.87,18.61-2.64,43.17-2.64,43.17s79.75,17,97.19-8.1l-1.48-27.92S169.11,325.51,126.43,303.93Z"/><path class="cls-11" d="M126.74,273.88s27.54,17.64,90.92,2.53l1.39,26.19s-53.47,14.79-92.41-3.7c0,0,.12-15.09.07-20"/><path class="cls-12" d="M142,217.32a77.79,77.79,0,0,0,3,8,60.06,60.06,0,0,0,3.94,7.4l1.14,1.74,1.25,1.65c.4.56.85,1.07,1.3,1.59s.87,1.06,1.38,1.52a32.56,32.56,0,0,0,6.36,5l-1.8.32c1.26-1.4,2.57-2.7,3.9-4s2.75-2.5,4.2-3.67a40.49,40.49,0,0,1,4.59-3.2,17.36,17.36,0,0,1,5.13-2.19,24.59,24.59,0,0,0-4.43,3.17c-1.36,1.18-2.68,2.42-3.94,3.73s-2.51,2.6-3.72,4-2.41,2.71-3.54,4.08l-.79,1-1-.63-1.91-1.2c-.31-.2-.64-.39-1-.61l-.88-.7c-.58-.47-1.2-.91-1.75-1.42l-1.58-1.59a33.9,33.9,0,0,1-5.18-7.23,41.15,41.15,0,0,1-3.28-8.14A35.73,35.73,0,0,1,142,217.32Z"/><path class="cls-12" d="M188.84,230.54a15.71,15.71,0,0,1,4.39,2.81,14.45,14.45,0,0,1,3.3,4.25,8.06,8.06,0,0,1,.57,1.27,7.72,7.72,0,0,1,.42,1.34c.13.48.21.91.28,1.07,0,0,0,.05,0,0a.17.17,0,0,0,0-.05s-.08-.12-.13-.17a1.37,1.37,0,0,0-.46-.31,1.29,1.29,0,0,0-.89,0,1.13,1.13,0,0,0-.42.25.86.86,0,0,0-.13.14c-.09.15,0,0,0-.18a19.51,19.51,0,0,0,.38-2.29q.15-1.22.27-2.46c.3-3.3.52-6.63.67-10,.06-1.66.12-3.33.09-5a24.34,24.34,0,0,0-.46-5,14.77,14.77,0,0,1,1.92,4.83,35.81,35.81,0,0,1,.79,5.12,55.59,55.59,0,0,1,0,10.32,27.64,27.64,0,0,1-.92,5.28,3.4,3.4,0,0,1-.46,1,2.75,2.75,0,0,1-.22.26,1.73,1.73,0,0,1-.56.34,1.54,1.54,0,0,1-1,0,1.61,1.61,0,0,1-.58-.39,1.75,1.75,0,0,1-.23-.31l-.09-.19a2.07,2.07,0,0,1-.12-.3,12.26,12.26,0,0,1-.25-1.41,8.07,8.07,0,0,0-.22-1.11,7,7,0,0,0-.33-1.1A21.78,21.78,0,0,0,188.84,230.54Z"/><path class="cls-12" d="M173.47,232.55c.77,2.68,1.51,5.37,2.19,8.07s1.35,5.4,2,8.11l1.88,8.13,1.77,8.15-1.52-1.16,6.56-.55c2.19-.21,4.38-.34,6.57-.5l-1.34,1.67-.57-4.28-.51-4.28c-.35-2.86-.65-5.72-.94-8.58s-.55-5.73-.78-8.6-.43-5.75-.55-8.64c.68,2.81,1.28,5.63,1.86,8.45s1.11,5.65,1.62,8.49,1,5.66,1.45,8.51l.69,4.25.63,4.27.23,1.54-1.57.13c-2.18.18-4.37.39-6.56.53l-6.57.46-1.3.09-.22-1.25-1.45-8.21-1.35-8.24c-.4-2.75-.84-5.5-1.2-8.26S173.77,235.33,173.47,232.55Z"/><path class="cls-7" d="M96.17,260.29,92,272.83l2.53,34.52,12.64,14.25s13.63-30.15,15.11-41.68S96.17,260.29,96.17,260.29Z"/><path class="cls-8" d="M107.19,293.81s-1.88-15.11-20.43-29.73a63.51,63.51,0,0,1-14.46-16.9S54.79,243.7,58,261.11c0,0,6.13,11.79,19.22,39.58,12.74,22.66,25.89,21.92,29.94,20.91,0,0,3.87-7.9,4.56-11.94"/><path class="cls-9" d="M107.19,293.81a31.91,31.91,0,0,0-2.24-7,47.74,47.74,0,0,0-3.49-6.5A60,60,0,0,0,92,269c-1.78-1.69-3.65-3.29-5.58-4.81a53.23,53.23,0,0,1-5.5-5,66.44,66.44,0,0,1-9-11.8l.29.2a19.6,19.6,0,0,0-6-.06,10.34,10.34,0,0,0-5.37,2.34A8.43,8.43,0,0,0,58.26,255a17.84,17.84,0,0,0,.24,6l0-.13c3.37,6.53,6.59,13.11,9.76,19.73s6.31,13.24,9.42,19.89v0a72.45,72.45,0,0,0,5.26,8.14,44.11,44.11,0,0,0,6.56,7.09,26.81,26.81,0,0,0,8.24,4.93,17.11,17.11,0,0,0,9.47.82l-.1.08c1-1.91,1.85-3.85,2.67-5.82.41-1,.8-2,1.15-3a22.06,22.06,0,0,0,.88-3.08,20.78,20.78,0,0,1-.81,3.1c-.32,1-.69,2-1.08,3q-1.17,3-2.54,5.89l0,.06-.06,0a17.5,17.5,0,0,1-9.72-.62A27.32,27.32,0,0,1,89,316.2a44.59,44.59,0,0,1-6.76-7.11,66.18,66.18,0,0,1-5.4-8.19h0v0q-4.71-9.93-9.51-19.83l-4.84-9.88c-1.61-3.29-3.24-6.58-4.9-9.84l0-.06v-.07a18.81,18.81,0,0,1-.22-6.31,9.37,9.37,0,0,1,2.89-5.68,11.21,11.21,0,0,1,5.84-2.53,19.94,19.94,0,0,1,6.31.1l.19,0,.1.18a65.84,65.84,0,0,0,8.76,11.76,53,53,0,0,0,5.37,5c1.92,1.55,3.8,3.17,5.57,4.9a60.53,60.53,0,0,1,9.3,11.51,48.12,48.12,0,0,1,3.39,6.58A31.84,31.84,0,0,1,107.19,293.81Z"/><path class="cls-7" d="M72.61,247.69s1-25.71-9.53-31.79c-7.71-4.44-8.23.61-8.23.61S53.25,218,56.47,222c3,3.85,2.9,6.79,2.7,7l9.58,27.72"/><path class="cls-14" d="M37.18,170.18s9.21,38.06,26.58,38.33c2,.4,10.65,14.34-6.95,12.4-14.51-.68-25.56-25.62-25.57-38.44,0-.68,1-1.93,1.3-3.69-.22-6.72,3-3.38,3-3.38Z"/><path class="cls-15" d="M33.8,178.23s.14,3.07,0,4.29,1,4.1,1,4.1L37,190.33a10.27,10.27,0,0,0,.14,5.14c.81,2.69,2.63,8.09,4.62,8.63s4.62,5.13,4.62,5.13,4.44,6.14,6.77,7c3,1.1,7.38.83,8,1.1s4.83-.7,4.85-2.7-5.46-1.12-6.27-.27-6.32.12-6.55-.28-5.49-4-5.62-5.79-1.49-5.27-3-5.73-3.27-1.06-3.27-1.06-4-5.08-3-9.13.65-2.83-1.1-5.12-2.28-7-2.43-11.84"/><path class="cls-16" d="M67.57,213.09c-1.37-1.39,6.24-.15,9-5.41,0,0,.47,4.55-8.7,6.94Z"/><path class="cls-7" d="M70.16,253.74s-6.37,13.93-18.7,2.24c-3.2-3-22.91-13.93-22.91-13.93s-3.38-8.81-.68-17.51c2.62-8.44,10.12-14.37,13.9-17.34s8.49,1.35,3.37,5.89-8.37,12.25-8.37,12.25c.81-2.37,5.67-4.43,5.67-4.43,7.15-3.56,7.29,3.63,7.29,3.63,4-1,5.26,3.17,5.26,3.17l3.23,1.43a7.34,7.34,0,0,1,3.93,7.27"/><path class="cls-9" d="M41.28,234.26a28.09,28.09,0,0,1,3.64-6.58,10.21,10.21,0,0,1,2.74-2.7,4.53,4.53,0,0,1,3.8-.62v.1a6.33,6.33,0,0,0-3.23,1.35,18.21,18.21,0,0,0-2.68,2.39,23.77,23.77,0,0,0-2.24,2.92,32.19,32.19,0,0,0-1.93,3.19Z"/><path class="cls-9" d="M34.72,232.5a25.39,25.39,0,0,1,1.59-7,8.26,8.26,0,0,1,1.93-3.16,3.54,3.54,0,0,1,3.57-.92l0,.1A4.24,4.24,0,0,0,39,223.05,13.27,13.27,0,0,0,37,225.83a22.6,22.6,0,0,0-1.3,3.26,30.78,30.78,0,0,0-.92,3.42Z"/><path class="cls-9" d="M46.37,237.41a26.34,26.34,0,0,1,3.56-6.91,7.66,7.66,0,0,1,3-2.69,3.65,3.65,0,0,1,2.11-.28,3.35,3.35,0,0,1,1.8.95l-.06.09a4.49,4.49,0,0,0-1.79-.35,3.91,3.91,0,0,0-1.63.49A10.76,10.76,0,0,0,50.55,231a22.19,22.19,0,0,0-2.23,3.08,34.39,34.39,0,0,0-1.86,3.37Z"/><path class="cls-9" d="M70.11,247.69a10.9,10.9,0,0,0-.79-3.25,6.22,6.22,0,0,0-1.85-2.6,5.19,5.19,0,0,0-2.87-1l-.39-.06H63c-.55,0-1.1.1-1.69.1l0-.09a12.14,12.14,0,0,1,1.6-.71l.88-.17.44-.08h.46A4.67,4.67,0,0,1,68,241.24a6.83,6.83,0,0,1,1.8,3,11.31,11.31,0,0,1,.42,3.41Z"/><path class="cls-9" d="M61.24,240.84a13.7,13.7,0,0,0,.64-4.05,9.55,9.55,0,0,0-.73-3.91,8.1,8.1,0,0,0-2.46-2.95,18.19,18.19,0,0,0-3.53-2l0-.1a8.88,8.88,0,0,1,2.1.36c.34.11.69.22,1,.36l1,.53a6.82,6.82,0,0,1,2.63,3.47,9.9,9.9,0,0,1,.49,4.24,13.81,13.81,0,0,1-1.05,4.06Z"/><path class="cls-9" d="M61.33,240.86a2.83,2.83,0,0,1-1,1.81,6.84,6.84,0,0,1-6,1.52,2.51,2.51,0,0,1-1-.64,2.22,2.22,0,0,1-.57-1.13,3.75,3.75,0,0,1,.38-2.25,9.56,9.56,0,0,1,2.64-3.25l.07.06A29.76,29.76,0,0,0,54,240.55c-.46,1.17-.59,2.43.59,2.89a5.73,5.73,0,0,0,3.76-.11,6.21,6.21,0,0,0,1.76-.89,2.64,2.64,0,0,0,1.08-1.59Z"/><path class="cls-13" d="M133.1,241.47l-10.8,38.45s-2.43-16.33-29-16.39c0,0,.54-7.49,9.58-29.48S121,213.12,121,213.12s10.33-.4,12.76,1.78"/><path class="cls-12" d="M133.1,241.47c-.79,3.24-1.6,6.46-2.42,9.69l-2.47,9.68q-2.5,9.66-5.1,19.3l-.91,3.39-.72-3.49a14.31,14.31,0,0,0-1.53-3.89,17.73,17.73,0,0,0-2.53-3.44,22.49,22.49,0,0,0-7-4.95,33.79,33.79,0,0,0-8.34-2.52,54.73,54.73,0,0,0-8.78-.71H92.19l.12-1.06a33.17,33.17,0,0,1,.71-3.84c.3-1.23.62-2.46,1-3.67q1-3.63,2.29-7.2c1.66-4.74,3.49-9.41,5.42-14a66.72,66.72,0,0,1,7.14-13.35,29.56,29.56,0,0,1,5.16-5.62,16,16,0,0,1,3.25-2.08,8.24,8.24,0,0,1,3.83-.89h0a62.29,62.29,0,0,1,6.55.3,26.85,26.85,0,0,1,3.23.53,7.1,7.1,0,0,1,3,1.3,7,7,0,0,0-3-1.09,31.38,31.38,0,0,0-3.22-.35,61.08,61.08,0,0,0-6.49,0H121a7.5,7.5,0,0,0-3.36,1,15.61,15.61,0,0,0-3,2.09,28.9,28.9,0,0,0-4.77,5.56,67.49,67.49,0,0,0-6.64,13.24c-1.85,4.64-3.6,9.31-5.17,14q-1.22,3.54-2.22,7.11c-.34,1.19-.65,2.39-.93,3.59s-.53,2.45-.65,3.53l-1-1.06a52.79,52.79,0,0,1,9.12.76,35.38,35.38,0,0,1,8.81,2.72,23.51,23.51,0,0,1,7.52,5.46,19.89,19.89,0,0,1,2.73,3.83,15.38,15.38,0,0,1,1.65,4.48l-1.63-.1c1.88-6.39,3.76-12.77,5.69-19.14l2.93-9.55Q131.57,246.23,133.1,241.47Z"/><path class="cls-11" d="M126,265.89l-3.7,14s-2.43-16.33-29-16.39c0,0,.25-3.51,3.31-12.77C96.61,250.76,112.86,248.45,126,265.89Z"/><path class="cls-11" d="M130.29,249.64l-3.81,14.44S122.57,249,97.75,247.85c0,0,1.31-4,4.72-12.52C102.47,235.33,117.15,232.2,130.29,249.64Z"/><path class="cls-12" d="M129.72,253.74a35,35,0,0,0,3.35-2.33A20.89,20.89,0,0,0,136,248.7a13.35,13.35,0,0,0,2.1-3.31,11.54,11.54,0,0,0,.77-3.92,8,8,0,0,1,0,4.18,10.52,10.52,0,0,1-2.09,3.7,15,15,0,0,1-7,4.39Z"/><path class="cls-17" d="M163.42,216.61s3.35,14.85,17.55,14.91c19.31.07,10.94-21.21,10.94-21.21Z"/><path class="cls-7" d="M212,126.67s-5.6-5.93-.48-10.86,13.87-2.85,16.87,1c3.77,4.85,9.24,20.64-4.65,26.57Z"/><path class="cls-18" d="M226.08,120c5.26,3.37,1.33,13.46-2.18,13.46s4.3-7.12-3.79-5.77C213.91,128.68,220.82,116.59,226.08,120Z"/><path class="cls-7" d="M102.34,138.63s-25.6,57.71,27.52,78.69c43.71,17.27,84-7.58,89.44-15.51s27.52-32.46-6.07-73.69-94.3-24.66-101.58-16.58S102.34,138.63,102.34,138.63Z"/><path class="cls-19" d="M99,143.39s8.84,15,11.88-7.55v-13s13.76-18.35,38.31-17.54,36.59.26,62.26,21c0,0-7.29-7.94,2.83-12.75,4.62-2.2,7.64-.71,7.64-.71a42.14,42.14,0,0,0-.15-5.14s-.54-5.94-3-10.25a35.41,35.41,0,0,0,2.16-7.29s-2.7,5.4-8.64,5.67c0,0,8.1-9.18,8.91-13.22A84.64,84.64,0,0,1,206.35,90s16.22-14.3,16.22-19.42a17.39,17.39,0,0,1-12.44,5.39s-77.44-17.27-99,9.72c0,0-12.15,9.71-13.22,24.82,0,0-5.67-.81-1.72-13.76,0,0-6.11-1.08-6.11,17.53,0,0-2.7-6.2-3-10,0,0-8.63,5.94,4.32,33.73Z"/><path class="cls-20" d="M137.55,101.34s2.94-15.48,26.26-18.72,47-.4,53.46-6.88c0,0-10.72,9.31-35,11.74s-26.71,8.9-27.32,12.74l-1.53,5.26s-14.24,0-17.53,1.35Z"/><path class="cls-20" d="M137.14,77.76c23.83-10.84,60.47-1.21,71.7-.81,0,0-11.5,2.94-36.75,3.41-24.4.45-32.72,12-33.33,15.82L135.43,107s-13.77,6.28-17.35,8.86C118.08,115.81,115.72,87.52,137.14,77.76Z"/><path class="cls-20" d="M133.23,78s-12.17,8.49-17,28.86c-.69,2.9,1,9.7,1,9.7s-9.09-2.79-8.14-12.46C111.21,82.42,133.23,78,133.23,78Z"/><path class="cls-21" d="M105.81,96.6s2.52,15.66,4,16.94l5,4.19s-8.63,5-11.55-.86S105.81,96.6,105.81,96.6Z"/><path class="cls-22" d="M91.65,108.82s11.11,11.32,13.09,11.49l6.47.54s-4.15,9.08-9.92,6S91.65,108.82,91.65,108.82Z"/><path class="cls-23" d="M88.49,119.72s12.94,9.17,14.92,9l6.46-.61s-2.47,9.66-8.7,7.64S88.49,119.72,88.49,119.72Z"/><path class="cls-21" d="M155.35,102.15s.11-10.12,25-13.68c21.53-3.08,33.18-7.93,39.18-12.73,0,0-5.49,10.62-22.07,16.33-21.35,7.35-24.76,6.6-25.32,9.45l-1.35,4.77s-12.34-.64-16.33-.77Z"/><path class="cls-22" d="M173.77,101.34c2.24-3.2,12.91-5,18.92-6.58,8-2.12,21.51-7,28.26-11.24,0,0-5.74,8.73-8.35,10.65-11.13,8.16-17.59,8.13-22.74,10.51s-5,5.11-5,5.11-9-3-12.66-3.1C172.18,106.69,171.53,104.54,173.77,101.34Z"/><path class="cls-24" d="M189.75,105.62c3.61-1.51,12.27-4.47,18.22-6.27,7.55-2.3,10.45-4.25,13-8.34,0,0-1.61,7.06-3.68,9.55-2.29,2.77-5.4,6.69-10.55,9.07a16.66,16.66,0,0,0-7.46,7.5s-9.47-6.6-13.11-6.74C186.15,110.39,185.71,107.32,189.75,105.62Z"/><path class="cls-25" d="M202.72,114.37a90.32,90.32,0,0,1,8.08-4.64c3.36-1.7,4.64-3.15,5.77-6.17,0,0-.72,5.22-1.63,7.07-1,2.05-2.46,3.21-4.75,5s-3.25,7.29-3.25,7.29-4.21-4.88-5.83-5A4.18,4.18,0,0,1,202.72,114.37Z"/><path class="cls-8" d="M101.43,145.15s-3.54-13.72-17.84-9.85-10.66,20.25-9,24.69,11.69,14.71,22.39,9.44"/><path class="cls-9" d="M101.43,145.15a17.65,17.65,0,0,0-2.23-4.42,13.17,13.17,0,0,0-3.41-3.49,12.7,12.7,0,0,0-9.24-2.12,22.34,22.34,0,0,0-4.71,1.22,12.77,12.77,0,0,0-8.22,11,27.41,27.41,0,0,0,.54,9.71c.19.8.4,1.59.65,2.36a10.08,10.08,0,0,0,1,2.15,21.32,21.32,0,0,0,3.11,3.73,20.11,20.11,0,0,0,8.36,4.94,14.32,14.32,0,0,0,9.64-.78,14.25,14.25,0,0,1-9.76,1.25,20.64,20.64,0,0,1-8.76-4.84A20,20,0,0,1,75.1,162,10.67,10.67,0,0,1,74,159.67q-.41-1.2-.69-2.43a28.13,28.13,0,0,1-.65-10.06,14.63,14.63,0,0,1,4.52-9,16.61,16.61,0,0,1,9.31-3.81,13.28,13.28,0,0,1,9.62,2.48,13.89,13.89,0,0,1,3.34,3.75A16.3,16.3,0,0,1,101.43,145.15Z"/><path class="cls-18" d="M94.52,151.7c.34,2.3-2-11.46-9.51-10.8-7.89.7-5.89,12.67-4.39,16.12s3,4.72,13.14,4.32C93.76,161.34,88.38,157.55,94.52,151.7Z"/><path class="cls-18" d="M171.06,145.48s3.58-17.47,15.07,0"/><path class="cls-26" d="M171.06,145.48a11.94,11.94,0,0,1,1.51-5.7,6.57,6.57,0,0,1,2.19-2.37,4.73,4.73,0,0,1,3.43-.57,9.51,9.51,0,0,1,5,3.58,19.39,19.39,0,0,1,2.91,5.06c-1.4-1.35-2.69-2.75-4-4a10.54,10.54,0,0,0-4.3-2.69,3.08,3.08,0,0,0-2.09.25,6.24,6.24,0,0,0-1.84,1.61A24.74,24.74,0,0,0,171.06,145.48Z"/><path class="cls-27" d="M168.22,202.08s-2.4-26,10.37-37.91,17.93-1.85,17.93-1.85,7,9.54,7,29C203.54,206,168.22,202.08,168.22,202.08Z"/><path class="cls-28" d="M168.22,202.08a70.89,70.89,0,0,1,.06-15.41,47.76,47.76,0,0,1,4-15,29.44,29.44,0,0,1,4.29-6.62c.43-.51.92-1,1.38-1.44l1.48-1.3a30.86,30.86,0,0,1,3.15-2.41l1.76-1c.58-.32,1.25-.54,1.87-.81a15.26,15.26,0,0,1,2-.54c.35-.05.71-.07,1.06-.1a4.78,4.78,0,0,1,1.07,0,8,8,0,0,1,4.08,1.31,9,9,0,0,1,3,3.12l-.09-.14a34.33,34.33,0,0,1,3.91,8.22,58.38,58.38,0,0,1,2.21,8.7,71.81,71.81,0,0,1,.92,8.89l0,2.23a17.9,17.9,0,0,1,0,2.3,8.36,8.36,0,0,1-1.76,4.48,11.62,11.62,0,0,1-3.65,3,20.83,20.83,0,0,1-4.23,1.71,44.33,44.33,0,0,1-8.81,1.48,82.07,82.07,0,0,1-8.87.12A86.48,86.48,0,0,1,168.22,202.08Zm0,0a102.13,102.13,0,0,0,17.58-.4,43.22,43.22,0,0,0,8.5-1.77,19.46,19.46,0,0,0,3.9-1.71,9.81,9.81,0,0,0,3.1-2.64,6.87,6.87,0,0,0,1.33-3.64,18.55,18.55,0,0,0,0-2.11l-.08-2.18a78.48,78.48,0,0,0-1-8.65,55.76,55.76,0,0,0-2.18-8.38,42.2,42.2,0,0,0-1.6-4,26.11,26.11,0,0,0-2-3.7l0-.06,0-.07a7.18,7.18,0,0,0-2.28-2.38,6.07,6.07,0,0,0-3.14-1,3,3,0,0,0-.85,0c-.29,0-.57,0-.86.07-.56.16-1.14.23-1.7.44s-1.13.4-1.66.69l-1.61.88a30.33,30.33,0,0,0-3,2.21l-1.43,1.21c-.43.44-.9.85-1.3,1.32a27.78,27.78,0,0,0-4.22,6.14,50,50,0,0,0-4.42,14.46A79.66,79.66,0,0,0,168.22,202.08Z"/><path class="cls-29" d="M168.22,202.08a91.31,91.31,0,0,1,1.07-16.22c.65-4.11,3-6.89,6.44-7.69.67,14.94,8.26,6.84,5.24,0a16.92,16.92,0,0,1,4.33,1.43c9,4.35,9.95,18.41,7.29,21.55C182.22,203.62,168.22,202.08,168.22,202.08Z"/><path class="cls-30" d="M168.22,202.08a88,88,0,0,1,.48-13.48c.13-1.13.26-2.23.45-3.36a10.83,10.83,0,0,1,1.13-3.25,8.17,8.17,0,0,1,5.37-4.16l.41-.09,0,.42a25.61,25.61,0,0,0,.6,4.72,8.33,8.33,0,0,0,.79,2.18c.35.65.9,1.22,1.48,1.16a2.29,2.29,0,0,0,1.52-1.27,7,7,0,0,0,.72-2.16,8.13,8.13,0,0,0-.59-4.51l-.3-.68.74.13a16.34,16.34,0,0,1,3.62,1.06,13.77,13.77,0,0,1,3.28,1.89,15.92,15.92,0,0,1,4.55,6,22.66,22.66,0,0,1,1.78,7.28,16.9,16.9,0,0,1-.1,3.76,7.35,7.35,0,0,1-1.34,3.59l-.07.08-.1,0a59.09,59.09,0,0,1-12.21,1.29A99.79,99.79,0,0,1,168.22,202.08Zm0,0a110.77,110.77,0,0,0,12.22.25c2-.08,4.07-.25,6.09-.47a54.6,54.6,0,0,0,6-1.06l-.16.1a6.84,6.84,0,0,0,1-3.29,20.5,20.5,0,0,0,0-3.59,21.63,21.63,0,0,0-1.81-6.94,15.24,15.24,0,0,0-4.2-5.7,15.06,15.06,0,0,0-6.48-2.86l.44-.56a8.87,8.87,0,0,1,.61,5,7.2,7.2,0,0,1-.82,2.4A3,3,0,0,1,179,187a1.89,1.89,0,0,1-1.37-.5,3.74,3.74,0,0,1-.82-1.06,9.41,9.41,0,0,1-.85-2.36,27.69,27.69,0,0,1-.59-4.86l.43.32a7.52,7.52,0,0,0-5,3.76c-1.13,1.89-1.33,4.17-1.67,6.38s-.53,4.45-.68,6.69S168.19,199.83,168.22,202.08Z"/><path class="cls-2" d="M171.79,175.93c1.57-4.2,2.86-7.3,6.34-10.64,13.15-12.61,18-2.37,18-2.37a19.74,19.74,0,0,1,1.09,1.8C196.09,168.42,183.06,174.79,171.79,175.93Z"/><path class="cls-31" d="M171.5,199.38s4.49-9.58,14.63-7.56c0,0,10.15-10.84,16-1.21,6.88,11.26-.68,18.75-3.11,19.63-2.05.74-5.46.94-7.15.07s-10.11-7.36-12.41-8.1a55.42,55.42,0,0,0-9.37,0Z"/><path class="cls-32" d="M171.5,199.38a16.28,16.28,0,0,1,2.54-3.62,14.41,14.41,0,0,1,3.47-2.75,13.73,13.73,0,0,1,2-.92,14.82,14.82,0,0,1,2.17-.5,14.14,14.14,0,0,1,4.45.08l-.14.05a20,20,0,0,1,6.49-4.66,9.11,9.11,0,0,1,4-.76,6.71,6.71,0,0,1,3.84,1.54,10.35,10.35,0,0,1,2.55,3.21c.31.6.69,1.16.94,1.79s.55,1.24.76,1.89a14.26,14.26,0,0,1,.47,8.08,13,13,0,0,1-4.31,6.87,5.36,5.36,0,0,1-1.85,1,11.78,11.78,0,0,1-2,.42,11.45,11.45,0,0,1-4.08-.17,5.18,5.18,0,0,1-1.87-.91c-.56-.38-1.1-.76-1.64-1.15l-3.21-2.34c-1.07-.77-2.15-1.55-3.24-2.29a20.38,20.38,0,0,0-3.39-2h0a30.32,30.32,0,0,0-4.67-.22c-1.56,0-3.13.09-4.68.2h0l0,0Zm0,0-1.35,2.88,0,0c1.56-.13,3.12-.22,4.69-.26a32,32,0,0,1,4.69.16h0a21.53,21.53,0,0,1,3.5,1.91c1.12.72,2.22,1.45,3.32,2.2l3.28,2.23c.55.37,1.1.74,1.65,1.09a4.81,4.81,0,0,0,1.7.77,11.13,11.13,0,0,0,3.82,0,12.31,12.31,0,0,0,1.86-.44,4.76,4.76,0,0,0,1.57-.93,12.14,12.14,0,0,0,3.91-6.42,14.11,14.11,0,0,0-.41-7.56c-.2-.61-.48-1.2-.71-1.8a18.91,18.91,0,0,0-.88-1.74,10.09,10.09,0,0,0-2.3-3,6,6,0,0,0-3.37-1.48,8.67,8.67,0,0,0-3.75.59,19.73,19.73,0,0,0-6.47,4.35l-.06.06h-.09a13.93,13.93,0,0,0-4.37-.21,11.59,11.59,0,0,0-2.15.45,13.35,13.35,0,0,0-2,.89,14,14,0,0,0-3.49,2.69A16,16,0,0,0,171.5,199.38Z"/><path class="cls-31" d="M186.13,191.82s4.23-1.49,6.56,4.42"/><path class="cls-32" d="M186.13,191.82a3.53,3.53,0,0,1,2.24-.44,4.59,4.59,0,0,1,2.18.91,5.8,5.8,0,0,1,1.48,1.8,10.52,10.52,0,0,1,.43,1,10.76,10.76,0,0,1,.23,1.1c-.25-.29-.46-.59-.67-.88l-.65-.84a9.28,9.28,0,0,0-1.43-1.44A6,6,0,0,0,186.13,191.82Z"/><path class="cls-33" d="M163.81,124.1l-1,8.57s-12.09-14.13-27.63-2.95c0,0,6.49-8.58,16.91-10.36S163.81,124.1,163.81,124.1Z"/><path class="cls-33" d="M179.91,122.83l1.6,8.48c.35.53,9.88-16.45,24.67-8.8,0,0-4.45-4.29-15-5.28S179.91,122.83,179.91,122.83Z"/><path class="cls-20" d="M165.47,113.23l-1.66,10.87s-9.8-6.87-25.45-1.21l-6.21,3.49s5.08-10.84,24.42-10.57l6,1,2.87-3.54"/><path class="cls-20" d="M174.59,114.81l5.28,8.08s6.48-10.37,14-8.67c0,0-3.52-3.19-10.62-1.3l-5.4,2.41Z"/><path class="cls-26" d="M133.93,130.71a18,18,0,0,1,3-2.6c.54-.4,1.13-.72,1.7-1.08s1.2-.63,1.82-.9a18.07,18.07,0,0,1,8-1.5,5,5,0,0,1,1,.06l1,.14,1,.13,1,.26a16.46,16.46,0,0,1,2,.63c.63.3,1.24.62,1.85.94a9.79,9.79,0,0,1,1.71,1.14c.54.42,1.09.83,1.61,1.26a28.54,28.54,0,0,1,2.69,3l-.13.14c-1.21-.63-2.3-1.36-3.4-2-.58-.29-1.14-.61-1.7-.91a10.43,10.43,0,0,0-1.7-.86c-.58-.25-1.16-.51-1.72-.79s-1.18-.41-1.76-.65l-.89-.34-.91-.21-.92-.2a4.29,4.29,0,0,0-.94-.15,16.86,16.86,0,0,0-7.53.84,20.83,20.83,0,0,0-6.78,3.79Z"/><path class="cls-26" d="M141.21,143.93a17,17,0,0,1,3.68-3.85,19,19,0,0,1,4.72-2.63A13.2,13.2,0,0,1,155,136.3a11.75,11.75,0,0,1,5.27,1.32l0,.19c-.92.17-1.78.16-2.63.24s-1.69.1-2.52.25a33.17,33.17,0,0,0-4.93.67,17.56,17.56,0,0,0-4.66,1.94,18.21,18.21,0,0,0-4.08,3.14Z"/><path class="cls-26" d="M131,142a23,23,0,0,1,6-6.54,22.51,22.51,0,0,1,8.23-3.91,6.27,6.27,0,0,1,1.12-.26l1.15-.22,1.15-.23c.39-.05.77-.07,1.16-.1a23,23,0,0,1,2.35-.06c.77.1,1.53.24,2.29.4.38.09.76.16,1.13.26l1.08.42c.72.29,1.42.58,2.11.92a19.16,19.16,0,0,1,3.72,2.67l-.17.37a31.6,31.6,0,0,1-4.38-.35c-.72,0-1.41-.1-2.09-.17l-1-.13-1,0c-.67,0-1.33-.1-2-.19s-1.32-.07-2-.14c-.34,0-.67-.1-1-.12h-1a12.38,12.38,0,0,0-2,.1l-2,.33-2,.54c-.65.2-1.28.47-1.93.71s-1.24.59-1.87.88a24.1,24.1,0,0,0-6.72,5.07Z"/><path class="cls-26" d="M207.37,123.85a1.08,1.08,0,0,0-.22-.27,3.51,3.51,0,0,0-.36-.29,8.09,8.09,0,0,0-.79-.5,12,12,0,0,0-1.71-.78,13.78,13.78,0,0,0-3.62-.83,14.41,14.41,0,0,0-7.18,1.1,26.7,26.7,0,0,0-6.08,4c-1.92,1.55-3.69,3.32-5.61,5.08l-.16-.12a20.17,20.17,0,0,1,4.44-6.45,17.53,17.53,0,0,1,6.84-4,15.7,15.7,0,0,1,7.89-.59,15,15,0,0,1,3.73,1.25,13.58,13.58,0,0,1,1.69,1,8.94,8.94,0,0,1,.76.62,4,4,0,0,1,.35.36l.15.21c0,.08.12.15.06.33Z"/><path class="cls-26" d="M211.09,131.84a21.15,21.15,0,0,0-7-2.55,22.1,22.1,0,0,0-3.61-.37c-.61,0-1.2,0-1.8,0l-1.77.19a12.87,12.87,0,0,0-1.74.39l-.85.22-.83.33c-.55.21-1.11.37-1.66.55a16.54,16.54,0,0,1-1.68.56,15.47,15.47,0,0,0-1.72.53c-.58.19-1.16.37-1.78.51a23.22,23.22,0,0,1-3.79,1l-.24-.32a15.89,15.89,0,0,1,2.63-3.14c.52-.44,1.07-.84,1.62-1.24l.85-.58c.29-.18.61-.32.91-.48,2.43-1.38,5.35-1.46,8-1.54a21.16,21.16,0,0,1,8,1.43,20.13,20.13,0,0,1,6.68,4.16Z"/><path class="cls-26" d="M202.32,136.43a14.16,14.16,0,0,0-4.16-1.73,18.29,18.29,0,0,0-4.4-.6,16.29,16.29,0,0,0-2.21.14c-.73.07-1.46.16-2.2.18s-1.48.11-2.25.08a15.39,15.39,0,0,1-2.35,0l-.06-.19a12.14,12.14,0,0,1,2.11-1.17,15.23,15.23,0,0,1,2.3-.69,14.27,14.27,0,0,1,4.79.06,20.2,20.2,0,0,1,4.6,1.25,13.38,13.38,0,0,1,4,2.53Z"/><path class="cls-8" d="M243.31,186.62s-3-7.07-2-11.46,2.63-4.92,3.77-2.63,8.77,15.85,9.65,16.8,1.75,7.42,1.75,7.42"/><path class="cls-9" d="M243.31,186.62a31.83,31.83,0,0,1-1.93-5.4,20.9,20.9,0,0,1-.53-2.84,11.21,11.21,0,0,1,.79-5.79,4.18,4.18,0,0,1,.86-1.34,1.68,1.68,0,0,1,.83-.46,1.43,1.43,0,0,1,1,.17,3.14,3.14,0,0,1,1.09,1.26l.68,1.25,1.39,2.49c1.81,3.35,3.69,6.66,5.55,10,.46.83.93,1.66,1.42,2.47a6.42,6.42,0,0,0,.37.58,3.2,3.2,0,0,1,.4.67,9.48,9.48,0,0,1,.43,1.41,47.62,47.62,0,0,1,.8,5.68c-.38-1.87-.73-3.75-1.28-5.56a8.67,8.67,0,0,0-.46-1.3,2.26,2.26,0,0,0-.36-.53,5.68,5.68,0,0,1-.43-.61c-.54-.8-1.05-1.6-1.55-2.41-2-3.26-3.88-6.58-5.77-9.89l-1.35-2.53c-.48-.82-.82-1.83-1.39-2.18s-1.1.38-1.44,1.2a13,13,0,0,0-.82,2.63,10.48,10.48,0,0,0-.13,2.75,20.45,20.45,0,0,0,.37,2.8A39.47,39.47,0,0,0,243.31,186.62Z"/><path class="cls-8" d="M262.2,220.15c-.14.81-2.3,3.51-7.08,4.32s-5.87-6.2-5.87-7.15-2.7-7.82-10.93-4.59S228,213.79,228,213.79c-2.79-1.87.11-5.31,1-5.91s10.25-3.11,10.25-3.11h-4s-8.37,2.16-11.47,1.22-3.44-3.31-2-4.86,7.42-3.1,7.42-3.1a52.82,52.82,0,0,1-11,.72c-4.46-.69-5.23-4.8.5-7.47,4.41-2,17.2-1.61,17.2-1.61s2.48,1.15-2.58-2.43S215,185.89,213,186.63s-7.29-6.68,10.11-8.09,32,14.36,32,14.36a41.69,41.69,0,0,1,9.36,16.87s2.28,8.22,2.28,8.75"/><path class="cls-9" d="M262.2,220.15a4.83,4.83,0,0,1-1.68,2.09,10.19,10.19,0,0,1-2.33,1.39,13.3,13.3,0,0,1-2.6.82,4.27,4.27,0,0,1-2.71-.13,4.8,4.8,0,0,1-2.07-1.79,9.85,9.85,0,0,1-1.16-2.48,11.68,11.68,0,0,1-.56-2.7A5.72,5.72,0,0,0,248,215a6.65,6.65,0,0,0-4.32-2.77,9.74,9.74,0,0,0-5.18.72,30.4,30.4,0,0,1-5.23,1.6,14.21,14.21,0,0,1-2.77.26,4.65,4.65,0,0,1-2.78-.8l0,0a2.77,2.77,0,0,1-1.32-2,4.07,4.07,0,0,1,.57-2.32,7,7,0,0,1,1.43-1.83,2.93,2.93,0,0,1,1.07-.6c.36-.13.71-.26,1.07-.37,2.83-.92,5.69-1.71,8.55-2.51l.1.78-4,0h.1a57,57,0,0,1-6.48,1.26,23.14,23.14,0,0,1-3.34.22,8,8,0,0,1-1.72-.21,6.11,6.11,0,0,1-1.62-.7,3.68,3.68,0,0,1-1.3-1.3,2.82,2.82,0,0,1-.34-1.87,3.49,3.49,0,0,1,.81-1.67,5.28,5.28,0,0,1,1.45-1.06,32.72,32.72,0,0,1,6.25-2.26l.2.89a42.87,42.87,0,0,1-5.52.67c-1.85.11-3.68.15-5.55.08h0a5.07,5.07,0,0,1-3.42-1.82,2.89,2.89,0,0,1-.53-2,3.86,3.86,0,0,1,.78-1.88,8.6,8.6,0,0,1,3-2.36,12.28,12.28,0,0,1,3.54-1.17,49.07,49.07,0,0,1,7.23-.73c2.41-.1,4.82-.11,7.24,0H236l.1,0a1.59,1.59,0,0,0,.32.12h0a.39.39,0,0,0-.3.17.44.44,0,0,0-.09.27.31.31,0,0,0,0,.11c0,.08,0,0,0,.07l0,0a5.89,5.89,0,0,0-.56-.51c-.43-.34-.88-.68-1.33-1a10.33,10.33,0,0,0-2.79-1.67,20,20,0,0,0-6.52-1,47,47,0,0,0-6.7.37c-1.12.14-2.23.31-3.32.53a12.16,12.16,0,0,0-1.58.4,1.56,1.56,0,0,1-.59.09,1.92,1.92,0,0,1-.55-.12,3,3,0,0,1-.85-.56,3.2,3.2,0,0,1-.92-1.7,3,3,0,0,1,.26-1.92,5.79,5.79,0,0,1,2.65-2.45,21.5,21.5,0,0,1,6.64-1.88,34.78,34.78,0,0,1,6.84-.39,31.71,31.71,0,0,1,6.77,1.12A44,44,0,0,1,245.84,185,58.61,58.61,0,0,1,251.3,189a40.65,40.65,0,0,1,4.89,4.75,42.87,42.87,0,0,1,6.94,11.67,54.08,54.08,0,0,1,2,6.49c.56,2.19,1.19,4.37,1.63,6.58-.47-2.21-1.13-4.37-1.73-6.56a51.47,51.47,0,0,0-2.09-6.44,38.87,38.87,0,0,0-12-16.09,58.88,58.88,0,0,0-5.45-4,43.37,43.37,0,0,0-12.22-5.55,31.48,31.48,0,0,0-6.61-1,35,35,0,0,0-6.69.44,21.37,21.37,0,0,0-6.36,1.82,5,5,0,0,0-2.27,2.06,2.25,2.25,0,0,0,.49,2.61c.34.33.79.54,1.08.39a14.61,14.61,0,0,1,1.7-.43c1.13-.23,2.25-.41,3.39-.55a47.17,47.17,0,0,1,6.83-.4,20.79,20.79,0,0,1,6.83,1.07,8,8,0,0,1,1.61.79c.52.32.94.65,1.41,1s.92.67,1.37,1a5.56,5.56,0,0,1,.69.63.65.65,0,0,1,.11.15.34.34,0,0,1,.07.16.32.32,0,0,1,0,.16.54.54,0,0,1-.11.32.53.53,0,0,1-.39.2.74.74,0,0,1-.15,0l-.17,0a2.56,2.56,0,0,1-.47-.18l.19.05q-3.58-.09-7.17.06a50.4,50.4,0,0,0-7.08.73,11.16,11.16,0,0,0-3.28,1.06,7.71,7.71,0,0,0-2.63,2.07,2.28,2.28,0,0,0-.25,2.77,4.15,4.15,0,0,0,2.79,1.44h0c1.8.07,3.64,0,5.45-.06a44.44,44.44,0,0,0,5.4-.64l.2.89a32.82,32.82,0,0,0-6.06,2.17,4.53,4.53,0,0,0-1.19.85,2.54,2.54,0,0,0-.61,1.24,2.27,2.27,0,0,0,1.23,2.28,5.07,5.07,0,0,0,1.37.59,6.89,6.89,0,0,0,1.53.19,23.11,23.11,0,0,0,3.2-.2,57.87,57.87,0,0,0,6.38-1.22h.11l4,0h3l-2.85.77c-2.86.76-5.73,1.53-8.54,2.41a6,6,0,0,0-1.91.81,6.49,6.49,0,0,0-1.3,1.64,3.44,3.44,0,0,0-.51,1.93,2.11,2.11,0,0,0,1,1.58h0l0,0a2.76,2.76,0,0,0,1.08.47,6.06,6.06,0,0,0,1.28.16,13.07,13.07,0,0,0,2.64-.22,29.26,29.26,0,0,0,5.15-1.53,10,10,0,0,1,5.45-.67,7.07,7.07,0,0,1,4.54,3,5.87,5.87,0,0,1,1.08,2.56,11.88,11.88,0,0,0,.5,2.62,9.7,9.7,0,0,0,1.1,2.43,4.6,4.6,0,0,0,1.95,1.76,4.09,4.09,0,0,0,2.61.15,12.84,12.84,0,0,0,2.59-.76,10.44,10.44,0,0,0,2.34-1.34A4.82,4.82,0,0,0,262.2,220.15Z"/><path class="cls-9" d="M242.15,198.8a38.09,38.09,0,0,0-3.85-.43c-1.28-.1-2.57-.15-3.85-.13s-2.56.17-3.84.2-2.54.13-3.87.13l0-.1a14.06,14.06,0,0,1,3.81-1,20,20,0,0,1,3.94,0,37.83,37.83,0,0,1,7.71,1.26Z"/><path class="cls-9" d="M243.16,205.51a7.27,7.27,0,0,0-1.59-.28,9.38,9.38,0,0,0-1.59,0c-.53,0-1,.18-1.56.18a7.42,7.42,0,0,1-1.66-.12l0-.1a3.69,3.69,0,0,1,1.56-.77,4.91,4.91,0,0,1,1.71,0,7.74,7.74,0,0,1,3.2,1Z"/><path class="cls-9" d="M245,193.05a9.75,9.75,0,0,0-2.52-1.41,15.23,15.23,0,0,0-2.74-.84c-.93-.22-1.89-.25-2.82-.44-.47-.1-.95-.16-1.42-.28a10.72,10.72,0,0,1-1.44-.34v-.1a9.65,9.65,0,0,1,3-.28A12,12,0,0,1,240,190a12.37,12.37,0,0,1,5.12,3Z"/><path class="cls-34" d="M148.2,213s-24.41,9.42-14.66,15.34C143,234.09,148.2,213,148.2,213Z"/><path class="cls-34" d="M236.75,161.41s14.49-22.59,22.08-9.65c0,10.56-10,6.61-14,7.15A31.21,31.21,0,0,0,236.75,161.41Z"/><path class="cls-34" d="M248.34,167.52s26.81-5.2,24.26,9.33c-6.49,9.77-13.55-3-16.77-5.45A31.25,31.25,0,0,0,248.34,167.52Z"/><path class="cls-34" d="M92.09,182.33s-15.82-15-21.13-3.66c1.26,8.22,9.88,3.39,13.55,3.12A31.75,31.75,0,0,1,92.09,182.33Z"/><path class="cls-34" d="M82.33,189.11s-24.88.62-20.83,11.48c7,6.47,11.9-4.72,14.52-7.16A32.6,32.6,0,0,1,82.33,189.11Z"/><ellipse class="cls-2" cx="253.19" cy="150.51" rx="2.29" ry="1.39"/><ellipse class="cls-2" cx="267.86" cy="171.2" rx="1.39" ry="2.29" transform="translate(-28.26 286.85) rotate(-53.92)"/><ellipse class="cls-2" cx="77.38" cy="176.79" rx="2.29" ry="1.39"/><ellipse class="cls-2" cx="65.24" cy="195.64" rx="2.29" ry="1.39" transform="translate(-109.31 85.81) rotate(-39.38)"/><ellipse class="cls-2" cx="135.12" cy="223.3" rx="2.29" ry="1.39" transform="translate(-110.99 136.43) rotate(-39.38)"/><g class="cls-35"><path class="cls-36" d="M178.18,165.28c.5,1.45,1,2.92,1.43,4.39a15.5,15.5,0,0,1,.64,2.21,9.09,9.09,0,0,1,.11,2.34l-.1,0a8.69,8.69,0,0,1-1-2.13,14.23,14.23,0,0,1-.45-2.25c-.28-1.52-.53-3-.75-4.56Z"/></g><g class="cls-35"><path class="cls-36" d="M185.87,159.85q1.47,2.49,2.87,5a22.18,22.18,0,0,1,1.37,2.54,13.64,13.64,0,0,1,.88,2.78l-.09,0a13.33,13.33,0,0,1-1.68-2.38,21.4,21.4,0,0,1-1.19-2.63c-.78-1.76-1.53-3.54-2.25-5.32Z"/></g></g><rect class="cls-37" x="12.5" y="10" width="275" height="330" rx="25"/><circle class="cls-2" cx="-20" cy="570" r="196.51"/><g class="cls-38"><g class="cls-39"><path class="cls-40" d="M-431.27,429.23c-11,1.31,13.23,58.79,78.38,1,0,0,32.66,82.63,60.66,14.94,0,0,22.39,39.87,58.79-9.93,0,0,8.4,40.79,49.46,0,7.11,7.17,31.24,21.94,43.85-30.89,5.83,16.52,12.14,44.8,56.93,8,0,0,64.39,88.61,57.85,1,0,0,32.66,66.7,50.39,30.86,0,0,16-26.71-3.6-37.66,0,0,33.47,25.71,36.26,1.82s-22.19-40.5-34.32-41.49c0,0,.73-27.21-20.73-39.15,0,0-113.1-85.32-273.74-63.85-107.7,14.4-162.57,16.15-213.22,70.32C-525.48,378.18-526.34,440.65-431.27,429.23Z"/><path class="cls-41" d="M-429.91,322.74c-96.61,82.66,9.75,83.45,12.28,90.69,10,28.76,26.78-2.87,26.78-2.87s1.42,21.08,19.53,20.14c9.84-.51,24.32-20.81,24.32-20.81s17.68,21.44,26.45,21.63c7.7.17,15.63-18.09,15.63-18.09s18.7,33,33.26-5.31c32,60.42,44.29.72,44.29.72s15.22,16.63,29,18.19c20.08,2.28,33.27-17.71,35.5-25.74,0,0,47.43,28.12,39.06-20.1,0,0,17.3,32.15,36.05,29.05,0,0,24.21-9.3,12.49-29.39,0,0,19.49,35.14,38.46,35.14,0,0,17.45-9.82,8.41-27.91,0,0,39.39,52.37,38.5,6.38,0,0,35.15,13.71,15.63-11.54,0,0-9.18-27.47-43.77-56.22-7.54-6.27-44.87-32.54-103-43.7-29.55-5.67-113.12-12.52-169.94-6.58C-362.43,283.88-406.47,304.37-429.91,322.74Z"/><path class="cls-40" d="M17.43,357.91s-.29-10.41,17.72-14-1.82,18.12-17.72,14"/><path class="cls-40" d="M12.4,344.71s-.28-10.41,17.73-14-1.82,18.13-17.73,14"/></g></g></svg>