<?xml version="1.0" encoding="utf-8"?>
<!-- Generator: Adobe Illustrator 25.2.3, SVG Export Plug-In . SVG Version: 6.00 Build 0)  -->
<svg version="1.1" id="Layer_1" xmlns="http://www.w3.org/2000/svg" xmlns:xlink="http://www.w3.org/1999/xlink" x="0px" y="0px"
	 viewBox="0 0 400 400" style="enable-background:new 0 0 400 400;" xml:space="preserve">
<style type="text/css">
	.st0{fill:#FFFFFF;}
	.st1{clip-path:url(#SVGID_2_);}
	.st2{fill:#F9BA7A;stroke:#C15621;stroke-linecap:round;stroke-linejoin:round;}
	.st3{fill:#C98211;stroke:#7C4900;stroke-linecap:round;stroke-linejoin:round;}
	.st4{fill:#F2AF08;}
	.st5{fill:#FAA181;stroke:#A54A2F;stroke-linecap:round;stroke-linejoin:round;}
	.st6{fill:#FFC599;}
	.st7{fill:#FFC648;}
	.st8{fill:#FAA181;stroke:#A54A2F;stroke-width:5.61;stroke-linecap:round;stroke-linejoin:round;}
	.st9{fill:#F26E4E;}
	.st10{fill:#FAA181;}
	.st11{fill:#A54A2F;}
	.st12{fill:#FFE0B6;}
	.st13{fill:#381A12;}
	.st14{fill:#160F13;stroke:#000000;stroke-width:5.61;stroke-linecap:round;stroke-linejoin:round;}
	.st15{fill:#160F13;}
	.st16{fill:#C13A36;}
	.st17{fill:#F27F7C;}
	.st18{fill:#E8524A;}
	.st19{fill:#FFAD8D;}
	.st20{fill:#CE6C4E;}
	.st21{fill:#160F13;stroke:#000000;stroke-linecap:round;stroke-linejoin:round;}
	.st22{fill:#2D2025;}
	.st23{fill:#44160A;}
	.st24{fill:#5C7C0D;stroke:#3B4902;stroke-linecap:round;stroke-linejoin:round;}
	.st25{fill:#8DAE21;}
	.st26{fill:#EA0D39;stroke:#9B0021;stroke-width:0.5;stroke-linecap:round;stroke-linejoin:round;}
	.st27{fill:#A3002B;}
	.st28{fill:#AC002B;}
	.st29{fill:#FF3C5C;}
	.st30{fill:#88A316;}
</style>
<circle class="st0" cx="200" cy="200" r="196.5"/>
<g>
	<defs>
		<circle id="SVGID_1_" cx="200" cy="200" r="196.5"/>
	</defs>
	<clipPath id="SVGID_2_">
		<use xlink:href="#SVGID_1_"  style="overflow:visible;"/>
	</clipPath>
	<g class="st1">
		<path class="st2" d="M258.8,356.7c15.3,12.4,40.7,18.2,51,10s1.5-41.4-27.6-54.5s-23.5,43.4-23.5,43.4"/>
		<path class="st2" d="M304.8,368.5c5.5-0.4,10.2-5.5,12.1-13.2c2.7-11-2.8-37.7-12.2-45.4c-7.6-6.3-28.5,12.2-28.5,12.2
			c1.4,15.8,2.5,35.4,14.7,45.1"/>
		<path class="st3" d="M231.9,277.2c-6.1,12.5,6.4,44.3,25.8,45.2c6.8-3.2,14.5-9.9,27.4-11.3c7.9-5.9-7.9-51.2-30.4-56.5"/>
		<path class="st4" d="M260.2,259.9c4.5-2.2,26,22.9,26.1,46.8c-0.5,3.1-6.6,4.2-8.6,3.6c-3.2-6.8-13.4-9.6-16-16.9
			C259.3,286.5,258.2,260.9,260.2,259.9z"/>
		<path class="st5" d="M168.4,225.1c8.1,5.6,13.9,27.2,4.9,32.5c-10.8,7.2-8,22.8,21.5,20.4s29-16.2,21-24.3
			c-5.6-5.7-8.5-32.2-4.9-36.4"/>
		<path class="st6" d="M185.2,266.6c5.4-5.9,17.3-15.1,21.4-14.7c2.4,0.2,7.9,5.2,7.9,5.2S206.1,274.2,185.2,266.6z"/>
		<path class="st3" d="M270.1,320.8c1,10.3,0.6,33.2,3.3,59s9,64.8,6.5,70.7s-15.4,19.5-54.4,19.1s-76.8-18.8-85-15.4
			c-9.3,3.8,1.6-33.2-1.1-61.2c-0.4-4.2-9.4-51.4-14-64.5c-5.3-29.8,0.3-42.6,6.6-51.9c6.4-9.3,32-19,37.1-18.4
			c5.5,0.1,5.7,10.7,22.1,11.8c17.8,1.2,26.3-8,24.3-18.9c14.8-1.8,33.9,0.1,40.5,3.6C262.3,258.1,254.8,286.8,270.1,320.8z"/>
		<path class="st4" d="M158.2,266.1c-4.1-0.2-18.9,5.3-20.4,8.9c-1.9,13.6,13.2,82.6,17.8,92.9c6.3,14,16.2,35.2,26.4,48.6
			c-2.4,3.2-14.2-12.8-19.5-18.9c-1.2,12.8-0.7,24.9-8,43c19.3,7,41.1,17.8,76.4,16.8s45.6-14.5,46.6-17.6
			c-1.3-11.7-6.6-63.4-8.7-80.9c-1.3-11,0-39.9-1.4-64.9c-0.9-14.8-6-30.5-7.9-36.1c-6.7-5.9-28.4-5.9-28.4-5.9
			c2.3,13.8-5.3,26.3-24.8,32C188.4,289.2,165.9,281.7,158.2,266.1z"/>
		<path class="st4" d="M171.7,260.7c-1.4-2.7-10.6,0.1-10.3,3.5c0.4,5.8,13.8,23.9,43.6,17.3c26.8-6,25.4-27.9,23.2-30.2
			s-12-3-11.3,0.8s2.1,14.8-15.7,18.4S174.9,267,171.7,260.7z"/>
		<path class="st7" d="M219.4,253.9c-0.5,19.3-36.4,25.1-48.4,8.3c-8.3-0.4-1.1,16.2,20.8,18.6c17.7,2,29.6-6.5,32.3-14.8
			C227.9,254.1,219.5,249.1,219.4,253.9z"/>
		<path class="st8" d="M244.6,143.3c3.9-0.5,11.2-13.2,20.9-6.8c6,3.9,3.1,29.4-12.5,32.7c-6.5,1.4-10.6-7.8-10.6-8.1"/>
		<path class="st9" d="M250.6,155.1c0.3-9.8,9.1-14,13.1-15.2c-5.2,6.4-7.5,22.9-6.6,25.9"/>
		<path class="st10" d="M196.1,241.5c-23.2,0-47.8-8.1-67.6-22.4c-20.8-14.9-33.6-34.5-36.2-55.1c-3.5-28.8,2.8-53.3,18.4-70.9
			C126.1,75.9,149.5,66,175.1,66c24.1,0,46.1,9,58.8,24.1c19.1,20.1,22.9,49.8,24.7,64c0.4,3,0.7,5.4,1,6.8
			c5.6,24.3-2.2,42.2-9.8,52.9c-10.4,14.8-26.8,25.1-42.8,27C203.4,241.3,199.8,241.5,196.1,241.5z"/>
		<path class="st11" d="M175.1,66.8c23,0,45.1,8.3,58.2,23.9c22.9,24.1,23.5,62,25.5,70.5c10.4,44.9-24.4,75.7-51.9,78.9
			c-3.6,0.4-7.2,0.6-10.8,0.6c-47,0-97.6-33.6-102.9-76.7C85,96.8,131.5,66.8,175.1,66.8 M175.1,65.2L175.1,65.2
			c-12,0-24,2.3-35.1,6.7c-11.4,4.5-21.6,11.6-29.8,20.7c-7.6,8.6-13.1,18.9-16.2,30c-3.5,12.4-4.3,26.4-2.5,41.5
			c1.5,11.1,5.6,21.7,12,30.9c6.6,9.6,14.9,18,24.5,24.8c19.9,14.3,44.7,22.5,68,22.5c3.7,0,7.3-0.2,11-0.6c8.3-1.1,16.2-4,23.2-8.4
			c7.9-4.9,14.8-11.3,20.2-18.9c5.1-7.2,8.6-15.3,10.4-23.9c2-9.8,1.8-19.9-0.5-29.6c-0.3-1.4-0.6-3.8-1-6.7
			c-1.8-14.3-5.6-44.2-24.9-64.5C221.7,74.3,199.5,65.2,175.1,65.2L175.1,65.2z"/>
		<path class="st5" d="M113.5,184c-6-3.2-26.7-15.4-34.4-3.6c-5.9,9,11.9,32.4,28.1,31.7c8.3-0.3,10.6-11.8,10.6-12.1"/>
		<path class="st6" d="M130.1,151c-4.3,35,21.5,90.6,85.8,81.7c27.4-3.8,52.9-42.2,39.5-77.8c-2.3-6.1,0.3-15.9-10-35.4
			c-3.9-4.1-8.4-7.6-13.3-10.3c3.3,7.8-0.4,14.9-4.5,15.9s-21-6.8-26-15.8c-3.2,17-15.3,23-21.3,22.8s-13.5-13.8-26.1-20.4
			C135.1,116,131.5,139.6,130.1,151z"/>
		<path class="st12" d="M206.3,170.8c-2.8,1.9-1.4,6.8,2.1,4.5S210.5,168,206.3,170.8z"/>
		<path class="st13" d="M229.3,105.7c-3.2,0.3-9.3,10.8-6.4,9.9c13.8-4.4,19,0.3,19.5-1.3C243.4,111,233.3,105.3,229.3,105.7z"/>
		<path class="st13" d="M152.1,119c3.7-1.6,13.4,1.9,13.8,4.2s-12.9,0.1-28.4,14.7C136.6,131.3,148.2,120.6,152.1,119z"/>
		<path class="st14" d="M86.8,140.4c-4.6,13-6.9,26.3,2.1,33.8c11.4,2.3,21.2,9.3,27.2,19.3c0,0,3.7,1.9,9.1-0.8
			c-9.6-19.1-12.8-56.5,4.2-72.3c-8,2.3-20.5,16.8-21.2,28.4"/>
		<path class="st15" d="M189.3,90.2c11.2,2.9,13.4,23.1,11,30.5c6.6-8.2,8-24.3-8.9-32.2"/>
		<path class="st10" d="M171.8,196.4c-4.4,3.5,1.2,6.1,7.6,4.7C176.8,199.7,176.9,192.4,171.8,196.4z"/>
		<path class="st10" d="M240,191.8c3.7,4.3,0,5.6-6.5,4.3C236.2,194.6,236.6,188,240,191.8z"/>
		<path class="st16" d="M174.3,198c-3.5,2.2,3.1,5.1,19.3,3.9c-8.3,0-14.6-0.5-16.8-2.3C175,198.3,175.2,197.4,174.3,198z"/>
		<path class="st16" d="M228.5,197.3c3.4-0.3,6.7-1.6,7.6-3.4c0.6-1.1,1.3-1.7,1.9-0.9c1.4,1.9-1.4,3.4-9.4,4.9"/>
		<path class="st17" d="M216.4,201.8l-31.2,0.4c0,0,18.7,6.9,28.1,5.8s14.2-5.8,19.6-11C229,198.7,220.3,201,216.4,201.8z"/>
		<path class="st18" d="M216,197.8c-3.7,1.8-4.9-0.9-11.2,0.4s-18.6,4.7-26.4,2.5c26.4,4.7,47.2,0.8,55.4-4.5
			C227,198,222.7,194.5,216,197.8z"/>
		<path class="st19" d="M214.5,174.9c3.2,0.5,3.6,1.9,7,2.7c4.6,1,1.8,4.2-2.8,5.2c-4.7,1.1-9.4,1.9-14.2,2.2
			c-4.7,0.1-3.6-3.6-0.2-5.1C207,178.7,210.7,174.3,214.5,174.9z"/>
		<path class="st20" d="M217.6,179.3c0.7-1.1,5.9-0.8,5.5,0.3C222.3,181.5,216.2,181.4,217.6,179.3z"/>
		<path class="st19" d="M199.6,174.5c-4.3,3.6-3.9,10.9,4,10.4c2.5,0.1-0.4-2.1-0.4-2.1C199.3,182,198.8,179.7,199.6,174.5z"/>
		<path class="st20" d="M208,180.8c-1.1-0.9-6.5,1.4-5.6,2.4C203.8,184.7,210,182.3,208,180.8z"/>
		<path class="st9" d="M107.5,191.5c-11.3-8.6-22.7-9.1-26-3.5c6.9,0.3,19.8,5,20.8,8.4c-2.8,5.3,4,7.9,6.9,7
			C100.4,198.8,107.5,191.5,107.5,191.5z"/>
		<path class="st6" d="M105.4,186.6c-6.3-8.3-16.9-14.3-24.6-7.1c-2.3,3.2-1.1,5.7-1.1,5.7C81.6,181.5,94,181.5,105.4,186.6z"/>
		<path class="st21" d="M207.6,51.1C153.4,32.1,98.5,57.5,95,85.7c-23.8-3.8-31.8,63.3-9.5,84.5c0,0,20.2-4.8,39.8,22.5
			c-26.2-43.6-3.2-77.7,11.3-90.1c0,0-2.9-2.9-10.6-5.4c17.4,1.4,50.9,27.8,60.5,26.2c7.4-1.2,15.7-21.3,7.6-33.1
			c0,0,26.2,30.6,32.6,28.7s6.6-18.7-7.9-28c0,0,26.5,6.4,33.2,33.8C266.5,110,258.7,69,207.6,51.1z"/>
		<path class="st21" d="M100.8,88c-7.3-6.5-5.2-17-3.1-19.9c-5.7-1.2-8.7,9-5.7,13.3c-11-5.8-16,2.9-17.1,8
			c5.4-4.7,16.4-3.4,18.8-0.2"/>
		<path class="st22" d="M109.4,88.3c37.1-0.2,69.3,22.6,81.2,25.8c-2-13.7-21.9-32.2-35.4-33.3c22.3-1.1,41,20.8,40.9,25.3
			c-1.8-26.1-31.3-39.9-52-35.3c39.4-8.8,62.3,28.5,80.9,38.1c0.9-11.6-17.3-53.2-70.4-60c-33.8-4.3-51.9,24.5-54.2,29.4
			c8.1-7,28.8-4.6,37.7,0.1C125.3,77.9,111.8,85.6,109.4,88.3z"/>
		<path class="st22" d="M130.7,104.6c-18.4,9.3-29.4,52-19.3,75c-10-10.6-20.2-34.9-17.9-48.9c-6.5,8.3-12.7,21.7-7.9,32.1
			c-5.3-6.8-24.3-37.9,2.2-65.9c6.6-3,15.9,0.8,15.9,0.8c-10.9,5.9-15.4,17.2-18,32c7.1-14.8,18.1-25.9,25.6-27.6
			S130.7,104.6,130.7,104.6z"/>
		<path class="st22" d="M185.6,51.5c19.3,6,35.5,18.1,54.7,42.1C252.5,79,224.6,54.6,185.6,51.5z"/>
		<path class="st23" d="M223.7,148.4c3.2-5.5,10.1-8.9,18.8-8.8c5.9,0,11.6,2.2,15.9,6.3c1.2,0.2,2.4,0.1,3.5-0.3
			c0,0-1.5,4.2-3.9,4.5c-7.8-4.8-20.3-7.4-33.7,2.7C223.1,152.7,222.2,151.1,223.7,148.4z"/>
		<path class="st23" d="M186,153.3c-6.5-4.5-14.7-5.6-22.1-3.1c-9.4,3.3-13.7,8.8-15.5,11.6c-1.3,0.8-2.8,1.3-4.3,1.4
			c0,0,3.1,2.7,6.6,2.4c8-8.2,21.8-14.9,35.8-8.3C187.9,157.7,188.6,155.3,186,153.3z"/>
		<path class="st3" d="M161.7,277.6c4.7,4.4,9.4,10.4,14.4,17.1c3.7,5,9.3,12.2,10.9,15.9s-1.2,3.4-13,10.2
			c-19.8,11.3-23.4,27-27.4,26.3s-11.7-12.3-16.5-17.7"/>
		<path class="st2" d="M289.2,319.2c-1.6-3.4-6.9-31.5-4.4-40.7c0.9-3.2,6.9-4.5,8.5-4.3c9.3,1.1,20.7,21.7,15.5,44.8"/>
		<path class="st24" d="M277,263c-5.2-7.4-0.6-29.9,30.7-21.8C312.5,261,288.1,280.3,277,263z"/>
		<path class="st25" d="M306.7,242.1c-14-5.1-35.1,0.8-27.3,17.6c8-8.7,18.8-14,21.8-15.3c-8.7,6.6-14.9,12.8-18.4,18.7
			C291.8,271.1,305.7,260.8,306.7,242.1z"/>
		<path class="st24" d="M264.5,242.8c17.3,40.1,28.9,137.8,27.1,163.9c1,4.4,4.7-2.3,4.7-2.3c3.8-22.9-12.4-131.8-25-161.6
			c-6.1-7.9-6.8,2-6.8,2"/>
		<path class="st25" d="M271.6,258.3c9.1,14.7,15.7,55.6,19.5,80.9s4.7,55.3,2,60C292.8,347.2,275.1,271.7,271.6,258.3z"/>
		<path class="st26" d="M226.4,230.1c9.6,1.5,11.9,7,18.6,12.3c11.3,8.9,21.4,5.3,28.5-0.4s-6.5-18.8-18.3-20.9
			S229.6,222.3,226.4,230.1z"/>
		<path class="st26" d="M281.2,200.7c-6.9,3.2,2.8,13.6,1.8,27.7c-1,13.4-14,20.3-21.5,18.9c-9.6-2.6-19.8-17.4-15.6-30"/>
		<path class="st26" d="M233.9,199.7c-14.7,6.8-14.4,29.7,7.6,32.1c22.4,2.4,28-10.6,25.2-27.4S238.9,197.4,233.9,199.7z"/>
		<path class="st27" d="M240.5,208.2c-4.7,0.3-11.9,9.7-0.8,17.4s24.6,6.4,25.4-5.2S246.6,207.8,240.5,208.2z"/>
		<path class="st26" d="M268.8,198.1c3.8-9-14.4-20.1-27.7-6.6s4.1,29.4,14.7,28.4C266.4,218.9,264.5,208.3,268.8,198.1z"/>
		<path class="st28" d="M251.9,196.5c-10.5,3.8-11.6,24.8,7.5,22.7S262.2,192.8,251.9,196.5z"/>
		<path class="st26" d="M260.8,203.2c-3,13.8,0.5,25.6-13.2,28.9c11.8,6.4,23.7-0.6,26.8-11.6c3.4-11.9,4.8-16.6,8.4-19.2
			C289.3,196.5,265.5,181,260.8,203.2z"/>
		<path class="st26" d="M237.6,221.9c8.9,4.7,23.4,12.9,30.8,8c-5.9,10.6-18.3,8.5-26.6,5.4s-11.1-4.7-14.7-3.2
			C217.5,233.8,218.8,212.1,237.6,221.9z"/>
		<path class="st29" d="M272.8,192.5c-4.9,0.2-10.4,2.2-11.5,14.2c-1,10.4-1.7,17-3.1,19.5c6.9-2.2,8.7-14.8,10-20.3
			c2.1-8.4,10-7,10.6-10C279.2,193.5,275.7,192.3,272.8,192.5z"/>
		<path class="st29" d="M250,187.6c-4.6,0.4-18.2,8.8-9.2,22.5c-1.8-11.9,7.2-17.6,11.1-19.2S254.4,187.2,250,187.6z"/>
		<path class="st29" d="M225.5,224.2c0.5-6.8,8.8-4.2,18.3,1s10.8,4.6,13.9,6.1C248.9,239,226.2,227.6,225.5,224.2z"/>
		<path class="st26" d="M236.4,217.9c-6.3,3.3-0.4,17.3,14.4,13.3s11.4-19.3,7.8-19.9s-0.7,7.1-9.5,9.2
			C243,221.8,241.4,215.2,236.4,217.9z"/>
		<path class="st29" d="M238.1,222.3c-2.3,2.4,2.2,9.8,11.6,7.5s9.6-8.7,8.8-10C247.6,232.1,241.4,218.8,238.1,222.3z"/>
		<path class="st24" d="M280.7,299.4c0.2-10.4-15.5-23.3-35.6-10.1C247.3,314.1,277.7,318.1,280.7,299.4z"/>
		<path class="st24" d="M295.5,384.2c-6.1-10.8,1.4-25.7,23.3-16.5C318.5,387,308.5,392.1,295.5,384.2z"/>
		<path class="st30" d="M277.1,299.4c1.3-13.5-17.3-19.2-30.5-10c2.6,13.3,11.5,19.1,18.7,19.4c4.1,0.3,7.9-2,9.6-5.6
			c-4.4-3.2-17.2-9.1-22.5-11.6C261,293.3,273.4,298.1,277.1,299.4z"/>
		<path class="st30" d="M316.8,368.3c-12.9-7.3-23.4,3.4-20.3,12.2c3.5-2.2,7.2-4,11.1-5.4c-3.3,2.4-6.5,4.9-9.5,7.6
			C305.8,387.8,313.5,376.4,316.8,368.3z"/>
		<path class="st2" d="M150.9,343.8c10.4,16.3,28.5,32,41.3,39.5c8.9,5.2,32.9-6.1,26.1-20.8S198,326,187.1,318.7
			S150.9,343.8,150.9,343.8z"/>
		<path class="st2" d="M211.3,351.1c11.2-7.2,40.7-4.7,50.2-8.8c8.2-1.8,16.3,15.3,9.4,20.5c-10.6,8-45.1,28.1-62.3,26.4
			c-13.7-1.4-33.4-17.3-37.2-21.7"/>
		<path class="st2" d="M268.7,364.3c17,1.4,34.2-1.5,36.1-9.8c3.3-14.2-7.5-27.3-7.5-27.3c-2.9-3.5-15.4,0.7-24.2,5.6
			s-9.3,4.2-11.7,9.4"/>
		<path class="st2" d="M300.3,351.1c2.1-0.5,5.3-3.3,6-7s-1.2-11.1-4.3-10.8l-1.8,2.5"/>
		<path class="st2" d="M299.4,340.9c2-0.9,5.4-5.2,5.3-8.9s-4.5-10.8-7.4-9.9l-2.3,6.4"/>
		<path class="st2" d="M261.1,343.6c-0.2-6.6,6.8-11.6,8.4-14.7c3.3-6.4,1.9-16.2,5.5-17.2c4.5-1.2,8.9,6.4,7.9,15.8
			c4-3.6,6.5-8.8,6.3-12.6c-0.2-2.3-0.5-4.5-1-6.8c5.1-2.1,10.9,5.5,11.4,10c0.3,4.7-1,9.4-3.8,13.2"/>
		<path class="st2" d="M295.6,275c-6.7-3.7-24.6-3.6-25.4,1.4c-0.7,4.6,17.7,7,21.5,7.4"/>
		<path class="st2" d="M292.3,284c-4.3-1.4-21.5,0.6-22.1,5c-0.9,6.2,20.1,5.2,22.8,4.5"/>
		<path class="st2" d="M293.6,294.8c-3.7,0.3-15,6.3-13.4,10.5c1.9,5,14.4-1,16.4-2"/>
		<path class="st2" d="M297.7,305.6c-2.6,1.2-11,8.5-8.9,12.4c1.8,3.1,9.3-1.9,12.1-5.6"/>
		<path class="st4" d="M141.9,271.4c5.6-2.8,20.3,5.8,29.4,20s13,17.5,13.8,20.2s-4.8,1.8-16.8,10.1s-13.5,13.5-15.8,13.8
			S133.6,315.1,131,304S129.2,277.7,141.9,271.4z"/>
		<path class="st3" d="M185.4,307.8c3.4-0.9,3.9,5.4,5.9,7.9s2.9,6,0.7,6.3c-7.2-1.4-17.1,4.6-25.2,17.9s-6.2,19.7-9.8,19.8
			s-12.3-7.5-12-10.3S157.8,310,185.4,307.8z"/>
		<path class="st4" d="M184.2,309c3.8,0,3.9,5.2,5.3,6.8s1.6,3.5-3,3.9s-17.8,6.9-24.8,23.1c-2,2.6-10.6,0.6-9.4-5.9
			S169.5,309.2,184.2,309z"/>
	</g>
</g>
</svg>
