<?xml version="1.0" encoding="utf-8"?>
<!-- Generator: Adobe Illustrator 25.2.3, SVG Export Plug-In . SVG Version: 6.00 Build 0)  -->
<svg version="1.1" id="Layer_1" xmlns="http://www.w3.org/2000/svg" xmlns:xlink="http://www.w3.org/1999/xlink" x="0px" y="0px"
	 viewBox="0 0 400 400" style="enable-background:new 0 0 400 400;" xml:space="preserve">
<style type="text/css">
	.st0{fill:#FFFFFF;}
	.st1{clip-path:url(#SVGID_2_);}
	.st2{fill:#856150;}
	.st3{fill:#522110;}
	.st4{fill:#65412F;}
	.st5{fill:#32170E;}
	.st6{fill:#B28E7D;}
	.st7{fill:#E2CBBE;}
	.st8{fill:#D5A183;}
</style>
<circle class="st0" cx="200" cy="200" r="196.5"/>
<g>
	<defs>
		<circle id="SVGID_1_" cx="200" cy="200" r="196.5"/>
	</defs>
	<clipPath id="SVGID_2_">
		<use xlink:href="#SVGID_1_"  style="overflow:visible;"/>
	</clipPath>
	<g class="st1">
		<polygon class="st2" points="54.7,160 42.8,155.7 25.3,175.8 201.4,273.4 201.4,236.2 		"/>
		<path class="st3" d="M153.2,211.9l56.1-31.9l-9-16.8l-65.1,39c0,0,1.2,19.2,1.4,22s2.6,0.6,2.6,0.6L153.2,211.9z"/>
		<path class="st3" d="M93.7,181.7l57.3-27.3l-8.3-14.2l-64.9,33.6c0,0,1,13.3,1.4,17.6s2.3,3.1,2.3,3.1L93.7,181.7z"/>
		<polygon class="st4" points="25.3,175.8 201.4,273.4 201.4,291.8 25.3,191.1 		"/>
		<polygon class="st5" points="277.6,229.4 277.6,214 201.4,273.4 201.4,291.8 		"/>
		<polygon class="st6" points="153.2,211.9 221.2,171.5 264.2,188.8 201.4,236.2 		"/>
		<polygon class="st6" points="93.7,181.7 161.3,147.6 200.4,163.2 135.3,202.2 		"/>
		<polygon class="st6" points="110.6,127.3 42.8,155.7 77.9,173.7 142.7,140.2 		"/>
		<path class="st6" d="M79.3,191.6c0,0-2.2,5,1,6.4s7.8-10.5,7.8-10.5s-4.4,4.5-6.6,6.9c-0.2,0.1-0.5,0.2-0.7,0.2
			C79.4,194.4,79.3,191.6,79.3,191.6z"/>
		<path class="st6" d="M136.6,222.6c-0.1,0.2-2.7,5,0.4,6.5s8.5-10.1,8.5-10.1s-6.5,6.2-7.3,6.5c-0.2,0.1-0.5,0.2-0.7,0.2
			C136.4,225.6,136.6,223.1,136.6,222.6z"/>
		<polygon class="st3" points="277.6,214 264.2,188.8 201.4,236.2 201.4,273.4 		"/>
		<polygon class="st7" points="201.4,236.4 153,212 153.2,211.9 153.3,211.8 201.4,236 264,188.7 264.2,188.8 264.3,188.9 
			201.4,236.4 		"/>
		<polygon class="st7" points="135.3,202.4 135.2,202.4 93.6,181.8 93.7,181.7 93.9,181.6 135.3,202 200.1,163.1 200.4,163.2 
			200.4,163.4 135.3,202.4 		"/>
		<polygon class="st7" points="77.9,173.9 42.7,155.8 42.8,155.7 43,155.6 77.9,173.5 142.5,140.1 142.7,140.2 142.8,140.3 
			77.9,173.9 		"/>
		<polygon class="st8" points="238.5,135.5 134.4,171.4 159.2,187.9 169.5,202.2 175.5,198.7 216.3,225.8 232.8,249.1 238.6,261.4 
			280.1,289.2 369.6,248.1 		"/>
		<polygon class="st2" points="171.6,124.5 161.2,117.3 139.2,132.3 284.8,271.4 294.2,235.4 		"/>
		<path class="st3" d="M253.7,199.7l62.4-16.7l-4.4-18.5l-72.8,21.2c0,0-3.7,18.8-4.3,21.6s2.4,1.2,2.4,1.2L253.7,199.7z"/>
		<path class="st3" d="M203.8,155.4l62.4-11.9l-4.4-15.9l-71.2,16c0,0-2.4,13.1-3.1,17.4s1.4,3.6,1.4,3.6L203.8,155.4z"/>
		<polygon class="st4" points="139.2,132.3 284.8,271.4 280.1,289.2 135.3,147.2 		"/>
		<polygon class="st5" points="369.6,248.1 373.5,233.3 284.8,271.4 280.1,289.2 		"/>
		<polygon class="st6" points="253.7,199.7 329.7,177.9 367,205.4 294.2,235.4 		"/>
		<polygon class="st6" points="203.8,155.4 277.8,139.5 311.7,164.5 238.8,185.8 		"/>
		<polygon class="st6" points="233.9,107.1 161.2,117.3 190.5,143.7 261.7,127.6 		"/>
		<path class="st6" d="M187.3,161.3c0,0-3.3,4.3-0.6,6.5s10.2-8.1,10.2-8.1l-8.2,5c-0.2,0.1-0.5,0.1-0.7,0
			C186.8,164.1,187.3,161.3,187.3,161.3z"/>
		<path class="st6" d="M234.9,205.8c-0.1,0.2-3.9,4.2-1.2,6.4s10.8-7.6,10.8-7.6s-7.9,4.4-8.7,4.4c-0.2,0.1-0.5,0.1-0.7,0
			C234,208.7,234.9,206.4,234.9,205.8z"/>
		<polygon class="st3" points="373.5,233.3 367,205.4 294.2,235.4 284.8,271.4 		"/>
		<polygon class="st7" points="294.1,235.6 253.5,199.7 253.7,199.7 253.9,199.6 294.2,235.2 366.8,205.3 367,205.4 367,205.6 
			294.1,235.6 		"/>
		<polygon class="st7" points="238.8,186 238.7,185.9 203.6,155.5 203.8,155.4 204,155.3 238.9,185.6 311.5,164.4 311.7,164.5 
			311.7,164.7 238.8,186 		"/>
		<polygon class="st7" points="190.5,143.9 161.1,117.5 161.2,117.3 161.4,117.3 190.6,143.5 261.5,127.5 261.7,127.6 261.8,127.8 
			190.5,143.9 		"/>
	</g>
</g>
</svg>
