<svg id="Layer_1" data-name="Layer 1" xmlns="http://www.w3.org/2000/svg" xmlns:xlink="http://www.w3.org/1999/xlink" viewBox="0 0 400 400"><defs><style>.cls-1,.cls-11{fill:#fff;}.cls-2{clip-path:url(#clip-path);}.cls-3{fill:#353532;}.cls-3,.cls-4{stroke:#191916;stroke-width:0.5px;}.cls-12,.cls-3,.cls-4,.cls-5,.cls-6{stroke-miterlimit:10;}.cls-4{fill:#23231f;}.cls-5{fill:#d1b182;}.cls-5,.cls-6{stroke:#ccb087;}.cls-12,.cls-5,.cls-6{stroke-width:0.75px;}.cls-16,.cls-6{fill:#f9dbaa;}.cls-7{fill:#e20707;}.cls-8{fill:#bf0404;}.cls-9{fill:#ef2f20;}.cls-10{fill:#fce7ca;stroke:#c4975b;}.cls-11{stroke:#898989;}.cls-12{fill:#d6b380;stroke:#89704e;}.cls-13{fill:#898989;}.cls-14{fill:#c4975b;}.cls-15{fill:#efcd9c;}</style><clipPath id="clip-path"><circle class="cls-1" cx="200" cy="200" r="196.51"/></clipPath></defs><circle class="cls-1" cx="200" cy="200" r="196.51"/><g class="cls-2"><polygon class="cls-3" points="331.49 270.58 333.8 270.35 316.42 98.51 314.1 98.74 331.49 270.58"/><polygon class="cls-4" points="316.45 131.6 320.7 131.18 320.09 125.16 315.84 125.58 316.45 131.6"/><polygon points="320.31 169.71 324.55 169.29 323.94 163.27 319.7 163.69 320.31 169.71"/><polygon class="cls-4" points="328.02 245.93 332.26 245.51 331.65 239.49 327.41 239.91 328.02 245.93"/><polygon points="324.16 207.82 328.41 207.4 327.8 201.38 323.55 201.8 324.16 207.82"/><polygon class="cls-3" points="358.21 286.56 360.45 285.09 334.76 248.84 332.51 250.32 358.21 286.56"/><path class="cls-4" d="M359.25,289a1,1,0,0,0,1.41.25l1.48-1a1,1,0,0,0,.27-1.36L359,282.06a1,1,0,0,0-1.42-.25l-1.47,1a1,1,0,0,0-.27,1.36Z"/><polygon class="cls-3" points="308.75 290.42 306.31 289.3 326.16 249.58 328.61 250.69 308.75 290.42"/><path class="cls-4" d="M308.09,293a1,1,0,0,1-1.36.46l-1.6-.73a1,1,0,0,1-.48-1.3l2.65-5.3a1,1,0,0,1,1.36-.47l1.61.73a1,1,0,0,1,.47,1.31Z"/><polygon class="cls-3" points="323.81 276.59 326.47 277.07 332.15 248.95 329.49 248.47 323.81 276.59"/><path class="cls-4" d="M322.93,278.13c-.07.35.32.71.87.81l1.75.31c.56.1,1.06-.1,1.13-.44l.76-3.75c.07-.35-.32-.71-.87-.81l-1.75-.32c-.56-.1-1.06.1-1.13.45Z"/><path class="cls-4" d="M324.67,251.1a1.54,1.54,0,0,0,1.63,1.41L336,252a1.53,1.53,0,0,0,1.47-1.57l-.08-1.49a1.53,1.53,0,0,0-1.63-1.41l-9.68.53a1.53,1.53,0,0,0-1.48,1.57Z"/><path class="cls-5" d="M351,82.53c1.67,3.78-12.49,13.21-31.61,21.06s-36,11.14-37.64,7.36,12.49-13.22,31.61-21.06S349.31,78.74,351,82.53Z"/><path class="cls-6" d="M347.93,78.63c1.85,3.7-11.81,13.77-30.53,22.49s-35.38,12.8-37.23,9.1S292,96.44,310.7,87.72,346.08,74.93,347.93,78.63Z"/><path class="cls-1" d="M321.22,87.21c.52,1-2.72,3.59-7.25,5.7s-8.62,3-9.14,1.94,2.72-3.6,7.25-5.71S320.7,86.17,321.22,87.21Z"/><path class="cls-4" d="M313.43,89.44l-2.77-21.37a.46.46,0,0,0-.92.12l2.77,21.37c-1,.2-1.8.6-1.75,1s1.13.61,2.4.45,2.27-.62,2.22-1S314.5,89.38,313.43,89.44Z"/><path class="cls-4" d="M101,98.15a1.28,1.28,0,0,1-.49,1.7L63.12,128.24a1.28,1.28,0,0,1-1.76,0l-.32-.42a1.27,1.27,0,0,1,.48-1.7L98.93,97.74a1.28,1.28,0,0,1,1.77,0Z"/><rect class="cls-3" x="-8.5" y="194.02" width="163.7" height="2.12" transform="translate(-124.89 259.42) rotate(-87.37)"/><rect class="cls-4" x="72.94" y="139.69" width="5.73" height="3.88" transform="translate(-69.18 210.83) rotate(-87.36)"/><rect class="cls-4" x="71.27" y="175.96" width="5.73" height="3.88" transform="translate(-106.96 243.84) rotate(-87.38)"/><rect class="cls-4" x="67.94" y="248.5" width="5.73" height="3.88" transform="translate(-182.63 309.65) rotate(-87.36)"/><rect class="cls-4" x="69.61" y="212.23" width="5.73" height="3.88" transform="translate(-144.78 276.82) rotate(-87.39)"/><rect class="cls-3" x="36.05" y="273.72" width="41.67" height="2.47" transform="translate(-207.75 181.13) rotate(-58.79)"/><rect class="cls-4" x="42.56" y="290.73" width="7.42" height="3.48" rx="0.93" transform="matrix(0.52, -0.86, 0.86, 0.52, -227.82, 180.42)"/><rect class="cls-3" x="82.15" y="254.79" width="2.47" height="41.67" transform="translate(-121.82 73.6) rotate(-28.61)"/><rect class="cls-4" x="91.46" y="289.89" width="3.48" height="7.42" rx="0.93" transform="translate(-129.09 80.35) rotate(-28.58)"/><rect class="cls-3" x="72.23" y="255.77" width="2.47" height="27.12" transform="translate(-62.56 25.54) rotate(-13.9)"/><path class="cls-4" d="M78.8,283.61c.08.32-.26.68-.76.8l-1.57.39c-.5.13-1,0-1-.36l-.87-3.51c-.08-.33.26-.69.76-.81l1.57-.39c.5-.12,1,0,1.05.36Z"/><rect class="cls-4" x="64.26" y="255.29" width="11.65" height="4.24" rx="1.41"/><path class="cls-6" d="M153.24,112.49c-1.51,6.06-26.51,5-55.83-2.33S45.54,92,47.06,85.91s26.51-5,55.83,2.33S154.76,106.44,153.24,112.49Z"/><path class="cls-1" d="M115.14,97.49c-.43,1.71-6.53,1.65-13.62-.13S89,92.77,89.45,91.06s6.52-1.64,13.61.14S115.56,95.79,115.14,97.49Z"/><path class="cls-4" d="M104.29,92.68a2.32,2.32,0,0,1-2.86,1.56h0a2.32,2.32,0,0,1-1.1-3.07l.88-2.31a2.31,2.31,0,0,1,2.86-1.55h0a2.31,2.31,0,0,1,1.1,3.06Z"/><path class="cls-3" d="M309,187.29l-2.55,94,3,.08L312,187.68A22.78,22.78,0,0,1,309,187.29Z"/><rect class="cls-4" x="304.85" y="241.03" width="8.15" height="5.52" transform="translate(56.8 545.96) rotate(-88.44)"/><rect x="306.24" y="189.45" width="8.15" height="5.52" transform="matrix(0.03, -1, 1, 0.03, 109.73, 497.18)"/><rect class="cls-3" x="324.36" y="250.37" width="3.51" height="59.22" transform="translate(-91.68 179.04) rotate(-27.06)"/><path class="cls-4" d="M339,310.54a1.32,1.32,0,0,0,1.77.58l2-1.05a1.32,1.32,0,0,0,.58-1.77l-3.6-7a1.32,1.32,0,0,0-1.77-.58l-2.05,1.05a1.32,1.32,0,0,0-.58,1.77Z"/><rect class="cls-3" x="258.89" y="276.43" width="59.22" height="3.51" transform="translate(-101.61 370.02) rotate(-57.2)"/><rect class="cls-4" x="267.45" y="300.18" width="10.54" height="4.94" rx="1.32" transform="translate(-129.44 367.77) rotate(-57.17)"/><rect class="cls-3" x="283.93" y="268.53" width="38.54" height="3.51" transform="translate(-47.86 474.59) rotate(-71.91)"/><path class="cls-4" d="M294.17,290c-.15.45.29,1,1,1.23l2.19.71c.69.23,1.37,0,1.52-.4l1.59-4.89c.15-.45-.29-1-1-1.23l-2.19-.71c-.7-.23-1.38-.05-1.52.4Z"/><rect class="cls-4" x="306.22" y="245.46" width="6.02" height="16.56" rx="2.01" transform="translate(33.64 543.67) rotate(-85.82)"/><path class="cls-7" d="M311.29,222.07c-15,2-28.73,2.8-38.77,2.44l-4.3-48.74-7.7-2.17c10-3,25.66-6.14,43.47-8.33,16-2,30.61-2.89,41-2.69l7.19,50.67C342.43,216.55,327.8,219.81,311.29,222.07Z"/><path class="cls-8" d="M272.52,224.51c-9.94-.36-16.29-1.82-16.7-4.31a1.69,1.69,0,0,1,.06-.77l-.18,0-6.46-39.54c-.3-1.83,3.94-4.06,11.28-6.31l7.7,2.17Z"/><path class="cls-9" d="M360.71,165.94l3.68,39-.18,0a1.78,1.78,0,0,1,.25.71c.21,2.21-4.45,4.91-12.31,7.57L345,162.58C354.54,162.77,360.52,163.9,360.71,165.94Z"/><path class="cls-1" d="M249.36,180.05c2.32,3.91,27,4.17,56.57.45,30.64-3.91,55.15-10.59,54.75-14.85l.36,3.79c.4,4.26-24.06,10.95-54.62,14.88s-55.9,3.45-56.6-.87a1,1,0,0,1,0-.46Z"/><path class="cls-10" d="M248.93,179.8c.72,4.4,26.26,4.87,57,1s55.41-10.7,55-15S335,161.11,304,165,248.22,175.4,248.93,179.8Z"/><polygon class="cls-11" points="356.68 211.37 359.42 210.99 355.66 172.64 352.86 173 356.68 211.37"/><polygon class="cls-11" points="260.28 223.57 263.02 223.21 256.84 184.39 254.03 184.74 260.28 223.57"/><polygon class="cls-11" points="325.88 218.88 328.61 218.51 324.07 179.97 321.27 180.33 325.88 218.88"/><polygon class="cls-11" points="289.89 224.04 292.62 223.68 287.17 184.96 284.38 185.32 289.89 224.04"/><path class="cls-11" d="M319.67,181.2c.11.6,1.7.86,3.55.59s3.26-1,3.15-1.58-1.7-.87-3.55-.59S319.56,180.59,319.67,181.2Z"/><path class="cls-11" d="M351.36,173.72c.51.5,2.2.45,3.78-.11s2.45-1.42,1.95-1.92-2.19-.45-3.78.11S350.86,173.22,351.36,173.72Z"/><path class="cls-11" d="M289.27,184.83c0,.62-1.47,1.26-3.33,1.44s-3.38-.17-3.4-.79,1.47-1.26,3.33-1.44S289.25,184.22,289.27,184.83Z"/><path class="cls-11" d="M258.16,184.92c-.38.62-2,1-3.7.8s-2.69-.82-2.31-1.44,2-1,3.7-.8S258.54,184.3,258.16,184.92Z"/><path class="cls-11" d="M255.7,218.88c2.32,4.14,26.43,4.49,55.26.63,29.88-4.07,53.76-11.07,53.33-15.59l.38,4c.43,4.52-23.39,11.54-53.19,15.62s-54.54,3.51-55.29-1.07a1.61,1.61,0,0,1,0-.49Z"/><path class="cls-11" d="M323.94,219c.11.61,1.67.88,3.47.6s3.18-1,3.06-1.61-1.66-.87-3.46-.59S323.83,218.35,323.94,219Z"/><path class="cls-11" d="M354.86,211.3c.49.5,2.14.45,3.69-.13s2.39-1.44,1.89-1.94-2.14-.44-3.69.13S354.36,210.8,354.86,211.3Z"/><path class="cls-11" d="M294.27,222.73c0,.62-1.43,1.28-3.24,1.47s-3.3-.17-3.33-.79,1.43-1.28,3.24-1.47S294.25,222.11,294.27,222.73Z"/><path class="cls-11" d="M263.9,222.93c-.37.62-2,1-3.61.81s-2.64-.82-2.27-1.44,2-1,3.61-.82S264.27,222.3,263.9,222.93Z"/><polygon class="cls-3" points="69.68 310.06 66.62 309.62 76.25 251.77 79.31 252.22 69.68 310.06"/><path class="cls-4" d="M69.74,313.52a1.27,1.27,0,0,1-1.36,1.12l-2-.29a1.2,1.2,0,0,1-.94-1.45l1.29-7.72a1.27,1.27,0,0,1,1.36-1.12l2,.29A1.21,1.21,0,0,1,71,305.8Z"/><polygon class="cls-3" points="180.65 315.9 183.74 315.87 181.87 257.26 178.77 257.29 180.65 315.9"/><path class="cls-4" d="M180.13,319.32a1.26,1.26,0,0,0,1.2,1.29l2,0a1.2,1.2,0,0,0,1.12-1.32l-.25-7.82a1.26,1.26,0,0,0-1.2-1.29l-2,0a1.22,1.22,0,0,0-1.12,1.32Z"/><polygon class="cls-3" points="133.46 304.21 136.55 304.25 135.83 245.61 132.74 245.58 133.46 304.21"/><path class="cls-4" d="M132.87,307.63a1.27,1.27,0,0,0,1.18,1.31l2,0a1.22,1.22,0,0,0,1.15-1.3l-.1-7.82a1.28,1.28,0,0,0-1.18-1.32h-2a1.2,1.2,0,0,0-1.14,1.29Z"/><path class="cls-7" d="M128.91,267.2c15.08,1.35,28.86.89,38.94-.91l3.6-77.41,7.69-4.36c-10-3.59-25.83-6.54-43.73-7.8-16.12-1.19-30.75-.81-41.14.78l-6.48,80.81C97.59,262.33,112.32,265.67,128.91,267.2Z"/><path class="cls-8" d="M167.85,266.29c10-1.78,16.31-4.87,16.68-8.85a3.74,3.74,0,0,0-.07-1.2h.19l5.9-63.16c.27-2.93-4-5.92-11.41-8.57l-7.69,4.36Z"/><path class="cls-9" d="M78.52,184.73l-3.13,62,.19,0a3.53,3.53,0,0,0-.24,1.15c-.18,3.51,4.53,7.19,12.45,10.43l6.48-80.81C84.66,179,78.68,181.48,78.52,184.73Z"/><path class="cls-1" d="M190.43,193.32c-2.27,6.45-27,9.9-56.75,7.66-30.79-2.42-55.48-9.94-55.14-16.71l-.3,6c-.34,6.77,24.29,14.33,55,16.78s56.14-1.42,56.78-8.32a2.9,2.9,0,0,0,0-.72Z"/><path class="cls-10" d="M190.85,192.87c-.65,7-26.27,10.91-57.2,8.57s-55.75-10.07-55.41-17,26-10.53,57.21-8.23S191.51,185.85,190.85,192.87Z"/><polygon class="cls-11" points="83.22 255.89 80.47 255.63 83.68 194.67 86.5 194.9 83.22 255.89"/><polygon class="cls-11" points="180.1 263.31 177.36 263.08 182.99 201.09 185.81 201.29 180.1 263.31"/><polygon class="cls-11" points="114.23 263.97 111.49 263.71 115.48 202.37 118.29 202.59 114.23 263.97"/><polygon class="cls-11" points="150.4 267.69 147.66 267.45 152.57 205.71 155.38 205.93 150.4 267.69"/><path class="cls-11" d="M119.91,203.76c-.11,1-1.7,1.58-3.55,1.37s-3.28-1.14-3.18-2.1,1.69-1.58,3.55-1.38S120,202.79,119.91,203.76Z"/><path class="cls-11" d="M88,195.86c-.5.85-2.2,1-3.79.28s-2.48-1.94-2-2.79,2.2-1,3.79-.28S88.51,195,88,195.86Z"/><path class="cls-11" d="M150.46,205.76c0,1,1.5,1.81,3.36,1.87s3.39-.7,3.41-1.67-1.5-1.81-3.36-1.87S150.47,204.79,150.46,205.76Z"/><path class="cls-11" d="M181.67,202.08c.4.93,2.06,1.29,3.73.81s2.69-1.63,2.3-2.56-2.07-1.28-3.73-.8S181.28,201.16,181.67,202.08Z"/><path class="cls-11" d="M184.64,255.34c-2.27,6.83-26.46,10.33-55.43,7.78-30-2.74-54.1-10.87-53.73-18l-.33,6.37c-.36,7.18,23.63,15.34,53.59,18.11s54.77-1.16,55.45-8.48a2.77,2.77,0,0,0,0-.76Z"/><path class="cls-11" d="M116.18,263.84c-.11,1-1.66,1.58-3.48,1.36s-3.2-1.19-3.09-2.16,1.65-1.57,3.47-1.35S116.28,262.87,116.18,263.84Z"/><path class="cls-11" d="M85,255.57c-.48.85-2.14,1-3.7.25s-2.41-2-1.93-2.84,2.15-1,3.71-.25S85.53,254.71,85,255.57Z"/><path class="cls-11" d="M146,266.16c0,1,1.45,1.84,3.27,1.91s3.31-.67,3.33-1.65-1.45-1.84-3.28-1.92S146,265.17,146,266.16Z"/><path class="cls-11" d="M176.47,262.74c.38.94,2,1.32,3.63.84s2.63-1.61,2.26-2.55-2-1.32-3.64-.84S176.09,261.8,176.47,262.74Z"/><path class="cls-7" d="M244,126.47c-11.17,3.11-20.9,7.1-27.58,11L236,191l-4.08,5c8-.17,19.69-2.25,32.4-6,11.46-3.37,21.47-7.44,28.24-11.23l-16.77-57.15C267.7,121.43,256.25,123.08,244,126.47Z"/><path class="cls-8" d="M216.37,137.48c-6.6,3.86-10.23,7.65-9.33,10.45a3.09,3.09,0,0,0,.4.79l-.13,0,14.24,44.38c.66,2.06,4.49,3,10.36,2.85l4.08-5Z"/><path class="cls-9" d="M301.59,169.65l-13.92-43.43-.14,0a3,3,0,0,0-.12-.85c-.79-2.46-5.12-3.73-11.63-3.84l16.77,57.15C298.82,175.21,302.32,171.93,301.59,169.65Z"/><path class="cls-1" d="M221.56,193c-.29-5,15.95-13.77,37.29-20,22.13-6.4,41.32-7.7,42.84-3l-1.35-4.21c-1.52-4.74-20.72-3.47-42.86,2.91s-38.76,15.65-37.21,20.5a2.65,2.65,0,0,0,.23.48Z"/><path class="cls-12" d="M221.4,193.37c-1.59-4.94,15.13-14.26,37.35-20.77s41.54-7.68,43.09-2.85-15.22,14-37.43,20.53S223,198.3,221.4,193.37Z"/><polygon class="cls-11" points="279.68 122 281.71 121.45 295.41 164.17 293.38 164.75 279.68 122"/><polygon class="cls-11" points="208.48 142.78 210.51 142.2 224.48 185.74 222.46 186.34 208.48 142.78"/><polygon class="cls-11" points="255.34 124.75 257.38 124.19 271.17 167.21 269.15 167.8 255.34 124.75"/><polygon class="cls-11" points="228.43 131.87 230.46 131.31 244.36 174.64 242.34 175.23 228.43 131.87"/><path class="cls-11" d="M267.7,167.43c-.19-.69.76-1.53,2.11-1.88s2.6-.07,2.79.61-.75,1.52-2.11,1.87S267.89,168.11,267.7,167.43Z"/><path class="cls-11" d="M292.08,164.49c.12-.72,1.27-1.25,2.57-1.19s2.23.68,2.11,1.4-1.28,1.24-2.57,1.18S292,165.2,292.08,164.49Z"/><path class="cls-11" d="M245.81,174.06c-.26-.67-1.54-.84-2.86-.39s-2.17,1.36-1.91,2,1.55.84,2.87.39S246.08,174.73,245.81,174.06Z"/><path class="cls-11" d="M225.11,184.72c-.54-.52-1.8-.33-2.82.43s-1.4,1.81-.86,2.33,1.8.34,2.82-.43S225.65,185.25,225.11,184.72Z"/><path class="cls-11" d="M207.58,149.38c-.38-5.23,15.87-14.06,37.29-20,22.22-6.14,41.55-7,43.16-2l-1.43-4.47c-1.61-5-21-4.2-43.18,1.91s-38.85,15.42-37.2,20.56a2.38,2.38,0,0,0,.24.51Z"/><path class="cls-11" d="M254,125.36c-.19-.69.75-1.52,2.11-1.86s2.61,0,2.8.65-.75,1.52-2.11,1.86S254.18,126.05,254,125.36Z"/><path class="cls-11" d="M278.46,122.72c.13-.72,1.28-1.24,2.58-1.16s2.25.71,2.12,1.43-1.28,1.23-2.57,1.16S278.34,123.43,278.46,122.72Z"/><path class="cls-11" d="M232,131.74c-.27-.67-1.56-.86-2.88-.43s-2.18,1.34-1.91,2,1.55.86,2.88.43S232.28,132.42,232,131.74Z"/><path class="cls-11" d="M211.24,142.19c-.54-.53-1.81-.36-2.83.4s-1.41,1.79-.86,2.33,1.81.36,2.83-.4S211.78,142.72,211.24,142.19Z"/><path class="cls-7" d="M166.34,126.85c11.17,3.12,20.9,7.11,27.58,11l-19.63,53.55,4.08,5c-8-.17-19.69-2.26-32.39-6-11.47-3.38-21.47-7.44-28.24-11.23L134.51,122C142.58,121.82,154,123.46,166.34,126.85Z"/><path class="cls-8" d="M193.92,137.87c6.59,3.86,10.22,7.65,9.32,10.45a2.8,2.8,0,0,1-.4.79l.14,0-14.24,44.38c-.66,2.06-4.49,3-10.37,2.85l-4.08-5Z"/><path class="cls-9" d="M108.7,170l13.92-43.43.13,0a2.7,2.7,0,0,1,.13-.85c.79-2.46,5.11-3.73,11.63-3.84l-16.77,57.15C111.46,175.6,108,172.32,108.7,170Z"/><path class="cls-1" d="M188.73,193.34c.29-5-16-13.78-37.3-20-22.13-6.4-41.32-7.7-42.84-3l1.35-4.21c1.52-4.74,20.72-3.47,42.86,2.9s38.77,15.66,37.21,20.51a1.77,1.77,0,0,1-.23.48Z"/><path class="cls-12" d="M188.89,193.76c1.58-4.94-15.13-14.27-37.35-20.77s-41.55-7.68-43.1-2.85,15.22,14,37.43,20.53S187.3,198.69,188.89,193.76Z"/><polygon class="cls-11" points="130.61 122.39 128.57 121.84 114.88 164.56 116.9 165.13 130.61 122.39"/><polygon class="cls-11" points="201.8 143.16 199.77 142.59 185.81 186.13 187.82 186.73 201.8 143.16"/><polygon class="cls-11" points="154.94 125.14 152.91 124.58 139.11 167.6 141.14 168.19 154.94 125.14"/><polygon class="cls-11" points="181.85 132.26 179.82 131.69 165.92 175.03 167.94 175.62 181.85 132.26"/><path class="cls-11" d="M142.58,167.82c.19-.69-.76-1.53-2.11-1.88s-2.6-.08-2.79.61.76,1.52,2.11,1.87S142.39,168.5,142.58,167.82Z"/><path class="cls-11" d="M118.21,164.87c-.13-.71-1.28-1.24-2.57-1.18s-2.24.68-2.11,1.39,1.27,1.25,2.56,1.19S118.33,165.59,118.21,164.87Z"/><path class="cls-11" d="M164.47,174.45c.26-.67,1.55-.85,2.87-.39s2.17,1.36,1.9,2-1.55.84-2.87.38S164.2,175.11,164.47,174.45Z"/><path class="cls-11" d="M185.17,185.11c.54-.53,1.81-.33,2.83.43s1.4,1.81.86,2.33-1.81.33-2.82-.43S184.63,185.64,185.17,185.11Z"/><path class="cls-11" d="M202.7,149.77c.38-5.23-15.86-14.06-37.28-20.05-22.22-6.14-41.56-7-43.17-2l1.43-4.47c1.62-5,21-4.21,43.19,1.91s38.85,15.41,37.19,20.56a2,2,0,0,1-.23.51Z"/><path class="cls-11" d="M156.3,125.75c.19-.7-.76-1.53-2.12-1.86s-2.61,0-2.8.65.76,1.52,2.11,1.85S156.11,126.44,156.3,125.75Z"/><path class="cls-11" d="M131.82,123.11c-.12-.72-1.28-1.24-2.58-1.16s-2.24.71-2.12,1.43,1.28,1.23,2.58,1.16S132,123.82,131.82,123.11Z"/><path class="cls-11" d="M178.27,132.13c.26-.67,1.55-.86,2.88-.43s2.18,1.34,1.91,2-1.56.86-2.88.42S178,132.81,178.27,132.13Z"/><path class="cls-11" d="M199,142.58c.55-.54,1.82-.36,2.84.39s1.4,1.8.86,2.34-1.81.35-2.83-.4S198.5,143.11,199,142.58Z"/><path class="cls-3" d="M194.09,195.43a1.69,1.69,0,0,1-1.55,1.81h-3.1a1.7,1.7,0,0,1-1.56-1.81V155.6a1.7,1.7,0,0,1,1.56-1.81h3.1a1.69,1.69,0,0,1,1.55,1.81Z"/><polygon class="cls-4" points="185.17 154.18 181.68 166.2 196.03 170.86 197.97 158.06 185.17 154.18"/><path class="cls-13" d="M193.06,188.7a.78.78,0,0,1-.78.78h0a.78.78,0,0,1-.78-.78V155.34a.78.78,0,0,1,.78-.78h0a.78.78,0,0,1,.78.78Z"/><path class="cls-3" d="M218.53,195a1.7,1.7,0,0,0,1.55,1.81h3.11a1.7,1.7,0,0,0,1.55-1.81V155.21a1.7,1.7,0,0,0-1.55-1.81h-3.11a1.7,1.7,0,0,0-1.55,1.81Z"/><polygon class="cls-4" points="227.45 153.79 230.95 165.81 216.59 170.47 214.65 157.67 227.45 153.79"/><path class="cls-13" d="M223.83,189a.51.51,0,0,1-.51.52h0a.52.52,0,0,1-.52-.52V154.82a.51.51,0,0,1,.52-.51h0a.51.51,0,0,1,.51.51Z"/><polygon class="cls-3" points="156.61 312.51 153.93 311.29 166.74 277.87 169.43 279.1 156.61 312.51"/><path class="cls-4" d="M156.41,314.71c-.15.41-.73.54-1.29.29l-1.76-.81c-.56-.25-.89-.79-.73-1.2l1.71-4.46c.16-.41.74-.54,1.3-.29l1.76.81a1.05,1.05,0,0,1,.72,1.2Z"/><polygon class="cls-3" points="262.05 310.86 264.74 309.63 251.93 276.21 249.24 277.44 262.05 310.86"/><path class="cls-4" d="M262.26,313.06c.15.41.73.53,1.29.28l1.76-.8a1.09,1.09,0,0,0,.73-1.21l-1.71-4.46c-.16-.41-.74-.54-1.3-.28l-1.76.8c-.56.26-.88.79-.73,1.2Z"/><path class="cls-9" d="M270.9,253.1a63.62,63.62,0,1,1-63.62-63.62A63.62,63.62,0,0,1,270.9,253.1Z"/><polygon class="cls-3" points="132.94 321.89 129.17 320.17 147.17 273.22 150.94 274.94 132.94 321.89"/><path class="cls-4" d="M132.66,325c-.22.58-1,.75-1.82.4l-2.47-1.13a1.51,1.51,0,0,1-1-1.7l2.4-6.26c.22-.58,1-.76,1.82-.4l2.48,1.13c.78.36,1.24,1.12,1,1.69Z"/><polygon class="cls-3" points="281.07 319.56 284.85 317.84 266.85 270.89 263.07 272.62 281.07 319.56"/><path class="cls-4" d="M281.36,322.65c.22.58,1,.76,1.81.4l2.48-1.13c.78-.36,1.24-1.11,1-1.69l-2.4-6.27c-.23-.58-1-.75-1.82-.4L280,314.69c-.78.36-1.24,1.12-1,1.69Z"/><circle class="cls-8" cx="206.89" cy="256.59" r="63.24" transform="translate(-58.12 452.59) rotate(-87.61)"/><circle class="cls-1" cx="206.89" cy="256.59" r="62.07" transform="translate(-75.73 86.98) rotate(-20.15)"/><circle class="cls-14" cx="206.89" cy="256.59" r="58.58" transform="translate(-54.27 457.69) rotate(-88.72)"/><path class="cls-15" d="M207.28,199.31a57.74,57.74,0,0,0-57.93,57.54,57.1,57.1,0,0,0,13.88,37.36l97.34-60A58,58,0,0,0,207.28,199.31Z"/><path class="cls-16" d="M207.28,314.4a57.53,57.53,0,0,0,53.29-80.16l-97.34,60A58,58,0,0,0,207.28,314.4Z"/><path class="cls-11" d="M173.71,202.22c.73,1.13,0,2.86-1.53,3.88s-3.44.93-4.17-.19,0-2.86,1.53-3.88S173,201.1,173.71,202.22Z"/><path class="cls-11" d="M143.38,257.07c1.34-.06,2.5,1.4,2.59,3.27s-.91,3.45-2.25,3.51-2.5-1.39-2.59-3.26S142,257.14,143.38,257.07Z"/><path class="cls-11" d="M175.29,310.9c.49-1,2.25-1.06,3.92-.21s2.61,2.33,2.12,3.3-2.25,1.07-3.92.21S174.79,311.87,175.29,310.9Z"/><path class="cls-11" d="M237.26,311.62c-.52-.81.33-2.29,1.91-3.31s3.27-1.19,3.79-.38-.32,2.29-1.9,3.31S237.79,312.43,237.26,311.62Z"/><path class="cls-11" d="M270.72,258c-1.23.06-2.3-1.41-2.4-3.28s.83-3.44,2.06-3.5,2.3,1.41,2.39,3.28S272,257.92,270.72,258Z"/><path class="cls-11" d="M238.38,201.74c-.61,1.19-2.46,1.47-4.13.61s-2.52-2.51-1.91-3.7,2.46-1.47,4.13-.61S239,200.55,238.38,201.74Z"/><path class="cls-13" d="M282,311.51c.21.53.19,1,0,1.11h0c-.23.09-.58-.26-.78-.78L268,278.24c-.21-.52-.19-1,0-1.1h0c.23-.09.58.26.78.78Z"/></g></svg>