<?xml version="1.0" encoding="utf-8"?>
<!-- Generator: Adobe Illustrator 25.2.3, SVG Export Plug-In . SVG Version: 6.00 Build 0)  -->
<svg version="1.1" id="Layer_1" xmlns="http://www.w3.org/2000/svg" xmlns:xlink="http://www.w3.org/1999/xlink" x="0px" y="0px"
	 viewBox="0 0 400 400" style="enable-background:new 0 0 400 400;" xml:space="preserve">
<style type="text/css">
	.st0{fill:#FFFFFF;}
	.st1{clip-path:url(#SVGID_2_);}
	.st2{fill:#EDEDCC;}
	.st3{fill:#F7E1B4;}
	.st4{fill:#E9F2E4;}
	.st5{fill:#E0E0E0;}
	.st6{fill:#D98228;}
	.st7{fill:#F9DFC0;}
	.st8{fill:#EDEDED;}
	.st9{fill:#F9E9D6;}
	.st10{fill:#FF9A2E;}
	.st11{fill:#F2F2F2;}
	.st12{fill:#DBDBDB;}
	.st13{fill:#EBEBEB;}
	.st14{fill:#51A833;}
	.st15{fill:#DEDEDE;}
	.st16{fill:#B8DEFF;}
	.st17{fill:#2D8DDC;}
	.st18{fill:#006B79;}
	.st19{fill:#C2C2C2;}
	.st20{fill:#9EB3BE;}
	.st21{fill:#762121;}
	.st22{fill:#D2B252;}
	.st23{fill:#DFD1C1;}
	.st24{fill:#A79A8F;}
	.st25{fill:#E2D4C3;}
	.st26{fill:#B3B3B3;}
	.st27{fill:#BADFFF;}
	.st28{fill:#FFCB42;}
	.st29{fill:#F94A4A;}
	.st30{fill:#3EB84B;}
	.st31{fill:#39A845;}
	.st32{fill:#F6FCC2;}
	.st33{fill:#F95C5C;}
	.st34{fill:#C23A3A;}
	.st35{fill:#423131;}
	.st36{fill:#F5C9A9;}
	.st37{fill:#E3CFA5;}
	.st38{fill:#B83903;}
	.st39{fill:#D9D9D9;}
	.st40{fill:#A1A1A1;}
	.st41{fill:#E8E8E8;}
	.st42{fill:#778F20;}
	.st43{fill:#ADAA30;}
	.st44{fill:#D6874D;}
	.st45{fill:#DB935C;}
	.st46{fill:#DB9967;}
	.st47{fill:#2B1C11;}
	.st48{fill:#0D0D0D;}
	.st49{fill:#C97F46;}
	.st50{fill:#AB6C3A;}
	.st51{fill:#85512C;}
	.st52{fill:#915C37;}
	.st53{fill:#BFB1A8;}
	.st54{fill:#F7EDE5;}
	.st55{fill:#D1D190;}
	.st56{fill:#D1E9FF;}
	.st57{fill:#DC3722;}
	.st58{fill:#C9C9C9;}
	.st59{fill:#D6D6D6;}
	.st60{fill:#804F37;}
	.st61{fill:#38792C;}
	.st62{fill:#418532;}
	.st63{fill:#C9A987;}
	.st64{fill:#FFDC75;}
	.st65{fill:#8A8A8A;}
	.st66{fill:#D9860D;}
	.st67{fill:#E6E6E6;}
	.st68{fill:#A6A6A6;}
	.st69{fill:#BAB4B4;}
	.st70{fill:#757171;}
	.st71{fill:#C7C7C7;}
	.st72{fill:#2B6B6F;stroke:#173C3D;stroke-width:0.75;stroke-miterlimit:10;}
	.st73{fill:#2F767A;stroke:#1F5151;stroke-width:0.75;stroke-miterlimit:10;}
	.st74{fill:#E3E3E3;}
	.st75{fill:#F5B387;}
	.st76{fill:#CFF0EC;stroke:#688C87;stroke-miterlimit:10;}
	.st77{fill:#D1E2EB;}
	.st78{fill:#595959;}
	.st79{fill:#DBEDF7;stroke:#7C9099;stroke-miterlimit:10;}
	.st80{fill:#2B6B6F;}
	.st81{fill:#3B3B3B;}
	.st82{fill:#CFF0EC;}
	.st83{opacity:0.78;}
	.st84{fill:#35211E;}
	.st85{opacity:0.78;fill:#35211E;enable-background:new    ;}
	.st86{fill:#F94A4A;stroke:#B53333;stroke-width:0.75;stroke-miterlimit:10;}
	.st87{fill:#39A845;stroke:#1C5620;stroke-miterlimit:10;}
	.st88{fill:#FFE6BA;}
	.st89{fill:#FFDB9E;}
	.st90{fill:#008F3E;}
	.st91{fill:#CFCFCF;}
	.st92{fill:#FF5151;}
	.st93{fill:#F7E1B4;stroke:#9E8A67;stroke-miterlimit:10;}
	.st94{fill:#808080;}
	.st95{fill:#424242;}
	.st96{fill:#ADADAD;}
</style>
<circle class="st0" cx="200" cy="200" r="196.5"/>
<g>
	<defs>
		<circle id="SVGID_1_" cx="200" cy="200" r="196.5"/>
	</defs>
	<clipPath id="SVGID_2_">
		<use xlink:href="#SVGID_1_"  style="overflow:visible;"/>
	</clipPath>
	<g class="st1">
		<path class="st2" d="M169.1,108.4c-8.7-5.3,5.6-10.2,12.1-18s-13.6-20.2-13.6-20.2s28,11.8,16.3,20.5S165.5,103.6,169.1,108.4z"/>
		<path class="st3" d="M185.3,119.3c-5.7-2.8-7.1-9.8-1.1-11.6s7.5,5.9,7.5,5.9s3.7-4.5,7.1-1.4s2.3,11-5,8.3
			c-2.3,4.1-7.1,19-7.1,19s9.5,3.6,5.5,9.6s-9.7-0.8-9.7-0.8s-4.9,7.3-11.2,2.8s1.1-12.5,7.2-11.2
			C181.5,133.4,183.8,126.4,185.3,119.3z"/>
		<g>
			<path class="st4" d="M182.4,117.1c-1.9-1.6-1-4.5-0.4-3.9s0.4-0.9,0.4-1.6s1.5-4,2.7-0.6s5.5-0.6,5.6,1.6s-0.9,4.9-2.3,4.5
				s0,1-0.8,1.9S183.3,117.8,182.4,117.1z"/>
		</g>
		<g>
			<path class="st4" d="M185.4,119.9c0.3-1.5,0.9-1.1-0.4-2.4s1.2-2,2.4-0.8s2.7-1.5,3.4-0.6s-7.1,10.8-7.1,10.8L185.4,119.9z"/>
		</g>
		<g>
			<path class="st4" d="M186.4,138.8l-0.4,1c0,0,2.4,0.2,2.7,2c0,1,0.6,1.9,1.5,2.3c0.7,0.6-0.3,6.2-2.1,2.7s-2-2.8-3.5-1.7
				s-4.1,0.4-3.6-2.3S186.4,138.8,186.4,138.8z"/>
		</g>
		<g>
			<path class="st5" d="M193.8,120.5c5.9,2.1,7.8-2.6,6.5-6.1c0.2,2.8-1.9,5.2-4.6,5.4c-0.9,0.1-1.7-0.1-2.5-0.5
				c-3.2,5.6-6.5,20.3-6.5,20.3S191.4,124.6,193.8,120.5z"/>
		</g>
		<g>
			<path class="st5" d="M170.6,150.8c0.2,0.1,0.3,0.3,0.5,0.4c6.3,4.6,11.2-2.8,11.2-2.8l-1.9-1.8
				C180.5,146.7,177.9,154.6,170.6,150.8z"/>
		</g>
		<path class="st6" d="M241.2,125.1c-2.3-1.8-4.2-2-9.5-3c-4.6-0.7-9.3-0.6-13.9,0.3c-1.1,0.4-2,1.1-2.5,2.1l-0.2,4
			c2.5-0.5,5-0.6,7.6-0.3c4.8,0.3,5.2,1.6,7.8,1.4s7-2.4,7.8-0.3s4.8,1.2,4.8,1.2L241.2,125.1z"/>
		<path class="st6" d="M243.3,149.7c0,0-5.2-4.3-8.2-3.5s-6.5,1.1-8.5-1.3s-6.9-2.3-9-3.2c-1-0.5-2-0.8-3.1-0.9l0.1,4.6
			c0,0,2.8,1.9,4.7,2.1s2.1,1,3.8,2.6s5.6,2.7,8.4,2.7s4.3,4.6,3.5,5.2S243.3,149.7,243.3,149.7z"/>
		<path class="st7" d="M241.3,124.7c-2.3-1.8-4.2-2-9.5-3c-4.6-0.7-9.3-0.6-13.9,0.3c-1.1,0.4-2,1.1-2.5,2.1l-0.3,4.4
			c2.5-0.8,5.1-1,7.7-0.8c4.8,0.3,5.1,1.8,7.8,1.7s7.1-2.6,7.9-0.5s4.8,1.2,4.8,1.2L241.3,124.7z"/>
		<g>
			<path class="st8" d="M242.7,128.5l-1.4-3.8c-2.3-1.8-4.2-2-9.5-3c-4.3-0.7-8.8-0.6-13.1,0.1l-3.4,2.8l-0.3,3.7h0.1
				c0,0,2.6-5,7.5-6s6.4-1.1,9.3-0.2s8.1,1.9,8.4,2.4s-0.6,4.2-1.5,4.9c0.6,0.4,1.3,0.7,2,0.7L242.7,128.5z"/>
		</g>
		<path class="st7" d="M243.4,149.6c0,0-5.2-4.3-8.2-3.5s-6.5,1.1-8.5-1.3s-6.9-2.3-9-3.2c-1-0.5-2-0.8-3.1-0.9v4.7
			c1.5,0.9,3.1,1.6,4.8,2c1.9,0.2,2.1,1,3.8,2.6s5.6,2.7,8.4,2.7s4.3,4.6,3.5,5.2S243.4,149.6,243.4,149.6z"/>
		<g>
			<path class="st8" d="M239.5,149.6c-0.2,1.1-1.3,1.8-2.4,1.6c0,0,0,0-0.1,0c-1.8-0.5-2.7,1.6-4,1.2s-3-1.6-6-1.4s-2.7-1-5.7-2.8
				l0,0c0.7,0.6,1.3,1.2,1.9,1.9c1.6,1.6,5.6,2.7,8.4,2.7c2.6,0,4.1,4,3.6,5.1c1.1-1.2,8.2-8.2,8.2-8.2c-1.1-0.9-2.2-1.6-3.5-2.3
				l0,0C243.8,149.7,239.6,149.3,239.5,149.6z"/>
			<path class="st8" d="M235.1,158c0.1,0,0.1-0.1,0.1-0.1C235.1,158,235,158,235.1,158z"/>
		</g>
		<path class="st9" d="M219.9,154c5.1,3.7,6.9,6.2,7.6,3s0.3-3.9,1-3.8s0.5-1.6,1.6-1.7s3.2,2.4,3.7,1.9s2.1-1.9,3.4-1.3
			s1.7,0.3,2.4-1s0.3,2.8-0.3,3.4s-7.5,4.7-8,4.5s-5.5,0.7-5.5,0.7s-2.9-1.6-3.1-1.8l-2.1-2.7L219.9,154z"/>
		<path class="st10" d="M219.9,154c1.9,4.7,7.4,9.5,14.3,7.4s9.6-13.8,9.2-11.8c-3.1,0.3-3.2-0.8-3.8,1.3s-1.1,2.6-2,1.5
			s-2.7,0.1-3.2,0.3s0.7,1.6-1.7,0.7s-2.1-3.3-4-1S230.1,164.5,219.9,154z"/>
		<path class="st10" d="M214.6,145.4c-0.5-1.9,4.1-0.4,6.4-4.2s2.1-4.9,3.6-3.1s3.8,0.1,5.2-0.6s3.5,5.3,7.1,0.2s6.2-7.3,6.9-7
			c0.2-2.3-0.7-4.5-2.5-6c0,0,1.2,4.2-2.1,5.1s-1.5-4.9-4.4,0.3s-5.4,2.6-6.9,3.3s-2.5-1.6-4.8,1.3c-1.9,2.5-4.6,4.4-7.5,5.4
			C213.3,140.9,214,144.5,214.6,145.4z"/>
		<path class="st10" d="M215.1,128.5c1-6.5,6.3-6.3,10.8-9s5.8-3.3,8.5-2.2s4.1,0.8,4.1,0.8s-2.3-5.5-4.4-6.2
			c-0.9,1.2-2.3,5.8-5.1,3.5s-2.7-1.6-4.6,1.1s-8.9,3.1-10.1,6.2C213.6,124.7,213.9,126.8,215.1,128.5z"/>
		<g>
			<path class="st11" d="M233.3,156.5c0.2,0.2,0.1,0.5-0.1,0.7c-0.2,0.2-0.5,0.1-0.7-0.1c-0.2-0.2-0.1-0.5,0.1-0.7
				C232.8,156.2,233.1,156.3,233.3,156.5C233.3,156.5,233.3,156.5,233.3,156.5z"/>
		</g>
		<g>
			<path class="st12" d="M233.2,159.4c0.1,0.1,0.1,0.2,0,0.3c-0.1,0.1-0.2,0.1-0.3,0c0,0,0,0,0,0c-0.1-0.1-0.1-0.2,0-0.3
				C233,159.3,233.1,159.3,233.2,159.4C233.2,159.4,233.2,159.4,233.2,159.4z"/>
		</g>
		<g>
			<path class="st13" d="M233.6,158.1c0.1,0.1,0.1,0.3,0,0.4c-0.1,0.1-0.3,0.1-0.4,0c-0.1-0.1-0.1-0.3,0-0.4l0,0
				C233.3,158,233.4,158,233.6,158.1z"/>
		</g>
		<g>
			<path class="st11" d="M231.5,160.6c-0.3,0-0.5-0.2-0.5-0.5c0-0.3,0.2-0.5,0.5-0.5c0.3,0,0.5,0.2,0.5,0.5c0,0,0,0,0,0
				C232,160.4,231.8,160.6,231.5,160.6C231.5,160.6,231.5,160.6,231.5,160.6z"/>
		</g>
		<g>
			<path class="st12" d="M231.8,156.8c-0.1,0-0.2-0.1-0.2-0.2c0,0,0,0,0,0c0-0.1,0.1-0.2,0.2-0.2c0,0,0,0,0,0c0.1,0,0.2,0.1,0.2,0.2
				c0,0,0,0,0,0C232,156.7,231.9,156.8,231.8,156.8z"/>
		</g>
		<g>
			<path class="st12" d="M232.2,158.3c-0.1,0-0.2-0.1-0.2-0.1c0,0,0,0,0,0c0-0.1,0.1-0.2,0.2-0.2c0.1,0,0.2,0.1,0.2,0.2
				C232.3,158.2,232.3,158.3,232.2,158.3z"/>
		</g>
		<g>
			<path class="st12" d="M230.3,159.4c-0.1,0-0.2-0.1-0.2-0.2c0-0.1,0.1-0.2,0.2-0.2c0,0,0,0,0,0c0.1,0,0.2,0.1,0.2,0.2
				C230.5,159.3,230.4,159.4,230.3,159.4z"/>
		</g>
		<g>
			<path class="st13" d="M231.2,158.4c-0.2,0-0.3-0.1-0.3-0.3c0-0.2,0.1-0.3,0.3-0.3c0.2,0,0.3,0.1,0.3,0.3c0,0,0,0,0,0
				C231.5,158.3,231.3,158.4,231.2,158.4z"/>
		</g>
		<g>
			<path class="st11" d="M238.1,156c-0.1,0.2-0.4,0.3-0.7,0.1s-0.3-0.4-0.1-0.7c0.1-0.2,0.4-0.3,0.7-0.1c0,0,0,0,0,0
				C238.2,155.5,238.3,155.8,238.1,156C238.1,156,238.1,156,238.1,156z"/>
		</g>
		<g>
			<circle class="st12" cx="235.1" cy="156.6" r="0.2"/>
		</g>
		<g>
			<path class="st13" d="M236.6,156.7c-0.1,0.1-0.3,0.2-0.4,0.1c-0.1-0.1-0.2-0.3-0.1-0.4c0,0,0,0,0,0c0.1-0.1,0.3-0.2,0.4-0.1
				C236.6,156.4,236.7,156.6,236.6,156.7C236.6,156.7,236.6,156.7,236.6,156.7z"/>
		</g>
		<g>
			<path class="st11" d="M233.6,155.4c-0.1-0.3,0.1-0.5,0.3-0.6c0,0,0,0,0,0c0.3-0.1,0.5,0.1,0.6,0.3c0,0,0,0,0,0
				c0.1,0.3-0.1,0.5-0.3,0.6C234,155.8,233.7,155.6,233.6,155.4C233.6,155.4,233.6,155.4,233.6,155.4z"/>
		</g>
		<g>
			<path class="st12" d="M237.4,154.7c0-0.1,0.1-0.3,0.2-0.3c0.1,0,0.2,0,0.2,0.1c0,0.1,0,0.3-0.2,0.3
				C237.5,154.9,237.4,154.8,237.4,154.7z"/>
		</g>
		<g>
			<path class="st12" d="M236,155.4c0-0.1,0-0.2,0.1-0.2c0,0,0,0,0,0c0.1,0,0.2,0,0.2,0.1c0,0.1,0,0.2-0.1,0.2c0,0,0,0,0,0
				C236.1,155.5,236,155.5,236,155.4C236,155.4,236,155.4,236,155.4z"/>
		</g>
		<g>
			<path class="st12" d="M234.5,153.9c0-0.1,0-0.2,0.1-0.2c0.1,0,0.2,0,0.2,0.1c0,0,0,0,0,0.1c0,0.1,0,0.2-0.1,0.2
				C234.7,154.1,234.6,154.1,234.5,153.9C234.5,153.9,234.5,153.9,234.5,153.9z"/>
		</g>
		<g>
			<path class="st13" d="M235.7,154.5c0-0.2,0-0.3,0.2-0.4c0.2,0,0.3,0,0.4,0.2c0,0,0,0,0,0c0,0.2,0,0.3-0.2,0.4c0,0,0,0,0,0
				C235.9,154.7,235.7,154.6,235.7,154.5C235.7,154.5,235.7,154.5,235.7,154.5z"/>
		</g>
		<g>
			<path class="st11" d="M235,133.3c0.2,0.2,0.1,0.5-0.1,0.7c-0.2,0.2-0.5,0.1-0.7-0.1c-0.2-0.2-0.1-0.5,0.1-0.7c0,0,0,0,0,0
				C234.5,133.1,234.8,133.1,235,133.3z"/>
		</g>
		<g>
			<path class="st12" d="M235,136.2c0.1,0.1,0.1,0.2,0,0.3c-0.1,0.1-0.2,0.1-0.3,0c-0.1-0.1-0.1-0.2,0-0.3
				C234.8,136.1,234.9,136.1,235,136.2z"/>
		</g>
		<g>
			<path class="st13" d="M235.3,135c0.1,0.1,0.1,0.3,0,0.4c-0.1,0.1-0.3,0.1-0.4,0c-0.1-0.1-0.1-0.3,0-0.4
				C235,134.9,235.2,134.9,235.3,135C235.3,135,235.3,135,235.3,135z"/>
		</g>
		<g>
			<path class="st11" d="M233.3,137.5c-0.3,0-0.5-0.2-0.5-0.5c0,0,0,0,0,0c0-0.3,0.1-0.5,0.4-0.5c0.3,0,0.5,0.1,0.5,0.4
				c0,0,0,0.1,0,0.1C233.7,137.3,233.5,137.5,233.3,137.5L233.3,137.5z"/>
		</g>
		<g>
			<path class="st12" d="M233.5,133.7c-0.1,0-0.2-0.1-0.2-0.2c0-0.1,0.1-0.2,0.2-0.2c0.1,0,0.2,0.1,0.2,0.2c0,0,0,0,0,0
				C233.8,133.6,233.7,133.7,233.5,133.7z"/>
		</g>
		<g>
			<path class="st12" d="M233.9,135.2c-0.1,0-0.2-0.1-0.2-0.2c0-0.1,0.1-0.2,0.1-0.2c0,0,0,0,0,0c0.1,0,0.2,0.1,0.2,0.2c0,0,0,0,0,0
				C234.1,135.1,234,135.2,233.9,135.2z"/>
		</g>
		<g>
			<path class="st12" d="M232.1,136.2c-0.1,0-0.2-0.1-0.2-0.1c0,0,0,0,0,0c0-0.1,0.1-0.2,0.2-0.2c0.1,0,0.2,0.1,0.2,0.2
				C232.2,136.1,232.1,136.2,232.1,136.2z"/>
		</g>
		<g>
			<path class="st13" d="M232.9,135.2c-0.2,0-0.3-0.1-0.3-0.3s0.1-0.3,0.3-0.3c0.2,0,0.3,0.1,0.3,0.3l0,0
				C233.2,135.1,233.1,135.2,232.9,135.2L232.9,135.2z"/>
		</g>
		<g>
			<path class="st11" d="M239.9,132.9c-0.1,0.2-0.4,0.3-0.7,0.1c-0.2-0.1-0.3-0.4-0.1-0.7c0.1-0.2,0.4-0.3,0.6-0.1
				C240,132.3,240,132.6,239.9,132.9C239.9,132.8,239.9,132.8,239.9,132.9z"/>
		</g>
		<g>
			<path class="st12" d="M237.1,133.5c-0.1,0.1-0.2,0.1-0.3,0.1c0,0,0,0,0,0c-0.1-0.1-0.1-0.2-0.1-0.3c0.1-0.1,0.2-0.1,0.3-0.1
				C237.1,133.3,237.1,133.4,237.1,133.5C237.1,133.5,237.1,133.5,237.1,133.5z"/>
		</g>
		<g>
			<circle class="st13" cx="238.1" cy="133.4" r="0.3"/>
		</g>
		<g>
			<path class="st11" d="M235.4,132.2c-0.1-0.3,0.1-0.5,0.3-0.6c0,0,0,0,0,0c0.3,0,0.5,0.1,0.5,0.4c0,0.2-0.1,0.4-0.3,0.5
				C235.7,132.6,235.4,132.5,235.4,132.2z"/>
		</g>
		<g>
			<path class="st12" d="M239.1,131.5c0-0.1,0-0.2,0.2-0.3c0,0,0,0,0,0c0.1,0,0.3,0,0.3,0.2c0,0.1,0,0.3-0.2,0.3
				C239.3,131.7,239.2,131.6,239.1,131.5z"/>
		</g>
		<g>
			<path class="st12" d="M237.8,132.2c0-0.1,0-0.2,0.1-0.2c0,0,0,0,0,0c0.1,0,0.2,0,0.2,0.1c0,0,0,0,0,0c0,0.1,0,0.2-0.1,0.2
				C237.9,132.4,237.8,132.3,237.8,132.2C237.8,132.2,237.8,132.2,237.8,132.2z"/>
		</g>
		<g>
			<path class="st12" d="M236.3,130.7c0-0.1,0-0.2,0.1-0.2c0.1,0,0.2,0,0.2,0.1c0,0,0,0,0,0c0,0.1,0,0.2-0.1,0.2c0,0,0,0,0,0
				C236.4,130.9,236.3,130.8,236.3,130.7C236.3,130.7,236.3,130.7,236.3,130.7z"/>
		</g>
		<g>
			<circle class="st13" cx="237.7" cy="131.2" r="0.3"/>
		</g>
		<g>
			<path class="st11" d="M225.6,117.2c0.2,0.2,0.1,0.5-0.1,0.7c0,0,0,0,0,0c-0.2,0.2-0.5,0.1-0.7-0.1c-0.2-0.2-0.1-0.5,0.1-0.7
				C225.2,117,225.5,117,225.6,117.2C225.6,117.2,225.6,117.2,225.6,117.2z"/>
		</g>
		<g>
			<path class="st12" d="M217.4,122.2c0.1,0.1,0.1,0.2,0,0.3c-0.1,0.1-0.2,0.1-0.3,0c-0.1-0.1-0.1-0.2,0-0.3
				C217.1,122.1,217.3,122.1,217.4,122.2C217.4,122.2,217.4,122.2,217.4,122.2z"/>
		</g>
		<g>
			<path class="st13" d="M217.7,121c0.1,0.1,0.1,0.3,0,0.4c-0.1,0.1-0.3,0.1-0.4,0c-0.1-0.1-0.1-0.3,0-0.4
				C217.5,120.9,217.7,120.9,217.7,121L217.7,121z"/>
		</g>
		<g>
			<path class="st11" d="M215.7,123.5c-0.3,0-0.5-0.2-0.5-0.5c0-0.3,0.2-0.5,0.5-0.5l0,0c0.3,0,0.5,0.1,0.5,0.4
				c0,0.3-0.1,0.5-0.4,0.5C215.8,123.5,215.7,123.5,215.7,123.5z"/>
		</g>
		<g>
			<path class="st12" d="M216.3,121.2c-0.1,0-0.2-0.1-0.2-0.2c0-0.1,0.1-0.2,0.2-0.2c0.1,0,0.2,0.1,0.2,0.2
				C216.5,121.1,216.4,121.2,216.3,121.2C216.4,121.2,216.3,121.2,216.3,121.2z"/>
		</g>
		<g>
			<path class="st12" d="M214.4,123.7c-0.1,0-0.2-0.1-0.2-0.2c0-0.1,0.1-0.2,0.1-0.2c0,0,0,0,0,0c0.1,0,0.2,0.1,0.2,0.2
				C214.5,123.6,214.5,123.7,214.4,123.7z"/>
		</g>
		<g>
			<path class="st13" d="M214.6,125.5c-0.2,0-0.3-0.1-0.3-0.3s0.1-0.3,0.3-0.3c0.2,0,0.3,0.1,0.3,0.3
				C214.9,125.4,214.8,125.5,214.6,125.5C214.6,125.5,214.6,125.5,214.6,125.5z"/>
		</g>
		<g>
			<path class="st11" d="M222.7,119.3c-0.1,0.2-0.4,0.3-0.7,0.1c-0.2-0.1-0.3-0.4-0.1-0.7c0.1-0.2,0.4-0.3,0.6-0.1
				C222.8,118.8,222.9,119.1,222.7,119.3C222.7,119.3,222.7,119.3,222.7,119.3z"/>
		</g>
		<g>
			<path class="st12" d="M218.7,120.8c-0.1,0.1-0.2,0.2-0.3,0.1s-0.2-0.2-0.1-0.3c0,0,0,0,0-0.1c0.1-0.1,0.2-0.1,0.3-0.1
				C218.8,120.6,218.8,120.7,218.7,120.8z"/>
		</g>
		<g>
			<path class="st13" d="M220.8,119.6c-0.1,0.1-0.3,0.2-0.4,0.1c-0.1-0.1-0.2-0.3-0.1-0.4s0.3-0.2,0.4-0.1
				C220.8,119.2,220.9,119.4,220.8,119.6L220.8,119.6z"/>
		</g>
		<g>
			<path class="st12" d="M219.6,120.8c0-0.1,0-0.2,0.2-0.3c0,0,0,0,0,0c0.1,0,0.3,0,0.3,0.2c0,0.1,0,0.3-0.2,0.3
				C219.8,121,219.7,120.9,219.6,120.8z"/>
		</g>
		<g>
			<path class="st8" d="M243.3,149.6L243.3,149.6C243.4,149.3,243.4,149.3,243.3,149.6z"/>
			<path class="st8" d="M235,159.9c-5.8,3.3-8.8,1-12.5-1.8c2.9,3.3,7.4,4.6,11.6,3.3c5.9-1.7,8.7-10.3,9.1-11.8l-0.8,0.1l0,0
				C243.1,150,240.9,156.6,235,159.9z"/>
		</g>
		<g>
			<path class="st8" d="M243.3,149.6C243.4,149.3,243.4,149.3,243.3,149.6z"/>
			<path class="st8" d="M242,149.7c0,0-2.1,7.6-6.5,11.2c5-2.5,7.4-9.9,7.9-11.3C242.9,149.7,242.5,149.7,242,149.7L242,149.7z"/>
		</g>
		<path class="st14" d="M168.1,134.3l14.4,5.9l0,0l-6.7,16.3c-1.4,3.4-5.2,5-8.5,3.6l-2.3-0.9c-3.4-1.4-5-5.2-3.6-8.5L168.1,134.3
			L168.1,134.3z"/>
		
			<rect x="165.5" y="141.4" transform="matrix(0.3772 -0.9261 0.9261 0.3772 -29.6799 251.7217)" class="st0" width="13.7" height="13"/>
		
			<rect x="178.4" y="120.2" transform="matrix(0.3772 -0.9261 0.9261 0.3772 -7.0434 245.5446)" class="st14" width="1.3" height="15.6"/>
		
			<rect x="178.9" y="119" transform="matrix(0.3772 -0.9261 0.9261 0.3772 -5.6051 245.2408)" class="st5" width="1.3" height="15.6"/>
		<polygon class="st14" points="182.5,140.2 168.1,134.3 167.8,130.9 185.1,138 		"/>
		<g>
			<polygon class="st15" points="182.5,140.2 168.1,134.3 167.8,130.9 185.1,138 			"/>
		</g>
		<polygon class="st14" points="171.6,125.7 186,131.6 185.1,138 167.8,130.9 		"/>
		<g>
			<path class="st15" d="M186.5,130.3c-0.4,0.4-0.9,0.7-1.5,0.8c0,0-0.1,5.8-0.8,6.4s-2.9,2.1-2.9,2.1S166,159,159.9,157.1l12.6,5.1
				c0,0,1,0.2,1.3-0.4l8.8-21.6l2.6-2.2l0.9-6.4L186.5,130.3z"/>
		</g>
		<g>
			<polygon class="st15" points="172.1,124.5 186,131.6 186.5,130.3 			"/>
		</g>
		<g>
			
				<rect x="175" y="131.1" transform="matrix(0.3772 -0.9261 0.9261 0.3772 -11.1959 246.4109)" class="st15" width="5.2" height="0.8"/>
		</g>
		<g>
			<polygon class="st15" points="174.9,133.2 174.2,132.9 176.4,128.2 177.1,128.5 			"/>
		</g>
		<g>
			<polygon class="st15" points="172.9,132.4 172.2,132.1 174.6,127.5 175.3,127.8 			"/>
		</g>
		<g>
			<polygon class="st15" points="171,131.6 170.3,131.3 173.1,126.9 173.8,127.2 			"/>
		</g>
		<g>
			<polygon class="st15" points="169.1,130.9 168.4,130.6 171.7,126.3 172.4,126.6 			"/>
		</g>
		<g>
			<polygon class="st15" points="178.1,134.5 178.8,134.8 180.5,129.9 179.8,129.6 			"/>
		</g>
		<g>
			<polygon class="st15" points="180.1,135.3 180.8,135.6 182.2,130.6 181.5,130.3 			"/>
		</g>
		<g>
			<polygon class="st15" points="182,136.1 182.7,136.4 183.7,131.2 183,130.9 			"/>
		</g>
		<g>
			<polygon class="st15" points="183.9,136.9 184.6,137.1 185.2,131.8 184.5,131.5 			"/>
		</g>
		
			<rect x="147.7" y="134.4" transform="matrix(0.937 -0.3492 0.3492 0.937 -39.9362 64.7134)" class="st16" width="23.5" height="17.5"/>
		
			<rect x="149.4" y="143.7" transform="matrix(0.937 -0.3492 0.3492 0.937 -41.4074 65.5813)" class="st17" width="23.5" height="7.9"/>
		<polygon class="st16" points="153.9,135.9 167.5,130.8 160.9,126.1 147.3,131.1 		"/>
		
			<rect x="146.4" y="126.1" transform="matrix(0.937 -0.3492 0.3492 0.937 -34.8137 61.6736)" class="st16" width="14.5" height="2.5"/>
		
			<ellipse transform="matrix(0.9562 -0.2927 0.2927 0.9562 -31.2783 52.1269)" class="st18" cx="158.5" cy="130.6" rx="2.8" ry="1.9"/>
		<polygon class="st18" points="161,128.5 161.2,129.8 155.9,131.4 155.6,130.1 		"/>
		
			<ellipse transform="matrix(0.9562 -0.2927 0.2927 0.9562 -30.9101 52.0008)" class="st17" cx="158.3" cy="129.3" rx="2.8" ry="1.9"/>
		<path class="st18" d="M160.6,129.4c0.1-0.3,0.2-0.6,0.1-0.8c-0.3-0.8-1.6-1.2-2.9-0.8c-0.8,0.2-1.5,0.7-1.9,1.4
			c-0.1,0.3-0.2,0.6-0.1,0.8c0.3,0.8,1.6,1.2,2.9,0.8C159.6,130.6,160.2,130.1,160.6,129.4z"/>
		<polygon class="st16" points="153.9,135.9 147.3,131.1 149.6,137.4 		"/>
		<polygon class="st16" points="145.4,139 147.3,131.1 149.6,137.4 		"/>
		<polygon class="st17" points="152.9,135.8 147.6,131.9 149.5,137.1 		"/>
		<polygon class="st17" points="146.1,138.3 147.6,131.9 149.5,137.1 		"/>
		
			<rect x="147.1" y="140.4" transform="matrix(0.937 -0.3492 0.3492 0.937 -39.6377 61.547)" class="st17" width="7.5" height="0.5"/>
		
			<rect x="147.7" y="142" transform="matrix(0.937 -0.3492 0.3492 0.937 -40.1379 61.8433)" class="st17" width="7.5" height="0.5"/>
		
			<rect x="148.3" y="143.5" transform="matrix(0.937 -0.3492 0.3492 0.937 -40.6346 62.1389)" class="st17" width="7.5" height="0.5"/>
		
			<rect x="150.7" y="149.9" transform="matrix(0.937 -0.3492 0.3492 0.937 -42.7191 63.3736)" class="st0" width="7.5" height="0.5"/>
		
			<rect x="151.2" y="151.4" transform="matrix(0.937 -0.3492 0.3492 0.937 -43.2193 63.6699)" class="st0" width="7.5" height="0.5"/>
		
			<rect x="148.8" y="145" transform="matrix(0.937 -0.3492 0.3492 0.937 -41.1318 62.4334)" class="st17" width="7.5" height="0.5"/>
		<g>
			
				<rect x="148.2" y="136.9" transform="matrix(0.937 -0.3492 0.3492 0.937 -41.2445 62.5027)" class="st19" width="9.1" height="17.5"/>
		</g>
		<path class="st20" d="M160.9,126.1c-4.6,1.4-9.2,3-13.6,5C153.1,129.3,160.9,126.1,160.9,126.1z"/>
		<path class="st20" d="M167.3,130.9c-4.5,1.3-8.9,3-13.1,4.9C159.8,134,167.3,130.9,167.3,130.9z"/>
		<path class="st17" d="M161.6,141.2l-1-2.1l-0.2,2.5l-0.2,0.1l-1.8-1.8l0.6,2.3l-0.3,0.1l-0.7-3l0.5-0.2l1.7,1.7l0.2-2.4l0.5-0.2
			l1.3,2.8L161.6,141.2z"/>
		<path class="st17" d="M163.2,140.6l-0.6,0.2l-1-2.9l0.6-0.2L163.2,140.6z"/>
		<path class="st17" d="M163.9,140.4l-1-2.9l0.6-0.2l0.9,2.6l1-0.4l0.1,0.3L163.9,140.4z"/>
		<path class="st17" d="M167.2,136.3c-0.1,0-0.1,0-0.1,0.1c0,0-0.1,0.1-0.1,0.1c0,0.1-0.1,0.1-0.1,0.2c0,0.1-0.1,0.2-0.1,0.2
			l-0.1,0.3l-0.1,0.4l0.6,0.5c0.2,0.2,0.3,0.3,0.5,0.4c0.1,0.1,0.3,0.2,0.4,0.2c0.1,0,0.2,0,0.4,0l0,0l0.1,0.2
			c-0.1,0-0.1,0.1-0.2,0.1l-0.2,0.1c-0.1,0-0.3,0.1-0.4,0.1c-0.1,0-0.3-0.1-0.4-0.1c-0.2-0.1-0.3-0.2-0.4-0.3
			c-0.2-0.1-0.4-0.3-0.6-0.6c0,0,0,0.1,0,0.1v0.1c0,0,0,0.1,0,0.1c0,0,0,0,0,0.1l0.4,1.1l-0.6,0.2l-1-2.9l0.6-0.2l0.5,1.4l0.1-0.3
			c0-0.1,0.1-0.3,0.1-0.4l0.1-0.4l0.1-0.3c0-0.1,0.1-0.2,0.1-0.2c0-0.1,0.1-0.1,0.1-0.1c0,0,0.1-0.1,0.1-0.1l0.2-0.1h0.1
			c0,0,0.1,0,0.1,0l0.1,0.2L167.2,136.3z"/>
		<path class="st0" d="M161,129.8c0,0.1,0,0.2,0,0.3s0,0.2,0.1,0.3c0-0.1,0-0.2,0-0.3C161.1,130,161,129.9,161,129.8z"/>
		<path class="st0" d="M159.6,131.1c0,0.1,0,0.2,0,0.3c0,0.1,0,0.2,0.1,0.3c0-0.1,0-0.2,0-0.3C159.6,131.3,159.6,131.2,159.6,131.1z
			"/>
		<path class="st0" d="M160.4,130.6c0,0.1,0,0.2,0.1,0.3c0,0.1,0,0.2,0.1,0.3c0-0.1,0-0.2,0-0.3
			C160.5,130.7,160.5,130.6,160.4,130.6z"/>
		<path class="st0" d="M158.6,131.4c0,0.1,0,0.2,0.1,0.3c0,0.1,0,0.2,0.1,0.3c0-0.1,0-0.2,0-0.3
			C158.7,131.6,158.7,131.5,158.6,131.4z"/>
		<path class="st0" d="M157.7,131.5c0,0.1,0,0.2,0,0.3c0,0.1,0,0.2,0.1,0.3c0-0.1,0-0.2,0-0.3C157.8,131.7,157.7,131.6,157.7,131.5z
			"/>
		<path class="st0" d="M156.8,131.4c0,0.1,0,0.2,0,0.3c0,0.1,0,0.2,0.1,0.3c0-0.1,0-0.2-0.1-0.3
			C156.8,131.6,156.8,131.5,156.8,131.4z"/>
		<path class="st0" d="M156,131c0,0.1,0,0.2,0,0.3s0,0.2,0.1,0.3c0-0.1,0-0.2,0-0.3C156.1,131.2,156,131.1,156,131z"/>
		<path class="st21" d="M241.2,126.6c0,0,1.4-4.4,5.4-3.7c0.6,0.9,0,1.4,0,1.4S242.8,123.2,241.2,126.6z"/>
		<path class="st22" d="M243.3,136.1c-0.4-0.8-0.4-1.7,0.1-2.4c0.1-0.1,0.1-0.2,0.2-0.3c1.6-3.2,0.8-6.9-1.8-8.1s-5.9,0.3-7.6,3.5
			c-0.1,0.1-0.1,0.2-0.2,0.3c-0.6,1-1.6,1.6-2.7,1.9c-3.4,0.6-6.2,3.4-7.7,6.9c-2.2,5,0.4,9.8,5.2,12.5c5.1,2.8,11.6,0.9,14.4-4.2
			C244.9,143,244.9,139.3,243.3,136.1L243.3,136.1z"/>
		<g>
			<path class="st15" d="M244,127.8c0.1,0.3,0.2,0.7,0.3,1C244.2,128.4,244.1,128.1,244,127.8z"/>
			<path class="st15" d="M243.4,145.8c1.5-3,1.5-6.6-0.1-9.6c-0.4-0.8-0.4-1.7,0.1-2.4c0.1-0.1,0.1-0.2,0.2-0.3
				c0.4-0.8,0.6-1.6,0.8-2.5c-0.7,2.4-4.2,1.5-3.4,4.3c1.1,3.6,1.4,18.6-12.1,15.1c5.1,2.8,11.6,0.9,14.4-4.2
				C243.3,146,243.3,145.9,243.4,145.8z"/>
		</g>
		<g>
			<path class="st15" d="M243.3,136.1c-0.4-0.8-0.4-1.7,0.1-2.4c0.1-0.1,0.1-0.2,0.2-0.3c1.4-2.8,1-5.9-0.8-7.5l0,0
				c1.5,2.8-0.2,7.9-1.2,9c1.5,3.2,4.9,20-15.6,12.8c0,0.1,0,0.1-0.1,0.2c3.8,4.4,10.5,4.9,15,1.1
				C244.5,145.7,245.6,140.4,243.3,136.1L243.3,136.1z"/>
		</g>
		<g>
			<path class="st13" d="M237.9,143.9c-0.1,0.2-0.4,0.3-0.6,0.2c-0.2-0.1-0.3-0.4-0.2-0.6c0.1-0.2,0.4-0.3,0.6-0.2
				C237.9,143.4,238,143.6,237.9,143.9C237.9,143.9,237.9,143.9,237.9,143.9z"/>
		</g>
		<g>
			<path class="st13" d="M243.6,142.9c-0.1,0.2-0.4,0.3-0.6,0.2c-0.2-0.1-0.3-0.4-0.2-0.6c0.1-0.2,0.4-0.3,0.6-0.2c0,0,0,0,0,0
				C243.6,142.4,243.7,142.7,243.6,142.9z"/>
		</g>
		<g>
			<path class="st13" d="M240.1,147c-0.1,0.2-0.4,0.3-0.6,0.2c-0.2-0.1-0.3-0.4-0.2-0.6c0.1-0.2,0.4-0.3,0.6-0.2
				C240.1,146.5,240.2,146.8,240.1,147z"/>
		</g>
		<g>
			<path class="st13" d="M237.5,145.4c-0.1,0.1-0.2,0.2-0.3,0.1c-0.1-0.1-0.2-0.2-0.1-0.3c0.1-0.1,0.2-0.2,0.3-0.1
				C237.5,145.2,237.6,145.3,237.5,145.4C237.5,145.4,237.5,145.4,237.5,145.4z"/>
		</g>
		<g>
			<path class="st13" d="M235.3,145.5c-0.1,0.1-0.2,0.2-0.3,0.1s-0.2-0.2-0.1-0.3c0.1-0.1,0.2-0.2,0.3-0.1c0,0,0,0,0,0
				C235.3,145.3,235.3,145.4,235.3,145.5z"/>
		</g>
		<g>
			<path class="st13" d="M235.6,147c-0.1,0.1-0.2,0.2-0.3,0.1s-0.2-0.2-0.1-0.3c0.1-0.1,0.2-0.2,0.3-0.1c0,0,0,0,0,0
				C235.6,146.7,235.6,146.9,235.6,147z"/>
		</g>
		<g>
			<path class="st13" d="M239.6,144.5c-0.1,0.1-0.2,0.2-0.3,0.1s-0.2-0.2-0.1-0.3c0.1-0.1,0.2-0.2,0.3-0.1c0,0,0,0,0,0
				C239.6,144.2,239.6,144.4,239.6,144.5z"/>
		</g>
		<g>
			<path class="st13" d="M236.1,144.3c-0.1,0.1-0.2,0.1-0.3,0.1c-0.1-0.1-0.1-0.2-0.1-0.3c0-0.1,0.2-0.1,0.3-0.1
				C236.2,144.1,236.2,144.2,236.1,144.3C236.2,144.3,236.2,144.3,236.1,144.3z"/>
		</g>
		<g>
			<path class="st13" d="M237.2,147.9c-0.1,0.1-0.2,0.1-0.3,0.1c-0.1-0.1-0.1-0.2-0.1-0.3c0-0.1,0.2-0.1,0.3-0.1
				C237.2,147.7,237.2,147.8,237.2,147.9C237.2,147.9,237.2,147.9,237.2,147.9z"/>
		</g>
		<g>
			<path class="st13" d="M232,147.7c-0.1,0.2-0.4,0.3-0.6,0.2c-0.2-0.1-0.3-0.4-0.2-0.6c0.1-0.2,0.4-0.3,0.6-0.2
				C232,147.3,232.1,147.5,232,147.7z"/>
		</g>
		<g>
			<path class="st13" d="M235.2,150.2c-0.1,0.2-0.4,0.3-0.6,0.1c-0.2-0.1-0.2-0.3-0.2-0.5c0.1-0.2,0.3-0.3,0.5-0.2
				C235.2,149.7,235.3,149.9,235.2,150.2C235.2,150.2,235.2,150.2,235.2,150.2z"/>
		</g>
		<g>
			<path class="st13" d="M234.4,148.7c-0.1,0.1-0.2,0.2-0.3,0.1c-0.1-0.1-0.2-0.2-0.1-0.3c0.1-0.1,0.2-0.2,0.3-0.1
				C234.4,148.4,234.5,148.6,234.4,148.7C234.4,148.7,234.4,148.7,234.4,148.7z"/>
		</g>
		<g>
			<path class="st13" d="M237.9,140.7c-0.1,0.2-0.4,0.3-0.6,0.2c-0.2-0.1-0.3-0.4-0.2-0.6c0.1-0.2,0.4-0.3,0.6-0.2
				C237.9,140.2,238,140.5,237.9,140.7C237.9,140.7,237.9,140.7,237.9,140.7z"/>
		</g>
		<g>
			<path class="st13" d="M239.3,141.7c-0.1,0.2-0.4,0.3-0.6,0.2c-0.2-0.1-0.3-0.4-0.2-0.6s0.4-0.3,0.6-0.2
				C239.3,141.3,239.4,141.5,239.3,141.7z"/>
		</g>
		<g>
			<path class="st13" d="M236.8,140.2c-0.1,0.1-0.2,0.2-0.3,0.1c-0.1-0.1-0.2-0.2-0.1-0.3c0.1-0.1,0.2-0.2,0.3-0.1c0,0,0,0,0,0
				C236.8,139.9,236.8,140.1,236.8,140.2z"/>
		</g>
		<g>
			<path class="st13" d="M234.5,140.3c-0.1,0.1-0.2,0.2-0.3,0.1s-0.2-0.2-0.1-0.3c0.1-0.1,0.2-0.2,0.3-0.1c0,0,0,0,0,0
				C234.5,140,234.6,140.2,234.5,140.3z"/>
		</g>
		<g>
			<circle class="st13" cx="236.4" cy="142.8" r="0.2"/>
		</g>
		<g>
			<path class="st13" d="M238.8,139.2c-0.1,0.1-0.2,0.2-0.3,0.1s-0.2-0.2-0.1-0.3c0.1-0.1,0.2-0.2,0.3-0.1c0,0,0,0,0,0
				C238.8,139,238.9,139.1,238.8,139.2z"/>
		</g>
		<g>
			<path class="st13" d="M236.5,136.8c-0.1,0.1-0.2,0.1-0.3,0.1c-0.1-0.1-0.1-0.2-0.1-0.3c0-0.1,0.2-0.1,0.3-0.1
				C236.5,136.5,236.6,136.7,236.5,136.8C236.5,136.8,236.5,136.8,236.5,136.8z"/>
		</g>
		<g>
			<path class="st13" d="M242.4,137.4c-0.1,0.1-0.2,0.1-0.3,0.1c-0.1-0.1-0.1-0.2-0.1-0.3c0-0.1,0.2-0.1,0.3-0.1
				C242.4,137.2,242.5,137.3,242.4,137.4C242.4,137.4,242.4,137.4,242.4,137.4z"/>
		</g>
		<g>
			<path class="st13" d="M231.2,142.5c-0.1,0.2-0.3,0.3-0.5,0.2c0,0,0,0,0,0c-0.2-0.1-0.3-0.4-0.2-0.6c0.1-0.2,0.3-0.3,0.5-0.2
				C231.2,142,231.3,142.2,231.2,142.5C231.2,142.4,231.2,142.5,231.2,142.5z"/>
		</g>
		<g>
			<path class="st13" d="M233.7,143.4c-0.1,0.1-0.2,0.2-0.3,0.1c-0.1-0.1-0.2-0.2-0.1-0.3c0.1-0.1,0.2-0.2,0.3-0.1
				C233.7,143.2,233.7,143.3,233.7,143.4z"/>
		</g>
		<g>
			<path class="st13" d="M235.7,135.8c-0.2,0-0.4-0.3-0.3-0.5c0-0.2,0.2-0.4,0.5-0.4c0,0,0,0,0,0c0.2,0,0.4,0.3,0.4,0.5c0,0,0,0,0,0
				C236.1,135.6,235.9,135.8,235.7,135.8z"/>
		</g>
		<g>
			<path class="st13" d="M231.3,141.2c-0.2,0-0.4-0.3-0.3-0.5s0.3-0.4,0.5-0.3c0.2,0,0.4,0.2,0.3,0.5c0,0,0,0,0,0
				C231.8,141,231.6,141.2,231.3,141.2C231.3,141.2,231.3,141.2,231.3,141.2z"/>
		</g>
		<g>
			<path class="st13" d="M232,138.3c-0.1,0-0.2-0.1-0.2-0.3c0-0.1,0.1-0.2,0.3-0.2l0,0c0.1,0,0.2,0.1,0.2,0.3c0,0,0,0,0,0
				C232.3,138.2,232.1,138.3,232,138.3z"/>
		</g>
		<g>
			<path class="st13" d="M231.3,136.2c-0.1,0-0.2-0.1-0.2-0.3c0,0,0,0,0,0c0-0.1,0.1-0.2,0.3-0.2c0,0,0,0,0,0c0.1,0,0.2,0.2,0.2,0.3
				C231.5,136.1,231.4,136.2,231.3,136.2z"/>
		</g>
		<g>
			<path class="st13" d="M230,136.9c-0.1,0-0.2-0.1-0.2-0.3s0.1-0.2,0.3-0.2l0,0c0.1,0,0.2,0.1,0.2,0.3c0,0,0,0,0,0
				C230.3,136.8,230.1,136.9,230,136.9C230,136.9,230,136.9,230,136.9z"/>
		</g>
		<g>
			<path class="st13" d="M233.5,140c-0.1,0-0.2-0.2-0.2-0.3c0-0.1,0.1-0.2,0.3-0.2c0.1,0,0.2,0.1,0.2,0.3
				C233.8,139.9,233.7,140,233.5,140C233.6,140,233.5,140,233.5,140z"/>
		</g>
		<g>
			<path class="st13" d="M232.7,136.6c-0.1,0-0.2-0.1-0.2-0.2s0.1-0.2,0.2-0.2c0.1,0,0.2,0.1,0.2,0.2
				C232.9,136.6,232.8,136.7,232.7,136.6z"/>
		</g>
		<g>
			<path class="st13" d="M229.6,138.7c-0.1,0-0.2-0.1-0.2-0.2c0,0,0,0,0,0c0-0.1,0.1-0.2,0.2-0.2c0.1,0,0.2,0.1,0.2,0.2
				C229.8,138.6,229.7,138.7,229.6,138.7C229.6,138.7,229.6,138.7,229.6,138.7z"/>
		</g>
		<g>
			<path class="st13" d="M228.2,133.7c-0.2,0-0.4-0.3-0.4-0.5c0-0.2,0.3-0.4,0.5-0.4c0.2,0,0.4,0.3,0.3,0.5
				C228.6,133.6,228.4,133.7,228.2,133.7C228.2,133.7,228.2,133.7,228.2,133.7z"/>
		</g>
		<g>
			<path class="st13" d="M228,136.3c-0.1,0-0.2-0.1-0.2-0.3c0-0.1,0.1-0.2,0.3-0.2c0,0,0,0,0,0c0.1,0,0.2,0.2,0.2,0.3
				C228.2,136.3,228.1,136.3,228,136.3z"/>
		</g>
		<g>
			<path class="st13" d="M229.8,144.8c-0.2,0-0.4-0.3-0.3-0.5s0.3-0.4,0.5-0.3l0,0c0.2,0,0.4,0.3,0.4,0.5c0,0,0,0,0,0
				C230.2,144.7,230,144.9,229.8,144.8z"/>
		</g>
		<g>
			<path class="st13" d="M227.5,147.8c-0.2,0-0.4-0.3-0.4-0.5c0,0,0,0,0,0c0-0.2,0.3-0.4,0.5-0.3s0.4,0.3,0.3,0.5
				C227.9,147.7,227.7,147.8,227.5,147.8C227.5,147.8,227.5,147.8,227.5,147.8z"/>
		</g>
		<g>
			<path class="st13" d="M228.1,144.9c-0.1,0-0.2-0.1-0.2-0.3c0-0.1,0.1-0.2,0.3-0.2c0.1,0,0.2,0.1,0.2,0.3
				C228.4,144.8,228.3,144.9,228.1,144.9C228.2,144.9,228.2,144.9,228.1,144.9z"/>
		</g>
		<g>
			<path class="st13" d="M227.4,142.8c-0.1,0-0.2-0.1-0.2-0.3c0,0,0,0,0,0c0-0.1,0.1-0.2,0.3-0.2c0.1,0,0.2,0.1,0.2,0.3
				C227.7,142.7,227.6,142.8,227.4,142.8L227.4,142.8L227.4,142.8z"/>
		</g>
		<g>
			<path class="st13" d="M226.1,143.5c-0.1,0-0.2-0.2-0.2-0.3c0-0.1,0.1-0.2,0.3-0.2c0.1,0,0.2,0.1,0.2,0.3
				C226.4,143.4,226.3,143.5,226.1,143.5C226.1,143.5,226.1,143.5,226.1,143.5z"/>
		</g>
		<g>
			<path class="st13" d="M229.7,146.6c-0.1,0-0.2-0.1-0.2-0.3s0.1-0.2,0.3-0.2s0.2,0.1,0.2,0.3S229.8,146.6,229.7,146.6L229.7,146.6
				z"/>
		</g>
		<g>
			<circle class="st13" cx="228.8" cy="143.1" r="0.2"/>
		</g>
		<g>
			<path class="st13" d="M225.7,145.3c-0.1,0-0.2-0.1-0.2-0.2s0.1-0.2,0.2-0.2c0.1,0,0.2,0.1,0.2,0.2
				C225.9,145.3,225.8,145.3,225.7,145.3C225.7,145.3,225.7,145.3,225.7,145.3z"/>
		</g>
		<g>
			<path class="st13" d="M224.3,140.3c-0.2,0-0.4-0.3-0.4-0.5c0-0.2,0.3-0.4,0.5-0.3c0.2,0,0.4,0.2,0.4,0.5c0,0,0,0,0,0
				C224.7,140.2,224.5,140.4,224.3,140.3z"/>
		</g>
		<g>
			<path class="st13" d="M224.1,143c-0.1,0-0.2-0.1-0.2-0.3c0,0,0,0,0,0c0-0.1,0.1-0.2,0.3-0.2c0,0,0,0,0,0c0.1,0,0.2,0.1,0.2,0.3
				S224.3,143,224.1,143L224.1,143z"/>
		</g>
		<g>
			<path class="st13" d="M230.6,149.6c-0.1,0.1-0.2,0.2-0.3,0.1s-0.2-0.2-0.1-0.3c0.1-0.1,0.2-0.2,0.3-0.1c0,0,0,0,0,0
				C230.6,149.3,230.7,149.4,230.6,149.6z"/>
		</g>
		<g>
			<path class="st13" d="M231.6,150.8c-0.1,0.1-0.2,0.2-0.3,0.1s-0.2-0.2-0.1-0.3c0.1-0.1,0.2-0.2,0.3-0.1c0,0,0,0,0,0
				C231.6,150.6,231.6,150.7,231.6,150.8z"/>
		</g>
		<g>
			<path class="st13" d="M237.8,149.3c-0.1,0.1-0.2,0.2-0.3,0.1c-0.1-0.1-0.2-0.2-0.1-0.3c0,0,0,0,0,0c0.1-0.1,0.2-0.2,0.3-0.1
				C237.8,149,237.8,149.2,237.8,149.3z"/>
		</g>
		<g>
			<path class="st13" d="M229.8,146.9c0,0.1-0.2,0.1-0.3,0.1c-0.1,0-0.1-0.2-0.1-0.3l0,0c0.1-0.1,0.2-0.1,0.3-0.1
				C229.8,146.7,229.9,146.8,229.8,146.9C229.8,146.9,229.8,146.9,229.8,146.9z"/>
		</g>
		<g>
			<circle class="st13" cx="233" cy="150.5" r="0.2"/>
		</g>
		<g>
			<path class="st23" d="M225.1,137.4c1.1-2.2,3.7-4.7,4.9-4.4s3.4-1.3,3.2,2.2s1.3,6,0.5,7.9s-3.9,3-6.8,2.5
				S223.3,140.9,225.1,137.4z"/>
		</g>
		<g>
			<path class="st23" d="M225.2,137.6c1.2-0.9,1.5-4.8,3.7-2.7c1.7,1.7,3,3.6,4,5.8c0.9,1.7,2.8,2.1-1.1,3.9s-4.6,2.1-5.9,0.7
				S222,139.9,225.2,137.6z"/>
		</g>
		<g>
			<path class="st23" d="M229.3,137.3c3-0.7,4.4-1.1,4,2.1s3.4,5.4-1.3,5.7s-6.5,0.1-6.4-1.6s0.4-4.3,0.9-4.7
				C227.3,138.2,228.3,137.7,229.3,137.3z"/>
		</g>
		<g>
			<path class="st23" d="M228.4,137.6c2.5-0.6,3.6-0.9,3.3,1.8s2.8,4.5-1.1,4.7s-5.4,0.1-5.4-1.3s0.3-3.6,0.8-3.9
				C226.7,138.3,227.5,137.8,228.4,137.6z"/>
		</g>
		<g>
			<path class="st24" d="M233.1,147c-2.3-0.4-2.4-0.9-2.3-1.3s-0.2,0.1,2,0.3S234.8,147.5,233.1,147L233.1,147z"/>
		</g>
		<g>
			<path class="st25" d="M233.4,131.6c0.5-0.4,1.1-0.8,1.7-1.1c0,0.1-0.3,1.3-1.2,1.4S232.9,132,233.4,131.6z"/>
		</g>
		<g>
			<path class="st25" d="M236,136.6c-0.4,0.4-0.8,0.8-1.2,1.1c0-0.1,0-1,0.7-1.3S236.4,136.2,236,136.6z"/>
		</g>
		<g>
			<path class="st25" d="M243.4,140.6c-0.4,0.4-0.8,0.8-1.2,1.1c0-0.1,0-1.1,0.7-1.3S243.8,140.2,243.4,140.6z"/>
		</g>
		<g>
			<path class="st26" d="M243.1,128.7c0.1-0.4,0.4-0.9,0.6-1.4c-0.4-0.9-1.1-1.6-2-2c-2.6-1.3-5.9,0.3-7.6,3.5
				c-0.1,0.1-0.1,0.2-0.2,0.3c-0.1,0.2-0.2,0.4-0.4,0.5c0.3,0,0.7,0,1,0c3.4-0.1,3.7-3.4,4.1-1.1
				C239.3,130.7,242.6,130.2,243.1,128.7z"/>
		</g>
		<g>
			<path class="st15" d="M234.6,128.7c2.3-1.3,4.9-5,5.5-2.2s3.1,4,0.1,4.4S231.4,130.6,234.6,128.7z"/>
		</g>
		<polygon class="st19" points="198.9,128.3 203.9,121.9 213.6,120.7 213.5,122.5 204.8,123.3 200,130.5 		"/>
		<path class="st27" d="M201.1,127.7c-3.8-2.1-8.6-0.7-10.7,3.1c0,0,0,0,0,0l13.9,7.6C206.3,134.7,204.9,129.9,201.1,127.7
			C201.1,127.7,201.1,127.7,201.1,127.7z"/>
		<g>
			<path class="st15" d="M201.1,127.7c-0.3-0.2-0.7-0.3-1-0.5c3.2,2.4,4.1,6.7,2.2,10.2l1.9,1C206.3,134.6,204.9,129.8,201.1,127.7z
				"/>
		</g>
		<polygon class="st28" points="192.3,155.6 182.8,150.6 190.4,130.6 204.5,138 		"/>
		<g>
			<path class="st15" d="M182.8,150.6l9.5,5l12.2-17.6l-11.9-6.3l-2.6,0.1l0,0c0,0,11.1,6.8,10.3,8.8S194.3,154.4,182.8,150.6z"/>
		</g>
		<path class="st28" d="M204.1,139.2l-14.5-7.6c-0.4-0.2-0.5-0.7-0.3-1.1c0,0,0,0,0,0l0,0c0.2-0.4,0.7-0.5,1.1-0.3c0,0,0,0,0,0
			l14.5,7.6c0.4,0.2,0.5,0.7,0.3,1.1c0,0,0,0,0,0l0,0C205,139.3,204.5,139.4,204.1,139.2z"/>
		<path class="st0" d="M200.2,128c0,0-5.1-2-8.2,2l2.8,1.5C194.8,131.5,195.7,128.2,200.2,128z"/>
		<path class="st29" d="M236.1,99l2.3,1.2c0,0-2.6,2.8-1.3,5.8c-1.1,0.7-1.5,2.1-0.9,3.2c0.2,0.4,0.6,0.7,1,0.9
			c-1.5,2.1-2.2,5.7,1.4,7.7c0.1,1,3.9,4.9,7.7,3.3c0.3,2.2,2.6,2.9,3.6,2c-0.1,2.3,7.7,6.5,10.6,0.4c2.2,3.2,3.8,0.2,3.1-1
			c3.4,5.5,7.7,1,5.8-2.2c5.3,4.9,6.7-0.9,6.7-0.9l1.6,0.8l-2.4,3.8l-6.9,6l-11.5,2.5l-10.4-2.6l-5.8-3.4l-4-5.7l-1.7-3.8l-1.8-6.1
			l0.3-7.1c0.4-1.1,0.7-2.3,0.9-3.4C234.3,100.1,236.1,99,236.1,99z"/>
		<path class="st30" d="M277.8,120.3c-6.7,10.3-19.9,14.2-30.8,8.6s-15.4-18.5-11.1-30l-1.8-0.9c-5.1,12.6-0.1,27,11.8,33.1
			s26.5,1.6,33.7-9.9L277.8,120.3z"/>
		<path class="st31" d="M278.8,120.8c-7,10.8-20.9,14.9-32.3,9.1s-16.2-19.5-11.6-31.5l-0.8-0.4c-5.1,12.6-0.1,27,11.8,33.1
			s26.5,1.6,33.7-9.9L278.8,120.8z"/>
		<path class="st32" d="M277.7,120.3c-6.7,10.2-19.8,14.1-30.6,8.6s-15.4-18.4-11-29.8l-0.8-0.4c-4.5,11.8,0.2,25.2,11.4,30.9
			s24.8,1.7,31.7-8.9L277.7,120.3z"/>
		<path class="st33" d="M248.8,123.9c2.9,4.3,10.2,5.3,11.7-0.3c-2.9,6.1-10.7,1.9-10.6-0.4c-0.9,0.9-3.3,0.3-3.6-2
			C246.4,121.3,245.8,123.8,248.8,123.9z"/>
		<path class="st33" d="M268.4,125.3c3.4-0.9,1.7-3.9,1.7-3.9s2.4,2.2,4.3,0.5l0,0c-1,0.7-2.7,0.7-5.1-1.5c2,3.3-2.4,7.7-5.8,2.2
			c0,0.1,0.1,0.1,0.1,0.2C264.1,123.6,265.5,126.1,268.4,125.3z"/>
		<path class="st34" d="M262.4,127.5c-0.3,0.1-0.6,2.2,0.4,2S262.7,127.4,262.4,127.5z"/>
		<path class="st35" d="M262.5,127.4c-0.3,0.1-0.6,2.2,0.4,2S262.7,127.3,262.5,127.4z"/>
		<path class="st34" d="M257,127.3c-0.3,0-1.1,2-0.1,2S257.2,127.3,257,127.3z"/>
		<path class="st35" d="M257,127.2c-0.3,0-1.1,2-0.1,2C257.8,129.2,257.3,127.2,257,127.2z"/>
		<path class="st34" d="M244.7,123.3c-0.2-0.2-2.2,0.6-1.5,1.3S244.9,123.5,244.7,123.3z"/>
		<path class="st35" d="M244.6,123.2c-0.2-0.2-2.2,0.6-1.5,1.3S244.8,123.4,244.6,123.2z"/>
		<path class="st34" d="M236.4,105.4c0-0.2-1.5-0.4-1.4,0.2S236.4,105.6,236.4,105.4z"/>
		<path class="st35" d="M236.4,105.3c0-0.2-1.5-0.4-1.4,0.2S236.4,105.5,236.4,105.3z"/>
		<path class="st34" d="M271.2,122.7c0.2-0.1,1.2,0.9,0.6,1.2S271.1,122.7,271.2,122.7z"/>
		<path class="st35" d="M271.3,122.6c0.2-0.1,1.2,0.9,0.6,1.2S271.1,122.7,271.3,122.6z"/>
		<path class="st36" d="M257.9,115.4c-2.3,0.6-4.7,0.1-6.7-1.3c-0.9,1.3-4.2,2.8-6.8-0.7c-1.7,1.6-5.1,0.2-5-1.6
			c-1.5-0.3-1.7-1.3-2.5-0.9c0.4,2.7,0.6,3.7,4.1,5c2.8,1,5.7,1.8,8.7,2.4c0,0,4.7,0.9,5.4,0.3s-0.2,0.2,1.3-1
			C257.2,117.2,257.8,116.4,257.9,115.4z"/>
		<path class="st3" d="M225.1,121.7c-0.6,0.7-10.2,2.7-11,2.7c1-1.4-2.4-4.2-4.2-2.1s1.2,4.6,1.2,4.6s-1.8,2.8,0,4.4
			s4.7-1.2,3.7-3.2c1.7-0.7,10.4-2.3,10.4-2.3L225.1,121.7z"/>
		<path class="st37" d="M211.1,131.3c1.8,1.6,4.7-1.2,3.7-3.2c3.2-0.9,6.5-1.7,9.9-2.2c0.1-0.3,0.2-0.5,0.1-0.7
			c-0.5-0.4-1.1-0.7-1.6-0.9c-1,1-0.8,1.4-0.8,1.4l-7.8,2.3c0.2,1.4-0.6,2.7-1.8,3.3c-1.1,0.5-3.1-1.7-1.5-4.3
			C211.1,126.9,209.3,129.7,211.1,131.3z"/>
		<path class="st38" d="M221.8,123.3c0.6,0.3-0.6,0.9-0.4,2.5s0.5-0.2,4.1,2c26.3,11.8,35.9-3,32.3-12.4c0,0-4.1,2.6-6.7-1.3
			c-1.6,3.6-6.4,2.8-6.8-0.7c-2,2.7-5.8,0.3-4.8-2.2c-0.9,0.3-1.8,0.2-2.6-0.3c-5,2.6-9.5,6-13.4,10
			C223.5,121,221.1,123,221.8,123.3z"/>
		<g>
			<path class="st39" d="M258.5,118L258.5,118c-1.5,9.9-14.4,13.3-17,12.2s-9.4-3.2-10.3-3s-8.7-0.5-8.2-1.9s-0.6-2.2-0.9-2.1
				c-0.1,0.1-0.1,0.1-0.2,0.2c0.2,0.3-0.7,1-0.5,2.4c0.2,1.6,0.5-0.2,4.1,2C249.5,138.5,259.6,127.2,258.5,118z"/>
		</g>
		<g>
			<ellipse transform="matrix(0.958 -0.2867 0.2867 0.958 -25.3819 77.4228)" class="st39" cx="251.7" cy="125.4" rx="1" ry="0.8"/>
		</g>
		<g>
			<ellipse transform="matrix(0.958 -0.2867 0.2867 0.958 -27.0933 73.7472)" class="st39" cx="238.3" cy="129.4" rx="1" ry="0.8"/>
		</g>
		<g>
			<path class="st39" d="M244.9,130.9c-0.3,0.1-0.6,0-0.8-0.3c-0.1-0.3,0.1-0.6,0.5-0.7c0,0,0,0,0,0c0.3-0.1,0.6,0,0.8,0.3
				C245.4,130.5,245.2,130.8,244.9,130.9C244.9,130.9,244.9,130.9,244.9,130.9z"/>
		</g>
		<g>
			<path class="st39" d="M251.2,128.6c-0.4,0.1-0.8-0.2-0.9-0.6c-0.1-0.3,0.1-0.7,0.4-0.8c0.4-0.1,0.8,0.1,1,0.5
				C251.8,128,251.6,128.5,251.2,128.6z"/>
		</g>
		<g>
			
				<ellipse transform="matrix(0.958 -0.2867 0.2867 0.958 -25.8419 73.7892)" class="st39" cx="239.1" cy="125.1" rx="0.7" ry="0.8"/>
		</g>
		<g>
			<path class="st39" d="M245.6,128.8c-0.4,0.1-0.8-0.1-0.9-0.5c0,0,0,0,0,0c-0.1-0.4,0.1-0.8,0.5-0.9c0.4-0.1,0.8,0.1,0.9,0.5
				c0,0,0,0,0,0C246.2,128.2,246,128.7,245.6,128.8C245.6,128.8,245.6,128.8,245.6,128.8z"/>
		</g>
		<g>
			<path class="st39" d="M227.6,126.3c-0.4,0.1-0.9-0.1-1-0.5s0.1-0.9,0.5-1c0.4-0.1,0.9,0.1,1,0.5
				C228.2,125.7,228,126.1,227.6,126.3C227.6,126.3,227.6,126.3,227.6,126.3z"/>
		</g>
		<g>
			<path class="st39" d="M248.2,127.7c0.4-0.6,1.1-0.5,1,0.4s-1.1,1.8-1.4,1.2S248.2,127.7,248.2,127.7z"/>
		</g>
		<g>
			<path class="st39" d="M231.8,125.7c0.4-0.6,1.1-0.5,1,0.4s-1.1,1.8-1.4,1.2S231.8,125.7,231.8,125.7z"/>
		</g>
		<g>
			<path class="st40" d="M213.7,123.3c-0.3-1.6-3-1.6-3.3-0.8C211.5,122.7,212.6,122.9,213.7,123.3z"/>
		</g>
		<g>
			<path class="st41" d="M225.5,127.8c19.2,8.6,29.5,3,32.3-4.3l0,0c-4.1,5.5-18.9,8.6-24.5,5.2c-3.5-2-7.6-2.8-11.6-2.2
				C223.1,126.6,224.4,127,225.5,127.8z"/>
		</g>
		<g>
			<path class="st39" d="M253.2,122.8c-1.1-1.8-0.5-3.3-1.9-2.8s-2.3,0.8-3,0.2s-1.4,0.1-1.8,0.1s-1.6-1.3-3-1
				c1.2,0.2,2,2.7,2.8,2.1s1.4-1.3,1.7-0.8s0.6,1,2.1,0.3S252.6,122.7,253.2,122.8z"/>
		</g>
		<g>
			<path class="st39" d="M227.8,119.2c1.2-0.5,0.6-0.6,1.2-1.4s0.5,0.2,1.3,0s1-1.6,2-2.5c0.7-0.6,1.6-1,2.5-0.9
				c-0.5,0.2-2.4,0.8-2.7,2.3s-2.1,2.8-2.5,2S229.5,119.4,227.8,119.2z"/>
		</g>
		<path class="st5" d="M179.7,113.7c0,0.1,0.1,0.2,0.1,0.3l0.1,0.3c0.2,0.7,0.4,1.4,0.6,2s0.4,1.3,0.5,2l0.1,0.4
			c-1.1,0-2.1,0.1-3.1,0.2c-0.1-0.4-0.2-0.8-0.4-1.1c-0.3-0.8-0.7-1.6-1.1-2.3c-0.2-0.4-0.5-0.7-0.7-1c-0.1-0.1-0.1-0.2-0.2-0.3
			l-0.2-0.2c-0.1-0.2-0.3-0.3-0.4-0.5l-0.2-0.2l-0.2-0.2l-0.1-0.1l-0.1-0.1l-0.3-0.2c-0.3-0.3-0.7-0.5-1.1-0.7
			c0.1,0.4,0.3,0.8,0.4,1.2c0,0.1,0.1,0.2,0.1,0.3c0,0.1,0.1,0.2,0.1,0.3l0.1,0.3c0,0.1,0.1,0.2,0.1,0.3c0.3,0.7,0.5,1.5,0.7,2.2
			s0.4,1.4,0.6,2.1c0.1,0.2,0.1,0.4,0.1,0.6c-1.7,0.2-3.4,0.5-5,0.9c0.2-4.1,2.7-7.4-1-6.9c-6.4,0.8-12.6,8.5-12.5,11.4
			s12.6,6.2,15.6,4.9c2.6-1.1-0.5-2.8-1.7-6.2c1.6-0.4,3.3-0.7,5-0.9c0,0.1,0,0.3,0,0.4c0,0.7,0,1.4,0,2.2s-0.1,1.5-0.3,2.2
			c0,0.2-0.1,0.4-0.1,0.6s-0.1,0.4-0.1,0.6s0,0.2,0,0.3L175,129c0,0.2-0.1,0.4-0.1,0.6c1.4-1.1,2.4-2.5,2.9-4.1
			c0.3-0.8,0.5-1.7,0.6-2.6c0-0.3,0-0.6,0-0.8c1-0.1,2.1-0.2,3.2-0.3c0,0.2,0,0.3,0,0.5c0,0.7,0,1.3,0,2s-0.1,1.4-0.2,2.1
			c0,0.2-0.1,0.3-0.1,0.5s-0.1,0.4-0.1,0.6s0,0.2,0,0.3c0,0.1,0,0.2-0.1,0.3c0,0.2-0.1,0.4-0.1,0.6c1.3-1,2.3-2.3,2.8-3.8
			c0.3-0.8,0.5-1.6,0.6-2.4c0-0.3,0-0.6,0.1-0.8l3.5-0.3c0,0.1,0,0.2,0,0.2c0,0.6,0,1.1,0,1.7s-0.1,1.2-0.1,1.8s-0.2,1.3-0.2,2
			c0.1-0.1,0.3-0.2,0.4-0.3l0.2-0.2c0.1-0.1,0.1-0.1,0.2-0.2c0.1-0.1,0.1-0.1,0.2-0.2c0.1-0.1,0.1-0.1,0.2-0.2
			c0.1-0.1,0.2-0.3,0.3-0.4c0,0,0.1-0.1,0.1-0.1l0.1-0.1l0.1-0.2c0.1-0.1,0.2-0.3,0.3-0.5l0.3-0.5l0.2-0.5c0.3-0.8,0.5-1.7,0.6-2.6
			c1.4-0.1,2.9-0.1,4.3-0.2c0,0.1,0,0.3,0,0.4c0,0.5-0.1,1-0.1,1.6s-0.1,1.1-0.3,1.6s-0.2,1.2-0.3,1.8l0.4-0.2l0.2-0.1l0.2-0.1
			l0.2-0.1l0.2-0.2l0.4-0.3l0.1-0.1l0-0.1l0.2-0.2c0.1-0.1,0.2-0.3,0.3-0.4l0.3-0.4l0.3-0.4c0.4-0.8,0.7-1.8,0.8-2.7
			c1.2,0,2.4,0,3.5,0.1v0.5c0,0.4-0.1,0.8-0.1,1.2s-0.1,0.8-0.3,1.3s-0.2,0.9-0.3,1.4l0.4-0.2l0.2-0.1l0.2-0.1
			c0.1,0,0.1-0.1,0.2-0.1l0.2-0.1l0.3-0.3l0.1-0.1l0.1-0.1l0.1-0.1l0.3-0.3l0.2-0.3l0.2-0.3c0.4-0.7,0.7-1.5,0.8-2.2
			c0.8,0,1.5,0.1,2.2,0.2c0.4,3.1,1.9,6,4.2,8.2c0,0,1.3-6.6-0.7-9.2c1.6-3.2,0.6-10-0.3-9.2c-1.9,2.4-3.1,5.4-3.3,8.5l-2.1-0.2
			c0-0.2-0.1-0.4-0.1-0.6c-0.1-0.5-0.3-1-0.5-1.5c-0.1-0.2-0.2-0.4-0.4-0.7c0-0.1-0.1-0.1-0.1-0.2l-0.1-0.2
			c-0.1-0.1-0.2-0.2-0.2-0.3c-0.2-0.2-0.3-0.4-0.5-0.6c-0.2-0.2-0.4-0.3-0.6-0.5c0,0.3,0,0.5,0.1,0.8l0.1,0.7
			c0.1,0.5,0.1,0.9,0.1,1.3s0.1,0.8,0.1,1.3c0,0,0,0.1,0,0.1c-1.1-0.1-2.3-0.2-3.5-0.2c-0.1-0.4-0.1-0.8-0.2-1.2
			c-0.2-0.6-0.4-1.2-0.7-1.8c-0.2-0.3-0.3-0.6-0.5-0.8c0-0.1-0.1-0.1-0.1-0.2l-0.1-0.2c-0.1-0.1-0.2-0.3-0.3-0.4
			c-0.2-0.2-0.5-0.5-0.7-0.7c-0.2-0.2-0.5-0.4-0.8-0.5c0,0.3,0.1,0.6,0.1,1l0.1,0.9c0.1,0.6,0.2,1.1,0.2,1.7s0.1,1.1,0.2,1.6
			c0,0.2,0,0.3,0,0.5c-1.4-0.1-2.9-0.1-4.4-0.1c-0.1-0.4-0.2-0.9-0.4-1.3c-0.3-0.7-0.6-1.3-1-1.9c-0.2-0.3-0.4-0.6-0.6-0.8
			c-0.1-0.1-0.1-0.1-0.2-0.2l-0.2-0.2c-0.1-0.1-0.2-0.3-0.4-0.4c-0.3-0.2-0.5-0.5-0.8-0.7c-0.3-0.2-0.6-0.4-0.9-0.5
			c0.1,0.3,0.2,0.7,0.3,1l0.3,0.9c0.2,0.6,0.3,1.2,0.5,1.8s0.3,1.2,0.4,1.7l0.1,0.4c-1.2,0-2.3,0-3.5,0c-0.1-0.4-0.2-0.7-0.4-1.1
			c-0.3-0.8-0.6-1.5-1.1-2.2c-0.2-0.3-0.4-0.7-0.7-1c-0.1-0.1-0.1-0.2-0.2-0.2c-0.1-0.1-0.1-0.2-0.2-0.2l-0.4-0.4l-0.2-0.2l-0.2-0.2
			l-0.1-0.1l-0.1-0.1l-0.2-0.2c-0.3-0.2-0.6-0.5-1-0.6c0.1,0.4,0.2,0.8,0.4,1.1C179.6,113.4,179.6,113.6,179.7,113.7z M163.4,119.1
			c-0.1-0.9,0.5-1.6,1.4-1.7s1.6,0.5,1.7,1.4c0,0,0,0,0,0.1c0,0.9-0.6,1.6-1.5,1.7C164.2,120.6,163.5,119.9,163.4,119.1z"/>
		<g>
			<path class="st5" d="M197.1,119.9c0,1.6-1.6,5.4-2.5,6.2l0.1-0.1l0.2-0.1l0.2-0.1l0.2-0.1l0.2-0.2l0.4-0.3l0.1-0.1l0.1-0.1
				l0.2-0.2c0.1-0.1,0.2-0.3,0.3-0.4l0.3-0.4l0.3-0.4c0.4-0.8,0.7-1.8,0.8-2.7c1.2,0,2.4,0,3.5,0.1
				C201.3,120.9,198.8,120.2,197.1,119.9z"/>
		</g>
		<g>
			<path class="st5" d="M203.2,120.3c-0.1,2.5-2.6,5-2.6,5l0.4-0.2l0.2-0.1l0.2-0.1c0.1,0,0.1-0.1,0.2-0.1l0.2-0.1l0.3-0.3l0.1-0.1
				l0.1-0.1l0.1-0.1l0.3-0.3l0.2-0.3l0.2-0.3c0.4-0.7,0.7-1.5,0.8-2.2c0.8,0,1.5,0.1,2.2,0.2C205,120.8,204.1,120.5,203.2,120.3z"/>
		</g>
		<g>
			<path class="st5" d="M190,120.3c0.1,2-1.3,5.7-2.3,6.5l0.3-0.2l0.2-0.2c0.1-0.1,0.1-0.1,0.2-0.2c0.1-0.1,0.1-0.1,0.2-0.2
				c0.1-0.1,0.1-0.1,0.2-0.2c0.1-0.1,0.2-0.3,0.3-0.4c0,0,0.1-0.1,0.1-0.1l0.1-0.1l0.1-0.2c0.1-0.1,0.2-0.3,0.3-0.5l0.3-0.5l0.2-0.5
				c0.3-0.8,0.5-1.7,0.6-2.6c1.4-0.1,2.8-0.1,4.3-0.2C193.4,120.5,191.7,120.3,190,120.3z"/>
		</g>
		<g>
			<path class="st5" d="M183.8,120.7c-0.1,2.8-1.1,5.5-2.8,7.8c1.3-1,2.3-2.3,2.8-3.8c0.3-0.8,0.5-1.6,0.6-2.4c0-0.3,0-0.6,0.1-0.8
				l3.5-0.3C186.7,120.4,185.1,120.2,183.8,120.7z"/>
		</g>
		<g>
			<path class="st5" d="M177.7,125.4c0.3-0.8,0.5-1.7,0.6-2.6c0-0.3,0-0.6,0-0.8c1-0.1,2.1-0.2,3.2-0.3c-1.5-0.3-3-0.4-4.5-0.4
				c0.8,3.8-2.2,8.2-2.2,8.2C176.1,128.5,177.1,127.1,177.7,125.4z"/>
		</g>
		<g>
			<path class="st5" d="M170.5,123.3c1.6-0.4,3.3-0.7,5-0.9l-5.4-0.2c-0.3,0-1.5,2,0.5,3.7s1.1,4.5-7.1,2.8l0,0
				c3.4,1,7.2,1.4,8.6,0.8C174.8,128.5,171.7,126.8,170.5,123.3z"/>
		</g>
		<g>
			<path class="st5" d="M208.6,120.3c2.2,4.6,1.3,8.9,0.6,8.2c0.2,0.3,0.5,0.5,0.8,0.8c0,0,1.3-6.6-0.7-9.2c1-2.2,1-6,0.5-7.9
				C210,115.9,209.2,119.7,208.6,120.3z"/>
		</g>
		<path class="st42" d="M198.9,116.2c-1.1,0.6-2.1,0.8-2.5,0s-0.2-0.4,1-2.8c-1,0.6-0.5-1.3-0.5-1.3s-2.3,1.3-0.8,4.5
			c-4.6-4-8.5-4.9-8.7-4.8c-0.6,0.3,2.2,1.4,2.2,1.4s4.2,1.7,6.1,4.4c-4-1.5-3.9,0.3-3.9,0.3s0.9,0.7,1.1,0.2
			c0.6-1.5,2.1,0.1,2.7,0.3s-0.9,3-0.9,3l1.6-0.7c1-1,1.9-2.1,2.8-3.3C199.2,117,199.1,116.6,198.9,116.2z"/>
		<path class="st43" d="M194.8,121.4c0,0,1.2-2.2,1-2.9l0,0c0.3-0.3,0.3-0.7,0.1-1c-0.3-0.7,0.2,0.1,0.4,0.2s0.5-0.4,0.5-1l0,0
			c0.7,0.1,1.4-0.1,1.9-0.5c0.2,0.4,0.3,0.8,0.3,1.2c-0.8,1.2-1.8,2.3-2.8,3.3L194.8,121.4z"/>
		<path class="st44" d="M194.7,125c-1.8-3.5,3.9-10,7.4-10.2s8.8,4.4,12,8.3s6.8,5.9,9.2,10.5c1.9,3.7,10.9,7.2,12.2,10.9
			c1,2.7-16.5-1.4-21.1-5.8C211.5,136,197.5,130.4,194.7,125z"/>
		<path class="st45" d="M204.6,118.6c-0.9,0.6-1.7,1.5-2.2,2.5C203.2,120.3,204,119.5,204.6,118.6z"/>
		<path class="st45" d="M213.2,122.8c-1.2,0.3-3.1,3-3.2,3.6S213,123.2,213.2,122.8z"/>
		<path class="st46" d="M204.5,119.5c-0.5,0-1.1,0.9-1.1,1.2S204.4,119.7,204.5,119.5z"/>
		<path class="st45" d="M204.3,124.1c-0.9,0.2-2.1,2-2.2,2.4S204.2,124.5,204.3,124.1z"/>
		<path class="st45" d="M217.6,131c-0.9,0.1-2.1,2-2.2,2.4S217.4,131.4,217.6,131z"/>
		<path class="st45" d="M227,138.4c-0.9,0.1-2.1,2-2.2,2.4S226.9,138.8,227,138.4z"/>
		<path class="st45" d="M228,139.6c-0.9,0.1-2.1,2-2.2,2.4S227.8,140,228,139.6z"/>
		<path class="st45" d="M219.1,138.8c-0.5,0.7-1,1.4-1.6,2l-0.3-0.2C217.6,139.9,218.4,138.9,219.1,138.8z"/>
		<path class="st45" d="M201.7,114.9c-0.9,0.2-2.1,2-2.2,2.4S201.6,115.3,201.7,114.9z"/>
		<path class="st46" d="M204.3,125.2c-0.7-0.1-1.2,0.9-1.2,1.1S204.3,125.3,204.3,125.2z"/>
		<path class="st46" d="M219.8,139.3c-0.7-0.1-1.2,0.9-1.2,1.1S219.7,139.5,219.8,139.3z"/>
		<g>
			<path class="st47" d="M217.4,138.1c-0.3-0.2-0.4-0.6-0.5-0.9c-0.8,0.1-1.7-0.1-2.5-0.4c-1.2-0.5-2.7-1.1-2.9-1.2
				s-0.9,0.5,1.3,1.6s1.5,1.7,2.6,1.9S222.2,143.4,217.4,138.1z"/>
		</g>
		<path class="st45" d="M204.2,129c-0.7,0.5-1.3,1.3-1.7,2.1C203.1,130.4,203.7,129.7,204.2,129z"/>
		<path class="st45" d="M208.6,135l-0.2-0.1c0.2-0.3,0.5-0.6,0.9-0.8C209,134.4,208.8,134.7,208.6,135z"/>
		<path class="st45" d="M196.8,119.2c-0.7,0.5-1.3,1.2-1.7,2.1C195.7,120.7,196.3,120,196.8,119.2z"/>
		<g>
			<path class="st48" d="M199.8,119.4c2.4-1.4,5.6-4.1,3.1-4.2s-7.8,7.5-7.6,8.8s0,3,1.4,0.8S199,119.9,199.8,119.4z"/>
		</g>
		<path class="st49" d="M224.5,135.1c-0.3,0.3-0.7-0.1-0.6,0.5s-0.1,0.1-0.1,0.8c0,0.5,0,0.9,0.1,1.4c0.1,0.6,0.3,1.2,0.6,1.7
			c0.3,0.6,1.4-0.3,0.7,0.4s-0.7,0.9,0,1.3s0.8-0.3,1.9,0.8s1,0,1.4,0.7s0,2.6,1.4,2s1.9-0.9,1-1.9c-0.7-0.9-1.6-1.7-2.5-2.4
			C226.9,138.8,225.6,137,224.5,135.1z"/>
		<path class="st50" d="M224.8,135.5c-0.4-0.1-0.5-0.3-0.5,0.2s-0.4,0.3-0.3,0.6s0.5,0,0.3,0.3s-0.6,0.4-0.2,1.1s0.4,1,0.6,1.3
			s1.2,1.2,0.6,1.4s-0.5,0.5-0.1,0.7c0.7,0.4,1.4,0.7,2.1,0.9c0.9,0.2,1.9,0.4,1.5,1s0.5,1.7,1.1,1.5s2.1,0.9,2.1,0.9
			c-0.4-1-0.8-2-1.4-2.9c-0.3-0.3-3.4-3.5-3.4-3.5l-0.8-1.5L224.8,135.5z"/>
		<path class="st51" d="M224.9,135.5c-0.4,0.1-0.3-0.1-0.3,0.1s-0.1,0.2-0.2,0.3s0.1,0.6,0.1,0.6s0.4-0.1,0.1,0.6s1.7,3,1.2,3.4
			s0.8,0.2,1.4,0.7s3.1,1.5,2.9,2.3s-0.6,0.8,0.1,0.7s2,1.1,2,1.1c0.3,0.2,0.7,0.3,1.1,0.3c0.5-0.1,0.6,0.2,0.8,0.1s1.8-0.2,1.6-0.7
			s-0.1-1.1-0.3-1.1s-0.7-1.5-1.3-1.8s-1.5-1.2-3.1-2.2S225.3,135.4,224.9,135.5z"/>
		<path class="st52" d="M227.8,138.2c-0.4-0.3-0.1,0.1-0.6-0.3s-0.6,0.1-0.9-0.5s-0.7-1.3-0.4-0.3s-0.8,1.1-0.1,1.3s0.9-0.4,1.2,0.1
			s0.6,1,1.1,0.8S228.4,138.6,227.8,138.2z"/>
		<path class="st53" d="M227.2,137.6c-0.7-0.3-1.3-1-1.1-0.5s0.4,0.8,0.2,0.9s-0.4,0.6,0.1,0.5s-0.3-1.2,0.7-0.1s1.3,0.8,1.2,0.3
			s-1.1-0.2-0.9-0.5C227.5,137.9,227.4,137.7,227.2,137.6C227.2,137.6,227.2,137.6,227.2,137.6z"/>
		<path class="st53" d="M226.9,137.3c0.1,0.1,0.3-0.1,0.1-0.1S226.8,137.2,226.9,137.3L226.9,137.3z"/>
		<path class="st53" d="M227.5,137.7C227.5,137.6,227.4,137.7,227.5,137.7C227.4,137.5,227.6,137.6,227.5,137.7
			C227.5,137.7,227.5,137.7,227.5,137.7z"/>
		<path class="st53" d="M227.5,138C227.5,137.8,227.5,137.9,227.5,138C227.5,138,227.5,138.1,227.5,138z"/>
		<path class="st53" d="M227.8,139c0,0-0.1-0.2-0.2-0.1S227.9,139.1,227.8,139z"/>
		<path class="st52" d="M235.3,143.6c-0.3-0.3-0.1,0-0.5-0.4s-0.6-0.1-0.7-0.6s-0.4-1.1-0.4-0.3s-1,0.5-0.4,0.8s1-0.1,1.1,0.4
			s0.2,0.9,0.7,0.8S235.7,144,235.3,143.6z"/>
		<path class="st53" d="M234.9,143c-0.5-0.4-0.8-1-0.8-0.6s0.1,0.6-0.2,0.6s-0.6,0.3,0,0.4s0.2-0.9,0.8,0.1s1,0.9,1,0.5
			s-1-0.4-0.7-0.6c0.1,0,0.1-0.2,0.1-0.3C235,143.1,235,143,234.9,143z"/>
		<path class="st53" d="M233.9,142.1c0.1,0.1,0.3,0,0.1-0.1S233.8,142,233.9,142.1L233.9,142.1z"/>
		<path class="st53" d="M234.7,143.9C234.7,143.9,234.6,143.8,234.7,143.9c0.1-0.1,0.2-0.1,0.1,0S234.7,143.9,234.7,143.9z"/>
		<path class="st53" d="M235,143.4C235.1,143.3,235,143.3,235,143.4S235,143.5,235,143.4z"/>
		<path class="st53" d="M235,144.1c0,0,0-0.2-0.1-0.1S235,144.2,235,144.1z"/>
		<path class="st53" d="M226.1,140.4c0.1-0.1,0-0.3,0-0.2s-0.2,0.1-0.2,0.2S226,140.5,226.1,140.4z"/>
		<path class="st53" d="M225.9,139.9C225.9,139.8,225.8,139.7,225.9,139.9c0,0.1-0.1,0.2,0,0.3S225.9,139.9,225.9,139.9z"/>
		<path class="st49" d="M222,142.6c0.9,0.4,1.8,0.2,1.8-0.3s0.6-0.3-0.1-1s-1.1-0.2-0.8-0.8s1-0.2-0.2-2.3s-1.4-1.5-2.3-0.8
			s-0.6,2-0.6,3.1S219.9,141.8,222,142.6z"/>
		<path class="st50" d="M221.9,142.7c0.9,0.3,1.6,0.1,1.6-0.3s0.5-0.3-0.1-0.9s-1-0.1-0.8-0.8s1-0.2-0.2-2.1s-1.3-1.4-2.1-0.8
			s-0.5,1.9-0.6,2.9S220,141.9,221.9,142.7z"/>
		<path class="st51" d="M223.1,141.3c-1.5-1.1,0.6,0.3-0.5-2.4s-2.7-1.1-2.6,0.6s-0.1,2.6,1.6,2.9S223.7,141.7,223.1,141.3z"/>
		<path class="st49" d="M206.5,123.1c0.2-1.6-0.4-0.1-2.3-1s-0.5-0.9-0.8-1.9s1.5-2.2,3.8-2.2h1.8c1.9,1.5,3.6,3.2,5.1,5
			c0.4,1.6,0.6,3.1-0.4,4.4c-1.6,2-1.6,3.3-5.6,0.2S206.2,124.7,206.5,123.1z"/>
		<path class="st50" d="M206.6,122.5c0.2-1.5-0.4-0.1-2.1-0.9s-0.4-0.8-0.7-1.8s1.4-2,3.5-2h1.4c1.9,1.5,3.6,3.1,5.1,4.9
			c0.5,1.3,0.3,2.7-0.4,3.8c-1.4,1.9-1.5,3.1-5.1,0.2S206.4,124,206.6,122.5z"/>
		<path class="st51" d="M205.4,121.6c-1.7-0.4-1.5-2.9,2.6-3.8c0.2,0,0.5-0.1,0.7-0.1c1.6,1.2,3,2.6,4.4,4.1
			c0.1,0.2,0.1,0.5,0.2,0.8c1.1,3.5-1.7,8.2-5.5,3.6S209.4,122.5,205.4,121.6z"/>
		<g>
			<path class="st54" d="M195.7,119.8L195.7,119.8c-0.9,3.3,0.8,6.7,5.4,8.2c4.7,1.5,8.4,4.1,12.3,7.9s3.7,5.2,7,5.9
				s16.4,6.9,12.6-0.3l0,0c1.1,0.8,2,1.9,2.6,3.1c1,2.7-16.5-1.4-21.1-5.8c-2.9-2.8-16.9-8.4-19.7-13.7
				C194,123.6,194.6,121.6,195.7,119.8z"/>
		</g>
		<g>
			<path class="st54" d="M214.4,138.7c-1.6-1.5-6.5-3.9-11.1-6.6l0,0c6.7,1.2,13.1,5.7,15.6,8.2s13.1,4.9,16.3,3.9h0.2
				c0,0.1,0.1,0.2,0.1,0.3C236.5,147.2,219,143.1,214.4,138.7z"/>
		</g>
		<path class="st52" d="M212.7,121.9c-0.5-0.5-0.2,0.1-0.8-0.7s-1-0.1-1.1-1s-0.6-1.8-0.7-0.5s-1.7,0.8-0.6,1.4s1.6-0.1,1.8,0.7
			s0.3,1.4,1.1,1.3S213.4,122.6,212.7,121.9z"/>
		<path class="st53" d="M212.1,121c-0.8-0.6-1.3-1.6-1.4-1s0.2,1-0.3,1s-0.9,0.5-0.1,0.6s0.4-1.4,1.2,0.2s1.6,1.4,1.7,0.8
			s-1.6-0.7-1.1-1S212.1,121,212.1,121z"/>
		<path class="st53" d="M210.5,119.6c0.2,0.1,0.4,0,0.2-0.1s-0.4,0-0.3,0.1L210.5,119.6z"/>
		<path class="st53" d="M212.3,121.7C212.5,121.5,212.3,121.5,212.3,121.7C212.3,121.7,212.2,121.8,212.3,121.7z"/>
		<path class="st55" d="M198.9,351.8c-19.2,0.3-17.9,6.8-2.6,7s-6,0,1,4.7s70.1,2.3,65.9-0.6s-27.7-3.7-2.5-3.9s53.7-4.9,26-8.6
			S198.9,351.8,198.9,351.8z"/>
		<polygon class="st27" points="135.1,154.1 140,146.7 132.6,127.6 131.2,128.6 137.9,146.3 134,153.5 		"/>
		<path class="st56" d="M137.4,145.2l2-0.8c0.1-0.1,0.3,0,0.3,0.1c0,0,0,0,0,0l0,0c0.1,0.1,0,0.3-0.1,0.3c0,0,0,0,0,0l-1.9,0.8
			c-0.1,0.1-0.3,0-0.3-0.1c0,0,0,0,0,0l0,0C137.2,145.4,137.3,145.2,137.4,145.2z"/>
		<path class="st56" d="M138,146l2,0.4c0.1,0,0.2,0.2,0.2,0.3c0,0,0,0,0,0l0,0c0,0.1-0.2,0.2-0.3,0.2l-2-0.4c-0.1,0-0.2-0.2-0.2-0.3
			c0,0,0,0,0,0l0,0C137.7,146.1,137.9,146,138,146z"/>
		<path class="st56" d="M137.4,146.9l2,0.7c0.1,0,0.2,0.2,0.1,0.3l0,0c0,0.1-0.2,0.2-0.3,0.1l-2-0.7c-0.1,0-0.2-0.2-0.1-0.3l0,0
			C137.2,146.9,137.3,146.9,137.4,146.9z"/>
		<path class="st56" d="M137,147.8l2,0.7c0.1,0,0.2,0.2,0.2,0.3c0,0,0,0,0,0l0,0c0,0.1-0.2,0.2-0.3,0.1c0,0,0,0,0,0l-2-0.7
			c-0.1,0-0.2-0.2-0.1-0.3l0,0C136.7,147.8,136.9,147.8,137,147.8z"/>
		<path class="st56" d="M137,144.2l1.9-0.8c0.1-0.1,0.3,0,0.3,0.1c0,0,0,0,0,0l0,0c0.1,0.1,0,0.3-0.1,0.3c0,0,0,0,0,0l-1.9,0.8
			c-0.1,0.1-0.3,0-0.3-0.1c0,0,0,0,0,0l0,0C136.8,144.4,136.9,144.2,137,144.2C137,144.2,137,144.2,137,144.2z"/>
		<path class="st56" d="M136.6,143.2l2-0.8c0.1-0.1,0.3,0,0.3,0.1c0,0,0,0,0,0l0,0c0,0.1,0,0.3-0.1,0.3c0,0,0,0,0,0l-2,0.8
			c-0.1,0-0.3,0-0.3-0.1c0,0,0,0,0,0l0,0C136.5,143.4,136.5,143.3,136.6,143.2z"/>
		
			<rect x="253.3" y="144.3" transform="matrix(0.4278 -0.9039 0.9039 0.4278 13.9722 315.0835)" class="st57" width="5.2" height="4.4"/>
		<path class="st58" d="M247.1,158c-0.2,0-0.4,0-0.6-0.1c-1.3-0.2-2.5-0.9-3.2-2.1c-1.3-2.7,0.9-7.3,3.1-11.7
			c0.5-0.9,0.9-1.8,1.3-2.7c0.1-0.2,0.3-0.3,0.5-0.2c0,0,0,0,0,0c0.2,0.1,0.3,0.3,0.2,0.5c-0.4,0.9-0.9,1.8-1.3,2.7
			c-2,4-4.2,8.6-3,11c0.6,1,1.5,1.6,2.6,1.7c3.3,0.7,7.1-6.9,8.4-9.9c0.1-0.2,0.3-0.3,0.5-0.2c0.2,0.1,0.3,0.3,0.2,0.5c0,0,0,0,0,0
			C255.6,148.1,251.5,158,247.1,158z"/>
		<polygon class="st59" points="249.2,128 257.8,132.1 253.7,140.6 250.9,143 245.1,140.2 245.2,136.6 		"/>
		<polygon class="st13" points="246.8,139.1 250.7,140.9 250.2,143.1 245.5,140.8 		"/>
		<path class="st60" d="M249.4,128.4l7.9,3.7l-2.9,6.2c-1.6-2.4-5.7-1.8-7.9-3.7L249.4,128.4z"/>
		<path class="st61" d="M263.9,138.9c0-3,1.4-4.7,3.9-3.4s1.8-6.1,5.1-4.6s4.3,5.3,7.1,1.2s3.8,2.8,6.4,1.3s5.8,2,2.8,3.1
			s-4.5-0.6-5.4,2s-4.4,3.9-6.4,1.8s-0.4,6.3-4.8,2.4s-3.8,3.5-6.3,0.7S263.9,138.9,263.9,138.9z"/>
		<path class="st62" d="M258.7,142.9c6.9-4,14.8-6.2,22.8-6.4c-0.1,0.2-12.1,1.1-22.4,7.4C258.3,143,258.7,142.9,258.7,142.9z"/>
		<path class="st62" d="M267.1,139.2c1,0.1,1,1.5,2.5,2.3c-1.5-0.5-2-2.3-2.8-2.2C266.9,139.1,267.1,139.2,267.1,139.2z"/>
		<path class="st62" d="M268.3,138.9c1.3-0.8,2.2-3.7,3.4-4.5c-1.3,1-2.8,4.5-3.9,4.5C268.2,139.2,268.3,138.9,268.3,138.9z"/>
		<path class="st62" d="M278.4,137.1c1.2-0.9,1.8-3.8,3-4.8c-1.2,1.1-2.4,4.7-3.5,4.8C278.3,137.4,278.4,137.1,278.4,137.1z"/>
		<path class="st62" d="M272.4,138c1-0.3,0.7-1.7,2-2.8c-1.4,0.8-1.5,2.7-2.2,2.8C272.2,138.2,272.4,138,272.4,138z"/>
		<path class="st62" d="M273.3,138c1,0.1,1,1.5,2.5,2.3c-1.5-0.5-2-2.3-2.8-2.2C273.1,137.8,273.3,138,273.3,138z"/>
		<path class="st61" d="M246.4,153.9c-2.8-1.2-3.8-3.1-1.6-4.9s-4.8-4.1-2.2-6.5s6.6-1.8,3.9-6.1s4.1-2.3,3.7-5.4s4.2-4.5,4-1.4
			c-0.2,3.1-2.3,3.9-0.3,5.7c2,1.8,1.8,5.6-1,6.6s5.6,2.9,0.3,5.3s1.7,4.8-1.9,6.1S246.4,153.9,246.4,153.9z"/>
		<path class="st62" d="M248.1,160.3c-0.9-8,0.2-16,3.3-23.4c0.1,0.2-3.9,11.6-2.3,23.5C248,160.7,248.1,160.3,248.1,160.3z"/>
		<path class="st62" d="M248,151.2c0.5-0.9,1.8-0.4,3.1-1.4c-1.1,1.2-2.9,0.9-3.1,1.6C247.8,151.3,248,151.2,248,151.2z"/>
		<path class="st62" d="M248.2,150c-0.2-1.5-2.5-3.4-2.8-4.9c0.4,1.6,3,4.4,2.6,5.4C248.4,150.1,248.2,150,248.2,150z"/>
		<path class="st62" d="M250.6,140c-0.3-1.5-2.8-3.2-3.2-4.6c0.6,1.6,3.3,4.1,3,5.1C250.8,140.1,250.6,140,250.6,140z"/>
		<path class="st62" d="M249,145.8c0.1-1-1.3-1.3-1.7-2.9c0.2,1.6,1.9,2.5,1.6,3.2C249.2,146.1,249,145.8,249,145.8z"/>
		<path class="st62" d="M249.4,145c0.5-0.9,1.8-0.4,3.1-1.4c-1.1,1.2-2.9,0.9-3.2,1.6C249.2,145.1,249.4,145,249.4,145z"/>
		<path class="st63" d="M154.8,128.9v-0.2h-0.2v0.2l0.2,0.3l-0.1,0.2c0,0-0.1-0.1-0.1-0.1l-0.1-0.3l-0.2-0.1l-0.1,0.1v1l0.1,0.9
			l-0.2-0.7c-0.2-0.2-0.3-0.4-0.4-0.6c0-0.1-0.1-0.4-0.1-0.4l-0.4,0.1c0,0,0.1,0.3,0.1,0.2s-0.3,0.2-0.3,0.2l0.1,0.4
			c0,0-0.1,0.3-0.1,0.3s-0.2,0-0.2,0.1c0,0.1-0.1,0.3-0.2,0.4l-0.4-0.3l-0.4,0.8l-0.5-0.6l-0.4-0.4l-0.3-0.3l-0.3,0.1l-0.4,0.4
			c0,0-0.3-0.1-0.3,0s0.2,1.1,0.2,1.1v0.9l-0.4-1.4l-0.2-0.5h-0.3l0.1,0.5l-0.2-0.4l-0.1-0.4l0.1,0.6v0.5c-0.2-0.3-0.4-0.5-0.5-0.8
			c-0.1-0.2-0.1,0.2-0.1,0.2s0.3,2.4,0.3,2.5s0.2,2.6,0.2,2.9s0.2,1.6,0,1.1s-0.6-2.2-0.7-2.4s-0.2-1.6-0.2-1.6l-0.7-1.2l-0.4-0.6
			h-0.1l-0.7-0.1c-0.1,0.1-0.1,0.1-0.1,0.1v-0.1h-0.2v0.1l0.2,0.3l-0.1,0.2c0,0-0.1-0.1-0.1-0.1l-0.1-0.3c0,0-0.2-0.1-0.2-0.1
			l-0.1,0.1v1l0.1,0.9l-0.2-0.7c-0.1-0.2-0.3-0.4-0.4-0.6c0-0.1-0.1-0.4-0.1-0.4l-0.4,0.1c0,0,0.1,0.3,0,0.2s-0.3,0.2-0.3,0.2
			l0.1,0.4c0,0-0.1,0.3-0.1,0.3c-0.1,0-0.2,0.1-0.2,0.1c0,0,0,0,0,0c0,0.1-0.1,0.3-0.2,0.4l-0.4-0.3l-0.4,0.8l-0.6-0.6l-0.4-0.4
			l-0.3-0.3l-0.3,0.1l-0.4,0.4c0,0-0.3-0.1-0.3,0s0.2,1.1,0.2,1.1l0.1,0.9L140,134l-0.2-0.5h-0.3l0.1,0.5l-0.2-0.4l-0.1-0.4l0.1,0.6
			v0.5c-0.2-0.3-0.4-0.5-0.5-0.8c-0.1-0.2-0.1,0.2-0.1,0.2s0.3,2.4,0.3,2.5s1.3,0.9,1.4,1.1s0.2,1.6,0,1.1c-0.6-0.8-1.2-1.6-2-2.2
			l-0.7-1.2l-0.4-0.6H137l-0.6-0.1l-0.2,0.1h-0.2l-0.1,0.5l-0.1,1c0,0-1.1,1.8-1,2.2s-0.4-0.4-0.5-0.6s0.9-1.2,0.8-1.3s-1-1.5-1-1.5
			s-0.2-0.2-0.2,0c0,0.2-0.1,0.5-0.1,0.7l-0.2-0.3l-0.2-0.4l0.1,0.3v0.3l-0.1-0.3l-0.3,0.1l0.1,0.4l0.3,0.9l-0.4-0.5
			c0,0-0.3-0.7-0.4-0.7c-0.1,0-0.2,0.1-0.3,0.2h-0.6l-0.3,0.1l-0.2,0.3l-0.2,0.4l-0.3,0.6l-0.8-0.2l-0.2,0.3c-0.1,0-0.3-0.1-0.4-0.1
			c0-0.1-0.2,0-0.2,0s-0.3-0.1-0.3-0.1l-0.1-0.3c0,0-0.3-0.1-0.4,0s0-0.1,0-0.1l-0.5,0.1c0,0,0.1,0.2,0.1,0.3c0,0.2-0.1,0.3-0.1,0.5
			l0.1,0.4l-0.4-0.5l-0.5-0.6h-0.2l-0.1,0.1c0,0,0,0.2,0,0.3s-0.1,0.1-0.1,0.1h-0.3v-0.2l-0.1-0.1l-0.2,0.1c0,0,0,0.1,0,0.1
			s-0.4,0-0.4,0h-0.5l11.2,38.7l30-8.7l-11.2-38.7l-0.4,0.3C154.9,128.6,154.9,129,154.8,128.9z"/>
		<path class="st14" d="M257.1,156.3c0,0,5.7,1.7,10.2-2.1c4.6,0.2,9-3.9,9-3.9c-0.8,0.5-1.6,0.7-2.5,0.8c-1-0.1-2,0.1-2.9,0.5
			c-0.5,0.4-2.8-0.6-2.8-0.6l-9,4.9L257.1,156.3z"/>
		<path class="st64" d="M264,136.6l-11,3.8c0,0,6.7,1,7.4,6.3c0.3,3.3-0.5,6.6-2.3,9.4c3.2,0,6.3-1.1,8.8-3.2
			c2.6,0.1,5.3-0.6,7.6-1.9c0,0-13.2-2.8-4.8-14.6C265.1,135,264,136.6,264,136.6z"/>
		<g>
			<path class="st8" d="M262.2,142.5c-0.9-1.8-2.3-3.1-4.2-3.8l-5,1.7c0,0,6.7,1,7.4,6.3c0.3,3.3-0.5,6.6-2.3,9.4
				c3.2,0,6.3-1.1,8.8-3.2C267.2,150.7,263.4,144.3,262.2,142.5z"/>
		</g>
		<path class="st14" d="M270.4,130.4c-3.5,1.2-6.7,3.1-9.5,5.5c-3-0.1-6.1,0.2-9,1c3.9,0.7,0.3,3.8,0.3,3.8s6.9-1.8,10,1.8
			c1.2-5.6,8.8-5.8,8.8-5.8s-4.2-1.5-1.6-3.3C267.3,133,270.4,130.5,270.4,130.4z"/>
		<path class="st21" d="M261.5,138.7c0,0-3.7-6.8,2-10.8c1.7,0.3,1.7,1.6,1.7,1.6S259.4,132.8,261.5,138.7z"/>
		<g>
			<path class="st65" d="M262,146.2c0,0-0.4,3.5,0.9,3.4S262,146.2,262,146.2z"/>
		</g>
		<g>
			<path class="st65" d="M265.4,145.6c0,0,0.7,2.1,1.4,1.8S265.4,145.6,265.4,145.6z"/>
		</g>
		<path class="st21" d="M284.6,138.7c0,0,1.5-5.5,6.6-4.7c0.8,1.1,0.1,1.7,0.1,1.7S286.5,134.5,284.6,138.7z"/>
		<path class="st66" d="M286.9,140.4c-0.7-0.5-0.8-2.1-1.6-2.4c-0.1-0.1-0.2-0.2-0.3-0.3c-3-3.1-9.7,1.2-12.8,1.6
			c-3.4,0.4-5.5,7.8-2,12.7c0.6,0.7,1.3,1.2,2.1,1.4c0.1,0.1,0.2,0.2,0.3,0.3c3,3.1,8.7,2.4,12.8-1.6S292.5,143.8,286.9,140.4z"/>
		<g>
			<path class="st67" d="M271.4,151.8c0.3,0.7,0.7,1.4,1.2,1.9c3,3.1,8.7,2.4,12.8-1.6c2.8-2.8,4.1-6.4,3.7-9.3l0,0
				C289,142.8,281,160.5,271.4,151.8z"/>
		</g>
		<g>
			<path class="st67" d="M270.9,149c-0.1,1.7,0.6,3.4,1.7,4.7c3,3.1,8.7,2.4,12.8-1.6c1.8-1.7,3-3.8,3.6-6.2l0,0
				C288.9,145.9,279.5,159.1,270.9,149z"/>
		</g>
		<g>
			<path class="st5" d="M277.9,142.5c0,0-10.2,3.4-5.6,10.9C268.8,148.3,266.6,146,277.9,142.5z"/>
		</g>
		<g>
			<path class="st5" d="M273.7,139.2c2.5-0.5,3.6-1.4,4.4-1s0.8,1.8-2.4,2.4s-4.4,0.4-4.1-0.1S271.6,139.6,273.7,139.2z"/>
		</g>
		<g>
			<path class="st5" d="M284.5,150.8c-0.2-0.9,1.6-1.6,1.6-1.2S284.7,151.7,284.5,150.8z"/>
		</g>
		<g>
			<path class="st5" d="M286.1,149.6c0-0.1-0.1-0.1-0.2-0.1l0,0c0,0.4-0.9,1.5-1.4,1.4C284.9,151.5,286.2,150.1,286.1,149.6z"/>
		</g>
		<g>
			<path class="st5" d="M271.4,140.7c-0.2-0.9,1.6-1.6,1.6-1.2S271.5,141.6,271.4,140.7z"/>
		</g>
		<g>
			<path class="st5" d="M273,139.5c0-0.1-0.1-0.1-0.2-0.1l0,0c0,0.4-0.9,1.5-1.4,1.4C271.7,141.4,273,140,273,139.5z"/>
		</g>
		<g>
			<path class="st68" d="M279.6,147.8c0.6,0.3,1-0.4,0.8,0s-0.8,1.2-1,0.8S279.2,147.6,279.6,147.8z"/>
		</g>
		<g>
			<path class="st68" d="M271.1,151.3c-0.3,0.6,0.5,0.9,0,0.8s-1.2-0.7-0.9-1S271.3,150.9,271.1,151.3z"/>
		</g>
		<g>
			<path class="st69" d="M281,137.8c0,0.1,0,0.1-0.1,0.1c0,0,0,0,0,0c-0.1,0-0.1-0.1-0.1-0.1v0c0-0.1,0.1-0.1,0.1-0.1l0,0
				C280.9,137.6,281,137.7,281,137.8z"/>
		</g>
		<g>
			<path class="st69" d="M281.7,138c0,0.1-0.1,0.2-0.2,0.2c-0.1,0-0.2-0.1-0.2-0.2c0-0.1,0.1-0.2,0.2-0.2S281.7,137.9,281.7,138
				C281.7,138,281.7,138,281.7,138z"/>
		</g>
		<g>
			<circle class="st69" cx="281.1" cy="138.6" r="0.1"/>
		</g>
		<g>
			<path class="st69" d="M275.3,145.5c-0.2,0-0.3-0.1-0.4-0.2c0-0.2,0.1-0.3,0.2-0.4c0,0,0,0,0,0c0.2,0,0.3,0.1,0.4,0.2
				C275.5,145.3,275.4,145.5,275.3,145.5z"/>
		</g>
		<g>
			<path class="st69" d="M275,147.3c-0.2,0.1-0.5-0.1-0.5-0.3c-0.1-0.2,0.1-0.5,0.3-0.5c0.2-0.1,0.5,0.1,0.5,0.3c0,0,0,0,0,0
				C275.4,147,275.2,147.2,275,147.3z"/>
		</g>
		<g>
			<path class="st69" d="M273.6,146.3c-0.1,0-0.2-0.1-0.2-0.2c0-0.1,0-0.2,0.1-0.2c0.1,0,0.2,0,0.2,0.1c0,0,0,0,0,0
				C273.8,146.2,273.7,146.3,273.6,146.3C273.6,146.3,273.6,146.3,273.6,146.3z"/>
		</g>
		<g>
			<path class="st70" d="M278.8,153.1c-0.1,0.1-0.3,0-0.3-0.1c-0.1-0.1,0-0.3,0.1-0.3c0.1-0.1,0.2,0,0.3,0.1
				C278.9,152.9,278.9,153,278.8,153.1C278.8,153.1,278.8,153.1,278.8,153.1z"/>
		</g>
		<g>
			<circle class="st70" cx="286.5" cy="142.9" r="0.2"/>
		</g>
		<g>
			<circle class="st70" cx="268.9" cy="144.8" r="0.2"/>
		</g>
		<g>
			<path class="st70" d="M279.1,154.4c-0.2,0.1-0.4,0.1-0.5-0.1c-0.1-0.2-0.1-0.4,0.1-0.5c0.2-0.1,0.4-0.1,0.5,0.1c0,0,0,0,0,0
				C279.3,154.1,279.2,154.3,279.1,154.4z"/>
		</g>
		<g>
			<path class="st5" d="M280.5,142.9c1.9,0.4,0.7-2.4,2.6-1.2s4,0.6-0.2,2.1s-6.9-1-4.7-0.5S279.4,142.7,280.5,142.9z"/>
		</g>
		<path class="st5" d="M196.6,147.2l18.5-20.5c0.5-0.5,1.3-0.6,1.8-0.1l11.7,10.6c0.5,0.5,0.6,1.3,0.1,1.8l-18.5,20.5
			c-0.5,0.5-1.3,0.6-1.8,0.1L196.7,149C196.2,148.6,196.2,147.7,196.6,147.2z"/>
		<g>
			<path class="st59" d="M203.3,153.4L203.3,153.4c-0.1-0.1-0.1-0.2,0-0.3c0,0,0,0,0,0l18.4-20.4c0.1-0.1,0.2-0.1,0.3,0l0,0
				c0.1,0.1,0.1,0.2,0,0.3l-18.4,20.3C203.5,153.5,203.4,153.5,203.3,153.4z"/>
		</g>
		<g>
			<path class="st59" d="M222,132.8L222,132.8c0,0.1,0,0.2-0.1,0.2l-18.4,20.4c-0.1,0-0.2,0-0.2,0l0,0c0.1,0.1,0.2,0.1,0.3,0
				L222,133C222.1,132.9,222.1,132.8,222,132.8z"/>
		</g>
		<g>
			<circle class="st71" cx="202.3" cy="148.1" r="2.4"/>
		</g>
		<path class="st57" d="M202.8,145.6c1.3,0.4,2,1.7,1.6,2.9c-0.4,1.3-1.7,2-2.9,1.6c-1.3-0.4-2-1.7-1.6-2.9
			C200.2,146,201.5,145.3,202.8,145.6C202.8,145.6,202.8,145.6,202.8,145.6z"/>
		<g>
			<path class="st12" d="M201.5,150.2c0.2,0,0.3,0.1,0.5,0.1l1.3-4.5c-0.1-0.1-0.3-0.1-0.4-0.2c-0.2-0.1-0.3-0.1-0.5-0.1L201,150
				C201.1,150.1,201.3,150.1,201.5,150.2z"/>
		</g>
		<g>
			<path class="st59" d="M200.3,147.3L200.3,147.3c-0.1,0-0.1-0.1-0.1-0.2c0.4-1.1,1.6-1.6,2.7-1.3c0.1,0,0.1,0.1,0.1,0.2
				c0,0.1-0.1,0.1-0.2,0.1c0,0,0,0,0,0c-1-0.3-2,0.2-2.4,1.1C200.4,147.3,200.4,147.3,200.3,147.3
				C200.3,147.3,200.3,147.3,200.3,147.3z"/>
		</g>
		<g>
			<circle class="st71" cx="207" cy="142.9" r="2.4"/>
		</g>
		<path class="st57" d="M207.5,140.4c1.3,0.4,2,1.7,1.6,2.9c-0.4,1.3-1.7,2-2.9,1.6c-1.3-0.4-2-1.7-1.6-2.9c0,0,0,0,0,0
			C205,140.7,206.3,140,207.5,140.4z"/>
		<g>
			<path class="st12" d="M206.2,144.9c0.2,0,0.3,0.1,0.5,0.1l1.3-4.5c-0.1-0.1-0.3-0.1-0.4-0.2c-0.2,0-0.3-0.1-0.5-0.1l-1.3,4.5
				C205.9,144.8,206.1,144.9,206.2,144.9z"/>
		</g>
		<g>
			<path class="st59" d="M205.1,142L205.1,142c-0.1,0-0.1-0.1-0.1-0.1c0,0,0,0,0,0c0.4-1.1,1.6-1.6,2.7-1.3c0.1,0,0.1,0.1,0.1,0.1
				c0,0,0,0,0,0c0,0.1-0.1,0.1-0.2,0.1c-1-0.3-2,0.2-2.4,1.1C205.2,142,205.1,142,205.1,142z"/>
		</g>
		<g>
			<circle class="st71" cx="211.8" cy="137.6" r="2.4"/>
		</g>
		<circle class="st57" cx="211.7" cy="137.4" r="2.4"/>
		<g>
			<path class="st12" d="M211,139.6c0.2,0,0.3,0.1,0.5,0.1l1.3-4.5c-0.1-0.1-0.3-0.1-0.4-0.2c-0.2,0-0.3-0.1-0.5-0.1l-1.3,4.5
				C210.7,139.5,210.8,139.6,211,139.6z"/>
		</g>
		<g>
			<path class="st59" d="M209.8,136.7L209.8,136.7c-0.1,0-0.1-0.1-0.1-0.2c0.4-1.1,1.6-1.6,2.7-1.3c0.1,0,0.1,0.1,0.1,0.2
				c0,0.1-0.1,0.1-0.2,0.1c-1-0.3-2,0.2-2.4,1.1C210,136.7,209.9,136.7,209.8,136.7z"/>
		</g>
		<g>
			<circle class="st71" cx="216.6" cy="132.3" r="2.4"/>
		</g>
		<circle class="st57" cx="216.4" cy="132.1" r="2.4"/>
		<g>
			<path class="st12" d="M215.8,134.3c0.2,0,0.3,0.1,0.5,0.1l1.3-4.5c-0.1-0.1-0.3-0.1-0.4-0.2c-0.2,0-0.3-0.1-0.5-0.1l-1.3,4.5
				C215.5,134.2,215.6,134.3,215.8,134.3z"/>
		</g>
		<g>
			<path class="st59" d="M214.6,131.4L214.6,131.4c-0.1,0-0.1-0.1-0.1-0.2c0.4-1,1.6-1.6,2.7-1.3c0.1,0,0.1,0.1,0.1,0.2
				c0,0.1-0.1,0.1-0.2,0.1c-1-0.3-2,0.2-2.4,1.1C214.7,131.4,214.7,131.4,214.6,131.4z"/>
		</g>
		<g>
			<circle class="st71" cx="209" cy="154.2" r="2.4"/>
		</g>
		<circle class="st57" cx="208.8" cy="154" r="2.4"/>
		<g>
			<path class="st12" d="M208.2,156.3c0.2,0,0.3,0.1,0.5,0.1l1.3-4.5c-0.1-0.1-0.3-0.1-0.4-0.2c-0.2,0-0.3-0.1-0.5-0.1l-1.3,4.5
				C207.9,156.2,208,156.2,208.2,156.3z"/>
		</g>
		<g>
			<path class="st59" d="M207,153.4L207,153.4c-0.1,0-0.1-0.1-0.1-0.2c0.4-1.1,1.6-1.6,2.7-1.3c0.1,0,0.1,0.1,0.1,0.2
				c0,0.1-0.1,0.1-0.2,0.1c-1-0.3-2,0.2-2.4,1.1C207.1,153.3,207.1,153.4,207,153.4C207,153.4,207,153.4,207,153.4z"/>
		</g>
		<g>
			<circle class="st71" cx="213.8" cy="148.9" r="2.4"/>
		</g>
		<circle class="st57" cx="213.6" cy="148.7" r="2.4"/>
		<g>
			<path class="st12" d="M213,151c0.2,0,0.3,0.1,0.5,0.1l1.3-4.5c-0.1-0.1-0.3-0.1-0.4-0.2c-0.2,0-0.3-0.1-0.5-0.1l-1.3,4.5
				C212.7,150.9,212.8,151,213,151z"/>
		</g>
		<g>
			<path class="st59" d="M211.8,148.1L211.8,148.1c-0.1,0-0.1-0.1-0.1-0.2c0.4-1.1,1.6-1.6,2.7-1.3c0.1,0,0.1,0.1,0.1,0.2
				c0,0.1-0.1,0.1-0.2,0.1c-1-0.3-2,0.2-2.4,1.1C211.9,148.1,211.9,148.1,211.8,148.1z"/>
		</g>
		<g>
			<circle class="st71" cx="218.5" cy="143.7" r="2.4"/>
		</g>
		<circle class="st57" cx="218.4" cy="143.4" r="2.4"/>
		<g>
			<path class="st12" d="M217.8,145.7c0.2,0,0.3,0.1,0.5,0.1l1.3-4.5c-0.1-0.1-0.3-0.1-0.4-0.2c-0.2-0.1-0.3-0.1-0.5-0.1l-1.3,4.5
				C217.4,145.6,217.6,145.7,217.8,145.7z"/>
		</g>
		<g>
			<path class="st59" d="M216.6,142.8L216.6,142.8c-0.1,0-0.1-0.1-0.1-0.2c0.4-1.1,1.6-1.6,2.7-1.3c0.1,0,0.1,0.1,0.1,0.2
				c0,0.1-0.1,0.1-0.2,0.1c-1-0.3-2,0.2-2.4,1.1C216.7,142.8,216.6,142.8,216.6,142.8z"/>
		</g>
		<g>
			<circle class="st71" cx="223.3" cy="138.4" r="2.4"/>
		</g>
		<circle class="st57" cx="223.2" cy="138.1" r="2.4"/>
		<g>
			<path class="st12" d="M222.5,140.4c0.2,0,0.3,0.1,0.5,0.1l1.3-4.5c-0.1-0.1-0.3-0.1-0.4-0.2c-0.2,0-0.3-0.1-0.5-0.1l-1.3,4.5
				C222.2,140.3,222.4,140.4,222.5,140.4z"/>
		</g>
		<g>
			<path class="st59" d="M221.3,137.5L221.3,137.5c-0.1,0-0.1-0.1-0.1-0.2c0.4-1.1,1.6-1.6,2.7-1.3c0.1,0,0.1,0.1,0.1,0.2
				c0,0.1-0.1,0.1-0.2,0.1c-1-0.3-2,0.2-2.4,1.1C221.5,137.5,221.4,137.5,221.3,137.5z"/>
		</g>
		<polygon class="st72" points="272.3,356.6 146.2,356.6 127.7,144.1 290.8,144.1 		"/>
		<path class="st73" d="M273,344.3H145.5c-2.4,0-4.3-1.9-4.3-4.3l0,0c0-2.4,1.9-4.3,4.3-4.3H273c2.4,0,4.3,1.9,4.3,4.3c0,0,0,0,0,0
			l0,0C277.3,342.4,275.4,344.3,273,344.3z"/>
		<path class="st73" d="M292.6,148.5H125.8c-2.4,0-4.3-1.9-4.3-4.3c0,0,0,0,0,0l0,0c0-2.4,1.9-4.3,4.3-4.3c0,0,0,0,0,0h166.8
			c2.4,0,4.3,1.9,4.3,4.3l0,0C297,146.5,295,148.5,292.6,148.5z"/>
		<path class="st73" d="M125.3,164.4h167.8c2.1,0,3.8,1.7,3.8,3.8v1c0,2.1-1.7,3.8-3.8,3.8H125.3c-2.1,0-3.8-1.7-3.8-3.8v-1
			C121.5,166.1,123.2,164.4,125.3,164.4z"/>
		<g>
			<path class="st74" d="M213.5,189v134.3c0,2.1-1.7,3.8-3.8,3.8h-1c-2.1,0-3.8-1.7-3.8-3.8V189c0-2.1,1.7-3.8,3.8-3.8h1
				C211.8,185.2,213.5,186.9,213.5,189z"/>
		</g>
		<g>
			<path class="st74" d="M175.5,185.3l0.9,0c2.1-0.1,3.9,1.6,4,3.7l4.9,134.2c0.1,2.1-1.6,3.9-3.7,4l-0.9,0c-2.1,0.1-3.9-1.6-4-3.7
				l-4.9-134.2C171.7,187.2,173.3,185.4,175.5,185.3z"/>
		</g>
		<g>
			<path class="st74" d="M142.5,185.4l0.9-0.1c2.1-0.2,4,1.4,4.1,3.6l9.7,133.9c0.2,2.1-1.4,4-3.6,4.1l-0.9,0.1
				c-2.1,0.2-4-1.4-4.1-3.6l-9.7-133.9C138.8,187.4,140.4,185.6,142.5,185.4z"/>
		</g>
		<g>
			<path class="st74" d="M233.3,323.1l4.9-134.2c0.1-2.1,1.9-3.8,4-3.7l0.9,0c2.1,0.1,3.8,1.9,3.7,4l-4.9,134.2
				c-0.1,2.1-1.9,3.8-4,3.7l-0.9,0C234.9,327.1,233.3,325.3,233.3,323.1z"/>
		</g>
		<g>
			<path class="st74" d="M261.4,322.9l9.7-133.9c0.2-2.1,2-3.7,4.1-3.6l0.9,0.1c2.1,0.2,3.7,2,3.6,4.1L270,323.5
				c-0.2,2.1-2,3.7-4.1,3.6l-0.9-0.1C262.8,326.9,261.2,325,261.4,322.9z"/>
		</g>
		<path class="st75" d="M201.3,323.8c0.3-4.1-6-8.1-11.4-9.9l2.2,2.2l-0.8-0.1l1.2,0.9l-2.8,1.7l1.4,1.2l-1.4,1.4l3.8,2.2l-3.2,1.1
			l1,0.6l-0.4,0.5l1.2,2.4h0.6c0,0-1.8,1-2.1,1.1s0.7,0.8,0.7,0.8l-0.6,0.8h1.8C196.8,329.4,201,326.9,201.3,323.8z"/>
		<path class="st75" d="M190.5,331.5l-1.6,0.8l0.3-1c0,0-1.2-0.3-1-0.5s1.4-1.9,1.4-1.9l-0.6,0.2l-2.1-1.7l0.1-0.7l-1.1-0.1l2.4-2.4
			L184,324l0.6-1.8l-1.8-0.5l1.8-2.7l-1.4-0.3l0.8-0.3l-3-1c-1.4,0.2-2.7,0.5-4,0.9c-5,1.5-7.9,6.8-6.4,11.8c1.5,5,6.8,7.9,11.8,6.4
			c0.4-0.1,0.9-0.3,1.3-0.5C186.2,334.9,188.5,333.4,190.5,331.5z"/>
		<g>
			<path class="st41" d="M172.4,329.4c-1.9-4.6-0.3-7.8,2.5-10c-3.7,2.4-5.3,7.1-3.8,11.3c2,5,7.7,7.4,12.7,5.3c0,0,0,0,0,0
				c2.5-1.1,4.8-2.6,6.8-4.5C190.5,331.5,177.6,341.7,172.4,329.4z"/>
		</g>
		<g>
			<polygon class="st41" points="184,324 180.5,324 179.1,325.9 177.2,326.2 179.5,326.2 180.7,324.2 185.3,324.1 			"/>
		</g>
		<g>
			<polygon class="st41" points="179.5,326.2 182,327.2 182,328.4 181.1,329.7 182.5,328.2 182.5,326.8 179.7,325.9 			"/>
		</g>
		<path class="st76" d="M131.9,342.2c7.1-12.4,18-15.6,20-15.6s26.3,4.6,26.3,4.6s12.1-3.3,18.2-4.6s28.5-23.6,30.6-9.2
			s16.4,20.3,17.4,22s3.9,13.5,4.6,15.4s-139.7,0-139.7,0L131.9,342.2z"/>
		<g>
			<path class="st77" d="M196.4,326.5c-11.5,3.9-10.4,9.4-16,10.9s-15.2,5.3-15.2,5.3s10,2.2,12.4,0s9.7-1.1,11.4-1.8s2-8.3,4.7-8.7
				s19.3-5.7,19.3-5.7s-10.3,2.9-10.8,0S196.4,326.5,196.4,326.5z"/>
		</g>
		<g>
			<path class="st77" d="M249.1,354.7c-0.7-2-3.6-13.8-4.6-15.4c-0.3-0.5-2-1.4-4.1-2.9c3.4,2.3,4.5,7.2,3.3,9s2.4,4.8,2.4,4.8
				l-26.7,5.5C236.9,355.5,249.3,355.3,249.1,354.7z"/>
		</g>
		<g>
			<path class="st78" d="M152.5,328c-2.1-0.3-7.4,3.7-10.6,6.1s-0.9,2,0.8,2s1.3-2,0.6,1.9s7.5-2,12.9-1.2s13.1,0.7,8.2-2.6
				s3.6-2.7,3.6-2.7L152.5,328z"/>
		</g>
		<path class="st79" d="M160.4,355.1l21.9-1.3l-0.1,0.5c-0.2,0.7,0.3,1.4,0.9,1.5c0.7,0.2,1.4-0.3,1.5-0.9l0,0l3.8-16.5
			c0.2-0.7-0.3-1.4-0.9-1.5c0,0,0,0,0,0c-0.7-0.2-1.3,0.3-1.5,0.9c0,0,0,0,0,0l-0.1,0.5l-19.1-10.8c-1.4-0.8-2.9-1.4-4.4-1.7
			l-44.2-10.3c-1.5-0.4-3.1,0.6-3.4,2.1l-5.4,23.3c-0.4,1.5,0.6,3.1,2.1,3.4l44.2,10.3C157.2,355,158.8,355.2,160.4,355.1z"/>
		<path class="st80" d="M184.6,355l3.9-16.7l5.5,1.3c0.6,0.2,1,0.8,0.9,1.4l-3.4,14.4c-0.1,0.6-0.8,1-1.4,0.9c0,0,0,0,0,0L184.6,355
			z"/>
		<g>
			
				<rect x="190.7" y="338.3" transform="matrix(0.226 -0.9741 0.9741 0.226 -183.6575 449.8003)" class="st15" width="1" height="4.3"/>
		</g>
		<g>
			
				<rect x="190.1" y="341.1" transform="matrix(0.226 -0.9741 0.9741 0.226 -186.8285 451.3238)" class="st15" width="1" height="4.3"/>
		</g>
		<g>
			
				<rect x="189.5" y="343.8" transform="matrix(0.226 -0.9741 0.9741 0.226 -189.9818 452.8056)" class="st15" width="1" height="4.3"/>
		</g>
		<g>
			
				<rect x="188.8" y="346.5" transform="matrix(0.226 -0.9741 0.9741 0.226 -193.1492 454.314)" class="st15" width="1" height="4.3"/>
		</g>
		<g>
			
				<rect x="188.2" y="349.3" transform="matrix(0.226 -0.9741 0.9741 0.226 -196.3182 455.8201)" class="st15" width="1" height="4.3"/>
		</g>
		<g>
			
				<rect x="187.5" y="352" transform="matrix(0.226 -0.9741 0.9741 0.226 -199.491 457.3173)" class="st15" width="1" height="4.3"/>
		</g>
		
			<rect x="126.1" y="322.8" transform="matrix(0.2307 -0.973 0.973 0.2307 -215.8661 391.1449)" class="st80" width="26.7" height="18.7"/>
		
			<rect x="126.2" y="328.4" transform="matrix(0.226 -0.9741 0.9741 0.226 -217.211 393.1432)" class="st0" width="25.2" height="9.6"/>
		<g>
			<path class="st59" d="M111.6,331.1l-2.3,9.9c-0.4,1.5,0.6,3.1,2.1,3.4l44.2,10.3c1.5,0.4,3.1,0.5,4.7,0.4l21.9-1.3l3.6-15.5
				c0,0-2.7,10.5-5.8,12.5s-18.9,2.1-21,1.6s-41.6-7.4-46.2-10.7C110.9,340.4,110.9,335.8,111.6,331.1z"/>
		</g>
		<g>
			<path class="st81" d="M180.1,337.9c0,0-12.6-7.9-16.3-9.3s-5.3,15.9-6.1,16.8c3.5-10.2,4.9-12,7.6-12.2S180.1,337.9,180.1,337.9z
				"/>
		</g>
		<path class="st82" d="M113,352.6l-20.3-1.2c0,0,12.2-28.5,19.4-26.5s8-3.8,9.9-0.5s8.7,11.3,12.1,3.6s15.4-4.1,12.6,2.2
			s17.8,7.6,16.7,14s12.6,11.9,12.6,11.9h-55L113,352.6z"/>
		<path class="st82" d="M80.2,356.3h55.1c0,0-5.9-6.6-5.9-8.6s-10.5,1.3-10.5,1.3s0.8-10.2-2-9.8s-10.4-0.3-15.2,3
			s-17.4,10.9-17.4,10.9L80.2,356.3z"/>
		<g>
			<path class="st74" d="M116.8,339.1c-2.2,0.3-7.2,0-11.6,1.3c7.5,0.3,7,2.8,7.8,4s-1.8,3.5-2.1,4.8s5.5-3.3,4.9,0s3.1-0.3,3.1-0.3
				S119.6,338.8,116.8,339.1z"/>
			<path class="st74" d="M135.3,356.3c0,0-5.9-6.6-5.9-8.6s-10.5,1.3-10.5,1.3l8.4,0.1l-1.7,2.6l1.7,2l-8.1,2.5L135.3,356.3z"/>
		</g>
		<g>
			<path class="st74" d="M138.8,356.3h37.3c0,0-13.6-5.5-12.6-11.9s-19.4-7.7-16.7-14c1.6-3.7-1.9-6.5-5.8-6.6c5,2-5,6.6,0.9,10.2
				s14.3,4.4,9.7,5.3s1.9,4.2,1.9,8.6s-2.7-7.9-4.5-0.7S175.7,355.5,138.8,356.3z"/>
		</g>
		<g>
			<polygon class="st19" points="288.3,173 270.5,328.3 166.5,335.7 274.1,335.8 			"/>
		</g>
		<g class="st83">
			<path class="st84" d="M160.5,139.9c-10.2,8.6,5.8,6.8,2.4,15.7s6.3,6.6,6.3,8.9s12.1,2.3,10.4,8.6s-2.9,18.7,6.6,25
				s15.5-13.8,9.9-17.7s-7.5-5.1-8.5-8s13.1-6.5,3.4-7.9s-18.2-4.5-11.4-5s2.3-6.3-1.1-7.8s-2-3.2-2-3.2s23.4-3.5,21.8-8.6
				L160.5,139.9z"/>
		</g>
		<g class="st83">
			<path class="st84" d="M186.5,220.8c-2.1-6.6,3.1-9.5,5.2-6.9s-0.2,11.3-2.8,10S186.5,220.8,186.5,220.8z"/>
		</g>
		<path class="st85" d="M229.4,230c-3.8,3.8,0.5,7.2,2.1,6.7S230.8,228.6,229.4,230z"/>
		<path class="st85" d="M198.4,272.9c0.4-3,0.5-3.7,0-9.7s0.3-14.1,2.1-9.4s-0.6,14.9,0.2,19.1S196.4,286.3,198.4,272.9z"/>
		<path class="st86" d="M241,327.5l2.3,1.2c0,0-2.6,2.8-1.3,5.8c-1.1,0.6-1.5,2.1-0.9,3.2c0.2,0.4,0.6,0.7,1,0.9
			c-1.5,2.1-2.2,5.7,1.4,7.8c0,1,3.9,4.9,7.7,3.3c0.3,2.2,2.6,2.9,3.6,2c-0.1,2.3,7.7,6.5,10.6,0.4c2.2,3.2,3.8,0.2,3.1-1
			c3.4,5.5,7.7,1,5.8-2.2c5.3,4.9,6.7-0.9,6.7-0.9l1.7,0.8l-2.4,3.8l-6.9,6l-11.5,2.5l-10.4-2.6l-5.8-3.5l-4-5.7l-1.8-3.7l-1.8-6.1
			l0.3-7.1c0.4-1.1,0.7-2.3,0.9-3.4C239.2,328.6,241,327.5,241,327.5z"/>
		<path class="st30" d="M282.7,348.8c-6.7,10.3-19.9,14.2-30.8,8.6s-15.4-18.5-11.1-30l-1.8-0.9c-5.1,12.6-0.1,27,11.8,33.1
			s26.5,1.6,33.7-9.9L282.7,348.8z"/>
		<path class="st87" d="M283.7,349.3c-7,10.8-20.9,14.9-32.3,9.1s-16.2-19.4-11.6-31.5l-0.8-0.4c-5.1,12.6-0.1,27,11.8,33.1
			c11.9,6.1,26.6,1.6,33.7-9.9L283.7,349.3z"/>
		<path class="st32" d="M282.6,348.7c-6.7,10.2-19.8,14.1-30.6,8.6s-15.4-18.4-11-29.8l-0.8-0.4c-4.5,11.8,0.2,25.2,11.4,30.9
			s24.8,1.7,31.7-9L282.6,348.7z"/>
		<path class="st33" d="M253.7,352.4c3,4.3,10.2,5.3,11.7-0.4c-2.9,6.2-10.7,2-10.6-0.4c-0.9,0.9-3.3,0.3-3.6-2
			C251.3,349.7,250.7,352.2,253.7,352.4z"/>
		<path class="st33" d="M273.3,353.8c3.4-0.9,1.7-3.9,1.7-3.9s2.4,2.2,4.3,0.5l0,0c-1,0.7-2.7,0.7-5.1-1.5c2,3.3-2.4,7.8-5.8,2.2
			c0,0.1,0.1,0.1,0.1,0.2C269,352,270.4,354.6,273.3,353.8z"/>
		<path class="st34" d="M267.3,355.9c-0.3,0-0.6,2.2,0.4,2S267.5,355.9,267.3,355.9z"/>
		<path class="st35" d="M267.4,355.9c-0.3,0-0.6,2.2,0.4,2S267.6,355.8,267.4,355.9z"/>
		<path class="st34" d="M261.9,355.8c-0.3,0-1.1,2-0.1,2S262.1,355.8,261.9,355.8z"/>
		<path class="st35" d="M261.9,355.6c-0.3,0-1.1,2-0.1,2S262.2,355.7,261.9,355.6z"/>
		<path class="st34" d="M249.6,351.8c-0.2-0.2-2.2,0.6-1.5,1.3S249.8,352,249.6,351.8z"/>
		<path class="st35" d="M249.5,351.6c-0.2-0.2-2.2,0.6-1.5,1.3S249.7,351.8,249.5,351.6z"/>
		<path class="st34" d="M241.3,333.9c0-0.2-1.5-0.4-1.4,0.2S241.3,334.1,241.3,333.9z"/>
		<path class="st35" d="M241.3,333.8c0-0.2-1.5-0.4-1.4,0.2S241.3,334,241.3,333.8z"/>
		<path class="st34" d="M276.1,351.1c0.2-0.1,1.2,0.9,0.6,1.2S276,351.2,276.1,351.1z"/>
		<path class="st35" d="M276.2,351.1c0.2-0.1,1.2,0.9,0.6,1.2S276,351.1,276.2,351.1z"/>
		<path class="st21" d="M182,354.6c-0.1,0-1.3-0.4-1.4-0.4s0.4,0.3,0.2,0.3s-0.5,0-0.2,0.1s0.3-0.1,0.1,0.2s0.9,0.3,1.3,0.1
			S182,354.6,182,354.6z"/>
		<path class="st88" d="M195.7,350.8c-0.9,2.3-3.1,1.6-4.4,2s-2.1,0.8-3.2,0.6c-1.3-0.2-2.6-0.8-3.7-1.6c-1.1-1-2.1-2-1.4-3.8
			c-1.7,2.5-1.3,4.3-1.3,6.1s-0.4,6,0.9,8c1.4-2.3,1.7-2.8,3.2-3.7s3.3,0.4,5.6,0.6c1.6,0.1,3.1,0.9,4.2,2.1
			c0.7,0.3,1.3,0.9,1.7,1.6c-0.2-1.6-0.6-3.3-1.2-4.8l0.6-3.2c0,0-0.1-1.9-0.2-2.3C196.3,351.9,196,351.3,195.7,350.8z"/>
		<path class="st89" d="M184.1,359.9L184.1,359.9c-0.9,0.5-1.3,1.5-1.4,1.2s-0.5-2.3-0.2-2.5s0.5-0.1,0.5-0.1l-0.3-0.8
			c0,0-0.1-0.6-0.6-0.1c-0.2,0.2-0.4,0.5-0.5,0.8c0,1.3,0.3,2.7,0.9,3.8C183.1,361.3,183.6,360.6,184.1,359.9z"/>
		<path class="st89" d="M183.5,351.2c0.4,0.6,0,1.6,0.7,1.9c0.6,0.4,1.2,0.9,1.7,1.5c0,0-1.3-1-1.9-0.9c-0.4,0-0.8,0.4-0.7,0.8
			c0,0.1,0.1,0.3,0.1,0.4c0,0.4-0.9,0-1-0.3c-0.1-0.8-0.2-1.6-0.1-2.4c0.2-0.3,0.5-0.6,0.8-0.7C183.3,351.4,183.4,351.3,183.5,351.2
			z"/>
		<path class="st89" d="M196.5,356l-0.3-0.7l-1.5,1.3c-0.2,1.6,0,2.9,0.4,2.8s0.6-0.1,0.7,0.2c0.2,0.4,0.3,0.8,0.3,1.3
			c0.4,0.6,1.2,1.1,1.2,1.7c-0.2-1.6-0.6-3.3-1.2-4.8L196.5,356z"/>
		<path class="st89" d="M191.3,352.8c-1.2,0.3-2,0.8-3.1,0.6l0,0c1.7,0.8,1.1,0.3,2.5,0s1.3,0.1,2.7,0.3s1.2-1.3,3.1-1.4
			c-0.2-0.6-0.5-1.1-0.8-1.5C194.8,353.1,192.6,352.5,191.3,352.8z"/>
		<path class="st21" d="M195.9,355.9c0,0,5.4-0.5,6.4,4.2c-0.7,1-1.5,0.7-1.5,0.7S200.3,356.1,195.9,355.9z"/>
		<path class="st90" d="M198.4,356c0,0,2.1,1,4.3-1.5s0.1-6,3.1-5.7C202.5,347.5,197.6,350.9,198.4,356z"/>
		<g>
			<path class="st91" d="M203.7,349.3c-1.6,0.4-0.1,6.2-5.3,6.7C202.7,354.9,201.6,350.5,203.7,349.3z"/>
		</g>
		<path class="st92" d="M197.3,362.6c0.9-1.9,0.1-5-0.7-6.8c1.2-1.7,1.8-3.8,1.8-5.9l0,0c-0.2,1.6-0.9,0-2.1,0.4s-0.8,2.9-0.9,4
			c-0.4-0.6-0.7-0.2-0.7-0.2c0.3,0.6,0.4,1.2,0.4,1.9c-0.1,0.5-0.5-0.2-0.5,0.6s0.4,3.6,1,2c0.4,0.7,0.6,1.4,0.6,2.2
			C196.3,360.8,197.3,361.1,197.3,362.6z"/>
		<path class="st92" d="M182.6,362.1c-1-2.1-0.3-5.1,0.2-4s0.6-1.3,0.1-2.1s1-1,0.5-1.2s-0.5-1.5,0-1.6s-1-0.4-0.2-1.4
			s-0.1-1.3-0.5-1.2s-0.5-1.4,0.3-2.6l-0.2,0.2c-2.2,1.5-2.9,4.3-1.6,6.6c-1.5,2-1.3,4.7,0.4,6.5
			C181.6,361.3,182.6,362.1,182.6,362.1z"/>
		<path class="st89" d="M193.2,355.3c-1.2-0.6-2.1-0.8-2.9-0.3s-2.5-0.6-3-0.7c-0.2-0.1-0.4-0.1-0.7-0.2c0.3,0.1,0.6,0.3,0.8,0.6
			c0.3,0.5,1.3,0.5,1.7,0.7s0.5,0.2,1.3,0C191.2,355,192.2,355,193.2,355.3z"/>
		<path class="st89" d="M185,358.9c0.3-0.1,0.5-0.3,0.9-0.5c1.5-0.9,3.3,0.4,5.6,0.6c1.6,0.1,3.1,0.9,4.2,2.1h0.1
			c-0.6-1.3-3-3.6-3.7-3.5s-0.8,0.9-1.4,0.5s-0.8-0.8-1.1-0.3s-1.8-0.4-2.4-0.5S185.7,358.2,185,358.9z"/>
		<path class="st89" d="M189.9,356.8c0-0.1-1.1-0.4-1,0.1S189.9,357,189.9,356.8z"/>
		<path class="st35" d="M189.9,356.9c0-0.1-1.1-0.4-1,0.1S189.9,357,189.9,356.9z"/>
		<path class="st89" d="M189.2,356c0-0.2-1.2-0.6-1.2,0S189.2,356.2,189.2,356z"/>
		<path class="st35" d="M189.3,356c0-0.2-1.2-0.6-1.2,0S189.3,356.2,189.3,356z"/>
		<path class="st89" d="M190,354.7c0,0.1-1.2,0.2-1-0.3S190,354.5,190,354.7z"/>
		<path class="st35" d="M190.1,354.7c0,0.1-1.2,0.2-1-0.3S190.1,354.5,190.1,354.7z"/>
		<path class="st5" d="M183.8,340.8c0,0.1,0,0.2,0.1,0.3l0.1,0.3c0.2,0.7,0.4,1.4,0.6,2s0.4,1.3,0.5,2l0.1,0.4
			c-1.1,0-2.1,0.1-3.1,0.2c-0.1-0.4-0.2-0.8-0.4-1.1c-0.5-1.2-1.1-2.3-1.9-3.3l-0.2-0.2l-0.2-0.2c-0.1-0.2-0.3-0.3-0.4-0.5
			c-0.1-0.1-0.1-0.2-0.2-0.2l-0.2-0.2l-0.1-0.1l-0.1-0.1l-0.3-0.2c-0.3-0.3-0.7-0.5-1.1-0.7c0.1,0.4,0.3,0.8,0.4,1.2
			c0,0.1,0.1,0.2,0.1,0.3l0.1,0.3c0,0.1,0.1,0.2,0.1,0.3l0.1,0.3c0.3,0.7,0.5,1.5,0.7,2.2s0.4,1.4,0.6,2.1c0,0.2,0.1,0.4,0.1,0.6
			c-1.7,0.2-3.4,0.5-5,0.9c0.2-4,2.7-7.4-1-6.9c-6.4,0.8-12.6,8.5-12.5,11.5s12.6,6.2,15.6,4.9c2.6-1.1-0.5-2.8-1.7-6.2
			c1.6-0.4,3.3-0.7,5-0.9c0,0.1,0,0.3,0,0.4c0,0.7,0,1.4,0,2.1s-0.1,1.5-0.3,2.2c0,0.2-0.1,0.4-0.1,0.6s-0.1,0.4-0.1,0.6
			s0,0.2-0.1,0.3L179,356c0,0.2-0.1,0.4-0.1,0.6c1.4-1.1,2.4-2.5,2.9-4.1c0.3-0.8,0.5-1.7,0.6-2.5c0-0.3,0-0.6,0-0.8
			c1-0.1,2.1-0.2,3.2-0.4c0,0.2,0,0.3,0,0.5c0,0.6,0,1.3,0,2s-0.1,1.4-0.2,2.1c0,0.2,0,0.4-0.1,0.5l-0.1,0.5c0,0.1,0,0.2,0,0.3
			l-0.1,0.3c0,0.2-0.1,0.4-0.1,0.6c1.3-1,2.3-2.3,2.8-3.8c0.3-0.8,0.5-1.6,0.6-2.4c0-0.3,0-0.6,0-0.8c1.1-0.1,2.3-0.2,3.5-0.3
			c0,0.1,0,0.2,0,0.2c0,0.6,0,1.1,0,1.7s-0.1,1.2-0.1,1.8s-0.2,1.3-0.2,2c0.1-0.1,0.3-0.2,0.4-0.3l0.2-0.2l0.2-0.2l0.2-0.2
			c0.1-0.1,0.1-0.1,0.2-0.2c0.1-0.1,0.2-0.3,0.3-0.4c0,0,0.1-0.1,0.1-0.1c0,0,0.1-0.1,0.1-0.1l0.1-0.2c0.1-0.1,0.2-0.3,0.3-0.5
			l0.3-0.5l0.2-0.5c0.3-0.8,0.5-1.7,0.6-2.6c1.4-0.1,2.9-0.1,4.3-0.1c0,0.1,0,0.3,0,0.4c0,0.5-0.1,1-0.1,1.5s-0.1,1.1-0.3,1.6
			s-0.2,1.1-0.3,1.8l0.4-0.2l0.2-0.1l0.2-0.1l0.2-0.1c0.1,0,0.1-0.1,0.2-0.1l0.4-0.3l0.1-0.1l0.1-0.1c0.1-0.1,0.1-0.1,0.2-0.2
			c0.1-0.1,0.2-0.2,0.3-0.4c0.1-0.1,0.2-0.3,0.3-0.4s0.2-0.3,0.3-0.4c0.4-0.8,0.7-1.8,0.8-2.7c1.2,0,2.4,0,3.5,0.1v0.5
			c0,0.4-0.1,0.8-0.1,1.2s-0.1,0.8-0.3,1.3s-0.2,0.9-0.3,1.4c0.1,0,0.2-0.1,0.4-0.2l0.2-0.1l0.2-0.1l0.2-0.1c0.1,0,0.1-0.1,0.2-0.1
			c0.1-0.1,0.2-0.2,0.3-0.3l0.1-0.1l0.1-0.1l0.1-0.1c0.1-0.1,0.2-0.2,0.3-0.3c0.1-0.1,0.2-0.2,0.2-0.3l0.2-0.3
			c0.4-0.7,0.7-1.5,0.8-2.2c0.8,0,1.5,0.1,2.2,0.2c0.4,3.1,1.9,6,4.2,8.2c0,0,1.3-6.6-0.7-9.2c1.6-3.2,0.6-10-0.3-9.2
			c-1.9,2.4-3.1,5.4-3.3,8.5c-0.6-0.1-1.3-0.1-2.1-0.2c0-0.2-0.1-0.4-0.1-0.6c-0.1-0.5-0.3-1-0.5-1.5c-0.1-0.2-0.2-0.5-0.4-0.7
			c0,0-0.1-0.1-0.1-0.2l-0.1-0.1c-0.1-0.1-0.2-0.2-0.2-0.3c-0.2-0.2-0.3-0.4-0.5-0.5c-0.2-0.2-0.4-0.3-0.6-0.5
			c0,0.3,0.1,0.5,0.1,0.8l0.1,0.7c0,0.5,0.1,0.9,0.1,1.3s0.1,0.9,0.1,1.3c0,0,0,0.1,0,0.1c-1.1-0.1-2.3-0.2-3.5-0.2
			c-0.2-1.4-0.7-2.7-1.5-3.8l-0.1-0.2l-0.1-0.2c-0.1-0.1-0.2-0.3-0.3-0.4c-0.2-0.2-0.5-0.5-0.7-0.7c-0.3-0.2-0.5-0.4-0.8-0.5
			c0,0.3,0.1,0.6,0.1,1l0.1,0.9c0.1,0.6,0.2,1.1,0.2,1.7s0.1,1.1,0.2,1.6c0,0.2,0,0.3,0,0.5c-1.4-0.1-2.9-0.1-4.4-0.1
			c-0.1-0.4-0.2-0.9-0.4-1.3c-0.3-0.7-0.6-1.3-1-1.9c-0.2-0.3-0.4-0.6-0.6-0.8c-0.1-0.1-0.1-0.1-0.2-0.2l-0.2-0.2l-0.4-0.4
			c-0.3-0.2-0.5-0.5-0.8-0.6c-0.3-0.2-0.6-0.4-0.9-0.5c0.1,0.4,0.2,0.7,0.3,1l0.3,0.9c0.2,0.6,0.3,1.2,0.5,1.8s0.3,1.1,0.4,1.7
			l0.1,0.5c-1.2,0-2.3,0-3.5,0c-0.1-0.4-0.2-0.8-0.4-1.1c-0.3-0.7-0.6-1.5-1.1-2.1c-0.2-0.3-0.4-0.7-0.7-1c-0.1-0.1-0.1-0.1-0.2-0.2
			l-0.2-0.2c-0.1-0.1-0.3-0.3-0.4-0.4l-0.2-0.2l-0.2-0.2l-0.1-0.1l-0.1-0.1l-0.2-0.2c-0.3-0.2-0.6-0.4-1-0.6
			c0.1,0.4,0.2,0.8,0.4,1.1L183.8,340.8z M167.5,346.1c-0.1-0.9,0.5-1.6,1.4-1.7c0.9-0.1,1.6,0.5,1.7,1.4c0,0,0,0.1,0,0.1
			c0.1,0.9-0.6,1.6-1.4,1.7c0,0,0,0,0,0C168.3,347.7,167.5,347,167.5,346.1L167.5,346.1z"/>
		<g>
			<path class="st5" d="M201.1,347c0,1.6-1.6,5.4-2.5,6.2l0.1-0.1l0.2-0.1l0.2-0.1l0.2-0.1c0.1,0,0.1-0.1,0.2-0.1l0.4-0.3l0.1-0.1
				l0.1-0.1c0.1-0.1,0.1-0.1,0.2-0.2c0.1-0.1,0.2-0.2,0.3-0.4c0.1-0.1,0.2-0.3,0.3-0.4s0.2-0.3,0.3-0.4c0.4-0.8,0.7-1.8,0.8-2.7
				c1.2,0,2.4,0,3.5,0.1C205.4,348,202.8,347.3,201.1,347z"/>
		</g>
		<g>
			<path class="st5" d="M207.3,347.4c-0.1,2.5-2.6,5-2.6,5c0.1,0,0.2-0.1,0.4-0.2l0.2-0.1l0.2-0.1l0.2-0.1c0.1,0,0.1-0.1,0.2-0.1
				c0.1-0.1,0.2-0.2,0.3-0.3l0.1-0.1l0.1-0.1l0.1-0.1c0.1-0.1,0.2-0.2,0.3-0.3c0.1-0.1,0.2-0.2,0.2-0.3l0.2-0.3
				c0.4-0.7,0.7-1.5,0.8-2.2c0.8,0,1.5,0.1,2.2,0.2C209,347.8,208.2,347.5,207.3,347.4z"/>
		</g>
		<g>
			<path class="st5" d="M194,347.4c0.1,2-1.3,5.7-2.3,6.5l0.3-0.2l0.2-0.2l0.2-0.2l0.2-0.2c0.1-0.1,0.1-0.1,0.2-0.2
				c0.1-0.1,0.2-0.3,0.3-0.4c0,0,0.1-0.1,0.1-0.1c0,0,0.1-0.1,0.1-0.1l0.1-0.2c0.1-0.1,0.2-0.3,0.3-0.5l0.3-0.5l0.2-0.5
				c0.3-0.8,0.5-1.7,0.6-2.6c1.4-0.1,2.9-0.1,4.3-0.1C197.3,347.5,195.7,347.3,194,347.4z"/>
		</g>
		<g>
			<path class="st5" d="M187.8,347.8c-0.1,2.8-1.1,5.5-2.8,7.8c1.3-1,2.3-2.3,2.8-3.8c0.3-0.8,0.5-1.6,0.6-2.4c0-0.3,0-0.6,0-0.8
				c1.1-0.1,2.3-0.2,3.5-0.3C190.6,347.5,189.2,347.3,187.8,347.8z"/>
		</g>
		<g>
			<path class="st5" d="M181.8,352.5c0.3-0.8,0.5-1.7,0.6-2.5c0-0.3,0-0.6,0-0.8c1-0.1,2.1-0.2,3.2-0.4c-1.5-0.3-3-0.4-4.5-0.4
				c0.8,3.8-2.2,8.2-2.2,8.2C180.2,355.6,181.2,354.1,181.8,352.5z"/>
		</g>
		<g>
			<path class="st5" d="M174.6,350.4c1.6-0.4,3.3-0.7,5-0.9l-5.4-0.2c-0.3,0-1.5,2,0.5,3.7s1.1,4.5-7.1,2.8l0,0
				c3.4,1,7.2,1.4,8.6,0.8C178.8,355.5,175.8,353.8,174.6,350.4z"/>
		</g>
		<g>
			<path class="st5" d="M212.7,347.4c2.2,4.6,1.3,8.9,0.6,8.2c0.2,0.3,0.5,0.5,0.8,0.8c0,0,1.3-6.6-0.7-9.2c1.1-2.2,1-6,0.5-8
				C214,342.9,213.3,346.8,212.7,347.4z"/>
		</g>
		<path class="st42" d="M134.5,353.3c-0.6,1.1-1.3,1.9-2.1,1.4s-0.4-0.2-0.7-2.9c-0.5,1-1.1-0.8-1.1-0.8s-1.2,2.4,1.9,4.1
			c-6.1-0.7-9.7,0.7-9.9,0.8c-0.3,0.5,2.6,0,2.6,0s4.4-0.9,7.5,0.3c-4.2,0.9-3,2.4-3,2.4s1.1,0,1-0.5c-0.3-1.6,1.8-1.1,2.4-1.3
			s1,3,1,3l0.9-1.5c0.3-1.4,0.4-2.8,0.5-4.3C135.2,353.8,134.9,353.5,134.5,353.3z"/>
		<path class="st43" d="M134,359.9c0,0-0.3-2.5-0.8-2.9l0,0c0.1-0.4-0.1-0.8-0.5-1c-0.6-0.4,0.2,0,0.5-0.1s0.2-0.6-0.1-1.1l0,0
			c0.6-0.3,1.1-0.9,1.3-1.5c0.4,0.2,0.7,0.5,0.9,0.8c0,1.4-0.2,2.9-0.5,4.3L134,359.9z"/>
		<path class="st44" d="M135.9,362.9c-3.4-1.9-2.4-10.5,0.4-12.6s9.7-1.3,14.6,0.2s8.9,1.1,13.5,3.6c3.7,2,13,0,16.3,2.3
			c2.3,1.7-14.5,8-20.7,7C155.9,362.6,141.2,365.8,135.9,362.9z"/>
		<path class="st45" d="M140.5,352.1c-0.4,1-0.6,2.1-0.4,3.3C140.4,354.3,140.5,353.2,140.5,352.1z"/>
		<path class="st45" d="M150,350.7c-0.8,0.9-0.9,4.3-0.7,4.8S150.1,351.3,150,350.7z"/>
		<path class="st46" d="M140.9,352.9c-0.4,0.3-0.4,1.4-0.3,1.6S141,353.1,140.9,352.9z"/>
		<path class="st45" d="M143.4,356.9c-0.6,0.6-0.7,2.9-0.5,3.2S143.4,357.2,143.4,356.9z"/>
		<path class="st45" d="M158.2,355.2c-0.6,0.6-0.7,2.9-0.5,3.2S158.3,355.5,158.2,355.2z"/>
		<path class="st45" d="M170.2,356.1c-0.6,0.6-0.7,2.9-0.5,3.2S170.2,356.4,170.2,356.1z"/>
		<path class="st45" d="M171.6,356.5c-0.6,0.6-0.6,2.9-0.5,3.2S171.7,356.9,171.6,356.5z"/>
		<path class="st45" d="M163.8,360.8c0,0.9-0.1,1.7-0.3,2.6h-0.3C163.1,362.5,163.3,361.6,163.8,360.8z"/>
		<path class="st45" d="M136.1,350.7c-0.6,0.6-0.6,2.9-0.5,3.3S136.1,351,136.1,350.7z"/>
		<path class="st46" d="M143.9,357.7c-0.6,0.3-0.5,1.4-0.4,1.6S144,357.9,143.9,357.7z"/>
		<path class="st46" d="M164.7,360.9c-0.6,0.3-0.5,1.4-0.4,1.6S164.8,361,164.7,360.9z"/>
		<g>
			<path class="st47" d="M162.1,361.2c-0.3-0.1-0.7-0.2-0.9-0.5c-0.7,0.5-1.4,0.9-2.3,1.1c-1.3,0.2-2.9,0.6-3.1,0.6
				s-0.5,0.9,1.9,0.6s2.2,0.5,3.3,0.1S169,362.8,162.1,361.2z"/>
		</g>
		<path class="st45" d="M146,361c-0.3,0.9-0.4,1.8-0.2,2.6C145.9,362.8,146,361.9,146,361z"/>
		<path class="st45" d="M153,363.5h-0.2c0-0.4,0.1-0.8,0.3-1.2C153,362.7,153,363.1,153,363.5z"/>
		<path class="st45" d="M134.4,357c-0.3,0.9-0.4,1.8-0.2,2.6C134.3,358.8,134.4,357.9,134.4,357z"/>
		<g>
			<path class="st48" d="M137,355.4c1.2-2.5,2.3-6.5,0.3-5.2s-2.3,10.6-1.4,11.5s1.6,2.5,1.6-0.1S136.6,356.3,137,355.4z"/>
		</g>
		<path class="st49" d="M166.3,354.7c-0.1,0.4-0.6,0.3-0.2,0.7s-0.1,0.1,0.4,0.7c0.5,0.9,1.3,1.7,2.3,2.2c0.6,0.4,1-1,0.8-0.1
			s-0.1,1.1,0.7,1.1s0.5-0.6,2.1-0.4s0.8-0.6,1.5-0.2s1.4,2.1,2.2,0.9s1.1-1.8-0.3-2.2c-1.1-0.3-2.2-0.5-3.4-0.6
			C170.3,356.4,168.2,355.7,166.3,354.7z"/>
		<path class="st50" d="M166.7,354.8c-0.4,0.2-0.6,0-0.3,0.4s-0.2,0.5,0.1,0.7s0.4-0.3,0.4,0.1s-0.3,0.6,0.5,1s0.9,0.6,1.2,0.7
			s1.7,0.3,1.3,0.9s-0.1,0.6,0.3,0.6c0.8,0,1.5-0.2,2.2-0.5c0.9-0.3,1.8-0.8,1.8,0s1.4,1.1,1.7,0.6s2.2-0.5,2.2-0.5
			c-0.9-0.6-1.8-1.2-2.8-1.7c-0.4-0.1-4.8-1-4.8-1l-1.5-0.8L166.7,354.8z"/>
		<path class="st51" d="M166.7,354.8c-0.2,0.3-0.3,0.1-0.2,0.3s0,0.2,0,0.3s0.4,0.4,0.4,0.4s0.2-0.3,0.5,0.5s3,1.5,2.9,2.1
			s0.8-0.2,1.5-0.2s3.5-0.5,3.7,0.3s-0.1,1,0.5,0.5s2.3-0.2,2.3-0.2c0.4,0,0.8-0.1,1.1-0.4c0.3-0.4,0.6-0.1,0.8-0.4s1.3-1.2,0.9-1.4
			s-0.6-0.9-0.9-0.8s-1.4-0.8-2.1-0.8s-1.9-0.1-3.8-0.1S167,354.5,166.7,354.8z"/>
		<path class="st52" d="M170.7,355.4c-0.5,0,0,0.1-0.7,0.1s-0.4,0.4-1.1,0.1s-1.4-0.7-0.5,0s-0.1,1.4,0.6,1.1s0.5-0.8,1.1-0.5
			s1.1,0.5,1.3,0.1S171.5,355.4,170.7,355.4z"/>
		<path class="st53" d="M169.9,355.3c-0.7,0.1-1.6-0.1-1.2,0.2s0.8,0.4,0.6,0.6s0,0.7,0.4,0.3s-0.9-0.9,0.6-0.5s1.5-0.1,1.1-0.4
			s-1,0.5-1.1,0.1C170.3,355.4,170.1,355.2,169.9,355.3C169.9,355.2,169.9,355.3,169.9,355.3z"/>
		<path class="st53" d="M169.5,355.1c0.1,0,0.1-0.2,0-0.1S169.3,355.2,169.5,355.1L169.5,355.1z"/>
		<path class="st53" d="M170.1,355.2c-0.1,0-0.1,0-0.1,0S170.2,355,170.1,355.2C170.2,355.3,170.1,355.2,170.1,355.2z"/>
		<path class="st53" d="M170.4,355.4C170.3,355.3,170.3,355.3,170.4,355.4C170.3,355.5,170.4,355.5,170.4,355.4z"/>
		<path class="st53" d="M171.2,356.1c0,0-0.2-0.1-0.2,0S171.3,356.1,171.2,356.1z"/>
		<path class="st52" d="M179.9,355.7c-0.4-0.1-0.1,0.1-0.6-0.1s-0.5,0.3-0.9-0.1s-0.9-0.7-0.5,0s-0.6,1,0.1,0.9s0.8-0.6,1.1-0.3
			s0.7,0.6,1,0.3S180.5,355.8,179.9,355.7z"/>
		<path class="st53" d="M179.3,355.4c-0.6,0-1.2-0.4-1,0s0.5,0.5,0.2,0.6s-0.3,0.6,0.2,0.3s-0.3-0.9,0.7-0.3s1.3,0.2,1.1-0.2
			s-1,0.2-0.9-0.1S179.3,355.4,179.3,355.4z"/>
		<path class="st53" d="M178,355.3c0.1,0,0.2-0.2,0.1-0.1S177.8,355.3,178,355.3L178,355.3z"/>
		<path class="st53" d="M179.6,356.3C179.6,356.3,179.5,356.3,179.6,356.3C179.5,356.3,179.7,356.2,179.6,356.3
			C179.6,356.4,179.6,356.3,179.6,356.3z"/>
		<path class="st53" d="M179.6,355.7C179.6,355.6,179.6,355.6,179.6,355.7S179.6,355.8,179.6,355.7z"/>
		<path class="st53" d="M179.9,356.4c0,0-0.1-0.1-0.2,0S180,356.4,179.9,356.4z"/>
		<path class="st53" d="M170.5,358.2c0-0.2-0.2-0.3-0.1-0.1s-0.1,0.2,0,0.3S170.5,358.3,170.5,358.2z"/>
		<path class="st53" d="M170,357.9C169.9,357.9,169.8,357.9,170,357.9c0.2,0.1,0.1,0.2,0.2,0.2S170.1,357.9,170,357.9z"/>
		<path class="st49" d="M168.3,362.3c1-0.2,1.6-0.9,1.3-1.3s0.3-0.5-0.6-0.8s-1,0.5-1.1-0.2s0.7-0.8-1.4-1.8s-2-0.4-2.3,0.6
			s0.6,2,1.2,2.9S166.2,362.8,168.3,362.3z"/>
		<path class="st50" d="M168.3,362.4c0.9-0.2,1.4-0.8,1.2-1.2s0.3-0.5-0.6-0.7s-0.9,0.4-1.1-0.2s0.7-0.7-1.3-1.6s-1.9-0.4-2.2,0.5
			s0.6,1.9,1.1,2.7S166.3,362.9,168.3,362.4z"/>
		<path class="st51" d="M168.5,360.6c-1.9,0,0.6-0.1-1.7-1.7s-2.8,0.6-1.8,2s1.4,2.2,3,1.5S169.3,360.6,168.5,360.6z"/>
		<path class="st49" d="M144.6,354.8c-0.7-1.4-0.4,0.2-2.4,0.5s-0.9-0.5-1.7-1.2s0-2.6,1.9-3.9l1.5-1c2.4,0.2,4.8,0.7,7.1,1.4
			c1.2,1,2.2,2.2,2.1,3.9c-0.1,2.6,0.5,3.7-4.5,3.3S145.3,356.3,144.6,354.8z"/>
		<path class="st50" d="M144.4,354.2c-0.6-1.3-0.4,0.1-2.3,0.4s-0.8-0.5-1.6-1.1s0-2.5,1.8-3.6c0.4-0.3,0.8-0.5,1.1-0.8
			c2.4,0.2,4.7,0.6,7,1.3c1.1,0.8,1.8,2.1,1.8,3.4c-0.1,2.4,0.5,3.4-4.2,3S145.1,355.6,144.4,354.2z"/>
		<path class="st51" d="M142.9,354.2c-1.6,0.6-2.9-1.6,0.1-4.6c0.2-0.2,0.3-0.3,0.5-0.5c2,0.2,4,0.5,5.9,1l0.6,0.5
			c2.9,2.3,3.2,7.8-2.6,6.1S146.7,352.7,142.9,354.2z"/>
		<g>
			<path class="st54" d="M133.8,358L133.8,358c1.1,3.2,4.4,5.1,9.1,3.8s9.2-1.3,14.6-0.3s6,2.3,9.1,1s17.4-3.4,10.3-7.3l0,0
				c1.4,0,2.7,0.4,3.9,1.1c2.3,1.7-14.5,8-20.7,7c-4-0.7-18.7,2.5-24-0.4C134.5,362.1,133.8,360.2,133.8,358z"/>
		</g>
		<g>
			<path class="st54" d="M159.9,363.3c-2.2-0.4-7.6,0.4-12.9,0.7l0,0c6.2-2.7,14-2.5,17.5-1.9s13.6-3.2,15.8-5.9l0.1-0.1l0.2,0.2
				C183,358,166.1,364.4,159.9,363.3z"/>
		</g>
		<path class="st52" d="M149.1,350.4c-0.7-0.1-0.1,0.2-1-0.1s-0.9,0.4-1.5-0.2s-1.5-1.2-0.9,0s-0.9,1.6,0.2,1.5s1.3-1,1.8-0.4
			s1.1,1,1.7,0.5S150.1,350.5,149.1,350.4z"/>
		<path class="st53" d="M148.1,349.9c-1-0.1-2-0.6-1.7-0.1s0.8,0.8,0.3,1s-0.5,0.9,0.3,0.5s-0.5-1.4,1.1-0.5s2.1,0.3,1.8-0.3
			s-1.7,0.3-1.5-0.2S148.1,349.9,148.1,349.9z"/>
		<path class="st53" d="M146,349.6c0.2,0,0.4-0.3,0.1-0.2s-0.4,0.2-0.2,0.2L146,349.6z"/>
		<path class="st53" d="M148.6,350.4C148.7,350.1,148.6,350.2,148.6,350.4C148.6,350.4,148.6,350.5,148.6,350.4z"/>
		<path class="st93" d="M151.7,344.2c1.6-6.2,8.1-8.9,11.2-3.4s-4.3,8.5-4.3,8.5s5.1,2.8,2.7,6.7s-10.3,4.4-9.1-3.3
			c-4.4-1.5-20.1-3.3-20.1-3.3s-1.7,10-8.4,7.3s-1.2-9.7-1.2-9.7s-8.2-3.3-4.9-10.5s12.5-1.4,12.4,4.9
			C137.1,343.2,144.4,344.1,151.7,344.2z"/>
		<g>
			<path class="st4" d="M153.3,340.9c1.2-2.1,4.2-1.9,3.7-1.2s1,0.2,1.6,0.1s4.2,0.7,1.1,2.6s1.6,5.3-0.4,5.8s-4.9,0.1-4.8-1.3
				s-1,0.2-2-0.4S152.7,341.9,153.3,340.9z"/>
		</g>
		<g>
			<path class="st4" d="M151.2,344.4c1.5,0,1.2,0.6,2.3-0.8s2.2,0.7,1.2,2.1s2,2.3,1.2,3.3s-12-4.9-12-4.9L151.2,344.4z"/>
		</g>
		<g>
			<path class="st4" d="M132.8,349.1l-1.1-0.2c0,0,0.3,2.5-1.4,3.1s-1.6,1.1-2,1.9s-6.2,0.9-3.1-1.5c3.1-2.4,2.3-2.5,1-3.8
				s-1.2-4,1.5-4S132.8,349.1,132.8,349.1z"/>
		</g>
		<g>
			<path class="st5" d="M152.2,352.7c-0.9,6.2,4.1,7.1,7.3,5.1c-2.7,0.8-5.4-0.8-6.2-3.4c-0.2-0.8-0.3-1.7,0-2.6
				c-6.1-2-21.1-2.4-21.1-2.4S147.7,351.2,152.2,352.7z"/>
		</g>
		<g>
			<path class="st5" d="M118,336c-0.1,0.2-0.2,0.4-0.3,0.6c-3.3,7.1,4.9,10.5,4.9,10.5l1.4-2.2C124,344.9,115.6,343.9,118,336z"/>
		</g>
		<path class="st94" d="M147.6,105.7c-0.1,2.1-2.6,4.3-2.6,4.3s-2.3-2.5-2.2-4.6s1.3-3.2,2.6-3.1S147.7,103.6,147.6,105.7z"/>
		<path class="st95" d="M147.5,108.4c0.6,1.2-0.1,2.8-1.7,3.7s-3.3,0.5-4-0.7s0.1-2.8,1.7-3.7S146.9,107.2,147.5,108.4z"/>
		<path class="st96" d="M142.2,105.6c1.8,1.1,2.6,4.4,2.6,4.4s-3.3,0.9-5.1-0.3s-2.2-2.6-1.6-3.8S140.4,104.5,142.2,105.6z"/>
		<path class="st94" d="M170,74.8c0.1,2.5,3.1,5,3.1,5s2.6-2.9,2.5-5.3s-1.4-3.7-3-3.6S169.9,72.3,170,74.8z"/>
		
			<ellipse transform="matrix(0.4647 -0.8855 0.8855 0.4647 22.3386 196.1081)" class="st95" cx="173.4" cy="79.6" rx="2.8" ry="3.7"/>
		<path class="st96" d="M176.2,74.6c-2.1,1.3-3,5.1-3,5.1s3.8,1,5.9-0.3s2.6-3,1.8-4.3S178.4,73.4,176.2,74.6z"/>
		<path class="st94" d="M235.4,66.7c-1.6,0.6-4-0.5-4-0.5s1-2.5,2.6-3.1s2.7-0.2,3.1,0.8S237,66.1,235.4,66.7z"/>
		<ellipse transform="matrix(0.6082 -0.7938 0.7938 0.6082 38.2869 209.5614)" class="st95" cx="231.4" cy="66" rx="1.9" ry="2.5"/>
		<path class="st96" d="M233.7,62.8c-0.2,1.7-2.3,3.3-2.3,3.3s-1.7-2.1-1.5-3.7s1.1-2.5,2.2-2.4S233.9,61.1,233.7,62.8z"/>
		<path class="st2" d="M200.8,110.4c-8.7-9.1,5.6-17.7,12.1-31.2s-13.6-35-13.6-35s28,20.4,16.3,35.5S197.3,102,200.8,110.4z"/>
		<path class="st2" d="M243.9,107.5c-5.7-10.3,3.7-20,7.9-35.3s-8.9-39.5-8.9-39.5s18.3,23,10.7,40S241.6,98,243.9,107.5z"/>
		<path class="st2" d="M280.9,131.6c-8.7-9,5.6-17.6,12-31s-13.5-34.8-13.5-34.8S307.2,86,295.6,101S277.4,123.2,280.9,131.6z"/>
	</g>
</g>
</svg>
