<?xml version="1.0" encoding="utf-8"?>
<!-- Generator: Adobe Illustrator 25.2.3, SVG Export Plug-In . SVG Version: 6.00 Build 0)  -->
<svg version="1.1" id="Layer_1" xmlns="http://www.w3.org/2000/svg" xmlns:xlink="http://www.w3.org/1999/xlink" x="0px" y="0px"
	 viewBox="0 0 300 350" style="enable-background:new 0 0 300 350;" xml:space="preserve">
<style type="text/css">
	.st0{fill:#CBFDFF;}
	.st1{clip-path:url(#SVGID_2_);}
	.st2{clip-path:url(#SVGID_4_);}
	.st3{fill:#A025CE;stroke:#422714;stroke-miterlimit:10;}
	.st4{fill:#301108;}
	.st5{fill:#C975EF;stroke:#422714;stroke-miterlimit:10;}
	.st6{fill:#FBD3C7;stroke:#9E673F;stroke-miterlimit:10;}
	.st7{fill:#E8B7AC;}
	.st8{fill:#EABBB0;stroke:#D3A17F;stroke-miterlimit:10;}
	.st9{fill:#422714;stroke:#422714;stroke-miterlimit:10;}
	.st10{fill:#422714;}
	.st11{fill:#F49A90;}
	.st12{fill:#F58778;}
	.st13{fill:#9E673F;}
	.st14{fill:#C4947A;}
	.st15{fill:#EDC96E;stroke:#422714;stroke-miterlimit:10;}
	.st16{fill:#BFBFBF;stroke:#916161;stroke-miterlimit:10;}
	.st17{fill:#F4F4F4;}
	.st18{fill:#E0DEDE;stroke:#6D5A5A;stroke-miterlimit:10;}
	.st19{fill:#BFBFBF;}
	.st20{fill:#D3D3D3;}
	.st21{fill:#EC7734;}
	.st22{fill:#CC5A27;}
	.st23{fill:#FDB666;stroke:#DD954E;stroke-miterlimit:10;}
	.st24{fill:#EF9C48;}
	.st25{fill:#FDB666;}
	.st26{fill:#FFC183;}
	.st27{fill:#F2C366;}
	.st28{fill:#DDAD58;}
	.st29{fill:#FFD48F;}
	.st30{fill:#D66E41;}
	.st31{fill:#CE5E36;}
	.st32{fill:#EA8553;}
	.st33{fill:#FB9D69;}
	.st34{fill:#FFB692;}
	.st35{fill:#FC8D56;}
	.st36{fill:#F9F7E2;stroke:#D3A7A7;stroke-miterlimit:10;}
	.st37{fill:#F9F7E2;}
	.st38{fill:#E8E3BF;}
	.st39{fill:#F8AF2F;stroke:#D8901D;stroke-miterlimit:10;}
	.st40{fill:#FFC524;}
	.st41{fill:#FFDB27;}
	.st42{fill:#F2E8D1;}
	.st43{fill:#709B18;}
	.st44{fill:#562313;}
	.st45{fill:#F48F78;stroke:#C46455;stroke-miterlimit:10;}
	.st46{opacity:0.69;}
	.st47{fill:#FFFFFF;}
	.st48{fill:#A9B5B5;}
	.st49{fill:#BC796C;}
	.st50{fill:none;stroke:#2CA0CE;stroke-width:3;stroke-miterlimit:10;}
</style>
<path class="st0" d="M37.5,10h225c13.8,0,25,11.2,25,25v280c0,13.8-11.2,25-25,25h-225c-13.8,0-25-11.2-25-25V35
	C12.5,21.2,23.7,10,37.5,10z"/>
<g>
	<defs>
		<path id="SVGID_1_" d="M37.5,10h225c13.8,0,25,11.2,25,25v280c0,13.8-11.2,25-25,25h-225c-13.8,0-25-11.2-25-25V35
			C12.5,21.2,23.7,10,37.5,10z"/>
	</defs>
	<clipPath id="SVGID_2_">
		<use xlink:href="#SVGID_1_"  style="overflow:visible;"/>
	</clipPath>
	<g class="st1">
		<g>
			<defs>
				<rect id="SVGID_3_" x="41.1" y="18.3" width="225.1" height="354.4"/>
			</defs>
			<clipPath id="SVGID_4_">
				<use xlink:href="#SVGID_3_"  style="overflow:visible;"/>
			</clipPath>
			<g class="st2">
				<path class="st3" d="M117.2,304.4c0,0-36.7,43-30.7,68c3.1,12.8,70.6,32,141.3,9.7c0,0,2.3-32.2-27.8-69
					C200,313,160.8,325.8,117.2,304.4z"/>
				<path class="st4" d="M95.1,75.8c0,0-18,53.6-10.8,99.5c0,0,2,16.1,77.2,35.5c0,0,53.6-4.5,73-29.9c0,0-0.3-66.2-15.2-113.2
					c0,0-42.7-26.5-74.7-11.2S95.1,75.8,95.1,75.8z"/>
				<path class="st5" d="M137.5,200.6c0,0-12-10.3-20.3-2.2s-31,51.3-31,51.3l43.6,9.8l0.4-23L137.5,200.6z"/>
				<path class="st5" d="M187.9,205c0,0,15.7-8.1,23.6,5.1s10.9,45.4,18,54.8s-24.1,12.9-24.1,12.9l-27.5-9l-15.8-33.6L187.9,205z"
					/>
				<path class="st3" d="M201.6,315.5c-50.1,20-86.8-7.9-86.8-7.9c0.3-3,0.5-7.1,0.8-11.6c0.9-17.9,1.3-43.2,1.3-43.2
					c0-0.3,0.1-0.7,0.1-1c3.6-48.6,17.9-51.1,17.9-51.1s43.9-2.4,50.3,3s10.9,20.8,10.9,20.8c15,33,3.8,64.9,3.8,64.9l0.9,14.7
					L201.6,315.5z"/>
				<path class="st5" d="M147.2,197.5c0,0-18.3,1.4-18.2,9.8s15.1,17.4,21.6,12.6c3.8-2.7,6.5-6.6,7.9-11L147.2,197.5z"/>
				<path class="st5" d="M170.2,196.3c0,0,18.2,2.4,17.6,10.8s-16.1,16.5-22.3,11.4c-3.6-2.9-6.1-6.9-7.2-11.4L170.2,196.3z"/>
				<path class="st6" d="M160.3,209.5c-11.3,0.7-13-9-13-9c0.2-1.6,0.2-3.3,0-4.9c-0.4-4.1-2-5.9-2-5.9c12.9-11.1,26.1,0.7,26.1,0.7
					c-0.9,2-1.5,4.2-1.6,6.4c-0.1,1.5,0.1,2.9,0.6,4.3C170.4,201.2,171.5,208.8,160.3,209.5z"/>
				<path class="st7" d="M169.4,197.4c-9.2,3.7-16.3,1.3-21.3-1.1c-0.4-4.1-2-5.9-2-5.9c12.9-11.1,24.5,0.1,24.5,0.1
					C169.7,192.7,169.3,195,169.4,197.4z"/>
				<path class="st6" d="M210.8,153.1c-7.3,22.3-22.6,36.2-40.8,39.7c-8.8,1.6-17.8,0.9-26.2-2c-26.5-8.7-40.5-33.4-34.8-63.3
					c0.5-2.6-0.9-9.6-1-12.4c-0.9-18.7,3.4-29.8,10.6-38.1c13.3-15.3,43.9-23.9,62.6-17.8c13.5,4.4,20.7,21.2,26.1,37.9
					c1.9,5.8,2.2,18.2,3,24.5c0.6,4.5,1,1,1,5.5C211.3,136.8,213.4,145,210.8,153.1z"/>
				<path class="st8" d="M189.1,137.9c0,6.1-4.7,3.5-10.2,3.6s-10.1,5.3-10.3-2.5s5.4-16,10.9-16.2S189.2,130.1,189.1,137.9z"/>
				<path class="st9" d="M169.3,143.6c7.1-1.5,14.4-1.5,21.6-0.1C190.9,143.4,189.8,136.9,169.3,143.6z"/>
				<path class="st8" d="M126.6,138.4c1.2,6,5.1,3,10.3,2.5s10.6,4.1,9.2-3.5s-8.1-15.2-13.4-14.8S125,130.8,126.6,138.4z"/>
				<path class="st9" d="M146.4,142c-6.9-0.7-13.8-0.1-20.4,2C126,144,125.8,137.6,146.4,142z"/>
				<path class="st10" d="M150.2,152.8c1,0.9,2.1,1.6,3.3,2.1c1.2,0.5,2.4,0.8,3.7,0.8c1.2,0,2.4-0.5,3.3-1.3c0.9-0.9,1.7-2,2.3-3.1
					c-0.2,1.4-0.8,2.6-1.7,3.7c-0.5,0.5-1.1,1-1.7,1.3c-0.7,0.3-1.4,0.5-2.1,0.4C154.3,156.6,151.7,155.1,150.2,152.8z"/>
				<path class="st11" d="M146.2,166c0,0,9.8,8.3,18.2,5.6s11.9-13.4,11.9-13.4S167.2,172.8,146.2,166z"/>
				<path class="st12" d="M142.4,163.9c0,0,18.3,10.1,36-8.3C178.4,155.5,164.5,180.2,142.4,163.9z"/>
				<path class="st13" d="M176.6,155.3c0.3-0.4,0.7-0.6,1.1-0.7c0.5-0.1,1,0.1,1.3,0.4c0.4,0.3,0.7,0.8,0.7,1.3
					c0,0.5-0.2,0.9-0.5,1.2h-0.1c0-0.3,0-0.7-0.1-1c-0.1-0.3-0.3-0.6-0.5-0.7C177.9,155.3,177.3,155.2,176.6,155.3L176.6,155.3z"/>
				<path class="st10" d="M170.3,103.3c0,0,14,1.3,19.6,9.4c-1.6-6.1-6.6-10.7-12.9-11.7C171.9,100.1,170.3,103.3,170.3,103.3z"/>
				<path class="st10" d="M137.2,107.2c0,0-13.8,2.4-18.8,11c1.1-6.2,5.7-11.2,11.8-12.7C135.3,104.1,137.2,107.2,137.2,107.2z"/>
				<path class="st6" d="M110.4,128.8c0,0-9.7-15.8-16.3-5.7s3.5,31.7,11.3,33c0,0,3.6,1.5,4-4.5"/>
				<path class="st14" d="M95.8,129.8c0,0,10.3-1.8,12.5,11.7C106.2,135.9,101.6,131.6,95.8,129.8z"/>
				<path class="st14" d="M104.7,134.5c0,0-3.1,5.1,1.1,11.5C105.7,145.9,98.3,140.3,104.7,134.5z"/>
				<circle class="st15" cx="103.8" cy="161.1" r="5.2"/>
				<path class="st10" d="M105.1,151.5c-0.3,0-0.5,0.1-0.5,0.4c-0.1,0.2-0.1,0.5-0.1,0.8c0,0.6,0,1.1,0,1.7s0,1.1,0,1.7
					c0,0.6-0.1,1.2-0.2,1.8c-0.5-1.1-0.8-2.3-0.8-3.5c0-0.6,0.1-1.2,0.3-1.8c0.1-0.3,0.3-0.6,0.5-0.9c0.1-0.1,0.3-0.2,0.5-0.3
					C104.8,151.3,105,151.4,105.1,151.5z"/>
				<path class="st6" d="M209.4,129.5c0,0,9.8-15.7,16.3-5.5s-3.7,31.7-11.5,32.9c0,0-3.6,1.5-4-4.6"/>
				<path class="st14" d="M223.9,130.6c0,0-10.3-1.8-12.6,11.6C213.5,136.7,218.2,132.3,223.9,130.6z"/>
				<path class="st14" d="M215.1,135.2c0,0,3.1,5.1-1.1,11.4C214,146.7,221.4,141.1,215.1,135.2z"/>
				<circle class="st15" cx="215.8" cy="161.8" r="5.2"/>
				<path class="st10" d="M214.6,152.3c0.1-0.1,0.3-0.2,0.5-0.1c0.2,0,0.3,0.1,0.5,0.3c0.2,0.3,0.4,0.6,0.5,0.9
					c0.2,0.6,0.2,1.2,0.2,1.8c0,1.2-0.3,2.4-0.8,3.5c-0.1-0.6-0.2-1.2-0.2-1.8c0-0.6,0-1.2,0-1.7s0-1.1,0-1.7c0-0.3,0-0.5-0.1-0.8
					C215.1,152.4,214.8,152.2,214.6,152.3z"/>
				<path class="st4" d="M187.2,93.6c1.2-12.2-1.3-21.3-1.4-21.6c1.7,10.5-1.4,18.4-1.9,21.4c-9.4-0.5-18.8-0.5-28.2,0.1l-3.3-20.6
					v20.8c-8.4,0.7-16.8,1.9-25,3.7c-0.5-2.9-2.5-15.1-0.8-25.8l0.3-1.9c0-0.2,0.1-0.4,0.1-0.5c0.1-0.3,0.1-0.7,0.2-1s0-0.3,0.1-0.4
					c0.1-0.6,0.2-1,0.2-1.4c0-0.2,0-0.3,0.1-0.4c0,0,0-0.1,0-0.1l0,0l0,0l0,0c0,0.1,0,0.3-0.1,0.5s-0.1,0.4-0.1,0.6l-0.1,0.4
					c-0.1,0.5-0.2,1-0.3,1.5c0,0.1,0,0.2,0,0.3c-0.1,0.4-0.1,0.9-0.2,1.2c0,0.1,0,0.2,0,0.2s0,0.2,0,0.2s0,0.1,0,0.1v0.1
					c0,0-3.6,15.7-1.3,27.1c-25.2,5.7-38.4,14.5-38.4,14.5l-0.1,0.9c-1.2-59.2,42.8-100.2,90.7-82.5c67.1,24.8,39.6,87,39.6,87
					C209.4,105.8,199.9,94.5,187.2,93.6z"/>
				<path class="st6" d="M90.4,262.9c-5.1,5.9-5.8,14.3-1.8,21c6.8,11.9,18.8,7.6,20.4,2.1s-2.4-7.5-2.4-7.5s-3.6,5.8-9.9-0.1
					S96,264.5,96,264.5L90.4,262.9z"/>
				<path class="st6" d="M76.8,261.4c0,0-10.6,8.7-0.7,21.6s25.5,9.4,27.3,3.7s-3.8-8-3.8-8s-4.3,5.7-13.1-0.9s-2.1-14.4-2.1-14.4
					L76.8,261.4z"/>
				<path class="st6" d="M71.6,260.2c0,0-10.6,8.8-0.7,21.7s25.6,9.4,27.3,3.7s-3.8-8-3.8-8s-4.3,5.7-13.1-0.9s-2.1-14.4-2.1-14.4
					L71.6,260.2z"/>
				<path class="st6" d="M63.6,260.9c0,0-10.6,8.7-0.7,21.7s25.5,9.4,27.3,3.7s-3.8-8-3.8-8s-4.3,5.7-13.1-0.9S71.2,263,71.2,263
					L63.6,260.9z"/>
				<path class="st6" d="M76,256c0,0-1.7-6.6-12-5.6s-15.1,5.9-12.1,10.1s14.3,1.4,14.3,1.4L76,256z"/>
				<path class="st6" d="M201.2,290c0,0-3.1,2.6-0.4,5s8.4,0.1,8.4,0.1c2.5,1.5,5.6,2,8.4,1.3c0,0,4.3,1.6,7.7-0.4
					c0,0,2.4,3.6,9.6-0.9s7.2-17.3,3.3-21.8l-2.6-0.4c1.4,0.1,2.8,0.4,4.1,0.8c1,0.5,7,1.8,6.4-4.2s-11.2-9.8-18.2-9.4
					s-9.8,2.3-9.8,2.3l-6.1,21.7L201.2,290z"/>
				<path class="st6" d="M225.5,296.2c0,0-2.2-1.6,0-5.9s4.9-8.7,4.9-12.6"/>
				<path class="st6" d="M218.5,296.5c0,0-2.4-0.2-1.5-4.6s6.4-4.5,9.4-10.3"/>
				<path class="st6" d="M209.8,295.2c0,0-3.9-2.1-0.3-6.6"/>
				<path class="st16" d="M67.1,271.2c2.3,2.2,13.6,11.7,35.7,15.5c15.7,2.7,28,4.1,37.3,4.9c0.3,0.1,4.9,0.4,7.3,0.6s7,0.4,7.3,0.4
					c9.3,0.4,21.8,0.6,37.7-0.1c22.4-1,34.8-9,37.4-10.9c-13,7.2-45,10.8-82.2,8.5S79.1,280,67.1,271.2z"/>
				<path class="st17" d="M147.7,288.1c-47.4-3-85.3-14.2-85.7-25.3c0,0.2,0,0.3,0,0.5c-0.2,2.6,1.7,5.3,5.2,7.9
					c12,8.8,43.3,16.5,80.5,18.8s69.2-1.3,82.2-8.5c3.8-2.1,6-4.5,6.1-7.2c0-0.2,0-0.3,0-0.5C234.2,284.8,195.1,291.1,147.7,288.1z"
					/>
				<path class="st18" d="M147.7,288.1c47.4,3,86.5-3.3,88.2-14.2c0-0.2,0-0.3,0.1-0.5c0.7-11.2-37.7-22.7-85.7-25.7
					s-87.6,3.5-88.3,14.7c0,0.1,0,0.3,0,0.5C62.4,273.9,100.3,285.1,147.7,288.1z M149.6,258.8l3.1,0.2c32.2,2.3,58.3,8.4,63,14.4
					c0.5,0.6,0.8,1.3,0.8,2.1c-0.4,6.9-31.1,10.5-68.4,8.1s-67.2-9.9-66.8-16.7S112.2,256.5,149.6,258.8z"/>
				<path class="st19" d="M148,283.7c37.4,2.4,68-1.3,68.4-8.1c0-0.8-0.3-1.5-0.8-2.1c-1.8,5.2-28.6,7.7-61.2,5.7
					c-33.5-2.1-60.3-8.3-60-13.8c0.3-5.3,26.1-8.1,58.2-6.3l-3.1-0.2c-37.3-2.4-68,1.3-68.4,8.1S110.7,281.3,148,283.7z"/>
				<path class="st20" d="M94.5,265.3c-0.3,5.5,26.5,11.7,60,13.8c32.6,2.1,59.4-0.5,61.2-5.7c-4.7-6-30.8-12.1-63-14.4
					C120.6,257.3,94.8,260,94.5,265.3z"/>
				<path class="st21" d="M152.6,280.4c0.3,0.1,0.5,0.2,0.8,0.3c-0.3-0.1-0.7-0.2-1-0.4L152.6,280.4z"/>
				<path class="st21" d="M168.2,279.2c1.2,0.2,2.4,0.5,3.6,0.8c0.1,0.1,0.3,0.1,0.4,0.2c-0.1-0.1-0.2-0.2-0.3-0.3
					c-0.2-0.3-0.4-0.6-0.5-1c-1.2,0.2-2.5,0.1-3.7-0.2c-0.8-0.2-1.5-0.7-1.9-1.5v-0.1l-0.3,0.1c0.1,0.4,0.1,0.7-0.1,1.1
					c-0.1,0.2-0.2,0.4-0.4,0.6h0.1C166.2,278.9,167.2,279,168.2,279.2z"/>
				<path class="st21" d="M175.2,275.2c0.2,0.3,0.4,0.6,0.5,0.9l0.3,0.2c1,0.2,1.9,0.6,2.6,1.3c0.6,0.6,0.9,1.5,0.6,2.4
					c0.5-0.3,1.1-0.6,1.8-0.7l-0.2-0.2c-0.6-0.6-0.8-1.5-0.5-2.2l-0.6-0.2l-0.7-0.3c-0.5-0.1-0.9-0.3-1.4-0.5l-0.3-0.1
					c-0.3-0.1-0.6-0.2-0.8-0.3L175.2,275.2L175.2,275.2z"/>
				<path class="st21" d="M192.1,280.5c-0.3-0.1-0.7-0.2-1-0.2H191l0.1-0.1c0.9-0.7,1.1-2,0.5-2.9c0,0,0,0-0.1-0.1
					c-0.9-1-2.1-1.6-3.4-1.8c-0.4-0.1-0.8-0.2-1.2-0.3c0-0.1,0.1-0.3,0.1-0.4c0.1-1.2-1-2.3-2.2-2.9c-1.1-0.6-2.3-0.9-3.6-0.9
					c-1.2-0.1-2.3,0-3.5,0.1l0.1,0.1c0.4,0.4,0.6,0.9,0.7,1.4l0.6,0.2c0.1-0.2,0.3-0.4,0.5-0.5c1.6-0.7,3.4-0.8,5-0.2l0,0
					c0.3,0.1,0.5,0.1,0.7,0.2c0.6,0.1,1,0.7,0.9,1.3c-0.1,0.3-0.4,0.6-0.7,0.8c-0.2,0.2-0.4,0.4-0.7,0.5c-0.7,0.3-1.5,0.5-2.3,0.4
					c0,0.1,0,0.2,0,0.2c1.2-0.1,2.4,0,3.5,0.2c1.3,0.3,3,0.6,3.9,1.6c0.2,0.1,0.4,0.3,0.5,0.5c0.5,0.7,0.3,1.7-0.4,2.2
					c0.9,0.5,1.5,1.2,1.4,2.1v0.1c0.6,0.2,1.2,0.6,1.7,1c0.6,0.6,0.6,1.5,0.1,2.1c-0.3,0.3-0.7,0.5-1.1,0.5l-2.6,0.1
					c-0.7,0-1.3,0-2,0c-1.6-0.1-3.3-0.8-3.9-2.1l0,0L183,284c-1.5,1.3-3.4,2-5.4,1.8c-0.8-0.1-1.7-0.4-2.3-0.9
					c-0.5-0.5-0.7-1.2-0.5-1.9c0.1-0.6,0.2-1.1,0.5-1.6c-0.9,0-1.8-0.3-2.6-0.8c0.3,0.2,0.4,0.5,0.6,0.9c0.1,0.4,0.1,0.8-0.1,1.2
					h0.1c0.6,0.3,0.9,1,0.8,1.6c-0.2,0.7-0.8,1.1-1.4,1.2c-0.6,0-1.2,0-1.8,0l-1.1,0.2c-0.9,0.1-1.8,0.2-2.8,0.2
					c-1,0.1-2-0.2-2.8-0.6c-0.4-0.2-0.7-0.6-1-0.9c-0.5,0-1.1-0.1-1.6-0.1c-1-0.2-2.3-0.4-2.8-1.3c-0.4-0.8-0.3-1.7,0.2-2.4
					c-1,0.4-1.9,0.9-2.9,1.3c0.9,0.2,1.7,0.6,2,1.5c0.2,0.8-0.2,1.6-1,1.8c-0.5,0.2-1,0.2-1.4,0.2H155h-0.6c-0.6,0.1-1.1,0-1.7-0.1
					c-1-0.3-2-1-1.9-1.9c0-0.1,0.1-0.3,0.1-0.4c-0.2,0.2-0.5,0.4-0.8,0.6c-1.5,0.8-3.2,1-4.8,0.6c-0.7-0.2-1.4-0.5-2-1
					c-0.3-0.2-0.5-0.5-0.7-0.8l0,0c-0.6-0.3-0.9-0.9-0.9-1.5c0.1-0.6,0.5-1.1,1.1-1.4c1.1-0.5,2.3-0.7,3.4-0.6
					c0.8,0.1,1.7,0.3,2.5,0.6c0.3,0,0.6,0,0.9,0c0.2-0.1,0.5-0.2,0.7-0.2c0.2-0.7,0.8-1.2,1.6-1.3c0.1-0.2,0.3-0.5,0.5-0.6
					c0.9-0.8,2.1-1.3,3.3-1.4h0.1c0-0.1,0-0.3-0.1-0.4c0-0.8,0.8-1.3,1.6-1.5c0.5-0.1,1-0.2,1.5-0.3l-0.3-0.2
					c-0.6,0-1.1-0.1-1.7-0.3c-1-0.2-2-0.7-2.9-1.3c-0.9-0.7-1.1-2-0.4-3c0.4-0.4,0.9-0.6,1.4-0.7c0.3-0.1,0.6-0.1,0.9,0
					c0.6-0.1,1.2-0.1,1.8-0.1c0.9,0,1.9,0.1,2.8,0.3c0.6,0.1,1.9,0.5,2,0.5c1,0,1.8,0.7,1.9,1.6c0.6,0.1,1.1,0.5,1.4,0.9
					c0.4,0.5,0.3,1.2-0.1,1.6c-0.2,0.2-0.4,0.4-0.7,0.5l0,0l0,0c0.2,0.1,0.3,0.2,0.5,0.3c0.4,0.2,0.7,0.7,0.8,1.1c0,0.1,0,0.3,0,0.4
					h0.1c0.3-0.7,1-1.1,1.8-1c1.5,0,3,0.1,4.5,0.5l-0.4-0.6c-0.2,0.1-0.4,0.1-0.6,0.1c-1-0.1-2-0.2-3-0.5c-0.7-0.1-1.2-0.8-1.1-1.5
					c0-0.1,0.1-0.3,0.1-0.4c0-0.1,0.1-0.1,0.2-0.2c0.2-0.4,0.5-0.6,0.8-0.8c0.7-0.2,1.4-0.2,2.1,0c0.2-0.4,0.5-0.7,0.9-0.8
					c1.3-0.5,2.6-0.5,3.9-0.2c-0.9-0.4-1.9-0.5-2.8-0.5c-0.5,0-0.9,0.1-1.4,0.2c-0.6,0.2-1.1,0.4-1.7,0.6c-1,0.2-2.1,0.1-3-0.3
					c-2.2-0.8-4.2-1.9-6.6-2.4c-1.3-0.3-2.6-0.4-3.9-0.5c-1-0.1-2,0-3,0.3c-1.1,0.5-2.4,1.6-2,2.6c0.2,0.4,0.3,1.2,0.6,1.6
					c-0.6,0.1-0.2-0.3-0.8-0.3s-1.1,0.1-1.7,0.1c-0.6,0-1.2,0-1.9,0c-1.2,0.1-1.9,0.9-2.9,1.3c-0.9,0.4-1.9,0.6-2.9,0.7
					c-1.2,0.1-2.4,0.2-3.6,0.3s-2.6,0.2-3.9,0.4c-2.1,0.2-4.5,0.4-6.1,1.6c-0.3,0.2-0.6,0.5-0.8,0.8c-0.6,0.4-1,1.1-1,1.9
					c0.1,1.1,0.9,1.7,2.1,2.1c0.4,0.1,0.8,0.3,1.1,0.6c0.3,0.3,0.5,0.7,0.7,1.1c0.7,0.9,1.8,1.5,2.9,1.7c1.3,0.3,2.6,0.5,3.9,0.5
					c1.3,0,2.6-0.1,3.9-0.4c0.3-0.1,0.5-0.1,0.8-0.1c0.3,0.1,0.5,0.2,0.7,0.3c0.5,0.3,1,0.5,1.6,0.7c2.3,0.8,4.7,0.9,7,0.3
					c0.4,0.6,0.9,1,1.6,1.4c1.1,0.5,2.3,0.7,3.5,0.6c1.2-0.2,2.5-0.4,3.7-0.8c0.5-0.1,1-0.2,1.5-0.1c0.6,0.1,1.2,0.3,1.8,0.5
					c2.4,0.7,4.9,0.9,7.3,0.7c1.2-0.1,2.4-0.3,3.6-0.6c0.5-0.2,1-0.3,1.6-0.3c0.5,0,1,0.1,1.5,0.3c1,0.3,2.1,0.5,3.1,0.4
					c0.5-0.1,1-0.3,1.4-0.5c0.3-0.2,0.7-0.4,1.1-0.6c0.1,0,0.2,0,0.3,0c0.2,0.1,0.3,0.2,0.5,0.3c0.5,0.3,1.1,0.5,1.7,0.7
					c1.2,0.3,2.4,0.4,3.6,0.3c2,0,4.5-0.1,5.7-1.7C195.8,283.5,194.4,281.2,192.1,280.5z M141.5,281.5c-0.5,0.9-1.4,1.4-2.3,1.5
					c-0.5,0.1-1,0.1-1.5,0c-0.9,0.1-1.8,0-2.7-0.1c-0.7-0.1-1.5-0.3-2.2-0.6c-0.5-0.3-1-0.7-1.3-1.2c-0.2-0.3-0.4-0.7-0.4-1.2
					c-0.3-0.1-0.5-0.4-0.6-0.6c-0.4-0.6-0.2-1.5,0.4-1.9c0.3-0.2,0.7-0.4,1.1-0.5c1.3-0.5,2.8-0.7,4.2-0.6c1.5,0,3.9,0.4,4.3,1.8
					c0.1,0.2,0.1,0.5,0,0.7C141.4,279.3,141.9,280.4,141.5,281.5L141.5,281.5z"/>
				<path class="st21" d="M186,281.8h0.4c0,0,0-0.1,0-0.1L186,281.8L186,281.8z"/>
				<path class="st22" d="M150.1,282.6H150c-0.5,0.6-1.3,0.9-2.1,0.9c-1.4,0.1-2.7,0.1-4.1-0.2c-0.2,0-0.4-0.1-0.5-0.2
					c0.6,0.5,1.3,0.8,2,1c1.6,0.5,3.4,0.3,4.8-0.6c0.3-0.2,0.5-0.4,0.8-0.6c0.1-0.1,0.1-0.3,0.2-0.4
					C150.8,282.5,150.5,282.6,150.1,282.6z"/>
				<path class="st22" d="M186.4,281.7c-0.1-0.3-0.2-0.6-0.1-0.9h-0.6c0.2,0.3,0.3,0.6,0.3,1L186.4,281.7z"/>
				<path class="st22" d="M151,279.4h0.2c0.2,0.1,0.5,0.2,0.6,0.3c-0.3-0.6-0.2-1.2,0.1-1.7c-0.7,0.1-1.4,0.6-1.6,1.3
					C150.6,279.3,150.8,279.3,151,279.4z"/>
				<path class="st22" d="M180.2,277c0-0.1,0.1-0.2,0.1-0.2c-0.5,0-1-0.1-1.4-0.3l0.7,0.3L180.2,277z"/>
				<path class="st22" d="M175.7,276.1c-0.1-0.3-0.3-0.6-0.5-0.9l-0.1-0.1l1.3,0.5c-0.3-0.2-0.7-0.3-1-0.5c-0.4-0.2-0.6-0.5-0.8-0.9
					h-0.5c-0.5,0-1-0.1-1.6-0.2c-0.1,0.1-0.2,0.1-0.4,0.1l0.4,0.6c0.2,0.1,0.5,0.1,0.7,0.2C174.2,275.2,175,275.6,175.7,276.1z"/>
				<path class="st22" d="M176.9,284.7c-0.6-0.2-1-0.7-1.2-1.3c-0.2-1,0.5-1.8,1.4-2.3c0.5-0.3,1.1-0.6,1.7-0.8l0.2-0.2l0.2-0.1
					c0.3-0.8,0-1.8-0.6-2.4c-0.7-0.7-1.6-1.1-2.6-1.3c0.3,0.3,0.6,0.7,0.7,1.1c0.6,0.2,1,0.7,1.2,1.3c0.4,1-0.8,2.1-2,1.9
					s-3.2-0.6-3.5-1.8c-0.7-0.1-1.5-0.2-2.2-0.4c-0.7-0.2-1.4-0.5-2.1-0.8c-0.7-0.3-1.2-0.7-1.6-1.3c-0.2-0.3-0.2-0.8-0.1-1.1h-0.1
					c-0.1,0.3-0.3,0.6-0.6,0.8c-0.6,0.4-1.3,0.7-2,0.9c0.2,0.6,0,1.2-0.5,1.6c-0.9,0.7-2.2,0.7-3.4,1s-2.2,0.8-3.4,1.1
					c-1,0.2-2.1,0.2-3.1,0c-0.3,0-0.6-0.1-0.8-0.3l-0.2-0.1l0,0c-0.1,0-0.2-0.1-0.3-0.2l0,0c0.4,0.4,0.5,0.9,0.3,1.4
					c0.5-0.1,1.1-0.1,1.6,0.1c0.4,0,0.7,0,1.1,0.1c0.3,0,0.5,0.1,0.8,0.1c1-0.4,1.9-0.9,2.9-1.3c-0.5,0.7-0.6,1.6-0.2,2.4
					c0.5,0.9,1.8,1.1,2.8,1.3c0.5,0.1,1.1,0.1,1.6,0.1c0.3,0.4,0.6,0.7,1,0.9c0.9,0.5,1.9,0.7,2.8,0.6c0.9,0,1.8-0.1,2.8-0.2
					l1.1-0.2c-0.9,0-1.8,0-2.8-0.1c-1.4-0.2-3.6-0.4-3.9-1.8c-0.7,0.1-1.3,0-2,0c-0.8,0-1.5-0.4-2-1c-0.3-0.6-0.2-1.2,0.2-1.7
					c0.7-0.7,1.5-1.1,2.4-1.3c0.8-0.3,1.7-0.4,2.5-0.5c0.2-0.2,0.3-0.4,0.4-0.6c0.1-0.4,0.2-0.7,0.1-1.1l0.3-0.1v0.1
					c0.4,0.8,1.1,1.3,1.9,1.5c1.2,0.3,2.5,0.4,3.7,0.2c0.1,0.4,0.2,0.7,0.5,1c0.1,0.1,0.2,0.2,0.3,0.3c0.1,0.1,0.3,0.2,0.4,0.3
					c0.8,0.5,1.7,0.7,2.6,0.8c-0.3,0.5-0.5,1-0.5,1.6c-0.1,0.7,0.1,1.4,0.5,1.9c0.7,0.5,1.5,0.9,2.3,0.9c2,0.2,3.9-0.5,5.4-1.8
					c-1.3,0.3-2.7,0.6-4,0.8C178.2,285,177.5,284.9,176.9,284.7z"/>
				<path class="st22" d="M189.6,279.9l0.3,0.2c0.7-0.5,0.9-1.5,0.4-2.2c-0.1-0.2-0.3-0.4-0.5-0.5c0.2,0.2,0.3,0.5,0.4,0.7
					C190.5,278.8,190.2,279.5,189.6,279.9z"/>
				<path class="st22" d="M158,272.9c-0.1-0.1-0.1-0.3-0.2-0.4c-0.8-0.1-1.7-0.4-2.4-0.8c-0.6-0.3-1-0.8-1.2-1.4
					c-0.1-0.7,0.1-1.4,0.7-1.8c0.3-0.2,0.7-0.4,1.1-0.5c-0.3-0.1-0.6-0.1-0.9,0c-0.6,0.1-1.1,0.4-1.5,0.8c-0.7,1-0.5,2.3,0.4,3
					c0.8,0.7,1.8,1.1,2.9,1.3c0.6,0.1,1.1,0.2,1.7,0.3C158.3,273.3,158.1,273.1,158,272.9z"/>
				<path class="st22" d="M134.6,281.9c-1-0.1-1.8-0.6-2.4-1.4c0-0.1-0.1-0.2-0.1-0.3c-0.3-0.1-0.7-0.2-1-0.3c0,0.4,0.1,0.8,0.4,1.2
					c0.3,0.5,0.8,0.9,1.3,1.2c0.7,0.3,1.4,0.5,2.2,0.6c0.9,0.1,1.8,0.2,2.7,0.1c-0.5-0.1-1-0.1-1.4-0.2
					C135.7,282.7,135.1,282.4,134.6,281.9z"/>
				<path class="st23" d="M180.6,276.8h-0.2c0,0.1-0.1,0.1-0.1,0.2c-0.3,0.8-0.1,1.7,0.5,2.2l0.2,0.2c1-0.2,2-0.1,3,0.3
					c0.7,0.2,1.3,0.6,1.7,1.2h0.6l0,0c0.1-0.6,0.6-1.1,1.3-1.2c0.6-0.1,1.2,0,1.8,0.2l0.3,0.1c0.6-0.4,0.8-1.2,0.6-1.9
					c-0.1-0.3-0.2-0.5-0.4-0.7c-0.8-1-2.5-1.3-3.9-1.6c-1.1-0.3-2.3-0.3-3.5-0.2c0,0.1,0,0.2-0.1,0.2
					C182.1,276.5,181.3,276.9,180.6,276.8z M184.3,276.3L184.3,276.3L184.3,276.3c0.6-0.2,1.2-0.2,1.8-0.1c0.9,0.1,3,0.8,2.3,1.8
					c-0.3,0.4-0.7,0.4-1.2,0.3c-0.3,0.1-0.7,0.1-1,0c-0.6,0-1.3-0.2-1.8-0.5l-0.2,0C183.4,277.5,183.6,276.5,184.3,276.3z"/>
				<path class="st23" d="M190.5,283.5c-0.5,0.3-1.1,0.4-1.7,0.2c-0.3-0.1-0.6-0.2-0.9-0.4l-0.1,0c-0.6-0.3-1.1-0.8-1.4-1.5H186v0.2
					c-0.1,0.7-0.6,1.3-1.2,1.6c-0.4,0.2-0.8,0.3-1.2,0.3c0.6,1.3,2.3,2,3.9,2.1c0.7,0,1.3,0,2,0l2.6-0.1c0.8,0,1.5-0.7,1.5-1.5
					c0-0.4-0.2-0.8-0.5-1.1c-0.5-0.4-1.1-0.8-1.7-1C191.2,282.8,190.9,283.2,190.5,283.5z"/>
				<path class="st24" d="M172.1,283.4c-0.6,0.2-1.3,0.2-2,0.1c-0.9-0.1-1.8-0.3-2.7-0.4h-0.7h-0.1h-0.3l-0.4,0.1h-0.1l-0.6,0.2
					c-0.4,0.1-0.8,0.2-1.2,0.2c0.3,1.4,2.5,1.6,3.9,1.8c0.9,0.1,1.8,0.1,2.8,0.1c0.6,0,1.2,0,1.8,0c0.7-0.1,1.3-0.5,1.4-1.2
					c0.1-0.7-0.2-1.3-0.8-1.6H173C172.7,283,172.4,283.2,172.1,283.4z"/>
				<path class="st24" d="M159.5,275.7h0.5c0.7,0,1.5,0,2.2,0.1c0.7,0.1,1.2,0.6,1.5,1.2c0.7-0.2,1.4-0.5,2-0.9
					c0.3-0.2,0.5-0.5,0.6-0.8c0-0.1,0-0.3,0-0.4c-0.1-0.5-0.4-0.9-0.8-1.1c-0.2-0.1-0.3-0.2-0.5-0.3c-0.2,0.2-0.4,0.3-0.6,0.4
					c-1.3,0.4-2.7,0.5-4,0.3c-0.6,0-1.1-0.2-1.6-0.4c-0.5,0.1-1,0.2-1.5,0.3c-0.8,0.2-1.5,0.7-1.6,1.5c0,0.1,0,0.3,0.1,0.4
					C157,275.6,158.3,275.5,159.5,275.7z"/>
				<path class="st23" d="M154.2,270.3c0.2,0.6,0.6,1.1,1.2,1.4c0.7,0.4,1.6,0.7,2.4,0.8c-0.2-1,0.5-1.9,1.4-2.1c0.1,0,0.1,0,0.2,0
					c0.6-0.1,1.2-0.2,1.9-0.2c0.8-0.1,1.6-0.1,2.3,0c0.3,0,0.5,0.1,0.8,0.2c-0.1-0.9-0.9-1.6-1.9-1.6c-0.1,0-1.4-0.4-2-0.5
					c-0.9-0.2-1.9-0.3-2.8-0.3c-0.6-0.1-1.2,0-1.7,0.1c-0.4,0.1-0.8,0.3-1.1,0.5C154.3,268.9,154,269.6,154.2,270.3z M156.2,268.6
					c0.6-0.3,1.2-0.4,1.8-0.4h0.5l0,0c0.6,0,1.2,0.1,1.7,0.2c0.4,0.1,0.7,0.4,0.6,0.8c-0.1,0.3-0.3,0.6-0.7,0.6
					c-0.7,0-1.4,0.1-2.2,0.1c-0.7,0.1-1.4,0-2-0.4C155.6,269.2,155.8,268.8,156.2,268.6L156.2,268.6z"/>
				<path class="st24" d="M171.6,269.9c-0.4,0.1-0.7,0.4-0.9,0.8l0.3,0.1c0.6,0.2,1.1,0.4,1.6,0.7c0.6,0.3,0.9,1,0.7,1.7
					c-0.1,0.3-0.4,0.6-0.7,0.8c0.5,0.1,1,0.2,1.6,0.2h0.5c-0.1-0.2-0.1-0.4,0-0.7c0.2-0.6,0.7-1.1,1.4-1.2c0.8-0.1,1.7,0,2.5,0.2
					c0-0.5-0.3-1.1-0.7-1.4l-0.1-0.1c-0.6-0.6-1.4-1-2.2-1.2C174.2,269.4,172.9,269.4,171.6,269.9z M176.1,270.3
					c0.1,0,0.3,0.1,0.4,0.2l0,0c0.2,0.2,0.3,0.5,0.1,0.8c-0.2,0.2-0.4,0.3-0.6,0.3c-1,0.3-3.2-0.4-2.6-1.4
					C173.9,269.3,175.3,269.8,176.1,270.3L176.1,270.3z"/>
				<path class="st24" d="M176.4,278.4c-0.2,0.2-0.5,0.2-0.8,0.2c-0.4,0.2-0.8,0.3-1.3,0.4c-0.7,0-1.3,0-2-0.1
					c0.4,1.2,2.3,1.7,3.5,1.8s2.4-0.9,2-1.9c-0.2-0.6-0.7-1.1-1.2-1.3v0.2C176.7,278,176.7,278.3,176.4,278.4z"/>
				<path class="st24" d="M150.8,281.2c0.2,0.5,0,1.1-0.5,1.3c0,0-0.1,0-0.1,0c0.4,0,0.7,0,1-0.1c0.3-0.5,0.8-0.8,1.3-0.9l0,0
					c0.2-0.5,0-1-0.3-1.4l0,0c-0.1-0.1-0.3-0.2-0.4-0.4c-0.2-0.2-0.4-0.3-0.6-0.3h-0.2c-0.2-0.1-0.4-0.1-0.6-0.1
					c-0.3,0-0.5,0.1-0.7,0.2c-0.3,0-0.6,0-0.9,0c0.3,0.1,0.6,0.3,0.8,0.5C150,280.3,150.4,280.7,150.8,281.2z"/>
				<path class="st23" d="M140.4,278.8c-0.1,0.3-0.3,0.6-0.6,0.8c-0.2,0.1-0.3,0.2-0.5,0.2c-0.6,0.2,0.4-0.1-0.2,0H139l-0.2,0.2
					c-0.9,0.7-2.2,0.4-3.3,0.4c-0.8,0-1.6-0.1-2.4-0.1c-0.3,0-0.7,0-1-0.1c0,0.1,0.1,0.2,0.1,0.3c0.6,0.8,1.4,1.3,2.4,1.4
					c0.5,0.4,1,0.7,1.7,0.9c0.5,0.1,0.9,0.2,1.4,0.2c0.5,0.1,1,0.1,1.5,0c1-0.1,1.8-0.7,2.3-1.5
					C141.8,280.4,141.3,279.3,140.4,278.8z"/>
				<path class="st24" d="M182.5,275.3c0.8,0.1,1.6-0.1,2.3-0.4c0.3-0.1,0.5-0.3,0.7-0.5c0.3-0.2,0.6-0.5,0.7-0.8
					c0.1-0.6-0.3-1.2-0.9-1.3c-0.2-0.1-0.5-0.2-0.7-0.2l0,0c-1.6-0.6-3.4-0.6-5,0.2c-0.2,0.1-0.4,0.3-0.5,0.5
					c0.9,0.3,1.8,0.8,2.6,1.3C182.2,274.2,182.5,274.7,182.5,275.3z M181.8,272.2c0.4-0.5,1.2-0.4,1.7-0.3s1.4,0.5,1.1,1.1
					c-0.2,0.3-0.5,0.5-0.8,0.4c-0.4,0-0.8-0.1-1.2-0.2C182,273.4,181.4,272.7,181.8,272.2L181.8,272.2z"/>
				<path class="st23" d="M151.8,279.7c0.1,0.2,0.2,0.3,0.4,0.4c0.1,0.1,0.2,0.1,0.3,0.2l0,0c0.3,0.2,0.7,0.3,1,0.4
					c1,0.2,2.1,0.2,3.1,0c1.2-0.3,2.2-0.9,3.4-1.1s2.5-0.2,3.4-1c0.5-0.4,0.7-1,0.5-1.6c-0.3-0.6-0.8-1-1.5-1.2
					c-0.7-0.1-1.5-0.2-2.2-0.1h-0.5c-1.2-0.2-2.5-0.1-3.7,0.2h-0.1c-1.2,0.2-2.4,0.7-3.3,1.4c-0.2,0.2-0.4,0.4-0.5,0.6
					C151.6,278.5,151.5,279.2,151.8,279.7z M152.8,278.1c0.1-0.6,1-0.9,1.6-1.1s1.3-0.4,1.9-0.5c1.2-0.4,2.5-0.5,3.8-0.3
					c0.2,0,0.3,0.1,0.3,0.3c0,0.1,0,0.2-0.1,0.2c-0.1,0.2-0.2,0.3-0.4,0.3c-1.3,0.3-2.5,0.7-3.7,1.2c-0.6,0.3-1.1,0.6-1.8,0.7
					c-0.4,0.1-0.8,0.1-1.1,0C153,278.9,152.8,278.5,152.8,278.1L152.8,278.1z"/>
				<path class="st23" d="M147.9,283.5c0.8,0,1.5-0.3,2.1-0.9h0.1c0.5-0.1,0.8-0.7,0.7-1.2c0,0,0-0.1,0-0.1
					c-0.3-0.5-0.7-0.9-1.2-1.2c-0.2-0.2-0.5-0.4-0.8-0.5c-0.8-0.3-1.6-0.6-2.5-0.6c-1.2-0.1-2.4,0.1-3.4,0.6c-0.6,0.2-1,0.7-1.1,1.4
					c0,0.6,0.3,1.2,0.9,1.5l0,0c0.1,0.3,0.4,0.6,0.7,0.8c0.2,0.1,0.3,0.2,0.5,0.2C145.2,283.6,146.6,283.6,147.9,283.5z
					 M143.4,281.2c-0.6-0.1-0.9-0.6-0.6-1s1.2-0.6,1.8-0.7c0.6-0.1,1.3-0.1,1.9,0c0.8,0.1,2.5,0.3,2.5,1.2c0,0.2-0.3,0.3-0.5,0.3
					s-0.4-0.1-0.5-0.2c-0.2,0-0.3-0.1-0.5-0.1c-0.4,0-0.9,0-1.3,0c-0.5,0-0.9,0.1-1.4,0.2C144.4,281.1,143.9,281.2,143.4,281.2
					L143.4,281.2z"/>
				<path class="st23" d="M171.8,280c-1.2-0.4-2.4-0.6-3.6-0.8c-1-0.2-2-0.3-3-0.3h-0.1c-0.9,0.1-1.7,0.2-2.5,0.5
					c-0.9,0.2-1.7,0.7-2.4,1.3c-0.4,0.5-0.5,1.2-0.2,1.7c0.5,0.6,1.2,1,2,1c0.7,0.1,1.3,0.1,2,0c0.4,0,0.8-0.1,1.2-0.2l0.6-0.2h0.1
					l0.4-0.1h0.3h0.1h0.7c0.9,0.1,1.8,0.3,2.7,0.4c0.7,0.1,1.4,0.1,2-0.1c0.4-0.1,0.7-0.4,0.9-0.8c0.2-0.4,0.3-0.8,0.1-1.2
					c-0.1-0.3-0.3-0.6-0.6-0.9c-0.1-0.1-0.3-0.2-0.4-0.3C172,280.2,171.9,280.1,171.8,280z M161.4,280.9c0.1-0.6,1.1-1,1.7-1.2
					c0.7-0.2,1.5-0.4,2.2-0.4c0.8,0,1.6,0.1,2.4,0.2c0.6,0.1,1.2,0.3,1.8,0.5l0,0c0.8-0.1,1.1,1,0.3,1.1c-1.6,0.2-3.3-0.2-4.9,0
					c-0.4,0.1-0.7,0.2-1.1,0.3c-0.3,0.1-0.6,0.3-1,0.4C162.2,282.1,161.3,281.7,161.4,280.9L161.4,280.9z"/>
				<path class="st25" d="M166.5,276.4c0.4,0.6,1,1.1,1.6,1.3c0.7,0.3,1.4,0.6,2.1,0.8c0.7,0.2,1.4,0.3,2.2,0.4
					c0.7,0.1,1.3,0.1,2,0.1c0.5,0,0.9-0.1,1.3-0.4c0.3,0,0.6,0,0.8-0.2c0.2-0.2,0.3-0.5,0.3-0.7v-0.2c-0.1-0.4-0.4-0.8-0.7-1.1
					l-0.3-0.2c-0.7-0.5-1.5-0.9-2.4-1.2c-0.2-0.1-0.5-0.1-0.7-0.2c-1.5-0.3-3-0.5-4.5-0.5c-0.7-0.1-1.4,0.3-1.8,1
					C166.3,275.6,166.3,276,166.5,276.4z M169.1,274.8c1,0,2.1,0.2,3.1,0.5c0.5,0.1,1.1,0.3,1.6,0.4c0.5,0.1,0.9,0.3,1.3,0.6
					c0.1,0.1,0.1,0.2,0.1,0.3c0.1,0.5-0.4,0.9-1.1,0.8c-0.7-0.1-1.4-0.3-2.1-0.5l-2.1-0.6c-0.6-0.2-1.4-0.3-1.6-0.9
					C168.3,275.1,168.7,274.8,169.1,274.8L169.1,274.8z"/>
				<path class="st25" d="M164.4,273.8c0.2-0.1,0.4-0.2,0.6-0.4l0,0l0,0c0.3-0.1,0.5-0.3,0.7-0.5c0.4-0.5,0.5-1.1,0.1-1.6
					c-0.4-0.5-0.9-0.8-1.4-0.9c-0.3-0.1-0.5-0.1-0.8-0.2c-0.8-0.1-1.6-0.1-2.3,0c-0.6,0-1.3,0.1-1.9,0.2c-1,0.1-1.7,0.9-1.6,1.9
					c0,0.1,0,0.1,0,0.2c0,0.1,0.1,0.3,0.2,0.4c0.1,0.2,0.3,0.4,0.5,0.6l0.3,0.2c0.5,0.2,1.1,0.4,1.6,0.4
					C161.7,274.2,163.1,274.2,164.4,273.8z M161.7,270.6c0.5,0,1-0.1,1.6-0.1c0.5-0.1,1,0.1,1.3,0.4c0.1,0.2,0,0.4-0.2,0.5
					c0,0-0.1,0-0.1,0c-0.4,0.1-0.7,0.1-1.1,0.2c-0.4,0.1-0.8,0.1-1.2,0.2c-0.7-0.1-1.5-0.1-2.3,0c-0.4,0.1-0.9-0.2-0.7-0.5
					C159.5,270.4,160.7,270.6,161.7,270.6z"/>
				<path class="st25" d="M173.3,273.2c0.2-0.7-0.1-1.4-0.7-1.7c-0.5-0.3-1.1-0.6-1.6-0.7l-0.3-0.1c-0.7-0.2-1.4-0.2-2.1,0
					c-0.4,0.2-0.7,0.4-0.8,0.8c-0.1,0.1-0.1,0.1-0.2,0.2c-0.3,0.7-0.1,1.5,0.6,1.8c0.1,0.1,0.3,0.1,0.4,0.1c1,0.3,2,0.4,3,0.5
					c0.2,0,0.4,0,0.6-0.1c0.1,0,0.3-0.1,0.4-0.1C172.9,273.8,173.2,273.5,173.3,273.2z M169.5,271.8c-0.1-0.2,0-0.4,0.1-0.5
					c0.4-0.3,1.2-0.1,1.6,0s1.1,0.4,1.2,0.8c0.1,0.2-0.1,0.4-0.3,0.4c-0.5,0-0.9-0.1-1.4-0.3C170.3,272.1,169.8,272.1,169.5,271.8
					L169.5,271.8z"/>
				<path class="st23" d="M186,282v-0.2c0-0.4-0.1-0.7-0.3-1c-0.4-0.6-1-1-1.7-1.2c-1-0.3-2-0.4-3-0.3c-0.6,0.1-1.2,0.3-1.8,0.7
					l-0.2,0.1l-0.2,0.2c-0.6,0.2-1.1,0.5-1.7,0.8c-0.9,0.5-1.7,1.3-1.4,2.3c0.2,0.6,0.6,1.1,1.2,1.3c0.6,0.2,1.3,0.3,1.9,0.1
					c1.4-0.2,2.7-0.5,4-0.8l0.6-0.1l0,0c0.4-0.1,0.8-0.2,1.2-0.3C185.4,283.3,185.9,282.7,186,282z M180.4,282.1
					c-0.8,0.8-1.8,1.2-2.9,1.3c-0.3,0-0.6-0.3-0.6-0.6c0-0.2,0.1-0.3,0.2-0.4c0.8-0.7,1.7-1.3,2.6-1.8c0.5-0.2,1-0.4,1.5-0.5
					c0.3-0.1,0.7-0.2,1-0.1c0.3-0.1,0.6,0,0.9,0.2c0.2,0.2,0.2,0.5,0,0.8c0,0-0.1,0.1-0.1,0.1c-0.4,0.3-0.9,0.4-1.5,0.5
					C181.2,281.6,180.7,281.8,180.4,282.1L180.4,282.1z"/>
				<path class="st23" d="M154.1,281.6c-0.5-0.1-1.1-0.1-1.6-0.1l0,0c-0.6,0.1-1.1,0.4-1.3,0.9c-0.1,0.1-0.1,0.3-0.2,0.4
					c0,0.1-0.1,0.3-0.1,0.4c-0.2,1,0.9,1.6,1.9,1.9c0.6,0.1,1.1,0.2,1.7,0.1h0.6h0.6c0.5,0.1,1,0,1.4-0.2c0.8-0.3,1.2-1,1-1.8
					c-0.3-0.9-1.1-1.3-2-1.5c-0.2-0.1-0.5-0.1-0.8-0.1C154.9,281.6,154.5,281.6,154.1,281.6z M156.7,282.8c0.1,0.1,0.1,0.2,0.1,0.3
					c0,0.2-0.2,0.3-0.4,0.4c-0.4,0-0.7-0.1-1.1-0.1s-1,0.1-1.5,0c-0.8,0-0.9-1-0.1-1.1c0.5,0,0.9,0,1.4,0h0.1
					C155.8,282.2,156.3,282.4,156.7,282.8z"/>
				<path class="st23" d="M133.1,280.4c0.8,0,1.6,0.1,2.4,0.1c1.1,0,2.4,0.3,3.3-0.4l0.2-0.2h0.1c0.6-0.2-0.4,0.1,0.2,0
					c0.2,0,0.4-0.1,0.5-0.2c0.3-0.2,0.5-0.5,0.6-0.8c0.1-0.2,0.1-0.5,0-0.7c-0.4-1.4-2.8-1.8-4.3-1.8c-1.4-0.1-2.8,0.2-4.2,0.6
					c-0.4,0.1-0.7,0.3-1.1,0.5c-0.6,0.4-0.8,1.3-0.4,1.9c0.2,0.2,0.4,0.5,0.6,0.6c0.3,0.2,0.7,0.3,1,0.3
					C132.4,280.4,132.8,280.4,133.1,280.4z M131.6,277.9c0-1.2,2.1-1.3,3.1-1.3c0.6,0,1.2,0.1,1.8,0.2c0.8,0,1.7,0.2,2.4,0.5
					c0.6,0.3,0.1,0.9-0.5,0.8c-1.3-0.3-2.6-0.2-3.9,0.2c-0.6,0.2-1.1,0.4-1.8,0.6c-0.6,0.1-1.2-0.3-1.3-0.9
					C131.6,278,131.6,278,131.6,277.9L131.6,277.9z"/>
				<path class="st23" d="M176,272.3c-0.7,0.1-1.2,0.5-1.4,1.2c-0.1,0.2-0.1,0.4,0,0.7c0.1,0.4,0.4,0.7,0.8,0.9
					c0.3,0.2,0.7,0.4,1,0.5c0.3,0.1,0.5,0.2,0.8,0.3l0.3,0.1c0.4,0.2,0.9,0.4,1.4,0.5c0.5,0.1,0.9,0.2,1.4,0.3h0.2
					c0.8,0.1,1.5-0.3,1.9-1c0.1-0.2,0.1-0.3,0.1-0.5c0-0.6-0.3-1.1-0.8-1.3c-0.8-0.5-1.7-1-2.6-1.3l-0.6-0.2
					C177.7,272.3,176.8,272.2,176,272.3z M177.6,272.6c0.6,0.2,1.2,0.4,1.8,0.7c0.4,0.2,1.2,0.5,1.4,0.9c0.1,0.1,0,0.2-0.1,0.3
					c0,0-0.1,0-0.1,0c-0.3,0-0.5,0-0.8-0.1c-0.3-0.1-0.6-0.1-0.9-0.2l-1.8-0.3c-0.4-0.1-0.6-0.4-0.5-0.8c0,0,0-0.1,0-0.1
					C176.8,272.7,177.3,272.5,177.6,272.6L177.6,272.6z"/>
				<path class="st26" d="M153.4,279c0.4,0.1,0.8,0.1,1.1,0c0.6-0.2,1.2-0.4,1.8-0.7c1.2-0.6,2.5-1,3.8-1.3c0.2,0,0.3-0.2,0.4-0.3
					c0.1-0.1,0.2-0.3,0.1-0.4c-0.1-0.1-0.1-0.1-0.2-0.1c-1.3-0.2-2.6-0.1-3.8,0.3c-0.6,0.2-1.3,0.3-1.9,0.5s-1.5,0.5-1.6,1.1
					C152.8,278.5,153,278.9,153.4,279z"/>
				<path class="st26" d="M162.9,281.9c0.4-0.1,0.7-0.3,1-0.4c0.4-0.1,0.7-0.2,1.1-0.3c1.6-0.3,3.2,0.2,4.9,0
					c0.8-0.1,0.5-1.2-0.3-1.1l0,0c-0.6-0.2-1.2-0.4-1.8-0.5c-0.8-0.1-1.6-0.2-2.4-0.2c-0.8,0-1.5,0.2-2.2,0.4
					c-0.6,0.2-1.6,0.5-1.7,1.2S162.2,282.1,162.9,281.9z"/>
				<path class="st26" d="M183.1,281c0.2-0.2,0.3-0.5,0.1-0.8c0,0,0-0.1-0.1-0.1c-0.2-0.2-0.6-0.3-0.9-0.2c-0.3,0-0.7,0-1,0.1
					c-0.5,0.1-1,0.3-1.5,0.5c-1,0.5-1.8,1-2.6,1.8c-0.2,0.2-0.2,0.6,0,0.8c0.1,0.1,0.3,0.2,0.4,0.2c1.1-0.1,2.1-0.5,2.9-1.3
					c0.4-0.3,0.8-0.5,1.2-0.6C182.1,281.4,182.6,281.3,183.1,281z"/>
				<path class="st23" d="M170,276.3l2.1,0.6c0.7,0.2,1.4,0.4,2.1,0.5c0.6,0.1,1.1-0.3,1.1-0.8c0-0.1,0-0.2-0.1-0.3
					c-0.4-0.3-0.8-0.5-1.3-0.6c-0.5-0.2-1-0.3-1.6-0.4c-1-0.3-2-0.4-3.1-0.5c-0.4,0-0.8,0.3-0.7,0.7
					C168.6,276,169.4,276.1,170,276.3z"/>
				<path class="st26" d="M176.7,273c-0.1,0.3,0.1,0.7,0.4,0.8c0,0,0,0,0.1,0l1.8,0.3c0.3,0.1,0.6,0.1,0.9,0.2
					c0.2,0.1,0.5,0.1,0.8,0.1c0.1,0,0.2-0.1,0.2-0.2c0,0,0-0.1,0-0.1c-0.2-0.4-1-0.7-1.4-0.9c-0.6-0.3-1.2-0.5-1.8-0.7
					C177.3,272.5,176.9,272.6,176.7,273z"/>
				<path class="st26" d="M172.2,272.5c0.2,0,0.4-0.2,0.3-0.4c-0.2-0.4-0.8-0.7-1.2-0.8s-1.2-0.4-1.6,0c-0.2,0.1-0.2,0.3-0.1,0.5
					c0.3,0.4,0.8,0.3,1.3,0.5C171.2,272.4,171.7,272.5,172.2,272.5z"/>
				<path class="st23" d="M159,271.3c-0.2,0.4,0.4,0.7,0.7,0.5c0.7-0.1,1.5-0.1,2.3,0c0.4,0,0.8-0.1,1.2-0.2
					c0.4-0.1,0.7-0.1,1.1-0.2c0.2,0,0.3-0.2,0.3-0.4c0,0,0-0.1,0-0.1c-0.3-0.4-0.8-0.5-1.3-0.4c-0.5,0.1-1,0.1-1.6,0.1
					C160.7,270.6,159.5,270.4,159,271.3z"/>
				<path class="st26" d="M155.1,282.2L155.1,282.2c-0.5,0-0.9,0-1.4,0c-0.8,0.1-0.6,1.1,0.1,1.1c0.5,0,1,0,1.5,0s0.7,0.1,1.1,0.1
					c0.2,0,0.4-0.2,0.4-0.4c0-0.1,0-0.2-0.1-0.3c-0.4-0.4-0.9-0.6-1.5-0.6L155.1,282.2z"/>
				<path class="st26" d="M144.9,280.9c0.5-0.1,0.9-0.2,1.4-0.2c0.4,0,0.9,0,1.3,0c0.2,0,0.3,0,0.5,0.1c0.2,0,0.4,0.1,0.5,0.2
					s0.5,0,0.5-0.3c0-0.9-1.7-1.1-2.5-1.2c-0.6-0.1-1.3-0.1-1.9,0c-0.6,0.1-1.5,0.2-1.8,0.7s0,1,0.6,1
					C143.9,281.2,144.4,281.1,144.9,280.9z"/>
				<path class="st26" d="M132.9,279c0.6-0.1,1.2-0.3,1.8-0.6c1.2-0.4,2.6-0.5,3.9-0.2c0.6,0.1,1.1-0.5,0.5-0.8
					c-0.8-0.3-1.6-0.5-2.4-0.5c-0.6-0.1-1.2-0.2-1.8-0.2c-1.1,0-3.1,0.1-3.1,1.3c0,0.6,0.6,1.1,1.2,1C132.8,279,132.9,279,132.9,279
					z"/>
				<path class="st25" d="M189.3,279.8c-0.6-0.3-1.2-0.3-1.8-0.2c-0.6,0.1-1.1,0.6-1.3,1.2l0,0c0,0.3,0,0.6,0.1,0.9c0,0,0,0.1,0,0.1
					c0.3,0.6,0.8,1.1,1.4,1.5l0.1,0c0.3,0.2,0.6,0.3,0.9,0.4c0.6,0.2,1.2,0.1,1.7-0.2c0.4-0.3,0.7-0.7,0.8-1.2v-0.1
					c0.2-1-0.5-1.6-1.4-2.1l-0.3-0.2L189.3,279.8z M190.2,282c-0.2,0.4-0.7,0.6-1.2,0.5c-0.3-0.1-0.6-0.2-0.9-0.4
					c-0.3-0.1-0.5-0.3-0.7-0.5l0,0c-0.4-0.3-0.5-0.8-0.3-1.3c0.5-0.6,1.3-0.8,2-0.4c0.4,0.2,0.7,0.6,0.8,1
					C190.2,281.2,190.3,281.6,190.2,282L190.2,282z"/>
				<path class="st23" d="M189.2,279.9c-0.7-0.4-1.5-0.2-2,0.4c-0.2,0.4-0.1,1,0.3,1.3l0,0c0.2,0.3,0.4,0.5,0.7,0.5
					c0.3,0.2,0.5,0.3,0.9,0.4c0.5,0.1,0.9,0,1.2-0.5c0.1-0.4,0.1-0.8-0.1-1.1C189.9,280.4,189.6,280.1,189.2,279.9z"/>
				<path class="st25" d="M184.3,277.7l0.2,0c0.6,0.3,1.2,0.4,1.8,0.5c0.3,0.1,0.7,0.1,1,0c0.5,0.1,0.9,0.1,1.2-0.3
					c0.6-1-1.5-1.7-2.3-1.8c-0.6-0.1-1.1,0-1.7,0.1h-0.1l0,0C183.6,276.5,183.4,277.5,184.3,277.7z"/>
				<path class="st25" d="M182.7,273.3c0.4,0.2,0.8,0.3,1.2,0.2c0.3,0,0.7-0.1,0.8-0.4c0.3-0.7-0.5-1-1.1-1.1s-1.4-0.2-1.7,0.3
					S182,273.4,182.7,273.3z"/>
				<path class="st25" d="M173.4,270.2c-0.6,1,1.6,1.7,2.6,1.4c0.2,0,0.4-0.1,0.6-0.3c0.2-0.2,0.2-0.6-0.1-0.8l0,0
					c-0.1-0.1-0.2-0.2-0.4-0.2C175.3,269.8,173.9,269.3,173.4,270.2z"/>
				<path class="st25" d="M156,269.6c0.6,0.4,1.3,0.5,2,0.4c0.7,0,1.4-0.1,2.2-0.1c0.4,0,0.7-0.4,0.7-0.8c0-0.3-0.3-0.6-0.6-0.7
					c-0.6-0.1-1.2-0.2-1.7-0.2l0,0H158c-0.6,0-1.3,0.1-1.8,0.4C155.8,268.8,155.6,269.2,156,269.6z"/>
				<path class="st27" d="M181.4,265.6c-2.6-0.2-5.2-0.2-7.8-0.1c-2.5,0.1-5.1,0.2-7.6,0.1c-5.2-0.4-10.4-1.2-15.5-2.4
					c-2.6-0.5-5.1-0.9-7.7-1.1c-1.6-0.1-3.2-0.1-4.7,0c1.5,0.3,3.1,0.6,4.6,1c5.8,1.3,11.5,2.9,17.4,3.8c1.5,0.2,2.9,0.4,4.4,0.5
					c1.5,0.1,2.9,0,4.4,0c1.5,0,3,0,4.5,0.1c1.5,0.1,16.2,1.5,17.7,1.5c0.7,0,1.3-0.1,2-0.1c0-0.4,0.1-0.7,0.1-1.1s0.1-0.8,0.1-1.1
					C189.4,266.4,185.4,265.9,181.4,265.6z"/>
				<path class="st28" d="M193,265.1l-1.2-0.2l-2.5-0.3c-1.8-0.2-3.7-0.3-5.5-0.3c-0.6-0.1-15.8-1.5-17.5-1.6c-1.4,0-2.8,0-4.2-0.1
					c-0.9-0.1-1.8-0.1-2.7-0.3c-1-0.1-1.9-0.3-2.9-0.6c-1.8-0.5-3.5-0.9-5.3-1.3c-2.5-0.5-5.1-1.1-7.6-1.6s-5.2-1.1-7.8-1.5
					c-2.6-0.5-5.2-0.8-7.8-0.9c-0.6,0-1.3,0-1.9,0s-1.1,0-1.6,0.1c0,0.6,0,1.3-0.1,1.9c0,0.8,0,1.7-0.1,2.5h0.3
					c3.1,0,6.1,0.2,9.2,0.6c1.4,0.2,2.9,0.5,4.3,0.7c1.6-0.1,3.2-0.1,4.7,0c2.6,0.2,5.2,0.6,7.7,1.1c5.1,1.1,10.3,1.9,15.5,2.4
					c2.6,0.1,5.1,0,7.6-0.1c2.6-0.1,5.2-0.1,7.8,0.1c4,0.3,8,0.8,12,1c0-0.5,0.1-1,0.1-1.5l0,0L193,265.1z"/>
				<path class="st28" d="M124.5,256L124.5,256z"/>
				<path class="st27" d="M178,260.5c0.1-0.1,0.2-0.1,0.3-0.2c0.1,0,0.2,0,0.4,0h0.1h0.1c0.2,0,0.4,0.1,0.5,0.3l0,0
					c0.1-0.1,0.1-0.3,0.1-0.5c-0.1-0.2-0.2-0.3-0.3-0.4c-0.2-0.1-0.4-0.1-0.6-0.1h-0.1h-0.3c-0.3,0-0.6,0.3-0.6,0.6
					c0,0.1,0,0.1,0,0.2c0.1,0.2,0.2,0.3,0.4,0.4l0,0C177.9,260.7,177.9,260.6,178,260.5z"/>
				<path class="st27" d="M183.3,261l-0.1-0.1c-0.1-0.1-0.1-0.1-0.2-0.1c-0.1,0-0.1,0-0.2,0c0,0-0.1,0-0.1,0c-0.1,0-0.1,0-0.2,0
					c-0.1,0-0.2,0-0.3,0c-0.2,0.1-0.3,0.2-0.4,0.3c0,0,0,0.1,0,0.1c0,0-0.1,0.1-0.1,0.1c-0.3,0.3-0.6,0.4-1,0.5
					c-0.4,0.1-0.8,0.1-1.2,0.1c-0.2,0-0.3,0.2-0.3,0.4c0,0.1,0.1,0.2,0.2,0.3c0.6,0.3,1.2,0.4,1.9,0.2c0.6-0.1,1-0.4,1.4-0.9
					c0.1,0,0.2,0,0.3-0.1c0.1,0,0.1-0.1,0.2-0.1c0.1,0,0.1-0.1,0.1-0.1l0.1-0.1l0,0c0-0.1,0-0.2,0-0.2
					C183.4,261.2,183.4,261.1,183.3,261z"/>
				<path class="st27" d="M173.4,261.1L173.4,261.1c0,0,0-0.1,0-0.1l-0.1-0.1c-0.1-0.1-0.1-0.2-0.2-0.2l-0.2-0.2
					c-0.1-0.1-0.3-0.2-0.5-0.2c-0.2,0-0.3,0-0.5,0.1c-0.3,0.1-0.4,0.5-0.3,0.7c0,0,0,0,0,0.1c0.1,0.2,0.2,0.3,0.4,0.5
					c0.1,0.1,0.2,0.1,0.3,0.2c0.1,0,0.3,0,0.4,0c0.2,0,0.4-0.2,0.5-0.3C173.4,261.4,173.4,261.2,173.4,261.1L173.4,261.1z"/>
				<path class="st27" d="M181.9,257.4c0.3,0.1,0.5-0.1,0.6-0.4c0.1-0.3-0.1-0.5-0.4-0.6c0,0-0.1,0-0.1,0c-0.3-0.1-0.5,0.1-0.6,0.4
					c-0.1,0.3,0.1,0.5,0.4,0.6C181.8,257.4,181.9,257.4,181.9,257.4z"/>
				<path class="st29" d="M179.7,258.6c0.1-0.1,0.1-0.3,0-0.4c-0.2-0.1-0.4-0.2-0.6-0.3c-0.2-0.1-0.4-0.2-0.7-0.3
					c-0.2-0.2-0.6-0.2-0.8,0c-0.2,0.1-0.3,0.4-0.1,0.6c0,0,0,0.1,0.1,0.1c0.3,0.3,0.7,0.5,1.1,0.6
					C179,258.9,179.4,258.9,179.7,258.6z"/>
				<path class="st29" d="M180.6,260.4c0.6,0.1,1.2,0,1.7-0.2c0.2-0.1,0.3-0.2,0.3-0.4c0-0.1,0-0.3-0.1-0.4
					c-0.2-0.1-0.4-0.2-0.6-0.2c-0.4,0.1-0.8,0.1-1.3,0.1C179.8,259.3,179.8,260.4,180.6,260.4z"/>
				<path class="st29" d="M184.4,259.5c-0.1-0.1-0.3-0.2-0.5-0.2c-0.2,0-0.3,0-0.5,0.1c-0.2,0.1-0.3,0.3-0.2,0.5
					c0,0.1,0.1,0.3,0.2,0.4c0.2,0.2,0.6,0.3,0.9,0.1c0.1-0.1,0.2-0.2,0.2-0.3C184.6,259.8,184.6,259.6,184.4,259.5z"/>
				<path class="st29" d="M179.2,260.6c-0.1-0.2-0.3-0.3-0.5-0.3h-0.1h-0.1c-0.1,0-0.2,0-0.4,0c-0.1,0-0.2,0.1-0.3,0.2
					c-0.1,0.1-0.1,0.3,0,0.4c0,0,0.1,0.1,0.1,0.1l0.2,0.2c0.1,0.1,0.2,0.1,0.3,0.1c0.1,0,0.2,0,0.3,0c0.2,0,0.3-0.1,0.4-0.3
					C179.4,261,179.4,260.8,179.2,260.6z"/>
				<path class="st29" d="M173.9,259.2h-0.2l0,0h-0.1l0,0l0,0c-0.3-0.2-0.6-0.2-0.9-0.1c-0.2,0.2-0.2,0.5-0.1,0.7c0,0,0,0.1,0.1,0.1
					c0.3,0.2,0.6,0.3,1,0.3c0.3,0,0.6-0.2,0.7-0.4C174.5,259.5,174.2,259.3,173.9,259.2z"/>
				<path class="st30" d="M220,279.6c-1.2-0.6-2.6-0.8-3.8-1.4c-1-0.5-2-1.2-2.8-2c-1.6-1.5-2.9-3.1-5.3-3.7c-2.6-0.6-5.4-0.1-8.1,0
					c-1.4,0.1-2.7,0-4.1-0.2c-1.4-0.2-2.7-0.6-4.1-1c-2.5-0.9-5.1-1.6-7.7-2c-2.8-0.3-5.5,0.6-8.1,1.1c-1.5,0.3-3,0.4-4.5,0.4
					c-1.5-0.1-3.1-0.2-4.6-0.5c-1.8-0.3-4-0.6-5.3-1.7c-0.1,0.3-0.2,0.5-0.3,0.8c-0.1,0.5,0.3,0.8,0.7,1.2c0.2,0.2,0.4,0.2,0.7,0.2
					c2.2,1.2,4.6,1.8,7.1,1.9c1.3,0,2.5-0.3,3.7-0.7c1.3-0.5,2.7-0.8,4.1-1c2.8-0.2,5.7,0,8.4,0.8c1.4,0.3,2.7,0.7,4.1,1.2
					s2.6,0.9,4,1.3c2.7,0.8,5.5,0.3,8.3,0.3c3.8-0.4,7.5,0.8,10.3,3.4c0.7,0.7,1.6,1.2,2.5,1.7c1,0.4,2.3,0.3,3.3,0.8
					c0.5,0.3,1,0.7,1.3,1.2c0.2,0.3,0.6,0.5,1,0.4c0.6,0,1.1-0.2,1.5-0.6C221.7,280.7,220.9,280.1,220,279.6z"/>
				<path class="st31" d="M227.3,276c-0.9-0.6-1.8-1.3-2.6-2.1c-0.3-0.4-0.7-0.7-1.1-1c-0.5-0.3-1-0.6-1.5-0.9
					c-0.7-0.3-1.3-0.7-1.9-1.1c-1.4-0.1-2.8-0.5-4.1-1c-2.6-1.1-4.8-2.8-7.6-3.5c-1.6-0.3-3.3-0.5-4.9-0.5l-5.3-0.3l-2.7-0.1
					c-0.8,0-1.5,0-2.3,0c-1.2,0.1-2.3,0.5-3.2,1.3c-0.9,0.7-1.8,1.3-2.9,1.7c-0.2,0.1-0.3,0.1-0.5,0.1c-1.1,0-2.2-0.2-3.2-0.6
					c-0.4-0.1-0.9-0.3-1.3-0.4c-0.6-0.3-1.2-0.5-1.9-0.6c-1.2,0-2.1,0.9-3,1.4c-1.2,0.7-2.5,1.1-3.9,1.2c-1.5,0-3-0.1-4.4-0.4
					c-1.4-0.3-2.8-0.6-4.2-0.7c-1.1-0.1-2.3-0.1-3.4,0c0.1,0.1,0.2,0.2,0.3,0.3c1.3,1.1,3.5,1.4,5.3,1.7c1.5,0.3,3.1,0.5,4.6,0.5
					c1.5,0,3-0.1,4.5-0.4c2.7-0.5,5.3-1.3,8.1-1.1c2.6,0.4,5.2,1.1,7.7,2c1.3,0.4,2.7,0.8,4.1,1c1.4,0.2,2.7,0.3,4.1,0.2
					c2.6-0.1,5.5-0.6,8.1,0c2.4,0.6,3.7,2.2,5.3,3.7c0.8,0.8,1.8,1.5,2.8,2c1.2,0.5,2.6,0.8,3.8,1.4c0.9,0.5,1.7,1.2,2.3,2.1
					c0.3-0.2,0.6-0.5,0.9-0.8l0.5-0.4c-0.2-0.2-0.4-0.5-0.6-0.7c-0.9-0.9-2-1.6-3.2-2c-1.2-0.3-2.4-0.8-3.5-1.4l-0.2-0.1h-0.1
					l-0.1-0.1l-0.1,0l-0.1-0.1l-0.1,0l-0.2-0.1l0,0l-0.2-0.1l0,0l-0.1-0.1l0,0l-0.1-0.1l0,0l-0.2-0.1c-0.6-0.5-1.2-1-1.7-1.5
					l-0.7-0.7l0,0l-0.2-0.2l0,0l-0.2-0.2l0,0l-0.2-0.1h-0.1l-0.2-0.1c-2.3-1.5-5.2-1.6-8-1.4c-2.7,0.3-5.4,0.3-8-0.1
					c-2-0.4-3.9-1.1-5.9-1.7l0.7-0.4c0.6-0.4,1.3-0.7,2-1c0.6-0.2,1.2-0.4,1.8-0.4c2-0.1,3.9,0.5,5.9,0.5c1.8-0.1,3.5-0.2,5.3-0.1
					l0,0h0.1l0.3,0.1l0.2,0.1l0.3,0.1l0.2,0.1l0.2,0.1l0.2,0.1l0.2,0.1l0.8,0.3l0.1,0.1l0.3,0.1l0.1,0l0.3,0.1h0.1l0.3,0.1l0,0
					c0.6,0.3,1.1,0.6,1.7,0.9h0.1l0,0c0.7,0.3,1.4,0.8,2,1.3l0,0l0.8,0.5l0,0l0.2,0.1l0,0l0.1,0.1l0,0l0.2,0.1l0,0l0.2,0.1l0,0
					l0.2,0.1h0.1l0.1,0.1l0,0l0.1,0.1l0,0l0.2,0.1l0,0l0.2,0.1l0,0l0.1,0.1h0.1l0.1,0.1h0.1l0.1,0.1h0.1l0.2,0.1l0,0l0.2,0.1h0.1
					h0.1h0.1l0.1,0h0.1l0.2,0l0,0l0.2,0.1l0,0h0.2h0.1h0.1h0.1h0.1h0.1h0.2c0.7,0.1,1.4,0,2.1,0.1c0.6,0,1.1,0.3,1.6,0.6
					c1,0.7,2,1.5,3.1,2.1c0.9,0.6,1.8,1.1,2.7,1.6c0.6-0.2,1.3-0.4,2-0.6c0.3-0.1,0.6-0.2,0.9-0.3L227.3,276z"/>
				<path class="st30" d="M211,271.6c-0.9-0.6-1.9-1-2.9-1.1c-2.4-0.3-4.8,0.1-7.3,0c-2.7-0.1-5.5-0.6-8.1-1.4
					c-0.8-0.2-1.6-0.5-2.5-0.7l-0.7,0.4c2,0.6,3.9,1.3,5.9,1.7c2.6,0.4,5.3,0.5,8,0.1c2.8-0.2,5.7-0.1,8,1.4l0.2,0.1h0.1l0.2,0.1
					l0,0l0.2,0.2l0,0l0.2,0.2l0,0C211.9,272.3,211.5,272,211,271.6z"/>
				<path class="st30" d="M221.8,274.4c-0.5-0.3-1-0.6-1.6-0.6c-0.7-0.1-1.4,0-2.1-0.1h-0.2h-0.1h-0.1h-0.1h-0.1h-0.1h-0.2l0,0
					l-0.2-0.1l0,0l-0.2,0h-0.1l-0.1,0h-0.1h-0.1h-0.1l-0.2-0.1l0,0l-0.2-0.1H216l-0.1-0.1h-0.1l-0.1-0.1h-0.1l-0.1-0.1l0,0l-0.2-0.1
					l0,0l-0.2-0.1l0,0l-0.1-0.1l0,0l-0.1-0.1h-0.1l-0.2-0.1l0,0l-0.2-0.1l0,0l-0.2-0.1l0,0l-0.1-0.1l0,0l-0.2-0.1l0,0l-0.8-0.5l0,0
					c0.9,0.8,1.7,1.6,2.6,2.4c0.8,0.7,1.7,1.2,2.7,1.4c1.1,0.4,2.3,0.6,3.5,1c1.7,0.6,3.3,1.6,4.6,2.9l0,0c0.5-0.2,0.9-0.4,1.4-0.6
					c-0.9-0.5-1.8-1-2.7-1.6C223.8,275.9,222.8,275.1,221.8,274.4z"/>
				<path class="st30" d="M199.2,268.8c1.3,0.1,2.7,0.2,4,0.1c2.4,0,5-0.2,7.2,0.6l0.4,0.2h-0.1c-0.6-0.3-1.1-0.6-1.7-0.9l0,0
					l-0.3-0.1h-0.1l-0.3-0.1l-0.1,0l-0.3-0.1l-0.1-0.1L207,268l-0.2-0.1l-0.2-0.1l-0.2-0.1l-0.2-0.1l-0.3-0.1l-0.2-0.1l-0.3-0.1
					h-0.1l0,0c-1.8-0.1-3.5-0.1-5.3,0.1c-2,0-3.9-0.6-5.9-0.5c-0.6,0-1.2,0.2-1.8,0.4c1,0.3,2,0.5,3,0.7
					C196.6,268.5,197.9,268.7,199.2,268.8z"/>
				<path class="st30" d="M222.1,277.7c-1-0.4-2.1-0.8-3.2-1c-1.2-0.2-2.3-0.6-3.4-1.2c-0.3-0.1-0.5-0.3-0.7-0.4l0.2,0.1l0,0
					l0.1,0.1l0,0l0.1,0.1l0,0l0.2,0.1l0,0l0.2,0.1l0.1,0l0.1,0.1l0.1,0l0.1,0.1h0.1l0.2,0.1c1.1,0.6,2.3,1,3.5,1.4
					c1.2,0.4,2.3,1.1,3.2,2c0.2,0.2,0.4,0.5,0.6,0.7c0.3-0.3,0.7-0.6,1-0.8l-0.3-0.3C223.6,278.6,222.9,278.1,222.1,277.7z"/>
				<path class="st32" d="M221.6,275.9c-1.1-0.4-2.3-0.6-3.5-1c-1-0.3-1.9-0.8-2.7-1.4c-0.9-0.8-1.7-1.6-2.6-2.4
					c-0.6-0.5-1.3-1-2-1.3l0,0l-0.4-0.2c-2.3-0.9-4.8-0.7-7.2-0.6c-1.3,0-2.7,0-4-0.1c-1.3-0.1-2.7-0.4-4-0.7c-1-0.2-2-0.5-3-0.7
					c-0.7,0.3-1.4,0.6-2,1c0.8,0.3,1.6,0.5,2.5,0.7c2.6,0.8,5.4,1.2,8.1,1.4c2.4,0.1,4.9-0.3,7.3,0c1,0.1,2,0.5,2.9,1.1
					c0.5,0.4,1,0.8,1.4,1.2l0,0l0.7,0.7c0.5,0.6,1.1,1.1,1.7,1.5l0,0c0.2,0.1,0.5,0.3,0.7,0.4c1.1,0.5,2.2,0.9,3.4,1.2
					c1.1,0.2,2.2,0.6,3.2,1c0.9,0.4,1.7,1,2.4,1.7l0.3,0.3c0.5-0.3,0.9-0.6,1.4-0.9C224.8,277.4,223.3,276.5,221.6,275.9z"/>
				<path class="st33" d="M153.7,269.2c1.3-0.7,2.6-1.2,4-1.5c1.4-0.3,2.7-0.6,4.1-0.7c1.5-0.1,3-0.1,4.4,0c1.5,0.2,2.9,0.4,4.4,0.8
					c1.3,0.4,2.6,0.6,4,0.5c1.1-0.2,2.1-0.8,2.9-1.5c1-0.8,2.3-1.3,3.6-1.2c1.3,0.2,2.5,0.5,3.7,1c0.5,0.2,1,0.3,1.6,0.3
					c0.4,0,0.9-0.1,1.2-0.4c1-0.7,1.7-1.6,2.9-2.1c1.5-0.4,3.1-0.5,4.7-0.3l5.3,0.2c3.2,0.1,6.6,0,9.6,1.3c2.4,1,4.3,2.7,6.8,3.7
					c1.2,0.5,2.5,0.7,3.7,0.6c0.8-0.1,1.6-0.1,2.4,0c0.8,0.1,1.6,0.3,2.4,0.7c0.5,0.3,1.1,0.6,1.7,0.8c0.3,0.1,0.7,0.1,1,0
					c0-0.5-0.2-0.9-0.5-1.3c-0.4-0.4-0.9-0.7-1.4-0.9c-0.5-0.2-0.6-0.8-0.8-1.2c0-0.1-0.1-0.2-0.1-0.3h-0.3
					c-1.5,0.2-3.1,0.3-4.7,0.1c-1.5-0.2-2.9-0.6-4.3-1c-2.8-1.1-5.6-2.1-8.5-2.8c-3.1-0.6-6.2-0.8-9.3-0.7c-1.6,0-3.1,0-4.7,0.1
					c-1.3,0-2.6,0.1-3.9,0.3c-0.6,0.1-1.1,0.3-1.6,0.6c-0.5,0.3-0.9,0.7-1.4,1c-0.7,0.4-1.5,0.5-2.3,0.4c-0.7-0.1-1.5-0.3-2.2-0.5
					c-1.2-0.3-2.6-0.4-3.8-0.1c-1.2,0.4-2.3,0.9-3.3,1.6c-1.4,0.6-2.9,0.7-4.3,0.4c-1.6-0.2-3.2-0.4-4.9-0.6c-3.1-0.4-6.2-0.4-9.3,0
					c-2.1,0.3-4.2,0.9-6.2,1.8c0.5,0.7,0.9,1.3,1.3,2h0.5C152.8,269.8,153.2,269.5,153.7,269.2z"/>
				<path class="st32" d="M164.9,268.4c1.4,0.1,2.8,0.5,4.2,0.7c1.5,0.3,2.9,0.4,4.4,0.4c1.4-0.1,2.7-0.5,3.9-1.2
					c0.9-0.5,1.8-1.4,3-1.4c0.7,0.1,1.3,0.3,1.9,0.6c0.4,0.1,0.9,0.3,1.3,0.4c1,0.4,2.1,0.6,3.2,0.6c0.2,0,0.3-0.1,0.5-0.1
					c1-0.4,2-1,2.9-1.7c0.9-0.7,2-1.2,3.2-1.3c0.8,0,1.5,0,2.3,0l2.7,0.1l5.3,0.3c1.7,0,3.3,0.2,4.9,0.5c2.8,0.7,5,2.4,7.6,3.5
					c1.3,0.5,2.7,0.9,4.1,1h0.3c1.5,0.1,3,0.1,4.5,0.4c0.7,0.1,1.4,0.3,2.1,0.6c0.5,0.2,1.1,0,1.1-0.4c0-0.1,0-0.1,0-0.2
					c-0.3,0.1-0.7,0.1-1,0c-0.6-0.2-1.2-0.5-1.7-0.8c-0.7-0.4-1.5-0.6-2.4-0.7c-0.8-0.1-1.6-0.1-2.4,0c-1.3,0.1-2.5-0.1-3.7-0.6
					c-2.4-1-4.3-2.7-6.8-3.7c-3-1.2-6.4-1.1-9.6-1.3l-5.3-0.2c-1.6-0.2-3.2-0.1-4.7,0.3c-1.2,0.5-1.9,1.4-2.9,2.1
					c-0.4,0.2-0.8,0.4-1.2,0.4c-0.5,0-1.1-0.1-1.6-0.3c-1.2-0.5-2.4-0.8-3.7-1c-1.3,0-2.6,0.4-3.6,1.2c-0.8,0.8-1.8,1.3-2.9,1.5
					c-1.4,0.1-2.7-0.1-4-0.5c-1.4-0.4-2.9-0.7-4.4-0.8c-1.5-0.1-2.9-0.2-4.4,0c-1.4,0.1-2.8,0.3-4.1,0.7c-1.4,0.3-2.7,0.8-4,1.5
					c-0.5,0.3-1,0.6-1.4,1c2.6-0.1,5.1-1.2,7.7-1.6c0.5-0.1,1-0.1,1.4-0.2C162.6,268.2,163.7,268.3,164.9,268.4z"/>
				<path class="st32" d="M148.4,263.8L148.4,263.8h0.2l0.5-0.1l0.6-0.1h0.3l0,0c0.2,0,0.9,0,0.6,0h0.3c0.5,0,0.9,0,1.4,0.1h0.4l0,0
					l0.4,0l0,0h0.2h0.3h0.2h0.2h0.2h0.2h0.3h0.1l0.5,0.1h0.1l0.3,0h0.1l0.4,0l0,0h0.3h0.1h0.2h0.1h0.2h0.1h0.2h0.1h0.3
					c1.8,0.1,3.5,0,5.3-0.3l0.6-0.1h0.1l0.5-0.1h0.1l0.5-0.1h0.1l0.5-0.1h0.1l0.4-0.1l0.2,0l0.4-0.1l0.3-0.1l0.3-0.1l0.3-0.1
					l0.3-0.1l0.3-0.1l0.3-0.1l0,0l0.5-0.2h0.1l0.5-0.2h0.1l0.4-0.2h0.1l0.4-0.2l0.1,0l0.4-0.1l0.2-0.1l0.3-0.1l0.3-0.1l0.3-0.1
					l0.5-0.2c1.5-0.6,2.9-1.2,4.4-1.8l1.1-0.4l0.6-0.2l0.3-0.1l0.2-0.1c0.3-0.1,0.7-0.2,1-0.2c0.4-0.1,0.9-0.2,1.4-0.2h0.2h0.6
					l0.6,0.1h0.3l0.2,0.1c0.2,0,0.4,0.1,0.6,0.2l0.2,0.1c0.5,0.2,1,0.4,1.5,0.6l0.2,0.1h0.1h0.1h0.1h0.2h0.1h0.1h0.3h0.2h0.8h0.2
					l0,0h0.2h0.1h0.2h0.1h0.2h0.1l0.2-0.1c0.7-0.3,1.4-0.7,1.9-1.3l0.1-0.1l0.1-0.1l0.1-0.1l0.1-0.1l0,0c0,0,0.1-0.1,0.1-0.1
					l0.3-0.4c0.1-0.1,0.2-0.2,0.3-0.3l0.5-0.5l0.1-0.1l0.3-0.2c-0.1,0-0.1,0,0,0h0.1l0,0l0,0l0.1-0.1l0.2-0.1c0,0,0,0,0.1,0h0.1l0,0
					l0,0h0.1c0.2,0,0.4-0.1,0.6-0.1h0.6c0.3,0,0.7,0.1,1,0.1l0,0l0,0h0.1h0.1l0,0l0.5,0.1l1,0.3c0.8,0.2,1.5,0.5,2.3,0.8l1.1,0.5
					l0.6,0.2h0.1l0.3,0.1l2.3,1l0.8,0.3l0,0l0.8,0.3l0,0l0.8,0.3l0,0l0.8,0.3l0.4,0.1h0.1l0.3,0.1h0.1l0.7,0.3h0.1l0.3,0.1h0.1
					l0.3,0.1h0.1l0.4,0.1h0.1l0.3,0.1h0.1l0.3,0.1h0.1l0.4,0.1h0.1l0.3,0.1h0.1l0.3,0.1h0.1l0.4,0.1h0.1l0.3,0.1h0.1l0.3,0.1h0.1
					l0.4,0.1l0.5,0.1h0.1l0.4,0.1h0.1l1,0.1l0.5,0l0,0h0.2h0.1h0.4h1.8h0.3l0,0h0.3h0.1l0.4,0c1.4-0.2,2.8-0.7,4.1-1.3
					c-0.2-0.5-0.5-0.9-0.8-1.4c-0.2-0.3-0.5-0.4-0.9-0.4c-2.9,0.5-5.9,0.6-8.9,0.1c-2.9-0.5-5.6-1.5-8.2-2.8c-2.5-1.4-5.2-2.4-8-2.9
					c-1.3-0.2-2.6-0.2-3.9,0c-1.2,0.2-2.4,0.7-3.4,1.5c-0.5,0.4-1,0.7-1.6,1c-0.5,0.2-1,0.3-1.6,0.3c-1.2,0-2.5-0.1-3.7-0.3
					c-1.2-0.2-2.5-0.2-3.7,0.1c-1.4,0.4-2.3,1.3-3.5,1.8c-1.3,0.6-2.6,1-4,1.4c-1.4,0.5-2.9,0.9-4.4,1.3c-2.9,0.8-6,1.2-9,1.3
					c-1.6-0.1-3.2-0.2-4.7-0.4c-1.4-0.2-2.9-0.2-4.3,0.1c-1.2,0.2-2.3,0.8-3.1,1.7l-0.1,0.1l0.7,0.7l0.3-0.1
					C147.6,263.6,148,263.7,148.4,263.8z"/>
				<path class="st34" d="M165.9,266.3c1.6,0.2,3.3,0.4,4.9,0.6c1.5,0.3,3,0.2,4.3-0.4c1-0.7,2.2-1.2,3.3-1.6
					c1.3-0.3,2.6-0.2,3.8,0.1c0.7,0.2,1.5,0.4,2.2,0.5c0.8,0.1,1.6,0,2.3-0.4c0.5-0.3,0.9-0.7,1.4-1c0.5-0.3,1-0.4,1.6-0.6
					c1.3-0.2,2.6-0.3,3.9-0.3c1.6,0,3.1-0.1,4.7-0.1c3.1-0.1,6.2,0.2,9.3,0.7c2.9,0.7,5.7,1.7,8.5,2.8c1.4,0.5,2.8,0.8,4.3,1
					c1.6,0.1,3.1,0.1,4.7-0.1h0.3c-0.2-0.5-0.5-0.9-0.7-1.4c0,0-0.1-0.1-0.1-0.2l-1.4,0.1c-1.4,0.1-2.8,0-4.2-0.3
					c-2.9-0.7-5.6-2.1-8.5-2.9c-3.1-0.8-6.3-1.3-9.5-1.4c-3.1-0.1-6.4,0-9.5,0.1c-1.4,0-2.7,0.3-4,0.8c-0.6,0.3-1.1,0.6-1.6,1
					c-0.4,0.4-0.9,0.5-1.5,0.4c-0.7-0.1-1.4-0.4-2.1-0.6c-0.8-0.1-1.5-0.2-2.3-0.2c-1.4,0.1-2.7,0.4-3.9,1.1
					c-1.1,0.6-2.1,1.5-3.5,1.5c-0.8,0-1.5-0.1-2.3-0.2l-2.6-0.3c-5.9-0.6-12.6-0.7-17.7,2l-0.2,0.1c0.2,0.2,0.4,0.5,0.6,0.7
					c2-0.9,4.1-1.5,6.2-1.8C159.7,265.9,162.9,265.9,165.9,266.3z"/>
				<path class="st33" d="M186.4,259.4h-0.2h-0.1h-0.1h-0.2h-0.1h-0.1h-0.1l-0.2-0.1c-0.5-0.2-1-0.4-1.5-0.6l-0.2-0.1
					c-0.2-0.1-0.4-0.1-0.6-0.2l-0.2-0.1h-0.1l-0.6-0.1h-0.6h-0.2c-0.5,0-0.9,0.1-1.4,0.2c-0.3,0.1-0.7,0.1-1,0.2l-0.2,0.1l-0.3,0.1
					l-0.6,0.2l-1.1,0.4c-1.5,0.6-3,1.2-4.4,1.8l-0.5,0.2l-0.3,0.1l-0.3,0.1l-0.3,0.1l-0.2,0.1l-0.4,0.1l-0.1,0l-0.4,0.2H170
					l-0.4,0.2h-0.1l-0.5,0.2H169l-0.5,0.2c1.3-0.2,2.5-0.4,3.8-0.6c0.8-0.1,1.7-0.3,2.5-0.5c0.7-0.2,1.4-0.5,2-0.9
					c1.4-0.8,2.9-1.1,4.5-0.9c0.8,0.2,1.5,0.5,2.3,0.7c0.5,0.1,1,0.1,1.5-0.1c0.6-0.3,1.2-0.6,1.7-1h-0.1L186.4,259.4z"/>
				<path class="st33" d="M206.3,259.8l-0.8-0.3l0,0l-0.8-0.3l0,0l-0.8-0.3l-2.3-1l-0.3-0.1h-0.1l-0.6-0.2l-1.1-0.5
					c-0.7-0.3-1.5-0.6-2.3-0.8l-1-0.3l-0.5-0.1l0,0h-0.1h-0.1l0,0l0,0c-0.3,0-0.7-0.1-1-0.1H194c-0.2,0-0.4,0-0.6,0.1h-0.1l0,0l0,0
					h-0.1c-0.1,0-0.1,0-0.1,0l-0.2,0.1l-0.1,0.1l0,0l0,0h-0.1c-0.1,0.1-0.1,0.1,0,0l-0.3,0.2l-0.1,0.1l-0.5,0.5
					c-0.1,0.1-0.2,0.2-0.3,0.3l-0.3,0.4c0.4-0.1,0.9-0.2,1.4-0.2c3.6-0.3,6.8,0.8,10.1,1.8c1.5,0.5,3,0.8,4.6,1.1l-0.8-0.3
					L206.3,259.8z"/>
				<path class="st33" d="M153,263.8l-0.4,0l0,0h-0.4c-0.5,0-0.9-0.1-1.4-0.1h-0.3c0.3,0-0.4,0-0.6,0l0,0h-0.3l-0.6,0.1l-0.5,0.1
					h-0.1h-0.1c-0.3,0.1-0.6,0.2-0.9,0.4l-0.3,0.1l0.8,0.8C149.5,264.2,151.2,263.8,153,263.8z"/>
				<path class="st33" d="M219.7,262.5L219.7,262.5h-0.4l0,0h-0.3h-1.8h-0.4h-0.1h-0.2l0,0l-0.5,0c2.2,0.8,4.5,1.1,6.9,0.9
					c0.7-0.1,1.4-0.3,2.1-0.5c-0.1-0.6-0.3-1.2-0.6-1.7c-1.3,0.6-2.7,1-4.1,1.3L219.7,262.5z"/>
				<path class="st33" d="M167.8,265.3l2.6,0.3c0.8,0.1,1.5,0.2,2.3,0.2c1.4-0.1,2.4-0.9,3.5-1.5c1.2-0.6,2.5-1,3.9-1.1
					c0.8,0,1.5,0,2.3,0.2c0.7,0.1,1.4,0.4,2.1,0.6c0.5,0.1,1.1,0,1.5-0.4c0.5-0.4,1.1-0.7,1.6-1c1.3-0.5,2.6-0.8,4-0.8
					c3.1-0.2,6.3-0.3,9.5-0.1c3.2,0.1,6.4,0.5,9.5,1.4c2.9,0.8,5.6,2.2,8.5,2.9c1.4,0.3,2.8,0.4,4.2,0.3l1.4-0.1
					c-0.1-0.2-0.1-0.4-0.1-0.6c0-0.2,0.1-0.5,0.2-0.7c0,0,0,0,0,0c-1,0.2-2,0.4-3,0.4c-3.5,0.1-6.7-1.3-9.9-2.3
					c-1.7-0.5-3.5-0.9-5.3-1.2c-1.8-0.3-3.6-0.8-5.4-1.4c-3-0.9-6.3-2-9.5-1.3c-1.3,0.3-2.5,0.9-3.5,1.7c-1,0.9-2.2,1.5-3.6,1.7
					c-0.8,0.1-1.7-0.1-2.4-0.4c-0.6-0.3-1.3-0.5-2.1-0.5c-1.4,0.1-2.6,1-3.9,1.5c-1.7,0.6-3.4,0.9-5.1,1c-1.9,0.2-3.8,0.3-5.6,0.5
					s-3.8,0.2-5.7,0.3s-3.5,0-5.2,0.1c-2,0-4.3,0.1-5.9,1c0.5,0.6,1,1.2,1.5,1.8l0.2-0.1C155.2,264.6,162,264.6,167.8,265.3z"/>
				<path class="st35" d="M159.6,264.6c1.9,0,3.8-0.2,5.7-0.3s3.8-0.3,5.6-0.5c1.8-0.1,3.5-0.4,5.1-1c1.3-0.5,2.5-1.4,3.9-1.5
					c0.7,0,1.4,0.2,2.1,0.5c0.8,0.3,1.6,0.4,2.4,0.4c1.3-0.2,2.6-0.8,3.6-1.7c1-0.8,2.2-1.4,3.5-1.7c3.2-0.6,6.5,0.4,9.5,1.3
					c1.8,0.6,3.6,1,5.4,1.4c1.8,0.3,3.6,0.7,5.3,1.2c3.2,1,6.4,2.4,9.9,2.3c1,0,2-0.2,3-0.4c0.2-0.6,0.2-1.1,0.1-1.7c0,0,0,0,0-0.1
					c-0.7,0.2-1.4,0.4-2.1,0.5c-2.3,0.2-4.7-0.1-6.9-0.9l-1-0.1h-0.1l-0.4-0.1h-0.1l-0.5-0.1l-0.4-0.1h-0.1L213,262h-0.1l-0.3-0.1
					h-0.1l-0.4-0.1H212l-0.3-0.1h-0.1l-0.3-0.1h-0.1l-0.4-0.1h-0.1l-0.3-0.1h-0.1l-0.3-0.1H210l-0.4-0.1h-0.1l-0.3-0.1h-0.1
					l-0.3-0.1h-0.1l-0.7-0.3h-0.1l-0.3-0.1h-0.1l-0.4-0.1c-1.6-0.3-3.1-0.7-4.6-1.1c-3.3-1-6.6-2.1-10.1-1.8c-0.5,0-0.9,0.1-1.4,0.2
					c0,0-0.1,0.1-0.1,0.1l0,0l-0.1,0.1l-0.1,0.1l-0.1,0.1l-0.1,0.1c-0.5,0.6-1.2,1-1.9,1.3l-0.2,0.1h-0.1h-0.2h-0.1H188h-0.1h-0.2
					l0,0h-0.2h-0.8c-0.5,0.4-1.1,0.7-1.7,1c-0.5,0.2-1,0.3-1.5,0.1c-0.8-0.2-1.5-0.5-2.3-0.7c-1.6-0.2-3.1,0.1-4.5,0.9
					c-0.6,0.3-1.3,0.6-2,0.9c-0.8,0.2-1.6,0.4-2.5,0.5c-1.3,0.2-2.5,0.4-3.8,0.6l0,0l-0.3,0.1l-0.3,0.1l-0.3,0.1l-0.3,0.1l-0.3,0.1
					l-0.3,0.1l-0.4,0.1l-0.2,0l-0.4,0.1h-0.1l-0.5,0.1H165l-0.5,0.1h-0.1l-0.5,0.1h-0.1l-0.6,0.1c-1.7,0.3-3.5,0.4-5.3,0.3h-0.3
					h-0.1h-0.2h-0.1h-0.2h-0.1h-0.2h-0.1h-0.3l0,0l-0.4,0h-0.1l-0.3,0h-0.1l-0.5-0.1h-0.1h-0.3h-0.2H154h-0.2h-0.2h-0.3h-0.2l0,0
					c-1.8,0-3.5,0.5-5.1,1.4l0.5,0.5c1.7-0.9,4-0.9,5.9-1C156.1,264.7,157.9,264.7,159.6,264.6z"/>
				<path class="st36" d="M77.9,267.6l0.3,0.1L77.9,267.6c0.3,0.1,0.6,0.1,0.9,0.1c0.2,0,0.5,0,0.8,0c-0.3,0-0.4,0-0.1,0h0.2h0.4
					c1.2-0.3,2.4-0.3,3.7-0.2c1,0.1,2,0.4,2.9,0.7c1.7,0.7,3.4,1.5,4.9,2.5c1.3,0.9,2.7,1.6,4.1,2.3c0.6,0.2,1.2,0.4,1.8,0.6
					c0.4,0.1,0.9,0.1,1.3,0.1c1-0.1,1.9-0.2,2.9-0.2c1,0,2,0.2,3,0.6c1.7,0.6,3.1,1.5,4.7,2.2c1,0.4,2.1,0.8,3.2,1
					c0.8,0.1,1.5,0.2,2.3,0.2c0.7-0.1,1.3-0.2,2-0.3c1.3-0.4,2.6-1,3.9-1.4c1.4-0.6,2.8-1,4.3-1.2c1.9-0.2,3.8,0,5.5,0.6
					c1.6,0.5,3.1,1.1,4.7,1.5s3,0.8,4.5,1.1c1.6,0.3,3.2,0.4,4.8,0.3c1.2-0.1,2.3-0.3,3.4-0.5c0.8-0.2,1.6-0.6,2.3-0.9
					c0.6-0.4,1.2-0.8,1.8-1.3c0.5-0.5,0.9-1.1,1.3-1.6c0.1-0.3,0.3-0.6,0.4-0.9c-0.3-0.7-0.8-1.3-1.4-1.7c-1.3-0.8-2.7-1.3-4.1-1.4
					c-0.6-0.1-1.2-0.1-1.8-0.2c-0.4-0.1-0.9-0.2-1.2-0.5c-0.4-0.5-0.1-1.1-0.1-1.6c0.1-0.6,0.1-1.2-0.1-1.8c-0.3-1-1-1.8-1.9-2.4
					c-0.6-2-1.9-3.6-3.6-4.6c-2.7-1.5-5.7-2.4-8.8-2.6c-6.5-0.7-13.3-0.2-19.7-1.8c-1.6-0.4-3.1-1-4.7-1.4c-1.8-0.3-3.6-0.3-5.4,0
					c-3.3,0.3-6.7,0.7-10,1.3c-1.5,0.3-3,0.8-4.5,1.4c-1.3,0.6-2.5,1.4-3.6,2.3c-1.1,0.9-2.1,1.8-3.1,2.8c-1.1,0.9-1.9,2-2.6,3.3
					c-0.5,1.2-0.5,2.5,0.1,3.6l0.2,0.3l0,0L77.9,267.6z M112,271.6c-0.2,0-0.1-0.2,0-0.2S112.2,271.6,112,271.6L112,271.6z
					 M127.6,260.6c0.1,0,0.1,0.2,0,0.2s-0.6,0-0.8,0.1c-0.3,0.1-0.6,0.2-0.9,0.3c-0.1,0.1-0.3-0.1-0.2-0.1
					C126.3,260.7,127,260.5,127.6,260.6L127.6,260.6z M125.1,260.9c0.3,0,0.6-0.2,0.9-0.4c0.2-0.2,0.4-0.4,0.5-0.7
					c0.1-0.1,0.2,0,0.2,0c0,0.6-0.9,1.1-1.6,1.2C125,261.1,124.9,260.9,125.1,260.9L125.1,260.9z M125,261.6l0.3-0.2
					c0-0.1,0-0.1,0.1-0.1h0.2c0.1-0.1,0.2-0.1,0.3-0.1c0.1,0,0.1,0,0.1,0.1c0.4,0,0.8,0,1.2,0.1c0.2,0,0.2,0.2,0,0.2
					c-0.5,0-1,0-1.5-0.1l-0.2,0.1c-0.2,0.1-0.3,0.1-0.5,0.2C124.9,261.9,124.8,261.7,125,261.6L125,261.6z M120.5,258.5
					c0.4,0.1,0.8,0.1,1.1-0.1c0.1-0.1,0.3,0,0.2,0.1c-0.4,0.3-0.9,0.4-1.4,0.2C120.2,258.6,120.4,258.4,120.5,258.5L120.5,258.5z
					 M120,258.6h0.2l0,0l0,0c0,0,0,0,0.1,0.1c0,0.1,0,0.1-0.1,0.2s-0.2-0.1-0.1-0.1l0,0h-0.1c0,0-0.1,0-0.1-0.1
					C119.9,258.6,119.9,258.5,120,258.6L120,258.6z M85.6,259.5c0.7-0.5,1.6-0.9,2.4-1.1c1-0.3,2-0.6,3.1-0.8
					c0.9-0.2,1.8-0.3,2.6-0.4c0.8-0.5,1.7-0.9,2.7-1.2c1.5-0.5,3-0.7,4.6-0.8c0.8,0,1.6,0,2.4,0h0.6h0.2c1.4,0.1,2.8,0.2,4.2,0.4
					c1.2,0.2,2.4,0.4,3.6,0.7c1.7,0.3,3.3,0.9,4.8,1.6c0.9,0.2,1.7,0.5,2.5,0.9c0.9,0.4,1.7,0.9,2.5,1.5c0.7,0.5,1.4,1,2.2,1.4
					c1.7,0.8,3.9,0.5,5.7,0.4c2.1-0.2,4.2,0.1,6.1,1c0.8,0.4,1.4,0.9,1.9,1.6c0.4,0.8,0.4,1.7-0.1,2.4c-0.8,1.4-2.7,2.1-4.4,2.4
					c-0.8,0.1-1.7,0.2-2.5,0.2c0,0,0,0,0,0.1c-0.2,0.1-0.5,0.1-0.8,0.1c-0.1,0-0.2-0.1-0.2-0.2H129h0.1c0.1,0,0.2,0.1,0.3,0.1
					c0.1,0,0,0.2-0.1,0.2c-0.1,0-0.3,0-0.4,0h-0.1c0,0.1,0.1,0.3,0.1,0.4c0,0.1-0.1,0.1-0.2,0.1c0,0,0,0-0.1-0.1
					c-0.1-0.2-0.1-0.4-0.1-0.5c-0.3,0.2-0.7,0.2-1,0.1c-0.2,0-0.2-0.3,0-0.3c0.2,0,0.4,0,0.6,0h-0.7c-0.7,0-1.4,0-2.1,0l0.2,0
					c0,0,0.1,0,0.1,0.1c0,0,0,0.1-0.1,0.1l-0.9-0.1c-0.7,0.1-1.4,0.3-2,0.5c-0.8,0.4-1.5,0.9-2.3,1.3c-0.9,0.5-1.8,0.8-2.8,0.9
					c-2,0.1-4-0.4-5.8-1.3l-0.2-0.1c-0.6,0.4-1.1,0.7-1.7,1c-0.1,0.1-0.2-0.1-0.1-0.1c0.4-0.3,0.9-0.6,1.3-0.9c-0.6,0-1.2,0-1.7-0.2
					c-0.2,0-0.1-0.3,0.1-0.2c0.6,0.1,1.1,0.2,1.7,0.2c-0.7-0.4-1.4-0.7-2.1-0.9c-1.1-0.2-2.1-0.2-3.2,0c-2.3,0.3-4.5,0.4-6.8,0.4
					c-2,0-3.9-0.5-5.7-1.4c-1.6-0.9-2.6-2.2-3.9-3.3c-0.6-0.5-1.3-0.8-2-1c-0.9-0.2-1.7-0.5-2.4-1.1
					C83.5,262.5,84.1,260.5,85.6,259.5L85.6,259.5z"/>
				<path class="st37" d="M111.3,271L111.3,271L111.3,271z"/>
				<path class="st38" d="M154.2,274.1c0-0.5-0.2-1-0.4-1.5c-0.1,0.3-0.3,0.6-0.4,0.9c-0.4,0.6-0.8,1.1-1.3,1.6
					c-0.6,0.5-1.1,0.9-1.8,1.3c-0.7,0.4-1.5,0.7-2.3,0.9c-1.1,0.3-2.3,0.5-3.4,0.5c-1.6,0-3.2-0.1-4.8-0.3c-1.5-0.3-3-0.7-4.5-1.1
					s-3.1-1.1-4.7-1.5c-1.8-0.6-3.7-0.8-5.6-0.6c-1.5,0.2-2.9,0.6-4.3,1.2c-1.3,0.5-2.5,1-3.9,1.4c-0.7,0.2-1.3,0.3-2,0.3
					c-0.8,0-1.5,0-2.3-0.2c-1.1-0.2-2.2-0.6-3.2-1c-1.6-0.7-3-1.6-4.7-2.2c-1-0.4-2-0.6-3-0.6c-1,0-1.9,0.1-2.9,0.2
					c-0.4,0-0.9,0-1.3-0.1c-0.6-0.1-1.2-0.3-1.8-0.6c-1.4-0.7-2.8-1.4-4.1-2.3c-1.6-1-3.2-1.8-4.9-2.5c-1-0.3-1.9-0.6-2.9-0.7
					c-1.2-0.1-2.5,0-3.7,0.2h-0.4h-0.2c-0.3,0-0.2,0,0.1,0c-0.2,0-0.5,0-0.8,0c-0.3,0-0.6,0-0.9-0.1l0.3,0l-0.3-0.1l-0.3-0.1l0,0
					c0.8,1,1.9,1.7,3.2,2c1.6,0.3,3.2,0.5,4.9,0.5c1.4,0.1,2.7,0.5,4,1c2.5,1.2,4.8,2.8,7.5,3.5c1.6,0.4,3.2,0.6,4.8,0.9
					c0.8,0.1,1.6,0.4,2.3,0.6c0.7,0.3,1.4,0.6,2.1,0.9c1.4,0.7,2.8,1.2,4.3,1.5c1.5,0.3,3,0.5,4.6,0.5c3,0,6-0.6,8.9-1.8
					c1.3-0.6,2.8-0.9,4.3-0.9c1.6,0.2,3.3,0.6,4.8,1.1c3.3,0.9,6.7,1.4,10.1,1.5c3,0,6-0.7,8.7-2
					C153.2,276.4,154.3,275.4,154.2,274.1z"/>
				<path class="st38" d="M77.1,267.3L77.1,267.3L77.1,267.3L77.1,267.3L77.1,267.3z"/>
				<path class="st39" d="M116.8,261.8c-0.2,1.8-2.2,2.8-4.1,3.3c-2.3,0.5-4.6,0.7-6.9,0.4c-2.2-0.2-4.4-0.5-6.5-1.1
					c-1.9-0.4-3.7-1.3-5.2-2.5c-1.2-0.8-1.9-2.2-1.9-3.7c-0.3,0.3-0.6,0.6-0.9,1l-0.2,0.3c-0.3,0.3-0.5,0.7-0.7,1.1
					c-0.4,1.1-0.2,2.3,0.6,3.2c1.7,2.2,5,3,8,3.5c11.7,1.9,17.9,0.5,20.6-0.9l0.1-0.1c1-0.5,1.6-1.6,1.5-2.7c0,0,0-0.1,0-0.1
					c-0.1-0.6-0.2-1.2-0.4-1.8l0,0c0-0.1,0-0.1-0.1-0.2l0,0c0-0.1,0-0.1-0.1-0.1l0,0l-0.1-0.1l0,0l-0.1-0.1l0,0l-0.1-0.1l0,0
					c0,0,0-0.1-0.1-0.1l0,0l-0.1-0.1l0,0l-0.1-0.1l0,0l-0.1-0.1l0,0l-0.1-0.1l0,0l-0.1-0.1l0,0l-0.1-0.1l0,0l-0.1-0.1l0,0l-0.1-0.1
					l0,0l-0.1-0.1l0,0l-0.1-0.1l0,0l-0.1-0.1l0,0l-0.1-0.1v0l-0.1-0.1l0,0l-0.1-0.1h-0.1h-0.1c0,0-0.1-0.1-0.1-0.1
					c-0.5-0.4-1.1-0.8-1.8-1.1c-1.5-0.8-3.1-1.3-4.8-1.6c-1.2-0.3-2.4-0.5-3.6-0.7C118.3,257.2,116.8,261.8,116.8,261.8z"/>
				<path class="st40" d="M93.5,257.4c0,0-0.1,0.1-0.1,0.1l-0.1,0l-0.1,0.1l-0.1,0l-0.1,0.1l-0.1,0.1l-0.1,0.1h-0.1l-0.1,0.1l-0.1,0
					l-0.2,0.1l-0.2,0.1c0,1.5,0.7,2.9,1.9,3.7c1.5,1.2,3.3,2,5.2,2.5c2.1,0.6,4.3,0.9,6.5,1.1c2.3,0.2,4.6,0.1,6.9-0.4
					c1.9-0.5,3.9-1.5,4.1-3.3c0,0,1.6-4.6-8.4-6.1c-1.4-0.2-2.8-0.4-4.2-0.4H104h-0.6c-0.8,0-1.6,0-2.4,0c-1.6,0.1-3.1,0.3-4.6,0.8
					c-0.9,0.3-1.8,0.7-2.6,1.2L93.5,257.4L93.5,257.4z M98.4,261.5c-0.2,0-0.4,0-0.6,0c-0.2,0-0.3,0.1-0.5,0.1c-0.1,0-0.1-0.1,0-0.1
					c0.4-0.1,0.8-0.2,1.2-0.1c0.1,0,0.1,0.1,0.1,0.1C98.5,261.5,98.4,261.5,98.4,261.5L98.4,261.5L98.4,261.5z M100.5,263.1
					c-0.1,0-0.3-0.1-0.3-0.2c0-0.1,0-0.3,0.2-0.4c0.1,0,0.1,0,0.2,0c0,0.1,0,0.1,0,0.2l0,0c-0.1,0,0,0.2,0.1,0.2
					S100.6,263.1,100.5,263.1z M105.9,263.5c-0.4-0.1-0.8-0.1-1.1-0.3c-0.2,0-0.1-0.3,0.1-0.2c0.4,0.1,0.8,0.2,1.1,0.3
					C106,263.4,106,263.5,105.9,263.5z M105.2,262.7c0.2,0,0.1,0.2,0,0.2C105.1,262.9,105.1,262.9,105.2,262.7
					C105.1,262.8,105.1,262.7,105.2,262.7C105.2,262.7,105.2,262.7,105.2,262.7z M110.2,261.5c0,0.1-0.2,0.1-0.3,0
					c-0.1-0.1-0.1-0.2-0.1-0.3l0,0c-0.2,0.1-0.3,0.3-0.4,0.5c-0.1,0.1-0.3,0-0.2-0.1c0.1-0.3,0.2-0.5,0.4-0.6c0.1-0.1,0.2-0.1,0.2,0
					c0-0.1,0-0.2,0-0.4s0.3-0.2,0.4,0s0.1,0.3,0.1,0.4C110.3,261.2,110.2,261.4,110.2,261.5L110.2,261.5z M112.7,261.2
					c0.1,0,0.1-0.1,0.2-0.1l0.2-0.1c0.1,0,0.1,0,0.2,0.1c0.2,0.1,0.3,0.1,0.5,0.2s0,0.2-0.1,0.2c-0.2-0.1-0.4-0.1-0.7,0
					c0,0,0,0,0-0.1c0,0,0,0,0,0c0.1,0,0.2-0.1,0.3-0.1h-0.1H113c-0.1,0-0.2,0-0.2,0C112.7,261.3,112.6,261.2,112.7,261.2
					L112.7,261.2z M111.7,261L111.7,261c0-0.2,0.3-0.1,0.3,0l0,0c0,0,0.1,0.1,0.1,0.1l0.1,0.1c0,0.1,0,0.1-0.1,0.1H112
					c0,0.2,0,0.4-0.1,0.5c0,0.1-0.1,0.1-0.2,0c0,0,0,0,0,0c0-0.2,0-0.4,0-0.7C111.6,261.1,111.6,261.1,111.7,261L111.7,261z
					 M104,256.5c4.2,0.3,7.6,1.5,7.5,2.8c0,0.2-0.1,0.4-0.3,0.6l0.1,0.1c0,0,0,0.1-0.1,0.1H111c-1,0.6-2.1,0.9-3.2,1
					c0,0,0,0.1-0.1,0.1h-0.2l-0.9,0.1c0,0.1,0,0.1,0,0.2c0,0.1-0.1,0.1-0.2,0c-0.1-0.1-0.1-0.1-0.2-0.2c-0.9,0-1.7,0-2.6,0l-0.7-0.1
					l0.2,0.1c0.1,0.1,0,0.2-0.1,0.2h-0.1c-0.1,0.1-0.2,0.3-0.3,0.5s-0.2,0-0.2-0.1c0.1-0.2,0.1-0.3,0.2-0.5l-0.4-0.1
					c-0.1,0-0.1-0.1-0.1-0.1c-3.5-0.4-6-1.5-6-2.7C96.2,257,99.7,256.2,104,256.5L104,256.5z M95.6,260.7l0.8,0.1
					c0.2,0,0.1,0.2,0,0.2s-0.5-0.1-0.7-0.2C95.6,260.8,95.5,260.8,95.6,260.7C95.5,260.8,95.5,260.7,95.6,260.7L95.6,260.7z"/>
				<path class="st41" d="M102.1,261c0-0.1,0.1-0.2,0.2-0.2c0,0,0,0,0.1,0l0.4,0.1l0.2,0.1l0.7,0.1c0.9,0,1.7,0,2.6,0l-0.1-0.2
					c-0.1-0.1,0.1-0.2,0.2-0.2c0-0.1,0.1-0.1,0.2-0.1c0.4,0,0.9,0,1.2,0.3c0,0,0,0.1,0,0.1c1.1-0.1,2.2-0.4,3.2-1l-0.4-0.1h-0.1
					c-0.3,0.2-0.6,0.4-1,0.5c-0.1,0-0.2-0.1-0.1-0.2c0.2-0.1,0.4-0.3,0.6-0.4h-0.2c-0.2,0-0.2-0.2,0-0.2c0.2,0,0.4,0,0.6,0l0.4-0.2
					c0.2-0.1,0.4,0.1,0.2,0.2l-0.2,0.1c0.1,0,0.3,0.1,0.4,0.2c0.2-0.1,0.2-0.3,0.3-0.6c0.1-1.3-3.3-2.5-7.5-2.8s-7.7,0.5-7.8,1.8
					C96.1,259.5,98.6,260.6,102.1,261z M106.1,259.4c0.3-0.2,0.7-0.3,1-0.3c0.1-0.3,0.3-0.5,0.4-0.7c0.1-0.1,0.3,0,0.3,0.1
					s-0.2,0.4-0.3,0.5h0.2c0.3,0,0.3,0.3,0.1,0.3c-0.5,0.1-1,0.2-1.6,0.4c-0.1,0-0.2,0-0.2-0.1S106.1,259.5,106.1,259.4L106.1,259.4
					z M102.8,258.1c0.2-0.1,0.5-0.2,0.7-0.2c0.1,0,0.2,0.1,0.1,0.1c-0.2,0.1-0.4,0.2-0.6,0.3C102.8,258.4,102.7,258.2,102.8,258.1
					L102.8,258.1z M102.8,258.8c0.5,0.1,1,0.3,1.5,0.5c0.2,0.1,0.1,0.3-0.1,0.3c-0.5-0.1-1-0.3-1.5-0.5
					C102.6,259,102.7,258.8,102.8,258.8L102.8,258.8z M99.8,258.1c0.1,0,0.1-0.1,0.2-0.1l0.1-0.1c0.1-0.1,0.2-0.1,0.2,0
					c0,0.1,0,0.1-0.1,0.2c0,0,0,0-0.1,0h-0.2C100,258.1,100,258.1,99.8,258.1C99.9,258.1,99.9,258.1,99.8,258.1L99.8,258.1z
					 M99.2,259.1c0.4,0.2,0.8,0.4,1.1,0.7c0,0,0.1,0.1,0,0.2c0,0-0.1,0.1-0.2,0l0,0c-0.4-0.2-0.8-0.4-1.1-0.7
					C98.9,259.2,99.1,259,99.2,259.1L99.2,259.1z"/>
				<path class="st41" d="M106.5,261L106.5,261l0,0.1l0.9-0.1l-0.3,0C106.9,261,106.7,261,106.5,261z"/>
				<path class="st42" d="M85,263.7c0.7,0.5,1.5,0.9,2.4,1.1c0.7,0.2,1.4,0.5,2,1c1.3,1.1,2.3,2.4,3.9,3.3c1.8,0.9,3.7,1.4,5.7,1.4
					c2.3,0,4.6-0.1,6.8-0.4c1.1-0.2,2.1-0.2,3.2,0c0.7,0.2,1.5,0.5,2.1,0.9l0,0c0.1,0,0.1,0,0.1,0.1l0,0l0.2-0.1c0.1,0,0.1,0,0.2,0
					l0.4,0.3c0.1,0.1,0.3,0.2,0.4,0.3c0.1,0.1,0,0.2-0.1,0.2c-0.2,0-0.3-0.1-0.4-0.2l-0.4-0.2h-0.1l0.2,0.1c1.8,0.9,3.8,1.4,5.8,1.3
					c1-0.1,2-0.4,2.8-0.9c0.8-0.4,1.5-1,2.3-1.3c0.6-0.3,1.3-0.5,2-0.5c-0.7-0.1-1.3-0.1-2-0.1c-0.2,0-0.2-0.2,0-0.2
					c0.5,0,0.9,0,1.4,0.1c0,0,0-0.1,0-0.1c0,0,0,0,0,0c0.3-0.3,0.5-0.5,0.9-0.8c0.1-0.1,0.2,0,0.2,0.1c-0.2,0.3-0.5,0.6-0.8,0.8l0,0
					c0.4,0,0.8,0.1,1.2,0.2c0.7,0,1.4,0,2.1,0h0.7l0.4-0.1c0,0,0.1,0,0.1,0c0.1,0,0.1,0,0.2,0.1h0.8c0,0,0,0,0.1,0
					c0.3,0,0.5,0,0.8,0c0,0,0.1,0,0.1,0.1c0.8,0,1.7-0.1,2.5-0.2c1.8-0.3,3.6-1,4.4-2.4c0.5-0.7,0.5-1.7,0.1-2.4
					c-0.5-0.7-1.1-1.3-1.9-1.6c-1.9-0.9-4-1.2-6.1-1c-1.9,0.1-4,0.5-5.7-0.4c-0.8-0.4-1.5-0.9-2.1-1.4c-0.8-0.6-1.6-1.1-2.5-1.5
					c-0.8-0.4-1.7-0.7-2.5-0.9c0.6,0.3,1.2,0.7,1.8,1.1c0,0,0.1,0.1,0.1,0.1h0.1h0.1l0.1,0.1l0,0l0.1,0.1v0l0.1,0.1l0,0l0.1,0.1l0,0
					l0.1,0.1l0,0l0.1,0.1l0,0l0.1,0.1l0,0l0.1,0.1l0,0l0.1,0.1l0,0l0.1,0.1l0,0l0.1,0.1l0,0l0.1,0.1l0,0l0.1,0.1l0,0l0.1,0.1l0,0
					c0,0,0.1,0.1,0.1,0.1l0,0l0.1,0.1l0,0l0.1,0.1l0,0l0.1,0.1l0,0c0,0,0.1,0.1,0.1,0.1l0,0c0,0.1,0.1,0.1,0.1,0.2l0,0
					c0.2,0.6,0.4,1.2,0.4,1.8l0,0c0.4,0,0.8,0,1.2,0c1.6,0,3.5-0.2,5,0.5c0.1,0.1,0.3,0.1,0.4,0.3c0.2,0.1,0.5,0.2,0.7,0.3
					c0.1,0,0,0.1-0.1,0.1l-0.3-0.1c0.3,0.4,0.3,1-0.1,1.4c-0.4,0.5-0.9,0.9-1.5,1.1c-1.1,0.4-2.2,0.7-3.4,0.8l-1.3,0.1
					c0.1,0.1,0,0.2-0.1,0.2s-0.1-0.1-0.1-0.1H121c-0.5,0.1-1,0.2-1.4,0.4c-0.2,0.1-0.4,0.2-0.6,0.3c-0.2,0.1-0.3,0.3-0.5,0.4
					c-0.4,0.5-0.8,0.9-1.4,1.2c-0.2,0.2-0.5,0.3-0.7,0.3c0.1,0.1,0.2,0.2,0.1,0.3c0,0.1-0.1,0.1-0.2,0c0,0,0,0,0,0
					c-0.1-0.1-0.1-0.2-0.3-0.3c-0.2,0-0.4,0-0.6,0c0,0-0.1,0.1-0.1,0.1h-0.1c0.2,0.1,0.4,0.4,0.5,0.6c0,0.1-0.1,0.1-0.2,0.1
					s-0.3-0.3-0.4-0.4c-0.1-0.1-0.3-0.2-0.5-0.3c-0.1,0-0.1-0.1-0.1-0.1l-0.4-0.1c-0.2,0-0.1-0.2,0.1-0.2l0.6,0.2h0.2v-0.1l-0.3-0.1
					l-2.5-0.7c-1.6-0.4-3.3-0.8-4.9-1.1c-0.5-0.1-1.1-0.1-1.6-0.2c-0.3,0.1-0.7,0.2-1.1,0.3c-0.1,0-0.2-0.1-0.1-0.1
					c0.1-0.1,0.3-0.2,0.5-0.2c-0.9-0.1-1.9-0.1-2.8,0h-1l0.9,0.3c0.2,0,0.1,0.2-0.1,0.2c-0.5-0.1-1.1-0.2-1.6-0.4
					c-0.1,0.1-0.2,0.2-0.3,0.2c-0.1,0-0.2,0-0.1-0.1c0-0.1,0.1-0.1,0.1-0.2c-2.5,0-5.1-0.4-6.9-2l-0.3-0.4c0,0-0.1,0-0.1,0h-0.5
					c-0.1,0-0.3,0-0.4,0c0,0-0.1-0.1-0.1-0.1c0,0,0,0,0.1-0.1c0.3-0.1,0.5-0.1,0.8-0.1c-0.3-0.3-0.5-0.6-0.8-0.8
					c-0.4-0.4-0.9-0.7-1.5-0.9c-1.1-0.5-2.3-0.9-3-1.9c-0.1-0.2-0.2-0.4-0.2-0.5H87c-0.1,0.1-0.2,0.1-0.3,0.1
					c-0.2,0-0.3-0.1-0.4-0.3c-0.1-0.1,0.1-0.1,0.1-0.1l0.2,0.1c0.1-0.1,0.3-0.1,0.3,0H87c-0.1-1,0.4-2.1,1.3-2.6
					c0.3-0.2,0.7-0.4,1-0.5c0.2-0.4,0.6-0.6,1.1-0.5c0.3,0.1,0.6,0.1,0.8,0.1h0.7l0.2-0.1l0.1,0l0.1-0.1h0.1l0.1-0.1l0.1-0.1
					l0.1-0.1l0.1,0l0.1-0.1l0.1,0c0,0,0.1,0,0.1-0.1H93l0.2-0.1c-0.9,0.1-1.8,0.3-2.6,0.4c-1,0.2-2.1,0.5-3.1,0.8
					c-0.9,0.2-1.7,0.6-2.5,1.1C84.1,260.5,83.5,262.5,85,263.7z M133.9,267.6c0.3-0.1,0.7-0.1,1,0c0,0,0.1,0.1,0.1,0.1
					c0,0,0,0-0.1,0.1c-0.1,0.1-0.3,0.1-0.5,0.1H134c-0.1,0-0.1,0-0.2-0.1S133.8,267.7,133.9,267.6L133.9,267.6z M131.5,265.1
					c0.1,0,0.1,0,0.1,0.1c0,0.1,0,0.1-0.1,0.1c0,0,0,0-0.1,0C131.3,265.3,131.3,265.1,131.5,265.1L131.5,265.1z M129.6,265h0.4
					c0.1,0,0.3,0,0.4,0c0.1,0,0.1,0.1,0,0.2c-0.1,0.1-0.2,0.1-0.4,0.1h0c0.1,0.1,0.2,0.2,0.3,0.3v0.1c0,0,0.1,0,0.1,0
					c0.3,0.1,0.5,0.2,0.7,0.3c0,0,0,0.1,0,0.1c0,0,0,0-0.1,0c-0.3-0.1-0.5-0.1-0.8-0.2l0,0c0,0,0,0.1,0,0.1c0,0-0.1,0-0.1,0
					c-0.1-0.1-0.2-0.2-0.2-0.3c-0.1-0.1-0.2-0.3-0.3-0.4c0,0,0,0,0,0h-0.1C129.4,265.2,129.3,265,129.6,265L129.6,265z M124.2,262.2
					c-0.1,0-0.1,0-0.2,0h-0.2c-0.1,0-0.1,0-0.2-0.1s0-0.1,0.1-0.2c0,0,0,0,0.1,0h0.2c0.1,0,0.1,0,0.2,0.1
					C124.2,262.1,124.3,262.1,124.2,262.2C124.3,262.2,124.2,262.2,124.2,262.2L124.2,262.2z M128.5,263.7c-0.1,0.1-0.1,0.2-0.2,0.2
					c-0.1,0-0.1,0-0.1,0c0-0.1,0.1-0.2,0.1-0.3l0.1-0.3c0.1-0.1,0.3,0,0.2,0.1L128.5,263.7z M127.3,267c0.2-0.1,0.4,0.1,0.2,0.2l0,0
					c0,0.1,0,0.1,0,0.2c0,0,0,0.1,0,0.1l0,0c0,0,0.1,0.1,0.1,0.1c0,0,0,0.1-0.1,0.1l0,0c0,0.3-0.1,0.6-0.3,0.7
					c-0.1,0.1-0.2,0-0.2-0.1c0.2-0.2,0.2-0.5,0.2-0.8c0,0,0,0,0-0.1l0,0v-0.1c-0.1,0.1-0.1,0.2-0.2,0.3c0,0.1-0.3,0.1-0.2,0
					C126.9,267.3,127.1,267.1,127.3,267z M91.2,265.5C91.3,265.5,91.3,265.6,91.2,265.5c0.1,0.1,0.1,0.2,0,0.2c0,0,0,0,0,0
					C91.1,265.7,91.1,265.6,91.2,265.5L91.2,265.5z"/>
				<path class="st38" d="M120,268.7c0.5-0.2,0.9-0.3,1.4-0.4h0.2c0-0.1,0.1-0.1,0.2-0.1c0,0,0.1,0,0.1,0.1l1.3-0.1
					c1.2-0.1,2.3-0.3,3.4-0.8c0.6-0.2,1.1-0.6,1.5-1.1c0.3-0.4,0.3-1,0.1-1.4c-0.3-0.2-0.7-0.2-1.1-0.2c-0.2,0-0.1-0.2,0-0.2
					c0.3,0,0.5,0,0.8,0.1c-0.1-0.1-0.2-0.2-0.4-0.3c-1.5-0.7-3.3-0.5-5-0.5c-0.4,0-0.8,0-1.2,0c0,0,0,0.1,0,0.1
					c0.1,1.1-0.5,2.2-1.5,2.7l-0.1,0.1c-2.7,1.4-8.9,2.8-20.6,0.9c-3-0.5-6.3-1.3-8-3.5c-0.7-0.9-0.9-2.1-0.6-3.2
					c0.2-0.4,0.5-0.7,0.7-1.1l0.2-0.3c0.3-0.4,0.6-0.7,0.9-1l0.2-0.1l0,0h-0.7c-0.3,0-0.6,0-0.8-0.1c-0.4-0.1-0.9,0.1-1.1,0.5
					c-0.3,0.1-0.7,0.3-1,0.5c-0.9,0.5-1.4,1.5-1.3,2.6l0.5,0c0.2,0,0.2,0.2,0,0.2h-0.5c0.1,0.2,0.1,0.4,0.2,0.5c0.6,1,1.8,1.4,3,1.9
					c0.5,0.2,1,0.5,1.5,0.9c0.3,0.3,0.5,0.6,0.8,0.8h0.1c0.2,0,0.3,0.2,0.2,0.2l0.3,0.4c1.8,1.7,4.4,2,6.9,2l0,0l-0.4-0.2
					c-0.1,0,0-0.1,0-0.1c0.2,0,0.4,0,0.5,0.1c0-0.1,0.1-0.1,0.1-0.2c0-0.1,0.3-0.1,0.3,0.1c0,0.1,0,0.1-0.1,0.2l0.6,0.2h1
					c0.9-0.1,1.9-0.1,2.8,0c0.2-0.1,0.4-0.1,0.6-0.2c0.1,0,0.1,0,0.2,0c0,0.1,0,0.1,0,0.2c0,0,0,0,0,0l0,0c0.5,0,1.1,0.1,1.6,0.2
					c1.7,0.3,3.3,0.7,4.9,1.1l2.5,0.7l0.3,0.1h0.1h0.4c0.2,0,0.3,0,0.5,0h0.2c0.4-0.1,0.6-0.3,1-0.4c0.1,0,0.2,0,0.1,0.1
					c0,0.1-0.1,0.1-0.2,0.2c0.5-0.3,1-0.7,1.4-1.2 M99.9,268.7h-0.5c-0.1,0-0.3,0-0.4-0.1c-0.1,0-0.1-0.1,0-0.1c0.1,0,0.3,0,0.4,0
					h0.5c0.2-0.1,0.2,0.1,0,0.1L99.9,268.7z M103.8,268.7c-0.2,0-0.2-0.2,0-0.2c0-0.1,0.1-0.1,0.2,0c0.1,0,0.1,0.1,0,0.2
					C104,268.6,103.9,268.6,103.8,268.7c0-0.1,0-0.1,0-0.1L103.8,268.7z M117,270.7h-0.1c0,0-0.1,0-0.1-0.1c0,0,0,0,0,0
					c0,0,0.1-0.1,0.1-0.1h0.1c0,0,0,0,0,0L117,270.7z M119.2,268.2c-0.1,0-0.1,0.1-0.2,0.1l-0.2,0.1c-0.1,0-0.2,0-0.2-0.1
					c0-0.1,0-0.1,0.1-0.2c0,0,0,0,0,0h0.2c0.1,0,0.2,0,0.2,0c0,0,0,0,0,0L119.2,268.2z M122.8,265.8c0.1,0,0.1,0,0.2,0.1
					c0.3,0,0.5,0.2,0.6,0.5c0,0.3-0.2,0.6-0.5,0.6c0,0,0,0-0.1,0c-0.1,0-0.1-0.1-0.1-0.1s0.4-0.2,0.4-0.4c0-0.1,0-0.2-0.1-0.2
					c-0.1,0-0.2,0-0.3,0c-0.2,0-0.3-0.2-0.3-0.3c0-0.2,0.1-0.2,0.1-0.2L122.8,265.8z M121.6,267.8l0.2-0.3c0.1-0.1,0.4-0.1,0.3,0.1
					l-0.2,0.3c0,0.1-0.1,0.2-0.2,0.3c-0.1,0-0.2,0-0.2-0.1c0-0.1,0-0.3,0.1-0.4L121.6,267.8z"/>
				<path class="st32" d="M149.6,266.3L149.6,266.3z"/>
				<path class="st43" d="M111,259.6c0.2-0.1,0-0.3-0.2-0.2l-0.4,0.2c-0.2,0-0.4,0-0.6,0c-0.2,0-0.1,0.2,0,0.2h0.2
					c-0.2,0.1-0.4,0.2-0.6,0.4c-0.1,0.1,0,0.2,0.1,0.2c0.4-0.1,0.7-0.3,1-0.5h0.1l0.4,0.1h0.3c0.1,0,0.1-0.1,0.1-0.1l-0.1-0.1
					c-0.1-0.1-0.3-0.1-0.4-0.2L111,259.6z"/>
				<path class="st43" d="M106.3,259.7c0.5-0.2,1-0.3,1.6-0.4c0.3,0,0.2-0.3-0.1-0.3h-0.2c0.1-0.2,0.2-0.4,0.3-0.5s-0.2-0.3-0.3-0.1
					c-0.2,0.2-0.3,0.5-0.4,0.7c-0.3,0.1-0.7,0.2-1,0.3c-0.1,0-0.1,0.1-0.1,0.2S106.2,259.7,106.3,259.7z"/>
				<path class="st43" d="M102.7,259c0.5,0.2,1,0.4,1.5,0.5c0.2,0.1,0.3-0.2,0.1-0.3c-0.5-0.2-1-0.3-1.5-0.5
					C102.7,258.8,102.6,259,102.7,259z"/>
				<path class="st43" d="M99.9,258.2c0.1,0,0.1,0,0.2,0h0.2c0.1,0,0.1-0.1,0.1-0.1c0,0,0,0,0-0.1c-0.1-0.1-0.2-0.1-0.2,0l-0.1,0
					c0,0-0.1,0.1-0.1,0.1C99.8,258.1,99.8,258.2,99.9,258.2C99.9,258.2,99.9,258.2,99.9,258.2z"/>
				<path class="st43" d="M99.1,259.3c0.4,0.3,0.7,0.5,1.1,0.7c0,0,0.1,0,0.2,0c0,0,0-0.1,0-0.2c-0.3-0.3-0.7-0.5-1.1-0.7
					C99.1,259,98.9,259.2,99.1,259.3z"/>
				<path class="st43" d="M102.3,260.9c-0.1,0-0.2,0-0.2,0.1c0,0,0,0,0,0.1c0,0.1,0,0.1,0.1,0.1l0.4,0.1c-0.1,0.1-0.1,0.3-0.2,0.5
					c0,0.1,0.1,0.2,0.2,0.1s0.2-0.3,0.3-0.5h0.1c0.1,0,0.2-0.1,0.1-0.2l-0.2-0.1l-0.2-0.1L102.3,260.9z"/>
				<path class="st43" d="M107.7,260.9c-0.4-0.2-0.8-0.3-1.2-0.3c-0.1,0-0.1,0.1-0.2,0.1c-0.1,0-0.3,0-0.2,0.2l0.1,0.2
					c0,0.1,0.1,0.2,0.2,0.2c0.1,0,0.2,0,0.2,0c0-0.1,0-0.1,0-0.2l-0.1-0.1h0.1c0.2,0,0.4,0,0.6,0l0.3,0h0.2
					C107.8,261.1,107.8,261.1,107.7,260.9C107.8,261,107.8,260.9,107.7,260.9z"/>
				<path class="st43" d="M110.1,260.7c0-0.2-0.4-0.2-0.4,0s0,0.2,0,0.4c-0.1-0.1-0.2-0.1-0.2,0c-0.2,0.1-0.4,0.3-0.4,0.6
					c0,0.1,0.2,0.2,0.2,0.1c0.1-0.2,0.2-0.3,0.4-0.5l0,0c0,0.1,0,0.2,0.1,0.3c0.1,0.1,0.2,0.1,0.3,0c0-0.1,0-0.3,0-0.4
					C110.2,261,110.2,260.9,110.1,260.7z"/>
				<path class="st43" d="M111.6,261.8c0,0.1,0.1,0.1,0.2,0c0,0,0,0,0,0c0.1-0.2,0.1-0.4,0.1-0.5h0.1c0.1,0,0.2-0.1,0.1-0.1
					l-0.1-0.1c0,0-0.1-0.1-0.1-0.1l0,0c0-0.2-0.3-0.2-0.3,0l0,0c0,0,0,0.1,0,0.1C111.6,261.3,111.6,261.6,111.6,261.8z"/>
				<path class="st43" d="M112.7,261.3c0.1,0,0.2,0,0.2,0h0.2h0.1c-0.1,0-0.2,0-0.3,0.1c0,0,0,0,0,0.1c0,0,0,0,0,0
					c0.2-0.1,0.4-0.1,0.7,0c0.1,0,0.2-0.1,0.1-0.2s-0.3-0.1-0.5-0.2c0-0.1-0.1-0.1-0.2-0.1l-0.2,0.1c-0.1,0-0.1,0-0.2,0.1
					C112.6,261.2,112.7,261.3,112.7,261.3z"/>
				<path class="st43" d="M103,258.4c0.2-0.1,0.4-0.2,0.6-0.3c0.1,0,0-0.2-0.1-0.1c-0.2,0.1-0.5,0.1-0.7,0.2
					C102.7,258.2,102.8,258.4,103,258.4z"/>
				<path class="st43" d="M128.4,263.4l-0.1,0.3c0,0.1-0.1,0.2-0.1,0.3c0,0.1,0.1,0.1,0.1,0c0.1-0.1,0.1-0.2,0.2-0.2l0.1-0.3
					C128.7,263.3,128.5,263.3,128.4,263.4z"/>
				<path class="st43" d="M131.4,265.3c0.1,0,0.1,0,0.1-0.1c0-0.1,0-0.1-0.1-0.1c0,0,0,0-0.1,0C131.3,265.1,131.3,265.3,131.4,265.3
					z"/>
				<path class="st43" d="M105.9,263.3c-0.4-0.1-0.7-0.3-1.1-0.3c-0.2,0-0.3,0.2-0.1,0.2c0.4,0.1,0.8,0.2,1.1,0.3
					C106,263.5,106,263.4,105.9,263.3z"/>
				<path class="st43" d="M105.2,262.7C105.1,262.7,105.1,262.8,105.2,262.7c-0.1,0.1-0.1,0.2,0,0.2c0,0,0,0,0,0
					C105.3,262.9,105.3,262.7,105.2,262.7z"/>
				<path class="st43" d="M98.4,261.3c-0.4,0-0.8,0-1.2,0.1c-0.1,0-0.1,0.1,0,0.1c0.2,0,0.3,0,0.5-0.1c0.2,0,0.4,0,0.6,0
					c0.1,0,0.1,0,0.1-0.1C98.5,261.3,98.4,261.3,98.4,261.3z"/>
				<path class="st43" d="M95.5,260.8c0.2,0.1,0.5,0.1,0.7,0.2s0.2-0.1,0-0.2l-0.8-0.1C95.5,260.7,95.4,260.7,95.5,260.8
					C95.4,260.8,95.5,260.8,95.5,260.8z"/>
				<path class="st43" d="M112,271.4c-0.2,0-0.2,0.2,0,0.2S112.2,271.5,112,271.4z"/>
				<path class="st43" d="M117,270.5h-0.1c-0.1,0-0.1,0-0.1,0.1c0,0,0,0.1,0.1,0.1c0,0,0,0,0,0h0.1C117,270.6,117.1,270.6,117,270.5
					C117.1,270.5,117,270.5,117,270.5z"/>
				<path class="st43" d="M99.9,268.4h-0.5c-0.1,0-0.3,0-0.4,0c-0.1,0-0.1,0.1,0,0.1c0.1,0.1,0.3,0.1,0.4,0.1h0.5
					C100.1,268.6,100.1,268.4,99.9,268.4z"/>
				<path class="st43" d="M119.2,267.9c-0.1,0-0.2,0-0.2,0h-0.2c-0.1,0-0.1,0.1-0.1,0.1c0,0,0,0,0,0c0,0.1,0.1,0.1,0.2,0.1l0.2-0.1
					c0.1,0,0.1,0,0.2-0.1C119.2,268,119.2,268,119.2,267.9z"/>
				<path class="st43" d="M121.7,268.2c-0.1,0-0.1,0-0.2,0.1c0,0.1,0,0.1,0.1,0.1s0.2-0.1,0.1-0.2
					C121.8,268.2,121.8,268.2,121.7,268.2z"/>
				<path class="st43" d="M124.2,262.1c-0.1,0-0.1-0.1-0.2-0.1h-0.2c-0.1,0-0.1,0-0.2,0.1s0,0.1,0.1,0.2c0,0,0,0,0.1,0h0.2
					c0.1,0,0.1,0,0.2,0c0.1,0,0.1-0.1,0.1-0.1C124.3,262.1,124.2,262.1,124.2,262.1z"/>
				<path class="st43" d="M106,268.6c-0.2,0-0.4,0.1-0.6,0.2c-0.2,0.1-0.3,0.1-0.5,0.2c-0.1,0,0,0.1,0.1,0.1
					c0.4-0.1,0.7-0.1,1.1-0.3l0,0c0.1,0,0.1-0.1,0.1-0.2S106.1,268.5,106,268.6L106,268.6z"/>
				<path class="st43" d="M103.8,268.3c-0.2,0-0.2,0.2,0,0.2c0.1,0,0.1,0,0.1-0.1C104,268.4,104,268.3,103.8,268.3
					C103.9,268.3,103.8,268.3,103.8,268.3z"/>
				<path class="st43" d="M88.1,261.7l-0.5,0h-0.1c-0.1-0.1-0.3-0.1-0.3,0l-0.2-0.1c-0.1,0-0.2,0-0.1,0.1c0.1,0.1,0.2,0.2,0.4,0.3
					c0.1,0,0.2,0,0.3-0.1h0.2h0.5C88.2,262,88.3,261.8,88.1,261.7z"/>
				<path class="st43" d="M120,258.8L120,258.8L120,258.8c0.1,0.1,0.1,0.1,0.2,0.1s0.2-0.1,0.1-0.2c0,0,0-0.1-0.1-0.1l0,0l0,0H120
					c-0.1,0-0.1,0.1-0.1,0.1C119.9,258.7,119.9,258.8,120,258.8z"/>
				<path class="st43" d="M93.1,266.1L93.1,266.1c-0.4,0-0.6,0-0.9,0.1c0,0-0.1,0.1-0.1,0.1c0,0,0,0,0.1,0.1c0.1,0,0.3,0,0.4,0h0.5
					c0,0,0.1,0,0.1,0C93.4,266.3,93.3,266.1,93.1,266.1z"/>
				<path class="st43" d="M91.2,265.8C91.2,265.8,91.3,265.7,91.2,265.8c0.1-0.1,0.1-0.2,0-0.2c0,0,0,0,0,0
					C91.1,265.6,91.1,265.7,91.2,265.8z"/>
				<path class="st43" d="M100.6,263c-0.1,0-0.2-0.2-0.1-0.2c0.1,0,0.1-0.1,0-0.2c0-0.1-0.1-0.1-0.2,0c-0.1,0.1-0.2,0.2-0.2,0.4
					c0,0.1,0.2,0.2,0.3,0.2C100.6,263.1,100.6,263,100.6,263z"/>
				<path class="st43" d="M120.4,258.7c0.5,0.2,1,0.2,1.4-0.2c0.1-0.1-0.1-0.2-0.2-0.1c-0.3,0.2-0.7,0.2-1.1,0.1
					C120.4,258.4,120.2,258.6,120.4,258.7z"/>
				<path class="st5" d="M201.6,315.5c-50.1,20-86.8-7.9-86.8-7.9c0.3-3,0.5-7.1,0.8-11.6c5.3,3.5,21.9,13.2,43.1,14.2
					c14.3,0.7,28.7-1.4,42.3-6L201.6,315.5z"/>
				<path class="st44" d="M155.7,93.5l-3.3,0.2C153.5,93.7,154.6,93.6,155.7,93.5z"/>
				<path class="st44" d="M127.5,65.6c0,0,0,0.1,0,0.1l0,0C127.5,65.7,127.5,65.6,127.5,65.6z"/>
				<path class="st45" d="M95.5,120.6c0,0-7.9-79.8,58.1-89.1c1.4-0.2-1.5-0.1,0,0c12.6,0.5,70.3,12.5,66.4,87.8l1.5,0.6
					c0,0,15-68.7-44.9-87.2c-18-5.6-37.6-3.8-53.8,5.9c-18.7,11.1-35.8,33.2-27.4,83L95.5,120.6z"/>
				<g class="st46">
					<path class="st47" d="M150.9,268.3c0,0-4.3-9.3-0.1-16s17.1-3.6,22.9-4.6s6.8-6.5,1.7-7.6s-8.1,1.7-12.5-0.8s-2.5-7.1,0.1-6.5
						s4.2,3,6.6,2.2s-3.2-6.6-3.2-9.1s3.4-0.3,5.3,3.2s4,6.8,8.6,2.6s4.8-11.5,1.8-16s-4.1-6.3-2.8-7.4s6.2,5.1,8.5,6.6s5,0,5-6.5
						s-3.9-11.6-7.3-16.4s-6.6-11.8-4.3-19.6c-1.8,5.6-1.8,8.2,0.2,14.1s4.5,9.7,3.2,14s-7.3,2.6-11.1-2.4s-5.9-18.9-9.8-21.2
						s-11.8,1.8-10.9,9.9s7.7,12.5,12.4,18s7.6,11.3,4.5,14.2s-7.8-6.4-10.4-7.8s-5.1,0.7-3.7,4.9s3.4,8.2,2.6,12.5
						s-5.7,1.2-7.8-3.2s-3.3-11.4-5.4-11.9s-4,2.9-4.2,10.2s2.8,11.1,5.4,15.5s3.2,6.2,3.2,9.4S145.6,258.9,150.9,268.3z"/>
					<path class="st47" d="M186.8,161.2c-2.8,4.7-4,10.3-3.5,15.8c1,8.9,9.3,15.3,10.8,21c0.9,3.6,1,7.3,0.4,11
						c0.8-3.9,0.9-7.9,0.2-11.8c-1.2-5.7-7.4-11.6-9.8-18.6S185.1,164.4,186.8,161.2z"/>
					<path class="st47" d="M196.3,192.6c0.8,2,1.2,4.2,1.2,6.4c-0.2,2.5-0.8,4.9-1.6,7.3c1.2-2.1,1.9-4.4,2.1-6.8
						C198.2,197,197.6,194.6,196.3,192.6z"/>
					<path class="st47" d="M154.5,173.9c-4.1,2.4-6.7,6.8-6.8,11.6c-0.5,8.4,5.1,13.3,7.6,15.7c1.4,1.3,2.6,2.9,3.4,4.7
						c-1.1-2-2.7-3.8-4.5-5.1c-2.7-1.8-8.8-6.5-8.5-14.4S152.4,174.3,154.5,173.9z"/>
					<path class="st47" d="M185.3,220.9c0.6,3.5,0.2,7.2-1.2,10.5c-2.3,5-8.8,4.9-8.8,4.9s6.6,1.1,9.3-3.3S185.3,220.9,185.3,220.9z
						"/>
					<path class="st48" d="M169.5,193c0.1,0.2-3.2-11.6-7.1-13.7s-9.4,2.3-7.5,9.5s17,16.8,20.5,24.2s0.4,11.7,0.4,11.7
						s4.1-5.1-0.1-12.1s-11.3-12.8-15.7-17.5s-6.4-11-2.5-14S166,181.4,169.5,193z"/>
					<path class="st48" d="M184.2,193.2c1.3,2.6,1.4,5.6,0.5,8.3c-1.6,4.2-4.7,2.7-7.8,0.9s-5.5-6.7-5.5-6.7
						c1.4,3.4,3.9,6.2,7.1,7.9c5.1,2.5,6.3,0.4,6.9-2.9S184.2,193.2,184.2,193.2z"/>
					<path class="st48" d="M169.2,225.5c0,0-4.5-7.7-7.7-8.1s1.2,6.2,0.6,10.4s-2.8,7-8.1,3.9c2.8,1.1,5.6,2.1,6.9-1
						s1.1-5.1-0.4-9.2s-1.2-5,0.9-4.8S167.3,221.7,169.2,225.5z"/>
					<path class="st48" d="M159.4,238.5c0,0,0.2,3.1,6.4,3.3s11.6-0.3,10.5,2.4s-2,2.2-12,1.7s-14.3,6.4-14.3,6.4s3-4.8,7.7-6.2
						s9.6-0.5,13.1-0.4s5.3-1.7,3.9-2.6s-5.5-0.1-10-0.8S159.6,240,159.4,238.5z"/>
				</g>
				<path class="st49" d="M143,163.1c0,0-1.6,0.3,0.1,2C143.1,165.1,139,163.2,143,163.1z"/>
			</g>
		</g>
	</g>
</g>
<path class="st50" d="M37.5,10h225c13.8,0,25,11.2,25,25v280c0,13.8-11.2,25-25,25h-225c-13.8,0-25-11.2-25-25V35
	C12.5,21.2,23.7,10,37.5,10z"/>
</svg>
