<svg id="Layer_1" data-name="Layer 1" xmlns="http://www.w3.org/2000/svg" xmlns:xlink="http://www.w3.org/1999/xlink" viewBox="0 0 300 350"><defs><style>.cls-1,.cls-4{fill:#cbfdff;}.cls-1,.cls-30{stroke:#2ca0ce;stroke-width:3px;}.cls-1,.cls-11,.cls-12,.cls-22,.cls-23,.cls-24,.cls-28,.cls-29,.cls-30,.cls-6,.cls-7,.cls-8{stroke-miterlimit:10;}.cls-2{fill:#fff;}.cls-12,.cls-24,.cls-3,.cls-30{fill:none;}.cls-5{clip-path:url(#clip-path);}.cls-6{fill:#c975ef;}.cls-11,.cls-12,.cls-6,.cls-7{stroke:#422714;}.cls-7{fill:#a025ce;}.cls-16,.cls-8{fill:#fbd3c7;}.cls-28,.cls-8{stroke:#9e673f;}.cls-9{fill:#e8b6aa;}.cls-10{fill:#b223b1;}.cls-11{fill:#d4a0ef;}.cls-13{fill:#301108;}.cls-14{fill:#f1f7f0;}.cls-15{fill:#172d14;}.cls-17{fill:#9e673f;}.cls-18{fill:#f58778;}.cls-19{fill:#84211c;}.cls-20{fill:#e8524b;}.cls-21{fill:#e59876;}.cls-22{fill:#f48f78;stroke:#c46455;}.cls-23{fill:#15cc19;}.cls-23,.cls-24{stroke:#21100a;stroke-width:2px;}.cls-25{fill:#feab03;}.cls-26{fill:#e10f10;}.cls-27{fill:#fffeff;}.cls-28{fill:#46dbb4;}.cls-29{fill:#b64527;stroke:#7c2413;}.cls-31{clip-path:url(#clip-path-2);}.cls-32{clip-path:url(#clip-path-3);}</style><clipPath id="clip-path"><rect class="cls-1" x="12.5" y="10" width="275" height="330" rx="25"/></clipPath><clipPath id="clip-path-2"><circle class="cls-2" cx="-340" cy="570" r="196.51"/></clipPath><clipPath id="clip-path-3"><rect class="cls-3" x="-745.46" y="370.12" width="728.72" height="409.9"/></clipPath></defs><rect class="cls-4" x="12.5" y="10" width="275" height="330" rx="25"/><g class="cls-5"><path class="cls-6" d="M107.73,324.91l-.83,15.6s39.83,21.34,97.3,1.64c0,0,5.75-7.8.82-20.12Z"/><path class="cls-6" d="M197.63,289.74s12.86,31.2,39.41,36.4c0,0,24.53-3.15,16.42-33.94l-19.4-10.6S227.74,290,198.45,246c0,0-5.75-13.68-16.42-15S197.63,289.74,197.63,289.74Z"/><path class="cls-7" d="M114.16,232.54s8.76-8.49,26.27-10.67,43.24,3.55,43.24,3.55,23.81,25.46,21.08,99.08c0,0-17,10.94-49.81,10.4s-46.26-7.12-46.26-7.12,3.56-45.16,5.75-60.76S100.2,241,114.16,232.54Z"/><path class="cls-6" d="M140.7,215.3s-12.72.27-9.44,14.23S153,246.91,153,246.91s14-1.92,9.17-16.15Z"/><path class="cls-6" d="M160.41,228.71s2.6,11.22,13.41,14,12.86-18.2,5.06-22.45S166,217.49,166,217.49Z"/><path class="cls-8" d="M171.36,219.54c-.82,4.92-3.84,8.21-9.31,10.4s-21.9-7.66-20.94-12.59c0-.19.07-.36.1-.53a.09.09,0,0,0,0,0c.75-4.43-.38-5.44-.38-5.44,11.63-10.54,29.56-1.23,29.56-1.23-.82,4.14-.68,6.47-.29,7.77C170.55,219.42,171.36,219.54,171.36,219.54Z"/><path class="cls-9" d="M170.11,217.87c-11.3,3.22-22.35,1-28.89-1.1.75-4.43-.38-5.44-.38-5.44,11.63-10.54,29.56-1.23,29.56-1.23C169.58,214.24,169.72,216.57,170.11,217.87Z"/><ellipse class="cls-10" cx="198.71" cy="230.08" rx="6.11" ry="5.54"/><path class="cls-8" d="M120.45,316.29s-12.72-3.15-15.87,3,.27,8.75.27,8.75,9.72,8.62,17.65,8.62c0,0,3.84.83,5.34-1.77a2.85,2.85,0,0,0-1.09,4.24,8.51,8.51,0,0,0,12.31,1.23l1-2.05s2.19,4.24,7.39-.28c0,0,1.23-.54,1.09-4,0,0,4.79,4,8.35-3.69,0,0,5.48,1.92,4.38-6.84s-7.8-19.57-13-20.66c0,0-2.6.54-11.77,8.48s-12.18,9.72-12.18,9.72Z"/><path class="cls-8" d="M125,320.66s-2.33.14-2.47,4.66"/><path class="cls-8" d="M139.61,338.73s1.64-8.49,1.37-14.1"/><path class="cls-8" d="M148.5,334.07a67.76,67.76,0,0,0,.42-10.94"/><path class="cls-8" d="M156.3,331.2s1-7.25.14-11.9"/><path class="cls-6" d="M127.43,262.3s-3.49,18.06-11.9,6.78l-19.3,9.85a167.43,167.43,0,0,0,12.63,22.29,120.79,120.79,0,0,0,12.21,15.48s-16.63-1.64-17.25,10.67a86,86,0,0,1-16-11.12,94.74,94.74,0,0,1-26.71-37.12s-.41-5.13,8.42-14.36,25.66-25.66,25.66-25.66S107.73,226,122.3,228.84C122.3,228.84,131.54,238.08,127.43,262.3Z"/><path class="cls-11" d="M121.07,316.7s-16.63-1.64-17.25,10.67a86,86,0,0,1-16-11.12,20.75,20.75,0,0,1,10-13.31,15.6,15.6,0,0,1,11-1.72A120.79,120.79,0,0,0,121.07,316.7Z"/><path class="cls-6" d="M96.23,278.93s-8.82-6.16-16.21,2.26"/><line class="cls-12" x1="114.84" y1="269.49" x2="123.53" y2="264.77"/><path class="cls-13" d="M202.76,100.35s13.73,24.91,14.17,49.18,13.46,57.15,13.46,57.15l-9.93-2.87c1.54,3.75-15,7.5-15,7.5l-4.19-7.94L199.72,214s-24.94,11.91-36.85,2.2c0,0-30.23,18.1-56.26,17.88s-36.85-73.48-36.85-73.48S85,82.89,135.07,85.1,199.67,77.4,202.76,100.35Z"/><path class="cls-8" d="M207,161.22c-1.55,38.17-30.67,55.83-57.59,53.84-32-2.36-55.64-29.21-55.64-62.78s9.93-71.64,73.51-66.08C207.66,89.73,208.36,127.68,207,161.22Z"/><ellipse class="cls-14" cx="188.11" cy="143.74" rx="12.74" ry="14.39" transform="translate(-4.81 6.53) rotate(-1.96)"/><path class="cls-15" d="M189.81,158.07a12,12,0,0,1-9.9-3.17,15.65,15.65,0,0,1-4.92-9.47,16.09,16.09,0,0,1,2.17-10.66,13.25,13.25,0,0,1,9.13-6.2,12.69,12.69,0,0,1,10.43,3.58,15.62,15.62,0,0,1,4.49,9.9,16.13,16.13,0,0,1-2.66,10.34A12.54,12.54,0,0,1,189.81,158.07Zm0-.1a12.38,12.38,0,0,0,8.56-5.71,15.63,15.63,0,0,0,2.32-10.15,15.05,15.05,0,0,0-4.54-9.33,11.74,11.74,0,0,0-9.7-3.22,12.35,12.35,0,0,0-8.55,5.68,15.62,15.62,0,0,0-2.34,10.13,15.06,15.06,0,0,0,4.53,9.35A11.76,11.76,0,0,0,189.79,158Z"/><ellipse class="cls-15" cx="189.92" cy="149.74" rx="7.16" ry="8.16"/><ellipse class="cls-14" cx="186.18" cy="154.05" rx="1.26" ry="1.43"/><ellipse class="cls-14" cx="141.36" cy="152.71" rx="13.93" ry="14.4" transform="translate(-18.48 19.47) rotate(-7.4)"/><path class="cls-15" d="M143.22,167a13.75,13.75,0,0,1-10.52-2.9,15.21,15.21,0,0,1-3.12-20.62,14.13,14.13,0,0,1,20.81-2.7,15.21,15.21,0,0,1,2.25,20.73A13.71,13.71,0,0,1,143.22,167Zm0-.1a13.61,13.61,0,0,0,9.25-5.53,14.65,14.65,0,0,0-2.6-19.92A13.55,13.55,0,0,0,130.28,144,14.64,14.64,0,0,0,132.85,164,13.56,13.56,0,0,0,143.2,166.94Z"/><ellipse class="cls-15" cx="143.34" cy="158.71" rx="7.83" ry="8.16"/><ellipse class="cls-14" cx="140.91" cy="163.98" rx="1.38" ry="1.43"/><path class="cls-8" d="M171.14,151.43l-.3,1.29a15.55,15.55,0,0,0,.61,9.15h0a3.42,3.42,0,0,0,3.06,2.21c1.67.07,3.79.34,4.41,1.25,1.08,1.57-.66,6.12-5.87,7.7a7.57,7.57,0,0,1-8.19-2.49"/><path class="cls-16" d="M174.51,164.08s-3.53-.65-5.77,1"/><path class="cls-17" d="M174.42,164.57a10.22,10.22,0,0,0-2.86-.28,6.05,6.05,0,0,0-2.82.79,6.39,6.39,0,0,1,2.75-1.28,11.28,11.28,0,0,1,1.53-.22,10.43,10.43,0,0,1,1.58,0Z"/><path class="cls-18" d="M144.09,182.71S152,194,162.37,196.36c0,0,6.59,1.14,12.08-.44a8.4,8.4,0,0,0,5.2-4.31l6.64-13.2S168.83,187,144.09,182.71Z"/><path class="cls-19" d="M144.75,182.63s7.2,8.93,17.54,11.33c0,0,7.49.86,13.1-1.54a7.69,7.69,0,0,0,3.58-3.23l5.83-10S169.49,186.93,144.75,182.63Z"/><path class="cls-14" d="M181,180.31a29.14,29.14,0,0,0-3.72,5.21s-15.72,7-30.62-2.15l18.54.25Z"/><path class="cls-18" d="M143.92,182.38s24.25,4,45.26-5.46C189.18,176.92,168.83,190,143.92,182.38Z"/><path class="cls-20" d="M153.52,189.82s6.67-2,11.35-.66c0,0,4.29-1.32,7.33.75,0,0,2.34,1.32,2.34,2.81A21.88,21.88,0,0,1,153.52,189.82Z"/><path class="cls-21" d="M145.16,180.31s-2.07,3.47-2.07,6.12c0,0-1.24-4.38,2.07-6.45"/><path class="cls-13" d="M214.94,115.77l-19.86-3.09-4.41-11.25.88,10.81-19.63,2.42-4-11.91,1.76,12.8-23,4-3.53-10.37L143,120.62s-31.77,6.4-37.29,17.66c0,0-3.31,21.61,4.19,30.22a43,43,0,0,0-17-5.95c-4.41-.58-6.48-1.78-7.43-3,2.26,12.28,6.54,55.36,27,69.86,0,0-6.57-1-12.93,5.34L91.31,243l-6,1-15.8,1.44s-22.08-42.55-23.62-93.74S65.56,56.42,110.13,50.9c34.15-4.23,49.65,2.16,55,5.39A13.33,13.33,0,0,1,167.51,58s12.13,2.43,15.55,8.73a1.92,1.92,0,0,1,.11.54s11.69,2.87,18.31,12.13C216.54,100.44,214.94,115.77,214.94,115.77Z"/><path class="cls-22" d="M183.06,66.69c-28.14-7.5-70.24,2.35-89,29.22-20.52,29.35-8.6,64.87-8.6,64.87H79.91S57.65,127,89.18,86.65C112,57.47,146.6,55.48,167.5,57.3h0S179.42,58.18,183.06,66.69Z"/><path class="cls-15" d="M176.77,122.83a71,71,0,0,1,22.06,1.32l-.22-1.54S178.09,112.9,176.77,122.83Z"/><path class="cls-15" d="M147.68,127.54a64.6,64.6,0,0,0-19.77,7.32l-.24-1.54S143.62,118.4,147.68,127.54Z"/><path class="cls-8" d="M104.08,161.16s-9.56-15.22-23-11S74.4,174.18,85,178.81s17.08-2.42,17.08-2.42"/><path class="cls-8" d="M77.6,161.82s5.3-11.47,17.43,5.74c0,0-6.62-1.76-7.72,3.31s6,2.87,6,2.87"/><circle class="cls-23" cx="98.23" cy="190.62" r="5.19"/><path class="cls-24" d="M95.47,175.72s-3.09,7.51,1.11,13.24"/><line class="cls-24" x1="98.12" y1="179.03" x2="98.23" y2="185.43"/><path class="cls-25" d="M238.48,219.3c0,14.37-12.82,24.84-29.77,24.84s-32.12-14.68-32.12-29,14.15-25,31.1-25S238.48,204.93,238.48,219.3Z"/><ellipse class="cls-10" cx="225.7" cy="210.27" rx="6.11" ry="5.54"/><ellipse class="cls-10" cx="198.71" cy="230.08" rx="6.11" ry="5.54"/><ellipse class="cls-26" cx="203.58" cy="212.17" rx="6.11" ry="5.54"/><ellipse class="cls-27" cx="186.24" cy="209.6" rx="6.11" ry="5.54"/><ellipse class="cls-27" cx="199.38" cy="196.87" rx="6.11" ry="5.54"/><ellipse class="cls-26" cx="212" cy="189.18" rx="6.11" ry="5.54"/><ellipse class="cls-28" cx="217.63" cy="237.88" rx="30.52" ry="9.16" transform="translate(-76.73 106.35) rotate(-23.47)"/><ellipse class="cls-29" cx="217.63" cy="237.88" rx="30.52" ry="9.16" transform="translate(-76.73 106.35) rotate(-23.47)"/><path class="cls-29" d="M242.1,233.5C243.6,237,262.9,313.69,254,316c-7,1.84-51.32-60.45-52.82-63.9s6.18-9.79,18.14-15S240.6,230,242.1,233.5Z"/><path class="cls-29" d="M207.8,261.67a83.14,83.14,0,0,1,33.54-23,4.22,4.22,0,0,1,5.36,5.57l-.06.14a97,97,0,0,0-34,23.74s-2.84.8-4.7-1A4,4,0,0,1,207.8,261.67Z"/><path class="cls-29" d="M216.73,275.42a74.65,74.65,0,0,1,30.1-20.68,3.79,3.79,0,0,1,4.82,5l-.06.12a87.12,87.12,0,0,0-30.54,21.32,4.72,4.72,0,0,1-4.22-.92A3.56,3.56,0,0,1,216.73,275.42Z"/><path class="cls-29" d="M227.2,289.37a65.56,65.56,0,0,1,26.39-18.13,3.32,3.32,0,0,1,4.22,4.38,1.17,1.17,0,0,1-.05.11A76.41,76.41,0,0,0,231,294.42a4.13,4.13,0,0,1-3.69-.81A3.11,3.11,0,0,1,227.2,289.37Z"/><path class="cls-29" d="M237.3,301.77a37.1,37.1,0,0,1,16.57-11.48c1.85-.67,3.11,1.66,2.33,3.42,0,0-.67.38-.69.41s-7.23,2.13-15.62,11a2.89,2.89,0,0,1-2.53-.53A2,2,0,0,1,237.3,301.77Z"/><path class="cls-8" d="M232.63,274.82s-3.49,4.72,1.43,6.78,6.57-3.9,13.35,1.23,8.41,10.06,8.41,10.06,6.57-14.58-1.85-38.8c0,0-5.33-14.37-22.57-11.7,0,0-12.08,1-10.47,6.84.82,3,4.31,3.42,11.49,4.45,0,0-10.26,1.64-7.39,7.8,0,0,1.23,3.08,8,2.67,0,0-5.13,2.67-4.72,6.36S232.63,274.82,232.63,274.82Z"/><path class="cls-8" d="M231.6,276.33s.82-3.7,10.13-3.83,10.4,4.92,10.4,4.92"/><path class="cls-8" d="M231.05,265.38s8.21-6,20.39,1.37"/><path class="cls-8" d="M230.78,254.16S241,250.88,253,257.31"/></g><rect class="cls-30" x="12.5" y="10" width="275" height="330" rx="25"/><circle class="cls-2" cx="-340" cy="570" r="196.51"/></svg>