<svg xmlns="http://www.w3.org/2000/svg" xmlns:xlink="http://www.w3.org/1999/xlink" viewBox="0 0 300 350"><defs><style>.cls-1,.cls-4{fill:#fcfcfc;}.cls-1,.cls-76{stroke:#2ca0ce;}.cls-1,.cls-20,.cls-43,.cls-44,.cls-47,.cls-48,.cls-49,.cls-53,.cls-61,.cls-76{stroke-miterlimit:10;}.cls-1,.cls-20,.cls-76{stroke-width:3px;}.cls-2,.cls-20,.cls-76{fill:none;}.cls-3{isolation:isolate;}.cls-5{clip-path:url(#clip-path);}.cls-6{clip-path:url(#clip-path-2);}.cls-7{fill:url(#linear-gradient);}.cls-8{fill:url(#linear-gradient-2);}.cls-9{fill:url(#linear-gradient-3);}.cls-10{fill:url(#linear-gradient-4);}.cls-11{fill:#6adb6a;}.cls-12{fill:#3dbf47;}.cls-13{fill:#12602e;}.cls-14{fill:#317224;}.cls-15{fill:#009245;}.cls-16,.cls-53{fill:#fff;}.cls-17{fill:#faf045;}.cls-18{fill:#2a96d8;}.cls-19{fill:#4454a3;}.cls-20{stroke:#287c4c;}.cls-21{fill:#48c0ef;}.cls-22{fill:#1e2f6b;}.cls-23{fill:#6bd6f7;}.cls-24{fill:#bf6823;}.cls-25{fill:#ffde39;}.cls-26{fill:#063a19;}.cls-27{fill:#f7b746;}.cls-28{fill:#41c44e;}.cls-29{fill:#63b52d;}.cls-30{fill:#ff1dc5;}.cls-31{fill:#28251f;}.cls-32{fill:#902c17;}.cls-33{fill:#e43d0d;}.cls-34{fill:#00863b;}.cls-35{fill:#c5c4e6;}.cls-36{fill:#bfbee3;}.cls-36,.cls-38{opacity:0.5;mix-blend-mode:multiply;}.cls-37,.cls-38{fill:#b3b2de;}.cls-39{fill:#e6e6fc;}.cls-40{fill:#063504;}.cls-41{fill:#342516;}.cls-42{fill:#ea5f2f;}.cls-43,.cls-51{fill:#c975ef;}.cls-43,.cls-47,.cls-48,.cls-49{stroke:#422714;}.cls-44,.cls-45{fill:#fbd3c7;}.cls-44{stroke:#9e673f;}.cls-46{fill:#9e673f;}.cls-47{fill:#d4a0ef;}.cls-48{fill:#a025ce;}.cls-49{fill:#fe635f;}.cls-50{fill:#e8b6aa;}.cls-52{fill:#422714;}.cls-53{stroke:#3d2d16;stroke-width:0.75px;}.cls-54{fill:#3d2d16;}.cls-55{fill:#8c3d35;}.cls-56{fill:#7a2f2b;}.cls-57{fill:#fff7f4;}.cls-58{fill:#f58778;}.cls-59{fill:#f48a71;}.cls-60{fill:#c4947a;}.cls-61{fill:#f4ff00;stroke:#d4d100;}.cls-62{fill:#d4c500;}.cls-63{fill:#103a00;}.cls-64{fill:#d6615a;}.cls-65{fill:#f46e67;}.cls-66{fill:#1c4f07;}.cls-67{fill:#397a17;}.cls-68{fill:#b51212;}.cls-69{fill:#ffb3b3;}.cls-70{fill:#f46e6e;}.cls-71{fill:#ff514d;}.cls-72{fill:#873533;}.cls-73{fill:#fbcc72;}.cls-74{fill:#ffaeae;}.cls-75{fill:#fff2dc;}</style><clipPath id="clip-path"><rect class="cls-1" x="12.5" y="10" width="275" height="330" rx="25"/></clipPath><clipPath id="clip-path-2"><rect class="cls-2" x="-228.63" y="7.99" width="593.83" height="334.03"/></clipPath><linearGradient id="linear-gradient" x1="70.61" y1="315.97" x2="69.51" y2="-38.52" gradientUnits="userSpaceOnUse"><stop offset="0.61" stop-color="#c0feff"/><stop offset="0.68" stop-color="#b1fdff"/><stop offset="0.82" stop-color="#8bfbff"/><stop offset="0.99" stop-color="#55f7ff"/></linearGradient><linearGradient id="linear-gradient-2" x1="119.19" y1="-73.07" x2="48.62" y2="177.35" gradientUnits="userSpaceOnUse"><stop offset="0.1" stop-color="#92e56c"/><stop offset="0.14" stop-color="#84d9ef"/><stop offset="0.41" stop-color="#85e0ef"/><stop offset="0.61" stop-color="#86eaef"/></linearGradient><linearGradient id="linear-gradient-3" x1="-185.96" y1="168.51" x2="234.52" y2="-40.74" gradientUnits="userSpaceOnUse"><stop offset="0.02" stop-color="#57d8e5"/><stop offset="0.55" stop-color="#6adde8"/><stop offset="0.78" stop-color="#73dfea"/></linearGradient><linearGradient id="linear-gradient-4" x1="70.3" y1="450.04" x2="66.03" y2="-31.41" gradientUnits="userSpaceOnUse"><stop offset="0.39" stop-color="#4ece54"/><stop offset="0.46" stop-color="#54d157"/><stop offset="0.54" stop-color="#66d961"/><stop offset="0.64" stop-color="#82e670"/><stop offset="0.74" stop-color="#a6f784"/></linearGradient></defs><g class="cls-3"><g id="Layer_1" data-name="Layer 1"><rect class="cls-4" x="12.5" y="10" width="275" height="330" rx="25"/><g class="cls-5"><g class="cls-6"><rect class="cls-7" x="-231.85" y="-2" width="603.43" height="159.04"/><path class="cls-8" d="M-231.93,35.94s127.22-73.6,294.27-15.78C202.09,54,281.6,61.21,349.49,49.14S396.55,78,396.55,78l-628.48-.41Z"/><path class="cls-9" d="M-231.17,42.7C-185.82,27.89-151,28.13-127.78,31-81.51,36.6-74.62,53.4-28.62,53.85c35.47.36,49.58-7.28,83.91-3,12.35,1.55,29.77,6,49.65,19.38A282.86,282.86,0,0,1,200.31,58a278.38,278.38,0,0,1,93.36,20.15l-524.84-.47Z"/><polygon class="cls-10" points="371.58 344.73 -234.24 344.16 -237.82 77.21 371.81 77.21 371.58 344.73"/><path class="cls-11" d="M-235.78,134.31c129.6-15.39,221-13.88,292.65-11.07,127.74,5,168,24.32,288.46,13.63,79-7-33,37-166.33,63.69-113.23,22.68-233.85,2.88-344.62,35.55-8.57,2.53-42.88,13.67-60.51-2.82a27.55,27.55,0,0,1-7-10.3C-242.29,199.31-235.78,134.31-235.78,134.31Z"/><path class="cls-12" d="M-241.89,191.75A792,792,0,0,0-103.27,211C28,217.53,82.44,191,281.26,165.22c57.27-7.42,86.69-22.44,89-5.54.7,5.17,26.23,107.32-30.14,104.57,0,0-154.83-13.07-581.57,41.12Z"/><path class="cls-13" d="M-230.43,62.16s77.06-27,86.18,44c41.26-14.22,77.76,57,47.8,83.18C-74.11,176.5-77.24,207-77.24,207c18.93-20.15,39.09,9.07,38.54,23.07,16.35-31.65,55.57,1.22,56.66,24.35C19.6,213,59.37,217.9,71.9,234.33c0-31.65,30-15.82,34.87-1.21,9.81-40.79,71.92-25,80.09,14.61,9.8-15.22,25.6-4.87,27.78-1.83,7.09-31.65,34.87-12.78,37.05,0,28.88-31.65,54.89-.43,54.89-.43,12.12-33.05,41.22-16.63,49.28-8.71,10.68-24.94,7.32-26.13,22.35-16.55-9-5.76-5.89,50.56-1.6,125.52H-235.78Z"/><path class="cls-14" d="M91.82,217c-1.33,6.34-2.6,12.66-3.74,19-.55,3.17-1.12,6.33-1.56,9.5S85.6,251.8,85.3,255s-.62,6.36-.73,9.54-.16,6.37,0,9.54a62.42,62.42,0,0,0,1.16,9.44,34.2,34.2,0,0,0,3.12,9.05,27.71,27.71,0,0,1-4.54-8.66,50.4,50.4,0,0,1-2.07-9.63,76.81,76.81,0,0,1-.49-9.82c0-3.27.28-6.53.59-9.77a141.22,141.22,0,0,1,3.48-19.2A127.53,127.53,0,0,1,91.82,217Z"/><path class="cls-15" d="M82.37,264.17S79.08,246.82,71,244.79C71,244.79,70.76,263.08,82.37,264.17Z"/><path class="cls-15" d="M84,257.82s10.9-8.52,14.22-16.4C98.2,241.42,88.26,240.47,84,257.82Z"/><path class="cls-15" d="M84.44,282.88s-7.57-13.77-16-14.61C68.46,268.27,68.42,281.42,84.44,282.88Z"/><path class="cls-15" d="M84.34,239.81s-.73-9.43-8.78-14.33c0,0,1,14.52,8.53,20.42Z"/><path class="cls-16" d="M94.66,207.65l-5.24-9s-8,3.6-8.06,6.61S92,210.05,92,210.05Z"/><path class="cls-16" d="M97.3,210.31s9.7-1.32,9.7-4.47-7.61-9.72-9.46-7-2.88,8.84-2.88,8.84Z"/><path class="cls-16" d="M97.3,210.31s12.32-.19,10.35,4.86-6.92,7.32-11.94,0"/><path class="cls-16" d="M90.76,211.51s-7.28-2.58-11-1.53,2.68,11.21,4,9.59S92,215.76,92,215.76Z"/><path class="cls-16" d="M93.33,211.71s-5.41,7.94-3.74,10.12,10.31,3.94,9.82.31A81.55,81.55,0,0,0,97.3,213Z"/><ellipse class="cls-17" cx="93.33" cy="211.71" rx="4.27" ry="4.17" transform="translate(-136.88 234.75) rotate(-71.93)"/><path class="cls-18" d="M41.54,274.23c.93-12.47,14.27-6.38,12.29,1.74,8.32-5.55,15.16,9.7,5.13,13.32,7.34,2.72-.06,18.43-8.38,11-.57,7.51-14,8.25-12.31-3.13-5.7,5.36-17.79-5.08-5.8-12.53-6.6-5,1.1-14.12,7.66-10.9Z"/><ellipse class="cls-19" cx="46.35" cy="287.51" rx="8.32" ry="8.28" transform="translate(-244.81 293.18) rotate(-81.96)"/><path class="cls-15" d="M44.58,316.66s.26-11.18,17.2-9.91c0,0-2,13.92-17.64,13Z"/><path class="cls-15" d="M45,316.66s-.26-11.18-17.2-9.91c0,0,2,13.92,17.64,13Z"/><path class="cls-15" d="M40.62,329.75s-.27-11.18-17.2-9.91c0,0,2,13.92,17.63,13Z"/><path class="cls-15" d="M40.3,330.27s5.2-9.79,19.29-11c0,0-3.11,12.79-19.85,14.94Z"/><path class="cls-20" d="M44.05,305.93c0,3.82,1.94,11.92-1.49,21.59a39.85,39.85,0,0,1-17.71,20.94"/><path class="cls-21" d="M32.47,284.61s-4.56,2.07-5.12,6.3,2.75,6.27,4.89,7.29C32.24,298.2,23.37,292.83,32.47,284.61Z"/><path class="cls-21" d="M32.47,284.61s-5-2.44-1.91-8.08,9.05-3.47,11-2.21a10.09,10.09,0,0,0-7-.25C32.05,274.93,28.3,279.47,32.47,284.61Z"/><path class="cls-21" d="M41.54,274.32s-.08-6.34,4.81-7.16,7.4,4.28,7.54,5.78a15.56,15.56,0,0,1-.06,3s-.31-6.07-4.86-7.59S41.5,272.87,41.54,274.32Z"/><path class="cls-21" d="M53.83,276a5.87,5.87,0,0,1,8.39,1.38c3.85,4.87,1.19,10.86-3.26,11.94,0,0,4.56-2.81,4-6.93S60.12,274.27,53.83,276Z"/><path class="cls-21" d="M59,289.29s5.16,1.41,1.9,8.91S50.79,301,50.58,300.27s6.16,4.21,9.45-2.56S59,289.29,59,289.29Z"/><path class="cls-21" d="M38.27,297.14s-1.7,6.87,4,8.79,8.78-3.55,8.31-5.66A6,6,0,0,1,44,304.94C38.39,304.53,38.27,297.14,38.27,297.14Z"/><circle class="cls-22" cx="46.35" cy="287.71" r="5.68"/><path class="cls-18" d="M312.13,195.89c.93-12.47,14.27-6.39,12.29,1.73,8.32-5.54,15.15,9.7,5.13,13.33,7.34,2.71-.07,18.43-8.38,11-.58,7.51-14,8.26-12.31-3.12-5.71,5.36-17.79-5.09-5.8-12.53-6.6-5,1.1-14.12,7.66-10.9Z"/><path class="cls-15" d="M315.57,238.32s-.27-11.19-17.2-9.91c0,0,2,13.92,17.63,13Z"/><path class="cls-15" d="M311.2,251.41s-.26-11.19-17.19-9.91c0,0,2,13.92,17.63,13Z"/><path class="cls-20" d="M314.64,227.59c0,3.82,1.94,11.91-1.49,21.59a39.78,39.78,0,0,1-17.72,20.93"/><path class="cls-23" d="M303.06,206.27s-4.56,2.07-5.12,6.3,2.74,6.26,4.88,7.29C302.82,219.86,294,214.49,303.06,206.27Z"/><ellipse class="cls-24" cx="170.49" cy="233.68" rx="18" ry="15.23"/><path class="cls-25" d="M174.89,240.66s13.6,5.13,17.6,11.38c8,7.81-7.2,20.3-16,12.49a27.59,27.59,0,0,1-5.6-19.52S171.69,240.21,174.89,240.66Z"/><path class="cls-25" d="M180.49,234.07s8-3.12,20.8,2.35.8,23.43-8.8,15.62-15.65-11-16.62-11S176.49,234.86,180.49,234.07Z"/><path class="cls-25" d="M184.49,227.83s9.6-7,20-6.25,9.53,15.9,2.36,17.32c-8.72-3.4-21.86-6.6-24.11-5.71S182.89,228.61,184.49,227.83Z"/><path class="cls-25" d="M178.89,222.36s8-23.43,27.2-12.5c0,0,8.73,8.77.76,12.2s-21.33,5.07-21.33,5.07S180.49,222.36,178.89,222.36Z"/><path class="cls-25" d="M171.69,223.14s-2.39-12.84,2-16.18,15.45-5.12,17.52,1.63l-11.57,14S173.29,222.36,171.69,223.14Z"/><path class="cls-25" d="M171.69,223.14a27.92,27.92,0,0,0,1.13-4.56c.47-2.91.56-6.63-1.13-9.24-3.2-4.94-19.09,1.61-15.54,7.7a33.44,33.44,0,0,1,9.14,9.22S170.89,223.14,171.69,223.14Z"/><path class="cls-25" d="M165.29,226.26s-2.4-8.59-11.2-8.59-12.24,11.8-9.32,12.54c12.25,2.26,13.11,3,13.11,3Z"/><path class="cls-25" d="M157.88,233.19s-11.79-6.14-19-1.46-4.8,13.28-3.2,13.28,10.29-8.77,19.95-5.17A65.66,65.66,0,0,0,157.88,233.19Z"/><path class="cls-25" d="M154.84,239.06l.87,2v.18a3.39,3.39,0,0,0,.27,1.26l-1.14.33c-5.66,1.7-12.75,12.36-14.35,16.27s-7.09,2.27-7.3-8.52C135.48,237.34,154.84,239.06,154.84,239.06Z"/><path class="cls-25" d="M154.89,242.67a32,32,0,0,0-5.09,3.58,33.53,33.53,0,0,0-10.11,15.94,10.54,10.54,0,0,0,3.7,7.51c4.36,3.37,11.08,1.88,14.49-1.43,1.76-1.7,2.31-4.46,3.41-10,0,0,1.86-9.29-.8-12.5a11.09,11.09,0,0,0-1.6-1.56A8.5,8.5,0,0,0,154.89,242.67Z"/><path class="cls-25" d="M161.93,245s-9.85,12.16-4.05,23.26,20.21,1,18.61-3.74-6.4-17.18-5.6-19.52S163.36,243.45,161.93,245Z"/><path class="cls-26" d="M239.1,285.58c5.8,0,23.89-9.95,23.89-9.95-3.09-2.18-12-1.14-12-1.14l7.85-5.27c-11.2-2.34-24,4.69-24,4.69l2.4-5.47c1.6-3.66-12.8,8.89-12.8,8.89v-5c-4.8,1.57-10.25,14.38-10.25,14.38l-2.56-4.83s-1.59,1.39-5.92,10.52c-3.53,14.6-4.6,19.38-4.6,19.38s-.06.46-.15,1.22c-1.39-15.24-4.83-31.88-12-47.69l-3.75,1.44a185.57,185.57,0,0,1,10.52,52.05c0-.09-1.1-4.92-4.6-19.37-4.33-9.13-5.92-10.53-5.92-10.53l-2.56,4.84s-5.45-12.81-10.25-14.38v5s-14.4-12.55-12.8-8.89l2.4,5.47s-12.8-7-24-4.69l7.85,5.27s-8.86-1-11.95,1.14c0,0,18.09,9.91,23.89,9.95l-11.94,2s19.35,8.2,23.35,8.2l-8.8,2.35s17.07,5.65,21.33,6l-6.23,2.56s18.6,6.42,20.55,15.35c0,13.63-.47,10.83-.26,17.8l4.67.76s2.49.62,1-27.49c3.88-7.93,19.86-13.45,19.86-13.45l-6.23-2.56c4.26-.3,21.33-5.95,21.33-5.95l-8.8-2.35c4,0,23.35-8.2,23.35-8.2Z"/><path class="cls-27" d="M139.91,260.06a2.59,2.59,0,0,1-1.31.87,3,3,0,0,1-2.16-.42c-2.21-1.22-4.06-5.71-3.25-10.13a11.89,11.89,0,0,1,1.58-4.11C133.35,252.26,134.4,257.49,139.91,260.06Z"/><path class="cls-27" d="M188.49,248.88s13.75,7.14.56,16.44c-5.76,2.32-13.55,3.15-14.22-5.47a9.12,9.12,0,0,0,4.65,3.92c5.34,1.78,12.86-2.61,13-8C192.6,252.13,189.2,249.43,188.49,248.88Z"/><path class="cls-27" d="M176.49,264.53c2.27,7.55-16,13.67-18.61,3.74C161.4,271.72,171,275.07,176.49,264.53Z"/><path class="cls-27" d="M157.88,268.27c-1.91,6-19.64,4.64-18.19-6.08C139.69,262.19,143,275.34,157.88,268.27Z"/><path class="cls-27" d="M202.31,236.94c11.71,4.58-.59,25.2-12.08,13.05C203.17,255.27,208.69,243.2,202.31,236.94Z"/><path class="cls-27" d="M206.85,222.06c9.34,2.83,5.84,19-1.81,16.16,9.28-4.6,4.08-13.93,2-15.08S206.85,222.06,206.85,222.06Z"/><path class="cls-27" d="M191.08,208c8.83-3.73,17.85,1.37,19.13,8.41.38,5-3,5.63-4.13,6,3.6-7.62-3.66-18.16-14.86-13.79"/><path class="cls-16" d="M216.07,264.65l8.33-7.27s6.95,6.19,6,9.22S218,267.92,218,267.92Z"/><path class="cls-16" d="M212.49,266.45s-9.46-4.49-8.42-7.62,11-7.23,12-3.94,0,9.76,0,9.76Z"/><path class="cls-16" d="M212.49,266.45s-12.51-4.21-12.18,1.47,4.62,9.55,12.18,3.89"/><path class="cls-16" d="M218.76,269.76s8.28-.2,11.75,2.07-6.47,10.32-7.22,8.28-7.22-6.51-7.22-6.51Z"/><path class="cls-16" d="M216.07,269.13s2.87,9.69.44,11.31-11.83.58-10.12-2.88a85,85,0,0,1,5.2-8.43Z"/><circle class="cls-17" cx="216.07" cy="269.13" r="4.48"/><path class="cls-16" d="M298.88,258.26s-10.37-4.91-9.22-8.35,12-7.92,13.14-4.31,0,10.69,0,10.69Z"/><path class="cls-16" d="M298.88,258.26s-13.72-4.61-13.35,1.62,5.06,10.47,13.35,4.26"/><path class="cls-16" d="M302.8,261.2s3.15,10.62.48,12.4-13,.63-11.08-3.16a93,93,0,0,1,5.69-9.24Z"/><circle class="cls-17" cx="302.8" cy="261.2" r="4.91"/><path class="cls-16" d="M95.94,323.26l9.13-8s7.62,6.79,6.61,10.11-13.62,1.44-13.62,1.44Z"/><path class="cls-16" d="M92,325.23s-10.37-4.92-9.22-8.35,12-7.92,13.14-4.31,0,10.69,0,10.69Z"/><path class="cls-16" d="M92,325.23s-13.72-4.62-13.35,1.61S83.73,337.31,92,331.1"/><path class="cls-16" d="M98.89,328.87s9.07-.23,12.88,2.26-7.09,11.3-7.92,9.08-7.91-7.14-7.91-7.14Z"/><path class="cls-16" d="M95.94,328.17s3.15,10.62.48,12.4-13,.63-11.08-3.16A93,93,0,0,1,91,328.17Z"/><circle class="cls-17" cx="95.94" cy="328.17" r="4.91"/><path class="cls-28" d="M59,340.16c-11.3-3.52-14.41,6.12-15.27,11.5a30.63,30.63,0,0,0-1.7-2.82l-5.51-8.32c6-9.92,14.55-7.62,19.84-10.52S53.82,315.45,43,319.84c-8.47,3.42-7.94,14.63-7.3,19.37-2.13-3.2-4.19-6.3-6-9.08,2-12.05,7.3-12.67,16.45-19.68S34.16,299.38,29.81,307c-4,7-.82,20.76-.27,23l-7.72-11.54c-2-9.48-.71-6.52-2.66-21.4-6.25-13.95-15.69-7.95-14.1,1.24,1.28,7.39,11.57,16.9,15.53,20.32q1.77,2.49,3.54,5.12c-3.62-3.62-10-7.88-16.82-2.6-10.48,8.11,2.39,20.71,11.55,6.32,5.4-1.32,4.76-2,7.36-.57,2.79,4.28,5.54,8.81,8.21,13.58-4.47-3.08-14.22-7.95-20.23,2.67-8,14.15,12.87,17.09,13.86.9,1.92-2.23,5.29-2.22,7.24-2q2,3.66,4,7.52c.57,1.15,1.13,2.3,1.68,3.43-3.61-2.6-10.31-6.17-14.37-.62-5.77,7.9,4.1,18.22,11.21,3.34a9.89,9.89,0,0,1,4-.88c.17.38.36.76.53,1.14.72.09,1.75.1,2.17-.58a3,3,0,0,0-.19-2.49c1.29-2.12,4.33-4.79,11.19-2.68C66.05,353.44,68.54,347.39,59,340.16Z"/><path class="cls-16" d="M134.05,292.89l8.34-7.27s6.94,6.2,6,9.22S136,296.16,136,296.16Z"/><path class="cls-16" d="M130.47,294.69s-9.46-4.49-8.41-7.62,11-7.22,12-3.94,0,9.76,0,9.76Z"/><path class="cls-16" d="M130.47,294.69s-12.51-4.21-12.18,1.47,4.62,9.55,12.18,3.89"/><path class="cls-16" d="M136.74,298s8.28-.21,11.75,2.06-6.47,10.32-7.22,8.28-7.22-6.51-7.22-6.51Z"/><path class="cls-16" d="M134.05,297.37s2.88,9.69.44,11.31-11.82.58-10.11-2.88a83.64,83.64,0,0,1,5.19-8.43Z"/><circle class="cls-17" cx="134.05" cy="297.37" r="4.48"/><path class="cls-29" d="M230.62,308.17c-19.66,1.37-25.84,36.08-25.84,36.08l1.21.25C209.37,343.75,250.27,306.79,230.62,308.17Z"/><path class="cls-29" d="M204.74,348.77v-1.85c.08-6.54-11.53-47.44-18.8-33.65S204.74,348.77,204.74,348.77Z"/><path class="cls-29" d="M178.07,334.58c-12.67-4-18.59,3.2-7.72,8.86S204.2,356,204.2,356,190.73,338.6,178.07,334.58Z"/><path class="cls-29" d="M228.13,333.06c-14.71-.78-24.09,21.79-24.09,21.79S242.84,333.84,228.13,333.06Z"/><path class="cls-30" d="M251.17,240.61l6.35-5.53s5.28,4.72,4.58,7-9.45,1-9.45,1Z"/><path class="cls-30" d="M248.45,242s-7.2-3.41-6.4-5.8,8.37-5.49,9.12-3,0,7.42,0,7.42Z"/><path class="cls-30" d="M248.45,242s-9.52-3.2-9.27,1.12,3.51,7.28,9.27,3"/><path class="cls-30" d="M253.22,244.51s6.3-.16,9,1.57-4.93,7.85-5.5,6.31-5.5-5-5.5-5Z"/><path class="cls-30" d="M251.17,244s2.19,7.38.34,8.61-9,.44-7.7-2.19a63.38,63.38,0,0,1,4-6.42Z"/><circle class="cls-17" cx="251.17" cy="244.02" r="3.41"/><path class="cls-31" d="M154.25,343.21a295.77,295.77,0,0,0-1-49c-1.6-16.17-4.29-32.2-7.41-48.13-2.83-14.43-5.89-29.49-2.89-44.14q.54-2.65,1.34-5.22c.21-.68-.87-.88-1.07-.21-4.41,14.17-2.35,29.21.34,43.5,3,15.77,6,31.48,7.86,47.43a364.37,364.37,0,0,1,2.13,49c-.13,6.95-.45,6.32-.67,7.4Z"/><path class="cls-31" d="M143.44,234.68a65.9,65.9,0,0,0-9.34-8.07q-2.53-1.8-5.22-3.36c-1.75-1-3.54-1.95-5.28-3a28.05,28.05,0,0,1-5.48-4c-.51-.49-1.23.33-.73.82,2.94,2.85,6.65,4.68,10.19,6.67a65.58,65.58,0,0,1,15.14,11.74.55.55,0,1,0,.72-.82Z"/><path class="cls-31" d="M141.63,216.21a39.15,39.15,0,0,0,13.62-6.59,41.42,41.42,0,0,0,5.87-5.44c1.89-2.11,3.59-4.37,5.27-6.64,1.89-2.58,3.75-5.17,5.79-7.63.45-.54-.37-1.27-.82-.73-3.6,4.33-6.62,9.11-10.28,13.39a41.37,41.37,0,0,1-5.64,5.51,38.86,38.86,0,0,1-6.34,4.11,38.1,38.1,0,0,1-7.82,3c-.68.18-.33,1.22.35,1Z"/><path class="cls-31" d="M162.06,202.27c-.28-1.05-.55-2.1-.82-3.16a27,27,0,0,1-.66-2.83,8.5,8.5,0,0,1,0-2.71c.15-.86.41-1.71.63-2.56a13.58,13.58,0,0,0,.52-3c0-.7-1.07-.68-1.1,0-.06,1.77-.78,3.44-1.1,5.17a9.33,9.33,0,0,0-.1,2.79,22.76,22.76,0,0,0,.61,2.93c.32,1.21.63,2.42.95,3.62.17.69,1.23.38,1.05-.3Z"/><path class="cls-31" d="M135.7,228.31a30.15,30.15,0,0,0-10.53,2.41,31.48,31.48,0,0,0-9.08,5.9,29.2,29.2,0,0,0-4,4.59.56.56,0,0,0,0,.77.55.55,0,0,0,.78,0,29.28,29.28,0,0,1,7.47-7.34,30,30,0,0,1,9.55-4.33,28.79,28.79,0,0,1,5.84-.86.55.55,0,0,0-.07-1.09Z"/><path class="cls-31" d="M163.17,201.75A26.15,26.15,0,0,0,168,199.6a13.4,13.4,0,0,1,2.37-.93,26.75,26.75,0,0,1,2.7-.49,18,18,0,0,0,3.08-.68c.66-.22.25-1.23-.42-1-1.69.57-3.5.62-5.23,1a21.31,21.31,0,0,0-4.82,2,13.4,13.4,0,0,1-2.66,1.09.55.55,0,1,0,.14,1.09Z"/><path class="cls-31" d="M140.91,211.11c-3.18-1.67-6.41-3.4-8.93-6a15.39,15.39,0,0,1-1.9-2.41.55.55,0,0,1,.26-.73.56.56,0,0,1,.73.25c1.87,2.93,4.85,4.91,7.83,6.58.86.49,1.74,1,2.63,1.42a.55.55,0,0,1-.62.9Z"/><path class="cls-31" d="M120,234c-2.28-2.87-4.65-5.8-7.95-7.55-.62-.34-1.1.65-.48,1,3.11,1.65,5.36,4.46,7.52,7.17a.56.56,0,0,0,.75.16A.55.55,0,0,0,120,234Z"/><path class="cls-31" d="M147.15,252.27a44.36,44.36,0,0,1,8.24-10.08,117.28,117.28,0,0,1,10.35-8.38c3.59-2.67,7.21-5.3,10.62-8.2a61.4,61.4,0,0,0,9.52-10,138.41,138.41,0,0,0,8-12.27c.32-.52.64-1,1-1.58s-.62-1.08-1-.48c-2.52,4.18-5,8.38-7.89,12.34A61.72,61.72,0,0,1,176.6,224c-3.36,2.93-7,5.58-10.55,8.24s-7.14,5.31-10.44,8.29a47.94,47.94,0,0,0-8.58,9.85c-.3.47-.58.95-.86,1.43s.63,1.09,1,.48Z"/><path class="cls-31" d="M179.44,223a41.25,41.25,0,0,0,5.51-2.28,24.67,24.67,0,0,0,5-3.39,21.1,21.1,0,0,1,4.64-3.39,36.25,36.25,0,0,1,5-1.77,24.39,24.39,0,0,0,5.55-2.28c.6-.36,0-1.28-.6-.91-3,1.82-6.58,2.3-9.77,3.69a15.69,15.69,0,0,0-2.36,1.26,22.79,22.79,0,0,0-2.43,1.95c-.74.66-1.48,1.32-2.29,1.92a22.13,22.13,0,0,1-2.48,1.58,37.45,37.45,0,0,1-6,2.58.55.55,0,0,0,.35,1Z"/><path class="cls-31" d="M186.27,220.05a26.69,26.69,0,0,1,4.89,1.37c1.32.51,2.71,1,4.12.56a.55.55,0,0,0-.43-1c-1.21.42-2.55-.3-3.66-.71a29.49,29.49,0,0,0-4.79-1.3.56.56,0,0,0-.61.48.56.56,0,0,0,.48.61Z"/><path class="cls-31" d="M154.68,332.56a85.37,85.37,0,0,0-13.79-12.1,103.79,103.79,0,0,0-15.9-9.17,128.14,128.14,0,0,0-17.44-6.57,170,170,0,0,0-18.63-4.35c-6.3-1.12-12.64-1.95-19-2.61l-2.31-.23A.57.57,0,0,0,67,298a.55.55,0,0,0,.41.66c6.32.6,12.63,1.37,18.89,2.41a175.92,175.92,0,0,1,18.56,4.06,128.68,128.68,0,0,1,17.57,6.23,105.28,105.28,0,0,1,16,8.78,85.82,85.82,0,0,1,14,11.66c.51.53,1,1.08,1.52,1.63s1.21-.3.74-.82Z"/><path class="cls-31" d="M115.62,307.61q-3.34-9.27-6.28-18.7t-5.41-19q-1.41-5.39-2.67-10.81a.55.55,0,0,0-.69-.36.56.56,0,0,0-.36.68q2.25,9.62,4.92,19.11t5.8,18.87q1.75,5.28,3.64,10.52c.24.66,1.29.34,1.05-.33Z"/><path class="cls-31" d="M105.47,276.36A46,46,0,0,0,96,271.24a99.28,99.28,0,0,1-9.71-4.5,26.57,26.57,0,0,1-4.81-3.42.55.55,0,0,0-.73.82,34.77,34.77,0,0,0,9,5.59c3.26,1.49,6.61,2.76,9.82,4.37a34.39,34.39,0,0,1,5.1,3.08.56.56,0,0,0,.77-.05.54.54,0,0,0,0-.77Z"/><path class="cls-31" d="M89.49,300.82a12.16,12.16,0,0,0-3.6,3.85,34,34,0,0,1-3.15,4.22,37.64,37.64,0,0,1-8.51,6.6c-1.77,1.06-3.59,2-5.41,3a.55.55,0,0,0-.17.75.56.56,0,0,0,.76.17,81.71,81.71,0,0,0,9.38-5.63A33.48,33.48,0,0,0,83,310.26a27.16,27.16,0,0,0,3.33-4.21,13.24,13.24,0,0,1,3.8-4.31c.61-.37,0-1.29-.59-.92Z"/><path class="cls-31" d="M115.41,266.06a52.09,52.09,0,0,1-6.52,12.23c-.77,1.06-1.58,2.1-2.42,3.11a.55.55,0,0,0,.15.76.56.56,0,0,0,.76-.15,52.79,52.79,0,0,0,7.53-11.91c.56-1.21,1.07-2.44,1.54-3.69.24-.66-.8-1-1-.35Z"/><path class="cls-31" d="M86.57,287.29A52,52,0,0,0,93.92,299c.85,1,1.73,2,2.64,2.93a.55.55,0,1,1-.86.67,53.08,53.08,0,0,1-8.36-11.34c-.64-1.17-1.23-2.36-1.79-3.58-.29-.64.72-1.06,1-.42Z"/><path class="cls-31" d="M71.79,273.35q6.61-1.86,13.36-3.23c1.28-.26,2.57-.51,3.86-.74a.55.55,0,0,0-.23-1.07q-6.77,1.23-13.42,2.94c-1.27.33-2.54.67-3.8,1a.56.56,0,0,0-.42.65.55.55,0,0,0,.65.43Z"/><path class="cls-32" d="M64.78,313.28a7,7,0,0,1,9.69,2.1c2.09,3.26,1.15,6.53-2.11,8.62s-6.62,1.6-8.71-1.65S61.52,315.38,64.78,313.28Z"/><path class="cls-33" d="M110.69,259.33a7,7,0,0,1,9.73-1.9c3.21,2.17,3.63,5.54,1.47,8.75s-5.45,4.08-8.66,1.92S108.53,262.54,110.69,259.33Z"/><path class="cls-33" d="M174.94,191.78a7,7,0,0,1,9.89-.61c2.91,2.56,2.89,6,.33,8.86s-5.94,3.34-8.84.78S172.38,194.69,174.94,191.78Z"/><path class="cls-33" d="M69.52,268.89a4.57,4.57,0,0,1,6.31,1.37c1.36,2.12.75,4.24-1.37,5.61s-4.31,1-5.67-1.08S67.4,270.26,69.52,268.89Z"/><path class="cls-33" d="M82.46,283.68a4.57,4.57,0,0,1,6.31,1.37c1.36,2.12.75,4.24-1.37,5.61s-4.31,1-5.67-1.08S80.34,285.05,82.46,283.68Z"/><path class="cls-33" d="M123.81,199.84a5.1,5.1,0,0,0,4.7,5.45c2.8.2,4.55-1.53,4.76-4.33s-1.28-4.78-4.08-5S124,197,123.81,199.84Z"/><path class="cls-33" d="M193.42,221a5.09,5.09,0,0,1,6.62-2.8c2.61,1.06,3.41,3.39,2.36,6s-3.26,3.72-5.86,2.66S192.37,223.61,193.42,221Z"/><path class="cls-33" d="M125.84,186.36a5.08,5.08,0,0,1,7.18-.45c2.11,1.85,2.09,4.32.23,6.43s-4.3,2.42-6.4.56S124,188.46,125.84,186.36Z"/><path class="cls-33" d="M203.4,203.15a6.52,6.52,0,0,1,9.2-.57c2.7,2.38,2.68,5.55.3,8.25s-5.52,3.1-8.22.72S201,205.85,203.4,203.15Z"/><path class="cls-33" d="M106.41,240.23a5.65,5.65,0,0,1,8-.5c2.34,2.07,2.33,4.82.26,7.16s-4.79,2.7-7.14.63S104.34,242.57,106.41,240.23Z"/><path class="cls-33" d="M157.18,181.75a5.72,5.72,0,0,1,8.08-.51c2.37,2.09,2.36,4.87.26,7.24s-4.85,2.73-7.22.64S155.08,184.12,157.18,181.75Z"/><path class="cls-32" d="M76.12,255.27a7,7,0,0,1,9.68,2.1c2.1,3.26,1.16,6.53-2.1,8.62s-6.62,1.6-8.71-1.65S72.86,257.37,76.12,255.27Z"/><path class="cls-33" d="M65,291.45a7,7,0,0,1,9.68,2.1c2.1,3.25,1.15,6.52-2.1,8.62s-6.62,1.6-8.72-1.66S61.72,293.54,65,291.45Z"/><path class="cls-32" d="M110.34,216.28a7.55,7.55,0,0,1,4.52,9.66c-1.45,3.83-4.91,5.05-8.86,3.55s-5.73-4.71-4.27-8.54S106.39,214.78,110.34,216.28Z"/><path class="cls-32" d="M150.46,189.5c-.36,5.42-4,9.59-8.05,9.32s-6.22-4-5.86-9.43,2.95-8.84,7-8.57S150.81,184.09,150.46,189.5Z"/><path class="cls-32" d="M179.76,183.36c-1,4.54-4.66,7.6-8.09,6.82s-4.74-4.24-3.7-8.79,3.69-7.11,7.13-6.33S180.79,178.81,179.76,183.36Z"/><path class="cls-32" d="M98.46,248.75a7,7,0,0,1,6.33,7.62c-.36,3.85-3.11,5.85-7,5.49S91.62,259,92,255.18,94.6,248.39,98.46,248.75Z"/><path class="cls-32" d="M190.08,196.56a7,7,0,0,1,9.89-.62c2.9,2.56,2.88,6,.32,8.86s-5.93,3.35-8.84.78S187.51,199.46,190.08,196.56Z"/><path class="cls-33" d="M112.45,212.77a7,7,0,0,1,9.9-.62c2.91,2.56,2.89,6,.33,8.87s-5.94,3.35-8.85.79S109.88,215.67,112.45,212.77Z"/><path class="cls-34" d="M238.09,348.51l2.11-.19c-7.26-65.77-.18-136.27-.11-137l-2.11-.18C237.91,211.88,230.8,282.55,238.09,348.51Z"/><path class="cls-35" d="M223,203.26c4.77,3.91,10,7.38,15.17,10.89a.88.88,0,0,0,1.14.24,40.46,40.46,0,0,0,7.83-5.56,37.14,37.14,0,0,0,5.37-6.08,13.47,13.47,0,0,0,2.82-6.57c.17-2.44-.87-4.75-3.71-5.28a10.1,10.1,0,0,0-7,1.43,10.8,10.8,0,0,0-8.37-5.89,6.07,6.07,0,0,0-5.1,1.92c-.94,1.17-1.1,2.61-1.54,4a9.44,9.44,0,0,0-7.44-.3,5,5,0,0,0-3.16,5.17C219.25,199.68,221,201.64,223,203.26Z"/><path class="cls-36" d="M227.86,191.74a14.63,14.63,0,0,1,1.73.58.74.74,0,0,0,0-.14c.59,8,4.09,15.55,9.17,22.09a83,83,0,0,0,4.3-11,40.15,40.15,0,0,0,1.3-6.12,27.61,27.61,0,0,0,.25-3.39c0-.47,0-1,0-1.44a9.9,9.9,0,0,1,1.66-.83,18.32,18.32,0,0,1,0,4.44,37.74,37.74,0,0,1-1.27,6.95,75,75,0,0,1-3.93,10.49c-.57.35-1.15.7-1.74,1a.88.88,0,0,1-1.14-.24l-3.1-2.11A40.75,40.75,0,0,1,227.86,191.74Z"/><path class="cls-34" d="M240,212c-1.9-2.83-2.74-3.26-3.18-3.18-.26.05-.9.21-1.31,2.1,0,.05,0,.11-.05.13a.12.12,0,0,1-.14,0,5.28,5.28,0,0,0-2.73-.73c1.61,1.92,4.15,4.17,5.73,5.85A96.68,96.68,0,0,0,245.9,210c.35-.39-2.7,0-5.69,1.93A.83.83,0,0,0,240,212Z"/><path class="cls-34" d="M242.88,342.65l-1.45-.23c-2.74-66.05-18.29-105.54-18.47-106.23l2.06-.43C225.2,236.45,240.14,276.4,242.88,342.65Z"/><path class="cls-37" d="M233.5,217A4.9,4.9,0,0,0,229,213.9a7.91,7.91,0,0,0-5.85,2.6,10.83,10.83,0,0,0-2.76-2.68,5.48,5.48,0,0,0-4.82.08,8.46,8.46,0,0,0-4.43,7.37,8.77,8.77,0,0,0-6.18,1.08c-2.07,1.33-2,3.5-.94,5.4a13.08,13.08,0,0,0,4.8,4.37,36.49,36.49,0,0,0,6.64,3.17,38.3,38.3,0,0,0,8.43,2,.72.72,0,0,0,.82-.56c2.75-4.43,5.63-8.87,7.94-13.52C233.57,221.26,234.25,219.11,233.5,217Z"/><path class="cls-38" d="M224.29,215.49a12.46,12.46,0,0,0-1.17,1l-.08-.09A34.87,34.87,0,0,1,224.23,237a79.62,79.62,0,0,1-7.69-7.44,37.75,37.75,0,0,1-3.41-4.5,26.47,26.47,0,0,1-1.51-2.64c-.18-.37-.37-.76-.53-1.16a10.24,10.24,0,0,0-1.66-.14,17.48,17.48,0,0,0,1.73,3.56,37,37,0,0,0,3.71,5.16,73.75,73.75,0,0,0,7.2,7.16c.59.1,1.19.19,1.79.26a.72.72,0,0,0,.82-.56l1.66-2.66A34.62,34.62,0,0,0,224.29,215.49Z"/><path class="cls-34" d="M222.37,235.6c.42-2.87.94-3.48,1.32-3.55.23-.05.8-.12,1.86,1.27a.18.18,0,0,0,.09.08s.1,0,.11,0a4.18,4.18,0,0,1,1.91-1.45,49.44,49.44,0,0,0-2.34,6.5c-.76,0-7.92-2.38-8.45-2.63s2.16-.87,5.31-.26Z"/><path class="cls-39" d="M233.24,186.88s10.61-.13,9.77,9.58-2.92,14.89-2.92,14.89,5.33-11.68,4.53-19S233.38,186,233.24,186.88Z"/><path class="cls-39" d="M251.17,190.83a3.9,3.9,0,0,1,3.64,2.35c1.4,2.59.2,10.21-8.91,16.77,0,0,4.84-5.56,6-8.12C253.3,198.81,255.87,193.6,251.17,190.83Z"/><path class="cls-39" d="M219,196.46s1.64-5.49,8.89-3.09v-1.63s-3.7-1.07-6.47.69S219,196.46,219,196.46Z"/><path class="cls-39" d="M214.44,214.56s4.78-3.95,8.68,1.94S225,232.65,225,232.65s.64-13.75-4.11-17.16C217.12,212.8,214.44,214.56,214.44,214.56Z"/><path class="cls-39" d="M230.4,214.15s5.24.86,3,7a45.17,45.17,0,0,1-5.79,10.78c-.64,1.14,4.73-8.71,5.14-11.25C233.05,219.18,233.68,216.24,230.4,214.15Z"/><path class="cls-39" d="M203.26,225.28s1.33-3.91,6.51-3.22l-.34-.94s-3.33,0-4.77,1.42S203.22,224.82,203.26,225.28Z"/><path class="cls-40" d="M326.05,261.32a.78.78,0,0,0-.88,0l-.1,0A70.26,70.26,0,0,0,306.41,268a40.92,40.92,0,0,0-6.31,4.22,27.82,27.82,0,0,0-4.17,4.43,20.66,20.66,0,0,0-3.82,7.84,19.29,19.29,0,0,0-.4,2.49c0,.33,0,.58,0,.74s-.12.18-.17.27l-.05,0v0a29,29,0,0,0-2.35,4.7,45.77,45.77,0,0,0-2.9,10.65c-1.09-5.55-1.83-10.83-2.62-15.69-.14-1.29-.31-2.54-.47-3.77a21.37,21.37,0,0,0,4.8-5.86,20.18,20.18,0,0,0,2.63-7.46,24.23,24.23,0,0,0,.12-6c-.08-.77-.19-1.4-.27-1.83s-.16-.69-.16-.71a.91.91,0,0,0-.42-.51h0a.55.55,0,0,0-.76.07c-.92.46-1.77.93-2.56,1.42.62-1.1,1.28-2.18,2-3.21,1-1.52,2-2.95,2.9-4.19l.1-.09.74-.88c9.89-4,15.87-9.88,18.87-15A22.93,22.93,0,0,0,313.9,233c.2-.89.34-1.6.44-2.11s.11-.73.12-.8a.44.44,0,0,0-.19-.46.6.6,0,0,0-.71,0,45.84,45.84,0,0,0-12.11,7,35.83,35.83,0,0,0-4.3,4,32.12,32.12,0,0,0-3,4,21.83,21.83,0,0,0-3,6.82,21,21,0,0,0-.37,2.13c-.05.45-.07.73-.07.81-.64.82-1.32,1.75-2,2.75a74.53,74.53,0,0,0-4.49,7.36,20,20,0,0,0-2.32,2.09c0-.47,0-.94,0-1.39.06-1.48.14-2.9.22-4.28.2-2.75.29-5.32.59-7.69.69-4.71,1-8.74,1.67-12s.88-5.86,1-7.68c0-.33.08-.62.11-.9a.36.36,0,0,0,.15-.21c13.25-18.16-.46-31.55-.7-32q-.17-.33-.27-.51v0a.62.62,0,0,0-.51-.5H284a.63.63,0,0,0-.52.39c-1.49,3.54-2.87,6.38-3.86,8.91a54.59,54.59,0,0,0-2,6.72,16.35,16.35,0,0,0,.31,9.26,15.91,15.91,0,0,0,6.42,7.9c0,.4-.08.86-.14,1.39-.12,1.52-.39,3.56-.8,6.09l-.69,4.18c-.2,1.53-.41,3.18-.63,5s-.52,3.68-.69,5.73-.3,4.23-.41,6.56a55,55,0,0,0-3.72-7.74c-1.3-2.44-2.69-4.73-4-6.7s-2.51-3.63-3.39-4.8c-.44-.59-.79-1.06-1-1.38a.42.42,0,0,0-.1-.25c-.1-.1-.19-.22-.29-.34a22.44,22.44,0,0,0-1.21-9.93,20.07,20.07,0,0,0-3.93-6.88,24,24,0,0,0-4.48-4,17.55,17.55,0,0,0-1.56-1l-.64-.35a.86.86,0,0,0-.65,0h0c-.33.11-.51.37-.44.63-2.35,9.18.27,14.85,3.36,18a15,15,0,0,0,8.22,4.26l.29,0,1.62,2.09c1,1.34,2.35,3.23,3.77,5.45,2.73,4.44,6.28,10.23,7.9,15.91,0,.05,0,1.5.11,3.34V268a15,15,0,0,0-3.22,7.95,14.87,14.87,0,0,0,2.18,9l.19.29c0,.09,0,.19,0,.28s0,.06,0,.09c-.47,1.35-1.31,3.81-2.05,6.31-.91-1.19-1.81-2.33-2.67-3.39-3.2-4.1-5.91-7-6.15-7.28a.54.54,0,0,0-.29-.15,26.08,26.08,0,0,0-4-11.32,36.64,36.64,0,0,0-7.53-8.12,45.73,45.73,0,0,0-7.34-4.83c-1-.53-1.85-.93-2.46-1.2l-1-.4a.52.52,0,0,0-.57.14.81.81,0,0,0-.21.66,54.44,54.44,0,0,0,1.71,9.41,34.47,34.47,0,0,0,3,7.11,19.78,19.78,0,0,0,7.75,7.9,19.3,19.3,0,0,0,7.07,2.25,16.48,16.48,0,0,0,2.22.12c.54,0,.85,0,.87,0h0a.49.49,0,0,0,.17-.06l.42.38,1.51,1.7c1.32,1.51,3,3.64,4.95,6.06.68.83,1.36,1.7,2,2.6-.24.88-.46,1.74-.63,2.52a4.71,4.71,0,0,0,1,3.68c1,1.21,2.71,1.8,5,1.76a48.06,48.06,0,0,1,3.07,6.19s.33,1.65.91,4.31c.4,2.12,1.14,4.84,2,7.92a61.55,61.55,0,0,0-5.24-4.3h0c0-.09,0-.21,0-.35a15,15,0,0,0-3.3-8.64c-2.84-3.43-8.19-6.67-17.59-5.38a.54.54,0,0,0-.67.36.05.05,0,0,0,0,0,.87.87,0,0,0-.06.65s.1.26.27.67.45,1,.82,1.67a24.23,24.23,0,0,0,3.51,4.9,20.35,20.35,0,0,0,6.41,4.68,22.49,22.49,0,0,0,9.75,2.31h0a64.78,64.78,0,0,1,6.77,5.67l.05.17c.59,2,1.16,4.22,1.87,6.38s1.48,4.34,2.25,6.49,1.53,4.24,2.28,6.22,1.56,3.79,2.27,5.44c-2.29-2.53-5.22-5.39-8.27-8.22a.31.31,0,0,0-.09-.11,3.2,3.2,0,0,0-.31-.28.91.91,0,0,0,0-.54.72.72,0,0,0-.12-.21c-2.39-5.76-5.09-10.23-8.49-13.62a36.91,36.91,0,0,0-10.66-7.43c-6.43-2.94-12.62-3.37-14.4-3.15a.73.73,0,0,0-.79.4h0a1.14,1.14,0,0,0-.19.86,37.61,37.61,0,0,0,3.72,10.24,32.3,32.3,0,0,0,5.36,7,26,26,0,0,0,11.72,6.81,27.53,27.53,0,0,0,9.48.86,23.82,23.82,0,0,0,2.83-.4l.21,0a7.11,7.11,0,0,1,.9.71.52.52,0,0,0,.3.14c1.47,1.36,2.9,2.73,4.27,4a37.79,37.79,0,0,1,6.32,7.26c0,.05.08.07.13.12,2.11,4.95,4.64,9.73,7,14.61,1.93,3.49,3.88,7,5.86,10.43l1.09-.34A259.22,259.22,0,0,1,300.8,350.5a78.79,78.79,0,0,1-.59-11.68,62.91,62.91,0,0,1,2-13.42,52.45,52.45,0,0,0,9.21-10.09,76.35,76.35,0,0,0,6.5-10.48,83,83,0,0,0,3.77-8.39c.39-1.06.65-1.93.82-2.54s.22-.86.25-.95a.38.38,0,0,0-.1-.54.86.86,0,0,0-.94.1l-.14.12C308,297.74,302.31,305.4,301,312.29a28,28,0,0,0-.43,9.14c.12,1.19.28,2.15.41,2.81.08.4.15.7.19.87-.13.51-.2.81-.21.84a1,1,0,0,0,0,.3,68,68,0,0,0-1.56,20.81c-1.14-2.61-2.19-5.25-3.16-7.89a9.84,9.84,0,0,0,.65-.83,7,7,0,0,0,1.15-4.73c-.41-4.22-4-8.75-7.57-12.23-1.36-5-2.58-9.77-3.48-14.47.08-1.75.51-10.79,5.76-18.57a45,45,0,0,0,12.58-6.41A77.63,77.63,0,0,0,316,273.16,76.4,76.4,0,0,0,325.86,262h0C326.18,261.79,326.25,261.5,326.05,261.32Zm-47.44,37.56a3.52,3.52,0,0,1-.71-2.73c.11-.51.24-1,.38-1.6,1.33,1.82,2.64,3.73,3.83,5.68A4.67,4.67,0,0,1,278.61,298.88Zm.09-5.89c.87-3,2-6.2,2.43-7.5.35-.25.69-.5,1-.75.17,1.31.35,2.7.53,4.12.27,1.63.55,3.3.83,5,.58,3.3,1,6.58,1.59,9.23A72.16,72.16,0,0,0,278.7,293Zm18.17,40.72a5.84,5.84,0,0,1-1.13,4.23c-1.38-3.82-2.64-7.62-3.85-11.34l-.78-2.78C294,326.87,296.55,330.45,296.87,333.71Z"/><path class="cls-41" d="M113.42,104.86s2,26.45,8.62,37.66c0,0,10.07,23,4.6,46.58,0,0,7.48-.67,8.82-10.35,0,0,.67,7.33-.48,8.2,0,0,14.38-1.15,16-4.75,0,0-1.72-8.77-.57-8.77,0,0,5.17,5.9,3.59,10.5,0,0,25.59-.2,29.81-12,0,0,29.71,10,59.9-6.43,0,0,3.83-7.76,2.49-11.59,0,0,2.87,5.56,2.87,10.16a9.81,9.81,0,0,0,6.23-8.82s1.73,5.08,1.06,6.9c0,0,13.32-3.07,12.74-10.73,0,0,10-81.36-49.31-123.3-21.9-15.48-81.6-2.78-99.43,32.63,0,0-13.61,8.29-15.74,29.66a14,14,0,0,0,1.22,7.16c1.38,3.06,3,8.06,1.29,12.25C107.09,109.84,112.17,111.18,113.42,104.86Z"/><path class="cls-42" d="M120.32,60.77s-2.16-7.09,11.07-13.42c0,0,36.27-27.79,76.53,1.73,0,0,28.18,21.08,24.72,50.41l-4.4-3.26s-3.41-31.34-29.14-42.12c0,0-34.79-19-68.14.14C131,54.25,123.63,57.8,120.32,60.77Z"/><path class="cls-43" d="M176.41,191s-19.81,20-32.95,38.57c0,0-25.82-3.57-32-3.09,0,0,8.77,10.73-1.87,25.41,0,0,40.67,14.71,48.77,5.69,0,0,17.79-16.12,21.56-26.6Z"/><path class="cls-44" d="M107.61,225.84s-24-2.9-31.09-17.19c0,0-.49-18.74-6-24.17,0,0-6.26-7.67-18.73-4.22a3,3,0,0,0-2,1.68,2.14,2.14,0,0,0,.72,2.6,4,4,0,0,0,2.91,1c2.85-.16,10.36.31,13.81,9.16,0,0-7.54-10.88-21.2-7.19a3.29,3.29,0,0,0-1.93,4.89l.09.14a2.27,2.27,0,0,0,1.9,1c2.36,0,8.29.48,12.24,5.73,0,0-14.62-3.2-18.4,2.25a2.9,2.9,0,0,0-.65,2.51,2.17,2.17,0,0,0,2.64,1.44c3.13-.78,11.73-2.29,14.17,3.93,0,0-7.67-6.7-15.07,3.38A3.51,3.51,0,0,0,40.5,216a2.83,2.83,0,0,0,2.41,1.88,2.3,2.3,0,0,0,1.9-.65c1.43-1.4,5.08-4.3,8.95-2.13,0,0,4.55,3.58,5.5,12.72,0,0,2.75,12.06,15.49,9.63,0,0,20.15,11.62,32.24,14.27C107,251.71,133.14,243.06,107.61,225.84Z"/><path class="cls-45" d="M72.33,207.74s-6.81-10.54-8.11-13.86a.47.47,0,0,0-.8-.15c-1.89,2.08-7.16,9.25,1.7,17,0,0-5,15.15,5.32,16.86"/><path class="cls-46" d="M71.91,208c-1.65-2.57-3.26-5.14-4.82-7.76-.78-1.31-1.54-2.63-2.27-4a22.62,22.62,0,0,1-1-2.1c-.06-.12-.06-.11-.05-.11h0s0,0,0,0c-.24.27-.48.55-.7.84a10.34,10.34,0,0,0-2.26,8.13,9.94,9.94,0,0,0,1.69,4,14.26,14.26,0,0,0,1.37,1.73c.5.54,1.06,1,1.58,1.56h0l.22.2-.07.33a44.56,44.56,0,0,0-.81,4.87,22.58,22.58,0,0,0,0,4.86,9,9,0,0,0,1.63,4.4,7.69,7.69,0,0,0,4.08,2.57h0a8.5,8.5,0,0,1-2.51-.55,7.09,7.09,0,0,1-2.19-1.47,8.81,8.81,0,0,1-2.28-4.76,17.58,17.58,0,0,1-.08-5.22,22.17,22.17,0,0,1,1.26-5l.15.53h0c-.56-.55-1.14-1.06-1.67-1.63a16.17,16.17,0,0,1-1.45-1.85,10.83,10.83,0,0,1-1.85-4.34,10,10,0,0,1,.27-4.74,13.35,13.35,0,0,1,2.18-4.18c.24-.31.49-.61.75-.91a1,1,0,0,1,1-.32.92.92,0,0,1,.48.31,1.15,1.15,0,0,1,.22.39c.28.66.62,1.34,1,2,.7,1.33,1.47,2.63,2.24,3.94,1.55,2.6,3.16,5.17,4.8,7.72Z"/><path class="cls-45" d="M73.77,237.6a2.59,2.59,0,0,0,2-2.76"/><path class="cls-46" d="M73.7,237.11a2.61,2.61,0,0,0,.66-.23,2,2,0,0,0,.61-.48,4.38,4.38,0,0,0,.77-1.56h0a3.13,3.13,0,0,1,.07,1,2.71,2.71,0,0,1-.3,1,3.13,3.13,0,0,1-.69.81,2.34,2.34,0,0,1-1,.5Z"/><path class="cls-47" d="M102.44,224.69s16.26,11.39.82,26.16c0,0,8,2.48,21.93,6,3.4-3.7,6.58-8.81,6-18.37-.29-5-1.15-8.13-4.4-11.4C119.23,226.07,110.61,225.91,102.44,224.69Z"/><path class="cls-48" d="M185.16,298.89S159.36,362.27,167.74,416l179.72-4.64s-37.14-130.58-83.53-141.62C263.93,269.74,198.88,284.15,185.16,298.89Z"/><path class="cls-49" d="M269.71,261.74l5.05,13.82s-29.48,30.09-86,28c0,0-7.27-5.46-6.3-17.89Z"/><path class="cls-48" d="M238.33,178.06s-10.13-5.24-26.29-2.43-37.44,15-37.44,15-14.11,29.42,8.69,95c0,0,18.1,5.23,47.13-4.23s39.13-19,39.13-19-15.66-39.69-21.92-53.14S253.08,181.89,238.33,178.06Z"/><path class="cls-43" d="M206.54,165.64s10.85-4.72,13.59,8.49-11.49,23.35-11.49,23.35-12.53,3.8-14.11-10.24Z"/><path class="cls-43" d="M195.22,184.8s2.24,10.6-5.8,17.16-18-10.55-13.14-17.22,9.77-7.35,9.77-7.35Z"/><path class="cls-44" d="M180.81,180.85c2.81,4.54,7.09,6.58,13.32,6.54s18.25-16.4,15.3-20.88l-.31-.49,0,0c-2.54-4.09-1.85-5.54-1.85-5.54-15.65-5.74-29.35,10.68-29.35,10.68,2.49,3.77,3.31,6.13,3.46,7.58C181.54,180.4,180.81,180.85,180.81,180.85Z"/><path class="cls-50" d="M181.35,178.7c12.34-1.37,22.21-8,27.74-12.72-2.54-4.09-1.85-5.54-1.85-5.54-15.65-5.74-29.35,10.68-29.35,10.68C180.38,174.89,181.2,177.25,181.35,178.7Z"/><path class="cls-44" d="M115.36,98.51s5.91,37.49,19,55.19c0,0,23.63,30.79,61.69,13a46.51,46.51,0,0,0,19.46-16.92c4.9-7.58,9.75-18.27,7.35-28.53l-12.12-25.6-12.12-17.4S143.86,42.07,115.36,98.51Z"/><path class="cls-41" d="M107.09,109.84s9.73,1.68,17.4-9.58c0,0-2.23-8.41.65-12.8,0,0-.8,10.57,4,11.07a32.94,32.94,0,0,1,15.69-4s-2.58-7.57.39-11.7c0,0-1.25,7.38,1.82,11,0,0,14.09-3.5,19.26-2.93,0,0-3.59-6.61.29-11.64,0,0-2,8.48,2.59,11.21,0,0,17.82-3.59,32.49.29,0,0,11.5,9.34,9.63,28,0,0,9.63-6,12.94-12.79,0,0-1-26-2.3-28S194.07,61.44,190,61s-37.23-1-37.23-1-10.64,2.88-11.65,3.6-11.35,4.45-11.93,5.17-3.45,2.88-4.31,3.88-5.18,5-5.89,6.19S107.09,109.84,107.09,109.84Z"/><path class="cls-45" d="M266.34,250.45s-10.61,13.46-14.72,15.32c0,0-7.73,5.16-28.58,5.31,0,0-2.88,6.86,8.09,8,0,0-10.45,6.88-10.74,11.2,0,0,2.13,10.19,1.64,11.31,0,0,4.59.27,5-5.57,0,0,5.18,6.23,4.26-8,0,0-.05,10.93,2.93,14a12.41,12.41,0,0,0,3.23,7.81s2.76,1,3.35-3a17.86,17.86,0,0,1,9.3-13.44,41.46,41.46,0,0,1,5.3-2.24,9,9,0,0,0,6.12-5.57,26,26,0,0,1,3.37-6.57c3.12-4.36,8.44-11,13.93-14.2C278.78,264.83,280.22,252.56,266.34,250.45Z"/><path class="cls-46" d="M266.52,250.91a.32.32,0,0,0,.16-.09h0l-.05.07-.11.13-.21.26-.41.53-.84,1-1.71,2.06q-1.71,2.05-3.49,4c-1.2,1.33-2.41,2.64-3.69,3.9a19.32,19.32,0,0,1-4.31,3.43l.08,0a29.65,29.65,0,0,1-7,2.77,58.6,58.6,0,0,1-7.24,1.52c-2.44.4-4.89.62-7.34.82l-3.68.2-3.68.08.51-.34a4.88,4.88,0,0,0-.14,2.93,4.56,4.56,0,0,0,1.72,2.39,12.81,12.81,0,0,0,6.06,1.94l1.45.17-1.21.82a56.28,56.28,0,0,0-6.2,4.79,26.18,26.18,0,0,0-2.69,2.79,6.79,6.79,0,0,0-1.63,3.21v-.14c.39,1.88.75,3.75,1.07,5.65.16.94.32,1.89.44,2.85.07.47.12,1,.16,1.45,0,.24,0,.49,0,.75a2.52,2.52,0,0,1-.11.91l-.44-.71a4.35,4.35,0,0,0,1.78-.38,4.08,4.08,0,0,0,1.45-1.12A6.36,6.36,0,0,0,226.5,296l.09-1.19.78.91c.6.69,1.56,1.44,2.21,1.17a1.79,1.79,0,0,0,.82-1,6.44,6.44,0,0,0,.45-1.47,18.53,18.53,0,0,0,.35-3.17,22.91,22.91,0,0,0-.1-3.21h.29c.07.6.22,1.2.3,1.8l.15,1.79c.12,1.2.25,2.39.43,3.57a25,25,0,0,0,.76,3.48,7.46,7.46,0,0,0,1.51,3l.14.15v.22a9.41,9.41,0,0,0,.27,2,11.61,11.61,0,0,0,.64,2,13.1,13.1,0,0,0,2.2,3.49l-.2-.14a1.79,1.79,0,0,0,1.48-.16,2.47,2.47,0,0,0,.93-1.34,11.93,11.93,0,0,0,.4-1.88,19.22,19.22,0,0,1,.48-2,18.93,18.93,0,0,1,3.93-7.15,17.34,17.34,0,0,1,3.07-2.73,21.93,21.93,0,0,1,3.58-2c1.24-.56,2.49-1.05,3.76-1.49a10.52,10.52,0,0,0,3.37-1.76,7.72,7.72,0,0,0,2.22-3,37.66,37.66,0,0,1,1.55-3.72,25.88,25.88,0,0,1,2.09-3.5c.78-1.09,1.59-2.16,2.42-3.21a66.33,66.33,0,0,1,5.33-6,33.72,33.72,0,0,1,6.32-5.07l-.24.37a13.67,13.67,0,0,0-.58-5,11.63,11.63,0,0,0-2.44-4.4,12,12,0,0,0-4.07-3,15.67,15.67,0,0,0-2.4-.88c-.42-.12-.84-.21-1.26-.32A6.25,6.25,0,0,1,266.52,250.91Zm-.37-.93a11.93,11.93,0,0,1,1.59.22c.44.11.88.2,1.32.32a17,17,0,0,1,2.55.95,13,13,0,0,1,4.4,3.22,12.61,12.61,0,0,1,2.65,4.77,14.59,14.59,0,0,1,.61,5.43l0,.24-.22.13a32.44,32.44,0,0,0-6.13,4.92,66.06,66.06,0,0,0-5.25,5.95,37,37,0,0,0-4.39,6.54,37.88,37.88,0,0,0-1.53,3.66,8.76,8.76,0,0,1-2.5,3.37,11.5,11.5,0,0,1-3.68,1.93c-1.25.44-2.47.92-3.67,1.46a21.36,21.36,0,0,0-3.43,1.87,16.47,16.47,0,0,0-2.89,2.58,17.8,17.8,0,0,0-3.72,6.76,17.31,17.31,0,0,0-.45,1.89,14.33,14.33,0,0,1-.44,2,3.45,3.45,0,0,1-1.35,1.85,2.76,2.76,0,0,1-2.36.26l-.11,0-.09-.1a14,14,0,0,1-2.37-3.77,13.16,13.16,0,0,1-.7-2.12,11,11,0,0,1-.29-2.26l.14.36a8.63,8.63,0,0,1-1.76-3.41,23.81,23.81,0,0,1-.77-3.62c-.18-1.21-.29-2.43-.35-3.65,0-.61-.06-1.22-.05-1.83s.15-1.22.21-1.83h.29c0,1.08.12,2.15.13,3.23a23.74,23.74,0,0,1-.11,3.26,7.28,7.28,0,0,1-.35,1.64,2.54,2.54,0,0,1-1.13,1.49,2.11,2.11,0,0,1-2-.18,5.33,5.33,0,0,1-1.37-1.13l.88-.28a7.22,7.22,0,0,1-1.42,4.16,5.08,5.08,0,0,1-1.81,1.4,5.18,5.18,0,0,1-2.26.48h-.69l.26-.7a2.86,2.86,0,0,0,0-.5c0-.22,0-.45,0-.68,0-.46-.1-.93-.16-1.4-.13-.93-.28-1.87-.44-2.81-.33-1.87-.69-3.75-1.08-5.61v-.14a7.6,7.6,0,0,1,1.85-3.8,26.61,26.61,0,0,1,2.8-2.91,58.7,58.7,0,0,1,6.31-4.92l.24,1a20,20,0,0,1-3.39-.63,10.17,10.17,0,0,1-3.2-1.5,5.69,5.69,0,0,1-2.13-3,6,6,0,0,1,.17-3.66l.12-.33H223l3.65-.09,3.64-.2c2.42-.2,4.85-.43,7.24-.82a58.57,58.57,0,0,0,7.1-1.52c1.16-.32,2.31-.7,3.44-1.12a21,21,0,0,0,3.21-1.48l0,0,0,0a19.12,19.12,0,0,0,4-3.19c1.26-1.23,2.47-2.52,3.66-3.83s2.35-2.65,3.5-4l1.71-2,.84-1,.42-.51.21-.26.1-.13.05-.07.06-.06A.78.78,0,0,1,266.15,250Z"/><path class="cls-45" d="M226.68,287.76s-.84,4.85.29,8.19"/><path class="cls-46" d="M226.73,287.77c0,1.39,0,2.75.11,4.1a20,20,0,0,0,.6,3.92l-.95.32a11,11,0,0,1-.56-4.23,15.62,15.62,0,0,1,.71-4.13Z"/><path class="cls-45" d="M234.18,302.05s.49-6.7,3-9.74"/><path class="cls-46" d="M233.68,302a15.55,15.55,0,0,1,.78-5.2,10,10,0,0,1,2.65-4.54l.08.06a19.47,19.47,0,0,0-1.54,4.8c-.35,1.64-.6,3.31-1,4.95Z"/><path class="cls-43" d="M242.54,211.92s5.76,16.34,11.89,4.65l19.13,6.49a159,159,0,0,1-8.46,22.52,113.62,113.62,0,0,1-9,16.12s15.05-3.85,17.36,7.53a79.17,79.17,0,0,0,13.11-12.59,89,89,0,0,0,19.3-38.29s-.35-4.83-9.76-12.21-26.63-16.66-26.63-16.66-18.6-10.73-26.93-9.43C242.52,180.05,235.34,189.93,242.54,211.92Z"/><path class="cls-43" d="M256.07,261.7s15.05-3.85,17.36,7.53a79.17,79.17,0,0,0,13.11-12.59,19.55,19.55,0,0,0-11.1-11,14.3,14.3,0,0,0-10.34-.07A113.62,113.62,0,0,1,256.07,261.7Z"/><path class="cls-51" d="M273.56,223.06s7.24-7,15.22-.16"/><path class="cls-52" d="M273.22,222.71a11.51,11.51,0,0,1,3.66-2.35,11.11,11.11,0,0,1,4.26-.79,9.94,9.94,0,0,1,4.17,1,10.16,10.16,0,0,1,1.84,1c.57.4,1.09.89,1.63,1.33-.59-.38-1.15-.81-1.75-1.14a13.8,13.8,0,0,0-1.88-.86,9.27,9.27,0,0,0-4-.6,10.86,10.86,0,0,0-3.88,1,16.61,16.61,0,0,0-3.39,2.11Z"/><line class="cls-43" x1="255.12" y1="216.86" x2="246.47" y2="213.67"/><path class="cls-47" d="M256.1,261.45s15-4,17.42,7.37a79.58,79.58,0,0,0,13-12.71,19.58,19.58,0,0,0-11.2-10.89,14.34,14.34,0,0,0-10.34,0A113.2,113.2,0,0,1,256.1,261.45Z"/><ellipse class="cls-53" cx="139.87" cy="123" rx="11.62" ry="10.96" transform="translate(-41.88 163.73) rotate(-53.96)"/><ellipse class="cls-54" cx="136.01" cy="127.14" rx="6.4" ry="6.56" transform="translate(-46.82 162.31) rotate(-53.96)"/><ellipse class="cls-16" cx="139.27" cy="122.04" rx="2.13" ry="2.01" transform="translate(-41.35 162.84) rotate(-53.96)"/><ellipse class="cls-53" cx="175.91" cy="116.36" rx="11.62" ry="10.96" transform="translate(-21.68 190.13) rotate(-53.96)"/><ellipse class="cls-54" cx="172.05" cy="120.5" rx="6.4" ry="6.56" transform="translate(-26.62 188.71) rotate(-53.96)"/><ellipse class="cls-16" cx="175.3" cy="115.39" rx="2.13" ry="2.01" transform="translate(-21.15 189.24) rotate(-53.96)"/><path class="cls-55" d="M158,124.41a10.12,10.12,0,0,1,2,4.23,8.68,8.68,0,0,1,.18,2.39,7.71,7.71,0,0,1-.54,2.37h0l-.08.26-.3.06a16,16,0,0,0-2.63.73,6.38,6.38,0,0,0-1.17.58c-.34.22-.58.51-.58.69h0l0-.15a7.41,7.41,0,0,0,2.07,3.23,4.25,4.25,0,0,0,3.51,1,7.82,7.82,0,0,0,1.9-.53,19.32,19.32,0,0,0,1.76-1c.54-.41,1.14-.75,1.66-1.2s1.08-.86,1.66-1.27c-.44.55-.91,1.07-1.39,1.58a19.22,19.22,0,0,1-1.6,1.37,19.55,19.55,0,0,1-1.8,1.14,8.69,8.69,0,0,1-2.07.69,5.11,5.11,0,0,1-4.24-1.07,7.28,7.28,0,0,1-.8-.77,9.32,9.32,0,0,1-.65-.9,9,9,0,0,1-1-2l0-.08v-.06h0a1.67,1.67,0,0,1,.38-1,3,3,0,0,1,.64-.56,7,7,0,0,1,1.37-.68,17.37,17.37,0,0,1,2.82-.79l-.38.32h0a11.89,11.89,0,0,0,.47-2.11,10,10,0,0,0,0-2.19,13.05,13.05,0,0,0-.4-2.2A12.31,12.31,0,0,0,158,124.41Z"/><path class="cls-56" d="M149.55,150.09s16.1,1.15,37.67-10.35c0,0-.67,12.46-17.73,18.4,0,0-5.7,1.75-9.34-1.66a8.71,8.71,0,0,0-.86-.73c-1.48-1.05-6.06-4.28-6.86-4.6C151.47,150.77,149.55,150.09,149.55,150.09Z"/><path class="cls-57" d="M156.74,150.24S168,160,187.22,139.74C187.22,139.74,176.48,148.32,156.74,150.24Z"/><path class="cls-58" d="M187.22,139.74S170,149.81,149.55,150.09A48.68,48.68,0,0,0,187.22,139.74Z"/><path class="cls-59" d="M163.21,158.25s-1.12-3.52,4.45-4.67a8.48,8.48,0,0,0,5.9-1.9s2.66-2.38,9.49-2.38C183.05,149.3,174.71,160.88,163.21,158.25Z"/><path class="cls-54" d="M166.14,102.13s7.71-6.07,14.86-2.63c.29.14.61-.18.45-.43-1.07-1.65-3.91-4.68-9.76-2.84C162.47,99.13,166.14,102.13,166.14,102.13Z"/><path class="cls-54" d="M138.5,105s-9.78.74-12.73,8.11c-.12.29-.57.28-.62,0-.33-1.93-.27-6.09,5.28-8.68C139.18,100.28,138.5,105,138.5,105Z"/><path class="cls-45" d="M217.3,106.08s7-17.61,15.7-9.59,2.35,31.33-5.41,34.56c0,0-3.44,2.36-5-3.31"/><path class="cls-46" d="M217.19,106a21.47,21.47,0,0,1,1.39-3.57,21.8,21.8,0,0,1,1.95-3.33,17.82,17.82,0,0,1,2.56-2.94,9.4,9.4,0,0,1,3.42-2.08,6.08,6.08,0,0,1,4.1.13,9.38,9.38,0,0,1,3.29,2.31,12.38,12.38,0,0,1,2.22,3.29,18.46,18.46,0,0,1,1.21,3.73,26.79,26.79,0,0,1,.38,7.73,37.33,37.33,0,0,1-1.43,7.57,32.07,32.07,0,0,1-3,7.11,18.49,18.49,0,0,1-2.29,3.17,9.63,9.63,0,0,1-3.21,2.4l.1-.06a3.59,3.59,0,0,1-2,.57,3,3,0,0,1-1.94-.82,5.11,5.11,0,0,1-1.16-1.61,12.08,12.08,0,0,1-.63-1.77l1-.26a10.72,10.72,0,0,0,.6,1.58,3.92,3.92,0,0,0,.92,1.27,1.93,1.93,0,0,0,1.29.53,2.59,2.59,0,0,0,1.36-.39l.06,0,0,0a8.41,8.41,0,0,0,2.77-2.16,16.79,16.79,0,0,0,2.1-3,31.63,31.63,0,0,0,2.84-6.85,32.14,32.14,0,0,0,1-14.69,18.06,18.06,0,0,0-1.1-3.48,11.33,11.33,0,0,0-2-3,8.1,8.1,0,0,0-2.85-2,4.89,4.89,0,0,0-3.33-.13c-2.22.7-4,2.61-5.45,4.56a58.53,58.53,0,0,0-4,6.34Z"/><path class="cls-60" d="M232.42,103.32s-10.9.94-10.64,14.45C221.78,117.77,222.84,108.8,232.42,103.32Z"/><path class="cls-60" d="M224.22,110s4.15,4.13,1.06,11.27C225.28,121.28,231.81,114,224.22,110Z"/><ellipse class="cls-61" cx="230.12" cy="135.31" rx="5.58" ry="5.07" transform="translate(-36.7 126.86) rotate(-28.64)"/><path class="cls-62" d="M227,126.47a.58.58,0,0,1,.41-.27.89.89,0,0,1,.53.12,2.11,2.11,0,0,1,.69.74,5.57,5.57,0,0,1,.6,1.73,7.91,7.91,0,0,1-.13,3.52,9.83,9.83,0,0,1-.52-1.68c-.13-.56-.22-1.11-.33-1.66s-.2-1.08-.33-1.59a2.63,2.63,0,0,0-.29-.68A.51.51,0,0,0,227,126.47Z"/><path class="cls-59" d="M170.42,160.68s3.83-.09,5-1.24c0,0-.05,1.57-2.14,2a3.26,3.26,0,0,1-2-.28A8.08,8.08,0,0,1,170.42,160.68Z"/><path class="cls-56" d="M185.73,137.78s.07,3.16,4.53,3.95"/><path class="cls-56" d="M185.73,137.78a6.61,6.61,0,0,0,1.87,2.34,12.85,12.85,0,0,0,1.25.82c.22.12.45.24.68.38a5.37,5.37,0,0,1,.73.41,4.91,4.91,0,0,1-.86.06,5,5,0,0,1-.84-.13,4.16,4.16,0,0,1-1.57-.76,3.72,3.72,0,0,1-1.09-1.4A2.56,2.56,0,0,1,185.73,137.78Z"/><path class="cls-41" d="M111.26,108.12s11,42.26,16.44,56.11L127.51,153,113.42,103.8Z"/><path class="cls-63" d="M-46.19,387.47c7.51-62.89,30.07-115.7,47.51-143.15,18.91-29.74,36.26-44.8,36.43-44.95l-.94-1.09c-.17.15-17.65,15.32-36.67,45.22-17.53,27.58-41,80.78-48.52,144Z"/><path class="cls-63" d="M43.27,203.32c5,1,8.42-.25,12.22-2.69s5.57-5.24,8.13-8.94c1.18-1.7,3.63-5.7,3.09-6.95a.71.71,0,0,0-.38-.43c-.28-.09-.54.13-.74.34-1.12,1.16-2.19,2.38-3.4,3.47a21.65,21.65,0,0,1-12.86,5.46c-2.63.19-5.33-.1-7.89.54-2.28.58-5.75,1.53-5.55,4.25S40.5,202.75,43.27,203.32Z"/><path class="cls-64" d="M66.61,175.67c1,.87.09,1.65.21,2.69a11.74,11.74,0,0,1,.39,2.87c-.28,2.42-1.62,4.57-2.93,6.62-1.71,2.67-3.88,6-6.34,8-6.67,5.43-9,4.83-14.17,5.31-.76.07-1.9-1.52-2.56-1.9a2.47,2.47,0,0,1-1.07-1.47,5.05,5.05,0,0,1,1-4.31,14.91,14.91,0,0,1,3.38-3.05,83.7,83.7,0,0,1,12.28-7.92c2-1,4.13-2.68,2.33-4-1.35-1-1.12-2.4,4.66-3.08A4.5,4.5,0,0,1,66.61,175.67Z"/><path class="cls-65" d="M62.68,175.52a2.24,2.24,0,0,1,1.95.62,2.11,2.11,0,0,1,.38,2.23,9,9,0,0,1-1.22,2.06c-1.85,2.81-2.44,6.28-4.11,9.21A14.47,14.47,0,0,1,43.15,196a3.46,3.46,0,0,1-1.62-1c-1-1.23-.17-3.1.83-4.35a45.68,45.68,0,0,1,5.18-5.23c2.62-2.37,4.35-4.35,6.87-6.83C56.39,176.71,59.91,176,62.68,175.52Z"/><path class="cls-66" d="M58.13,176.56c-.93,4.59-4.43,8.33-7.69,11.79a.36.36,0,0,0,.35.6,25.49,25.49,0,0,0,9.16-4.4.64.64,0,0,1,1,.56c-.43,6.15-4.93,11.64-10.38,14.7a15.09,15.09,0,0,1-4.69,1.82c-2.79.49-7.25-.08-9.5-2-1.92-1.64-.25-4.86.57-6.76,2.31-5.39,5-9.08,10.07-12.06A38.21,38.21,0,0,1,58.13,176.56Z"/><path class="cls-63" d="M-15.77,345.2c3.32-6.45,5.2-13.53,7.68-20.34,3-8.37,4.28-14.49,9.8-21.47s15.42-14.8,23.67-18.15c-9.19.38-18.85,5-27.26,10.2S-17.56,309.9-21.71,318.9c-4.43,9.57-4.73,20.47-7.38,30.68-1.26,4.83-3.05,9.53-3.82,14.46a39.14,39.14,0,0,0-.41,10c1.21-3,2.57-4.62,3.49-6.46a73.24,73.24,0,0,1,4.44-7.43C-22.11,355.23-18.49,350.49-15.77,345.2Z"/><path class="cls-66" d="M-16,321.94c3.42-9.31,9.92-19.09,17.88-25,6.85-5.07,14.65-9.73,22.52-11.64.32,0,.65-.06,1-.07-8.25,3.35-18.14,11.17-23.67,18.15s-6.76,13.1-9.8,21.47c-2.48,6.81-4.36,13.89-7.68,20.34-2.72,5.29-6.34,10-9.62,15l-.54.84a6.51,6.51,0,0,1,0-2.36A258.66,258.66,0,0,1-16,321.94Z"/><path class="cls-67" d="M35.75,198.8a15.24,15.24,0,0,0,14.45-1.27c7.11-4.83,10.44-13,10.44-13s2.39,4.22-5.24,11.66S37.41,203,35.75,198.8Z"/><path class="cls-63" d="M41.54,471.79c10.91-58.12,12.35-102.91,11.64-130.24C52.41,311.9,49,295.77,49,295.61l-1.87.4c0,.16,3.41,16.17,4.18,45.67.7,27.22-.74,71.84-11.61,129.76Z"/><path class="cls-68" d="M56.45,286.86q2.13-7.78,3.53-15.75c.47-2.7.88-5.5.22-8.17-1.15-4.73-5.5-8.15-10.16-9.54s-9.64-1.08-14.48-.66c-4,.34-8.19.82-11.49,3.12s-5.19,6-6.5,9.73c-1.22,3.47-2,7.22-1.28,10.82,1,4.65,4.46,8.45,8.52,10.89a51.48,51.48,0,0,0,13,5.5c-4.81-2-11.36-3.3-16-7-2.25-1.81-4.39-4-7.21-4.67a8.85,8.85,0,0,0-7.14,1.78,15.47,15.47,0,0,0-4.51,6,24.82,24.82,0,0,0,.25,20.75,16.83,16.83,0,0,0,5.37,6.64C11,317.93,15,319.68,17.75,319c-.51.93-1.06,1.18-.3,1.91a7.16,7.16,0,0,0,2.82,1.38q5.82,1.8,11.8,3c4.91,1,10,1.7,14.92.91s9.82-3.22,12.58-7.4c.75-1.13,1.43-2.45,2.68-3a7.84,7.84,0,0,1,2.22-.39c3.35-.41,6.14-2.7,8.54-5.08a66.53,66.53,0,0,0,8.85-10.87,26,26,0,0,0,4-8.85,12,12,0,0,0-1.66-9.36,27.79,27.79,0,0,1-2-2.62,18.33,18.33,0,0,1-1.12-3.14,13.26,13.26,0,0,0-7.56-8.33,10.39,10.39,0,0,0-10.81,2c-2.1,2.1-3,5-3.91,7.89L54,292.93l.42-1.66Z"/><path class="cls-69" d="M71.08,292.56a11.51,11.51,0,0,0-3.39-2.82c-.42-.29-.81-.55-.46-1a2.47,2.47,0,0,1,.81-.53A5.21,5.21,0,0,0,69.68,287a2.14,2.14,0,0,0-.51-3.26,7,7,0,0,0-2.28-.7l-1.47-.32a7.35,7.35,0,0,0-.83-.12.84.84,0,0,0,.11-.21,1.82,1.82,0,0,0,.14-.52,1.85,1.85,0,0,0-.11-.77,2.08,2.08,0,0,0-1.22-1.21c-1.54-.63-2.83.65-3.86,1.61L56,284.87a.88.88,0,0,0-.71,0,.6.6,0,0,0,.05-.39,3.73,3.73,0,0,1,.31-.78,5.09,5.09,0,0,1,.66-1A10.33,10.33,0,0,0,57.8,281a1.76,1.76,0,0,0-1.17-2.59,3.7,3.7,0,0,0-1.86.28,2.94,2.94,0,0,0-.52.12,9.56,9.56,0,0,1,.85-1.2A7.77,7.77,0,0,0,57,273.4c.09-3.14-3.18-4.24-5.77-3.53a4.36,4.36,0,0,0-3,2.33,10.32,10.32,0,0,0-.33,3.09,8.26,8.26,0,0,0-2.37-1.56c-1.11-.48-2.66-.67-3.27.65a4.48,4.48,0,0,0-.09,2.3c.05.46.09.92.13,1.38a3.11,3.11,0,0,1,0,.32c-.21-.27-.68-.55-.9-.79s-.55-.64-.81-1A16.56,16.56,0,0,0,39,274.84a4,4,0,0,0-3.49-1.13,2.44,2.44,0,0,0-1.7,3,13.82,13.82,0,0,0,.71,2.76,12.1,12.1,0,0,1,1,2.35c.15,1.44-1.55.59-2.37.35s-1.73-.55-2.62-.71c-1.26-.23-2.69.08-3,1.52-.68,3.42,3.39,6.09,5.63,7.83a3.65,3.65,0,0,0,.62.42,2.58,2.58,0,0,1-.53-.06c-.32-.06-.63-.19-1-.27a8.53,8.53,0,0,0-2.66-.25c-1.35.11-2.32,1.14-1.47,2.46a16.23,16.23,0,0,0,2,2.16c.06.06.81.87.86.78-.1.18-1.09.09-1.26.09-1.51,0-3.4-.28-4.82.36-3.28,1.49-.31,5.55,1.69,6.71s4,1,6.09.86a14.69,14.69,0,0,1,2.2,0c.37,0,.72.07.86.43s-.14.91-.31,1.24c-.6,1.19-1.47,2.49-.82,3.85a2.82,2.82,0,0,0,3.29,1.3c.87-.19,1.63-.74,2.51-.89a2.38,2.38,0,0,1,2.26,1c1.15,1.32,1.43,3.15,2.46,4.55a5.15,5.15,0,0,0,7.64.74,6,6,0,0,0,1.68-4.08c.08-.85.08-2.26.94-2.76s1.63.38,2.34.64A2.54,2.54,0,0,0,61,309.2c.33-.62,0-1.36,1-1.23,1.3.17,2.33,1.3,4.09-.07a2.25,2.25,0,0,0,.8-1.16c.47-1.69-.47-2.95-.87-4.46-.64-2.41,2.39-2.33,3.94-2.75,1.32-.36,2.51-1.15,2.6-2.64A7.14,7.14,0,0,0,71.08,292.56Z"/><path class="cls-70" d="M25.86,303.17c1.85,1.08,4,1,6.1.86a14.68,14.68,0,0,1,2.2,0c.36,0,.72.07.85.43s-.14.91-.31,1.24c-.6,1.19-1.46,2.49-.82,3.85a2.83,2.83,0,0,0,3.29,1.3c.88-.19,1.64-.74,2.52-.89a2.39,2.39,0,0,1,2.26,1c1.14,1.32,1.42,3.15,2.46,4.55a5.14,5.14,0,0,0,7.63.74,5.9,5.9,0,0,0,1.68-4.08c.08-.85.08-2.26,1-2.76s1.63.38,2.34.64a2.52,2.52,0,0,0,3.15-.83c.33-.62,0-1.36,1-1.23,1.29.17,2.32,1.3,4.08-.07a2.25,2.25,0,0,0,.8-1.16c.48-1.69-.46-2.95-.86-4.46-.64-2.41,2.38-2.33,3.93-2.75,1.33-.36,2.52-1.15,2.61-2.64a7.22,7.22,0,0,0-1.44-4.33,11.51,11.51,0,0,0-3.39-2.82c-.42-.29-.81-.55-.46-1a2.52,2.52,0,0,1,.82-.53A5.32,5.32,0,0,0,68.9,287a2.15,2.15,0,0,0-.52-3.26,7,7,0,0,0-2.28-.7l-1.46-.32a8,8,0,0,0-.84-.12.61.61,0,0,0,.11-.21,1.54,1.54,0,0,0,.14-.52,1.84,1.84,0,0,0-.1-.77,2.14,2.14,0,0,0-1.22-1.21c-1.55-.63-2.83.65-3.87,1.61l-3.68,3.41a.85.85,0,0,0-.7,0,.61.61,0,0,0,0-.39,4.37,4.37,0,0,1,.31-.78,5.09,5.09,0,0,1,.66-1A9.5,9.5,0,0,0,57,281a1.75,1.75,0,0,0-1.17-2.59,3.72,3.72,0,0,0-1.86.28,2.67,2.67,0,0,0-.51.12,9.62,9.62,0,0,1,.84-1.2,7.77,7.77,0,0,0,1.91-4.17c.09-3.14-3.17-4.24-5.77-3.53a4.38,4.38,0,0,0-3,2.33,10.66,10.66,0,0,0-.33,3.09,8.21,8.21,0,0,0-2.36-1.56c-1.11-.48-2.66-.67-3.28.65a4.48,4.48,0,0,0-.08,2.3c0,.46.09.92.13,1.38a3.11,3.11,0,0,1,0,.32c-.21-.27-.68-.55-.9-.79s-.55-.64-.82-1a14.62,14.62,0,0,0-1.56-1.78,4,4,0,0,0-3.48-1.13,2.44,2.44,0,0,0-1.71,3,13.82,13.82,0,0,0,.71,2.76,11.51,11.51,0,0,1,1,2.35c.16,1.44-1.55.59-2.36.35s-1.74-.55-2.62-.71c-1.26-.23-2.69.08-3,1.52-.68,3.42,3.39,6.09,5.64,7.83a3.16,3.16,0,0,0,.61.42,2.67,2.67,0,0,1-.53-.06c-.32-.06-.63-.19-.95-.27a8.53,8.53,0,0,0-2.66-.25c-1.35.11-2.32,1.14-1.47,2.46a16.93,16.93,0,0,0,2,2.16c.06.06.82.87.86.78-.09.18-1.09.09-1.26.09-1.51,0-3.39-.28-4.81.36C20.89,298,23.86,302,25.86,303.17Z"/><path class="cls-71" d="M74.81,270.47a22.24,22.24,0,0,1,.48,5.54,9.44,9.44,0,0,0,1.41,5.3c.54.75,1.25,1.35,1.81,2.08a8.1,8.1,0,0,1,1.42,5.47,21.86,21.86,0,0,1-1.38,5.6,52,52,0,0,1-6.14,12.71A23.52,23.52,0,0,1,61.59,316c1.25.44,10.5.12,18.09-8.74,4.18-4.87,6.52-10.35,8.41-16.48.82-2.66,1.24-5.62.15-8.19a24.59,24.59,0,0,0-2.64-4.09c-1-1.45-1.77-3-2.77-4.45a17.67,17.67,0,0,0-11-7.13A5.24,5.24,0,0,1,74.81,270.47Z"/><path class="cls-71" d="M32.59,255.6a13.54,13.54,0,0,0-6.31,6.33,40.57,40.57,0,0,0-1.49,5.58c-.79,3-2.26,5.81-3.11,8.81s-.89,6.75.8,9.37a18.15,18.15,0,0,1-7.13-17.32,18.73,18.73,0,0,1,11.29-14.53c4.57-1.86,13.77-2.54,18.58-1.33A33.84,33.84,0,0,0,32.59,255.6Z"/><path class="cls-71" d="M59.94,311.53c-5.65-1.17-11.27,1.9-17,2.36-4.55.37-9.07-.9-13.35-2.41-2.26-.8-4.63-1.69-7-1.35-3.52.51-6.1,3.69-6.7,7a5.22,5.22,0,0,0,.24,3.08,5.73,5.73,0,0,0,1.7,1.94c4.16,3.32,9.89,4.17,15.32,4.67q3.55.33,7.12.54c4.41.25,8.91.36,13.15-.82,3.81-1.07,7.78-3.55,9.82-6.86S64.24,312.41,59.94,311.53Z"/><path class="cls-71" d="M13.72,283.85a12.65,12.65,0,0,0-2.29.86C5.34,287.63,1.36,295.11,1,301.85c-.9-4.92.72-10.87,2.84-15.27a16.06,16.06,0,0,1,1.43-2.44,10,10,0,0,1,2.39-2.3,7.8,7.8,0,0,1,4.17-1.43,7.82,7.82,0,0,1,4,.72A26.71,26.71,0,0,1,22.15,286C18.51,283.86,16.3,283.19,13.72,283.85Z"/><path class="cls-72" d="M34.69,295.3c-.16-.73.31-1.34.59-2,.94-2.25-.74-6.09,2.07-7.21,1.49-.59,3.06-.43,4.39-1.46.94-.73,1.47-3.82,8.16-1.31,1.61.61,3.37.22,5.08.29a4,4,0,0,1,2.37.65c.76.64.54,1.39.46,2.28A4.66,4.66,0,0,0,59,290a15.07,15.07,0,0,1,2.23,2.57c.62,1.27-.58,2.13-1.23,3.12A6.22,6.22,0,0,0,59,299c-.05,1.21.14,2.65-1,3.43s-2.57.76-3.78,1.05a11.61,11.61,0,0,0-3.66,1.73c-1.4.9-2.61,1.66-4.27,1A16.19,16.19,0,0,0,43,304.84c-1.27-.23-2.87,0-3.87-1s-1.13-2.21-1.48-3.32A10.21,10.21,0,0,0,35.85,297,4.65,4.65,0,0,1,34.69,295.3Z"/><path class="cls-73" d="M55.51,291.77a8,8,0,0,1-2,7.86,8.55,8.55,0,0,1-7.88,2.16A6,6,0,0,1,43,300.52a6.78,6.78,0,0,1-1.38-1.85,10.4,10.4,0,0,1-1.47-4.77,6.33,6.33,0,0,1,1.66-4.62c1.81-1.84,5.27-2.33,7.74-2.52C52.24,286.56,54.8,289.46,55.51,291.77Z"/><path class="cls-74" d="M71.88,266.87s3.36.72,3.36,7.67,2.26,7.83,2.26,7.83,4.57,3.19,1.33,11.26-3.28,9.8-6.42,13.54a61.47,61.47,0,0,1-8.4,7.7,22,22,0,0,0,10.1-7.77c4.42-6,4.37-10,5.88-13.17s2-8.9-1.46-12S76.32,274.6,76,271.57,73.56,266.9,71.88,266.87Z"/><path class="cls-74" d="M22.53,310.13s2.4-.66,9,2S45.29,313.66,48,313s7-2.33,11.25-1.56,4.69,3.13,5,4.06-.48,3.39-1,4.22,1.83-4.86-2.67-7-7.77,1.09-13.55,1.66-9.14,1.37-13-.24S24.72,310.31,22.53,310.13Z"/><path class="cls-74" d="M1,301.85s.4-7.74,5.49-13.32,9.66-5.15,11.1-4.64S22.15,286,22.15,286s-3-3.29-7-3.29S6.77,285.44,3.48,291A18.12,18.12,0,0,0,1,301.85Z"/><path class="cls-74" d="M22.48,285.69s-2.25-2.44-.9-9a85.34,85.34,0,0,0,3.3-9.53c.78-3.36,1.41-7.71,5.61-9.92s5.55-3.69,14.73-4.72c0,0-3.94-.9-12,1.69s-8.54,8.56-9.11,11.35a34.62,34.62,0,0,1-2.93,8.67C19.84,276.69,18.26,283,22.48,285.69Z"/><path class="cls-75" d="M53.58,292.58A5.37,5.37,0,0,1,52.13,298a6.25,6.25,0,0,1-5.63,1.48,4.33,4.33,0,0,1-1.85-.87,5.06,5.06,0,0,1-1-1.27,7.07,7.07,0,0,1-1-3.29,4.27,4.27,0,0,1,1.18-3.18c1.3-1.27,3.78-1.61,5.54-1.74S53.07,291,53.58,292.58Z"/></g></g><rect class="cls-76" x="12.5" y="10" width="275" height="330" rx="25"/></g></g></svg>