<svg xmlns="http://www.w3.org/2000/svg" xmlns:xlink="http://www.w3.org/1999/xlink" viewBox="0 0 400 400"><defs><style>.cls-1{fill:#fff;}.cls-2{fill:none;}.cls-3{isolation:isolate;}.cls-4{clip-path:url(#clip-path);}.cls-5{clip-path:url(#clip-path-2);}.cls-6{clip-path:url(#clip-path-3);}.cls-7{fill:#00582b;}.cls-10,.cls-8{fill:#73b634;}.cls-8{stroke:#629b26;stroke-width:0.75px;}.cls-11,.cls-8{stroke-miterlimit:10;}.cls-9{fill:#497f34;}.cls-10{mix-blend-mode:screen;}.cls-11{fill:#82d324;stroke:#67a516;stroke-width:0.5px;}</style><clipPath id="clip-path"><circle class="cls-1" cx="420" cy="-220" r="196.51"/></clipPath><clipPath id="clip-path-2"><rect class="cls-2" x="33.02" y="-440.15" width="781.84" height="436.93"/></clipPath><clipPath id="clip-path-3"><circle class="cls-1" cx="200" cy="200" r="196.51"/></clipPath></defs><g class="cls-3"><g id="Layer_1" data-name="Layer 1"><circle class="cls-1" cx="420" cy="-220" r="196.51"/><circle class="cls-1" cx="200" cy="200" r="196.51"/><g class="cls-6"><path class="cls-7" d="M24.54,403.65H368c10.84-72.4,46.64-195,46.64-195-41.32-.46-49.82,68.15-49.82,68.15C361.47,211.94,386,162.34,386,162.34c-26.78,5.95-38.33,101.06-38.33,101.06-4.34-130.89,30-166.4,30-166.4-26.45.09-40.47,84.73-42.85,104.87-.07-17.7-5.05-61.42-5.06-61.39-6.84-59.32-20.13-88.33-20.13-88.33,4.2,27.9,10.37,93.71,10.67,121.38C303.09,93,283.22,95.16,284.42,97.46c9.48,18.12,22.87,79.16,26.08,108-16.3-76.63-39.87-80-39.87-80,13.74,18.91,19.86,56.47,22.36,78.5-10-31.18-27.78-57.32-43.6-67.63-2-1.29,12.45,30.8,18.43,45.17-8.56-9.88-18.28-17-27.28-16.73,11.81,17.29,21.45,40.39,24.63,68.36.46,4-4.13-14.59-14.54-27.52-7.51-9.32-12.84-10.07-19-8.83-.3,1.15,20.63,25.24,19.57,53.11-2.34-6.84-5.28-14.55-8.51-17.78-1.26-1.25-2.11-1.43-2.73-.92a208.58,208.58,0,0,1-8.69,52.87c-.26.9-1.08.78-1.2-.29a184,184,0,0,1,.83-45.12c1.2-8.46,2.63-19.38,6.65-24.75a.4.4,0,0,0-.24,0c-10.83,3.55-16.82,21.76-19.55,41.24-.86,2.1-1.31,3.49-1.31,3.49,0-22,7-42.63,7-42.63-10.1-1.9-16.37,26.34-16.37,26.34,0-44,15.45-76.61,15.45-76.61-22.18-10.06-31.05,64.16-31.05,64.16,0-58.89-18.2-102.95-18.2-102.95,3.22,21.43,4,47.27,4.1,67.42a294,294,0,0,0-9.66-42.29c-7.15-19.37-17.2-32.45-28.42-41.93a422.62,422.62,0,0,1,9.92,42.62c-5.14-13.29-11-25.23-18.34-33.07-1.42-1.51,7.33,44,10.72,65.26-.1-.17-.19-.31-.28-.48-.45-1.87-.87-3.6-1.2-5-4.72-19-12.59-38.7-22.94-47.74-1.11-1,12.54,49.6,2.76,83.72.89-48.66-14.55-89.35-14.52-87.26.38,23.79,6.82,64.89-19.85,121.94C84.18,190,97,134,102.83,111.71,86,126.34,79.15,154.41,73.66,186c-3.78,21.74-6.44,44.2-8.29,66.81C71.94,144.54,52.34,75,43.88,50.66c1,12.42,4,35.61,7,52.39,2,20.71,5,62.68,5.63,82.78-5.36-36-10.92-54.71-16.32-67.55a82,82,0,0,0-9.51-13.68c7.77,22.15,12,45.76,14.26,70.19a261.29,261.29,0,0,0-8.85-25.67C27,132.33,15.72,122.39,3.68,115.83c3.43,7.77,6.94,15.37,10.15,23.26,6,13.66,11.48,27.92,14.73,46.33,4.26,24.07,6.68,48.31,9,72.82C31.86,230.18,21.94,204,9,187.93c-6.07-7.5-23.32-30.13-33-27.25C-3.21,190.07,10.3,227.82,18.4,271,20.34,279,22.64,353.18,24.54,403.65Z"/><path class="cls-8" d="M312.53,228.67c-35.13,7.7-67,27.73-93.59,50.46-24.22,20.72-45.12,48.7-57.8,77.43-.64,1.43-1.42,3.15-2.3,5.05,4.81-34.09,12.14-67.25,26.26-100.41,22.58-52.95,57.84-82.65,102-118.14a160.82,160.82,0,0,0-41.6,16.1c-21.41,12-38.62,27.65-53.74,45.57A275,275,0,0,0,171.58,235c-14.45,25.27-22.27,54.2-28.6,82.23-1.58,7.05-3.55,14.57-5.44,22.34.6-38.64,1.8-77.14,6.75-115.7,6.28-48.93,22.33-94.37,32.14-142.19a232.22,232.22,0,0,0-18.4,27.7C142.4,148.13,130.72,187.18,123.9,229c-2.79,17.15-3.41,34.41-3.16,51.68-3.39-31.45-10.6-62.24-25-91.53-6.88-14-19.9-31.37-35.73-44.63C44.84,134,27.85,129.17,9.32,129.17c59.87,41.31,73.26,113.74,78.36,184.31-10-18.32-24.34-33.82-44.87-42.62C10.44,257-32.3,252-66.57,265.78a61.31,61.31,0,0,0-6.89,5.07c-.78.66-1.48,1.4-2.23,2.09,35.84-6.7,71.47,6,99.8,31.3,18.07,16.13,34.83,35.39,43.63,57.89,5.43,13.9,8.94,28.16,11.71,42.59H215.27a2.13,2.13,0,0,0-.86-.88c1.82-7.29,4-14.35,6.39-21.32C229.42,353,243.37,325,263.57,301c31.5-37.43,72.87-60.22,118.28-75.67C363.62,217,330.64,224.69,312.53,228.67Z"/><path class="cls-9" d="M17.8,254.76a131.52,131.52,0,0,0-41.92-3.47c-2.69.44-5.35.92-7.94,1.47-14.94,3.13-29.77,8.09-41.4,18.09-.78.65-1.48,1.39-2.21,2.09,1.1-.21,2.21-.42,3.3-.59,33.36-15.63,70.59-15.24,106.44-2,40.31,14.93,60.78,70.22,72.05,106.18.26.8,1.58-.21,1.47-.83C99.43,322.27,76.52,270,17.8,254.76Z"/><path class="cls-9" d="M98.39,190.92c-7.86-13.42-16-26.87-27.23-37.47-16.75-15.76-36.08-23.4-57.56-24.29,12.65,5.65,37.4,17.3,38.62,18.16C69.35,159.41,80.76,177.66,90,195.66c18.21,35.59,22.18,76.93,29.15,115.47.19,1,1.54,0,1.51-.66C119.62,269.42,114.42,228.81,98.39,190.92Z"/><path class="cls-9" d="M178.47,79.13q-6,7.55-11.32,15.5C150,133.25,143.23,174.7,137.44,217.06c-7.92,57.69-11.27,118.37.43,175.76.43,2.17,3.25.08,3.22-1.41A1117,1117,0,0,1,178.47,79.13Z"/><path class="cls-9" d="M262.38,151.08c-74,45.71-106.59,138.95-106.53,220.7,0,2,2.65.88,2.87-.55,13.63-91.94,53.35-173.29,131.18-228.89A158.67,158.67,0,0,0,262.38,151.08Z"/><path class="cls-9" d="M263.57,301c34.13-40.56,79.84-63.93,129.72-79.39-44.93-3.82-86.19,18.94-119.12,47.53-35,30.35-71.8,86.94-66.33,135.54h7.55C222.85,367.07,238.38,331,263.57,301Z"/><path class="cls-10" d="M305.35,232.89c-36,12.86-67.58,30.31-93.44,58.21-22.86,24.65-44.34,54.36-48.56,87.9-.19,1.55,2.07.92,2.35-.17,17.81-68.63,74.86-117.78,139.73-145.4C305.75,233.3,305.79,232.73,305.35,232.89Z"/><path class="cls-10" d="M209.78,190.4c-42.47,44.81-64.11,97.46-62.13,158.58,0,.63,1,.13,1-.33,2.66-59,22.83-112.26,61.46-157.91C210.43,190.41,210.08,190.09,209.78,190.4Z"/><path class="cls-10" d="M134.18,201.86c0-.42-.55-.17-.61.13-3.17,17.15-7.92,33.93-9.69,51.31-1.94,18.85-1.25,38-.08,56.88.06,1,1.66.2,1.66-.53.1-18.92-.38-38,1-56.86C127.7,235.72,132,218.86,134.18,201.86Z"/><path class="cls-10" d="M77.47,212c-5.36-20.8-15.95-42.82-31.33-58.41-.11-.12-.35.12-.24.25,14.31,17.76,23.51,41.35,29.16,63.05,5.81,22.32,8.45,45,14,67.31.22.9,1.4.05,1.36-.59C89.06,259,83.58,235.69,77.47,212Z"/><path class="cls-10" d="M43.05,310.13c-19.52-23-43.19-35.35-73-40.44-.34-.06-.78.62-.37.73C25,285.1,62.08,331.79,79.71,383c.31.87,1.75-.22,1.61-.91C76.13,355.58,60.56,330.74,43.05,310.13Z"/><path class="cls-8" d="M405.65,228.89c-33.89,7.7-64.64,27.73-90.29,50.46a223.81,223.81,0,0,0-55.78,77.43c-.61,1.43-1.37,3.15-2.21,5.05,4.64-34.09,11.71-67.24,25.34-100.41,21.78-53,55.81-82.65,98.39-118.14A152,152,0,0,0,341,159.38C320.3,171.34,303.7,187,289.11,205a276.37,276.37,0,0,0-19.45,30.3c-13.94,25.27-21.49,54.2-27.59,82.23-1.53,7-3.43,14.57-5.25,22.34.58-38.64,1.73-77.14,6.51-115.7,6.06-48.93,21.55-94.37,31-142.19a234.39,234.39,0,0,0-17.74,27.7c-15.09,38.72-26.35,77.77-32.93,119.63-2.69,17.16-3.29,34.41-3.06,51.68-3.26-31.45-10.22-62.24-24.09-91.53-6.64-14-19.21-31.36-34.48-44.63-14.66-10.52-31.05-15.39-48.92-15.39,57.76,41.31,70.68,113.74,75.6,184.31-9.68-18.32-23.49-33.82-43.29-42.62C114.19,257.2,73,252.18,39.89,266a58.79,58.79,0,0,0-6.66,5.07c-.75.66-1.42,1.4-2.15,2.09,34.58-6.7,69,6,96.3,31.3,17.43,16.13,33.61,35.39,42.09,57.89,5.24,13.9,8.62,28.16,11.3,42.59h131a2.18,2.18,0,0,0-.83-.88c1.75-7.28,3.88-14.35,6.16-21.32,8.31-29.53,21.78-57.48,41.26-81.48,30.39-37.43,70.31-60.22,114.12-75.67C455,217.21,423.13,224.91,405.65,228.89Z"/><path class="cls-9" d="M121.29,255a122.59,122.59,0,0,0-40.45-3.47c-2.59.44-5.16.92-7.66,1.47-14.42,3.13-28.73,8.09-40,18.09-.74.65-1.42,1.39-2.13,2.09,1.06-.21,2.13-.42,3.19-.59,32.18-15.63,68.1-15.24,102.69-1.95,38.9,14.93,58.65,70.22,69.52,106.18.25.8,1.52-.21,1.42-.83C200.05,322.49,177.94,270.17,121.29,255Z"/><path class="cls-9" d="M199,191.14c-7.58-13.42-15.4-26.87-26.27-37.47-16.16-15.76-34.81-23.4-55.53-24.29,12.2,5.65,36.08,17.3,37.26,18.16C171,159.63,182,177.88,190.93,195.88c17.57,35.59,21.4,76.93,28.12,115.47.18,1,1.49,0,1.46-.66C219.53,269.64,214.51,229,199,191.14Z"/><path class="cls-9" d="M276.31,79.35q-5.81,7.55-10.93,15.5c-16.53,38.62-23.07,80.07-28.66,122.43-7.64,57.69-10.87,118.38.41,175.76.42,2.17,3.14.08,3.11-1.41A1155.4,1155.4,0,0,1,276.31,79.35Z"/><path class="cls-9" d="M357.27,151.3C285.9,197,254.43,290.25,254.48,372c0,2,2.56.88,2.77-.55,13.15-91.94,51.48-173.29,126.57-228.89A149,149,0,0,0,357.27,151.3Z"/><path class="cls-9" d="M358.41,301.26c32.93-40.56,77-63.93,125.17-79.39-43.35-3.82-83.17,18.94-114.94,47.53-33.72,30.35-69.27,86.94-64,135.54h7.28C319.13,367.29,334.12,331.2,358.41,301.26Z"/><path class="cls-10" d="M398.73,233.11C364,246,333.52,263.42,308.57,291.32c-22.05,24.65-42.78,54.36-46.85,87.9-.18,1.55,2,.92,2.26-.16,17.2-68.64,72.23-117.79,134.83-145.41C399.11,233.52,399.15,233,398.73,233.11Z"/><path class="cls-10" d="M306.52,190.62c-41,44.81-61.86,97.46-59.95,158.58,0,.63,1,.13,1-.33,2.57-59,22-112.26,59.3-157.91C307.15,190.64,306.8,190.31,306.52,190.62Z"/><path class="cls-10" d="M233.58,202.08c0-.42-.54-.17-.6.13-3,17.15-7.63,33.93-9.35,51.31-1.86,18.85-1.2,38-.07,56.88.06,1,1.6.2,1.6-.53.1-18.92-.37-38,1-56.86C227.32,235.94,231.47,219.08,233.58,202.08Z"/><path class="cls-10" d="M178.86,212.17c-5.17-20.8-15.39-42.82-30.23-58.41-.11-.12-.33.12-.23.25,13.81,17.76,22.68,41.35,28.13,63.05,5.61,22.32,8.16,45,13.51,67.31.21.9,1.35.05,1.31-.59C190,259.25,184.75,235.91,178.86,212.17Z"/><path class="cls-10" d="M145.65,310.35c-18.83-23-41.68-35.35-70.41-40.44-.33-.06-.75.62-.35.73C128.18,285.32,164,332,181,383.18c.3.87,1.69-.22,1.56-.91C177.56,355.8,162.54,331,145.65,310.35Z"/><path class="cls-11" d="M123.73,321.78c-16,3.64-30.53,13.1-42.65,23.84a105.65,105.65,0,0,0-26.34,36.57c-.29.68-.65,1.49-1.05,2.39,2.19-16.11,5.53-31.77,12-47.43,10.29-25,26.36-39,46.48-55.81a72.13,72.13,0,0,0-19,7.61c-9.76,5.65-17.61,13.06-24.5,21.52a129.85,129.85,0,0,0-9.18,14.32c-6.59,11.93-10.15,25.6-13,38.84-.73,3.33-1.62,6.88-2.49,10.55.28-18.25.82-36.43,3.08-54.65,2.86-23.11,10.18-44.58,14.65-67.16a109.14,109.14,0,0,0-8.39,13.08A269.49,269.49,0,0,0,37.77,322a143.53,143.53,0,0,0-1.44,24.41c-1.55-14.86-4.83-29.4-11.39-43.23A68.94,68.94,0,0,0,8.66,282.06a38.62,38.62,0,0,0-23.11-7.27c27.29,19.51,33.39,53.72,35.71,87-4.57-8.65-11.09-16-20.45-20.13-14.75-6.56-34.23-8.92-49.85-2.4a29.89,29.89,0,0,0-3.14,2.39c-.35.32-.67.67-1,1,16.33-3.17,32.57,2.83,45.48,14.78C.52,365.1,8.17,374.2,12.17,384.82a116.41,116.41,0,0,1,5.34,20.12h61.9a1,1,0,0,0-.39-.42c.83-3.44,1.83-6.78,2.91-10.07A106.57,106.57,0,0,1,101.42,356c14.35-17.68,33.21-28.45,53.9-35.75C147,316.27,132,319.9,123.73,321.78Z"/><path class="cls-9" d="M-10.59,334.11a57.63,57.63,0,0,0-19.1-1.64c-1.22.21-2.44.43-3.62.69-6.81,1.48-13.57,3.82-18.87,8.54-.35.32-.67.66-1,1,.5-.1,1-.2,1.5-.28,15.2-7.39,32.17-7.2,48.51-.93,18.37,7.06,27.7,33.17,32.84,50.16.11.38.71-.1.67-.39C26.62,366,16.17,341.28-10.59,334.11Z"/><path class="cls-9" d="M26.14,304c-3.58-6.34-7.27-12.69-12.41-17.7A38.79,38.79,0,0,0-12.5,274.78c5.77,2.67,17,8.17,17.6,8.58,7.81,5.71,13,14.33,17.21,22.83,8.3,16.81,10.11,36.34,13.28,54.54.09.48.71,0,.69-.31C35.82,341,33.45,321.85,26.14,304Z"/><path class="cls-9" d="M62.64,251.15c-1.83,2.38-3.55,4.81-5.16,7.32-7.81,18.24-10.9,37.82-13.54,57.83-3.61,27.25-5.14,55.91.19,83,.2,1,1.49,0,1.47-.67A545.86,545.86,0,0,1,62.64,251.15Z"/><path class="cls-9" d="M100.88,285.13c-33.71,21.6-48.58,65.64-48.55,104.25,0,1,1.21.42,1.3-.26C59.85,345.69,78,307.27,113.42,281A69.45,69.45,0,0,0,100.88,285.13Z"/><path class="cls-9" d="M101.42,356c15.55-19.16,36.39-30.2,59.12-37.5-20.48-1.81-39.28,8.94-54.29,22.45C90.32,355.25,73.53,382,76,404.94h3.44C82.86,387.15,89.94,370.11,101.42,356Z"/><path class="cls-10" d="M120.46,323.78c-16.41,6.07-30.8,14.31-42.58,27.49C67.46,362.92,57.67,377,55.75,392.79c-.09.73.94.43,1.07-.08,8.12-32.42,34.11-55.63,63.68-68.68C120.64,324,120.66,323.7,120.46,323.78Z"/><path class="cls-10" d="M76.91,303.71c-19.36,21.16-29.22,46-28.32,74.9,0,.3.47.06.48-.15,1.21-27.87,10.4-53,28-74.59C77.2,303.71,77,303.56,76.91,303.71Z"/><path class="cls-10" d="M42.45,309.12c0-.2-.25-.08-.28.06-1.44,8.1-3.6,16-4.41,24.24a169.62,169.62,0,0,0,0,26.86c0,.47.76.1.76-.25,0-8.93-.18-17.93.45-26.85C39.5,325.11,41.46,317.15,42.45,309.12Z"/><path class="cls-10" d="M16.61,313.89c-2.45-9.83-7.27-20.23-14.28-27.6-.05-.05-.16.06-.11.12C8.74,294.8,12.94,306,15.51,316.2c2.65,10.54,3.85,21.26,6.38,31.79.1.42.64,0,.62-.28C21.89,336.12,19.39,325.1,16.61,313.89Z"/><path class="cls-10" d="M.92,360.26c-8.89-10.84-19.68-16.7-33.25-19.1-.16,0-.36.29-.17.34,25.17,6.94,42.1,29,50.13,53.16.14.41.8-.1.73-.43C16,381.73,8.9,370,.92,360.26Z"/><path class="cls-11" d="M417.56,322.36c-16,3.63-30.54,13.1-42.65,23.83a105.71,105.71,0,0,0-26.35,36.58c-.29.67-.64,1.49-1,2.38,2.19-16.1,5.53-31.76,12-47.43,10.29-25,26.36-39,46.47-55.8a71.59,71.59,0,0,0-19,7.61c-9.76,5.65-17.6,13.06-24.49,21.52a132.33,132.33,0,0,0-9.19,14.31c-6.58,11.94-10.15,25.61-13,38.84-.72,3.33-1.62,6.89-2.48,10.56.27-18.26.82-36.44,3.07-54.65,2.87-23.11,10.18-44.58,14.65-67.17A111.13,111.13,0,0,0,347.15,266a269.23,269.23,0,0,0-15.56,56.51,144.69,144.69,0,0,0-1.44,24.41c-1.54-14.85-4.83-29.39-11.38-43.23a69.22,69.22,0,0,0-16.28-21.08,38.64,38.64,0,0,0-23.11-7.27c27.28,19.51,33.38,53.72,35.71,87.06-4.58-8.66-11.1-16-20.45-20.13-14.75-6.56-34.23-8.93-49.85-2.4a27.66,27.66,0,0,0-3.14,2.39c-.36.31-.68.66-1,1,16.33-3.16,32.58,2.84,45.49,14.78,8.23,7.62,15.87,16.72,19.88,27.35a118.13,118.13,0,0,1,5.34,20.11h61.89a1,1,0,0,0-.39-.41c.83-3.44,1.84-6.78,2.91-10.07a106.61,106.61,0,0,1,19.49-38.49c14.36-17.68,33.21-28.44,53.91-35.74C440.84,316.84,425.81,320.48,417.56,322.36Z"/><path class="cls-9" d="M283.24,334.68a58.19,58.19,0,0,0-19.1-1.64c-1.23.21-2.44.44-3.62.69-6.81,1.48-13.57,3.83-18.87,8.55-.36.31-.68.66-1,1,.5-.1,1-.2,1.51-.28,15.2-7.38,32.17-7.2,48.5-.92,18.37,7.05,27.7,33.17,32.84,50.15.12.38.72-.1.67-.39C320.44,366.57,310,341.86,283.24,334.68Z"/><path class="cls-9" d="M320,304.53c-3.59-6.34-7.28-12.7-12.41-17.7a38.78,38.78,0,0,0-26.23-11.47c5.76,2.66,17,8.17,17.6,8.57,7.8,5.71,13,14.34,17.2,22.83,8.3,16.82,10.11,36.35,13.29,54.55.08.48.7,0,.69-.32C329.64,341.6,327.27,322.42,320,304.53Z"/><path class="cls-9" d="M356.46,251.72c-1.82,2.38-3.55,4.82-5.16,7.33-7.81,18.24-10.9,37.82-13.54,57.82-3.6,27.25-5.13,55.92.2,83,.2,1,1.48,0,1.46-.66A545.94,545.94,0,0,1,356.46,251.72Z"/><path class="cls-9" d="M394.7,285.71C361,307.3,346.13,351.34,346.15,390c0,1,1.21.42,1.31-.26,6.21-43.42,24.31-81.85,59.79-108.11A70.38,70.38,0,0,0,394.7,285.71Z"/><path class="cls-9" d="M395.24,356.54c15.56-19.15,36.39-30.19,59.12-37.5-20.47-1.8-39.28,8.95-54.29,22.45-15.92,14.34-32.72,41.07-30.22,64h3.44C376.69,387.73,383.77,370.69,395.24,356.54Z"/><path class="cls-10" d="M414.29,324.35c-16.42,6.07-30.8,14.32-42.59,27.5-10.41,11.64-20.21,25.67-22.13,41.52-.09.73.95.43,1.07-.08,8.12-32.42,34.12-55.64,63.68-68.68C414.47,324.54,414.49,324.27,414.29,324.35Z"/><path class="cls-10" d="M370.73,304.28c-19.36,21.17-29.22,46-28.32,74.91,0,.29.48.05.48-.16,1.22-27.86,10.41-53,28-74.59C371,304.29,370.87,304.13,370.73,304.28Z"/><path class="cls-10" d="M336.28,309.7c0-.2-.25-.09-.28.05-1.45,8.11-3.61,16-4.42,24.24a169.75,169.75,0,0,0,0,26.87c0,.46.75.09.76-.25,0-8.94-.18-17.94.44-26.86C333.32,325.69,335.29,317.72,336.28,309.7Z"/><path class="cls-10" d="M310.43,314.46c-2.44-9.82-7.27-20.23-14.27-27.59-.06-.06-.16.06-.11.12,6.52,8.39,10.71,19.53,13.28,29.78,2.65,10.54,3.86,21.27,6.38,31.8.1.42.64,0,.63-.28C315.71,336.7,313.22,325.67,310.43,314.46Z"/><path class="cls-10" d="M294.75,360.83c-8.9-10.84-19.69-16.69-33.26-19.1-.16,0-.35.3-.17.35,25.18,6.93,42.1,29,50.13,53.16.14.4.8-.11.74-.44C309.82,382.3,302.73,370.57,294.75,360.83Z"/></g></g></g></svg>