<?xml version="1.0" encoding="utf-8"?>
<!-- Generator: Adobe Illustrator 25.2.3, SVG Export Plug-In . SVG Version: 6.00 Build 0)  -->
<svg version="1.1" id="Layer_1" xmlns="http://www.w3.org/2000/svg" xmlns:xlink="http://www.w3.org/1999/xlink" x="0px" y="0px"
	 viewBox="0 0 400 400" style="enable-background:new 0 0 400 400;" xml:space="preserve">
<style type="text/css">
	.st0{fill:#FFFFFF;}
	.st1{clip-path:url(#SVGID_2_);}
	.st2{fill:#68C129;stroke:#1A6014;stroke-width:0.5;stroke-miterlimit:10;}
	.st3{fill:#43662A;}
	.st4{fill:#58972C;stroke:#1A6014;stroke-width:0.5;stroke-miterlimit:10;}
	.st5{fill:#B0D400;stroke:#22A314;stroke-width:0.5;stroke-miterlimit:10;}
	.st6{fill:#4B7D50;}
	.st7{fill:#58972C;stroke:#22A314;stroke-width:0.5;stroke-miterlimit:10;}
	.st8{fill:#FFE600;stroke:#E2A307;stroke-width:0.75;stroke-miterlimit:10;}
	.st9{fill:#FFFFA6;stroke:#B5B164;stroke-miterlimit:10;}
	.st10{fill:#FFFF33;}
	.st11{fill:#FFE600;stroke:#FFE600;stroke-miterlimit:10;}
	.st12{fill:#FFFFA6;}
	.st13{fill:#FFE600;}
	.st14{fill:#F9C701;}
</style>
<circle class="st0" cx="200" cy="200" r="196.5"/>
<g>
	<defs>
		<circle id="SVGID_1_" cx="200" cy="200" r="196.5"/>
	</defs>
	<clipPath id="SVGID_2_">
		<use xlink:href="#SVGID_1_"  style="overflow:visible;"/>
	</clipPath>
	<g class="st1">
		<path class="st2" d="M156,124.5c-1.4-7.1-5.1-17.7-15.6-23.7c0,0-13.2-29.5,2.8-22.9c0,0,1.1-20.2,9.4-13c0,0,8.4-25.8,18.3-13.2
			c0,0,16.7-21.7,17.5-10.3c0,0,19.4-15.1,19.9-4.3c0,0.5,0,1,0,1.4c2.9-2.7,14.5-13.5,16.4-6.7c0,0,21.5-7.4,24.6-1.2
			c0.1,0.2,0.1,0.3,0.1,0.5C168.9,76.6,156.9,110.3,156,124.5z"/>
		<path class="st3" d="M249.4,31.2c0,0-95.7,66.6-93.2,102.4C156.3,133.6,130.8,88.6,249.4,31.2z"/>
		<path class="st4" d="M237.1,67c0,0,11.9,6.9-9.6,12.1c0,0,20.3,7.4-8.4,16c0,0,6.6,11.6-14.3,9c0,0,9.5,11.5-9.4,9
			c0,0,11.5,9.9-9.6,0.9c0,0,7.8,8.8-9.6,4c0,0,1.7,6.7-12.3,4.2c0,0-6.2,6.3-7.3,10c0-2.5-0.2-5.1-0.7-7.6
			c0.9-14.3,13-48,93.5-93.3c0.5,1.7,1.4,7.6-4.1,14c0,0,12.3,2.1-1.5,12.5C243.8,57.7,253.1,62.1,237.1,67z"/>
		<path class="st5" d="M159.3,132.5c-3.6-5.1-7.9-13.7-5.4-23.8c0,0-10.4-25.7-15.8-11.9c0,0-13.2-11.3-13.6-1.9
			c0,0-21-10.1-19.1,3.5c0,0-23.4-2.6-16.8,4.7c0,0-20.9,3-14.5,9.8c0.3,0.3,0.6,0.6,0.9,0.9c-3.4,0.2-17,1-13.9,6.1
			c0,0-17.4,8.9-15.4,14.6c0,0,0.1,0.1,0.2,0.4C121.8,112,149.9,124.5,159.3,132.5z"/>
		<path class="st6" d="M45.8,134.9c0,0,98.2-19.7,118.9,3.1C164.7,138,151.9,95.5,45.8,134.9z"/>
		<path class="st7" d="M75.4,148.5c0,0-2.8,11.5,13.2,1.3c0,0-7.5,16.9,14.9,4.3c0,0,3.3,11,14.1-3.5c0,0,1.5,12.8,11.1-0.4
			c0,0-0.7,13,6.3-5.4c0,0,0.8,10.1,8.2-3.5c0,0,3.2,5,9.9-5.1c0,0,7.6-0.1,10.5,1.5c-1.6-1.5-3-3.2-4.3-4.9
			c-9.4-7.9-37.4-20.5-113.4,2.4c0.8,1.3,3.9,5.4,11.1,5.8c0,0-6,8.9,8.6,6.5C65.6,147.2,62.8,155.6,75.4,148.5z"/>
		<path class="st8" d="M152.9,276.9c0,0,26,61.8,70.3,55.8c0,0-84.9,25.6-138-46.8c0,0-17.9-29.5-20.2-44.3c0,0-24.4-13-1.3-21.4
			c0,0,13.3-113.3,132.6-101.6C196.4,118.7,113.2,132.1,152.9,276.9z"/>
		<path class="st9" d="M276.2,218.5c-3.1-28.4-13.2-53.3-26.9-70.5l-0.1-0.1c-13.5-16.9-30.5-26.4-47.9-24.4
			c-35.2,3.8-58.7,52.6-52.5,108.9c1.6,15.5,5.5,30.6,11.6,44.9c0.4,0.9,0.8,1.9,1.3,2.7c0.7,1.8,1.7,3.5,2.5,5.2
			c0,0.1,0.1,0.1,0.1,0.2c0.8,1.4,1.5,2.9,2.4,4.2c3.4,6,7.4,11.6,11.9,16.8c1.2,1.5,2.5,2.9,3.9,4.2c1.3,1.3,2.7,2.5,4,3.7h0.1
			c1.1,1,2.3,1.9,3.4,2.8c1.3,1,2.6,1.9,3.9,2.8s2.6,1.6,3.9,2.3c1,0.5,1.9,1,2.9,1.4c0.9,0.4,1.8,0.8,2.7,1.1
			c0.9,0.4,1.8,0.7,2.8,1c1.1,0.4,2.3,0.7,3.4,0.9c0.1,0.1,0.2,0.1,0.3,0.1c0.7,0.2,1.4,0.3,2.2,0.4c0.9,0.2,1.9,0.4,2.8,0.4
			c1.4,0.2,2.9,0.2,4.4,0.2c1.5,0,3-0.1,4.4-0.2c11.6-1.3,22.1-7.5,30.6-17.3c0.1-0.2,0.3-0.3,0.3-0.5
			C271.3,289.8,280.2,255.8,276.2,218.5z M222.1,313.2c-28.3,3.1-55.4-32.7-60.6-80s13.6-88.1,41.9-91.2s55.4,32.7,60.6,80
			S250.4,310.1,222.1,313.2L222.1,313.2z"/>
		<path class="st10" d="M263.9,222c-5.2-47.2-32.3-83.1-60.6-80s-47.1,44-41.9,91.2s32.3,83.1,60.6,80S269.1,269.3,263.9,222z
			 M255.5,257.7c-1.8,3-15.3,2.9-33.8-22.9c-0.4,0.6-1,1.1-1.6,1.4c9.6,12.9,25,27,32.3,33.4c5.2,4.6-15.7,29.3-15.7,29.3
			c-7.8,5.2-11,0-11,0l-8.8-61.6c-0.2,0.1-0.4,0.1-0.7,0.1l3.8,59.8c-4.9,9.5-11.6,4.7-15.2,3.2c-12.8-5.3-16-15.9-16-15.9
			c-0.2-1.9,10.1-21.2,18.1-35.7c-10,13.2-22.6,20.4-25.3,20.8c-7.2,0.7-11.2-19.9-11.2-19.9c-5.7-16.7,24.4-17.8,38.6-17.3
			c-0.3-0.8-0.4-1.5-0.4-2.4v-0.1c-41.6,1.1-38.9-8.6-38.9-8.6c-2.8-9.2,1.7-51.1,10-43.6c1.7,1.5,22.9,35.8,30.4,47.9
			c0.6-0.7,1.2-1.3,2-1.9L185.4,177c0,0-7.4-7.1,0-12s24.5-10.5,24.5-10.5s6.5-2.4,6.1,10.5c-0.7,18.3-1.3,46.6-1.6,57.8
			c0.5-0.1,1.1-0.1,1.6-0.2h0.1c0.4-13.1,2.1-59.2,6.7-61.9c0,0,13.6,0.3,16.7,15.5c0,0.2,0,0.3,0.1,0.5c2.5,14-14.3,36.3-21.4,46.2
			c0.3,0.1,0.6,0.2,0.9,0.3c7.5-10.7,27-37.3,31.1-34.8c0,0,9.2,4.5,7.1,26.1c0,0-6,9.1-34.5,12.4c0.2,0.5,0.4,1,0.5,1.5
			c10.1-2,31.2-5.9,34.3-2.4C262.2,236.3,261.4,248.1,255.5,257.7L255.5,257.7z"/>
		<path class="st11" d="M254.2,310.1c-8,11.2-19,18.5-31.4,22.7c-27.4,5-53.4-22-62.2-38.4c-3.1-5.6-5.8-11.4-8.1-17.4
			c-12.6-31.5-13-59.9-11.1-80.9c6.3-70.3,51.6-77,54.7-77.4h0.2c38.5,5.3,52.2,27.6,53.1,29.2c-13.5-16.9-30.5-26.4-47.9-24.4
			c-35.2,3.8-58.7,52.6-52.5,108.9c1.6,15.5,5.5,30.6,11.6,44.9c0.4,0.9,0.8,1.9,1.3,2.7c0.7,1.8,1.7,3.5,2.5,5.2
			c0,0.1,0.1,0.1,0.1,0.2c0.8,1.4,1.5,2.9,2.4,4.2c3.4,6,7.4,11.6,11.9,16.8c1.2,1.5,2.5,2.9,3.9,4.2c1.3,1.3,2.7,2.5,4,3.7h0.1
			c1.1,1,2.3,1.9,3.4,2.8c1.3,1,2.6,1.9,3.9,2.8s2.6,1.6,3.9,2.3c1,0.5,1.9,1,2.9,1.4c0.9,0.4,1.8,0.8,2.7,1.1
			c0.9,0.4,1.8,0.7,2.8,1c1.1,0.4,2.3,0.7,3.4,0.9c0.1,0.1,0.2,0.1,0.3,0.1c0.7,0.2,1.4,0.3,2.2,0.4c0.9,0.2,1.9,0.4,2.8,0.4
			c1.4,0.2,2.9,0.2,4.4,0.2c1.5,0,3-0.1,4.4-0.2C235.3,326.2,245.8,319.9,254.2,310.1z"/>
		<path class="st12" d="M126.4,158.7c-14.5,9.6-28.7,13.6-31.6,9.1s6.3-16,20.8-25.5s28.7-13.6,31.7-9.1S140.9,149.1,126.4,158.7z"
			/>
		<path class="st13" d="M216,165c-0.7,18.3-1.3,46.6-1.6,57.8c-0.8,0.2-1.6,0.5-2.4,0.9L185.4,177c0,0-7.4-7.1,0-12
			s24.5-10.5,24.5-10.5S216.4,152.1,216,165z"/>
		<path class="st13" d="M218.1,223c-0.6-0.2-1.3-0.3-2-0.3c0.4-13.1,2.1-59.2,6.7-61.9c0,0,13.6,0.3,16.7,15.5c0,0.2,0,0.3,0.1,0.5
			C242.1,190.7,225.2,213.1,218.1,223z"/>
		<path class="st13" d="M257.3,214.6c0,0-6,9.1-34.5,12.4c-0.7-1.7-2.1-3-3.8-3.7c7.5-10.7,27-37.3,31.1-34.8
			C250.2,188.5,259.4,193,257.3,214.6z"/>
		<path class="st13" d="M255.5,257.6c-1.8,3-15.3,2.9-33.8-22.9c1.1-1.3,1.8-3,1.8-4.8c0-0.5-0.1-1-0.2-1.5
			c10.1-2,31.2-5.9,34.3-2.4C262.2,236.3,261.4,248.1,255.5,257.6z"/>
		<path class="st13" d="M210.1,225.6c-1,1.2-1.5,2.8-1.5,4.3c-41.6,1.1-38.8-8.6-38.8-8.6c-2.8-9.2,1.7-51.1,10-43.6
			C181.4,179.2,202.6,213.4,210.1,225.6z"/>
		<path class="st13" d="M213.6,237c-1.7,2.9-4,7.1-6.6,11.8c-10,13.2-22.6,20.4-25.3,20.8c-7.2,0.7-11.2-19.9-11.2-19.9
			c-5.8-16.6,24.4-17.7,38.5-17.3C209.7,234.5,211.4,236.3,213.6,237z"/>
		<path class="st13" d="M220.1,297.2c-4.9,9.5-11.6,4.7-15.2,3.2c-12.8-5.3-16-15.9-16-15.9c-0.2-1.9,10.1-21.2,18.1-35.7
			c1.6-2.9,4.6-8.8,6.6-13.1c0.6,0.3,1.8,1.7,2.4,1.7h0.3L220.1,297.2z"/>
		<path class="st13" d="M236.8,298.9c-7.8,5.2-11,0-11,0l-8.8-61.5c1.1-0.1,2.2-0.5,3.1-1.2c9.6,12.9,25,27,32.3,33.4
			C257.6,274.2,236.8,298.9,236.8,298.9z"/>
		<path class="st12" d="M223.5,230c0,1.8-0.6,3.4-1.8,4.8c-0.4,0.6-1,1.1-1.6,1.4c-0.9,0.6-2,1-3.1,1.2c-0.2,0.1-0.4,0.1-0.7,0.1
			H216c-0.7,0-1.3-0.1-1.9-0.3c-0.2,0-0.3,0-0.5-0.1c-2.2-0.7-3.9-2.5-4.6-4.7c-0.3-0.8-0.4-1.5-0.4-2.4v-0.1c0-1.6,0.5-3.1,1.5-4.3
			c0.6-0.7,1.2-1.3,2-1.9c0.7-0.4,1.5-0.7,2.4-0.9c0.5-0.1,1.1-0.1,1.6-0.2h0.1c0.7,0,1.4,0.1,2,0.3c0.3,0.1,0.6,0.2,0.9,0.3
			c1.7,0.7,3.1,2,3.8,3.7c0.2,0.5,0.4,1,0.5,1.5C223.4,229,223.5,229.5,223.5,230z"/>
		<path class="st14" d="M222.8,332.8c-50.1,11.5-91.2-4.2-112.9-21c-35-27-45.3-70.1-45.3-70.1c-12.2-7.5-10.7-12.1-10.7-12.1
			s12.6,1.6,15.9,0.6c0,0,39.1,42.7,82.6,46.7c2.4,6,5.1,11.8,8.1,17.4C169.4,310.8,195.4,337.8,222.8,332.8z"/>
		<path class="st2" d="M271.5,273c-1.4-3.2-4.2-7.7-9.7-9.5c0,0-9.1-12.4-1-10.9c0,0-1.5-9.5,3.1-7c0,0,1.3-12.9,7.2-8
			c0,0,5.6-11.8,7.1-6.6c0,0,7.5-9,8.8-4c0.1,0.2,0.1,0.4,0.2,0.7c1.1-1.6,5.4-7.8,7-4.8c0,0,9.2-5.6,11.4-3.1
			c0,0.1,0.1,0.1,0.1,0.2C272.7,249.3,270.5,266.2,271.5,273z"/>
		<path class="st3" d="M305.6,220c0,0-37.9,40.8-33.1,57.1C272.5,277.2,256.1,258.8,305.6,220z"/>
		<path class="st4" d="M303.5,238c0,0,6.3,2-3.2,6.6c0,0,10.2,1.4-2.3,8.3c0,0,4.2,4.7-5.8,5.6c0,0,5.6,4.4-3.5,5.1
			c0,0,6.4,3.4-4.4,1.4c0,0,4.5,3.3-4,2.9c0,0,1.5,3-5.3,3.2c0,0-2.3,3.6-2.4,5.4c-0.3-1.2-0.6-2.3-1.1-3.5c-1-6.8,1.2-23.7,34.1-53
			c0.4,0.7,1.4,3.4-0.5,6.9c0,0,5.9-0.3,0.6,6C305.7,233,310.5,234.1,303.5,238z"/>
		<path class="st8" d="M193.5,285c0,0-3.8,33.9,57,59s124.7-32.6,109.8-104.2L193.5,285z"/>
		<path class="st14" d="M209.1,310.9c0,0,31.5,41,93,20.5c21.2-7.1,47.9-16.5,56.9-72.6L209.1,310.9z"/>
		<path class="st9" d="M354,241.5l6.2-1.7c0,0,3.9,2.6-3.8,28.2s-25.2,39.4-50.7,52.4s-61.4,8.1-83.1-0.5S193.5,285,193.5,285
			l48.9-13.1L354,241.5z"/>
		<path class="st10" d="M201.4,283c16.3,48.6,145.3,57.1,152.6-41.5L201.4,283z"/>
		<path class="st13" d="M263.7,266l-49.4,24.5c0,0-3.4,2.7,9.2,8.2s18.7,11,22.7,6.6C251,300,263.7,266,263.7,266z"/>
		<path class="st13" d="M268.4,264.8l-14.2,39.6c0,0-4,6,9.5,7.6c13.5,1.6,21.4-1.8,22.4-2.4c0,0,4-1.1-1.8-14.3
			C278.5,282.3,268.4,264.8,268.4,264.8z"/>
		<path class="st13" d="M275.1,262.9c0,0,17.2,41.6,26.7,44c12.9,3.3,28.2-13.3,14.1-20.1C307.7,282.8,275.1,262.9,275.1,262.9z"/>
		<path class="st13" d="M283.4,260.7c0,0,43.3,33.8,51.6,22.4s8-14.6-0.8-16.3S283.4,260.7,283.4,260.7z"/>
		<path class="st13" d="M292.3,258.3c0,0,52.4,9.7,55.6-0.3S342.4,249,292.3,258.3z"/>
		<path class="st12" d="M280.2,269.6c11.5-3.2,12.5-9.8,12.5-11.4l-27.1,7.4C265.4,267.4,270.5,272.4,280.2,269.6z"/>
	</g>
</g>
</svg>
