<?xml version="1.0" encoding="utf-8"?>
<!-- Generator: Adobe Illustrator 25.2.3, SVG Export Plug-In . SVG Version: 6.00 Build 0)  -->
<svg version="1.1" id="Layer_1" xmlns="http://www.w3.org/2000/svg" xmlns:xlink="http://www.w3.org/1999/xlink" x="0px" y="0px"
	 viewBox="0 0 400 400" style="enable-background:new 0 0 400 400;" xml:space="preserve">
<style type="text/css">
	.st0{fill:#FFFFFF;}
	.st1{clip-path:url(#SVGID_2_);}
	.st2{fill:#F9DAD2;stroke:#7F430D;stroke-width:0.75;stroke-miterlimit:10;}
	.st3{fill:#D19B13;stroke:#63490A;stroke-miterlimit:10;}
	.st4{fill:#F9DAD2;}
	.st5{fill:#4C332E;}
	.st6{fill:#7F430D;}
	.st7{fill:#3A2522;}
	.st8{fill:#3A2622;}
	.st9{fill:#F4C44D;stroke:#63490A;stroke-miterlimit:10;}
	.st10{opacity:0.37;fill:#8A9312;enable-background:new    ;}
	.st11{fill:#8A9312;}
	.st12{fill:#63490A;}
	.st13{fill:#F8E38D;stroke:#756316;stroke-miterlimit:10;}
	.st14{fill:#F8E38D;}
	.st15{fill:#756316;}
	.st16{fill:#563D37;}
	.st17{fill:#775751;}
	.st18{fill:#F79B2D;}
	.st19{fill:#F92B2B;}
	.st20{fill:#EE1B22;stroke:#910C16;stroke-miterlimit:10;}
	.st21{fill:#C9930E;stroke:#63490A;stroke-miterlimit:10;}
	.st22{fill:#595B16;}
	.st23{fill:#BF785C;}
	.st24{fill:#AA654D;}
	.st25{fill:#8E4D3C;}
	.st26{fill:#D38C6C;}
	.st27{fill:#698391;stroke:#295666;stroke-width:0.5;stroke-miterlimit:10;}
	.st28{fill:#4A616E;stroke:#19444F;stroke-width:0.25;stroke-miterlimit:10;}
	.st29{fill:#394B54;}
	.st30{fill:#435863;}
	.st31{fill:#8FB1C4;stroke:#447287;stroke-width:0.5;stroke-miterlimit:10;}
	.st32{fill:#516A78;}
	.st33{fill:#68D1F7;}
	.st34{fill:#FFF200;}
	.st35{fill:#FF0303;}
	.st36{fill:#EB9465;}
	.st37{fill:#7690A8;}
	.st38{fill:#778C99;}
	.st39{fill:#EB6565;}
	.st40{fill:none;}
	.st41{fill:#342516;}
	.st42{fill:#EAB8AD;}
	.st43{fill:#EFE940;stroke:#47430F;stroke-miterlimit:10;}
	.st44{fill:#F4FF51;}
	.st45{fill:#73750B;}
	.st46{fill:#421111;}
	.st47{fill:#8C3D35;}
	.st48{fill:#F9988F;}
	.st49{fill:#F58778;}
	.st50{fill:#FFF7F4;}
	.st51{fill:#D26653;}
	.st52{fill:#FFFFFF;stroke:#3D2D16;stroke-width:0.5;stroke-miterlimit:10;}
	.st53{fill:#3D2D16;}
	.st54{fill:#DC9E8F;}
	.st55{fill:#EE1B22;}
	.st56{fill:#FBD3C7;stroke:#9E673F;stroke-miterlimit:10;}
	.st57{fill:#D6988E;}
	.st58{fill:#211A09;}
	.st59{fill:#473B21;}
	.st60{fill:#FBD3C7;}
	.st61{fill:#9E673F;}
	.st62{fill:#BC7757;}
	.st63{fill:#D6A27F;stroke:#562F15;stroke-miterlimit:10;}
	.st64{fill:#F4C29D;stroke:#562F15;stroke-miterlimit:10;}
	.st65{fill:#4CB9D6;stroke:#54351F;stroke-miterlimit:10;}
	.st66{fill:#9CEFED;stroke:#9E673F;stroke-miterlimit:10;}
	.st67{fill:#7CC1C1;stroke:#9E673F;stroke-miterlimit:10;}
	.st68{fill:none;stroke:#9E673F;stroke-miterlimit:10;}
	.st69{opacity:0.49;fill:#A5C5EB;enable-background:new    ;}
</style>
<circle class="st0" cx="200" cy="200" r="196.5"/>
<g>
	<defs>
		<circle id="SVGID_1_" cx="200" cy="200" r="196.5"/>
	</defs>
	<clipPath id="SVGID_2_">
		<use xlink:href="#SVGID_1_"  style="overflow:visible;"/>
	</clipPath>
	<g class="st1">
		<path class="st2" d="M268.1,286.8c0,0-5.1,6-4.1,12.2c1.8,1.1,4.2,0.6,5.3-1.2c0.2-0.3,0.3-0.5,0.4-0.8
			C271.6,292.6,268.1,286.8,268.1,286.8z"/>
		<path class="st3" d="M76.3,307.9c0,0.4-5.8-0.4-5.9,0.7c-0.7,10.5-3.8,47.7-3.8,47.7l35.1,2.9l12-36.4"/>
		<path class="st3" d="M100.4,309.7c0,0.4,0.7,5.4,0.9,6.5c1.6,10.4,8,48.5,8,48.5l38.3-8.5l-1-49.4"/>
		<path class="st2" d="M202.8,223.6l4.7,0.8c0,0,5.1,3.1,6.4,4.8s-0.8,4.6-9.8-0.6C204,228.7,203.6,224.6,202.8,223.6z"/>
		<path class="st4" d="M177.8,218.9c0.2,2.7-3,4-1.3,5.3c1.2,1,7,2.4,8.7,2.4c4.1,0,8.3-0.3,8.3-4.9s-4.7-10.1-8.8-10.1
			S177.4,212.7,177.8,218.9z"/>
		<path class="st5" d="M224.4,224.8h-43.5c-1.7,0-3.1-1.4-3.1-3.1l0,0v-0.2c0-1.7,1.4-3.1,3.1-3.1l0,0h43.5l0,0V224.8L224.4,224.8z"
			/>
		<path class="st2" d="M179.3,213c1.6-3.5,10.4-3.7,16.7-2c0.8,0.2,1.5,0.6,2.1,1.2c1.6,1.6,5.2,5,7.5,5.5c0,0,2.9-0.1,3.2,1.4
			c0.1,0.4-0.1,0.8-0.5,0.9c-4,2-8.9,1.1-12-2.1l-7.8,0.1"/>
		<path class="st2" d="M197,225.1c0,0-2-3.2-0.9-4.8s3-0.3,5.8,2c0,0,2.5,1.7,2.5,3.6s0.6,4.5-1.7,6.3c0,0-1.7,1.4-4-0.6
			s-2.7-2.9-2.7-2.9c0.2,1.8-1,3.4-2.8,3.6c-1.8,0.5-3.6-0.5-4.1-2.3c0-0.1,0-0.2-0.1-0.3l-1.3-6.2l-1.2-2.3c0,0-0.3-2.4,1.4-2.9
			c0,0,2.1-1.6,4.8,2.8c0.9,1.2,1.6,2.6,2.1,4.1L197,225.1z"/>
		<path class="st4" d="M196.8,224.8c0,0,0.8,1.3,2.4,3.6"/>
		<polygon class="st6" points="197.1,224.6 199.3,228.4 196.5,225 		"/>
		<path class="st2" d="M196.3,229.2c-0.2-0.3-2-5.3-2-5.3"/>
		<path class="st2" d="M188.7,228.7c0.3,1.4-0.7,2.7-2.1,3c-2.4,0.4-8.3-4-9.2-6.4c0,0-0.1,1.6-1.6-2.4"/>
		<path class="st2" d="M183.7,227.8c-2-4.6-1.6-7.7-0.4-7.9s2.6,1.8,2.6,1.8l1.9,1.9l1,5.5"/>
		<path class="st7" d="M252,220.6c0,5.2-6.6,11.4-15.6,11.4s-16.4-4.2-16.4-9.5s7.3-9.5,16.3-9.5S252,215.4,252,220.6z"/>
		<ellipse class="st5" cx="235.9" cy="219.6" rx="16.3" ry="7.4"/>
		<ellipse class="st8" cx="235.9" cy="219.8" rx="12.9" ry="5.9"/>
		<polygon class="st6" points="197.2,219.2 194.4,216 197.7,218.6 		"/>
		<path class="st9" d="M121.8,161.3l0.5,43.6c1,20.7,12.1,23.3,12.1,23.3l32.7,1.6l10.4,0.5c-0.7-6.7-0.1-13.5,1.9-19.9l-10.4-0.3
			l-25-0.6c0,0-1.6-5-7.2-25S121.8,161.3,121.8,161.3z"/>
		<path class="st10" d="M125.9,168.2c0,0.3,4.8,3.8,3.9,13.6c0,0,15.7,23.8-8.7,33.4"/>
		<path class="st9" d="M126.6,164.8c-2.2-2.4-21.6-12-31.7-14.3s-30.1,8.1-30.1,8.1L64.4,178l-0.2,9.2c-0.7,9.3,0.3,18.7,3.1,27.6
			l-1.7,2.7l-3.7,8.6C56,237,51.1,248.5,47.5,260.4c-3.9,12.4-6.5,25.3-7.7,38.2c-1.2,12.8-2,31.5-1.6,31.7
			c46.7,20.7,100.2-9.2,100.2-9.2c-0.8-16.6-2.6-33.1-5.1-49.5c-3.9-25.2-11.3-48.3-11.8-50.4c-1-4.5,0.9-5.6,0.9-5.6
			c8.8-4.9,10.2-11.9,10.2-11.9c2.3-10.5-6.5-20.8-6.5-20.8c0.5-4.6,0.6-9.2,0.4-13.8"/>
		<path class="st10" d="M72.9,209.4l13.4,14.9c0,0-31.4,22.7-40.9,58.1c-0.6-0.3-1.2-0.5-1.7-0.8c2.6-19.5,8.8-38.3,18.2-55.5
			L65,219c0.4-0.9,0.9-1.8,1.4-2.7l0.9-1.4c-2.8-8.9-3.8-18.3-3.1-27.6l0.2-9.3l2.9-0.6l9.7,7.5C76.2,185.2,62.1,194.6,72.9,209.4z"
			/>
		<polygon class="st11" points="95.5,232.5 91.1,274.7 91.3,232.3 		"/>
		<polygon class="st11" points="111.3,225.9 122.3,273.2 107.3,227 		"/>
		<polygon class="st11" points="80.6,229.6 65.3,264.4 76.6,228.2 		"/>
		<path class="st12" d="M123.6,215c-2.2,1.1-4.5,1.7-6.9,2c-2.3,0.3-4.7,0.5-7,0.6c-1.2,0-2.4,0-3.5,0l-3.5-0.2l-3.6-0.3l-3.5-0.4
			L99,217l3.5,0.1h3.5c1.2-0.1,2.3,0,3.5-0.1c2.3-0.1,4.6-0.4,6.9-0.8c1.1-0.2,2.3-0.5,3.4-0.8c1.1-0.3,2.1-0.7,3.1-1.3L123.6,215z"
			/>
		<path class="st13" d="M108.4,148.5c4.9,6.7,7.8,16.7,2.5,19.5s-15.3-1.3-20.5-7.8c-2.8-3.5-3.9-6.7-4.1-9.5
			c-0.2-4.2,6.1-1.7,8.8-3.6C100.1,143.4,103.5,141.8,108.4,148.5z"/>
		<path class="st14" d="M89,151.1c0-0.9,0.5-1.8,1.3-2.3"/>
		<path class="st15" d="M88.6,151.1c0-0.3,0.1-0.5,0.2-0.8c0.1-0.2,0.2-0.5,0.4-0.7c0.3-0.4,0.7-0.7,1.1-0.9
			c-0.3,0.3-0.6,0.6-0.8,1.1c-0.1,0.2-0.1,0.4-0.1,0.6c0,0.2,0,0.4,0,0.6L88.6,151.1z"/>
		<path class="st16" d="M216.5,247.1h41.3c0,0-11,17.5-33.7,17.5h-14c-22.7,0-33.7-17.5-33.7-17.5H216.5z"/>
		<path class="st17" d="M175.4,243.8h83.4c0.4,0,0.7,0.4,0.7,0.8v1.6c0,0.4-0.3,0.8-0.7,0.8h-83.4c-0.4,0-0.7-0.4-0.7-0.8v-1.6
			C174.7,244.2,175,243.8,175.4,243.8z"/>
		<path class="st5" d="M246.4,247.1h11.4c0,0-11,17.5-33.7,17.5h-0.6C240.8,264.6,246.4,247.1,246.4,247.1z"/>
		<path class="st5" d="M206.8,264.4c-12.2-1-23.3-7.4-30.4-17.4h47.1C201.8,247.1,191.9,262.9,206.8,264.4z"/>
		<path class="st18" d="M227.5,267c-0.3-0.6-0.3-1.2,0-1.8c0.6-0.8,1.5-0.3,2.3-0.2c1.1,0.1,2.3-1,3-2.2c0.6-1.2,0.9-2.6,1-3.9
			c-0.1,1.4-1,2.7-2.3,3.4c-1.1,0.6-2.5,0.6-3.6,0c-0.1,0-0.2-0.1-0.2-0.2c0-0.1,0-0.3,0.1-0.4c0.7-1.3,1.2-2.7,1.4-4.2
			c0.3-1.3-0.2-2.7-1.3-3.5c0.8-0.1,1.4,0.8,1.4,1.7c-0.1,0.9-0.4,1.8-0.8,2.7c-1.2-2.1-2.9-3.7-5-4.9c1.3,1.5,2.9,3.5,2.3,5.9
			c-0.3,1.5-1.6,2.9-1.5,4.4c0.1,0.7,0.4,1.4,1,1.9C225.5,266.3,227.3,266.6,227.5,267z"/>
		<path class="st19" d="M221.1,264.7c0.2-1.4-0.6-2.8-1.8-3.5c-1.1-0.7-2.4-0.9-3.6-1.5c-2.3-1.6-3.5-4.4-3-7.2
			c-1.1,3-1,6.4,0.4,9.3c-1.1-0.4-2-1.1-2.8-1.9c-0.7-0.9-1.1-2-1.8-2.9c-1.3-1.7-3.4-2.1-5.4-2.3c0.7-0.3,1.4,0.5,2,1.2l3.6,5.1
			c-1.8-0.8-3.8-1.1-5.7-1c1.2,0.6,2.4,1.3,3.5,2.2c0.4,0.3,0.7,0.7,0.7,1.3c-0.1,0.8-1.1,0.7-1.8,0.4c-1.2-0.6-2.2-1.4-3.2-2.3
			c0.3,2.1,1.8,3.9,3.9,4.4c1.5,0.3,3-0.2,4.5-0.2c1.7,0.1,3.3,0.8,5,1.2c2,0.4,4,0.3,5.9-0.3c0.7-0.2,1.4-0.6,1.9-1.1
			c0.6-0.6,0.7-1.5,0.5-2.3c-0.2-0.5-0.6-0.9-0.8-1.4c-0.7-1.8,1.4-3.7,1.1-5.6c-2,1.3-3.4,3.4-3.7,5.7"/>
		<path class="st20" d="M81.4,177.5c0,0,14.9,4.6,41.6,3.9c0,0,5.2-0.4,9.6,13.4c0,0,4.1,13.2-10.8,22c0,0,18.7,56.3,18.5,101.9
			c0,0-37.1,36.5-95.3,14.5c0,0,4.6-35.8,11.5-61.8c3.7-13.9,14.1-30.7,14.2-38.7c0.4-22.9-3.6-24.6,4.9-43.3L81.4,177.5z"/>
		<path class="st20" d="M75.8,153.2c0,0,3.9,6.9,8.1,26.9l2.4,3.4l2-3.3c0,0-3-18.4-9.1-28.1C79.2,152,76.3,150.9,75.8,153.2z"/>
		<path class="st20" d="M120.8,159.7c0.8,0.7,4.1,16.6,3.7,23.2l-2.1,3.2l-1.9-3.5c0,0,0.2-15.4-3.7-23.9
			C116.8,158.8,118,157.2,120.8,159.7z"/>
		<path class="st6" d="M128.5,211.5c-1,1.1-2.1,2.1-3.4,3c-1.3,0.8-2.7,1.5-4.1,2c-1.5,0.5-2.9,0.8-4.5,1c-1.5,0.2-3,0.3-4.6,0.3
			c-3,0-6.1-0.1-9.1-0.5c-3-0.4-6-0.6-9-0.5c-1.5,0.1-3,0.3-4.5,0.3c-1.5,0-3.1-0.1-4.6-0.3c-3.1-0.4-6-1.6-8.5-3.4
			c-2.4-1.9-4.3-4.4-5.6-7.2c-1.2-2.8-1.8-5.8-1.9-8.9c0.2,3,0.9,6,2.2,8.7c1.2,2.7,3.2,5.1,5.6,6.9c2.5,1.7,5.3,2.8,8.2,3.2
			c1.5,0.2,3,0.3,4.5,0.3c1.5,0,3-0.2,4.5-0.3c3-0.1,6.1,0.1,9.1,0.5c3,0.4,6,0.6,9,0.6c1.5,0,3-0.1,4.5-0.2c1.5-0.2,3-0.4,4.4-0.9
			c1.4-0.4,2.8-1,4.1-1.8C126.3,213.6,127.5,212.6,128.5,211.5z"/>
		<path class="st20" d="M66.1,247.2c-2.2-0.5-6.2-5.4-9.2-11.9l0,0c-0.9-0.2-1.7,0.3-2,1.2c0,0.1,0,0.1,0,0.2l-0.1,1
			c0,0,0.9,9.6,9.5,13.5L66.1,247.2z"/>
		
			<ellipse transform="matrix(0.3911 -0.9204 0.9204 0.3911 -165.2048 215.4583)" class="st21" cx="80.2" cy="232.6" rx="9.9" ry="2.6"/>
		<path class="st2" d="M75.8,238.2l5.7-12.1c7.3-3.6,15.3-5.6,23.4-5.9l8.5,5.1c1.3,0.7,2.1,2,2.3,3.5l1.2,8.1
			c0.1,0.4-0.2,0.8-0.7,0.9c-0.2,0-0.4,0-0.5-0.1c-1-0.6-2.5-2.4-3.8-7.4l-6.6-3.7l3,5.4c0.6,1.1,0.7,2.5,0.1,3.7
			c-0.5,1.2-1.3,2.4-2.2,3.4c0,0-0.6,2.4-4.9,4c0,0-4.8,3.3-8.8,0.4c0,0-1.2-1,4.5-2.8l-1.5-3.5C95.6,237.1,87.7,244,75.8,238.2z"/>
		<path class="st22" d="M100.5,243c0.3-0.1,0.6-0.3,0.7-0.6c0.1-0.4,0.2-0.8,0.2-1.2c0-0.9-0.2-1.7-0.4-2.5c-0.4-1.7-1.1-3.3-2-4.8
			c1,1.5,1.8,3.1,2.3,4.7c0.3,0.8,0.5,1.7,0.6,2.6c0,0.5,0,1-0.2,1.4c-0.2,0.6-0.6,1-1.2,1.1L100.5,243z"/>
		<path class="st22" d="M104.4,240.8c0.8-0.6,1.3-1.5,1.3-2.5c0.1-1-0.1-2.1-0.4-3.1c-0.4-1-0.9-2-1.4-2.9l-1.5-2.9l1.7,2.8
			c0.6,0.9,1.1,1.9,1.6,2.9c0.5,1,0.7,2.1,0.7,3.3c0,1.2-0.6,2.3-1.5,3.1L104.4,240.8z"/>
		<path class="st9" d="M78.3,181.2c0,0-3.4,8.3-25.7,24.1L75.9,219l7.8,4.6c0,0-6.3,4.7-8.4,18.1l-8.7-4.5l-33.1-17.1
			c-4.4-4-6.4-10-5.4-15.9c0,0,15.4-25,25.6-37.6c0,0,5.3-6.8,17.7-11.1"/>
		<path class="st13" d="M83.7,224.2c-1.7,1.7-6,6.8-7.7,17.4l-8.7-4.5c-0.3-3.5,0.5-7.1,2.2-10.1c2.8-5.4,5.6-7.4,7-8.1l7,4.1
			c0.4,0.2,0.5,0.7,0.3,1C83.8,224.1,83.8,224.2,83.7,224.2z"/>
		<rect x="38.4" y="301.1" class="st23" width="319.7" height="115.4"/>
		<rect x="44.8" y="307" class="st24" width="305.5" height="103.2"/>
		<rect x="44.8" y="307.2" class="st25" width="305.5" height="3.5"/>
		<rect x="346.4" y="308" class="st25" width="3.5" height="102.2"/>
		<polygon class="st26" points="38.4,301.1 358.1,301.1 327,289 56.2,287.5 		"/>
		<polygon class="st27" points="168.2,272.7 215.5,272.6 254.5,272.7 277.4,280.4 216.3,280.7 154.7,280.4 		"/>
		<polygon class="st28" points="278.5,280.7 278.5,302.4 270,302.4 268.2,298.9 164.4,298.9 162.5,302.4 154,302.4 154,280.7 		"/>
		<polygon class="st29" points="164.4,298.9 162.5,302.4 164.4,296.9 268.2,296.9 270,302.4 268.2,298.9 		"/>
		<rect x="205.3" y="274" class="st30" width="22" height="1.3"/>
		<path class="st31" d="M201.8,267.7h29c1.2,0,2.1,1,2.1,2.1l0,0v1.4c0,0.8-0.7,1.5-1.5,1.5l0,0h-30.3c-0.8,0-1.5-0.7-1.5-1.5l0,0
			v-1.4C199.6,268.6,200.6,267.7,201.8,267.7L201.8,267.7z"/>
		<rect x="204" y="272.7" class="st32" width="24.5" height="1.3"/>
		<path class="st30" d="M232.8,269c0,0-0.1,0.1-0.1,0.1c-0.4,0.1-0.9-0.3-1-0.9c0-0.1-0.1-0.3-0.1-0.4
			C232.1,268,232.5,268.5,232.8,269z"/>
		<path class="st30" d="M207.4,268.1c-0.1,0.6-0.5,1-0.9,1s-0.6-0.6-0.5-1.2l0.1-0.2h1.4C207.4,267.9,207.4,268,207.4,268.1z"/>
		<path class="st30" d="M204.2,268.2c-0.1,0.6-0.6,1-1,0.9s-0.6-0.6-0.4-1.3c0-0.1,0-0.1,0.1-0.2h1.4
			C204.2,267.9,204.2,268,204.2,268.2z"/>
		<path class="st30" d="M210.6,268.1c-0.1,0.6-0.4,1.1-0.8,1s-0.6-0.6-0.6-1.2c0-0.1,0-0.2,0.1-0.3h1.3
			C210.6,267.8,210.6,268,210.6,268.1z"/>
		<path class="st30" d="M199.8,269c0.2-0.6,0.7-1,1.2-1.2c0,0.1,0,0.3-0.1,0.4c-0.2,0.6-0.6,1-1,0.9
			C199.9,269.1,199.8,269.1,199.8,269z"/>
		<path class="st30" d="M226.6,267.9c0.1,0.6-0.1,1.1-0.5,1.2s-0.8-0.4-0.9-1c0-0.2,0-0.3,0-0.5h1.4
			C226.6,267.7,226.6,267.8,226.6,267.9z"/>
		<path class="st30" d="M223.4,268c0.1,0.6-0.2,1.1-0.6,1.2s-0.8-0.4-0.8-1c0-0.1,0-0.3,0-0.4h1.3
			C223.3,267.8,223.4,267.9,223.4,268z"/>
		<path class="st30" d="M229.8,267.9c0.1,0.6-0.1,1.2-0.4,1.3s-0.8-0.3-1-0.9c0-0.2,0-0.3,0-0.5h1.4
			C229.8,267.7,229.8,267.8,229.8,267.9z"/>
		<path class="st30" d="M220.2,268c0,0.6-0.3,1.1-0.6,1.1s-0.7-0.5-0.8-1c0-0.1,0-0.3,0-0.4h1.3C220.1,267.8,220.2,267.9,220.2,268z
			"/>
		<path class="st30" d="M217,268c0,0.6-0.3,1.1-0.7,1.1s-0.7-0.5-0.7-1.1c0-0.1,0-0.2,0-0.4h1.3C217,267.8,217,267.9,217,268z"/>
		<path class="st30" d="M213.8,268.1c0,0.6-0.4,1.1-0.8,1s-0.7-0.5-0.6-1.1c0-0.1,0-0.2,0-0.3h1.3
			C213.7,267.8,213.8,267.9,213.8,268.1z"/>
		<path class="st33" d="M219.4,268.7c-1.5-0.5-1.3-1.5-0.2-2.9C220.3,267.2,221,268.2,219.4,268.7z"/>
		<path class="st33" d="M222.6,268.7c-1.5-0.5-1.5-1.5-0.4-2.8C223.3,267.2,224.1,268.2,222.6,268.7z"/>
		<path class="st33" d="M225.8,268.7c-1.5-0.5-1.7-1.5-0.6-2.8C226.3,267.2,227.3,268.2,225.8,268.7z"/>
		<path class="st33" d="M229,268.7c-1.5-0.5-1.9-1.5-0.8-2.8C229.3,267.2,230.5,268.2,229,268.7z"/>
		<path class="st33" d="M232.1,268.7c-1.5-0.5-2.1-1.4-1-2.8C232.2,267.3,233.7,268.2,232.1,268.7z"/>
		<path class="st33" d="M216.3,268.7c-1.5-0.5-1.1-1.6,0-2.9C217.4,267.1,217.8,268.2,216.3,268.7z"/>
		<path class="st33" d="M213.1,268.7c-1.5-0.5-0.9-1.5,0.2-2.9C214.4,267.2,214.6,268.2,213.1,268.7z"/>
		<path class="st33" d="M209.9,268.7c-1.5-0.5-0.7-1.5,0.4-2.8C211.4,267.2,211.4,268.2,209.9,268.7z"/>
		<path class="st33" d="M206.8,268.7c-1.5-0.5-0.5-1.5,0.6-2.8C208.4,267.2,208.3,268.2,206.8,268.7z"/>
		<path class="st33" d="M203.6,268.7c-1.5-0.5-0.3-1.5,0.8-2.8C205.4,267.2,205.1,268.2,203.6,268.7z"/>
		<path class="st33" d="M201.4,265.9c1.1,1.3,0.6,2.3-1,2.8C198.9,268.2,200.3,267.3,201.4,265.9z"/>
		<path class="st34" d="M219.4,268.7c-1.5-0.5-1.3-1.5-0.2-2.9C220.3,267.2,221,268.2,219.4,268.7z"/>
		<path class="st34" d="M222.6,268.7c-1.5-0.5-1.5-1.5-0.4-2.8C223.3,267.2,224.1,268.2,222.6,268.7z"/>
		<path class="st34" d="M225.8,268.7c-1.5-0.5-1.7-1.5-0.6-2.8C226.3,267.2,227.3,268.2,225.8,268.7z"/>
		<path class="st34" d="M229,268.7c-1.5-0.5-1.9-1.5-0.8-2.8C229.3,267.2,230.5,268.2,229,268.7z"/>
		<path class="st34" d="M232.1,268.7c-1.5-0.5-2.1-1.4-1-2.8C232.2,267.3,233.7,268.2,232.1,268.7z"/>
		<path class="st34" d="M216.3,268.7c-1.5-0.5-1.1-1.6,0-2.9C217.4,267.1,217.8,268.2,216.3,268.7z"/>
		<path class="st34" d="M213.1,268.7c-1.5-0.5-0.9-1.5,0.2-2.9C214.4,267.2,214.6,268.2,213.1,268.7z"/>
		<path class="st34" d="M209.9,268.7c-1.5-0.5-0.7-1.5,0.4-2.8C211.4,267.2,211.4,268.2,209.9,268.7z"/>
		<path class="st34" d="M206.8,268.7c-1.5-0.5-0.5-1.5,0.6-2.8C208.4,267.2,208.3,268.2,206.8,268.7z"/>
		<path class="st34" d="M203.6,268.7c-1.5-0.5-0.3-1.5,0.8-2.8C205.4,267.2,205.1,268.2,203.6,268.7z"/>
		<path class="st34" d="M201.4,265.9c1.1,1.3,0.6,2.3-1,2.8C198.9,268.2,200.3,267.3,201.4,265.9z"/>
		<path class="st35" d="M220,267.9c-0.1,0.2-0.3,0.3-0.6,0.4c-0.4-0.1-0.7-0.3-0.7-0.6s0-0.7,0.6-1.5
			C219.6,266.8,220.1,267.5,220,267.9z"/>
		<path class="st35" d="M223.1,268c-0.1,0.2-0.3,0.3-0.5,0.4c-0.4-0.1-0.7-0.3-0.8-0.6c-0.1-0.5,0.1-1,0.5-1.4
			C222.7,267,223.2,267.7,223.1,268z"/>
		<path class="st35" d="M225.2,266.4c0.5,0.6,1.1,1.3,1,1.6c0,0.1-0.2,0.2-0.4,0.3c-0.5-0.2-0.9-0.4-1-0.7
			C224.7,267.2,224.9,266.7,225.2,266.4L225.2,266.4z"/>
		<path class="st35" d="M228.4,266.7c0.5,0.5,1,1.1,0.9,1.4c0,0.1-0.2,0.2-0.4,0.3c-0.5-0.1-0.9-0.4-1.1-0.8c-0.1-0.4,0-0.8,0.3-1.1
			L228.4,266.7z"/>
		<path class="st35" d="M231.6,267c0.4,0.4,0.9,1,0.9,1.2c0,0-0.1,0.1-0.4,0.2c-0.5-0.1-1-0.4-1.2-0.9c-0.1-0.4,0-0.7,0.3-1
			C231.3,266.6,231.5,266.8,231.6,267z"/>
		<path class="st36" d="M216.9,267.9c-0.1,0.2-0.3,0.4-0.6,0.5c-0.3-0.1-0.5-0.2-0.7-0.5c-0.1-0.3,0.1-0.9,0.7-1.6
			C216.8,267,217,267.5,216.9,267.9z"/>
		<path class="st35" d="M213.8,267.8c-0.1,0.3-0.3,0.4-0.7,0.6c-0.3-0.1-0.5-0.3-0.6-0.4c-0.1-0.4,0.4-1.1,0.8-1.6
			C213.9,267.1,213.9,267.6,213.8,267.8z"/>
		<path class="st35" d="M210.8,267.7c-0.1,0.3-0.4,0.5-0.8,0.6c-0.2-0.1-0.5-0.2-0.5-0.4c-0.1-0.3,0.4-1,0.9-1.6
			C210.7,266.7,210.8,267.2,210.8,267.7z"/>
		<path class="st35" d="M207.7,267.6c-0.1,0.3-0.4,0.6-0.9,0.7c-0.3-0.1-0.4-0.2-0.5-0.3c-0.1-0.3,0.5-1,1-1.6l0,0
			C207.6,266.8,207.7,267.2,207.7,267.6z"/>
		<path class="st35" d="M204.6,267.5c-0.1,0.4-0.6,0.7-1.1,0.8c-0.2-0.1-0.4-0.2-0.4-0.3c-0.1-0.3,0.4-0.9,0.9-1.4l0.3-0.3
			C204.6,266.7,204.7,267.1,204.6,267.5z"/>
		<path class="st35" d="M201.6,267.5c-0.2,0.5-0.7,0.8-1.2,0.9c-0.3-0.1-0.4-0.2-0.4-0.2c0-0.2,0.5-0.8,0.9-1.2l0.5-0.5
			C201.6,266.7,201.7,267.1,201.6,267.5z"/>
		<path class="st37" d="M232.8,270v1.2c0,0.8-0.7,1.4-1.4,1.4c0,0,0,0,0,0h-29.8c-0.3,0-0.5-0.1-0.8-0.2c0.6,0,1.2,0,1.8-0.1
			c2-0.4,4.1-0.6,6.1-0.6h17.5C232,271.6,232.7,270.4,232.8,270z"/>
		<path class="st29" d="M235.4,275.3h1.2v-5.7c0-0.6-0.2-1.2-0.7-1.6l-2.9-2.9c-0.4-0.4-1-0.7-1.6-0.7h-12.3v1.2h12.3
			c0.3,0,0.5,0.1,0.7,0.3l2.9,2.9c0.2,0.2,0.3,0.5,0.3,0.7V275.3z"/>
		<path class="st29" d="M195.9,275.3h1.2v-5.7c0-0.3,0.1-0.5,0.3-0.7l2.9-2.9c0.2-0.2,0.5-0.3,0.7-0.3h12.3v-1.2h-12.3
			c-0.6,0-1.2,0.2-1.6,0.7l-2.9,3c-0.4,0.4-0.7,1-0.7,1.6V275.3z"/>
		<rect x="215.6" y="264.4" class="st29" width="1.2" height="10.9"/>
		<path class="st31" d="M170.3,271.7H184c0.4,0,0.7,0.3,0.8,0.7v2.9h-15.2v-2.9C169.6,272,169.9,271.7,170.3,271.7z"/>
		<g>
			<path class="st38" d="M170,271.9h6.5c0.2,0,0.4,0.3,0.4,0.6v1.5l0.7,1.2h-7.9v-2.8C169.7,272.2,169.8,271.9,170,271.9z"/>
		</g>
		<polygon class="st39" points="168.2,275.3 186,275.3 184.6,274 169.6,274 		"/>
		<line class="st40" x1="53.3" y1="205.2" x2="47.1" y2="201.9"/>
		<polygon class="st15" points="53.1,205.6 47.1,201.9 53.5,204.8 		"/>
		<path class="st13" d="M167.1,229.8l10.4,0.5c-0.7-6.7-0.1-13.5,1.9-19.9l-10.4-0.3C167.1,213.2,164.9,219.3,167.1,229.8z"/>
		<path class="st41" d="M65.9,131c0,10.3,9.5,19.4,19.1,19.4s15.5-9.2,15.5-19.4s-7.8-18.6-17.3-18.6S65.9,120.8,65.9,131z"/>
		<path class="st41" d="M96.3,130.1c0,13.8,6.4,25,17.2,25S137,141.8,137,128s-10.3-22.8-21.1-22.8S96.3,116.3,96.3,130.1z"/>
		<path class="st2" d="M111.8,146.4c-0.1,0.1-0.2,0.3-0.3,0.5c-0.3,0.5-0.6,1-0.9,1.6c-1.2,2.6-1.9,5.4-2.1,8.2
			c0.1,0.8,0.1,1.6-0.2,2.3c-0.8,2.3-3.4,5-9.9,1.8c-9.2-4.5-10.8-11.6-10.8-11.6c1.9-1.2,3.4-3,4.3-5.1c0.6-1.5,1-3.2,1-4.9
			c0-0.3,0-0.6,0.1-0.9C106.4,125,115,142.2,111.8,146.4z"/>
		<path class="st42" d="M108.3,156.5c0.1,0.7,0.1,1.5-0.2,2.2c-8,2.8-19.1-5.3-20.4-9.5c0.8-1.9,5.3-8.4,5.4-9.4
			c4.7-2.3,12.4,3.1,17.3,8.8C109.1,151.1,108.4,153.8,108.3,156.5z"/>
		
			<ellipse transform="matrix(0.9461 -0.3239 0.3239 0.9461 -20.8577 33.289)" class="st41" cx="89.6" cy="79.3" rx="23.3" ry="26.1"/>
		<ellipse transform="matrix(0.9368 -0.3499 0.3499 0.9368 -15.9573 36.8553)" class="st43" cx="94" cy="62.6" rx="14.7" ry="7.1"/>
		<path class="st2" d="M127.5,136.9c1.9,1.5,4,0.9,5.6-0.2c1.6-1.1,2.9-2.5,3.9-4.2c5.6-9.2,4.4-18.3-0.3-16.8c-5,1.5-8,12.9-8,12.9
			"/>
		<path class="st42" d="M139.6,120.8c0.2,0.2-3.9-4.3-8,7c0,0,1.9,0.9,0.5,2.3s-3.4,2.6-2.1,2.9c1.8,0.7,3.8-0.1,4.6-1.9
			c0,0,1.1-2.4,0-4S139.3,120.7,139.6,120.8z"/>
		<path class="st6" d="M134.6,131.2c-0.4,1.1-1.2,1.9-2.3,2.3c-0.6,0.2-1.1,0.2-1.7,0c-0.3-0.1-0.5-0.1-0.8-0.2
			c-0.2,0-0.3-0.1-0.4-0.3c-0.1-0.2-0.1-0.3,0-0.5c0.3-0.4,0.7-0.8,1.1-1.2c0.4-0.4,0.7-0.8,1-1.2s0.6-0.8,0.5-1.1
			c-0.2-0.4-0.4-0.7-0.8-0.8L131,128l0.1-0.3c0.7-2,1.7-3.9,2.9-5.6c0.6-0.9,1.5-1.6,2.5-2c0.5-0.2,1.1-0.2,1.6,0
			c0.5,0.2,0.9,0.4,1.4,0.8v0.1c-0.5-0.3-0.9-0.5-1.4-0.6c-0.5-0.1-1,0-1.4,0.2c-0.9,0.5-1.6,1.1-2.2,2c-1.1,1.7-2,3.6-2.6,5.5
			l-0.2-0.5c0.3,0.1,0.5,0.3,0.8,0.5c0.3,0.2,0.4,0.5,0.5,0.9c0,0.6-0.3,1.3-0.8,1.7c-0.9,0.6-1.6,1.3-2.4,2c-0.1,0.2,0,0.3,0.3,0.3
			c0.3,0,0.5,0.1,0.8,0.1c0.5,0,1,0,1.4-0.1c0.9-0.3,1.8-0.9,2.4-1.7L134.6,131.2z"/>
		
			<ellipse transform="matrix(0.2297 -0.9733 0.9733 0.2297 -32.2361 230.8012)" class="st44" cx="129.7" cy="135.8" rx="1.9" ry="1.4"/>
		<path class="st45" d="M128.4,135.5c-0.1,0.4,0,0.8,0.1,1.2c0.2,0.3,0.5,0.5,0.8,0.5c0.3-0.1,0.5-0.2,0.6-0.5
			c0.2-0.3,0.3-0.5,0.3-0.9c0.1-0.3,0.1-0.6,0-0.9c0-0.3-0.2-0.5-0.4-0.7c-0.3-0.1-0.7-0.1-1,0.2
			C128.7,134.8,128.5,135.1,128.4,135.5z M128.3,135.5c0.1-0.4,0.3-0.8,0.6-1.1c0.3-0.3,0.7-0.5,1.2-0.5c0.4,0.1,0.8,0.4,0.9,0.9
			c0.2,0.4,0.2,0.9,0.1,1.3c-0.1,0.4-0.3,0.8-0.6,1.1c-0.3,0.3-0.8,0.5-1.2,0.4c-0.4-0.1-0.8-0.4-0.9-0.9
			C128.2,136.4,128.2,135.9,128.3,135.5L128.3,135.5z"/>
		<path class="st2" d="M70.8,106.5c0,0-1.6,29.1,13,40.6c13.6,10.7,22.1,10.4,22.1,10.4s9.4,2,21.8-11.8c6.8-7.5,8.4-23.2,9.1-30
			c0.9-8.9,2.9-9.1,1.6-13.6c0,0,6.8-39.6-30.9-41.7S61.3,92.9,70.8,106.5z"/>
		<path class="st42" d="M116.4,84.5l-0.6,0.3c-3.6,1.6-18.4,4.6-27,14.9c0,0-9.9,6.9-16,23.7c0,0-7-32.5-6-33S123,76.7,123,76.7
			l15,28.6l-2.7,9.7C135.4,115,137.4,97.6,116.4,84.5z"/>
		<path class="st46" d="M90.9,106c1-0.9,2.2-1.7,3.4-2.4c1.2-0.7,2.5-1.2,3.9-1.6c0.7-0.2,1.4-0.3,2.1-0.3c0.7,0,1.5,0,2.2,0.3
			c1.5,0.5,2.8,1.5,3.6,2.8l-0.1,0.1c-0.7-0.3-1.3-0.6-1.9-0.8c-0.6-0.2-1.2-0.3-1.8-0.4c-1.2-0.2-2.5-0.3-3.8-0.3
			c-0.6,0.1-1.3,0.2-1.9,0.4c-0.6,0.2-1.3,0.3-1.9,0.6c-1.3,0.5-2.5,1-3.6,1.7L90.9,106z"/>
		<path class="st46" d="M133.3,109c-0.6-1.1-1.4-2.2-2.2-3.1c-0.8-1-1.8-1.8-2.9-2.4c-0.6-0.3-1.2-0.6-1.8-0.8
			c-0.6-0.2-1.3-0.3-2-0.3c-1.5,0.1-2.9,0.8-4,1.8v0.2c0.7-0.1,1.3-0.2,1.9-0.2c1.7-0.1,3.5,0.2,5.2,0.7c0.5,0.2,1.1,0.5,1.6,0.8
			c0.5,0.3,1,0.6,1.5,1c1,0.7,1.9,1.6,2.6,2.5L133.3,109z"/>
		<path class="st47" d="M121.8,135.7c-0.1,0.4-0.3,0.7-0.5,1.1c-1.1,2.1-3.7,6.1-7.1,7.6c-2.5,1.1-5.4,1.2-8,0.2
			c-3.3-1.3-4.9-2.9-6.8-5.6c-0.6-0.9-1.3-1.9-2.1-3c0,0-0.2-0.2,0.1-0.2c0.2,0,0.3,0,0.5,0.1c1.9,0.4,6.6,2.6,13.9,1.9
			c3.3-0.2,6.6-0.9,9.7-2.3C121.6,135.4,121.7,135.5,121.8,135.7C121.8,135.6,121.8,135.6,121.8,135.7
			C121.8,135.6,121.8,135.6,121.8,135.7z"/>
		<path class="st48" d="M121.3,136.7c-1.1,2.5-3.7,7-7.1,8.8c-2.5,1.3-5.4,1.4-8,0.2c-3.3-1.5-4.9-3.4-6.9-6.5
			c2.3,2.4,6.1,5.6,10.6,5.8C116.1,145.1,120.2,138.8,121.3,136.7z"/>
		<path class="st49" d="M121.8,135.5c-3.9,2.1-8.2,3.2-12.6,3.1c-6.7,0-10.6-2.2-11.8-3c0.2,0,0.3,0,0.5,0.1
			c1.9,0.4,6.6,2.5,13.9,1.9c3.3-0.2,6.6-0.9,9.7-2.2C121.6,135.3,121.7,135.4,121.8,135.5C121.8,135.5,121.8,135.5,121.8,135.5z"/>
		<path class="st50" d="M99.8,137.1c6.4,2.1,13.2,2,19.5-0.3c0,0-2.1,4.1-8.6,4.7C106.5,141.9,102.4,140.3,99.8,137.1z"/>
		<path class="st51" d="M110.7,145c-1.9,0-3.8-0.4-5.5-1.4c1.6-1.5,2.8-2.1,5.8-1.5c0.3,0.1-1.4-0.2,0.3-0.6
			c1.7-0.3,3.4,0.3,4.5,1.5C114.5,144.4,112.6,145.1,110.7,145z"/>
		<path class="st41" d="M116.1,83.2c0,0-14.4-1.4-31.7,17c0,0-13.4,9-11.5,24.7c0,0-2.8,18.2-9.6,5.7C36.9,82,84.5,47.3,113.8,56.9
			c0,0,20.3-0.5,31.4,28.3c0.1,0.1,9.8,25.5-9.3,34.9C136,120.1,138.5,95.7,116.1,83.2z"/>
		<path class="st2" d="M74.8,125.4c0,0-2.6-11.5-8.5-13c-5.5-1.5-7.8,7.6-1.9,16.9c1.1,1.8,2.6,3.2,4.3,4.3c2,1.4,4.7,1.5,6.8,0.2"
			/>
		<path class="st42" d="M62.5,117.5c-0.3,0.2,5-4.3,9.1,7.1c0,0-2.4,0.8-0.9,2.3c1.5,1.5,3.8,2.7,2.3,2.9s-3.8,0.7-5.4-2
			c0,0-1.1-2.4,0.3-4S62.8,117.4,62.5,117.5z"/>
		<path class="st6" d="M67.6,127.9c0.7,0.9,1.7,1.5,2.7,1.7c0.5,0.1,1.1,0.2,1.6,0.1c0.3,0,0.6,0,0.8,0s0.6-0.1,0.6-0.2
			s-0.3-0.4-0.5-0.6c-0.2-0.2-0.5-0.4-0.7-0.5c-0.5-0.3-1-0.6-1.4-1c-0.3-0.2-0.5-0.4-0.7-0.7c-0.2-0.3-0.3-0.8-0.2-1.1
			c0.1-0.3,0.4-0.6,0.7-0.9c0.3-0.2,0.6-0.4,0.9-0.5l-0.2,0.5c-0.7-2.1-1.7-4.1-3-5.9c-0.6-0.9-1.5-1.6-2.5-2
			c-0.5-0.1-1.1-0.1-1.6,0c-0.5,0.2-1.1,0.3-1.6,0.6v-0.1c0.9-0.7,2.1-1,3.2-0.8c1.1,0.3,2.2,0.9,2.9,1.8c1.4,1.8,2.5,3.8,3.3,6
			l0.1,0.3l-0.4,0.2c-0.4,0.2-0.8,0.5-1.1,0.8c-0.2,0.3,0.1,0.7,0.5,1.1s0.8,0.8,1.2,1.2c0.4,0.4,0.9,0.7,1.2,1.3
			c0.1,0.2-0.2,0.4-0.3,0.5c-0.1,0.1-0.3,0.1-0.4,0.1c-0.3,0.1-0.6,0.2-0.9,0.2c-0.6,0.1-1.2,0.1-1.8,0
			C68.9,130,67.9,129.2,67.6,127.9L67.6,127.9z"/>
		
			<ellipse transform="matrix(0.9759 -0.2183 0.2183 0.9759 -27.1914 19.147)" class="st44" cx="73.1" cy="132.6" rx="1.7" ry="1.9"/>
		<path class="st45" d="M74.7,132.4c0.1,0.5,0,1-0.2,1.4c-0.2,0.5-0.6,0.9-1.2,1.1c-0.6,0.2-1.2,0-1.7-0.3c-0.5-0.4-0.8-0.9-0.9-1.5
			c-0.1-0.6,0-1.2,0.4-1.7c0.4-0.5,0.9-0.8,1.6-0.8c0.5,0,1.1,0.2,1.4,0.6C74.4,131.4,74.6,131.9,74.7,132.4z M74.6,132.4
			c-0.1-0.9-0.9-1.6-1.9-1.5c-0.9,0.2-1.5,1.1-1.3,2c0.1,0.9,0.9,1.6,1.8,1.5C74.3,134.2,74.8,133.3,74.6,132.4L74.6,132.4z"/>
		<ellipse class="st52" cx="98.1" cy="116.5" rx="6.4" ry="7.7"/>
		<ellipse class="st53" cx="97.1" cy="115.9" rx="4.2" ry="5.3"/>
		<ellipse class="st0" cx="99.1" cy="112.1" rx="1" ry="1.3"/>
		<ellipse class="st52" cx="124.4" cy="117.7" rx="6.4" ry="8.1"/>
		<ellipse class="st53" cx="123.4" cy="116.8" rx="4.2" ry="5.5"/>
		<ellipse class="st0" cx="126" cy="112.6" rx="1" ry="1.3"/>
		<path class="st54" d="M116.4,124.8c0.8,1.1,1.2,2.4,1.3,3.8c0,0.8-0.2,1.6-0.8,2.2c-0.6,0.5-1.3,0.9-2.1,1
			c-0.7,0.1-1.4,0.2-2.1,0.2c-0.7,0-1.5-0.2-2.1-0.6c-1.3-0.7-2.3-1.9-2.5-3.4l0.2-0.1c0.9,0.7,2,1.3,3.1,1.6
			c1.1,0.4,2.2,0.6,3.3,0.6c0.5,0,1-0.1,1.4-0.4c0.4-0.3,0.6-0.8,0.7-1.3c0.1-1.2-0.1-2.5-0.5-3.6L116.4,124.8z"/>
		<path class="st54" d="M121.3,133.7c0.4-0.1,0.8,0,1.1,0.3c0.3,0.2,0.5,0.6,0.7,0.9c0.1,0.4,0.1,0.7,0.1,1.1
			c-0.1,0.4-0.2,0.7-0.5,1c-0.1-0.3-0.2-0.7-0.3-1c-0.1-0.3-0.1-0.6-0.2-0.8C121.9,134.7,121.7,134.2,121.3,133.7z"/>
		<path class="st54" d="M97.4,134.3c-0.1,0.3-0.3,0.5-0.3,0.8c-0.1,0.3-0.1,0.5-0.2,0.8s-0.1,0.5-0.2,0.8c-0.1,0.3-0.2,0.6-0.3,0.9
			c-0.5-0.6-0.6-1.3-0.4-2c0.1-0.4,0.2-0.7,0.5-0.9C96.6,134.4,97,134.3,97.4,134.3z"/>
		<path class="st42" d="M115.4,84.2c0.6-2.3,0.9-4.8,0.9-7.2c0-2.5-0.3-4.9-0.9-7.3c-0.3-1.2-0.7-2.4-1.2-3.5
			c-0.3-0.6-0.5-1.1-0.8-1.7c-0.3-0.6-0.6-1.1-0.9-1.6c-1.3-2.1-3-4-4.8-5.7c2,1.5,3.8,3.3,5.2,5.4c0.4,0.5,0.7,1,1,1.6
			c0.3,0.6,0.7,1.1,0.9,1.7c0.6,1.1,1,2.3,1.4,3.5c0.8,2.4,1.3,5,1.5,7.5c0.2,2.6,0,5.2-0.5,7.7L115.4,84.2z"/>
		<circle class="st55" cx="114.4" cy="101.7" r="1.7"/>
		<path class="st56" d="M364.1,243.7l-27.5,8.7l0,0c-1.6-5-5.2-9.1-9.9-11.5l-3.3-1.7l22.9-7.4c0,0,0.3,5.4,7.8,7.7
			C356.4,240.2,359.9,242.3,364.1,243.7z"/>
		<path class="st57" d="M345.9,236.3c-3.4,4.6-11.7,7.1-17.8,7.9l-4.6-5l22.1-10.5C345.6,228.7,344.7,233.3,345.9,236.3z"/>
		<path class="st56" d="M311.3,183c-4.8,3.1-8.4,7.7-10.2,13.1c-0.4,1.2-0.7,2.5-0.8,3.8c-0.2,2-1.1,5.6-4.2,7
			c-4.4,2.1-8.6-5-9.2,0.7s3.2,6,3.2,6s-3,3.2-2.1,6.8l0.5,0.3c0,0-1.9,1.9,0.7,5s-2.2,8.9,7.2,15.7s32.4,4,42.3-3.2
			s18-32.3,18-32.3l0.3-17.3l-17.6-10.8l-21.1-1L311.3,183z"/>
		<path class="st58" d="M340.6,189.6c0,0-13,7.6-23.4,2.7c-0.3-0.1-0.6-0.2-0.9-0.2c0,0,11.9-3.4,15.5-6.8c0,0-13.4,0.9-23.4-0.7
			l0,0c0.3-0.6-19.8,4.6-1.8-12.9c10.1-9.8,32.7-17.3,54.6-1.4c0,0,11,9.6,15.3,21.5c0,0,5.3,10.1-2,25.4s-17.4,20.9-33.3,18.1
			c0,0-7.8-6.7-1.5-13s7.7-6.8,2-12.4S340.6,189.6,340.6,189.6z"/>
		<path class="st58" d="M308.4,198.4l0.3-3.1c0.1-1.3,1.3-2.2,2.5-2.1c0.4,0,0.7,0.1,1,0.3c3.5,2.1,8.7,6.1,9.8,11.3
			C322.1,204.8,311.1,193.9,308.4,198.4z"/>
		<path class="st59" d="M305.6,206c0,0,0.9,5.4,12,8.2h0.3C317.9,214.2,303.6,213.9,305.6,206z"/>
		<path class="st60" d="M287.8,220.3c0,0,5.3,5.3,14,1.2"/>
		<path class="st61" d="M288.1,220c0.9,0.8,1.9,1.5,3,1.9c1.1,0.5,2.3,0.8,3.5,0.9c1.2,0.1,2.5,0,3.7-0.2c0.6-0.1,1.2-0.3,1.8-0.4
			s1.2-0.4,1.8-0.6c-0.6,0.3-1.1,0.5-1.7,0.8s-1.2,0.4-1.8,0.6c-1.2,0.3-2.5,0.5-3.8,0.4c-1.3,0-2.6-0.3-3.8-0.7
			c-1.2-0.4-2.4-1.1-3.4-1.9L288.1,220z"/>
		<path class="st56" d="M342.4,221.7c0,0,4.9-2.5,8.4-0.1s-1,12.6-7.1,13.1s-8-2.9-8-2.9"/>
		<path class="st62" d="M348.5,227.4c0,0-4.6-2.6-8.8,0.6C339.7,228,344.7,222.9,348.5,227.4z"/>
		<path class="st62" d="M344.1,225.9c0,0,0.3,6.1-5.5,5.1C338.6,231,345.7,233.4,344.1,225.9z"/>
		<path class="st60" d="M300.6,220.5c0.8-0.6,1.9,0.4,0.7,2.7"/>
		<path class="st61" d="M300.6,220.5c0.1-0.2,0.3-0.3,0.4-0.3c0.2,0,0.4,0,0.6,0.1c0.3,0.3,0.5,0.7,0.5,1.1c0,0.7-0.4,1.4-0.9,1.8
			c0-0.7,0.2-1.3,0.2-1.8c0-0.2,0-0.4-0.1-0.6C301.2,220.5,300.9,220.5,300.6,220.5z"/>
		<path class="st60" d="M289.8,212.4c0,0,0.9-0.5,2.3,1.6"/>
		<path class="st61" d="M289.7,212.3c0.2-0.4,0.6-0.6,1-0.5c0.3,0,0.7,0.2,0.9,0.4c0.5,0.4,0.6,1.2,0.4,1.8l0,0
			c-0.3-0.4-0.6-0.8-1-1.1c-0.2-0.2-0.4-0.3-0.6-0.4C290.2,212.4,290,212.3,289.7,212.3L289.7,212.3z"/>
		<path class="st63" d="M357.3,316.8c0,0,1.8,20.1-1.8,38.8l-2.1,10.3c0,0,9.1,7.5,21,0.9s-1.1-56-1.1-56L357.3,316.8z"/>
		<path class="st64" d="M406.8,301.2c0,0,6.4,19.6,1.6,32.4s-8.9,39.3-8.9,39.3l-27.2,0.2l-8.5-40.5l-4.1-13.3L406.8,301.2z"/>
		<path class="st65" d="M333.3,279.5c0,0,18.4,27.9,21.6,44.3c0,0,43.8,2.1,58.4-15.7c0,0-9.3-26.7-28.2-48.3s-33.5-23.1-45-18.6
			c0,0-8.8,4.7-4.3,28.2L333.3,279.5z"/>
		<path class="st66" d="M339,268.5c0,0-1.6-6.4,15.8-7.3c0,0,13.3-1.3,11.2,7.2s-18.1,6.2-18.1,6.2L339,268.5z"/>
		<path class="st67" d="M339.7,269.5c0,0-0.5-3.3,16.8-4.5c0,0,12.3-0.5,10.1,4.3c-4.5,9.8-18.1,7.6-18.1,7.6L339.7,269.5z"/>
		<path class="st56" d="M318.5,263.7c-0.6,2-0.5,4.2,0.5,6.1"/>
		<path class="st56" d="M315.3,264.1c0,0-4.6,8-8.5,10.3s-4.9,11.1-1.9,16.6l0.2,0.3c3.2,5.5,13,2.1,18.1-4.4
			c3.1-3.9,5.2-8.4,6.3-13.2C329.5,273.8,320.5,259,315.3,264.1z"/>
		<path class="st56" d="M345.5,267.1c0,0-7.1-0.2-10.9-3.2c0,0,1.6-14.3-1.9-18.8c0,0-0.7-6.9-8.1-4.2c-2-0.3-4-0.2-5.9,0.3
			c0,0-1.9,0.8-2.1,1.7c0,0-2.3,0.6-2.7,2.4c0,0-5,1.6-4.5,6l0.6,1.6c0,0-1.9,4,0.9,6c0,0-1.9,3.7,6.2,8.3c0,0,1.6,4.7,7.6,8.8
			c5.1,3.5,19.3,10.5,31.6,12.7c3.8,0.7,7.4-1.9,8.1-5.7c0-0.1,0-0.2,0-0.3l0.1-0.4c0.6-4.3,0.6-8.7,0-13c-0.2-1.4-0.3-2.7-0.4-3.5
			C364,265.9,347.6,262.2,345.5,267.1z"/>
		<path class="st56" d="M310.7,259.3c1.3-1.9,3.3-3.3,5.6-3.9c3.7-0.8,6.1,5.4,6.1,5.4s0.6,4-3.9,2.8l-2.1-2.4"/>
		<path class="st68" d="M310,252.9c0,0,3.4-3.2,7.5-1.8s6.2,3.5,6.8,0.1s-6.6-7.8-11.1-5.4"/>
		<path class="st68" d="M316.3,243.1c2.5,0.3,5,1.1,7.2,2.4c3.6,2.2,5.2,1.7,5-0.3c0,0,1-2.7-3.8-4.3"/>
		<path class="st68" d="M328.5,244.3c0,0,2.2-0.8,5,2"/>
		<line class="st68" x1="366.8" y1="267.3" x2="359.2" y2="248.9"/>
		<path class="st60" d="M345.5,267.1c0,0,6.4,0.1,9.8,5.6"/>
		<path class="st61" d="M345.5,266.6c2,0.2,3.9,0.8,5.7,1.9c0.9,0.5,1.6,1.1,2.3,1.8c0.7,0.7,1.3,1.5,1.7,2.4
			c-0.5-0.8-1.2-1.5-1.9-2.2c-0.7-0.6-1.5-1.2-2.4-1.6c-0.9-0.4-1.8-0.8-2.7-1c-0.9-0.2-1.8-0.3-2.8-0.4L345.5,266.6z"/>
		<path class="st58" d="M362.1,172c0,0-7.3-11.3-12.5-11.3s14.5-2,14.5,12.9c0,0,8.1-7.7,6.9,7.3"/>
		<path class="st69" d="M210.1,243.1c0,0,10.7-0.6,9-6s-6.8-5.9-8.9-6.5s-6-3.2,7.8-6.2s17.8-3.6,14.1-10.3s-18.6-4.2-23-6
			s-0.8-7.2,9.4-10.7s20.8-3.8,23.5-0.7s-5.4,9.6,2.8,8.2s8.7,1.3,7.7,6.5s24.5,3.1,24.5,3.1s-20.1,4.5-26.4,0.2
			c0,0-1.4-0.7-0.2-5.5s-7,1-11.5-2.3s7.8-8.9-3.5-10.4s-27.4,7.3-24.1,9.4s20.9-1.8,24.3,7.5s-3.5,14.9-12.7,16.3s-3.9,2.9,1.3,6.5
			s2,6.8,2,6.8L210.1,243.1z"/>
	</g>
</g>
</svg>
