<?xml version="1.0" encoding="utf-8"?>
<!-- Generator: Adobe Illustrator 25.2.3, SVG Export Plug-In . SVG Version: 6.00 Build 0)  -->
<svg version="1.1" id="Layer_1" xmlns="http://www.w3.org/2000/svg" xmlns:xlink="http://www.w3.org/1999/xlink" x="0px" y="0px"
	 viewBox="0 0 400 400" style="enable-background:new 0 0 400 400;" xml:space="preserve">
<style type="text/css">
	.st0{fill:#FFFFFF;}
	.st1{clip-path:url(#SVGID_2_);}
	.st2{fill:#EFE0E3;}
	.st3{fill:#E0CED3;}
	.st4{fill:#D1C1C6;}
	.st5{fill:#FFF3F6;}
	.st6{fill:#BAAEB2;}
	.st7{fill:#87727A;}
	.st8{fill:#5B4C52;}
	.st9{opacity:0.5;}
	.st10{fill:#F4B4B2;stroke:#CE9191;stroke-width:0.75;stroke-miterlimit:10;}
	.st11{opacity:0.3;}
	.st12{opacity:0.8;}
	.st13{fill:#F9D5D5;stroke:#D39C9C;stroke-width:0.75;stroke-miterlimit:10;}
	.st14{fill:#D89C9C;}
	.st15{fill:#DFC5C8;}
	.st16{opacity:0.6;}
	.st17{clip-path:url(#SVGID_4_);}
	.st18{fill:#FC826B;}
	.st19{fill:#FC836C;}
	.st20{fill:#FC846C;}
	.st21{fill:#FC856D;}
	.st22{fill:#FC866D;}
	.st23{fill:#FC876E;}
	.st24{fill:#FC886E;}
	.st25{fill:#FC896F;}
	.st26{fill:#FD8A6F;}
	.st27{fill:#FD8B70;}
	.st28{fill:#FD8C70;}
	.st29{fill:#FD8D71;}
	.st30{fill:#FD8E71;}
	.st31{fill:#FD8F72;}
	.st32{fill:#FD9072;}
	.st33{fill:#FD9173;}
	.st34{fill:#FD9273;}
	.st35{fill:#FD9374;}
	.st36{fill:#FD9474;}
	.st37{fill:#FD9575;}
	.st38{fill:#FD9675;}
	.st39{fill:#FD9776;}
	.st40{fill:#FD9876;}
	.st41{fill:#FE9A77;}
	.st42{fill:#FE9B78;}
	.st43{fill:#FE9C78;}
	.st44{fill:#FE9D79;}
	.st45{fill:#FE9E79;}
	.st46{fill:#FE9F7A;}
	.st47{fill:#FEA07A;}
	.st48{fill:#FEA17B;}
	.st49{fill:#FEA27B;}
	.st50{fill:#FEA37C;}
	.st51{fill:#FEA47C;}
	.st52{fill:#FEA57D;}
	.st53{fill:#FEA67D;}
	.st54{fill:#FEA77E;}
	.st55{fill:#FEA87E;}
	.st56{fill:#FEA97F;}
	.st57{fill:#FFAA7F;}
	.st58{fill:#FFAB80;}
	.st59{fill:#FFAC80;}
	.st60{fill:#FFAD81;}
	.st61{fill:#FFAE81;}
	.st62{fill:#FFAF82;}
	.st63{fill:#FFB082;}
	.st64{fill:#FFB183;}
	.st65{fill:#DBA2A2;}
	.st66{fill:#F7DADA;}
	.st67{fill:#F4A966;}
	.st68{fill:#A50202;}
</style>
<circle class="st0" cx="200" cy="200" r="196.5"/>
<g>
	<defs>
		<circle id="SVGID_1_" cx="200" cy="200" r="196.5"/>
	</defs>
	<clipPath id="SVGID_2_">
		<use xlink:href="#SVGID_1_"  style="overflow:visible;"/>
	</clipPath>
	<g class="st1">
		<rect x="178.4" y="82.6" class="st2" width="51" height="42.4"/>
		<rect x="187.1" y="46.2" class="st2" width="33.7" height="36.4"/>
		<rect x="206.9" y="46.2" class="st3" width="8.2" height="36.4"/>
		<rect x="205.1" y="82.6" class="st3" width="11" height="42.4"/>
		<rect x="218.8" y="46.2" class="st4" width="2" height="36.4"/>
		<rect x="219.8" y="82.6" class="st4" width="9.7" height="42.4"/>
		<rect x="190.7" y="46.2" class="st5" width="7.9" height="36.4"/>
		<rect x="200.6" y="46.2" class="st5" width="1.6" height="36.4"/>
		<rect x="182" y="82.6" class="st5" width="12.2" height="42.4"/>
		<rect x="196.9" y="82.6" class="st5" width="2.6" height="42.4"/>
		<polygon class="st6" points="187.1,82.6 220.8,82.6 220.8,81.3 188.6,81.3 187.1,70.4 		"/>
		<circle class="st7" cx="211" cy="63.1" r="5.8"/>
		<path class="st8" d="M213.8,63.1c0,1.2-0.9,2.2-2.1,2.2c-1.2,0-2.2-0.9-2.2-2.1s0.9-2.2,2.1-2.2c0,0,0,0,0,0
			C212.8,61,213.8,62,213.8,63.1z"/>
		<g class="st9">
			<rect x="153.9" y="35" class="st10" width="100.1" height="89.9"/>
		</g>
		<g class="st11">
			<rect x="165.3" y="35" class="st0" width="28.7" height="89.9"/>
		</g>
		<g class="st12">
			<path class="st13" d="M107.1,124.9h193.6c9.1,0,16.5,7.4,16.5,16.5V335c0,9.1-7.4,16.5-16.5,16.5H107.1
				c-9.1,0-16.5-7.4-16.5-16.5V141.3C90.7,132.3,98,124.9,107.1,124.9z"/>
		</g>
		<path class="st14" d="M279.5,334.5c0,2.7-33.8,5-75.5,5s-75.5-2.2-75.5-5s33.8-5,75.5-5S279.5,331.8,279.5,334.5z"/>
		<path class="st15" d="M205,125.6c0,0-8.9,118.3,12.3,183.4l-5.8,2.9c0,0-23.2-70.1-12.8-187.9L205,125.6z"/>
		<g class="st16">
			<g>
				<defs>
					<path id="SVGID_3_" d="M203.9,311.8h31.3c11.9,0,22.2-8.1,25-19.7l29.3-121.5c1.8-7.4-2.8-14.8-10.1-16.5
						c-1.1-0.3-2.1-0.4-3.2-0.4h-17.4c-8.9,0-16.8-5.7-19.6-14.1l-5-14.8h-60.5l-4.9,14.5c-2.9,8.6-10.9,14.4-20,14.4h-18.3
						c-7,0-12.7,5.7-12.7,12.7c0,1,0.1,2,0.4,3l29.7,123c2.7,11.4,12.9,19.4,24.7,19.4L203.9,311.8z"/>
				</defs>
				<clipPath id="SVGID_4_">
					<use xlink:href="#SVGID_3_"  style="overflow:visible;"/>
				</clipPath>
				<g class="st17">
					<polygon class="st18" points="128.8,311.8 125.5,286.7 291.5,264.8 291.5,311.8 					"/>
					<polygon class="st18" points="125.5,286.7 125.1,284.1 291.5,262.1 291.5,264.8 					"/>
					<polygon class="st19" points="125.1,284.1 124.8,281.4 291.5,259.5 291.5,262.1 					"/>
					<polygon class="st20" points="124.8,281.4 124.4,278.8 291.5,256.8 291.5,259.5 					"/>
					<polygon class="st21" points="124.4,278.8 124.1,276.2 291.5,254.1 291.5,256.8 					"/>
					<polygon class="st22" points="124.1,276.2 123.8,273.5 291.5,251.4 291.5,254.1 					"/>
					<polygon class="st23" points="123.8,273.5 123.4,270.9 291.5,248.8 291.5,251.4 					"/>
					<polygon class="st24" points="123.4,270.9 123.1,268.3 291.5,246.1 291.5,248.8 					"/>
					<polygon class="st25" points="123.1,268.3 122.7,265.6 291.5,243.4 291.5,246.1 					"/>
					<polygon class="st26" points="122.7,265.6 122.4,263 291.5,240.7 291.5,243.4 					"/>
					<polygon class="st27" points="122.4,263 122,260.4 291.5,238 291.5,240.7 					"/>
					<polygon class="st28" points="122,260.4 121.7,257.8 291.5,235.4 291.5,238 					"/>
					<polygon class="st29" points="121.7,257.8 121.3,255.1 291.5,232.7 291.5,235.4 					"/>
					<polygon class="st30" points="121.3,255.1 121,252.5 291.5,230 291.5,232.7 					"/>
					<polygon class="st31" points="121,252.5 120.6,249.9 291.5,227.3 291.5,230 					"/>
					<polygon class="st32" points="120.6,249.9 120.3,247.2 291.5,224.6 291.5,227.3 					"/>
					<polygon class="st33" points="120.3,247.2 119.9,244.6 291.5,222 291.5,224.6 					"/>
					<polygon class="st34" points="119.9,244.6 119.6,242 291.5,219.3 291.5,222 					"/>
					<polygon class="st35" points="119.6,242 119.2,239.3 291.5,216.6 291.5,219.3 					"/>
					<polygon class="st36" points="119.2,239.3 118.9,236.7 291.5,213.9 291.5,216.6 					"/>
					<polygon class="st37" points="118.9,236.7 118.5,234.1 291.5,211.3 291.5,213.9 					"/>
					<polygon class="st38" points="118.5,234.1 118.2,231.4 291.5,208.6 291.5,211.3 					"/>
					<polygon class="st39" points="118.2,231.4 117.8,228.8 291.5,205.9 291.5,208.6 					"/>
					<polygon class="st40" points="117.8,228.8 117.5,226.2 291.5,203.2 291.5,205.9 					"/>
					<polygon class="st41" points="117.5,226.2 117.2,223.5 291.5,200.6 291.5,203.2 					"/>
					<polygon class="st42" points="117.2,223.5 116.8,220.9 291.5,197.9 291.5,200.6 					"/>
					<polygon class="st43" points="116.8,220.9 116.5,218.3 291.5,195.2 291.5,197.9 					"/>
					<polygon class="st44" points="116.5,218.3 116.2,216.2 116.2,215.6 291.5,192.5 291.5,195.2 					"/>
					<polygon class="st45" points="116.2,212.9 291.5,189.8 291.5,192.5 116.2,215.6 					"/>
					<polygon class="st46" points="116.2,210.3 291.5,187.2 291.5,189.8 116.2,212.9 					"/>
					<polygon class="st47" points="116.2,207.6 291.5,184.5 291.5,187.2 116.2,210.3 					"/>
					<polygon class="st48" points="116.2,204.9 291.5,181.8 291.5,184.5 116.2,207.6 					"/>
					<polygon class="st49" points="116.2,202.2 291.5,179.1 291.5,181.8 116.2,204.9 					"/>
					<polygon class="st50" points="116.2,199.6 291.5,176.5 291.5,179.1 116.2,202.2 					"/>
					<polygon class="st51" points="116.2,196.9 291.5,173.8 291.5,176.5 116.2,199.6 					"/>
					<polygon class="st52" points="116.2,194.2 291.5,171.1 291.5,173.8 116.2,196.9 					"/>
					<polygon class="st53" points="116.2,191.5 291.5,168.4 291.5,171.1 116.2,194.2 					"/>
					<polygon class="st54" points="116.2,188.9 291.5,165.7 291.5,168.4 116.2,191.5 					"/>
					<polygon class="st55" points="116.2,186.2 291.5,163.1 291.5,165.7 116.2,188.9 					"/>
					<polygon class="st56" points="116.2,183.5 291.5,160.4 291.5,163.1 116.2,186.2 					"/>
					<polygon class="st57" points="116.2,180.8 291.5,157.7 291.5,160.4 116.2,183.5 					"/>
					<polygon class="st58" points="116.2,178.1 291.5,155 291.5,157.7 116.2,180.8 					"/>
					<polygon class="st59" points="116.2,175.5 291.5,152.4 291.5,155 116.2,178.1 					"/>
					<polygon class="st60" points="116.2,172.8 291.5,149.7 291.5,152.4 116.2,175.5 					"/>
					<polygon class="st61" points="116.2,170.1 291.5,147 291.5,149.7 116.2,172.8 					"/>
					<polygon class="st62" points="116.2,167.4 291.5,144.3 291.5,147 116.2,170.1 					"/>
					<polygon class="st63" points="116.2,164.8 291.5,141.6 291.5,144.3 116.2,167.4 					"/>
					<polygon class="st64" points="116.2,162.1 291.5,139 291.5,141.6 116.2,164.8 					"/>
					<polygon class="st64" points="291.5,139 116.2,162.1 116.2,124.9 291.5,124.9 					"/>
				</g>
			</g>
		</g>
		<g class="st11">
			<path class="st0" d="M124.4,239c-0.7-10.3-1.3-20.5-1.1-30.8c0.2-13.6,0.7-28.7,4.9-42.3c2.4-7.3,5.2-14.4,8.4-21.4
				c1.2-3,2.2-6,3.2-9c1.2-3.7,2.7-7.3,4.7-10.7h-31c-12.4,0-22.5,10-22.5,22.4v182.4c0,12,9.7,21.7,21.7,21.7h21.4
				C122,315.2,127,276.4,124.4,239z"/>
		</g>
		<g class="st9">
			<path class="st65" d="M294,124.9h-38.6c3.2,7.1,5.5,14.6,6.6,22.4c1.3,9.5,1.6,19.2,1.2,28.8c-0.8,17.2-1,34.4-1.7,51.5
				c-1.4,37.3-8,74.3-8.1,111.6c0,4.2-0.6,8.3-1.6,12.3h42.1c12.9,0,23.4-10.5,23.4-23.4c0,0,0,0,0,0V148.1
				C317.2,135.3,306.8,124.9,294,124.9z"/>
		</g>
		<rect x="129.8" y="187.5" class="st65" width="148.3" height="55.4"/>
		<rect x="135.8" y="193.7" class="st66" width="136.2" height="43.1"/>
		<path class="st67" d="M274,238.8H133.6v-47.3H274V238.8z M137.8,234.6h132v-38.9h-132V234.6z"/>
		<path class="st68" d="M163.5,209.5c0,0.9-0.2,1.8-0.6,2.6c-0.4,0.8-0.9,1.5-1.6,2c-0.8,0.6-1.7,1-2.6,1.3
			c-1.2,0.3-2.4,0.5-3.6,0.4h-1.3h-0.7l-0.9-0.1v9.2h-5v-21.9h6c3.3,0,5.9,0.5,7.6,1.6C162.6,205.5,163.6,207.4,163.5,209.5z
			 M158.1,209.4c0-0.4-0.1-0.8-0.2-1.1c-0.1-0.3-0.4-0.6-0.7-0.9c-0.4-0.3-0.9-0.4-1.3-0.5c-0.7-0.1-1.4-0.2-2.1-0.2h-0.7
			c-0.2,0-0.5,0-0.8,0.1v5.2l0.9,0.1h0.9C156.8,212,158.1,211.1,158.1,209.4z"/>
		<path class="st68" d="M177.3,214.8c0,0.7-0.2,1.4-0.6,1.9c-0.4,0.6-0.9,1.1-1.6,1.5c-0.8,0.5-1.6,0.8-2.4,1
			c-1,0.2-2.1,0.4-3.2,0.3h-0.4h-0.5c0.1,0.7,0.4,1.4,0.9,1.9c0.6,0.5,1.3,0.7,2,0.7c1.6-0.1,3.2-0.5,4.6-1.4v3.3
			c-0.7,0.4-1.5,0.8-2.3,1c-0.8,0.2-1.6,0.3-2.4,0.3c-1,0-1.9-0.1-2.8-0.5c-0.8-0.3-1.5-0.8-2.1-1.4c-0.6-0.6-1-1.3-1.3-2.1
			c-0.3-0.9-0.5-1.8-0.5-2.8c0-1.1,0.2-2.1,0.6-3.1c0.3-0.9,0.9-1.8,1.5-2.5c0.7-0.7,1.5-1.2,2.4-1.6c1-0.4,2-0.6,3-0.6
			c1.3-0.1,2.6,0.3,3.7,1.1C176.7,212.6,177.3,213.6,177.3,214.8z M173.1,215.1c0-0.3-0.2-0.7-0.4-0.9c-0.3-0.2-0.7-0.4-1.1-0.4
			c-0.7,0-1.3,0.3-1.8,0.7c-0.5,0.5-0.9,1.2-1,2c0.2,0,0.3,0.1,0.5,0.1h0.5C172,216.7,173.1,216.1,173.1,215.1L173.1,215.1z"/>
		<path class="st68" d="M190.1,214.8c-0.2-0.1-0.5-0.1-0.7-0.1c-0.2,0-0.4,0-0.6,0c-1-0.1-2.1,0.4-2.7,1.2c-0.7,1.1-1,2.4-0.9,3.6
			v5.2h-4.2v-9c0-0.5,0-1,0-1.3s0-0.7-0.1-1.1c0-0.3-0.1-0.7-0.2-1c-0.1-0.3-0.2-0.7-0.3-1.1h3.9c0.1,0.3,0.1,0.5,0.2,0.7
			c0,0.2,0.1,0.3,0.1,0.5l0.1,0.5c0,0.2,0,0.4,0,0.7c0.5-0.8,1.1-1.5,1.8-2c0.6-0.4,1.3-0.6,2-0.6c0.2,0,0.5,0,0.7,0.1
			c0.3,0.1,0.6,0.2,0.8,0.3L190.1,214.8z"/>
		<path class="st68" d="M203.2,206.8c-0.4-0.2-0.7-0.3-1.1-0.4c-0.3-0.1-0.7-0.1-1-0.1c-0.4,0-0.9,0.1-1.3,0.3
			c-0.3,0.2-0.6,0.5-0.8,0.8c-0.2,0.5-0.3,0.9-0.4,1.4c-0.1,0.7-0.1,1.5-0.1,2.2h3.3v3h-3.3v10.7h-4.2V214h-2.6v-3h2.5
			c0-1.3,0.1-2.6,0.3-3.9c0.2-0.9,0.5-1.7,1.1-2.5c0.4-0.6,1.1-1.1,1.8-1.3c0.8-0.3,1.6-0.4,2.4-0.4c1.3,0,2.5,0.2,3.7,0.6
			L203.2,206.8z"/>
		<path class="st68" d="M213.6,224.4c-0.1-0.2-0.2-0.5-0.3-0.7c-0.1-0.3-0.1-0.5-0.2-0.8c-1.2,1.2-2.7,1.9-4.4,1.9
			c-0.6,0-1.3-0.1-1.9-0.4c-0.6-0.2-1.1-0.6-1.5-1.1c-0.4-0.5-0.8-1-1-1.6c-0.2-0.7-0.4-1.4-0.3-2.1c0-0.9,0-1.6,0.1-2.4
			c0-0.7,0.1-1.4,0.1-2.1c0-0.7,0-1.3,0-2c0-0.7,0-1.4-0.1-2.1h4.2c0.1,0.7,0.1,1.3,0.1,2s0,1.3,0,1.9s0,1.3-0.1,1.9s0,1.3,0,2.1
			c0,0.4,0,0.9,0.2,1.3c0.1,0.3,0.3,0.5,0.5,0.7c0.2,0.1,0.4,0.2,0.6,0.3c0.2,0,0.4,0,0.6,0.1c0.2,0,0.4-0.1,0.7-0.1
			c0.4-0.1,0.7-0.3,1-0.6c0.4-0.4,0.6-0.8,0.8-1.3c0.3-0.8,0.4-1.6,0.4-2.4V211h4.2v9.1c0,0.8,0.1,1.6,0.2,2.4
			c0.1,0.7,0.3,1.3,0.5,1.9L213.6,224.4z"/>
		<path class="st68" d="M240,224.8V218c0.1-0.9-0.1-1.8-0.5-2.6c-0.3-0.5-0.9-0.7-1.4-0.7c-0.3,0-0.6,0.1-0.9,0.2
			c-0.3,0.2-0.6,0.4-0.9,0.7c-0.3,0.4-0.5,0.9-0.6,1.4c-0.2,0.7-0.2,1.4-0.2,2.1v5.6h-4.2V218c0.1-0.9-0.1-1.7-0.5-2.5
			c-0.3-0.5-1-0.8-1.6-0.8c-0.7,0-1.4,0.4-1.9,1c-0.6,1-0.9,2.2-0.8,3.4v5.6h-4.1v-8.6c0-0.5,0-1,0-1.4c0-0.4-0.1-0.8-0.1-1.2
			c0-0.4-0.1-0.7-0.2-1.1c-0.1-0.3-0.2-0.7-0.3-1.1h4.2c0.1,0.3,0.2,0.6,0.2,0.7c0.1,0.2,0.1,0.5,0.2,0.7c0.7-0.5,1.4-1,2.2-1.3
			c0.9-0.4,1.9-0.5,2.9-0.5c0.7,0,1.5,0.1,2.1,0.4c0.6,0.3,1.1,0.7,1.4,1.3c0.6-0.6,1.3-1,2.1-1.3c0.9-0.3,1.8-0.4,2.7-0.4
			c1.3-0.1,2.5,0.4,3.4,1.3c0.9,1,1.3,2.3,1.2,3.6v8.9L240,224.8z"/>
		<path class="st68" d="M261.1,214.8c0,0.7-0.2,1.4-0.5,1.9c-0.4,0.6-0.9,1.1-1.5,1.5c-0.8,0.5-1.6,0.8-2.4,1
			c-1,0.2-2.1,0.4-3.2,0.3H253h-0.5c0.1,0.7,0.4,1.4,0.9,1.9c0.6,0.5,1.3,0.7,2,0.7c1.6-0.1,3.2-0.5,4.6-1.4v3.3
			c-0.7,0.4-1.5,0.8-2.3,1c-0.8,0.2-1.6,0.3-2.4,0.3c-1,0-1.9-0.1-2.8-0.5c-0.8-0.3-1.5-0.8-2.1-1.4c-0.6-0.6-1.1-1.4-1.4-2.2
			c-0.3-0.9-0.5-1.8-0.5-2.8c0-1.1,0.2-2.1,0.6-3.1c0.3-0.9,0.9-1.7,1.5-2.5c0.7-0.7,1.5-1.2,2.4-1.6c1-0.4,2-0.6,3-0.6
			c1.3-0.1,2.6,0.3,3.7,1.1C260.6,212.5,261.1,213.6,261.1,214.8z M256.9,215.1c0-0.3-0.2-0.7-0.4-0.9c-0.3-0.2-0.7-0.4-1.1-0.4
			c-0.7,0-1.3,0.3-1.8,0.7c-0.5,0.5-0.9,1.2-1,2c0.2,0,0.3,0.1,0.5,0.1h0.5C255.8,216.7,256.9,216.1,256.9,215.1L256.9,215.1z"/>
	</g>
</g>
</svg>
