<?xml version="1.0" encoding="utf-8"?>
<!-- Generator: Adobe Illustrator 25.2.3, SVG Export Plug-In . SVG Version: 6.00 Build 0)  -->
<svg version="1.1" id="Layer_1" xmlns="http://www.w3.org/2000/svg" xmlns:xlink="http://www.w3.org/1999/xlink" x="0px" y="0px"
	 viewBox="0 0 400 400" style="enable-background:new 0 0 400 400;" xml:space="preserve">
<style type="text/css">
	.st0{fill:#FFFFFF;}
	.st1{clip-path:url(#SVGID_2_);}
	.st2{fill:url(#SVGID_3_);}
	.st3{fill:#FF0B12;}
	.st4{fill:#FF9515;}
	.st5{fill:#FDF200;}
	.st6{fill:#92D638;}
	.st7{fill:#10B4F8;}
	.st8{fill:#23329A;}
	.st9{fill:#9E1C9C;}
	.st10{fill:#E3F9FE;}
	.st11{fill:#FFFEF9;}
	.st12{fill:#A8E1FF;}
</style>
<circle class="st0" cx="200" cy="200" r="196.5"/>
<g>
	<defs>
		<circle id="SVGID_1_" cx="200" cy="200" r="196.5"/>
	</defs>
	<clipPath id="SVGID_2_">
		<use xlink:href="#SVGID_1_"  style="overflow:visible;"/>
	</clipPath>
	<g class="st1">
		
			<radialGradient id="SVGID_3_" cx="203.04" cy="10.5696" r="311.91" gradientTransform="matrix(1 0 0 -1.09 0 221.99)" gradientUnits="userSpaceOnUse">
			<stop  offset="0" style="stop-color:#D0F2FE"/>
			<stop  offset="0.18" style="stop-color:#8FE0FC"/>
			<stop  offset="0.44" style="stop-color:#60BEF8"/>
			<stop  offset="0.75" style="stop-color:#39A3EE"/>
			<stop  offset="1" style="stop-color:#1F93E8"/>
		</radialGradient>
		<rect x="-43" y="-13.5" class="st2" width="493.8" height="452.8"/>
		<path class="st3" d="M202,76.1c82.3,0,149.1,66.7,149.2,149h16.4c0-91.5-74.1-165.6-165.6-165.6S36.4,133.7,36.4,225.1h16.4
			C52.9,142.8,119.7,76.1,202,76.1z"/>
		<path class="st4" d="M202,76.1c-82.3,0-149.1,66.7-149.2,149h17.1c0-72.9,59.1-132,132-132s132,59.1,132,132h17.2
			C351,142.8,284.3,76.2,202,76.1z"/>
		<path class="st5" d="M202,109.5c63.9,0,115.7,51.7,115.8,115.6H334c0-72.9-59.1-132-132-132s-132,59.1-132,132h16.2
			C86.3,161.2,138.1,109.5,202,109.5z"/>
		<path class="st6" d="M202,109.5c-63.9,0-115.7,51.7-115.8,115.6H103c0-54.7,44.3-99,99-99s99,44.3,99,99h16.8
			C317.7,161.2,265.9,109.5,202,109.5z"/>
		<path class="st7" d="M202,143.5c45.1,0,81.7,36.5,81.8,81.6H301c0-54.7-44.3-99-99-99c-54.7,0-99,44.3-99,99h17.2
			C120.3,180,156.9,143.5,202,143.5z"/>
		<path class="st8" d="M202,143.5c-45.1,0-81.7,36.5-81.8,81.6h16.4c0-36.1,29.3-65.4,65.4-65.4c36.1,0,65.4,29.3,65.4,65.4h16.4
			C283.7,180,247.1,143.5,202,143.5z"/>
		<path class="st9" d="M202,176.5c26.9,0,48.7,21.7,48.8,48.6h16.6c0-36.1-29.3-65.4-65.4-65.4c-36.1,0-65.4,29.3-65.4,65.4h16.6
			C153.3,198.2,175.1,176.5,202,176.5z"/>
		<path class="st10" d="M378.2,237.4c-26,3.6-52.1,6.2-78.4,6.4c-15.9,0.2-31.8-0.6-47.6-2.5c-15.8-1.8-31.6-2.7-47.5-2.8
			c-33.2-0.4-66.6,1.3-99.6-2.6c-25.9-3-52.2-6.1-77.5-13C20,227.6,15.4,236,15.4,245c0,0.4,0,0.7,0,1.1c0,0.1,0,0.3,0,0.4
			c0,14.5,11.3,26.4,25.7,27.3c6.8,16.8,25.9,24.9,42.7,18.2c5.1-2.1,9.6-5.4,13.1-9.6c10.1,13.6,29.2,16.4,42.8,6.4
			c1.7-1.3,3.3-2.7,4.7-4.3c7.4,4.5,16.6,4.7,24.1,0.5c7.7,9.2,21.1,11.2,31.1,4.7c12.7,15.3,35.4,17.3,50.7,4.6
			c2.4-2,4.6-4.4,6.4-7c9.2,7,22.2,5.8,29.9-2.8c6.8,14,23.7,19.9,37.7,13.1c3.9-1.9,7.3-4.6,9.9-8c11,8.8,27,7,35.8-4
			c3.1-3.9,5-8.7,5.5-13.7c9.4,0,16.9-7.6,16.9-17c0-0.4,0-0.6,0-0.8s0-0.4,0-0.7C392.5,245.1,386.3,238.3,378.2,237.4z"/>
		<path class="st11" d="M69.7,241.2c0-14.2-11.5-25.7-25.7-25.7S18.3,227,18.3,241.1s11.5,25.7,25.7,25.7c0,0,0,0,0,0
			C58.2,266.8,69.7,255.3,69.7,241.2z"/>
		<path class="st11" d="M82.2,226.1c0-13.6-11-24.6-24.6-24.6S33,212.6,33,226.1c0,13.6,11,24.6,24.6,24.6c0,0,0,0,0,0
			C71.2,250.7,82.2,239.7,82.2,226.1z"/>
		<circle class="st11" cx="157.8" cy="249.9" r="21.2"/>
		<path class="st11" d="M183,234.1c0-12.9-10.5-23.3-23.4-23.3s-23.3,10.5-23.3,23.4c0,12.9,10.5,23.3,23.3,23.3
			C172.5,257.4,183,247,183,234.1z"/>
		<path class="st11" d="M215.7,224.7c0-12.9-10.4-23.4-23.3-23.4c-12.9,0-23.4,10.4-23.4,23.3s10.4,23.4,23.3,23.4c0,0,0,0,0,0
			C205.2,248,215.7,237.6,215.7,224.7z"/>
		<path class="st11" d="M251.6,231.9c0-10.9-8.9-19.8-19.8-19.8c-10.9,0-19.8,8.9-19.8,19.8c0,10.9,8.9,19.8,19.8,19.8c0,0,0,0,0,0
			C242.8,251.7,251.6,242.8,251.6,231.9C251.6,231.9,251.6,231.9,251.6,231.9z"/>
		<path class="st11" d="M292.1,231.9c0-13.1-10.6-23.7-23.7-23.7c-13.1,0-23.7,10.6-23.7,23.7c0,13.1,10.6,23.7,23.7,23.7
			C281.5,255.7,292.1,245,292.1,231.9C292.1,231.9,292.1,231.9,292.1,231.9z"/>
		<path class="st11" d="M328.7,215.8c0-13.1-10.6-23.7-23.7-23.7c-13.1,0-23.7,10.6-23.7,23.7c0,13.1,10.6,23.7,23.7,23.7
			c0,0,0,0,0,0C318.1,239.6,328.7,228.9,328.7,215.8z"/>
		<path class="st11" d="M359.5,224.7c0-10.6-8.6-19.2-19.2-19.2c-10.6,0-19.2,8.6-19.2,19.2c0,10.6,8.6,19.2,19.2,19.2
			S359.5,235.3,359.5,224.7C359.5,224.7,359.5,224.7,359.5,224.7z"/>
		<path class="st11" d="M373.1,232.6c0-7.5-6.1-13.6-13.6-13.6s-13.6,6.1-13.6,13.6c0,7.5,6.1,13.6,13.6,13.6
			S373.1,240.1,373.1,232.6L373.1,232.6z"/>
		<path class="st11" d="M390.2,249.3c0-8.7-7.1-15.8-15.8-15.8c-8.7,0-15.8,7.1-15.8,15.8s7.1,15.8,15.8,15.8c0,0,0,0,0,0
			C383.1,265.2,390.2,258.1,390.2,249.3z"/>
		<path class="st11" d="M150.1,249.9c0-15-12.2-27.2-27.2-27.2c-15,0-27.2,12.2-27.2,27.2c0,15,12.2,27.2,27.2,27.2c0,0,0,0,0,0
			C137.9,277.1,150.1,264.9,150.1,249.9C150.1,249.9,150.1,249.9,150.1,249.9z"/>
		
			<ellipse transform="matrix(5.530036e-02 -0.9985 0.9985 5.530036e-02 -121.8109 323.5359)" class="st11" cx="110.1" cy="226.1" rx="34" ry="34"/>
		<path class="st12" d="M46.7,238.1c-5.3,0.2-10.7,0.8-15.9,1.8c-4.1,1-8.3,1.8-12.5,2.4c0,0.1,0,0.3,0,0.4
			c-0.2,14.9,11.8,27.1,26.7,27.3c14.9,0.2,27.1-11.8,27.3-26.7c0-1.8-0.1-3.7-0.5-5.4C63.5,238.1,55.1,237.6,46.7,238.1z"/>
		<path class="st10" d="M84.9,236.3c0-15.1-12.2-27.3-27.3-27.3s-27.3,12.2-27.3,27.3s12.2,27.3,27.3,27.3c0,0,0,0,0,0
			C72.7,263.6,84.9,251.4,84.9,236.3z"/>
		<path class="st10" d="M185.5,244.2c0-14.3-11.6-25.9-25.9-25.9s-25.9,11.6-25.9,25.9c0,14.3,11.6,25.9,25.9,25.9l0,0
			C173.9,270.1,185.5,258.5,185.5,244.2z"/>
		<path class="st10" d="M218.3,234.8c0-14.3-11.6-25.9-25.9-25.9s-25.9,11.6-25.9,25.9s11.6,25.9,25.9,25.9l0,0
			C206.7,260.8,218.3,249.2,218.3,234.8C218.3,234.8,218.3,234.8,218.3,234.8z"/>
		
			<ellipse transform="matrix(0.9803 -0.1975 0.1975 0.9803 -42.5209 57.7731)" class="st10" cx="268.4" cy="242.1" rx="26.3" ry="26.3"/>
		<path class="st10" d="M331.3,226c0-14.5-11.8-26.3-26.4-26.3c-14.5,0-26.3,11.8-26.3,26.4c0,14.5,11.8,26.3,26.4,26.3c0,0,0,0,0,0
			C319.5,252.3,331.3,240.5,331.3,226z"/>
		<path class="st10" d="M361.6,234.8c0-11.7-9.5-21.3-21.3-21.3c-11.7,0-21.3,9.5-21.3,21.3s9.5,21.3,21.3,21.3c0,0,0,0,0,0
			C352.1,256.1,361.6,246.6,361.6,234.8C361.6,234.8,361.6,234.8,361.6,234.8z"/>
		<path class="st10" d="M374.6,242.8c0-8.3-6.7-15.1-15.1-15.1c-8.3,0-15.1,6.7-15.1,15.1c0,8.3,6.7,15.1,15.1,15.1c0,0,0,0,0,0
			C367.8,257.8,374.6,251.1,374.6,242.8z"/>
		<path class="st12" d="M383.4,251.1c-3.3-0.1-6.6-0.6-10-0.7c-5.6-0.1-11.1-0.7-16.7-1.2c0,0.5-0.1,1-0.1,1.5
			c0.2,9.3,7.9,16.6,17.2,16.4c8.9-0.2,16.1-7.4,16.4-16.4C388,250.9,385.7,251.2,383.4,251.1z"/>
		<path class="st10" d="M147.8,236.3c0-20.9-16.9-37.8-37.8-37.8c-20.9,0-37.8,16.9-37.8,37.8c0,20.9,16.9,37.8,37.8,37.8
			S147.8,257.2,147.8,236.3C147.8,236.3,147.8,236.3,147.8,236.3z"/>
		<path class="st10" d="M253.8,242.1c0-12.2-9.8-22-22-22s-22,9.8-22,22s9.8,22,22,22S253.8,254.2,253.8,242.1z"/>
		<path class="st12" d="M106,257.5c0-17.9-14.5-32.3-32.3-32.3s-32.3,14.5-32.3,32.3s14.5,32.3,32.3,32.3S106,275.3,106,257.5
			C106,257.5,106,257.5,106,257.5z"/>
		<path class="st12" d="M338.8,267.9c0-15.4-12.5-27.9-27.9-27.9c-15.4,0-27.9,12.5-27.9,27.9s12.5,27.9,27.9,27.9c0,0,0,0,0,0
			C326.3,295.7,338.8,283.3,338.8,267.9z"/>
		<path class="st12" d="M210.8,265.4c0-13-10.6-23.5-23.6-23.5c-13,0-23.5,10.6-23.5,23.6c0,13,10.5,23.5,23.5,23.5
			C200.3,289,210.8,278.5,210.8,265.4C210.8,265.5,210.8,265.4,210.8,265.4z"/>
		<path class="st12" d="M181.4,260c0-13-10.5-23.5-23.5-23.5c-13,0-23.5,10.5-23.5,23.5s10.5,23.5,23.5,23.5c0,0,0,0,0,0
			C170.8,283.5,181.3,273,181.4,260z"/>
		<path class="st12" d="M153.1,260c0-16.7-13.5-30.2-30.2-30.2c-16.7,0-30.2,13.5-30.2,30.2s13.5,30.2,30.2,30.2
			S153.1,276.7,153.1,260L153.1,260z"/>
		<path class="st12" d="M291.4,265.4c0-12.1-9.8-21.8-21.9-21.8s-21.8,9.8-21.8,21.8c0,12.1,9.8,21.9,21.8,21.9
			C281.6,287.3,291.4,277.5,291.4,265.4C291.4,265.4,291.4,265.4,291.4,265.4z"/>
		<path class="st12" d="M262.8,262.5c0-19.6-15.9-35.5-35.5-35.5c-19.6,0-35.5,15.9-35.5,35.5c0,19.6,15.9,35.5,35.5,35.5
			C246.9,298,262.8,282.1,262.8,262.5C262.8,262.5,262.8,262.5,262.8,262.5z"/>
		<path class="st10" d="M106,246.3c0-17.9-14.5-32.3-32.3-32.3s-32.3,14.5-32.3,32.3s14.5,32.3,32.3,32.3c0,0,0,0,0,0
			C91.5,278.6,106,264.2,106,246.3C106,246.3,106,246.3,106,246.3z"/>
		<path class="st10" d="M350.2,245.7c0-18.6-15-33.6-33.6-33.6c-18.6,0-33.6,15-33.6,33.6c0,18.6,15,33.6,33.6,33.6
			C335.2,279.3,350.2,264.3,350.2,245.7C350.2,245.8,350.2,245.7,350.2,245.7z"/>
		<path class="st10" d="M198.6,244.5c0-16.7-13.6-30.3-30.3-30.3c-16.7,0-30.3,13.6-30.3,30.3c0,16.7,13.6,30.3,30.3,30.3
			c0,0,0,0,0,0C185,274.8,198.5,261.2,198.6,244.5C198.6,244.5,198.6,244.5,198.6,244.5z"/>
		<path class="st12" d="M123.8,235.4h-37c0.1,20.2,16.5,36.5,36.7,36.5h0.4L123.8,235.4z"/>
		<path class="st10" d="M86.2,228.9c0,20.3,16.4,36.7,36.7,36.7s36.7-16.4,36.7-36.7H86.2z"/>
		<path class="st10" d="M291.4,254.3c0-12.1-9.8-21.8-21.9-21.8s-21.8,9.8-21.8,21.9s9.8,21.8,21.8,21.8S291.4,266.3,291.4,254.3
			L291.4,254.3z"/>
		<path class="st10" d="M252.6,246.6c-0.2-1.8,0.3-3.5,1.3-5c0.8-1.3,2-2.6,1.7-4.2c-0.6-2.8-5.5-4.8-7.7-6
			c-2.7-1.4-5.6-2.5-8.6-3.3c-1.8-0.5-5.4-2.5-6.7-0.6c-1,1.4-0.7,3.4-1.4,5s-2.5,2.4-3.8,3.7c-5.8,5.8-5.8,15.1,0,20.9
			s15.1,5.8,20.9,0C251,254.4,252.6,250.6,252.6,246.6L252.6,246.6z"/>
		<path class="st10" d="M240.4,239.5c0-8.2-6.6-14.8-14.8-14.8s-14.8,6.6-14.8,14.8s6.6,14.8,14.8,14.8c0,0,0,0,0,0
			C233.8,254.3,240.4,247.7,240.4,239.5z"/>
		<path class="st10" d="M227.1,248c0-11-8.9-19.9-19.9-19.9c-11,0-19.9,8.9-19.9,19.9c0,11,8.9,19.9,19.9,19.9c0,0,0,0,0,0
			C218.2,267.9,227.1,259,227.1,248C227.1,248,227.1,248,227.1,248z"/>
		<path class="st11" d="M159.6,218.3c9.9,0,19,5.7,23.3,14.6c-0.7-12.9-11.6-22.8-24.5-22.1c-12,0.6-21.5,10.2-22.1,22.1
			C140.6,224,149.7,218.3,159.6,218.3z"/>
		<path class="st11" d="M211.5,225.2c6,0,11.5,3.4,14.1,8.8c-0.4-7.8-7-13.8-14.8-13.5c-7.3,0.3-13.1,6.2-13.5,13.5
			C200,228.7,205.5,225.2,211.5,225.2z"/>
		<path class="st11" d="M340.4,213.6c8.1,0,15.6,4.7,19.1,12c0-0.3,0-0.6,0-0.9c0-10.6-8.6-19.2-19.2-19.2s-19.2,8.6-19.2,19.2l0,0
			c0,0.3,0,0.6,0,0.9C324.7,218.2,332.2,213.5,340.4,213.6z"/>
		<path class="st11" d="M268.4,215.7c10.1,0,19.3,5.8,23.7,14.8c-0.8-13.1-12-23.1-25.1-22.3c-12,0.7-21.6,10.3-22.3,22.3
			C249.1,221.5,258.3,215.7,268.4,215.7z"/>
		<path class="st12" d="M140.4,258.8c-4.1-0.8-10-5.5-13.3-9.6c0.3,0.7,0.7,1.4,1.1,2c2.7,4.3,8.6,10,12.4,10.8
			c8.9,2.1,17-3.8,20.5-9.7C156.4,256.9,148.7,260.5,140.4,258.8z"/>
		<path class="st12" d="M283.8,263.8c-4.4-0.8-10.7-5.9-14.3-10.3c0.3,0.8,0.7,1.5,1.2,2.2c2.9,4.6,9.1,10.7,13.3,11.6
			c9.6,2.3,18.2-4.1,21.9-10.4C300.9,261.8,292.7,265.6,283.8,263.8z"/>
		<path class="st12" d="M373.6,265.4c0-13.9-11.3-25.1-25.1-25.1s-25.1,11.3-25.1,25.1c0,13.9,11.3,25.1,25.1,25.1
			C362.4,290.6,373.6,279.3,373.6,265.4z"/>
		<path class="st10" d="M373.6,254.3c0-13.9-11.3-25.1-25.1-25.1s-25.1,11.3-25.1,25.1c0,13.9,11.3,25.1,25.1,25.1
			C362.4,279.4,373.6,268.1,373.6,254.3z"/>
		<path class="st11" d="M331.3,248.6c6,0,11.5,3.4,14.1,8.8c-0.4-7.8-7.1-13.8-14.9-13.4c-7.2,0.4-13,6.1-13.4,13.4
			C319.8,252,325.3,248.6,331.3,248.6z"/>
		<path class="st10" d="M390.2,250.6c0-7.4-5.9-13.3-13.3-13.3s-13.3,5.9-13.3,13.3c0,7.4,5.9,13.3,13.3,13.3c0,0,0,0,0,0
			C384.3,263.9,390.2,258,390.2,250.6z"/>
		<path class="st11" d="M57.6,209c10.4,0,19.9,5.9,24.5,15.3c-0.9-13.5-12.5-23.8-26.1-22.9c-12.3,0.8-22.1,10.6-22.9,22.9
			C37.7,214.9,47.2,209,57.6,209z"/>
		<path class="st10" d="M57.6,242.6c0-10.8-8.8-19.6-19.6-19.6c-10.8,0-19.6,8.8-19.6,19.6c0,10.8,8.7,19.5,19.5,19.6
			C48.8,262.2,57.6,253.5,57.6,242.6C57.6,242.7,57.6,242.6,57.6,242.6z"/>
		<path class="st11" d="M63.6,232c6,0,11.5,3.4,14.1,8.8c-0.4-7.8-7-13.8-14.8-13.5c-7.3,0.3-13.1,6.2-13.5,13.5
			C52.1,235.4,57.6,232,63.6,232z"/>
	</g>
</g>
</svg>
