<?xml version="1.0" encoding="utf-8"?>
<!-- Generator: Adobe Illustrator 25.2.3, SVG Export Plug-In . SVG Version: 6.00 Build 0)  -->
<svg version="1.1" id="Layer_1" xmlns="http://www.w3.org/2000/svg" xmlns:xlink="http://www.w3.org/1999/xlink" x="0px" y="0px"
	 viewBox="0 0 400 400" style="enable-background:new 0 0 400 400;" xml:space="preserve">
<style type="text/css">
	.st0{fill:#FFFFFF;}
	.st1{clip-path:url(#SVGID_2_);}
	.st2{fill:#F9CC95;}
	.st3{fill:#FFE397;}
	.st4{fill:url(#SVGID_3_);}
	.st5{fill:url(#SVGID_4_);}
	.st6{fill:url(#SVGID_5_);}
	.st7{fill:url(#SVGID_6_);}
	.st8{fill:url(#SVGID_7_);}
	.st9{fill:#C49A72;}
	.st10{fill:#FFEAB3;}
	.st11{fill:url(#SVGID_8_);}
	.st12{fill:#FFD971;}
	.st13{fill:url(#SVGID_9_);}
	.st14{fill:url(#SVGID_10_);}
	.st15{fill:url(#SVGID_11_);}
	.st16{fill:url(#SVGID_12_);}
	.st17{fill:url(#SVGID_13_);}
	.st18{fill:#D1A67C;}
	.st19{fill:url(#SVGID_14_);}
	.st20{fill:url(#SVGID_15_);}
	.st21{fill:#8C6A50;}
	.st22{fill:url(#SVGID_16_);}
	.st23{fill:#A57C59;}
	.st24{fill:url(#SVGID_17_);}
	.st25{fill:#48AFEF;}
	.st26{fill:#B3FBFF;}
	.st27{fill:#005070;}
	.st28{opacity:0.3;fill:#EEFAFF;enable-background:new    ;}
	.st29{fill:#00779B;}
	.st30{fill:#0070A8;}
	.st31{fill:#00303F;}
	.st32{opacity:0.48;fill:#003149;enable-background:new    ;}
	.st33{fill:#FFAA00;}
	.st34{fill:#D88500;}
	.st35{fill:#FFD400;}
	.st36{fill:#E82A45;}
	.st37{fill:#8C0021;}
	.st38{fill:#600017;}
	.st39{fill:#FF6E6E;}
	.st40{fill:url(#SVGID_18_);}
	.st41{fill:url(#SVGID_19_);}
	.st42{fill:url(#SVGID_20_);}
	.st43{fill:url(#SVGID_21_);}
</style>
<circle class="st0" cx="200" cy="200" r="196.5"/>
<g>
	<defs>
		<circle id="SVGID_1_" cx="200" cy="200" r="196.5"/>
	</defs>
	<clipPath id="SVGID_2_">
		<use xlink:href="#SVGID_1_"  style="overflow:visible;"/>
	</clipPath>
	<g class="st1">
		<rect x="-2.5" y="229.1" class="st2" width="465.4" height="184.4"/>
		<path class="st2" d="M54.2,249.8c-28.1,1.3-49,8.1-31.1,8.4s16.1,2.9,25,5.2s22.1,7.1,28.3,7.5s-12.7,5.2-2,6.8s8.8,4.8,29,6.6
			s17.2,3.1,35.7,3s30.7,3,35.9,3.1s11.6,8.1,23.5,7.7s-0.7-0.6,24.8,2.7s54.3,0.2,94.9-3.9s22.1-8.1,44.6-11.7
			c4-2.1,11.2-7.3,16.1-11.5c13.8-13.4,31.5-6,47.2-8.7c15.9-2.7,8-11-47.1-10.1C326.8,256,54.2,249.8,54.2,249.8z"/>
		<path class="st3" d="M65.7,282.8c-14.6,1.1-33.2-2.9-17.3-4.3s12.1-2,19.6-1.3S73.6,282.2,65.7,282.8z"/>
		<path class="st3" d="M134.7,290c6.5-1.6,7,1,5,1.8S128.7,291.5,134.7,290z"/>
		<path class="st3" d="M50.4,267.3c2.9-0.5,4.3,1.2,1.6,2.1S45.5,268.1,50.4,267.3z"/>
		<path class="st3" d="M352.3,299.9c4.1-0.8,11.5,0.8,6.7,2.6S346.1,301.2,352.3,299.9z"/>
		<path class="st3" d="M396.7,283.2c2.9-1,9.3,1.9,2.4,2.2C393.7,285.6,391.5,285.1,396.7,283.2z"/>
		<path class="st3" d="M414.5,270.5c7.9,1.3-25.5,5.2-23.4,0.6S405.7,269.1,414.5,270.5z"/>
		<path class="st3" d="M87.2,286.5c15.2-1.5,46.1,1.6,25.9,3.7S53,289.8,87.2,286.5z"/>
		<path class="st3" d="M227.1,307.7c-11.6-0.6-19.2-2.4-19.1-4.9S263.5,309.5,227.1,307.7z"/>
		<path class="st2" d="M403.2,248.1c-6.7-1.7-10-3.5-23.6-8.8s-24.1,0.1-32.5,0s-0.8,3.1-17.5,4.6s-39.4-13.7-41.4-9.5
			s-0.9,5.2-17.3,2.3s-16.2,6.7-23.6,6.6s-6.7,1.3-5.5,7s-16.2,1.3-13.1-1.1s-10.6-4-16.9-6.9s-14.1,7.2-28.2,1.6
			c-13.7,3.6-35.5-1.8-22.4-2.5s18.5-3,26.4-3.8s6.8-2.7-7.8-2.5s-27.1-11.2-30.4-12.7s19.9-29,11.7-27.9
			c-23.8,3.3-98.7,46.6-84.3,48.7c-38.9-0.2-52,12.2-49,13.9c2.2,1.3,21.5,1.5,23.8,2.4c3.5,1.4,9.4,3.7,8.2,8.1
			c-2.7,9.9,14.7,6.8,18.4,7.6c12.9,3,25.8,6.4,39,8c0.2,0,0.4,0.1,0.5,0.2c10.3,1.2,12,2.3,23.1,1.8c12.6-0.6,16.7-2.6,21.8,0.2
			l2.9,1.6c3.5-0.6,7.1-0.9,10.7-0.9c-5.7,4.7-15.5,10-3.4,11c10.6,0.9,24.4-0.7,37.5-2.3c45.6,16,112.8-6.6,141.3-7.1
			c29.1-0.6,26.3-10.1,35.2-18.8c4.3-4.2,12-6.9,28.1-6.3C434.1,263.4,435.2,256.1,403.2,248.1z"/>
		<path class="st2" d="M363.2,236.5c-9.8-5.3-27.4-19.1-31.4-23c-3.4-9.5-14.4-11.7-24.2-18.3s-13.6-12.8-26.3-17.4
			s-16.2-11.7-34.1-15.9c-9.3-2.2-20.7-3.9-27.8-0.4s12.5,30.5,42.1,41.1S363.2,236.5,363.2,236.5z"/>
		<path class="st3" d="M156.3,301.3c4.4-0.2,13.1,2.1,6.5,2S148.5,301.7,156.3,301.3z"/>
		<path class="st3" d="M193.5,299.5c2.8-0.5,8.7,1,4.4,2.7S186.8,300.7,193.5,299.5z"/>
		<path class="st3" d="M306.4,303.6c-2.4,1.2-13,1.9-5.4-1S312.2,300.6,306.4,303.6z"/>
		
			<linearGradient id="SVGID_3_" gradientUnits="userSpaceOnUse" x1="43.7123" y1="174.1463" x2="409.8117" y2="174.1463" gradientTransform="matrix(1 0 0 -1 0 402)">
			<stop  offset="0.32" style="stop-color:#F9CC95"/>
			<stop  offset="1" style="stop-color:#FFE7C0"/>
		</linearGradient>
		<path class="st4" d="M379.9,248.4c-24.5-2.2-34.6-12.2-34.6-12.2l-28.2-13.9c-4.9-7.6-27-20.3-36.3-28.1
			c-13.5-11.4-34.5-26.6-50.5-30.6s-28.9,2-37.7,6.9s-14.2,7.8-29.6,15.6c-9.8,5-11.3,7.9-14.2,12.5c-18.6,12.9-35.3,29.2-47.7,32.2
			c-23.5,5.6-14.3,6.4-31.7,10s-10.1,5.9-19,8.7s-12.2,6.6,9.9,6.1s-7.5,0.8,30.1,2.9s-19.2,17.7,22.5,18.8s14.8,10.6,43.6,11.8
			s11.9-3.4,38.9-1.1s-4.4,4.5,41.4,5.4c63.6,1.1,66.3-17.3,97.1-19.1s11.7-5.2,30.5-5.8s24.2-9.1,39.2-12.1
			S404.4,250.7,379.9,248.4z"/>
		
			<linearGradient id="SVGID_4_" gradientUnits="userSpaceOnUse" x1="184.1705" y1="138.5334" x2="187.3205" y2="245.7434" gradientTransform="matrix(0.9997 -2.530457e-02 -2.530457e-02 -0.9997 -1.5385 425.2441)">
			<stop  offset="0" style="stop-color:#FFDB80"/>
			<stop  offset="1" style="stop-color:#FFEEB7"/>
		</linearGradient>
		<path class="st5" d="M257.5,208c-8-3.3-16.2-6.3-23.9-10.4c-7.4-3.9-14-9-19.7-15.1c-2.9-3.1-7.8-8.8-12.3-5.9
			c-15,9.8-34.3,15-44.8,24.4s-14.5,11.7-26,21.1c-1.2,1-12.9,12.4-24.6,12.7c-14.9,0.3-20.5,4.2-21.7,5.4c-8,7.9,31.9,4.9,66.7,4
			c23.6-0.6,78.1-4.5,124.1-8c-2.8-8.3-6.1-16.3-9.5-24.3C263,210.5,260.2,209.1,257.5,208z"/>
		<path class="st2" d="M398.3,253.7c-9.5-1.8-27-16.1-31.4-18.6c-7.6-4.5-20.5-12.5-26.9-16.3s-6.2,1.5-18-5.9
			c-2.1-1.4-4.4-2.5-6.7-3.3c-2.1-1.9-4-3.7-6.8-5.9c-6.9-5.3-10.4-7.1-18.2-10.6s-9.5-3.5-17.9-8.8c-6.3-4-10.3-9.4-18.1-12
			c-8.5-2.9-8.1-6-13.4-9.3c-12.9-8.1-21.1-5.8-28.8-0.7c-10,6.6-15.2,16.6-21,18.6s-12.5,12.7-22.7,16.3c-4.9,1.8-9.2,4.8-12.5,8.9
			c-0.3,2.6-0.3,3.9,5.6,5.6c7.2,2.1,1.6,1.4-8.8,3.4c-2.4,0.5-4.3,0.8-5.8,1.1c-6.4,5.3-18.4,13.5-25.4,15.4
			c-8.3,2.3-9.6,7-19.7,7.3c-7.8,0.2-14.3,3.6-21.2,6.8c-17-0.1-28.8-1.1-12,2.4c21.4,4.5,14.1,4.4,34.8,9.5l21.6,7.1
			c11.3,5.2,18,10.7,32,13c20,3.3,2.1,8.8,23.3,8.9s-4.9,11.3,22.8,6.7s3.5-8.7,38.5-6.2s22.5-5.5,47.2-6.2s-5.8-10.6,28.6-8.5
			s29.3-6.1,44.6-8.5S408.4,255.6,398.3,253.7z"/>
		<path class="st2" d="M375.8,251c-8-2.3-14-6.6-20.7-6.6s-14-0.4-22.5-0.2s-30.3,7.4-24.2,7.2s-12.3,10.1-3.8,10s31.3-5.2,43.4-6.1
			S375.8,251,375.8,251z"/>
		
			<linearGradient id="SVGID_5_" gradientUnits="userSpaceOnUse" x1="251.6388" y1="197.0885" x2="108.9888" y2="122.1885" gradientTransform="matrix(0.9997 -2.530457e-02 -2.530457e-02 -0.9997 -1.5385 425.2441)">
			<stop  offset="0" style="stop-color:#FFDB80"/>
			<stop  offset="1" style="stop-color:#FFEEB7"/>
		</linearGradient>
		<path class="st6" d="M123.8,277.9c14.1-0.5,7.7,8,27.7,5.7s36.5-7.4,43.5-13.2s3.3-11.6,17.8-13.5s25.3-1.7,33.5-6.2
			s18.8-7.4,18.8-7.4s4.9-3.1-10,0.8s-24.7,6.1-38.2,6.6s-4.8-3.5-33.6,5.3s-6.6-2.1-32.1,2.1s-18.7-0.8-33.4,3
			S100.5,278.8,123.8,277.9z"/>
		<path class="st2" d="M357.2,229c-7.5-4.9-11.2-9.1-17.5-13.3c-4-2.6-9.6-3.8-11.8-5.3c-7.9-5.4-8.9-7.6-13.2-9
			c-8.2-2.6-14.7-12.4-20.3-13.6c-5.1-1.1-7.8-6.4-15.2-9c-3.6-1.3-6.8-1.2-16.1-9.1c-6.4-5.4,3.4,7.4,6,10.5c4.3,5,5.8,12,2.3,17.9
			c-1.6,2.6-2.4,5.5-2.5,8.5c-0.7,1.7-1.3,3.5-1.8,5.3c-2.3,8.1,5.8,7.1-3.8,13c-9.4,5.8-4.3,5.2,8.6,5.8c4.2,0.8,8.4,1.7,12.6,2.7
			l-0.7,0.4c-7.5,4.2,11.4,3.5,23.7,6.1c11.1,2.3,14.7-0.9,22.4-2.2c3.7-0.2,7,1.1,10.7,0.9c11.8-0.5,32.4,9.9,44.1,9.3
			C382.1,238.7,358.4,229.8,357.2,229z"/>
		
			<linearGradient id="SVGID_6_" gradientUnits="userSpaceOnUse" x1="253.7767" y1="134.784" x2="220.7667" y2="226.364" gradientTransform="matrix(0.9997 -2.530457e-02 -2.530457e-02 -0.9997 -1.5385 425.2441)">
			<stop  offset="0" style="stop-color:#FFDB80"/>
			<stop  offset="1" style="stop-color:#FFEEB7"/>
		</linearGradient>
		<path class="st7" d="M254.7,239c-7.6-1-6.6-2.2-17-2s-13.4,0.3-27.9,0.6s-36.3-2.8-26.1-3.9s0.4-1.4,16.7-2.1s18.3,3.8,32.3,1.6
			s-8.5-7.7,6.5-5.4s13.6,2.4,25.2,4.7c27.7,5.6,8.1,4.8,1,5.9S254.7,239,254.7,239z"/>
		
			<linearGradient id="SVGID_7_" gradientUnits="userSpaceOnUse" x1="228.951" y1="126.2764" x2="195.801" y2="218.2764" gradientTransform="matrix(0.9997 -2.530457e-02 -2.530457e-02 -0.9997 -1.5385 425.2441)">
			<stop  offset="0" style="stop-color:#FFDB80"/>
			<stop  offset="1" style="stop-color:#FFEEB7"/>
		</linearGradient>
		<path class="st8" d="M182.3,218c7.5-0.2,6.1-2.4,16.8-2.4s21.4-0.1,12.9-1.3s-4-1.9-11.9-1.7s-6.7-2.7-17.7-2.3s-15.1,3.5-4.9,3.9
			S172.7,218.2,182.3,218z"/>
		<path class="st9" d="M223.8,166.4c-5.8,0.1-2.4,1.8-4.3,3.9s-2.2,5-11.2,9.2s-10.5,7.5-4.4,8s28.2,0,23.2,1.8s-2.2,5.1-7.4,6.8
			s6.8,0.8,1.4,5.1s-3.1,6.6,6.4,6.5s9.1,2.3,17.5-0.2s4.3-7.1,14.3-8.6s7.7-7.7-1-8.3s5.7-5.1-8.3-7.8s-2.6-5.1-2.7-7.4
			s-4.4-3.3-11.4-5.2S226.9,166.3,223.8,166.4z"/>
		<path class="st10" d="M211.2,279.5c-1.8,0,1,1.8-6,1.7c-3.9,0-20,0.2-15.2,0.8s22,0.8,27.9,1.5s-11.3,2.5-4.4,3.3
			s10.5,1.2,17.8,0.8s15-1.4,9.9-3.3s-7.8-3.4-1.8-3.8s21.7,1.8,29.5,0.2s-8.3-0.2-20.4-2.3s-21.9-3.1-26.5-1.6
			S241.9,279.4,211.2,279.5z"/>
		<path class="st10" d="M280.2,291.7c6-0.8,26.3,2.1,31.1-0.2S288.7,289,280.2,291.7z"/>
		<path class="st3" d="M152.1,282c7-0.8,7.1,3,19.9,3s6.3,1.8-6.1,2S141.6,283.3,152.1,282z"/>
		
			<linearGradient id="SVGID_8_" gradientUnits="userSpaceOnUse" x1="169.1838" y1="170.0445" x2="143.0638" y2="129.0946" gradientTransform="matrix(0.9997 -2.530457e-02 -2.530457e-02 -0.9997 -1.5385 425.2441)">
			<stop  offset="0" style="stop-color:#FFDB80"/>
			<stop  offset="1" style="stop-color:#FFEEB7"/>
		</linearGradient>
		<path class="st11" d="M141.2,265.6c2.4,0.1,3-0.2,8.4-1.1s19.8,2.2,18,3.2s-5.3,2.6-1.9,3.5s12,4.4-1,3.7s-1.4-3.5-16.1-4.3
			S122.6,264.6,141.2,265.6z"/>
		<path class="st12" d="M72.8,261.1c-7,1.6-11.8,11.1-11.4,7.1s-3.4-4.6-2-6.2S84,258.5,72.8,261.1z"/>
		<path class="st2" d="M360,287.9c23.2,1.2,24.3-4.2,24.3-4.2c-1-1.6-9.7-3.4-19.2-3.1c-17.3,0.6-4-2.7-12.1-3.4
			c-31.1-2.5-18.5,2.8-11.2,2.8C355.2,280.1,352.6,287.5,360,287.9z"/>
		<path class="st9" d="M304.3,207.9c-6.2,0.3-5.2-0.2-20.4,4s-16.2,4.1-9.2,0.9s8.2-5.9,17.1-7S314.7,207.3,304.3,207.9z"/>
		<path class="st9" d="M255.9,181.1c10.8,0.8,19.8,5.4,26.2,6.8s7.6,1.8-0.3-1.5s-5.8-3.3-10.8-5s-8.2-3.1-13.5-2.6
			S250.9,180.8,255.9,181.1z"/>
		<path class="st9" d="M384.5,251.3c-0.1,0-11.5-5-19.1-4.1c-8.2,1-10-0.9-22.8,2.6s-22.8,5.1-24.1,6.6c-1.4,1.5-48.3,6.2-24.9,6.4
			c13.8,0.1-38.6,13.9-16.8,10.8c4.4-0.6,49.9-14,62.8-16.6c11.3-1.4-11.5,7.5,6.9,6.6c21.5-1.1,17-5.3,37-7.7
			S400.1,252.2,384.5,251.3z"/>
		<path class="st9" d="M190,267.9c1.1,0.4,3.2,1,3.2,0.3c2.6-9.2,9.5-11.5,17.2-12.4c18.8-2.6,37-5.2,53.6-13.2
			c1.9-0.7,3.9-1.2,6-1.3c2.3-0.1,4.5,0.1,6.7,0.7c1.9,0,3.5-0.1,5-0.1c6-0.4,9.7-1.2,16.9-0.6c5.9,0.4,11.7,1.4,17.3,3
			c0,0-12.5-2.1-17-2.2s-14.2-0.2-19.8,2.6c-1.5,0.5-3,0.9-4.5,1c-1.6,0.2-3.3,0.3-5,0.3c-6.4,0.7-14.8,0.2-17.4,7.3
			c6.4,1.9,11.9-1,18.2,0.9c-18,6.8-37.8,0.3-56.6,3.6c-7,0.9-9,5.9-12.3,10.9c-3.4,4.3-11.8,5.9-18.8,5.4c-0.7,0-0.7-1.4-0.8-2.1
			c0.6-1.3,1.8-2.1,3.2-2.3C187.2,268.7,189.2,267.8,190,267.9z"/>
		<path class="st9" d="M328.3,218.6c-7.7,3.1-15.8,5-24,5.6c-11.3,0.9-10.6,1.3-1.8-1.4s10.6-3.2,12.9-5s-4-3.3,2.8-2.9
			S331.2,217.4,328.3,218.6z"/>
		<path class="st9" d="M244.4,213.9c7-1.2,9.1-5,16.1-5.5s6.5,0.3,0.2,0.6s1.9,5.5-3.4,8.8S222.4,217.8,244.4,213.9z"/>
		
			<linearGradient id="SVGID_9_" gradientUnits="userSpaceOnUse" x1="215.2784" y1="135.0823" x2="218.4284" y2="242.3423" gradientTransform="matrix(0.9997 -2.530457e-02 -2.530457e-02 -0.9997 -1.5385 425.2441)">
			<stop  offset="0" style="stop-color:#FFDB80"/>
			<stop  offset="1" style="stop-color:#FFEEB7"/>
		</linearGradient>
		<path class="st13" d="M209.2,189.9c7.9-0.8,12.4,0.6,12.5,1.3s-7.5-0.3-14.6,0S193.5,191.5,209.2,189.9z"/>
		
			<linearGradient id="SVGID_10_" gradientUnits="userSpaceOnUse" x1="336.7102" y1="135.2722" x2="339.8602" y2="242.5322" gradientTransform="matrix(0.9997 -2.530457e-02 -2.530457e-02 -0.9997 -1.5385 425.2441)">
			<stop  offset="0" style="stop-color:#FFDB80"/>
			<stop  offset="1" style="stop-color:#FFEEB7"/>
		</linearGradient>
		<path class="st14" d="M326.7,235.6c-0.5,1.7,1.2,3.3,4.5,4.5s7.8,2.5,4.7,0.8s-2.9-0.6-5-2.5S327.3,233.6,326.7,235.6z"/>
		<path class="st9" d="M205.5,205.7c0,0.5-0.4,0.9-0.8,0.9c0,0,0,0,0,0c-0.5,0-0.9-0.3-1-0.8c0-0.5,0.3-0.9,0.8-1
			S205.5,205.1,205.5,205.7C205.5,205.6,205.5,205.7,205.5,205.7z"/>
		<path class="st9" d="M275.9,220.2c0,1-0.8,1.7-1.8,1.7c-1,0-1.7-0.8-1.7-1.8c0-0.9,0.8-1.7,1.7-1.7
			C275.1,218.4,275.9,219.2,275.9,220.2C275.9,220.2,275.9,220.2,275.9,220.2z"/>
		<path class="st9" d="M273.5,227.6c0,0.8-1.7,1.5-3.8,1.6s-3.8-0.6-3.8-1.4s1.7-1.5,3.8-1.6S273.5,226.8,273.5,227.6z"/>
		<path class="st9" d="M278.5,231.1c0,0.6-0.5,1.1-1.1,1c-0.6,0-1.1-0.5-1-1.1c0-0.6,0.5-1,1-1C278,230,278.5,230.5,278.5,231.1
			C278.5,231.1,278.5,231.1,278.5,231.1z"/>
		<path class="st9" d="M298.6,253c0,0.6-1.3,1.2-3,1.3s-3-0.4-3-1.1s1.3-1.2,3-1.3S298.6,252.4,298.6,253z"/>
		<path class="st9" d="M287.3,254.9c0.1,0.7-0.4,1.3-1.1,1.3c-0.7,0.1-1.3-0.4-1.3-1.1c0-0.1,0-0.1,0-0.2c0-0.7,0.5-1.3,1.2-1.3
			C286.7,253.7,287.3,254.2,287.3,254.9C287.3,254.9,287.3,254.9,287.3,254.9z"/>
		<path class="st9" d="M306.5,249c0,0.4-0.3,0.7-0.7,0.7c-0.4,0-0.7-0.3-0.7-0.7c0-0.4,0.3-0.7,0.6-0.7
			C306.2,248.3,306.5,248.6,306.5,249C306.5,249,306.5,249,306.5,249z"/>
		<path class="st9" d="M311.7,235.5c0,0.6-0.4,1.1-1,1.1c-0.6,0-1-0.6-1-1.2c0-0.5,0.4-0.9,1-1C311.2,234.4,311.7,234.9,311.7,235.5
			z"/>
		<path class="st9" d="M301.6,235.7c0,0.9-0.7,1.5-1.6,1.5c-0.9,0-1.5-0.7-1.5-1.6c0-0.8,0.7-1.5,1.5-1.5
			C300.9,234.1,301.6,234.8,301.6,235.7z"/>
		<path class="st9" d="M276,204.1c0,0.3-0.2,0.6-0.5,0.6c-0.3,0-0.6-0.2-0.6-0.5c0-0.3,0.2-0.6,0.5-0.6
			C275.7,203.5,276,203.7,276,204.1C276,204.1,276,204.1,276,204.1z"/>
		<path class="st9" d="M243.9,199.4c0,0.4-0.3,0.7-0.7,0.6c-0.4,0-0.7-0.3-0.6-0.7c0-0.4,0.3-0.6,0.6-0.6
			C243.6,198.7,243.9,199,243.9,199.4z"/>
		<path class="st9" d="M241.4,205.6c0.1,0.3-0.1,0.6-0.4,0.6c-0.3,0.1-0.6-0.1-0.6-0.4c0-0.1,0-0.2,0-0.3c-0.1-0.3,0.1-0.6,0.4-0.6
			c0.3-0.1,0.6,0.1,0.6,0.4C241.4,205.4,241.4,205.5,241.4,205.6z"/>
		<path class="st9" d="M227.1,230.5c0,0.4-0.3,0.7-0.6,0.7c-0.4,0-0.6-0.3-0.6-0.6c0-0.4,0.2-0.7,0.6-0.7s0.7,0.2,0.7,0.6
			C227.1,230.5,227.1,230.5,227.1,230.5L227.1,230.5z"/>
		<path class="st9" d="M226.8,246.5c0,0.8-0.6,1.4-1.4,1.3s-1.4-0.6-1.3-1.4c0-0.7,0.6-1.3,1.3-1.3
			C226.1,245.1,226.7,245.7,226.8,246.5z"/>
		<path class="st9" d="M254,187.9c0.1,0.3-0.1,0.5-0.4,0.6c-0.3,0.1-0.5-0.1-0.6-0.4c0-0.1,0-0.1,0-0.2c-0.1-0.3,0.1-0.5,0.4-0.6
			c0.3-0.1,0.5,0.1,0.6,0.4C254,187.8,254,187.9,254,187.9z"/>
		<path class="st9" d="M245.9,184.5c0,0.6-1.2,1.1-2.8,1.1s-2.8-0.4-2.8-1s1.2-1.1,2.8-1.1S245.8,183.9,245.9,184.5z"/>
		<path class="st9" d="M213.6,196.2c0,0.6-1,1.2-2.2,1.2s-2.2-0.4-2.2-1.1s1-1.2,2.2-1.2S213.6,195.6,213.6,196.2z"/>
		<path class="st9" d="M231.3,173.1c0,0.5-0.7,0.9-1.5,0.9s-1.6-0.4-1.6-0.8s0.7-0.9,1.5-0.9S231.3,172.7,231.3,173.1z"/>
		<path class="st9" d="M220.3,180.1c0,0.5-0.3,0.9-0.8,0.9c0,0,0,0,0,0c-0.5,0-0.9-0.3-0.9-0.8c0-0.5,0.3-0.9,0.8-0.9
			C219.8,179.2,220.2,179.5,220.3,180.1C220.3,180,220.3,180.1,220.3,180.1z"/>
		<path class="st9" d="M187.9,245c0.1,0.3-0.1,0.6-0.4,0.6c-0.3,0.1-0.6-0.1-0.6-0.4c0-0.1,0-0.2,0-0.3c0-0.3,0.2-0.5,0.5-0.6
			C187.7,244.5,188,244.7,187.9,245z"/>
		<path class="st9" d="M192,241.1c0,0.7-0.6,1.2-1.2,1.2c-0.7,0-1.2-0.6-1.2-1.2c0-0.6,0.5-1.2,1.2-1.2
			C191.4,239.8,192,240.4,192,241.1z"/>
		<path class="st9" d="M184.4,243.6c0,0.5-1.1,1-2.5,1s-2.6-0.4-2.6-0.9s1.1-1,2.5-1S184.4,243,184.4,243.6z"/>
		<path class="st9" d="M194,246.9c0,0.3-0.2,0.6-0.5,0.6c0,0,0,0,0,0c-0.3,0-0.6-0.3-0.6-0.6c0-0.3,0.2-0.6,0.6-0.6
			C193.7,246.4,194,246.6,194,246.9C194,246.9,194,246.9,194,246.9L194,246.9z"/>
		<path class="st9" d="M176.3,205.9c0,0.5-0.4,1-0.9,1c-0.6,0-1-0.4-1-1c0-0.6,0.4-1,1-1C175.9,204.9,176.3,205.3,176.3,205.9z"/>
		<path class="st9" d="M173.6,209.5c0,0.4-0.3,0.7-0.7,0.8c-0.4,0-0.7-0.3-0.7-0.7c0,0,0,0,0,0c0-0.4,0.3-0.7,0.7-0.8
			C173.3,208.8,173.6,209.1,173.6,209.5L173.6,209.5z"/>
		<path class="st9" d="M184.7,212.8c0.1,0.5-0.3,0.9-0.8,0.9c-0.5,0.1-0.9-0.3-0.9-0.8c0-0.1,0-0.1,0-0.2c-0.1-0.5,0.3-0.9,0.8-0.9
			c0.5-0.1,0.9,0.3,0.9,0.8C184.7,212.6,184.7,212.7,184.7,212.8z"/>
		<path class="st9" d="M165.4,231.4c0,0.8-1.2,1.4-2.7,1.4s-2.7-0.5-2.7-1.3s1.2-1.4,2.7-1.4S165.4,230.6,165.4,231.4z"/>
		<path class="st9" d="M160.4,248.9c0,0.6-0.4,1-1,1s-1-0.4-1-1s0.4-1,1-1S160.4,248.4,160.4,248.9z"/>
		<path class="st9" d="M152.8,248.4c0,0.6-0.4,1-1,1c-0.6,0-1-0.4-1-1c0-0.6,0.4-1,0.9-1c0,0,0,0,0.1,0
			C152.3,247.4,152.8,247.8,152.8,248.4z"/>
		<path class="st9" d="M157.1,244.6c0,0.4-0.3,0.7-0.7,0.7s-0.7-0.3-0.7-0.7c0-0.4,0.3-0.7,0.7-0.7
			C156.8,243.9,157.1,244.2,157.1,244.6z"/>
		<path class="st9" d="M128,236.8c0,0.3-0.2,0.6-0.5,0.7c-0.3,0-0.6-0.2-0.7-0.5c0-0.1,0-0.1,0-0.2c0-0.3,0.2-0.6,0.5-0.7
			c0.3,0,0.6,0.2,0.7,0.5C128,236.7,128,236.7,128,236.8z"/>
		<path class="st9" d="M126.9,255.4c0,0.6-1.3,1.2-2.9,1.2s-3-0.4-3-1.1s1.3-1.2,2.9-1.2S126.9,254.8,126.9,255.4z"/>
		<path class="st9" d="M136.1,243.9c0,0.4-0.4,0.8-0.8,0.8s-0.8-0.4-0.8-0.8c0-0.4,0.3-0.8,0.8-0.8
			C135.7,243.1,136.1,243.5,136.1,243.9z"/>
		<path class="st9" d="M159.3,256.9c0,0.4-0.4,0.8-0.8,0.8c-0.4,0-0.8-0.4-0.8-0.8c0-0.4,0.3-0.8,0.8-0.8
			C158.9,256.1,159.3,256.5,159.3,256.9z"/>
		<path class="st9" d="M168,265.4c0,0.2-0.2,0.4-0.4,0.4c0,0,0,0,0,0c-0.2,0-0.4-0.2-0.4-0.4c0-0.2,0.1-0.4,0.4-0.4c0,0,0,0,0,0
			C167.8,265,168,265.2,168,265.4C168,265.4,168,265.4,168,265.4z"/>
		<path class="st9" d="M186.1,265.6c0,0.3-0.2,0.6-0.5,0.6c-0.3,0-0.6-0.2-0.6-0.5c0,0,0,0,0,0c0-0.3,0.2-0.6,0.5-0.6
			C185.8,265,186.1,265.3,186.1,265.6C186.1,265.6,186.1,265.6,186.1,265.6z"/>
		<path class="st9" d="M173.7,255c0,0.3-0.2,0.5-0.5,0.5c-0.3,0-0.5-0.2-0.5-0.5c0-0.3,0.2-0.5,0.5-0.5
			C173.5,254.5,173.7,254.7,173.7,255C173.7,255,173.7,255,173.7,255z"/>
		<path class="st9" d="M194.8,249.5c0,0.4-0.3,0.7-0.7,0.7s-0.7-0.3-0.7-0.7c0-0.4,0.3-0.7,0.7-0.7
			C194.4,248.8,194.8,249.1,194.8,249.5L194.8,249.5z"/>
		<path class="st9" d="M205,253.2c0,0.2-0.1,0.3-0.3,0.3c0,0,0,0,0,0c-0.2,0-0.3-0.1-0.3-0.3c0-0.2,0.1-0.3,0.3-0.3c0,0,0,0,0,0
			C204.9,252.9,205,253,205,253.2C205,253.2,205,253.2,205,253.2z"/>
		<path class="st9" d="M224.3,259.3c0,0.2-0.2,0.5-0.4,0.5c-0.2,0-0.5-0.2-0.5-0.4c0,0,0,0,0,0c0-0.3,0.2-0.5,0.4-0.5c0,0,0,0,0,0
			C224.1,258.8,224.3,259,224.3,259.3C224.3,259.2,224.3,259.3,224.3,259.3z"/>
		<path class="st9" d="M265.1,254.9c0,0.2-0.1,0.3-0.2,0.3c-0.2,0-0.3-0.1-0.3-0.2c0,0,0-0.1,0-0.1c0-0.2,0.1-0.3,0.3-0.3
			c0,0,0,0,0,0C264.9,254.6,265.1,254.7,265.1,254.9C265.1,254.9,265.1,254.9,265.1,254.9z"/>
		<path class="st9" d="M280.4,266.1c0,0.6-0.5,1.2-1.1,1.2c-0.6,0-1.2-0.4-1.2-1.1c0-0.6,0.4-1.2,1.1-1.2
			C279.8,264.9,280.4,265.4,280.4,266.1C280.4,266,280.4,266.1,280.4,266.1z"/>
		<path class="st9" d="M276.8,251c0,0.6-0.5,1-1.1,0.9c-0.6,0-1-0.5-0.9-1.1c0-0.5,0.4-0.9,0.9-0.9
			C276.3,249.9,276.8,250.4,276.8,251z"/>
		<path class="st9" d="M314.5,247.7c0,0.1-0.1,0.2-0.2,0.2c-0.1,0-0.2-0.1-0.2-0.2s0.1-0.2,0.2-0.2
			C314.4,247.5,314.5,247.6,314.5,247.7z"/>
		<path class="st9" d="M314.4,255c0.1,0.5-0.3,0.9-0.7,1c-0.5,0.1-0.9-0.3-1-0.7c0-0.1,0-0.1,0-0.2c-0.1-0.5,0.3-0.9,0.7-1
			c0.5-0.1,0.9,0.3,1,0.7C314.4,254.9,314.4,254.9,314.4,255z"/>
		<path class="st9" d="M329.3,247.5c0.2,0.5-0.1,1.1-0.6,1.3s-1.1-0.1-1.3-0.6c-0.1-0.2-0.1-0.4,0-0.6c0-0.5,0.4-1,0.9-1
			C328.9,246.6,329.3,247,329.3,247.5z"/>
		<path class="st9" d="M130.5,241.8c0,0.3-0.2,0.6-0.6,0.6c-0.3,0-0.6-0.3-0.6-0.6v0c0-0.3,0.2-0.6,0.6-0.6
			C130.3,241.2,130.5,241.4,130.5,241.8L130.5,241.8z"/>
		<path class="st9" d="M111.1,232.2c0,0.2-0.1,0.3-0.3,0.3c-0.1,0-0.3-0.1-0.3-0.3c0,0,0,0,0,0c0-0.2,0.1-0.3,0.3-0.3c0,0,0,0,0,0
			C110.9,232,111.1,232.1,111.1,232.2z"/>
		<path class="st9" d="M119.9,248.9c0,0.4-0.3,0.6-0.6,0.7c-0.3,0-0.6-0.3-0.6-0.6c0-0.4,0.3-0.6,0.6-0.7
			C119.6,248.2,119.9,248.5,119.9,248.9z"/>
		<path class="st9" d="M84.2,272c0.1,0.3-0.2,0.6-0.5,0.7c-0.3,0.1-0.6-0.2-0.7-0.5c0-0.1,0-0.1,0-0.2c0-0.3,0.2-0.6,0.6-0.6
			C83.9,271.4,84.2,271.7,84.2,272C84.2,272,84.2,272,84.2,272z"/>
		<path class="st9" d="M84,253.1c0,0.6-0.5,1.1-1.1,1c-0.6,0-1.1-0.5-1-1.1c0-0.6,0.5-1,1-1C83.5,252,84,252.5,84,253.1z"/>
		<path class="st9" d="M56,248.4c0,0.3-0.2,0.5-0.5,0.5c-0.3,0-0.5-0.2-0.5-0.5c0-0.3,0.2-0.5,0.5-0.5S56,248.1,56,248.4
			C56,248.4,56,248.4,56,248.4z"/>
		<path class="st9" d="M73.1,253.7c0,0.4-0.3,0.7-0.6,0.7c0,0,0,0,0,0c-0.3,0-0.6-0.3-0.6-0.6l0,0c0-0.3,0.3-0.6,0.6-0.6
			S73.1,253.4,73.1,253.7C73.1,253.7,73.1,253.7,73.1,253.7L73.1,253.7z"/>
		<path class="st9" d="M166.9,239c0.6-0.1,2.6-0.8,3.2-0.4s1.3,1.4-2.7,1.4C166.8,240,165.9,239.2,166.9,239z"/>
		<path class="st9" d="M170.9,260.7c1.4-0.8,3-1,4.5-0.4c2.4,1,0.6,1.2,0.6,1.2S171.5,261.8,170.9,260.7z"/>
		<path class="st9" d="M185.2,255.4c0,0,3.5,0,3.4-0.5S185.8,254.4,185.2,255.4z"/>
		<path class="st9" d="M96.1,252.6c1.3,0.3,2.6,0.3,3.8,0.1c2.3-0.3,3-0.4,2.8-1.1s-1.1-1.3-2.8-1.4c-1.1-0.2-2.3-0.1-3.4,0.4
			C96.2,250.9,95.1,252.1,96.1,252.6z"/>
		<path class="st9" d="M129.8,272.4c-0.4-0.5,2.1-1.5,3.7-1.3c1.5,0.4,3,1,4.4,1.7c-1.2,0.4-2.4,0.6-3.6,0.6
			C131.8,273.6,130.7,273.4,129.8,272.4z"/>
		<path class="st9" d="M130,262c1.3-0.8,3.4-0.1,2.6,0.5S128.1,263.2,130,262z"/>
		<path class="st9" d="M199.9,268.7c0,0.5-0.3,0.9-0.8,0.9c0,0,0,0,0,0c-0.5,0-0.9-0.4-0.9-0.8c0,0,0,0,0,0c0-0.5,0.3-0.9,0.8-0.9
			C199.5,267.8,199.9,268.2,199.9,268.7z"/>
		<path class="st9" d="M205.6,259.7c0,0.3-0.2,0.5-0.5,0.5c0,0,0,0,0,0c-0.3,0-0.5-0.2-0.5-0.5c0,0,0,0,0,0c0-0.3,0.2-0.5,0.5-0.5
			S205.6,259.5,205.6,259.7L205.6,259.7z"/>
		<path class="st9" d="M181.2,271c0,0.3-0.2,0.5-0.5,0.5s-0.5-0.2-0.5-0.5s0.2-0.5,0.5-0.5S181.2,270.7,181.2,271z"/>
		<path class="st9" d="M166.6,251.3c0,0.2-0.2,0.4-0.4,0.4s-0.4-0.2-0.4-0.4c0-0.2,0.2-0.4,0.4-0.4
			C166.4,251,166.5,251.1,166.6,251.3C166.5,251.3,166.6,251.3,166.6,251.3z"/>
		<path class="st9" d="M217.6,278.1c0,0.4-0.3,0.7-0.6,0.7c-0.4,0-0.7-0.3-0.7-0.6s0.3-0.7,0.6-0.7
			C217.2,277.4,217.5,277.6,217.6,278.1C217.6,278,217.6,278,217.6,278.1z"/>
		<path class="st9" d="M241.8,260.7c0,0.4-0.3,0.7-0.7,0.7s-0.7-0.3-0.7-0.7c0-0.4,0.3-0.7,0.7-0.7
			C241.5,260,241.8,260.3,241.8,260.7L241.8,260.7z"/>
		<path class="st9" d="M237.1,270.3c0,0.7-0.5,1.3-1.2,1.3c-0.7,0-1.3-0.5-1.3-1.3c0-0.7,0.5-1.3,1.3-1.3l0,0
			C236.6,269,237.1,269.6,237.1,270.3z"/>
		<path class="st9" d="M263.4,283.9c0,0.6-0.5,1.2-1.1,1.2c-0.6,0-1.2-0.5-1.2-1.1c0-0.6,0.5-1.2,1.1-1.2
			C262.9,282.7,263.4,283.2,263.4,283.9z"/>
		<path class="st9" d="M284.2,263.8c0,0.1-0.1,0.2-0.2,0.2c-0.1,0-0.2-0.1-0.2-0.2c0-0.1,0.1-0.2,0.2-0.2c0,0,0,0,0,0
			C284.1,263.6,284.2,263.7,284.2,263.8z"/>
		<path class="st9" d="M280.6,272.4c0,0.3-0.2,0.5-0.4,0.5c0,0,0,0,0,0c-0.3,0-0.5-0.2-0.5-0.5c0-0.3,0.2-0.5,0.5-0.5
			C280.4,271.9,280.6,272.1,280.6,272.4C280.6,272.4,280.6,272.4,280.6,272.4z"/>
		<path class="st9" d="M310.1,275.2c0,0.7-0.6,1.3-1.3,1.3c-0.7,0-1.3-0.6-1.3-1.3c0-0.7,0.6-1.3,1.3-1.3
			C309.5,273.9,310.1,274.4,310.1,275.2z"/>
		<path class="st9" d="M347.3,258.6c0,0.3-0.2,0.6-0.5,0.6c-0.3,0-0.6-0.3-0.6-0.6c0-0.3,0.3-0.6,0.6-0.6
			C347.1,258.1,347.3,258.3,347.3,258.6z"/>
		<path class="st9" d="M344.9,267.4c0,0.5-0.3,0.9-0.8,0.9c-0.5,0-0.9-0.4-0.9-0.9c-0.1-0.5,0.3-0.9,0.7-1c0.5-0.1,0.9,0.3,1,0.7
			C344.9,267.3,344.9,267.3,344.9,267.4L344.9,267.4z"/>
		<path class="st9" d="M291.6,231.9c0,0.6-0.5,1.1-1.1,1.1c-0.6,0-1.1-0.5-1.1-1.1c0-0.6,0.5-1.1,1.1-1.1
			C291.1,230.7,291.6,231.2,291.6,231.9C291.6,231.8,291.6,231.9,291.6,231.9z"/>
		<path class="st9" d="M352.3,237.4c0,0.7-0.6,1.3-1.4,1.3c-0.7,0-1.3-0.6-1.3-1.4c0-0.7,0.6-1.3,1.3-1.3
			C351.7,236.1,352.3,236.7,352.3,237.4z"/>
		<path class="st9" d="M371.4,254.8c0,0.5-0.4,1-0.9,1c0,0,0,0,0,0c-0.5,0-0.9-0.4-0.9-0.9c0,0,0,0,0,0c-0.1-0.5,0.3-1,0.8-1
			c0.5-0.1,1,0.3,1,0.8C371.4,254.7,371.4,254.7,371.4,254.8L371.4,254.8z"/>
		<path class="st9" d="M361.7,249.9c0.1,0.5-0.3,0.9-0.7,0.9c-0.5,0.1-0.9-0.3-0.9-0.7c0-0.1,0-0.1,0-0.2c-0.1-0.5,0.3-0.9,0.7-0.9
			c0.5-0.1,0.9,0.3,0.9,0.7C361.7,249.8,361.7,249.8,361.7,249.9z"/>
		<path class="st9" d="M298.7,256.3c0,0.3-0.2,0.5-0.5,0.5c-0.3,0-0.5-0.2-0.5-0.5c0,0,0,0,0,0c0-0.3,0.2-0.5,0.5-0.5
			C298.4,255.8,298.7,256,298.7,256.3C298.7,256.3,298.7,256.3,298.7,256.3z"/>
		<path class="st9" d="M121.4,267.1c0,0.4-0.3,0.7-0.6,0.7c-0.4,0-0.7-0.3-0.7-0.7c0,0,0,0,0,0c0-0.4,0.3-0.7,0.6-0.7
			C121.1,266.4,121.4,266.7,121.4,267.1z"/>
		<path class="st9" d="M112.4,240.3c0,0.4-0.3,0.8-0.7,0.8c0,0,0,0,0,0c-0.4,0-0.8-0.3-0.8-0.7c0-0.4,0.3-0.8,0.7-0.8
			S112.4,239.8,112.4,240.3C112.4,240.3,112.4,240.3,112.4,240.3z"/>
		<path class="st9" d="M154.1,274.1c0,0.5-0.4,0.8-0.9,0.8s-0.8-0.4-0.8-0.9c0-0.4,0.4-0.8,0.8-0.8
			C153.7,273.3,154.1,273.6,154.1,274.1z"/>
		<path class="st9" d="M166.6,218.6c0,0.5-0.4,0.9-1,0.9c-0.5,0-0.9-0.4-0.9-1c0-0.5,0.4-0.9,0.9-0.9
			C166.2,217.6,166.6,218.1,166.6,218.6z"/>
		<path class="st9" d="M142.5,257c0,0.3-0.2,0.6-0.5,0.6c-0.3,0-0.6-0.2-0.6-0.5c0,0,0-0.1,0-0.1c0-0.3,0.2-0.6,0.5-0.6
			C142.3,256.4,142.5,256.7,142.5,257C142.5,257,142.5,257,142.5,257z"/>
		<path class="st9" d="M137.8,253.8c0,0.1-0.1,0.3-0.3,0.3c0,0,0,0,0,0c-0.1,0-0.3-0.1-0.3-0.3c0-0.1,0.1-0.3,0.3-0.3
			C137.6,253.5,137.8,253.6,137.8,253.8L137.8,253.8z"/>
		<path class="st9" d="M212.6,267.5c0.1,0.3-0.1,0.6-0.4,0.6c-0.3,0.1-0.6-0.1-0.6-0.4c0-0.1,0-0.2,0-0.3c-0.1-0.3,0.1-0.6,0.4-0.6
			c0.3-0.1,0.6,0.1,0.6,0.4C212.6,267.3,212.6,267.4,212.6,267.5z"/>
		<path class="st9" d="M229,267.6c0,0.4-0.3,0.7-0.7,0.7c-0.4,0-0.7-0.3-0.7-0.7c0-0.4,0.3-0.7,0.7-0.7
			C228.7,266.9,229,267.2,229,267.6C229,267.6,229,267.6,229,267.6z"/>
		<path class="st9" d="M245.6,252.3c0,0.2-0.1,0.3-0.3,0.3c0,0,0,0,0,0c-0.1,0-0.3-0.1-0.3-0.3c0,0,0,0,0,0c0-0.1,0.1-0.3,0.2-0.3
			c0,0,0,0,0,0C245.5,252.1,245.6,252.2,245.6,252.3z"/>
		<path class="st9" d="M249.6,271.4c0,0.4-0.4,0.8-0.8,0.7c-0.4,0-0.8-0.4-0.7-0.8c0-0.4,0.3-0.7,0.7-0.7
			C249.2,270.7,249.6,271,249.6,271.4C249.6,271.4,249.6,271.4,249.6,271.4z"/>
		<path class="st9" d="M205.8,223.4c0,0.3-0.2,0.6-0.6,0.6c-0.3,0-0.6-0.2-0.6-0.6c0,0,0,0,0,0c0-0.3,0.3-0.6,0.6-0.6
			S205.8,223.1,205.8,223.4L205.8,223.4L205.8,223.4z"/>
		<path class="st9" d="M198,195.3c0,0.2-0.1,0.4-0.3,0.4c-0.2,0-0.4-0.1-0.4-0.3c0,0,0-0.1,0-0.1c0-0.2,0.1-0.4,0.3-0.4
			c0.2,0,0.4,0.1,0.4,0.3C198,195.2,198,195.2,198,195.3z"/>
		<path class="st9" d="M207.4,173.9c0,0.2-0.1,0.5-0.4,0.5c-0.2,0-0.5-0.1-0.5-0.4c0,0,0-0.1,0-0.1c0-0.3,0.2-0.5,0.4-0.5
			C207.2,173.4,207.4,173.6,207.4,173.9C207.4,173.9,207.4,173.9,207.4,173.9z"/>
		<path class="st9" d="M233.5,198.5c0,0.3-0.2,0.6-0.5,0.7c-0.3,0-0.6-0.2-0.7-0.5c0-0.1,0-0.1,0-0.2c0-0.3,0.2-0.6,0.6-0.6
			C233.3,197.9,233.5,198.1,233.5,198.5C233.5,198.5,233.5,198.5,233.5,198.5z"/>
		<path class="st9" d="M216.4,203.1c0,0.4-0.3,0.7-0.7,0.8c-0.4,0-0.8-0.3-0.8-0.7c0-0.4,0.3-0.8,0.7-0.8
			C216,202.3,216.3,202.6,216.4,203.1C216.4,203,216.4,203,216.4,203.1z"/>
		<path class="st9" d="M182.1,202.9c0,0.4-0.3,0.8-0.8,0.9c-0.5-0.1-0.8-0.5-0.7-0.9c0-0.4,0.3-0.7,0.7-0.7
			C181.7,202.1,182.1,202.5,182.1,202.9z"/>
		<path class="st9" d="M220.9,215.4c0,0.2-0.1,0.3-0.3,0.3c0,0,0,0,0,0c-0.1,0-0.3-0.1-0.3-0.3c0,0,0,0,0,0c0-0.2,0.1-0.3,0.3-0.3
			c0,0,0,0,0,0C220.8,215.1,220.9,215.2,220.9,215.4z"/>
		<path class="st9" d="M218.2,213.1c0,0.3-0.2,0.6-0.5,0.6c0,0,0,0,0,0c-0.3,0-0.6-0.2-0.6-0.5c0,0,0,0,0,0c0-0.3,0.2-0.6,0.5-0.6
			C217.9,212.6,218.2,212.8,218.2,213.1C218.2,213.1,218.2,213.1,218.2,213.1z"/>
		<path class="st9" d="M277.2,195.3c0,0.4-0.3,0.6-0.7,0.6c-0.4,0-0.6-0.3-0.6-0.7c0-0.3,0.3-0.6,0.6-0.6
			C276.9,194.6,277.2,194.9,277.2,195.3L277.2,195.3z"/>
		<path class="st9" d="M268.8,200.6c0,0.7-0.6,1.2-1.3,1.2c-0.7,0-1.2-0.6-1.2-1.3c0-0.7,0.6-1.2,1.2-1.2
			C268.2,199.4,268.8,199.9,268.8,200.6L268.8,200.6z"/>
		<path class="st9" d="M262.3,186c0,0.5-0.4,0.9-0.9,0.9c-0.5,0-0.9-0.4-0.9-0.9c0-0.5,0.4-0.9,0.9-0.9
			C261.9,185.1,262.3,185.5,262.3,186C262.3,186,262.3,186,262.3,186z"/>
		<path class="st9" d="M239,190.8c0,0.3-0.2,0.6-0.6,0.6c-0.3,0-0.6-0.3-0.6-0.6v0c0-0.3,0.2-0.6,0.6-0.6c0,0,0,0,0,0
			C238.7,190.2,239,190.4,239,190.8C239,190.7,239,190.8,239,190.8z"/>
		<path class="st9" d="M238.7,176.3c0,0.3-0.3,0.6-0.6,0.7c-0.3,0-0.6-0.3-0.6-0.6c0,0,0,0,0,0c0-0.3,0.3-0.6,0.6-0.7
			C238.4,175.7,238.7,176,238.7,176.3C238.7,176.3,238.7,176.3,238.7,176.3z"/>
		<path class="st9" d="M216.1,171.3c0,0.4-0.3,0.7-0.6,0.7c-0.4,0-0.7-0.3-0.7-0.6c0-0.4,0.3-0.7,0.6-0.7
			C215.7,170.6,216.1,170.9,216.1,171.3C216.1,171.3,216.1,171.3,216.1,171.3z"/>
		<path class="st9" d="M221.6,175c0,0.5-0.3,0.9-0.8,0.9c0,0,0,0,0,0c-0.5,0-0.9-0.3-1-0.8c0-0.5,0.3-0.9,0.8-1
			C221.2,174.1,221.6,174.5,221.6,175C221.6,175,221.6,175,221.6,175z"/>
		<path class="st9" d="M292.4,217.4c0,0.4-0.3,0.7-0.7,0.7c-0.4,0-0.7-0.3-0.7-0.7c0-0.4,0.3-0.7,0.7-0.7
			C292,216.7,292.4,217,292.4,217.4C292.4,217.4,292.4,217.4,292.4,217.4z"/>
		<path class="st9" d="M279.3,224.3c0.1,0.6-0.3,1.1-0.9,1.2s-1.1-0.3-1.2-0.9c0-0.1,0-0.1,0-0.2c-0.1-0.6,0.3-1.1,0.9-1.2
			s1.1,0.3,1.2,0.9C279.3,224.1,279.3,224.2,279.3,224.3z"/>
		<path class="st9" d="M256.3,222.1c0,0.5-0.4,0.9-0.9,0.9s-0.9-0.4-0.9-0.9c0-0.5,0.4-0.9,0.9-0.9
			C255.8,221.2,256.3,221.6,256.3,222.1C256.3,222.1,256.3,222.1,256.3,222.1z"/>
		<path class="st9" d="M95.6,243.9c3.2-0.1,6.7,1.4,4.1,1.7S91.5,244.1,95.6,243.9z"/>
		<path class="st9" d="M121,237.6c0.6-0.1,2.6,0.5,0.7,1.1S118.9,237.8,121,237.6z"/>
		<path class="st9" d="M109.1,248c-1,0-2.9,0.1-1.8-0.6s3.1-0.4,3.3,0.2S110.1,248,109.1,248z"/>
		<path class="st9" d="M111,261.5c2.1-0.1,4.6,0.5,2.2,1S108.4,261.6,111,261.5z"/>
		<path class="st9" d="M74.1,265.2c1.1-0.2,2.2,0.1,1,0.5S72.6,265.5,74.1,265.2z"/>
		<path class="st9" d="M90.5,264.1c1.5-0.1,3.4,0.5,1.6,1.1S86,264.3,90.5,264.1z"/>
		<path class="st9" d="M65.1,256.7c0.7-0.1,1.3,0.1,0.5,0.5S63.2,257.1,65.1,256.7z"/>
		<path class="st9" d="M106.2,280.4c1.4-0.1,3.4,0.9,1.7,1.4S104.5,280.5,106.2,280.4z"/>
		<path class="st9" d="M119.7,274.3c1-0.1,3.4,0.3,1.4,1.1S116.6,274.6,119.7,274.3z"/>
		<path class="st9" d="M148.1,260c1.6-0.8,4.2,0.3,1.8,0.9S146.9,260.6,148.1,260z"/>
		<path class="st9" d="M180.6,242.3c0.9-0.1,1.3,0.4,0.6,0.6S179.7,242.4,180.6,242.3z"/>
		<path class="st9" d="M210.5,242.4c1.3-0.2,3.5,0.3,0.9,0.8S209.2,242.6,210.5,242.4z"/>
		<path class="st9" d="M223.5,273.4c1.2-0.2,2.7,0.5,1.2,0.8S220.5,273.9,223.5,273.4z"/>
		<path class="st9" d="M239.9,248.8c0.3,0,1.1,0.3,0.4,0.5S239,248.9,239.9,248.8z"/>
		<path class="st9" d="M259.4,239.5c0.8-0.2,2,0.4,1,0.6S258.4,239.7,259.4,239.5z"/>
		<path class="st9" d="M264.8,262.5c1.3-0.3,3,0.5,1.7,1S263.3,262.9,264.8,262.5z"/>
		<path class="st9" d="M290.2,274.8c0.8,0,1.4,1.1,0.5,1.2S288.7,274.9,290.2,274.8z"/>
		<path class="st9" d="M305.6,262.6c2-0.5,3.4,0.8,1.8,1S302.2,263.4,305.6,262.6z"/>
		<path class="st9" d="M304.5,253.5c0.7,0,0.9,0.5,0.1,0.6S302.2,253.6,304.5,253.5z"/>
		<path class="st9" d="M374.9,272.8c2.5-0.4,4.4,0.7,2.1,1.3S368.4,273.9,374.9,272.8z"/>
		<path class="st9" d="M80.6,278.8c2.9-0.1,6.2,1.1,3.4,1.5S76.4,279,80.6,278.8z"/>
		<path class="st9" d="M253.2,290.3c3-1.1,6.6-0.2,3.4,0.3S252,290.8,253.2,290.3z"/>
		<path class="st9" d="M324.9,281.7c2.3-0.2,7.1,0.1,2.9,0.9S322.9,281.9,324.9,281.7z"/>
		<path class="st2" d="M-23.1,245.6c0,0,32.7-16.4,51.8-20.5c0,0,13.8,2.6,36.1,11.6s54.3-1.3,54.3-1.3s16.6-10.3,28.6-13.6
			c0,0,49.8,22.5,56.9,32.4s-12,9.1-19.2,8.8s-12.3-0.4-12.5,1.3s14.1,1.9,13.4,2.8s-25.7,1.5-32.3,0s-9.2-4.7-20.5-4.8
			c0,0,6,1,5.9,2.4s-7.1,3.1-19.4,3.4s-35.3-0.2-35.4,1.2s12.4,2,12.4,3.7s0.2,2.9-16.1,3.2s-23.6-2.5-36.3-2.3s-20.4-0.7-21.4-1.6
			s4.5-3.2,8.8-3.5s10.1,0.4,10.9-2.8s-39.9-7.3-52.4-11.6S-23.1,245.6-23.1,245.6z"/>
		<path class="st2" d="M194,283c0,0-25.1-9.8-37.1-10.6s-38.7,11.3-38.7,11.3s3.2,7.8,25.2,8.7S194,283,194,283z"/>
		<path class="st9" d="M28.7,225.1c0,0,0.4,13.5,11.9,21.7s38,11,38,11l-19.2-23.3C59.3,234.5,38.5,225.6,28.7,225.1z"/>
		<path class="st9" d="M147.7,221.7c0,0-1.9,1.9,3.7,7.2s9.8,7,14.4,13.6s13.2,11.2,23.8,11.6s16.7,5.2,16.7,5.2s3-4.9-12.3-13.6
			S159.6,226.2,147.7,221.7z"/>
		<path class="st9" d="M85.8,259.3c0,0,61.3-0.6,64.6-7.7s-20.7-9.4-22.9-9.5l-2-10.5L85.8,259.3z"/>
		<path class="st9" d="M23.1,272c0,0,1.3,2,11.6,2s9.6-0.4,17.8,0s13.4,2.3,25.5,2.5s16.7-0.8,18.1-1.5s1.3-1.2,0.8-2.2
			s-7.9-2.5-9.7-2.6s-7.3-1.8-8.7-3c0,0-2.3,4.9,2.4,6.5s-9.1,1.2-16.7,0.3c-9.1-1.1-18.2-1.4-27.3-0.9
			C26.5,273.8,23.1,272,23.1,272z"/>
		
			<linearGradient id="SVGID_11_" gradientUnits="userSpaceOnUse" x1="68.3987" y1="127.8397" x2="66.9187" y2="133.5097" gradientTransform="matrix(1 0 0 -1 0 402)">
			<stop  offset="0.32" style="stop-color:#F9CC95"/>
			<stop  offset="1" style="stop-color:#FFE7C0"/>
		</linearGradient>
		<path class="st15" d="M78.6,267.1c0,0-15,1.9-23.1,3.6c3.9,1.2,7.9,2,12,2.4C74.5,273.8,78.6,267.1,78.6,267.1z"/>
		
			<linearGradient id="SVGID_12_" gradientUnits="userSpaceOnUse" x1="11.0766" y1="150.1787" x2="1.5666" y2="168.2287" gradientTransform="matrix(1 0 0 -1 0 402)">
			<stop  offset="0.32" style="stop-color:#F9CC95"/>
			<stop  offset="1" style="stop-color:#FFE7C0"/>
		</linearGradient>
		<path class="st16" d="M27.9,225.2c-5.7,1.5-19.6,5-51,20.4c0,0,1.4,4.9,19.7,4.8s26.6-6.6,29.7-13.6S27.9,225.2,27.9,225.2z"/>
		
			<linearGradient id="SVGID_13_" gradientUnits="userSpaceOnUse" x1="142.6107" y1="112.6503" x2="136.7607" y2="125.8303" gradientTransform="matrix(1 0 0 -1 0 402)">
			<stop  offset="0.32" style="stop-color:#F9CC95"/>
			<stop  offset="1" style="stop-color:#FFE7C0"/>
		</linearGradient>
		<path class="st17" d="M118.1,283.8c0,0,3.9,3.4,20.5,3.5s19.7-7.9,19.8-11.3s-4.8-3.5-4.8-3.5S140.5,273.9,118.1,283.8z"/>
		<path class="st18" d="M16.7,239.8c-2.5-3.7-7.8,0.4-5.4,3.9S19,243.4,16.7,239.8z"/>
		<path class="st18" d="M33.1,249.1c-1.6-2.5-5.2,0.3-3.6,2.6S34.7,251.4,33.1,249.1z"/>
		<path class="st18" d="M64.4,261.1c-2.7-3.5-8.6,0.4-6,3.6S67,264.5,64.4,261.1z"/>
		<path class="st18" d="M75.4,263.7c-1.6-2.1-5.1,0.2-3.6,2.1S76.9,265.7,75.4,263.7z"/>
		<path class="st9" d="M147.6,242.1c-1.6-2.1-5.1,0.2-3.6,2.1S149.1,244.1,147.6,242.1z"/>
		<path class="st9" d="M160.4,247.3c-3.3-4.2-10.3,0.4-7.2,4.3S163.5,251.2,160.4,247.3z"/>
		<path class="st18" d="M149.8,255.9c-1.2-1.5-3.7,0.2-2.6,1.5S150.9,257.3,149.8,255.9z"/>
		<path class="st18" d="M107.7,259.8c-1.2-1.5-3.7,0.2-2.6,1.5S108.8,261.3,107.7,259.8z"/>
		<path class="st18" d="M79.6,263.8c-0.8-1-2.6,0.1-1.8,1.1S80.4,264.8,79.6,263.8z"/>
		<path class="st18" d="M14.9,248.4c-0.8-1.1-2.6,0.1-1.8,1.1S15.7,249.4,14.9,248.4z"/>
		<path class="st18" d="M147.6,282.8c-1-2.4-5-1.1-4,1.2S148.6,285.1,147.6,282.8z"/>
		<path class="st18" d="M143.6,286.4c-0.5-1.2-2.6-0.6-2,0.6S144.1,287.5,143.6,286.4z"/>
		
			<linearGradient id="SVGID_14_" gradientUnits="userSpaceOnUse" x1="148.1124" y1="180.4833" x2="180.3224" y2="156.9333" gradientTransform="matrix(1 0 0 -1 0 402)">
			<stop  offset="0.23" style="stop-color:#C49A72"/>
			<stop  offset="0.92" style="stop-color:#B7906E"/>
		</linearGradient>
		<path class="st19" d="M147.7,221.7c0,0-1.4,2.4,2.3,5.8s10,8,12.6,11.1s5.4,9.4,15.1,13.1s13.1,1.7,20.6,3.8
			c7.5,2.1,7.5,3.8,7.5,3.8s0.9-0.4,0.5-2.3s-4.6-6.1-4.6-6.1s-0.1,1.6-5.1,1s-14.6-0.4-21.9-6.9s-16.3-16.5-20.3-18.9
			s-4.4-3.2-4.4-3.2L147.7,221.7z"/>
		
			<linearGradient id="SVGID_15_" gradientUnits="userSpaceOnUse" x1="27.4096" y1="175.0231" x2="42.1196" y2="164.2731" gradientTransform="matrix(1 0 0 -1 0 402)">
			<stop  offset="0.23" style="stop-color:#C49A72"/>
			<stop  offset="0.92" style="stop-color:#B7906E"/>
		</linearGradient>
		<path class="st20" d="M28.7,225.1c0,0,0.7,10.5,7.5,17.8s12.8,8.1,12.8,8.1l-2.6-13.8l-1.8-7.8c0,0,1.2,11.5-2.1,12.1
			s-10-5.5-11.1-16.2L28.7,225.1z"/>
		<path class="st21" d="M125.5,231.6l-2.9,17.2c0,0-4.9,9.1-32.6,10.5c0,0,28.4-1.4,38.6-4c16.2-4.1,14.5-5.5,14-7.3
			s-16.4-4.5-16.4-4.5L125.5,231.6z"/>
		
			<linearGradient id="SVGID_16_" gradientUnits="userSpaceOnUse" x1="44.2237" y1="152.6133" x2="24.7037" y2="141.8733" gradientTransform="matrix(1 0 0 -1 0 402)">
			<stop  offset="0.32" style="stop-color:#F9CC95"/>
			<stop  offset="1" style="stop-color:#FFE7C0"/>
		</linearGradient>
		<path class="st22" d="M12.4,258.8c0,0,23.8,3.1,28.2,5.1s2.7,4.3,1.7,4.3s-15.1-0.2-18.6,3.4c0,0,2.4,2.3,15.9,0.7
			s14.2-3,14.4-6.1s-0.6-7.2-23.7-9s-8.5,0-39.3-2.8C-9.1,254.3-7.6,255.7,12.4,258.8z"/>
		<path class="st23" d="M44.5,229.4l4.5,21.5c0,0-18.6-5.9-20.3-25.8c0,0,3.1,12,9.5,17.3s8.5,4.8,8.5,2.7S44.5,229.4,44.5,229.4z"
			/>
		<path class="st23" d="M147.7,221.7c0,0-1.4,1.2,1.1,4.9s10.9,8.8,13.4,11.6s4,8.9,14.1,13.4s14.1,1.8,21.3,3.8s8.3,4,8.3,4
			s1.5-0.3,0.2-3.1c-1-2-2.4-3.7-4.1-5.1c0,0,2.7,2.5,2.7,4.2c0,1.6-4-1.2-11.8-1.8s-14.1-0.9-19.6-4.6s-7-9.1-10.1-12
			s-11.4-7.4-13.7-10.2S147.1,222.8,147.7,221.7z"/>
		
			<linearGradient id="SVGID_17_" gradientUnits="userSpaceOnUse" x1="69.7335" y1="135.5404" x2="73.5335" y2="125.0604" gradientTransform="matrix(1 0 0 -1 0 402)">
			<stop  offset="0.23" style="stop-color:#C49A72"/>
			<stop  offset="0.92" style="stop-color:#B7906E"/>
		</linearGradient>
		<path class="st24" d="M78.6,267.1c-0.9,1.3-1,3-0.2,4.4c0.7,1.4,1.9,2.4,3.5,2.7c0,0-1.9,1.2-12.1,0.2s-25.1-1.4-21.9-1.6
			c0.4,0,16.7,1.8,26.6,2.8c6.3,0.7,12.7,0.6,19-0.3c1.4-0.1,2.7-0.9,3.5-2c0,0-7.8,0.6-13.8-1.1S78.6,267.1,78.6,267.1z"/>
		<path class="st23" d="M78.6,267.1c-0.8,1.2-1,2.7-0.3,4.1c0.7,1.5,2,2.6,3.6,3c0,0-1.1,0.6-4.8,0.5s-15-1-15-1s12.1,1.4,17.6,1.5
			c3.1,0.1,6.3-0.1,9.4-0.6c0,0-5.3-0.3-8.5-2.4S78.1,267.8,78.6,267.1z"/>
		<path class="st25" d="M31.9,161.4l17,89.4c0,0,11.5,9.1,38.6,8.4s35.1-10.5,35.1-10.5l14.5-87.4L31.9,161.4z"/>
		<path class="st25" d="M27.9,155.5l3.4,15.5c0,0,11.9,6.2,53.2,6.8s53.3-5.5,53.3-5.5l2.6-17L27.9,155.5z"/>
		<path class="st26" d="M86.3,144.8h-0.9c-41.7,0.4-58.8,5.6-57.6,10.8c2.4,11,51.8,10.6,58.2,10.5c6,0.1,52,0.5,54.3-10.5
			C141.3,150.4,125,145.2,86.3,144.8z"/>
		<path class="st27" d="M33.9,172c0,0,6.3,2.5,28.7,4.8s44.5,0.7,55.4-0.3c5.8-0.5,11.6-1.6,17.2-3.2l-12.6,75.5
			c0,0-5.7,9.4-35.1,10.4c0,0,19.4-0.1,20.4-14.9s3.4-56.8,3-57.5s-19.9,0.4-45-1.9s-30.7-6-30.7-6L33.9,172z"/>
		<path class="st28" d="M44.5,181.9c0,0,9.8,69.8,10.2,71s10,4.1,11.3-8.9s-1.4-59.2-1.4-59.2S49.2,183,44.5,181.9z"/>
		<path class="st29" d="M102.7,177.6c0,0,22.6-0.8,35.2-5.4l2.6-17c0,0,0.1,3.8-9.7,6.8s-22.7,3.4-22.7,3.4s8.4-0.2,12.9-0.4
			s9.8,0.3,9.3,5S107.8,177.7,102.7,177.6z"/>
		<path class="st28" d="M27.7,155.5l3.6,15.5c6.5,2,13.2,3.5,20,4.4c10.5,1.4,13.2-4.7,12.9-7.3c0-1.4-1.1-2.6-2.5-2.7
			c-6-0.1-11.9-0.7-17.7-1.9C32.1,161.1,29.4,158.4,27.7,155.5z"/>
		<path class="st30" d="M85.8,179.6c0,0-1.4-0.5-2.2-3.1s-1.5-11.3-1.5-11.3s2.8-1.3,8.6-1.3s8.2,1.7,8.2,1.7L85.8,179.6z"/>
		<path class="st27" d="M83.2,165.5c0,0,0.3,9.9,1.5,12.8s10.3,4.1,12.1,0.3c1.3-2.7,1.9-13.1,1.9-13.1
			C93.7,164.3,88.3,164.3,83.2,165.5z"/>
		<path class="st31" d="M90.9,165.8c-4.1,0-5.5,3.1-5.6,5.9s0.6,7.9,5.3,7.9c4.9,0,6.3-3.1,6.3-6.1S96.4,165.8,90.9,165.8z"/>
		<path class="st32" d="M85.8,179.6c0,0,30.5,43.6,34.3,48.1s5.3,4.7,5.3,4.7l0.7-5.5l-33.5-47.2C92.5,179.6,89.7,182.2,85.8,179.6z
			"/>
		<path class="st33" d="M88.2,167.9c-1.1,1-2.2,3.7-0.5,8.1c0.7,1.9,38.5,51.9,40.8,54.3s5.2,0.8,6.1-2.6s0.5-5.4-0.1-6.8
			s-34.1-47.2-36.6-50.1S91.1,165.4,88.2,167.9z"/>
		<path class="st34" d="M91.4,166.9c0,0-3,0-4,2s-1.2,4.6,0.8,8.1s35.1,46.3,37.5,50s3.6,4.4,5.1,4.4s3.1-0.8,3.9-3.4
			c0.6-2.3,0.5-4.8-0.3-7.1c0,0,1.5,5.1-1.8,5.4c-4.4,0.4-40.1-50.3-42.3-54.4S91.4,166.9,91.4,166.9z"/>
		<path class="st35" d="M92.4,167.4c-2.1,0.6,38.5,55.6,40.7,56.7s1.7-2,0.8-3s-37.1-51.2-38.4-52.5
			C94.6,167.8,93.5,167.4,92.4,167.4z"/>
		<path class="st36" d="M94.2,132.8c0,0,4.2-4.4,9.1-9.3s8.6-5.4,9.3-6s20.4-28.4,22.3-29.6s10.6,1.3,9.4,6.4s-20.7,26.8-20.7,26.8
			s4.6,4.1,1.7,13.1s-5.9,11.7-5.9,11.7s-5,4.6-13,0.9S94.2,132.8,94.2,132.8z"/>
		<path class="st37" d="M98.4,133.9c0,0,6.5-8.4,10.9-10.7s8.4-0.8,9.4,5.3c0.9,6-8.7,16.1-8.7,16.1L98.4,133.9z"/>
		<path class="st37" d="M140.8,88.8c0,0,2.6,1.5,1.6,4.1s-19,25.5-21.7,25.9c-2.1,0.2-4.1,0-6.2-0.4c0,0,5.5,2.3,7.4,5.7
			s0,9.6-4,16.1s-5.7,8-5.7,8c2.6,0.3,5.1-0.5,7-2.3c3.3-3.1,4.8-8.6,6.1-12.2s1.6-9.7-1.8-12.6c0,0,5.1-5.3,10.9-12.7
			s8.8-10.9,9.9-13.3S143.7,90.3,140.8,88.8z"/>
		<path class="st38" d="M98.4,133.9c2.7-3.6,5.8-7,9.2-10.1c4.5-3.7,9.8-2,11,2.1c0.7,2.5,0.4,5.2-0.8,7.5c0,0,1.4-5.3-1.5-7.4
			s-8.3,2.4-11.3,5.8c-1.4,1.5-2.7,3.1-3.8,4.9L98.4,133.9z"/>
		<path class="st39" d="M116.3,115.8c-0.1-0.7,14.9-22,17.4-24.9s4.3-2.8,5.9-1.5s-1.2,5-6.1,11.2s-10.9,13.8-13.7,15.2
			S116.3,115.8,116.3,115.8z"/>
		<path class="st39" d="M99.2,128.6c0,0,6.2-7.4,10.5-9s10.5,0.4,12.1,5.4s-2.5,10.6-2.5,10.6s2.9-6,1.8-10.3s-7.4-6-11-4.6
			s-9.3,8.2-9.9,8.4S99.2,128.6,99.2,128.6z"/>
		<path class="st2" d="M86.3,147.1h-0.9c-37.9,0.3-53.8,4.2-52.8,8c2.2,8.1,47.3,7.9,53.4,7.8c5.7,0.1,47.7,0.4,49.8-7.8
			C136.7,151.2,121.7,147.4,86.3,147.1z"/>
		<path class="st2" d="M37.7,154.9c0,0,18.5-13.6,29.5-20.6c7-4.3,14.7-7.5,22.7-9.5c0,0,10,4.5,18.4,17.2c0,0,4.3-2.5,13-1.3
			c0,0,2.3,0.9,4.6,8.1c2.3,7.3,5.5,8.6,5.5,8.6s-11.1,4-47.1,4S37.7,154.9,37.7,154.9z"/>
		<path class="st9" d="M89.8,124.9c0,0,10.9,19.2,22,25.6c0,0-1.8-6.8-1.7-7.4s4.5-3.2,11.1-2.4c-4.4-1-8.9-0.5-13,1.3
			c0,0-2.2-4.2-8-9.9S89.8,124.9,89.8,124.9z"/>
		<path class="st9" d="M131.3,157.5c0,0-1.9-0.3-6.2-5.4c-2.6-3.2-4-7.2-3.9-11.3C121.2,140.8,131.2,149.7,131.3,157.5z"/>
		
			<linearGradient id="SVGID_18_" gradientUnits="userSpaceOnUse" x1="73.2478" y1="244.0288" x2="62.5978" y2="264.2388" gradientTransform="matrix(1 0 0 -1 0 402)">
			<stop  offset="0.32" style="stop-color:#F9CC95"/>
			<stop  offset="1" style="stop-color:#FFE7C0"/>
		</linearGradient>
		<path class="st40" d="M89.8,124.9c0,0-9.3,1-25.6,11c-9.4,5.6-18.2,12-26.5,19.1c0,0,9.4,3.4,32.6-0.8S96.3,136.7,89.8,124.9z"/>
		<path class="st18" d="M70.4,141.8c-2.3-2.9-7.2,0.3-5,3C67.6,147.5,72.5,144.6,70.4,141.8z"/>
		<path class="st18" d="M73.3,147.3c-1.2-1.5-3.8,0.2-2.7,1.6S74.4,148.8,73.3,147.3z"/>
		<path class="st9" d="M97,149.9c-2-2.6-6.4,0.3-4.4,2.6S99,152.3,97,149.9z"/>
		<path class="st9" d="M98.6,153.4c-0.7-0.9-2.2,0.1-1.5,0.9S99.2,154.2,98.6,153.4z"/>
		<path class="st18" d="M86.7,129.6c-0.7-0.9-2.1,0.1-1.5,0.9S87.4,130.4,86.7,129.6z"/>
		<path class="st18" d="M90.2,131.3c-1.2-1.5-3.8,0.1-2.6,1.6S91.3,132.7,90.2,131.3z"/>
		
			<linearGradient id="SVGID_19_" gradientUnits="userSpaceOnUse" x1="122.0604" y1="246.3402" x2="113.8004" y2="262.0002" gradientTransform="matrix(1 0 0 -1 0 402)">
			<stop  offset="0.32" style="stop-color:#F9CC95"/>
			<stop  offset="1" style="stop-color:#FFE7C0"/>
		</linearGradient>
		<path class="st41" d="M121.2,140.8c-2.5-0.3-5-0.1-7.5,0.6c-3.9,1.2-3.6,1.8-3.6,1.8s0.7,7.1,4.8,10.6s10.1,3,11.1,2.4
			s-0.4-2.2-2.4-6C122.1,147.3,121.3,144.1,121.2,140.8z"/>
		
			<linearGradient id="SVGID_20_" gradientUnits="userSpaceOnUse" x1="88.8134" y1="275.5047" x2="104.7034" y2="263.8947" gradientTransform="matrix(1 0 0 -1 0 402)">
			<stop  offset="0.23" style="stop-color:#C49A72"/>
			<stop  offset="0.92" style="stop-color:#B7906E"/>
		</linearGradient>
		<path class="st42" d="M89.8,124.9c0,0,2.4,5.7,9.7,15.8s12.9,11,12.9,11s-2.3-6.5-2.3-8.6s10.4-2.6,10.4-2.6
			c-4.2-0.6-8.6-0.3-12.7,1c-0.8-1.4-1.7-2.7-2.6-3.9c0,0,3.6,6,1.7,7s-11.9-12.3-13.3-15.2s-1.6-3.3-1.6-3.3L89.8,124.9z"/>
		<path class="st23" d="M97,136.9c0,0,4.6,7.4,8.7,10.9s6.8,4.1,6.8,4.1s-2.7-7.2-2.3-8.6s6.3-2.2,6.3-2.2s-5.6,0.2-6.8,0.8
			s-0.2,4.8-0.2,4.8s0.2,3.3-2,2S97,136.9,97,136.9z"/>
		<path class="st9" d="M118.2,154.1c-0.9-1.1-2.8,0.1-2,1.2S119.1,155.2,118.2,154.1z"/>
		<path class="st9" d="M124.6,158.3c-0.5-0.7-1.7,0.1-1.2,0.7S125.1,158.9,124.6,158.3z"/>
		
			<linearGradient id="SVGID_21_" gradientUnits="userSpaceOnUse" x1="121.2" y1="252.77" x2="131.3217" y2="252.77" gradientTransform="matrix(1 0 0 -1 0 402)">
			<stop  offset="0.23" style="stop-color:#C49A72"/>
			<stop  offset="0.92" style="stop-color:#B7906E"/>
		</linearGradient>
		<path class="st43" d="M121.2,140.8c0.1,3.7,1.2,7.3,3.2,10.4c1.7,2.7,4.1,5,6.9,6.5c0-1.8-0.3-3.5-0.9-5.2c-1-2.7-4.3-6.4-4.3-6.4
			s2.5,5.2,1.8,5.7s-5.3-9.7-5.3-9.7L121.2,140.8z"/>
		<path class="st23" d="M121.6,144.6c0.7,2.6,1.8,5.1,3.3,7.3c2.3,3.1,5,5.2,6.4,5.8c0-1.8-0.3-3.5-0.9-5.2c0,0,0.9,2.9,0.2,3.4
			s-4.3-2.4-6.2-5.3C123.3,148.7,122.3,146.7,121.6,144.6z"/>
	</g>
</g>
</svg>
