<svg xmlns="http://www.w3.org/2000/svg" xmlns:xlink="http://www.w3.org/1999/xlink" viewBox="0 0 300 350"><defs><style>.cls-1,.cls-4{fill:#cbfdff;}.cls-1,.cls-51{stroke:#2ca0ce;stroke-width:3px;}.cls-1,.cls-25,.cls-29,.cls-33,.cls-51{stroke-miterlimit:10;}.cls-14,.cls-15,.cls-19,.cls-2,.cls-20,.cls-24,.cls-31{fill:#fff;}.cls-3{isolation:isolate;}.cls-5{clip-path:url(#clip-path);}.cls-6{fill:#5f5f5f;}.cls-7{fill:#06cebf;}.cls-8{fill:#193347;}.cls-9{fill:#b3b3b3;}.cls-10{fill:#8f8f8f;}.cls-11{opacity:0.07;}.cls-12{opacity:0.1;}.cls-13{fill:#0c8e81;}.cls-14{opacity:0.22;}.cls-15{opacity:0.38;}.cls-16{opacity:0.24;}.cls-17{fill:#484848;}.cls-18{fill:#303030;}.cls-19{opacity:0.2;}.cls-20{opacity:0.3;}.cls-21{fill:#4d4d4d;}.cls-22{fill:#cfe5e3;}.cls-23{fill:#3b7c96;}.cls-24{opacity:0.4;}.cls-25,.cls-29,.cls-51{fill:none;}.cls-25{stroke:#5f5f5f;}.cls-26{fill:#204156;}.cls-27{fill:#8a8d9e;}.cls-28{opacity:0.54;}.cls-29{stroke:#484e6b;}.cls-30{fill:#f8f9ff;opacity:0.46;}.cls-31{opacity:0.39;}.cls-32{fill:#ffc261;}.cls-33{fill:#fff200;stroke:#f3ffcc;}.cls-34{fill:#2c3d4b;}.cls-35{fill:#787d86;}.cls-36{fill:#2b4653;}.cls-37{fill:#adbabf;}.cls-38{fill:#616772;}.cls-39,.cls-49{fill:#5f7983;}.cls-40{fill:#babcca;}.cls-41,.cls-50{fill:#d95983;}.cls-42{fill:#4f5c68;}.cls-42,.cls-43{opacity:0.66;}.cls-42,.cls-45{mix-blend-mode:screen;}.cls-43{fill:#ebeced;mix-blend-mode:multiply;}.cls-44{fill:#44626e;}.cls-45{fill:#9d9fa7;}.cls-46{fill:#e9e9eb;}.cls-47{fill:#e0e2e4;}.cls-48{fill:#d0d1db;}.cls-49,.cls-50{opacity:0.63;}.cls-52{clip-path:url(#clip-path-2);}</style><clipPath id="clip-path"><rect class="cls-1" x="12.5" y="10" width="275" height="330" rx="25"/></clipPath><clipPath id="clip-path-2"><circle class="cls-2" cx="800" cy="570" r="196.51"/></clipPath></defs><g class="cls-3"><g id="Layer_1" data-name="Layer 1"><rect class="cls-4" x="12.5" y="10" width="275" height="330" rx="25"/><g class="cls-5"><path class="cls-2" d="M186,172.64a1.5,1.5,0,0,0,0-3,1.5,1.5,0,0,0,0,3Z"/><path class="cls-6" d="M124.62,192.25q-3.78-.92-7.58-1.78v-.28c2.77.64,5.53,1.29,8.3,2Z"/><path class="cls-7" d="M114.87,196.84v-.23a.49.49,0,0,0,0-.12l.18-.25a4.66,4.66,0,0,1,.2-1,3.36,3.36,0,0,1,.34-.79,2.4,2.4,0,0,1,.47-.56,1.12,1.12,0,0,1,.55-.26l.15,0v-.29q17.08-2.5,34.27-4.09v.31h.18a1.29,1.29,0,0,1,.67.15,1.7,1.7,0,0,1,.57.51,2.9,2.9,0,0,1,.45.84,5.59,5.59,0,0,1,.28,1.14l.19,0s0,.09,0,.13v.12a.62.62,0,0,1,0,.13v.13q-.17,47-.36,94l-.19,0V287a4.84,4.84,0,0,1-.15,1.24,3.72,3.72,0,0,1-.4,1,2,2,0,0,1-.59.62,1.1,1.1,0,0,1-.72.17l-.18,0v.31q-16-2.51-32.06-4.14v-.28l-.15,0a1.14,1.14,0,0,1-.61-.32,2.44,2.44,0,0,1-.51-.7,3.9,3.9,0,0,1-.35-1,5.51,5.51,0,0,1-.15-1.17v-.28l-.15,0q-1-42.72-1.94-85.45Z"/><path class="cls-8" d="M173.7,199.44s0,.07,0,.11v.32q-.72,40.32-1.45,80.62-8.64,2.72-17.2,5.67.27-46.38.5-92.77v-.5Q164.67,196,173.7,199.44Z"/><path class="cls-9" d="M170.78,193.3a3.76,3.76,0,0,1,1.17.8,5.2,5.2,0,0,1,1,1.3,7.51,7.51,0,0,1,.66,1.71,9.81,9.81,0,0,1,.31,2v.3q-9-3.41-18.13-6.55l0-.35a11.75,11.75,0,0,0-.36-2.31,8.71,8.71,0,0,0-.76-1.94,5.91,5.91,0,0,0-1.06-1.44,3.69,3.69,0,0,0-1.31-.85Q161.55,189.52,170.78,193.3Z"/><path class="cls-10" d="M155.75,192.88q9.1,3.15,18.13,6.55h-.18q-9-3.41-18.14-6.55Z"/><path class="cls-9" d="M153.3,292.68a6.73,6.73,0,0,0,1-1.57A9.5,9.5,0,0,0,155,289a12.39,12.39,0,0,0,.25-2.5v-.32q8.55-3,17.18-5.67v.27a11.32,11.32,0,0,1-.26,2.18,8.28,8.28,0,0,1-.64,1.82,5.15,5.15,0,0,1-1,1.35,3.15,3.15,0,0,1-1.17.79q-8.73,3.21-17.37,6.67A3.57,3.57,0,0,0,153.3,292.68Z"/><path class="cls-11" d="M156.33,291.42a6.25,6.25,0,0,0,1-1.53,9.31,9.31,0,0,0,.68-2.05,11.89,11.89,0,0,0,.25-2.45v-.3c5.7-1.93,8.39-2.65,14.14-4.41v.26a10.79,10.79,0,0,1-.26,2.12,7.46,7.46,0,0,1-.64,1.78,5.37,5.37,0,0,1-.94,1.32,3.27,3.27,0,0,1-1.17.76c-5.83,2.09-8.58,3.14-14.34,5.39A3.63,3.63,0,0,0,156.33,291.42Z"/><path class="cls-12" d="M117.14,281.58q-.92-41.91-1.88-83.81v-.22a.49.49,0,0,1,0-.12v-.11l-.38.05,0-.76s.59,0,.59,0v-.23a.41.41,0,0,1,0-.11l.17-.25a5.24,5.24,0,0,1,.2-1,3.36,3.36,0,0,1,.34-.79,2,2,0,0,1,.46-.56,1.26,1.26,0,0,1,.47-.25v.77q16.74-2.44,33.59-4V189.1l.37,0v.32l.18,0a1.28,1.28,0,0,1,.66.15,1.77,1.77,0,0,1,.56.51,3.31,3.31,0,0,1,.44.84,5,5,0,0,1,.28,1.14h.19a.49.49,0,0,0,0,.12v.13s0,.08,0,.12v.7l-.4,0a.62.62,0,0,1,0,.13s0,.08,0,.12v.25q-.15,46.11-.33,92.21l.35.05v.61l-.48-.07q.18-46.09.33-92.21v-.25s0-.08,0-.12a.49.49,0,0,0,0-.12h-.18l0-.23a4.78,4.78,0,0,0-.25-1,3,3,0,0,0-.43-.75,1.61,1.61,0,0,0-.55-.47,1.1,1.1,0,0,0-.64-.14h-.18v-.31h0q-16.58,1.58-33.06,4h0v.28l-.16,0a1.14,1.14,0,0,0-.53.26,2.2,2.2,0,0,0-.44.54,3.47,3.47,0,0,0-.34.78,5,5,0,0,0-.19.94l0,.22-.15,0s0,.08,0,.12v.34q.77,42.29,1.52,84.58l-.51-.86,0-.54Z"/><path class="cls-13" d="M145.83,223.51a13.9,13.9,0,0,1-4.35,3.62,13.13,13.13,0,0,1-5.62,1.51,13.65,13.65,0,0,1-5.88-1.08,15.12,15.12,0,0,1-5-3.45,17.15,17.15,0,0,1-3.47-5.3,18.38,18.38,0,0,1-1.38-6.59,18,18,0,0,1,1.07-6.55,16.22,16.22,0,0,1,3.14-5.24,13.89,13.89,0,0,1,4.64-3.38,12.79,12.79,0,0,1,5.62-1.07,13.43,13.43,0,0,1,5.56,1.47,15.51,15.51,0,0,1,4.56,3.53,17.75,17.75,0,0,1,3.18,5.07,18.3,18.3,0,0,1,1.39,6.14,17.36,17.36,0,0,1-.75,6.17A15.62,15.62,0,0,1,145.83,223.51Z"/><path class="cls-13" d="M145.08,273.54a13.64,13.64,0,0,1-4.23,3.52,12.81,12.81,0,0,1-5.46,1.46,13.12,13.12,0,0,1-5.7-1,14.8,14.8,0,0,1-4.84-3.34,16.7,16.7,0,0,1-3.37-5.16,17.74,17.74,0,0,1-1.33-6.39,17.17,17.17,0,0,1,1-6.36,15.59,15.59,0,0,1,3-5.09,13.52,13.52,0,0,1,4.51-3.28,12.34,12.34,0,0,1,5.45-1,13.16,13.16,0,0,1,5.4,1.42,15.4,15.4,0,0,1,4.43,3.43,17.34,17.34,0,0,1,3.09,4.93,18,18,0,0,1,1.35,6,17,17,0,0,1-.73,6A15.37,15.37,0,0,1,145.08,273.54Z"/><path class="cls-14" d="M153,191l-38.32,53.11.23,16.89,40.32-56.82S155.87,191.19,153,191Z"/><path class="cls-15" d="M153.34,219l-37.88,54.64.76,12.12,38.87-56.43S156.25,219.25,153.34,219Z"/><path class="cls-16" d="M131.82,245.18a5.71,5.71,0,0,0,2.54.63,5.5,5.5,0,0,0,2.48-.56,6.23,6.23,0,0,0,2-1.58,7.57,7.57,0,0,0,1.33-2.36,8.34,8.34,0,0,0,.48-2.91,8.65,8.65,0,0,0-.51-2.94,8.08,8.08,0,0,0-1.37-2.46,7.23,7.23,0,0,0-2.06-1.73,6,6,0,0,0-2.54-.73,5.68,5.68,0,0,0-2.56.48,6.23,6.23,0,0,0-2.09,1.56,7.31,7.31,0,0,0-1.4,2.41,9,9,0,0,0,.11,6,8.29,8.29,0,0,0,1.46,2.48A7.06,7.06,0,0,0,131.82,245.18Z"/><path class="cls-17" d="M139.74,235.06a7.9,7.9,0,0,0-1.38-2.46,7.19,7.19,0,0,0-2.05-1.73,5.91,5.91,0,0,0-2.54-.72,5.38,5.38,0,0,0-2.56.48,6.1,6.1,0,0,0-2.1,1.56,7.45,7.45,0,0,0-1.4,2.41,8.58,8.58,0,0,0-.47,3,9.12,9.12,0,0,0,.58,3,8.53,8.53,0,0,0,1.47,2.48,6.94,6.94,0,0,0,2.12,1.68,5.85,5.85,0,0,0,2.54.63,5.58,5.58,0,0,0,2.49-.57,6.3,6.3,0,0,0,2-1.58,7.57,7.57,0,0,0,1.33-2.36,8.34,8.34,0,0,0,.48-2.91A8.65,8.65,0,0,0,139.74,235.06Z"/><path class="cls-12" d="M139.74,235.06a7.9,7.9,0,0,0-1.38-2.46A7,7,0,0,0,136.5,231a7.41,7.41,0,0,1,1.45,1.35,8.23,8.23,0,0,1,1.38,2.46,9,9,0,0,1,0,5.86A7.59,7.59,0,0,1,138,243a6.2,6.2,0,0,1-2,1.58,5.51,5.51,0,0,1-2.49.56,5.71,5.71,0,0,1-2.54-.63l-.36-.19a7.45,7.45,0,0,0,.77.46,5.85,5.85,0,0,0,2.54.63,5.58,5.58,0,0,0,2.49-.57,6.3,6.3,0,0,0,2-1.58,7.57,7.57,0,0,0,1.33-2.36,8.34,8.34,0,0,0,.48-2.91A8.65,8.65,0,0,0,139.74,235.06Z"/><path class="cls-18" d="M138.29,235.66a6.34,6.34,0,0,0-1.08-1.9,5.3,5.3,0,0,0-1.59-1.33,4.66,4.66,0,0,0-2-.56,4.41,4.41,0,0,0-2,.38,5,5,0,0,0-1.61,1.21,5.8,5.8,0,0,0-1.07,1.86,6.53,6.53,0,0,0-.37,2.32,6.9,6.9,0,0,0,.44,2.34,6.66,6.66,0,0,0,1.13,1.92,5.51,5.51,0,0,0,1.64,1.3,4.41,4.41,0,0,0,2,.49,4.19,4.19,0,0,0,1.93-.42,4.86,4.86,0,0,0,1.56-1.23,5.77,5.77,0,0,0,1-1.83,6.62,6.62,0,0,0,.37-2.26A6.93,6.93,0,0,0,138.29,235.66Z"/><path class="cls-17" d="M133.83,235.06a2.29,2.29,0,0,1,1,.26,2.77,2.77,0,0,1,.77.64,3.26,3.26,0,0,1,.53.93,3.36,3.36,0,0,1,.2,1.11,3.3,3.3,0,0,1-.18,1.1,2.69,2.69,0,0,1-.51.89,2.3,2.3,0,0,1-.76.59,2,2,0,0,1-.94.2,2.14,2.14,0,0,1-1-.25,2.62,2.62,0,0,1-.79-.63,2.93,2.93,0,0,1-.53-.93,3.14,3.14,0,0,1-.21-1.12,3.08,3.08,0,0,1,.17-1.11,2.66,2.66,0,0,1,.52-.9,2.44,2.44,0,0,1,.77-.59A2.18,2.18,0,0,1,133.83,235.06Z"/><path class="cls-19" d="M132.58,240.16a3,3,0,0,1-.54-.92,3.24,3.24,0,0,1-.21-1.13A2.88,2.88,0,0,1,132,237a2.74,2.74,0,0,1,.51-.9,2.37,2.37,0,0,1,.78-.59,2.15,2.15,0,0,1,.95-.19,2.31,2.31,0,0,1,.9.24,2.82,2.82,0,0,0-.36-.24,2.29,2.29,0,0,0-1-.26,2.18,2.18,0,0,0-1,.19,2.44,2.44,0,0,0-.77.59,2.66,2.66,0,0,0-.52.9,3.08,3.08,0,0,0-.17,1.11,3.14,3.14,0,0,0,.21,1.12,2.93,2.93,0,0,0,.53.93,2.62,2.62,0,0,0,.79.63h0A2.79,2.79,0,0,1,132.58,240.16Z"/><path class="cls-20" d="M129.78,243.44a8.29,8.29,0,0,1-1.46-2.48,8.92,8.92,0,0,1-.58-3,8.68,8.68,0,0,1,.47-3,7.48,7.48,0,0,1,1.4-2.41,6.27,6.27,0,0,1,2.1-1.56,5.49,5.49,0,0,1,2.56-.47,5.91,5.91,0,0,1,2.54.72l.22.13a6.76,6.76,0,0,0-.72-.46,5.91,5.91,0,0,0-2.54-.72,5.38,5.38,0,0,0-2.56.48,6.1,6.1,0,0,0-2.1,1.56,7.45,7.45,0,0,0-1.4,2.41,8.58,8.58,0,0,0-.47,3,9.12,9.12,0,0,0,.58,3,8.53,8.53,0,0,0,1.47,2.48,6.82,6.82,0,0,0,1.7,1.44A7.45,7.45,0,0,1,129.78,243.44Z"/><path d="M143.47,273.58a12.85,12.85,0,0,1-4.1,3.29,11.45,11.45,0,0,1-5.17,1.23,11.82,11.82,0,0,1-5.32-1.24,13.92,13.92,0,0,1-4.41-3.45,16.45,16.45,0,0,1-3-5.18,18.2,18.2,0,0,1-1-6.31,17.59,17.59,0,0,1,1.22-6.2,15.24,15.24,0,0,1,3-4.86,12.72,12.72,0,0,1,4.35-3.06,11.2,11.2,0,0,1,5.15-.81,12,12,0,0,1,5,1.59,14.51,14.51,0,0,1,4,3.53,17.37,17.37,0,0,1,2.71,4.94,18.08,18.08,0,0,1,1,5.89,17.07,17.07,0,0,1-.91,5.84A15,15,0,0,1,143.47,273.58Z"/><path class="cls-17" d="M145.73,269.18a15.28,15.28,0,0,1-2.67,4.8,12.82,12.82,0,0,1-4.1,3.28,11.46,11.46,0,0,1-5.18,1.23,11.81,11.81,0,0,1-5.31-1.24,13.7,13.7,0,0,1-4.41-3.46,16.21,16.21,0,0,1-3-5.17,18,18,0,0,1-1-6.32,17.54,17.54,0,0,1,1.22-6.19,15.31,15.31,0,0,1,3-4.87,12.6,12.6,0,0,1,4.35-3.05,11.16,11.16,0,0,1,5.15-.81,12,12,0,0,1,5,1.6,14.35,14.35,0,0,1,4,3.53,17.23,17.23,0,0,1,2.71,4.94,18.3,18.3,0,0,1,1,5.89A17.36,17.36,0,0,1,145.73,269.18Z"/><path class="cls-12" d="M145.73,269.18a15.28,15.28,0,0,1-2.67,4.8,13.47,13.47,0,0,1-2.41,2.25,13.75,13.75,0,0,0,1.84-1.82,15.22,15.22,0,0,0,2.71-4.87,17.7,17.7,0,0,0,.94-5.94,18.7,18.7,0,0,0-1.06-6,17.67,17.67,0,0,0-2.75-5,14.54,14.54,0,0,0-4.1-3.59,12,12,0,0,0-5.09-1.63l-.41,0a10.29,10.29,0,0,1,1.11,0,12,12,0,0,1,5,1.6,14.35,14.35,0,0,1,4,3.53,17.23,17.23,0,0,1,2.71,4.94,18.3,18.3,0,0,1,1,5.89A17.36,17.36,0,0,1,145.73,269.18Z"/><path class="cls-18" d="M143.51,268.18a12.64,12.64,0,0,1-2.25,4,10.68,10.68,0,0,1-3.43,2.72,9.72,9.72,0,0,1-4.32,1,10.16,10.16,0,0,1-4.41-1.06,11.72,11.72,0,0,1-3.64-2.89,13.8,13.8,0,0,1-2.45-4.3,15.07,15.07,0,0,1,.14-10.37,13,13,0,0,1,2.51-4,10.54,10.54,0,0,1,3.61-2.55,9.32,9.32,0,0,1,4.3-.71,9.8,9.8,0,0,1,4.2,1.31,12.05,12.05,0,0,1,3.38,2.93,14.33,14.33,0,0,1,2.28,4.14,15.06,15.06,0,0,1,.86,4.93A14.51,14.51,0,0,1,143.51,268.18Z"/><path class="cls-21" d="M133.68,268.33a4.36,4.36,0,0,0,2-.41,4.87,4.87,0,0,0,1.6-1.22,5.89,5.89,0,0,0,1.07-1.84,6.89,6.89,0,0,0,0-4.57,6.4,6.4,0,0,0-1.06-1.92,5.45,5.45,0,0,0-1.59-1.33,4.48,4.48,0,0,0-1.94-.55,4.18,4.18,0,0,0-2,.36,4.72,4.72,0,0,0-1.62,1.2,6,6,0,0,0-1.11,1.84,6.87,6.87,0,0,0-.42,2.31,7.22,7.22,0,0,0,.39,2.34,6.4,6.4,0,0,0,1.09,1.93,5.27,5.27,0,0,0,1.62,1.33A4.53,4.53,0,0,0,133.68,268.33Z"/><path class="cls-12" d="M138.32,264.86a6.1,6.1,0,0,1-.87,1.59,5.74,5.74,0,0,0,.41-.91,7,7,0,0,0,.41-2.42,7.27,7.27,0,0,0-.42-2.44,6.93,6.93,0,0,0-1.13-2,5.77,5.77,0,0,0-1.68-1.41,4.78,4.78,0,0,0-2.07-.6,5.56,5.56,0,0,0-.71,0,4.13,4.13,0,0,1,1.45-.17,4.48,4.48,0,0,1,1.94.55,5.45,5.45,0,0,1,1.59,1.33,6.4,6.4,0,0,1,1.06,1.92,6.89,6.89,0,0,1,0,4.57Z"/><path class="cls-19" d="M129.92,258.9a7.32,7.32,0,0,0-.45,2.47,7.19,7.19,0,0,0,.42,2.51,6.64,6.64,0,0,0,1.16,2.07,5.92,5.92,0,0,0,1.74,1.43,4.68,4.68,0,0,0,2.91.51l0,0a4.36,4.36,0,0,1-2,.41,4.53,4.53,0,0,1-2-.53,5.27,5.27,0,0,1-1.62-1.33,6.4,6.4,0,0,1-1.09-1.93,7.22,7.22,0,0,1-.39-2.34,6.87,6.87,0,0,1,.42-2.31,6.07,6.07,0,0,1,1.11-1.84,5.81,5.81,0,0,1,.43-.43A6.65,6.65,0,0,0,129.92,258.9Z"/><path class="cls-20" d="M125.14,250.86a15.28,15.28,0,0,0-3,4.87,17.55,17.55,0,0,0-1.21,6.2,18,18,0,0,0,1,6.31,16.29,16.29,0,0,0,3,5.17,13.81,13.81,0,0,0,4.41,3.46,12.12,12.12,0,0,0,5.32,1.24,11.65,11.65,0,0,0,4.53-.94l-.18.09a11.46,11.46,0,0,1-5.18,1.23,11.81,11.81,0,0,1-5.31-1.24,13.7,13.7,0,0,1-4.41-3.46,16.21,16.21,0,0,1-3-5.17,18,18,0,0,1-1-6.32,17.54,17.54,0,0,1,1.22-6.19,15.31,15.31,0,0,1,3-4.87,12.58,12.58,0,0,1,4.19-3A12.94,12.94,0,0,0,125.14,250.86Z"/><path class="cls-22" d="M145.74,257.38a17.5,17.5,0,0,0-2.75-5,14.51,14.51,0,0,0-4.07-3.57,11.9,11.9,0,0,0-5.07-1.61,11.16,11.16,0,0,0-5.21.82,12.64,12.64,0,0,0-4.4,3.08,15.46,15.46,0,0,0-3.09,4.92,18.26,18.26,0,0,0-.2,12.65,16.47,16.47,0,0,0,3,5.23,14,14,0,0,0,4.46,3.5,12.09,12.09,0,0,0,5.38,1.26,11.72,11.72,0,0,0,5.23-1.25,13,13,0,0,0,4.15-3.32,15.49,15.49,0,0,0,2.7-4.85,17.73,17.73,0,0,0,.92-5.91A18.78,18.78,0,0,0,145.74,257.38Zm-15.86-6.66-1.44,1.44-1.55-1.64a11.27,11.27,0,0,1,1.78-1.08Zm-8.52,9.37,1.36-1.35,1.38,1.43-1.44,1.44-1.32-1.36A.88.88,0,0,0,121.36,260.09Zm.76,8.31c-.15-.42-.28-.85-.4-1.29l.83-.83,1.37,1.41-1.44,1.44-.15-.15Zm11.57,8.42,1.41-1.43,1.33,1.37-.82.83c-.35.05-.71.08-1.07.1Zm10.24-11.18-1.4,1.41-1.32-1.39,1.41-1.41Zm-.87-1.84,1.4-1.41,1.31,1.39-1.4,1.41Zm-13.12,1.51-1.36-1.41,1.43-1.43,1.35,1.41Zm1.85-1,1.34,1.4-1.42,1.43-1.35-1.4ZM130.46,262l1.43-1.43,1.35,1.42-1.43,1.42Zm3.2.43,1.34,1.41-1.42,1.42-1.34-1.4Zm1.76,1.85,1.34,1.4-1.42,1.42-1.33-1.4Zm-1.31-2.3,1.42-1.42,1.34,1.41-1.42,1.42Zm3.18.43,1.33,1.4-1.42,1.42-1.33-1.4Zm1.74,1.84,1.32,1.4-1.4,1.42-1.33-1.4Zm-.53,3.26L137.09,269l-1.33-1.39,1.42-1.42Zm-1.85,1.87-1.42,1.42-1.33-1.38,1.42-1.43Zm-3.17-.4-1.34-1.4,1.42-1.43,1.33,1.4Zm-.45.45-1.42,1.42-1.35-1.39,1.43-1.43Zm-3.19-.41-1.35-1.4,1.42-1.43,1.35,1.4Zm-1.78-1.84-1.36-1.41,1.43-1.43,1.36,1.41Zm-1.79-1.86-1.37-1.41,1.44-1.44,1.36,1.42Zm.52-3.3,1.44-1.43,1.35,1.41-1.43,1.44Zm1.89-1.89,1.43-1.43,1.35,1.42L130,261.57Zm1.88-1.88,1.43-1.43,1.35,1.42-1.42,1.43Zm3.21.44,1.34,1.42-1.42,1.43-1.35-1.42Zm.45-.45,1.42-1.42,1.34,1.42-1.42,1.42Zm3.18.45,1.33,1.41-1.42,1.42L136,260.13Zm1.75,1.85,1.32,1.41-1.41,1.41-1.33-1.4Zm1.74,1.85,1.31,1.4-1.4,1.41-1.32-1.39Zm1.19,5.08-1.4,1.42-1.32-1.39,1.41-1.41Zm-1.84,1.87-1.41,1.41-1.32-1.38,1.41-1.42Zm-1.85,1.86L137,272.64l-1.33-1.38,1.42-1.42Zm-1.85,1.87-1.41,1.42-1.34-1.38,1.42-1.42Zm-3.17-.39L132,271.31l1.42-1.42,1.34,1.38Zm-.44.45-1.42,1.42-1.34-1.38,1.42-1.43Zm-3.19-.4-1.35-1.39,1.42-1.43,1.35,1.39ZM128,270.92l-1.36-1.39,1.43-1.44,1.36,1.4Zm-1.79-1.83-1.36-1.41,1.43-1.44,1.37,1.41Zm-1.79-1.85L123,265.82l1.44-1.44,1.37,1.42Zm-1.29-5.18,1.44-1.44,1.37,1.43-1.43,1.43Zm1.9-1.89,1.44-1.44,1.37,1.43-1.44,1.43Zm1.89-1.89,1.44-1.44,1.36,1.43-1.43,1.43Zm1.89-1.89,1.44-1.43,1.36,1.43-1.43,1.43Zm1.89-1.88,1.44-1.43,1.35,1.43L132,255.94Zm3.21.45,1.35,1.43-1.43,1.42-1.34-1.42Zm.45-.45,1.43-1.42,1.34,1.43-1.42,1.42Zm3.19.46,1.33,1.42-1.41,1.42-1.34-1.42Zm1.75,1.87,1.33,1.41-1.42,1.42-1.32-1.41ZM141,258.7l1.32,1.4-1.4,1.42-1.33-1.41Zm1.74,1.85,1.31,1.4-1.4,1.41-1.32-1.4Zm.44-.45,1.41-1.41,1.2,1.29,0,.18-1.33,1.34Zm2.78.78a19.1,19.1,0,0,1,.21,2.42l-1.26-1.36Zm.2,3.35a16.57,16.57,0,0,1-.28,2.57l-1.1-1.17Zm-.52,3.23-1.39,1.41-1.31-1.38,1.4-1.42Zm-1.83,1.85-1.4,1.41-1.31-1.37,1.4-1.42ZM142,271.17l-1.41,1.42-1.31-1.38,1.4-1.42Zm-.3,3.47a12.49,12.49,0,0,1-1.58,1.24l-1-1,1.41-1.41Zm-2.95-.19-1.32-1.37,1.41-1.42,1.31,1.37Zm-.44.45-1.41,1.42L135.55,275l1.4-1.43ZM137,277.31l-.29.07.18-.18Zm-3.68-.92L131.93,275l1.42-1.43,1.33,1.38Zm-.45.45-.69.69a10.67,10.67,0,0,1-1.94-.52l-.12-.12,1.41-1.43Zm-4.53-1.77,1.43-1.43,1.34,1.39-1.42,1.42Zm-.42-.43-1.36-1.39,1.43-1.43,1.35,1.39Zm-1.79-1.83-1.36-1.39,1.43-1.44,1.36,1.4ZM124.29,271l-1.37-1.4,1.43-1.44,1.37,1.41Zm-2.74-4.57c-.1-.46-.18-.93-.25-1.4l.81.83ZM121.2,264l1.44-1.44,1.37,1.43-1.44,1.44L121.2,264Zm2-5.67,1.44-1.44,1.38,1.44-1.44,1.44Zm1.9-1.89,1.44-1.44,1.37,1.44-1.44,1.43Zm1.9-1.89,1.44-1.44,1.36,1.44-1.44,1.44Zm3.33-3.32,1.36,1.44-1.44,1.43-1.36-1.44Zm.45-.45,1.44-1.43,1.35,1.44-1.43,1.43Zm3.22.47,1.35,1.43-1.43,1.43-1.35-1.43Zm.45-.45,1.43-1.43,1.34,1.44-1.42,1.43Zm1.92-1.92a10.66,10.66,0,0,1,2,.8l-.68.68-1.34-1.44Zm2.61,3.82-1.42,1.42-1.34-1.43,1.42-1.42Zm.42.45,1.33,1.42-1.42,1.42L138,254.52Zm.44-.45,1.17-1.17a15,15,0,0,1,1.36,1.4l-1.2,1.2Zm2.62,3.74L141,257.8l-1.32-1.41,1.41-1.42Zm.42.44,1.31,1.42-1.4,1.41-1.32-1.41Zm.44-.44.85-.85a15.79,15.79,0,0,1,.86,1.86l-.39.4Zm1.94,1.64c.08.22.15.45.22.68l-.43-.47Zm.07,10.9c-.08.26-.18.51-.28.76l-.37-.39.8-.8Zm-1.55,3.22-.94-1,1.4-1.41.54.57A14.66,14.66,0,0,1,143.76,272.15Zm-1,1.3c-.22.26-.45.51-.68.76L141,273l1.4-1.42,1,1.08C143.21,272.94,143,273.2,142.8,273.45Zm-5.17,3.65-.34-.35,1.4-1.42.85.89c-.19.11-.39.22-.6.32A11.72,11.72,0,0,1,137.63,277.1Zm-4.75.54.36-.37.42.42C133.4,277.68,133.14,277.67,132.88,277.64Zm-5.23-1.92.19-.19.74.75C128.27,276.11,128,275.92,127.65,275.72Zm-2-1.63.39-.39,1.36,1.39-.27.27A13.61,13.61,0,0,1,125.67,274.09Zm-.76-.82c-.31-.36-.61-.75-.89-1.15l.25-.25,1.36,1.39-.38.39C125.13,273.53,125,273.4,124.91,273.27Zm-1.74-2.52.66.68-.16.16C123.49,271.32,123.33,271,123.17,270.75Zm-2-8.29c0-.47,0-.93.08-1.39l1,1-1,1Zm.71-4.6.42.43-.72.7C121.66,258.61,121.76,258.23,121.87,257.86Zm.43-1.23a15.69,15.69,0,0,1,.69-1.49l1.2,1.25-1.45,1.44-.64-.67C122.17,257,122.23,256.8,122.3,256.63Zm2.2-3.8,1.59,1.67-1.44,1.44-1.33-1.4A13,13,0,0,1,124.5,252.83Zm.68-.79a12.64,12.64,0,0,1,1.2-1.12l1.61,1.69-1.44,1.44-1.63-1.72C125,252.23,125.09,252.14,125.18,252Zm6.3-3.51.29.31-1.44,1.43-1-1.1A10.56,10.56,0,0,1,131.48,248.53Zm3.65,0,.3.33L134,250.29l-1.36-1.44.47-.47a8.52,8.52,0,0,1,1,0C134.46,248.44,134.8,248.48,135.13,248.54Zm5.4,2.54-1.13,1.12-1.33-1.43.83-.83A11.94,11.94,0,0,1,140.53,251.08Zm3.31,3.9-1,1-1.32-1.42,1.16-1.16A15.43,15.43,0,0,1,143.84,255Z"/><path class="cls-20" d="M124.8,250.75a13.1,13.1,0,0,1,2.2-1.89,13.09,13.09,0,0,0-2.76,2.25,15.46,15.46,0,0,0-3.09,4.92,18.26,18.26,0,0,0-.2,12.65,16.47,16.47,0,0,0,3,5.23,14,14,0,0,0,4.46,3.5,12.09,12.09,0,0,0,5.38,1.26,11.72,11.72,0,0,0,5.23-1.25,11.39,11.39,0,0,0,1.43-.84q-.42.26-.87.48a11.72,11.72,0,0,1-5.23,1.25,12.09,12.09,0,0,1-5.38-1.26,14.13,14.13,0,0,1-4.46-3.5,16.66,16.66,0,0,1-3-5.23,18.33,18.33,0,0,1-1-6.38,17.94,17.94,0,0,1,1.23-6.27A15.53,15.53,0,0,1,124.8,250.75Z"/><path d="M144.51,223.72a13.26,13.26,0,0,1-4.27,3.42,11.91,11.91,0,0,1-5.4,1.29,12.39,12.39,0,0,1-5.54-1.29,14.5,14.5,0,0,1-4.6-3.61,17,17,0,0,1-3.1-5.4,18.73,18.73,0,0,1-1.06-6.58,18.48,18.48,0,0,1,1.26-6.46A15.82,15.82,0,0,1,125,200a13.12,13.12,0,0,1,4.54-3.19,11.43,11.43,0,0,1,5.37-.84,12.18,12.18,0,0,1,5.23,1.66,14.67,14.67,0,0,1,4.2,3.68,17.61,17.61,0,0,1,2.83,5.15,18.77,18.77,0,0,1,1.09,6.14,18.06,18.06,0,0,1-1,6.1A15.78,15.78,0,0,1,144.51,223.72Z"/><path class="cls-17" d="M146.87,219.12a15.78,15.78,0,0,1-2.78,5,13.3,13.3,0,0,1-4.28,3.42,12.17,12.17,0,0,1-5.4,1.29,12.61,12.61,0,0,1-5.55-1.3,14.5,14.5,0,0,1-4.6-3.61,17,17,0,0,1-3.09-5.39,18.83,18.83,0,0,1-1.06-6.59,18.52,18.52,0,0,1,1.26-6.46,15.89,15.89,0,0,1,3.19-5.08,13.09,13.09,0,0,1,4.54-3.18,11.56,11.56,0,0,1,5.37-.85,12.29,12.29,0,0,1,5.23,1.67,14.84,14.84,0,0,1,4.21,3.68,18.09,18.09,0,0,1,2.83,5.15,19.09,19.09,0,0,1,1.08,6.15A18,18,0,0,1,146.87,219.12Z"/><path class="cls-12" d="M146.87,219.12a15.78,15.78,0,0,1-2.78,5,14.29,14.29,0,0,1-2.51,2.35,13.71,13.71,0,0,0,1.91-1.9,15.94,15.94,0,0,0,2.83-5.08,18.44,18.44,0,0,0,1-6.2,19.71,19.71,0,0,0-1.1-6.25,18.23,18.23,0,0,0-2.88-5.24,15.16,15.16,0,0,0-4.27-3.74,12.53,12.53,0,0,0-5.31-1.7l-.42,0a11.11,11.11,0,0,1,1.15,0,12.29,12.29,0,0,1,5.23,1.67,14.84,14.84,0,0,1,4.21,3.68,18.09,18.09,0,0,1,2.83,5.15,19.09,19.09,0,0,1,1.08,6.15A18,18,0,0,1,146.87,219.12Z"/><path class="cls-18" d="M144.56,218.07a13.24,13.24,0,0,1-2.35,4.18,11.12,11.12,0,0,1-3.58,2.84,10.06,10.06,0,0,1-4.5,1,10.4,10.4,0,0,1-4.6-1.11,12.06,12.06,0,0,1-3.8-3,14.15,14.15,0,0,1-2.56-4.48,15.84,15.84,0,0,1-.89-5.46,15.31,15.31,0,0,1,1-5.36,13.2,13.2,0,0,1,2.62-4.22,10.93,10.93,0,0,1,3.77-2.67,9.66,9.66,0,0,1,4.48-.74,10.36,10.36,0,0,1,4.38,1.37,12.49,12.49,0,0,1,3.53,3.06,15.12,15.12,0,0,1,2.37,4.31,15.87,15.87,0,0,1,.9,5.15A15.07,15.07,0,0,1,144.56,218.07Z"/><path class="cls-21" d="M134.31,218.23a4.44,4.44,0,0,0,2.05-.43,5,5,0,0,0,1.67-1.27,6,6,0,0,0,1.11-1.92,7,7,0,0,0,.4-2.37,7.33,7.33,0,0,0-.41-2.4,6.79,6.79,0,0,0-1.12-2,5.59,5.59,0,0,0-1.65-1.39,4.62,4.62,0,0,0-2-.58,4.4,4.4,0,0,0-2,.38,5,5,0,0,0-1.69,1.25,6.06,6.06,0,0,0-1.15,1.92,6.75,6.75,0,0,0-.44,2.41,7,7,0,0,0,.4,2.44,6.78,6.78,0,0,0,1.14,2,5.44,5.44,0,0,0,1.69,1.38A4.59,4.59,0,0,0,134.31,218.23Z"/><path class="cls-12" d="M139.14,214.61a6,6,0,0,1-.9,1.66,6.86,6.86,0,0,0,.43-1,7.36,7.36,0,0,0,.42-2.52,7.87,7.87,0,0,0-.43-2.54,7.09,7.09,0,0,0-1.19-2.12,6,6,0,0,0-1.75-1.48,5,5,0,0,0-2.15-.62,4.61,4.61,0,0,0-.75,0,4.24,4.24,0,0,1,1.51-.19,4.62,4.62,0,0,1,2,.58,5.59,5.59,0,0,1,1.65,1.39,6.79,6.79,0,0,1,1.12,2,7.33,7.33,0,0,1,.41,2.4A7,7,0,0,1,139.14,214.61Z"/><path class="cls-19" d="M130.38,208.4a7.38,7.38,0,0,0-.47,2.57,7.74,7.74,0,0,0,.43,2.62,7.3,7.3,0,0,0,1.22,2.17,6.12,6.12,0,0,0,1.82,1.48,5.13,5.13,0,0,0,2.22.59,5.42,5.42,0,0,0,.81-.05l0,0a4.44,4.44,0,0,1-2.05.43,4.59,4.59,0,0,1-2.07-.55,5.44,5.44,0,0,1-1.69-1.38,6.78,6.78,0,0,1-1.14-2,7,7,0,0,1-.4-2.44,6.75,6.75,0,0,1,.44-2.41,6.06,6.06,0,0,1,1.15-1.92,4.78,4.78,0,0,1,.45-.45A6.71,6.71,0,0,0,130.38,208.4Z"/><path class="cls-20" d="M125.4,200a16,16,0,0,0-3.18,5.08,18.92,18.92,0,0,0-.2,13,17,17,0,0,0,3.1,5.4,14.46,14.46,0,0,0,4.6,3.6,12.61,12.61,0,0,0,5.55,1.3,12.1,12.1,0,0,0,4.73-1l-.19.1a12.17,12.17,0,0,1-5.4,1.29,12.61,12.61,0,0,1-5.55-1.3,14.5,14.5,0,0,1-4.6-3.61,17,17,0,0,1-3.09-5.39,18.83,18.83,0,0,1-1.06-6.59,18.52,18.52,0,0,1,1.26-6.46,15.89,15.89,0,0,1,3.19-5.08,13.23,13.23,0,0,1,4.37-3.11A13.31,13.31,0,0,0,125.4,200Z"/><path class="cls-22" d="M146.88,206.82A18.07,18.07,0,0,0,144,201.6a15.3,15.3,0,0,0-4.25-3.72,12.46,12.46,0,0,0-5.29-1.68,11.73,11.73,0,0,0-5.44.86,13.32,13.32,0,0,0-4.59,3.21,16.13,16.13,0,0,0-3.22,5.14,18.69,18.69,0,0,0-1.28,6.53A19,19,0,0,0,121,218.6a17.3,17.3,0,0,0,3.13,5.46,14.71,14.71,0,0,0,4.66,3.65,12.53,12.53,0,0,0,5.6,1.31,12.18,12.18,0,0,0,5.47-1.3,13.57,13.57,0,0,0,4.32-3.46A16,16,0,0,0,147,219.2a18.52,18.52,0,0,0,1-6.17A19.42,19.42,0,0,0,146.88,206.82Zm-16.54-6.95-1.5,1.49-1.62-1.7a11.83,11.83,0,0,1,1.86-1.13Zm-8.88,9.77,1.41-1.41,1.44,1.49-1.51,1.5-1.37-1.41Zm.78,8.67c-.16-.44-.29-.89-.42-1.35l.87-.86,1.43,1.47-1.5,1.5-.15-.16C122.39,218.71,122.31,218.51,122.24,218.31Zm12.07,8.78,1.48-1.48,1.38,1.42-.85.86a10.61,10.61,0,0,1-1.12.11ZM145,215.43l-1.46,1.47-1.37-1.45,1.47-1.48Zm-.9-1.92,1.46-1.47,1.36,1.45L145.45,215Zm-13.69,1.58L129,213.62l1.5-1.5,1.41,1.48Zm1.93-1,1.4,1.47L132.25,217l-1.41-1.46ZM131,211.65l1.49-1.49,1.4,1.48-1.48,1.49Zm3.33.45,1.4,1.47-1.48,1.49-1.4-1.47Zm1.84,1.93,1.39,1.46L136,217l-1.4-1.46Zm-1.37-2.4,1.49-1.48,1.39,1.47-1.48,1.48Zm3.32.45,1.38,1.46L138,215l-1.39-1.46Zm1.82,1.92,1.38,1.46-1.47,1.48-1.39-1.46Zm-.56,3.4-1.47,1.49-1.38-1.46L138,216Zm-1.93,1.95-1.48,1.49-1.39-1.45L136,217.9Zm-3.31-.42-1.4-1.45,1.48-1.49,1.4,1.45Zm-.47.47-1.48,1.49-1.4-1.45,1.48-1.49Zm-3.33-.42-1.41-1.46,1.49-1.5,1.41,1.47Zm-1.85-1.93L127,215.59l1.49-1.5,1.42,1.47Zm-1.87-1.93-1.43-1.47,1.5-1.5,1.42,1.47Zm.54-3.45,1.5-1.49,1.42,1.48-1.49,1.49Zm2-2,1.49-1.5L132,209.7l-1.49,1.49Zm2-2,1.49-1.49,1.41,1.48-1.49,1.49Zm3.34.46,1.4,1.48-1.48,1.49-1.4-1.48Zm.47-.47,1.49-1.48,1.39,1.48-1.48,1.48Zm3.32.46,1.39,1.48-1.48,1.48-1.39-1.47Zm1.83,1.94,1.38,1.47-1.47,1.48-1.39-1.47Zm1.81,1.93,1.37,1.46L141.73,215l-1.38-1.45Zm1.25,5.3-1.46,1.48-1.38-1.45,1.47-1.47Zm-1.93,1.95-1.46,1.48-1.38-1.45,1.47-1.48Zm-1.92,1.94-1.47,1.48-1.39-1.44,1.47-1.48Zm-1.94,1.95-1.47,1.48-1.39-1.43,1.48-1.49Zm-3.3-.41-1.39-1.44,1.48-1.49,1.39,1.45Zm-.46.47L132,224.75l-1.4-1.44,1.48-1.49Zm-3.33-.41-1.41-1.45,1.49-1.49,1.41,1.45Zm-1.85-1.91-1.42-1.46,1.49-1.49,1.42,1.46ZM126.47,219l-1.42-1.46,1.5-1.5,1.42,1.47Zm-1.87-1.93-1.43-1.47,1.5-1.5,1.43,1.47Zm-1.34-5.4,1.5-1.5,1.43,1.49-1.5,1.5Zm2-2,1.5-1.5,1.42,1.49-1.49,1.5Zm2-2,1.5-1.5,1.42,1.49-1.49,1.5Zm2-2,1.49-1.5,1.42,1.5-1.5,1.49Zm2-2,1.49-1.49,1.41,1.5-1.49,1.49Zm3.34.48,1.41,1.49-1.49,1.49L133,205.78Zm.47-.47,1.49-1.49,1.4,1.5-1.48,1.48Zm3.33.47,1.39,1.49-1.48,1.48-1.39-1.48Zm1.83,2,1.38,1.47L140,209.2l-1.38-1.47Zm1.81,1.94,1.38,1.46-1.47,1.48-1.38-1.47Zm1.81,1.93,1.37,1.46-1.46,1.47-1.37-1.46Zm.47-.47,1.46-1.47,1.25,1.34c0,.06,0,.13,0,.19l-1.39,1.4Zm2.89.82a17.35,17.35,0,0,1,.22,2.51L146,211.57Zm.22,3.49a17.73,17.73,0,0,1-.3,2.67l-1.15-1.21Zm-.55,3.36-1.45,1.48L144,217.35l1.46-1.47Zm-1.91,1.94-1.46,1.47L142,219.3l1.46-1.48ZM143,221.2l-1.46,1.47-1.38-1.43,1.47-1.48Zm-.32,3.62a11.93,11.93,0,0,1-1.64,1.29l-1-1,1.47-1.48Zm-3.07-.2-1.38-1.43,1.47-1.48,1.37,1.43Zm-.46.47-1.47,1.48-1.38-1.43,1.47-1.49Zm-1.38,2.51-.31.08.19-.2Zm-3.85-1-1.39-1.44,1.48-1.48,1.39,1.43Zm-.46.47-.72.73a11.46,11.46,0,0,1-2-.55l-.13-.13,1.48-1.49Zm-4.73-1.84,1.49-1.49,1.4,1.44-1.48,1.49Zm-.44-.45-1.42-1.45,1.49-1.5,1.41,1.45Zm-1.86-1.91L125,221.45l1.5-1.49,1.42,1.45ZM124.5,221l-1.43-1.46,1.5-1.5L126,219.5Zm-2.85-4.77c-.11-.48-.19-1-.26-1.46l.85.87Zm-.37-2.56,1.5-1.49,1.44,1.48-1.51,1.5-1.43-1.46Zm2.07-5.9,1.51-1.51,1.43,1.5-1.51,1.5Zm2-2,1.51-1.5,1.42,1.5-1.5,1.5Zm2-2,1.5-1.5,1.43,1.5-1.5,1.5Zm3.48-3.47,1.41,1.51-1.49,1.49-1.42-1.5Zm.47-.47,1.5-1.49,1.41,1.51-1.49,1.49Zm3.36.49,1.4,1.5-1.49,1.49-1.41-1.5Zm.47-.47,1.49-1.48,1.4,1.5-1.49,1.48Zm2-2a11.66,11.66,0,0,1,2.07.84l-.72.71-1.39-1.5Zm2.72,4-1.48,1.48-1.4-1.49,1.49-1.49Zm.44.47,1.38,1.48-1.47,1.48-1.39-1.48Zm.46-.47,1.22-1.22a13.93,13.93,0,0,1,1.41,1.46l-1.24,1.25Zm2.73,3.9L142,207.25l-1.38-1.47,1.48-1.48Zm.44.46,1.37,1.47-1.47,1.48-1.37-1.47Zm.46-.46.89-.89a20.21,20.21,0,0,1,.9,1.94l-.42.42Zm2,1.71c.08.23.15.47.22.71l-.45-.49Zm.07,11.37c-.09.27-.19.54-.3.8l-.39-.41.84-.84Zm-1.62,3.36-1-1,1.46-1.48.56.6A14,14,0,0,1,144.82,222.22Zm-1,1.36c-.23.27-.47.53-.72.79l-1.18-1.24,1.46-1.48,1.06,1.12C144.24,223.05,144,223.32,143.82,223.58Zm-5.4,3.8-.35-.36,1.46-1.48.89.92-.63.34A11,11,0,0,1,138.42,227.38Zm-5,.57.39-.39.43.44C134,228,133.73,228,133.46,228Zm-5.44-2,.19-.2.77.79C128.65,226.35,128.33,226.15,128,225.94ZM126,224.25l.4-.41,1.42,1.45-.28.28A13.76,13.76,0,0,1,126,224.25Zm-.79-.86c-.33-.38-.64-.78-.94-1.2l.26-.26,1.43,1.45-.41.4C125.39,223.66,125.27,223.53,125.16,223.39Zm-1.82-2.63.69.71-.17.17C123.68,221.35,123.5,221.06,123.34,220.76Zm-2.1-8.65q0-.74.09-1.44l1,1-1.09,1.08Zm.75-4.8.43.45-.75.74C121.76,208.09,121.87,207.7,122,207.31Zm.44-1.28q.33-.81.72-1.56l1.25,1.31-1.51,1.5-.67-.69Zm2.29-4,1.66,1.75-1.5,1.5-1.39-1.46A16.17,16.17,0,0,1,124.72,202.06Zm.71-.81a12.68,12.68,0,0,1,1.26-1.18l1.67,1.77-1.5,1.49-1.7-1.79Zm6.58-3.67.3.32-1.5,1.5-1.08-1.16A11.05,11.05,0,0,1,132,197.58Zm3.8,0,.32.34-1.49,1.49-1.41-1.51.49-.49,1.05,0C135.12,197.48,135.47,197.53,135.81,197.59Zm5.63,2.65-1.16,1.17-1.4-1.5.87-.86A13.19,13.19,0,0,1,141.44,200.24Zm3.46,4.07-1,1-1.38-1.48,1.22-1.22A18.08,18.08,0,0,1,144.9,204.31Z"/><path class="cls-20" d="M125,199.9a13.34,13.34,0,0,1,2.29-2,14.26,14.26,0,0,0-2.88,2.35,16.13,16.13,0,0,0-3.22,5.14,18.69,18.69,0,0,0-1.28,6.53A19,19,0,0,0,121,218.6a17.3,17.3,0,0,0,3.13,5.46,14.71,14.71,0,0,0,4.66,3.65,12.53,12.53,0,0,0,5.6,1.31,12.2,12.2,0,0,0,7-2.18,9.84,9.84,0,0,1-.9.5,12.17,12.17,0,0,1-5.46,1.3,12.57,12.57,0,0,1-5.61-1.31,14.42,14.42,0,0,1-4.65-3.65,17.19,17.19,0,0,1-3.13-5.46,18.9,18.9,0,0,1-1.07-6.65,18.48,18.48,0,0,1,1.28-6.54A16.09,16.09,0,0,1,125,199.9Z"/><path class="cls-10" d="M115.05,281.39v.28a13.83,13.83,0,0,0,.36,2.81,10.32,10.32,0,0,0,.86,2.37,5.91,5.91,0,0,0,1.23,1.69,2.75,2.75,0,0,0,1.48.76l.15,0V289c0-1.25-.05-2.5-.08-3.75V285l-.15,0a1.16,1.16,0,0,1-.6-.31,2.51,2.51,0,0,1-.5-.69,4.78,4.78,0,0,1-.35-1,5.83,5.83,0,0,1-.14-1.14v-.28h-.15l-2-.17Z"/><path class="cls-10" d="M117,190.19l-.16,0a3,3,0,0,0-1.46.74,5.59,5.59,0,0,0-1.19,1.57,9.32,9.32,0,0,0-.82,2.18,12.74,12.74,0,0,0-.36,2.62v.31l.16,0,2.07-.3.16,0,0-.23a4.6,4.6,0,0,1,.19-.94,3.2,3.2,0,0,1,.34-.77,2.29,2.29,0,0,1,.45-.55,1.13,1.13,0,0,1,.54-.26l.16,0v-.28c0-1.25-.05-2.51-.08-3.77Z"/><path class="cls-23" d="M113.2,197.84v-.22l2.07-.3v.11a.49.49,0,0,0,0,.12v.22q1,41.91,1.88,83.81l-2-.17q-1-41.67-2-83.34v-.23Z"/><path class="cls-23" d="M150.5,293.41q-15.65-2.6-31.38-4.38c0-1.25-.05-2.5-.08-3.75q15.78,1.61,31.47,4.05C150.5,290.69,150.5,292.05,150.5,293.41Z"/><path class="cls-23" d="M150.71,190.23q-16.85,1.56-33.59,4c0-1.25-.05-2.51-.08-3.77q16.78-2.61,33.67-4.34Z"/><path class="cls-23" d="M155.56,193v.37q-.24,46.38-.5,92.77l-2.37-.36q.18-46.11.33-92.21v-.25s0-.08,0-.12a.62.62,0,0,0,0-.13l2.56-.2Z"/><path class="cls-10" d="M150.71,185.82v4.72l.19,0a1.22,1.22,0,0,1,.65.15,1.74,1.74,0,0,1,.56.47,3,3,0,0,1,.43.75,4.53,4.53,0,0,1,.25,1l0,.24H153l2.56-.21h.19l0-.35a11.34,11.34,0,0,0-.51-2.79,7.63,7.63,0,0,0-1.06-2.18,4.61,4.61,0,0,0-1.49-1.38,3,3,0,0,0-1.77-.38Z"/><path class="cls-10" d="M152.51,285.77v.31a5.16,5.16,0,0,1-.15,1.22,3.57,3.57,0,0,1-.39,1,1.82,1.82,0,0,1-.59.61,1,1,0,0,1-.7.16l-.17,0v4.7l.18,0a2.68,2.68,0,0,0,1.75-.35,4.57,4.57,0,0,0,1.45-1.48,8.08,8.08,0,0,0,1-2.38,12.1,12.1,0,0,0,.38-3v-.32l-.18,0-2.37-.36Z"/><path class="cls-20" d="M113.13,196.28a10.52,10.52,0,0,1,.3-1.2,8.75,8.75,0,0,1,.94-2.09,5,5,0,0,1,1.27-1.43,2.84,2.84,0,0,1,1.41-.58v-.79l-.16,0a3,3,0,0,0-1.46.74,5.59,5.59,0,0,0-1.19,1.57,9.32,9.32,0,0,0-.82,2.18A10.92,10.92,0,0,0,113.13,196.28Z"/><path class="cls-24" d="M155.08,190.62a10.08,10.08,0,0,0-1-2.77,7,7,0,0,0-1.21-1.57,4.83,4.83,0,0,1,1.32,1.28,7.63,7.63,0,0,1,1.06,2.18,11.34,11.34,0,0,1,.51,2.79l0,.35h-.37A13.5,13.5,0,0,0,155.08,190.62Z"/><polyline class="cls-16" points="155.02 286.03 172.21 280.52 173.65 199.44 155.58 239.5 155.02 286.03 173.57 279.9 154.93 286.01"/><line class="cls-25" x1="155.16" y1="286.17" x2="172.42" y2="280.51"/><path class="cls-18" d="M214,291.55s-.55,4.95-1.71,4.88l4.91-.4S214.91,291.39,214,291.55Z"/><path class="cls-26" d="M211.75,296.44l-55.34-3.8a1.43,1.43,0,0,1-1.34-1.43V248.33a1.44,1.44,0,0,1,1.36-1.43L211.78,244a1.44,1.44,0,0,1,1.51,1.43l.82,49.79C214.11,296.06,212.58,296.5,211.75,296.44Z"/><path class="cls-23" d="M206.36,292.24l-44.67-3.07a2.18,2.18,0,0,1-2-2.17V252.71a2.17,2.17,0,0,1,2.06-2.16l44.67-2.33a2.16,2.16,0,0,1,2.28,2.16v39.69A2.17,2.17,0,0,1,206.36,292.24Z"/><path class="cls-7" d="M202.39,257.2l-36.52.88c-.93,0-1.65-.07-1.66-.2l-.13-4c0-.14.73-.28,1.67-.32l36.5-1.51c1,0,1.87.05,1.87.19l.16,4.69C204.29,257,203.42,257.18,202.39,257.2Z"/><path class="cls-16" d="M167.82,284.88a6.65,6.65,0,0,0,2.86.68,6.21,6.21,0,0,0,2.81-.61,6.9,6.9,0,0,0,2.27-1.72,7.88,7.88,0,0,0,1.51-2.56,8.76,8.76,0,0,0,.54-3.15,9.11,9.11,0,0,0-2.12-5.87,8,8,0,0,0-2.32-1.87,6.91,6.91,0,0,0-2.87-.79,6.5,6.5,0,0,0-2.89.52,7,7,0,0,0-2.37,1.7,7.62,7.62,0,0,0-1.58,2.62,8.86,8.86,0,0,0-.54,3.26,9.35,9.35,0,0,0,.65,3.28,8.93,8.93,0,0,0,1.66,2.7A7.64,7.64,0,0,0,167.82,284.88Z"/><path class="cls-17" d="M176.78,273.89a8.77,8.77,0,0,0-1.56-2.67,7.87,7.87,0,0,0-2.32-1.87,6.91,6.91,0,0,0-2.87-.79,6.5,6.5,0,0,0-2.89.52,7,7,0,0,0-2.37,1.7,7.9,7.9,0,0,0-1.59,2.62,9.11,9.11,0,0,0-.53,3.26,9.45,9.45,0,0,0,.65,3.29,9,9,0,0,0,1.66,2.69,7.88,7.88,0,0,0,2.39,1.81,6.73,6.73,0,0,0,2.87.68,6.48,6.48,0,0,0,2.81-.61,6.9,6.9,0,0,0,2.27-1.72,8.18,8.18,0,0,0,1.51-2.56,9,9,0,0,0,.54-3.16A9.35,9.35,0,0,0,176.78,273.89Z"/><path class="cls-12" d="M176.78,273.89a8.77,8.77,0,0,0-1.56-2.67,7.81,7.81,0,0,0-2.1-1.75,8.38,8.38,0,0,1,1.64,1.46,8.86,8.86,0,0,1,1.55,2.67,9.37,9.37,0,0,1,.58,3.2,9,9,0,0,1-.54,3.15,8.06,8.06,0,0,1-1.51,2.56,6.9,6.9,0,0,1-2.27,1.72,6.35,6.35,0,0,1-2.81.62,6.73,6.73,0,0,1-2.87-.68l-.41-.22a6.3,6.3,0,0,0,.87.5,6.73,6.73,0,0,0,2.87.68,6.48,6.48,0,0,0,2.81-.61,6.9,6.9,0,0,0,2.27-1.72,8.18,8.18,0,0,0,1.51-2.56,9,9,0,0,0,.54-3.16A9.35,9.35,0,0,0,176.78,273.89Z"/><path class="cls-18" d="M175.13,274.55a6.79,6.79,0,0,0-1.21-2.07,5.93,5.93,0,0,0-1.8-1.44,5.14,5.14,0,0,0-2.22-.6,4.94,4.94,0,0,0-2.24.41,5.35,5.35,0,0,0-1.82,1.32,6,6,0,0,0-1.22,2,6.82,6.82,0,0,0-.41,2.51,7.09,7.09,0,0,0,.5,2.54,6.88,6.88,0,0,0,1.27,2.08,6.24,6.24,0,0,0,1.84,1.41,5.46,5.46,0,0,0,2.22.54,5,5,0,0,0,2.19-.47,5.43,5.43,0,0,0,1.76-1.33,6.29,6.29,0,0,0,1.18-2,7.13,7.13,0,0,0,0-4.93Z"/><path class="cls-17" d="M170.1,273.9a2.55,2.55,0,0,1,1.08.28,2.89,2.89,0,0,1,.87.69,3.37,3.37,0,0,1,.6,1,3.51,3.51,0,0,1,.22,1.21,3.36,3.36,0,0,1-.2,1.2,3,3,0,0,1-.57,1,2.65,2.65,0,0,1-.86.64,2.42,2.42,0,0,1-1.07.22,2.59,2.59,0,0,1-1.07-.26,3.09,3.09,0,0,1-.89-.69,3.54,3.54,0,0,1-.61-1,3.48,3.48,0,0,1-.23-1.22,3.21,3.21,0,0,1,.2-1.21,3,3,0,0,1,.58-1,2.77,2.77,0,0,1,.88-.64A2.4,2.4,0,0,1,170.1,273.9Z"/><path class="cls-19" d="M168.67,279.43a3.25,3.25,0,0,1-.6-1,3.53,3.53,0,0,1-.24-1.22A3.42,3.42,0,0,1,168,276a3.13,3.13,0,0,1,.59-1,2.46,2.46,0,0,1,.87-.63,2.43,2.43,0,0,1,1.08-.21,2.56,2.56,0,0,1,1,.26,2.59,2.59,0,0,0-1.49-.54,2.4,2.4,0,0,0-1.07.2,2.77,2.77,0,0,0-.88.64,3,3,0,0,0-.58,1,3.21,3.21,0,0,0-.2,1.21,3.48,3.48,0,0,0,.23,1.22,3.54,3.54,0,0,0,.61,1,3.09,3.09,0,0,0,.89.69h0A3.56,3.56,0,0,1,168.67,279.43Z"/><path class="cls-20" d="M165.52,283a9,9,0,0,1-1.66-2.69,9.4,9.4,0,0,1-.65-3.29,8.93,8.93,0,0,1,.54-3.26,8,8,0,0,1,1.58-2.61,6.82,6.82,0,0,1,2.37-1.7,6.52,6.52,0,0,1,2.89-.52,6.91,6.91,0,0,1,2.87.79l.26.14a7.82,7.82,0,0,0-.82-.5,6.91,6.91,0,0,0-2.87-.79,6.5,6.5,0,0,0-2.89.52,7,7,0,0,0-2.37,1.7,7.9,7.9,0,0,0-1.59,2.62,9.11,9.11,0,0,0-.53,3.26,9.45,9.45,0,0,0,.65,3.29,9,9,0,0,0,1.66,2.69,8,8,0,0,0,1.92,1.56A8.19,8.19,0,0,1,165.52,283Z"/><path class="cls-16" d="M193.47,286.3a7,7,0,0,0,3,.71,6.67,6.67,0,0,0,2.92-.64,7.43,7.43,0,0,0,2.36-1.78,8.56,8.56,0,0,0,1.57-2.67,9.45,9.45,0,0,0,.57-3.28,9.88,9.88,0,0,0-.6-3.33,9.19,9.19,0,0,0-1.61-2.77,8.22,8.22,0,0,0-2.42-2,7.09,7.09,0,0,0-3-.82,6.87,6.87,0,0,0-3,.54,7.29,7.29,0,0,0-2.47,1.77,8.11,8.11,0,0,0-1.64,2.72,9,9,0,0,0-.56,3.39,9.65,9.65,0,0,0,.68,3.42,9.19,9.19,0,0,0,1.72,2.8A8.06,8.06,0,0,0,193.47,286.3Z"/><path class="cls-17" d="M202.8,274.86a9.43,9.43,0,0,0-1.62-2.77,8.1,8.1,0,0,0-2.42-1.95,7.09,7.09,0,0,0-3-.82,6.73,6.73,0,0,0-3,.55,7.27,7.27,0,0,0-2.47,1.76,8.21,8.21,0,0,0-1.64,2.72,9.39,9.39,0,0,0-.56,3.39,9.65,9.65,0,0,0,.68,3.42,9.34,9.34,0,0,0,1.72,2.8,8.1,8.1,0,0,0,2.49,1.89,7,7,0,0,0,3,.71,6.68,6.68,0,0,0,2.93-.64,7.32,7.32,0,0,0,2.36-1.79,8.4,8.4,0,0,0,1.57-2.66,9.45,9.45,0,0,0,.57-3.28A9.88,9.88,0,0,0,202.8,274.86Z"/><path class="cls-12" d="M202.8,274.86a9.43,9.43,0,0,0-1.62-2.77,8.31,8.31,0,0,0-2.19-1.83,8.84,8.84,0,0,1,1.71,1.53,9.19,9.19,0,0,1,1.61,2.77,9.41,9.41,0,0,1,.6,3.33,9.22,9.22,0,0,1-.56,3.28,8.56,8.56,0,0,1-1.57,2.67,7.29,7.29,0,0,1-2.36,1.78,6.55,6.55,0,0,1-2.93.64,7.09,7.09,0,0,1-3-.7l-.42-.23a6.77,6.77,0,0,0,.9.52,7,7,0,0,0,3,.71,6.68,6.68,0,0,0,2.93-.64,7.32,7.32,0,0,0,2.36-1.79,8.4,8.4,0,0,0,1.57-2.66,9.45,9.45,0,0,0,.57-3.28A9.88,9.88,0,0,0,202.8,274.86Z"/><path class="cls-18" d="M201.09,275.55a7.21,7.21,0,0,0-1.26-2.15,6.14,6.14,0,0,0-1.88-1.5,5.57,5.57,0,0,0-2.31-.63,5.3,5.3,0,0,0-2.32.43,5.56,5.56,0,0,0-1.9,1.37,6.45,6.45,0,0,0-1.27,2.1,7.24,7.24,0,0,0-.43,2.62,7.48,7.48,0,0,0,.52,2.64,7.29,7.29,0,0,0,1.32,2.16,6.43,6.43,0,0,0,1.92,1.47,5.42,5.42,0,0,0,2.31.56,5.17,5.17,0,0,0,2.28-.49,5.57,5.57,0,0,0,1.83-1.38,6.4,6.4,0,0,0,1.22-2.07,7.08,7.08,0,0,0,.44-2.55A7.57,7.57,0,0,0,201.09,275.55Z"/><path class="cls-17" d="M195.85,274.87a2.66,2.66,0,0,1,1.12.29,3.18,3.18,0,0,1,.91.73,3.5,3.5,0,0,1,.62,1,3.7,3.7,0,0,1,.24,1.25,3.85,3.85,0,0,1-.21,1.25,3.14,3.14,0,0,1-.6,1,2.79,2.79,0,0,1-.9.67,2.55,2.55,0,0,1-1.1.23,2.65,2.65,0,0,1-1.12-.28,3,3,0,0,1-.92-.71,3.4,3.4,0,0,1-.64-1A3.54,3.54,0,0,1,193,278a3.47,3.47,0,0,1,.21-1.26,3.18,3.18,0,0,1,.6-1,2.66,2.66,0,0,1,.91-.66A2.49,2.49,0,0,1,195.85,274.87Z"/><path class="cls-19" d="M194.37,280.63a3.48,3.48,0,0,1-.64-1.05,3.77,3.77,0,0,1-.24-1.27,3.42,3.42,0,0,1,.21-1.25,2.94,2.94,0,0,1,.61-1,2.59,2.59,0,0,1,.91-.67,2.46,2.46,0,0,1,1.12-.21,2.6,2.6,0,0,1,1.06.27,2.87,2.87,0,0,0-.43-.28,2.66,2.66,0,0,0-1.12-.29,2.49,2.49,0,0,0-1.12.22,2.66,2.66,0,0,0-.91.66,3.18,3.18,0,0,0-.6,1A3.47,3.47,0,0,0,193,278a3.54,3.54,0,0,0,.24,1.27,3.4,3.4,0,0,0,.64,1,3,3,0,0,0,.92.71h0A3.72,3.72,0,0,1,194.37,280.63Z"/><path class="cls-20" d="M191.08,284.33a9.59,9.59,0,0,1-1.72-2.8,9.87,9.87,0,0,1-.68-3.42,9.36,9.36,0,0,1,.56-3.39,8.3,8.3,0,0,1,1.65-2.72,7.26,7.26,0,0,1,2.46-1.77,6.92,6.92,0,0,1,3-.54,7.14,7.14,0,0,1,3,.82l.26.15a6.66,6.66,0,0,0-.85-.52,7.09,7.09,0,0,0-3-.82,6.73,6.73,0,0,0-3,.55,7.27,7.27,0,0,0-2.47,1.76,8.21,8.21,0,0,0-1.64,2.72,9.39,9.39,0,0,0-.56,3.39,9.65,9.65,0,0,0,.68,3.42,9.34,9.34,0,0,0,1.72,2.8,8.41,8.41,0,0,0,2,1.63A8.44,8.44,0,0,1,191.08,284.33Z"/><circle class="cls-16" cx="196.04" cy="262.77" r="2.56"/><circle class="cls-27" cx="195.56" cy="262.77" r="2.56"/><polygon class="cls-27" points="193.44 260.59 195.13 260.25 195.13 265.33 193.44 264.95 193.44 260.59"/><circle class="cls-9" cx="193.96" cy="262.77" r="2.24"/><g class="cls-28"><path d="M196.2,262.54a6.55,6.55,0,0,1,1-.36c.16,0,.32-.18.48-.1a.92.92,0,0,1,.48.44v.1a.93.93,0,0,1-.47.46c-.16.07-.32-.06-.48-.1a6.12,6.12,0,0,1-1-.34Z"/></g><g class="cls-28"><path d="M196.2,262.93a7.42,7.42,0,0,1,1-.35c.16,0,.32-.17.47-.1a1,1,0,0,1,.48.45v.1a.9.9,0,0,1-.48.45c-.15.08-.31-.05-.47-.1a6.18,6.18,0,0,1-1-.35Z"/></g><g class="cls-28"><path d="M195.34,264.49a5.59,5.59,0,0,1,.88-.15c.14,0,.31-.1.42,0a.85.85,0,0,1,.29.54l0,.09a1,1,0,0,1-.5.35c-.15,0-.26-.12-.38-.2a5.69,5.69,0,0,1-.71-.53Z"/></g><g class="cls-28"><path d="M195,264.73a4.43,4.43,0,0,1,.78-.11c.13,0,.28-.09.37,0a.86.86,0,0,1,.2.54l0,.1a.8.8,0,0,1-.48.31c-.13,0-.2-.12-.3-.2a4.2,4.2,0,0,1-.57-.55Z"/></g><g class="cls-28"><path d="M194.87,260.67a5.67,5.67,0,0,1,.73-.51c.12-.07.23-.23.38-.18a.82.82,0,0,1,.49.35l0,.1a.81.81,0,0,1-.3.52c-.12.1-.28,0-.42,0a4.71,4.71,0,0,1-.88-.17Z"/></g><g class="cls-28"><path d="M195.38,261a5,5,0,0,1,.72-.54c.12-.08.23-.23.38-.2a1,1,0,0,1,.51.34l0,.1a.84.84,0,0,1-.29.53c-.12.11-.28,0-.43,0a5.73,5.73,0,0,1-.88-.14Z"/></g><circle class="cls-16" cx="170.29" cy="263.25" r="2.56"/><circle class="cls-27" cx="169.81" cy="263.25" r="2.56"/><polygon class="cls-27" points="167.69 261.07 169.38 260.73 169.38 265.81 167.69 265.43 167.69 261.07"/><circle class="cls-9" cx="168.21" cy="263.25" r="2.24"/><g class="cls-28"><path d="M170.45,263a6.55,6.55,0,0,1,1-.36c.16,0,.32-.18.48-.1a.92.92,0,0,1,.48.44v.1a1,1,0,0,1-.48.46c-.16.07-.32-.06-.48-.1a6.12,6.12,0,0,1-1-.34Z"/></g><g class="cls-28"><path d="M170.45,263.41a7.42,7.42,0,0,1,1-.35c.16,0,.32-.17.48-.1a1,1,0,0,1,.47.45v.1a.93.93,0,0,1-.47.45c-.16.08-.32,0-.48-.1a6.18,6.18,0,0,1-1-.35Z"/></g><g class="cls-28"><path d="M169.59,265a5.79,5.79,0,0,1,.88-.15c.14,0,.31-.1.42,0a.85.85,0,0,1,.29.54l0,.09a.91.91,0,0,1-.5.35c-.15,0-.25-.12-.38-.2a5.69,5.69,0,0,1-.71-.53Z"/></g><g class="cls-28"><path d="M169.21,265.21a4.41,4.41,0,0,1,.79-.11c.12,0,.27-.09.36,0a.76.76,0,0,1,.2.54l0,.1a.8.8,0,0,1-.48.31c-.13,0-.2-.12-.3-.2a4.2,4.2,0,0,1-.57-.55Z"/></g><g class="cls-28"><path d="M169.12,261.15a5.67,5.67,0,0,1,.73-.51c.12-.07.23-.23.38-.18a.86.86,0,0,1,.5.35l0,.1a.86.86,0,0,1-.31.52c-.12.1-.28,0-.42,0a4.71,4.71,0,0,1-.88-.17Z"/></g><g class="cls-28"><path d="M169.64,261.48a4.94,4.94,0,0,1,.71-.54c.12-.08.23-.23.38-.2a.9.9,0,0,1,.51.34l0,.1a.84.84,0,0,1-.29.53c-.12.11-.28,0-.43,0a5.73,5.73,0,0,1-.88-.14Z"/></g><circle class="cls-16" cx="175.76" cy="263.28" r="1.25"/><circle class="cls-27" cx="175.53" cy="263.28" r="1.25"/><polygon class="cls-27" points="174.49 262.21 175.31 262.05 175.31 264.53 174.49 264.34 174.49 262.21"/><circle class="cls-9" cx="174.75" cy="263.28" r="1.09"/><g class="cls-28"><path d="M175.84,263.14a2.8,2.8,0,0,1,.46-.35c.08-.05.15-.18.23-.11a.88.88,0,0,1,.24.45v.1a.81.81,0,0,1-.22.45c-.08.08-.16-.05-.24-.09a2.86,2.86,0,0,1-.47-.35Z"/></g><g class="cls-28"><path d="M175.84,263.33a2.49,2.49,0,0,1,.47-.35c.07,0,.15-.17.23-.1a.89.89,0,0,1,.23.45v.1a.8.8,0,0,1-.23.45c-.08.08-.16-.05-.23-.1a2.12,2.12,0,0,1-.47-.35Z"/></g><g class="cls-28"><path d="M175.43,264.09a1.9,1.9,0,0,1,.47-.24c.07,0,.17-.14.21-.05a.87.87,0,0,1,.09.48l0,.1a.92.92,0,0,1-.3.39c-.08.06-.12-.09-.17-.14a2.61,2.61,0,0,1-.31-.44Z"/></g><g class="cls-28"><path d="M175.24,264.21a2.25,2.25,0,0,1,.44-.22c.07,0,.16-.13.19,0a.87.87,0,0,1,0,.48l0,.09a.93.93,0,0,1-.31.38c-.07.05-.09-.09-.13-.15a2,2,0,0,1-.22-.44Z"/></g><g class="cls-28"><path d="M175.18,262.23a2.53,2.53,0,0,1,.32-.43c.06-.05.1-.19.18-.14a1.07,1.07,0,0,1,.29.4l0,.1a.94.94,0,0,1-.1.48c0,.09-.15,0-.22-.05a2.47,2.47,0,0,1-.47-.26Z"/></g><g class="cls-28"><path d="M175.43,262.39a2.61,2.61,0,0,1,.31-.44c0-.06.09-.2.17-.14s.17.13.31.38l0,.1a.94.94,0,0,1-.09.49c0,.08-.14,0-.22,0a3,3,0,0,1-.47-.24Z"/></g><circle class="cls-16" cx="180.08" cy="263.28" r="1.25"/><circle class="cls-27" cx="179.84" cy="263.28" r="1.25"/><polygon class="cls-27" points="178.81 262.21 179.63 262.05 179.63 264.53 178.81 264.34 178.81 262.21"/><circle class="cls-9" cx="179.06" cy="263.28" r="1.09"/><g class="cls-28"><path d="M180.16,263.14a2.44,2.44,0,0,1,.46-.35c.08-.05.15-.18.23-.11a.88.88,0,0,1,.24.45v.1a.74.74,0,0,1-.23.45c-.07.08-.15-.05-.23-.09a2.49,2.49,0,0,1-.47-.35Z"/></g><g class="cls-28"><path d="M180.16,263.33a2.8,2.8,0,0,1,.46-.35c.08,0,.16-.17.24-.1a1,1,0,0,1,.23.45v.1a.87.87,0,0,1-.23.45c-.08.08-.16-.05-.24-.1a2.34,2.34,0,0,1-.46-.35Z"/></g><g class="cls-28"><path d="M179.74,264.09a2.09,2.09,0,0,1,.47-.24c.08,0,.17-.14.22-.05a.87.87,0,0,1,.09.48l0,.1a.92.92,0,0,1-.3.39c-.09.06-.12-.09-.17-.14a2.14,2.14,0,0,1-.31-.44Z"/></g><g class="cls-28"><path d="M179.56,264.21A2,2,0,0,1,180,264c.07,0,.16-.13.19,0a.87.87,0,0,1,0,.48l0,.09a.93.93,0,0,1-.31.38c-.07.05-.09-.09-.13-.15a2,2,0,0,1-.22-.44Z"/></g><g class="cls-28"><path d="M179.5,262.23a2.53,2.53,0,0,1,.32-.43c.06-.05.09-.19.17-.14a1,1,0,0,1,.29.4l0,.1a.91.91,0,0,1-.11.48c0,.09-.14,0-.21-.05a2.47,2.47,0,0,1-.47-.26Z"/></g><g class="cls-28"><path d="M179.75,262.39a2.61,2.61,0,0,1,.31-.44c.05-.06.09-.2.17-.14s.17.13.3.38l0,.1a.94.94,0,0,1-.09.49c-.05.08-.14,0-.22,0a3,3,0,0,1-.47-.24Z"/></g><circle class="cls-16" cx="184.4" cy="263.28" r="1.25"/><circle class="cls-27" cx="184.16" cy="263.28" r="1.25"/><polygon class="cls-27" points="183.13 262.21 183.95 262.05 183.95 264.53 183.13 264.34 183.13 262.21"/><circle class="cls-9" cx="183.38" cy="263.28" r="1.09"/><g class="cls-28"><path d="M184.47,263.14a2.86,2.86,0,0,1,.47-.35c.07-.05.15-.18.23-.11a.88.88,0,0,1,.24.45v.1a.8.8,0,0,1-.23.45c-.08.08-.16-.05-.23-.09a2.49,2.49,0,0,1-.47-.35Z"/></g><g class="cls-28"><path d="M184.47,263.33a3.35,3.35,0,0,1,.47-.35c.08,0,.16-.17.23-.1a.88.88,0,0,1,.24.45v.1a.79.79,0,0,1-.24.45c-.07.08-.15-.05-.23-.1a2.72,2.72,0,0,1-.47-.35Z"/></g><g class="cls-28"><path d="M184.06,264.09a2.09,2.09,0,0,1,.47-.24c.08,0,.17-.14.22-.05a.87.87,0,0,1,.09.48l0,.1a.92.92,0,0,1-.3.39c-.08.06-.11-.09-.17-.14a2.6,2.6,0,0,1-.3-.44Z"/></g><g class="cls-28"><path d="M183.88,264.21a2.19,2.19,0,0,1,.43-.22c.07,0,.17-.13.2,0a1,1,0,0,1,0,.48l0,.09a.93.93,0,0,1-.31.38c-.08.05-.09-.09-.13-.15a1.65,1.65,0,0,1-.22-.44Z"/></g><g class="cls-28"><path d="M183.82,262.23a2.09,2.09,0,0,1,.32-.43c.05-.05.09-.19.17-.14a1,1,0,0,1,.29.4l0,.1a.84.84,0,0,1-.1.48c-.05.09-.14,0-.22-.05a2.76,2.76,0,0,1-.46-.26Z"/></g><g class="cls-28"><path d="M184.07,262.39a2.14,2.14,0,0,1,.31-.44c.05-.06.08-.2.17-.14s.17.13.3.38l0,.1a.94.94,0,0,1-.09.49c0,.08-.15,0-.22,0a3.57,3.57,0,0,1-.48-.24Z"/></g><circle class="cls-16" cx="188.87" cy="263.28" r="1.25"/><circle class="cls-27" cx="188.64" cy="263.28" r="1.25"/><polygon class="cls-27" points="187.6 262.21 188.43 262.05 188.43 264.53 187.6 264.34 187.6 262.21"/><circle class="cls-9" cx="187.86" cy="263.28" r="1.09"/><g class="cls-28"><path d="M189,263.14a3.3,3.3,0,0,1,.46-.35c.08-.05.16-.18.24-.11a1,1,0,0,1,.24.45v.1a.8.8,0,0,1-.23.45c-.08.08-.16-.05-.24-.09a3.35,3.35,0,0,1-.47-.35Z"/></g><g class="cls-28"><path d="M189,263.33a2.86,2.86,0,0,1,.47-.35c.08,0,.15-.17.23-.1a.88.88,0,0,1,.24.45v.1a.79.79,0,0,1-.24.45c-.08.08-.15-.05-.23-.1a2.38,2.38,0,0,1-.47-.35Z"/></g><g class="cls-28"><path d="M188.54,264.09a1.9,1.9,0,0,1,.47-.24c.08,0,.17-.14.22-.05a.87.87,0,0,1,.09.48l0,.1a.92.92,0,0,1-.3.39c-.08.06-.11-.09-.17-.14a2.12,2.12,0,0,1-.3-.44Z"/></g><g class="cls-28"><path d="M188.35,264.21a2.57,2.57,0,0,1,.44-.22c.07,0,.17-.13.2,0a1,1,0,0,1,0,.48l0,.09a1,1,0,0,1-.3.38c-.08.05-.09-.09-.13-.15a2,2,0,0,1-.23-.44Z"/></g><g class="cls-28"><path d="M188.3,262.23a2.51,2.51,0,0,1,.31-.43c.06-.05.1-.19.18-.14a1,1,0,0,1,.29.4l0,.1a.94.94,0,0,1-.1.48c-.05.09-.14,0-.22-.05a2.41,2.41,0,0,1-.46-.26Z"/></g><g class="cls-28"><path d="M188.55,262.39a2.6,2.6,0,0,1,.3-.44c.06-.06.09-.2.18-.14s.17.13.3.38l0,.1a1,1,0,0,1-.08.49c-.05.08-.15,0-.22,0a3.57,3.57,0,0,1-.48-.24Z"/></g><path class="cls-29" d="M164.86,254.31v3.18s38.38-.72,38.38-.87V253"/><polygon class="cls-30" points="165.41 254.21 202.68 253.09 202.68 256.29 165.41 256.93 165.41 254.21"/><path class="cls-31" d="M155.07,250.57a3.52,3.52,0,0,1,2.91-2.36c2.65-.25,53-2.65,52.94-2.56s2-.22,2.43,3.57c0,0,.28-4.05-.37-4.66a1.31,1.31,0,0,0-1.27-.5l-53.44,2.74-2.17.16a1.39,1.39,0,0,0-1,1.25C155.1,249.17,155.07,250.57,155.07,250.57Z"/><path class="cls-20" d="M226,200.76a10.54,10.54,0,0,0-.78-2.32,7.51,7.51,0,0,0-1.19-1.8,5,5,0,0,0-1.5-1.16q-3.72-1.83-7.47-3.63,4.18,1.67,8.36,3.37a3.87,3.87,0,0,1,1.17.8,5.2,5.2,0,0,1,.95,1.3,8,8,0,0,1,.66,1.71,9.72,9.72,0,0,1,.3,2l0,.3-.43-.16Z"/><path class="cls-6" d="M225.08,189.12Q221,188.06,217,187v-.31q4.47,1.11,8.91,2.3Z"/><path class="cls-7" d="M214.53,194.12s0-.08,0-.13v-.13a.62.62,0,0,1,0-.13l.2-.27a5,5,0,0,1,.22-1.08,4.08,4.08,0,0,1,.38-.87,2.45,2.45,0,0,1,.51-.62,1.21,1.21,0,0,1,.59-.29l.17,0v-.32q18.4-2.58,36.92-4.14v.34h.2a1.28,1.28,0,0,1,.71.18,1.92,1.92,0,0,1,.61.57,3.24,3.24,0,0,1,.47.95,6.2,6.2,0,0,1,.29,1.28l.21,0v.14a.66.66,0,0,1,0,.14V190q-.75,52.56-1.52,105.11l-.2,0v.35a6,6,0,0,1-.18,1.39,4.08,4.08,0,0,1-.45,1.1,2,2,0,0,1-.64.69,1.14,1.14,0,0,1-.78.17l-.19,0v.34q-17.18-3-34.45-5v-.31l-.16,0a1.15,1.15,0,0,1-.66-.36,2.81,2.81,0,0,1-.54-.79,5.35,5.35,0,0,1-.37-1.11,6,6,0,0,1-.14-1.3v-.32l-.16,0q-.51-47.78-1.06-95.56Z"/><path class="cls-26" d="M277.81,197.77v.36a.49.49,0,0,1,0,.12q-1.24,45.06-2.52,90.11-9.33,2.91-18.57,6.12.84-51.85,1.65-103.7v-.56Q268.13,193.85,277.81,197.77Z"/><path class="cls-9" d="M274.74,190.87a4,4,0,0,1,1.25.91,5.87,5.87,0,0,1,1,1.46,8.68,8.68,0,0,1,.69,1.92,11.41,11.41,0,0,1,.31,2.27v.33q-9.67-3.91-19.43-7.56l0-.38a13.83,13.83,0,0,0-.36-2.59,10.63,10.63,0,0,0-.79-2.17,6.45,6.45,0,0,0-1.13-1.63,4,4,0,0,0-1.39-1Q264.85,186.51,274.74,190.87Z"/><path class="cls-20" d="M277.45,197.09a12.09,12.09,0,0,0-.81-2.59,8.43,8.43,0,0,0-1.26-2,5.35,5.35,0,0,0-1.6-1.32q-4-2.1-8-4.15,4.5,1.91,9,3.87a4,4,0,0,1,1.25.91,5.87,5.87,0,0,1,1,1.46,8.68,8.68,0,0,1,.69,1.92,11.41,11.41,0,0,1,.31,2.27v.33l-.46-.18Z"/><path class="cls-10" d="M258.57,190.2q9.75,3.65,19.43,7.56h-.19q-9.69-3.92-19.45-7.55Z"/><path class="cls-9" d="M254.72,301.74a6.59,6.59,0,0,0,1.11-1.74,10.89,10.89,0,0,0,.76-2.34,14.56,14.56,0,0,0,.3-2.8v-.35q9.24-3.19,18.55-6.12v.3a12.33,12.33,0,0,1-.3,2.43,10.07,10.07,0,0,1-.71,2,6.38,6.38,0,0,1-1,1.5,3.54,3.54,0,0,1-1.27.86q-9.44,3.48-18.78,7.24A3.77,3.77,0,0,0,254.72,301.74Z"/><path class="cls-12" d="M216,288.88q-.5-46.85-1-93.71a.48.48,0,0,1,0-.12v-.26s0-.08,0-.13l-.41.06v-.86s.63.07.63,0v-.26a.57.57,0,0,0,0-.13l.2-.27a5.74,5.74,0,0,1,.21-1.08,4.38,4.38,0,0,1,.38-.87,2.46,2.46,0,0,1,.5-.62,1.26,1.26,0,0,1,.51-.27v.86q18-2.53,36.18-4.07l0-1.26.4,0v.34h.2a1.26,1.26,0,0,1,.7.18,1.89,1.89,0,0,1,.6.57,3.5,3.5,0,0,1,.46.95,5.63,5.63,0,0,1,.28,1.28l.21,0a.66.66,0,0,0,0,.14v1.06l-.43,0s0,.09,0,.13v.14c0,.05,0,.09,0,.14a.66.66,0,0,1,0,.14q-.72,51.54-1.47,103.08l.38.06v.68l-.51-.08q.75-51.54,1.47-103.08v-.28s0-.09,0-.14a.57.57,0,0,0,0-.13h-.2l0-.26a5.67,5.67,0,0,0-.25-1.11,3.19,3.19,0,0,0-.45-.84,1.76,1.76,0,0,0-.59-.54,1.16,1.16,0,0,0-.68-.16h-.2v-.34h0q-17.85,1.54-35.62,4.06h0v.31l-.17,0a1.29,1.29,0,0,0-.57.29,2.14,2.14,0,0,0-.49.6,4,4,0,0,0-.37.86,5.58,5.58,0,0,0-.21,1.05l0,.25-.17,0v.13s0,.08,0,.13v.25q.31,47.29.61,94.58l-.54-1v-.62Z"/><path class="cls-24" d="M257.88,187.67a11.78,11.78,0,0,0-1.08-3.1,7.09,7.09,0,0,0-1.29-1.77,5.1,5.1,0,0,1,1.41,1.44,8.93,8.93,0,0,1,1.12,2.45,13,13,0,0,1,.51,3.13l0,.38-.21,0h-.19A16,16,0,0,0,257.88,187.67Z"/><path class="cls-13" d="M247.67,280.75a16.26,16.26,0,0,1-5,4.19,15.34,15.34,0,0,1-6.51,1.75,15.84,15.84,0,0,1-6.8-1.26,17.49,17.49,0,0,1-5.77-4,19.66,19.66,0,0,1-4-6.14,21.08,21.08,0,0,1-1.6-7.62,20.72,20.72,0,0,1,1.24-7.59,18.64,18.64,0,0,1,3.63-6.06,16,16,0,0,1,5.38-3.91,14.49,14.49,0,0,1,6.5-1.24,15.67,15.67,0,0,1,6.44,1.69,18.39,18.39,0,0,1,5.28,4.1,20.54,20.54,0,0,1,3.68,5.87,21.53,21.53,0,0,1,1.61,7.1,20.46,20.46,0,0,1-.88,7.15A18.11,18.11,0,0,1,247.67,280.75Z"/><path class="cls-13" d="M247.09,222a15.15,15.15,0,0,1-4.65,3.86,14,14,0,0,1-6,1.61,14.5,14.5,0,0,1-6.27-1.16,16.28,16.28,0,0,1-5.31-3.67,18.25,18.25,0,0,1-3.7-5.66,19.6,19.6,0,0,1-1.47-7,19.25,19.25,0,0,1,1.14-7,17.3,17.3,0,0,1,3.35-5.58,14.66,14.66,0,0,1,4.95-3.61,13.57,13.57,0,0,1,6-1.14,14.55,14.55,0,0,1,5.93,1.56,16.8,16.8,0,0,1,4.86,3.77,18.82,18.82,0,0,1,3.39,5.41A20,20,0,0,1,250.8,210a18.72,18.72,0,0,1-.81,6.58A16.89,16.89,0,0,1,247.09,222Z"/><path class="cls-12" d="M219.22,260.34a18.48,18.48,0,0,1,3.25-5.84,16.43,16.43,0,0,1,2.92-2.74,17.24,17.24,0,0,0-2.23,2.21,18.63,18.63,0,0,0-3.3,5.93,21.52,21.52,0,0,0-1.14,7.22A22.53,22.53,0,0,0,220,274.4a21,21,0,0,0,3.35,6.11,17.75,17.75,0,0,0,5,4.37,14.67,14.67,0,0,0,6.2,2l.49,0a12.18,12.18,0,0,1-1.35,0,14.35,14.35,0,0,1-6.1-1.94,17.62,17.62,0,0,1-4.9-4.29,20.68,20.68,0,0,1-3.29-6,22.16,22.16,0,0,1-1.27-7.16A21.06,21.06,0,0,1,219.22,260.34Z"/><path class="cls-12" d="M228.23,265.59a7.32,7.32,0,0,1,1.05-1.93,8.41,8.41,0,0,0-.5,1.1,8.76,8.76,0,0,0-.5,2.94,9,9,0,0,0,.52,3,8.14,8.14,0,0,0,1.37,2.47,7,7,0,0,0,2.05,1.72,5.78,5.78,0,0,0,2.51.72,5.06,5.06,0,0,0,.87,0,5.19,5.19,0,0,1-1.77.22,5.37,5.37,0,0,1-2.36-.68,6.18,6.18,0,0,1-1.92-1.62,7.73,7.73,0,0,1-1.3-2.32,8.32,8.32,0,0,1-.48-2.8A8,8,0,0,1,228.23,265.59Z"/><path class="cls-20" d="M244.25,282.61a18.51,18.51,0,0,0,3.7-5.92,21.22,21.22,0,0,0,1.47-7.54,21.78,21.78,0,0,0-1.24-7.67,19.73,19.73,0,0,0-3.61-6.29,16.87,16.87,0,0,0-5.36-4.2,14.51,14.51,0,0,0-6.47-1.51,14.1,14.1,0,0,0-5.51,1.14l.22-.11a14,14,0,0,1,6.3-1.5,14.5,14.5,0,0,1,6.46,1.51,16.82,16.82,0,0,1,5.36,4.21,19.73,19.73,0,0,1,3.61,6.29,22,22,0,0,1,1.24,7.68,21.61,21.61,0,0,1-1.48,7.53,18.71,18.71,0,0,1-3.71,5.92,15.37,15.37,0,0,1-5.1,3.62A15.57,15.57,0,0,0,244.25,282.61Z"/><path class="cls-20" d="M244.67,282.75a16.64,16.64,0,0,1-2.68,2.3,15.89,15.89,0,0,0,3.36-2.74,18.88,18.88,0,0,0,3.76-6,21.85,21.85,0,0,0,1.49-7.62,22.28,22.28,0,0,0-1.25-7.76,20.17,20.17,0,0,0-3.65-6.36,17.14,17.14,0,0,0-5.42-4.25,14.59,14.59,0,0,0-6.54-1.53,14.36,14.36,0,0,0-8.1,2.53c.34-.2.69-.4,1.05-.58a14.16,14.16,0,0,1,6.37-1.51,14.51,14.51,0,0,1,6.53,1.53A17,17,0,0,1,245,255a20.17,20.17,0,0,1,3.65,6.36,22.05,22.05,0,0,1,1.24,7.76,21.4,21.4,0,0,1-1.49,7.62A18.85,18.85,0,0,1,244.67,282.75Z"/><path class="cls-14" d="M254.66,188.22,214.1,241.37l.44,16.81L257,201.39S257.71,188.46,254.66,188.22Z"/><path class="cls-15" d="M255,216.27l-40.48,54.65-.44,15.32,42.79-59.64S258.13,216.51,255,216.27Z"/><path d="M245.81,222.66a14.32,14.32,0,0,1-4.56,3.66,12.86,12.86,0,0,1-5.78,1.38,13.24,13.24,0,0,1-5.92-1.38,15.6,15.6,0,0,1-4.92-3.86,18.16,18.16,0,0,1-3.31-5.77,19.93,19.93,0,0,1-1.14-7,19.58,19.58,0,0,1,1.35-6.91,17,17,0,0,1,3.4-5.43,14,14,0,0,1,4.85-3.41,12.51,12.51,0,0,1,5.75-.9,13.21,13.21,0,0,1,5.59,1.77,16.29,16.29,0,0,1,4.49,3.94,19,19,0,0,1,3,5.51,20.46,20.46,0,0,1,1.16,6.57,19.54,19.54,0,0,1-1,6.52A16.93,16.93,0,0,1,245.81,222.66Z"/><path class="cls-17" d="M248.34,217.75a17,17,0,0,1-3,5.35,14.25,14.25,0,0,1-4.57,3.66,13,13,0,0,1-5.78,1.38,13.42,13.42,0,0,1-5.93-1.39,15.6,15.6,0,0,1-4.92-3.86,18.16,18.16,0,0,1-3.31-5.77,20.15,20.15,0,0,1-1.13-7,19.58,19.58,0,0,1,1.35-6.91,17,17,0,0,1,3.41-5.43,13.88,13.88,0,0,1,4.85-3.4,12.39,12.39,0,0,1,5.75-.91,13.17,13.17,0,0,1,5.59,1.78,16,16,0,0,1,4.5,3.94,19,19,0,0,1,3,5.51,20.19,20.19,0,0,1,1.16,6.57A19.54,19.54,0,0,1,248.34,217.75Z"/><path class="cls-12" d="M248.34,217.75a17,17,0,0,1-3,5.35,14.5,14.5,0,0,1-2.69,2.51,15,15,0,0,0,2.05-2,17.2,17.2,0,0,0,3-5.44,19.61,19.61,0,0,0,1-6.63,20.38,20.38,0,0,0-1.18-6.68,19.35,19.35,0,0,0-3.07-5.6,16.36,16.36,0,0,0-4.56-4,13.69,13.69,0,0,0-5.69-1.81l-.45,0c.41,0,.82,0,1.24,0a13.17,13.17,0,0,1,5.59,1.78,16,16,0,0,1,4.5,3.94,19,19,0,0,1,3,5.51,20.19,20.19,0,0,1,1.16,6.57A19.54,19.54,0,0,1,248.34,217.75Z"/><path class="cls-18" d="M245.86,216.63a13.83,13.83,0,0,1-2.51,4.46,11.83,11.83,0,0,1-3.83,3,10.69,10.69,0,0,1-4.81,1.11,11.12,11.12,0,0,1-4.92-1.19,13,13,0,0,1-4.06-3.22A15.28,15.28,0,0,1,223,216a16.7,16.7,0,0,1-.94-5.83,16.36,16.36,0,0,1,1.1-5.73A14.22,14.22,0,0,1,226,200a11.65,11.65,0,0,1,4-2.85,10.35,10.35,0,0,1,4.8-.79,11,11,0,0,1,4.68,1.46,13.3,13.3,0,0,1,3.77,3.27,15.75,15.75,0,0,1,2.54,4.61,16.91,16.91,0,0,1,1,5.51A16.2,16.2,0,0,1,245.86,216.63Z"/><path class="cls-21" d="M234.9,216.79a4.8,4.8,0,0,0,2.2-.45,5.46,5.46,0,0,0,1.78-1.36,6.61,6.61,0,0,0,1.19-2,7.52,7.52,0,0,0,.43-2.54,7.69,7.69,0,0,0-.45-2.56,7,7,0,0,0-1.19-2.14,6,6,0,0,0-1.76-1.48,4.86,4.86,0,0,0-2.17-.62,4.78,4.78,0,0,0-2.19.41,5.27,5.27,0,0,0-1.8,1.33,6.34,6.34,0,0,0-1.23,2.06,7.16,7.16,0,0,0-.47,2.57,7.49,7.49,0,0,0,.43,2.61,7,7,0,0,0,1.21,2.16,6.08,6.08,0,0,0,1.81,1.48A5,5,0,0,0,234.9,216.79Z"/><path class="cls-12" d="M240.07,212.93a6.71,6.71,0,0,1-1,1.77,6.7,6.7,0,0,0,.45-1A7.83,7.83,0,0,0,240,211a8.09,8.09,0,0,0-.47-2.72,7.71,7.71,0,0,0-1.26-2.27,6.44,6.44,0,0,0-1.88-1.58,5.37,5.37,0,0,0-2.3-.66,5.3,5.3,0,0,0-.8,0,4.63,4.63,0,0,1,1.62-.2,4.86,4.86,0,0,1,2.17.62,6,6,0,0,1,1.76,1.48,7,7,0,0,1,1.19,2.14,7.69,7.69,0,0,1,.45,2.56A7.52,7.52,0,0,1,240.07,212.93Z"/><path class="cls-19" d="M230.7,206.28a8.18,8.18,0,0,0,0,5.55,7.52,7.52,0,0,0,1.3,2.32,6.55,6.55,0,0,0,1.94,1.59,5.39,5.39,0,0,0,2.37.62,5.14,5.14,0,0,0,.88-.05l-.06,0a4.8,4.8,0,0,1-2.2.45,5,5,0,0,1-2.21-.58,6.08,6.08,0,0,1-1.81-1.48,7.13,7.13,0,0,1-1.21-2.16,7.49,7.49,0,0,1-.43-2.61,7.16,7.16,0,0,1,.47-2.57,6.34,6.34,0,0,1,1.23-2.06,5.44,5.44,0,0,1,.48-.48A7.66,7.66,0,0,0,230.7,206.28Z"/><path class="cls-20" d="M225.37,197.32a17,17,0,0,0-3.39,5.43,19.58,19.58,0,0,0-1.35,6.91,20.16,20.16,0,0,0,1.14,7,18.16,18.16,0,0,0,3.31,5.77,15.42,15.42,0,0,0,4.92,3.85,13.28,13.28,0,0,0,5.93,1.38,12.79,12.79,0,0,0,5.06-1l-.2.1a13,13,0,0,1-5.78,1.38,13.42,13.42,0,0,1-5.93-1.39,15.6,15.6,0,0,1-4.92-3.86,18.16,18.16,0,0,1-3.31-5.77,20.15,20.15,0,0,1-1.13-7,19.58,19.58,0,0,1,1.35-6.91,17,17,0,0,1,3.41-5.43,14,14,0,0,1,4.67-3.33A14.38,14.38,0,0,0,225.37,197.32Z"/><path class="cls-22" d="M248.35,204.59a19.26,19.26,0,0,0-3.06-5.57,16.2,16.2,0,0,0-4.55-4,13.18,13.18,0,0,0-5.65-1.8,12.55,12.55,0,0,0-5.82.91,14.35,14.35,0,0,0-4.91,3.44,17.35,17.35,0,0,0-3.44,5.49,20,20,0,0,0-1.37,7,20.34,20.34,0,0,0,1.15,7.12,18.41,18.41,0,0,0,3.35,5.84,15.66,15.66,0,0,0,5,3.9,13.43,13.43,0,0,0,6,1.4,13,13,0,0,0,5.84-1.39,14.56,14.56,0,0,0,4.62-3.7,16.94,16.94,0,0,0,3-5.42,19.59,19.59,0,0,0,1-6.59A20.94,20.94,0,0,0,248.35,204.59Zm-17.69-7.43-1.6,1.6-1.73-1.83a13.39,13.39,0,0,1,2-1.2Zm-9.5,10.45,1.51-1.51,1.54,1.6-1.61,1.6-1.47-1.52Zm.84,9.27c-.17-.47-.31-.95-.44-1.44l.92-.93,1.53,1.57-1.6,1.61-.17-.17Zm12.91,9.39,1.57-1.59,1.48,1.53-.91.92c-.39.05-.79.09-1.2.11Zm11.42-12.48-1.56,1.58-1.47-1.55,1.57-1.58Zm-1-2,1.57-1.58,1.45,1.55-1.56,1.58Zm-14.64,1.68-1.51-1.57,1.6-1.6,1.5,1.58Zm2.07-1.09,1.5,1.56-1.59,1.59-1.5-1.56Zm-1.48-2.58,1.59-1.59,1.51,1.57-1.59,1.6Zm3.57.48,1.49,1.57-1.58,1.59-1.5-1.57Zm2,2.06,1.49,1.57-1.58,1.58-1.49-1.56Zm-1.46-2.56,1.58-1.59,1.49,1.57-1.58,1.59Zm3.54.48,1.48,1.56-1.57,1.59-1.49-1.57Zm2,2.05,1.47,1.56-1.57,1.58-1.47-1.55Zm-.59,3.64-1.58,1.58-1.48-1.55,1.58-1.58ZM238.21,218l-1.58,1.59L235.14,218l1.58-1.59Zm-3.54-.45L233.18,216l1.58-1.6,1.49,1.56Zm-.5.5-1.58,1.6-1.5-1.56,1.59-1.59Zm-3.56-.45L229.1,216l1.6-1.6,1.5,1.57Zm-2-2.05L227.11,214l1.6-1.6,1.51,1.57Zm-2-2.07-1.53-1.58,1.61-1.6,1.52,1.58Zm.58-3.69,1.6-1.6,1.52,1.59-1.6,1.59Zm2.11-2.1,1.6-1.6,1.51,1.59-1.6,1.59Zm2.1-2.1L233,204l1.5,1.59-1.59,1.59Zm3.58.49,1.49,1.58-1.58,1.59-1.5-1.58Zm.5-.5,1.58-1.59,1.5,1.58L237,207.15Zm3.55.49,1.48,1.58L239,209.22l-1.49-1.57Zm1.95,2.07,1.47,1.57-1.57,1.58-1.48-1.56Zm1.94,2.06,1.47,1.56-1.57,1.58-1.47-1.56Zm1.33,5.68-1.56,1.58-1.47-1.55,1.57-1.58Zm-2.06,2.07-1.56,1.59L239.17,218l1.57-1.58ZM240.15,220l-1.57,1.59-1.48-1.54,1.57-1.59Zm-2.07,2.09-1.57,1.58L235,222.16l1.57-1.59Zm-3.52-.44-1.5-1.54,1.58-1.6,1.49,1.55Zm-.5.5-1.58,1.59-1.5-1.54,1.58-1.59Zm-3.56-.44-1.5-1.55,1.59-1.59,1.5,1.55Zm-2-2L227,218.13l1.6-1.6,1.51,1.56Zm-2-2.05L225,216.07l1.6-1.6,1.52,1.57Zm-2-2.06L223,214l1.61-1.6,1.52,1.57Zm-1.43-5.78,1.61-1.6,1.53,1.59-1.61,1.6Zm2.11-2.11,1.61-1.6,1.52,1.59-1.6,1.6Zm2.12-2.11,1.6-1.6,1.52,1.6-1.6,1.6Zm2.11-2.1,1.6-1.6,1.51,1.6-1.6,1.6Zm2.1-2.1,1.6-1.6,1.51,1.6-1.59,1.6Zm3.58.51,1.5,1.59L235,205.07l-1.5-1.59Zm.51-.5,1.59-1.59,1.49,1.59L237.11,203Zm3.55.5,1.49,1.59-1.58,1.58-1.49-1.58Zm2,2.09,1.47,1.58L241,207.14l-1.48-1.58Zm1.94,2.07,1.47,1.57L243,209.2l-1.48-1.57Zm1.93,2.07,1.47,1.56-1.57,1.57-1.47-1.55Zm.5-.5,1.56-1.58,1.34,1.44a1.55,1.55,0,0,1,0,.21L247,209.18Zm3.09.87a19.92,19.92,0,0,1,.24,2.69l-1.41-1.51Zm.23,3.74a19.11,19.11,0,0,1-.31,2.86l-1.23-1.3Zm-.58,3.59-1.56,1.58-1.45-1.54,1.56-1.58Zm-2.05,2.07-1.56,1.58-1.46-1.54,1.56-1.58ZM244.14,220l-1.56,1.58L241.11,220l1.57-1.58Zm-.33,3.87a13.7,13.7,0,0,1-1.76,1.38L241,224.11l1.57-1.58Zm-3.29-.22-1.47-1.53,1.57-1.58,1.46,1.53Zm-.5.5-1.56,1.59L237,224.18l1.57-1.59Zm-1.47,2.69-.33.09.21-.21Zm-4.11-1L233,224.25l1.58-1.59L236,224.2Zm-.5.51-.77.78a12.43,12.43,0,0,1-2.17-.59l-.13-.13,1.58-1.6Zm-5.05-2,1.59-1.59,1.5,1.54-1.59,1.59Zm-.48-.49-1.51-1.54,1.59-1.6,1.51,1.55Zm-2-2-1.52-1.56,1.6-1.6L228,220.2Zm-2-2.05-1.53-1.57,1.61-1.6,1.52,1.57Zm-3-5.11c-.12-.51-.21-1-.28-1.56l.91.93Zm-.39-2.73,1.6-1.6,1.53,1.59-1.6,1.6L221,211.93Zm2.2-6.32,1.62-1.6,1.53,1.6-1.61,1.6Zm2.13-2.11,1.6-1.6,1.53,1.6-1.6,1.6Zm2.11-2.11,1.61-1.6,1.52,1.61L229,203Zm3.72-3.7,1.51,1.61-1.59,1.59-1.52-1.6Zm.51-.5,1.6-1.6,1.51,1.61-1.6,1.59Zm3.58.52,1.5,1.6-1.59,1.59-1.5-1.6Zm.51-.5,1.59-1.59,1.5,1.6-1.59,1.59Zm2.14-2.14a12,12,0,0,1,2.21.89l-.76.76-1.5-1.6Zm2.9,4.26-1.58,1.58-1.49-1.59,1.59-1.59Zm.47.5,1.48,1.59L241.16,203l-1.49-1.59Zm.5-.5,1.31-1.31a17.18,17.18,0,0,1,1.51,1.56l-1.34,1.34Zm2.92,4.17-1.57,1.58-1.48-1.58,1.58-1.58Zm.47.5,1.46,1.57L245,207.13l-1.46-1.58Zm.49-.5,1-.95a17.91,17.91,0,0,1,1,2.08l-.44.44Zm2.17,1.83.24.75-.48-.51Zm.08,12.16c-.1.29-.21.57-.32.85l-.42-.44.89-.9Zm-1.74,3.59-1-1.11,1.56-1.57.61.64A16.77,16.77,0,0,1,246.14,221.06Zm-1.07,1.45c-.24.29-.5.57-.76.84L243,222l1.56-1.58,1.14,1.2C245.53,221.94,245.3,222.23,245.07,222.51Zm-5.77,4.07-.38-.39,1.57-1.58.95,1-.67.37A13.47,13.47,0,0,1,239.3,226.58Zm-5.3.6.41-.41.46.47ZM228.18,225l.21-.21.82.84C228.86,225.47,228.51,225.27,228.18,225ZM226,223.23l.43-.44,1.51,1.55-.3.3A13.71,13.71,0,0,1,226,223.23Zm-.85-.92a15.83,15.83,0,0,1-1-1.29l.28-.27,1.52,1.55-.43.43A5,5,0,0,1,225.12,222.31Zm-2-2.82.75.77-.19.18C223.54,220.13,223.35,219.82,223.17,219.49Zm-2.24-9.24c0-.52,0-1,.09-1.55l1.07,1.11L220.94,211C220.93,210.73,220.93,210.49,220.93,210.25Zm.8-5.13.46.47-.8.8C221.49,206,221.6,205.53,221.73,205.12Zm.48-1.38a17.9,17.9,0,0,1,.76-1.66l1.34,1.4-1.61,1.61-.72-.75Zm2.45-4.23,1.77,1.86-1.61,1.6-1.48-1.55A15.38,15.38,0,0,1,224.66,199.51Zm.75-.88a16,16,0,0,1,1.35-1.26l1.79,1.89-1.61,1.6L225.12,199Zm7-3.91.32.34-1.6,1.6L230,195.42A11.37,11.37,0,0,1,232.45,194.72Zm4.06,0,.35.37-1.6,1.59-1.51-1.61.53-.53c.37,0,.74,0,1.12,0S236.15,194.66,236.51,194.72Zm6,2.84-1.25,1.25-1.48-1.6.92-.92A13.11,13.11,0,0,1,242.53,197.56Zm3.7,4.35L245.17,203l-1.47-1.58,1.3-1.3A17.44,17.44,0,0,1,246.23,201.91Z"/><path class="cls-20" d="M225,197.19a14.85,14.85,0,0,1,2.46-2.11,14.72,14.72,0,0,0-3.09,2.51,17.35,17.35,0,0,0-3.44,5.49,20,20,0,0,0-1.37,7,20.34,20.34,0,0,0,1.15,7.12,18.41,18.41,0,0,0,3.35,5.84,15.66,15.66,0,0,0,5,3.9,13.43,13.43,0,0,0,6,1.4,13,13,0,0,0,5.84-1.39,12.76,12.76,0,0,0,1.59-.94c-.32.2-.64.37-1,.54a13.09,13.09,0,0,1-5.84,1.39,13.52,13.52,0,0,1-6-1.4,15.7,15.7,0,0,1-5-3.91,18.34,18.34,0,0,1-3.34-5.83,20.11,20.11,0,0,1-1.15-7.12,19.81,19.81,0,0,1,1.37-7A17.17,17.17,0,0,1,225,197.19Z"/><path class="cls-16" d="M231.63,246.66a6.68,6.68,0,0,0,2.86.68,6.5,6.5,0,0,0,2.82-.61,7,7,0,0,0,2.26-1.72,7.88,7.88,0,0,0,1.51-2.56,9,9,0,0,0,.55-3.16,9.35,9.35,0,0,0-.58-3.19,8.66,8.66,0,0,0-1.55-2.67,7.87,7.87,0,0,0-2.32-1.87,6.91,6.91,0,0,0-2.87-.79,6.52,6.52,0,0,0-2.89.52,7,7,0,0,0-2.37,1.7,7.83,7.83,0,0,0-1.58,2.61,8.93,8.93,0,0,0-.54,3.26,9.36,9.36,0,0,0,.65,3.29,9,9,0,0,0,1.66,2.69A7.75,7.75,0,0,0,231.63,246.66Z"/><path class="cls-17" d="M240.59,235.66A8.84,8.84,0,0,0,239,233a7.57,7.57,0,0,0-2.32-1.87,6.91,6.91,0,0,0-2.87-.79,6.52,6.52,0,0,0-2.89.52,7,7,0,0,0-2.37,1.7,7.67,7.67,0,0,0-1.58,2.61,9,9,0,0,0-.54,3.27,9.35,9.35,0,0,0,.65,3.28,8.88,8.88,0,0,0,1.66,2.69,7.75,7.75,0,0,0,2.39,1.82,6.73,6.73,0,0,0,2.87.68,6.48,6.48,0,0,0,2.81-.61,7,7,0,0,0,2.27-1.72,8.1,8.1,0,0,0,1.51-2.56,9,9,0,0,0,.54-3.16A9.36,9.36,0,0,0,240.59,235.66Z"/><path class="cls-12" d="M240.59,235.66A8.84,8.84,0,0,0,239,233a7.63,7.63,0,0,0-2.1-1.75,7.81,7.81,0,0,1,1.64,1.46,8.54,8.54,0,0,1,1.55,2.67,9.28,9.28,0,0,1,0,6.35,8.18,8.18,0,0,1-1.51,2.56,6.9,6.9,0,0,1-2.27,1.72,6.21,6.21,0,0,1-2.81.61,6.73,6.73,0,0,1-2.87-.68,3,3,0,0,1-.4-.21,7.4,7.4,0,0,0,.86.5,6.73,6.73,0,0,0,2.87.68,6.48,6.48,0,0,0,2.81-.61,7,7,0,0,0,2.27-1.72,8.1,8.1,0,0,0,1.51-2.56,9,9,0,0,0,.54-3.16A9.36,9.36,0,0,0,240.59,235.66Z"/><path class="cls-18" d="M239,236.32a6.65,6.65,0,0,0-1.22-2.06,6.12,6.12,0,0,0-1.8-1.45,5.44,5.44,0,0,0-2.22-.6,5.11,5.11,0,0,0-2.24.42,5.56,5.56,0,0,0-1.82,1.31,6.34,6.34,0,0,0-1.22,2,6.91,6.91,0,0,0-.41,2.52,7.18,7.18,0,0,0,.5,2.54,6.88,6.88,0,0,0,1.27,2.08,6.15,6.15,0,0,0,1.85,1.41,5.22,5.22,0,0,0,2.22.53,5,5,0,0,0,2.18-.46,5.57,5.57,0,0,0,1.76-1.33,6.4,6.4,0,0,0,1.18-2,7.24,7.24,0,0,0,.42-2.45A7.53,7.53,0,0,0,239,236.32Z"/><path class="cls-17" d="M233.91,235.67A2.83,2.83,0,0,1,235,236a3.09,3.09,0,0,1,.88.7,3.34,3.34,0,0,1,.59,1,3.42,3.42,0,0,1,.22,1.21,3.1,3.1,0,0,1-.2,1.19,2.93,2.93,0,0,1-.57,1,2.8,2.8,0,0,1-.86.64,2.42,2.42,0,0,1-1.07.22,2.49,2.49,0,0,1-1.07-.27,3.06,3.06,0,0,1-.89-.68,3.41,3.41,0,0,1-.84-2.23,3.21,3.21,0,0,1,.2-1.21,2.79,2.79,0,0,1,.58-1,2.62,2.62,0,0,1,.88-.64A2.41,2.41,0,0,1,233.91,235.67Z"/><path class="cls-19" d="M232.49,241.21a3.14,3.14,0,0,1-.61-1,3.49,3.49,0,0,1-.24-1.22,3.66,3.66,0,0,1,.2-1.21,3.19,3.19,0,0,1,.59-1,2.73,2.73,0,0,1,.87-.64,2.45,2.45,0,0,1,1.08-.2,2.41,2.41,0,0,1,1,.26A3.62,3.62,0,0,0,235,236a2.83,2.83,0,0,0-1.08-.28,2.41,2.41,0,0,0-1.07.21,2.62,2.62,0,0,0-.88.64,2.79,2.79,0,0,0-.58,1,3.21,3.21,0,0,0-.2,1.21,3.41,3.41,0,0,0,.84,2.23,3.06,3.06,0,0,0,.89.68h0A2.85,2.85,0,0,1,232.49,241.21Z"/><path class="cls-20" d="M229.33,244.77a9,9,0,0,1-1.66-2.69,9.45,9.45,0,0,1-.65-3.29,8.86,8.86,0,0,1,.54-3.26,8,8,0,0,1,1.58-2.62,6.92,6.92,0,0,1,2.37-1.69,6.39,6.39,0,0,1,2.89-.52,6.75,6.75,0,0,1,2.87.78l.26.15a5.8,5.8,0,0,0-.82-.5,6.91,6.91,0,0,0-2.87-.79,6.52,6.52,0,0,0-2.89.52,7,7,0,0,0-2.37,1.7,7.67,7.67,0,0,0-1.58,2.61,9,9,0,0,0-.54,3.27,9.35,9.35,0,0,0,.65,3.28,8.88,8.88,0,0,0,1.66,2.69,7.7,7.7,0,0,0,1.92,1.56A8.12,8.12,0,0,1,229.33,244.77Z"/><path class="cls-10" d="M213.7,288.65V289a15,15,0,0,0,.35,3.15,12,12,0,0,0,.89,2.66,6.47,6.47,0,0,0,1.3,1.9,3,3,0,0,0,1.59.87l.16,0v-.32c0-1.4,0-2.8,0-4.2v-.31l-.15,0a1.22,1.22,0,0,1-.65-.36,3.14,3.14,0,0,1-.53-.77,5.36,5.36,0,0,1-.36-1.09,6.52,6.52,0,0,1-.14-1.28v-.31l-.16,0-2.1-.21Z"/><path class="cls-10" d="M216.94,186.72l-.17,0a3.22,3.22,0,0,0-1.58.82,6.4,6.4,0,0,0-1.29,1.73,10.31,10.31,0,0,0-.91,2.44,14.07,14.07,0,0,0-.42,2.92V195l.17,0,2.23-.31.16,0,0-.25a5.57,5.57,0,0,1,.22-1,4.54,4.54,0,0,1,.37-.86,2.34,2.34,0,0,1,.5-.6,1.32,1.32,0,0,1,.58-.29l.17,0v-.31c0-1.41,0-2.81,0-4.22Z"/><path class="cls-23" d="M212.72,195.22v-.12a.53.53,0,0,1,0-.13l2.23-.31c0,.05,0,.09,0,.13v.26a.24.24,0,0,0,0,.12q.51,46.86,1,93.71l-2.1-.21q-.56-46.6-1.14-93.19v-.26Z"/><path class="cls-23" d="M251.7,302.54q-16.8-3.1-33.7-5.3c0-1.4,0-2.8,0-4.2q16.95,2,33.8,4.93Z"/><path class="cls-23" d="M253.17,187.18Q235,188.73,217,191.25c0-1.41,0-2.81,0-4.22q18.09-2.72,36.28-4.43Z"/><path class="cls-23" d="M258.36,190.36v.42q-.81,51.85-1.65,103.7l-2.56-.43q.75-51.54,1.47-103.08a.66.66,0,0,0,0-.14c0-.05,0-.09,0-.14v-.14s0-.09,0-.13l2.75-.2Z"/><path class="cls-10" d="M253.23,182.25v.35l-.06,4.59v.34h.2a1.2,1.2,0,0,1,.69.16,1.89,1.89,0,0,1,.6.54,3.19,3.19,0,0,1,.45.84,5,5,0,0,1,.26,1.11l0,.26h.2l2.75-.2.21,0,0-.38a13,13,0,0,0-.51-3.13,8.93,8.93,0,0,0-1.12-2.45,4.94,4.94,0,0,0-1.58-1.55,3.2,3.2,0,0,0-1.9-.46Z"/><path class="cls-10" d="M254,294v.34a5.89,5.89,0,0,1-.18,1.37,3.86,3.86,0,0,1-.43,1.07,2.11,2.11,0,0,1-.64.68,1.08,1.08,0,0,1-.76.17l-.18,0V298l-.06,4.57v.34l.19,0a2.71,2.71,0,0,0,1.88-.37,4.8,4.8,0,0,0,1.58-1.64,9.41,9.41,0,0,0,1.1-2.64,14.35,14.35,0,0,0,.44-3.4v-.35l-.19,0-2.56-.43Z"/><path class="cls-20" d="M212.67,193.47a11.42,11.42,0,0,1,.34-1.34,10.1,10.1,0,0,1,1-2.32,5.85,5.85,0,0,1,1.38-1.58,3,3,0,0,1,1.53-.63v-.88l-.17,0a3.22,3.22,0,0,0-1.58.82,6.4,6.4,0,0,0-1.29,1.73,10.31,10.31,0,0,0-.91,2.44A13.41,13.41,0,0,0,212.67,193.47Z"/><path class="cls-17" d="M219.22,260.34a18.48,18.48,0,0,1,3.25-5.84,15.44,15.44,0,0,1,5-4,14,14,0,0,1,6.3-1.5,14.5,14.5,0,0,1,6.46,1.51,16.82,16.82,0,0,1,5.36,4.21,19.73,19.73,0,0,1,3.61,6.29,22,22,0,0,1,1.24,7.68,21.61,21.61,0,0,1-1.48,7.53,18.71,18.71,0,0,1-3.71,5.92,15.29,15.29,0,0,1-5.29,3.7,13.4,13.4,0,0,1-6.27,1,14.35,14.35,0,0,1-6.1-1.94,17.62,17.62,0,0,1-4.9-4.29,20.68,20.68,0,0,1-3.29-6,22.16,22.16,0,0,1-1.27-7.16A21.06,21.06,0,0,1,219.22,260.34Z"/><path class="cls-18" d="M221.92,261.56a15.27,15.27,0,0,1,2.73-4.87,12.93,12.93,0,0,1,4.18-3.31,11.6,11.6,0,0,1,5.24-1.21,12,12,0,0,1,5.36,1.29,14.23,14.23,0,0,1,4.44,3.51,16.81,16.81,0,0,1,3,5.23,18.39,18.39,0,0,1,1,6.35,17.78,17.78,0,0,1-1.21,6.25,15.42,15.42,0,0,1-3,4.93,12.92,12.92,0,0,1-4.39,3.11,11.26,11.26,0,0,1-5.23.85,12,12,0,0,1-5.1-1.58,14.58,14.58,0,0,1-4.12-3.58,17.32,17.32,0,0,1-2.76-5,18.48,18.48,0,0,1-1.05-6A17.43,17.43,0,0,1,221.92,261.56Z"/><path class="cls-21" d="M233.87,261.37a5.36,5.36,0,0,0-2.4.5,5.94,5.94,0,0,0-1.94,1.49,7,7,0,0,0-1.3,2.23,8,8,0,0,0-.46,2.76,8.32,8.32,0,0,0,.48,2.8,7.73,7.73,0,0,0,1.3,2.32,6.18,6.18,0,0,0,1.92,1.62,5.37,5.37,0,0,0,2.36.68,5.21,5.21,0,0,0,2.39-.45,5.89,5.89,0,0,0,2-1.45,7.18,7.18,0,0,0,1.34-2.24,8.19,8.19,0,0,0,.51-2.8,8.36,8.36,0,0,0-.47-2.85,7.61,7.61,0,0,0-1.32-2.35,6.47,6.47,0,0,0-2-1.62A5.62,5.62,0,0,0,233.87,261.37Z"/><path class="cls-19" d="M238.44,272.84a8.66,8.66,0,0,0,.55-3,8.8,8.8,0,0,0-.51-3.05,8.19,8.19,0,0,0-1.42-2.52,7,7,0,0,0-2.11-1.73,5.81,5.81,0,0,0-2.59-.68,6,6,0,0,0-1,0l.06,0a5.36,5.36,0,0,1,2.4-.5,5.62,5.62,0,0,1,2.41.64,6.47,6.47,0,0,1,2,1.62,7.61,7.61,0,0,1,1.32,2.35,8.36,8.36,0,0,1,.47,2.85,8.19,8.19,0,0,1-.51,2.8,7.18,7.18,0,0,1-1.34,2.24,6.47,6.47,0,0,1-.53.52A7.26,7.26,0,0,0,238.44,272.84Z"/><path class="cls-22" d="M219.27,274.71a20.88,20.88,0,0,0,3.33,6.07,17.6,17.6,0,0,0,5,4.34,14.63,14.63,0,0,0,6.16,2,13.54,13.54,0,0,0,6.34-1,15.44,15.44,0,0,0,5.35-3.75,18.69,18.69,0,0,0,3.75-6,21.63,21.63,0,0,0,1.5-7.62,22.28,22.28,0,0,0-1.25-7.76,20.17,20.17,0,0,0-3.65-6.36,17.29,17.29,0,0,0-5.42-4.26,14.86,14.86,0,0,0-6.54-1.53,14.3,14.3,0,0,0-6.37,1.52,15.79,15.79,0,0,0-5,4,18.63,18.63,0,0,0-3.28,5.9,21.49,21.49,0,0,0-1.12,7.18A22.39,22.39,0,0,0,219.27,274.71Zm19.28,8.09,1.75-1.74,1.88,2a13.38,13.38,0,0,1-2.16,1.31Zm10.35-11.38-1.65,1.64-1.67-1.74,1.75-1.75,1.6,1.65ZM248,261.31c.18.51.34,1,.48,1.57l-1,1-1.67-1.71,1.75-1.75.19.18C247.82,260.84,247.9,261.07,248,261.31Zm-14.07-10.24-1.72,1.74-1.61-1.67,1-1c.43-.06.87-.1,1.31-.12Zm-12.45,13.6,1.7-1.72,1.6,1.69-1.71,1.72Zm1.05,2.23-1.7,1.72-1.59-1.69,1.7-1.72Zm16-1.84,1.65,1.72-1.74,1.74-1.65-1.72Zm-2.25,1.2-1.64-1.7,1.73-1.74,1.64,1.7Zm1.61,2.81-1.74,1.74-1.63-1.72,1.73-1.74Zm-3.89-.53-1.63-1.71,1.73-1.73,1.63,1.71Zm-2.14-2.24-1.62-1.71,1.72-1.73,1.62,1.7Zm1.59,2.79-1.72,1.73-1.63-1.71,1.73-1.73Zm-3.86-.52-1.61-1.7,1.71-1.73,1.62,1.7Zm-2.12-2.24-1.61-1.7,1.71-1.72,1.62,1.69Zm.65-4,1.71-1.73,1.62,1.69-1.72,1.73Zm2.25-2.28,1.72-1.73,1.62,1.69-1.72,1.73Zm3.85.5,1.64,1.69L234.08,264l-1.63-1.7Zm.55-.55,1.72-1.74,1.64,1.7-1.73,1.73Zm3.88.49,1.64,1.7L238.51,264l-1.64-1.71Zm2.17,2.24,1.65,1.72-1.74,1.74L239,264.51Zm2.17,2.26,1.67,1.72-1.75,1.74-1.66-1.72Zm-.63,4-1.75,1.75-1.65-1.73,1.74-1.74Zm-2.3,2.3-1.74,1.74-1.65-1.73,1.74-1.74Zm-2.29,2.29L236,275.37l-1.64-1.73,1.73-1.74Zm-3.9-.54-1.63-1.72,1.73-1.74,1.64,1.72Zm-.54.55-1.74,1.73-1.62-1.73,1.72-1.73Zm-3.87-.54-1.62-1.72,1.72-1.72,1.62,1.71Zm-2.13-2.26-1.61-1.71,1.72-1.72,1.61,1.71Zm-2.12-2.24-1.6-1.7,1.71-1.72,1.61,1.69Zm-1.45-6.19,1.7-1.72,1.61,1.69-1.71,1.72Zm2.24-2.26,1.71-1.73,1.61,1.69-1.71,1.72Zm2.25-2.27,1.71-1.73,1.62,1.68-1.72,1.73Zm2.25-2.27,1.72-1.73,1.62,1.68-1.72,1.73Zm3.85.48,1.63,1.68-1.72,1.73-1.63-1.68Zm.55-.55,1.72-1.74,1.63,1.68-1.73,1.74Zm3.87.48,1.64,1.69-1.73,1.74L237,257.76Zm2.16,2.22,1.65,1.7-1.74,1.74-1.64-1.7Zm2.18,2.24,1.66,1.71L243,263.93l-1.66-1.71Zm2.18,2.25,1.67,1.71-1.75,1.75-1.67-1.71ZM246.8,269l-1.75,1.75L243.38,269l1.75-1.75Zm-2.3,2.3-1.76,1.75-1.66-1.74,1.75-1.74Zm-2.31,2.3-1.75,1.75-1.65-1.74,1.74-1.74Zm-2.3,2.3-1.74,1.74-1.65-1.74,1.74-1.74Zm-2.29,2.29-1.75,1.73-1.64-1.74,1.74-1.74Zm-3.91-.56-1.63-1.73,1.73-1.74,1.64,1.74Zm-.54.55-1.74,1.73-1.63-1.74,1.73-1.73Zm-3.88-.55-1.62-1.73,1.72-1.73,1.63,1.73Zm-2.13-2.28-1.61-1.72,1.72-1.72,1.61,1.72ZM225,273.11l-1.6-1.71,1.71-1.72,1.61,1.71Zm-2.11-2.25-1.59-1.7,1.71-1.72,1.59,1.7Zm-.54.54-1.7,1.72-1.46-1.56c0-.08,0-.15-.05-.23l1.62-1.63Zm-3.37-.95a21.56,21.56,0,0,1-.26-2.93l1.54,1.64Zm-.25-4.07a19.86,19.86,0,0,1,.34-3.12l1.34,1.42Zm.63-3.92,1.7-1.72,1.59,1.68-1.7,1.72Zm2.24-2.26,1.7-1.72,1.59,1.68-1.7,1.72Zm2.23-2.26,1.71-1.72,1.6,1.67-1.71,1.73Zm.37-4.22a14.31,14.31,0,0,1,1.91-1.5l1.17,1.21-1.71,1.72Zm3.58.24,1.61,1.66-1.71,1.73-1.61-1.67Zm.54-.55,1.71-1.72,1.61,1.66L230,255.08Zm1.61-2.93.36-.09-.23.23Zm4.48,1.12,1.62,1.67L234.33,255l-1.62-1.68Zm.54-.55.84-.85a14.8,14.8,0,0,1,2.37.64l.14.15-1.72,1.74Zm5.51,2.15-1.73,1.74-1.64-1.68,1.73-1.74Zm.52.53,1.65,1.68-1.74,1.75-1.64-1.69Zm2.17,2.22,1.65,1.69-1.74,1.75-1.65-1.7Zm2.18,2.23,1.67,1.71-1.75,1.74-1.66-1.7Zm3.33,5.57c.12.55.22,1.12.3,1.7l-1-1Zm.42,3-1.74,1.74-1.68-1.73,1.76-1.75,1.66,1.71Zm-2.4,6.88-1.76,1.75-1.67-1.74,1.75-1.75Zm-2.31,2.31-1.76,1.74L241,275.92l1.75-1.75Zm-2.31,2.29L240.33,280l-1.66-1.75,1.75-1.74Zm-4.05,4-1.66-1.75,1.75-1.74,1.65,1.75Zm-.56.55-1.74,1.74-1.65-1.76,1.74-1.73Zm-3.91-.57-1.63-1.75,1.73-1.73,1.64,1.74Zm-.54.55-1.74,1.73-1.63-1.75,1.73-1.73Zm-2.34,2.33a14,14,0,0,1-2.41-1l.83-.83,1.63,1.76Zm-3.17-4.64,1.73-1.73,1.62,1.74-1.73,1.73Zm-.51-.55-1.61-1.74,1.72-1.72,1.62,1.73Zm-.54.54L225,281.89a18.81,18.81,0,0,1-1.64-1.7l1.45-1.46Zm-3.19-4.54L225,274.2l1.61,1.72-1.72,1.72Zm-.5-.55-1.6-1.71,1.71-1.72,1.6,1.71Zm-.54.55-1,1a19.33,19.33,0,0,1-1-2.26l.48-.49Zm-2.36-2c-.1-.27-.18-.54-.27-.82l.53.56Zm-.09-13.26c.11-.31.22-.62.35-.92l.45.48-1,1C219.66,261,219.72,260.84,219.78,260.66Zm1.89-3.91,1.14,1.21-1.69,1.71-.67-.69A18.37,18.37,0,0,1,221.67,256.75Zm1.17-1.58a12.09,12.09,0,0,1,.83-.92l1.38,1.45-1.7,1.71-1.24-1.3C222.34,255.79,222.58,255.47,222.84,255.17Zm6.29-4.43.41.42-1.71,1.73-1-1.08.73-.4A13.18,13.18,0,0,1,229.13,250.74Zm5.78-.66-.45.45L234,250C234.27,250,234.59,250,234.91,250.08Zm6.35,2.33-.24.24-.89-.92C240.51,251.94,240.89,252.17,241.26,252.41Zm2.41,2-.48.47-1.65-1.68.33-.33A16.29,16.29,0,0,1,243.67,254.39Zm.92,1c.38.45.75.92,1.09,1.41l-.3.3-1.66-1.69.46-.47Zm2.12,3.08-.81-.83.2-.2C246.31,257.76,246.52,258.11,246.71,258.46Zm2.44,10.08c0,.56,0,1.13-.1,1.68L247.89,269l1.26-1.25C249.15,268,249.16,268.27,249.15,268.54Zm-.87,5.59-.5-.52.87-.86C248.54,273.22,248.42,273.68,248.28,274.13Zm-.52,1.5a18.57,18.57,0,0,1-.83,1.81l-1.46-1.53,1.76-1.75.78.81C247.93,275.19,247.85,275.41,247.76,275.63Zm-2.67,4.62-1.93-2,1.75-1.75,1.62,1.69A16.12,16.12,0,0,1,245.09,280.25Zm-.82.95a17.16,17.16,0,0,1-1.47,1.37l-2-2.06,1.75-1.74,2,2.08C244.48,281,244.38,281.09,244.27,281.2Zm-7.67,4.27-.35-.38,1.75-1.74,1.26,1.35A12.69,12.69,0,0,1,236.6,285.47Zm-4.43,0-.38-.4,1.74-1.73,1.65,1.76-.58.57c-.4,0-.8,0-1.21,0A12,12,0,0,1,232.17,285.46Zm-6.57-3.09L227,281l1.62,1.74-1,1A15.69,15.69,0,0,1,225.6,282.37Zm-4-4.75,1.16-1.16,1.61,1.72-1.42,1.42A17.24,17.24,0,0,1,221.57,277.62Z"/><polyline class="cls-16" points="256.9 294.51 275.28 288.36 277.59 206.04 257.45 247.99 256.9 294.51 275.45 288.39 256.81 294.5"/><path class="cls-11" d="M257.93,300.35a3.53,3.53,0,0,0,.65-1,4.74,4.74,0,0,0,.48-1.34,5.74,5.74,0,0,0,.07-1.56l0-.19c5-1.7,11-3.5,16-5.1,0,.06-.14.47-.14.52a7.39,7.39,0,0,1-.44,1.22,12.6,12.6,0,0,1-.75,1.3,3.64,3.64,0,0,1-.81.85,3.6,3.6,0,0,1-1.06.56c-5.12,1.81-10.29,4-15.33,5.88A6.23,6.23,0,0,0,257.93,300.35Z"/><polygon class="cls-32" points="75.28 177.36 74.35 187.99 86.56 194.74 84.02 204.34 96.08 210.69 93.48 220.46 108.14 227.77 98.47 218.98 102.26 205.47 90.88 199.49 93.86 187.33 75.28 177.36"/><polygon class="cls-33" points="83.17 300.91 83.27 292.72 90.91 287.86 89.99 280.43 97.52 275.87 96.58 268.3 105.7 263.07 99.44 269.56 100.86 280.03 93.75 284.33 94.78 293.73 83.17 300.91"/><polygon class="cls-32" points="47.99 271.7 51.46 263.15 65.88 264.93 67.39 256.25 81.49 258.24 83.02 249.4 100 252.13 87.17 253.32 85.26 265.65 71.94 263.76 69.81 274.61 47.99 271.7"/><polygon class="cls-33" points="19 207.05 24.8 221.5 48.84 218.89 51.37 233.51 74.88 230.54 77.44 245.41 105.76 241.28 84.37 238.94 81.15 218.19 58.95 221 55.37 202.73 19 207.05"/><path class="cls-34" d="M127.4,86.93a17.43,17.43,0,0,0-1-3.09A12.71,12.71,0,0,0,125,81a9.49,9.49,0,0,0-1.42-2A12.14,12.14,0,0,0,121,76.63l-1.43-.82c-.62-.35-.19-.18-2-.75a3.78,3.78,0,0,0-1.55-.24,6,6,0,0,0-2.64.19,8,8,0,0,0-1.22.27,11.28,11.28,0,0,0-3,1l-1,.43-1.19.64-1.17.62-.44.32-.88.64a13.78,13.78,0,0,0-1.83,1.58,9.27,9.27,0,0,0-1.13,1.17c-.76.83-.54.42-2.84,4.14a13.3,13.3,0,0,0-1.14,3.62c-.12,1.48-.1,1.3-.16,2a10.58,10.58,0,0,0,.24,2.48,12.42,12.42,0,0,0,1,3.29c1,1.87.54,1.24,3.46,4.75A19.11,19.11,0,0,0,104.6,104a17.48,17.48,0,0,0,2.91,1.82,32.44,32.44,0,0,0,4.56,1.65l1.37.21A24.25,24.25,0,0,0,117,108a9.75,9.75,0,0,0,4-1.19,11.11,11.11,0,0,0,2.94-2.47,3.77,3.77,0,0,0,.71-.9l.66-1a6.62,6.62,0,0,0,.85-1.59,10.26,10.26,0,0,0,.9-2.31,14.24,14.24,0,0,0,.73-3.12,16.24,16.24,0,0,0,.28-3.27A24.8,24.8,0,0,0,127.4,86.93Z"/><path class="cls-35" d="M127.4,86.93a22.54,22.54,0,0,0-1.78-4.86L124.33,80l-1.54-1.83L121,76.63l-1.91-1.09-2-.64L115,74.74l-2.1.36-2,.89-1.9,1.42-1.69,1.9-1.4,2.35-1.06,2.71-.66,3-.24,3.13.2,3.17.63,3.08,1,2.87,1.38,2.55,1.67,2.16,1.9,1.7,2,1.19,2.12.66L117,108a9.72,9.72,0,0,0,4-1.19,12.53,12.53,0,0,0,3.32-2.88l1.31-1.94,1-2.21a21.92,21.92,0,0,0,1.23-5l.16-2.63A25,25,0,0,0,127.4,86.93Z"/><path class="cls-36" d="M127.4,86.93a22.54,22.54,0,0,0-1.78-4.86L124.33,80l-1.54-1.83L121,76.63l-1.91-1.09-2-.64L115,74.74l-2.1.36-2,.89-1.9,1.42-1.69,1.9-1.4,2.35-1.06,2.71-.66,3-.24,3.13.2,3.17.63,3.08,1,2.87,1.38,2.55,1.67,2.16,1.9,1.7,2,1.19,2.12.66L117,108a9.72,9.72,0,0,0,4-1.19,12.53,12.53,0,0,0,3.32-2.88l1.31-1.94,1-2.21a21.92,21.92,0,0,0,1.23-5l.16-2.63A25,25,0,0,0,127.4,86.93Zm-.21,7.71A20.64,20.64,0,0,1,126,99.33l-1,2.09-1.24,1.84a11.83,11.83,0,0,1-3.14,2.72,9.15,9.15,0,0,1-3.76,1.12l-2-.13-2-.63L111,105.21l-1.79-1.6-1.58-2-1.3-2.42-1-2.71-.6-2.91-.18-3,.22-3,.63-2.81,1-2.57L107.72,80l1.6-1.8,1.8-1.34L113,76l2-.35,2,.15,1.92.61,1.82,1,1.65,1.41,1.45,1.73,1.23,2a21.84,21.84,0,0,1,1.68,4.59,23.75,23.75,0,0,1,.56,5Z"/><path class="cls-37" d="M128.6,124.9c-.22-.71-.08-.2-.64-2.39a43.25,43.25,0,0,1-.75-5.28c-.12-2.66-.1-2.33.19-3.58,1.06-3.56-.42-2.29-.74-6a21.31,21.31,0,0,1,0-3.2l-.58-.21-.59-.2-.58-.2-.57-.21-1-.25-1-.25-1-.25-1-.25-.22,0-.23,0-.22,0-.23,0-3.86,0c1.15.12.39,0,3.83.86l1,.27.58.2.59.21,1.18.43a20.76,20.76,0,0,0,.1,4.16c.42,2.61,1.62,1.92.64,5.26-.27,1.2-.44,1.42,0,5.87a30.34,30.34,0,0,0,1.4,6.4,7.5,7.5,0,0,1,.75,3.5,2.82,2.82,0,0,1-1.19,2.12,3.17,3.17,0,0,1-1,.44c3.85-1,4.2-1,4.68-1.32C130.79,129.36,129,126.11,128.6,124.9Z"/><path class="cls-38" d="M114.15,103.83c.23,1,.24.44.61,1.75A15.71,15.71,0,0,0,114.15,103.83Z"/><path class="cls-38" d="M124.66,125.08a34.57,34.57,0,0,1-1.08-5.91,19.79,19.79,0,0,1-.19-2.28,6.47,6.47,0,0,1,.12-2.38c.27-1.17.74-2.09.36-3.24-.45-1.34-1.24-1.21-1-6.66l-1.18-.43-.59-.21-.58-.2-1-.27-1-.25-1-.26a4.93,4.93,0,0,0-1.18-.28c-1.05-.1-2.12-.18-2.26.86.15-.58.77-.55,1.31-.57,1.11.12.37,0,3.78.86l1,.27.52.19,1.6.57a14.39,14.39,0,0,0,.45,5.29,3.55,3.55,0,0,1,.6,2.74c-.11.5-.2.66-.34,1.25a8.1,8.1,0,0,0-.17,3.18c0,.59,0,0,.33,3.36a28.85,28.85,0,0,0,1.59,6.42,5.7,5.7,0,0,1,.31.94c1,3.57-2.13,5-4.76,3.62-2-1-2.94-3.42-3.69-5.36a19.39,19.39,0,0,0,1.19,2.73,5.36,5.36,0,0,0,.41.7,6.55,6.55,0,0,0,.64.87,5.57,5.57,0,0,0,.87.85c2.28,1.9,6,1.19,6.06-2C125.86,128,125.31,127.17,124.66,125.08Z"/><path class="cls-34" d="M115,106.83a9.41,9.41,0,0,0-.81-3,.72.72,0,0,1,.07-.48c.3-.36.74-.33,1.23-.35,1.13.12.2-.09,4.77,1.13l2.24.76a20.53,20.53,0,0,0,0,2.53c.28,3.26.63,2.72,1.07,4.07.26,1.05,0,1.4-.5,3.43a32.07,32.07,0,0,0,.33,5.79,29.31,29.31,0,0,0,1.53,6.25c.5,1.33,1,2.8,0,4.16a3.26,3.26,0,0,1-2.66,1.17,5.05,5.05,0,0,1-2.1-.7,7.06,7.06,0,0,1-2.45-2.85,22.12,22.12,0,0,1-1.51-3.94C114.71,119.05,114.94,117.68,115,106.83Z"/><path class="cls-39" d="M184.51,85.62c-.57-6.29-.31-4.19-1.28-10.79-.33-1.55-.21-1-.55-2.58a65.68,65.68,0,0,0-2-7.6l-.42-1.14-.43-1.17L179,60l-1-2.11-1-2.16-1.14-1.86a13.45,13.45,0,0,0-1.79-2.68c-2.31-2.82-1.74-2.2-2.64-3l-2.13-1.8-3-1.48-3.18-.45-3.25.74-1.58,1-1.63,1c-3.81,4.2-2.35,2.36-6.38,8.09-4.77,6.15-5,6.42-10.3,11.36a42.69,42.69,0,0,1-7.41,5.4,45.73,45.73,0,0,1-5.29,2.65l-1.47.54a24.44,24.44,0,0,1-3,.92,11.14,11.14,0,0,1-1.49.36,23.63,23.63,0,0,1-3.54.57,23.68,23.68,0,0,0-3.65.26,5.39,5.39,0,0,0-2,.58c-.52.2-.19,0-1.51.87-.47.31-.23.11-1,.89a4.74,4.74,0,0,0-1,1,12.46,12.46,0,0,0-1.85,3.1,18.13,18.13,0,0,0-1.17,4.38c0,.73,0,.46-.08,1.18a16.19,16.19,0,0,0,0,3.57l.11.59a18.45,18.45,0,0,0,1,4l.24.51a14.41,14.41,0,0,0,1.87,3.3c.83.94.66.74,1.34,1.5,1.75,1.4,1.35,1.12,1.87,1.39a6.9,6.9,0,0,0,2.38,1c.53.16.11.1,2,.24a32.78,32.78,0,0,1,7.89.25,39.64,39.64,0,0,1,5.13,1.13l.15,0a42.86,42.86,0,0,1,4.76,1.84,48.18,48.18,0,0,1,4.91,2.55l.4.25.81.54a55.79,55.79,0,0,1,5,3.61l.84.71a52.22,52.22,0,0,1,6.87,6.52l1.77,2,.91,1a26.69,26.69,0,0,0,3.4,3.36l.79.75,3.29,1.73,3.22.51,3.06-.61,2.84-1.59c3.06-2.89,2.41-2.19,3.18-3.25,2.16-3,1.28-1.55,3.7-6.1l.42-1.08,1.26-3.16c.41-1.41.27-.92.69-2.34l.34-1.15A53.78,53.78,0,0,0,183.4,107a96.67,96.67,0,0,0,1.17-10.49C184.71,90.05,184.73,92.39,184.51,85.62Z"/><path class="cls-40" d="M164.11,125.81l-2.43-1.12-1.6-1.38a13.54,13.54,0,0,1-1.52-1.39l-.38-.42-2.53-2.72-1.19-1.15a34.85,34.85,0,0,0-4.44-3.92l-1.1-.85-.86-.67-.05,0L146.32,111c-1.58-1.08-1.64-1.13-2.52-1.65l-.77-.46-.8-.48c-.28-.17-.33-.2-.47-.27l-.79-.42c-.92-.48-1-.5-2.6-1.21l-1.66-.73-.07,0-1.54-.56a27.65,27.65,0,0,0-2.83-1l-.9-.26-.09,0-1.49-.32a24.25,24.25,0,0,0-2.77-.5l-1.18-.17a30.8,30.8,0,0,0-5.17-.28c-1.18,0-2.24.1-3.09.17l-.46,0-.79,0-.5,0-.17,0-.66-.16-.4-.1-.39-.18-.64-.3-.21-.1-.53-.37-.72-.51-1.17-1.18c-.2-.28-.36-.5-.5-.68a7.12,7.12,0,0,1-.9-1.45c-.1-.18-.21-.41-.36-.69l-.19-.37-.23-.67a10.77,10.77,0,0,1-.59-2c0-.21-.09-.47-.16-.8l-.08-.44c0-.44-.05-.79-.07-1.07a6.91,6.91,0,0,1,0-1.49c0-.15,0-.33,0-.56l.07-1c.09-.38.15-.69.21-.95a8.62,8.62,0,0,1,.59-2l.3-.79c.16-.3.3-.54.41-.74a6,6,0,0,1,.83-1.28l.48-.58L111,82a2.23,2.23,0,0,0,.24-.2l.34-.29.54-.48.21-.12.66-.39.3-.17.19-.06.58-.2.42-.15.22,0,.37,0,.34,0a14.32,14.32,0,0,1,1.72-.09l1.68,0,1.09-.11a17.31,17.31,0,0,0,2.08-.28l.85-.15.37-.07a8.62,8.62,0,0,0,1-.21l1.59-.4a17.34,17.34,0,0,0,1.74-.47l1.92-.63.09,0,1.13-.46a25.29,25.29,0,0,0,2.74-1.24l1.66-.81.07,0,1.11-.64a33,33,0,0,0,5.32-3.53c.35-.28.76-.59,1.24-1l0,0,.05,0c5.22-4.51,5.5-4.81,10.18-10.47l0,0,0,0L154.62,57a20.64,20.64,0,0,1,2.93-3.48l1.15-1.17L161.09,51l2.22-.36,2.15.45,2.18,1.21,1.71,1.57.3.26a6.29,6.29,0,0,1,.85,1c.23.31.53.7.93,1.21.1.13.18.23.24.32a6,6,0,0,1,.69,1.08l1.42,2.45,1.68,3.7L176.89,68l.52,1.92c.68,2.47.68,2.47.91,3.59.05.28.12.62.21,1.07l.46,2.24.26,1.78c.42,2.92.42,2.92.63,5.41.05.56.11,1.25.19,2.12s.05,1.49.06,2c.1,2.72.1,2.72,0,5.12,0,.58,0,1.29,0,2.21S180,97,180,97.53c-.2,2.52-.2,2.52-.54,4.92-.07.54-.17,1.2-.28,2l-.43,2.09c-.46,2.2-.46,2.2-.59,2.67,0,.11-.08.25-.13.43l-.87,3-1.38,3.64c-.35.7-.63,1.24-.84,1.67a14.53,14.53,0,0,1-1.48,2.56l-.72,1-.24.36a6.51,6.51,0,0,1-1.05,1.13l-1.07,1.09-2,1.27-2,.54Z"/><path class="cls-41" d="M177.12,112.72l.87-3c0-.18.09-.32.13-.43.13-.47.13-.47.59-2.67l.43-2.09c.11-.84.21-1.5.28-2,.34-2.4.34-2.4.54-4.92,0-.56.09-1.24.16-2.08s0-1.63,0-2.21c.06-2.4.06-2.4,0-5.12,0-.55,0-1.22-.06-2s-.14-1.56-.19-2.12c-.21-2.49-.21-2.49-.63-5.41L179,76.77l-.46-2.24c-.09-.45-.16-.79-.21-1.07-.23-1.12-.23-1.12-.91-3.59L176.89,68l-1.43-4.05-1.68-3.7-1.42-2.45a6,6,0,0,0-.69-1.08c-.06-.09-.14-.19-.24-.32-.4-.51-.7-.9-.93-1.21a6.29,6.29,0,0,0-.85-1l-.3-.26-1.71-1.57-2.18-1.21-2.15-.45-2.22.36-2.39,1.34-1.15,1.17A20.64,20.64,0,0,0,154.62,57L153.11,59l0,0,0,0c-1.63,2-2.73,3.3-3.69,4.37a107.77,107.77,0,0,0-2.62,24.22,106.09,106.09,0,0,0,3,25.81l.27.21a34.85,34.85,0,0,1,4.44,3.92l1.19,1.15,2.53,2.72.38.42a13.54,13.54,0,0,0,1.52,1.39l1.6,1.38,2.43,1.12,2.18.2,2-.54,2-1.27,1.07-1.09a6.51,6.51,0,0,0,1.05-1.13l.24-.36.72-1A14.53,14.53,0,0,0,174.9,118c.21-.43.49-1,.84-1.67Z"/><path class="cls-42" d="M155.47,103.91s19.63,12.94,21.31,17.37,4.79-10.7,4.79-10.7l-23.25-9.07Z"/><polygon class="cls-42" points="160.94 100.2 182.98 106.04 182.98 101.51 160.94 100.2"/><path class="cls-43" d="M171.11,50.8S159.9,72,149.46,78.67c8.56-.46,27.08-21.85,27.08-21.85Z"/><path class="cls-39" d="M166.27,74.83a160.93,160.93,0,0,1-15.93-2.61l-.88,6.45-.3,7.14.31,7.24.92,7,1.47,6.55.26.78c4.25-2.07,15.22-5.17,15.22-5.17A174.79,174.79,0,0,0,166.27,74.83Z"/><polygon class="cls-44" points="164.88 94.73 147.97 96.64 149.16 104.75 166.07 99.04 164.88 94.73"/><polygon class="cls-45" points="166.07 77.81 147.45 74.74 146.73 78.67 164.88 79.48 166.07 77.81"/><path class="cls-46" d="M172.33,82.47a17.1,17.1,0,0,0-2.41-5.54,6.74,6.74,0,0,0-1.71-1.64l-1-.39-1-.07-1,.3a5.5,5.5,0,0,0-1.9,1.8c-1.69,3.06-2.7,6-2.38,13.25a26.91,26.91,0,0,0,1.57,7l.84,1.78a8.93,8.93,0,0,0,1.92,2.4l1,.61,1,.23,1-.12.89-.44a6.29,6.29,0,0,0,1.56-1.67C173.7,94.73,173.6,88.34,172.33,82.47Z"/><path class="cls-39" d="M169.39,85.86a7.79,7.79,0,0,0-1.07-2.46,2.86,2.86,0,0,0-.76-.72l-.41-.18-.44,0-.44.14a2.47,2.47,0,0,0-.84.79c-.75,1.36-1.19,2.64-1.05,5.86a11.87,11.87,0,0,0,.69,3.12l.37.79a4,4,0,0,0,.85,1.06l.45.27.44.1.42,0,.4-.2a2.6,2.6,0,0,0,.69-.74A11.11,11.11,0,0,0,169.39,85.86Z"/><path class="cls-47" d="M148.12,77.89,150.68,64l-1.08-.8a58.34,58.34,0,0,1-6.73,6.37l-.05,0,0,0c-.48.36-.89.67-1.24,1a33,33,0,0,1-5.32,3.53l-1.11.64-.07,0-1.66.81a25.29,25.29,0,0,1-2.74,1.24l-1.13.46-.09,0-1.92.63a17.34,17.34,0,0,1-1.74.47l-1.59.4a8.62,8.62,0,0,1-1,.21l-.37.07-.85.15a17.31,17.31,0,0,1-2.08.28l-1.09.11-1.68,0a14.32,14.32,0,0,0-1.72.09l-.34,0-.37,0-.22,0-.42.15-.58.2-.19.06-.3.17-.66.39-.21.12-.54.48-.34.29a2.23,2.23,0,0,1-.24.2l-.18.24-.48.58a6,6,0,0,0-.83,1.28c-.1.19-.22.4-.37.66C125.39,84.86,148.12,77.89,148.12,77.89Z"/><path class="cls-36" d="M184,80.19a96.53,96.53,0,0,0-1.89-10.56A73.66,73.66,0,0,0,179,60l-2-4.27-2.3-3.77-2.58-3.15-2.82-2.38-3-1.48-3.18-.45-3.25.74-3.21,2-3.08,3.39-2.78,4.75-2.37,6-1.81,7.18-1.13,8-.39,8.57.38,8.7,1.14,8.44,1.83,7.8,2.39,6.85,2.82,5.68,3.12,4.39,3.26,3.05,3.29,1.73,3.22.51,3.06-.61,2.84-1.59,2.59-2.44,2.29-3.15,2-3.76a56.28,56.28,0,0,0,3-8.87,81.4,81.4,0,0,0,1.8-10.1,100.22,100.22,0,0,0,.55-10.75A104.19,104.19,0,0,0,184,80.19Zm-1.55,20.16a69,69,0,0,1-1.62,8.89,47.57,47.57,0,0,1-2.74,7.7l-1.78,3.19-2,2.64-2.27,2-2.47,1.2-2.63.34-2.74-.63L161.41,124l-2.72-2.76-2.58-3.86-2.31-4.89-1.94-5.82-1.47-6.55-.92-7-.31-7.24.3-7.14.91-6.73,1.46-6,1.92-5.17L156,56.58l2.54-3,2.68-1.91L164,50.8l2.71.18,2.61,1.1,2.45,1.9,2.26,2.6,2,3.19,1.79,3.67a59.22,59.22,0,0,1,2.8,8.41,81.06,81.06,0,0,1,1.71,9.31,89,89,0,0,1,.61,9.67A85.31,85.31,0,0,1,182.47,100.35Z"/><path class="cls-48" d="M123.83,111.15l3.71-.46c-.12-.25-.27-.51-.42-.86l-3.6.66A6.39,6.39,0,0,1,123.83,111.15Z"/><path class="cls-49" d="M243.3,47,180.67,52.6c.57,1.31,1.12,2.69,1.63,4.15Z"/><path class="cls-50" d="M211.4,59.92l-28.16-.25c.34,1.15.67,2.33,1,3.55Z"/><path class="cls-50" d="M237.84,143.5l-55.05-17.1-.5.93c-.28,1-.58,1.93-.89,2.87Z"/><path class="cls-50" d="M190.26,46.59l-12.71.17a37.08,37.08,0,0,1,1.95,3.38Z"/><path class="cls-49" d="M191.87,138.63l-11.31-6c-.35,1-.71,1.91-1.07,2.82Z"/><path class="cls-50" d="M240.27,65.62l-55.16,1.63c.31,1.55.59,3.14.83,4.77Z"/><path class="cls-49" d="M213.79,79.93,186.73,78.4c.13,1.41.23,2.85.32,4.3Z"/><path class="cls-50" d="M246.64,92.65l-59.4-5.29c0,1.89,0,3.81,0,5.76Z"/><path class="cls-49" d="M186.65,104l30.72-.12-30.3-5.43c0,.09,0,.17,0,.26C187,100.45,186.81,102.21,186.65,104Z"/><path class="cls-50" d="M228.46,117.29l-42.4-8.11q-.37,2.89-.87,5.67Z"/><path class="cls-49" d="M218.94,128.61l-34.33-10.68c-.26,1.27-.53,2.52-.82,3.75Z"/></g><rect class="cls-51" x="12.5" y="10" width="275" height="330" rx="25"/><circle class="cls-2" cx="800" cy="570" r="196.51"/></g></g></svg>