<svg id="Layer_1" data-name="Layer 1" xmlns="http://www.w3.org/2000/svg" viewBox="0 0 512 400"><defs><style>.cls-1{opacity:0.3;}.cls-2{fill:#d58147;}.cls-3{fill:#e79657;}.cls-4{fill:#f7af71;}.cls-5{fill:#c66a38;}.cls-6{fill:#d48245;}.cls-7{fill:#d48247;}.cls-8{fill:#f9af71;}.cls-9{fill:#ea955b;}.cls-10{fill:#ba1a5c;}.cls-11{fill:#fd181b;}.cls-12{fill:#d8804a;}.cls-13{fill:#f8af73;}.cls-14{fill:#754c2f;}.cls-15{fill:none;stroke:#754c2f;}.cls-15,.cls-17{stroke-miterlimit:10;}.cls-16{fill:#fff;opacity:0.1;}.cls-17{fill:#65442a;stroke:#683d1f;}.cls-18{fill:#995e36;}.cls-19{fill:#d7844e;}</style></defs><ellipse class="cls-1" cx="256" cy="348.01" rx="142" ry="26"/><ellipse class="cls-2" cx="319.03" cy="298.07" rx="48.55" ry="29.7" transform="translate(-82.48 469.59) rotate(-66.19)"/><path class="cls-2" d="M394.82,299.17c0-4-.77-19.1-17.28-24.6-10.8-3.6-25,5.52-28.32,9.84s-20.64,25.92-29.76,36.48S294.14,339,294.14,339s25.08,26,62.25,16.5C391.58,346.51,394.82,312.67,394.82,299.17Z"/><path class="cls-3" d="M343.9,307.54c-9,19.24-6.29,39.52,6.05,45.3s29.66-5.14,38.66-24.38,8.75-42-3.6-47.75S352.91,288.3,343.9,307.54Z"/><ellipse class="cls-4" cx="365.18" cy="325.99" rx="30.78" ry="19.44" transform="translate(-84.86 518.56) rotate(-64.92)"/><path class="cls-5" d="M339.56,253.81s8.46,58-52.74,70.56c0,0,.24,8.28,6.48,13.56C293.3,337.93,362.42,308.89,339.56,253.81Z"/><ellipse class="cls-2" cx="194.16" cy="298.61" rx="29.7" ry="48.55" transform="translate(-104.04 103.82) rotate(-23.81)"/><path class="cls-5" d="M192.29,180.79s-55.8,10.44-64.8,58.32c0,0-1.44,27,14.76,29.88s22.68-15.12,25.2-22,10.8-41,28.08-47.88S208.85,176.83,192.29,180.79Z"/><path class="cls-6" d="M189.26,184.45c-18.23,4.26-49,20.82-55.73,50-1.43,6.23-2.31,21.72,10,24.32s17.76-10.08,20.4-17.28c1.92-5.25,10.32-34.8,27.34-42.91C204.17,192.47,202,181.48,189.26,184.45Z"/><path class="cls-5" d="M321.91,180.79s55.8,10.44,64.8,58.32c0,0,1.44,27-14.76,29.88s-22.68-15.12-25.2-22-10.8-41-28.08-47.88S305.35,176.83,321.91,180.79Z"/><path class="cls-6" d="M324.93,184.45c18.23,4.26,49.06,20.82,55.74,50,1.42,6.23,2.31,21.72-10,24.32s-17.76-10.08-20.4-17.28c-1.93-5.25-10.32-34.8-27.34-42.91C310,192.47,312.22,181.48,324.93,184.45Z"/><path class="cls-7" d="M199.84,180.55s-43.2,65.52-18.72,113.76,128.73,40,147.6,9.36c11.52-18.72,23-53.23-13-123.79C315.7,179.88,252.4,134.47,199.84,180.55Z"/><path class="cls-8" d="M222.75,194s-26.12,51.18-11.32,80.35,77.83,24.19,89.24,5.66c7-11.32,16.1-46-5.66-88.62C295,191.35,254.52,166.1,222.75,194Z"/><path class="cls-9" d="M215.09,210.79s24.6,26.76,85.08,22.68c0,0,10.8-1.44,15.48-6.36,8.93-9.4-9.12-20.88-9.12-20.88S286.13,219,261.41,219,222.77,214.39,215.09,210.79Z"/><path class="cls-2" d="M118.37,299.71c0-4,.77-19.1,17.28-24.6,10.8-3.6,25,5.52,28.32,9.84s20.64,25.92,29.76,36.48,25.32,18.12,25.32,18.12-25.08,26-62.25,16.5C121.61,347.05,118.37,313.21,118.37,299.71Z"/><path class="cls-3" d="M169.29,308.08c9,19.24,6.29,39.52-6,45.3s-29.66-5.14-38.66-24.38-8.75-42,3.6-47.75S160.28,288.84,169.29,308.08Z"/><ellipse class="cls-4" cx="148.01" cy="326.53" rx="19.44" ry="30.78" transform="translate(-124.45 93.52) rotate(-25.08)"/><path class="cls-5" d="M173.63,254.35s-8.46,58,52.74,70.56c0,0-.24,8.28-6.48,13.56C219.89,338.47,150.77,309.43,173.63,254.35Z"/><path class="cls-10" d="M187.73,182.71s-1.44,6.72,0,9.6S215,219.67,258.17,219s62-23.4,65.28-25.92S325,180.86,324.87,181c-4.23,4.24-26.74,28.16-65.62,29.36C219,211.55,187.73,182.71,187.73,182.71Z"/><path class="cls-11" d="M194.57,177s-8.28,4.32-6.84,7.2,27.24,27.36,70.44,26.64,62-23.4,65.28-25.92.72-10.8-4.32-7.56-21,23.64-59.88,24.84C219,203.39,194.57,177,194.57,177Z"/><path class="cls-11" d="M291.55,197.91s8.52-4.55,9.6,9.11-2.25,43-5.93,49.13,9.76,6,20.7,2.35,17-12.93,19.06-14.9c0,0,4.27-30.12-20.87-54.92Z"/><ellipse class="cls-12" cx="257.42" cy="123.18" rx="86.1" ry="78.97"/><path class="cls-5" d="M343.52,123.18c0,43.61-38.55,79-86.1,79s-86.1-35.36-86.1-79c0,0,36.1-5.47,84.1,19.36C299.75,165.46,343.52,123.18,343.52,123.18Z"/><ellipse class="cls-13" cx="256.68" cy="147.72" rx="40.76" ry="30.44"/><path class="cls-14" d="M274,136.22c0,3.7-7.5,6.7-16.75,6.7s-16.75-3-16.75-6.7,7.5-10.69,16.75-10.69S274,132.53,274,136.22Z"/><path class="cls-15" d="M257.24,138.78v14s-2.67,4.33-9.68,4.33a9.12,9.12,0,0,1-9.17-8.28"/><path class="cls-15" d="M257.27,138.78v14s2.68,4.33,9.68,4.33a9.11,9.11,0,0,0,9.17-8.28"/><path class="cls-16" d="M270,133.64c0,2.8-5.69,5.08-12.7,5.08s-12.7-2.28-12.7-5.08,5.68-8.11,12.7-8.11S270,130.84,270,133.64Z"/><circle class="cls-17" cx="221.98" cy="108.34" r="11.08"/><circle class="cls-18" cx="226.06" cy="103.79" r="3.69"/><circle class="cls-17" cx="292.86" cy="108.34" r="11.08"/><circle class="cls-18" cx="296.94" cy="103.79" r="3.69"/><path class="cls-19" d="M180.91,89.3s-8.66,1-15.79-2.29S147,73,147.54,66.12,151.87,49.56,159,42.68s24.71-21.65,33.88-15S210,41.92,210.2,53.38,180.91,89.3,180.91,89.3Z"/><path class="cls-13" d="M182.57,76.15c-2.3,1-7.85,2-12.31-.1s-11.33-8.77-11-13.07a24.42,24.42,0,0,1,7.18-14.68c4.47-4.3,15.47-13.55,21.21-9.4s10.69,8.93,10.84,16.1S189.24,73.29,182.57,76.15Z"/><path class="cls-19" d="M334.63,89.3s8.66,1,15.79-2.29S368.5,73,368,66.12s-4.33-16.56-11.47-23.44-24.71-21.65-33.88-15-17.06,14.27-17.32,25.73S334.63,89.3,334.63,89.3Z"/><path class="cls-13" d="M333,76.15c2.3,1,7.84,2,12.31-.1s11.32-8.77,11-13.07a24.46,24.46,0,0,0-7.17-14.68c-4.47-4.3-15.47-13.55-21.21-9.4S317.21,47.83,317.05,55,326.3,73.29,333,76.15Z"/></svg>