<svg id="Layer_1" data-name="Layer 1" xmlns="http://www.w3.org/2000/svg" xmlns:xlink="http://www.w3.org/1999/xlink" viewBox="0 0 300 350"><defs><style>.cls-1,.cls-4{fill:#fcfcfc;}.cls-1,.cls-10,.cls-3{stroke:#2ca0ce;stroke-width:3px;}.cls-1,.cls-10,.cls-13,.cls-25,.cls-3,.cls-8{stroke-miterlimit:10;}.cls-10,.cls-2,.cls-25{fill:none;}.cls-11,.cls-3{fill:#cbfdff;}.cls-5{clip-path:url(#clip-path);}.cls-6{clip-path:url(#clip-path-2);}.cls-7{fill:#063504;}.cls-8{fill:#a025ce;stroke:#422714;}.cls-9{fill:#103a00;}.cls-12{clip-path:url(#clip-path-3);}.cls-13,.cls-28{fill:#fecda2;}.cls-13{stroke:#c17e42;}.cls-14{fill:#f2c29a;}.cls-15{fill:#b3b8cb;}.cls-16{fill:#a4abbd;}.cls-17{fill:#8f9bab;}.cls-18{fill:#6f778c;}.cls-19{fill:#a3acbd;}.cls-20{fill:#a8afc2;}.cls-21{fill:#c2c5d8;}.cls-22{fill:#a6adbf;}.cls-23{fill:#8a92a7;}.cls-24{fill:#d6dfe8;}.cls-25{stroke:#394151;}.cls-26{fill:#fce3d2;}.cls-27{fill:#c17e42;}.cls-29{fill:#efb98f;}</style><clipPath id="clip-path"><rect class="cls-1" x="12.5" y="-360" width="275" height="330" rx="25"/></clipPath><clipPath id="clip-path-2"><rect class="cls-2" x="-228.63" y="-362.01" width="593.83" height="334.03"/></clipPath><clipPath id="clip-path-3"><rect class="cls-3" x="12.5" y="10" width="275" height="330" rx="25"/></clipPath></defs><rect class="cls-4" x="12.5" y="-360" width="275" height="330" rx="25"/><g class="cls-5"><g class="cls-6"><path class="cls-7" d="M326.05-108.68a.78.78,0,0,0-.88,0l-.1,0A70.26,70.26,0,0,0,306.41-102a40.92,40.92,0,0,0-6.31,4.22,27.82,27.82,0,0,0-4.17,4.43,20.66,20.66,0,0,0-3.82,7.84,19.29,19.29,0,0,0-.4,2.49c0,.33,0,.58,0,.74s-.12.18-.17.27l-.05,0v0a29,29,0,0,0-2.35,4.7,45.77,45.77,0,0,0-2.9,10.65c-1.09-5.55-1.83-10.83-2.62-15.69-.14-1.29-.31-2.54-.47-3.77a21.37,21.37,0,0,0,4.8-5.86,20.18,20.18,0,0,0,2.63-7.46,24.23,24.23,0,0,0,.12-6c-.08-.77-.19-1.4-.27-1.83s-.16-.69-.16-.71a.91.91,0,0,0-.42-.51h0a.55.55,0,0,0-.76.07c-.92.46-1.77.93-2.56,1.42.62-1.1,1.28-2.18,2-3.21,1-1.52,2-2.95,2.9-4.19l.1-.09.74-.88c9.89-4,15.87-9.88,18.87-15A22.93,22.93,0,0,0,313.9-137c.2-.89.34-1.6.44-2.11s.11-.73.12-.8a.44.44,0,0,0-.19-.46.6.6,0,0,0-.71,0,45.84,45.84,0,0,0-12.11,7,35.83,35.83,0,0,0-4.3,4,32.12,32.12,0,0,0-3,4,21.83,21.83,0,0,0-3,6.82,21,21,0,0,0-.37,2.13c-.05.45-.07.73-.07.81-.64.82-1.32,1.75-2,2.75a74.53,74.53,0,0,0-4.49,7.36,20,20,0,0,0-2.32,2.09c0-.47,0-.94,0-1.39.06-1.48.14-2.9.22-4.28.2-2.75.29-5.32.59-7.69.69-4.71,1-8.74,1.67-12s.88-5.86,1-7.68c0-.33.08-.62.11-.9a.36.36,0,0,0,.15-.21c13.25-18.16-.46-31.55-.7-32q-.17-.33-.27-.51v0a.62.62,0,0,0-.51-.5H284a.63.63,0,0,0-.52.39c-1.49,3.54-2.87,6.38-3.86,8.91a54.59,54.59,0,0,0-2,6.72,16.35,16.35,0,0,0,.31,9.26,15.91,15.91,0,0,0,6.42,7.9c0,.4-.08.86-.14,1.39-.12,1.52-.39,3.56-.8,6.09l-.69,4.18c-.2,1.53-.41,3.18-.63,5s-.52,3.68-.69,5.73-.3,4.23-.41,6.56a55,55,0,0,0-3.72-7.74c-1.3-2.44-2.69-4.73-4-6.7s-2.51-3.63-3.39-4.8c-.44-.59-.79-1.06-1-1.38a.42.42,0,0,0-.1-.25c-.1-.1-.19-.22-.29-.34a22.44,22.44,0,0,0-1.21-9.93,20.07,20.07,0,0,0-3.93-6.88,24,24,0,0,0-4.48-4,17.55,17.55,0,0,0-1.56-1l-.64-.35a.86.86,0,0,0-.65,0h0c-.33.11-.51.37-.44.63-2.35,9.18.27,14.85,3.36,18a15,15,0,0,0,8.22,4.26l.29,0,1.62,2.09c1,1.34,2.35,3.23,3.77,5.45,2.73,4.44,6.28,10.23,7.9,15.91,0,0,0,1.5.11,3.34v.12a15,15,0,0,0-3.22,8,14.87,14.87,0,0,0,2.18,9l.19.29c0,.09,0,.19,0,.28s0,.06,0,.09c-.47,1.35-1.31,3.81-2.05,6.31-.91-1.19-1.81-2.33-2.67-3.39-3.2-4.1-5.91-7-6.15-7.28a.54.54,0,0,0-.29-.15,26.08,26.08,0,0,0-4-11.32,36.64,36.64,0,0,0-7.53-8.12,45.73,45.73,0,0,0-7.34-4.83c-1-.53-1.85-.93-2.46-1.2l-1-.4a.52.52,0,0,0-.57.14.81.81,0,0,0-.21.66,54.44,54.44,0,0,0,1.71,9.41,34.47,34.47,0,0,0,3,7.11,19.78,19.78,0,0,0,7.75,7.9,19.3,19.3,0,0,0,7.07,2.25,16.48,16.48,0,0,0,2.22.12c.54,0,.85,0,.87,0h0a.49.49,0,0,0,.17-.06l.42.38,1.51,1.7c1.32,1.51,3,3.64,4.95,6.06.68.83,1.36,1.7,2,2.6-.24.88-.46,1.74-.63,2.52a4.71,4.71,0,0,0,1,3.68c1,1.21,2.71,1.8,5,1.76a48.06,48.06,0,0,1,3.07,6.19s.33,1.65.91,4.31c.4,2.12,1.14,4.84,2,7.92a61.55,61.55,0,0,0-5.24-4.3h0c0-.09,0-.21,0-.35a15,15,0,0,0-3.3-8.64c-2.84-3.43-8.19-6.67-17.59-5.38a.54.54,0,0,0-.67.36.05.05,0,0,0,0,0,.87.87,0,0,0-.06.65s.1.26.27.67.45,1,.82,1.67a24.23,24.23,0,0,0,3.51,4.9,20.35,20.35,0,0,0,6.41,4.68,22.49,22.49,0,0,0,9.75,2.31h0a64.78,64.78,0,0,1,6.77,5.67l.05.17c.59,2,1.16,4.22,1.87,6.38s1.48,4.34,2.25,6.49,1.53,4.24,2.28,6.22,1.56,3.79,2.27,5.44c-2.29-2.53-5.22-5.39-8.27-8.22a.31.31,0,0,0-.09-.11,3.2,3.2,0,0,0-.31-.28.91.91,0,0,0,0-.54.72.72,0,0,0-.12-.21c-2.39-5.76-5.09-10.23-8.49-13.62a36.91,36.91,0,0,0-10.66-7.43c-6.43-2.94-12.62-3.37-14.4-3.15a.73.73,0,0,0-.79.4h0a1.14,1.14,0,0,0-.19.86,37.61,37.61,0,0,0,3.72,10.24,32.3,32.3,0,0,0,5.36,7,26,26,0,0,0,11.72,6.81,27.53,27.53,0,0,0,9.48.86,23.82,23.82,0,0,0,2.83-.4l.21,0a7.11,7.11,0,0,1,.9.71.52.52,0,0,0,.3.14c1.47,1.36,2.9,2.73,4.27,4a37.79,37.79,0,0,1,6.32,7.26c0,.05.08.07.13.12,2.11,4.95,4.64,9.73,7,14.61,1.93,3.49,3.88,7,5.86,10.43L314,5.93A259.22,259.22,0,0,1,300.8-19.5a78.79,78.79,0,0,1-.59-11.68,62.91,62.91,0,0,1,2-13.42,52.45,52.45,0,0,0,9.21-10.09A76.35,76.35,0,0,0,318-65.17a83,83,0,0,0,3.77-8.39c.39-1.06.65-1.93.82-2.54s.22-.86.25-1a.38.38,0,0,0-.1-.54.86.86,0,0,0-.94.1l-.14.12C308-72.26,302.31-64.6,301-57.71a28,28,0,0,0-.43,9.14c.12,1.19.28,2.15.41,2.81.08.4.15.7.19.87-.13.51-.2.81-.21.84a1,1,0,0,0,0,.3,68,68,0,0,0-1.56,20.81c-1.14-2.61-2.19-5.25-3.16-7.89a9.84,9.84,0,0,0,.65-.83A7,7,0,0,0,298-36.39c-.41-4.22-4-8.75-7.57-12.23-1.36-5-2.58-9.77-3.48-14.47.08-1.75.51-10.79,5.76-18.57a45,45,0,0,0,12.58-6.41A77.63,77.63,0,0,0,316-96.84,76.4,76.4,0,0,0,325.86-108h0C326.18-108.21,326.25-108.5,326.05-108.68ZM278.61-71.12a3.52,3.52,0,0,1-.71-2.73c.11-.51.24-1.05.38-1.6,1.33,1.82,2.64,3.73,3.83,5.68A4.67,4.67,0,0,1,278.61-71.12ZM278.7-77c.87-3,2-6.2,2.43-7.5.35-.25.69-.5,1-.75.17,1.31.35,2.7.53,4.12.27,1.63.55,3.3.83,5,.58,3.3,1,6.58,1.59,9.23A72.16,72.16,0,0,0,278.7-77Zm18.17,40.72a5.84,5.84,0,0,1-1.13,4.23c-1.38-3.82-2.64-7.62-3.85-11.34l-.78-2.78C294-43.13,296.55-39.55,296.87-36.29Z"/><path class="cls-8" d="M185.16-71.11S159.36-7.73,167.74,46l179.72-4.64S310.32-89.22,263.93-100.26C263.93-100.26,198.88-85.85,185.16-71.11Z"/><path class="cls-9" d="M-46.19,17.47c7.51-62.89,30.07-115.7,47.51-143.15,18.91-29.74,36.26-44.8,36.43-44.95l-.94-1.09c-.17.15-17.65,15.32-36.67,45.22-17.53,27.58-41,80.78-48.52,144Z"/><path class="cls-9" d="M-15.77-24.8c3.32-6.45,5.2-13.53,7.68-20.34,3-8.37,4.28-14.49,9.8-21.47s15.42-14.8,23.67-18.15c-9.19.38-18.85,5-27.26,10.2S-17.56-60.1-21.71-51.1c-4.43,9.57-4.73,20.47-7.38,30.68-1.26,4.83-3.05,9.53-3.82,14.46a39.14,39.14,0,0,0-.41,10c1.21-3,2.57-4.62,3.49-6.46a73.24,73.24,0,0,1,4.44-7.43C-22.11-14.77-18.49-19.51-15.77-24.8Z"/><path class="cls-9" d="M41.54,101.79C52.45,43.67,53.89-1.12,53.18-28.45,52.41-58.1,49-74.23,49-74.39l-1.87.4c0,.16,3.41,16.17,4.18,45.67C52-1.1,50.53,43.52,39.66,101.44Z"/></g></g><rect class="cls-10" x="12.5" y="-360" width="275" height="330" rx="25"/><rect class="cls-11" x="12.5" y="10" width="275" height="330" rx="25"/><g class="cls-12"><path class="cls-13" d="M100.72,128.63s11.06-17.43,33.16-12.76c0,0,27.21-8.92,37.41,1.28a100.77,100.77,0,0,1,36.14,11.48c1.83,1,7.11,2.14,12.66,4.77a24,24,0,0,1,13.27,25.88c-4,22.24-14.73,74-31.05,87.77a16.19,16.19,0,0,0-5.89,12.39l.8,151.88s-54,25.08-102,0l19.61-151.6a6,6,0,0,0-4.47-6.63c-9.33-2.35-27.89-10.25-27.89-36,0-2.13-20-64.12-40.41-67.1,0,0-14.43-9.25,5.55-12.65S83,159.48,83,159.48,98.83,188.23,100.3,175C100.72,171.14,100.72,128.63,100.72,128.63Z"/><path class="cls-14" d="M102.17,130c.11-.95-7.08-27.38-14.62-55.29-2.45-9.09,11.68-15.66,14.83-6.9l30.37,44s2,5.43,5.89-.37l2.47-49.14c-.59-14.9,20.48-21,24.25-3l3.41,50.29s2.3,7.25,6.23,1.09l10.55-31.92c3-14.86,23-6.86,21.91,11.7l-3,30c-.06,2,2.51,7.43,6.88,1.81.63-1.69,3.21,9.64,14.23-12.24,2.45-4.87,11.28-6,14.82,3.36a18.1,18.1,0,0,1-.93,14.51l-3.56,7.06S206.46,252,154.71,232c0,0-24.39-44.6-54.52-50.77A333.5,333.5,0,0,1,102.17,130Z"/><path class="cls-15" d="M51.65,122.46l12.72-30,80.78-3.06s35.75,16.36,56,22c22.82,6.38,40.71,11,40.71,11L265,152.5l-13.92,57.63-53,9.48L116.15,191.2s-7.25-.92-9.44-7.67S51.65,122.46,51.65,122.46Z"/><path class="cls-16" d="M197.76,219.51s2-18.34,18.52-17.79,26.4-.2,34.8,8.41Z"/><path class="cls-17" d="M264.94,152.41s-18,1.26-22.08,24.13,8.22,33.59,8.22,33.59S262.34,161.73,264.94,152.41Z"/><path class="cls-18" d="M60.92,100.61s4.37-6.72,12-4.76c0,0,32.23,16.78,74.17-4.7l-1.89-1.73s-80.38,2.63-80.78,3.06S60.92,100.61,60.92,100.61Z"/><path class="cls-19" d="M145.15,89.42s34.42,34.38,93.7,33.7l3.3-.36S175.51,104.56,145.15,89.42Z"/><path class="cls-20" d="M264.62,152.13s-37.36-8.41-27.37-28.93l4.92-.37Z"/><path class="cls-21" d="M54.43,116.44S81.78,92,124.21,124.8s60.43,17.46,60.43,17.46S219.47,145,210,174.41s-21.73,29.41-21.73,29.41-42.71-35.31-68.54-32.55S54.43,116.44,54.43,116.44Z"/><path class="cls-22" d="M54.23,116.38s64.41,39.64,65.93,55l-13.45,12.11C95,167,74.41,145.19,52.18,122.45Z"/><path class="cls-23" d="M106.71,183.53l10.46-15.09s57.85,3.71,79.35,50.64c0,0-74.13-28-81.46-28.11C109.43,190.87,106.72,185,106.71,183.53Z"/><ellipse class="cls-17" cx="149.67" cy="115.15" rx="6.5" ry="6.09" transform="translate(-37.79 92.33) rotate(-30.63)"/><ellipse class="cls-17" cx="183.97" cy="130.08" rx="4.25" ry="4.59" transform="translate(-17.46 29.14) rotate(-8.65)"/><ellipse class="cls-17" cx="218.08" cy="142.52" rx="5.91" ry="6.38" transform="translate(-18.95 34.4) rotate(-8.65)"/><ellipse class="cls-17" cx="204.45" cy="157.87" rx="1.44" ry="1.55" transform="translate(-21.41 32.53) rotate(-8.65)"/><ellipse class="cls-17" cx="208.13" cy="128.46" rx="1.81" ry="1.95" transform="translate(-16.95 32.75) rotate(-8.65)"/><ellipse class="cls-17" cx="160.26" cy="137.3" rx="3.23" ry="3.49" transform="translate(-18.82 25.65) rotate(-8.65)"/><ellipse class="cls-17" cx="205.05" cy="190.99" rx="2.98" ry="3.22" transform="translate(-26.38 33) rotate(-8.65)"/><path class="cls-24" d="M54.23,116.38q4.6,2.57,9.1,5.3c3,1.82,6,3.65,9,5.52C78.23,131,84.08,134.87,89.81,139s11.33,8.36,16.72,12.95c2.67,2.32,5.28,4.72,7.75,7.31a35.27,35.27,0,0,1,6.51,8.83l-1.25-.88a93.47,93.47,0,0,1,9.75,1.58c1.6.32,3.18.74,4.77,1.1l4.72,1.34a111.33,111.33,0,0,1,18.15,7.29c2.94,1.41,5.73,3.11,8.52,4.79,1.37.88,2.7,1.83,4,2.75l2,1.39,1.9,1.53c1.26,1,2.54,2,3.77,3.1l3.52,3.36c.58.56,1.19,1.1,1.75,1.69l1.61,1.82,3.18,3.66c-4.64-4.5-9.28-9-14.67-12.5l-2-1.39-2-1.27c-1.36-.84-2.7-1.71-4.09-2.51l-4.23-2.27c-1.38-.8-2.87-1.4-4.31-2.1A123.07,123.07,0,0,0,138,173.86a112.19,112.19,0,0,0-18.67-3.72l-.86-.08-.39-.79a34.62,34.62,0,0,0-5.93-8c-2.36-2.5-4.9-4.87-7.5-7.17-5.2-4.62-10.7-8.93-16.25-13.18s-11.22-8.37-16.93-12.43S60,120.38,54.23,116.38Z"/><path class="cls-25" d="M264.94,152.42h0l-22.79-29.66h0l-.26-.33s-4.7-1.21-12.34-3.24c-16.3-4.74-45.27-13.55-67.71-22.45-9.62-4.09-16.69-7.32-16.69-7.32s-80.38,2.63-80.78,3.06-3.45,8.13-3.45,8.13h0l-9.27,21.85s29,29.81,44.95,48c3.83,4.63,7.24,9,10.11,13.07h0c0,1.45,2.72,7.34,8.35,7.44h0c.66.17,1.08.23,1.08.23L198,219.61l53-9.48L265,152.5Z"/><path class="cls-13" d="M220.67,111.71,205,142.15a13.94,13.94,0,0,0-1.24,9.61c1,4.06,3.92,8,12,4.41a24.59,24.59,0,0,0,9.28-7.25c4.1-5.14,11-14.74,13.75-24.17,3.71-12.79-2.58-23.75-14.15-17.2A10.06,10.06,0,0,0,220.67,111.71Z"/><path class="cls-13" d="M181.38,81.55l-9.34,41a18.17,18.17,0,0,0,1.29,12c2.29,4.65,6.71,8.58,15,2.15a29.15,29.15,0,0,0,8.57-11.25c3.25-7.32,8.46-20.79,8.93-32.93.65-16.47-9.63-28.07-21-17.07A12.27,12.27,0,0,0,181.38,81.55Z"/><path class="cls-13" d="M139.66,61.44l-.08,42.08a18.16,18.16,0,0,0,3.89,11.38c3.26,4,9.69,8.5,16.34.4,3-3.63,3.68-9.68,4.63-14.46,1.56-7.85.88-21.94,1.46-34.08,1-19.69-15.58-25.26-24.27-12A12.2,12.2,0,0,0,139.66,61.44Z"/><path class="cls-13" d="M80.69,81.27,97,120.07a18.14,18.14,0,0,0,8,9c4.57,2.45,12.23,4.06,15.21-6,1.34-4.5-.37-10.35-1.35-15.11-1.61-7.85-7.72-20.57-11.89-32-6.77-18.51-24.17-17.23-27-1.64A12.25,12.25,0,0,0,80.69,81.27Z"/><path class="cls-26" d="M104.15,124.71S99.28,116,98.93,112s9.32-8.61,13.52-3.78c0,0,4,8,3.46,12.86S107.35,128.51,104.15,124.71Z"/><path class="cls-27" d="M104.15,124.71q-1.84-3.34-3.44-6.82a37.66,37.66,0,0,1-1.44-3.55,13,13,0,0,1-.5-1.88,3.09,3.09,0,0,1,.23-2,7.25,7.25,0,0,1,2.7-2.87,11.5,11.5,0,0,1,3.61-1.56,9,9,0,0,1,4-.12,6.3,6.3,0,0,1,3.52,2l.05.06,0,.05a40.31,40.31,0,0,1,2.55,6.68,24.63,24.63,0,0,1,.7,3.52,9.22,9.22,0,0,1-.15,3.62,5.86,5.86,0,0,1-2.08,2.93,8.57,8.57,0,0,1-3.21,1.53,8.09,8.09,0,0,1-3.53.12A5.21,5.21,0,0,1,104.15,124.71Zm0,0a5.19,5.19,0,0,0,3,1.69,7.58,7.58,0,0,0,3.48-.21c2.22-.63,4.33-2.23,4.88-4.45a9.11,9.11,0,0,0,0-3.41,26,26,0,0,0-.85-3.37,50,50,0,0,0-2.64-6.48l.07.1a5.5,5.5,0,0,0-3-1.72,8.69,8.69,0,0,0-3.59,0,11.43,11.43,0,0,0-3.43,1.31,6.8,6.8,0,0,0-2.61,2.49,2.59,2.59,0,0,0-.27,1.71,10.77,10.77,0,0,0,.39,1.84,35.46,35.46,0,0,0,1.25,3.59A73.66,73.66,0,0,0,104.15,124.71Z"/><path class="cls-26" d="M144.89,111.22s-1.33-11.36-.07-15.68,13.1-5.42,15.38,1.46c0,0,.79,10.16-1.81,15.16S146.58,116.58,144.89,111.22Z"/><path class="cls-27" d="M144.89,111.22c-.34-2.85-.58-5.71-.67-8.58-.05-1.44-.08-2.88,0-4.32a15.86,15.86,0,0,1,.24-2.16,5.64,5.64,0,0,1,.28-1.09,4.14,4.14,0,0,1,.63-1,7.71,7.71,0,0,1,3.89-2.1,12,12,0,0,1,4.42-.25,9.84,9.84,0,0,1,4.21,1.5,6.83,6.83,0,0,1,2.77,3.59l0,.07v0a51.64,51.64,0,0,1-.15,8.06c-.34,2.65-.76,5.39-2.25,7.74a6.47,6.47,0,0,1-3.24,2.41,9.33,9.33,0,0,1-4,.45,8.41,8.41,0,0,1-3.76-1.29A5.71,5.71,0,0,1,144.89,111.22Zm0,0a5.74,5.74,0,0,0,2.43,3,8.34,8.34,0,0,0,3.75,1.21c2.6.21,5.45-.77,6.81-3s1.61-5,1.82-7.56a53.42,53.42,0,0,0,0-7.9l0,.11A6.22,6.22,0,0,0,157.36,94a8.94,8.94,0,0,0-3.8-1.42,12.51,12.51,0,0,0-4.14.09,7.06,7.06,0,0,0-3.66,1.76,3.08,3.08,0,0,0-.58.81,4.87,4.87,0,0,0-.3,1,16.12,16.12,0,0,0-.33,2.1,40.62,40.62,0,0,0-.18,4.28C144.41,105.5,144.6,108.36,144.89,111.22Z"/><path class="cls-26" d="M173.93,130.36s1.31-11.36,3.53-15.28,14-2.28,14.63,4.94c0,0-1.55,10.07-5.23,14.34S174.35,136,173.93,130.36Z"/><path class="cls-27" d="M173.93,130.36c.33-2.85.75-5.69,1.32-8.51.28-1.41.57-2.82,1-4.2a19.25,19.25,0,0,1,.73-2.05,6.34,6.34,0,0,1,.53-1,3.5,3.5,0,0,1,.83-.8,7.53,7.53,0,0,1,4.27-1.15,11.77,11.77,0,0,1,4.35.76,9.73,9.73,0,0,1,3.76,2.42,6.81,6.81,0,0,1,1.88,4.13v.12a52.28,52.28,0,0,1-2,7.81c-.94,2.5-2,5.08-4,7a6.48,6.48,0,0,1-3.71,1.6,9.11,9.11,0,0,1-4-.48,8.27,8.27,0,0,1-3.37-2.11A5.79,5.79,0,0,1,173.93,130.36Zm0,0a5.76,5.76,0,0,0,1.68,3.53,8.27,8.27,0,0,0,3.37,2c2.48.8,5.48.5,7.31-1.34s2.7-4.46,3.5-6.94a52.48,52.48,0,0,0,1.81-7.7v.12a6.26,6.26,0,0,0-1.59-3.58,9,9,0,0,0-3.38-2.25,12.48,12.48,0,0,0-4-.86,7.1,7.1,0,0,0-4,.87,3.33,3.33,0,0,0-.74.66,5.37,5.37,0,0,0-.52.88,16.92,16.92,0,0,0-.8,2c-.46,1.35-.83,2.74-1.16,4.13C174.78,124.68,174.31,127.52,173.93,130.36Z"/><path class="cls-26" d="M206.26,147s3.15-7.83,5.54-10,10.83,2.21,9.93,7.59c0,0-3.08,6.83-6.63,8.89S205.5,151.18,206.26,147Z"/><path class="cls-27" d="M206.26,147c.83-2,1.72-4,2.7-6a27.93,27.93,0,0,1,1.62-2.86,9.43,9.43,0,0,1,1-1.32,2.62,2.62,0,0,1,1.62-.7,7,7,0,0,1,3.34.6,10.7,10.7,0,0,1,2.9,1.74,8.53,8.53,0,0,1,2.17,2.67,5.63,5.63,0,0,1,.56,3.48v.07l0,.05a32.2,32.2,0,0,1-3.13,5.28,18.62,18.62,0,0,1-2.05,2.31,6.8,6.8,0,0,1-2.64,1.67,5.41,5.41,0,0,1-3.09-.17,8.31,8.31,0,0,1-2.63-1.55,7.69,7.69,0,0,1-1.89-2.35A4.63,4.63,0,0,1,206.26,147Zm0,0a4.64,4.64,0,0,0,.53,2.92,7.15,7.15,0,0,0,1.93,2.27,6.17,6.17,0,0,0,5.5,1.37,6.26,6.26,0,0,0,2.32-1.69,16.62,16.62,0,0,0,1.83-2.33,40,40,0,0,0,2.91-5.19l0,.12c.33-2-.8-3.94-2.34-5.32a11,11,0,0,0-2.61-1.76,6.58,6.58,0,0,0-3-.73,2.18,2.18,0,0,0-1.36.5,8,8,0,0,0-1.06,1.19,26.14,26.14,0,0,0-1.77,2.74A58.24,58.24,0,0,0,206.26,147Z"/><path class="cls-26" d="M40,149.28l16.61,11.46s3.62-5.57-4.69-10.5S42,144,40,149.28Z"/><path class="cls-27" d="M40,149.28l4.34,2.77,4.24,2.76c1.39.92,2.81,1.81,4.17,2.75l4.12,2.79-.66.13a5.91,5.91,0,0,0-.33-6,14.23,14.23,0,0,0-5-4.33,65,65,0,0,0-5.93-3.48,6.59,6.59,0,0,0-1.58-.5,1.9,1.9,0,0,0-1.51.34,3.81,3.81,0,0,0-1.06,1.28A14.74,14.74,0,0,0,40,149.28Zm0,0a6.56,6.56,0,0,1,1.65-3.06,2.26,2.26,0,0,1,1.73-.53,6.07,6.07,0,0,1,1.75.43,63.11,63.11,0,0,1,6.15,3.25,15.2,15.2,0,0,1,5.4,4.55,6.75,6.75,0,0,1,1.19,3.46A6.6,6.6,0,0,1,57,161l-.25.43-.41-.3-4.19-2.94c-1.4-1-2.75-2-4.12-3s-2.74-2-4.07-3Z"/><path class="cls-28" d="M124.07,194.59s32.19,15.3,32.51,45.91"/><path class="cls-27" d="M124.07,194.59a55.68,55.68,0,0,1,12.8,7.51,64.06,64.06,0,0,1,5.64,4.9,58.89,58.89,0,0,1,5,5.62,44.86,44.86,0,0,1,7.14,13.16,37.56,37.56,0,0,1,2,14.72,50.64,50.64,0,0,0-3.42-14.17c-.43-1.13-1-2.21-1.47-3.32s-1.1-2.15-1.74-3.17a47.78,47.78,0,0,0-4-6,71.75,71.75,0,0,0-10-10.53A90.9,90.9,0,0,0,124.07,194.59Z"/><path class="cls-29" d="M197.55,252.57s-10.2,1.8-11.64,20.13S183,416,183,416l13.52-4.67C198.32,410.53,192.07,250.88,197.55,252.57Z"/></g><rect class="cls-10" x="12.5" y="10" width="275" height="330" rx="25"/></svg>