<svg id="Layer_1" data-name="Layer 1" xmlns="http://www.w3.org/2000/svg" xmlns:xlink="http://www.w3.org/1999/xlink" viewBox="0 0 1180 269"><defs><style>.cls-1{fill:none;}.cls-2{clip-path:url(#clip-path);}.cls-3{fill:#164c28;}.cls-4{fill:#fff;}.cls-5{fill:#414bf9;}.cls-6{fill:#fd01fb;}</style><clipPath id="clip-path"><rect class="cls-1" x="-2022" y="340" width="1920" height="900"/></clipPath></defs><path class="cls-3" d="M132.64,222.22c-23.68,0-44-10.56-57.2-29.73a16.62,16.62,0,0,1-.58-18A275.92,275.92,0,0,1,91,151.12c-9-7.8-16.31-18.74-16.74-34.52-.68-21.74,14.11-44.92,43.69-47,1.58-.11,3.17-.17,4.73-.17,24.69,0,46.21,14.29,57.58,38.22a16.63,16.63,0,0,1-7.51,22c-2.74,1.39-5.37,2.84-7.78,4.26,12.9,9.54,20.17,22.5,20.53,37.37v.15c.21,13.73-4.5,25.88-13.61,35.13C162,216.49,147.74,222.22,132.64,222.22Z"/><path class="cls-3" d="M202.9,221.49c-18.16,0-39.56-10-45.14-38.14-3.74-19.14.11-39.2,10.31-53.72,7.32-10.42,17.48-17.1,28.61-18.81a45.56,45.56,0,0,1,7.19-.57c20.62,0,37.92,14.78,43.07,36.79a16.58,16.58,0,0,1-1.51,11.57,15.93,15.93,0,0,1,2.13,1.81,16.57,16.57,0,0,1,4.83,12.24c-.88,27.86-18.13,46.49-45,48.63C205.87,221.42,204.38,221.49,202.9,221.49Zm-11.65-63.06"/><path class="cls-3" d="M240.46,222.39a16.62,16.62,0,0,1-16.59-17.7c2.28-35.23,1-94.23-2.88-128.83a16.63,16.63,0,0,1,13.06-18.09c13.92-3,28.58-5.69,29.19-5.8a16.63,16.63,0,0,1,19.54,18.42c-1.3,10.25-2.48,25.29-3.31,41.5a45.77,45.77,0,0,1,5.81.46l.22,0a37.52,37.52,0,0,1,25.72,16.44c11.33,16.69,12.87,43.81,4.56,80.61a16.6,16.6,0,0,1-16.21,13,16.37,16.37,0,0,1-3.93-.47,174.51,174.51,0,0,0-23.26-3.69,16.59,16.59,0,0,1-8.35,2.25,167.63,167.63,0,0,0-21.1,1.73A17.1,17.1,0,0,1,240.46,222.39Z"/><path class="cls-3" d="M339.35,222.28c-17.23,0-39.42-10.12-45.31-38.63-4.19-20,.61-42.31,12.22-56.71,8.4-10.42,19.89-16.22,32.35-16.32h.4c25.3,0,45,23,46.83,54.66s-16,54.95-43.5,56.9C341.32,222.25,340.33,222.28,339.35,222.28Zm5.84-46.42"/><path class="cls-3" d="M403.83,222.28c-17.22,0-39.42-10.12-45.31-38.63-4.18-20,.61-42.31,12.22-56.71,8.4-10.42,19.89-16.22,32.35-16.32h.4c25.3,0,45,23,46.84,54.66s-16.05,54.95-43.51,56.9C405.81,222.25,404.81,222.28,403.83,222.28Zm5.84-46.42"/><path class="cls-3" d="M438.41,222.91A16.62,16.62,0,0,1,422,203.51c6-35.23,4.13-96.4-1.52-127.56a16.63,16.63,0,0,1,14.86-19.52c.13,0,14-1.3,24.25-4.26a16.62,16.62,0,0,1,21.18,17.47c-2.88,31.75-1,100.71,3.7,131.76a16.62,16.62,0,0,1-15.24,19c-14.06,1-29.18,2.39-29.34,2.4C439.41,222.89,438.91,222.91,438.41,222.91Z"/><path class="cls-3" d="M551.46,221.14c-8.82,0-22-.95-34.66-5.44a16.61,16.61,0,0,1-10.69-19.17c4.53-21,5.18-67.67-1.13-101a16.63,16.63,0,0,1,11.93-19.12A123.34,123.34,0,0,1,549,71.81c31.55,0,52.67,15.19,56.5,40.64a43.62,43.62,0,0,1-5.2,28.4,43,43,0,0,1,11.84,22.89c4.7,24.7-8.18,46.2-32,53.56A99.88,99.88,0,0,1,551.46,221.14Z"/><path class="cls-3" d="M640.92,222.2a16.57,16.57,0,0,1-9-2.65,45.55,45.55,0,0,1-8,.69,51.13,51.13,0,0,1-6.49-.43,36.4,36.4,0,0,1-26.34-17.18c-11.14-17.67-11.25-47-.31-80.56a16.62,16.62,0,0,1,18.84-11.18c6.71,1.24,13.64,2.5,18.44,3.37a16.6,16.6,0,0,1,9.2-2.79l.62,0c.1,0,.9,0,2.15,0,6.7,0,12.93-.62,16.66-1.67a16.43,16.43,0,0,1,4.49-.62,16.62,16.62,0,0,1,16.54,18.27c-2.49,25.12-2.09,51.94,1.12,73.58a16.61,16.61,0,0,1-16.44,19.05h-.57a91.34,91.34,0,0,0-17.41,1.71A16.84,16.84,0,0,1,640.92,222.2Z"/><path class="cls-3" d="M697.94,222.72c-18.89-.26-34.2-8.11-45.55-23.32a16.6,16.6,0,0,1-.43-19.27,113.35,113.35,0,0,1,8.21-10.59,35.76,35.76,0,0,1-6.73-19.62,37,37,0,0,1,9.31-26.62c5-5.53,14.21-12.27,29.9-13,.91,0,1.74-.06,2.56-.06,22.64,0,39.91,13.75,47.39,37.72a16.64,16.64,0,0,1-2,14.12,17.09,17.09,0,0,1-3.23,3.6,32.29,32.29,0,0,1,6.16,20.55c-.56,21.52-19,36.52-44.84,36.52Z"/><path class="cls-3" d="M828.85,229.67a16.63,16.63,0,0,1-13.9-7.51c-14.54.76-27.39,2.78-27.53,2.8a16.37,16.37,0,0,1-2.6.21,16.62,16.62,0,0,1-16.41-19.28c4.72-29.13,4.32-80.27-3.79-110A16.62,16.62,0,0,1,776.4,75.47c13.88-3.67,26.73-5.54,38.21-5.54,31.35,0,51.92,14.93,56.44,41,2.83,16.16-2.81,31.93-14.86,43.85a93,93,0,0,1,18.63,46.18,16.61,16.61,0,0,1-13.74,18.3c-11.56,1.95-24.49,8.54-24.62,8.61A16.62,16.62,0,0,1,828.85,229.67Z"/><path class="cls-3" d="M900.61,222.4a16.66,16.66,0,0,1-9-2.65,46.54,46.54,0,0,1-8,.68,49.31,49.31,0,0,1-6.48-.43,36.4,36.4,0,0,1-26.34-17.18c-11.14-17.66-11.26-47-.32-80.55a16.62,16.62,0,0,1,18.84-11.19c6.71,1.25,13.64,2.5,18.44,3.37a16.65,16.65,0,0,1,9.21-2.78h.61c.11,0,.91,0,2.15,0,6.7,0,12.93-.63,16.67-1.68a16.82,16.82,0,0,1,4.49-.62,16.63,16.63,0,0,1,16.54,18.27c-2.5,25.13-2.09,51.95,1.11,73.58a16.62,16.62,0,0,1-16.44,19.06h-.56A91.27,91.27,0,0,0,904.13,222,16.86,16.86,0,0,1,900.61,222.4Z"/><path class="cls-3" d="M936.37,223.61A16.62,16.62,0,0,1,920,204.21c6-35.23,4.12-96.4-1.53-127.56a16.63,16.63,0,0,1,14.87-19.52c.13,0,14-1.3,24.25-4.26a16.62,16.62,0,0,1,21.18,17.47c-2.89,31.75-1,100.71,3.7,131.76a16.62,16.62,0,0,1-15.24,19c-14.06,1-29.19,2.39-29.34,2.4C937.37,223.59,936.87,223.61,936.37,223.61Z"/><path class="cls-3" d="M995.59,222c-24,0-43.69-16.39-50.09-41.77-4.91-19.5-1.31-40.28,9.4-54.22A44.22,44.22,0,0,1,990,108.38h.91c16,0,29.08,6.32,37.92,18.29,6.25,8.45,10,19.32,11.3,32.37a16.63,16.63,0,0,1,4.35,11.32c-.14,20.06-8.15,32-14.85,38.45a48.14,48.14,0,0,1-30.47,13C998,221.92,996.77,222,995.59,222Z"/><path class="cls-3" d="M1070.87,222.91c-18.89-.26-34.2-8.11-45.55-23.31a16.62,16.62,0,0,1-.43-19.28,113.35,113.35,0,0,1,8.21-10.59,35.73,35.73,0,0,1-6.73-19.62,37.07,37.07,0,0,1,9.31-26.62c5-5.53,14.21-12.27,29.9-13,.91,0,1.74-.06,2.57-.06,22.63,0,39.9,13.75,47.38,37.72a16.64,16.64,0,0,1-2,14.12,16.36,16.36,0,0,1-3.23,3.6,32.29,32.29,0,0,1,6.16,20.55c-.56,21.52-19,36.52-44.84,36.52Z"/><path class="cls-4" d="M123.67,210c-23.68,0-44-10.56-57.2-29.73a16.64,16.64,0,0,1-.58-17.95A273.88,273.88,0,0,1,82,139c-9-7.81-16.31-18.75-16.74-34.53C64.6,82.68,79.39,59.5,109,57.4c1.57-.11,3.17-.17,4.72-.17,24.69,0,46.21,14.29,57.58,38.23a16.62,16.62,0,0,1-7.51,22c-2.74,1.39-5.37,2.84-7.78,4.26,12.9,9.54,20.17,22.5,20.53,37.37v.15c.21,13.73-4.5,25.88-13.61,35.13C153.07,204.31,138.77,210,123.67,210Z"/><path class="cls-4" d="M193.93,209.31c-18.16,0-39.56-10-45.13-38.14-3.75-19.14.1-39.2,10.3-53.72,7.32-10.42,17.48-17.1,28.61-18.81a45.66,45.66,0,0,1,7.19-.57c20.62,0,37.93,14.78,43.07,36.79a16.63,16.63,0,0,1-1.5,11.57,16.71,16.71,0,0,1,6.95,14.06c-.87,27.85-18.13,46.48-45,48.63C196.9,209.24,195.41,209.31,193.93,209.31Zm-11.65-63.06"/><path class="cls-4" d="M231.49,210.21a16.62,16.62,0,0,1-16.59-17.69c2.28-35.24,1-94.24-2.88-128.84a16.63,16.63,0,0,1,13.07-18.09c13.91-3,28.57-5.69,29.19-5.8A16.62,16.62,0,0,1,268.72,44a16.64,16.64,0,0,1,5.09,14.17c-1.3,10.25-2.48,25.29-3.3,41.5a45.76,45.76,0,0,1,5.8.46l.23,0a37.47,37.47,0,0,1,25.71,16.43c11.33,16.69,12.87,43.81,4.56,80.61a16.6,16.6,0,0,1-16.21,13,16.37,16.37,0,0,1-3.93-.47,172,172,0,0,0-23.26-3.68,16.69,16.69,0,0,1-8.35,2.25A168,168,0,0,0,234,210,17.1,17.1,0,0,1,231.49,210.21Z"/><path class="cls-4" d="M330.38,210.1c-17.22,0-39.42-10.12-45.31-38.63-4.18-20,.61-42.31,12.22-56.71,8.4-10.42,19.89-16.22,32.35-16.32h.4c25.3,0,45,23,46.84,54.67s-16.05,54.94-43.5,56.89C332.36,210.07,331.36,210.1,330.38,210.1Zm5.84-46.42"/><path class="cls-4" d="M394.86,210.1c-17.22,0-39.42-10.12-45.31-38.63-4.18-20,.61-42.31,12.22-56.71,8.41-10.42,19.89-16.22,32.35-16.32h.4c25.3,0,45,23,46.84,54.67s-16.05,54.94-43.5,56.89C396.84,210.07,395.84,210.1,394.86,210.1Zm5.84-46.42"/><path class="cls-4" d="M429.44,210.73a16.62,16.62,0,0,1-16.39-19.4c6-35.22,4.13-96.39-1.52-127.56a16.63,16.63,0,0,1,14.86-19.52c.13,0,14-1.3,24.25-4.26a16.61,16.61,0,0,1,21.18,17.47c-2.88,31.75-.95,100.71,3.7,131.76a16.62,16.62,0,0,1-15.24,19c-14.06,1-29.18,2.39-29.33,2.4C430.44,210.71,429.94,210.73,429.44,210.73Z"/><path class="cls-4" d="M542.49,209c-8.82,0-22-.94-34.66-5.44a16.62,16.62,0,0,1-10.69-19.17c4.53-21,5.19-67.67-1.13-101a16.63,16.63,0,0,1,11.93-19.12,123.33,123.33,0,0,1,32.13-4.54c31.54,0,52.66,15.19,56.49,40.63a43.56,43.56,0,0,1-5.2,28.4c7.1,6.91,10.39,15.45,11.84,22.89,4.71,24.7-8.18,46.2-32,53.56A99.88,99.88,0,0,1,542.49,209Z"/><path class="cls-4" d="M632,210a16.57,16.57,0,0,1-9-2.65,45.55,45.55,0,0,1-8,.69,49.46,49.46,0,0,1-6.49-.43,36.41,36.41,0,0,1-26.34-17.18c-11.14-17.67-11.25-47-.31-80.56a16.62,16.62,0,0,1,18.84-11.18c6.71,1.25,13.64,2.5,18.44,3.37a16.61,16.61,0,0,1,9.2-2.78h.62c.1,0,.9,0,2.15,0,6.7,0,12.93-.62,16.66-1.67a16.82,16.82,0,0,1,4.49-.62,16.63,16.63,0,0,1,16.55,18.27c-2.5,25.13-2.09,51.94,1.11,73.58a16.61,16.61,0,0,1-16.44,19.05h-.56a91.36,91.36,0,0,0-17.42,1.71A16.7,16.7,0,0,1,632,210Z"/><path class="cls-4" d="M689,210.54c-18.89-.26-34.2-8.11-45.55-23.32A16.6,16.6,0,0,1,643,168a115.06,115.06,0,0,1,8.21-10.59,35.76,35.76,0,0,1-6.73-19.62,37.05,37.05,0,0,1,9.31-26.62c5-5.53,14.21-12.27,29.91-13,.9,0,1.74-.06,2.56-.06,22.64,0,39.9,13.75,47.38,37.72a16.61,16.61,0,0,1-5.24,17.72A32.29,32.29,0,0,1,734.55,174c-.56,21.52-19,36.52-44.84,36.52Z"/><path class="cls-4" d="M819.88,217.49a16.56,16.56,0,0,1-9-2.63A16.74,16.74,0,0,1,806,210c-14.54.77-27.39,2.78-27.53,2.8a16.37,16.37,0,0,1-2.6.21,16.62,16.62,0,0,1-16.41-19.28c4.72-29.13,4.33-80.26-3.79-110a16.62,16.62,0,0,1,11.78-20.45c13.88-3.67,26.74-5.54,38.22-5.54,31.35,0,51.91,14.93,56.43,41,2.83,16.17-2.81,31.93-14.86,43.85a93.11,93.11,0,0,1,18.64,46.18A16.63,16.63,0,0,1,852.11,207c-11.55,2-24.49,8.54-24.62,8.61A16.62,16.62,0,0,1,819.88,217.49Z"/><path class="cls-4" d="M891.64,210.22a16.69,16.69,0,0,1-9-2.65,46.54,46.54,0,0,1-8,.68,49.31,49.31,0,0,1-6.48-.43,36.4,36.4,0,0,1-26.34-17.18c-11.14-17.66-11.26-47-.31-80.55A16.61,16.61,0,0,1,860.35,98.9c6.72,1.25,13.65,2.5,18.44,3.37A16.65,16.65,0,0,1,888,99.49h.61c.11,0,.91,0,2.15,0,6.7,0,12.93-.63,16.67-1.68a16.82,16.82,0,0,1,4.49-.62,16.63,16.63,0,0,1,16.54,18.27c-2.5,25.13-2.09,51.95,1.12,73.58a16.64,16.64,0,0,1-16.45,19.06h-.56a92.15,92.15,0,0,0-17.41,1.71A16.86,16.86,0,0,1,891.64,210.22Z"/><path class="cls-4" d="M927.4,211.43A16.62,16.62,0,0,1,911,192c6-35.23,4.13-96.4-1.52-127.56A16.63,16.63,0,0,1,924.35,45c.13,0,14-1.3,24.25-4.26a16.62,16.62,0,0,1,21.18,17.47c-2.88,31.75-.95,100.71,3.7,131.76a16.62,16.62,0,0,1-15.24,19c-14.06,1-29.18,2.39-29.34,2.4C928.4,211.41,927.9,211.43,927.4,211.43Z"/><path class="cls-4" d="M986.63,209.78c-24,0-43.7-16.39-50.1-41.77-4.91-19.5-1.31-40.27,9.4-54.22A44.22,44.22,0,0,1,981,96.2h.91c16,0,29.08,6.32,37.92,18.29,6.25,8.45,10,19.32,11.3,32.37a16.63,16.63,0,0,1,4.35,11.32c-.14,20.07-8.15,32-14.85,38.45a48.11,48.11,0,0,1-30.47,13C989,209.74,987.8,209.78,986.63,209.78Z"/><path class="cls-4" d="M1061.9,210.74c-18.89-.27-34.2-8.12-45.55-23.32a16.64,16.64,0,0,1-.43-19.28,114.88,114.88,0,0,1,8.21-10.58,35.78,35.78,0,0,1-6.72-19.63,37,37,0,0,1,9.31-26.62c5-5.53,14.2-12.27,29.9-13,.9,0,1.74-.05,2.56-.05,22.64,0,39.91,13.74,47.38,37.71a16.64,16.64,0,0,1-2,14.12,16.11,16.11,0,0,1-3.23,3.6,32.25,32.25,0,0,1,6.16,20.55c-.56,21.52-19,36.52-44.84,36.52Z"/><path d="M127.87,198.63c-17.34,0-32.77-6.93-43.51-22.53a277.15,277.15,0,0,1,17.33-24.79c8,15.43,27,22.71,33.46,15.43,5.2-5.72,0-14.91-16.65-22.54-15.77-7.28-31.89-15.77-32.41-35-.35-11.1,6.24-28.43,28.25-30s38,11.44,46.11,28.6A179.32,179.32,0,0,0,136,122.88c-2.6-7.45-9.18-13-15.25-13-4.86,0-7.28,3.47-6.76,7.45.69,7.46,8,10.06,20.45,14.74,18.55,6.59,29.3,18.2,29.64,32.59C164.44,187.54,145.37,198.63,127.87,198.63Z"/><path d="M201.19,197.77c-11.79,1-27.74-3.64-31.9-24.62-4.85-24.79,7.11-50.09,25.14-52.87,17.51-2.77,28.43,10.23,31.55,23.58,0,0-13.18,2.42-22.88,6.76-.35-4.68-2.26-9.54-6.76-8.84s-8.84,9-8.5,18.89c.35,10.92,4.68,17.34,10.06,17,4.5-.35,7.62-4.33,7.8-10.58,0,0,12.3-1.56,25.3-1.9C230.31,187.19,216.62,196.55,201.19,197.77Z"/><path d="M268.27,194.65c9.19-26,5.72-49.75-1.39-51.83-3.81-1-7.1,1-10.05,5,0,18.9.69,36.41,2.43,49.06a186.4,186.4,0,0,0-23.58,1.91c2.43-37.45.87-97.42-3-131.75,13.87-2.94,28.78-5.72,28.78-5.72-1.91,15.09-3.64,40.57-4.33,66.4a25.84,25.84,0,0,1,21-5.9c21,3.3,26.7,32.42,16.64,77A190.15,190.15,0,0,0,268.27,194.65Z"/><path d="M336.39,198.63c-10.22.7-26.52-4.33-30.85-25.3-5-24.1,6.76-52.87,28.43-53.05,15.6-.17,29.12,15.08,30.51,39C365.69,180.09,356,197.25,336.39,198.63Zm-2.77-52.69c-7.45.69-12,12.82-10.05,23.74,1.38,9.19,6.24,13,10.92,12.49,6.93-.7,10.57-9.71,9.88-18.9C343.5,152.35,338.82,145.59,333.62,145.94Z"/><path d="M400.87,198.63c-10.22.7-26.52-4.33-30.85-25.3-5-24.1,6.76-52.87,28.43-53.05,15.6-.17,29.12,15.08,30.51,39C430.17,180.09,420.46,197.25,400.87,198.63Zm-2.77-52.69c-7.45.69-12,12.82-10.05,23.74,1.38,9.19,6.24,13,10.92,12.49,6.93-.7,10.57-9.71,9.88-18.9C408,152.35,403.3,145.59,398.1,145.94Z"/><path d="M433.64,199.33C440.22,160.5,437.8,97.57,432.08,66c0,0,15.42-1.38,27.38-4.85-2.94,32.42-1,103.31,3.82,135.73C448.89,197.94,433.64,199.33,433.64,199.33Z"/><path d="M570.45,194.46c-14.21,4.33-36.75,4.33-52.87-1.39,5.2-24.09,5.55-72.8-1-107.65C544.28,77.8,580,79.18,584.32,108c2.08,13.69-5.72,24.79-17.16,30.16,11.79,2.08,21.15,7.63,23.92,21.84C594.55,178.16,584.49,190.12,570.45,194.46Zm-30-85.11c1,7.1,1.74,15.25,2.26,23.4,9.7-1.56,17.16-5.72,17.68-12.83C560.92,111.25,553.29,106.4,540.46,109.35Zm2.95,40.91c.35,8.84.35,17.16,0,23.57,16.12,1.56,23.4-4.51,22.36-13C564.9,153.55,557.1,149.39,543.41,150.26Z"/><path d="M636.15,198.62c.17-2.6.34-5.38.34-8a27.91,27.91,0,0,1-21.66,5.73c-21.15-2.78-26.35-35.19-13-76.1,12.13,2.25,24.78,4.5,24.78,4.5-8.49,24.27-8.49,49.93-.17,51.31,3.64.7,7.11-.69,10-4.5-.52-17.34-2.08-35.37-4-50.45,0,0,14,.52,23.92-2.25-2.6,26.17-2.26,54.26,1.21,77.66A108.93,108.93,0,0,0,636.15,198.62Z"/><path d="M693.35,199.14C681,199,670.12,194.8,660.93,182.5a119.83,119.83,0,0,1,15.61-18c5.89,12,16.46,14.91,19.06,11.79,2.08-2.6.7-7.11-10.57-12-10.23-4.34-19.24-10.75-19.76-22.19-.52-9.19,5.2-21.32,23.4-22.19,19.59-.87,29.12,12.65,33.28,26a68.56,68.56,0,0,0-22.36,6.59c-5.2-13.52-13.69-13-13-7.63,2.08,14.56,36,11.62,35.54,34C721.78,192.2,709,199.31,693.35,199.14Z"/><path d="M832.62,206.09c1-23.23-5.55-43.16-18-51.31a416.79,416.79,0,0,0,6.07,43.68,314.73,314.73,0,0,0-32.07,3.12c5.2-32.06,4.51-85.28-4.16-117,26.17-6.94,68.12-11.79,74,22.18,2.42,13.87-5,30-24.62,39,13.7,9,25.66,27.56,28.26,50.09C847.7,198.29,832.62,206.09,832.62,206.09ZM813,109.54c-.17,6.59-.17,14.91.17,24.27,10.23-1,18.9-6.94,20.29-14.39C835.05,109.71,825,106.59,813,109.54Z"/><path d="M904.38,198.81c.18-2.6.35-5.37.35-8a27.93,27.93,0,0,1-21.67,5.72c-21.15-2.78-26.35-35.19-13-76.1,12.13,2.25,24.79,4.51,24.79,4.51-8.5,24.26-8.5,49.92-.17,51.31,3.64.69,7.1-.7,10.05-4.51-.52-17.33-2.08-35.36-4-50.44,0,0,14,.52,23.92-2.26-2.6,26.18-2.25,54.26,1.22,77.66A109,109,0,0,0,904.38,198.81Z"/><path d="M931.59,200c6.59-38.82,4.17-101.75-1.56-133.3,0,0,15.43-1.38,27.39-4.85-2.94,32.41-1,103.31,3.82,135.73C946.85,198.64,931.59,200,931.59,200Z"/><path d="M1001.8,198.29c-14.39,1-30.86-7.11-36.41-29.12-6.06-24.1,4.51-50.79,28.61-51.14,23-.34,32.59,17.34,33.63,39.7,0,0-22.89.34-42.47,4,.86,10.92,4.85,19.58,10.57,19.06,5.37-.52,6.41-7.8,5.2-14.38,0,0,15.77-2.08,30.68-3.12C1031.44,188.41,1015.66,197.42,1001.8,198.29Zm-8.15-62.58c-4.16.7-7.11,6.24-8.32,14a142.08,142.08,0,0,0,18.2-1.73C1002.49,140.57,999,135,993.65,135.71Z"/><path d="M1066.28,199.33c-12.31-.17-23.23-4.33-32.41-16.64a119.44,119.44,0,0,1,15.6-18c5.89,12,16.46,14.91,19.06,11.79,2.08-2.6.7-7.11-10.57-12-10.23-4.33-19.24-10.75-19.76-22.19-.52-9.19,5.2-21.32,23.4-22.19,19.59-.86,29.12,12.66,33.28,26a68.84,68.84,0,0,0-22.36,6.59c-5.2-13.52-13.69-13-13-7.63,2.08,14.57,36.06,11.62,35.54,34C1094.71,192.4,1081.88,199.5,1066.28,199.33Z"/><path class="cls-5" d="M123.67,193.42c-17.33,0-32.76-6.94-43.51-22.54A280.22,280.22,0,0,1,97.5,146.09c8,15.43,27,22.71,33.45,15.43,5.2-5.72,0-14.91-16.64-22.53-15.77-7.28-31.89-15.78-32.41-35-.35-11.09,6.24-28.43,28.25-30s38,11.44,46.11,28.6a179.93,179.93,0,0,0-24.44,15.09c-2.6-7.46-9.19-13-15.25-13-4.86,0-7.29,3.46-6.77,7.45.7,7.45,8,10,20.46,14.73,18.55,6.59,29.29,18.2,29.64,32.59C160.25,182.32,141.18,193.42,123.67,193.42Z"/><path class="cls-5" d="M197,192.55c-11.78,1-27.73-3.64-31.89-24.61-4.85-24.79,7.11-50.1,25.13-52.87,17.51-2.78,28.43,10.22,31.55,23.57,0,0-13.17,2.43-22.88,6.76-.34-4.68-2.25-9.53-6.76-8.84s-8.84,9-8.49,18.89c.34,10.93,4.68,17.34,10,17,4.51-.34,7.63-4.33,7.8-10.57,0,0,12.31-1.56,25.31-1.91C226.12,182,212.42,191.34,197,192.55Z"/><path class="cls-5" d="M264.08,189.43c9.18-26,5.72-49.75-1.39-51.83-3.81-1-7.11,1-10.05,5,0,18.89.69,36.4,2.42,49.05a186.36,186.36,0,0,0-23.57,1.91c2.42-37.44.86-97.42-3-131.74,13.87-3,28.78-5.72,28.78-5.72-1.91,15.08-3.64,40.56-4.34,66.39a25.9,25.9,0,0,1,21-5.89c21,3.29,26.69,32.41,16.64,77A190.15,190.15,0,0,0,264.08,189.43Z"/><path class="cls-5" d="M332.2,193.42c-10.23.69-26.52-4.34-30.85-25.31-5-24.1,6.76-52.87,28.42-53,15.61-.18,29.13,15.08,30.51,39C361.5,174.87,351.79,192,332.2,193.42Zm-2.77-52.7c-7.46.69-12,12.83-10.06,23.75,1.39,9.19,6.24,13,10.92,12.48,6.94-.69,10.58-9.71,9.88-18.89C339.31,147.13,334.63,140.37,329.43,140.72Z"/><path class="cls-5" d="M396.68,193.42c-10.23.69-26.52-4.34-30.85-25.31-5-24.1,6.76-52.87,28.43-53,15.6-.18,29.12,15.08,30.5,39C426,174.87,416.27,192,396.68,193.42Zm-2.77-52.7c-7.46.69-12,12.83-10.06,23.75,1.39,9.19,6.24,13,10.92,12.48,6.94-.69,10.58-9.71,9.89-18.89C403.79,147.13,399.11,140.37,393.91,140.72Z"/><path class="cls-5" d="M429.44,194.11c6.59-38.83,4.16-101.75-1.56-133.3,0,0,15.43-1.39,27.39-4.85-2.95,32.41-1,103.31,3.81,135.72C444.7,192.72,429.44,194.11,429.44,194.11Z"/><path class="cls-5" d="M566.26,189.24c-14.22,4.34-36.75,4.34-52.87-1.38,5.2-24.1,5.54-72.81-1-107.65,27.73-7.63,63.44-6.24,67.77,22.53,2.09,13.7-5.72,24.79-17.16,30.17,11.79,2.08,21.15,7.62,23.93,21.84C590.35,173,580.3,184.91,566.26,189.24Zm-30-85.11c1,7.11,1.73,15.25,2.25,23.4,9.71-1.56,17.16-5.72,17.68-12.83C556.72,106,549.1,101.18,536.27,104.13Zm3,40.91c.34,8.84.34,17.16,0,23.57,16.12,1.56,23.4-4.5,22.36-13C560.71,148.33,552.91,144.17,539.22,145Z"/><path class="cls-5" d="M632,193.4c.18-2.6.35-5.37.35-8a27.88,27.88,0,0,1-21.67,5.72c-21.15-2.77-26.35-35.19-13-76.1,12.14,2.25,24.79,4.51,24.79,4.51-8.49,24.27-8.49,49.92-.17,51.31,3.64.69,7.1-.7,10-4.51-.52-17.33-2.08-35.36-4-50.44,0,0,14,.52,23.93-2.26-2.61,26.18-2.26,54.26,1.21,77.66A109,109,0,0,0,632,193.4Z"/><path class="cls-5" d="M689.16,193.92c-12.31-.17-23.23-4.33-32.42-16.64a120.07,120.07,0,0,1,15.6-18c5.9,12,16.47,14.91,19.07,11.79,2.08-2.6.69-7.11-10.57-12-10.23-4.33-19.25-10.75-19.77-22.19-.52-9.19,5.2-21.32,23.41-22.19,19.58-.86,29.12,12.66,33.28,26a68.58,68.58,0,0,0-22.36,6.58c-5.2-13.52-13.7-13-13-7.62,2.08,14.56,36.05,11.61,35.53,34C717.58,187,704.76,194.1,689.16,193.92Z"/><path class="cls-6" d="M828.43,200.88c1-23.23-5.55-43.17-18-51.31a420.16,420.16,0,0,0,6.06,43.68,311.41,311.41,0,0,0-32.06,3.12c5.2-32.07,4.5-85.29-4.16-117,26.17-6.93,68.12-11.79,74,22.19,2.43,13.87-5,30-24.61,39,13.69,9,25.65,27.56,28.25,50.1C843.51,193.07,828.43,200.88,828.43,200.88Zm-19.59-96.56c-.18,6.59-.18,14.91.17,24.27,10.23-1,18.89-6.93,20.28-14.39C830.85,104.5,820.8,101.38,808.84,104.32Z"/><path class="cls-6" d="M900.19,193.6c.17-2.6.35-5.38.35-8a27.9,27.9,0,0,1-21.67,5.72c-21.15-2.77-26.35-35.19-13-76.1,12.13,2.26,24.78,4.51,24.78,4.51-8.49,24.27-8.49,49.92-.17,51.31,3.64.69,7.11-.69,10.06-4.51-.52-17.33-2.08-35.36-4-50.44,0,0,14,.52,23.92-2.25-2.6,26.17-2.25,54.25,1.21,77.65A108.5,108.5,0,0,0,900.19,193.6Z"/><path class="cls-6" d="M927.4,194.81C934,156,931.56,93.06,925.84,61.51c0,0,15.43-1.39,27.39-4.86-3,32.42-1,103.32,3.81,135.73C942.66,193.42,927.4,194.81,927.4,194.81Z"/><path class="cls-6" d="M997.6,193.07c-14.38,1.05-30.85-7.1-36.4-29.12-6.07-24.09,4.51-50.79,28.6-51.13,23.06-.35,32.59,17.33,33.63,39.69,0,0-22.88.35-42.47,4,.87,10.92,4.86,19.59,10.58,19.07,5.37-.52,6.41-7.8,5.2-14.39,0,0,15.77-2.08,30.68-3.12C1027.25,183.19,1011.47,192.21,997.6,193.07Zm-8.14-62.57c-4.16.69-7.11,6.24-8.32,14a142.08,142.08,0,0,0,18.2-1.73C998.3,135.35,994.83,129.8,989.46,130.5Z"/><path class="cls-6" d="M1062.09,194.12c-12.31-.18-23.23-4.34-32.42-16.65a120.3,120.3,0,0,1,15.6-18c5.9,12,16.47,14.9,19.07,11.78,2.08-2.6.69-7.1-10.57-12-10.23-4.33-19.24-10.74-19.76-22.19-.52-9.18,5.2-21.32,23.4-22.18,19.59-.87,29.12,12.65,33.28,26a68.56,68.56,0,0,0-22.36,6.59c-5.2-13.53-13.7-13-13-7.63,2.08,14.56,36.05,11.61,35.53,34C1090.52,187.18,1077.69,194.29,1062.09,194.12Z"/></svg>