<svg id="Layer_1" data-name="Layer 1" xmlns="http://www.w3.org/2000/svg" xmlns:xlink="http://www.w3.org/1999/xlink" viewBox="0 0 256 256"><defs><style>.cls-1{fill:#340962;}.cls-2{fill:#ebe9ff;}.cls-3{fill:url(#linear-gradient);}.cls-4{fill:#66351a;}.cls-5{fill:#af544a;}.cls-6,.cls-9{opacity:0.17;}.cls-6{fill:url(#linear-gradient-2);}.cls-7{fill:#6b3c22;opacity:0.21;}.cls-8{opacity:0.14;fill:url(#linear-gradient-3);}.cls-9{fill:url(#linear-gradient-4);}.cls-10,.cls-11,.cls-12{opacity:0.25;}.cls-10{fill:url(#linear-gradient-5);}.cls-11{fill:url(#linear-gradient-6);}.cls-12{fill:url(#linear-gradient-7);}.cls-13,.cls-15{fill:#fff;}.cls-13,.cls-14{opacity:0.7;}.cls-16{fill:#ffb01d;stroke:#a04e00;stroke-miterlimit:10;stroke-width:3px;}.cls-17{fill:#ffeb45;}.cls-18{fill:#e7fcff;}.cls-19{fill:#f9f0c7;}.cls-20{fill:#bb5000;opacity:0.47;}</style><linearGradient id="linear-gradient" x1="78.48" y1="128.45" x2="175.44" y2="128.45" gradientUnits="userSpaceOnUse"><stop offset="0" stop-color="#ffc7b8"/><stop offset="0.09" stop-color="#fec3b4"/></linearGradient><linearGradient id="linear-gradient-2" x1="90.07" y1="120.3" x2="162.16" y2="120.3" gradientUnits="userSpaceOnUse"><stop offset="0" stop-color="#8f4638"/><stop offset="0.99" stop-color="#8f4638"/></linearGradient><linearGradient id="linear-gradient-3" x1="103.18" y1="114.11" x2="162.71" y2="114.11" xlink:href="#linear-gradient-2"/><linearGradient id="linear-gradient-4" x1="134.09" y1="87.25" x2="162.62" y2="87.25" xlink:href="#linear-gradient-2"/><linearGradient id="linear-gradient-5" x1="109.45" y1="184.47" x2="172.66" y2="184.47" xlink:href="#linear-gradient-2"/><linearGradient id="linear-gradient-6" x1="156.28" y1="97.62" x2="175.28" y2="97.62" xlink:href="#linear-gradient-2"/><linearGradient id="linear-gradient-7" x1="131.74" y1="146.97" x2="161.07" y2="146.97" xlink:href="#linear-gradient-2"/></defs><ellipse class="cls-1" cx="128.37" cy="128" rx="94.06" ry="93.65"/><circle class="cls-2" cx="128" cy="128" r="85.45" transform="translate(-53.02 128) rotate(-45)"/><path class="cls-3" d="M162.05,132.58s-.24-5,6.45-14.8,10.8-29.34,1.55-40.54S147,50.41,112.88,59.46,77.52,107.32,78.77,114.1,82.28,152.33,99,164.33s-.19.29-.19.29,12.27,12.12,19,15,15.05,11.09,15.05,11.09S144,207.55,164,196.25c0,0,10.78-6.25,8.71-21.15-1.87-13.56-11.79-20.32-10.64-29C163,138.86,162.62,133,162.05,132.58Z"/><path class="cls-4" d="M157,134.73s-.77-2.7-3-3.18-5,.79-5.4,5.14a19.17,19.17,0,0,0,0,6.61,31.24,31.24,0,0,0,2.23,7c2.63,4.6,5.32,1.93,5.14,1.64a11.57,11.57,0,0,1-1.84-6.52C154.32,143.67,157,136.17,157,134.73Z"/><path class="cls-5" d="M129.48,129.16s.23,0,.68-.06,1.11-.14,2-.31a30.21,30.21,0,0,0,7.14-2.42c.73-.36,1.49-.74,2.27-1.2.39-.22.78-.47,1.18-.72q.3-.18.6-.39l.6-.4.61-.43.6-.46c.42-.3.81-.64,1.23-1,.8-.68,1.63-1.41,2.42-2.21s1.59-1.66,2.37-2.57,1.56-1.86,2.33-2.87a55.53,55.53,0,0,0,4.36-6.66,42.19,42.19,0,0,0,3.45-7.93,29.27,29.27,0,0,0,1-4.46,24.66,24.66,0,0,0,.27-4.73,20.28,20.28,0,0,0-.78-4.83,19.38,19.38,0,0,0-2-4.61,22,22,0,0,0-3.16-4.07,28.45,28.45,0,0,0-4-3.37A38.23,38.23,0,0,0,148,70.77l-.6-.3-.3-.14-.16-.08-.15-.07c-.4-.18-.8-.37-1.23-.54l-.63-.26-.64-.24c-.42-.17-.86-.31-1.28-.46a36.91,36.91,0,0,0-5.34-1.34,37.8,37.8,0,0,0-5.53-.54,42.1,42.1,0,0,0-5.6.28,41.77,41.77,0,0,0-10.87,2.84c-.88.36-1.73.76-2.58,1.16s-1.67.86-2.49,1.34a40.38,40.38,0,0,0-8.85,6.9,38.47,38.47,0,0,0-6.49,9c-.22.41-.42.83-.62,1.24s-.38.83-.57,1.25c-.36.84-.7,1.69-1,2.55a38.53,38.53,0,0,0-1.42,5.23A87.86,87.86,0,0,0,90.3,109a73.66,73.66,0,0,0,1.15,19.85,64.17,64.17,0,0,0,2.48,8.9,57.3,57.3,0,0,0,3.53,7.88,53.6,53.6,0,0,0,9,12.16,54.32,54.32,0,0,0,9,7.42,58.86,58.86,0,0,0,6.54,3.74l1,.5.76.35.62.28-.61-.3-.75-.37-1-.53a61.06,61.06,0,0,1-6.41-3.91c-1.32-.92-2.75-2-4.23-3.26a54,54,0,0,1-4.55-4.3c-.77-.81-1.53-1.68-2.29-2.59s-1.5-1.88-2.23-2.89-1.45-2.08-2.14-3.19-1.34-2.28-2-3.49a59.74,59.74,0,0,1-3.36-7.82,62.71,62.71,0,0,1-2.33-8.78,74.12,74.12,0,0,1-1-19.55A87.84,87.84,0,0,1,93,98.81a37.79,37.79,0,0,1,1.38-5c.28-.83.61-1.64,1-2.46.18-.4.36-.8.55-1.2s.38-.8.6-1.19a36.67,36.67,0,0,1,6.29-8.66,40.19,40.19,0,0,1,8.56-6.68c.78-.46,1.59-.88,2.4-1.29s1.65-.79,2.49-1.13a39.17,39.17,0,0,1,15.92-3.05,39.56,39.56,0,0,1,5.34.5,35.83,35.83,0,0,1,5.15,1.26c.42.15.84.28,1.24.44l.62.23.6.24c.4.16.8.35,1.21.53l.15.07.14.06.3.14.58.29a35.11,35.11,0,0,1,4.46,2.6,27.4,27.4,0,0,1,3.88,3.2,21.33,21.33,0,0,1,3,3.84,18,18,0,0,1,1.95,4.34,19,19,0,0,1,.79,4.58,26.48,26.48,0,0,1-1.16,8.88,42.25,42.25,0,0,1-3.27,7.83,58.47,58.47,0,0,1-4.2,6.64q-1.11,1.52-2.25,2.88c-.76.92-1.52,1.78-2.3,2.58s-1.56,1.54-2.34,2.23c-.41.34-.79.68-1.19,1l-.59.46-.59.44c-.19.15-.39.28-.59.42l-.58.4c-.39.25-.77.51-1.15.73-.76.47-1.51.87-2.22,1.24a30.71,30.71,0,0,1-7,2.59,17.48,17.48,0,0,1-2,.36Z"/><path class="cls-5" d="M161.35,97.66s-.44.51-1.3,1.43-2.16,2.24-3.88,3.85-3.86,3.5-6.45,5.52c-1.3,1-2.69,2.06-4.23,3.06s-3.22,2-5,2.94-3.66,1.91-5.61,2.91-4,2-6,3.21a38.36,38.36,0,0,0-5.9,4.07,18.72,18.72,0,0,0-2.58,2.68,12.89,12.89,0,0,0-1.88,3.29,10.85,10.85,0,0,0-.53,1.85l-.08.48c0,.16,0,.32-.06.48s0,.32-.05.48l0,.49a15.33,15.33,0,0,0,.35,3.87,19.19,19.19,0,0,0,3.26,7.19,20.94,20.94,0,0,0,5.91,5.49,19.14,19.14,0,0,0,3.7,1.79c.32.12.64.23,1,.33l.24.07.27.06c.17.05.34.07.52.11a8.77,8.77,0,0,0,2.11.05c1.4-.13,2.72-.52,4-.69a9.79,9.79,0,0,1,1.95-.06,8,8,0,0,1,1.88.4,6.17,6.17,0,0,1,1.61,1c.5.4,1,.84,1.46,1.3.94.92,1.84,1.9,2.75,2.87s1.82,1.93,2.81,2.82a17.71,17.71,0,0,0,1.56,1.28,8.9,8.9,0,0,0,1.77,1,4.7,4.7,0,0,0,2.08.43,4,4,0,0,0,1.08-.19,4.79,4.79,0,0,0,1-.48c.15-.1.28-.21.42-.32l.19-.17.11-.09.08-.08.18-.17.18-.19.33-.39a4.32,4.32,0,0,0,.89-1.88,3.85,3.85,0,0,0-.25-2.08,7.79,7.79,0,0,0-1-1.71c-.77-1-1.63-1.92-2.43-2.81a15.81,15.81,0,0,1-2.11-2.76,6.16,6.16,0,0,1-.61-1.49l0-.19,0-.19c0-.12,0-.29,0-.42a7.19,7.19,0,0,1-.05-.81,11.19,11.19,0,0,1,.07-1.64,14.38,14.38,0,0,1,.25-1.62c.22-1.07.54-2.1.86-3.13s.65-2,.91-3.08a10.34,10.34,0,0,0,.29-1.57,6.12,6.12,0,0,0,0-1.6,4.15,4.15,0,0,0-.54-1.5,4.29,4.29,0,0,0-1.05-1.15,6.26,6.26,0,0,0-.62-.43l-.66-.34a4.49,4.49,0,0,0-1.42-.39,8.68,8.68,0,0,0-2.76.2,15.36,15.36,0,0,0-2.46.77,24.89,24.89,0,0,0-4.13,2.11,28.4,28.4,0,0,0-3.19,2.28,21.62,21.62,0,0,0-3.82,3.93,9.87,9.87,0,0,0-.77,1.22l-.18.32-.06.11a.05.05,0,0,0,0,.07.07.07,0,0,0,.07,0h0l.06-.11c0-.07.09-.18.17-.32a12.46,12.46,0,0,1,.79-1.19,22.12,22.12,0,0,1,3.85-3.84,31,31,0,0,1,3.2-2.22,25.8,25.8,0,0,1,4.11-2,16.44,16.44,0,0,1,2.41-.71,8,8,0,0,1,2.63-.16,4.09,4.09,0,0,1,1.28.37,5.08,5.08,0,0,1,.59.35,5.7,5.7,0,0,1,.55.42,3.92,3.92,0,0,1,.87,1,3.65,3.65,0,0,1,.4,1.3,8,8,0,0,1-.4,2.89c-.28,1-.65,2-1,3a33.42,33.42,0,0,0-.95,3.21,14.23,14.23,0,0,0-.41,3.48c0,.3,0,.59,0,.9,0,.16,0,.28.06.45l0,.24.05.23a6.83,6.83,0,0,0,.71,1.77,16.68,16.68,0,0,0,2.26,2.93c.83.9,1.7,1.76,2.43,2.7a6.9,6.9,0,0,1,.9,1.48,3,3,0,0,1,.22,1.59,3.39,3.39,0,0,1-.69,1.51l-.28.35-.15.16-.16.17a3.9,3.9,0,0,1-.68.55,3.22,3.22,0,0,1-.76.39,3,3,0,0,1-.83.15,3.9,3.9,0,0,1-1.72-.35,8.45,8.45,0,0,1-1.61-.94,17.12,17.12,0,0,1-1.49-1.21c-1-.87-1.87-1.82-2.78-2.78s-1.81-1.94-2.77-2.88a20.2,20.2,0,0,0-1.54-1.36,7,7,0,0,0-1.84-1.09,8.25,8.25,0,0,0-2.08-.41,9.89,9.89,0,0,0-2.11.09c-1.38.2-2.68.61-4,.75a7.41,7.41,0,0,1-1.94,0,4,4,0,0,1-.48-.08l-.23-.05-.25-.07-.94-.31a19.06,19.06,0,0,1-3.59-1.71,20.37,20.37,0,0,1-5.77-5.32,18.7,18.7,0,0,1-3.21-7,15.42,15.42,0,0,1-.36-3.76l0-.46c0-.16,0-.32,0-.47s0-.31.06-.46l.07-.46a11.92,11.92,0,0,1,.5-1.77,12.54,12.54,0,0,1,1.8-3.19,18.8,18.8,0,0,1,2.5-2.62,38,38,0,0,1,5.82-4c2-1.17,4-2.21,5.95-3.21s3.82-2,5.6-3,3.47-2,5-3c.77-.5,1.52-1,2.21-1.55s1.38-1,2-1.56c2.57-2.06,4.69-4,6.4-5.62s3-3,3.83-3.9,1.29-1.44,1.29-1.44a0,0,0,0,0,0-.07A.06.06,0,0,0,161.35,97.66Z"/><path class="cls-5" d="M155.8,151.73l-.24.24-.06.07-.07.05-.15.13c-.05.05-.12.08-.18.13a.86.86,0,0,1-.23.13,1.92,1.92,0,0,1-.25.12l-.14.05-.16,0a1.12,1.12,0,0,1-.32,0l-.17,0-.18,0a3.12,3.12,0,0,1-1.45-1,9.09,9.09,0,0,1-1.25-1.82,17.17,17.17,0,0,1-1-2.29,26.23,26.23,0,0,1-1.25-5.31,20.75,20.75,0,0,1,0-5.45,10.82,10.82,0,0,1,.62-2.43,6.65,6.65,0,0,1,.53-1,5.33,5.33,0,0,1,.32-.46l.18-.2.09-.1.09-.09.19-.17.21-.16c.13-.1.28-.17.41-.26a4,4,0,0,1,.43-.19,3.38,3.38,0,0,1,.42-.13,4.33,4.33,0,0,1,1.49-.08,3.65,3.65,0,0,1,.54.08,2.42,2.42,0,0,1,.4.09l.33.08-.32-.09-.4-.1a3.71,3.71,0,0,0-.55-.09,4.3,4.3,0,0,0-1.5,0,3.6,3.6,0,0,0-.44.12c-.14.05-.29.12-.44.19a3.28,3.28,0,0,0-.43.26l-.21.15-.2.18-.1.09-.09.1a1.8,1.8,0,0,0-.19.2,5.48,5.48,0,0,0-.34.46,6.46,6.46,0,0,0-.57,1,11.12,11.12,0,0,0-.68,2.46,20.74,20.74,0,0,0-.09,5.52,26.2,26.2,0,0,0,1.15,5.42,18.2,18.2,0,0,0,1,2.38,9.24,9.24,0,0,0,1.29,2,5,5,0,0,0,.8.73,3.11,3.11,0,0,0,.92.44,1,1,0,0,0,.24,0l.24,0a2.2,2.2,0,0,0,.45,0l.22,0,.19-.06a1.51,1.51,0,0,0,.34-.14c.11-.05.2-.11.29-.16a2.49,2.49,0,0,0,.24-.17l.19-.16.09-.06.06-.07.24-.23Z"/><path class="cls-5" d="M146.17,70.62l-1.39,0c-.9,0-2.22.12-3.89.33a45.06,45.06,0,0,0-6,1.13,40.71,40.71,0,0,0-7.39,2.7,39.13,39.13,0,0,0-7.81,5,40.8,40.8,0,0,0-7.06,7.54A45.7,45.7,0,0,0,107.34,97a54.1,54.1,0,0,0-3.15,10.88,57.33,57.33,0,0,0-.9,11.29A56.13,56.13,0,0,0,104.55,130a48.57,48.57,0,0,0,3.21,9.76A40.92,40.92,0,0,0,110,144a36.64,36.64,0,0,0,2.54,3.68,30.73,30.73,0,0,0,2.74,3.07,29.28,29.28,0,0,0,2.81,2.45,28,28,0,0,0,5.18,3.14,26.53,26.53,0,0,0,3.66,1.38c.43.14.76.22,1,.28l.34.09a.1.1,0,0,0,.11-.06.08.08,0,0,0-.06-.1h0l-.34-.09-1-.28a26.76,26.76,0,0,1-3.63-1.39,27.79,27.79,0,0,1-5.12-3.15,28.83,28.83,0,0,1-2.77-2.44,32.77,32.77,0,0,1-2.71-3.06,36.11,36.11,0,0,1-2.5-3.66,41.53,41.53,0,0,1-2.2-4.2,48.15,48.15,0,0,1-3.16-9.7,55.71,55.71,0,0,1-1.24-10.84,58.21,58.21,0,0,1,.88-11.22,53.36,53.36,0,0,1,3.11-10.83,46.32,46.32,0,0,1,5.27-9.57,40.59,40.59,0,0,1,7-7.52,38.47,38.47,0,0,1,7.75-5A41.33,41.33,0,0,1,135,72.22,45.76,45.76,0,0,1,140.89,71c1.67-.22,3-.31,3.89-.36Z"/><path class="cls-5" d="M142.68,129.58l.25-.17c.17-.12.41-.29.75-.5a19.39,19.39,0,0,1,3.13-1.63,18.09,18.09,0,0,1,2.45-.8,15.48,15.48,0,0,1,3.07-.46,12.42,12.42,0,0,1,3.57.33,8.92,8.92,0,0,1,1.85.66,7.35,7.35,0,0,1,1.73,1.13,6,6,0,0,1,1.35,1.68,5.51,5.51,0,0,1,.44,1c.1.36.2.75.31,1.13a23.42,23.42,0,0,1,.71,4.86,43,43,0,0,1-.28,5.34c-.08.93-.14,1.88-.14,2.85a21.26,21.26,0,0,0,.22,2.95,25,25,0,0,0,.64,3c.07.24.14.49.22.74l.11.38.13.37c.08.25.17.5.25.75s.19.49.28.74a56.52,56.52,0,0,0,2.75,6c.26.5.54,1,.81,1.49s.55,1,.83,1.5c.53,1,1,2,1.52,3.11s.92,2.16,1.32,3.28.73,2.29,1,3.47a26.11,26.11,0,0,1,.69,7.36,21.9,21.9,0,0,1-.57,3.76c-.17.62-.34,1.24-.56,1.84-.11.31-.23.61-.35.91l-.2.45c-.06.15-.13.29-.2.44a20.29,20.29,0,0,1-4.77,6.33,24.43,24.43,0,0,1-7,4.38,23.91,23.91,0,0,1-4,1.27l-.52.11-.53.09-.53.08-.53.07a19.19,19.19,0,0,1-2.14.12,17.2,17.2,0,0,1-4.28-.54,19.58,19.58,0,0,1-4.08-1.55,37.42,37.42,0,0,1-7.27-5.16c-2.29-2-4.5-4.1-6.89-6.08a43.86,43.86,0,0,0-3.76-2.82c-.33-.22-.67-.43-1-.63l-1-.62-1-.61-1-.62c-2.65-1.68-5.28-3.44-7.84-5.31s-5.08-3.83-7.5-5.92a90.92,90.92,0,0,1-7-6.66c-1.1-1.17-2.15-2.39-3.19-3.63S93,157.29,92,156s-1.81-2.67-2.64-4.06-1.59-2.81-2.3-4.26-1.33-3-1.9-4.46c-.14-.38-.28-.76-.41-1.14l-.38-1.15L84,139.73l-.35-1.16c-.92-3.12-1.72-6.27-2.37-9.46a93.81,93.81,0,0,1-2-19.31,67.64,67.64,0,0,1,2.73-19,49.25,49.25,0,0,1,8.64-16.69,43,43,0,0,1,6.59-6.56,44.86,44.86,0,0,1,7.74-5,48.75,48.75,0,0,1,8.45-3.32,58.42,58.42,0,0,1,8.76-1.86c1.47-.2,2.93-.35,4.39-.46s2.92-.16,4.36-.14a45.84,45.84,0,0,1,8.48.86,50.34,50.34,0,0,1,15.28,5.68,47.3,47.3,0,0,1,11.86,9.47,36.62,36.62,0,0,1,4.22,5.72,26.88,26.88,0,0,1,2.72,6.17c.08.26.14.53.22.79l.18.79c.05.26.1.53.14.79s.09.54.14.81.08.53.11.8.08.52.11.79c.06.52.12,1,.16,1.57a41.67,41.67,0,0,1,.14,6.09,38.28,38.28,0,0,1-2.1,10.81,51.18,51.18,0,0,1-4,8.55c-1.41,2.49-2.79,4.65-3.89,6.59-.55,1-1,1.89-1.44,2.75a21.38,21.38,0,0,0-1,2.4,11.9,11.9,0,0,0-.6,3.46c0,.19,0,.37,0,.52s0,.28,0,.38,0,.3,0,.3a.06.06,0,0,0,.07.06.07.07,0,0,0,.07-.07h0s0-.1,0-.3a2.16,2.16,0,0,1,0-.37c0-.15,0-.32,0-.52a11.71,11.71,0,0,1,.67-3.39,28.41,28.41,0,0,1,2.47-5c1.13-1.91,2.55-4.05,4-6.52a51.84,51.84,0,0,0,4.16-8.57,38.94,38.94,0,0,0,2.3-11,43.08,43.08,0,0,0-.07-6.21c0-.53-.09-1.07-.15-1.61,0-.27-.06-.54-.1-.81s-.06-.54-.11-.81l-.12-.81c0-.28-.09-.55-.14-.83l-.18-.83c-.08-.27-.14-.55-.22-.82A27.32,27.32,0,0,0,171.75,78a37,37,0,0,0-4.29-5.93,48.56,48.56,0,0,0-12.07-9.8,51.5,51.5,0,0,0-15.63-5.91,48.4,48.4,0,0,0-8.73-.93c-1.49,0-3,0-4.46.13s-3,.25-4.49.45a59.89,59.89,0,0,0-9,1.88,50,50,0,0,0-8.7,3.41,45.65,45.65,0,0,0-8,5.14,44.36,44.36,0,0,0-6.77,6.79,46.25,46.25,0,0,0-5.23,8.14,53.48,53.48,0,0,0-3.58,9,69.21,69.21,0,0,0-2.68,19.34,94.54,94.54,0,0,0,2.07,19.54c.67,3.21,1.49,6.4,2.43,9.54L83,140l.37,1.18.4,1.17c.13.39.28.77.42,1.16q.89,2.31,2,4.53c.72,1.48,1.51,2.93,2.35,4.34s1.75,2.78,2.7,4.11,2,2.63,3,3.89,2.12,2.49,3.24,3.67a92.8,92.8,0,0,0,7.05,6.7c2.45,2.1,5,4.07,7.58,5.94s5.23,3.63,7.91,5.3l1,.63,1,.61,1,.61c.33.2.66.4,1,.61a43.34,43.34,0,0,1,3.7,2.76c2.37,1.95,4.59,4.06,6.9,6a38.38,38.38,0,0,0,7.44,5.23,20.88,20.88,0,0,0,4.24,1.6,18.21,18.21,0,0,0,4.46.54,20.66,20.66,0,0,0,2.22-.13l.55-.07.54-.09.55-.1.54-.11a24.38,24.38,0,0,0,4.14-1.33,25,25,0,0,0,7.15-4.52,20.89,20.89,0,0,0,4.89-6.54l.21-.46.2-.46c.12-.31.25-.62.35-.94a18,18,0,0,0,.57-1.9,21.29,21.29,0,0,0,.57-3.86,26,26,0,0,0-.74-7.51,33.8,33.8,0,0,0-1-3.51c-.41-1.14-.86-2.25-1.35-3.32s-1-2.12-1.56-3.14l-.83-1.5c-.27-.5-.55-1-.81-1.48a53,53,0,0,1-2.77-5.89c-.1-.24-.19-.49-.28-.73s-.18-.49-.26-.74l-.13-.37-.11-.36c-.08-.25-.15-.5-.23-.74a25.76,25.76,0,0,1-.64-2.94,20.35,20.35,0,0,1-.23-2.9c0-1,0-1.89.11-2.82a43,43,0,0,0,.25-5.38,23.22,23.22,0,0,0-.76-4.91c-.11-.39-.21-.76-.32-1.14a6,6,0,0,0-.46-1.07,6.34,6.34,0,0,0-1.41-1.74,8.11,8.11,0,0,0-1.8-1.16,9.12,9.12,0,0,0-1.9-.66,12.48,12.48,0,0,0-3.63-.32,15.73,15.73,0,0,0-3.11.48,18.26,18.26,0,0,0-2.47.83,20,20,0,0,0-3.14,1.66l-.75.5-.25.18a.07.07,0,1,0,.08.11Z"/><path class="cls-6" d="M144.52,123.34C155,115.18,166.31,99.73,160.66,85a21.87,21.87,0,0,0-9-10.66c-8.79-5.49-28.6-13.64-49.1,6.54-27.55,27.11-1,71.92-1,71.92s11.6,13.1,22.25,18c8.84,4.1,20.66,3.08,7.51-18.48C125.52,142.7,135.61,130.29,144.52,123.34Z"/><path class="cls-7" d="M154.54,131.35s-.22-.35-1.78-.37a10.18,10.18,0,0,0-9.21,14.81c3,5.87,7.39,12.17,11.62,10.43a2.64,2.64,0,0,0,1.2-3.89c-1.26-2-2.85-5-1.83-6.81C154.54,145.52,158.92,133.2,154.54,131.35Z"/><path class="cls-8" d="M146.4,70.35s-22.62-1.43-35.1,19-8.11,45.08-3.1,50.63c0,0,7.52,16.63,19.41,17.86s-29.43-22.18,5.22-39.41c29.22-11.73,30.35-25.65,29.79-27.31S163.93,78.36,146.4,70.35Z"/><path class="cls-9" d="M150.15,72.82s-11.64,1.26-15.21,11.41,5.19,16.31,5.82,16.31,9.29,5.37,21.86-7.17C162.62,93.37,162.05,77.74,150.15,72.82Z"/><path class="cls-10" d="M109.45,174.48c2.85.56,19.56,12.19,25,18.49,11.9,11.09,24.18,7,31.31,1.84,5.54-4,8.73-17.29,5.63-24.64-.24-.58-.17-.88-.62-1.23.8-.11-2.36,19.35-12.53,24-11.27,5.54-18.78-.62-18.78-.62C130.36,184.94,121.35,178.79,109.45,174.48Z"/><path class="cls-11" d="M156.28,63.89s30.82,21.25.13,62.53a6.08,6.08,0,0,1,5.64,4.93C158.92,125.19,197.11,91.92,156.28,63.89Z"/><path class="cls-12" d="M154.39,145.83a1.55,1.55,0,0,0-.09.32c-.25,1.11-.46,5,6.42,10.58,0,0,1.33,3.58-1.17,4.81,0,0-1.88,1.85-3.14,1.85s-5-2.46-6.88-5.55-7.69-6.19-8.86-5.25a24.51,24.51,0,0,0-6.1.73c-3.2.83-5.54-5.53,3.64-14.83,10-10.2,16.81-9.18,18.83-4.64C158.58,137.3,154,144.41,154.39,145.83Z"/><path class="cls-13" d="M94.4,74.67C86.81,81.54,78,83.61,74.6,79.28S74.7,65.86,82.3,59s16.45-9,19.8-4.62S102,67.79,94.4,74.67Z"/><g class="cls-14"><path class="cls-15" d="M67.47,92.38c-1.85,5.49-6.15,8.69-9.61,7.14S53.1,92.26,55,86.78s6.15-8.69,9.6-7.14S69.31,86.89,67.47,92.38Z"/></g><path class="cls-16" d="M128,20.34C68.28,20.34,19.87,68.54,19.87,128S68.28,235.66,128,235.66,236.13,187.46,236.13,128,187.72,20.34,128,20.34Zm-.2,198.29c-49.63-.32-91.61-41.43-91-91.55.62-49.42,42.42-88.95,91-89.24,49.27-.3,92.12,39.91,92.12,90.39S177.29,218.94,127.8,218.63Z"/><path class="cls-17" d="M137.07,25.43c.13,1.29-13.14,2-29.41,7.23-6.26,2-30.18,9.89-49.65,28.56C35.56,82.75,29.79,108.3,28.27,107.63c-1.32-.57,2.15-20.24,14.79-39.25,1.89-2.85,24.07-35.2,63.49-42.79C122,22.61,136.94,24.06,137.07,25.43Z"/><path class="cls-18" d="M87.16,36.56c.28.65-2.54,2.15-9.53,6.64C63.49,52.28,59.92,55.8,59.27,55.14c-.92-.91,4.53-9.51,13.6-14.59C79.35,36.91,86.73,35.59,87.16,36.56Z"/><path class="cls-19" d="M89.68,33.48c-.58.75-1.13,2.1-.44,2.58,1.64,1.13,9.79-3,9.35-4.19C98.24,30.9,91.8,30.7,89.68,33.48Z"/><path class="cls-20" d="M215.68,93.26c.36,8.29,2.06,13,3.18,18.41h0a99.51,99.51,0,0,1,.31,26c-1,8.11-4.76,39.46-31.42,61.89-27.69,23.3-61.74,21.56-76.8,18.73a112.38,112.38,0,0,1-32.38-11.43c-1.91-1.11-7.52-4.65-18.72-11.74-13.7-8.66-15.5-9.88-15.84-9.49C42.82,187,57.18,210,81.43,222.44c43.75,22.38,94.34,2.89,110.45-10.48,14.46-12,25.36-29.21,25.36-29.21.21-.34.55-.86,1-1.57a105.16,105.16,0,0,0,14.28-37.77,101.59,101.59,0,0,0-.31-31.74,80,80,0,0,0-6-21.27c-1.39-3.13-5.63-12.65-8.25-12.06C215.07,79,215.59,91.12,215.68,93.26Z"/></svg>