<svg id="Layer_1" data-name="Layer 1" xmlns="http://www.w3.org/2000/svg" xmlns:xlink="http://www.w3.org/1999/xlink" viewBox="0 0 256 256"><defs><style>.cls-1{fill:#340962;}.cls-2{fill:#ebe9ff;}.cls-3{fill:url(#linear-gradient);}.cls-4,.cls-6{fill:#af544a;}.cls-5{fill:#66351a;}.cls-6{opacity:0.72;}.cls-7,.cls-9{opacity:0.14;}.cls-7{fill:url(#linear-gradient-2);}.cls-10,.cls-12,.cls-8{fill:#fff;}.cls-8{opacity:0.44;}.cls-9{fill:url(#linear-gradient-3);}.cls-10,.cls-11{opacity:0.7;}.cls-13{fill:#ffb01d;stroke:#a04e00;stroke-miterlimit:10;stroke-width:3px;}.cls-14{fill:#ffeb45;}.cls-15{fill:#e7fcff;}.cls-16{fill:#f9f0c7;}.cls-17{fill:#bb5000;opacity:0.47;}</style><linearGradient id="linear-gradient" x1="128.34" y1="61.66" x2="128.34" y2="194.41" gradientUnits="userSpaceOnUse"><stop offset="0" stop-color="#ffc7b8"/><stop offset="1" stop-color="#f09b88"/></linearGradient><linearGradient id="linear-gradient-2" x1="90.89" y1="163.54" x2="132.37" y2="163.54" gradientUnits="userSpaceOnUse"><stop offset="0" stop-color="#8f4638"/><stop offset="0.99" stop-color="#8f4638"/></linearGradient><linearGradient id="linear-gradient-3" x1="137.2" y1="173.12" x2="178.75" y2="173.12" xlink:href="#linear-gradient-2"/></defs><ellipse class="cls-1" cx="128.37" cy="128" rx="94.06" ry="93.65"/><circle class="cls-2" cx="128" cy="128" r="85.45" transform="translate(-53.02 128) rotate(-45)"/><path class="cls-3" d="M123.73,193.94c5.22-.46,14.66-3.34,17.69-7.54,2-2.79,6-5.29,13.5-5.68,18.23-.94,26.27-17.47,24-23.61s-31.6-32.41-34.28-40.76-18-28.18-19.46-31S114.61,50.87,94.94,65.51c-7.64,5.68-7.62,20.88-3.84,24.08C101.66,109.89,36.09,201.71,123.73,193.94Z"/><path class="cls-4" d="M125.38,85.54l1,1.36c.63.89,1.54,2.21,2.67,3.9S131.5,94.59,133,97s3.17,5.14,5,8.14,3.75,6.24,5.79,9.68c1,1.72,2.09,3.49,3.18,5.29l.42.7.43.67c.14.22.28.45.43.67l.47.69.47.69c.16.22.32.45.49.67.32.45.64.9,1,1.34,1.34,1.78,2.77,3.52,4.24,5.25s3,3.45,4.58,5.15,3.17,3.4,4.81,5.07,3.3,3.35,5,5a36.05,36.05,0,0,1,4.39,5.1,16.85,16.85,0,0,1,2.65,5.79,14.12,14.12,0,0,1,0,6.17c0,.26-.11.51-.17.76s-.14.51-.21.76l-.06.19v0s0,.05,0,0l0,.1-.13.4c-.09.27-.18.5-.27.74a20.17,20.17,0,0,1-1.28,2.83,16.66,16.66,0,0,1-3.76,4.67,20.18,20.18,0,0,1-5,3.08,35,35,0,0,1-5.42,1.84c-1.82.47-3.62.85-5.35,1.24s-3.39.8-5,1.28a24.18,24.18,0,0,0-4.33,1.76,13.66,13.66,0,0,0-1.81,1.16,11.29,11.29,0,0,0-1.46,1.37,9.38,9.38,0,0,0-1.78,3,11,11,0,0,0-.63,2.68,17.45,17.45,0,0,0-.1,2c0,.55,0,1,.07,1.24l0,.43v-.43c0-.28,0-.7,0-1.24a12.87,12.87,0,0,1,1.06-4.51,9.13,9.13,0,0,1,1.85-2.67,11.46,11.46,0,0,1,3.18-2.15,23,23,0,0,1,4.22-1.44c1.54-.38,3.19-.69,4.92-1s3.55-.62,5.45-1a35,35,0,0,0,5.82-1.7,22.26,22.26,0,0,0,5.65-3.22,18.46,18.46,0,0,0,4.47-5.18,22.6,22.6,0,0,0,1.52-3.13c.11-.28.23-.57.32-.82l.14-.39,0-.1,0-.12.07-.22c.18-.56.34-1.13.47-1.72a16.94,16.94,0,0,0,.09-7.3,19.3,19.3,0,0,0-3-6.76,37.34,37.34,0,0,0-4.69-5.53c-3.32-3.3-6.57-6.62-9.69-10s-6.1-6.72-8.74-10.13c-.34-.43-.65-.86-1-1.28l-.48-.64-.45-.63-.45-.64c-.14-.22-.29-.44-.44-.66l-.44-.67-.41-.64-3.33-5.19c-2.19-3.37-4.28-6.53-6.24-9.44s-3.81-5.54-5.5-7.84S130.9,92,129.62,90.4c-.66-.79-1.22-1.5-1.75-2.11s-1-1.12-1.34-1.52Z"/><path class="cls-4" d="M121.42,179.35l-.51.37a11,11,0,0,1-1.54.86,14.14,14.14,0,0,1-2.59.88,17.07,17.07,0,0,1-3.49.43,15.6,15.6,0,0,1-4.1-.43,11.44,11.44,0,0,1-4.08-1.84,8.38,8.38,0,0,1-1.67-1.59,7.74,7.74,0,0,1-.66-1,8.69,8.69,0,0,1-.52-1.06,11.24,11.24,0,0,1-.86-4.75,12.65,12.65,0,0,1,1.07-4.74,12.27,12.27,0,0,1,1.19-2.09l.35-.48.38-.47c.26-.29.52-.59.8-.86A14.64,14.64,0,0,1,107,161.1a16.84,16.84,0,0,1,1.94-1.16c1.31-.7,2.62-1.25,3.82-1.8a26.45,26.45,0,0,0,3.21-1.68,7.05,7.05,0,0,0,2-1.9,4.19,4.19,0,0,0,.67-1.65,3.47,3.47,0,0,0,0-.46v-.16l0,.16a3.18,3.18,0,0,1-.09.45,4.1,4.1,0,0,1-.78,1.54,7.22,7.22,0,0,1-2.11,1.66,26.41,26.41,0,0,1-3.24,1.44c-1.23.48-2.57,1-4,1.62a17.24,17.24,0,0,0-4.1,2.61,12.94,12.94,0,0,0-4.45,9.42,12.45,12.45,0,0,0,1,5.33l.14.31.16.31c.1.2.23.4.35.6a9.32,9.32,0,0,0,2.75,2.87,12.3,12.3,0,0,0,4.59,1.85,15.93,15.93,0,0,0,4.36.21,16.25,16.25,0,0,0,3.6-.72,12.72,12.72,0,0,0,2.56-1.13,9.63,9.63,0,0,0,1.47-1,3.86,3.86,0,0,0,.34-.32Z"/><path class="cls-5" d="M152.52,171.28c-1-.26-22.55-8-32.15,5.66,0,0-1.69,3.71,5.76-.47a14.26,14.26,0,0,1,6.47-1.29,10,10,0,0,1,5.53,1.76C142.92,180.25,158.28,172.69,152.52,171.28Z"/><path class="cls-6" d="M120.14,177.22a.24.24,0,0,0,.3-.09h0l.09-.15c.07-.1.18-.25.33-.43a11.42,11.42,0,0,1,1.43-1.5,15.39,15.39,0,0,1,2.61-1.86,18.53,18.53,0,0,1,3.79-1.64A21.28,21.28,0,0,1,131,171c.39-.08.82-.14,1.21-.21l.65-.09.63-.08a36.72,36.72,0,0,1,5.5-.14,45.59,45.59,0,0,1,5.85.62c1,.18,2,.38,2.91.64q.78.22,1.53.48c3.2,2.68-6.63,5.39-11,2.58l-.62-.17c-.85-.23-1.71-.43-2.55-.58a20.1,20.1,0,0,0-2.47-.28,14,14,0,0,0-2.27.08,11.1,11.1,0,0,0-3.52,1,9.63,9.63,0,0,0-1.92,1.25c-.2.17-.34.31-.44.4l-.14.14a.24.24,0,0,0,0,.34.27.27,0,0,0,.27.06h0l.18-.07c.12,0,.29-.12.52-.19a11.31,11.31,0,0,1,2-.48,11.14,11.14,0,0,1,3.06,0,17.39,17.39,0,0,1,3.82,1c.68.27,1.39.58,2.15.91l.6.27a6.2,6.2,0,0,0,1,.3,10.9,10.9,0,0,0,1.71.19,22.77,22.77,0,0,0,3.12-.17c1-.13,2-.3,3.05-.53s2-.49,3-.81a31.84,31.84,0,0,0,3.07-1.12c.27-.11.53-.22.85-.38l.13-.07.18-.1.06,0h0l.06,0,.05,0,.26-.16c.22-.14.49-.28.86-.53a5.25,5.25,0,0,0,.67-.57,2.91,2.91,0,0,0,.45-.6,2.78,2.78,0,0,0,.34-1,2.6,2.6,0,0,0-.13-1.14,2.72,2.72,0,0,0-.39-.73,3.5,3.5,0,0,0-.69-.7,6.07,6.07,0,0,0-1-.61c-.31-.15-.59-.26-.89-.38l-.42-.15-.42-.15a24.48,24.48,0,0,0-3.34-.86c-1.1-.22-2.2-.37-3.28-.49a45.49,45.49,0,0,0-6.35-.2,39.4,39.4,0,0,0-5.91.67l-.71.15-.66.16c-.47.13-.9.24-1.33.39a24.19,24.19,0,0,0-2.41,1,19.23,19.23,0,0,0-3.87,2.33,16.26,16.26,0,0,0-2.47,2.39,12.78,12.78,0,0,0-1.26,1.81c-.12.22-.21.39-.26.51l-.07.14,0,0A.24.24,0,0,0,120.14,177.22Z"/><path class="cls-7" d="M116.05,140.11s8.64,8,0,16.06c0,0-14.87,4.72-14.87,9.91,0,0-4.46,11.35,5.53,15.74,12.7,4.09,16.73-7.49,25.66-5.35-7.54.34-16.32,16.53-32.15,8-11.52-8-9.12-19.83-9.12-19.83-.74-.47,2.24-11.1,13.44-14.64C115,146.73,116.53,143.42,116.05,140.11Z"/><path class="cls-8" d="M157.93,139.82c1.71,0,13.92,10.55,11,12.32C168.19,152.57,160.2,139.93,157.93,139.82Z"/><path class="cls-9" d="M174.33,152.29s1.7,18.51-21.81,23.24-13,18.41-13,18.41-2.78-13.09,16.36-12.92S185.11,158.33,174.33,152.29Z"/><path class="cls-10" d="M94.4,74.67C86.81,81.54,78,83.61,74.6,79.28S74.7,65.86,82.3,59s16.45-9,19.8-4.62S102,67.79,94.4,74.67Z"/><g class="cls-11"><path class="cls-12" d="M67.47,92.38c-1.85,5.49-6.15,8.69-9.61,7.14S53.1,92.26,55,86.78s6.15-8.69,9.6-7.14S69.31,86.89,67.47,92.38Z"/></g><path class="cls-13" d="M128,20.34C68.28,20.34,19.87,68.54,19.87,128S68.28,235.66,128,235.66,236.13,187.46,236.13,128,187.72,20.34,128,20.34Zm-.2,198.29c-49.63-.32-91.61-41.43-91-91.55.62-49.42,42.42-88.95,91-89.24,49.27-.3,92.12,39.91,92.12,90.39S177.29,218.94,127.8,218.63Z"/><path class="cls-14" d="M137.07,25.43c.13,1.29-13.14,2-29.41,7.23-6.26,2-30.18,9.89-49.65,28.56C35.56,82.75,29.79,108.3,28.27,107.63c-1.32-.57,2.15-20.24,14.79-39.25,1.89-2.85,24.07-35.2,63.49-42.79C122,22.61,136.94,24.06,137.07,25.43Z"/><path class="cls-15" d="M87.16,36.56c.28.65-2.54,2.15-9.53,6.64C63.49,52.28,59.92,55.8,59.27,55.14c-.92-.91,4.53-9.51,13.6-14.59C79.35,36.91,86.73,35.59,87.16,36.56Z"/><path class="cls-16" d="M89.68,33.48c-.58.75-1.13,2.1-.44,2.58,1.64,1.13,9.79-3,9.35-4.19C98.24,30.9,91.8,30.7,89.68,33.48Z"/><path class="cls-17" d="M215.68,93.26c.36,8.29,2.06,13,3.18,18.41h0a99.51,99.51,0,0,1,.31,26c-1,8.11-4.76,39.46-31.42,61.89-27.69,23.3-61.74,21.56-76.8,18.73a112.38,112.38,0,0,1-32.38-11.43c-1.91-1.11-7.52-4.65-18.72-11.74-13.7-8.66-15.5-9.88-15.84-9.49C42.82,187,57.18,210,81.43,222.44c43.75,22.38,94.34,2.89,110.45-10.48,14.46-12,25.36-29.21,25.36-29.21.21-.34.55-.86,1-1.57a105.16,105.16,0,0,0,14.28-37.77,101.59,101.59,0,0,0-.31-31.74,80,80,0,0,0-6-21.27c-1.39-3.13-5.63-12.65-8.25-12.06C215.07,79,215.59,91.12,215.68,93.26Z"/></svg>