<svg id="Layer_1" data-name="Layer 1" xmlns="http://www.w3.org/2000/svg" xmlns:xlink="http://www.w3.org/1999/xlink" viewBox="0 0 256 256"><defs><style>.cls-1{fill:#340962;}.cls-2{fill:#ebe9ff;}.cls-3{fill:#842f2f;}.cls-3,.cls-4,.cls-6{stroke:#000;}.cls-3,.cls-4,.cls-5,.cls-6,.cls-7{stroke-linecap:round;stroke-linejoin:round;}.cls-4{fill:#fcf9f0;stroke-width:0.5px;}.cls-5{fill:#e28888;stroke:url(#linear-gradient);}.cls-6{opacity:0.24;}.cls-7{fill:#d1718f;}.cls-7,.cls-8{stroke:#891d39;}.cls-13,.cls-8{stroke-miterlimit:10;}.cls-9{opacity:0.11;}.cls-10,.cls-12{fill:#fff;}.cls-10,.cls-11{opacity:0.7;}.cls-13{fill:#ffb01d;stroke:#a04e00;stroke-width:3px;}.cls-14{fill:#ffeb45;}.cls-15{fill:#e7fcff;}.cls-16{fill:#f9f0c7;}.cls-17{fill:#bb5000;opacity:0.47;}</style><linearGradient id="linear-gradient" x1="73.99" y1="103.33" x2="180.88" y2="103.33" gradientUnits="userSpaceOnUse"><stop offset="0" stop-color="#8f4638"/><stop offset="0.99" stop-color="#a32929"/></linearGradient></defs><ellipse class="cls-1" cx="128.37" cy="128" rx="94.06" ry="93.65"/><circle class="cls-2" cx="128" cy="128" r="85.45" transform="translate(-53.02 128) rotate(-45)"/><path class="cls-3" d="M174.54,98c-.69-15.14-21-27.53-47-27.88h-.11c-26,.35-46.36,12.74-47,27.88-1.67,36.4,1.38,52,43.65,52.71l3.4,0h.11l3.4,0C173.16,150,176.2,134.44,174.54,98Z"/><path class="cls-4" d="M147.26,69.74c2.14-.93,12.22,4,12.43,8.59l0,.56c-.56,7.56-11.27,5.18-12.31.68C147.35,79.57,144.91,70.77,147.26,69.74Z"/><path class="cls-4" d="M162.29,71.75c2.32-.26,10.46,7.38,9.27,11.84-.07.18-.13.35-.2.52-2.83,7.06-12.33,1.65-12-3C159.4,81.15,159.73,72,162.29,71.75Z"/><path class="cls-4" d="M128.22,80.91c-.49-1.32-3.61-19.36,8.16-19.63C148.77,61,147.61,78.56,147,80.84S129.12,83.3,128.22,80.91Z"/><path class="cls-4" d="M107.61,69.74c-2.14-.93-12.22,4-12.43,8.59,0,.19,0,.37,0,.56.56,7.56,11.27,5.18,12.31.68C107.52,79.57,110,70.77,107.61,69.74Z"/><path class="cls-4" d="M92.58,71.75c-2.33-.26-10.46,7.38-9.27,11.84.06.18.13.35.2.52,2.82,7.06,12.32,1.65,12-3C95.47,81.15,95.13,72,92.58,71.75Z"/><path class="cls-4" d="M126.64,80.91c.5-1.32,3.61-19.36-8.16-19.63C106.1,61,107.26,78.56,107.86,80.84S125.74,83.3,126.64,80.91Z"/><path class="cls-5" d="M163.77,146.9c25.81-33.21,22.81-77-18-86.23-10.32-2.34-12,.54-18.07.78h-.45c-6.06-.24-7.76-3.12-18.07-.78-40.85,9.25-43.85,53-18,86.23a113.81,113.81,0,0,1-7.78-21.17c-7-29.25-.19-53.59,43.9-53.91h.45c44.09.32,50.94,24.66,43.9,53.91A113.2,113.2,0,0,1,163.77,146.9Z"/><path class="cls-6" d="M166.68,116.9c-.7,18.16-17.62,32.9-39.35,32.9S89.83,135,88,116.9c-2-19.75,13.08-33.61,39.6-21.76C156,84.22,167.42,97.72,166.68,116.9Z"/><path class="cls-6" d="M156.11,118.66c-.51,14.81-12.84,26.84-28.68,26.84s-27.35-12.09-28.69-26.84c-1.46-16.1,9.54-27.41,28.87-17.75C148.33,92,156.65,103,156.11,118.66Z"/><path class="cls-7" d="M162,104.65c-12-5.29-31.59-.62-34.12,2.49l-.45.58-.44-.58c-2.54-3.11-22.16-7.78-34.13-2.49-15.94,7-11.3,41.9,2.5,66.21,8.77,16.78,18.1,29.08,32,29.63h.11c13.92-.55,23.24-12.85,32-29.63C173.31,146.55,178,111.7,162,104.65Z"/><path class="cls-8" d="M127.63,107.75l-.2,71.69-.19-71.69.19.13.2-.13Z"/><path class="cls-9" d="M162.05,104.76s13.13,42.1-24.81,93.17c0,0,17-5.84,32-51C169.21,146.9,178,111.84,162.05,104.76Z"/><path class="cls-9" d="M92.81,104.76s-13.13,42.1,24.81,93.17c0,0-17-5.84-32-51C85.65,146.9,76.87,111.84,92.81,104.76Z"/><path class="cls-10" d="M94.4,74.67C86.81,81.54,78,83.61,74.6,79.28S74.7,65.86,82.3,59s16.45-9,19.8-4.62S102,67.79,94.4,74.67Z"/><g class="cls-11"><path class="cls-12" d="M67.47,92.38c-1.85,5.49-6.15,8.69-9.61,7.14S53.1,92.26,55,86.78s6.15-8.69,9.6-7.14S69.31,86.89,67.47,92.38Z"/></g><path class="cls-13" d="M128,20.34C68.28,20.34,19.87,68.54,19.87,128S68.28,235.66,128,235.66,236.13,187.46,236.13,128,187.72,20.34,128,20.34Zm-.2,198.29c-49.63-.32-91.61-41.43-91-91.55.62-49.42,42.42-88.95,91-89.24,49.27-.3,92.12,39.91,92.12,90.39S177.29,218.94,127.8,218.63Z"/><path class="cls-14" d="M137.07,25.43c.13,1.29-13.14,2-29.41,7.23-6.26,2-30.18,9.89-49.65,28.56C35.56,82.75,29.79,108.3,28.27,107.63c-1.32-.57,2.15-20.24,14.79-39.25,1.89-2.85,24.07-35.2,63.49-42.79C122,22.61,136.94,24.06,137.07,25.43Z"/><path class="cls-15" d="M87.16,36.56c.28.65-2.54,2.15-9.53,6.64C63.49,52.28,59.92,55.8,59.27,55.14c-.92-.91,4.53-9.51,13.6-14.59C79.35,36.91,86.73,35.59,87.16,36.56Z"/><path class="cls-16" d="M89.68,33.48c-.58.75-1.13,2.1-.44,2.58,1.64,1.13,9.79-3,9.35-4.19C98.24,30.9,91.8,30.7,89.68,33.48Z"/><path class="cls-17" d="M215.68,93.26c.36,8.29,2.06,13,3.18,18.41h0a99.51,99.51,0,0,1,.31,26c-1,8.11-4.76,39.46-31.42,61.89-27.69,23.3-61.74,21.56-76.8,18.73a112.38,112.38,0,0,1-32.38-11.43c-1.91-1.11-7.52-4.65-18.72-11.74-13.7-8.66-15.5-9.88-15.84-9.49C42.82,187,57.18,210,81.43,222.44c43.75,22.38,94.34,2.89,110.45-10.48,14.46-12,25.36-29.21,25.36-29.21.21-.34.55-.86,1-1.57a105.16,105.16,0,0,0,14.28-37.77,101.59,101.59,0,0,0-.31-31.74,80,80,0,0,0-6-21.27c-1.39-3.13-5.63-12.65-8.25-12.06C215.07,79,215.59,91.12,215.68,93.26Z"/></svg>