<?xml version="1.0" encoding="utf-8"?>
<!-- Generator: Adobe Illustrator 25.0.0, SVG Export Plug-In . SVG Version: 6.00 Build 0)  -->
<svg version="1.1" id="Layer_1" xmlns="http://www.w3.org/2000/svg" xmlns:xlink="http://www.w3.org/1999/xlink" x="0px" y="0px"
	 viewBox="0 0 550 400" style="enable-background:new 0 0 550 400;" xml:space="preserve">
<style type="text/css">
	.st0{opacity:0.3;enable-background:new    ;}
	.st1{fill:#331B39;}
	.st2{fill:#3F2949;}
	.st3{fill:#2C1533;}
	.st4{fill:#341C3B;}
	.st5{fill:#4B3757;}
	.st6{fill:#C2B5C1;}
	.st7{fill:#A897A8;}
	.st8{fill:#958194;}
	.st9{fill:#E2DFE5;}
	.st10{fill:#5C4B6C;}
	.st11{fill:#EEECF1;}
	.st12{fill:#B2A1B0;}
	.st13{fill:#998698;}
	.st14{fill:#C51A30;}
	.st15{fill:#DE3848;}
	.st16{fill:#D8D8D8;}
	.st17{fill:#E5E5E5;}
	.st18{fill:#FCFCFC;}
	.st19{fill:#B8ABB9;}
	.st20{fill:#C6BBC6;}
	.st21{fill:#5084B6;}
	.st22{fill:#4174A8;}
	.st23{fill:#B6A7B5;}
	.st24{fill:#E0E0E0;}
	.st25{fill:#E8E8E8;}
	.st26{opacity:0.7;}
	.st27{fill:#65859E;}
	.st28{fill:#759CB1;}
	.st29{fill:#EEECF0;}
	.st30{fill:#F1F0F2;}
	.st31{fill:#DED4DB;}
	.st32{fill:#3C284A;}
	.st33{fill:#F48D2B;}
	.st34{fill:#BA192F;}
	.st35{fill:#FF952C;}
	.st36{fill:#C7B8C3;}
	.st37{font-family:'ArialMT';}
	.st38{font-size:17.84px;}
	.st39{fill:#281535;}
</style>
<g id="Layer_1_1_">
	<ellipse class="st0" cx="273.5" cy="311" rx="262.5" ry="18.5"/>
	<path class="st1" d="M473.6,233.8c-15.2,0-27.5,17.4-27.5,38.9s12.3,38.9,27.5,38.9s27.5-17.4,27.5-38.9S488.8,233.8,473.6,233.8z"
		/>
	<path class="st2" d="M473.6,311.5h24.1c15.2,0,27.5-17.4,27.5-38.9s-12.3-38.9-27.5-38.9h-24.1c15.2,0,27.5,17.4,27.5,38.9
		S488.8,311.5,473.6,311.5z"/>
	<path class="st1" d="M233.3,233.8c-15.2,0-27.5,17.4-27.5,38.9s12.3,38.9,27.5,38.9s27.5-17.4,27.5-38.9S248.5,233.8,233.3,233.8z"
		/>
	<path class="st2" d="M233.3,311.5h24.1c15.2,0,27.5-17.4,27.5-38.9s-12.3-38.9-27.5-38.9h-24.1c15.2,0,27.5,17.4,27.5,38.9
		S248.5,311.5,233.3,311.5z"/>
	<path class="st3" d="M514.3,282.9H412.4v-10.2h104.9v7.2C517.3,281.5,515.9,282.9,514.3,282.9z"/>
	<path class="st4" d="M412.4,282.9h-32.3v-10.2h35.3v7.2C415.3,281.5,414,282.9,412.4,282.9z"/>
	<path class="st4" d="M71.7,272.6c0-22.8,15.5-41.2,34.6-41.2s34.6,18.4,34.6,41.2l0,0v10.2H71.7V272.6z"/>
	<rect x="71.7" y="272.6" class="st2" width="69.2" height="10.2"/>
	<path class="st5" d="M106.3,233.8c-15.2,0-27.5,17.4-27.5,38.9s12.3,38.9,27.5,38.9s27.5-17.4,27.5-38.9S121.4,233.8,106.3,233.8z"
		/>
	<path class="st2" d="M106.3,311.5h24.1c15.2,0,27.5-17.4,27.5-38.9s-12.3-38.9-27.5-38.9h-24.1c15.2,0,27.5,17.4,27.5,38.9
		S121.4,311.5,106.3,311.5z"/>
	<path class="st6" d="M105.2,251.1c-8.4,0-15.2,9.6-15.2,21.5s6.8,21.5,15.2,21.5s15.2-9.6,15.2-21.5S113.6,251.1,105.2,251.1z"/>
	<path class="st7" d="M105.2,252.9c-7.7,0-13.9,8.8-13.9,19.7s6.2,19.7,13.9,19.7s13.9-8.8,13.9-19.7S112.9,252.9,105.2,252.9z"/>
	<path class="st6" d="M104.5,258.1c-5.7,0-10.3,6.5-10.3,14.5s4.6,14.5,10.3,14.5s10.3-6.5,10.3-14.5S110.2,258.1,104.5,258.1z"/>
	<path class="st7" d="M104.1,262.1c-4.1,0-7.4,4.7-7.4,10.5s3.3,10.5,7.4,10.5s7.4-4.7,7.4-10.5S108.2,262.1,104.1,262.1z"/>
	<path class="st4" d="M312,272.6c2.4-20.3,18.7-44.2,38-44.2c15.6,0,26.1,15.4,30.1,31.7c0.7,4.1,1,8.3,0.9,12.5l0,0v10.2h-69V272.6
		z"/>
	<rect x="312" y="272.6" class="st2" width="29.9" height="10.2"/>
	<path class="st5" d="M346.5,233.8c-15.2,0-27.5,17.4-27.5,38.9s12.3,38.9,27.5,38.9s27.5-17.4,27.5-38.9S361.7,233.8,346.5,233.8z"
		/>
	<path class="st2" d="M346.5,311.5h24.1c15.2,0,27.5-17.4,27.5-38.9s-12.3-38.9-27.5-38.9h-24.1c15.2,0,27.5,17.4,27.5,38.9
		S361.7,311.5,346.5,311.5z"/>
	<path class="st6" d="M345.5,251.1c-8.4,0-15.2,9.6-15.2,21.5s6.8,21.5,15.2,21.5s15.2-9.6,15.2-21.5S353.9,251.1,345.5,251.1z"/>
	<path class="st7" d="M345.5,252.9c-7.7,0-13.9,8.8-13.9,19.7s6.2,19.7,13.9,19.7s13.9-8.8,13.9-19.7S353.1,252.9,345.5,252.9z"/>
	<path class="st6" d="M344.7,258.1c-5.7,0-10.3,6.5-10.3,14.5s4.6,14.5,10.3,14.5s10.3-6.5,10.3-14.5S350.4,258.1,344.7,258.1z"/>
	<path class="st7" d="M344.4,262.1c-4.1,0-7.5,4.7-7.5,10.5s3.3,10.5,7.5,10.5s7.4-4.7,7.4-10.5S348.5,262.1,344.4,262.1z"/>
	<path class="st2" d="M479.6,193.7c-1,0-1.8-0.8-1.8-1.8v-12.1c0-0.6,0.4-1.1,0.8-1.1h2v14.9L479.6,193.7z"/>
	<path class="st5" d="M482.5,193.7h-2v-14.9h3.7v13.1C484.3,192.9,483.5,193.7,482.5,193.7z"/>
	<path class="st8" d="M483.6,171.6c-2.8,0-5.1,3.2-5.1,7.2s2.3,7.2,5.1,7.2s5.1-3.2,5.1-7.2S486.4,171.6,483.6,171.6z"/>
	<path class="st8" d="M483.6,171.6h-2.4c-2.8,0-5.1,3.2-5.1,7.2s2.3,7.2,5.1,7.2h2.4c-2.8,0-5.1-3.2-5.1-7.2
		S480.8,171.6,483.6,171.6z"/>
	<path class="st9" d="M483.8,185.3c2.3,0,4.2-2.9,4.2-6.5s-1.9-6.5-4.2-6.5s-4.2,2.9-4.2,6.5S481.4,185.3,483.8,185.3z"/>
	<path class="st10" d="M460.3,166.7h10.9c1.8,0,3.2,1.4,3.2,3.2v10.9c0,1.8-1.4,3.2-3.2,3.2h-10.9c-1.8,0-3.2-1.4-3.2-3.2v-10.9
		C457.1,168.1,458.6,166.7,460.3,166.7z"/>
	<path class="st9" d="M536.5,208.5l-8.3-11.9c-0.9-1.5-2.5-2.5-4.2-2.7l-44.5-4.6c-0.9-0.2-1.6-0.8-1.9-1.6l-46.5-74.6
		c-0.6-1.7-2.2-2.9-4.1-3.1H174.4c-2.2,2.1-3.7,5-4.1,8l-12,65.8c-0.6,3.5-1,7-0.9,10.6V236c0,3.3,0.3,6.5,0.9,9.7l1.6,8.2l6.8,14.4
		c1.2,2.7,3.4,4.3,5.6,4.3H312c2.4-20.3,18.7-44.2,38-44.2c15.6,0,26.1,15.4,30.1,31.7c0.7,4.1,1,8.3,0.9,12.5h143.4
		c7.6,0,13.8-8.7,13.8-19.5v-38.6C538.3,212.4,537.7,210.3,536.5,208.5z M438.7,181h-42.5c-1.1,0-2.2-1.3-2.4-2.8l-7.6-54
		c-0.2-1.6,0.5-2.8,1.6-2.8h35.6c3.5,0,5.6,4.3,6,5.9l10.3,51.8C439.9,180.1,439.4,181,438.7,181z M443.5,181
		c-0.7,0-1.3-0.7-1.5-1.6l-9.5-47.9c-0.1-0.4,0.3-0.6,0.5-0.2l24.2,38.8v10.6c0,0.1,0,0.2,0,0.3L443.5,181z"/>
	<path class="st11" d="M375.4,193.9l-44.5-4.6c-0.4,0-0.7-0.2-1-0.4h148.6c0.3,0.2,0.6,0.4,1,0.4l44.5,4.6c1,0.1,2,0.5,2.8,1.2
		H378.2C377.5,194.4,376.5,194,375.4,193.9z"/>
	<path class="st7" d="M381.8,275.5h157.3c2,0,3.5-1.6,3.5-3.6v-8.3c0-2-1.6-3.6-3.5-3.6h-159v13.6
		C380.1,274.7,380.9,275.5,381.8,275.5z"/>
	<path class="st12" d="M452,275.5c2,0,3.5-1.6,3.5-3.6v-8.3c0-2-1.6-3.6-3.5-3.6h23.6v15.4H452z"/>
	<path class="st13" d="M475.5,260.1c2,0,3.6,1.6,3.6,3.6v8.3c0,2-1.6,3.6-3.6,3.6V260.1z"/>
	<path class="st14" d="M427.1,110H163l0.1-5.9c-0.1-0.8,0.5-1.5,1.3-1.6c0.1,0,0.2,0,0.3,0h249.9c1.1,0,2.2,0.4,3.1,1L427.1,110z"/>
	<path class="st15" d="M35.8,110h264.1l-0.1-5.9c0.1-0.8-0.5-1.5-1.3-1.6c-0.1,0-0.2,0-0.3,0H47.4L35.8,110z"/>
	<path class="st9" d="M367.9,77.8H166.6c-1.1,0-1.9,1-1.9,2.4l-1,22.2h216.5l-9.4-22.2C370.3,79,369.2,78,367.9,77.8z"/>
	<path class="st16" d="M164.6,77.8h175.9v-4.3c0-1.7-1.3-3-3-3h-170c-1.7,0-3,1.3-3,3L164.6,77.8z"/>
	<path class="st16" d="M85,77.8h176v-4.3c0-1.7-1.3-3-3-3H88c-1.7,0-3,1.3-3,3V77.8z"/>
	<path class="st17" d="M59.5,77.8h201.3c1.1,0,1.9,1,1.9,2.4l1,22.2H47.3l9.4-22.2C57.1,79,58.2,78,59.5,77.8z"/>
	<path class="st15" d="M231.7,98.8h8c2-0.1,3.7-1.5,4.1-3.5l1.9-10.3c0.4-1.5-0.5-3-2-3.4c-0.3-0.1-0.5-0.1-0.8-0.1h-8
		c-2,0.1-3.7,1.5-4.1,3.5l-1.9,10.3c-0.4,1.5,0.5,3,2,3.4C231.2,98.8,231.5,98.8,231.7,98.8z"/>
	<path class="st18" d="M199.7,98.8h8c2-0.1,3.7-1.5,4.1-3.5l1.9-10.3c0.4-1.5-0.5-3-2-3.4c-0.2-0.1-0.5-0.1-0.7-0.1h-8
		c-2,0.1-3.8,1.5-4.2,3.5l-1.9,10.3c-0.4,1.5,0.5,3,2,3.4C199.2,98.8,199.4,98.8,199.7,98.8z"/>
	<path class="st18" d="M102.6,98.8h8c2-0.1,3.7-1.5,4.1-3.5l2-10.3c0.4-1.5-0.5-3-2.1-3.4c-0.3-0.1-0.5-0.1-0.8-0.1h-8
		c-2,0.1-3.7,1.5-4.1,3.5l-1.9,10.3c-0.4,1.5,0.5,3,2.1,3.4C102.1,98.8,102.4,98.8,102.6,98.8z"/>
	<path class="st15" d="M70.6,98.8h8c2-0.1,3.7-1.5,4.1-3.5l2-10.3c0.4-1.5-0.5-3-2.1-3.4c-0.3-0.1-0.5-0.1-0.8-0.1h-8
		c-2,0.1-3.7,1.5-4.1,3.5l-1.9,10.3c-0.4,1.5,0.5,3,2,3.4C70.1,98.8,70.3,98.8,70.6,98.8z"/>
	<path class="st19" d="M272.1,94.9v2.7c0,1,0.5,1.8,1.2,1.8h18.5c0.7,0,1.2-0.8,1.2-1.8v-2.7H272.1z"/>
	<path class="st20" d="M293.1,97.6v-2.7h113.4v2.7c0,1-0.5,1.8-1.2,1.8H291.9C292.5,99.5,293.1,98.7,293.1,97.6z"/>
	<path class="st21" d="M401.4,76.7c0.5,0,1,0.5,1.2,1.2l3.9,17h-36.2l-4-17c-0.2-0.7-0.6-1.2-1.2-1.2H401.4z"/>
	<path class="st9" d="M354.5,76.7c-0.5,0-1,0.5-1.2,1.2l-4,17h21l-4-17c-0.2-0.7-0.6-1.2-1.2-1.2H354.5z"/>
	<path class="st6" d="M362.8,76.7c0.5,0,1,0.5,1.2,1.2l3.9,17h-36.2l-4-17c-0.2-0.7-0.6-1.2-1.2-1.2H362.8z"/>
	<path class="st9" d="M315.5,76.7c-0.5,0-1,0.5-1.2,1.2l-4,17h21.3l-4-17c-0.2-0.7-0.6-1.2-1.2-1.2H315.5z"/>
	<path class="st21" d="M324.2,76.7c0.5,0,1,0.5,1.2,1.2l3.9,17h-36.2l-4-17c-0.2-0.7-0.6-1.2-1.2-1.2H324.2z"/>
	<path class="st22" d="M277.3,76.7c-0.5,0-1,0.5-1.2,1.2l-4,17h21l-4-17c-0.2-0.7-0.6-1.2-1.2-1.2H277.3z"/>
	<polygon class="st7" points="286.4,99.5 282.6,99.5 279.3,102.5 283.1,102.5 	"/>
	<polygon class="st23" points="291.1,99.5 286.4,99.5 283.1,102.5 287.9,102.5 	"/>
	<polygon class="st7" points="391.5,99.5 396.1,99.5 399.3,102.5 394.7,102.5 	"/>
	<polygon class="st23" points="387.5,99.5 391.5,99.5 394.7,102.5 390.8,102.5 	"/>
	<path class="st5" d="M469.9,181.4l-38.1-61c-1-1.6-2.8-2.6-4.7-2.6H313.6c-1.9,0-3.4,1.5-3.4,3.4c0,0.4,0.1,0.7,0.2,1.1l19.8,58.6
		c0.8,2.2,2.9,3.8,5.2,3.8h132.6c1.1,0,2.1-0.9,2.1-2.1C470.2,182.2,470.1,181.8,469.9,181.4z M438.7,181h-42.5
		c-1.1,0-2.2-1.3-2.4-2.8l-7.6-54c-0.2-1.6,0.5-2.8,1.6-2.8h35.6c3.5,0,5.6,4.3,6,5.9l10.3,51.8C439.9,180.1,439.4,181,438.7,181z
		 M443.5,181c-0.7,0-1.3-0.7-1.5-1.6l-9.5-47.9c-0.1-0.4,0.3-0.6,0.5-0.2l24.2,38.8v10.6c0,0.1,0,0.2,0,0.3L443.5,181z"/>
	<path class="st6" d="M28.9,253.8H10.2c-1.6,0-2.9,1.3-2.9,2.9l0,0v15.9h21.6V253.8z"/>
	<path class="st6" d="M71.7,282.9H10.2c-1.6,0-2.9-1.3-2.9-2.9v-7.3h64.4L71.7,282.9z"/>
	<path class="st24" d="M10.6,183.9l21.1-65.8c1.3-4.1,2.8-7,4.2-8h263.6c1.6,0,3.2,1.2,4.1,3.1l25.5,74.5c0.3,0.8,1,1.4,1.9,1.6
		l44.5,4.6c1.7,0.3,3.3,1.3,4.2,2.7l8.3,11.9c1.2,1.8,1.8,3.9,1.8,6.1v38.6c0,8.2-3.6,15.2-8.7,18.1c0-3.7-0.3-7.5-0.9-11.1
		c-4-16.3-14.5-31.7-30.1-31.7c-19.2,0-35.6,23.9-38,44.2H141c0-22.8-15.5-41.2-34.6-41.2s-34.6,18.4-34.6,41.2H23.6
		c-2.3,0-4.4-1.6-5.6-4.3L11.2,254l-1.6-8.2c-0.6-3.2-1-6.5-0.9-9.7v-41.6C8.7,190.9,9.4,187.3,10.6,183.9z"/>
	<path class="st15" d="M267.1,252.7c-0.2-0.5-0.1-1.1,0.3-1.5l4-3.2c0.2-0.2,0.2-0.5,0-0.6l-4-3.2c-0.4-0.4-0.5-1-0.3-1.5l2.5-6.2
		c0.2-0.5,0.7-0.7,1-0.4l4,3.2c0.1,0.1,0.2,0.1,0.3,0c0.1-0.1,0.1-0.2,0.1-0.3v-6.4c0-0.6,0.3-1.1,0.8-1.1h5c0.4,0,0.8,0.5,0.8,1.1
		v6.4c0,0.1,0,0.2,0.1,0.3c0.1,0.1,0.2,0.1,0.3,0l4-3.2c0.4-0.3,0.8-0.1,1.1,0.4l2.5,6.2c0.2,0.5,0.1,1.1-0.3,1.5l-4,3.2
		c-0.2,0.2-0.2,0.5,0,0.6l4,3.2c0.4,0.4,0.5,1,0.3,1.5l-2.5,6.2c-0.2,0.5-0.7,0.7-1.1,0.4l-4-3.2c-0.1-0.1-0.2-0.1-0.3,0
		c-0.1,0.1-0.1,0.2-0.1,0.3v6.5c0,0.6-0.3,1.1-0.8,1.1h-5c-0.4,0-0.8-0.5-0.8-1.1v-6.5c0-0.1,0-0.2-0.1-0.3c-0.1-0.1-0.2-0.1-0.3,0
		l-4,3.2c-0.4,0.3-0.8,0.1-1-0.4L267.1,252.7z"/>
	<path class="st25" d="M31.3,119.2h262.7c2.5,0,4.6,1.8,5.6,4.7l18.6,53.7c0.8,2.4-0.8,5.5-2.8,5.5H10.8L31.3,119.2z"/>
	<path class="st5" d="M250.4,183.2h64.9c2,0,3.6-3.2,2.8-5.5l-18.6-53.7c-1-2.9-3.1-4.7-5.6-4.7h-35.1c-1.9,0-3.8,2.2-4.2,5l-7.1,54
		C247.2,180.9,248.5,183.2,250.4,183.2z"/>
	<g class="st26">
		<path class="st27" d="M300.8,130.5c-0.1-0.3-0.5-0.1-0.5,0.2l-3.5,48.3c-0.1,0.9,0.4,1.6,1,1.6H316c0.4-0.1,0.8-0.3,1-0.8
			c0.2-0.5,0.3-1,0.1-1.5L300.8,130.5z"/>
		<path class="st27" d="M294.1,120.9H259c-1.1,0-2.2,1.3-2.4,2.8l-7.1,54c-0.2,1.6,0.5,2.8,1.6,2.8h41.9c0.7,0,1.4-0.9,1.5-1.9
			l3.8-51.8C298.7,122.8,296.5,120.9,294.1,120.9z"/>
		<path class="st28" d="M312.4,164.5L297,180c0.2,0.3,0.5,0.6,0.9,0.6h14.6l4.1-4.1L312.4,164.5z"/>
		<path class="st28" d="M249.6,177.4l48.7-48.7l0.1-1.9c0.3-4-1.8-5.9-4.3-5.9h-16.4l-23.9,23.9L249.6,177.4z"/>
	</g>
	<path class="st14" d="M171.2,222.6v-27.5h355.6c0.5,0.4,1,0.9,1.4,1.5l8.3,11.9c1.2,1.8,1.8,3.9,1.8,6.1v8.1L171.2,222.6z"/>
	<path class="st9" d="M507.3,209.6c0.1,0.2,0.2,0.4,0.4,0.5c0.2,0.1,0.4,0.2,0.6,0.2h1c0.2,0,0.3-0.1,0.3-0.3l-0.3-1.6h3.9l1.9,1.6
		c0.2,0.2,0.4,0.3,0.7,0.3h1c0.2,0,0.3-0.1,0.3-0.2c0-0.2-0.2-0.4-0.3-0.5l-9-7.4c-0.2-0.2-0.4-0.3-0.7-0.3h-1
		c-0.2,0-0.3,0.1-0.3,0.3L507.3,209.6z M508.9,206.6l-0.4-2l2.4,2H508.9z"/>
	<path class="st9" d="M489,201.9h1.2c0.3,0,0.5,0.1,0.7,0.3l5.8,4.5l-0.6-4.5c0-0.2,0.1-0.3,0.3-0.3h1.2c0.4,0,0.7,0.2,0.9,0.5
		l5.2,7.4c0.2,0.3,0.1,0.5-0.2,0.5h-0.9c-0.4,0-0.7-0.2-0.9-0.5l-2.9-4.1l0.5,3.5c0,0.2-0.1,0.3-0.3,0.3h-0.6
		c-0.2,0-0.5-0.1-0.7-0.3l-4.5-3.5l2.9,4.1c0.2,0.3,0.1,0.5-0.2,0.5H495c-0.4,0-0.7-0.2-0.9-0.5l-5.2-7.4
		C488.6,202.1,488.7,201.9,489,201.9z"/>
	<path class="st9" d="M479.9,207.8c1.3,1.7,3.3,2.6,5.4,2.5h3.6c0.3,0,0.4-0.2,0.2-0.5l-5.3-7.4c-0.2-0.3-0.6-0.5-0.9-0.5h-3.5
		c-2,0-2.6,0.9-1.6,2.4c0.5,0.7,1.1,1.2,1.9,1.6C479.2,206.3,479.3,207,479.9,207.8z M482.7,203.8l1,1.3h-2
		c-0.7,0.1-1.3-0.2-1.7-0.7c-0.4-0.5,0.2-0.7,0.8-0.7H482.7z M486.1,208.5h-2c-0.8,0.1-1.6-0.2-2.2-0.8c-0.5-0.7,0.6-0.8,1.1-0.8h2
		L486.1,208.5z"/>
	<path class="st9" d="M463.9,201.9h1c0.4,0,0.7,0.2,0.9,0.5l3.1,4.4c0.7,1.1,1.9,1.8,3.2,1.8c0.8,0,1.9-0.2,0.8-1.8l-3.1-4.4
		c-0.2-0.3-0.1-0.5,0.2-0.5h1c0.4,0,0.7,0.2,0.9,0.5l3.1,4.4c1.6,2.2,1,3.6-1.5,3.6c-2.7-0.1-5.1-1.4-6.6-3.6l-3.1-4.4
		C463.5,202.1,463.6,201.9,463.9,201.9z"/>
	<path class="st9" d="M458,208.5h3.1l-4.3-6.1c-0.2-0.3-0.1-0.5,0.2-0.5h1c0.4,0,0.7,0.2,0.9,0.5l5.2,7.4c0.2,0.3,0.1,0.5-0.2,0.5
		h-4.6c-0.4,0-0.7-0.2-0.9-0.5l-0.6-0.8C457.6,208.7,457.7,208.5,458,208.5z"/>
	<path class="st9" d="M445.4,209.6c0.1,0.2,0.2,0.4,0.4,0.5c0.2,0.1,0.4,0.2,0.6,0.2h1c0.2,0,0.3-0.1,0.3-0.3l-0.3-1.6h3.9l1.9,1.6
		c0.2,0.2,0.4,0.3,0.7,0.3h1c0.2,0,0.3-0.1,0.3-0.2c0-0.2-0.2-0.4-0.3-0.5l-9-7.4c-0.2-0.2-0.4-0.3-0.7-0.3h-1
		c-0.2,0-0.3,0.1-0.3,0.3L445.4,209.6z M447,206.6l-0.4-2l2.4,2H447z"/>
	<path class="st9" d="M428.5,201.9h1c0.4,0,0.7,0.2,0.9,0.5l3.2,4.5l0.7-4.8c0-0.1,0.1-0.2,0.3-0.2h1c0.4,0,0.7,0.2,0.9,0.5l5.3,7.4
		c0.2,0.3,0.1,0.5-0.2,0.5h-1c-0.4,0-0.7-0.2-0.9-0.5l-3.2-4.5l-0.7,4.8c0,0.1-0.1,0.2-0.3,0.2h-1c-0.4,0-0.7-0.2-0.9-0.5l-5.2-7.4
		C428.2,202.1,428.2,201.9,428.5,201.9z"/>
	<path class="st9" d="M420,207.8c0.1-0.2,0.4-0.2,0.8,0c0.8,0.5,1.7,0.7,2.7,0.8c1.6,0,2.1-1.1,1.2-2.4c-1.1-1.4-2.8-2.3-4.6-2.4
		c-0.6-0.1-1.2,0.2-1.5,0.8c0,0.1-0.1,0.1-0.3,0.1c-0.2,0-0.4-0.1-0.5-0.2l-1-0.6c-0.3-0.2-0.5-0.5-0.5-0.7c0.6-0.9,1.6-1.3,2.6-1.2
		c3.1,0.2,6,1.7,8,4.2c1.7,2.4,0.9,4.3-1.9,4.3c-1.5-0.1-3.1-0.5-4.4-1.3c-0.2-0.1-0.3-0.2-0.5-0.4c-0.1-0.1-0.1-0.2-0.1-0.4
		L420,207.8z"/>
	<path class="st9" d="M409.3,208.5h4.4l-1.1-1.5h-3.7c-0.4,0-0.7-0.2-0.9-0.5l-0.6-0.8c-0.2-0.3-0.1-0.5,0.2-0.5h3.7l-1-1.4h-4.2
		c-0.4,0-0.7-0.2-0.9-0.5l-0.6-0.8c-0.2-0.3-0.1-0.5,0.2-0.5h5.7c0.4,0,0.7,0.2,0.9,0.5l5.2,7.4c0.2,0.3,0.1,0.5-0.2,0.5h-5.9
		c-0.4,0-0.7-0.2-0.9-0.5l-0.6-0.8C408.9,208.7,409,208.5,409.3,208.5z"/>
	<path class="st15" d="M8.7,222.6v-27.5h369.6c0.5,0.4,1,0.9,1.4,1.5l8.3,11.9c1.2,1.8,1.8,3.9,1.8,6.1v8.1L8.7,222.6z"/>
	<path class="st29" d="M83.7,200.8c-0.1-0.3-0.3-0.6-0.7-0.6h-1.4c-0.3,0-0.6,0.3-0.7,0.6L75.8,216c-0.1,0.3-0.1,0.7,0,1
		c0.1,0.3,0.3,0.5,0.6,0.5h1.4c0.3,0,0.6-0.3,0.7-0.6l1.1-3.2h5.3l1.1,3.2c0.1,0.3,0.3,0.6,0.7,0.6h1.4c0.3,0,0.5-0.2,0.6-0.5
		c0.1-0.3,0.1-0.7,0-1L83.7,200.8z M80.9,209.9l1.4-4.1l1.4,4.1H80.9z"/>
	<path class="st29" d="M104.3,200.2h-1.6c-0.3,0-0.6,0.3-0.7,0.6l-3.5,9.2l-3.5-9.2c-0.1-0.3-0.3-0.5-0.7-0.6h-1.7
		c-0.4,0-0.8,0.5-0.8,1.1v15.2c0,0.6,0.3,1.1,0.8,1.1h1.2c0.4,0,0.8-0.5,0.8-1.1v-8.3l2.8,7.2c0.1,0.3,0.3,0.5,0.7,0.6h0.8
		c0.3,0,0.6-0.3,0.7-0.6l2.8-7.2v8.3c0,0.6,0.3,1.1,0.8,1.1h1.2c0.4,0,0.8-0.5,0.8-1.1v-15.2C105.1,200.7,104.7,200.2,104.3,200.2z"
		/>
	<path class="st29" d="M118.8,208.3c0.7-1,1-2.1,1-3.3c0-3-1.7-4.9-4.5-4.9h-4.8c-0.4,0-0.8,0.5-0.8,1.1v15.2c0,0.6,0.3,1.1,0.8,1.1
		h4.9c3,0,4.9-2,4.9-5.2C120.4,210.8,119.9,209.4,118.8,208.3z M115.3,204c0.8,0,1.7,0.2,1.7,1.3c0,0.9-0.6,1.4-1.7,1.4h-2.7V204
		H115.3z M112.6,210.5h2.7c0.7,0,2.2,0.1,2.2,1.6s-1.4,1.6-2.2,1.6h-2.7V210.5z"/>
	<path class="st29" d="M134.4,200.2h-1.3c-0.4,0-0.8,0.5-0.8,1.1v8.9c0,3-1.5,3.6-2.7,3.6c-1,0-2.8-0.5-2.8-3.6v-8.9
		c0-0.6-0.3-1.1-0.8-1.1h-1.3c-0.4,0-0.8,0.5-0.8,1.1v8.9c0,4.6,2.2,7.4,5.6,7.4c3.5,0,5.6-2.8,5.6-7.4v-8.9
		C135.2,200.7,134.8,200.2,134.4,200.2z"/>
	<path class="st29" d="M146.8,213.7h-4.3v-12.5c0-0.6-0.3-1.1-0.8-1.1h-1.3c-0.4,0-0.8,0.5-0.8,1.1v15.2c0,0.6,0.3,1.1,0.8,1.1h6.4
		c0.4,0,0.8-0.5,0.8-1.1v-1.6C147.5,214.2,147.2,213.7,146.8,213.7z"/>
	<path class="st29" d="M157.9,200.8c-0.1-0.3-0.3-0.6-0.7-0.6h-1.4c-0.3,0-0.6,0.3-0.7,0.6L150,216c-0.1,0.3-0.1,0.7,0,1
		c0.1,0.3,0.3,0.5,0.6,0.5h1.4c0.3,0,0.6-0.3,0.7-0.6l1.1-3.2h5.3l1.1,3.2c0.1,0.3,0.3,0.6,0.7,0.6h1.4c0.3,0,0.5-0.2,0.6-0.5
		c0.1-0.3,0.1-0.7,0-1L157.9,200.8z M155.1,209.9l1.4-4.1l1.4,4.1H155.1z"/>
	<path class="st29" d="M176.4,200.2h-1.3c-0.4,0-0.8,0.5-0.8,1.1v9.2l-5.6-9.8c-0.1-0.2-0.3-0.4-0.6-0.4h-1.4
		c-0.4,0-0.8,0.5-0.8,1.1v15.2c0,0.6,0.3,1.1,0.8,1.1h1.3c0.4,0,0.8-0.5,0.8-1.1v-9.1l5.6,9.8c0.1,0.2,0.3,0.4,0.6,0.4h1.3
		c0.4,0,0.8-0.5,0.8-1.1v-15.2C177.2,200.7,176.9,200.2,176.4,200.2z"/>
	<path class="st29" d="M191.7,212.2c-0.2-0.3-0.5-0.4-0.8-0.3c-0.1,0-0.2,0.1-0.2,0.2c-0.7,0.9-1.7,1.5-2.9,1.6
		c-2.2,0-3.9-2.2-3.9-4.9s1.7-4.9,3.9-4.9c1.2,0.1,2.2,0.7,2.9,1.6c0.1,0.2,0.3,0.3,0.6,0.3c0.2,0,0.4-0.2,0.5-0.4l0.8-1.3
		c0.3-0.5,0.2-1.1-0.1-1.5c-1.1-1.5-2.8-2.4-4.7-2.5c-3.8,0-6.8,3.8-6.8,8.7s2.9,8.8,6.7,8.8c1.9-0.1,3.7-1.1,4.8-2.6
		c0.3-0.5,0.3-1.1,0-1.5L191.7,212.2z"/>
	<path class="st29" d="M205,213.7h-6v-3.1h5c0.4,0,0.8-0.5,0.8-1.1v-1.7c0-0.6-0.3-1.1-0.8-1.1h-5V204h5.7c0.4,0,0.8-0.5,0.8-1.1
		v-1.7c0-0.6-0.3-1.1-0.8-1.1h-7.8c-0.4,0-0.8,0.5-0.8,1.1v15.2c0,0.6,0.3,1.1,0.8,1.1h8c0.4,0,0.8-0.5,0.8-1.1v-1.6
		C205.7,214.2,205.4,213.7,205,213.7z"/>
	<path class="st30" d="M24.2,204.6h350.5c2,0,3.6,1.6,3.6,3.6v1.4c0,2-1.6,3.6-3.6,3.6H24.2c-2,0-3.6-1.6-3.6-3.6v-1.4
		C20.6,206.2,22.2,204.6,24.2,204.6z"/>
	<rect x="141" y="272.6" class="st6" width="171" height="10.2"/>
	<path class="st6" d="M380.1,273.7v-13.6h10c1.1,0,2.1,0.9,2.1,2.1v11.3c0,1.1-0.9,2.1-2.1,2.1h-8.2
		C380.8,275.5,380.1,274.7,380.1,273.7z"/>
	<path class="st10" d="M286.8,166.7h14.3c2,0,3.5,1.6,3.5,3.6v10.1c0,2-1.6,3.6-3.5,3.6h-14.3c-2,0-3.5-1.6-3.5-3.6v-10.1
		C283.2,168.3,284.8,166.7,286.8,166.7z"/>
	<path class="st5" d="M293.2,186.4h3.6v-4.3c0-1-0.8-1.8-1.8-1.8l0,0c-1,0-1.8,0.8-1.8,1.8L293.2,186.4z"/>
	<path class="st8" d="M302.7,208.7c0.8,0,1.4-0.6,1.4-1.4c0-0.3-0.1-0.6-0.3-0.9l-12-14.8c-0.7-0.9-0.6-2.3,0.4-3
		c0.5-0.4,1.1-0.5,1.6-0.4l8.7,1.4c0.8,0.1,1.5-0.4,1.6-1.2c0.1-0.8-0.4-1.5-1.2-1.6c0,0,0,0,0,0l-8.7-1.4c-2.7-0.4-5.3,1.4-5.7,4.2
		c-0.2,1.4,0.2,2.8,1,3.9l12,14.8C301.9,208.5,302.3,208.7,302.7,208.7z"/>
	<path class="st31" d="M328.8,204.6v-17.6l0.3,0.8c0.2,0.5,0.6,1,1.2,1.3v15.6h0.9v8.5h-0.9V237l0,0c-0.5,0.4-1,0.9-1.4,1.3v-25.2
		h0.9v-8.5H328.8z"/>
	<polygon class="st31" points="252.9,110 242,188.1 242,204.6 243,204.6 243,213.1 242,213.1 242,282.9 240.6,282.9 240.6,213.1 
		241.5,213.1 241.5,204.6 240.6,204.6 240.6,188 251.5,110 	"/>
	<polygon class="st31" points="160.3,110 149.5,188.1 149.5,204.6 150.4,204.6 150.4,213.1 149.5,213.1 149.5,282.9 148,282.9 
		148,213.1 149,213.1 149,204.6 148,204.6 148,188 158.9,110 	"/>
	<path class="st7" d="M392.9,213.7h141.8c1,0,1.8,0.8,1.8,1.8v34.3c0,1-0.8,1.8-1.8,1.8H392.9c-1,0-1.8-0.8-1.8-1.8v-34.3
		C391.1,214.5,391.9,213.7,392.9,213.7z"/>
	<path class="st32" d="M393.9,215.5h139.8c1,0,1.8,0.8,1.8,1.8V248c0,1-0.8,1.8-1.8,1.8H393.9c-1,0-1.8-0.8-1.8-1.8v-30.7
		C392.1,216.3,392.9,215.5,393.9,215.5z"/>
	<path class="st33" d="M518.5,240.9h13.4c1,0,1.8,0.8,1.8,1.8v3.3c0,1-0.8,1.8-1.8,1.8h-13.4c-1,0-1.8-0.8-1.8-1.8v-3.3
		C516.8,241.7,517.5,240.9,518.5,240.9z"/>
	<path class="st9" d="M518.5,217.8h13.4c1,0,1.8,0.8,1.8,1.8v16.4c0,1-0.8,1.8-1.8,1.8h-13.4c-1,0-1.8-0.8-1.8-1.8v-16.4
		C516.8,218.6,517.5,217.8,518.5,217.8z"/>
	<path class="st33" d="M395.6,240.9H409c1,0,1.8,0.8,1.8,1.8v3.3c0,1-0.8,1.8-1.8,1.8h-13.4c-1,0-1.8-0.8-1.8-1.8v-3.3
		C393.8,241.7,394.6,240.9,395.6,240.9z"/>
	<path class="st9" d="M395.6,217.8H409c1,0,1.8,0.8,1.8,1.8v16.4c0,1-0.8,1.8-1.8,1.8h-13.4c-1,0-1.8-0.8-1.8-1.8v-16.4
		C393.8,218.6,394.6,217.8,395.6,217.8z"/>
	<path class="st10" d="M491.7,217.8h20.9c1,0,1.8,0.8,1.8,1.8v5.1c0,1-0.8,1.8-1.8,1.8h-20.9c-1,0-1.8-0.8-1.8-1.8v-5.1
		C489.9,218.6,490.7,217.8,491.7,217.8z"/>
	<path class="st10" d="M491.7,239.1h20.9c1,0,1.8,0.8,1.8,1.8v5.1c0,1-0.8,1.8-1.8,1.8h-20.9c-1,0-1.8-0.8-1.8-1.8v-5.1
		C489.9,239.9,490.7,239.1,491.7,239.1z"/>
	<path class="st10" d="M491.7,228.4h20.9c1,0,1.8,0.8,1.8,1.8v5.1c0,1-0.8,1.8-1.8,1.8h-20.9c-1,0-1.8-0.8-1.8-1.8v-5.1
		C489.9,229.2,490.7,228.4,491.7,228.4z"/>
	<path class="st10" d="M466.1,217.8H487c1,0,1.8,0.8,1.8,1.8v5.1c0,1-0.8,1.8-1.8,1.8h-20.9c-1,0-1.8-0.8-1.8-1.8v-5.1
		C464.3,218.6,465.1,217.8,466.1,217.8z"/>
	<path class="st10" d="M466.1,239.1H487c1,0,1.8,0.8,1.8,1.8v5.1c0,1-0.8,1.8-1.8,1.8h-20.9c-1,0-1.8-0.8-1.8-1.8v-5.1
		C464.3,239.9,465.1,239.1,466.1,239.1z"/>
	<path class="st10" d="M466.1,228.4H487c1,0,1.8,0.8,1.8,1.8v5.1c0,1-0.8,1.8-1.8,1.8h-20.9c-1,0-1.8-0.8-1.8-1.8v-5.1
		C464.3,229.2,465.1,228.4,466.1,228.4z"/>
	<path class="st10" d="M440.5,217.8h20.9c1,0,1.8,0.8,1.8,1.8v5.1c0,1-0.8,1.8-1.8,1.8h-20.9c-1,0-1.8-0.8-1.8-1.8v-5.1
		C438.7,218.6,439.5,217.8,440.5,217.8z"/>
	<path class="st10" d="M440.5,239.1h20.9c1,0,1.8,0.8,1.8,1.8v5.1c0,1-0.8,1.8-1.8,1.8h-20.9c-1,0-1.8-0.8-1.8-1.8v-5.1
		C438.7,239.9,439.5,239.1,440.5,239.1z"/>
	<path class="st10" d="M440.5,228.4h20.9c1,0,1.8,0.8,1.8,1.8v5.1c0,1-0.8,1.8-1.8,1.8h-20.9c-1,0-1.8-0.8-1.8-1.8v-5.1
		C438.7,229.2,439.5,228.4,440.5,228.4z"/>
	<path class="st10" d="M414.9,217.8h20.9c1,0,1.8,0.8,1.8,1.8v5.1c0,1-0.8,1.8-1.8,1.8h-20.9c-1,0-1.8-0.8-1.8-1.8v-5.1
		C413.1,218.6,413.9,217.8,414.9,217.8z"/>
	<path class="st10" d="M414.9,239.1h20.9c1,0,1.8,0.8,1.8,1.8v5.1c0,1-0.8,1.8-1.8,1.8h-20.9c-1,0-1.8-0.8-1.8-1.8v-5.1
		C413.1,239.9,413.9,239.1,414.9,239.1z"/>
	<path class="st10" d="M414.9,228.4h20.9c1,0,1.8,0.8,1.8,1.8v5.1c0,1-0.8,1.8-1.8,1.8h-20.9c-1,0-1.8-0.8-1.8-1.8v-5.1
		C413.1,229.2,413.9,228.4,414.9,228.4z"/>
	<path class="st34" d="M415.3,195.1h74.6l-2,2c-0.9,0.9-2.2,1.5-3.5,1.5h-62.2c-0.9,0-1.8-0.3-2.6-0.7L415.3,195.1z"/>
	<path class="st35" d="M23.2,205.9h15.9c0.5,0,0.9,0.4,0.9,0.9v4.1c0,0.5-0.4,0.9-0.9,0.9H23.2c-0.5,0-0.9-0.4-0.9-0.9v-4.1
		C22.3,206.3,22.7,205.9,23.2,205.9z"/>
	<path class="st35" d="M362,205.9h14.1c0.5,0,0.9,0.4,0.9,0.9v4.1c0,0.5-0.4,0.9-0.9,0.9H362c-0.5,0-0.9-0.4-0.9-0.9v-4.1
		C361.1,206.3,361.5,205.9,362,205.9z"/>
	<path class="st10" d="M249.1,197.8c0,0.8,0.4,1.4,1,1.4h12.4c0.6,0,1-0.6,1-1.4v-1.4h-14.4L249.1,197.8z"/>
	<path class="st36" d="M262.5,190.6h-12.4c-0.6,0-1,0.6-1,1.4v4.3h14.4V192C263.5,191.2,263,190.6,262.5,190.6z"/>
	<path class="st10" d="M219.2,197.8c0,0.8,0.4,1.4,1,1.4h12.4c0.6,0,1-0.6,1-1.4v-1.4h-14.4V197.8z"/>
	<path class="st36" d="M232.6,190.6h-12.4c-0.6,0-1,0.6-1,1.4v4.3h14.4V192C233.6,191.2,233.2,190.6,232.6,190.6z"/>
	<path class="st21" d="M82.7,178.6h-7.9c-1.5,0-2.4-1.7-2.1-3.7l1-7.5l-5.1,3.8c-0.4,0.3-0.9,0.5-1.4,0.5c-1-0.1-1.8-0.9-2-1.9
		l-2.6-9.6c-0.2-0.9-0.2-1.9,0.1-2.8c0.3-0.9,0.8-1.7,1.5-2.3l5.1-3.8l-4.1-3.8c-0.6-0.6-0.9-1.4-0.9-2.3c0-1,0.2-2,0.7-2.8l5.3-9.6
		c0.5-1,1.4-1.7,2.6-1.9c0.5,0,0.9,0.2,1.2,0.5l4.1,3.8l1-7.5c0.3-2.1,1.7-3.8,3.2-3.8h7.9c1.5,0,2.4,1.7,2.1,3.8l-1,7.5l5.1-3.8
		c0.4-0.3,0.9-0.5,1.4-0.5c1,0.1,1.8,0.9,2,1.9l2.6,9.6c0.2,0.9,0.2,1.9-0.1,2.8c-0.3,0.9-0.8,1.7-1.6,2.3l-5.1,3.8l4.1,3.8
		c0.6,0.6,0.9,1.4,0.9,2.3c0,1-0.2,2-0.7,2.8l-5.3,9.6c-0.5,1-1.4,1.7-2.6,1.9c-0.5,0-0.9-0.2-1.3-0.5l-4.1-3.8l-1,7.5
		C85.5,176.9,84.1,178.6,82.7,178.6z M73.9,166.4c0.1,0,0.2,0,0.2,0.1c0.1,0.2,0.2,0.4,0.2,0.6l-1.1,7.7c-0.2,1.6,0.5,2.9,1.7,2.9
		h7.9c1.2,0,2.3-1.3,2.5-2.9l1.1-7.7c0-0.2,0.2-0.5,0.3-0.6c0.1-0.1,0.4-0.1,0.5,0l4.2,3.9c0.3,0.3,0.6,0.4,1,0.4
		c0.9-0.1,1.6-0.7,2-1.5l5.3-9.6c0.4-0.7,0.6-1.4,0.5-2.2c0-0.7-0.3-1.3-0.7-1.8l-4.2-3.9c-0.2-0.2-0.2-0.4-0.2-0.6
		c0-0.2,0.2-0.5,0.3-0.6l5.3-3.9c0.6-0.5,1-1.1,1.2-1.8c0.2-0.7,0.3-1.5,0.1-2.2l-2.6-9.6c-0.1-0.8-0.8-1.4-1.6-1.5
		c-0.4,0-0.8,0.1-1.1,0.4l-5.3,3.9c-0.1,0.1-0.3,0.1-0.5,0c-0.1-0.2-0.2-0.4-0.2-0.6l1.1-7.7c0.2-1.6-0.5-2.9-1.7-2.9h-7.9
		c-1.1,0-2.2,1.3-2.5,2.9l-1.1,7.7c0,0.2-0.1,0.5-0.3,0.6c-0.1,0.1-0.3,0.1-0.5,0l-4.2-3.9c-0.3-0.3-0.6-0.4-1-0.4
		c-0.9,0.1-1.6,0.7-2,1.5l-5.3,9.6c-0.4,0.7-0.5,1.4-0.5,2.2c0,0.7,0.3,1.3,0.7,1.8l4.2,3.9c0.1,0.2,0.2,0.4,0.2,0.6
		c0,0.2-0.1,0.5-0.3,0.6l-5.3,3.9c-0.6,0.5-1,1.1-1.2,1.8c-0.3,0.7-0.3,1.5-0.1,2.2l2.6,9.6c0.1,0.8,0.8,1.4,1.6,1.5
		c0.4,0,0.8-0.1,1.1-0.4l5.3-3.9C73.7,166.4,73.8,166.4,73.9,166.4z"/>
	<path class="st21" d="M99,159c0.5-0.7,0.4-1.7-0.1-2.3l-5.5-5c-0.1-0.1-0.2-0.3-0.1-0.5c0-0.2,0.1-0.4,0.3-0.5l6.9-5
		c0.7-0.6,1-1.5,0.8-2.3l-2.6-9.6c-0.1-0.5-0.6-0.9-1.2-0.8c-0.1,0-0.3,0.1-0.4,0.2l-6.9,5c-0.1,0.1-0.3,0.1-0.4,0
		c-0.1-0.1-0.2-0.3-0.1-0.5l1.4-10.1c0.1-0.9-0.3-1.7-1-1.7h-7.9c-0.7,0-1.3,0.8-1.4,1.7l-1.4,10.1c0,0.2-0.1,0.4-0.3,0.5
		c-0.1,0.1-0.3,0.1-0.4,0l-5.5-5c-0.5-0.5-1.3-0.2-1.7,0.6l-5.3,9.6c-0.5,0.7-0.4,1.7,0.1,2.3l5.5,5c0.1,0.1,0.2,0.3,0.1,0.5
		c0,0.2-0.1,0.4-0.3,0.5l-6.9,5c-0.7,0.6-1,1.5-0.8,2.3l2.6,9.6c0.1,0.5,0.6,0.9,1.2,0.8c0.1,0,0.3-0.1,0.4-0.2l6.9-5
		c0.1-0.1,0.3-0.1,0.4,0c0.1,0.1,0.2,0.3,0.1,0.5l-1.4,10.1c-0.1,0.9,0.3,1.7,1,1.7H83c0.7,0,1.3-0.8,1.4-1.7l1.4-10.1
		c0-0.2,0.1-0.4,0.3-0.5c0.1-0.1,0.3-0.1,0.4,0l5.5,5c0.5,0.5,1.3,0.2,1.7-0.6L99,159z"/>
	<path class="st15" d="M182.9,134.5h-1.3c-0.1,0-0.2,0.1-0.3,0.3l-0.7,5.1c0,0.2,0.1,0.3,0.2,0.3h1.3c0.1,0,0.2-0.1,0.2-0.3v-0.2
		c0-0.2-0.1-0.3-0.2-0.3h-0.9l0.2-1.6h0.8c0.1,0,0.2-0.1,0.3-0.3v-0.2c0-0.2-0.1-0.3-0.2-0.3h-0.8l0.2-1.6h0.9
		c0.1,0,0.2-0.1,0.3-0.3v-0.2C183,134.7,183,134.5,182.9,134.5z"/>
	<path class="st15" d="M185.4,134.5h-0.2c-0.1,0-0.2,0.1-0.2,0.2l-0.9,3.4v-3.4c0-0.1-0.1-0.2-0.2-0.2h-0.2c-0.1,0-0.2,0.1-0.3,0.3
		l-0.7,5.1c0,0.2,0,0.3,0.2,0.3h0.2c0.1,0,0.2-0.1,0.3-0.3l0.2-1.8l-0.1,1.9c0,0.1,0.1,0.2,0.2,0.2h0.1c0.1,0,0.2-0.1,0.2-0.2
		l0.5-1.9l-0.2,1.8c0,0.2,0.1,0.3,0.2,0.3h0.2c0.1,0,0.2-0.1,0.3-0.3l0.7-5.1C185.6,134.7,185.5,134.5,185.4,134.5z"/>
	<path class="st15" d="M187.6,134.5h-1.3c-0.1,0-0.3,0.2-0.3,0.3l-0.7,5.1c0,0.2,0.1,0.3,0.2,0.3h1.3c0.1,0,0.2-0.1,0.3-0.3v-0.2
		c0-0.2,0-0.3-0.2-0.3H186l0.2-1.6h0.8c0.1,0,0.2-0.1,0.3-0.3v-0.2c0-0.2-0.1-0.3-0.2-0.3h-0.8l0.2-1.6h0.9c0.1,0,0.2-0.1,0.3-0.3
		v-0.2C187.8,134.7,187.7,134.5,187.6,134.5z"/>
	<path class="st15" d="M190,136.2c0.2-1.1,0-1.7-0.8-1.7h-0.8c-0.1,0-0.3,0.2-0.3,0.3l-0.7,5.1c0,0.2,0.1,0.3,0.2,0.3h0.2
		c0.1,0,0.2-0.1,0.2-0.3l0.3-2.1h0.3c0.3,0,0.4,0.2,0.4,0.7l-0.2,1.4c0,0.2,0.1,0.3,0.2,0.3h0.2c0.1,0,0.2-0.1,0.3-0.3l0.2-1.4
		c0.1-0.4,0-0.7-0.1-1.1l0.1-0.1C189.8,137,190,136.6,190,136.2z M188.8,137h-0.3l0.2-1.6h0.4c0.3,0,0.4,0.2,0.3,0.8
		S189.1,137,188.8,137L188.8,137z"/>
	<path class="st15" d="M191.6,134.5c-0.7,0-1.1,0.6-1.2,1.6l-0.3,2.4c-0.1,1.1,0.1,1.6,0.8,1.6s1.1-0.6,1.2-1.6l0.1-0.9
		c0-0.2-0.1-0.3-0.2-0.3h-0.6c-0.4,0-0.4,0.9-0.1,0.9h0.2l-0.1,0.4c-0.1,0.6-0.2,0.8-0.5,0.8s-0.4-0.3-0.3-0.8
		c0-0.2,0.1-1.1,0.3-2.4c0-0.2,0.1-0.5,0.2-0.7c0.1-0.1,0.2-0.1,0.3-0.1c0.1,0,0.2,0,0.2,0.1c0.1,0.2,0.1,0.5,0,0.7v0.1
		c0,0.2,0.1,0.3,0.2,0.3h0.2c0.1,0,0.2-0.1,0.2-0.3v-0.1C192.5,135.1,192.3,134.5,191.6,134.5z"/>
	<path class="st15" d="M194.5,134.5h-1.3c-0.1,0-0.3,0.2-0.3,0.3l-0.7,5.1c0,0.2,0.1,0.3,0.2,0.3h1.3c0.1,0,0.2-0.1,0.3-0.3v-0.2
		c0-0.2-0.1-0.3-0.2-0.3H193l0.2-1.6h0.8c0.1,0,0.2-0.1,0.3-0.3v-0.2c0-0.2-0.1-0.3-0.2-0.3h-0.8l0.2-1.6h0.9c0.1,0,0.2-0.1,0.2-0.3
		v-0.2C194.7,134.7,194.7,134.5,194.5,134.5z"/>
	<path class="st15" d="M196.9,134.5h-0.2c-0.1,0-0.3,0.2-0.3,0.3l-0.4,2.8l-0.4-2.9c0-0.1-0.1-0.2-0.2-0.2h-0.1
		c-0.1,0-0.2,0.1-0.2,0.3l-0.7,5.1c0,0.2,0.1,0.3,0.2,0.3h0.2c0.1,0,0.2-0.1,0.3-0.3l0.4-2.8l0.4,2.9c0,0.1,0.1,0.2,0.2,0.2h0.1
		c0.1,0,0.2-0.1,0.3-0.3l0.7-5.1C197.1,134.7,197,134.5,196.9,134.5z"/>
	<path class="st15" d="M198.6,134.5c-0.3,0-0.5,0.1-0.7,0.3c-0.3,0.4-0.5,0.8-0.5,1.3l-0.3,2.4c-0.1,0.4-0.1,0.9,0.1,1.3
		c0.1,0.2,0.4,0.4,0.6,0.3c0.3,0,0.5-0.1,0.7-0.3c0.3-0.4,0.5-0.8,0.5-1.3v-0.1c0-0.2-0.1-0.3-0.2-0.3h-0.2c-0.1,0-0.2,0.1-0.3,0.3
		v0.1c0,0.2-0.1,0.5-0.2,0.7c-0.1,0.1-0.2,0.1-0.3,0.1c-0.3,0-0.4-0.3-0.3-0.8l0.3-2.4c0.1-0.6,0.2-0.8,0.5-0.8s0.3,0.2,0.3,0.8v0.1
		c0,0.2,0.1,0.3,0.2,0.3h0.2c0.1,0,0.2-0.1,0.2-0.3v-0.1c0.1-0.4,0.1-0.9-0.1-1.3C199.1,134.7,198.8,134.5,198.6,134.5z"/>
	<path class="st15" d="M201.8,134.5h-0.2c-0.1,0-0.2,0.1-0.2,0.2l-0.7,1.6l-0.3-1.6c0-0.1-0.1-0.2-0.2-0.2h-0.2
		c-0.2,0-0.3,0.2-0.3,0.4c0.1,0.9,0.3,1.7,0.4,2.5l-0.3,2.4c0,0.2,0.1,0.3,0.2,0.3h0.2c0.1,0,0.2-0.1,0.2-0.3l0.3-2.4l1.1-2.5
		C202.1,134.8,202,134.5,201.8,134.5z"/>
	<path class="st15" d="M204.6,134.5c-0.3,0-0.5,0.1-0.7,0.3c-0.3,0.4-0.5,0.8-0.5,1.3l-0.3,2.4c-0.1,0.4-0.1,0.9,0.1,1.3
		c0.1,0.2,0.4,0.4,0.6,0.3c0.3,0,0.5-0.1,0.7-0.3c0.3-0.4,0.5-0.8,0.5-1.3v-0.1c0-0.2-0.1-0.3-0.2-0.3h-0.2c-0.1,0-0.2,0.1-0.3,0.3
		v0.1c0,0.2-0.1,0.5-0.2,0.7c-0.1,0.1-0.2,0.1-0.3,0.1c-0.3,0-0.4-0.3-0.3-0.8l0.3-2.4c0.1-0.6,0.2-0.8,0.5-0.8s0.3,0.2,0.3,0.8v0.1
		c0,0.2,0.1,0.3,0.2,0.3h0.2c0.1,0,0.2-0.1,0.2-0.3v-0.1c0.1-0.4,0.1-0.9-0.1-1.3C205.1,134.7,204.9,134.5,204.6,134.5z"/>
	<path class="st15" d="M207.4,134.8c0-0.1-0.1-0.2-0.2-0.2h-0.1c-0.1,0-0.2,0.1-0.2,0.2l-1,3.3l-0.5,1.8c0,0.2,0,0.4,0.2,0.4h0.2
		c0.1,0,0.2-0.1,0.2-0.2l0.4-1.3h0.6v1.3c0,0.1,0.1,0.2,0.2,0.2h0.2c0.1,0,0.3-0.2,0.3-0.4L207.4,134.8z M206.5,137.9l0.4-1.4
		c0,0.7,0,0.9,0,1.4H206.5z"/>
	<path class="st15" d="M209.5,139.4h-0.9l0.6-4.6c0-0.2-0.1-0.3-0.2-0.3h-0.2c-0.1,0-0.3,0.2-0.3,0.3l-0.7,5.1
		c0,0.2,0.1,0.3,0.2,0.3h1.3c0.1,0,0.2-0.1,0.3-0.3v-0.2C209.7,139.5,209.6,139.4,209.5,139.4z"/>
	<path class="st15" d="M211.5,139.4h-0.9l0.6-4.6c0-0.2-0.1-0.3-0.2-0.3h-0.2c-0.1,0-0.3,0.2-0.3,0.3l-0.7,5.1
		c0,0.2,0.1,0.3,0.2,0.3h1.3c0.1,0,0.2-0.1,0.3-0.3v-0.2C211.7,139.5,211.6,139.4,211.5,139.4z"/>
	<path class="st15" d="M212.6,137.8h-0.2c-0.1,0-0.2,0.1-0.3,0.3l-0.1,0.6c0,0.2,0.1,0.3,0.2,0.3h0.2c0.1,0,0.2-0.1,0.2-0.3l0.1-0.6
		C212.8,138,212.7,137.8,212.6,137.8z"/>
	<path class="st15" d="M212.9,135.8h-0.2c-0.1,0-0.2,0.1-0.2,0.3l-0.1,0.6c0,0.2,0.1,0.3,0.2,0.3h0.2c0.1,0,0.2-0.1,0.3-0.3l0.1-0.6
		C213.1,135.9,213,135.8,212.9,135.8z"/>
	<text transform="matrix(1 0 0 1 180.15 156.55)" class="st15 st37 st38">108</text>
	<path class="st39" d="M357.3,181.1c-0.2-0.4-0.2-0.8,0-1.2c0.1-0.3,0.2-0.6,0.1-0.9c-0.1-0.4-0.5-0.8-1.6-0.8
		c-2,0.1-3.8,0.9-5.4,2.1c-1.1,0.9-1,1.6-0.9,1.9c0.2,0.4,0.5,0.6,0.9,0.7c0.4,0.1,0.8,0.4,1,0.8l0.3,0.6h7.2L357.3,181.1z"/>
	<path class="st39" d="M339.4,184.5c0.7-0.8,1.4-1.6,2.3-2.3c6.2-5.5,17.4-10,24.9-10c3.1,0,4.5,0.8,4.7,1.4s-0.2,2.6-3.5,5.6
		c-2.5,2.1-5.2,3.9-8.1,5.3h7.6c1-0.7,2-1.5,3-2.3c5.4-4.8,5.2-8.3,4.6-9.9c-0.7-1.8-2.7-4-8.4-4c-8.5,0-20.5,4.8-27.5,10.9
		c-1.8,1.4-3.2,3.2-4.2,5.3L339.4,184.5z"/>
	<g class="st26">
		<path class="st27" d="M428.9,120.3c-0.6-1-1.7-1.6-2.9-1.6H312.5c-0.4,0-0.8,0.2-1,0.5c-0.2,0.3-0.3,0.7-0.2,1.1l19.8,58.6
			c0.5,1.4,1.8,2.3,3.2,2.3H466c0.3,0,0.5-0.2,0.5-0.5c0-0.1,0-0.2-0.1-0.3L428.9,120.3z"/>
		<polygon class="st28" points="356,118.8 322.2,152.5 326.3,164.5 372,118.8 		"/>
		<path class="st28" d="M432.6,126.3l-3.7-6c-0.6-1-1.7-1.6-2.9-1.6h-25.8l-62.5,62.6h40L432.6,126.3z"/>
		<polygon class="st28" points="450.6,155.2 439.7,137.7 396.1,181.3 424.5,181.3 		"/>
	</g>
	<path class="st2" d="M341.1,193.7c-1,0-1.8-0.8-1.8-1.8v-12.1c0-0.6,0.4-1.1,0.8-1.1h2v14.9L341.1,193.7z"/>
	<path class="st5" d="M344.1,193.7h-2v-14.9h3.7v13.1C345.8,192.9,345,193.7,344.1,193.7z"/>
	<path class="st8" d="M345.1,171.6c-2.8,0-5.1,3.2-5.1,7.2s2.3,7.2,5.1,7.2s5.1-3.2,5.1-7.2S347.9,171.6,345.1,171.6z"/>
	<path class="st8" d="M345.1,171.6h-2.4c-2.8,0-5.1,3.2-5.1,7.2s2.3,7.2,5.1,7.2h2.4c-2.8,0-5.1-3.2-5.1-7.2
		S342.3,171.6,345.1,171.6z"/>
	<path class="st9" d="M345.3,185.3c2.3,0,4.2-2.9,4.2-6.5s-1.9-6.5-4.2-6.5s-4.2,2.9-4.2,6.5S342.9,185.3,345.3,185.3z"/>
</g>
</svg>
