<svg id="Layer_1" data-name="Layer 1" xmlns="http://www.w3.org/2000/svg" xmlns:xlink="http://www.w3.org/1999/xlink" viewBox="0 0 512 460"><defs><style>.cls-1{fill:none;}.cls-2{clip-path:url(#clip-path);}.cls-3,.cls-5{fill:#889ef2;}.cls-14,.cls-4{fill:#dde541;}.cls-21,.cls-4,.cls-5{stroke:#1a2668;}.cls-10,.cls-11,.cls-16,.cls-21,.cls-4,.cls-5,.cls-6,.cls-7,.cls-8,.cls-9{stroke-miterlimit:10;}.cls-6{fill:#b5b518;stroke:#66661b;}.cls-7{fill:#513935;}.cls-10,.cls-16,.cls-7,.cls-8,.cls-9{stroke:#9e673f;}.cls-8{fill:#fbd3c7;}.cls-9{fill:#605755;}.cls-10{fill:#f4dedc;}.cls-11{fill:#9fdaf7;stroke:#9fdaf7;}.cls-12{fill:#e2aea1;}.cls-13{fill:#e5afa8;}.cls-15{fill:#3d1811;}.cls-16,.cls-21{fill:#fff;}.cls-17{fill:#f9f5f4;}.cls-18{fill:#8c3e3e;}.cls-19{fill:#f7f5f5;}.cls-20{fill:#c4947a;}</style><clipPath id="clip-path"><rect class="cls-1" x="18" y="1" width="476" height="458"/></clipPath></defs><g class="cls-2"><line class="cls-3" x1="159.22" y1="324.44" x2="131.54" y2="353.99"/><path class="cls-4" d="M261.44,254.64s-29.53,11.92-37.87,16.78-56.45,43.37-56.45,43.37l16.68-28.16-49.12-34-33.36,92.25s-8.34,23.3,11.12,35,33.37-2,33.37-2l69.5-38.84"/><line class="cls-5" x1="167.12" y1="314.79" x2="158.78" y2="332.27"/><path class="cls-6" d="M184.42,286.91l-6.27,11.49c-11.75.42-36.56-21.51-48.26-32.53l6.39-19.37Z"/><path class="cls-7" d="M136.57,246.46s3.52,21.45,47.59,40.36a.83.83,0,0,0,1.06-1.15C181.86,279.57,169.41,261,136.57,246.46Z"/><path class="cls-4" d="M366.86,281.45s53.27,97,70.6,119.54-99.18,97-99.18,97l-14.73-31.18,57.6-61.5-38.11-55Z"/><path class="cls-4" d="M368.16,283.18a225.85,225.85,0,0,0-32.05-20.35c-5.8-3-30.81-6.67-37.68-10.83l-9.09,3.9-1.46,0c-23.25.55-15.93-8.7-66.54,17.51h0v16.89s-14.29,44.5-19.81,113-10.4,68.21-10.4,68.21,115,19.17,139-1.62c0,0,12.88-56.85,22.41-98.86l1.15-7.69"/><path class="cls-8" d="M145.33,197.21A121.78,121.78,0,0,0,143.82,244l-3.39,9.37s7.5,12.27,17,17.72l6.92-13.88s20.57-.65,28.37-19.49S154.21,182.27,145.33,197.21Z"/><path class="cls-9" d="M195.67,137,140,191.43a5.47,5.47,0,0,0-.63,7.39l31,40.18c2.1,2.71,8,2.76,10.3.22L238.5,179.5a33.19,33.19,0,0,0-3.48-5.38l-31.49-36.65A5.47,5.47,0,0,0,195.67,137Z"/><path class="cls-10" d="M160.43,174.62,144.71,189a5.49,5.49,0,0,0-.63,7.4l31,40.18a5.48,5.48,0,0,0,8.41.32L199.7,219a5.48,5.48,0,0,0,.09-7.25L168.3,175.09A5.49,5.49,0,0,0,160.43,174.62Z"/><path class="cls-11" d="M200.69,135.83,155,180.25a5.48,5.48,0,0,0-.63,7.39l29,38.19a5.49,5.49,0,0,0,8.41.32l46.19-48a5.47,5.47,0,0,0,.09-7.24L208.56,136.3A5.48,5.48,0,0,0,200.69,135.83Z"/><path class="cls-6" d="M315.86,258c0,6.34-15.56,14.67-31.83,14.67s-29.45-5.14-29.45-11.48,13.19-11.47,29.45-11.47S315.86,251.67,315.86,258Z"/><path class="cls-8" d="M317.92,186.6c-5.42,14.14-7.89,34.17-9,49.49-.94,12.86-.94,22.4-.94,22.4-5.49,7.67-14.72,8.47-22,9.1a56.08,56.08,0,0,1-22-2.83,5.25,5.25,0,0,1-3.43-6.39,37.17,37.17,0,0,0,.87-3.73,28.09,28.09,0,0,0,.18-10S327.89,160.61,317.92,186.6Z"/><path class="cls-12" d="M315.67,186.6c-5.06,14.14-7.37,34.17-8.42,49.49-14.14,14.81-33.6,18-44.33,18.55a30.08,30.08,0,0,0,.17-10S325,160.61,315.67,186.6Z"/><path class="cls-13" d="M199.47,195.91s6.5-8.44,53.7,2.6c0,0,4.12-13.42-48.29-12.34C204.88,186.17,188,188.77,199.47,195.91Z"/><path class="cls-14" d="M224.37,273.66s-3-2.6-9.53,9.09,2.25,20.7,2.25,20.7l8.15,42.1,22.09-48.94Z"/><path class="cls-8" d="M170,172.53s-3.47-11.48,2.81-16.68S191.24,165,193,181.19c0,0-2.16,7.36-9.31,3.46s-8.23-18.19-8.23-18.19"/><path class="cls-8" d="M160.49,175.13s-3.46-11.48,2.82-16.68,18.4,9.1,20.13,25.34c0,0-2.16,7.36-9.31,3.46s-8.23-18.19-8.23-18.19"/><path class="cls-8" d="M147.71,183.79s-.21-14.08,6.07-19.28,18.4,9.1,20.14,25.34c0,0-2.17,7.36-9.31,3.47s-8.23-18.19-8.23-18.19"/><ellipse class="cls-15" cx="214.6" cy="89.24" rx="31.81" ry="19.44"/><path class="cls-8" d="M226.08,68S192.8,93.66,195.45,140.5c0,0-17.93,59.73-3.8,81.58,8.6,13.28,12.21,23.45,19.41,27.6,11.21,6.47,82.49-3.1,101.05-37.56s9.41-28.32,9.41-28.32l28.58-66S379,58,325.65,47.42,226.08,68,226.08,68Z"/><ellipse class="cls-16" cx="268.35" cy="141.09" rx="19" ry="19.74"/><ellipse class="cls-15" cx="270.64" cy="140.28" rx="11.41" ry="11.86"/><ellipse class="cls-17" cx="267.31" cy="130.19" rx="2.76" ry="2.87"/><ellipse class="cls-16" cx="212.83" cy="137.26" rx="13.11" ry="16.4"/><ellipse class="cls-15" cx="214.4" cy="136.58" rx="7.87" ry="9.85"/><ellipse class="cls-17" cx="212.11" cy="128.21" rx="1.91" ry="2.38"/><path class="cls-18" d="M207.13,198.82a18,18,0,0,1,2.56,12.57s27.1,9.62,48.89-8c0,0-14.72-12-41-10.8S207.13,198.82,207.13,198.82Z"/><path class="cls-15" d="M260.94,106.53l-.2-10.22s35.16-9.42,41.83,14.93C302.57,111.24,280.38,104,260.94,106.53Z"/><path class="cls-15" d="M221.08,99.46,217.93,112s-10.6,1.57-17.87,6.48S197.51,99.65,221.08,99.46Z"/><path class="cls-19" d="M209.49,198l3.73,8.05s20.62,1.37,38.49-3.14l-11.39-4.13Z"/><path class="cls-13" d="M209.49,207.46s-11.78,8.45,5.7,12.37,38.88-6.28,44.57-16.88C259.76,203,232.07,217.08,209.49,207.46Z"/><path class="cls-15" d="M214.2,183.5s-12,.59-14.72,9.82,2.35,12.37,2.35,12.37l8.45-10a110.78,110.78,0,0,1,50.07,9s12.77.59,3.14-12S214.2,183.5,214.2,183.5Z"/><path class="cls-8" d="M216.36,157.48s-26.11,18.46-7.26,30.64c0,0,4.91,5.5,17.08-2.36,0,0,4.13-4.51,12-.19s6.87-6.88,1.57-11.2"/><path class="cls-15" d="M325.65,84.83s-17.38-24.45-82.19-11.2l8.25-11.49S225.5,85.71,207.23,84.83s-24.45-15-24.45-15-7.65-13.25,13-29.75c14.33-11.46,104.87-41.24,158.77,10,0,0,30.93,25.33,14.73,51.55,0,0,19.44,32.1-14.73,66.86l-25,27.3s-2.74,21.7-14.24,19.14c-8.84-2,.29-19,.29-19l15.12-45.07-14.43,21.5-10-9.13s25.92-19.15,14.43-47.72-10.9-26.81-10.9-26.81Z"/><path class="cls-8" d="M317.7,159.24s19.53-15.71,23.89-.39-18.28,38.09-29.09,36.52c0,0-5.4.4-3.32-7.26"/><path class="cls-20" d="M336.4,166.41s-12.78-6.38-21.51,9.52A27.06,27.06,0,0,1,336.4,166.41Z"/><path class="cls-20" d="M322.79,168.57s1.87,7.66-6.34,13.84C316.45,182.41,328.61,178.39,322.79,168.57Z"/><path class="cls-21" d="M208.35,347.5s.32,16.56,65.61,22.09,78.18-1.09,78.18-1.09l-6.5,34.22s-85.65,14-142.49-18.84A122.09,122.09,0,0,1,208.35,347.5Z"/><path class="cls-4" d="M381.15,405.32s5.63-10.64,29.39.85"/><path class="cls-4" d="M340.27,320.82s1.53,25.81,23,58.78"/></g></svg>