<?xml version="1.0" encoding="utf-8"?>
<!-- Generator: Adobe Illustrator 25.2.3, SVG Export Plug-In . SVG Version: 6.00 Build 0)  -->
<svg version="1.1" id="Layer_1" xmlns="http://www.w3.org/2000/svg" xmlns:xlink="http://www.w3.org/1999/xlink" x="0px" y="0px"
	 viewBox="0 0 512 400" style="enable-background:new 0 0 512 400;" xml:space="preserve">
<style type="text/css">
	.st0{opacity:0.3;enable-background:new    ;}
	.st1{fill:#C7B286;}
	.st2{fill:#8D7A56;}
	.st3{fill:#DEDABD;}
	.st4{fill:#CEC8A5;}
	.st5{fill:#EBDDC0;}
	.st6{fill:#B59E74;}
	.st7{fill:#2C2923;}
	.st8{fill:#205F71;}
	.st9{fill:#BED4B9;}
	.st10{fill:#9B3B3C;}
	.st11{fill:#F6FBED;}
	.st12{fill:#3E3831;}
</style>
<ellipse class="st0" cx="256" cy="313" rx="193" ry="18"/>
<path class="st1" d="M403.7,83.7H112.1c-4,0-7.3-3.3-7.3-7.3l0,0c0-4,3.3-7.3,7.3-7.3h291.6c4,0,7.3,3.3,7.3,7.3l0,0
	C411,80.4,407.7,83.6,403.7,83.7z"/>
<path class="st2" d="M416.5,167.4H97.5c-6.4,0-11.6-5.2-11.6-11.6V85.7c0-6.4,5.2-11.6,11.6-11.7h318.9c6.4,0,11.6,5.2,11.6,11.6
	v70.1C428.1,162.2,422.9,167.4,416.5,167.4z M97.5,78.7c-3.9,0-7,3.1-7,7v70.1c0,3.9,3.1,7,7,7h318.9c3.9,0,7-3.1,7-7V85.7
	c0-3.9-3.1-7-7-7L97.5,78.7z"/>
<path class="st3" d="M88.7,132.6h336.6c9.2,0,16.6,7.4,16.6,16.6v142.1c0,9.2-7.4,16.6-16.6,16.6H88.7c-9.2,0-16.6-7.4-16.6-16.6
	V149.2C72.1,140,79.5,132.6,88.7,132.6z"/>
<polygon class="st4" points="156.1,172.6 200.6,196.5 257,196.5 313.4,196.5 357.9,172.6 156.1,172.6 "/>
<path class="st1" d="M212.2,186h89.7c6.4,0,11.5,5.2,11.5,11.6v50.2c0,6.4-5.2,11.6-11.5,11.6h-89.7c-6.4,0-11.6-5.2-11.6-11.6
	v-50.2C200.6,191.2,205.8,186,212.2,186z"/>
<rect x="200.6" y="206" class="st2" width="112.8" height="34.7"/>
<path class="st5" d="M227.5,201.5h59c4.6,0,8.3,3.7,8.3,8.3v26.4c0,4.6-3.7,8.3-8.3,8.3h-59c-4.6,0-8.3-3.7-8.3-8.3v-26.4
	C219.2,205.2,222.9,201.5,227.5,201.5z"/>
<path class="st6" d="M212.5,259.3h89.1c6.6,0,11.9,5.3,11.9,11.9v13.5c0,6.6-5.3,11.9-11.9,11.9h-89.1c-6.6,0-11.9-5.3-11.9-11.9
	v-13.5C200.6,264.6,205.9,259.3,212.5,259.3z"/>
<path class="st4" d="M132.6,132.6h248.8c6.7,0,12.2,5.4,12.2,12.2v15.7c0,6.7-5.4,12.2-12.2,12.2H132.6c-6.7,0-12.2-5.4-12.2-12.2
	v-15.7C120.4,138,125.9,132.6,132.6,132.6z"/>
<path class="st5" d="M135.2,136.1h243.6c6,0,10.9,4.9,10.9,10.9v11.2c0,6-4.9,10.9-10.9,10.9H135.2c-6,0-10.9-4.9-10.9-10.9V147
	C124.3,141,129.2,136.1,135.2,136.1z"/>
<path class="st7" d="M150.7,140.1h212.7c3.6,0,6.6,2.9,6.6,6.6v11.8c0,3.6-2.9,6.6-6.6,6.6H150.7c-3.6,0-6.6-2.9-6.6-6.6v-11.8
	C144.1,143.1,147,140.1,150.7,140.1z"/>
<path class="st4" d="M101.3,125.9h311.4c3.7,0,6.7,3,6.7,6.7l0,0l0,0H94.6l0,0l0,0C94.6,128.9,97.6,125.9,101.3,125.9z"/>
<path class="st2" d="M373.9,116h22.4c2.6,0,4.6,2.1,4.6,4.6v5.6l0,0h-31.7l0,0v-5.6C369.3,118.1,371.3,116,373.9,116L373.9,116z"/>
<path class="st7" d="M212.2,121.1h13.4c1.1,0,2,0.9,2,2v2.9c0,0.1-0.1,0.1-0.1,0.1h-17.1c-0.1,0-0.1-0.1-0.1-0.1v-2.9
	C210.1,122,211,121.1,212.2,121.1C212.1,121.1,212.1,121.1,212.2,121.1z"/>
<rect x="211.3" y="121.1" class="st8" width="15.1" height="2.6"/>
<path class="st7" d="M231.7,121.1H245c1.1,0,2,0.9,2,2v2.9c0,0.1-0.1,0.1-0.1,0.1h-17.1c-0.1,0-0.1-0.1-0.1-0.1v-2.9
	C229.6,122,230.5,121.1,231.7,121.1C231.6,121.1,231.6,121.1,231.7,121.1z"/>
<path class="st7" d="M251.1,121.1h13.4c1.1,0,2,0.9,2,2v2.9c0,0.1-0.1,0.1-0.1,0.1l0,0h-17.1c-0.1,0-0.1-0.1-0.1-0.1v-2.9
	C249,122,249.9,121.1,251.1,121.1C251,121.1,251,121.1,251.1,121.1z"/>
<path class="st7" d="M270.3,121.1h13.4c1.1,0,2,0.9,2,2v2.9c0,0.1-0.1,0.1-0.1,0.1l0,0h-17.1c-0.1,0-0.1-0.1-0.1-0.1c0,0,0,0,0,0
	v-2.9C268.2,122,269.1,121.1,270.3,121.1C270.2,121.1,270.2,121.1,270.3,121.1z"/>
<rect x="269.4" y="121.1" class="st9" width="15.1" height="2.6"/>
<path class="st7" d="M289.4,121.1h13.4c1.1,0,2,0.9,2,2v2.9c0,0.1-0.1,0.1-0.1,0.1l0,0h-17.1c-0.1,0-0.1-0.1-0.1-0.1c0,0,0,0,0,0
	v-2.9C287.3,122,288.2,121.1,289.4,121.1C289.3,121.1,289.4,121.1,289.4,121.1z"/>
<rect x="288.5" y="121.1" class="st10" width="15.1" height="2.6"/>
<path class="st1" d="M156.7,120.5h13.4c2,0,3.7,1.7,3.7,3.7v2l0,0H153l0,0v-2C153,122.2,154.7,120.5,156.7,120.5
	C156.7,120.5,156.7,120.5,156.7,120.5z"/>
<path class="st2" d="M120.6,117.2h9.9c3.2,0,5.8,2.6,5.8,5.8v3.3l0,0h-21.5l0,0V123C114.8,119.8,117.4,117.2,120.6,117.2
	C120.6,117.2,120.6,117.2,120.6,117.2z"/>
<ellipse transform="matrix(0.7071 -0.7071 0.7071 0.7071 -60.7084 338.3295)" class="st11" cx="378" cy="242.4" rx="56.6" ry="56.6"/>
<circle class="st7" cx="378" cy="242.4" r="50.4"/>
<ellipse transform="matrix(0.7071 -0.7071 0.7071 0.7071 -131.6043 167.1446)" class="st11" cx="136" cy="242.4" rx="56.6" ry="56.6"/>
<circle class="st7" cx="136" cy="242.4" r="50.4"/>
<circle class="st11" cx="418.3" cy="158.9" r="19.8"/>
<ellipse transform="matrix(0.7071 -0.7071 0.7071 0.7071 10.1915 342.3327)" class="st7" cx="418.3" cy="158.9" rx="16.3" ry="16.3"/>
<circle class="st11" cx="95.7" cy="158.9" r="19.8"/>
<ellipse transform="matrix(0.7071 -0.7071 0.7071 0.7071 -84.3014 114.1884)" class="st7" cx="95.7" cy="158.9" rx="16.3" ry="16.3"/>
<rect x="247.3" y="223" class="st12" width="19.4" height="6.5"/>
<circle class="st12" cx="276.3" cy="224.2" r="4.9"/>
<circle class="st12" cx="237.7" cy="224.2" r="4.9"/>
<path class="st4" d="M406.2,308h19.1l0,0v0.8c0,3.5-2.8,6.3-6.3,6.3c0,0,0,0,0,0h-6.5c-3.5,0-6.3-2.8-6.3-6.3L406.2,308L406.2,308z"
	/>
<path class="st4" d="M101.5,315H95c-3.5,0-6.3-2.8-6.3-6.3V308l0,0h19.1l0,0v0.8C107.8,312.2,104.9,315,101.5,315
	C101.5,315,101.5,315,101.5,315z"/>
<rect x="200.6" y="265.4" class="st2" width="112.8" height="3.8"/>
<rect x="200.6" y="286.6" class="st2" width="112.8" height="3.8"/>
<rect x="144.1" y="143.8" class="st2" width="225.8" height="17.6"/>
<rect x="277.7" y="143.8" class="st5" width="2.1" height="17.6"/>
<rect x="228.6" y="143.8" class="st7" width="2.6" height="6.1"/>
<rect x="217.7" y="143.8" class="st7" width="2.6" height="6.1"/>
<rect x="239.4" y="143.8" class="st7" width="2.6" height="6.1"/>
<rect x="250.3" y="143.8" class="st7" width="2.6" height="6.1"/>
<rect x="271.9" y="143.8" class="st7" width="2.6" height="6.1"/>
<rect x="261.1" y="143.8" class="st7" width="2.6" height="6.1"/>
<rect x="282.8" y="143.8" class="st7" width="2.6" height="6.1"/>
<rect x="293.6" y="143.8" class="st7" width="2.6" height="6.1"/>
</svg>
