<svg id="Layer_1" data-name="Layer 1" xmlns="http://www.w3.org/2000/svg" xmlns:xlink="http://www.w3.org/1999/xlink" viewBox="0 0 512 400"><defs><style>.cls-1,.cls-13,.cls-14,.cls-18,.cls-19,.cls-23,.cls-30{fill:#fff;}.cls-2{clip-path:url(#clip-path);}.cls-3{fill:url(#radial-gradient);}.cls-19,.cls-4{opacity:0.3;}.cls-5{fill:#5f5f5f;}.cls-6{fill:#06cebf;}.cls-7{fill:#193347;}.cls-8{fill:#b3b3b3;}.cls-9{fill:#8f8f8f;}.cls-10{opacity:0.07;}.cls-11{opacity:0.1;}.cls-12{fill:#0c8e81;}.cls-13{opacity:0.22;}.cls-14{opacity:0.38;}.cls-15{opacity:0.24;}.cls-16{fill:#484848;}.cls-17{fill:#303030;}.cls-18{opacity:0.2;}.cls-20{fill:#4d4d4d;}.cls-21{fill:#cfe5e3;}.cls-22{fill:#3b7c96;}.cls-23{opacity:0.4;}.cls-24,.cls-28{fill:none;stroke-miterlimit:10;}.cls-24{stroke:#5f5f5f;}.cls-25{fill:#204156;}.cls-26{fill:#8a8d9e;}.cls-27{opacity:0.54;}.cls-28{stroke:#484e6b;}.cls-29{fill:#f8f9ff;opacity:0.46;}.cls-30{opacity:0.39;}</style><clipPath id="clip-path"><circle class="cls-1" cx="-136" cy="-220" r="196.51"/></clipPath><radialGradient id="radial-gradient" cx="-132.96" cy="-8.01" r="311.91" gradientTransform="translate(0 -199.79) scale(1 1.09)" gradientUnits="userSpaceOnUse"><stop offset="0" stop-color="#d0f2fe"/><stop offset="0.18" stop-color="#8fe0fc"/><stop offset="0.44" stop-color="#60bef8"/><stop offset="0.75" stop-color="#39a3ee"/><stop offset="1" stop-color="#1f93e8"/></radialGradient></defs><circle class="cls-1" cx="-136" cy="-220" r="196.51"/><g class="cls-2"><rect class="cls-3" x="-378.95" y="-433.52" width="493.79" height="452.82"/></g><path class="cls-4" d="M493.5,331.11c-3.12,33.48-81.46,60-246,35-133.2-20.22-232.12-17.52-229-51s101.53-29.35,236-21C399.5,303.1,496.62,297.63,493.5,331.11Z"/><path class="cls-5" d="M57.22,52q-10.56-2.53-21.15-5l0-.79q11.61,2.66,23.18,5.48Z"/><path class="cls-6" d="M30,64.85v-.33c0-.1,0-.21,0-.32s0-.21,0-.32l.51-.7a13.67,13.67,0,0,1,.54-2.68,10.13,10.13,0,0,1,1-2.2,6,6,0,0,1,1.3-1.56A3.38,3.38,0,0,1,34.88,56l.44-.07,0-.8Q83,48.13,131,43.7v.86l.53,0a3.43,3.43,0,0,1,1.85.42A4.94,4.94,0,0,1,135,46.37a9,9,0,0,1,1.24,2.34A15.2,15.2,0,0,1,137,51.9l.54,0c0,.12,0,.24,0,.35s0,.24,0,.35,0,.24,0,.36v.36q-.47,131.25-1,262.51l-.51-.08v.88a14.54,14.54,0,0,1-.43,3.48,9.71,9.71,0,0,1-1.12,2.75,5.35,5.35,0,0,1-1.66,1.74,3.12,3.12,0,0,1-2,.47l-.49-.06v.86q-44.62-7-89.51-11.53v-.8l-.42-.05a3.18,3.18,0,0,1-1.71-.88,7,7,0,0,1-1.42-2,12.35,12.35,0,0,1-1-2.75,16.14,16.14,0,0,1-.42-3.26c0-.26,0-.53,0-.8l-.42,0Q32.76,184.46,30,65.18Z"/><path class="cls-7" d="M194.26,72.11c0,.1,0,.2,0,.3V73c0,.1,0,.2,0,.31q-2,112.53-4,225.05-24.12,7.58-48,15.83.74-129.49,1.39-259v-.71c0-.11,0-.23,0-.34s0-.24,0-.35Q169,62.61,194.26,72.11Z"/><path class="cls-8" d="M186.11,55a10.17,10.17,0,0,1,3.26,2.22A15.12,15.12,0,0,1,192,60.83a21.52,21.52,0,0,1,1.84,4.77,27.71,27.71,0,0,1,.86,5.66l0,.83q-25.22-9.51-50.62-18.3l-.06-1a31.61,31.61,0,0,0-1-6.47A24.5,24.5,0,0,0,141,41a16.42,16.42,0,0,0-3-4,10.73,10.73,0,0,0-3.64-2.39Q160.35,44.39,186.11,55Z"/><path class="cls-9" d="M144.14,53.79q25.41,8.79,50.62,18.3l-.5,0Q169,62.62,143.59,53.83Z"/><path class="cls-8" d="M137.28,332.41a17.25,17.25,0,0,0,2.84-4.38,27.31,27.31,0,0,0,1.89-5.87,36.79,36.79,0,0,0,.71-7v-.87q23.88-8.27,48-15.83v.75a29.79,29.79,0,0,1-.72,6.08,22.47,22.47,0,0,1-1.79,5.08,14.83,14.83,0,0,1-2.64,3.78,8.91,8.91,0,0,1-3.26,2.18q-24.39,9-48.52,18.64A10,10,0,0,0,137.28,332.41Z"/><path class="cls-10" d="M145.75,328.9a16.84,16.84,0,0,0,2.83-4.28,25.94,25.94,0,0,0,1.89-5.72,35,35,0,0,0,.71-6.83v-.85c15.92-5.37,23.42-7.39,39.48-12.31l0,.74a28.48,28.48,0,0,1-.72,5.93,21.7,21.7,0,0,1-1.79,4.95,14.2,14.2,0,0,1-2.63,3.69,9.13,9.13,0,0,1-3.27,2.13c-16.25,5.82-23.94,8.76-40,15A9.92,9.92,0,0,0,145.75,328.9Z"/><path class="cls-11" d="M36.36,301.42q-2.59-117-5.26-234v-.64c0-.1,0-.21,0-.32s0-.21,0-.31l-1.06.15c0-.71,0-1.43,0-2.14,0-.11,1.63.16,1.63,0v-.32c0-.11,0-.22,0-.33s0-.21,0-.32l.5-.69a14.4,14.4,0,0,1,.53-2.69,10.57,10.57,0,0,1,1-2.2,5.89,5.89,0,0,1,1.28-1.55,3.42,3.42,0,0,1,1.31-.7c0,.72,0,1.44,0,2.15Q83,50.77,130.05,46.4c0-1,0-2.1,0-3.16l1-.09V44l.51,0a3.37,3.37,0,0,1,1.83.41A5,5,0,0,1,135,45.81a9.41,9.41,0,0,1,1.23,2.35,15.14,15.14,0,0,1,.76,3.18l.53,0c0,.12,0,.23,0,.35s0,.23,0,.35,0,.24,0,.36v2l-1.13.09,0,.34c0,.11,0,.23,0,.34s0,.24,0,.35v.36q-.44,128.72-.93,257.42l1,.15v1.7l-1.33-.2q.5-128.7.93-257.42c0-.12,0-.24,0-.35s0-.24,0-.35,0-.23,0-.35l0-.34h0l-.51,0-.09-.66a12.2,12.2,0,0,0-.7-2.74,8.27,8.27,0,0,0-1.18-2.1,4.85,4.85,0,0,0-1.54-1.32,3.36,3.36,0,0,0-1.78-.39l-.51,0v-.85h0q-46.27,4.39-92.3,11.18h0l0,.78-.43.08a3.12,3.12,0,0,0-1.48.73,5.84,5.84,0,0,0-1.25,1.52,9.5,9.5,0,0,0-.93,2.16,13.75,13.75,0,0,0-.53,2.63l-.06.62-.43.06c0,.11,0,.21,0,.32s0,.21,0,.31v.64q2.13,118.08,4.24,236.15c-.47-.8-.95-1.6-1.43-2.4l0-1.52Z"/><path class="cls-12" d="M116.45,139.31a38.87,38.87,0,0,1-12.15,10.11,36.72,36.72,0,0,1-15.7,4.22,38,38,0,0,1-16.41-3A42.61,42.61,0,0,1,58.29,141a47.71,47.71,0,0,1-9.68-14.82,50.59,50.59,0,0,1-3.85-18.38,49.7,49.7,0,0,1,3-18.29,44.67,44.67,0,0,1,8.77-14.62,38.45,38.45,0,0,1,13-9.45,35.3,35.3,0,0,1,15.67-3,37.51,37.51,0,0,1,15.53,4.08,44,44,0,0,1,12.74,9.87,50,50,0,0,1,8.88,14.16,51.81,51.81,0,0,1,3.87,17.14,49.2,49.2,0,0,1-2.1,17.23A43.82,43.82,0,0,1,116.45,139.31Z"/><path class="cls-12" d="M114.35,279a37.86,37.86,0,0,1-11.8,9.81,35.61,35.61,0,0,1-15.25,4.1A36.94,36.94,0,0,1,71.37,290a41.25,41.25,0,0,1-13.49-9.34,46.17,46.17,0,0,1-9.41-14.39,49.19,49.19,0,0,1-3.74-17.85,48.43,48.43,0,0,1,2.9-17.76,43.59,43.59,0,0,1,8.51-14.2,37.65,37.65,0,0,1,12.58-9.17,34.33,34.33,0,0,1,15.22-2.89,36.36,36.36,0,0,1,15.08,4,42.6,42.6,0,0,1,12.37,9.58A48.31,48.31,0,0,1,120,231.66a50.18,50.18,0,0,1,3.77,16.65,47.63,47.63,0,0,1-2,16.73A42.41,42.41,0,0,1,114.35,279Z"/><path class="cls-13" d="M136.33,48.41l-107,148.26L30,243.82,142.58,85.2S144.47,49.09,136.33,48.41Z"/><path class="cls-14" d="M137.41,126.74,31.66,279.3l2.12,33.84L142.3,155.58S145.53,127.42,137.41,126.74Z"/><path class="cls-15" d="M77.33,199.82a16.15,16.15,0,0,0,7.08,1.76A15.24,15.24,0,0,0,91.35,200,17.33,17.33,0,0,0,97,195.6a21.06,21.06,0,0,0,3.73-6.59,24.26,24.26,0,0,0,1.34-8.12,25,25,0,0,0-1.43-8.22,23.16,23.16,0,0,0-3.84-6.87A19.62,19.62,0,0,0,91,161a16.65,16.65,0,0,0-7.1-2,15.36,15.36,0,0,0-7.14,1.34,17.06,17.06,0,0,0-5.85,4.35,20.48,20.48,0,0,0-3.9,6.73,23.81,23.81,0,0,0-1.33,8.38,25,25,0,0,0,1.62,8.46,23,23,0,0,0,4.1,6.93A19.3,19.3,0,0,0,77.33,199.82Z"/><path class="cls-16" d="M99.44,171.55a23.29,23.29,0,0,0-3.84-6.87,19.63,19.63,0,0,0-5.74-4.81,16.51,16.51,0,0,0-7.1-2,15.53,15.53,0,0,0-7.15,1.34,17.32,17.32,0,0,0-5.85,4.36,20.71,20.71,0,0,0-3.9,6.72,23.9,23.9,0,0,0-1.32,8.39,25,25,0,0,0,1.62,8.46A23.51,23.51,0,0,0,70.27,194a19.42,19.42,0,0,0,5.91,4.67,16,16,0,0,0,7.08,1.76,15.28,15.28,0,0,0,6.95-1.57,17.5,17.5,0,0,0,5.6-4.42,20.85,20.85,0,0,0,3.72-6.59,24,24,0,0,0,1.34-8.12A24.73,24.73,0,0,0,99.44,171.55Z"/><path class="cls-11" d="M99.44,171.55a23.29,23.29,0,0,0-3.84-6.87,19.87,19.87,0,0,0-5.21-4.5A20.08,20.08,0,0,1,94.45,164a23.13,23.13,0,0,1,3.85,6.86A25.25,25.25,0,0,1,99.73,179a24,24,0,0,1-1.34,8.12,20.85,20.85,0,0,1-3.72,6.59,17.5,17.5,0,0,1-5.6,4.42,15.41,15.41,0,0,1-6.95,1.58A16,16,0,0,1,75,198c-.34-.17-.67-.36-1-.55a17.28,17.28,0,0,0,2.14,1.28,16,16,0,0,0,7.08,1.76,15.28,15.28,0,0,0,6.95-1.57,17.5,17.5,0,0,0,5.6-4.42,20.85,20.85,0,0,0,3.72-6.59,24,24,0,0,0,1.34-8.12A24.73,24.73,0,0,0,99.44,171.55Z"/><path class="cls-17" d="M95.39,173.24a18,18,0,0,0-3-5.32,15.32,15.32,0,0,0-4.46-3.71,12.78,12.78,0,0,0-5.49-1.55,12,12,0,0,0-5.52,1.06,13.19,13.19,0,0,0-4.5,3.38,15.72,15.72,0,0,0-3,5.2,18.38,18.38,0,0,0-1,6.47,19.42,19.42,0,0,0,1.24,6.52,18.09,18.09,0,0,0,3.15,5.36,15.21,15.21,0,0,0,4.56,3.63,12.57,12.57,0,0,0,5.49,1.38,11.77,11.77,0,0,0,5.4-1.19,13.6,13.6,0,0,0,4.35-3.42,16.22,16.22,0,0,0,2.9-5.11,18.48,18.48,0,0,0,1-6.31A19.19,19.19,0,0,0,95.39,173.24Z"/><path class="cls-16" d="M83,171.56a6.15,6.15,0,0,1,2.66.73,7.24,7.24,0,0,1,2.17,1.79,8.78,8.78,0,0,1,1.47,2.57,9.42,9.42,0,0,1,.56,3.11,9,9,0,0,1-.5,3.07,7.81,7.81,0,0,1-1.42,2.49A6.61,6.61,0,0,1,85.77,187a5.84,5.84,0,0,1-2.63.56,6.07,6.07,0,0,1-2.65-.69,7.16,7.16,0,0,1-2.2-1.77,8.86,8.86,0,0,1-1.51-2.59,9.26,9.26,0,0,1-.58-3.14,9,9,0,0,1,.49-3.11,7.74,7.74,0,0,1,1.45-2.5,6.49,6.49,0,0,1,2.16-1.64A5.91,5.91,0,0,1,83,171.56Z"/><path class="cls-18" d="M79.44,185.8a8.72,8.72,0,0,1-1.51-2.58,9.37,9.37,0,0,1-.58-3.15,9,9,0,0,1,.49-3.11,7.74,7.74,0,0,1,1.45-2.5,6.49,6.49,0,0,1,2.16-1.64,5.91,5.91,0,0,1,2.65-.53,6.34,6.34,0,0,1,2.53.67,8.13,8.13,0,0,0-1-.67,6.15,6.15,0,0,0-2.66-.73,5.91,5.91,0,0,0-2.65.53,6.49,6.49,0,0,0-2.16,1.64,7.74,7.74,0,0,0-1.45,2.5,9,9,0,0,0-.49,3.11,9.26,9.26,0,0,0,.58,3.14,8.86,8.86,0,0,0,1.51,2.59,7.16,7.16,0,0,0,2.2,1.77l.05,0A6.88,6.88,0,0,1,79.44,185.8Z"/><path class="cls-19" d="M71.64,195A23.46,23.46,0,0,1,67.55,188a25,25,0,0,1-1.62-8.46,23.64,23.64,0,0,1,1.33-8.39,20.36,20.36,0,0,1,3.9-6.72A17.22,17.22,0,0,1,77,160.09a15.5,15.5,0,0,1,7.15-1.33,16.36,16.36,0,0,1,7.09,2l.63.37a17.24,17.24,0,0,0-2-1.29,16.51,16.51,0,0,0-7.1-2,15.53,15.53,0,0,0-7.15,1.34,17.32,17.32,0,0,0-5.85,4.36,20.71,20.71,0,0,0-3.9,6.72,23.9,23.9,0,0,0-1.32,8.39,25,25,0,0,0,1.62,8.46A23.51,23.51,0,0,0,70.27,194a19.63,19.63,0,0,0,4.74,4A20.16,20.16,0,0,1,71.64,195Z"/><path d="M109.84,279.11a35.88,35.88,0,0,1-11.43,9.17A32.39,32.39,0,0,1,84,291.73a33.44,33.44,0,0,1-14.84-3.47,38.77,38.77,0,0,1-12.31-9.65,45.54,45.54,0,0,1-8.28-14.44,50.12,50.12,0,0,1-2.85-17.62,49.19,49.19,0,0,1,3.38-17.3,42.77,42.77,0,0,1,8.51-13.59,35,35,0,0,1,12.14-8.52,31,31,0,0,1,14.38-2.27,33,33,0,0,1,14,4.44,40.28,40.28,0,0,1,11.25,9.85A47.73,47.73,0,0,1,116.91,233a51.28,51.28,0,0,1,2.92,16.44,48.44,48.44,0,0,1-2.55,16.32A42.07,42.07,0,0,1,109.84,279.11Z"/><path class="cls-16" d="M116.15,266.81a42.29,42.29,0,0,1-7.45,13.4,35.92,35.92,0,0,1-11.44,9.17,32.26,32.26,0,0,1-14.46,3.44A33.47,33.47,0,0,1,68,289.35a38.72,38.72,0,0,1-12.31-9.66,45.4,45.4,0,0,1-8.28-14.45,49.89,49.89,0,0,1-2.84-17.62,49,49,0,0,1,3.39-17.3,42.72,42.72,0,0,1,8.51-13.58,35.16,35.16,0,0,1,12.16-8.52A30.84,30.84,0,0,1,83,206a33.1,33.1,0,0,1,14,4.45,40.24,40.24,0,0,1,11.24,9.85,48,48,0,0,1,7.58,13.79,51.33,51.33,0,0,1,2.9,16.45A48.38,48.38,0,0,1,116.15,266.81Z"/><path class="cls-11" d="M116.15,266.81a42.29,42.29,0,0,1-7.45,13.4,37.4,37.4,0,0,1-6.72,6.3,37.87,37.87,0,0,0,5.13-5.08,43.14,43.14,0,0,0,7.58-13.61,49.28,49.28,0,0,0,2.6-16.59,51.86,51.86,0,0,0-2.94-16.72,48.69,48.69,0,0,0-7.69-14,40.84,40.84,0,0,0-11.43-10A33.5,33.5,0,0,0,81,205.94c-.37,0-.75-.06-1.12-.07q1.53,0,3.09.09a33.1,33.1,0,0,1,14,4.45,40.24,40.24,0,0,1,11.24,9.85,48,48,0,0,1,7.58,13.79,51.33,51.33,0,0,1,2.9,16.45A48.38,48.38,0,0,1,116.15,266.81Z"/><path class="cls-17" d="M110,264a35.28,35.28,0,0,1-6.29,11.18,29.69,29.69,0,0,1-9.58,7.59,26.82,26.82,0,0,1-12,2.79,27.68,27.68,0,0,1-12.3-3,32.38,32.38,0,0,1-10.18-8.06,38.23,38.23,0,0,1-6.85-12,42,42,0,0,1-2.36-14.6,40.93,40.93,0,0,1,2.76-14.34,35.79,35.79,0,0,1,7-11.31,29.52,29.52,0,0,1,10.08-7.14,26,26,0,0,1,12-2,27.49,27.49,0,0,1,11.72,3.64,33.55,33.55,0,0,1,9.44,8.2,39.62,39.62,0,0,1,6.35,11.54,42.69,42.69,0,0,1,2.42,13.78A40.72,40.72,0,0,1,110,264Z"/><path class="cls-20" d="M82.53,264.43a12.15,12.15,0,0,0,5.5-1.14,13.73,13.73,0,0,0,4.46-3.41,16,16,0,0,0,3-5.13,18.44,18.44,0,0,0,1.07-6.35,19.36,19.36,0,0,0-1.1-6.42,18.11,18.11,0,0,0-3-5.33A15.18,15.18,0,0,0,88,232.93a12.67,12.67,0,0,0-5.43-1.56,12,12,0,0,0-5.47,1,13.47,13.47,0,0,0-4.52,3.34,16.17,16.17,0,0,0-3.09,5.14,18.89,18.89,0,0,0-1.17,6.44,19.2,19.2,0,0,0,1.08,6.53,17.69,17.69,0,0,0,3,5.41A15,15,0,0,0,77,263,12.58,12.58,0,0,0,82.53,264.43Z"/><path class="cls-11" d="M95.46,254.75a16.32,16.32,0,0,1-2.41,4.43,17.6,17.6,0,0,0,1.15-2.53,19.7,19.7,0,0,0,1.14-6.74,20.64,20.64,0,0,0-1.17-6.82A19.23,19.23,0,0,0,91,237.42a16,16,0,0,0-4.69-3.95,13,13,0,0,0-7.77-1.6,11.87,11.87,0,0,1,4-.5A12.67,12.67,0,0,1,88,232.93a15.18,15.18,0,0,1,4.42,3.72,18.11,18.11,0,0,1,3,5.33,19.36,19.36,0,0,1,1.1,6.42A18.44,18.44,0,0,1,95.46,254.75Z"/><path class="cls-18" d="M72,238.11a19.81,19.81,0,0,0-1.25,6.9,20.37,20.37,0,0,0,1.16,7,18.81,18.81,0,0,0,3.26,5.8,16,16,0,0,0,4.86,4A13.49,13.49,0,0,0,86,263.34a12.22,12.22,0,0,0,2.19-.13l-.14.08a12.15,12.15,0,0,1-5.5,1.14A12.58,12.58,0,0,1,77,263a14.88,14.88,0,0,1-4.53-3.71,17.58,17.58,0,0,1-3-5.41,19.2,19.2,0,0,1-1.08-6.53,18.89,18.89,0,0,1,1.17-6.44,16.17,16.17,0,0,1,3.09-5.14,15.22,15.22,0,0,1,1.21-1.2A17.82,17.82,0,0,0,72,238.11Z"/><path class="cls-19" d="M58.68,215.68a42.86,42.86,0,0,0-8.5,13.59,49.28,49.28,0,0,0-3.37,17.3,50.08,50.08,0,0,0,2.85,17.62A45.57,45.57,0,0,0,58,278.63a38.84,38.84,0,0,0,12.32,9.65,33.43,33.43,0,0,0,14.84,3.46,32.33,32.33,0,0,0,12.66-2.63l-.51.27a32.26,32.26,0,0,1-14.46,3.44A33.47,33.47,0,0,1,68,289.35a38.72,38.72,0,0,1-12.31-9.66,45.4,45.4,0,0,1-8.28-14.45,49.89,49.89,0,0,1-2.84-17.62,49,49,0,0,1,3.39-17.3,42.72,42.72,0,0,1,8.51-13.58,35.12,35.12,0,0,1,11.71-8.32A35.72,35.72,0,0,0,58.68,215.68Z"/><path class="cls-21" d="M116.18,233.88a48.36,48.36,0,0,0-7.66-13.95,40.71,40.71,0,0,0-11.37-10A33.48,33.48,0,0,0,83,205.47a31.31,31.31,0,0,0-14.55,2.29,35.67,35.67,0,0,0-12.29,8.61,43.44,43.44,0,0,0-8.61,13.74,49.82,49.82,0,0,0-3.43,17.49A51,51,0,0,0,47,265.42,46.12,46.12,0,0,0,55.36,280a39.35,39.35,0,0,0,12.45,9.77,33.89,33.89,0,0,0,15,3.51,32.79,32.79,0,0,0,14.61-3.48A36.29,36.29,0,0,0,109,280.55,42.76,42.76,0,0,0,116.54,267a49,49,0,0,0,2.58-16.5A51.85,51.85,0,0,0,116.18,233.88ZM71.91,215.29l-4,4-4.33-4.57a32.09,32.09,0,0,1,5-3ZM48.14,241.44l3.79-3.78,3.84,4-4,4-3.67-3.8C48.09,241.73,48.11,241.59,48.14,241.44Zm2.1,23.2c-.42-1.18-.79-2.38-1.11-3.61l2.31-2.32,3.84,3.94-4,4-.42-.43C50.63,265.72,50.43,265.18,50.24,264.64Zm32.31,23.5,3.94-4,3.7,3.83-2.28,2.3a29.58,29.58,0,0,1-3,.28Zm28.58-31.22-3.91,3.94L103.55,257l3.92-4Zm-2.42-5.13,3.91-3.94,3.65,3.89-3.91,3.94ZM72.07,256l-3.79-3.94,4-4L76.05,252Zm5.17-2.75L81,257.19l-4,4-3.76-3.91Zm-3.7-6.45,4-4,3.76,3.95-4,4ZM82.47,248,86.21,252l-4,4L78.5,252Zm4.92,5.16,3.72,3.91-4,4-3.73-3.9Zm-3.67-6.42,4-4,3.73,3.94-4,4Zm8.87,1.2,3.71,3.91-4,4-3.71-3.91Zm4.88,5.15,3.68,3.89-3.93,4-3.7-3.89ZM96,262.22l-3.93,4-3.72-3.88,4-4Zm-5.18,5.21-3.94,4-3.73-3.87,4-4ZM82,266.3l-3.74-3.89,4-4,3.73,3.9Zm-1.25,1.26-4,4L73,267.65l4-4Zm-8.91-1.14L68,262.52l4-4,3.77,3.91Zm-5-5.14L63,257.35l4-4,3.79,3.93Zm-5-5.17-3.82-4,4-4,3.8,3.95Zm1.46-9.23,4-4,3.8,4-4,4Zm5.28-5.27,4-4,3.78,4-4,4Zm5.26-5.25,4-4,3.77,4-4,4Zm8.94,1.23,3.75,4-4,4-3.76-3.95ZM84,236.34l4-4,3.74,4-4,4Zm8.88,1.23,3.71,3.94-3.94,4-3.73-3.94Zm4.88,5.18,3.7,3.93-3.94,3.95-3.7-3.91Zm4.86,5.16,3.68,3.9-3.93,3.95-3.68-3.89Zm3.34,14.2-3.91,3.95-3.68-3.87,3.92-4Zm-5.15,5.2-3.92,3.95-3.7-3.86,3.94-4Zm-5.16,5.2-3.93,4L88,272.62l3.94-4Zm-5.17,5.22-3.94,4-3.72-3.85,4-4Zm-8.84-1.1-3.73-3.86,3.95-4,3.73,3.87Zm-1.24,1.26-4,4L72.71,278l4-4Zm-8.9-1.1-3.77-3.88,4-4,3.76,3.89Zm-5-5.11-3.79-3.9,4-4,3.78,3.9Zm-5-5.13-3.81-3.92,4-4,3.8,3.93Zm-5-5.16-3.84-3.95,4-4,3.82,4ZM53,246.94l4-4,3.83,4-4,4Zm5.3-5.29,4-4,3.81,4-4,4Zm5.29-5.28,4-4,3.8,4-4,4Zm5.28-5.26,4-4,3.79,4-4,4Zm5.27-5.26,4-4,3.77,4-4,4Zm9,1.27,3.75,4-4,4-3.77-4Zm1.26-1.25,4-4,3.74,4-4,4Zm8.89,1.26,3.73,4-4,4-3.73-4Zm4.9,5.22,3.7,4-4,4-3.71-3.94Zm4.86,5.2,3.68,3.93-3.93,4L99,241.5Zm4.84,5.16,3.66,3.91-3.92,3.95-3.67-3.91Zm1.24-1.24,3.92-3.95,3.35,3.6c0,.17.07.34.1.51l-3.71,3.75Zm7.74,2.18a48,48,0,0,1,.6,6.73l-3.53-3.77Zm.58,9.35a46.28,46.28,0,0,1-.79,7.16l-3.07-3.26Zm-1.45,9-3.9,3.94-3.65-3.86,3.91-3.94Zm-5.13,5.18-3.91,3.95-3.66-3.85,3.92-3.95Zm-5.14,5.19-3.91,3.95-3.67-3.84,3.92-4Zm-.83,9.7a33.65,33.65,0,0,1-4.4,3.44l-2.67-2.78,3.91-4Zm-8.23-.54-3.69-3.84,3.93-4,3.68,3.84Zm-1.24,1.25-3.92,4-3.7-3.83,3.93-4Zm-3.69,6.72-.82.22.52-.53Zm-10.29-2.57-3.73-3.84,4-4L85.32,283Zm-1.24,1.26-1.94,1.95a32.72,32.72,0,0,1-5.43-1.46l-.33-.35,4-4Zm-12.65-4.92,4-4,3.76,3.85-4,4Zm-1.19-1.22-3.79-3.87,4-4,3.78,3.88Zm-5-5.1-3.81-3.89,4-4,3.8,3.9Zm-5-5.12-3.83-3.92,4-4,3.81,3.92Zm-7.65-12.78c-.28-1.28-.51-2.59-.68-3.91l2.26,2.33Zm-1-6.85,4-4,3.84,4-4,4-3.82-3.94Zm5.52-15.81,4-4,3.83,4-4,4Zm5.31-5.28,4-4,3.82,4-4,4Zm5.3-5.28,4-4,3.81,4-4,4Zm9.3-9.27,3.8,4-4,4-3.8-4Zm1.27-1.26,4-4,3.78,4-4,4Zm9,1.31,3.76,4-4,4-3.77-4Zm1.26-1.26,4-4,3.75,4-4,4ZM90,210a33,33,0,0,1,5.53,2.23l-1.92,1.91-3.74-4Zm7.26,10.66-4,4-3.73-4,4-4Zm1.18,1.26,3.7,4-3.95,3.95-3.71-4Zm1.24-1.25,3.27-3.27a39.87,39.87,0,0,1,3.78,3.9l-3.34,3.35ZM107,231.1l-3.94,4-3.7-4,4-3.95Zm1.16,1.25,3.66,3.94-3.92,3.94-3.68-3.93Zm1.24-1.25,2.37-2.38a45.7,45.7,0,0,1,2.4,5.21L113.05,235Zm5.41,4.58c.22.62.42,1.26.61,1.89l-1.2-1.29Zm.2,30.44c-.25.72-.51,1.43-.79,2.13l-1-1.1,2.23-2.25C115.27,265.31,115.14,265.72,115,266.12Zm-4.34,9L108,272.34l3.9-3.94,1.51,1.6A39.14,39.14,0,0,1,110.66,275.1ZM108,278.73c-.61.74-1.25,1.44-1.91,2.12l-3.17-3.32,3.9-3.95,2.85,3C109.12,277.32,108.56,278,108,278.73ZM93.53,288.92l-.94-1,3.92-4,2.38,2.48c-.55.31-1.11.62-1.68.9A29.86,29.86,0,0,1,93.53,288.92Zm-13.25,1.51,1-1,1.16,1.18C81.73,290.56,81,290.51,80.28,290.43Zm-14.59-5.36.54-.54,2.06,2.11C67.4,286.15,66.54,285.63,65.69,285.07Zm-5.53-4.54,1.09-1.09L65,283.31l-.75.76A37.22,37.22,0,0,1,60.16,280.53ZM58,278.24A39.4,39.4,0,0,1,55.55,275l.69-.7,3.81,3.9L59,279.29C58.66,279,58.34,278.6,58,278.24Zm-4.87-7.05,1.86,1.9-.46.47C54.08,272.79,53.61,272,53.17,271.19Zm-5.6-23.14c0-1.31.1-2.6.22-3.87L50.47,247l-2.9,2.89C47.56,249.24,47.56,248.65,47.57,248.05Zm2-12.84,1.15,1.19-2,2C49,237.3,49.25,236.24,49.56,235.21Zm1.2-3.44a43.9,43.9,0,0,1,1.91-4.17L56,231.11l-4,4-1.78-1.86C50.38,232.76,50.56,232.26,50.76,231.77Zm6.12-10.61,4.45,4.67-4,4L53.59,226A39.06,39.06,0,0,1,56.88,221.16Zm1.9-2.19a35.71,35.71,0,0,1,3.37-3.15l4.48,4.73-4,4-4.55-4.79Zm17.61-9.8.8.86-4,4-2.91-3.09A29.4,29.4,0,0,1,76.39,209.17Zm10.18,0,.85.91-4,4-3.78-4L81,208.74a26.09,26.09,0,0,1,2.79.09C84.71,208.9,85.64,209,86.57,209.19Zm15.06,7.09-3.13,3.13-3.72-4,2.31-2.31A36,36,0,0,1,101.63,216.28Zm9.26,10.9-2.66,2.68-3.69-4,3.26-3.26A43.65,43.65,0,0,1,110.89,227.18Z"/><path class="cls-19" d="M57.72,215.36a37.3,37.3,0,0,1,6.15-5.28,36.77,36.77,0,0,0-7.72,6.29,43.44,43.44,0,0,0-8.61,13.74,49.82,49.82,0,0,0-3.43,17.49A51,51,0,0,0,47,265.42,46.12,46.12,0,0,0,55.36,280a39.35,39.35,0,0,0,12.45,9.77,33.89,33.89,0,0,0,15,3.51,32.79,32.79,0,0,0,14.61-3.48,34.76,34.76,0,0,0,4-2.35c-.79.48-1.6.93-2.42,1.34a32.67,32.67,0,0,1-14.62,3.48,33.88,33.88,0,0,1-15-3.51A39.21,39.21,0,0,1,56.93,279a46,46,0,0,1-8.38-14.61,50.75,50.75,0,0,1-2.87-17.82,49.82,49.82,0,0,1,3.43-17.49A43.08,43.08,0,0,1,57.72,215.36Z"/><path d="M112.76,139.89a37.46,37.46,0,0,1-11.93,9.56,33.54,33.54,0,0,1-15.07,3.6,34.86,34.86,0,0,1-15.48-3.61,40.58,40.58,0,0,1-12.84-10.07A47.31,47.31,0,0,1,48.8,124.3a52.21,52.21,0,0,1-3-18.38,51.5,51.5,0,0,1,3.52-18,44.67,44.67,0,0,1,8.88-14.18A36.55,36.55,0,0,1,70.9,64.81a32.28,32.28,0,0,1,15-2.37,34.47,34.47,0,0,1,14.6,4.64,41.73,41.73,0,0,1,11.73,10.27,49.88,49.88,0,0,1,7.91,14.38,53.63,53.63,0,0,1,3,17.16,51,51,0,0,1-2.65,17A44.31,44.31,0,0,1,112.76,139.89Z"/><path class="cls-16" d="M119.35,127.06a44.07,44.07,0,0,1-7.78,14,37.42,37.42,0,0,1-11.94,9.57,33.71,33.71,0,0,1-15.08,3.59,34.87,34.87,0,0,1-15.48-3.62,40.37,40.37,0,0,1-12.84-10.08,47.31,47.31,0,0,1-8.64-15.07,52.21,52.21,0,0,1-3-18.38,51.4,51.4,0,0,1,3.53-18,44.58,44.58,0,0,1,8.89-14.18,36.42,36.42,0,0,1,12.67-8.88,32.19,32.19,0,0,1,15-2.36,34.51,34.51,0,0,1,14.61,4.64A42,42,0,0,1,111.07,78.5,49.62,49.62,0,0,1,119,92.88,53.4,53.4,0,0,1,122,110,50.7,50.7,0,0,1,119.35,127.06Z"/><path class="cls-11" d="M119.35,127.06a44.07,44.07,0,0,1-7.78,14,38.19,38.19,0,0,1-7,6.57,39.89,39.89,0,0,0,5.35-5.29,44.82,44.82,0,0,0,7.91-14.2,51.61,51.61,0,0,0,2.72-17.3,54.17,54.17,0,0,0-3.08-17.44,50.43,50.43,0,0,0-8-14.63A42.69,42.69,0,0,0,97.52,68.28a35.14,35.14,0,0,0-14.84-4.73l-1.17-.07a31.66,31.66,0,0,1,3.22.1,34.51,34.51,0,0,1,14.61,4.64A42,42,0,0,1,111.07,78.5,49.62,49.62,0,0,1,119,92.88,53.4,53.4,0,0,1,122,110,50.7,50.7,0,0,1,119.35,127.06Z"/><path class="cls-17" d="M112.89,124.14a37.06,37.06,0,0,1-6.55,11.66,31.17,31.17,0,0,1-10,7.92,27.91,27.91,0,0,1-12.56,2.91,29.07,29.07,0,0,1-12.84-3.1,33.82,33.82,0,0,1-10.61-8.41,39.76,39.76,0,0,1-7.14-12.51,43.67,43.67,0,0,1-2.47-15.24,42.73,42.73,0,0,1,2.88-15,37.06,37.06,0,0,1,7.32-11.79,30.46,30.46,0,0,1,10.52-7.45,26.92,26.92,0,0,1,12.51-2,28.76,28.76,0,0,1,12.23,3.8A35.07,35.07,0,0,1,106,83.47a41.6,41.6,0,0,1,6.63,12,44.3,44.3,0,0,1,2.51,14.38A42.13,42.13,0,0,1,112.89,124.14Z"/><path class="cls-20" d="M84.27,124.57A12.64,12.64,0,0,0,90,123.38a14.25,14.25,0,0,0,4.65-3.55,16.9,16.9,0,0,0,3.1-5.36,19.25,19.25,0,0,0,1.12-6.62,20.13,20.13,0,0,0-1.16-6.69,18.77,18.77,0,0,0-3.1-5.57A15.88,15.88,0,0,0,90,91.71a13.13,13.13,0,0,0-5.67-1.62,12.49,12.49,0,0,0-5.71,1.07,14.18,14.18,0,0,0-4.71,3.48A17,17,0,0,0,70.7,100a19.23,19.23,0,0,0-1.22,6.71,20.12,20.12,0,0,0,1.12,6.82,18.42,18.42,0,0,0,3.17,5.64,15.77,15.77,0,0,0,4.73,3.87A13,13,0,0,0,84.27,124.57Z"/><path class="cls-11" d="M97.76,114.47a16.78,16.78,0,0,1-2.51,4.63,18,18,0,0,0,1.19-2.64,20.4,20.4,0,0,0,1.19-7,21.32,21.32,0,0,0-1.22-7.11,19.81,19.81,0,0,0-3.3-5.91,16.7,16.7,0,0,0-4.89-4.13,13.87,13.87,0,0,0-6-1.72,13,13,0,0,0-2.08.06,12.36,12.36,0,0,1,4.22-.52A13.13,13.13,0,0,1,90,91.71a15.88,15.88,0,0,1,4.61,3.88,18.77,18.77,0,0,1,3.1,5.57,20.13,20.13,0,0,1,1.16,6.69A19.25,19.25,0,0,1,97.76,114.47Z"/><path class="cls-18" d="M73.3,97.11a20.83,20.83,0,0,0-1.3,7.2,21.4,21.4,0,0,0,1.21,7.31,19.9,19.9,0,0,0,3.4,6,16.71,16.71,0,0,0,5.07,4.14,13.91,13.91,0,0,0,8.47,1.5l-.14.07a12.64,12.64,0,0,1-5.74,1.19,13,13,0,0,1-5.77-1.52,15.77,15.77,0,0,1-4.73-3.87,18.42,18.42,0,0,1-3.17-5.64,20.12,20.12,0,0,1-1.12-6.82A19.23,19.23,0,0,1,70.7,100a17,17,0,0,1,3.22-5.37,14.72,14.72,0,0,1,1.26-1.24A19,19,0,0,0,73.3,97.11Z"/><path class="cls-19" d="M59.39,73.71A44.87,44.87,0,0,0,50.52,87.9a51.44,51.44,0,0,0-3.52,18,52.53,52.53,0,0,0,3,18.39,47.58,47.58,0,0,0,8.65,15.06,40.45,40.45,0,0,0,12.85,10.06A34.66,34.66,0,0,0,87,153.06a33.43,33.43,0,0,0,13.21-2.74l-.54.28a33.71,33.71,0,0,1-15.08,3.59,34.87,34.87,0,0,1-15.48-3.62,40.37,40.37,0,0,1-12.84-10.08,47.31,47.31,0,0,1-8.64-15.07,52.21,52.21,0,0,1-3-18.38,51.4,51.4,0,0,1,3.53-18,44.58,44.58,0,0,1,8.89-14.18,36.67,36.67,0,0,1,12.2-8.68A37.58,37.58,0,0,0,59.39,73.71Z"/><path class="cls-21" d="M119.37,92.7a50.12,50.12,0,0,0-8-14.54,42.55,42.55,0,0,0-11.86-10.4,34.93,34.93,0,0,0-14.77-4.69,32.64,32.64,0,0,0-15.18,2.39,37,37,0,0,0-12.82,9,45.22,45.22,0,0,0-9,14.33A51.87,51.87,0,0,0,44.19,107a52.94,52.94,0,0,0,3,18.59,48.08,48.08,0,0,0,8.74,15.24,41,41,0,0,0,13,10.19,35.33,35.33,0,0,0,15.66,3.66,34.06,34.06,0,0,0,15.25-3.63,37.94,37.94,0,0,0,12.07-9.67,44.6,44.6,0,0,0,7.86-14.14,51.22,51.22,0,0,0,2.69-17.2A54,54,0,0,0,119.37,92.7ZM73.19,73.31,69,77.48l-4.51-4.77a32.83,32.83,0,0,1,5.19-3.13Zm-24.8,27.28,4-3.94,4,4.17L52.15,105l-3.83-4C48.34,100.9,48.37,100.74,48.39,100.59Zm2.19,24.21c-.43-1.23-.82-2.49-1.16-3.77l2.42-2.42,4,4.11-4.19,4.19-.44-.44C51,125.91,50.78,125.36,50.58,124.8Zm33.71,24.51,4.11-4.15,3.86,4-2.38,2.4a29.11,29.11,0,0,1-3.13.29Zm29.81-32.57L110,120.85l-3.83-4,4.09-4.12Zm-2.52-5.35,4.08-4.11,3.8,4.06-4.07,4.1ZM73.36,115.8l-4-4.11,4.17-4.17,3.93,4.12Zm5.39-2.87L82.67,117l-4.14,4.16-3.93-4.09Zm-3.86-6.72,4.16-4.16L83,106.17l-4.15,4.15Zm9.32,1.25,3.9,4.1L84,115.71l-3.91-4.09Zm5.13,5.39,3.88,4.08-4.12,4.14L85.21,117Zm-3.83-6.7L89.65,102l3.89,4.11-4.13,4.14Zm9.25,1.25,3.87,4.08-4.11,4.14-3.88-4.08Zm5.09,5.37,3.85,4.06L99.6,121l-3.86-4Zm-1.55,9.5-4.1,4.13-3.88-4.05,4.12-4.14Zm-5.4,5.44-4.12,4.14-3.88-4L89,123.66Zm-9.23-1.18-3.91-4.07,4.14-4.15,3.9,4.07Zm-1.31,1.31L78.23,132l-3.92-4.05,4.14-4.16Zm-9.29-1.19-3.94-4.07,4.16-4.17,3.93,4.08Zm-5.19-5.36-4-4.1L68.09,113l4,4.11Zm-5.21-5.4-4-4.12,4.19-4.18,4,4.12Zm1.52-9.62,4.18-4.18,4,4.13-4.17,4.18Zm5.5-5.5,4.17-4.17,4,4.14-4.16,4.17Zm5.49-5.48,4.17-4.17,3.93,4.15-4.16,4.16Zm9.33,1.29,3.91,4.12-4.14,4.16-3.92-4.13Zm1.31-1.31L90,91.12l3.89,4.13L89.73,99.4Zm9.27,1.28L99,100.67l-4.12,4.13L91,100.69Zm5.09,5.41,3.86,4.09-4.11,4.13-3.86-4.09Zm5.07,5.38,3.83,4.07L105,115.53l-3.84-4.06Zm3.49,14.81-4.09,4.13-3.84-4,4.1-4.13Zm-5.38,5.43-4.09,4.12-3.86-4,4.11-4.13ZM98,133l-4.1,4.13-3.86-4L94.12,129Zm-5.39,5.44-4.11,4.14-3.88-4,4.12-4.15Zm-9.22-1.15-3.89-4,4.13-4.15,3.88,4Zm-1.3,1.32-4.13,4.15-3.91-4,4.14-4.17Zm-9.28-1.15-3.93-4.05L73,129.25l3.93,4.06Zm-5.18-5.33-3.95-4.07,4.17-4.18L71.76,128Zm-5.2-5.36-4-4.09,4.18-4.18,4,4.1Zm-5.24-5.38-4-4.11,4.19-4.2,4,4.12Zm-3.74-15.08,4.2-4.19,4,4.15-4.19,4.19ZM59,100.81l4.19-4.19,4,4.16L62.94,105Zm5.51-5.51,4.19-4.17,4,4.16-4.18,4.17ZM70,89.81l4.19-4.17,4,4.17L73.93,94Zm5.5-5.49,4.18-4.16,3.93,4.18L79.42,88.5Zm9.35,1.33,3.92,4.16L84.59,94l-3.93-4.15Zm1.31-1.31,4.16-4.15,3.9,4.16L90,88.5Zm9.29,1.33,3.88,4.14L95.17,94l-3.89-4.14Zm5.1,5.44,3.86,4.12-4.12,4.13-3.87-4.11Zm5.07,5.42,3.84,4.1-4.1,4.12-3.85-4.09Zm5,5.39,3.82,4.07-4.09,4.12L106.54,106Zm1.29-1.3L116,96.51l3.49,3.74.12.54-3.88,3.91ZM120,102.9a50.6,50.6,0,0,1,.63,7L117,106Zm.61,9.75a49.06,49.06,0,0,1-.83,7.47l-3.2-3.4ZM119.1,122,115,126.15l-3.8-4L115.3,118Zm-5.35,5.41-4.07,4.11-3.82-4,4.08-4.12Zm-5.36,5.41L104.31,137l-3.83-4,4.09-4.12ZM107.52,143a35,35,0,0,1-4.59,3.59l-2.78-2.9,4.08-4.13Zm-8.58-.57-3.85-4,4.1-4.13,3.83,4Zm-1.3,1.3-4.09,4.14-3.86-4,4.11-4.14Zm-3.85,7-.86.22.55-.54Zm-10.73-2.68-3.89-4,4.12-4.15,3.89,4Zm-1.3,1.31-2,2a32.62,32.62,0,0,1-5.66-1.52l-.35-.36,4.13-4.16Zm-13.19-5.13,4.14-4.17,3.92,4-4.13,4.17ZM67.33,143l-3.95-4.05,4.16-4.17,3.93,4Zm-5.2-5.32-4-4.07,4.17-4.18,4,4.07Zm-5.23-5.35-4-4.09L57.1,124l4,4.09Zm-8-13.33c-.29-1.34-.52-2.7-.7-4.07l2.35,2.42Zm-1-7.14,4.18-4.17,4,4.14L51.9,116l-4-4.1Zm5.76-16.49,4.21-4.2,4,4.18-4.2,4.19Zm5.54-5.52,4.2-4.18,4,4.18L63.21,94Zm5.53-5.5,4.2-4.18,4,4.19-4.19,4.17Zm9.71-9.67,4,4.2L74.22,83l-4-4.19Zm1.32-1.32L80,69.16l3.94,4.2-4.17,4.16Zm9.36,1.37,3.92,4.18L84.9,83,81,78.85Zm1.32-1.31,4.15-4.15,3.91,4.19-4.15,4.15Zm5.6-5.59a33.49,33.49,0,0,1,5.77,2.33l-2,2-3.9-4.19Zm7.58,11.12-4.14,4.14L91.6,78.88l4.14-4.14Zm1.22,1.31,3.87,4.15L100.6,88.5l-3.88-4.14Zm1.3-1.3,3.41-3.41a41,41,0,0,1,3.94,4.07L106,83.07Zm7.63,10.89-4.11,4.12-3.85-4.12,4.12-4.13Zm1.21,1.3,3.83,4.1-4.09,4.12-3.84-4.1Zm1.3-1.3,2.47-2.49a47.88,47.88,0,0,1,2.51,5.43l-1.16,1.17Zm5.65,4.77q.33,1,.63,2l-1.26-1.35Zm.2,31.76c-.25.75-.53,1.49-.83,2.22l-1.08-1.15,2.33-2.34C118.42,125.49,118.29,125.92,118.14,126.34Zm-4.53,9.36-2.73-2.88,4.07-4.11,1.58,1.67A40.09,40.09,0,0,1,113.61,135.7Zm-2.79,3.8c-.63.76-1.3,1.5-2,2.2l-3.31-3.46,4.07-4.12,3,3.12C112,138,111.43,138.77,110.82,139.5ZM95.75,150.12l-1-1L98.86,145l2.48,2.58c-.58.33-1.16.65-1.76.95A32.32,32.32,0,0,1,95.75,150.12ZM81.92,151.7,83,150.62l1.21,1.24C83.43,151.83,82.67,151.78,81.92,151.7ZM66.7,146.1l.56-.56,2.15,2.2C68.49,147.24,67.59,146.69,66.7,146.1Zm-5.77-4.73,1.13-1.14,4,4-.79.8A40.59,40.59,0,0,1,60.93,141.37ZM58.72,139c-.92-1.07-1.78-2.2-2.6-3.37l.72-.72,4,4-1.12,1.13C59.36,139.72,59,139.36,58.72,139Zm-5.08-7.36,1.94,2-.48.48C54.59,133.29,54.1,132.47,53.64,131.63ZM47.8,107.49c0-1.37.1-2.71.23-4l2.79,2.89-3,3Q47.79,108.42,47.8,107.49Zm2.08-13.4,1.19,1.24L49,97.4C49.25,96.27,49.55,95.17,49.88,94.09Zm1.24-3.59a46.41,46.41,0,0,1,2-4.34l3.5,3.65L52.4,94l-1.86-1.94C50.73,91.54,50.92,91,51.12,90.5Zm6.39-11.07,4.64,4.87L58,88.49l-3.88-4A41.42,41.42,0,0,1,57.51,79.43Zm2-2.28A36.18,36.18,0,0,1,63,73.87l4.67,4.93L63.48,83l-4.75-5ZM77.86,66.93l.84.9L74.52,72l-3-3.22A30.66,30.66,0,0,1,77.86,66.93Zm10.62,0,.89,1-4.16,4.15-3.94-4.21,1.37-1.36a28.57,28.57,0,0,1,2.92.09C86.54,66.65,87.52,66.78,88.48,67Zm15.72,7.39-3.27,3.27-3.88-4.18L99.46,71A38,38,0,0,1,104.2,74.34Zm9.65,11.38-2.77,2.79-3.85-4.13,3.4-3.41A45,45,0,0,1,113.85,85.72Z"/><path class="cls-19" d="M58.39,73.38a38.71,38.71,0,0,1,6.42-5.5,38,38,0,0,0-8.06,6.56,45.22,45.22,0,0,0-9,14.33A51.87,51.87,0,0,0,44.19,107a52.94,52.94,0,0,0,3,18.59,48.08,48.08,0,0,0,8.74,15.24,41,41,0,0,0,13,10.19,35.33,35.33,0,0,0,15.66,3.66,34.06,34.06,0,0,0,15.25-3.63,36.14,36.14,0,0,0,4.15-2.45c-.82.5-1.66,1-2.52,1.39a34.17,34.17,0,0,1-15.25,3.64A35.2,35.2,0,0,1,70.55,150a40.74,40.74,0,0,1-13-10.18,48.08,48.08,0,0,1-8.74-15.24,52.72,52.72,0,0,1-3-18.6A51.86,51.86,0,0,1,49.4,87.72,45.29,45.29,0,0,1,58.39,73.38Z"/><path class="cls-9" d="M30.5,300.91v.78a37.69,37.69,0,0,0,1,7.85,29.43,29.43,0,0,0,2.39,6.62,17,17,0,0,0,3.43,4.71,7.62,7.62,0,0,0,4.13,2.1l.42.06v-.79c-.08-3.5-.15-7-.22-10.49,0-.26,0-.52,0-.78l-.41-.05a3.12,3.12,0,0,1-1.67-.87,6.76,6.76,0,0,1-1.4-1.92,12.22,12.22,0,0,1-1-2.7,14.73,14.73,0,0,1-.4-3.19c0-.26,0-.52,0-.78l-.41,0L30.9,301Z"/><path class="cls-9" d="M36.05,46.29l-.45.07a8.25,8.25,0,0,0-4.06,2.08,15.82,15.82,0,0,0-3.32,4.37,27,27,0,0,0-2.3,6.11,35,35,0,0,0-1,7.3l0,.86.44-.06,5.78-.83.44-.06.06-.62a14,14,0,0,1,.53-2.64,10.64,10.64,0,0,1,1-2.15,6.35,6.35,0,0,1,1.27-1.53,3.42,3.42,0,0,1,1.51-.73l.43-.08,0-.78c-.07-3.51-.15-7-.22-10.52Z"/><path class="cls-22" d="M25.34,67.65V67l5.78-.83c0,.1,0,.21,0,.31s0,.22,0,.32v.64q2.67,117,5.26,234L30.9,301Q28.16,184.61,25.35,68.28c0-.1,0-.21,0-.31Z"/><path class="cls-22" d="M129.47,334.47q-43.66-7.26-87.59-12.23c-.08-3.5-.15-7-.22-10.49q44,4.5,87.83,11.31C129.48,326.87,129.48,330.67,129.47,334.47Z"/><path class="cls-22" d="M130.05,46.4Q83,50.77,36.29,57.6c-.07-3.51-.15-7-.22-10.52q46.84-7.3,94-12.14Q130.07,40.67,130.05,46.4Z"/><path class="cls-22" d="M143.6,54.18c0,.11,0,.23,0,.34v.71q-.66,129.5-1.39,259l-6.63-1q.49-128.71.93-257.42v-.36c0-.11,0-.23,0-.35s0-.23,0-.34l0-.34,7.13-.57C143.6,53.94,143.6,54.06,143.6,54.18Z"/><path class="cls-9" d="M130.07,34.08v.86q0,5.73,0,11.46v.85l.52,0a3.39,3.39,0,0,1,1.81.4,4.81,4.81,0,0,1,1.56,1.32,7.7,7.7,0,0,1,1.2,2.1,12.06,12.06,0,0,1,.71,2.74l.09.66.52,0,7.13-.57.55,0-.06-1A32.09,32.09,0,0,0,142.67,45a21.88,21.88,0,0,0-3-6.09,12.85,12.85,0,0,0-4.15-3.82A8.53,8.53,0,0,0,130.6,34Z"/><path class="cls-9" d="M135.09,313.14V314a14,14,0,0,1-.42,3.41,9.65,9.65,0,0,1-1.1,2.7,5.14,5.14,0,0,1-1.62,1.71,3,3,0,0,1-2,.45l-.49-.06v.85q0,5.71,0,11.41v.87l.49.07a7.31,7.31,0,0,0,4.89-1,12.29,12.29,0,0,0,4-4.12,23.51,23.51,0,0,0,2.77-6.65,35.09,35.09,0,0,0,1.06-8.49v-.87l-.5-.08-6.63-1Z"/><path class="cls-19" d="M25.14,63.29A33,33,0,0,1,26,59.93,25,25,0,0,1,28.6,54.1a14.36,14.36,0,0,1,3.55-4,7.87,7.87,0,0,1,4-1.61l0-1.42,0-.79-.45.07a8.25,8.25,0,0,0-4.06,2.08,15.82,15.82,0,0,0-3.32,4.37,27,27,0,0,0-2.3,6.11A36.09,36.09,0,0,0,25.14,63.29Z"/><path class="cls-23" d="M142.27,47.48a28.4,28.4,0,0,0-2.88-7.72A18.35,18.35,0,0,0,136,35.38a13.16,13.16,0,0,1,3.69,3.55,21.88,21.88,0,0,1,3,6.09,32.09,32.09,0,0,1,1.41,7.81l.06,1-.55,0-.48,0A37.64,37.64,0,0,0,142.27,47.48Z"/><polyline class="cls-15" points="142.1 313.85 190.1 298.47 194.11 72.1 143.65 183.96 142.1 313.85 193.9 296.75 141.85 313.8"/><line class="cls-24" x1="142.49" y1="314.25" x2="190.68" y2="298.46"/><path class="cls-17" d="M306.63,329.28s-1.55,13.82-4.79,13.61l13.72-1.11S309.31,328.83,306.63,329.28Z"/><path class="cls-25" d="M300.49,342.93,146,332.32a4,4,0,0,1-3.73-4V208.61a4,4,0,0,1,3.8-4l154.51-8.07a4,4,0,0,1,4.21,4l2.32,139C307.08,341.87,302.8,343.09,300.49,342.93Z"/><path class="cls-22" d="M285.44,331.19l-124.71-8.57a6.07,6.07,0,0,1-5.65-6.05V220.85a6.07,6.07,0,0,1,5.75-6.06l124.71-6.51a6.07,6.07,0,0,1,6.38,6.06v110.8A6.06,6.06,0,0,1,285.44,331.19Z"/><path class="cls-6" d="M274.36,233.37l-102,2.44c-2.6.06-4.62-.18-4.64-.56l-.38-11.3c0-.38,2-.77,4.67-.88L274,218.85c2.83-.12,5.22.13,5.23.54l.44,13.09C279.64,232.89,277.22,233.3,274.36,233.37Z"/><path class="cls-15" d="M177.82,310.65a18.9,18.9,0,0,0,8,1.91,17.88,17.88,0,0,0,7.85-1.71,19.79,19.79,0,0,0,6.33-4.8,22.69,22.69,0,0,0,4.22-7.15,25.27,25.27,0,0,0,1.52-8.81,26.23,26.23,0,0,0-1.6-8.92,24.88,24.88,0,0,0-4.34-7.45,21.84,21.84,0,0,0-6.48-5.23,19.31,19.31,0,0,0-8-2.2,18.19,18.19,0,0,0-8.07,1.46,19.41,19.41,0,0,0-6.62,4.73,22.08,22.08,0,0,0-4.41,7.3,24.87,24.87,0,0,0-1.51,9.11,26.29,26.29,0,0,0,1.83,9.18,24.76,24.76,0,0,0,4.62,7.51A21.76,21.76,0,0,0,177.82,310.65Z"/><path class="cls-16" d="M202.84,280a24.83,24.83,0,0,0-4.34-7.44,21.78,21.78,0,0,0-6.48-5.22,19.1,19.1,0,0,0-8-2.2,18.12,18.12,0,0,0-8.08,1.46,19.27,19.27,0,0,0-6.61,4.74,22.17,22.17,0,0,0-4.42,7.3,25.06,25.06,0,0,0-1.5,9.1,26.24,26.24,0,0,0,1.83,9.18,25,25,0,0,0,4.63,7.51,21.6,21.6,0,0,0,6.67,5.07,18.83,18.83,0,0,0,8,1.9,17.88,17.88,0,0,0,7.85-1.71,19.69,19.69,0,0,0,6.33-4.8,22.69,22.69,0,0,0,4.22-7.15,25,25,0,0,0,1.51-8.81A26.09,26.09,0,0,0,202.84,280Z"/><path class="cls-11" d="M202.84,280a24.83,24.83,0,0,0-4.34-7.44,22.14,22.14,0,0,0-5.88-4.89,22.46,22.46,0,0,1,4.58,4.09,24.42,24.42,0,0,1,4.34,7.44,25.81,25.81,0,0,1,1.61,8.93,25.08,25.08,0,0,1-1.51,8.81,22.51,22.51,0,0,1-4.22,7.15,19.51,19.51,0,0,1-6.32,4.8,18,18,0,0,1-7.86,1.72,18.89,18.89,0,0,1-8-1.9c-.39-.19-.76-.39-1.13-.6a19.29,19.29,0,0,0,2.41,1.39,18.83,18.83,0,0,0,8,1.9,17.88,17.88,0,0,0,7.85-1.71,19.69,19.69,0,0,0,6.33-4.8,22.69,22.69,0,0,0,4.22-7.15,25,25,0,0,0,1.51-8.81A26.09,26.09,0,0,0,202.84,280Z"/><path class="cls-17" d="M198.25,281.8a19.15,19.15,0,0,0-3.38-5.78,17,17,0,0,0-5-4,14.85,14.85,0,0,0-6.2-1.68,14,14,0,0,0-6.23,1.16,15,15,0,0,0-5.1,3.67,17.25,17.25,0,0,0-3.4,5.64,19.38,19.38,0,0,0-1.16,7,20.15,20.15,0,0,0,1.4,7.08,19,19,0,0,0,3.55,5.81,16.9,16.9,0,0,0,5.16,3.94,14.44,14.44,0,0,0,6.19,1.5,13.87,13.87,0,0,0,6.1-1.31,14.91,14.91,0,0,0,4.92-3.71,17.41,17.41,0,0,0,3.29-5.55,19.77,19.77,0,0,0,1.17-6.84A20.29,20.29,0,0,0,198.25,281.8Z"/><path class="cls-16" d="M184.2,280a7.19,7.19,0,0,1,3,.79,8.15,8.15,0,0,1,2.45,1.94,9.1,9.1,0,0,1,1.66,2.79,9.61,9.61,0,0,1,.63,3.37,9.34,9.34,0,0,1-.57,3.34,8.4,8.4,0,0,1-1.6,2.7,7.36,7.36,0,0,1-2.4,1.79,6.87,6.87,0,0,1-3,.61,7,7,0,0,1-3-.75,8.17,8.17,0,0,1-2.48-1.91,9.51,9.51,0,0,1-1.7-2.81,9.8,9.8,0,0,1-.66-3.41,9.5,9.5,0,0,1,.57-3.37,8.29,8.29,0,0,1,1.63-2.72,7.35,7.35,0,0,1,2.44-1.78A6.7,6.7,0,0,1,184.2,280Z"/><path class="cls-18" d="M180.22,295.44a9.38,9.38,0,0,1-1.7-2.81,9.8,9.8,0,0,1-.66-3.41,9.29,9.29,0,0,1,.57-3.37,8.29,8.29,0,0,1,1.63-2.72,7.35,7.35,0,0,1,2.44-1.78,6.7,6.7,0,0,1,3-.57,7,7,0,0,1,2.86.72,7.05,7.05,0,0,0-1.16-.73,7.19,7.19,0,0,0-3-.79,6.7,6.7,0,0,0-3,.58,7.35,7.35,0,0,0-2.44,1.78,8.29,8.29,0,0,0-1.63,2.72,9.5,9.5,0,0,0-.57,3.37,9.8,9.8,0,0,0,.66,3.41,9.51,9.51,0,0,0,1.7,2.81,8.17,8.17,0,0,0,2.48,1.91l.07,0A8.48,8.48,0,0,1,180.22,295.44Z"/><path class="cls-19" d="M171.41,305.37a25,25,0,0,1-4.63-7.51,26.28,26.28,0,0,1-1.82-9.18,24.87,24.87,0,0,1,1.51-9.11,22.08,22.08,0,0,1,4.41-7.3,19.41,19.41,0,0,1,6.62-4.73,18.19,18.19,0,0,1,8.07-1.46,19.31,19.31,0,0,1,8,2.2l.72.4a22.4,22.4,0,0,0-2.28-1.39,19.1,19.1,0,0,0-8-2.2,18.12,18.12,0,0,0-8.08,1.46,19.27,19.27,0,0,0-6.61,4.74,22.17,22.17,0,0,0-4.42,7.3,25.06,25.06,0,0,0-1.5,9.1,26.24,26.24,0,0,0,1.83,9.18,25,25,0,0,0,4.63,7.51,22,22,0,0,0,5.35,4.36A22.32,22.32,0,0,1,171.41,305.37Z"/><path class="cls-15" d="M249.46,314.61a19.61,19.61,0,0,0,8.32,2,18.59,18.59,0,0,0,8.17-1.78,20.41,20.41,0,0,0,6.58-5,23.38,23.38,0,0,0,4.39-7.43,26.36,26.36,0,0,0,1.58-9.17,27.08,27.08,0,0,0-1.67-9.28,25.44,25.44,0,0,0-4.51-7.75,22.58,22.58,0,0,0-6.74-5.44,19.89,19.89,0,0,0-8.33-2.29,18.91,18.91,0,0,0-8.4,1.52A20.1,20.1,0,0,0,242,274.9a23,23,0,0,0-4.6,7.6,26.12,26.12,0,0,0-1.56,9.47,27.17,27.17,0,0,0,1.9,9.55,25.91,25.91,0,0,0,4.81,7.81A22.69,22.69,0,0,0,249.46,314.61Z"/><path class="cls-16" d="M275.48,282.68a25.44,25.44,0,0,0-4.51-7.75,22.9,22.9,0,0,0-6.75-5.44,20,20,0,0,0-8.33-2.28,19,19,0,0,0-8.41,1.52,20.09,20.09,0,0,0-6.88,4.93,22.85,22.85,0,0,0-4.59,7.59,26,26,0,0,0-1.57,9.47,27.35,27.35,0,0,0,1.91,9.55,26,26,0,0,0,4.81,7.82,22.66,22.66,0,0,0,7,5.27,19.61,19.61,0,0,0,8.32,2,18.75,18.75,0,0,0,8.18-1.78,20.44,20.44,0,0,0,6.58-5,23.66,23.66,0,0,0,4.38-7.43,26.13,26.13,0,0,0,1.58-9.17A26.8,26.8,0,0,0,275.48,282.68Z"/><path class="cls-11" d="M275.48,282.68a25.44,25.44,0,0,0-4.51-7.75,23,23,0,0,0-6.12-5.09,23.72,23.72,0,0,1,4.77,4.25,25.79,25.79,0,0,1,4.52,7.75,27.32,27.32,0,0,1,1.67,9.28,26.32,26.32,0,0,1-1.57,9.17,23.43,23.43,0,0,1-4.39,7.44,20.36,20.36,0,0,1-6.58,5,18.73,18.73,0,0,1-8.17,1.78,19.48,19.48,0,0,1-8.33-2c-.4-.19-.79-.4-1.18-.61a22.44,22.44,0,0,0,2.52,1.44,19.61,19.61,0,0,0,8.32,2,18.75,18.75,0,0,0,8.18-1.78,20.44,20.44,0,0,0,6.58-5,23.66,23.66,0,0,0,4.38-7.43,26.13,26.13,0,0,0,1.58-9.17A26.8,26.8,0,0,0,275.48,282.68Z"/><path class="cls-17" d="M270.71,284.59a19.65,19.65,0,0,0-3.52-6A17.44,17.44,0,0,0,262,274.4a15.24,15.24,0,0,0-6.45-1.74,14.72,14.72,0,0,0-6.49,1.19,15.54,15.54,0,0,0-5.29,3.83,17.71,17.71,0,0,0-3.54,5.86,20.26,20.26,0,0,0-1.21,7.31,21.39,21.39,0,0,0,1.45,7.37,20.15,20.15,0,0,0,3.7,6,17.66,17.66,0,0,0,5.36,4.1,15.2,15.2,0,0,0,6.45,1.55,14.43,14.43,0,0,0,6.35-1.35,15.84,15.84,0,0,0,5.11-3.86,18.06,18.06,0,0,0,3.42-5.78A20.36,20.36,0,0,0,272,291.8,20.92,20.92,0,0,0,270.71,284.59Z"/><path class="cls-16" d="M256.09,282.7a7.42,7.42,0,0,1,3.12.82,8.57,8.57,0,0,1,2.56,2,9.61,9.61,0,0,1,1.72,2.91,10.36,10.36,0,0,1,.66,3.5,9.8,9.8,0,0,1-.59,3.47,8.81,8.81,0,0,1-1.67,2.81,7.67,7.67,0,0,1-2.5,1.86,7.13,7.13,0,0,1-3.09.64,7.45,7.45,0,0,1-3.12-.78,8.68,8.68,0,0,1-2.58-2,9.92,9.92,0,0,1-1.77-2.92,10.37,10.37,0,0,1-.68-3.55,9.59,9.59,0,0,1,.59-3.51,8.52,8.52,0,0,1,1.69-2.82A7.59,7.59,0,0,1,253,283.3,7.1,7.1,0,0,1,256.09,282.7Z"/><path class="cls-18" d="M252,298.78a9.67,9.67,0,0,1-1.77-2.92,10.32,10.32,0,0,1-.68-3.54,9.55,9.55,0,0,1,.59-3.51,8.56,8.56,0,0,1,1.69-2.83,7.66,7.66,0,0,1,2.54-1.85,7,7,0,0,1,3.12-.6,7.58,7.58,0,0,1,3,.75,8.81,8.81,0,0,0-1.21-.76,7.42,7.42,0,0,0-3.12-.82,7.1,7.1,0,0,0-3.12.6,7.59,7.59,0,0,0-2.54,1.86,8.52,8.52,0,0,0-1.69,2.82,9.62,9.62,0,0,0-.59,3.51,10.37,10.37,0,0,0,.68,3.55A9.92,9.92,0,0,0,250.6,298a8.68,8.68,0,0,0,2.58,2l.07,0A8.65,8.65,0,0,1,252,298.78Z"/><path class="cls-19" d="M242.78,309.11A26,26,0,0,1,238,301.3a27.39,27.39,0,0,1-1.89-9.55,26.12,26.12,0,0,1,1.56-9.47,23.09,23.09,0,0,1,4.6-7.6,20.1,20.1,0,0,1,6.88-4.92,18.79,18.79,0,0,1,8.4-1.51,20.07,20.07,0,0,1,8.34,2.28l.74.42a20.31,20.31,0,0,0-10.71-3.74,19,19,0,0,0-8.41,1.52,20.09,20.09,0,0,0-6.88,4.93,22.85,22.85,0,0,0-4.59,7.59,26,26,0,0,0-1.57,9.47,27.35,27.35,0,0,0,1.91,9.55,26,26,0,0,0,4.81,7.82,22.89,22.89,0,0,0,5.57,4.53A23.77,23.77,0,0,1,242.78,309.11Z"/><circle class="cls-15" cx="256.62" cy="248.91" r="7.14"/><circle class="cls-26" cx="255.28" cy="248.91" r="7.14"/><polygon class="cls-26" points="249.35 242.84 254.07 241.87 254.07 256.06 249.35 255.01 249.35 242.84"/><circle class="cls-8" cx="250.82" cy="248.91" r="6.25"/><g class="cls-27"><path d="M257.07,248.37c.89-.15,1.78-.28,2.66-.38a5.06,5.06,0,0,1,1.34-.11,3.38,3.38,0,0,1,1.34.43v.1a3.55,3.55,0,0,1-1.33.47,5.53,5.53,0,0,1-1.34-.09c-.89-.08-1.78-.18-2.67-.32Z"/></g><g class="cls-27"><path d="M257.07,249.46c.89-.14,1.78-.26,2.67-.35a5.43,5.43,0,0,1,1.33-.1,3.5,3.5,0,0,1,1.33.45v.1a3.19,3.19,0,0,1-1.33.45,4.6,4.6,0,0,1-1.33-.1c-.89-.08-1.78-.2-2.67-.35Z"/></g><g class="cls-27"><path d="M254.65,253.81c.77,0,1.54.11,2.3.2a4,4,0,0,1,1.14.17,2.64,2.64,0,0,1,1,.71l0,.1a2.66,2.66,0,0,1-1.22.16,3.58,3.58,0,0,1-1.09-.36c-.71-.27-1.43-.56-2.13-.88Z"/></g><g class="cls-27"><path d="M253.58,254.48c.67.07,1.34.16,2,.28a2.85,2.85,0,0,1,1,.21,2.09,2.09,0,0,1,.81.74l0,.09a2.21,2.21,0,0,1-1.08.13,2.92,2.92,0,0,1-.92-.41c-.6-.29-1.19-.6-1.77-.94Z"/></g><g class="cls-27"><path d="M253.37,243.16c.71-.31,1.43-.58,2.16-.83a3.67,3.67,0,0,1,1.1-.33,2.57,2.57,0,0,1,1.22.2l0,.09a2.6,2.6,0,0,1-1,.68,3.65,3.65,0,0,1-1.14.15c-.77.07-1.54.12-2.31.13Z"/></g><g class="cls-27"><path d="M254.81,244.06c.71-.33,1.43-.62,2.15-.9a3.9,3.9,0,0,1,1.09-.37,2.57,2.57,0,0,1,1.23.16l0,.1a2.64,2.64,0,0,1-1,.71,4,4,0,0,1-1.15.18c-.76.1-1.54.17-2.32.22Z"/></g><circle class="cls-15" cx="184.74" cy="250.25" r="7.14"/><circle class="cls-26" cx="183.4" cy="250.25" r="7.14"/><polygon class="cls-26" points="177.47 244.17 182.18 243.21 182.18 257.39 177.47 256.35 177.47 244.17"/><circle class="cls-8" cx="178.93" cy="250.25" r="6.25"/><g class="cls-27"><path d="M185.18,249.71c.89-.15,1.78-.28,2.67-.38a5.45,5.45,0,0,1,1.33-.12,3.52,3.52,0,0,1,1.34.44v.1a3.31,3.31,0,0,1-1.33.46,5,5,0,0,1-1.33-.08c-.89-.08-1.78-.18-2.67-.32Z"/></g><g class="cls-27"><path d="M185.18,250.8c.89-.14,1.78-.26,2.67-.35a5.46,5.46,0,0,1,1.33-.1,3.54,3.54,0,0,1,1.34.45v.1a3.23,3.23,0,0,1-1.34.45,4.62,4.62,0,0,1-1.33-.1c-.89-.08-1.78-.2-2.67-.35Z"/></g><g class="cls-27"><path d="M182.76,255.15c.78,0,1.55.11,2.31.2a3.86,3.86,0,0,1,1.13.17,2.67,2.67,0,0,1,1,.71l0,.1a2.62,2.62,0,0,1-1.21.16,3.58,3.58,0,0,1-1.09-.36c-.72-.27-1.43-.56-2.14-.88Z"/></g><g class="cls-27"><path d="M181.69,255.82c.68.07,1.34.16,2,.28a2.91,2.91,0,0,1,1,.21,2.14,2.14,0,0,1,.8.74l0,.09a2.09,2.09,0,0,1-1.08.12,2.64,2.64,0,0,1-.91-.4c-.6-.29-1.2-.6-1.78-.94Z"/></g><g class="cls-27"><path d="M181.48,244.5c.72-.31,1.44-.58,2.17-.83a3.58,3.58,0,0,1,1.1-.33,2.55,2.55,0,0,1,1.21.2l0,.09a2.51,2.51,0,0,1-1,.68,4,4,0,0,1-1.14.15c-.77.07-1.54.11-2.32.13Z"/></g><g class="cls-27"><path d="M182.92,245.4c.71-.33,1.43-.62,2.15-.9a4.08,4.08,0,0,1,1.1-.37,2.52,2.52,0,0,1,1.22.16l0,.09a2.7,2.7,0,0,1-1,.72,4,4,0,0,1-1.14.18c-.77.1-1.54.17-2.32.22Z"/></g><circle class="cls-15" cx="200" cy="250.33" r="3.49"/><circle class="cls-26" cx="199.35" cy="250.33" r="3.49"/><polygon class="cls-26" points="196.45 247.37 198.75 246.9 198.75 253.82 196.45 253.31 196.45 247.37"/><circle class="cls-8" cx="197.17" cy="250.33" r="3.05"/><g class="cls-27"><path d="M200.22,250.05a10.09,10.09,0,0,1,1.3-.37c.21-.05.43-.18.65-.11a1.28,1.28,0,0,1,.66.44v.1a1.25,1.25,0,0,1-.65.46c-.22.08-.43,0-.65-.09a10.47,10.47,0,0,1-1.31-.33Z"/></g><g class="cls-27"><path d="M200.22,250.58a10.44,10.44,0,0,1,1.3-.35c.22,0,.44-.18.65-.1a1.19,1.19,0,0,1,.65.45v.1a1.24,1.24,0,0,1-.65.45c-.21.07-.43-.06-.65-.1a12.52,12.52,0,0,1-1.3-.35Z"/></g><g class="cls-27"><path d="M199,252.7a9.46,9.46,0,0,1,1.17-.08c.19,0,.4-.08.57,0a1.07,1.07,0,0,1,.43.57l0,.1a1.08,1.08,0,0,1-.65.3c-.2,0-.35-.14-.52-.23a8,8,0,0,1-1-.6Z"/></g><g class="cls-27"><path d="M198.52,253a6,6,0,0,1,1,0c.17,0,.36-.07.49.05a.89.89,0,0,1,.32.58l0,.09a.9.9,0,0,1-.6.28c-.17,0-.29-.15-.43-.24a6.89,6.89,0,0,1-.81-.64Z"/></g><g class="cls-27"><path d="M198.41,247.5a8.61,8.61,0,0,1,1-.58c.17-.08.33-.25.52-.21a1,1,0,0,1,.64.32l0,.1a1.09,1.09,0,0,1-.46.55c-.16.11-.37,0-.57,0a9.24,9.24,0,0,1-1.16-.1Z"/></g><g class="cls-27"><path d="M199.11,247.94a8.74,8.74,0,0,1,1-.61c.17-.09.32-.26.52-.23a1,1,0,0,1,.65.3l0,.09a1.07,1.07,0,0,1-.44.58c-.16.11-.38,0-.57,0a7.84,7.84,0,0,1-1.18-.06Z"/></g><circle class="cls-15" cx="212.06" cy="250.33" r="3.49"/><circle class="cls-26" cx="211.4" cy="250.33" r="3.49"/><polygon class="cls-26" points="208.51 247.37 210.81 246.9 210.81 253.82 208.51 253.31 208.51 247.37"/><circle class="cls-8" cx="209.22" cy="250.33" r="3.05"/><g class="cls-27"><path d="M212.27,250.05a11.09,11.09,0,0,1,1.3-.37c.22-.05.44-.18.65-.11a1.28,1.28,0,0,1,.66.44v.1a1.23,1.23,0,0,1-.64.46c-.22.08-.44,0-.66-.09a10.32,10.32,0,0,1-1.3-.33Z"/></g><g class="cls-27"><path d="M212.28,250.58a10,10,0,0,1,1.3-.35c.21,0,.43-.18.65-.1a1.22,1.22,0,0,1,.65.45v.1a1.28,1.28,0,0,1-.65.45c-.22.07-.44-.06-.65-.1a11.88,11.88,0,0,1-1.3-.35Z"/></g><g class="cls-27"><path d="M211.1,252.7a9.33,9.33,0,0,1,1.17-.08c.19,0,.4-.08.56,0a1.08,1.08,0,0,1,.44.57l0,.1a1.05,1.05,0,0,1-.64.3c-.2,0-.35-.14-.52-.23a7.35,7.35,0,0,1-1-.6Z"/></g><g class="cls-27"><path d="M210.58,253a5.94,5.94,0,0,1,1,0c.16,0,.36-.07.49.05a1,1,0,0,1,.32.58l0,.09a.91.91,0,0,1-.6.28c-.18,0-.29-.15-.43-.24a6.89,6.89,0,0,1-.81-.64Z"/></g><g class="cls-27"><path d="M210.46,247.5a10.56,10.56,0,0,1,1-.58c.18-.08.33-.25.53-.21a1,1,0,0,1,.64.32l0,.1a1,1,0,0,1-.45.55c-.17.11-.38,0-.57,0a9.56,9.56,0,0,1-1.17-.1Z"/></g><g class="cls-27"><path d="M211.16,247.94a9.68,9.68,0,0,1,1-.61c.17-.09.32-.26.52-.23a1,1,0,0,1,.66.3l0,.09a1.06,1.06,0,0,1-.43.58c-.17.11-.38,0-.57,0a7.84,7.84,0,0,1-1.18-.06Z"/></g><circle class="cls-15" cx="224.11" cy="250.33" r="3.49"/><circle class="cls-26" cx="223.46" cy="250.33" r="3.49"/><polygon class="cls-26" points="220.56 247.37 222.87 246.9 222.87 253.82 220.56 253.31 220.56 247.37"/><circle class="cls-8" cx="221.28" cy="250.33" r="3.05"/><g class="cls-27"><path d="M224.33,250.05a10.56,10.56,0,0,1,1.3-.37c.22-.05.43-.18.65-.11a1.28,1.28,0,0,1,.66.44v.1a1.25,1.25,0,0,1-.65.46c-.21.08-.43,0-.65-.09a10.47,10.47,0,0,1-1.31-.33Z"/></g><g class="cls-27"><path d="M224.33,250.58a10.44,10.44,0,0,1,1.3-.35c.22,0,.44-.18.65-.1a1.19,1.19,0,0,1,.65.45v.1a1.24,1.24,0,0,1-.65.45c-.21.07-.43-.06-.65-.1a12.52,12.52,0,0,1-1.3-.35Z"/></g><g class="cls-27"><path d="M223.16,252.7a9.17,9.17,0,0,1,1.16-.08c.19,0,.4-.08.57,0a1.07,1.07,0,0,1,.43.57l0,.1a1.08,1.08,0,0,1-.65.3c-.2,0-.35-.14-.52-.23a8,8,0,0,1-1-.6Z"/></g><g class="cls-27"><path d="M222.63,253a6,6,0,0,1,1,0c.17,0,.36-.07.49.05a.89.89,0,0,1,.32.58l0,.09a.9.9,0,0,1-.6.28c-.17,0-.29-.15-.43-.24a7.83,7.83,0,0,1-.81-.64Z"/></g><g class="cls-27"><path d="M222.52,247.5a8.61,8.61,0,0,1,1-.58c.17-.08.33-.25.52-.21a1,1,0,0,1,.64.32l0,.1a1.09,1.09,0,0,1-.46.55c-.16.11-.37,0-.57,0a9.24,9.24,0,0,1-1.16-.1Z"/></g><g class="cls-27"><path d="M223.22,247.94a9.68,9.68,0,0,1,1-.61c.17-.09.32-.26.52-.23a1,1,0,0,1,.65.3l0,.09a1.07,1.07,0,0,1-.44.58c-.16.11-.38,0-.57,0a7.91,7.91,0,0,1-1.18-.06Z"/></g><circle class="cls-15" cx="236.61" cy="250.33" r="3.49"/><circle class="cls-26" cx="235.96" cy="250.33" r="3.49"/><polygon class="cls-26" points="233.06 247.37 235.37 246.9 235.37 253.82 233.06 253.31 233.06 247.37"/><circle class="cls-8" cx="233.78" cy="250.33" r="3.05"/><g class="cls-27"><path d="M236.83,250.05a10.56,10.56,0,0,1,1.3-.37c.22-.05.43-.18.65-.11a1.28,1.28,0,0,1,.66.44v.1a1.21,1.21,0,0,1-.65.46c-.21.08-.43,0-.65-.09a10.92,10.92,0,0,1-1.31-.33Z"/></g><g class="cls-27"><path d="M236.83,250.58a10.93,10.93,0,0,1,1.3-.35c.22,0,.44-.18.66-.1a1.26,1.26,0,0,1,.65.45v.1a1.33,1.33,0,0,1-.65.45c-.22.07-.44-.06-.66-.1a13.23,13.23,0,0,1-1.3-.35Z"/></g><g class="cls-27"><path d="M235.66,252.7a9.17,9.17,0,0,1,1.16-.08c.19,0,.41-.08.57,0a1.13,1.13,0,0,1,.44.57l0,.1a1.05,1.05,0,0,1-.65.3c-.19,0-.34-.14-.51-.23a7.46,7.46,0,0,1-1-.6Z"/></g><g class="cls-27"><path d="M235.14,253a5.85,5.85,0,0,1,1,0c.17,0,.36-.07.5.05a1,1,0,0,1,.32.58l0,.09a.91.91,0,0,1-.6.28c-.18,0-.29-.15-.43-.24a7.92,7.92,0,0,1-.82-.64Z"/></g><g class="cls-27"><path d="M235,247.5a8.61,8.61,0,0,1,1-.58c.17-.08.33-.25.53-.21a1,1,0,0,1,.64.32l0,.1a1.09,1.09,0,0,1-.46.55c-.16.11-.37,0-.56,0a9.24,9.24,0,0,1-1.17-.1Z"/></g><g class="cls-27"><path d="M235.72,247.94a9.68,9.68,0,0,1,1-.61c.17-.09.32-.26.52-.23a1,1,0,0,1,.66.3l0,.09a1.07,1.07,0,0,1-.44.58c-.16.11-.37,0-.57,0a7.71,7.71,0,0,1-1.17-.06Z"/></g><path class="cls-28" d="M169.56,225.3v8.88s107.16-2,107.16-2.42V221.67"/><polygon class="cls-29" points="171.12 225.02 275.15 221.9 275.15 230.83 171.12 232.61 171.12 225.02"/><path class="cls-30" d="M142.24,214.87s1.83-6,8.12-6.59c7.4-.7,148-7.42,147.79-7.14,0,0,5.54-.64,6.79,10,0,0,.8-11.29-1-13a3.66,3.66,0,0,0-3.53-1.41l-149.21,7.67-6.06.43s-2.79.83-2.79,3.51S142.24,214.87,142.24,214.87Z"/><path class="cls-19" d="M340.35,75.79a29.9,29.9,0,0,0-2.19-6.46,21.31,21.31,0,0,0-3.3-5,14,14,0,0,0-4.19-3.25q-10.41-5.13-20.87-10.14,11.7,4.63,23.34,9.42a10.21,10.21,0,0,1,3.27,2.22,15.25,15.25,0,0,1,2.65,3.62A21.91,21.91,0,0,1,340.9,71a27.93,27.93,0,0,1,.85,5.67l0,.83-1.2-.45C340.52,76.59,340.44,76.18,340.35,75.79Z"/><path class="cls-5" d="M337.69,43.29q-11.34-3-22.7-5.82v-.88q12.45,3.13,24.87,6.43Z"/><path class="cls-6" d="M308.25,57.27c0-.12,0-.25,0-.37s0-.24,0-.36,0-.24,0-.36l.55-.77a15.92,15.92,0,0,1,.62-3A11.65,11.65,0,0,1,310.52,50a6.52,6.52,0,0,1,1.42-1.72,3.5,3.5,0,0,1,1.66-.82l.48-.08v-.9q51.4-7.22,103.08-11.56v1l.56,0a3.59,3.59,0,0,1,2,.48,5.39,5.39,0,0,1,1.71,1.61,10.33,10.33,0,0,1,1.32,2.64,17.8,17.8,0,0,1,.79,3.57l.58,0c0,.13,0,.26,0,.39s0,.26,0,.39v.4c0,.13,0,.27,0,.4Q422,192.4,419.87,339.13l-.54-.09,0,1a16.66,16.66,0,0,1-.49,3.88,11.12,11.12,0,0,1-1.25,3.06,5.78,5.78,0,0,1-1.8,1.92,3.17,3.17,0,0,1-2.17.5l-.52-.07,0,1q-47.93-8.34-96.17-14v-.89l-.45-.07a3.41,3.41,0,0,1-1.83-1,7.79,7.79,0,0,1-1.5-2.2,13.83,13.83,0,0,1-1-3.09,17.71,17.71,0,0,1-.41-3.64c0-.3,0-.6,0-.9l-.45,0Q309.76,191,308.25,57.63Z"/><path class="cls-25" d="M484.9,67.44c0,.11,0,.22,0,.34s0,.22,0,.34v.34c0,.11,0,.23,0,.34q-3.5,125.78-7.06,251.55-26,8.16-51.84,17.09,2.34-144.75,4.62-289.5V46.76c0-.13,0-.26,0-.39Q457.87,56.51,484.9,67.44Z"/><path class="cls-8" d="M476.34,48.19a10.76,10.76,0,0,1,3.48,2.53,16.8,16.8,0,0,1,2.81,4.08,24.68,24.68,0,0,1,1.92,5.36,31.41,31.41,0,0,1,.85,6.34l0,.93q-27-11-54.25-21.1c0-.36,0-.71-.05-1.07a37.82,37.82,0,0,0-1-7.25,28.12,28.12,0,0,0-2.19-6,18.82,18.82,0,0,0-3.16-4.54,11.37,11.37,0,0,0-3.89-2.72Q448.74,36,476.34,48.19Z"/><path class="cls-19" d="M483.9,65.55a33.36,33.36,0,0,0-2.27-7.24,23.71,23.71,0,0,0-3.5-5.66A15.07,15.07,0,0,0,473.66,49q-11.13-5.88-22.33-11.6,12.54,5.33,25,10.82a10.76,10.76,0,0,1,3.48,2.53,16.8,16.8,0,0,1,2.81,4.08,24.68,24.68,0,0,1,1.92,5.36,31.41,31.41,0,0,1,.85,6.34l0,.93-1.29-.52C484.07,66.45,484,66,483.9,65.55Z"/><path class="cls-9" d="M431.19,46.33q27.24,10.14,54.25,21.1h-.54q-27-10.94-54.3-21.07Z"/><path class="cls-8" d="M420.45,357.73a19.32,19.32,0,0,0,3.11-4.87,31.27,31.27,0,0,0,2.1-6.53,41.72,41.72,0,0,0,.85-7.82c0-.33,0-.65,0-1q25.79-8.94,51.79-17.1l0,.84a35.11,35.11,0,0,1-.85,6.79,26.13,26.13,0,0,1-2,5.66,16.55,16.55,0,0,1-2.88,4.19,9.69,9.69,0,0,1-3.54,2.4q-26.35,9.71-52.43,20.22A10.58,10.58,0,0,0,420.45,357.73Z"/><path class="cls-11" d="M312.23,321.82Q310.85,191,309.4,60.2v-.71c0-.12,0-.24,0-.36s0-.23,0-.35l-1.15.15c0-.79,0-1.59,0-2.39,0-.12,1.75.2,1.75.08s0-.24,0-.36,0-.25,0-.37,0-.24,0-.36l.54-.76a16.58,16.58,0,0,1,.61-3,11.73,11.73,0,0,1,1.05-2.45,6.85,6.85,0,0,1,1.4-1.72,3.52,3.52,0,0,1,1.42-.76c0,.8,0,1.6,0,2.4q50.38-7.05,101-11.34c0-1.18,0-2.36.05-3.53l1.12-.1v1l.55,0a3.5,3.5,0,0,1,2,.49,5.4,5.4,0,0,1,1.69,1.6,10.31,10.31,0,0,1,1.29,2.64,18,18,0,0,1,.78,3.57l.57,0c0,.13,0,.26,0,.39s0,.26,0,.39v.4c0,.13,0,.27,0,.4,0,.59,0,1.19,0,1.78l-1.21.09c0,.12,0,.25,0,.38s0,.26,0,.39,0,.26,0,.39v.39q-2,143.9-4.11,287.77l1.05.18c0,.63,0,1.27,0,1.91l-1.43-.24q2.09-143.89,4.1-287.78v-.39c0-.13,0-.26,0-.39s0-.26,0-.39,0-.25,0-.38h0l-.56,0-.09-.74a13.68,13.68,0,0,0-.72-3.07,9.12,9.12,0,0,0-1.24-2.37,5.2,5.2,0,0,0-1.64-1.49,3.41,3.41,0,0,0-1.91-.46l-.55,0v-1h0Q366,44.07,316.37,51.09h0V52l-.46.08a3.46,3.46,0,0,0-1.6.8A6.78,6.78,0,0,0,313,54.53a11.79,11.79,0,0,0-1,2.4,15.81,15.81,0,0,0-.6,2.93l-.07.7-.46.06c0,.12,0,.23,0,.35s0,.24,0,.36,0,.23,0,.35,0,.24,0,.36l1.71,264-1.52-2.7,0-1.7Z"/><path class="cls-23" d="M429.26,39.25a32.33,32.33,0,0,0-3-8.66,20.41,20.41,0,0,0-3.59-4.94,14.51,14.51,0,0,1,3.93,4,25,25,0,0,1,3.13,6.84,36.56,36.56,0,0,1,1.42,8.75c0,.36,0,.71.05,1.07l-.59,0-.51,0A43.63,43.63,0,0,0,429.26,39.25Z"/><path class="cls-12" d="M400.76,299.11a45.21,45.21,0,0,1-14.07,11.69,42.47,42.47,0,0,1-18.17,4.89,44.17,44.17,0,0,1-19-3.5,49.15,49.15,0,0,1-16.09-11.14,55,55,0,0,1-11.21-17.15,58.64,58.64,0,0,1-4.45-21.27,57.74,57.74,0,0,1,3.45-21.18,51.74,51.74,0,0,1,10.15-16.93,44.63,44.63,0,0,1,15-10.93,40.84,40.84,0,0,1,18.14-3.45,43.42,43.42,0,0,1,18,4.73,50.49,50.49,0,0,1,14.74,11.42,57.47,57.47,0,0,1,10.28,16.39A59.88,59.88,0,0,1,412,262.52a56.79,56.79,0,0,1-2.44,20A50.85,50.85,0,0,1,400.76,299.11Z"/><path class="cls-12" d="M399.13,135.2a41.57,41.57,0,0,1-13,10.77,39,39,0,0,1-16.74,4.5,40.52,40.52,0,0,1-17.49-3.22A45.13,45.13,0,0,1,337.12,137a50.48,50.48,0,0,1-10.33-15.79,54.33,54.33,0,0,1-4.11-19.6,53.16,53.16,0,0,1,3.19-19.51,47.7,47.7,0,0,1,9.34-15.59A41.18,41.18,0,0,1,349,56.43a37.72,37.72,0,0,1,16.71-3.18,39.91,39.91,0,0,1,16.56,4.36,46.33,46.33,0,0,1,13.58,10.52,52.94,52.94,0,0,1,9.47,15.09,55.4,55.4,0,0,1,4.14,18.28,52.25,52.25,0,0,1-2.25,18.37A46.75,46.75,0,0,1,399.13,135.2Z"/><path class="cls-11" d="M321.33,242.12a51.67,51.67,0,0,1,9.07-16.29,44.76,44.76,0,0,1,8.17-7.65,46,46,0,0,0-6.24,6.17,52.21,52.21,0,0,0-9.22,16.55A60,60,0,0,0,320,261.07a63.07,63.07,0,0,0,3.58,20.33,59,59,0,0,0,9.35,17.05,50,50,0,0,0,13.89,12.19,40.92,40.92,0,0,0,17.31,5.51c.45,0,.91.06,1.36.08a36.48,36.48,0,0,1-3.76-.11,40.2,40.2,0,0,1-17-5.41,49,49,0,0,1-13.67-12A58.11,58.11,0,0,1,321.77,282a62.45,62.45,0,0,1-3.54-20A59.29,59.29,0,0,1,321.33,242.12Z"/><path class="cls-11" d="M346.49,256.79a20.14,20.14,0,0,1,2.93-5.39,22,22,0,0,0-1.39,3.08,24,24,0,0,0-1.39,8.2,25.1,25.1,0,0,0,1.43,8.29,23,23,0,0,0,3.84,6.89,19.49,19.49,0,0,0,5.71,4.81,16.14,16.14,0,0,0,7,2,15.12,15.12,0,0,0,2.43-.07,14.71,14.71,0,0,1-4.93.61,15.34,15.34,0,0,1-6.6-1.89,18.36,18.36,0,0,1-5.37-4.53,21.8,21.8,0,0,1-3.62-6.48,23.59,23.59,0,0,1-1.35-7.81A22.54,22.54,0,0,1,346.49,256.79Z"/><path class="cls-19" d="M391.21,304.3a52.05,52.05,0,0,0,10.35-16.53,60.18,60.18,0,0,0,4.1-21,61.19,61.19,0,0,0-3.47-21.43,55.6,55.6,0,0,0-10.09-17.56,47.13,47.13,0,0,0-15-11.73,40.62,40.62,0,0,0-18-4.2,38.93,38.93,0,0,0-15.4,3.19l.62-.32a39.26,39.26,0,0,1,17.58-4.19,40.77,40.77,0,0,1,18,4.22,47.05,47.05,0,0,1,15,11.75A55.38,55.38,0,0,1,405,244a61,61,0,0,1,3.45,21.43,60,60,0,0,1-4.12,21A52.08,52.08,0,0,1,394,303a42.72,42.72,0,0,1-14.23,10.11A43.31,43.31,0,0,0,391.21,304.3Z"/><path class="cls-19" d="M392.39,304.69a46.14,46.14,0,0,1-7.48,6.42,44.43,44.43,0,0,0,9.38-7.65,52.64,52.64,0,0,0,10.48-16.71,60.54,60.54,0,0,0,4.16-21.26,61.59,61.59,0,0,0-3.49-21.67,56.05,56.05,0,0,0-10.18-17.77,47.68,47.68,0,0,0-15.14-11.87,41,41,0,0,0-18.25-4.27,39.67,39.67,0,0,0-17.77,4.23,41.33,41.33,0,0,0-4.85,2.85q1.44-.87,2.94-1.62A39.58,39.58,0,0,1,360,211.14a41.08,41.08,0,0,1,18.24,4.26,47.6,47.6,0,0,1,15.14,11.88A56,56,0,0,1,403.54,245,61.86,61.86,0,0,1,407,266.71,60.55,60.55,0,0,1,402.86,288,52.62,52.62,0,0,1,392.39,304.69Z"/><path class="cls-13" d="M420.28,40.78,307,189.16l1.24,46.94L426.82,77.57S428.8,41.45,420.28,40.78Z"/><path class="cls-14" d="M421.28,119.1l-113,152.56L307,314.43,426.51,148S430,119.78,421.28,119.1Z"/><path d="M395.58,136.93a40,40,0,0,1-12.76,10.24A36,36,0,0,1,366.71,151a37.16,37.16,0,0,1-16.55-3.86,43.29,43.29,0,0,1-13.73-10.77,50.77,50.77,0,0,1-9.25-16.11A56.28,56.28,0,0,1,324,100.61a55.1,55.1,0,0,1,3.77-19.29,47.8,47.8,0,0,1,9.49-15.16,39.08,39.08,0,0,1,13.55-9.5,34.43,34.43,0,0,1,16-2.53,36.85,36.85,0,0,1,15.61,4.95,44.8,44.8,0,0,1,12.55,11,53.42,53.42,0,0,1,8.45,15.38,57.15,57.15,0,0,1,3.25,18.34,54.18,54.18,0,0,1-2.84,18.2A47.09,47.09,0,0,1,395.58,136.93Z"/><path class="cls-16" d="M402.62,123.22a47.11,47.11,0,0,1-8.31,14.94,39.91,39.91,0,0,1-12.77,10.23,36,36,0,0,1-16.12,3.84,37.35,37.35,0,0,1-16.56-3.87,43.32,43.32,0,0,1-13.73-10.78,50.83,50.83,0,0,1-9.24-16.11,56.05,56.05,0,0,1-3.16-19.66,54.79,54.79,0,0,1,3.77-19.29A47.84,47.84,0,0,1,336,67.36a39.18,39.18,0,0,1,13.55-9.49,34.49,34.49,0,0,1,16.05-2.53,37,37,0,0,1,15.62,5,45.09,45.09,0,0,1,12.54,11,53.37,53.37,0,0,1,8.45,15.39A56.92,56.92,0,0,1,405.46,105,54.18,54.18,0,0,1,402.62,123.22Z"/><path class="cls-11" d="M402.62,123.22a47.11,47.11,0,0,1-8.31,14.94,41.51,41.51,0,0,1-7.5,7,42.54,42.54,0,0,0,5.72-5.67A47.74,47.74,0,0,0,401,124.34a54.91,54.91,0,0,0,2.9-18.5,57.92,57.92,0,0,0-3.28-18.65A54.34,54.34,0,0,0,392,71.55a45.68,45.68,0,0,0-12.75-11.18,37.59,37.59,0,0,0-15.87-5.06l-1.25-.07c1.14,0,2.29,0,3.45.1a37,37,0,0,1,15.62,5,45.09,45.09,0,0,1,12.54,11,53.37,53.37,0,0,1,8.45,15.39A56.92,56.92,0,0,1,405.46,105,54.18,54.18,0,0,1,402.62,123.22Z"/><path class="cls-17" d="M395.72,120.1a39.49,39.49,0,0,1-7,12.46A33.29,33.29,0,0,1,378,141a29.94,29.94,0,0,1-13.44,3.11,31,31,0,0,1-13.72-3.31,36.15,36.15,0,0,1-11.36-9,42.79,42.79,0,0,1-7.63-13.38,46.72,46.72,0,0,1-2.64-16.29,45.54,45.54,0,0,1,3.08-16,39.75,39.75,0,0,1,7.83-12.62,32.66,32.66,0,0,1,11.24-8,28.93,28.93,0,0,1,13.39-2.2,30.83,30.83,0,0,1,13.07,4.07,37.18,37.18,0,0,1,10.53,9.15,44.35,44.35,0,0,1,7.09,12.86,47.62,47.62,0,0,1,2.69,15.38A45.27,45.27,0,0,1,395.72,120.1Z"/><path class="cls-20" d="M365.11,120.56a13.51,13.51,0,0,0,6.14-1.27,15.1,15.1,0,0,0,5-3.8,18,18,0,0,0,3.32-5.73,20.82,20.82,0,0,0,1.2-7.07,21.63,21.63,0,0,0-1.24-7.17,20.2,20.2,0,0,0-3.32-6,16.92,16.92,0,0,0-4.93-4.15,14,14,0,0,0-6.06-1.73,13.22,13.22,0,0,0-6.1,1.15,14.91,14.91,0,0,0-5,3.72,18,18,0,0,0-3.44,5.73,20.72,20.72,0,0,0-1.31,7.18,21.53,21.53,0,0,0,1.2,7.29,19.66,19.66,0,0,0,3.39,6,16.76,16.76,0,0,0,5.05,4.14A14.17,14.17,0,0,0,365.11,120.56Z"/><path class="cls-11" d="M379.54,109.76a18.17,18.17,0,0,1-2.69,4.95,20.17,20.17,0,0,0,1.28-2.83,22.15,22.15,0,0,0,1.28-7.52,23.1,23.1,0,0,0-1.31-7.6,21.18,21.18,0,0,0-3.53-6.32A17.68,17.68,0,0,0,369.34,86a14.76,14.76,0,0,0-6.44-1.85,13.66,13.66,0,0,0-2.22.07,13,13,0,0,1,4.51-.56,14,14,0,0,1,6.06,1.73,16.92,16.92,0,0,1,4.93,4.15,20.2,20.2,0,0,1,3.32,6,21.63,21.63,0,0,1,1.24,7.17A20.82,20.82,0,0,1,379.54,109.76Z"/><path class="cls-18" d="M353.39,91.2a22.41,22.41,0,0,0-1.4,7.7,23,23,0,0,0,1.3,7.81,21.13,21.13,0,0,0,3.64,6.47,17.8,17.8,0,0,0,5.42,4.43,15.08,15.08,0,0,0,6.61,1.74,15.29,15.29,0,0,0,2.45-.14l-.16.08a13.51,13.51,0,0,1-6.14,1.27,14.17,14.17,0,0,1-6.17-1.63,16.76,16.76,0,0,1-5.05-4.14,19.66,19.66,0,0,1-3.39-6,21.53,21.53,0,0,1-1.2-7.29,20.72,20.72,0,0,1,1.31-7.18,18,18,0,0,1,3.44-5.73,14.11,14.11,0,0,1,1.35-1.33A19.46,19.46,0,0,0,353.39,91.2Z"/><path class="cls-19" d="M338.52,66.18A47.85,47.85,0,0,0,329,81.35a54.78,54.78,0,0,0-3.76,19.29,56.06,56.06,0,0,0,3.18,19.66,50.88,50.88,0,0,0,9.25,16.11,43.33,43.33,0,0,0,13.74,10.76A37.29,37.29,0,0,0,368,151a35.8,35.8,0,0,0,14.13-2.93l-.58.3a36,36,0,0,1-16.12,3.84,37.35,37.35,0,0,1-16.56-3.87,43.32,43.32,0,0,1-13.73-10.78,50.83,50.83,0,0,1-9.24-16.11,56.05,56.05,0,0,1-3.16-19.66,54.79,54.79,0,0,1,3.77-19.29A47.84,47.84,0,0,1,336,67.36a39.44,39.44,0,0,1,13.05-9.28A40,40,0,0,0,338.52,66.18Z"/><path class="cls-21" d="M402.65,86.49a54.17,54.17,0,0,0-8.54-15.56,45.49,45.49,0,0,0-12.69-11.11,37.25,37.25,0,0,0-15.79-5,35,35,0,0,0-16.23,2.55A39.69,39.69,0,0,0,335.69,67a48.32,48.32,0,0,0-9.61,15.33,55.76,55.76,0,0,0-3.82,19.51,56.61,56.61,0,0,0,3.2,19.88A51.59,51.59,0,0,0,334.81,138a43.69,43.69,0,0,0,13.89,10.9,37.8,37.8,0,0,0,16.73,3.91,36.39,36.39,0,0,0,16.31-3.88,40.53,40.53,0,0,0,12.91-10.34,47.67,47.67,0,0,0,8.4-15.11,54.57,54.57,0,0,0,2.88-18.4A57.85,57.85,0,0,0,402.65,86.49ZM353.27,65.75l-4.48,4.46L344,65.11a35,35,0,0,1,5.55-3.35ZM326.75,94.92,331,90.71l4.29,4.45-4.5,4.49-4.09-4.24C326.7,95.25,326.73,95.08,326.75,94.92Zm2.35,25.88c-.47-1.32-.88-2.66-1.24-4l2.58-2.58,4.28,4.39-4.48,4.48-.47-.48C329.54,122,329.31,121.4,329.1,120.8Zm36,26.21,4.4-4.44,4.13,4.27-2.54,2.57a33.62,33.62,0,0,1-3.35.31ZM397,112.19l-4.37,4.4-4.09-4.33,4.38-4.4Zm-2.7-5.72,4.36-4.4,4.07,4.34-4.36,4.39Zm-40.87,4.71-4.23-4.39,4.46-4.46,4.21,4.4Zm5.77-3.07,4.18,4.38L359,116.93l-4.19-4.36Zm-4.13-7.18,4.44-4.46,4.2,4.41-4.44,4.44Zm10,1.34,4.17,4.38-4.42,4.43-4.18-4.37Zm5.48,5.76,4.15,4.36-4.4,4.43-4.16-4.36Zm-4.08-7.16,4.42-4.44,4.16,4.39-4.42,4.43Zm9.89,1.33,4.13,4.37-4.4,4.42-4.14-4.36Zm5.44,5.74,4.11,4.34-4.39,4.42-4.12-4.34Zm-1.66,10.15-4.39,4.42-4.14-4.32,4.4-4.43Zm-5.78,5.82-4.4,4.43L365.79,124l4.41-4.44Zm-9.87-1.26-4.18-4.34,4.43-4.45,4.17,4.35Zm-1.39,1.4-4.42,4.45-4.19-4.34,4.43-4.45Zm-9.94-1.26-4.21-4.36,4.44-4.46,4.2,4.37Zm-5.55-5.74-4.23-4.39,4.46-4.46,4.22,4.39ZM342,111.28l-4.26-4.41,4.47-4.47,4.25,4.41ZM343.65,101l4.47-4.47,4.23,4.42-4.46,4.46Zm5.88-5.88L354,90.65l4.22,4.43-4.45,4.45Zm5.87-5.86,4.45-4.46,4.2,4.44-4.44,4.45Zm10,1.38L369.56,95l-4.43,4.44-4.19-4.41Zm1.4-1.41,4.43-4.43,4.16,4.42L371,93.64Zm9.9,1.38,4.15,4.4-4.41,4.42L372.27,95Zm5.45,5.78,4.12,4.38-4.39,4.41-4.13-4.37Zm5.42,5.76,4.1,4.35-4.38,4.4-4.11-4.34ZM391.28,118l-4.37,4.41-4.11-4.31,4.38-4.42Zm-5.75,5.8-4.38,4.42L377,123.88l4.39-4.42Zm-5.76,5.81L375.38,134l-4.13-4.3,4.4-4.43ZM374,135.4l-4.39,4.43-4.15-4.3,4.4-4.43Zm-9.85-1.23L360,129.86l4.41-4.44,4.16,4.32Zm-1.39,1.41L358.34,140l-4.18-4.3,4.42-4.45Zm-9.93-1.23-4.2-4.33,4.44-4.46,4.19,4.34Zm-5.54-5.7-4.22-4.35,4.45-4.46,4.22,4.35Zm-5.56-5.72-4.25-4.38,4.47-4.47,4.24,4.38Zm-5.6-5.76-4.27-4.4,4.48-4.48,4.26,4.4Zm-4-16.12,4.49-4.48,4.27,4.43-4.48,4.48Zm5.91-5.9,4.48-4.47,4.26,4.44-4.48,4.47Zm5.9-5.88,4.48-4.47,4.24,4.45-4.47,4.46Zm5.89-5.88,4.47-4.46,4.22,4.46-4.46,4.46Zm5.88-5.87,4.46-4.45,4.21,4.47L359.93,82Zm10,1.43,4.18,4.44-4.43,4.44-4.2-4.44Zm1.4-1.4,4.44-4.44,4.17,4.45L371.29,82ZM377,79l4.15,4.43-4.41,4.42-4.16-4.42Zm5.46,5.82,4.13,4.41-4.4,4.41-4.14-4.39Zm5.42,5.79L392,95l-4.38,4.41L383.52,95Zm5.4,5.77,4.09,4.36L393,105.1l-4.1-4.36ZM394.7,95l4.37-4.4,3.73,4,.12.57-4.14,4.18Zm8.63,2.44a54.31,54.31,0,0,1,.67,7.51l-3.94-4.22Zm.65,10.43a50.75,50.75,0,0,1-.89,8l-3.42-3.64Zm-1.62,10L398,122.25l-4.07-4.3,4.36-4.4Zm-5.72,5.77-4.36,4.4-4.08-4.29,4.37-4.4Zm-5.74,5.79-4.36,4.41-4.09-4.29,4.37-4.41ZM390,140.24a36.81,36.81,0,0,1-4.9,3.84l-3-3.1,4.37-4.41Zm-9.17-.61-4.11-4.27,4.38-4.42,4.1,4.28Zm-1.38,1.4L375,145.44l-4.12-4.26,4.38-4.43Zm-4.13,7.5-.91.24.58-.59Zm-11.47-2.87-4.16-4.28,4.41-4.45,4.15,4.29Zm-1.39,1.4-2.16,2.18a35.1,35.1,0,0,1-6-1.63l-.37-.38,4.42-4.45Zm-14.1-5.48,4.43-4.46,4.19,4.3-4.42,4.45ZM347,140.22l-4.22-4.32,4.44-4.47,4.21,4.33Zm-5.56-5.69-4.24-4.34,4.46-4.48,4.23,4.35Zm-5.59-5.72-4.26-4.37,4.47-4.48,4.26,4.38Zm-8.53-14.25c-.31-1.43-.56-2.88-.75-4.36l2.52,2.59Zm-1.08-7.63,4.47-4.46,4.28,4.42-4.49,4.49L326.24,107Zm6.16-17.64,4.5-4.48,4.28,4.46-4.49,4.48Zm5.92-5.9,4.5-4.47,4.26,4.47-4.49,4.47Zm5.91-5.88L348.72,73,353,77.52,348.49,82Zm10.38-10.34,4.23,4.49-4.46,4.45-4.25-4.48ZM356,65.76l4.48-4.45,4.21,4.5-4.46,4.44Zm10,1.46,4.19,4.48-4.44,4.44-4.21-4.47Zm1.4-1.4,4.45-4.44,4.18,4.49-4.44,4.43Zm6-6a35.4,35.4,0,0,1,6.17,2.49l-2.13,2.13L373.29,60Zm8.11,11.89-4.42,4.42L373,71.71l4.43-4.43Zm1.31,1.4L387,77.58,382.58,82l-4.15-4.43Zm1.39-1.39,3.64-3.65a43.43,43.43,0,0,1,4.21,4.36l-3.72,3.73Zm8.15,11.64L388,87.8l-4.12-4.41,4.4-4.41Zm1.3,1.39,4.09,4.39-4.38,4.4-4.1-4.39Zm1.38-1.39,2.65-2.66a52,52,0,0,1,2.68,5.81l-1.24,1.24Zm6,5.1c.24.7.47,1.4.68,2.12l-1.34-1.45Zm.22,34c-.27.8-.57,1.59-.88,2.37l-1.16-1.22,2.48-2.51C401.63,121.55,401.49,122,401.33,122.45Zm-4.84,10-2.92-3.08,4.35-4.39,1.69,1.78A43.9,43.9,0,0,1,396.49,132.46Zm-3,4.06c-.68.82-1.4,1.6-2.14,2.36l-3.54-3.7,4.36-4.41,3.18,3.34C394.77,134.94,394.15,135.74,393.51,136.52Zm-16.12,11.35-1.05-1.08,4.37-4.42,2.66,2.76c-.62.36-1.24.7-1.88,1A31.47,31.47,0,0,1,377.39,147.87Zm-14.79,1.69,1.15-1.15,1.29,1.33C364.22,149.71,363.41,149.65,362.6,149.56Zm-16.27-6,.6-.6,2.3,2.35C348.24,144.79,347.28,144.21,346.33,143.58Zm-6.17-5.06,1.21-1.21,4.23,4.32-.84.84A40.85,40.85,0,0,1,340.16,138.52ZM337.8,136a43,43,0,0,1-2.78-3.6l.77-.77,4.25,4.34-1.2,1.2C338.49,136.76,338.14,136.37,337.8,136Zm-5.43-7.87,2.07,2.13-.51.51Q333.11,129.45,332.37,128.1Zm-6.25-25.81c0-1.46.11-2.9.25-4.31l3,3.08-3.23,3.23C326.11,103.62,326.11,103,326.12,102.29ZM328.34,88l1.28,1.33-2.22,2.2C327.68,90.3,328,89.12,328.34,88Zm1.33-3.84a46.88,46.88,0,0,1,2.14-4.65l3.74,3.91L331,87.88l-2-2.07C329.25,85.24,329.46,84.68,329.67,84.13Zm6.84-11.84,5,5.21L337,82l-4.14-4.33A44.12,44.12,0,0,1,336.51,72.29Zm2.11-2.43a40.1,40.1,0,0,1,3.76-3.52l5,5.28-4.49,4.47-5.08-5.34Zm19.64-10.94.9,1-4.47,4.46-3.25-3.45A33.06,33.06,0,0,1,358.26,58.92Zm11.36,0,.95,1-4.45,4.43-4.21-4.5,1.46-1.46c1,0,2.07,0,3.12.1S368.59,58.76,369.62,58.94Zm16.8,7.91-3.49,3.49-4.15-4.46,2.58-2.57A40.36,40.36,0,0,1,386.42,66.85ZM396.75,79l-3,3-4.11-4.42,3.63-3.64A48.71,48.71,0,0,1,396.75,79Z"/><path class="cls-19" d="M337.44,65.83a41.79,41.79,0,0,1,6.86-5.89,41.41,41.41,0,0,0-8.61,7,48.32,48.32,0,0,0-9.61,15.33,55.76,55.76,0,0,0-3.82,19.51,56.61,56.61,0,0,0,3.2,19.88A51.59,51.59,0,0,0,334.81,138a43.69,43.69,0,0,0,13.89,10.9,37.8,37.8,0,0,0,16.73,3.91,36.39,36.39,0,0,0,16.31-3.88,38,38,0,0,0,4.44-2.61c-.88.53-1.78,1-2.69,1.48a36.43,36.43,0,0,1-16.31,3.89,37.75,37.75,0,0,1-16.74-3.92,43.73,43.73,0,0,1-13.88-10.89,51.34,51.34,0,0,1-9.35-16.3,56.54,56.54,0,0,1-3.2-19.88,55.53,55.53,0,0,1,3.82-19.5A48.32,48.32,0,0,1,337.44,65.83Z"/><path class="cls-15" d="M356,203.94a18.75,18.75,0,0,0,8,1.9,18,18,0,0,0,7.85-1.7,19.69,19.69,0,0,0,6.33-4.8,22.51,22.51,0,0,0,4.22-7.15,25.27,25.27,0,0,0,1.52-8.81,26,26,0,0,0-1.6-8.92A24.76,24.76,0,0,0,378,167a21.93,21.93,0,0,0-6.47-5.23,19.39,19.39,0,0,0-8-2.2,18.19,18.19,0,0,0-8.07,1.46,19.41,19.41,0,0,0-6.62,4.73,22.08,22.08,0,0,0-4.41,7.3,24.87,24.87,0,0,0-1.51,9.11,26.19,26.19,0,0,0,1.83,9.17,24.69,24.69,0,0,0,4.62,7.52A21.92,21.92,0,0,0,356,203.94Z"/><path class="cls-16" d="M381,173.24a25,25,0,0,0-4.34-7.45,22.1,22.1,0,0,0-6.48-5.22,19.23,19.23,0,0,0-8-2.19,18.12,18.12,0,0,0-8.08,1.46,19.37,19.37,0,0,0-6.61,4.73,22.21,22.21,0,0,0-4.42,7.31,25,25,0,0,0-1.5,9.1,26.24,26.24,0,0,0,1.83,9.18,25,25,0,0,0,4.63,7.51,22,22,0,0,0,6.68,5.07,18.75,18.75,0,0,0,8,1.9,17.88,17.88,0,0,0,7.85-1.71,19.69,19.69,0,0,0,6.33-4.8,22.51,22.51,0,0,0,4.22-7.15,25.08,25.08,0,0,0,1.51-8.81A26.09,26.09,0,0,0,381,173.24Z"/><path class="cls-11" d="M381,173.24a25,25,0,0,0-4.34-7.45,22.29,22.29,0,0,0-5.88-4.88,22.41,22.41,0,0,1,4.58,4.08,24.47,24.47,0,0,1,4.34,7.45,25.8,25.8,0,0,1,1.61,8.92,25.14,25.14,0,0,1-1.51,8.82,22.51,22.51,0,0,1-4.22,7.15,19.65,19.65,0,0,1-6.32,4.8,17.89,17.89,0,0,1-7.86,1.71,18.74,18.74,0,0,1-8-1.89c-.39-.19-.76-.39-1.13-.6a20.75,20.75,0,0,0,2.42,1.39,18.75,18.75,0,0,0,8,1.9,17.88,17.88,0,0,0,7.85-1.71,19.69,19.69,0,0,0,6.33-4.8,22.51,22.51,0,0,0,4.22-7.15,25.08,25.08,0,0,0,1.51-8.81A26.09,26.09,0,0,0,381,173.24Z"/><path class="cls-17" d="M376.41,175.08a19.34,19.34,0,0,0-3.39-5.77,17.07,17.07,0,0,0-5-4,15.07,15.07,0,0,0-6.21-1.67,14.12,14.12,0,0,0-6.23,1.15,15,15,0,0,0-5.1,3.68,17.12,17.12,0,0,0-3.39,5.64,19.39,19.39,0,0,0-1.17,7,20.42,20.42,0,0,0,1.4,7.08,19.28,19.28,0,0,0,3.56,5.81,16.74,16.74,0,0,0,5.15,3.94,14.77,14.77,0,0,0,6.19,1.5,13.87,13.87,0,0,0,6.1-1.31,15.05,15.05,0,0,0,4.92-3.71,17.23,17.23,0,0,0,3.29-5.55,19.55,19.55,0,0,0,1.17-6.85A20.33,20.33,0,0,0,376.41,175.08Z"/><path class="cls-16" d="M362.35,173.27a7,7,0,0,1,3,.79A8.27,8.27,0,0,1,367.8,176a9.27,9.27,0,0,1,1.66,2.8,9.76,9.76,0,0,1,.07,6.71,8.45,8.45,0,0,1-1.61,2.69,7.09,7.09,0,0,1-2.4,1.79,6.74,6.74,0,0,1-3,.62,7.19,7.19,0,0,1-3-.75,8.29,8.29,0,0,1-2.48-1.92,9.33,9.33,0,0,1-1.7-2.8,10.09,10.09,0,0,1-.66-3.41,9.6,9.6,0,0,1,.57-3.38,8.31,8.31,0,0,1,1.63-2.71,7.08,7.08,0,0,1,2.44-1.78A6.73,6.73,0,0,1,362.35,173.27Z"/><path class="cls-18" d="M358.37,188.73a9.51,9.51,0,0,1-1.7-2.81,9.8,9.8,0,0,1-.66-3.41,9.5,9.5,0,0,1,.57-3.37,8.29,8.29,0,0,1,1.63-2.72,7.35,7.35,0,0,1,2.44-1.78,6.7,6.7,0,0,1,3-.58,7.2,7.2,0,0,1,2.86.73,7.39,7.39,0,0,0-4.16-1.52,6.73,6.73,0,0,0-3,.58,7.08,7.08,0,0,0-2.44,1.78,8.31,8.31,0,0,0-1.63,2.71,9.6,9.6,0,0,0-.57,3.38,10.09,10.09,0,0,0,.66,3.41,9.33,9.33,0,0,0,1.7,2.8,8.29,8.29,0,0,0,2.48,1.92l.07,0A8.48,8.48,0,0,1,358.37,188.73Z"/><path class="cls-19" d="M349.56,198.66a25,25,0,0,1-4.63-7.52,26.46,26.46,0,0,1-1.82-9.18,24.85,24.85,0,0,1,1.51-9.1,22.08,22.08,0,0,1,4.41-7.3,19.41,19.41,0,0,1,6.62-4.73,18.21,18.21,0,0,1,8.08-1.46,19.39,19.39,0,0,1,8,2.2l.71.4a22.1,22.1,0,0,0-2.28-1.4,19.23,19.23,0,0,0-8-2.19,18.12,18.12,0,0,0-8.08,1.46,19.37,19.37,0,0,0-6.61,4.73,22.21,22.21,0,0,0-4.42,7.31,25,25,0,0,0-1.5,9.1,26.24,26.24,0,0,0,1.83,9.18,25,25,0,0,0,4.63,7.51,22,22,0,0,0,5.35,4.36A22.32,22.32,0,0,1,349.56,198.66Z"/><path class="cls-9" d="M305.93,321.18v.87a43.41,43.41,0,0,0,1,8.79,34,34,0,0,0,2.49,7.42,18.77,18.77,0,0,0,3.64,5.31,8.14,8.14,0,0,0,4.42,2.41l.45.07v-.89q-.06-5.87-.11-11.73c0-.29,0-.58,0-.87l-.44-.06a3.36,3.36,0,0,1-1.79-1,7.66,7.66,0,0,1-1.48-2.17,13.38,13.38,0,0,1-1-3,17.14,17.14,0,0,1-.4-3.58c0-.29,0-.58,0-.87l-.44-.05-5.86-.6Z"/><path class="cls-9" d="M315,36.59l-.48.08a8.84,8.84,0,0,0-4.41,2.27,17.45,17.45,0,0,0-3.62,4.85,30.44,30.44,0,0,0-2.54,6.79,40.73,40.73,0,0,0-1.16,8.15l0,1,.47-.06,6.24-.86.46-.06L310,58a15,15,0,0,1,.6-2.93,11.27,11.27,0,0,1,1.05-2.4A6.45,6.45,0,0,1,313,51a3.43,3.43,0,0,1,1.62-.8l.47-.08v-.88Q315,43.36,315,37.47Z"/><path class="cls-22" d="M303.19,60.34c0-.12,0-.24,0-.35v-.36l6.24-.85c0,.12,0,.23,0,.35s0,.24,0,.36v.71q1.46,130.82,2.83,261.62l-5.86-.6q-1.56-130.1-3.17-260.17c0-.12,0-.24,0-.36Z"/><path class="cls-22" d="M412,359.94q-46.9-8.67-94.1-14.78-.06-5.87-.11-11.73,47.32,5.6,94.37,13.75Q412.11,353.56,412,359.94Z"/><path class="cls-22" d="M416.12,37.9q-50.62,4.29-101,11.34c0-3.92-.07-7.84-.11-11.77Q365.5,29.9,416.28,25.09,416.21,31.49,416.12,37.9Z"/><path class="cls-22" d="M430.61,46.76v1.18q-2.28,144.75-4.62,289.5l-7.13-1.2Q420.95,192.36,423,48.47v-.39c0-.13,0-.26,0-.39s0-.26,0-.39,0-.26,0-.38l7.67-.55C430.61,46.5,430.61,46.63,430.61,46.76Z"/><path class="cls-9" d="M416.3,24.12l0,1q-.07,6.4-.16,12.81c0,.32,0,.63,0,1l.56,0a3.68,3.68,0,0,1,1.94.46,5.45,5.45,0,0,1,1.67,1.5,9,9,0,0,1,1.26,2.37,13.68,13.68,0,0,1,.73,3.07l.09.74.57,0,7.67-.55.59,0-.05-1.07a36.56,36.56,0,0,0-1.42-8.75,25,25,0,0,0-3.13-6.84,14,14,0,0,0-4.43-4.33,8.86,8.86,0,0,0-5.29-1.26Z"/><path class="cls-9" d="M418.33,336.16l0,1a16.68,16.68,0,0,1-.48,3.81,11.46,11.46,0,0,1-1.22,3,5.79,5.79,0,0,1-1.77,1.89,3.11,3.11,0,0,1-2.13.48l-.51-.07,0,.95q-.07,6.38-.16,12.76l0,1,.53.09a7.66,7.66,0,0,0,5.27-1,13.63,13.63,0,0,0,4.4-4.57,26.5,26.5,0,0,0,3.07-7.39,40.81,40.81,0,0,0,1.24-9.48l0-1-.54-.09-7.13-1.21Z"/><path class="cls-19" d="M303,55.46a37.15,37.15,0,0,1,.94-3.74,29,29,0,0,1,2.89-6.49,16,16,0,0,1,3.86-4.42A8.34,8.34,0,0,1,315,39.06c0-.53,0-1.06,0-1.59,0-.29,0-.59,0-.88l-.48.08a8.84,8.84,0,0,0-4.41,2.27,17.45,17.45,0,0,0-3.62,4.85,30.44,30.44,0,0,0-2.54,6.79A38.39,38.39,0,0,0,303,55.46Z"/><path class="cls-16" d="M321.33,242.12a51.67,51.67,0,0,1,9.07-16.29,43.5,43.5,0,0,1,13.91-11.14,39.26,39.26,0,0,1,17.58-4.19,40.77,40.77,0,0,1,18,4.22,47.05,47.05,0,0,1,15,11.75A55.38,55.38,0,0,1,405,244a61,61,0,0,1,3.45,21.43,60,60,0,0,1-4.12,21A52.08,52.08,0,0,1,394,303a42.65,42.65,0,0,1-14.78,10.35,37.64,37.64,0,0,1-17.49,2.75,40.2,40.2,0,0,1-17-5.41,49,49,0,0,1-13.67-12A58.11,58.11,0,0,1,321.77,282a62.45,62.45,0,0,1-3.54-20A59.29,59.29,0,0,1,321.33,242.12Z"/><path class="cls-17" d="M328.86,245.53a42.84,42.84,0,0,1,7.64-13.59,36.5,36.5,0,0,1,11.65-9.24,32.65,32.65,0,0,1,14.65-3.38,33.73,33.73,0,0,1,15,3.6,39.36,39.36,0,0,1,12.38,9.81,46.44,46.44,0,0,1,8.32,14.58,50.92,50.92,0,0,1,2.88,17.76A49.83,49.83,0,0,1,398,282.51a43.19,43.19,0,0,1-8.54,13.75,35.54,35.54,0,0,1-12.25,8.68,31.48,31.48,0,0,1-14.59,2.39,33.44,33.44,0,0,1-14.26-4.43,40.65,40.65,0,0,1-11.47-10,48.24,48.24,0,0,1-7.73-14,51.78,51.78,0,0,1-2.93-16.76A49.08,49.08,0,0,1,328.86,245.53Z"/><path class="cls-20" d="M362.22,245a14.67,14.67,0,0,0-6.69,1.39,16.58,16.58,0,0,0-5.42,4.14,19.78,19.78,0,0,0-3.62,6.24,22.54,22.54,0,0,0-1.3,7.72,23.59,23.59,0,0,0,1.35,7.81,21.8,21.8,0,0,0,3.62,6.48,18.36,18.36,0,0,0,5.37,4.53,15.34,15.34,0,0,0,6.6,1.89,14.64,14.64,0,0,0,6.66-1.25,16.39,16.39,0,0,0,5.49-4.06,19.7,19.7,0,0,0,3.76-6.25,22.88,22.88,0,0,0,1.42-7.83,23.25,23.25,0,0,0-1.31-7.94,21.52,21.52,0,0,0-3.7-6.58,18.22,18.22,0,0,0-5.5-4.51A15.5,15.5,0,0,0,362.22,245Z"/><path class="cls-18" d="M375,277a24.33,24.33,0,0,0,1.52-8.39,25.06,25.06,0,0,0-1.41-8.52,23,23,0,0,0-4-7.05,19.72,19.72,0,0,0-5.9-4.83,16.5,16.5,0,0,0-7.22-1.9,15.65,15.65,0,0,0-2.66.16l.17-.09a14.67,14.67,0,0,1,6.69-1.39A15.5,15.5,0,0,1,369,246.8a18.22,18.22,0,0,1,5.5,4.51,21.52,21.52,0,0,1,3.7,6.58,23.25,23.25,0,0,1,1.31,7.94,22.88,22.88,0,0,1-1.42,7.83,19.7,19.7,0,0,1-3.76,6.25,16.75,16.75,0,0,1-1.47,1.45A21.44,21.44,0,0,0,375,277Z"/><path class="cls-21" d="M321.47,282.24a58.67,58.67,0,0,0,9.31,17,49.4,49.4,0,0,0,13.83,12.12,40.72,40.72,0,0,0,17.21,5.47,38.12,38.12,0,0,0,17.7-2.78,43.42,43.42,0,0,0,14.94-10.47,52.62,52.62,0,0,0,10.47-16.71,60.55,60.55,0,0,0,4.17-21.27,61.86,61.86,0,0,0-3.49-21.67,56,56,0,0,0-10.19-17.76,47.6,47.6,0,0,0-15.14-11.88A41.08,41.08,0,0,0,362,210a39.58,39.58,0,0,0-17.78,4.23,44.12,44.12,0,0,0-14.07,11.27A52,52,0,0,0,321,242,59.8,59.8,0,0,0,317.89,262,62.9,62.9,0,0,0,321.47,282.24Zm53.82,22.61,4.89-4.86,5.26,5.56a38.6,38.6,0,0,1-6.05,3.65Zm28.91-31.8-4.6,4.59-4.68-4.86,4.9-4.88,4.47,4.62Zm-2.55-28.21c.51,1.43,1,2.9,1.35,4.39l-2.82,2.82-4.66-4.79,4.89-4.89.5.52C401.17,243.53,401.42,244.18,401.65,244.84Zm-39.29-28.57-4.79,4.83-4.5-4.65,2.77-2.8c1.2-.17,2.42-.28,3.65-.34Zm-34.75,38,4.75-4.8,4.46,4.72-4.77,4.8Zm2.94,6.23-4.76,4.8-4.43-4.73,4.75-4.79Zm44.55-5.14,4.61,4.79L374.85,265l-4.59-4.79Zm-6.29,3.35-4.56-4.77,4.83-4.84,4.58,4.76Zm4.51,7.83-4.85,4.86-4.57-4.81,4.83-4.84ZM362.46,265l-4.55-4.77,4.82-4.84,4.56,4.77Zm-6-6.28L352,254l4.8-4.83,4.54,4.75Zm4.45,7.81-4.82,4.84-4.53-4.79,4.81-4.83Zm-10.78-1.45-4.51-4.77,4.8-4.82,4.52,4.76Zm-5.93-6.26-4.48-4.74,4.78-4.81L349,254ZM346,247.79l4.78-4.82,4.52,4.72-4.8,4.82Zm6.3-6.34,4.79-4.83,4.53,4.71-4.81,4.83Zm10.75,1.37,4.56,4.74-4.83,4.84-4.54-4.74Zm1.52-1.53,4.82-4.84,4.57,4.73L369.16,246Zm10.84,1.38,4.59,4.75-4.85,4.86-4.58-4.76Zm6,6.26,4.62,4.78-4.86,4.86-4.61-4.78Zm6.09,6.29,4.64,4.8-4.88,4.88-4.63-4.81Zm-1.78,11.21-4.88,4.88-4.61-4.82,4.86-4.87Zm-6.41,6.41-4.87,4.86-4.59-4.82,4.85-4.86Zm-6.4,6.39-4.86,4.86-4.58-4.84,4.85-4.84Zm-10.88-1.5-4.56-4.81,4.83-4.84,4.57,4.81Zm-1.53,1.53-4.83,4.83-4.54-4.82,4.82-4.82Zm-10.8-1.5-4.51-4.8,4.8-4.81,4.53,4.78Zm-5.93-6.3-4.5-4.77,4.79-4.82,4.5,4.77Zm-5.91-6.28-4.47-4.74,4.77-4.8,4.48,4.74Zm-4.07-17.26,4.77-4.81,4.47,4.71-4.77,4.81Zm6.27-6.32,4.77-4.81,4.49,4.69-4.78,4.82Zm6.28-6.33,4.78-4.82,4.51,4.68L350.9,240Zm6.29-6.35,4.78-4.82,4.53,4.68-4.8,4.83Zm10.74,1.34L368,235l-4.81,4.84-4.53-4.71Zm1.52-1.53,4.81-4.84,4.56,4.69-4.83,4.85Zm10.81,1.33,4.59,4.72-4.84,4.86-4.58-4.72Zm6,6.22,4.61,4.74-4.86,4.87L377,241.14Zm6.07,6.24,4.63,4.77-4.87,4.88L383,247.39Zm6.1,6.28,4.66,4.79-4.89,4.89-4.65-4.8Zm4.36,17.57-4.89,4.88-4.66-4.83,4.89-4.88Zm-6.44,6.43L387,277.68l-4.64-4.85,4.88-4.87Zm-6.43,6.41-4.88,4.87L376,279.23l4.86-4.86Zm-6.42,6.41-4.88,4.86-4.6-4.86,4.86-4.86ZM372.64,292l-4.87,4.86L363.18,292l4.86-4.85Zm-10.9-1.55-4.56-4.84,4.83-4.84,4.58,4.84ZM360.21,292l-4.84,4.84L350.82,292l4.83-4.83Zm-10.82-1.54-4.52-4.83,4.81-4.82,4.54,4.82Zm-5.95-6.35L339,279.3l4.79-4.81,4.51,4.79Zm-5.91-6.31L333.05,273l4.78-4.81,4.49,4.78Zm-5.89-6.28-4.45-4.76L332,262l4.46,4.74Zm-1.5,1.51-4.77,4.79-4.07-4.36c0-.21-.09-.42-.13-.63l4.52-4.55Zm-9.42-2.66a59.35,59.35,0,0,1-.73-8.18l4.3,4.59ZM320,259a58.63,58.63,0,0,1,1-8.7l3.73,4Zm1.78-10.94,4.74-4.79L331,248l-4.75,4.79Zm6.23-6.3,4.75-4.8,4.45,4.68-4.76,4.81Zm6.25-6.31,4.75-4.8,4.47,4.67-4.77,4.81Zm1-11.79a41.28,41.28,0,0,1,5.35-4.19l3.25,3.38-4.76,4.81Zm10,.66,4.48,4.66L345,233.79l-4.46-4.67Zm1.5-1.52,4.77-4.82,4.5,4.66-4.78,4.82Zm4.5-8.18,1-.26-.63.64Zm12.5,3.13,4.54,4.67-4.81,4.84L359,222.57Zm1.52-1.53,2.35-2.37a37.39,37.39,0,0,1,6.6,1.78l.4.41-4.81,4.85Zm15.37,6-4.83,4.86-4.56-4.69,4.81-4.86Zm1.45,1.48,4.6,4.71-4.84,4.87-4.59-4.72Zm6.06,6.2,4.63,4.74L388,239.48l-4.61-4.74Zm6.09,6.23,4.65,4.77-4.88,4.88L389.41,241Zm9.3,15.54c.34,1.56.62,3.14.83,4.75l-2.75-2.82Zm1.19,8.32-4.88,4.87L395.22,260l4.89-4.89,4.65,4.78Zm-6.72,19.23-4.91,4.89-4.66-4.87,4.89-4.88Zm-6.46,6.43-4.9,4.87-4.64-4.87,4.88-4.87ZM385.15,292l-4.89,4.88L375.63,292l4.88-4.87ZM373.83,303.3l-4.61-4.89,4.87-4.86,4.62,4.89Zm-1.54,1.54-4.87,4.85-4.59-4.9,4.86-4.85Zm-10.91-1.59-4.57-4.88,4.84-4.85,4.59,4.88Zm-1.53,1.52L355,309.61l-4.56-4.89,4.84-4.83Zm-6.53,6.52a40,40,0,0,1-6.73-2.72l2.33-2.33,4.55,4.9Zm-8.84-13,4.82-4.82,4.54,4.85L349,303.18Zm-1.42-1.53L338.55,292l4.8-4.81,4.52,4.83Zm-1.52,1.52-4,4a46.9,46.9,0,0,1-4.6-4.74l4.06-4.07Zm-8.89-12.69,4.78-4.8,4.5,4.8-4.8,4.81Zm-1.41-1.51-4.46-4.79,4.77-4.8,4.47,4.79Zm-1.51,1.51-2.89,2.9a56.9,56.9,0,0,1-2.92-6.33l1.35-1.36Zm-6.59-5.56c-.26-.76-.5-1.53-.73-2.31l1.46,1.58Zm-.24-37c.3-.88.62-1.74,1-2.59l1.26,1.34-2.71,2.73C322.57,244,322.73,243.53,322.9,243Zm5.28-10.91,3.19,3.35-4.75,4.79-1.84-1.94A48,48,0,0,1,328.18,232.13Zm3.25-4.43c.75-.89,1.52-1.75,2.33-2.57l3.86,4-4.75,4.8-3.47-3.64C330.05,229.43,330.73,228.55,331.43,227.7ZM349,215.32l1.15,1.19-4.77,4.81-2.89-3q1-.58,2-1.11A39.9,39.9,0,0,1,349,215.32Zm16.12-1.84-1.24,1.26-1.41-1.45C363.36,213.33,364.25,213.39,365.12,213.48ZM382.86,220l-.65.65-2.51-2.56C380.78,218.68,381.83,219.32,382.86,220Zm6.72,5.52-1.31,1.33-4.61-4.71.92-.93A45.16,45.16,0,0,1,389.58,225.52Zm2.58,2.78c1.07,1.24,2.08,2.56,3,3.92l-.85.85-4.63-4.74L391,227C391.41,227.44,391.79,227.87,392.16,228.3Zm5.92,8.58-2.26-2.32.56-.56C397,234.94,397.54,235.9,398.08,236.88ZM404.9,265q0,2.39-.27,4.71l-3.26-3.37,3.52-3.51C404.9,263.56,404.91,264.29,404.9,265Zm-2.43,15.62-1.39-1.45,2.41-2.4C403.2,278.09,402.86,279.37,402.47,280.63ZM401,284.81a50.77,50.77,0,0,1-2.33,5.07l-4.08-4.26,4.92-4.89L401.7,283C401.48,283.6,401.26,284.21,401,284.81Zm-7.45,12.91L388.16,292l4.9-4.88,4.52,4.72A48.19,48.19,0,0,1,393.57,297.72Zm-2.3,2.65a43.37,43.37,0,0,1-4.1,3.83l-5.45-5.75,4.9-4.87,5.53,5.82C391.86,299.73,391.57,300.05,391.27,300.37Zm-21.41,11.92-1-1.05,4.88-4.85,3.54,3.75A35.52,35.52,0,0,1,369.86,312.29Zm-12.38,0-1-1.11,4.85-4.84,4.59,4.9-1.6,1.6c-1.12,0-2.26,0-3.4-.11S358.6,312.47,357.48,312.27Zm-18.32-8.62,3.8-3.81,4.53,4.87-2.81,2.8A43.09,43.09,0,0,1,339.16,303.65ZM327.9,290.39l3.24-3.25,4.48,4.81-4,4A52.15,52.15,0,0,1,327.9,290.39Z"/><polyline class="cls-15" points="426.53 337.54 477.83 320.35 484.29 90.55 428.08 207.65 426.53 337.54 478.32 320.44 426.27 337.49"/><path class="cls-10" d="M429.41,353.82a9.66,9.66,0,0,0,1.81-2.88,13,13,0,0,0,1.34-3.76,15.53,15.53,0,0,0,.2-4.34l-.05-.53c14-4.75,30.59-9.77,44.74-14.24,0,.15-.39,1.3-.38,1.45a22.91,22.91,0,0,1-1.23,3.4,35.71,35.71,0,0,1-2.11,3.64,10.29,10.29,0,0,1-5.22,3.93c-14.27,5.06-28.71,11.07-42.8,16.41C426.83,356.48,428.51,354.63,429.41,353.82Z"/></svg>