<svg id="Layer_1" data-name="Layer 1" xmlns="http://www.w3.org/2000/svg" viewBox="0 0 256 80"><defs><style>.cls-1{fill:#282828;}</style></defs><path class="cls-1" d="M62.7,62V37A10.24,10.24,0,0,0,62.05,33a5.72,5.72,0,0,0-1.55-2.17A3.84,3.84,0,0,0,58.6,30a11.75,11.75,0,0,0-1.7-.15,9.92,9.92,0,0,0-2.1.39,7.07,7.07,0,0,0-3,1.83A12.49,12.49,0,0,0,49,36.26a19.4,19.4,0,0,0-1.2,7.52V62H34.5V32.92a49.7,49.7,0,0,0-.6-7.59,24.46,24.46,0,0,0-1.6-6.13H45.6a19.52,19.52,0,0,1,.85,2.3c.17.6.35,1.47.55,2.6a20.76,20.76,0,0,1,6.86-4.6A19.78,19.78,0,0,1,61.31,18a14.41,14.41,0,0,1,5.82,1.17,13.81,13.81,0,0,1,4.66,3.26,15.1,15.1,0,0,1,3.09,5.16A19.78,19.78,0,0,1,76,34.45V62Z"/><path class="cls-1" d="M133.3,39.86a25.42,25.42,0,0,1-1.64,9.47A19,19,0,0,1,127,56.25a20.11,20.11,0,0,1-7.27,4.29,31.05,31.05,0,0,1-18.82,0,20.11,20.11,0,0,1-7.27-4.29,19.51,19.51,0,0,1-4.73-6.92,24.62,24.62,0,0,1-1.69-9.47,24.47,24.47,0,0,1,1.64-9.23,19.29,19.29,0,0,1,4.63-6.88,19.54,19.54,0,0,1,7.27-4.29,32.07,32.07,0,0,1,19-.05,20.07,20.07,0,0,1,7.27,4.2,18.57,18.57,0,0,1,4.68,6.87A25.19,25.19,0,0,1,133.3,39.86Zm-13.3,0a10,10,0,0,0-2.68-7.42,9.82,9.82,0,0,0-7.22-2.65q-4.65,0-7.12,2.65t-2.48,7.42q0,4.93,2.42,7.64t7.18,2.69q4.74,0,7.32-2.65C119.14,45.79,120,43.22,120,39.87Z"/><path class="cls-1" d="M175.3,49.8a12.59,12.59,0,0,1-4.24,10q-4.23,3.71-11.91,3.7a49.71,49.71,0,0,1-10.15-1,30.13,30.13,0,0,1-8-2.7l1.7-10.2q8.7,4.5,15.2,4.5a4.35,4.35,0,0,0,3.15-1A3,3,0,0,0,162,51a3.83,3.83,0,0,0-.75-2.45,11.48,11.48,0,0,0-3.65-2.35,60.25,60.25,0,0,1-7-3.6,23.15,23.15,0,0,1-4.8-3.75,12.76,12.76,0,0,1-2.7-4.15,13.72,13.72,0,0,1-.85-5A11.28,11.28,0,0,1,147,20q4.84-3.45,12.64-3.45a39.14,39.14,0,0,1,7.45.65,34.09,34.09,0,0,1,7.47,2.55L173,29.8a23.86,23.86,0,0,0-6.88-2.75,30.81,30.81,0,0,0-6.57-.75,4.51,4.51,0,0,0-3.18.85,3,3,0,0,0-.86,2.25,3.32,3.32,0,0,0,1.37,2.75,28.21,28.21,0,0,0,5.33,2.75,62.48,62.48,0,0,1,6.07,3.45,21.26,21.26,0,0,1,4.09,3.4,10.94,10.94,0,0,1,2.27,3.7A13.51,13.51,0,0,1,175.3,49.8Z"/><path class="cls-1" d="M223.7,30.1a11.38,11.38,0,0,1-1.78,6.2,14.83,14.83,0,0,1-5,4.75,27.59,27.59,0,0,1-7.79,3.05,43.6,43.6,0,0,1-10.19,1.1c-.35,0-.75,0-1.2-.05s-1,0-1.62,0a9.23,9.23,0,0,0,3,5.95,9.52,9.52,0,0,0,6.47,2.15q6.94,0,14.73-4.5V59.2a28.75,28.75,0,0,1-7.25,3.15,30.54,30.54,0,0,1-7.85.95,25.87,25.87,0,0,1-9-1.5,18.36,18.36,0,0,1-6.85-4.35,19.38,19.38,0,0,1-4.3-6.8,25.07,25.07,0,0,1-1.5-8.95,27.69,27.69,0,0,1,1.75-10.05,23.3,23.3,0,0,1,4.9-7.85,21.54,21.54,0,0,1,7.55-5.1,25.35,25.35,0,0,1,9.7-1.8q7.4,0,11.85,3.6A11.74,11.74,0,0,1,223.7,30.1Zm-13.3,1A3.49,3.49,0,0,0,209,28.35a5.2,5.2,0,0,0-3.46-1.15,7.89,7.89,0,0,0-5.7,2.35A11.2,11.2,0,0,0,196.8,36a8.74,8.74,0,0,0,1.59.2h1.48Q210.4,36.2,210.4,31.1Z"/></svg>