<svg id="Layer_1" data-name="Layer 1" xmlns="http://www.w3.org/2000/svg" viewBox="0 0 256 80"><defs><style>.cls-1{fill:#282828;}</style></defs><path class="cls-1" d="M77.75,61.9a12.61,12.61,0,0,1-4.23,10q-4.24,3.7-11.92,3.7a49.71,49.71,0,0,1-10.15-1,30.26,30.26,0,0,1-8-2.7l1.7-10.2q8.7,4.5,15.2,4.5a4.35,4.35,0,0,0,3.15-1,3,3,0,0,0,1-2.15,3.83,3.83,0,0,0-.75-2.45,11.48,11.48,0,0,0-3.65-2.35,60.25,60.25,0,0,1-7-3.6A23.15,23.15,0,0,1,48.2,51a12.76,12.76,0,0,1-2.7-4.15,13.72,13.72,0,0,1-.85-5,11.26,11.26,0,0,1,4.84-9.75q4.83-3.45,12.63-3.45a39.14,39.14,0,0,1,7.45.65A34.09,34.09,0,0,1,77,31.8l-1.6,10.1a23.86,23.86,0,0,0-6.88-2.75A30.81,30.81,0,0,0,62,38.4a4.51,4.51,0,0,0-3.18.85A3,3,0,0,0,58,41.5a3.32,3.32,0,0,0,1.37,2.75A28.21,28.21,0,0,0,64.65,47a61.31,61.31,0,0,1,6.07,3.45,21.26,21.26,0,0,1,4.09,3.4,10.78,10.78,0,0,1,2.27,3.7A13.24,13.24,0,0,1,77.75,61.9Z"/><path class="cls-1" d="M114.25,48.1l21.3,26H118l-16.6-21.7V74.1H88.05V4.4h13.3V44.6l16.2-14.5h19.1Z"/><path class="cls-1" d="M160,18a5.53,5.53,0,0,1-2.3,4.46,9.27,9.27,0,0,1-11.1-.05,6,6,0,0,1-2.4-4.58,5.38,5.38,0,0,1,2.2-4.58,9.53,9.53,0,0,1,8.75-1.36,8,8,0,0,1,2.5,1.4,7,7,0,0,1,1.7,2.12A5.53,5.53,0,0,1,160,18ZM145,74.1v-44h13.3v44Z"/><path class="cls-1" d="M199.25,74.1v-25a10.24,10.24,0,0,0-.65-4.05,5.91,5.91,0,0,0-1.55-2.17,3.88,3.88,0,0,0-1.9-.86,11.87,11.87,0,0,0-1.7-.15,9.92,9.92,0,0,0-2.1.39,7.07,7.07,0,0,0-3,1.83,12.34,12.34,0,0,0-2.75,4.24,19.4,19.4,0,0,0-1.2,7.52V74.1h-13.3V45a49.7,49.7,0,0,0-.6-7.59,24.9,24.9,0,0,0-1.6-6.13h13.3a19.52,19.52,0,0,1,.85,2.3c.16.6.35,1.47.55,2.6a20.66,20.66,0,0,1,6.86-4.6,19.76,19.76,0,0,1,7.44-1.5,14.49,14.49,0,0,1,5.83,1.17,13.81,13.81,0,0,1,4.66,3.26,15.17,15.17,0,0,1,3.08,5.16,19.78,19.78,0,0,1,1.13,6.86V74.1Z"/></svg>