<svg id="Layer_1" data-name="Layer 1" xmlns="http://www.w3.org/2000/svg" viewBox="0 0 256 80"><defs><style>.cls-1{fill:#282828;}</style></defs><path class="cls-1" d="M78.05,16a11.29,11.29,0,0,1-1.78,6.2,14.73,14.73,0,0,1-5,4.75A27.52,27.52,0,0,1,63.47,30a43.69,43.69,0,0,1-10.2,1.1c-.35,0-.75,0-1.2-.05s-1-.05-1.62-.05a9.23,9.23,0,0,0,3,5.95,9.52,9.52,0,0,0,6.47,2.15q6.94,0,14.73-4.5v10.5A28.6,28.6,0,0,1,67.4,48.2a30.48,30.48,0,0,1-7.85.95,25.91,25.91,0,0,1-9-1.5,18.44,18.44,0,0,1-6.85-4.35,19.38,19.38,0,0,1-4.3-6.8,25.07,25.07,0,0,1-1.5-8.95,27.69,27.69,0,0,1,1.75-10,23.46,23.46,0,0,1,4.9-7.85,21.64,21.64,0,0,1,7.55-5.1,25.39,25.39,0,0,1,9.7-1.8q7.4,0,11.85,3.6A11.71,11.71,0,0,1,78.05,16Zm-13.3,1a3.49,3.49,0,0,0-1.37-2.75,5.2,5.2,0,0,0-3.46-1.15,7.89,7.89,0,0,0-5.7,2.35,11.2,11.2,0,0,0-3.07,6.45,8.74,8.74,0,0,0,1.59.2h1.48Q64.75,22.05,64.75,17Z"/><path class="cls-1" d="M125.64,62.24a21.65,21.65,0,0,1-4.37,9.19,15.62,15.62,0,0,1-7.58,4.83,38.55,38.55,0,0,1-11,1.39A32.55,32.55,0,0,1,96.21,77a67.31,67.31,0,0,1-6.74-1.75v-10q3.32.26,6.27.42c2,.11,3.93.16,5.87.16a14.3,14.3,0,0,0,5.37-.92,8.19,8.19,0,0,0,3.71-3,14.6,14.6,0,0,0,2.11-5.55,47.17,47.17,0,0,0,.65-8.5v-5.4a17.16,17.16,0,0,1-12.5,5.4,14.53,14.53,0,0,1-5.75-1.17,13.46,13.46,0,0,1-4.75-3.38A16.76,16.76,0,0,1,87.25,38a19.11,19.11,0,0,1-1.2-7q0-3.51.1-6.74c.07-2.15.1-4.31.1-6.46s0-4.36,0-6.65-.15-4.72-.35-7.33h13.3q.3,4,.35,7.37c0,2.26,0,4.4,0,6.4s-.07,3.93-.1,5.77-.05,3.67-.05,5.48c0,2.53.49,4.35,1.48,5.48a5.33,5.33,0,0,0,4.24,1.7,8.08,8.08,0,0,0,6.13-2.76,10.53,10.53,0,0,0,2.55-7.42v-22h13.3v44A61.79,61.79,0,0,1,125.64,62.24Z"/><path class="cls-1" d="M178.05,16a11.29,11.29,0,0,1-1.78,6.2,14.83,14.83,0,0,1-5,4.75A27.47,27.47,0,0,1,163.46,30a43.54,43.54,0,0,1-10.19,1.1c-.35,0-.75,0-1.2-.05s-1-.05-1.62-.05a9.23,9.23,0,0,0,3,5.95,9.52,9.52,0,0,0,6.47,2.15q6.95,0,14.73-4.5v10.5a28.6,28.6,0,0,1-7.25,3.15,30.48,30.48,0,0,1-7.85.95,25.87,25.87,0,0,1-9.05-1.5,18.44,18.44,0,0,1-6.85-4.35,19.38,19.38,0,0,1-4.3-6.8,25.07,25.07,0,0,1-1.5-8.95,27.69,27.69,0,0,1,1.75-10,23.46,23.46,0,0,1,4.9-7.85,21.64,21.64,0,0,1,7.55-5.1,25.35,25.35,0,0,1,9.7-1.8q7.4,0,11.85,3.6A11.71,11.71,0,0,1,178.05,16Zm-13.3,1a3.49,3.49,0,0,0-1.37-2.75,5.2,5.2,0,0,0-3.46-1.15,7.89,7.89,0,0,0-5.7,2.35,11.2,11.2,0,0,0-3.07,6.45,8.74,8.74,0,0,0,1.59.2h1.48Q164.75,22.05,164.75,17Z"/><path class="cls-1" d="M218.15,35.65a12.59,12.59,0,0,1-4.24,10q-4.23,3.7-11.91,3.7a49.71,49.71,0,0,1-10.15-1,30.13,30.13,0,0,1-8-2.7l1.7-10.2q8.7,4.5,15.2,4.5a4.38,4.38,0,0,0,3.15-1,3,3,0,0,0,.95-2.15,3.83,3.83,0,0,0-.75-2.45,11.48,11.48,0,0,0-3.65-2.35,59.46,59.46,0,0,1-7-3.6,23.15,23.15,0,0,1-4.8-3.75,12.6,12.6,0,0,1-2.7-4.15,13.72,13.72,0,0,1-.85-5,11.28,11.28,0,0,1,4.83-9.75q4.85-3.45,12.63-3.45A39,39,0,0,1,210,3a34,34,0,0,1,7.48,2.55l-1.6,10.1A24,24,0,0,0,209,12.9a30.81,30.81,0,0,0-6.57-.75,4.51,4.51,0,0,0-3.18.85,3,3,0,0,0-.86,2.25A3.32,3.32,0,0,0,199.72,18a28.21,28.21,0,0,0,5.33,2.75,62.48,62.48,0,0,1,6.07,3.45,21.26,21.26,0,0,1,4.09,3.4,10.75,10.75,0,0,1,2.26,3.7A13.23,13.23,0,0,1,218.15,35.65Z"/></svg>