<svg xmlns="http://www.w3.org/2000/svg" xmlns:xlink="http://www.w3.org/1999/xlink" width="619.88" height="562.43" viewBox="0 0 619.88 562.43">
  <defs>
    <style>
      .cls-1, .cls-17, .cls-92 {
        fill: none;
      }

      .cls-2 {
        isolation: isolate;
      }

      .cls-3 {
        fill: #fff;
      }

      .cls-4 {
        clip-path: url(#clip-path);
      }

      .cls-5 {
        fill: #c4b7a3;
      }

      .cls-6 {
        fill: #80ddda;
      }

      .cls-7 {
        fill: #f0b081;
      }

      .cls-8 {
        fill: #794d3b;
      }

      .cls-9 {
        fill: #5c3829;
      }

      .cls-10, .cls-15 {
        fill: #818dbd;
      }

      .cls-11 {
        fill: #d46255;
        fill-rule: evenodd;
      }

      .cls-12 {
        font-size: 61.56px;
      }

      .cls-12, .cls-13, .cls-16 {
        fill: #34a2a2;
      }

      .cls-12, .cls-13, .cls-14, .cls-16 {
        stroke: #f9f9f9;
      }

      .cls-101, .cls-104, .cls-12, .cls-13, .cls-14, .cls-15, .cls-16, .cls-17, .cls-19, .cls-76, .cls-77, .cls-78, .cls-84, .cls-89, .cls-92, .cls-95 {
        stroke-miterlimit: 10;
      }

      .cls-12, .cls-13, .cls-14, .cls-15, .cls-16 {
        font-family: CoopHeavy;
      }

      .cls-13 {
        font-size: 51.4px;
      }

      .cls-14 {
        font-size: 52.32px;
        fill: #da717c;
      }

      .cls-15 {
        font-size: 50.55px;
        stroke: #f9f7f8;
      }

      .cls-16 {
        font-size: 47.2px;
      }

      .cls-17 {
        stroke: #826f6f;
        stroke-width: 3px;
      }

      .cls-18 {
        fill: #2d3c42;
      }

      .cls-19 {
        fill: #020202;
        stroke: #211e1f;
        opacity: 0.2;
      }

      .cls-20 {
        opacity: 0.3;
      }

      .cls-21 {
        fill: #89513a;
      }

      .cls-22 {
        fill: #686c70;
        stroke: #211f1c;
      }

      .cls-22, .cls-23, .cls-24, .cls-25, .cls-26 {
        stroke-linejoin: round;
      }

      .cls-101, .cls-22, .cls-23, .cls-24, .cls-25, .cls-26, .cls-78 {
        stroke-width: 0.75px;
      }

      .cls-23, .cls-77, .cls-81 {
        fill: #df71e2;
      }

      .cls-23 {
        stroke: #710e7c;
      }

      .cls-24 {
        fill: #f9dad2;
        stroke: #7f430d;
      }

      .cls-25 {
        fill: #9b959a;
        stroke: #423a33;
      }

      .cls-26 {
        fill: #311415;
        stroke: #190500;
      }

      .cls-27 {
        fill: #8d653d;
      }

      .cls-28 {
        fill: #a76f43;
      }

      .cls-29 {
        fill: #c47947;
      }

      .cls-30 {
        opacity: 0.12;
      }

      .cls-31 {
        fill: #d68549;
      }

      .cls-32 {
        fill: #ea9c47;
      }

      .cls-33 {
        fill: #f9c273;
      }

      .cls-34 {
        fill: #dadada;
      }

      .cls-35 {
        fill: #2f6b7f;
      }

      .cls-36 {
        fill: #295368;
      }

      .cls-37 {
        fill: #1c3d51;
      }

      .cls-38 {
        fill: #7fb5d3;
      }

      .cls-39 {
        fill: #b2b2b2;
      }

      .cls-40 {
        fill: #d6d6d6;
      }

      .cls-41 {
        fill: #5c9bb7;
      }

      .cls-42 {
        fill: #98cbe2;
      }

      .cls-43 {
        fill: #3a7893;
      }

      .cls-44 {
        fill: #f9f9f9;
      }

      .cls-45 {
        fill: #adadad;
      }

      .cls-46 {
        fill: #d86532;
      }

      .cls-47 {
        fill: #ebe9df;
      }

      .cls-48 {
        fill: #e0ddc9;
      }

      .cls-49 {
        fill: #f78e59;
      }

      .cls-50 {
        fill: #334e5c;
      }

      .cls-51 {
        fill: #22343d;
      }

      .cls-52 {
        fill: #efca58;
      }

      .cls-53 {
        fill: #ee3a59;
      }

      .cls-54 {
        fill: #46b29e;
      }

      .cls-55 {
        fill: #d1a730;
      }

      .cls-56 {
        fill: #dedede;
        mix-blend-mode: multiply;
      }

      .cls-57 {
        fill: #2b8e7b;
      }

      .cls-58 {
        fill: #d35c20;
      }

      .cls-59 {
        fill: #f4743b;
      }

      .cls-60 {
        fill: #cc8527;
      }

      .cls-61 {
        fill: #ffc776;
      }

      .cls-62 {
        fill: #aa4518;
      }

      .cls-63 {
        fill: #ffecae;
      }

      .cls-64 {
        fill: #ff3636;
      }

      .cls-65 {
        fill: url(#linear-gradient);
      }

      .cls-66 {
        fill: #ff4848;
      }

      .cls-67 {
        opacity: 0.27;
      }

      .cls-68 {
        fill: #6b28a0;
      }

      .cls-69 {
        fill: url(#linear-gradient-2);
      }

      .cls-70 {
        fill: #9a4ccc;
      }

      .cls-71 {
        fill: #ffb000;
      }

      .cls-72 {
        fill: #e5d8c0;
      }

      .cls-73 {
        fill: url(#linear-gradient-3);
      }

      .cls-74 {
        fill: #ffc826;
      }

      .cls-75 {
        fill: #51b77d;
      }

      .cls-76, .cls-78, .cls-79, .cls-89 {
        fill: #f7d8d0;
      }

      .cls-76, .cls-78 {
        stroke: #4a2811;
      }

      .cls-77 {
        stroke: #501c54;
      }

      .cls-104, .cls-77, .cls-89, .cls-92 {
        stroke-width: 0.5px;
      }

      .cls-80 {
        fill: #4a2811;
      }

      .cls-82 {
        fill: #501c54;
      }

      .cls-83 {
        fill: #941d27;
      }

      .cls-84 {
        fill: #f2e9e7;
        stroke: #664138;
      }

      .cls-85 {
        fill: #f5958d;
      }

      .cls-86 {
        fill: #f2756e;
      }

      .cls-87 {
        fill: #d7a89d;
      }

      .cls-88 {
        fill: #3d2e17;
      }

      .cls-89 {
        stroke: #6b3612;
      }

      .cls-90 {
        fill: #e8bdb5;
      }

      .cls-91 {
        fill: #472d27;
      }

      .cls-92 {
        stroke: #323232;
      }

      .cls-93 {
        fill: #342517;
      }

      .cls-94 {
        fill: #b16b51;
      }

      .cls-95 {
        fill: #e7d760;
        stroke: #baa63c;
      }

      .cls-96 {
        fill: #f48678;
      }

      .cls-97 {
        fill: #ef9884;
      }

      .cls-98 {
        fill: #e9b7ac;
      }

      .cls-99 {
        fill: #ae4c5b;
      }

      .cls-100 {
        fill: #ef4b3b;
      }

      .cls-101 {
        fill: #e16faa;
      }

      .cls-101, .cls-104 {
        stroke: #ae2085;
      }

      .cls-102 {
        fill: #faf079;
      }

      .cls-103 {
        fill: #c5248e;
      }

      .cls-104 {
        fill: #d35ba1;
      }
    </style>
    <clipPath id="clip-path">
      <rect class="cls-1" x="40.05" y="56.3" width="539.79" height="449.82" rx="116.93"/>
    </clipPath>
    <linearGradient id="linear-gradient" x1="443.12" y1="14197.68" x2="438.93" y2="14189.59" gradientTransform="matrix(1.52, 0.01, 0, -0.34, -292, 5144.59)" gradientUnits="userSpaceOnUse">
      <stop offset="0" stop-color="#dcc499"/>
      <stop offset="1" stop-color="#e5d8c0"/>
    </linearGradient>
    <linearGradient id="linear-gradient-2" x1="-13506.53" y1="14136.65" x2="-13511.2" y2="14127.63" gradientTransform="matrix(-1.09, 0.03, -0.01, -0.3, -14087.38, 4962)" xlink:href="#linear-gradient"/>
    <linearGradient id="linear-gradient-3" x1="-14720.49" y1="7443.51" x2="-14719.86" y2="7442.39" gradientTransform="matrix(-0.95, 0.05, -0.04, -0.74, -13239.63, 6592.22)" xlink:href="#linear-gradient"/>
  </defs>
  <g class="cls-2">
    <g id="Layer_1" data-name="Layer 1">
      <g>
        <rect class="cls-3" x="30.65" y="47.2" width="558.58" height="468.03" rx="124.49"/>
        <g class="cls-4">
          <g>
            <g>
              <rect class="cls-3" x="-75.32" y="387.22" width="977.19" height="45.49"/>
              <rect class="cls-5" x="-58.15" y="427.03" width="936.56" height="97.3"/>
              <rect class="cls-6" x="-58.15" y="-39.02" width="936.56" height="457.78"/>
            </g>
            <g>
              <g>
                <rect class="cls-7" x="129.01" y="44.23" width="141.84" height="170.84"/>
                <rect class="cls-8" x="139.08" y="56.35" width="121.71" height="146.59"/>
                <polygon class="cls-9" points="258.14 56.35 258.14 199.7 139.08 199.7 139.08 202.94 260.78 202.94 260.78 56.35 258.14 56.35"/>
                <g>
                  <path class="cls-3" d="M185.16,121.72l.09-.87a16.62,16.62,0,0,1,2.08-6.52,40.72,40.72,0,0,1,6.65-7.94,44.45,44.45,0,0,0,4.7-5.18,6.46,6.46,0,0,0,1.07-3.36,3.7,3.7,0,0,0-.83-2.64,3,3,0,0,0-2.36-.89,3,3,0,0,0-2.36.94,5.5,5.5,0,0,0-1,3.39l0,.81-7.27-.78.08-.78c.36-3.63,1.55-6.29,3.52-7.91a11.12,11.12,0,0,1,7.26-2.39,10.15,10.15,0,0,1,7.53,2.8,9.61,9.61,0,0,1,2.79,7,12.62,12.62,0,0,1-.79,4.46,18.39,18.39,0,0,1-2.42,4.34,38.94,38.94,0,0,1-3.88,4.23c-1.81,1.78-3,3-3.42,3.52q-.18.21-.33.42H207v7.34Z"/>
                  <path class="cls-10" d="M206.3,115.17v5.77H186a15.81,15.81,0,0,1,2-6.21,40.5,40.5,0,0,1,6.52-7.77,42.59,42.59,0,0,0,4.8-5.31,7.15,7.15,0,0,0,1.2-3.8,4.55,4.55,0,0,0-1-3.2,4.22,4.22,0,0,0-5.77.06,6.32,6.32,0,0,0-1.24,3.89L186.66,98q.51-5.13,3.24-7.36a10.36,10.36,0,0,1,6.81-2.24,9.47,9.47,0,0,1,7,2.59,8.82,8.82,0,0,1,2.56,6.44,11.89,11.89,0,0,1-.74,4.17,17.14,17.14,0,0,1-2.32,4.14,38.14,38.14,0,0,1-3.79,4.14q-2.74,2.7-3.48,3.58a10.44,10.44,0,0,0-1.18,1.73Z"/>
                  <polygon class="cls-11" points="195.56 84.1 195.92 84.09 196.1 84.11 196.12 84.4 196.16 84.89 196.21 84.42 196.25 84.11 196.45 84.13 196.78 84.12 196.82 84.61 196.9 84.15 197.55 84.18 197.55 84.31 197.59 84.8 197.64 84.33 197.67 84.18 198.26 84.2 198.08 89.97 197.19 89.94 197.16 89.64 197.11 89.18 197.07 89.65 197.01 89.92 196.39 89.89 196.34 89.3 196.27 89.9 195.76 89.9 195.74 89.44 195.69 88.98 195.64 89.45 195.58 89.88 195.37 89.86 195.56 84.1"/>
                </g>
                <text class="cls-12" transform="translate(153.42 113.75) scale(0.93 1)">1</text>
                <polygon class="cls-11" points="161.06 70.89 161.43 70.89 161.6 70.9 161.63 71.19 161.67 71.69 161.71 71.22 161.75 70.91 161.96 70.92 162.29 70.91 162.33 71.4 162.4 70.94 163.06 70.98 163.06 71.11 163.1 71.6 163.14 71.13 163.18 70.97 163.77 71 163.59 76.76 162.69 76.73 162.67 76.43 162.62 75.97 162.58 76.44 162.52 76.72 161.89 76.69 161.84 76.1 161.77 76.69 161.26 76.69 161.24 76.23 161.19 75.77 161.15 76.24 161.09 76.68 160.88 76.66 161.06 70.89"/>
                <text class="cls-13" transform="translate(225.39 109.08) scale(0.92 1)">3</text>
                <text class="cls-14" transform="translate(147.47 185.1) scale(0.93 1)">4</text>
                <polygon class="cls-11" points="235.68 71.42 236.04 71.42 236.22 71.43 236.24 71.72 236.28 72.22 236.33 71.75 236.37 71.44 236.57 71.45 236.9 71.44 236.95 71.93 237.02 71.47 237.67 71.51 237.67 71.64 237.71 72.13 237.76 71.66 237.79 71.5 238.38 71.53 238.2 77.29 237.31 77.26 237.28 76.96 237.23 76.5 237.19 76.97 237.13 77.25 236.51 77.22 236.46 76.63 236.39 77.22 235.88 77.22 235.86 76.77 235.81 76.3 235.76 76.77 235.7 77.21 235.49 77.19 235.68 71.42"/>
                <polygon class="cls-11" points="162.71 146.71 163.07 146.7 163.25 146.71 163.27 147.01 163.31 147.5 163.36 147.03 163.4 146.72 163.6 146.74 163.93 146.73 163.98 147.22 164.05 146.75 164.7 146.79 164.7 146.92 164.74 147.41 164.79 146.94 164.82 146.79 165.41 146.81 165.23 152.58 164.34 152.54 164.31 152.25 164.26 151.79 164.22 152.26 164.16 152.53 163.54 152.5 163.49 151.91 163.42 152.5 162.91 152.5 162.89 152.05 162.84 151.59 162.79 152.06 162.73 152.49 162.52 152.47 162.71 146.71"/>
                <g>
                  <text class="cls-15" transform="translate(226.01 185.12) scale(0.93 1)">6</text>
                  <polygon class="cls-11" points="239.61 147.97 239.97 147.97 240.15 147.98 240.17 148.28 240.22 148.77 240.26 148.3 240.3 147.99 240.5 148 240.84 147.99 240.88 148.49 240.95 148.02 241.6 148.06 241.6 148.19 241.65 148.68 241.69 148.21 241.72 148.06 242.32 148.08 242.13 153.84 241.24 153.81 241.22 153.51 241.17 153.05 241.12 153.52 241.06 153.8 240.44 153.77 240.39 153.18 240.32 153.77 239.81 153.77 239.79 153.31 239.74 152.85 239.7 153.32 239.63 153.76 239.43 153.74 239.61 147.97"/>
                </g>
                <g>
                  <text class="cls-16" transform="translate(193.3 166.93) scale(0.93 1)">5</text>
                  <polygon class="cls-11" points="203.04 131.7 203.4 131.7 203.57 131.71 203.6 132.01 203.64 132.5 203.68 132.03 203.72 131.72 203.93 131.74 204.26 131.72 204.3 132.22 204.38 131.75 205.03 131.79 205.03 131.92 205.07 132.41 205.11 131.94 205.15 131.79 205.74 131.81 205.56 137.57 204.66 137.54 204.64 137.25 204.59 136.78 204.55 137.25 204.49 137.53 203.86 137.5 203.81 136.91 203.74 137.5 203.23 137.5 203.21 137.05 203.16 136.59 203.12 137.06 203.06 137.49 202.85 137.47 203.04 131.7"/>
                </g>
              </g>
              <path class="cls-17" d="M155.48,43.23s36.33-43.68,75.41,0"/>
              <circle class="cls-18" cx="194.01" cy="28.62" r="5.72"/>
            </g>
          </g>
          <g>
            <polygon class="cls-19" points="109.75 466.7 36.36 566.79 606.74 566.79 511.36 471.7 109.75 466.7"/>
            <ellipse class="cls-20" cx="339.52" cy="487.92" rx="53.98" ry="13.83"/>
            <g>
              <path class="cls-21" d="M284,467.25c-4.13,0-7.46-2.64-7.46-5.9V363.8c0-3.26,3.33-5.9,7.46-5.9s7.46,2.64,7.46,5.9v97.55C291.46,464.61,288.13,467.25,284,467.25Z"/>
              <path class="cls-21" d="M401.26,466c-4.13,0-7.47-2.64-7.47-5.9V362.58c0-3.26,3.34-5.9,7.47-5.9s7.46,2.64,7.46,5.9v97.55C408.72,463.39,405.38,466,401.26,466Z"/>
              <g>
                <path class="cls-22" d="M351,476.1l-1,5s-1.58,5.42,0,7c2,2,6.06,5.45,22,3,13-2,4-15,4-15"/>
                <path class="cls-23" d="M353,421.1c0,1,3,32,2,41s2,18,11,18,7.61-6,7-11c-1.14-9.29-1.2-40.75,0-50"/>
                <path class="cls-24" d="M353,421.1c0,.54,1.5,19.33,1.5,19.33l17.63-.38s.34-16.93.86-20.94"/>
                <rect class="cls-25" x="353.96" y="440.1" width="19" height="3" rx="1.23"/>
                <path class="cls-26" d="M355,463.6s-7,13-5,19.14c.61,1.87,3,4.35,15,4.35,11,0,13-2.61,13-3.48,0,0,0-14.51-5-20,0,0,0,7-3,9.57-2,1.74-10,2.61-12,0A15.51,15.51,0,0,1,355,463.6Z"/>
              </g>
              <g>
                <path class="cls-23" d="M318.42,420.68c0,1,2,30.49.54,39.42-1,6-24,11-11,18,7.92,4.27,28.91-3.67,28.5-8.65-.78-9.33.44-40.76,2-49.95"/>
                <path class="cls-24" d="M318.42,420.68c0,.54.72,19.38.72,19.38l17.63.33s3.19-15.29,1.71-20.9"/>
                <rect class="cls-25" x="318.59" y="440.09" width="19" height="3" rx="1.23" transform="translate(18.02 -12.84) rotate(2.3)"/>
                <path class="cls-22" d="M297.18,481.15s-2.78,1.79,0,4.87,30.74-.12,34.78-.93a61.33,61.33,0,0,1,6.91-1.12s2.09-1.88.09-4.88"/>
                <path class="cls-26" d="M309,468.1a3.55,3.55,0,0,0,2,3c2,1,16.23,0,19.61-1.5a24.88,24.88,0,0,0,6.38-4.5s4,3,2,15c0,0-17,3-19,3s-18.46,2.54-22-1c-3-3-2-7,5-11S309,468.1,309,468.1Z"/>
              </g>
              <g>
                <rect class="cls-27" x="296.35" y="267.69" width="86.57" height="76.49"/>
                <path class="cls-28" d="M297.09,345.4V265.08h-5.62a8.55,8.55,0,0,0-8.38,8.72v71.6Z"/>
                <path class="cls-28" d="M382.09,345.4V265.08h5.62a8.55,8.55,0,0,1,8.38,8.72v71.6Z"/>
              </g>
              <g>
                <path class="cls-29" d="M462.69,529.83a7.28,7.28,0,0,0,7.46-7.08V405.69a7.48,7.48,0,0,0-14.93,0V522.75A7.28,7.28,0,0,0,462.69,529.83Z"/>
                <path class="cls-29" d="M123.21,529.83a7.28,7.28,0,0,1-7.47-7.08V405.69a7.48,7.48,0,0,1,14.93,0V522.75A7.28,7.28,0,0,1,123.21,529.83Z"/>
                <rect class="cls-30" x="455.22" y="421.57" width="14.93" height="23.6"/>
                <rect class="cls-30" x="115.74" y="421.57" width="14.93" height="25.96"/>
                <path class="cls-31" d="M105.36,385.81H484.1a0,0,0,0,1,0,0v55.08a.55.55,0,0,1-.55.55H105.9a.55.55,0,0,1-.55-.55V385.81A0,0,0,0,1,105.36,385.81Z"/>
                <polygon class="cls-30" points="105.36 398.42 484.1 395.31 484.1 385.81 105.36 385.81 105.36 398.42"/>
                <path class="cls-32" d="M503.46,381.31H86V391a2.36,2.36,0,0,0,2.53,2.13H500.93a2.35,2.35,0,0,0,2.53-2.13Z"/>
                <path class="cls-33" d="M499.52,384.45H89.92c-2.92,0-4.82-2.59-3.52-4.8l29.34-34.8a4.06,4.06,0,0,1,3.52-1.84H472.84a4.06,4.06,0,0,1,3.52,1.84L503,379.65C504.35,381.85,502.45,384.45,499.52,384.45Z"/>
              </g>
              <path class="cls-20" d="M125.69,359.45s-18.7,1.67-11,5.84,29.62,16.65,43.32,16,55.86-.64,53-6.09S131.3,359,125.69,359.45Z"/>
              <g>
                <path class="cls-3" d="M396.09,374.78s-29-3.1-38.61-3.11c-9.92,0-39.3,3.11-39.3,3.11s-29.95-2.89-40.33-2.76c-8,.1-32.75,2.76-32.75,2.76l19.54-33.6a188,188,0,0,1,30.09-2c5.78.2,23.25,2,23.25,2s23.33-1.62,31.12-1.61c7.5,0,29.66.42,29.66.42Z"/>
                <path class="cls-34" d="M246.54,374.13l-1.44.65.11.74H396l.09-.74s-45.85-6-46.28-6.12-29.91,1.12-29.91,1.12S253.32,366.76,246.54,374.13Z"/>
                <polygon class="cls-34" points="320.39 341.87 320.39 373.79 322.52 373.79 320.39 341.87"/>
              </g>
              <g>
                <g>
                  <path class="cls-35" d="M172.16,371.17c.23-.87,3.58-13.62,6.74-29.18,3-14.8,6.46-35.24,5.79-48.57-.53-10.6-3.3-18.55-8.24-23.63a18.09,18.09,0,0,0-13-5.7,15.21,15.21,0,0,0-1.68.09c-3.34.38-8.92,1-13.92,5.91-5.85,5.71-9.59,16-11.12,30.5a259.47,259.47,0,0,0-.21,46.29c1,12.21,2.37,20.59,2.45,21l3,3.25Z"/>
                  <path class="cls-36" d="M176.77,312.71s-7.89,12.43-18.93,8.2-14.45-21.5-14.07-29.8.63-8.76.63-8.76l-3.66,83.88Z"/>
                  <g>
                    <path class="cls-36" d="M179.73,300.52a31.27,31.27,0,0,0,7.56-1.53c3.51-1.23,7.75-3.69,8-8.46,0-.09,0-9-4.67-16.07-4.35-6.53-10.64-8.6-14-9.71l-.81-.27a6.74,6.74,0,0,0-2.16-.3,26,26,0,0,0-6.9,1.28,13.93,13.93,0,0,1,4.94,2.76c2.47,2.07,5.63,6,6.7,13.19C180.32,294.2,179.8,299.82,179.73,300.52Z"/>
                    <path class="cls-37" d="M174.86,271.74s3,3.83,3.87,12,1,16.82,1,16.82a24.76,24.76,0,0,0,9.09-2.14c4.74-2.12,5.78-4.13,6.5-7.22s-1.27-11-4.67-16.7S180.13,266,180.13,266s7.23,3.7,9.06,10.25-3.35,8.62-5.88,7S174.86,271.74,174.86,271.74Z"/>
                  </g>
                  <path class="cls-37" d="M115.6,325.64c0-.52-1.31,4.76-.71,7.64a1.09,1.09,0,0,0,.79.91l.41-3.58A45.21,45.21,0,0,1,115.6,325.64Z"/>
                  <path class="cls-38" d="M171.7,263.11s.72-11-1.77-12.77-9.51-1.61-10.46-.91-.88,12.27-.88,12.27Z"/>
                  <path class="cls-39" d="M116.09,330.61s-2.49,21.65-2.43,22,3.59,1.14,4,.71,2.82-22,2.82-22Z"/>
                  <path class="cls-40" d="M126,357.07c-.07-2.77-1.23-6.31-2-6.2s-1.71,8.53-3.93,9.08-4.9-4.33-4.47-15.86.93-19.39.93-19.39l6.7-.41s-2.1,27-1.77,28,1.33-1.39,2.16-4.1,2.76-.94,2.76-.94Z"/>
                  <path class="cls-41" d="M125.3,255.42c-4.1,4.14-10.59,63.3-9.6,72.82s7,9,8.19,3.1,5.76-58.29,8-65.89,3.91-11.91,3.91-11.91S128,252.71,125.3,255.42Z"/>
                  <path class="cls-38" d="M146.23,265.32s-2.08-6.93-5.49-10.37-9.21-2.6-9.21-2.6-4.19,1.07-6.23,3.07a7.86,7.86,0,0,1,6.48,3.82c2.11,3.81,5.56,12.71,5.91,15.23S146.23,265.32,146.23,265.32Z"/>
                  <path class="cls-35" d="M159.88,261.91c2,0,3.14-.31,3.37-.91-.2-.4-2.9-5.58-4.89-5.95h-.87a.74.74,0,0,1,.51.19c.4.53.41,5.19-.22,6.57C158.05,261.83,158.92,261.91,159.88,261.91Z"/>
                  <path class="cls-36" d="M158.36,255.05s-.31-.28-3.79.1a17.54,17.54,0,0,0-6,1.79l3.12-.11s5.55-2.19,8.09-.95A2,2,0,0,0,158.36,255.05Z"/>
                  <path class="cls-38" d="M141.89,371.14c.13-2.69,3-62.34,3.58-73.58.59-11.73,1.65-19.44,11.42-27.51a23.05,23.05,0,0,1,15.1-5.21,30.2,30.2,0,0,1,7.48,1c-3.47-1.29-11.35-4.13-15.31-4.67a13.41,13.41,0,0,0-1.88-.12c-5.35,0-13,2.32-16.05,4.31-3.29,2.17-11.27,8.89-14.29,24.52-3,15.29-6.06,63.08-6.24,67.83-.17,4.23.54,5.67,1.89,6.86S140.78,370.67,141.89,371.14Z"/>
                  <path class="cls-38" d="M150.27,263.3c-.43-2.83.34-6.38,2.61-7.44a11.73,11.73,0,0,1,3.72-.87c-3.31.08-7.2,1.08-8.34,2.17s-3.89,8.58-4.3,9.76Z"/>
                  <path class="cls-41" d="M143.77,332.37l-1.16,26.39-.6,12.43s-12.55-5.22-14.42-6.66-2.07-3.66-1.89-6.86.86-14.8,1.66-24.66,2.29-24.73,3.64-38.25,7.09-21.41,10.13-24.93c0,0-7.53,7.25-8.69,24.68s-2.88,45.9,3.1,48.81S143.77,332.37,143.77,332.37Z"/>
                  <path class="cls-42" d="M179.47,265.8s-9.94-3.82-15-4.63-12,1.07-16.42,3-8.95,7.65-10.45,10.8-4.15,14.75.61,16.35,5.29-5.58,12.11-14.08S162.88,263.19,179.47,265.8Z"/>
                  <path class="cls-40" d="M180.13,266l-3.49-1.27s-8.84-2-16.27,1.93-12,9.34-14.29,16.75-3.32,49.9-3.32,49.9l-1.44,37.57.69.29,1.93-42.51s1.27-26.94,1.73-34.64,2.4-13.8,5.28-17.77,8.55-8.79,14.48-10.41S180.13,266,180.13,266Z"/>
                  <path class="cls-39" d="M195.32,288.08a33.11,33.11,0,0,0-5-14.1,19.69,19.69,0,0,0-11.48-8.19l-2.53-.34a22.88,22.88,0,0,1,11.28,6.9c4.9,5.57,6.14,15.83,6.14,15.83Z"/>
                  <path class="cls-43" d="M141.79,358.74l-.47,12.16s-11.17-5-13.3-6.08-2.47-2.16-2.3-7.91,2.71-36.64,2.71-36.64-1.27,25.4-.61,32.93S136.68,364,139,364s3.34-19.59,3.34-19.59Z"/>
                  <path class="cls-44" d="M174.7,265.3a27.51,27.51,0,0,0-13.11,2.05,24.18,24.18,0,0,0-13.67,14.85c-1.5,4.64-2.4,13.35-2.4,13.35s-1.17-.33-.6-4.82.83-13.42,10.09-20.55,15.86-6,19.18-5.8,4.2,1.25,4.2,1.25Z"/>
                  <path class="cls-45" d="M124.21,350.93c-.32-.33-.65.88-1,2.41s-1.66,6.78-3.54,6.65-2.77-3.23-2.77-3.23,1.13,1.83,2.3.26a22.72,22.72,0,0,0,2.24-4.76s0,.5.3.27,2.09-5.87,3-5.82a3.16,3.16,0,0,0-1.22,2.45C123.28,351,124.21,350.93,124.21,350.93Z"/>
                  <path class="cls-36" d="M143.77,334.34,142,371.19l51.05-2.39,1.22-74.7a30.5,30.5,0,0,1-14.55,6.42s-.17,10.73-6.59,16.6-13,4.45-13,4.45Z"/>
                  <path class="cls-35" d="M133,261.67s-1.24-3.09-2.77-4.35-4.28-2.17-4.93-1.9-1.81,4.09-2.53,7.61-1,5.11-1,5.11,2.15-4.6,6-4.6,3.83,2.79,3.83,2.79Z"/>
                </g>
                <g>
                  <g>
                    <g>
                      <path class="cls-46" d="M176.4,269.68a.44.44,0,0,0-.61-.45l-25.63,11.21a1.31,1.31,0,0,0-.26,2.26h0a5,5,0,0,0,5,.56l21-9.19Z"/>
                      <path class="cls-47" d="M179.84,273.25l-26.26,11.89L152,284.06l-.55-.38-.53-.36-.15-.11a1.41,1.41,0,0,1-.35-.47,1.49,1.49,0,0,1-.14-.65,1.44,1.44,0,0,1,.19-.7,1.41,1.41,0,0,1,.69-.62l24.53-10.7.18.28c.11.16.23.32.35.47s.3.34.47.5l.46.43a8,8,0,0,0,.66.48c.19.13.39.25.59.36A10.13,10.13,0,0,0,179.84,273.25Z"/>
                      <g>
                        <path class="cls-48" d="M176.21,270.82l-25.94,11.27a1.44,1.44,0,0,1,.19-.7l25.4-11C176,270.51,176.09,270.67,176.21,270.82Z"/>
                        <path class="cls-48" d="M177.14,271.75l-26.38,11.46a1.41,1.41,0,0,1-.35-.47l26.27-11.42Z"/>
                        <path class="cls-48" d="M178.39,272.59,152,284.06l-.55-.38,26.36-11.45C178,272.36,178.19,272.48,178.39,272.59Z"/>
                      </g>
                      <path class="cls-49" d="M180,272.3l-27.72,12.12L147.35,328a1.53,1.53,0,0,0,2.13,1.57L175,318.45a1,1,0,0,0,.58-.78l5-44.92A.43.43,0,0,0,180,272.3Z"/>
                      <polygon class="cls-50" points="176.47 309.3 175.89 314.44 148.25 326.63 148.84 321.38 176.47 309.3"/>
                      <polygon class="cls-50" points="180.22 275.75 180.03 277.49 152.39 289.68 152.6 287.83 180.22 275.75"/>
                      <path class="cls-46" d="M154.88,283.26l-5.18,46.23a5,5,0,0,1-5-.56,1.31,1.31,0,0,1-.52-1.21s5-44.34,5.17-46.17a1.31,1.31,0,0,0,.53,1.15,5,5,0,0,0,5,.56Z"/>
                      <path class="cls-51" d="M148.14,320.93a5,5,0,0,1-2.41-.95,1.29,1.29,0,0,1-.53-1.15c0,.36-.24,2.38-.58,5.39a1.3,1.3,0,0,0,.53.92,4.88,4.88,0,0,0,2.41.95,5,5,0,0,0,2.57-.39l.58-5.16A5.08,5.08,0,0,1,148.14,320.93Z"/>
                      <path class="cls-51" d="M151.9,287.36a4.94,4.94,0,0,1-2.41-.95,1.26,1.26,0,0,1-.53-1.14c0,.2-.09.91-.21,2a1.25,1.25,0,0,0,.53,1,5,5,0,0,0,5,.56l.21-1.84A5,5,0,0,1,151.9,287.36Z"/>
                      <polygon class="cls-50" points="176.8 306.29 176.61 308.04 148.97 320.22 149.18 318.37 176.8 306.29"/>
                      <path class="cls-51" d="M148.48,317.9a4.93,4.93,0,0,1-2.41-.94,1.28,1.28,0,0,1-.53-1.15c0,.2-.09.91-.21,2a1.28,1.28,0,0,0,.53,1,5,5,0,0,0,5,.55l.21-1.84A5,5,0,0,1,148.48,317.9Z"/>
                    </g>
                    <polygon class="cls-52" points="170.38 306.28 159.46 311.16 162.07 287.82 173 282.94 170.38 306.28"/>
                  </g>
                  <polygon class="cls-53" points="157.69 279.57 161.78 277.8 162.18 274.22 158.09 276.04 157.69 279.57"/>
                  <polygon class="cls-54" points="171.86 274.81 174.19 273.8 174.44 271.59 172.1 272.6 171.86 274.81"/>
                </g>
                <g>
                  <path class="cls-52" d="M186,284.07l-7.92,3.29-15.43,6.42-3.15,42.83-15.19,6.25a.87.87,0,0,1-1.19-.92l6.3-48.39a2.16,2.16,0,0,1,1.32-1.72l12.44-5.17,15.85-6.6,1.17-.49a6.4,6.4,0,0,1,3.25-.43,6.27,6.27,0,0,1,3,1.25,2.14,2.14,0,0,1-.48,3.68Z"/>
                  <path class="cls-55" d="M186,284.07l-7.92,3.29.95-7.3,1.17-.49a6.4,6.4,0,0,1,3.25-.43,6.27,6.27,0,0,1,3,1.25,2.14,2.14,0,0,1-.48,3.68Z"/>
                  <path class="cls-47" d="M186.21,283a2.16,2.16,0,0,1-1.28,1.27h0l-1,.51-22.66,12-10.23,49.77a10.47,10.47,0,0,0-1.52-1.53,8.23,8.23,0,0,0-.75-.57c-.26-.19-.52-.36-.79-.52s-.5-.3-.76-.44-.64-.33-1-.48l-.78-.32-.65-.25,6.46-49.59,28.94-12.09a6.1,6.1,0,0,1,3.24-.43h0l.32,0a4.74,4.74,0,0,1,.65.16,2.4,2.4,0,0,1,.38.12l.17.06a2.62,2.62,0,0,1,.66.52,2.16,2.16,0,0,1,.45.69A1.52,1.52,0,0,1,186.21,283Z"/>
                  <g>
                    <path class="cls-48" d="M184.86,280.74l-32.14,13-6.43,49.37-.78-.32L152,293.15l31.53-12.74h0l.32,0a4.74,4.74,0,0,1,.65.16A2.4,2.4,0,0,1,184.86,280.74Z"/>
                    <path class="cls-48" d="M186.14,282l-31.72,12.82L148,344c-.25-.16-.5-.3-.76-.44l6.42-49.31,32-12.94A2.16,2.16,0,0,1,186.14,282Z"/>
                    <path class="cls-48" d="M184.93,284.31h0l-1,.51-28,11.34-6.37,48.94a8.23,8.23,0,0,0-.75-.57l6.38-48.95,31-12.54A2.16,2.16,0,0,1,184.93,284.31Z"/>
                  </g>
                  <path class="cls-56" d="M158.05,297.56l-7,49.07a10.47,10.47,0,0,0-1.52-1.53,8.23,8.23,0,0,0-.75-.57c-.26-.19-.52-.36-.79-.52s-.5-.3-.76-.44-.64-.33-1-.48l-.78-.32-.65-.25,6.46-49.59A17.37,17.37,0,0,1,158.05,297.56Z"/>
                  <path class="cls-52" d="M187.31,282.37l-6.66,51.12a2.13,2.13,0,0,1-1.3,1.7l-2.18.91-27,11.23a.87.87,0,0,1-1.19-.92l6.32-48.53a1.91,1.91,0,0,1,1.16-1.52L183.82,285l2.19-.91A2.13,2.13,0,0,0,187.31,282.37Z"/>
                  <path class="cls-55" d="M187.31,282.37l-6.66,51.12a2.13,2.13,0,0,1-1.3,1.7l-2.18.91L183.82,285l2.19-.91A2.13,2.13,0,0,0,187.31,282.37Z"/>
                </g>
                <g>
                  <g>
                    <g>
                      <path class="cls-46" d="M187.08,286.55a.62.62,0,0,0-.88-.61l-36.06,17a1.87,1.87,0,0,0-.27,3.23h0a7.13,7.13,0,0,0,7.11.6l29.58-13.94Z"/>
                      <path class="cls-47" d="M192.12,291.5l-36.92,18L152.9,308l-.81-.52-.77-.49-.21-.16a1.89,1.89,0,0,1-.52-.65,2.16,2.16,0,0,1-.23-.92,2.1,2.1,0,0,1,.25-1,2,2,0,0,1,.95-.91l34.51-16.23.27.39a8.38,8.38,0,0,0,.52.66,9,9,0,0,0,.68.7c.22.2.44.4.68.58a9.63,9.63,0,0,0,1,.67c.27.17.56.33.86.49A14.6,14.6,0,0,0,192.12,291.5Z"/>
                      <g>
                        <path class="cls-48" d="M186.86,288.18l-36.5,17.1a2.1,2.1,0,0,1,.25-1l35.73-16.75A8.38,8.38,0,0,0,186.86,288.18Z"/>
                        <path class="cls-48" d="M188.22,289.46l-37.11,17.39a1.89,1.89,0,0,1-.52-.65l36.95-17.32C187.76,289.08,188,289.28,188.22,289.46Z"/>
                        <path class="cls-48" d="M190,290.62,152.9,308l-.81-.52,37.09-17.37C189.45,290.3,189.74,290.46,190,290.62Z"/>
                      </g>
                      <path class="cls-49" d="M192.24,290.14l-39,18.37-5.19,62.29a2.18,2.18,0,0,0,3.1,2.15L187,356.07a1.38,1.38,0,0,0,.79-1.14l5.35-64.18A.62.62,0,0,0,192.24,290.14Z"/>
                      <polygon class="cls-54" points="192.31 300.53 190.62 320.81 151.75 339.28 153.46 318.85 192.31 300.53"/>
                      <path class="cls-46" d="M157,306.75l-5.51,66.06a7.14,7.14,0,0,1-7.11-.6,1.84,1.84,0,0,1-.8-1.69s5.4-63.36,5.51-66a1.82,1.82,0,0,0,.8,1.61,7.12,7.12,0,0,0,7.11.59Z"/>
                      <path class="cls-57" d="M152.44,318.23A7.14,7.14,0,0,1,149,317a1.82,1.82,0,0,1-.79-1.61c0,.52-1.33,16.34-1.68,20.63a1.78,1.78,0,0,0,.78,1.3,7.17,7.17,0,0,0,7.12.6l1.69-20.32A7.1,7.1,0,0,1,152.44,318.23Z"/>
                    </g>
                    <polygon class="cls-50" points="187.95 305.11 162.38 317.23 162.23 318.98 187.81 306.87 187.95 305.11"/>
                    <polygon class="cls-50" points="187.63 309 162.06 321.12 161.91 322.87 187.48 310.75 187.63 309"/>
                    <polygon class="cls-50" points="187.29 313.06 161.72 325.18 161.57 326.93 187.15 314.82 187.29 313.06"/>
                  </g>
                  <path class="cls-53" d="M183.78,313.48l1.44-17.25a2.21,2.21,0,0,0-1.23-2.17l-1.66-.81-4.19,2.05,1.66.81a2.23,2.23,0,0,1,1.23,2.17l-1.44,17.24c0-.25,2.62-7,2.62-7Z"/>
                </g>
                <g>
                  <path class="cls-41" d="M153.68,375.74a13.11,13.11,0,0,0,1.48-.12c2.15-.24,50.55-2.29,52.41-2.37.15-1,2.5-16,5.8-31.23a208.14,208.14,0,0,1,6.16-21.63,26.25,26.25,0,0,0,1.42-9.3,10.85,10.85,0,0,0-3.29-7c-3.08-2.86-8.57-6.28-17.28-6.28a45.21,45.21,0,0,0-12.84,2.07A44.66,44.66,0,0,0,171.59,308a35,35,0,0,0-9.08,11.46c-4.28,8.47-5.49,18.3-6.66,27.8l-.11.88c-2.34,19-2.46,27.5-2.46,27.58v0A1.29,1.29,0,0,0,153.68,375.74Z"/>
                  <path class="cls-38" d="M153.17,375.62c.05-.16.16-1,.3-2.2.79-6.27,3.18-25.37,9-41.66,7-19.65,21.12-31.85,36.88-31.85H200a30.49,30.49,0,0,1,17.28,5.29,8.1,8.1,0,0,1,3.7,5.88c0-3-2-10.17-4.5-13.85a19.52,19.52,0,0,0-7.57-6.33,28.44,28.44,0,0,0-12.83-2.83A41.15,41.15,0,0,0,186,289.41c-13.54,3.42-24.25,13.4-31.82,29.66-6.46,13.86-10.87,35-11.55,39.69l-.6,12.43C145.66,372.72,152.56,375.56,153.17,375.62Z"/>
                  <path class="cls-43" d="M158,378.27c4.13,0,25.05-1.18,38.9-2,6.32-.36,11.31-.64,12.35-.67,4.29-.15,6.61-5.18,7.1-15.39.56-11.42-2.86-17-3.13-17.46-1.57-.08-3.33-.12-5.25-.12-18.72,0-48.39,3.58-49.69,3.74-2.66,9.79-4.92,28.37-5,29.26.25.23,2.54,2.28,4.08,2.58a4.26,4.26,0,0,0,.67,0Z"/>
                  <path class="cls-37" d="M157,378.26c.21-.44,1.72-3.85,2.83-14.26,1.08-10.15-1-16.88-1.37-18.06A134.26,134.26,0,0,0,155.2,362c-1.39,9.56-1.87,13.26-1.92,13.62A13,13,0,0,0,157,378.26Z"/>
                  <path class="cls-41" d="M170.62,316.08a75.45,75.45,0,0,0-9.07,18.3c-3.71,10.93-6.92,29.53-7.36,33.68s-.91,7.6-.91,7.6L142,371.19l.81-13.26s4.54-24.21,11-38.09,12.55-19,12.55-19a68,68,0,0,0-13.07,21.46c-5.13,13.37-7.06,29.8-3.74,32.7s6.48-8,11.12-20.66S170.62,316.08,170.62,316.08Z"/>
                  <path class="cls-42" d="M220.88,310.52a34.25,34.25,0,0,0-4.43-13.28c-3.74-6-11.37-9-21.13-9.16s-24.78,6.1-30.17,19.13,3.32,8.22,11.12,1.33,21.62-10.14,30.71-8C215.78,302.56,219.68,306.55,220.88,310.52Z"/>
                  <path class="cls-40" d="M142.66,356.85s2-9.23,5.91-22.74c4-13.78,9.05-27,22.05-37.56s29.17-9.43,37.46-6.1,10.14,10.07,10.14,10.07-2.94-9.41-17.71-11-24.17,4-29.89,8.88-9.13,8.89-15.35,20.67-12.29,43.17-13,48.31Z"/>
                  <path class="cls-43" d="M157.14,351.36s-2.26,14.68-2.92,18.94-.94,5.36-.94,5.36L142,371.19l.33-5.36,4.1-18.95s-2.85,15.12-2.18,19.05,5.86,5.36,7.74,2.76S157.14,351.36,157.14,351.36Z"/>
                  <path class="cls-37" d="M216.21,352.94s.24,5.11.22,5.86-1.19,1.55-1.81,1.67-21.3,1.1-21.3,1.1a7.21,7.21,0,0,1-1.24.92c-.29.09-.08,8.2-.08,8.2l-1.83-.48-1.41.69s-1.12.06-1.16-.27.21-7.89.21-7.89a7.35,7.35,0,0,1-2.45-1.62s-15.09.37-17.31.15-7.66-2.15-8.14-7.41c0-.23-.41-5.41-1.48-7.86Z"/>
                  <path class="cls-58" d="M167.24,358.45c.7,0,26.32-.28,46.87-1.93a1.85,1.85,0,0,0,1.47-1.07c1.19-2.17.83-7.6-2.21-13.38a12.09,12.09,0,0,0-3.09-.16c-3.89,0-10.66.26-20.13.75-24.48,1.29-31.23,2.79-31.7,3.12,0,0,0,0,0,.22a22.84,22.84,0,0,0,2.88,6.22C162.47,354.11,164.79,357.43,167.24,358.45Z"/>
                  <path class="cls-59" d="M188.76,370.9c.33-.34,1.22-1.23,1.55-1.23a5.73,5.73,0,0,1,1.69,1l.66-12.38h-3.37Z"/>
                  <path class="cls-60" d="M190.6,362a4.54,4.54,0,1,0-4.54-4.53A4.53,4.53,0,0,0,190.6,362Z"/>
                  <path class="cls-61" d="M191.36,362a4.54,4.54,0,1,0-4.54-4.53A4.53,4.53,0,0,0,191.36,362Z"/>
                  <path class="cls-43" d="M213.37,342.07s.58-.19-11.08,0-33.66,2-36.77,2.45-6.72.87-7.07,1.23c0,0,1-4.69,3.36-12.15s6.37-13.51,7.45-15.63a21.24,21.24,0,0,1,3.23-4.31,102.4,102.4,0,0,0-6.6,11.7c-3.15,6.6-2.88,14.39,15.59,14.14s28-2.2,30.62-2.78,4.33-6.6,4.33-6.6Z"/>
                  <path class="cls-59" d="M212.16,342.71c.58.17,2.4,3.1,2.87,7.17s-1.08,5.7-1.44,5.78-15.35,1.08-15.57.91-1.21-6.24-7.85-6-6.29,2.23-17.3,2.36-12.15-6.66-12.15-6.66,6.05-1,25.9-2.65S212.16,342.71,212.16,342.71Z"/>
                  <path class="cls-41" d="M214.8,362.33c0,1.29-1.18,7.39-2.71,9.5a6.79,6.79,0,0,1-4.78,2.62l-31.5,1.66s16.06-2.53,17-3.57,3.32-8.8,3.44-9.05S214.8,362.33,214.8,362.33Z"/>
                  <path class="cls-43" d="M220.76,315.4a14,14,0,0,0,.05-5.09c-.47-3-4.95-10.4-19.72-10.48s-24.49,6.55-32.29,19.09a79.52,79.52,0,0,0-10,25.17l41.72-5.58s-15.65,1.59-19.43-8.77c-1.11-3-2.48-14.34,11.57-19.43,16.86-6.1,25.43-.94,27,1.88S220.76,315.4,220.76,315.4Z"/>
                  <path class="cls-62" d="M189.66,353a4.58,4.58,0,0,0-3,2.13,4.43,4.43,0,0,0-.63,2.84l-18.34.45,15.49-1.87S184.48,353.71,189.66,353Z"/>
                  <path class="cls-36" d="M213.37,342.07a254.1,254.1,0,0,0-26.05.59c-12.8,1.07-27.11,1.6-28.87,3.12,0,0,1-8,8.4-23.82s21.62-23.13,37.14-22.14,16.92,10.86,17,11.66c0,0-1.52-8.92-16.13-10.24A32.88,32.88,0,0,0,170.62,323c-5.22,14.78-1.1,17.21,10.86,18.07s30.65-.14,31.48-.64,1.78-3.66,1.78-3.66Z"/>
                  <path class="cls-63" d="M195.89,357.63l-7-3.94s2.69-1.63,4.87-.08A4.43,4.43,0,0,1,195.89,357.63Z"/>
                  <path class="cls-63" d="M195.54,359.23l-7.94-4.29a5.29,5.29,0,0,0-.77,2.86l6.75,3.63A4.42,4.42,0,0,0,195.54,359.23Z"/>
                  <path class="cls-44" d="M209.11,290.89c-4.06-1.82-9.25-3.88-20.23-2.33s-19.25,8.81-19.25,8.81-.5,1.72,2.45-.41c3.11-2.24,7.06-5.82,18.38-7.18s18.9,2.06,18.9,2.06a32.34,32.34,0,0,0,3.74,1.79C213.25,293.5,211.66,292,209.11,290.89Z"/>
                </g>
              </g>
              <g>
                <g>
                  <path class="cls-64" d="M442.58,374.05l43.1-17.28L448.5,344.45l-49.74,23.2Z"/>
                  <path class="cls-65" d="M400.34,367.36l42.83,6.37c1.43-2.38.71-10.93,0-13.15L400.3,354C400.83,356.14,400.9,365.45,400.34,367.36Z"/>
                  <path class="cls-64" d="M486.93,361.41l.15-13.12-44.2,12.23c2.16,4.67.83,12.7-.36,13.53Z"/>
                  <path class="cls-66" d="M399.32,354.17l43.62,6.4,44-12.27-41.18-4.43Z"/>
                </g>
                <polygon class="cls-67" points="420.84 339.6 451.92 354.54 452.73 358.15 481.39 346.1 434.36 334.78 420.84 339.6"/>
                <g>
                  <path class="cls-68" d="M449,362.33,411,344.7l32.24-10.15L487,354.64Z"/>
                  <path class="cls-69" d="M485.62,354.36,448.42,362c-1.29-2.52-2-10.07-.18-12.6l37.2-7.83C485,343.84,485.1,352.33,485.62,354.36Z"/>
                  <path class="cls-68" d="M409.63,352.46l-.34-12.63,39.51,9.36c-2.42,1.78-.89,12.27.16,13.14Z"/>
                  <path class="cls-70" d="M486.5,341.66l-37.89,7.68L409.45,340l36-5.66Z"/>
                </g>
                <g>
                  <path class="cls-71" d="M412.82,343.17l26.49,6.56,2.44-1.24-26.22-6.19Z"/>
                  <path class="cls-72" d="M482.67,338.38l-43.45,10.88-26.33-15.82L454,325.79l28.22,6.07Z"/>
                  <path class="cls-73" d="M439.15,342l-26.26-8.56,1.06,9.63,25.27,6.19Z"/>
                  <path class="cls-71" d="M483.41,331.86c.31.65-.35,1.65-.41,3.29-.07,2.08.46,3,0,3.35l-43.89,11.24a19,19,0,0,0,.27-4.37c0-1.27.51-2.9.31-3.55-9.77-3.7-16.64-5.72-26.42-9.42l40.62-8C464.72,327.42,472.6,328.8,483.41,331.86Z"/>
                  <path class="cls-74" d="M483.41,331.86l-43.6,10-26.52-9.43,40.79-8.09Z"/>
                </g>
                <path class="cls-75" d="M434.84,370.8l1.88-2.35,2.73,2.47s-.42-7.59.87-8.11c-.22,0-4.51-.84-4.73-.79C434.18,363.16,434.84,370.8,434.84,370.8Z"/>
              </g>
              <g>
                <g>
                  <path class="cls-76" d="M283.32,317.84s-12.26,18.24-15.48,25.84c11.85,19.93,32.15-13.4,32.15-13.4"/>
                  <path class="cls-77" d="M292.88,304.77c-5.4,3.24-8.74,11.32-11,14.66A59.57,59.57,0,0,0,277,328c9.33.33,19.8,11.83,19.8,11.83L305.09,328"/>
                  <path class="cls-78" d="M286.77,336.53s60.91,6.87,32.82,14.39-54,.73-50.78-9"/>
                  <g>
                    <path class="cls-78" d="M318.51,343s20.74,1.75,24.08,3.24c4.87,2.16,13.88,5.37,13.15,6.48s-14.57,2.57-18.08,0S331,356,318.51,350.57"/>
                    <g>
                      <path class="cls-79" d="M339,349.49s7.83,3.84,8.78,4.62"/>
                      <path class="cls-80" d="M339.2,349.15l4.36,2.39,2.16,1.24a20.06,20.06,0,0,1,2.1,1.33,23,23,0,0,0-2.19-1.17l-2.24-1.06-4.52-2.05Z"/>
                    </g>
                    <g>
                      <path class="cls-79" d="M341.2,347.33s10,4.92,10.94,5.7"/>
                      <path class="cls-80" d="M341.36,347l5.44,2.93,2.7,1.5c.89.52,1.8,1,2.64,1.61-.87-.55-1.81-1-2.73-1.44l-2.78-1.33-5.6-2.59Z"/>
                    </g>
                  </g>
                </g>
                <g>
                  <path class="cls-76" d="M395.19,311.74s12.67,18.64,16.17,27.23c-12.84,22.54-34.23-13.17-34.23-13.17"/>
                  <g>
                    <path class="cls-81" d="M370.86,323.26a30.31,30.31,0,0,1-3.72-9.89c-2.17-10.87,7.32-18.49,7.42-18.57l.11-.09.14.06c12.72,5.09,20.13,15.38,22.1,18.41,3.46,5.35,7.28,10.94,7.32,11l.27.39H404c-8.37,0-21.7,10.83-21.83,10.94l-.18.15Z"/>
                    <path class="cls-82" d="M374.71,295c12.22,4.89,19.54,14.55,22,18.32,3.51,5.41,7.33,11,7.33,11-8.55,0-22,11-22,11l-11-12.22a29.57,29.57,0,0,1-3.67-9.77c-2.16-10.85,7.33-18.32,7.33-18.32m-.08-.57-.23.18c-.09.07-9.71,7.79-7.51,18.81a29.84,29.84,0,0,0,3.74,9.95l0,0,0,0,11,12.21.32.36.37-.31c.13-.11,13.39-10.88,21.67-10.88H405l-.53-.78s-3.86-5.64-7.32-11c-2-3.05-9.43-13.4-22.22-18.51l-.27-.11Z"/>
                  </g>
                  <path class="cls-78" d="M391.81,334.08s-66.34,6.56-35.91,15.06,59,.82,55.46-10.17"/>
                  <g>
                    <path class="cls-78" d="M357.08,340.19s-22.47,2-26.1,3.67c-5.27,2.44-15,6.07-14.24,7.32s15.79,2.91,19.58,0,7.19,3.67,20.76-2.44"/>
                    <g>
                      <path class="cls-79" d="M334.84,347.52s-8.49,4.34-9.51,5.22"/>
                      <path class="cls-80" d="M335,347.85l-4.9,2.35-2.42,1.21a22.7,22.7,0,0,0-2.36,1.33,24.64,24.64,0,0,1,2.27-1.49l2.34-1.38,4.73-2.68Z"/>
                    </g>
                    <g>
                      <path class="cls-79" d="M332.5,345.08s-10.83,5.56-11.86,6.44"/>
                      <path class="cls-80" d="M332.67,345.41l-6.07,3-3,1.51c-1,.53-2,1-2.95,1.64a31.24,31.24,0,0,1,2.86-1.8l2.93-1.68,5.9-3.3Z"/>
                    </g>
                  </g>
                </g>
                <g>
                  <g>
                    <g>
                      <path class="cls-83" d="M318.57,330.75c1.21,2.46,7.18,4.79,11.73,5.36a20,20,0,0,0,9.5-.74c5.58-1.87,8.59-7.28,9.72-11.51a7.54,7.54,0,0,0,0-4.34c-.8-2.39-4-3-6.94-2.91s-5.43.9-11,3.51c-4.57,2.16-9.16,4.83-11.6,7-1.26,1.15-1.94,2.18-1.73,2.94A3.23,3.23,0,0,0,318.57,330.75Z"/>
                      <path class="cls-84" d="M319.29,328c13.57,3.75,28.2-9.76,25-11.64-2.87.11-7.09,1.13-12.61,3.74A60,60,0,0,0,319.29,328Z"/>
                      <path class="cls-85" d="M318.46,330.42c.57-.9,3-3.19,12.9-8,13.68-6.63,18.07-3.23,18.07-3.23-1.58-4.71-10.9-3.89-22.09,1.4-6.95,3.28-9.75,7-9.13,9.18A3,3,0,0,0,318.46,330.42Z"/>
                      <path class="cls-85" d="M318.57,330.75c3.35,4.49,11.95,8.45,20.69,5.7,5.61-1.77,12.37-11.84,10.17-17.26-.51,4.56-2.37,12-9.23,15C331.08,338.27,324.49,334,318.57,330.75Z"/>
                      <path class="cls-86" d="M346.19,326.37s-5.13-.76-8.36,3.14c0,0-6.62.78-7.15,5.07C330.68,334.58,341.56,334.5,346.19,326.37Z"/>
                    </g>
                    <path class="cls-76" d="M285.72,271.57s-7.35,24.5,14.23,49a50.21,50.21,0,0,0,9.44,13.22,28.13,28.13,0,0,0,18.05,8,39.7,39.7,0,0,0,16.76-2.26c7.25-2.87,13.56-10.28,17.16-19a35.76,35.76,0,0,0,.48-25.64c-4.12-11.52-15.85-38.28-34.22-42.13C300.66,247.12,285.72,271.57,285.72,271.57Z"/>
                    <path class="cls-87" d="M291.42,308.76s-1.91-12.78,1.73-22.85c0,0,17.22,5.18,27,1l-7.53-7.53s6.89.84,10.9-.75l-3.71-5.83s7.33,4,21.42.4c0,0,7.8-2.6,16.06,13.12l-9.73-19.64-26.77-6.33-25.53,6.95-7.36,10.42L285,298.87l6.39,10.37"/>
                    <g>
                      <path class="cls-88" d="M324.67,286.11a10.58,10.58,0,0,1,12.65-1.34s-.77-3.72-7.89-3.74C329.43,281,324.47,281.52,324.67,286.11Z"/>
                      <path class="cls-88" d="M306.12,297.39a9.76,9.76,0,0,0-7.8,9.71s-2.83-2.82.87-8.75C299.19,298.35,302.22,294.52,306.12,297.39Z"/>
                      <path class="cls-89" d="M323.53,309s0,11.79,6.2,9.62c4.81-1.68,3.62-5.69,3.62-5.69"/>
                      <g>
                        <ellipse class="cls-90" cx="334.2" cy="296.78" rx="8.1" ry="8.3" transform="translate(-53.55 74.48) rotate(-11.78)"/>
                        <path class="cls-91" d="M328.59,302.65a8.36,8.36,0,0,0,3.93-.47,13.37,13.37,0,0,0,3.52-1.82c1.1-.75,2-1.71,3-2.56.48-.46,1-.91,1.49-1.35a20.1,20.1,0,0,1,1.52-1.36l.08.06a19.74,19.74,0,0,1-1.08,1.76c-.41.56-.86,1.08-1.32,1.6a15,15,0,0,1-3.3,2.52,14,14,0,0,1-3.81,1.63,8.88,8.88,0,0,1-4.1.09Z"/>
                        <ellipse class="cls-92" cx="334.2" cy="296.78" rx="8.1" ry="8.3" transform="translate(-53.55 74.48) rotate(-11.78)"/>
                      </g>
                      <g>
                        <ellipse class="cls-90" cx="310.69" cy="311.87" rx="7.54" ry="7.72" transform="translate(-57.13 70) rotate(-11.78)"/>
                        <path class="cls-91" d="M305.55,317a7.87,7.87,0,0,0,3.66-.45,12.66,12.66,0,0,0,3.26-1.7c1-.7,1.87-1.6,2.82-2.39.45-.42.91-.83,1.39-1.24a17.29,17.29,0,0,1,1.43-1.25l.08.06a17.15,17.15,0,0,1-1,1.65c-.38.53-.8,1-1.22,1.5a13.84,13.84,0,0,1-3.08,2.34,13.23,13.23,0,0,1-3.55,1.51,8.27,8.27,0,0,1-3.83.07Z"/>
                        <ellipse class="cls-92" cx="310.69" cy="311.87" rx="7.54" ry="7.72" transform="translate(-57.13 70) rotate(-11.78)"/>
                      </g>
                    </g>
                    <path class="cls-93" d="M292.55,282.5s6.56,5,24.49,3.66l-11.1-11.11s4.34,5.19,15.74,2.21L315.61,270s13,4.64,24.46,1.95,18.45,17.48,18.45,17.48a7.89,7.89,0,0,0,9.53,1.38c5.55-3-4.88-49.86-37.89-55.47s-55.24,20.28-56.46,41c0,0-2.44,24.2,18.1,34.32,1.45.72-.38-1.85-.38-1.85S283.7,297.75,292.55,282.5Z"/>
                    <g>
                      <g>
                        <path class="cls-76" d="M357.43,288.42c-.29-4.56,1.57-6.74,3.8-7.8,2.9-1.38,5.85.19,8.25,4.75s3,7.39,1.52,12.12-2.27,7.16-7.21,7.2"/>
                        <path class="cls-94" d="M363.69,302.68a2.34,2.34,0,0,0,1.2-1,9.76,9.76,0,0,0,.81-1.36,5,5,0,0,0,.4-3.21,4.9,4.9,0,0,0-1.68-2.75,4.74,4.74,0,0,0-1.65-.86c0-.42,0-.85,0-1.26a28.35,28.35,0,0,1,.2-3.33,6.69,6.69,0,0,1,.82-3.11A1.91,1.91,0,0,1,365,285a1.44,1.44,0,0,1,1.46.48,1.47,1.47,0,0,0-1.48-.73,2.16,2.16,0,0,0-1.57.83,6.37,6.37,0,0,0-1,3.29,20.33,20.33,0,0,0-.07,3.4c0,.39.07.78.12,1.16a1.36,1.36,0,0,0,0,.2,2.71,2.71,0,0,1,.3.13,5.18,5.18,0,0,1,1.37.93,4.78,4.78,0,0,1,1.42,2.56,5,5,0,0,1-.24,2.93,12.44,12.44,0,0,1-.66,1.38A2.53,2.53,0,0,1,363.69,302.68Zm5-7.31a32.65,32.65,0,0,1-1.35,3.12,15.8,15.8,0,0,0,1.74-3,6.67,6.67,0,0,0,.56-3.46,6.12,6.12,0,0,0-1.54-3.15,13.88,13.88,0,0,0-2.63-2.23,25.71,25.71,0,0,1,2.31,2.49,6.26,6.26,0,0,1,1.33,3A6.88,6.88,0,0,1,368.67,295.37Z"/>
                      </g>
                      <path class="cls-95" d="M367.55,299.83s1.2,7.62,5.26,6.26-.22-5.93-.22-5.93,1.65,4.9-1.69,2.29Z"/>
                    </g>
                    <g>
                      <g>
                        <path class="cls-96" d="M345.25,315.8c0,2.5-6.06,7.09-12.4,10.16-6.52,3.15-10.08,3.58-12.06,2.9,1.15.69-.26.07,0,0a52.3,52.3,0,0,0,13.41-5.5c5.24-3,9.84-6.29,10.72-7.24C345,316,345.17,315.74,345.25,315.8Z"/>
                        <path class="cls-97" d="M322.52,329.36c.19,0,11-1.66,21.72-11.46,0,0-.61,5.06-7.93,9.24C327.94,331.92,322.52,329.36,322.52,329.36Z"/>
                      </g>
                      <path class="cls-98" d="M320.47,327.24s-1.46,2,.74,2.85"/>
                      <path class="cls-98" d="M343.68,315.19s2.74-1.2,2.71,1.57C346.39,316.76,346,315.19,343.68,315.19Z"/>
                      <path class="cls-99" d="M345.25,316.38a18.8,18.8,0,0,1-4.66,5.24,35.34,35.34,0,0,1-6,3.79,48.64,48.64,0,0,1-6.56,2.6,31.1,31.1,0,0,1-3.42.86,9.65,9.65,0,0,1-3.51.09,9.64,9.64,0,0,0,3.46-.33,32.88,32.88,0,0,0,3.35-1,57.1,57.1,0,0,0,6.46-2.69,37.67,37.67,0,0,0,5.94-3.64A24.91,24.91,0,0,0,343,319,14.68,14.68,0,0,0,345.25,316.38Z"/>
                    </g>
                  </g>
                  <path class="cls-100" d="M273.94,284a35.74,35.74,0,0,1,.82-17.08,38.15,38.15,0,0,1,8.82-15.23,44.71,44.71,0,0,1,6.76-5.84,55.76,55.76,0,0,1,7.64-4.55c1.34-.64,2.68-1.27,4-1.79.7-.28,1.28-.53,2.07-.83s1.52-.53,2.27-.74a52,52,0,0,1,27.58-.33,35.24,35.24,0,0,1,16.18,9.9,45.26,45.26,0,0,1,9.51,15.58,49.88,49.88,0,0,1,3.09,17.2l-1.15.35c-3.25-4.77-6.19-9.36-9.41-13.52a63.55,63.55,0,0,0-10.29-10.9l-1.39-1.12L339,254c-.24-.17-.48-.34-.71-.52s-.49-.32-.73-.48l-1.46-1a51.81,51.81,0,0,0-6.16-3.29,33.79,33.79,0,0,0-14.1-3,40.89,40.89,0,0,0-7.42.69c-.6.11-1.2.25-1.73.38s-1.23.36-1.85.54c-1.29.36-2.5.8-3.72,1.23a48,48,0,0,0-7.06,3.14,38.15,38.15,0,0,0-6.37,4.28,33.87,33.87,0,0,0-9.42,12.18,35.39,35.39,0,0,0-2.46,7.56,31.82,31.82,0,0,0-.71,8Z"/>
                  <g>
                    <g>
                      <g>
                        <path class="cls-101" d="M361.23,256.45c-2.72,4.42-2,9.78-8.32,5.92s-6.48-15-6.48-15,10-4.87,16.31-1S363.94,252,361.23,256.45Z"/>
                        <path class="cls-101" d="M331.38,238.12c-2.72,4.42-7.81,6.23-1.52,10.1s16.32-1,16.32-1-.19-11.14-6.48-15S334.1,233.7,331.38,238.12Z"/>
                      </g>
                      <circle class="cls-102" cx="338.75" cy="236.1" r="1.12"/>
                      <circle class="cls-102" cx="341.67" cy="239.97" r="1.12"/>
                      <circle class="cls-102" cx="335.25" cy="241.81" r="1.12"/>
                      <path class="cls-102" d="M338.84,246.63a1.12,1.12,0,1,1-.37-1.53A1.12,1.12,0,0,1,338.84,246.63Z"/>
                      <circle class="cls-102" cx="332.91" cy="245.61" r="1.12"/>
                      <path class="cls-102" d="M344.25,242.09a1.12,1.12,0,0,0,.36,1.54,1.1,1.1,0,0,0,.88.12c-.1-.67-.24-1.41-.43-2.18A1.1,1.1,0,0,0,344.25,242.09Z"/>
                      <path class="cls-102" d="M343.14,237.48a1.09,1.09,0,0,0,.6.17,16.19,16.19,0,0,0-.94-1.74s0,0,0,0A1.11,1.11,0,0,0,343.14,237.48Z"/>
                      <path class="cls-102" d="M334.59,249.27h0a13.93,13.93,0,0,0,1.94.06,1.06,1.06,0,0,0-.4-.44A1.12,1.12,0,0,0,334.59,249.27Z"/>
                      <path class="cls-102" d="M342.28,247.43a1.13,1.13,0,0,0-1.54.37,1.14,1.14,0,0,0-.1.95c.77-.19,1.5-.4,2.14-.61A1.15,1.15,0,0,0,342.28,247.43Z"/>
                      <path class="cls-102" d="M334.73,236.25a1.12,1.12,0,0,0-.37-1.54,1.14,1.14,0,0,0-.95-.1c-.19.5-.39,1-.62,1.56a1.06,1.06,0,0,0,.4.44A1.12,1.12,0,0,0,334.73,236.25Z"/>
                      <path class="cls-102" d="M335.53,232.81a1.11,1.11,0,0,0,1.65-1.28,2.34,2.34,0,0,0-2.18.33A1.13,1.13,0,0,0,335.53,232.81Z"/>
                      <path class="cls-102" d="M329.69,242.32a1.12,1.12,0,0,0,1.17-1.9,1.16,1.16,0,0,0-.58-.16c-.38.44-.76.86-1.11,1.25A1.09,1.09,0,0,0,329.69,242.32Z"/>
                      <path class="cls-102" d="M328.89,245.76a1.12,1.12,0,0,0-.37-1.53,1.13,1.13,0,0,0-1.07-.06,2.32,2.32,0,0,0,.71,2.1A1.11,1.11,0,0,0,328.89,245.76Z"/>
                      <circle class="cls-102" cx="359.69" cy="248.95" r="1.12"/>
                      <circle class="cls-102" cx="354.71" cy="248.52" r="1.12"/>
                      <circle class="cls-102" cx="356.18" cy="254.66" r="1.12"/>
                      <path class="cls-102" d="M350.25,253.64a1.12,1.12,0,1,0,1.91,1.17,1.12,1.12,0,0,0-1.91-1.17Z"/>
                      <circle class="cls-102" cx="353.84" cy="258.47" r="1.12"/>
                      <path class="cls-102" d="M351.86,246.77a1.12,1.12,0,0,1-2.05-.37c.65-.2,1.37-.41,2.14-.6A1.15,1.15,0,0,1,351.86,246.77Z"/>
                      <path class="cls-102" d="M356.47,245.66a1.07,1.07,0,0,1-.42-.45,14.36,14.36,0,0,1,2,0l0,0A1.11,1.11,0,0,1,356.47,245.66Z"/>
                      <path class="cls-102" d="M349.82,258.62h0a14.81,14.81,0,0,1-.93-1.71,1.17,1.17,0,0,1,.57.16A1.12,1.12,0,0,1,349.82,258.62Z"/>
                      <path class="cls-102" d="M348,250.94a1.12,1.12,0,0,1,.37,1.54,1.1,1.1,0,0,1-.8.51c-.18-.77-.32-1.51-.43-2.18A1.1,1.1,0,0,1,348,250.94Z"/>
                      <path class="cls-102" d="M361.37,252.61a1.12,1.12,0,0,1,1.54-.37,1.15,1.15,0,0,1,.52.81c-.36.4-.74.81-1.11,1.26a1.1,1.1,0,0,1-.58-.16A1.13,1.13,0,0,1,361.37,252.61Z"/>
                      <path class="cls-102" d="M364.08,250.34a1.12,1.12,0,0,1-.37-1.54,1.17,1.17,0,0,1,.76-.51,2.33,2.33,0,0,1,.69,2.1A1.12,1.12,0,0,1,364.08,250.34Z"/>
                      <path class="cls-102" d="M358.23,259.86a1.12,1.12,0,1,1,1.58-1.46c-.22.53-.42,1.06-.62,1.55A1.12,1.12,0,0,1,358.23,259.86Z"/>
                      <path class="cls-102" d="M355.53,262.13a1.11,1.11,0,0,1,1.53-.37,1.09,1.09,0,0,1,.53.93,2.32,2.32,0,0,1-2.18.31A1.08,1.08,0,0,1,355.53,262.13Z"/>
                    </g>
                    <g>
                      <g>
                        <g>
                          <path class="cls-103" d="M337.4,239.21c-1.43,1.46,5.32,5.22,5.32,5.22S338.84,237.75,337.4,239.21Z"/>
                          <path class="cls-103" d="M336.34,244.05c-.37,1.33,5.94,1.67,5.94,1.67S336.71,242.72,336.34,244.05Z"/>
                        </g>
                        <g>
                          <path class="cls-103" d="M357.52,251.57c-.65,1.94-7.06-2.38-7.06-2.38S358.18,249.63,357.52,251.57Z"/>
                          <path class="cls-103" d="M353.69,254.7c-1,.94-4.18-4.54-4.18-4.54S354.7,253.77,353.69,254.7Z"/>
                        </g>
                      </g>
                      <rect class="cls-104" x="342.95" y="243.92" width="6.7" height="6.7" rx="1.98" transform="translate(-45.64 412.95) rotate(-58.44)"/>
                    </g>
                  </g>
                </g>
              </g>
            </g>
          </g>
        </g>
      </g>
    </g>
  </g>
</svg>
