<svg xmlns="http://www.w3.org/2000/svg" xmlns:xlink="http://www.w3.org/1999/xlink" width="619.88" height="562.43" viewBox="0 0 619.88 562.43">
  <defs>
    <style>
      .cls-1, .cls-11, .cls-47 {
        fill: none;
      }

      .cls-2 {
        isolation: isolate;
      }

      .cls-3 {
        fill: #fff;
      }

      .cls-4 {
        clip-path: url(#clip-path);
      }

      .cls-5 {
        clip-path: url(#clip-path-2);
      }

      .cls-6 {
        fill: #f8e2b9;
      }

      .cls-7 {
        fill: #d8d1a3;
      }

      .cls-8 {
        fill: #81ddda;
      }

      .cls-9 {
        fill: #cca96a;
      }

      .cls-10, .cls-66 {
        opacity: 0.3;
      }

      .cls-11, .cls-12, .cls-13, .cls-15, .cls-17, .cls-33, .cls-35, .cls-43, .cls-47, .cls-62 {
        stroke: #323232;
      }

      .cls-11, .cls-12, .cls-13, .cls-15, .cls-17, .cls-18, .cls-22, .cls-27, .cls-31, .cls-32, .cls-33, .cls-34, .cls-35, .cls-40, .cls-43, .cls-47, .cls-48, .cls-50, .cls-52, .cls-62 {
        stroke-miterlimit: 10;
      }

      .cls-12 {
        fill: #ebd2e5;
      }

      .cls-13 {
        fill: #c32348;
      }

      .cls-14, .cls-52 {
        fill: #2f1617;
      }

      .cls-14 {
        stroke: #1e110e;
      }

      .cls-14, .cls-19, .cls-20, .cls-21, .cls-46 {
        stroke-linejoin: round;
      }

      .cls-14, .cls-18, .cls-19, .cls-20, .cls-21, .cls-34 {
        stroke-width: 0.75px;
      }

      .cls-15, .cls-16, .cls-17 {
        fill: #efd7e8;
      }

      .cls-17, .cls-33 {
        stroke-width: 0.25px;
      }

      .cls-18, .cls-29 {
        fill: #f6d7cf;
      }

      .cls-18, .cls-32, .cls-34 {
        stroke: #7f451d;
      }

      .cls-19 {
        fill: #df71e2;
        stroke: #710e7c;
      }

      .cls-20 {
        fill: #686c72;
        stroke: #211f1c;
      }

      .cls-21 {
        fill: #989297;
        stroke: #423a33;
      }

      .cls-22 {
        fill: #61435b;
        stroke: #1c101a;
      }

      .cls-22, .cls-27, .cls-32, .cls-40, .cls-43, .cls-46, .cls-47, .cls-48, .cls-50, .cls-52, .cls-62 {
        stroke-width: 0.5px;
      }

      .cls-23 {
        fill: #4c2f47;
      }

      .cls-24 {
        fill: #342517;
      }

      .cls-25 {
        fill: #e7b5ab;
      }

      .cls-26 {
        fill: #2d1a11;
      }

      .cls-27 {
        fill: #62455b;
        stroke: #1e121b;
      }

      .cls-28 {
        fill: #e3bcb4;
      }

      .cls-30 {
        fill: #7f451d;
      }

      .cls-31 {
        fill: #e7d760;
        stroke: #baa63c;
      }

      .cls-32, .cls-34 {
        fill: #f6f6f5;
      }

      .cls-33, .cls-36 {
        fill: #db9d8e;
      }

      .cls-35 {
        fill: #bb3b93;
      }

      .cls-37 {
        fill: #da9b8d;
      }

      .cls-38 {
        fill: gray;
        mix-blend-mode: screen;
      }

      .cls-39 {
        fill: #f5841f;
      }

      .cls-39, .cls-66, .cls-67, .cls-68, .cls-69, .cls-70, .cls-71, .cls-72, .cls-73, .cls-74, .cls-75, .cls-76, .cls-77, .cls-78, .cls-79, .cls-80, .cls-81, .cls-82, .cls-83, .cls-84, .cls-85, .cls-87, .cls-88 {
        fill-rule: evenodd;
      }

      .cls-40 {
        fill: #fbd2c9;
        stroke: #ae8580;
      }

      .cls-41 {
        fill: #e2ad9e;
      }

      .cls-42 {
        fill: #b98f89;
      }

      .cls-43 {
        fill: #f8d0c5;
      }

      .cls-44 {
        fill: #da9c8d;
      }

      .cls-45 {
        fill: #f7962e;
      }

      .cls-46 {
        fill: #9b5490;
        stroke: #6f297a;
      }

      .cls-48 {
        fill: #28a9a9;
        stroke: #0a7777;
      }

      .cls-49 {
        fill: #c7e8f0;
      }

      .cls-50 {
        fill: #f9d1c6;
        stroke: #453423;
      }

      .cls-51 {
        fill: #e4b1a5;
      }

      .cls-52 {
        stroke: #201d1e;
      }

      .cls-53 {
        fill: #bf8674;
      }

      .cls-54 {
        fill: #f0e7e0;
      }

      .cls-55 {
        fill: #4f341a;
      }

      .cls-56 {
        fill: #431f17;
      }

      .cls-57 {
        fill: #531323;
      }

      .cls-58 {
        fill: #cc5254;
      }

      .cls-59 {
        fill: #8a1732;
      }

      .cls-60 {
        fill: #e6f4f3;
      }

      .cls-61 {
        fill: #6b1213;
      }

      .cls-62 {
        fill: #fac7b3;
      }

      .cls-63 {
        fill: #5fbf92;
      }

      .cls-64 {
        fill: #28b179;
      }

      .cls-65 {
        fill: #04977b;
      }

      .cls-66 {
        fill: #020202;
      }

      .cls-67 {
        fill: #d97227;
      }

      .cls-68 {
        fill: #00b1b1;
      }

      .cls-69 {
        fill: #2c61a8;
      }

      .cls-70 {
        fill: #1e417b;
      }

      .cls-71 {
        fill: #a91e23;
      }

      .cls-72 {
        fill: #ee364c;
      }

      .cls-73 {
        fill: #d51f26;
      }

      .cls-74 {
        fill: #008c8c;
      }

      .cls-75 {
        fill: #006969;
      }

      .cls-76 {
        fill: #7b9e3e;
      }

      .cls-77 {
        fill: #91ba3e;
      }

      .cls-78 {
        fill: #66853a;
      }

      .cls-79 {
        fill: #dcb426;
      }

      .cls-80 {
        fill: #fdd72d;
      }

      .cls-81 {
        fill: #f6c911;
      }

      .cls-82 {
        fill: #936;
      }

      .cls-83 {
        fill: #d5649c;
      }

      .cls-84 {
        fill: #bd4f85;
      }

      .cls-85 {
        fill: #f9a64d;
      }

      .cls-86 {
        opacity: 0.5;
        mix-blend-mode: multiply;
      }

      .cls-87 {
        fill: #5a4a42;
      }

      .cls-88 {
        fill: #cba96a;
      }

      .cls-89 {
        fill: #d36855;
      }

      .cls-90 {
        fill: #e27f39;
      }
    </style>
    <clipPath id="clip-path">
      <rect class="cls-1" x="40.05" y="56.3" width="539.79" height="449.82" rx="116.93"/>
    </clipPath>
    <clipPath id="clip-path-2">
      <rect class="cls-1" x="-310.3" y="34.11" width="1282.63" height="721.48"/>
    </clipPath>
  </defs>
  <g class="cls-2">
    <g id="Layer_1" data-name="Layer 1">
      <g>
        <rect class="cls-3" x="30.65" y="47.2" width="558.58" height="468.03" rx="124.29"/>
        <g class="cls-4">
          <g class="cls-5">
            <g>
              <path class="cls-6" d="M-445.46,398.7c-2,39.69-4.05,79.64,2.08,119.2a42.51,42.51,0,0,1,2.56,12.55H1269.7c-.68-12.52-1.18-25.05-1.58-37.6-.7-22.19-1.32-44.39-2.72-66.57l-192-91.13H-292.25l-152.36,44.49Q-445,389.17-445.46,398.7Z"/>
              <path class="cls-7" d="M1380.65,846.8c-.92-77.95-1.7-155.94-3.73-233.83-1.76-67.23-4.05-134.34-5.43-201.58l-62.37-79.82-1869.79-.16L-609.47,559l26.1,400.91H1382.38Q1381.27,903.41,1380.65,846.8Z"/>
              <polygon class="cls-8" points="-412.29 -325.52 -413.18 354.43 1127.39 352.23 1130.93 -325.11 -412.29 -325.52"/>
              <polygon class="cls-9" points="-420.99 354.96 1122.8 352.37 1122.82 326.49 -420.99 329.09 -420.99 354.96"/>
              <rect class="cls-1" x="-404.81" y="-315.68" width="1504.07" height="846.04"/>
              <rect class="cls-1" x="-409.1" y="-311.13" width="1504.07" height="846.04"/>
            </g>
          </g>
          <g>
            <ellipse class="cls-10" cx="180.39" cy="450.97" rx="47.45" ry="13.09"/>
            <ellipse class="cls-10" cx="427.57" cy="427.26" rx="87.24" ry="17.97"/>
            <path class="cls-11" d="M423.41,422.92a52.4,52.4,0,0,1,30.72-4.78"/>
            <path class="cls-12" d="M409.44,410.4s6.65,9.05.85,16.73l31.31-8.45s-7-11.26-15.87-8.53C425.73,410.15,418.82,410.57,409.44,410.4Z"/>
            <path class="cls-13" d="M415.32,410.49s7.09,4.69,2.14,14.76l-6.23,1.19a13.46,13.46,0,0,0-.68-15.44Z"/>
            <g>
              <path class="cls-11" d="M422.78,423.21a52.92,52.92,0,0,1,31-4.83"/>
              <path class="cls-12" d="M408.66,410.56s6.72,9.14.86,16.89l31.64-8.53s-7.07-11.38-16-8.62C425.13,410.3,418.14,410.73,408.66,410.56Z"/>
              <path class="cls-14" d="M429,401.33s-5.74-1.61-5.28,6.9l-1.38,2.18s4.37-.46,15.63,9.43c0,0,31.5-1,34.49-11.84Z"/>
              <path class="cls-15" d="M425.7,402.48s.46,5.75,21.38,6.67,25.29-1.84,25.29-1.84,3.68-3-14.25-4.6S430.07,399.26,425.7,402.48Z"/>
              <polygon class="cls-16" points="440.76 419.04 441.97 415.41 447.14 415.76 445.76 418.75 440.76 419.04"/>
              <polygon class="cls-16" points="447.89 418.46 448.98 415.7 454.61 415.76 453.81 417.71 447.89 418.46"/>
              <path class="cls-17" d="M428.57,403.21s.4,3.83,18.37,4.45,21.72-1.23,21.72-1.23,3.15-2-12.25-3.07S432.33,401.06,428.57,403.21Z"/>
              <path class="cls-13" d="M414.61,410.64s7.15,4.74,2.15,14.92l-6.29,1.21a13.6,13.6,0,0,0-.69-15.61Z"/>
              <path class="cls-18" d="M354,415.22a27,27,0,0,0,4.14,20.17c6.72,9.83,35.69,6.21,41,1.21S388.53,401.08,354,415.22Z"/>
              <path class="cls-18" d="M394.56,418s-4.48,11-.34,17.41S412.15,450.05,457,433c0,0,6.55-6.9-.17-14.66a18.33,18.33,0,0,1-10.52-2.93C440.6,411.94,399.74,408.84,394.56,418Z"/>
              <path class="cls-19" d="M451.72,417.72s6.73,9.14.86,16.9l31.64-8.54s-7.06-11.38-16-8.62C468.19,417.46,461.21,417.89,451.72,417.72Z"/>
              <path class="cls-14" d="M472.1,408.49s-5.75-1.61-5.29,6.9l-1.38,2.18s4.37-.46,15.63,9.43a75.78,75.78,0,0,0,34.57-12.31.24.24,0,0,0-.1-.44Z"/>
              <path class="cls-20" d="M468.76,409.64s.46,5.75,21.39,6.67,25.28-1.84,25.28-1.84,3.68-3-14.25-4.6S473.13,406.42,468.76,409.64Z"/>
              <path class="cls-20" d="M471.64,410.37s.39,3.84,18.36,4.45,21.72-1.23,21.72-1.23,3.16-2-12.24-3.07S475.39,408.22,471.64,410.37Z"/>
              <path class="cls-21" d="M457.67,417.8s7.16,4.75,2.16,14.92l-6.3,1.21a13.6,13.6,0,0,0-.69-15.61Z"/>
            </g>
            <g>
              <path class="cls-22" d="M453.22,354.21s18,13.88,11.61,34.58l-13.66,28.44s-13.65-3.18-26.62,2-33.73,13.24-48.74,6.18-22-7.54-21.34-4.59c0,0-5.69-3.64,8-14.56,0,0,12.41-15.68,24-23.64l13.64-11.54S448.33,375.33,453.22,354.21Z"/>
              <path class="cls-23" d="M377.51,400.82s9.3,18,27.4,7.74,24.19-20.33,39.25-19.62c0,0-9.46-8.09-41.49,17.38C402.67,406.32,388.4,414.23,377.51,400.82Z"/>
            </g>
            <g>
              <path class="cls-24" d="M459.87,251.31s4.85,21.47.26,35.72c-7,21.6-28.24,29.75-31.57,5.3-1.37-10,13.56-18.46,11.5-29.89S455.27,230,459.87,251.31Z"/>
              <path class="cls-24" d="M364.88,261.14s6.49,11.15,4.31,28.69,20,23.92,26.49,16.95,29.54-9,40.34-5.23,24.1-30.91,5.7-39.24S364.88,261.14,364.88,261.14Z"/>
            </g>
            <g>
              <g>
                <g>
                  <path class="cls-18" d="M338.64,352.6s9.84-3.19,23.68-6.19c1.83-.4,7.7-4.88,12-12.34a39.67,39.67,0,0,0,2.27-4.62l.78.76a72.13,72.13,0,0,0,12.15,9.52l1.85,1.17s-.49,1-1.31,2.49c-3,5.5-10.21,18.25-14.22,18.95A106.29,106.29,0,0,1,337.7,362"/>
                  <path class="cls-25" d="M391.45,340.4s-.7,1.53-1.51,3.06c-7.43-.34-12.48-5.57-15.41-9.31a37.28,37.28,0,0,0,2.27-4.61l.78.75a72.78,72.78,0,0,0,12.16,9.53Z"/>
                </g>
                <g>
                  <path class="cls-18" d="M341.32,351.84a27.38,27.38,0,0,1-8.55-7.64,52.43,52.43,0,0,0-5.77-6.91s-8.81-4.85-19.17,3.65c0,0,.13,3.3,4.68,2.09,0,0-7.69,4.85-5.81,10.27,0,0,1.12,1.46,2.82-.08,0,0-1.74,2.82.22,3.86s5.92-4.38,9.88-5.13c0,0,.07,0,.86,1.15a11.66,11.66,0,0,0-5.8,5.47c-1.84,3.95,1.27,3.21,2.41,2.08a61.25,61.25,0,0,1,5-3.82,9.06,9.06,0,0,1,5,1.75c2.17,1.72,4.19,6.82,12.29,3.24"/>
                  <path class="cls-18" d="M309.68,353.1s2.12-4.68,8.56-6.36"/>
                  <path class="cls-18" d="M310.91,344.28a10,10,0,0,1,7.95-2.4"/>
                  <path class="cls-18" d="M319.54,340.88s-3.76,7.2,1.2,12.52"/>
                  <path class="cls-18" d="M334.58,348s-4.4.56-8.29-4.24l-3.66-4a.78.78,0,0,0-1-.17c-.57.39-1.08,1.57.22,5.13,0,0,2.25,5,5.77,5.56,0,0-1.4,2.57,1.28,5.68s3.28,3.3,5.47,2.43"/>
                </g>
              </g>
              <path class="cls-19" d="M390.65,305.06s-14,17.48-15.44,23.79c0,0-.87,4.49,10.13,10.13a10.86,10.86,0,0,0,6.9,1.76L399,325.15"/>
              <path class="cls-19" d="M403.12,298.11S393.46,311,392,317.31c0,0-.87,4.5,10.13,10.13,0,0,21.65-4,25.23-4.55L423.16,303"/>
            </g>
            <path class="cls-18" d="M422.08,299.6c-6.61,12.19-17.84,6.57-19.43,1.87a2.93,2.93,0,0,1-.09-1.84c1.5-4.66-1.46-10.32-1.46-10.32,2.1-11.31,21.19-12.66,21.19-12.66-4.05,7.32-.47,8.55-.47,8.55-2.68,5.12,1.33,10.65,1.16,11.79A5.74,5.74,0,0,1,422.08,299.6Z"/>
            <g>
              <path class="cls-26" d="M407.6,303.76c.63-.32,2.74-2.33,7.47-.95s-.55,7.51-.55,7.51l-5,.41S402.35,306.46,407.6,303.76Z"/>
              <path class="cls-26" d="M422.94,336.72c-.09.39-.17.78-.26,1.16h0c-2.8,11.94-8.44,18.24-8.44,18.24a64,64,0,0,1-5.39-7c-.79-1.21-1.4-2.27-1.88-3.18a15.82,15.82,0,0,1-1.65-4.12c-.05-1.45-.07-2.85-.07-4.2s0-2.49.06-3.66c.11-3.36.36-6.34.68-9,.17-1.33.35-2.56.54-3.72,1.27-7.39,3-11.06,2.85-11.58-.34-1.46,5.36-1.4,5.36-1.4a55,55,0,0,0,1.43,7.41c.21.82.43,1.66.66,2.51.67,2.44,1.43,4.92,2.18,7.25l.77,2.36c.94,2.82,1.81,5.25,2.4,6.86C422.65,336,422.94,336.72,422.94,336.72Z"/>
            </g>
            <path class="cls-22" d="M389.6,306.11c3.33-5,4.8-4,11.41-6.47-2,4.37-2,17-.92,20.1s7.34,7.35,22-2.09c2.1-4.2,1.47-23.08,1.47-23.08,26.13,6.48,27.91,22.23,31.3,33s6,37.3,6,37.3c-29.22,18.56-55.09,8.38-55.09,8.38-9.93,10.5-9.61-21.06-15-39.21C387.5,322.89,387.5,309.26,389.6,306.11Z"/>
            <g>
              <path class="cls-26" d="M459.86,358.55l1.33,7.6S454.72,376.78,433,381,398,375.33,398,375.33l-.14-5.95s13.74,6.95,28.64,5.15C455.43,371,459.86,358.55,459.86,358.55Z"/>
              <path class="cls-27" d="M421.07,376h0c0,.3,1.22,6.3,1.29,6.62,0,0,0,0,0,0l2.76,0s0,0,0,0l-1.29-6.89A18.4,18.4,0,0,0,421.07,376Z"/>
              <path class="cls-27" d="M443.72,370c-.32.1-2.14,1.13-2.14,1.13s1.82,7.22,1.82,7.22l2.76-1.31Z"/>
            </g>
            <path class="cls-28" d="M422.62,297.59c-8.45,6.67-15.36,5.51-19.7,4.09a6,6,0,0,1-.16-2.65c1.49-4.66-1.78-9.86-1.78-9.86,2.11-11.31,21.19-12.66,21.19-12.66-4,7.33-1.15,15.5-1.15,15.5C421.27,294.11,422.8,296.45,422.62,297.59Z"/>
            <g>
              <path class="cls-19" d="M411.05,302.1c-.45.2,7.4,7.88,7.4,7.88s5.87-3.14,6.93-13.86l-4.06-3.3S419.71,298.27,411.05,302.1Z"/>
              <path class="cls-19" d="M408.52,302.31c.46.16-3.08,9.56-3.08,9.56s-3.56-.09-6.31-10.51l1.35-4.34S400.68,299.54,408.52,302.31Z"/>
            </g>
            <g>
              <g>
                <path class="cls-18" d="M360.19,247.38s5.13,12.46,6.73,22.89c1.4,9.18,4.67,22.17,24.31,28,6.57,1.93,8.16,3.14,14.79,1.44,9.88-2.53,27-12.82,31.87-30.89,0,0-1.43-29.32-11.71-43.12,0,0,1.78-20.8-36.69-18.13S360.19,247.38,360.19,247.38Z"/>
                <path class="cls-28" d="M405.14,217.32a22,22,0,0,1-4,10.76c-4.21,6.24-11.34,11.56-20.08,11.4l.07-3.33s-5,7.54-10.35,2.24l2.19-5.07s-1.14,6.63-9.19,10.41,1-19.28,1-19.28l19.42-12.78,24.51-2.74,13.07,6.73,15.4,22-.82,14.07,1.89,10.6s-3.58-2.88-6.32-14.46S414.09,236,405.14,217.32Z"/>
              </g>
              <g>
                <path class="cls-29" d="M393.71,269.81c-3.75,6.12-10.38,2.76-10.55.85,0,0-.92-1.06,1.4-5,1.84-3.14-1-6.49-1-6.49"/>
                <path class="cls-30" d="M393.75,269.83a8.4,8.4,0,0,1-2.12,2.44,6.16,6.16,0,0,1-3,1.21,7,7,0,0,1-3.26-.47,6.11,6.11,0,0,1-1.47-.83,2.51,2.51,0,0,1-1-1.49l.07.18a1.62,1.62,0,0,1-.27-.94,3.87,3.87,0,0,1,.06-.84,7.93,7.93,0,0,1,.46-1.55,14.34,14.34,0,0,1,.67-1.43l.39-.69a4.65,4.65,0,0,0,.32-.63,4.76,4.76,0,0,0,.17-2.85,8.65,8.65,0,0,0-1.18-2.77l.06-.05a7.16,7.16,0,0,1,1.62,2.69,5.13,5.13,0,0,1,0,3.24,5.77,5.77,0,0,1-.35.76l-.37.66c-.23.45-.47.9-.66,1.36a7.11,7.11,0,0,0-.47,1.39,3.47,3.47,0,0,0-.1.7,1.51,1.51,0,0,0,.09.54l.07.14v0a2,2,0,0,0,.76,1.11,5.48,5.48,0,0,0,1.31.8,6.44,6.44,0,0,0,3,.55,5.81,5.81,0,0,0,2.94-1,7.94,7.94,0,0,0,2.18-2.29Z"/>
              </g>
              <path class="cls-24" d="M393.9,245.05s-1.47-2.41,2.41-4.44,11.27-.65,13.06,1.85C409.37,242.46,398.63,240.74,393.9,245.05Z"/>
              <path class="cls-24" d="M376.44,247.41a3.6,3.6,0,0,0-3.86-2c-2.95.32-6.6,3.86-6.66,5.94C365.92,251.32,372.16,246.76,376.44,247.41Z"/>
              <path class="cls-24" d="M407,214.75s.59,1.45-7.65,13.24c-7,10-18.68,9-18.68,9s4.36-6.11,3.23-11.6c0,0-2.81,13.79-11.36,13.5,0,0,2.81-6.56.87-10.69,0,0-2.48,8.5-7.5,10.94s-4,11.45-4,11.45S342.21,241,360,210.08c.1-.17,7.53-16,31.12-22.84,30.87-9,54.8,4.43,64.53,26.35S461.55,266,461.55,266s-10.17,17.75-22.31.55L438,262.85s-3-1.83-5.1-15.14S408.23,228.92,407,214.75Z"/>
              <g>
                <g>
                  <g>
                    <path class="cls-29" d="M434.54,271.43c2.21.67,9.16-.37,12.13-5.12,9.45-15.12-.13-20.7-6.13-18.89-1.51.46-6.78,2.73-7.29,11.35"/>
                    <path class="cls-30" d="M434.54,271.43a9.25,9.25,0,0,0,3.4-.11,15.86,15.86,0,0,0,3.25-1,11.29,11.29,0,0,0,5.15-4.13,31.4,31.4,0,0,0,3-6.1,13.65,13.65,0,0,0,.81-6.58,7,7,0,0,0-3.64-5.19,7.94,7.94,0,0,0-6.4-.43,9.64,9.64,0,0,0-4.94,4.36,16.12,16.12,0,0,0-1.92,6.51,15.48,15.48,0,0,1,1.59-6.69,10.16,10.16,0,0,1,5-4.74,8.48,8.48,0,0,1,6.95.4,7.71,7.71,0,0,1,4,5.65,13.91,13.91,0,0,1-.83,6.95,30.94,30.94,0,0,1-3.12,6.22,9.79,9.79,0,0,1-2.44,2.57,13,13,0,0,1-3.1,1.64,14.16,14.16,0,0,1-3.38.83A8.53,8.53,0,0,1,434.54,271.43Z"/>
                  </g>
                  <path class="cls-25" d="M436.68,261.51s-1.23-9.76,5.73-9.67c6.06.08,3.71,12.73-2.66,16.22,0,0-2.41,1-.16-4.16S436.68,261.51,436.68,261.51Z"/>
                </g>
                <path class="cls-31" d="M437.34,269.32s-3.64,8.32.84,9.61,2.55-7.58,2.44-8.09h0c-.06.42-.95,6.64-2.09,2.63Z"/>
              </g>
              <g>
                <path class="cls-32" d="M410.54,254.14c.85,4.34-1.62,8.47-5.51,9.23s-7.74-2.15-8.58-6.49a7.86,7.86,0,0,1,3.95-8.71,6.36,6.36,0,0,1,1.56-.52C405.85,246.89,409.69,249.8,410.54,254.14Z"/>
                <path class="cls-24" d="M402.91,263.42h0l.44.05.76,0h.3c.19,0,.38-.08.57-.13l.12,0c.28-.08.56-.17.83-.27l.41-.16h0l0,0a5,5,0,0,0,1-4.13,4.54,4.54,0,1,0-8.88,1.73,4.54,4.54,0,0,0,.18.63.66.66,0,0,1,.14.15l.08.11a.63.63,0,0,1,.23.16,5.29,5.29,0,0,0,.54.52c.05,0,.24.18,0,0l.16.12.31.21a4.39,4.39,0,0,0,.47.27l.48.24h0l.15.06.33.12.64.2a4.88,4.88,0,0,0,.55.12Z"/>
                <path class="cls-33" d="M396.29,254.73c-.58-.42.57-4.91,4.11-6.56a6.81,6.81,0,0,1,4.63-.37,8.11,8.11,0,0,1,5.51,6.34,10.42,10.42,0,0,0-4.9-2.36,10,10,0,0,0-4.9.27C397.8,253,396.72,255,396.29,254.73Z"/>
                <circle class="cls-3" cx="404.91" cy="255.23" r="1.41"/>
              </g>
              <g>
                <path class="cls-34" d="M380.94,259.86c.84,4.34-1.36,8.42-4.91,9.12s-7.13-2.27-8-6.61a9,9,0,0,1-.18-2c.06-3.51,2.09-6.49,5.08-7.07C376.52,252.56,380.09,255.52,380.94,259.86Z"/>
                <path class="cls-24" d="M378.17,264.2c-.52-2.65-2.78-4.44-5.05-4s-3.7,2.95-3.18,5.61a2,2,0,0,0,.07.23l.26.28c.37.38.75.74,1.15,1.08l.18.14,0,0,.09.07.44.31c.12.08.24.14.37.21l.76.26c.37.1.75.18,1.13.26l.68.05.73-.1.3-.05h.06l.36-.12.18-.06.05,0,.31-.15.34-.19A5.13,5.13,0,0,0,378.17,264.2Z"/>
              </g>
            </g>
            <ellipse class="cls-3" cx="375.6" cy="260.04" rx="1.17" ry="1.37" transform="translate(-42.81 76.66) rotate(-11.03)"/>
            <ellipse class="cls-3" cx="404.41" cy="254.37" rx="1.17" ry="1.37" transform="translate(-41.19 82.06) rotate(-11.03)"/>
            <g>
              <path class="cls-35" d="M441.36,346.08c2-.43-1.67-8.74-7.75-12s-12.53-5.44-13.51-3.6,2.33,7.63,8.41,10.88S437.76,346.83,441.36,346.08Z"/>
              <path class="cls-18" d="M367.6,323.14c4.28,6.14,12,14.78,12,14.78,7.68,9.46,28.83,13.81,28.83,13.81L420.18,334l2.58-3.87c14.69,1.76,17.45,11.21,17.45,11.21q-1.86,3.47-3.74,6.51c-11.3,18.44-22,25.58-22,25.58-13.65-1.22-32.48-18-38.28-22.74s-8.24-8.6-13.27-8.42"/>
              <g>
                <path class="cls-29" d="M407.53,351.49s4.55,1.67,6,10.37"/>
                <path class="cls-30" d="M407.66,351.13a7.75,7.75,0,0,1,2.51,2.07,12.25,12.25,0,0,1,1.67,2.68,17.49,17.49,0,0,1,1.08,2.93l.36,1.52.25,1.53-.35-1.51-.44-1.48a17.7,17.7,0,0,0-1.23-2.82,11.84,11.84,0,0,0-1.76-2.48,7.15,7.15,0,0,0-2.35-1.73Z"/>
              </g>
              <path class="cls-25" d="M440.28,341.06c-1.24,2.31-2.46,4.3-3.71,6.32-2.69-6.51-11.79-11.18-16-13.28l2.58-3.87C437.8,332,440.28,341.06,440.28,341.06Z"/>
              <path class="cls-19" d="M452.37,327.68l-10.88,18.16c-.06.1-.18.08-.25,0-9.15-13.2-21.14-15.33-21.14-15.33a178.68,178.68,0,0,0,9.39-15.27s1.14-7,5.62-10.47c0,0,5.88-3.89,11.12,2.4S454.31,323,452.37,327.68Z"/>
              <g>
                <g>
                  <line class="cls-18" x1="357.96" y1="327.34" x2="359.37" y2="326.99"/>
                  <g>
                    <path class="cls-29" d="M347.91,327.45s1.67-.94,4.32,1.28"/>
                    <path class="cls-30" d="M347.91,327.45a1.8,1.8,0,0,1,1.17-.49,3.22,3.22,0,0,1,1.27.2,3.57,3.57,0,0,1,1.88,1.57c-.79-.28-1.45-.63-2.14-.87a6.52,6.52,0,0,0-1-.31A4.21,4.21,0,0,0,347.91,327.45Z"/>
                  </g>
                  <path class="cls-30" d="M350.57,328.42a14.46,14.46,0,0,0,2.94.15,13.68,13.68,0,0,0,2.87-.39,16.5,16.5,0,0,0,2.64-1.05,21.78,21.78,0,0,0,2.52-1.44l.07.07A5.84,5.84,0,0,1,359.5,328a7.62,7.62,0,0,1-3,.95,13.64,13.64,0,0,1-6-.45Z"/>
                  <path class="cls-18" d="M374.12,349.06c-4.46-3.72-5.52-4.1-5.52-4.1-1.35,2-9.84,2.6-14,.49-3.8-1.95-3-4.28-3-4.28-4.16-3.26-1.86-5.13-1.86-5.13-4-3.15-1.18-5.44-1.18-5.44-1.75-1.48-2.05-4.11-.31-5.37s7.58,1,7.58,1l.85.2s1.61-7.37,7.37-5.54a14.5,14.5,0,0,1,7.57,5.2s5.26,10.75,10.9,14.56"/>
                  <path class="cls-18" d="M347.85,330a9,9,0,0,0,6.57,2.22"/>
                  <path class="cls-18" d="M349.37,335.52s1.25,1.83,6.21,1.79"/>
                  <path class="cls-18" d="M351.13,340.72s1.48,1.52,5.86,1.28"/>
                </g>
                <path class="cls-18" d="M363,326.42a54.25,54.25,0,0,0-6.22,0"/>
              </g>
            </g>
            <path class="cls-36" d="M254.89,331.17s-2.56-1.7-3.43-2.4"/>
            <path class="cls-37" d="M235.34,268.86c-.13-.45-.77-2.8-.77-2.8"/>
            <path class="cls-38" d="M196.87,301.62a1.69,1.69,0,0,0-2.38,0"/>
            <line class="cls-36" x1="135.15" y1="313.22" x2="136.98" y2="311.24"/>
            <polygon class="cls-39" points="231.87 286.62 240.98 286.06 243.12 284.97 230.51 284.85 231.87 286.62"/>
            <g>
              <g>
                <g>
                  <g>
                    <g>
                      <path class="cls-40" d="M201.8,385.88S196,424.1,194,427.51s-10.84,8.36-17,8c0,0,2-39,4.27-45.31S201.8,385.88,201.8,385.88Z"/>
                      <path class="cls-41" d="M201.09,388.93s-7.36,2.24-9.86,2.84a34.21,34.21,0,0,1-10.41,1s.29-3.05,1.06-3.69c1.11-.92,19.87-3.94,19.87-3.94Z"/>
                    </g>
                    <g>
                      <path class="cls-19" d="M197.06,414a26.71,26.71,0,0,1-18.78-.43l-1.69,22.18s14.29.58,17-4Z"/>
                      <path class="cls-14" d="M203.79,433.61s-2-4.13-7.77-3.56c-6.22.62-9.19.36-11.53.83-4,.78,1.91,2.62-5.77,1.06l-2.24-.47s-3.9-1-4.59,1.61-.6,7.61-1.64,10.2-1.31,4.17.29,4.67,25.23,11.18,45,2.48C215.55,450.43,226.7,434.58,203.79,433.61Z"/>
                      <path class="cls-20" d="M169.93,444s16.62,6.06,23.53,7,23.25-2.43,23.63-3.38-1.54,2.84-1.54,2.84-8.79,4.12-21.52,3.25A76.64,76.64,0,0,1,170.54,448S168.1,447.39,169.93,444Z"/>
                      <path class="cls-21" d="M197.66,411s-13.33,3.06-19-.4l-.37,3s10.45,4,18.78.43Z"/>
                    </g>
                  </g>
                  <path class="cls-42" d="M202.23,378.23c0,1.91-.08,4.07-.25,6.54-.29,4.16-1.59,7.77-2,11.69-3.6.51-6.3,1.18-9.94,1.13-2.48,0-6.87-.12-9.91-2l.26-13.11,4.9-4.92a22,22,0,0,1,7.47-1.17A25.85,25.85,0,0,1,202.23,378.23Z"/>
                </g>
                <g>
                  <g>
                    <path class="cls-40" d="M174.28,392s-5.79,34.28-6.74,39.21-15.18,8.35-20.67,7.07c0,0,6.21-41.52,8.48-46.17S174.28,392,174.28,392Z"/>
                    <path class="cls-41" d="M174,392.69s-7.36,2.24-9.86,2.84a34.37,34.37,0,0,1-10.4,1s.29-3.06,1.06-3.7c1.1-.92,19.87-3.94,19.87-3.94Z"/>
                  </g>
                  <g>
                    <path class="cls-19" d="M169.79,418.39a29.07,29.07,0,0,1-19.62-.37l-3.92,21.92s17.51.17,20.35-4.46Z"/>
                    <path class="cls-14" d="M174.26,437.8s-1-6.55-7.22-5.8-9.41,2.13-12.94,2.61c-4,.54,2.39,3-5.28,1.46l-1.87-.41s-3.91-1-4.59,1.61-.61,7.61-1.65,10.2-1.3,4.17.29,4.67,25.23,11.17,45,2.48C186,454.62,197.17,438.77,174.26,437.8Z"/>
                    <path class="cls-20" d="M140.4,448.21s16.61,6.06,23.52,7,23.25-2.43,23.63-3.38-1.54,2.84-1.54,2.84-8.79,4.12-21.51,3.25a76.75,76.75,0,0,1-23.5-5.73S138.56,451.57,140.4,448.21Z"/>
                    <path class="cls-21" d="M170.07,416s-13.58,2.54-19.45-.9l-.45,2.95s10.29,4.29,19.62.37Z"/>
                  </g>
                  <path class="cls-42" d="M174.5,396.36c-.44,2-1.3,4.8-1.71,6.74a22.8,22.8,0,0,1-4.76.7,31.47,31.47,0,0,1-10.78-1.24,18.5,18.5,0,0,1-4-1.75c.18-3.82.05-6.35.05-6.35S180.77,368.12,174.5,396.36Z"/>
                </g>
                <path class="cls-22" d="M207,341.7l.54,20.9q-.33,14.49-.67,29c-10.11,1.3-21.35.69-31.46,2l4.43-11-.07-.54-.29-2.24-.76-6-.24-1.85-1.41-11-.74-5.84-.24-1.83-2.5-19.62Z"/>
                <path class="cls-22" d="M187.4,354.66l-.57,10.56q-1,8.28-2,16.59-.9,7.38-1.81,14.75a109.37,109.37,0,0,1-16.72-.12,115,115,0,0,1-15.12-2.3l-4.81-29.47-1.27-14.35,31,2.95,7.22.69Z"/>
              </g>
              <g>
                <path class="cls-43" d="M243.15,318l-4.86,6.56s-11.19-2.95-20.22-4.77c-8-1.63-18.15-7.21-25.85-16.23-1-1.11-1.87-2.28-2.74-3.49-7.9-11.07,12-11.35,12-11.35l3.76,3.38,7.43,6.66S229.75,313.6,243.15,318Z"/>
                <path class="cls-44" d="M205.23,292.11c-3.17,6.49-9.26,9.9-13,11.46-1-1.11-1.87-2.28-2.74-3.49-7.9-11.07,12-11.35,12-11.35Z"/>
                <path class="cls-19" d="M180.83,263.44s11.28,4.86,23.2,25.86c0,0-4,7.58-14.86,14.95l-11.68-9Z"/>
                <path class="cls-19" d="M188.91,272.72A164.57,164.57,0,0,1,197,298.94c1,5.83,3.91,17.06,6.63,26.84.44,1.59,2.28,8.12,3.95,13.87.73,2.52.81,2.77,1.24,4.24a71.68,71.68,0,0,1-20,9.8c-17.64,5.41-32.84,2.46-34.82,1.65a8.13,8.13,0,0,0-2.63-.66,12.17,12.17,0,0,0-2.86.22c-3.39.32-6.24-1.29-6.48-2.2a1.72,1.72,0,0,1,0-1,13.26,13.26,0,0,0,.75-1.39c1.07-2.39-1.77-17.19-8.36-49.09-.75-5.27-1.27-15.24,4.45-24.27,4.33-6.84,10.68-10,14.77-13s20.66-9.81,20.66-9.81"/>
                <path class="cls-27" d="M174,286.32l3.63,33.45,12.14,6.9,2.78-9.79-12.06-31.35S176.77,287.92,174,286.32Z"/>
                <rect class="cls-45" x="222.47" y="283.56" width="25.33" height="25.33"/>
                <g>
                  <path class="cls-43" d="M174.17,302.56s-5.24,1.82-5.76,7"/>
                  <path class="cls-46" d="M169.73,297.21c2.44,1.75-1.12,7-5.78,13.44s-10.42,10.33-12.86,8.58-.62-8.43,4-14.91S167.3,295.46,169.73,297.21Z"/>
                  <g>
                    <path class="cls-43" d="M209.2,308.7s-24.29,12.7-42.53,7.93a40.93,40.93,0,0,1-7.76-6.25,37.87,37.87,0,0,1-4.34-5.28c-5-7.42,11.93-10.19,11.93-10.19l4.11,4.1,3.56,3.55,32.89-2.9S214.61,304.52,209.2,308.7Z"/>
                    <path class="cls-43" d="M203.19,300s4.73,0,9-7.11,1.79-9.19,9.47-11.6,10.57-1.89,10.57-1.89a19.33,19.33,0,0,1,3.92,1.91c1.22.84,2.05,1.87,1.14,2.87,0,0-.53.52-5.94-.82,0,0-6.61.77-8.34,4.14,0,0,5.88-2,10.31.13a6.37,6.37,0,0,1,4.29,4.9,1.66,1.66,0,0,1-1,1.7s2.53,2.68-.19,4.17c0,0,.5,2.64-2.5,2.08s-5.22-.94-5.22-.94-4.67.51-6.77,3.95-6.66,7.63-15,5.22"/>
                    <path class="cls-47" d="M236.66,294.25s-1.21-2.25-4.92-2.72a26.18,26.18,0,0,0-8.35.79"/>
                    <path class="cls-47" d="M236.15,298.31s-4.42-5.37-12.14-1.15"/>
                    <path class="cls-44" d="M170.61,299c-7.43,4.44-10.49,8.87-11.7,11.37a37.87,37.87,0,0,1-4.34-5.28c-5-7.42,11.93-10.19,11.93-10.19Z"/>
                  </g>
                  <path class="cls-19" d="M155.08,276s6.66,13.08,14.62,20.93c0,0-11.12,3-18.36,22.27,0,0-9.2-7.89-13.08-33.21"/>
                </g>
                <g>
                  <path class="cls-43" d="M234.67,323.74s.51.84,1.26,2.39c1.33,2.74-3.57,3.48-4.46,6.35s5.3,2.22,7.74-2.5c0,0,2.52-2.39,7.72-.83,4.9,1.47,10.18,3.71,11.62,2.94,2.48-1.33-3.82-4.21-5.7-4.75-.31-.09-4.53-1.61-1.25-1.73,4.91-.19,12.21.6,14.42-1,0,0,1.37-1.46-2.18-2,0,0,3.32-.11,2.44-2.07s-5.86-1.45-5.86-1.45,3.45.29,2.51-1.29a3.51,3.51,0,0,0-3.74-1.35,79.56,79.56,0,0,1-11,1.11,38.39,38.39,0,0,1-9.28-.74"/>
                  <path class="cls-47" d="M264.51,322.57a77.15,77.15,0,0,0-11.77-.18"/>
                  <line class="cls-47" x1="262.01" y1="318.97" x2="253.97" y2="319.72"/>
                </g>
                <path class="cls-48" d="M182.4,269.08c-.73,3.83-5.74,6.34-11.07,6.12-10.39-.43-14-7.09-15.21-11.52,3.1-1.4,5.31-2.19,5.31-2.19,14.16-1.07,19.29,3,19.29,3S183.13,265.26,182.4,269.08Z"/>
                <path class="cls-43" d="M183.37,258.38a31.53,31.53,0,0,0-1.58,3.86c-2.66,8.05-.11,12.64-.11,12.64a19.53,19.53,0,0,1-3.75,3.64c-10.93,7.83-21.49-7.32-21.49-7.32l.89-5.31L160,250.27c5.44-3,9.86-3.06,13.34-1.82C180.17,250.88,183.37,258.38,183.37,258.38Z"/>
              </g>
              <path class="cls-19" d="M156.73,264.72c2.14,2.66,5.15,8.32,10.62,11.09a33.7,33.7,0,0,0,6.26,2.42l-4.77,10.5c-4-2.66-7-4.89-12.11-11.46-2.5-3.21-4.74-8.45-6.21-11.21.41-.75,2.68-1.38,3.09-2.13C155.52,264.58,154.82,264.08,156.73,264.72Z"/>
              <path class="cls-19" d="M180.72,264.52a24,24,0,0,1-1.06,8,23.44,23.44,0,0,1-2.17,4.87l7.66,7.65a53.11,53.11,0,0,0-2.62-22.49Z"/>
              <path class="cls-27" d="M171.22,283.49a6.21,6.21,0,0,0,2.05,2.43c2.66,1.78,6.77,1.12,8-.88a3.21,3.21,0,0,0,.39-2.69,1.08,1.08,0,0,0-.39-.33l-3.39-3.5s-1.55-1.6-3.1-1.17a2.45,2.45,0,0,0-1.22.88A12.15,12.15,0,0,0,171.22,283.49Z"/>
              <polygon class="cls-3" points="175.66 298.38 181.91 290.43 182.86 292.91 176.03 301.88 175.66 298.38"/>
              <path class="cls-26" d="M141.44,351.31s48.62,7.11,66.72-11.35c1.27,5.14,1.27,5.23,1.27,5.23S191.1,364,142.55,356.28A38.58,38.58,0,0,0,141.44,351.31Z"/>
              <polyline class="cls-27" points="154.39 358.15 154.39 352.45 157.47 352.57 158.68 358.15"/>
              <polyline class="cls-27" points="169.66 358.74 170.3 352.45 173.61 352.23 174.28 358.15"/>
              <polygon class="cls-49" points="179.09 351.66 179.65 357.13 191.16 354.7 191.16 349.22 179.09 351.66"/>
              <polyline class="cls-27" points="201.12 350.71 201.12 345.2 203.6 343.69 205.14 349.22"/>
              <g>
                <g>
                  <path class="cls-43" d="M216.32,230.4c-2.08,5.79-7.39,9.1-10.93,8.23s-3.6-5.77-2.2-11.41,5.41-9.51,8.95-8.62C217,219.82,218.27,225,216.32,230.4Z"/>
                  <path class="cls-36" d="M209.35,221.16a2.7,2.7,0,0,1,3.07-.52,2.89,2.89,0,0,1,1.21,1.94,11.88,11.88,0,0,1-.72,6.36c-.86,2.47-2.27,5.06-4.94,6a1.25,1.25,0,0,1-.76.09c-.57-.16-.65-.85-.61-1.38l.17-2.19a2.45,2.45,0,0,1,.39-1.35,3.28,3.28,0,0,1,1.24-.78,3.32,3.32,0,0,0,1.84-1.74,1.61,1.61,0,0,0-.56-1.75c-.53-.38-1.63-.06-2-.51C207.07,224.6,208.73,221.75,209.35,221.16Z"/>
                </g>
                <path class="cls-50" d="M205.37,234.51c-1.18,21.27-27.64,32-35.38,31.53-9.88-.54-36.39-1.88-42.57-38.88a6,6,0,0,1,0-.95v0c-.35-14.57-6.31-27.55-5.19-33.27,3.85-19.75,7.75-12.32,30.72-15.68,21.49-3.14,30.69-3.67,44.54,6.77,1.22.92,5.19,1.84,5.42,5.33.41,6,.77,10.43,1.08,14C205,215.7,206.31,217.63,205.37,234.51Z"/>
                <path class="cls-51" d="M204.81,202.93c-6.42-7.62-14-10.71-23.09-11.75-9.78,7.76-20.31,12.57-32.65,10.73,14-13.23,3.53-8.45,6.18-11.58.16,3.18-5.69,8.15-12.09,5.91a40.54,40.54,0,0,1-10.59,14.3c-1.59,1.37-3.77,11.19-4,12.54-.15.8-.17,1.78-.28,2.69-.36-14.57-6.31-27.55-5.2-33.27,3.85-19.76,7.75-12.32,30.73-15.68,21.48-3.14,30.68-3.67,44.53,6.77,1.23.91,5.19,1.83,5.42,5.33C204.14,194.89,204.51,199.35,204.81,202.93Z"/>
                <path class="cls-52" d="M179.89,189.39S174.49,199.89,149,201c0,0,10.41-9.87,4.35-11.05,0,0-3.61,6.93-12.32,4.1,0,0,4.1.59-10.19,15.65,0,0-4,5.16-2.6,17,.09.8-6-.65-6.68-9,0,0-11-8.18-3-19.82,0,0-10-15.39,5.59-21.51,0,0,.92-15.74,13.22-17.19,0,0,12.07-19.82,31.2-7.44,0,0,16.17-8.77,26,6.6,0,0,13,4,11.77,15.81,0,0,17.26,7.11,7.38,19.94,0,0,5,9.15-3.07,20.51L206.88,226l-.86-4.3c-.58-9.24.84-12.53-3.73-20.59C202.29,201.09,197.68,188,179.89,189.39Z"/>
                <path class="cls-53" d="M171.83,233s.66,2.72,4.76,2.62,4.72-3.1,4.72-3.1S177.37,236.84,171.83,233Z"/>
                <g>
                  <path class="cls-36" d="M193.24,228.91A7.74,7.74,0,0,0,197,223a7.48,7.48,0,0,0-7.17-7.91c-2.15-.15-4.69.18-7.75,3.17a9.15,9.15,0,0,1,9.6-3.79,7.48,7.48,0,0,1,6.13,7.18C197.81,225,195.6,228.23,193.24,228.91Z"/>
                  <g>
                    <g>
                      <path class="cls-54" d="M197.32,223c-.36,4.16-4.36,7.27-8.93,7s-8-4-7.65-8.12,4.35-7.27,8.93-6.95S197.67,218.82,197.32,223Z"/>
                      <path class="cls-55" d="M197.34,223a7.39,7.39,0,0,1-3,5.28,9,9,0,0,1-5.9,1.79,8.8,8.8,0,0,1-5.68-2.49,7.29,7.29,0,0,1-2.22-5.78,7.58,7.58,0,0,1,3.06-5.42,9.12,9.12,0,0,1,6-1.76,8.68,8.68,0,0,1,5.65,2.63A7.34,7.34,0,0,1,197.34,223Zm-.05,0a6.91,6.91,0,0,0-2.2-5.55,8.9,8.9,0,0,0-11.19-.67,7.12,7.12,0,0,0-3,5.07,7,7,0,0,0,2.05,5.52,8.57,8.57,0,0,0,5.46,2.46,8.78,8.78,0,0,0,5.82-1.62A7.32,7.32,0,0,0,197.29,223Z"/>
                    </g>
                    <g>
                      <path class="cls-56" d="M196.29,223a4.79,4.79,0,0,1-3.65,5.61,4.62,4.62,0,0,1-5.39-3.8,4.78,4.78,0,0,1,3.65-5.61A4.61,4.61,0,0,1,196.29,223Z"/>
                      <path class="cls-3" d="M195.7,220a1.18,1.18,0,0,1-.91,1.39,1.15,1.15,0,0,1-1.34-.95,1.17,1.17,0,0,1,.91-1.38A1.15,1.15,0,0,1,195.7,220Z"/>
                    </g>
                  </g>
                </g>
                <g>
                  <path class="cls-36" d="M153.19,228.94a7.87,7.87,0,0,1-3.61-6.17,7.59,7.59,0,0,1,7.59-7.72c2.19-.07,4.75.37,7.75,3.51a9.32,9.32,0,0,0-9.6-4.21c-3.17.59-6.38,3.05-6.51,7C148.69,224.83,150.81,228.15,153.19,228.94Z"/>
                  <g>
                    <g>
                      <path class="cls-54" d="M149.28,222.78c.2,4.22,4.13,7.52,8.8,7.37s8.28-3.68,8.08-7.9-4.14-7.52-8.8-7.38S149.08,218.56,149.28,222.78Z"/>
                      <path class="cls-55" d="M149.3,222.78a7.45,7.45,0,0,0,2.87,5.39A9,9,0,0,0,158,230a8.71,8.71,0,0,0,5.65-2.27,7,7,0,0,0,2.3-5.5,7.24,7.24,0,0,0-2.81-5.25,9.08,9.08,0,0,0-11.39.24A7,7,0,0,0,149.3,222.78Zm-.05,0a7.47,7.47,0,0,1,2.33-5.73,8.84,8.84,0,0,1,5.84-2.42,9.19,9.19,0,0,1,6,2,7.68,7.68,0,0,1,2.9,5.61,7.4,7.4,0,0,1-2.48,5.76,9,9,0,0,1-5.86,2.28,9.12,9.12,0,0,1-5.92-2A7.51,7.51,0,0,1,149.25,222.78Z"/>
                    </g>
                    <path class="cls-56" d="M156.59,222.66a4.84,4.84,0,0,0,3.49,5.81,4.7,4.7,0,0,0,5.63-3.63,4.84,4.84,0,0,0-3.49-5.81A4.69,4.69,0,0,0,156.59,222.66Z"/>
                    <path class="cls-3" d="M158.64,219a1.23,1.23,0,0,0,.89,1.48,1.19,1.19,0,0,0,1.43-.92,1.23,1.23,0,0,0-.89-1.48A1.2,1.2,0,0,0,158.64,219Z"/>
                  </g>
                </g>
                <path class="cls-52" d="M171.52,212.68c-1,.1-3,3.6-10.14.65-7.82-3.23-12.56.66-12.56.66s7.22-.35,11.85,1.67c4.09,1.79,6.93,3,9.49.42S171.52,212.68,171.52,212.68Z"/>
                <path class="cls-52" d="M179.06,212.87c.78.17,2.65,2.72,8.86.59,6.8-2.34,10.26,1.61,10.26,1.61s-5.91-.9-9.94.58c-3.57,1.32-7,2-8.86-.59S179.06,212.87,179.06,212.87Z"/>
                <g>
                  <g>
                    <path class="cls-57" d="M166.56,254.5c-2.21,0-3.62-.2-4.32-.63a1.29,1.29,0,0,1-.66-1.05c-.17-2.25,4.77-6.38,5-6.56,6-3.51,10.21-4,12.19-4s3.32.49,3.79,1.34a1.41,1.41,0,0,1-.1,1.51,35.75,35.75,0,0,0-2.59,5c3.28.63,3.37,2,3.37,2.15v.2l-5.42,1.14a98.17,98.17,0,0,1-11.24.95Z"/>
                    <path class="cls-58" d="M178.75,242.48c2.91,0,4.3,1.13,3.48,2.47a33.44,33.44,0,0,0-2.73,5.3c3.47.59,3.47,2,3.47,2l-5.22,1.09a96.48,96.48,0,0,1-11.19.95,9.74,9.74,0,0,1-4.19-.59c-2.5-1.51,4.35-7.21,4.35-7.21,5-2.92,9.22-4,12-4m0-.5c-2,0-6.26.53-12.28,4l0,0,0,0c-.54.45-5.25,4.43-5.07,6.77a1.56,1.56,0,0,0,.78,1.25c.74.44,2.2.66,4.45.66a98.21,98.21,0,0,0,11.26-.95l5.25-1.1.4-.08v-.41c0-.17-.09-1.63-3.27-2.34a36.36,36.36,0,0,1,2.46-4.66,1.68,1.68,0,0,0,.1-1.76c-.52-.93-2-1.47-4-1.47Z"/>
                  </g>
                  <path class="cls-59" d="M163.89,249.17c-1.53,1.69-2.85,3.68-1.52,4.49s6.52.64,10.44.23C179.25,253.21,167.47,246.4,163.89,249.17Z"/>
                  <path class="cls-60" d="M182.23,245c1.66-1.87-3.75-3.79-10.38-1.1-.66.27-2,1-2.71,1.3S177.86,249.88,182.23,245Z"/>
                  <path class="cls-61" d="M170.11,258a11.37,11.37,0,0,1,2.13-.88,13.38,13.38,0,0,1,2.25-.53,12.76,12.76,0,0,1,4.61.08c-.77.05-1.53.06-2.29.14s-1.5.15-2.24.27C173.07,257.26,171.6,257.58,170.11,258Z"/>
                </g>
                <g>
                  <path class="cls-62" d="M129.56,228c-1-4.67-4.29-7.67-8.4-7.05-5.6.85-7.11,6.5-4.87,12.85,2.39,6.76,8.52,11,12.63,10.47a3.66,3.66,0,0,0,3.3-2.36"/>
                  <path class="cls-36" d="M125.13,224.79a4.34,4.34,0,0,0-4.22-.82,3.12,3.12,0,0,0-1.68,2.15c-.68,2.43,0,5,.91,7.41,1.15,2.92,3,6,6.71,7.33a2.11,2.11,0,0,0,1.05.15c.79-.14.9-.93.85-1.55l-.21-2.54a2.52,2.52,0,0,0-.51-1.59,5.12,5.12,0,0,0-1.69-1,4.58,4.58,0,0,1-2.52-2.14,1.66,1.66,0,0,1,.79-2c.73-.39,2.24.05,2.75-.44C128.21,228.93,126,225.52,125.13,224.79Z"/>
                </g>
              </g>
            </g>
            <g>
              <polygon class="cls-63" points="310.04 339.43 319.99 336.73 324.81 338.51 316.11 342.67 310.04 339.43"/>
              <polygon class="cls-64" points="316.11 364.99 310.04 363.19 310.04 339.43 316.11 341.23 316.11 364.99"/>
              <polygon class="cls-65" points="316.11 364.99 324.81 362.27 324.81 338.51 316.11 341.23 316.11 364.99"/>
            </g>
            <polygon class="cls-66" points="254.81 436.59 267.98 443.17 282.79 437.38 269.87 432.01 254.81 436.59"/>
            <polygon class="cls-67" points="247.49 283.66 250.54 282.37 250.54 307.31 247.49 308.61 247.49 283.66"/>
            <polygon class="cls-66" points="273.12 407.35 285.84 413.78 299.12 408.72 289.98 405.29 273.12 407.35"/>
            <polygon class="cls-66" points="218.74 471.87 232.61 479.29 248.29 473.32 234.25 467.74 218.74 471.87"/>
            <polygon class="cls-66" points="259.75 493.51 273.55 500.75 289.53 494.68 275.48 489.04 259.75 493.51"/>
            <polygon class="cls-66" points="280.22 465.35 300.3 476.37 322.6 467.74 306.38 460.07 280.22 465.35"/>
            <polygon class="cls-66" points="325.32 465.13 349.49 473.32 367.06 463.78 338.69 458.17 325.32 465.13"/>
            <g>
              <polygon class="cls-68" points="316.85 420.95 291.8 419.49 296.94 411.27 320.37 412.52 316.85 420.95"/>
              <polygon class="cls-69" points="313.43 438.83 337.18 437.9 337.21 461.04 313.5 462.22 313.43 438.83"/>
              <polygon class="cls-70" points="313.43 438.83 337.46 438.19 330.47 431.94 308.17 432.43 313.43 438.83"/>
              <g>
                <polygon class="cls-71" points="300.23 450.14 319.84 444.44 319.84 467.37 300.3 474.74 300.23 450.14"/>
                <polygon class="cls-72" points="300.23 450.14 319.84 444.44 302.89 438.68 283.85 443.12 300.23 450.14"/>
                <polygon class="cls-73" points="300.23 450.14 283.85 443.12 283.85 466.46 300.3 474.74 300.23 450.14"/>
              </g>
              <polygon class="cls-74" points="316.85 420.95 291.8 419.49 291.77 443.05 316.78 444.23 316.85 420.95"/>
              <polygon class="cls-75" points="316.85 420.95 320.37 412.52 320.33 437.27 316.78 444.23 316.85 420.95"/>
              <polygon class="cls-76" points="349.49 447.46 327.88 442.18 327.88 465.11 349.42 472.06 349.49 447.46"/>
              <polygon class="cls-77" points="349.49 447.46 327.88 442.18 341.78 436.14 363.87 440.86 349.49 447.46"/>
              <polygon class="cls-78" points="349.49 447.46 363.87 440.86 363.87 464.2 349.42 472.06 349.49 447.46"/>
              <g>
                <polygon class="cls-79" points="356.92 421.13 380.67 418.28 380.69 441.42 356.98 444.52 356.92 421.13"/>
                <polygon class="cls-80" points="356.92 421.13 380.67 418.28 373.12 411.75 351.65 413.84 356.92 421.13"/>
                <polygon class="cls-81" points="356.92 421.13 351.65 413.84 351.72 438.01 356.98 444.52 356.92 421.13"/>
              </g>
              <polygon class="cls-82" points="314.07 395.95 335.32 392.56 335.32 415.26 314.29 419.15 314.07 395.95"/>
              <polygon class="cls-83" points="314.07 395.95 335.32 392.56 322.12 387.26 301.42 391.43 314.07 395.95"/>
              <polygon class="cls-84" points="314.07 395.95 301.42 391.43 301.41 414.33 314.29 419.15 314.07 395.95"/>
              <g>
                <polygon class="cls-39" points="336.25 371.67 315.77 368.72 315.77 391.42 336.04 394.87 336.25 371.67"/>
                <polygon class="cls-85" points="336.25 371.67 315.77 368.72 328.48 364.55 347.37 366.93 336.25 371.67"/>
                <polygon class="cls-67" points="336.25 371.67 347.37 366.93 347.38 389.5 336.04 394.87 336.25 371.67"/>
              </g>
              <g class="cls-86">
                <polygon class="cls-87" points="315.33 445.75 291.77 443.05 316.78 444.23 317.14 443.52 319.84 444.44 315.33 445.75"/>
              </g>
            </g>
            <polygon class="cls-66" points="226.72 405.58 239.2 412.36 253.8 406.48 244.58 402.33 226.72 405.58"/>
            <g>
              <polygon class="cls-71" points="239.2 394.03 252.54 390.15 252.54 405.75 239.25 410.75 239.2 394.03"/>
              <polygon class="cls-72" points="239.2 394.03 252.54 390.15 241.01 386.23 228.06 389.25 239.2 394.03"/>
              <polygon class="cls-73" points="239.2 394.03 228.06 389.25 228.06 405.13 239.25 410.75 239.2 394.03"/>
            </g>
            <g>
              <polygon class="cls-75" points="232.56 461.31 245.89 457.44 245.89 473.03 232.61 478.04 232.56 461.31"/>
              <polygon class="cls-68" points="232.56 461.31 245.89 457.44 234.37 453.51 221.42 456.54 232.56 461.31"/>
              <polygon class="cls-74" points="232.56 461.31 221.42 456.54 221.41 472.41 232.61 478.04 232.56 461.31"/>
            </g>
            <g>
              <polygon class="cls-67" points="267.98 425.58 281.31 421.71 281.31 437.31 268.02 442.31 267.98 425.58"/>
              <polygon class="cls-85" points="267.98 425.58 281.31 421.71 269.78 417.79 256.84 420.81 267.98 425.58"/>
              <polygon class="cls-39" points="267.98 425.58 256.84 420.81 256.83 436.69 268.02 442.31 267.98 425.58"/>
            </g>
            <g>
              <polygon class="cls-78" points="285.79 396.35 299.12 392.47 299.12 408.07 285.84 413.08 285.79 396.35"/>
              <polygon class="cls-78" points="285.79 396.35 299.12 392.47 287.6 388.55 274.65 391.58 285.79 396.35"/>
              <polygon class="cls-76" points="285.79 396.35 274.65 391.58 274.64 407.45 285.84 413.08 285.79 396.35"/>
            </g>
            <polygon class="cls-66" points="388.86 484.68 401.58 491.87 416.95 485.47 406.83 479.55 388.86 484.68"/>
            <g>
              <polygon class="cls-71" points="273.55 482.61 286.88 478.74 286.88 494.33 273.6 499.34 273.55 482.61"/>
              <polygon class="cls-72" points="273.55 482.61 286.88 478.74 275.36 474.81 262.41 477.84 273.55 482.61"/>
              <polygon class="cls-73" points="273.55 482.61 262.41 477.84 262.41 493.71 273.6 499.34 273.55 482.61"/>
            </g>
            <g>
              <polygon class="cls-79" points="401.58 473.57 414.92 469.7 414.92 485.29 401.63 490.3 401.58 473.57"/>
              <polygon class="cls-88" points="401.58 473.57 414.92 469.7 403.39 465.78 390.44 468.8 401.58 473.57"/>
              <polygon class="cls-81" points="401.58 473.57 390.44 468.8 390.44 484.68 401.63 490.3 401.58 473.57"/>
            </g>
            <path class="cls-18" d="M325.32,342.67s-5.95-4.51-4.3,1.22c3.34,4.8,4.64,5.6,4.64,5.6"/>
            <path class="cls-89" d="M404,283.26a26.81,26.81,0,0,0-5.7-1.75,19.47,19.47,0,0,0-5.9-.23,20.66,20.66,0,0,0-5.73,1.42,22.57,22.57,0,0,0-5.21,2.9,18.7,18.7,0,0,1,5.06-3.25,19,19,0,0,1,5.83-1.56,18.51,18.51,0,0,1,6,.34,20.44,20.44,0,0,1,2.89.86C402.18,282.35,403.07,282.83,404,283.26Z"/>
            <path class="cls-89" d="M387.25,283.91c.84.08,1.68.11,2.51.12s1.68,0,2.51-.09a20.84,20.84,0,0,0,2.49-.28c.83-.12,1.65-.3,2.47-.49a16,16,0,0,1-2.43.68,17.81,17.81,0,0,1-2.51.34A18.89,18.89,0,0,1,387.25,283.91Z"/>
            <path class="cls-90" d="M237.93,283.56l9.56.1,3-1.29-12.92-.19C237.72,282.64,237.82,283.1,237.93,283.56Z"/>
            <path class="cls-33" d="M367.88,260.79s2.62-7.79,11.4-4.73c0,0-5.16-5.92-9.82-.55A8.78,8.78,0,0,0,367.88,260.79Z"/>
          </g>
        </g>
      </g>
    </g>
  </g>
</svg>
