<svg id="Layer_1" data-name="Layer 1" xmlns="http://www.w3.org/2000/svg" viewBox="0 0 512 400"><defs><style>.cls-1{fill:#8ca525;stroke:#526d09;}.cls-1,.cls-3,.cls-5{stroke-miterlimit:10;}.cls-2{fill:#6d8525;}.cls-3{fill:#a3bc39;stroke:#618400;}.cls-4{fill:#a2b22b;}.cls-5{fill:#607c12;stroke:#40600d;}.cls-6{fill:#ff5a5a;}.cls-7{fill:#ef4545;}.cls-8{fill:#ff8a8a;}.cls-9{fill:#ef4b4b;}.cls-10{fill:#e8e800;}.cls-11{fill:#773e00;}</style></defs><path class="cls-1" d="M264.54,321.38c-4.16-33.09-8.58-66.89-26.26-93.94S186.9,180.92,145.5,186C157,246.34,198.33,296,264.54,321.38Z"/><path class="cls-2" d="M153.83,192.74l8.83,5.75,8.63,6.07,8.37,6.43,8.13,6.72a300,300,0,0,1,30,29.63A299.9,299.9,0,0,1,243.2,281l5.59,9,5.26,9.15,4.87,9.35,4.54,9.52-4.7-9.44-5-9.26-5.31-9.1-5.63-8.9a302.75,302.75,0,0,0-25.53-33.48,300.83,300.83,0,0,0-29.79-29.74l-8.08-6.76-8.32-6.47-8.51-6.22Z"/><path class="cls-2" d="M157.52,217.46a96.58,96.58,0,0,1,10.7-4.08,109.62,109.62,0,0,1,11.11-2.84l-.29.35a46.21,46.21,0,0,1,1.17-9.38,44.27,44.27,0,0,1,3.07-8.91,57.06,57.06,0,0,0-2.54,9,52.56,52.56,0,0,0-1,9.28v.29l-.29.06c-3.72.78-7.43,1.65-11.08,2.72S161.12,216.19,157.52,217.46Z"/><path class="cls-2" d="M214.72,206.14a97.47,97.47,0,0,0-5.66,14.2,93.92,93.92,0,0,0-3.33,14.89l0,.35-.36,0a52,52,0,0,0-8.65-.17,52.57,52.57,0,0,0-8.55,1.31,52.72,52.72,0,0,0-16,6.69,48.58,48.58,0,0,1,7.57-4.36A51.17,51.17,0,0,1,188,236.1a49.65,49.65,0,0,1,8.66-1.41,47.59,47.59,0,0,1,8.77.13l-.4.31a85.39,85.39,0,0,1,3.53-15A81.57,81.57,0,0,1,214.72,206.14Z"/><path class="cls-2" d="M194.64,272.71a39.24,39.24,0,0,1,7.92-4.88,56.17,56.17,0,0,1,8.8-3.13,69.71,69.71,0,0,1,9.18-1.73,74.49,74.49,0,0,1,9.32-.56l-.36.35a47.75,47.75,0,0,1,3.19-14.94,46.89,46.89,0,0,1,7.7-13.14,51.45,51.45,0,0,0-7.2,13.32,50.31,50.31,0,0,0-3,14.79l0,.35h-.35a77.7,77.7,0,0,0-18.35,2.16,54.46,54.46,0,0,0-8.79,2.89A39.57,39.57,0,0,0,194.64,272.71Z"/><path class="cls-2" d="M222.14,295.46a24.51,24.51,0,0,1,6.16-3.24,42.27,42.27,0,0,1,6.74-1.85,47.6,47.6,0,0,1,7-.72,31.61,31.61,0,0,1,7,.54l-.41.32a28.48,28.48,0,0,1,1.92-8.8A27.69,27.69,0,0,1,255,274a31.29,31.29,0,0,0-5.77,16.57l0,.39-.39-.07a35.61,35.61,0,0,0-6.85-.49,45.22,45.22,0,0,0-6.86.63,44.37,44.37,0,0,0-6.72,1.6A28,28,0,0,0,222.14,295.46Z"/><path class="cls-3" d="M285.66,346.94c43.11-81.52,78.17-103.9,140.15-92.06C404.55,313.3,346.87,342.78,285.66,346.94Z"/><path class="cls-4" d="M416.55,258.23,408,262.39l-8.48,4.35c-2.8,1.51-5.62,3-8.4,4.49s-5.56,3.08-8.31,4.67c-11,6.32-21.84,13-32.34,20.14s-20.8,14.6-30.73,22.52l-7.38,6-7.24,6.2L298,337.13l-6.93,6.55,6.77-6.72,6.95-6.54,7.15-6.32,7.31-6.14c9.85-8.06,20.12-15.6,30.65-22.75s21.4-13.79,32.52-20c2.78-1.55,5.59-3,8.39-4.55s5.65-2.91,8.48-4.37l8.6-4.14Z"/><path class="cls-4" d="M397.31,255a30.45,30.45,0,0,1,.31,6.75,27.61,27.61,0,0,1-1.11,6.71l-.42-.64c2.66.26,5.32.53,8,1,1.32.24,2.64.51,3.95.81s2.59.69,3.86,1.13c-2.65-.43-5.27-.86-7.92-1.13l-8-.8-.6-.06.18-.58a37.8,37.8,0,0,0,1.33-6.48A53,53,0,0,0,397.31,255Z"/><path class="cls-4" d="M364.33,262.12a36,36,0,0,1,3.46,10.55,37.94,37.94,0,0,1,.19,11.16l-.4-.54a60.57,60.57,0,0,1,6.54,1.46,55.87,55.87,0,0,1,6.35,2.17,49.45,49.45,0,0,1,6,3.05,41.79,41.79,0,0,1,5.38,3.95,51.35,51.35,0,0,0-11.66-6.24,60.62,60.62,0,0,0-6.29-2c-2.13-.56-4.3-1-6.47-1.41l-.46-.09.07-.45a41.66,41.66,0,0,0,.06-10.93A44.06,44.06,0,0,0,364.33,262.12Z"/><path class="cls-4" d="M335.81,279.07a90.42,90.42,0,0,1,3.76,10.66A39.85,39.85,0,0,1,341.19,301l-.39-.48a50.58,50.58,0,0,1,13.92,4.38,44.28,44.28,0,0,1,11.74,8.56,54.1,54.1,0,0,0-12.11-7.81,48.94,48.94,0,0,0-6.71-2.54c-2.3-.68-4.64-1.21-7-1.66l-.41-.07V301a33.24,33.24,0,0,0-.33-5.54c-.26-1.85-.6-3.68-1-5.51C338,286.26,336.92,282.67,335.81,279.07Z"/><path class="cls-4" d="M314.5,303.7a24.67,24.67,0,0,1,2.77,8.29,30.89,30.89,0,0,1,.14,8.8l-.33-.53a66,66,0,0,1,9.86,4q2.35,1.23,4.58,2.69a44.32,44.32,0,0,1,4.22,3.22,64.16,64.16,0,0,0-9.16-5.17,92.37,92.37,0,0,0-9.81-3.78l-.38-.13.05-.39a38.56,38.56,0,0,0,.13-8.59A31.08,31.08,0,0,0,314.5,303.7Z"/><path class="cls-5" d="M217,113.38s71.44,92.36,34.77,274.9c0,0-3.05,17.32,7.34,4.48s57-58.26,70.08-166.65l-8.28.41s-5.57,80.27-61,156.06c0,0,37.49-143.43-33.68-276Z"/><path class="cls-6" d="M292.12,111.88a56.57,56.57,0,0,1-36.38,10.34c-10-.54-21-3.35-33.17-8.83,0,0,3.13,15,.34,29.93a0,0,0,0,1,0,0c-1.47,8.13-4.73,16.26-11.2,21.92-17.5,15.34-72.15,13.13-85.93-5.75a15.19,15.19,0,0,1-1.7-2.86c-10-21,30.42-43.57,32.39-44.61a.16.16,0,0,1,.05-.07s-46.7,9.46-63.64-8c-.65-.67-1.24-1.35-1.78-2-13.74-17.37,4.21-41,21.73-43.62a50.38,50.38,0,0,1,6.07-.06C137.63,60.12,170.55,77.4,177,80.86c-5.48-3.3-31.4-19.35-43.8-37.21l0,0a49.31,49.31,0,0,1-3.62-6.05C118.53,15.19,161.93,2.83,172.37,6.25c2.42.82,5,3.78,7.53,8.13,8.22,14,16,41.92,17.39,54.74-.34-4.26-2.06-28.53,2.53-46.3,0,0,0,0,0,0,1.58-6.11,3.91-11.45,7.29-15,14.17-14.67,50.27,4.43,50.32,18.33a13.05,13.05,0,0,1-.52,3.42c-4.26,15.1-32.71,43.87-34,45.23,1.57-1,39.69-26.1,60.85-20.6a20.7,20.7,0,0,1,6.95,3.33,25.72,25.72,0,0,1,6.34,6.86C306.22,78.56,305.25,102.71,292.12,111.88Z"/><path class="cls-7" d="M292.12,111.88a56.57,56.57,0,0,1-36.38,10.34,56.66,56.66,0,0,0,22.34-7c11.73-6.8,20.62-19,21.62-32.49a33.7,33.7,0,0,0-9-25.22,26,26,0,0,1,6.34,6.86C306.22,78.56,305.25,102.71,292.12,111.88Z"/><path class="cls-7" d="M222.91,143.32c-1.47,8.13-4.73,16.25-11.2,21.91-17.5,15.35-72.15,13.13-85.93-5.75a44.74,44.74,0,0,0,9.55,4.08c18.45,5.79,38.55,8.83,57.07,3.21C204.87,163,216.39,154.44,222.91,143.32Z"/><path class="cls-8" d="M118.78,58.23A37.87,37.87,0,0,0,99.25,70.09a38.74,38.74,0,0,0-8.2,31.8c-13.74-17.36,4.21-41,21.74-43.62A25.85,25.85,0,0,1,118.78,58.23Z"/><path class="cls-8" d="M179.88,14.31A24.76,24.76,0,0,0,175.67,12a32.6,32.6,0,0,0-20.44-1.54c-9.08,2.13-17.61,7.92-21.42,16.46a23,23,0,0,0-.63,16.7,49.21,49.21,0,0,1-3.62-6c-11-22.39,32.35-34.75,42.78-31.33C174.77,7,177.35,10,179.88,14.31Z"/><path class="cls-8" d="M257.44,26.13a13.55,13.55,0,0,1-.52,3.42C251.6,17.62,239,8.83,225.83,9c-10.18.16-19.85,5.66-26,13.72,1.59-6.12,3.92-11.46,7.29-15C221.28-6.9,257.37,12.21,257.44,26.13Z"/><path class="cls-9" d="M195.91,94.7a135.79,135.79,0,0,0-33,21.73c-2.77,2.46-5.64,6.31-3.72,9.41,1.34,2.16,4.46,2.59,6.84,1.63s4.17-2.89,5.89-4.79l18.94-21a109.68,109.68,0,0,0-21.57,34.43,17.09,17.09,0,0,0-1.52,6.56,6.28,6.28,0,0,0,3.29,5.53c3.46,1.54,7.26-1.38,9.73-4.28a65.11,65.11,0,0,0,14.35-29.86,34.16,34.16,0,0,0-.41,18.83c.66,2.47,2,5.19,4.49,5.69,2.17.45,4.39-1.09,5.41-3a14,14,0,0,0,1.11-6.45A62.13,62.13,0,0,0,195.91,94.7Z"/><path class="cls-9" d="M199.44,94.67a117.85,117.85,0,0,1-29.72-23.79c-1.25-1.38-2.54-3.3-1.7-5,1.13-2.22,4.62-1.33,6.38.43s3.22,4.23,5.69,4.62a101.29,101.29,0,0,1-19.18-27.89c-1.52-3.28-2.56-7.85.39-9.94a5.49,5.49,0,0,1,5.88.16,15,15,0,0,1,4.24,4.51,127.58,127.58,0,0,1,15.3,29.76c.18-2-.77-3.82-1.7-5.56s-1.9-3.6-1.72-5.57,2-3.92,3.92-3.4c1.22.32,2,1.5,2.67,2.6C196.7,67.1,200.82,80.16,199.44,94.67Z"/><path class="cls-9" d="M199.92,94.11c.76-10.82,1.56-21.64,2.33-32.46a14.08,14.08,0,0,1,1.08-5.32,4.8,4.8,0,0,1,4.28-2.86c1.81.14,3.4,2.2,2.58,3.83a60.54,60.54,0,0,1,11.57-24.9c2.13-2.72,6-5.41,8.65-3.22,1.83,1.52,1.6,4.35,1.11,6.68a66.38,66.38,0,0,1-14.13,28.5q4.32-4.35,8.6-8.69c1.45-1.47,4.12-2.83,5.21-1.09.72,1.16-.14,2.65-.95,3.74A353,353,0,0,1,199.92,94.11Z"/><path class="cls-9" d="M200,93.11c-8.13-3.42-16.26-6.81-24.38-10.23-1.82-.75-3.72-1.54-5.66-1.29s-3.87,1.88-3.67,3.82c.27,2.61,3.58,3.49,6.2,3.69a126.24,126.24,0,0,0-35.38-5.16,14.52,14.52,0,0,0-5.84.84,5.36,5.36,0,0,0-3.46,4.44c-.16,3.73,4.41,5.59,8.1,6.22a138,138,0,0,0,21.37,1.93c-1.74,1.11-3.92,1.13-6,1.13s-4.25.07-5.95,1.2-2.56,3.8-1.15,5.3c1.1,1.17,2.94,1.13,4.55,1A173.71,173.71,0,0,0,200,93.11Z"/><path class="cls-9" d="M197,92.09a89.71,89.71,0,0,0,41.52,10.8,6.32,6.32,0,0,0,3.65-.7,3,3,0,0,0-.25-5c-1.72-1.11-4.15-1.08-6.41-1a68.45,68.45,0,0,0,25.58-4.48,16.62,16.62,0,0,0,5.39-3c1.47-1.35,2.33-3.35,1.65-5-.88-2.06-3.8-2.7-6.41-2.88a57.4,57.4,0,0,0-21.77,2.74,131.81,131.81,0,0,0,13.49-7.2c1.33-.81,2.83-2,2.58-3.28-.2-1-1.43-1.56-2.58-1.81-5.14-1.06-10.75,1.06-15.85,3.19C224.05,80.1,210.65,86,197,92.09Z"/><ellipse class="cls-10" cx="199.31" cy="91.09" rx="17.36" ry="12.96" transform="translate(-19.82 92.7) rotate(-24.98)"/><path class="cls-11" d="M198.26,93.18C181.65,88.83,173,70.5,172.68,69.73L175,68.57c.09.18,8.33,17.73,23.63,21.73Z"/><path class="cls-11" d="M176.35,67.31c0,2.15-1.56,3.68-3.46,3.44a4.27,4.27,0,0,1-3.38-4.35c0-2.15,1.57-3.69,3.47-3.44A4.27,4.27,0,0,1,176.35,67.31Z"/><path class="cls-11" d="M199.49,93.09a5,5,0,0,1-1.23.45c-6.65,1.68-27.07-4.62-40.7-22.14l1.61-1.79C171.55,85.55,191,92.32,197.38,90.69c1-.23,1.56-.66,1.58-1.13s-.63-1.93-2.69-3.9c-13.83-13.28-27.93-36.87-28.54-37.87l1.85-1.4c.14.25,14.47,24.17,27.94,37.12,2.67,2.58,4,4.87,3.8,6.84A3.12,3.12,0,0,1,199.49,93.09Z"/><path class="cls-11" d="M170.24,43.33c.93,2,.45,4.21-1,5s-3.44-.21-4.37-2.2-.45-4.21,1-5S169.31,41.36,170.24,43.33Z"/><path class="cls-11" d="M160.1,67c.92,2,.45,4.21-1,5s-3.45-.2-4.37-2.19-.46-4.21,1-5S159.17,65,160.1,67Z"/><path class="cls-11" d="M202.61,89.42l-2.56.16a147.76,147.76,0,0,0-12-40.18l2.22-1.25A149.67,149.67,0,0,1,202.61,89.42Z"/><path class="cls-11" d="M191.13,44.94a3.89,3.89,0,0,1-1.31,5.14c-1.65.86-3.74-.07-4.64-2a3.89,3.89,0,0,1,1.31-5.14C188.12,42,190.2,43,191.13,44.94Z"/><path class="cls-11" d="M201,91.07l-1.45-2.6c.11-.09,11.75-8.42-2.13-44.41l2.36-1C214.65,81.75,201.55,90.71,201,91.07Z"/><path class="cls-11" d="M200.32,39.35A3.89,3.89,0,0,1,199,44.49c-1.65.86-3.74-.07-4.64-2a3.89,3.89,0,0,1,1.31-5.14C197.33,36.45,199.42,37.36,200.32,39.35Z"/><path class="cls-6" d="M371.16,268a48.25,48.25,0,0,1-28-15.65c-5.57-6.22-10.39-14.42-14.26-24.85,0,0-7.36,10.57-18.18,17.59,0,0,0,0,0,0-5.87,3.84-12.79,6.63-20.13,6.06-19.83-1.51-50.91-35.29-47.49-54.46a13.37,13.37,0,0,1,.75-2.67c7-18.13,44.86-7.2,46.65-6.66.05,0,.07,0,.07,0s-33.55-22.3-32.85-42.51c0-.77.09-1.52.18-2.24,2.52-18.25,27.71-21.33,39.71-12.41a22.35,22.35,0,0,1,3.58,3.53v0c10,12.24,18.94,41.88,20.66,47.74-1.22-5.18-6.74-29.93-3.12-47.67v-.05a42.5,42.5,0,0,1,1.56-5.66c7.2-19.58,40.57-.95,44.66,7.24,1,1.91.66,5.17-.49,9.22-3.72,13-16.26,33.89-23.34,42.13,2.42-2.68,16.32-17.77,30-25.38h0c4.71-2.6,9.37-4.32,13.52-4.35,17.43-.09,27.12,32.49,18.6,40.59a10.89,10.89,0,0,1-2.4,1.68c-11.79,6.24-46.38,6-48,6,1.57.34,39.6,8.44,48.81,24.24a17.18,17.18,0,0,1,2.08,6.07,21.09,21.09,0,0,1-.45,7.76C400,257.05,384.59,270.5,371.16,268Z"/><path class="cls-7" d="M371.16,268a48.25,48.25,0,0,1-28-15.65,48.33,48.33,0,0,0,17.56,9.22c11.12,3,23.93,1.24,32.81-6a27.89,27.89,0,0,0,10.16-20,21.09,21.09,0,0,1-.45,7.76C400,257.05,384.59,270.5,371.16,268Z"/><path class="cls-7" d="M310.75,245.1c-5.87,3.84-12.79,6.63-20.13,6.06-19.83-1.51-50.91-35.29-47.49-54.46a37.23,37.23,0,0,0,3.17,8.06c7.4,14.35,17.45,28,31.92,35.81C288,245.8,300,247.68,310.75,245.1Z"/><path class="cls-8" d="M301.22,133.77A32.86,32.86,0,0,0,282.34,129a33.58,33.58,0,0,0-24.41,13.58c2.52-18.25,27.71-21.33,39.71-12.41A22.21,22.21,0,0,1,301.22,133.77Z"/><path class="cls-8" d="M364.49,144.61a21.46,21.46,0,0,0-1-3.87,27,27,0,0,0-11.21-13.06c-6.7-4.17-15.33-5.86-22.84-3.19a19.6,19.6,0,0,0-10.64,9.32,42.5,42.5,0,0,1,1.56-5.66c7.2-19.58,40.57-1,44.66,7.25C366,137.32,365.64,140.58,364.49,144.61Z"/><path class="cls-8" d="M403.29,197.58a11.39,11.39,0,0,1-2.4,1.68c4.18-10.1,2.1-22.69-5.87-30.41-6.13-6-15.25-8.53-23.88-7.51,4.71-2.6,9.37-4.32,13.52-4.35C402.11,156.93,411.8,189.48,403.29,197.58Z"/><path class="cls-9" d="M324.6,200.82a119.55,119.55,0,0,0-32.94-7c-3.14-.2-7.22.32-8,3.26-.52,2,1.07,4.15,3.06,5s4.25.79,6.43.72l24.17-.92a96.17,96.17,0,0,0-34,7.15,14.22,14.22,0,0,0-4.94,2.92,5.1,5.1,0,0,0-1.45,5.16c1.11,3,5.16,3.53,8.4,3.3a57,57,0,0,0,26.87-8.8,29,29,0,0,0-11.82,10.71c-1.11,1.81-2,4.18-.83,6,1,1.56,3.28,2,5.09,1.45a11.83,11.83,0,0,0,4.62-3.1C316.36,219.92,321.93,211.8,324.6,200.82Z"/><path class="cls-9" d="M326.71,202.9a94.47,94.47,0,0,1-3-31.49c.12-1.54.53-3.44,2.06-3.89,2-.61,3.58,2,3.54,4s-.71,4.37.54,6.07a82.69,82.69,0,0,1,5.75-27.6c1.11-2.8,3.3-6.09,6.34-5.54a4.56,4.56,0,0,1,3.39,3.6,12.27,12.27,0,0,1-.25,5.14,105.11,105.11,0,0,1-9.21,26.39,8.48,8.48,0,0,0,2.42-4.23,8.62,8.62,0,0,1,2.4-4.26c1.32-1,3.6-1.06,4.42.36a4.2,4.2,0,0,1,0,3.1C342,185.27,336.44,195.3,326.71,202.9Z"/><path class="cls-9" d="M327.34,202.86l21.35-17.46A12.36,12.36,0,0,1,352.6,183a4.1,4.1,0,0,1,4.3.9c1,1.16.66,3.29-.81,3.76A53,53,0,0,1,378.27,180c3-.32,6.88.43,7.11,3.28.16,2-1.72,3.49-3.46,4.53A58.2,58.2,0,0,1,356,196l10.46.06c1.76,0,4.19.8,3.76,2.47-.3,1.11-1.7,1.47-2.88,1.61A310.9,310.9,0,0,1,327.34,202.86Z"/><path class="cls-9" d="M328,202.34q-4.11-10.23-8.2-20.45a9.52,9.52,0,0,0-2.55-4.12c-1.29-1-3.45-1.2-4.53,0-1.45,1.67,0,4.14,1.4,5.84a104.32,104.32,0,0,0-17.84-24,12.38,12.38,0,0,0-4-3,4.78,4.78,0,0,0-4.8.5c-2.4,2.08-.81,5.88,1,8.44A115.08,115.08,0,0,0,300,179.4a9.23,9.23,0,0,1-4.26-2.89,9.08,9.08,0,0,0-4.28-2.86c-1.72-.36-3.85.68-3.94,2.38-.06,1.34,1.07,2.4,2.11,3.28A148.84,148.84,0,0,0,328,202.34Z"/><path class="cls-9" d="M326.84,199.94a73.34,73.34,0,0,0,18,31,5.43,5.43,0,0,0,2.6,1.77,2.51,2.51,0,0,0,2.92-3.06c-.34-1.67-1.78-3.1-3.14-4.41a58,58,0,0,0,17.93,12.63,14,14,0,0,0,5,1.47c1.72.07,3.46-.56,4-1.9.75-1.72-.61-3.83-2-5.48a48.34,48.34,0,0,0-14.62-11.36A118.94,118.94,0,0,0,370,224.41c1.29.31,2.89.52,3.55-.37.52-.7.11-1.74-.43-2.58-2.4-3.66-7-5.77-11.36-7.58C350.29,209.08,338.7,204.53,326.84,199.94Z"/><ellipse class="cls-10" cx="329.13" cy="199.96" rx="10.58" ry="14.17" transform="translate(34.97 448.52) rotate(-71.48)"/><path class="cls-11" d="M326.93,201.34c-7.2-12.41-1-28.16-.77-28.84l2.06.68c-.07.16-6,15.26.68,26.67Z"/><path class="cls-11" d="M329.83,173.27a2.79,2.79,0,0,1-4.17-.07,3.48,3.48,0,0,1,.66-4.53,2.79,2.79,0,0,1,4.17.07A3.48,3.48,0,0,1,329.83,173.27Z"/><path class="cls-11" d="M327.72,202a4,4,0,0,1-1-.48c-5-3-13.25-18.79-10.55-37.08l2.06-.09c-2.45,16.62,4.91,32.08,9.73,35,.7.43,1.34.54,1.63.29s.82-1.49.79-3.87c0-15.94,6.07-38,6.34-39l2,.3c-.07.22-6.27,22.63-6.22,38.19,0,3.1-.64,5.18-1.95,6.22A2.79,2.79,0,0,1,327.72,202Z"/><path class="cls-11" d="M340.92,155.73c-.68,1.69-2.33,2.71-3.69,2.28s-1.92-2.17-1.24-3.87,2.33-2.72,3.69-2.29S341.6,154,340.92,155.73Z"/><path class="cls-11" d="M320.34,163.44c-.67,1.7-2.33,2.72-3.69,2.29s-1.92-2.17-1.24-3.87,2.33-2.72,3.69-2.29S321,161.75,320.34,163.44Z"/><path class="cls-11" d="M331.82,201.75l-1.61-1.43a121.79,121.79,0,0,0,17.59-30.47l2.09.59A123.05,123.05,0,0,1,331.82,201.75Z"/><path class="cls-11" d="M352.35,169.08a3.35,3.35,0,0,1-3.94,2.2,2.87,2.87,0,0,1-1.49-4,3.36,3.36,0,0,1,3.94-2.2A2.89,2.89,0,0,1,352.35,169.08Z"/><path class="cls-11" d="M329.85,201.75l.75-2.38c.11,0,12.13,2.1,26-27.05l2,.84C343.68,204.44,330.4,201.86,329.85,201.75Z"/><path class="cls-11" d="M361.25,171.3a3.37,3.37,0,0,1-3.94,2.2,2.88,2.88,0,0,1-1.49-4,3.36,3.36,0,0,1,3.94-2.19A2.89,2.89,0,0,1,361.25,171.3Z"/></svg>