<svg xmlns="http://www.w3.org/2000/svg" xmlns:xlink="http://www.w3.org/1999/xlink" width="619.88" height="562.43" viewBox="0 0 619.88 562.43">
  <defs>
    <style>
      .cls-1, .cls-96 {
        fill: none;
      }

      .cls-2 {
        isolation: isolate;
      }

      .cls-3, .cls-9 {
        opacity: 0.2;
      }

      .cls-4 {
        fill: #0fba98;
        stroke: #fff;
        stroke-width: 5px;
      }

      .cls-4, .cls-46, .cls-50, .cls-52, .cls-54, .cls-55, .cls-56, .cls-58, .cls-59, .cls-69, .cls-71, .cls-72, .cls-74, .cls-86, .cls-87, .cls-9, .cls-96 {
        stroke-miterlimit: 10;
      }

      .cls-5 {
        clip-path: url(#clip-path);
      }

      .cls-6 {
        fill: #a08862;
      }

      .cls-7 {
        fill: #c4b7a3;
      }

      .cls-8 {
        fill: #80ddda;
      }

      .cls-9 {
        fill: #020202;
        stroke: #201d1e;
      }

      .cls-10 {
        fill: #c37946;
      }

      .cls-11 {
        fill: #89513a;
      }

      .cls-12 {
        opacity: 0.12;
      }

      .cls-13 {
        fill: #d58349;
      }

      .cls-14 {
        fill: #e99c48;
      }

      .cls-15 {
        fill: #edb777;
      }

      .cls-16 {
        opacity: 0.3;
      }

      .cls-17 {
        fill: #2f6b7f;
      }

      .cls-18 {
        fill: #295368;
      }

      .cls-19 {
        fill: #1c3d51;
      }

      .cls-20 {
        fill: #7fb5d3;
      }

      .cls-21 {
        fill: #b2b2b2;
      }

      .cls-22 {
        fill: #d6d6d6;
      }

      .cls-23 {
        fill: #5c9bb7;
      }

      .cls-24 {
        fill: #98cbe2;
      }

      .cls-25 {
        fill: #3a7893;
      }

      .cls-26 {
        fill: #f9f9f9;
      }

      .cls-27 {
        fill: #adadad;
      }

      .cls-28 {
        fill: #d86532;
      }

      .cls-29 {
        fill: #ebe9df;
      }

      .cls-30 {
        fill: #e0ddc9;
      }

      .cls-31 {
        fill: #f78e59;
      }

      .cls-32 {
        fill: #334e5c;
      }

      .cls-33 {
        fill: #22343d;
      }

      .cls-34 {
        fill: #efca58;
      }

      .cls-35 {
        fill: #ee3a59;
      }

      .cls-36 {
        fill: #46b29e;
      }

      .cls-37 {
        fill: #d1a730;
      }

      .cls-38 {
        fill: #dedede;
        mix-blend-mode: multiply;
      }

      .cls-39 {
        fill: #2b8e7b;
      }

      .cls-40 {
        fill: #d35c20;
      }

      .cls-41 {
        fill: #f4743b;
      }

      .cls-42 {
        fill: #cc8527;
      }

      .cls-43 {
        fill: #ffc776;
      }

      .cls-44 {
        fill: #aa4518;
      }

      .cls-45 {
        fill: #ffecae;
      }

      .cls-46 {
        fill: #fdd3ca;
        stroke: #af8680;
      }

      .cls-46, .cls-48, .cls-49, .cls-50, .cls-51, .cls-52, .cls-54, .cls-55, .cls-56, .cls-58, .cls-59, .cls-72, .cls-74, .cls-86, .cls-87, .cls-96 {
        stroke-width: 0.75px;
      }

      .cls-47 {
        fill: #e3ae9f;
      }

      .cls-48 {
        fill: #df71e2;
        stroke: #710e7c;
      }

      .cls-48, .cls-49, .cls-51 {
        stroke-linejoin: round;
      }

      .cls-49, .cls-55 {
        fill: #311415;
      }

      .cls-49, .cls-51 {
        stroke: #190500;
      }

      .cls-50 {
        fill: #bcd0eb;
      }

      .cls-50, .cls-52, .cls-58 {
        stroke: #453323;
      }

      .cls-51 {
        fill: #895b5e;
      }

      .cls-52 {
        fill: #f6e982;
      }

      .cls-53 {
        fill: #b9908b;
      }

      .cls-54 {
        fill: #61435b;
        stroke: #1c101a;
      }

      .cls-55, .cls-96 {
        stroke: #1c0103;
      }

      .cls-56 {
        fill: #f9dad2;
        stroke: #4c2606;
      }

      .cls-57 {
        fill: #db9d8e;
      }

      .cls-58 {
        fill: #de97fc;
      }

      .cls-59, .cls-62 {
        fill: #f9d1c6;
      }

      .cls-59 {
        stroke: #323232;
      }

      .cls-60 {
        fill: #f8e1db;
      }

      .cls-61 {
        fill: #342517;
      }

      .cls-63 {
        fill: #323232;
      }

      .cls-64 {
        fill: #342516;
      }

      .cls-65 {
        fill: #661e1b;
      }

      .cls-66 {
        fill: #d26653;
      }

      .cls-67 {
        fill: #fff;
      }

      .cls-68 {
        fill: #f9988f;
      }

      .cls-69 {
        fill: #f9f8f7;
        stroke: #7f430d;
        stroke-width: 0.5px;
      }

      .cls-70 {
        fill: #fdefec;
      }

      .cls-71 {
        fill: #d6aba5;
        stroke: #7f451d;
        stroke-width: 0.25px;
      }

      .cls-72 {
        fill: #ff4848;
      }

      .cls-72, .cls-74 {
        stroke: #7f4444;
      }

      .cls-73 {
        fill: url(#linear-gradient);
      }

      .cls-74 {
        fill: #e54141;
      }

      .cls-75 {
        fill: #51b77d;
      }

      .cls-76 {
        fill: #7f430d;
      }

      .cls-77 {
        fill: #692e21;
      }

      .cls-77, .cls-79, .cls-80, .cls-81, .cls-82, .cls-83, .cls-84, .cls-85, .cls-86, .cls-87, .cls-91, .cls-92, .cls-93, .cls-94, .cls-95 {
        fill-rule: evenodd;
      }

      .cls-78 {
        fill: #af834c;
      }

      .cls-79 {
        fill: #306f30;
      }

      .cls-80 {
        fill: url(#GradientFill_12);
      }

      .cls-81 {
        fill: url(#GradientFill_13);
      }

      .cls-82 {
        fill: #927a63;
      }

      .cls-83 {
        fill: #ac634e;
      }

      .cls-84 {
        fill: url(#GradientFill_3);
      }

      .cls-85 {
        fill: url(#GradientFill_6);
      }

      .cls-86 {
        fill: #753232;
        stroke: #592626;
      }

      .cls-87 {
        fill: #9b5745;
        stroke: #602d2d;
      }

      .cls-88 {
        fill: url(#GradientFill_9);
      }

      .cls-89 {
        fill: url(#GradientFill_9-2);
      }

      .cls-90 {
        fill: url(#GradientFill_9-3);
      }

      .cls-91 {
        fill: #72a13f;
      }

      .cls-92 {
        fill: url(#GradientFill_10);
      }

      .cls-93 {
        fill: url(#GradientFill_11);
      }

      .cls-94 {
        fill: url(#GradientFill_3-2);
      }

      .cls-95 {
        fill: url(#GradientFill_6-2);
      }
    </style>
    <clipPath id="clip-path">
      <path class="cls-1" d="M302.57,517.77c-147.3,0-266.71-108.19-266.71-241.64S155.27,34.48,302.57,34.48,569.28,142.67,569.28,276.13,449.87,517.77,302.57,517.77Z"/>
    </clipPath>
    <linearGradient id="linear-gradient" x1="2433.32" y1="14090.08" x2="2430.3" y2="14084.25" gradientTransform="matrix(1.52, 0.01, 0, -0.34, -3477.12, 5059.81)" gradientUnits="userSpaceOnUse">
      <stop offset="0" stop-color="#dcc499"/>
      <stop offset="1" stop-color="#e5d8c0"/>
    </linearGradient>
    <linearGradient id="GradientFill_12" data-name="GradientFill 12" x1="339.85" y1="246.32" x2="361.49" y2="246.32" gradientTransform="translate(-199.85 99.47) rotate(-2.36)" gradientUnits="userSpaceOnUse">
      <stop offset="0" stop-color="#cdb997"/>
      <stop offset="1" stop-color="#e7d4b6"/>
    </linearGradient>
    <linearGradient id="GradientFill_13" data-name="GradientFill 13" x1="339.94" y1="246.97" x2="361.43" y2="246.97" gradientTransform="translate(-199.85 99.47) rotate(-2.36)" gradientUnits="userSpaceOnUse">
      <stop offset="0" stop-color="#b19f83"/>
      <stop offset="1" stop-color="#d1bea1"/>
    </linearGradient>
    <linearGradient id="GradientFill_3" data-name="GradientFill 3" x1="335.76" y1="264.8" x2="356.34" y2="264.8" gradientTransform="translate(-199.85 99.47) rotate(-2.36)" gradientUnits="userSpaceOnUse">
      <stop offset="0" stop-color="#ebd7b5"/>
      <stop offset="1" stop-color="#f9efd6"/>
    </linearGradient>
    <linearGradient id="GradientFill_6" data-name="GradientFill 6" x1="335.76" y1="264.8" x2="356.34" y2="264.8" gradientTransform="translate(-199.85 99.47) rotate(-2.36)" gradientUnits="userSpaceOnUse">
      <stop offset="0" stop-color="#cdbb9f"/>
      <stop offset="1" stop-color="#e3d4b6"/>
    </linearGradient>
    <linearGradient id="GradientFill_9" data-name="GradientFill 9" x1="391.38" y1="275.47" x2="391.38" y2="260.45" gradientTransform="translate(-199.85 99.47) rotate(-2.36)" gradientUnits="userSpaceOnUse">
      <stop offset="0" stop-color="#ba8b51"/>
      <stop offset="1" stop-color="#f1c375"/>
    </linearGradient>
    <linearGradient id="GradientFill_9-2" x1="371.62" y1="276.72" x2="371.62" y2="261.43" xlink:href="#GradientFill_9"/>
    <linearGradient id="GradientFill_9-3" x1="408.79" y1="274.04" x2="408.79" y2="259.64" xlink:href="#GradientFill_9"/>
    <linearGradient id="GradientFill_10" data-name="GradientFill 10" x1="423.68" y1="254.69" x2="361.67" y2="254.69" gradientTransform="translate(-199.85 99.47) rotate(-2.36)" gradientUnits="userSpaceOnUse">
      <stop offset="0" stop-color="#bca886"/>
      <stop offset="1" stop-color="#d1bea1"/>
    </linearGradient>
    <linearGradient id="GradientFill_11" data-name="GradientFill 11" x1="424.02" y1="253.63" x2="360.88" y2="253.63" gradientTransform="translate(-199.85 99.47) rotate(-2.36)" gradientUnits="userSpaceOnUse">
      <stop offset="0" stop-color="#9c886d"/>
      <stop offset="1" stop-color="#bca88d"/>
    </linearGradient>
    <linearGradient id="GradientFill_3-2" x1="339.85" y1="251.57" x2="361.49" y2="251.57" xlink:href="#GradientFill_3"/>
    <linearGradient id="GradientFill_6-2" x1="339.94" y1="250.35" x2="361.43" y2="250.35" xlink:href="#GradientFill_6"/>
  </defs>
  <g class="cls-2">
    <g id="Layer_1" data-name="Layer 1">
      <g>
        <path class="cls-3" d="M312.34,534.59c-152.13,0-274.55-113.82-274.55-254.22S161.12,27.84,313.26,27.84c150.36,0,273.47,112.13,273.47,252.53S464.48,534.59,312.34,534.59Z"/>
        <path class="cls-4" d="M302.57,520.15c-148.79,0-269.41-109.25-269.41-244s120.62-244,269.41-244S572,141.36,572,276.13,451.36,520.15,302.57,520.15Z"/>
        <g class="cls-5">
          <g>
            <g>
              <rect class="cls-6" x="-221.89" y="401.77" width="1124" height="52.33"/>
              <polygon class="cls-7" points="872.42 536.36 -204.84 536.36 -202.13 447.56 875.14 447.56 872.42 536.36"/>
              <rect class="cls-8" x="-202.13" y="-88.51" width="1077.26" height="526.56"/>
            </g>
            <g>
              <polygon class="cls-9" points="347.9 458.66 310.5 508.57 601.13 508.57 552.53 461.16 347.9 458.66"/>
              <path class="cls-10" d="M324.76,508.57c-3.06,0-5.54-2.78-5.54-6.23V399.28c0-3.44,2.48-6.23,5.54-6.23s5.54,2.79,5.54,6.23V502.34C330.3,505.79,327.82,508.57,324.76,508.57Z"/>
              <path class="cls-11" d="M353.43,481.44c-3.06,0-5.53-2.79-5.53-6.23V372.15c0-3.45,2.47-6.23,5.53-6.23s5.54,2.78,5.54,6.23V475.21C359,478.65,356.5,481.44,353.43,481.44Z"/>
              <rect class="cls-12" x="319.22" y="413.26" width="11.08" height="22.86"/>
              <path class="cls-10" d="M576.62,508.57c3.06,0,5.53-2.78,5.53-6.23V399.28c0-3.44-2.47-6.23-5.53-6.23s-5.54,2.79-5.54,6.23V502.34C571.08,505.79,573.56,508.57,576.62,508.57Z"/>
              <path class="cls-11" d="M547.94,481.44c3.06,0,5.54-2.79,5.54-6.23V372.15c0-3.45-2.48-6.23-5.54-6.23s-5.54,2.78-5.54,6.23V475.21C542.4,478.65,544.88,481.44,547.94,481.44Z"/>
              <rect class="cls-12" x="571.08" y="413.26" width="11.08" height="20.77"/>
              <path class="cls-13" d="M311.52,381.78h281a0,0,0,0,1,0,0V430.2a.55.55,0,0,1-.55.55H312.06a.55.55,0,0,1-.55-.55V381.78A0,0,0,0,1,311.52,381.78Z"/>
              <polygon class="cls-12" points="311.51 392.88 592.5 390.14 592.5 381.78 311.51 381.78 311.51 392.88"/>
              <path class="cls-14" d="M606.87,377.82H297.15v8.54a1.88,1.88,0,0,0,1.88,1.88H605a1.88,1.88,0,0,0,1.88-1.88Z"/>
              <path class="cls-15" d="M603.94,380.58H300.07a2.92,2.92,0,0,1-2.62-4.22l21.77-30.64a2.91,2.91,0,0,1,2.61-1.62H584.15a2.93,2.93,0,0,1,2.61,1.61l19.8,30.64A2.93,2.93,0,0,1,603.94,380.58Z"/>
            </g>
            <path class="cls-16" d="M390.8,356.83s-20.11,1.8-11.78,6.28,31.85,17.92,46.59,17.24,60.08-.69,57-6.56S396.83,356.3,390.8,356.83Z"/>
            <g>
              <g>
                <path class="cls-17" d="M439.17,371.5c.25-1,4-15.08,7.46-32.3,3.33-16.38,7.15-39,6.41-53.75-.59-11.74-3.66-20.54-9.12-26.16A20,20,0,0,0,429.48,253a16.16,16.16,0,0,0-1.86.11c-3.69.42-9.86,1.12-15.4,6.53-6.47,6.33-10.61,17.69-12.31,33.76-2,19.24-1.25,38.48-.23,51.24,1.07,13.51,2.63,22.79,2.71,23.28l3.37,3.6Z"/>
                <path class="cls-18" d="M444.27,306.8s-8.73,13.76-20.95,9.07-16-23.79-15.58-33,.7-9.7.7-9.7l-4,92.84Z"/>
                <g>
                  <path class="cls-18" d="M447.54,293.3a34.37,34.37,0,0,0,8.38-1.69c3.88-1.36,8.57-4.08,8.89-9.36,0-.1,0-10-5.17-17.79-4.83-7.23-11.78-9.52-15.51-10.75l-.9-.29a7.45,7.45,0,0,0-2.39-.33,28.86,28.86,0,0,0-7.64,1.41,15.5,15.5,0,0,1,5.48,3.06c2.72,2.29,6.22,6.68,7.4,14.59C448.2,286.31,447.63,292.53,447.54,293.3Z"/>
                  <path class="cls-19" d="M442.15,261.46s3.32,4.23,4.29,13.22,1.1,18.62,1.1,18.62a27.27,27.27,0,0,0,10.07-2.36c5.25-2.35,6.39-4.58,7.2-8s-1.41-12.17-5.17-18.49S448,255.12,448,255.12s8,4.1,10,11.34-3.71,9.54-6.51,7.75S442.15,261.46,442.15,261.46Z"/>
                </g>
                <path class="cls-19" d="M376.57,321.11c0-.58-1.45,5.26-.79,8.45a1.21,1.21,0,0,0,.88,1l.46-4A49.62,49.62,0,0,1,376.57,321.11Z"/>
                <path class="cls-20" d="M438.67,251.9s.79-12.13-2-14.14-10.54-1.78-11.58-1-1,13.58-1,13.58Z"/>
                <path class="cls-21" d="M377.12,326.6s-2.76,24-2.7,24.4,4,1.25,4.41.78S382,327.42,382,327.42Z"/>
                <path class="cls-22" d="M388.09,355.9c-.08-3.07-1.36-7-2.22-6.86s-1.9,9.43-4.35,10-5.43-4.79-4.95-17.55,1-21.46,1-21.46l7.41-.46s-2.32,29.92-2,31,1.47-1.53,2.39-4.54,3.06-1,3.06-1Z"/>
                <path class="cls-23" d="M387.31,243.39c-4.54,4.58-11.73,70.06-10.63,80.6s7.72,9.92,9.07,3.43,6.37-64.51,8.82-72.93,4.32-13.19,4.32-13.19S390.28,240.38,387.31,243.39Z"/>
                <path class="cls-20" d="M410.47,254.35s-2.31-7.68-6.07-11.48S394.2,240,394.2,240s-4.64,1.19-6.89,3.4a8.71,8.71,0,0,1,7.17,4.22c2.34,4.23,6.15,14.07,6.54,16.87S410.47,254.35,410.47,254.35Z"/>
                <path class="cls-17" d="M425.57,250.57c2.19,0,3.48-.35,3.74-1-.23-.44-3.21-6.17-5.42-6.58h-.95a.77.77,0,0,1,.56.22c.44.58.46,5.74-.25,7.26C423.55,250.49,424.51,250.57,425.57,250.57Z"/>
                <path class="cls-18" d="M423.89,243s-.33-.31-4.19.11a19.4,19.4,0,0,0-6.69,2l3.45-.12s6.14-2.42,9-1A2.17,2.17,0,0,0,423.89,243Z"/>
                <path class="cls-20" d="M405.67,371.46c.14-3,3.33-69,3.95-81.43.66-13,1.84-21.52,12.65-30.45A25.52,25.52,0,0,1,439,253.81a33.73,33.73,0,0,1,8.28,1.07c-3.84-1.44-12.56-4.58-16.94-5.17a14.67,14.67,0,0,0-2.08-.13c-5.93,0-14.42,2.56-17.77,4.77-3.64,2.4-12.47,9.84-15.82,27.13-3.27,16.93-6.7,69.82-6.9,75.07-.18,4.69.59,6.28,2.09,7.59S404.44,370.94,405.67,371.46Z"/>
                <path class="cls-20" d="M414.94,252.11c-.47-3.13.37-7.06,2.89-8.23a12.88,12.88,0,0,1,4.12-1c-3.67.08-8,1.19-9.24,2.39s-4.29,9.5-4.75,10.81Z"/>
                <path class="cls-23" d="M407.74,328.56l-1.27,29.2-.67,13.76s-13.89-5.77-16-7.38-2.29-4-2.09-7.59.95-16.38,1.83-27.28,2.54-27.38,4-42.35,7.84-23.68,11.21-27.58c0,0-8.33,8-9.62,27.32s-3.19,50.8,3.43,54S407.74,328.56,407.74,328.56Z"/>
                <path class="cls-24" d="M447.26,254.88s-11-4.23-16.64-5.13-13.27,1.19-18.18,3.34-9.91,8.46-11.56,12-4.6,16.32.67,18.09,5.86-6.17,13.4-15.58S428.9,252,447.26,254.88Z"/>
                <path class="cls-22" d="M448,255.12l-3.86-1.41s-9.79-2.23-18,2.14-13.24,10.34-15.81,18.54-3.68,55.23-3.68,55.23L405,371.2l.76.32,2.14-47s1.4-29.82,1.91-38.33,2.66-15.28,5.85-19.68,9.45-9.72,16-11.52S448,255.12,448,255.12Z"/>
                <path class="cls-21" d="M464.81,279.54a36.83,36.83,0,0,0-5.54-15.61,21.81,21.81,0,0,0-12.71-9.06l-2.8-.38a25.27,25.27,0,0,1,12.48,7.64c5.43,6.16,6.8,17.51,6.8,17.51Z"/>
                <path class="cls-25" d="M405.55,357.74,405,371.2s-12.36-5.5-14.73-6.73-2.72-2.39-2.54-8.76,3-40.54,3-40.54-1.41,28.11-.67,36.44,9.8,11.94,12.37,11.94,3.69-21.68,3.69-21.68Z"/>
                <path class="cls-26" d="M442,254.33a30.5,30.5,0,0,0-14.51,2.26A26.79,26.79,0,0,0,412.34,273c-1.66,5.14-2.66,14.77-2.66,14.77s-1.29-.36-.66-5.33.92-14.86,11.17-22.74,17.56-6.6,21.23-6.42,4.64,1.38,4.64,1.38Z"/>
                <path class="cls-27" d="M386.11,349.09c-.36-.36-.73,1-1.1,2.67s-1.83,7.51-3.92,7.37-3.06-3.57-3.06-3.57,1.26,2,2.54.27a24.64,24.64,0,0,0,2.48-5.26s0,.55.34.3,2.31-6.5,3.28-6.45a3.49,3.49,0,0,0-1.35,2.72C385.07,349.22,386.11,349.09,386.11,349.09Z"/>
                <path class="cls-18" d="M407.74,330.74l-1.94,40.78,56.51-2.64,1.34-82.68a33.69,33.69,0,0,1-16.11,7.1s-.18,11.88-7.28,18.38-14.37,4.92-14.37,4.92Z"/>
                <path class="cls-17" d="M395.83,250.31s-1.37-3.42-3.06-4.82-4.75-2.4-5.46-2.1-2,4.53-2.8,8.43-1.12,5.65-1.12,5.65,2.38-5.1,6.7-5.09,4.23,3.08,4.23,3.08Z"/>
              </g>
              <g>
                <g>
                  <g>
                    <path class="cls-28" d="M443.86,259.17a.48.48,0,0,0-.67-.49l-28.37,12.4a1.45,1.45,0,0,0-.28,2.5h0a5.54,5.54,0,0,0,5.51.62L443.32,264Z"/>
                    <path class="cls-29" d="M447.67,263.13,418.6,276.28l-1.75-1.19-.62-.42-.58-.4-.16-.13a1.43,1.43,0,0,1-.4-.52,1.74,1.74,0,0,1-.15-.71,1.66,1.66,0,0,1,.21-.78,1.59,1.59,0,0,1,.76-.68l27.16-11.85a3.28,3.28,0,0,0,.2.31,6.41,6.41,0,0,0,.39.52,6.77,6.77,0,0,0,.51.56c.16.16.33.32.51.47a6.48,6.48,0,0,0,.73.53,7.23,7.23,0,0,0,.66.4A12.46,12.46,0,0,0,447.67,263.13Z"/>
                    <g>
                      <path class="cls-30" d="M443.66,260.43l-28.72,12.48a1.66,1.66,0,0,1,.21-.78l28.12-12.22A6.41,6.41,0,0,0,443.66,260.43Z"/>
                      <path class="cls-30" d="M444.68,261.46l-29.19,12.68a1.43,1.43,0,0,1-.4-.52L444.17,261C444.33,261.15,444.5,261.31,444.68,261.46Z"/>
                      <path class="cls-30" d="M446.07,262.39l-29.22,12.7-.62-.42L445.41,262A7.23,7.23,0,0,0,446.07,262.39Z"/>
                    </g>
                    <path class="cls-31" d="M447.79,262.07l-30.68,13.41-5.4,48.25a1.69,1.69,0,0,0,2.36,1.74l28.19-12.32a1.09,1.09,0,0,0,.64-.87l5.57-49.71A.49.49,0,0,0,447.79,262.07Z"/>
                    <polygon class="cls-32" points="443.94 303.03 443.3 308.72 412.71 322.2 413.36 316.39 443.94 303.03"/>
                    <polygon class="cls-32" points="448.1 265.89 447.88 267.82 417.29 281.3 417.52 279.25 448.1 265.89"/>
                    <path class="cls-28" d="M420.05,274.2l-5.73,51.16a5.56,5.56,0,0,1-5.52-.61,1.47,1.47,0,0,1-.58-1.34s5.59-49.08,5.73-51.1a1.41,1.41,0,0,0,.58,1.27,5.6,5.6,0,0,0,2.68,1.05A5.49,5.49,0,0,0,420.05,274.2Z"/>
                    <path class="cls-33" d="M412.59,315.89a5.6,5.6,0,0,1-2.68-1.05,1.41,1.41,0,0,1-.58-1.27c0,.4-.27,2.64-.64,6a1.46,1.46,0,0,0,.58,1,5.55,5.55,0,0,0,5.52.62l.64-5.72A5.49,5.49,0,0,1,412.59,315.89Z"/>
                    <path class="cls-33" d="M416.75,278.74a5.6,5.6,0,0,1-2.68-1.05,1.41,1.41,0,0,1-.58-1.27c0,.22-.1,1-.23,2.24a1.42,1.42,0,0,0,.59,1.07,5.5,5.5,0,0,0,5.51.61l.23-2A5.49,5.49,0,0,1,416.75,278.74Z"/>
                    <polygon class="cls-32" points="444.31 299.69 444.09 301.63 413.51 315.11 413.74 313.06 444.31 299.69"/>
                    <path class="cls-33" d="M413,312.54a5.45,5.45,0,0,1-2.67-1,1.46,1.46,0,0,1-.59-1.27c0,.22-.09,1-.22,2.23a1.4,1.4,0,0,0,.58,1.07,5.6,5.6,0,0,0,2.67,1.05,5.45,5.45,0,0,0,2.84-.43l.23-2A5.49,5.49,0,0,1,413,312.54Z"/>
                  </g>
                  <polygon class="cls-34" points="437.2 299.68 425.12 305.08 428.01 279.25 440.1 273.85 437.2 299.68"/>
                </g>
                <polygon class="cls-35" points="423.16 270.12 427.68 268.16 428.13 264.19 423.6 266.21 423.16 270.12"/>
                <polygon class="cls-36" points="438.83 264.85 441.42 263.73 441.69 261.28 439.11 262.41 438.83 264.85"/>
              </g>
              <g>
                <path class="cls-34" d="M454.5,275.1l-8.76,3.65-17.08,7.1-3.49,47.4-16.82,6.92a1,1,0,0,1-1.31-1l7-53.56a2.4,2.4,0,0,1,1.46-1.9L429.24,278l17.55-7.3,1.29-.54a7.1,7.1,0,0,1,3.6-.48A7,7,0,0,1,455,271a2.37,2.37,0,0,1-.53,4.07Z"/>
                <path class="cls-37" d="M454.5,275.1l-8.76,3.65,1.05-8.09,1.29-.54a7.1,7.1,0,0,1,3.6-.48A7,7,0,0,1,455,271a2.37,2.37,0,0,1-.53,4.07Z"/>
                <path class="cls-29" d="M454.72,274a2.39,2.39,0,0,1-1.42,1.4h0l-1.07.56-25.08,13.32-11.32,55.08a12.85,12.85,0,0,0-1.69-1.69c-.26-.22-.54-.43-.82-.63s-.58-.4-.88-.58-.55-.33-.84-.48-.71-.37-1.08-.53l-.85-.36-.73-.27,7.16-54.88,32-13.39a7.27,7.27,0,0,1,1.8-.48,7.65,7.65,0,0,1,1.79,0h0l.36.06a6.31,6.31,0,0,1,.72.18l.41.13.2.07a3.12,3.12,0,0,1,.73.57,2.68,2.68,0,0,1,.5.77A1.78,1.78,0,0,1,454.72,274Z"/>
                <g>
                  <path class="cls-30" d="M453.22,271.41l-35.57,14.37-7.12,54.64-.85-.36,7.15-54.91L451.72,271h0l.36.06a6.31,6.31,0,0,1,.72.18Z"/>
                  <path class="cls-30" d="M454.65,272.82,419.54,287l-7.09,54.42q-.4-.26-.84-.48l7.11-54.57,35.43-14.33A2.68,2.68,0,0,1,454.65,272.82Z"/>
                  <path class="cls-30" d="M453.3,275.36h0l-1.07.56-31,12.54-7.06,54.17c-.26-.22-.54-.43-.82-.63l7.05-54.17L454.72,274A2.39,2.39,0,0,1,453.3,275.36Z"/>
                </g>
                <path class="cls-38" d="M423.55,290l-7.71,54.3a12.85,12.85,0,0,0-1.69-1.69c-.26-.22-.54-.43-.82-.63s-.58-.4-.88-.58-.55-.33-.84-.48-.71-.37-1.08-.53l-.85-.36-.73-.27,7.16-54.88A19.19,19.19,0,0,1,423.55,290Z"/>
                <path class="cls-34" d="M455.94,273.22l-7.37,56.57a2.37,2.37,0,0,1-1.44,1.89l-2.42,1-29.88,12.43a1,1,0,0,1-1.32-1l7-53.71a2.11,2.11,0,0,1,1.28-1.68l30.29-12.59,2.42-1A2.36,2.36,0,0,0,455.94,273.22Z"/>
                <path class="cls-37" d="M455.94,273.22l-7.37,56.57a2.37,2.37,0,0,1-1.44,1.89l-2.42,1,7.37-56.57,2.42-1A2.36,2.36,0,0,0,455.94,273.22Z"/>
              </g>
              <g>
                <g>
                  <g>
                    <path class="cls-28" d="M455.68,277.85a.69.69,0,0,0-1-.68L414.79,296a2.07,2.07,0,0,0-.29,3.57h0a7.9,7.9,0,0,0,7.87.66l32.74-15.43Z"/>
                    <path class="cls-29" d="M461.26,283.33,420.4,303.24l-2.55-1.64L417,301l-.85-.54-.24-.18a2.22,2.22,0,0,1-.58-.72,2.43,2.43,0,0,1-.25-1,2.39,2.39,0,0,1,.27-1.11,2.27,2.27,0,0,1,1.06-1l38.2-18c.1.14.19.29.3.43s.37.49.57.73a9.2,9.2,0,0,0,.76.77,9.45,9.45,0,0,0,.75.65,11.49,11.49,0,0,0,1.05.73c.31.19.62.37,1,.54A17.3,17.3,0,0,0,461.26,283.33Z"/>
                    <g>
                      <path class="cls-30" d="M455.44,279.65,415,298.57a2.39,2.39,0,0,1,.27-1.11l39.56-18.54C455,279.17,455.24,279.41,455.44,279.65Z"/>
                      <path class="cls-30" d="M457,281.07l-41.08,19.24a2.22,2.22,0,0,1-.58-.72l40.91-19.17A9.45,9.45,0,0,0,457,281.07Z"/>
                      <path class="cls-30" d="M459,282.34,417.85,301.6,417,301l41-19.23C458.31,282,458.62,282.17,459,282.34Z"/>
                    </g>
                    <path class="cls-31" d="M461.4,281.81l-43.16,20.34-5.75,68.94a2.42,2.42,0,0,0,3.44,2.38l39.65-18.69a1.5,1.5,0,0,0,.87-1.25l5.93-71A.69.69,0,0,0,461.4,281.81Z"/>
                    <polygon class="cls-36" points="461.48 293.31 459.6 315.76 416.58 336.2 418.47 313.59 461.48 293.31"/>
                    <path class="cls-28" d="M422.37,300.21l-6.1,73.1a7.9,7.9,0,0,1-7.87-.66,2,2,0,0,1-.88-1.87s6-70.13,6.09-73a2.05,2.05,0,0,0,.88,1.79,7.94,7.94,0,0,0,7.88.66Z"/>
                    <path class="cls-39" d="M417.35,312.9a7.81,7.81,0,0,1-3.85-1.38,2,2,0,0,1-.89-1.79c0,.57-1.47,18.08-1.86,22.83a2,2,0,0,0,.87,1.44,8,8,0,0,0,3.85,1.39,7.87,7.87,0,0,0,4-.73l1.87-22.49A7.71,7.71,0,0,1,417.35,312.9Z"/>
                  </g>
                  <polygon class="cls-32" points="456.65 298.39 428.35 311.8 428.18 313.74 456.49 300.33 456.65 298.39"/>
                  <polygon class="cls-32" points="456.29 302.69 427.99 316.1 427.82 318.04 456.13 304.63 456.29 302.69"/>
                  <polygon class="cls-32" points="455.92 307.19 427.61 320.6 427.45 322.54 455.75 309.13 455.92 307.19"/>
                </g>
                <path class="cls-35" d="M452,307.64l1.59-19.08a2.42,2.42,0,0,0-1.36-2.4l-1.83-.9-4.64,2.26,1.83.9a2.44,2.44,0,0,1,1.36,2.4l-1.59,19.09c0-.28,2.9-7.72,2.9-7.72Z"/>
              </g>
              <g>
                <path class="cls-23" d="M418.72,376.55a15.85,15.85,0,0,0,1.63-.12c2.38-.27,55.95-2.54,58-2.63.17-1.09,2.77-17.71,6.42-34.56a226,226,0,0,1,6.82-23.94,29.13,29.13,0,0,0,1.57-10.3,12,12,0,0,0-3.64-7.8c-3.41-3.17-9.49-6.95-19.13-6.95a55.1,55.1,0,0,0-31.86,11.29,38.59,38.59,0,0,0-10.05,12.69c-4.74,9.37-6.07,20.24-7.37,30.76l-.12,1c-2.59,21-2.73,30.44-2.73,30.54h0A1.62,1.62,0,0,0,418.72,376.55Z"/>
                <path class="cls-20" d="M418.15,376.43c.06-.18.18-1.14.34-2.44.87-6.94,3.52-28.07,9.93-46.11,7.73-21.74,23.37-35.25,40.82-35.25h.7c9.25.19,15.51,3.29,19.14,5.86a9,9,0,0,1,4.09,6.5c0-3.37-2.18-11.26-5-15.33a21.75,21.75,0,0,0-8.38-7,31.47,31.47,0,0,0-14.2-3.13A45.36,45.36,0,0,0,454.46,281c-15,3.78-26.83,14.83-35.21,32.82-7.15,15.34-12,38.69-12.78,43.93l-.67,13.76C409.84,373.21,417.48,376.36,418.15,376.43Z"/>
                <path class="cls-25" d="M423.53,379.36c4.57,0,27.73-1.31,43.05-2.18,7-.4,12.52-.71,13.68-.75,4.74-.16,7.31-5.73,7.86-17,.61-12.63-3.18-18.85-3.48-19.33-1.73-.08-3.68-.12-5.81-.12-20.71,0-53.55,4-55,4.13-2.95,10.84-5.45,31.4-5.57,32.39.29.26,2.81,2.52,4.52,2.86a5.08,5.08,0,0,0,.74,0Z"/>
                <path class="cls-19" d="M422.35,379.34c.23-.48,1.9-4.25,3.13-15.77,1.19-11.24-1.08-18.69-1.52-20a151,151,0,0,0-3.57,17.82c-1.53,10.59-2.06,14.67-2.12,15.08A14.29,14.29,0,0,0,422.35,379.34Z"/>
                <path class="cls-23" d="M437.46,310.52a83.45,83.45,0,0,0-10,20.26c-4.11,12.1-7.66,32.68-8.15,37.27s-1,8.42-1,8.42l-12.47-5,.89-14.68s5-26.79,12.16-42.15,13.89-21,13.89-21a75.38,75.38,0,0,0-14.47,23.75c-5.68,14.8-7.81,33-4.13,36.2s7.16-8.82,12.31-22.88S437.46,310.52,437.46,310.52Z"/>
                <path class="cls-24" d="M493.09,304.37a38.15,38.15,0,0,0-4.9-14.7c-4.14-6.6-12.58-10-23.38-10.13s-27.43,6.75-33.4,21.17,3.67,9.1,12.31,1.47,23.92-11.22,34-8.88C487.45,295.57,491.77,300,493.09,304.37Z"/>
                <path class="cls-22" d="M406.53,355.65s2.19-10.22,6.53-25.17c4.43-15.25,10-29.89,24.4-41.57s32.29-10.43,41.46-6.76,11.23,11.15,11.23,11.15-3.25-10.41-19.61-12.16-26.74,4.41-33.08,9.83-10.09,9.83-17,22.88-13.6,47.77-14.34,53.47Z"/>
                <path class="cls-25" d="M422.55,349.57s-2.5,16.25-3.24,21-1,5.94-1,5.94l-12.47-5,.36-5.93,4.54-21s-3.15,16.73-2.41,21.07,6.49,5.95,8.57,3.07S422.55,349.57,422.55,349.57Z"/>
                <path class="cls-19" d="M487.93,351.32s.26,5.66.24,6.49-1.32,1.71-2,1.84-23.57,1.22-23.57,1.22a8,8,0,0,1-1.37,1c-.32.09-.09,9.07-.09,9.07l-2-.53-1.57.76s-1.24.07-1.28-.3.23-8.73.23-8.73a8.07,8.07,0,0,1-2.71-1.79s-16.71.4-19.16.16-8.48-2.38-9-8.2c0-.26-.45-6-1.64-8.69Z"/>
                <path class="cls-40" d="M433.73,357.43c.77,0,29.12-.32,51.87-2.15a2,2,0,0,0,1.62-1.18c1.33-2.4.92-8.41-2.44-14.81a14,14,0,0,0-3.42-.17c-4.3,0-11.8.28-22.28.83C432,341.37,424.51,343,424,343.4c0,0,0,0,0,.25a25.44,25.44,0,0,0,3.19,6.88C428.45,352.62,431,356.3,433.73,357.43Z"/>
                <path class="cls-41" d="M457.54,371.2c.36-.38,1.35-1.36,1.72-1.36a6.44,6.44,0,0,1,1.87,1.13l.73-13.71h-3.73Z"/>
                <path class="cls-42" d="M459.57,361.36a5,5,0,1,0-5-5A5,5,0,0,0,459.57,361.36Z"/>
                <path class="cls-43" d="M460.42,361.36a5,5,0,1,0-5-5A5,5,0,0,0,460.42,361.36Z"/>
                <path class="cls-25" d="M484.78,339.29s.64-.21-12.26,0-37.25,2.26-40.7,2.71-7.43,1-7.83,1.36c0,0,1.12-5.19,3.73-13.45s7-14.95,8.24-17.29a23.52,23.52,0,0,1,3.57-4.78,114.79,114.79,0,0,0-7.3,12.95c-3.49,7.31-3.18,15.93,17.26,15.65s30.95-2.43,33.89-3.08,4.79-7.3,4.79-7.3Z"/>
                <path class="cls-41" d="M483.44,340c.64.19,2.66,3.43,3.18,7.93s-1.19,6.31-1.59,6.4-17,1.2-17.24,1-1.33-6.9-8.68-6.63-7,2.47-19.16,2.61S426.51,344,426.51,344s6.69-1.16,28.67-2.93S483.44,340,483.44,340Z"/>
                <path class="cls-23" d="M486.37,361.71c0,1.43-1.31,8.18-3,10.52a7.51,7.51,0,0,1-5.28,2.9L443.21,377s17.78-2.8,18.84-3.95,3.67-9.73,3.81-10S486.37,361.71,486.37,361.71Z"/>
                <path class="cls-25" d="M493,309.78a15.52,15.52,0,0,0,.06-5.64c-.52-3.34-5.48-11.51-21.83-11.6s-27.1,7.25-35.74,21.13a88,88,0,0,0-11.12,27.86l46.18-6.18s-17.32,1.76-21.5-9.71c-1.23-3.35-2.75-15.86,12.81-21.5,18.65-6.76,28.14-1,29.88,2.08S493,309.78,493,309.78Z"/>
                <path class="cls-44" d="M458.53,351.43a5.06,5.06,0,0,0-3.28,2.36,5,5,0,0,0-.7,3.15l-20.29.49,17.14-2.07S452.8,352.17,458.53,351.43Z"/>
                <path class="cls-18" d="M484.78,339.29a280.31,280.31,0,0,0-28.84.66c-14.16,1.18-30,1.76-31.95,3.45,0,0,1.09-8.86,9.31-26.37s23.92-25.6,41.1-24.49,18.72,12,18.77,12.9c0,0-1.68-9.87-17.85-11.34a36.4,36.4,0,0,0-37.86,24.07c-5.78,16.35-1.22,19,12,20s33.92-.15,34.83-.7,2-4.06,2-4.06Z"/>
                <path class="cls-45" d="M465.43,356.51l-7.78-4.35s3-1.81,5.4-.09A4.88,4.88,0,0,1,465.43,356.51Z"/>
                <path class="cls-45" d="M465.05,358.28l-8.79-4.74a5.8,5.8,0,0,0-.85,3.17l7.47,4A4.86,4.86,0,0,0,465.05,358.28Z"/>
                <path class="cls-26" d="M480.07,282.65c-4.5-2-10.24-4.3-22.39-2.58s-21.31,9.74-21.31,9.74-.56,1.91,2.71-.44c3.44-2.48,7.82-6.45,20.35-7.95s20.91,2.28,20.91,2.28a34.45,34.45,0,0,0,4.14,2C484.65,285.54,482.89,283.92,480.07,282.65Z"/>
              </g>
            </g>
            <g>
              <ellipse class="cls-9" cx="166.83" cy="484.78" rx="67.34" ry="22"/>
              <g>
                <g>
                  <g>
                    <g>
                      <g>
                        <g>
                          <path class="cls-46" d="M201.51,415.05s-9.51,43.66-12,47.46-13.29,8.87-20.47,8c0,0,5.07-44.85,8.15-51.95S201.51,415.05,201.51,415.05Z"/>
                          <path class="cls-47" d="M200.47,418.52s-8.78,2.06-11.75,2.58a40.87,40.87,0,0,1-12.26.37s.56-3.5,1.5-4.18c1.36-1,23.55-3.14,23.55-3.14Z"/>
                        </g>
                        <g>
                          <path class="cls-48" d="M194,447.08a31.28,31.28,0,0,1-21.81-1.8l-3.69,25.45s16.71,1.67,20.19-3.47Z"/>
                          <path class="cls-49" d="M200.53,470.24s-.73-7.63-8.05-7.2-12.69-1.79-15.35,2.09.27,6.11-8.62,3.76l.17-3.05s-4.51-1.38-5.49,1.53S162,476.11,160.55,479s-1.81,4.72,0,5.41,28.78,14.67,52.56,6C213.13,490.47,227.3,473,200.53,470.24Z"/>
                          <path class="cls-49" d="M206.38,471.21s-12-1.52-16.81,9.3a15.93,15.93,0,0,0-1.45,5.83"/>
                          <path class="cls-50" d="M160.13,479.85s19,8.16,27.08,9.68,27.41-1.16,27.92-2.23-2,3.17-2,3.17-10.59,4.12-25.44,2.22a91.13,91.13,0,0,1-27.12-8.26S157.75,483.6,160.13,479.85Z"/>
                          <path class="cls-51" d="M200.53,470.24s-10-1.1-12.44,4.73,4.21,1.28,4.21,1.28,3.58-5.72,12.6-5.11C204.9,471.14,204.33,469.26,200.53,470.24Z"/>
                          <path class="cls-51" d="M199.84,467.68s-8.76-1.31-11.14,2.85,0,3.32,0,3.32,2.52-4.16,11.82-3.61Z"/>
                          <path class="cls-52" d="M194.87,443.84s-16,3.1-22.4-1.28l-.7,4s15.64,3,22.24,1Z"/>
                        </g>
                      </g>
                      <path class="cls-53" d="M203.43,405.86c-.14,1.9-.4,4-.78,6.48-.64,4.12-2.48,7.63-3.31,11.5-4.39.29-7.7.79-12.1.53-3-.19-8.3-.55-11.84-2.6l1.26-13,6.29-4.59a32,32,0,0,1,9.11-.7A36.72,36.72,0,0,1,203.43,405.86Z"/>
                    </g>
                    <g>
                      <g>
                        <path class="cls-46" d="M168.85,420.2s-9.17,39.13-10.64,44.74-18.35,8.55-24.7,6.69c0,0,10.16-47.44,13.15-52.64S168.85,420.2,168.85,420.2Z"/>
                        <path class="cls-53" d="M166.79,427.27s-8.1-.9-11.07-1.41c-7-1.18-10.14-3-10.14-3a37.46,37.46,0,0,0,1.27-4.18c-.42-1.62,21.33,3.44,21.33,3.44Z"/>
                      </g>
                      <g>
                        <path class="cls-48" d="M161.76,450.28a34.59,34.59,0,0,1-23-1.82l-6.13,25s20.51,1.43,24.16-3.7Z"/>
                        <path class="cls-49" d="M165.63,473s-.72-7.63-8-7.2-12.68-1.79-15.34,2.1.26,6.1-8.62,3.75l.17-3.05s-4.52-1.38-5.49,1.53-1.24,8.74-2.64,11.65-1.82,4.72,0,5.41,28.78,14.67,52.56,6C178.23,493.21,192.41,475.72,165.63,473Z"/>
                        <path class="cls-49" d="M171.48,474s-12-1.52-16.8,9.3a15.7,15.7,0,0,0-1.45,5.83"/>
                        <path class="cls-50" d="M125.24,482.59s19,8.16,27.07,9.68,27.41-1.16,27.92-2.23-2,3.17-2,3.17-10.58,4.12-25.43,2.22a91.26,91.26,0,0,1-27.13-8.26S122.85,486.34,125.24,482.59Z"/>
                        <path class="cls-51" d="M165.63,473s-10-1.1-12.44,4.73,4.22,1.28,4.22,1.28,3.58-5.72,12.59-5.11C170,473.88,169.43,472,165.63,473Z"/>
                        <path class="cls-51" d="M165,470.42s-8.77-1.31-11.15,2.85,0,3.32,0,3.32,2.53-4.15,11.82-3.61Z"/>
                        <path class="cls-52" d="M162.48,446.94s-16.57,3.11-23.21-1.28l-.94,4s16.42,3,23.26,1.05Z"/>
                      </g>
                    </g>
                    <path class="cls-54" d="M180.31,428s14.39,4.14,28.78-1.32c0,0,1.87-3.55,2.36-17.72s.28-31.74-.1-36.13L205.26,363,143,367.27s-2.63,4-2.45,8"/>
                    <path class="cls-54" d="M141.48,370.6a92.84,92.84,0,0,0-3.15,11.32c-1.08,5.54-2.63,30.87-4,35s7.75,11.91,24.47,14.46,23.36-3.21,23.58-5S186.18,396,186.18,396"/>
                    <path class="cls-55" d="M207,357.88l4.9,1.93v12c-6.42,3.85-12.61,4.78-19.09,6.28-4.83,1.11-7.44,1.07-12,1.25C165,380,146.52,374.08,141,372l1.14-6.88c7.82,1.38,20.5.53,33.83-.86,9.84-1,19.44-2.37,26.21-3.39C205.34,360.4,207.93,358.49,207,357.88Z"/>
                  </g>
                  <path class="cls-54" d="M172,373.17s0,0,0,0c-.13.28-1,6.52-1,6.85,0,0,0,0,0,0l1.84.33a11,11,0,0,1,1.89-.08l.23-6.47A20.18,20.18,0,0,0,172,373.17Z"/>
                  <path class="cls-54" d="M154.85,370.16c-.32-.09-3.57-.22-3.57-.22s-1,6.32-1,6.32l3,.51Z"/>
                  <path class="cls-54" d="M203.89,370.6s.72,4.9.72,5.9c0,0,3.21-.55,3.87-1.49l-.93-6.15S203.77,369.78,203.89,370.6Z"/>
                  <path class="cls-56" d="M262.21,334.16l-5.71,7.58s-13.13-3.41-23.73-5.52c-9.43-1.87-21.3-8.32-30.34-18.74q-1.68-1.92-3.21-4c-9.28-12.78,14.07-13.11,14.07-13.11l4.41,3.9,8.73,7.7S246.48,329.07,262.21,334.16Z"/>
                  <path class="cls-57" d="M217.52,304.9c-3.72,7.5-10.68,10.78-15.09,12.58q-1.68-1.92-3.21-4c-9.28-12.78,14.07-13.11,14.07-13.11Z"/>
                  <path class="cls-48" d="M189.07,271.11s13.24,5.62,27.23,29.88c0,0-4.74,8.76-17.44,17.27L185.15,307.9Z"/>
                  <path class="cls-48" d="M199.81,285.74c7,17.95,8.66,29,8.66,29,7.85,32.56,4.54,52.78,4.54,52.78-25,14.71-72.91,1.5-72.11-1.88,1.85-7.77-1.66-15.95-3-24.16a166.4,166.4,0,0,1-2.31-26.34c2-36,11.73-37.54,20.79-42.65,5.36-3,25-12.16,25-12.16"/>
                  <path class="cls-58" d="M190.9,277.63c-.85,4.43-6.73,7.32-13,7.07-12.2-.5-16.41-8.19-17.86-13.31,3.64-1.61,6.24-2.53,6.24-2.53,16.62-1.24,22.63,3.5,22.63,3.5S191.76,273.21,190.9,277.63Z"/>
                  <g>
                    <path class="cls-59" d="M188.91,260.47a25.89,25.89,0,0,0-1.63,3.16c-2.83,6.57-.63,10.14-.63,10.14-1.23,1.3-2.14,3.85-3.35,4.61-10.6,6.73-20.22-6.54-20.22-6.54l1-4.3,3.1-12.64c5.23-2.61,9.4-2.84,12.62-2A14.9,14.9,0,0,1,188.91,260.47Z"/>
                    <path class="cls-57" d="M186.3,273.57a27.47,27.47,0,0,1-4.73,3.45c-5.78.26-12.7-1.15-17.84-5.28l3.5-16.84c5.23-2.61,9.4-2.84,12.62-2a56.08,56.08,0,0,1,7.43,10.72C184.45,270.2,186.3,273.57,186.3,273.57Z"/>
                  </g>
                </g>
                <g>
                  <path class="cls-54" d="M183.78,279.73c-.93-.17-4.35-1.82-10.21,1.3s3,8.52,3,8.52l6.82-1.15S191.57,281.18,183.78,279.73Z"/>
                  <path class="cls-48" d="M176.58,279.81c.59.2-10.92,12.34-10.92,12.34s-7-9.81-10-20.5l7.72-4.07S165.08,275.77,176.58,279.81Z"/>
                  <g>
                    <path class="cls-54" d="M173.24,324.69c.22.44.43.87.66,1.28h0c7,13.15,16.21,18.92,16.21,18.92a75.13,75.13,0,0,0,5.3-9.72,44.17,44.17,0,0,0,1.65-4.24,17.49,17.49,0,0,0,1.08-5.26c-.32-1.71-.68-3.35-1-4.93s-.7-2.89-1.06-4.25a105.48,105.48,0,0,0-3.35-10.27c-.58-1.5-1.16-2.9-1.74-4.19-3.69-8.28-7-12.08-6.94-12.71.06-1.81-7.53-.13-7.53-.13a59.1,59.1,0,0,1,.1,9c-.06,1-.13,2.07-.21,3.12-.23,3-.57,6.15-.94,9.07-.13,1-.26,2-.39,3-.49,3.55-1,6.63-1.34,8.68C173.42,323.72,173.24,324.69,173.24,324.69Z"/>
                    <path class="cls-60" d="M176.36,301.36a54.62,54.62,0,0,1,15.86,4.89c-.58-1.51-1.24-3.06-1.81-4.35a62.83,62.83,0,0,0-13.84-3.66C176.51,299.26,176.44,300.31,176.36,301.36Z"/>
                    <path class="cls-60" d="M175.45,313.6c5.84,1.39,15.52,4.06,21.21,7.21-.34-1.47-.76-3.17-1.13-4.53a79.64,79.64,0,0,0-19.68-5.78C175.71,311.52,175.58,312.64,175.45,313.6Z"/>
                    <path class="cls-60" d="M173.69,324.63c.22.43.45,1,.68,1.4h0c5.78,1.67,14.78,4.64,20.69,8.91a42.46,42.46,0,0,0,1.61-4.2,114.93,114.93,0,0,0-22.59-8.59C173.81,323.78,173.69,324.63,173.69,324.63Z"/>
                  </g>
                  <path class="cls-48" d="M189.38,265.8c.73.52,6.86,4.89,7.17,7.73S193.81,291,193.81,291l-12.59-11.43a38.1,38.1,0,0,0,7-9.76Z"/>
                </g>
                <g>
                  <path class="cls-59" d="M220.53,235.65c-3.75,7-11.11,9.78-16.89,7s-3.46-6.6.29-13.58,3.88-6.16,9.83-8.76C226.78,214.66,224.28,228.68,220.53,235.65Z"/>
                  <g>
                    <path class="cls-57" d="M214.74,233.85s2.66-10.92,5.89-10.52A34.65,34.65,0,0,0,214.74,233.85Z"/>
                    <path class="cls-57" d="M215.62,231.54s3.11.66,3.09,4.78C218.71,236.32,219.83,231.6,215.62,231.54Z"/>
                  </g>
                  <path class="cls-59" d="M206.82,190.23c-23-13.52,8.23-30.22-22.69-30.12-30,.09-47.67,14.93-48.72,40.82-.49,12,4.18,23.11,4.11,23.76C136,255,160.1,270.47,178.13,272.9c8.19,1.1,17.22-3.23,24.65-8.21,6.64-4.45,17.81-17.52,15.83-38.62C218.55,225.42,226,201.51,206.82,190.23Z"/>
                  <path class="cls-57" d="M154.21,188.62s6.32,8.87,40,8.84l-.89-4.43s1.94,6.19,22.58,9.85l2.14,23.92,5.59-49.91-71-5.79-11,10.91.37,13.25s-5.66,24.88-4.61,33.89l1.25.62c4.36-5.67,5.86-12.6,7.41-19.43h0S152.84,213.17,154.21,188.62Z"/>
                  <path class="cls-61" d="M151.59,182s-3.58,10.34,41.47,13c0,0-1.16-.53-4.95-10.91,4.94,12.8,16.63,13.18,25.17,15.87l3.82-13,1,39.91s4-11.92,5.19-16.78c0,0,4.31-13.54,2.28-22.33a45.39,45.39,0,0,1,2.57,8.41s12.63-26.53-5.73-35.88c0,0-2.33-.89,2,.11,0,0-16.38-15.69-43-16.87-13.9-.61-23.45-.06-35.58,9.31a15.18,15.18,0,0,0-14,9.34s4-1.78,6.25-1.61c0,0-10.48,4.48-14.28,24-3.59,18.48-3.33,34.51,14.33,45.23,0,0,7.12-10.56,5.14-27.09L147,209S154.47,204,151.59,182Z"/>
                  <path class="cls-59" d="M142.38,238.07c-7.35,4.8-13,0-15.45-7.14s-1.73-17.1,7.38-14.88a13.89,13.89,0,0,1,7.7,9.18"/>
                  <g>
                    <path class="cls-57" d="M140.43,231.54s-6.21-10.12-10.11-9A39.73,39.73,0,0,1,140.43,231.54Z"/>
                    <path class="cls-57" d="M138.6,229.19a4.24,4.24,0,0,0-2.55,5.33S133.4,230.13,138.6,229.19Z"/>
                  </g>
                </g>
                <g>
                  <g>
                    <path class="cls-62" d="M182.3,239.14c6,6,12,1,12.2-1.72,0,0,.44-2.88-2.65-5.82s-1.48-10.92-1.48-10.92"/>
                    <path class="cls-63" d="M182.33,239.11a10.69,10.69,0,0,0,3.08,2.09,6.91,6.91,0,0,0,3.61.52,6.77,6.77,0,0,0,3.32-1.42,4.56,4.56,0,0,0,1.85-2.89v0a6.48,6.48,0,0,0-1.29-4,13.51,13.51,0,0,0-1.42-1.65,5.43,5.43,0,0,1-1.21-2,12.65,12.65,0,0,1-.56-4.55,21.68,21.68,0,0,1,.62-4.48h.07a30.49,30.49,0,0,0-.22,4.47,13.45,13.45,0,0,0,.74,4.31,5.14,5.14,0,0,0,1.1,1.76,10.62,10.62,0,0,1,1.51,1.75,7,7,0,0,1,1.27,4.49v0a5.11,5.11,0,0,1-2.16,3.26,7.3,7.3,0,0,1-3.58,1.4,7.19,7.19,0,0,1-3.74-.69,10.54,10.54,0,0,1-3-2.25Z"/>
                  </g>
                  <path class="cls-64" d="M176.3,201.12s.29-2.87-4.2-3-10.72,4.38-11.26,7.47C160.84,205.57,170,199.24,176.3,201.12Z"/>
                  <path class="cls-64" d="M193.63,204a4.08,4.08,0,0,1,4.4-2.32c3.38.35,7.56,4.38,7.65,6.74C205.68,208.46,198.52,203.29,193.63,204Z"/>
                  <g>
                    <path class="cls-65" d="M167,243.33c1.68,3.63,7.19,15.14,16.34,16.88,5.52,1.06,8.52-3.34,11.34-6.49.74-.81,1.43-1.67,2.13-2.53h0c.36-.44.71-.87,1.07-1.29a27.3,27.3,0,0,1,3-3.17h0c.26-.22.52-.44.79-.65l.33-.24s-8.47,4.25-32.42-2.72l-2-.73-.78-.3-.44-.16S166.61,242.45,167,243.33Z"/>
                    <path class="cls-66" d="M191.88,255.45a6.31,6.31,0,0,0-5.33-1.61,12.41,12.41,0,0,0-9,.88S184.94,260.36,191.88,255.45Z"/>
                    <path class="cls-67" d="M169.35,243.69c9.26,8.86,17.18,10.11,22.84,8.86,5.93-1.32,3.33-5.2,7.23-5.14a10.59,10.59,0,0,0,2.27-1.34l.33-.24s-8.47,4.25-32.42-2.72l-.07,0Z"/>
                    <path class="cls-68" d="M167,243.33c1.68,3.63,7.19,15.14,16.34,16.88,5.52,1.06,8.52-3.34,11.34-6.49C185.26,260.78,177.74,258.27,167,243.33Z"/>
                    <path class="cls-68" d="M167.63,242.38c17.71,10,28.77,6.69,33.07,4.52l.2-.18.1,0c.24-.22.47-.43.69-.61l.33-.24s-8.47,4.25-32.42-2.72Z"/>
                    <path class="cls-66" d="M169.11,240.94s-4.53-.51-3.25,2.91C165.86,243.85,165.33,241.13,169.11,240.94Z"/>
                    <path class="cls-66" d="M201.1,244.55s1.74.6.42,3C201.52,247.51,203.72,245.22,201.1,244.55Z"/>
                  </g>
                  <ellipse class="cls-69" cx="170.42" cy="218.75" rx="8.78" ry="7.9" transform="translate(-52.96 383.06) rotate(-88.42)"/>
                  <ellipse class="cls-64" cx="172.03" cy="222.22" rx="4.98" ry="4.62" transform="translate(-54.86 388.03) rotate(-88.41)"/>
                  <circle class="cls-70" cx="169.46" cy="218.02" r="1.24" transform="translate(-53.84 380.45) rotate(-88.18)"/>
                  <path class="cls-71" d="M163.18,221.48A13.37,13.37,0,0,1,166.8,214a8.06,8.06,0,0,1,2.27-1.63,8.6,8.6,0,0,1,6.68.13,7.69,7.69,0,0,0-5.62-2.38c-4.32.18-6.39,4.55-6.59,5A9.22,9.22,0,0,0,163.18,221.48Z"/>
                  <ellipse class="cls-69" cx="198.18" cy="221.24" rx="8.78" ry="7.22" transform="translate(-28.45 413.24) rotate(-88.42)"/>
                  <ellipse class="cls-64" cx="199.68" cy="224.71" rx="4.94" ry="4.25" transform="translate(-30.46 418.12) rotate(-88.42)"/>
                  <ellipse class="cls-70" cx="197.05" cy="220.51" rx="1.39" ry="1.28" transform="translate(-28.83 411.39) rotate(-88.42)"/>
                  <path class="cls-71" d="M191.45,223.6a10.37,10.37,0,0,1,3-6.5,9.14,9.14,0,0,1,3.46-2,8.68,8.68,0,0,1,5.12,0,6.4,6.4,0,0,0-3.61-2.2c-3.14-.6-5.52,1.71-6,2.13C190.18,218.25,191.38,223.31,191.45,223.6Z"/>
                </g>
                <g>
                  <path class="cls-56" d="M254.84,341.31c7.11,5,10.32,5.83,17.31,6.63,6.76.76,8.79,0,8.79,0l1.75-.59a1,1,0,0,0,.07-1.87c-.55-.32-1.1-.42-.85-.38,5.71.86,7.61-1.72,7.61-1.72,3.21-1.79,1.12-4.11,1.12-4.11,4-1.81.34-3.36.34-3.36-2.85-1-12.17.08-16.55-.72s-8.94-5.46-8.94-5.46-5.36-2.59-9.46,1.39"/>
                  <path class="cls-56" d="M291,339.21a36.35,36.35,0,0,1-17.19-1.08"/>
                  <path class="cls-56" d="M289.52,343.38s-6.48.43-16.82-2.35"/>
                  <path class="cls-56" d="M281.91,345.1a33.66,33.66,0,0,1-9.76-1.72"/>
                  <path class="cls-56" d="M273.41,335s1.87,5.59-4,10.88"/>
                </g>
                <g>
                  <g>
                    <path class="cls-72" d="M282.14,349.83l31.09-12.46-26.82-8.89-35.88,16.74Z"/>
                    <path class="cls-73" d="M251.67,345l30.89,4.59c1-1.71.52-7.88,0-9.49l-30.9-4.72A39.71,39.71,0,0,1,251.67,345Z"/>
                    <path class="cls-74" d="M314.13,340.71l1.15-9.28-32.92,8.64c1.55,3.37.61,9.18.36,9.53Z"/>
                    <path class="cls-72" d="M250.93,335.49l31.47,4.62,31.73-8.86-29.7-3.19Z"/>
                  </g>
                  <path class="cls-75" d="M276.56,347.48l1.35-1.69,2,1.78s-.3-5.47.63-5.85c-.16,0-3.26-.61-3.41-.57C276.08,342,276.56,347.48,276.56,347.48Z"/>
                </g>
                <path class="cls-56" d="M253.59,333.33s4.46-5.9,10.6-7.05,11.95.42,15.88-1.3c0,0,3,5.7-7.65,5.57a25.24,25.24,0,0,0-6.66.88"/>
                <g>
                  <path class="cls-56" d="M142.61,325.42s-1.59,11,1.51,16.69c2.47,4.52,19,15.2,27.77,19.75,2.15,1.12,10.31,4,12,2.28l3.8-6.85,5.2-.5-32-16.35-1.34-19.92S143,318.76,142.61,325.42Z"/>
                  <path class="cls-48" d="M163.51,295.65s.4,19.72,2,29.1c0,0-2.77,3.47-15.58,4.62s-12.3-1.88-12.3-1.88-2-32.61,7.06-44.81"/>
                </g>
                <g>
                  <path class="cls-76" d="M185.6,362.22a6.91,6.91,0,0,1-1.31-.15,7.91,7.91,0,0,1-1.24-.35,6.57,6.57,0,0,1-2.16-1.29,6.24,6.24,0,0,0,2.27.93,7.39,7.39,0,0,0,2.38.12Z"/>
                  <path class="cls-56" d="M203.7,352.06c-5-5.9-9.68-1.72-9.68-1.72-6.89-4.86-13.31,0-13.31,0-6.15-6.55-10.69-2.7-10.86-.72s5,1.82,5.75,4.69c.63,2.44,2.31,6.81,2.31,6.81.52,3.54,2.49,4.22,4.66,6.3s5.68,2.12,6.8.36a16.32,16.32,0,0,1,1.89-2.43s3,2.09,4.83,1.87,3.27-3,3.27-3,1.71,1.26,3.11.49a5.86,5.86,0,0,0,2.14-2.23"/>
                  <line class="cls-56" x1="193.31" y1="360.93" x2="194.04" y2="361.63"/>
                  <g>
                    <g>
                      <path class="cls-77" d="M172.22,346.42c19.83-2,39.57-3.57,59.73-5.46a6.89,6.89,0,0,1,1.94,2.74c-9.51,1.14-44.54,4.75-53.67,5.89a25.16,25.16,0,0,0-7.49-2.86Z"/>
                      <g>
                        <path class="cls-78" d="M202.8,343.56a17.79,17.79,0,0,1,1.35,3.38l-3.21.35a13.08,13.08,0,0,0-1.65-3.42Z"/>
                        <path class="cls-78" d="M183,345.36a19,19,0,0,1,1.5,3.73l-3.2.37a15.38,15.38,0,0,0-1.79-3.76Z"/>
                        <path class="cls-78" d="M220.08,342a16.33,16.33,0,0,1,1.47,3l-3.27.36a12.26,12.26,0,0,0-1.88-3.06Z"/>
                      </g>
                    </g>
                    <g>
                      <path class="cls-79" d="M227.19,327.29l-24-4.18L150.1,325.6l.06.89.72,1.1L167,331.42l2.15.05Z"/>
                      <path class="cls-80" d="M150.11,325.77l19.08,5.71.18,5.13c-6.21-2.37-12.07-4.77-18.28-7.14C150.42,329.21,150.23,327.62,150.11,325.77Z"/>
                      <path class="cls-81" d="M150.37,328.13l4.55,1.94-3.65-.53-.18-.07c-.35-.14-.57-.63-.72-1.34Zm18.93,6.52-5.1-1.11,5.13,2Z"/>
                    </g>
                    <polygon class="cls-82" points="201.85 318.85 196.98 319.27 201.37 319.16 201.85 318.85"/>
                    <g>
                      <polygon class="cls-83" points="145.28 349.47 150.27 349.11 168.26 359.2 164.63 361.1 145.6 350.75 145.28 349.47"/>
                      <path class="cls-84" d="M146.14,340.7a10.72,10.72,0,0,1,1,9.09l19,9.18s2.86-5.63-.73-10.22l-17.1-7.13Z"/>
                      <polygon class="cls-83" points="166.44 348.12 231.95 340.96 198.39 334.71 144.8 337.74 145.4 338.5 166.44 348.12"/>
                      <path class="cls-85" d="M146.14,340.7l0,.05v0h0l0,0,0,0h0v0l0,.06,0,.07h0l0,0v0h0v0l0,0,0,0v0l0,0v0h0l0,.06h0v0l0,0,0,0,0,0,0,0v0h0l0,0,0,0h0l0,.11.05.1h0l0,.09h0l.05.11,0,.09v0h0l0,.09h0v0l0,.09h0l.05.12h0l0,.1h0l.05.13,0,.13v0c0,.08.05.16.08.25,5,2.05,10.19,4.39,17.37,7.48a6.93,6.93,0,0,1,.84,2.31l-8.86-4,9,5.16a17.88,17.88,0,0,1,.08,1.94l-5.09-2.27,5,3.23a14.86,14.86,0,0,1-.2,1.6l.73.35h0v0h0v0h0v0h0v0h0v-.06h0v-.07h0v-.08h0v0l0,0v0h0v-.17h0l0-.06,0,0,0-.07v-.09h0v-.1h0v-.07l0,0a9.24,9.24,0,0,0,.28-1.05v0l0-.1,0-.06h0l0-.1h0v-.05l0-.12v0h0v0l0-.1v-.06l0-.14v-.05l0-.15h0l0-.16v0l0-.16v-.05a.76.76,0,0,0,0-.15v-.22c0-.06,0-.11,0-.17v-1.06h0c0-.06,0-.11,0-.17v-.06a.88.88,0,0,0,0-.16v-.06c0-.05,0-.1,0-.15v0h0v0l0-.18v0l0-.19v0c0-.06,0-.13,0-.19h0c0-.06,0-.12,0-.18v0c0-.06,0-.13,0-.19l0,0a1.46,1.46,0,0,0,0-.2h0l-.06-.19v0l-.06-.19,0-.05c0-.07-.05-.13-.07-.19v0l-.07-.18v0l-.09-.19v0a1.86,1.86,0,0,0-.1-.2v0l-.09-.18,0,0-.1-.19,0,0-.11-.19,0,0-.12-.18h0a2.14,2.14,0,0,0-.13-.19l0,0-.13-.18,0,0-.15-.19-17.1-7.13-2.22-.92Zm21.08,14.48V355a.76.76,0,0,1,0,.15Zm-.09-2.7,0-.19c0,.06,0,.13,0,.19Zm-19.49-7.59q-.06-.42-.15-.81l2.85,1.73-2.7-.92Zm.1,2.28,4.71,2.27-4.82-1.38C147.68,347.76,147.72,347.46,147.74,347.17Z"/>
                      <path class="cls-86" d="M166.06,347.08C188,344.69,209.71,343,232,341c3.3,2.63,4,10.55.87,13.78l-36,4.41-5,.61L165.74,363C166.84,357.38,167.73,352.86,166.06,347.08Z"/>
                      <path class="cls-87" d="M165.74,346.91s5.35,9.65-.42,16l-20-11.07.22-2,19.36,9.57a12.25,12.25,0,0,0,.11-10l-19.84-8.67,0-2.67Z"/>
                      <g>
                        <path class="cls-88" d="M202.8,343.56a18.61,18.61,0,0,1,2.06,7.63,21.52,21.52,0,0,1-.82,7.07l-3.46.43a18.71,18.71,0,0,0,1.1-7.33,14.87,14.87,0,0,0-2.39-7.49Z"/>
                        <path class="cls-89" d="M183,345.36a20.85,20.85,0,0,1,2.33,8.76,19.52,19.52,0,0,1-.58,6.16l-3.42.45a18.25,18.25,0,0,0-1.82-15Z"/>
                        <path class="cls-90" d="M220.08,342a16.13,16.13,0,0,1,2.4,7.63,18.12,18.12,0,0,1-.82,6.43l-3.52.44a15.56,15.56,0,0,0,1.17-6.69,12.73,12.73,0,0,0-2.91-7.48Z"/>
                      </g>
                    </g>
                    <g>
                      <polygon class="cls-91" points="171.53 334.67 233.16 328.99 233.69 328.42 203.19 323.11 149.6 325.62 150.88 327.59 171.53 334.67"/>
                      <polygon class="cls-92" points="171.33 332.12 169.92 334.02 170.26 345 172.15 347.17 234.54 341.52 233.69 328.42 171.33 332.12"/>
                      <path class="cls-93" d="M233.83,330.6l-8.32,1,8.38-.08-.06-.95Zm-62.19,10.5,15.94-.67-16.15,2.12.21-1.45Zm-.35-6,22.72-.66-22.92,2,.2-1.33ZM234.05,334l-45,3.85,45.15-2.16-.11-1.69Zm.3,4.55-25.89,2.81,26-1.66Z"/>
                      <polygon class="cls-94" points="171.33 332.12 171.98 344.1 172.15 347.17 150.64 338.31 149.6 325.62 171.33 332.12"/>
                      <path class="cls-95" d="M149.79,327.88l5.13,2.19-5-.73-.12-1.46Zm22.1,14.61L160,337.92l11.8,3.17.07,1.4ZM150.54,337l8.79,3-8.88-4.11.09,1.09Zm-.46-5.54,12,4.65-11.88-3-.14-1.63Zm21.41,3.64-7.29-1.59,7.36,2.88Z"/>
                    </g>
                  </g>
                  <g>
                    <path class="cls-56" d="M204.61,362.46a4.38,4.38,0,0,0,4-1.48c.7-.81,3.36-5.51.62-8.22-2-1.94-3-.8-3-.8"/>
                    <path class="cls-56" d="M184.9,364.48s2.49-9.18,6.52-9.94c4.24-.79,2.05,5.89-.07,10.83,0,0-2.15,3.88-5.27,3.69"/>
                    <path class="cls-56" d="M201.6,354.67s2.32-4,4.06-4.32,3.93.38,3.05,3.85a23.85,23.85,0,0,1-4.86,9.35"/>
                    <path class="cls-56" d="M197.55,366.38s4.45-5.58,5.65-8.9c1-2.7-1.91-3.08-3.91-2.55-3,.8-6,8.44-6,8.44"/>
                  </g>
                </g>
                <path class="cls-96" d="M184.9,406.34s6.9-2.28,8.41-12.46"/>
                <path class="cls-96" d="M150.45,375.25s-8.2,30.16-8.25,50.94"/>
                <path class="cls-96" d="M146.76,390.91s8.4-1.75,15-13.23"/>
              </g>
            </g>
          </g>
        </g>
      </g>
    </g>
  </g>
</svg>
