<svg id="Layer_1" data-name="Layer 1" xmlns="http://www.w3.org/2000/svg" viewBox="0 0 872.93 169.53"><defs><style>.cls-1{fill:#3172c2;stroke:#fff;stroke-miterlimit:10;stroke-width:2px;}.cls-2{fill:#fff;}</style></defs><rect class="cls-1" x="70.91" y="45.69" width="731.11" height="78.15" rx="39.07"/><path class="cls-2" d="M159.9,97l-3.28-8.64H146L142.62,97h-7l12.51-31.41h7.11L167.46,97Zm-8.64-23.67-3.46,9.72h7.11Z"/><path class="cls-2" d="M171.06,97V65.65h6V97Z"/><path class="cls-2" d="M209.09,94.82a3.39,3.39,0,0,1-1.2,1.69,3.54,3.54,0,0,1-2,.51,3.34,3.34,0,0,1-2.07-.55,3.87,3.87,0,0,1-1.17-1.83L198.78,83l-4,11.9a2.88,2.88,0,0,1-1.15,1.64,3.92,3.92,0,0,1-2.14.51,5.69,5.69,0,0,1-.94-.07,2.63,2.63,0,0,1-.86-.28,2.46,2.46,0,0,1-.76-.7,4.77,4.77,0,0,1-.63-1.28L182,77.22h6.07l2.61,8c.09.29.19.64.29,1s.22.78.34,1.16.26.91.41,1.41a8.37,8.37,0,0,1,.27-1.1c.09-.32.18-.66.29-1s.2-.71.29-1l2.52-8.43h7.29l2.7,8.82a7.25,7.25,0,0,0,.25.86c.1.31.2.61.29.9a5.56,5.56,0,0,1,.27,1c.09-.29.18-.6.27-.92.15-.59.32-1.14.5-1.67l2.65-9h6.3Z"/><path class="cls-2" d="M233.61,97c0-.21,0-.47-.05-.77s-.05-.52-.07-.85,0-.68-.07-1a7.06,7.06,0,0,1-2.93,2.32,9.43,9.43,0,0,1-3.84.79A7.12,7.12,0,0,1,220.9,95c-1.36-1.62-2.05-3.93-2.05-6.93q0-5.44,3.31-8.39t9.42-3c.67,0,1.28,0,1.82,0s1.1.09,1.65.16,1.11.17,1.68.29,1.22.29,1.92.5V90.54c0,.69,0,1.42,0,2.18s.07,1.46.13,2.09S239,96.3,239,97Zm-.94-14.67a9.45,9.45,0,0,0-1.42-.23c-.43,0-.83,0-1.19,0a4.78,4.78,0,0,0-3.85,1.6,6.54,6.54,0,0,0-1.37,4.43,4.4,4.4,0,0,0,.82,2.88A2.88,2.88,0,0,0,228,92a4.09,4.09,0,0,0,1.8-.41,4.56,4.56,0,0,0,1.49-1.14,5.44,5.44,0,0,0,1-1.76,6.71,6.71,0,0,0,.37-2.27Z"/><path class="cls-2" d="M262.36,103.49a9.74,9.74,0,0,1-2,4.14A7.06,7.06,0,0,1,257,109.8a17.22,17.22,0,0,1-5,.63,14.91,14.91,0,0,1-2.89-.29,31,31,0,0,1-3-.79v-4.49l2.82.19c.89,0,1.77.07,2.64.07a6.46,6.46,0,0,0,2.41-.41,3.64,3.64,0,0,0,1.67-1.37,6.38,6.38,0,0,0,.95-2.5,20.53,20.53,0,0,0,.3-3.82V94.59A7.73,7.73,0,0,1,251.25,97a6.59,6.59,0,0,1-2.59-.53A6.08,6.08,0,0,1,246.53,95a7.6,7.6,0,0,1-1.44-2.37,8.67,8.67,0,0,1-.54-3.15c0-1,0-2.07,0-3s0-1.93,0-2.9,0-2,0-3-.06-2.13-.15-3.3h6c.09,1.19.14,2.3.16,3.32s0,2,0,2.88,0,1.76,0,2.59,0,1.66,0,2.47A3.7,3.7,0,0,0,251.2,91a2.41,2.41,0,0,0,1.9.76,3.64,3.64,0,0,0,2.76-1.24A4.72,4.72,0,0,0,257,87.13V77.22h6V97A27.29,27.29,0,0,1,262.36,103.49Z"/><path class="cls-2" d="M284.15,91.53a5.68,5.68,0,0,1-1.91,4.5,7.89,7.89,0,0,1-5.36,1.66,22.49,22.49,0,0,1-4.57-.45,13.4,13.4,0,0,1-3.6-1.21l.77-4.59a15.31,15.31,0,0,0,6.84,2,2,2,0,0,0,1.41-.42,1.33,1.33,0,0,0,.43-1,1.68,1.68,0,0,0-.34-1.1,5,5,0,0,0-1.64-1.06A26.44,26.44,0,0,1,273,88.29a10.08,10.08,0,0,1-2.16-1.69,5.68,5.68,0,0,1-1.22-1.87,6.32,6.32,0,0,1-.38-2.25,5.06,5.06,0,0,1,2.18-4.38,9.52,9.52,0,0,1,5.68-1.56,17,17,0,0,1,3.35.3A15.15,15.15,0,0,1,283.82,78l-.71,4.55a11,11,0,0,0-3.1-1.24,14.22,14.22,0,0,0-2.95-.34,2,2,0,0,0-1.44.39,1.33,1.33,0,0,0-.38,1,1.49,1.49,0,0,0,.61,1.24,13,13,0,0,0,2.4,1.23A26.46,26.46,0,0,1,281,86.38a9.11,9.11,0,0,1,1.84,1.53,4.73,4.73,0,0,1,1,1.66A6.06,6.06,0,0,1,284.15,91.53Z"/><path class="cls-2" d="M318.12,91.53a5.68,5.68,0,0,1-1.91,4.5,7.87,7.87,0,0,1-5.36,1.66,22.39,22.39,0,0,1-4.56-.45A13.6,13.6,0,0,1,302.68,96l.77-4.59a15.34,15.34,0,0,0,6.84,2,2,2,0,0,0,1.42-.42,1.36,1.36,0,0,0,.42-1,1.74,1.74,0,0,0-.33-1.1,5.18,5.18,0,0,0-1.65-1.06A27.22,27.22,0,0,1,307,88.29a10.6,10.6,0,0,1-2.16-1.69,5.65,5.65,0,0,1-1.21-1.87,6.1,6.1,0,0,1-.39-2.25,5.06,5.06,0,0,1,2.18-4.38,9.54,9.54,0,0,1,5.68-1.56,17.05,17.05,0,0,1,3.36.3A15.15,15.15,0,0,1,317.8,78l-.72,4.55A10.82,10.82,0,0,0,314,81.29a14.31,14.31,0,0,0-3-.34,2,2,0,0,0-1.43.39,1.34,1.34,0,0,0-.39,1,1.5,1.5,0,0,0,.62,1.24,13.19,13.19,0,0,0,2.39,1.23A27.83,27.83,0,0,1,315,86.38a9.39,9.39,0,0,1,1.84,1.53,5,5,0,0,1,1,1.66A6.06,6.06,0,0,1,318.12,91.53Z"/><path class="cls-2" d="M336.43,97V85.83a6.25,6.25,0,0,0-.2-1.74,2.3,2.3,0,0,0-.58-1,1.76,1.76,0,0,0-.82-.45,4.37,4.37,0,0,0-1-.11,2.66,2.66,0,0,0-1.49.46,4.48,4.48,0,0,0-1.27,1.23,7.39,7.39,0,0,0-1.24,4.08V97h-6V66.19h5.94V79.47a6.87,6.87,0,0,1,2.48-1.73,8.21,8.21,0,0,1,3-.52,9.88,9.88,0,0,1,2.6.35,6.56,6.56,0,0,1,2.26,1.12,5.78,5.78,0,0,1,1.62,2,7.12,7.12,0,0,1,.62,3.11V97Z"/><path class="cls-2" d="M363.52,97c0-.21,0-.47,0-.77s-.05-.52-.07-.85,0-.68-.07-1a7.06,7.06,0,0,1-2.93,2.32,9.38,9.38,0,0,1-3.83.79A7.1,7.1,0,0,1,350.82,95q-2.06-2.43-2.06-6.93c0-3.63,1.11-6.43,3.31-8.39s5.35-3,9.42-3c.67,0,1.28,0,1.83,0s1.09.09,1.64.16,1.11.17,1.69.29,1.21.29,1.91.5V90.54c0,.69,0,1.42.05,2.18s.07,1.46.13,2.09.12,1.49.18,2.21Zm-.94-14.67a9.25,9.25,0,0,0-1.42-.23c-.43,0-.83,0-1.19,0a4.8,4.8,0,0,0-3.85,1.6,6.6,6.6,0,0,0-1.37,4.43,4.4,4.4,0,0,0,.82,2.88,2.88,2.88,0,0,0,2.34,1,4.17,4.17,0,0,0,1.81-.41,4.53,4.53,0,0,0,1.48-1.14,5.44,5.44,0,0,0,1-1.76,6.47,6.47,0,0,0,.37-2.27Z"/><path class="cls-2" d="M388.72,82.75q-.63-.14-1-.18a6.65,6.65,0,0,0-.81,0A4.57,4.57,0,0,0,383,84.29a8.62,8.62,0,0,0-1.33,5.22V97h-6V84c0-.73,0-1.37,0-1.91s-.06-1-.12-1.52-.14-.94-.24-1.39-.25-1-.43-1.57h5.68c.09.37.18.69.25,1a4.57,4.57,0,0,1,.17.74c0,.23.06.48.09.74a8.39,8.39,0,0,1,0,1,10.05,10.05,0,0,1,2.56-2.94,4.87,4.87,0,0,1,2.85-.85,4.48,4.48,0,0,1,1.06.11,12.43,12.43,0,0,1,1.19.44Z"/><path class="cls-2" d="M408.66,82.66a5.1,5.1,0,0,1-.8,2.79,6.75,6.75,0,0,1-2.26,2.14A12.24,12.24,0,0,1,402.09,89a19.47,19.47,0,0,1-4.58.5l-.54,0c-.21,0-.45,0-.73,0a4.13,4.13,0,0,0,1.35,2.68,4.25,4.25,0,0,0,2.91,1,13.36,13.36,0,0,0,6.63-2v4.73a13.14,13.14,0,0,1-3.27,1.42,13.84,13.84,0,0,1-3.53.42,11.62,11.62,0,0,1-4.07-.67,8.26,8.26,0,0,1-3.08-2,8.65,8.65,0,0,1-1.94-3.06,11.28,11.28,0,0,1-.67-4,12.4,12.4,0,0,1,.79-4.52,10.39,10.39,0,0,1,2.2-3.53,9.7,9.7,0,0,1,3.4-2.3,11.4,11.4,0,0,1,4.36-.81,8.21,8.21,0,0,1,5.33,1.62A5.27,5.27,0,0,1,408.66,82.66Zm-6,.45a1.54,1.54,0,0,0-.61-1.23,2.33,2.33,0,0,0-1.56-.52,3.55,3.55,0,0,0-2.57,1.06,5,5,0,0,0-1.38,2.9,3.87,3.87,0,0,0,.72.09h.66Q402.67,85.41,402.67,83.11Z"/><path class="cls-2" d="M429,97V81.49h-4V77.22h4v-5h5.9v5H440v4.27h-5.08V97Z"/><path class="cls-2" d="M461.94,87.06a11.45,11.45,0,0,1-.74,4.26,8.62,8.62,0,0,1-2.11,3.11,9.06,9.06,0,0,1-3.27,1.93,13.92,13.92,0,0,1-8.47,0,9.06,9.06,0,0,1-3.27-1.93A8.79,8.79,0,0,1,442,91.32a11.24,11.24,0,0,1-.76-4.26,11.06,11.06,0,0,1,.74-4.16,8.5,8.5,0,0,1,5.36-5,14.32,14.32,0,0,1,8.53,0,9,9,0,0,1,3.27,1.88,8.5,8.5,0,0,1,2.11,3.1A11.31,11.31,0,0,1,461.94,87.06Zm-6,0a4.47,4.47,0,0,0-1.21-3.34,4.42,4.42,0,0,0-3.25-1.19,4.18,4.18,0,0,0-3.2,1.19,4.73,4.73,0,0,0-1.11,3.34,5,5,0,0,0,1.09,3.44,4.09,4.09,0,0,0,3.22,1.21,4.4,4.4,0,0,0,3.3-1.19A4.79,4.79,0,0,0,456,87.06Z"/><path class="cls-2" d="M484.93,103.49a9.75,9.75,0,0,1-2,4.14,7,7,0,0,1-3.41,2.17,17.31,17.31,0,0,1-5,.63,15,15,0,0,1-2.9-.29c-1-.2-2-.46-3-.79v-4.49l2.82.19c.89,0,1.77.07,2.65.07a6.5,6.5,0,0,0,2.41-.41,3.69,3.69,0,0,0,1.67-1.37,6.53,6.53,0,0,0,.95-2.5,21.53,21.53,0,0,0,.29-3.82V94.59A7.71,7.71,0,0,1,473.82,97a6.56,6.56,0,0,1-2.59-.53A6,6,0,0,1,469.09,95a7.6,7.6,0,0,1-1.44-2.37,8.67,8.67,0,0,1-.54-3.15c0-1,0-2.07.05-3s0-1.93,0-2.9,0-2,0-3-.07-2.13-.16-3.3h6c.09,1.19.14,2.3.15,3.32s0,2,0,2.88,0,1.76,0,2.59,0,1.66,0,2.47a3.76,3.76,0,0,0,.66,2.47,2.43,2.43,0,0,0,1.91.76,3.67,3.67,0,0,0,2.76-1.24,4.77,4.77,0,0,0,1.15-3.34V77.22h6V97A27.88,27.88,0,0,1,484.93,103.49Z"/><path class="cls-2" d="M506.71,91.53A5.64,5.64,0,0,1,504.8,96a7.87,7.87,0,0,1-5.36,1.66,22.46,22.46,0,0,1-4.56-.45,13.4,13.4,0,0,1-3.6-1.21l.76-4.59a15.34,15.34,0,0,0,6.84,2A2,2,0,0,0,500.3,93a1.37,1.37,0,0,0,.43-1,1.74,1.74,0,0,0-.34-1.1,5.09,5.09,0,0,0-1.64-1.06,27.43,27.43,0,0,1-3.18-1.62,10.6,10.6,0,0,1-2.16-1.69,5.65,5.65,0,0,1-1.21-1.87,6.1,6.1,0,0,1-.38-2.25A5.05,5.05,0,0,1,494,78.1a9.55,9.55,0,0,1,5.69-1.56,17,17,0,0,1,3.35.3A15.15,15.15,0,0,1,506.39,78l-.72,4.55a10.82,10.82,0,0,0-3.09-1.24,14.23,14.23,0,0,0-3-.34,2,2,0,0,0-1.43.39,1.34,1.34,0,0,0-.39,1,1.5,1.5,0,0,0,.62,1.24,13,13,0,0,0,2.4,1.23,27.57,27.57,0,0,1,2.73,1.56,9.39,9.39,0,0,1,1.84,1.53,4.73,4.73,0,0,1,1,1.66A6.06,6.06,0,0,1,506.71,91.53Z"/><path class="cls-2" d="M540.28,97c0-.21,0-.47,0-.77s-.06-.52-.07-.85,0-.68-.07-1a7.06,7.06,0,0,1-2.93,2.32,9.43,9.43,0,0,1-3.84.79A7.12,7.12,0,0,1,527.57,95q-2.05-2.43-2.05-6.93,0-5.44,3.31-8.39t9.42-3c.67,0,1.28,0,1.82,0s1.1.09,1.65.16,1.11.17,1.68.29,1.22.29,1.92.5V90.54c0,.69,0,1.42,0,2.18s.07,1.46.13,2.09.12,1.49.18,2.21Zm-.94-14.67a9.45,9.45,0,0,0-1.42-.23c-.43,0-.83,0-1.2,0a4.78,4.78,0,0,0-3.84,1.6,6.55,6.55,0,0,0-1.38,4.43,4.4,4.4,0,0,0,.83,2.88,2.87,2.87,0,0,0,2.33,1,4.11,4.11,0,0,0,1.81-.41A4.56,4.56,0,0,0,538,90.43a5.63,5.63,0,0,0,1-1.76,6.71,6.71,0,0,0,.37-2.27Z"/><path class="cls-2" d="M564.71,97V85.78a4.49,4.49,0,0,0-.29-1.82,2.48,2.48,0,0,0-.7-1,1.79,1.79,0,0,0-.85-.4,6,6,0,0,0-.77-.06,4.81,4.81,0,0,0-.94.17,3.22,3.22,0,0,0-1.37.83,5.49,5.49,0,0,0-1.24,1.91,8.68,8.68,0,0,0-.54,3.38V97h-6V83.93a22.25,22.25,0,0,0-.27-3.41,11.08,11.08,0,0,0-.72-2.76h6a7.73,7.73,0,0,1,.38,1,11.57,11.57,0,0,1,.25,1.17,9.33,9.33,0,0,1,3.09-2.07,8.86,8.86,0,0,1,3.35-.67,6.69,6.69,0,0,1,2.62.52,6.23,6.23,0,0,1,2.09,1.47,6.77,6.77,0,0,1,1.39,2.32,8.86,8.86,0,0,1,.51,3.09V97Z"/><path class="cls-2" d="M592.57,97q0-.27-.09-.63t-.09-.72c0-.27-.07-.6-.1-1a8.29,8.29,0,0,1-3,2.23,9.42,9.42,0,0,1-3.57.65,8.85,8.85,0,0,1-3.59-.7,7.93,7.93,0,0,1-2.72-1.93,8.75,8.75,0,0,1-1.76-3A11.25,11.25,0,0,1,577,88a13.28,13.28,0,0,1,.75-4.55,10.67,10.67,0,0,1,2.07-3.57A9.06,9.06,0,0,1,583,77.56a9.66,9.66,0,0,1,4.05-.84,14,14,0,0,1,2,.14,11.49,11.49,0,0,1,2.2.58V65.65h6V90.18c0,.51,0,1.15.07,1.93s.09,1.53.15,2.25.14,1.73.23,2.66Zm-1.31-14.45a6.36,6.36,0,0,0-1.66-.45A13.83,13.83,0,0,0,588,82a4.53,4.53,0,0,0-3.63,1.56A6.29,6.29,0,0,0,583,87.84a4.62,4.62,0,0,0,.93,3.08,3.2,3.2,0,0,0,2.58,1.1,5.4,5.4,0,0,0,1.85-.31,3.47,3.47,0,0,0,1.49-1.08,5.77,5.77,0,0,0,1-2,10.89,10.89,0,0,0,.37-3.09Z"/><path class="cls-2" d="M637.79,85.69a13.28,13.28,0,0,1-.78,4.66,9.77,9.77,0,0,1-5.69,5.86,12.09,12.09,0,0,1-4.52.81,23.24,23.24,0,0,1-4.49-.47,20.84,20.84,0,0,1-4.23-1.28V66.16h6V79.52a7.21,7.21,0,0,1,2.56-1.73,9,9,0,0,1,3.27-.57,8.43,8.43,0,0,1,3.22.6,6.88,6.88,0,0,1,2.5,1.71,7.76,7.76,0,0,1,1.6,2.67A10.1,10.1,0,0,1,637.79,85.69Zm-6,1.08A3.92,3.92,0,0,0,630.9,84a3.27,3.27,0,0,0-2.54-1,4.16,4.16,0,0,0-3.19,1.37,4.22,4.22,0,0,0-.86,1.44,5.22,5.22,0,0,0-.29,1.72V91a6,6,0,0,0,1.42.53,9,9,0,0,0,1.64.12,4.67,4.67,0,0,0,3.47-1.28A4.89,4.89,0,0,0,631.81,86.77Z"/><path class="cls-2" d="M663.08,87.06a11.25,11.25,0,0,1-.74,4.26,8.47,8.47,0,0,1-2.1,3.11A9.06,9.06,0,0,1,657,96.36a13.92,13.92,0,0,1-8.47,0,9.06,9.06,0,0,1-3.27-1.93,8.79,8.79,0,0,1-2.13-3.11,11.05,11.05,0,0,1-.76-4.26,10.87,10.87,0,0,1,.74-4.16,8.56,8.56,0,0,1,2.08-3.09,8.76,8.76,0,0,1,3.27-1.93,14.35,14.35,0,0,1,8.54,0,9,9,0,0,1,3.27,1.88,8.35,8.35,0,0,1,2.1,3.1A11.11,11.11,0,0,1,663.08,87.06Zm-6,0a4.15,4.15,0,0,0-4.46-4.53,4.18,4.18,0,0,0-3.2,1.19,4.69,4.69,0,0,0-1.12,3.34,5,5,0,0,0,1.09,3.44,4.13,4.13,0,0,0,3.23,1.21,4.43,4.43,0,0,0,3.3-1.19A4.79,4.79,0,0,0,657.1,87.06Z"/><path class="cls-2" d="M688.51,87.06a11.45,11.45,0,0,1-.74,4.26,8.62,8.62,0,0,1-2.11,3.11,9.06,9.06,0,0,1-3.27,1.93,13.92,13.92,0,0,1-8.47,0,9.06,9.06,0,0,1-3.27-1.93,8.79,8.79,0,0,1-2.13-3.11,11.24,11.24,0,0,1-.76-4.26,11.06,11.06,0,0,1,.74-4.16,8.5,8.5,0,0,1,5.36-5,14.32,14.32,0,0,1,8.53,0,9,9,0,0,1,3.27,1.88,8.5,8.5,0,0,1,2.11,3.1A11.31,11.31,0,0,1,688.51,87.06Zm-6,0a4.47,4.47,0,0,0-1.21-3.34,4.42,4.42,0,0,0-3.25-1.19,4.18,4.18,0,0,0-3.2,1.19,4.73,4.73,0,0,0-1.11,3.34,5,5,0,0,0,1.09,3.44,4.09,4.09,0,0,0,3.22,1.21,4.4,4.4,0,0,0,3.3-1.19A4.79,4.79,0,0,0,682.52,87.06Z"/><path class="cls-2" d="M706.1,85.32,715.69,97h-7.92l-7.47-9.77V97h-6V65.65h6V83.74l7.29-6.52h8.59Z"/><path class="cls-2" d="M735.08,91.53a5.64,5.64,0,0,1-1.91,4.5,7.87,7.87,0,0,1-5.36,1.66,22.46,22.46,0,0,1-4.56-.45,13.4,13.4,0,0,1-3.6-1.21l.76-4.59a15.34,15.34,0,0,0,6.84,2,2,2,0,0,0,1.42-.42,1.37,1.37,0,0,0,.43-1,1.74,1.74,0,0,0-.34-1.1,5.09,5.09,0,0,0-1.64-1.06,27.43,27.43,0,0,1-3.18-1.62,10.6,10.6,0,0,1-2.16-1.69,5.65,5.65,0,0,1-1.21-1.87,6.1,6.1,0,0,1-.38-2.25,5.05,5.05,0,0,1,2.17-4.38,9.55,9.55,0,0,1,5.69-1.56,17,17,0,0,1,3.35.3A15.15,15.15,0,0,1,734.76,78L734,82.53A10.82,10.82,0,0,0,731,81.29a14.23,14.23,0,0,0-3-.34,2,2,0,0,0-1.43.39,1.34,1.34,0,0,0-.39,1,1.5,1.5,0,0,0,.62,1.24,13,13,0,0,0,2.4,1.23,27.57,27.57,0,0,1,2.73,1.56,9.39,9.39,0,0,1,1.84,1.53,4.73,4.73,0,0,1,1,1.66A6.06,6.06,0,0,1,735.08,91.53Z"/><path class="cls-2" d="M745.72,94.92a2.42,2.42,0,0,1-1,2,3.94,3.94,0,0,1-2.49.79,3.83,3.83,0,0,1-2.5-.85,2.6,2.6,0,0,1-.07-4.12,3.58,3.58,0,0,1,2.39-.83,4,4,0,0,1,2.62.89A2.69,2.69,0,0,1,745.72,94.92Z"/></svg>