<svg xmlns="http://www.w3.org/2000/svg" xmlns:xlink="http://www.w3.org/1999/xlink" width="619.88" height="562.43" viewBox="0 0 619.88 562.43">
  <defs>
    <style>
      .cls-1 {
        fill: none;
      }

      .cls-2 {
        isolation: isolate;
      }

      .cls-3, .cls-78 {
        fill: #fff;
      }

      .cls-4 {
        clip-path: url(#clip-path);
      }

      .cls-5 {
        fill: #c4b7a3;
      }

      .cls-6 {
        fill: #80ddda;
      }

      .cls-7 {
        fill: #89513a;
      }

      .cls-8 {
        fill: #020202;
        opacity: 0.2;
      }

      .cls-36, .cls-8 {
        stroke: #201d1e;
      }

      .cls-10, .cls-118, .cls-14, .cls-23, .cls-25, .cls-26, .cls-27, .cls-28, .cls-29, .cls-31, .cls-32, .cls-33, .cls-36, .cls-37, .cls-50, .cls-8 {
        stroke-miterlimit: 10;
      }

      .cls-52, .cls-53, .cls-54, .cls-55, .cls-56, .cls-57, .cls-58, .cls-59, .cls-9 {
        opacity: 0.3;
      }

      .cls-10 {
        fill: #d8b2a8;
      }

      .cls-10, .cls-118, .cls-26, .cls-27, .cls-31, .cls-32 {
        stroke: #323232;
      }

      .cls-11, .cls-22 {
        fill: #df71e2;
      }

      .cls-11 {
        stroke: #710e7c;
      }

      .cls-11, .cls-12, .cls-13 {
        stroke-linejoin: round;
        stroke-width: 0.75px;
      }

      .cls-12 {
        fill: #686c71;
        stroke: #211f1c;
      }

      .cls-13 {
        fill: #301616;
        stroke: #1c0e0a;
      }

      .cls-14 {
        fill: #fad2c6;
      }

      .cls-14, .cls-25, .cls-28, .cls-29, .cls-33, .cls-50 {
        stroke: #453423;
      }

      .cls-14, .cls-23, .cls-25, .cls-26, .cls-28, .cls-31, .cls-32, .cls-33, .cls-37, .cls-50 {
        stroke-width: 0.5px;
      }

      .cls-15 {
        fill: #c27945;
      }

      .cls-16 {
        opacity: 0.12;
      }

      .cls-17 {
        fill: #d48148;
      }

      .cls-18 {
        fill: #8c663d;
      }

      .cls-19 {
        fill: #a56f41;
      }

      .cls-20 {
        fill: #e89b49;
      }

      .cls-21 {
        fill: #e6b26b;
      }

      .cls-23 {
        fill: #65c6cf;
        stroke: #0a7777;
      }

      .cls-24 {
        fill: #e7b087;
      }

      .cls-25 {
        fill: #e6ae85;
      }

      .cls-26, .cls-48 {
        fill: #a1a1a1;
      }

      .cls-27, .cls-49 {
        fill: #c6c3c2;
      }

      .cls-118, .cls-27 {
        stroke-width: 0.25px;
      }

      .cls-28 {
        fill: #f3d0b5;
      }

      .cls-29, .cls-33 {
        fill: #f9d1c6;
      }

      .cls-118, .cls-30 {
        fill: #db9d8e;
      }

      .cls-31 {
        fill: #fac7b3;
      }

      .cls-32 {
        fill: #f8d0c5;
      }

      .cls-34 {
        fill: #e4b1a5;
      }

      .cls-35 {
        fill: #551615;
      }

      .cls-36 {
        fill: #2f1617;
      }

      .cls-37 {
        fill: #62445b;
        stroke: #1d111b;
      }

      .cls-38 {
        fill: #f6e0d9;
      }

      .cls-39 {
        fill: #bf8674;
      }

      .cls-40 {
        fill: #f0e7e0;
      }

      .cls-41 {
        fill: #4f341a;
      }

      .cls-42 {
        fill: #431f17;
      }

      .cls-43 {
        fill: #441f17;
      }

      .cls-44 {
        fill: #e41e50;
      }

      .cls-45 {
        fill: #ba7757;
      }

      .cls-46 {
        fill: #fab761;
      }

      .cls-47 {
        fill: #f58520;
      }

      .cls-50 {
        fill: #eebc94;
      }

      .cls-51 {
        fill: #453423;
      }

      .cls-104, .cls-108, .cls-52, .cls-53, .cls-54, .cls-55, .cls-56, .cls-57, .cls-58, .cls-59, .cls-60, .cls-81, .cls-82, .cls-87 {
        mix-blend-mode: multiply;
      }

      .cls-52 {
        fill: url(#linear-gradient);
      }

      .cls-53 {
        fill: url(#linear-gradient-2);
      }

      .cls-54 {
        fill: url(#linear-gradient-3);
      }

      .cls-55 {
        fill: url(#linear-gradient-4);
      }

      .cls-56 {
        fill: url(#linear-gradient-5);
      }

      .cls-57 {
        fill: url(#linear-gradient-6);
      }

      .cls-58 {
        fill: url(#linear-gradient-7);
      }

      .cls-59 {
        fill: url(#linear-gradient-8);
      }

      .cls-60 {
        fill: #879bce;
        opacity: 0.4;
      }

      .cls-61 {
        fill: #bababa;
      }

      .cls-62 {
        fill: #a7a9aa;
      }

      .cls-63 {
        fill: #c9c8c9;
      }

      .cls-64 {
        fill: #979a9c;
      }

      .cls-65 {
        fill: #d3d4d4;
      }

      .cls-66 {
        fill: #f9a11e;
      }

      .cls-67 {
        fill: url(#linear-gradient-9);
      }

      .cls-68 {
        fill: url(#linear-gradient-10);
      }

      .cls-69 {
        fill: url(#linear-gradient-11);
      }

      .cls-70 {
        fill: url(#linear-gradient-12);
      }

      .cls-71 {
        fill: url(#linear-gradient-13);
      }

      .cls-72 {
        fill: #ce4d25;
      }

      .cls-73 {
        fill: #a83618;
      }

      .cls-74 {
        fill: #e4f5fd;
      }

      .cls-74, .cls-75, .cls-76, .cls-77, .cls-78 {
        fill-rule: evenodd;
      }

      .cls-75 {
        fill: #c7eafb;
      }

      .cls-76, .cls-79 {
        fill: #aee2fa;
      }

      .cls-77 {
        fill: #8ed8f8;
      }

      .cls-80 {
        fill: url(#linear-gradient-14);
      }

      .cls-109, .cls-81 {
        fill: #ece0c9;
      }

      .cls-82 {
        fill: #e1d1b0;
      }

      .cls-83 {
        fill: #ffcf87;
      }

      .cls-84 {
        fill: #8a613f;
      }

      .cls-85 {
        fill: #6d4321;
      }

      .cls-86 {
        fill: #a97d5c;
      }

      .cls-87 {
        fill: #d7aa6a;
      }

      .cls-88 {
        fill: #ffc43e;
      }

      .cls-89 {
        fill: #de9c1a;
      }

      .cls-90 {
        fill: #ffe579;
      }

      .cls-91 {
        fill: #ed9e61;
      }

      .cls-92 {
        fill: #da7b53;
      }

      .cls-93 {
        fill: #eecc80;
      }

      .cls-94 {
        fill: #c95c27;
      }

      .cls-95 {
        fill: #ffe6ab;
      }

      .cls-96 {
        fill: #fb9077;
      }

      .cls-97 {
        fill: #e95a08;
      }

      .cls-98 {
        fill: #c53a00;
      }

      .cls-99 {
        fill: #aa3100;
      }

      .cls-100 {
        fill: #ffdad7;
      }

      .cls-101 {
        fill: #b0739a;
      }

      .cls-102 {
        fill: #e7d8e5;
      }

      .cls-103 {
        fill: url(#linear-gradient-15);
      }

      .cls-104 {
        fill: #f5f3ed;
      }

      .cls-105 {
        fill: url(#linear-gradient-16);
      }

      .cls-106 {
        fill: #fff3c2;
      }

      .cls-107 {
        fill: url(#linear-gradient-17);
      }

      .cls-110 {
        fill: #ffdf86;
      }

      .cls-111 {
        fill: #ffce45;
      }

      .cls-112 {
        fill: #ffedc0;
      }

      .cls-113 {
        fill: #ee374b;
      }

      .cls-114 {
        fill: #cc2033;
      }

      .cls-115 {
        fill: #ef5e7c;
      }

      .cls-116 {
        fill: #f2f2f2;
      }

      .cls-117 {
        fill: #e8e7e7;
      }
    </style>
    <clipPath id="clip-path">
      <rect class="cls-1" x="40.05" y="56.3" width="539.79" height="449.82" rx="116.93"/>
    </clipPath>
    <linearGradient id="linear-gradient" x1="4449.57" y1="321.09" x2="4449.57" y2="318.94" gradientTransform="translate(-478.17 4763.56) rotate(-84.93)" gradientUnits="userSpaceOnUse">
      <stop offset="0" stop-color="#d99e31"/>
      <stop offset="0.09" stop-color="#dca338"/>
      <stop offset="0.23" stop-color="#e5b24b"/>
      <stop offset="0.39" stop-color="#f4cb6b"/>
      <stop offset="0.44" stop-color="#f9d375"/>
      <stop offset="1" stop-color="#fff"/>
    </linearGradient>
    <linearGradient id="linear-gradient-2" x1="-553.81" y1="1351.02" x2="-553.81" y2="1348.86" gradientTransform="translate(1229.13 -709.88) rotate(20.62)" xlink:href="#linear-gradient"/>
    <linearGradient id="linear-gradient-3" x1="1619.67" y1="-392.65" x2="1619.67" y2="-394.2" gradientTransform="matrix(0.86, -0.51, 0.51, 0.86, -955.57, 1525.89)" xlink:href="#linear-gradient"/>
    <linearGradient id="linear-gradient-4" x1="5472.66" y1="2086.58" x2="5472.66" y2="2084.43" gradientTransform="matrix(-0.53, -0.85, 0.85, -0.53, 1365.92, 6107.54)" xlink:href="#linear-gradient"/>
    <linearGradient id="linear-gradient-5" x1="359.51" y1="5296.13" x2="359.51" y2="5295.05" gradientTransform="matrix(-0.15, 0.99, -0.99, -0.15, 5524.28, 819.33)" xlink:href="#linear-gradient"/>
    <linearGradient id="linear-gradient-6" x1="3152.38" y1="5845.02" x2="3152.38" y2="5843.47" gradientTransform="matrix(-0.88, 0.48, -0.48, -0.88, 5807.15, 3973.9)" xlink:href="#linear-gradient"/>
    <linearGradient id="linear-gradient-7" x1="-890.71" y1="3124.99" x2="-890.71" y2="3123.12" gradientTransform="translate(3267.41 -810.19) rotate(52.99)" xlink:href="#linear-gradient"/>
    <linearGradient id="linear-gradient-8" x1="4836.89" y1="4740.7" x2="4836.89" y2="4739.04" gradientTransform="translate(4383.07 5713.5) rotate(-172.2)" xlink:href="#linear-gradient"/>
    <linearGradient id="linear-gradient-9" x1="325.42" y1="305.64" x2="338.07" y2="305.64" gradientUnits="userSpaceOnUse">
      <stop offset="0.19" stop-color="#ffb749"/>
      <stop offset="0.36" stop-color="#fcb342"/>
      <stop offset="0.6" stop-color="#f5a62f"/>
      <stop offset="0.88" stop-color="#e99210"/>
      <stop offset="1" stop-color="#e38800"/>
    </linearGradient>
    <linearGradient id="linear-gradient-10" x1="272.3" y1="321.11" x2="281.25" y2="321.11" xlink:href="#linear-gradient-9"/>
    <linearGradient id="linear-gradient-11" x1="303.53" y1="329.62" x2="324.18" y2="329.62" xlink:href="#linear-gradient-9"/>
    <linearGradient id="linear-gradient-12" x1="273.3" y1="244.35" x2="284.04" y2="244.35" xlink:href="#linear-gradient-9"/>
    <linearGradient id="linear-gradient-13" x1="330.71" y1="244.31" x2="335.1" y2="244.31" xlink:href="#linear-gradient-9"/>
    <linearGradient id="linear-gradient-14" x1="283.99" y1="335.94" x2="329.06" y2="354.84" xlink:href="#linear-gradient-9"/>
    <linearGradient id="linear-gradient-15" x1="302.03" y1="319.4" x2="308.16" y2="337.91" gradientUnits="userSpaceOnUse">
      <stop offset="0" stop-color="#fffdf8"/>
      <stop offset="0.4" stop-color="#fefcf5"/>
      <stop offset="0.67" stop-color="#faf8ec"/>
      <stop offset="0.91" stop-color="#f3f1dd"/>
      <stop offset="1" stop-color="#f0edd5"/>
    </linearGradient>
    <linearGradient id="linear-gradient-16" x1="298.84" y1="327.32" x2="299.23" y2="336.85" gradientUnits="userSpaceOnUse">
      <stop offset="0.19" stop-color="#fce52d"/>
      <stop offset="0.42" stop-color="#fcdf26"/>
      <stop offset="0.75" stop-color="#fdcd13"/>
      <stop offset="1" stop-color="#fdbb00"/>
    </linearGradient>
    <linearGradient id="linear-gradient-17" x1="-423.27" y1="1492.03" x2="-417.23" y2="1514.23" gradientTransform="matrix(0.93, 0.36, -0.36, 0.93, 1233.11, -955.17)" xlink:href="#linear-gradient-9"/>
  </defs>
  <g class="cls-2">
    <g id="Layer_1" data-name="Layer 1">
      <g>
        <rect class="cls-3" x="30.65" y="47.2" width="558.58" height="468.03" rx="124.49"/>
        <g class="cls-4">
          <g>
            <rect class="cls-3" x="-72" y="393.84" width="977.19" height="45.49"/>
            <rect class="cls-5" x="-54.82" y="433.66" width="936.56" height="97.3"/>
            <rect class="cls-6" x="-54.82" y="-32.4" width="936.56" height="457.78"/>
          </g>
          <g>
            <rect class="cls-7" x="246.31" y="418.58" width="19.41" height="67.93"/>
            <rect class="cls-7" x="347.72" y="418.58" width="19.41" height="67.93"/>
            <g>
              <polygon class="cls-8" points="173.72 473.32 130.53 530.96 466.14 530.96 410.01 476.2 173.72 473.32"/>
              <ellipse class="cls-9" cx="307.24" cy="488.23" rx="74.74" ry="23.97"/>
              <g>
                <path class="cls-10" d="M314.58,407.14c2,21.45,3.8,41,4.9,54.15h19.64c.55-13.31,1.68-33,2.89-54.13.46-8.06-5.87-14.93-13.67-14.82h-1A13.28,13.28,0,0,0,314.58,407.14Z"/>
                <g>
                  <path class="cls-11" d="M318,464.86c0,.4,22.65.83,22.7.34.47-4.28,1.23-13.39,1.48-15.85H317C317.31,454,317.75,461.93,318,464.86Z"/>
                  <path class="cls-12" d="M354.72,497.28c6,0,11-1.64,12.25-4.71a19.16,19.16,0,0,0,.09-5.54c-.17-1.64-2.87-5.18-4.15-5.8-1.31,3.95-7.34,11.91-18.44,8.76-10.33-2.93-27.37-12.65-28.36-13.66,0,0,0,5,.61,5.33,7.92,4.93,23.28,12.69,23.49,12.77A40.27,40.27,0,0,0,354.72,497.28Z"/>
                  <path class="cls-13" d="M317.49,460.41c.75.23,3.09,3.27,11.5,4.25.71.09,0-3.77.68-4.18,1.25-.71,13.8-1.12,14.56-.75.59.29.89,1.23,1.49,4.64.66,1.89,19.95,16.61,21,22.09.57,3-1.91,5.42-7.09,6.21a34.66,34.66,0,0,1-18-2.08c-2.63-1-24.28-12.68-25.62-14-1.17-1.19.26-12.61.36-15.71C316.42,460.42,317,460.28,317.49,460.41Z"/>
                </g>
              </g>
              <g>
                <path class="cls-14" d="M297.14,407.14c-2,21.45-3.8,41-4.9,54.15H272.6c-.55-13.31-1.68-33-2.89-54.13-.46-8.06,5.87-14.93,13.67-14.82h1A13.28,13.28,0,0,1,297.14,407.14Z"/>
                <g>
                  <path class="cls-11" d="M293.76,464.86c0,.4-22.65.83-22.7.34-.47-4.28-1.23-13.39-1.48-15.85h25.15C294.41,454,294,461.93,293.76,464.86Z"/>
                  <path class="cls-12" d="M257,497.28c-6,0-11-1.64-12.25-4.71a18.46,18.46,0,0,1-.09-5.54c.17-1.64,2.87-5.18,4.15-5.8,1.31,3.95,7.34,11.91,18.44,8.76,10.33-2.93,27.37-12.65,28.36-13.66,0,0,0,5-.61,5.33-7.92,4.93-23.28,12.69-23.49,12.77A40.27,40.27,0,0,1,257,497.28Z"/>
                  <path class="cls-13" d="M294.23,460.41c-.76.23-3.09,3.27-11.5,4.25-.71.09,0-3.77-.68-4.18-1.25-.71-13.8-1.12-14.56-.75-.6.29-.89,1.23-1.5,4.64-.65,1.89-19.94,16.61-21,22.09-.57,3,1.91,5.42,7.09,6.21a34.66,34.66,0,0,0,18-2.08c2.63-1,24.28-12.68,25.62-14,1.17-1.19-.26-12.61-.36-15.71C295.29,460.42,294.68,460.28,294.23,460.41Z"/>
                </g>
              </g>
              <path class="cls-15" d="M437.83,531c3.53,0,6.39-3.22,6.39-7.19v-119c0-4-2.86-7.2-6.39-7.2s-6.4,3.22-6.4,7.2v119C431.43,527.74,434.29,531,437.83,531Z"/>
              <path class="cls-7" d="M404.72,499.63c3.53,0,6.39-3.22,6.39-7.2v-119c0-4-2.86-7.19-6.39-7.19s-6.4,3.22-6.4,7.19v119C398.32,496.41,401.18,499.63,404.72,499.63Z"/>
              <path class="cls-15" d="M147,531c-3.54,0-6.4-3.22-6.4-7.19v-119c0-4,2.86-7.2,6.4-7.2s6.39,3.22,6.39,7.2v119C153.39,527.74,150.53,531,147,531Z"/>
              <path class="cls-7" d="M180.11,499.63c-3.53,0-6.39-3.22-6.39-7.2v-119c0-4,2.86-7.19,6.39-7.19s6.39,3.22,6.39,7.19v119C186.5,496.41,183.65,499.63,180.11,499.63Z"/>
              <rect class="cls-16" x="431.43" y="420.89" width="12.79" height="23.99"/>
              <rect class="cls-16" x="140.6" y="420.89" width="12.79" height="26.4"/>
              <path class="cls-17" d="M131.71,384.54H456.17a0,0,0,0,1,0,0v56a.55.55,0,0,1-.55.55H132.25a.55.55,0,0,1-.55-.55v-56A0,0,0,0,1,131.71,384.54Z"/>
              <polygon class="cls-16" points="131.71 397.37 456.17 394.2 456.17 384.54 131.71 384.54 131.71 397.37"/>
              <g>
                <rect class="cls-18" x="262.75" y="264.45" width="91.61" height="77.76"/>
                <path class="cls-19" d="M263.53,343.46V261.8h-5.95a8.86,8.86,0,0,0-8.86,8.86v72.8Z"/>
                <path class="cls-19" d="M353.49,343.46V261.8h5.94a8.87,8.87,0,0,1,8.87,8.86v72.8Z"/>
              </g>
              <path class="cls-20" d="M472.76,380H115.12v9.87a2.17,2.17,0,0,0,2.17,2.17h353.3a2.17,2.17,0,0,0,2.17-2.17Z"/>
              <path class="cls-11" d="M356.14,355.46c-1.9-10-6.94-59.67-9.23-73.43-3.36-15.12-1,6.92-6.27-16.4l-67.38,5.05s-1.91,11.65-4.68,37.45c0,0-3.4,25.25-3.83,38.21-.5,15.31.37,2.91-.85,10.12Z"/>
              <path class="cls-21" d="M469.39,383.16H118.49a3.37,3.37,0,0,1-3-4.88L140.6,342.9a3.38,3.38,0,0,1,3-1.87H446.53a3.36,3.36,0,0,1,3,1.87l22.86,35.38A3.37,3.37,0,0,1,469.39,383.16Z"/>
              <path class="cls-14" d="M248,299.4l4.47-19.93s-32.05,11.09-35.15,26.19a9.48,9.48,0,0,0,.62,1.88c0,.13,0,.25,0,.38a11.79,11.79,0,0,0,1,3.91,1.18,1.18,0,0,1,.18.21l1.14,1.57.6.81.11.13.07.1.29.36c.39.48.81.95,1.24,1.4,10.31,3.41,31.41-9.14,31.41-9.14Z"/>
              <path class="cls-11" d="M239.31,281.76h0c.67,1,17.8,29.83,19.59,32.79.35.59.68,1.19,1,1.8l24.56-12.42,5.1-37.88C269.5,265.31,239.31,281.76,239.31,281.76Z"/>
              <path class="cls-11" d="M340.19,267.34l-9.05,2.77,5.2,33.33,25.77,8.92L376,278.67s-29.31-12.17-36.18-13"/>
              <path class="cls-22" d="M335,273.25s4.22,3.85,2.78,7.22-2,3.28-1.47,6.54,2.13,14.48.07,16.43-2.2,6.89-5.2-.12-5-13.16-3.66-18.94,1.81-7.4,4.65-9.26Z"/>
              <path class="cls-22" d="M285.32,275.64s5.35,7.25,5.82,8.74.25,7-1.57,9.46a26.46,26.46,0,0,0-2.56,4.07c-1.86,1-6.32,1.69-7.85-2.08-2.19-5.42-4.2-9.73-2.68-12.91S285.32,275.64,285.32,275.64Z"/>
              <path class="cls-23" d="M282.84,266.94c-.23.74,3.58,22.69,26.75,22.69,18.31,0,28.28-16.68,27.11-25.38Z"/>
              <path class="cls-24" d="M293.54,270.75c.8,0,3.22,10.36,14.82,10.88,0,0,14.9.51,16.31-12Z"/>
              <path class="cls-25" d="M262.26,309.12c1.88-.44,3.75-.93,5.59-1.5.67-.2,1.36-.43,2-.67-4.86-14.64-20-11.29-20-11.29l10.42,11.72A15.29,15.29,0,0,0,262.26,309.12Z"/>
              <g>
                <path class="cls-26" d="M271.69,304.48s27.09-7.35,35.87-8.44c1.17-.15,3.51,2.83-5.5,8.43-7.68,4.46-19.19,5.93-19.17,6-4.41.32-5.59.86-8.06.4-1.38-.26-4.49-2.58-4.49-2.58l-26,4.63-.19-3.84Z"/>
                <path class="cls-27" d="M267.13,301.65l6.24-1.11h0c9.85-1.33,32.41-4.67,34.19-4.5,1,.28.44,1.49.44,1.49s-4.22,9.18-29.81,11.22c-5.11.41-4.89-2.41-7.64-2.59a9.81,9.81,0,0,0-1.31.12l-19.92,3-4.7-4.9Z"/>
              </g>
              <path class="cls-28" d="M236.69,317.59l8.2-2.69-.65.59a10.47,10.47,0,0,0,7.95,3,47.7,47.7,0,0,0,8.14-1.05c6.26-1.69,4.87-8.61,4.87-8.61-1.42-11.35-8-13.33-9.67-13.57a75,75,0,0,0-26.93,1.3c-8.21,1.87-14.24,7.41-9,16.85C219.63,313.41,224.51,321.71,236.69,317.59Z"/>
              <path class="cls-29" d="M325.08,279.87a17.45,17.45,0,0,1-15,9.75c-10.95.39-12.86-9.75-12.86-9.75.22-.61.42-1.23.58-1.85,2.31-8.64-.58-18.32-.58-18.32s30.28-14.95,26.66,0c-2.47,10.16-1,15.84.17,18.42A6.82,6.82,0,0,0,325.08,279.87Z"/>
              <path class="cls-30" d="M322.84,271.58c-3.43,2-8.55,4.35-13,4.35s-8.9-.81-12.61-3.38a18.93,18.93,0,0,0,0-11.86s28.79-10.27,25.35,0C320.21,267.68,321.71,269.8,322.84,271.58Z"/>
              <g>
                <path class="cls-31" d="M245,228.54c1.87,6.29,7.28,10.52,11.06,10.15s4.1-5.4,2.94-11.42S253.78,216.65,250,217C244.84,217.54,243.2,222.63,245,228.54Z"/>
                <path class="cls-30" d="M253.45,220.69a4,4,0,0,0-3.82-.95,2.85,2.85,0,0,0-1.63,1.89c-.74,2.19-.26,4.56.49,6.82.91,2.72,2.51,5.64,5.8,7a1.82,1.82,0,0,0,.94.2c.73-.1.87-.82.85-1.38l-.07-2.34a2.34,2.34,0,0,0-.4-1.48,4.67,4.67,0,0,0-1.5-1,4.22,4.22,0,0,1-2.2-2.07,1.51,1.51,0,0,1,.82-1.78c.68-.33,2,.15,2.53-.28C256.08,224.61,254.18,221.39,253.45,220.69Z"/>
              </g>
              <g>
                <path class="cls-32" d="M366.36,229c-2.43,5.85-8.07,9-11.67,7.9s-3.39-6.12-1.66-11.84,6.06-9.5,9.65-8.4C367.59,218.16,368.65,223.5,366.36,229Z"/>
                <path class="cls-30" d="M359.68,219.15a2.77,2.77,0,0,1,3.18-.38,3,3,0,0,1,1.14,2,12.14,12.14,0,0,1-1.07,6.51c-1,2.5-2.59,5.08-5.39,5.93a1.34,1.34,0,0,1-.79.06c-.58-.19-.62-.91-.55-1.45l.29-2.24a2.43,2.43,0,0,1,.47-1.37,3.46,3.46,0,0,1,1.31-.75,3.43,3.43,0,0,0,2-1.68,1.66,1.66,0,0,0-.49-1.83c-.52-.42-1.67-.15-2-.63C357.16,222.56,359,219.72,359.68,219.15Z"/>
              </g>
              <path class="cls-33" d="M357,236.2c-2.91,27.4-37.8,39.49-47.77,38.44-12.73-1.35-46.89-4.81-52.47-53a8.47,8.47,0,0,1,0-1.23v0c.49-18.85-6.36-36-4.54-43.33,6.26-25.28,10.81-15.42,40.72-18.26,28-2.66,39.88-2.74,57.1,11.65,1.52,1.27,6.59,2.71,6.66,7.25.14,7.73.32,13.52.48,18.17C357.75,211.87,359.28,214.45,357,236.2Z"/>
              <path class="cls-30" d="M336.09,240.05a2.88,2.88,0,0,1-3.35,2.34,2.91,2.91,0,0,1-2.29-3.41,2.86,2.86,0,0,1,3.34-2.33A2.91,2.91,0,0,1,336.09,240.05Z"/>
              <path class="cls-30" d="M286.05,239.43a3,3,0,0,1-3.49,2.43,3,3,0,0,1-2.38-3.55,3,3,0,0,1,3.48-2.43A3,3,0,0,1,286.05,239.43Z"/>
              <path class="cls-34" d="M355.24,194.58c-7.8-10.26-17.41-14.76-29.07-16.69-13.14,9.39-27.06,14.92-42.88,11.74,18.88-16.19,5.1-10.69,8.74-14.56,0,4.12-7.9,10.15-16,6.85A52.67,52.67,0,0,1,261.4,199.7c-2.14,1.67-5.6,14.21-6,15.94-.26,1-.34,2.28-.55,3.46.49-18.85-6.35-36-4.54-43.33,6.26-25.28,10.82-15.42,40.72-18.26,28-2.66,39.89-2.74,57.11,11.65,1.52,1.27,6.58,2.71,6.65,7.25C354.9,184.14,355.08,189.93,355.24,194.58Z"/>
              <path class="cls-35" d="M291.84,198.42l-.92-1.15a7.68,7.68,0,0,0-7.08-3.2,12.64,12.64,0,0,0-8.93,6.5c-.3.53-.53.73-.08.37C278,198.43,286,195.29,291.84,198.42Z"/>
              <path class="cls-36" d="M323.92,175.45s-7.67,13.22-40.63,13c0,0,14.09-12.07,6.33-14,0,0-5.11,8.72-16.17,4.5,0,0,5.25,1-14.19,19.55,0,0-5.54,6.41-4.48,21.82.07,1-7.67-1.24-8-12.08,0,0-13.72-11.28-2.63-25.8,0,0-11.88-20.54,8.62-27.43,0,0,2.22-20.27,18.2-21.35,0,0,16.89-24.82,40.81-7.58,0,0,21.46-10.28,33.15,10.22,0,0,16.49,6,14.17,21.2,0,0,21.84,10.31,8.24,26.25,0,0,5.94,12.15-5.3,26.29l-5.6,14.42-.84-5.61c-.13-12,1.91-16.14-3.46-26.85C352.11,192,347,174.78,323.92,175.45Z"/>
              <polygon class="cls-11" points="325.08 269.72 312.19 284.42 324.24 295.35 337.18 266.04 331.26 266.56 325.08 269.72"/>
              <polygon class="cls-11" points="294.01 270.81 308.57 284.42 296.79 296.51 279.69 266.98 283.34 267.01 294.01 270.81"/>
              <g>
                <path class="cls-37" d="M315.33,285.5c-.76-.32-3.43-2.46-8.84-.41s1.35,8.72,1.35,8.72h6S321.73,288.17,315.33,285.5Z"/>
                <g>
                  <path class="cls-37" d="M300.45,325.41c.14.46.27.9.42,1.34h0c4.38,13.67,11.57,20.51,11.57,20.51a74.17,74.17,0,0,0,5.66-8.7c.81-1.49,1.43-2.78,1.9-3.89a18.55,18.55,0,0,0,1.55-5c-.07-1.7-.18-3.34-.31-4.92s-.26-2.89-.41-4.26c-.44-3.91-1-7.37-1.64-10.41-.31-1.53-.64-3-1-4.29-2.17-8.52-4.51-12.64-4.41-13.26.26-1.74-6.4-1.13-6.4-1.13a66.19,66.19,0,0,1-1,8.78c-.17,1-.36,2-.55,3-.56,2.91-1.21,5.87-1.87,8.66-.24,1-.47,1.91-.69,2.83-.83,3.38-1.62,6.3-2.16,8.23C300.72,324.5,300.45,325.41,300.45,325.41Z"/>
                  <path class="cls-38" d="M305.87,303.23a44.44,44.44,0,0,1,12.93,6.86c-.31-1.54-.69-3.13-1-4.46a50.85,50.85,0,0,0-11.35-5.4C306.25,301.21,306.06,302.21,305.87,303.23Z"/>
                  <path class="cls-38" d="M303.65,315c4.81,2.14,12.74,6,17.21,9.84-.11-1.47-.27-3.17-.43-4.54A64.51,64.51,0,0,0,304.35,312C304.11,313,303.87,314.05,303.65,315Z"/>
                  <path class="cls-38" d="M300.85,325.42c.14.45.27,1,.41,1.45h0c4.72,2.39,12,6.48,16.57,11.41.81-1.48,1.39-2.73,1.87-3.85a95.72,95.72,0,0,0-18.22-11.36C301.05,324.61,300.85,325.42,300.85,325.42Z"/>
                </g>
              </g>
              <path class="cls-39" d="M300.69,231s.68,3.56,6,3.69S313,231,313,231,307.6,236.37,300.69,231Z"/>
              <path class="cls-35" d="M321.1,197l.92-1.15a7.67,7.67,0,0,1,7.09-3.2,12.65,12.65,0,0,1,8.92,6.5c.3.52.53.73.08.37C335,197,326.91,193.86,321.1,197Z"/>
              <g>
                <g>
                  <path class="cls-40" d="M338.3,219.33a10.76,10.76,0,1,1-9.37-11.52A10.55,10.55,0,0,1,338.3,219.33Z"/>
                  <path class="cls-41" d="M338.32,219.33a10,10,0,0,1-4.14,6.87,11.06,11.06,0,0,1-7.85,2,11.26,11.26,0,0,1-7.16-3.88A10.06,10.06,0,0,1,321,209.5a11.17,11.17,0,0,1,15.11,2.08A10.1,10.1,0,0,1,338.32,219.33Zm-.05,0a9.94,9.94,0,0,0-2.37-7.58,10.93,10.93,0,0,0-7-3.69,10.75,10.75,0,0,0-7.63,1.85,9.63,9.63,0,0,0-4.09,6.65,9.76,9.76,0,0,0,2.22,7.53,11.07,11.07,0,0,0,14.7,2A9.87,9.87,0,0,0,338.27,219.33Z"/>
                </g>
                <g>
                  <path class="cls-42" d="M326.45,216.67a6.06,6.06,0,0,0-6.06,6.06,9.12,9.12,0,0,0,.56,2.93.91.91,0,0,1,.24.16c.07.07.14.12.2.19l.33.24c.11.09.22.18.32.28l.06.05a7.43,7.43,0,0,0,.73.4.91.91,0,0,1,.4.1l.4.21.63.22a1.11,1.11,0,0,1,.32.18l.51.16c.44.11.88.2,1.33.27l.25,0,.14,0c.21,0,.43.05.65.07a1,1,0,0,1,.17,0l.86,0,.44-.13a6,6,0,0,0-2.48-11.53Z"/>
                  <path class="cls-3" d="M332.49,218.05a1.6,1.6,0,0,1-1.33,1.81,1.56,1.56,0,0,1-1.75-1.37,1.59,1.59,0,0,1,1.32-1.81A1.57,1.57,0,0,1,332.49,218.05Z"/>
                </g>
                <g>
                  <g>
                    <path class="cls-40" d="M273.05,217.6c0,5.63,4.84,10.31,10.82,10.44s10.84-4.32,10.85-10-4.84-10.31-10.83-10.44S273.05,212,273.05,217.6Z"/>
                    <path class="cls-41" d="M273.07,217.6a10.07,10.07,0,0,0,3.26,7.31,11.33,11.33,0,0,0,7.44,3,10.84,10.84,0,0,0,7.49-2.67,9.48,9.48,0,0,0,3.26-7.16,9.94,9.94,0,0,0-3.21-7.17,11.14,11.14,0,0,0-7.31-3,10.82,10.82,0,0,0-7.52,2.52A9.64,9.64,0,0,0,273.07,217.6Zm-.05,0a9.73,9.73,0,0,1,3.29-7.38,11.14,11.14,0,0,1,7.7-2.82,11.64,11.64,0,0,1,7.64,3.15,10.35,10.35,0,0,1,3.27,7.53,9.88,9.88,0,0,1-3.44,7.41,11.22,11.22,0,0,1-7.72,2.67,11.49,11.49,0,0,1-7.5-3.17A10.16,10.16,0,0,1,273,217.6Z"/>
                  </g>
                  <g>
                    <path class="cls-43" d="M282.79,227.78l.09,0a9.37,9.37,0,0,0,8.74-2.5,6.13,6.13,0,0,0,.27-1.78,5.52,5.52,0,1,0-11,0,6,6,0,0,0,1.62,4.13Z"/>
                    <path class="cls-3" d="M281.28,217.85a1.79,1.79,0,0,0,1.19,2.22,1.77,1.77,0,0,0,2.17-1.24,1.79,1.79,0,0,0-1.19-2.22A1.76,1.76,0,0,0,281.28,217.85Z"/>
                  </g>
                </g>
              </g>
              <path class="cls-30" d="M290.39,241.76c0,1.57-.17,2.59-1.73,2.59s-5.28-3.32-5.67-4.84c-.72-2.83,1.35-3.55,2.83-2.83S290.39,240.2,290.39,241.76Z"/>
              <path class="cls-30" d="M326,242.62c0,1.56.17,2.58,1.73,2.58s5.28-3.32,5.67-4.83c.72-2.84-1.35-3.55-2.84-2.84S326,241.05,326,242.62Z"/>
              <g>
                <g>
                  <path class="cls-35" d="M307.39,257.61c15,0,27.6-20.18,24.72-19.23-4.41,1.44-4,2.45-15.84,3.07-2.33.13-7.16.3-10.72.15a116.9,116.9,0,0,1-15.69-1.78c-2.16-.41-3.94-1.61-5.21-1.48C281.37,238.68,294.32,257.61,307.39,257.61Z"/>
                  <path class="cls-44" d="M307.39,257.61a15.69,15.69,0,0,1-8.35-2.52,9.93,9.93,0,0,1,6.43-4.05c3.92-.76,10,.14,12.13,3.17C315.39,256.48,310.16,257.54,307.39,257.61Z"/>
                  <path class="cls-3" d="M287,239a72.89,72.89,0,0,0,40.47.79c-2.35,3.48-9.65,8.51-19,8.73C298.32,248.8,290.93,243.18,287,239Z"/>
                </g>
                <path class="cls-45" d="M284.74,238.28a0,0,0,0,0,0,.09c3.05,1.42,23.12,10,47.41,0C332.11,238.38,313,245,284.74,238.28Z"/>
                <path class="cls-45" d="M301.41,258.22s5,3.44,10.34.47C311.75,258.69,306.77,263.68,301.41,258.22Z"/>
              </g>
              <polygon class="cls-12" points="269.13 445.47 269.58 449.35 294.73 449.35 295.61 443.82 268.44 443.82 269.13 445.47"/>
              <polygon class="cls-12" points="316.11 444.68 316.99 449.35 342.14 449.35 343.28 444.68 316.11 444.68"/>
              <g>
                <path class="cls-46" d="M312.51,260.26s-1.78,2.73,7.62,5.62c6.74,2.07,7.91-1.78,7.91-1.78s2.35-11.24-4.69-10.65S312.51,260.26,312.51,260.26Z"/>
                <path class="cls-47" d="M312.51,260.26s1.55-14.5,9.09-14.5c5.86,0,8.49,3.55,8.2,8.58A46.42,46.42,0,0,1,328,264.1S322.77,254.34,312.51,260.26Z"/>
              </g>
              <g>
                <path class="cls-48" d="M338.79,261.69a23.68,23.68,0,0,1-15,.41c-.18.44-.35.89-.53,1.34,3.07,1.51,10.7,4.68,16.08,1.94l24.43,7.87,1.2-2.6Z"/>
                <g>
                  <path class="cls-49" d="M344,260.6a8.46,8.46,0,0,1-2.47-2.27c-2.58-3.9-4.05-4.74-9.19-5.43-1.5-.2-3-.38-4.77-.5-.2.62-.4,1.24-.61,1.86l6.82,1.27s3.29.48,2.74,3l-1,2s1.52,2.79,8.84,4.11l19,6.12,5.66-4Z"/>
                  <path class="cls-49" d="M326.06,256.37l-.59,1.65,13.32,3.67L338.6,259Z"/>
                  <path class="cls-49" d="M335.86,260.72c-.18,3-7.05.64-11.43-.28-.21.56-.43,1.11-.65,1.67a66.1,66.1,0,0,0,9.59,2.47c4.45.61,9-2.62,9-2.62Z"/>
                </g>
              </g>
              <g>
                <path class="cls-28" d="M364.56,307c21.8,6.84,34.89,2,38.81-12.66,2.45-9.16-3.61-21-13-28.87-8.43-7.05-17.28-11.34-28.76-11.16-1.65,0-8.47,1.13-11.32,12.2,0,0-2.27,6.69,3.72,9.17a48.25,48.25,0,0,0,7.94,2.11,10.51,10.51,0,0,0,8.27-1.94l-.57-.68,5.51,5.27Z"/>
                <path class="cls-50" d="M370.21,275.81l-4-2.25s-1.07,5.11,4,2.25"/>
              </g>
              <path class="cls-51" d="M361.8,277.72a8.22,8.22,0,0,1-.91-3.66,13,13,0,0,1,.48-3.77,17.08,17.08,0,0,1,1.45-3.51c.31-.55.67-1.08,1-1.61s.76-1,1.15-1.49c-.3.55-.63,1.08-1,1.62s-.59,1.1-.86,1.66a19.83,19.83,0,0,0-1.31,3.46,14.48,14.48,0,0,0-.58,3.64A10.16,10.16,0,0,0,361.8,277.72Z"/>
              <path class="cls-51" d="M354.36,275.93a14.09,14.09,0,0,1,0-8.74,14.88,14.88,0,0,1,.88-2.05,11.79,11.79,0,0,1,1.27-1.84,12.25,12.25,0,0,1,1.56-1.58c.56-.48,1.2-.86,1.8-1.28a17.26,17.26,0,0,0-3.06,3.1,16.35,16.35,0,0,0-1.16,1.81,13.67,13.67,0,0,0-.82,2,15.27,15.27,0,0,0-.78,4.24A18.73,18.73,0,0,0,354.36,275.93Z"/>
              <path class="cls-51" d="M366,273.25A29.22,29.22,0,0,1,371.3,276,31.57,31.57,0,0,1,376,279.7a24.08,24.08,0,0,1,3.76,4.72A18.53,18.53,0,0,1,382,290a24.81,24.81,0,0,0-1.09-2.79c-.22-.44-.4-.9-.65-1.33l-.77-1.27a25.46,25.46,0,0,0-3.78-4.56,34.61,34.61,0,0,0-4.6-3.76A41.27,41.27,0,0,0,366,273.25Z"/>
              <path class="cls-51" d="M258.82,317.87a19.52,19.52,0,0,0,1-3.31,17.64,17.64,0,0,0,.34-3.39,15.4,15.4,0,0,0-.32-3.39,19.76,19.76,0,0,0-1-3.3,12.76,12.76,0,0,1,1.8,6.69A13.4,13.4,0,0,1,258.82,317.87Z"/>
              <path class="cls-51" d="M253.35,318.41a8.85,8.85,0,0,0,.85-3.09,12.55,12.55,0,0,0-.13-3.18,17.65,17.65,0,0,0-.8-3.1c-.18-.51-.4-1-.6-1.5s-.46-1-.67-1.49c.31.45.59.92.89,1.38s.51,1,.73,1.47a12.81,12.81,0,0,1,.95,3.16,10.5,10.5,0,0,1,0,3.31A7,7,0,0,1,253.35,318.41Z"/>
              <path class="cls-30" d="M377.54,282.06l-.42-.29c-.66-.44-1.35-.85-2-1.3L364.56,307,368.3,308s9.91-22,9.74-25.5C377.88,282.37,377.71,282.21,377.54,282.06Z"/>
              <polygon class="cls-30" points="240.9 284.38 246.99 294.57 243.16 294.57 237.81 285.95 240.9 284.38"/>
              <path class="cls-52" d="M234.58,359.7H234l-.37-.05-1-.13h0l1,.05.37,0,.32,0a2.18,2.18,0,0,1,.3.07Z"/>
              <path class="cls-53" d="M235,359.5a3,3,0,0,1,.07-.31l.1-.3.15-.34c.18-.46.38-.92.38-.92h0s-.15.48-.31.95l-.12.35c0,.11-.09.21-.12.29a2.77,2.77,0,0,1-.15.28Z"/>
              <path class="cls-54" d="M234.73,359.5l-.14-.17-.12-.2a1.71,1.71,0,0,1-.13-.23l-.34-.63h0l.39.6.15.22.11.2a1.78,1.78,0,0,1,.09.21Z"/>
              <path class="cls-55" d="M234.3,360.62l-.25.2-.26.18-.32.19-.87.49h0l.82-.56.31-.21.28-.15.28-.14Z"/>
              <path class="cls-56" d="M235.87,360H236l.16,0,.18,0c.25,0,.49.1.49.1h0l-.5-.06-.18,0-.15,0-.15,0Z"/>
              <path class="cls-57" d="M235.69,360.1l.13.18.12.2a1.79,1.79,0,0,0,.12.24c.16.31.32.64.32.64h0s-.19-.3-.37-.61c0-.08-.1-.16-.13-.23a1.43,1.43,0,0,1-.11-.21c0-.12-.08-.21-.08-.21Z"/>
              <path class="cls-58" d="M235.88,359.82l.2-.19.21-.18.26-.18.71-.49h0l-.67.55-.25.2-.22.16-.24.14Z"/>
              <path class="cls-59" d="M234.49,360.51s0,.1,0,.24a2.5,2.5,0,0,1,0,.25,2.56,2.56,0,0,1-.05.27c-.06.39-.13.77-.13.77h0s0-.38.07-.76c0-.1,0-.2,0-.28a1.58,1.58,0,0,1,0-.25c0-.14.06-.23.06-.23Z"/>
              <g>
                <path class="cls-60" d="M350,354.52c0,5.23-18.3,9.47-40.87,9.47s-40.86-4.24-40.86-9.47,18.29-9.46,40.86-9.46S350,349.29,350,354.52Z"/>
                <g>
                  <path class="cls-61" d="M349.49,351.26c0,5.23-18.29,9.47-40.86,9.47s-40.87-4.24-40.87-9.47,18.3-9.47,40.87-9.47S349.49,346,349.49,351.26Z"/>
                  <path class="cls-62" d="M308.63,361.1c-23.12,0-41.24-4.33-41.24-9.84s18.12-9.84,41.24-9.84,41.23,4.32,41.23,9.84S331.75,361.1,308.63,361.1Zm0-18.94c-21.95,0-40.5,4.17-40.5,9.1s18.55,9.09,40.5,9.09,40.49-4.16,40.49-9.09S330.58,342.16,308.63,342.16Z"/>
                </g>
                <g>
                  <path class="cls-63" d="M349.49,349.87c0,5.23-18.29,9.47-40.86,9.47s-40.87-4.24-40.87-9.47,18.3-9.47,40.87-9.47S349.49,344.64,349.49,349.87Z"/>
                  <path class="cls-64" d="M308.63,359.71c-23.12,0-41.24-4.32-41.24-9.84S285.51,340,308.63,340s41.23,4.33,41.23,9.84S331.75,359.71,308.63,359.71Zm0-18.93c-21.95,0-40.5,4.16-40.5,9.09s18.55,9.1,40.5,9.1,40.49-4.17,40.49-9.1S330.58,340.78,308.63,340.78Z"/>
                </g>
                <g>
                  <path class="cls-3" d="M339.83,349.44c0,3.69-14.22,6.69-31.77,6.69s-31.77-3-31.77-6.69,14.22-6.69,31.77-6.69S339.83,345.74,339.83,349.44Z"/>
                  <path class="cls-65" d="M308.06,356.31c-17.92,0-31.95-3-31.95-6.87s14-6.88,31.95-6.88,32,3,32,6.88S326,356.31,308.06,356.31Zm0-13.38c-17.12,0-31.58,3-31.58,6.51s14.46,6.5,31.58,6.5,31.58-3,31.58-6.5S325.18,342.93,308.06,342.93Z"/>
                </g>
                <g>
                  <path class="cls-3" d="M337.56,349.91c0,3.43-13.21,6.22-29.5,6.22s-29.5-2.79-29.5-6.22,13.2-6.21,29.5-6.21S337.56,346.48,337.56,349.91Z"/>
                  <path class="cls-65" d="M308.06,356.31c-16.65,0-29.69-2.81-29.69-6.4s13-6.39,29.69-6.39,29.68,2.81,29.68,6.39S324.71,356.31,308.06,356.31Zm0-12.42c-15.89,0-29.31,2.76-29.31,6s13.42,6,29.31,6,29.31-2.76,29.31-6S324,343.89,308.06,343.89Z"/>
                </g>
              </g>
              <path class="cls-66" d="M252.19,347.78a2.93,2.93,0,0,1-.9-.53A1.16,1.16,0,0,1,251,346c-.65.31-1,.64-1,1,0,.85,2.11,1.61,5.44,2.13C254.34,348.69,253.25,348.26,252.19,347.78Z"/>
              <path class="cls-67" d="M327.2,295.83s-2.86-.15-1.33,3,2,1.69,1.33,4.54-2.37,3-.74,4.7,3.5.54,3.5,2v1.44s3.25,1,2.59,1.48c-2.42,1.76-1.83,3.12.09,2.27s7.07-.15,4.92-3-2.5-3.69-3-4.19-.89-.67-.38-1.38-2.61,2.19-1.62-1,2.34.13,1.66-3.41-.43-3.05-1.66-4.32.64-.75-1.23-1.26A38.37,38.37,0,0,0,327.2,295.83Z"/>
              <path class="cls-46" d="M335.4,275.12c-.17.59-2,2.32,0,4.18s2.7,1.44,4.24,2.33,3,4.3,2.7,1.57-2.25-2.36,0-3.9,2.7-8.23.27-5.74-3.26,3.38-3.26,3.38-1,.48-1.18-1.82-1.4-3.12-2.08-1.56"/>
              <path class="cls-46" d="M268.13,294.57s-3.06,2.87-.74,3.66,2.6,0,3.25.46.53-3,3.38-2,4.34,1.33,4.35,0,1.18-.35-1.19-2.81-1.85-.26-2.36-2.47-4.95-2.92-4.18-.18.12,3.18-.32,3.38A7.85,7.85,0,0,1,268.13,294.57Z"/>
              <path class="cls-68" d="M276.71,315.46c-1.55,1.1-5.53,2.12-4.11,4.33s1.42,2,1.42,4.53.34,2.4,1.93,3,1,1,2.8-2.1,1.07-2.72,1.21-5.11,2-1.33,1-3.13-3.28-3.08-3.76-2.31"/>
              <path class="cls-69" d="M314,319.45c-3.51.5-4.56,1.4-4.76,2.21-.38,1.52,2.21,2.69,1.87,4.6-.31,1.74-2.63,1.69-3.24,3.74-.54,1.85,1,2.93.34,4.26-.91,1.82-4.55,1.18-4.64,1.9s2.75,1,9.07,2.86c1.74.53,4.19,1.31,5.89.18l1.09-.86c2-1.63,2.58-2.12,2.79-2.32,1.27-1.17,1.9-1.75,1.8-2.1-.32-1.1-5.17-.19-5.43-1.17-.08-.33.35-.71,2-2,2.22-1.71,2.93-2.54,2.79-3.05-.22-.78-2.37-.42-2.62-1.27s1.19-1.3,1.22-2.57a2.71,2.71,0,0,0-.89-1.82C319.26,319.75,314.82,319.49,314,319.45Z"/>
              <path class="cls-70" d="M274.9,241.28s-2.5,2.39-1.25,3.56,4.51.21,5.12,2.65,2,5.55,4.12,2.9-.87-.74.62-4.52-.62-4.59-.62-4.59c-2.57-2.61-2.91-4.89-4.87-3.62S274.46,239.3,274.9,241.28Z"/>
              <path class="cls-71" d="M333.06,239a5.71,5.71,0,0,1-1.31,6.73c-3.26,3,2.07,5.61,3.12,2.21S333.06,239,333.06,239Z"/>
              <g>
                <ellipse class="cls-72" cx="386.06" cy="293.94" rx="1.34" ry="2.37" transform="translate(-50.08 81.27) rotate(-11.29)"/>
                <circle class="cls-72" cx="386.06" cy="293.94" r="2.33"/>
                <polygon class="cls-72" points="362.09 299.1 386.47 296.27 385.64 291.61 361.29 294.44 362.09 299.1"/>
                <ellipse class="cls-73" cx="361.72" cy="296.77" rx="1.34" ry="2.37" transform="translate(-51.1 76.56) rotate(-11.29)"/>
                <polygon class="cls-72" points="392.69 336.21 384.33 296.52 388.38 293.74 397.39 337.55 392.69 336.21"/>
                <path class="cls-72" d="M384.22,296.76a.22.22,0,0,0,.16,0,1.3,1.3,0,0,0,1-.8,4,4,0,0,0-.41-3.6,1.65,1.65,0,0,0-1.47-.85.3.3,0,0,0-.27.34.31.31,0,0,0,.35.28,1.06,1.06,0,0,1,.87.58,3.36,3.36,0,0,1,.36,3,.7.7,0,0,1-.52.46.32.32,0,0,0-.29.34A.3.3,0,0,0,384.22,296.76Z"/>
                <path class="cls-72" d="M384.2,296.77h0a1.31,1.31,0,0,0,1.34-.39,4.11,4.11,0,0,0,.9-3.63c-.23-.91-.79-1.44-1.46-1.39a.31.31,0,0,0-.29.34.31.31,0,0,0,.34.29c.35,0,.65.32.8.91a3.5,3.5,0,0,1-.73,3,.71.71,0,0,1-.7.25.33.33,0,0,0-.4.2A.33.33,0,0,0,384.2,296.77Z"/>
                <path class="cls-72" d="M384.36,296.87a1.55,1.55,0,0,0,1.28,0,4.5,4.5,0,0,0,2.31-3.4,1.73,1.73,0,0,0-.74-1.88h0a.32.32,0,1,0-.27.57c.32.16.47.62.4,1.24a3.92,3.92,0,0,1-1.94,2.89.9.9,0,0,1-.83,0,.3.3,0,0,0-.43.08.31.31,0,0,0,.08.44Z"/>
                <path class="cls-72" d="M384.57,297.09a1.59,1.59,0,0,0,.8.14,4.16,4.16,0,0,0,3.11-2.19,2,2,0,0,0,.22-1.42.31.31,0,0,0-.39-.21.32.32,0,0,0-.21.39,1.35,1.35,0,0,1-.18.95,3.57,3.57,0,0,1-2.58,1.85.78.78,0,0,1-.7-.24.31.31,0,0,0-.43-.07.3.3,0,0,0-.08.43A1.06,1.06,0,0,0,384.57,297.09Z"/>
                <path class="cls-72" d="M384.74,297.39a1.33,1.33,0,0,0,.24.1,3.81,3.81,0,0,0,3.37-.88,1.62,1.62,0,0,0,.63-1.43.32.32,0,0,0-.36-.26.32.32,0,0,0-.26.37,1.06,1.06,0,0,1-.44.85,3.22,3.22,0,0,1-2.75.75c-.19-.06-.44-.18-.49-.42a.31.31,0,1,0-.61.15A1.13,1.13,0,0,0,384.74,297.39Z"/>
              </g>
              <g>
                <g>
                  <g>
                    <polygon class="cls-74" points="383.08 309.24 389.54 368.33 415.58 368.33 422.08 309.24 383.08 309.24"/>
                    <polygon class="cls-75" points="406.1 368.33 408.19 309.24 422.08 309.24 415.58 368.33 406.1 368.33"/>
                  </g>
                  <g>
                    <polygon class="cls-76" points="386.25 319.04 392.7 365.51 412.37 365.51 418.92 319.04 386.25 319.04"/>
                    <polygon class="cls-77" points="406.2 365.51 407.84 319.04 418.92 319.04 412.37 365.51 406.2 365.51"/>
                  </g>
                </g>
                <path class="cls-77" d="M392.7,365.51c6.16-3.54,12.69-3.8,19.67,0Z"/>
                <polygon class="cls-78" points="388.48 311.57 394.98 365.51 395.87 365.51 392.31 311.56 388.48 311.57"/>
              </g>
              <path class="cls-79" d="M383,350.1l1.19-.25a3.41,3.41,0,0,1-.48,2.51c-.6.83-1.86,1.44-7.5,1.11-4.93-.29-6.8-.93-9.32.25-.46.22-2.11,1-2,1.79.15,1.56,6.53,2,6.49,2.42s-5.18-.23-11.48,1c-3.41.65-7.59,1.94-7.49,2.72,0,.2.34.35,1.92.68,4.32.9,6.82.83,6.91,1.36s-1.61,1.06-1.8,1.14c-5.26,2-15.35,3.63-15.27,5.15,0,.81,4.44,1.55,5.33,1.7,6.33,1,14.68,1.68,27.42.86,3.79-.24,5-.43,8.16-.45,4.38,0,6.46.27,6.59-.23.18-.72-3.74-2.84-8.17-3.86-6.38-1.46-12.17-.28-12.5-1.75a.58.58,0,0,1,0-.32c.29-1.38,3.2-1.41,6.8-2.47,2.27-.66,5.17-1.51,5.22-2.72s-3-2.88-4.86-3.84c-1.12-.59-1.69-.78-1.68-1.12,0-1.17,6.55-1,7.24-3.41A2.74,2.74,0,0,0,383,350.1Z"/>
            </g>
            <g>
              <g>
                <path class="cls-80" d="M322.27,353a9,9,0,0,0,4.68-6.08c.19-1.1.58-3.36.09-4.43-.94-3.55-9.18-6.33-19.21-6.33-10.66,0-19.3,3.14-19.3,7a9.18,9.18,0,0,0,.61,6,8.8,8.8,0,0,0,4.1,4A28.34,28.34,0,0,0,305,356C310.94,356.19,317,356.17,322.27,353Z"/>
                <path class="cls-81" d="M307.83,336.18c-10.66,0-19.3,3.14-19.3,7a9.15,9.15,0,0,0,.17,4.89,5.51,5.51,0,0,0,1.87,1.49c2.74,1.36,5.83,1.57,8.77,2.15s6-.09,9.09-.1a53.8,53.8,0,0,0,8.61-.22,23.14,23.14,0,0,0,7.65-2.84,14.35,14.35,0,0,0,2.24-1.53.29.29,0,0,0,0-.09c.19-1.1.58-3.36.09-4.43C326.1,339,317.86,336.18,307.83,336.18Z"/>
                <path class="cls-82" d="M310.09,336.23c-4.93.65-10,.29-14.85,1.65a19.35,19.35,0,0,0-3.14,1.26,10.31,10.31,0,0,0-3.35,3,2.74,2.74,0,0,0-.22,1.05,8.78,8.78,0,0,0-.17,3.36l.05.08c1.18,2.06,3.62,2.62,5.71,3.06.78.17,1.57.33,2.38.47a19.35,19.35,0,0,0,5.13.33c3.57-.35,7.12-.92,10.77-.66a26.5,26.5,0,0,0,11.05-1.17,12.33,12.33,0,0,0,3.55-2c.2-1.17.5-3.18,0-4.17C326.17,339.23,319.07,336.61,310.09,336.23Z"/>
                <path class="cls-83" d="M305,352.36c1.3-.13,7.57-1.29,8.05.86.29,1.28-2.83,1.65-3.56,1.78a22,22,0,0,1-7.59.07,35.31,35.31,0,0,1-9.59-3c-.64-.35-2.36-1.3-2.44-2.16-.12-1.35,1.29-.47,1.78-.19a18.45,18.45,0,0,0,3.89,1.63A24.67,24.67,0,0,0,305,352.36Z"/>
              </g>
              <g>
                <path class="cls-84" d="M326.25,334.08c-2-4.35-9.61-7.59-18.75-7.59-9.89,0-18,3.79-19.13,8.68a4.82,4.82,0,0,0-.49,1c-2.22,6.08,2.05,10.64,7.38,12.78,2.66,1.06,4.58,2.13,7.57,2.14,3.79,0,7.41.78,11.15-.37,4.07-1.25,9.25-2.14,12.06-5.67C328.15,342.37,328.17,336.85,326.25,334.08Z"/>
                <path class="cls-85" d="M326.25,334.59c-2-4.64-9.61-8.1-18.75-8.1-8.39,0-15.52,2.91-18.16,7a7.12,7.12,0,0,0,.12,2.71c.5,2.08,2.21,4.88,4,5.67,4.18,1.85,8.17,1.64,12.52,2.29,1.7.26,3,.95,4.83.64s3.06-1.14,4.76-1.06c2.53.1,5-1,7.32-2.17,1.76-.85,3.33-4.68,3.42-6.9Z"/>
                <path class="cls-85" d="M291.5,342.74c1,1.11,3,1.29,3.72,2.37-1.22,1.28-3.76-1.09-4.77-1.87-.82-.63-2.34-1-2.52-2.28C287.47,337.61,291.19,342.39,291.5,342.74Z"/>
                <g>
                  <path class="cls-85" d="M326.24,334.06c-.43,1,.39,2.41.82,3.74a9.9,9.9,0,0,1-.19,5.41,3.23,3.23,0,0,1-2.7,2.35c-.79.21-2.66.19-3.19.66-1.18,1.08-.17,1.61-2.24,2.09a19.28,19.28,0,0,1-2.95.31,5.7,5.7,0,0,0-1.49,0c-.68.26-.87,1-1.44,1.23-1,.41-2,.36-3,.8-1.15.53.12.8-1.67.33-.48-.13-.92-.37-1.41-.47s-1,0-1.47-.16a11,11,0,0,1-1.07-.58c-1.2-.27-1.88.34-2.92.43a8.4,8.4,0,0,1-2.67-.49c-.7-.2-1.84-.31-2.7-.52,2.3,1,4.13,1.84,6.84,1.84,3.79,0,7.41.78,11.15-.37,4.07-1.25,9.25-2.14,12.06-5.67,2.11-2.64,2.13-8.16.21-10.93Z"/>
                  <path class="cls-85" d="M287.33,340.24c.44,3.93,3.71,6.9,7.63,8.54-.92-.68-.92-2.07-1.69-2.84-1.15-1.16-2.93-.85-4.1-2.1C288.24,342.84,288.22,341.18,287.33,340.24Z"/>
                </g>
                <path class="cls-85" d="M320.06,345.35c.65-.17,1.28-.4,1.54-.45,1.39-.28,3.41-1.18,2.65-3.13s-1.27.48-1.91,1.23a4,4,0,0,1-2,1.36c-.74.19-1.74-.47-2.07.6C318,345.8,319,345.64,320.06,345.35Z"/>
                <path class="cls-85" d="M305.35,344.83c-.72-.9-3.83-.92-4.93-1.42s-3.68-1.63-4.37.29c-.61,1.66,1.51,1.92,2.52,2.37.8.36,2.09,2,2.86,1.88,2.28-.43.06-2.42-.19-3C302.09,344.9,306.44,346.2,305.35,344.83Z"/>
                <path class="cls-86" d="M311.41,347.69c-2.18,0-3,.84-4.75-.76-.71-.67-2.81-2.32-3.31-.17-.32,1.39,1.86,1.21,2.74,1.49C307.6,348.75,310.58,349.8,311.41,347.69Z"/>
                <path class="cls-86" d="M295.47,347.34c.29,1.08,4.59,2,4.86.84C300.7,346.63,294.77,344.69,295.47,347.34Z"/>
                <g>
                  <path class="cls-87" d="M295.63,344.25c1.72-1.52,4.2-1.76,6.38-2.05,1.63-.21,3.34-.12,5-.19,1.3-.05,2.6.06,3.9,0s2.58-.34,3.93-.35c2.31,0,4.5.1,6.79-.06a10.83,10.83,0,0,1,3.41.3c.78.2,1.78.77,2.36-.06,1.11-1.6-3.18-4.86-4.07-5.49-1.95-1.39-3.87-1.5-6.2-1.56a25.67,25.67,0,0,0-8.95,1.3c-2.21.75-4.48.53-6.7,1.14a30.73,30.73,0,0,0-5.59,2,16.09,16.09,0,0,0-4.3,3.55c-.86.87-1.82,3-.31,3.82S294.66,345.11,295.63,344.25Z"/>
                  <g>
                    <path class="cls-88" d="M312.23,326c-1.58.2-3.13.73-4.77.81a35.29,35.29,0,0,1-7.26-.35c-3.51-.57-5.32,2.08-6.85,5a38,38,0,0,1-2.92,3.92c-1.23,1.73-1.41,4.11-1.44,6.2,0,1.5-.18,4.29,1.61,4.61,1.4.24,3-1.56,4.2-2.25,4.23-2.5,10.26-2.65,15-2.66,2.38,0,4.58-.55,6.92-.68,1.82-.09,3.81-.87,5.63-.46,1.44.32,2.61,1.62,4.14,1.73,3.75.25.4-4.45-.31-6.11a19.29,19.29,0,0,0-2.82-5c-2.35-2.76-6.77-5-10.38-4.86C312.74,325.9,312.49,325.92,312.23,326Z"/>
                    <path class="cls-89" d="M309.82,341.23c2.38,0,4.58-.55,6.92-.68,1.82-.09,3.81-.87,5.63-.46,1.44.32,2.61,1.62,4.14,1.73,1.36.09,1.78-.47,1.74-1.3a1.4,1.4,0,0,1-1.41.87c-1.37-.07-2.79-1.76-4.26-1.95-2-.27-4.28.31-6.24.67-4.24.77-8.53-.29-12.76.4-2.42.4-4.55.49-6.82,1.48-.84.36-1.79.67-2.58,1.1-.55.31-1.2,1.14-1.71,1.29-3.92,1.18-2.33-4.56-2.64-8a13.64,13.64,0,0,0-.84,5.14c0,1.5-.18,4.29,1.61,4.61,1.4.24,3-1.56,4.2-2.25C299,341.39,305.06,341.24,309.82,341.23Z"/>
                    <path class="cls-90" d="M294.3,342.68c2.08-1.08,4.39-2.45,6.76-2.63a61.1,61.1,0,0,1,6.63-.05c.22,0,1.09-.14.93.31s-1.89.2-2.29.26c-1.51.2-3.05.44-4.61.52a8.67,8.67,0,0,0-4.55,1.21,25.18,25.18,0,0,1-2.74,1c-.46.22-1.56,1.48-2.05,1.4-.68-.11-.12-.68.2-1A10.93,10.93,0,0,1,294.3,342.68Z"/>
                    <path class="cls-90" d="M327.48,340.24a.59.59,0,0,1,0,.34c-.1,1.53-3-.25-3.59-.54a7.64,7.64,0,0,1-1.32-.6c-.13-.11,1.05-.14,1.12-.14,1,.1,1.81.72,2.77.89C327,340.28,327.36,340,327.48,340.24Z"/>
                    <path class="cls-90" d="M290,341.05a4.22,4.22,0,0,0-.13-1.34c-.86.41-.64,1.73-.47,2.46.09.42.48,1.71.93,1.85C291.22,344.28,290,341.54,290,341.05Z"/>
                  </g>
                </g>
              </g>
              <g>
                <path class="cls-91" d="M305.21,341.39a57.24,57.24,0,0,1,4.55,5.22c2,2.29,1.6,0,3.17-1.54s5,.24,3.73-2.53c-1-2.26-4.12-4.94-6-6.54-3.26-2.79-6.38-3-10.42-3-3.85-.07-9.93-1.52-12.32,2.52-.81,1.36-2.08,3.72-.15,4.26.88.24,2.25-.36,3.11-.57C295.76,338,301.32,337.85,305.21,341.39Z"/>
                <path class="cls-92" d="M300.72,338.25a13,13,0,0,1,6.89,4.51c.6.71,3.14,3.85,3.92,2.14s-3.1-5.28-4.06-6.23a10,10,0,0,0-5.11-2.86,59.5,59.5,0,0,0-8.54-.71c-1.31,0-6.17.46-2.85,2.17,1.29.65,3.47.21,4.86.28A21.3,21.3,0,0,1,300.72,338.25Z"/>
                <path class="cls-93" d="M296.79,333.84c-1.5-.22-7.91-.51-8.12,1.8,1,.35,2-.36,3-.54,3.19-.52,5.92.42,9.05.6,3.67.22,5.86,1.52,8.43,4.22,1.45,1.51,2.5,4.25,4.74,4.36-.06-1.38-1.71-1.79-2.53-2.69-1.09-1.22-1.14-2.79-2.09-4-1.59-2.1-4.33-2.31-6.67-2.77C300.72,334.42,298.67,334.11,296.79,333.84Z"/>
                <path class="cls-94" d="M295.71,333.15c-1.4.3-2.59-.43-3.9-.25-.6.08-2.57.79-2.87,1.43-.38.79.34.7.76.58a11.89,11.89,0,0,1,1.74-.68,20.35,20.35,0,0,1,3-.32,29.4,29.4,0,0,0,3,.19c.65-.05,1.32-.25,2-.27a18.23,18.23,0,0,1,4.88.93c1.41.34,3.45.25,4.43,1.39s1.31,3.13,2.26,4.51a9.42,9.42,0,0,0,1.55,1.31,12.66,12.66,0,0,1,1.17,1.27c.85.94,1.61.5,2.76.51.23-.78-1-1.39-1.35-2-.8-1.39-2-2.29-3-3.61s-1.5-2.35-3.14-3c-1-.4-2-.71-3-1a22.57,22.57,0,0,0-6.48-1A13.68,13.68,0,0,0,295.71,333.15Z"/>
                <path class="cls-94" d="M311.09,347.58a7,7,0,0,1-.44-.67c-.34-.63-.42-1.4-.78-2a17.61,17.61,0,0,0-2.58-3.32c-1.72-1.62-4.81-3.55-7.18-3.69a48.8,48.8,0,0,0-7.05,0c-1.61.14-2.9.67-4.14-.55-.49-.48-.74-1.11-1.23-1.43-.78,1.38-1.66,3.37.09,3.85.88.24,2.25-.36,3.11-.57,4.87-1.23,10.43-1.33,14.32,2.21a57.24,57.24,0,0,1,4.55,5.22C310.4,347.34,310.79,347.61,311.09,347.58Z"/>
                <path class="cls-95" d="M296.29,334.34c-1.17-.07-2.28-.59-3.46-.42-.54.08-2.22.37-2.3,1.09-.07.55,1.42,0,1.75-.11a13,13,0,0,1,5.44,0,22.21,22.21,0,0,0,5,.69,5.7,5.7,0,0,1,2.41.47c.5.21,1.07.7,1.65.44.09-.81-2.28-.88-2.85-1-1.69-.33-3.27-1-5-1.29A23.71,23.71,0,0,0,296.29,334.34Z"/>
                <path class="cls-95" d="M313.82,344.29c.12-.71-1.32-2.84-2.15-2.43-1.32.66,1.3,2.55,2.14,2.47C313.81,344.32,313.82,344.31,313.82,344.29Z"/>
              </g>
              <g>
                <g>
                  <path class="cls-96" d="M315.55,326.92a18.6,18.6,0,0,1,8.6,1.82,8.15,8.15,0,0,1,2.88,2.6l.74-.09-.16,1.78a2,2,0,0,1-.05.54c-.48,2.21-3.72,3.55-5.6,4.15a19.76,19.76,0,0,1-5.82.9c-3.54,0-12.46-.6-12.46-5.84C303.68,329.55,309,326.92,315.55,326.92Z"/>
                  <path class="cls-97" d="M303.83,331c0,5.23,8.93,5.86,12.47,5.83a19.42,19.42,0,0,0,5.82-.89c1.88-.6,5.12-1.95,5.6-4.15.43-1.91-1.89-4-3.41-4.84a18.72,18.72,0,0,0-8.6-1.81C309.15,325.12,303.83,327.74,303.83,331Z"/>
                  <path class="cls-98" d="M321.78,328.11c1.39-.91,3.63-1.22,3.52,1.05-.05.91-.53,1-1.15,1.52a12.61,12.61,0,0,1-2.63,2.18,17.39,17.39,0,0,1-4.16,1.85,20.61,20.61,0,0,1-3.24.24c-.3,0-1-.1-1.08.32-.15.58.83.44,1.15.45a8,8,0,0,0,1.95-.07c1.09-.24,2.17-.21,3.25-.44,1.78-.39,3.2-1.52,4.85-2.2,1.26-.52,1.94-1,2.27-2.27.08-.3,0-.94.62-.52s.16,1.31-.05,1.69a5.14,5.14,0,0,1-2.88,2.45c-1.17.38-2.28.93-3.47,1.21-1.44.35-2.54,1-4.09,1-1.13,0-2.24-.12-3.36-.18a5.31,5.31,0,0,1-3.18-.72c-1.84-1.38,1.91-2.93,2.95-3.39,2.17-1,4.38-1.8,6.55-2.8A15.81,15.81,0,0,0,321.78,328.11Z"/>
                  <path class="cls-98" d="M318.8,334.49c.12-.81-3.28-.19-3.77-.13s-4.4.62-2.29,1.37a15,15,0,0,0,5.81.24,11.63,11.63,0,0,0,2.69-.51,3,3,0,0,0,1.25-.72c.19-.21.48-.67.17-.92s-.61.19-.87.32A4.37,4.37,0,0,1,318.8,334.49Z"/>
                </g>
                <path class="cls-99" d="M323.64,331h0c.31-.28.67-.53,1-.83s.4-.66.57-.76c.61-.36.77.43.76,1a2.72,2.72,0,0,1-.94,1.78,9,9,0,0,1-3.15,2.21,7.86,7.86,0,0,1-2.22.27c-.42,0-1.66.42-1-.46.24-.34.85-.45,1.2-.66a7.09,7.09,0,0,1,1.35-.74A7,7,0,0,0,323.64,331Z"/>
                <path class="cls-97" d="M315.29,335.15c-.1,0,.51.36.56.38a4.58,4.58,0,0,0,1.52.12c.61,0,2.12-.07,2.13-.95C319.5,334.41,315.58,335.13,315.29,335.15Z"/>
                <path class="cls-100" d="M320,337.62c-.4,0-2.11.38-1.17-.38.41-.34,1.2-.22,1.69-.29a10.67,10.67,0,0,0,3-.85,10,10,0,0,0,1.75-1c.25-.19,1.74-1.25,1.16-.08a3.19,3.19,0,0,1-1.09.94,11.29,11.29,0,0,1-2.54,1.18A10.26,10.26,0,0,1,320,337.62Z"/>
              </g>
              <g>
                <path class="cls-101" d="M304.37,333.22c.47,0,.11-.28-.63-.69-1.36-.75-6.06-1.74-11.86,2,0,0-3.12,2.85-3.08,4.38a3.08,3.08,0,0,0,.75,1.82c1.4,1.61,5.18,2,9.24.89,4.72-1.33,8-4.28,7.35-6.6A2.9,2.9,0,0,0,304.37,333.22Zm-7.85.36c4.08-1.15,7.85-.47,8.42,1.54a2.17,2.17,0,0,1-.07,1.28,8.3,8.3,0,0,1-2,1.63,18.92,18.92,0,0,1-4,2.07,11.86,11.86,0,0,1-2.14.76,5.4,5.4,0,0,1-1.5-.12c-1.19-.13-2.38,0-3.56-.15a1.37,1.37,0,0,0-.5,0,2.28,2.28,0,0,1-1.09-1.32C289.59,337.29,292.44,334.74,296.52,333.58Z"/>
                <path class="cls-102" d="M296.16,332.29c-4.72,1.33-8,4.29-7.36,6.6s5,3.1,9.72,1.77,8-4.29,7.36-6.6S300.87,331,296.16,332.29Zm2.14,7.59c-4.08,1.16-7.84.47-8.41-1.53s2.28-4.56,6.37-5.71,7.84-.47,8.41,1.53S302.39,338.73,298.3,339.88Z"/>
              </g>
              <g>
                <path class="cls-103" d="M324,323.68a13.81,13.81,0,0,0-3.77-2.92c-5-2.74-11.18-3.48-16.9-2.82s-12.6,3.15-15,9.24c-.78,2-2.42,5.8-2.13,8,.47,3.44,3.13,4.62,6.29,4.78,5.61.31,10.78-1.58,15.71-3.88a31.33,31.33,0,0,1,6.37-2.39,32.47,32.47,0,0,1,3.43-1c3-.32,8.62-1.38,7.66-5.78A7.29,7.29,0,0,0,324,323.68Z"/>
                <path class="cls-104" d="M324.89,325c-.32.72-.53,1.55-.89,2.25-1.29,2.55-3.19,3.15-5.52,4.33a15.69,15.69,0,0,1-5.86,2.1,23.06,23.06,0,0,0-6.32,1.57,27.81,27.81,0,0,1-7.22,2.2c-2.23.32-4.4,1.51-6.71,1.42-3.18-.14-5.26-1.71-6.19-3.89a1.21,1.21,0,0,0,0,.19c.47,3.44,3.13,4.62,6.29,4.78,5.61.31,10.78-1.58,15.71-3.88a31.33,31.33,0,0,1,6.37-2.39,32.47,32.47,0,0,1,3.43-1c3-.32,8.62-1.38,7.66-5.78A6.88,6.88,0,0,0,324.89,325Z"/>
                <path class="cls-105" d="M308,331.54c2.9-3.74-1.63-5.6-4.83-6a16.48,16.48,0,0,0-9.26,1.46c-2.51,1.31-5.76,3.13-4.52,6.53,1,2.64,6.28,2.19,8.35,2C300.63,335.28,306.09,334,308,331.54Z"/>
                <path class="cls-106" d="M294.67,332.63c-.93-.24-1.83-.42-2.14-.55-.73-.29-2.17-1.11-2.18.33,0,1.11,1.61,2.31,2.36,2.5s5.07.37,4.75-1C297.33,333.39,296,333,294.67,332.63Z"/>
                <path class="cls-106" d="M300.31,334.45c2.7-.37-.81-1.8-1.3-.6C298.81,334.35,299.91,334.51,300.31,334.45Z"/>
                <path class="cls-3" d="M290.82,337.64c-1.47.06-3.85-1.51-2.82-3.3.53-.91,1.77.4,2.22.75a6.1,6.1,0,0,0,3.4,1.6c1,.15,1.54.26.18.84C292.94,337.89,291.73,337.6,290.82,337.64Z"/>
                <path class="cls-3" d="M305.1,335.06l0,0a18.92,18.92,0,0,1,3.17-.82c.39-.11-.87-.68-.91-.69a4.06,4.06,0,0,0-2,.49c-.52.2-1.4.31-1.79.74s-.77,1.39.06,1.42C303.93,336.19,304.74,335.27,305.1,335.06Z"/>
              </g>
              <g>
                <path class="cls-107" d="M302.28,305.33a30.45,30.45,0,0,0,8.51,2.07c1.09.08,2.16-.12,3.24-.09,2.91.09,3.76-3.46,3.07-5.69a11.07,11.07,0,0,0-3.49-5,20.39,20.39,0,0,0-6.56-3.82,24.55,24.55,0,0,0-6.7-1.5,11.78,11.78,0,0,0-7.84,2c-1.69,1.35-2.69,4.15-.95,5.77a19.83,19.83,0,0,0,3.15,2.18A52.66,52.66,0,0,0,302.28,305.33Z"/>
                <path class="cls-83" d="M308.87,293.62a19.78,19.78,0,0,0-1.82-.78s-7.73-3.22-13-.33c.38,2.54,6.46,3.06,7.76,3.15a11.32,11.32,0,0,0,5.81-.88A3,3,0,0,0,308.87,293.62Z"/>
                <g class="cls-108">
                  <path class="cls-109" d="M302.28,305.33a30.45,30.45,0,0,0,8.51,2.07c1.09.08,2.16-.12,3.24-.09a2.89,2.89,0,0,0,2.79-1.77,2,2,0,0,1-3-.31c-.67-.7-1-3.43-2.51-3-.48.13-.79,1-1.14,1.39a5.24,5.24,0,0,1-3.86,1.47c-1.82,0-4-1.12-4.56-3-.25-.88.6-2-.24-2.38a5.46,5.46,0,0,0-2.27.12,9.06,9.06,0,0,1-3,.23c-1.8-.36-4.95-2.49-4.61-4.56.07-.41.34-1.11.56-1.84-1.49,1.42-2.26,4-.63,5.49a19.83,19.83,0,0,0,3.15,2.18A52.66,52.66,0,0,0,302.28,305.33Z"/>
                  <path class="cls-109" d="M313.26,296.84a8.24,8.24,0,0,1,1.16.57q-.39-.39-.81-.75a20.72,20.72,0,0,0-3.94-2.68,1.08,1.08,0,0,0-.11,1.17C309.94,296.14,312.37,296.48,313.26,296.84Z"/>
                </g>
                <g class="cls-108">
                  <path class="cls-109" d="M302.87,305.55a33.88,33.88,0,0,1-3.86-2.74c-1.38-.89-2.7-1.77-4-2.74a8.56,8.56,0,0,0-2.13-1.23c-.48-.16-1-.09-1.39-.41a2.5,2.5,0,0,1-.77-1.86,2.94,2.94,0,0,0,.88,2.57,19.83,19.83,0,0,0,3.15,2.18,52.66,52.66,0,0,0,7.57,4Z"/>
                  <path class="cls-109" d="M310.79,307.4c1.09.08,2.16-.12,3.24-.09a2.8,2.8,0,0,0,1.79-.53,2.14,2.14,0,0,1-.78.2,4.39,4.39,0,0,1-2.82-.74c-.59-.5-.38-1.54-.92-1.85-.42.9-.84,2.28-2.08,2-.67-.17-.9-.77-1.15-1.29a6.88,6.88,0,0,1-4.37.78A27.85,27.85,0,0,0,310.79,307.4Z"/>
                </g>
              </g>
            </g>
            <g>
              <g>
                <g>
                  <rect class="cls-110" x="252.75" y="331.06" width="3.55" height="22.85"/>
                  <polygon class="cls-111" points="254.17 331.06 254.17 353.91 256.31 353.91 256.31 329.88 254.17 331.06"/>
                  <polygon class="cls-112" points="254.17 329.88 252.75 331.06 254.17 331.06 256.31 329.88 254.17 329.88"/>
                </g>
                <g>
                  <rect class="cls-110" x="249.52" y="328.42" width="3.55" height="22.85" transform="translate(9.11 -6.55) rotate(1.52)"/>
                  <polygon class="cls-111" points="251.25 328.42 250.64 351.26 252.77 351.32 253.41 327.29 251.25 328.42"/>
                  <polygon class="cls-112" points="251.28 327.24 249.82 328.38 251.25 328.42 253.41 327.29 251.28 327.24"/>
                </g>
                <g>
                  <rect class="cls-110" x="248.68" y="325.58" width="3.55" height="22.85" transform="translate(9.04 -6.53) rotate(1.52)"/>
                  <polygon class="cls-111" points="250.41 325.57 249.8 348.41 251.93 348.47 252.57 324.44 250.41 325.57"/>
                  <polygon class="cls-112" points="250.44 324.39 248.98 325.53 250.41 325.57 252.57 324.44 250.44 324.39"/>
                </g>
                <g>
                  <rect class="cls-110" x="252.65" y="323.44" width="3.55" height="22.85" transform="translate(-23.09 18.87) rotate(-4.06)"/>
                  <polygon class="cls-111" points="253.26 323.5 254.88 346.29 257.01 346.14 255.31 322.16 253.26 323.5"/>
                  <polygon class="cls-112" points="253.18 322.31 251.84 323.6 253.26 323.5 255.31 322.16 253.18 322.31"/>
                </g>
                <g>
                  <rect class="cls-110" x="246.27" y="331.67" width="3.55" height="22.85" transform="translate(-108.36 114.59) rotate(-21.47)"/>
                  <polygon class="cls-111" points="243.53 332.59 251.9 353.85 253.88 353.07 245.09 330.71 243.53 332.59"/>
                  <polygon class="cls-112" points="243.1 331.49 242.21 333.11 243.53 332.59 245.09 330.71 243.1 331.49"/>
                </g>
                <g>
                  <rect class="cls-110" x="255.67" y="326.33" width="3.55" height="22.85"/>
                  <polygon class="cls-111" points="257.1 326.33 257.1 349.18 259.23 349.18 259.23 325.15 257.1 326.33"/>
                  <polygon class="cls-112" points="257.1 325.15 255.67 326.33 257.1 326.33 259.23 325.15 257.1 325.15"/>
                </g>
                <g>
                  <rect class="cls-110" x="254.25" y="328.44" width="3.55" height="22.85" transform="translate(-35.51 29.92) rotate(-6.26)"/>
                  <polygon class="cls-111" points="254.43 328.55 256.92 351.26 259.04 351.03 256.42 327.14 254.43 328.55"/>
                  <polygon class="cls-112" points="254.3 327.37 253.01 328.7 254.43 328.55 256.42 327.14 254.3 327.37"/>
                </g>
                <g>
                  <rect class="cls-110" x="258.52" y="323.49" width="3.55" height="22.85"/>
                  <polygon class="cls-111" points="259.94 323.5 259.94 346.34 262.07 346.34 262.07 322.31 259.94 323.5"/>
                  <polygon class="cls-112" points="259.94 322.31 258.52 323.5 259.94 323.5 262.07 322.31 259.94 322.31"/>
                </g>
                <g>
                  <rect class="cls-110" x="261.61" y="326.49" width="3.55" height="22.85" transform="translate(23.39 -16.99) rotate(3.87)"/>
                  <polygon class="cls-111" points="263.8 326.49 262.26 349.29 264.39 349.43 266.01 325.45 263.8 326.49"/>
                  <polygon class="cls-112" points="263.88 325.31 262.38 326.39 263.8 326.49 266.01 325.45 263.88 325.31"/>
                </g>
                <g>
                  <rect class="cls-110" x="264.05" y="329.19" width="3.55" height="22.85" transform="translate(51.38 -34.48) rotate(8.21)"/>
                  <polygon class="cls-111" points="267.11 329.26 263.84 351.87 265.95 352.18 269.39 328.39 267.11 329.26"/>
                  <polygon class="cls-112" points="267.28 328.08 265.7 329.06 267.11 329.26 269.39 328.39 267.28 328.08"/>
                </g>
                <g>
                  <rect class="cls-110" x="266.37" y="332.46" width="3.55" height="22.85" transform="translate(90.21 -54.23) rotate(13.86)"/>
                  <polygon class="cls-111" points="270.54 332.7 265.07 354.89 267.14 355.4 272.89 332.07 270.54 332.7"/>
                  <polygon class="cls-112" points="270.82 331.56 269.16 332.37 270.54 332.7 272.89 332.07 270.82 331.56"/>
                </g>
                <g>
                  <rect class="cls-110" x="247.34" y="327.34" width="3.55" height="22.85" transform="translate(-65.06 59.27) rotate(-12.01)"/>
                  <polygon class="cls-111" points="246.39 327.66 251.14 350.01 253.23 349.57 248.22 326.06 246.39 327.66"/>
                  <polygon class="cls-112" points="246.14 326.5 245 327.96 246.39 327.66 248.22 326.06 246.14 326.5"/>
                </g>
              </g>
              <path class="cls-113" d="M265.77,336.42h0c-6,4.73-11.33,4.73-17.31,0h0l-6,3.16,3.86,24.49a.94.94,0,0,0,.93.8H267a.94.94,0,0,0,.93-.8l3.86-24.49Z"/>
              <path class="cls-114" d="M265.77,336.42v28.45H267a.94.94,0,0,0,.93-.8l3.86-24.49Z"/>
              <path class="cls-115" d="M242.43,339.58l3.86,24.49a.94.94,0,0,0,.93.8h1.24V336.42Z"/>
              <path class="cls-116" d="M248.46,338.11h0c6,4.73,11.33,4.73,17.31,0h0l5.78,3,.25-1.56-6-3.16h0c-6,4.73-11.33,4.73-17.31,0h0l-6,3.16.25,1.56Z"/>
              <polygon class="cls-117" points="265.77 338.11 271.55 341.14 271.8 339.58 265.77 336.43 265.77 338.11 265.77 338.11"/>
              <polygon class="cls-3" points="248.46 338.11 248.46 336.43 248.46 336.43 245.45 338 242.43 339.58 242.68 341.14 248.46 338.11 248.46 338.11"/>
            </g>
            <path class="cls-118" d="M273.05,217.6s0,.06-.06.05c-.21,0,.49-4.77,3.29-7.2a11.64,11.64,0,0,1,5.28-2.62,11.34,11.34,0,0,1,7.66,1.25,10.46,10.46,0,0,1,4.71,6.19,12.75,12.75,0,0,0-6.43-3.73,12.49,12.49,0,0,0-9.52,1.64A36.12,36.12,0,0,0,273.05,217.6Z"/>
            <path class="cls-118" d="M317,216.54a10.4,10.4,0,0,1,13.62-8.29c5.47,1.68,7.3,7,7.47,7.52-2-1-7.83-5.9-15.48-3.44C319.82,213.22,318.5,215.35,317,216.54Z"/>
          </g>
        </g>
      </g>
    </g>
  </g>
</svg>
