<svg id="Layer_1" data-name="Layer 1" xmlns="http://www.w3.org/2000/svg" xmlns:xlink="http://www.w3.org/1999/xlink" width="619.88" height="562.43" viewBox="0 0 619.88 562.43">
  <defs>
    <style>
      .cls-1, .cls-57 {
        fill: none;
      }

      .cls-2, .cls-76 {
        fill: #fff;
      }

      .cls-3 {
        clip-path: url(#clip-path);
      }

      .cls-4 {
        fill: #cdaa6a;
      }

      .cls-5 {
        fill: #c4b7a3;
      }

      .cls-6 {
        fill: #80ddda;
      }

      .cls-7 {
        fill: #020202;
        stroke: #201d1e;
        stroke-width: 1px;
        opacity: 0.2;
      }

      .cls-12, .cls-14, .cls-16, .cls-17, .cls-18, .cls-20, .cls-21, .cls-30, .cls-32, .cls-33, .cls-35, .cls-47, .cls-48, .cls-57, .cls-58, .cls-61, .cls-62, .cls-63, .cls-68, .cls-7, .cls-72, .cls-75, .cls-76, .cls-8 {
        stroke-miterlimit: 10;
      }

      .cls-8 {
        fill: #fdd3ca;
        stroke: #af8680;
      }

      .cls-10, .cls-11, .cls-12, .cls-13, .cls-14, .cls-16, .cls-17, .cls-18, .cls-20, .cls-21, .cls-33, .cls-35, .cls-47, .cls-48, .cls-57, .cls-58, .cls-62, .cls-63, .cls-72, .cls-75, .cls-8 {
        stroke-width: 0.75px;
      }

      .cls-9 {
        fill: #e3ae9f;
      }

      .cls-10 {
        fill: #df71e2;
        stroke: #710e7c;
      }

      .cls-10, .cls-11, .cls-13 {
        stroke-linejoin: round;
      }

      .cls-11, .cls-17 {
        fill: #311415;
      }

      .cls-11, .cls-13 {
        stroke: #190500;
      }

      .cls-12 {
        fill: #bcd0eb;
      }

      .cls-12, .cls-14, .cls-20 {
        stroke: #453323;
      }

      .cls-13 {
        fill: #895b5e;
      }

      .cls-14 {
        fill: #f6e982;
      }

      .cls-15 {
        fill: #b9908b;
      }

      .cls-16, .cls-61 {
        fill: #61435b;
        stroke: #1c101a;
      }

      .cls-17, .cls-57 {
        stroke: #1c0103;
      }

      .cls-18, .cls-58, .cls-64 {
        fill: #f9dad2;
      }

      .cls-18 {
        stroke: #4c2606;
      }

      .cls-19 {
        fill: #db9d8e;
      }

      .cls-20 {
        fill: #de97fc;
      }

      .cls-21, .cls-24 {
        fill: #f9d1c6;
      }

      .cls-21, .cls-63 {
        stroke: #323232;
      }

      .cls-22 {
        fill: #f8e1db;
      }

      .cls-23 {
        fill: #342517;
      }

      .cls-25 {
        fill: #323232;
      }

      .cls-26 {
        fill: #342516;
      }

      .cls-27 {
        fill: #661e1b;
      }

      .cls-28 {
        fill: #d26653;
      }

      .cls-29 {
        fill: #f9988f;
      }

      .cls-30 {
        fill: #f9f8f7;
      }

      .cls-30, .cls-58 {
        stroke: #7f430d;
      }

      .cls-30, .cls-61 {
        stroke-width: 0.5px;
      }

      .cls-31 {
        fill: #fdefec;
      }

      .cls-32 {
        fill: #d6aba5;
        stroke: #7f451d;
      }

      .cls-32, .cls-76 {
        stroke-width: 0.25px;
      }

      .cls-33 {
        fill: #ff4848;
      }

      .cls-33, .cls-35 {
        stroke: #7f4444;
      }

      .cls-34 {
        fill: url(#linear-gradient);
      }

      .cls-35 {
        fill: #e54141;
      }

      .cls-36 {
        fill: #51b77d;
      }

      .cls-37 {
        fill: #7f430d;
      }

      .cls-38 {
        fill: #692e21;
      }

      .cls-38, .cls-40, .cls-41, .cls-42, .cls-43, .cls-44, .cls-45, .cls-46, .cls-47, .cls-48, .cls-52, .cls-53, .cls-54, .cls-55, .cls-56, .cls-89, .cls-90, .cls-91, .cls-92, .cls-93, .cls-94 {
        fill-rule: evenodd;
      }

      .cls-39 {
        fill: #af834c;
      }

      .cls-40 {
        fill: #306f30;
      }

      .cls-41 {
        fill: url(#GradientFill_12);
      }

      .cls-42 {
        fill: url(#GradientFill_13);
      }

      .cls-43 {
        fill: #927a63;
      }

      .cls-44 {
        fill: #ac634e;
      }

      .cls-45 {
        fill: url(#GradientFill_3);
      }

      .cls-46 {
        fill: url(#GradientFill_6);
      }

      .cls-47 {
        fill: #753232;
        stroke: #592626;
      }

      .cls-48 {
        fill: #9b5745;
        stroke: #602d2d;
      }

      .cls-49 {
        fill: url(#GradientFill_9);
      }

      .cls-50 {
        fill: url(#GradientFill_9-2);
      }

      .cls-51 {
        fill: url(#GradientFill_9-3);
      }

      .cls-52 {
        fill: #72a13f;
      }

      .cls-53 {
        fill: url(#GradientFill_10);
      }

      .cls-54 {
        fill: url(#GradientFill_11);
      }

      .cls-55 {
        fill: url(#GradientFill_3-2);
      }

      .cls-56 {
        fill: url(#GradientFill_6-2);
      }

      .cls-59 {
        fill: #eab8ad;
      }

      .cls-60 {
        fill: #2d1708;
      }

      .cls-62, .cls-65 {
        fill: #f7d8d0;
      }

      .cls-62 {
        stroke: #7f441d;
      }

      .cls-63 {
        fill: #72105d;
      }

      .cls-66 {
        fill: #7f441d;
      }

      .cls-67 {
        fill: #e9b7ac;
      }

      .cls-68 {
        fill: #e7d760;
        stroke: #baa73b;
      }

      .cls-69 {
        fill: #e6b9b0;
      }

      .cls-70, .cls-82 {
        fill: #a45926;
      }

      .cls-71 {
        fill: #ef4b3b;
      }

      .cls-72 {
        fill: #e16faa;
      }

      .cls-72, .cls-75 {
        stroke: #ae2085;
      }

      .cls-73 {
        fill: #faf079;
      }

      .cls-74 {
        fill: #c5248e;
      }

      .cls-75 {
        fill: #d35ba1;
      }

      .cls-76 {
        stroke: #3d2e17;
      }

      .cls-77 {
        fill: #3d2e17;
      }

      .cls-78 {
        fill: #8c3e36;
      }

      .cls-79 {
        fill: #f5968e;
      }

      .cls-80 {
        fill: #fff6f3;
      }

      .cls-81 {
        fill: #f48678;
      }

      .cls-82 {
        opacity: 0.47;
      }

      .cls-83 {
        fill: #c37946;
      }

      .cls-84 {
        fill: #89513a;
      }

      .cls-85 {
        opacity: 0.12;
      }

      .cls-86 {
        fill: #d58349;
      }

      .cls-87 {
        fill: #e99c48;
      }

      .cls-88 {
        fill: #edb777;
      }

      .cls-89 {
        opacity: 0.3;
      }

      .cls-90 {
        fill: #9084a4;
      }

      .cls-91 {
        fill: #eadedd;
      }

      .cls-92 {
        fill: #f5f6f5;
      }

      .cls-93 {
        fill: #b7aec4;
      }

      .cls-94 {
        fill: #6c6383;
      }

      .cls-95 {
        fill: #029298;
      }

      .cls-96 {
        fill: #cbcbca;
      }

      .cls-97 {
        fill: #dfdfdf;
      }

      .cls-98 {
        fill: #d3d5d5;
      }

      .cls-99 {
        fill: #efeeee;
      }

      .cls-100 {
        fill: #cce9e8;
      }

      .cls-101 {
        fill: #c8e9f1;
      }

      .cls-102 {
        clip-path: url(#clip-path-2);
      }

      .cls-103 {
        clip-path: url(#clip-path-3);
      }

      .cls-104 {
        fill: #c3b6a2;
      }
    </style>
    <clipPath id="clip-path">
      <rect class="cls-1" x="40.37" y="56.57" width="539.14" height="449.28" rx="116.93"/>
    </clipPath>
    <linearGradient id="linear-gradient" x1="1606.84" y1="9434.75" x2="1603.67" y2="9428.63" gradientTransform="matrix(1.52, 0.01, 0, -0.34, -2199.47, 3539.21)" gradientUnits="userSpaceOnUse">
      <stop offset="0" stop-color="#dcc499"/>
      <stop offset="1" stop-color="#e5d8c0"/>
    </linearGradient>
    <linearGradient id="GradientFill_12" data-name="GradientFill 12" x1="287.82" y1="383.38" x2="310.49" y2="383.38" gradientTransform="translate(-154.08 -1.9) rotate(-2.36)" gradientUnits="userSpaceOnUse">
      <stop offset="0" stop-color="#cdb997"/>
      <stop offset="1" stop-color="#e7d4b6"/>
    </linearGradient>
    <linearGradient id="GradientFill_13" data-name="GradientFill 13" x1="287.92" y1="384.06" x2="310.42" y2="384.06" gradientTransform="translate(-154.08 -1.9) rotate(-2.36)" gradientUnits="userSpaceOnUse">
      <stop offset="0" stop-color="#b19f83"/>
      <stop offset="1" stop-color="#d1bea1"/>
    </linearGradient>
    <linearGradient id="GradientFill_3" data-name="GradientFill 3" x1="283.54" y1="402.74" x2="305.09" y2="402.74" gradientTransform="translate(-154.08 -1.9) rotate(-2.36)" gradientUnits="userSpaceOnUse">
      <stop offset="0" stop-color="#ebd7b5"/>
      <stop offset="1" stop-color="#f9efd6"/>
    </linearGradient>
    <linearGradient id="GradientFill_6" data-name="GradientFill 6" x1="283.54" y1="402.74" x2="305.09" y2="402.74" gradientTransform="translate(-154.08 -1.9) rotate(-2.36)" gradientUnits="userSpaceOnUse">
      <stop offset="0" stop-color="#cdbb9f"/>
      <stop offset="1" stop-color="#e3d4b6"/>
    </linearGradient>
    <linearGradient id="GradientFill_9" data-name="GradientFill 9" x1="341.79" y1="413.91" x2="341.79" y2="398.17" gradientTransform="translate(-154.08 -1.9) rotate(-2.36)" gradientUnits="userSpaceOnUse">
      <stop offset="0" stop-color="#ba8b51"/>
      <stop offset="1" stop-color="#f1c375"/>
    </linearGradient>
    <linearGradient id="GradientFill_9-2" x1="321.1" y1="415.22" x2="321.1" y2="399.2" xlink:href="#GradientFill_9"/>
    <linearGradient id="GradientFill_9-3" x1="360.03" y1="412.42" x2="360.03" y2="397.33" xlink:href="#GradientFill_9"/>
    <linearGradient id="GradientFill_10" data-name="GradientFill 10" x1="375.62" y1="392.15" x2="310.68" y2="392.15" gradientTransform="translate(-154.08 -1.9) rotate(-2.36)" gradientUnits="userSpaceOnUse">
      <stop offset="0" stop-color="#bca886"/>
      <stop offset="1" stop-color="#d1bea1"/>
    </linearGradient>
    <linearGradient id="GradientFill_11" data-name="GradientFill 11" x1="375.98" y1="391.03" x2="309.84" y2="391.03" gradientTransform="translate(-154.08 -1.9) rotate(-2.36)" gradientUnits="userSpaceOnUse">
      <stop offset="0" stop-color="#9c886d"/>
      <stop offset="1" stop-color="#bca88d"/>
    </linearGradient>
    <linearGradient id="GradientFill_3-2" x1="287.82" y1="388.87" x2="310.49" y2="388.87" xlink:href="#GradientFill_3"/>
    <linearGradient id="GradientFill_6-2" x1="287.92" y1="387.6" x2="310.42" y2="387.6" xlink:href="#GradientFill_6"/>
    <clipPath id="clip-path-2">
      <rect class="cls-1" x="1259.93" y="56.3" width="539.79" height="449.82" rx="116.93"/>
    </clipPath>
    <clipPath id="clip-path-3">
      <rect class="cls-1" x="1005.04" y="40.65" width="1019.88" height="573.68"/>
    </clipPath>
  </defs>
  <g>
    <rect class="cls-2" x="30.99" y="47.48" width="557.91" height="467.47" rx="124.29"/>
    <g class="cls-3">
      <g>
        <g>
          <rect class="cls-4" x="-217" y="454.03" width="1084.11" height="50.47"/>
          <rect class="cls-5" x="-197.94" y="501.13" width="1039.03" height="53.8"/>
          <rect class="cls-6" x="-197.94" y="-18.85" width="1039.03" height="503.58"/>
        </g>
        <g>
          <ellipse class="cls-7" cx="170.21" cy="534.26" rx="73.75" ry="14.54"/>
          <g>
            <g>
              <g>
                <g>
                  <g>
                    <g>
                      <path class="cls-8" d="M203.38,456.72s-10,45.73-12.61,49.71-13.91,9.29-21.44,8.42c0,0,5.32-47,8.54-54.42S203.38,456.72,203.38,456.72Z"/>
                      <path class="cls-9" d="M202.29,460.35s-9.2,2.16-12.31,2.7a43,43,0,0,1-12.84.4s.58-3.67,1.57-4.39c1.42-1,24.67-3.29,24.67-3.29Z"/>
                    </g>
                    <g>
                      <path class="cls-10" d="M195.52,490.27a32.74,32.74,0,0,1-22.84-1.89L168.82,515s17.49,1.75,21.15-3.63Z"/>
                      <path class="cls-11" d="M202.35,514.53s-.76-8-8.43-7.55-13.29-1.87-16.08,2.2.28,6.39-9,3.93l.17-3.2s-4.72-1.44-5.75,1.61-1.3,9.15-2.76,12.2-1.9,4.94,0,5.67,30.14,15.36,55.05,6.33C215.55,535.72,230.39,517.4,202.35,514.53Z"/>
                      <path class="cls-11" d="M208.48,515.54s-12.62-1.59-17.6,9.75a16.4,16.4,0,0,0-1.52,6.1"/>
                      <path class="cls-12" d="M160,524.6s19.94,8.54,28.36,10.13,28.71-1.21,29.24-2.34-2.09,3.33-2.09,3.33-11.09,4.32-26.64,2.33a95.3,95.3,0,0,1-28.41-8.66S157.54,528.52,160,524.6Z"/>
                      <path class="cls-13" d="M202.35,514.53s-10.46-1.16-13,5,4.42,1.34,4.42,1.34,3.74-6,13.19-5.35C206.93,515.47,206.33,513.5,202.35,514.53Z"/>
                      <path class="cls-13" d="M201.63,511.84s-9.18-1.37-11.67,3,0,3.48,0,3.48,2.64-4.35,12.38-3.78Z"/>
                      <path class="cls-14" d="M196.42,486.87s-16.75,3.25-23.46-1.34l-.73,4.18s16.38,3.14,23.29,1.09Z"/>
                    </g>
                  </g>
                  <path class="cls-15" d="M205.39,447.1c-.15,2-.42,4.23-.81,6.78-.68,4.32-2.6,8-3.47,12-4.6.3-8.07.84-12.68.56-3.14-.2-8.69-.57-12.4-2.72l1.32-13.64,6.59-4.81a33.57,33.57,0,0,1,9.54-.73A38.47,38.47,0,0,1,205.39,447.1Z"/>
                </g>
                <g>
                  <g>
                    <path class="cls-8" d="M169.17,462.11S159.56,503.1,158,509s-19.23,8.95-25.87,7c0,0,10.64-49.69,13.77-55.14S169.17,462.11,169.17,462.11Z"/>
                    <path class="cls-15" d="M167,469.52s-8.48-.95-11.6-1.47c-7.29-1.24-10.62-3.16-10.62-3.16a39.68,39.68,0,0,0,1.34-4.38c-.44-1.7,22.34,3.6,22.34,3.6Z"/>
                  </g>
                  <g>
                    <path class="cls-10" d="M161.74,493.62a36.25,36.25,0,0,1-24.05-1.9l-6.41,26.19s21.48,1.5,25.29-3.88Z"/>
                    <path class="cls-11" d="M165.8,517.4s-.76-8-8.43-7.55-13.29-1.87-16.08,2.2.28,6.39-9,3.93l.17-3.19s-4.72-1.45-5.75,1.6-1.3,9.15-2.76,12.2-1.91,4.95,0,5.67,30.14,15.36,55.05,6.33C179,538.59,193.84,520.27,165.8,517.4Z"/>
                    <path class="cls-11" d="M171.93,518.41s-12.62-1.59-17.6,9.75a16.4,16.4,0,0,0-1.52,6.1"/>
                    <path class="cls-12" d="M123.49,527.47s19.94,8.54,28.36,10.13,28.71-1.21,29.24-2.33-2.09,3.32-2.09,3.32-11.09,4.32-26.64,2.33A95.3,95.3,0,0,1,124,532.26S121,531.39,123.49,527.47Z"/>
                    <path class="cls-13" d="M165.8,517.4s-10.46-1.15-13,5,4.42,1.34,4.42,1.34,3.74-6,13.19-5.35C170.38,518.34,169.78,516.37,165.8,517.4Z"/>
                    <path class="cls-13" d="M165.08,514.71s-9.18-1.37-11.67,3,0,3.48,0,3.48,2.64-4.35,12.38-3.78Z"/>
                    <path class="cls-14" d="M162.5,490.12s-17.36,3.25-24.31-1.34l-1,4.17s17.19,3.16,24.36,1.1Z"/>
                  </g>
                </g>
                <path class="cls-16" d="M181.17,470.26s15.08,4.32,30.15-1.4c0,0,2-3.71,2.47-18.55s.29-33.25-.1-37.84l-6.39-10.31-65.25,4.51s-2.76,4.22-2.57,8.39"/>
                <path class="cls-16" d="M140.5,410.16A95.42,95.42,0,0,0,137.21,422c-1.14,5.8-2.76,32.33-4.15,36.69s8.11,12.47,25.62,15.14,24.47-3.36,24.7-5.22,3.94-31.88,3.94-31.88"/>
                <path class="cls-17" d="M209.12,396.84l5.13,2v12.58c-6.72,4-13.21,5-20,6.58-5.05,1.16-7.79,1.11-12.57,1.31-16.59.67-35.9-5.53-41.64-7.7l1.2-7.21c8.19,1.44,21.47.55,35.43-.9C187,402.45,197,401,204.12,400,207.39,399.47,210.1,397.47,209.12,396.84Z"/>
              </g>
              <path class="cls-16" d="M172.49,412.85h0c-.14.29-1,6.83-1.08,7.18l0,0,1.93.34a11,11,0,0,1,2-.08l.24-6.78A21.85,21.85,0,0,0,172.49,412.85Z"/>
              <path class="cls-16" d="M154.5,409.7c-.33-.1-3.73-.23-3.73-.23s-1,6.61-1,6.61l3.16.54Z"/>
              <path class="cls-16" d="M205.87,410.16s.75,5.14.75,6.18c0,0,3.37-.58,4.06-1.57l-1-6.43S205.75,409.3,205.87,410.16Z"/>
              <path class="cls-18" d="M267,372l-6,7.94s-13.75-3.57-24.86-5.78c-9.88-2-22.31-8.72-31.77-19.63-1.18-1.34-2.3-2.76-3.37-4.23-9.72-13.39,14.73-13.73,14.73-13.73l4.63,4.08,9.14,8.06S250.48,366.66,267,372Z"/>
              <path class="cls-19" d="M220.15,341.34c-3.9,7.86-11.19,11.29-15.8,13.18-1.18-1.34-2.3-2.76-3.37-4.23-9.72-13.39,14.73-13.73,14.73-13.73Z"/>
              <path class="cls-10" d="M190.34,306s13.87,5.89,28.53,31.3c0,0-5,9.17-18.27,18.09l-14.36-10.86Z"/>
              <path class="cls-10" d="M201.59,321.27c7.34,18.8,9.08,30.39,9.08,30.39,8.22,34.1,4.75,55.29,4.75,55.29-26.23,15.4-76.37,1.56-75.52-2,1.94-8.14-1.75-16.71-3.13-25.31a173.43,173.43,0,0,1-2.43-27.59c2.12-37.75,12.28-39.32,21.78-44.67,5.61-3.16,26.16-12.74,26.16-12.74"/>
              <path class="cls-20" d="M192.27,312.78c-.89,4.64-7.05,7.67-13.6,7.4-12.78-.52-17.19-8.58-18.71-13.94,3.81-1.68,6.54-2.64,6.54-2.64,17.41-1.31,23.7,3.65,23.7,3.65S193.17,308.15,192.27,312.78Z"/>
              <g>
                <path class="cls-21" d="M190.19,294.81a27.8,27.8,0,0,0-1.72,3.3c-3,6.88-.65,10.63-.65,10.63-1.29,1.35-2.25,4-3.52,4.83-11.1,7-21.17-6.86-21.17-6.86l1.1-4.5L167.48,289c5.47-2.74,9.83-3,13.21-2.08C187.36,288.64,190.19,294.81,190.19,294.81Z"/>
                <path class="cls-19" d="M187.45,308.52a28.56,28.56,0,0,1-5,3.62c-6.05.27-13.29-1.21-18.69-5.53L167.48,289c5.47-2.74,9.83-3,13.21-2.08a58.3,58.3,0,0,1,7.78,11.22C185.51,305,187.45,308.52,187.45,308.52Z"/>
              </g>
            </g>
            <g>
              <path class="cls-16" d="M184.8,315c-1-.18-4.55-1.91-10.68,1.36s3.18,8.93,3.18,8.93l7.15-1.21S193,316.49,184.8,315Z"/>
              <path class="cls-10" d="M177.27,315.06c.62.22-11.44,12.93-11.44,12.93s-7.3-10.27-10.45-21.48l8.08-4.26S165.22,310.83,177.27,315.06Z"/>
              <g>
                <path class="cls-16" d="M173.76,362.07c.24.46.46.91.7,1.35h0c7.3,13.76,17,19.81,17,19.81A79.45,79.45,0,0,0,197,373.06a47.49,47.49,0,0,0,1.72-4.44,17.94,17.94,0,0,0,1.14-5.51q-.51-2.69-1.1-5.16c-.35-1.55-.73-3-1.12-4.46a111,111,0,0,0-3.5-10.75q-.91-2.37-1.82-4.39C188.44,329.68,185,325.69,185,325c.07-1.89-7.89-.13-7.89-.13a62,62,0,0,1,.11,9.47c-.06,1.07-.14,2.16-.22,3.27-.25,3.18-.6,6.43-1,9.49-.15,1.07-.29,2.12-.42,3.12-.51,3.72-1,6.95-1.4,9.1C174,361.05,173.76,362.07,173.76,362.07Z"/>
                <path class="cls-22" d="M177,337.64a56.93,56.93,0,0,1,16.61,5.11c-.61-1.57-1.3-3.2-1.9-4.55a66,66,0,0,0-14.49-3.83C177.2,335.44,177.12,336.53,177,337.64Z"/>
                <path class="cls-22" d="M176.09,350.45c6.11,1.47,16.25,4.26,22.21,7.56-.35-1.54-.8-3.32-1.19-4.74a82.51,82.51,0,0,0-20.61-6.06C176.35,348.27,176.22,349.45,176.09,350.45Z"/>
                <path class="cls-22" d="M174.24,362c.23.45.47,1,.71,1.46h0c6.05,1.76,15.48,4.87,21.67,9.33a40.88,40.88,0,0,0,1.68-4.39,120,120,0,0,0-23.65-9C174.36,361.12,174.24,362,174.24,362Z"/>
              </g>
              <path class="cls-10" d="M190.67,300.39c.77.55,7.19,5.11,7.52,8.1s-2.88,18.28-2.88,18.28l-13.18-12a40,40,0,0,0,7.37-10.22Z"/>
            </g>
            <g>
              <path class="cls-21" d="M223.3,268.81c-3.93,7.3-11.64,10.24-17.69,7.38s-3.62-6.93.3-14.23,4.07-6.46,10.3-9.18C229.85,246.82,227.23,261.5,223.3,268.81Z"/>
              <g>
                <path class="cls-19" d="M217.24,266.92s2.78-11.43,6.17-11A36.28,36.28,0,0,0,217.24,266.92Z"/>
                <path class="cls-19" d="M218.16,264.5s3.25.7,3.23,5C221.39,269.51,222.57,264.56,218.16,264.5Z"/>
              </g>
              <path class="cls-21" d="M208.94,221.24c-24.06-14.17,8.62-31.66-23.76-31.56-31.43.1-49.94,15.64-51,42.76-.51,12.54,4.39,24.21,4.31,24.88-3.67,31.77,21.56,48,40.44,50.51,8.58,1.15,18-3.39,25.82-8.61,6.95-4.66,18.65-18.35,16.58-40.45C221.23,258.09,229,233,208.94,221.24Z"/>
              <path class="cls-19" d="M153.84,219.55s6.61,9.29,41.9,9.25l-.93-4.64s2,6.49,23.65,10.33l2.25,25.05,5.85-52.28-74.35-6.06-11.55,11.42.39,13.88s-5.94,26.07-4.83,35.49l1.31.66c4.56-5.94,6.13-13.2,7.76-20.35h0S152.4,245.26,153.84,219.55Z"/>
              <path class="cls-23" d="M151.09,212.62s-3.75,10.83,43.43,13.58c0,0-1.21-.55-5.18-11.43,5.18,13.4,17.42,13.81,26.36,16.62l4-13.65,1,41.8s4.14-12.49,5.43-17.58c0,0,4.52-14.18,2.38-23.39a47.54,47.54,0,0,1,2.7,8.81s13.23-27.79-6-37.58c0,0-2.45-.93,2.1.12,0,0-17.16-16.44-45-17.67-14.56-.65-24.55-.07-37.26,9.75a15.89,15.89,0,0,0-14.68,9.78s4.19-1.86,6.54-1.69c0,0-11,4.7-15,25.19-3.76,19.35-3.49,36.14,15,47.37,0,0,7.45-11.06,5.38-28.38l3.9,6.6S154.11,235.7,151.09,212.62Z"/>
              <path class="cls-21" d="M141.44,271.34c-7.69,5-13.62,0-16.18-7.48S123.45,246,133,248.28a14.57,14.57,0,0,1,8.06,9.61"/>
              <g>
                <path class="cls-19" d="M139.4,264.5s-6.5-10.59-10.59-9.48A41.53,41.53,0,0,1,139.4,264.5Z"/>
                <path class="cls-19" d="M137.48,262a4.45,4.45,0,0,0-2.67,5.58S132,263,137.48,262Z"/>
              </g>
            </g>
            <g>
              <g>
                <path class="cls-24" d="M183.26,272.46c6.32,6.25,12.62,1.06,12.77-1.79,0,0,.46-3-2.77-6.1s-1.55-11.44-1.55-11.44"/>
                <path class="cls-25" d="M183.29,272.43a10.86,10.86,0,0,0,3.23,2.19,7,7,0,0,0,7.26-.93,4.81,4.81,0,0,0,1.95-3v0a6.84,6.84,0,0,0-1.35-4.17,15,15,0,0,0-1.49-1.73,5.59,5.59,0,0,1-1.27-2.14,13.15,13.15,0,0,1-.59-4.76,22.54,22.54,0,0,1,.64-4.7l.07,0a31.91,31.91,0,0,0-.24,4.68,13.93,13.93,0,0,0,.77,4.52,5.53,5.53,0,0,0,1.16,1.85A11.61,11.61,0,0,1,195,266a7.31,7.31,0,0,1,1.33,4.69v0a5.31,5.31,0,0,1-2.26,3.4,7.29,7.29,0,0,1-7.66.75,11.33,11.33,0,0,1-3.19-2.34Z"/>
              </g>
              <path class="cls-26" d="M177,232.64s.3-3-4.4-3.16-11.23,4.58-11.79,7.82C160.78,237.3,170.38,230.67,177,232.64Z"/>
              <path class="cls-26" d="M195.12,235.7a4.3,4.3,0,0,1,4.62-2.43c3.53.36,7.92,4.58,8,7.06C207.74,240.33,200.25,234.91,195.12,235.7Z"/>
              <g>
                <path class="cls-27" d="M167.25,276.85c1.77,3.81,7.54,15.86,17.11,17.69,5.79,1.1,8.93-3.51,11.89-6.8.77-.85,1.5-1.75,2.23-2.65h0l1.11-1.36a30,30,0,0,1,3.14-3.31h0c.27-.24.55-.47.83-.68l.34-.26S195,283.93,170,276.63l-2.07-.78-.82-.31-.46-.17S166.83,275.93,167.25,276.85Z"/>
                <path class="cls-28" d="M193.29,289.55a6.59,6.59,0,0,0-5.58-1.69,13,13,0,0,0-9.42.93S186,294.69,193.29,289.55Z"/>
                <path class="cls-2" d="M169.69,277.23c9.7,9.27,18,10.59,23.93,9.27,6.21-1.37,3.49-5.44,7.57-5.37a11.62,11.62,0,0,0,2.38-1.4l.34-.26S195,283.93,170,276.63l-.08,0Z"/>
                <path class="cls-29" d="M167.25,276.85c1.77,3.81,7.54,15.86,17.11,17.69,5.79,1.1,8.93-3.51,11.89-6.8C186.36,295.13,178.48,292.5,167.25,276.85Z"/>
                <path class="cls-29" d="M167.89,275.85c18.55,10.48,30.14,7,34.64,4.74l.21-.18.1-.05c.25-.23.5-.45.73-.63l.34-.26S195,283.93,170,276.63Z"/>
                <path class="cls-28" d="M169.44,274.35s-4.74-.54-3.41,3C166,277.4,165.48,274.55,169.44,274.35Z"/>
                <path class="cls-28" d="M203,278.13s1.82.63.43,3.1C203.38,281.23,205.69,278.83,203,278.13Z"/>
              </g>
              <ellipse class="cls-30" cx="170.81" cy="251.11" rx="9.19" ry="8.28" transform="translate(-84.92 414.92) rotate(-88.42)"/>
              <ellipse class="cls-26" cx="172.5" cy="254.74" rx="5.21" ry="4.84" transform="translate(-86.92 420.12) rotate(-88.41)"/>
              <circle class="cls-31" cx="169.8" cy="250.34" r="1.3" transform="matrix(0.03, -1, 1, 0.03, -85.81, 412.1)"/>
              <path class="cls-32" d="M163.23,254a13.94,13.94,0,0,1,3.79-7.81,8.52,8.52,0,0,1,2.38-1.72,9,9,0,0,1,7,.14,8.11,8.11,0,0,0-5.89-2.5c-4.53.2-6.69,4.78-6.9,5.24A9.65,9.65,0,0,0,163.23,254Z"/>
              <ellipse class="cls-30" cx="199.89" cy="253.72" rx="9.19" ry="7.57" transform="translate(-59.25 446.53) rotate(-88.42)"/>
              <ellipse class="cls-26" cx="201.46" cy="257.35" rx="5.17" ry="4.45" transform="translate(-61.35 451.64) rotate(-88.42)"/>
              <ellipse class="cls-31" cx="198.71" cy="252.95" rx="1.46" ry="1.34" transform="translate(-59.65 444.59) rotate(-88.42)"/>
              <path class="cls-32" d="M192.84,256.19a10.84,10.84,0,0,1,3.19-6.81,9.45,9.45,0,0,1,3.62-2.15,9,9,0,0,1,5.36,0,6.63,6.63,0,0,0-3.78-2.31c-3.29-.63-5.78,1.79-6.23,2.23C191.51,250.58,192.77,255.88,192.84,256.19Z"/>
            </g>
            <g>
              <path class="cls-18" d="M259.23,379.48c7.45,5.25,10.82,6.11,18.14,6.94,7.08.8,9.21,0,9.21,0l1.83-.61a1,1,0,0,0,.07-2c-.57-.33-1.15-.43-.88-.39,6,.91,8-1.81,8-1.81,3.35-1.87,1.17-4.29,1.17-4.29,4.19-1.91.36-3.53.36-3.53-3-1.08-12.76.08-17.34-.75s-9.37-5.71-9.37-5.71-5.61-2.72-9.91,1.45"/>
              <path class="cls-18" d="M297.1,377.28a38.21,38.21,0,0,1-18-1.13"/>
              <path class="cls-18" d="M295.57,381.64s-6.8.46-17.63-2.45"/>
              <path class="cls-18" d="M287.6,383.45a35.38,35.38,0,0,1-10.23-1.81"/>
              <path class="cls-18" d="M278.69,372.88s1.95,5.85-4.15,11.4"/>
            </g>
            <g>
              <g>
                <path class="cls-33" d="M287.84,388.41l32.56-13.06L292.3,366l-37.58,17.53Z"/>
                <path class="cls-34" d="M255.91,383.36l32.37,4.81c1.08-1.8.54-8.26,0-9.94l-32.36-5C256.28,374.88,256.34,381.91,255.91,383.36Z"/>
                <path class="cls-35" d="M321.34,378.85l1.21-9.72-34.49,9.05c1.63,3.53.64,9.61.38,10Z"/>
                <path class="cls-33" d="M255.14,373.39l33,4.83L321.34,369l-31.11-3.35Z"/>
              </g>
              <path class="cls-36" d="M282,386l1.42-1.78,2.06,1.87s-.32-5.74.66-6.13c-.17,0-3.41-.63-3.58-.59C281.49,380.18,282,386,282,386Z"/>
            </g>
            <path class="cls-18" d="M257.93,371.12s4.68-6.18,11.1-7.38,12.52.43,16.63-1.37c0,0,3.11,6-8,5.84a26.47,26.47,0,0,0-7,.92"/>
            <g>
              <path class="cls-18" d="M141.68,362.84s-1.67,11.54,1.59,17.48c2.58,4.73,19.94,15.92,29.09,20.68,2.25,1.17,10.79,4.21,12.55,2.39l4-7.17,5.45-.53L160.8,378.57l-1.41-20.87S142.11,355.86,141.68,362.84Z"/>
              <path class="cls-10" d="M163.58,331.66s.41,20.65,2,30.47c0,0-2.9,3.64-16.32,4.84s-12.89-2-12.89-2-2.13-34.17,7.4-46.94"/>
            </g>
            <g>
              <path class="cls-37" d="M186.71,401.37a8.45,8.45,0,0,1-1.36-.15,8.08,8.08,0,0,1-1.3-.37,6.64,6.64,0,0,1-2.26-1.35,6.53,6.53,0,0,0,2.36,1,7.9,7.9,0,0,0,2.51.13Z"/>
              <path class="cls-18" d="M205.67,390.74c-5.22-6.18-10.14-1.8-10.14-1.8-7.21-5.1-13.94,0-13.94,0-6.44-6.86-11.19-2.83-11.38-.76s5.25,1.91,6,4.91c.66,2.56,2.42,7.14,2.42,7.14.55,3.71,2.6,4.42,4.88,6.6s5.94,2.22,7.12.38a16.67,16.67,0,0,1,2-2.55s3.14,2.19,5,2,3.43-3.19,3.43-3.19,1.79,1.33,3.26.52a6.14,6.14,0,0,0,2.23-2.34"/>
              <line class="cls-18" x1="194.79" y1="400.03" x2="195.55" y2="400.77"/>
              <g>
                <g>
                  <path class="cls-38" d="M172.7,384.84c20.77-2.14,41.45-3.75,62.56-5.73a7.23,7.23,0,0,1,2,2.88c-10,1.18-46.65,5-56.22,6.16a26.5,26.5,0,0,0-7.84-3Z"/>
                  <g>
                    <path class="cls-39" d="M204.73,381.84a18.28,18.28,0,0,1,1.41,3.54l-3.36.36a14.31,14.31,0,0,0-1.72-3.58Z"/>
                    <path class="cls-39" d="M184,383.72a20.12,20.12,0,0,1,1.57,3.9l-3.35.39a16.49,16.49,0,0,0-1.88-3.94Z"/>
                    <path class="cls-39" d="M222.83,380.24a17.31,17.31,0,0,1,1.54,3.18l-3.43.37a12.89,12.89,0,0,0-2-3.2Z"/>
                  </g>
                </g>
                <g>
                  <path class="cls-40" d="M230.27,364.79l-25.13-4.38L149.53,363c0,.32,0,.63.07.93l.74,1.16,16.93,4,2.25.06Z"/>
                  <path class="cls-41" d="M149.55,363.21l20,6,.2,5.38c-6.51-2.49-12.65-5-19.16-7.49C149.87,366.81,149.66,365.14,149.55,363.21Z"/>
                  <path class="cls-42" d="M149.82,365.67l4.76,2-3.82-.56-.2-.08c-.36-.13-.59-.66-.74-1.4Zm19.82,6.83-5.34-1.16,5.38,2.1Z"/>
                </g>
                <polygon class="cls-43" points="203.73 355.95 198.63 356.4 203.23 356.28 203.73 355.95"/>
                <g>
                  <polygon class="cls-44" points="144.49 388.03 149.71 387.65 168.56 398.22 164.75 400.21 144.81 389.37 144.49 388.03"/>
                  <path class="cls-45" d="M145.38,378.84a11.2,11.2,0,0,1,1.06,9.52L166.39,398s3-5.9-.77-10.71l-17.91-7.47Z"/>
                  <polygon class="cls-44" points="166.64 386.61 235.26 379.11 200.11 372.57 143.98 375.74 144.61 376.53 166.64 386.61"/>
                  <path class="cls-46" d="M145.38,378.84l0,.06h0l0,0v0h0v0l0,.06,0,.08h0l0,0,0,0h0v0l0,0,0,0,0,0,0,0v0h0l0,.07h0v0l0,0,0,0,0,0,0,0v0h0l0,0,0,0v0h0l.05.11,0,.11h0l0,.09h0l.05.12,0,.09,0,0h0l0,.1h0l0,0,0,.1h0l.05.12h0l0,.1v0l0,.13,0,.14h0c0,.09.06.18.08.26,5.21,2.16,10.68,4.61,18.2,7.85a7.13,7.13,0,0,1,.88,2.42l-9.28-4.22,9.46,5.41a19.57,19.57,0,0,1,.08,2l-5.33-2.38,5.28,3.39c-.05.59-.12,1.15-.21,1.67l.77.37h.05v0h0v0h0v-.06h0v-.06h0v-.06h0v-.07h0v-.09h0v-.08h0v-.05l0,0v-.1h0l0-.06v0l0-.06v0l0,0v0h0v-.08l0,0h0v-.11c.11-.32.21-.69.31-1.1v0l0-.09,0-.07h0l0-.11h0l0-.05,0-.12v0h0v0l0-.1v-.07l0-.14v-.06l0-.15h0l0-.17v0l0-.17V394c0-.05,0-.11,0-.16v-.23a1.09,1.09,0,0,0,0-.18v-.26c0-.06,0-.12,0-.18h0v-.66h0c0-.06,0-.12,0-.18v-.05c0-.06,0-.12,0-.18v-.06c0-.05,0-.11,0-.16v0h0v0l0-.19v0l0-.2v0a1.42,1.42,0,0,1,0-.2h0a1.29,1.29,0,0,0,0-.19v0c0-.07,0-.13,0-.2l0,0a1.6,1.6,0,0,0-.05-.21h0a1.17,1.17,0,0,0-.06-.2v0l-.06-.19,0-.06-.07-.19v0l-.08-.2v0l-.09-.2,0-.05-.09-.2v0c0-.06-.07-.12-.1-.19l0,0-.1-.2,0-.05-.11-.19,0,0-.12-.19v0h0l-.13-.2,0,0a2.43,2.43,0,0,0-.14-.2l0,0-.15-.2-17.91-7.47-2.33-1ZM167.46,394l0-.16s0,.11,0,.16Zm-.09-2.83,0-.2a1.42,1.42,0,0,0,0,.2ZM147,383.23c-.05-.29-.1-.58-.17-.85l3,1.82-2.82-1Zm.1,2.38L152,388l-5.05-1.44C147,386.24,147,385.92,147.06,385.61Z"/>
                  <path class="cls-47" d="M166.24,385.52c23-2.49,45.73-4.23,69-6.41,3.46,2.76,4.18,11.06.92,14.43l-37.75,4.63-5.21.64-27.31,3.35C167.06,396.31,168,391.58,166.24,385.52Z"/>
                  <path class="cls-48" d="M165.91,385.34s5.61,10.11-.44,16.82l-21-11.6.23-2.07,20.28,10a12.79,12.79,0,0,0,.11-10.47L144.33,379l-.05-2.8Z"/>
                  <g>
                    <path class="cls-49" d="M204.73,381.84a19.39,19.39,0,0,1,2.15,8,22.52,22.52,0,0,1-.85,7.41l-3.63.44a19.73,19.73,0,0,0,1.16-7.67,15.63,15.63,0,0,0-2.5-7.85Z"/>
                    <path class="cls-50" d="M184,383.72a21.85,21.85,0,0,1,2.44,9.17,20.22,20.22,0,0,1-.61,6.46l-3.58.47a17.64,17.64,0,0,0,.87-6.78,17.94,17.94,0,0,0-2.78-9Z"/>
                    <path class="cls-51" d="M222.83,380.24a16.89,16.89,0,0,1,2.51,8,19,19,0,0,1-.85,6.75l-3.69.45a16.15,16.15,0,0,0,1.22-7,13.37,13.37,0,0,0-3-7.83Z"/>
                  </g>
                </g>
                <g>
                  <polygon class="cls-52" points="171.98 372.53 236.53 366.58 237.09 365.98 205.14 360.41 149.01 363.05 150.34 365.11 171.98 372.53"/>
                  <polygon class="cls-53" points="171.76 369.85 170.29 371.85 170.65 383.35 172.63 385.62 237.97 379.7 237.09 365.98 171.76 369.85"/>
                  <path class="cls-54" d="M237.23,368.26l-8.72,1.08,8.79-.09-.07-1Zm-65.14,11,16.7-.7-16.92,2.22.22-1.52Zm-.36-6.25,23.79-.7-24,2.09.21-1.39Zm65.73-1.18-47.17,4,47.29-2.26-.12-1.77Zm.31,4.77-27.11,2.94,27.19-1.74Z"/>
                  <polygon class="cls-55" points="171.76 369.85 172.45 382.4 172.63 385.62 150.09 376.33 149.01 363.05 171.76 369.85"/>
                  <path class="cls-56" d="M149.2,365.41l5.38,2.3-5.25-.77-.13-1.53Zm23.16,15.3-12.44-4.78,12.36,3.32.08,1.46ZM150,375l9.21,3.16-9.31-4.31L150,375Zm-.48-5.81,12.59,4.88-12.45-3.17-.14-1.71ZM171.94,373l-7.64-1.66,7.71,3Z"/>
                </g>
              </g>
              <g>
                <path class="cls-18" d="M206.62,401.63a4.58,4.58,0,0,0,4.24-1.55c.73-.85,3.51-5.77.65-8.6-2-2-3.18-.84-3.18-.84"/>
                <path class="cls-18" d="M186,403.75s2.6-9.61,6.83-10.41c4.44-.83,2.14,6.16-.07,11.34,0,0-2.25,4.06-5.53,3.87"/>
                <path class="cls-18" d="M203.48,393.47s2.43-4.15,4.25-4.52,4.11.4,3.19,4a24.81,24.81,0,0,1-5.09,9.79"/>
                <path class="cls-18" d="M199.24,405.74s4.65-5.85,5.91-9.33c1-2.82-2-3.22-4.1-2.66-3.17.84-6.29,8.84-6.29,8.84"/>
              </g>
            </g>
            <path class="cls-57" d="M186,447.6s7.23-2.39,8.81-13.06"/>
            <path class="cls-57" d="M149.89,415s-8.59,31.59-8.63,53.36"/>
            <path class="cls-57" d="M146,431.43s8.79-1.83,15.71-13.85"/>
            <g>
              <g>
                <g>
                  <g>
                    <path class="cls-58" d="M421.34,380.25s9-2.92,21.71-5.67c1.68-.37,7.06-4.47,11-11.32a34.66,34.66,0,0,0,2.08-4.23l.71.7A66.75,66.75,0,0,0,468,368.46l1.69,1.07s-.45.88-1.2,2.28c-2.71,5-9.36,16.74-13,17.38a97.46,97.46,0,0,1-35-.37"/>
                    <path class="cls-59" d="M469.75,369.07a25,25,0,0,0-1.79,2.78c-6.81-.31-11-5.08-13.71-8.51a35.39,35.39,0,0,0,2.08-4.23l.71.69a66.4,66.4,0,0,0,11.15,8.74Z"/>
                  </g>
                  <g>
                    <path class="cls-58" d="M423.79,379.56a25,25,0,0,1-7.83-7,48.46,48.46,0,0,0-5.29-6.33s-8.08-4.45-17.58,3.34c0,0,.12,3,4.29,1.92,0,0-7,4.45-5.32,9.42,0,0,1,1.34,2.58-.07,0,0-1.59,2.58.2,3.53s5.43-4,9.06-4.71a5.6,5.6,0,0,1,.79,1.06,10.68,10.68,0,0,0-5.32,5c-1.69,3.61,1.16,2.94,2.21,1.91a56.4,56.4,0,0,1,4.55-3.51,8.28,8.28,0,0,1,4.54,1.61c2,1.58,3.85,6.25,11.27,3"/>
                    <path class="cls-58" d="M394.78,380.71a12,12,0,0,1,7.85-5.83"/>
                    <path class="cls-58" d="M395.92,372.63a9.18,9.18,0,0,1,7.29-2.2"/>
                    <path class="cls-58" d="M403.83,369.51s-3.45,6.6,1.1,11.48"/>
                    <path class="cls-58" d="M417.62,376s-4,.52-7.6-3.89l-3.36-3.64a.73.73,0,0,0-.93-.15c-.52.35-1,1.44.2,4.7,0,0,2.07,4.59,5.3,5.09,0,0-1.29,2.36,1.17,5.21s3,3,5,2.23"/>
                  </g>
                </g>
                <path class="cls-10" d="M465.92,334.72S450.5,354,448.87,361c0,0-1,5,11.19,11.18,0,0,3.66,2.55,7.61,1.94l7.45-17.2"/>
                <path class="cls-10" d="M479.69,327S469,341.28,467.4,348.24c0,0-1,5,11.19,11.18,0,0,23.9-4.42,27.86-5l-4.64-22"/>
              </g>
              <g>
                <path class="cls-60" d="M484.64,333.27c.69-.35,3-2.57,8.25-1s-.62,8.3-.62,8.3l-5.57.44S478.84,336.26,484.64,333.27Z"/>
                <path class="cls-60" d="M501.57,369.67c-.1.44-.18.86-.29,1.28h0C498.2,384.14,492,391.1,492,391.1a70.49,70.49,0,0,1-6-7.75c-.86-1.34-1.54-2.5-2.07-3.52a17.77,17.77,0,0,1-1.82-4.54c-.06-1.6-.08-3.15-.08-4.64s0-2.74.06-4c.13-3.7.4-7,.76-9.9.18-1.47.38-2.83.6-4.11,1.39-8.16,3.28-12.22,3.14-12.78-.38-1.62,5.92-1.55,5.92-1.55a61.83,61.83,0,0,0,1.57,8.18c.24.91.48,1.84.74,2.77.74,2.7,1.57,5.44,2.4,8,.3.89.58,1.77.86,2.61,1,3.11,2,5.8,2.64,7.58C501.25,368.83,501.57,369.67,501.57,369.67Z"/>
              </g>
              <path class="cls-61" d="M464.76,335.87c3.68-5.52,5.3-4.39,12.6-7.14-2.18,4.83-2.18,18.72-1,22.2s8.11,8.1,24.32-2.32c2.31-4.63,1.62-25.47,1.62-25.47,28.85,7.14,30.82,24.54,34.55,36.39s6.67,41.19,6.67,41.19c-32.26,20.49-60.83,9.26-60.83,9.26-11,11.58-10.61-23.26-16.57-43.3C462.44,354.4,462.44,339.35,464.76,335.87Z"/>
              <g>
                <path class="cls-23" d="M541.18,266.42c-3.14,24.55,13.55,39.67-8.41,54.26-6.3,4.18-13.19,4.45-19.36,3.85-3.43-.33-6.64-.93-9.41-1.29-16.4-2.09-18.87-31.31-15.88-54.75s12.69-54.64,29.08-52.55S544.48,240.56,541.18,266.42Z"/>
                <path class="cls-23" d="M492.53,304.56c.69,8.47-4.25,22.82-17.6,23.67-17.14,1.08-31.3-4.63-29-22.43.62-4.88,4-15.44,2.29-24.54-2.84-14.94,11.41-20.48,21.05-19.25C482.52,263.71,491.07,286.67,492.53,304.56Z"/>
              </g>
              <path class="cls-62" d="M497.91,317.47c2.12,5.5,1.39,11.17-1.91,14.15a11.75,11.75,0,0,1-6.49,2.59c-1.57.19-5.27.63-7.87-1.42-4.69-3.71-3.78-13.92-3.79-13.92h0Z"/>
              <g>
                <path class="cls-10" d="M491.05,334c-.49.22,5.57,6.18,5.57,6.18s6.48-3.47,7.65-15.3l-4.49-3.66S500.62,329.74,491.05,334Z"/>
                <path class="cls-10" d="M485.67,334.08c.51.18-3.42,8.15-3.42,8.15s-3.93-.1-7-11.6l2.07-4.7S477,331,485.67,334.08Z"/>
              </g>
              <g>
                <path class="cls-63" d="M521.18,379.62c2.2-.51-1.62-9.53-8.07-13s-13.32-5.72-14.41-3.69,2.37,8.31,8.82,11.75S517.32,380.51,521.18,379.62Z"/>
                <path class="cls-58" d="M448.08,355.72c4.25,6.09,11.87,14.67,11.87,14.67,7.62,9.39,28.62,13.7,28.62,13.7l11.69-17.56,2.56-3.85c14.58,1.75,17.32,11.13,17.32,11.13q-1.85,3.45-3.71,6.46c-11.22,18.3-21.82,25.39-21.82,25.39-13.56-1.21-32.24-17.87-38-22.57s-8.17-8.53-13.16-8.36"/>
                <g>
                  <path class="cls-64" d="M487.71,383.85s4.51,1.66,6,10.3"/>
                  <path class="cls-37" d="M487.84,383.5a7.61,7.61,0,0,1,2.49,2.05,12.47,12.47,0,0,1,1.66,2.66,17.81,17.81,0,0,1,1.07,2.91l.35,1.51.25,1.52-.34-1.5-.44-1.47a18.38,18.38,0,0,0-1.22-2.8,11.93,11.93,0,0,0-1.75-2.46,7.3,7.3,0,0,0-2.33-1.72Z"/>
                </g>
                <path class="cls-59" d="M520.21,373.5c-1.23,2.29-2.44,4.27-3.68,6.28-2.67-6.47-11.71-11.1-15.92-13.18l2.56-3.85C517.75,364.5,520.21,373.5,520.21,373.5Z"/>
                <path class="cls-10" d="M534.07,359.69l-12,20.05a.16.16,0,0,1-.27,0c-10.11-14.57-23.35-16.92-23.35-16.92s7.07-10.33,10.37-16.87c0,0,1.26-7.74,6.21-11.56,0,0,6.49-4.3,12.28,2.65S536.21,354.56,534.07,359.69Z"/>
                <g>
                  <g>
                    <line class="cls-58" x1="438.51" y1="359.89" x2="439.92" y2="359.54"/>
                    <g>
                      <path class="cls-64" d="M428.53,360s1.67-.94,4.3,1.27"/>
                      <path class="cls-37" d="M428.53,360a1.8,1.8,0,0,1,1.17-.49,3,3,0,0,1,1.26.19,4,4,0,0,1,1.07.63,3.45,3.45,0,0,1,.8.94c-.79-.28-1.45-.62-2.13-.86a6.45,6.45,0,0,0-1-.32A4.19,4.19,0,0,0,428.53,360Z"/>
                    </g>
                    <path class="cls-37" d="M431.17,361a15.16,15.16,0,0,0,2.93.15,13.68,13.68,0,0,0,2.85-.39,17.52,17.52,0,0,0,2.61-1,21.45,21.45,0,0,0,2.5-1.43l.08.07a5.86,5.86,0,0,1-2.1,2.24,7.69,7.69,0,0,1-2.93.94,13.75,13.75,0,0,1-6-.45Z"/>
                    <path class="cls-58" d="M454.55,381.44c-4.42-3.69-5.48-4.07-5.48-4.07-1.34,1.94-9.76,2.59-13.84.5-3.78-1.94-3-4.26-3-4.26-4.13-3.24-1.85-5.09-1.85-5.09-4-3.12-1.17-5.4-1.17-5.4-1.74-1.47-2-4.07-.3-5.32s7.52,1,7.52,1l.84.2s1.6-7.31,7.32-5.49a14.33,14.33,0,0,1,7.5,5.16s5.23,10.66,10.83,14.45"/>
                    <path class="cls-58" d="M428.48,362.54a8.88,8.88,0,0,0,6.52,2.2"/>
                    <path class="cls-58" d="M430,368s1.23,1.82,6.16,1.79"/>
                    <path class="cls-58" d="M431.73,373.16s1.47,1.51,5.82,1.28"/>
                  </g>
                  <path class="cls-58" d="M443.47,359a55.22,55.22,0,0,0-6.17,0"/>
                </g>
              </g>
              <g>
                <g>
                  <g>
                    <g>
                      <path class="cls-65" d="M458,294.7c-2,.93-7.28-.07-10.74-4.17-11-13-3.68-18.5-.24-18.35,1.51.06,9.4,1.27,11.07,9.36"/>
                      <path class="cls-66" d="M458,294.7a5.82,5.82,0,0,1-3.15.35,11.13,11.13,0,0,1-3.1-.84,12.83,12.83,0,0,1-5.1-3.88,33.17,33.17,0,0,1-3.66-5.26,14.52,14.52,0,0,1-1.91-6.16,7.9,7.9,0,0,1,.55-3.25,6.39,6.39,0,0,1,2-2.61,5.6,5.6,0,0,1,3.1-1.19,11.64,11.64,0,0,1,3.2.62,12.63,12.63,0,0,1,5.42,3.37,11.24,11.24,0,0,1,2.72,5.69,11.36,11.36,0,0,0-3-5.46,12.31,12.31,0,0,0-5.33-3.09,11,11,0,0,0-3-.5,5,5,0,0,0-2.72,1.08,5.67,5.67,0,0,0-1.79,2.35,7.09,7.09,0,0,0-.47,3,14.28,14.28,0,0,0,1.85,5.84,32.4,32.4,0,0,0,3.54,5.17,13.58,13.58,0,0,0,4.77,3.87,12.37,12.37,0,0,0,2.95,1A6,6,0,0,0,458,294.7Z"/>
                    </g>
                    <path class="cls-67" d="M455.24,284.61s-.95-8.34-7.6-8.73-.91,12.91,5.59,15.34c0,0,2.41.59-.41-4S455.24,284.61,455.24,284.61Z"/>
                  </g>
                  <path class="cls-68" d="M454.2,292.13s4.58,7.38.51,9.21-3.44-6.83-3.4-7.32h0c.12.39,1.81,6.15,2.34,2.2Z"/>
                </g>
                <path class="cls-62" d="M521.43,292.21c-2.66,11.73-9.06,21.29-19.3,27.06a43.63,43.63,0,0,1-21.69,6c-4.67,0-8.08-3.12-13.67-7-7.95-5.53-14.54-15.53-14.43-36.94.06-12.49-6.89-20-1.15-30,7.32-12.78,27.47-24.68,39.47-23.14C512.05,230.86,526.41,270.29,521.43,292.21Z"/>
                <path class="cls-69" d="M517.37,286.18s5-13.57-8.14-22.71-8.72-18.9-8.72-18.9-8.22,11.61-20.65,9.75l1.61-3.26s-9.41,6.93-21.09,4.5c0,0,4.35-3.84,4.92-7.76,0,0-16.8,9.72-17,25.27,0,0-6-11.56,2.94-24.14s30.91-21.1,51.6-13.39,27,33.31,27,33.31Z"/>
              </g>
              <path class="cls-67" d="M498.43,321.7s-11.61,5.07-19.93,3.85c0-.3.65,2.8.65,2.8s7.42,1.14,19.53-5.42C498.68,321.83,498.43,321.7,498.43,321.7Z"/>
              <g>
                <path class="cls-23" d="M502.78,237.54s-4.17,13.85-20.79,15.72c0,0,4.6-5.8,5.2-10.52,0,0-4.6,12.06-25,12,0,0,5.84-4,5-9.88a65.51,65.51,0,0,0-12.6,9.71c-7.14,7.29-2.56,16.62-2.42,23.35,0,0-14.75-13.82-13-30.52s12-29.5,41.43-36.53,51.56,11,57.79,24.85,1.32,38,1.32,38l-21.79,13.89s3.42-13.42-5.61-23C502.74,254.45,500.58,254.71,502.78,237.54Z"/>
                <path class="cls-23" d="M491.42,263h0a4.5,4.5,0,0,0,4.11,3c2.47.09,5.92.6,8.23,2.53C503.76,268.56,504.18,263.22,491.42,263Z"/>
                <path class="cls-23" d="M466,261.88h0a4.2,4.2,0,0,1-3.52,3.62c-2.5.4-5.92,1.35-8,3.58C454.5,269.08,453.37,263.84,466,261.88Z"/>
                <g>
                  <path class="cls-65" d="M473.31,282.74s1,4.59-1.82,7.95,1.72,8.47,7.73,4.17"/>
                  <path class="cls-70" d="M473.31,282.74a9.94,9.94,0,0,1-.1,5.46,7.7,7.7,0,0,1-1.28,2.5c-.15.2-.26.37-.37.54a1.65,1.65,0,0,0-.3.53,2.78,2.78,0,0,0-.23,1.17,3,3,0,0,0,.94,2.16,4.12,4.12,0,0,0,2.21,1.08,8.06,8.06,0,0,0,5-1.32,7.24,7.24,0,0,1-5.1,1.89,4.41,4.41,0,0,1-2.64-1.14,3.68,3.68,0,0,1-1.2-2.67,4.2,4.2,0,0,1,1.09-2.68,7.87,7.87,0,0,0,1.3-2.25A12,12,0,0,0,473.31,282.74Z"/>
                </g>
                <g>
                  <path class="cls-71" d="M441.65,237s20.61-29.74,62.67-15.31c0,0,29.58,11,26.62,53.69,0,0,2.35,1.91,2.94-1.7,0,0,3.75-39.5-26.48-53.07-29.6-13.3-60.71,2.72-65.75,16.39"/>
                  <g>
                    <g>
                      <g>
                        <path class="cls-72" d="M528.45,235.88c-2.39,4.07-1.85,9.12-7.23,5.28s-5.42-14.3-5.42-14.3,8.68-4.24,14.06-.41S530.83,231.82,528.45,235.88Z"/>
                        <path class="cls-72" d="M502.94,217.69c-2.39,4.06-6.79,5.59-1.41,9.42s14.05-.4,14.05-.4,0-10.47-5.42-14.31S505.32,213.62,502.94,217.69Z"/>
                      </g>
                      <ellipse class="cls-73" cx="509.31" cy="216.03" rx="0.96" ry="1.05" transform="translate(-23.47 67) rotate(-7.36)"/>
                      <ellipse class="cls-73" cx="511.78" cy="219.76" rx="0.96" ry="1.05" transform="translate(-23.93 67.35) rotate(-7.36)"/>
                      <ellipse class="cls-73" cx="506.23" cy="221.27" rx="0.96" ry="1.05" transform="translate(-24.17 66.65) rotate(-7.36)"/>
                      <path class="cls-73" d="M509.27,225.92a.9.9,0,0,1-1.33.3,1.13,1.13,0,0,1-.3-1.46.91.91,0,0,1,1.33-.29A1.12,1.12,0,0,1,509.27,225.92Z"/>
                      <ellipse class="cls-73" cx="504.18" cy="224.77" rx="0.96" ry="1.05" transform="matrix(0.99, -0.13, 0.13, 0.99, -24.63, 66.41)"/>
                      <path class="cls-73" d="M514,221.84a1.11,1.11,0,0,0,.3,1.45.89.89,0,0,0,.75.15c-.08-.63-.19-1.33-.35-2.06A.88.88,0,0,0,514,221.84Z"/>
                      <path class="cls-73" d="M513.08,217.47a.87.87,0,0,0,.5.18,15.74,15.74,0,0,0-.78-1.66s0,0,0,0A1.11,1.11,0,0,0,513.08,217.47Z"/>
                      <path class="cls-73" d="M505.59,228.26h0a11.87,11.87,0,0,0,1.68.12,1,1,0,0,0-.34-.42A.91.91,0,0,0,505.59,228.26Z"/>
                      <path class="cls-73" d="M512.22,226.79a.9.9,0,0,0-1.32.29,1.12,1.12,0,0,0-.1.89c.67-.15,1.29-.32,1.85-.5A1.06,1.06,0,0,0,512.22,226.79Z"/>
                      <path class="cls-73" d="M505.84,216a1.12,1.12,0,0,0-.3-1.46.9.9,0,0,0-.82-.12c-.17.46-.35.94-.55,1.44a1,1,0,0,0,.35.43A.9.9,0,0,0,505.84,216Z"/>
                      <path class="cls-73" d="M506.57,212.83a.91.91,0,0,0,1.33-.29,1.1,1.1,0,0,0,.1-.85,1.87,1.87,0,0,0-1.88.24A1.1,1.1,0,0,0,506.57,212.83Z"/>
                      <path class="cls-73" d="M501.44,221.58a.9.9,0,0,0,1.32-.3,1.11,1.11,0,0,0-.3-1.45.83.83,0,0,0-.49-.17c-.33.4-.66.78-1,1.14A1.1,1.1,0,0,0,501.44,221.58Z"/>
                      <path class="cls-73" d="M500.71,224.78a1.13,1.13,0,0,0-.3-1.46.9.9,0,0,0-.92-.08,2.36,2.36,0,0,0,.59,2A1,1,0,0,0,500.71,224.78Z"/>
                      <ellipse class="cls-73" cx="527.2" cy="228.79" rx="0.96" ry="1.05" transform="translate(-24.96 69.4) rotate(-7.36)"/>
                      <ellipse class="cls-73" cx="522.92" cy="228.22" rx="0.96" ry="1.05" transform="translate(-24.92 68.84) rotate(-7.36)"/>
                      <ellipse class="cls-73" cx="524.12" cy="234.04" rx="0.96" ry="1.05" transform="translate(-25.65 69.04) rotate(-7.36)"/>
                      <path class="cls-73" d="M519,232.89a1.11,1.11,0,0,0,.3,1.45.9.9,0,0,0,1.32-.29,1.12,1.12,0,0,0-.3-1.46A.89.89,0,0,0,519,232.89Z"/>
                      <ellipse class="cls-73" cx="522.07" cy="237.53" rx="0.96" ry="1.05" transform="translate(-26.12 68.81) rotate(-7.36)"/>
                      <path class="cls-73" d="M520.48,226.48a.91.91,0,0,1-1.33.29,1.08,1.08,0,0,1-.43-.7c.56-.17,1.18-.35,1.85-.49A1.14,1.14,0,0,1,520.48,226.48Z"/>
                      <path class="cls-73" d="M524.46,225.6a1.06,1.06,0,0,1-.35-.44,10.66,10.66,0,0,1,1.69.11s0,0,0,0A.91.91,0,0,1,524.46,225.6Z"/>
                      <path class="cls-73" d="M518.6,237.54h0a15.26,15.26,0,0,1-.78-1.63.91.91,0,0,1,.49.17A1.12,1.12,0,0,1,518.6,237.54Z"/>
                      <path class="cls-73" d="M517.1,230.27a1.12,1.12,0,0,1,.3,1.45.9.9,0,0,1-.69.46c-.15-.73-.27-1.43-.35-2.06A.91.91,0,0,1,517.1,230.27Z"/>
                      <path class="cls-73" d="M528.61,232.28a.91.91,0,0,1,1.33-.29,1.13,1.13,0,0,1,.44.77c-.31.36-.64.74-1,1.15a1,1,0,0,1-.5-.17A1.13,1.13,0,0,1,528.61,232.28Z"/>
                      <path class="cls-73" d="M531,230.24a1.12,1.12,0,0,1-.3-1.46.9.9,0,0,1,.65-.45,2.34,2.34,0,0,1,.57,2A.88.88,0,0,1,531,230.24Z"/>
                      <path class="cls-73" d="M525.83,239a1.12,1.12,0,0,1-.3-1.45.91.91,0,0,1,1.33-.3,1.13,1.13,0,0,1,.35.43c-.2.5-.38,1-.55,1.44A.89.89,0,0,1,525.83,239Z"/>
                      <path class="cls-73" d="M523.48,241a.91.91,0,0,1,1.33-.29,1.12,1.12,0,0,1,.44.89,1.82,1.82,0,0,1-1.88.22A1.08,1.08,0,0,1,523.48,241Z"/>
                    </g>
                    <g>
                      <g>
                        <g>
                          <path class="cls-74" d="M508.11,218.91c-1.25,1.32,4.52,5.07,4.52,5.07S509.36,217.58,508.11,218.91Z"/>
                          <path class="cls-74" d="M507.15,223.42c-.34,1.23,5.09,1.76,5.09,1.76S507.48,222.18,507.15,223.42Z"/>
                        </g>
                        <g>
                          <path class="cls-74" d="M525.31,231.17c-.59,1.8-6.06-2.46-6.06-2.46S525.89,229.37,525.31,231.17Z"/>
                          <path class="cls-74" d="M522,234c-.88.84-3.55-4.4-3.55-4.4S522.85,233.15,522,234Z"/>
                        </g>
                      </g>
                      <path class="cls-75" d="M512.63,226.1a2,2,0,0,0,.53,2.58l2,1.42a1.61,1.61,0,0,0,2.36-.52l1.25-2.14a2,2,0,0,0-.53-2.58l-2-1.42a1.61,1.61,0,0,0-2.36.52Z"/>
                    </g>
                  </g>
                </g>
                <g>
                  <g>
                    <g>
                      <path class="cls-65" d="M520.23,296c2.06.78,7.25-.62,10.39-5,10-13.81,2.27-18.73-1.15-18.32-1.5.18-9.28,2-10.33,10.18"/>
                      <path class="cls-66" d="M520.23,296a6,6,0,0,0,3.1-.17,12.9,12.9,0,0,0,2.86-1.22,13.9,13.9,0,0,0,4.47-4.23,32.47,32.47,0,0,0,3.13-5.42,14.22,14.22,0,0,0,1.4-6,6.91,6.91,0,0,0-.69-2.91,5.68,5.68,0,0,0-2-2.22,5,5,0,0,0-2.8-.86,11,11,0,0,0-3,.72,12.43,12.43,0,0,0-5.09,3.49,11.51,11.51,0,0,0-2.54,5.67,11.1,11.1,0,0,1,2.29-5.88,12.54,12.54,0,0,1,5.14-3.78,11.39,11.39,0,0,1,3.14-.85,5.45,5.45,0,0,1,3.18.94,6.34,6.34,0,0,1,2.22,2.46,7.75,7.75,0,0,1,.79,3.2,14.55,14.55,0,0,1-1.43,6.28,33.46,33.46,0,0,1-3.25,5.52,12.8,12.8,0,0,1-4.8,4.26,11.24,11.24,0,0,1-3,1.08A5.88,5.88,0,0,1,520.23,296Z"/>
                    </g>
                    <path class="cls-67" d="M522.25,285.71s.31-8.39,6.91-9.28,1.89,12.8-4.41,15.72c0,0-2.36.77.11-4S522.25,285.71,522.25,285.71Z"/>
                  </g>
                  <path class="cls-68" d="M523.85,293.13s-4,7.71.19,9.22,2.91-7.07,2.84-7.56h0c-.09.4-1.34,6.27-2.17,2.38Z"/>
                </g>
                <ellipse class="cls-76" cx="493.57" cy="281.3" rx="7.43" ry="8.18"/>
                <g>
                  <ellipse class="cls-77" cx="491.47" cy="284.22" rx="4.42" ry="4.89"/>
                  <ellipse class="cls-2" cx="495.27" cy="281.6" rx="1.14" ry="1.29"/>
                </g>
                <ellipse class="cls-76" cx="462.59" cy="281.6" rx="6.54" ry="7.51"/>
                <g>
                  <path class="cls-77" d="M466,285.27a4.26,4.26,0,0,1-2.5,3.53,4.48,4.48,0,0,1-3.36-.25c-.37-.15-2.51-1-3.05-2.93a3.75,3.75,0,0,1-.13-1.1,4.51,4.51,0,0,1,1.06-2.74,4.55,4.55,0,0,1,4.11-1.54A4.78,4.78,0,0,1,466,285.27Z"/>
                  <ellipse class="cls-2" cx="465.19" cy="281.81" rx="1.07" ry="1.17" transform="translate(-49.85 107.02) rotate(-12.46)"/>
                </g>
                <g>
                  <path class="cls-78" d="M492,300.1c-.13.28-1.08,2.26-1.41,2.79-1.53,2.43-4.63,8.28-8.73,10.12a11.88,11.88,0,0,1-9,.55c-3.62-1.38-4.08-4.77-6.08-8.78-.48-1-2-2.95-1.68-2.89,2.07.41,6.44,3,14.81,2.13,6.43-.64,7.77-2.29,9.11-2.93a10.73,10.73,0,0,1,2-.67S492,300.05,492,300.1Z"/>
                  <path class="cls-28" d="M477.35,312c-2.66-.17-6.47-1-7.73-1.92,2.23-1.52,6.07-2,7.77-1.09.07,0,.12.12.19.1a9.54,9.54,0,0,1,7.51,2C483.48,312,481,312.19,477.35,312Z"/>
                  <path class="cls-79" d="M492,299.92c-1.53,2.92-4.37,11.33-8.77,13.27-3,1.34-9,2.05-11.82.13-4-2.77-5.79-9.47-6.25-11.12,2.47,2.51,3,9.2,11.58,9.32C487.06,311.67,490.36,302.1,492,299.92Z"/>
                  <path class="cls-80" d="M467,302.81c.15.05,8.34,3.49,19.81-.36,0,0-2.45,4.23-9.26,4.63C469.8,307.55,467,302.81,467,302.81Z"/>
                  <path class="cls-67" d="M465.19,299.92s-3.23,1.58-1,4.14"/>
                  <path class="cls-67" d="M491.05,298.17s4.32.34,2.39,3.85C493.44,302,494,299.75,491.05,298.17Z"/>
                  <path class="cls-81" d="M492.63,300a33.86,33.86,0,0,1-15.3,4.38c-7.87.34-11.15-1.66-12.46-2.57.63,1.55-.28-.06,0,0a42.31,42.31,0,0,0,15.6.56c6.61-.85,10.82-2,12.21-2.69C492.84,299.55,492.58,299.83,492.63,300Z"/>
                </g>
                <path class="cls-82" d="M479.78,315.82s-3.49-2.36-5.64,0"/>
                <path class="cls-32" d="M457.88,276.39a9.59,9.59,0,0,1,5.69.41,10,10,0,0,1,5.48,5.91,7.74,7.74,0,0,0-4.34-8.17,6.16,6.16,0,0,0-6.83,1.85Z"/>
                <path class="cls-32" d="M488.48,275.34a12.16,12.16,0,0,1,6.64,1.28,12.33,12.33,0,0,1,5.71,6.43,8.72,8.72,0,0,0-.84-5.76,7.53,7.53,0,0,0-3.68-3.52,7.31,7.31,0,0,0-5.05-.18A7,7,0,0,0,488.48,275.34Z"/>
              </g>
            </g>
            <g>
              <polygon class="cls-7" points="344.94 535.52 300.69 594.6 644.65 594.6 587.13 538.48 344.94 535.52"/>
              <path class="cls-83" d="M317.56,594.6c-3.62,0-6.55-3.3-6.55-7.38v-122c0-4.08,2.93-7.38,6.55-7.38s6.55,3.3,6.55,7.38v122C324.11,591.3,321.18,594.6,317.56,594.6Z"/>
              <path class="cls-84" d="M351.5,562.48c-3.62,0-6.56-3.3-6.56-7.37v-122c0-4.07,2.94-7.37,6.56-7.37s6.55,3.3,6.55,7.37v122C358.05,559.18,355.12,562.48,351.5,562.48Z"/>
              <rect class="cls-85" x="311.01" y="481.79" width="13.11" height="27.05"/>
              <path class="cls-83" d="M615.64,594.6c3.62,0,6.55-3.3,6.55-7.38v-122c0-4.08-2.93-7.38-6.55-7.38s-6.56,3.3-6.56,7.38v122C609.08,591.3,612,594.6,615.64,594.6Z"/>
              <path class="cls-84" d="M581.7,562.48c3.62,0,6.55-3.3,6.55-7.37v-122c0-4.07-2.93-7.37-6.55-7.37s-6.56,3.3-6.56,7.37v122C575.14,559.18,578.08,562.48,581.7,562.48Z"/>
              <rect class="cls-85" x="609.08" y="481.79" width="13.11" height="24.59"/>
              <path class="cls-86" d="M301.89,444.53H634.44a0,0,0,0,1,0,0v57.41a.55.55,0,0,1-.55.55H302.43a.55.55,0,0,1-.55-.55V444.53A0,0,0,0,1,301.89,444.53Z"/>
              <polygon class="cls-85" points="301.89 457.67 634.44 454.43 634.44 444.53 301.89 444.53 301.89 457.67"/>
              <path class="cls-87" d="M651.44,439.84H284.89V450a2.21,2.21,0,0,0,2.22,2.22H649.22a2.22,2.22,0,0,0,2.22-2.22Z"/>
              <path class="cls-88" d="M648,443.11H288.34a3.45,3.45,0,0,1-3.09-5L311,401.85a3.45,3.45,0,0,1,3.09-1.91H624.55a3.45,3.45,0,0,1,3.09,1.91l23.43,36.26A3.45,3.45,0,0,1,648,443.11Z"/>
            </g>
            <g>
              <path class="cls-89" d="M323.94,416.31l-3.11,1.55,45.76,15.53,23.48-14.15s.78-1.62-3.29-2.43S325.91,413.54,323.94,416.31Z"/>
              <g>
                <path class="cls-90" d="M387.05,408.66l-20.46,12.52L322.76,407l22.18-11Zm-20.46,21.75-43.83-14.49,2-1c-.09.24-.18.47-.29.7l42.12,13.82,19.18-11.13a9,9,0,0,0,.24-7.75l.69-.43q2.46,4.15-.52,8.93Z"/>
                <path class="cls-91" d="M366.59,422.76,386,410.55a9,9,0,0,1-.24,7.75l-19.18,11.13A8.64,8.64,0,0,0,366.59,422.76Z"/>
                <path class="cls-92" d="M324.47,409.06l42.12,13.7a8.64,8.64,0,0,1,0,6.67l-42.12-13.82c.11-.23.2-.46.29-.7A7.33,7.33,0,0,0,324.47,409.06Z"/>
                <path class="cls-93" d="M322.76,407l43.83,14.17v1.58l-42.12-13.7-1.71-.56Zm0,8.91,43.83,14.49v1.45l-43.83-14.68Z"/>
                <path class="cls-94" d="M366.59,421.18l20.46-12.52q3.7,3.76,0,11l-20.46,12.16v-1.45l19.59-11.36q3-4.77.52-8.93l-.69.43-19.42,12.21Z"/>
              </g>
            </g>
            <g>
              <path class="cls-89" d="M394.23,427.35l-4.1,5.11s37.88-3.82,57.45-1.4c0,0,34.29-.82,57.26,1.12,0,0-.47-1.86-4.21-5.77C500.63,426.41,412.88,417.34,394.23,427.35Z"/>
              <path class="cls-95" d="M447.82,429.23c16.48-3.44,37.81-2.58,53.77,1.34a6.15,6.15,0,0,0,.33-.63L483.73,403c-8.58-5.57-27.86-4.45-35.91.16Z"/>
              <path class="cls-96" d="M447.82,427.59c16.48-3.43,36.64-3.12,52.59.81a30.88,30.88,0,0,0,1.71-2.67L483.73,401c-8.58-5.57-27.86-4.45-35.91.16Z"/>
              <g>
                <path class="cls-97" d="M447.82,425.45c15.76-5.22,38.59-4.4,54.3.28L483.73,401c-8.58-5.57-27.86-4.45-35.91.16Z"/>
                <path class="cls-98" d="M502.12,425.92H502c-16.77-5-39.51-5.12-54.09-.29a.36.36,0,0,1-.23,0c-.07,0-.14-.1-.14-.17V401.13a.16.16,0,0,1,.08-.15c8.28-4.74,27.7-5.69,36.22-.16l.05.05,18.39,24.76a.17.17,0,0,1,0,.22A.24.24,0,0,1,502.12,425.92Zm-29.4-4.21a107.49,107.49,0,0,1,28.86,3.66l-18-24.27c-8.36-5.39-27.31-4.49-35.5.13v23.93A82.9,82.9,0,0,1,472.72,421.71Z"/>
              </g>
              <g>
                <path class="cls-99" d="M447.82,425.45c15.14-6.25,38.12-6.77,54.6-1.71L483.73,401c-8.58-5.57-27.86-4.45-35.91.16Z"/>
                <path class="cls-98" d="M447.83,425.64l-.11,0c-.07,0-.14-.1-.14-.17V401.13a.16.16,0,0,1,.08-.15c8.28-4.74,27.7-5.69,36.22-.16l.05.05,18.69,22.77a.16.16,0,0,1,0,.22.25.25,0,0,1-.26.06c-16.71-5.14-39.57-4.42-54.39,1.7Zm.22-24.41v23.93c14.73-6,37.15-6.71,53.78-1.8L483.55,401.1C475.19,395.7,456.25,396.61,448.05,401.23Z"/>
              </g>
              <g>
                <path class="cls-2" d="M447.82,425.45c15.78-8.63,37.77-9.42,54.75-4.47l-18.65-20.45c-8.58-5.56-28.05-4-36.1.6Z"/>
                <path class="cls-98" d="M447.83,425.64l-.11,0a.2.2,0,0,1-.14-.17V401.13a.16.16,0,0,1,.08-.15c8.47-4.86,28-6,36.41-.6l18.69,20.49a.16.16,0,0,1,0,.22.26.26,0,0,1-.27.07c-18.39-5.36-39.81-3.6-54.54,4.46A.23.23,0,0,1,447.83,425.64Zm.22-24.41V425.1c14.65-7.85,35.67-9.6,53.88-4.51l-18.18-19.92C475.53,395.35,456.44,396.5,448.05,401.23Z"/>
              </g>
              <path class="cls-95" d="M447.82,429.23c-16.49-3.29-37.77-2.25-53.72,1.83-.07-.12-.28-.48-.34-.63l18.11-27.11c8.56-5.64,27.89-4.7,35.95-.16Z"/>
              <path class="cls-96" d="M447.82,427.59c-16.5-3.28-36.61-2.79-52.55,1.28-.26-.34-1.63-2.39-1.72-2.65L416.13,402c8.57-5.65,23.63-5.41,31.69-.87Z"/>
              <g>
                <path class="cls-97" d="M447.82,425.45c-15.77-5.07-38.58-4.05-54.27.77L416.72,402c8.56-5.64,23-5.4,31.1-.86Z"/>
                <path class="cls-98" d="M393.55,426.41a.27.27,0,0,1-.19-.08.17.17,0,0,1,0-.23l23.17-24.22c8.94-5.89,23.74-5.22,31.4-.9a.18.18,0,0,1,.12.15v24.32a.21.21,0,0,1-.1.17.36.36,0,0,1-.23,0c-14.6-4.7-37.33-4.37-54.09.78Zm23.34-24.28-22.66,23.68c14.41-4.24,37-5.79,53.35-.65V401.23C440,397.05,425.62,396.38,416.89,402.13Z"/>
              </g>
              <g>
                <path class="cls-99" d="M447.82,425.45c-15.16-6.12-38.39-7-54.86-1.78l20.68-22.21c8.56-5.65,26.12-4.87,34.18-.33Z"/>
                <path class="cls-98" d="M447.83,425.64l-.11,0c-15.36-6.2-38.34-6.94-54.67-1.77a.26.26,0,0,1-.27-.06.15.15,0,0,1,0-.23l20.67-22.22c8.69-5.73,26.24-5,34.48-.36a.18.18,0,0,1,.12.15v24.32a.19.19,0,0,1-.1.17Zm-30.75-5.59c10.87-.05,21.85,1.69,30.5,5.11V401.23c-8-4.42-25.41-5.14-33.78.36l-20.16,21.67A83.73,83.73,0,0,1,417.08,420.05Z"/>
              </g>
              <g>
                <path class="cls-2" d="M447.82,425.45c-15.49-8.82-39.59-9.63-54.86-5.09l19-19.5c8.57-5.65,27.78-4.27,35.84.27Z"/>
                <path class="cls-98" d="M447.83,425.64a.22.22,0,0,1-.11,0c-16-9.1-40.1-9.42-54.68-5.09a.26.26,0,0,1-.27-.06.16.16,0,0,1,0-.23l19-19.5c3.94-2.6,10.63-4,18.29-3.75,7,.21,13.85,1.74,17.84,4a.18.18,0,0,1,.12.15v24.32a.16.16,0,0,1-.1.17Zm-34.46-8.19c11.74-.05,24.43,2.19,34.21,7.64V401.23c-8.33-4.61-27.29-5.58-35.43-.24l-18.5,19A76.36,76.36,0,0,1,413.37,417.45Z"/>
              </g>
              <path class="cls-100" d="M481.84,401.91a.27.27,0,0,0-.23-.32c-10.73-2.34-21.25-1.64-29.61,2a.24.24,0,0,0-.13.35.34.34,0,0,0,.29.14.4.4,0,0,0,.15,0c8.21-3.55,18.56-4.23,29.13-1.92A.36.36,0,0,0,481.84,401.91Zm2.53,2.47c0-.14-.07-.28-.25-.31-11.59-2.15-21.79-1.25-32.1,2.83a.24.24,0,0,0-.15.35.32.32,0,0,0,.29.15.32.32,0,0,0,.14,0c10.17-4,20.24-4.91,31.68-2.79A.33.33,0,0,0,484.37,404.38Zm2.57,2.65a.26.26,0,0,0-.26-.3c-13.76-2.14-21.09-1.86-34.83,4a.25.25,0,0,0-.14.36.36.36,0,0,0,.29.14.37.37,0,0,0,.15,0c13.57-5.77,20.81-6,34.41-3.93A.33.33,0,0,0,486.94,407Zm-34.83,7.68a.34.34,0,0,0,.28.13.45.45,0,0,0,.16,0c15.14-6.93,23.48-6.3,36-4.74a.31.31,0,0,0,.37-.21c0-.15-.09-.28-.27-.3-12.7-1.59-21.13-2.22-36.46,4.79A.24.24,0,0,0,452.11,414.71Zm0,4a.34.34,0,0,0,.29.14l.15,0c14.41-6.36,25.35-6.89,39.24-5.05a.32.32,0,0,0,.38-.22c0-.14-.09-.27-.27-.3-14-1.86-25.08-1.33-39.66,5.11A.23.23,0,0,0,452.12,418.68Z"/>
              <path class="cls-100" d="M415.38,402.1c10.57-2.31,20.92-1.63,29.13,1.92a.4.4,0,0,0,.15,0,.34.34,0,0,0,.29-.14.24.24,0,0,0-.14-.35c-8.35-3.61-18.87-4.31-29.6-2a.27.27,0,0,0-.23.32A.36.36,0,0,0,415.38,402.1Zm-2.54,2.48c11.44-2.12,21.51-1.23,31.68,2.79a.32.32,0,0,0,.14,0,.33.33,0,0,0,.29-.15.24.24,0,0,0-.15-.35c-10.31-4.08-20.51-5-32.11-2.83a.26.26,0,0,0-.24.31A.33.33,0,0,0,412.84,404.58Zm-2.58,2.66c13.6-2.11,20.84-1.84,34.41,3.93a.33.33,0,0,0,.15,0,.32.32,0,0,0,.28-.14.24.24,0,0,0-.13-.36c-13.74-5.83-21.07-6.11-34.83-4a.26.26,0,0,0-.26.3A.33.33,0,0,0,410.26,407.24Zm34.33,7.11c-15.33-7-23.76-6.38-36.46-4.79-.18,0-.3.15-.27.3a.31.31,0,0,0,.37.21c12.56-1.56,20.9-2.19,36,4.74a.45.45,0,0,0,.16,0,.36.36,0,0,0,.28-.13A.24.24,0,0,0,444.59,414.35Zm0,4c-14.58-6.44-25.63-7-39.66-5.11-.18,0-.3.16-.27.3a.32.32,0,0,0,.38.22c13.89-1.84,24.83-1.31,39.24,5.05l.15,0a.34.34,0,0,0,.29-.14A.24.24,0,0,0,444.57,418.33Z"/>
            </g>
            <path class="cls-101" d="M185.51,414l-1.31,5.19s8.73.57,11.49-1.54l.66-4.53Z"/>
          </g>
        </g>
      </g>
    </g>
  </g>
  <g class="cls-102">
    <g class="cls-103">
      <path class="cls-104" d="M2405.69,782.8c-.88-43.68-1.64-87.36-3.6-131-1.69-37.66-3.91-75.25-5.24-112.92l-60.21-44.71-1804.93-.09L484.6,621.56l25.19,224.58H2407.36Q2406.3,814.5,2405.69,782.8Z"/>
    </g>
  </g>
</svg>
